<svg xmlns="http://www.w3.org/2000/svg" viewBox="0 0 960 320" width="960" height="320" font-family="Segoe UI, system-ui, -apple-system, Roboto, Helvetica, Arial, sans-serif" role="img" aria-label="Availability history per region"><rect x="0.5" y="0.5" width="959" height="319" rx="14" fill="#ffffff" stroke="#dce3f1"/><text x="42" y="26" font-size="14" font-weight="600" fill="#14203a">History · 307 points</text><circle cx="47" cy="40" r="5" fill="#22c55e"/><text x="57" y="44" font-size="12" fill="#5a688a">Available</text><circle cx="139.8" cy="40" r="5" fill="#f59e0b"/><text x="149.8" y="44" font-size="12" fill="#5a688a">Saturated</text><circle cx="232.60000000000002" cy="40" r="5" fill="#ef4444"/><text x="242.60000000000002" y="44" font-size="12" fill="#5a688a">Error</text><circle cx="296.6" cy="40" r="5" fill="#a855f7"/><text x="306.6" y="44" font-size="12" fill="#5a688a">Timeout</text><line x1="42" y1="286.0" x2="938" y2="286.0" stroke="#eef2f7" stroke-width="1"/><text x="35" y="289.0" text-anchor="end" font-size="11" fill="#5a688a">0</text><line x1="42" y1="227.5" x2="938" y2="227.5" stroke="#eef2f7" stroke-width="1"/><text x="35" y="230.5" text-anchor="end" font-size="11" fill="#5a688a">10</text><line x1="42" y1="169.0" x2="938" y2="169.0" stroke="#eef2f7" stroke-width="1"/><text x="35" y="172.0" text-anchor="end" font-size="11" fill="#5a688a">20</text><line x1="42" y1="110.5" x2="938" y2="110.5" stroke="#eef2f7" stroke-width="1"/><text x="35" y="113.5" text-anchor="end" font-size="11" fill="#5a688a">29</text><line x1="42" y1="52.0" x2="938" y2="52.0" stroke="#eef2f7" stroke-width="1"/><text x="35" y="55.0" text-anchor="end" font-size="11" fill="#5a688a">39</text><polyline fill="none" stroke="#22c55e" stroke-width="2.5" stroke-linejoin="round" stroke-linecap="round" points="42.0,70.0 44.9,70.0 47.9,88.0 50.8,88.0 53.7,76.0 56.6,76.0 59.6,76.0 62.5,70.0 65.4,76.0 68.4,70.0 71.3,64.0 74.2,58.0 77.1,58.0 80.1,58.0 83.0,58.0 85.9,58.0 88.8,58.0 91.8,58.0 94.7,58.0 97.6,58.0 100.6,58.0 103.5,58.0 106.4,58.0 109.3,58.0 112.3,58.0 115.2,58.0 118.1,58.0 121.1,58.0 124.0,58.0 126.9,58.0 129.8,58.0 132.8,70.0 135.7,76.0 138.6,94.0 141.6,64.0 144.5,64.0 147.4,58.0 150.3,58.0 153.3,58.0 156.2,70.0 159.1,76.0 162.1,76.0 165.0,82.0 167.9,82.0 170.8,82.0 173.8,82.0 176.7,76.0 179.6,64.0 182.5,70.0 185.5,70.0 188.4,82.0 191.3,76.0 194.3,76.0 197.2,82.0 200.1,76.0 203.0,76.0 206.0,76.0 208.9,64.0 211.8,64.0 214.8,76.0 217.7,76.0 220.6,76.0 223.5,88.0 226.5,70.0 229.4,64.0 232.3,58.0 235.3,58.0 238.2,70.0 241.1,70.0 244.0,70.0 247.0,76.0 249.9,70.0 252.8,70.0 255.8,70.0 258.7,70.0 261.6,76.0 264.5,82.0 267.5,76.0 270.4,70.0 273.3,70.0 276.2,70.0 279.2,70.0 282.1,76.0 285.0,70.0 288.0,70.0 290.9,70.0 293.8,70.0 296.7,70.0 299.7,70.0 302.6,70.0 305.5,70.0 308.5,70.0 311.4,70.0 314.3,70.0 317.2,70.0 320.2,70.0 323.1,70.0 326.0,70.0 329.0,70.0 331.9,70.0 334.8,70.0 337.7,70.0 340.7,70.0 343.6,70.0 346.5,70.0 349.5,70.0 352.4,70.0 355.3,70.0 358.2,70.0 361.2,70.0 364.1,70.0 367.0,70.0 369.9,70.0 372.9,70.0 375.8,70.0 378.7,70.0 381.7,70.0 384.6,70.0 387.5,70.0 390.4,70.0 393.4,70.0 396.3,70.0 399.2,70.0 402.2,70.0 405.1,70.0 408.0,70.0 410.9,70.0 413.9,70.0 416.8,70.0 419.7,70.0 422.7,70.0 425.6,70.0 428.5,70.0 431.4,70.0 434.4,70.0 437.3,70.0 440.2,70.0 443.2,70.0 446.1,70.0 449.0,70.0 451.9,70.0 454.9,70.0 457.8,70.0 460.7,70.0 463.6,70.0 466.6,70.0 469.5,70.0 472.4,70.0 475.4,70.0 478.3,70.0 481.2,70.0 484.1,76.0 487.1,70.0 490.0,70.0 492.9,70.0 495.9,70.0 498.8,70.0 501.7,76.0 504.6,76.0 507.6,88.0 510.5,88.0 513.4,88.0 516.4,94.0 519.3,94.0 522.2,94.0 525.1,94.0 528.1,88.0 531.0,88.0 533.9,82.0 536.8,82.0 539.8,82.0 542.7,88.0 545.6,88.0 548.6,94.0 551.5,82.0 554.4,82.0 557.3,82.0 560.3,82.0 563.2,88.0 566.1,88.0 569.1,94.0 572.0,94.0 574.9,88.0 577.8,88.0 580.8,88.0 583.7,94.0 586.6,94.0 589.6,106.0 592.5,94.0 595.4,94.0 598.3,94.0 601.3,94.0 604.2,88.0 607.1,88.0 610.1,82.0 613.0,76.0 615.9,76.0 618.8,76.0 621.8,76.0 624.7,76.0 627.6,76.0 630.5,70.0 633.5,70.0 636.4,70.0 639.3,76.0 642.3,88.0 645.2,82.0 648.1,70.0 651.0,70.0 654.0,70.0 656.9,76.0 659.8,76.0 662.8,76.0 665.7,82.0 668.6,70.0 671.5,76.0 674.5,64.0 677.4,70.0 680.3,58.0 683.3,58.0 686.2,58.0 689.1,58.0 692.0,58.0 695.0,64.0 697.9,58.0 700.8,64.0 703.8,58.0 706.7,58.0 709.6,58.0 712.5,58.0 715.5,64.0 718.4,64.0 721.3,64.0 724.2,76.0 727.2,70.0 730.1,82.0 733.0,70.0 736.0,76.0 738.9,58.0 741.8,64.0 744.7,58.0 747.7,64.0 750.6,58.0 753.5,58.0 756.5,58.0 759.4,64.0 762.3,70.0 765.2,64.0 768.2,64.0 771.1,64.0 774.0,70.0 777.0,70.0 779.9,64.0 782.8,70.0 785.7,70.0 788.7,70.0 791.6,58.0 794.5,58.0 797.5,58.0 800.4,58.0 803.3,58.0 806.2,64.0 809.2,58.0 812.1,58.0 815.0,58.0 817.9,58.0 820.9,58.0 823.8,58.0 826.7,58.0 829.7,58.0 832.6,64.0 835.5,58.0 838.4,58.0 841.4,58.0 844.3,58.0 847.2,58.0 850.2,58.0 853.1,58.0 856.0,64.0 858.9,58.0 861.9,58.0 864.8,58.0 867.7,58.0 870.7,58.0 873.6,58.0 876.5,58.0 879.4,58.0 882.4,58.0 885.3,58.0 888.2,58.0 891.2,58.0 894.1,58.0 897.0,58.0 899.9,58.0 902.9,58.0 905.8,58.0 908.7,58.0 911.6,58.0 914.6,64.0 917.5,64.0 920.4,58.0 923.4,58.0 926.3,58.0 929.2,64.0 932.1,64.0 935.1,76.0 938.0,64.0"/><polyline fill="none" stroke="#f59e0b" stroke-width="2.5" stroke-linejoin="round" stroke-linecap="round" points="42.0,274.0 44.9,274.0 47.9,274.0 50.8,280.0 53.7,268.0 56.6,268.0 59.6,268.0 62.5,274.0 65.4,274.0 68.4,274.0 71.3,280.0 74.2,286.0 77.1,286.0 80.1,286.0 83.0,286.0 85.9,286.0 88.8,286.0 91.8,286.0 94.7,286.0 97.6,286.0 100.6,286.0 103.5,286.0 106.4,286.0 109.3,286.0 112.3,286.0 115.2,286.0 118.1,286.0 121.1,286.0 124.0,286.0 126.9,286.0 129.8,286.0 132.8,274.0 135.7,280.0 138.6,280.0 141.6,280.0 144.5,280.0 147.4,286.0 150.3,286.0 153.3,286.0 156.2,274.0 159.1,268.0 162.1,268.0 165.0,262.0 167.9,262.0 170.8,262.0 173.8,262.0 176.7,268.0 179.6,280.0 182.5,280.0 185.5,274.0 188.4,262.0 191.3,268.0 194.3,268.0 197.2,262.0 200.1,268.0 203.0,268.0 206.0,268.0 208.9,280.0 211.8,280.0 214.8,268.0 217.7,268.0 220.6,268.0 223.5,262.0 226.5,274.0 229.4,280.0 232.3,286.0 235.3,286.0 238.2,274.0 241.1,274.0 244.0,274.0 247.0,274.0 249.9,274.0 252.8,274.0 255.8,274.0 258.7,274.0 261.6,280.0 264.5,274.0 267.5,280.0 270.4,286.0 273.3,286.0 276.2,286.0 279.2,286.0 282.1,280.0 285.0,286.0 288.0,286.0 290.9,286.0 293.8,286.0 296.7,286.0 299.7,286.0 302.6,286.0 305.5,286.0 308.5,286.0 311.4,286.0 314.3,286.0 317.2,286.0 320.2,286.0 323.1,286.0 326.0,286.0 329.0,286.0 331.9,286.0 334.8,286.0 337.7,286.0 340.7,286.0 343.6,286.0 346.5,286.0 349.5,286.0 352.4,286.0 355.3,286.0 358.2,286.0 361.2,286.0 364.1,286.0 367.0,286.0 369.9,286.0 372.9,286.0 375.8,286.0 378.7,286.0 381.7,286.0 384.6,286.0 387.5,286.0 390.4,286.0 393.4,286.0 396.3,286.0 399.2,286.0 402.2,286.0 405.1,286.0 408.0,286.0 410.9,286.0 413.9,286.0 416.8,286.0 419.7,286.0 422.7,286.0 425.6,286.0 428.5,286.0 431.4,286.0 434.4,286.0 437.3,286.0 440.2,286.0 443.2,286.0 446.1,286.0 449.0,286.0 451.9,286.0 454.9,286.0 457.8,286.0 460.7,286.0 463.6,286.0 466.6,286.0 469.5,286.0 472.4,286.0 475.4,286.0 478.3,286.0 481.2,286.0 484.1,286.0 487.1,286.0 490.0,286.0 492.9,286.0 495.9,286.0 498.8,286.0 501.7,286.0 504.6,280.0 507.6,268.0 510.5,268.0 513.4,268.0 516.4,268.0 519.3,262.0 522.2,262.0 525.1,262.0 528.1,268.0 531.0,268.0 533.9,274.0 536.8,274.0 539.8,274.0 542.7,268.0 545.6,268.0 548.6,268.0 551.5,274.0 554.4,274.0 557.3,274.0 560.3,274.0 563.2,268.0 566.1,268.0 569.1,262.0 572.0,262.0 574.9,268.0 577.8,268.0 580.8,268.0 583.7,262.0 586.6,262.0 589.6,274.0 592.5,262.0 595.4,262.0 598.3,262.0 601.3,262.0 604.2,268.0 607.1,268.0 610.1,274.0 613.0,280.0 615.9,280.0 618.8,280.0 621.8,280.0 624.7,280.0 627.6,280.0 630.5,286.0 633.5,286.0 636.4,286.0 639.3,280.0 642.3,274.0 645.2,274.0 648.1,280.0 651.0,274.0 654.0,274.0 656.9,268.0 659.8,268.0 662.8,268.0 665.7,268.0 668.6,280.0 671.5,274.0 674.5,280.0 677.4,280.0 680.3,286.0 683.3,286.0 686.2,286.0 689.1,286.0 692.0,286.0 695.0,286.0 697.9,286.0 700.8,286.0 703.8,286.0 706.7,286.0 709.6,286.0 712.5,286.0 715.5,280.0 718.4,280.0 721.3,280.0 724.2,268.0 727.2,280.0 730.1,268.0 733.0,274.0 736.0,274.0 738.9,286.0 741.8,280.0 744.7,286.0 747.7,280.0 750.6,286.0 753.5,286.0 756.5,286.0 759.4,280.0 762.3,274.0 765.2,280.0 768.2,280.0 771.1,280.0 774.0,274.0 777.0,274.0 779.9,280.0 782.8,280.0 785.7,280.0 788.7,280.0 791.6,286.0 794.5,286.0 797.5,286.0 800.4,286.0 803.3,286.0 806.2,286.0 809.2,286.0 812.1,286.0 815.0,286.0 817.9,286.0 820.9,286.0 823.8,286.0 826.7,286.0 829.7,286.0 832.6,286.0 835.5,286.0 838.4,286.0 841.4,286.0 844.3,286.0 847.2,286.0 850.2,286.0 853.1,286.0 856.0,286.0 858.9,286.0 861.9,286.0 864.8,286.0 867.7,286.0 870.7,286.0 873.6,286.0 876.5,286.0 879.4,286.0 882.4,286.0 885.3,286.0 888.2,286.0 891.2,286.0 894.1,286.0 897.0,286.0 899.9,286.0 902.9,286.0 905.8,286.0 908.7,286.0 911.6,286.0 914.6,286.0 917.5,286.0 920.4,286.0 923.4,286.0 926.3,286.0 929.2,280.0 932.1,280.0 935.1,280.0 938.0,280.0"/><polyline fill="none" stroke="#ef4444" stroke-width="2.5" stroke-linejoin="round" stroke-linecap="round" points="42.0,280.0 44.9,280.0 47.9,268.0 50.8,262.0 53.7,286.0 56.6,286.0 59.6,286.0 62.5,286.0 65.4,280.0 68.4,286.0 71.3,286.0 74.2,286.0 77.1,286.0 80.1,286.0 83.0,286.0 85.9,286.0 88.8,286.0 91.8,286.0 94.7,286.0 97.6,286.0 100.6,286.0 103.5,286.0 106.4,286.0 109.3,286.0 112.3,286.0 115.2,286.0 118.1,286.0 121.1,286.0 124.0,286.0 126.9,286.0 129.8,286.0 132.8,286.0 135.7,274.0 138.6,256.0 141.6,286.0 144.5,286.0 147.4,286.0 150.3,286.0 153.3,286.0 156.2,286.0 159.1,286.0 162.1,286.0 165.0,286.0 167.9,286.0 170.8,286.0 173.8,286.0 176.7,286.0 179.6,286.0 182.5,280.0 185.5,286.0 188.4,286.0 191.3,286.0 194.3,286.0 197.2,286.0 200.1,286.0 203.0,286.0 206.0,286.0 208.9,286.0 211.8,286.0 214.8,286.0 217.7,286.0 220.6,286.0 223.5,280.0 226.5,286.0 229.4,286.0 232.3,286.0 235.3,286.0 238.2,286.0 241.1,286.0 244.0,286.0 247.0,286.0 249.9,286.0 252.8,286.0 255.8,286.0 258.7,286.0 261.6,274.0 264.5,274.0 267.5,274.0 270.4,274.0 273.3,274.0 276.2,274.0 279.2,274.0 282.1,274.0 285.0,274.0 288.0,274.0 290.9,274.0 293.8,274.0 296.7,274.0 299.7,274.0 302.6,274.0 305.5,274.0 308.5,274.0 311.4,274.0 314.3,274.0 317.2,274.0 320.2,274.0 323.1,274.0 326.0,274.0 329.0,274.0 331.9,274.0 334.8,274.0 337.7,274.0 340.7,274.0 343.6,274.0 346.5,274.0 349.5,274.0 352.4,274.0 355.3,274.0 358.2,274.0 361.2,274.0 364.1,274.0 367.0,274.0 369.9,274.0 372.9,274.0 375.8,274.0 378.7,274.0 381.7,274.0 384.6,274.0 387.5,274.0 390.4,274.0 393.4,274.0 396.3,274.0 399.2,274.0 402.2,274.0 405.1,274.0 408.0,274.0 410.9,274.0 413.9,274.0 416.8,274.0 419.7,274.0 422.7,274.0 425.6,274.0 428.5,274.0 431.4,274.0 434.4,274.0 437.3,274.0 440.2,274.0 443.2,274.0 446.1,274.0 449.0,274.0 451.9,274.0 454.9,274.0 457.8,274.0 460.7,274.0 463.6,274.0 466.6,274.0 469.5,274.0 472.4,274.0 475.4,274.0 478.3,274.0 481.2,274.0 484.1,268.0 487.1,274.0 490.0,274.0 492.9,274.0 495.9,274.0 498.8,274.0 501.7,274.0 504.6,274.0 507.6,274.0 510.5,274.0 513.4,274.0 516.4,268.0 519.3,274.0 522.2,274.0 525.1,274.0 528.1,274.0 531.0,274.0 533.9,274.0 536.8,274.0 539.8,274.0 542.7,274.0 545.6,274.0 548.6,268.0 551.5,274.0 554.4,274.0 557.3,274.0 560.3,274.0 563.2,274.0 566.1,274.0 569.1,274.0 572.0,274.0 574.9,274.0 577.8,274.0 580.8,274.0 583.7,274.0 586.6,274.0 589.6,250.0 592.5,274.0 595.4,274.0 598.3,274.0 601.3,274.0 604.2,274.0 607.1,274.0 610.1,274.0 613.0,274.0 615.9,274.0 618.8,274.0 621.8,274.0 624.7,274.0 627.6,274.0 630.5,274.0 633.5,274.0 636.4,274.0 639.3,274.0 642.3,268.0 645.2,274.0 648.1,280.0 651.0,286.0 654.0,286.0 656.9,286.0 659.8,286.0 662.8,286.0 665.7,280.0 668.6,280.0 671.5,286.0 674.5,286.0 677.4,280.0 680.3,286.0 683.3,286.0 686.2,286.0 689.1,286.0 692.0,286.0 695.0,280.0 697.9,286.0 700.8,286.0 703.8,286.0 706.7,286.0 709.6,286.0 712.5,286.0 715.5,286.0 718.4,286.0 721.3,286.0 724.2,286.0 727.2,280.0 730.1,280.0 733.0,286.0 736.0,280.0 738.9,286.0 741.8,286.0 744.7,286.0 747.7,286.0 750.6,286.0 753.5,286.0 756.5,286.0 759.4,286.0 762.3,286.0 765.2,286.0 768.2,286.0 771.1,286.0 774.0,286.0 777.0,286.0 779.9,286.0 782.8,280.0 785.7,286.0 788.7,280.0 791.6,286.0 794.5,286.0 797.5,286.0 800.4,286.0 803.3,286.0 806.2,286.0 809.2,286.0 812.1,286.0 815.0,286.0 817.9,286.0 820.9,286.0 823.8,286.0 826.7,286.0 829.7,286.0 832.6,280.0 835.5,286.0 838.4,286.0 841.4,286.0 844.3,286.0 847.2,286.0 850.2,286.0 853.1,286.0 856.0,286.0 858.9,286.0 861.9,286.0 864.8,286.0 867.7,286.0 870.7,286.0 873.6,286.0 876.5,286.0 879.4,286.0 882.4,286.0 885.3,286.0 888.2,286.0 891.2,286.0 894.1,286.0 897.0,286.0 899.9,286.0 902.9,286.0 905.8,286.0 908.7,286.0 911.6,286.0 914.6,280.0 917.5,280.0 920.4,286.0 923.4,286.0 926.3,286.0 929.2,286.0 932.1,286.0 935.1,274.0 938.0,286.0"/><polyline fill="none" stroke="#a855f7" stroke-width="2.5" stroke-linejoin="round" stroke-linecap="round" points="42.0,286.0 44.9,286.0 47.9,286.0 50.8,286.0 53.7,286.0 56.6,286.0 59.6,286.0 62.5,286.0 65.4,286.0 68.4,286.0 71.3,286.0 74.2,286.0 77.1,286.0 80.1,286.0 83.0,286.0 85.9,286.0 88.8,286.0 91.8,286.0 94.7,286.0 97.6,286.0 100.6,286.0 103.5,286.0 106.4,286.0 109.3,286.0 112.3,286.0 115.2,286.0 118.1,286.0 121.1,286.0 124.0,286.0 126.9,286.0 129.8,286.0 132.8,286.0 135.7,286.0 138.6,286.0 141.6,286.0 144.5,286.0 147.4,286.0 150.3,286.0 153.3,286.0 156.2,286.0 159.1,286.0 162.1,286.0 165.0,286.0 167.9,286.0 170.8,286.0 173.8,286.0 176.7,286.0 179.6,286.0 182.5,286.0 185.5,286.0 188.4,286.0 191.3,286.0 194.3,286.0 197.2,286.0 200.1,286.0 203.0,286.0 206.0,286.0 208.9,286.0 211.8,286.0 214.8,286.0 217.7,286.0 220.6,286.0 223.5,286.0 226.5,286.0 229.4,286.0 232.3,286.0 235.3,286.0 238.2,286.0 241.1,286.0 244.0,286.0 247.0,280.0 249.9,286.0 252.8,286.0 255.8,286.0 258.7,286.0 261.6,286.0 264.5,286.0 267.5,286.0 270.4,286.0 273.3,286.0 276.2,286.0 279.2,286.0 282.1,286.0 285.0,286.0 288.0,286.0 290.9,286.0 293.8,286.0 296.7,286.0 299.7,286.0 302.6,286.0 305.5,286.0 308.5,286.0 311.4,286.0 314.3,286.0 317.2,286.0 320.2,286.0 323.1,286.0 326.0,286.0 329.0,286.0 331.9,286.0 334.8,286.0 337.7,286.0 340.7,286.0 343.6,286.0 346.5,286.0 349.5,286.0 352.4,286.0 355.3,286.0 358.2,286.0 361.2,286.0 364.1,286.0 367.0,286.0 369.9,286.0 372.9,286.0 375.8,286.0 378.7,286.0 381.7,286.0 384.6,286.0 387.5,286.0 390.4,286.0 393.4,286.0 396.3,286.0 399.2,286.0 402.2,286.0 405.1,286.0 408.0,286.0 410.9,286.0 413.9,286.0 416.8,286.0 419.7,286.0 422.7,286.0 425.6,286.0 428.5,286.0 431.4,286.0 434.4,286.0 437.3,286.0 440.2,286.0 443.2,286.0 446.1,286.0 449.0,286.0 451.9,286.0 454.9,286.0 457.8,286.0 460.7,286.0 463.6,286.0 466.6,286.0 469.5,286.0 472.4,286.0 475.4,286.0 478.3,286.0 481.2,286.0 484.1,286.0 487.1,286.0 490.0,286.0 492.9,286.0 495.9,286.0 498.8,286.0 501.7,280.0 504.6,286.0 507.6,286.0 510.5,286.0 513.4,286.0 516.4,286.0 519.3,286.0 522.2,286.0 525.1,286.0 528.1,286.0 531.0,286.0 533.9,286.0 536.8,286.0 539.8,286.0 542.7,286.0 545.6,286.0 548.6,286.0 551.5,286.0 554.4,286.0 557.3,286.0 560.3,286.0 563.2,286.0 566.1,286.0 569.1,286.0 572.0,286.0 574.9,286.0 577.8,286.0 580.8,286.0 583.7,286.0 586.6,286.0 589.6,286.0 592.5,286.0 595.4,286.0 598.3,286.0 601.3,286.0 604.2,286.0 607.1,286.0 610.1,286.0 613.0,286.0 615.9,286.0 618.8,286.0 621.8,286.0 624.7,286.0 627.6,286.0 630.5,286.0 633.5,286.0 636.4,286.0 639.3,286.0 642.3,286.0 645.2,286.0 648.1,286.0 651.0,286.0 654.0,286.0 656.9,286.0 659.8,286.0 662.8,286.0 665.7,286.0 668.6,286.0 671.5,280.0 674.5,286.0 677.4,286.0 680.3,286.0 683.3,286.0 686.2,286.0 689.1,286.0 692.0,286.0 695.0,286.0 697.9,286.0 700.8,280.0 703.8,286.0 706.7,286.0 709.6,286.0 712.5,286.0 715.5,286.0 718.4,286.0 721.3,286.0 724.2,286.0 727.2,286.0 730.1,286.0 733.0,286.0 736.0,286.0 738.9,286.0 741.8,286.0 744.7,286.0 747.7,286.0 750.6,286.0 753.5,286.0 756.5,286.0 759.4,286.0 762.3,286.0 765.2,286.0 768.2,286.0 771.1,286.0 774.0,286.0 777.0,286.0 779.9,286.0 782.8,286.0 785.7,280.0 788.7,286.0 791.6,286.0 794.5,286.0 797.5,286.0 800.4,286.0 803.3,286.0 806.2,280.0 809.2,286.0 812.1,286.0 815.0,286.0 817.9,286.0 820.9,286.0 823.8,286.0 826.7,286.0 829.7,286.0 832.6,286.0 835.5,286.0 838.4,286.0 841.4,286.0 844.3,286.0 847.2,286.0 850.2,286.0 853.1,286.0 856.0,280.0 858.9,286.0 861.9,286.0 864.8,286.0 867.7,286.0 870.7,286.0 873.6,286.0 876.5,286.0 879.4,286.0 882.4,286.0 885.3,286.0 888.2,286.0 891.2,286.0 894.1,286.0 897.0,286.0 899.9,286.0 902.9,286.0 905.8,286.0 908.7,286.0 911.6,286.0 914.6,286.0 917.5,286.0 920.4,286.0 923.4,286.0 926.3,286.0 929.2,286.0 932.1,286.0 935.1,286.0 938.0,286.0"/><text x="42" y="308" font-size="11" fill="#5a688a">19/06 12:43</text><text x="938" y="308" text-anchor="end" font-size="11" fill="#5a688a">06/07 16:31</text></svg>