<svg xmlns="http://www.w3.org/2000/svg" viewBox="0 0 960 320" width="960" height="320" font-family="Segoe UI, system-ui, -apple-system, Roboto, Helvetica, Arial, sans-serif" role="img" aria-label="Availability history per region"><rect x="0.5" y="0.5" width="959" height="319" rx="14" fill="#0d1117" stroke="#2c3a5e"/><text x="42" y="26" font-size="14" font-weight="600" fill="#e6ecff">History · 61 points</text><circle cx="47" cy="40" r="5" fill="#22c55e"/><text x="57" y="44" font-size="12" fill="#9fb0d4">Available</text><circle cx="139.8" cy="40" r="5" fill="#f59e0b"/><text x="149.8" y="44" font-size="12" fill="#9fb0d4">Saturated</text><circle cx="232.60000000000002" cy="40" r="5" fill="#ef4444"/><text x="242.60000000000002" y="44" font-size="12" fill="#9fb0d4">Error</text><line x1="42" y1="286.0" x2="938" y2="286.0" stroke="#21304f" stroke-width="1"/><text x="35" y="289.0" text-anchor="end" font-size="11" fill="#9fb0d4">0</text><line x1="42" y1="227.5" x2="938" y2="227.5" stroke="#21304f" stroke-width="1"/><text x="35" y="230.5" text-anchor="end" font-size="11" fill="#9fb0d4">10</text><line x1="42" y1="169.0" x2="938" y2="169.0" stroke="#21304f" stroke-width="1"/><text x="35" y="172.0" text-anchor="end" font-size="11" fill="#9fb0d4">20</text><line x1="42" y1="110.5" x2="938" y2="110.5" stroke="#21304f" stroke-width="1"/><text x="35" y="113.5" text-anchor="end" font-size="11" fill="#9fb0d4">29</text><line x1="42" y1="52.0" x2="938" y2="52.0" stroke="#21304f" stroke-width="1"/><text x="35" y="55.0" text-anchor="end" font-size="11" fill="#9fb0d4">39</text><polyline fill="none" stroke="#22c55e" stroke-width="2.5" stroke-linejoin="round" stroke-linecap="round" points="42.0,70.0 56.9,70.0 71.9,88.0 86.8,88.0 101.7,76.0 116.7,76.0 131.6,76.0 146.5,70.0 161.5,76.0 176.4,70.0 191.3,64.0 206.3,58.0 221.2,58.0 236.1,58.0 251.1,58.0 266.0,58.0 280.9,58.0 295.9,58.0 310.8,58.0 325.7,58.0 340.7,58.0 355.6,58.0 370.5,58.0 385.5,58.0 400.4,58.0 415.3,58.0 430.3,58.0 445.2,58.0 460.1,58.0 475.1,58.0 490.0,58.0 504.9,70.0 519.9,76.0 534.8,94.0 549.7,64.0 564.7,64.0 579.6,58.0 594.5,58.0 609.5,58.0 624.4,70.0 639.3,76.0 654.3,76.0 669.2,82.0 684.1,82.0 699.1,82.0 714.0,82.0 728.9,76.0 743.9,64.0 758.8,70.0 773.7,70.0 788.7,82.0 803.6,76.0 818.5,76.0 833.5,82.0 848.4,76.0 863.3,76.0 878.3,76.0 893.2,64.0 908.1,64.0 923.1,76.0 938.0,76.0"/><polyline fill="none" stroke="#f59e0b" stroke-width="2.5" stroke-linejoin="round" stroke-linecap="round" points="42.0,274.0 56.9,274.0 71.9,274.0 86.8,280.0 101.7,268.0 116.7,268.0 131.6,268.0 146.5,274.0 161.5,274.0 176.4,274.0 191.3,280.0 206.3,286.0 221.2,286.0 236.1,286.0 251.1,286.0 266.0,286.0 280.9,286.0 295.9,286.0 310.8,286.0 325.7,286.0 340.7,286.0 355.6,286.0 370.5,286.0 385.5,286.0 400.4,286.0 415.3,286.0 430.3,286.0 445.2,286.0 460.1,286.0 475.1,286.0 490.0,286.0 504.9,274.0 519.9,280.0 534.8,280.0 549.7,280.0 564.7,280.0 579.6,286.0 594.5,286.0 609.5,286.0 624.4,274.0 639.3,268.0 654.3,268.0 669.2,262.0 684.1,262.0 699.1,262.0 714.0,262.0 728.9,268.0 743.9,280.0 758.8,280.0 773.7,274.0 788.7,262.0 803.6,268.0 818.5,268.0 833.5,262.0 848.4,268.0 863.3,268.0 878.3,268.0 893.2,280.0 908.1,280.0 923.1,268.0 938.0,268.0"/><polyline fill="none" stroke="#ef4444" stroke-width="2.5" stroke-linejoin="round" stroke-linecap="round" points="42.0,280.0 56.9,280.0 71.9,268.0 86.8,262.0 101.7,286.0 116.7,286.0 131.6,286.0 146.5,286.0 161.5,280.0 176.4,286.0 191.3,286.0 206.3,286.0 221.2,286.0 236.1,286.0 251.1,286.0 266.0,286.0 280.9,286.0 295.9,286.0 310.8,286.0 325.7,286.0 340.7,286.0 355.6,286.0 370.5,286.0 385.5,286.0 400.4,286.0 415.3,286.0 430.3,286.0 445.2,286.0 460.1,286.0 475.1,286.0 490.0,286.0 504.9,286.0 519.9,274.0 534.8,256.0 549.7,286.0 564.7,286.0 579.6,286.0 594.5,286.0 609.5,286.0 624.4,286.0 639.3,286.0 654.3,286.0 669.2,286.0 684.1,286.0 699.1,286.0 714.0,286.0 728.9,286.0 743.9,286.0 758.8,280.0 773.7,286.0 788.7,286.0 803.6,286.0 818.5,286.0 833.5,286.0 848.4,286.0 863.3,286.0 878.3,286.0 893.2,286.0 908.1,286.0 923.1,286.0 938.0,286.0"/><text x="42" y="308" font-size="11" fill="#9fb0d4">19/06 12:43</text><text x="938" y="308" text-anchor="end" font-size="11" fill="#9fb0d4">25/06 12:08</text></svg>