<svg xmlns="http://www.w3.org/2000/svg" viewBox="0 0 960 320" width="960" height="320" font-family="Segoe UI, system-ui, -apple-system, Roboto, Helvetica, Arial, sans-serif" role="img" aria-label="Availability history per region"><rect x="0.5" y="0.5" width="959" height="319" rx="14" fill="#0d1117" stroke="#2c3a5e"/><text x="42" y="26" font-size="14" font-weight="600" fill="#e6ecff">History · 57 points</text><circle cx="47" cy="40" r="5" fill="#22c55e"/><text x="57" y="44" font-size="12" fill="#9fb0d4">Available</text><circle cx="139.8" cy="40" r="5" fill="#f59e0b"/><text x="149.8" y="44" font-size="12" fill="#9fb0d4">Saturated</text><circle cx="232.60000000000002" cy="40" r="5" fill="#ef4444"/><text x="242.60000000000002" y="44" font-size="12" fill="#9fb0d4">Error</text><circle cx="296.6" cy="40" r="5" fill="#a855f7"/><text x="306.6" y="44" font-size="12" fill="#9fb0d4">Timeout</text><line x1="42" y1="286.0" x2="938" y2="286.0" stroke="#21304f" stroke-width="1"/><text x="35" y="289.0" text-anchor="end" font-size="11" fill="#9fb0d4">0</text><line x1="42" y1="227.5" x2="938" y2="227.5" stroke="#21304f" stroke-width="1"/><text x="35" y="230.5" text-anchor="end" font-size="11" fill="#9fb0d4">10</text><line x1="42" y1="169.0" x2="938" y2="169.0" stroke="#21304f" stroke-width="1"/><text x="35" y="172.0" text-anchor="end" font-size="11" fill="#9fb0d4">19</text><line x1="42" y1="110.5" x2="938" y2="110.5" stroke="#21304f" stroke-width="1"/><text x="35" y="113.5" text-anchor="end" font-size="11" fill="#9fb0d4">28</text><line x1="42" y1="52.0" x2="938" y2="52.0" stroke="#21304f" stroke-width="1"/><text x="35" y="55.0" text-anchor="end" font-size="11" fill="#9fb0d4">38</text><polyline fill="none" stroke="#22c55e" stroke-width="2.5" stroke-linejoin="round" stroke-linecap="round" points="42.0,64.3 58.0,224.4 74.0,82.8 90.0,88.9 106.0,82.8 122.0,76.6 138.0,76.6 154.0,76.6 170.0,76.6 186.0,76.6 202.0,76.6 218.0,76.6 234.0,76.6 250.0,76.6 266.0,76.6 282.0,70.5 298.0,70.5 314.0,82.8 330.0,82.8 346.0,82.8 362.0,88.9 378.0,88.9 394.0,88.9 410.0,88.9 426.0,88.9 442.0,88.9 458.0,88.9 474.0,88.9 490.0,88.9 506.0,82.8 522.0,82.8 538.0,82.8 554.0,82.8 570.0,76.6 586.0,76.6 602.0,76.6 618.0,76.6 634.0,76.6 650.0,82.8 666.0,82.8 682.0,82.8 698.0,82.8 714.0,76.6 730.0,76.6 746.0,76.6 762.0,76.6 778.0,76.6 794.0,76.6 810.0,76.6 826.0,82.8 842.0,82.8 858.0,82.8 874.0,82.8 890.0,76.6 906.0,76.6 922.0,76.6 938.0,76.6"/><circle cx="42.0" cy="64.3" r="2.5" fill="#22c55e"/><circle cx="58.0" cy="224.4" r="2.5" fill="#22c55e"/><circle cx="74.0" cy="82.8" r="2.5" fill="#22c55e"/><circle cx="90.0" cy="88.9" r="2.5" fill="#22c55e"/><circle cx="106.0" cy="82.8" r="2.5" fill="#22c55e"/><circle cx="122.0" cy="76.6" r="2.5" fill="#22c55e"/><circle cx="138.0" cy="76.6" r="2.5" fill="#22c55e"/><circle cx="154.0" cy="76.6" r="2.5" fill="#22c55e"/><circle cx="170.0" cy="76.6" r="2.5" fill="#22c55e"/><circle cx="186.0" cy="76.6" r="2.5" fill="#22c55e"/><circle cx="202.0" cy="76.6" r="2.5" fill="#22c55e"/><circle cx="218.0" cy="76.6" r="2.5" fill="#22c55e"/><circle cx="234.0" cy="76.6" r="2.5" fill="#22c55e"/><circle cx="250.0" cy="76.6" r="2.5" fill="#22c55e"/><circle cx="266.0" cy="76.6" r="2.5" fill="#22c55e"/><circle cx="282.0" cy="70.5" r="2.5" fill="#22c55e"/><circle cx="298.0" cy="70.5" r="2.5" fill="#22c55e"/><circle cx="314.0" cy="82.8" r="2.5" fill="#22c55e"/><circle cx="330.0" cy="82.8" r="2.5" fill="#22c55e"/><circle cx="346.0" cy="82.8" r="2.5" fill="#22c55e"/><circle cx="362.0" cy="88.9" r="2.5" fill="#22c55e"/><circle cx="378.0" cy="88.9" r="2.5" fill="#22c55e"/><circle cx="394.0" cy="88.9" r="2.5" fill="#22c55e"/><circle cx="410.0" cy="88.9" r="2.5" fill="#22c55e"/><circle cx="426.0" cy="88.9" r="2.5" fill="#22c55e"/><circle cx="442.0" cy="88.9" r="2.5" fill="#22c55e"/><circle cx="458.0" cy="88.9" r="2.5" fill="#22c55e"/><circle cx="474.0" cy="88.9" r="2.5" fill="#22c55e"/><circle cx="490.0" cy="88.9" r="2.5" fill="#22c55e"/><circle cx="506.0" cy="82.8" r="2.5" fill="#22c55e"/><circle cx="522.0" cy="82.8" r="2.5" fill="#22c55e"/><circle cx="538.0" cy="82.8" r="2.5" fill="#22c55e"/><circle cx="554.0" cy="82.8" r="2.5" fill="#22c55e"/><circle cx="570.0" cy="76.6" r="2.5" fill="#22c55e"/><circle cx="586.0" cy="76.6" r="2.5" fill="#22c55e"/><circle cx="602.0" cy="76.6" r="2.5" fill="#22c55e"/><circle cx="618.0" cy="76.6" r="2.5" fill="#22c55e"/><circle cx="634.0" cy="76.6" r="2.5" fill="#22c55e"/><circle cx="650.0" cy="82.8" r="2.5" fill="#22c55e"/><circle cx="666.0" cy="82.8" r="2.5" fill="#22c55e"/><circle cx="682.0" cy="82.8" r="2.5" fill="#22c55e"/><circle cx="698.0" cy="82.8" r="2.5" fill="#22c55e"/><circle cx="714.0" cy="76.6" r="2.5" fill="#22c55e"/><circle cx="730.0" cy="76.6" r="2.5" fill="#22c55e"/><circle cx="746.0" cy="76.6" r="2.5" fill="#22c55e"/><circle cx="762.0" cy="76.6" r="2.5" fill="#22c55e"/><circle cx="778.0" cy="76.6" r="2.5" fill="#22c55e"/><circle cx="794.0" cy="76.6" r="2.5" fill="#22c55e"/><circle cx="810.0" cy="76.6" r="2.5" fill="#22c55e"/><circle cx="826.0" cy="82.8" r="2.5" fill="#22c55e"/><circle cx="842.0" cy="82.8" r="2.5" fill="#22c55e"/><circle cx="858.0" cy="82.8" r="2.5" fill="#22c55e"/><circle cx="874.0" cy="82.8" r="2.5" fill="#22c55e"/><circle cx="890.0" cy="76.6" r="2.5" fill="#22c55e"/><circle cx="906.0" cy="76.6" r="2.5" fill="#22c55e"/><circle cx="922.0" cy="76.6" r="2.5" fill="#22c55e"/><circle cx="938.0" cy="76.6" r="2.5" fill="#22c55e"/><polyline fill="none" stroke="#f59e0b" stroke-width="2.5" stroke-linejoin="round" stroke-linecap="round" points="42.0,273.7 58.0,267.5 74.0,255.2 90.0,249.1 106.0,255.2 122.0,261.4 138.0,261.4 154.0,261.4 170.0,261.4 186.0,261.4 202.0,261.4 218.0,261.4 234.0,261.4 250.0,261.4 266.0,261.4 282.0,267.5 298.0,267.5 314.0,261.4 330.0,255.2 346.0,255.2 362.0,249.1 378.0,249.1 394.0,249.1 410.0,249.1 426.0,249.1 442.0,249.1 458.0,249.1 474.0,249.1 490.0,249.1 506.0,255.2 522.0,255.2 538.0,255.2 554.0,255.2 570.0,261.4 586.0,261.4 602.0,261.4 618.0,261.4 634.0,261.4 650.0,255.2 666.0,255.2 682.0,255.2 698.0,255.2 714.0,261.4 730.0,261.4 746.0,261.4 762.0,261.4 778.0,261.4 794.0,261.4 810.0,261.4 826.0,255.2 842.0,255.2 858.0,255.2 874.0,261.4 890.0,261.4 906.0,261.4 922.0,261.4 938.0,261.4"/><circle cx="42.0" cy="273.7" r="2.5" fill="#f59e0b"/><circle cx="58.0" cy="267.5" r="2.5" fill="#f59e0b"/><circle cx="74.0" cy="255.2" r="2.5" fill="#f59e0b"/><circle cx="90.0" cy="249.1" r="2.5" fill="#f59e0b"/><circle cx="106.0" cy="255.2" r="2.5" fill="#f59e0b"/><circle cx="122.0" cy="261.4" r="2.5" fill="#f59e0b"/><circle cx="138.0" cy="261.4" r="2.5" fill="#f59e0b"/><circle cx="154.0" cy="261.4" r="2.5" fill="#f59e0b"/><circle cx="170.0" cy="261.4" r="2.5" fill="#f59e0b"/><circle cx="186.0" cy="261.4" r="2.5" fill="#f59e0b"/><circle cx="202.0" cy="261.4" r="2.5" fill="#f59e0b"/><circle cx="218.0" cy="261.4" r="2.5" fill="#f59e0b"/><circle cx="234.0" cy="261.4" r="2.5" fill="#f59e0b"/><circle cx="250.0" cy="261.4" r="2.5" fill="#f59e0b"/><circle cx="266.0" cy="261.4" r="2.5" fill="#f59e0b"/><circle cx="282.0" cy="267.5" r="2.5" fill="#f59e0b"/><circle cx="298.0" cy="267.5" r="2.5" fill="#f59e0b"/><circle cx="314.0" cy="261.4" r="2.5" fill="#f59e0b"/><circle cx="330.0" cy="255.2" r="2.5" fill="#f59e0b"/><circle cx="346.0" cy="255.2" r="2.5" fill="#f59e0b"/><circle cx="362.0" cy="249.1" r="2.5" fill="#f59e0b"/><circle cx="378.0" cy="249.1" r="2.5" fill="#f59e0b"/><circle cx="394.0" cy="249.1" r="2.5" fill="#f59e0b"/><circle cx="410.0" cy="249.1" r="2.5" fill="#f59e0b"/><circle cx="426.0" cy="249.1" r="2.5" fill="#f59e0b"/><circle cx="442.0" cy="249.1" r="2.5" fill="#f59e0b"/><circle cx="458.0" cy="249.1" r="2.5" fill="#f59e0b"/><circle cx="474.0" cy="249.1" r="2.5" fill="#f59e0b"/><circle cx="490.0" cy="249.1" r="2.5" fill="#f59e0b"/><circle cx="506.0" cy="255.2" r="2.5" fill="#f59e0b"/><circle cx="522.0" cy="255.2" r="2.5" fill="#f59e0b"/><circle cx="538.0" cy="255.2" r="2.5" fill="#f59e0b"/><circle cx="554.0" cy="255.2" r="2.5" fill="#f59e0b"/><circle cx="570.0" cy="261.4" r="2.5" fill="#f59e0b"/><circle cx="586.0" cy="261.4" r="2.5" fill="#f59e0b"/><circle cx="602.0" cy="261.4" r="2.5" fill="#f59e0b"/><circle cx="618.0" cy="261.4" r="2.5" fill="#f59e0b"/><circle cx="634.0" cy="261.4" r="2.5" fill="#f59e0b"/><circle cx="650.0" cy="255.2" r="2.5" fill="#f59e0b"/><circle cx="666.0" cy="255.2" r="2.5" fill="#f59e0b"/><circle cx="682.0" cy="255.2" r="2.5" fill="#f59e0b"/><circle cx="698.0" cy="255.2" r="2.5" fill="#f59e0b"/><circle cx="714.0" cy="261.4" r="2.5" fill="#f59e0b"/><circle cx="730.0" cy="261.4" r="2.5" fill="#f59e0b"/><circle cx="746.0" cy="261.4" r="2.5" fill="#f59e0b"/><circle cx="762.0" cy="261.4" r="2.5" fill="#f59e0b"/><circle cx="778.0" cy="261.4" r="2.5" fill="#f59e0b"/><circle cx="794.0" cy="261.4" r="2.5" fill="#f59e0b"/><circle cx="810.0" cy="261.4" r="2.5" fill="#f59e0b"/><circle cx="826.0" cy="255.2" r="2.5" fill="#f59e0b"/><circle cx="842.0" cy="255.2" r="2.5" fill="#f59e0b"/><circle cx="858.0" cy="255.2" r="2.5" fill="#f59e0b"/><circle cx="874.0" cy="261.4" r="2.5" fill="#f59e0b"/><circle cx="890.0" cy="261.4" r="2.5" fill="#f59e0b"/><circle cx="906.0" cy="261.4" r="2.5" fill="#f59e0b"/><circle cx="922.0" cy="261.4" r="2.5" fill="#f59e0b"/><circle cx="938.0" cy="261.4" r="2.5" fill="#f59e0b"/><polyline fill="none" stroke="#ef4444" stroke-width="2.5" stroke-linejoin="round" stroke-linecap="round" points="42.0,286.0 58.0,132.1 74.0,286.0 90.0,286.0 106.0,286.0 122.0,286.0 138.0,286.0 154.0,286.0 170.0,286.0 186.0,286.0 202.0,286.0 218.0,286.0 234.0,286.0 250.0,286.0 266.0,286.0 282.0,286.0 298.0,286.0 314.0,279.8 330.0,286.0 346.0,286.0 362.0,286.0 378.0,286.0 394.0,286.0 410.0,286.0 426.0,286.0 442.0,286.0 458.0,286.0 474.0,286.0 490.0,286.0 506.0,286.0 522.0,286.0 538.0,286.0 554.0,286.0 570.0,286.0 586.0,286.0 602.0,286.0 618.0,286.0 634.0,286.0 650.0,286.0 666.0,286.0 682.0,286.0 698.0,286.0 714.0,286.0 730.0,286.0 746.0,286.0 762.0,286.0 778.0,286.0 794.0,286.0 810.0,286.0 826.0,286.0 842.0,286.0 858.0,286.0 874.0,286.0 890.0,286.0 906.0,286.0 922.0,286.0 938.0,286.0"/><circle cx="42.0" cy="286.0" r="2.5" fill="#ef4444"/><circle cx="58.0" cy="132.1" r="2.5" fill="#ef4444"/><circle cx="74.0" cy="286.0" r="2.5" fill="#ef4444"/><circle cx="90.0" cy="286.0" r="2.5" fill="#ef4444"/><circle cx="106.0" cy="286.0" r="2.5" fill="#ef4444"/><circle cx="122.0" cy="286.0" r="2.5" fill="#ef4444"/><circle cx="138.0" cy="286.0" r="2.5" fill="#ef4444"/><circle cx="154.0" cy="286.0" r="2.5" fill="#ef4444"/><circle cx="170.0" cy="286.0" r="2.5" fill="#ef4444"/><circle cx="186.0" cy="286.0" r="2.5" fill="#ef4444"/><circle cx="202.0" cy="286.0" r="2.5" fill="#ef4444"/><circle cx="218.0" cy="286.0" r="2.5" fill="#ef4444"/><circle cx="234.0" cy="286.0" r="2.5" fill="#ef4444"/><circle cx="250.0" cy="286.0" r="2.5" fill="#ef4444"/><circle cx="266.0" cy="286.0" r="2.5" fill="#ef4444"/><circle cx="282.0" cy="286.0" r="2.5" fill="#ef4444"/><circle cx="298.0" cy="286.0" r="2.5" fill="#ef4444"/><circle cx="314.0" cy="279.8" r="2.5" fill="#ef4444"/><circle cx="330.0" cy="286.0" r="2.5" fill="#ef4444"/><circle cx="346.0" cy="286.0" r="2.5" fill="#ef4444"/><circle cx="362.0" cy="286.0" r="2.5" fill="#ef4444"/><circle cx="378.0" cy="286.0" r="2.5" fill="#ef4444"/><circle cx="394.0" cy="286.0" r="2.5" fill="#ef4444"/><circle cx="410.0" cy="286.0" r="2.5" fill="#ef4444"/><circle cx="426.0" cy="286.0" r="2.5" fill="#ef4444"/><circle cx="442.0" cy="286.0" r="2.5" fill="#ef4444"/><circle cx="458.0" cy="286.0" r="2.5" fill="#ef4444"/><circle cx="474.0" cy="286.0" r="2.5" fill="#ef4444"/><circle cx="490.0" cy="286.0" r="2.5" fill="#ef4444"/><circle cx="506.0" cy="286.0" r="2.5" fill="#ef4444"/><circle cx="522.0" cy="286.0" r="2.5" fill="#ef4444"/><circle cx="538.0" cy="286.0" r="2.5" fill="#ef4444"/><circle cx="554.0" cy="286.0" r="2.5" fill="#ef4444"/><circle cx="570.0" cy="286.0" r="2.5" fill="#ef4444"/><circle cx="586.0" cy="286.0" r="2.5" fill="#ef4444"/><circle cx="602.0" cy="286.0" r="2.5" fill="#ef4444"/><circle cx="618.0" cy="286.0" r="2.5" fill="#ef4444"/><circle cx="634.0" cy="286.0" r="2.5" fill="#ef4444"/><circle cx="650.0" cy="286.0" r="2.5" fill="#ef4444"/><circle cx="666.0" cy="286.0" r="2.5" fill="#ef4444"/><circle cx="682.0" cy="286.0" r="2.5" fill="#ef4444"/><circle cx="698.0" cy="286.0" r="2.5" fill="#ef4444"/><circle cx="714.0" cy="286.0" r="2.5" fill="#ef4444"/><circle cx="730.0" cy="286.0" r="2.5" fill="#ef4444"/><circle cx="746.0" cy="286.0" r="2.5" fill="#ef4444"/><circle cx="762.0" cy="286.0" r="2.5" fill="#ef4444"/><circle cx="778.0" cy="286.0" r="2.5" fill="#ef4444"/><circle cx="794.0" cy="286.0" r="2.5" fill="#ef4444"/><circle cx="810.0" cy="286.0" r="2.5" fill="#ef4444"/><circle cx="826.0" cy="286.0" r="2.5" fill="#ef4444"/><circle cx="842.0" cy="286.0" r="2.5" fill="#ef4444"/><circle cx="858.0" cy="286.0" r="2.5" fill="#ef4444"/><circle cx="874.0" cy="286.0" r="2.5" fill="#ef4444"/><circle cx="890.0" cy="286.0" r="2.5" fill="#ef4444"/><circle cx="906.0" cy="286.0" r="2.5" fill="#ef4444"/><circle cx="922.0" cy="286.0" r="2.5" fill="#ef4444"/><circle cx="938.0" cy="286.0" r="2.5" fill="#ef4444"/><polyline fill="none" stroke="#a855f7" stroke-width="2.5" stroke-linejoin="round" stroke-linecap="round" points="42.0,286.0 58.0,286.0 74.0,286.0 90.0,286.0 106.0,286.0 122.0,286.0 138.0,286.0 154.0,286.0 170.0,286.0 186.0,286.0 202.0,286.0 218.0,286.0 234.0,286.0 250.0,286.0 266.0,286.0 282.0,286.0 298.0,286.0 314.0,286.0 330.0,286.0 346.0,286.0 362.0,286.0 378.0,286.0 394.0,286.0 410.0,286.0 426.0,286.0 442.0,286.0 458.0,286.0 474.0,286.0 490.0,286.0 506.0,286.0 522.0,286.0 538.0,286.0 554.0,286.0 570.0,286.0 586.0,286.0 602.0,286.0 618.0,286.0 634.0,286.0 650.0,286.0 666.0,286.0 682.0,286.0 698.0,286.0 714.0,286.0 730.0,286.0 746.0,286.0 762.0,286.0 778.0,286.0 794.0,286.0 810.0,286.0 826.0,286.0 842.0,286.0 858.0,286.0 874.0,279.8 890.0,286.0 906.0,286.0 922.0,286.0 938.0,286.0"/><circle cx="42.0" cy="286.0" r="2.5" fill="#a855f7"/><circle cx="58.0" cy="286.0" r="2.5" fill="#a855f7"/><circle cx="74.0" cy="286.0" r="2.5" fill="#a855f7"/><circle cx="90.0" cy="286.0" r="2.5" fill="#a855f7"/><circle cx="106.0" cy="286.0" r="2.5" fill="#a855f7"/><circle cx="122.0" cy="286.0" r="2.5" fill="#a855f7"/><circle cx="138.0" cy="286.0" r="2.5" fill="#a855f7"/><circle cx="154.0" cy="286.0" r="2.5" fill="#a855f7"/><circle cx="170.0" cy="286.0" r="2.5" fill="#a855f7"/><circle cx="186.0" cy="286.0" r="2.5" fill="#a855f7"/><circle cx="202.0" cy="286.0" r="2.5" fill="#a855f7"/><circle cx="218.0" cy="286.0" r="2.5" fill="#a855f7"/><circle cx="234.0" cy="286.0" r="2.5" fill="#a855f7"/><circle cx="250.0" cy="286.0" r="2.5" fill="#a855f7"/><circle cx="266.0" cy="286.0" r="2.5" fill="#a855f7"/><circle cx="282.0" cy="286.0" r="2.5" fill="#a855f7"/><circle cx="298.0" cy="286.0" r="2.5" fill="#a855f7"/><circle cx="314.0" cy="286.0" r="2.5" fill="#a855f7"/><circle cx="330.0" cy="286.0" r="2.5" fill="#a855f7"/><circle cx="346.0" cy="286.0" r="2.5" fill="#a855f7"/><circle cx="362.0" cy="286.0" r="2.5" fill="#a855f7"/><circle cx="378.0" cy="286.0" r="2.5" fill="#a855f7"/><circle cx="394.0" cy="286.0" r="2.5" fill="#a855f7"/><circle cx="410.0" cy="286.0" r="2.5" fill="#a855f7"/><circle cx="426.0" cy="286.0" r="2.5" fill="#a855f7"/><circle cx="442.0" cy="286.0" r="2.5" fill="#a855f7"/><circle cx="458.0" cy="286.0" r="2.5" fill="#a855f7"/><circle cx="474.0" cy="286.0" r="2.5" fill="#a855f7"/><circle cx="490.0" cy="286.0" r="2.5" fill="#a855f7"/><circle cx="506.0" cy="286.0" r="2.5" fill="#a855f7"/><circle cx="522.0" cy="286.0" r="2.5" fill="#a855f7"/><circle cx="538.0" cy="286.0" r="2.5" fill="#a855f7"/><circle cx="554.0" cy="286.0" r="2.5" fill="#a855f7"/><circle cx="570.0" cy="286.0" r="2.5" fill="#a855f7"/><circle cx="586.0" cy="286.0" r="2.5" fill="#a855f7"/><circle cx="602.0" cy="286.0" r="2.5" fill="#a855f7"/><circle cx="618.0" cy="286.0" r="2.5" fill="#a855f7"/><circle cx="634.0" cy="286.0" r="2.5" fill="#a855f7"/><circle cx="650.0" cy="286.0" r="2.5" fill="#a855f7"/><circle cx="666.0" cy="286.0" r="2.5" fill="#a855f7"/><circle cx="682.0" cy="286.0" r="2.5" fill="#a855f7"/><circle cx="698.0" cy="286.0" r="2.5" fill="#a855f7"/><circle cx="714.0" cy="286.0" r="2.5" fill="#a855f7"/><circle cx="730.0" cy="286.0" r="2.5" fill="#a855f7"/><circle cx="746.0" cy="286.0" r="2.5" fill="#a855f7"/><circle cx="762.0" cy="286.0" r="2.5" fill="#a855f7"/><circle cx="778.0" cy="286.0" r="2.5" fill="#a855f7"/><circle cx="794.0" cy="286.0" r="2.5" fill="#a855f7"/><circle cx="810.0" cy="286.0" r="2.5" fill="#a855f7"/><circle cx="826.0" cy="286.0" r="2.5" fill="#a855f7"/><circle cx="842.0" cy="286.0" r="2.5" fill="#a855f7"/><circle cx="858.0" cy="286.0" r="2.5" fill="#a855f7"/><circle cx="874.0" cy="279.8" r="2.5" fill="#a855f7"/><circle cx="890.0" cy="286.0" r="2.5" fill="#a855f7"/><circle cx="906.0" cy="286.0" r="2.5" fill="#a855f7"/><circle cx="922.0" cy="286.0" r="2.5" fill="#a855f7"/><circle cx="938.0" cy="286.0" r="2.5" fill="#a855f7"/><text x="42" y="308" font-size="11" fill="#9fb0d4">19/06 15:39</text><text x="938" y="308" text-anchor="end" font-size="11" fill="#9fb0d4">18/07 22:31</text></svg>