<svg xmlns="http://www.w3.org/2000/svg" viewBox="0 0 960 320" width="960" height="320" font-family="Segoe UI, system-ui, -apple-system, Roboto, Helvetica, Arial, sans-serif" role="img" aria-label="Availability history per region"><rect x="0.5" y="0.5" width="959" height="319" rx="14" fill="#ffffff" stroke="#dce3f1"/><text x="42" y="26" font-size="14" font-weight="600" fill="#14203a">History · 245 points</text><circle cx="47" cy="40" r="5" fill="#22c55e"/><text x="57" y="44" font-size="12" fill="#5a688a">Available</text><circle cx="139.8" cy="40" r="5" fill="#f59e0b"/><text x="149.8" y="44" font-size="12" fill="#5a688a">Saturated</text><circle cx="232.60000000000002" cy="40" r="5" fill="#ef4444"/><text x="242.60000000000002" y="44" font-size="12" fill="#5a688a">Error</text><circle cx="296.6" cy="40" r="5" fill="#a855f7"/><text x="306.6" y="44" font-size="12" fill="#5a688a">Timeout</text><line x1="42" y1="286.0" x2="938" y2="286.0" stroke="#eef2f7" stroke-width="1"/><text x="35" y="289.0" text-anchor="end" font-size="11" fill="#5a688a">0</text><line x1="42" y1="227.5" x2="938" y2="227.5" stroke="#eef2f7" stroke-width="1"/><text x="35" y="230.5" text-anchor="end" font-size="11" fill="#5a688a">10</text><line x1="42" y1="169.0" x2="938" y2="169.0" stroke="#eef2f7" stroke-width="1"/><text x="35" y="172.0" text-anchor="end" font-size="11" fill="#5a688a">20</text><line x1="42" y1="110.5" x2="938" y2="110.5" stroke="#eef2f7" stroke-width="1"/><text x="35" y="113.5" text-anchor="end" font-size="11" fill="#5a688a">29</text><line x1="42" y1="52.0" x2="938" y2="52.0" stroke="#eef2f7" stroke-width="1"/><text x="35" y="55.0" text-anchor="end" font-size="11" fill="#5a688a">39</text><polyline fill="none" stroke="#22c55e" stroke-width="2.5" stroke-linejoin="round" stroke-linecap="round" points="42.0,70.0 45.7,70.0 49.3,88.0 53.0,88.0 56.7,76.0 60.4,76.0 64.0,76.0 67.7,70.0 71.4,76.0 75.0,70.0 78.7,64.0 82.4,58.0 86.1,58.0 89.7,58.0 93.4,58.0 97.1,58.0 100.8,58.0 104.4,58.0 108.1,58.0 111.8,58.0 115.4,58.0 119.1,58.0 122.8,58.0 126.5,58.0 130.1,58.0 133.8,58.0 137.5,58.0 141.1,58.0 144.8,58.0 148.5,58.0 152.2,58.0 155.8,70.0 159.5,76.0 163.2,94.0 166.9,64.0 170.5,64.0 174.2,58.0 177.9,58.0 181.5,58.0 185.2,70.0 188.9,76.0 192.6,76.0 196.2,82.0 199.9,82.0 203.6,82.0 207.2,82.0 210.9,76.0 214.6,64.0 218.3,70.0 221.9,70.0 225.6,82.0 229.3,76.0 233.0,76.0 236.6,82.0 240.3,76.0 244.0,76.0 247.6,76.0 251.3,64.0 255.0,64.0 258.7,76.0 262.3,76.0 266.0,76.0 269.7,88.0 273.3,70.0 277.0,64.0 280.7,58.0 284.4,58.0 288.0,70.0 291.7,70.0 295.4,70.0 299.0,76.0 302.7,70.0 306.4,70.0 310.1,70.0 313.7,70.0 317.4,76.0 321.1,82.0 324.8,76.0 328.4,70.0 332.1,70.0 335.8,70.0 339.4,70.0 343.1,76.0 346.8,70.0 350.5,70.0 354.1,70.0 357.8,70.0 361.5,70.0 365.1,70.0 368.8,70.0 372.5,70.0 376.2,70.0 379.8,70.0 383.5,70.0 387.2,70.0 390.9,70.0 394.5,70.0 398.2,70.0 401.9,70.0 405.5,70.0 409.2,70.0 412.9,70.0 416.6,70.0 420.2,70.0 423.9,70.0 427.6,70.0 431.2,70.0 434.9,70.0 438.6,70.0 442.3,70.0 445.9,70.0 449.6,70.0 453.3,70.0 457.0,70.0 460.6,70.0 464.3,70.0 468.0,70.0 471.6,70.0 475.3,70.0 479.0,70.0 482.7,70.0 486.3,70.0 490.0,70.0 493.7,70.0 497.3,70.0 501.0,70.0 504.7,70.0 508.4,70.0 512.0,70.0 515.7,70.0 519.4,70.0 523.0,70.0 526.7,70.0 530.4,70.0 534.1,70.0 537.7,70.0 541.4,70.0 545.1,70.0 548.8,70.0 552.4,70.0 556.1,70.0 559.8,70.0 563.4,70.0 567.1,70.0 570.8,70.0 574.5,70.0 578.1,70.0 581.8,70.0 585.5,70.0 589.1,70.0 592.8,70.0 596.5,76.0 600.2,70.0 603.8,70.0 607.5,70.0 611.2,70.0 614.9,70.0 618.5,76.0 622.2,76.0 625.9,88.0 629.5,88.0 633.2,88.0 636.9,94.0 640.6,94.0 644.2,94.0 647.9,94.0 651.6,88.0 655.2,88.0 658.9,82.0 662.6,82.0 666.3,82.0 669.9,88.0 673.6,88.0 677.3,94.0 681.0,82.0 684.6,82.0 688.3,82.0 692.0,82.0 695.6,88.0 699.3,88.0 703.0,94.0 706.7,94.0 710.3,88.0 714.0,88.0 717.7,88.0 721.3,94.0 725.0,94.0 728.7,106.0 732.4,94.0 736.0,94.0 739.7,94.0 743.4,94.0 747.0,88.0 750.7,88.0 754.4,82.0 758.1,76.0 761.7,76.0 765.4,76.0 769.1,76.0 772.8,76.0 776.4,76.0 780.1,70.0 783.8,70.0 787.4,70.0 791.1,76.0 794.8,88.0 798.5,82.0 802.1,70.0 805.8,70.0 809.5,70.0 813.1,76.0 816.8,76.0 820.5,76.0 824.2,82.0 827.8,70.0 831.5,76.0 835.2,64.0 838.9,70.0 842.5,58.0 846.2,58.0 849.9,58.0 853.5,58.0 857.2,58.0 860.9,64.0 864.6,58.0 868.2,64.0 871.9,58.0 875.6,58.0 879.2,58.0 882.9,58.0 886.6,64.0 890.3,64.0 893.9,64.0 897.6,76.0 901.3,70.0 905.0,82.0 908.6,70.0 912.3,76.0 916.0,58.0 919.6,64.0 923.3,58.0 927.0,64.0 930.7,58.0 934.3,58.0 938.0,58.0"/><polyline fill="none" stroke="#f59e0b" stroke-width="2.5" stroke-linejoin="round" stroke-linecap="round" points="42.0,274.0 45.7,274.0 49.3,274.0 53.0,280.0 56.7,268.0 60.4,268.0 64.0,268.0 67.7,274.0 71.4,274.0 75.0,274.0 78.7,280.0 82.4,286.0 86.1,286.0 89.7,286.0 93.4,286.0 97.1,286.0 100.8,286.0 104.4,286.0 108.1,286.0 111.8,286.0 115.4,286.0 119.1,286.0 122.8,286.0 126.5,286.0 130.1,286.0 133.8,286.0 137.5,286.0 141.1,286.0 144.8,286.0 148.5,286.0 152.2,286.0 155.8,274.0 159.5,280.0 163.2,280.0 166.9,280.0 170.5,280.0 174.2,286.0 177.9,286.0 181.5,286.0 185.2,274.0 188.9,268.0 192.6,268.0 196.2,262.0 199.9,262.0 203.6,262.0 207.2,262.0 210.9,268.0 214.6,280.0 218.3,280.0 221.9,274.0 225.6,262.0 229.3,268.0 233.0,268.0 236.6,262.0 240.3,268.0 244.0,268.0 247.6,268.0 251.3,280.0 255.0,280.0 258.7,268.0 262.3,268.0 266.0,268.0 269.7,262.0 273.3,274.0 277.0,280.0 280.7,286.0 284.4,286.0 288.0,274.0 291.7,274.0 295.4,274.0 299.0,274.0 302.7,274.0 306.4,274.0 310.1,274.0 313.7,274.0 317.4,280.0 321.1,274.0 324.8,280.0 328.4,286.0 332.1,286.0 335.8,286.0 339.4,286.0 343.1,280.0 346.8,286.0 350.5,286.0 354.1,286.0 357.8,286.0 361.5,286.0 365.1,286.0 368.8,286.0 372.5,286.0 376.2,286.0 379.8,286.0 383.5,286.0 387.2,286.0 390.9,286.0 394.5,286.0 398.2,286.0 401.9,286.0 405.5,286.0 409.2,286.0 412.9,286.0 416.6,286.0 420.2,286.0 423.9,286.0 427.6,286.0 431.2,286.0 434.9,286.0 438.6,286.0 442.3,286.0 445.9,286.0 449.6,286.0 453.3,286.0 457.0,286.0 460.6,286.0 464.3,286.0 468.0,286.0 471.6,286.0 475.3,286.0 479.0,286.0 482.7,286.0 486.3,286.0 490.0,286.0 493.7,286.0 497.3,286.0 501.0,286.0 504.7,286.0 508.4,286.0 512.0,286.0 515.7,286.0 519.4,286.0 523.0,286.0 526.7,286.0 530.4,286.0 534.1,286.0 537.7,286.0 541.4,286.0 545.1,286.0 548.8,286.0 552.4,286.0 556.1,286.0 559.8,286.0 563.4,286.0 567.1,286.0 570.8,286.0 574.5,286.0 578.1,286.0 581.8,286.0 585.5,286.0 589.1,286.0 592.8,286.0 596.5,286.0 600.2,286.0 603.8,286.0 607.5,286.0 611.2,286.0 614.9,286.0 618.5,286.0 622.2,280.0 625.9,268.0 629.5,268.0 633.2,268.0 636.9,268.0 640.6,262.0 644.2,262.0 647.9,262.0 651.6,268.0 655.2,268.0 658.9,274.0 662.6,274.0 666.3,274.0 669.9,268.0 673.6,268.0 677.3,268.0 681.0,274.0 684.6,274.0 688.3,274.0 692.0,274.0 695.6,268.0 699.3,268.0 703.0,262.0 706.7,262.0 710.3,268.0 714.0,268.0 717.7,268.0 721.3,262.0 725.0,262.0 728.7,274.0 732.4,262.0 736.0,262.0 739.7,262.0 743.4,262.0 747.0,268.0 750.7,268.0 754.4,274.0 758.1,280.0 761.7,280.0 765.4,280.0 769.1,280.0 772.8,280.0 776.4,280.0 780.1,286.0 783.8,286.0 787.4,286.0 791.1,280.0 794.8,274.0 798.5,274.0 802.1,280.0 805.8,274.0 809.5,274.0 813.1,268.0 816.8,268.0 820.5,268.0 824.2,268.0 827.8,280.0 831.5,274.0 835.2,280.0 838.9,280.0 842.5,286.0 846.2,286.0 849.9,286.0 853.5,286.0 857.2,286.0 860.9,286.0 864.6,286.0 868.2,286.0 871.9,286.0 875.6,286.0 879.2,286.0 882.9,286.0 886.6,280.0 890.3,280.0 893.9,280.0 897.6,268.0 901.3,280.0 905.0,268.0 908.6,274.0 912.3,274.0 916.0,286.0 919.6,280.0 923.3,286.0 927.0,280.0 930.7,286.0 934.3,286.0 938.0,286.0"/><polyline fill="none" stroke="#ef4444" stroke-width="2.5" stroke-linejoin="round" stroke-linecap="round" points="42.0,280.0 45.7,280.0 49.3,268.0 53.0,262.0 56.7,286.0 60.4,286.0 64.0,286.0 67.7,286.0 71.4,280.0 75.0,286.0 78.7,286.0 82.4,286.0 86.1,286.0 89.7,286.0 93.4,286.0 97.1,286.0 100.8,286.0 104.4,286.0 108.1,286.0 111.8,286.0 115.4,286.0 119.1,286.0 122.8,286.0 126.5,286.0 130.1,286.0 133.8,286.0 137.5,286.0 141.1,286.0 144.8,286.0 148.5,286.0 152.2,286.0 155.8,286.0 159.5,274.0 163.2,256.0 166.9,286.0 170.5,286.0 174.2,286.0 177.9,286.0 181.5,286.0 185.2,286.0 188.9,286.0 192.6,286.0 196.2,286.0 199.9,286.0 203.6,286.0 207.2,286.0 210.9,286.0 214.6,286.0 218.3,280.0 221.9,286.0 225.6,286.0 229.3,286.0 233.0,286.0 236.6,286.0 240.3,286.0 244.0,286.0 247.6,286.0 251.3,286.0 255.0,286.0 258.7,286.0 262.3,286.0 266.0,286.0 269.7,280.0 273.3,286.0 277.0,286.0 280.7,286.0 284.4,286.0 288.0,286.0 291.7,286.0 295.4,286.0 299.0,286.0 302.7,286.0 306.4,286.0 310.1,286.0 313.7,286.0 317.4,274.0 321.1,274.0 324.8,274.0 328.4,274.0 332.1,274.0 335.8,274.0 339.4,274.0 343.1,274.0 346.8,274.0 350.5,274.0 354.1,274.0 357.8,274.0 361.5,274.0 365.1,274.0 368.8,274.0 372.5,274.0 376.2,274.0 379.8,274.0 383.5,274.0 387.2,274.0 390.9,274.0 394.5,274.0 398.2,274.0 401.9,274.0 405.5,274.0 409.2,274.0 412.9,274.0 416.6,274.0 420.2,274.0 423.9,274.0 427.6,274.0 431.2,274.0 434.9,274.0 438.6,274.0 442.3,274.0 445.9,274.0 449.6,274.0 453.3,274.0 457.0,274.0 460.6,274.0 464.3,274.0 468.0,274.0 471.6,274.0 475.3,274.0 479.0,274.0 482.7,274.0 486.3,274.0 490.0,274.0 493.7,274.0 497.3,274.0 501.0,274.0 504.7,274.0 508.4,274.0 512.0,274.0 515.7,274.0 519.4,274.0 523.0,274.0 526.7,274.0 530.4,274.0 534.1,274.0 537.7,274.0 541.4,274.0 545.1,274.0 548.8,274.0 552.4,274.0 556.1,274.0 559.8,274.0 563.4,274.0 567.1,274.0 570.8,274.0 574.5,274.0 578.1,274.0 581.8,274.0 585.5,274.0 589.1,274.0 592.8,274.0 596.5,268.0 600.2,274.0 603.8,274.0 607.5,274.0 611.2,274.0 614.9,274.0 618.5,274.0 622.2,274.0 625.9,274.0 629.5,274.0 633.2,274.0 636.9,268.0 640.6,274.0 644.2,274.0 647.9,274.0 651.6,274.0 655.2,274.0 658.9,274.0 662.6,274.0 666.3,274.0 669.9,274.0 673.6,274.0 677.3,268.0 681.0,274.0 684.6,274.0 688.3,274.0 692.0,274.0 695.6,274.0 699.3,274.0 703.0,274.0 706.7,274.0 710.3,274.0 714.0,274.0 717.7,274.0 721.3,274.0 725.0,274.0 728.7,250.0 732.4,274.0 736.0,274.0 739.7,274.0 743.4,274.0 747.0,274.0 750.7,274.0 754.4,274.0 758.1,274.0 761.7,274.0 765.4,274.0 769.1,274.0 772.8,274.0 776.4,274.0 780.1,274.0 783.8,274.0 787.4,274.0 791.1,274.0 794.8,268.0 798.5,274.0 802.1,280.0 805.8,286.0 809.5,286.0 813.1,286.0 816.8,286.0 820.5,286.0 824.2,280.0 827.8,280.0 831.5,286.0 835.2,286.0 838.9,280.0 842.5,286.0 846.2,286.0 849.9,286.0 853.5,286.0 857.2,286.0 860.9,280.0 864.6,286.0 868.2,286.0 871.9,286.0 875.6,286.0 879.2,286.0 882.9,286.0 886.6,286.0 890.3,286.0 893.9,286.0 897.6,286.0 901.3,280.0 905.0,280.0 908.6,286.0 912.3,280.0 916.0,286.0 919.6,286.0 923.3,286.0 927.0,286.0 930.7,286.0 934.3,286.0 938.0,286.0"/><polyline fill="none" stroke="#a855f7" stroke-width="2.5" stroke-linejoin="round" stroke-linecap="round" points="42.0,286.0 45.7,286.0 49.3,286.0 53.0,286.0 56.7,286.0 60.4,286.0 64.0,286.0 67.7,286.0 71.4,286.0 75.0,286.0 78.7,286.0 82.4,286.0 86.1,286.0 89.7,286.0 93.4,286.0 97.1,286.0 100.8,286.0 104.4,286.0 108.1,286.0 111.8,286.0 115.4,286.0 119.1,286.0 122.8,286.0 126.5,286.0 130.1,286.0 133.8,286.0 137.5,286.0 141.1,286.0 144.8,286.0 148.5,286.0 152.2,286.0 155.8,286.0 159.5,286.0 163.2,286.0 166.9,286.0 170.5,286.0 174.2,286.0 177.9,286.0 181.5,286.0 185.2,286.0 188.9,286.0 192.6,286.0 196.2,286.0 199.9,286.0 203.6,286.0 207.2,286.0 210.9,286.0 214.6,286.0 218.3,286.0 221.9,286.0 225.6,286.0 229.3,286.0 233.0,286.0 236.6,286.0 240.3,286.0 244.0,286.0 247.6,286.0 251.3,286.0 255.0,286.0 258.7,286.0 262.3,286.0 266.0,286.0 269.7,286.0 273.3,286.0 277.0,286.0 280.7,286.0 284.4,286.0 288.0,286.0 291.7,286.0 295.4,286.0 299.0,280.0 302.7,286.0 306.4,286.0 310.1,286.0 313.7,286.0 317.4,286.0 321.1,286.0 324.8,286.0 328.4,286.0 332.1,286.0 335.8,286.0 339.4,286.0 343.1,286.0 346.8,286.0 350.5,286.0 354.1,286.0 357.8,286.0 361.5,286.0 365.1,286.0 368.8,286.0 372.5,286.0 376.2,286.0 379.8,286.0 383.5,286.0 387.2,286.0 390.9,286.0 394.5,286.0 398.2,286.0 401.9,286.0 405.5,286.0 409.2,286.0 412.9,286.0 416.6,286.0 420.2,286.0 423.9,286.0 427.6,286.0 431.2,286.0 434.9,286.0 438.6,286.0 442.3,286.0 445.9,286.0 449.6,286.0 453.3,286.0 457.0,286.0 460.6,286.0 464.3,286.0 468.0,286.0 471.6,286.0 475.3,286.0 479.0,286.0 482.7,286.0 486.3,286.0 490.0,286.0 493.7,286.0 497.3,286.0 501.0,286.0 504.7,286.0 508.4,286.0 512.0,286.0 515.7,286.0 519.4,286.0 523.0,286.0 526.7,286.0 530.4,286.0 534.1,286.0 537.7,286.0 541.4,286.0 545.1,286.0 548.8,286.0 552.4,286.0 556.1,286.0 559.8,286.0 563.4,286.0 567.1,286.0 570.8,286.0 574.5,286.0 578.1,286.0 581.8,286.0 585.5,286.0 589.1,286.0 592.8,286.0 596.5,286.0 600.2,286.0 603.8,286.0 607.5,286.0 611.2,286.0 614.9,286.0 618.5,280.0 622.2,286.0 625.9,286.0 629.5,286.0 633.2,286.0 636.9,286.0 640.6,286.0 644.2,286.0 647.9,286.0 651.6,286.0 655.2,286.0 658.9,286.0 662.6,286.0 666.3,286.0 669.9,286.0 673.6,286.0 677.3,286.0 681.0,286.0 684.6,286.0 688.3,286.0 692.0,286.0 695.6,286.0 699.3,286.0 703.0,286.0 706.7,286.0 710.3,286.0 714.0,286.0 717.7,286.0 721.3,286.0 725.0,286.0 728.7,286.0 732.4,286.0 736.0,286.0 739.7,286.0 743.4,286.0 747.0,286.0 750.7,286.0 754.4,286.0 758.1,286.0 761.7,286.0 765.4,286.0 769.1,286.0 772.8,286.0 776.4,286.0 780.1,286.0 783.8,286.0 787.4,286.0 791.1,286.0 794.8,286.0 798.5,286.0 802.1,286.0 805.8,286.0 809.5,286.0 813.1,286.0 816.8,286.0 820.5,286.0 824.2,286.0 827.8,286.0 831.5,280.0 835.2,286.0 838.9,286.0 842.5,286.0 846.2,286.0 849.9,286.0 853.5,286.0 857.2,286.0 860.9,286.0 864.6,286.0 868.2,280.0 871.9,286.0 875.6,286.0 879.2,286.0 882.9,286.0 886.6,286.0 890.3,286.0 893.9,286.0 897.6,286.0 901.3,286.0 905.0,286.0 908.6,286.0 912.3,286.0 916.0,286.0 919.6,286.0 923.3,286.0 927.0,286.0 930.7,286.0 934.3,286.0 938.0,286.0"/><text x="42" y="308" font-size="11" fill="#5a688a">19/06 12:43</text><text x="938" y="308" text-anchor="end" font-size="11" fill="#5a688a">03/07 05:30</text></svg>