<svg xmlns="http://www.w3.org/2000/svg" viewBox="0 0 960 320" width="960" height="320" font-family="Segoe UI, system-ui, -apple-system, Roboto, Helvetica, Arial, sans-serif" role="img" aria-label="Availability history per region"><rect x="0.5" y="0.5" width="959" height="319" rx="14" fill="#0d1117" stroke="#2c3a5e"/><text x="42" y="26" font-size="14" font-weight="600" fill="#e6ecff">History · 70 points</text><circle cx="47" cy="40" r="5" fill="#22c55e"/><text x="57" y="44" font-size="12" fill="#9fb0d4">Available</text><circle cx="139.8" cy="40" r="5" fill="#f59e0b"/><text x="149.8" y="44" font-size="12" fill="#9fb0d4">Saturated</text><circle cx="232.60000000000002" cy="40" r="5" fill="#ef4444"/><text x="242.60000000000002" y="44" font-size="12" fill="#9fb0d4">Error</text><circle cx="296.6" cy="40" r="5" fill="#a855f7"/><text x="306.6" y="44" font-size="12" fill="#9fb0d4">Timeout</text><line x1="42" y1="286.0" x2="938" y2="286.0" stroke="#21304f" stroke-width="1"/><text x="35" y="289.0" text-anchor="end" font-size="11" fill="#9fb0d4">0</text><line x1="42" y1="227.5" x2="938" y2="227.5" stroke="#21304f" stroke-width="1"/><text x="35" y="230.5" text-anchor="end" font-size="11" fill="#9fb0d4">10</text><line x1="42" y1="169.0" x2="938" y2="169.0" stroke="#21304f" stroke-width="1"/><text x="35" y="172.0" text-anchor="end" font-size="11" fill="#9fb0d4">19</text><line x1="42" y1="110.5" x2="938" y2="110.5" stroke="#21304f" stroke-width="1"/><text x="35" y="113.5" text-anchor="end" font-size="11" fill="#9fb0d4">28</text><line x1="42" y1="52.0" x2="938" y2="52.0" stroke="#21304f" stroke-width="1"/><text x="35" y="55.0" text-anchor="end" font-size="11" fill="#9fb0d4">38</text><polyline fill="none" stroke="#22c55e" stroke-width="2.5" stroke-linejoin="round" stroke-linecap="round" points="42.0,64.3 55.0,224.4 68.0,82.8 81.0,88.9 93.9,82.8 106.9,76.6 119.9,76.6 132.9,76.6 145.9,76.6 158.9,76.6 171.9,76.6 184.8,76.6 197.8,76.6 210.8,76.6 223.8,76.6 236.8,70.5 249.8,70.5 262.8,82.8 275.7,82.8 288.7,82.8 301.7,88.9 314.7,88.9 327.7,88.9 340.7,88.9 353.7,88.9 366.6,88.9 379.6,88.9 392.6,88.9 405.6,88.9 418.6,82.8 431.6,82.8 444.6,82.8 457.5,82.8 470.5,76.6 483.5,76.6 496.5,76.6 509.5,76.6 522.5,76.6 535.4,82.8 548.4,82.8 561.4,82.8 574.4,82.8 587.4,76.6 600.4,76.6 613.4,76.6 626.3,76.6 639.3,76.6 652.3,76.6 665.3,76.6 678.3,82.8 691.3,82.8 704.3,82.8 717.2,82.8 730.2,76.6 743.2,76.6 756.2,76.6 769.2,76.6 782.2,76.6 795.2,76.6 808.1,76.6 821.1,76.6 834.1,82.8 847.1,76.6 860.1,76.6 873.1,76.6 886.1,76.6 899.0,76.6 912.0,82.8 925.0,76.6 938.0,76.6"/><polyline fill="none" stroke="#f59e0b" stroke-width="2.5" stroke-linejoin="round" stroke-linecap="round" points="42.0,273.7 55.0,267.5 68.0,255.2 81.0,249.1 93.9,255.2 106.9,261.4 119.9,261.4 132.9,261.4 145.9,261.4 158.9,261.4 171.9,261.4 184.8,261.4 197.8,261.4 210.8,261.4 223.8,261.4 236.8,267.5 249.8,267.5 262.8,261.4 275.7,255.2 288.7,255.2 301.7,249.1 314.7,249.1 327.7,249.1 340.7,249.1 353.7,249.1 366.6,249.1 379.6,249.1 392.6,249.1 405.6,249.1 418.6,255.2 431.6,255.2 444.6,255.2 457.5,255.2 470.5,261.4 483.5,261.4 496.5,261.4 509.5,261.4 522.5,261.4 535.4,255.2 548.4,255.2 561.4,255.2 574.4,255.2 587.4,261.4 600.4,261.4 613.4,261.4 626.3,261.4 639.3,261.4 652.3,261.4 665.3,261.4 678.3,255.2 691.3,255.2 704.3,255.2 717.2,261.4 730.2,261.4 743.2,261.4 756.2,261.4 769.2,261.4 782.2,261.4 795.2,261.4 808.1,261.4 821.1,261.4 834.1,255.2 847.1,261.4 860.1,261.4 873.1,261.4 886.1,261.4 899.0,261.4 912.0,261.4 925.0,261.4 938.0,261.4"/><polyline fill="none" stroke="#ef4444" stroke-width="2.5" stroke-linejoin="round" stroke-linecap="round" points="42.0,286.0 55.0,132.1 68.0,286.0 81.0,286.0 93.9,286.0 106.9,286.0 119.9,286.0 132.9,286.0 145.9,286.0 158.9,286.0 171.9,286.0 184.8,286.0 197.8,286.0 210.8,286.0 223.8,286.0 236.8,286.0 249.8,286.0 262.8,279.8 275.7,286.0 288.7,286.0 301.7,286.0 314.7,286.0 327.7,286.0 340.7,286.0 353.7,286.0 366.6,286.0 379.6,286.0 392.6,286.0 405.6,286.0 418.6,286.0 431.6,286.0 444.6,286.0 457.5,286.0 470.5,286.0 483.5,286.0 496.5,286.0 509.5,286.0 522.5,286.0 535.4,286.0 548.4,286.0 561.4,286.0 574.4,286.0 587.4,286.0 600.4,286.0 613.4,286.0 626.3,286.0 639.3,286.0 652.3,286.0 665.3,286.0 678.3,286.0 691.3,286.0 704.3,286.0 717.2,286.0 730.2,286.0 743.2,286.0 756.2,286.0 769.2,286.0 782.2,286.0 795.2,286.0 808.1,286.0 821.1,286.0 834.1,286.0 847.1,286.0 860.1,286.0 873.1,286.0 886.1,286.0 899.0,286.0 912.0,279.8 925.0,286.0 938.0,286.0"/><polyline fill="none" stroke="#a855f7" stroke-width="2.5" stroke-linejoin="round" stroke-linecap="round" points="42.0,286.0 55.0,286.0 68.0,286.0 81.0,286.0 93.9,286.0 106.9,286.0 119.9,286.0 132.9,286.0 145.9,286.0 158.9,286.0 171.9,286.0 184.8,286.0 197.8,286.0 210.8,286.0 223.8,286.0 236.8,286.0 249.8,286.0 262.8,286.0 275.7,286.0 288.7,286.0 301.7,286.0 314.7,286.0 327.7,286.0 340.7,286.0 353.7,286.0 366.6,286.0 379.6,286.0 392.6,286.0 405.6,286.0 418.6,286.0 431.6,286.0 444.6,286.0 457.5,286.0 470.5,286.0 483.5,286.0 496.5,286.0 509.5,286.0 522.5,286.0 535.4,286.0 548.4,286.0 561.4,286.0 574.4,286.0 587.4,286.0 600.4,286.0 613.4,286.0 626.3,286.0 639.3,286.0 652.3,286.0 665.3,286.0 678.3,286.0 691.3,286.0 704.3,286.0 717.2,279.8 730.2,286.0 743.2,286.0 756.2,286.0 769.2,286.0 782.2,286.0 795.2,286.0 808.1,286.0 821.1,286.0 834.1,286.0 847.1,286.0 860.1,286.0 873.1,286.0 886.1,286.0 899.0,286.0 912.0,286.0 925.0,286.0 938.0,286.0"/><text x="42" y="308" font-size="11" fill="#9fb0d4">19/06 15:39</text><text x="938" y="308" text-anchor="end" font-size="11" fill="#9fb0d4">19/07 11:29</text></svg>