<svg xmlns="http://www.w3.org/2000/svg" viewBox="0 0 960 320" width="960" height="320" font-family="Segoe UI, system-ui, -apple-system, Roboto, Helvetica, Arial, sans-serif" role="img" aria-label="Availability history per region"><rect x="0.5" y="0.5" width="959" height="319" rx="14" fill="#ffffff" stroke="#dce3f1"/><text x="42" y="26" font-size="14" font-weight="600" fill="#14203a">History · 223 points</text><circle cx="47" cy="40" r="5" fill="#22c55e"/><text x="57" y="44" font-size="12" fill="#5a688a">Available</text><circle cx="139.8" cy="40" r="5" fill="#f59e0b"/><text x="149.8" y="44" font-size="12" fill="#5a688a">Saturated</text><circle cx="232.60000000000002" cy="40" r="5" fill="#ef4444"/><text x="242.60000000000002" y="44" font-size="12" fill="#5a688a">Error</text><circle cx="296.6" cy="40" r="5" fill="#a855f7"/><text x="306.6" y="44" font-size="12" fill="#5a688a">Timeout</text><line x1="42" y1="286.0" x2="938" y2="286.0" stroke="#eef2f7" stroke-width="1"/><text x="35" y="289.0" text-anchor="end" font-size="11" fill="#5a688a">0</text><line x1="42" y1="227.5" x2="938" y2="227.5" stroke="#eef2f7" stroke-width="1"/><text x="35" y="230.5" text-anchor="end" font-size="11" fill="#5a688a">10</text><line x1="42" y1="169.0" x2="938" y2="169.0" stroke="#eef2f7" stroke-width="1"/><text x="35" y="172.0" text-anchor="end" font-size="11" fill="#5a688a">20</text><line x1="42" y1="110.5" x2="938" y2="110.5" stroke="#eef2f7" stroke-width="1"/><text x="35" y="113.5" text-anchor="end" font-size="11" fill="#5a688a">29</text><line x1="42" y1="52.0" x2="938" y2="52.0" stroke="#eef2f7" stroke-width="1"/><text x="35" y="55.0" text-anchor="end" font-size="11" fill="#5a688a">39</text><polyline fill="none" stroke="#22c55e" stroke-width="2.5" stroke-linejoin="round" stroke-linecap="round" points="42.0,70.0 46.0,70.0 50.1,88.0 54.1,88.0 58.1,76.0 62.2,76.0 66.2,76.0 70.3,70.0 74.3,76.0 78.3,70.0 82.4,64.0 86.4,58.0 90.4,58.0 94.5,58.0 98.5,58.0 102.5,58.0 106.6,58.0 110.6,58.0 114.6,58.0 118.7,58.0 122.7,58.0 126.8,58.0 130.8,58.0 134.8,58.0 138.9,58.0 142.9,58.0 146.9,58.0 151.0,58.0 155.0,58.0 159.0,58.0 163.1,58.0 167.1,70.0 171.2,76.0 175.2,94.0 179.2,64.0 183.3,64.0 187.3,58.0 191.3,58.0 195.4,58.0 199.4,70.0 203.4,76.0 207.5,76.0 211.5,82.0 215.5,82.0 219.6,82.0 223.6,82.0 227.7,76.0 231.7,64.0 235.7,70.0 239.8,70.0 243.8,82.0 247.8,76.0 251.9,76.0 255.9,82.0 259.9,76.0 264.0,76.0 268.0,76.0 272.1,64.0 276.1,64.0 280.1,76.0 284.2,76.0 288.2,76.0 292.2,88.0 296.3,70.0 300.3,64.0 304.3,58.0 308.4,58.0 312.4,70.0 316.5,70.0 320.5,70.0 324.5,76.0 328.6,70.0 332.6,70.0 336.6,70.0 340.7,70.0 344.7,76.0 348.7,82.0 352.8,76.0 356.8,70.0 360.8,70.0 364.9,70.0 368.9,70.0 373.0,76.0 377.0,70.0 381.0,70.0 385.1,70.0 389.1,70.0 393.1,70.0 397.2,70.0 401.2,70.0 405.2,70.0 409.3,70.0 413.3,70.0 417.4,70.0 421.4,70.0 425.4,70.0 429.5,70.0 433.5,70.0 437.5,70.0 441.6,70.0 445.6,70.0 449.6,70.0 453.7,70.0 457.7,70.0 461.7,70.0 465.8,70.0 469.8,70.0 473.9,70.0 477.9,70.0 481.9,70.0 486.0,70.0 490.0,70.0 494.0,70.0 498.1,70.0 502.1,70.0 506.1,70.0 510.2,70.0 514.2,70.0 518.3,70.0 522.3,70.0 526.3,70.0 530.4,70.0 534.4,70.0 538.4,70.0 542.5,70.0 546.5,70.0 550.5,70.0 554.6,70.0 558.6,70.0 562.6,70.0 566.7,70.0 570.7,70.0 574.8,70.0 578.8,70.0 582.8,70.0 586.9,70.0 590.9,70.0 594.9,70.0 599.0,70.0 603.0,70.0 607.0,70.0 611.1,70.0 615.1,70.0 619.2,70.0 623.2,70.0 627.2,70.0 631.3,70.0 635.3,70.0 639.3,70.0 643.4,70.0 647.4,70.0 651.4,76.0 655.5,70.0 659.5,70.0 663.5,70.0 667.6,70.0 671.6,70.0 675.7,76.0 679.7,76.0 683.7,88.0 687.8,88.0 691.8,88.0 695.8,94.0 699.9,94.0 703.9,94.0 707.9,94.0 712.0,88.0 716.0,88.0 720.1,82.0 724.1,82.0 728.1,82.0 732.2,88.0 736.2,88.0 740.2,94.0 744.3,82.0 748.3,82.0 752.3,82.0 756.4,82.0 760.4,88.0 764.5,88.0 768.5,94.0 772.5,94.0 776.6,88.0 780.6,88.0 784.6,88.0 788.7,94.0 792.7,94.0 796.7,106.0 800.8,94.0 804.8,94.0 808.8,94.0 812.9,94.0 816.9,88.0 821.0,88.0 825.0,82.0 829.0,76.0 833.1,76.0 837.1,76.0 841.1,76.0 845.2,76.0 849.2,76.0 853.2,70.0 857.3,70.0 861.3,70.0 865.4,76.0 869.4,88.0 873.4,82.0 877.5,70.0 881.5,70.0 885.5,70.0 889.6,76.0 893.6,76.0 897.6,76.0 901.7,82.0 905.7,70.0 909.7,76.0 913.8,64.0 917.8,70.0 921.9,58.0 925.9,58.0 929.9,58.0 934.0,58.0 938.0,58.0"/><polyline fill="none" stroke="#f59e0b" stroke-width="2.5" stroke-linejoin="round" stroke-linecap="round" points="42.0,274.0 46.0,274.0 50.1,274.0 54.1,280.0 58.1,268.0 62.2,268.0 66.2,268.0 70.3,274.0 74.3,274.0 78.3,274.0 82.4,280.0 86.4,286.0 90.4,286.0 94.5,286.0 98.5,286.0 102.5,286.0 106.6,286.0 110.6,286.0 114.6,286.0 118.7,286.0 122.7,286.0 126.8,286.0 130.8,286.0 134.8,286.0 138.9,286.0 142.9,286.0 146.9,286.0 151.0,286.0 155.0,286.0 159.0,286.0 163.1,286.0 167.1,274.0 171.2,280.0 175.2,280.0 179.2,280.0 183.3,280.0 187.3,286.0 191.3,286.0 195.4,286.0 199.4,274.0 203.4,268.0 207.5,268.0 211.5,262.0 215.5,262.0 219.6,262.0 223.6,262.0 227.7,268.0 231.7,280.0 235.7,280.0 239.8,274.0 243.8,262.0 247.8,268.0 251.9,268.0 255.9,262.0 259.9,268.0 264.0,268.0 268.0,268.0 272.1,280.0 276.1,280.0 280.1,268.0 284.2,268.0 288.2,268.0 292.2,262.0 296.3,274.0 300.3,280.0 304.3,286.0 308.4,286.0 312.4,274.0 316.5,274.0 320.5,274.0 324.5,274.0 328.6,274.0 332.6,274.0 336.6,274.0 340.7,274.0 344.7,280.0 348.7,274.0 352.8,280.0 356.8,286.0 360.8,286.0 364.9,286.0 368.9,286.0 373.0,280.0 377.0,286.0 381.0,286.0 385.1,286.0 389.1,286.0 393.1,286.0 397.2,286.0 401.2,286.0 405.2,286.0 409.3,286.0 413.3,286.0 417.4,286.0 421.4,286.0 425.4,286.0 429.5,286.0 433.5,286.0 437.5,286.0 441.6,286.0 445.6,286.0 449.6,286.0 453.7,286.0 457.7,286.0 461.7,286.0 465.8,286.0 469.8,286.0 473.9,286.0 477.9,286.0 481.9,286.0 486.0,286.0 490.0,286.0 494.0,286.0 498.1,286.0 502.1,286.0 506.1,286.0 510.2,286.0 514.2,286.0 518.3,286.0 522.3,286.0 526.3,286.0 530.4,286.0 534.4,286.0 538.4,286.0 542.5,286.0 546.5,286.0 550.5,286.0 554.6,286.0 558.6,286.0 562.6,286.0 566.7,286.0 570.7,286.0 574.8,286.0 578.8,286.0 582.8,286.0 586.9,286.0 590.9,286.0 594.9,286.0 599.0,286.0 603.0,286.0 607.0,286.0 611.1,286.0 615.1,286.0 619.2,286.0 623.2,286.0 627.2,286.0 631.3,286.0 635.3,286.0 639.3,286.0 643.4,286.0 647.4,286.0 651.4,286.0 655.5,286.0 659.5,286.0 663.5,286.0 667.6,286.0 671.6,286.0 675.7,286.0 679.7,280.0 683.7,268.0 687.8,268.0 691.8,268.0 695.8,268.0 699.9,262.0 703.9,262.0 707.9,262.0 712.0,268.0 716.0,268.0 720.1,274.0 724.1,274.0 728.1,274.0 732.2,268.0 736.2,268.0 740.2,268.0 744.3,274.0 748.3,274.0 752.3,274.0 756.4,274.0 760.4,268.0 764.5,268.0 768.5,262.0 772.5,262.0 776.6,268.0 780.6,268.0 784.6,268.0 788.7,262.0 792.7,262.0 796.7,274.0 800.8,262.0 804.8,262.0 808.8,262.0 812.9,262.0 816.9,268.0 821.0,268.0 825.0,274.0 829.0,280.0 833.1,280.0 837.1,280.0 841.1,280.0 845.2,280.0 849.2,280.0 853.2,286.0 857.3,286.0 861.3,286.0 865.4,280.0 869.4,274.0 873.4,274.0 877.5,280.0 881.5,274.0 885.5,274.0 889.6,268.0 893.6,268.0 897.6,268.0 901.7,268.0 905.7,280.0 909.7,274.0 913.8,280.0 917.8,280.0 921.9,286.0 925.9,286.0 929.9,286.0 934.0,286.0 938.0,286.0"/><polyline fill="none" stroke="#ef4444" stroke-width="2.5" stroke-linejoin="round" stroke-linecap="round" points="42.0,280.0 46.0,280.0 50.1,268.0 54.1,262.0 58.1,286.0 62.2,286.0 66.2,286.0 70.3,286.0 74.3,280.0 78.3,286.0 82.4,286.0 86.4,286.0 90.4,286.0 94.5,286.0 98.5,286.0 102.5,286.0 106.6,286.0 110.6,286.0 114.6,286.0 118.7,286.0 122.7,286.0 126.8,286.0 130.8,286.0 134.8,286.0 138.9,286.0 142.9,286.0 146.9,286.0 151.0,286.0 155.0,286.0 159.0,286.0 163.1,286.0 167.1,286.0 171.2,274.0 175.2,256.0 179.2,286.0 183.3,286.0 187.3,286.0 191.3,286.0 195.4,286.0 199.4,286.0 203.4,286.0 207.5,286.0 211.5,286.0 215.5,286.0 219.6,286.0 223.6,286.0 227.7,286.0 231.7,286.0 235.7,280.0 239.8,286.0 243.8,286.0 247.8,286.0 251.9,286.0 255.9,286.0 259.9,286.0 264.0,286.0 268.0,286.0 272.1,286.0 276.1,286.0 280.1,286.0 284.2,286.0 288.2,286.0 292.2,280.0 296.3,286.0 300.3,286.0 304.3,286.0 308.4,286.0 312.4,286.0 316.5,286.0 320.5,286.0 324.5,286.0 328.6,286.0 332.6,286.0 336.6,286.0 340.7,286.0 344.7,274.0 348.7,274.0 352.8,274.0 356.8,274.0 360.8,274.0 364.9,274.0 368.9,274.0 373.0,274.0 377.0,274.0 381.0,274.0 385.1,274.0 389.1,274.0 393.1,274.0 397.2,274.0 401.2,274.0 405.2,274.0 409.3,274.0 413.3,274.0 417.4,274.0 421.4,274.0 425.4,274.0 429.5,274.0 433.5,274.0 437.5,274.0 441.6,274.0 445.6,274.0 449.6,274.0 453.7,274.0 457.7,274.0 461.7,274.0 465.8,274.0 469.8,274.0 473.9,274.0 477.9,274.0 481.9,274.0 486.0,274.0 490.0,274.0 494.0,274.0 498.1,274.0 502.1,274.0 506.1,274.0 510.2,274.0 514.2,274.0 518.3,274.0 522.3,274.0 526.3,274.0 530.4,274.0 534.4,274.0 538.4,274.0 542.5,274.0 546.5,274.0 550.5,274.0 554.6,274.0 558.6,274.0 562.6,274.0 566.7,274.0 570.7,274.0 574.8,274.0 578.8,274.0 582.8,274.0 586.9,274.0 590.9,274.0 594.9,274.0 599.0,274.0 603.0,274.0 607.0,274.0 611.1,274.0 615.1,274.0 619.2,274.0 623.2,274.0 627.2,274.0 631.3,274.0 635.3,274.0 639.3,274.0 643.4,274.0 647.4,274.0 651.4,268.0 655.5,274.0 659.5,274.0 663.5,274.0 667.6,274.0 671.6,274.0 675.7,274.0 679.7,274.0 683.7,274.0 687.8,274.0 691.8,274.0 695.8,268.0 699.9,274.0 703.9,274.0 707.9,274.0 712.0,274.0 716.0,274.0 720.1,274.0 724.1,274.0 728.1,274.0 732.2,274.0 736.2,274.0 740.2,268.0 744.3,274.0 748.3,274.0 752.3,274.0 756.4,274.0 760.4,274.0 764.5,274.0 768.5,274.0 772.5,274.0 776.6,274.0 780.6,274.0 784.6,274.0 788.7,274.0 792.7,274.0 796.7,250.0 800.8,274.0 804.8,274.0 808.8,274.0 812.9,274.0 816.9,274.0 821.0,274.0 825.0,274.0 829.0,274.0 833.1,274.0 837.1,274.0 841.1,274.0 845.2,274.0 849.2,274.0 853.2,274.0 857.3,274.0 861.3,274.0 865.4,274.0 869.4,268.0 873.4,274.0 877.5,280.0 881.5,286.0 885.5,286.0 889.6,286.0 893.6,286.0 897.6,286.0 901.7,280.0 905.7,280.0 909.7,286.0 913.8,286.0 917.8,280.0 921.9,286.0 925.9,286.0 929.9,286.0 934.0,286.0 938.0,286.0"/><polyline fill="none" stroke="#a855f7" stroke-width="2.5" stroke-linejoin="round" stroke-linecap="round" points="42.0,286.0 46.0,286.0 50.1,286.0 54.1,286.0 58.1,286.0 62.2,286.0 66.2,286.0 70.3,286.0 74.3,286.0 78.3,286.0 82.4,286.0 86.4,286.0 90.4,286.0 94.5,286.0 98.5,286.0 102.5,286.0 106.6,286.0 110.6,286.0 114.6,286.0 118.7,286.0 122.7,286.0 126.8,286.0 130.8,286.0 134.8,286.0 138.9,286.0 142.9,286.0 146.9,286.0 151.0,286.0 155.0,286.0 159.0,286.0 163.1,286.0 167.1,286.0 171.2,286.0 175.2,286.0 179.2,286.0 183.3,286.0 187.3,286.0 191.3,286.0 195.4,286.0 199.4,286.0 203.4,286.0 207.5,286.0 211.5,286.0 215.5,286.0 219.6,286.0 223.6,286.0 227.7,286.0 231.7,286.0 235.7,286.0 239.8,286.0 243.8,286.0 247.8,286.0 251.9,286.0 255.9,286.0 259.9,286.0 264.0,286.0 268.0,286.0 272.1,286.0 276.1,286.0 280.1,286.0 284.2,286.0 288.2,286.0 292.2,286.0 296.3,286.0 300.3,286.0 304.3,286.0 308.4,286.0 312.4,286.0 316.5,286.0 320.5,286.0 324.5,280.0 328.6,286.0 332.6,286.0 336.6,286.0 340.7,286.0 344.7,286.0 348.7,286.0 352.8,286.0 356.8,286.0 360.8,286.0 364.9,286.0 368.9,286.0 373.0,286.0 377.0,286.0 381.0,286.0 385.1,286.0 389.1,286.0 393.1,286.0 397.2,286.0 401.2,286.0 405.2,286.0 409.3,286.0 413.3,286.0 417.4,286.0 421.4,286.0 425.4,286.0 429.5,286.0 433.5,286.0 437.5,286.0 441.6,286.0 445.6,286.0 449.6,286.0 453.7,286.0 457.7,286.0 461.7,286.0 465.8,286.0 469.8,286.0 473.9,286.0 477.9,286.0 481.9,286.0 486.0,286.0 490.0,286.0 494.0,286.0 498.1,286.0 502.1,286.0 506.1,286.0 510.2,286.0 514.2,286.0 518.3,286.0 522.3,286.0 526.3,286.0 530.4,286.0 534.4,286.0 538.4,286.0 542.5,286.0 546.5,286.0 550.5,286.0 554.6,286.0 558.6,286.0 562.6,286.0 566.7,286.0 570.7,286.0 574.8,286.0 578.8,286.0 582.8,286.0 586.9,286.0 590.9,286.0 594.9,286.0 599.0,286.0 603.0,286.0 607.0,286.0 611.1,286.0 615.1,286.0 619.2,286.0 623.2,286.0 627.2,286.0 631.3,286.0 635.3,286.0 639.3,286.0 643.4,286.0 647.4,286.0 651.4,286.0 655.5,286.0 659.5,286.0 663.5,286.0 667.6,286.0 671.6,286.0 675.7,280.0 679.7,286.0 683.7,286.0 687.8,286.0 691.8,286.0 695.8,286.0 699.9,286.0 703.9,286.0 707.9,286.0 712.0,286.0 716.0,286.0 720.1,286.0 724.1,286.0 728.1,286.0 732.2,286.0 736.2,286.0 740.2,286.0 744.3,286.0 748.3,286.0 752.3,286.0 756.4,286.0 760.4,286.0 764.5,286.0 768.5,286.0 772.5,286.0 776.6,286.0 780.6,286.0 784.6,286.0 788.7,286.0 792.7,286.0 796.7,286.0 800.8,286.0 804.8,286.0 808.8,286.0 812.9,286.0 816.9,286.0 821.0,286.0 825.0,286.0 829.0,286.0 833.1,286.0 837.1,286.0 841.1,286.0 845.2,286.0 849.2,286.0 853.2,286.0 857.3,286.0 861.3,286.0 865.4,286.0 869.4,286.0 873.4,286.0 877.5,286.0 881.5,286.0 885.5,286.0 889.6,286.0 893.6,286.0 897.6,286.0 901.7,286.0 905.7,286.0 909.7,280.0 913.8,286.0 917.8,286.0 921.9,286.0 925.9,286.0 929.9,286.0 934.0,286.0 938.0,286.0"/><text x="42" y="308" font-size="11" fill="#5a688a">19/06 12:43</text><text x="938" y="308" text-anchor="end" font-size="11" fill="#5a688a">02/07 01:29</text></svg>