<svg xmlns="http://www.w3.org/2000/svg" viewBox="0 0 960 320" width="960" height="320" font-family="Segoe UI, system-ui, -apple-system, Roboto, Helvetica, Arial, sans-serif" role="img" aria-label="Availability history per region"><rect x="0.5" y="0.5" width="959" height="319" rx="14" fill="#ffffff" stroke="#dce3f1"/><text x="42" y="26" font-size="14" font-weight="600" fill="#14203a">History · 196 points</text><circle cx="47" cy="40" r="5" fill="#22c55e"/><text x="57" y="44" font-size="12" fill="#5a688a">Available</text><circle cx="139.8" cy="40" r="5" fill="#f59e0b"/><text x="149.8" y="44" font-size="12" fill="#5a688a">Saturated</text><circle cx="232.60000000000002" cy="40" r="5" fill="#ef4444"/><text x="242.60000000000002" y="44" font-size="12" fill="#5a688a">Error</text><circle cx="296.6" cy="40" r="5" fill="#a855f7"/><text x="306.6" y="44" font-size="12" fill="#5a688a">Timeout</text><line x1="42" y1="286.0" x2="938" y2="286.0" stroke="#eef2f7" stroke-width="1"/><text x="35" y="289.0" text-anchor="end" font-size="11" fill="#5a688a">0</text><line x1="42" y1="227.5" x2="938" y2="227.5" stroke="#eef2f7" stroke-width="1"/><text x="35" y="230.5" text-anchor="end" font-size="11" fill="#5a688a">10</text><line x1="42" y1="169.0" x2="938" y2="169.0" stroke="#eef2f7" stroke-width="1"/><text x="35" y="172.0" text-anchor="end" font-size="11" fill="#5a688a">20</text><line x1="42" y1="110.5" x2="938" y2="110.5" stroke="#eef2f7" stroke-width="1"/><text x="35" y="113.5" text-anchor="end" font-size="11" fill="#5a688a">29</text><line x1="42" y1="52.0" x2="938" y2="52.0" stroke="#eef2f7" stroke-width="1"/><text x="35" y="55.0" text-anchor="end" font-size="11" fill="#5a688a">39</text><polyline fill="none" stroke="#22c55e" stroke-width="2.5" stroke-linejoin="round" stroke-linecap="round" points="42.0,70.0 46.6,70.0 51.2,88.0 55.8,88.0 60.4,76.0 65.0,76.0 69.6,76.0 74.2,70.0 78.8,76.0 83.4,70.0 87.9,64.0 92.5,58.0 97.1,58.0 101.7,58.0 106.3,58.0 110.9,58.0 115.5,58.0 120.1,58.0 124.7,58.0 129.3,58.0 133.9,58.0 138.5,58.0 143.1,58.0 147.7,58.0 152.3,58.0 156.9,58.0 161.5,58.0 166.1,58.0 170.7,58.0 175.3,58.0 179.8,58.0 184.4,70.0 189.0,76.0 193.6,94.0 198.2,64.0 202.8,64.0 207.4,58.0 212.0,58.0 216.6,58.0 221.2,70.0 225.8,76.0 230.4,76.0 235.0,82.0 239.6,82.0 244.2,82.0 248.8,82.0 253.4,76.0 258.0,64.0 262.6,70.0 267.1,70.0 271.7,82.0 276.3,76.0 280.9,76.0 285.5,82.0 290.1,76.0 294.7,76.0 299.3,76.0 303.9,64.0 308.5,64.0 313.1,76.0 317.7,76.0 322.3,76.0 326.9,88.0 331.5,70.0 336.1,64.0 340.7,58.0 345.3,58.0 349.9,70.0 354.5,70.0 359.0,70.0 363.6,76.0 368.2,70.0 372.8,70.0 377.4,70.0 382.0,70.0 386.6,76.0 391.2,82.0 395.8,76.0 400.4,70.0 405.0,70.0 409.6,70.0 414.2,70.0 418.8,76.0 423.4,70.0 428.0,70.0 432.6,70.0 437.2,70.0 441.8,70.0 446.3,70.0 450.9,70.0 455.5,70.0 460.1,70.0 464.7,70.0 469.3,70.0 473.9,70.0 478.5,70.0 483.1,70.0 487.7,70.0 492.3,70.0 496.9,70.0 501.5,70.0 506.1,70.0 510.7,70.0 515.3,70.0 519.9,70.0 524.5,70.0 529.1,70.0 533.7,70.0 538.2,70.0 542.8,70.0 547.4,70.0 552.0,70.0 556.6,70.0 561.2,70.0 565.8,70.0 570.4,70.0 575.0,70.0 579.6,70.0 584.2,70.0 588.8,70.0 593.4,70.0 598.0,70.0 602.6,70.0 607.2,70.0 611.8,70.0 616.4,70.0 621.0,70.0 625.5,70.0 630.1,70.0 634.7,70.0 639.3,70.0 643.9,70.0 648.5,70.0 653.1,70.0 657.7,70.0 662.3,70.0 666.9,70.0 671.5,70.0 676.1,70.0 680.7,70.0 685.3,70.0 689.9,70.0 694.5,70.0 699.1,70.0 703.7,70.0 708.3,70.0 712.9,70.0 717.4,70.0 722.0,70.0 726.6,70.0 731.2,70.0 735.8,76.0 740.4,70.0 745.0,70.0 749.6,70.0 754.2,70.0 758.8,70.0 763.4,76.0 768.0,76.0 772.6,88.0 777.2,88.0 781.8,88.0 786.4,94.0 791.0,94.0 795.6,94.0 800.2,94.0 804.7,88.0 809.3,88.0 813.9,82.0 818.5,82.0 823.1,82.0 827.7,88.0 832.3,88.0 836.9,94.0 841.5,82.0 846.1,82.0 850.7,82.0 855.3,82.0 859.9,88.0 864.5,88.0 869.1,94.0 873.7,94.0 878.3,88.0 882.9,88.0 887.5,88.0 892.1,94.0 896.6,94.0 901.2,106.0 905.8,94.0 910.4,94.0 915.0,94.0 919.6,94.0 924.2,88.0 928.8,88.0 933.4,82.0 938.0,76.0"/><polyline fill="none" stroke="#f59e0b" stroke-width="2.5" stroke-linejoin="round" stroke-linecap="round" points="42.0,274.0 46.6,274.0 51.2,274.0 55.8,280.0 60.4,268.0 65.0,268.0 69.6,268.0 74.2,274.0 78.8,274.0 83.4,274.0 87.9,280.0 92.5,286.0 97.1,286.0 101.7,286.0 106.3,286.0 110.9,286.0 115.5,286.0 120.1,286.0 124.7,286.0 129.3,286.0 133.9,286.0 138.5,286.0 143.1,286.0 147.7,286.0 152.3,286.0 156.9,286.0 161.5,286.0 166.1,286.0 170.7,286.0 175.3,286.0 179.8,286.0 184.4,274.0 189.0,280.0 193.6,280.0 198.2,280.0 202.8,280.0 207.4,286.0 212.0,286.0 216.6,286.0 221.2,274.0 225.8,268.0 230.4,268.0 235.0,262.0 239.6,262.0 244.2,262.0 248.8,262.0 253.4,268.0 258.0,280.0 262.6,280.0 267.1,274.0 271.7,262.0 276.3,268.0 280.9,268.0 285.5,262.0 290.1,268.0 294.7,268.0 299.3,268.0 303.9,280.0 308.5,280.0 313.1,268.0 317.7,268.0 322.3,268.0 326.9,262.0 331.5,274.0 336.1,280.0 340.7,286.0 345.3,286.0 349.9,274.0 354.5,274.0 359.0,274.0 363.6,274.0 368.2,274.0 372.8,274.0 377.4,274.0 382.0,274.0 386.6,280.0 391.2,274.0 395.8,280.0 400.4,286.0 405.0,286.0 409.6,286.0 414.2,286.0 418.8,280.0 423.4,286.0 428.0,286.0 432.6,286.0 437.2,286.0 441.8,286.0 446.3,286.0 450.9,286.0 455.5,286.0 460.1,286.0 464.7,286.0 469.3,286.0 473.9,286.0 478.5,286.0 483.1,286.0 487.7,286.0 492.3,286.0 496.9,286.0 501.5,286.0 506.1,286.0 510.7,286.0 515.3,286.0 519.9,286.0 524.5,286.0 529.1,286.0 533.7,286.0 538.2,286.0 542.8,286.0 547.4,286.0 552.0,286.0 556.6,286.0 561.2,286.0 565.8,286.0 570.4,286.0 575.0,286.0 579.6,286.0 584.2,286.0 588.8,286.0 593.4,286.0 598.0,286.0 602.6,286.0 607.2,286.0 611.8,286.0 616.4,286.0 621.0,286.0 625.5,286.0 630.1,286.0 634.7,286.0 639.3,286.0 643.9,286.0 648.5,286.0 653.1,286.0 657.7,286.0 662.3,286.0 666.9,286.0 671.5,286.0 676.1,286.0 680.7,286.0 685.3,286.0 689.9,286.0 694.5,286.0 699.1,286.0 703.7,286.0 708.3,286.0 712.9,286.0 717.4,286.0 722.0,286.0 726.6,286.0 731.2,286.0 735.8,286.0 740.4,286.0 745.0,286.0 749.6,286.0 754.2,286.0 758.8,286.0 763.4,286.0 768.0,280.0 772.6,268.0 777.2,268.0 781.8,268.0 786.4,268.0 791.0,262.0 795.6,262.0 800.2,262.0 804.7,268.0 809.3,268.0 813.9,274.0 818.5,274.0 823.1,274.0 827.7,268.0 832.3,268.0 836.9,268.0 841.5,274.0 846.1,274.0 850.7,274.0 855.3,274.0 859.9,268.0 864.5,268.0 869.1,262.0 873.7,262.0 878.3,268.0 882.9,268.0 887.5,268.0 892.1,262.0 896.6,262.0 901.2,274.0 905.8,262.0 910.4,262.0 915.0,262.0 919.6,262.0 924.2,268.0 928.8,268.0 933.4,274.0 938.0,280.0"/><polyline fill="none" stroke="#ef4444" stroke-width="2.5" stroke-linejoin="round" stroke-linecap="round" points="42.0,280.0 46.6,280.0 51.2,268.0 55.8,262.0 60.4,286.0 65.0,286.0 69.6,286.0 74.2,286.0 78.8,280.0 83.4,286.0 87.9,286.0 92.5,286.0 97.1,286.0 101.7,286.0 106.3,286.0 110.9,286.0 115.5,286.0 120.1,286.0 124.7,286.0 129.3,286.0 133.9,286.0 138.5,286.0 143.1,286.0 147.7,286.0 152.3,286.0 156.9,286.0 161.5,286.0 166.1,286.0 170.7,286.0 175.3,286.0 179.8,286.0 184.4,286.0 189.0,274.0 193.6,256.0 198.2,286.0 202.8,286.0 207.4,286.0 212.0,286.0 216.6,286.0 221.2,286.0 225.8,286.0 230.4,286.0 235.0,286.0 239.6,286.0 244.2,286.0 248.8,286.0 253.4,286.0 258.0,286.0 262.6,280.0 267.1,286.0 271.7,286.0 276.3,286.0 280.9,286.0 285.5,286.0 290.1,286.0 294.7,286.0 299.3,286.0 303.9,286.0 308.5,286.0 313.1,286.0 317.7,286.0 322.3,286.0 326.9,280.0 331.5,286.0 336.1,286.0 340.7,286.0 345.3,286.0 349.9,286.0 354.5,286.0 359.0,286.0 363.6,286.0 368.2,286.0 372.8,286.0 377.4,286.0 382.0,286.0 386.6,274.0 391.2,274.0 395.8,274.0 400.4,274.0 405.0,274.0 409.6,274.0 414.2,274.0 418.8,274.0 423.4,274.0 428.0,274.0 432.6,274.0 437.2,274.0 441.8,274.0 446.3,274.0 450.9,274.0 455.5,274.0 460.1,274.0 464.7,274.0 469.3,274.0 473.9,274.0 478.5,274.0 483.1,274.0 487.7,274.0 492.3,274.0 496.9,274.0 501.5,274.0 506.1,274.0 510.7,274.0 515.3,274.0 519.9,274.0 524.5,274.0 529.1,274.0 533.7,274.0 538.2,274.0 542.8,274.0 547.4,274.0 552.0,274.0 556.6,274.0 561.2,274.0 565.8,274.0 570.4,274.0 575.0,274.0 579.6,274.0 584.2,274.0 588.8,274.0 593.4,274.0 598.0,274.0 602.6,274.0 607.2,274.0 611.8,274.0 616.4,274.0 621.0,274.0 625.5,274.0 630.1,274.0 634.7,274.0 639.3,274.0 643.9,274.0 648.5,274.0 653.1,274.0 657.7,274.0 662.3,274.0 666.9,274.0 671.5,274.0 676.1,274.0 680.7,274.0 685.3,274.0 689.9,274.0 694.5,274.0 699.1,274.0 703.7,274.0 708.3,274.0 712.9,274.0 717.4,274.0 722.0,274.0 726.6,274.0 731.2,274.0 735.8,268.0 740.4,274.0 745.0,274.0 749.6,274.0 754.2,274.0 758.8,274.0 763.4,274.0 768.0,274.0 772.6,274.0 777.2,274.0 781.8,274.0 786.4,268.0 791.0,274.0 795.6,274.0 800.2,274.0 804.7,274.0 809.3,274.0 813.9,274.0 818.5,274.0 823.1,274.0 827.7,274.0 832.3,274.0 836.9,268.0 841.5,274.0 846.1,274.0 850.7,274.0 855.3,274.0 859.9,274.0 864.5,274.0 869.1,274.0 873.7,274.0 878.3,274.0 882.9,274.0 887.5,274.0 892.1,274.0 896.6,274.0 901.2,250.0 905.8,274.0 910.4,274.0 915.0,274.0 919.6,274.0 924.2,274.0 928.8,274.0 933.4,274.0 938.0,274.0"/><polyline fill="none" stroke="#a855f7" stroke-width="2.5" stroke-linejoin="round" stroke-linecap="round" points="42.0,286.0 46.6,286.0 51.2,286.0 55.8,286.0 60.4,286.0 65.0,286.0 69.6,286.0 74.2,286.0 78.8,286.0 83.4,286.0 87.9,286.0 92.5,286.0 97.1,286.0 101.7,286.0 106.3,286.0 110.9,286.0 115.5,286.0 120.1,286.0 124.7,286.0 129.3,286.0 133.9,286.0 138.5,286.0 143.1,286.0 147.7,286.0 152.3,286.0 156.9,286.0 161.5,286.0 166.1,286.0 170.7,286.0 175.3,286.0 179.8,286.0 184.4,286.0 189.0,286.0 193.6,286.0 198.2,286.0 202.8,286.0 207.4,286.0 212.0,286.0 216.6,286.0 221.2,286.0 225.8,286.0 230.4,286.0 235.0,286.0 239.6,286.0 244.2,286.0 248.8,286.0 253.4,286.0 258.0,286.0 262.6,286.0 267.1,286.0 271.7,286.0 276.3,286.0 280.9,286.0 285.5,286.0 290.1,286.0 294.7,286.0 299.3,286.0 303.9,286.0 308.5,286.0 313.1,286.0 317.7,286.0 322.3,286.0 326.9,286.0 331.5,286.0 336.1,286.0 340.7,286.0 345.3,286.0 349.9,286.0 354.5,286.0 359.0,286.0 363.6,280.0 368.2,286.0 372.8,286.0 377.4,286.0 382.0,286.0 386.6,286.0 391.2,286.0 395.8,286.0 400.4,286.0 405.0,286.0 409.6,286.0 414.2,286.0 418.8,286.0 423.4,286.0 428.0,286.0 432.6,286.0 437.2,286.0 441.8,286.0 446.3,286.0 450.9,286.0 455.5,286.0 460.1,286.0 464.7,286.0 469.3,286.0 473.9,286.0 478.5,286.0 483.1,286.0 487.7,286.0 492.3,286.0 496.9,286.0 501.5,286.0 506.1,286.0 510.7,286.0 515.3,286.0 519.9,286.0 524.5,286.0 529.1,286.0 533.7,286.0 538.2,286.0 542.8,286.0 547.4,286.0 552.0,286.0 556.6,286.0 561.2,286.0 565.8,286.0 570.4,286.0 575.0,286.0 579.6,286.0 584.2,286.0 588.8,286.0 593.4,286.0 598.0,286.0 602.6,286.0 607.2,286.0 611.8,286.0 616.4,286.0 621.0,286.0 625.5,286.0 630.1,286.0 634.7,286.0 639.3,286.0 643.9,286.0 648.5,286.0 653.1,286.0 657.7,286.0 662.3,286.0 666.9,286.0 671.5,286.0 676.1,286.0 680.7,286.0 685.3,286.0 689.9,286.0 694.5,286.0 699.1,286.0 703.7,286.0 708.3,286.0 712.9,286.0 717.4,286.0 722.0,286.0 726.6,286.0 731.2,286.0 735.8,286.0 740.4,286.0 745.0,286.0 749.6,286.0 754.2,286.0 758.8,286.0 763.4,280.0 768.0,286.0 772.6,286.0 777.2,286.0 781.8,286.0 786.4,286.0 791.0,286.0 795.6,286.0 800.2,286.0 804.7,286.0 809.3,286.0 813.9,286.0 818.5,286.0 823.1,286.0 827.7,286.0 832.3,286.0 836.9,286.0 841.5,286.0 846.1,286.0 850.7,286.0 855.3,286.0 859.9,286.0 864.5,286.0 869.1,286.0 873.7,286.0 878.3,286.0 882.9,286.0 887.5,286.0 892.1,286.0 896.6,286.0 901.2,286.0 905.8,286.0 910.4,286.0 915.0,286.0 919.6,286.0 924.2,286.0 928.8,286.0 933.4,286.0 938.0,286.0"/><text x="42" y="308" font-size="11" fill="#5a688a">19/06 12:43</text><text x="938" y="308" text-anchor="end" font-size="11" fill="#5a688a">30/06 22:29</text></svg>