<svg xmlns="http://www.w3.org/2000/svg" viewBox="0 0 960 320" width="960" height="320" font-family="Segoe UI, system-ui, -apple-system, Roboto, Helvetica, Arial, sans-serif" role="img" aria-label="Availability history per region"><rect x="0.5" y="0.5" width="959" height="319" rx="14" fill="#ffffff" stroke="#dce3f1"/><text x="42" y="26" font-size="14" font-weight="600" fill="#14203a">History · 164 points</text><circle cx="47" cy="40" r="5" fill="#22c55e"/><text x="57" y="44" font-size="12" fill="#5a688a">Available</text><circle cx="139.8" cy="40" r="5" fill="#f59e0b"/><text x="149.8" y="44" font-size="12" fill="#5a688a">Saturated</text><circle cx="232.60000000000002" cy="40" r="5" fill="#ef4444"/><text x="242.60000000000002" y="44" font-size="12" fill="#5a688a">Error</text><circle cx="296.6" cy="40" r="5" fill="#a855f7"/><text x="306.6" y="44" font-size="12" fill="#5a688a">Timeout</text><line x1="42" y1="286.0" x2="938" y2="286.0" stroke="#eef2f7" stroke-width="1"/><text x="35" y="289.0" text-anchor="end" font-size="11" fill="#5a688a">0</text><line x1="42" y1="227.5" x2="938" y2="227.5" stroke="#eef2f7" stroke-width="1"/><text x="35" y="230.5" text-anchor="end" font-size="11" fill="#5a688a">10</text><line x1="42" y1="169.0" x2="938" y2="169.0" stroke="#eef2f7" stroke-width="1"/><text x="35" y="172.0" text-anchor="end" font-size="11" fill="#5a688a">20</text><line x1="42" y1="110.5" x2="938" y2="110.5" stroke="#eef2f7" stroke-width="1"/><text x="35" y="113.5" text-anchor="end" font-size="11" fill="#5a688a">29</text><line x1="42" y1="52.0" x2="938" y2="52.0" stroke="#eef2f7" stroke-width="1"/><text x="35" y="55.0" text-anchor="end" font-size="11" fill="#5a688a">39</text><polyline fill="none" stroke="#22c55e" stroke-width="2.5" stroke-linejoin="round" stroke-linecap="round" points="42.0,70.0 47.5,70.0 53.0,88.0 58.5,88.0 64.0,76.0 69.5,76.0 75.0,76.0 80.5,70.0 86.0,76.0 91.5,70.0 97.0,64.0 102.5,58.0 108.0,58.0 113.5,58.0 119.0,58.0 124.5,58.0 130.0,58.0 135.4,58.0 140.9,58.0 146.4,58.0 151.9,58.0 157.4,58.0 162.9,58.0 168.4,58.0 173.9,58.0 179.4,58.0 184.9,58.0 190.4,58.0 195.9,58.0 201.4,58.0 206.9,58.0 212.4,70.0 217.9,76.0 223.4,94.0 228.9,64.0 234.4,64.0 239.9,58.0 245.4,58.0 250.9,58.0 256.4,70.0 261.9,76.0 267.4,76.0 272.9,82.0 278.4,82.0 283.9,82.0 289.4,82.0 294.9,76.0 300.4,64.0 305.9,70.0 311.3,70.0 316.8,82.0 322.3,76.0 327.8,76.0 333.3,82.0 338.8,76.0 344.3,76.0 349.8,76.0 355.3,64.0 360.8,64.0 366.3,76.0 371.8,76.0 377.3,76.0 382.8,88.0 388.3,70.0 393.8,64.0 399.3,58.0 404.8,58.0 410.3,70.0 415.8,70.0 421.3,70.0 426.8,76.0 432.3,70.0 437.8,70.0 443.3,70.0 448.8,70.0 454.3,76.0 459.8,82.0 465.3,76.0 470.8,70.0 476.3,70.0 481.8,70.0 487.3,70.0 492.7,76.0 498.2,70.0 503.7,70.0 509.2,70.0 514.7,70.0 520.2,70.0 525.7,70.0 531.2,70.0 536.7,70.0 542.2,70.0 547.7,70.0 553.2,70.0 558.7,70.0 564.2,70.0 569.7,70.0 575.2,70.0 580.7,70.0 586.2,70.0 591.7,70.0 597.2,70.0 602.7,70.0 608.2,70.0 613.7,70.0 619.2,70.0 624.7,70.0 630.2,70.0 635.7,70.0 641.2,70.0 646.7,70.0 652.2,70.0 657.7,70.0 663.2,70.0 668.7,70.0 674.1,70.0 679.6,70.0 685.1,70.0 690.6,70.0 696.1,70.0 701.6,70.0 707.1,70.0 712.6,70.0 718.1,70.0 723.6,70.0 729.1,70.0 734.6,70.0 740.1,70.0 745.6,70.0 751.1,70.0 756.6,70.0 762.1,70.0 767.6,70.0 773.1,70.0 778.6,70.0 784.1,70.0 789.6,70.0 795.1,70.0 800.6,70.0 806.1,70.0 811.6,70.0 817.1,70.0 822.6,70.0 828.1,70.0 833.6,70.0 839.1,70.0 844.6,70.0 850.0,70.0 855.5,70.0 861.0,70.0 866.5,70.0 872.0,76.0 877.5,70.0 883.0,70.0 888.5,70.0 894.0,70.0 899.5,70.0 905.0,76.0 910.5,76.0 916.0,88.0 921.5,88.0 927.0,88.0 932.5,94.0 938.0,94.0"/><polyline fill="none" stroke="#f59e0b" stroke-width="2.5" stroke-linejoin="round" stroke-linecap="round" points="42.0,274.0 47.5,274.0 53.0,274.0 58.5,280.0 64.0,268.0 69.5,268.0 75.0,268.0 80.5,274.0 86.0,274.0 91.5,274.0 97.0,280.0 102.5,286.0 108.0,286.0 113.5,286.0 119.0,286.0 124.5,286.0 130.0,286.0 135.4,286.0 140.9,286.0 146.4,286.0 151.9,286.0 157.4,286.0 162.9,286.0 168.4,286.0 173.9,286.0 179.4,286.0 184.9,286.0 190.4,286.0 195.9,286.0 201.4,286.0 206.9,286.0 212.4,274.0 217.9,280.0 223.4,280.0 228.9,280.0 234.4,280.0 239.9,286.0 245.4,286.0 250.9,286.0 256.4,274.0 261.9,268.0 267.4,268.0 272.9,262.0 278.4,262.0 283.9,262.0 289.4,262.0 294.9,268.0 300.4,280.0 305.9,280.0 311.3,274.0 316.8,262.0 322.3,268.0 327.8,268.0 333.3,262.0 338.8,268.0 344.3,268.0 349.8,268.0 355.3,280.0 360.8,280.0 366.3,268.0 371.8,268.0 377.3,268.0 382.8,262.0 388.3,274.0 393.8,280.0 399.3,286.0 404.8,286.0 410.3,274.0 415.8,274.0 421.3,274.0 426.8,274.0 432.3,274.0 437.8,274.0 443.3,274.0 448.8,274.0 454.3,280.0 459.8,274.0 465.3,280.0 470.8,286.0 476.3,286.0 481.8,286.0 487.3,286.0 492.7,280.0 498.2,286.0 503.7,286.0 509.2,286.0 514.7,286.0 520.2,286.0 525.7,286.0 531.2,286.0 536.7,286.0 542.2,286.0 547.7,286.0 553.2,286.0 558.7,286.0 564.2,286.0 569.7,286.0 575.2,286.0 580.7,286.0 586.2,286.0 591.7,286.0 597.2,286.0 602.7,286.0 608.2,286.0 613.7,286.0 619.2,286.0 624.7,286.0 630.2,286.0 635.7,286.0 641.2,286.0 646.7,286.0 652.2,286.0 657.7,286.0 663.2,286.0 668.7,286.0 674.1,286.0 679.6,286.0 685.1,286.0 690.6,286.0 696.1,286.0 701.6,286.0 707.1,286.0 712.6,286.0 718.1,286.0 723.6,286.0 729.1,286.0 734.6,286.0 740.1,286.0 745.6,286.0 751.1,286.0 756.6,286.0 762.1,286.0 767.6,286.0 773.1,286.0 778.6,286.0 784.1,286.0 789.6,286.0 795.1,286.0 800.6,286.0 806.1,286.0 811.6,286.0 817.1,286.0 822.6,286.0 828.1,286.0 833.6,286.0 839.1,286.0 844.6,286.0 850.0,286.0 855.5,286.0 861.0,286.0 866.5,286.0 872.0,286.0 877.5,286.0 883.0,286.0 888.5,286.0 894.0,286.0 899.5,286.0 905.0,286.0 910.5,280.0 916.0,268.0 921.5,268.0 927.0,268.0 932.5,268.0 938.0,262.0"/><polyline fill="none" stroke="#ef4444" stroke-width="2.5" stroke-linejoin="round" stroke-linecap="round" points="42.0,280.0 47.5,280.0 53.0,268.0 58.5,262.0 64.0,286.0 69.5,286.0 75.0,286.0 80.5,286.0 86.0,280.0 91.5,286.0 97.0,286.0 102.5,286.0 108.0,286.0 113.5,286.0 119.0,286.0 124.5,286.0 130.0,286.0 135.4,286.0 140.9,286.0 146.4,286.0 151.9,286.0 157.4,286.0 162.9,286.0 168.4,286.0 173.9,286.0 179.4,286.0 184.9,286.0 190.4,286.0 195.9,286.0 201.4,286.0 206.9,286.0 212.4,286.0 217.9,274.0 223.4,256.0 228.9,286.0 234.4,286.0 239.9,286.0 245.4,286.0 250.9,286.0 256.4,286.0 261.9,286.0 267.4,286.0 272.9,286.0 278.4,286.0 283.9,286.0 289.4,286.0 294.9,286.0 300.4,286.0 305.9,280.0 311.3,286.0 316.8,286.0 322.3,286.0 327.8,286.0 333.3,286.0 338.8,286.0 344.3,286.0 349.8,286.0 355.3,286.0 360.8,286.0 366.3,286.0 371.8,286.0 377.3,286.0 382.8,280.0 388.3,286.0 393.8,286.0 399.3,286.0 404.8,286.0 410.3,286.0 415.8,286.0 421.3,286.0 426.8,286.0 432.3,286.0 437.8,286.0 443.3,286.0 448.8,286.0 454.3,274.0 459.8,274.0 465.3,274.0 470.8,274.0 476.3,274.0 481.8,274.0 487.3,274.0 492.7,274.0 498.2,274.0 503.7,274.0 509.2,274.0 514.7,274.0 520.2,274.0 525.7,274.0 531.2,274.0 536.7,274.0 542.2,274.0 547.7,274.0 553.2,274.0 558.7,274.0 564.2,274.0 569.7,274.0 575.2,274.0 580.7,274.0 586.2,274.0 591.7,274.0 597.2,274.0 602.7,274.0 608.2,274.0 613.7,274.0 619.2,274.0 624.7,274.0 630.2,274.0 635.7,274.0 641.2,274.0 646.7,274.0 652.2,274.0 657.7,274.0 663.2,274.0 668.7,274.0 674.1,274.0 679.6,274.0 685.1,274.0 690.6,274.0 696.1,274.0 701.6,274.0 707.1,274.0 712.6,274.0 718.1,274.0 723.6,274.0 729.1,274.0 734.6,274.0 740.1,274.0 745.6,274.0 751.1,274.0 756.6,274.0 762.1,274.0 767.6,274.0 773.1,274.0 778.6,274.0 784.1,274.0 789.6,274.0 795.1,274.0 800.6,274.0 806.1,274.0 811.6,274.0 817.1,274.0 822.6,274.0 828.1,274.0 833.6,274.0 839.1,274.0 844.6,274.0 850.0,274.0 855.5,274.0 861.0,274.0 866.5,274.0 872.0,268.0 877.5,274.0 883.0,274.0 888.5,274.0 894.0,274.0 899.5,274.0 905.0,274.0 910.5,274.0 916.0,274.0 921.5,274.0 927.0,274.0 932.5,268.0 938.0,274.0"/><polyline fill="none" stroke="#a855f7" stroke-width="2.5" stroke-linejoin="round" stroke-linecap="round" points="42.0,286.0 47.5,286.0 53.0,286.0 58.5,286.0 64.0,286.0 69.5,286.0 75.0,286.0 80.5,286.0 86.0,286.0 91.5,286.0 97.0,286.0 102.5,286.0 108.0,286.0 113.5,286.0 119.0,286.0 124.5,286.0 130.0,286.0 135.4,286.0 140.9,286.0 146.4,286.0 151.9,286.0 157.4,286.0 162.9,286.0 168.4,286.0 173.9,286.0 179.4,286.0 184.9,286.0 190.4,286.0 195.9,286.0 201.4,286.0 206.9,286.0 212.4,286.0 217.9,286.0 223.4,286.0 228.9,286.0 234.4,286.0 239.9,286.0 245.4,286.0 250.9,286.0 256.4,286.0 261.9,286.0 267.4,286.0 272.9,286.0 278.4,286.0 283.9,286.0 289.4,286.0 294.9,286.0 300.4,286.0 305.9,286.0 311.3,286.0 316.8,286.0 322.3,286.0 327.8,286.0 333.3,286.0 338.8,286.0 344.3,286.0 349.8,286.0 355.3,286.0 360.8,286.0 366.3,286.0 371.8,286.0 377.3,286.0 382.8,286.0 388.3,286.0 393.8,286.0 399.3,286.0 404.8,286.0 410.3,286.0 415.8,286.0 421.3,286.0 426.8,280.0 432.3,286.0 437.8,286.0 443.3,286.0 448.8,286.0 454.3,286.0 459.8,286.0 465.3,286.0 470.8,286.0 476.3,286.0 481.8,286.0 487.3,286.0 492.7,286.0 498.2,286.0 503.7,286.0 509.2,286.0 514.7,286.0 520.2,286.0 525.7,286.0 531.2,286.0 536.7,286.0 542.2,286.0 547.7,286.0 553.2,286.0 558.7,286.0 564.2,286.0 569.7,286.0 575.2,286.0 580.7,286.0 586.2,286.0 591.7,286.0 597.2,286.0 602.7,286.0 608.2,286.0 613.7,286.0 619.2,286.0 624.7,286.0 630.2,286.0 635.7,286.0 641.2,286.0 646.7,286.0 652.2,286.0 657.7,286.0 663.2,286.0 668.7,286.0 674.1,286.0 679.6,286.0 685.1,286.0 690.6,286.0 696.1,286.0 701.6,286.0 707.1,286.0 712.6,286.0 718.1,286.0 723.6,286.0 729.1,286.0 734.6,286.0 740.1,286.0 745.6,286.0 751.1,286.0 756.6,286.0 762.1,286.0 767.6,286.0 773.1,286.0 778.6,286.0 784.1,286.0 789.6,286.0 795.1,286.0 800.6,286.0 806.1,286.0 811.6,286.0 817.1,286.0 822.6,286.0 828.1,286.0 833.6,286.0 839.1,286.0 844.6,286.0 850.0,286.0 855.5,286.0 861.0,286.0 866.5,286.0 872.0,286.0 877.5,286.0 883.0,286.0 888.5,286.0 894.0,286.0 899.5,286.0 905.0,280.0 910.5,286.0 916.0,286.0 921.5,286.0 927.0,286.0 932.5,286.0 938.0,286.0"/><text x="42" y="308" font-size="11" fill="#5a688a">19/06 12:43</text><text x="938" y="308" text-anchor="end" font-size="11" fill="#5a688a">29/06 14:30</text></svg>