<svg xmlns="http://www.w3.org/2000/svg" viewBox="0 0 960 320" width="960" height="320" font-family="Segoe UI, system-ui, -apple-system, Roboto, Helvetica, Arial, sans-serif" role="img" aria-label="Availability history per region"><rect x="0.5" y="0.5" width="959" height="319" rx="14" fill="#ffffff" stroke="#dce3f1"/><text x="42" y="26" font-size="14" font-weight="600" fill="#14203a">History · 233 points</text><circle cx="47" cy="40" r="5" fill="#22c55e"/><text x="57" y="44" font-size="12" fill="#5a688a">Available</text><circle cx="139.8" cy="40" r="5" fill="#f59e0b"/><text x="149.8" y="44" font-size="12" fill="#5a688a">Saturated</text><circle cx="232.60000000000002" cy="40" r="5" fill="#ef4444"/><text x="242.60000000000002" y="44" font-size="12" fill="#5a688a">Error</text><circle cx="296.6" cy="40" r="5" fill="#a855f7"/><text x="306.6" y="44" font-size="12" fill="#5a688a">Timeout</text><line x1="42" y1="286.0" x2="938" y2="286.0" stroke="#eef2f7" stroke-width="1"/><text x="35" y="289.0" text-anchor="end" font-size="11" fill="#5a688a">0</text><line x1="42" y1="227.5" x2="938" y2="227.5" stroke="#eef2f7" stroke-width="1"/><text x="35" y="230.5" text-anchor="end" font-size="11" fill="#5a688a">10</text><line x1="42" y1="169.0" x2="938" y2="169.0" stroke="#eef2f7" stroke-width="1"/><text x="35" y="172.0" text-anchor="end" font-size="11" fill="#5a688a">20</text><line x1="42" y1="110.5" x2="938" y2="110.5" stroke="#eef2f7" stroke-width="1"/><text x="35" y="113.5" text-anchor="end" font-size="11" fill="#5a688a">29</text><line x1="42" y1="52.0" x2="938" y2="52.0" stroke="#eef2f7" stroke-width="1"/><text x="35" y="55.0" text-anchor="end" font-size="11" fill="#5a688a">39</text><polyline fill="none" stroke="#22c55e" stroke-width="2.5" stroke-linejoin="round" stroke-linecap="round" points="42.0,70.0 45.9,70.0 49.7,88.0 53.6,88.0 57.4,76.0 61.3,76.0 65.2,76.0 69.0,70.0 72.9,76.0 76.8,70.0 80.6,64.0 84.5,58.0 88.3,58.0 92.2,58.0 96.1,58.0 99.9,58.0 103.8,58.0 107.7,58.0 111.5,58.0 115.4,58.0 119.2,58.0 123.1,58.0 127.0,58.0 130.8,58.0 134.7,58.0 138.6,58.0 142.4,58.0 146.3,58.0 150.1,58.0 154.0,58.0 157.9,58.0 161.7,70.0 165.6,76.0 169.4,94.0 173.3,64.0 177.2,64.0 181.0,58.0 184.9,58.0 188.8,58.0 192.6,70.0 196.5,76.0 200.3,76.0 204.2,82.0 208.1,82.0 211.9,82.0 215.8,82.0 219.7,76.0 223.5,64.0 227.4,70.0 231.2,70.0 235.1,82.0 239.0,76.0 242.8,76.0 246.7,82.0 250.6,76.0 254.4,76.0 258.3,76.0 262.1,64.0 266.0,64.0 269.9,76.0 273.7,76.0 277.6,76.0 281.4,88.0 285.3,70.0 289.2,64.0 293.0,58.0 296.9,58.0 300.8,70.0 304.6,70.0 308.5,70.0 312.3,76.0 316.2,70.0 320.1,70.0 323.9,70.0 327.8,70.0 331.7,76.0 335.5,82.0 339.4,76.0 343.2,70.0 347.1,70.0 351.0,70.0 354.8,70.0 358.7,76.0 362.6,70.0 366.4,70.0 370.3,70.0 374.1,70.0 378.0,70.0 381.9,70.0 385.7,70.0 389.6,70.0 393.4,70.0 397.3,70.0 401.2,70.0 405.0,70.0 408.9,70.0 412.8,70.0 416.6,70.0 420.5,70.0 424.3,70.0 428.2,70.0 432.1,70.0 435.9,70.0 439.8,70.0 443.7,70.0 447.5,70.0 451.4,70.0 455.2,70.0 459.1,70.0 463.0,70.0 466.8,70.0 470.7,70.0 474.6,70.0 478.4,70.0 482.3,70.0 486.1,70.0 490.0,70.0 493.9,70.0 497.7,70.0 501.6,70.0 505.4,70.0 509.3,70.0 513.2,70.0 517.0,70.0 520.9,70.0 524.8,70.0 528.6,70.0 532.5,70.0 536.3,70.0 540.2,70.0 544.1,70.0 547.9,70.0 551.8,70.0 555.7,70.0 559.5,70.0 563.4,70.0 567.2,70.0 571.1,70.0 575.0,70.0 578.8,70.0 582.7,70.0 586.6,70.0 590.4,70.0 594.3,70.0 598.1,70.0 602.0,70.0 605.9,70.0 609.7,70.0 613.6,70.0 617.4,70.0 621.3,70.0 625.2,76.0 629.0,70.0 632.9,70.0 636.8,70.0 640.6,70.0 644.5,70.0 648.3,76.0 652.2,76.0 656.1,88.0 659.9,88.0 663.8,88.0 667.7,94.0 671.5,94.0 675.4,94.0 679.2,94.0 683.1,88.0 687.0,88.0 690.8,82.0 694.7,82.0 698.6,82.0 702.4,88.0 706.3,88.0 710.1,94.0 714.0,82.0 717.9,82.0 721.7,82.0 725.6,82.0 729.4,88.0 733.3,88.0 737.2,94.0 741.0,94.0 744.9,88.0 748.8,88.0 752.6,88.0 756.5,94.0 760.3,94.0 764.2,106.0 768.1,94.0 771.9,94.0 775.8,94.0 779.7,94.0 783.5,88.0 787.4,88.0 791.2,82.0 795.1,76.0 799.0,76.0 802.8,76.0 806.7,76.0 810.6,76.0 814.4,76.0 818.3,70.0 822.1,70.0 826.0,70.0 829.9,76.0 833.7,88.0 837.6,82.0 841.4,70.0 845.3,70.0 849.2,70.0 853.0,76.0 856.9,76.0 860.8,76.0 864.6,82.0 868.5,70.0 872.3,76.0 876.2,64.0 880.1,70.0 883.9,58.0 887.8,58.0 891.7,58.0 895.5,58.0 899.4,58.0 903.2,64.0 907.1,58.0 911.0,64.0 914.8,58.0 918.7,58.0 922.6,58.0 926.4,58.0 930.3,64.0 934.1,64.0 938.0,64.0"/><polyline fill="none" stroke="#f59e0b" stroke-width="2.5" stroke-linejoin="round" stroke-linecap="round" points="42.0,274.0 45.9,274.0 49.7,274.0 53.6,280.0 57.4,268.0 61.3,268.0 65.2,268.0 69.0,274.0 72.9,274.0 76.8,274.0 80.6,280.0 84.5,286.0 88.3,286.0 92.2,286.0 96.1,286.0 99.9,286.0 103.8,286.0 107.7,286.0 111.5,286.0 115.4,286.0 119.2,286.0 123.1,286.0 127.0,286.0 130.8,286.0 134.7,286.0 138.6,286.0 142.4,286.0 146.3,286.0 150.1,286.0 154.0,286.0 157.9,286.0 161.7,274.0 165.6,280.0 169.4,280.0 173.3,280.0 177.2,280.0 181.0,286.0 184.9,286.0 188.8,286.0 192.6,274.0 196.5,268.0 200.3,268.0 204.2,262.0 208.1,262.0 211.9,262.0 215.8,262.0 219.7,268.0 223.5,280.0 227.4,280.0 231.2,274.0 235.1,262.0 239.0,268.0 242.8,268.0 246.7,262.0 250.6,268.0 254.4,268.0 258.3,268.0 262.1,280.0 266.0,280.0 269.9,268.0 273.7,268.0 277.6,268.0 281.4,262.0 285.3,274.0 289.2,280.0 293.0,286.0 296.9,286.0 300.8,274.0 304.6,274.0 308.5,274.0 312.3,274.0 316.2,274.0 320.1,274.0 323.9,274.0 327.8,274.0 331.7,280.0 335.5,274.0 339.4,280.0 343.2,286.0 347.1,286.0 351.0,286.0 354.8,286.0 358.7,280.0 362.6,286.0 366.4,286.0 370.3,286.0 374.1,286.0 378.0,286.0 381.9,286.0 385.7,286.0 389.6,286.0 393.4,286.0 397.3,286.0 401.2,286.0 405.0,286.0 408.9,286.0 412.8,286.0 416.6,286.0 420.5,286.0 424.3,286.0 428.2,286.0 432.1,286.0 435.9,286.0 439.8,286.0 443.7,286.0 447.5,286.0 451.4,286.0 455.2,286.0 459.1,286.0 463.0,286.0 466.8,286.0 470.7,286.0 474.6,286.0 478.4,286.0 482.3,286.0 486.1,286.0 490.0,286.0 493.9,286.0 497.7,286.0 501.6,286.0 505.4,286.0 509.3,286.0 513.2,286.0 517.0,286.0 520.9,286.0 524.8,286.0 528.6,286.0 532.5,286.0 536.3,286.0 540.2,286.0 544.1,286.0 547.9,286.0 551.8,286.0 555.7,286.0 559.5,286.0 563.4,286.0 567.2,286.0 571.1,286.0 575.0,286.0 578.8,286.0 582.7,286.0 586.6,286.0 590.4,286.0 594.3,286.0 598.1,286.0 602.0,286.0 605.9,286.0 609.7,286.0 613.6,286.0 617.4,286.0 621.3,286.0 625.2,286.0 629.0,286.0 632.9,286.0 636.8,286.0 640.6,286.0 644.5,286.0 648.3,286.0 652.2,280.0 656.1,268.0 659.9,268.0 663.8,268.0 667.7,268.0 671.5,262.0 675.4,262.0 679.2,262.0 683.1,268.0 687.0,268.0 690.8,274.0 694.7,274.0 698.6,274.0 702.4,268.0 706.3,268.0 710.1,268.0 714.0,274.0 717.9,274.0 721.7,274.0 725.6,274.0 729.4,268.0 733.3,268.0 737.2,262.0 741.0,262.0 744.9,268.0 748.8,268.0 752.6,268.0 756.5,262.0 760.3,262.0 764.2,274.0 768.1,262.0 771.9,262.0 775.8,262.0 779.7,262.0 783.5,268.0 787.4,268.0 791.2,274.0 795.1,280.0 799.0,280.0 802.8,280.0 806.7,280.0 810.6,280.0 814.4,280.0 818.3,286.0 822.1,286.0 826.0,286.0 829.9,280.0 833.7,274.0 837.6,274.0 841.4,280.0 845.3,274.0 849.2,274.0 853.0,268.0 856.9,268.0 860.8,268.0 864.6,268.0 868.5,280.0 872.3,274.0 876.2,280.0 880.1,280.0 883.9,286.0 887.8,286.0 891.7,286.0 895.5,286.0 899.4,286.0 903.2,286.0 907.1,286.0 911.0,286.0 914.8,286.0 918.7,286.0 922.6,286.0 926.4,286.0 930.3,280.0 934.1,280.0 938.0,280.0"/><polyline fill="none" stroke="#ef4444" stroke-width="2.5" stroke-linejoin="round" stroke-linecap="round" points="42.0,280.0 45.9,280.0 49.7,268.0 53.6,262.0 57.4,286.0 61.3,286.0 65.2,286.0 69.0,286.0 72.9,280.0 76.8,286.0 80.6,286.0 84.5,286.0 88.3,286.0 92.2,286.0 96.1,286.0 99.9,286.0 103.8,286.0 107.7,286.0 111.5,286.0 115.4,286.0 119.2,286.0 123.1,286.0 127.0,286.0 130.8,286.0 134.7,286.0 138.6,286.0 142.4,286.0 146.3,286.0 150.1,286.0 154.0,286.0 157.9,286.0 161.7,286.0 165.6,274.0 169.4,256.0 173.3,286.0 177.2,286.0 181.0,286.0 184.9,286.0 188.8,286.0 192.6,286.0 196.5,286.0 200.3,286.0 204.2,286.0 208.1,286.0 211.9,286.0 215.8,286.0 219.7,286.0 223.5,286.0 227.4,280.0 231.2,286.0 235.1,286.0 239.0,286.0 242.8,286.0 246.7,286.0 250.6,286.0 254.4,286.0 258.3,286.0 262.1,286.0 266.0,286.0 269.9,286.0 273.7,286.0 277.6,286.0 281.4,280.0 285.3,286.0 289.2,286.0 293.0,286.0 296.9,286.0 300.8,286.0 304.6,286.0 308.5,286.0 312.3,286.0 316.2,286.0 320.1,286.0 323.9,286.0 327.8,286.0 331.7,274.0 335.5,274.0 339.4,274.0 343.2,274.0 347.1,274.0 351.0,274.0 354.8,274.0 358.7,274.0 362.6,274.0 366.4,274.0 370.3,274.0 374.1,274.0 378.0,274.0 381.9,274.0 385.7,274.0 389.6,274.0 393.4,274.0 397.3,274.0 401.2,274.0 405.0,274.0 408.9,274.0 412.8,274.0 416.6,274.0 420.5,274.0 424.3,274.0 428.2,274.0 432.1,274.0 435.9,274.0 439.8,274.0 443.7,274.0 447.5,274.0 451.4,274.0 455.2,274.0 459.1,274.0 463.0,274.0 466.8,274.0 470.7,274.0 474.6,274.0 478.4,274.0 482.3,274.0 486.1,274.0 490.0,274.0 493.9,274.0 497.7,274.0 501.6,274.0 505.4,274.0 509.3,274.0 513.2,274.0 517.0,274.0 520.9,274.0 524.8,274.0 528.6,274.0 532.5,274.0 536.3,274.0 540.2,274.0 544.1,274.0 547.9,274.0 551.8,274.0 555.7,274.0 559.5,274.0 563.4,274.0 567.2,274.0 571.1,274.0 575.0,274.0 578.8,274.0 582.7,274.0 586.6,274.0 590.4,274.0 594.3,274.0 598.1,274.0 602.0,274.0 605.9,274.0 609.7,274.0 613.6,274.0 617.4,274.0 621.3,274.0 625.2,268.0 629.0,274.0 632.9,274.0 636.8,274.0 640.6,274.0 644.5,274.0 648.3,274.0 652.2,274.0 656.1,274.0 659.9,274.0 663.8,274.0 667.7,268.0 671.5,274.0 675.4,274.0 679.2,274.0 683.1,274.0 687.0,274.0 690.8,274.0 694.7,274.0 698.6,274.0 702.4,274.0 706.3,274.0 710.1,268.0 714.0,274.0 717.9,274.0 721.7,274.0 725.6,274.0 729.4,274.0 733.3,274.0 737.2,274.0 741.0,274.0 744.9,274.0 748.8,274.0 752.6,274.0 756.5,274.0 760.3,274.0 764.2,250.0 768.1,274.0 771.9,274.0 775.8,274.0 779.7,274.0 783.5,274.0 787.4,274.0 791.2,274.0 795.1,274.0 799.0,274.0 802.8,274.0 806.7,274.0 810.6,274.0 814.4,274.0 818.3,274.0 822.1,274.0 826.0,274.0 829.9,274.0 833.7,268.0 837.6,274.0 841.4,280.0 845.3,286.0 849.2,286.0 853.0,286.0 856.9,286.0 860.8,286.0 864.6,280.0 868.5,280.0 872.3,286.0 876.2,286.0 880.1,280.0 883.9,286.0 887.8,286.0 891.7,286.0 895.5,286.0 899.4,286.0 903.2,280.0 907.1,286.0 911.0,286.0 914.8,286.0 918.7,286.0 922.6,286.0 926.4,286.0 930.3,286.0 934.1,286.0 938.0,286.0"/><polyline fill="none" stroke="#a855f7" stroke-width="2.5" stroke-linejoin="round" stroke-linecap="round" points="42.0,286.0 45.9,286.0 49.7,286.0 53.6,286.0 57.4,286.0 61.3,286.0 65.2,286.0 69.0,286.0 72.9,286.0 76.8,286.0 80.6,286.0 84.5,286.0 88.3,286.0 92.2,286.0 96.1,286.0 99.9,286.0 103.8,286.0 107.7,286.0 111.5,286.0 115.4,286.0 119.2,286.0 123.1,286.0 127.0,286.0 130.8,286.0 134.7,286.0 138.6,286.0 142.4,286.0 146.3,286.0 150.1,286.0 154.0,286.0 157.9,286.0 161.7,286.0 165.6,286.0 169.4,286.0 173.3,286.0 177.2,286.0 181.0,286.0 184.9,286.0 188.8,286.0 192.6,286.0 196.5,286.0 200.3,286.0 204.2,286.0 208.1,286.0 211.9,286.0 215.8,286.0 219.7,286.0 223.5,286.0 227.4,286.0 231.2,286.0 235.1,286.0 239.0,286.0 242.8,286.0 246.7,286.0 250.6,286.0 254.4,286.0 258.3,286.0 262.1,286.0 266.0,286.0 269.9,286.0 273.7,286.0 277.6,286.0 281.4,286.0 285.3,286.0 289.2,286.0 293.0,286.0 296.9,286.0 300.8,286.0 304.6,286.0 308.5,286.0 312.3,280.0 316.2,286.0 320.1,286.0 323.9,286.0 327.8,286.0 331.7,286.0 335.5,286.0 339.4,286.0 343.2,286.0 347.1,286.0 351.0,286.0 354.8,286.0 358.7,286.0 362.6,286.0 366.4,286.0 370.3,286.0 374.1,286.0 378.0,286.0 381.9,286.0 385.7,286.0 389.6,286.0 393.4,286.0 397.3,286.0 401.2,286.0 405.0,286.0 408.9,286.0 412.8,286.0 416.6,286.0 420.5,286.0 424.3,286.0 428.2,286.0 432.1,286.0 435.9,286.0 439.8,286.0 443.7,286.0 447.5,286.0 451.4,286.0 455.2,286.0 459.1,286.0 463.0,286.0 466.8,286.0 470.7,286.0 474.6,286.0 478.4,286.0 482.3,286.0 486.1,286.0 490.0,286.0 493.9,286.0 497.7,286.0 501.6,286.0 505.4,286.0 509.3,286.0 513.2,286.0 517.0,286.0 520.9,286.0 524.8,286.0 528.6,286.0 532.5,286.0 536.3,286.0 540.2,286.0 544.1,286.0 547.9,286.0 551.8,286.0 555.7,286.0 559.5,286.0 563.4,286.0 567.2,286.0 571.1,286.0 575.0,286.0 578.8,286.0 582.7,286.0 586.6,286.0 590.4,286.0 594.3,286.0 598.1,286.0 602.0,286.0 605.9,286.0 609.7,286.0 613.6,286.0 617.4,286.0 621.3,286.0 625.2,286.0 629.0,286.0 632.9,286.0 636.8,286.0 640.6,286.0 644.5,286.0 648.3,280.0 652.2,286.0 656.1,286.0 659.9,286.0 663.8,286.0 667.7,286.0 671.5,286.0 675.4,286.0 679.2,286.0 683.1,286.0 687.0,286.0 690.8,286.0 694.7,286.0 698.6,286.0 702.4,286.0 706.3,286.0 710.1,286.0 714.0,286.0 717.9,286.0 721.7,286.0 725.6,286.0 729.4,286.0 733.3,286.0 737.2,286.0 741.0,286.0 744.9,286.0 748.8,286.0 752.6,286.0 756.5,286.0 760.3,286.0 764.2,286.0 768.1,286.0 771.9,286.0 775.8,286.0 779.7,286.0 783.5,286.0 787.4,286.0 791.2,286.0 795.1,286.0 799.0,286.0 802.8,286.0 806.7,286.0 810.6,286.0 814.4,286.0 818.3,286.0 822.1,286.0 826.0,286.0 829.9,286.0 833.7,286.0 837.6,286.0 841.4,286.0 845.3,286.0 849.2,286.0 853.0,286.0 856.9,286.0 860.8,286.0 864.6,286.0 868.5,286.0 872.3,280.0 876.2,286.0 880.1,286.0 883.9,286.0 887.8,286.0 891.7,286.0 895.5,286.0 899.4,286.0 903.2,286.0 907.1,286.0 911.0,280.0 914.8,286.0 918.7,286.0 922.6,286.0 926.4,286.0 930.3,286.0 934.1,286.0 938.0,286.0"/><text x="42" y="308" font-size="11" fill="#5a688a">19/06 12:43</text><text x="938" y="308" text-anchor="end" font-size="11" fill="#5a688a">02/07 11:29</text></svg>