<svg xmlns="http://www.w3.org/2000/svg" viewBox="0 0 960 320" width="960" height="320" font-family="Segoe UI, system-ui, -apple-system, Roboto, Helvetica, Arial, sans-serif" role="img" aria-label="Availability history per region"><rect x="0.5" y="0.5" width="959" height="319" rx="14" fill="#ffffff" stroke="#dce3f1"/><text x="42" y="26" font-size="14" font-weight="600" fill="#14203a">History · 100 points</text><circle cx="47" cy="40" r="5" fill="#22c55e"/><text x="57" y="44" font-size="12" fill="#5a688a">Available</text><circle cx="139.8" cy="40" r="5" fill="#f59e0b"/><text x="149.8" y="44" font-size="12" fill="#5a688a">Saturated</text><circle cx="232.60000000000002" cy="40" r="5" fill="#ef4444"/><text x="242.60000000000002" y="44" font-size="12" fill="#5a688a">Error</text><circle cx="296.6" cy="40" r="5" fill="#a855f7"/><text x="306.6" y="44" font-size="12" fill="#5a688a">Timeout</text><line x1="42" y1="286.0" x2="938" y2="286.0" stroke="#eef2f7" stroke-width="1"/><text x="35" y="289.0" text-anchor="end" font-size="11" fill="#5a688a">0</text><line x1="42" y1="227.5" x2="938" y2="227.5" stroke="#eef2f7" stroke-width="1"/><text x="35" y="230.5" text-anchor="end" font-size="11" fill="#5a688a">10</text><line x1="42" y1="169.0" x2="938" y2="169.0" stroke="#eef2f7" stroke-width="1"/><text x="35" y="172.0" text-anchor="end" font-size="11" fill="#5a688a">19</text><line x1="42" y1="110.5" x2="938" y2="110.5" stroke="#eef2f7" stroke-width="1"/><text x="35" y="113.5" text-anchor="end" font-size="11" fill="#5a688a">28</text><line x1="42" y1="52.0" x2="938" y2="52.0" stroke="#eef2f7" stroke-width="1"/><text x="35" y="55.0" text-anchor="end" font-size="11" fill="#5a688a">38</text><polyline fill="none" stroke="#22c55e" stroke-width="2.5" stroke-linejoin="round" stroke-linecap="round" points="42.0,64.3 51.1,224.4 60.1,82.8 69.2,88.9 78.2,82.8 87.3,76.6 96.3,76.6 105.4,76.6 114.4,76.6 123.5,76.6 132.5,76.6 141.6,76.6 150.6,76.6 159.7,76.6 168.7,76.6 177.8,70.5 186.8,70.5 195.9,82.8 204.9,82.8 214.0,82.8 223.0,88.9 232.1,88.9 241.1,88.9 250.2,88.9 259.2,88.9 268.3,88.9 277.3,88.9 286.4,88.9 295.4,88.9 304.5,82.8 313.5,82.8 322.6,82.8 331.6,82.8 340.7,76.6 349.7,76.6 358.8,76.6 367.8,76.6 376.9,76.6 385.9,82.8 395.0,82.8 404.0,82.8 413.1,82.8 422.1,76.6 431.2,76.6 440.2,76.6 449.3,76.6 458.3,76.6 467.4,76.6 476.4,76.6 485.5,82.8 494.5,82.8 503.6,82.8 512.6,82.8 521.7,76.6 530.7,76.6 539.8,76.6 548.8,76.6 557.9,76.6 566.9,76.6 576.0,76.6 585.0,76.6 594.1,82.8 603.1,76.6 612.2,76.6 621.2,76.6 630.3,76.6 639.3,76.6 648.4,82.8 657.4,76.6 666.5,76.6 675.5,76.6 684.6,76.6 693.6,76.6 702.7,76.6 711.7,76.6 720.8,76.6 729.8,76.6 738.9,70.5 747.9,70.5 757.0,70.5 766.0,70.5 775.1,76.6 784.1,70.5 793.2,76.6 802.2,76.6 811.3,76.6 820.3,76.6 829.4,76.6 838.4,76.6 847.5,82.8 856.5,88.9 865.6,88.9 874.6,88.9 883.7,88.9 892.7,88.9 901.8,88.9 910.8,88.9 919.9,95.1 928.9,88.9 938.0,88.9"/><polyline fill="none" stroke="#f59e0b" stroke-width="2.5" stroke-linejoin="round" stroke-linecap="round" points="42.0,273.7 51.1,267.5 60.1,255.2 69.2,249.1 78.2,255.2 87.3,261.4 96.3,261.4 105.4,261.4 114.4,261.4 123.5,261.4 132.5,261.4 141.6,261.4 150.6,261.4 159.7,261.4 168.7,261.4 177.8,267.5 186.8,267.5 195.9,261.4 204.9,255.2 214.0,255.2 223.0,249.1 232.1,249.1 241.1,249.1 250.2,249.1 259.2,249.1 268.3,249.1 277.3,249.1 286.4,249.1 295.4,249.1 304.5,255.2 313.5,255.2 322.6,255.2 331.6,255.2 340.7,261.4 349.7,261.4 358.8,261.4 367.8,261.4 376.9,261.4 385.9,255.2 395.0,255.2 404.0,255.2 413.1,255.2 422.1,261.4 431.2,261.4 440.2,261.4 449.3,261.4 458.3,261.4 467.4,261.4 476.4,261.4 485.5,255.2 494.5,255.2 503.6,255.2 512.6,261.4 521.7,261.4 530.7,261.4 539.8,261.4 548.8,261.4 557.9,261.4 566.9,261.4 576.0,261.4 585.0,261.4 594.1,255.2 603.1,261.4 612.2,261.4 621.2,261.4 630.3,261.4 639.3,261.4 648.4,261.4 657.4,261.4 666.5,261.4 675.5,261.4 684.6,261.4 693.6,261.4 702.7,261.4 711.7,261.4 720.8,261.4 729.8,261.4 738.9,267.5 747.9,267.5 757.0,267.5 766.0,267.5 775.1,267.5 784.1,267.5 793.2,261.4 802.2,261.4 811.3,261.4 820.3,261.4 829.4,261.4 838.4,261.4 847.5,255.2 856.5,249.1 865.6,249.1 874.6,255.2 883.7,249.1 892.7,249.1 901.8,249.1 910.8,249.1 919.9,249.1 928.9,249.1 938.0,255.2"/><polyline fill="none" stroke="#ef4444" stroke-width="2.5" stroke-linejoin="round" stroke-linecap="round" points="42.0,286.0 51.1,132.1 60.1,286.0 69.2,286.0 78.2,286.0 87.3,286.0 96.3,286.0 105.4,286.0 114.4,286.0 123.5,286.0 132.5,286.0 141.6,286.0 150.6,286.0 159.7,286.0 168.7,286.0 177.8,286.0 186.8,286.0 195.9,279.8 204.9,286.0 214.0,286.0 223.0,286.0 232.1,286.0 241.1,286.0 250.2,286.0 259.2,286.0 268.3,286.0 277.3,286.0 286.4,286.0 295.4,286.0 304.5,286.0 313.5,286.0 322.6,286.0 331.6,286.0 340.7,286.0 349.7,286.0 358.8,286.0 367.8,286.0 376.9,286.0 385.9,286.0 395.0,286.0 404.0,286.0 413.1,286.0 422.1,286.0 431.2,286.0 440.2,286.0 449.3,286.0 458.3,286.0 467.4,286.0 476.4,286.0 485.5,286.0 494.5,286.0 503.6,286.0 512.6,286.0 521.7,286.0 530.7,286.0 539.8,286.0 548.8,286.0 557.9,286.0 566.9,286.0 576.0,286.0 585.0,286.0 594.1,286.0 603.1,286.0 612.2,286.0 621.2,286.0 630.3,286.0 639.3,286.0 648.4,279.8 657.4,286.0 666.5,286.0 675.5,286.0 684.6,286.0 693.6,286.0 702.7,286.0 711.7,286.0 720.8,286.0 729.8,286.0 738.9,286.0 747.9,286.0 757.0,286.0 766.0,286.0 775.1,279.8 784.1,286.0 793.2,286.0 802.2,286.0 811.3,286.0 820.3,286.0 829.4,286.0 838.4,286.0 847.5,286.0 856.5,286.0 865.6,286.0 874.6,279.8 883.7,286.0 892.7,286.0 901.8,286.0 910.8,286.0 919.9,279.8 928.9,286.0 938.0,286.0"/><polyline fill="none" stroke="#a855f7" stroke-width="2.5" stroke-linejoin="round" stroke-linecap="round" points="42.0,286.0 51.1,286.0 60.1,286.0 69.2,286.0 78.2,286.0 87.3,286.0 96.3,286.0 105.4,286.0 114.4,286.0 123.5,286.0 132.5,286.0 141.6,286.0 150.6,286.0 159.7,286.0 168.7,286.0 177.8,286.0 186.8,286.0 195.9,286.0 204.9,286.0 214.0,286.0 223.0,286.0 232.1,286.0 241.1,286.0 250.2,286.0 259.2,286.0 268.3,286.0 277.3,286.0 286.4,286.0 295.4,286.0 304.5,286.0 313.5,286.0 322.6,286.0 331.6,286.0 340.7,286.0 349.7,286.0 358.8,286.0 367.8,286.0 376.9,286.0 385.9,286.0 395.0,286.0 404.0,286.0 413.1,286.0 422.1,286.0 431.2,286.0 440.2,286.0 449.3,286.0 458.3,286.0 467.4,286.0 476.4,286.0 485.5,286.0 494.5,286.0 503.6,286.0 512.6,279.8 521.7,286.0 530.7,286.0 539.8,286.0 548.8,286.0 557.9,286.0 566.9,286.0 576.0,286.0 585.0,286.0 594.1,286.0 603.1,286.0 612.2,286.0 621.2,286.0 630.3,286.0 639.3,286.0 648.4,286.0 657.4,286.0 666.5,286.0 675.5,286.0 684.6,286.0 693.6,286.0 702.7,286.0 711.7,286.0 720.8,286.0 729.8,286.0 738.9,286.0 747.9,286.0 757.0,286.0 766.0,286.0 775.1,286.0 784.1,286.0 793.2,286.0 802.2,286.0 811.3,286.0 820.3,286.0 829.4,286.0 838.4,286.0 847.5,286.0 856.5,286.0 865.6,286.0 874.6,286.0 883.7,286.0 892.7,286.0 901.8,286.0 910.8,286.0 919.9,286.0 928.9,286.0 938.0,279.8"/><text x="42" y="308" font-size="11" fill="#5a688a">19/06 15:39</text><text x="938" y="308" text-anchor="end" font-size="11" fill="#5a688a">20/07 18:35</text></svg>