<svg xmlns="http://www.w3.org/2000/svg" viewBox="0 0 960 320" width="960" height="320" font-family="Segoe UI, system-ui, -apple-system, Roboto, Helvetica, Arial, sans-serif" role="img" aria-label="Availability history per region"><rect x="0.5" y="0.5" width="959" height="319" rx="14" fill="#ffffff" stroke="#dce3f1"/><text x="42" y="26" font-size="14" font-weight="600" fill="#14203a">History · 146 points</text><circle cx="47" cy="40" r="5" fill="#22c55e"/><text x="57" y="44" font-size="12" fill="#5a688a">Available</text><circle cx="139.8" cy="40" r="5" fill="#f59e0b"/><text x="149.8" y="44" font-size="12" fill="#5a688a">Saturated</text><circle cx="232.60000000000002" cy="40" r="5" fill="#ef4444"/><text x="242.60000000000002" y="44" font-size="12" fill="#5a688a">Error</text><circle cx="296.6" cy="40" r="5" fill="#a855f7"/><text x="306.6" y="44" font-size="12" fill="#5a688a">Timeout</text><line x1="42" y1="286.0" x2="938" y2="286.0" stroke="#eef2f7" stroke-width="1"/><text x="35" y="289.0" text-anchor="end" font-size="11" fill="#5a688a">0</text><line x1="42" y1="227.5" x2="938" y2="227.5" stroke="#eef2f7" stroke-width="1"/><text x="35" y="230.5" text-anchor="end" font-size="11" fill="#5a688a">10</text><line x1="42" y1="169.0" x2="938" y2="169.0" stroke="#eef2f7" stroke-width="1"/><text x="35" y="172.0" text-anchor="end" font-size="11" fill="#5a688a">20</text><line x1="42" y1="110.5" x2="938" y2="110.5" stroke="#eef2f7" stroke-width="1"/><text x="35" y="113.5" text-anchor="end" font-size="11" fill="#5a688a">29</text><line x1="42" y1="52.0" x2="938" y2="52.0" stroke="#eef2f7" stroke-width="1"/><text x="35" y="55.0" text-anchor="end" font-size="11" fill="#5a688a">39</text><polyline fill="none" stroke="#22c55e" stroke-width="2.5" stroke-linejoin="round" stroke-linecap="round" points="42.0,70.0 48.2,70.0 54.4,88.0 60.5,88.0 66.7,76.0 72.9,76.0 79.1,76.0 85.3,70.0 91.4,76.0 97.6,70.0 103.8,64.0 110.0,58.0 116.2,58.0 122.3,58.0 128.5,58.0 134.7,58.0 140.9,58.0 147.0,58.0 153.2,58.0 159.4,58.0 165.6,58.0 171.8,58.0 177.9,58.0 184.1,58.0 190.3,58.0 196.5,58.0 202.7,58.0 208.8,58.0 215.0,58.0 221.2,58.0 227.4,58.0 233.6,70.0 239.7,76.0 245.9,94.0 252.1,64.0 258.3,64.0 264.5,58.0 270.6,58.0 276.8,58.0 283.0,70.0 289.2,76.0 295.4,76.0 301.5,82.0 307.7,82.0 313.9,82.0 320.1,82.0 326.2,76.0 332.4,64.0 338.6,70.0 344.8,70.0 351.0,82.0 357.1,76.0 363.3,76.0 369.5,82.0 375.7,76.0 381.9,76.0 388.0,76.0 394.2,64.0 400.4,64.0 406.6,76.0 412.8,76.0 418.9,76.0 425.1,88.0 431.3,70.0 437.5,64.0 443.7,58.0 449.8,58.0 456.0,70.0 462.2,70.0 468.4,70.0 474.6,76.0 480.7,70.0 486.9,70.0 493.1,70.0 499.3,70.0 505.4,76.0 511.6,82.0 517.8,76.0 524.0,70.0 530.2,70.0 536.3,70.0 542.5,70.0 548.7,76.0 554.9,70.0 561.1,70.0 567.2,70.0 573.4,70.0 579.6,70.0 585.8,70.0 592.0,70.0 598.1,70.0 604.3,70.0 610.5,70.0 616.7,70.0 622.9,70.0 629.0,70.0 635.2,70.0 641.4,70.0 647.6,70.0 653.8,70.0 659.9,70.0 666.1,70.0 672.3,70.0 678.5,70.0 684.6,70.0 690.8,70.0 697.0,70.0 703.2,70.0 709.4,70.0 715.5,70.0 721.7,70.0 727.9,70.0 734.1,70.0 740.3,70.0 746.4,70.0 752.6,70.0 758.8,70.0 765.0,70.0 771.2,70.0 777.3,70.0 783.5,70.0 789.7,70.0 795.9,70.0 802.1,70.0 808.2,70.0 814.4,70.0 820.6,70.0 826.8,70.0 833.0,70.0 839.1,70.0 845.3,70.0 851.5,70.0 857.7,70.0 863.8,70.0 870.0,70.0 876.2,70.0 882.4,70.0 888.6,70.0 894.7,70.0 900.9,70.0 907.1,70.0 913.3,70.0 919.5,70.0 925.6,70.0 931.8,70.0 938.0,70.0"/><polyline fill="none" stroke="#f59e0b" stroke-width="2.5" stroke-linejoin="round" stroke-linecap="round" points="42.0,274.0 48.2,274.0 54.4,274.0 60.5,280.0 66.7,268.0 72.9,268.0 79.1,268.0 85.3,274.0 91.4,274.0 97.6,274.0 103.8,280.0 110.0,286.0 116.2,286.0 122.3,286.0 128.5,286.0 134.7,286.0 140.9,286.0 147.0,286.0 153.2,286.0 159.4,286.0 165.6,286.0 171.8,286.0 177.9,286.0 184.1,286.0 190.3,286.0 196.5,286.0 202.7,286.0 208.8,286.0 215.0,286.0 221.2,286.0 227.4,286.0 233.6,274.0 239.7,280.0 245.9,280.0 252.1,280.0 258.3,280.0 264.5,286.0 270.6,286.0 276.8,286.0 283.0,274.0 289.2,268.0 295.4,268.0 301.5,262.0 307.7,262.0 313.9,262.0 320.1,262.0 326.2,268.0 332.4,280.0 338.6,280.0 344.8,274.0 351.0,262.0 357.1,268.0 363.3,268.0 369.5,262.0 375.7,268.0 381.9,268.0 388.0,268.0 394.2,280.0 400.4,280.0 406.6,268.0 412.8,268.0 418.9,268.0 425.1,262.0 431.3,274.0 437.5,280.0 443.7,286.0 449.8,286.0 456.0,274.0 462.2,274.0 468.4,274.0 474.6,274.0 480.7,274.0 486.9,274.0 493.1,274.0 499.3,274.0 505.4,280.0 511.6,274.0 517.8,280.0 524.0,286.0 530.2,286.0 536.3,286.0 542.5,286.0 548.7,280.0 554.9,286.0 561.1,286.0 567.2,286.0 573.4,286.0 579.6,286.0 585.8,286.0 592.0,286.0 598.1,286.0 604.3,286.0 610.5,286.0 616.7,286.0 622.9,286.0 629.0,286.0 635.2,286.0 641.4,286.0 647.6,286.0 653.8,286.0 659.9,286.0 666.1,286.0 672.3,286.0 678.5,286.0 684.6,286.0 690.8,286.0 697.0,286.0 703.2,286.0 709.4,286.0 715.5,286.0 721.7,286.0 727.9,286.0 734.1,286.0 740.3,286.0 746.4,286.0 752.6,286.0 758.8,286.0 765.0,286.0 771.2,286.0 777.3,286.0 783.5,286.0 789.7,286.0 795.9,286.0 802.1,286.0 808.2,286.0 814.4,286.0 820.6,286.0 826.8,286.0 833.0,286.0 839.1,286.0 845.3,286.0 851.5,286.0 857.7,286.0 863.8,286.0 870.0,286.0 876.2,286.0 882.4,286.0 888.6,286.0 894.7,286.0 900.9,286.0 907.1,286.0 913.3,286.0 919.5,286.0 925.6,286.0 931.8,286.0 938.0,286.0"/><polyline fill="none" stroke="#ef4444" stroke-width="2.5" stroke-linejoin="round" stroke-linecap="round" points="42.0,280.0 48.2,280.0 54.4,268.0 60.5,262.0 66.7,286.0 72.9,286.0 79.1,286.0 85.3,286.0 91.4,280.0 97.6,286.0 103.8,286.0 110.0,286.0 116.2,286.0 122.3,286.0 128.5,286.0 134.7,286.0 140.9,286.0 147.0,286.0 153.2,286.0 159.4,286.0 165.6,286.0 171.8,286.0 177.9,286.0 184.1,286.0 190.3,286.0 196.5,286.0 202.7,286.0 208.8,286.0 215.0,286.0 221.2,286.0 227.4,286.0 233.6,286.0 239.7,274.0 245.9,256.0 252.1,286.0 258.3,286.0 264.5,286.0 270.6,286.0 276.8,286.0 283.0,286.0 289.2,286.0 295.4,286.0 301.5,286.0 307.7,286.0 313.9,286.0 320.1,286.0 326.2,286.0 332.4,286.0 338.6,280.0 344.8,286.0 351.0,286.0 357.1,286.0 363.3,286.0 369.5,286.0 375.7,286.0 381.9,286.0 388.0,286.0 394.2,286.0 400.4,286.0 406.6,286.0 412.8,286.0 418.9,286.0 425.1,280.0 431.3,286.0 437.5,286.0 443.7,286.0 449.8,286.0 456.0,286.0 462.2,286.0 468.4,286.0 474.6,286.0 480.7,286.0 486.9,286.0 493.1,286.0 499.3,286.0 505.4,274.0 511.6,274.0 517.8,274.0 524.0,274.0 530.2,274.0 536.3,274.0 542.5,274.0 548.7,274.0 554.9,274.0 561.1,274.0 567.2,274.0 573.4,274.0 579.6,274.0 585.8,274.0 592.0,274.0 598.1,274.0 604.3,274.0 610.5,274.0 616.7,274.0 622.9,274.0 629.0,274.0 635.2,274.0 641.4,274.0 647.6,274.0 653.8,274.0 659.9,274.0 666.1,274.0 672.3,274.0 678.5,274.0 684.6,274.0 690.8,274.0 697.0,274.0 703.2,274.0 709.4,274.0 715.5,274.0 721.7,274.0 727.9,274.0 734.1,274.0 740.3,274.0 746.4,274.0 752.6,274.0 758.8,274.0 765.0,274.0 771.2,274.0 777.3,274.0 783.5,274.0 789.7,274.0 795.9,274.0 802.1,274.0 808.2,274.0 814.4,274.0 820.6,274.0 826.8,274.0 833.0,274.0 839.1,274.0 845.3,274.0 851.5,274.0 857.7,274.0 863.8,274.0 870.0,274.0 876.2,274.0 882.4,274.0 888.6,274.0 894.7,274.0 900.9,274.0 907.1,274.0 913.3,274.0 919.5,274.0 925.6,274.0 931.8,274.0 938.0,274.0"/><polyline fill="none" stroke="#a855f7" stroke-width="2.5" stroke-linejoin="round" stroke-linecap="round" points="42.0,286.0 48.2,286.0 54.4,286.0 60.5,286.0 66.7,286.0 72.9,286.0 79.1,286.0 85.3,286.0 91.4,286.0 97.6,286.0 103.8,286.0 110.0,286.0 116.2,286.0 122.3,286.0 128.5,286.0 134.7,286.0 140.9,286.0 147.0,286.0 153.2,286.0 159.4,286.0 165.6,286.0 171.8,286.0 177.9,286.0 184.1,286.0 190.3,286.0 196.5,286.0 202.7,286.0 208.8,286.0 215.0,286.0 221.2,286.0 227.4,286.0 233.6,286.0 239.7,286.0 245.9,286.0 252.1,286.0 258.3,286.0 264.5,286.0 270.6,286.0 276.8,286.0 283.0,286.0 289.2,286.0 295.4,286.0 301.5,286.0 307.7,286.0 313.9,286.0 320.1,286.0 326.2,286.0 332.4,286.0 338.6,286.0 344.8,286.0 351.0,286.0 357.1,286.0 363.3,286.0 369.5,286.0 375.7,286.0 381.9,286.0 388.0,286.0 394.2,286.0 400.4,286.0 406.6,286.0 412.8,286.0 418.9,286.0 425.1,286.0 431.3,286.0 437.5,286.0 443.7,286.0 449.8,286.0 456.0,286.0 462.2,286.0 468.4,286.0 474.6,280.0 480.7,286.0 486.9,286.0 493.1,286.0 499.3,286.0 505.4,286.0 511.6,286.0 517.8,286.0 524.0,286.0 530.2,286.0 536.3,286.0 542.5,286.0 548.7,286.0 554.9,286.0 561.1,286.0 567.2,286.0 573.4,286.0 579.6,286.0 585.8,286.0 592.0,286.0 598.1,286.0 604.3,286.0 610.5,286.0 616.7,286.0 622.9,286.0 629.0,286.0 635.2,286.0 641.4,286.0 647.6,286.0 653.8,286.0 659.9,286.0 666.1,286.0 672.3,286.0 678.5,286.0 684.6,286.0 690.8,286.0 697.0,286.0 703.2,286.0 709.4,286.0 715.5,286.0 721.7,286.0 727.9,286.0 734.1,286.0 740.3,286.0 746.4,286.0 752.6,286.0 758.8,286.0 765.0,286.0 771.2,286.0 777.3,286.0 783.5,286.0 789.7,286.0 795.9,286.0 802.1,286.0 808.2,286.0 814.4,286.0 820.6,286.0 826.8,286.0 833.0,286.0 839.1,286.0 845.3,286.0 851.5,286.0 857.7,286.0 863.8,286.0 870.0,286.0 876.2,286.0 882.4,286.0 888.6,286.0 894.7,286.0 900.9,286.0 907.1,286.0 913.3,286.0 919.5,286.0 925.6,286.0 931.8,286.0 938.0,286.0"/><text x="42" y="308" font-size="11" fill="#5a688a">19/06 12:43</text><text x="938" y="308" text-anchor="end" font-size="11" fill="#5a688a">28/06 22:30</text></svg>