<svg xmlns="http://www.w3.org/2000/svg" viewBox="0 0 960 320" width="960" height="320" font-family="Segoe UI, system-ui, -apple-system, Roboto, Helvetica, Arial, sans-serif" role="img" aria-label="Availability history per region"><rect x="0.5" y="0.5" width="959" height="319" rx="14" fill="#ffffff" stroke="#dce3f1"/><text x="42" y="26" font-size="14" font-weight="600" fill="#14203a">History · 324 points</text><circle cx="47" cy="40" r="5" fill="#22c55e"/><text x="57" y="44" font-size="12" fill="#5a688a">Available</text><circle cx="139.8" cy="40" r="5" fill="#f59e0b"/><text x="149.8" y="44" font-size="12" fill="#5a688a">Saturated</text><circle cx="232.60000000000002" cy="40" r="5" fill="#ef4444"/><text x="242.60000000000002" y="44" font-size="12" fill="#5a688a">Error</text><circle cx="296.6" cy="40" r="5" fill="#a855f7"/><text x="306.6" y="44" font-size="12" fill="#5a688a">Timeout</text><line x1="42" y1="286.0" x2="938" y2="286.0" stroke="#eef2f7" stroke-width="1"/><text x="35" y="289.0" text-anchor="end" font-size="11" fill="#5a688a">0</text><line x1="42" y1="227.5" x2="938" y2="227.5" stroke="#eef2f7" stroke-width="1"/><text x="35" y="230.5" text-anchor="end" font-size="11" fill="#5a688a">10</text><line x1="42" y1="169.0" x2="938" y2="169.0" stroke="#eef2f7" stroke-width="1"/><text x="35" y="172.0" text-anchor="end" font-size="11" fill="#5a688a">20</text><line x1="42" y1="110.5" x2="938" y2="110.5" stroke="#eef2f7" stroke-width="1"/><text x="35" y="113.5" text-anchor="end" font-size="11" fill="#5a688a">29</text><line x1="42" y1="52.0" x2="938" y2="52.0" stroke="#eef2f7" stroke-width="1"/><text x="35" y="55.0" text-anchor="end" font-size="11" fill="#5a688a">39</text><polyline fill="none" stroke="#22c55e" stroke-width="2.5" stroke-linejoin="round" stroke-linecap="round" points="42.0,70.0 44.8,70.0 47.5,88.0 50.3,88.0 53.1,76.0 55.9,76.0 58.6,76.0 61.4,70.0 64.2,76.0 67.0,70.0 69.7,64.0 72.5,58.0 75.3,58.0 78.1,58.0 80.8,58.0 83.6,58.0 86.4,58.0 89.2,58.0 91.9,58.0 94.7,58.0 97.5,58.0 100.3,58.0 103.0,58.0 105.8,58.0 108.6,58.0 111.3,58.0 114.1,58.0 116.9,58.0 119.7,58.0 122.4,58.0 125.2,58.0 128.0,70.0 130.8,76.0 133.5,94.0 136.3,64.0 139.1,64.0 141.9,58.0 144.6,58.0 147.4,58.0 150.2,70.0 153.0,76.0 155.7,76.0 158.5,82.0 161.3,82.0 164.1,82.0 166.8,82.0 169.6,76.0 172.4,64.0 175.2,70.0 177.9,70.0 180.7,82.0 183.5,76.0 186.2,76.0 189.0,82.0 191.8,76.0 194.6,76.0 197.3,76.0 200.1,64.0 202.9,64.0 205.7,76.0 208.4,76.0 211.2,76.0 214.0,88.0 216.8,70.0 219.5,64.0 222.3,58.0 225.1,58.0 227.9,70.0 230.6,70.0 233.4,70.0 236.2,76.0 239.0,70.0 241.7,70.0 244.5,70.0 247.3,70.0 250.0,76.0 252.8,82.0 255.6,76.0 258.4,70.0 261.1,70.0 263.9,70.0 266.7,70.0 269.5,76.0 272.2,70.0 275.0,70.0 277.8,70.0 280.6,70.0 283.3,70.0 286.1,70.0 288.9,70.0 291.7,70.0 294.4,70.0 297.2,70.0 300.0,70.0 302.8,70.0 305.5,70.0 308.3,70.0 311.1,70.0 313.9,70.0 316.6,70.0 319.4,70.0 322.2,70.0 324.9,70.0 327.7,70.0 330.5,70.0 333.3,70.0 336.0,70.0 338.8,70.0 341.6,70.0 344.4,70.0 347.1,70.0 349.9,70.0 352.7,70.0 355.5,70.0 358.2,70.0 361.0,70.0 363.8,70.0 366.6,70.0 369.3,70.0 372.1,70.0 374.9,70.0 377.7,70.0 380.4,70.0 383.2,70.0 386.0,70.0 388.7,70.0 391.5,70.0 394.3,70.0 397.1,70.0 399.8,70.0 402.6,70.0 405.4,70.0 408.2,70.0 410.9,70.0 413.7,70.0 416.5,70.0 419.3,70.0 422.0,70.0 424.8,70.0 427.6,70.0 430.4,70.0 433.1,70.0 435.9,70.0 438.7,70.0 441.5,70.0 444.2,70.0 447.0,70.0 449.8,70.0 452.6,70.0 455.3,70.0 458.1,70.0 460.9,76.0 463.6,70.0 466.4,70.0 469.2,70.0 472.0,70.0 474.7,70.0 477.5,76.0 480.3,76.0 483.1,88.0 485.8,88.0 488.6,88.0 491.4,94.0 494.2,94.0 496.9,94.0 499.7,94.0 502.5,88.0 505.3,88.0 508.0,82.0 510.8,82.0 513.6,82.0 516.4,88.0 519.1,88.0 521.9,94.0 524.7,82.0 527.4,82.0 530.2,82.0 533.0,82.0 535.8,88.0 538.5,88.0 541.3,94.0 544.1,94.0 546.9,88.0 549.6,88.0 552.4,88.0 555.2,94.0 558.0,94.0 560.7,106.0 563.5,94.0 566.3,94.0 569.1,94.0 571.8,94.0 574.6,88.0 577.4,88.0 580.2,82.0 582.9,76.0 585.7,76.0 588.5,76.0 591.3,76.0 594.0,76.0 596.8,76.0 599.6,70.0 602.3,70.0 605.1,70.0 607.9,76.0 610.7,88.0 613.4,82.0 616.2,70.0 619.0,70.0 621.8,70.0 624.5,76.0 627.3,76.0 630.1,76.0 632.9,82.0 635.6,70.0 638.4,76.0 641.2,64.0 644.0,70.0 646.7,58.0 649.5,58.0 652.3,58.0 655.1,58.0 657.8,58.0 660.6,64.0 663.4,58.0 666.1,64.0 668.9,58.0 671.7,58.0 674.5,58.0 677.2,58.0 680.0,64.0 682.8,64.0 685.6,64.0 688.3,76.0 691.1,70.0 693.9,82.0 696.7,70.0 699.4,76.0 702.2,58.0 705.0,64.0 707.8,58.0 710.5,64.0 713.3,58.0 716.1,58.0 718.9,58.0 721.6,64.0 724.4,70.0 727.2,64.0 730.0,64.0 732.7,64.0 735.5,70.0 738.3,70.0 741.0,64.0 743.8,70.0 746.6,70.0 749.4,70.0 752.1,58.0 754.9,58.0 757.7,58.0 760.5,58.0 763.2,58.0 766.0,64.0 768.8,58.0 771.6,58.0 774.3,58.0 777.1,58.0 779.9,58.0 782.7,58.0 785.4,58.0 788.2,58.0 791.0,64.0 793.8,58.0 796.5,58.0 799.3,58.0 802.1,58.0 804.8,58.0 807.6,58.0 810.4,58.0 813.2,64.0 815.9,58.0 818.7,58.0 821.5,58.0 824.3,58.0 827.0,58.0 829.8,58.0 832.6,58.0 835.4,58.0 838.1,58.0 840.9,58.0 843.7,58.0 846.5,58.0 849.2,58.0 852.0,58.0 854.8,58.0 857.6,58.0 860.3,58.0 863.1,58.0 865.9,58.0 868.7,64.0 871.4,64.0 874.2,58.0 877.0,58.0 879.7,58.0 882.5,64.0 885.3,64.0 888.1,76.0 890.8,64.0 893.6,64.0 896.4,70.0 899.2,58.0 901.9,58.0 904.7,58.0 907.5,58.0 910.3,58.0 913.0,58.0 915.8,70.0 918.6,64.0 921.4,64.0 924.1,64.0 926.9,64.0 929.7,70.0 932.5,70.0 935.2,76.0 938.0,76.0"/><polyline fill="none" stroke="#f59e0b" stroke-width="2.5" stroke-linejoin="round" stroke-linecap="round" points="42.0,274.0 44.8,274.0 47.5,274.0 50.3,280.0 53.1,268.0 55.9,268.0 58.6,268.0 61.4,274.0 64.2,274.0 67.0,274.0 69.7,280.0 72.5,286.0 75.3,286.0 78.1,286.0 80.8,286.0 83.6,286.0 86.4,286.0 89.2,286.0 91.9,286.0 94.7,286.0 97.5,286.0 100.3,286.0 103.0,286.0 105.8,286.0 108.6,286.0 111.3,286.0 114.1,286.0 116.9,286.0 119.7,286.0 122.4,286.0 125.2,286.0 128.0,274.0 130.8,280.0 133.5,280.0 136.3,280.0 139.1,280.0 141.9,286.0 144.6,286.0 147.4,286.0 150.2,274.0 153.0,268.0 155.7,268.0 158.5,262.0 161.3,262.0 164.1,262.0 166.8,262.0 169.6,268.0 172.4,280.0 175.2,280.0 177.9,274.0 180.7,262.0 183.5,268.0 186.2,268.0 189.0,262.0 191.8,268.0 194.6,268.0 197.3,268.0 200.1,280.0 202.9,280.0 205.7,268.0 208.4,268.0 211.2,268.0 214.0,262.0 216.8,274.0 219.5,280.0 222.3,286.0 225.1,286.0 227.9,274.0 230.6,274.0 233.4,274.0 236.2,274.0 239.0,274.0 241.7,274.0 244.5,274.0 247.3,274.0 250.0,280.0 252.8,274.0 255.6,280.0 258.4,286.0 261.1,286.0 263.9,286.0 266.7,286.0 269.5,280.0 272.2,286.0 275.0,286.0 277.8,286.0 280.6,286.0 283.3,286.0 286.1,286.0 288.9,286.0 291.7,286.0 294.4,286.0 297.2,286.0 300.0,286.0 302.8,286.0 305.5,286.0 308.3,286.0 311.1,286.0 313.9,286.0 316.6,286.0 319.4,286.0 322.2,286.0 324.9,286.0 327.7,286.0 330.5,286.0 333.3,286.0 336.0,286.0 338.8,286.0 341.6,286.0 344.4,286.0 347.1,286.0 349.9,286.0 352.7,286.0 355.5,286.0 358.2,286.0 361.0,286.0 363.8,286.0 366.6,286.0 369.3,286.0 372.1,286.0 374.9,286.0 377.7,286.0 380.4,286.0 383.2,286.0 386.0,286.0 388.7,286.0 391.5,286.0 394.3,286.0 397.1,286.0 399.8,286.0 402.6,286.0 405.4,286.0 408.2,286.0 410.9,286.0 413.7,286.0 416.5,286.0 419.3,286.0 422.0,286.0 424.8,286.0 427.6,286.0 430.4,286.0 433.1,286.0 435.9,286.0 438.7,286.0 441.5,286.0 444.2,286.0 447.0,286.0 449.8,286.0 452.6,286.0 455.3,286.0 458.1,286.0 460.9,286.0 463.6,286.0 466.4,286.0 469.2,286.0 472.0,286.0 474.7,286.0 477.5,286.0 480.3,280.0 483.1,268.0 485.8,268.0 488.6,268.0 491.4,268.0 494.2,262.0 496.9,262.0 499.7,262.0 502.5,268.0 505.3,268.0 508.0,274.0 510.8,274.0 513.6,274.0 516.4,268.0 519.1,268.0 521.9,268.0 524.7,274.0 527.4,274.0 530.2,274.0 533.0,274.0 535.8,268.0 538.5,268.0 541.3,262.0 544.1,262.0 546.9,268.0 549.6,268.0 552.4,268.0 555.2,262.0 558.0,262.0 560.7,274.0 563.5,262.0 566.3,262.0 569.1,262.0 571.8,262.0 574.6,268.0 577.4,268.0 580.2,274.0 582.9,280.0 585.7,280.0 588.5,280.0 591.3,280.0 594.0,280.0 596.8,280.0 599.6,286.0 602.3,286.0 605.1,286.0 607.9,280.0 610.7,274.0 613.4,274.0 616.2,280.0 619.0,274.0 621.8,274.0 624.5,268.0 627.3,268.0 630.1,268.0 632.9,268.0 635.6,280.0 638.4,274.0 641.2,280.0 644.0,280.0 646.7,286.0 649.5,286.0 652.3,286.0 655.1,286.0 657.8,286.0 660.6,286.0 663.4,286.0 666.1,286.0 668.9,286.0 671.7,286.0 674.5,286.0 677.2,286.0 680.0,280.0 682.8,280.0 685.6,280.0 688.3,268.0 691.1,280.0 693.9,268.0 696.7,274.0 699.4,274.0 702.2,286.0 705.0,280.0 707.8,286.0 710.5,280.0 713.3,286.0 716.1,286.0 718.9,286.0 721.6,280.0 724.4,274.0 727.2,280.0 730.0,280.0 732.7,280.0 735.5,274.0 738.3,274.0 741.0,280.0 743.8,280.0 746.6,280.0 749.4,280.0 752.1,286.0 754.9,286.0 757.7,286.0 760.5,286.0 763.2,286.0 766.0,286.0 768.8,286.0 771.6,286.0 774.3,286.0 777.1,286.0 779.9,286.0 782.7,286.0 785.4,286.0 788.2,286.0 791.0,286.0 793.8,286.0 796.5,286.0 799.3,286.0 802.1,286.0 804.8,286.0 807.6,286.0 810.4,286.0 813.2,286.0 815.9,286.0 818.7,286.0 821.5,286.0 824.3,286.0 827.0,286.0 829.8,286.0 832.6,286.0 835.4,286.0 838.1,286.0 840.9,286.0 843.7,286.0 846.5,286.0 849.2,286.0 852.0,286.0 854.8,286.0 857.6,286.0 860.3,286.0 863.1,286.0 865.9,286.0 868.7,286.0 871.4,286.0 874.2,286.0 877.0,286.0 879.7,286.0 882.5,280.0 885.3,280.0 888.1,280.0 890.8,280.0 893.6,280.0 896.4,274.0 899.2,286.0 901.9,286.0 904.7,286.0 907.5,286.0 910.3,286.0 913.0,286.0 915.8,286.0 918.6,280.0 921.4,280.0 924.1,280.0 926.9,280.0 929.7,274.0 932.5,274.0 935.2,268.0 938.0,268.0"/><polyline fill="none" stroke="#ef4444" stroke-width="2.5" stroke-linejoin="round" stroke-linecap="round" points="42.0,280.0 44.8,280.0 47.5,268.0 50.3,262.0 53.1,286.0 55.9,286.0 58.6,286.0 61.4,286.0 64.2,280.0 67.0,286.0 69.7,286.0 72.5,286.0 75.3,286.0 78.1,286.0 80.8,286.0 83.6,286.0 86.4,286.0 89.2,286.0 91.9,286.0 94.7,286.0 97.5,286.0 100.3,286.0 103.0,286.0 105.8,286.0 108.6,286.0 111.3,286.0 114.1,286.0 116.9,286.0 119.7,286.0 122.4,286.0 125.2,286.0 128.0,286.0 130.8,274.0 133.5,256.0 136.3,286.0 139.1,286.0 141.9,286.0 144.6,286.0 147.4,286.0 150.2,286.0 153.0,286.0 155.7,286.0 158.5,286.0 161.3,286.0 164.1,286.0 166.8,286.0 169.6,286.0 172.4,286.0 175.2,280.0 177.9,286.0 180.7,286.0 183.5,286.0 186.2,286.0 189.0,286.0 191.8,286.0 194.6,286.0 197.3,286.0 200.1,286.0 202.9,286.0 205.7,286.0 208.4,286.0 211.2,286.0 214.0,280.0 216.8,286.0 219.5,286.0 222.3,286.0 225.1,286.0 227.9,286.0 230.6,286.0 233.4,286.0 236.2,286.0 239.0,286.0 241.7,286.0 244.5,286.0 247.3,286.0 250.0,274.0 252.8,274.0 255.6,274.0 258.4,274.0 261.1,274.0 263.9,274.0 266.7,274.0 269.5,274.0 272.2,274.0 275.0,274.0 277.8,274.0 280.6,274.0 283.3,274.0 286.1,274.0 288.9,274.0 291.7,274.0 294.4,274.0 297.2,274.0 300.0,274.0 302.8,274.0 305.5,274.0 308.3,274.0 311.1,274.0 313.9,274.0 316.6,274.0 319.4,274.0 322.2,274.0 324.9,274.0 327.7,274.0 330.5,274.0 333.3,274.0 336.0,274.0 338.8,274.0 341.6,274.0 344.4,274.0 347.1,274.0 349.9,274.0 352.7,274.0 355.5,274.0 358.2,274.0 361.0,274.0 363.8,274.0 366.6,274.0 369.3,274.0 372.1,274.0 374.9,274.0 377.7,274.0 380.4,274.0 383.2,274.0 386.0,274.0 388.7,274.0 391.5,274.0 394.3,274.0 397.1,274.0 399.8,274.0 402.6,274.0 405.4,274.0 408.2,274.0 410.9,274.0 413.7,274.0 416.5,274.0 419.3,274.0 422.0,274.0 424.8,274.0 427.6,274.0 430.4,274.0 433.1,274.0 435.9,274.0 438.7,274.0 441.5,274.0 444.2,274.0 447.0,274.0 449.8,274.0 452.6,274.0 455.3,274.0 458.1,274.0 460.9,268.0 463.6,274.0 466.4,274.0 469.2,274.0 472.0,274.0 474.7,274.0 477.5,274.0 480.3,274.0 483.1,274.0 485.8,274.0 488.6,274.0 491.4,268.0 494.2,274.0 496.9,274.0 499.7,274.0 502.5,274.0 505.3,274.0 508.0,274.0 510.8,274.0 513.6,274.0 516.4,274.0 519.1,274.0 521.9,268.0 524.7,274.0 527.4,274.0 530.2,274.0 533.0,274.0 535.8,274.0 538.5,274.0 541.3,274.0 544.1,274.0 546.9,274.0 549.6,274.0 552.4,274.0 555.2,274.0 558.0,274.0 560.7,250.0 563.5,274.0 566.3,274.0 569.1,274.0 571.8,274.0 574.6,274.0 577.4,274.0 580.2,274.0 582.9,274.0 585.7,274.0 588.5,274.0 591.3,274.0 594.0,274.0 596.8,274.0 599.6,274.0 602.3,274.0 605.1,274.0 607.9,274.0 610.7,268.0 613.4,274.0 616.2,280.0 619.0,286.0 621.8,286.0 624.5,286.0 627.3,286.0 630.1,286.0 632.9,280.0 635.6,280.0 638.4,286.0 641.2,286.0 644.0,280.0 646.7,286.0 649.5,286.0 652.3,286.0 655.1,286.0 657.8,286.0 660.6,280.0 663.4,286.0 666.1,286.0 668.9,286.0 671.7,286.0 674.5,286.0 677.2,286.0 680.0,286.0 682.8,286.0 685.6,286.0 688.3,286.0 691.1,280.0 693.9,280.0 696.7,286.0 699.4,280.0 702.2,286.0 705.0,286.0 707.8,286.0 710.5,286.0 713.3,286.0 716.1,286.0 718.9,286.0 721.6,286.0 724.4,286.0 727.2,286.0 730.0,286.0 732.7,286.0 735.5,286.0 738.3,286.0 741.0,286.0 743.8,280.0 746.6,286.0 749.4,280.0 752.1,286.0 754.9,286.0 757.7,286.0 760.5,286.0 763.2,286.0 766.0,286.0 768.8,286.0 771.6,286.0 774.3,286.0 777.1,286.0 779.9,286.0 782.7,286.0 785.4,286.0 788.2,286.0 791.0,280.0 793.8,286.0 796.5,286.0 799.3,286.0 802.1,286.0 804.8,286.0 807.6,286.0 810.4,286.0 813.2,286.0 815.9,286.0 818.7,286.0 821.5,286.0 824.3,286.0 827.0,286.0 829.8,286.0 832.6,286.0 835.4,286.0 838.1,286.0 840.9,286.0 843.7,286.0 846.5,286.0 849.2,286.0 852.0,286.0 854.8,286.0 857.6,286.0 860.3,286.0 863.1,286.0 865.9,286.0 868.7,280.0 871.4,280.0 874.2,286.0 877.0,286.0 879.7,286.0 882.5,286.0 885.3,286.0 888.1,274.0 890.8,286.0 893.6,286.0 896.4,286.0 899.2,286.0 901.9,286.0 904.7,286.0 907.5,286.0 910.3,286.0 913.0,286.0 915.8,286.0 918.6,286.0 921.4,286.0 924.1,286.0 926.9,286.0 929.7,286.0 932.5,286.0 935.2,286.0 938.0,286.0"/><polyline fill="none" stroke="#a855f7" stroke-width="2.5" stroke-linejoin="round" stroke-linecap="round" points="42.0,286.0 44.8,286.0 47.5,286.0 50.3,286.0 53.1,286.0 55.9,286.0 58.6,286.0 61.4,286.0 64.2,286.0 67.0,286.0 69.7,286.0 72.5,286.0 75.3,286.0 78.1,286.0 80.8,286.0 83.6,286.0 86.4,286.0 89.2,286.0 91.9,286.0 94.7,286.0 97.5,286.0 100.3,286.0 103.0,286.0 105.8,286.0 108.6,286.0 111.3,286.0 114.1,286.0 116.9,286.0 119.7,286.0 122.4,286.0 125.2,286.0 128.0,286.0 130.8,286.0 133.5,286.0 136.3,286.0 139.1,286.0 141.9,286.0 144.6,286.0 147.4,286.0 150.2,286.0 153.0,286.0 155.7,286.0 158.5,286.0 161.3,286.0 164.1,286.0 166.8,286.0 169.6,286.0 172.4,286.0 175.2,286.0 177.9,286.0 180.7,286.0 183.5,286.0 186.2,286.0 189.0,286.0 191.8,286.0 194.6,286.0 197.3,286.0 200.1,286.0 202.9,286.0 205.7,286.0 208.4,286.0 211.2,286.0 214.0,286.0 216.8,286.0 219.5,286.0 222.3,286.0 225.1,286.0 227.9,286.0 230.6,286.0 233.4,286.0 236.2,280.0 239.0,286.0 241.7,286.0 244.5,286.0 247.3,286.0 250.0,286.0 252.8,286.0 255.6,286.0 258.4,286.0 261.1,286.0 263.9,286.0 266.7,286.0 269.5,286.0 272.2,286.0 275.0,286.0 277.8,286.0 280.6,286.0 283.3,286.0 286.1,286.0 288.9,286.0 291.7,286.0 294.4,286.0 297.2,286.0 300.0,286.0 302.8,286.0 305.5,286.0 308.3,286.0 311.1,286.0 313.9,286.0 316.6,286.0 319.4,286.0 322.2,286.0 324.9,286.0 327.7,286.0 330.5,286.0 333.3,286.0 336.0,286.0 338.8,286.0 341.6,286.0 344.4,286.0 347.1,286.0 349.9,286.0 352.7,286.0 355.5,286.0 358.2,286.0 361.0,286.0 363.8,286.0 366.6,286.0 369.3,286.0 372.1,286.0 374.9,286.0 377.7,286.0 380.4,286.0 383.2,286.0 386.0,286.0 388.7,286.0 391.5,286.0 394.3,286.0 397.1,286.0 399.8,286.0 402.6,286.0 405.4,286.0 408.2,286.0 410.9,286.0 413.7,286.0 416.5,286.0 419.3,286.0 422.0,286.0 424.8,286.0 427.6,286.0 430.4,286.0 433.1,286.0 435.9,286.0 438.7,286.0 441.5,286.0 444.2,286.0 447.0,286.0 449.8,286.0 452.6,286.0 455.3,286.0 458.1,286.0 460.9,286.0 463.6,286.0 466.4,286.0 469.2,286.0 472.0,286.0 474.7,286.0 477.5,280.0 480.3,286.0 483.1,286.0 485.8,286.0 488.6,286.0 491.4,286.0 494.2,286.0 496.9,286.0 499.7,286.0 502.5,286.0 505.3,286.0 508.0,286.0 510.8,286.0 513.6,286.0 516.4,286.0 519.1,286.0 521.9,286.0 524.7,286.0 527.4,286.0 530.2,286.0 533.0,286.0 535.8,286.0 538.5,286.0 541.3,286.0 544.1,286.0 546.9,286.0 549.6,286.0 552.4,286.0 555.2,286.0 558.0,286.0 560.7,286.0 563.5,286.0 566.3,286.0 569.1,286.0 571.8,286.0 574.6,286.0 577.4,286.0 580.2,286.0 582.9,286.0 585.7,286.0 588.5,286.0 591.3,286.0 594.0,286.0 596.8,286.0 599.6,286.0 602.3,286.0 605.1,286.0 607.9,286.0 610.7,286.0 613.4,286.0 616.2,286.0 619.0,286.0 621.8,286.0 624.5,286.0 627.3,286.0 630.1,286.0 632.9,286.0 635.6,286.0 638.4,280.0 641.2,286.0 644.0,286.0 646.7,286.0 649.5,286.0 652.3,286.0 655.1,286.0 657.8,286.0 660.6,286.0 663.4,286.0 666.1,280.0 668.9,286.0 671.7,286.0 674.5,286.0 677.2,286.0 680.0,286.0 682.8,286.0 685.6,286.0 688.3,286.0 691.1,286.0 693.9,286.0 696.7,286.0 699.4,286.0 702.2,286.0 705.0,286.0 707.8,286.0 710.5,286.0 713.3,286.0 716.1,286.0 718.9,286.0 721.6,286.0 724.4,286.0 727.2,286.0 730.0,286.0 732.7,286.0 735.5,286.0 738.3,286.0 741.0,286.0 743.8,286.0 746.6,280.0 749.4,286.0 752.1,286.0 754.9,286.0 757.7,286.0 760.5,286.0 763.2,286.0 766.0,280.0 768.8,286.0 771.6,286.0 774.3,286.0 777.1,286.0 779.9,286.0 782.7,286.0 785.4,286.0 788.2,286.0 791.0,286.0 793.8,286.0 796.5,286.0 799.3,286.0 802.1,286.0 804.8,286.0 807.6,286.0 810.4,286.0 813.2,280.0 815.9,286.0 818.7,286.0 821.5,286.0 824.3,286.0 827.0,286.0 829.8,286.0 832.6,286.0 835.4,286.0 838.1,286.0 840.9,286.0 843.7,286.0 846.5,286.0 849.2,286.0 852.0,286.0 854.8,286.0 857.6,286.0 860.3,286.0 863.1,286.0 865.9,286.0 868.7,286.0 871.4,286.0 874.2,286.0 877.0,286.0 879.7,286.0 882.5,286.0 885.3,286.0 888.1,286.0 890.8,286.0 893.6,286.0 896.4,286.0 899.2,286.0 901.9,286.0 904.7,286.0 907.5,286.0 910.3,286.0 913.0,286.0 915.8,274.0 918.6,286.0 921.4,286.0 924.1,286.0 926.9,286.0 929.7,286.0 932.5,286.0 935.2,286.0 938.0,286.0"/><text x="42" y="308" font-size="11" fill="#5a688a">19/06 12:43</text><text x="938" y="308" text-anchor="end" font-size="11" fill="#5a688a">07/07 09:29</text></svg>