<svg xmlns="http://www.w3.org/2000/svg" viewBox="0 0 960 320" width="960" height="320" font-family="Segoe UI, system-ui, -apple-system, Roboto, Helvetica, Arial, sans-serif" role="img" aria-label="Availability history per region"><rect x="0.5" y="0.5" width="959" height="319" rx="14" fill="#ffffff" stroke="#dce3f1"/><text x="42" y="26" font-size="14" font-weight="600" fill="#14203a">History · 270 points</text><circle cx="47" cy="40" r="5" fill="#22c55e"/><text x="57" y="44" font-size="12" fill="#5a688a">Available</text><circle cx="139.8" cy="40" r="5" fill="#f59e0b"/><text x="149.8" y="44" font-size="12" fill="#5a688a">Saturated</text><circle cx="232.60000000000002" cy="40" r="5" fill="#ef4444"/><text x="242.60000000000002" y="44" font-size="12" fill="#5a688a">Error</text><circle cx="296.6" cy="40" r="5" fill="#a855f7"/><text x="306.6" y="44" font-size="12" fill="#5a688a">Timeout</text><line x1="42" y1="286.0" x2="938" y2="286.0" stroke="#eef2f7" stroke-width="1"/><text x="35" y="289.0" text-anchor="end" font-size="11" fill="#5a688a">0</text><line x1="42" y1="227.5" x2="938" y2="227.5" stroke="#eef2f7" stroke-width="1"/><text x="35" y="230.5" text-anchor="end" font-size="11" fill="#5a688a">10</text><line x1="42" y1="169.0" x2="938" y2="169.0" stroke="#eef2f7" stroke-width="1"/><text x="35" y="172.0" text-anchor="end" font-size="11" fill="#5a688a">20</text><line x1="42" y1="110.5" x2="938" y2="110.5" stroke="#eef2f7" stroke-width="1"/><text x="35" y="113.5" text-anchor="end" font-size="11" fill="#5a688a">29</text><line x1="42" y1="52.0" x2="938" y2="52.0" stroke="#eef2f7" stroke-width="1"/><text x="35" y="55.0" text-anchor="end" font-size="11" fill="#5a688a">39</text><polyline fill="none" stroke="#22c55e" stroke-width="2.5" stroke-linejoin="round" stroke-linecap="round" points="42.0,70.0 45.3,70.0 48.7,88.0 52.0,88.0 55.3,76.0 58.7,76.0 62.0,76.0 65.3,70.0 68.6,76.0 72.0,70.0 75.3,64.0 78.6,58.0 82.0,58.0 85.3,58.0 88.6,58.0 92.0,58.0 95.3,58.0 98.6,58.0 102.0,58.0 105.3,58.0 108.6,58.0 111.9,58.0 115.3,58.0 118.6,58.0 121.9,58.0 125.3,58.0 128.6,58.0 131.9,58.0 135.3,58.0 138.6,58.0 141.9,58.0 145.3,70.0 148.6,76.0 151.9,94.0 155.2,64.0 158.6,64.0 161.9,58.0 165.2,58.0 168.6,58.0 171.9,70.0 175.2,76.0 178.6,76.0 181.9,82.0 185.2,82.0 188.6,82.0 191.9,82.0 195.2,76.0 198.6,64.0 201.9,70.0 205.2,70.0 208.5,82.0 211.9,76.0 215.2,76.0 218.5,82.0 221.9,76.0 225.2,76.0 228.5,76.0 231.9,64.0 235.2,64.0 238.5,76.0 241.9,76.0 245.2,76.0 248.5,88.0 251.8,70.0 255.2,64.0 258.5,58.0 261.8,58.0 265.2,70.0 268.5,70.0 271.8,70.0 275.2,76.0 278.5,70.0 281.8,70.0 285.2,70.0 288.5,70.0 291.8,76.0 295.1,82.0 298.5,76.0 301.8,70.0 305.1,70.0 308.5,70.0 311.8,70.0 315.1,76.0 318.5,70.0 321.8,70.0 325.1,70.0 328.5,70.0 331.8,70.0 335.1,70.0 338.4,70.0 341.8,70.0 345.1,70.0 348.4,70.0 351.8,70.0 355.1,70.0 358.4,70.0 361.8,70.0 365.1,70.0 368.4,70.0 371.8,70.0 375.1,70.0 378.4,70.0 381.7,70.0 385.1,70.0 388.4,70.0 391.7,70.0 395.1,70.0 398.4,70.0 401.7,70.0 405.1,70.0 408.4,70.0 411.7,70.0 415.1,70.0 418.4,70.0 421.7,70.0 425.0,70.0 428.4,70.0 431.7,70.0 435.0,70.0 438.4,70.0 441.7,70.0 445.0,70.0 448.4,70.0 451.7,70.0 455.0,70.0 458.4,70.0 461.7,70.0 465.0,70.0 468.3,70.0 471.7,70.0 475.0,70.0 478.3,70.0 481.7,70.0 485.0,70.0 488.3,70.0 491.7,70.0 495.0,70.0 498.3,70.0 501.7,70.0 505.0,70.0 508.3,70.0 511.7,70.0 515.0,70.0 518.3,70.0 521.6,70.0 525.0,70.0 528.3,70.0 531.6,70.0 535.0,70.0 538.3,70.0 541.6,70.0 545.0,76.0 548.3,70.0 551.6,70.0 555.0,70.0 558.3,70.0 561.6,70.0 564.9,76.0 568.3,76.0 571.6,88.0 574.9,88.0 578.3,88.0 581.6,94.0 584.9,94.0 588.3,94.0 591.6,94.0 594.9,88.0 598.3,88.0 601.6,82.0 604.9,82.0 608.2,82.0 611.6,88.0 614.9,88.0 618.2,94.0 621.6,82.0 624.9,82.0 628.2,82.0 631.6,82.0 634.9,88.0 638.2,88.0 641.6,94.0 644.9,94.0 648.2,88.0 651.5,88.0 654.9,88.0 658.2,94.0 661.5,94.0 664.9,106.0 668.2,94.0 671.5,94.0 674.9,94.0 678.2,94.0 681.5,88.0 684.9,88.0 688.2,82.0 691.5,76.0 694.8,76.0 698.2,76.0 701.5,76.0 704.8,76.0 708.2,76.0 711.5,70.0 714.8,70.0 718.2,70.0 721.5,76.0 724.8,88.0 728.2,82.0 731.5,70.0 734.8,70.0 738.1,70.0 741.5,76.0 744.8,76.0 748.1,76.0 751.5,82.0 754.8,70.0 758.1,76.0 761.5,64.0 764.8,70.0 768.1,58.0 771.5,58.0 774.8,58.0 778.1,58.0 781.4,58.0 784.8,64.0 788.1,58.0 791.4,64.0 794.8,58.0 798.1,58.0 801.4,58.0 804.8,58.0 808.1,64.0 811.4,64.0 814.8,64.0 818.1,76.0 821.4,70.0 824.8,82.0 828.1,70.0 831.4,76.0 834.7,58.0 838.1,64.0 841.4,58.0 844.7,64.0 848.1,58.0 851.4,58.0 854.7,58.0 858.1,64.0 861.4,70.0 864.7,64.0 868.1,64.0 871.4,64.0 874.7,70.0 878.0,70.0 881.4,64.0 884.7,70.0 888.0,70.0 891.4,70.0 894.7,58.0 898.0,58.0 901.4,58.0 904.7,58.0 908.0,58.0 911.4,64.0 914.7,58.0 918.0,58.0 921.3,58.0 924.7,58.0 928.0,58.0 931.3,58.0 934.7,58.0 938.0,58.0"/><polyline fill="none" stroke="#f59e0b" stroke-width="2.5" stroke-linejoin="round" stroke-linecap="round" points="42.0,274.0 45.3,274.0 48.7,274.0 52.0,280.0 55.3,268.0 58.7,268.0 62.0,268.0 65.3,274.0 68.6,274.0 72.0,274.0 75.3,280.0 78.6,286.0 82.0,286.0 85.3,286.0 88.6,286.0 92.0,286.0 95.3,286.0 98.6,286.0 102.0,286.0 105.3,286.0 108.6,286.0 111.9,286.0 115.3,286.0 118.6,286.0 121.9,286.0 125.3,286.0 128.6,286.0 131.9,286.0 135.3,286.0 138.6,286.0 141.9,286.0 145.3,274.0 148.6,280.0 151.9,280.0 155.2,280.0 158.6,280.0 161.9,286.0 165.2,286.0 168.6,286.0 171.9,274.0 175.2,268.0 178.6,268.0 181.9,262.0 185.2,262.0 188.6,262.0 191.9,262.0 195.2,268.0 198.6,280.0 201.9,280.0 205.2,274.0 208.5,262.0 211.9,268.0 215.2,268.0 218.5,262.0 221.9,268.0 225.2,268.0 228.5,268.0 231.9,280.0 235.2,280.0 238.5,268.0 241.9,268.0 245.2,268.0 248.5,262.0 251.8,274.0 255.2,280.0 258.5,286.0 261.8,286.0 265.2,274.0 268.5,274.0 271.8,274.0 275.2,274.0 278.5,274.0 281.8,274.0 285.2,274.0 288.5,274.0 291.8,280.0 295.1,274.0 298.5,280.0 301.8,286.0 305.1,286.0 308.5,286.0 311.8,286.0 315.1,280.0 318.5,286.0 321.8,286.0 325.1,286.0 328.5,286.0 331.8,286.0 335.1,286.0 338.4,286.0 341.8,286.0 345.1,286.0 348.4,286.0 351.8,286.0 355.1,286.0 358.4,286.0 361.8,286.0 365.1,286.0 368.4,286.0 371.8,286.0 375.1,286.0 378.4,286.0 381.7,286.0 385.1,286.0 388.4,286.0 391.7,286.0 395.1,286.0 398.4,286.0 401.7,286.0 405.1,286.0 408.4,286.0 411.7,286.0 415.1,286.0 418.4,286.0 421.7,286.0 425.0,286.0 428.4,286.0 431.7,286.0 435.0,286.0 438.4,286.0 441.7,286.0 445.0,286.0 448.4,286.0 451.7,286.0 455.0,286.0 458.4,286.0 461.7,286.0 465.0,286.0 468.3,286.0 471.7,286.0 475.0,286.0 478.3,286.0 481.7,286.0 485.0,286.0 488.3,286.0 491.7,286.0 495.0,286.0 498.3,286.0 501.7,286.0 505.0,286.0 508.3,286.0 511.7,286.0 515.0,286.0 518.3,286.0 521.6,286.0 525.0,286.0 528.3,286.0 531.6,286.0 535.0,286.0 538.3,286.0 541.6,286.0 545.0,286.0 548.3,286.0 551.6,286.0 555.0,286.0 558.3,286.0 561.6,286.0 564.9,286.0 568.3,280.0 571.6,268.0 574.9,268.0 578.3,268.0 581.6,268.0 584.9,262.0 588.3,262.0 591.6,262.0 594.9,268.0 598.3,268.0 601.6,274.0 604.9,274.0 608.2,274.0 611.6,268.0 614.9,268.0 618.2,268.0 621.6,274.0 624.9,274.0 628.2,274.0 631.6,274.0 634.9,268.0 638.2,268.0 641.6,262.0 644.9,262.0 648.2,268.0 651.5,268.0 654.9,268.0 658.2,262.0 661.5,262.0 664.9,274.0 668.2,262.0 671.5,262.0 674.9,262.0 678.2,262.0 681.5,268.0 684.9,268.0 688.2,274.0 691.5,280.0 694.8,280.0 698.2,280.0 701.5,280.0 704.8,280.0 708.2,280.0 711.5,286.0 714.8,286.0 718.2,286.0 721.5,280.0 724.8,274.0 728.2,274.0 731.5,280.0 734.8,274.0 738.1,274.0 741.5,268.0 744.8,268.0 748.1,268.0 751.5,268.0 754.8,280.0 758.1,274.0 761.5,280.0 764.8,280.0 768.1,286.0 771.5,286.0 774.8,286.0 778.1,286.0 781.4,286.0 784.8,286.0 788.1,286.0 791.4,286.0 794.8,286.0 798.1,286.0 801.4,286.0 804.8,286.0 808.1,280.0 811.4,280.0 814.8,280.0 818.1,268.0 821.4,280.0 824.8,268.0 828.1,274.0 831.4,274.0 834.7,286.0 838.1,280.0 841.4,286.0 844.7,280.0 848.1,286.0 851.4,286.0 854.7,286.0 858.1,280.0 861.4,274.0 864.7,280.0 868.1,280.0 871.4,280.0 874.7,274.0 878.0,274.0 881.4,280.0 884.7,280.0 888.0,280.0 891.4,280.0 894.7,286.0 898.0,286.0 901.4,286.0 904.7,286.0 908.0,286.0 911.4,286.0 914.7,286.0 918.0,286.0 921.3,286.0 924.7,286.0 928.0,286.0 931.3,286.0 934.7,286.0 938.0,286.0"/><polyline fill="none" stroke="#ef4444" stroke-width="2.5" stroke-linejoin="round" stroke-linecap="round" points="42.0,280.0 45.3,280.0 48.7,268.0 52.0,262.0 55.3,286.0 58.7,286.0 62.0,286.0 65.3,286.0 68.6,280.0 72.0,286.0 75.3,286.0 78.6,286.0 82.0,286.0 85.3,286.0 88.6,286.0 92.0,286.0 95.3,286.0 98.6,286.0 102.0,286.0 105.3,286.0 108.6,286.0 111.9,286.0 115.3,286.0 118.6,286.0 121.9,286.0 125.3,286.0 128.6,286.0 131.9,286.0 135.3,286.0 138.6,286.0 141.9,286.0 145.3,286.0 148.6,274.0 151.9,256.0 155.2,286.0 158.6,286.0 161.9,286.0 165.2,286.0 168.6,286.0 171.9,286.0 175.2,286.0 178.6,286.0 181.9,286.0 185.2,286.0 188.6,286.0 191.9,286.0 195.2,286.0 198.6,286.0 201.9,280.0 205.2,286.0 208.5,286.0 211.9,286.0 215.2,286.0 218.5,286.0 221.9,286.0 225.2,286.0 228.5,286.0 231.9,286.0 235.2,286.0 238.5,286.0 241.9,286.0 245.2,286.0 248.5,280.0 251.8,286.0 255.2,286.0 258.5,286.0 261.8,286.0 265.2,286.0 268.5,286.0 271.8,286.0 275.2,286.0 278.5,286.0 281.8,286.0 285.2,286.0 288.5,286.0 291.8,274.0 295.1,274.0 298.5,274.0 301.8,274.0 305.1,274.0 308.5,274.0 311.8,274.0 315.1,274.0 318.5,274.0 321.8,274.0 325.1,274.0 328.5,274.0 331.8,274.0 335.1,274.0 338.4,274.0 341.8,274.0 345.1,274.0 348.4,274.0 351.8,274.0 355.1,274.0 358.4,274.0 361.8,274.0 365.1,274.0 368.4,274.0 371.8,274.0 375.1,274.0 378.4,274.0 381.7,274.0 385.1,274.0 388.4,274.0 391.7,274.0 395.1,274.0 398.4,274.0 401.7,274.0 405.1,274.0 408.4,274.0 411.7,274.0 415.1,274.0 418.4,274.0 421.7,274.0 425.0,274.0 428.4,274.0 431.7,274.0 435.0,274.0 438.4,274.0 441.7,274.0 445.0,274.0 448.4,274.0 451.7,274.0 455.0,274.0 458.4,274.0 461.7,274.0 465.0,274.0 468.3,274.0 471.7,274.0 475.0,274.0 478.3,274.0 481.7,274.0 485.0,274.0 488.3,274.0 491.7,274.0 495.0,274.0 498.3,274.0 501.7,274.0 505.0,274.0 508.3,274.0 511.7,274.0 515.0,274.0 518.3,274.0 521.6,274.0 525.0,274.0 528.3,274.0 531.6,274.0 535.0,274.0 538.3,274.0 541.6,274.0 545.0,268.0 548.3,274.0 551.6,274.0 555.0,274.0 558.3,274.0 561.6,274.0 564.9,274.0 568.3,274.0 571.6,274.0 574.9,274.0 578.3,274.0 581.6,268.0 584.9,274.0 588.3,274.0 591.6,274.0 594.9,274.0 598.3,274.0 601.6,274.0 604.9,274.0 608.2,274.0 611.6,274.0 614.9,274.0 618.2,268.0 621.6,274.0 624.9,274.0 628.2,274.0 631.6,274.0 634.9,274.0 638.2,274.0 641.6,274.0 644.9,274.0 648.2,274.0 651.5,274.0 654.9,274.0 658.2,274.0 661.5,274.0 664.9,250.0 668.2,274.0 671.5,274.0 674.9,274.0 678.2,274.0 681.5,274.0 684.9,274.0 688.2,274.0 691.5,274.0 694.8,274.0 698.2,274.0 701.5,274.0 704.8,274.0 708.2,274.0 711.5,274.0 714.8,274.0 718.2,274.0 721.5,274.0 724.8,268.0 728.2,274.0 731.5,280.0 734.8,286.0 738.1,286.0 741.5,286.0 744.8,286.0 748.1,286.0 751.5,280.0 754.8,280.0 758.1,286.0 761.5,286.0 764.8,280.0 768.1,286.0 771.5,286.0 774.8,286.0 778.1,286.0 781.4,286.0 784.8,280.0 788.1,286.0 791.4,286.0 794.8,286.0 798.1,286.0 801.4,286.0 804.8,286.0 808.1,286.0 811.4,286.0 814.8,286.0 818.1,286.0 821.4,280.0 824.8,280.0 828.1,286.0 831.4,280.0 834.7,286.0 838.1,286.0 841.4,286.0 844.7,286.0 848.1,286.0 851.4,286.0 854.7,286.0 858.1,286.0 861.4,286.0 864.7,286.0 868.1,286.0 871.4,286.0 874.7,286.0 878.0,286.0 881.4,286.0 884.7,280.0 888.0,286.0 891.4,280.0 894.7,286.0 898.0,286.0 901.4,286.0 904.7,286.0 908.0,286.0 911.4,286.0 914.7,286.0 918.0,286.0 921.3,286.0 924.7,286.0 928.0,286.0 931.3,286.0 934.7,286.0 938.0,286.0"/><polyline fill="none" stroke="#a855f7" stroke-width="2.5" stroke-linejoin="round" stroke-linecap="round" points="42.0,286.0 45.3,286.0 48.7,286.0 52.0,286.0 55.3,286.0 58.7,286.0 62.0,286.0 65.3,286.0 68.6,286.0 72.0,286.0 75.3,286.0 78.6,286.0 82.0,286.0 85.3,286.0 88.6,286.0 92.0,286.0 95.3,286.0 98.6,286.0 102.0,286.0 105.3,286.0 108.6,286.0 111.9,286.0 115.3,286.0 118.6,286.0 121.9,286.0 125.3,286.0 128.6,286.0 131.9,286.0 135.3,286.0 138.6,286.0 141.9,286.0 145.3,286.0 148.6,286.0 151.9,286.0 155.2,286.0 158.6,286.0 161.9,286.0 165.2,286.0 168.6,286.0 171.9,286.0 175.2,286.0 178.6,286.0 181.9,286.0 185.2,286.0 188.6,286.0 191.9,286.0 195.2,286.0 198.6,286.0 201.9,286.0 205.2,286.0 208.5,286.0 211.9,286.0 215.2,286.0 218.5,286.0 221.9,286.0 225.2,286.0 228.5,286.0 231.9,286.0 235.2,286.0 238.5,286.0 241.9,286.0 245.2,286.0 248.5,286.0 251.8,286.0 255.2,286.0 258.5,286.0 261.8,286.0 265.2,286.0 268.5,286.0 271.8,286.0 275.2,280.0 278.5,286.0 281.8,286.0 285.2,286.0 288.5,286.0 291.8,286.0 295.1,286.0 298.5,286.0 301.8,286.0 305.1,286.0 308.5,286.0 311.8,286.0 315.1,286.0 318.5,286.0 321.8,286.0 325.1,286.0 328.5,286.0 331.8,286.0 335.1,286.0 338.4,286.0 341.8,286.0 345.1,286.0 348.4,286.0 351.8,286.0 355.1,286.0 358.4,286.0 361.8,286.0 365.1,286.0 368.4,286.0 371.8,286.0 375.1,286.0 378.4,286.0 381.7,286.0 385.1,286.0 388.4,286.0 391.7,286.0 395.1,286.0 398.4,286.0 401.7,286.0 405.1,286.0 408.4,286.0 411.7,286.0 415.1,286.0 418.4,286.0 421.7,286.0 425.0,286.0 428.4,286.0 431.7,286.0 435.0,286.0 438.4,286.0 441.7,286.0 445.0,286.0 448.4,286.0 451.7,286.0 455.0,286.0 458.4,286.0 461.7,286.0 465.0,286.0 468.3,286.0 471.7,286.0 475.0,286.0 478.3,286.0 481.7,286.0 485.0,286.0 488.3,286.0 491.7,286.0 495.0,286.0 498.3,286.0 501.7,286.0 505.0,286.0 508.3,286.0 511.7,286.0 515.0,286.0 518.3,286.0 521.6,286.0 525.0,286.0 528.3,286.0 531.6,286.0 535.0,286.0 538.3,286.0 541.6,286.0 545.0,286.0 548.3,286.0 551.6,286.0 555.0,286.0 558.3,286.0 561.6,286.0 564.9,280.0 568.3,286.0 571.6,286.0 574.9,286.0 578.3,286.0 581.6,286.0 584.9,286.0 588.3,286.0 591.6,286.0 594.9,286.0 598.3,286.0 601.6,286.0 604.9,286.0 608.2,286.0 611.6,286.0 614.9,286.0 618.2,286.0 621.6,286.0 624.9,286.0 628.2,286.0 631.6,286.0 634.9,286.0 638.2,286.0 641.6,286.0 644.9,286.0 648.2,286.0 651.5,286.0 654.9,286.0 658.2,286.0 661.5,286.0 664.9,286.0 668.2,286.0 671.5,286.0 674.9,286.0 678.2,286.0 681.5,286.0 684.9,286.0 688.2,286.0 691.5,286.0 694.8,286.0 698.2,286.0 701.5,286.0 704.8,286.0 708.2,286.0 711.5,286.0 714.8,286.0 718.2,286.0 721.5,286.0 724.8,286.0 728.2,286.0 731.5,286.0 734.8,286.0 738.1,286.0 741.5,286.0 744.8,286.0 748.1,286.0 751.5,286.0 754.8,286.0 758.1,280.0 761.5,286.0 764.8,286.0 768.1,286.0 771.5,286.0 774.8,286.0 778.1,286.0 781.4,286.0 784.8,286.0 788.1,286.0 791.4,280.0 794.8,286.0 798.1,286.0 801.4,286.0 804.8,286.0 808.1,286.0 811.4,286.0 814.8,286.0 818.1,286.0 821.4,286.0 824.8,286.0 828.1,286.0 831.4,286.0 834.7,286.0 838.1,286.0 841.4,286.0 844.7,286.0 848.1,286.0 851.4,286.0 854.7,286.0 858.1,286.0 861.4,286.0 864.7,286.0 868.1,286.0 871.4,286.0 874.7,286.0 878.0,286.0 881.4,286.0 884.7,286.0 888.0,280.0 891.4,286.0 894.7,286.0 898.0,286.0 901.4,286.0 904.7,286.0 908.0,286.0 911.4,280.0 914.7,286.0 918.0,286.0 921.3,286.0 924.7,286.0 928.0,286.0 931.3,286.0 934.7,286.0 938.0,286.0"/><text x="42" y="308" font-size="11" fill="#5a688a">19/06 12:43</text><text x="938" y="308" text-anchor="end" font-size="11" fill="#5a688a">04/07 15:30</text></svg>