<svg xmlns="http://www.w3.org/2000/svg" viewBox="0 0 960 320" width="960" height="320" font-family="Segoe UI, system-ui, -apple-system, Roboto, Helvetica, Arial, sans-serif" role="img" aria-label="Availability history per region"><rect x="0.5" y="0.5" width="959" height="319" rx="14" fill="#0d1117" stroke="#2c3a5e"/><text x="42" y="26" font-size="14" font-weight="600" fill="#e6ecff">History · 172 points</text><circle cx="47" cy="40" r="5" fill="#22c55e"/><text x="57" y="44" font-size="12" fill="#9fb0d4">Available</text><circle cx="139.8" cy="40" r="5" fill="#f59e0b"/><text x="149.8" y="44" font-size="12" fill="#9fb0d4">Saturated</text><circle cx="232.60000000000002" cy="40" r="5" fill="#ef4444"/><text x="242.60000000000002" y="44" font-size="12" fill="#9fb0d4">Error</text><circle cx="296.6" cy="40" r="5" fill="#a855f7"/><text x="306.6" y="44" font-size="12" fill="#9fb0d4">Timeout</text><line x1="42" y1="286.0" x2="938" y2="286.0" stroke="#21304f" stroke-width="1"/><text x="35" y="289.0" text-anchor="end" font-size="11" fill="#9fb0d4">0</text><line x1="42" y1="227.5" x2="938" y2="227.5" stroke="#21304f" stroke-width="1"/><text x="35" y="230.5" text-anchor="end" font-size="11" fill="#9fb0d4">10</text><line x1="42" y1="169.0" x2="938" y2="169.0" stroke="#21304f" stroke-width="1"/><text x="35" y="172.0" text-anchor="end" font-size="11" fill="#9fb0d4">21</text><line x1="42" y1="110.5" x2="938" y2="110.5" stroke="#21304f" stroke-width="1"/><text x="35" y="113.5" text-anchor="end" font-size="11" fill="#9fb0d4">32</text><line x1="42" y1="52.0" x2="938" y2="52.0" stroke="#21304f" stroke-width="1"/><text x="35" y="55.0" text-anchor="end" font-size="11" fill="#9fb0d4">42</text><polyline fill="none" stroke="#22c55e" stroke-width="2.5" stroke-linejoin="round" stroke-linecap="round" points="42.0,85.4 47.2,230.3 52.5,102.1 57.7,107.7 63.0,102.1 68.2,96.6 73.4,96.6 78.7,96.6 83.9,96.6 89.2,96.6 94.4,96.6 99.6,96.6 104.9,96.6 110.1,96.6 115.4,96.6 120.6,91.0 125.8,91.0 131.1,102.1 136.3,102.1 141.6,102.1 146.8,107.7 152.0,107.7 157.3,107.7 162.5,107.7 167.8,107.7 173.0,107.7 178.2,107.7 183.5,107.7 188.7,107.7 194.0,102.1 199.2,102.1 204.4,102.1 209.7,102.1 214.9,96.6 220.2,96.6 225.4,96.6 230.6,96.6 235.9,96.6 241.1,102.1 246.4,102.1 251.6,102.1 256.8,102.1 262.1,96.6 267.3,96.6 272.5,96.6 277.8,96.6 283.0,96.6 288.3,96.6 293.5,96.6 298.7,102.1 304.0,102.1 309.2,102.1 314.5,102.1 319.7,96.6 324.9,96.6 330.2,96.6 335.4,96.6 340.7,96.6 345.9,96.6 351.1,96.6 356.4,96.6 361.6,102.1 366.9,96.6 372.1,96.6 377.3,96.6 382.6,96.6 387.8,96.6 393.1,102.1 398.3,96.6 403.5,96.6 408.8,96.6 414.0,96.6 419.3,96.6 424.5,96.6 429.7,96.6 435.0,96.6 440.2,96.6 445.5,91.0 450.7,91.0 455.9,91.0 461.2,91.0 466.4,96.6 471.7,91.0 476.9,96.6 482.1,96.6 487.4,96.6 492.6,96.6 497.9,96.6 503.1,96.6 508.3,102.1 513.6,107.7 518.8,107.7 524.1,107.7 529.3,107.7 534.5,107.7 539.8,107.7 545.0,107.7 550.3,113.3 555.5,107.7 560.7,107.7 566.0,107.7 571.2,107.7 576.5,107.7 581.7,107.7 586.9,102.1 592.2,102.1 597.4,102.1 602.7,102.1 607.9,102.1 613.1,102.1 618.4,102.1 623.6,102.1 628.9,107.7 634.1,107.7 639.3,107.7 644.6,107.7 649.8,107.7 655.1,107.7 660.3,107.7 665.5,107.7 670.8,113.3 676.0,107.7 681.3,107.7 686.5,107.7 691.7,118.9 697.0,107.7 702.2,107.7 707.5,107.7 712.7,107.7 717.9,102.1 723.2,102.1 728.4,102.1 733.6,102.1 738.9,107.7 744.1,102.1 749.4,107.7 754.6,107.7 759.8,107.7 765.1,107.7 770.3,113.3 775.6,107.7 780.8,107.7 786.0,107.7 791.3,107.7 796.5,107.7 801.8,107.7 807.0,107.7 812.2,107.7 817.5,113.3 822.7,102.1 828.0,102.1 833.2,102.1 838.4,102.1 843.7,102.1 848.9,102.1 854.2,102.1 859.4,102.1 864.6,102.1 869.9,102.1 875.1,107.7 880.4,102.1 885.6,102.1 890.8,102.1 896.1,102.1 901.3,102.1 906.6,102.1 911.8,102.1 917.0,102.1 922.3,107.7 927.5,91.0 932.8,85.4 938.0,79.9"/><polyline fill="none" stroke="#f59e0b" stroke-width="2.5" stroke-linejoin="round" stroke-linecap="round" points="42.0,274.9 47.2,269.3 52.5,258.1 57.7,252.6 63.0,258.1 68.2,263.7 73.4,263.7 78.7,263.7 83.9,263.7 89.2,263.7 94.4,263.7 99.6,263.7 104.9,263.7 110.1,263.7 115.4,263.7 120.6,269.3 125.8,269.3 131.1,263.7 136.3,258.1 141.6,258.1 146.8,252.6 152.0,252.6 157.3,252.6 162.5,252.6 167.8,252.6 173.0,252.6 178.2,252.6 183.5,252.6 188.7,252.6 194.0,258.1 199.2,258.1 204.4,258.1 209.7,258.1 214.9,263.7 220.2,263.7 225.4,263.7 230.6,263.7 235.9,263.7 241.1,258.1 246.4,258.1 251.6,258.1 256.8,258.1 262.1,263.7 267.3,263.7 272.5,263.7 277.8,263.7 283.0,263.7 288.3,263.7 293.5,263.7 298.7,258.1 304.0,258.1 309.2,258.1 314.5,263.7 319.7,263.7 324.9,263.7 330.2,263.7 335.4,263.7 340.7,263.7 345.9,263.7 351.1,263.7 356.4,263.7 361.6,258.1 366.9,263.7 372.1,263.7 377.3,263.7 382.6,263.7 387.8,263.7 393.1,263.7 398.3,263.7 403.5,263.7 408.8,263.7 414.0,263.7 419.3,263.7 424.5,263.7 429.7,263.7 435.0,263.7 440.2,263.7 445.5,269.3 450.7,269.3 455.9,269.3 461.2,269.3 466.4,269.3 471.7,269.3 476.9,263.7 482.1,263.7 487.4,263.7 492.6,263.7 497.9,263.7 503.1,263.7 508.3,258.1 513.6,252.6 518.8,252.6 524.1,258.1 529.3,252.6 534.5,252.6 539.8,252.6 545.0,252.6 550.3,252.6 555.5,252.6 560.7,258.1 566.0,252.6 571.2,252.6 576.5,252.6 581.7,252.6 586.9,258.1 592.2,258.1 597.4,258.1 602.7,258.1 607.9,258.1 613.1,258.1 618.4,258.1 623.6,258.1 628.9,252.6 634.1,252.6 639.3,252.6 644.6,252.6 649.8,252.6 655.1,252.6 660.3,252.6 665.5,258.1 670.8,252.6 676.0,252.6 681.3,252.6 686.5,252.6 691.7,252.6 697.0,252.6 702.2,252.6 707.5,258.1 712.7,258.1 717.9,258.1 723.2,258.1 728.4,258.1 733.6,258.1 738.9,258.1 744.1,258.1 749.4,252.6 754.6,252.6 759.8,252.6 765.1,252.6 770.3,252.6 775.6,252.6 780.8,252.6 786.0,252.6 791.3,252.6 796.5,252.6 801.8,252.6 807.0,252.6 812.2,252.6 817.5,252.6 822.7,258.1 828.0,258.1 833.2,258.1 838.4,258.1 843.7,258.1 848.9,263.7 854.2,263.7 859.4,258.1 864.6,258.1 869.9,258.1 875.1,258.1 880.4,258.1 885.6,258.1 890.8,258.1 896.1,258.1 901.3,258.1 906.6,258.1 911.8,258.1 917.0,258.1 922.3,258.1 927.5,258.1 932.8,258.1 938.0,258.1"/><polyline fill="none" stroke="#ef4444" stroke-width="2.5" stroke-linejoin="round" stroke-linecap="round" points="42.0,286.0 47.2,146.7 52.5,286.0 57.7,286.0 63.0,286.0 68.2,286.0 73.4,286.0 78.7,286.0 83.9,286.0 89.2,286.0 94.4,286.0 99.6,286.0 104.9,286.0 110.1,286.0 115.4,286.0 120.6,286.0 125.8,286.0 131.1,280.4 136.3,286.0 141.6,286.0 146.8,286.0 152.0,286.0 157.3,286.0 162.5,286.0 167.8,286.0 173.0,286.0 178.2,286.0 183.5,286.0 188.7,286.0 194.0,286.0 199.2,286.0 204.4,286.0 209.7,286.0 214.9,286.0 220.2,286.0 225.4,286.0 230.6,286.0 235.9,286.0 241.1,286.0 246.4,286.0 251.6,286.0 256.8,286.0 262.1,286.0 267.3,286.0 272.5,286.0 277.8,286.0 283.0,286.0 288.3,286.0 293.5,286.0 298.7,286.0 304.0,286.0 309.2,286.0 314.5,286.0 319.7,286.0 324.9,286.0 330.2,286.0 335.4,286.0 340.7,286.0 345.9,286.0 351.1,286.0 356.4,286.0 361.6,286.0 366.9,286.0 372.1,286.0 377.3,286.0 382.6,286.0 387.8,286.0 393.1,280.4 398.3,286.0 403.5,286.0 408.8,286.0 414.0,286.0 419.3,286.0 424.5,286.0 429.7,286.0 435.0,286.0 440.2,286.0 445.5,286.0 450.7,286.0 455.9,286.0 461.2,286.0 466.4,280.4 471.7,286.0 476.9,286.0 482.1,286.0 487.4,286.0 492.6,286.0 497.9,286.0 503.1,286.0 508.3,286.0 513.6,286.0 518.8,286.0 524.1,280.4 529.3,286.0 534.5,286.0 539.8,286.0 545.0,286.0 550.3,280.4 555.5,286.0 560.7,286.0 566.0,286.0 571.2,286.0 576.5,286.0 581.7,286.0 586.9,286.0 592.2,286.0 597.4,286.0 602.7,286.0 607.9,286.0 613.1,286.0 618.4,286.0 623.6,286.0 628.9,286.0 634.1,286.0 639.3,286.0 644.6,286.0 649.8,286.0 655.1,286.0 660.3,286.0 665.5,286.0 670.8,280.4 676.0,286.0 681.3,286.0 686.5,286.0 691.7,274.9 697.0,286.0 702.2,286.0 707.5,280.4 712.7,280.4 717.9,286.0 723.2,286.0 728.4,286.0 733.6,286.0 738.9,280.4 744.1,286.0 749.4,286.0 754.6,286.0 759.8,286.0 765.1,286.0 770.3,286.0 775.6,286.0 780.8,286.0 786.0,286.0 791.3,286.0 796.5,286.0 801.8,286.0 807.0,286.0 812.2,286.0 817.5,286.0 822.7,286.0 828.0,286.0 833.2,286.0 838.4,286.0 843.7,286.0 848.9,280.4 854.2,286.0 859.4,286.0 864.6,286.0 869.9,263.7 875.1,280.4 880.4,286.0 885.6,286.0 890.8,286.0 896.1,286.0 901.3,286.0 906.6,286.0 911.8,286.0 917.0,286.0 922.3,258.1 927.5,274.9 932.8,280.4 938.0,286.0"/><polyline fill="none" stroke="#a855f7" stroke-width="2.5" stroke-linejoin="round" stroke-linecap="round" points="42.0,286.0 47.2,286.0 52.5,286.0 57.7,286.0 63.0,286.0 68.2,286.0 73.4,286.0 78.7,286.0 83.9,286.0 89.2,286.0 94.4,286.0 99.6,286.0 104.9,286.0 110.1,286.0 115.4,286.0 120.6,286.0 125.8,286.0 131.1,286.0 136.3,286.0 141.6,286.0 146.8,286.0 152.0,286.0 157.3,286.0 162.5,286.0 167.8,286.0 173.0,286.0 178.2,286.0 183.5,286.0 188.7,286.0 194.0,286.0 199.2,286.0 204.4,286.0 209.7,286.0 214.9,286.0 220.2,286.0 225.4,286.0 230.6,286.0 235.9,286.0 241.1,286.0 246.4,286.0 251.6,286.0 256.8,286.0 262.1,286.0 267.3,286.0 272.5,286.0 277.8,286.0 283.0,286.0 288.3,286.0 293.5,286.0 298.7,286.0 304.0,286.0 309.2,286.0 314.5,280.4 319.7,286.0 324.9,286.0 330.2,286.0 335.4,286.0 340.7,286.0 345.9,286.0 351.1,286.0 356.4,286.0 361.6,286.0 366.9,286.0 372.1,286.0 377.3,286.0 382.6,286.0 387.8,286.0 393.1,286.0 398.3,286.0 403.5,286.0 408.8,286.0 414.0,286.0 419.3,286.0 424.5,286.0 429.7,286.0 435.0,286.0 440.2,286.0 445.5,286.0 450.7,286.0 455.9,286.0 461.2,286.0 466.4,286.0 471.7,286.0 476.9,286.0 482.1,286.0 487.4,286.0 492.6,286.0 497.9,286.0 503.1,286.0 508.3,286.0 513.6,286.0 518.8,286.0 524.1,286.0 529.3,286.0 534.5,286.0 539.8,286.0 545.0,286.0 550.3,286.0 555.5,286.0 560.7,280.4 566.0,286.0 571.2,286.0 576.5,286.0 581.7,286.0 586.9,286.0 592.2,286.0 597.4,286.0 602.7,286.0 607.9,286.0 613.1,286.0 618.4,286.0 623.6,286.0 628.9,286.0 634.1,286.0 639.3,286.0 644.6,286.0 649.8,286.0 655.1,286.0 660.3,286.0 665.5,280.4 670.8,286.0 676.0,286.0 681.3,286.0 686.5,286.0 691.7,286.0 697.0,286.0 702.2,286.0 707.5,286.0 712.7,286.0 717.9,286.0 723.2,286.0 728.4,286.0 733.6,286.0 738.9,286.0 744.1,286.0 749.4,286.0 754.6,286.0 759.8,286.0 765.1,286.0 770.3,280.4 775.6,286.0 780.8,286.0 786.0,286.0 791.3,286.0 796.5,286.0 801.8,286.0 807.0,286.0 812.2,286.0 817.5,280.4 822.7,286.0 828.0,286.0 833.2,286.0 838.4,286.0 843.7,286.0 848.9,286.0 854.2,280.4 859.4,286.0 864.6,286.0 869.9,286.0 875.1,286.0 880.4,286.0 885.6,286.0 890.8,286.0 896.1,286.0 901.3,286.0 906.6,286.0 911.8,286.0 917.0,286.0 922.3,286.0 927.5,286.0 932.8,286.0 938.0,286.0"/><text x="42" y="308" font-size="11" fill="#9fb0d4">19/06 15:39</text><text x="938" y="308" text-anchor="end" font-size="11" fill="#9fb0d4">23/07 18:43</text></svg>