<svg xmlns="http://www.w3.org/2000/svg" viewBox="0 0 960 320" width="960" height="320" font-family="Segoe UI, system-ui, -apple-system, Roboto, Helvetica, Arial, sans-serif" role="img" aria-label="Availability history per region"><rect x="0.5" y="0.5" width="959" height="319" rx="14" fill="#0d1117" stroke="#2c3a5e"/><text x="42" y="26" font-size="14" font-weight="600" fill="#e6ecff">History · 231 points</text><circle cx="47" cy="40" r="5" fill="#22c55e"/><text x="57" y="44" font-size="12" fill="#9fb0d4">Available</text><circle cx="139.8" cy="40" r="5" fill="#f59e0b"/><text x="149.8" y="44" font-size="12" fill="#9fb0d4">Saturated</text><circle cx="232.60000000000002" cy="40" r="5" fill="#ef4444"/><text x="242.60000000000002" y="44" font-size="12" fill="#9fb0d4">Error</text><circle cx="296.6" cy="40" r="5" fill="#a855f7"/><text x="306.6" y="44" font-size="12" fill="#9fb0d4">Timeout</text><line x1="42" y1="286.0" x2="938" y2="286.0" stroke="#21304f" stroke-width="1"/><text x="35" y="289.0" text-anchor="end" font-size="11" fill="#9fb0d4">0</text><line x1="42" y1="227.5" x2="938" y2="227.5" stroke="#21304f" stroke-width="1"/><text x="35" y="230.5" text-anchor="end" font-size="11" fill="#9fb0d4">10</text><line x1="42" y1="169.0" x2="938" y2="169.0" stroke="#21304f" stroke-width="1"/><text x="35" y="172.0" text-anchor="end" font-size="11" fill="#9fb0d4">20</text><line x1="42" y1="110.5" x2="938" y2="110.5" stroke="#21304f" stroke-width="1"/><text x="35" y="113.5" text-anchor="end" font-size="11" fill="#9fb0d4">29</text><line x1="42" y1="52.0" x2="938" y2="52.0" stroke="#21304f" stroke-width="1"/><text x="35" y="55.0" text-anchor="end" font-size="11" fill="#9fb0d4">39</text><polyline fill="none" stroke="#22c55e" stroke-width="2.5" stroke-linejoin="round" stroke-linecap="round" points="42.0,70.0 45.9,70.0 49.8,88.0 53.7,88.0 57.6,76.0 61.5,76.0 65.4,76.0 69.3,70.0 73.2,76.0 77.1,70.0 81.0,64.0 84.9,58.0 88.7,58.0 92.6,58.0 96.5,58.0 100.4,58.0 104.3,58.0 108.2,58.0 112.1,58.0 116.0,58.0 119.9,58.0 123.8,58.0 127.7,58.0 131.6,58.0 135.5,58.0 139.4,58.0 143.3,58.0 147.2,58.0 151.1,58.0 155.0,58.0 158.9,58.0 162.8,70.0 166.7,76.0 170.6,94.0 174.5,64.0 178.3,64.0 182.2,58.0 186.1,58.0 190.0,58.0 193.9,70.0 197.8,76.0 201.7,76.0 205.6,82.0 209.5,82.0 213.4,82.0 217.3,82.0 221.2,76.0 225.1,64.0 229.0,70.0 232.9,70.0 236.8,82.0 240.7,76.0 244.6,76.0 248.5,82.0 252.4,76.0 256.3,76.0 260.2,76.0 264.1,64.0 267.9,64.0 271.8,76.0 275.7,76.0 279.6,76.0 283.5,88.0 287.4,70.0 291.3,64.0 295.2,58.0 299.1,58.0 303.0,70.0 306.9,70.0 310.8,70.0 314.7,76.0 318.6,70.0 322.5,70.0 326.4,70.0 330.3,70.0 334.2,76.0 338.1,82.0 342.0,76.0 345.9,70.0 349.8,70.0 353.7,70.0 357.5,70.0 361.4,76.0 365.3,70.0 369.2,70.0 373.1,70.0 377.0,70.0 380.9,70.0 384.8,70.0 388.7,70.0 392.6,70.0 396.5,70.0 400.4,70.0 404.3,70.0 408.2,70.0 412.1,70.0 416.0,70.0 419.9,70.0 423.8,70.0 427.7,70.0 431.6,70.0 435.5,70.0 439.4,70.0 443.3,70.0 447.1,70.0 451.0,70.0 454.9,70.0 458.8,70.0 462.7,70.0 466.6,70.0 470.5,70.0 474.4,70.0 478.3,70.0 482.2,70.0 486.1,70.0 490.0,70.0 493.9,70.0 497.8,70.0 501.7,70.0 505.6,70.0 509.5,70.0 513.4,70.0 517.3,70.0 521.2,70.0 525.1,70.0 529.0,70.0 532.9,70.0 536.7,70.0 540.6,70.0 544.5,70.0 548.4,70.0 552.3,70.0 556.2,70.0 560.1,70.0 564.0,70.0 567.9,70.0 571.8,70.0 575.7,70.0 579.6,70.0 583.5,70.0 587.4,70.0 591.3,70.0 595.2,70.0 599.1,70.0 603.0,70.0 606.9,70.0 610.8,70.0 614.7,70.0 618.6,70.0 622.5,70.0 626.3,70.0 630.2,76.0 634.1,70.0 638.0,70.0 641.9,70.0 645.8,70.0 649.7,70.0 653.6,76.0 657.5,76.0 661.4,88.0 665.3,88.0 669.2,88.0 673.1,94.0 677.0,94.0 680.9,94.0 684.8,94.0 688.7,88.0 692.6,88.0 696.5,82.0 700.4,82.0 704.3,82.0 708.2,88.0 712.1,88.0 715.9,94.0 719.8,82.0 723.7,82.0 727.6,82.0 731.5,82.0 735.4,88.0 739.3,88.0 743.2,94.0 747.1,94.0 751.0,88.0 754.9,88.0 758.8,88.0 762.7,94.0 766.6,94.0 770.5,106.0 774.4,94.0 778.3,94.0 782.2,94.0 786.1,94.0 790.0,88.0 793.9,88.0 797.8,82.0 801.7,76.0 805.5,76.0 809.4,76.0 813.3,76.0 817.2,76.0 821.1,76.0 825.0,70.0 828.9,70.0 832.8,70.0 836.7,76.0 840.6,88.0 844.5,82.0 848.4,70.0 852.3,70.0 856.2,70.0 860.1,76.0 864.0,76.0 867.9,76.0 871.8,82.0 875.7,70.0 879.6,76.0 883.5,64.0 887.4,70.0 891.3,58.0 895.1,58.0 899.0,58.0 902.9,58.0 906.8,58.0 910.7,64.0 914.6,58.0 918.5,64.0 922.4,58.0 926.3,58.0 930.2,58.0 934.1,58.0 938.0,64.0"/><polyline fill="none" stroke="#f59e0b" stroke-width="2.5" stroke-linejoin="round" stroke-linecap="round" points="42.0,274.0 45.9,274.0 49.8,274.0 53.7,280.0 57.6,268.0 61.5,268.0 65.4,268.0 69.3,274.0 73.2,274.0 77.1,274.0 81.0,280.0 84.9,286.0 88.7,286.0 92.6,286.0 96.5,286.0 100.4,286.0 104.3,286.0 108.2,286.0 112.1,286.0 116.0,286.0 119.9,286.0 123.8,286.0 127.7,286.0 131.6,286.0 135.5,286.0 139.4,286.0 143.3,286.0 147.2,286.0 151.1,286.0 155.0,286.0 158.9,286.0 162.8,274.0 166.7,280.0 170.6,280.0 174.5,280.0 178.3,280.0 182.2,286.0 186.1,286.0 190.0,286.0 193.9,274.0 197.8,268.0 201.7,268.0 205.6,262.0 209.5,262.0 213.4,262.0 217.3,262.0 221.2,268.0 225.1,280.0 229.0,280.0 232.9,274.0 236.8,262.0 240.7,268.0 244.6,268.0 248.5,262.0 252.4,268.0 256.3,268.0 260.2,268.0 264.1,280.0 267.9,280.0 271.8,268.0 275.7,268.0 279.6,268.0 283.5,262.0 287.4,274.0 291.3,280.0 295.2,286.0 299.1,286.0 303.0,274.0 306.9,274.0 310.8,274.0 314.7,274.0 318.6,274.0 322.5,274.0 326.4,274.0 330.3,274.0 334.2,280.0 338.1,274.0 342.0,280.0 345.9,286.0 349.8,286.0 353.7,286.0 357.5,286.0 361.4,280.0 365.3,286.0 369.2,286.0 373.1,286.0 377.0,286.0 380.9,286.0 384.8,286.0 388.7,286.0 392.6,286.0 396.5,286.0 400.4,286.0 404.3,286.0 408.2,286.0 412.1,286.0 416.0,286.0 419.9,286.0 423.8,286.0 427.7,286.0 431.6,286.0 435.5,286.0 439.4,286.0 443.3,286.0 447.1,286.0 451.0,286.0 454.9,286.0 458.8,286.0 462.7,286.0 466.6,286.0 470.5,286.0 474.4,286.0 478.3,286.0 482.2,286.0 486.1,286.0 490.0,286.0 493.9,286.0 497.8,286.0 501.7,286.0 505.6,286.0 509.5,286.0 513.4,286.0 517.3,286.0 521.2,286.0 525.1,286.0 529.0,286.0 532.9,286.0 536.7,286.0 540.6,286.0 544.5,286.0 548.4,286.0 552.3,286.0 556.2,286.0 560.1,286.0 564.0,286.0 567.9,286.0 571.8,286.0 575.7,286.0 579.6,286.0 583.5,286.0 587.4,286.0 591.3,286.0 595.2,286.0 599.1,286.0 603.0,286.0 606.9,286.0 610.8,286.0 614.7,286.0 618.6,286.0 622.5,286.0 626.3,286.0 630.2,286.0 634.1,286.0 638.0,286.0 641.9,286.0 645.8,286.0 649.7,286.0 653.6,286.0 657.5,280.0 661.4,268.0 665.3,268.0 669.2,268.0 673.1,268.0 677.0,262.0 680.9,262.0 684.8,262.0 688.7,268.0 692.6,268.0 696.5,274.0 700.4,274.0 704.3,274.0 708.2,268.0 712.1,268.0 715.9,268.0 719.8,274.0 723.7,274.0 727.6,274.0 731.5,274.0 735.4,268.0 739.3,268.0 743.2,262.0 747.1,262.0 751.0,268.0 754.9,268.0 758.8,268.0 762.7,262.0 766.6,262.0 770.5,274.0 774.4,262.0 778.3,262.0 782.2,262.0 786.1,262.0 790.0,268.0 793.9,268.0 797.8,274.0 801.7,280.0 805.5,280.0 809.4,280.0 813.3,280.0 817.2,280.0 821.1,280.0 825.0,286.0 828.9,286.0 832.8,286.0 836.7,280.0 840.6,274.0 844.5,274.0 848.4,280.0 852.3,274.0 856.2,274.0 860.1,268.0 864.0,268.0 867.9,268.0 871.8,268.0 875.7,280.0 879.6,274.0 883.5,280.0 887.4,280.0 891.3,286.0 895.1,286.0 899.0,286.0 902.9,286.0 906.8,286.0 910.7,286.0 914.6,286.0 918.5,286.0 922.4,286.0 926.3,286.0 930.2,286.0 934.1,286.0 938.0,280.0"/><polyline fill="none" stroke="#ef4444" stroke-width="2.5" stroke-linejoin="round" stroke-linecap="round" points="42.0,280.0 45.9,280.0 49.8,268.0 53.7,262.0 57.6,286.0 61.5,286.0 65.4,286.0 69.3,286.0 73.2,280.0 77.1,286.0 81.0,286.0 84.9,286.0 88.7,286.0 92.6,286.0 96.5,286.0 100.4,286.0 104.3,286.0 108.2,286.0 112.1,286.0 116.0,286.0 119.9,286.0 123.8,286.0 127.7,286.0 131.6,286.0 135.5,286.0 139.4,286.0 143.3,286.0 147.2,286.0 151.1,286.0 155.0,286.0 158.9,286.0 162.8,286.0 166.7,274.0 170.6,256.0 174.5,286.0 178.3,286.0 182.2,286.0 186.1,286.0 190.0,286.0 193.9,286.0 197.8,286.0 201.7,286.0 205.6,286.0 209.5,286.0 213.4,286.0 217.3,286.0 221.2,286.0 225.1,286.0 229.0,280.0 232.9,286.0 236.8,286.0 240.7,286.0 244.6,286.0 248.5,286.0 252.4,286.0 256.3,286.0 260.2,286.0 264.1,286.0 267.9,286.0 271.8,286.0 275.7,286.0 279.6,286.0 283.5,280.0 287.4,286.0 291.3,286.0 295.2,286.0 299.1,286.0 303.0,286.0 306.9,286.0 310.8,286.0 314.7,286.0 318.6,286.0 322.5,286.0 326.4,286.0 330.3,286.0 334.2,274.0 338.1,274.0 342.0,274.0 345.9,274.0 349.8,274.0 353.7,274.0 357.5,274.0 361.4,274.0 365.3,274.0 369.2,274.0 373.1,274.0 377.0,274.0 380.9,274.0 384.8,274.0 388.7,274.0 392.6,274.0 396.5,274.0 400.4,274.0 404.3,274.0 408.2,274.0 412.1,274.0 416.0,274.0 419.9,274.0 423.8,274.0 427.7,274.0 431.6,274.0 435.5,274.0 439.4,274.0 443.3,274.0 447.1,274.0 451.0,274.0 454.9,274.0 458.8,274.0 462.7,274.0 466.6,274.0 470.5,274.0 474.4,274.0 478.3,274.0 482.2,274.0 486.1,274.0 490.0,274.0 493.9,274.0 497.8,274.0 501.7,274.0 505.6,274.0 509.5,274.0 513.4,274.0 517.3,274.0 521.2,274.0 525.1,274.0 529.0,274.0 532.9,274.0 536.7,274.0 540.6,274.0 544.5,274.0 548.4,274.0 552.3,274.0 556.2,274.0 560.1,274.0 564.0,274.0 567.9,274.0 571.8,274.0 575.7,274.0 579.6,274.0 583.5,274.0 587.4,274.0 591.3,274.0 595.2,274.0 599.1,274.0 603.0,274.0 606.9,274.0 610.8,274.0 614.7,274.0 618.6,274.0 622.5,274.0 626.3,274.0 630.2,268.0 634.1,274.0 638.0,274.0 641.9,274.0 645.8,274.0 649.7,274.0 653.6,274.0 657.5,274.0 661.4,274.0 665.3,274.0 669.2,274.0 673.1,268.0 677.0,274.0 680.9,274.0 684.8,274.0 688.7,274.0 692.6,274.0 696.5,274.0 700.4,274.0 704.3,274.0 708.2,274.0 712.1,274.0 715.9,268.0 719.8,274.0 723.7,274.0 727.6,274.0 731.5,274.0 735.4,274.0 739.3,274.0 743.2,274.0 747.1,274.0 751.0,274.0 754.9,274.0 758.8,274.0 762.7,274.0 766.6,274.0 770.5,250.0 774.4,274.0 778.3,274.0 782.2,274.0 786.1,274.0 790.0,274.0 793.9,274.0 797.8,274.0 801.7,274.0 805.5,274.0 809.4,274.0 813.3,274.0 817.2,274.0 821.1,274.0 825.0,274.0 828.9,274.0 832.8,274.0 836.7,274.0 840.6,268.0 844.5,274.0 848.4,280.0 852.3,286.0 856.2,286.0 860.1,286.0 864.0,286.0 867.9,286.0 871.8,280.0 875.7,280.0 879.6,286.0 883.5,286.0 887.4,280.0 891.3,286.0 895.1,286.0 899.0,286.0 902.9,286.0 906.8,286.0 910.7,280.0 914.6,286.0 918.5,286.0 922.4,286.0 926.3,286.0 930.2,286.0 934.1,286.0 938.0,286.0"/><polyline fill="none" stroke="#a855f7" stroke-width="2.5" stroke-linejoin="round" stroke-linecap="round" points="42.0,286.0 45.9,286.0 49.8,286.0 53.7,286.0 57.6,286.0 61.5,286.0 65.4,286.0 69.3,286.0 73.2,286.0 77.1,286.0 81.0,286.0 84.9,286.0 88.7,286.0 92.6,286.0 96.5,286.0 100.4,286.0 104.3,286.0 108.2,286.0 112.1,286.0 116.0,286.0 119.9,286.0 123.8,286.0 127.7,286.0 131.6,286.0 135.5,286.0 139.4,286.0 143.3,286.0 147.2,286.0 151.1,286.0 155.0,286.0 158.9,286.0 162.8,286.0 166.7,286.0 170.6,286.0 174.5,286.0 178.3,286.0 182.2,286.0 186.1,286.0 190.0,286.0 193.9,286.0 197.8,286.0 201.7,286.0 205.6,286.0 209.5,286.0 213.4,286.0 217.3,286.0 221.2,286.0 225.1,286.0 229.0,286.0 232.9,286.0 236.8,286.0 240.7,286.0 244.6,286.0 248.5,286.0 252.4,286.0 256.3,286.0 260.2,286.0 264.1,286.0 267.9,286.0 271.8,286.0 275.7,286.0 279.6,286.0 283.5,286.0 287.4,286.0 291.3,286.0 295.2,286.0 299.1,286.0 303.0,286.0 306.9,286.0 310.8,286.0 314.7,280.0 318.6,286.0 322.5,286.0 326.4,286.0 330.3,286.0 334.2,286.0 338.1,286.0 342.0,286.0 345.9,286.0 349.8,286.0 353.7,286.0 357.5,286.0 361.4,286.0 365.3,286.0 369.2,286.0 373.1,286.0 377.0,286.0 380.9,286.0 384.8,286.0 388.7,286.0 392.6,286.0 396.5,286.0 400.4,286.0 404.3,286.0 408.2,286.0 412.1,286.0 416.0,286.0 419.9,286.0 423.8,286.0 427.7,286.0 431.6,286.0 435.5,286.0 439.4,286.0 443.3,286.0 447.1,286.0 451.0,286.0 454.9,286.0 458.8,286.0 462.7,286.0 466.6,286.0 470.5,286.0 474.4,286.0 478.3,286.0 482.2,286.0 486.1,286.0 490.0,286.0 493.9,286.0 497.8,286.0 501.7,286.0 505.6,286.0 509.5,286.0 513.4,286.0 517.3,286.0 521.2,286.0 525.1,286.0 529.0,286.0 532.9,286.0 536.7,286.0 540.6,286.0 544.5,286.0 548.4,286.0 552.3,286.0 556.2,286.0 560.1,286.0 564.0,286.0 567.9,286.0 571.8,286.0 575.7,286.0 579.6,286.0 583.5,286.0 587.4,286.0 591.3,286.0 595.2,286.0 599.1,286.0 603.0,286.0 606.9,286.0 610.8,286.0 614.7,286.0 618.6,286.0 622.5,286.0 626.3,286.0 630.2,286.0 634.1,286.0 638.0,286.0 641.9,286.0 645.8,286.0 649.7,286.0 653.6,280.0 657.5,286.0 661.4,286.0 665.3,286.0 669.2,286.0 673.1,286.0 677.0,286.0 680.9,286.0 684.8,286.0 688.7,286.0 692.6,286.0 696.5,286.0 700.4,286.0 704.3,286.0 708.2,286.0 712.1,286.0 715.9,286.0 719.8,286.0 723.7,286.0 727.6,286.0 731.5,286.0 735.4,286.0 739.3,286.0 743.2,286.0 747.1,286.0 751.0,286.0 754.9,286.0 758.8,286.0 762.7,286.0 766.6,286.0 770.5,286.0 774.4,286.0 778.3,286.0 782.2,286.0 786.1,286.0 790.0,286.0 793.9,286.0 797.8,286.0 801.7,286.0 805.5,286.0 809.4,286.0 813.3,286.0 817.2,286.0 821.1,286.0 825.0,286.0 828.9,286.0 832.8,286.0 836.7,286.0 840.6,286.0 844.5,286.0 848.4,286.0 852.3,286.0 856.2,286.0 860.1,286.0 864.0,286.0 867.9,286.0 871.8,286.0 875.7,286.0 879.6,280.0 883.5,286.0 887.4,286.0 891.3,286.0 895.1,286.0 899.0,286.0 902.9,286.0 906.8,286.0 910.7,286.0 914.6,286.0 918.5,280.0 922.4,286.0 926.3,286.0 930.2,286.0 934.1,286.0 938.0,286.0"/><text x="42" y="308" font-size="11" fill="#9fb0d4">19/06 12:43</text><text x="938" y="308" text-anchor="end" font-size="11" fill="#9fb0d4">02/07 09:31</text></svg>