<svg xmlns="http://www.w3.org/2000/svg" viewBox="0 0 960 320" width="960" height="320" font-family="Segoe UI, system-ui, -apple-system, Roboto, Helvetica, Arial, sans-serif" role="img" aria-label="Availability history per region"><rect x="0.5" y="0.5" width="959" height="319" rx="14" fill="#0d1117" stroke="#2c3a5e"/><text x="42" y="26" font-size="14" font-weight="600" fill="#e6ecff">History · 53 points</text><circle cx="47" cy="40" r="5" fill="#22c55e"/><text x="57" y="44" font-size="12" fill="#9fb0d4">Available</text><circle cx="139.8" cy="40" r="5" fill="#f59e0b"/><text x="149.8" y="44" font-size="12" fill="#9fb0d4">Saturated</text><circle cx="232.60000000000002" cy="40" r="5" fill="#ef4444"/><text x="242.60000000000002" y="44" font-size="12" fill="#9fb0d4">Error</text><circle cx="296.6" cy="40" r="5" fill="#a855f7"/><text x="306.6" y="44" font-size="12" fill="#9fb0d4">Timeout</text><line x1="42" y1="286.0" x2="938" y2="286.0" stroke="#21304f" stroke-width="1"/><text x="35" y="289.0" text-anchor="end" font-size="11" fill="#9fb0d4">0</text><line x1="42" y1="227.5" x2="938" y2="227.5" stroke="#21304f" stroke-width="1"/><text x="35" y="230.5" text-anchor="end" font-size="11" fill="#9fb0d4">10</text><line x1="42" y1="169.0" x2="938" y2="169.0" stroke="#21304f" stroke-width="1"/><text x="35" y="172.0" text-anchor="end" font-size="11" fill="#9fb0d4">19</text><line x1="42" y1="110.5" x2="938" y2="110.5" stroke="#21304f" stroke-width="1"/><text x="35" y="113.5" text-anchor="end" font-size="11" fill="#9fb0d4">28</text><line x1="42" y1="52.0" x2="938" y2="52.0" stroke="#21304f" stroke-width="1"/><text x="35" y="55.0" text-anchor="end" font-size="11" fill="#9fb0d4">38</text><polyline fill="none" stroke="#22c55e" stroke-width="2.5" stroke-linejoin="round" stroke-linecap="round" points="42.0,64.3 59.2,224.4 76.5,82.8 93.7,88.9 110.9,82.8 128.2,76.6 145.4,76.6 162.6,76.6 179.8,76.6 197.1,76.6 214.3,76.6 231.5,76.6 248.8,76.6 266.0,76.6 283.2,76.6 300.5,70.5 317.7,70.5 334.9,82.8 352.2,82.8 369.4,82.8 386.6,88.9 403.8,88.9 421.1,88.9 438.3,88.9 455.5,88.9 472.8,88.9 490.0,88.9 507.2,88.9 524.5,88.9 541.7,82.8 558.9,82.8 576.2,82.8 593.4,82.8 610.6,76.6 627.8,76.6 645.1,76.6 662.3,76.6 679.5,76.6 696.8,82.8 714.0,82.8 731.2,82.8 748.5,82.8 765.7,76.6 782.9,76.6 800.2,76.6 817.4,76.6 834.6,76.6 851.8,76.6 869.1,76.6 886.3,82.8 903.5,82.8 920.8,82.8 938.0,82.8"/><circle cx="42.0" cy="64.3" r="2.5" fill="#22c55e"/><circle cx="59.2" cy="224.4" r="2.5" fill="#22c55e"/><circle cx="76.5" cy="82.8" r="2.5" fill="#22c55e"/><circle cx="93.7" cy="88.9" r="2.5" fill="#22c55e"/><circle cx="110.9" cy="82.8" r="2.5" fill="#22c55e"/><circle cx="128.2" cy="76.6" r="2.5" fill="#22c55e"/><circle cx="145.4" cy="76.6" r="2.5" fill="#22c55e"/><circle cx="162.6" cy="76.6" r="2.5" fill="#22c55e"/><circle cx="179.8" cy="76.6" r="2.5" fill="#22c55e"/><circle cx="197.1" cy="76.6" r="2.5" fill="#22c55e"/><circle cx="214.3" cy="76.6" r="2.5" fill="#22c55e"/><circle cx="231.5" cy="76.6" r="2.5" fill="#22c55e"/><circle cx="248.8" cy="76.6" r="2.5" fill="#22c55e"/><circle cx="266.0" cy="76.6" r="2.5" fill="#22c55e"/><circle cx="283.2" cy="76.6" r="2.5" fill="#22c55e"/><circle cx="300.5" cy="70.5" r="2.5" fill="#22c55e"/><circle cx="317.7" cy="70.5" r="2.5" fill="#22c55e"/><circle cx="334.9" cy="82.8" r="2.5" fill="#22c55e"/><circle cx="352.2" cy="82.8" r="2.5" fill="#22c55e"/><circle cx="369.4" cy="82.8" r="2.5" fill="#22c55e"/><circle cx="386.6" cy="88.9" r="2.5" fill="#22c55e"/><circle cx="403.8" cy="88.9" r="2.5" fill="#22c55e"/><circle cx="421.1" cy="88.9" r="2.5" fill="#22c55e"/><circle cx="438.3" cy="88.9" r="2.5" fill="#22c55e"/><circle cx="455.5" cy="88.9" r="2.5" fill="#22c55e"/><circle cx="472.8" cy="88.9" r="2.5" fill="#22c55e"/><circle cx="490.0" cy="88.9" r="2.5" fill="#22c55e"/><circle cx="507.2" cy="88.9" r="2.5" fill="#22c55e"/><circle cx="524.5" cy="88.9" r="2.5" fill="#22c55e"/><circle cx="541.7" cy="82.8" r="2.5" fill="#22c55e"/><circle cx="558.9" cy="82.8" r="2.5" fill="#22c55e"/><circle cx="576.2" cy="82.8" r="2.5" fill="#22c55e"/><circle cx="593.4" cy="82.8" r="2.5" fill="#22c55e"/><circle cx="610.6" cy="76.6" r="2.5" fill="#22c55e"/><circle cx="627.8" cy="76.6" r="2.5" fill="#22c55e"/><circle cx="645.1" cy="76.6" r="2.5" fill="#22c55e"/><circle cx="662.3" cy="76.6" r="2.5" fill="#22c55e"/><circle cx="679.5" cy="76.6" r="2.5" fill="#22c55e"/><circle cx="696.8" cy="82.8" r="2.5" fill="#22c55e"/><circle cx="714.0" cy="82.8" r="2.5" fill="#22c55e"/><circle cx="731.2" cy="82.8" r="2.5" fill="#22c55e"/><circle cx="748.5" cy="82.8" r="2.5" fill="#22c55e"/><circle cx="765.7" cy="76.6" r="2.5" fill="#22c55e"/><circle cx="782.9" cy="76.6" r="2.5" fill="#22c55e"/><circle cx="800.2" cy="76.6" r="2.5" fill="#22c55e"/><circle cx="817.4" cy="76.6" r="2.5" fill="#22c55e"/><circle cx="834.6" cy="76.6" r="2.5" fill="#22c55e"/><circle cx="851.8" cy="76.6" r="2.5" fill="#22c55e"/><circle cx="869.1" cy="76.6" r="2.5" fill="#22c55e"/><circle cx="886.3" cy="82.8" r="2.5" fill="#22c55e"/><circle cx="903.5" cy="82.8" r="2.5" fill="#22c55e"/><circle cx="920.8" cy="82.8" r="2.5" fill="#22c55e"/><circle cx="938.0" cy="82.8" r="2.5" fill="#22c55e"/><polyline fill="none" stroke="#f59e0b" stroke-width="2.5" stroke-linejoin="round" stroke-linecap="round" points="42.0,273.7 59.2,267.5 76.5,255.2 93.7,249.1 110.9,255.2 128.2,261.4 145.4,261.4 162.6,261.4 179.8,261.4 197.1,261.4 214.3,261.4 231.5,261.4 248.8,261.4 266.0,261.4 283.2,261.4 300.5,267.5 317.7,267.5 334.9,261.4 352.2,255.2 369.4,255.2 386.6,249.1 403.8,249.1 421.1,249.1 438.3,249.1 455.5,249.1 472.8,249.1 490.0,249.1 507.2,249.1 524.5,249.1 541.7,255.2 558.9,255.2 576.2,255.2 593.4,255.2 610.6,261.4 627.8,261.4 645.1,261.4 662.3,261.4 679.5,261.4 696.8,255.2 714.0,255.2 731.2,255.2 748.5,255.2 765.7,261.4 782.9,261.4 800.2,261.4 817.4,261.4 834.6,261.4 851.8,261.4 869.1,261.4 886.3,255.2 903.5,255.2 920.8,255.2 938.0,261.4"/><circle cx="42.0" cy="273.7" r="2.5" fill="#f59e0b"/><circle cx="59.2" cy="267.5" r="2.5" fill="#f59e0b"/><circle cx="76.5" cy="255.2" r="2.5" fill="#f59e0b"/><circle cx="93.7" cy="249.1" r="2.5" fill="#f59e0b"/><circle cx="110.9" cy="255.2" r="2.5" fill="#f59e0b"/><circle cx="128.2" cy="261.4" r="2.5" fill="#f59e0b"/><circle cx="145.4" cy="261.4" r="2.5" fill="#f59e0b"/><circle cx="162.6" cy="261.4" r="2.5" fill="#f59e0b"/><circle cx="179.8" cy="261.4" r="2.5" fill="#f59e0b"/><circle cx="197.1" cy="261.4" r="2.5" fill="#f59e0b"/><circle cx="214.3" cy="261.4" r="2.5" fill="#f59e0b"/><circle cx="231.5" cy="261.4" r="2.5" fill="#f59e0b"/><circle cx="248.8" cy="261.4" r="2.5" fill="#f59e0b"/><circle cx="266.0" cy="261.4" r="2.5" fill="#f59e0b"/><circle cx="283.2" cy="261.4" r="2.5" fill="#f59e0b"/><circle cx="300.5" cy="267.5" r="2.5" fill="#f59e0b"/><circle cx="317.7" cy="267.5" r="2.5" fill="#f59e0b"/><circle cx="334.9" cy="261.4" r="2.5" fill="#f59e0b"/><circle cx="352.2" cy="255.2" r="2.5" fill="#f59e0b"/><circle cx="369.4" cy="255.2" r="2.5" fill="#f59e0b"/><circle cx="386.6" cy="249.1" r="2.5" fill="#f59e0b"/><circle cx="403.8" cy="249.1" r="2.5" fill="#f59e0b"/><circle cx="421.1" cy="249.1" r="2.5" fill="#f59e0b"/><circle cx="438.3" cy="249.1" r="2.5" fill="#f59e0b"/><circle cx="455.5" cy="249.1" r="2.5" fill="#f59e0b"/><circle cx="472.8" cy="249.1" r="2.5" fill="#f59e0b"/><circle cx="490.0" cy="249.1" r="2.5" fill="#f59e0b"/><circle cx="507.2" cy="249.1" r="2.5" fill="#f59e0b"/><circle cx="524.5" cy="249.1" r="2.5" fill="#f59e0b"/><circle cx="541.7" cy="255.2" r="2.5" fill="#f59e0b"/><circle cx="558.9" cy="255.2" r="2.5" fill="#f59e0b"/><circle cx="576.2" cy="255.2" r="2.5" fill="#f59e0b"/><circle cx="593.4" cy="255.2" r="2.5" fill="#f59e0b"/><circle cx="610.6" cy="261.4" r="2.5" fill="#f59e0b"/><circle cx="627.8" cy="261.4" r="2.5" fill="#f59e0b"/><circle cx="645.1" cy="261.4" r="2.5" fill="#f59e0b"/><circle cx="662.3" cy="261.4" r="2.5" fill="#f59e0b"/><circle cx="679.5" cy="261.4" r="2.5" fill="#f59e0b"/><circle cx="696.8" cy="255.2" r="2.5" fill="#f59e0b"/><circle cx="714.0" cy="255.2" r="2.5" fill="#f59e0b"/><circle cx="731.2" cy="255.2" r="2.5" fill="#f59e0b"/><circle cx="748.5" cy="255.2" r="2.5" fill="#f59e0b"/><circle cx="765.7" cy="261.4" r="2.5" fill="#f59e0b"/><circle cx="782.9" cy="261.4" r="2.5" fill="#f59e0b"/><circle cx="800.2" cy="261.4" r="2.5" fill="#f59e0b"/><circle cx="817.4" cy="261.4" r="2.5" fill="#f59e0b"/><circle cx="834.6" cy="261.4" r="2.5" fill="#f59e0b"/><circle cx="851.8" cy="261.4" r="2.5" fill="#f59e0b"/><circle cx="869.1" cy="261.4" r="2.5" fill="#f59e0b"/><circle cx="886.3" cy="255.2" r="2.5" fill="#f59e0b"/><circle cx="903.5" cy="255.2" r="2.5" fill="#f59e0b"/><circle cx="920.8" cy="255.2" r="2.5" fill="#f59e0b"/><circle cx="938.0" cy="261.4" r="2.5" fill="#f59e0b"/><polyline fill="none" stroke="#ef4444" stroke-width="2.5" stroke-linejoin="round" stroke-linecap="round" points="42.0,286.0 59.2,132.1 76.5,286.0 93.7,286.0 110.9,286.0 128.2,286.0 145.4,286.0 162.6,286.0 179.8,286.0 197.1,286.0 214.3,286.0 231.5,286.0 248.8,286.0 266.0,286.0 283.2,286.0 300.5,286.0 317.7,286.0 334.9,279.8 352.2,286.0 369.4,286.0 386.6,286.0 403.8,286.0 421.1,286.0 438.3,286.0 455.5,286.0 472.8,286.0 490.0,286.0 507.2,286.0 524.5,286.0 541.7,286.0 558.9,286.0 576.2,286.0 593.4,286.0 610.6,286.0 627.8,286.0 645.1,286.0 662.3,286.0 679.5,286.0 696.8,286.0 714.0,286.0 731.2,286.0 748.5,286.0 765.7,286.0 782.9,286.0 800.2,286.0 817.4,286.0 834.6,286.0 851.8,286.0 869.1,286.0 886.3,286.0 903.5,286.0 920.8,286.0 938.0,286.0"/><circle cx="42.0" cy="286.0" r="2.5" fill="#ef4444"/><circle cx="59.2" cy="132.1" r="2.5" fill="#ef4444"/><circle cx="76.5" cy="286.0" r="2.5" fill="#ef4444"/><circle cx="93.7" cy="286.0" r="2.5" fill="#ef4444"/><circle cx="110.9" cy="286.0" r="2.5" fill="#ef4444"/><circle cx="128.2" cy="286.0" r="2.5" fill="#ef4444"/><circle cx="145.4" cy="286.0" r="2.5" fill="#ef4444"/><circle cx="162.6" cy="286.0" r="2.5" fill="#ef4444"/><circle cx="179.8" cy="286.0" r="2.5" fill="#ef4444"/><circle cx="197.1" cy="286.0" r="2.5" fill="#ef4444"/><circle cx="214.3" cy="286.0" r="2.5" fill="#ef4444"/><circle cx="231.5" cy="286.0" r="2.5" fill="#ef4444"/><circle cx="248.8" cy="286.0" r="2.5" fill="#ef4444"/><circle cx="266.0" cy="286.0" r="2.5" fill="#ef4444"/><circle cx="283.2" cy="286.0" r="2.5" fill="#ef4444"/><circle cx="300.5" cy="286.0" r="2.5" fill="#ef4444"/><circle cx="317.7" cy="286.0" r="2.5" fill="#ef4444"/><circle cx="334.9" cy="279.8" r="2.5" fill="#ef4444"/><circle cx="352.2" cy="286.0" r="2.5" fill="#ef4444"/><circle cx="369.4" cy="286.0" r="2.5" fill="#ef4444"/><circle cx="386.6" cy="286.0" r="2.5" fill="#ef4444"/><circle cx="403.8" cy="286.0" r="2.5" fill="#ef4444"/><circle cx="421.1" cy="286.0" r="2.5" fill="#ef4444"/><circle cx="438.3" cy="286.0" r="2.5" fill="#ef4444"/><circle cx="455.5" cy="286.0" r="2.5" fill="#ef4444"/><circle cx="472.8" cy="286.0" r="2.5" fill="#ef4444"/><circle cx="490.0" cy="286.0" r="2.5" fill="#ef4444"/><circle cx="507.2" cy="286.0" r="2.5" fill="#ef4444"/><circle cx="524.5" cy="286.0" r="2.5" fill="#ef4444"/><circle cx="541.7" cy="286.0" r="2.5" fill="#ef4444"/><circle cx="558.9" cy="286.0" r="2.5" fill="#ef4444"/><circle cx="576.2" cy="286.0" r="2.5" fill="#ef4444"/><circle cx="593.4" cy="286.0" r="2.5" fill="#ef4444"/><circle cx="610.6" cy="286.0" r="2.5" fill="#ef4444"/><circle cx="627.8" cy="286.0" r="2.5" fill="#ef4444"/><circle cx="645.1" cy="286.0" r="2.5" fill="#ef4444"/><circle cx="662.3" cy="286.0" r="2.5" fill="#ef4444"/><circle cx="679.5" cy="286.0" r="2.5" fill="#ef4444"/><circle cx="696.8" cy="286.0" r="2.5" fill="#ef4444"/><circle cx="714.0" cy="286.0" r="2.5" fill="#ef4444"/><circle cx="731.2" cy="286.0" r="2.5" fill="#ef4444"/><circle cx="748.5" cy="286.0" r="2.5" fill="#ef4444"/><circle cx="765.7" cy="286.0" r="2.5" fill="#ef4444"/><circle cx="782.9" cy="286.0" r="2.5" fill="#ef4444"/><circle cx="800.2" cy="286.0" r="2.5" fill="#ef4444"/><circle cx="817.4" cy="286.0" r="2.5" fill="#ef4444"/><circle cx="834.6" cy="286.0" r="2.5" fill="#ef4444"/><circle cx="851.8" cy="286.0" r="2.5" fill="#ef4444"/><circle cx="869.1" cy="286.0" r="2.5" fill="#ef4444"/><circle cx="886.3" cy="286.0" r="2.5" fill="#ef4444"/><circle cx="903.5" cy="286.0" r="2.5" fill="#ef4444"/><circle cx="920.8" cy="286.0" r="2.5" fill="#ef4444"/><circle cx="938.0" cy="286.0" r="2.5" fill="#ef4444"/><polyline fill="none" stroke="#a855f7" stroke-width="2.5" stroke-linejoin="round" stroke-linecap="round" points="42.0,286.0 59.2,286.0 76.5,286.0 93.7,286.0 110.9,286.0 128.2,286.0 145.4,286.0 162.6,286.0 179.8,286.0 197.1,286.0 214.3,286.0 231.5,286.0 248.8,286.0 266.0,286.0 283.2,286.0 300.5,286.0 317.7,286.0 334.9,286.0 352.2,286.0 369.4,286.0 386.6,286.0 403.8,286.0 421.1,286.0 438.3,286.0 455.5,286.0 472.8,286.0 490.0,286.0 507.2,286.0 524.5,286.0 541.7,286.0 558.9,286.0 576.2,286.0 593.4,286.0 610.6,286.0 627.8,286.0 645.1,286.0 662.3,286.0 679.5,286.0 696.8,286.0 714.0,286.0 731.2,286.0 748.5,286.0 765.7,286.0 782.9,286.0 800.2,286.0 817.4,286.0 834.6,286.0 851.8,286.0 869.1,286.0 886.3,286.0 903.5,286.0 920.8,286.0 938.0,279.8"/><circle cx="42.0" cy="286.0" r="2.5" fill="#a855f7"/><circle cx="59.2" cy="286.0" r="2.5" fill="#a855f7"/><circle cx="76.5" cy="286.0" r="2.5" fill="#a855f7"/><circle cx="93.7" cy="286.0" r="2.5" fill="#a855f7"/><circle cx="110.9" cy="286.0" r="2.5" fill="#a855f7"/><circle cx="128.2" cy="286.0" r="2.5" fill="#a855f7"/><circle cx="145.4" cy="286.0" r="2.5" fill="#a855f7"/><circle cx="162.6" cy="286.0" r="2.5" fill="#a855f7"/><circle cx="179.8" cy="286.0" r="2.5" fill="#a855f7"/><circle cx="197.1" cy="286.0" r="2.5" fill="#a855f7"/><circle cx="214.3" cy="286.0" r="2.5" fill="#a855f7"/><circle cx="231.5" cy="286.0" r="2.5" fill="#a855f7"/><circle cx="248.8" cy="286.0" r="2.5" fill="#a855f7"/><circle cx="266.0" cy="286.0" r="2.5" fill="#a855f7"/><circle cx="283.2" cy="286.0" r="2.5" fill="#a855f7"/><circle cx="300.5" cy="286.0" r="2.5" fill="#a855f7"/><circle cx="317.7" cy="286.0" r="2.5" fill="#a855f7"/><circle cx="334.9" cy="286.0" r="2.5" fill="#a855f7"/><circle cx="352.2" cy="286.0" r="2.5" fill="#a855f7"/><circle cx="369.4" cy="286.0" r="2.5" fill="#a855f7"/><circle cx="386.6" cy="286.0" r="2.5" fill="#a855f7"/><circle cx="403.8" cy="286.0" r="2.5" fill="#a855f7"/><circle cx="421.1" cy="286.0" r="2.5" fill="#a855f7"/><circle cx="438.3" cy="286.0" r="2.5" fill="#a855f7"/><circle cx="455.5" cy="286.0" r="2.5" fill="#a855f7"/><circle cx="472.8" cy="286.0" r="2.5" fill="#a855f7"/><circle cx="490.0" cy="286.0" r="2.5" fill="#a855f7"/><circle cx="507.2" cy="286.0" r="2.5" fill="#a855f7"/><circle cx="524.5" cy="286.0" r="2.5" fill="#a855f7"/><circle cx="541.7" cy="286.0" r="2.5" fill="#a855f7"/><circle cx="558.9" cy="286.0" r="2.5" fill="#a855f7"/><circle cx="576.2" cy="286.0" r="2.5" fill="#a855f7"/><circle cx="593.4" cy="286.0" r="2.5" fill="#a855f7"/><circle cx="610.6" cy="286.0" r="2.5" fill="#a855f7"/><circle cx="627.8" cy="286.0" r="2.5" fill="#a855f7"/><circle cx="645.1" cy="286.0" r="2.5" fill="#a855f7"/><circle cx="662.3" cy="286.0" r="2.5" fill="#a855f7"/><circle cx="679.5" cy="286.0" r="2.5" fill="#a855f7"/><circle cx="696.8" cy="286.0" r="2.5" fill="#a855f7"/><circle cx="714.0" cy="286.0" r="2.5" fill="#a855f7"/><circle cx="731.2" cy="286.0" r="2.5" fill="#a855f7"/><circle cx="748.5" cy="286.0" r="2.5" fill="#a855f7"/><circle cx="765.7" cy="286.0" r="2.5" fill="#a855f7"/><circle cx="782.9" cy="286.0" r="2.5" fill="#a855f7"/><circle cx="800.2" cy="286.0" r="2.5" fill="#a855f7"/><circle cx="817.4" cy="286.0" r="2.5" fill="#a855f7"/><circle cx="834.6" cy="286.0" r="2.5" fill="#a855f7"/><circle cx="851.8" cy="286.0" r="2.5" fill="#a855f7"/><circle cx="869.1" cy="286.0" r="2.5" fill="#a855f7"/><circle cx="886.3" cy="286.0" r="2.5" fill="#a855f7"/><circle cx="903.5" cy="286.0" r="2.5" fill="#a855f7"/><circle cx="920.8" cy="286.0" r="2.5" fill="#a855f7"/><circle cx="938.0" cy="279.8" r="2.5" fill="#a855f7"/><text x="42" y="308" font-size="11" fill="#9fb0d4">19/06 15:39</text><text x="938" y="308" text-anchor="end" font-size="11" fill="#9fb0d4">18/07 18:35</text></svg>