<svg xmlns="http://www.w3.org/2000/svg" viewBox="0 0 960 320" width="960" height="320" font-family="Segoe UI, system-ui, -apple-system, Roboto, Helvetica, Arial, sans-serif" role="img" aria-label="Availability history per region"><rect x="0.5" y="0.5" width="959" height="319" rx="14" fill="#ffffff" stroke="#dce3f1"/><text x="42" y="26" font-size="14" font-weight="600" fill="#14203a">History · 42 points</text><circle cx="47" cy="40" r="5" fill="#22c55e"/><text x="57" y="44" font-size="12" fill="#5a688a">Available</text><circle cx="139.8" cy="40" r="5" fill="#f59e0b"/><text x="149.8" y="44" font-size="12" fill="#5a688a">Saturated</text><circle cx="232.60000000000002" cy="40" r="5" fill="#ef4444"/><text x="242.60000000000002" y="44" font-size="12" fill="#5a688a">Error</text><line x1="42" y1="286.0" x2="938" y2="286.0" stroke="#eef2f7" stroke-width="1"/><text x="35" y="289.0" text-anchor="end" font-size="11" fill="#5a688a">0</text><line x1="42" y1="227.5" x2="938" y2="227.5" stroke="#eef2f7" stroke-width="1"/><text x="35" y="230.5" text-anchor="end" font-size="11" fill="#5a688a">10</text><line x1="42" y1="169.0" x2="938" y2="169.0" stroke="#eef2f7" stroke-width="1"/><text x="35" y="172.0" text-anchor="end" font-size="11" fill="#5a688a">19</text><line x1="42" y1="110.5" x2="938" y2="110.5" stroke="#eef2f7" stroke-width="1"/><text x="35" y="113.5" text-anchor="end" font-size="11" fill="#5a688a">28</text><line x1="42" y1="52.0" x2="938" y2="52.0" stroke="#eef2f7" stroke-width="1"/><text x="35" y="55.0" text-anchor="end" font-size="11" fill="#5a688a">38</text><polyline fill="none" stroke="#22c55e" stroke-width="2.5" stroke-linejoin="round" stroke-linecap="round" points="42.0,64.3 63.9,224.4 85.7,82.8 107.6,88.9 129.4,82.8 151.3,76.6 173.1,76.6 195.0,76.6 216.8,76.6 238.7,76.6 260.5,76.6 282.4,76.6 304.2,76.6 326.1,76.6 348.0,76.6 369.8,70.5 391.7,70.5 413.5,82.8 435.4,82.8 457.2,82.8 479.1,88.9 500.9,88.9 522.8,88.9 544.6,88.9 566.5,88.9 588.3,88.9 610.2,88.9 632.0,88.9 653.9,88.9 675.8,82.8 697.6,82.8 719.5,82.8 741.3,82.8 763.2,76.6 785.0,76.6 806.9,76.6 828.7,76.6 850.6,76.6 872.4,82.8 894.3,82.8 916.1,82.8 938.0,82.8"/><circle cx="42.0" cy="64.3" r="2.5" fill="#22c55e"/><circle cx="63.9" cy="224.4" r="2.5" fill="#22c55e"/><circle cx="85.7" cy="82.8" r="2.5" fill="#22c55e"/><circle cx="107.6" cy="88.9" r="2.5" fill="#22c55e"/><circle cx="129.4" cy="82.8" r="2.5" fill="#22c55e"/><circle cx="151.3" cy="76.6" r="2.5" fill="#22c55e"/><circle cx="173.1" cy="76.6" r="2.5" fill="#22c55e"/><circle cx="195.0" cy="76.6" r="2.5" fill="#22c55e"/><circle cx="216.8" cy="76.6" r="2.5" fill="#22c55e"/><circle cx="238.7" cy="76.6" r="2.5" fill="#22c55e"/><circle cx="260.5" cy="76.6" r="2.5" fill="#22c55e"/><circle cx="282.4" cy="76.6" r="2.5" fill="#22c55e"/><circle cx="304.2" cy="76.6" r="2.5" fill="#22c55e"/><circle cx="326.1" cy="76.6" r="2.5" fill="#22c55e"/><circle cx="348.0" cy="76.6" r="2.5" fill="#22c55e"/><circle cx="369.8" cy="70.5" r="2.5" fill="#22c55e"/><circle cx="391.7" cy="70.5" r="2.5" fill="#22c55e"/><circle cx="413.5" cy="82.8" r="2.5" fill="#22c55e"/><circle cx="435.4" cy="82.8" r="2.5" fill="#22c55e"/><circle cx="457.2" cy="82.8" r="2.5" fill="#22c55e"/><circle cx="479.1" cy="88.9" r="2.5" fill="#22c55e"/><circle cx="500.9" cy="88.9" r="2.5" fill="#22c55e"/><circle cx="522.8" cy="88.9" r="2.5" fill="#22c55e"/><circle cx="544.6" cy="88.9" r="2.5" fill="#22c55e"/><circle cx="566.5" cy="88.9" r="2.5" fill="#22c55e"/><circle cx="588.3" cy="88.9" r="2.5" fill="#22c55e"/><circle cx="610.2" cy="88.9" r="2.5" fill="#22c55e"/><circle cx="632.0" cy="88.9" r="2.5" fill="#22c55e"/><circle cx="653.9" cy="88.9" r="2.5" fill="#22c55e"/><circle cx="675.8" cy="82.8" r="2.5" fill="#22c55e"/><circle cx="697.6" cy="82.8" r="2.5" fill="#22c55e"/><circle cx="719.5" cy="82.8" r="2.5" fill="#22c55e"/><circle cx="741.3" cy="82.8" r="2.5" fill="#22c55e"/><circle cx="763.2" cy="76.6" r="2.5" fill="#22c55e"/><circle cx="785.0" cy="76.6" r="2.5" fill="#22c55e"/><circle cx="806.9" cy="76.6" r="2.5" fill="#22c55e"/><circle cx="828.7" cy="76.6" r="2.5" fill="#22c55e"/><circle cx="850.6" cy="76.6" r="2.5" fill="#22c55e"/><circle cx="872.4" cy="82.8" r="2.5" fill="#22c55e"/><circle cx="894.3" cy="82.8" r="2.5" fill="#22c55e"/><circle cx="916.1" cy="82.8" r="2.5" fill="#22c55e"/><circle cx="938.0" cy="82.8" r="2.5" fill="#22c55e"/><polyline fill="none" stroke="#f59e0b" stroke-width="2.5" stroke-linejoin="round" stroke-linecap="round" points="42.0,273.7 63.9,267.5 85.7,255.2 107.6,249.1 129.4,255.2 151.3,261.4 173.1,261.4 195.0,261.4 216.8,261.4 238.7,261.4 260.5,261.4 282.4,261.4 304.2,261.4 326.1,261.4 348.0,261.4 369.8,267.5 391.7,267.5 413.5,261.4 435.4,255.2 457.2,255.2 479.1,249.1 500.9,249.1 522.8,249.1 544.6,249.1 566.5,249.1 588.3,249.1 610.2,249.1 632.0,249.1 653.9,249.1 675.8,255.2 697.6,255.2 719.5,255.2 741.3,255.2 763.2,261.4 785.0,261.4 806.9,261.4 828.7,261.4 850.6,261.4 872.4,255.2 894.3,255.2 916.1,255.2 938.0,255.2"/><circle cx="42.0" cy="273.7" r="2.5" fill="#f59e0b"/><circle cx="63.9" cy="267.5" r="2.5" fill="#f59e0b"/><circle cx="85.7" cy="255.2" r="2.5" fill="#f59e0b"/><circle cx="107.6" cy="249.1" r="2.5" fill="#f59e0b"/><circle cx="129.4" cy="255.2" r="2.5" fill="#f59e0b"/><circle cx="151.3" cy="261.4" r="2.5" fill="#f59e0b"/><circle cx="173.1" cy="261.4" r="2.5" fill="#f59e0b"/><circle cx="195.0" cy="261.4" r="2.5" fill="#f59e0b"/><circle cx="216.8" cy="261.4" r="2.5" fill="#f59e0b"/><circle cx="238.7" cy="261.4" r="2.5" fill="#f59e0b"/><circle cx="260.5" cy="261.4" r="2.5" fill="#f59e0b"/><circle cx="282.4" cy="261.4" r="2.5" fill="#f59e0b"/><circle cx="304.2" cy="261.4" r="2.5" fill="#f59e0b"/><circle cx="326.1" cy="261.4" r="2.5" fill="#f59e0b"/><circle cx="348.0" cy="261.4" r="2.5" fill="#f59e0b"/><circle cx="369.8" cy="267.5" r="2.5" fill="#f59e0b"/><circle cx="391.7" cy="267.5" r="2.5" fill="#f59e0b"/><circle cx="413.5" cy="261.4" r="2.5" fill="#f59e0b"/><circle cx="435.4" cy="255.2" r="2.5" fill="#f59e0b"/><circle cx="457.2" cy="255.2" r="2.5" fill="#f59e0b"/><circle cx="479.1" cy="249.1" r="2.5" fill="#f59e0b"/><circle cx="500.9" cy="249.1" r="2.5" fill="#f59e0b"/><circle cx="522.8" cy="249.1" r="2.5" fill="#f59e0b"/><circle cx="544.6" cy="249.1" r="2.5" fill="#f59e0b"/><circle cx="566.5" cy="249.1" r="2.5" fill="#f59e0b"/><circle cx="588.3" cy="249.1" r="2.5" fill="#f59e0b"/><circle cx="610.2" cy="249.1" r="2.5" fill="#f59e0b"/><circle cx="632.0" cy="249.1" r="2.5" fill="#f59e0b"/><circle cx="653.9" cy="249.1" r="2.5" fill="#f59e0b"/><circle cx="675.8" cy="255.2" r="2.5" fill="#f59e0b"/><circle cx="697.6" cy="255.2" r="2.5" fill="#f59e0b"/><circle cx="719.5" cy="255.2" r="2.5" fill="#f59e0b"/><circle cx="741.3" cy="255.2" r="2.5" fill="#f59e0b"/><circle cx="763.2" cy="261.4" r="2.5" fill="#f59e0b"/><circle cx="785.0" cy="261.4" r="2.5" fill="#f59e0b"/><circle cx="806.9" cy="261.4" r="2.5" fill="#f59e0b"/><circle cx="828.7" cy="261.4" r="2.5" fill="#f59e0b"/><circle cx="850.6" cy="261.4" r="2.5" fill="#f59e0b"/><circle cx="872.4" cy="255.2" r="2.5" fill="#f59e0b"/><circle cx="894.3" cy="255.2" r="2.5" fill="#f59e0b"/><circle cx="916.1" cy="255.2" r="2.5" fill="#f59e0b"/><circle cx="938.0" cy="255.2" r="2.5" fill="#f59e0b"/><polyline fill="none" stroke="#ef4444" stroke-width="2.5" stroke-linejoin="round" stroke-linecap="round" points="42.0,286.0 63.9,132.1 85.7,286.0 107.6,286.0 129.4,286.0 151.3,286.0 173.1,286.0 195.0,286.0 216.8,286.0 238.7,286.0 260.5,286.0 282.4,286.0 304.2,286.0 326.1,286.0 348.0,286.0 369.8,286.0 391.7,286.0 413.5,279.8 435.4,286.0 457.2,286.0 479.1,286.0 500.9,286.0 522.8,286.0 544.6,286.0 566.5,286.0 588.3,286.0 610.2,286.0 632.0,286.0 653.9,286.0 675.8,286.0 697.6,286.0 719.5,286.0 741.3,286.0 763.2,286.0 785.0,286.0 806.9,286.0 828.7,286.0 850.6,286.0 872.4,286.0 894.3,286.0 916.1,286.0 938.0,286.0"/><circle cx="42.0" cy="286.0" r="2.5" fill="#ef4444"/><circle cx="63.9" cy="132.1" r="2.5" fill="#ef4444"/><circle cx="85.7" cy="286.0" r="2.5" fill="#ef4444"/><circle cx="107.6" cy="286.0" r="2.5" fill="#ef4444"/><circle cx="129.4" cy="286.0" r="2.5" fill="#ef4444"/><circle cx="151.3" cy="286.0" r="2.5" fill="#ef4444"/><circle cx="173.1" cy="286.0" r="2.5" fill="#ef4444"/><circle cx="195.0" cy="286.0" r="2.5" fill="#ef4444"/><circle cx="216.8" cy="286.0" r="2.5" fill="#ef4444"/><circle cx="238.7" cy="286.0" r="2.5" fill="#ef4444"/><circle cx="260.5" cy="286.0" r="2.5" fill="#ef4444"/><circle cx="282.4" cy="286.0" r="2.5" fill="#ef4444"/><circle cx="304.2" cy="286.0" r="2.5" fill="#ef4444"/><circle cx="326.1" cy="286.0" r="2.5" fill="#ef4444"/><circle cx="348.0" cy="286.0" r="2.5" fill="#ef4444"/><circle cx="369.8" cy="286.0" r="2.5" fill="#ef4444"/><circle cx="391.7" cy="286.0" r="2.5" fill="#ef4444"/><circle cx="413.5" cy="279.8" r="2.5" fill="#ef4444"/><circle cx="435.4" cy="286.0" r="2.5" fill="#ef4444"/><circle cx="457.2" cy="286.0" r="2.5" fill="#ef4444"/><circle cx="479.1" cy="286.0" r="2.5" fill="#ef4444"/><circle cx="500.9" cy="286.0" r="2.5" fill="#ef4444"/><circle cx="522.8" cy="286.0" r="2.5" fill="#ef4444"/><circle cx="544.6" cy="286.0" r="2.5" fill="#ef4444"/><circle cx="566.5" cy="286.0" r="2.5" fill="#ef4444"/><circle cx="588.3" cy="286.0" r="2.5" fill="#ef4444"/><circle cx="610.2" cy="286.0" r="2.5" fill="#ef4444"/><circle cx="632.0" cy="286.0" r="2.5" fill="#ef4444"/><circle cx="653.9" cy="286.0" r="2.5" fill="#ef4444"/><circle cx="675.8" cy="286.0" r="2.5" fill="#ef4444"/><circle cx="697.6" cy="286.0" r="2.5" fill="#ef4444"/><circle cx="719.5" cy="286.0" r="2.5" fill="#ef4444"/><circle cx="741.3" cy="286.0" r="2.5" fill="#ef4444"/><circle cx="763.2" cy="286.0" r="2.5" fill="#ef4444"/><circle cx="785.0" cy="286.0" r="2.5" fill="#ef4444"/><circle cx="806.9" cy="286.0" r="2.5" fill="#ef4444"/><circle cx="828.7" cy="286.0" r="2.5" fill="#ef4444"/><circle cx="850.6" cy="286.0" r="2.5" fill="#ef4444"/><circle cx="872.4" cy="286.0" r="2.5" fill="#ef4444"/><circle cx="894.3" cy="286.0" r="2.5" fill="#ef4444"/><circle cx="916.1" cy="286.0" r="2.5" fill="#ef4444"/><circle cx="938.0" cy="286.0" r="2.5" fill="#ef4444"/><text x="42" y="308" font-size="11" fill="#5a688a">19/06 15:39</text><text x="938" y="308" text-anchor="end" font-size="11" fill="#5a688a">18/07 07:29</text></svg>