<svg xmlns="http://www.w3.org/2000/svg" viewBox="0 0 960 320" width="960" height="320" font-family="Segoe UI, system-ui, -apple-system, Roboto, Helvetica, Arial, sans-serif" role="img" aria-label="Availability history per region"><rect x="0.5" y="0.5" width="959" height="319" rx="14" fill="#0d1117" stroke="#2c3a5e"/><text x="42" y="26" font-size="14" font-weight="600" fill="#e6ecff">History · 152 points</text><circle cx="47" cy="40" r="5" fill="#22c55e"/><text x="57" y="44" font-size="12" fill="#9fb0d4">Available</text><circle cx="139.8" cy="40" r="5" fill="#f59e0b"/><text x="149.8" y="44" font-size="12" fill="#9fb0d4">Saturated</text><circle cx="232.60000000000002" cy="40" r="5" fill="#ef4444"/><text x="242.60000000000002" y="44" font-size="12" fill="#9fb0d4">Error</text><circle cx="296.6" cy="40" r="5" fill="#a855f7"/><text x="306.6" y="44" font-size="12" fill="#9fb0d4">Timeout</text><line x1="42" y1="286.0" x2="938" y2="286.0" stroke="#21304f" stroke-width="1"/><text x="35" y="289.0" text-anchor="end" font-size="11" fill="#9fb0d4">0</text><line x1="42" y1="227.5" x2="938" y2="227.5" stroke="#21304f" stroke-width="1"/><text x="35" y="230.5" text-anchor="end" font-size="11" fill="#9fb0d4">10</text><line x1="42" y1="169.0" x2="938" y2="169.0" stroke="#21304f" stroke-width="1"/><text x="35" y="172.0" text-anchor="end" font-size="11" fill="#9fb0d4">19</text><line x1="42" y1="110.5" x2="938" y2="110.5" stroke="#21304f" stroke-width="1"/><text x="35" y="113.5" text-anchor="end" font-size="11" fill="#9fb0d4">28</text><line x1="42" y1="52.0" x2="938" y2="52.0" stroke="#21304f" stroke-width="1"/><text x="35" y="55.0" text-anchor="end" font-size="11" fill="#9fb0d4">38</text><polyline fill="none" stroke="#22c55e" stroke-width="2.5" stroke-linejoin="round" stroke-linecap="round" points="42.0,64.3 47.9,224.4 53.9,82.8 59.8,88.9 65.7,82.8 71.7,76.6 77.6,76.6 83.5,76.6 89.5,76.6 95.4,76.6 101.3,76.6 107.3,76.6 113.2,76.6 119.1,76.6 125.1,76.6 131.0,70.5 136.9,70.5 142.9,82.8 148.8,82.8 154.7,82.8 160.7,88.9 166.6,88.9 172.5,88.9 178.5,88.9 184.4,88.9 190.3,88.9 196.3,88.9 202.2,88.9 208.1,88.9 214.1,82.8 220.0,82.8 225.9,82.8 231.9,82.8 237.8,76.6 243.7,76.6 249.7,76.6 255.6,76.6 261.5,76.6 267.5,82.8 273.4,82.8 279.4,82.8 285.3,82.8 291.2,76.6 297.2,76.6 303.1,76.6 309.0,76.6 315.0,76.6 320.9,76.6 326.8,76.6 332.8,82.8 338.7,82.8 344.6,82.8 350.6,82.8 356.5,76.6 362.4,76.6 368.4,76.6 374.3,76.6 380.2,76.6 386.2,76.6 392.1,76.6 398.0,76.6 404.0,82.8 409.9,76.6 415.8,76.6 421.8,76.6 427.7,76.6 433.6,76.6 439.6,82.8 445.5,76.6 451.4,76.6 457.4,76.6 463.3,76.6 469.2,76.6 475.2,76.6 481.1,76.6 487.0,76.6 493.0,76.6 498.9,70.5 504.8,70.5 510.8,70.5 516.7,70.5 522.6,76.6 528.6,70.5 534.5,76.6 540.4,76.6 546.4,76.6 552.3,76.6 558.2,76.6 564.2,76.6 570.1,82.8 576.0,88.9 582.0,88.9 587.9,88.9 593.8,88.9 599.8,88.9 605.7,88.9 611.6,88.9 617.6,95.1 623.5,88.9 629.4,88.9 635.4,88.9 641.3,88.9 647.2,88.9 653.2,88.9 659.1,82.8 665.0,82.8 671.0,82.8 676.9,82.8 682.8,82.8 688.8,82.8 694.7,82.8 700.6,82.8 706.6,88.9 712.5,88.9 718.5,88.9 724.4,88.9 730.3,88.9 736.3,88.9 742.2,88.9 748.1,88.9 754.1,95.1 760.0,88.9 765.9,88.9 771.9,88.9 777.8,101.3 783.7,88.9 789.7,88.9 795.6,88.9 801.5,88.9 807.5,82.8 813.4,82.8 819.3,82.8 825.3,82.8 831.2,88.9 837.1,82.8 843.1,88.9 849.0,88.9 854.9,88.9 860.9,88.9 866.8,95.1 872.7,88.9 878.7,88.9 884.6,88.9 890.5,88.9 896.5,88.9 902.4,88.9 908.3,88.9 914.3,88.9 920.2,95.1 926.1,82.8 932.1,82.8 938.0,82.8"/><polyline fill="none" stroke="#f59e0b" stroke-width="2.5" stroke-linejoin="round" stroke-linecap="round" points="42.0,273.7 47.9,267.5 53.9,255.2 59.8,249.1 65.7,255.2 71.7,261.4 77.6,261.4 83.5,261.4 89.5,261.4 95.4,261.4 101.3,261.4 107.3,261.4 113.2,261.4 119.1,261.4 125.1,261.4 131.0,267.5 136.9,267.5 142.9,261.4 148.8,255.2 154.7,255.2 160.7,249.1 166.6,249.1 172.5,249.1 178.5,249.1 184.4,249.1 190.3,249.1 196.3,249.1 202.2,249.1 208.1,249.1 214.1,255.2 220.0,255.2 225.9,255.2 231.9,255.2 237.8,261.4 243.7,261.4 249.7,261.4 255.6,261.4 261.5,261.4 267.5,255.2 273.4,255.2 279.4,255.2 285.3,255.2 291.2,261.4 297.2,261.4 303.1,261.4 309.0,261.4 315.0,261.4 320.9,261.4 326.8,261.4 332.8,255.2 338.7,255.2 344.6,255.2 350.6,261.4 356.5,261.4 362.4,261.4 368.4,261.4 374.3,261.4 380.2,261.4 386.2,261.4 392.1,261.4 398.0,261.4 404.0,255.2 409.9,261.4 415.8,261.4 421.8,261.4 427.7,261.4 433.6,261.4 439.6,261.4 445.5,261.4 451.4,261.4 457.4,261.4 463.3,261.4 469.2,261.4 475.2,261.4 481.1,261.4 487.0,261.4 493.0,261.4 498.9,267.5 504.8,267.5 510.8,267.5 516.7,267.5 522.6,267.5 528.6,267.5 534.5,261.4 540.4,261.4 546.4,261.4 552.3,261.4 558.2,261.4 564.2,261.4 570.1,255.2 576.0,249.1 582.0,249.1 587.9,255.2 593.8,249.1 599.8,249.1 605.7,249.1 611.6,249.1 617.6,249.1 623.5,249.1 629.4,255.2 635.4,249.1 641.3,249.1 647.2,249.1 653.2,249.1 659.1,255.2 665.0,255.2 671.0,255.2 676.9,255.2 682.8,255.2 688.8,255.2 694.7,255.2 700.6,255.2 706.6,249.1 712.5,249.1 718.5,249.1 724.4,249.1 730.3,249.1 736.3,249.1 742.2,249.1 748.1,255.2 754.1,249.1 760.0,249.1 765.9,249.1 771.9,249.1 777.8,249.1 783.7,249.1 789.7,249.1 795.6,255.2 801.5,255.2 807.5,255.2 813.4,255.2 819.3,255.2 825.3,255.2 831.2,255.2 837.1,255.2 843.1,249.1 849.0,249.1 854.9,249.1 860.9,249.1 866.8,249.1 872.7,249.1 878.7,249.1 884.6,249.1 890.5,249.1 896.5,249.1 902.4,249.1 908.3,249.1 914.3,249.1 920.2,249.1 926.1,255.2 932.1,255.2 938.0,255.2"/><polyline fill="none" stroke="#ef4444" stroke-width="2.5" stroke-linejoin="round" stroke-linecap="round" points="42.0,286.0 47.9,132.1 53.9,286.0 59.8,286.0 65.7,286.0 71.7,286.0 77.6,286.0 83.5,286.0 89.5,286.0 95.4,286.0 101.3,286.0 107.3,286.0 113.2,286.0 119.1,286.0 125.1,286.0 131.0,286.0 136.9,286.0 142.9,279.8 148.8,286.0 154.7,286.0 160.7,286.0 166.6,286.0 172.5,286.0 178.5,286.0 184.4,286.0 190.3,286.0 196.3,286.0 202.2,286.0 208.1,286.0 214.1,286.0 220.0,286.0 225.9,286.0 231.9,286.0 237.8,286.0 243.7,286.0 249.7,286.0 255.6,286.0 261.5,286.0 267.5,286.0 273.4,286.0 279.4,286.0 285.3,286.0 291.2,286.0 297.2,286.0 303.1,286.0 309.0,286.0 315.0,286.0 320.9,286.0 326.8,286.0 332.8,286.0 338.7,286.0 344.6,286.0 350.6,286.0 356.5,286.0 362.4,286.0 368.4,286.0 374.3,286.0 380.2,286.0 386.2,286.0 392.1,286.0 398.0,286.0 404.0,286.0 409.9,286.0 415.8,286.0 421.8,286.0 427.7,286.0 433.6,286.0 439.6,279.8 445.5,286.0 451.4,286.0 457.4,286.0 463.3,286.0 469.2,286.0 475.2,286.0 481.1,286.0 487.0,286.0 493.0,286.0 498.9,286.0 504.8,286.0 510.8,286.0 516.7,286.0 522.6,279.8 528.6,286.0 534.5,286.0 540.4,286.0 546.4,286.0 552.3,286.0 558.2,286.0 564.2,286.0 570.1,286.0 576.0,286.0 582.0,286.0 587.9,279.8 593.8,286.0 599.8,286.0 605.7,286.0 611.6,286.0 617.6,279.8 623.5,286.0 629.4,286.0 635.4,286.0 641.3,286.0 647.2,286.0 653.2,286.0 659.1,286.0 665.0,286.0 671.0,286.0 676.9,286.0 682.8,286.0 688.8,286.0 694.7,286.0 700.6,286.0 706.6,286.0 712.5,286.0 718.5,286.0 724.4,286.0 730.3,286.0 736.3,286.0 742.2,286.0 748.1,286.0 754.1,279.8 760.0,286.0 765.9,286.0 771.9,286.0 777.8,273.7 783.7,286.0 789.7,286.0 795.6,279.8 801.5,279.8 807.5,286.0 813.4,286.0 819.3,286.0 825.3,286.0 831.2,279.8 837.1,286.0 843.1,286.0 849.0,286.0 854.9,286.0 860.9,286.0 866.8,286.0 872.7,286.0 878.7,286.0 884.6,286.0 890.5,286.0 896.5,286.0 902.4,286.0 908.3,286.0 914.3,286.0 920.2,286.0 926.1,286.0 932.1,286.0 938.0,286.0"/><polyline fill="none" stroke="#a855f7" stroke-width="2.5" stroke-linejoin="round" stroke-linecap="round" points="42.0,286.0 47.9,286.0 53.9,286.0 59.8,286.0 65.7,286.0 71.7,286.0 77.6,286.0 83.5,286.0 89.5,286.0 95.4,286.0 101.3,286.0 107.3,286.0 113.2,286.0 119.1,286.0 125.1,286.0 131.0,286.0 136.9,286.0 142.9,286.0 148.8,286.0 154.7,286.0 160.7,286.0 166.6,286.0 172.5,286.0 178.5,286.0 184.4,286.0 190.3,286.0 196.3,286.0 202.2,286.0 208.1,286.0 214.1,286.0 220.0,286.0 225.9,286.0 231.9,286.0 237.8,286.0 243.7,286.0 249.7,286.0 255.6,286.0 261.5,286.0 267.5,286.0 273.4,286.0 279.4,286.0 285.3,286.0 291.2,286.0 297.2,286.0 303.1,286.0 309.0,286.0 315.0,286.0 320.9,286.0 326.8,286.0 332.8,286.0 338.7,286.0 344.6,286.0 350.6,279.8 356.5,286.0 362.4,286.0 368.4,286.0 374.3,286.0 380.2,286.0 386.2,286.0 392.1,286.0 398.0,286.0 404.0,286.0 409.9,286.0 415.8,286.0 421.8,286.0 427.7,286.0 433.6,286.0 439.6,286.0 445.5,286.0 451.4,286.0 457.4,286.0 463.3,286.0 469.2,286.0 475.2,286.0 481.1,286.0 487.0,286.0 493.0,286.0 498.9,286.0 504.8,286.0 510.8,286.0 516.7,286.0 522.6,286.0 528.6,286.0 534.5,286.0 540.4,286.0 546.4,286.0 552.3,286.0 558.2,286.0 564.2,286.0 570.1,286.0 576.0,286.0 582.0,286.0 587.9,286.0 593.8,286.0 599.8,286.0 605.7,286.0 611.6,286.0 617.6,286.0 623.5,286.0 629.4,279.8 635.4,286.0 641.3,286.0 647.2,286.0 653.2,286.0 659.1,286.0 665.0,286.0 671.0,286.0 676.9,286.0 682.8,286.0 688.8,286.0 694.7,286.0 700.6,286.0 706.6,286.0 712.5,286.0 718.5,286.0 724.4,286.0 730.3,286.0 736.3,286.0 742.2,286.0 748.1,279.8 754.1,286.0 760.0,286.0 765.9,286.0 771.9,286.0 777.8,286.0 783.7,286.0 789.7,286.0 795.6,286.0 801.5,286.0 807.5,286.0 813.4,286.0 819.3,286.0 825.3,286.0 831.2,286.0 837.1,286.0 843.1,286.0 849.0,286.0 854.9,286.0 860.9,286.0 866.8,279.8 872.7,286.0 878.7,286.0 884.6,286.0 890.5,286.0 896.5,286.0 902.4,286.0 908.3,286.0 914.3,286.0 920.2,279.8 926.1,286.0 932.1,286.0 938.0,286.0"/><text x="42" y="308" font-size="11" fill="#9fb0d4">19/06 15:39</text><text x="938" y="308" text-anchor="end" font-size="11" fill="#9fb0d4">22/07 22:33</text></svg>