<svg xmlns="http://www.w3.org/2000/svg" viewBox="0 0 960 320" width="960" height="320" font-family="Segoe UI, system-ui, -apple-system, Roboto, Helvetica, Arial, sans-serif" role="img" aria-label="Availability history per region"><rect x="0.5" y="0.5" width="959" height="319" rx="14" fill="#0d1117" stroke="#2c3a5e"/><text x="42" y="26" font-size="14" font-weight="600" fill="#e6ecff">History · 129 points</text><circle cx="47" cy="40" r="5" fill="#22c55e"/><text x="57" y="44" font-size="12" fill="#9fb0d4">Available</text><circle cx="139.8" cy="40" r="5" fill="#f59e0b"/><text x="149.8" y="44" font-size="12" fill="#9fb0d4">Saturated</text><circle cx="232.60000000000002" cy="40" r="5" fill="#ef4444"/><text x="242.60000000000002" y="44" font-size="12" fill="#9fb0d4">Error</text><circle cx="296.6" cy="40" r="5" fill="#a855f7"/><text x="306.6" y="44" font-size="12" fill="#9fb0d4">Timeout</text><line x1="42" y1="286.0" x2="938" y2="286.0" stroke="#21304f" stroke-width="1"/><text x="35" y="289.0" text-anchor="end" font-size="11" fill="#9fb0d4">0</text><line x1="42" y1="227.5" x2="938" y2="227.5" stroke="#21304f" stroke-width="1"/><text x="35" y="230.5" text-anchor="end" font-size="11" fill="#9fb0d4">10</text><line x1="42" y1="169.0" x2="938" y2="169.0" stroke="#21304f" stroke-width="1"/><text x="35" y="172.0" text-anchor="end" font-size="11" fill="#9fb0d4">19</text><line x1="42" y1="110.5" x2="938" y2="110.5" stroke="#21304f" stroke-width="1"/><text x="35" y="113.5" text-anchor="end" font-size="11" fill="#9fb0d4">28</text><line x1="42" y1="52.0" x2="938" y2="52.0" stroke="#21304f" stroke-width="1"/><text x="35" y="55.0" text-anchor="end" font-size="11" fill="#9fb0d4">38</text><polyline fill="none" stroke="#22c55e" stroke-width="2.5" stroke-linejoin="round" stroke-linecap="round" points="42.0,64.3 49.0,224.4 56.0,82.8 63.0,88.9 70.0,82.8 77.0,76.6 84.0,76.6 91.0,76.6 98.0,76.6 105.0,76.6 112.0,76.6 119.0,76.6 126.0,76.6 133.0,76.6 140.0,76.6 147.0,70.5 154.0,70.5 161.0,82.8 168.0,82.8 175.0,82.8 182.0,88.9 189.0,88.9 196.0,88.9 203.0,88.9 210.0,88.9 217.0,88.9 224.0,88.9 231.0,88.9 238.0,88.9 245.0,82.8 252.0,82.8 259.0,82.8 266.0,82.8 273.0,76.6 280.0,76.6 287.0,76.6 294.0,76.6 301.0,76.6 308.0,82.8 315.0,82.8 322.0,82.8 329.0,82.8 336.0,76.6 343.0,76.6 350.0,76.6 357.0,76.6 364.0,76.6 371.0,76.6 378.0,76.6 385.0,82.8 392.0,82.8 399.0,82.8 406.0,82.8 413.0,76.6 420.0,76.6 427.0,76.6 434.0,76.6 441.0,76.6 448.0,76.6 455.0,76.6 462.0,76.6 469.0,82.8 476.0,76.6 483.0,76.6 490.0,76.6 497.0,76.6 504.0,76.6 511.0,82.8 518.0,76.6 525.0,76.6 532.0,76.6 539.0,76.6 546.0,76.6 553.0,76.6 560.0,76.6 567.0,76.6 574.0,76.6 581.0,70.5 588.0,70.5 595.0,70.5 602.0,70.5 609.0,76.6 616.0,70.5 623.0,76.6 630.0,76.6 637.0,76.6 644.0,76.6 651.0,76.6 658.0,76.6 665.0,82.8 672.0,88.9 679.0,88.9 686.0,88.9 693.0,88.9 700.0,88.9 707.0,88.9 714.0,88.9 721.0,95.1 728.0,88.9 735.0,88.9 742.0,88.9 749.0,88.9 756.0,88.9 763.0,88.9 770.0,82.8 777.0,82.8 784.0,82.8 791.0,82.8 798.0,82.8 805.0,82.8 812.0,82.8 819.0,82.8 826.0,88.9 833.0,88.9 840.0,88.9 847.0,88.9 854.0,88.9 861.0,88.9 868.0,88.9 875.0,88.9 882.0,95.1 889.0,88.9 896.0,88.9 903.0,88.9 910.0,101.3 917.0,88.9 924.0,88.9 931.0,88.9 938.0,88.9"/><polyline fill="none" stroke="#f59e0b" stroke-width="2.5" stroke-linejoin="round" stroke-linecap="round" points="42.0,273.7 49.0,267.5 56.0,255.2 63.0,249.1 70.0,255.2 77.0,261.4 84.0,261.4 91.0,261.4 98.0,261.4 105.0,261.4 112.0,261.4 119.0,261.4 126.0,261.4 133.0,261.4 140.0,261.4 147.0,267.5 154.0,267.5 161.0,261.4 168.0,255.2 175.0,255.2 182.0,249.1 189.0,249.1 196.0,249.1 203.0,249.1 210.0,249.1 217.0,249.1 224.0,249.1 231.0,249.1 238.0,249.1 245.0,255.2 252.0,255.2 259.0,255.2 266.0,255.2 273.0,261.4 280.0,261.4 287.0,261.4 294.0,261.4 301.0,261.4 308.0,255.2 315.0,255.2 322.0,255.2 329.0,255.2 336.0,261.4 343.0,261.4 350.0,261.4 357.0,261.4 364.0,261.4 371.0,261.4 378.0,261.4 385.0,255.2 392.0,255.2 399.0,255.2 406.0,261.4 413.0,261.4 420.0,261.4 427.0,261.4 434.0,261.4 441.0,261.4 448.0,261.4 455.0,261.4 462.0,261.4 469.0,255.2 476.0,261.4 483.0,261.4 490.0,261.4 497.0,261.4 504.0,261.4 511.0,261.4 518.0,261.4 525.0,261.4 532.0,261.4 539.0,261.4 546.0,261.4 553.0,261.4 560.0,261.4 567.0,261.4 574.0,261.4 581.0,267.5 588.0,267.5 595.0,267.5 602.0,267.5 609.0,267.5 616.0,267.5 623.0,261.4 630.0,261.4 637.0,261.4 644.0,261.4 651.0,261.4 658.0,261.4 665.0,255.2 672.0,249.1 679.0,249.1 686.0,255.2 693.0,249.1 700.0,249.1 707.0,249.1 714.0,249.1 721.0,249.1 728.0,249.1 735.0,255.2 742.0,249.1 749.0,249.1 756.0,249.1 763.0,249.1 770.0,255.2 777.0,255.2 784.0,255.2 791.0,255.2 798.0,255.2 805.0,255.2 812.0,255.2 819.0,255.2 826.0,249.1 833.0,249.1 840.0,249.1 847.0,249.1 854.0,249.1 861.0,249.1 868.0,249.1 875.0,255.2 882.0,249.1 889.0,249.1 896.0,249.1 903.0,249.1 910.0,249.1 917.0,249.1 924.0,249.1 931.0,255.2 938.0,255.2"/><polyline fill="none" stroke="#ef4444" stroke-width="2.5" stroke-linejoin="round" stroke-linecap="round" points="42.0,286.0 49.0,132.1 56.0,286.0 63.0,286.0 70.0,286.0 77.0,286.0 84.0,286.0 91.0,286.0 98.0,286.0 105.0,286.0 112.0,286.0 119.0,286.0 126.0,286.0 133.0,286.0 140.0,286.0 147.0,286.0 154.0,286.0 161.0,279.8 168.0,286.0 175.0,286.0 182.0,286.0 189.0,286.0 196.0,286.0 203.0,286.0 210.0,286.0 217.0,286.0 224.0,286.0 231.0,286.0 238.0,286.0 245.0,286.0 252.0,286.0 259.0,286.0 266.0,286.0 273.0,286.0 280.0,286.0 287.0,286.0 294.0,286.0 301.0,286.0 308.0,286.0 315.0,286.0 322.0,286.0 329.0,286.0 336.0,286.0 343.0,286.0 350.0,286.0 357.0,286.0 364.0,286.0 371.0,286.0 378.0,286.0 385.0,286.0 392.0,286.0 399.0,286.0 406.0,286.0 413.0,286.0 420.0,286.0 427.0,286.0 434.0,286.0 441.0,286.0 448.0,286.0 455.0,286.0 462.0,286.0 469.0,286.0 476.0,286.0 483.0,286.0 490.0,286.0 497.0,286.0 504.0,286.0 511.0,279.8 518.0,286.0 525.0,286.0 532.0,286.0 539.0,286.0 546.0,286.0 553.0,286.0 560.0,286.0 567.0,286.0 574.0,286.0 581.0,286.0 588.0,286.0 595.0,286.0 602.0,286.0 609.0,279.8 616.0,286.0 623.0,286.0 630.0,286.0 637.0,286.0 644.0,286.0 651.0,286.0 658.0,286.0 665.0,286.0 672.0,286.0 679.0,286.0 686.0,279.8 693.0,286.0 700.0,286.0 707.0,286.0 714.0,286.0 721.0,279.8 728.0,286.0 735.0,286.0 742.0,286.0 749.0,286.0 756.0,286.0 763.0,286.0 770.0,286.0 777.0,286.0 784.0,286.0 791.0,286.0 798.0,286.0 805.0,286.0 812.0,286.0 819.0,286.0 826.0,286.0 833.0,286.0 840.0,286.0 847.0,286.0 854.0,286.0 861.0,286.0 868.0,286.0 875.0,286.0 882.0,279.8 889.0,286.0 896.0,286.0 903.0,286.0 910.0,273.7 917.0,286.0 924.0,286.0 931.0,279.8 938.0,279.8"/><polyline fill="none" stroke="#a855f7" stroke-width="2.5" stroke-linejoin="round" stroke-linecap="round" points="42.0,286.0 49.0,286.0 56.0,286.0 63.0,286.0 70.0,286.0 77.0,286.0 84.0,286.0 91.0,286.0 98.0,286.0 105.0,286.0 112.0,286.0 119.0,286.0 126.0,286.0 133.0,286.0 140.0,286.0 147.0,286.0 154.0,286.0 161.0,286.0 168.0,286.0 175.0,286.0 182.0,286.0 189.0,286.0 196.0,286.0 203.0,286.0 210.0,286.0 217.0,286.0 224.0,286.0 231.0,286.0 238.0,286.0 245.0,286.0 252.0,286.0 259.0,286.0 266.0,286.0 273.0,286.0 280.0,286.0 287.0,286.0 294.0,286.0 301.0,286.0 308.0,286.0 315.0,286.0 322.0,286.0 329.0,286.0 336.0,286.0 343.0,286.0 350.0,286.0 357.0,286.0 364.0,286.0 371.0,286.0 378.0,286.0 385.0,286.0 392.0,286.0 399.0,286.0 406.0,279.8 413.0,286.0 420.0,286.0 427.0,286.0 434.0,286.0 441.0,286.0 448.0,286.0 455.0,286.0 462.0,286.0 469.0,286.0 476.0,286.0 483.0,286.0 490.0,286.0 497.0,286.0 504.0,286.0 511.0,286.0 518.0,286.0 525.0,286.0 532.0,286.0 539.0,286.0 546.0,286.0 553.0,286.0 560.0,286.0 567.0,286.0 574.0,286.0 581.0,286.0 588.0,286.0 595.0,286.0 602.0,286.0 609.0,286.0 616.0,286.0 623.0,286.0 630.0,286.0 637.0,286.0 644.0,286.0 651.0,286.0 658.0,286.0 665.0,286.0 672.0,286.0 679.0,286.0 686.0,286.0 693.0,286.0 700.0,286.0 707.0,286.0 714.0,286.0 721.0,286.0 728.0,286.0 735.0,279.8 742.0,286.0 749.0,286.0 756.0,286.0 763.0,286.0 770.0,286.0 777.0,286.0 784.0,286.0 791.0,286.0 798.0,286.0 805.0,286.0 812.0,286.0 819.0,286.0 826.0,286.0 833.0,286.0 840.0,286.0 847.0,286.0 854.0,286.0 861.0,286.0 868.0,286.0 875.0,279.8 882.0,286.0 889.0,286.0 896.0,286.0 903.0,286.0 910.0,286.0 917.0,286.0 924.0,286.0 931.0,286.0 938.0,286.0"/><text x="42" y="308" font-size="11" fill="#9fb0d4">19/06 15:39</text><text x="938" y="308" text-anchor="end" font-size="11" fill="#9fb0d4">21/07 23:30</text></svg>