<svg xmlns="http://www.w3.org/2000/svg" viewBox="0 0 960 320" width="960" height="320" font-family="Segoe UI, system-ui, -apple-system, Roboto, Helvetica, Arial, sans-serif" role="img" aria-label="Availability history per region"><rect x="0.5" y="0.5" width="959" height="319" rx="14" fill="#0d1117" stroke="#2c3a5e"/><text x="42" y="26" font-size="14" font-weight="600" fill="#e6ecff">History · 71 points</text><circle cx="47" cy="40" r="5" fill="#22c55e"/><text x="57" y="44" font-size="12" fill="#9fb0d4">Available</text><circle cx="139.8" cy="40" r="5" fill="#f59e0b"/><text x="149.8" y="44" font-size="12" fill="#9fb0d4">Saturated</text><circle cx="232.60000000000002" cy="40" r="5" fill="#ef4444"/><text x="242.60000000000002" y="44" font-size="12" fill="#9fb0d4">Error</text><circle cx="296.6" cy="40" r="5" fill="#a855f7"/><text x="306.6" y="44" font-size="12" fill="#9fb0d4">Timeout</text><line x1="42" y1="286.0" x2="938" y2="286.0" stroke="#21304f" stroke-width="1"/><text x="35" y="289.0" text-anchor="end" font-size="11" fill="#9fb0d4">0</text><line x1="42" y1="227.5" x2="938" y2="227.5" stroke="#21304f" stroke-width="1"/><text x="35" y="230.5" text-anchor="end" font-size="11" fill="#9fb0d4">10</text><line x1="42" y1="169.0" x2="938" y2="169.0" stroke="#21304f" stroke-width="1"/><text x="35" y="172.0" text-anchor="end" font-size="11" fill="#9fb0d4">19</text><line x1="42" y1="110.5" x2="938" y2="110.5" stroke="#21304f" stroke-width="1"/><text x="35" y="113.5" text-anchor="end" font-size="11" fill="#9fb0d4">28</text><line x1="42" y1="52.0" x2="938" y2="52.0" stroke="#21304f" stroke-width="1"/><text x="35" y="55.0" text-anchor="end" font-size="11" fill="#9fb0d4">38</text><polyline fill="none" stroke="#22c55e" stroke-width="2.5" stroke-linejoin="round" stroke-linecap="round" points="42.0,64.3 54.8,224.4 67.6,82.8 80.4,88.9 93.2,82.8 106.0,76.6 118.8,76.6 131.6,76.6 144.4,76.6 157.2,76.6 170.0,76.6 182.8,76.6 195.6,76.6 208.4,76.6 221.2,76.6 234.0,70.5 246.8,70.5 259.6,82.8 272.4,82.8 285.2,82.8 298.0,88.9 310.8,88.9 323.6,88.9 336.4,88.9 349.2,88.9 362.0,88.9 374.8,88.9 387.6,88.9 400.4,88.9 413.2,82.8 426.0,82.8 438.8,82.8 451.6,82.8 464.4,76.6 477.2,76.6 490.0,76.6 502.8,76.6 515.6,76.6 528.4,82.8 541.2,82.8 554.0,82.8 566.8,82.8 579.6,76.6 592.4,76.6 605.2,76.6 618.0,76.6 630.8,76.6 643.6,76.6 656.4,76.6 669.2,82.8 682.0,82.8 694.8,82.8 707.6,82.8 720.4,76.6 733.2,76.6 746.0,76.6 758.8,76.6 771.6,76.6 784.4,76.6 797.2,76.6 810.0,76.6 822.8,82.8 835.6,76.6 848.4,76.6 861.2,76.6 874.0,76.6 886.8,76.6 899.6,82.8 912.4,76.6 925.2,76.6 938.0,76.6"/><polyline fill="none" stroke="#f59e0b" stroke-width="2.5" stroke-linejoin="round" stroke-linecap="round" points="42.0,273.7 54.8,267.5 67.6,255.2 80.4,249.1 93.2,255.2 106.0,261.4 118.8,261.4 131.6,261.4 144.4,261.4 157.2,261.4 170.0,261.4 182.8,261.4 195.6,261.4 208.4,261.4 221.2,261.4 234.0,267.5 246.8,267.5 259.6,261.4 272.4,255.2 285.2,255.2 298.0,249.1 310.8,249.1 323.6,249.1 336.4,249.1 349.2,249.1 362.0,249.1 374.8,249.1 387.6,249.1 400.4,249.1 413.2,255.2 426.0,255.2 438.8,255.2 451.6,255.2 464.4,261.4 477.2,261.4 490.0,261.4 502.8,261.4 515.6,261.4 528.4,255.2 541.2,255.2 554.0,255.2 566.8,255.2 579.6,261.4 592.4,261.4 605.2,261.4 618.0,261.4 630.8,261.4 643.6,261.4 656.4,261.4 669.2,255.2 682.0,255.2 694.8,255.2 707.6,261.4 720.4,261.4 733.2,261.4 746.0,261.4 758.8,261.4 771.6,261.4 784.4,261.4 797.2,261.4 810.0,261.4 822.8,255.2 835.6,261.4 848.4,261.4 861.2,261.4 874.0,261.4 886.8,261.4 899.6,261.4 912.4,261.4 925.2,261.4 938.0,261.4"/><polyline fill="none" stroke="#ef4444" stroke-width="2.5" stroke-linejoin="round" stroke-linecap="round" points="42.0,286.0 54.8,132.1 67.6,286.0 80.4,286.0 93.2,286.0 106.0,286.0 118.8,286.0 131.6,286.0 144.4,286.0 157.2,286.0 170.0,286.0 182.8,286.0 195.6,286.0 208.4,286.0 221.2,286.0 234.0,286.0 246.8,286.0 259.6,279.8 272.4,286.0 285.2,286.0 298.0,286.0 310.8,286.0 323.6,286.0 336.4,286.0 349.2,286.0 362.0,286.0 374.8,286.0 387.6,286.0 400.4,286.0 413.2,286.0 426.0,286.0 438.8,286.0 451.6,286.0 464.4,286.0 477.2,286.0 490.0,286.0 502.8,286.0 515.6,286.0 528.4,286.0 541.2,286.0 554.0,286.0 566.8,286.0 579.6,286.0 592.4,286.0 605.2,286.0 618.0,286.0 630.8,286.0 643.6,286.0 656.4,286.0 669.2,286.0 682.0,286.0 694.8,286.0 707.6,286.0 720.4,286.0 733.2,286.0 746.0,286.0 758.8,286.0 771.6,286.0 784.4,286.0 797.2,286.0 810.0,286.0 822.8,286.0 835.6,286.0 848.4,286.0 861.2,286.0 874.0,286.0 886.8,286.0 899.6,279.8 912.4,286.0 925.2,286.0 938.0,286.0"/><polyline fill="none" stroke="#a855f7" stroke-width="2.5" stroke-linejoin="round" stroke-linecap="round" points="42.0,286.0 54.8,286.0 67.6,286.0 80.4,286.0 93.2,286.0 106.0,286.0 118.8,286.0 131.6,286.0 144.4,286.0 157.2,286.0 170.0,286.0 182.8,286.0 195.6,286.0 208.4,286.0 221.2,286.0 234.0,286.0 246.8,286.0 259.6,286.0 272.4,286.0 285.2,286.0 298.0,286.0 310.8,286.0 323.6,286.0 336.4,286.0 349.2,286.0 362.0,286.0 374.8,286.0 387.6,286.0 400.4,286.0 413.2,286.0 426.0,286.0 438.8,286.0 451.6,286.0 464.4,286.0 477.2,286.0 490.0,286.0 502.8,286.0 515.6,286.0 528.4,286.0 541.2,286.0 554.0,286.0 566.8,286.0 579.6,286.0 592.4,286.0 605.2,286.0 618.0,286.0 630.8,286.0 643.6,286.0 656.4,286.0 669.2,286.0 682.0,286.0 694.8,286.0 707.6,279.8 720.4,286.0 733.2,286.0 746.0,286.0 758.8,286.0 771.6,286.0 784.4,286.0 797.2,286.0 810.0,286.0 822.8,286.0 835.6,286.0 848.4,286.0 861.2,286.0 874.0,286.0 886.8,286.0 899.6,286.0 912.4,286.0 925.2,286.0 938.0,286.0"/><text x="42" y="308" font-size="11" fill="#9fb0d4">19/06 15:39</text><text x="938" y="308" text-anchor="end" font-size="11" fill="#9fb0d4">19/07 12:31</text></svg>