<svg xmlns="http://www.w3.org/2000/svg" viewBox="0 0 960 320" width="960" height="320" font-family="Segoe UI, system-ui, -apple-system, Roboto, Helvetica, Arial, sans-serif" role="img" aria-label="Availability history per region"><rect x="0.5" y="0.5" width="959" height="319" rx="14" fill="#0d1117" stroke="#2c3a5e"/><text x="42" y="26" font-size="14" font-weight="600" fill="#e6ecff">History · 209 points</text><circle cx="47" cy="40" r="5" fill="#22c55e"/><text x="57" y="44" font-size="12" fill="#9fb0d4">Available</text><circle cx="139.8" cy="40" r="5" fill="#f59e0b"/><text x="149.8" y="44" font-size="12" fill="#9fb0d4">Saturated</text><circle cx="232.60000000000002" cy="40" r="5" fill="#ef4444"/><text x="242.60000000000002" y="44" font-size="12" fill="#9fb0d4">Error</text><circle cx="296.6" cy="40" r="5" fill="#a855f7"/><text x="306.6" y="44" font-size="12" fill="#9fb0d4">Timeout</text><line x1="42" y1="286.0" x2="938" y2="286.0" stroke="#21304f" stroke-width="1"/><text x="35" y="289.0" text-anchor="end" font-size="11" fill="#9fb0d4">0</text><line x1="42" y1="227.5" x2="938" y2="227.5" stroke="#21304f" stroke-width="1"/><text x="35" y="230.5" text-anchor="end" font-size="11" fill="#9fb0d4">10</text><line x1="42" y1="169.0" x2="938" y2="169.0" stroke="#21304f" stroke-width="1"/><text x="35" y="172.0" text-anchor="end" font-size="11" fill="#9fb0d4">20</text><line x1="42" y1="110.5" x2="938" y2="110.5" stroke="#21304f" stroke-width="1"/><text x="35" y="113.5" text-anchor="end" font-size="11" fill="#9fb0d4">29</text><line x1="42" y1="52.0" x2="938" y2="52.0" stroke="#21304f" stroke-width="1"/><text x="35" y="55.0" text-anchor="end" font-size="11" fill="#9fb0d4">39</text><polyline fill="none" stroke="#22c55e" stroke-width="2.5" stroke-linejoin="round" stroke-linecap="round" points="42.0,70.0 46.3,70.0 50.6,88.0 54.9,88.0 59.2,76.0 63.5,76.0 67.8,76.0 72.2,70.0 76.5,76.0 80.8,70.0 85.1,64.0 89.4,58.0 93.7,58.0 98.0,58.0 102.3,58.0 106.6,58.0 110.9,58.0 115.2,58.0 119.5,58.0 123.8,58.0 128.2,58.0 132.5,58.0 136.8,58.0 141.1,58.0 145.4,58.0 149.7,58.0 154.0,58.0 158.3,58.0 162.6,58.0 166.9,58.0 171.2,58.0 175.5,70.0 179.8,76.0 184.2,94.0 188.5,64.0 192.8,64.0 197.1,58.0 201.4,58.0 205.7,58.0 210.0,70.0 214.3,76.0 218.6,76.0 222.9,82.0 227.2,82.0 231.5,82.0 235.8,82.0 240.2,76.0 244.5,64.0 248.8,70.0 253.1,70.0 257.4,82.0 261.7,76.0 266.0,76.0 270.3,82.0 274.6,76.0 278.9,76.0 283.2,76.0 287.5,64.0 291.8,64.0 296.2,76.0 300.5,76.0 304.8,76.0 309.1,88.0 313.4,70.0 317.7,64.0 322.0,58.0 326.3,58.0 330.6,70.0 334.9,70.0 339.2,70.0 343.5,76.0 347.8,70.0 352.2,70.0 356.5,70.0 360.8,70.0 365.1,76.0 369.4,82.0 373.7,76.0 378.0,70.0 382.3,70.0 386.6,70.0 390.9,70.0 395.2,76.0 399.5,70.0 403.8,70.0 408.2,70.0 412.5,70.0 416.8,70.0 421.1,70.0 425.4,70.0 429.7,70.0 434.0,70.0 438.3,70.0 442.6,70.0 446.9,70.0 451.2,70.0 455.5,70.0 459.8,70.0 464.2,70.0 468.5,70.0 472.8,70.0 477.1,70.0 481.4,70.0 485.7,70.0 490.0,70.0 494.3,70.0 498.6,70.0 502.9,70.0 507.2,70.0 511.5,70.0 515.8,70.0 520.2,70.0 524.5,70.0 528.8,70.0 533.1,70.0 537.4,70.0 541.7,70.0 546.0,70.0 550.3,70.0 554.6,70.0 558.9,70.0 563.2,70.0 567.5,70.0 571.8,70.0 576.2,70.0 580.5,70.0 584.8,70.0 589.1,70.0 593.4,70.0 597.7,70.0 602.0,70.0 606.3,70.0 610.6,70.0 614.9,70.0 619.2,70.0 623.5,70.0 627.8,70.0 632.2,70.0 636.5,70.0 640.8,70.0 645.1,70.0 649.4,70.0 653.7,70.0 658.0,70.0 662.3,70.0 666.6,70.0 670.9,70.0 675.2,70.0 679.5,70.0 683.8,70.0 688.2,70.0 692.5,76.0 696.8,70.0 701.1,70.0 705.4,70.0 709.7,70.0 714.0,70.0 718.3,76.0 722.6,76.0 726.9,88.0 731.2,88.0 735.5,88.0 739.8,94.0 744.2,94.0 748.5,94.0 752.8,94.0 757.1,88.0 761.4,88.0 765.7,82.0 770.0,82.0 774.3,82.0 778.6,88.0 782.9,88.0 787.2,94.0 791.5,82.0 795.8,82.0 800.2,82.0 804.5,82.0 808.8,88.0 813.1,88.0 817.4,94.0 821.7,94.0 826.0,88.0 830.3,88.0 834.6,88.0 838.9,94.0 843.2,94.0 847.5,106.0 851.8,94.0 856.2,94.0 860.5,94.0 864.8,94.0 869.1,88.0 873.4,88.0 877.7,82.0 882.0,76.0 886.3,76.0 890.6,76.0 894.9,76.0 899.2,76.0 903.5,76.0 907.8,70.0 912.2,70.0 916.5,70.0 920.8,76.0 925.1,88.0 929.4,82.0 933.7,70.0 938.0,70.0"/><polyline fill="none" stroke="#f59e0b" stroke-width="2.5" stroke-linejoin="round" stroke-linecap="round" points="42.0,274.0 46.3,274.0 50.6,274.0 54.9,280.0 59.2,268.0 63.5,268.0 67.8,268.0 72.2,274.0 76.5,274.0 80.8,274.0 85.1,280.0 89.4,286.0 93.7,286.0 98.0,286.0 102.3,286.0 106.6,286.0 110.9,286.0 115.2,286.0 119.5,286.0 123.8,286.0 128.2,286.0 132.5,286.0 136.8,286.0 141.1,286.0 145.4,286.0 149.7,286.0 154.0,286.0 158.3,286.0 162.6,286.0 166.9,286.0 171.2,286.0 175.5,274.0 179.8,280.0 184.2,280.0 188.5,280.0 192.8,280.0 197.1,286.0 201.4,286.0 205.7,286.0 210.0,274.0 214.3,268.0 218.6,268.0 222.9,262.0 227.2,262.0 231.5,262.0 235.8,262.0 240.2,268.0 244.5,280.0 248.8,280.0 253.1,274.0 257.4,262.0 261.7,268.0 266.0,268.0 270.3,262.0 274.6,268.0 278.9,268.0 283.2,268.0 287.5,280.0 291.8,280.0 296.2,268.0 300.5,268.0 304.8,268.0 309.1,262.0 313.4,274.0 317.7,280.0 322.0,286.0 326.3,286.0 330.6,274.0 334.9,274.0 339.2,274.0 343.5,274.0 347.8,274.0 352.2,274.0 356.5,274.0 360.8,274.0 365.1,280.0 369.4,274.0 373.7,280.0 378.0,286.0 382.3,286.0 386.6,286.0 390.9,286.0 395.2,280.0 399.5,286.0 403.8,286.0 408.2,286.0 412.5,286.0 416.8,286.0 421.1,286.0 425.4,286.0 429.7,286.0 434.0,286.0 438.3,286.0 442.6,286.0 446.9,286.0 451.2,286.0 455.5,286.0 459.8,286.0 464.2,286.0 468.5,286.0 472.8,286.0 477.1,286.0 481.4,286.0 485.7,286.0 490.0,286.0 494.3,286.0 498.6,286.0 502.9,286.0 507.2,286.0 511.5,286.0 515.8,286.0 520.2,286.0 524.5,286.0 528.8,286.0 533.1,286.0 537.4,286.0 541.7,286.0 546.0,286.0 550.3,286.0 554.6,286.0 558.9,286.0 563.2,286.0 567.5,286.0 571.8,286.0 576.2,286.0 580.5,286.0 584.8,286.0 589.1,286.0 593.4,286.0 597.7,286.0 602.0,286.0 606.3,286.0 610.6,286.0 614.9,286.0 619.2,286.0 623.5,286.0 627.8,286.0 632.2,286.0 636.5,286.0 640.8,286.0 645.1,286.0 649.4,286.0 653.7,286.0 658.0,286.0 662.3,286.0 666.6,286.0 670.9,286.0 675.2,286.0 679.5,286.0 683.8,286.0 688.2,286.0 692.5,286.0 696.8,286.0 701.1,286.0 705.4,286.0 709.7,286.0 714.0,286.0 718.3,286.0 722.6,280.0 726.9,268.0 731.2,268.0 735.5,268.0 739.8,268.0 744.2,262.0 748.5,262.0 752.8,262.0 757.1,268.0 761.4,268.0 765.7,274.0 770.0,274.0 774.3,274.0 778.6,268.0 782.9,268.0 787.2,268.0 791.5,274.0 795.8,274.0 800.2,274.0 804.5,274.0 808.8,268.0 813.1,268.0 817.4,262.0 821.7,262.0 826.0,268.0 830.3,268.0 834.6,268.0 838.9,262.0 843.2,262.0 847.5,274.0 851.8,262.0 856.2,262.0 860.5,262.0 864.8,262.0 869.1,268.0 873.4,268.0 877.7,274.0 882.0,280.0 886.3,280.0 890.6,280.0 894.9,280.0 899.2,280.0 903.5,280.0 907.8,286.0 912.2,286.0 916.5,286.0 920.8,280.0 925.1,274.0 929.4,274.0 933.7,280.0 938.0,274.0"/><polyline fill="none" stroke="#ef4444" stroke-width="2.5" stroke-linejoin="round" stroke-linecap="round" points="42.0,280.0 46.3,280.0 50.6,268.0 54.9,262.0 59.2,286.0 63.5,286.0 67.8,286.0 72.2,286.0 76.5,280.0 80.8,286.0 85.1,286.0 89.4,286.0 93.7,286.0 98.0,286.0 102.3,286.0 106.6,286.0 110.9,286.0 115.2,286.0 119.5,286.0 123.8,286.0 128.2,286.0 132.5,286.0 136.8,286.0 141.1,286.0 145.4,286.0 149.7,286.0 154.0,286.0 158.3,286.0 162.6,286.0 166.9,286.0 171.2,286.0 175.5,286.0 179.8,274.0 184.2,256.0 188.5,286.0 192.8,286.0 197.1,286.0 201.4,286.0 205.7,286.0 210.0,286.0 214.3,286.0 218.6,286.0 222.9,286.0 227.2,286.0 231.5,286.0 235.8,286.0 240.2,286.0 244.5,286.0 248.8,280.0 253.1,286.0 257.4,286.0 261.7,286.0 266.0,286.0 270.3,286.0 274.6,286.0 278.9,286.0 283.2,286.0 287.5,286.0 291.8,286.0 296.2,286.0 300.5,286.0 304.8,286.0 309.1,280.0 313.4,286.0 317.7,286.0 322.0,286.0 326.3,286.0 330.6,286.0 334.9,286.0 339.2,286.0 343.5,286.0 347.8,286.0 352.2,286.0 356.5,286.0 360.8,286.0 365.1,274.0 369.4,274.0 373.7,274.0 378.0,274.0 382.3,274.0 386.6,274.0 390.9,274.0 395.2,274.0 399.5,274.0 403.8,274.0 408.2,274.0 412.5,274.0 416.8,274.0 421.1,274.0 425.4,274.0 429.7,274.0 434.0,274.0 438.3,274.0 442.6,274.0 446.9,274.0 451.2,274.0 455.5,274.0 459.8,274.0 464.2,274.0 468.5,274.0 472.8,274.0 477.1,274.0 481.4,274.0 485.7,274.0 490.0,274.0 494.3,274.0 498.6,274.0 502.9,274.0 507.2,274.0 511.5,274.0 515.8,274.0 520.2,274.0 524.5,274.0 528.8,274.0 533.1,274.0 537.4,274.0 541.7,274.0 546.0,274.0 550.3,274.0 554.6,274.0 558.9,274.0 563.2,274.0 567.5,274.0 571.8,274.0 576.2,274.0 580.5,274.0 584.8,274.0 589.1,274.0 593.4,274.0 597.7,274.0 602.0,274.0 606.3,274.0 610.6,274.0 614.9,274.0 619.2,274.0 623.5,274.0 627.8,274.0 632.2,274.0 636.5,274.0 640.8,274.0 645.1,274.0 649.4,274.0 653.7,274.0 658.0,274.0 662.3,274.0 666.6,274.0 670.9,274.0 675.2,274.0 679.5,274.0 683.8,274.0 688.2,274.0 692.5,268.0 696.8,274.0 701.1,274.0 705.4,274.0 709.7,274.0 714.0,274.0 718.3,274.0 722.6,274.0 726.9,274.0 731.2,274.0 735.5,274.0 739.8,268.0 744.2,274.0 748.5,274.0 752.8,274.0 757.1,274.0 761.4,274.0 765.7,274.0 770.0,274.0 774.3,274.0 778.6,274.0 782.9,274.0 787.2,268.0 791.5,274.0 795.8,274.0 800.2,274.0 804.5,274.0 808.8,274.0 813.1,274.0 817.4,274.0 821.7,274.0 826.0,274.0 830.3,274.0 834.6,274.0 838.9,274.0 843.2,274.0 847.5,250.0 851.8,274.0 856.2,274.0 860.5,274.0 864.8,274.0 869.1,274.0 873.4,274.0 877.7,274.0 882.0,274.0 886.3,274.0 890.6,274.0 894.9,274.0 899.2,274.0 903.5,274.0 907.8,274.0 912.2,274.0 916.5,274.0 920.8,274.0 925.1,268.0 929.4,274.0 933.7,280.0 938.0,286.0"/><polyline fill="none" stroke="#a855f7" stroke-width="2.5" stroke-linejoin="round" stroke-linecap="round" points="42.0,286.0 46.3,286.0 50.6,286.0 54.9,286.0 59.2,286.0 63.5,286.0 67.8,286.0 72.2,286.0 76.5,286.0 80.8,286.0 85.1,286.0 89.4,286.0 93.7,286.0 98.0,286.0 102.3,286.0 106.6,286.0 110.9,286.0 115.2,286.0 119.5,286.0 123.8,286.0 128.2,286.0 132.5,286.0 136.8,286.0 141.1,286.0 145.4,286.0 149.7,286.0 154.0,286.0 158.3,286.0 162.6,286.0 166.9,286.0 171.2,286.0 175.5,286.0 179.8,286.0 184.2,286.0 188.5,286.0 192.8,286.0 197.1,286.0 201.4,286.0 205.7,286.0 210.0,286.0 214.3,286.0 218.6,286.0 222.9,286.0 227.2,286.0 231.5,286.0 235.8,286.0 240.2,286.0 244.5,286.0 248.8,286.0 253.1,286.0 257.4,286.0 261.7,286.0 266.0,286.0 270.3,286.0 274.6,286.0 278.9,286.0 283.2,286.0 287.5,286.0 291.8,286.0 296.2,286.0 300.5,286.0 304.8,286.0 309.1,286.0 313.4,286.0 317.7,286.0 322.0,286.0 326.3,286.0 330.6,286.0 334.9,286.0 339.2,286.0 343.5,280.0 347.8,286.0 352.2,286.0 356.5,286.0 360.8,286.0 365.1,286.0 369.4,286.0 373.7,286.0 378.0,286.0 382.3,286.0 386.6,286.0 390.9,286.0 395.2,286.0 399.5,286.0 403.8,286.0 408.2,286.0 412.5,286.0 416.8,286.0 421.1,286.0 425.4,286.0 429.7,286.0 434.0,286.0 438.3,286.0 442.6,286.0 446.9,286.0 451.2,286.0 455.5,286.0 459.8,286.0 464.2,286.0 468.5,286.0 472.8,286.0 477.1,286.0 481.4,286.0 485.7,286.0 490.0,286.0 494.3,286.0 498.6,286.0 502.9,286.0 507.2,286.0 511.5,286.0 515.8,286.0 520.2,286.0 524.5,286.0 528.8,286.0 533.1,286.0 537.4,286.0 541.7,286.0 546.0,286.0 550.3,286.0 554.6,286.0 558.9,286.0 563.2,286.0 567.5,286.0 571.8,286.0 576.2,286.0 580.5,286.0 584.8,286.0 589.1,286.0 593.4,286.0 597.7,286.0 602.0,286.0 606.3,286.0 610.6,286.0 614.9,286.0 619.2,286.0 623.5,286.0 627.8,286.0 632.2,286.0 636.5,286.0 640.8,286.0 645.1,286.0 649.4,286.0 653.7,286.0 658.0,286.0 662.3,286.0 666.6,286.0 670.9,286.0 675.2,286.0 679.5,286.0 683.8,286.0 688.2,286.0 692.5,286.0 696.8,286.0 701.1,286.0 705.4,286.0 709.7,286.0 714.0,286.0 718.3,280.0 722.6,286.0 726.9,286.0 731.2,286.0 735.5,286.0 739.8,286.0 744.2,286.0 748.5,286.0 752.8,286.0 757.1,286.0 761.4,286.0 765.7,286.0 770.0,286.0 774.3,286.0 778.6,286.0 782.9,286.0 787.2,286.0 791.5,286.0 795.8,286.0 800.2,286.0 804.5,286.0 808.8,286.0 813.1,286.0 817.4,286.0 821.7,286.0 826.0,286.0 830.3,286.0 834.6,286.0 838.9,286.0 843.2,286.0 847.5,286.0 851.8,286.0 856.2,286.0 860.5,286.0 864.8,286.0 869.1,286.0 873.4,286.0 877.7,286.0 882.0,286.0 886.3,286.0 890.6,286.0 894.9,286.0 899.2,286.0 903.5,286.0 907.8,286.0 912.2,286.0 916.5,286.0 920.8,286.0 925.1,286.0 929.4,286.0 933.7,286.0 938.0,286.0"/><text x="42" y="308" font-size="11" fill="#9fb0d4">19/06 12:43</text><text x="938" y="308" text-anchor="end" font-size="11" fill="#9fb0d4">01/07 11:29</text></svg>