<svg xmlns="http://www.w3.org/2000/svg" viewBox="0 0 960 320" width="960" height="320" font-family="Segoe UI, system-ui, -apple-system, Roboto, Helvetica, Arial, sans-serif" role="img" aria-label="Availability history per region"><rect x="0.5" y="0.5" width="959" height="319" rx="14" fill="#ffffff" stroke="#dce3f1"/><text x="42" y="26" font-size="14" font-weight="600" fill="#14203a">History · 151 points</text><circle cx="47" cy="40" r="5" fill="#22c55e"/><text x="57" y="44" font-size="12" fill="#5a688a">Available</text><circle cx="139.8" cy="40" r="5" fill="#f59e0b"/><text x="149.8" y="44" font-size="12" fill="#5a688a">Saturated</text><circle cx="232.60000000000002" cy="40" r="5" fill="#ef4444"/><text x="242.60000000000002" y="44" font-size="12" fill="#5a688a">Error</text><circle cx="296.6" cy="40" r="5" fill="#a855f7"/><text x="306.6" y="44" font-size="12" fill="#5a688a">Timeout</text><line x1="42" y1="286.0" x2="938" y2="286.0" stroke="#eef2f7" stroke-width="1"/><text x="35" y="289.0" text-anchor="end" font-size="11" fill="#5a688a">0</text><line x1="42" y1="227.5" x2="938" y2="227.5" stroke="#eef2f7" stroke-width="1"/><text x="35" y="230.5" text-anchor="end" font-size="11" fill="#5a688a">10</text><line x1="42" y1="169.0" x2="938" y2="169.0" stroke="#eef2f7" stroke-width="1"/><text x="35" y="172.0" text-anchor="end" font-size="11" fill="#5a688a">19</text><line x1="42" y1="110.5" x2="938" y2="110.5" stroke="#eef2f7" stroke-width="1"/><text x="35" y="113.5" text-anchor="end" font-size="11" fill="#5a688a">28</text><line x1="42" y1="52.0" x2="938" y2="52.0" stroke="#eef2f7" stroke-width="1"/><text x="35" y="55.0" text-anchor="end" font-size="11" fill="#5a688a">38</text><polyline fill="none" stroke="#22c55e" stroke-width="2.5" stroke-linejoin="round" stroke-linecap="round" points="42.0,64.3 48.0,224.4 53.9,82.8 59.9,88.9 65.9,82.8 71.9,76.6 77.8,76.6 83.8,76.6 89.8,76.6 95.8,76.6 101.7,76.6 107.7,76.6 113.7,76.6 119.7,76.6 125.6,76.6 131.6,70.5 137.6,70.5 143.5,82.8 149.5,82.8 155.5,82.8 161.5,88.9 167.4,88.9 173.4,88.9 179.4,88.9 185.4,88.9 191.3,88.9 197.3,88.9 203.3,88.9 209.3,88.9 215.2,82.8 221.2,82.8 227.2,82.8 233.1,82.8 239.1,76.6 245.1,76.6 251.1,76.6 257.0,76.6 263.0,76.6 269.0,82.8 275.0,82.8 280.9,82.8 286.9,82.8 292.9,76.6 298.9,76.6 304.8,76.6 310.8,76.6 316.8,76.6 322.7,76.6 328.7,76.6 334.7,82.8 340.7,82.8 346.6,82.8 352.6,82.8 358.6,76.6 364.6,76.6 370.5,76.6 376.5,76.6 382.5,76.6 388.5,76.6 394.4,76.6 400.4,76.6 406.4,82.8 412.3,76.6 418.3,76.6 424.3,76.6 430.3,76.6 436.2,76.6 442.2,82.8 448.2,76.6 454.2,76.6 460.1,76.6 466.1,76.6 472.1,76.6 478.1,76.6 484.0,76.6 490.0,76.6 496.0,76.6 501.9,70.5 507.9,70.5 513.9,70.5 519.9,70.5 525.8,76.6 531.8,70.5 537.8,76.6 543.8,76.6 549.7,76.6 555.7,76.6 561.7,76.6 567.7,76.6 573.6,82.8 579.6,88.9 585.6,88.9 591.5,88.9 597.5,88.9 603.5,88.9 609.5,88.9 615.4,88.9 621.4,95.1 627.4,88.9 633.4,88.9 639.3,88.9 645.3,88.9 651.3,88.9 657.3,88.9 663.2,82.8 669.2,82.8 675.2,82.8 681.1,82.8 687.1,82.8 693.1,82.8 699.1,82.8 705.0,82.8 711.0,88.9 717.0,88.9 723.0,88.9 728.9,88.9 734.9,88.9 740.9,88.9 746.9,88.9 752.8,88.9 758.8,95.1 764.8,88.9 770.7,88.9 776.7,88.9 782.7,101.3 788.7,88.9 794.6,88.9 800.6,88.9 806.6,88.9 812.6,82.8 818.5,82.8 824.5,82.8 830.5,82.8 836.5,88.9 842.4,82.8 848.4,88.9 854.4,88.9 860.3,88.9 866.3,88.9 872.3,95.1 878.3,88.9 884.2,88.9 890.2,88.9 896.2,88.9 902.2,88.9 908.1,88.9 914.1,88.9 920.1,88.9 926.1,95.1 932.0,82.8 938.0,82.8"/><polyline fill="none" stroke="#f59e0b" stroke-width="2.5" stroke-linejoin="round" stroke-linecap="round" points="42.0,273.7 48.0,267.5 53.9,255.2 59.9,249.1 65.9,255.2 71.9,261.4 77.8,261.4 83.8,261.4 89.8,261.4 95.8,261.4 101.7,261.4 107.7,261.4 113.7,261.4 119.7,261.4 125.6,261.4 131.6,267.5 137.6,267.5 143.5,261.4 149.5,255.2 155.5,255.2 161.5,249.1 167.4,249.1 173.4,249.1 179.4,249.1 185.4,249.1 191.3,249.1 197.3,249.1 203.3,249.1 209.3,249.1 215.2,255.2 221.2,255.2 227.2,255.2 233.1,255.2 239.1,261.4 245.1,261.4 251.1,261.4 257.0,261.4 263.0,261.4 269.0,255.2 275.0,255.2 280.9,255.2 286.9,255.2 292.9,261.4 298.9,261.4 304.8,261.4 310.8,261.4 316.8,261.4 322.7,261.4 328.7,261.4 334.7,255.2 340.7,255.2 346.6,255.2 352.6,261.4 358.6,261.4 364.6,261.4 370.5,261.4 376.5,261.4 382.5,261.4 388.5,261.4 394.4,261.4 400.4,261.4 406.4,255.2 412.3,261.4 418.3,261.4 424.3,261.4 430.3,261.4 436.2,261.4 442.2,261.4 448.2,261.4 454.2,261.4 460.1,261.4 466.1,261.4 472.1,261.4 478.1,261.4 484.0,261.4 490.0,261.4 496.0,261.4 501.9,267.5 507.9,267.5 513.9,267.5 519.9,267.5 525.8,267.5 531.8,267.5 537.8,261.4 543.8,261.4 549.7,261.4 555.7,261.4 561.7,261.4 567.7,261.4 573.6,255.2 579.6,249.1 585.6,249.1 591.5,255.2 597.5,249.1 603.5,249.1 609.5,249.1 615.4,249.1 621.4,249.1 627.4,249.1 633.4,255.2 639.3,249.1 645.3,249.1 651.3,249.1 657.3,249.1 663.2,255.2 669.2,255.2 675.2,255.2 681.1,255.2 687.1,255.2 693.1,255.2 699.1,255.2 705.0,255.2 711.0,249.1 717.0,249.1 723.0,249.1 728.9,249.1 734.9,249.1 740.9,249.1 746.9,249.1 752.8,255.2 758.8,249.1 764.8,249.1 770.7,249.1 776.7,249.1 782.7,249.1 788.7,249.1 794.6,249.1 800.6,255.2 806.6,255.2 812.6,255.2 818.5,255.2 824.5,255.2 830.5,255.2 836.5,255.2 842.4,255.2 848.4,249.1 854.4,249.1 860.3,249.1 866.3,249.1 872.3,249.1 878.3,249.1 884.2,249.1 890.2,249.1 896.2,249.1 902.2,249.1 908.1,249.1 914.1,249.1 920.1,249.1 926.1,249.1 932.0,255.2 938.0,255.2"/><polyline fill="none" stroke="#ef4444" stroke-width="2.5" stroke-linejoin="round" stroke-linecap="round" points="42.0,286.0 48.0,132.1 53.9,286.0 59.9,286.0 65.9,286.0 71.9,286.0 77.8,286.0 83.8,286.0 89.8,286.0 95.8,286.0 101.7,286.0 107.7,286.0 113.7,286.0 119.7,286.0 125.6,286.0 131.6,286.0 137.6,286.0 143.5,279.8 149.5,286.0 155.5,286.0 161.5,286.0 167.4,286.0 173.4,286.0 179.4,286.0 185.4,286.0 191.3,286.0 197.3,286.0 203.3,286.0 209.3,286.0 215.2,286.0 221.2,286.0 227.2,286.0 233.1,286.0 239.1,286.0 245.1,286.0 251.1,286.0 257.0,286.0 263.0,286.0 269.0,286.0 275.0,286.0 280.9,286.0 286.9,286.0 292.9,286.0 298.9,286.0 304.8,286.0 310.8,286.0 316.8,286.0 322.7,286.0 328.7,286.0 334.7,286.0 340.7,286.0 346.6,286.0 352.6,286.0 358.6,286.0 364.6,286.0 370.5,286.0 376.5,286.0 382.5,286.0 388.5,286.0 394.4,286.0 400.4,286.0 406.4,286.0 412.3,286.0 418.3,286.0 424.3,286.0 430.3,286.0 436.2,286.0 442.2,279.8 448.2,286.0 454.2,286.0 460.1,286.0 466.1,286.0 472.1,286.0 478.1,286.0 484.0,286.0 490.0,286.0 496.0,286.0 501.9,286.0 507.9,286.0 513.9,286.0 519.9,286.0 525.8,279.8 531.8,286.0 537.8,286.0 543.8,286.0 549.7,286.0 555.7,286.0 561.7,286.0 567.7,286.0 573.6,286.0 579.6,286.0 585.6,286.0 591.5,279.8 597.5,286.0 603.5,286.0 609.5,286.0 615.4,286.0 621.4,279.8 627.4,286.0 633.4,286.0 639.3,286.0 645.3,286.0 651.3,286.0 657.3,286.0 663.2,286.0 669.2,286.0 675.2,286.0 681.1,286.0 687.1,286.0 693.1,286.0 699.1,286.0 705.0,286.0 711.0,286.0 717.0,286.0 723.0,286.0 728.9,286.0 734.9,286.0 740.9,286.0 746.9,286.0 752.8,286.0 758.8,279.8 764.8,286.0 770.7,286.0 776.7,286.0 782.7,273.7 788.7,286.0 794.6,286.0 800.6,279.8 806.6,279.8 812.6,286.0 818.5,286.0 824.5,286.0 830.5,286.0 836.5,279.8 842.4,286.0 848.4,286.0 854.4,286.0 860.3,286.0 866.3,286.0 872.3,286.0 878.3,286.0 884.2,286.0 890.2,286.0 896.2,286.0 902.2,286.0 908.1,286.0 914.1,286.0 920.1,286.0 926.1,286.0 932.0,286.0 938.0,286.0"/><polyline fill="none" stroke="#a855f7" stroke-width="2.5" stroke-linejoin="round" stroke-linecap="round" points="42.0,286.0 48.0,286.0 53.9,286.0 59.9,286.0 65.9,286.0 71.9,286.0 77.8,286.0 83.8,286.0 89.8,286.0 95.8,286.0 101.7,286.0 107.7,286.0 113.7,286.0 119.7,286.0 125.6,286.0 131.6,286.0 137.6,286.0 143.5,286.0 149.5,286.0 155.5,286.0 161.5,286.0 167.4,286.0 173.4,286.0 179.4,286.0 185.4,286.0 191.3,286.0 197.3,286.0 203.3,286.0 209.3,286.0 215.2,286.0 221.2,286.0 227.2,286.0 233.1,286.0 239.1,286.0 245.1,286.0 251.1,286.0 257.0,286.0 263.0,286.0 269.0,286.0 275.0,286.0 280.9,286.0 286.9,286.0 292.9,286.0 298.9,286.0 304.8,286.0 310.8,286.0 316.8,286.0 322.7,286.0 328.7,286.0 334.7,286.0 340.7,286.0 346.6,286.0 352.6,279.8 358.6,286.0 364.6,286.0 370.5,286.0 376.5,286.0 382.5,286.0 388.5,286.0 394.4,286.0 400.4,286.0 406.4,286.0 412.3,286.0 418.3,286.0 424.3,286.0 430.3,286.0 436.2,286.0 442.2,286.0 448.2,286.0 454.2,286.0 460.1,286.0 466.1,286.0 472.1,286.0 478.1,286.0 484.0,286.0 490.0,286.0 496.0,286.0 501.9,286.0 507.9,286.0 513.9,286.0 519.9,286.0 525.8,286.0 531.8,286.0 537.8,286.0 543.8,286.0 549.7,286.0 555.7,286.0 561.7,286.0 567.7,286.0 573.6,286.0 579.6,286.0 585.6,286.0 591.5,286.0 597.5,286.0 603.5,286.0 609.5,286.0 615.4,286.0 621.4,286.0 627.4,286.0 633.4,279.8 639.3,286.0 645.3,286.0 651.3,286.0 657.3,286.0 663.2,286.0 669.2,286.0 675.2,286.0 681.1,286.0 687.1,286.0 693.1,286.0 699.1,286.0 705.0,286.0 711.0,286.0 717.0,286.0 723.0,286.0 728.9,286.0 734.9,286.0 740.9,286.0 746.9,286.0 752.8,279.8 758.8,286.0 764.8,286.0 770.7,286.0 776.7,286.0 782.7,286.0 788.7,286.0 794.6,286.0 800.6,286.0 806.6,286.0 812.6,286.0 818.5,286.0 824.5,286.0 830.5,286.0 836.5,286.0 842.4,286.0 848.4,286.0 854.4,286.0 860.3,286.0 866.3,286.0 872.3,279.8 878.3,286.0 884.2,286.0 890.2,286.0 896.2,286.0 902.2,286.0 908.1,286.0 914.1,286.0 920.1,286.0 926.1,279.8 932.0,286.0 938.0,286.0"/><text x="42" y="308" font-size="11" fill="#5a688a">19/06 15:39</text><text x="938" y="308" text-anchor="end" font-size="11" fill="#5a688a">22/07 21:30</text></svg>