<svg xmlns="http://www.w3.org/2000/svg" viewBox="0 0 960 320" width="960" height="320" font-family="Segoe UI, system-ui, -apple-system, Roboto, Helvetica, Arial, sans-serif" role="img" aria-label="Availability history per region"><rect x="0.5" y="0.5" width="959" height="319" rx="14" fill="#0d1117" stroke="#2c3a5e"/><text x="42" y="26" font-size="14" font-weight="600" fill="#e6ecff">History · 101 points</text><circle cx="47" cy="40" r="5" fill="#22c55e"/><text x="57" y="44" font-size="12" fill="#9fb0d4">Available</text><circle cx="139.8" cy="40" r="5" fill="#f59e0b"/><text x="149.8" y="44" font-size="12" fill="#9fb0d4">Saturated</text><circle cx="232.60000000000002" cy="40" r="5" fill="#ef4444"/><text x="242.60000000000002" y="44" font-size="12" fill="#9fb0d4">Error</text><circle cx="296.6" cy="40" r="5" fill="#a855f7"/><text x="306.6" y="44" font-size="12" fill="#9fb0d4">Timeout</text><line x1="42" y1="286.0" x2="938" y2="286.0" stroke="#21304f" stroke-width="1"/><text x="35" y="289.0" text-anchor="end" font-size="11" fill="#9fb0d4">0</text><line x1="42" y1="227.5" x2="938" y2="227.5" stroke="#21304f" stroke-width="1"/><text x="35" y="230.5" text-anchor="end" font-size="11" fill="#9fb0d4">10</text><line x1="42" y1="169.0" x2="938" y2="169.0" stroke="#21304f" stroke-width="1"/><text x="35" y="172.0" text-anchor="end" font-size="11" fill="#9fb0d4">19</text><line x1="42" y1="110.5" x2="938" y2="110.5" stroke="#21304f" stroke-width="1"/><text x="35" y="113.5" text-anchor="end" font-size="11" fill="#9fb0d4">28</text><line x1="42" y1="52.0" x2="938" y2="52.0" stroke="#21304f" stroke-width="1"/><text x="35" y="55.0" text-anchor="end" font-size="11" fill="#9fb0d4">38</text><polyline fill="none" stroke="#22c55e" stroke-width="2.5" stroke-linejoin="round" stroke-linecap="round" points="42.0,64.3 51.0,224.4 59.9,82.8 68.9,88.9 77.8,82.8 86.8,76.6 95.8,76.6 104.7,76.6 113.7,76.6 122.6,76.6 131.6,76.6 140.6,76.6 149.5,76.6 158.5,76.6 167.4,76.6 176.4,70.5 185.4,70.5 194.3,82.8 203.3,82.8 212.2,82.8 221.2,88.9 230.2,88.9 239.1,88.9 248.1,88.9 257.0,88.9 266.0,88.9 275.0,88.9 283.9,88.9 292.9,88.9 301.8,82.8 310.8,82.8 319.8,82.8 328.7,82.8 337.7,76.6 346.6,76.6 355.6,76.6 364.6,76.6 373.5,76.6 382.5,82.8 391.4,82.8 400.4,82.8 409.4,82.8 418.3,76.6 427.3,76.6 436.2,76.6 445.2,76.6 454.2,76.6 463.1,76.6 472.1,76.6 481.0,82.8 490.0,82.8 499.0,82.8 507.9,82.8 516.9,76.6 525.8,76.6 534.8,76.6 543.8,76.6 552.7,76.6 561.7,76.6 570.6,76.6 579.6,76.6 588.6,82.8 597.5,76.6 606.5,76.6 615.4,76.6 624.4,76.6 633.4,76.6 642.3,82.8 651.3,76.6 660.2,76.6 669.2,76.6 678.2,76.6 687.1,76.6 696.1,76.6 705.0,76.6 714.0,76.6 723.0,76.6 731.9,70.5 740.9,70.5 749.8,70.5 758.8,70.5 767.8,76.6 776.7,70.5 785.7,76.6 794.6,76.6 803.6,76.6 812.6,76.6 821.5,76.6 830.5,76.6 839.4,82.8 848.4,88.9 857.4,88.9 866.3,88.9 875.3,88.9 884.2,88.9 893.2,88.9 902.2,88.9 911.1,95.1 920.1,88.9 929.0,88.9 938.0,88.9"/><polyline fill="none" stroke="#f59e0b" stroke-width="2.5" stroke-linejoin="round" stroke-linecap="round" points="42.0,273.7 51.0,267.5 59.9,255.2 68.9,249.1 77.8,255.2 86.8,261.4 95.8,261.4 104.7,261.4 113.7,261.4 122.6,261.4 131.6,261.4 140.6,261.4 149.5,261.4 158.5,261.4 167.4,261.4 176.4,267.5 185.4,267.5 194.3,261.4 203.3,255.2 212.2,255.2 221.2,249.1 230.2,249.1 239.1,249.1 248.1,249.1 257.0,249.1 266.0,249.1 275.0,249.1 283.9,249.1 292.9,249.1 301.8,255.2 310.8,255.2 319.8,255.2 328.7,255.2 337.7,261.4 346.6,261.4 355.6,261.4 364.6,261.4 373.5,261.4 382.5,255.2 391.4,255.2 400.4,255.2 409.4,255.2 418.3,261.4 427.3,261.4 436.2,261.4 445.2,261.4 454.2,261.4 463.1,261.4 472.1,261.4 481.0,255.2 490.0,255.2 499.0,255.2 507.9,261.4 516.9,261.4 525.8,261.4 534.8,261.4 543.8,261.4 552.7,261.4 561.7,261.4 570.6,261.4 579.6,261.4 588.6,255.2 597.5,261.4 606.5,261.4 615.4,261.4 624.4,261.4 633.4,261.4 642.3,261.4 651.3,261.4 660.2,261.4 669.2,261.4 678.2,261.4 687.1,261.4 696.1,261.4 705.0,261.4 714.0,261.4 723.0,261.4 731.9,267.5 740.9,267.5 749.8,267.5 758.8,267.5 767.8,267.5 776.7,267.5 785.7,261.4 794.6,261.4 803.6,261.4 812.6,261.4 821.5,261.4 830.5,261.4 839.4,255.2 848.4,249.1 857.4,249.1 866.3,255.2 875.3,249.1 884.2,249.1 893.2,249.1 902.2,249.1 911.1,249.1 920.1,249.1 929.0,255.2 938.0,249.1"/><polyline fill="none" stroke="#ef4444" stroke-width="2.5" stroke-linejoin="round" stroke-linecap="round" points="42.0,286.0 51.0,132.1 59.9,286.0 68.9,286.0 77.8,286.0 86.8,286.0 95.8,286.0 104.7,286.0 113.7,286.0 122.6,286.0 131.6,286.0 140.6,286.0 149.5,286.0 158.5,286.0 167.4,286.0 176.4,286.0 185.4,286.0 194.3,279.8 203.3,286.0 212.2,286.0 221.2,286.0 230.2,286.0 239.1,286.0 248.1,286.0 257.0,286.0 266.0,286.0 275.0,286.0 283.9,286.0 292.9,286.0 301.8,286.0 310.8,286.0 319.8,286.0 328.7,286.0 337.7,286.0 346.6,286.0 355.6,286.0 364.6,286.0 373.5,286.0 382.5,286.0 391.4,286.0 400.4,286.0 409.4,286.0 418.3,286.0 427.3,286.0 436.2,286.0 445.2,286.0 454.2,286.0 463.1,286.0 472.1,286.0 481.0,286.0 490.0,286.0 499.0,286.0 507.9,286.0 516.9,286.0 525.8,286.0 534.8,286.0 543.8,286.0 552.7,286.0 561.7,286.0 570.6,286.0 579.6,286.0 588.6,286.0 597.5,286.0 606.5,286.0 615.4,286.0 624.4,286.0 633.4,286.0 642.3,279.8 651.3,286.0 660.2,286.0 669.2,286.0 678.2,286.0 687.1,286.0 696.1,286.0 705.0,286.0 714.0,286.0 723.0,286.0 731.9,286.0 740.9,286.0 749.8,286.0 758.8,286.0 767.8,279.8 776.7,286.0 785.7,286.0 794.6,286.0 803.6,286.0 812.6,286.0 821.5,286.0 830.5,286.0 839.4,286.0 848.4,286.0 857.4,286.0 866.3,279.8 875.3,286.0 884.2,286.0 893.2,286.0 902.2,286.0 911.1,279.8 920.1,286.0 929.0,286.0 938.0,286.0"/><polyline fill="none" stroke="#a855f7" stroke-width="2.5" stroke-linejoin="round" stroke-linecap="round" points="42.0,286.0 51.0,286.0 59.9,286.0 68.9,286.0 77.8,286.0 86.8,286.0 95.8,286.0 104.7,286.0 113.7,286.0 122.6,286.0 131.6,286.0 140.6,286.0 149.5,286.0 158.5,286.0 167.4,286.0 176.4,286.0 185.4,286.0 194.3,286.0 203.3,286.0 212.2,286.0 221.2,286.0 230.2,286.0 239.1,286.0 248.1,286.0 257.0,286.0 266.0,286.0 275.0,286.0 283.9,286.0 292.9,286.0 301.8,286.0 310.8,286.0 319.8,286.0 328.7,286.0 337.7,286.0 346.6,286.0 355.6,286.0 364.6,286.0 373.5,286.0 382.5,286.0 391.4,286.0 400.4,286.0 409.4,286.0 418.3,286.0 427.3,286.0 436.2,286.0 445.2,286.0 454.2,286.0 463.1,286.0 472.1,286.0 481.0,286.0 490.0,286.0 499.0,286.0 507.9,279.8 516.9,286.0 525.8,286.0 534.8,286.0 543.8,286.0 552.7,286.0 561.7,286.0 570.6,286.0 579.6,286.0 588.6,286.0 597.5,286.0 606.5,286.0 615.4,286.0 624.4,286.0 633.4,286.0 642.3,286.0 651.3,286.0 660.2,286.0 669.2,286.0 678.2,286.0 687.1,286.0 696.1,286.0 705.0,286.0 714.0,286.0 723.0,286.0 731.9,286.0 740.9,286.0 749.8,286.0 758.8,286.0 767.8,286.0 776.7,286.0 785.7,286.0 794.6,286.0 803.6,286.0 812.6,286.0 821.5,286.0 830.5,286.0 839.4,286.0 848.4,286.0 857.4,286.0 866.3,286.0 875.3,286.0 884.2,286.0 893.2,286.0 902.2,286.0 911.1,286.0 920.1,286.0 929.0,279.8 938.0,286.0"/><text x="42" y="308" font-size="11" fill="#9fb0d4">19/06 15:39</text><text x="938" y="308" text-anchor="end" font-size="11" fill="#9fb0d4">20/07 19:29</text></svg>