<svg xmlns="http://www.w3.org/2000/svg" viewBox="0 0 960 320" width="960" height="320" font-family="Segoe UI, system-ui, -apple-system, Roboto, Helvetica, Arial, sans-serif" role="img" aria-label="Availability history per region"><rect x="0.5" y="0.5" width="959" height="319" rx="14" fill="#ffffff" stroke="#dce3f1"/><text x="42" y="26" font-size="14" font-weight="600" fill="#14203a">History · 318 points</text><circle cx="47" cy="40" r="5" fill="#22c55e"/><text x="57" y="44" font-size="12" fill="#5a688a">Available</text><circle cx="139.8" cy="40" r="5" fill="#f59e0b"/><text x="149.8" y="44" font-size="12" fill="#5a688a">Saturated</text><circle cx="232.60000000000002" cy="40" r="5" fill="#ef4444"/><text x="242.60000000000002" y="44" font-size="12" fill="#5a688a">Error</text><circle cx="296.6" cy="40" r="5" fill="#a855f7"/><text x="306.6" y="44" font-size="12" fill="#5a688a">Timeout</text><line x1="42" y1="286.0" x2="938" y2="286.0" stroke="#eef2f7" stroke-width="1"/><text x="35" y="289.0" text-anchor="end" font-size="11" fill="#5a688a">0</text><line x1="42" y1="227.5" x2="938" y2="227.5" stroke="#eef2f7" stroke-width="1"/><text x="35" y="230.5" text-anchor="end" font-size="11" fill="#5a688a">10</text><line x1="42" y1="169.0" x2="938" y2="169.0" stroke="#eef2f7" stroke-width="1"/><text x="35" y="172.0" text-anchor="end" font-size="11" fill="#5a688a">20</text><line x1="42" y1="110.5" x2="938" y2="110.5" stroke="#eef2f7" stroke-width="1"/><text x="35" y="113.5" text-anchor="end" font-size="11" fill="#5a688a">29</text><line x1="42" y1="52.0" x2="938" y2="52.0" stroke="#eef2f7" stroke-width="1"/><text x="35" y="55.0" text-anchor="end" font-size="11" fill="#5a688a">39</text><polyline fill="none" stroke="#22c55e" stroke-width="2.5" stroke-linejoin="round" stroke-linecap="round" points="42.0,70.0 44.8,70.0 47.7,88.0 50.5,88.0 53.3,76.0 56.1,76.0 59.0,76.0 61.8,70.0 64.6,76.0 67.4,70.0 70.3,64.0 73.1,58.0 75.9,58.0 78.7,58.0 81.6,58.0 84.4,58.0 87.2,58.0 90.1,58.0 92.9,58.0 95.7,58.0 98.5,58.0 101.4,58.0 104.2,58.0 107.0,58.0 109.8,58.0 112.7,58.0 115.5,58.0 118.3,58.0 121.1,58.0 124.0,58.0 126.8,58.0 129.6,70.0 132.4,76.0 135.3,94.0 138.1,64.0 140.9,64.0 143.8,58.0 146.6,58.0 149.4,58.0 152.2,70.0 155.1,76.0 157.9,76.0 160.7,82.0 163.5,82.0 166.4,82.0 169.2,82.0 172.0,76.0 174.8,64.0 177.7,70.0 180.5,70.0 183.3,82.0 186.2,76.0 189.0,76.0 191.8,82.0 194.6,76.0 197.5,76.0 200.3,76.0 203.1,64.0 205.9,64.0 208.8,76.0 211.6,76.0 214.4,76.0 217.2,88.0 220.1,70.0 222.9,64.0 225.7,58.0 228.5,58.0 231.4,70.0 234.2,70.0 237.0,70.0 239.9,76.0 242.7,70.0 245.5,70.0 248.3,70.0 251.2,70.0 254.0,76.0 256.8,82.0 259.6,76.0 262.5,70.0 265.3,70.0 268.1,70.0 270.9,70.0 273.8,76.0 276.6,70.0 279.4,70.0 282.3,70.0 285.1,70.0 287.9,70.0 290.7,70.0 293.6,70.0 296.4,70.0 299.2,70.0 302.0,70.0 304.9,70.0 307.7,70.0 310.5,70.0 313.3,70.0 316.2,70.0 319.0,70.0 321.8,70.0 324.6,70.0 327.5,70.0 330.3,70.0 333.1,70.0 336.0,70.0 338.8,70.0 341.6,70.0 344.4,70.0 347.3,70.0 350.1,70.0 352.9,70.0 355.7,70.0 358.6,70.0 361.4,70.0 364.2,70.0 367.0,70.0 369.9,70.0 372.7,70.0 375.5,70.0 378.4,70.0 381.2,70.0 384.0,70.0 386.8,70.0 389.7,70.0 392.5,70.0 395.3,70.0 398.1,70.0 401.0,70.0 403.8,70.0 406.6,70.0 409.4,70.0 412.3,70.0 415.1,70.0 417.9,70.0 420.8,70.0 423.6,70.0 426.4,70.0 429.2,70.0 432.1,70.0 434.9,70.0 437.7,70.0 440.5,70.0 443.4,70.0 446.2,70.0 449.0,70.0 451.8,70.0 454.7,70.0 457.5,70.0 460.3,70.0 463.1,70.0 466.0,70.0 468.8,76.0 471.6,70.0 474.5,70.0 477.3,70.0 480.1,70.0 482.9,70.0 485.8,76.0 488.6,76.0 491.4,88.0 494.2,88.0 497.1,88.0 499.9,94.0 502.7,94.0 505.5,94.0 508.4,94.0 511.2,88.0 514.0,88.0 516.9,82.0 519.7,82.0 522.5,82.0 525.3,88.0 528.2,88.0 531.0,94.0 533.8,82.0 536.6,82.0 539.5,82.0 542.3,82.0 545.1,88.0 547.9,88.0 550.8,94.0 553.6,94.0 556.4,88.0 559.2,88.0 562.1,88.0 564.9,94.0 567.7,94.0 570.6,106.0 573.4,94.0 576.2,94.0 579.0,94.0 581.9,94.0 584.7,88.0 587.5,88.0 590.3,82.0 593.2,76.0 596.0,76.0 598.8,76.0 601.6,76.0 604.5,76.0 607.3,76.0 610.1,70.0 613.0,70.0 615.8,70.0 618.6,76.0 621.4,88.0 624.3,82.0 627.1,70.0 629.9,70.0 632.7,70.0 635.6,76.0 638.4,76.0 641.2,76.0 644.0,82.0 646.9,70.0 649.7,76.0 652.5,64.0 655.4,70.0 658.2,58.0 661.0,58.0 663.8,58.0 666.7,58.0 669.5,58.0 672.3,64.0 675.1,58.0 678.0,64.0 680.8,58.0 683.6,58.0 686.4,58.0 689.3,58.0 692.1,64.0 694.9,64.0 697.7,64.0 700.6,76.0 703.4,70.0 706.2,82.0 709.1,70.0 711.9,76.0 714.7,58.0 717.5,64.0 720.4,58.0 723.2,64.0 726.0,58.0 728.8,58.0 731.7,58.0 734.5,64.0 737.3,70.0 740.1,64.0 743.0,64.0 745.8,64.0 748.6,70.0 751.5,70.0 754.3,64.0 757.1,70.0 759.9,70.0 762.8,70.0 765.6,58.0 768.4,58.0 771.2,58.0 774.1,58.0 776.9,58.0 779.7,64.0 782.5,58.0 785.4,58.0 788.2,58.0 791.0,58.0 793.8,58.0 796.7,58.0 799.5,58.0 802.3,58.0 805.2,64.0 808.0,58.0 810.8,58.0 813.6,58.0 816.5,58.0 819.3,58.0 822.1,58.0 824.9,58.0 827.8,64.0 830.6,58.0 833.4,58.0 836.2,58.0 839.1,58.0 841.9,58.0 844.7,58.0 847.6,58.0 850.4,58.0 853.2,58.0 856.0,58.0 858.9,58.0 861.7,58.0 864.5,58.0 867.3,58.0 870.2,58.0 873.0,58.0 875.8,58.0 878.6,58.0 881.5,58.0 884.3,64.0 887.1,64.0 889.9,58.0 892.8,58.0 895.6,58.0 898.4,64.0 901.3,64.0 904.1,76.0 906.9,64.0 909.7,64.0 912.6,70.0 915.4,58.0 918.2,58.0 921.0,58.0 923.9,58.0 926.7,58.0 929.5,58.0 932.3,70.0 935.2,64.0 938.0,64.0"/><polyline fill="none" stroke="#f59e0b" stroke-width="2.5" stroke-linejoin="round" stroke-linecap="round" points="42.0,274.0 44.8,274.0 47.7,274.0 50.5,280.0 53.3,268.0 56.1,268.0 59.0,268.0 61.8,274.0 64.6,274.0 67.4,274.0 70.3,280.0 73.1,286.0 75.9,286.0 78.7,286.0 81.6,286.0 84.4,286.0 87.2,286.0 90.1,286.0 92.9,286.0 95.7,286.0 98.5,286.0 101.4,286.0 104.2,286.0 107.0,286.0 109.8,286.0 112.7,286.0 115.5,286.0 118.3,286.0 121.1,286.0 124.0,286.0 126.8,286.0 129.6,274.0 132.4,280.0 135.3,280.0 138.1,280.0 140.9,280.0 143.8,286.0 146.6,286.0 149.4,286.0 152.2,274.0 155.1,268.0 157.9,268.0 160.7,262.0 163.5,262.0 166.4,262.0 169.2,262.0 172.0,268.0 174.8,280.0 177.7,280.0 180.5,274.0 183.3,262.0 186.2,268.0 189.0,268.0 191.8,262.0 194.6,268.0 197.5,268.0 200.3,268.0 203.1,280.0 205.9,280.0 208.8,268.0 211.6,268.0 214.4,268.0 217.2,262.0 220.1,274.0 222.9,280.0 225.7,286.0 228.5,286.0 231.4,274.0 234.2,274.0 237.0,274.0 239.9,274.0 242.7,274.0 245.5,274.0 248.3,274.0 251.2,274.0 254.0,280.0 256.8,274.0 259.6,280.0 262.5,286.0 265.3,286.0 268.1,286.0 270.9,286.0 273.8,280.0 276.6,286.0 279.4,286.0 282.3,286.0 285.1,286.0 287.9,286.0 290.7,286.0 293.6,286.0 296.4,286.0 299.2,286.0 302.0,286.0 304.9,286.0 307.7,286.0 310.5,286.0 313.3,286.0 316.2,286.0 319.0,286.0 321.8,286.0 324.6,286.0 327.5,286.0 330.3,286.0 333.1,286.0 336.0,286.0 338.8,286.0 341.6,286.0 344.4,286.0 347.3,286.0 350.1,286.0 352.9,286.0 355.7,286.0 358.6,286.0 361.4,286.0 364.2,286.0 367.0,286.0 369.9,286.0 372.7,286.0 375.5,286.0 378.4,286.0 381.2,286.0 384.0,286.0 386.8,286.0 389.7,286.0 392.5,286.0 395.3,286.0 398.1,286.0 401.0,286.0 403.8,286.0 406.6,286.0 409.4,286.0 412.3,286.0 415.1,286.0 417.9,286.0 420.8,286.0 423.6,286.0 426.4,286.0 429.2,286.0 432.1,286.0 434.9,286.0 437.7,286.0 440.5,286.0 443.4,286.0 446.2,286.0 449.0,286.0 451.8,286.0 454.7,286.0 457.5,286.0 460.3,286.0 463.1,286.0 466.0,286.0 468.8,286.0 471.6,286.0 474.5,286.0 477.3,286.0 480.1,286.0 482.9,286.0 485.8,286.0 488.6,280.0 491.4,268.0 494.2,268.0 497.1,268.0 499.9,268.0 502.7,262.0 505.5,262.0 508.4,262.0 511.2,268.0 514.0,268.0 516.9,274.0 519.7,274.0 522.5,274.0 525.3,268.0 528.2,268.0 531.0,268.0 533.8,274.0 536.6,274.0 539.5,274.0 542.3,274.0 545.1,268.0 547.9,268.0 550.8,262.0 553.6,262.0 556.4,268.0 559.2,268.0 562.1,268.0 564.9,262.0 567.7,262.0 570.6,274.0 573.4,262.0 576.2,262.0 579.0,262.0 581.9,262.0 584.7,268.0 587.5,268.0 590.3,274.0 593.2,280.0 596.0,280.0 598.8,280.0 601.6,280.0 604.5,280.0 607.3,280.0 610.1,286.0 613.0,286.0 615.8,286.0 618.6,280.0 621.4,274.0 624.3,274.0 627.1,280.0 629.9,274.0 632.7,274.0 635.6,268.0 638.4,268.0 641.2,268.0 644.0,268.0 646.9,280.0 649.7,274.0 652.5,280.0 655.4,280.0 658.2,286.0 661.0,286.0 663.8,286.0 666.7,286.0 669.5,286.0 672.3,286.0 675.1,286.0 678.0,286.0 680.8,286.0 683.6,286.0 686.4,286.0 689.3,286.0 692.1,280.0 694.9,280.0 697.7,280.0 700.6,268.0 703.4,280.0 706.2,268.0 709.1,274.0 711.9,274.0 714.7,286.0 717.5,280.0 720.4,286.0 723.2,280.0 726.0,286.0 728.8,286.0 731.7,286.0 734.5,280.0 737.3,274.0 740.1,280.0 743.0,280.0 745.8,280.0 748.6,274.0 751.5,274.0 754.3,280.0 757.1,280.0 759.9,280.0 762.8,280.0 765.6,286.0 768.4,286.0 771.2,286.0 774.1,286.0 776.9,286.0 779.7,286.0 782.5,286.0 785.4,286.0 788.2,286.0 791.0,286.0 793.8,286.0 796.7,286.0 799.5,286.0 802.3,286.0 805.2,286.0 808.0,286.0 810.8,286.0 813.6,286.0 816.5,286.0 819.3,286.0 822.1,286.0 824.9,286.0 827.8,286.0 830.6,286.0 833.4,286.0 836.2,286.0 839.1,286.0 841.9,286.0 844.7,286.0 847.6,286.0 850.4,286.0 853.2,286.0 856.0,286.0 858.9,286.0 861.7,286.0 864.5,286.0 867.3,286.0 870.2,286.0 873.0,286.0 875.8,286.0 878.6,286.0 881.5,286.0 884.3,286.0 887.1,286.0 889.9,286.0 892.8,286.0 895.6,286.0 898.4,280.0 901.3,280.0 904.1,280.0 906.9,280.0 909.7,280.0 912.6,274.0 915.4,286.0 918.2,286.0 921.0,286.0 923.9,286.0 926.7,286.0 929.5,286.0 932.3,286.0 935.2,280.0 938.0,280.0"/><polyline fill="none" stroke="#ef4444" stroke-width="2.5" stroke-linejoin="round" stroke-linecap="round" points="42.0,280.0 44.8,280.0 47.7,268.0 50.5,262.0 53.3,286.0 56.1,286.0 59.0,286.0 61.8,286.0 64.6,280.0 67.4,286.0 70.3,286.0 73.1,286.0 75.9,286.0 78.7,286.0 81.6,286.0 84.4,286.0 87.2,286.0 90.1,286.0 92.9,286.0 95.7,286.0 98.5,286.0 101.4,286.0 104.2,286.0 107.0,286.0 109.8,286.0 112.7,286.0 115.5,286.0 118.3,286.0 121.1,286.0 124.0,286.0 126.8,286.0 129.6,286.0 132.4,274.0 135.3,256.0 138.1,286.0 140.9,286.0 143.8,286.0 146.6,286.0 149.4,286.0 152.2,286.0 155.1,286.0 157.9,286.0 160.7,286.0 163.5,286.0 166.4,286.0 169.2,286.0 172.0,286.0 174.8,286.0 177.7,280.0 180.5,286.0 183.3,286.0 186.2,286.0 189.0,286.0 191.8,286.0 194.6,286.0 197.5,286.0 200.3,286.0 203.1,286.0 205.9,286.0 208.8,286.0 211.6,286.0 214.4,286.0 217.2,280.0 220.1,286.0 222.9,286.0 225.7,286.0 228.5,286.0 231.4,286.0 234.2,286.0 237.0,286.0 239.9,286.0 242.7,286.0 245.5,286.0 248.3,286.0 251.2,286.0 254.0,274.0 256.8,274.0 259.6,274.0 262.5,274.0 265.3,274.0 268.1,274.0 270.9,274.0 273.8,274.0 276.6,274.0 279.4,274.0 282.3,274.0 285.1,274.0 287.9,274.0 290.7,274.0 293.6,274.0 296.4,274.0 299.2,274.0 302.0,274.0 304.9,274.0 307.7,274.0 310.5,274.0 313.3,274.0 316.2,274.0 319.0,274.0 321.8,274.0 324.6,274.0 327.5,274.0 330.3,274.0 333.1,274.0 336.0,274.0 338.8,274.0 341.6,274.0 344.4,274.0 347.3,274.0 350.1,274.0 352.9,274.0 355.7,274.0 358.6,274.0 361.4,274.0 364.2,274.0 367.0,274.0 369.9,274.0 372.7,274.0 375.5,274.0 378.4,274.0 381.2,274.0 384.0,274.0 386.8,274.0 389.7,274.0 392.5,274.0 395.3,274.0 398.1,274.0 401.0,274.0 403.8,274.0 406.6,274.0 409.4,274.0 412.3,274.0 415.1,274.0 417.9,274.0 420.8,274.0 423.6,274.0 426.4,274.0 429.2,274.0 432.1,274.0 434.9,274.0 437.7,274.0 440.5,274.0 443.4,274.0 446.2,274.0 449.0,274.0 451.8,274.0 454.7,274.0 457.5,274.0 460.3,274.0 463.1,274.0 466.0,274.0 468.8,268.0 471.6,274.0 474.5,274.0 477.3,274.0 480.1,274.0 482.9,274.0 485.8,274.0 488.6,274.0 491.4,274.0 494.2,274.0 497.1,274.0 499.9,268.0 502.7,274.0 505.5,274.0 508.4,274.0 511.2,274.0 514.0,274.0 516.9,274.0 519.7,274.0 522.5,274.0 525.3,274.0 528.2,274.0 531.0,268.0 533.8,274.0 536.6,274.0 539.5,274.0 542.3,274.0 545.1,274.0 547.9,274.0 550.8,274.0 553.6,274.0 556.4,274.0 559.2,274.0 562.1,274.0 564.9,274.0 567.7,274.0 570.6,250.0 573.4,274.0 576.2,274.0 579.0,274.0 581.9,274.0 584.7,274.0 587.5,274.0 590.3,274.0 593.2,274.0 596.0,274.0 598.8,274.0 601.6,274.0 604.5,274.0 607.3,274.0 610.1,274.0 613.0,274.0 615.8,274.0 618.6,274.0 621.4,268.0 624.3,274.0 627.1,280.0 629.9,286.0 632.7,286.0 635.6,286.0 638.4,286.0 641.2,286.0 644.0,280.0 646.9,280.0 649.7,286.0 652.5,286.0 655.4,280.0 658.2,286.0 661.0,286.0 663.8,286.0 666.7,286.0 669.5,286.0 672.3,280.0 675.1,286.0 678.0,286.0 680.8,286.0 683.6,286.0 686.4,286.0 689.3,286.0 692.1,286.0 694.9,286.0 697.7,286.0 700.6,286.0 703.4,280.0 706.2,280.0 709.1,286.0 711.9,280.0 714.7,286.0 717.5,286.0 720.4,286.0 723.2,286.0 726.0,286.0 728.8,286.0 731.7,286.0 734.5,286.0 737.3,286.0 740.1,286.0 743.0,286.0 745.8,286.0 748.6,286.0 751.5,286.0 754.3,286.0 757.1,280.0 759.9,286.0 762.8,280.0 765.6,286.0 768.4,286.0 771.2,286.0 774.1,286.0 776.9,286.0 779.7,286.0 782.5,286.0 785.4,286.0 788.2,286.0 791.0,286.0 793.8,286.0 796.7,286.0 799.5,286.0 802.3,286.0 805.2,280.0 808.0,286.0 810.8,286.0 813.6,286.0 816.5,286.0 819.3,286.0 822.1,286.0 824.9,286.0 827.8,286.0 830.6,286.0 833.4,286.0 836.2,286.0 839.1,286.0 841.9,286.0 844.7,286.0 847.6,286.0 850.4,286.0 853.2,286.0 856.0,286.0 858.9,286.0 861.7,286.0 864.5,286.0 867.3,286.0 870.2,286.0 873.0,286.0 875.8,286.0 878.6,286.0 881.5,286.0 884.3,280.0 887.1,280.0 889.9,286.0 892.8,286.0 895.6,286.0 898.4,286.0 901.3,286.0 904.1,274.0 906.9,286.0 909.7,286.0 912.6,286.0 915.4,286.0 918.2,286.0 921.0,286.0 923.9,286.0 926.7,286.0 929.5,286.0 932.3,286.0 935.2,286.0 938.0,286.0"/><polyline fill="none" stroke="#a855f7" stroke-width="2.5" stroke-linejoin="round" stroke-linecap="round" points="42.0,286.0 44.8,286.0 47.7,286.0 50.5,286.0 53.3,286.0 56.1,286.0 59.0,286.0 61.8,286.0 64.6,286.0 67.4,286.0 70.3,286.0 73.1,286.0 75.9,286.0 78.7,286.0 81.6,286.0 84.4,286.0 87.2,286.0 90.1,286.0 92.9,286.0 95.7,286.0 98.5,286.0 101.4,286.0 104.2,286.0 107.0,286.0 109.8,286.0 112.7,286.0 115.5,286.0 118.3,286.0 121.1,286.0 124.0,286.0 126.8,286.0 129.6,286.0 132.4,286.0 135.3,286.0 138.1,286.0 140.9,286.0 143.8,286.0 146.6,286.0 149.4,286.0 152.2,286.0 155.1,286.0 157.9,286.0 160.7,286.0 163.5,286.0 166.4,286.0 169.2,286.0 172.0,286.0 174.8,286.0 177.7,286.0 180.5,286.0 183.3,286.0 186.2,286.0 189.0,286.0 191.8,286.0 194.6,286.0 197.5,286.0 200.3,286.0 203.1,286.0 205.9,286.0 208.8,286.0 211.6,286.0 214.4,286.0 217.2,286.0 220.1,286.0 222.9,286.0 225.7,286.0 228.5,286.0 231.4,286.0 234.2,286.0 237.0,286.0 239.9,280.0 242.7,286.0 245.5,286.0 248.3,286.0 251.2,286.0 254.0,286.0 256.8,286.0 259.6,286.0 262.5,286.0 265.3,286.0 268.1,286.0 270.9,286.0 273.8,286.0 276.6,286.0 279.4,286.0 282.3,286.0 285.1,286.0 287.9,286.0 290.7,286.0 293.6,286.0 296.4,286.0 299.2,286.0 302.0,286.0 304.9,286.0 307.7,286.0 310.5,286.0 313.3,286.0 316.2,286.0 319.0,286.0 321.8,286.0 324.6,286.0 327.5,286.0 330.3,286.0 333.1,286.0 336.0,286.0 338.8,286.0 341.6,286.0 344.4,286.0 347.3,286.0 350.1,286.0 352.9,286.0 355.7,286.0 358.6,286.0 361.4,286.0 364.2,286.0 367.0,286.0 369.9,286.0 372.7,286.0 375.5,286.0 378.4,286.0 381.2,286.0 384.0,286.0 386.8,286.0 389.7,286.0 392.5,286.0 395.3,286.0 398.1,286.0 401.0,286.0 403.8,286.0 406.6,286.0 409.4,286.0 412.3,286.0 415.1,286.0 417.9,286.0 420.8,286.0 423.6,286.0 426.4,286.0 429.2,286.0 432.1,286.0 434.9,286.0 437.7,286.0 440.5,286.0 443.4,286.0 446.2,286.0 449.0,286.0 451.8,286.0 454.7,286.0 457.5,286.0 460.3,286.0 463.1,286.0 466.0,286.0 468.8,286.0 471.6,286.0 474.5,286.0 477.3,286.0 480.1,286.0 482.9,286.0 485.8,280.0 488.6,286.0 491.4,286.0 494.2,286.0 497.1,286.0 499.9,286.0 502.7,286.0 505.5,286.0 508.4,286.0 511.2,286.0 514.0,286.0 516.9,286.0 519.7,286.0 522.5,286.0 525.3,286.0 528.2,286.0 531.0,286.0 533.8,286.0 536.6,286.0 539.5,286.0 542.3,286.0 545.1,286.0 547.9,286.0 550.8,286.0 553.6,286.0 556.4,286.0 559.2,286.0 562.1,286.0 564.9,286.0 567.7,286.0 570.6,286.0 573.4,286.0 576.2,286.0 579.0,286.0 581.9,286.0 584.7,286.0 587.5,286.0 590.3,286.0 593.2,286.0 596.0,286.0 598.8,286.0 601.6,286.0 604.5,286.0 607.3,286.0 610.1,286.0 613.0,286.0 615.8,286.0 618.6,286.0 621.4,286.0 624.3,286.0 627.1,286.0 629.9,286.0 632.7,286.0 635.6,286.0 638.4,286.0 641.2,286.0 644.0,286.0 646.9,286.0 649.7,280.0 652.5,286.0 655.4,286.0 658.2,286.0 661.0,286.0 663.8,286.0 666.7,286.0 669.5,286.0 672.3,286.0 675.1,286.0 678.0,280.0 680.8,286.0 683.6,286.0 686.4,286.0 689.3,286.0 692.1,286.0 694.9,286.0 697.7,286.0 700.6,286.0 703.4,286.0 706.2,286.0 709.1,286.0 711.9,286.0 714.7,286.0 717.5,286.0 720.4,286.0 723.2,286.0 726.0,286.0 728.8,286.0 731.7,286.0 734.5,286.0 737.3,286.0 740.1,286.0 743.0,286.0 745.8,286.0 748.6,286.0 751.5,286.0 754.3,286.0 757.1,286.0 759.9,280.0 762.8,286.0 765.6,286.0 768.4,286.0 771.2,286.0 774.1,286.0 776.9,286.0 779.7,280.0 782.5,286.0 785.4,286.0 788.2,286.0 791.0,286.0 793.8,286.0 796.7,286.0 799.5,286.0 802.3,286.0 805.2,286.0 808.0,286.0 810.8,286.0 813.6,286.0 816.5,286.0 819.3,286.0 822.1,286.0 824.9,286.0 827.8,280.0 830.6,286.0 833.4,286.0 836.2,286.0 839.1,286.0 841.9,286.0 844.7,286.0 847.6,286.0 850.4,286.0 853.2,286.0 856.0,286.0 858.9,286.0 861.7,286.0 864.5,286.0 867.3,286.0 870.2,286.0 873.0,286.0 875.8,286.0 878.6,286.0 881.5,286.0 884.3,286.0 887.1,286.0 889.9,286.0 892.8,286.0 895.6,286.0 898.4,286.0 901.3,286.0 904.1,286.0 906.9,286.0 909.7,286.0 912.6,286.0 915.4,286.0 918.2,286.0 921.0,286.0 923.9,286.0 926.7,286.0 929.5,286.0 932.3,274.0 935.2,286.0 938.0,286.0"/><text x="42" y="308" font-size="11" fill="#5a688a">19/06 12:43</text><text x="938" y="308" text-anchor="end" font-size="11" fill="#5a688a">07/07 03:30</text></svg>