<svg xmlns="http://www.w3.org/2000/svg" viewBox="0 0 960 320" width="960" height="320" font-family="Segoe UI, system-ui, -apple-system, Roboto, Helvetica, Arial, sans-serif" role="img" aria-label="Availability history per region"><rect x="0.5" y="0.5" width="959" height="319" rx="14" fill="#0d1117" stroke="#2c3a5e"/><text x="42" y="26" font-size="14" font-weight="600" fill="#e6ecff">History · 331 points</text><circle cx="47" cy="40" r="5" fill="#22c55e"/><text x="57" y="44" font-size="12" fill="#9fb0d4">Available</text><circle cx="139.8" cy="40" r="5" fill="#f59e0b"/><text x="149.8" y="44" font-size="12" fill="#9fb0d4">Saturated</text><circle cx="232.60000000000002" cy="40" r="5" fill="#ef4444"/><text x="242.60000000000002" y="44" font-size="12" fill="#9fb0d4">Error</text><circle cx="296.6" cy="40" r="5" fill="#a855f7"/><text x="306.6" y="44" font-size="12" fill="#9fb0d4">Timeout</text><line x1="42" y1="286.0" x2="938" y2="286.0" stroke="#21304f" stroke-width="1"/><text x="35" y="289.0" text-anchor="end" font-size="11" fill="#9fb0d4">0</text><line x1="42" y1="227.5" x2="938" y2="227.5" stroke="#21304f" stroke-width="1"/><text x="35" y="230.5" text-anchor="end" font-size="11" fill="#9fb0d4">10</text><line x1="42" y1="169.0" x2="938" y2="169.0" stroke="#21304f" stroke-width="1"/><text x="35" y="172.0" text-anchor="end" font-size="11" fill="#9fb0d4">20</text><line x1="42" y1="110.5" x2="938" y2="110.5" stroke="#21304f" stroke-width="1"/><text x="35" y="113.5" text-anchor="end" font-size="11" fill="#9fb0d4">29</text><line x1="42" y1="52.0" x2="938" y2="52.0" stroke="#21304f" stroke-width="1"/><text x="35" y="55.0" text-anchor="end" font-size="11" fill="#9fb0d4">39</text><polyline fill="none" stroke="#22c55e" stroke-width="2.5" stroke-linejoin="round" stroke-linecap="round" points="42.0,70.0 44.7,70.0 47.4,88.0 50.1,88.0 52.9,76.0 55.6,76.0 58.3,76.0 61.0,70.0 63.7,76.0 66.4,70.0 69.2,64.0 71.9,58.0 74.6,58.0 77.3,58.0 80.0,58.0 82.7,58.0 85.4,58.0 88.2,58.0 90.9,58.0 93.6,58.0 96.3,58.0 99.0,58.0 101.7,58.0 104.4,58.0 107.2,58.0 109.9,58.0 112.6,58.0 115.3,58.0 118.0,58.0 120.7,58.0 123.5,58.0 126.2,70.0 128.9,76.0 131.6,94.0 134.3,64.0 137.0,64.0 139.7,58.0 142.5,58.0 145.2,58.0 147.9,70.0 150.6,76.0 153.3,76.0 156.0,82.0 158.8,82.0 161.5,82.0 164.2,82.0 166.9,76.0 169.6,64.0 172.3,70.0 175.0,70.0 177.8,82.0 180.5,76.0 183.2,76.0 185.9,82.0 188.6,76.0 191.3,76.0 194.0,76.0 196.8,64.0 199.5,64.0 202.2,76.0 204.9,76.0 207.6,76.0 210.3,88.0 213.1,70.0 215.8,64.0 218.5,58.0 221.2,58.0 223.9,70.0 226.6,70.0 229.3,70.0 232.1,76.0 234.8,70.0 237.5,70.0 240.2,70.0 242.9,70.0 245.6,76.0 248.4,82.0 251.1,76.0 253.8,70.0 256.5,70.0 259.2,70.0 261.9,70.0 264.6,76.0 267.4,70.0 270.1,70.0 272.8,70.0 275.5,70.0 278.2,70.0 280.9,70.0 283.6,70.0 286.4,70.0 289.1,70.0 291.8,70.0 294.5,70.0 297.2,70.0 299.9,70.0 302.7,70.0 305.4,70.0 308.1,70.0 310.8,70.0 313.5,70.0 316.2,70.0 318.9,70.0 321.7,70.0 324.4,70.0 327.1,70.0 329.8,70.0 332.5,70.0 335.2,70.0 338.0,70.0 340.7,70.0 343.4,70.0 346.1,70.0 348.8,70.0 351.5,70.0 354.2,70.0 357.0,70.0 359.7,70.0 362.4,70.0 365.1,70.0 367.8,70.0 370.5,70.0 373.2,70.0 376.0,70.0 378.7,70.0 381.4,70.0 384.1,70.0 386.8,70.0 389.5,70.0 392.3,70.0 395.0,70.0 397.7,70.0 400.4,70.0 403.1,70.0 405.8,70.0 408.5,70.0 411.3,70.0 414.0,70.0 416.7,70.0 419.4,70.0 422.1,70.0 424.8,70.0 427.6,70.0 430.3,70.0 433.0,70.0 435.7,70.0 438.4,70.0 441.1,70.0 443.8,70.0 446.6,70.0 449.3,70.0 452.0,76.0 454.7,70.0 457.4,70.0 460.1,70.0 462.8,70.0 465.6,70.0 468.3,76.0 471.0,76.0 473.7,88.0 476.4,88.0 479.1,88.0 481.9,94.0 484.6,94.0 487.3,94.0 490.0,94.0 492.7,88.0 495.4,88.0 498.1,82.0 500.9,82.0 503.6,82.0 506.3,88.0 509.0,88.0 511.7,94.0 514.4,82.0 517.2,82.0 519.9,82.0 522.6,82.0 525.3,88.0 528.0,88.0 530.7,94.0 533.4,94.0 536.2,88.0 538.9,88.0 541.6,88.0 544.3,94.0 547.0,94.0 549.7,106.0 552.4,94.0 555.2,94.0 557.9,94.0 560.6,94.0 563.3,88.0 566.0,88.0 568.7,82.0 571.5,76.0 574.2,76.0 576.9,76.0 579.6,76.0 582.3,76.0 585.0,76.0 587.7,70.0 590.5,70.0 593.2,70.0 595.9,76.0 598.6,88.0 601.3,82.0 604.0,70.0 606.8,70.0 609.5,70.0 612.2,76.0 614.9,76.0 617.6,76.0 620.3,82.0 623.0,70.0 625.8,76.0 628.5,64.0 631.2,70.0 633.9,58.0 636.6,58.0 639.3,58.0 642.0,58.0 644.8,58.0 647.5,64.0 650.2,58.0 652.9,64.0 655.6,58.0 658.3,58.0 661.1,58.0 663.8,58.0 666.5,64.0 669.2,64.0 671.9,64.0 674.6,76.0 677.3,70.0 680.1,82.0 682.8,70.0 685.5,76.0 688.2,58.0 690.9,64.0 693.6,58.0 696.4,64.0 699.1,58.0 701.8,58.0 704.5,58.0 707.2,64.0 709.9,70.0 712.6,64.0 715.4,64.0 718.1,64.0 720.8,70.0 723.5,70.0 726.2,64.0 728.9,70.0 731.6,70.0 734.4,70.0 737.1,58.0 739.8,58.0 742.5,58.0 745.2,58.0 747.9,58.0 750.7,64.0 753.4,58.0 756.1,58.0 758.8,58.0 761.5,58.0 764.2,58.0 766.9,58.0 769.7,58.0 772.4,58.0 775.1,64.0 777.8,58.0 780.5,58.0 783.2,58.0 786.0,58.0 788.7,58.0 791.4,58.0 794.1,58.0 796.8,64.0 799.5,58.0 802.2,58.0 805.0,58.0 807.7,58.0 810.4,58.0 813.1,58.0 815.8,58.0 818.5,58.0 821.2,58.0 824.0,58.0 826.7,58.0 829.4,58.0 832.1,58.0 834.8,58.0 837.5,58.0 840.3,58.0 843.0,58.0 845.7,58.0 848.4,58.0 851.1,64.0 853.8,64.0 856.5,58.0 859.3,58.0 862.0,58.0 864.7,64.0 867.4,64.0 870.1,76.0 872.8,64.0 875.6,64.0 878.3,70.0 881.0,58.0 883.7,58.0 886.4,58.0 889.1,58.0 891.8,58.0 894.6,58.0 897.3,70.0 900.0,64.0 902.7,64.0 905.4,64.0 908.1,64.0 910.8,70.0 913.6,70.0 916.3,76.0 919.0,76.0 921.7,82.0 924.4,88.0 927.1,82.0 929.9,82.0 932.6,88.0 935.3,82.0 938.0,76.0"/><polyline fill="none" stroke="#f59e0b" stroke-width="2.5" stroke-linejoin="round" stroke-linecap="round" points="42.0,274.0 44.7,274.0 47.4,274.0 50.1,280.0 52.9,268.0 55.6,268.0 58.3,268.0 61.0,274.0 63.7,274.0 66.4,274.0 69.2,280.0 71.9,286.0 74.6,286.0 77.3,286.0 80.0,286.0 82.7,286.0 85.4,286.0 88.2,286.0 90.9,286.0 93.6,286.0 96.3,286.0 99.0,286.0 101.7,286.0 104.4,286.0 107.2,286.0 109.9,286.0 112.6,286.0 115.3,286.0 118.0,286.0 120.7,286.0 123.5,286.0 126.2,274.0 128.9,280.0 131.6,280.0 134.3,280.0 137.0,280.0 139.7,286.0 142.5,286.0 145.2,286.0 147.9,274.0 150.6,268.0 153.3,268.0 156.0,262.0 158.8,262.0 161.5,262.0 164.2,262.0 166.9,268.0 169.6,280.0 172.3,280.0 175.0,274.0 177.8,262.0 180.5,268.0 183.2,268.0 185.9,262.0 188.6,268.0 191.3,268.0 194.0,268.0 196.8,280.0 199.5,280.0 202.2,268.0 204.9,268.0 207.6,268.0 210.3,262.0 213.1,274.0 215.8,280.0 218.5,286.0 221.2,286.0 223.9,274.0 226.6,274.0 229.3,274.0 232.1,274.0 234.8,274.0 237.5,274.0 240.2,274.0 242.9,274.0 245.6,280.0 248.4,274.0 251.1,280.0 253.8,286.0 256.5,286.0 259.2,286.0 261.9,286.0 264.6,280.0 267.4,286.0 270.1,286.0 272.8,286.0 275.5,286.0 278.2,286.0 280.9,286.0 283.6,286.0 286.4,286.0 289.1,286.0 291.8,286.0 294.5,286.0 297.2,286.0 299.9,286.0 302.7,286.0 305.4,286.0 308.1,286.0 310.8,286.0 313.5,286.0 316.2,286.0 318.9,286.0 321.7,286.0 324.4,286.0 327.1,286.0 329.8,286.0 332.5,286.0 335.2,286.0 338.0,286.0 340.7,286.0 343.4,286.0 346.1,286.0 348.8,286.0 351.5,286.0 354.2,286.0 357.0,286.0 359.7,286.0 362.4,286.0 365.1,286.0 367.8,286.0 370.5,286.0 373.2,286.0 376.0,286.0 378.7,286.0 381.4,286.0 384.1,286.0 386.8,286.0 389.5,286.0 392.3,286.0 395.0,286.0 397.7,286.0 400.4,286.0 403.1,286.0 405.8,286.0 408.5,286.0 411.3,286.0 414.0,286.0 416.7,286.0 419.4,286.0 422.1,286.0 424.8,286.0 427.6,286.0 430.3,286.0 433.0,286.0 435.7,286.0 438.4,286.0 441.1,286.0 443.8,286.0 446.6,286.0 449.3,286.0 452.0,286.0 454.7,286.0 457.4,286.0 460.1,286.0 462.8,286.0 465.6,286.0 468.3,286.0 471.0,280.0 473.7,268.0 476.4,268.0 479.1,268.0 481.9,268.0 484.6,262.0 487.3,262.0 490.0,262.0 492.7,268.0 495.4,268.0 498.1,274.0 500.9,274.0 503.6,274.0 506.3,268.0 509.0,268.0 511.7,268.0 514.4,274.0 517.2,274.0 519.9,274.0 522.6,274.0 525.3,268.0 528.0,268.0 530.7,262.0 533.4,262.0 536.2,268.0 538.9,268.0 541.6,268.0 544.3,262.0 547.0,262.0 549.7,274.0 552.4,262.0 555.2,262.0 557.9,262.0 560.6,262.0 563.3,268.0 566.0,268.0 568.7,274.0 571.5,280.0 574.2,280.0 576.9,280.0 579.6,280.0 582.3,280.0 585.0,280.0 587.7,286.0 590.5,286.0 593.2,286.0 595.9,280.0 598.6,274.0 601.3,274.0 604.0,280.0 606.8,274.0 609.5,274.0 612.2,268.0 614.9,268.0 617.6,268.0 620.3,268.0 623.0,280.0 625.8,274.0 628.5,280.0 631.2,280.0 633.9,286.0 636.6,286.0 639.3,286.0 642.0,286.0 644.8,286.0 647.5,286.0 650.2,286.0 652.9,286.0 655.6,286.0 658.3,286.0 661.1,286.0 663.8,286.0 666.5,280.0 669.2,280.0 671.9,280.0 674.6,268.0 677.3,280.0 680.1,268.0 682.8,274.0 685.5,274.0 688.2,286.0 690.9,280.0 693.6,286.0 696.4,280.0 699.1,286.0 701.8,286.0 704.5,286.0 707.2,280.0 709.9,274.0 712.6,280.0 715.4,280.0 718.1,280.0 720.8,274.0 723.5,274.0 726.2,280.0 728.9,280.0 731.6,280.0 734.4,280.0 737.1,286.0 739.8,286.0 742.5,286.0 745.2,286.0 747.9,286.0 750.7,286.0 753.4,286.0 756.1,286.0 758.8,286.0 761.5,286.0 764.2,286.0 766.9,286.0 769.7,286.0 772.4,286.0 775.1,286.0 777.8,286.0 780.5,286.0 783.2,286.0 786.0,286.0 788.7,286.0 791.4,286.0 794.1,286.0 796.8,286.0 799.5,286.0 802.2,286.0 805.0,286.0 807.7,286.0 810.4,286.0 813.1,286.0 815.8,286.0 818.5,286.0 821.2,286.0 824.0,286.0 826.7,286.0 829.4,286.0 832.1,286.0 834.8,286.0 837.5,286.0 840.3,286.0 843.0,286.0 845.7,286.0 848.4,286.0 851.1,286.0 853.8,286.0 856.5,286.0 859.3,286.0 862.0,286.0 864.7,280.0 867.4,280.0 870.1,280.0 872.8,280.0 875.6,280.0 878.3,274.0 881.0,286.0 883.7,286.0 886.4,286.0 889.1,286.0 891.8,286.0 894.6,286.0 897.3,286.0 900.0,280.0 902.7,280.0 905.4,280.0 908.1,280.0 910.8,274.0 913.6,274.0 916.3,268.0 919.0,268.0 921.7,262.0 924.4,262.0 927.1,262.0 929.9,262.0 932.6,262.0 935.3,268.0 938.0,268.0"/><polyline fill="none" stroke="#ef4444" stroke-width="2.5" stroke-linejoin="round" stroke-linecap="round" points="42.0,280.0 44.7,280.0 47.4,268.0 50.1,262.0 52.9,286.0 55.6,286.0 58.3,286.0 61.0,286.0 63.7,280.0 66.4,286.0 69.2,286.0 71.9,286.0 74.6,286.0 77.3,286.0 80.0,286.0 82.7,286.0 85.4,286.0 88.2,286.0 90.9,286.0 93.6,286.0 96.3,286.0 99.0,286.0 101.7,286.0 104.4,286.0 107.2,286.0 109.9,286.0 112.6,286.0 115.3,286.0 118.0,286.0 120.7,286.0 123.5,286.0 126.2,286.0 128.9,274.0 131.6,256.0 134.3,286.0 137.0,286.0 139.7,286.0 142.5,286.0 145.2,286.0 147.9,286.0 150.6,286.0 153.3,286.0 156.0,286.0 158.8,286.0 161.5,286.0 164.2,286.0 166.9,286.0 169.6,286.0 172.3,280.0 175.0,286.0 177.8,286.0 180.5,286.0 183.2,286.0 185.9,286.0 188.6,286.0 191.3,286.0 194.0,286.0 196.8,286.0 199.5,286.0 202.2,286.0 204.9,286.0 207.6,286.0 210.3,280.0 213.1,286.0 215.8,286.0 218.5,286.0 221.2,286.0 223.9,286.0 226.6,286.0 229.3,286.0 232.1,286.0 234.8,286.0 237.5,286.0 240.2,286.0 242.9,286.0 245.6,274.0 248.4,274.0 251.1,274.0 253.8,274.0 256.5,274.0 259.2,274.0 261.9,274.0 264.6,274.0 267.4,274.0 270.1,274.0 272.8,274.0 275.5,274.0 278.2,274.0 280.9,274.0 283.6,274.0 286.4,274.0 289.1,274.0 291.8,274.0 294.5,274.0 297.2,274.0 299.9,274.0 302.7,274.0 305.4,274.0 308.1,274.0 310.8,274.0 313.5,274.0 316.2,274.0 318.9,274.0 321.7,274.0 324.4,274.0 327.1,274.0 329.8,274.0 332.5,274.0 335.2,274.0 338.0,274.0 340.7,274.0 343.4,274.0 346.1,274.0 348.8,274.0 351.5,274.0 354.2,274.0 357.0,274.0 359.7,274.0 362.4,274.0 365.1,274.0 367.8,274.0 370.5,274.0 373.2,274.0 376.0,274.0 378.7,274.0 381.4,274.0 384.1,274.0 386.8,274.0 389.5,274.0 392.3,274.0 395.0,274.0 397.7,274.0 400.4,274.0 403.1,274.0 405.8,274.0 408.5,274.0 411.3,274.0 414.0,274.0 416.7,274.0 419.4,274.0 422.1,274.0 424.8,274.0 427.6,274.0 430.3,274.0 433.0,274.0 435.7,274.0 438.4,274.0 441.1,274.0 443.8,274.0 446.6,274.0 449.3,274.0 452.0,268.0 454.7,274.0 457.4,274.0 460.1,274.0 462.8,274.0 465.6,274.0 468.3,274.0 471.0,274.0 473.7,274.0 476.4,274.0 479.1,274.0 481.9,268.0 484.6,274.0 487.3,274.0 490.0,274.0 492.7,274.0 495.4,274.0 498.1,274.0 500.9,274.0 503.6,274.0 506.3,274.0 509.0,274.0 511.7,268.0 514.4,274.0 517.2,274.0 519.9,274.0 522.6,274.0 525.3,274.0 528.0,274.0 530.7,274.0 533.4,274.0 536.2,274.0 538.9,274.0 541.6,274.0 544.3,274.0 547.0,274.0 549.7,250.0 552.4,274.0 555.2,274.0 557.9,274.0 560.6,274.0 563.3,274.0 566.0,274.0 568.7,274.0 571.5,274.0 574.2,274.0 576.9,274.0 579.6,274.0 582.3,274.0 585.0,274.0 587.7,274.0 590.5,274.0 593.2,274.0 595.9,274.0 598.6,268.0 601.3,274.0 604.0,280.0 606.8,286.0 609.5,286.0 612.2,286.0 614.9,286.0 617.6,286.0 620.3,280.0 623.0,280.0 625.8,286.0 628.5,286.0 631.2,280.0 633.9,286.0 636.6,286.0 639.3,286.0 642.0,286.0 644.8,286.0 647.5,280.0 650.2,286.0 652.9,286.0 655.6,286.0 658.3,286.0 661.1,286.0 663.8,286.0 666.5,286.0 669.2,286.0 671.9,286.0 674.6,286.0 677.3,280.0 680.1,280.0 682.8,286.0 685.5,280.0 688.2,286.0 690.9,286.0 693.6,286.0 696.4,286.0 699.1,286.0 701.8,286.0 704.5,286.0 707.2,286.0 709.9,286.0 712.6,286.0 715.4,286.0 718.1,286.0 720.8,286.0 723.5,286.0 726.2,286.0 728.9,280.0 731.6,286.0 734.4,280.0 737.1,286.0 739.8,286.0 742.5,286.0 745.2,286.0 747.9,286.0 750.7,286.0 753.4,286.0 756.1,286.0 758.8,286.0 761.5,286.0 764.2,286.0 766.9,286.0 769.7,286.0 772.4,286.0 775.1,280.0 777.8,286.0 780.5,286.0 783.2,286.0 786.0,286.0 788.7,286.0 791.4,286.0 794.1,286.0 796.8,286.0 799.5,286.0 802.2,286.0 805.0,286.0 807.7,286.0 810.4,286.0 813.1,286.0 815.8,286.0 818.5,286.0 821.2,286.0 824.0,286.0 826.7,286.0 829.4,286.0 832.1,286.0 834.8,286.0 837.5,286.0 840.3,286.0 843.0,286.0 845.7,286.0 848.4,286.0 851.1,280.0 853.8,280.0 856.5,286.0 859.3,286.0 862.0,286.0 864.7,286.0 867.4,286.0 870.1,274.0 872.8,286.0 875.6,286.0 878.3,286.0 881.0,286.0 883.7,286.0 886.4,286.0 889.1,286.0 891.8,286.0 894.6,286.0 897.3,286.0 900.0,286.0 902.7,286.0 905.4,286.0 908.1,286.0 910.8,286.0 913.6,286.0 916.3,286.0 919.0,286.0 921.7,286.0 924.4,280.0 927.1,286.0 929.9,286.0 932.6,280.0 935.3,280.0 938.0,286.0"/><polyline fill="none" stroke="#a855f7" stroke-width="2.5" stroke-linejoin="round" stroke-linecap="round" points="42.0,286.0 44.7,286.0 47.4,286.0 50.1,286.0 52.9,286.0 55.6,286.0 58.3,286.0 61.0,286.0 63.7,286.0 66.4,286.0 69.2,286.0 71.9,286.0 74.6,286.0 77.3,286.0 80.0,286.0 82.7,286.0 85.4,286.0 88.2,286.0 90.9,286.0 93.6,286.0 96.3,286.0 99.0,286.0 101.7,286.0 104.4,286.0 107.2,286.0 109.9,286.0 112.6,286.0 115.3,286.0 118.0,286.0 120.7,286.0 123.5,286.0 126.2,286.0 128.9,286.0 131.6,286.0 134.3,286.0 137.0,286.0 139.7,286.0 142.5,286.0 145.2,286.0 147.9,286.0 150.6,286.0 153.3,286.0 156.0,286.0 158.8,286.0 161.5,286.0 164.2,286.0 166.9,286.0 169.6,286.0 172.3,286.0 175.0,286.0 177.8,286.0 180.5,286.0 183.2,286.0 185.9,286.0 188.6,286.0 191.3,286.0 194.0,286.0 196.8,286.0 199.5,286.0 202.2,286.0 204.9,286.0 207.6,286.0 210.3,286.0 213.1,286.0 215.8,286.0 218.5,286.0 221.2,286.0 223.9,286.0 226.6,286.0 229.3,286.0 232.1,280.0 234.8,286.0 237.5,286.0 240.2,286.0 242.9,286.0 245.6,286.0 248.4,286.0 251.1,286.0 253.8,286.0 256.5,286.0 259.2,286.0 261.9,286.0 264.6,286.0 267.4,286.0 270.1,286.0 272.8,286.0 275.5,286.0 278.2,286.0 280.9,286.0 283.6,286.0 286.4,286.0 289.1,286.0 291.8,286.0 294.5,286.0 297.2,286.0 299.9,286.0 302.7,286.0 305.4,286.0 308.1,286.0 310.8,286.0 313.5,286.0 316.2,286.0 318.9,286.0 321.7,286.0 324.4,286.0 327.1,286.0 329.8,286.0 332.5,286.0 335.2,286.0 338.0,286.0 340.7,286.0 343.4,286.0 346.1,286.0 348.8,286.0 351.5,286.0 354.2,286.0 357.0,286.0 359.7,286.0 362.4,286.0 365.1,286.0 367.8,286.0 370.5,286.0 373.2,286.0 376.0,286.0 378.7,286.0 381.4,286.0 384.1,286.0 386.8,286.0 389.5,286.0 392.3,286.0 395.0,286.0 397.7,286.0 400.4,286.0 403.1,286.0 405.8,286.0 408.5,286.0 411.3,286.0 414.0,286.0 416.7,286.0 419.4,286.0 422.1,286.0 424.8,286.0 427.6,286.0 430.3,286.0 433.0,286.0 435.7,286.0 438.4,286.0 441.1,286.0 443.8,286.0 446.6,286.0 449.3,286.0 452.0,286.0 454.7,286.0 457.4,286.0 460.1,286.0 462.8,286.0 465.6,286.0 468.3,280.0 471.0,286.0 473.7,286.0 476.4,286.0 479.1,286.0 481.9,286.0 484.6,286.0 487.3,286.0 490.0,286.0 492.7,286.0 495.4,286.0 498.1,286.0 500.9,286.0 503.6,286.0 506.3,286.0 509.0,286.0 511.7,286.0 514.4,286.0 517.2,286.0 519.9,286.0 522.6,286.0 525.3,286.0 528.0,286.0 530.7,286.0 533.4,286.0 536.2,286.0 538.9,286.0 541.6,286.0 544.3,286.0 547.0,286.0 549.7,286.0 552.4,286.0 555.2,286.0 557.9,286.0 560.6,286.0 563.3,286.0 566.0,286.0 568.7,286.0 571.5,286.0 574.2,286.0 576.9,286.0 579.6,286.0 582.3,286.0 585.0,286.0 587.7,286.0 590.5,286.0 593.2,286.0 595.9,286.0 598.6,286.0 601.3,286.0 604.0,286.0 606.8,286.0 609.5,286.0 612.2,286.0 614.9,286.0 617.6,286.0 620.3,286.0 623.0,286.0 625.8,280.0 628.5,286.0 631.2,286.0 633.9,286.0 636.6,286.0 639.3,286.0 642.0,286.0 644.8,286.0 647.5,286.0 650.2,286.0 652.9,280.0 655.6,286.0 658.3,286.0 661.1,286.0 663.8,286.0 666.5,286.0 669.2,286.0 671.9,286.0 674.6,286.0 677.3,286.0 680.1,286.0 682.8,286.0 685.5,286.0 688.2,286.0 690.9,286.0 693.6,286.0 696.4,286.0 699.1,286.0 701.8,286.0 704.5,286.0 707.2,286.0 709.9,286.0 712.6,286.0 715.4,286.0 718.1,286.0 720.8,286.0 723.5,286.0 726.2,286.0 728.9,286.0 731.6,280.0 734.4,286.0 737.1,286.0 739.8,286.0 742.5,286.0 745.2,286.0 747.9,286.0 750.7,280.0 753.4,286.0 756.1,286.0 758.8,286.0 761.5,286.0 764.2,286.0 766.9,286.0 769.7,286.0 772.4,286.0 775.1,286.0 777.8,286.0 780.5,286.0 783.2,286.0 786.0,286.0 788.7,286.0 791.4,286.0 794.1,286.0 796.8,280.0 799.5,286.0 802.2,286.0 805.0,286.0 807.7,286.0 810.4,286.0 813.1,286.0 815.8,286.0 818.5,286.0 821.2,286.0 824.0,286.0 826.7,286.0 829.4,286.0 832.1,286.0 834.8,286.0 837.5,286.0 840.3,286.0 843.0,286.0 845.7,286.0 848.4,286.0 851.1,286.0 853.8,286.0 856.5,286.0 859.3,286.0 862.0,286.0 864.7,286.0 867.4,286.0 870.1,286.0 872.8,286.0 875.6,286.0 878.3,286.0 881.0,286.0 883.7,286.0 886.4,286.0 889.1,286.0 891.8,286.0 894.6,286.0 897.3,274.0 900.0,286.0 902.7,286.0 905.4,286.0 908.1,286.0 910.8,286.0 913.6,286.0 916.3,286.0 919.0,286.0 921.7,286.0 924.4,286.0 927.1,286.0 929.9,286.0 932.6,286.0 935.3,286.0 938.0,286.0"/><text x="42" y="308" font-size="11" fill="#9fb0d4">19/06 12:43</text><text x="938" y="308" text-anchor="end" font-size="11" fill="#9fb0d4">07/07 16:30</text></svg>