<svg xmlns="http://www.w3.org/2000/svg" viewBox="0 0 960 320" width="960" height="320" font-family="Segoe UI, system-ui, -apple-system, Roboto, Helvetica, Arial, sans-serif" role="img" aria-label="Availability history per region"><rect x="0.5" y="0.5" width="959" height="319" rx="14" fill="#ffffff" stroke="#dce3f1"/><text x="42" y="26" font-size="14" font-weight="600" fill="#14203a">History · 178 points</text><circle cx="47" cy="40" r="5" fill="#22c55e"/><text x="57" y="44" font-size="12" fill="#5a688a">Available</text><circle cx="139.8" cy="40" r="5" fill="#f59e0b"/><text x="149.8" y="44" font-size="12" fill="#5a688a">Saturated</text><circle cx="232.60000000000002" cy="40" r="5" fill="#ef4444"/><text x="242.60000000000002" y="44" font-size="12" fill="#5a688a">Error</text><circle cx="296.6" cy="40" r="5" fill="#a855f7"/><text x="306.6" y="44" font-size="12" fill="#5a688a">Timeout</text><line x1="42" y1="286.0" x2="938" y2="286.0" stroke="#eef2f7" stroke-width="1"/><text x="35" y="289.0" text-anchor="end" font-size="11" fill="#5a688a">0</text><line x1="42" y1="227.5" x2="938" y2="227.5" stroke="#eef2f7" stroke-width="1"/><text x="35" y="230.5" text-anchor="end" font-size="11" fill="#5a688a">10</text><line x1="42" y1="169.0" x2="938" y2="169.0" stroke="#eef2f7" stroke-width="1"/><text x="35" y="172.0" text-anchor="end" font-size="11" fill="#5a688a">21</text><line x1="42" y1="110.5" x2="938" y2="110.5" stroke="#eef2f7" stroke-width="1"/><text x="35" y="113.5" text-anchor="end" font-size="11" fill="#5a688a">32</text><line x1="42" y1="52.0" x2="938" y2="52.0" stroke="#eef2f7" stroke-width="1"/><text x="35" y="55.0" text-anchor="end" font-size="11" fill="#5a688a">42</text><polyline fill="none" stroke="#22c55e" stroke-width="2.5" stroke-linejoin="round" stroke-linecap="round" points="42.0,85.4 47.1,230.3 52.1,102.1 57.2,107.7 62.2,102.1 67.3,96.6 72.4,96.6 77.4,96.6 82.5,96.6 87.6,96.6 92.6,96.6 97.7,96.6 102.7,96.6 107.8,96.6 112.9,96.6 117.9,91.0 123.0,91.0 128.1,102.1 133.1,102.1 138.2,102.1 143.2,107.7 148.3,107.7 153.4,107.7 158.4,107.7 163.5,107.7 168.6,107.7 173.6,107.7 178.7,107.7 183.7,107.7 188.8,102.1 193.9,102.1 198.9,102.1 204.0,102.1 209.1,96.6 214.1,96.6 219.2,96.6 224.2,96.6 229.3,96.6 234.4,102.1 239.4,102.1 244.5,102.1 249.5,102.1 254.6,96.6 259.7,96.6 264.7,96.6 269.8,96.6 274.9,96.6 279.9,96.6 285.0,96.6 290.0,102.1 295.1,102.1 300.2,102.1 305.2,102.1 310.3,96.6 315.4,96.6 320.4,96.6 325.5,96.6 330.5,96.6 335.6,96.6 340.7,96.6 345.7,96.6 350.8,102.1 355.9,96.6 360.9,96.6 366.0,96.6 371.0,96.6 376.1,96.6 381.2,102.1 386.2,96.6 391.3,96.6 396.4,96.6 401.4,96.6 406.5,96.6 411.5,96.6 416.6,96.6 421.7,96.6 426.7,96.6 431.8,91.0 436.8,91.0 441.9,91.0 447.0,91.0 452.0,96.6 457.1,91.0 462.2,96.6 467.2,96.6 472.3,96.6 477.3,96.6 482.4,96.6 487.5,96.6 492.5,102.1 497.6,107.7 502.7,107.7 507.7,107.7 512.8,107.7 517.8,107.7 522.9,107.7 528.0,107.7 533.0,113.3 538.1,107.7 543.2,107.7 548.2,107.7 553.3,107.7 558.3,107.7 563.4,107.7 568.5,102.1 573.5,102.1 578.6,102.1 583.6,102.1 588.7,102.1 593.8,102.1 598.8,102.1 603.9,102.1 609.0,107.7 614.0,107.7 619.1,107.7 624.1,107.7 629.2,107.7 634.3,107.7 639.3,107.7 644.4,107.7 649.5,113.3 654.5,107.7 659.6,107.7 664.6,107.7 669.7,118.9 674.8,107.7 679.8,107.7 684.9,107.7 690.0,107.7 695.0,102.1 700.1,102.1 705.1,102.1 710.2,102.1 715.3,107.7 720.3,102.1 725.4,107.7 730.5,107.7 735.5,107.7 740.6,107.7 745.6,113.3 750.7,107.7 755.8,107.7 760.8,107.7 765.9,107.7 770.9,107.7 776.0,107.7 781.1,107.7 786.1,107.7 791.2,113.3 796.3,102.1 801.3,102.1 806.4,102.1 811.4,102.1 816.5,102.1 821.6,102.1 826.6,102.1 831.7,102.1 836.8,102.1 841.8,102.1 846.9,107.7 851.9,102.1 857.0,102.1 862.1,102.1 867.1,102.1 872.2,102.1 877.3,102.1 882.3,102.1 887.4,102.1 892.4,107.7 897.5,91.0 902.6,85.4 907.6,79.9 912.7,79.9 917.8,79.9 922.8,79.9 927.9,79.9 932.9,79.9 938.0,79.9"/><polyline fill="none" stroke="#f59e0b" stroke-width="2.5" stroke-linejoin="round" stroke-linecap="round" points="42.0,274.9 47.1,269.3 52.1,258.1 57.2,252.6 62.2,258.1 67.3,263.7 72.4,263.7 77.4,263.7 82.5,263.7 87.6,263.7 92.6,263.7 97.7,263.7 102.7,263.7 107.8,263.7 112.9,263.7 117.9,269.3 123.0,269.3 128.1,263.7 133.1,258.1 138.2,258.1 143.2,252.6 148.3,252.6 153.4,252.6 158.4,252.6 163.5,252.6 168.6,252.6 173.6,252.6 178.7,252.6 183.7,252.6 188.8,258.1 193.9,258.1 198.9,258.1 204.0,258.1 209.1,263.7 214.1,263.7 219.2,263.7 224.2,263.7 229.3,263.7 234.4,258.1 239.4,258.1 244.5,258.1 249.5,258.1 254.6,263.7 259.7,263.7 264.7,263.7 269.8,263.7 274.9,263.7 279.9,263.7 285.0,263.7 290.0,258.1 295.1,258.1 300.2,258.1 305.2,263.7 310.3,263.7 315.4,263.7 320.4,263.7 325.5,263.7 330.5,263.7 335.6,263.7 340.7,263.7 345.7,263.7 350.8,258.1 355.9,263.7 360.9,263.7 366.0,263.7 371.0,263.7 376.1,263.7 381.2,263.7 386.2,263.7 391.3,263.7 396.4,263.7 401.4,263.7 406.5,263.7 411.5,263.7 416.6,263.7 421.7,263.7 426.7,263.7 431.8,269.3 436.8,269.3 441.9,269.3 447.0,269.3 452.0,269.3 457.1,269.3 462.2,263.7 467.2,263.7 472.3,263.7 477.3,263.7 482.4,263.7 487.5,263.7 492.5,258.1 497.6,252.6 502.7,252.6 507.7,258.1 512.8,252.6 517.8,252.6 522.9,252.6 528.0,252.6 533.0,252.6 538.1,252.6 543.2,258.1 548.2,252.6 553.3,252.6 558.3,252.6 563.4,252.6 568.5,258.1 573.5,258.1 578.6,258.1 583.6,258.1 588.7,258.1 593.8,258.1 598.8,258.1 603.9,258.1 609.0,252.6 614.0,252.6 619.1,252.6 624.1,252.6 629.2,252.6 634.3,252.6 639.3,252.6 644.4,258.1 649.5,252.6 654.5,252.6 659.6,252.6 664.6,252.6 669.7,252.6 674.8,252.6 679.8,252.6 684.9,258.1 690.0,258.1 695.0,258.1 700.1,258.1 705.1,258.1 710.2,258.1 715.3,258.1 720.3,258.1 725.4,252.6 730.5,252.6 735.5,252.6 740.6,252.6 745.6,252.6 750.7,252.6 755.8,252.6 760.8,252.6 765.9,252.6 770.9,252.6 776.0,252.6 781.1,252.6 786.1,252.6 791.2,252.6 796.3,258.1 801.3,258.1 806.4,258.1 811.4,258.1 816.5,258.1 821.6,263.7 826.6,263.7 831.7,258.1 836.8,258.1 841.8,258.1 846.9,258.1 851.9,258.1 857.0,258.1 862.1,258.1 867.1,258.1 872.2,258.1 877.3,258.1 882.3,258.1 887.4,258.1 892.4,258.1 897.5,258.1 902.6,258.1 907.6,258.1 912.7,258.1 917.8,258.1 922.8,258.1 927.9,258.1 932.9,258.1 938.0,258.1"/><polyline fill="none" stroke="#ef4444" stroke-width="2.5" stroke-linejoin="round" stroke-linecap="round" points="42.0,286.0 47.1,146.7 52.1,286.0 57.2,286.0 62.2,286.0 67.3,286.0 72.4,286.0 77.4,286.0 82.5,286.0 87.6,286.0 92.6,286.0 97.7,286.0 102.7,286.0 107.8,286.0 112.9,286.0 117.9,286.0 123.0,286.0 128.1,280.4 133.1,286.0 138.2,286.0 143.2,286.0 148.3,286.0 153.4,286.0 158.4,286.0 163.5,286.0 168.6,286.0 173.6,286.0 178.7,286.0 183.7,286.0 188.8,286.0 193.9,286.0 198.9,286.0 204.0,286.0 209.1,286.0 214.1,286.0 219.2,286.0 224.2,286.0 229.3,286.0 234.4,286.0 239.4,286.0 244.5,286.0 249.5,286.0 254.6,286.0 259.7,286.0 264.7,286.0 269.8,286.0 274.9,286.0 279.9,286.0 285.0,286.0 290.0,286.0 295.1,286.0 300.2,286.0 305.2,286.0 310.3,286.0 315.4,286.0 320.4,286.0 325.5,286.0 330.5,286.0 335.6,286.0 340.7,286.0 345.7,286.0 350.8,286.0 355.9,286.0 360.9,286.0 366.0,286.0 371.0,286.0 376.1,286.0 381.2,280.4 386.2,286.0 391.3,286.0 396.4,286.0 401.4,286.0 406.5,286.0 411.5,286.0 416.6,286.0 421.7,286.0 426.7,286.0 431.8,286.0 436.8,286.0 441.9,286.0 447.0,286.0 452.0,280.4 457.1,286.0 462.2,286.0 467.2,286.0 472.3,286.0 477.3,286.0 482.4,286.0 487.5,286.0 492.5,286.0 497.6,286.0 502.7,286.0 507.7,280.4 512.8,286.0 517.8,286.0 522.9,286.0 528.0,286.0 533.0,280.4 538.1,286.0 543.2,286.0 548.2,286.0 553.3,286.0 558.3,286.0 563.4,286.0 568.5,286.0 573.5,286.0 578.6,286.0 583.6,286.0 588.7,286.0 593.8,286.0 598.8,286.0 603.9,286.0 609.0,286.0 614.0,286.0 619.1,286.0 624.1,286.0 629.2,286.0 634.3,286.0 639.3,286.0 644.4,286.0 649.5,280.4 654.5,286.0 659.6,286.0 664.6,286.0 669.7,274.9 674.8,286.0 679.8,286.0 684.9,280.4 690.0,280.4 695.0,286.0 700.1,286.0 705.1,286.0 710.2,286.0 715.3,280.4 720.3,286.0 725.4,286.0 730.5,286.0 735.5,286.0 740.6,286.0 745.6,286.0 750.7,286.0 755.8,286.0 760.8,286.0 765.9,286.0 770.9,286.0 776.0,286.0 781.1,286.0 786.1,286.0 791.2,286.0 796.3,286.0 801.3,286.0 806.4,286.0 811.4,286.0 816.5,286.0 821.6,280.4 826.6,286.0 831.7,286.0 836.8,286.0 841.8,263.7 846.9,280.4 851.9,286.0 857.0,286.0 862.1,286.0 867.1,286.0 872.2,286.0 877.3,286.0 882.3,286.0 887.4,286.0 892.4,258.1 897.5,274.9 902.6,280.4 907.6,286.0 912.7,286.0 917.8,286.0 922.8,286.0 927.9,286.0 932.9,286.0 938.0,286.0"/><polyline fill="none" stroke="#a855f7" stroke-width="2.5" stroke-linejoin="round" stroke-linecap="round" points="42.0,286.0 47.1,286.0 52.1,286.0 57.2,286.0 62.2,286.0 67.3,286.0 72.4,286.0 77.4,286.0 82.5,286.0 87.6,286.0 92.6,286.0 97.7,286.0 102.7,286.0 107.8,286.0 112.9,286.0 117.9,286.0 123.0,286.0 128.1,286.0 133.1,286.0 138.2,286.0 143.2,286.0 148.3,286.0 153.4,286.0 158.4,286.0 163.5,286.0 168.6,286.0 173.6,286.0 178.7,286.0 183.7,286.0 188.8,286.0 193.9,286.0 198.9,286.0 204.0,286.0 209.1,286.0 214.1,286.0 219.2,286.0 224.2,286.0 229.3,286.0 234.4,286.0 239.4,286.0 244.5,286.0 249.5,286.0 254.6,286.0 259.7,286.0 264.7,286.0 269.8,286.0 274.9,286.0 279.9,286.0 285.0,286.0 290.0,286.0 295.1,286.0 300.2,286.0 305.2,280.4 310.3,286.0 315.4,286.0 320.4,286.0 325.5,286.0 330.5,286.0 335.6,286.0 340.7,286.0 345.7,286.0 350.8,286.0 355.9,286.0 360.9,286.0 366.0,286.0 371.0,286.0 376.1,286.0 381.2,286.0 386.2,286.0 391.3,286.0 396.4,286.0 401.4,286.0 406.5,286.0 411.5,286.0 416.6,286.0 421.7,286.0 426.7,286.0 431.8,286.0 436.8,286.0 441.9,286.0 447.0,286.0 452.0,286.0 457.1,286.0 462.2,286.0 467.2,286.0 472.3,286.0 477.3,286.0 482.4,286.0 487.5,286.0 492.5,286.0 497.6,286.0 502.7,286.0 507.7,286.0 512.8,286.0 517.8,286.0 522.9,286.0 528.0,286.0 533.0,286.0 538.1,286.0 543.2,280.4 548.2,286.0 553.3,286.0 558.3,286.0 563.4,286.0 568.5,286.0 573.5,286.0 578.6,286.0 583.6,286.0 588.7,286.0 593.8,286.0 598.8,286.0 603.9,286.0 609.0,286.0 614.0,286.0 619.1,286.0 624.1,286.0 629.2,286.0 634.3,286.0 639.3,286.0 644.4,280.4 649.5,286.0 654.5,286.0 659.6,286.0 664.6,286.0 669.7,286.0 674.8,286.0 679.8,286.0 684.9,286.0 690.0,286.0 695.0,286.0 700.1,286.0 705.1,286.0 710.2,286.0 715.3,286.0 720.3,286.0 725.4,286.0 730.5,286.0 735.5,286.0 740.6,286.0 745.6,280.4 750.7,286.0 755.8,286.0 760.8,286.0 765.9,286.0 770.9,286.0 776.0,286.0 781.1,286.0 786.1,286.0 791.2,280.4 796.3,286.0 801.3,286.0 806.4,286.0 811.4,286.0 816.5,286.0 821.6,286.0 826.6,280.4 831.7,286.0 836.8,286.0 841.8,286.0 846.9,286.0 851.9,286.0 857.0,286.0 862.1,286.0 867.1,286.0 872.2,286.0 877.3,286.0 882.3,286.0 887.4,286.0 892.4,286.0 897.5,286.0 902.6,286.0 907.6,286.0 912.7,286.0 917.8,286.0 922.8,286.0 927.9,286.0 932.9,286.0 938.0,286.0"/><text x="42" y="308" font-size="11" fill="#5a688a">19/06 15:39</text><text x="938" y="308" text-anchor="end" font-size="11" fill="#5a688a">24/07 00:32</text></svg>