<svg xmlns="http://www.w3.org/2000/svg" viewBox="0 0 960 320" width="960" height="320" font-family="Segoe UI, system-ui, -apple-system, Roboto, Helvetica, Arial, sans-serif" role="img" aria-label="Availability history per region"><rect x="0.5" y="0.5" width="959" height="319" rx="14" fill="#0d1117" stroke="#2c3a5e"/><text x="42" y="26" font-size="14" font-weight="600" fill="#e6ecff">History · 146 points</text><circle cx="47" cy="40" r="5" fill="#22c55e"/><text x="57" y="44" font-size="12" fill="#9fb0d4">Available</text><circle cx="139.8" cy="40" r="5" fill="#f59e0b"/><text x="149.8" y="44" font-size="12" fill="#9fb0d4">Saturated</text><circle cx="232.60000000000002" cy="40" r="5" fill="#ef4444"/><text x="242.60000000000002" y="44" font-size="12" fill="#9fb0d4">Error</text><circle cx="296.6" cy="40" r="5" fill="#a855f7"/><text x="306.6" y="44" font-size="12" fill="#9fb0d4">Timeout</text><line x1="42" y1="286.0" x2="938" y2="286.0" stroke="#21304f" stroke-width="1"/><text x="35" y="289.0" text-anchor="end" font-size="11" fill="#9fb0d4">0</text><line x1="42" y1="227.5" x2="938" y2="227.5" stroke="#21304f" stroke-width="1"/><text x="35" y="230.5" text-anchor="end" font-size="11" fill="#9fb0d4">10</text><line x1="42" y1="169.0" x2="938" y2="169.0" stroke="#21304f" stroke-width="1"/><text x="35" y="172.0" text-anchor="end" font-size="11" fill="#9fb0d4">19</text><line x1="42" y1="110.5" x2="938" y2="110.5" stroke="#21304f" stroke-width="1"/><text x="35" y="113.5" text-anchor="end" font-size="11" fill="#9fb0d4">28</text><line x1="42" y1="52.0" x2="938" y2="52.0" stroke="#21304f" stroke-width="1"/><text x="35" y="55.0" text-anchor="end" font-size="11" fill="#9fb0d4">38</text><polyline fill="none" stroke="#22c55e" stroke-width="2.5" stroke-linejoin="round" stroke-linecap="round" points="42.0,64.3 48.2,224.4 54.4,82.8 60.5,88.9 66.7,82.8 72.9,76.6 79.1,76.6 85.3,76.6 91.4,76.6 97.6,76.6 103.8,76.6 110.0,76.6 116.2,76.6 122.3,76.6 128.5,76.6 134.7,70.5 140.9,70.5 147.0,82.8 153.2,82.8 159.4,82.8 165.6,88.9 171.8,88.9 177.9,88.9 184.1,88.9 190.3,88.9 196.5,88.9 202.7,88.9 208.8,88.9 215.0,88.9 221.2,82.8 227.4,82.8 233.6,82.8 239.7,82.8 245.9,76.6 252.1,76.6 258.3,76.6 264.5,76.6 270.6,76.6 276.8,82.8 283.0,82.8 289.2,82.8 295.4,82.8 301.5,76.6 307.7,76.6 313.9,76.6 320.1,76.6 326.2,76.6 332.4,76.6 338.6,76.6 344.8,82.8 351.0,82.8 357.1,82.8 363.3,82.8 369.5,76.6 375.7,76.6 381.9,76.6 388.0,76.6 394.2,76.6 400.4,76.6 406.6,76.6 412.8,76.6 418.9,82.8 425.1,76.6 431.3,76.6 437.5,76.6 443.7,76.6 449.8,76.6 456.0,82.8 462.2,76.6 468.4,76.6 474.6,76.6 480.7,76.6 486.9,76.6 493.1,76.6 499.3,76.6 505.4,76.6 511.6,76.6 517.8,70.5 524.0,70.5 530.2,70.5 536.3,70.5 542.5,76.6 548.7,70.5 554.9,76.6 561.1,76.6 567.2,76.6 573.4,76.6 579.6,76.6 585.8,76.6 592.0,82.8 598.1,88.9 604.3,88.9 610.5,88.9 616.7,88.9 622.9,88.9 629.0,88.9 635.2,88.9 641.4,95.1 647.6,88.9 653.8,88.9 659.9,88.9 666.1,88.9 672.3,88.9 678.5,88.9 684.6,82.8 690.8,82.8 697.0,82.8 703.2,82.8 709.4,82.8 715.5,82.8 721.7,82.8 727.9,82.8 734.1,88.9 740.3,88.9 746.4,88.9 752.6,88.9 758.8,88.9 765.0,88.9 771.2,88.9 777.3,88.9 783.5,95.1 789.7,88.9 795.9,88.9 802.1,88.9 808.2,101.3 814.4,88.9 820.6,88.9 826.8,88.9 833.0,88.9 839.1,82.8 845.3,82.8 851.5,82.8 857.7,82.8 863.8,88.9 870.0,82.8 876.2,88.9 882.4,88.9 888.6,88.9 894.7,88.9 900.9,95.1 907.1,88.9 913.3,88.9 919.5,88.9 925.6,88.9 931.8,88.9 938.0,88.9"/><polyline fill="none" stroke="#f59e0b" stroke-width="2.5" stroke-linejoin="round" stroke-linecap="round" points="42.0,273.7 48.2,267.5 54.4,255.2 60.5,249.1 66.7,255.2 72.9,261.4 79.1,261.4 85.3,261.4 91.4,261.4 97.6,261.4 103.8,261.4 110.0,261.4 116.2,261.4 122.3,261.4 128.5,261.4 134.7,267.5 140.9,267.5 147.0,261.4 153.2,255.2 159.4,255.2 165.6,249.1 171.8,249.1 177.9,249.1 184.1,249.1 190.3,249.1 196.5,249.1 202.7,249.1 208.8,249.1 215.0,249.1 221.2,255.2 227.4,255.2 233.6,255.2 239.7,255.2 245.9,261.4 252.1,261.4 258.3,261.4 264.5,261.4 270.6,261.4 276.8,255.2 283.0,255.2 289.2,255.2 295.4,255.2 301.5,261.4 307.7,261.4 313.9,261.4 320.1,261.4 326.2,261.4 332.4,261.4 338.6,261.4 344.8,255.2 351.0,255.2 357.1,255.2 363.3,261.4 369.5,261.4 375.7,261.4 381.9,261.4 388.0,261.4 394.2,261.4 400.4,261.4 406.6,261.4 412.8,261.4 418.9,255.2 425.1,261.4 431.3,261.4 437.5,261.4 443.7,261.4 449.8,261.4 456.0,261.4 462.2,261.4 468.4,261.4 474.6,261.4 480.7,261.4 486.9,261.4 493.1,261.4 499.3,261.4 505.4,261.4 511.6,261.4 517.8,267.5 524.0,267.5 530.2,267.5 536.3,267.5 542.5,267.5 548.7,267.5 554.9,261.4 561.1,261.4 567.2,261.4 573.4,261.4 579.6,261.4 585.8,261.4 592.0,255.2 598.1,249.1 604.3,249.1 610.5,255.2 616.7,249.1 622.9,249.1 629.0,249.1 635.2,249.1 641.4,249.1 647.6,249.1 653.8,255.2 659.9,249.1 666.1,249.1 672.3,249.1 678.5,249.1 684.6,255.2 690.8,255.2 697.0,255.2 703.2,255.2 709.4,255.2 715.5,255.2 721.7,255.2 727.9,255.2 734.1,249.1 740.3,249.1 746.4,249.1 752.6,249.1 758.8,249.1 765.0,249.1 771.2,249.1 777.3,255.2 783.5,249.1 789.7,249.1 795.9,249.1 802.1,249.1 808.2,249.1 814.4,249.1 820.6,249.1 826.8,255.2 833.0,255.2 839.1,255.2 845.3,255.2 851.5,255.2 857.7,255.2 863.8,255.2 870.0,255.2 876.2,249.1 882.4,249.1 888.6,249.1 894.7,249.1 900.9,249.1 907.1,249.1 913.3,249.1 919.5,249.1 925.6,249.1 931.8,249.1 938.0,249.1"/><polyline fill="none" stroke="#ef4444" stroke-width="2.5" stroke-linejoin="round" stroke-linecap="round" points="42.0,286.0 48.2,132.1 54.4,286.0 60.5,286.0 66.7,286.0 72.9,286.0 79.1,286.0 85.3,286.0 91.4,286.0 97.6,286.0 103.8,286.0 110.0,286.0 116.2,286.0 122.3,286.0 128.5,286.0 134.7,286.0 140.9,286.0 147.0,279.8 153.2,286.0 159.4,286.0 165.6,286.0 171.8,286.0 177.9,286.0 184.1,286.0 190.3,286.0 196.5,286.0 202.7,286.0 208.8,286.0 215.0,286.0 221.2,286.0 227.4,286.0 233.6,286.0 239.7,286.0 245.9,286.0 252.1,286.0 258.3,286.0 264.5,286.0 270.6,286.0 276.8,286.0 283.0,286.0 289.2,286.0 295.4,286.0 301.5,286.0 307.7,286.0 313.9,286.0 320.1,286.0 326.2,286.0 332.4,286.0 338.6,286.0 344.8,286.0 351.0,286.0 357.1,286.0 363.3,286.0 369.5,286.0 375.7,286.0 381.9,286.0 388.0,286.0 394.2,286.0 400.4,286.0 406.6,286.0 412.8,286.0 418.9,286.0 425.1,286.0 431.3,286.0 437.5,286.0 443.7,286.0 449.8,286.0 456.0,279.8 462.2,286.0 468.4,286.0 474.6,286.0 480.7,286.0 486.9,286.0 493.1,286.0 499.3,286.0 505.4,286.0 511.6,286.0 517.8,286.0 524.0,286.0 530.2,286.0 536.3,286.0 542.5,279.8 548.7,286.0 554.9,286.0 561.1,286.0 567.2,286.0 573.4,286.0 579.6,286.0 585.8,286.0 592.0,286.0 598.1,286.0 604.3,286.0 610.5,279.8 616.7,286.0 622.9,286.0 629.0,286.0 635.2,286.0 641.4,279.8 647.6,286.0 653.8,286.0 659.9,286.0 666.1,286.0 672.3,286.0 678.5,286.0 684.6,286.0 690.8,286.0 697.0,286.0 703.2,286.0 709.4,286.0 715.5,286.0 721.7,286.0 727.9,286.0 734.1,286.0 740.3,286.0 746.4,286.0 752.6,286.0 758.8,286.0 765.0,286.0 771.2,286.0 777.3,286.0 783.5,279.8 789.7,286.0 795.9,286.0 802.1,286.0 808.2,273.7 814.4,286.0 820.6,286.0 826.8,279.8 833.0,279.8 839.1,286.0 845.3,286.0 851.5,286.0 857.7,286.0 863.8,279.8 870.0,286.0 876.2,286.0 882.4,286.0 888.6,286.0 894.7,286.0 900.9,286.0 907.1,286.0 913.3,286.0 919.5,286.0 925.6,286.0 931.8,286.0 938.0,286.0"/><polyline fill="none" stroke="#a855f7" stroke-width="2.5" stroke-linejoin="round" stroke-linecap="round" points="42.0,286.0 48.2,286.0 54.4,286.0 60.5,286.0 66.7,286.0 72.9,286.0 79.1,286.0 85.3,286.0 91.4,286.0 97.6,286.0 103.8,286.0 110.0,286.0 116.2,286.0 122.3,286.0 128.5,286.0 134.7,286.0 140.9,286.0 147.0,286.0 153.2,286.0 159.4,286.0 165.6,286.0 171.8,286.0 177.9,286.0 184.1,286.0 190.3,286.0 196.5,286.0 202.7,286.0 208.8,286.0 215.0,286.0 221.2,286.0 227.4,286.0 233.6,286.0 239.7,286.0 245.9,286.0 252.1,286.0 258.3,286.0 264.5,286.0 270.6,286.0 276.8,286.0 283.0,286.0 289.2,286.0 295.4,286.0 301.5,286.0 307.7,286.0 313.9,286.0 320.1,286.0 326.2,286.0 332.4,286.0 338.6,286.0 344.8,286.0 351.0,286.0 357.1,286.0 363.3,279.8 369.5,286.0 375.7,286.0 381.9,286.0 388.0,286.0 394.2,286.0 400.4,286.0 406.6,286.0 412.8,286.0 418.9,286.0 425.1,286.0 431.3,286.0 437.5,286.0 443.7,286.0 449.8,286.0 456.0,286.0 462.2,286.0 468.4,286.0 474.6,286.0 480.7,286.0 486.9,286.0 493.1,286.0 499.3,286.0 505.4,286.0 511.6,286.0 517.8,286.0 524.0,286.0 530.2,286.0 536.3,286.0 542.5,286.0 548.7,286.0 554.9,286.0 561.1,286.0 567.2,286.0 573.4,286.0 579.6,286.0 585.8,286.0 592.0,286.0 598.1,286.0 604.3,286.0 610.5,286.0 616.7,286.0 622.9,286.0 629.0,286.0 635.2,286.0 641.4,286.0 647.6,286.0 653.8,279.8 659.9,286.0 666.1,286.0 672.3,286.0 678.5,286.0 684.6,286.0 690.8,286.0 697.0,286.0 703.2,286.0 709.4,286.0 715.5,286.0 721.7,286.0 727.9,286.0 734.1,286.0 740.3,286.0 746.4,286.0 752.6,286.0 758.8,286.0 765.0,286.0 771.2,286.0 777.3,279.8 783.5,286.0 789.7,286.0 795.9,286.0 802.1,286.0 808.2,286.0 814.4,286.0 820.6,286.0 826.8,286.0 833.0,286.0 839.1,286.0 845.3,286.0 851.5,286.0 857.7,286.0 863.8,286.0 870.0,286.0 876.2,286.0 882.4,286.0 888.6,286.0 894.7,286.0 900.9,279.8 907.1,286.0 913.3,286.0 919.5,286.0 925.6,286.0 931.8,286.0 938.0,286.0"/><text x="42" y="308" font-size="11" fill="#9fb0d4">19/06 15:39</text><text x="938" y="308" text-anchor="end" font-size="11" fill="#9fb0d4">22/07 16:29</text></svg>