<svg xmlns="http://www.w3.org/2000/svg" viewBox="0 0 960 320" width="960" height="320" font-family="Segoe UI, system-ui, -apple-system, Roboto, Helvetica, Arial, sans-serif" role="img" aria-label="Availability history per region"><rect x="0.5" y="0.5" width="959" height="319" rx="14" fill="#0d1117" stroke="#2c3a5e"/><text x="42" y="26" font-size="14" font-weight="600" fill="#e6ecff">History · 113 points</text><circle cx="47" cy="40" r="5" fill="#22c55e"/><text x="57" y="44" font-size="12" fill="#9fb0d4">Available</text><circle cx="139.8" cy="40" r="5" fill="#f59e0b"/><text x="149.8" y="44" font-size="12" fill="#9fb0d4">Saturated</text><circle cx="232.60000000000002" cy="40" r="5" fill="#ef4444"/><text x="242.60000000000002" y="44" font-size="12" fill="#9fb0d4">Error</text><circle cx="296.6" cy="40" r="5" fill="#a855f7"/><text x="306.6" y="44" font-size="12" fill="#9fb0d4">Timeout</text><line x1="42" y1="286.0" x2="938" y2="286.0" stroke="#21304f" stroke-width="1"/><text x="35" y="289.0" text-anchor="end" font-size="11" fill="#9fb0d4">0</text><line x1="42" y1="227.5" x2="938" y2="227.5" stroke="#21304f" stroke-width="1"/><text x="35" y="230.5" text-anchor="end" font-size="11" fill="#9fb0d4">11</text><line x1="42" y1="169.0" x2="938" y2="169.0" stroke="#21304f" stroke-width="1"/><text x="35" y="172.0" text-anchor="end" font-size="11" fill="#9fb0d4">22</text><line x1="42" y1="110.5" x2="938" y2="110.5" stroke="#21304f" stroke-width="1"/><text x="35" y="113.5" text-anchor="end" font-size="11" fill="#9fb0d4">33</text><line x1="42" y1="52.0" x2="938" y2="52.0" stroke="#21304f" stroke-width="1"/><text x="35" y="55.0" text-anchor="end" font-size="11" fill="#9fb0d4">44</text><polyline fill="none" stroke="#22c55e" stroke-width="2.5" stroke-linejoin="round" stroke-linecap="round" points="42.0,94.5 50.0,68.0 58.0,62.6 66.0,62.6 74.0,62.6 82.0,62.6 90.0,62.6 98.0,68.0 106.0,68.0 114.0,62.6 122.0,68.0 130.0,57.3 138.0,62.6 146.0,68.0 154.0,73.3 162.0,68.0 170.0,62.6 178.0,62.6 186.0,73.3 194.0,68.0 202.0,68.0 210.0,62.6 218.0,68.0 226.0,62.6 234.0,68.0 242.0,78.6 250.0,62.6 258.0,68.0 266.0,73.3 274.0,68.0 282.0,78.6 290.0,78.6 298.0,73.3 306.0,83.9 314.0,73.3 322.0,73.3 330.0,73.3 338.0,68.0 346.0,73.3 354.0,73.3 362.0,68.0 370.0,68.0 378.0,73.3 386.0,73.3 394.0,73.3 402.0,73.3 410.0,68.0 418.0,78.6 426.0,83.9 434.0,73.3 442.0,83.9 450.0,99.9 458.0,73.3 466.0,78.6 474.0,78.6 482.0,73.3 490.0,73.3 498.0,78.6 506.0,73.3 514.0,68.0 522.0,83.9 530.0,68.0 538.0,68.0 546.0,78.6 554.0,73.3 562.0,73.3 570.0,68.0 578.0,68.0 586.0,78.6 594.0,83.9 602.0,78.6 610.0,62.6 618.0,73.3 626.0,83.9 634.0,78.6 642.0,68.0 650.0,73.3 658.0,68.0 666.0,68.0 674.0,73.3 682.0,68.0 690.0,68.0 698.0,78.6 706.0,68.0 714.0,73.3 722.0,73.3 730.0,78.6 738.0,73.3 746.0,73.3 754.0,73.3 762.0,78.6 770.0,78.6 778.0,78.6 786.0,78.6 794.0,83.9 802.0,73.3 810.0,73.3 818.0,68.0 826.0,73.3 834.0,78.6 842.0,68.0 850.0,73.3 858.0,73.3 866.0,62.6 874.0,68.0 882.0,73.3 890.0,73.3 898.0,62.6 906.0,83.9 914.0,62.6 922.0,68.0 930.0,68.0 938.0,62.6"/><polyline fill="none" stroke="#f59e0b" stroke-width="2.5" stroke-linejoin="round" stroke-linecap="round" points="42.0,275.4 50.0,275.4 58.0,275.4 66.0,275.4 74.0,275.4 82.0,275.4 90.0,275.4 98.0,275.4 106.0,275.4 114.0,275.4 122.0,275.4 130.0,280.7 138.0,280.7 146.0,280.7 154.0,275.4 162.0,275.4 170.0,275.4 178.0,275.4 186.0,275.4 194.0,275.4 202.0,275.4 210.0,275.4 218.0,275.4 226.0,275.4 234.0,275.4 242.0,275.4 250.0,275.4 258.0,275.4 266.0,275.4 274.0,275.4 282.0,275.4 290.0,275.4 298.0,275.4 306.0,275.4 314.0,275.4 322.0,275.4 330.0,275.4 338.0,275.4 346.0,275.4 354.0,275.4 362.0,275.4 370.0,275.4 378.0,275.4 386.0,275.4 394.0,275.4 402.0,275.4 410.0,275.4 418.0,275.4 426.0,275.4 434.0,275.4 442.0,275.4 450.0,275.4 458.0,275.4 466.0,275.4 474.0,275.4 482.0,275.4 490.0,275.4 498.0,275.4 506.0,275.4 514.0,275.4 522.0,275.4 530.0,275.4 538.0,275.4 546.0,275.4 554.0,275.4 562.0,275.4 570.0,275.4 578.0,275.4 586.0,275.4 594.0,275.4 602.0,275.4 610.0,275.4 618.0,275.4 626.0,275.4 634.0,275.4 642.0,275.4 650.0,275.4 658.0,275.4 666.0,275.4 674.0,275.4 682.0,275.4 690.0,275.4 698.0,275.4 706.0,275.4 714.0,275.4 722.0,275.4 730.0,275.4 738.0,275.4 746.0,275.4 754.0,275.4 762.0,275.4 770.0,275.4 778.0,275.4 786.0,275.4 794.0,275.4 802.0,275.4 810.0,275.4 818.0,275.4 826.0,275.4 834.0,275.4 842.0,275.4 850.0,275.4 858.0,275.4 866.0,275.4 874.0,275.4 882.0,275.4 890.0,275.4 898.0,275.4 906.0,275.4 914.0,275.4 922.0,275.4 930.0,275.4 938.0,280.7"/><polyline fill="none" stroke="#ef4444" stroke-width="2.5" stroke-linejoin="round" stroke-linecap="round" points="42.0,286.0 50.0,286.0 58.0,286.0 66.0,286.0 74.0,286.0 82.0,286.0 90.0,286.0 98.0,280.7 106.0,286.0 114.0,286.0 122.0,286.0 130.0,286.0 138.0,286.0 146.0,280.7 154.0,286.0 162.0,286.0 170.0,286.0 178.0,286.0 186.0,280.7 194.0,286.0 202.0,286.0 210.0,286.0 218.0,286.0 226.0,286.0 234.0,286.0 242.0,275.4 250.0,286.0 258.0,286.0 266.0,286.0 274.0,286.0 282.0,286.0 290.0,286.0 298.0,280.7 306.0,275.4 314.0,286.0 322.0,286.0 330.0,286.0 338.0,286.0 346.0,286.0 354.0,286.0 362.0,286.0 370.0,286.0 378.0,286.0 386.0,286.0 394.0,275.4 402.0,280.7 410.0,286.0 418.0,280.7 426.0,275.4 434.0,286.0 442.0,275.4 450.0,254.1 458.0,286.0 466.0,280.7 474.0,275.4 482.0,286.0 490.0,286.0 498.0,275.4 506.0,286.0 514.0,286.0 522.0,280.7 530.0,286.0 538.0,286.0 546.0,286.0 554.0,286.0 562.0,286.0 570.0,280.7 578.0,286.0 586.0,280.7 594.0,280.7 602.0,286.0 610.0,286.0 618.0,286.0 626.0,275.4 634.0,270.0 642.0,286.0 650.0,286.0 658.0,286.0 666.0,286.0 674.0,286.0 682.0,286.0 690.0,286.0 698.0,280.7 706.0,286.0 714.0,286.0 722.0,286.0 730.0,280.7 738.0,280.7 746.0,286.0 754.0,286.0 762.0,280.7 770.0,280.7 778.0,280.7 786.0,280.7 794.0,286.0 802.0,280.7 810.0,286.0 818.0,286.0 826.0,280.7 834.0,275.4 842.0,286.0 850.0,286.0 858.0,286.0 866.0,286.0 874.0,286.0 882.0,286.0 890.0,286.0 898.0,286.0 906.0,286.0 914.0,286.0 922.0,286.0 930.0,286.0 938.0,286.0"/><polyline fill="none" stroke="#a855f7" stroke-width="2.5" stroke-linejoin="round" stroke-linecap="round" points="42.0,286.0 50.0,280.7 58.0,286.0 66.0,286.0 74.0,286.0 82.0,286.0 90.0,286.0 98.0,286.0 106.0,280.7 114.0,286.0 122.0,280.7 130.0,286.0 138.0,280.7 146.0,280.7 154.0,275.4 162.0,280.7 170.0,286.0 178.0,286.0 186.0,280.7 194.0,280.7 202.0,280.7 210.0,286.0 218.0,280.7 226.0,286.0 234.0,280.7 242.0,280.7 250.0,286.0 258.0,280.7 266.0,275.4 274.0,280.7 282.0,270.0 290.0,270.0 298.0,280.7 306.0,275.4 314.0,275.4 322.0,275.4 330.0,275.4 338.0,280.7 346.0,275.4 354.0,275.4 362.0,280.7 370.0,280.7 378.0,275.4 386.0,275.4 394.0,286.0 402.0,280.7 410.0,280.7 418.0,275.4 426.0,275.4 434.0,275.4 442.0,275.4 450.0,280.7 458.0,275.4 466.0,275.4 474.0,280.7 482.0,275.4 490.0,275.4 498.0,280.7 506.0,275.4 514.0,280.7 522.0,270.0 530.0,280.7 538.0,280.7 546.0,270.0 554.0,275.4 562.0,275.4 570.0,286.0 578.0,280.7 586.0,275.4 594.0,270.0 602.0,270.0 610.0,286.0 618.0,275.4 626.0,275.4 634.0,286.0 642.0,280.7 650.0,275.4 658.0,280.7 666.0,280.7 674.0,275.4 682.0,280.7 690.0,280.7 698.0,275.4 706.0,280.7 714.0,275.4 722.0,275.4 730.0,275.4 738.0,280.7 746.0,275.4 754.0,275.4 762.0,275.4 770.0,275.4 778.0,275.4 786.0,275.4 794.0,264.7 802.0,280.7 810.0,275.4 818.0,280.7 826.0,280.7 834.0,280.7 842.0,280.7 850.0,275.4 858.0,275.4 866.0,286.0 874.0,280.7 882.0,275.4 890.0,275.4 898.0,286.0 906.0,264.7 914.0,286.0 922.0,280.7 930.0,280.7 938.0,280.7"/><text x="42" y="308" font-size="11" fill="#9fb0d4">19/06 15:39</text><text x="938" y="308" text-anchor="end" font-size="11" fill="#9fb0d4">25/09 04:51</text></svg>