<svg xmlns="http://www.w3.org/2000/svg" viewBox="0 0 960 320" width="960" height="320" font-family="Segoe UI, system-ui, -apple-system, Roboto, Helvetica, Arial, sans-serif" role="img" aria-label="Availability history per region"><rect x="0.5" y="0.5" width="959" height="319" rx="14" fill="#0d1117" stroke="#2c3a5e"/><text x="42" y="26" font-size="14" font-weight="600" fill="#e6ecff">History · 22 points</text><circle cx="47" cy="40" r="5" fill="#22c55e"/><text x="57" y="44" font-size="12" fill="#9fb0d4">Available</text><circle cx="139.8" cy="40" r="5" fill="#f59e0b"/><text x="149.8" y="44" font-size="12" fill="#9fb0d4">Saturated</text><circle cx="232.60000000000002" cy="40" r="5" fill="#ef4444"/><text x="242.60000000000002" y="44" font-size="12" fill="#9fb0d4">Error</text><line x1="42" y1="286.0" x2="938" y2="286.0" stroke="#21304f" stroke-width="1"/><text x="35" y="289.0" text-anchor="end" font-size="11" fill="#9fb0d4">0</text><line x1="42" y1="227.5" x2="938" y2="227.5" stroke="#21304f" stroke-width="1"/><text x="35" y="230.5" text-anchor="end" font-size="11" fill="#9fb0d4">10</text><line x1="42" y1="169.0" x2="938" y2="169.0" stroke="#21304f" stroke-width="1"/><text x="35" y="172.0" text-anchor="end" font-size="11" fill="#9fb0d4">20</text><line x1="42" y1="110.5" x2="938" y2="110.5" stroke="#21304f" stroke-width="1"/><text x="35" y="113.5" text-anchor="end" font-size="11" fill="#9fb0d4">29</text><line x1="42" y1="52.0" x2="938" y2="52.0" stroke="#21304f" stroke-width="1"/><text x="35" y="55.0" text-anchor="end" font-size="11" fill="#9fb0d4">39</text><polyline fill="none" stroke="#22c55e" stroke-width="2.5" stroke-linejoin="round" stroke-linecap="round" points="42.0,70.0 84.7,70.0 127.3,88.0 170.0,88.0 212.7,76.0 255.3,76.0 298.0,76.0 340.7,70.0 383.3,76.0 426.0,70.0 468.7,64.0 511.3,58.0 554.0,58.0 596.7,58.0 639.3,58.0 682.0,58.0 724.7,58.0 767.3,58.0 810.0,58.0 852.7,58.0 895.3,58.0 938.0,58.0"/><circle cx="42.0" cy="70.0" r="2.5" fill="#22c55e"/><circle cx="84.7" cy="70.0" r="2.5" fill="#22c55e"/><circle cx="127.3" cy="88.0" r="2.5" fill="#22c55e"/><circle cx="170.0" cy="88.0" r="2.5" fill="#22c55e"/><circle cx="212.7" cy="76.0" r="2.5" fill="#22c55e"/><circle cx="255.3" cy="76.0" r="2.5" fill="#22c55e"/><circle cx="298.0" cy="76.0" r="2.5" fill="#22c55e"/><circle cx="340.7" cy="70.0" r="2.5" fill="#22c55e"/><circle cx="383.3" cy="76.0" r="2.5" fill="#22c55e"/><circle cx="426.0" cy="70.0" r="2.5" fill="#22c55e"/><circle cx="468.7" cy="64.0" r="2.5" fill="#22c55e"/><circle cx="511.3" cy="58.0" r="2.5" fill="#22c55e"/><circle cx="554.0" cy="58.0" r="2.5" fill="#22c55e"/><circle cx="596.7" cy="58.0" r="2.5" fill="#22c55e"/><circle cx="639.3" cy="58.0" r="2.5" fill="#22c55e"/><circle cx="682.0" cy="58.0" r="2.5" fill="#22c55e"/><circle cx="724.7" cy="58.0" r="2.5" fill="#22c55e"/><circle cx="767.3" cy="58.0" r="2.5" fill="#22c55e"/><circle cx="810.0" cy="58.0" r="2.5" fill="#22c55e"/><circle cx="852.7" cy="58.0" r="2.5" fill="#22c55e"/><circle cx="895.3" cy="58.0" r="2.5" fill="#22c55e"/><circle cx="938.0" cy="58.0" r="2.5" fill="#22c55e"/><polyline fill="none" stroke="#f59e0b" stroke-width="2.5" stroke-linejoin="round" stroke-linecap="round" points="42.0,274.0 84.7,274.0 127.3,274.0 170.0,280.0 212.7,268.0 255.3,268.0 298.0,268.0 340.7,274.0 383.3,274.0 426.0,274.0 468.7,280.0 511.3,286.0 554.0,286.0 596.7,286.0 639.3,286.0 682.0,286.0 724.7,286.0 767.3,286.0 810.0,286.0 852.7,286.0 895.3,286.0 938.0,286.0"/><circle cx="42.0" cy="274.0" r="2.5" fill="#f59e0b"/><circle cx="84.7" cy="274.0" r="2.5" fill="#f59e0b"/><circle cx="127.3" cy="274.0" r="2.5" fill="#f59e0b"/><circle cx="170.0" cy="280.0" r="2.5" fill="#f59e0b"/><circle cx="212.7" cy="268.0" r="2.5" fill="#f59e0b"/><circle cx="255.3" cy="268.0" r="2.5" fill="#f59e0b"/><circle cx="298.0" cy="268.0" r="2.5" fill="#f59e0b"/><circle cx="340.7" cy="274.0" r="2.5" fill="#f59e0b"/><circle cx="383.3" cy="274.0" r="2.5" fill="#f59e0b"/><circle cx="426.0" cy="274.0" r="2.5" fill="#f59e0b"/><circle cx="468.7" cy="280.0" r="2.5" fill="#f59e0b"/><circle cx="511.3" cy="286.0" r="2.5" fill="#f59e0b"/><circle cx="554.0" cy="286.0" r="2.5" fill="#f59e0b"/><circle cx="596.7" cy="286.0" r="2.5" fill="#f59e0b"/><circle cx="639.3" cy="286.0" r="2.5" fill="#f59e0b"/><circle cx="682.0" cy="286.0" r="2.5" fill="#f59e0b"/><circle cx="724.7" cy="286.0" r="2.5" fill="#f59e0b"/><circle cx="767.3" cy="286.0" r="2.5" fill="#f59e0b"/><circle cx="810.0" cy="286.0" r="2.5" fill="#f59e0b"/><circle cx="852.7" cy="286.0" r="2.5" fill="#f59e0b"/><circle cx="895.3" cy="286.0" r="2.5" fill="#f59e0b"/><circle cx="938.0" cy="286.0" r="2.5" fill="#f59e0b"/><polyline fill="none" stroke="#ef4444" stroke-width="2.5" stroke-linejoin="round" stroke-linecap="round" points="42.0,280.0 84.7,280.0 127.3,268.0 170.0,262.0 212.7,286.0 255.3,286.0 298.0,286.0 340.7,286.0 383.3,280.0 426.0,286.0 468.7,286.0 511.3,286.0 554.0,286.0 596.7,286.0 639.3,286.0 682.0,286.0 724.7,286.0 767.3,286.0 810.0,286.0 852.7,286.0 895.3,286.0 938.0,286.0"/><circle cx="42.0" cy="280.0" r="2.5" fill="#ef4444"/><circle cx="84.7" cy="280.0" r="2.5" fill="#ef4444"/><circle cx="127.3" cy="268.0" r="2.5" fill="#ef4444"/><circle cx="170.0" cy="262.0" r="2.5" fill="#ef4444"/><circle cx="212.7" cy="286.0" r="2.5" fill="#ef4444"/><circle cx="255.3" cy="286.0" r="2.5" fill="#ef4444"/><circle cx="298.0" cy="286.0" r="2.5" fill="#ef4444"/><circle cx="340.7" cy="286.0" r="2.5" fill="#ef4444"/><circle cx="383.3" cy="280.0" r="2.5" fill="#ef4444"/><circle cx="426.0" cy="286.0" r="2.5" fill="#ef4444"/><circle cx="468.7" cy="286.0" r="2.5" fill="#ef4444"/><circle cx="511.3" cy="286.0" r="2.5" fill="#ef4444"/><circle cx="554.0" cy="286.0" r="2.5" fill="#ef4444"/><circle cx="596.7" cy="286.0" r="2.5" fill="#ef4444"/><circle cx="639.3" cy="286.0" r="2.5" fill="#ef4444"/><circle cx="682.0" cy="286.0" r="2.5" fill="#ef4444"/><circle cx="724.7" cy="286.0" r="2.5" fill="#ef4444"/><circle cx="767.3" cy="286.0" r="2.5" fill="#ef4444"/><circle cx="810.0" cy="286.0" r="2.5" fill="#ef4444"/><circle cx="852.7" cy="286.0" r="2.5" fill="#ef4444"/><circle cx="895.3" cy="286.0" r="2.5" fill="#ef4444"/><circle cx="938.0" cy="286.0" r="2.5" fill="#ef4444"/><text x="42" y="308" font-size="11" fill="#9fb0d4">19/06 12:43</text><text x="938" y="308" text-anchor="end" font-size="11" fill="#9fb0d4">21/06 11:04</text></svg>