<svg xmlns="http://www.w3.org/2000/svg" viewBox="0 0 960 320" width="960" height="320" font-family="Segoe UI, system-ui, -apple-system, Roboto, Helvetica, Arial, sans-serif" role="img" aria-label="Availability history per region"><rect x="0.5" y="0.5" width="959" height="319" rx="14" fill="#0d1117" stroke="#2c3a5e"/><text x="42" y="26" font-size="14" font-weight="600" fill="#e6ecff">History · 325 points</text><circle cx="47" cy="40" r="5" fill="#22c55e"/><text x="57" y="44" font-size="12" fill="#9fb0d4">Available</text><circle cx="139.8" cy="40" r="5" fill="#f59e0b"/><text x="149.8" y="44" font-size="12" fill="#9fb0d4">Saturated</text><circle cx="232.60000000000002" cy="40" r="5" fill="#ef4444"/><text x="242.60000000000002" y="44" font-size="12" fill="#9fb0d4">Error</text><circle cx="296.6" cy="40" r="5" fill="#a855f7"/><text x="306.6" y="44" font-size="12" fill="#9fb0d4">Timeout</text><line x1="42" y1="286.0" x2="938" y2="286.0" stroke="#21304f" stroke-width="1"/><text x="35" y="289.0" text-anchor="end" font-size="11" fill="#9fb0d4">0</text><line x1="42" y1="227.5" x2="938" y2="227.5" stroke="#21304f" stroke-width="1"/><text x="35" y="230.5" text-anchor="end" font-size="11" fill="#9fb0d4">10</text><line x1="42" y1="169.0" x2="938" y2="169.0" stroke="#21304f" stroke-width="1"/><text x="35" y="172.0" text-anchor="end" font-size="11" fill="#9fb0d4">20</text><line x1="42" y1="110.5" x2="938" y2="110.5" stroke="#21304f" stroke-width="1"/><text x="35" y="113.5" text-anchor="end" font-size="11" fill="#9fb0d4">29</text><line x1="42" y1="52.0" x2="938" y2="52.0" stroke="#21304f" stroke-width="1"/><text x="35" y="55.0" text-anchor="end" font-size="11" fill="#9fb0d4">39</text><polyline fill="none" stroke="#22c55e" stroke-width="2.5" stroke-linejoin="round" stroke-linecap="round" points="42.0,70.0 44.8,70.0 47.5,88.0 50.3,88.0 53.1,76.0 55.8,76.0 58.6,76.0 61.4,70.0 64.1,76.0 66.9,70.0 69.7,64.0 72.4,58.0 75.2,58.0 78.0,58.0 80.7,58.0 83.5,58.0 86.2,58.0 89.0,58.0 91.8,58.0 94.5,58.0 97.3,58.0 100.1,58.0 102.8,58.0 105.6,58.0 108.4,58.0 111.1,58.0 113.9,58.0 116.7,58.0 119.4,58.0 122.2,58.0 125.0,58.0 127.7,70.0 130.5,76.0 133.3,94.0 136.0,64.0 138.8,64.0 141.6,58.0 144.3,58.0 147.1,58.0 149.9,70.0 152.6,76.0 155.4,76.0 158.1,82.0 160.9,82.0 163.7,82.0 166.4,82.0 169.2,76.0 172.0,64.0 174.7,70.0 177.5,70.0 180.3,82.0 183.0,76.0 185.8,76.0 188.6,82.0 191.3,76.0 194.1,76.0 196.9,76.0 199.6,64.0 202.4,64.0 205.2,76.0 207.9,76.0 210.7,76.0 213.5,88.0 216.2,70.0 219.0,64.0 221.8,58.0 224.5,58.0 227.3,70.0 230.0,70.0 232.8,70.0 235.6,76.0 238.3,70.0 241.1,70.0 243.9,70.0 246.6,70.0 249.4,76.0 252.2,82.0 254.9,76.0 257.7,70.0 260.5,70.0 263.2,70.0 266.0,70.0 268.8,76.0 271.5,70.0 274.3,70.0 277.1,70.0 279.8,70.0 282.6,70.0 285.4,70.0 288.1,70.0 290.9,70.0 293.7,70.0 296.4,70.0 299.2,70.0 302.0,70.0 304.7,70.0 307.5,70.0 310.2,70.0 313.0,70.0 315.8,70.0 318.5,70.0 321.3,70.0 324.1,70.0 326.8,70.0 329.6,70.0 332.4,70.0 335.1,70.0 337.9,70.0 340.7,70.0 343.4,70.0 346.2,70.0 349.0,70.0 351.7,70.0 354.5,70.0 357.3,70.0 360.0,70.0 362.8,70.0 365.6,70.0 368.3,70.0 371.1,70.0 373.9,70.0 376.6,70.0 379.4,70.0 382.1,70.0 384.9,70.0 387.7,70.0 390.4,70.0 393.2,70.0 396.0,70.0 398.7,70.0 401.5,70.0 404.3,70.0 407.0,70.0 409.8,70.0 412.6,70.0 415.3,70.0 418.1,70.0 420.9,70.0 423.6,70.0 426.4,70.0 429.2,70.0 431.9,70.0 434.7,70.0 437.5,70.0 440.2,70.0 443.0,70.0 445.8,70.0 448.5,70.0 451.3,70.0 454.0,70.0 456.8,70.0 459.6,76.0 462.3,70.0 465.1,70.0 467.9,70.0 470.6,70.0 473.4,70.0 476.2,76.0 478.9,76.0 481.7,88.0 484.5,88.0 487.2,88.0 490.0,94.0 492.8,94.0 495.5,94.0 498.3,94.0 501.1,88.0 503.8,88.0 506.6,82.0 509.4,82.0 512.1,82.0 514.9,88.0 517.7,88.0 520.4,94.0 523.2,82.0 526.0,82.0 528.7,82.0 531.5,82.0 534.2,88.0 537.0,88.0 539.8,94.0 542.5,94.0 545.3,88.0 548.1,88.0 550.8,88.0 553.6,94.0 556.4,94.0 559.1,106.0 561.9,94.0 564.7,94.0 567.4,94.0 570.2,94.0 573.0,88.0 575.7,88.0 578.5,82.0 581.3,76.0 584.0,76.0 586.8,76.0 589.6,76.0 592.3,76.0 595.1,76.0 597.9,70.0 600.6,70.0 603.4,70.0 606.1,76.0 608.9,88.0 611.7,82.0 614.4,70.0 617.2,70.0 620.0,70.0 622.7,76.0 625.5,76.0 628.3,76.0 631.0,82.0 633.8,70.0 636.6,76.0 639.3,64.0 642.1,70.0 644.9,58.0 647.6,58.0 650.4,58.0 653.2,58.0 655.9,58.0 658.7,64.0 661.5,58.0 664.2,64.0 667.0,58.0 669.8,58.0 672.5,58.0 675.3,58.0 678.0,64.0 680.8,64.0 683.6,64.0 686.3,76.0 689.1,70.0 691.9,82.0 694.6,70.0 697.4,76.0 700.2,58.0 702.9,64.0 705.7,58.0 708.5,64.0 711.2,58.0 714.0,58.0 716.8,58.0 719.5,64.0 722.3,70.0 725.1,64.0 727.8,64.0 730.6,64.0 733.4,70.0 736.1,70.0 738.9,64.0 741.7,70.0 744.4,70.0 747.2,70.0 750.0,58.0 752.7,58.0 755.5,58.0 758.2,58.0 761.0,58.0 763.8,64.0 766.5,58.0 769.3,58.0 772.1,58.0 774.8,58.0 777.6,58.0 780.4,58.0 783.1,58.0 785.9,58.0 788.7,64.0 791.4,58.0 794.2,58.0 797.0,58.0 799.7,58.0 802.5,58.0 805.3,58.0 808.0,58.0 810.8,64.0 813.6,58.0 816.3,58.0 819.1,58.0 821.9,58.0 824.6,58.0 827.4,58.0 830.1,58.0 832.9,58.0 835.7,58.0 838.4,58.0 841.2,58.0 844.0,58.0 846.7,58.0 849.5,58.0 852.3,58.0 855.0,58.0 857.8,58.0 860.6,58.0 863.3,58.0 866.1,64.0 868.9,64.0 871.6,58.0 874.4,58.0 877.2,58.0 879.9,64.0 882.7,64.0 885.5,76.0 888.2,64.0 891.0,64.0 893.8,70.0 896.5,58.0 899.3,58.0 902.0,58.0 904.8,58.0 907.6,58.0 910.3,58.0 913.1,70.0 915.9,64.0 918.6,64.0 921.4,64.0 924.2,64.0 926.9,70.0 929.7,70.0 932.5,76.0 935.2,76.0 938.0,82.0"/><polyline fill="none" stroke="#f59e0b" stroke-width="2.5" stroke-linejoin="round" stroke-linecap="round" points="42.0,274.0 44.8,274.0 47.5,274.0 50.3,280.0 53.1,268.0 55.8,268.0 58.6,268.0 61.4,274.0 64.1,274.0 66.9,274.0 69.7,280.0 72.4,286.0 75.2,286.0 78.0,286.0 80.7,286.0 83.5,286.0 86.2,286.0 89.0,286.0 91.8,286.0 94.5,286.0 97.3,286.0 100.1,286.0 102.8,286.0 105.6,286.0 108.4,286.0 111.1,286.0 113.9,286.0 116.7,286.0 119.4,286.0 122.2,286.0 125.0,286.0 127.7,274.0 130.5,280.0 133.3,280.0 136.0,280.0 138.8,280.0 141.6,286.0 144.3,286.0 147.1,286.0 149.9,274.0 152.6,268.0 155.4,268.0 158.1,262.0 160.9,262.0 163.7,262.0 166.4,262.0 169.2,268.0 172.0,280.0 174.7,280.0 177.5,274.0 180.3,262.0 183.0,268.0 185.8,268.0 188.6,262.0 191.3,268.0 194.1,268.0 196.9,268.0 199.6,280.0 202.4,280.0 205.2,268.0 207.9,268.0 210.7,268.0 213.5,262.0 216.2,274.0 219.0,280.0 221.8,286.0 224.5,286.0 227.3,274.0 230.0,274.0 232.8,274.0 235.6,274.0 238.3,274.0 241.1,274.0 243.9,274.0 246.6,274.0 249.4,280.0 252.2,274.0 254.9,280.0 257.7,286.0 260.5,286.0 263.2,286.0 266.0,286.0 268.8,280.0 271.5,286.0 274.3,286.0 277.1,286.0 279.8,286.0 282.6,286.0 285.4,286.0 288.1,286.0 290.9,286.0 293.7,286.0 296.4,286.0 299.2,286.0 302.0,286.0 304.7,286.0 307.5,286.0 310.2,286.0 313.0,286.0 315.8,286.0 318.5,286.0 321.3,286.0 324.1,286.0 326.8,286.0 329.6,286.0 332.4,286.0 335.1,286.0 337.9,286.0 340.7,286.0 343.4,286.0 346.2,286.0 349.0,286.0 351.7,286.0 354.5,286.0 357.3,286.0 360.0,286.0 362.8,286.0 365.6,286.0 368.3,286.0 371.1,286.0 373.9,286.0 376.6,286.0 379.4,286.0 382.1,286.0 384.9,286.0 387.7,286.0 390.4,286.0 393.2,286.0 396.0,286.0 398.7,286.0 401.5,286.0 404.3,286.0 407.0,286.0 409.8,286.0 412.6,286.0 415.3,286.0 418.1,286.0 420.9,286.0 423.6,286.0 426.4,286.0 429.2,286.0 431.9,286.0 434.7,286.0 437.5,286.0 440.2,286.0 443.0,286.0 445.8,286.0 448.5,286.0 451.3,286.0 454.0,286.0 456.8,286.0 459.6,286.0 462.3,286.0 465.1,286.0 467.9,286.0 470.6,286.0 473.4,286.0 476.2,286.0 478.9,280.0 481.7,268.0 484.5,268.0 487.2,268.0 490.0,268.0 492.8,262.0 495.5,262.0 498.3,262.0 501.1,268.0 503.8,268.0 506.6,274.0 509.4,274.0 512.1,274.0 514.9,268.0 517.7,268.0 520.4,268.0 523.2,274.0 526.0,274.0 528.7,274.0 531.5,274.0 534.2,268.0 537.0,268.0 539.8,262.0 542.5,262.0 545.3,268.0 548.1,268.0 550.8,268.0 553.6,262.0 556.4,262.0 559.1,274.0 561.9,262.0 564.7,262.0 567.4,262.0 570.2,262.0 573.0,268.0 575.7,268.0 578.5,274.0 581.3,280.0 584.0,280.0 586.8,280.0 589.6,280.0 592.3,280.0 595.1,280.0 597.9,286.0 600.6,286.0 603.4,286.0 606.1,280.0 608.9,274.0 611.7,274.0 614.4,280.0 617.2,274.0 620.0,274.0 622.7,268.0 625.5,268.0 628.3,268.0 631.0,268.0 633.8,280.0 636.6,274.0 639.3,280.0 642.1,280.0 644.9,286.0 647.6,286.0 650.4,286.0 653.2,286.0 655.9,286.0 658.7,286.0 661.5,286.0 664.2,286.0 667.0,286.0 669.8,286.0 672.5,286.0 675.3,286.0 678.0,280.0 680.8,280.0 683.6,280.0 686.3,268.0 689.1,280.0 691.9,268.0 694.6,274.0 697.4,274.0 700.2,286.0 702.9,280.0 705.7,286.0 708.5,280.0 711.2,286.0 714.0,286.0 716.8,286.0 719.5,280.0 722.3,274.0 725.1,280.0 727.8,280.0 730.6,280.0 733.4,274.0 736.1,274.0 738.9,280.0 741.7,280.0 744.4,280.0 747.2,280.0 750.0,286.0 752.7,286.0 755.5,286.0 758.2,286.0 761.0,286.0 763.8,286.0 766.5,286.0 769.3,286.0 772.1,286.0 774.8,286.0 777.6,286.0 780.4,286.0 783.1,286.0 785.9,286.0 788.7,286.0 791.4,286.0 794.2,286.0 797.0,286.0 799.7,286.0 802.5,286.0 805.3,286.0 808.0,286.0 810.8,286.0 813.6,286.0 816.3,286.0 819.1,286.0 821.9,286.0 824.6,286.0 827.4,286.0 830.1,286.0 832.9,286.0 835.7,286.0 838.4,286.0 841.2,286.0 844.0,286.0 846.7,286.0 849.5,286.0 852.3,286.0 855.0,286.0 857.8,286.0 860.6,286.0 863.3,286.0 866.1,286.0 868.9,286.0 871.6,286.0 874.4,286.0 877.2,286.0 879.9,280.0 882.7,280.0 885.5,280.0 888.2,280.0 891.0,280.0 893.8,274.0 896.5,286.0 899.3,286.0 902.0,286.0 904.8,286.0 907.6,286.0 910.3,286.0 913.1,286.0 915.9,280.0 918.6,280.0 921.4,280.0 924.2,280.0 926.9,274.0 929.7,274.0 932.5,268.0 935.2,268.0 938.0,262.0"/><polyline fill="none" stroke="#ef4444" stroke-width="2.5" stroke-linejoin="round" stroke-linecap="round" points="42.0,280.0 44.8,280.0 47.5,268.0 50.3,262.0 53.1,286.0 55.8,286.0 58.6,286.0 61.4,286.0 64.1,280.0 66.9,286.0 69.7,286.0 72.4,286.0 75.2,286.0 78.0,286.0 80.7,286.0 83.5,286.0 86.2,286.0 89.0,286.0 91.8,286.0 94.5,286.0 97.3,286.0 100.1,286.0 102.8,286.0 105.6,286.0 108.4,286.0 111.1,286.0 113.9,286.0 116.7,286.0 119.4,286.0 122.2,286.0 125.0,286.0 127.7,286.0 130.5,274.0 133.3,256.0 136.0,286.0 138.8,286.0 141.6,286.0 144.3,286.0 147.1,286.0 149.9,286.0 152.6,286.0 155.4,286.0 158.1,286.0 160.9,286.0 163.7,286.0 166.4,286.0 169.2,286.0 172.0,286.0 174.7,280.0 177.5,286.0 180.3,286.0 183.0,286.0 185.8,286.0 188.6,286.0 191.3,286.0 194.1,286.0 196.9,286.0 199.6,286.0 202.4,286.0 205.2,286.0 207.9,286.0 210.7,286.0 213.5,280.0 216.2,286.0 219.0,286.0 221.8,286.0 224.5,286.0 227.3,286.0 230.0,286.0 232.8,286.0 235.6,286.0 238.3,286.0 241.1,286.0 243.9,286.0 246.6,286.0 249.4,274.0 252.2,274.0 254.9,274.0 257.7,274.0 260.5,274.0 263.2,274.0 266.0,274.0 268.8,274.0 271.5,274.0 274.3,274.0 277.1,274.0 279.8,274.0 282.6,274.0 285.4,274.0 288.1,274.0 290.9,274.0 293.7,274.0 296.4,274.0 299.2,274.0 302.0,274.0 304.7,274.0 307.5,274.0 310.2,274.0 313.0,274.0 315.8,274.0 318.5,274.0 321.3,274.0 324.1,274.0 326.8,274.0 329.6,274.0 332.4,274.0 335.1,274.0 337.9,274.0 340.7,274.0 343.4,274.0 346.2,274.0 349.0,274.0 351.7,274.0 354.5,274.0 357.3,274.0 360.0,274.0 362.8,274.0 365.6,274.0 368.3,274.0 371.1,274.0 373.9,274.0 376.6,274.0 379.4,274.0 382.1,274.0 384.9,274.0 387.7,274.0 390.4,274.0 393.2,274.0 396.0,274.0 398.7,274.0 401.5,274.0 404.3,274.0 407.0,274.0 409.8,274.0 412.6,274.0 415.3,274.0 418.1,274.0 420.9,274.0 423.6,274.0 426.4,274.0 429.2,274.0 431.9,274.0 434.7,274.0 437.5,274.0 440.2,274.0 443.0,274.0 445.8,274.0 448.5,274.0 451.3,274.0 454.0,274.0 456.8,274.0 459.6,268.0 462.3,274.0 465.1,274.0 467.9,274.0 470.6,274.0 473.4,274.0 476.2,274.0 478.9,274.0 481.7,274.0 484.5,274.0 487.2,274.0 490.0,268.0 492.8,274.0 495.5,274.0 498.3,274.0 501.1,274.0 503.8,274.0 506.6,274.0 509.4,274.0 512.1,274.0 514.9,274.0 517.7,274.0 520.4,268.0 523.2,274.0 526.0,274.0 528.7,274.0 531.5,274.0 534.2,274.0 537.0,274.0 539.8,274.0 542.5,274.0 545.3,274.0 548.1,274.0 550.8,274.0 553.6,274.0 556.4,274.0 559.1,250.0 561.9,274.0 564.7,274.0 567.4,274.0 570.2,274.0 573.0,274.0 575.7,274.0 578.5,274.0 581.3,274.0 584.0,274.0 586.8,274.0 589.6,274.0 592.3,274.0 595.1,274.0 597.9,274.0 600.6,274.0 603.4,274.0 606.1,274.0 608.9,268.0 611.7,274.0 614.4,280.0 617.2,286.0 620.0,286.0 622.7,286.0 625.5,286.0 628.3,286.0 631.0,280.0 633.8,280.0 636.6,286.0 639.3,286.0 642.1,280.0 644.9,286.0 647.6,286.0 650.4,286.0 653.2,286.0 655.9,286.0 658.7,280.0 661.5,286.0 664.2,286.0 667.0,286.0 669.8,286.0 672.5,286.0 675.3,286.0 678.0,286.0 680.8,286.0 683.6,286.0 686.3,286.0 689.1,280.0 691.9,280.0 694.6,286.0 697.4,280.0 700.2,286.0 702.9,286.0 705.7,286.0 708.5,286.0 711.2,286.0 714.0,286.0 716.8,286.0 719.5,286.0 722.3,286.0 725.1,286.0 727.8,286.0 730.6,286.0 733.4,286.0 736.1,286.0 738.9,286.0 741.7,280.0 744.4,286.0 747.2,280.0 750.0,286.0 752.7,286.0 755.5,286.0 758.2,286.0 761.0,286.0 763.8,286.0 766.5,286.0 769.3,286.0 772.1,286.0 774.8,286.0 777.6,286.0 780.4,286.0 783.1,286.0 785.9,286.0 788.7,280.0 791.4,286.0 794.2,286.0 797.0,286.0 799.7,286.0 802.5,286.0 805.3,286.0 808.0,286.0 810.8,286.0 813.6,286.0 816.3,286.0 819.1,286.0 821.9,286.0 824.6,286.0 827.4,286.0 830.1,286.0 832.9,286.0 835.7,286.0 838.4,286.0 841.2,286.0 844.0,286.0 846.7,286.0 849.5,286.0 852.3,286.0 855.0,286.0 857.8,286.0 860.6,286.0 863.3,286.0 866.1,280.0 868.9,280.0 871.6,286.0 874.4,286.0 877.2,286.0 879.9,286.0 882.7,286.0 885.5,274.0 888.2,286.0 891.0,286.0 893.8,286.0 896.5,286.0 899.3,286.0 902.0,286.0 904.8,286.0 907.6,286.0 910.3,286.0 913.1,286.0 915.9,286.0 918.6,286.0 921.4,286.0 924.2,286.0 926.9,286.0 929.7,286.0 932.5,286.0 935.2,286.0 938.0,286.0"/><polyline fill="none" stroke="#a855f7" stroke-width="2.5" stroke-linejoin="round" stroke-linecap="round" points="42.0,286.0 44.8,286.0 47.5,286.0 50.3,286.0 53.1,286.0 55.8,286.0 58.6,286.0 61.4,286.0 64.1,286.0 66.9,286.0 69.7,286.0 72.4,286.0 75.2,286.0 78.0,286.0 80.7,286.0 83.5,286.0 86.2,286.0 89.0,286.0 91.8,286.0 94.5,286.0 97.3,286.0 100.1,286.0 102.8,286.0 105.6,286.0 108.4,286.0 111.1,286.0 113.9,286.0 116.7,286.0 119.4,286.0 122.2,286.0 125.0,286.0 127.7,286.0 130.5,286.0 133.3,286.0 136.0,286.0 138.8,286.0 141.6,286.0 144.3,286.0 147.1,286.0 149.9,286.0 152.6,286.0 155.4,286.0 158.1,286.0 160.9,286.0 163.7,286.0 166.4,286.0 169.2,286.0 172.0,286.0 174.7,286.0 177.5,286.0 180.3,286.0 183.0,286.0 185.8,286.0 188.6,286.0 191.3,286.0 194.1,286.0 196.9,286.0 199.6,286.0 202.4,286.0 205.2,286.0 207.9,286.0 210.7,286.0 213.5,286.0 216.2,286.0 219.0,286.0 221.8,286.0 224.5,286.0 227.3,286.0 230.0,286.0 232.8,286.0 235.6,280.0 238.3,286.0 241.1,286.0 243.9,286.0 246.6,286.0 249.4,286.0 252.2,286.0 254.9,286.0 257.7,286.0 260.5,286.0 263.2,286.0 266.0,286.0 268.8,286.0 271.5,286.0 274.3,286.0 277.1,286.0 279.8,286.0 282.6,286.0 285.4,286.0 288.1,286.0 290.9,286.0 293.7,286.0 296.4,286.0 299.2,286.0 302.0,286.0 304.7,286.0 307.5,286.0 310.2,286.0 313.0,286.0 315.8,286.0 318.5,286.0 321.3,286.0 324.1,286.0 326.8,286.0 329.6,286.0 332.4,286.0 335.1,286.0 337.9,286.0 340.7,286.0 343.4,286.0 346.2,286.0 349.0,286.0 351.7,286.0 354.5,286.0 357.3,286.0 360.0,286.0 362.8,286.0 365.6,286.0 368.3,286.0 371.1,286.0 373.9,286.0 376.6,286.0 379.4,286.0 382.1,286.0 384.9,286.0 387.7,286.0 390.4,286.0 393.2,286.0 396.0,286.0 398.7,286.0 401.5,286.0 404.3,286.0 407.0,286.0 409.8,286.0 412.6,286.0 415.3,286.0 418.1,286.0 420.9,286.0 423.6,286.0 426.4,286.0 429.2,286.0 431.9,286.0 434.7,286.0 437.5,286.0 440.2,286.0 443.0,286.0 445.8,286.0 448.5,286.0 451.3,286.0 454.0,286.0 456.8,286.0 459.6,286.0 462.3,286.0 465.1,286.0 467.9,286.0 470.6,286.0 473.4,286.0 476.2,280.0 478.9,286.0 481.7,286.0 484.5,286.0 487.2,286.0 490.0,286.0 492.8,286.0 495.5,286.0 498.3,286.0 501.1,286.0 503.8,286.0 506.6,286.0 509.4,286.0 512.1,286.0 514.9,286.0 517.7,286.0 520.4,286.0 523.2,286.0 526.0,286.0 528.7,286.0 531.5,286.0 534.2,286.0 537.0,286.0 539.8,286.0 542.5,286.0 545.3,286.0 548.1,286.0 550.8,286.0 553.6,286.0 556.4,286.0 559.1,286.0 561.9,286.0 564.7,286.0 567.4,286.0 570.2,286.0 573.0,286.0 575.7,286.0 578.5,286.0 581.3,286.0 584.0,286.0 586.8,286.0 589.6,286.0 592.3,286.0 595.1,286.0 597.9,286.0 600.6,286.0 603.4,286.0 606.1,286.0 608.9,286.0 611.7,286.0 614.4,286.0 617.2,286.0 620.0,286.0 622.7,286.0 625.5,286.0 628.3,286.0 631.0,286.0 633.8,286.0 636.6,280.0 639.3,286.0 642.1,286.0 644.9,286.0 647.6,286.0 650.4,286.0 653.2,286.0 655.9,286.0 658.7,286.0 661.5,286.0 664.2,280.0 667.0,286.0 669.8,286.0 672.5,286.0 675.3,286.0 678.0,286.0 680.8,286.0 683.6,286.0 686.3,286.0 689.1,286.0 691.9,286.0 694.6,286.0 697.4,286.0 700.2,286.0 702.9,286.0 705.7,286.0 708.5,286.0 711.2,286.0 714.0,286.0 716.8,286.0 719.5,286.0 722.3,286.0 725.1,286.0 727.8,286.0 730.6,286.0 733.4,286.0 736.1,286.0 738.9,286.0 741.7,286.0 744.4,280.0 747.2,286.0 750.0,286.0 752.7,286.0 755.5,286.0 758.2,286.0 761.0,286.0 763.8,280.0 766.5,286.0 769.3,286.0 772.1,286.0 774.8,286.0 777.6,286.0 780.4,286.0 783.1,286.0 785.9,286.0 788.7,286.0 791.4,286.0 794.2,286.0 797.0,286.0 799.7,286.0 802.5,286.0 805.3,286.0 808.0,286.0 810.8,280.0 813.6,286.0 816.3,286.0 819.1,286.0 821.9,286.0 824.6,286.0 827.4,286.0 830.1,286.0 832.9,286.0 835.7,286.0 838.4,286.0 841.2,286.0 844.0,286.0 846.7,286.0 849.5,286.0 852.3,286.0 855.0,286.0 857.8,286.0 860.6,286.0 863.3,286.0 866.1,286.0 868.9,286.0 871.6,286.0 874.4,286.0 877.2,286.0 879.9,286.0 882.7,286.0 885.5,286.0 888.2,286.0 891.0,286.0 893.8,286.0 896.5,286.0 899.3,286.0 902.0,286.0 904.8,286.0 907.6,286.0 910.3,286.0 913.1,274.0 915.9,286.0 918.6,286.0 921.4,286.0 924.2,286.0 926.9,286.0 929.7,286.0 932.5,286.0 935.2,286.0 938.0,286.0"/><text x="42" y="308" font-size="11" fill="#9fb0d4">19/06 12:43</text><text x="938" y="308" text-anchor="end" font-size="11" fill="#9fb0d4">07/07 10:30</text></svg>