<svg xmlns="http://www.w3.org/2000/svg" viewBox="0 0 960 320" width="960" height="320" font-family="Segoe UI, system-ui, -apple-system, Roboto, Helvetica, Arial, sans-serif" role="img" aria-label="Availability history per region"><rect x="0.5" y="0.5" width="959" height="319" rx="14" fill="#0d1117" stroke="#2c3a5e"/><text x="42" y="26" font-size="14" font-weight="600" fill="#e6ecff">History · 56 points</text><circle cx="47" cy="40" r="5" fill="#22c55e"/><text x="57" y="44" font-size="12" fill="#9fb0d4">Available</text><circle cx="139.8" cy="40" r="5" fill="#f59e0b"/><text x="149.8" y="44" font-size="12" fill="#9fb0d4">Saturated</text><circle cx="232.60000000000002" cy="40" r="5" fill="#ef4444"/><text x="242.60000000000002" y="44" font-size="12" fill="#9fb0d4">Error</text><circle cx="296.6" cy="40" r="5" fill="#a855f7"/><text x="306.6" y="44" font-size="12" fill="#9fb0d4">Timeout</text><line x1="42" y1="286.0" x2="938" y2="286.0" stroke="#21304f" stroke-width="1"/><text x="35" y="289.0" text-anchor="end" font-size="11" fill="#9fb0d4">0</text><line x1="42" y1="227.5" x2="938" y2="227.5" stroke="#21304f" stroke-width="1"/><text x="35" y="230.5" text-anchor="end" font-size="11" fill="#9fb0d4">10</text><line x1="42" y1="169.0" x2="938" y2="169.0" stroke="#21304f" stroke-width="1"/><text x="35" y="172.0" text-anchor="end" font-size="11" fill="#9fb0d4">19</text><line x1="42" y1="110.5" x2="938" y2="110.5" stroke="#21304f" stroke-width="1"/><text x="35" y="113.5" text-anchor="end" font-size="11" fill="#9fb0d4">28</text><line x1="42" y1="52.0" x2="938" y2="52.0" stroke="#21304f" stroke-width="1"/><text x="35" y="55.0" text-anchor="end" font-size="11" fill="#9fb0d4">38</text><polyline fill="none" stroke="#22c55e" stroke-width="2.5" stroke-linejoin="round" stroke-linecap="round" points="42.0,64.3 58.3,224.4 74.6,82.8 90.9,88.9 107.2,82.8 123.5,76.6 139.7,76.6 156.0,76.6 172.3,76.6 188.6,76.6 204.9,76.6 221.2,76.6 237.5,76.6 253.8,76.6 270.1,76.6 286.4,70.5 302.7,70.5 318.9,82.8 335.2,82.8 351.5,82.8 367.8,88.9 384.1,88.9 400.4,88.9 416.7,88.9 433.0,88.9 449.3,88.9 465.6,88.9 481.9,88.9 498.1,88.9 514.4,82.8 530.7,82.8 547.0,82.8 563.3,82.8 579.6,76.6 595.9,76.6 612.2,76.6 628.5,76.6 644.8,76.6 661.1,82.8 677.3,82.8 693.6,82.8 709.9,82.8 726.2,76.6 742.5,76.6 758.8,76.6 775.1,76.6 791.4,76.6 807.7,76.6 824.0,76.6 840.3,82.8 856.5,82.8 872.8,82.8 889.1,82.8 905.4,76.6 921.7,76.6 938.0,76.6"/><circle cx="42.0" cy="64.3" r="2.5" fill="#22c55e"/><circle cx="58.3" cy="224.4" r="2.5" fill="#22c55e"/><circle cx="74.6" cy="82.8" r="2.5" fill="#22c55e"/><circle cx="90.9" cy="88.9" r="2.5" fill="#22c55e"/><circle cx="107.2" cy="82.8" r="2.5" fill="#22c55e"/><circle cx="123.5" cy="76.6" r="2.5" fill="#22c55e"/><circle cx="139.7" cy="76.6" r="2.5" fill="#22c55e"/><circle cx="156.0" cy="76.6" r="2.5" fill="#22c55e"/><circle cx="172.3" cy="76.6" r="2.5" fill="#22c55e"/><circle cx="188.6" cy="76.6" r="2.5" fill="#22c55e"/><circle cx="204.9" cy="76.6" r="2.5" fill="#22c55e"/><circle cx="221.2" cy="76.6" r="2.5" fill="#22c55e"/><circle cx="237.5" cy="76.6" r="2.5" fill="#22c55e"/><circle cx="253.8" cy="76.6" r="2.5" fill="#22c55e"/><circle cx="270.1" cy="76.6" r="2.5" fill="#22c55e"/><circle cx="286.4" cy="70.5" r="2.5" fill="#22c55e"/><circle cx="302.7" cy="70.5" r="2.5" fill="#22c55e"/><circle cx="318.9" cy="82.8" r="2.5" fill="#22c55e"/><circle cx="335.2" cy="82.8" r="2.5" fill="#22c55e"/><circle cx="351.5" cy="82.8" r="2.5" fill="#22c55e"/><circle cx="367.8" cy="88.9" r="2.5" fill="#22c55e"/><circle cx="384.1" cy="88.9" r="2.5" fill="#22c55e"/><circle cx="400.4" cy="88.9" r="2.5" fill="#22c55e"/><circle cx="416.7" cy="88.9" r="2.5" fill="#22c55e"/><circle cx="433.0" cy="88.9" r="2.5" fill="#22c55e"/><circle cx="449.3" cy="88.9" r="2.5" fill="#22c55e"/><circle cx="465.6" cy="88.9" r="2.5" fill="#22c55e"/><circle cx="481.9" cy="88.9" r="2.5" fill="#22c55e"/><circle cx="498.1" cy="88.9" r="2.5" fill="#22c55e"/><circle cx="514.4" cy="82.8" r="2.5" fill="#22c55e"/><circle cx="530.7" cy="82.8" r="2.5" fill="#22c55e"/><circle cx="547.0" cy="82.8" r="2.5" fill="#22c55e"/><circle cx="563.3" cy="82.8" r="2.5" fill="#22c55e"/><circle cx="579.6" cy="76.6" r="2.5" fill="#22c55e"/><circle cx="595.9" cy="76.6" r="2.5" fill="#22c55e"/><circle cx="612.2" cy="76.6" r="2.5" fill="#22c55e"/><circle cx="628.5" cy="76.6" r="2.5" fill="#22c55e"/><circle cx="644.8" cy="76.6" r="2.5" fill="#22c55e"/><circle cx="661.1" cy="82.8" r="2.5" fill="#22c55e"/><circle cx="677.3" cy="82.8" r="2.5" fill="#22c55e"/><circle cx="693.6" cy="82.8" r="2.5" fill="#22c55e"/><circle cx="709.9" cy="82.8" r="2.5" fill="#22c55e"/><circle cx="726.2" cy="76.6" r="2.5" fill="#22c55e"/><circle cx="742.5" cy="76.6" r="2.5" fill="#22c55e"/><circle cx="758.8" cy="76.6" r="2.5" fill="#22c55e"/><circle cx="775.1" cy="76.6" r="2.5" fill="#22c55e"/><circle cx="791.4" cy="76.6" r="2.5" fill="#22c55e"/><circle cx="807.7" cy="76.6" r="2.5" fill="#22c55e"/><circle cx="824.0" cy="76.6" r="2.5" fill="#22c55e"/><circle cx="840.3" cy="82.8" r="2.5" fill="#22c55e"/><circle cx="856.5" cy="82.8" r="2.5" fill="#22c55e"/><circle cx="872.8" cy="82.8" r="2.5" fill="#22c55e"/><circle cx="889.1" cy="82.8" r="2.5" fill="#22c55e"/><circle cx="905.4" cy="76.6" r="2.5" fill="#22c55e"/><circle cx="921.7" cy="76.6" r="2.5" fill="#22c55e"/><circle cx="938.0" cy="76.6" r="2.5" fill="#22c55e"/><polyline fill="none" stroke="#f59e0b" stroke-width="2.5" stroke-linejoin="round" stroke-linecap="round" points="42.0,273.7 58.3,267.5 74.6,255.2 90.9,249.1 107.2,255.2 123.5,261.4 139.7,261.4 156.0,261.4 172.3,261.4 188.6,261.4 204.9,261.4 221.2,261.4 237.5,261.4 253.8,261.4 270.1,261.4 286.4,267.5 302.7,267.5 318.9,261.4 335.2,255.2 351.5,255.2 367.8,249.1 384.1,249.1 400.4,249.1 416.7,249.1 433.0,249.1 449.3,249.1 465.6,249.1 481.9,249.1 498.1,249.1 514.4,255.2 530.7,255.2 547.0,255.2 563.3,255.2 579.6,261.4 595.9,261.4 612.2,261.4 628.5,261.4 644.8,261.4 661.1,255.2 677.3,255.2 693.6,255.2 709.9,255.2 726.2,261.4 742.5,261.4 758.8,261.4 775.1,261.4 791.4,261.4 807.7,261.4 824.0,261.4 840.3,255.2 856.5,255.2 872.8,255.2 889.1,261.4 905.4,261.4 921.7,261.4 938.0,261.4"/><circle cx="42.0" cy="273.7" r="2.5" fill="#f59e0b"/><circle cx="58.3" cy="267.5" r="2.5" fill="#f59e0b"/><circle cx="74.6" cy="255.2" r="2.5" fill="#f59e0b"/><circle cx="90.9" cy="249.1" r="2.5" fill="#f59e0b"/><circle cx="107.2" cy="255.2" r="2.5" fill="#f59e0b"/><circle cx="123.5" cy="261.4" r="2.5" fill="#f59e0b"/><circle cx="139.7" cy="261.4" r="2.5" fill="#f59e0b"/><circle cx="156.0" cy="261.4" r="2.5" fill="#f59e0b"/><circle cx="172.3" cy="261.4" r="2.5" fill="#f59e0b"/><circle cx="188.6" cy="261.4" r="2.5" fill="#f59e0b"/><circle cx="204.9" cy="261.4" r="2.5" fill="#f59e0b"/><circle cx="221.2" cy="261.4" r="2.5" fill="#f59e0b"/><circle cx="237.5" cy="261.4" r="2.5" fill="#f59e0b"/><circle cx="253.8" cy="261.4" r="2.5" fill="#f59e0b"/><circle cx="270.1" cy="261.4" r="2.5" fill="#f59e0b"/><circle cx="286.4" cy="267.5" r="2.5" fill="#f59e0b"/><circle cx="302.7" cy="267.5" r="2.5" fill="#f59e0b"/><circle cx="318.9" cy="261.4" r="2.5" fill="#f59e0b"/><circle cx="335.2" cy="255.2" r="2.5" fill="#f59e0b"/><circle cx="351.5" cy="255.2" r="2.5" fill="#f59e0b"/><circle cx="367.8" cy="249.1" r="2.5" fill="#f59e0b"/><circle cx="384.1" cy="249.1" r="2.5" fill="#f59e0b"/><circle cx="400.4" cy="249.1" r="2.5" fill="#f59e0b"/><circle cx="416.7" cy="249.1" r="2.5" fill="#f59e0b"/><circle cx="433.0" cy="249.1" r="2.5" fill="#f59e0b"/><circle cx="449.3" cy="249.1" r="2.5" fill="#f59e0b"/><circle cx="465.6" cy="249.1" r="2.5" fill="#f59e0b"/><circle cx="481.9" cy="249.1" r="2.5" fill="#f59e0b"/><circle cx="498.1" cy="249.1" r="2.5" fill="#f59e0b"/><circle cx="514.4" cy="255.2" r="2.5" fill="#f59e0b"/><circle cx="530.7" cy="255.2" r="2.5" fill="#f59e0b"/><circle cx="547.0" cy="255.2" r="2.5" fill="#f59e0b"/><circle cx="563.3" cy="255.2" r="2.5" fill="#f59e0b"/><circle cx="579.6" cy="261.4" r="2.5" fill="#f59e0b"/><circle cx="595.9" cy="261.4" r="2.5" fill="#f59e0b"/><circle cx="612.2" cy="261.4" r="2.5" fill="#f59e0b"/><circle cx="628.5" cy="261.4" r="2.5" fill="#f59e0b"/><circle cx="644.8" cy="261.4" r="2.5" fill="#f59e0b"/><circle cx="661.1" cy="255.2" r="2.5" fill="#f59e0b"/><circle cx="677.3" cy="255.2" r="2.5" fill="#f59e0b"/><circle cx="693.6" cy="255.2" r="2.5" fill="#f59e0b"/><circle cx="709.9" cy="255.2" r="2.5" fill="#f59e0b"/><circle cx="726.2" cy="261.4" r="2.5" fill="#f59e0b"/><circle cx="742.5" cy="261.4" r="2.5" fill="#f59e0b"/><circle cx="758.8" cy="261.4" r="2.5" fill="#f59e0b"/><circle cx="775.1" cy="261.4" r="2.5" fill="#f59e0b"/><circle cx="791.4" cy="261.4" r="2.5" fill="#f59e0b"/><circle cx="807.7" cy="261.4" r="2.5" fill="#f59e0b"/><circle cx="824.0" cy="261.4" r="2.5" fill="#f59e0b"/><circle cx="840.3" cy="255.2" r="2.5" fill="#f59e0b"/><circle cx="856.5" cy="255.2" r="2.5" fill="#f59e0b"/><circle cx="872.8" cy="255.2" r="2.5" fill="#f59e0b"/><circle cx="889.1" cy="261.4" r="2.5" fill="#f59e0b"/><circle cx="905.4" cy="261.4" r="2.5" fill="#f59e0b"/><circle cx="921.7" cy="261.4" r="2.5" fill="#f59e0b"/><circle cx="938.0" cy="261.4" r="2.5" fill="#f59e0b"/><polyline fill="none" stroke="#ef4444" stroke-width="2.5" stroke-linejoin="round" stroke-linecap="round" points="42.0,286.0 58.3,132.1 74.6,286.0 90.9,286.0 107.2,286.0 123.5,286.0 139.7,286.0 156.0,286.0 172.3,286.0 188.6,286.0 204.9,286.0 221.2,286.0 237.5,286.0 253.8,286.0 270.1,286.0 286.4,286.0 302.7,286.0 318.9,279.8 335.2,286.0 351.5,286.0 367.8,286.0 384.1,286.0 400.4,286.0 416.7,286.0 433.0,286.0 449.3,286.0 465.6,286.0 481.9,286.0 498.1,286.0 514.4,286.0 530.7,286.0 547.0,286.0 563.3,286.0 579.6,286.0 595.9,286.0 612.2,286.0 628.5,286.0 644.8,286.0 661.1,286.0 677.3,286.0 693.6,286.0 709.9,286.0 726.2,286.0 742.5,286.0 758.8,286.0 775.1,286.0 791.4,286.0 807.7,286.0 824.0,286.0 840.3,286.0 856.5,286.0 872.8,286.0 889.1,286.0 905.4,286.0 921.7,286.0 938.0,286.0"/><circle cx="42.0" cy="286.0" r="2.5" fill="#ef4444"/><circle cx="58.3" cy="132.1" r="2.5" fill="#ef4444"/><circle cx="74.6" cy="286.0" r="2.5" fill="#ef4444"/><circle cx="90.9" cy="286.0" r="2.5" fill="#ef4444"/><circle cx="107.2" cy="286.0" r="2.5" fill="#ef4444"/><circle cx="123.5" cy="286.0" r="2.5" fill="#ef4444"/><circle cx="139.7" cy="286.0" r="2.5" fill="#ef4444"/><circle cx="156.0" cy="286.0" r="2.5" fill="#ef4444"/><circle cx="172.3" cy="286.0" r="2.5" fill="#ef4444"/><circle cx="188.6" cy="286.0" r="2.5" fill="#ef4444"/><circle cx="204.9" cy="286.0" r="2.5" fill="#ef4444"/><circle cx="221.2" cy="286.0" r="2.5" fill="#ef4444"/><circle cx="237.5" cy="286.0" r="2.5" fill="#ef4444"/><circle cx="253.8" cy="286.0" r="2.5" fill="#ef4444"/><circle cx="270.1" cy="286.0" r="2.5" fill="#ef4444"/><circle cx="286.4" cy="286.0" r="2.5" fill="#ef4444"/><circle cx="302.7" cy="286.0" r="2.5" fill="#ef4444"/><circle cx="318.9" cy="279.8" r="2.5" fill="#ef4444"/><circle cx="335.2" cy="286.0" r="2.5" fill="#ef4444"/><circle cx="351.5" cy="286.0" r="2.5" fill="#ef4444"/><circle cx="367.8" cy="286.0" r="2.5" fill="#ef4444"/><circle cx="384.1" cy="286.0" r="2.5" fill="#ef4444"/><circle cx="400.4" cy="286.0" r="2.5" fill="#ef4444"/><circle cx="416.7" cy="286.0" r="2.5" fill="#ef4444"/><circle cx="433.0" cy="286.0" r="2.5" fill="#ef4444"/><circle cx="449.3" cy="286.0" r="2.5" fill="#ef4444"/><circle cx="465.6" cy="286.0" r="2.5" fill="#ef4444"/><circle cx="481.9" cy="286.0" r="2.5" fill="#ef4444"/><circle cx="498.1" cy="286.0" r="2.5" fill="#ef4444"/><circle cx="514.4" cy="286.0" r="2.5" fill="#ef4444"/><circle cx="530.7" cy="286.0" r="2.5" fill="#ef4444"/><circle cx="547.0" cy="286.0" r="2.5" fill="#ef4444"/><circle cx="563.3" cy="286.0" r="2.5" fill="#ef4444"/><circle cx="579.6" cy="286.0" r="2.5" fill="#ef4444"/><circle cx="595.9" cy="286.0" r="2.5" fill="#ef4444"/><circle cx="612.2" cy="286.0" r="2.5" fill="#ef4444"/><circle cx="628.5" cy="286.0" r="2.5" fill="#ef4444"/><circle cx="644.8" cy="286.0" r="2.5" fill="#ef4444"/><circle cx="661.1" cy="286.0" r="2.5" fill="#ef4444"/><circle cx="677.3" cy="286.0" r="2.5" fill="#ef4444"/><circle cx="693.6" cy="286.0" r="2.5" fill="#ef4444"/><circle cx="709.9" cy="286.0" r="2.5" fill="#ef4444"/><circle cx="726.2" cy="286.0" r="2.5" fill="#ef4444"/><circle cx="742.5" cy="286.0" r="2.5" fill="#ef4444"/><circle cx="758.8" cy="286.0" r="2.5" fill="#ef4444"/><circle cx="775.1" cy="286.0" r="2.5" fill="#ef4444"/><circle cx="791.4" cy="286.0" r="2.5" fill="#ef4444"/><circle cx="807.7" cy="286.0" r="2.5" fill="#ef4444"/><circle cx="824.0" cy="286.0" r="2.5" fill="#ef4444"/><circle cx="840.3" cy="286.0" r="2.5" fill="#ef4444"/><circle cx="856.5" cy="286.0" r="2.5" fill="#ef4444"/><circle cx="872.8" cy="286.0" r="2.5" fill="#ef4444"/><circle cx="889.1" cy="286.0" r="2.5" fill="#ef4444"/><circle cx="905.4" cy="286.0" r="2.5" fill="#ef4444"/><circle cx="921.7" cy="286.0" r="2.5" fill="#ef4444"/><circle cx="938.0" cy="286.0" r="2.5" fill="#ef4444"/><polyline fill="none" stroke="#a855f7" stroke-width="2.5" stroke-linejoin="round" stroke-linecap="round" points="42.0,286.0 58.3,286.0 74.6,286.0 90.9,286.0 107.2,286.0 123.5,286.0 139.7,286.0 156.0,286.0 172.3,286.0 188.6,286.0 204.9,286.0 221.2,286.0 237.5,286.0 253.8,286.0 270.1,286.0 286.4,286.0 302.7,286.0 318.9,286.0 335.2,286.0 351.5,286.0 367.8,286.0 384.1,286.0 400.4,286.0 416.7,286.0 433.0,286.0 449.3,286.0 465.6,286.0 481.9,286.0 498.1,286.0 514.4,286.0 530.7,286.0 547.0,286.0 563.3,286.0 579.6,286.0 595.9,286.0 612.2,286.0 628.5,286.0 644.8,286.0 661.1,286.0 677.3,286.0 693.6,286.0 709.9,286.0 726.2,286.0 742.5,286.0 758.8,286.0 775.1,286.0 791.4,286.0 807.7,286.0 824.0,286.0 840.3,286.0 856.5,286.0 872.8,286.0 889.1,279.8 905.4,286.0 921.7,286.0 938.0,286.0"/><circle cx="42.0" cy="286.0" r="2.5" fill="#a855f7"/><circle cx="58.3" cy="286.0" r="2.5" fill="#a855f7"/><circle cx="74.6" cy="286.0" r="2.5" fill="#a855f7"/><circle cx="90.9" cy="286.0" r="2.5" fill="#a855f7"/><circle cx="107.2" cy="286.0" r="2.5" fill="#a855f7"/><circle cx="123.5" cy="286.0" r="2.5" fill="#a855f7"/><circle cx="139.7" cy="286.0" r="2.5" fill="#a855f7"/><circle cx="156.0" cy="286.0" r="2.5" fill="#a855f7"/><circle cx="172.3" cy="286.0" r="2.5" fill="#a855f7"/><circle cx="188.6" cy="286.0" r="2.5" fill="#a855f7"/><circle cx="204.9" cy="286.0" r="2.5" fill="#a855f7"/><circle cx="221.2" cy="286.0" r="2.5" fill="#a855f7"/><circle cx="237.5" cy="286.0" r="2.5" fill="#a855f7"/><circle cx="253.8" cy="286.0" r="2.5" fill="#a855f7"/><circle cx="270.1" cy="286.0" r="2.5" fill="#a855f7"/><circle cx="286.4" cy="286.0" r="2.5" fill="#a855f7"/><circle cx="302.7" cy="286.0" r="2.5" fill="#a855f7"/><circle cx="318.9" cy="286.0" r="2.5" fill="#a855f7"/><circle cx="335.2" cy="286.0" r="2.5" fill="#a855f7"/><circle cx="351.5" cy="286.0" r="2.5" fill="#a855f7"/><circle cx="367.8" cy="286.0" r="2.5" fill="#a855f7"/><circle cx="384.1" cy="286.0" r="2.5" fill="#a855f7"/><circle cx="400.4" cy="286.0" r="2.5" fill="#a855f7"/><circle cx="416.7" cy="286.0" r="2.5" fill="#a855f7"/><circle cx="433.0" cy="286.0" r="2.5" fill="#a855f7"/><circle cx="449.3" cy="286.0" r="2.5" fill="#a855f7"/><circle cx="465.6" cy="286.0" r="2.5" fill="#a855f7"/><circle cx="481.9" cy="286.0" r="2.5" fill="#a855f7"/><circle cx="498.1" cy="286.0" r="2.5" fill="#a855f7"/><circle cx="514.4" cy="286.0" r="2.5" fill="#a855f7"/><circle cx="530.7" cy="286.0" r="2.5" fill="#a855f7"/><circle cx="547.0" cy="286.0" r="2.5" fill="#a855f7"/><circle cx="563.3" cy="286.0" r="2.5" fill="#a855f7"/><circle cx="579.6" cy="286.0" r="2.5" fill="#a855f7"/><circle cx="595.9" cy="286.0" r="2.5" fill="#a855f7"/><circle cx="612.2" cy="286.0" r="2.5" fill="#a855f7"/><circle cx="628.5" cy="286.0" r="2.5" fill="#a855f7"/><circle cx="644.8" cy="286.0" r="2.5" fill="#a855f7"/><circle cx="661.1" cy="286.0" r="2.5" fill="#a855f7"/><circle cx="677.3" cy="286.0" r="2.5" fill="#a855f7"/><circle cx="693.6" cy="286.0" r="2.5" fill="#a855f7"/><circle cx="709.9" cy="286.0" r="2.5" fill="#a855f7"/><circle cx="726.2" cy="286.0" r="2.5" fill="#a855f7"/><circle cx="742.5" cy="286.0" r="2.5" fill="#a855f7"/><circle cx="758.8" cy="286.0" r="2.5" fill="#a855f7"/><circle cx="775.1" cy="286.0" r="2.5" fill="#a855f7"/><circle cx="791.4" cy="286.0" r="2.5" fill="#a855f7"/><circle cx="807.7" cy="286.0" r="2.5" fill="#a855f7"/><circle cx="824.0" cy="286.0" r="2.5" fill="#a855f7"/><circle cx="840.3" cy="286.0" r="2.5" fill="#a855f7"/><circle cx="856.5" cy="286.0" r="2.5" fill="#a855f7"/><circle cx="872.8" cy="286.0" r="2.5" fill="#a855f7"/><circle cx="889.1" cy="279.8" r="2.5" fill="#a855f7"/><circle cx="905.4" cy="286.0" r="2.5" fill="#a855f7"/><circle cx="921.7" cy="286.0" r="2.5" fill="#a855f7"/><circle cx="938.0" cy="286.0" r="2.5" fill="#a855f7"/><text x="42" y="308" font-size="11" fill="#9fb0d4">19/06 15:39</text><text x="938" y="308" text-anchor="end" font-size="11" fill="#9fb0d4">18/07 21:29</text></svg>