<svg xmlns="http://www.w3.org/2000/svg" viewBox="0 0 960 320" width="960" height="320" font-family="Segoe UI, system-ui, -apple-system, Roboto, Helvetica, Arial, sans-serif" role="img" aria-label="Availability history per region"><rect x="0.5" y="0.5" width="959" height="319" rx="14" fill="#0d1117" stroke="#2c3a5e"/><text x="42" y="26" font-size="14" font-weight="600" fill="#e6ecff">History · 102 points</text><circle cx="47" cy="40" r="5" fill="#22c55e"/><text x="57" y="44" font-size="12" fill="#9fb0d4">Available</text><circle cx="139.8" cy="40" r="5" fill="#f59e0b"/><text x="149.8" y="44" font-size="12" fill="#9fb0d4">Saturated</text><circle cx="232.60000000000002" cy="40" r="5" fill="#ef4444"/><text x="242.60000000000002" y="44" font-size="12" fill="#9fb0d4">Error</text><circle cx="296.6" cy="40" r="5" fill="#a855f7"/><text x="306.6" y="44" font-size="12" fill="#9fb0d4">Timeout</text><line x1="42" y1="286.0" x2="938" y2="286.0" stroke="#21304f" stroke-width="1"/><text x="35" y="289.0" text-anchor="end" font-size="11" fill="#9fb0d4">0</text><line x1="42" y1="227.5" x2="938" y2="227.5" stroke="#21304f" stroke-width="1"/><text x="35" y="230.5" text-anchor="end" font-size="11" fill="#9fb0d4">10</text><line x1="42" y1="169.0" x2="938" y2="169.0" stroke="#21304f" stroke-width="1"/><text x="35" y="172.0" text-anchor="end" font-size="11" fill="#9fb0d4">20</text><line x1="42" y1="110.5" x2="938" y2="110.5" stroke="#21304f" stroke-width="1"/><text x="35" y="113.5" text-anchor="end" font-size="11" fill="#9fb0d4">29</text><line x1="42" y1="52.0" x2="938" y2="52.0" stroke="#21304f" stroke-width="1"/><text x="35" y="55.0" text-anchor="end" font-size="11" fill="#9fb0d4">39</text><polyline fill="none" stroke="#22c55e" stroke-width="2.5" stroke-linejoin="round" stroke-linecap="round" points="42.0,70.0 50.9,70.0 59.7,88.0 68.6,88.0 77.5,76.0 86.4,76.0 95.2,76.0 104.1,70.0 113.0,76.0 121.8,70.0 130.7,64.0 139.6,58.0 148.5,58.0 157.3,58.0 166.2,58.0 175.1,58.0 183.9,58.0 192.8,58.0 201.7,58.0 210.6,58.0 219.4,58.0 228.3,58.0 237.2,58.0 246.0,58.0 254.9,58.0 263.8,58.0 272.7,58.0 281.5,58.0 290.4,58.0 299.3,58.0 308.1,58.0 317.0,70.0 325.9,76.0 334.8,94.0 343.6,64.0 352.5,64.0 361.4,58.0 370.2,58.0 379.1,58.0 388.0,70.0 396.9,76.0 405.7,76.0 414.6,82.0 423.5,82.0 432.3,82.0 441.2,82.0 450.1,76.0 459.0,64.0 467.8,70.0 476.7,70.0 485.6,82.0 494.4,76.0 503.3,76.0 512.2,82.0 521.0,76.0 529.9,76.0 538.8,76.0 547.7,64.0 556.5,64.0 565.4,76.0 574.3,76.0 583.1,76.0 592.0,88.0 600.9,70.0 609.8,64.0 618.6,58.0 627.5,58.0 636.4,70.0 645.2,70.0 654.1,70.0 663.0,76.0 671.9,70.0 680.7,70.0 689.6,70.0 698.5,70.0 707.3,76.0 716.2,82.0 725.1,76.0 734.0,70.0 742.8,70.0 751.7,70.0 760.6,70.0 769.4,76.0 778.3,70.0 787.2,70.0 796.1,70.0 804.9,70.0 813.8,70.0 822.7,70.0 831.5,70.0 840.4,70.0 849.3,70.0 858.2,70.0 867.0,70.0 875.9,70.0 884.8,70.0 893.6,70.0 902.5,70.0 911.4,70.0 920.3,70.0 929.1,70.0 938.0,70.0"/><polyline fill="none" stroke="#f59e0b" stroke-width="2.5" stroke-linejoin="round" stroke-linecap="round" points="42.0,274.0 50.9,274.0 59.7,274.0 68.6,280.0 77.5,268.0 86.4,268.0 95.2,268.0 104.1,274.0 113.0,274.0 121.8,274.0 130.7,280.0 139.6,286.0 148.5,286.0 157.3,286.0 166.2,286.0 175.1,286.0 183.9,286.0 192.8,286.0 201.7,286.0 210.6,286.0 219.4,286.0 228.3,286.0 237.2,286.0 246.0,286.0 254.9,286.0 263.8,286.0 272.7,286.0 281.5,286.0 290.4,286.0 299.3,286.0 308.1,286.0 317.0,274.0 325.9,280.0 334.8,280.0 343.6,280.0 352.5,280.0 361.4,286.0 370.2,286.0 379.1,286.0 388.0,274.0 396.9,268.0 405.7,268.0 414.6,262.0 423.5,262.0 432.3,262.0 441.2,262.0 450.1,268.0 459.0,280.0 467.8,280.0 476.7,274.0 485.6,262.0 494.4,268.0 503.3,268.0 512.2,262.0 521.0,268.0 529.9,268.0 538.8,268.0 547.7,280.0 556.5,280.0 565.4,268.0 574.3,268.0 583.1,268.0 592.0,262.0 600.9,274.0 609.8,280.0 618.6,286.0 627.5,286.0 636.4,274.0 645.2,274.0 654.1,274.0 663.0,274.0 671.9,274.0 680.7,274.0 689.6,274.0 698.5,274.0 707.3,280.0 716.2,274.0 725.1,280.0 734.0,286.0 742.8,286.0 751.7,286.0 760.6,286.0 769.4,280.0 778.3,286.0 787.2,286.0 796.1,286.0 804.9,286.0 813.8,286.0 822.7,286.0 831.5,286.0 840.4,286.0 849.3,286.0 858.2,286.0 867.0,286.0 875.9,286.0 884.8,286.0 893.6,286.0 902.5,286.0 911.4,286.0 920.3,286.0 929.1,286.0 938.0,286.0"/><polyline fill="none" stroke="#ef4444" stroke-width="2.5" stroke-linejoin="round" stroke-linecap="round" points="42.0,280.0 50.9,280.0 59.7,268.0 68.6,262.0 77.5,286.0 86.4,286.0 95.2,286.0 104.1,286.0 113.0,280.0 121.8,286.0 130.7,286.0 139.6,286.0 148.5,286.0 157.3,286.0 166.2,286.0 175.1,286.0 183.9,286.0 192.8,286.0 201.7,286.0 210.6,286.0 219.4,286.0 228.3,286.0 237.2,286.0 246.0,286.0 254.9,286.0 263.8,286.0 272.7,286.0 281.5,286.0 290.4,286.0 299.3,286.0 308.1,286.0 317.0,286.0 325.9,274.0 334.8,256.0 343.6,286.0 352.5,286.0 361.4,286.0 370.2,286.0 379.1,286.0 388.0,286.0 396.9,286.0 405.7,286.0 414.6,286.0 423.5,286.0 432.3,286.0 441.2,286.0 450.1,286.0 459.0,286.0 467.8,280.0 476.7,286.0 485.6,286.0 494.4,286.0 503.3,286.0 512.2,286.0 521.0,286.0 529.9,286.0 538.8,286.0 547.7,286.0 556.5,286.0 565.4,286.0 574.3,286.0 583.1,286.0 592.0,280.0 600.9,286.0 609.8,286.0 618.6,286.0 627.5,286.0 636.4,286.0 645.2,286.0 654.1,286.0 663.0,286.0 671.9,286.0 680.7,286.0 689.6,286.0 698.5,286.0 707.3,274.0 716.2,274.0 725.1,274.0 734.0,274.0 742.8,274.0 751.7,274.0 760.6,274.0 769.4,274.0 778.3,274.0 787.2,274.0 796.1,274.0 804.9,274.0 813.8,274.0 822.7,274.0 831.5,274.0 840.4,274.0 849.3,274.0 858.2,274.0 867.0,274.0 875.9,274.0 884.8,274.0 893.6,274.0 902.5,274.0 911.4,274.0 920.3,274.0 929.1,274.0 938.0,274.0"/><polyline fill="none" stroke="#a855f7" stroke-width="2.5" stroke-linejoin="round" stroke-linecap="round" points="42.0,286.0 50.9,286.0 59.7,286.0 68.6,286.0 77.5,286.0 86.4,286.0 95.2,286.0 104.1,286.0 113.0,286.0 121.8,286.0 130.7,286.0 139.6,286.0 148.5,286.0 157.3,286.0 166.2,286.0 175.1,286.0 183.9,286.0 192.8,286.0 201.7,286.0 210.6,286.0 219.4,286.0 228.3,286.0 237.2,286.0 246.0,286.0 254.9,286.0 263.8,286.0 272.7,286.0 281.5,286.0 290.4,286.0 299.3,286.0 308.1,286.0 317.0,286.0 325.9,286.0 334.8,286.0 343.6,286.0 352.5,286.0 361.4,286.0 370.2,286.0 379.1,286.0 388.0,286.0 396.9,286.0 405.7,286.0 414.6,286.0 423.5,286.0 432.3,286.0 441.2,286.0 450.1,286.0 459.0,286.0 467.8,286.0 476.7,286.0 485.6,286.0 494.4,286.0 503.3,286.0 512.2,286.0 521.0,286.0 529.9,286.0 538.8,286.0 547.7,286.0 556.5,286.0 565.4,286.0 574.3,286.0 583.1,286.0 592.0,286.0 600.9,286.0 609.8,286.0 618.6,286.0 627.5,286.0 636.4,286.0 645.2,286.0 654.1,286.0 663.0,280.0 671.9,286.0 680.7,286.0 689.6,286.0 698.5,286.0 707.3,286.0 716.2,286.0 725.1,286.0 734.0,286.0 742.8,286.0 751.7,286.0 760.6,286.0 769.4,286.0 778.3,286.0 787.2,286.0 796.1,286.0 804.9,286.0 813.8,286.0 822.7,286.0 831.5,286.0 840.4,286.0 849.3,286.0 858.2,286.0 867.0,286.0 875.9,286.0 884.8,286.0 893.6,286.0 902.5,286.0 911.4,286.0 920.3,286.0 929.1,286.0 938.0,286.0"/><text x="42" y="308" font-size="11" fill="#9fb0d4">19/06 12:43</text><text x="938" y="308" text-anchor="end" font-size="11" fill="#9fb0d4">27/06 15:30</text></svg>