<svg xmlns="http://www.w3.org/2000/svg" viewBox="0 0 960 320" width="960" height="320" font-family="Segoe UI, system-ui, -apple-system, Roboto, Helvetica, Arial, sans-serif" role="img" aria-label="Availability history per region"><rect x="0.5" y="0.5" width="959" height="319" rx="14" fill="#ffffff" stroke="#dce3f1"/><text x="42" y="26" font-size="14" font-weight="600" fill="#14203a">History · 64 points</text><circle cx="47" cy="40" r="5" fill="#22c55e"/><text x="57" y="44" font-size="12" fill="#5a688a">Available</text><circle cx="139.8" cy="40" r="5" fill="#f59e0b"/><text x="149.8" y="44" font-size="12" fill="#5a688a">Saturated</text><circle cx="232.60000000000002" cy="40" r="5" fill="#ef4444"/><text x="242.60000000000002" y="44" font-size="12" fill="#5a688a">Error</text><circle cx="296.6" cy="40" r="5" fill="#a855f7"/><text x="306.6" y="44" font-size="12" fill="#5a688a">Timeout</text><line x1="42" y1="286.0" x2="938" y2="286.0" stroke="#eef2f7" stroke-width="1"/><text x="35" y="289.0" text-anchor="end" font-size="11" fill="#5a688a">0</text><line x1="42" y1="227.5" x2="938" y2="227.5" stroke="#eef2f7" stroke-width="1"/><text x="35" y="230.5" text-anchor="end" font-size="11" fill="#5a688a">10</text><line x1="42" y1="169.0" x2="938" y2="169.0" stroke="#eef2f7" stroke-width="1"/><text x="35" y="172.0" text-anchor="end" font-size="11" fill="#5a688a">19</text><line x1="42" y1="110.5" x2="938" y2="110.5" stroke="#eef2f7" stroke-width="1"/><text x="35" y="113.5" text-anchor="end" font-size="11" fill="#5a688a">28</text><line x1="42" y1="52.0" x2="938" y2="52.0" stroke="#eef2f7" stroke-width="1"/><text x="35" y="55.0" text-anchor="end" font-size="11" fill="#5a688a">38</text><polyline fill="none" stroke="#22c55e" stroke-width="2.5" stroke-linejoin="round" stroke-linecap="round" points="42.0,64.3 56.2,224.4 70.4,82.8 84.7,88.9 98.9,82.8 113.1,76.6 127.3,76.6 141.6,76.6 155.8,76.6 170.0,76.6 184.2,76.6 198.4,76.6 212.7,76.6 226.9,76.6 241.1,76.6 255.3,70.5 269.6,70.5 283.8,82.8 298.0,82.8 312.2,82.8 326.4,88.9 340.7,88.9 354.9,88.9 369.1,88.9 383.3,88.9 397.6,88.9 411.8,88.9 426.0,88.9 440.2,88.9 454.4,82.8 468.7,82.8 482.9,82.8 497.1,82.8 511.3,76.6 525.6,76.6 539.8,76.6 554.0,76.6 568.2,76.6 582.4,82.8 596.7,82.8 610.9,82.8 625.1,82.8 639.3,76.6 653.6,76.6 667.8,76.6 682.0,76.6 696.2,76.6 710.4,76.6 724.7,76.6 738.9,82.8 753.1,82.8 767.3,82.8 781.6,82.8 795.8,76.6 810.0,76.6 824.2,76.6 838.4,76.6 852.7,76.6 866.9,76.6 881.1,76.6 895.3,76.6 909.6,82.8 923.8,76.6 938.0,76.6"/><polyline fill="none" stroke="#f59e0b" stroke-width="2.5" stroke-linejoin="round" stroke-linecap="round" points="42.0,273.7 56.2,267.5 70.4,255.2 84.7,249.1 98.9,255.2 113.1,261.4 127.3,261.4 141.6,261.4 155.8,261.4 170.0,261.4 184.2,261.4 198.4,261.4 212.7,261.4 226.9,261.4 241.1,261.4 255.3,267.5 269.6,267.5 283.8,261.4 298.0,255.2 312.2,255.2 326.4,249.1 340.7,249.1 354.9,249.1 369.1,249.1 383.3,249.1 397.6,249.1 411.8,249.1 426.0,249.1 440.2,249.1 454.4,255.2 468.7,255.2 482.9,255.2 497.1,255.2 511.3,261.4 525.6,261.4 539.8,261.4 554.0,261.4 568.2,261.4 582.4,255.2 596.7,255.2 610.9,255.2 625.1,255.2 639.3,261.4 653.6,261.4 667.8,261.4 682.0,261.4 696.2,261.4 710.4,261.4 724.7,261.4 738.9,255.2 753.1,255.2 767.3,255.2 781.6,261.4 795.8,261.4 810.0,261.4 824.2,261.4 838.4,261.4 852.7,261.4 866.9,261.4 881.1,261.4 895.3,261.4 909.6,255.2 923.8,261.4 938.0,261.4"/><polyline fill="none" stroke="#ef4444" stroke-width="2.5" stroke-linejoin="round" stroke-linecap="round" points="42.0,286.0 56.2,132.1 70.4,286.0 84.7,286.0 98.9,286.0 113.1,286.0 127.3,286.0 141.6,286.0 155.8,286.0 170.0,286.0 184.2,286.0 198.4,286.0 212.7,286.0 226.9,286.0 241.1,286.0 255.3,286.0 269.6,286.0 283.8,279.8 298.0,286.0 312.2,286.0 326.4,286.0 340.7,286.0 354.9,286.0 369.1,286.0 383.3,286.0 397.6,286.0 411.8,286.0 426.0,286.0 440.2,286.0 454.4,286.0 468.7,286.0 482.9,286.0 497.1,286.0 511.3,286.0 525.6,286.0 539.8,286.0 554.0,286.0 568.2,286.0 582.4,286.0 596.7,286.0 610.9,286.0 625.1,286.0 639.3,286.0 653.6,286.0 667.8,286.0 682.0,286.0 696.2,286.0 710.4,286.0 724.7,286.0 738.9,286.0 753.1,286.0 767.3,286.0 781.6,286.0 795.8,286.0 810.0,286.0 824.2,286.0 838.4,286.0 852.7,286.0 866.9,286.0 881.1,286.0 895.3,286.0 909.6,286.0 923.8,286.0 938.0,286.0"/><polyline fill="none" stroke="#a855f7" stroke-width="2.5" stroke-linejoin="round" stroke-linecap="round" points="42.0,286.0 56.2,286.0 70.4,286.0 84.7,286.0 98.9,286.0 113.1,286.0 127.3,286.0 141.6,286.0 155.8,286.0 170.0,286.0 184.2,286.0 198.4,286.0 212.7,286.0 226.9,286.0 241.1,286.0 255.3,286.0 269.6,286.0 283.8,286.0 298.0,286.0 312.2,286.0 326.4,286.0 340.7,286.0 354.9,286.0 369.1,286.0 383.3,286.0 397.6,286.0 411.8,286.0 426.0,286.0 440.2,286.0 454.4,286.0 468.7,286.0 482.9,286.0 497.1,286.0 511.3,286.0 525.6,286.0 539.8,286.0 554.0,286.0 568.2,286.0 582.4,286.0 596.7,286.0 610.9,286.0 625.1,286.0 639.3,286.0 653.6,286.0 667.8,286.0 682.0,286.0 696.2,286.0 710.4,286.0 724.7,286.0 738.9,286.0 753.1,286.0 767.3,286.0 781.6,279.8 795.8,286.0 810.0,286.0 824.2,286.0 838.4,286.0 852.7,286.0 866.9,286.0 881.1,286.0 895.3,286.0 909.6,286.0 923.8,286.0 938.0,286.0"/><text x="42" y="308" font-size="11" fill="#5a688a">19/06 15:39</text><text x="938" y="308" text-anchor="end" font-size="11" fill="#5a688a">19/07 05:29</text></svg>