<svg xmlns="http://www.w3.org/2000/svg" viewBox="0 0 960 320" width="960" height="320" font-family="Segoe UI, system-ui, -apple-system, Roboto, Helvetica, Arial, sans-serif" role="img" aria-label="Availability history per region"><rect x="0.5" y="0.5" width="959" height="319" rx="14" fill="#ffffff" stroke="#dce3f1"/><text x="42" y="26" font-size="14" font-weight="600" fill="#14203a">History · 192 points</text><circle cx="47" cy="40" r="5" fill="#22c55e"/><text x="57" y="44" font-size="12" fill="#5a688a">Available</text><circle cx="139.8" cy="40" r="5" fill="#f59e0b"/><text x="149.8" y="44" font-size="12" fill="#5a688a">Saturated</text><circle cx="232.60000000000002" cy="40" r="5" fill="#ef4444"/><text x="242.60000000000002" y="44" font-size="12" fill="#5a688a">Error</text><circle cx="296.6" cy="40" r="5" fill="#a855f7"/><text x="306.6" y="44" font-size="12" fill="#5a688a">Timeout</text><line x1="42" y1="286.0" x2="938" y2="286.0" stroke="#eef2f7" stroke-width="1"/><text x="35" y="289.0" text-anchor="end" font-size="11" fill="#5a688a">0</text><line x1="42" y1="227.5" x2="938" y2="227.5" stroke="#eef2f7" stroke-width="1"/><text x="35" y="230.5" text-anchor="end" font-size="11" fill="#5a688a">10</text><line x1="42" y1="169.0" x2="938" y2="169.0" stroke="#eef2f7" stroke-width="1"/><text x="35" y="172.0" text-anchor="end" font-size="11" fill="#5a688a">21</text><line x1="42" y1="110.5" x2="938" y2="110.5" stroke="#eef2f7" stroke-width="1"/><text x="35" y="113.5" text-anchor="end" font-size="11" fill="#5a688a">32</text><line x1="42" y1="52.0" x2="938" y2="52.0" stroke="#eef2f7" stroke-width="1"/><text x="35" y="55.0" text-anchor="end" font-size="11" fill="#5a688a">42</text><polyline fill="none" stroke="#22c55e" stroke-width="2.5" stroke-linejoin="round" stroke-linecap="round" points="42.0,85.4 46.7,230.3 51.4,102.1 56.1,107.7 60.8,102.1 65.5,96.6 70.1,96.6 74.8,96.6 79.5,96.6 84.2,96.6 88.9,96.6 93.6,96.6 98.3,96.6 103.0,96.6 107.7,96.6 112.4,91.0 117.1,91.0 121.7,102.1 126.4,102.1 131.1,102.1 135.8,107.7 140.5,107.7 145.2,107.7 149.9,107.7 154.6,107.7 159.3,107.7 164.0,107.7 168.7,107.7 173.4,107.7 178.0,102.1 182.7,102.1 187.4,102.1 192.1,102.1 196.8,96.6 201.5,96.6 206.2,96.6 210.9,96.6 215.6,96.6 220.3,102.1 225.0,102.1 229.6,102.1 234.3,102.1 239.0,96.6 243.7,96.6 248.4,96.6 253.1,96.6 257.8,96.6 262.5,96.6 267.2,96.6 271.9,102.1 276.6,102.1 281.2,102.1 285.9,102.1 290.6,96.6 295.3,96.6 300.0,96.6 304.7,96.6 309.4,96.6 314.1,96.6 318.8,96.6 323.5,96.6 328.2,102.1 332.8,96.6 337.5,96.6 342.2,96.6 346.9,96.6 351.6,96.6 356.3,102.1 361.0,96.6 365.7,96.6 370.4,96.6 375.1,96.6 379.8,96.6 384.5,96.6 389.1,96.6 393.8,96.6 398.5,96.6 403.2,91.0 407.9,91.0 412.6,91.0 417.3,91.0 422.0,96.6 426.7,91.0 431.4,96.6 436.1,96.6 440.7,96.6 445.4,96.6 450.1,96.6 454.8,96.6 459.5,102.1 464.2,107.7 468.9,107.7 473.6,107.7 478.3,107.7 483.0,107.7 487.7,107.7 492.3,107.7 497.0,113.3 501.7,107.7 506.4,107.7 511.1,107.7 515.8,107.7 520.5,107.7 525.2,107.7 529.9,102.1 534.6,102.1 539.3,102.1 543.9,102.1 548.6,102.1 553.3,102.1 558.0,102.1 562.7,102.1 567.4,107.7 572.1,107.7 576.8,107.7 581.5,107.7 586.2,107.7 590.9,107.7 595.5,107.7 600.2,107.7 604.9,113.3 609.6,107.7 614.3,107.7 619.0,107.7 623.7,118.9 628.4,107.7 633.1,107.7 637.8,107.7 642.5,107.7 647.2,102.1 651.8,102.1 656.5,102.1 661.2,102.1 665.9,107.7 670.6,102.1 675.3,107.7 680.0,107.7 684.7,107.7 689.4,107.7 694.1,113.3 698.8,107.7 703.4,107.7 708.1,107.7 712.8,107.7 717.5,107.7 722.2,107.7 726.9,107.7 731.6,107.7 736.3,113.3 741.0,102.1 745.7,102.1 750.4,102.1 755.0,102.1 759.7,102.1 764.4,102.1 769.1,102.1 773.8,102.1 778.5,102.1 783.2,102.1 787.9,107.7 792.6,102.1 797.3,102.1 802.0,102.1 806.6,102.1 811.3,102.1 816.0,102.1 820.7,102.1 825.4,102.1 830.1,107.7 834.8,91.0 839.5,85.4 844.2,79.9 848.9,79.9 853.6,79.9 858.3,79.9 862.9,79.9 867.6,79.9 872.3,79.9 877.0,91.0 881.7,96.6 886.4,91.0 891.1,91.0 895.8,91.0 900.5,91.0 905.2,91.0 909.9,91.0 914.5,91.0 919.2,79.9 923.9,79.9 928.6,79.9 933.3,79.9 938.0,85.4"/><polyline fill="none" stroke="#f59e0b" stroke-width="2.5" stroke-linejoin="round" stroke-linecap="round" points="42.0,274.9 46.7,269.3 51.4,258.1 56.1,252.6 60.8,258.1 65.5,263.7 70.1,263.7 74.8,263.7 79.5,263.7 84.2,263.7 88.9,263.7 93.6,263.7 98.3,263.7 103.0,263.7 107.7,263.7 112.4,269.3 117.1,269.3 121.7,263.7 126.4,258.1 131.1,258.1 135.8,252.6 140.5,252.6 145.2,252.6 149.9,252.6 154.6,252.6 159.3,252.6 164.0,252.6 168.7,252.6 173.4,252.6 178.0,258.1 182.7,258.1 187.4,258.1 192.1,258.1 196.8,263.7 201.5,263.7 206.2,263.7 210.9,263.7 215.6,263.7 220.3,258.1 225.0,258.1 229.6,258.1 234.3,258.1 239.0,263.7 243.7,263.7 248.4,263.7 253.1,263.7 257.8,263.7 262.5,263.7 267.2,263.7 271.9,258.1 276.6,258.1 281.2,258.1 285.9,263.7 290.6,263.7 295.3,263.7 300.0,263.7 304.7,263.7 309.4,263.7 314.1,263.7 318.8,263.7 323.5,263.7 328.2,258.1 332.8,263.7 337.5,263.7 342.2,263.7 346.9,263.7 351.6,263.7 356.3,263.7 361.0,263.7 365.7,263.7 370.4,263.7 375.1,263.7 379.8,263.7 384.5,263.7 389.1,263.7 393.8,263.7 398.5,263.7 403.2,269.3 407.9,269.3 412.6,269.3 417.3,269.3 422.0,269.3 426.7,269.3 431.4,263.7 436.1,263.7 440.7,263.7 445.4,263.7 450.1,263.7 454.8,263.7 459.5,258.1 464.2,252.6 468.9,252.6 473.6,258.1 478.3,252.6 483.0,252.6 487.7,252.6 492.3,252.6 497.0,252.6 501.7,252.6 506.4,258.1 511.1,252.6 515.8,252.6 520.5,252.6 525.2,252.6 529.9,258.1 534.6,258.1 539.3,258.1 543.9,258.1 548.6,258.1 553.3,258.1 558.0,258.1 562.7,258.1 567.4,252.6 572.1,252.6 576.8,252.6 581.5,252.6 586.2,252.6 590.9,252.6 595.5,252.6 600.2,258.1 604.9,252.6 609.6,252.6 614.3,252.6 619.0,252.6 623.7,252.6 628.4,252.6 633.1,252.6 637.8,258.1 642.5,258.1 647.2,258.1 651.8,258.1 656.5,258.1 661.2,258.1 665.9,258.1 670.6,258.1 675.3,252.6 680.0,252.6 684.7,252.6 689.4,252.6 694.1,252.6 698.8,252.6 703.4,252.6 708.1,252.6 712.8,252.6 717.5,252.6 722.2,252.6 726.9,252.6 731.6,252.6 736.3,252.6 741.0,258.1 745.7,258.1 750.4,258.1 755.0,258.1 759.7,258.1 764.4,263.7 769.1,263.7 773.8,258.1 778.5,258.1 783.2,258.1 787.9,258.1 792.6,258.1 797.3,258.1 802.0,258.1 806.6,258.1 811.3,258.1 816.0,258.1 820.7,258.1 825.4,258.1 830.1,258.1 834.8,258.1 839.5,258.1 844.2,258.1 848.9,258.1 853.6,258.1 858.3,258.1 862.9,258.1 867.6,258.1 872.3,258.1 877.0,258.1 881.7,258.1 886.4,258.1 891.1,258.1 895.8,258.1 900.5,258.1 905.2,258.1 909.9,258.1 914.5,258.1 919.2,258.1 923.9,258.1 928.6,258.1 933.3,258.1 938.0,258.1"/><polyline fill="none" stroke="#ef4444" stroke-width="2.5" stroke-linejoin="round" stroke-linecap="round" points="42.0,286.0 46.7,146.7 51.4,286.0 56.1,286.0 60.8,286.0 65.5,286.0 70.1,286.0 74.8,286.0 79.5,286.0 84.2,286.0 88.9,286.0 93.6,286.0 98.3,286.0 103.0,286.0 107.7,286.0 112.4,286.0 117.1,286.0 121.7,280.4 126.4,286.0 131.1,286.0 135.8,286.0 140.5,286.0 145.2,286.0 149.9,286.0 154.6,286.0 159.3,286.0 164.0,286.0 168.7,286.0 173.4,286.0 178.0,286.0 182.7,286.0 187.4,286.0 192.1,286.0 196.8,286.0 201.5,286.0 206.2,286.0 210.9,286.0 215.6,286.0 220.3,286.0 225.0,286.0 229.6,286.0 234.3,286.0 239.0,286.0 243.7,286.0 248.4,286.0 253.1,286.0 257.8,286.0 262.5,286.0 267.2,286.0 271.9,286.0 276.6,286.0 281.2,286.0 285.9,286.0 290.6,286.0 295.3,286.0 300.0,286.0 304.7,286.0 309.4,286.0 314.1,286.0 318.8,286.0 323.5,286.0 328.2,286.0 332.8,286.0 337.5,286.0 342.2,286.0 346.9,286.0 351.6,286.0 356.3,280.4 361.0,286.0 365.7,286.0 370.4,286.0 375.1,286.0 379.8,286.0 384.5,286.0 389.1,286.0 393.8,286.0 398.5,286.0 403.2,286.0 407.9,286.0 412.6,286.0 417.3,286.0 422.0,280.4 426.7,286.0 431.4,286.0 436.1,286.0 440.7,286.0 445.4,286.0 450.1,286.0 454.8,286.0 459.5,286.0 464.2,286.0 468.9,286.0 473.6,280.4 478.3,286.0 483.0,286.0 487.7,286.0 492.3,286.0 497.0,280.4 501.7,286.0 506.4,286.0 511.1,286.0 515.8,286.0 520.5,286.0 525.2,286.0 529.9,286.0 534.6,286.0 539.3,286.0 543.9,286.0 548.6,286.0 553.3,286.0 558.0,286.0 562.7,286.0 567.4,286.0 572.1,286.0 576.8,286.0 581.5,286.0 586.2,286.0 590.9,286.0 595.5,286.0 600.2,286.0 604.9,280.4 609.6,286.0 614.3,286.0 619.0,286.0 623.7,274.9 628.4,286.0 633.1,286.0 637.8,280.4 642.5,280.4 647.2,286.0 651.8,286.0 656.5,286.0 661.2,286.0 665.9,280.4 670.6,286.0 675.3,286.0 680.0,286.0 684.7,286.0 689.4,286.0 694.1,286.0 698.8,286.0 703.4,286.0 708.1,286.0 712.8,286.0 717.5,286.0 722.2,286.0 726.9,286.0 731.6,286.0 736.3,286.0 741.0,286.0 745.7,286.0 750.4,286.0 755.0,286.0 759.7,286.0 764.4,280.4 769.1,286.0 773.8,286.0 778.5,286.0 783.2,263.7 787.9,280.4 792.6,286.0 797.3,286.0 802.0,286.0 806.6,286.0 811.3,286.0 816.0,286.0 820.7,286.0 825.4,286.0 830.1,258.1 834.8,274.9 839.5,280.4 844.2,286.0 848.9,286.0 853.6,286.0 858.3,286.0 862.9,286.0 867.6,286.0 872.3,286.0 877.0,274.9 881.7,269.3 886.4,274.9 891.1,274.9 895.8,274.9 900.5,274.9 905.2,274.9 909.9,274.9 914.5,274.9 919.2,286.0 923.9,286.0 928.6,286.0 933.3,286.0 938.0,280.4"/><polyline fill="none" stroke="#a855f7" stroke-width="2.5" stroke-linejoin="round" stroke-linecap="round" points="42.0,286.0 46.7,286.0 51.4,286.0 56.1,286.0 60.8,286.0 65.5,286.0 70.1,286.0 74.8,286.0 79.5,286.0 84.2,286.0 88.9,286.0 93.6,286.0 98.3,286.0 103.0,286.0 107.7,286.0 112.4,286.0 117.1,286.0 121.7,286.0 126.4,286.0 131.1,286.0 135.8,286.0 140.5,286.0 145.2,286.0 149.9,286.0 154.6,286.0 159.3,286.0 164.0,286.0 168.7,286.0 173.4,286.0 178.0,286.0 182.7,286.0 187.4,286.0 192.1,286.0 196.8,286.0 201.5,286.0 206.2,286.0 210.9,286.0 215.6,286.0 220.3,286.0 225.0,286.0 229.6,286.0 234.3,286.0 239.0,286.0 243.7,286.0 248.4,286.0 253.1,286.0 257.8,286.0 262.5,286.0 267.2,286.0 271.9,286.0 276.6,286.0 281.2,286.0 285.9,280.4 290.6,286.0 295.3,286.0 300.0,286.0 304.7,286.0 309.4,286.0 314.1,286.0 318.8,286.0 323.5,286.0 328.2,286.0 332.8,286.0 337.5,286.0 342.2,286.0 346.9,286.0 351.6,286.0 356.3,286.0 361.0,286.0 365.7,286.0 370.4,286.0 375.1,286.0 379.8,286.0 384.5,286.0 389.1,286.0 393.8,286.0 398.5,286.0 403.2,286.0 407.9,286.0 412.6,286.0 417.3,286.0 422.0,286.0 426.7,286.0 431.4,286.0 436.1,286.0 440.7,286.0 445.4,286.0 450.1,286.0 454.8,286.0 459.5,286.0 464.2,286.0 468.9,286.0 473.6,286.0 478.3,286.0 483.0,286.0 487.7,286.0 492.3,286.0 497.0,286.0 501.7,286.0 506.4,280.4 511.1,286.0 515.8,286.0 520.5,286.0 525.2,286.0 529.9,286.0 534.6,286.0 539.3,286.0 543.9,286.0 548.6,286.0 553.3,286.0 558.0,286.0 562.7,286.0 567.4,286.0 572.1,286.0 576.8,286.0 581.5,286.0 586.2,286.0 590.9,286.0 595.5,286.0 600.2,280.4 604.9,286.0 609.6,286.0 614.3,286.0 619.0,286.0 623.7,286.0 628.4,286.0 633.1,286.0 637.8,286.0 642.5,286.0 647.2,286.0 651.8,286.0 656.5,286.0 661.2,286.0 665.9,286.0 670.6,286.0 675.3,286.0 680.0,286.0 684.7,286.0 689.4,286.0 694.1,280.4 698.8,286.0 703.4,286.0 708.1,286.0 712.8,286.0 717.5,286.0 722.2,286.0 726.9,286.0 731.6,286.0 736.3,280.4 741.0,286.0 745.7,286.0 750.4,286.0 755.0,286.0 759.7,286.0 764.4,286.0 769.1,280.4 773.8,286.0 778.5,286.0 783.2,286.0 787.9,286.0 792.6,286.0 797.3,286.0 802.0,286.0 806.6,286.0 811.3,286.0 816.0,286.0 820.7,286.0 825.4,286.0 830.1,286.0 834.8,286.0 839.5,286.0 844.2,286.0 848.9,286.0 853.6,286.0 858.3,286.0 862.9,286.0 867.6,286.0 872.3,286.0 877.0,286.0 881.7,286.0 886.4,286.0 891.1,286.0 895.8,286.0 900.5,286.0 905.2,286.0 909.9,286.0 914.5,286.0 919.2,286.0 923.9,286.0 928.6,286.0 933.3,286.0 938.0,286.0"/><text x="42" y="308" font-size="11" fill="#5a688a">19/06 15:39</text><text x="938" y="308" text-anchor="end" font-size="11" fill="#5a688a">24/07 14:31</text></svg>