<svg xmlns="http://www.w3.org/2000/svg" viewBox="0 0 960 320" width="960" height="320" font-family="Segoe UI, system-ui, -apple-system, Roboto, Helvetica, Arial, sans-serif" role="img" aria-label="Availability history per region"><rect x="0.5" y="0.5" width="959" height="319" rx="14" fill="#ffffff" stroke="#dce3f1"/><text x="42" y="26" font-size="14" font-weight="600" fill="#14203a">History · 94 points</text><circle cx="47" cy="40" r="5" fill="#22c55e"/><text x="57" y="44" font-size="12" fill="#5a688a">Available</text><circle cx="139.8" cy="40" r="5" fill="#f59e0b"/><text x="149.8" y="44" font-size="12" fill="#5a688a">Saturated</text><circle cx="232.60000000000002" cy="40" r="5" fill="#ef4444"/><text x="242.60000000000002" y="44" font-size="12" fill="#5a688a">Error</text><circle cx="296.6" cy="40" r="5" fill="#a855f7"/><text x="306.6" y="44" font-size="12" fill="#5a688a">Timeout</text><line x1="42" y1="286.0" x2="938" y2="286.0" stroke="#eef2f7" stroke-width="1"/><text x="35" y="289.0" text-anchor="end" font-size="11" fill="#5a688a">0</text><line x1="42" y1="227.5" x2="938" y2="227.5" stroke="#eef2f7" stroke-width="1"/><text x="35" y="230.5" text-anchor="end" font-size="11" fill="#5a688a">10</text><line x1="42" y1="169.0" x2="938" y2="169.0" stroke="#eef2f7" stroke-width="1"/><text x="35" y="172.0" text-anchor="end" font-size="11" fill="#5a688a">20</text><line x1="42" y1="110.5" x2="938" y2="110.5" stroke="#eef2f7" stroke-width="1"/><text x="35" y="113.5" text-anchor="end" font-size="11" fill="#5a688a">29</text><line x1="42" y1="52.0" x2="938" y2="52.0" stroke="#eef2f7" stroke-width="1"/><text x="35" y="55.0" text-anchor="end" font-size="11" fill="#5a688a">39</text><polyline fill="none" stroke="#22c55e" stroke-width="2.5" stroke-linejoin="round" stroke-linecap="round" points="42.0,70.0 51.6,70.0 61.3,88.0 70.9,88.0 80.5,76.0 90.2,76.0 99.8,76.0 109.4,70.0 119.1,76.0 128.7,70.0 138.3,64.0 148.0,58.0 157.6,58.0 167.2,58.0 176.9,58.0 186.5,58.0 196.2,58.0 205.8,58.0 215.4,58.0 225.1,58.0 234.7,58.0 244.3,58.0 254.0,58.0 263.6,58.0 273.2,58.0 282.9,58.0 292.5,58.0 302.1,58.0 311.8,58.0 321.4,58.0 331.0,58.0 340.7,70.0 350.3,76.0 359.9,94.0 369.6,64.0 379.2,64.0 388.8,58.0 398.5,58.0 408.1,58.0 417.7,70.0 427.4,76.0 437.0,76.0 446.6,82.0 456.3,82.0 465.9,82.0 475.5,82.0 485.2,76.0 494.8,64.0 504.5,70.0 514.1,70.0 523.7,82.0 533.4,76.0 543.0,76.0 552.6,82.0 562.3,76.0 571.9,76.0 581.5,76.0 591.2,64.0 600.8,64.0 610.4,76.0 620.1,76.0 629.7,76.0 639.3,88.0 649.0,70.0 658.6,64.0 668.2,58.0 677.9,58.0 687.5,70.0 697.1,70.0 706.8,70.0 716.4,76.0 726.0,70.0 735.7,70.0 745.3,70.0 754.9,70.0 764.6,76.0 774.2,82.0 783.8,76.0 793.5,70.0 803.1,70.0 812.8,70.0 822.4,70.0 832.0,76.0 841.7,70.0 851.3,70.0 860.9,70.0 870.6,70.0 880.2,70.0 889.8,70.0 899.5,70.0 909.1,70.0 918.7,70.0 928.4,70.0 938.0,70.0"/><polyline fill="none" stroke="#f59e0b" stroke-width="2.5" stroke-linejoin="round" stroke-linecap="round" points="42.0,274.0 51.6,274.0 61.3,274.0 70.9,280.0 80.5,268.0 90.2,268.0 99.8,268.0 109.4,274.0 119.1,274.0 128.7,274.0 138.3,280.0 148.0,286.0 157.6,286.0 167.2,286.0 176.9,286.0 186.5,286.0 196.2,286.0 205.8,286.0 215.4,286.0 225.1,286.0 234.7,286.0 244.3,286.0 254.0,286.0 263.6,286.0 273.2,286.0 282.9,286.0 292.5,286.0 302.1,286.0 311.8,286.0 321.4,286.0 331.0,286.0 340.7,274.0 350.3,280.0 359.9,280.0 369.6,280.0 379.2,280.0 388.8,286.0 398.5,286.0 408.1,286.0 417.7,274.0 427.4,268.0 437.0,268.0 446.6,262.0 456.3,262.0 465.9,262.0 475.5,262.0 485.2,268.0 494.8,280.0 504.5,280.0 514.1,274.0 523.7,262.0 533.4,268.0 543.0,268.0 552.6,262.0 562.3,268.0 571.9,268.0 581.5,268.0 591.2,280.0 600.8,280.0 610.4,268.0 620.1,268.0 629.7,268.0 639.3,262.0 649.0,274.0 658.6,280.0 668.2,286.0 677.9,286.0 687.5,274.0 697.1,274.0 706.8,274.0 716.4,274.0 726.0,274.0 735.7,274.0 745.3,274.0 754.9,274.0 764.6,280.0 774.2,274.0 783.8,280.0 793.5,286.0 803.1,286.0 812.8,286.0 822.4,286.0 832.0,280.0 841.7,286.0 851.3,286.0 860.9,286.0 870.6,286.0 880.2,286.0 889.8,286.0 899.5,286.0 909.1,286.0 918.7,286.0 928.4,286.0 938.0,286.0"/><polyline fill="none" stroke="#ef4444" stroke-width="2.5" stroke-linejoin="round" stroke-linecap="round" points="42.0,280.0 51.6,280.0 61.3,268.0 70.9,262.0 80.5,286.0 90.2,286.0 99.8,286.0 109.4,286.0 119.1,280.0 128.7,286.0 138.3,286.0 148.0,286.0 157.6,286.0 167.2,286.0 176.9,286.0 186.5,286.0 196.2,286.0 205.8,286.0 215.4,286.0 225.1,286.0 234.7,286.0 244.3,286.0 254.0,286.0 263.6,286.0 273.2,286.0 282.9,286.0 292.5,286.0 302.1,286.0 311.8,286.0 321.4,286.0 331.0,286.0 340.7,286.0 350.3,274.0 359.9,256.0 369.6,286.0 379.2,286.0 388.8,286.0 398.5,286.0 408.1,286.0 417.7,286.0 427.4,286.0 437.0,286.0 446.6,286.0 456.3,286.0 465.9,286.0 475.5,286.0 485.2,286.0 494.8,286.0 504.5,280.0 514.1,286.0 523.7,286.0 533.4,286.0 543.0,286.0 552.6,286.0 562.3,286.0 571.9,286.0 581.5,286.0 591.2,286.0 600.8,286.0 610.4,286.0 620.1,286.0 629.7,286.0 639.3,280.0 649.0,286.0 658.6,286.0 668.2,286.0 677.9,286.0 687.5,286.0 697.1,286.0 706.8,286.0 716.4,286.0 726.0,286.0 735.7,286.0 745.3,286.0 754.9,286.0 764.6,274.0 774.2,274.0 783.8,274.0 793.5,274.0 803.1,274.0 812.8,274.0 822.4,274.0 832.0,274.0 841.7,274.0 851.3,274.0 860.9,274.0 870.6,274.0 880.2,274.0 889.8,274.0 899.5,274.0 909.1,274.0 918.7,274.0 928.4,274.0 938.0,274.0"/><polyline fill="none" stroke="#a855f7" stroke-width="2.5" stroke-linejoin="round" stroke-linecap="round" points="42.0,286.0 51.6,286.0 61.3,286.0 70.9,286.0 80.5,286.0 90.2,286.0 99.8,286.0 109.4,286.0 119.1,286.0 128.7,286.0 138.3,286.0 148.0,286.0 157.6,286.0 167.2,286.0 176.9,286.0 186.5,286.0 196.2,286.0 205.8,286.0 215.4,286.0 225.1,286.0 234.7,286.0 244.3,286.0 254.0,286.0 263.6,286.0 273.2,286.0 282.9,286.0 292.5,286.0 302.1,286.0 311.8,286.0 321.4,286.0 331.0,286.0 340.7,286.0 350.3,286.0 359.9,286.0 369.6,286.0 379.2,286.0 388.8,286.0 398.5,286.0 408.1,286.0 417.7,286.0 427.4,286.0 437.0,286.0 446.6,286.0 456.3,286.0 465.9,286.0 475.5,286.0 485.2,286.0 494.8,286.0 504.5,286.0 514.1,286.0 523.7,286.0 533.4,286.0 543.0,286.0 552.6,286.0 562.3,286.0 571.9,286.0 581.5,286.0 591.2,286.0 600.8,286.0 610.4,286.0 620.1,286.0 629.7,286.0 639.3,286.0 649.0,286.0 658.6,286.0 668.2,286.0 677.9,286.0 687.5,286.0 697.1,286.0 706.8,286.0 716.4,280.0 726.0,286.0 735.7,286.0 745.3,286.0 754.9,286.0 764.6,286.0 774.2,286.0 783.8,286.0 793.5,286.0 803.1,286.0 812.8,286.0 822.4,286.0 832.0,286.0 841.7,286.0 851.3,286.0 860.9,286.0 870.6,286.0 880.2,286.0 889.8,286.0 899.5,286.0 909.1,286.0 918.7,286.0 928.4,286.0 938.0,286.0"/><text x="42" y="308" font-size="11" fill="#5a688a">19/06 12:43</text><text x="938" y="308" text-anchor="end" font-size="11" fill="#5a688a">27/06 09:29</text></svg>