<svg xmlns="http://www.w3.org/2000/svg" viewBox="0 0 960 320" width="960" height="320" font-family="Segoe UI, system-ui, -apple-system, Roboto, Helvetica, Arial, sans-serif" role="img" aria-label="Availability history per region"><rect x="0.5" y="0.5" width="959" height="319" rx="14" fill="#ffffff" stroke="#dce3f1"/><text x="42" y="26" font-size="14" font-weight="600" fill="#14203a">History · 66 points</text><circle cx="47" cy="40" r="5" fill="#22c55e"/><text x="57" y="44" font-size="12" fill="#5a688a">Available</text><circle cx="139.8" cy="40" r="5" fill="#f59e0b"/><text x="149.8" y="44" font-size="12" fill="#5a688a">Saturated</text><circle cx="232.60000000000002" cy="40" r="5" fill="#ef4444"/><text x="242.60000000000002" y="44" font-size="12" fill="#5a688a">Error</text><line x1="42" y1="286.0" x2="938" y2="286.0" stroke="#eef2f7" stroke-width="1"/><text x="35" y="289.0" text-anchor="end" font-size="11" fill="#5a688a">0</text><line x1="42" y1="227.5" x2="938" y2="227.5" stroke="#eef2f7" stroke-width="1"/><text x="35" y="230.5" text-anchor="end" font-size="11" fill="#5a688a">10</text><line x1="42" y1="169.0" x2="938" y2="169.0" stroke="#eef2f7" stroke-width="1"/><text x="35" y="172.0" text-anchor="end" font-size="11" fill="#5a688a">20</text><line x1="42" y1="110.5" x2="938" y2="110.5" stroke="#eef2f7" stroke-width="1"/><text x="35" y="113.5" text-anchor="end" font-size="11" fill="#5a688a">29</text><line x1="42" y1="52.0" x2="938" y2="52.0" stroke="#eef2f7" stroke-width="1"/><text x="35" y="55.0" text-anchor="end" font-size="11" fill="#5a688a">39</text><polyline fill="none" stroke="#22c55e" stroke-width="2.5" stroke-linejoin="round" stroke-linecap="round" points="42.0,70.0 55.8,70.0 69.6,88.0 83.4,88.0 97.1,76.0 110.9,76.0 124.7,76.0 138.5,70.0 152.3,76.0 166.1,70.0 179.8,64.0 193.6,58.0 207.4,58.0 221.2,58.0 235.0,58.0 248.8,58.0 262.6,58.0 276.3,58.0 290.1,58.0 303.9,58.0 317.7,58.0 331.5,58.0 345.3,58.0 359.0,58.0 372.8,58.0 386.6,58.0 400.4,58.0 414.2,58.0 428.0,58.0 441.8,58.0 455.5,58.0 469.3,70.0 483.1,76.0 496.9,94.0 510.7,64.0 524.5,64.0 538.2,58.0 552.0,58.0 565.8,58.0 579.6,70.0 593.4,76.0 607.2,76.0 621.0,82.0 634.7,82.0 648.5,82.0 662.3,82.0 676.1,76.0 689.9,64.0 703.7,70.0 717.4,70.0 731.2,82.0 745.0,76.0 758.8,76.0 772.6,82.0 786.4,76.0 800.2,76.0 813.9,76.0 827.7,64.0 841.5,64.0 855.3,76.0 869.1,76.0 882.9,76.0 896.6,88.0 910.4,70.0 924.2,64.0 938.0,58.0"/><polyline fill="none" stroke="#f59e0b" stroke-width="2.5" stroke-linejoin="round" stroke-linecap="round" points="42.0,274.0 55.8,274.0 69.6,274.0 83.4,280.0 97.1,268.0 110.9,268.0 124.7,268.0 138.5,274.0 152.3,274.0 166.1,274.0 179.8,280.0 193.6,286.0 207.4,286.0 221.2,286.0 235.0,286.0 248.8,286.0 262.6,286.0 276.3,286.0 290.1,286.0 303.9,286.0 317.7,286.0 331.5,286.0 345.3,286.0 359.0,286.0 372.8,286.0 386.6,286.0 400.4,286.0 414.2,286.0 428.0,286.0 441.8,286.0 455.5,286.0 469.3,274.0 483.1,280.0 496.9,280.0 510.7,280.0 524.5,280.0 538.2,286.0 552.0,286.0 565.8,286.0 579.6,274.0 593.4,268.0 607.2,268.0 621.0,262.0 634.7,262.0 648.5,262.0 662.3,262.0 676.1,268.0 689.9,280.0 703.7,280.0 717.4,274.0 731.2,262.0 745.0,268.0 758.8,268.0 772.6,262.0 786.4,268.0 800.2,268.0 813.9,268.0 827.7,280.0 841.5,280.0 855.3,268.0 869.1,268.0 882.9,268.0 896.6,262.0 910.4,274.0 924.2,280.0 938.0,286.0"/><polyline fill="none" stroke="#ef4444" stroke-width="2.5" stroke-linejoin="round" stroke-linecap="round" points="42.0,280.0 55.8,280.0 69.6,268.0 83.4,262.0 97.1,286.0 110.9,286.0 124.7,286.0 138.5,286.0 152.3,280.0 166.1,286.0 179.8,286.0 193.6,286.0 207.4,286.0 221.2,286.0 235.0,286.0 248.8,286.0 262.6,286.0 276.3,286.0 290.1,286.0 303.9,286.0 317.7,286.0 331.5,286.0 345.3,286.0 359.0,286.0 372.8,286.0 386.6,286.0 400.4,286.0 414.2,286.0 428.0,286.0 441.8,286.0 455.5,286.0 469.3,286.0 483.1,274.0 496.9,256.0 510.7,286.0 524.5,286.0 538.2,286.0 552.0,286.0 565.8,286.0 579.6,286.0 593.4,286.0 607.2,286.0 621.0,286.0 634.7,286.0 648.5,286.0 662.3,286.0 676.1,286.0 689.9,286.0 703.7,280.0 717.4,286.0 731.2,286.0 745.0,286.0 758.8,286.0 772.6,286.0 786.4,286.0 800.2,286.0 813.9,286.0 827.7,286.0 841.5,286.0 855.3,286.0 869.1,286.0 882.9,286.0 896.6,280.0 910.4,286.0 924.2,286.0 938.0,286.0"/><text x="42" y="308" font-size="11" fill="#5a688a">19/06 12:43</text><text x="938" y="308" text-anchor="end" font-size="11" fill="#5a688a">26/06 01:42</text></svg>