<svg xmlns="http://www.w3.org/2000/svg" viewBox="0 0 960 320" width="960" height="320" font-family="Segoe UI, system-ui, -apple-system, Roboto, Helvetica, Arial, sans-serif" role="img" aria-label="Availability history per region"><rect x="0.5" y="0.5" width="959" height="319" rx="14" fill="#ffffff" stroke="#dce3f1"/><text x="42" y="26" font-size="14" font-weight="600" fill="#14203a">History · 123 points</text><circle cx="47" cy="40" r="5" fill="#22c55e"/><text x="57" y="44" font-size="12" fill="#5a688a">Available</text><circle cx="139.8" cy="40" r="5" fill="#f59e0b"/><text x="149.8" y="44" font-size="12" fill="#5a688a">Saturated</text><circle cx="232.60000000000002" cy="40" r="5" fill="#ef4444"/><text x="242.60000000000002" y="44" font-size="12" fill="#5a688a">Error</text><circle cx="296.6" cy="40" r="5" fill="#a855f7"/><text x="306.6" y="44" font-size="12" fill="#5a688a">Timeout</text><line x1="42" y1="286.0" x2="938" y2="286.0" stroke="#eef2f7" stroke-width="1"/><text x="35" y="289.0" text-anchor="end" font-size="11" fill="#5a688a">0</text><line x1="42" y1="227.5" x2="938" y2="227.5" stroke="#eef2f7" stroke-width="1"/><text x="35" y="230.5" text-anchor="end" font-size="11" fill="#5a688a">10</text><line x1="42" y1="169.0" x2="938" y2="169.0" stroke="#eef2f7" stroke-width="1"/><text x="35" y="172.0" text-anchor="end" font-size="11" fill="#5a688a">19</text><line x1="42" y1="110.5" x2="938" y2="110.5" stroke="#eef2f7" stroke-width="1"/><text x="35" y="113.5" text-anchor="end" font-size="11" fill="#5a688a">28</text><line x1="42" y1="52.0" x2="938" y2="52.0" stroke="#eef2f7" stroke-width="1"/><text x="35" y="55.0" text-anchor="end" font-size="11" fill="#5a688a">38</text><polyline fill="none" stroke="#22c55e" stroke-width="2.5" stroke-linejoin="round" stroke-linecap="round" points="42.0,64.3 49.3,224.4 56.7,82.8 64.0,88.9 71.4,82.8 78.7,76.6 86.1,76.6 93.4,76.6 100.8,76.6 108.1,76.6 115.4,76.6 122.8,76.6 130.1,76.6 137.5,76.6 144.8,76.6 152.2,70.5 159.5,70.5 166.9,82.8 174.2,82.8 181.5,82.8 188.9,88.9 196.2,88.9 203.6,88.9 210.9,88.9 218.3,88.9 225.6,88.9 233.0,88.9 240.3,88.9 247.6,88.9 255.0,82.8 262.3,82.8 269.7,82.8 277.0,82.8 284.4,76.6 291.7,76.6 299.0,76.6 306.4,76.6 313.7,76.6 321.1,82.8 328.4,82.8 335.8,82.8 343.1,82.8 350.5,76.6 357.8,76.6 365.1,76.6 372.5,76.6 379.8,76.6 387.2,76.6 394.5,76.6 401.9,82.8 409.2,82.8 416.6,82.8 423.9,82.8 431.2,76.6 438.6,76.6 445.9,76.6 453.3,76.6 460.6,76.6 468.0,76.6 475.3,76.6 482.7,76.6 490.0,82.8 497.3,76.6 504.7,76.6 512.0,76.6 519.4,76.6 526.7,76.6 534.1,82.8 541.4,76.6 548.8,76.6 556.1,76.6 563.4,76.6 570.8,76.6 578.1,76.6 585.5,76.6 592.8,76.6 600.2,76.6 607.5,70.5 614.9,70.5 622.2,70.5 629.5,70.5 636.9,76.6 644.2,70.5 651.6,76.6 658.9,76.6 666.3,76.6 673.6,76.6 681.0,76.6 688.3,76.6 695.6,82.8 703.0,88.9 710.3,88.9 717.7,88.9 725.0,88.9 732.4,88.9 739.7,88.9 747.0,88.9 754.4,95.1 761.7,88.9 769.1,88.9 776.4,88.9 783.8,88.9 791.1,88.9 798.5,88.9 805.8,82.8 813.1,82.8 820.5,82.8 827.8,82.8 835.2,82.8 842.5,82.8 849.9,82.8 857.2,82.8 864.6,88.9 871.9,88.9 879.2,88.9 886.6,88.9 893.9,88.9 901.3,88.9 908.6,88.9 916.0,88.9 923.3,95.1 930.7,88.9 938.0,88.9"/><polyline fill="none" stroke="#f59e0b" stroke-width="2.5" stroke-linejoin="round" stroke-linecap="round" points="42.0,273.7 49.3,267.5 56.7,255.2 64.0,249.1 71.4,255.2 78.7,261.4 86.1,261.4 93.4,261.4 100.8,261.4 108.1,261.4 115.4,261.4 122.8,261.4 130.1,261.4 137.5,261.4 144.8,261.4 152.2,267.5 159.5,267.5 166.9,261.4 174.2,255.2 181.5,255.2 188.9,249.1 196.2,249.1 203.6,249.1 210.9,249.1 218.3,249.1 225.6,249.1 233.0,249.1 240.3,249.1 247.6,249.1 255.0,255.2 262.3,255.2 269.7,255.2 277.0,255.2 284.4,261.4 291.7,261.4 299.0,261.4 306.4,261.4 313.7,261.4 321.1,255.2 328.4,255.2 335.8,255.2 343.1,255.2 350.5,261.4 357.8,261.4 365.1,261.4 372.5,261.4 379.8,261.4 387.2,261.4 394.5,261.4 401.9,255.2 409.2,255.2 416.6,255.2 423.9,261.4 431.2,261.4 438.6,261.4 445.9,261.4 453.3,261.4 460.6,261.4 468.0,261.4 475.3,261.4 482.7,261.4 490.0,255.2 497.3,261.4 504.7,261.4 512.0,261.4 519.4,261.4 526.7,261.4 534.1,261.4 541.4,261.4 548.8,261.4 556.1,261.4 563.4,261.4 570.8,261.4 578.1,261.4 585.5,261.4 592.8,261.4 600.2,261.4 607.5,267.5 614.9,267.5 622.2,267.5 629.5,267.5 636.9,267.5 644.2,267.5 651.6,261.4 658.9,261.4 666.3,261.4 673.6,261.4 681.0,261.4 688.3,261.4 695.6,255.2 703.0,249.1 710.3,249.1 717.7,255.2 725.0,249.1 732.4,249.1 739.7,249.1 747.0,249.1 754.4,249.1 761.7,249.1 769.1,255.2 776.4,249.1 783.8,249.1 791.1,249.1 798.5,249.1 805.8,255.2 813.1,255.2 820.5,255.2 827.8,255.2 835.2,255.2 842.5,255.2 849.9,255.2 857.2,255.2 864.6,249.1 871.9,249.1 879.2,249.1 886.6,249.1 893.9,249.1 901.3,249.1 908.6,249.1 916.0,255.2 923.3,249.1 930.7,249.1 938.0,249.1"/><polyline fill="none" stroke="#ef4444" stroke-width="2.5" stroke-linejoin="round" stroke-linecap="round" points="42.0,286.0 49.3,132.1 56.7,286.0 64.0,286.0 71.4,286.0 78.7,286.0 86.1,286.0 93.4,286.0 100.8,286.0 108.1,286.0 115.4,286.0 122.8,286.0 130.1,286.0 137.5,286.0 144.8,286.0 152.2,286.0 159.5,286.0 166.9,279.8 174.2,286.0 181.5,286.0 188.9,286.0 196.2,286.0 203.6,286.0 210.9,286.0 218.3,286.0 225.6,286.0 233.0,286.0 240.3,286.0 247.6,286.0 255.0,286.0 262.3,286.0 269.7,286.0 277.0,286.0 284.4,286.0 291.7,286.0 299.0,286.0 306.4,286.0 313.7,286.0 321.1,286.0 328.4,286.0 335.8,286.0 343.1,286.0 350.5,286.0 357.8,286.0 365.1,286.0 372.5,286.0 379.8,286.0 387.2,286.0 394.5,286.0 401.9,286.0 409.2,286.0 416.6,286.0 423.9,286.0 431.2,286.0 438.6,286.0 445.9,286.0 453.3,286.0 460.6,286.0 468.0,286.0 475.3,286.0 482.7,286.0 490.0,286.0 497.3,286.0 504.7,286.0 512.0,286.0 519.4,286.0 526.7,286.0 534.1,279.8 541.4,286.0 548.8,286.0 556.1,286.0 563.4,286.0 570.8,286.0 578.1,286.0 585.5,286.0 592.8,286.0 600.2,286.0 607.5,286.0 614.9,286.0 622.2,286.0 629.5,286.0 636.9,279.8 644.2,286.0 651.6,286.0 658.9,286.0 666.3,286.0 673.6,286.0 681.0,286.0 688.3,286.0 695.6,286.0 703.0,286.0 710.3,286.0 717.7,279.8 725.0,286.0 732.4,286.0 739.7,286.0 747.0,286.0 754.4,279.8 761.7,286.0 769.1,286.0 776.4,286.0 783.8,286.0 791.1,286.0 798.5,286.0 805.8,286.0 813.1,286.0 820.5,286.0 827.8,286.0 835.2,286.0 842.5,286.0 849.9,286.0 857.2,286.0 864.6,286.0 871.9,286.0 879.2,286.0 886.6,286.0 893.9,286.0 901.3,286.0 908.6,286.0 916.0,286.0 923.3,279.8 930.7,286.0 938.0,286.0"/><polyline fill="none" stroke="#a855f7" stroke-width="2.5" stroke-linejoin="round" stroke-linecap="round" points="42.0,286.0 49.3,286.0 56.7,286.0 64.0,286.0 71.4,286.0 78.7,286.0 86.1,286.0 93.4,286.0 100.8,286.0 108.1,286.0 115.4,286.0 122.8,286.0 130.1,286.0 137.5,286.0 144.8,286.0 152.2,286.0 159.5,286.0 166.9,286.0 174.2,286.0 181.5,286.0 188.9,286.0 196.2,286.0 203.6,286.0 210.9,286.0 218.3,286.0 225.6,286.0 233.0,286.0 240.3,286.0 247.6,286.0 255.0,286.0 262.3,286.0 269.7,286.0 277.0,286.0 284.4,286.0 291.7,286.0 299.0,286.0 306.4,286.0 313.7,286.0 321.1,286.0 328.4,286.0 335.8,286.0 343.1,286.0 350.5,286.0 357.8,286.0 365.1,286.0 372.5,286.0 379.8,286.0 387.2,286.0 394.5,286.0 401.9,286.0 409.2,286.0 416.6,286.0 423.9,279.8 431.2,286.0 438.6,286.0 445.9,286.0 453.3,286.0 460.6,286.0 468.0,286.0 475.3,286.0 482.7,286.0 490.0,286.0 497.3,286.0 504.7,286.0 512.0,286.0 519.4,286.0 526.7,286.0 534.1,286.0 541.4,286.0 548.8,286.0 556.1,286.0 563.4,286.0 570.8,286.0 578.1,286.0 585.5,286.0 592.8,286.0 600.2,286.0 607.5,286.0 614.9,286.0 622.2,286.0 629.5,286.0 636.9,286.0 644.2,286.0 651.6,286.0 658.9,286.0 666.3,286.0 673.6,286.0 681.0,286.0 688.3,286.0 695.6,286.0 703.0,286.0 710.3,286.0 717.7,286.0 725.0,286.0 732.4,286.0 739.7,286.0 747.0,286.0 754.4,286.0 761.7,286.0 769.1,279.8 776.4,286.0 783.8,286.0 791.1,286.0 798.5,286.0 805.8,286.0 813.1,286.0 820.5,286.0 827.8,286.0 835.2,286.0 842.5,286.0 849.9,286.0 857.2,286.0 864.6,286.0 871.9,286.0 879.2,286.0 886.6,286.0 893.9,286.0 901.3,286.0 908.6,286.0 916.0,279.8 923.3,286.0 930.7,286.0 938.0,286.0"/><text x="42" y="308" font-size="11" fill="#5a688a">19/06 15:39</text><text x="938" y="308" text-anchor="end" font-size="11" fill="#5a688a">21/07 17:43</text></svg>