<svg xmlns="http://www.w3.org/2000/svg" viewBox="0 0 960 320" width="960" height="320" font-family="Segoe UI, system-ui, -apple-system, Roboto, Helvetica, Arial, sans-serif" role="img" aria-label="Availability history per region"><rect x="0.5" y="0.5" width="959" height="319" rx="14" fill="#ffffff" stroke="#dce3f1"/><text x="42" y="26" font-size="14" font-weight="600" fill="#14203a">History · 128 points</text><circle cx="47" cy="40" r="5" fill="#22c55e"/><text x="57" y="44" font-size="12" fill="#5a688a">Available</text><circle cx="139.8" cy="40" r="5" fill="#f59e0b"/><text x="149.8" y="44" font-size="12" fill="#5a688a">Saturated</text><circle cx="232.60000000000002" cy="40" r="5" fill="#ef4444"/><text x="242.60000000000002" y="44" font-size="12" fill="#5a688a">Error</text><circle cx="296.6" cy="40" r="5" fill="#a855f7"/><text x="306.6" y="44" font-size="12" fill="#5a688a">Timeout</text><line x1="42" y1="286.0" x2="938" y2="286.0" stroke="#eef2f7" stroke-width="1"/><text x="35" y="289.0" text-anchor="end" font-size="11" fill="#5a688a">0</text><line x1="42" y1="227.5" x2="938" y2="227.5" stroke="#eef2f7" stroke-width="1"/><text x="35" y="230.5" text-anchor="end" font-size="11" fill="#5a688a">10</text><line x1="42" y1="169.0" x2="938" y2="169.0" stroke="#eef2f7" stroke-width="1"/><text x="35" y="172.0" text-anchor="end" font-size="11" fill="#5a688a">20</text><line x1="42" y1="110.5" x2="938" y2="110.5" stroke="#eef2f7" stroke-width="1"/><text x="35" y="113.5" text-anchor="end" font-size="11" fill="#5a688a">29</text><line x1="42" y1="52.0" x2="938" y2="52.0" stroke="#eef2f7" stroke-width="1"/><text x="35" y="55.0" text-anchor="end" font-size="11" fill="#5a688a">39</text><polyline fill="none" stroke="#22c55e" stroke-width="2.5" stroke-linejoin="round" stroke-linecap="round" points="42.0,70.0 49.1,70.0 56.1,88.0 63.2,88.0 70.2,76.0 77.3,76.0 84.3,76.0 91.4,70.0 98.4,76.0 105.5,70.0 112.6,64.0 119.6,58.0 126.7,58.0 133.7,58.0 140.8,58.0 147.8,58.0 154.9,58.0 161.9,58.0 169.0,58.0 176.0,58.0 183.1,58.0 190.2,58.0 197.2,58.0 204.3,58.0 211.3,58.0 218.4,58.0 225.4,58.0 232.5,58.0 239.5,58.0 246.6,58.0 253.7,58.0 260.7,70.0 267.8,76.0 274.8,94.0 281.9,64.0 288.9,64.0 296.0,58.0 303.0,58.0 310.1,58.0 317.1,70.0 324.2,76.0 331.3,76.0 338.3,82.0 345.4,82.0 352.4,82.0 359.5,82.0 366.5,76.0 373.6,64.0 380.6,70.0 387.7,70.0 394.8,82.0 401.8,76.0 408.9,76.0 415.9,82.0 423.0,76.0 430.0,76.0 437.1,76.0 444.1,64.0 451.2,64.0 458.3,76.0 465.3,76.0 472.4,76.0 479.4,88.0 486.5,70.0 493.5,64.0 500.6,58.0 507.6,58.0 514.7,70.0 521.7,70.0 528.8,70.0 535.9,76.0 542.9,70.0 550.0,70.0 557.0,70.0 564.1,70.0 571.1,76.0 578.2,82.0 585.2,76.0 592.3,70.0 599.4,70.0 606.4,70.0 613.5,70.0 620.5,76.0 627.6,70.0 634.6,70.0 641.7,70.0 648.7,70.0 655.8,70.0 662.9,70.0 669.9,70.0 677.0,70.0 684.0,70.0 691.1,70.0 698.1,70.0 705.2,70.0 712.2,70.0 719.3,70.0 726.3,70.0 733.4,70.0 740.5,70.0 747.5,70.0 754.6,70.0 761.6,70.0 768.7,70.0 775.7,70.0 782.8,70.0 789.8,70.0 796.9,70.0 804.0,70.0 811.0,70.0 818.1,70.0 825.1,70.0 832.2,70.0 839.2,70.0 846.3,70.0 853.3,70.0 860.4,70.0 867.4,70.0 874.5,70.0 881.6,70.0 888.6,70.0 895.7,70.0 902.7,70.0 909.8,70.0 916.8,70.0 923.9,70.0 930.9,70.0 938.0,70.0"/><polyline fill="none" stroke="#f59e0b" stroke-width="2.5" stroke-linejoin="round" stroke-linecap="round" points="42.0,274.0 49.1,274.0 56.1,274.0 63.2,280.0 70.2,268.0 77.3,268.0 84.3,268.0 91.4,274.0 98.4,274.0 105.5,274.0 112.6,280.0 119.6,286.0 126.7,286.0 133.7,286.0 140.8,286.0 147.8,286.0 154.9,286.0 161.9,286.0 169.0,286.0 176.0,286.0 183.1,286.0 190.2,286.0 197.2,286.0 204.3,286.0 211.3,286.0 218.4,286.0 225.4,286.0 232.5,286.0 239.5,286.0 246.6,286.0 253.7,286.0 260.7,274.0 267.8,280.0 274.8,280.0 281.9,280.0 288.9,280.0 296.0,286.0 303.0,286.0 310.1,286.0 317.1,274.0 324.2,268.0 331.3,268.0 338.3,262.0 345.4,262.0 352.4,262.0 359.5,262.0 366.5,268.0 373.6,280.0 380.6,280.0 387.7,274.0 394.8,262.0 401.8,268.0 408.9,268.0 415.9,262.0 423.0,268.0 430.0,268.0 437.1,268.0 444.1,280.0 451.2,280.0 458.3,268.0 465.3,268.0 472.4,268.0 479.4,262.0 486.5,274.0 493.5,280.0 500.6,286.0 507.6,286.0 514.7,274.0 521.7,274.0 528.8,274.0 535.9,274.0 542.9,274.0 550.0,274.0 557.0,274.0 564.1,274.0 571.1,280.0 578.2,274.0 585.2,280.0 592.3,286.0 599.4,286.0 606.4,286.0 613.5,286.0 620.5,280.0 627.6,286.0 634.6,286.0 641.7,286.0 648.7,286.0 655.8,286.0 662.9,286.0 669.9,286.0 677.0,286.0 684.0,286.0 691.1,286.0 698.1,286.0 705.2,286.0 712.2,286.0 719.3,286.0 726.3,286.0 733.4,286.0 740.5,286.0 747.5,286.0 754.6,286.0 761.6,286.0 768.7,286.0 775.7,286.0 782.8,286.0 789.8,286.0 796.9,286.0 804.0,286.0 811.0,286.0 818.1,286.0 825.1,286.0 832.2,286.0 839.2,286.0 846.3,286.0 853.3,286.0 860.4,286.0 867.4,286.0 874.5,286.0 881.6,286.0 888.6,286.0 895.7,286.0 902.7,286.0 909.8,286.0 916.8,286.0 923.9,286.0 930.9,286.0 938.0,286.0"/><polyline fill="none" stroke="#ef4444" stroke-width="2.5" stroke-linejoin="round" stroke-linecap="round" points="42.0,280.0 49.1,280.0 56.1,268.0 63.2,262.0 70.2,286.0 77.3,286.0 84.3,286.0 91.4,286.0 98.4,280.0 105.5,286.0 112.6,286.0 119.6,286.0 126.7,286.0 133.7,286.0 140.8,286.0 147.8,286.0 154.9,286.0 161.9,286.0 169.0,286.0 176.0,286.0 183.1,286.0 190.2,286.0 197.2,286.0 204.3,286.0 211.3,286.0 218.4,286.0 225.4,286.0 232.5,286.0 239.5,286.0 246.6,286.0 253.7,286.0 260.7,286.0 267.8,274.0 274.8,256.0 281.9,286.0 288.9,286.0 296.0,286.0 303.0,286.0 310.1,286.0 317.1,286.0 324.2,286.0 331.3,286.0 338.3,286.0 345.4,286.0 352.4,286.0 359.5,286.0 366.5,286.0 373.6,286.0 380.6,280.0 387.7,286.0 394.8,286.0 401.8,286.0 408.9,286.0 415.9,286.0 423.0,286.0 430.0,286.0 437.1,286.0 444.1,286.0 451.2,286.0 458.3,286.0 465.3,286.0 472.4,286.0 479.4,280.0 486.5,286.0 493.5,286.0 500.6,286.0 507.6,286.0 514.7,286.0 521.7,286.0 528.8,286.0 535.9,286.0 542.9,286.0 550.0,286.0 557.0,286.0 564.1,286.0 571.1,274.0 578.2,274.0 585.2,274.0 592.3,274.0 599.4,274.0 606.4,274.0 613.5,274.0 620.5,274.0 627.6,274.0 634.6,274.0 641.7,274.0 648.7,274.0 655.8,274.0 662.9,274.0 669.9,274.0 677.0,274.0 684.0,274.0 691.1,274.0 698.1,274.0 705.2,274.0 712.2,274.0 719.3,274.0 726.3,274.0 733.4,274.0 740.5,274.0 747.5,274.0 754.6,274.0 761.6,274.0 768.7,274.0 775.7,274.0 782.8,274.0 789.8,274.0 796.9,274.0 804.0,274.0 811.0,274.0 818.1,274.0 825.1,274.0 832.2,274.0 839.2,274.0 846.3,274.0 853.3,274.0 860.4,274.0 867.4,274.0 874.5,274.0 881.6,274.0 888.6,274.0 895.7,274.0 902.7,274.0 909.8,274.0 916.8,274.0 923.9,274.0 930.9,274.0 938.0,274.0"/><polyline fill="none" stroke="#a855f7" stroke-width="2.5" stroke-linejoin="round" stroke-linecap="round" points="42.0,286.0 49.1,286.0 56.1,286.0 63.2,286.0 70.2,286.0 77.3,286.0 84.3,286.0 91.4,286.0 98.4,286.0 105.5,286.0 112.6,286.0 119.6,286.0 126.7,286.0 133.7,286.0 140.8,286.0 147.8,286.0 154.9,286.0 161.9,286.0 169.0,286.0 176.0,286.0 183.1,286.0 190.2,286.0 197.2,286.0 204.3,286.0 211.3,286.0 218.4,286.0 225.4,286.0 232.5,286.0 239.5,286.0 246.6,286.0 253.7,286.0 260.7,286.0 267.8,286.0 274.8,286.0 281.9,286.0 288.9,286.0 296.0,286.0 303.0,286.0 310.1,286.0 317.1,286.0 324.2,286.0 331.3,286.0 338.3,286.0 345.4,286.0 352.4,286.0 359.5,286.0 366.5,286.0 373.6,286.0 380.6,286.0 387.7,286.0 394.8,286.0 401.8,286.0 408.9,286.0 415.9,286.0 423.0,286.0 430.0,286.0 437.1,286.0 444.1,286.0 451.2,286.0 458.3,286.0 465.3,286.0 472.4,286.0 479.4,286.0 486.5,286.0 493.5,286.0 500.6,286.0 507.6,286.0 514.7,286.0 521.7,286.0 528.8,286.0 535.9,280.0 542.9,286.0 550.0,286.0 557.0,286.0 564.1,286.0 571.1,286.0 578.2,286.0 585.2,286.0 592.3,286.0 599.4,286.0 606.4,286.0 613.5,286.0 620.5,286.0 627.6,286.0 634.6,286.0 641.7,286.0 648.7,286.0 655.8,286.0 662.9,286.0 669.9,286.0 677.0,286.0 684.0,286.0 691.1,286.0 698.1,286.0 705.2,286.0 712.2,286.0 719.3,286.0 726.3,286.0 733.4,286.0 740.5,286.0 747.5,286.0 754.6,286.0 761.6,286.0 768.7,286.0 775.7,286.0 782.8,286.0 789.8,286.0 796.9,286.0 804.0,286.0 811.0,286.0 818.1,286.0 825.1,286.0 832.2,286.0 839.2,286.0 846.3,286.0 853.3,286.0 860.4,286.0 867.4,286.0 874.5,286.0 881.6,286.0 888.6,286.0 895.7,286.0 902.7,286.0 909.8,286.0 916.8,286.0 923.9,286.0 930.9,286.0 938.0,286.0"/><text x="42" y="308" font-size="11" fill="#5a688a">19/06 12:43</text><text x="938" y="308" text-anchor="end" font-size="11" fill="#5a688a">28/06 10:30</text></svg>