<svg xmlns="http://www.w3.org/2000/svg" viewBox="0 0 960 320" width="960" height="320" font-family="Segoe UI, system-ui, -apple-system, Roboto, Helvetica, Arial, sans-serif" role="img" aria-label="Availability history per region"><rect x="0.5" y="0.5" width="959" height="319" rx="14" fill="#ffffff" stroke="#dce3f1"/><text x="42" y="26" font-size="14" font-weight="600" fill="#14203a">History · 336 points</text><circle cx="47" cy="40" r="5" fill="#22c55e"/><text x="57" y="44" font-size="12" fill="#5a688a">Available</text><circle cx="139.8" cy="40" r="5" fill="#f59e0b"/><text x="149.8" y="44" font-size="12" fill="#5a688a">Saturated</text><circle cx="232.60000000000002" cy="40" r="5" fill="#ef4444"/><text x="242.60000000000002" y="44" font-size="12" fill="#5a688a">Error</text><circle cx="296.6" cy="40" r="5" fill="#a855f7"/><text x="306.6" y="44" font-size="12" fill="#5a688a">Timeout</text><line x1="42" y1="286.0" x2="938" y2="286.0" stroke="#eef2f7" stroke-width="1"/><text x="35" y="289.0" text-anchor="end" font-size="11" fill="#5a688a">0</text><line x1="42" y1="227.5" x2="938" y2="227.5" stroke="#eef2f7" stroke-width="1"/><text x="35" y="230.5" text-anchor="end" font-size="11" fill="#5a688a">10</text><line x1="42" y1="169.0" x2="938" y2="169.0" stroke="#eef2f7" stroke-width="1"/><text x="35" y="172.0" text-anchor="end" font-size="11" fill="#5a688a">19</text><line x1="42" y1="110.5" x2="938" y2="110.5" stroke="#eef2f7" stroke-width="1"/><text x="35" y="113.5" text-anchor="end" font-size="11" fill="#5a688a">28</text><line x1="42" y1="52.0" x2="938" y2="52.0" stroke="#eef2f7" stroke-width="1"/><text x="35" y="55.0" text-anchor="end" font-size="11" fill="#5a688a">38</text><polyline fill="none" stroke="#22c55e" stroke-width="2.5" stroke-linejoin="round" stroke-linecap="round" points="42.0,64.3 44.7,64.3 47.3,64.3 50.0,64.3 52.7,64.3 55.4,64.3 58.0,64.3 60.7,64.3 63.4,64.3 66.1,64.3 68.7,64.3 71.4,64.3 74.1,64.3 76.8,64.3 79.4,64.3 82.1,64.3 84.8,64.3 87.5,64.3 90.1,64.3 92.8,64.3 95.5,70.5 98.2,64.3 100.8,64.3 103.5,64.3 106.2,64.3 108.9,64.3 111.5,70.5 114.2,70.5 116.9,82.8 119.6,82.8 122.2,82.8 124.9,88.9 127.6,88.9 130.3,88.9 132.9,88.9 135.6,82.8 138.3,82.8 141.0,76.6 143.6,76.6 146.3,76.6 149.0,82.8 151.7,82.8 154.3,88.9 157.0,76.6 159.7,76.6 162.4,76.6 165.0,76.6 167.7,82.8 170.4,82.8 173.1,88.9 175.7,88.9 178.4,82.8 181.1,82.8 183.8,82.8 186.4,88.9 189.1,88.9 191.8,101.3 194.5,88.9 197.1,88.9 199.8,88.9 202.5,88.9 205.2,82.8 207.8,82.8 210.5,76.6 213.2,70.5 215.9,70.5 218.5,70.5 221.2,70.5 223.9,70.5 226.5,70.5 229.2,64.3 231.9,64.3 234.6,64.3 237.2,70.5 239.9,82.8 242.6,76.6 245.3,64.3 247.9,64.3 250.6,64.3 253.3,70.5 256.0,70.5 258.6,70.5 261.3,76.6 264.0,64.3 266.7,70.5 269.3,58.2 272.0,64.3 274.7,52.0 277.4,52.0 280.0,52.0 282.7,52.0 285.4,52.0 288.1,58.2 290.7,52.0 293.4,58.2 296.1,52.0 298.8,52.0 301.4,52.0 304.1,52.0 306.8,58.2 309.5,58.2 312.1,58.2 314.8,70.5 317.5,64.3 320.2,76.6 322.8,64.3 325.5,70.5 328.2,52.0 330.9,58.2 333.5,52.0 336.2,58.2 338.9,52.0 341.6,52.0 344.2,52.0 346.9,58.2 349.6,64.3 352.3,58.2 354.9,58.2 357.6,58.2 360.3,64.3 363.0,64.3 365.6,58.2 368.3,64.3 371.0,64.3 373.7,64.3 376.3,52.0 379.0,52.0 381.7,52.0 384.4,52.0 387.0,52.0 389.7,58.2 392.4,52.0 395.1,52.0 397.7,52.0 400.4,52.0 403.1,52.0 405.7,52.0 408.4,52.0 411.1,52.0 413.8,58.2 416.4,52.0 419.1,52.0 421.8,52.0 424.5,52.0 427.1,52.0 429.8,52.0 432.5,52.0 435.2,58.2 437.8,52.0 440.5,52.0 443.2,52.0 445.9,52.0 448.5,52.0 451.2,52.0 453.9,52.0 456.6,52.0 459.2,52.0 461.9,52.0 464.6,52.0 467.3,52.0 469.9,52.0 472.6,52.0 475.3,52.0 478.0,52.0 480.6,52.0 483.3,52.0 486.0,52.0 488.7,58.2 491.3,58.2 494.0,52.0 496.7,52.0 499.4,52.0 502.0,58.2 504.7,58.2 507.4,70.5 510.1,58.2 512.7,58.2 515.4,64.3 518.1,52.0 520.8,52.0 523.4,52.0 526.1,52.0 528.8,52.0 531.5,52.0 534.1,64.3 536.8,58.2 539.5,58.2 542.2,58.2 544.8,58.2 547.5,64.3 550.2,64.3 552.9,70.5 555.5,70.5 558.2,76.6 560.9,82.8 563.6,76.6 566.2,76.6 568.9,82.8 571.6,76.6 574.3,70.5 576.9,70.5 579.6,64.3 582.3,58.2 584.9,58.2 587.6,70.5 590.3,70.5 593.0,64.3 595.6,70.5 598.3,64.3 601.0,64.3 603.7,64.3 606.3,76.6 609.0,64.3 611.7,70.5 614.4,64.3 617.0,70.5 619.7,64.3 622.4,70.5 625.1,64.3 627.7,64.3 630.4,76.6 633.1,70.5 635.8,70.5 638.4,70.5 641.1,70.5 643.8,70.5 646.5,64.3 649.1,70.5 651.8,64.3 654.5,64.3 657.2,64.3 659.8,70.5 662.5,70.5 665.2,70.5 667.9,64.3 670.5,64.3 673.2,64.3 675.9,64.3 678.6,70.5 681.2,70.5 683.9,70.5 686.6,76.6 689.3,70.5 691.9,76.6 694.6,76.6 697.3,76.6 700.0,82.8 702.6,76.6 705.3,76.6 708.0,76.6 710.7,70.5 713.3,70.5 716.0,70.5 718.7,70.5 721.4,70.5 724.0,64.3 726.7,64.3 729.4,64.3 732.1,70.5 734.7,76.6 737.4,64.3 740.1,64.3 742.8,64.3 745.4,70.5 748.1,70.5 750.8,70.5 753.5,76.6 756.1,76.6 758.8,76.6 761.5,82.8 764.1,88.9 766.8,82.8 769.5,82.8 772.2,76.6 774.8,70.5 777.5,76.6 780.2,82.8 782.9,76.6 785.5,70.5 788.2,70.5 790.9,64.3 793.6,64.3 796.2,64.3 798.9,64.3 801.6,64.3 804.3,64.3 806.9,64.3 809.6,64.3 812.3,64.3 815.0,64.3 817.6,64.3 820.3,64.3 823.0,64.3 825.7,58.2 828.3,70.5 831.0,64.3 833.7,58.2 836.4,64.3 839.0,64.3 841.7,64.3 844.4,64.3 847.1,64.3 849.7,58.2 852.4,58.2 855.1,58.2 857.8,58.2 860.4,58.2 863.1,64.3 865.8,58.2 868.5,58.2 871.1,58.2 873.8,58.2 876.5,58.2 879.2,58.2 881.8,64.3 884.5,64.3 887.2,58.2 889.9,58.2 892.5,58.2 895.2,64.3 897.9,58.2 900.6,58.2 903.2,58.2 905.9,58.2 908.6,58.2 911.3,58.2 913.9,58.2 916.6,58.2 919.3,58.2 922.0,58.2 924.6,58.2 927.3,58.2 930.0,58.2 932.7,64.3 935.3,70.5 938.0,70.5"/><polyline fill="none" stroke="#f59e0b" stroke-width="2.5" stroke-linejoin="round" stroke-linecap="round" points="42.0,286.0 44.7,286.0 47.3,286.0 50.0,286.0 52.7,286.0 55.4,286.0 58.0,286.0 60.7,286.0 63.4,286.0 66.1,286.0 68.7,286.0 71.4,286.0 74.1,286.0 76.8,286.0 79.4,286.0 82.1,286.0 84.8,286.0 87.5,286.0 90.1,286.0 92.8,286.0 95.5,286.0 98.2,286.0 100.8,286.0 103.5,286.0 106.2,286.0 108.9,286.0 111.5,286.0 114.2,279.8 116.9,267.5 119.6,267.5 122.2,267.5 124.9,267.5 127.6,261.4 130.3,261.4 132.9,261.4 135.6,267.5 138.3,267.5 141.0,273.7 143.6,273.7 146.3,273.7 149.0,267.5 151.7,267.5 154.3,267.5 157.0,273.7 159.7,273.7 162.4,273.7 165.0,273.7 167.7,267.5 170.4,267.5 173.1,261.4 175.7,261.4 178.4,267.5 181.1,267.5 183.8,267.5 186.4,261.4 189.1,261.4 191.8,273.7 194.5,261.4 197.1,261.4 199.8,261.4 202.5,261.4 205.2,267.5 207.8,267.5 210.5,273.7 213.2,279.8 215.9,279.8 218.5,279.8 221.2,279.8 223.9,279.8 226.5,279.8 229.2,286.0 231.9,286.0 234.6,286.0 237.2,279.8 239.9,273.7 242.6,273.7 245.3,279.8 247.9,273.7 250.6,273.7 253.3,267.5 256.0,267.5 258.6,267.5 261.3,267.5 264.0,279.8 266.7,273.7 269.3,279.8 272.0,279.8 274.7,286.0 277.4,286.0 280.0,286.0 282.7,286.0 285.4,286.0 288.1,286.0 290.7,286.0 293.4,286.0 296.1,286.0 298.8,286.0 301.4,286.0 304.1,286.0 306.8,279.8 309.5,279.8 312.1,279.8 314.8,267.5 317.5,279.8 320.2,267.5 322.8,273.7 325.5,273.7 328.2,286.0 330.9,279.8 333.5,286.0 336.2,279.8 338.9,286.0 341.6,286.0 344.2,286.0 346.9,279.8 349.6,273.7 352.3,279.8 354.9,279.8 357.6,279.8 360.3,273.7 363.0,273.7 365.6,279.8 368.3,279.8 371.0,279.8 373.7,279.8 376.3,286.0 379.0,286.0 381.7,286.0 384.4,286.0 387.0,286.0 389.7,286.0 392.4,286.0 395.1,286.0 397.7,286.0 400.4,286.0 403.1,286.0 405.7,286.0 408.4,286.0 411.1,286.0 413.8,286.0 416.4,286.0 419.1,286.0 421.8,286.0 424.5,286.0 427.1,286.0 429.8,286.0 432.5,286.0 435.2,286.0 437.8,286.0 440.5,286.0 443.2,286.0 445.9,286.0 448.5,286.0 451.2,286.0 453.9,286.0 456.6,286.0 459.2,286.0 461.9,286.0 464.6,286.0 467.3,286.0 469.9,286.0 472.6,286.0 475.3,286.0 478.0,286.0 480.6,286.0 483.3,286.0 486.0,286.0 488.7,286.0 491.3,286.0 494.0,286.0 496.7,286.0 499.4,286.0 502.0,279.8 504.7,279.8 507.4,279.8 510.1,279.8 512.7,279.8 515.4,273.7 518.1,286.0 520.8,286.0 523.4,286.0 526.1,286.0 528.8,286.0 531.5,286.0 534.1,286.0 536.8,279.8 539.5,279.8 542.2,279.8 544.8,279.8 547.5,273.7 550.2,273.7 552.9,267.5 555.5,267.5 558.2,261.4 560.9,261.4 563.6,261.4 566.2,261.4 568.9,261.4 571.6,267.5 574.3,267.5 576.9,267.5 579.6,273.7 582.3,279.8 584.9,279.8 587.6,267.5 590.3,267.5 593.0,273.7 595.6,267.5 598.3,273.7 601.0,273.7 603.7,273.7 606.3,273.7 609.0,273.7 611.7,267.5 614.4,273.7 617.0,267.5 619.7,273.7 622.4,267.5 625.1,273.7 627.7,273.7 630.4,261.4 633.1,267.5 635.8,267.5 638.4,267.5 641.1,267.5 643.8,267.5 646.5,273.7 649.1,267.5 651.8,273.7 654.5,273.7 657.2,273.7 659.8,267.5 662.5,267.5 665.2,267.5 667.9,273.7 670.5,273.7 673.2,273.7 675.9,273.7 678.6,267.5 681.2,267.5 683.9,267.5 686.6,267.5 689.3,267.5 691.9,261.4 694.6,261.4 697.3,261.4 700.0,261.4 702.6,261.4 705.3,261.4 708.0,261.4 710.7,267.5 713.3,267.5 716.0,267.5 718.7,267.5 721.4,267.5 724.0,273.7 726.7,273.7 729.4,273.7 732.1,267.5 734.7,267.5 737.4,273.7 740.1,273.7 742.8,273.7 745.4,267.5 748.1,267.5 750.8,267.5 753.5,261.4 756.1,261.4 758.8,261.4 761.5,255.2 764.1,255.2 766.8,255.2 769.5,261.4 772.2,261.4 774.8,267.5 777.5,261.4 780.2,261.4 782.9,261.4 785.5,267.5 788.2,267.5 790.9,273.7 793.6,273.7 796.2,273.7 798.9,273.7 801.6,273.7 804.3,273.7 806.9,273.7 809.6,273.7 812.3,273.7 815.0,273.7 817.6,273.7 820.3,273.7 823.0,273.7 825.7,279.8 828.3,273.7 831.0,273.7 833.7,279.8 836.4,273.7 839.0,273.7 841.7,273.7 844.4,273.7 847.1,273.7 849.7,279.8 852.4,279.8 855.1,279.8 857.8,279.8 860.4,279.8 863.1,273.7 865.8,279.8 868.5,279.8 871.1,279.8 873.8,279.8 876.5,279.8 879.2,279.8 881.8,273.7 884.5,273.7 887.2,279.8 889.9,279.8 892.5,279.8 895.2,279.8 897.9,279.8 900.6,279.8 903.2,279.8 905.9,279.8 908.6,279.8 911.3,279.8 913.9,279.8 916.6,279.8 919.3,279.8 922.0,279.8 924.6,279.8 927.3,279.8 930.0,279.8 932.7,273.7 935.3,273.7 938.0,267.5"/><polyline fill="none" stroke="#ef4444" stroke-width="2.5" stroke-linejoin="round" stroke-linecap="round" points="42.0,273.7 44.7,273.7 47.3,273.7 50.0,273.7 52.7,273.7 55.4,273.7 58.0,273.7 60.7,273.7 63.4,273.7 66.1,273.7 68.7,273.7 71.4,273.7 74.1,273.7 76.8,273.7 79.4,273.7 82.1,273.7 84.8,273.7 87.5,273.7 90.1,273.7 92.8,273.7 95.5,267.5 98.2,273.7 100.8,273.7 103.5,273.7 106.2,273.7 108.9,273.7 111.5,273.7 114.2,273.7 116.9,273.7 119.6,273.7 122.2,273.7 124.9,267.5 127.6,273.7 130.3,273.7 132.9,273.7 135.6,273.7 138.3,273.7 141.0,273.7 143.6,273.7 146.3,273.7 149.0,273.7 151.7,273.7 154.3,267.5 157.0,273.7 159.7,273.7 162.4,273.7 165.0,273.7 167.7,273.7 170.4,273.7 173.1,273.7 175.7,273.7 178.4,273.7 181.1,273.7 183.8,273.7 186.4,273.7 189.1,273.7 191.8,249.1 194.5,273.7 197.1,273.7 199.8,273.7 202.5,273.7 205.2,273.7 207.8,273.7 210.5,273.7 213.2,273.7 215.9,273.7 218.5,273.7 221.2,273.7 223.9,273.7 226.5,273.7 229.2,273.7 231.9,273.7 234.6,273.7 237.2,273.7 239.9,267.5 242.6,273.7 245.3,279.8 247.9,286.0 250.6,286.0 253.3,286.0 256.0,286.0 258.6,286.0 261.3,279.8 264.0,279.8 266.7,286.0 269.3,286.0 272.0,279.8 274.7,286.0 277.4,286.0 280.0,286.0 282.7,286.0 285.4,286.0 288.1,279.8 290.7,286.0 293.4,286.0 296.1,286.0 298.8,286.0 301.4,286.0 304.1,286.0 306.8,286.0 309.5,286.0 312.1,286.0 314.8,286.0 317.5,279.8 320.2,279.8 322.8,286.0 325.5,279.8 328.2,286.0 330.9,286.0 333.5,286.0 336.2,286.0 338.9,286.0 341.6,286.0 344.2,286.0 346.9,286.0 349.6,286.0 352.3,286.0 354.9,286.0 357.6,286.0 360.3,286.0 363.0,286.0 365.6,286.0 368.3,279.8 371.0,286.0 373.7,279.8 376.3,286.0 379.0,286.0 381.7,286.0 384.4,286.0 387.0,286.0 389.7,286.0 392.4,286.0 395.1,286.0 397.7,286.0 400.4,286.0 403.1,286.0 405.7,286.0 408.4,286.0 411.1,286.0 413.8,279.8 416.4,286.0 419.1,286.0 421.8,286.0 424.5,286.0 427.1,286.0 429.8,286.0 432.5,286.0 435.2,286.0 437.8,286.0 440.5,286.0 443.2,286.0 445.9,286.0 448.5,286.0 451.2,286.0 453.9,286.0 456.6,286.0 459.2,286.0 461.9,286.0 464.6,286.0 467.3,286.0 469.9,286.0 472.6,286.0 475.3,286.0 478.0,286.0 480.6,286.0 483.3,286.0 486.0,286.0 488.7,279.8 491.3,279.8 494.0,286.0 496.7,286.0 499.4,286.0 502.0,286.0 504.7,286.0 507.4,273.7 510.1,286.0 512.7,286.0 515.4,286.0 518.1,286.0 520.8,286.0 523.4,286.0 526.1,286.0 528.8,286.0 531.5,286.0 534.1,286.0 536.8,286.0 539.5,286.0 542.2,286.0 544.8,286.0 547.5,286.0 550.2,286.0 552.9,286.0 555.5,286.0 558.2,286.0 560.9,279.8 563.6,286.0 566.2,286.0 568.9,279.8 571.6,279.8 574.3,286.0 576.9,286.0 579.6,286.0 582.3,286.0 584.9,286.0 587.6,286.0 590.3,286.0 593.0,286.0 595.6,286.0 598.3,286.0 601.0,286.0 603.7,286.0 606.3,273.7 609.0,286.0 611.7,286.0 614.4,286.0 617.0,286.0 619.7,286.0 622.4,286.0 625.1,286.0 627.7,286.0 630.4,286.0 633.1,286.0 635.8,286.0 638.4,286.0 641.1,286.0 643.8,286.0 646.5,286.0 649.1,286.0 651.8,286.0 654.5,286.0 657.2,286.0 659.8,286.0 662.5,286.0 665.2,286.0 667.9,286.0 670.5,286.0 673.2,286.0 675.9,286.0 678.6,286.0 681.2,286.0 683.9,286.0 686.6,279.8 689.3,286.0 691.9,286.0 694.6,286.0 697.3,286.0 700.0,279.8 702.6,286.0 705.3,286.0 708.0,286.0 710.7,286.0 713.3,286.0 716.0,286.0 718.7,286.0 721.4,286.0 724.0,286.0 726.7,286.0 729.4,286.0 732.1,286.0 734.7,279.8 737.4,286.0 740.1,286.0 742.8,286.0 745.4,286.0 748.1,286.0 750.8,286.0 753.5,286.0 756.1,286.0 758.8,286.0 761.5,286.0 764.1,279.8 766.8,286.0 769.5,279.8 772.2,286.0 774.8,286.0 777.5,286.0 780.2,279.8 782.9,286.0 785.5,286.0 788.2,286.0 790.9,286.0 793.6,286.0 796.2,286.0 798.9,286.0 801.6,286.0 804.3,286.0 806.9,286.0 809.6,286.0 812.3,286.0 815.0,286.0 817.6,286.0 820.3,286.0 823.0,286.0 825.7,286.0 828.3,279.8 831.0,286.0 833.7,286.0 836.4,286.0 839.0,286.0 841.7,286.0 844.4,286.0 847.1,286.0 849.7,286.0 852.4,286.0 855.1,286.0 857.8,286.0 860.4,286.0 863.1,286.0 865.8,286.0 868.5,286.0 871.1,286.0 873.8,286.0 876.5,286.0 879.2,286.0 881.8,286.0 884.5,286.0 887.2,286.0 889.9,286.0 892.5,286.0 895.2,286.0 897.9,286.0 900.6,286.0 903.2,286.0 905.9,286.0 908.6,286.0 911.3,286.0 913.9,286.0 916.6,286.0 919.3,286.0 922.0,286.0 924.6,286.0 927.3,286.0 930.0,286.0 932.7,286.0 935.3,279.8 938.0,286.0"/><polyline fill="none" stroke="#a855f7" stroke-width="2.5" stroke-linejoin="round" stroke-linecap="round" points="42.0,286.0 44.7,286.0 47.3,286.0 50.0,286.0 52.7,286.0 55.4,286.0 58.0,286.0 60.7,286.0 63.4,286.0 66.1,286.0 68.7,286.0 71.4,286.0 74.1,286.0 76.8,286.0 79.4,286.0 82.1,286.0 84.8,286.0 87.5,286.0 90.1,286.0 92.8,286.0 95.5,286.0 98.2,286.0 100.8,286.0 103.5,286.0 106.2,286.0 108.9,286.0 111.5,279.8 114.2,286.0 116.9,286.0 119.6,286.0 122.2,286.0 124.9,286.0 127.6,286.0 130.3,286.0 132.9,286.0 135.6,286.0 138.3,286.0 141.0,286.0 143.6,286.0 146.3,286.0 149.0,286.0 151.7,286.0 154.3,286.0 157.0,286.0 159.7,286.0 162.4,286.0 165.0,286.0 167.7,286.0 170.4,286.0 173.1,286.0 175.7,286.0 178.4,286.0 181.1,286.0 183.8,286.0 186.4,286.0 189.1,286.0 191.8,286.0 194.5,286.0 197.1,286.0 199.8,286.0 202.5,286.0 205.2,286.0 207.8,286.0 210.5,286.0 213.2,286.0 215.9,286.0 218.5,286.0 221.2,286.0 223.9,286.0 226.5,286.0 229.2,286.0 231.9,286.0 234.6,286.0 237.2,286.0 239.9,286.0 242.6,286.0 245.3,286.0 247.9,286.0 250.6,286.0 253.3,286.0 256.0,286.0 258.6,286.0 261.3,286.0 264.0,286.0 266.7,279.8 269.3,286.0 272.0,286.0 274.7,286.0 277.4,286.0 280.0,286.0 282.7,286.0 285.4,286.0 288.1,286.0 290.7,286.0 293.4,279.8 296.1,286.0 298.8,286.0 301.4,286.0 304.1,286.0 306.8,286.0 309.5,286.0 312.1,286.0 314.8,286.0 317.5,286.0 320.2,286.0 322.8,286.0 325.5,286.0 328.2,286.0 330.9,286.0 333.5,286.0 336.2,286.0 338.9,286.0 341.6,286.0 344.2,286.0 346.9,286.0 349.6,286.0 352.3,286.0 354.9,286.0 357.6,286.0 360.3,286.0 363.0,286.0 365.6,286.0 368.3,286.0 371.0,279.8 373.7,286.0 376.3,286.0 379.0,286.0 381.7,286.0 384.4,286.0 387.0,286.0 389.7,279.8 392.4,286.0 395.1,286.0 397.7,286.0 400.4,286.0 403.1,286.0 405.7,286.0 408.4,286.0 411.1,286.0 413.8,286.0 416.4,286.0 419.1,286.0 421.8,286.0 424.5,286.0 427.1,286.0 429.8,286.0 432.5,286.0 435.2,279.8 437.8,286.0 440.5,286.0 443.2,286.0 445.9,286.0 448.5,286.0 451.2,286.0 453.9,286.0 456.6,286.0 459.2,286.0 461.9,286.0 464.6,286.0 467.3,286.0 469.9,286.0 472.6,286.0 475.3,286.0 478.0,286.0 480.6,286.0 483.3,286.0 486.0,286.0 488.7,286.0 491.3,286.0 494.0,286.0 496.7,286.0 499.4,286.0 502.0,286.0 504.7,286.0 507.4,286.0 510.1,286.0 512.7,286.0 515.4,286.0 518.1,286.0 520.8,286.0 523.4,286.0 526.1,286.0 528.8,286.0 531.5,286.0 534.1,273.7 536.8,286.0 539.5,286.0 542.2,286.0 544.8,286.0 547.5,286.0 550.2,286.0 552.9,286.0 555.5,286.0 558.2,286.0 560.9,286.0 563.6,286.0 566.2,286.0 568.9,286.0 571.6,286.0 574.3,286.0 576.9,286.0 579.6,286.0 582.3,286.0 584.9,286.0 587.6,286.0 590.3,286.0 593.0,286.0 595.6,286.0 598.3,286.0 601.0,286.0 603.7,286.0 606.3,286.0 609.0,286.0 611.7,286.0 614.4,286.0 617.0,286.0 619.7,286.0 622.4,286.0 625.1,286.0 627.7,286.0 630.4,286.0 633.1,286.0 635.8,286.0 638.4,286.0 641.1,286.0 643.8,286.0 646.5,286.0 649.1,286.0 651.8,286.0 654.5,286.0 657.2,286.0 659.8,286.0 662.5,286.0 665.2,286.0 667.9,286.0 670.5,286.0 673.2,286.0 675.9,286.0 678.6,286.0 681.2,286.0 683.9,286.0 686.6,286.0 689.3,286.0 691.9,286.0 694.6,286.0 697.3,286.0 700.0,286.0 702.6,286.0 705.3,286.0 708.0,286.0 710.7,286.0 713.3,286.0 716.0,286.0 718.7,286.0 721.4,286.0 724.0,286.0 726.7,286.0 729.4,286.0 732.1,286.0 734.7,286.0 737.4,286.0 740.1,286.0 742.8,286.0 745.4,286.0 748.1,286.0 750.8,286.0 753.5,286.0 756.1,286.0 758.8,286.0 761.5,286.0 764.1,286.0 766.8,286.0 769.5,286.0 772.2,286.0 774.8,286.0 777.5,286.0 780.2,286.0 782.9,286.0 785.5,286.0 788.2,286.0 790.9,286.0 793.6,286.0 796.2,286.0 798.9,286.0 801.6,286.0 804.3,286.0 806.9,286.0 809.6,286.0 812.3,286.0 815.0,286.0 817.6,286.0 820.3,286.0 823.0,286.0 825.7,286.0 828.3,286.0 831.0,286.0 833.7,286.0 836.4,286.0 839.0,286.0 841.7,286.0 844.4,286.0 847.1,286.0 849.7,286.0 852.4,286.0 855.1,286.0 857.8,286.0 860.4,286.0 863.1,286.0 865.8,286.0 868.5,286.0 871.1,286.0 873.8,286.0 876.5,286.0 879.2,286.0 881.8,286.0 884.5,286.0 887.2,286.0 889.9,286.0 892.5,286.0 895.2,279.8 897.9,286.0 900.6,286.0 903.2,286.0 905.9,286.0 908.6,286.0 911.3,286.0 913.9,286.0 916.6,286.0 919.3,286.0 922.0,286.0 924.6,286.0 927.3,286.0 930.0,286.0 932.7,286.0 935.3,286.0 938.0,286.0"/><text x="42" y="308" font-size="11" fill="#5a688a">28/06 13:29</text><text x="938" y="308" text-anchor="end" font-size="11" fill="#5a688a">13/07 08:30</text></svg>