<svg xmlns="http://www.w3.org/2000/svg" viewBox="0 0 960 320" width="960" height="320" font-family="Segoe UI, system-ui, -apple-system, Roboto, Helvetica, Arial, sans-serif" role="img" aria-label="Availability history per region"><rect x="0.5" y="0.5" width="959" height="319" rx="14" fill="#ffffff" stroke="#dce3f1"/><text x="42" y="26" font-size="14" font-weight="600" fill="#14203a">History · 100 points</text><circle cx="47" cy="40" r="5" fill="#22c55e"/><text x="57" y="44" font-size="12" fill="#5a688a">Available</text><circle cx="139.8" cy="40" r="5" fill="#f59e0b"/><text x="149.8" y="44" font-size="12" fill="#5a688a">Saturated</text><circle cx="232.60000000000002" cy="40" r="5" fill="#ef4444"/><text x="242.60000000000002" y="44" font-size="12" fill="#5a688a">Error</text><circle cx="296.6" cy="40" r="5" fill="#a855f7"/><text x="306.6" y="44" font-size="12" fill="#5a688a">Timeout</text><line x1="42" y1="286.0" x2="938" y2="286.0" stroke="#eef2f7" stroke-width="1"/><text x="35" y="289.0" text-anchor="end" font-size="11" fill="#5a688a">0</text><line x1="42" y1="227.5" x2="938" y2="227.5" stroke="#eef2f7" stroke-width="1"/><text x="35" y="230.5" text-anchor="end" font-size="11" fill="#5a688a">10</text><line x1="42" y1="169.0" x2="938" y2="169.0" stroke="#eef2f7" stroke-width="1"/><text x="35" y="172.0" text-anchor="end" font-size="11" fill="#5a688a">20</text><line x1="42" y1="110.5" x2="938" y2="110.5" stroke="#eef2f7" stroke-width="1"/><text x="35" y="113.5" text-anchor="end" font-size="11" fill="#5a688a">29</text><line x1="42" y1="52.0" x2="938" y2="52.0" stroke="#eef2f7" stroke-width="1"/><text x="35" y="55.0" text-anchor="end" font-size="11" fill="#5a688a">39</text><polyline fill="none" stroke="#22c55e" stroke-width="2.5" stroke-linejoin="round" stroke-linecap="round" points="42.0,70.0 51.1,70.0 60.1,88.0 69.2,88.0 78.2,76.0 87.3,76.0 96.3,76.0 105.4,70.0 114.4,76.0 123.5,70.0 132.5,64.0 141.6,58.0 150.6,58.0 159.7,58.0 168.7,58.0 177.8,58.0 186.8,58.0 195.9,58.0 204.9,58.0 214.0,58.0 223.0,58.0 232.1,58.0 241.1,58.0 250.2,58.0 259.2,58.0 268.3,58.0 277.3,58.0 286.4,58.0 295.4,58.0 304.5,58.0 313.5,58.0 322.6,70.0 331.6,76.0 340.7,94.0 349.7,64.0 358.8,64.0 367.8,58.0 376.9,58.0 385.9,58.0 395.0,70.0 404.0,76.0 413.1,76.0 422.1,82.0 431.2,82.0 440.2,82.0 449.3,82.0 458.3,76.0 467.4,64.0 476.4,70.0 485.5,70.0 494.5,82.0 503.6,76.0 512.6,76.0 521.7,82.0 530.7,76.0 539.8,76.0 548.8,76.0 557.9,64.0 566.9,64.0 576.0,76.0 585.0,76.0 594.1,76.0 603.1,88.0 612.2,70.0 621.2,64.0 630.3,58.0 639.3,58.0 648.4,70.0 657.4,70.0 666.5,70.0 675.5,76.0 684.6,70.0 693.6,70.0 702.7,70.0 711.7,70.0 720.8,76.0 729.8,82.0 738.9,76.0 747.9,70.0 757.0,70.0 766.0,70.0 775.1,70.0 784.1,76.0 793.2,70.0 802.2,70.0 811.3,70.0 820.3,70.0 829.4,70.0 838.4,70.0 847.5,70.0 856.5,70.0 865.6,70.0 874.6,70.0 883.7,70.0 892.7,70.0 901.8,70.0 910.8,70.0 919.9,70.0 928.9,70.0 938.0,70.0"/><polyline fill="none" stroke="#f59e0b" stroke-width="2.5" stroke-linejoin="round" stroke-linecap="round" points="42.0,274.0 51.1,274.0 60.1,274.0 69.2,280.0 78.2,268.0 87.3,268.0 96.3,268.0 105.4,274.0 114.4,274.0 123.5,274.0 132.5,280.0 141.6,286.0 150.6,286.0 159.7,286.0 168.7,286.0 177.8,286.0 186.8,286.0 195.9,286.0 204.9,286.0 214.0,286.0 223.0,286.0 232.1,286.0 241.1,286.0 250.2,286.0 259.2,286.0 268.3,286.0 277.3,286.0 286.4,286.0 295.4,286.0 304.5,286.0 313.5,286.0 322.6,274.0 331.6,280.0 340.7,280.0 349.7,280.0 358.8,280.0 367.8,286.0 376.9,286.0 385.9,286.0 395.0,274.0 404.0,268.0 413.1,268.0 422.1,262.0 431.2,262.0 440.2,262.0 449.3,262.0 458.3,268.0 467.4,280.0 476.4,280.0 485.5,274.0 494.5,262.0 503.6,268.0 512.6,268.0 521.7,262.0 530.7,268.0 539.8,268.0 548.8,268.0 557.9,280.0 566.9,280.0 576.0,268.0 585.0,268.0 594.1,268.0 603.1,262.0 612.2,274.0 621.2,280.0 630.3,286.0 639.3,286.0 648.4,274.0 657.4,274.0 666.5,274.0 675.5,274.0 684.6,274.0 693.6,274.0 702.7,274.0 711.7,274.0 720.8,280.0 729.8,274.0 738.9,280.0 747.9,286.0 757.0,286.0 766.0,286.0 775.1,286.0 784.1,280.0 793.2,286.0 802.2,286.0 811.3,286.0 820.3,286.0 829.4,286.0 838.4,286.0 847.5,286.0 856.5,286.0 865.6,286.0 874.6,286.0 883.7,286.0 892.7,286.0 901.8,286.0 910.8,286.0 919.9,286.0 928.9,286.0 938.0,286.0"/><polyline fill="none" stroke="#ef4444" stroke-width="2.5" stroke-linejoin="round" stroke-linecap="round" points="42.0,280.0 51.1,280.0 60.1,268.0 69.2,262.0 78.2,286.0 87.3,286.0 96.3,286.0 105.4,286.0 114.4,280.0 123.5,286.0 132.5,286.0 141.6,286.0 150.6,286.0 159.7,286.0 168.7,286.0 177.8,286.0 186.8,286.0 195.9,286.0 204.9,286.0 214.0,286.0 223.0,286.0 232.1,286.0 241.1,286.0 250.2,286.0 259.2,286.0 268.3,286.0 277.3,286.0 286.4,286.0 295.4,286.0 304.5,286.0 313.5,286.0 322.6,286.0 331.6,274.0 340.7,256.0 349.7,286.0 358.8,286.0 367.8,286.0 376.9,286.0 385.9,286.0 395.0,286.0 404.0,286.0 413.1,286.0 422.1,286.0 431.2,286.0 440.2,286.0 449.3,286.0 458.3,286.0 467.4,286.0 476.4,280.0 485.5,286.0 494.5,286.0 503.6,286.0 512.6,286.0 521.7,286.0 530.7,286.0 539.8,286.0 548.8,286.0 557.9,286.0 566.9,286.0 576.0,286.0 585.0,286.0 594.1,286.0 603.1,280.0 612.2,286.0 621.2,286.0 630.3,286.0 639.3,286.0 648.4,286.0 657.4,286.0 666.5,286.0 675.5,286.0 684.6,286.0 693.6,286.0 702.7,286.0 711.7,286.0 720.8,274.0 729.8,274.0 738.9,274.0 747.9,274.0 757.0,274.0 766.0,274.0 775.1,274.0 784.1,274.0 793.2,274.0 802.2,274.0 811.3,274.0 820.3,274.0 829.4,274.0 838.4,274.0 847.5,274.0 856.5,274.0 865.6,274.0 874.6,274.0 883.7,274.0 892.7,274.0 901.8,274.0 910.8,274.0 919.9,274.0 928.9,274.0 938.0,274.0"/><polyline fill="none" stroke="#a855f7" stroke-width="2.5" stroke-linejoin="round" stroke-linecap="round" points="42.0,286.0 51.1,286.0 60.1,286.0 69.2,286.0 78.2,286.0 87.3,286.0 96.3,286.0 105.4,286.0 114.4,286.0 123.5,286.0 132.5,286.0 141.6,286.0 150.6,286.0 159.7,286.0 168.7,286.0 177.8,286.0 186.8,286.0 195.9,286.0 204.9,286.0 214.0,286.0 223.0,286.0 232.1,286.0 241.1,286.0 250.2,286.0 259.2,286.0 268.3,286.0 277.3,286.0 286.4,286.0 295.4,286.0 304.5,286.0 313.5,286.0 322.6,286.0 331.6,286.0 340.7,286.0 349.7,286.0 358.8,286.0 367.8,286.0 376.9,286.0 385.9,286.0 395.0,286.0 404.0,286.0 413.1,286.0 422.1,286.0 431.2,286.0 440.2,286.0 449.3,286.0 458.3,286.0 467.4,286.0 476.4,286.0 485.5,286.0 494.5,286.0 503.6,286.0 512.6,286.0 521.7,286.0 530.7,286.0 539.8,286.0 548.8,286.0 557.9,286.0 566.9,286.0 576.0,286.0 585.0,286.0 594.1,286.0 603.1,286.0 612.2,286.0 621.2,286.0 630.3,286.0 639.3,286.0 648.4,286.0 657.4,286.0 666.5,286.0 675.5,280.0 684.6,286.0 693.6,286.0 702.7,286.0 711.7,286.0 720.8,286.0 729.8,286.0 738.9,286.0 747.9,286.0 757.0,286.0 766.0,286.0 775.1,286.0 784.1,286.0 793.2,286.0 802.2,286.0 811.3,286.0 820.3,286.0 829.4,286.0 838.4,286.0 847.5,286.0 856.5,286.0 865.6,286.0 874.6,286.0 883.7,286.0 892.7,286.0 901.8,286.0 910.8,286.0 919.9,286.0 928.9,286.0 938.0,286.0"/><text x="42" y="308" font-size="11" fill="#5a688a">19/06 12:43</text><text x="938" y="308" text-anchor="end" font-size="11" fill="#5a688a">27/06 14:18</text></svg>