<svg xmlns="http://www.w3.org/2000/svg" viewBox="0 0 960 320" width="960" height="320" font-family="Segoe UI, system-ui, -apple-system, Roboto, Helvetica, Arial, sans-serif" role="img" aria-label="Availability history per region"><rect x="0.5" y="0.5" width="959" height="319" rx="14" fill="#0d1117" stroke="#2c3a5e"/><text x="42" y="26" font-size="14" font-weight="600" fill="#e6ecff">History · 141 points</text><circle cx="47" cy="40" r="5" fill="#22c55e"/><text x="57" y="44" font-size="12" fill="#9fb0d4">Available</text><circle cx="139.8" cy="40" r="5" fill="#f59e0b"/><text x="149.8" y="44" font-size="12" fill="#9fb0d4">Saturated</text><circle cx="232.60000000000002" cy="40" r="5" fill="#ef4444"/><text x="242.60000000000002" y="44" font-size="12" fill="#9fb0d4">Error</text><circle cx="296.6" cy="40" r="5" fill="#a855f7"/><text x="306.6" y="44" font-size="12" fill="#9fb0d4">Timeout</text><line x1="42" y1="286.0" x2="938" y2="286.0" stroke="#21304f" stroke-width="1"/><text x="35" y="289.0" text-anchor="end" font-size="11" fill="#9fb0d4">0</text><line x1="42" y1="227.5" x2="938" y2="227.5" stroke="#21304f" stroke-width="1"/><text x="35" y="230.5" text-anchor="end" font-size="11" fill="#9fb0d4">10</text><line x1="42" y1="169.0" x2="938" y2="169.0" stroke="#21304f" stroke-width="1"/><text x="35" y="172.0" text-anchor="end" font-size="11" fill="#9fb0d4">19</text><line x1="42" y1="110.5" x2="938" y2="110.5" stroke="#21304f" stroke-width="1"/><text x="35" y="113.5" text-anchor="end" font-size="11" fill="#9fb0d4">28</text><line x1="42" y1="52.0" x2="938" y2="52.0" stroke="#21304f" stroke-width="1"/><text x="35" y="55.0" text-anchor="end" font-size="11" fill="#9fb0d4">38</text><polyline fill="none" stroke="#22c55e" stroke-width="2.5" stroke-linejoin="round" stroke-linecap="round" points="42.0,64.3 48.4,224.4 54.8,82.8 61.2,88.9 67.6,82.8 74.0,76.6 80.4,76.6 86.8,76.6 93.2,76.6 99.6,76.6 106.0,76.6 112.4,76.6 118.8,76.6 125.2,76.6 131.6,76.6 138.0,70.5 144.4,70.5 150.8,82.8 157.2,82.8 163.6,82.8 170.0,88.9 176.4,88.9 182.8,88.9 189.2,88.9 195.6,88.9 202.0,88.9 208.4,88.9 214.8,88.9 221.2,88.9 227.6,82.8 234.0,82.8 240.4,82.8 246.8,82.8 253.2,76.6 259.6,76.6 266.0,76.6 272.4,76.6 278.8,76.6 285.2,82.8 291.6,82.8 298.0,82.8 304.4,82.8 310.8,76.6 317.2,76.6 323.6,76.6 330.0,76.6 336.4,76.6 342.8,76.6 349.2,76.6 355.6,82.8 362.0,82.8 368.4,82.8 374.8,82.8 381.2,76.6 387.6,76.6 394.0,76.6 400.4,76.6 406.8,76.6 413.2,76.6 419.6,76.6 426.0,76.6 432.4,82.8 438.8,76.6 445.2,76.6 451.6,76.6 458.0,76.6 464.4,76.6 470.8,82.8 477.2,76.6 483.6,76.6 490.0,76.6 496.4,76.6 502.8,76.6 509.2,76.6 515.6,76.6 522.0,76.6 528.4,76.6 534.8,70.5 541.2,70.5 547.6,70.5 554.0,70.5 560.4,76.6 566.8,70.5 573.2,76.6 579.6,76.6 586.0,76.6 592.4,76.6 598.8,76.6 605.2,76.6 611.6,82.8 618.0,88.9 624.4,88.9 630.8,88.9 637.2,88.9 643.6,88.9 650.0,88.9 656.4,88.9 662.8,95.1 669.2,88.9 675.6,88.9 682.0,88.9 688.4,88.9 694.8,88.9 701.2,88.9 707.6,82.8 714.0,82.8 720.4,82.8 726.8,82.8 733.2,82.8 739.6,82.8 746.0,82.8 752.4,82.8 758.8,88.9 765.2,88.9 771.6,88.9 778.0,88.9 784.4,88.9 790.8,88.9 797.2,88.9 803.6,88.9 810.0,95.1 816.4,88.9 822.8,88.9 829.2,88.9 835.6,101.3 842.0,88.9 848.4,88.9 854.8,88.9 861.2,88.9 867.6,82.8 874.0,82.8 880.4,82.8 886.8,82.8 893.2,88.9 899.6,82.8 906.0,88.9 912.4,88.9 918.8,88.9 925.2,88.9 931.6,95.1 938.0,88.9"/><polyline fill="none" stroke="#f59e0b" stroke-width="2.5" stroke-linejoin="round" stroke-linecap="round" points="42.0,273.7 48.4,267.5 54.8,255.2 61.2,249.1 67.6,255.2 74.0,261.4 80.4,261.4 86.8,261.4 93.2,261.4 99.6,261.4 106.0,261.4 112.4,261.4 118.8,261.4 125.2,261.4 131.6,261.4 138.0,267.5 144.4,267.5 150.8,261.4 157.2,255.2 163.6,255.2 170.0,249.1 176.4,249.1 182.8,249.1 189.2,249.1 195.6,249.1 202.0,249.1 208.4,249.1 214.8,249.1 221.2,249.1 227.6,255.2 234.0,255.2 240.4,255.2 246.8,255.2 253.2,261.4 259.6,261.4 266.0,261.4 272.4,261.4 278.8,261.4 285.2,255.2 291.6,255.2 298.0,255.2 304.4,255.2 310.8,261.4 317.2,261.4 323.6,261.4 330.0,261.4 336.4,261.4 342.8,261.4 349.2,261.4 355.6,255.2 362.0,255.2 368.4,255.2 374.8,261.4 381.2,261.4 387.6,261.4 394.0,261.4 400.4,261.4 406.8,261.4 413.2,261.4 419.6,261.4 426.0,261.4 432.4,255.2 438.8,261.4 445.2,261.4 451.6,261.4 458.0,261.4 464.4,261.4 470.8,261.4 477.2,261.4 483.6,261.4 490.0,261.4 496.4,261.4 502.8,261.4 509.2,261.4 515.6,261.4 522.0,261.4 528.4,261.4 534.8,267.5 541.2,267.5 547.6,267.5 554.0,267.5 560.4,267.5 566.8,267.5 573.2,261.4 579.6,261.4 586.0,261.4 592.4,261.4 598.8,261.4 605.2,261.4 611.6,255.2 618.0,249.1 624.4,249.1 630.8,255.2 637.2,249.1 643.6,249.1 650.0,249.1 656.4,249.1 662.8,249.1 669.2,249.1 675.6,255.2 682.0,249.1 688.4,249.1 694.8,249.1 701.2,249.1 707.6,255.2 714.0,255.2 720.4,255.2 726.8,255.2 733.2,255.2 739.6,255.2 746.0,255.2 752.4,255.2 758.8,249.1 765.2,249.1 771.6,249.1 778.0,249.1 784.4,249.1 790.8,249.1 797.2,249.1 803.6,255.2 810.0,249.1 816.4,249.1 822.8,249.1 829.2,249.1 835.6,249.1 842.0,249.1 848.4,249.1 854.8,255.2 861.2,255.2 867.6,255.2 874.0,255.2 880.4,255.2 886.8,255.2 893.2,255.2 899.6,255.2 906.0,249.1 912.4,249.1 918.8,249.1 925.2,249.1 931.6,249.1 938.0,249.1"/><polyline fill="none" stroke="#ef4444" stroke-width="2.5" stroke-linejoin="round" stroke-linecap="round" points="42.0,286.0 48.4,132.1 54.8,286.0 61.2,286.0 67.6,286.0 74.0,286.0 80.4,286.0 86.8,286.0 93.2,286.0 99.6,286.0 106.0,286.0 112.4,286.0 118.8,286.0 125.2,286.0 131.6,286.0 138.0,286.0 144.4,286.0 150.8,279.8 157.2,286.0 163.6,286.0 170.0,286.0 176.4,286.0 182.8,286.0 189.2,286.0 195.6,286.0 202.0,286.0 208.4,286.0 214.8,286.0 221.2,286.0 227.6,286.0 234.0,286.0 240.4,286.0 246.8,286.0 253.2,286.0 259.6,286.0 266.0,286.0 272.4,286.0 278.8,286.0 285.2,286.0 291.6,286.0 298.0,286.0 304.4,286.0 310.8,286.0 317.2,286.0 323.6,286.0 330.0,286.0 336.4,286.0 342.8,286.0 349.2,286.0 355.6,286.0 362.0,286.0 368.4,286.0 374.8,286.0 381.2,286.0 387.6,286.0 394.0,286.0 400.4,286.0 406.8,286.0 413.2,286.0 419.6,286.0 426.0,286.0 432.4,286.0 438.8,286.0 445.2,286.0 451.6,286.0 458.0,286.0 464.4,286.0 470.8,279.8 477.2,286.0 483.6,286.0 490.0,286.0 496.4,286.0 502.8,286.0 509.2,286.0 515.6,286.0 522.0,286.0 528.4,286.0 534.8,286.0 541.2,286.0 547.6,286.0 554.0,286.0 560.4,279.8 566.8,286.0 573.2,286.0 579.6,286.0 586.0,286.0 592.4,286.0 598.8,286.0 605.2,286.0 611.6,286.0 618.0,286.0 624.4,286.0 630.8,279.8 637.2,286.0 643.6,286.0 650.0,286.0 656.4,286.0 662.8,279.8 669.2,286.0 675.6,286.0 682.0,286.0 688.4,286.0 694.8,286.0 701.2,286.0 707.6,286.0 714.0,286.0 720.4,286.0 726.8,286.0 733.2,286.0 739.6,286.0 746.0,286.0 752.4,286.0 758.8,286.0 765.2,286.0 771.6,286.0 778.0,286.0 784.4,286.0 790.8,286.0 797.2,286.0 803.6,286.0 810.0,279.8 816.4,286.0 822.8,286.0 829.2,286.0 835.6,273.7 842.0,286.0 848.4,286.0 854.8,279.8 861.2,279.8 867.6,286.0 874.0,286.0 880.4,286.0 886.8,286.0 893.2,279.8 899.6,286.0 906.0,286.0 912.4,286.0 918.8,286.0 925.2,286.0 931.6,286.0 938.0,286.0"/><polyline fill="none" stroke="#a855f7" stroke-width="2.5" stroke-linejoin="round" stroke-linecap="round" points="42.0,286.0 48.4,286.0 54.8,286.0 61.2,286.0 67.6,286.0 74.0,286.0 80.4,286.0 86.8,286.0 93.2,286.0 99.6,286.0 106.0,286.0 112.4,286.0 118.8,286.0 125.2,286.0 131.6,286.0 138.0,286.0 144.4,286.0 150.8,286.0 157.2,286.0 163.6,286.0 170.0,286.0 176.4,286.0 182.8,286.0 189.2,286.0 195.6,286.0 202.0,286.0 208.4,286.0 214.8,286.0 221.2,286.0 227.6,286.0 234.0,286.0 240.4,286.0 246.8,286.0 253.2,286.0 259.6,286.0 266.0,286.0 272.4,286.0 278.8,286.0 285.2,286.0 291.6,286.0 298.0,286.0 304.4,286.0 310.8,286.0 317.2,286.0 323.6,286.0 330.0,286.0 336.4,286.0 342.8,286.0 349.2,286.0 355.6,286.0 362.0,286.0 368.4,286.0 374.8,279.8 381.2,286.0 387.6,286.0 394.0,286.0 400.4,286.0 406.8,286.0 413.2,286.0 419.6,286.0 426.0,286.0 432.4,286.0 438.8,286.0 445.2,286.0 451.6,286.0 458.0,286.0 464.4,286.0 470.8,286.0 477.2,286.0 483.6,286.0 490.0,286.0 496.4,286.0 502.8,286.0 509.2,286.0 515.6,286.0 522.0,286.0 528.4,286.0 534.8,286.0 541.2,286.0 547.6,286.0 554.0,286.0 560.4,286.0 566.8,286.0 573.2,286.0 579.6,286.0 586.0,286.0 592.4,286.0 598.8,286.0 605.2,286.0 611.6,286.0 618.0,286.0 624.4,286.0 630.8,286.0 637.2,286.0 643.6,286.0 650.0,286.0 656.4,286.0 662.8,286.0 669.2,286.0 675.6,279.8 682.0,286.0 688.4,286.0 694.8,286.0 701.2,286.0 707.6,286.0 714.0,286.0 720.4,286.0 726.8,286.0 733.2,286.0 739.6,286.0 746.0,286.0 752.4,286.0 758.8,286.0 765.2,286.0 771.6,286.0 778.0,286.0 784.4,286.0 790.8,286.0 797.2,286.0 803.6,279.8 810.0,286.0 816.4,286.0 822.8,286.0 829.2,286.0 835.6,286.0 842.0,286.0 848.4,286.0 854.8,286.0 861.2,286.0 867.6,286.0 874.0,286.0 880.4,286.0 886.8,286.0 893.2,286.0 899.6,286.0 906.0,286.0 912.4,286.0 918.8,286.0 925.2,286.0 931.6,279.8 938.0,286.0"/><text x="42" y="308" font-size="11" fill="#9fb0d4">19/06 15:39</text><text x="938" y="308" text-anchor="end" font-size="11" fill="#9fb0d4">22/07 11:30</text></svg>