<svg xmlns="http://www.w3.org/2000/svg" viewBox="0 0 960 320" width="960" height="320" font-family="Segoe UI, system-ui, -apple-system, Roboto, Helvetica, Arial, sans-serif" role="img" aria-label="Availability history per region"><rect x="0.5" y="0.5" width="959" height="319" rx="14" fill="#ffffff" stroke="#dce3f1"/><text x="42" y="26" font-size="14" font-weight="600" fill="#14203a">History · 221 points</text><circle cx="47" cy="40" r="5" fill="#22c55e"/><text x="57" y="44" font-size="12" fill="#5a688a">Available</text><circle cx="139.8" cy="40" r="5" fill="#f59e0b"/><text x="149.8" y="44" font-size="12" fill="#5a688a">Saturated</text><circle cx="232.60000000000002" cy="40" r="5" fill="#ef4444"/><text x="242.60000000000002" y="44" font-size="12" fill="#5a688a">Error</text><circle cx="296.6" cy="40" r="5" fill="#a855f7"/><text x="306.6" y="44" font-size="12" fill="#5a688a">Timeout</text><line x1="42" y1="286.0" x2="938" y2="286.0" stroke="#eef2f7" stroke-width="1"/><text x="35" y="289.0" text-anchor="end" font-size="11" fill="#5a688a">0</text><line x1="42" y1="227.5" x2="938" y2="227.5" stroke="#eef2f7" stroke-width="1"/><text x="35" y="230.5" text-anchor="end" font-size="11" fill="#5a688a">10</text><line x1="42" y1="169.0" x2="938" y2="169.0" stroke="#eef2f7" stroke-width="1"/><text x="35" y="172.0" text-anchor="end" font-size="11" fill="#5a688a">20</text><line x1="42" y1="110.5" x2="938" y2="110.5" stroke="#eef2f7" stroke-width="1"/><text x="35" y="113.5" text-anchor="end" font-size="11" fill="#5a688a">29</text><line x1="42" y1="52.0" x2="938" y2="52.0" stroke="#eef2f7" stroke-width="1"/><text x="35" y="55.0" text-anchor="end" font-size="11" fill="#5a688a">39</text><polyline fill="none" stroke="#22c55e" stroke-width="2.5" stroke-linejoin="round" stroke-linecap="round" points="42.0,70.0 46.1,70.0 50.1,88.0 54.2,88.0 58.3,76.0 62.4,76.0 66.4,76.0 70.5,70.0 74.6,76.0 78.7,70.0 82.7,64.0 86.8,58.0 90.9,58.0 94.9,58.0 99.0,58.0 103.1,58.0 107.2,58.0 111.2,58.0 115.3,58.0 119.4,58.0 123.5,58.0 127.5,58.0 131.6,58.0 135.7,58.0 139.7,58.0 143.8,58.0 147.9,58.0 152.0,58.0 156.0,58.0 160.1,58.0 164.2,58.0 168.3,70.0 172.3,76.0 176.4,94.0 180.5,64.0 184.5,64.0 188.6,58.0 192.7,58.0 196.8,58.0 200.8,70.0 204.9,76.0 209.0,76.0 213.1,82.0 217.1,82.0 221.2,82.0 225.3,82.0 229.3,76.0 233.4,64.0 237.5,70.0 241.6,70.0 245.6,82.0 249.7,76.0 253.8,76.0 257.9,82.0 261.9,76.0 266.0,76.0 270.1,76.0 274.1,64.0 278.2,64.0 282.3,76.0 286.4,76.0 290.4,76.0 294.5,88.0 298.6,70.0 302.7,64.0 306.7,58.0 310.8,58.0 314.9,70.0 318.9,70.0 323.0,70.0 327.1,76.0 331.2,70.0 335.2,70.0 339.3,70.0 343.4,70.0 347.5,76.0 351.5,82.0 355.6,76.0 359.7,70.0 363.7,70.0 367.8,70.0 371.9,70.0 376.0,76.0 380.0,70.0 384.1,70.0 388.2,70.0 392.3,70.0 396.3,70.0 400.4,70.0 404.5,70.0 408.5,70.0 412.6,70.0 416.7,70.0 420.8,70.0 424.8,70.0 428.9,70.0 433.0,70.0 437.1,70.0 441.1,70.0 445.2,70.0 449.3,70.0 453.3,70.0 457.4,70.0 461.5,70.0 465.6,70.0 469.6,70.0 473.7,70.0 477.8,70.0 481.9,70.0 485.9,70.0 490.0,70.0 494.1,70.0 498.1,70.0 502.2,70.0 506.3,70.0 510.4,70.0 514.4,70.0 518.5,70.0 522.6,70.0 526.7,70.0 530.7,70.0 534.8,70.0 538.9,70.0 542.9,70.0 547.0,70.0 551.1,70.0 555.2,70.0 559.2,70.0 563.3,70.0 567.4,70.0 571.5,70.0 575.5,70.0 579.6,70.0 583.7,70.0 587.7,70.0 591.8,70.0 595.9,70.0 600.0,70.0 604.0,70.0 608.1,70.0 612.2,70.0 616.3,70.0 620.3,70.0 624.4,70.0 628.5,70.0 632.5,70.0 636.6,70.0 640.7,70.0 644.8,70.0 648.8,70.0 652.9,70.0 657.0,76.0 661.1,70.0 665.1,70.0 669.2,70.0 673.3,70.0 677.3,70.0 681.4,76.0 685.5,76.0 689.6,88.0 693.6,88.0 697.7,88.0 701.8,94.0 705.9,94.0 709.9,94.0 714.0,94.0 718.1,88.0 722.1,88.0 726.2,82.0 730.3,82.0 734.4,82.0 738.4,88.0 742.5,88.0 746.6,94.0 750.7,82.0 754.7,82.0 758.8,82.0 762.9,82.0 766.9,88.0 771.0,88.0 775.1,94.0 779.2,94.0 783.2,88.0 787.3,88.0 791.4,88.0 795.5,94.0 799.5,94.0 803.6,106.0 807.7,94.0 811.7,94.0 815.8,94.0 819.9,94.0 824.0,88.0 828.0,88.0 832.1,82.0 836.2,76.0 840.3,76.0 844.3,76.0 848.4,76.0 852.5,76.0 856.5,76.0 860.6,70.0 864.7,70.0 868.8,70.0 872.8,76.0 876.9,88.0 881.0,82.0 885.1,70.0 889.1,70.0 893.2,70.0 897.3,76.0 901.3,76.0 905.4,76.0 909.5,82.0 913.6,70.0 917.6,76.0 921.7,64.0 925.8,70.0 929.9,58.0 933.9,58.0 938.0,58.0"/><polyline fill="none" stroke="#f59e0b" stroke-width="2.5" stroke-linejoin="round" stroke-linecap="round" points="42.0,274.0 46.1,274.0 50.1,274.0 54.2,280.0 58.3,268.0 62.4,268.0 66.4,268.0 70.5,274.0 74.6,274.0 78.7,274.0 82.7,280.0 86.8,286.0 90.9,286.0 94.9,286.0 99.0,286.0 103.1,286.0 107.2,286.0 111.2,286.0 115.3,286.0 119.4,286.0 123.5,286.0 127.5,286.0 131.6,286.0 135.7,286.0 139.7,286.0 143.8,286.0 147.9,286.0 152.0,286.0 156.0,286.0 160.1,286.0 164.2,286.0 168.3,274.0 172.3,280.0 176.4,280.0 180.5,280.0 184.5,280.0 188.6,286.0 192.7,286.0 196.8,286.0 200.8,274.0 204.9,268.0 209.0,268.0 213.1,262.0 217.1,262.0 221.2,262.0 225.3,262.0 229.3,268.0 233.4,280.0 237.5,280.0 241.6,274.0 245.6,262.0 249.7,268.0 253.8,268.0 257.9,262.0 261.9,268.0 266.0,268.0 270.1,268.0 274.1,280.0 278.2,280.0 282.3,268.0 286.4,268.0 290.4,268.0 294.5,262.0 298.6,274.0 302.7,280.0 306.7,286.0 310.8,286.0 314.9,274.0 318.9,274.0 323.0,274.0 327.1,274.0 331.2,274.0 335.2,274.0 339.3,274.0 343.4,274.0 347.5,280.0 351.5,274.0 355.6,280.0 359.7,286.0 363.7,286.0 367.8,286.0 371.9,286.0 376.0,280.0 380.0,286.0 384.1,286.0 388.2,286.0 392.3,286.0 396.3,286.0 400.4,286.0 404.5,286.0 408.5,286.0 412.6,286.0 416.7,286.0 420.8,286.0 424.8,286.0 428.9,286.0 433.0,286.0 437.1,286.0 441.1,286.0 445.2,286.0 449.3,286.0 453.3,286.0 457.4,286.0 461.5,286.0 465.6,286.0 469.6,286.0 473.7,286.0 477.8,286.0 481.9,286.0 485.9,286.0 490.0,286.0 494.1,286.0 498.1,286.0 502.2,286.0 506.3,286.0 510.4,286.0 514.4,286.0 518.5,286.0 522.6,286.0 526.7,286.0 530.7,286.0 534.8,286.0 538.9,286.0 542.9,286.0 547.0,286.0 551.1,286.0 555.2,286.0 559.2,286.0 563.3,286.0 567.4,286.0 571.5,286.0 575.5,286.0 579.6,286.0 583.7,286.0 587.7,286.0 591.8,286.0 595.9,286.0 600.0,286.0 604.0,286.0 608.1,286.0 612.2,286.0 616.3,286.0 620.3,286.0 624.4,286.0 628.5,286.0 632.5,286.0 636.6,286.0 640.7,286.0 644.8,286.0 648.8,286.0 652.9,286.0 657.0,286.0 661.1,286.0 665.1,286.0 669.2,286.0 673.3,286.0 677.3,286.0 681.4,286.0 685.5,280.0 689.6,268.0 693.6,268.0 697.7,268.0 701.8,268.0 705.9,262.0 709.9,262.0 714.0,262.0 718.1,268.0 722.1,268.0 726.2,274.0 730.3,274.0 734.4,274.0 738.4,268.0 742.5,268.0 746.6,268.0 750.7,274.0 754.7,274.0 758.8,274.0 762.9,274.0 766.9,268.0 771.0,268.0 775.1,262.0 779.2,262.0 783.2,268.0 787.3,268.0 791.4,268.0 795.5,262.0 799.5,262.0 803.6,274.0 807.7,262.0 811.7,262.0 815.8,262.0 819.9,262.0 824.0,268.0 828.0,268.0 832.1,274.0 836.2,280.0 840.3,280.0 844.3,280.0 848.4,280.0 852.5,280.0 856.5,280.0 860.6,286.0 864.7,286.0 868.8,286.0 872.8,280.0 876.9,274.0 881.0,274.0 885.1,280.0 889.1,274.0 893.2,274.0 897.3,268.0 901.3,268.0 905.4,268.0 909.5,268.0 913.6,280.0 917.6,274.0 921.7,280.0 925.8,280.0 929.9,286.0 933.9,286.0 938.0,286.0"/><polyline fill="none" stroke="#ef4444" stroke-width="2.5" stroke-linejoin="round" stroke-linecap="round" points="42.0,280.0 46.1,280.0 50.1,268.0 54.2,262.0 58.3,286.0 62.4,286.0 66.4,286.0 70.5,286.0 74.6,280.0 78.7,286.0 82.7,286.0 86.8,286.0 90.9,286.0 94.9,286.0 99.0,286.0 103.1,286.0 107.2,286.0 111.2,286.0 115.3,286.0 119.4,286.0 123.5,286.0 127.5,286.0 131.6,286.0 135.7,286.0 139.7,286.0 143.8,286.0 147.9,286.0 152.0,286.0 156.0,286.0 160.1,286.0 164.2,286.0 168.3,286.0 172.3,274.0 176.4,256.0 180.5,286.0 184.5,286.0 188.6,286.0 192.7,286.0 196.8,286.0 200.8,286.0 204.9,286.0 209.0,286.0 213.1,286.0 217.1,286.0 221.2,286.0 225.3,286.0 229.3,286.0 233.4,286.0 237.5,280.0 241.6,286.0 245.6,286.0 249.7,286.0 253.8,286.0 257.9,286.0 261.9,286.0 266.0,286.0 270.1,286.0 274.1,286.0 278.2,286.0 282.3,286.0 286.4,286.0 290.4,286.0 294.5,280.0 298.6,286.0 302.7,286.0 306.7,286.0 310.8,286.0 314.9,286.0 318.9,286.0 323.0,286.0 327.1,286.0 331.2,286.0 335.2,286.0 339.3,286.0 343.4,286.0 347.5,274.0 351.5,274.0 355.6,274.0 359.7,274.0 363.7,274.0 367.8,274.0 371.9,274.0 376.0,274.0 380.0,274.0 384.1,274.0 388.2,274.0 392.3,274.0 396.3,274.0 400.4,274.0 404.5,274.0 408.5,274.0 412.6,274.0 416.7,274.0 420.8,274.0 424.8,274.0 428.9,274.0 433.0,274.0 437.1,274.0 441.1,274.0 445.2,274.0 449.3,274.0 453.3,274.0 457.4,274.0 461.5,274.0 465.6,274.0 469.6,274.0 473.7,274.0 477.8,274.0 481.9,274.0 485.9,274.0 490.0,274.0 494.1,274.0 498.1,274.0 502.2,274.0 506.3,274.0 510.4,274.0 514.4,274.0 518.5,274.0 522.6,274.0 526.7,274.0 530.7,274.0 534.8,274.0 538.9,274.0 542.9,274.0 547.0,274.0 551.1,274.0 555.2,274.0 559.2,274.0 563.3,274.0 567.4,274.0 571.5,274.0 575.5,274.0 579.6,274.0 583.7,274.0 587.7,274.0 591.8,274.0 595.9,274.0 600.0,274.0 604.0,274.0 608.1,274.0 612.2,274.0 616.3,274.0 620.3,274.0 624.4,274.0 628.5,274.0 632.5,274.0 636.6,274.0 640.7,274.0 644.8,274.0 648.8,274.0 652.9,274.0 657.0,268.0 661.1,274.0 665.1,274.0 669.2,274.0 673.3,274.0 677.3,274.0 681.4,274.0 685.5,274.0 689.6,274.0 693.6,274.0 697.7,274.0 701.8,268.0 705.9,274.0 709.9,274.0 714.0,274.0 718.1,274.0 722.1,274.0 726.2,274.0 730.3,274.0 734.4,274.0 738.4,274.0 742.5,274.0 746.6,268.0 750.7,274.0 754.7,274.0 758.8,274.0 762.9,274.0 766.9,274.0 771.0,274.0 775.1,274.0 779.2,274.0 783.2,274.0 787.3,274.0 791.4,274.0 795.5,274.0 799.5,274.0 803.6,250.0 807.7,274.0 811.7,274.0 815.8,274.0 819.9,274.0 824.0,274.0 828.0,274.0 832.1,274.0 836.2,274.0 840.3,274.0 844.3,274.0 848.4,274.0 852.5,274.0 856.5,274.0 860.6,274.0 864.7,274.0 868.8,274.0 872.8,274.0 876.9,268.0 881.0,274.0 885.1,280.0 889.1,286.0 893.2,286.0 897.3,286.0 901.3,286.0 905.4,286.0 909.5,280.0 913.6,280.0 917.6,286.0 921.7,286.0 925.8,280.0 929.9,286.0 933.9,286.0 938.0,286.0"/><polyline fill="none" stroke="#a855f7" stroke-width="2.5" stroke-linejoin="round" stroke-linecap="round" points="42.0,286.0 46.1,286.0 50.1,286.0 54.2,286.0 58.3,286.0 62.4,286.0 66.4,286.0 70.5,286.0 74.6,286.0 78.7,286.0 82.7,286.0 86.8,286.0 90.9,286.0 94.9,286.0 99.0,286.0 103.1,286.0 107.2,286.0 111.2,286.0 115.3,286.0 119.4,286.0 123.5,286.0 127.5,286.0 131.6,286.0 135.7,286.0 139.7,286.0 143.8,286.0 147.9,286.0 152.0,286.0 156.0,286.0 160.1,286.0 164.2,286.0 168.3,286.0 172.3,286.0 176.4,286.0 180.5,286.0 184.5,286.0 188.6,286.0 192.7,286.0 196.8,286.0 200.8,286.0 204.9,286.0 209.0,286.0 213.1,286.0 217.1,286.0 221.2,286.0 225.3,286.0 229.3,286.0 233.4,286.0 237.5,286.0 241.6,286.0 245.6,286.0 249.7,286.0 253.8,286.0 257.9,286.0 261.9,286.0 266.0,286.0 270.1,286.0 274.1,286.0 278.2,286.0 282.3,286.0 286.4,286.0 290.4,286.0 294.5,286.0 298.6,286.0 302.7,286.0 306.7,286.0 310.8,286.0 314.9,286.0 318.9,286.0 323.0,286.0 327.1,280.0 331.2,286.0 335.2,286.0 339.3,286.0 343.4,286.0 347.5,286.0 351.5,286.0 355.6,286.0 359.7,286.0 363.7,286.0 367.8,286.0 371.9,286.0 376.0,286.0 380.0,286.0 384.1,286.0 388.2,286.0 392.3,286.0 396.3,286.0 400.4,286.0 404.5,286.0 408.5,286.0 412.6,286.0 416.7,286.0 420.8,286.0 424.8,286.0 428.9,286.0 433.0,286.0 437.1,286.0 441.1,286.0 445.2,286.0 449.3,286.0 453.3,286.0 457.4,286.0 461.5,286.0 465.6,286.0 469.6,286.0 473.7,286.0 477.8,286.0 481.9,286.0 485.9,286.0 490.0,286.0 494.1,286.0 498.1,286.0 502.2,286.0 506.3,286.0 510.4,286.0 514.4,286.0 518.5,286.0 522.6,286.0 526.7,286.0 530.7,286.0 534.8,286.0 538.9,286.0 542.9,286.0 547.0,286.0 551.1,286.0 555.2,286.0 559.2,286.0 563.3,286.0 567.4,286.0 571.5,286.0 575.5,286.0 579.6,286.0 583.7,286.0 587.7,286.0 591.8,286.0 595.9,286.0 600.0,286.0 604.0,286.0 608.1,286.0 612.2,286.0 616.3,286.0 620.3,286.0 624.4,286.0 628.5,286.0 632.5,286.0 636.6,286.0 640.7,286.0 644.8,286.0 648.8,286.0 652.9,286.0 657.0,286.0 661.1,286.0 665.1,286.0 669.2,286.0 673.3,286.0 677.3,286.0 681.4,280.0 685.5,286.0 689.6,286.0 693.6,286.0 697.7,286.0 701.8,286.0 705.9,286.0 709.9,286.0 714.0,286.0 718.1,286.0 722.1,286.0 726.2,286.0 730.3,286.0 734.4,286.0 738.4,286.0 742.5,286.0 746.6,286.0 750.7,286.0 754.7,286.0 758.8,286.0 762.9,286.0 766.9,286.0 771.0,286.0 775.1,286.0 779.2,286.0 783.2,286.0 787.3,286.0 791.4,286.0 795.5,286.0 799.5,286.0 803.6,286.0 807.7,286.0 811.7,286.0 815.8,286.0 819.9,286.0 824.0,286.0 828.0,286.0 832.1,286.0 836.2,286.0 840.3,286.0 844.3,286.0 848.4,286.0 852.5,286.0 856.5,286.0 860.6,286.0 864.7,286.0 868.8,286.0 872.8,286.0 876.9,286.0 881.0,286.0 885.1,286.0 889.1,286.0 893.2,286.0 897.3,286.0 901.3,286.0 905.4,286.0 909.5,286.0 913.6,286.0 917.6,280.0 921.7,286.0 925.8,286.0 929.9,286.0 933.9,286.0 938.0,286.0"/><text x="42" y="308" font-size="11" fill="#5a688a">19/06 12:43</text><text x="938" y="308" text-anchor="end" font-size="11" fill="#5a688a">01/07 23:29</text></svg>