<svg xmlns="http://www.w3.org/2000/svg" viewBox="0 0 960 320" width="960" height="320" font-family="Segoe UI, system-ui, -apple-system, Roboto, Helvetica, Arial, sans-serif" role="img" aria-label="Availability history per region"><rect x="0.5" y="0.5" width="959" height="319" rx="14" fill="#0d1117" stroke="#2c3a5e"/><text x="42" y="26" font-size="14" font-weight="600" fill="#e6ecff">History · 317 points</text><circle cx="47" cy="40" r="5" fill="#22c55e"/><text x="57" y="44" font-size="12" fill="#9fb0d4">Available</text><circle cx="139.8" cy="40" r="5" fill="#f59e0b"/><text x="149.8" y="44" font-size="12" fill="#9fb0d4">Saturated</text><circle cx="232.60000000000002" cy="40" r="5" fill="#ef4444"/><text x="242.60000000000002" y="44" font-size="12" fill="#9fb0d4">Error</text><circle cx="296.6" cy="40" r="5" fill="#a855f7"/><text x="306.6" y="44" font-size="12" fill="#9fb0d4">Timeout</text><line x1="42" y1="286.0" x2="938" y2="286.0" stroke="#21304f" stroke-width="1"/><text x="35" y="289.0" text-anchor="end" font-size="11" fill="#9fb0d4">0</text><line x1="42" y1="227.5" x2="938" y2="227.5" stroke="#21304f" stroke-width="1"/><text x="35" y="230.5" text-anchor="end" font-size="11" fill="#9fb0d4">10</text><line x1="42" y1="169.0" x2="938" y2="169.0" stroke="#21304f" stroke-width="1"/><text x="35" y="172.0" text-anchor="end" font-size="11" fill="#9fb0d4">20</text><line x1="42" y1="110.5" x2="938" y2="110.5" stroke="#21304f" stroke-width="1"/><text x="35" y="113.5" text-anchor="end" font-size="11" fill="#9fb0d4">29</text><line x1="42" y1="52.0" x2="938" y2="52.0" stroke="#21304f" stroke-width="1"/><text x="35" y="55.0" text-anchor="end" font-size="11" fill="#9fb0d4">39</text><polyline fill="none" stroke="#22c55e" stroke-width="2.5" stroke-linejoin="round" stroke-linecap="round" points="42.0,70.0 44.8,70.0 47.7,88.0 50.5,88.0 53.3,76.0 56.2,76.0 59.0,76.0 61.8,70.0 64.7,76.0 67.5,70.0 70.4,64.0 73.2,58.0 76.0,58.0 78.9,58.0 81.7,58.0 84.5,58.0 87.4,58.0 90.2,58.0 93.0,58.0 95.9,58.0 98.7,58.0 101.5,58.0 104.4,58.0 107.2,58.0 110.1,58.0 112.9,58.0 115.7,58.0 118.6,58.0 121.4,58.0 124.2,58.0 127.1,58.0 129.9,70.0 132.7,76.0 135.6,94.0 138.4,64.0 141.2,64.0 144.1,58.0 146.9,58.0 149.7,58.0 152.6,70.0 155.4,76.0 158.3,76.0 161.1,82.0 163.9,82.0 166.8,82.0 169.6,82.0 172.4,76.0 175.3,64.0 178.1,70.0 180.9,70.0 183.8,82.0 186.6,76.0 189.4,76.0 192.3,82.0 195.1,76.0 197.9,76.0 200.8,76.0 203.6,64.0 206.5,64.0 209.3,76.0 212.1,76.0 215.0,76.0 217.8,88.0 220.6,70.0 223.5,64.0 226.3,58.0 229.1,58.0 232.0,70.0 234.8,70.0 237.6,70.0 240.5,76.0 243.3,70.0 246.2,70.0 249.0,70.0 251.8,70.0 254.7,76.0 257.5,82.0 260.3,76.0 263.2,70.0 266.0,70.0 268.8,70.0 271.7,70.0 274.5,76.0 277.3,70.0 280.2,70.0 283.0,70.0 285.8,70.0 288.7,70.0 291.5,70.0 294.4,70.0 297.2,70.0 300.0,70.0 302.9,70.0 305.7,70.0 308.5,70.0 311.4,70.0 314.2,70.0 317.0,70.0 319.9,70.0 322.7,70.0 325.5,70.0 328.4,70.0 331.2,70.0 334.1,70.0 336.9,70.0 339.7,70.0 342.6,70.0 345.4,70.0 348.2,70.0 351.1,70.0 353.9,70.0 356.7,70.0 359.6,70.0 362.4,70.0 365.2,70.0 368.1,70.0 370.9,70.0 373.7,70.0 376.6,70.0 379.4,70.0 382.3,70.0 385.1,70.0 387.9,70.0 390.8,70.0 393.6,70.0 396.4,70.0 399.3,70.0 402.1,70.0 404.9,70.0 407.8,70.0 410.6,70.0 413.4,70.0 416.3,70.0 419.1,70.0 421.9,70.0 424.8,70.0 427.6,70.0 430.5,70.0 433.3,70.0 436.1,70.0 439.0,70.0 441.8,70.0 444.6,70.0 447.5,70.0 450.3,70.0 453.1,70.0 456.0,70.0 458.8,70.0 461.6,70.0 464.5,70.0 467.3,70.0 470.2,76.0 473.0,70.0 475.8,70.0 478.7,70.0 481.5,70.0 484.3,70.0 487.2,76.0 490.0,76.0 492.8,88.0 495.7,88.0 498.5,88.0 501.3,94.0 504.2,94.0 507.0,94.0 509.8,94.0 512.7,88.0 515.5,88.0 518.4,82.0 521.2,82.0 524.0,82.0 526.9,88.0 529.7,88.0 532.5,94.0 535.4,82.0 538.2,82.0 541.0,82.0 543.9,82.0 546.7,88.0 549.5,88.0 552.4,94.0 555.2,94.0 558.1,88.0 560.9,88.0 563.7,88.0 566.6,94.0 569.4,94.0 572.2,106.0 575.1,94.0 577.9,94.0 580.7,94.0 583.6,94.0 586.4,88.0 589.2,88.0 592.1,82.0 594.9,76.0 597.7,76.0 600.6,76.0 603.4,76.0 606.3,76.0 609.1,76.0 611.9,70.0 614.8,70.0 617.6,70.0 620.4,76.0 623.3,88.0 626.1,82.0 628.9,70.0 631.8,70.0 634.6,70.0 637.4,76.0 640.3,76.0 643.1,76.0 645.9,82.0 648.8,70.0 651.6,76.0 654.5,64.0 657.3,70.0 660.1,58.0 663.0,58.0 665.8,58.0 668.6,58.0 671.5,58.0 674.3,64.0 677.1,58.0 680.0,64.0 682.8,58.0 685.6,58.0 688.5,58.0 691.3,58.0 694.2,64.0 697.0,64.0 699.8,64.0 702.7,76.0 705.5,70.0 708.3,82.0 711.2,70.0 714.0,76.0 716.8,58.0 719.7,64.0 722.5,58.0 725.3,64.0 728.2,58.0 731.0,58.0 733.8,58.0 736.7,64.0 739.5,70.0 742.4,64.0 745.2,64.0 748.0,64.0 750.9,70.0 753.7,70.0 756.5,64.0 759.4,70.0 762.2,70.0 765.0,70.0 767.9,58.0 770.7,58.0 773.5,58.0 776.4,58.0 779.2,58.0 782.1,64.0 784.9,58.0 787.7,58.0 790.6,58.0 793.4,58.0 796.2,58.0 799.1,58.0 801.9,58.0 804.7,58.0 807.6,64.0 810.4,58.0 813.2,58.0 816.1,58.0 818.9,58.0 821.7,58.0 824.6,58.0 827.4,58.0 830.3,64.0 833.1,58.0 835.9,58.0 838.8,58.0 841.6,58.0 844.4,58.0 847.3,58.0 850.1,58.0 852.9,58.0 855.8,58.0 858.6,58.0 861.4,58.0 864.3,58.0 867.1,58.0 869.9,58.0 872.8,58.0 875.6,58.0 878.5,58.0 881.3,58.0 884.1,58.0 887.0,64.0 889.8,64.0 892.6,58.0 895.5,58.0 898.3,58.0 901.1,64.0 904.0,64.0 906.8,76.0 909.6,64.0 912.5,64.0 915.3,70.0 918.2,58.0 921.0,58.0 923.8,58.0 926.7,58.0 929.5,58.0 932.3,58.0 935.2,70.0 938.0,64.0"/><polyline fill="none" stroke="#f59e0b" stroke-width="2.5" stroke-linejoin="round" stroke-linecap="round" points="42.0,274.0 44.8,274.0 47.7,274.0 50.5,280.0 53.3,268.0 56.2,268.0 59.0,268.0 61.8,274.0 64.7,274.0 67.5,274.0 70.4,280.0 73.2,286.0 76.0,286.0 78.9,286.0 81.7,286.0 84.5,286.0 87.4,286.0 90.2,286.0 93.0,286.0 95.9,286.0 98.7,286.0 101.5,286.0 104.4,286.0 107.2,286.0 110.1,286.0 112.9,286.0 115.7,286.0 118.6,286.0 121.4,286.0 124.2,286.0 127.1,286.0 129.9,274.0 132.7,280.0 135.6,280.0 138.4,280.0 141.2,280.0 144.1,286.0 146.9,286.0 149.7,286.0 152.6,274.0 155.4,268.0 158.3,268.0 161.1,262.0 163.9,262.0 166.8,262.0 169.6,262.0 172.4,268.0 175.3,280.0 178.1,280.0 180.9,274.0 183.8,262.0 186.6,268.0 189.4,268.0 192.3,262.0 195.1,268.0 197.9,268.0 200.8,268.0 203.6,280.0 206.5,280.0 209.3,268.0 212.1,268.0 215.0,268.0 217.8,262.0 220.6,274.0 223.5,280.0 226.3,286.0 229.1,286.0 232.0,274.0 234.8,274.0 237.6,274.0 240.5,274.0 243.3,274.0 246.2,274.0 249.0,274.0 251.8,274.0 254.7,280.0 257.5,274.0 260.3,280.0 263.2,286.0 266.0,286.0 268.8,286.0 271.7,286.0 274.5,280.0 277.3,286.0 280.2,286.0 283.0,286.0 285.8,286.0 288.7,286.0 291.5,286.0 294.4,286.0 297.2,286.0 300.0,286.0 302.9,286.0 305.7,286.0 308.5,286.0 311.4,286.0 314.2,286.0 317.0,286.0 319.9,286.0 322.7,286.0 325.5,286.0 328.4,286.0 331.2,286.0 334.1,286.0 336.9,286.0 339.7,286.0 342.6,286.0 345.4,286.0 348.2,286.0 351.1,286.0 353.9,286.0 356.7,286.0 359.6,286.0 362.4,286.0 365.2,286.0 368.1,286.0 370.9,286.0 373.7,286.0 376.6,286.0 379.4,286.0 382.3,286.0 385.1,286.0 387.9,286.0 390.8,286.0 393.6,286.0 396.4,286.0 399.3,286.0 402.1,286.0 404.9,286.0 407.8,286.0 410.6,286.0 413.4,286.0 416.3,286.0 419.1,286.0 421.9,286.0 424.8,286.0 427.6,286.0 430.5,286.0 433.3,286.0 436.1,286.0 439.0,286.0 441.8,286.0 444.6,286.0 447.5,286.0 450.3,286.0 453.1,286.0 456.0,286.0 458.8,286.0 461.6,286.0 464.5,286.0 467.3,286.0 470.2,286.0 473.0,286.0 475.8,286.0 478.7,286.0 481.5,286.0 484.3,286.0 487.2,286.0 490.0,280.0 492.8,268.0 495.7,268.0 498.5,268.0 501.3,268.0 504.2,262.0 507.0,262.0 509.8,262.0 512.7,268.0 515.5,268.0 518.4,274.0 521.2,274.0 524.0,274.0 526.9,268.0 529.7,268.0 532.5,268.0 535.4,274.0 538.2,274.0 541.0,274.0 543.9,274.0 546.7,268.0 549.5,268.0 552.4,262.0 555.2,262.0 558.1,268.0 560.9,268.0 563.7,268.0 566.6,262.0 569.4,262.0 572.2,274.0 575.1,262.0 577.9,262.0 580.7,262.0 583.6,262.0 586.4,268.0 589.2,268.0 592.1,274.0 594.9,280.0 597.7,280.0 600.6,280.0 603.4,280.0 606.3,280.0 609.1,280.0 611.9,286.0 614.8,286.0 617.6,286.0 620.4,280.0 623.3,274.0 626.1,274.0 628.9,280.0 631.8,274.0 634.6,274.0 637.4,268.0 640.3,268.0 643.1,268.0 645.9,268.0 648.8,280.0 651.6,274.0 654.5,280.0 657.3,280.0 660.1,286.0 663.0,286.0 665.8,286.0 668.6,286.0 671.5,286.0 674.3,286.0 677.1,286.0 680.0,286.0 682.8,286.0 685.6,286.0 688.5,286.0 691.3,286.0 694.2,280.0 697.0,280.0 699.8,280.0 702.7,268.0 705.5,280.0 708.3,268.0 711.2,274.0 714.0,274.0 716.8,286.0 719.7,280.0 722.5,286.0 725.3,280.0 728.2,286.0 731.0,286.0 733.8,286.0 736.7,280.0 739.5,274.0 742.4,280.0 745.2,280.0 748.0,280.0 750.9,274.0 753.7,274.0 756.5,280.0 759.4,280.0 762.2,280.0 765.0,280.0 767.9,286.0 770.7,286.0 773.5,286.0 776.4,286.0 779.2,286.0 782.1,286.0 784.9,286.0 787.7,286.0 790.6,286.0 793.4,286.0 796.2,286.0 799.1,286.0 801.9,286.0 804.7,286.0 807.6,286.0 810.4,286.0 813.2,286.0 816.1,286.0 818.9,286.0 821.7,286.0 824.6,286.0 827.4,286.0 830.3,286.0 833.1,286.0 835.9,286.0 838.8,286.0 841.6,286.0 844.4,286.0 847.3,286.0 850.1,286.0 852.9,286.0 855.8,286.0 858.6,286.0 861.4,286.0 864.3,286.0 867.1,286.0 869.9,286.0 872.8,286.0 875.6,286.0 878.5,286.0 881.3,286.0 884.1,286.0 887.0,286.0 889.8,286.0 892.6,286.0 895.5,286.0 898.3,286.0 901.1,280.0 904.0,280.0 906.8,280.0 909.6,280.0 912.5,280.0 915.3,274.0 918.2,286.0 921.0,286.0 923.8,286.0 926.7,286.0 929.5,286.0 932.3,286.0 935.2,286.0 938.0,280.0"/><polyline fill="none" stroke="#ef4444" stroke-width="2.5" stroke-linejoin="round" stroke-linecap="round" points="42.0,280.0 44.8,280.0 47.7,268.0 50.5,262.0 53.3,286.0 56.2,286.0 59.0,286.0 61.8,286.0 64.7,280.0 67.5,286.0 70.4,286.0 73.2,286.0 76.0,286.0 78.9,286.0 81.7,286.0 84.5,286.0 87.4,286.0 90.2,286.0 93.0,286.0 95.9,286.0 98.7,286.0 101.5,286.0 104.4,286.0 107.2,286.0 110.1,286.0 112.9,286.0 115.7,286.0 118.6,286.0 121.4,286.0 124.2,286.0 127.1,286.0 129.9,286.0 132.7,274.0 135.6,256.0 138.4,286.0 141.2,286.0 144.1,286.0 146.9,286.0 149.7,286.0 152.6,286.0 155.4,286.0 158.3,286.0 161.1,286.0 163.9,286.0 166.8,286.0 169.6,286.0 172.4,286.0 175.3,286.0 178.1,280.0 180.9,286.0 183.8,286.0 186.6,286.0 189.4,286.0 192.3,286.0 195.1,286.0 197.9,286.0 200.8,286.0 203.6,286.0 206.5,286.0 209.3,286.0 212.1,286.0 215.0,286.0 217.8,280.0 220.6,286.0 223.5,286.0 226.3,286.0 229.1,286.0 232.0,286.0 234.8,286.0 237.6,286.0 240.5,286.0 243.3,286.0 246.2,286.0 249.0,286.0 251.8,286.0 254.7,274.0 257.5,274.0 260.3,274.0 263.2,274.0 266.0,274.0 268.8,274.0 271.7,274.0 274.5,274.0 277.3,274.0 280.2,274.0 283.0,274.0 285.8,274.0 288.7,274.0 291.5,274.0 294.4,274.0 297.2,274.0 300.0,274.0 302.9,274.0 305.7,274.0 308.5,274.0 311.4,274.0 314.2,274.0 317.0,274.0 319.9,274.0 322.7,274.0 325.5,274.0 328.4,274.0 331.2,274.0 334.1,274.0 336.9,274.0 339.7,274.0 342.6,274.0 345.4,274.0 348.2,274.0 351.1,274.0 353.9,274.0 356.7,274.0 359.6,274.0 362.4,274.0 365.2,274.0 368.1,274.0 370.9,274.0 373.7,274.0 376.6,274.0 379.4,274.0 382.3,274.0 385.1,274.0 387.9,274.0 390.8,274.0 393.6,274.0 396.4,274.0 399.3,274.0 402.1,274.0 404.9,274.0 407.8,274.0 410.6,274.0 413.4,274.0 416.3,274.0 419.1,274.0 421.9,274.0 424.8,274.0 427.6,274.0 430.5,274.0 433.3,274.0 436.1,274.0 439.0,274.0 441.8,274.0 444.6,274.0 447.5,274.0 450.3,274.0 453.1,274.0 456.0,274.0 458.8,274.0 461.6,274.0 464.5,274.0 467.3,274.0 470.2,268.0 473.0,274.0 475.8,274.0 478.7,274.0 481.5,274.0 484.3,274.0 487.2,274.0 490.0,274.0 492.8,274.0 495.7,274.0 498.5,274.0 501.3,268.0 504.2,274.0 507.0,274.0 509.8,274.0 512.7,274.0 515.5,274.0 518.4,274.0 521.2,274.0 524.0,274.0 526.9,274.0 529.7,274.0 532.5,268.0 535.4,274.0 538.2,274.0 541.0,274.0 543.9,274.0 546.7,274.0 549.5,274.0 552.4,274.0 555.2,274.0 558.1,274.0 560.9,274.0 563.7,274.0 566.6,274.0 569.4,274.0 572.2,250.0 575.1,274.0 577.9,274.0 580.7,274.0 583.6,274.0 586.4,274.0 589.2,274.0 592.1,274.0 594.9,274.0 597.7,274.0 600.6,274.0 603.4,274.0 606.3,274.0 609.1,274.0 611.9,274.0 614.8,274.0 617.6,274.0 620.4,274.0 623.3,268.0 626.1,274.0 628.9,280.0 631.8,286.0 634.6,286.0 637.4,286.0 640.3,286.0 643.1,286.0 645.9,280.0 648.8,280.0 651.6,286.0 654.5,286.0 657.3,280.0 660.1,286.0 663.0,286.0 665.8,286.0 668.6,286.0 671.5,286.0 674.3,280.0 677.1,286.0 680.0,286.0 682.8,286.0 685.6,286.0 688.5,286.0 691.3,286.0 694.2,286.0 697.0,286.0 699.8,286.0 702.7,286.0 705.5,280.0 708.3,280.0 711.2,286.0 714.0,280.0 716.8,286.0 719.7,286.0 722.5,286.0 725.3,286.0 728.2,286.0 731.0,286.0 733.8,286.0 736.7,286.0 739.5,286.0 742.4,286.0 745.2,286.0 748.0,286.0 750.9,286.0 753.7,286.0 756.5,286.0 759.4,280.0 762.2,286.0 765.0,280.0 767.9,286.0 770.7,286.0 773.5,286.0 776.4,286.0 779.2,286.0 782.1,286.0 784.9,286.0 787.7,286.0 790.6,286.0 793.4,286.0 796.2,286.0 799.1,286.0 801.9,286.0 804.7,286.0 807.6,280.0 810.4,286.0 813.2,286.0 816.1,286.0 818.9,286.0 821.7,286.0 824.6,286.0 827.4,286.0 830.3,286.0 833.1,286.0 835.9,286.0 838.8,286.0 841.6,286.0 844.4,286.0 847.3,286.0 850.1,286.0 852.9,286.0 855.8,286.0 858.6,286.0 861.4,286.0 864.3,286.0 867.1,286.0 869.9,286.0 872.8,286.0 875.6,286.0 878.5,286.0 881.3,286.0 884.1,286.0 887.0,280.0 889.8,280.0 892.6,286.0 895.5,286.0 898.3,286.0 901.1,286.0 904.0,286.0 906.8,274.0 909.6,286.0 912.5,286.0 915.3,286.0 918.2,286.0 921.0,286.0 923.8,286.0 926.7,286.0 929.5,286.0 932.3,286.0 935.2,286.0 938.0,286.0"/><polyline fill="none" stroke="#a855f7" stroke-width="2.5" stroke-linejoin="round" stroke-linecap="round" points="42.0,286.0 44.8,286.0 47.7,286.0 50.5,286.0 53.3,286.0 56.2,286.0 59.0,286.0 61.8,286.0 64.7,286.0 67.5,286.0 70.4,286.0 73.2,286.0 76.0,286.0 78.9,286.0 81.7,286.0 84.5,286.0 87.4,286.0 90.2,286.0 93.0,286.0 95.9,286.0 98.7,286.0 101.5,286.0 104.4,286.0 107.2,286.0 110.1,286.0 112.9,286.0 115.7,286.0 118.6,286.0 121.4,286.0 124.2,286.0 127.1,286.0 129.9,286.0 132.7,286.0 135.6,286.0 138.4,286.0 141.2,286.0 144.1,286.0 146.9,286.0 149.7,286.0 152.6,286.0 155.4,286.0 158.3,286.0 161.1,286.0 163.9,286.0 166.8,286.0 169.6,286.0 172.4,286.0 175.3,286.0 178.1,286.0 180.9,286.0 183.8,286.0 186.6,286.0 189.4,286.0 192.3,286.0 195.1,286.0 197.9,286.0 200.8,286.0 203.6,286.0 206.5,286.0 209.3,286.0 212.1,286.0 215.0,286.0 217.8,286.0 220.6,286.0 223.5,286.0 226.3,286.0 229.1,286.0 232.0,286.0 234.8,286.0 237.6,286.0 240.5,280.0 243.3,286.0 246.2,286.0 249.0,286.0 251.8,286.0 254.7,286.0 257.5,286.0 260.3,286.0 263.2,286.0 266.0,286.0 268.8,286.0 271.7,286.0 274.5,286.0 277.3,286.0 280.2,286.0 283.0,286.0 285.8,286.0 288.7,286.0 291.5,286.0 294.4,286.0 297.2,286.0 300.0,286.0 302.9,286.0 305.7,286.0 308.5,286.0 311.4,286.0 314.2,286.0 317.0,286.0 319.9,286.0 322.7,286.0 325.5,286.0 328.4,286.0 331.2,286.0 334.1,286.0 336.9,286.0 339.7,286.0 342.6,286.0 345.4,286.0 348.2,286.0 351.1,286.0 353.9,286.0 356.7,286.0 359.6,286.0 362.4,286.0 365.2,286.0 368.1,286.0 370.9,286.0 373.7,286.0 376.6,286.0 379.4,286.0 382.3,286.0 385.1,286.0 387.9,286.0 390.8,286.0 393.6,286.0 396.4,286.0 399.3,286.0 402.1,286.0 404.9,286.0 407.8,286.0 410.6,286.0 413.4,286.0 416.3,286.0 419.1,286.0 421.9,286.0 424.8,286.0 427.6,286.0 430.5,286.0 433.3,286.0 436.1,286.0 439.0,286.0 441.8,286.0 444.6,286.0 447.5,286.0 450.3,286.0 453.1,286.0 456.0,286.0 458.8,286.0 461.6,286.0 464.5,286.0 467.3,286.0 470.2,286.0 473.0,286.0 475.8,286.0 478.7,286.0 481.5,286.0 484.3,286.0 487.2,280.0 490.0,286.0 492.8,286.0 495.7,286.0 498.5,286.0 501.3,286.0 504.2,286.0 507.0,286.0 509.8,286.0 512.7,286.0 515.5,286.0 518.4,286.0 521.2,286.0 524.0,286.0 526.9,286.0 529.7,286.0 532.5,286.0 535.4,286.0 538.2,286.0 541.0,286.0 543.9,286.0 546.7,286.0 549.5,286.0 552.4,286.0 555.2,286.0 558.1,286.0 560.9,286.0 563.7,286.0 566.6,286.0 569.4,286.0 572.2,286.0 575.1,286.0 577.9,286.0 580.7,286.0 583.6,286.0 586.4,286.0 589.2,286.0 592.1,286.0 594.9,286.0 597.7,286.0 600.6,286.0 603.4,286.0 606.3,286.0 609.1,286.0 611.9,286.0 614.8,286.0 617.6,286.0 620.4,286.0 623.3,286.0 626.1,286.0 628.9,286.0 631.8,286.0 634.6,286.0 637.4,286.0 640.3,286.0 643.1,286.0 645.9,286.0 648.8,286.0 651.6,280.0 654.5,286.0 657.3,286.0 660.1,286.0 663.0,286.0 665.8,286.0 668.6,286.0 671.5,286.0 674.3,286.0 677.1,286.0 680.0,280.0 682.8,286.0 685.6,286.0 688.5,286.0 691.3,286.0 694.2,286.0 697.0,286.0 699.8,286.0 702.7,286.0 705.5,286.0 708.3,286.0 711.2,286.0 714.0,286.0 716.8,286.0 719.7,286.0 722.5,286.0 725.3,286.0 728.2,286.0 731.0,286.0 733.8,286.0 736.7,286.0 739.5,286.0 742.4,286.0 745.2,286.0 748.0,286.0 750.9,286.0 753.7,286.0 756.5,286.0 759.4,286.0 762.2,280.0 765.0,286.0 767.9,286.0 770.7,286.0 773.5,286.0 776.4,286.0 779.2,286.0 782.1,280.0 784.9,286.0 787.7,286.0 790.6,286.0 793.4,286.0 796.2,286.0 799.1,286.0 801.9,286.0 804.7,286.0 807.6,286.0 810.4,286.0 813.2,286.0 816.1,286.0 818.9,286.0 821.7,286.0 824.6,286.0 827.4,286.0 830.3,280.0 833.1,286.0 835.9,286.0 838.8,286.0 841.6,286.0 844.4,286.0 847.3,286.0 850.1,286.0 852.9,286.0 855.8,286.0 858.6,286.0 861.4,286.0 864.3,286.0 867.1,286.0 869.9,286.0 872.8,286.0 875.6,286.0 878.5,286.0 881.3,286.0 884.1,286.0 887.0,286.0 889.8,286.0 892.6,286.0 895.5,286.0 898.3,286.0 901.1,286.0 904.0,286.0 906.8,286.0 909.6,286.0 912.5,286.0 915.3,286.0 918.2,286.0 921.0,286.0 923.8,286.0 926.7,286.0 929.5,286.0 932.3,286.0 935.2,274.0 938.0,286.0"/><text x="42" y="308" font-size="11" fill="#9fb0d4">19/06 12:43</text><text x="938" y="308" text-anchor="end" font-size="11" fill="#9fb0d4">07/07 02:32</text></svg>