<svg xmlns="http://www.w3.org/2000/svg" viewBox="0 0 960 320" width="960" height="320" font-family="Segoe UI, system-ui, -apple-system, Roboto, Helvetica, Arial, sans-serif" role="img" aria-label="Availability history per region"><rect x="0.5" y="0.5" width="959" height="319" rx="14" fill="#ffffff" stroke="#dce3f1"/><text x="42" y="26" font-size="14" font-weight="600" fill="#14203a">History · 299 points</text><circle cx="47" cy="40" r="5" fill="#22c55e"/><text x="57" y="44" font-size="12" fill="#5a688a">Available</text><circle cx="139.8" cy="40" r="5" fill="#f59e0b"/><text x="149.8" y="44" font-size="12" fill="#5a688a">Saturated</text><circle cx="232.60000000000002" cy="40" r="5" fill="#ef4444"/><text x="242.60000000000002" y="44" font-size="12" fill="#5a688a">Error</text><circle cx="296.6" cy="40" r="5" fill="#a855f7"/><text x="306.6" y="44" font-size="12" fill="#5a688a">Timeout</text><line x1="42" y1="286.0" x2="938" y2="286.0" stroke="#eef2f7" stroke-width="1"/><text x="35" y="289.0" text-anchor="end" font-size="11" fill="#5a688a">0</text><line x1="42" y1="227.5" x2="938" y2="227.5" stroke="#eef2f7" stroke-width="1"/><text x="35" y="230.5" text-anchor="end" font-size="11" fill="#5a688a">10</text><line x1="42" y1="169.0" x2="938" y2="169.0" stroke="#eef2f7" stroke-width="1"/><text x="35" y="172.0" text-anchor="end" font-size="11" fill="#5a688a">20</text><line x1="42" y1="110.5" x2="938" y2="110.5" stroke="#eef2f7" stroke-width="1"/><text x="35" y="113.5" text-anchor="end" font-size="11" fill="#5a688a">29</text><line x1="42" y1="52.0" x2="938" y2="52.0" stroke="#eef2f7" stroke-width="1"/><text x="35" y="55.0" text-anchor="end" font-size="11" fill="#5a688a">39</text><polyline fill="none" stroke="#22c55e" stroke-width="2.5" stroke-linejoin="round" stroke-linecap="round" points="42.0,70.0 45.0,70.0 48.0,88.0 51.0,88.0 54.0,76.0 57.0,76.0 60.0,76.0 63.0,70.0 66.1,76.0 69.1,70.0 72.1,64.0 75.1,58.0 78.1,58.0 81.1,58.0 84.1,58.0 87.1,58.0 90.1,58.0 93.1,58.0 96.1,58.0 99.1,58.0 102.1,58.0 105.1,58.0 108.1,58.0 111.2,58.0 114.2,58.0 117.2,58.0 120.2,58.0 123.2,58.0 126.2,58.0 129.2,58.0 132.2,58.0 135.2,70.0 138.2,76.0 141.2,94.0 144.2,64.0 147.2,64.0 150.2,58.0 153.2,58.0 156.3,58.0 159.3,70.0 162.3,76.0 165.3,76.0 168.3,82.0 171.3,82.0 174.3,82.0 177.3,82.0 180.3,76.0 183.3,64.0 186.3,70.0 189.3,70.0 192.3,82.0 195.3,76.0 198.3,76.0 201.4,82.0 204.4,76.0 207.4,76.0 210.4,76.0 213.4,64.0 216.4,64.0 219.4,76.0 222.4,76.0 225.4,76.0 228.4,88.0 231.4,70.0 234.4,64.0 237.4,58.0 240.4,58.0 243.4,70.0 246.5,70.0 249.5,70.0 252.5,76.0 255.5,70.0 258.5,70.0 261.5,70.0 264.5,70.0 267.5,76.0 270.5,82.0 273.5,76.0 276.5,70.0 279.5,70.0 282.5,70.0 285.5,70.0 288.6,76.0 291.6,70.0 294.6,70.0 297.6,70.0 300.6,70.0 303.6,70.0 306.6,70.0 309.6,70.0 312.6,70.0 315.6,70.0 318.6,70.0 321.6,70.0 324.6,70.0 327.6,70.0 330.6,70.0 333.7,70.0 336.7,70.0 339.7,70.0 342.7,70.0 345.7,70.0 348.7,70.0 351.7,70.0 354.7,70.0 357.7,70.0 360.7,70.0 363.7,70.0 366.7,70.0 369.7,70.0 372.7,70.0 375.7,70.0 378.8,70.0 381.8,70.0 384.8,70.0 387.8,70.0 390.8,70.0 393.8,70.0 396.8,70.0 399.8,70.0 402.8,70.0 405.8,70.0 408.8,70.0 411.8,70.0 414.8,70.0 417.8,70.0 420.8,70.0 423.9,70.0 426.9,70.0 429.9,70.0 432.9,70.0 435.9,70.0 438.9,70.0 441.9,70.0 444.9,70.0 447.9,70.0 450.9,70.0 453.9,70.0 456.9,70.0 459.9,70.0 462.9,70.0 465.9,70.0 469.0,70.0 472.0,70.0 475.0,70.0 478.0,70.0 481.0,70.0 484.0,70.0 487.0,70.0 490.0,70.0 493.0,70.0 496.0,76.0 499.0,70.0 502.0,70.0 505.0,70.0 508.0,70.0 511.0,70.0 514.1,76.0 517.1,76.0 520.1,88.0 523.1,88.0 526.1,88.0 529.1,94.0 532.1,94.0 535.1,94.0 538.1,94.0 541.1,88.0 544.1,88.0 547.1,82.0 550.1,82.0 553.1,82.0 556.1,88.0 559.2,88.0 562.2,94.0 565.2,82.0 568.2,82.0 571.2,82.0 574.2,82.0 577.2,88.0 580.2,88.0 583.2,94.0 586.2,94.0 589.2,88.0 592.2,88.0 595.2,88.0 598.2,94.0 601.2,94.0 604.3,106.0 607.3,94.0 610.3,94.0 613.3,94.0 616.3,94.0 619.3,88.0 622.3,88.0 625.3,82.0 628.3,76.0 631.3,76.0 634.3,76.0 637.3,76.0 640.3,76.0 643.3,76.0 646.3,70.0 649.4,70.0 652.4,70.0 655.4,76.0 658.4,88.0 661.4,82.0 664.4,70.0 667.4,70.0 670.4,70.0 673.4,76.0 676.4,76.0 679.4,76.0 682.4,82.0 685.4,70.0 688.4,76.0 691.4,64.0 694.5,70.0 697.5,58.0 700.5,58.0 703.5,58.0 706.5,58.0 709.5,58.0 712.5,64.0 715.5,58.0 718.5,64.0 721.5,58.0 724.5,58.0 727.5,58.0 730.5,58.0 733.5,64.0 736.6,64.0 739.6,64.0 742.6,76.0 745.6,70.0 748.6,82.0 751.6,70.0 754.6,76.0 757.6,58.0 760.6,64.0 763.6,58.0 766.6,64.0 769.6,58.0 772.6,58.0 775.6,58.0 778.6,64.0 781.7,70.0 784.7,64.0 787.7,64.0 790.7,64.0 793.7,70.0 796.7,70.0 799.7,64.0 802.7,70.0 805.7,70.0 808.7,70.0 811.7,58.0 814.7,58.0 817.7,58.0 820.7,58.0 823.7,58.0 826.8,64.0 829.8,58.0 832.8,58.0 835.8,58.0 838.8,58.0 841.8,58.0 844.8,58.0 847.8,58.0 850.8,58.0 853.8,64.0 856.8,58.0 859.8,58.0 862.8,58.0 865.8,58.0 868.8,58.0 871.9,58.0 874.9,58.0 877.9,64.0 880.9,58.0 883.9,58.0 886.9,58.0 889.9,58.0 892.9,58.0 895.9,58.0 898.9,58.0 901.9,58.0 904.9,58.0 907.9,58.0 910.9,58.0 913.9,58.0 917.0,58.0 920.0,58.0 923.0,58.0 926.0,58.0 929.0,58.0 932.0,58.0 935.0,58.0 938.0,64.0"/><polyline fill="none" stroke="#f59e0b" stroke-width="2.5" stroke-linejoin="round" stroke-linecap="round" points="42.0,274.0 45.0,274.0 48.0,274.0 51.0,280.0 54.0,268.0 57.0,268.0 60.0,268.0 63.0,274.0 66.1,274.0 69.1,274.0 72.1,280.0 75.1,286.0 78.1,286.0 81.1,286.0 84.1,286.0 87.1,286.0 90.1,286.0 93.1,286.0 96.1,286.0 99.1,286.0 102.1,286.0 105.1,286.0 108.1,286.0 111.2,286.0 114.2,286.0 117.2,286.0 120.2,286.0 123.2,286.0 126.2,286.0 129.2,286.0 132.2,286.0 135.2,274.0 138.2,280.0 141.2,280.0 144.2,280.0 147.2,280.0 150.2,286.0 153.2,286.0 156.3,286.0 159.3,274.0 162.3,268.0 165.3,268.0 168.3,262.0 171.3,262.0 174.3,262.0 177.3,262.0 180.3,268.0 183.3,280.0 186.3,280.0 189.3,274.0 192.3,262.0 195.3,268.0 198.3,268.0 201.4,262.0 204.4,268.0 207.4,268.0 210.4,268.0 213.4,280.0 216.4,280.0 219.4,268.0 222.4,268.0 225.4,268.0 228.4,262.0 231.4,274.0 234.4,280.0 237.4,286.0 240.4,286.0 243.4,274.0 246.5,274.0 249.5,274.0 252.5,274.0 255.5,274.0 258.5,274.0 261.5,274.0 264.5,274.0 267.5,280.0 270.5,274.0 273.5,280.0 276.5,286.0 279.5,286.0 282.5,286.0 285.5,286.0 288.6,280.0 291.6,286.0 294.6,286.0 297.6,286.0 300.6,286.0 303.6,286.0 306.6,286.0 309.6,286.0 312.6,286.0 315.6,286.0 318.6,286.0 321.6,286.0 324.6,286.0 327.6,286.0 330.6,286.0 333.7,286.0 336.7,286.0 339.7,286.0 342.7,286.0 345.7,286.0 348.7,286.0 351.7,286.0 354.7,286.0 357.7,286.0 360.7,286.0 363.7,286.0 366.7,286.0 369.7,286.0 372.7,286.0 375.7,286.0 378.8,286.0 381.8,286.0 384.8,286.0 387.8,286.0 390.8,286.0 393.8,286.0 396.8,286.0 399.8,286.0 402.8,286.0 405.8,286.0 408.8,286.0 411.8,286.0 414.8,286.0 417.8,286.0 420.8,286.0 423.9,286.0 426.9,286.0 429.9,286.0 432.9,286.0 435.9,286.0 438.9,286.0 441.9,286.0 444.9,286.0 447.9,286.0 450.9,286.0 453.9,286.0 456.9,286.0 459.9,286.0 462.9,286.0 465.9,286.0 469.0,286.0 472.0,286.0 475.0,286.0 478.0,286.0 481.0,286.0 484.0,286.0 487.0,286.0 490.0,286.0 493.0,286.0 496.0,286.0 499.0,286.0 502.0,286.0 505.0,286.0 508.0,286.0 511.0,286.0 514.1,286.0 517.1,280.0 520.1,268.0 523.1,268.0 526.1,268.0 529.1,268.0 532.1,262.0 535.1,262.0 538.1,262.0 541.1,268.0 544.1,268.0 547.1,274.0 550.1,274.0 553.1,274.0 556.1,268.0 559.2,268.0 562.2,268.0 565.2,274.0 568.2,274.0 571.2,274.0 574.2,274.0 577.2,268.0 580.2,268.0 583.2,262.0 586.2,262.0 589.2,268.0 592.2,268.0 595.2,268.0 598.2,262.0 601.2,262.0 604.3,274.0 607.3,262.0 610.3,262.0 613.3,262.0 616.3,262.0 619.3,268.0 622.3,268.0 625.3,274.0 628.3,280.0 631.3,280.0 634.3,280.0 637.3,280.0 640.3,280.0 643.3,280.0 646.3,286.0 649.4,286.0 652.4,286.0 655.4,280.0 658.4,274.0 661.4,274.0 664.4,280.0 667.4,274.0 670.4,274.0 673.4,268.0 676.4,268.0 679.4,268.0 682.4,268.0 685.4,280.0 688.4,274.0 691.4,280.0 694.5,280.0 697.5,286.0 700.5,286.0 703.5,286.0 706.5,286.0 709.5,286.0 712.5,286.0 715.5,286.0 718.5,286.0 721.5,286.0 724.5,286.0 727.5,286.0 730.5,286.0 733.5,280.0 736.6,280.0 739.6,280.0 742.6,268.0 745.6,280.0 748.6,268.0 751.6,274.0 754.6,274.0 757.6,286.0 760.6,280.0 763.6,286.0 766.6,280.0 769.6,286.0 772.6,286.0 775.6,286.0 778.6,280.0 781.7,274.0 784.7,280.0 787.7,280.0 790.7,280.0 793.7,274.0 796.7,274.0 799.7,280.0 802.7,280.0 805.7,280.0 808.7,280.0 811.7,286.0 814.7,286.0 817.7,286.0 820.7,286.0 823.7,286.0 826.8,286.0 829.8,286.0 832.8,286.0 835.8,286.0 838.8,286.0 841.8,286.0 844.8,286.0 847.8,286.0 850.8,286.0 853.8,286.0 856.8,286.0 859.8,286.0 862.8,286.0 865.8,286.0 868.8,286.0 871.9,286.0 874.9,286.0 877.9,286.0 880.9,286.0 883.9,286.0 886.9,286.0 889.9,286.0 892.9,286.0 895.9,286.0 898.9,286.0 901.9,286.0 904.9,286.0 907.9,286.0 910.9,286.0 913.9,286.0 917.0,286.0 920.0,286.0 923.0,286.0 926.0,286.0 929.0,286.0 932.0,286.0 935.0,286.0 938.0,286.0"/><polyline fill="none" stroke="#ef4444" stroke-width="2.5" stroke-linejoin="round" stroke-linecap="round" points="42.0,280.0 45.0,280.0 48.0,268.0 51.0,262.0 54.0,286.0 57.0,286.0 60.0,286.0 63.0,286.0 66.1,280.0 69.1,286.0 72.1,286.0 75.1,286.0 78.1,286.0 81.1,286.0 84.1,286.0 87.1,286.0 90.1,286.0 93.1,286.0 96.1,286.0 99.1,286.0 102.1,286.0 105.1,286.0 108.1,286.0 111.2,286.0 114.2,286.0 117.2,286.0 120.2,286.0 123.2,286.0 126.2,286.0 129.2,286.0 132.2,286.0 135.2,286.0 138.2,274.0 141.2,256.0 144.2,286.0 147.2,286.0 150.2,286.0 153.2,286.0 156.3,286.0 159.3,286.0 162.3,286.0 165.3,286.0 168.3,286.0 171.3,286.0 174.3,286.0 177.3,286.0 180.3,286.0 183.3,286.0 186.3,280.0 189.3,286.0 192.3,286.0 195.3,286.0 198.3,286.0 201.4,286.0 204.4,286.0 207.4,286.0 210.4,286.0 213.4,286.0 216.4,286.0 219.4,286.0 222.4,286.0 225.4,286.0 228.4,280.0 231.4,286.0 234.4,286.0 237.4,286.0 240.4,286.0 243.4,286.0 246.5,286.0 249.5,286.0 252.5,286.0 255.5,286.0 258.5,286.0 261.5,286.0 264.5,286.0 267.5,274.0 270.5,274.0 273.5,274.0 276.5,274.0 279.5,274.0 282.5,274.0 285.5,274.0 288.6,274.0 291.6,274.0 294.6,274.0 297.6,274.0 300.6,274.0 303.6,274.0 306.6,274.0 309.6,274.0 312.6,274.0 315.6,274.0 318.6,274.0 321.6,274.0 324.6,274.0 327.6,274.0 330.6,274.0 333.7,274.0 336.7,274.0 339.7,274.0 342.7,274.0 345.7,274.0 348.7,274.0 351.7,274.0 354.7,274.0 357.7,274.0 360.7,274.0 363.7,274.0 366.7,274.0 369.7,274.0 372.7,274.0 375.7,274.0 378.8,274.0 381.8,274.0 384.8,274.0 387.8,274.0 390.8,274.0 393.8,274.0 396.8,274.0 399.8,274.0 402.8,274.0 405.8,274.0 408.8,274.0 411.8,274.0 414.8,274.0 417.8,274.0 420.8,274.0 423.9,274.0 426.9,274.0 429.9,274.0 432.9,274.0 435.9,274.0 438.9,274.0 441.9,274.0 444.9,274.0 447.9,274.0 450.9,274.0 453.9,274.0 456.9,274.0 459.9,274.0 462.9,274.0 465.9,274.0 469.0,274.0 472.0,274.0 475.0,274.0 478.0,274.0 481.0,274.0 484.0,274.0 487.0,274.0 490.0,274.0 493.0,274.0 496.0,268.0 499.0,274.0 502.0,274.0 505.0,274.0 508.0,274.0 511.0,274.0 514.1,274.0 517.1,274.0 520.1,274.0 523.1,274.0 526.1,274.0 529.1,268.0 532.1,274.0 535.1,274.0 538.1,274.0 541.1,274.0 544.1,274.0 547.1,274.0 550.1,274.0 553.1,274.0 556.1,274.0 559.2,274.0 562.2,268.0 565.2,274.0 568.2,274.0 571.2,274.0 574.2,274.0 577.2,274.0 580.2,274.0 583.2,274.0 586.2,274.0 589.2,274.0 592.2,274.0 595.2,274.0 598.2,274.0 601.2,274.0 604.3,250.0 607.3,274.0 610.3,274.0 613.3,274.0 616.3,274.0 619.3,274.0 622.3,274.0 625.3,274.0 628.3,274.0 631.3,274.0 634.3,274.0 637.3,274.0 640.3,274.0 643.3,274.0 646.3,274.0 649.4,274.0 652.4,274.0 655.4,274.0 658.4,268.0 661.4,274.0 664.4,280.0 667.4,286.0 670.4,286.0 673.4,286.0 676.4,286.0 679.4,286.0 682.4,280.0 685.4,280.0 688.4,286.0 691.4,286.0 694.5,280.0 697.5,286.0 700.5,286.0 703.5,286.0 706.5,286.0 709.5,286.0 712.5,280.0 715.5,286.0 718.5,286.0 721.5,286.0 724.5,286.0 727.5,286.0 730.5,286.0 733.5,286.0 736.6,286.0 739.6,286.0 742.6,286.0 745.6,280.0 748.6,280.0 751.6,286.0 754.6,280.0 757.6,286.0 760.6,286.0 763.6,286.0 766.6,286.0 769.6,286.0 772.6,286.0 775.6,286.0 778.6,286.0 781.7,286.0 784.7,286.0 787.7,286.0 790.7,286.0 793.7,286.0 796.7,286.0 799.7,286.0 802.7,280.0 805.7,286.0 808.7,280.0 811.7,286.0 814.7,286.0 817.7,286.0 820.7,286.0 823.7,286.0 826.8,286.0 829.8,286.0 832.8,286.0 835.8,286.0 838.8,286.0 841.8,286.0 844.8,286.0 847.8,286.0 850.8,286.0 853.8,280.0 856.8,286.0 859.8,286.0 862.8,286.0 865.8,286.0 868.8,286.0 871.9,286.0 874.9,286.0 877.9,286.0 880.9,286.0 883.9,286.0 886.9,286.0 889.9,286.0 892.9,286.0 895.9,286.0 898.9,286.0 901.9,286.0 904.9,286.0 907.9,286.0 910.9,286.0 913.9,286.0 917.0,286.0 920.0,286.0 923.0,286.0 926.0,286.0 929.0,286.0 932.0,286.0 935.0,286.0 938.0,280.0"/><polyline fill="none" stroke="#a855f7" stroke-width="2.5" stroke-linejoin="round" stroke-linecap="round" points="42.0,286.0 45.0,286.0 48.0,286.0 51.0,286.0 54.0,286.0 57.0,286.0 60.0,286.0 63.0,286.0 66.1,286.0 69.1,286.0 72.1,286.0 75.1,286.0 78.1,286.0 81.1,286.0 84.1,286.0 87.1,286.0 90.1,286.0 93.1,286.0 96.1,286.0 99.1,286.0 102.1,286.0 105.1,286.0 108.1,286.0 111.2,286.0 114.2,286.0 117.2,286.0 120.2,286.0 123.2,286.0 126.2,286.0 129.2,286.0 132.2,286.0 135.2,286.0 138.2,286.0 141.2,286.0 144.2,286.0 147.2,286.0 150.2,286.0 153.2,286.0 156.3,286.0 159.3,286.0 162.3,286.0 165.3,286.0 168.3,286.0 171.3,286.0 174.3,286.0 177.3,286.0 180.3,286.0 183.3,286.0 186.3,286.0 189.3,286.0 192.3,286.0 195.3,286.0 198.3,286.0 201.4,286.0 204.4,286.0 207.4,286.0 210.4,286.0 213.4,286.0 216.4,286.0 219.4,286.0 222.4,286.0 225.4,286.0 228.4,286.0 231.4,286.0 234.4,286.0 237.4,286.0 240.4,286.0 243.4,286.0 246.5,286.0 249.5,286.0 252.5,280.0 255.5,286.0 258.5,286.0 261.5,286.0 264.5,286.0 267.5,286.0 270.5,286.0 273.5,286.0 276.5,286.0 279.5,286.0 282.5,286.0 285.5,286.0 288.6,286.0 291.6,286.0 294.6,286.0 297.6,286.0 300.6,286.0 303.6,286.0 306.6,286.0 309.6,286.0 312.6,286.0 315.6,286.0 318.6,286.0 321.6,286.0 324.6,286.0 327.6,286.0 330.6,286.0 333.7,286.0 336.7,286.0 339.7,286.0 342.7,286.0 345.7,286.0 348.7,286.0 351.7,286.0 354.7,286.0 357.7,286.0 360.7,286.0 363.7,286.0 366.7,286.0 369.7,286.0 372.7,286.0 375.7,286.0 378.8,286.0 381.8,286.0 384.8,286.0 387.8,286.0 390.8,286.0 393.8,286.0 396.8,286.0 399.8,286.0 402.8,286.0 405.8,286.0 408.8,286.0 411.8,286.0 414.8,286.0 417.8,286.0 420.8,286.0 423.9,286.0 426.9,286.0 429.9,286.0 432.9,286.0 435.9,286.0 438.9,286.0 441.9,286.0 444.9,286.0 447.9,286.0 450.9,286.0 453.9,286.0 456.9,286.0 459.9,286.0 462.9,286.0 465.9,286.0 469.0,286.0 472.0,286.0 475.0,286.0 478.0,286.0 481.0,286.0 484.0,286.0 487.0,286.0 490.0,286.0 493.0,286.0 496.0,286.0 499.0,286.0 502.0,286.0 505.0,286.0 508.0,286.0 511.0,286.0 514.1,280.0 517.1,286.0 520.1,286.0 523.1,286.0 526.1,286.0 529.1,286.0 532.1,286.0 535.1,286.0 538.1,286.0 541.1,286.0 544.1,286.0 547.1,286.0 550.1,286.0 553.1,286.0 556.1,286.0 559.2,286.0 562.2,286.0 565.2,286.0 568.2,286.0 571.2,286.0 574.2,286.0 577.2,286.0 580.2,286.0 583.2,286.0 586.2,286.0 589.2,286.0 592.2,286.0 595.2,286.0 598.2,286.0 601.2,286.0 604.3,286.0 607.3,286.0 610.3,286.0 613.3,286.0 616.3,286.0 619.3,286.0 622.3,286.0 625.3,286.0 628.3,286.0 631.3,286.0 634.3,286.0 637.3,286.0 640.3,286.0 643.3,286.0 646.3,286.0 649.4,286.0 652.4,286.0 655.4,286.0 658.4,286.0 661.4,286.0 664.4,286.0 667.4,286.0 670.4,286.0 673.4,286.0 676.4,286.0 679.4,286.0 682.4,286.0 685.4,286.0 688.4,280.0 691.4,286.0 694.5,286.0 697.5,286.0 700.5,286.0 703.5,286.0 706.5,286.0 709.5,286.0 712.5,286.0 715.5,286.0 718.5,280.0 721.5,286.0 724.5,286.0 727.5,286.0 730.5,286.0 733.5,286.0 736.6,286.0 739.6,286.0 742.6,286.0 745.6,286.0 748.6,286.0 751.6,286.0 754.6,286.0 757.6,286.0 760.6,286.0 763.6,286.0 766.6,286.0 769.6,286.0 772.6,286.0 775.6,286.0 778.6,286.0 781.7,286.0 784.7,286.0 787.7,286.0 790.7,286.0 793.7,286.0 796.7,286.0 799.7,286.0 802.7,286.0 805.7,280.0 808.7,286.0 811.7,286.0 814.7,286.0 817.7,286.0 820.7,286.0 823.7,286.0 826.8,280.0 829.8,286.0 832.8,286.0 835.8,286.0 838.8,286.0 841.8,286.0 844.8,286.0 847.8,286.0 850.8,286.0 853.8,286.0 856.8,286.0 859.8,286.0 862.8,286.0 865.8,286.0 868.8,286.0 871.9,286.0 874.9,286.0 877.9,280.0 880.9,286.0 883.9,286.0 886.9,286.0 889.9,286.0 892.9,286.0 895.9,286.0 898.9,286.0 901.9,286.0 904.9,286.0 907.9,286.0 910.9,286.0 913.9,286.0 917.0,286.0 920.0,286.0 923.0,286.0 926.0,286.0 929.0,286.0 932.0,286.0 935.0,286.0 938.0,286.0"/><text x="42" y="308" font-size="11" fill="#5a688a">19/06 12:43</text><text x="938" y="308" text-anchor="end" font-size="11" fill="#5a688a">06/07 03:29</text></svg>