<svg xmlns="http://www.w3.org/2000/svg" viewBox="0 0 960 320" width="960" height="320" font-family="Segoe UI, system-ui, -apple-system, Roboto, Helvetica, Arial, sans-serif" role="img" aria-label="Availability history per region"><rect x="0.5" y="0.5" width="959" height="319" rx="14" fill="#ffffff" stroke="#dce3f1"/><text x="42" y="26" font-size="14" font-weight="600" fill="#14203a">History · 105 points</text><circle cx="47" cy="40" r="5" fill="#22c55e"/><text x="57" y="44" font-size="12" fill="#5a688a">Available</text><circle cx="139.8" cy="40" r="5" fill="#f59e0b"/><text x="149.8" y="44" font-size="12" fill="#5a688a">Saturated</text><circle cx="232.60000000000002" cy="40" r="5" fill="#ef4444"/><text x="242.60000000000002" y="44" font-size="12" fill="#5a688a">Error</text><circle cx="296.6" cy="40" r="5" fill="#a855f7"/><text x="306.6" y="44" font-size="12" fill="#5a688a">Timeout</text><line x1="42" y1="286.0" x2="938" y2="286.0" stroke="#eef2f7" stroke-width="1"/><text x="35" y="289.0" text-anchor="end" font-size="11" fill="#5a688a">0</text><line x1="42" y1="227.5" x2="938" y2="227.5" stroke="#eef2f7" stroke-width="1"/><text x="35" y="230.5" text-anchor="end" font-size="11" fill="#5a688a">10</text><line x1="42" y1="169.0" x2="938" y2="169.0" stroke="#eef2f7" stroke-width="1"/><text x="35" y="172.0" text-anchor="end" font-size="11" fill="#5a688a">20</text><line x1="42" y1="110.5" x2="938" y2="110.5" stroke="#eef2f7" stroke-width="1"/><text x="35" y="113.5" text-anchor="end" font-size="11" fill="#5a688a">29</text><line x1="42" y1="52.0" x2="938" y2="52.0" stroke="#eef2f7" stroke-width="1"/><text x="35" y="55.0" text-anchor="end" font-size="11" fill="#5a688a">39</text><polyline fill="none" stroke="#22c55e" stroke-width="2.5" stroke-linejoin="round" stroke-linecap="round" points="42.0,70.0 50.6,70.0 59.2,88.0 67.8,88.0 76.5,76.0 85.1,76.0 93.7,76.0 102.3,70.0 110.9,76.0 119.5,70.0 128.2,64.0 136.8,58.0 145.4,58.0 154.0,58.0 162.6,58.0 171.2,58.0 179.8,58.0 188.5,58.0 197.1,58.0 205.7,58.0 214.3,58.0 222.9,58.0 231.5,58.0 240.2,58.0 248.8,58.0 257.4,58.0 266.0,58.0 274.6,58.0 283.2,58.0 291.8,58.0 300.5,58.0 309.1,70.0 317.7,76.0 326.3,94.0 334.9,64.0 343.5,64.0 352.2,58.0 360.8,58.0 369.4,58.0 378.0,70.0 386.6,76.0 395.2,76.0 403.8,82.0 412.5,82.0 421.1,82.0 429.7,82.0 438.3,76.0 446.9,64.0 455.5,70.0 464.2,70.0 472.8,82.0 481.4,76.0 490.0,76.0 498.6,82.0 507.2,76.0 515.8,76.0 524.5,76.0 533.1,64.0 541.7,64.0 550.3,76.0 558.9,76.0 567.5,76.0 576.2,88.0 584.8,70.0 593.4,64.0 602.0,58.0 610.6,58.0 619.2,70.0 627.8,70.0 636.5,70.0 645.1,76.0 653.7,70.0 662.3,70.0 670.9,70.0 679.5,70.0 688.2,76.0 696.8,82.0 705.4,76.0 714.0,70.0 722.6,70.0 731.2,70.0 739.8,70.0 748.5,76.0 757.1,70.0 765.7,70.0 774.3,70.0 782.9,70.0 791.5,70.0 800.2,70.0 808.8,70.0 817.4,70.0 826.0,70.0 834.6,70.0 843.2,70.0 851.8,70.0 860.5,70.0 869.1,70.0 877.7,70.0 886.3,70.0 894.9,70.0 903.5,70.0 912.2,70.0 920.8,70.0 929.4,70.0 938.0,70.0"/><polyline fill="none" stroke="#f59e0b" stroke-width="2.5" stroke-linejoin="round" stroke-linecap="round" points="42.0,274.0 50.6,274.0 59.2,274.0 67.8,280.0 76.5,268.0 85.1,268.0 93.7,268.0 102.3,274.0 110.9,274.0 119.5,274.0 128.2,280.0 136.8,286.0 145.4,286.0 154.0,286.0 162.6,286.0 171.2,286.0 179.8,286.0 188.5,286.0 197.1,286.0 205.7,286.0 214.3,286.0 222.9,286.0 231.5,286.0 240.2,286.0 248.8,286.0 257.4,286.0 266.0,286.0 274.6,286.0 283.2,286.0 291.8,286.0 300.5,286.0 309.1,274.0 317.7,280.0 326.3,280.0 334.9,280.0 343.5,280.0 352.2,286.0 360.8,286.0 369.4,286.0 378.0,274.0 386.6,268.0 395.2,268.0 403.8,262.0 412.5,262.0 421.1,262.0 429.7,262.0 438.3,268.0 446.9,280.0 455.5,280.0 464.2,274.0 472.8,262.0 481.4,268.0 490.0,268.0 498.6,262.0 507.2,268.0 515.8,268.0 524.5,268.0 533.1,280.0 541.7,280.0 550.3,268.0 558.9,268.0 567.5,268.0 576.2,262.0 584.8,274.0 593.4,280.0 602.0,286.0 610.6,286.0 619.2,274.0 627.8,274.0 636.5,274.0 645.1,274.0 653.7,274.0 662.3,274.0 670.9,274.0 679.5,274.0 688.2,280.0 696.8,274.0 705.4,280.0 714.0,286.0 722.6,286.0 731.2,286.0 739.8,286.0 748.5,280.0 757.1,286.0 765.7,286.0 774.3,286.0 782.9,286.0 791.5,286.0 800.2,286.0 808.8,286.0 817.4,286.0 826.0,286.0 834.6,286.0 843.2,286.0 851.8,286.0 860.5,286.0 869.1,286.0 877.7,286.0 886.3,286.0 894.9,286.0 903.5,286.0 912.2,286.0 920.8,286.0 929.4,286.0 938.0,286.0"/><polyline fill="none" stroke="#ef4444" stroke-width="2.5" stroke-linejoin="round" stroke-linecap="round" points="42.0,280.0 50.6,280.0 59.2,268.0 67.8,262.0 76.5,286.0 85.1,286.0 93.7,286.0 102.3,286.0 110.9,280.0 119.5,286.0 128.2,286.0 136.8,286.0 145.4,286.0 154.0,286.0 162.6,286.0 171.2,286.0 179.8,286.0 188.5,286.0 197.1,286.0 205.7,286.0 214.3,286.0 222.9,286.0 231.5,286.0 240.2,286.0 248.8,286.0 257.4,286.0 266.0,286.0 274.6,286.0 283.2,286.0 291.8,286.0 300.5,286.0 309.1,286.0 317.7,274.0 326.3,256.0 334.9,286.0 343.5,286.0 352.2,286.0 360.8,286.0 369.4,286.0 378.0,286.0 386.6,286.0 395.2,286.0 403.8,286.0 412.5,286.0 421.1,286.0 429.7,286.0 438.3,286.0 446.9,286.0 455.5,280.0 464.2,286.0 472.8,286.0 481.4,286.0 490.0,286.0 498.6,286.0 507.2,286.0 515.8,286.0 524.5,286.0 533.1,286.0 541.7,286.0 550.3,286.0 558.9,286.0 567.5,286.0 576.2,280.0 584.8,286.0 593.4,286.0 602.0,286.0 610.6,286.0 619.2,286.0 627.8,286.0 636.5,286.0 645.1,286.0 653.7,286.0 662.3,286.0 670.9,286.0 679.5,286.0 688.2,274.0 696.8,274.0 705.4,274.0 714.0,274.0 722.6,274.0 731.2,274.0 739.8,274.0 748.5,274.0 757.1,274.0 765.7,274.0 774.3,274.0 782.9,274.0 791.5,274.0 800.2,274.0 808.8,274.0 817.4,274.0 826.0,274.0 834.6,274.0 843.2,274.0 851.8,274.0 860.5,274.0 869.1,274.0 877.7,274.0 886.3,274.0 894.9,274.0 903.5,274.0 912.2,274.0 920.8,274.0 929.4,274.0 938.0,274.0"/><polyline fill="none" stroke="#a855f7" stroke-width="2.5" stroke-linejoin="round" stroke-linecap="round" points="42.0,286.0 50.6,286.0 59.2,286.0 67.8,286.0 76.5,286.0 85.1,286.0 93.7,286.0 102.3,286.0 110.9,286.0 119.5,286.0 128.2,286.0 136.8,286.0 145.4,286.0 154.0,286.0 162.6,286.0 171.2,286.0 179.8,286.0 188.5,286.0 197.1,286.0 205.7,286.0 214.3,286.0 222.9,286.0 231.5,286.0 240.2,286.0 248.8,286.0 257.4,286.0 266.0,286.0 274.6,286.0 283.2,286.0 291.8,286.0 300.5,286.0 309.1,286.0 317.7,286.0 326.3,286.0 334.9,286.0 343.5,286.0 352.2,286.0 360.8,286.0 369.4,286.0 378.0,286.0 386.6,286.0 395.2,286.0 403.8,286.0 412.5,286.0 421.1,286.0 429.7,286.0 438.3,286.0 446.9,286.0 455.5,286.0 464.2,286.0 472.8,286.0 481.4,286.0 490.0,286.0 498.6,286.0 507.2,286.0 515.8,286.0 524.5,286.0 533.1,286.0 541.7,286.0 550.3,286.0 558.9,286.0 567.5,286.0 576.2,286.0 584.8,286.0 593.4,286.0 602.0,286.0 610.6,286.0 619.2,286.0 627.8,286.0 636.5,286.0 645.1,280.0 653.7,286.0 662.3,286.0 670.9,286.0 679.5,286.0 688.2,286.0 696.8,286.0 705.4,286.0 714.0,286.0 722.6,286.0 731.2,286.0 739.8,286.0 748.5,286.0 757.1,286.0 765.7,286.0 774.3,286.0 782.9,286.0 791.5,286.0 800.2,286.0 808.8,286.0 817.4,286.0 826.0,286.0 834.6,286.0 843.2,286.0 851.8,286.0 860.5,286.0 869.1,286.0 877.7,286.0 886.3,286.0 894.9,286.0 903.5,286.0 912.2,286.0 920.8,286.0 929.4,286.0 938.0,286.0"/><text x="42" y="308" font-size="11" fill="#5a688a">19/06 12:43</text><text x="938" y="308" text-anchor="end" font-size="11" fill="#5a688a">27/06 17:30</text></svg>