<svg xmlns="http://www.w3.org/2000/svg" viewBox="0 0 960 320" width="960" height="320" font-family="Segoe UI, system-ui, -apple-system, Roboto, Helvetica, Arial, sans-serif" role="img" aria-label="Availability history per region"><rect x="0.5" y="0.5" width="959" height="319" rx="14" fill="#ffffff" stroke="#dce3f1"/><text x="42" y="26" font-size="14" font-weight="600" fill="#14203a">History · 236 points</text><circle cx="47" cy="40" r="5" fill="#22c55e"/><text x="57" y="44" font-size="12" fill="#5a688a">Available</text><circle cx="139.8" cy="40" r="5" fill="#f59e0b"/><text x="149.8" y="44" font-size="12" fill="#5a688a">Saturated</text><circle cx="232.60000000000002" cy="40" r="5" fill="#ef4444"/><text x="242.60000000000002" y="44" font-size="12" fill="#5a688a">Error</text><circle cx="296.6" cy="40" r="5" fill="#a855f7"/><text x="306.6" y="44" font-size="12" fill="#5a688a">Timeout</text><line x1="42" y1="286.0" x2="938" y2="286.0" stroke="#eef2f7" stroke-width="1"/><text x="35" y="289.0" text-anchor="end" font-size="11" fill="#5a688a">0</text><line x1="42" y1="227.5" x2="938" y2="227.5" stroke="#eef2f7" stroke-width="1"/><text x="35" y="230.5" text-anchor="end" font-size="11" fill="#5a688a">10</text><line x1="42" y1="169.0" x2="938" y2="169.0" stroke="#eef2f7" stroke-width="1"/><text x="35" y="172.0" text-anchor="end" font-size="11" fill="#5a688a">20</text><line x1="42" y1="110.5" x2="938" y2="110.5" stroke="#eef2f7" stroke-width="1"/><text x="35" y="113.5" text-anchor="end" font-size="11" fill="#5a688a">29</text><line x1="42" y1="52.0" x2="938" y2="52.0" stroke="#eef2f7" stroke-width="1"/><text x="35" y="55.0" text-anchor="end" font-size="11" fill="#5a688a">39</text><polyline fill="none" stroke="#22c55e" stroke-width="2.5" stroke-linejoin="round" stroke-linecap="round" points="42.0,70.0 45.8,70.0 49.6,88.0 53.4,88.0 57.3,76.0 61.1,76.0 64.9,76.0 68.7,70.0 72.5,76.0 76.3,70.0 80.1,64.0 83.9,58.0 87.8,58.0 91.6,58.0 95.4,58.0 99.2,58.0 103.0,58.0 106.8,58.0 110.6,58.0 114.4,58.0 118.3,58.0 122.1,58.0 125.9,58.0 129.7,58.0 133.5,58.0 137.3,58.0 141.1,58.0 144.9,58.0 148.8,58.0 152.6,58.0 156.4,58.0 160.2,70.0 164.0,76.0 167.8,94.0 171.6,64.0 175.4,64.0 179.3,58.0 183.1,58.0 186.9,58.0 190.7,70.0 194.5,76.0 198.3,76.0 202.1,82.0 205.9,82.0 209.8,82.0 213.6,82.0 217.4,76.0 221.2,64.0 225.0,70.0 228.8,70.0 232.6,82.0 236.5,76.0 240.3,76.0 244.1,82.0 247.9,76.0 251.7,76.0 255.5,76.0 259.3,64.0 263.1,64.0 267.0,76.0 270.8,76.0 274.6,76.0 278.4,88.0 282.2,70.0 286.0,64.0 289.8,58.0 293.6,58.0 297.5,70.0 301.3,70.0 305.1,70.0 308.9,76.0 312.7,70.0 316.5,70.0 320.3,70.0 324.1,70.0 328.0,76.0 331.8,82.0 335.6,76.0 339.4,70.0 343.2,70.0 347.0,70.0 350.8,70.0 354.6,76.0 358.5,70.0 362.3,70.0 366.1,70.0 369.9,70.0 373.7,70.0 377.5,70.0 381.3,70.0 385.1,70.0 389.0,70.0 392.8,70.0 396.6,70.0 400.4,70.0 404.2,70.0 408.0,70.0 411.8,70.0 415.7,70.0 419.5,70.0 423.3,70.0 427.1,70.0 430.9,70.0 434.7,70.0 438.5,70.0 442.3,70.0 446.2,70.0 450.0,70.0 453.8,70.0 457.6,70.0 461.4,70.0 465.2,70.0 469.0,70.0 472.8,70.0 476.7,70.0 480.5,70.0 484.3,70.0 488.1,70.0 491.9,70.0 495.7,70.0 499.5,70.0 503.3,70.0 507.2,70.0 511.0,70.0 514.8,70.0 518.6,70.0 522.4,70.0 526.2,70.0 530.0,70.0 533.8,70.0 537.7,70.0 541.5,70.0 545.3,70.0 549.1,70.0 552.9,70.0 556.7,70.0 560.5,70.0 564.3,70.0 568.2,70.0 572.0,70.0 575.8,70.0 579.6,70.0 583.4,70.0 587.2,70.0 591.0,70.0 594.9,70.0 598.7,70.0 602.5,70.0 606.3,70.0 610.1,70.0 613.9,70.0 617.7,76.0 621.5,70.0 625.4,70.0 629.2,70.0 633.0,70.0 636.8,70.0 640.6,76.0 644.4,76.0 648.2,88.0 652.0,88.0 655.9,88.0 659.7,94.0 663.5,94.0 667.3,94.0 671.1,94.0 674.9,88.0 678.7,88.0 682.5,82.0 686.4,82.0 690.2,82.0 694.0,88.0 697.8,88.0 701.6,94.0 705.4,82.0 709.2,82.0 713.0,82.0 716.9,82.0 720.7,88.0 724.5,88.0 728.3,94.0 732.1,94.0 735.9,88.0 739.7,88.0 743.5,88.0 747.4,94.0 751.2,94.0 755.0,106.0 758.8,94.0 762.6,94.0 766.4,94.0 770.2,94.0 774.1,88.0 777.9,88.0 781.7,82.0 785.5,76.0 789.3,76.0 793.1,76.0 796.9,76.0 800.7,76.0 804.6,76.0 808.4,70.0 812.2,70.0 816.0,70.0 819.8,76.0 823.6,88.0 827.4,82.0 831.2,70.0 835.1,70.0 838.9,70.0 842.7,76.0 846.5,76.0 850.3,76.0 854.1,82.0 857.9,70.0 861.7,76.0 865.6,64.0 869.4,70.0 873.2,58.0 877.0,58.0 880.8,58.0 884.6,58.0 888.4,58.0 892.2,64.0 896.1,58.0 899.9,64.0 903.7,58.0 907.5,58.0 911.3,58.0 915.1,58.0 918.9,64.0 922.7,64.0 926.6,64.0 930.4,76.0 934.2,70.0 938.0,82.0"/><polyline fill="none" stroke="#f59e0b" stroke-width="2.5" stroke-linejoin="round" stroke-linecap="round" points="42.0,274.0 45.8,274.0 49.6,274.0 53.4,280.0 57.3,268.0 61.1,268.0 64.9,268.0 68.7,274.0 72.5,274.0 76.3,274.0 80.1,280.0 83.9,286.0 87.8,286.0 91.6,286.0 95.4,286.0 99.2,286.0 103.0,286.0 106.8,286.0 110.6,286.0 114.4,286.0 118.3,286.0 122.1,286.0 125.9,286.0 129.7,286.0 133.5,286.0 137.3,286.0 141.1,286.0 144.9,286.0 148.8,286.0 152.6,286.0 156.4,286.0 160.2,274.0 164.0,280.0 167.8,280.0 171.6,280.0 175.4,280.0 179.3,286.0 183.1,286.0 186.9,286.0 190.7,274.0 194.5,268.0 198.3,268.0 202.1,262.0 205.9,262.0 209.8,262.0 213.6,262.0 217.4,268.0 221.2,280.0 225.0,280.0 228.8,274.0 232.6,262.0 236.5,268.0 240.3,268.0 244.1,262.0 247.9,268.0 251.7,268.0 255.5,268.0 259.3,280.0 263.1,280.0 267.0,268.0 270.8,268.0 274.6,268.0 278.4,262.0 282.2,274.0 286.0,280.0 289.8,286.0 293.6,286.0 297.5,274.0 301.3,274.0 305.1,274.0 308.9,274.0 312.7,274.0 316.5,274.0 320.3,274.0 324.1,274.0 328.0,280.0 331.8,274.0 335.6,280.0 339.4,286.0 343.2,286.0 347.0,286.0 350.8,286.0 354.6,280.0 358.5,286.0 362.3,286.0 366.1,286.0 369.9,286.0 373.7,286.0 377.5,286.0 381.3,286.0 385.1,286.0 389.0,286.0 392.8,286.0 396.6,286.0 400.4,286.0 404.2,286.0 408.0,286.0 411.8,286.0 415.7,286.0 419.5,286.0 423.3,286.0 427.1,286.0 430.9,286.0 434.7,286.0 438.5,286.0 442.3,286.0 446.2,286.0 450.0,286.0 453.8,286.0 457.6,286.0 461.4,286.0 465.2,286.0 469.0,286.0 472.8,286.0 476.7,286.0 480.5,286.0 484.3,286.0 488.1,286.0 491.9,286.0 495.7,286.0 499.5,286.0 503.3,286.0 507.2,286.0 511.0,286.0 514.8,286.0 518.6,286.0 522.4,286.0 526.2,286.0 530.0,286.0 533.8,286.0 537.7,286.0 541.5,286.0 545.3,286.0 549.1,286.0 552.9,286.0 556.7,286.0 560.5,286.0 564.3,286.0 568.2,286.0 572.0,286.0 575.8,286.0 579.6,286.0 583.4,286.0 587.2,286.0 591.0,286.0 594.9,286.0 598.7,286.0 602.5,286.0 606.3,286.0 610.1,286.0 613.9,286.0 617.7,286.0 621.5,286.0 625.4,286.0 629.2,286.0 633.0,286.0 636.8,286.0 640.6,286.0 644.4,280.0 648.2,268.0 652.0,268.0 655.9,268.0 659.7,268.0 663.5,262.0 667.3,262.0 671.1,262.0 674.9,268.0 678.7,268.0 682.5,274.0 686.4,274.0 690.2,274.0 694.0,268.0 697.8,268.0 701.6,268.0 705.4,274.0 709.2,274.0 713.0,274.0 716.9,274.0 720.7,268.0 724.5,268.0 728.3,262.0 732.1,262.0 735.9,268.0 739.7,268.0 743.5,268.0 747.4,262.0 751.2,262.0 755.0,274.0 758.8,262.0 762.6,262.0 766.4,262.0 770.2,262.0 774.1,268.0 777.9,268.0 781.7,274.0 785.5,280.0 789.3,280.0 793.1,280.0 796.9,280.0 800.7,280.0 804.6,280.0 808.4,286.0 812.2,286.0 816.0,286.0 819.8,280.0 823.6,274.0 827.4,274.0 831.2,280.0 835.1,274.0 838.9,274.0 842.7,268.0 846.5,268.0 850.3,268.0 854.1,268.0 857.9,280.0 861.7,274.0 865.6,280.0 869.4,280.0 873.2,286.0 877.0,286.0 880.8,286.0 884.6,286.0 888.4,286.0 892.2,286.0 896.1,286.0 899.9,286.0 903.7,286.0 907.5,286.0 911.3,286.0 915.1,286.0 918.9,280.0 922.7,280.0 926.6,280.0 930.4,268.0 934.2,280.0 938.0,268.0"/><polyline fill="none" stroke="#ef4444" stroke-width="2.5" stroke-linejoin="round" stroke-linecap="round" points="42.0,280.0 45.8,280.0 49.6,268.0 53.4,262.0 57.3,286.0 61.1,286.0 64.9,286.0 68.7,286.0 72.5,280.0 76.3,286.0 80.1,286.0 83.9,286.0 87.8,286.0 91.6,286.0 95.4,286.0 99.2,286.0 103.0,286.0 106.8,286.0 110.6,286.0 114.4,286.0 118.3,286.0 122.1,286.0 125.9,286.0 129.7,286.0 133.5,286.0 137.3,286.0 141.1,286.0 144.9,286.0 148.8,286.0 152.6,286.0 156.4,286.0 160.2,286.0 164.0,274.0 167.8,256.0 171.6,286.0 175.4,286.0 179.3,286.0 183.1,286.0 186.9,286.0 190.7,286.0 194.5,286.0 198.3,286.0 202.1,286.0 205.9,286.0 209.8,286.0 213.6,286.0 217.4,286.0 221.2,286.0 225.0,280.0 228.8,286.0 232.6,286.0 236.5,286.0 240.3,286.0 244.1,286.0 247.9,286.0 251.7,286.0 255.5,286.0 259.3,286.0 263.1,286.0 267.0,286.0 270.8,286.0 274.6,286.0 278.4,280.0 282.2,286.0 286.0,286.0 289.8,286.0 293.6,286.0 297.5,286.0 301.3,286.0 305.1,286.0 308.9,286.0 312.7,286.0 316.5,286.0 320.3,286.0 324.1,286.0 328.0,274.0 331.8,274.0 335.6,274.0 339.4,274.0 343.2,274.0 347.0,274.0 350.8,274.0 354.6,274.0 358.5,274.0 362.3,274.0 366.1,274.0 369.9,274.0 373.7,274.0 377.5,274.0 381.3,274.0 385.1,274.0 389.0,274.0 392.8,274.0 396.6,274.0 400.4,274.0 404.2,274.0 408.0,274.0 411.8,274.0 415.7,274.0 419.5,274.0 423.3,274.0 427.1,274.0 430.9,274.0 434.7,274.0 438.5,274.0 442.3,274.0 446.2,274.0 450.0,274.0 453.8,274.0 457.6,274.0 461.4,274.0 465.2,274.0 469.0,274.0 472.8,274.0 476.7,274.0 480.5,274.0 484.3,274.0 488.1,274.0 491.9,274.0 495.7,274.0 499.5,274.0 503.3,274.0 507.2,274.0 511.0,274.0 514.8,274.0 518.6,274.0 522.4,274.0 526.2,274.0 530.0,274.0 533.8,274.0 537.7,274.0 541.5,274.0 545.3,274.0 549.1,274.0 552.9,274.0 556.7,274.0 560.5,274.0 564.3,274.0 568.2,274.0 572.0,274.0 575.8,274.0 579.6,274.0 583.4,274.0 587.2,274.0 591.0,274.0 594.9,274.0 598.7,274.0 602.5,274.0 606.3,274.0 610.1,274.0 613.9,274.0 617.7,268.0 621.5,274.0 625.4,274.0 629.2,274.0 633.0,274.0 636.8,274.0 640.6,274.0 644.4,274.0 648.2,274.0 652.0,274.0 655.9,274.0 659.7,268.0 663.5,274.0 667.3,274.0 671.1,274.0 674.9,274.0 678.7,274.0 682.5,274.0 686.4,274.0 690.2,274.0 694.0,274.0 697.8,274.0 701.6,268.0 705.4,274.0 709.2,274.0 713.0,274.0 716.9,274.0 720.7,274.0 724.5,274.0 728.3,274.0 732.1,274.0 735.9,274.0 739.7,274.0 743.5,274.0 747.4,274.0 751.2,274.0 755.0,250.0 758.8,274.0 762.6,274.0 766.4,274.0 770.2,274.0 774.1,274.0 777.9,274.0 781.7,274.0 785.5,274.0 789.3,274.0 793.1,274.0 796.9,274.0 800.7,274.0 804.6,274.0 808.4,274.0 812.2,274.0 816.0,274.0 819.8,274.0 823.6,268.0 827.4,274.0 831.2,280.0 835.1,286.0 838.9,286.0 842.7,286.0 846.5,286.0 850.3,286.0 854.1,280.0 857.9,280.0 861.7,286.0 865.6,286.0 869.4,280.0 873.2,286.0 877.0,286.0 880.8,286.0 884.6,286.0 888.4,286.0 892.2,280.0 896.1,286.0 899.9,286.0 903.7,286.0 907.5,286.0 911.3,286.0 915.1,286.0 918.9,286.0 922.7,286.0 926.6,286.0 930.4,286.0 934.2,280.0 938.0,280.0"/><polyline fill="none" stroke="#a855f7" stroke-width="2.5" stroke-linejoin="round" stroke-linecap="round" points="42.0,286.0 45.8,286.0 49.6,286.0 53.4,286.0 57.3,286.0 61.1,286.0 64.9,286.0 68.7,286.0 72.5,286.0 76.3,286.0 80.1,286.0 83.9,286.0 87.8,286.0 91.6,286.0 95.4,286.0 99.2,286.0 103.0,286.0 106.8,286.0 110.6,286.0 114.4,286.0 118.3,286.0 122.1,286.0 125.9,286.0 129.7,286.0 133.5,286.0 137.3,286.0 141.1,286.0 144.9,286.0 148.8,286.0 152.6,286.0 156.4,286.0 160.2,286.0 164.0,286.0 167.8,286.0 171.6,286.0 175.4,286.0 179.3,286.0 183.1,286.0 186.9,286.0 190.7,286.0 194.5,286.0 198.3,286.0 202.1,286.0 205.9,286.0 209.8,286.0 213.6,286.0 217.4,286.0 221.2,286.0 225.0,286.0 228.8,286.0 232.6,286.0 236.5,286.0 240.3,286.0 244.1,286.0 247.9,286.0 251.7,286.0 255.5,286.0 259.3,286.0 263.1,286.0 267.0,286.0 270.8,286.0 274.6,286.0 278.4,286.0 282.2,286.0 286.0,286.0 289.8,286.0 293.6,286.0 297.5,286.0 301.3,286.0 305.1,286.0 308.9,280.0 312.7,286.0 316.5,286.0 320.3,286.0 324.1,286.0 328.0,286.0 331.8,286.0 335.6,286.0 339.4,286.0 343.2,286.0 347.0,286.0 350.8,286.0 354.6,286.0 358.5,286.0 362.3,286.0 366.1,286.0 369.9,286.0 373.7,286.0 377.5,286.0 381.3,286.0 385.1,286.0 389.0,286.0 392.8,286.0 396.6,286.0 400.4,286.0 404.2,286.0 408.0,286.0 411.8,286.0 415.7,286.0 419.5,286.0 423.3,286.0 427.1,286.0 430.9,286.0 434.7,286.0 438.5,286.0 442.3,286.0 446.2,286.0 450.0,286.0 453.8,286.0 457.6,286.0 461.4,286.0 465.2,286.0 469.0,286.0 472.8,286.0 476.7,286.0 480.5,286.0 484.3,286.0 488.1,286.0 491.9,286.0 495.7,286.0 499.5,286.0 503.3,286.0 507.2,286.0 511.0,286.0 514.8,286.0 518.6,286.0 522.4,286.0 526.2,286.0 530.0,286.0 533.8,286.0 537.7,286.0 541.5,286.0 545.3,286.0 549.1,286.0 552.9,286.0 556.7,286.0 560.5,286.0 564.3,286.0 568.2,286.0 572.0,286.0 575.8,286.0 579.6,286.0 583.4,286.0 587.2,286.0 591.0,286.0 594.9,286.0 598.7,286.0 602.5,286.0 606.3,286.0 610.1,286.0 613.9,286.0 617.7,286.0 621.5,286.0 625.4,286.0 629.2,286.0 633.0,286.0 636.8,286.0 640.6,280.0 644.4,286.0 648.2,286.0 652.0,286.0 655.9,286.0 659.7,286.0 663.5,286.0 667.3,286.0 671.1,286.0 674.9,286.0 678.7,286.0 682.5,286.0 686.4,286.0 690.2,286.0 694.0,286.0 697.8,286.0 701.6,286.0 705.4,286.0 709.2,286.0 713.0,286.0 716.9,286.0 720.7,286.0 724.5,286.0 728.3,286.0 732.1,286.0 735.9,286.0 739.7,286.0 743.5,286.0 747.4,286.0 751.2,286.0 755.0,286.0 758.8,286.0 762.6,286.0 766.4,286.0 770.2,286.0 774.1,286.0 777.9,286.0 781.7,286.0 785.5,286.0 789.3,286.0 793.1,286.0 796.9,286.0 800.7,286.0 804.6,286.0 808.4,286.0 812.2,286.0 816.0,286.0 819.8,286.0 823.6,286.0 827.4,286.0 831.2,286.0 835.1,286.0 838.9,286.0 842.7,286.0 846.5,286.0 850.3,286.0 854.1,286.0 857.9,286.0 861.7,280.0 865.6,286.0 869.4,286.0 873.2,286.0 877.0,286.0 880.8,286.0 884.6,286.0 888.4,286.0 892.2,286.0 896.1,286.0 899.9,280.0 903.7,286.0 907.5,286.0 911.3,286.0 915.1,286.0 918.9,286.0 922.7,286.0 926.6,286.0 930.4,286.0 934.2,286.0 938.0,286.0"/><text x="42" y="308" font-size="11" fill="#5a688a">19/06 12:43</text><text x="938" y="308" text-anchor="end" font-size="11" fill="#5a688a">02/07 15:29</text></svg>