<svg xmlns="http://www.w3.org/2000/svg" viewBox="0 0 960 320" width="960" height="320" font-family="Segoe UI, system-ui, -apple-system, Roboto, Helvetica, Arial, sans-serif" role="img" aria-label="Availability history per region"><rect x="0.5" y="0.5" width="959" height="319" rx="14" fill="#0d1117" stroke="#2c3a5e"/><text x="42" y="26" font-size="14" font-weight="600" fill="#e6ecff">History · 71 points</text><circle cx="47" cy="40" r="5" fill="#22c55e"/><text x="57" y="44" font-size="12" fill="#9fb0d4">Available</text><circle cx="139.8" cy="40" r="5" fill="#f59e0b"/><text x="149.8" y="44" font-size="12" fill="#9fb0d4">Saturated</text><circle cx="232.60000000000002" cy="40" r="5" fill="#ef4444"/><text x="242.60000000000002" y="44" font-size="12" fill="#9fb0d4">Error</text><circle cx="296.6" cy="40" r="5" fill="#a855f7"/><text x="306.6" y="44" font-size="12" fill="#9fb0d4">Timeout</text><line x1="42" y1="286.0" x2="938" y2="286.0" stroke="#21304f" stroke-width="1"/><text x="35" y="289.0" text-anchor="end" font-size="11" fill="#9fb0d4">0</text><line x1="42" y1="227.5" x2="938" y2="227.5" stroke="#21304f" stroke-width="1"/><text x="35" y="230.5" text-anchor="end" font-size="11" fill="#9fb0d4">10</text><line x1="42" y1="169.0" x2="938" y2="169.0" stroke="#21304f" stroke-width="1"/><text x="35" y="172.0" text-anchor="end" font-size="11" fill="#9fb0d4">20</text><line x1="42" y1="110.5" x2="938" y2="110.5" stroke="#21304f" stroke-width="1"/><text x="35" y="113.5" text-anchor="end" font-size="11" fill="#9fb0d4">29</text><line x1="42" y1="52.0" x2="938" y2="52.0" stroke="#21304f" stroke-width="1"/><text x="35" y="55.0" text-anchor="end" font-size="11" fill="#9fb0d4">39</text><polyline fill="none" stroke="#22c55e" stroke-width="2.5" stroke-linejoin="round" stroke-linecap="round" points="42.0,70.0 54.8,70.0 67.6,88.0 80.4,88.0 93.2,76.0 106.0,76.0 118.8,76.0 131.6,70.0 144.4,76.0 157.2,70.0 170.0,64.0 182.8,58.0 195.6,58.0 208.4,58.0 221.2,58.0 234.0,58.0 246.8,58.0 259.6,58.0 272.4,58.0 285.2,58.0 298.0,58.0 310.8,58.0 323.6,58.0 336.4,58.0 349.2,58.0 362.0,58.0 374.8,58.0 387.6,58.0 400.4,58.0 413.2,58.0 426.0,58.0 438.8,70.0 451.6,76.0 464.4,94.0 477.2,64.0 490.0,64.0 502.8,58.0 515.6,58.0 528.4,58.0 541.2,70.0 554.0,76.0 566.8,76.0 579.6,82.0 592.4,82.0 605.2,82.0 618.0,82.0 630.8,76.0 643.6,64.0 656.4,70.0 669.2,70.0 682.0,82.0 694.8,76.0 707.6,76.0 720.4,82.0 733.2,76.0 746.0,76.0 758.8,76.0 771.6,64.0 784.4,64.0 797.2,76.0 810.0,76.0 822.8,76.0 835.6,88.0 848.4,70.0 861.2,64.0 874.0,58.0 886.8,58.0 899.6,70.0 912.4,70.0 925.2,70.0 938.0,76.0"/><polyline fill="none" stroke="#f59e0b" stroke-width="2.5" stroke-linejoin="round" stroke-linecap="round" points="42.0,274.0 54.8,274.0 67.6,274.0 80.4,280.0 93.2,268.0 106.0,268.0 118.8,268.0 131.6,274.0 144.4,274.0 157.2,274.0 170.0,280.0 182.8,286.0 195.6,286.0 208.4,286.0 221.2,286.0 234.0,286.0 246.8,286.0 259.6,286.0 272.4,286.0 285.2,286.0 298.0,286.0 310.8,286.0 323.6,286.0 336.4,286.0 349.2,286.0 362.0,286.0 374.8,286.0 387.6,286.0 400.4,286.0 413.2,286.0 426.0,286.0 438.8,274.0 451.6,280.0 464.4,280.0 477.2,280.0 490.0,280.0 502.8,286.0 515.6,286.0 528.4,286.0 541.2,274.0 554.0,268.0 566.8,268.0 579.6,262.0 592.4,262.0 605.2,262.0 618.0,262.0 630.8,268.0 643.6,280.0 656.4,280.0 669.2,274.0 682.0,262.0 694.8,268.0 707.6,268.0 720.4,262.0 733.2,268.0 746.0,268.0 758.8,268.0 771.6,280.0 784.4,280.0 797.2,268.0 810.0,268.0 822.8,268.0 835.6,262.0 848.4,274.0 861.2,280.0 874.0,286.0 886.8,286.0 899.6,274.0 912.4,274.0 925.2,274.0 938.0,274.0"/><polyline fill="none" stroke="#ef4444" stroke-width="2.5" stroke-linejoin="round" stroke-linecap="round" points="42.0,280.0 54.8,280.0 67.6,268.0 80.4,262.0 93.2,286.0 106.0,286.0 118.8,286.0 131.6,286.0 144.4,280.0 157.2,286.0 170.0,286.0 182.8,286.0 195.6,286.0 208.4,286.0 221.2,286.0 234.0,286.0 246.8,286.0 259.6,286.0 272.4,286.0 285.2,286.0 298.0,286.0 310.8,286.0 323.6,286.0 336.4,286.0 349.2,286.0 362.0,286.0 374.8,286.0 387.6,286.0 400.4,286.0 413.2,286.0 426.0,286.0 438.8,286.0 451.6,274.0 464.4,256.0 477.2,286.0 490.0,286.0 502.8,286.0 515.6,286.0 528.4,286.0 541.2,286.0 554.0,286.0 566.8,286.0 579.6,286.0 592.4,286.0 605.2,286.0 618.0,286.0 630.8,286.0 643.6,286.0 656.4,280.0 669.2,286.0 682.0,286.0 694.8,286.0 707.6,286.0 720.4,286.0 733.2,286.0 746.0,286.0 758.8,286.0 771.6,286.0 784.4,286.0 797.2,286.0 810.0,286.0 822.8,286.0 835.6,280.0 848.4,286.0 861.2,286.0 874.0,286.0 886.8,286.0 899.6,286.0 912.4,286.0 925.2,286.0 938.0,286.0"/><polyline fill="none" stroke="#a855f7" stroke-width="2.5" stroke-linejoin="round" stroke-linecap="round" points="42.0,286.0 54.8,286.0 67.6,286.0 80.4,286.0 93.2,286.0 106.0,286.0 118.8,286.0 131.6,286.0 144.4,286.0 157.2,286.0 170.0,286.0 182.8,286.0 195.6,286.0 208.4,286.0 221.2,286.0 234.0,286.0 246.8,286.0 259.6,286.0 272.4,286.0 285.2,286.0 298.0,286.0 310.8,286.0 323.6,286.0 336.4,286.0 349.2,286.0 362.0,286.0 374.8,286.0 387.6,286.0 400.4,286.0 413.2,286.0 426.0,286.0 438.8,286.0 451.6,286.0 464.4,286.0 477.2,286.0 490.0,286.0 502.8,286.0 515.6,286.0 528.4,286.0 541.2,286.0 554.0,286.0 566.8,286.0 579.6,286.0 592.4,286.0 605.2,286.0 618.0,286.0 630.8,286.0 643.6,286.0 656.4,286.0 669.2,286.0 682.0,286.0 694.8,286.0 707.6,286.0 720.4,286.0 733.2,286.0 746.0,286.0 758.8,286.0 771.6,286.0 784.4,286.0 797.2,286.0 810.0,286.0 822.8,286.0 835.6,286.0 848.4,286.0 861.2,286.0 874.0,286.0 886.8,286.0 899.6,286.0 912.4,286.0 925.2,286.0 938.0,280.0"/><text x="42" y="308" font-size="11" fill="#9fb0d4">19/06 12:43</text><text x="938" y="308" text-anchor="end" font-size="11" fill="#9fb0d4">26/06 16:42</text></svg>