<svg xmlns="http://www.w3.org/2000/svg" viewBox="0 0 960 320" width="960" height="320" font-family="Segoe UI, system-ui, -apple-system, Roboto, Helvetica, Arial, sans-serif" role="img" aria-label="Availability history per region"><rect x="0.5" y="0.5" width="959" height="319" rx="14" fill="#0d1117" stroke="#2c3a5e"/><text x="42" y="26" font-size="14" font-weight="600" fill="#e6ecff">History · 183 points</text><circle cx="47" cy="40" r="5" fill="#22c55e"/><text x="57" y="44" font-size="12" fill="#9fb0d4">Available</text><circle cx="139.8" cy="40" r="5" fill="#f59e0b"/><text x="149.8" y="44" font-size="12" fill="#9fb0d4">Saturated</text><circle cx="232.60000000000002" cy="40" r="5" fill="#ef4444"/><text x="242.60000000000002" y="44" font-size="12" fill="#9fb0d4">Error</text><circle cx="296.6" cy="40" r="5" fill="#a855f7"/><text x="306.6" y="44" font-size="12" fill="#9fb0d4">Timeout</text><line x1="42" y1="286.0" x2="938" y2="286.0" stroke="#21304f" stroke-width="1"/><text x="35" y="289.0" text-anchor="end" font-size="11" fill="#9fb0d4">0</text><line x1="42" y1="227.5" x2="938" y2="227.5" stroke="#21304f" stroke-width="1"/><text x="35" y="230.5" text-anchor="end" font-size="11" fill="#9fb0d4">10</text><line x1="42" y1="169.0" x2="938" y2="169.0" stroke="#21304f" stroke-width="1"/><text x="35" y="172.0" text-anchor="end" font-size="11" fill="#9fb0d4">20</text><line x1="42" y1="110.5" x2="938" y2="110.5" stroke="#21304f" stroke-width="1"/><text x="35" y="113.5" text-anchor="end" font-size="11" fill="#9fb0d4">29</text><line x1="42" y1="52.0" x2="938" y2="52.0" stroke="#21304f" stroke-width="1"/><text x="35" y="55.0" text-anchor="end" font-size="11" fill="#9fb0d4">39</text><polyline fill="none" stroke="#22c55e" stroke-width="2.5" stroke-linejoin="round" stroke-linecap="round" points="42.0,70.0 46.9,70.0 51.8,88.0 56.8,88.0 61.7,76.0 66.6,76.0 71.5,76.0 76.5,70.0 81.4,76.0 86.3,70.0 91.2,64.0 96.2,58.0 101.1,58.0 106.0,58.0 110.9,58.0 115.8,58.0 120.8,58.0 125.7,58.0 130.6,58.0 135.5,58.0 140.5,58.0 145.4,58.0 150.3,58.0 155.2,58.0 160.2,58.0 165.1,58.0 170.0,58.0 174.9,58.0 179.8,58.0 184.8,58.0 189.7,58.0 194.6,70.0 199.5,76.0 204.5,94.0 209.4,64.0 214.3,64.0 219.2,58.0 224.2,58.0 229.1,58.0 234.0,70.0 238.9,76.0 243.8,76.0 248.8,82.0 253.7,82.0 258.6,82.0 263.5,82.0 268.5,76.0 273.4,64.0 278.3,70.0 283.2,70.0 288.2,82.0 293.1,76.0 298.0,76.0 302.9,82.0 307.8,76.0 312.8,76.0 317.7,76.0 322.6,64.0 327.5,64.0 332.5,76.0 337.4,76.0 342.3,76.0 347.2,88.0 352.2,70.0 357.1,64.0 362.0,58.0 366.9,58.0 371.8,70.0 376.8,70.0 381.7,70.0 386.6,76.0 391.5,70.0 396.5,70.0 401.4,70.0 406.3,70.0 411.2,76.0 416.2,82.0 421.1,76.0 426.0,70.0 430.9,70.0 435.8,70.0 440.8,70.0 445.7,76.0 450.6,70.0 455.5,70.0 460.5,70.0 465.4,70.0 470.3,70.0 475.2,70.0 480.2,70.0 485.1,70.0 490.0,70.0 494.9,70.0 499.8,70.0 504.8,70.0 509.7,70.0 514.6,70.0 519.5,70.0 524.5,70.0 529.4,70.0 534.3,70.0 539.2,70.0 544.2,70.0 549.1,70.0 554.0,70.0 558.9,70.0 563.8,70.0 568.8,70.0 573.7,70.0 578.6,70.0 583.5,70.0 588.5,70.0 593.4,70.0 598.3,70.0 603.2,70.0 608.2,70.0 613.1,70.0 618.0,70.0 622.9,70.0 627.8,70.0 632.8,70.0 637.7,70.0 642.6,70.0 647.5,70.0 652.5,70.0 657.4,70.0 662.3,70.0 667.2,70.0 672.2,70.0 677.1,70.0 682.0,70.0 686.9,70.0 691.8,70.0 696.8,70.0 701.7,70.0 706.6,70.0 711.5,70.0 716.5,70.0 721.4,70.0 726.3,70.0 731.2,70.0 736.2,70.0 741.1,70.0 746.0,70.0 750.9,70.0 755.8,70.0 760.8,70.0 765.7,70.0 770.6,70.0 775.5,70.0 780.5,70.0 785.4,76.0 790.3,70.0 795.2,70.0 800.2,70.0 805.1,70.0 810.0,70.0 814.9,76.0 819.8,76.0 824.8,88.0 829.7,88.0 834.6,88.0 839.5,94.0 844.5,94.0 849.4,94.0 854.3,94.0 859.2,88.0 864.2,88.0 869.1,82.0 874.0,82.0 878.9,82.0 883.8,88.0 888.8,88.0 893.7,94.0 898.6,82.0 903.5,82.0 908.5,82.0 913.4,82.0 918.3,88.0 923.2,88.0 928.2,94.0 933.1,94.0 938.0,88.0"/><polyline fill="none" stroke="#f59e0b" stroke-width="2.5" stroke-linejoin="round" stroke-linecap="round" points="42.0,274.0 46.9,274.0 51.8,274.0 56.8,280.0 61.7,268.0 66.6,268.0 71.5,268.0 76.5,274.0 81.4,274.0 86.3,274.0 91.2,280.0 96.2,286.0 101.1,286.0 106.0,286.0 110.9,286.0 115.8,286.0 120.8,286.0 125.7,286.0 130.6,286.0 135.5,286.0 140.5,286.0 145.4,286.0 150.3,286.0 155.2,286.0 160.2,286.0 165.1,286.0 170.0,286.0 174.9,286.0 179.8,286.0 184.8,286.0 189.7,286.0 194.6,274.0 199.5,280.0 204.5,280.0 209.4,280.0 214.3,280.0 219.2,286.0 224.2,286.0 229.1,286.0 234.0,274.0 238.9,268.0 243.8,268.0 248.8,262.0 253.7,262.0 258.6,262.0 263.5,262.0 268.5,268.0 273.4,280.0 278.3,280.0 283.2,274.0 288.2,262.0 293.1,268.0 298.0,268.0 302.9,262.0 307.8,268.0 312.8,268.0 317.7,268.0 322.6,280.0 327.5,280.0 332.5,268.0 337.4,268.0 342.3,268.0 347.2,262.0 352.2,274.0 357.1,280.0 362.0,286.0 366.9,286.0 371.8,274.0 376.8,274.0 381.7,274.0 386.6,274.0 391.5,274.0 396.5,274.0 401.4,274.0 406.3,274.0 411.2,280.0 416.2,274.0 421.1,280.0 426.0,286.0 430.9,286.0 435.8,286.0 440.8,286.0 445.7,280.0 450.6,286.0 455.5,286.0 460.5,286.0 465.4,286.0 470.3,286.0 475.2,286.0 480.2,286.0 485.1,286.0 490.0,286.0 494.9,286.0 499.8,286.0 504.8,286.0 509.7,286.0 514.6,286.0 519.5,286.0 524.5,286.0 529.4,286.0 534.3,286.0 539.2,286.0 544.2,286.0 549.1,286.0 554.0,286.0 558.9,286.0 563.8,286.0 568.8,286.0 573.7,286.0 578.6,286.0 583.5,286.0 588.5,286.0 593.4,286.0 598.3,286.0 603.2,286.0 608.2,286.0 613.1,286.0 618.0,286.0 622.9,286.0 627.8,286.0 632.8,286.0 637.7,286.0 642.6,286.0 647.5,286.0 652.5,286.0 657.4,286.0 662.3,286.0 667.2,286.0 672.2,286.0 677.1,286.0 682.0,286.0 686.9,286.0 691.8,286.0 696.8,286.0 701.7,286.0 706.6,286.0 711.5,286.0 716.5,286.0 721.4,286.0 726.3,286.0 731.2,286.0 736.2,286.0 741.1,286.0 746.0,286.0 750.9,286.0 755.8,286.0 760.8,286.0 765.7,286.0 770.6,286.0 775.5,286.0 780.5,286.0 785.4,286.0 790.3,286.0 795.2,286.0 800.2,286.0 805.1,286.0 810.0,286.0 814.9,286.0 819.8,280.0 824.8,268.0 829.7,268.0 834.6,268.0 839.5,268.0 844.5,262.0 849.4,262.0 854.3,262.0 859.2,268.0 864.2,268.0 869.1,274.0 874.0,274.0 878.9,274.0 883.8,268.0 888.8,268.0 893.7,268.0 898.6,274.0 903.5,274.0 908.5,274.0 913.4,274.0 918.3,268.0 923.2,268.0 928.2,262.0 933.1,262.0 938.0,268.0"/><polyline fill="none" stroke="#ef4444" stroke-width="2.5" stroke-linejoin="round" stroke-linecap="round" points="42.0,280.0 46.9,280.0 51.8,268.0 56.8,262.0 61.7,286.0 66.6,286.0 71.5,286.0 76.5,286.0 81.4,280.0 86.3,286.0 91.2,286.0 96.2,286.0 101.1,286.0 106.0,286.0 110.9,286.0 115.8,286.0 120.8,286.0 125.7,286.0 130.6,286.0 135.5,286.0 140.5,286.0 145.4,286.0 150.3,286.0 155.2,286.0 160.2,286.0 165.1,286.0 170.0,286.0 174.9,286.0 179.8,286.0 184.8,286.0 189.7,286.0 194.6,286.0 199.5,274.0 204.5,256.0 209.4,286.0 214.3,286.0 219.2,286.0 224.2,286.0 229.1,286.0 234.0,286.0 238.9,286.0 243.8,286.0 248.8,286.0 253.7,286.0 258.6,286.0 263.5,286.0 268.5,286.0 273.4,286.0 278.3,280.0 283.2,286.0 288.2,286.0 293.1,286.0 298.0,286.0 302.9,286.0 307.8,286.0 312.8,286.0 317.7,286.0 322.6,286.0 327.5,286.0 332.5,286.0 337.4,286.0 342.3,286.0 347.2,280.0 352.2,286.0 357.1,286.0 362.0,286.0 366.9,286.0 371.8,286.0 376.8,286.0 381.7,286.0 386.6,286.0 391.5,286.0 396.5,286.0 401.4,286.0 406.3,286.0 411.2,274.0 416.2,274.0 421.1,274.0 426.0,274.0 430.9,274.0 435.8,274.0 440.8,274.0 445.7,274.0 450.6,274.0 455.5,274.0 460.5,274.0 465.4,274.0 470.3,274.0 475.2,274.0 480.2,274.0 485.1,274.0 490.0,274.0 494.9,274.0 499.8,274.0 504.8,274.0 509.7,274.0 514.6,274.0 519.5,274.0 524.5,274.0 529.4,274.0 534.3,274.0 539.2,274.0 544.2,274.0 549.1,274.0 554.0,274.0 558.9,274.0 563.8,274.0 568.8,274.0 573.7,274.0 578.6,274.0 583.5,274.0 588.5,274.0 593.4,274.0 598.3,274.0 603.2,274.0 608.2,274.0 613.1,274.0 618.0,274.0 622.9,274.0 627.8,274.0 632.8,274.0 637.7,274.0 642.6,274.0 647.5,274.0 652.5,274.0 657.4,274.0 662.3,274.0 667.2,274.0 672.2,274.0 677.1,274.0 682.0,274.0 686.9,274.0 691.8,274.0 696.8,274.0 701.7,274.0 706.6,274.0 711.5,274.0 716.5,274.0 721.4,274.0 726.3,274.0 731.2,274.0 736.2,274.0 741.1,274.0 746.0,274.0 750.9,274.0 755.8,274.0 760.8,274.0 765.7,274.0 770.6,274.0 775.5,274.0 780.5,274.0 785.4,268.0 790.3,274.0 795.2,274.0 800.2,274.0 805.1,274.0 810.0,274.0 814.9,274.0 819.8,274.0 824.8,274.0 829.7,274.0 834.6,274.0 839.5,268.0 844.5,274.0 849.4,274.0 854.3,274.0 859.2,274.0 864.2,274.0 869.1,274.0 874.0,274.0 878.9,274.0 883.8,274.0 888.8,274.0 893.7,268.0 898.6,274.0 903.5,274.0 908.5,274.0 913.4,274.0 918.3,274.0 923.2,274.0 928.2,274.0 933.1,274.0 938.0,274.0"/><polyline fill="none" stroke="#a855f7" stroke-width="2.5" stroke-linejoin="round" stroke-linecap="round" points="42.0,286.0 46.9,286.0 51.8,286.0 56.8,286.0 61.7,286.0 66.6,286.0 71.5,286.0 76.5,286.0 81.4,286.0 86.3,286.0 91.2,286.0 96.2,286.0 101.1,286.0 106.0,286.0 110.9,286.0 115.8,286.0 120.8,286.0 125.7,286.0 130.6,286.0 135.5,286.0 140.5,286.0 145.4,286.0 150.3,286.0 155.2,286.0 160.2,286.0 165.1,286.0 170.0,286.0 174.9,286.0 179.8,286.0 184.8,286.0 189.7,286.0 194.6,286.0 199.5,286.0 204.5,286.0 209.4,286.0 214.3,286.0 219.2,286.0 224.2,286.0 229.1,286.0 234.0,286.0 238.9,286.0 243.8,286.0 248.8,286.0 253.7,286.0 258.6,286.0 263.5,286.0 268.5,286.0 273.4,286.0 278.3,286.0 283.2,286.0 288.2,286.0 293.1,286.0 298.0,286.0 302.9,286.0 307.8,286.0 312.8,286.0 317.7,286.0 322.6,286.0 327.5,286.0 332.5,286.0 337.4,286.0 342.3,286.0 347.2,286.0 352.2,286.0 357.1,286.0 362.0,286.0 366.9,286.0 371.8,286.0 376.8,286.0 381.7,286.0 386.6,280.0 391.5,286.0 396.5,286.0 401.4,286.0 406.3,286.0 411.2,286.0 416.2,286.0 421.1,286.0 426.0,286.0 430.9,286.0 435.8,286.0 440.8,286.0 445.7,286.0 450.6,286.0 455.5,286.0 460.5,286.0 465.4,286.0 470.3,286.0 475.2,286.0 480.2,286.0 485.1,286.0 490.0,286.0 494.9,286.0 499.8,286.0 504.8,286.0 509.7,286.0 514.6,286.0 519.5,286.0 524.5,286.0 529.4,286.0 534.3,286.0 539.2,286.0 544.2,286.0 549.1,286.0 554.0,286.0 558.9,286.0 563.8,286.0 568.8,286.0 573.7,286.0 578.6,286.0 583.5,286.0 588.5,286.0 593.4,286.0 598.3,286.0 603.2,286.0 608.2,286.0 613.1,286.0 618.0,286.0 622.9,286.0 627.8,286.0 632.8,286.0 637.7,286.0 642.6,286.0 647.5,286.0 652.5,286.0 657.4,286.0 662.3,286.0 667.2,286.0 672.2,286.0 677.1,286.0 682.0,286.0 686.9,286.0 691.8,286.0 696.8,286.0 701.7,286.0 706.6,286.0 711.5,286.0 716.5,286.0 721.4,286.0 726.3,286.0 731.2,286.0 736.2,286.0 741.1,286.0 746.0,286.0 750.9,286.0 755.8,286.0 760.8,286.0 765.7,286.0 770.6,286.0 775.5,286.0 780.5,286.0 785.4,286.0 790.3,286.0 795.2,286.0 800.2,286.0 805.1,286.0 810.0,286.0 814.9,280.0 819.8,286.0 824.8,286.0 829.7,286.0 834.6,286.0 839.5,286.0 844.5,286.0 849.4,286.0 854.3,286.0 859.2,286.0 864.2,286.0 869.1,286.0 874.0,286.0 878.9,286.0 883.8,286.0 888.8,286.0 893.7,286.0 898.6,286.0 903.5,286.0 908.5,286.0 913.4,286.0 918.3,286.0 923.2,286.0 928.2,286.0 933.1,286.0 938.0,286.0"/><text x="42" y="308" font-size="11" fill="#9fb0d4">19/06 12:43</text><text x="938" y="308" text-anchor="end" font-size="11" fill="#9fb0d4">30/06 09:29</text></svg>