<svg xmlns="http://www.w3.org/2000/svg" viewBox="0 0 960 320" width="960" height="320" font-family="Segoe UI, system-ui, -apple-system, Roboto, Helvetica, Arial, sans-serif" role="img" aria-label="Availability history per region"><rect x="0.5" y="0.5" width="959" height="319" rx="14" fill="#0d1117" stroke="#2c3a5e"/><text x="42" y="26" font-size="14" font-weight="600" fill="#e6ecff">History · 80 points</text><circle cx="47" cy="40" r="5" fill="#22c55e"/><text x="57" y="44" font-size="12" fill="#9fb0d4">Available</text><circle cx="139.8" cy="40" r="5" fill="#f59e0b"/><text x="149.8" y="44" font-size="12" fill="#9fb0d4">Saturated</text><circle cx="232.60000000000002" cy="40" r="5" fill="#ef4444"/><text x="242.60000000000002" y="44" font-size="12" fill="#9fb0d4">Error</text><circle cx="296.6" cy="40" r="5" fill="#a855f7"/><text x="306.6" y="44" font-size="12" fill="#9fb0d4">Timeout</text><line x1="42" y1="286.0" x2="938" y2="286.0" stroke="#21304f" stroke-width="1"/><text x="35" y="289.0" text-anchor="end" font-size="11" fill="#9fb0d4">0</text><line x1="42" y1="227.5" x2="938" y2="227.5" stroke="#21304f" stroke-width="1"/><text x="35" y="230.5" text-anchor="end" font-size="11" fill="#9fb0d4">10</text><line x1="42" y1="169.0" x2="938" y2="169.0" stroke="#21304f" stroke-width="1"/><text x="35" y="172.0" text-anchor="end" font-size="11" fill="#9fb0d4">19</text><line x1="42" y1="110.5" x2="938" y2="110.5" stroke="#21304f" stroke-width="1"/><text x="35" y="113.5" text-anchor="end" font-size="11" fill="#9fb0d4">28</text><line x1="42" y1="52.0" x2="938" y2="52.0" stroke="#21304f" stroke-width="1"/><text x="35" y="55.0" text-anchor="end" font-size="11" fill="#9fb0d4">38</text><polyline fill="none" stroke="#22c55e" stroke-width="2.5" stroke-linejoin="round" stroke-linecap="round" points="42.0,64.3 53.3,224.4 64.7,82.8 76.0,88.9 87.4,82.8 98.7,76.6 110.1,76.6 121.4,76.6 132.7,76.6 144.1,76.6 155.4,76.6 166.8,76.6 178.1,76.6 189.4,76.6 200.8,76.6 212.1,70.5 223.5,70.5 234.8,82.8 246.2,82.8 257.5,82.8 268.8,88.9 280.2,88.9 291.5,88.9 302.9,88.9 314.2,88.9 325.5,88.9 336.9,88.9 348.2,88.9 359.6,88.9 370.9,82.8 382.3,82.8 393.6,82.8 404.9,82.8 416.3,76.6 427.6,76.6 439.0,76.6 450.3,76.6 461.6,76.6 473.0,82.8 484.3,82.8 495.7,82.8 507.0,82.8 518.4,76.6 529.7,76.6 541.0,76.6 552.4,76.6 563.7,76.6 575.1,76.6 586.4,76.6 597.7,82.8 609.1,82.8 620.4,82.8 631.8,82.8 643.1,76.6 654.5,76.6 665.8,76.6 677.1,76.6 688.5,76.6 699.8,76.6 711.2,76.6 722.5,76.6 733.8,82.8 745.2,76.6 756.5,76.6 767.9,76.6 779.2,76.6 790.6,76.6 801.9,82.8 813.2,76.6 824.6,76.6 835.9,76.6 847.3,76.6 858.6,76.6 869.9,76.6 881.3,76.6 892.6,76.6 904.0,76.6 915.3,70.5 926.7,70.5 938.0,70.5"/><polyline fill="none" stroke="#f59e0b" stroke-width="2.5" stroke-linejoin="round" stroke-linecap="round" points="42.0,273.7 53.3,267.5 64.7,255.2 76.0,249.1 87.4,255.2 98.7,261.4 110.1,261.4 121.4,261.4 132.7,261.4 144.1,261.4 155.4,261.4 166.8,261.4 178.1,261.4 189.4,261.4 200.8,261.4 212.1,267.5 223.5,267.5 234.8,261.4 246.2,255.2 257.5,255.2 268.8,249.1 280.2,249.1 291.5,249.1 302.9,249.1 314.2,249.1 325.5,249.1 336.9,249.1 348.2,249.1 359.6,249.1 370.9,255.2 382.3,255.2 393.6,255.2 404.9,255.2 416.3,261.4 427.6,261.4 439.0,261.4 450.3,261.4 461.6,261.4 473.0,255.2 484.3,255.2 495.7,255.2 507.0,255.2 518.4,261.4 529.7,261.4 541.0,261.4 552.4,261.4 563.7,261.4 575.1,261.4 586.4,261.4 597.7,255.2 609.1,255.2 620.4,255.2 631.8,261.4 643.1,261.4 654.5,261.4 665.8,261.4 677.1,261.4 688.5,261.4 699.8,261.4 711.2,261.4 722.5,261.4 733.8,255.2 745.2,261.4 756.5,261.4 767.9,261.4 779.2,261.4 790.6,261.4 801.9,261.4 813.2,261.4 824.6,261.4 835.9,261.4 847.3,261.4 858.6,261.4 869.9,261.4 881.3,261.4 892.6,261.4 904.0,261.4 915.3,267.5 926.7,267.5 938.0,267.5"/><polyline fill="none" stroke="#ef4444" stroke-width="2.5" stroke-linejoin="round" stroke-linecap="round" points="42.0,286.0 53.3,132.1 64.7,286.0 76.0,286.0 87.4,286.0 98.7,286.0 110.1,286.0 121.4,286.0 132.7,286.0 144.1,286.0 155.4,286.0 166.8,286.0 178.1,286.0 189.4,286.0 200.8,286.0 212.1,286.0 223.5,286.0 234.8,279.8 246.2,286.0 257.5,286.0 268.8,286.0 280.2,286.0 291.5,286.0 302.9,286.0 314.2,286.0 325.5,286.0 336.9,286.0 348.2,286.0 359.6,286.0 370.9,286.0 382.3,286.0 393.6,286.0 404.9,286.0 416.3,286.0 427.6,286.0 439.0,286.0 450.3,286.0 461.6,286.0 473.0,286.0 484.3,286.0 495.7,286.0 507.0,286.0 518.4,286.0 529.7,286.0 541.0,286.0 552.4,286.0 563.7,286.0 575.1,286.0 586.4,286.0 597.7,286.0 609.1,286.0 620.4,286.0 631.8,286.0 643.1,286.0 654.5,286.0 665.8,286.0 677.1,286.0 688.5,286.0 699.8,286.0 711.2,286.0 722.5,286.0 733.8,286.0 745.2,286.0 756.5,286.0 767.9,286.0 779.2,286.0 790.6,286.0 801.9,279.8 813.2,286.0 824.6,286.0 835.9,286.0 847.3,286.0 858.6,286.0 869.9,286.0 881.3,286.0 892.6,286.0 904.0,286.0 915.3,286.0 926.7,286.0 938.0,286.0"/><polyline fill="none" stroke="#a855f7" stroke-width="2.5" stroke-linejoin="round" stroke-linecap="round" points="42.0,286.0 53.3,286.0 64.7,286.0 76.0,286.0 87.4,286.0 98.7,286.0 110.1,286.0 121.4,286.0 132.7,286.0 144.1,286.0 155.4,286.0 166.8,286.0 178.1,286.0 189.4,286.0 200.8,286.0 212.1,286.0 223.5,286.0 234.8,286.0 246.2,286.0 257.5,286.0 268.8,286.0 280.2,286.0 291.5,286.0 302.9,286.0 314.2,286.0 325.5,286.0 336.9,286.0 348.2,286.0 359.6,286.0 370.9,286.0 382.3,286.0 393.6,286.0 404.9,286.0 416.3,286.0 427.6,286.0 439.0,286.0 450.3,286.0 461.6,286.0 473.0,286.0 484.3,286.0 495.7,286.0 507.0,286.0 518.4,286.0 529.7,286.0 541.0,286.0 552.4,286.0 563.7,286.0 575.1,286.0 586.4,286.0 597.7,286.0 609.1,286.0 620.4,286.0 631.8,279.8 643.1,286.0 654.5,286.0 665.8,286.0 677.1,286.0 688.5,286.0 699.8,286.0 711.2,286.0 722.5,286.0 733.8,286.0 745.2,286.0 756.5,286.0 767.9,286.0 779.2,286.0 790.6,286.0 801.9,286.0 813.2,286.0 824.6,286.0 835.9,286.0 847.3,286.0 858.6,286.0 869.9,286.0 881.3,286.0 892.6,286.0 904.0,286.0 915.3,286.0 926.7,286.0 938.0,286.0"/><text x="42" y="308" font-size="11" fill="#9fb0d4">19/06 15:39</text><text x="938" y="308" text-anchor="end" font-size="11" fill="#9fb0d4">19/07 21:29</text></svg>