<svg xmlns="http://www.w3.org/2000/svg" viewBox="0 0 960 320" width="960" height="320" font-family="Segoe UI, system-ui, -apple-system, Roboto, Helvetica, Arial, sans-serif" role="img" aria-label="Availability history per region"><rect x="0.5" y="0.5" width="959" height="319" rx="14" fill="#0d1117" stroke="#2c3a5e"/><text x="42" y="26" font-size="14" font-weight="600" fill="#e6ecff">History · 216 points</text><circle cx="47" cy="40" r="5" fill="#22c55e"/><text x="57" y="44" font-size="12" fill="#9fb0d4">Available</text><circle cx="139.8" cy="40" r="5" fill="#f59e0b"/><text x="149.8" y="44" font-size="12" fill="#9fb0d4">Saturated</text><circle cx="232.60000000000002" cy="40" r="5" fill="#ef4444"/><text x="242.60000000000002" y="44" font-size="12" fill="#9fb0d4">Error</text><circle cx="296.6" cy="40" r="5" fill="#a855f7"/><text x="306.6" y="44" font-size="12" fill="#9fb0d4">Timeout</text><line x1="42" y1="286.0" x2="938" y2="286.0" stroke="#21304f" stroke-width="1"/><text x="35" y="289.0" text-anchor="end" font-size="11" fill="#9fb0d4">0</text><line x1="42" y1="227.5" x2="938" y2="227.5" stroke="#21304f" stroke-width="1"/><text x="35" y="230.5" text-anchor="end" font-size="11" fill="#9fb0d4">10</text><line x1="42" y1="169.0" x2="938" y2="169.0" stroke="#21304f" stroke-width="1"/><text x="35" y="172.0" text-anchor="end" font-size="11" fill="#9fb0d4">20</text><line x1="42" y1="110.5" x2="938" y2="110.5" stroke="#21304f" stroke-width="1"/><text x="35" y="113.5" text-anchor="end" font-size="11" fill="#9fb0d4">29</text><line x1="42" y1="52.0" x2="938" y2="52.0" stroke="#21304f" stroke-width="1"/><text x="35" y="55.0" text-anchor="end" font-size="11" fill="#9fb0d4">39</text><polyline fill="none" stroke="#22c55e" stroke-width="2.5" stroke-linejoin="round" stroke-linecap="round" points="42.0,70.0 46.2,70.0 50.3,88.0 54.5,88.0 58.7,76.0 62.8,76.0 67.0,76.0 71.2,70.0 75.3,76.0 79.5,70.0 83.7,64.0 87.8,58.0 92.0,58.0 96.2,58.0 100.3,58.0 104.5,58.0 108.7,58.0 112.8,58.0 117.0,58.0 121.2,58.0 125.3,58.0 129.5,58.0 133.7,58.0 137.9,58.0 142.0,58.0 146.2,58.0 150.4,58.0 154.5,58.0 158.7,58.0 162.9,58.0 167.0,58.0 171.2,70.0 175.4,76.0 179.5,94.0 183.7,64.0 187.9,64.0 192.0,58.0 196.2,58.0 200.4,58.0 204.5,70.0 208.7,76.0 212.9,76.0 217.0,82.0 221.2,82.0 225.4,82.0 229.5,82.0 233.7,76.0 237.9,64.0 242.0,70.0 246.2,70.0 250.4,82.0 254.5,76.0 258.7,76.0 262.9,82.0 267.0,76.0 271.2,76.0 275.4,76.0 279.5,64.0 283.7,64.0 287.9,76.0 292.0,76.0 296.2,76.0 300.4,88.0 304.5,70.0 308.7,64.0 312.9,58.0 317.1,58.0 321.2,70.0 325.4,70.0 329.6,70.0 333.7,76.0 337.9,70.0 342.1,70.0 346.2,70.0 350.4,70.0 354.6,76.0 358.7,82.0 362.9,76.0 367.1,70.0 371.2,70.0 375.4,70.0 379.6,70.0 383.7,76.0 387.9,70.0 392.1,70.0 396.2,70.0 400.4,70.0 404.6,70.0 408.7,70.0 412.9,70.0 417.1,70.0 421.2,70.0 425.4,70.0 429.6,70.0 433.7,70.0 437.9,70.0 442.1,70.0 446.2,70.0 450.4,70.0 454.6,70.0 458.7,70.0 462.9,70.0 467.1,70.0 471.2,70.0 475.4,70.0 479.6,70.0 483.7,70.0 487.9,70.0 492.1,70.0 496.3,70.0 500.4,70.0 504.6,70.0 508.8,70.0 512.9,70.0 517.1,70.0 521.3,70.0 525.4,70.0 529.6,70.0 533.8,70.0 537.9,70.0 542.1,70.0 546.3,70.0 550.4,70.0 554.6,70.0 558.8,70.0 562.9,70.0 567.1,70.0 571.3,70.0 575.4,70.0 579.6,70.0 583.8,70.0 587.9,70.0 592.1,70.0 596.3,70.0 600.4,70.0 604.6,70.0 608.8,70.0 612.9,70.0 617.1,70.0 621.3,70.0 625.4,70.0 629.6,70.0 633.8,70.0 637.9,70.0 642.1,70.0 646.3,70.0 650.4,70.0 654.6,70.0 658.8,70.0 662.9,70.0 667.1,70.0 671.3,76.0 675.5,70.0 679.6,70.0 683.8,70.0 688.0,70.0 692.1,70.0 696.3,76.0 700.5,76.0 704.6,88.0 708.8,88.0 713.0,88.0 717.1,94.0 721.3,94.0 725.5,94.0 729.6,94.0 733.8,88.0 738.0,88.0 742.1,82.0 746.3,82.0 750.5,82.0 754.6,88.0 758.8,88.0 763.0,94.0 767.1,82.0 771.3,82.0 775.5,82.0 779.6,82.0 783.8,88.0 788.0,88.0 792.1,94.0 796.3,94.0 800.5,88.0 804.6,88.0 808.8,88.0 813.0,94.0 817.1,94.0 821.3,106.0 825.5,94.0 829.6,94.0 833.8,94.0 838.0,94.0 842.1,88.0 846.3,88.0 850.5,82.0 854.7,76.0 858.8,76.0 863.0,76.0 867.2,76.0 871.3,76.0 875.5,76.0 879.7,70.0 883.8,70.0 888.0,70.0 892.2,76.0 896.3,88.0 900.5,82.0 904.7,70.0 908.8,70.0 913.0,70.0 917.2,76.0 921.3,76.0 925.5,76.0 929.7,82.0 933.8,70.0 938.0,76.0"/><polyline fill="none" stroke="#f59e0b" stroke-width="2.5" stroke-linejoin="round" stroke-linecap="round" points="42.0,274.0 46.2,274.0 50.3,274.0 54.5,280.0 58.7,268.0 62.8,268.0 67.0,268.0 71.2,274.0 75.3,274.0 79.5,274.0 83.7,280.0 87.8,286.0 92.0,286.0 96.2,286.0 100.3,286.0 104.5,286.0 108.7,286.0 112.8,286.0 117.0,286.0 121.2,286.0 125.3,286.0 129.5,286.0 133.7,286.0 137.9,286.0 142.0,286.0 146.2,286.0 150.4,286.0 154.5,286.0 158.7,286.0 162.9,286.0 167.0,286.0 171.2,274.0 175.4,280.0 179.5,280.0 183.7,280.0 187.9,280.0 192.0,286.0 196.2,286.0 200.4,286.0 204.5,274.0 208.7,268.0 212.9,268.0 217.0,262.0 221.2,262.0 225.4,262.0 229.5,262.0 233.7,268.0 237.9,280.0 242.0,280.0 246.2,274.0 250.4,262.0 254.5,268.0 258.7,268.0 262.9,262.0 267.0,268.0 271.2,268.0 275.4,268.0 279.5,280.0 283.7,280.0 287.9,268.0 292.0,268.0 296.2,268.0 300.4,262.0 304.5,274.0 308.7,280.0 312.9,286.0 317.1,286.0 321.2,274.0 325.4,274.0 329.6,274.0 333.7,274.0 337.9,274.0 342.1,274.0 346.2,274.0 350.4,274.0 354.6,280.0 358.7,274.0 362.9,280.0 367.1,286.0 371.2,286.0 375.4,286.0 379.6,286.0 383.7,280.0 387.9,286.0 392.1,286.0 396.2,286.0 400.4,286.0 404.6,286.0 408.7,286.0 412.9,286.0 417.1,286.0 421.2,286.0 425.4,286.0 429.6,286.0 433.7,286.0 437.9,286.0 442.1,286.0 446.2,286.0 450.4,286.0 454.6,286.0 458.7,286.0 462.9,286.0 467.1,286.0 471.2,286.0 475.4,286.0 479.6,286.0 483.7,286.0 487.9,286.0 492.1,286.0 496.3,286.0 500.4,286.0 504.6,286.0 508.8,286.0 512.9,286.0 517.1,286.0 521.3,286.0 525.4,286.0 529.6,286.0 533.8,286.0 537.9,286.0 542.1,286.0 546.3,286.0 550.4,286.0 554.6,286.0 558.8,286.0 562.9,286.0 567.1,286.0 571.3,286.0 575.4,286.0 579.6,286.0 583.8,286.0 587.9,286.0 592.1,286.0 596.3,286.0 600.4,286.0 604.6,286.0 608.8,286.0 612.9,286.0 617.1,286.0 621.3,286.0 625.4,286.0 629.6,286.0 633.8,286.0 637.9,286.0 642.1,286.0 646.3,286.0 650.4,286.0 654.6,286.0 658.8,286.0 662.9,286.0 667.1,286.0 671.3,286.0 675.5,286.0 679.6,286.0 683.8,286.0 688.0,286.0 692.1,286.0 696.3,286.0 700.5,280.0 704.6,268.0 708.8,268.0 713.0,268.0 717.1,268.0 721.3,262.0 725.5,262.0 729.6,262.0 733.8,268.0 738.0,268.0 742.1,274.0 746.3,274.0 750.5,274.0 754.6,268.0 758.8,268.0 763.0,268.0 767.1,274.0 771.3,274.0 775.5,274.0 779.6,274.0 783.8,268.0 788.0,268.0 792.1,262.0 796.3,262.0 800.5,268.0 804.6,268.0 808.8,268.0 813.0,262.0 817.1,262.0 821.3,274.0 825.5,262.0 829.6,262.0 833.8,262.0 838.0,262.0 842.1,268.0 846.3,268.0 850.5,274.0 854.7,280.0 858.8,280.0 863.0,280.0 867.2,280.0 871.3,280.0 875.5,280.0 879.7,286.0 883.8,286.0 888.0,286.0 892.2,280.0 896.3,274.0 900.5,274.0 904.7,280.0 908.8,274.0 913.0,274.0 917.2,268.0 921.3,268.0 925.5,268.0 929.7,268.0 933.8,280.0 938.0,274.0"/><polyline fill="none" stroke="#ef4444" stroke-width="2.5" stroke-linejoin="round" stroke-linecap="round" points="42.0,280.0 46.2,280.0 50.3,268.0 54.5,262.0 58.7,286.0 62.8,286.0 67.0,286.0 71.2,286.0 75.3,280.0 79.5,286.0 83.7,286.0 87.8,286.0 92.0,286.0 96.2,286.0 100.3,286.0 104.5,286.0 108.7,286.0 112.8,286.0 117.0,286.0 121.2,286.0 125.3,286.0 129.5,286.0 133.7,286.0 137.9,286.0 142.0,286.0 146.2,286.0 150.4,286.0 154.5,286.0 158.7,286.0 162.9,286.0 167.0,286.0 171.2,286.0 175.4,274.0 179.5,256.0 183.7,286.0 187.9,286.0 192.0,286.0 196.2,286.0 200.4,286.0 204.5,286.0 208.7,286.0 212.9,286.0 217.0,286.0 221.2,286.0 225.4,286.0 229.5,286.0 233.7,286.0 237.9,286.0 242.0,280.0 246.2,286.0 250.4,286.0 254.5,286.0 258.7,286.0 262.9,286.0 267.0,286.0 271.2,286.0 275.4,286.0 279.5,286.0 283.7,286.0 287.9,286.0 292.0,286.0 296.2,286.0 300.4,280.0 304.5,286.0 308.7,286.0 312.9,286.0 317.1,286.0 321.2,286.0 325.4,286.0 329.6,286.0 333.7,286.0 337.9,286.0 342.1,286.0 346.2,286.0 350.4,286.0 354.6,274.0 358.7,274.0 362.9,274.0 367.1,274.0 371.2,274.0 375.4,274.0 379.6,274.0 383.7,274.0 387.9,274.0 392.1,274.0 396.2,274.0 400.4,274.0 404.6,274.0 408.7,274.0 412.9,274.0 417.1,274.0 421.2,274.0 425.4,274.0 429.6,274.0 433.7,274.0 437.9,274.0 442.1,274.0 446.2,274.0 450.4,274.0 454.6,274.0 458.7,274.0 462.9,274.0 467.1,274.0 471.2,274.0 475.4,274.0 479.6,274.0 483.7,274.0 487.9,274.0 492.1,274.0 496.3,274.0 500.4,274.0 504.6,274.0 508.8,274.0 512.9,274.0 517.1,274.0 521.3,274.0 525.4,274.0 529.6,274.0 533.8,274.0 537.9,274.0 542.1,274.0 546.3,274.0 550.4,274.0 554.6,274.0 558.8,274.0 562.9,274.0 567.1,274.0 571.3,274.0 575.4,274.0 579.6,274.0 583.8,274.0 587.9,274.0 592.1,274.0 596.3,274.0 600.4,274.0 604.6,274.0 608.8,274.0 612.9,274.0 617.1,274.0 621.3,274.0 625.4,274.0 629.6,274.0 633.8,274.0 637.9,274.0 642.1,274.0 646.3,274.0 650.4,274.0 654.6,274.0 658.8,274.0 662.9,274.0 667.1,274.0 671.3,268.0 675.5,274.0 679.6,274.0 683.8,274.0 688.0,274.0 692.1,274.0 696.3,274.0 700.5,274.0 704.6,274.0 708.8,274.0 713.0,274.0 717.1,268.0 721.3,274.0 725.5,274.0 729.6,274.0 733.8,274.0 738.0,274.0 742.1,274.0 746.3,274.0 750.5,274.0 754.6,274.0 758.8,274.0 763.0,268.0 767.1,274.0 771.3,274.0 775.5,274.0 779.6,274.0 783.8,274.0 788.0,274.0 792.1,274.0 796.3,274.0 800.5,274.0 804.6,274.0 808.8,274.0 813.0,274.0 817.1,274.0 821.3,250.0 825.5,274.0 829.6,274.0 833.8,274.0 838.0,274.0 842.1,274.0 846.3,274.0 850.5,274.0 854.7,274.0 858.8,274.0 863.0,274.0 867.2,274.0 871.3,274.0 875.5,274.0 879.7,274.0 883.8,274.0 888.0,274.0 892.2,274.0 896.3,268.0 900.5,274.0 904.7,280.0 908.8,286.0 913.0,286.0 917.2,286.0 921.3,286.0 925.5,286.0 929.7,280.0 933.8,280.0 938.0,286.0"/><polyline fill="none" stroke="#a855f7" stroke-width="2.5" stroke-linejoin="round" stroke-linecap="round" points="42.0,286.0 46.2,286.0 50.3,286.0 54.5,286.0 58.7,286.0 62.8,286.0 67.0,286.0 71.2,286.0 75.3,286.0 79.5,286.0 83.7,286.0 87.8,286.0 92.0,286.0 96.2,286.0 100.3,286.0 104.5,286.0 108.7,286.0 112.8,286.0 117.0,286.0 121.2,286.0 125.3,286.0 129.5,286.0 133.7,286.0 137.9,286.0 142.0,286.0 146.2,286.0 150.4,286.0 154.5,286.0 158.7,286.0 162.9,286.0 167.0,286.0 171.2,286.0 175.4,286.0 179.5,286.0 183.7,286.0 187.9,286.0 192.0,286.0 196.2,286.0 200.4,286.0 204.5,286.0 208.7,286.0 212.9,286.0 217.0,286.0 221.2,286.0 225.4,286.0 229.5,286.0 233.7,286.0 237.9,286.0 242.0,286.0 246.2,286.0 250.4,286.0 254.5,286.0 258.7,286.0 262.9,286.0 267.0,286.0 271.2,286.0 275.4,286.0 279.5,286.0 283.7,286.0 287.9,286.0 292.0,286.0 296.2,286.0 300.4,286.0 304.5,286.0 308.7,286.0 312.9,286.0 317.1,286.0 321.2,286.0 325.4,286.0 329.6,286.0 333.7,280.0 337.9,286.0 342.1,286.0 346.2,286.0 350.4,286.0 354.6,286.0 358.7,286.0 362.9,286.0 367.1,286.0 371.2,286.0 375.4,286.0 379.6,286.0 383.7,286.0 387.9,286.0 392.1,286.0 396.2,286.0 400.4,286.0 404.6,286.0 408.7,286.0 412.9,286.0 417.1,286.0 421.2,286.0 425.4,286.0 429.6,286.0 433.7,286.0 437.9,286.0 442.1,286.0 446.2,286.0 450.4,286.0 454.6,286.0 458.7,286.0 462.9,286.0 467.1,286.0 471.2,286.0 475.4,286.0 479.6,286.0 483.7,286.0 487.9,286.0 492.1,286.0 496.3,286.0 500.4,286.0 504.6,286.0 508.8,286.0 512.9,286.0 517.1,286.0 521.3,286.0 525.4,286.0 529.6,286.0 533.8,286.0 537.9,286.0 542.1,286.0 546.3,286.0 550.4,286.0 554.6,286.0 558.8,286.0 562.9,286.0 567.1,286.0 571.3,286.0 575.4,286.0 579.6,286.0 583.8,286.0 587.9,286.0 592.1,286.0 596.3,286.0 600.4,286.0 604.6,286.0 608.8,286.0 612.9,286.0 617.1,286.0 621.3,286.0 625.4,286.0 629.6,286.0 633.8,286.0 637.9,286.0 642.1,286.0 646.3,286.0 650.4,286.0 654.6,286.0 658.8,286.0 662.9,286.0 667.1,286.0 671.3,286.0 675.5,286.0 679.6,286.0 683.8,286.0 688.0,286.0 692.1,286.0 696.3,280.0 700.5,286.0 704.6,286.0 708.8,286.0 713.0,286.0 717.1,286.0 721.3,286.0 725.5,286.0 729.6,286.0 733.8,286.0 738.0,286.0 742.1,286.0 746.3,286.0 750.5,286.0 754.6,286.0 758.8,286.0 763.0,286.0 767.1,286.0 771.3,286.0 775.5,286.0 779.6,286.0 783.8,286.0 788.0,286.0 792.1,286.0 796.3,286.0 800.5,286.0 804.6,286.0 808.8,286.0 813.0,286.0 817.1,286.0 821.3,286.0 825.5,286.0 829.6,286.0 833.8,286.0 838.0,286.0 842.1,286.0 846.3,286.0 850.5,286.0 854.7,286.0 858.8,286.0 863.0,286.0 867.2,286.0 871.3,286.0 875.5,286.0 879.7,286.0 883.8,286.0 888.0,286.0 892.2,286.0 896.3,286.0 900.5,286.0 904.7,286.0 908.8,286.0 913.0,286.0 917.2,286.0 921.3,286.0 925.5,286.0 929.7,286.0 933.8,286.0 938.0,280.0"/><text x="42" y="308" font-size="11" fill="#9fb0d4">19/06 12:43</text><text x="938" y="308" text-anchor="end" font-size="11" fill="#9fb0d4">01/07 18:43</text></svg>