<svg xmlns="http://www.w3.org/2000/svg" viewBox="0 0 960 320" width="960" height="320" font-family="Segoe UI, system-ui, -apple-system, Roboto, Helvetica, Arial, sans-serif" role="img" aria-label="Availability history per region"><rect x="0.5" y="0.5" width="959" height="319" rx="14" fill="#0d1117" stroke="#2c3a5e"/><text x="42" y="26" font-size="14" font-weight="600" fill="#e6ecff">History · 207 points</text><circle cx="47" cy="40" r="5" fill="#22c55e"/><text x="57" y="44" font-size="12" fill="#9fb0d4">Available</text><circle cx="139.8" cy="40" r="5" fill="#f59e0b"/><text x="149.8" y="44" font-size="12" fill="#9fb0d4">Saturated</text><circle cx="232.60000000000002" cy="40" r="5" fill="#ef4444"/><text x="242.60000000000002" y="44" font-size="12" fill="#9fb0d4">Error</text><circle cx="296.6" cy="40" r="5" fill="#a855f7"/><text x="306.6" y="44" font-size="12" fill="#9fb0d4">Timeout</text><line x1="42" y1="286.0" x2="938" y2="286.0" stroke="#21304f" stroke-width="1"/><text x="35" y="289.0" text-anchor="end" font-size="11" fill="#9fb0d4">0</text><line x1="42" y1="227.5" x2="938" y2="227.5" stroke="#21304f" stroke-width="1"/><text x="35" y="230.5" text-anchor="end" font-size="11" fill="#9fb0d4">10</text><line x1="42" y1="169.0" x2="938" y2="169.0" stroke="#21304f" stroke-width="1"/><text x="35" y="172.0" text-anchor="end" font-size="11" fill="#9fb0d4">20</text><line x1="42" y1="110.5" x2="938" y2="110.5" stroke="#21304f" stroke-width="1"/><text x="35" y="113.5" text-anchor="end" font-size="11" fill="#9fb0d4">29</text><line x1="42" y1="52.0" x2="938" y2="52.0" stroke="#21304f" stroke-width="1"/><text x="35" y="55.0" text-anchor="end" font-size="11" fill="#9fb0d4">39</text><polyline fill="none" stroke="#22c55e" stroke-width="2.5" stroke-linejoin="round" stroke-linecap="round" points="42.0,70.0 46.3,70.0 50.7,88.0 55.0,88.0 59.4,76.0 63.7,76.0 68.1,76.0 72.4,70.0 76.8,76.0 81.1,70.0 85.5,64.0 89.8,58.0 94.2,58.0 98.5,58.0 102.9,58.0 107.2,58.0 111.6,58.0 115.9,58.0 120.3,58.0 124.6,58.0 129.0,58.0 133.3,58.0 137.7,58.0 142.0,58.0 146.4,58.0 150.7,58.0 155.1,58.0 159.4,58.0 163.8,58.0 168.1,58.0 172.5,58.0 176.8,70.0 181.2,76.0 185.5,94.0 189.9,64.0 194.2,64.0 198.6,58.0 202.9,58.0 207.3,58.0 211.6,70.0 216.0,76.0 220.3,76.0 224.7,82.0 229.0,82.0 233.4,82.0 237.7,82.0 242.1,76.0 246.4,64.0 250.8,70.0 255.1,70.0 259.5,82.0 263.8,76.0 268.2,76.0 272.5,82.0 276.9,76.0 281.2,76.0 285.6,76.0 289.9,64.0 294.3,64.0 298.6,76.0 303.0,76.0 307.3,76.0 311.7,88.0 316.0,70.0 320.4,64.0 324.7,58.0 329.1,58.0 333.4,70.0 337.8,70.0 342.1,70.0 346.5,76.0 350.8,70.0 355.2,70.0 359.5,70.0 363.9,70.0 368.2,76.0 372.6,82.0 376.9,76.0 381.3,70.0 385.6,70.0 390.0,70.0 394.3,70.0 398.7,76.0 403.0,70.0 407.4,70.0 411.7,70.0 416.1,70.0 420.4,70.0 424.8,70.0 429.1,70.0 433.5,70.0 437.8,70.0 442.2,70.0 446.5,70.0 450.9,70.0 455.2,70.0 459.6,70.0 463.9,70.0 468.3,70.0 472.6,70.0 477.0,70.0 481.3,70.0 485.7,70.0 490.0,70.0 494.3,70.0 498.7,70.0 503.0,70.0 507.4,70.0 511.7,70.0 516.1,70.0 520.4,70.0 524.8,70.0 529.1,70.0 533.5,70.0 537.8,70.0 542.2,70.0 546.5,70.0 550.9,70.0 555.2,70.0 559.6,70.0 563.9,70.0 568.3,70.0 572.6,70.0 577.0,70.0 581.3,70.0 585.7,70.0 590.0,70.0 594.4,70.0 598.7,70.0 603.1,70.0 607.4,70.0 611.8,70.0 616.1,70.0 620.5,70.0 624.8,70.0 629.2,70.0 633.5,70.0 637.9,70.0 642.2,70.0 646.6,70.0 650.9,70.0 655.3,70.0 659.6,70.0 664.0,70.0 668.3,70.0 672.7,70.0 677.0,70.0 681.4,70.0 685.7,70.0 690.1,70.0 694.4,70.0 698.8,76.0 703.1,70.0 707.5,70.0 711.8,70.0 716.2,70.0 720.5,70.0 724.9,76.0 729.2,76.0 733.6,88.0 737.9,88.0 742.3,88.0 746.6,94.0 751.0,94.0 755.3,94.0 759.7,94.0 764.0,88.0 768.4,88.0 772.7,82.0 777.1,82.0 781.4,82.0 785.8,88.0 790.1,88.0 794.5,94.0 798.8,82.0 803.2,82.0 807.5,82.0 811.9,82.0 816.2,88.0 820.6,88.0 824.9,94.0 829.3,94.0 833.6,88.0 838.0,88.0 842.3,88.0 846.7,94.0 851.0,94.0 855.4,106.0 859.7,94.0 864.1,94.0 868.4,94.0 872.8,94.0 877.1,88.0 881.5,88.0 885.8,82.0 890.2,76.0 894.5,76.0 898.9,76.0 903.2,76.0 907.6,76.0 911.9,76.0 916.3,70.0 920.6,70.0 925.0,70.0 929.3,76.0 933.7,88.0 938.0,82.0"/><polyline fill="none" stroke="#f59e0b" stroke-width="2.5" stroke-linejoin="round" stroke-linecap="round" points="42.0,274.0 46.3,274.0 50.7,274.0 55.0,280.0 59.4,268.0 63.7,268.0 68.1,268.0 72.4,274.0 76.8,274.0 81.1,274.0 85.5,280.0 89.8,286.0 94.2,286.0 98.5,286.0 102.9,286.0 107.2,286.0 111.6,286.0 115.9,286.0 120.3,286.0 124.6,286.0 129.0,286.0 133.3,286.0 137.7,286.0 142.0,286.0 146.4,286.0 150.7,286.0 155.1,286.0 159.4,286.0 163.8,286.0 168.1,286.0 172.5,286.0 176.8,274.0 181.2,280.0 185.5,280.0 189.9,280.0 194.2,280.0 198.6,286.0 202.9,286.0 207.3,286.0 211.6,274.0 216.0,268.0 220.3,268.0 224.7,262.0 229.0,262.0 233.4,262.0 237.7,262.0 242.1,268.0 246.4,280.0 250.8,280.0 255.1,274.0 259.5,262.0 263.8,268.0 268.2,268.0 272.5,262.0 276.9,268.0 281.2,268.0 285.6,268.0 289.9,280.0 294.3,280.0 298.6,268.0 303.0,268.0 307.3,268.0 311.7,262.0 316.0,274.0 320.4,280.0 324.7,286.0 329.1,286.0 333.4,274.0 337.8,274.0 342.1,274.0 346.5,274.0 350.8,274.0 355.2,274.0 359.5,274.0 363.9,274.0 368.2,280.0 372.6,274.0 376.9,280.0 381.3,286.0 385.6,286.0 390.0,286.0 394.3,286.0 398.7,280.0 403.0,286.0 407.4,286.0 411.7,286.0 416.1,286.0 420.4,286.0 424.8,286.0 429.1,286.0 433.5,286.0 437.8,286.0 442.2,286.0 446.5,286.0 450.9,286.0 455.2,286.0 459.6,286.0 463.9,286.0 468.3,286.0 472.6,286.0 477.0,286.0 481.3,286.0 485.7,286.0 490.0,286.0 494.3,286.0 498.7,286.0 503.0,286.0 507.4,286.0 511.7,286.0 516.1,286.0 520.4,286.0 524.8,286.0 529.1,286.0 533.5,286.0 537.8,286.0 542.2,286.0 546.5,286.0 550.9,286.0 555.2,286.0 559.6,286.0 563.9,286.0 568.3,286.0 572.6,286.0 577.0,286.0 581.3,286.0 585.7,286.0 590.0,286.0 594.4,286.0 598.7,286.0 603.1,286.0 607.4,286.0 611.8,286.0 616.1,286.0 620.5,286.0 624.8,286.0 629.2,286.0 633.5,286.0 637.9,286.0 642.2,286.0 646.6,286.0 650.9,286.0 655.3,286.0 659.6,286.0 664.0,286.0 668.3,286.0 672.7,286.0 677.0,286.0 681.4,286.0 685.7,286.0 690.1,286.0 694.4,286.0 698.8,286.0 703.1,286.0 707.5,286.0 711.8,286.0 716.2,286.0 720.5,286.0 724.9,286.0 729.2,280.0 733.6,268.0 737.9,268.0 742.3,268.0 746.6,268.0 751.0,262.0 755.3,262.0 759.7,262.0 764.0,268.0 768.4,268.0 772.7,274.0 777.1,274.0 781.4,274.0 785.8,268.0 790.1,268.0 794.5,268.0 798.8,274.0 803.2,274.0 807.5,274.0 811.9,274.0 816.2,268.0 820.6,268.0 824.9,262.0 829.3,262.0 833.6,268.0 838.0,268.0 842.3,268.0 846.7,262.0 851.0,262.0 855.4,274.0 859.7,262.0 864.1,262.0 868.4,262.0 872.8,262.0 877.1,268.0 881.5,268.0 885.8,274.0 890.2,280.0 894.5,280.0 898.9,280.0 903.2,280.0 907.6,280.0 911.9,280.0 916.3,286.0 920.6,286.0 925.0,286.0 929.3,280.0 933.7,274.0 938.0,274.0"/><polyline fill="none" stroke="#ef4444" stroke-width="2.5" stroke-linejoin="round" stroke-linecap="round" points="42.0,280.0 46.3,280.0 50.7,268.0 55.0,262.0 59.4,286.0 63.7,286.0 68.1,286.0 72.4,286.0 76.8,280.0 81.1,286.0 85.5,286.0 89.8,286.0 94.2,286.0 98.5,286.0 102.9,286.0 107.2,286.0 111.6,286.0 115.9,286.0 120.3,286.0 124.6,286.0 129.0,286.0 133.3,286.0 137.7,286.0 142.0,286.0 146.4,286.0 150.7,286.0 155.1,286.0 159.4,286.0 163.8,286.0 168.1,286.0 172.5,286.0 176.8,286.0 181.2,274.0 185.5,256.0 189.9,286.0 194.2,286.0 198.6,286.0 202.9,286.0 207.3,286.0 211.6,286.0 216.0,286.0 220.3,286.0 224.7,286.0 229.0,286.0 233.4,286.0 237.7,286.0 242.1,286.0 246.4,286.0 250.8,280.0 255.1,286.0 259.5,286.0 263.8,286.0 268.2,286.0 272.5,286.0 276.9,286.0 281.2,286.0 285.6,286.0 289.9,286.0 294.3,286.0 298.6,286.0 303.0,286.0 307.3,286.0 311.7,280.0 316.0,286.0 320.4,286.0 324.7,286.0 329.1,286.0 333.4,286.0 337.8,286.0 342.1,286.0 346.5,286.0 350.8,286.0 355.2,286.0 359.5,286.0 363.9,286.0 368.2,274.0 372.6,274.0 376.9,274.0 381.3,274.0 385.6,274.0 390.0,274.0 394.3,274.0 398.7,274.0 403.0,274.0 407.4,274.0 411.7,274.0 416.1,274.0 420.4,274.0 424.8,274.0 429.1,274.0 433.5,274.0 437.8,274.0 442.2,274.0 446.5,274.0 450.9,274.0 455.2,274.0 459.6,274.0 463.9,274.0 468.3,274.0 472.6,274.0 477.0,274.0 481.3,274.0 485.7,274.0 490.0,274.0 494.3,274.0 498.7,274.0 503.0,274.0 507.4,274.0 511.7,274.0 516.1,274.0 520.4,274.0 524.8,274.0 529.1,274.0 533.5,274.0 537.8,274.0 542.2,274.0 546.5,274.0 550.9,274.0 555.2,274.0 559.6,274.0 563.9,274.0 568.3,274.0 572.6,274.0 577.0,274.0 581.3,274.0 585.7,274.0 590.0,274.0 594.4,274.0 598.7,274.0 603.1,274.0 607.4,274.0 611.8,274.0 616.1,274.0 620.5,274.0 624.8,274.0 629.2,274.0 633.5,274.0 637.9,274.0 642.2,274.0 646.6,274.0 650.9,274.0 655.3,274.0 659.6,274.0 664.0,274.0 668.3,274.0 672.7,274.0 677.0,274.0 681.4,274.0 685.7,274.0 690.1,274.0 694.4,274.0 698.8,268.0 703.1,274.0 707.5,274.0 711.8,274.0 716.2,274.0 720.5,274.0 724.9,274.0 729.2,274.0 733.6,274.0 737.9,274.0 742.3,274.0 746.6,268.0 751.0,274.0 755.3,274.0 759.7,274.0 764.0,274.0 768.4,274.0 772.7,274.0 777.1,274.0 781.4,274.0 785.8,274.0 790.1,274.0 794.5,268.0 798.8,274.0 803.2,274.0 807.5,274.0 811.9,274.0 816.2,274.0 820.6,274.0 824.9,274.0 829.3,274.0 833.6,274.0 838.0,274.0 842.3,274.0 846.7,274.0 851.0,274.0 855.4,250.0 859.7,274.0 864.1,274.0 868.4,274.0 872.8,274.0 877.1,274.0 881.5,274.0 885.8,274.0 890.2,274.0 894.5,274.0 898.9,274.0 903.2,274.0 907.6,274.0 911.9,274.0 916.3,274.0 920.6,274.0 925.0,274.0 929.3,274.0 933.7,268.0 938.0,274.0"/><polyline fill="none" stroke="#a855f7" stroke-width="2.5" stroke-linejoin="round" stroke-linecap="round" points="42.0,286.0 46.3,286.0 50.7,286.0 55.0,286.0 59.4,286.0 63.7,286.0 68.1,286.0 72.4,286.0 76.8,286.0 81.1,286.0 85.5,286.0 89.8,286.0 94.2,286.0 98.5,286.0 102.9,286.0 107.2,286.0 111.6,286.0 115.9,286.0 120.3,286.0 124.6,286.0 129.0,286.0 133.3,286.0 137.7,286.0 142.0,286.0 146.4,286.0 150.7,286.0 155.1,286.0 159.4,286.0 163.8,286.0 168.1,286.0 172.5,286.0 176.8,286.0 181.2,286.0 185.5,286.0 189.9,286.0 194.2,286.0 198.6,286.0 202.9,286.0 207.3,286.0 211.6,286.0 216.0,286.0 220.3,286.0 224.7,286.0 229.0,286.0 233.4,286.0 237.7,286.0 242.1,286.0 246.4,286.0 250.8,286.0 255.1,286.0 259.5,286.0 263.8,286.0 268.2,286.0 272.5,286.0 276.9,286.0 281.2,286.0 285.6,286.0 289.9,286.0 294.3,286.0 298.6,286.0 303.0,286.0 307.3,286.0 311.7,286.0 316.0,286.0 320.4,286.0 324.7,286.0 329.1,286.0 333.4,286.0 337.8,286.0 342.1,286.0 346.5,280.0 350.8,286.0 355.2,286.0 359.5,286.0 363.9,286.0 368.2,286.0 372.6,286.0 376.9,286.0 381.3,286.0 385.6,286.0 390.0,286.0 394.3,286.0 398.7,286.0 403.0,286.0 407.4,286.0 411.7,286.0 416.1,286.0 420.4,286.0 424.8,286.0 429.1,286.0 433.5,286.0 437.8,286.0 442.2,286.0 446.5,286.0 450.9,286.0 455.2,286.0 459.6,286.0 463.9,286.0 468.3,286.0 472.6,286.0 477.0,286.0 481.3,286.0 485.7,286.0 490.0,286.0 494.3,286.0 498.7,286.0 503.0,286.0 507.4,286.0 511.7,286.0 516.1,286.0 520.4,286.0 524.8,286.0 529.1,286.0 533.5,286.0 537.8,286.0 542.2,286.0 546.5,286.0 550.9,286.0 555.2,286.0 559.6,286.0 563.9,286.0 568.3,286.0 572.6,286.0 577.0,286.0 581.3,286.0 585.7,286.0 590.0,286.0 594.4,286.0 598.7,286.0 603.1,286.0 607.4,286.0 611.8,286.0 616.1,286.0 620.5,286.0 624.8,286.0 629.2,286.0 633.5,286.0 637.9,286.0 642.2,286.0 646.6,286.0 650.9,286.0 655.3,286.0 659.6,286.0 664.0,286.0 668.3,286.0 672.7,286.0 677.0,286.0 681.4,286.0 685.7,286.0 690.1,286.0 694.4,286.0 698.8,286.0 703.1,286.0 707.5,286.0 711.8,286.0 716.2,286.0 720.5,286.0 724.9,280.0 729.2,286.0 733.6,286.0 737.9,286.0 742.3,286.0 746.6,286.0 751.0,286.0 755.3,286.0 759.7,286.0 764.0,286.0 768.4,286.0 772.7,286.0 777.1,286.0 781.4,286.0 785.8,286.0 790.1,286.0 794.5,286.0 798.8,286.0 803.2,286.0 807.5,286.0 811.9,286.0 816.2,286.0 820.6,286.0 824.9,286.0 829.3,286.0 833.6,286.0 838.0,286.0 842.3,286.0 846.7,286.0 851.0,286.0 855.4,286.0 859.7,286.0 864.1,286.0 868.4,286.0 872.8,286.0 877.1,286.0 881.5,286.0 885.8,286.0 890.2,286.0 894.5,286.0 898.9,286.0 903.2,286.0 907.6,286.0 911.9,286.0 916.3,286.0 920.6,286.0 925.0,286.0 929.3,286.0 933.7,286.0 938.0,286.0"/><text x="42" y="308" font-size="11" fill="#9fb0d4">19/06 12:43</text><text x="938" y="308" text-anchor="end" font-size="11" fill="#9fb0d4">01/07 09:32</text></svg>