<svg xmlns="http://www.w3.org/2000/svg" viewBox="0 0 960 320" width="960" height="320" font-family="Segoe UI, system-ui, -apple-system, Roboto, Helvetica, Arial, sans-serif" role="img" aria-label="Availability history per region"><rect x="0.5" y="0.5" width="959" height="319" rx="14" fill="#ffffff" stroke="#dce3f1"/><text x="42" y="26" font-size="14" font-weight="600" fill="#14203a">History · 73 points</text><circle cx="47" cy="40" r="5" fill="#22c55e"/><text x="57" y="44" font-size="12" fill="#5a688a">Available</text><circle cx="139.8" cy="40" r="5" fill="#f59e0b"/><text x="149.8" y="44" font-size="12" fill="#5a688a">Saturated</text><circle cx="232.60000000000002" cy="40" r="5" fill="#ef4444"/><text x="242.60000000000002" y="44" font-size="12" fill="#5a688a">Error</text><circle cx="296.6" cy="40" r="5" fill="#a855f7"/><text x="306.6" y="44" font-size="12" fill="#5a688a">Timeout</text><line x1="42" y1="286.0" x2="938" y2="286.0" stroke="#eef2f7" stroke-width="1"/><text x="35" y="289.0" text-anchor="end" font-size="11" fill="#5a688a">0</text><line x1="42" y1="227.5" x2="938" y2="227.5" stroke="#eef2f7" stroke-width="1"/><text x="35" y="230.5" text-anchor="end" font-size="11" fill="#5a688a">10</text><line x1="42" y1="169.0" x2="938" y2="169.0" stroke="#eef2f7" stroke-width="1"/><text x="35" y="172.0" text-anchor="end" font-size="11" fill="#5a688a">19</text><line x1="42" y1="110.5" x2="938" y2="110.5" stroke="#eef2f7" stroke-width="1"/><text x="35" y="113.5" text-anchor="end" font-size="11" fill="#5a688a">28</text><line x1="42" y1="52.0" x2="938" y2="52.0" stroke="#eef2f7" stroke-width="1"/><text x="35" y="55.0" text-anchor="end" font-size="11" fill="#5a688a">38</text><polyline fill="none" stroke="#22c55e" stroke-width="2.5" stroke-linejoin="round" stroke-linecap="round" points="42.0,64.3 54.4,224.4 66.9,82.8 79.3,88.9 91.8,82.8 104.2,76.6 116.7,76.6 129.1,76.6 141.6,76.6 154.0,76.6 166.4,76.6 178.9,76.6 191.3,76.6 203.8,76.6 216.2,76.6 228.7,70.5 241.1,70.5 253.6,82.8 266.0,82.8 278.4,82.8 290.9,88.9 303.3,88.9 315.8,88.9 328.2,88.9 340.7,88.9 353.1,88.9 365.6,88.9 378.0,88.9 390.4,88.9 402.9,82.8 415.3,82.8 427.8,82.8 440.2,82.8 452.7,76.6 465.1,76.6 477.6,76.6 490.0,76.6 502.4,76.6 514.9,82.8 527.3,82.8 539.8,82.8 552.2,82.8 564.7,76.6 577.1,76.6 589.6,76.6 602.0,76.6 614.4,76.6 626.9,76.6 639.3,76.6 651.8,82.8 664.2,82.8 676.7,82.8 689.1,82.8 701.6,76.6 714.0,76.6 726.4,76.6 738.9,76.6 751.3,76.6 763.8,76.6 776.2,76.6 788.7,76.6 801.1,82.8 813.6,76.6 826.0,76.6 838.4,76.6 850.9,76.6 863.3,76.6 875.8,82.8 888.2,76.6 900.7,76.6 913.1,76.6 925.6,76.6 938.0,76.6"/><polyline fill="none" stroke="#f59e0b" stroke-width="2.5" stroke-linejoin="round" stroke-linecap="round" points="42.0,273.7 54.4,267.5 66.9,255.2 79.3,249.1 91.8,255.2 104.2,261.4 116.7,261.4 129.1,261.4 141.6,261.4 154.0,261.4 166.4,261.4 178.9,261.4 191.3,261.4 203.8,261.4 216.2,261.4 228.7,267.5 241.1,267.5 253.6,261.4 266.0,255.2 278.4,255.2 290.9,249.1 303.3,249.1 315.8,249.1 328.2,249.1 340.7,249.1 353.1,249.1 365.6,249.1 378.0,249.1 390.4,249.1 402.9,255.2 415.3,255.2 427.8,255.2 440.2,255.2 452.7,261.4 465.1,261.4 477.6,261.4 490.0,261.4 502.4,261.4 514.9,255.2 527.3,255.2 539.8,255.2 552.2,255.2 564.7,261.4 577.1,261.4 589.6,261.4 602.0,261.4 614.4,261.4 626.9,261.4 639.3,261.4 651.8,255.2 664.2,255.2 676.7,255.2 689.1,261.4 701.6,261.4 714.0,261.4 726.4,261.4 738.9,261.4 751.3,261.4 763.8,261.4 776.2,261.4 788.7,261.4 801.1,255.2 813.6,261.4 826.0,261.4 838.4,261.4 850.9,261.4 863.3,261.4 875.8,261.4 888.2,261.4 900.7,261.4 913.1,261.4 925.6,261.4 938.0,261.4"/><polyline fill="none" stroke="#ef4444" stroke-width="2.5" stroke-linejoin="round" stroke-linecap="round" points="42.0,286.0 54.4,132.1 66.9,286.0 79.3,286.0 91.8,286.0 104.2,286.0 116.7,286.0 129.1,286.0 141.6,286.0 154.0,286.0 166.4,286.0 178.9,286.0 191.3,286.0 203.8,286.0 216.2,286.0 228.7,286.0 241.1,286.0 253.6,279.8 266.0,286.0 278.4,286.0 290.9,286.0 303.3,286.0 315.8,286.0 328.2,286.0 340.7,286.0 353.1,286.0 365.6,286.0 378.0,286.0 390.4,286.0 402.9,286.0 415.3,286.0 427.8,286.0 440.2,286.0 452.7,286.0 465.1,286.0 477.6,286.0 490.0,286.0 502.4,286.0 514.9,286.0 527.3,286.0 539.8,286.0 552.2,286.0 564.7,286.0 577.1,286.0 589.6,286.0 602.0,286.0 614.4,286.0 626.9,286.0 639.3,286.0 651.8,286.0 664.2,286.0 676.7,286.0 689.1,286.0 701.6,286.0 714.0,286.0 726.4,286.0 738.9,286.0 751.3,286.0 763.8,286.0 776.2,286.0 788.7,286.0 801.1,286.0 813.6,286.0 826.0,286.0 838.4,286.0 850.9,286.0 863.3,286.0 875.8,279.8 888.2,286.0 900.7,286.0 913.1,286.0 925.6,286.0 938.0,286.0"/><polyline fill="none" stroke="#a855f7" stroke-width="2.5" stroke-linejoin="round" stroke-linecap="round" points="42.0,286.0 54.4,286.0 66.9,286.0 79.3,286.0 91.8,286.0 104.2,286.0 116.7,286.0 129.1,286.0 141.6,286.0 154.0,286.0 166.4,286.0 178.9,286.0 191.3,286.0 203.8,286.0 216.2,286.0 228.7,286.0 241.1,286.0 253.6,286.0 266.0,286.0 278.4,286.0 290.9,286.0 303.3,286.0 315.8,286.0 328.2,286.0 340.7,286.0 353.1,286.0 365.6,286.0 378.0,286.0 390.4,286.0 402.9,286.0 415.3,286.0 427.8,286.0 440.2,286.0 452.7,286.0 465.1,286.0 477.6,286.0 490.0,286.0 502.4,286.0 514.9,286.0 527.3,286.0 539.8,286.0 552.2,286.0 564.7,286.0 577.1,286.0 589.6,286.0 602.0,286.0 614.4,286.0 626.9,286.0 639.3,286.0 651.8,286.0 664.2,286.0 676.7,286.0 689.1,279.8 701.6,286.0 714.0,286.0 726.4,286.0 738.9,286.0 751.3,286.0 763.8,286.0 776.2,286.0 788.7,286.0 801.1,286.0 813.6,286.0 826.0,286.0 838.4,286.0 850.9,286.0 863.3,286.0 875.8,286.0 888.2,286.0 900.7,286.0 913.1,286.0 925.6,286.0 938.0,286.0"/><text x="42" y="308" font-size="11" fill="#5a688a">19/06 15:39</text><text x="938" y="308" text-anchor="end" font-size="11" fill="#5a688a">19/07 14:33</text></svg>