<svg xmlns="http://www.w3.org/2000/svg" viewBox="0 0 960 320" width="960" height="320" font-family="Segoe UI, system-ui, -apple-system, Roboto, Helvetica, Arial, sans-serif" role="img" aria-label="Availability history per region"><rect x="0.5" y="0.5" width="959" height="319" rx="14" fill="#ffffff" stroke="#dce3f1"/><text x="42" y="26" font-size="14" font-weight="600" fill="#14203a">History · 70 points</text><circle cx="47" cy="40" r="5" fill="#22c55e"/><text x="57" y="44" font-size="12" fill="#5a688a">Available</text><circle cx="139.8" cy="40" r="5" fill="#f59e0b"/><text x="149.8" y="44" font-size="12" fill="#5a688a">Saturated</text><circle cx="232.60000000000002" cy="40" r="5" fill="#ef4444"/><text x="242.60000000000002" y="44" font-size="12" fill="#5a688a">Error</text><line x1="42" y1="286.0" x2="938" y2="286.0" stroke="#eef2f7" stroke-width="1"/><text x="35" y="289.0" text-anchor="end" font-size="11" fill="#5a688a">0</text><line x1="42" y1="227.5" x2="938" y2="227.5" stroke="#eef2f7" stroke-width="1"/><text x="35" y="230.5" text-anchor="end" font-size="11" fill="#5a688a">10</text><line x1="42" y1="169.0" x2="938" y2="169.0" stroke="#eef2f7" stroke-width="1"/><text x="35" y="172.0" text-anchor="end" font-size="11" fill="#5a688a">20</text><line x1="42" y1="110.5" x2="938" y2="110.5" stroke="#eef2f7" stroke-width="1"/><text x="35" y="113.5" text-anchor="end" font-size="11" fill="#5a688a">29</text><line x1="42" y1="52.0" x2="938" y2="52.0" stroke="#eef2f7" stroke-width="1"/><text x="35" y="55.0" text-anchor="end" font-size="11" fill="#5a688a">39</text><polyline fill="none" stroke="#22c55e" stroke-width="2.5" stroke-linejoin="round" stroke-linecap="round" points="42.0,70.0 55.0,70.0 68.0,88.0 81.0,88.0 93.9,76.0 106.9,76.0 119.9,76.0 132.9,70.0 145.9,76.0 158.9,70.0 171.9,64.0 184.8,58.0 197.8,58.0 210.8,58.0 223.8,58.0 236.8,58.0 249.8,58.0 262.8,58.0 275.7,58.0 288.7,58.0 301.7,58.0 314.7,58.0 327.7,58.0 340.7,58.0 353.7,58.0 366.6,58.0 379.6,58.0 392.6,58.0 405.6,58.0 418.6,58.0 431.6,58.0 444.6,70.0 457.5,76.0 470.5,94.0 483.5,64.0 496.5,64.0 509.5,58.0 522.5,58.0 535.4,58.0 548.4,70.0 561.4,76.0 574.4,76.0 587.4,82.0 600.4,82.0 613.4,82.0 626.3,82.0 639.3,76.0 652.3,64.0 665.3,70.0 678.3,70.0 691.3,82.0 704.3,76.0 717.2,76.0 730.2,82.0 743.2,76.0 756.2,76.0 769.2,76.0 782.2,64.0 795.2,64.0 808.1,76.0 821.1,76.0 834.1,76.0 847.1,88.0 860.1,70.0 873.1,64.0 886.1,58.0 899.0,58.0 912.0,70.0 925.0,70.0 938.0,70.0"/><polyline fill="none" stroke="#f59e0b" stroke-width="2.5" stroke-linejoin="round" stroke-linecap="round" points="42.0,274.0 55.0,274.0 68.0,274.0 81.0,280.0 93.9,268.0 106.9,268.0 119.9,268.0 132.9,274.0 145.9,274.0 158.9,274.0 171.9,280.0 184.8,286.0 197.8,286.0 210.8,286.0 223.8,286.0 236.8,286.0 249.8,286.0 262.8,286.0 275.7,286.0 288.7,286.0 301.7,286.0 314.7,286.0 327.7,286.0 340.7,286.0 353.7,286.0 366.6,286.0 379.6,286.0 392.6,286.0 405.6,286.0 418.6,286.0 431.6,286.0 444.6,274.0 457.5,280.0 470.5,280.0 483.5,280.0 496.5,280.0 509.5,286.0 522.5,286.0 535.4,286.0 548.4,274.0 561.4,268.0 574.4,268.0 587.4,262.0 600.4,262.0 613.4,262.0 626.3,262.0 639.3,268.0 652.3,280.0 665.3,280.0 678.3,274.0 691.3,262.0 704.3,268.0 717.2,268.0 730.2,262.0 743.2,268.0 756.2,268.0 769.2,268.0 782.2,280.0 795.2,280.0 808.1,268.0 821.1,268.0 834.1,268.0 847.1,262.0 860.1,274.0 873.1,280.0 886.1,286.0 899.0,286.0 912.0,274.0 925.0,274.0 938.0,274.0"/><polyline fill="none" stroke="#ef4444" stroke-width="2.5" stroke-linejoin="round" stroke-linecap="round" points="42.0,280.0 55.0,280.0 68.0,268.0 81.0,262.0 93.9,286.0 106.9,286.0 119.9,286.0 132.9,286.0 145.9,280.0 158.9,286.0 171.9,286.0 184.8,286.0 197.8,286.0 210.8,286.0 223.8,286.0 236.8,286.0 249.8,286.0 262.8,286.0 275.7,286.0 288.7,286.0 301.7,286.0 314.7,286.0 327.7,286.0 340.7,286.0 353.7,286.0 366.6,286.0 379.6,286.0 392.6,286.0 405.6,286.0 418.6,286.0 431.6,286.0 444.6,286.0 457.5,274.0 470.5,256.0 483.5,286.0 496.5,286.0 509.5,286.0 522.5,286.0 535.4,286.0 548.4,286.0 561.4,286.0 574.4,286.0 587.4,286.0 600.4,286.0 613.4,286.0 626.3,286.0 639.3,286.0 652.3,286.0 665.3,280.0 678.3,286.0 691.3,286.0 704.3,286.0 717.2,286.0 730.2,286.0 743.2,286.0 756.2,286.0 769.2,286.0 782.2,286.0 795.2,286.0 808.1,286.0 821.1,286.0 834.1,286.0 847.1,280.0 860.1,286.0 873.1,286.0 886.1,286.0 899.0,286.0 912.0,286.0 925.0,286.0 938.0,286.0"/><text x="42" y="308" font-size="11" fill="#5a688a">19/06 12:43</text><text x="938" y="308" text-anchor="end" font-size="11" fill="#5a688a">26/06 15:37</text></svg>