<svg xmlns="http://www.w3.org/2000/svg" viewBox="0 0 960 320" width="960" height="320" font-family="Segoe UI, system-ui, -apple-system, Roboto, Helvetica, Arial, sans-serif" role="img" aria-label="Availability history per region"><rect x="0.5" y="0.5" width="959" height="319" rx="14" fill="#0d1117" stroke="#2c3a5e"/><text x="42" y="26" font-size="14" font-weight="600" fill="#e6ecff">History · 69 points</text><circle cx="47" cy="40" r="5" fill="#22c55e"/><text x="57" y="44" font-size="12" fill="#9fb0d4">Available</text><circle cx="139.8" cy="40" r="5" fill="#f59e0b"/><text x="149.8" y="44" font-size="12" fill="#9fb0d4">Saturated</text><circle cx="232.60000000000002" cy="40" r="5" fill="#ef4444"/><text x="242.60000000000002" y="44" font-size="12" fill="#9fb0d4">Error</text><circle cx="296.6" cy="40" r="5" fill="#a855f7"/><text x="306.6" y="44" font-size="12" fill="#9fb0d4">Timeout</text><line x1="42" y1="286.0" x2="938" y2="286.0" stroke="#21304f" stroke-width="1"/><text x="35" y="289.0" text-anchor="end" font-size="11" fill="#9fb0d4">0</text><line x1="42" y1="227.5" x2="938" y2="227.5" stroke="#21304f" stroke-width="1"/><text x="35" y="230.5" text-anchor="end" font-size="11" fill="#9fb0d4">10</text><line x1="42" y1="169.0" x2="938" y2="169.0" stroke="#21304f" stroke-width="1"/><text x="35" y="172.0" text-anchor="end" font-size="11" fill="#9fb0d4">19</text><line x1="42" y1="110.5" x2="938" y2="110.5" stroke="#21304f" stroke-width="1"/><text x="35" y="113.5" text-anchor="end" font-size="11" fill="#9fb0d4">28</text><line x1="42" y1="52.0" x2="938" y2="52.0" stroke="#21304f" stroke-width="1"/><text x="35" y="55.0" text-anchor="end" font-size="11" fill="#9fb0d4">38</text><polyline fill="none" stroke="#22c55e" stroke-width="2.5" stroke-linejoin="round" stroke-linecap="round" points="42.0,64.3 55.2,224.4 68.4,82.8 81.5,88.9 94.7,82.8 107.9,76.6 121.1,76.6 134.2,76.6 147.4,76.6 160.6,76.6 173.8,76.6 186.9,76.6 200.1,76.6 213.3,76.6 226.5,76.6 239.6,70.5 252.8,70.5 266.0,82.8 279.2,82.8 292.4,82.8 305.5,88.9 318.7,88.9 331.9,88.9 345.1,88.9 358.2,88.9 371.4,88.9 384.6,88.9 397.8,88.9 410.9,88.9 424.1,82.8 437.3,82.8 450.5,82.8 463.6,82.8 476.8,76.6 490.0,76.6 503.2,76.6 516.4,76.6 529.5,76.6 542.7,82.8 555.9,82.8 569.1,82.8 582.2,82.8 595.4,76.6 608.6,76.6 621.8,76.6 634.9,76.6 648.1,76.6 661.3,76.6 674.5,76.6 687.6,82.8 700.8,82.8 714.0,82.8 727.2,82.8 740.4,76.6 753.5,76.6 766.7,76.6 779.9,76.6 793.1,76.6 806.2,76.6 819.4,76.6 832.6,76.6 845.8,82.8 858.9,76.6 872.1,76.6 885.3,76.6 898.5,76.6 911.6,76.6 924.8,82.8 938.0,76.6"/><polyline fill="none" stroke="#f59e0b" stroke-width="2.5" stroke-linejoin="round" stroke-linecap="round" points="42.0,273.7 55.2,267.5 68.4,255.2 81.5,249.1 94.7,255.2 107.9,261.4 121.1,261.4 134.2,261.4 147.4,261.4 160.6,261.4 173.8,261.4 186.9,261.4 200.1,261.4 213.3,261.4 226.5,261.4 239.6,267.5 252.8,267.5 266.0,261.4 279.2,255.2 292.4,255.2 305.5,249.1 318.7,249.1 331.9,249.1 345.1,249.1 358.2,249.1 371.4,249.1 384.6,249.1 397.8,249.1 410.9,249.1 424.1,255.2 437.3,255.2 450.5,255.2 463.6,255.2 476.8,261.4 490.0,261.4 503.2,261.4 516.4,261.4 529.5,261.4 542.7,255.2 555.9,255.2 569.1,255.2 582.2,255.2 595.4,261.4 608.6,261.4 621.8,261.4 634.9,261.4 648.1,261.4 661.3,261.4 674.5,261.4 687.6,255.2 700.8,255.2 714.0,255.2 727.2,261.4 740.4,261.4 753.5,261.4 766.7,261.4 779.9,261.4 793.1,261.4 806.2,261.4 819.4,261.4 832.6,261.4 845.8,255.2 858.9,261.4 872.1,261.4 885.3,261.4 898.5,261.4 911.6,261.4 924.8,261.4 938.0,261.4"/><polyline fill="none" stroke="#ef4444" stroke-width="2.5" stroke-linejoin="round" stroke-linecap="round" points="42.0,286.0 55.2,132.1 68.4,286.0 81.5,286.0 94.7,286.0 107.9,286.0 121.1,286.0 134.2,286.0 147.4,286.0 160.6,286.0 173.8,286.0 186.9,286.0 200.1,286.0 213.3,286.0 226.5,286.0 239.6,286.0 252.8,286.0 266.0,279.8 279.2,286.0 292.4,286.0 305.5,286.0 318.7,286.0 331.9,286.0 345.1,286.0 358.2,286.0 371.4,286.0 384.6,286.0 397.8,286.0 410.9,286.0 424.1,286.0 437.3,286.0 450.5,286.0 463.6,286.0 476.8,286.0 490.0,286.0 503.2,286.0 516.4,286.0 529.5,286.0 542.7,286.0 555.9,286.0 569.1,286.0 582.2,286.0 595.4,286.0 608.6,286.0 621.8,286.0 634.9,286.0 648.1,286.0 661.3,286.0 674.5,286.0 687.6,286.0 700.8,286.0 714.0,286.0 727.2,286.0 740.4,286.0 753.5,286.0 766.7,286.0 779.9,286.0 793.1,286.0 806.2,286.0 819.4,286.0 832.6,286.0 845.8,286.0 858.9,286.0 872.1,286.0 885.3,286.0 898.5,286.0 911.6,286.0 924.8,279.8 938.0,286.0"/><polyline fill="none" stroke="#a855f7" stroke-width="2.5" stroke-linejoin="round" stroke-linecap="round" points="42.0,286.0 55.2,286.0 68.4,286.0 81.5,286.0 94.7,286.0 107.9,286.0 121.1,286.0 134.2,286.0 147.4,286.0 160.6,286.0 173.8,286.0 186.9,286.0 200.1,286.0 213.3,286.0 226.5,286.0 239.6,286.0 252.8,286.0 266.0,286.0 279.2,286.0 292.4,286.0 305.5,286.0 318.7,286.0 331.9,286.0 345.1,286.0 358.2,286.0 371.4,286.0 384.6,286.0 397.8,286.0 410.9,286.0 424.1,286.0 437.3,286.0 450.5,286.0 463.6,286.0 476.8,286.0 490.0,286.0 503.2,286.0 516.4,286.0 529.5,286.0 542.7,286.0 555.9,286.0 569.1,286.0 582.2,286.0 595.4,286.0 608.6,286.0 621.8,286.0 634.9,286.0 648.1,286.0 661.3,286.0 674.5,286.0 687.6,286.0 700.8,286.0 714.0,286.0 727.2,279.8 740.4,286.0 753.5,286.0 766.7,286.0 779.9,286.0 793.1,286.0 806.2,286.0 819.4,286.0 832.6,286.0 845.8,286.0 858.9,286.0 872.1,286.0 885.3,286.0 898.5,286.0 911.6,286.0 924.8,286.0 938.0,286.0"/><text x="42" y="308" font-size="11" fill="#9fb0d4">19/06 15:39</text><text x="938" y="308" text-anchor="end" font-size="11" fill="#9fb0d4">19/07 10:32</text></svg>