<svg xmlns="http://www.w3.org/2000/svg" viewBox="0 0 960 320" width="960" height="320" font-family="Segoe UI, system-ui, -apple-system, Roboto, Helvetica, Arial, sans-serif" role="img" aria-label="Availability history per region"><rect x="0.5" y="0.5" width="959" height="319" rx="14" fill="#ffffff" stroke="#dce3f1"/><text x="42" y="26" font-size="14" font-weight="600" fill="#14203a">History · 197 points</text><circle cx="47" cy="40" r="5" fill="#22c55e"/><text x="57" y="44" font-size="12" fill="#5a688a">Available</text><circle cx="139.8" cy="40" r="5" fill="#f59e0b"/><text x="149.8" y="44" font-size="12" fill="#5a688a">Saturated</text><circle cx="232.60000000000002" cy="40" r="5" fill="#ef4444"/><text x="242.60000000000002" y="44" font-size="12" fill="#5a688a">Error</text><circle cx="296.6" cy="40" r="5" fill="#a855f7"/><text x="306.6" y="44" font-size="12" fill="#5a688a">Timeout</text><line x1="42" y1="286.0" x2="938" y2="286.0" stroke="#eef2f7" stroke-width="1"/><text x="35" y="289.0" text-anchor="end" font-size="11" fill="#5a688a">0</text><line x1="42" y1="227.5" x2="938" y2="227.5" stroke="#eef2f7" stroke-width="1"/><text x="35" y="230.5" text-anchor="end" font-size="11" fill="#5a688a">10</text><line x1="42" y1="169.0" x2="938" y2="169.0" stroke="#eef2f7" stroke-width="1"/><text x="35" y="172.0" text-anchor="end" font-size="11" fill="#5a688a">20</text><line x1="42" y1="110.5" x2="938" y2="110.5" stroke="#eef2f7" stroke-width="1"/><text x="35" y="113.5" text-anchor="end" font-size="11" fill="#5a688a">29</text><line x1="42" y1="52.0" x2="938" y2="52.0" stroke="#eef2f7" stroke-width="1"/><text x="35" y="55.0" text-anchor="end" font-size="11" fill="#5a688a">39</text><polyline fill="none" stroke="#22c55e" stroke-width="2.5" stroke-linejoin="round" stroke-linecap="round" points="42.0,70.0 46.6,70.0 51.1,88.0 55.7,88.0 60.3,76.0 64.9,76.0 69.4,76.0 74.0,70.0 78.6,76.0 83.1,70.0 87.7,64.0 92.3,58.0 96.9,58.0 101.4,58.0 106.0,58.0 110.6,58.0 115.1,58.0 119.7,58.0 124.3,58.0 128.9,58.0 133.4,58.0 138.0,58.0 142.6,58.0 147.1,58.0 151.7,58.0 156.3,58.0 160.9,58.0 165.4,58.0 170.0,58.0 174.6,58.0 179.1,58.0 183.7,70.0 188.3,76.0 192.9,94.0 197.4,64.0 202.0,64.0 206.6,58.0 211.1,58.0 215.7,58.0 220.3,70.0 224.9,76.0 229.4,76.0 234.0,82.0 238.6,82.0 243.1,82.0 247.7,82.0 252.3,76.0 256.9,64.0 261.4,70.0 266.0,70.0 270.6,82.0 275.1,76.0 279.7,76.0 284.3,82.0 288.9,76.0 293.4,76.0 298.0,76.0 302.6,64.0 307.1,64.0 311.7,76.0 316.3,76.0 320.9,76.0 325.4,88.0 330.0,70.0 334.6,64.0 339.1,58.0 343.7,58.0 348.3,70.0 352.9,70.0 357.4,70.0 362.0,76.0 366.6,70.0 371.1,70.0 375.7,70.0 380.3,70.0 384.9,76.0 389.4,82.0 394.0,76.0 398.6,70.0 403.1,70.0 407.7,70.0 412.3,70.0 416.9,76.0 421.4,70.0 426.0,70.0 430.6,70.0 435.1,70.0 439.7,70.0 444.3,70.0 448.9,70.0 453.4,70.0 458.0,70.0 462.6,70.0 467.1,70.0 471.7,70.0 476.3,70.0 480.9,70.0 485.4,70.0 490.0,70.0 494.6,70.0 499.1,70.0 503.7,70.0 508.3,70.0 512.9,70.0 517.4,70.0 522.0,70.0 526.6,70.0 531.1,70.0 535.7,70.0 540.3,70.0 544.9,70.0 549.4,70.0 554.0,70.0 558.6,70.0 563.1,70.0 567.7,70.0 572.3,70.0 576.9,70.0 581.4,70.0 586.0,70.0 590.6,70.0 595.1,70.0 599.7,70.0 604.3,70.0 608.9,70.0 613.4,70.0 618.0,70.0 622.6,70.0 627.1,70.0 631.7,70.0 636.3,70.0 640.9,70.0 645.4,70.0 650.0,70.0 654.6,70.0 659.1,70.0 663.7,70.0 668.3,70.0 672.9,70.0 677.4,70.0 682.0,70.0 686.6,70.0 691.1,70.0 695.7,70.0 700.3,70.0 704.9,70.0 709.4,70.0 714.0,70.0 718.6,70.0 723.1,70.0 727.7,70.0 732.3,76.0 736.9,70.0 741.4,70.0 746.0,70.0 750.6,70.0 755.1,70.0 759.7,76.0 764.3,76.0 768.9,88.0 773.4,88.0 778.0,88.0 782.6,94.0 787.1,94.0 791.7,94.0 796.3,94.0 800.9,88.0 805.4,88.0 810.0,82.0 814.6,82.0 819.1,82.0 823.7,88.0 828.3,88.0 832.9,94.0 837.4,82.0 842.0,82.0 846.6,82.0 851.1,82.0 855.7,88.0 860.3,88.0 864.9,94.0 869.4,94.0 874.0,88.0 878.6,88.0 883.1,88.0 887.7,94.0 892.3,94.0 896.9,106.0 901.4,94.0 906.0,94.0 910.6,94.0 915.1,94.0 919.7,88.0 924.3,88.0 928.9,82.0 933.4,76.0 938.0,76.0"/><polyline fill="none" stroke="#f59e0b" stroke-width="2.5" stroke-linejoin="round" stroke-linecap="round" points="42.0,274.0 46.6,274.0 51.1,274.0 55.7,280.0 60.3,268.0 64.9,268.0 69.4,268.0 74.0,274.0 78.6,274.0 83.1,274.0 87.7,280.0 92.3,286.0 96.9,286.0 101.4,286.0 106.0,286.0 110.6,286.0 115.1,286.0 119.7,286.0 124.3,286.0 128.9,286.0 133.4,286.0 138.0,286.0 142.6,286.0 147.1,286.0 151.7,286.0 156.3,286.0 160.9,286.0 165.4,286.0 170.0,286.0 174.6,286.0 179.1,286.0 183.7,274.0 188.3,280.0 192.9,280.0 197.4,280.0 202.0,280.0 206.6,286.0 211.1,286.0 215.7,286.0 220.3,274.0 224.9,268.0 229.4,268.0 234.0,262.0 238.6,262.0 243.1,262.0 247.7,262.0 252.3,268.0 256.9,280.0 261.4,280.0 266.0,274.0 270.6,262.0 275.1,268.0 279.7,268.0 284.3,262.0 288.9,268.0 293.4,268.0 298.0,268.0 302.6,280.0 307.1,280.0 311.7,268.0 316.3,268.0 320.9,268.0 325.4,262.0 330.0,274.0 334.6,280.0 339.1,286.0 343.7,286.0 348.3,274.0 352.9,274.0 357.4,274.0 362.0,274.0 366.6,274.0 371.1,274.0 375.7,274.0 380.3,274.0 384.9,280.0 389.4,274.0 394.0,280.0 398.6,286.0 403.1,286.0 407.7,286.0 412.3,286.0 416.9,280.0 421.4,286.0 426.0,286.0 430.6,286.0 435.1,286.0 439.7,286.0 444.3,286.0 448.9,286.0 453.4,286.0 458.0,286.0 462.6,286.0 467.1,286.0 471.7,286.0 476.3,286.0 480.9,286.0 485.4,286.0 490.0,286.0 494.6,286.0 499.1,286.0 503.7,286.0 508.3,286.0 512.9,286.0 517.4,286.0 522.0,286.0 526.6,286.0 531.1,286.0 535.7,286.0 540.3,286.0 544.9,286.0 549.4,286.0 554.0,286.0 558.6,286.0 563.1,286.0 567.7,286.0 572.3,286.0 576.9,286.0 581.4,286.0 586.0,286.0 590.6,286.0 595.1,286.0 599.7,286.0 604.3,286.0 608.9,286.0 613.4,286.0 618.0,286.0 622.6,286.0 627.1,286.0 631.7,286.0 636.3,286.0 640.9,286.0 645.4,286.0 650.0,286.0 654.6,286.0 659.1,286.0 663.7,286.0 668.3,286.0 672.9,286.0 677.4,286.0 682.0,286.0 686.6,286.0 691.1,286.0 695.7,286.0 700.3,286.0 704.9,286.0 709.4,286.0 714.0,286.0 718.6,286.0 723.1,286.0 727.7,286.0 732.3,286.0 736.9,286.0 741.4,286.0 746.0,286.0 750.6,286.0 755.1,286.0 759.7,286.0 764.3,280.0 768.9,268.0 773.4,268.0 778.0,268.0 782.6,268.0 787.1,262.0 791.7,262.0 796.3,262.0 800.9,268.0 805.4,268.0 810.0,274.0 814.6,274.0 819.1,274.0 823.7,268.0 828.3,268.0 832.9,268.0 837.4,274.0 842.0,274.0 846.6,274.0 851.1,274.0 855.7,268.0 860.3,268.0 864.9,262.0 869.4,262.0 874.0,268.0 878.6,268.0 883.1,268.0 887.7,262.0 892.3,262.0 896.9,274.0 901.4,262.0 906.0,262.0 910.6,262.0 915.1,262.0 919.7,268.0 924.3,268.0 928.9,274.0 933.4,280.0 938.0,280.0"/><polyline fill="none" stroke="#ef4444" stroke-width="2.5" stroke-linejoin="round" stroke-linecap="round" points="42.0,280.0 46.6,280.0 51.1,268.0 55.7,262.0 60.3,286.0 64.9,286.0 69.4,286.0 74.0,286.0 78.6,280.0 83.1,286.0 87.7,286.0 92.3,286.0 96.9,286.0 101.4,286.0 106.0,286.0 110.6,286.0 115.1,286.0 119.7,286.0 124.3,286.0 128.9,286.0 133.4,286.0 138.0,286.0 142.6,286.0 147.1,286.0 151.7,286.0 156.3,286.0 160.9,286.0 165.4,286.0 170.0,286.0 174.6,286.0 179.1,286.0 183.7,286.0 188.3,274.0 192.9,256.0 197.4,286.0 202.0,286.0 206.6,286.0 211.1,286.0 215.7,286.0 220.3,286.0 224.9,286.0 229.4,286.0 234.0,286.0 238.6,286.0 243.1,286.0 247.7,286.0 252.3,286.0 256.9,286.0 261.4,280.0 266.0,286.0 270.6,286.0 275.1,286.0 279.7,286.0 284.3,286.0 288.9,286.0 293.4,286.0 298.0,286.0 302.6,286.0 307.1,286.0 311.7,286.0 316.3,286.0 320.9,286.0 325.4,280.0 330.0,286.0 334.6,286.0 339.1,286.0 343.7,286.0 348.3,286.0 352.9,286.0 357.4,286.0 362.0,286.0 366.6,286.0 371.1,286.0 375.7,286.0 380.3,286.0 384.9,274.0 389.4,274.0 394.0,274.0 398.6,274.0 403.1,274.0 407.7,274.0 412.3,274.0 416.9,274.0 421.4,274.0 426.0,274.0 430.6,274.0 435.1,274.0 439.7,274.0 444.3,274.0 448.9,274.0 453.4,274.0 458.0,274.0 462.6,274.0 467.1,274.0 471.7,274.0 476.3,274.0 480.9,274.0 485.4,274.0 490.0,274.0 494.6,274.0 499.1,274.0 503.7,274.0 508.3,274.0 512.9,274.0 517.4,274.0 522.0,274.0 526.6,274.0 531.1,274.0 535.7,274.0 540.3,274.0 544.9,274.0 549.4,274.0 554.0,274.0 558.6,274.0 563.1,274.0 567.7,274.0 572.3,274.0 576.9,274.0 581.4,274.0 586.0,274.0 590.6,274.0 595.1,274.0 599.7,274.0 604.3,274.0 608.9,274.0 613.4,274.0 618.0,274.0 622.6,274.0 627.1,274.0 631.7,274.0 636.3,274.0 640.9,274.0 645.4,274.0 650.0,274.0 654.6,274.0 659.1,274.0 663.7,274.0 668.3,274.0 672.9,274.0 677.4,274.0 682.0,274.0 686.6,274.0 691.1,274.0 695.7,274.0 700.3,274.0 704.9,274.0 709.4,274.0 714.0,274.0 718.6,274.0 723.1,274.0 727.7,274.0 732.3,268.0 736.9,274.0 741.4,274.0 746.0,274.0 750.6,274.0 755.1,274.0 759.7,274.0 764.3,274.0 768.9,274.0 773.4,274.0 778.0,274.0 782.6,268.0 787.1,274.0 791.7,274.0 796.3,274.0 800.9,274.0 805.4,274.0 810.0,274.0 814.6,274.0 819.1,274.0 823.7,274.0 828.3,274.0 832.9,268.0 837.4,274.0 842.0,274.0 846.6,274.0 851.1,274.0 855.7,274.0 860.3,274.0 864.9,274.0 869.4,274.0 874.0,274.0 878.6,274.0 883.1,274.0 887.7,274.0 892.3,274.0 896.9,250.0 901.4,274.0 906.0,274.0 910.6,274.0 915.1,274.0 919.7,274.0 924.3,274.0 928.9,274.0 933.4,274.0 938.0,274.0"/><polyline fill="none" stroke="#a855f7" stroke-width="2.5" stroke-linejoin="round" stroke-linecap="round" points="42.0,286.0 46.6,286.0 51.1,286.0 55.7,286.0 60.3,286.0 64.9,286.0 69.4,286.0 74.0,286.0 78.6,286.0 83.1,286.0 87.7,286.0 92.3,286.0 96.9,286.0 101.4,286.0 106.0,286.0 110.6,286.0 115.1,286.0 119.7,286.0 124.3,286.0 128.9,286.0 133.4,286.0 138.0,286.0 142.6,286.0 147.1,286.0 151.7,286.0 156.3,286.0 160.9,286.0 165.4,286.0 170.0,286.0 174.6,286.0 179.1,286.0 183.7,286.0 188.3,286.0 192.9,286.0 197.4,286.0 202.0,286.0 206.6,286.0 211.1,286.0 215.7,286.0 220.3,286.0 224.9,286.0 229.4,286.0 234.0,286.0 238.6,286.0 243.1,286.0 247.7,286.0 252.3,286.0 256.9,286.0 261.4,286.0 266.0,286.0 270.6,286.0 275.1,286.0 279.7,286.0 284.3,286.0 288.9,286.0 293.4,286.0 298.0,286.0 302.6,286.0 307.1,286.0 311.7,286.0 316.3,286.0 320.9,286.0 325.4,286.0 330.0,286.0 334.6,286.0 339.1,286.0 343.7,286.0 348.3,286.0 352.9,286.0 357.4,286.0 362.0,280.0 366.6,286.0 371.1,286.0 375.7,286.0 380.3,286.0 384.9,286.0 389.4,286.0 394.0,286.0 398.6,286.0 403.1,286.0 407.7,286.0 412.3,286.0 416.9,286.0 421.4,286.0 426.0,286.0 430.6,286.0 435.1,286.0 439.7,286.0 444.3,286.0 448.9,286.0 453.4,286.0 458.0,286.0 462.6,286.0 467.1,286.0 471.7,286.0 476.3,286.0 480.9,286.0 485.4,286.0 490.0,286.0 494.6,286.0 499.1,286.0 503.7,286.0 508.3,286.0 512.9,286.0 517.4,286.0 522.0,286.0 526.6,286.0 531.1,286.0 535.7,286.0 540.3,286.0 544.9,286.0 549.4,286.0 554.0,286.0 558.6,286.0 563.1,286.0 567.7,286.0 572.3,286.0 576.9,286.0 581.4,286.0 586.0,286.0 590.6,286.0 595.1,286.0 599.7,286.0 604.3,286.0 608.9,286.0 613.4,286.0 618.0,286.0 622.6,286.0 627.1,286.0 631.7,286.0 636.3,286.0 640.9,286.0 645.4,286.0 650.0,286.0 654.6,286.0 659.1,286.0 663.7,286.0 668.3,286.0 672.9,286.0 677.4,286.0 682.0,286.0 686.6,286.0 691.1,286.0 695.7,286.0 700.3,286.0 704.9,286.0 709.4,286.0 714.0,286.0 718.6,286.0 723.1,286.0 727.7,286.0 732.3,286.0 736.9,286.0 741.4,286.0 746.0,286.0 750.6,286.0 755.1,286.0 759.7,280.0 764.3,286.0 768.9,286.0 773.4,286.0 778.0,286.0 782.6,286.0 787.1,286.0 791.7,286.0 796.3,286.0 800.9,286.0 805.4,286.0 810.0,286.0 814.6,286.0 819.1,286.0 823.7,286.0 828.3,286.0 832.9,286.0 837.4,286.0 842.0,286.0 846.6,286.0 851.1,286.0 855.7,286.0 860.3,286.0 864.9,286.0 869.4,286.0 874.0,286.0 878.6,286.0 883.1,286.0 887.7,286.0 892.3,286.0 896.9,286.0 901.4,286.0 906.0,286.0 910.6,286.0 915.1,286.0 919.7,286.0 924.3,286.0 928.9,286.0 933.4,286.0 938.0,286.0"/><text x="42" y="308" font-size="11" fill="#5a688a">19/06 12:43</text><text x="938" y="308" text-anchor="end" font-size="11" fill="#5a688a">30/06 23:29</text></svg>