<svg xmlns="http://www.w3.org/2000/svg" viewBox="0 0 960 320" width="960" height="320" font-family="Segoe UI, system-ui, -apple-system, Roboto, Helvetica, Arial, sans-serif" role="img" aria-label="Availability history per region"><rect x="0.5" y="0.5" width="959" height="319" rx="14" fill="#ffffff" stroke="#dce3f1"/><text x="42" y="26" font-size="14" font-weight="600" fill="#14203a">History · 48 points</text><circle cx="47" cy="40" r="5" fill="#22c55e"/><text x="57" y="44" font-size="12" fill="#5a688a">Available</text><circle cx="139.8" cy="40" r="5" fill="#f59e0b"/><text x="149.8" y="44" font-size="12" fill="#5a688a">Saturated</text><circle cx="232.60000000000002" cy="40" r="5" fill="#ef4444"/><text x="242.60000000000002" y="44" font-size="12" fill="#5a688a">Error</text><line x1="42" y1="286.0" x2="938" y2="286.0" stroke="#eef2f7" stroke-width="1"/><text x="35" y="289.0" text-anchor="end" font-size="11" fill="#5a688a">0</text><line x1="42" y1="227.5" x2="938" y2="227.5" stroke="#eef2f7" stroke-width="1"/><text x="35" y="230.5" text-anchor="end" font-size="11" fill="#5a688a">10</text><line x1="42" y1="169.0" x2="938" y2="169.0" stroke="#eef2f7" stroke-width="1"/><text x="35" y="172.0" text-anchor="end" font-size="11" fill="#5a688a">20</text><line x1="42" y1="110.5" x2="938" y2="110.5" stroke="#eef2f7" stroke-width="1"/><text x="35" y="113.5" text-anchor="end" font-size="11" fill="#5a688a">29</text><line x1="42" y1="52.0" x2="938" y2="52.0" stroke="#eef2f7" stroke-width="1"/><text x="35" y="55.0" text-anchor="end" font-size="11" fill="#5a688a">39</text><polyline fill="none" stroke="#22c55e" stroke-width="2.5" stroke-linejoin="round" stroke-linecap="round" points="42.0,70.0 61.1,70.0 80.1,88.0 99.2,88.0 118.3,76.0 137.3,76.0 156.4,76.0 175.4,70.0 194.5,76.0 213.6,70.0 232.6,64.0 251.7,58.0 270.8,58.0 289.8,58.0 308.9,58.0 328.0,58.0 347.0,58.0 366.1,58.0 385.1,58.0 404.2,58.0 423.3,58.0 442.3,58.0 461.4,58.0 480.5,58.0 499.5,58.0 518.6,58.0 537.7,58.0 556.7,58.0 575.8,58.0 594.9,58.0 613.9,58.0 633.0,70.0 652.0,76.0 671.1,94.0 690.2,64.0 709.2,64.0 728.3,58.0 747.4,58.0 766.4,58.0 785.5,70.0 804.6,76.0 823.6,76.0 842.7,82.0 861.7,82.0 880.8,82.0 899.9,82.0 918.9,76.0 938.0,64.0"/><circle cx="42.0" cy="70.0" r="2.5" fill="#22c55e"/><circle cx="61.1" cy="70.0" r="2.5" fill="#22c55e"/><circle cx="80.1" cy="88.0" r="2.5" fill="#22c55e"/><circle cx="99.2" cy="88.0" r="2.5" fill="#22c55e"/><circle cx="118.3" cy="76.0" r="2.5" fill="#22c55e"/><circle cx="137.3" cy="76.0" r="2.5" fill="#22c55e"/><circle cx="156.4" cy="76.0" r="2.5" fill="#22c55e"/><circle cx="175.4" cy="70.0" r="2.5" fill="#22c55e"/><circle cx="194.5" cy="76.0" r="2.5" fill="#22c55e"/><circle cx="213.6" cy="70.0" r="2.5" fill="#22c55e"/><circle cx="232.6" cy="64.0" r="2.5" fill="#22c55e"/><circle cx="251.7" cy="58.0" r="2.5" fill="#22c55e"/><circle cx="270.8" cy="58.0" r="2.5" fill="#22c55e"/><circle cx="289.8" cy="58.0" r="2.5" fill="#22c55e"/><circle cx="308.9" cy="58.0" r="2.5" fill="#22c55e"/><circle cx="328.0" cy="58.0" r="2.5" fill="#22c55e"/><circle cx="347.0" cy="58.0" r="2.5" fill="#22c55e"/><circle cx="366.1" cy="58.0" r="2.5" fill="#22c55e"/><circle cx="385.1" cy="58.0" r="2.5" fill="#22c55e"/><circle cx="404.2" cy="58.0" r="2.5" fill="#22c55e"/><circle cx="423.3" cy="58.0" r="2.5" fill="#22c55e"/><circle cx="442.3" cy="58.0" r="2.5" fill="#22c55e"/><circle cx="461.4" cy="58.0" r="2.5" fill="#22c55e"/><circle cx="480.5" cy="58.0" r="2.5" fill="#22c55e"/><circle cx="499.5" cy="58.0" r="2.5" fill="#22c55e"/><circle cx="518.6" cy="58.0" r="2.5" fill="#22c55e"/><circle cx="537.7" cy="58.0" r="2.5" fill="#22c55e"/><circle cx="556.7" cy="58.0" r="2.5" fill="#22c55e"/><circle cx="575.8" cy="58.0" r="2.5" fill="#22c55e"/><circle cx="594.9" cy="58.0" r="2.5" fill="#22c55e"/><circle cx="613.9" cy="58.0" r="2.5" fill="#22c55e"/><circle cx="633.0" cy="70.0" r="2.5" fill="#22c55e"/><circle cx="652.0" cy="76.0" r="2.5" fill="#22c55e"/><circle cx="671.1" cy="94.0" r="2.5" fill="#22c55e"/><circle cx="690.2" cy="64.0" r="2.5" fill="#22c55e"/><circle cx="709.2" cy="64.0" r="2.5" fill="#22c55e"/><circle cx="728.3" cy="58.0" r="2.5" fill="#22c55e"/><circle cx="747.4" cy="58.0" r="2.5" fill="#22c55e"/><circle cx="766.4" cy="58.0" r="2.5" fill="#22c55e"/><circle cx="785.5" cy="70.0" r="2.5" fill="#22c55e"/><circle cx="804.6" cy="76.0" r="2.5" fill="#22c55e"/><circle cx="823.6" cy="76.0" r="2.5" fill="#22c55e"/><circle cx="842.7" cy="82.0" r="2.5" fill="#22c55e"/><circle cx="861.7" cy="82.0" r="2.5" fill="#22c55e"/><circle cx="880.8" cy="82.0" r="2.5" fill="#22c55e"/><circle cx="899.9" cy="82.0" r="2.5" fill="#22c55e"/><circle cx="918.9" cy="76.0" r="2.5" fill="#22c55e"/><circle cx="938.0" cy="64.0" r="2.5" fill="#22c55e"/><polyline fill="none" stroke="#f59e0b" stroke-width="2.5" stroke-linejoin="round" stroke-linecap="round" points="42.0,274.0 61.1,274.0 80.1,274.0 99.2,280.0 118.3,268.0 137.3,268.0 156.4,268.0 175.4,274.0 194.5,274.0 213.6,274.0 232.6,280.0 251.7,286.0 270.8,286.0 289.8,286.0 308.9,286.0 328.0,286.0 347.0,286.0 366.1,286.0 385.1,286.0 404.2,286.0 423.3,286.0 442.3,286.0 461.4,286.0 480.5,286.0 499.5,286.0 518.6,286.0 537.7,286.0 556.7,286.0 575.8,286.0 594.9,286.0 613.9,286.0 633.0,274.0 652.0,280.0 671.1,280.0 690.2,280.0 709.2,280.0 728.3,286.0 747.4,286.0 766.4,286.0 785.5,274.0 804.6,268.0 823.6,268.0 842.7,262.0 861.7,262.0 880.8,262.0 899.9,262.0 918.9,268.0 938.0,280.0"/><circle cx="42.0" cy="274.0" r="2.5" fill="#f59e0b"/><circle cx="61.1" cy="274.0" r="2.5" fill="#f59e0b"/><circle cx="80.1" cy="274.0" r="2.5" fill="#f59e0b"/><circle cx="99.2" cy="280.0" r="2.5" fill="#f59e0b"/><circle cx="118.3" cy="268.0" r="2.5" fill="#f59e0b"/><circle cx="137.3" cy="268.0" r="2.5" fill="#f59e0b"/><circle cx="156.4" cy="268.0" r="2.5" fill="#f59e0b"/><circle cx="175.4" cy="274.0" r="2.5" fill="#f59e0b"/><circle cx="194.5" cy="274.0" r="2.5" fill="#f59e0b"/><circle cx="213.6" cy="274.0" r="2.5" fill="#f59e0b"/><circle cx="232.6" cy="280.0" r="2.5" fill="#f59e0b"/><circle cx="251.7" cy="286.0" r="2.5" fill="#f59e0b"/><circle cx="270.8" cy="286.0" r="2.5" fill="#f59e0b"/><circle cx="289.8" cy="286.0" r="2.5" fill="#f59e0b"/><circle cx="308.9" cy="286.0" r="2.5" fill="#f59e0b"/><circle cx="328.0" cy="286.0" r="2.5" fill="#f59e0b"/><circle cx="347.0" cy="286.0" r="2.5" fill="#f59e0b"/><circle cx="366.1" cy="286.0" r="2.5" fill="#f59e0b"/><circle cx="385.1" cy="286.0" r="2.5" fill="#f59e0b"/><circle cx="404.2" cy="286.0" r="2.5" fill="#f59e0b"/><circle cx="423.3" cy="286.0" r="2.5" fill="#f59e0b"/><circle cx="442.3" cy="286.0" r="2.5" fill="#f59e0b"/><circle cx="461.4" cy="286.0" r="2.5" fill="#f59e0b"/><circle cx="480.5" cy="286.0" r="2.5" fill="#f59e0b"/><circle cx="499.5" cy="286.0" r="2.5" fill="#f59e0b"/><circle cx="518.6" cy="286.0" r="2.5" fill="#f59e0b"/><circle cx="537.7" cy="286.0" r="2.5" fill="#f59e0b"/><circle cx="556.7" cy="286.0" r="2.5" fill="#f59e0b"/><circle cx="575.8" cy="286.0" r="2.5" fill="#f59e0b"/><circle cx="594.9" cy="286.0" r="2.5" fill="#f59e0b"/><circle cx="613.9" cy="286.0" r="2.5" fill="#f59e0b"/><circle cx="633.0" cy="274.0" r="2.5" fill="#f59e0b"/><circle cx="652.0" cy="280.0" r="2.5" fill="#f59e0b"/><circle cx="671.1" cy="280.0" r="2.5" fill="#f59e0b"/><circle cx="690.2" cy="280.0" r="2.5" fill="#f59e0b"/><circle cx="709.2" cy="280.0" r="2.5" fill="#f59e0b"/><circle cx="728.3" cy="286.0" r="2.5" fill="#f59e0b"/><circle cx="747.4" cy="286.0" r="2.5" fill="#f59e0b"/><circle cx="766.4" cy="286.0" r="2.5" fill="#f59e0b"/><circle cx="785.5" cy="274.0" r="2.5" fill="#f59e0b"/><circle cx="804.6" cy="268.0" r="2.5" fill="#f59e0b"/><circle cx="823.6" cy="268.0" r="2.5" fill="#f59e0b"/><circle cx="842.7" cy="262.0" r="2.5" fill="#f59e0b"/><circle cx="861.7" cy="262.0" r="2.5" fill="#f59e0b"/><circle cx="880.8" cy="262.0" r="2.5" fill="#f59e0b"/><circle cx="899.9" cy="262.0" r="2.5" fill="#f59e0b"/><circle cx="918.9" cy="268.0" r="2.5" fill="#f59e0b"/><circle cx="938.0" cy="280.0" r="2.5" fill="#f59e0b"/><polyline fill="none" stroke="#ef4444" stroke-width="2.5" stroke-linejoin="round" stroke-linecap="round" points="42.0,280.0 61.1,280.0 80.1,268.0 99.2,262.0 118.3,286.0 137.3,286.0 156.4,286.0 175.4,286.0 194.5,280.0 213.6,286.0 232.6,286.0 251.7,286.0 270.8,286.0 289.8,286.0 308.9,286.0 328.0,286.0 347.0,286.0 366.1,286.0 385.1,286.0 404.2,286.0 423.3,286.0 442.3,286.0 461.4,286.0 480.5,286.0 499.5,286.0 518.6,286.0 537.7,286.0 556.7,286.0 575.8,286.0 594.9,286.0 613.9,286.0 633.0,286.0 652.0,274.0 671.1,256.0 690.2,286.0 709.2,286.0 728.3,286.0 747.4,286.0 766.4,286.0 785.5,286.0 804.6,286.0 823.6,286.0 842.7,286.0 861.7,286.0 880.8,286.0 899.9,286.0 918.9,286.0 938.0,286.0"/><circle cx="42.0" cy="280.0" r="2.5" fill="#ef4444"/><circle cx="61.1" cy="280.0" r="2.5" fill="#ef4444"/><circle cx="80.1" cy="268.0" r="2.5" fill="#ef4444"/><circle cx="99.2" cy="262.0" r="2.5" fill="#ef4444"/><circle cx="118.3" cy="286.0" r="2.5" fill="#ef4444"/><circle cx="137.3" cy="286.0" r="2.5" fill="#ef4444"/><circle cx="156.4" cy="286.0" r="2.5" fill="#ef4444"/><circle cx="175.4" cy="286.0" r="2.5" fill="#ef4444"/><circle cx="194.5" cy="280.0" r="2.5" fill="#ef4444"/><circle cx="213.6" cy="286.0" r="2.5" fill="#ef4444"/><circle cx="232.6" cy="286.0" r="2.5" fill="#ef4444"/><circle cx="251.7" cy="286.0" r="2.5" fill="#ef4444"/><circle cx="270.8" cy="286.0" r="2.5" fill="#ef4444"/><circle cx="289.8" cy="286.0" r="2.5" fill="#ef4444"/><circle cx="308.9" cy="286.0" r="2.5" fill="#ef4444"/><circle cx="328.0" cy="286.0" r="2.5" fill="#ef4444"/><circle cx="347.0" cy="286.0" r="2.5" fill="#ef4444"/><circle cx="366.1" cy="286.0" r="2.5" fill="#ef4444"/><circle cx="385.1" cy="286.0" r="2.5" fill="#ef4444"/><circle cx="404.2" cy="286.0" r="2.5" fill="#ef4444"/><circle cx="423.3" cy="286.0" r="2.5" fill="#ef4444"/><circle cx="442.3" cy="286.0" r="2.5" fill="#ef4444"/><circle cx="461.4" cy="286.0" r="2.5" fill="#ef4444"/><circle cx="480.5" cy="286.0" r="2.5" fill="#ef4444"/><circle cx="499.5" cy="286.0" r="2.5" fill="#ef4444"/><circle cx="518.6" cy="286.0" r="2.5" fill="#ef4444"/><circle cx="537.7" cy="286.0" r="2.5" fill="#ef4444"/><circle cx="556.7" cy="286.0" r="2.5" fill="#ef4444"/><circle cx="575.8" cy="286.0" r="2.5" fill="#ef4444"/><circle cx="594.9" cy="286.0" r="2.5" fill="#ef4444"/><circle cx="613.9" cy="286.0" r="2.5" fill="#ef4444"/><circle cx="633.0" cy="286.0" r="2.5" fill="#ef4444"/><circle cx="652.0" cy="274.0" r="2.5" fill="#ef4444"/><circle cx="671.1" cy="256.0" r="2.5" fill="#ef4444"/><circle cx="690.2" cy="286.0" r="2.5" fill="#ef4444"/><circle cx="709.2" cy="286.0" r="2.5" fill="#ef4444"/><circle cx="728.3" cy="286.0" r="2.5" fill="#ef4444"/><circle cx="747.4" cy="286.0" r="2.5" fill="#ef4444"/><circle cx="766.4" cy="286.0" r="2.5" fill="#ef4444"/><circle cx="785.5" cy="286.0" r="2.5" fill="#ef4444"/><circle cx="804.6" cy="286.0" r="2.5" fill="#ef4444"/><circle cx="823.6" cy="286.0" r="2.5" fill="#ef4444"/><circle cx="842.7" cy="286.0" r="2.5" fill="#ef4444"/><circle cx="861.7" cy="286.0" r="2.5" fill="#ef4444"/><circle cx="880.8" cy="286.0" r="2.5" fill="#ef4444"/><circle cx="899.9" cy="286.0" r="2.5" fill="#ef4444"/><circle cx="918.9" cy="286.0" r="2.5" fill="#ef4444"/><circle cx="938.0" cy="286.0" r="2.5" fill="#ef4444"/><text x="42" y="308" font-size="11" fill="#5a688a">19/06 12:43</text><text x="938" y="308" text-anchor="end" font-size="11" fill="#5a688a">23/06 22:57</text></svg>