<svg xmlns="http://www.w3.org/2000/svg" viewBox="0 0 960 320" width="960" height="320" font-family="Segoe UI, system-ui, -apple-system, Roboto, Helvetica, Arial, sans-serif" role="img" aria-label="Availability history per region"><rect x="0.5" y="0.5" width="959" height="319" rx="14" fill="#0d1117" stroke="#2c3a5e"/><text x="42" y="26" font-size="14" font-weight="600" fill="#e6ecff">History · 179 points</text><circle cx="47" cy="40" r="5" fill="#22c55e"/><text x="57" y="44" font-size="12" fill="#9fb0d4">Available</text><circle cx="139.8" cy="40" r="5" fill="#f59e0b"/><text x="149.8" y="44" font-size="12" fill="#9fb0d4">Saturated</text><circle cx="232.60000000000002" cy="40" r="5" fill="#ef4444"/><text x="242.60000000000002" y="44" font-size="12" fill="#9fb0d4">Error</text><circle cx="296.6" cy="40" r="5" fill="#a855f7"/><text x="306.6" y="44" font-size="12" fill="#9fb0d4">Timeout</text><line x1="42" y1="286.0" x2="938" y2="286.0" stroke="#21304f" stroke-width="1"/><text x="35" y="289.0" text-anchor="end" font-size="11" fill="#9fb0d4">0</text><line x1="42" y1="227.5" x2="938" y2="227.5" stroke="#21304f" stroke-width="1"/><text x="35" y="230.5" text-anchor="end" font-size="11" fill="#9fb0d4">10</text><line x1="42" y1="169.0" x2="938" y2="169.0" stroke="#21304f" stroke-width="1"/><text x="35" y="172.0" text-anchor="end" font-size="11" fill="#9fb0d4">21</text><line x1="42" y1="110.5" x2="938" y2="110.5" stroke="#21304f" stroke-width="1"/><text x="35" y="113.5" text-anchor="end" font-size="11" fill="#9fb0d4">32</text><line x1="42" y1="52.0" x2="938" y2="52.0" stroke="#21304f" stroke-width="1"/><text x="35" y="55.0" text-anchor="end" font-size="11" fill="#9fb0d4">42</text><polyline fill="none" stroke="#22c55e" stroke-width="2.5" stroke-linejoin="round" stroke-linecap="round" points="42.0,85.4 47.0,230.3 52.1,102.1 57.1,107.7 62.1,102.1 67.2,96.6 72.2,96.6 77.2,96.6 82.3,96.6 87.3,96.6 92.3,96.6 97.4,96.6 102.4,96.6 107.4,96.6 112.5,96.6 117.5,91.0 122.5,91.0 127.6,102.1 132.6,102.1 137.6,102.1 142.7,107.7 147.7,107.7 152.7,107.7 157.8,107.7 162.8,107.7 167.8,107.7 172.9,107.7 177.9,107.7 182.9,107.7 188.0,102.1 193.0,102.1 198.0,102.1 203.1,102.1 208.1,96.6 213.1,96.6 218.2,96.6 223.2,96.6 228.2,96.6 233.3,102.1 238.3,102.1 243.3,102.1 248.4,102.1 253.4,96.6 258.4,96.6 263.5,96.6 268.5,96.6 273.6,96.6 278.6,96.6 283.6,96.6 288.7,102.1 293.7,102.1 298.7,102.1 303.8,102.1 308.8,96.6 313.8,96.6 318.9,96.6 323.9,96.6 328.9,96.6 334.0,96.6 339.0,96.6 344.0,96.6 349.1,102.1 354.1,96.6 359.1,96.6 364.2,96.6 369.2,96.6 374.2,96.6 379.3,102.1 384.3,96.6 389.3,96.6 394.4,96.6 399.4,96.6 404.4,96.6 409.5,96.6 414.5,96.6 419.5,96.6 424.6,96.6 429.6,91.0 434.6,91.0 439.7,91.0 444.7,91.0 449.7,96.6 454.8,91.0 459.8,96.6 464.8,96.6 469.9,96.6 474.9,96.6 479.9,96.6 485.0,96.6 490.0,102.1 495.0,107.7 500.1,107.7 505.1,107.7 510.1,107.7 515.2,107.7 520.2,107.7 525.2,107.7 530.3,113.3 535.3,107.7 540.3,107.7 545.4,107.7 550.4,107.7 555.4,107.7 560.5,107.7 565.5,102.1 570.5,102.1 575.6,102.1 580.6,102.1 585.6,102.1 590.7,102.1 595.7,102.1 600.7,102.1 605.8,107.7 610.8,107.7 615.8,107.7 620.9,107.7 625.9,107.7 630.9,107.7 636.0,107.7 641.0,107.7 646.0,113.3 651.1,107.7 656.1,107.7 661.1,107.7 666.2,118.9 671.2,107.7 676.2,107.7 681.3,107.7 686.3,107.7 691.3,102.1 696.4,102.1 701.4,102.1 706.4,102.1 711.5,107.7 716.5,102.1 721.6,107.7 726.6,107.7 731.6,107.7 736.7,107.7 741.7,113.3 746.7,107.7 751.8,107.7 756.8,107.7 761.8,107.7 766.9,107.7 771.9,107.7 776.9,107.7 782.0,107.7 787.0,113.3 792.0,102.1 797.1,102.1 802.1,102.1 807.1,102.1 812.2,102.1 817.2,102.1 822.2,102.1 827.3,102.1 832.3,102.1 837.3,102.1 842.4,107.7 847.4,102.1 852.4,102.1 857.5,102.1 862.5,102.1 867.5,102.1 872.6,102.1 877.6,102.1 882.6,102.1 887.7,107.7 892.7,91.0 897.7,85.4 902.8,79.9 907.8,79.9 912.8,79.9 917.9,79.9 922.9,79.9 927.9,79.9 933.0,79.9 938.0,91.0"/><polyline fill="none" stroke="#f59e0b" stroke-width="2.5" stroke-linejoin="round" stroke-linecap="round" points="42.0,274.9 47.0,269.3 52.1,258.1 57.1,252.6 62.1,258.1 67.2,263.7 72.2,263.7 77.2,263.7 82.3,263.7 87.3,263.7 92.3,263.7 97.4,263.7 102.4,263.7 107.4,263.7 112.5,263.7 117.5,269.3 122.5,269.3 127.6,263.7 132.6,258.1 137.6,258.1 142.7,252.6 147.7,252.6 152.7,252.6 157.8,252.6 162.8,252.6 167.8,252.6 172.9,252.6 177.9,252.6 182.9,252.6 188.0,258.1 193.0,258.1 198.0,258.1 203.1,258.1 208.1,263.7 213.1,263.7 218.2,263.7 223.2,263.7 228.2,263.7 233.3,258.1 238.3,258.1 243.3,258.1 248.4,258.1 253.4,263.7 258.4,263.7 263.5,263.7 268.5,263.7 273.6,263.7 278.6,263.7 283.6,263.7 288.7,258.1 293.7,258.1 298.7,258.1 303.8,263.7 308.8,263.7 313.8,263.7 318.9,263.7 323.9,263.7 328.9,263.7 334.0,263.7 339.0,263.7 344.0,263.7 349.1,258.1 354.1,263.7 359.1,263.7 364.2,263.7 369.2,263.7 374.2,263.7 379.3,263.7 384.3,263.7 389.3,263.7 394.4,263.7 399.4,263.7 404.4,263.7 409.5,263.7 414.5,263.7 419.5,263.7 424.6,263.7 429.6,269.3 434.6,269.3 439.7,269.3 444.7,269.3 449.7,269.3 454.8,269.3 459.8,263.7 464.8,263.7 469.9,263.7 474.9,263.7 479.9,263.7 485.0,263.7 490.0,258.1 495.0,252.6 500.1,252.6 505.1,258.1 510.1,252.6 515.2,252.6 520.2,252.6 525.2,252.6 530.3,252.6 535.3,252.6 540.3,258.1 545.4,252.6 550.4,252.6 555.4,252.6 560.5,252.6 565.5,258.1 570.5,258.1 575.6,258.1 580.6,258.1 585.6,258.1 590.7,258.1 595.7,258.1 600.7,258.1 605.8,252.6 610.8,252.6 615.8,252.6 620.9,252.6 625.9,252.6 630.9,252.6 636.0,252.6 641.0,258.1 646.0,252.6 651.1,252.6 656.1,252.6 661.1,252.6 666.2,252.6 671.2,252.6 676.2,252.6 681.3,258.1 686.3,258.1 691.3,258.1 696.4,258.1 701.4,258.1 706.4,258.1 711.5,258.1 716.5,258.1 721.6,252.6 726.6,252.6 731.6,252.6 736.7,252.6 741.7,252.6 746.7,252.6 751.8,252.6 756.8,252.6 761.8,252.6 766.9,252.6 771.9,252.6 776.9,252.6 782.0,252.6 787.0,252.6 792.0,258.1 797.1,258.1 802.1,258.1 807.1,258.1 812.2,258.1 817.2,263.7 822.2,263.7 827.3,258.1 832.3,258.1 837.3,258.1 842.4,258.1 847.4,258.1 852.4,258.1 857.5,258.1 862.5,258.1 867.5,258.1 872.6,258.1 877.6,258.1 882.6,258.1 887.7,258.1 892.7,258.1 897.7,258.1 902.8,258.1 907.8,258.1 912.8,258.1 917.9,258.1 922.9,258.1 927.9,258.1 933.0,258.1 938.0,258.1"/><polyline fill="none" stroke="#ef4444" stroke-width="2.5" stroke-linejoin="round" stroke-linecap="round" points="42.0,286.0 47.0,146.7 52.1,286.0 57.1,286.0 62.1,286.0 67.2,286.0 72.2,286.0 77.2,286.0 82.3,286.0 87.3,286.0 92.3,286.0 97.4,286.0 102.4,286.0 107.4,286.0 112.5,286.0 117.5,286.0 122.5,286.0 127.6,280.4 132.6,286.0 137.6,286.0 142.7,286.0 147.7,286.0 152.7,286.0 157.8,286.0 162.8,286.0 167.8,286.0 172.9,286.0 177.9,286.0 182.9,286.0 188.0,286.0 193.0,286.0 198.0,286.0 203.1,286.0 208.1,286.0 213.1,286.0 218.2,286.0 223.2,286.0 228.2,286.0 233.3,286.0 238.3,286.0 243.3,286.0 248.4,286.0 253.4,286.0 258.4,286.0 263.5,286.0 268.5,286.0 273.6,286.0 278.6,286.0 283.6,286.0 288.7,286.0 293.7,286.0 298.7,286.0 303.8,286.0 308.8,286.0 313.8,286.0 318.9,286.0 323.9,286.0 328.9,286.0 334.0,286.0 339.0,286.0 344.0,286.0 349.1,286.0 354.1,286.0 359.1,286.0 364.2,286.0 369.2,286.0 374.2,286.0 379.3,280.4 384.3,286.0 389.3,286.0 394.4,286.0 399.4,286.0 404.4,286.0 409.5,286.0 414.5,286.0 419.5,286.0 424.6,286.0 429.6,286.0 434.6,286.0 439.7,286.0 444.7,286.0 449.7,280.4 454.8,286.0 459.8,286.0 464.8,286.0 469.9,286.0 474.9,286.0 479.9,286.0 485.0,286.0 490.0,286.0 495.0,286.0 500.1,286.0 505.1,280.4 510.1,286.0 515.2,286.0 520.2,286.0 525.2,286.0 530.3,280.4 535.3,286.0 540.3,286.0 545.4,286.0 550.4,286.0 555.4,286.0 560.5,286.0 565.5,286.0 570.5,286.0 575.6,286.0 580.6,286.0 585.6,286.0 590.7,286.0 595.7,286.0 600.7,286.0 605.8,286.0 610.8,286.0 615.8,286.0 620.9,286.0 625.9,286.0 630.9,286.0 636.0,286.0 641.0,286.0 646.0,280.4 651.1,286.0 656.1,286.0 661.1,286.0 666.2,274.9 671.2,286.0 676.2,286.0 681.3,280.4 686.3,280.4 691.3,286.0 696.4,286.0 701.4,286.0 706.4,286.0 711.5,280.4 716.5,286.0 721.6,286.0 726.6,286.0 731.6,286.0 736.7,286.0 741.7,286.0 746.7,286.0 751.8,286.0 756.8,286.0 761.8,286.0 766.9,286.0 771.9,286.0 776.9,286.0 782.0,286.0 787.0,286.0 792.0,286.0 797.1,286.0 802.1,286.0 807.1,286.0 812.2,286.0 817.2,280.4 822.2,286.0 827.3,286.0 832.3,286.0 837.3,263.7 842.4,280.4 847.4,286.0 852.4,286.0 857.5,286.0 862.5,286.0 867.5,286.0 872.6,286.0 877.6,286.0 882.6,286.0 887.7,258.1 892.7,274.9 897.7,280.4 902.8,286.0 907.8,286.0 912.8,286.0 917.9,286.0 922.9,286.0 927.9,286.0 933.0,286.0 938.0,274.9"/><polyline fill="none" stroke="#a855f7" stroke-width="2.5" stroke-linejoin="round" stroke-linecap="round" points="42.0,286.0 47.0,286.0 52.1,286.0 57.1,286.0 62.1,286.0 67.2,286.0 72.2,286.0 77.2,286.0 82.3,286.0 87.3,286.0 92.3,286.0 97.4,286.0 102.4,286.0 107.4,286.0 112.5,286.0 117.5,286.0 122.5,286.0 127.6,286.0 132.6,286.0 137.6,286.0 142.7,286.0 147.7,286.0 152.7,286.0 157.8,286.0 162.8,286.0 167.8,286.0 172.9,286.0 177.9,286.0 182.9,286.0 188.0,286.0 193.0,286.0 198.0,286.0 203.1,286.0 208.1,286.0 213.1,286.0 218.2,286.0 223.2,286.0 228.2,286.0 233.3,286.0 238.3,286.0 243.3,286.0 248.4,286.0 253.4,286.0 258.4,286.0 263.5,286.0 268.5,286.0 273.6,286.0 278.6,286.0 283.6,286.0 288.7,286.0 293.7,286.0 298.7,286.0 303.8,280.4 308.8,286.0 313.8,286.0 318.9,286.0 323.9,286.0 328.9,286.0 334.0,286.0 339.0,286.0 344.0,286.0 349.1,286.0 354.1,286.0 359.1,286.0 364.2,286.0 369.2,286.0 374.2,286.0 379.3,286.0 384.3,286.0 389.3,286.0 394.4,286.0 399.4,286.0 404.4,286.0 409.5,286.0 414.5,286.0 419.5,286.0 424.6,286.0 429.6,286.0 434.6,286.0 439.7,286.0 444.7,286.0 449.7,286.0 454.8,286.0 459.8,286.0 464.8,286.0 469.9,286.0 474.9,286.0 479.9,286.0 485.0,286.0 490.0,286.0 495.0,286.0 500.1,286.0 505.1,286.0 510.1,286.0 515.2,286.0 520.2,286.0 525.2,286.0 530.3,286.0 535.3,286.0 540.3,280.4 545.4,286.0 550.4,286.0 555.4,286.0 560.5,286.0 565.5,286.0 570.5,286.0 575.6,286.0 580.6,286.0 585.6,286.0 590.7,286.0 595.7,286.0 600.7,286.0 605.8,286.0 610.8,286.0 615.8,286.0 620.9,286.0 625.9,286.0 630.9,286.0 636.0,286.0 641.0,280.4 646.0,286.0 651.1,286.0 656.1,286.0 661.1,286.0 666.2,286.0 671.2,286.0 676.2,286.0 681.3,286.0 686.3,286.0 691.3,286.0 696.4,286.0 701.4,286.0 706.4,286.0 711.5,286.0 716.5,286.0 721.6,286.0 726.6,286.0 731.6,286.0 736.7,286.0 741.7,280.4 746.7,286.0 751.8,286.0 756.8,286.0 761.8,286.0 766.9,286.0 771.9,286.0 776.9,286.0 782.0,286.0 787.0,280.4 792.0,286.0 797.1,286.0 802.1,286.0 807.1,286.0 812.2,286.0 817.2,286.0 822.2,280.4 827.3,286.0 832.3,286.0 837.3,286.0 842.4,286.0 847.4,286.0 852.4,286.0 857.5,286.0 862.5,286.0 867.5,286.0 872.6,286.0 877.6,286.0 882.6,286.0 887.7,286.0 892.7,286.0 897.7,286.0 902.8,286.0 907.8,286.0 912.8,286.0 917.9,286.0 922.9,286.0 927.9,286.0 933.0,286.0 938.0,286.0"/><text x="42" y="308" font-size="11" fill="#9fb0d4">19/06 15:39</text><text x="938" y="308" text-anchor="end" font-size="11" fill="#9fb0d4">24/07 01:30</text></svg>