<svg xmlns="http://www.w3.org/2000/svg" viewBox="0 0 960 320" width="960" height="320" font-family="Segoe UI, system-ui, -apple-system, Roboto, Helvetica, Arial, sans-serif" role="img" aria-label="Availability history per region"><rect x="0.5" y="0.5" width="959" height="319" rx="14" fill="#ffffff" stroke="#dce3f1"/><text x="42" y="26" font-size="14" font-weight="600" fill="#14203a">History · 336 points</text><circle cx="47" cy="40" r="5" fill="#22c55e"/><text x="57" y="44" font-size="12" fill="#5a688a">Available</text><circle cx="139.8" cy="40" r="5" fill="#f59e0b"/><text x="149.8" y="44" font-size="12" fill="#5a688a">Saturated</text><circle cx="232.60000000000002" cy="40" r="5" fill="#ef4444"/><text x="242.60000000000002" y="44" font-size="12" fill="#5a688a">Error</text><circle cx="296.6" cy="40" r="5" fill="#a855f7"/><text x="306.6" y="44" font-size="12" fill="#5a688a">Timeout</text><line x1="42" y1="286.0" x2="938" y2="286.0" stroke="#eef2f7" stroke-width="1"/><text x="35" y="289.0" text-anchor="end" font-size="11" fill="#5a688a">0</text><line x1="42" y1="227.5" x2="938" y2="227.5" stroke="#eef2f7" stroke-width="1"/><text x="35" y="230.5" text-anchor="end" font-size="11" fill="#5a688a">10</text><line x1="42" y1="169.0" x2="938" y2="169.0" stroke="#eef2f7" stroke-width="1"/><text x="35" y="172.0" text-anchor="end" font-size="11" fill="#5a688a">19</text><line x1="42" y1="110.5" x2="938" y2="110.5" stroke="#eef2f7" stroke-width="1"/><text x="35" y="113.5" text-anchor="end" font-size="11" fill="#5a688a">28</text><line x1="42" y1="52.0" x2="938" y2="52.0" stroke="#eef2f7" stroke-width="1"/><text x="35" y="55.0" text-anchor="end" font-size="11" fill="#5a688a">38</text><polyline fill="none" stroke="#22c55e" stroke-width="2.5" stroke-linejoin="round" stroke-linecap="round" points="42.0,64.3 44.7,64.3 47.3,64.3 50.0,64.3 52.7,64.3 55.4,64.3 58.0,64.3 60.7,64.3 63.4,64.3 66.1,64.3 68.7,64.3 71.4,64.3 74.1,64.3 76.8,64.3 79.4,64.3 82.1,70.5 84.8,64.3 87.5,64.3 90.1,64.3 92.8,64.3 95.5,64.3 98.2,70.5 100.8,70.5 103.5,82.8 106.2,82.8 108.9,82.8 111.5,88.9 114.2,88.9 116.9,88.9 119.6,88.9 122.2,82.8 124.9,82.8 127.6,76.6 130.3,76.6 132.9,76.6 135.6,82.8 138.3,82.8 141.0,88.9 143.6,76.6 146.3,76.6 149.0,76.6 151.7,76.6 154.3,82.8 157.0,82.8 159.7,88.9 162.4,88.9 165.0,82.8 167.7,82.8 170.4,82.8 173.1,88.9 175.7,88.9 178.4,101.3 181.1,88.9 183.8,88.9 186.4,88.9 189.1,88.9 191.8,82.8 194.5,82.8 197.1,76.6 199.8,70.5 202.5,70.5 205.2,70.5 207.8,70.5 210.5,70.5 213.2,70.5 215.9,64.3 218.5,64.3 221.2,64.3 223.9,70.5 226.5,82.8 229.2,76.6 231.9,64.3 234.6,64.3 237.2,64.3 239.9,70.5 242.6,70.5 245.3,70.5 247.9,76.6 250.6,64.3 253.3,70.5 256.0,58.2 258.6,64.3 261.3,52.0 264.0,52.0 266.7,52.0 269.3,52.0 272.0,52.0 274.7,58.2 277.4,52.0 280.0,58.2 282.7,52.0 285.4,52.0 288.1,52.0 290.7,52.0 293.4,58.2 296.1,58.2 298.8,58.2 301.4,70.5 304.1,64.3 306.8,76.6 309.5,64.3 312.1,70.5 314.8,52.0 317.5,58.2 320.2,52.0 322.8,58.2 325.5,52.0 328.2,52.0 330.9,52.0 333.5,58.2 336.2,64.3 338.9,58.2 341.6,58.2 344.2,58.2 346.9,64.3 349.6,64.3 352.3,58.2 354.9,64.3 357.6,64.3 360.3,64.3 363.0,52.0 365.6,52.0 368.3,52.0 371.0,52.0 373.7,52.0 376.3,58.2 379.0,52.0 381.7,52.0 384.4,52.0 387.0,52.0 389.7,52.0 392.4,52.0 395.1,52.0 397.7,52.0 400.4,58.2 403.1,52.0 405.7,52.0 408.4,52.0 411.1,52.0 413.8,52.0 416.4,52.0 419.1,52.0 421.8,58.2 424.5,52.0 427.1,52.0 429.8,52.0 432.5,52.0 435.2,52.0 437.8,52.0 440.5,52.0 443.2,52.0 445.9,52.0 448.5,52.0 451.2,52.0 453.9,52.0 456.6,52.0 459.2,52.0 461.9,52.0 464.6,52.0 467.3,52.0 469.9,52.0 472.6,52.0 475.3,58.2 478.0,58.2 480.6,52.0 483.3,52.0 486.0,52.0 488.7,58.2 491.3,58.2 494.0,70.5 496.7,58.2 499.4,58.2 502.0,64.3 504.7,52.0 507.4,52.0 510.1,52.0 512.7,52.0 515.4,52.0 518.1,52.0 520.8,64.3 523.4,58.2 526.1,58.2 528.8,58.2 531.5,58.2 534.1,64.3 536.8,64.3 539.5,70.5 542.2,70.5 544.8,76.6 547.5,82.8 550.2,76.6 552.9,76.6 555.5,82.8 558.2,76.6 560.9,70.5 563.6,70.5 566.2,64.3 568.9,58.2 571.6,58.2 574.3,70.5 576.9,70.5 579.6,64.3 582.3,70.5 584.9,64.3 587.6,64.3 590.3,64.3 593.0,76.6 595.6,64.3 598.3,70.5 601.0,64.3 603.7,70.5 606.3,64.3 609.0,70.5 611.7,64.3 614.4,64.3 617.0,76.6 619.7,70.5 622.4,70.5 625.1,70.5 627.7,70.5 630.4,70.5 633.1,64.3 635.8,70.5 638.4,64.3 641.1,64.3 643.8,64.3 646.5,70.5 649.1,70.5 651.8,70.5 654.5,64.3 657.2,64.3 659.8,64.3 662.5,64.3 665.2,70.5 667.9,70.5 670.5,70.5 673.2,76.6 675.9,70.5 678.6,76.6 681.2,76.6 683.9,76.6 686.6,82.8 689.3,76.6 691.9,76.6 694.6,76.6 697.3,70.5 700.0,70.5 702.6,70.5 705.3,70.5 708.0,70.5 710.7,64.3 713.3,64.3 716.0,64.3 718.7,70.5 721.4,76.6 724.0,64.3 726.7,64.3 729.4,64.3 732.1,70.5 734.7,70.5 737.4,70.5 740.1,76.6 742.8,76.6 745.4,76.6 748.1,82.8 750.8,88.9 753.5,82.8 756.1,82.8 758.8,76.6 761.5,70.5 764.1,76.6 766.8,82.8 769.5,76.6 772.2,70.5 774.8,70.5 777.5,64.3 780.2,64.3 782.9,64.3 785.5,64.3 788.2,64.3 790.9,64.3 793.6,64.3 796.2,64.3 798.9,64.3 801.6,64.3 804.3,64.3 806.9,64.3 809.6,64.3 812.3,58.2 815.0,70.5 817.6,64.3 820.3,58.2 823.0,64.3 825.7,64.3 828.3,64.3 831.0,64.3 833.7,64.3 836.4,58.2 839.0,58.2 841.7,58.2 844.4,58.2 847.1,58.2 849.7,64.3 852.4,58.2 855.1,58.2 857.8,58.2 860.4,58.2 863.1,58.2 865.8,58.2 868.5,64.3 871.1,64.3 873.8,58.2 876.5,58.2 879.2,58.2 881.8,64.3 884.5,58.2 887.2,58.2 889.9,58.2 892.5,58.2 895.2,58.2 897.9,58.2 900.6,58.2 903.2,58.2 905.9,58.2 908.6,58.2 911.3,58.2 913.9,58.2 916.6,58.2 919.3,64.3 922.0,70.5 924.6,70.5 927.3,70.5 930.0,76.6 932.7,76.6 935.3,76.6 938.0,82.8"/><polyline fill="none" stroke="#f59e0b" stroke-width="2.5" stroke-linejoin="round" stroke-linecap="round" points="42.0,286.0 44.7,286.0 47.3,286.0 50.0,286.0 52.7,286.0 55.4,286.0 58.0,286.0 60.7,286.0 63.4,286.0 66.1,286.0 68.7,286.0 71.4,286.0 74.1,286.0 76.8,286.0 79.4,286.0 82.1,286.0 84.8,286.0 87.5,286.0 90.1,286.0 92.8,286.0 95.5,286.0 98.2,286.0 100.8,279.8 103.5,267.5 106.2,267.5 108.9,267.5 111.5,267.5 114.2,261.4 116.9,261.4 119.6,261.4 122.2,267.5 124.9,267.5 127.6,273.7 130.3,273.7 132.9,273.7 135.6,267.5 138.3,267.5 141.0,267.5 143.6,273.7 146.3,273.7 149.0,273.7 151.7,273.7 154.3,267.5 157.0,267.5 159.7,261.4 162.4,261.4 165.0,267.5 167.7,267.5 170.4,267.5 173.1,261.4 175.7,261.4 178.4,273.7 181.1,261.4 183.8,261.4 186.4,261.4 189.1,261.4 191.8,267.5 194.5,267.5 197.1,273.7 199.8,279.8 202.5,279.8 205.2,279.8 207.8,279.8 210.5,279.8 213.2,279.8 215.9,286.0 218.5,286.0 221.2,286.0 223.9,279.8 226.5,273.7 229.2,273.7 231.9,279.8 234.6,273.7 237.2,273.7 239.9,267.5 242.6,267.5 245.3,267.5 247.9,267.5 250.6,279.8 253.3,273.7 256.0,279.8 258.6,279.8 261.3,286.0 264.0,286.0 266.7,286.0 269.3,286.0 272.0,286.0 274.7,286.0 277.4,286.0 280.0,286.0 282.7,286.0 285.4,286.0 288.1,286.0 290.7,286.0 293.4,279.8 296.1,279.8 298.8,279.8 301.4,267.5 304.1,279.8 306.8,267.5 309.5,273.7 312.1,273.7 314.8,286.0 317.5,279.8 320.2,286.0 322.8,279.8 325.5,286.0 328.2,286.0 330.9,286.0 333.5,279.8 336.2,273.7 338.9,279.8 341.6,279.8 344.2,279.8 346.9,273.7 349.6,273.7 352.3,279.8 354.9,279.8 357.6,279.8 360.3,279.8 363.0,286.0 365.6,286.0 368.3,286.0 371.0,286.0 373.7,286.0 376.3,286.0 379.0,286.0 381.7,286.0 384.4,286.0 387.0,286.0 389.7,286.0 392.4,286.0 395.1,286.0 397.7,286.0 400.4,286.0 403.1,286.0 405.7,286.0 408.4,286.0 411.1,286.0 413.8,286.0 416.4,286.0 419.1,286.0 421.8,286.0 424.5,286.0 427.1,286.0 429.8,286.0 432.5,286.0 435.2,286.0 437.8,286.0 440.5,286.0 443.2,286.0 445.9,286.0 448.5,286.0 451.2,286.0 453.9,286.0 456.6,286.0 459.2,286.0 461.9,286.0 464.6,286.0 467.3,286.0 469.9,286.0 472.6,286.0 475.3,286.0 478.0,286.0 480.6,286.0 483.3,286.0 486.0,286.0 488.7,279.8 491.3,279.8 494.0,279.8 496.7,279.8 499.4,279.8 502.0,273.7 504.7,286.0 507.4,286.0 510.1,286.0 512.7,286.0 515.4,286.0 518.1,286.0 520.8,286.0 523.4,279.8 526.1,279.8 528.8,279.8 531.5,279.8 534.1,273.7 536.8,273.7 539.5,267.5 542.2,267.5 544.8,261.4 547.5,261.4 550.2,261.4 552.9,261.4 555.5,261.4 558.2,267.5 560.9,267.5 563.6,267.5 566.2,273.7 568.9,279.8 571.6,279.8 574.3,267.5 576.9,267.5 579.6,273.7 582.3,267.5 584.9,273.7 587.6,273.7 590.3,273.7 593.0,273.7 595.6,273.7 598.3,267.5 601.0,273.7 603.7,267.5 606.3,273.7 609.0,267.5 611.7,273.7 614.4,273.7 617.0,261.4 619.7,267.5 622.4,267.5 625.1,267.5 627.7,267.5 630.4,267.5 633.1,273.7 635.8,267.5 638.4,273.7 641.1,273.7 643.8,273.7 646.5,267.5 649.1,267.5 651.8,267.5 654.5,273.7 657.2,273.7 659.8,273.7 662.5,273.7 665.2,267.5 667.9,267.5 670.5,267.5 673.2,267.5 675.9,267.5 678.6,261.4 681.2,261.4 683.9,261.4 686.6,261.4 689.3,261.4 691.9,261.4 694.6,261.4 697.3,267.5 700.0,267.5 702.6,267.5 705.3,267.5 708.0,267.5 710.7,273.7 713.3,273.7 716.0,273.7 718.7,267.5 721.4,267.5 724.0,273.7 726.7,273.7 729.4,273.7 732.1,267.5 734.7,267.5 737.4,267.5 740.1,261.4 742.8,261.4 745.4,261.4 748.1,255.2 750.8,255.2 753.5,255.2 756.1,261.4 758.8,261.4 761.5,267.5 764.1,261.4 766.8,261.4 769.5,261.4 772.2,267.5 774.8,267.5 777.5,273.7 780.2,273.7 782.9,273.7 785.5,273.7 788.2,273.7 790.9,273.7 793.6,273.7 796.2,273.7 798.9,273.7 801.6,273.7 804.3,273.7 806.9,273.7 809.6,273.7 812.3,279.8 815.0,273.7 817.6,273.7 820.3,279.8 823.0,273.7 825.7,273.7 828.3,273.7 831.0,273.7 833.7,273.7 836.4,279.8 839.0,279.8 841.7,279.8 844.4,279.8 847.1,279.8 849.7,273.7 852.4,279.8 855.1,279.8 857.8,279.8 860.4,279.8 863.1,279.8 865.8,279.8 868.5,273.7 871.1,273.7 873.8,279.8 876.5,279.8 879.2,279.8 881.8,279.8 884.5,279.8 887.2,279.8 889.9,279.8 892.5,279.8 895.2,279.8 897.9,279.8 900.6,279.8 903.2,279.8 905.9,279.8 908.6,279.8 911.3,279.8 913.9,279.8 916.6,279.8 919.3,273.7 922.0,273.7 924.6,267.5 927.3,267.5 930.0,261.4 932.7,261.4 935.3,261.4 938.0,255.2"/><polyline fill="none" stroke="#ef4444" stroke-width="2.5" stroke-linejoin="round" stroke-linecap="round" points="42.0,273.7 44.7,273.7 47.3,273.7 50.0,273.7 52.7,273.7 55.4,273.7 58.0,273.7 60.7,273.7 63.4,273.7 66.1,273.7 68.7,273.7 71.4,273.7 74.1,273.7 76.8,273.7 79.4,273.7 82.1,267.5 84.8,273.7 87.5,273.7 90.1,273.7 92.8,273.7 95.5,273.7 98.2,273.7 100.8,273.7 103.5,273.7 106.2,273.7 108.9,273.7 111.5,267.5 114.2,273.7 116.9,273.7 119.6,273.7 122.2,273.7 124.9,273.7 127.6,273.7 130.3,273.7 132.9,273.7 135.6,273.7 138.3,273.7 141.0,267.5 143.6,273.7 146.3,273.7 149.0,273.7 151.7,273.7 154.3,273.7 157.0,273.7 159.7,273.7 162.4,273.7 165.0,273.7 167.7,273.7 170.4,273.7 173.1,273.7 175.7,273.7 178.4,249.1 181.1,273.7 183.8,273.7 186.4,273.7 189.1,273.7 191.8,273.7 194.5,273.7 197.1,273.7 199.8,273.7 202.5,273.7 205.2,273.7 207.8,273.7 210.5,273.7 213.2,273.7 215.9,273.7 218.5,273.7 221.2,273.7 223.9,273.7 226.5,267.5 229.2,273.7 231.9,279.8 234.6,286.0 237.2,286.0 239.9,286.0 242.6,286.0 245.3,286.0 247.9,279.8 250.6,279.8 253.3,286.0 256.0,286.0 258.6,279.8 261.3,286.0 264.0,286.0 266.7,286.0 269.3,286.0 272.0,286.0 274.7,279.8 277.4,286.0 280.0,286.0 282.7,286.0 285.4,286.0 288.1,286.0 290.7,286.0 293.4,286.0 296.1,286.0 298.8,286.0 301.4,286.0 304.1,279.8 306.8,279.8 309.5,286.0 312.1,279.8 314.8,286.0 317.5,286.0 320.2,286.0 322.8,286.0 325.5,286.0 328.2,286.0 330.9,286.0 333.5,286.0 336.2,286.0 338.9,286.0 341.6,286.0 344.2,286.0 346.9,286.0 349.6,286.0 352.3,286.0 354.9,279.8 357.6,286.0 360.3,279.8 363.0,286.0 365.6,286.0 368.3,286.0 371.0,286.0 373.7,286.0 376.3,286.0 379.0,286.0 381.7,286.0 384.4,286.0 387.0,286.0 389.7,286.0 392.4,286.0 395.1,286.0 397.7,286.0 400.4,279.8 403.1,286.0 405.7,286.0 408.4,286.0 411.1,286.0 413.8,286.0 416.4,286.0 419.1,286.0 421.8,286.0 424.5,286.0 427.1,286.0 429.8,286.0 432.5,286.0 435.2,286.0 437.8,286.0 440.5,286.0 443.2,286.0 445.9,286.0 448.5,286.0 451.2,286.0 453.9,286.0 456.6,286.0 459.2,286.0 461.9,286.0 464.6,286.0 467.3,286.0 469.9,286.0 472.6,286.0 475.3,279.8 478.0,279.8 480.6,286.0 483.3,286.0 486.0,286.0 488.7,286.0 491.3,286.0 494.0,273.7 496.7,286.0 499.4,286.0 502.0,286.0 504.7,286.0 507.4,286.0 510.1,286.0 512.7,286.0 515.4,286.0 518.1,286.0 520.8,286.0 523.4,286.0 526.1,286.0 528.8,286.0 531.5,286.0 534.1,286.0 536.8,286.0 539.5,286.0 542.2,286.0 544.8,286.0 547.5,279.8 550.2,286.0 552.9,286.0 555.5,279.8 558.2,279.8 560.9,286.0 563.6,286.0 566.2,286.0 568.9,286.0 571.6,286.0 574.3,286.0 576.9,286.0 579.6,286.0 582.3,286.0 584.9,286.0 587.6,286.0 590.3,286.0 593.0,273.7 595.6,286.0 598.3,286.0 601.0,286.0 603.7,286.0 606.3,286.0 609.0,286.0 611.7,286.0 614.4,286.0 617.0,286.0 619.7,286.0 622.4,286.0 625.1,286.0 627.7,286.0 630.4,286.0 633.1,286.0 635.8,286.0 638.4,286.0 641.1,286.0 643.8,286.0 646.5,286.0 649.1,286.0 651.8,286.0 654.5,286.0 657.2,286.0 659.8,286.0 662.5,286.0 665.2,286.0 667.9,286.0 670.5,286.0 673.2,279.8 675.9,286.0 678.6,286.0 681.2,286.0 683.9,286.0 686.6,279.8 689.3,286.0 691.9,286.0 694.6,286.0 697.3,286.0 700.0,286.0 702.6,286.0 705.3,286.0 708.0,286.0 710.7,286.0 713.3,286.0 716.0,286.0 718.7,286.0 721.4,279.8 724.0,286.0 726.7,286.0 729.4,286.0 732.1,286.0 734.7,286.0 737.4,286.0 740.1,286.0 742.8,286.0 745.4,286.0 748.1,286.0 750.8,279.8 753.5,286.0 756.1,279.8 758.8,286.0 761.5,286.0 764.1,286.0 766.8,279.8 769.5,286.0 772.2,286.0 774.8,286.0 777.5,286.0 780.2,286.0 782.9,286.0 785.5,286.0 788.2,286.0 790.9,286.0 793.6,286.0 796.2,286.0 798.9,286.0 801.6,286.0 804.3,286.0 806.9,286.0 809.6,286.0 812.3,286.0 815.0,279.8 817.6,286.0 820.3,286.0 823.0,286.0 825.7,286.0 828.3,286.0 831.0,286.0 833.7,286.0 836.4,286.0 839.0,286.0 841.7,286.0 844.4,286.0 847.1,286.0 849.7,286.0 852.4,286.0 855.1,286.0 857.8,286.0 860.4,286.0 863.1,286.0 865.8,286.0 868.5,286.0 871.1,286.0 873.8,286.0 876.5,286.0 879.2,286.0 881.8,286.0 884.5,286.0 887.2,286.0 889.9,286.0 892.5,286.0 895.2,286.0 897.9,286.0 900.6,286.0 903.2,286.0 905.9,286.0 908.6,286.0 911.3,286.0 913.9,286.0 916.6,286.0 919.3,286.0 922.0,279.8 924.6,286.0 927.3,286.0 930.0,286.0 932.7,286.0 935.3,286.0 938.0,286.0"/><polyline fill="none" stroke="#a855f7" stroke-width="2.5" stroke-linejoin="round" stroke-linecap="round" points="42.0,286.0 44.7,286.0 47.3,286.0 50.0,286.0 52.7,286.0 55.4,286.0 58.0,286.0 60.7,286.0 63.4,286.0 66.1,286.0 68.7,286.0 71.4,286.0 74.1,286.0 76.8,286.0 79.4,286.0 82.1,286.0 84.8,286.0 87.5,286.0 90.1,286.0 92.8,286.0 95.5,286.0 98.2,279.8 100.8,286.0 103.5,286.0 106.2,286.0 108.9,286.0 111.5,286.0 114.2,286.0 116.9,286.0 119.6,286.0 122.2,286.0 124.9,286.0 127.6,286.0 130.3,286.0 132.9,286.0 135.6,286.0 138.3,286.0 141.0,286.0 143.6,286.0 146.3,286.0 149.0,286.0 151.7,286.0 154.3,286.0 157.0,286.0 159.7,286.0 162.4,286.0 165.0,286.0 167.7,286.0 170.4,286.0 173.1,286.0 175.7,286.0 178.4,286.0 181.1,286.0 183.8,286.0 186.4,286.0 189.1,286.0 191.8,286.0 194.5,286.0 197.1,286.0 199.8,286.0 202.5,286.0 205.2,286.0 207.8,286.0 210.5,286.0 213.2,286.0 215.9,286.0 218.5,286.0 221.2,286.0 223.9,286.0 226.5,286.0 229.2,286.0 231.9,286.0 234.6,286.0 237.2,286.0 239.9,286.0 242.6,286.0 245.3,286.0 247.9,286.0 250.6,286.0 253.3,279.8 256.0,286.0 258.6,286.0 261.3,286.0 264.0,286.0 266.7,286.0 269.3,286.0 272.0,286.0 274.7,286.0 277.4,286.0 280.0,279.8 282.7,286.0 285.4,286.0 288.1,286.0 290.7,286.0 293.4,286.0 296.1,286.0 298.8,286.0 301.4,286.0 304.1,286.0 306.8,286.0 309.5,286.0 312.1,286.0 314.8,286.0 317.5,286.0 320.2,286.0 322.8,286.0 325.5,286.0 328.2,286.0 330.9,286.0 333.5,286.0 336.2,286.0 338.9,286.0 341.6,286.0 344.2,286.0 346.9,286.0 349.6,286.0 352.3,286.0 354.9,286.0 357.6,279.8 360.3,286.0 363.0,286.0 365.6,286.0 368.3,286.0 371.0,286.0 373.7,286.0 376.3,279.8 379.0,286.0 381.7,286.0 384.4,286.0 387.0,286.0 389.7,286.0 392.4,286.0 395.1,286.0 397.7,286.0 400.4,286.0 403.1,286.0 405.7,286.0 408.4,286.0 411.1,286.0 413.8,286.0 416.4,286.0 419.1,286.0 421.8,279.8 424.5,286.0 427.1,286.0 429.8,286.0 432.5,286.0 435.2,286.0 437.8,286.0 440.5,286.0 443.2,286.0 445.9,286.0 448.5,286.0 451.2,286.0 453.9,286.0 456.6,286.0 459.2,286.0 461.9,286.0 464.6,286.0 467.3,286.0 469.9,286.0 472.6,286.0 475.3,286.0 478.0,286.0 480.6,286.0 483.3,286.0 486.0,286.0 488.7,286.0 491.3,286.0 494.0,286.0 496.7,286.0 499.4,286.0 502.0,286.0 504.7,286.0 507.4,286.0 510.1,286.0 512.7,286.0 515.4,286.0 518.1,286.0 520.8,273.7 523.4,286.0 526.1,286.0 528.8,286.0 531.5,286.0 534.1,286.0 536.8,286.0 539.5,286.0 542.2,286.0 544.8,286.0 547.5,286.0 550.2,286.0 552.9,286.0 555.5,286.0 558.2,286.0 560.9,286.0 563.6,286.0 566.2,286.0 568.9,286.0 571.6,286.0 574.3,286.0 576.9,286.0 579.6,286.0 582.3,286.0 584.9,286.0 587.6,286.0 590.3,286.0 593.0,286.0 595.6,286.0 598.3,286.0 601.0,286.0 603.7,286.0 606.3,286.0 609.0,286.0 611.7,286.0 614.4,286.0 617.0,286.0 619.7,286.0 622.4,286.0 625.1,286.0 627.7,286.0 630.4,286.0 633.1,286.0 635.8,286.0 638.4,286.0 641.1,286.0 643.8,286.0 646.5,286.0 649.1,286.0 651.8,286.0 654.5,286.0 657.2,286.0 659.8,286.0 662.5,286.0 665.2,286.0 667.9,286.0 670.5,286.0 673.2,286.0 675.9,286.0 678.6,286.0 681.2,286.0 683.9,286.0 686.6,286.0 689.3,286.0 691.9,286.0 694.6,286.0 697.3,286.0 700.0,286.0 702.6,286.0 705.3,286.0 708.0,286.0 710.7,286.0 713.3,286.0 716.0,286.0 718.7,286.0 721.4,286.0 724.0,286.0 726.7,286.0 729.4,286.0 732.1,286.0 734.7,286.0 737.4,286.0 740.1,286.0 742.8,286.0 745.4,286.0 748.1,286.0 750.8,286.0 753.5,286.0 756.1,286.0 758.8,286.0 761.5,286.0 764.1,286.0 766.8,286.0 769.5,286.0 772.2,286.0 774.8,286.0 777.5,286.0 780.2,286.0 782.9,286.0 785.5,286.0 788.2,286.0 790.9,286.0 793.6,286.0 796.2,286.0 798.9,286.0 801.6,286.0 804.3,286.0 806.9,286.0 809.6,286.0 812.3,286.0 815.0,286.0 817.6,286.0 820.3,286.0 823.0,286.0 825.7,286.0 828.3,286.0 831.0,286.0 833.7,286.0 836.4,286.0 839.0,286.0 841.7,286.0 844.4,286.0 847.1,286.0 849.7,286.0 852.4,286.0 855.1,286.0 857.8,286.0 860.4,286.0 863.1,286.0 865.8,286.0 868.5,286.0 871.1,286.0 873.8,286.0 876.5,286.0 879.2,286.0 881.8,279.8 884.5,286.0 887.2,286.0 889.9,286.0 892.5,286.0 895.2,286.0 897.9,286.0 900.6,286.0 903.2,286.0 905.9,286.0 908.6,286.0 911.3,286.0 913.9,286.0 916.6,286.0 919.3,286.0 922.0,286.0 924.6,286.0 927.3,286.0 930.0,286.0 932.7,286.0 935.3,286.0 938.0,286.0"/><text x="42" y="308" font-size="11" fill="#5a688a">28/06 16:30</text><text x="938" y="308" text-anchor="end" font-size="11" fill="#5a688a">13/07 13:30</text></svg>