<svg xmlns="http://www.w3.org/2000/svg" viewBox="0 0 960 320" width="960" height="320" font-family="Segoe UI, system-ui, -apple-system, Roboto, Helvetica, Arial, sans-serif" role="img" aria-label="Availability history per region"><rect x="0.5" y="0.5" width="959" height="319" rx="14" fill="#0d1117" stroke="#2c3a5e"/><text x="42" y="26" font-size="14" font-weight="600" fill="#e6ecff">History · 98 points</text><circle cx="47" cy="40" r="5" fill="#22c55e"/><text x="57" y="44" font-size="12" fill="#9fb0d4">Available</text><circle cx="139.8" cy="40" r="5" fill="#f59e0b"/><text x="149.8" y="44" font-size="12" fill="#9fb0d4">Saturated</text><circle cx="232.60000000000002" cy="40" r="5" fill="#ef4444"/><text x="242.60000000000002" y="44" font-size="12" fill="#9fb0d4">Error</text><circle cx="296.6" cy="40" r="5" fill="#a855f7"/><text x="306.6" y="44" font-size="12" fill="#9fb0d4">Timeout</text><line x1="42" y1="286.0" x2="938" y2="286.0" stroke="#21304f" stroke-width="1"/><text x="35" y="289.0" text-anchor="end" font-size="11" fill="#9fb0d4">0</text><line x1="42" y1="227.5" x2="938" y2="227.5" stroke="#21304f" stroke-width="1"/><text x="35" y="230.5" text-anchor="end" font-size="11" fill="#9fb0d4">10</text><line x1="42" y1="169.0" x2="938" y2="169.0" stroke="#21304f" stroke-width="1"/><text x="35" y="172.0" text-anchor="end" font-size="11" fill="#9fb0d4">20</text><line x1="42" y1="110.5" x2="938" y2="110.5" stroke="#21304f" stroke-width="1"/><text x="35" y="113.5" text-anchor="end" font-size="11" fill="#9fb0d4">29</text><line x1="42" y1="52.0" x2="938" y2="52.0" stroke="#21304f" stroke-width="1"/><text x="35" y="55.0" text-anchor="end" font-size="11" fill="#9fb0d4">39</text><polyline fill="none" stroke="#22c55e" stroke-width="2.5" stroke-linejoin="round" stroke-linecap="round" points="42.0,70.0 51.2,70.0 60.5,88.0 69.7,88.0 78.9,76.0 88.2,76.0 97.4,76.0 106.7,70.0 115.9,76.0 125.1,70.0 134.4,64.0 143.6,58.0 152.8,58.0 162.1,58.0 171.3,58.0 180.6,58.0 189.8,58.0 199.0,58.0 208.3,58.0 217.5,58.0 226.7,58.0 236.0,58.0 245.2,58.0 254.5,58.0 263.7,58.0 272.9,58.0 282.2,58.0 291.4,58.0 300.6,58.0 309.9,58.0 319.1,58.0 328.4,70.0 337.6,76.0 346.8,94.0 356.1,64.0 365.3,64.0 374.5,58.0 383.8,58.0 393.0,58.0 402.2,70.0 411.5,76.0 420.7,76.0 430.0,82.0 439.2,82.0 448.4,82.0 457.7,82.0 466.9,76.0 476.1,64.0 485.4,70.0 494.6,70.0 503.9,82.0 513.1,76.0 522.3,76.0 531.6,82.0 540.8,76.0 550.0,76.0 559.3,76.0 568.5,64.0 577.8,64.0 587.0,76.0 596.2,76.0 605.5,76.0 614.7,88.0 623.9,70.0 633.2,64.0 642.4,58.0 651.6,58.0 660.9,70.0 670.1,70.0 679.4,70.0 688.6,76.0 697.8,70.0 707.1,70.0 716.3,70.0 725.5,70.0 734.8,76.0 744.0,82.0 753.3,76.0 762.5,70.0 771.7,70.0 781.0,70.0 790.2,70.0 799.4,76.0 808.7,70.0 817.9,70.0 827.2,70.0 836.4,70.0 845.6,70.0 854.9,70.0 864.1,70.0 873.3,70.0 882.6,70.0 891.8,70.0 901.1,70.0 910.3,70.0 919.5,70.0 928.8,70.0 938.0,70.0"/><polyline fill="none" stroke="#f59e0b" stroke-width="2.5" stroke-linejoin="round" stroke-linecap="round" points="42.0,274.0 51.2,274.0 60.5,274.0 69.7,280.0 78.9,268.0 88.2,268.0 97.4,268.0 106.7,274.0 115.9,274.0 125.1,274.0 134.4,280.0 143.6,286.0 152.8,286.0 162.1,286.0 171.3,286.0 180.6,286.0 189.8,286.0 199.0,286.0 208.3,286.0 217.5,286.0 226.7,286.0 236.0,286.0 245.2,286.0 254.5,286.0 263.7,286.0 272.9,286.0 282.2,286.0 291.4,286.0 300.6,286.0 309.9,286.0 319.1,286.0 328.4,274.0 337.6,280.0 346.8,280.0 356.1,280.0 365.3,280.0 374.5,286.0 383.8,286.0 393.0,286.0 402.2,274.0 411.5,268.0 420.7,268.0 430.0,262.0 439.2,262.0 448.4,262.0 457.7,262.0 466.9,268.0 476.1,280.0 485.4,280.0 494.6,274.0 503.9,262.0 513.1,268.0 522.3,268.0 531.6,262.0 540.8,268.0 550.0,268.0 559.3,268.0 568.5,280.0 577.8,280.0 587.0,268.0 596.2,268.0 605.5,268.0 614.7,262.0 623.9,274.0 633.2,280.0 642.4,286.0 651.6,286.0 660.9,274.0 670.1,274.0 679.4,274.0 688.6,274.0 697.8,274.0 707.1,274.0 716.3,274.0 725.5,274.0 734.8,280.0 744.0,274.0 753.3,280.0 762.5,286.0 771.7,286.0 781.0,286.0 790.2,286.0 799.4,280.0 808.7,286.0 817.9,286.0 827.2,286.0 836.4,286.0 845.6,286.0 854.9,286.0 864.1,286.0 873.3,286.0 882.6,286.0 891.8,286.0 901.1,286.0 910.3,286.0 919.5,286.0 928.8,286.0 938.0,286.0"/><polyline fill="none" stroke="#ef4444" stroke-width="2.5" stroke-linejoin="round" stroke-linecap="round" points="42.0,280.0 51.2,280.0 60.5,268.0 69.7,262.0 78.9,286.0 88.2,286.0 97.4,286.0 106.7,286.0 115.9,280.0 125.1,286.0 134.4,286.0 143.6,286.0 152.8,286.0 162.1,286.0 171.3,286.0 180.6,286.0 189.8,286.0 199.0,286.0 208.3,286.0 217.5,286.0 226.7,286.0 236.0,286.0 245.2,286.0 254.5,286.0 263.7,286.0 272.9,286.0 282.2,286.0 291.4,286.0 300.6,286.0 309.9,286.0 319.1,286.0 328.4,286.0 337.6,274.0 346.8,256.0 356.1,286.0 365.3,286.0 374.5,286.0 383.8,286.0 393.0,286.0 402.2,286.0 411.5,286.0 420.7,286.0 430.0,286.0 439.2,286.0 448.4,286.0 457.7,286.0 466.9,286.0 476.1,286.0 485.4,280.0 494.6,286.0 503.9,286.0 513.1,286.0 522.3,286.0 531.6,286.0 540.8,286.0 550.0,286.0 559.3,286.0 568.5,286.0 577.8,286.0 587.0,286.0 596.2,286.0 605.5,286.0 614.7,280.0 623.9,286.0 633.2,286.0 642.4,286.0 651.6,286.0 660.9,286.0 670.1,286.0 679.4,286.0 688.6,286.0 697.8,286.0 707.1,286.0 716.3,286.0 725.5,286.0 734.8,274.0 744.0,274.0 753.3,274.0 762.5,274.0 771.7,274.0 781.0,274.0 790.2,274.0 799.4,274.0 808.7,274.0 817.9,274.0 827.2,274.0 836.4,274.0 845.6,274.0 854.9,274.0 864.1,274.0 873.3,274.0 882.6,274.0 891.8,274.0 901.1,274.0 910.3,274.0 919.5,274.0 928.8,274.0 938.0,274.0"/><polyline fill="none" stroke="#a855f7" stroke-width="2.5" stroke-linejoin="round" stroke-linecap="round" points="42.0,286.0 51.2,286.0 60.5,286.0 69.7,286.0 78.9,286.0 88.2,286.0 97.4,286.0 106.7,286.0 115.9,286.0 125.1,286.0 134.4,286.0 143.6,286.0 152.8,286.0 162.1,286.0 171.3,286.0 180.6,286.0 189.8,286.0 199.0,286.0 208.3,286.0 217.5,286.0 226.7,286.0 236.0,286.0 245.2,286.0 254.5,286.0 263.7,286.0 272.9,286.0 282.2,286.0 291.4,286.0 300.6,286.0 309.9,286.0 319.1,286.0 328.4,286.0 337.6,286.0 346.8,286.0 356.1,286.0 365.3,286.0 374.5,286.0 383.8,286.0 393.0,286.0 402.2,286.0 411.5,286.0 420.7,286.0 430.0,286.0 439.2,286.0 448.4,286.0 457.7,286.0 466.9,286.0 476.1,286.0 485.4,286.0 494.6,286.0 503.9,286.0 513.1,286.0 522.3,286.0 531.6,286.0 540.8,286.0 550.0,286.0 559.3,286.0 568.5,286.0 577.8,286.0 587.0,286.0 596.2,286.0 605.5,286.0 614.7,286.0 623.9,286.0 633.2,286.0 642.4,286.0 651.6,286.0 660.9,286.0 670.1,286.0 679.4,286.0 688.6,280.0 697.8,286.0 707.1,286.0 716.3,286.0 725.5,286.0 734.8,286.0 744.0,286.0 753.3,286.0 762.5,286.0 771.7,286.0 781.0,286.0 790.2,286.0 799.4,286.0 808.7,286.0 817.9,286.0 827.2,286.0 836.4,286.0 845.6,286.0 854.9,286.0 864.1,286.0 873.3,286.0 882.6,286.0 891.8,286.0 901.1,286.0 910.3,286.0 919.5,286.0 928.8,286.0 938.0,286.0"/><text x="42" y="308" font-size="11" fill="#9fb0d4">19/06 12:43</text><text x="938" y="308" text-anchor="end" font-size="11" fill="#9fb0d4">27/06 12:31</text></svg>