<svg xmlns="http://www.w3.org/2000/svg" viewBox="0 0 960 320" width="960" height="320" font-family="Segoe UI, system-ui, -apple-system, Roboto, Helvetica, Arial, sans-serif" role="img" aria-label="Availability history per region"><rect x="0.5" y="0.5" width="959" height="319" rx="14" fill="#0d1117" stroke="#2c3a5e"/><text x="42" y="26" font-size="14" font-weight="600" fill="#e6ecff">History · 85 points</text><circle cx="47" cy="40" r="5" fill="#22c55e"/><text x="57" y="44" font-size="12" fill="#9fb0d4">Available</text><circle cx="139.8" cy="40" r="5" fill="#f59e0b"/><text x="149.8" y="44" font-size="12" fill="#9fb0d4">Saturated</text><circle cx="232.60000000000002" cy="40" r="5" fill="#ef4444"/><text x="242.60000000000002" y="44" font-size="12" fill="#9fb0d4">Error</text><circle cx="296.6" cy="40" r="5" fill="#a855f7"/><text x="306.6" y="44" font-size="12" fill="#9fb0d4">Timeout</text><line x1="42" y1="286.0" x2="938" y2="286.0" stroke="#21304f" stroke-width="1"/><text x="35" y="289.0" text-anchor="end" font-size="11" fill="#9fb0d4">0</text><line x1="42" y1="227.5" x2="938" y2="227.5" stroke="#21304f" stroke-width="1"/><text x="35" y="230.5" text-anchor="end" font-size="11" fill="#9fb0d4">10</text><line x1="42" y1="169.0" x2="938" y2="169.0" stroke="#21304f" stroke-width="1"/><text x="35" y="172.0" text-anchor="end" font-size="11" fill="#9fb0d4">20</text><line x1="42" y1="110.5" x2="938" y2="110.5" stroke="#21304f" stroke-width="1"/><text x="35" y="113.5" text-anchor="end" font-size="11" fill="#9fb0d4">29</text><line x1="42" y1="52.0" x2="938" y2="52.0" stroke="#21304f" stroke-width="1"/><text x="35" y="55.0" text-anchor="end" font-size="11" fill="#9fb0d4">39</text><polyline fill="none" stroke="#22c55e" stroke-width="2.5" stroke-linejoin="round" stroke-linecap="round" points="42.0,70.0 52.7,70.0 63.3,88.0 74.0,88.0 84.7,76.0 95.3,76.0 106.0,76.0 116.7,70.0 127.3,76.0 138.0,70.0 148.7,64.0 159.3,58.0 170.0,58.0 180.7,58.0 191.3,58.0 202.0,58.0 212.7,58.0 223.3,58.0 234.0,58.0 244.7,58.0 255.3,58.0 266.0,58.0 276.7,58.0 287.3,58.0 298.0,58.0 308.7,58.0 319.3,58.0 330.0,58.0 340.7,58.0 351.3,58.0 362.0,58.0 372.7,70.0 383.3,76.0 394.0,94.0 404.7,64.0 415.3,64.0 426.0,58.0 436.7,58.0 447.3,58.0 458.0,70.0 468.7,76.0 479.3,76.0 490.0,82.0 500.7,82.0 511.3,82.0 522.0,82.0 532.7,76.0 543.3,64.0 554.0,70.0 564.7,70.0 575.3,82.0 586.0,76.0 596.7,76.0 607.3,82.0 618.0,76.0 628.7,76.0 639.3,76.0 650.0,64.0 660.7,64.0 671.3,76.0 682.0,76.0 692.7,76.0 703.3,88.0 714.0,70.0 724.7,64.0 735.3,58.0 746.0,58.0 756.7,70.0 767.3,70.0 778.0,70.0 788.7,76.0 799.3,70.0 810.0,70.0 820.7,70.0 831.3,70.0 842.0,76.0 852.7,82.0 863.3,76.0 874.0,70.0 884.7,70.0 895.3,70.0 906.0,70.0 916.7,76.0 927.3,70.0 938.0,70.0"/><polyline fill="none" stroke="#f59e0b" stroke-width="2.5" stroke-linejoin="round" stroke-linecap="round" points="42.0,274.0 52.7,274.0 63.3,274.0 74.0,280.0 84.7,268.0 95.3,268.0 106.0,268.0 116.7,274.0 127.3,274.0 138.0,274.0 148.7,280.0 159.3,286.0 170.0,286.0 180.7,286.0 191.3,286.0 202.0,286.0 212.7,286.0 223.3,286.0 234.0,286.0 244.7,286.0 255.3,286.0 266.0,286.0 276.7,286.0 287.3,286.0 298.0,286.0 308.7,286.0 319.3,286.0 330.0,286.0 340.7,286.0 351.3,286.0 362.0,286.0 372.7,274.0 383.3,280.0 394.0,280.0 404.7,280.0 415.3,280.0 426.0,286.0 436.7,286.0 447.3,286.0 458.0,274.0 468.7,268.0 479.3,268.0 490.0,262.0 500.7,262.0 511.3,262.0 522.0,262.0 532.7,268.0 543.3,280.0 554.0,280.0 564.7,274.0 575.3,262.0 586.0,268.0 596.7,268.0 607.3,262.0 618.0,268.0 628.7,268.0 639.3,268.0 650.0,280.0 660.7,280.0 671.3,268.0 682.0,268.0 692.7,268.0 703.3,262.0 714.0,274.0 724.7,280.0 735.3,286.0 746.0,286.0 756.7,274.0 767.3,274.0 778.0,274.0 788.7,274.0 799.3,274.0 810.0,274.0 820.7,274.0 831.3,274.0 842.0,280.0 852.7,274.0 863.3,280.0 874.0,286.0 884.7,286.0 895.3,286.0 906.0,286.0 916.7,280.0 927.3,286.0 938.0,286.0"/><polyline fill="none" stroke="#ef4444" stroke-width="2.5" stroke-linejoin="round" stroke-linecap="round" points="42.0,280.0 52.7,280.0 63.3,268.0 74.0,262.0 84.7,286.0 95.3,286.0 106.0,286.0 116.7,286.0 127.3,280.0 138.0,286.0 148.7,286.0 159.3,286.0 170.0,286.0 180.7,286.0 191.3,286.0 202.0,286.0 212.7,286.0 223.3,286.0 234.0,286.0 244.7,286.0 255.3,286.0 266.0,286.0 276.7,286.0 287.3,286.0 298.0,286.0 308.7,286.0 319.3,286.0 330.0,286.0 340.7,286.0 351.3,286.0 362.0,286.0 372.7,286.0 383.3,274.0 394.0,256.0 404.7,286.0 415.3,286.0 426.0,286.0 436.7,286.0 447.3,286.0 458.0,286.0 468.7,286.0 479.3,286.0 490.0,286.0 500.7,286.0 511.3,286.0 522.0,286.0 532.7,286.0 543.3,286.0 554.0,280.0 564.7,286.0 575.3,286.0 586.0,286.0 596.7,286.0 607.3,286.0 618.0,286.0 628.7,286.0 639.3,286.0 650.0,286.0 660.7,286.0 671.3,286.0 682.0,286.0 692.7,286.0 703.3,280.0 714.0,286.0 724.7,286.0 735.3,286.0 746.0,286.0 756.7,286.0 767.3,286.0 778.0,286.0 788.7,286.0 799.3,286.0 810.0,286.0 820.7,286.0 831.3,286.0 842.0,274.0 852.7,274.0 863.3,274.0 874.0,274.0 884.7,274.0 895.3,274.0 906.0,274.0 916.7,274.0 927.3,274.0 938.0,274.0"/><polyline fill="none" stroke="#a855f7" stroke-width="2.5" stroke-linejoin="round" stroke-linecap="round" points="42.0,286.0 52.7,286.0 63.3,286.0 74.0,286.0 84.7,286.0 95.3,286.0 106.0,286.0 116.7,286.0 127.3,286.0 138.0,286.0 148.7,286.0 159.3,286.0 170.0,286.0 180.7,286.0 191.3,286.0 202.0,286.0 212.7,286.0 223.3,286.0 234.0,286.0 244.7,286.0 255.3,286.0 266.0,286.0 276.7,286.0 287.3,286.0 298.0,286.0 308.7,286.0 319.3,286.0 330.0,286.0 340.7,286.0 351.3,286.0 362.0,286.0 372.7,286.0 383.3,286.0 394.0,286.0 404.7,286.0 415.3,286.0 426.0,286.0 436.7,286.0 447.3,286.0 458.0,286.0 468.7,286.0 479.3,286.0 490.0,286.0 500.7,286.0 511.3,286.0 522.0,286.0 532.7,286.0 543.3,286.0 554.0,286.0 564.7,286.0 575.3,286.0 586.0,286.0 596.7,286.0 607.3,286.0 618.0,286.0 628.7,286.0 639.3,286.0 650.0,286.0 660.7,286.0 671.3,286.0 682.0,286.0 692.7,286.0 703.3,286.0 714.0,286.0 724.7,286.0 735.3,286.0 746.0,286.0 756.7,286.0 767.3,286.0 778.0,286.0 788.7,280.0 799.3,286.0 810.0,286.0 820.7,286.0 831.3,286.0 842.0,286.0 852.7,286.0 863.3,286.0 874.0,286.0 884.7,286.0 895.3,286.0 906.0,286.0 916.7,286.0 927.3,286.0 938.0,286.0"/><text x="42" y="308" font-size="11" fill="#9fb0d4">19/06 12:43</text><text x="938" y="308" text-anchor="end" font-size="11" fill="#9fb0d4">27/06 02:29</text></svg>