<svg xmlns="http://www.w3.org/2000/svg" viewBox="0 0 960 320" width="960" height="320" font-family="Segoe UI, system-ui, -apple-system, Roboto, Helvetica, Arial, sans-serif" role="img" aria-label="Availability history per region"><rect x="0.5" y="0.5" width="959" height="319" rx="14" fill="#0d1117" stroke="#2c3a5e"/><text x="42" y="26" font-size="14" font-weight="600" fill="#e6ecff">History · 294 points</text><circle cx="47" cy="40" r="5" fill="#22c55e"/><text x="57" y="44" font-size="12" fill="#9fb0d4">Available</text><circle cx="139.8" cy="40" r="5" fill="#f59e0b"/><text x="149.8" y="44" font-size="12" fill="#9fb0d4">Saturated</text><circle cx="232.60000000000002" cy="40" r="5" fill="#ef4444"/><text x="242.60000000000002" y="44" font-size="12" fill="#9fb0d4">Error</text><circle cx="296.6" cy="40" r="5" fill="#a855f7"/><text x="306.6" y="44" font-size="12" fill="#9fb0d4">Timeout</text><line x1="42" y1="286.0" x2="938" y2="286.0" stroke="#21304f" stroke-width="1"/><text x="35" y="289.0" text-anchor="end" font-size="11" fill="#9fb0d4">0</text><line x1="42" y1="227.5" x2="938" y2="227.5" stroke="#21304f" stroke-width="1"/><text x="35" y="230.5" text-anchor="end" font-size="11" fill="#9fb0d4">10</text><line x1="42" y1="169.0" x2="938" y2="169.0" stroke="#21304f" stroke-width="1"/><text x="35" y="172.0" text-anchor="end" font-size="11" fill="#9fb0d4">20</text><line x1="42" y1="110.5" x2="938" y2="110.5" stroke="#21304f" stroke-width="1"/><text x="35" y="113.5" text-anchor="end" font-size="11" fill="#9fb0d4">29</text><line x1="42" y1="52.0" x2="938" y2="52.0" stroke="#21304f" stroke-width="1"/><text x="35" y="55.0" text-anchor="end" font-size="11" fill="#9fb0d4">39</text><polyline fill="none" stroke="#22c55e" stroke-width="2.5" stroke-linejoin="round" stroke-linecap="round" points="42.0,70.0 45.1,70.0 48.1,88.0 51.2,88.0 54.2,76.0 57.3,76.0 60.3,76.0 63.4,70.0 66.5,76.0 69.5,70.0 72.6,64.0 75.6,58.0 78.7,58.0 81.8,58.0 84.8,58.0 87.9,58.0 90.9,58.0 94.0,58.0 97.0,58.0 100.1,58.0 103.2,58.0 106.2,58.0 109.3,58.0 112.3,58.0 115.4,58.0 118.5,58.0 121.5,58.0 124.6,58.0 127.6,58.0 130.7,58.0 133.7,58.0 136.8,70.0 139.9,76.0 142.9,94.0 146.0,64.0 149.0,64.0 152.1,58.0 155.1,58.0 158.2,58.0 161.3,70.0 164.3,76.0 167.4,76.0 170.4,82.0 173.5,82.0 176.6,82.0 179.6,82.0 182.7,76.0 185.7,64.0 188.8,70.0 191.8,70.0 194.9,82.0 198.0,76.0 201.0,76.0 204.1,82.0 207.1,76.0 210.2,76.0 213.2,76.0 216.3,64.0 219.4,64.0 222.4,76.0 225.5,76.0 228.5,76.0 231.6,88.0 234.7,70.0 237.7,64.0 240.8,58.0 243.8,58.0 246.9,70.0 249.9,70.0 253.0,70.0 256.1,76.0 259.1,70.0 262.2,70.0 265.2,70.0 268.3,70.0 271.4,76.0 274.4,82.0 277.5,76.0 280.5,70.0 283.6,70.0 286.6,70.0 289.7,70.0 292.8,76.0 295.8,70.0 298.9,70.0 301.9,70.0 305.0,70.0 308.0,70.0 311.1,70.0 314.2,70.0 317.2,70.0 320.3,70.0 323.3,70.0 326.4,70.0 329.5,70.0 332.5,70.0 335.6,70.0 338.6,70.0 341.7,70.0 344.7,70.0 347.8,70.0 350.9,70.0 353.9,70.0 357.0,70.0 360.0,70.0 363.1,70.0 366.2,70.0 369.2,70.0 372.3,70.0 375.3,70.0 378.4,70.0 381.4,70.0 384.5,70.0 387.6,70.0 390.6,70.0 393.7,70.0 396.7,70.0 399.8,70.0 402.8,70.0 405.9,70.0 409.0,70.0 412.0,70.0 415.1,70.0 418.1,70.0 421.2,70.0 424.3,70.0 427.3,70.0 430.4,70.0 433.4,70.0 436.5,70.0 439.5,70.0 442.6,70.0 445.7,70.0 448.7,70.0 451.8,70.0 454.8,70.0 457.9,70.0 460.9,70.0 464.0,70.0 467.1,70.0 470.1,70.0 473.2,70.0 476.2,70.0 479.3,70.0 482.4,70.0 485.4,70.0 488.5,70.0 491.5,70.0 494.6,70.0 497.6,70.0 500.7,70.0 503.8,76.0 506.8,70.0 509.9,70.0 512.9,70.0 516.0,70.0 519.1,70.0 522.1,76.0 525.2,76.0 528.2,88.0 531.3,88.0 534.3,88.0 537.4,94.0 540.5,94.0 543.5,94.0 546.6,94.0 549.6,88.0 552.7,88.0 555.7,82.0 558.8,82.0 561.9,82.0 564.9,88.0 568.0,88.0 571.0,94.0 574.1,82.0 577.2,82.0 580.2,82.0 583.3,82.0 586.3,88.0 589.4,88.0 592.4,94.0 595.5,94.0 598.6,88.0 601.6,88.0 604.7,88.0 607.7,94.0 610.8,94.0 613.8,106.0 616.9,94.0 620.0,94.0 623.0,94.0 626.1,94.0 629.1,88.0 632.2,88.0 635.3,82.0 638.3,76.0 641.4,76.0 644.4,76.0 647.5,76.0 650.5,76.0 653.6,76.0 656.7,70.0 659.7,70.0 662.8,70.0 665.8,76.0 668.9,88.0 672.0,82.0 675.0,70.0 678.1,70.0 681.1,70.0 684.2,76.0 687.2,76.0 690.3,76.0 693.4,82.0 696.4,70.0 699.5,76.0 702.5,64.0 705.6,70.0 708.6,58.0 711.7,58.0 714.8,58.0 717.8,58.0 720.9,58.0 723.9,64.0 727.0,58.0 730.1,64.0 733.1,58.0 736.2,58.0 739.2,58.0 742.3,58.0 745.3,64.0 748.4,64.0 751.5,64.0 754.5,76.0 757.6,70.0 760.6,82.0 763.7,70.0 766.8,76.0 769.8,58.0 772.9,64.0 775.9,58.0 779.0,64.0 782.0,58.0 785.1,58.0 788.2,58.0 791.2,64.0 794.3,70.0 797.3,64.0 800.4,64.0 803.4,64.0 806.5,70.0 809.6,70.0 812.6,64.0 815.7,70.0 818.7,70.0 821.8,70.0 824.9,58.0 827.9,58.0 831.0,58.0 834.0,58.0 837.1,58.0 840.1,64.0 843.2,58.0 846.3,58.0 849.3,58.0 852.4,58.0 855.4,58.0 858.5,58.0 861.5,58.0 864.6,58.0 867.7,64.0 870.7,58.0 873.8,58.0 876.8,58.0 879.9,58.0 883.0,58.0 886.0,58.0 889.1,58.0 892.1,64.0 895.2,58.0 898.2,58.0 901.3,58.0 904.4,58.0 907.4,58.0 910.5,58.0 913.5,58.0 916.6,58.0 919.7,58.0 922.7,58.0 925.8,58.0 928.8,58.0 931.9,58.0 934.9,58.0 938.0,58.0"/><polyline fill="none" stroke="#f59e0b" stroke-width="2.5" stroke-linejoin="round" stroke-linecap="round" points="42.0,274.0 45.1,274.0 48.1,274.0 51.2,280.0 54.2,268.0 57.3,268.0 60.3,268.0 63.4,274.0 66.5,274.0 69.5,274.0 72.6,280.0 75.6,286.0 78.7,286.0 81.8,286.0 84.8,286.0 87.9,286.0 90.9,286.0 94.0,286.0 97.0,286.0 100.1,286.0 103.2,286.0 106.2,286.0 109.3,286.0 112.3,286.0 115.4,286.0 118.5,286.0 121.5,286.0 124.6,286.0 127.6,286.0 130.7,286.0 133.7,286.0 136.8,274.0 139.9,280.0 142.9,280.0 146.0,280.0 149.0,280.0 152.1,286.0 155.1,286.0 158.2,286.0 161.3,274.0 164.3,268.0 167.4,268.0 170.4,262.0 173.5,262.0 176.6,262.0 179.6,262.0 182.7,268.0 185.7,280.0 188.8,280.0 191.8,274.0 194.9,262.0 198.0,268.0 201.0,268.0 204.1,262.0 207.1,268.0 210.2,268.0 213.2,268.0 216.3,280.0 219.4,280.0 222.4,268.0 225.5,268.0 228.5,268.0 231.6,262.0 234.7,274.0 237.7,280.0 240.8,286.0 243.8,286.0 246.9,274.0 249.9,274.0 253.0,274.0 256.1,274.0 259.1,274.0 262.2,274.0 265.2,274.0 268.3,274.0 271.4,280.0 274.4,274.0 277.5,280.0 280.5,286.0 283.6,286.0 286.6,286.0 289.7,286.0 292.8,280.0 295.8,286.0 298.9,286.0 301.9,286.0 305.0,286.0 308.0,286.0 311.1,286.0 314.2,286.0 317.2,286.0 320.3,286.0 323.3,286.0 326.4,286.0 329.5,286.0 332.5,286.0 335.6,286.0 338.6,286.0 341.7,286.0 344.7,286.0 347.8,286.0 350.9,286.0 353.9,286.0 357.0,286.0 360.0,286.0 363.1,286.0 366.2,286.0 369.2,286.0 372.3,286.0 375.3,286.0 378.4,286.0 381.4,286.0 384.5,286.0 387.6,286.0 390.6,286.0 393.7,286.0 396.7,286.0 399.8,286.0 402.8,286.0 405.9,286.0 409.0,286.0 412.0,286.0 415.1,286.0 418.1,286.0 421.2,286.0 424.3,286.0 427.3,286.0 430.4,286.0 433.4,286.0 436.5,286.0 439.5,286.0 442.6,286.0 445.7,286.0 448.7,286.0 451.8,286.0 454.8,286.0 457.9,286.0 460.9,286.0 464.0,286.0 467.1,286.0 470.1,286.0 473.2,286.0 476.2,286.0 479.3,286.0 482.4,286.0 485.4,286.0 488.5,286.0 491.5,286.0 494.6,286.0 497.6,286.0 500.7,286.0 503.8,286.0 506.8,286.0 509.9,286.0 512.9,286.0 516.0,286.0 519.1,286.0 522.1,286.0 525.2,280.0 528.2,268.0 531.3,268.0 534.3,268.0 537.4,268.0 540.5,262.0 543.5,262.0 546.6,262.0 549.6,268.0 552.7,268.0 555.7,274.0 558.8,274.0 561.9,274.0 564.9,268.0 568.0,268.0 571.0,268.0 574.1,274.0 577.2,274.0 580.2,274.0 583.3,274.0 586.3,268.0 589.4,268.0 592.4,262.0 595.5,262.0 598.6,268.0 601.6,268.0 604.7,268.0 607.7,262.0 610.8,262.0 613.8,274.0 616.9,262.0 620.0,262.0 623.0,262.0 626.1,262.0 629.1,268.0 632.2,268.0 635.3,274.0 638.3,280.0 641.4,280.0 644.4,280.0 647.5,280.0 650.5,280.0 653.6,280.0 656.7,286.0 659.7,286.0 662.8,286.0 665.8,280.0 668.9,274.0 672.0,274.0 675.0,280.0 678.1,274.0 681.1,274.0 684.2,268.0 687.2,268.0 690.3,268.0 693.4,268.0 696.4,280.0 699.5,274.0 702.5,280.0 705.6,280.0 708.6,286.0 711.7,286.0 714.8,286.0 717.8,286.0 720.9,286.0 723.9,286.0 727.0,286.0 730.1,286.0 733.1,286.0 736.2,286.0 739.2,286.0 742.3,286.0 745.3,280.0 748.4,280.0 751.5,280.0 754.5,268.0 757.6,280.0 760.6,268.0 763.7,274.0 766.8,274.0 769.8,286.0 772.9,280.0 775.9,286.0 779.0,280.0 782.0,286.0 785.1,286.0 788.2,286.0 791.2,280.0 794.3,274.0 797.3,280.0 800.4,280.0 803.4,280.0 806.5,274.0 809.6,274.0 812.6,280.0 815.7,280.0 818.7,280.0 821.8,280.0 824.9,286.0 827.9,286.0 831.0,286.0 834.0,286.0 837.1,286.0 840.1,286.0 843.2,286.0 846.3,286.0 849.3,286.0 852.4,286.0 855.4,286.0 858.5,286.0 861.5,286.0 864.6,286.0 867.7,286.0 870.7,286.0 873.8,286.0 876.8,286.0 879.9,286.0 883.0,286.0 886.0,286.0 889.1,286.0 892.1,286.0 895.2,286.0 898.2,286.0 901.3,286.0 904.4,286.0 907.4,286.0 910.5,286.0 913.5,286.0 916.6,286.0 919.7,286.0 922.7,286.0 925.8,286.0 928.8,286.0 931.9,286.0 934.9,286.0 938.0,286.0"/><polyline fill="none" stroke="#ef4444" stroke-width="2.5" stroke-linejoin="round" stroke-linecap="round" points="42.0,280.0 45.1,280.0 48.1,268.0 51.2,262.0 54.2,286.0 57.3,286.0 60.3,286.0 63.4,286.0 66.5,280.0 69.5,286.0 72.6,286.0 75.6,286.0 78.7,286.0 81.8,286.0 84.8,286.0 87.9,286.0 90.9,286.0 94.0,286.0 97.0,286.0 100.1,286.0 103.2,286.0 106.2,286.0 109.3,286.0 112.3,286.0 115.4,286.0 118.5,286.0 121.5,286.0 124.6,286.0 127.6,286.0 130.7,286.0 133.7,286.0 136.8,286.0 139.9,274.0 142.9,256.0 146.0,286.0 149.0,286.0 152.1,286.0 155.1,286.0 158.2,286.0 161.3,286.0 164.3,286.0 167.4,286.0 170.4,286.0 173.5,286.0 176.6,286.0 179.6,286.0 182.7,286.0 185.7,286.0 188.8,280.0 191.8,286.0 194.9,286.0 198.0,286.0 201.0,286.0 204.1,286.0 207.1,286.0 210.2,286.0 213.2,286.0 216.3,286.0 219.4,286.0 222.4,286.0 225.5,286.0 228.5,286.0 231.6,280.0 234.7,286.0 237.7,286.0 240.8,286.0 243.8,286.0 246.9,286.0 249.9,286.0 253.0,286.0 256.1,286.0 259.1,286.0 262.2,286.0 265.2,286.0 268.3,286.0 271.4,274.0 274.4,274.0 277.5,274.0 280.5,274.0 283.6,274.0 286.6,274.0 289.7,274.0 292.8,274.0 295.8,274.0 298.9,274.0 301.9,274.0 305.0,274.0 308.0,274.0 311.1,274.0 314.2,274.0 317.2,274.0 320.3,274.0 323.3,274.0 326.4,274.0 329.5,274.0 332.5,274.0 335.6,274.0 338.6,274.0 341.7,274.0 344.7,274.0 347.8,274.0 350.9,274.0 353.9,274.0 357.0,274.0 360.0,274.0 363.1,274.0 366.2,274.0 369.2,274.0 372.3,274.0 375.3,274.0 378.4,274.0 381.4,274.0 384.5,274.0 387.6,274.0 390.6,274.0 393.7,274.0 396.7,274.0 399.8,274.0 402.8,274.0 405.9,274.0 409.0,274.0 412.0,274.0 415.1,274.0 418.1,274.0 421.2,274.0 424.3,274.0 427.3,274.0 430.4,274.0 433.4,274.0 436.5,274.0 439.5,274.0 442.6,274.0 445.7,274.0 448.7,274.0 451.8,274.0 454.8,274.0 457.9,274.0 460.9,274.0 464.0,274.0 467.1,274.0 470.1,274.0 473.2,274.0 476.2,274.0 479.3,274.0 482.4,274.0 485.4,274.0 488.5,274.0 491.5,274.0 494.6,274.0 497.6,274.0 500.7,274.0 503.8,268.0 506.8,274.0 509.9,274.0 512.9,274.0 516.0,274.0 519.1,274.0 522.1,274.0 525.2,274.0 528.2,274.0 531.3,274.0 534.3,274.0 537.4,268.0 540.5,274.0 543.5,274.0 546.6,274.0 549.6,274.0 552.7,274.0 555.7,274.0 558.8,274.0 561.9,274.0 564.9,274.0 568.0,274.0 571.0,268.0 574.1,274.0 577.2,274.0 580.2,274.0 583.3,274.0 586.3,274.0 589.4,274.0 592.4,274.0 595.5,274.0 598.6,274.0 601.6,274.0 604.7,274.0 607.7,274.0 610.8,274.0 613.8,250.0 616.9,274.0 620.0,274.0 623.0,274.0 626.1,274.0 629.1,274.0 632.2,274.0 635.3,274.0 638.3,274.0 641.4,274.0 644.4,274.0 647.5,274.0 650.5,274.0 653.6,274.0 656.7,274.0 659.7,274.0 662.8,274.0 665.8,274.0 668.9,268.0 672.0,274.0 675.0,280.0 678.1,286.0 681.1,286.0 684.2,286.0 687.2,286.0 690.3,286.0 693.4,280.0 696.4,280.0 699.5,286.0 702.5,286.0 705.6,280.0 708.6,286.0 711.7,286.0 714.8,286.0 717.8,286.0 720.9,286.0 723.9,280.0 727.0,286.0 730.1,286.0 733.1,286.0 736.2,286.0 739.2,286.0 742.3,286.0 745.3,286.0 748.4,286.0 751.5,286.0 754.5,286.0 757.6,280.0 760.6,280.0 763.7,286.0 766.8,280.0 769.8,286.0 772.9,286.0 775.9,286.0 779.0,286.0 782.0,286.0 785.1,286.0 788.2,286.0 791.2,286.0 794.3,286.0 797.3,286.0 800.4,286.0 803.4,286.0 806.5,286.0 809.6,286.0 812.6,286.0 815.7,280.0 818.7,286.0 821.8,280.0 824.9,286.0 827.9,286.0 831.0,286.0 834.0,286.0 837.1,286.0 840.1,286.0 843.2,286.0 846.3,286.0 849.3,286.0 852.4,286.0 855.4,286.0 858.5,286.0 861.5,286.0 864.6,286.0 867.7,280.0 870.7,286.0 873.8,286.0 876.8,286.0 879.9,286.0 883.0,286.0 886.0,286.0 889.1,286.0 892.1,286.0 895.2,286.0 898.2,286.0 901.3,286.0 904.4,286.0 907.4,286.0 910.5,286.0 913.5,286.0 916.6,286.0 919.7,286.0 922.7,286.0 925.8,286.0 928.8,286.0 931.9,286.0 934.9,286.0 938.0,286.0"/><polyline fill="none" stroke="#a855f7" stroke-width="2.5" stroke-linejoin="round" stroke-linecap="round" points="42.0,286.0 45.1,286.0 48.1,286.0 51.2,286.0 54.2,286.0 57.3,286.0 60.3,286.0 63.4,286.0 66.5,286.0 69.5,286.0 72.6,286.0 75.6,286.0 78.7,286.0 81.8,286.0 84.8,286.0 87.9,286.0 90.9,286.0 94.0,286.0 97.0,286.0 100.1,286.0 103.2,286.0 106.2,286.0 109.3,286.0 112.3,286.0 115.4,286.0 118.5,286.0 121.5,286.0 124.6,286.0 127.6,286.0 130.7,286.0 133.7,286.0 136.8,286.0 139.9,286.0 142.9,286.0 146.0,286.0 149.0,286.0 152.1,286.0 155.1,286.0 158.2,286.0 161.3,286.0 164.3,286.0 167.4,286.0 170.4,286.0 173.5,286.0 176.6,286.0 179.6,286.0 182.7,286.0 185.7,286.0 188.8,286.0 191.8,286.0 194.9,286.0 198.0,286.0 201.0,286.0 204.1,286.0 207.1,286.0 210.2,286.0 213.2,286.0 216.3,286.0 219.4,286.0 222.4,286.0 225.5,286.0 228.5,286.0 231.6,286.0 234.7,286.0 237.7,286.0 240.8,286.0 243.8,286.0 246.9,286.0 249.9,286.0 253.0,286.0 256.1,280.0 259.1,286.0 262.2,286.0 265.2,286.0 268.3,286.0 271.4,286.0 274.4,286.0 277.5,286.0 280.5,286.0 283.6,286.0 286.6,286.0 289.7,286.0 292.8,286.0 295.8,286.0 298.9,286.0 301.9,286.0 305.0,286.0 308.0,286.0 311.1,286.0 314.2,286.0 317.2,286.0 320.3,286.0 323.3,286.0 326.4,286.0 329.5,286.0 332.5,286.0 335.6,286.0 338.6,286.0 341.7,286.0 344.7,286.0 347.8,286.0 350.9,286.0 353.9,286.0 357.0,286.0 360.0,286.0 363.1,286.0 366.2,286.0 369.2,286.0 372.3,286.0 375.3,286.0 378.4,286.0 381.4,286.0 384.5,286.0 387.6,286.0 390.6,286.0 393.7,286.0 396.7,286.0 399.8,286.0 402.8,286.0 405.9,286.0 409.0,286.0 412.0,286.0 415.1,286.0 418.1,286.0 421.2,286.0 424.3,286.0 427.3,286.0 430.4,286.0 433.4,286.0 436.5,286.0 439.5,286.0 442.6,286.0 445.7,286.0 448.7,286.0 451.8,286.0 454.8,286.0 457.9,286.0 460.9,286.0 464.0,286.0 467.1,286.0 470.1,286.0 473.2,286.0 476.2,286.0 479.3,286.0 482.4,286.0 485.4,286.0 488.5,286.0 491.5,286.0 494.6,286.0 497.6,286.0 500.7,286.0 503.8,286.0 506.8,286.0 509.9,286.0 512.9,286.0 516.0,286.0 519.1,286.0 522.1,280.0 525.2,286.0 528.2,286.0 531.3,286.0 534.3,286.0 537.4,286.0 540.5,286.0 543.5,286.0 546.6,286.0 549.6,286.0 552.7,286.0 555.7,286.0 558.8,286.0 561.9,286.0 564.9,286.0 568.0,286.0 571.0,286.0 574.1,286.0 577.2,286.0 580.2,286.0 583.3,286.0 586.3,286.0 589.4,286.0 592.4,286.0 595.5,286.0 598.6,286.0 601.6,286.0 604.7,286.0 607.7,286.0 610.8,286.0 613.8,286.0 616.9,286.0 620.0,286.0 623.0,286.0 626.1,286.0 629.1,286.0 632.2,286.0 635.3,286.0 638.3,286.0 641.4,286.0 644.4,286.0 647.5,286.0 650.5,286.0 653.6,286.0 656.7,286.0 659.7,286.0 662.8,286.0 665.8,286.0 668.9,286.0 672.0,286.0 675.0,286.0 678.1,286.0 681.1,286.0 684.2,286.0 687.2,286.0 690.3,286.0 693.4,286.0 696.4,286.0 699.5,280.0 702.5,286.0 705.6,286.0 708.6,286.0 711.7,286.0 714.8,286.0 717.8,286.0 720.9,286.0 723.9,286.0 727.0,286.0 730.1,280.0 733.1,286.0 736.2,286.0 739.2,286.0 742.3,286.0 745.3,286.0 748.4,286.0 751.5,286.0 754.5,286.0 757.6,286.0 760.6,286.0 763.7,286.0 766.8,286.0 769.8,286.0 772.9,286.0 775.9,286.0 779.0,286.0 782.0,286.0 785.1,286.0 788.2,286.0 791.2,286.0 794.3,286.0 797.3,286.0 800.4,286.0 803.4,286.0 806.5,286.0 809.6,286.0 812.6,286.0 815.7,286.0 818.7,280.0 821.8,286.0 824.9,286.0 827.9,286.0 831.0,286.0 834.0,286.0 837.1,286.0 840.1,280.0 843.2,286.0 846.3,286.0 849.3,286.0 852.4,286.0 855.4,286.0 858.5,286.0 861.5,286.0 864.6,286.0 867.7,286.0 870.7,286.0 873.8,286.0 876.8,286.0 879.9,286.0 883.0,286.0 886.0,286.0 889.1,286.0 892.1,280.0 895.2,286.0 898.2,286.0 901.3,286.0 904.4,286.0 907.4,286.0 910.5,286.0 913.5,286.0 916.6,286.0 919.7,286.0 922.7,286.0 925.8,286.0 928.8,286.0 931.9,286.0 934.9,286.0 938.0,286.0"/><text x="42" y="308" font-size="11" fill="#9fb0d4">19/06 12:43</text><text x="938" y="308" text-anchor="end" font-size="11" fill="#9fb0d4">05/07 21:29</text></svg>