<svg xmlns="http://www.w3.org/2000/svg" viewBox="0 0 960 320" width="960" height="320" font-family="Segoe UI, system-ui, -apple-system, Roboto, Helvetica, Arial, sans-serif" role="img" aria-label="Availability history per region"><rect x="0.5" y="0.5" width="959" height="319" rx="14" fill="#0d1117" stroke="#2c3a5e"/><text x="42" y="26" font-size="14" font-weight="600" fill="#e6ecff">History · 76 points</text><circle cx="47" cy="40" r="5" fill="#22c55e"/><text x="57" y="44" font-size="12" fill="#9fb0d4">Available</text><circle cx="139.8" cy="40" r="5" fill="#f59e0b"/><text x="149.8" y="44" font-size="12" fill="#9fb0d4">Saturated</text><circle cx="232.60000000000002" cy="40" r="5" fill="#ef4444"/><text x="242.60000000000002" y="44" font-size="12" fill="#9fb0d4">Error</text><circle cx="296.6" cy="40" r="5" fill="#a855f7"/><text x="306.6" y="44" font-size="12" fill="#9fb0d4">Timeout</text><line x1="42" y1="286.0" x2="938" y2="286.0" stroke="#21304f" stroke-width="1"/><text x="35" y="289.0" text-anchor="end" font-size="11" fill="#9fb0d4">0</text><line x1="42" y1="227.5" x2="938" y2="227.5" stroke="#21304f" stroke-width="1"/><text x="35" y="230.5" text-anchor="end" font-size="11" fill="#9fb0d4">10</text><line x1="42" y1="169.0" x2="938" y2="169.0" stroke="#21304f" stroke-width="1"/><text x="35" y="172.0" text-anchor="end" font-size="11" fill="#9fb0d4">20</text><line x1="42" y1="110.5" x2="938" y2="110.5" stroke="#21304f" stroke-width="1"/><text x="35" y="113.5" text-anchor="end" font-size="11" fill="#9fb0d4">29</text><line x1="42" y1="52.0" x2="938" y2="52.0" stroke="#21304f" stroke-width="1"/><text x="35" y="55.0" text-anchor="end" font-size="11" fill="#9fb0d4">39</text><polyline fill="none" stroke="#22c55e" stroke-width="2.5" stroke-linejoin="round" stroke-linecap="round" points="42.0,70.0 53.9,70.0 65.9,88.0 77.8,88.0 89.8,76.0 101.7,76.0 113.7,76.0 125.6,70.0 137.6,76.0 149.5,70.0 161.5,64.0 173.4,58.0 185.4,58.0 197.3,58.0 209.3,58.0 221.2,58.0 233.1,58.0 245.1,58.0 257.0,58.0 269.0,58.0 280.9,58.0 292.9,58.0 304.8,58.0 316.8,58.0 328.7,58.0 340.7,58.0 352.6,58.0 364.6,58.0 376.5,58.0 388.5,58.0 400.4,58.0 412.3,70.0 424.3,76.0 436.2,94.0 448.2,64.0 460.1,64.0 472.1,58.0 484.0,58.0 496.0,58.0 507.9,70.0 519.9,76.0 531.8,76.0 543.8,82.0 555.7,82.0 567.7,82.0 579.6,82.0 591.5,76.0 603.5,64.0 615.4,70.0 627.4,70.0 639.3,82.0 651.3,76.0 663.2,76.0 675.2,82.0 687.1,76.0 699.1,76.0 711.0,76.0 723.0,64.0 734.9,64.0 746.9,76.0 758.8,76.0 770.7,76.0 782.7,88.0 794.6,70.0 806.6,64.0 818.5,58.0 830.5,58.0 842.4,70.0 854.4,70.0 866.3,70.0 878.3,76.0 890.2,70.0 902.2,70.0 914.1,70.0 926.1,70.0 938.0,76.0"/><polyline fill="none" stroke="#f59e0b" stroke-width="2.5" stroke-linejoin="round" stroke-linecap="round" points="42.0,274.0 53.9,274.0 65.9,274.0 77.8,280.0 89.8,268.0 101.7,268.0 113.7,268.0 125.6,274.0 137.6,274.0 149.5,274.0 161.5,280.0 173.4,286.0 185.4,286.0 197.3,286.0 209.3,286.0 221.2,286.0 233.1,286.0 245.1,286.0 257.0,286.0 269.0,286.0 280.9,286.0 292.9,286.0 304.8,286.0 316.8,286.0 328.7,286.0 340.7,286.0 352.6,286.0 364.6,286.0 376.5,286.0 388.5,286.0 400.4,286.0 412.3,274.0 424.3,280.0 436.2,280.0 448.2,280.0 460.1,280.0 472.1,286.0 484.0,286.0 496.0,286.0 507.9,274.0 519.9,268.0 531.8,268.0 543.8,262.0 555.7,262.0 567.7,262.0 579.6,262.0 591.5,268.0 603.5,280.0 615.4,280.0 627.4,274.0 639.3,262.0 651.3,268.0 663.2,268.0 675.2,262.0 687.1,268.0 699.1,268.0 711.0,268.0 723.0,280.0 734.9,280.0 746.9,268.0 758.8,268.0 770.7,268.0 782.7,262.0 794.6,274.0 806.6,280.0 818.5,286.0 830.5,286.0 842.4,274.0 854.4,274.0 866.3,274.0 878.3,274.0 890.2,274.0 902.2,274.0 914.1,274.0 926.1,274.0 938.0,280.0"/><polyline fill="none" stroke="#ef4444" stroke-width="2.5" stroke-linejoin="round" stroke-linecap="round" points="42.0,280.0 53.9,280.0 65.9,268.0 77.8,262.0 89.8,286.0 101.7,286.0 113.7,286.0 125.6,286.0 137.6,280.0 149.5,286.0 161.5,286.0 173.4,286.0 185.4,286.0 197.3,286.0 209.3,286.0 221.2,286.0 233.1,286.0 245.1,286.0 257.0,286.0 269.0,286.0 280.9,286.0 292.9,286.0 304.8,286.0 316.8,286.0 328.7,286.0 340.7,286.0 352.6,286.0 364.6,286.0 376.5,286.0 388.5,286.0 400.4,286.0 412.3,286.0 424.3,274.0 436.2,256.0 448.2,286.0 460.1,286.0 472.1,286.0 484.0,286.0 496.0,286.0 507.9,286.0 519.9,286.0 531.8,286.0 543.8,286.0 555.7,286.0 567.7,286.0 579.6,286.0 591.5,286.0 603.5,286.0 615.4,280.0 627.4,286.0 639.3,286.0 651.3,286.0 663.2,286.0 675.2,286.0 687.1,286.0 699.1,286.0 711.0,286.0 723.0,286.0 734.9,286.0 746.9,286.0 758.8,286.0 770.7,286.0 782.7,280.0 794.6,286.0 806.6,286.0 818.5,286.0 830.5,286.0 842.4,286.0 854.4,286.0 866.3,286.0 878.3,286.0 890.2,286.0 902.2,286.0 914.1,286.0 926.1,286.0 938.0,274.0"/><polyline fill="none" stroke="#a855f7" stroke-width="2.5" stroke-linejoin="round" stroke-linecap="round" points="42.0,286.0 53.9,286.0 65.9,286.0 77.8,286.0 89.8,286.0 101.7,286.0 113.7,286.0 125.6,286.0 137.6,286.0 149.5,286.0 161.5,286.0 173.4,286.0 185.4,286.0 197.3,286.0 209.3,286.0 221.2,286.0 233.1,286.0 245.1,286.0 257.0,286.0 269.0,286.0 280.9,286.0 292.9,286.0 304.8,286.0 316.8,286.0 328.7,286.0 340.7,286.0 352.6,286.0 364.6,286.0 376.5,286.0 388.5,286.0 400.4,286.0 412.3,286.0 424.3,286.0 436.2,286.0 448.2,286.0 460.1,286.0 472.1,286.0 484.0,286.0 496.0,286.0 507.9,286.0 519.9,286.0 531.8,286.0 543.8,286.0 555.7,286.0 567.7,286.0 579.6,286.0 591.5,286.0 603.5,286.0 615.4,286.0 627.4,286.0 639.3,286.0 651.3,286.0 663.2,286.0 675.2,286.0 687.1,286.0 699.1,286.0 711.0,286.0 723.0,286.0 734.9,286.0 746.9,286.0 758.8,286.0 770.7,286.0 782.7,286.0 794.6,286.0 806.6,286.0 818.5,286.0 830.5,286.0 842.4,286.0 854.4,286.0 866.3,286.0 878.3,280.0 890.2,286.0 902.2,286.0 914.1,286.0 926.1,286.0 938.0,286.0"/><text x="42" y="308" font-size="11" fill="#9fb0d4">19/06 12:43</text><text x="938" y="308" text-anchor="end" font-size="11" fill="#9fb0d4">26/06 20:31</text></svg>