<svg xmlns="http://www.w3.org/2000/svg" viewBox="0 0 960 320" width="960" height="320" font-family="Segoe UI, system-ui, -apple-system, Roboto, Helvetica, Arial, sans-serif" role="img" aria-label="Availability history per region"><rect x="0.5" y="0.5" width="959" height="319" rx="14" fill="#ffffff" stroke="#dce3f1"/><text x="42" y="26" font-size="14" font-weight="600" fill="#14203a">History · 199 points</text><circle cx="47" cy="40" r="5" fill="#22c55e"/><text x="57" y="44" font-size="12" fill="#5a688a">Available</text><circle cx="139.8" cy="40" r="5" fill="#f59e0b"/><text x="149.8" y="44" font-size="12" fill="#5a688a">Saturated</text><circle cx="232.60000000000002" cy="40" r="5" fill="#ef4444"/><text x="242.60000000000002" y="44" font-size="12" fill="#5a688a">Error</text><circle cx="296.6" cy="40" r="5" fill="#a855f7"/><text x="306.6" y="44" font-size="12" fill="#5a688a">Timeout</text><line x1="42" y1="286.0" x2="938" y2="286.0" stroke="#eef2f7" stroke-width="1"/><text x="35" y="289.0" text-anchor="end" font-size="11" fill="#5a688a">0</text><line x1="42" y1="227.5" x2="938" y2="227.5" stroke="#eef2f7" stroke-width="1"/><text x="35" y="230.5" text-anchor="end" font-size="11" fill="#5a688a">10</text><line x1="42" y1="169.0" x2="938" y2="169.0" stroke="#eef2f7" stroke-width="1"/><text x="35" y="172.0" text-anchor="end" font-size="11" fill="#5a688a">20</text><line x1="42" y1="110.5" x2="938" y2="110.5" stroke="#eef2f7" stroke-width="1"/><text x="35" y="113.5" text-anchor="end" font-size="11" fill="#5a688a">29</text><line x1="42" y1="52.0" x2="938" y2="52.0" stroke="#eef2f7" stroke-width="1"/><text x="35" y="55.0" text-anchor="end" font-size="11" fill="#5a688a">39</text><polyline fill="none" stroke="#22c55e" stroke-width="2.5" stroke-linejoin="round" stroke-linecap="round" points="42.0,70.0 46.5,70.0 51.1,88.0 55.6,88.0 60.1,76.0 64.6,76.0 69.2,76.0 73.7,70.0 78.2,76.0 82.7,70.0 87.3,64.0 91.8,58.0 96.3,58.0 100.8,58.0 105.4,58.0 109.9,58.0 114.4,58.0 118.9,58.0 123.5,58.0 128.0,58.0 132.5,58.0 137.0,58.0 141.6,58.0 146.1,58.0 150.6,58.0 155.1,58.0 159.7,58.0 164.2,58.0 168.7,58.0 173.2,58.0 177.8,58.0 182.3,70.0 186.8,76.0 191.3,94.0 195.9,64.0 200.4,64.0 204.9,58.0 209.4,58.0 214.0,58.0 218.5,70.0 223.0,76.0 227.5,76.0 232.1,82.0 236.6,82.0 241.1,82.0 245.6,82.0 250.2,76.0 254.7,64.0 259.2,70.0 263.7,70.0 268.3,82.0 272.8,76.0 277.3,76.0 281.8,82.0 286.4,76.0 290.9,76.0 295.4,76.0 299.9,64.0 304.5,64.0 309.0,76.0 313.5,76.0 318.0,76.0 322.6,88.0 327.1,70.0 331.6,64.0 336.1,58.0 340.7,58.0 345.2,70.0 349.7,70.0 354.2,70.0 358.8,76.0 363.3,70.0 367.8,70.0 372.3,70.0 376.9,70.0 381.4,76.0 385.9,82.0 390.4,76.0 395.0,70.0 399.5,70.0 404.0,70.0 408.5,70.0 413.1,76.0 417.6,70.0 422.1,70.0 426.6,70.0 431.2,70.0 435.7,70.0 440.2,70.0 444.7,70.0 449.3,70.0 453.8,70.0 458.3,70.0 462.8,70.0 467.4,70.0 471.9,70.0 476.4,70.0 480.9,70.0 485.5,70.0 490.0,70.0 494.5,70.0 499.1,70.0 503.6,70.0 508.1,70.0 512.6,70.0 517.2,70.0 521.7,70.0 526.2,70.0 530.7,70.0 535.3,70.0 539.8,70.0 544.3,70.0 548.8,70.0 553.4,70.0 557.9,70.0 562.4,70.0 566.9,70.0 571.5,70.0 576.0,70.0 580.5,70.0 585.0,70.0 589.6,70.0 594.1,70.0 598.6,70.0 603.1,70.0 607.7,70.0 612.2,70.0 616.7,70.0 621.2,70.0 625.8,70.0 630.3,70.0 634.8,70.0 639.3,70.0 643.9,70.0 648.4,70.0 652.9,70.0 657.4,70.0 662.0,70.0 666.5,70.0 671.0,70.0 675.5,70.0 680.1,70.0 684.6,70.0 689.1,70.0 693.6,70.0 698.2,70.0 702.7,70.0 707.2,70.0 711.7,70.0 716.3,70.0 720.8,70.0 725.3,76.0 729.8,70.0 734.4,70.0 738.9,70.0 743.4,70.0 747.9,70.0 752.5,76.0 757.0,76.0 761.5,88.0 766.0,88.0 770.6,88.0 775.1,94.0 779.6,94.0 784.1,94.0 788.7,94.0 793.2,88.0 797.7,88.0 802.2,82.0 806.8,82.0 811.3,82.0 815.8,88.0 820.3,88.0 824.9,94.0 829.4,82.0 833.9,82.0 838.4,82.0 843.0,82.0 847.5,88.0 852.0,88.0 856.5,94.0 861.1,94.0 865.6,88.0 870.1,88.0 874.6,88.0 879.2,94.0 883.7,94.0 888.2,106.0 892.7,94.0 897.3,94.0 901.8,94.0 906.3,94.0 910.8,88.0 915.4,88.0 919.9,82.0 924.4,76.0 928.9,76.0 933.5,76.0 938.0,76.0"/><polyline fill="none" stroke="#f59e0b" stroke-width="2.5" stroke-linejoin="round" stroke-linecap="round" points="42.0,274.0 46.5,274.0 51.1,274.0 55.6,280.0 60.1,268.0 64.6,268.0 69.2,268.0 73.7,274.0 78.2,274.0 82.7,274.0 87.3,280.0 91.8,286.0 96.3,286.0 100.8,286.0 105.4,286.0 109.9,286.0 114.4,286.0 118.9,286.0 123.5,286.0 128.0,286.0 132.5,286.0 137.0,286.0 141.6,286.0 146.1,286.0 150.6,286.0 155.1,286.0 159.7,286.0 164.2,286.0 168.7,286.0 173.2,286.0 177.8,286.0 182.3,274.0 186.8,280.0 191.3,280.0 195.9,280.0 200.4,280.0 204.9,286.0 209.4,286.0 214.0,286.0 218.5,274.0 223.0,268.0 227.5,268.0 232.1,262.0 236.6,262.0 241.1,262.0 245.6,262.0 250.2,268.0 254.7,280.0 259.2,280.0 263.7,274.0 268.3,262.0 272.8,268.0 277.3,268.0 281.8,262.0 286.4,268.0 290.9,268.0 295.4,268.0 299.9,280.0 304.5,280.0 309.0,268.0 313.5,268.0 318.0,268.0 322.6,262.0 327.1,274.0 331.6,280.0 336.1,286.0 340.7,286.0 345.2,274.0 349.7,274.0 354.2,274.0 358.8,274.0 363.3,274.0 367.8,274.0 372.3,274.0 376.9,274.0 381.4,280.0 385.9,274.0 390.4,280.0 395.0,286.0 399.5,286.0 404.0,286.0 408.5,286.0 413.1,280.0 417.6,286.0 422.1,286.0 426.6,286.0 431.2,286.0 435.7,286.0 440.2,286.0 444.7,286.0 449.3,286.0 453.8,286.0 458.3,286.0 462.8,286.0 467.4,286.0 471.9,286.0 476.4,286.0 480.9,286.0 485.5,286.0 490.0,286.0 494.5,286.0 499.1,286.0 503.6,286.0 508.1,286.0 512.6,286.0 517.2,286.0 521.7,286.0 526.2,286.0 530.7,286.0 535.3,286.0 539.8,286.0 544.3,286.0 548.8,286.0 553.4,286.0 557.9,286.0 562.4,286.0 566.9,286.0 571.5,286.0 576.0,286.0 580.5,286.0 585.0,286.0 589.6,286.0 594.1,286.0 598.6,286.0 603.1,286.0 607.7,286.0 612.2,286.0 616.7,286.0 621.2,286.0 625.8,286.0 630.3,286.0 634.8,286.0 639.3,286.0 643.9,286.0 648.4,286.0 652.9,286.0 657.4,286.0 662.0,286.0 666.5,286.0 671.0,286.0 675.5,286.0 680.1,286.0 684.6,286.0 689.1,286.0 693.6,286.0 698.2,286.0 702.7,286.0 707.2,286.0 711.7,286.0 716.3,286.0 720.8,286.0 725.3,286.0 729.8,286.0 734.4,286.0 738.9,286.0 743.4,286.0 747.9,286.0 752.5,286.0 757.0,280.0 761.5,268.0 766.0,268.0 770.6,268.0 775.1,268.0 779.6,262.0 784.1,262.0 788.7,262.0 793.2,268.0 797.7,268.0 802.2,274.0 806.8,274.0 811.3,274.0 815.8,268.0 820.3,268.0 824.9,268.0 829.4,274.0 833.9,274.0 838.4,274.0 843.0,274.0 847.5,268.0 852.0,268.0 856.5,262.0 861.1,262.0 865.6,268.0 870.1,268.0 874.6,268.0 879.2,262.0 883.7,262.0 888.2,274.0 892.7,262.0 897.3,262.0 901.8,262.0 906.3,262.0 910.8,268.0 915.4,268.0 919.9,274.0 924.4,280.0 928.9,280.0 933.5,280.0 938.0,280.0"/><polyline fill="none" stroke="#ef4444" stroke-width="2.5" stroke-linejoin="round" stroke-linecap="round" points="42.0,280.0 46.5,280.0 51.1,268.0 55.6,262.0 60.1,286.0 64.6,286.0 69.2,286.0 73.7,286.0 78.2,280.0 82.7,286.0 87.3,286.0 91.8,286.0 96.3,286.0 100.8,286.0 105.4,286.0 109.9,286.0 114.4,286.0 118.9,286.0 123.5,286.0 128.0,286.0 132.5,286.0 137.0,286.0 141.6,286.0 146.1,286.0 150.6,286.0 155.1,286.0 159.7,286.0 164.2,286.0 168.7,286.0 173.2,286.0 177.8,286.0 182.3,286.0 186.8,274.0 191.3,256.0 195.9,286.0 200.4,286.0 204.9,286.0 209.4,286.0 214.0,286.0 218.5,286.0 223.0,286.0 227.5,286.0 232.1,286.0 236.6,286.0 241.1,286.0 245.6,286.0 250.2,286.0 254.7,286.0 259.2,280.0 263.7,286.0 268.3,286.0 272.8,286.0 277.3,286.0 281.8,286.0 286.4,286.0 290.9,286.0 295.4,286.0 299.9,286.0 304.5,286.0 309.0,286.0 313.5,286.0 318.0,286.0 322.6,280.0 327.1,286.0 331.6,286.0 336.1,286.0 340.7,286.0 345.2,286.0 349.7,286.0 354.2,286.0 358.8,286.0 363.3,286.0 367.8,286.0 372.3,286.0 376.9,286.0 381.4,274.0 385.9,274.0 390.4,274.0 395.0,274.0 399.5,274.0 404.0,274.0 408.5,274.0 413.1,274.0 417.6,274.0 422.1,274.0 426.6,274.0 431.2,274.0 435.7,274.0 440.2,274.0 444.7,274.0 449.3,274.0 453.8,274.0 458.3,274.0 462.8,274.0 467.4,274.0 471.9,274.0 476.4,274.0 480.9,274.0 485.5,274.0 490.0,274.0 494.5,274.0 499.1,274.0 503.6,274.0 508.1,274.0 512.6,274.0 517.2,274.0 521.7,274.0 526.2,274.0 530.7,274.0 535.3,274.0 539.8,274.0 544.3,274.0 548.8,274.0 553.4,274.0 557.9,274.0 562.4,274.0 566.9,274.0 571.5,274.0 576.0,274.0 580.5,274.0 585.0,274.0 589.6,274.0 594.1,274.0 598.6,274.0 603.1,274.0 607.7,274.0 612.2,274.0 616.7,274.0 621.2,274.0 625.8,274.0 630.3,274.0 634.8,274.0 639.3,274.0 643.9,274.0 648.4,274.0 652.9,274.0 657.4,274.0 662.0,274.0 666.5,274.0 671.0,274.0 675.5,274.0 680.1,274.0 684.6,274.0 689.1,274.0 693.6,274.0 698.2,274.0 702.7,274.0 707.2,274.0 711.7,274.0 716.3,274.0 720.8,274.0 725.3,268.0 729.8,274.0 734.4,274.0 738.9,274.0 743.4,274.0 747.9,274.0 752.5,274.0 757.0,274.0 761.5,274.0 766.0,274.0 770.6,274.0 775.1,268.0 779.6,274.0 784.1,274.0 788.7,274.0 793.2,274.0 797.7,274.0 802.2,274.0 806.8,274.0 811.3,274.0 815.8,274.0 820.3,274.0 824.9,268.0 829.4,274.0 833.9,274.0 838.4,274.0 843.0,274.0 847.5,274.0 852.0,274.0 856.5,274.0 861.1,274.0 865.6,274.0 870.1,274.0 874.6,274.0 879.2,274.0 883.7,274.0 888.2,250.0 892.7,274.0 897.3,274.0 901.8,274.0 906.3,274.0 910.8,274.0 915.4,274.0 919.9,274.0 924.4,274.0 928.9,274.0 933.5,274.0 938.0,274.0"/><polyline fill="none" stroke="#a855f7" stroke-width="2.5" stroke-linejoin="round" stroke-linecap="round" points="42.0,286.0 46.5,286.0 51.1,286.0 55.6,286.0 60.1,286.0 64.6,286.0 69.2,286.0 73.7,286.0 78.2,286.0 82.7,286.0 87.3,286.0 91.8,286.0 96.3,286.0 100.8,286.0 105.4,286.0 109.9,286.0 114.4,286.0 118.9,286.0 123.5,286.0 128.0,286.0 132.5,286.0 137.0,286.0 141.6,286.0 146.1,286.0 150.6,286.0 155.1,286.0 159.7,286.0 164.2,286.0 168.7,286.0 173.2,286.0 177.8,286.0 182.3,286.0 186.8,286.0 191.3,286.0 195.9,286.0 200.4,286.0 204.9,286.0 209.4,286.0 214.0,286.0 218.5,286.0 223.0,286.0 227.5,286.0 232.1,286.0 236.6,286.0 241.1,286.0 245.6,286.0 250.2,286.0 254.7,286.0 259.2,286.0 263.7,286.0 268.3,286.0 272.8,286.0 277.3,286.0 281.8,286.0 286.4,286.0 290.9,286.0 295.4,286.0 299.9,286.0 304.5,286.0 309.0,286.0 313.5,286.0 318.0,286.0 322.6,286.0 327.1,286.0 331.6,286.0 336.1,286.0 340.7,286.0 345.2,286.0 349.7,286.0 354.2,286.0 358.8,280.0 363.3,286.0 367.8,286.0 372.3,286.0 376.9,286.0 381.4,286.0 385.9,286.0 390.4,286.0 395.0,286.0 399.5,286.0 404.0,286.0 408.5,286.0 413.1,286.0 417.6,286.0 422.1,286.0 426.6,286.0 431.2,286.0 435.7,286.0 440.2,286.0 444.7,286.0 449.3,286.0 453.8,286.0 458.3,286.0 462.8,286.0 467.4,286.0 471.9,286.0 476.4,286.0 480.9,286.0 485.5,286.0 490.0,286.0 494.5,286.0 499.1,286.0 503.6,286.0 508.1,286.0 512.6,286.0 517.2,286.0 521.7,286.0 526.2,286.0 530.7,286.0 535.3,286.0 539.8,286.0 544.3,286.0 548.8,286.0 553.4,286.0 557.9,286.0 562.4,286.0 566.9,286.0 571.5,286.0 576.0,286.0 580.5,286.0 585.0,286.0 589.6,286.0 594.1,286.0 598.6,286.0 603.1,286.0 607.7,286.0 612.2,286.0 616.7,286.0 621.2,286.0 625.8,286.0 630.3,286.0 634.8,286.0 639.3,286.0 643.9,286.0 648.4,286.0 652.9,286.0 657.4,286.0 662.0,286.0 666.5,286.0 671.0,286.0 675.5,286.0 680.1,286.0 684.6,286.0 689.1,286.0 693.6,286.0 698.2,286.0 702.7,286.0 707.2,286.0 711.7,286.0 716.3,286.0 720.8,286.0 725.3,286.0 729.8,286.0 734.4,286.0 738.9,286.0 743.4,286.0 747.9,286.0 752.5,280.0 757.0,286.0 761.5,286.0 766.0,286.0 770.6,286.0 775.1,286.0 779.6,286.0 784.1,286.0 788.7,286.0 793.2,286.0 797.7,286.0 802.2,286.0 806.8,286.0 811.3,286.0 815.8,286.0 820.3,286.0 824.9,286.0 829.4,286.0 833.9,286.0 838.4,286.0 843.0,286.0 847.5,286.0 852.0,286.0 856.5,286.0 861.1,286.0 865.6,286.0 870.1,286.0 874.6,286.0 879.2,286.0 883.7,286.0 888.2,286.0 892.7,286.0 897.3,286.0 901.8,286.0 906.3,286.0 910.8,286.0 915.4,286.0 919.9,286.0 924.4,286.0 928.9,286.0 933.5,286.0 938.0,286.0"/><text x="42" y="308" font-size="11" fill="#5a688a">19/06 12:43</text><text x="938" y="308" text-anchor="end" font-size="11" fill="#5a688a">01/07 01:29</text></svg>