<svg xmlns="http://www.w3.org/2000/svg" viewBox="0 0 960 320" width="960" height="320" font-family="Segoe UI, system-ui, -apple-system, Roboto, Helvetica, Arial, sans-serif" role="img" aria-label="Availability history per region"><rect x="0.5" y="0.5" width="959" height="319" rx="14" fill="#ffffff" stroke="#dce3f1"/><text x="42" y="26" font-size="14" font-weight="600" fill="#14203a">History · 93 points</text><circle cx="47" cy="40" r="5" fill="#22c55e"/><text x="57" y="44" font-size="12" fill="#5a688a">Available</text><circle cx="139.8" cy="40" r="5" fill="#f59e0b"/><text x="149.8" y="44" font-size="12" fill="#5a688a">Saturated</text><circle cx="232.60000000000002" cy="40" r="5" fill="#ef4444"/><text x="242.60000000000002" y="44" font-size="12" fill="#5a688a">Error</text><circle cx="296.6" cy="40" r="5" fill="#a855f7"/><text x="306.6" y="44" font-size="12" fill="#5a688a">Timeout</text><line x1="42" y1="286.0" x2="938" y2="286.0" stroke="#eef2f7" stroke-width="1"/><text x="35" y="289.0" text-anchor="end" font-size="11" fill="#5a688a">0</text><line x1="42" y1="227.5" x2="938" y2="227.5" stroke="#eef2f7" stroke-width="1"/><text x="35" y="230.5" text-anchor="end" font-size="11" fill="#5a688a">10</text><line x1="42" y1="169.0" x2="938" y2="169.0" stroke="#eef2f7" stroke-width="1"/><text x="35" y="172.0" text-anchor="end" font-size="11" fill="#5a688a">20</text><line x1="42" y1="110.5" x2="938" y2="110.5" stroke="#eef2f7" stroke-width="1"/><text x="35" y="113.5" text-anchor="end" font-size="11" fill="#5a688a">29</text><line x1="42" y1="52.0" x2="938" y2="52.0" stroke="#eef2f7" stroke-width="1"/><text x="35" y="55.0" text-anchor="end" font-size="11" fill="#5a688a">39</text><polyline fill="none" stroke="#22c55e" stroke-width="2.5" stroke-linejoin="round" stroke-linecap="round" points="42.0,70.0 51.7,70.0 61.5,88.0 71.2,88.0 81.0,76.0 90.7,76.0 100.4,76.0 110.2,70.0 119.9,76.0 129.7,70.0 139.4,64.0 149.1,58.0 158.9,58.0 168.6,58.0 178.3,58.0 188.1,58.0 197.8,58.0 207.6,58.0 217.3,58.0 227.0,58.0 236.8,58.0 246.5,58.0 256.3,58.0 266.0,58.0 275.7,58.0 285.5,58.0 295.2,58.0 305.0,58.0 314.7,58.0 324.4,58.0 334.2,58.0 343.9,70.0 353.7,76.0 363.4,94.0 373.1,64.0 382.9,64.0 392.6,58.0 402.3,58.0 412.1,58.0 421.8,70.0 431.6,76.0 441.3,76.0 451.0,82.0 460.8,82.0 470.5,82.0 480.3,82.0 490.0,76.0 499.7,64.0 509.5,70.0 519.2,70.0 529.0,82.0 538.7,76.0 548.4,76.0 558.2,82.0 567.9,76.0 577.7,76.0 587.4,76.0 597.1,64.0 606.9,64.0 616.6,76.0 626.3,76.0 636.1,76.0 645.8,88.0 655.6,70.0 665.3,64.0 675.0,58.0 684.8,58.0 694.5,70.0 704.3,70.0 714.0,70.0 723.7,76.0 733.5,70.0 743.2,70.0 753.0,70.0 762.7,70.0 772.4,76.0 782.2,82.0 791.9,76.0 801.7,70.0 811.4,70.0 821.1,70.0 830.9,70.0 840.6,76.0 850.3,70.0 860.1,70.0 869.8,70.0 879.6,70.0 889.3,70.0 899.0,70.0 908.8,70.0 918.5,70.0 928.3,70.0 938.0,70.0"/><polyline fill="none" stroke="#f59e0b" stroke-width="2.5" stroke-linejoin="round" stroke-linecap="round" points="42.0,274.0 51.7,274.0 61.5,274.0 71.2,280.0 81.0,268.0 90.7,268.0 100.4,268.0 110.2,274.0 119.9,274.0 129.7,274.0 139.4,280.0 149.1,286.0 158.9,286.0 168.6,286.0 178.3,286.0 188.1,286.0 197.8,286.0 207.6,286.0 217.3,286.0 227.0,286.0 236.8,286.0 246.5,286.0 256.3,286.0 266.0,286.0 275.7,286.0 285.5,286.0 295.2,286.0 305.0,286.0 314.7,286.0 324.4,286.0 334.2,286.0 343.9,274.0 353.7,280.0 363.4,280.0 373.1,280.0 382.9,280.0 392.6,286.0 402.3,286.0 412.1,286.0 421.8,274.0 431.6,268.0 441.3,268.0 451.0,262.0 460.8,262.0 470.5,262.0 480.3,262.0 490.0,268.0 499.7,280.0 509.5,280.0 519.2,274.0 529.0,262.0 538.7,268.0 548.4,268.0 558.2,262.0 567.9,268.0 577.7,268.0 587.4,268.0 597.1,280.0 606.9,280.0 616.6,268.0 626.3,268.0 636.1,268.0 645.8,262.0 655.6,274.0 665.3,280.0 675.0,286.0 684.8,286.0 694.5,274.0 704.3,274.0 714.0,274.0 723.7,274.0 733.5,274.0 743.2,274.0 753.0,274.0 762.7,274.0 772.4,280.0 782.2,274.0 791.9,280.0 801.7,286.0 811.4,286.0 821.1,286.0 830.9,286.0 840.6,280.0 850.3,286.0 860.1,286.0 869.8,286.0 879.6,286.0 889.3,286.0 899.0,286.0 908.8,286.0 918.5,286.0 928.3,286.0 938.0,286.0"/><polyline fill="none" stroke="#ef4444" stroke-width="2.5" stroke-linejoin="round" stroke-linecap="round" points="42.0,280.0 51.7,280.0 61.5,268.0 71.2,262.0 81.0,286.0 90.7,286.0 100.4,286.0 110.2,286.0 119.9,280.0 129.7,286.0 139.4,286.0 149.1,286.0 158.9,286.0 168.6,286.0 178.3,286.0 188.1,286.0 197.8,286.0 207.6,286.0 217.3,286.0 227.0,286.0 236.8,286.0 246.5,286.0 256.3,286.0 266.0,286.0 275.7,286.0 285.5,286.0 295.2,286.0 305.0,286.0 314.7,286.0 324.4,286.0 334.2,286.0 343.9,286.0 353.7,274.0 363.4,256.0 373.1,286.0 382.9,286.0 392.6,286.0 402.3,286.0 412.1,286.0 421.8,286.0 431.6,286.0 441.3,286.0 451.0,286.0 460.8,286.0 470.5,286.0 480.3,286.0 490.0,286.0 499.7,286.0 509.5,280.0 519.2,286.0 529.0,286.0 538.7,286.0 548.4,286.0 558.2,286.0 567.9,286.0 577.7,286.0 587.4,286.0 597.1,286.0 606.9,286.0 616.6,286.0 626.3,286.0 636.1,286.0 645.8,280.0 655.6,286.0 665.3,286.0 675.0,286.0 684.8,286.0 694.5,286.0 704.3,286.0 714.0,286.0 723.7,286.0 733.5,286.0 743.2,286.0 753.0,286.0 762.7,286.0 772.4,274.0 782.2,274.0 791.9,274.0 801.7,274.0 811.4,274.0 821.1,274.0 830.9,274.0 840.6,274.0 850.3,274.0 860.1,274.0 869.8,274.0 879.6,274.0 889.3,274.0 899.0,274.0 908.8,274.0 918.5,274.0 928.3,274.0 938.0,274.0"/><polyline fill="none" stroke="#a855f7" stroke-width="2.5" stroke-linejoin="round" stroke-linecap="round" points="42.0,286.0 51.7,286.0 61.5,286.0 71.2,286.0 81.0,286.0 90.7,286.0 100.4,286.0 110.2,286.0 119.9,286.0 129.7,286.0 139.4,286.0 149.1,286.0 158.9,286.0 168.6,286.0 178.3,286.0 188.1,286.0 197.8,286.0 207.6,286.0 217.3,286.0 227.0,286.0 236.8,286.0 246.5,286.0 256.3,286.0 266.0,286.0 275.7,286.0 285.5,286.0 295.2,286.0 305.0,286.0 314.7,286.0 324.4,286.0 334.2,286.0 343.9,286.0 353.7,286.0 363.4,286.0 373.1,286.0 382.9,286.0 392.6,286.0 402.3,286.0 412.1,286.0 421.8,286.0 431.6,286.0 441.3,286.0 451.0,286.0 460.8,286.0 470.5,286.0 480.3,286.0 490.0,286.0 499.7,286.0 509.5,286.0 519.2,286.0 529.0,286.0 538.7,286.0 548.4,286.0 558.2,286.0 567.9,286.0 577.7,286.0 587.4,286.0 597.1,286.0 606.9,286.0 616.6,286.0 626.3,286.0 636.1,286.0 645.8,286.0 655.6,286.0 665.3,286.0 675.0,286.0 684.8,286.0 694.5,286.0 704.3,286.0 714.0,286.0 723.7,280.0 733.5,286.0 743.2,286.0 753.0,286.0 762.7,286.0 772.4,286.0 782.2,286.0 791.9,286.0 801.7,286.0 811.4,286.0 821.1,286.0 830.9,286.0 840.6,286.0 850.3,286.0 860.1,286.0 869.8,286.0 879.6,286.0 889.3,286.0 899.0,286.0 908.8,286.0 918.5,286.0 928.3,286.0 938.0,286.0"/><text x="42" y="308" font-size="11" fill="#5a688a">19/06 12:43</text><text x="938" y="308" text-anchor="end" font-size="11" fill="#5a688a">27/06 08:31</text></svg>