<svg xmlns="http://www.w3.org/2000/svg" viewBox="0 0 960 320" width="960" height="320" font-family="Segoe UI, system-ui, -apple-system, Roboto, Helvetica, Arial, sans-serif" role="img" aria-label="Availability history per region"><rect x="0.5" y="0.5" width="959" height="319" rx="14" fill="#ffffff" stroke="#dce3f1"/><text x="42" y="26" font-size="14" font-weight="600" fill="#14203a">History · 124 points</text><circle cx="47" cy="40" r="5" fill="#22c55e"/><text x="57" y="44" font-size="12" fill="#5a688a">Available</text><circle cx="139.8" cy="40" r="5" fill="#f59e0b"/><text x="149.8" y="44" font-size="12" fill="#5a688a">Saturated</text><circle cx="232.60000000000002" cy="40" r="5" fill="#ef4444"/><text x="242.60000000000002" y="44" font-size="12" fill="#5a688a">Error</text><circle cx="296.6" cy="40" r="5" fill="#a855f7"/><text x="306.6" y="44" font-size="12" fill="#5a688a">Timeout</text><line x1="42" y1="286.0" x2="938" y2="286.0" stroke="#eef2f7" stroke-width="1"/><text x="35" y="289.0" text-anchor="end" font-size="11" fill="#5a688a">0</text><line x1="42" y1="227.5" x2="938" y2="227.5" stroke="#eef2f7" stroke-width="1"/><text x="35" y="230.5" text-anchor="end" font-size="11" fill="#5a688a">10</text><line x1="42" y1="169.0" x2="938" y2="169.0" stroke="#eef2f7" stroke-width="1"/><text x="35" y="172.0" text-anchor="end" font-size="11" fill="#5a688a">20</text><line x1="42" y1="110.5" x2="938" y2="110.5" stroke="#eef2f7" stroke-width="1"/><text x="35" y="113.5" text-anchor="end" font-size="11" fill="#5a688a">29</text><line x1="42" y1="52.0" x2="938" y2="52.0" stroke="#eef2f7" stroke-width="1"/><text x="35" y="55.0" text-anchor="end" font-size="11" fill="#5a688a">39</text><polyline fill="none" stroke="#22c55e" stroke-width="2.5" stroke-linejoin="round" stroke-linecap="round" points="42.0,70.0 49.3,70.0 56.6,88.0 63.9,88.0 71.1,76.0 78.4,76.0 85.7,76.0 93.0,70.0 100.3,76.0 107.6,70.0 114.8,64.0 122.1,58.0 129.4,58.0 136.7,58.0 144.0,58.0 151.3,58.0 158.6,58.0 165.8,58.0 173.1,58.0 180.4,58.0 187.7,58.0 195.0,58.0 202.3,58.0 209.5,58.0 216.8,58.0 224.1,58.0 231.4,58.0 238.7,58.0 246.0,58.0 253.3,58.0 260.5,58.0 267.8,70.0 275.1,76.0 282.4,94.0 289.7,64.0 297.0,64.0 304.2,58.0 311.5,58.0 318.8,58.0 326.1,70.0 333.4,76.0 340.7,76.0 348.0,82.0 355.2,82.0 362.5,82.0 369.8,82.0 377.1,76.0 384.4,64.0 391.7,70.0 398.9,70.0 406.2,82.0 413.5,76.0 420.8,76.0 428.1,82.0 435.4,76.0 442.7,76.0 449.9,76.0 457.2,64.0 464.5,64.0 471.8,76.0 479.1,76.0 486.4,76.0 493.6,88.0 500.9,70.0 508.2,64.0 515.5,58.0 522.8,58.0 530.1,70.0 537.3,70.0 544.6,70.0 551.9,76.0 559.2,70.0 566.5,70.0 573.8,70.0 581.1,70.0 588.3,76.0 595.6,82.0 602.9,76.0 610.2,70.0 617.5,70.0 624.8,70.0 632.0,70.0 639.3,76.0 646.6,70.0 653.9,70.0 661.2,70.0 668.5,70.0 675.8,70.0 683.0,70.0 690.3,70.0 697.6,70.0 704.9,70.0 712.2,70.0 719.5,70.0 726.7,70.0 734.0,70.0 741.3,70.0 748.6,70.0 755.9,70.0 763.2,70.0 770.5,70.0 777.7,70.0 785.0,70.0 792.3,70.0 799.6,70.0 806.9,70.0 814.2,70.0 821.4,70.0 828.7,70.0 836.0,70.0 843.3,70.0 850.6,70.0 857.9,70.0 865.2,70.0 872.4,70.0 879.7,70.0 887.0,70.0 894.3,70.0 901.6,70.0 908.9,70.0 916.1,70.0 923.4,70.0 930.7,70.0 938.0,70.0"/><polyline fill="none" stroke="#f59e0b" stroke-width="2.5" stroke-linejoin="round" stroke-linecap="round" points="42.0,274.0 49.3,274.0 56.6,274.0 63.9,280.0 71.1,268.0 78.4,268.0 85.7,268.0 93.0,274.0 100.3,274.0 107.6,274.0 114.8,280.0 122.1,286.0 129.4,286.0 136.7,286.0 144.0,286.0 151.3,286.0 158.6,286.0 165.8,286.0 173.1,286.0 180.4,286.0 187.7,286.0 195.0,286.0 202.3,286.0 209.5,286.0 216.8,286.0 224.1,286.0 231.4,286.0 238.7,286.0 246.0,286.0 253.3,286.0 260.5,286.0 267.8,274.0 275.1,280.0 282.4,280.0 289.7,280.0 297.0,280.0 304.2,286.0 311.5,286.0 318.8,286.0 326.1,274.0 333.4,268.0 340.7,268.0 348.0,262.0 355.2,262.0 362.5,262.0 369.8,262.0 377.1,268.0 384.4,280.0 391.7,280.0 398.9,274.0 406.2,262.0 413.5,268.0 420.8,268.0 428.1,262.0 435.4,268.0 442.7,268.0 449.9,268.0 457.2,280.0 464.5,280.0 471.8,268.0 479.1,268.0 486.4,268.0 493.6,262.0 500.9,274.0 508.2,280.0 515.5,286.0 522.8,286.0 530.1,274.0 537.3,274.0 544.6,274.0 551.9,274.0 559.2,274.0 566.5,274.0 573.8,274.0 581.1,274.0 588.3,280.0 595.6,274.0 602.9,280.0 610.2,286.0 617.5,286.0 624.8,286.0 632.0,286.0 639.3,280.0 646.6,286.0 653.9,286.0 661.2,286.0 668.5,286.0 675.8,286.0 683.0,286.0 690.3,286.0 697.6,286.0 704.9,286.0 712.2,286.0 719.5,286.0 726.7,286.0 734.0,286.0 741.3,286.0 748.6,286.0 755.9,286.0 763.2,286.0 770.5,286.0 777.7,286.0 785.0,286.0 792.3,286.0 799.6,286.0 806.9,286.0 814.2,286.0 821.4,286.0 828.7,286.0 836.0,286.0 843.3,286.0 850.6,286.0 857.9,286.0 865.2,286.0 872.4,286.0 879.7,286.0 887.0,286.0 894.3,286.0 901.6,286.0 908.9,286.0 916.1,286.0 923.4,286.0 930.7,286.0 938.0,286.0"/><polyline fill="none" stroke="#ef4444" stroke-width="2.5" stroke-linejoin="round" stroke-linecap="round" points="42.0,280.0 49.3,280.0 56.6,268.0 63.9,262.0 71.1,286.0 78.4,286.0 85.7,286.0 93.0,286.0 100.3,280.0 107.6,286.0 114.8,286.0 122.1,286.0 129.4,286.0 136.7,286.0 144.0,286.0 151.3,286.0 158.6,286.0 165.8,286.0 173.1,286.0 180.4,286.0 187.7,286.0 195.0,286.0 202.3,286.0 209.5,286.0 216.8,286.0 224.1,286.0 231.4,286.0 238.7,286.0 246.0,286.0 253.3,286.0 260.5,286.0 267.8,286.0 275.1,274.0 282.4,256.0 289.7,286.0 297.0,286.0 304.2,286.0 311.5,286.0 318.8,286.0 326.1,286.0 333.4,286.0 340.7,286.0 348.0,286.0 355.2,286.0 362.5,286.0 369.8,286.0 377.1,286.0 384.4,286.0 391.7,280.0 398.9,286.0 406.2,286.0 413.5,286.0 420.8,286.0 428.1,286.0 435.4,286.0 442.7,286.0 449.9,286.0 457.2,286.0 464.5,286.0 471.8,286.0 479.1,286.0 486.4,286.0 493.6,280.0 500.9,286.0 508.2,286.0 515.5,286.0 522.8,286.0 530.1,286.0 537.3,286.0 544.6,286.0 551.9,286.0 559.2,286.0 566.5,286.0 573.8,286.0 581.1,286.0 588.3,274.0 595.6,274.0 602.9,274.0 610.2,274.0 617.5,274.0 624.8,274.0 632.0,274.0 639.3,274.0 646.6,274.0 653.9,274.0 661.2,274.0 668.5,274.0 675.8,274.0 683.0,274.0 690.3,274.0 697.6,274.0 704.9,274.0 712.2,274.0 719.5,274.0 726.7,274.0 734.0,274.0 741.3,274.0 748.6,274.0 755.9,274.0 763.2,274.0 770.5,274.0 777.7,274.0 785.0,274.0 792.3,274.0 799.6,274.0 806.9,274.0 814.2,274.0 821.4,274.0 828.7,274.0 836.0,274.0 843.3,274.0 850.6,274.0 857.9,274.0 865.2,274.0 872.4,274.0 879.7,274.0 887.0,274.0 894.3,274.0 901.6,274.0 908.9,274.0 916.1,274.0 923.4,274.0 930.7,274.0 938.0,274.0"/><polyline fill="none" stroke="#a855f7" stroke-width="2.5" stroke-linejoin="round" stroke-linecap="round" points="42.0,286.0 49.3,286.0 56.6,286.0 63.9,286.0 71.1,286.0 78.4,286.0 85.7,286.0 93.0,286.0 100.3,286.0 107.6,286.0 114.8,286.0 122.1,286.0 129.4,286.0 136.7,286.0 144.0,286.0 151.3,286.0 158.6,286.0 165.8,286.0 173.1,286.0 180.4,286.0 187.7,286.0 195.0,286.0 202.3,286.0 209.5,286.0 216.8,286.0 224.1,286.0 231.4,286.0 238.7,286.0 246.0,286.0 253.3,286.0 260.5,286.0 267.8,286.0 275.1,286.0 282.4,286.0 289.7,286.0 297.0,286.0 304.2,286.0 311.5,286.0 318.8,286.0 326.1,286.0 333.4,286.0 340.7,286.0 348.0,286.0 355.2,286.0 362.5,286.0 369.8,286.0 377.1,286.0 384.4,286.0 391.7,286.0 398.9,286.0 406.2,286.0 413.5,286.0 420.8,286.0 428.1,286.0 435.4,286.0 442.7,286.0 449.9,286.0 457.2,286.0 464.5,286.0 471.8,286.0 479.1,286.0 486.4,286.0 493.6,286.0 500.9,286.0 508.2,286.0 515.5,286.0 522.8,286.0 530.1,286.0 537.3,286.0 544.6,286.0 551.9,280.0 559.2,286.0 566.5,286.0 573.8,286.0 581.1,286.0 588.3,286.0 595.6,286.0 602.9,286.0 610.2,286.0 617.5,286.0 624.8,286.0 632.0,286.0 639.3,286.0 646.6,286.0 653.9,286.0 661.2,286.0 668.5,286.0 675.8,286.0 683.0,286.0 690.3,286.0 697.6,286.0 704.9,286.0 712.2,286.0 719.5,286.0 726.7,286.0 734.0,286.0 741.3,286.0 748.6,286.0 755.9,286.0 763.2,286.0 770.5,286.0 777.7,286.0 785.0,286.0 792.3,286.0 799.6,286.0 806.9,286.0 814.2,286.0 821.4,286.0 828.7,286.0 836.0,286.0 843.3,286.0 850.6,286.0 857.9,286.0 865.2,286.0 872.4,286.0 879.7,286.0 887.0,286.0 894.3,286.0 901.6,286.0 908.9,286.0 916.1,286.0 923.4,286.0 930.7,286.0 938.0,286.0"/><text x="42" y="308" font-size="11" fill="#5a688a">19/06 12:43</text><text x="938" y="308" text-anchor="end" font-size="11" fill="#5a688a">28/06 07:30</text></svg>