<svg xmlns="http://www.w3.org/2000/svg" viewBox="0 0 960 320" width="960" height="320" font-family="Segoe UI, system-ui, -apple-system, Roboto, Helvetica, Arial, sans-serif" role="img" aria-label="Availability history per region"><rect x="0.5" y="0.5" width="959" height="319" rx="14" fill="#ffffff" stroke="#dce3f1"/><text x="42" y="26" font-size="14" font-weight="600" fill="#14203a">History · 125 points</text><circle cx="47" cy="40" r="5" fill="#22c55e"/><text x="57" y="44" font-size="12" fill="#5a688a">Available</text><circle cx="139.8" cy="40" r="5" fill="#f59e0b"/><text x="149.8" y="44" font-size="12" fill="#5a688a">Saturated</text><circle cx="232.60000000000002" cy="40" r="5" fill="#ef4444"/><text x="242.60000000000002" y="44" font-size="12" fill="#5a688a">Error</text><circle cx="296.6" cy="40" r="5" fill="#a855f7"/><text x="306.6" y="44" font-size="12" fill="#5a688a">Timeout</text><line x1="42" y1="286.0" x2="938" y2="286.0" stroke="#eef2f7" stroke-width="1"/><text x="35" y="289.0" text-anchor="end" font-size="11" fill="#5a688a">0</text><line x1="42" y1="227.5" x2="938" y2="227.5" stroke="#eef2f7" stroke-width="1"/><text x="35" y="230.5" text-anchor="end" font-size="11" fill="#5a688a">10</text><line x1="42" y1="169.0" x2="938" y2="169.0" stroke="#eef2f7" stroke-width="1"/><text x="35" y="172.0" text-anchor="end" font-size="11" fill="#5a688a">19</text><line x1="42" y1="110.5" x2="938" y2="110.5" stroke="#eef2f7" stroke-width="1"/><text x="35" y="113.5" text-anchor="end" font-size="11" fill="#5a688a">28</text><line x1="42" y1="52.0" x2="938" y2="52.0" stroke="#eef2f7" stroke-width="1"/><text x="35" y="55.0" text-anchor="end" font-size="11" fill="#5a688a">38</text><polyline fill="none" stroke="#22c55e" stroke-width="2.5" stroke-linejoin="round" stroke-linecap="round" points="42.0,64.3 49.2,224.4 56.5,82.8 63.7,88.9 70.9,82.8 78.1,76.6 85.4,76.6 92.6,76.6 99.8,76.6 107.0,76.6 114.3,76.6 121.5,76.6 128.7,76.6 135.9,76.6 143.2,76.6 150.4,70.5 157.6,70.5 164.8,82.8 172.1,82.8 179.3,82.8 186.5,88.9 193.7,88.9 201.0,88.9 208.2,88.9 215.4,88.9 222.6,88.9 229.9,88.9 237.1,88.9 244.3,88.9 251.5,82.8 258.8,82.8 266.0,82.8 273.2,82.8 280.5,76.6 287.7,76.6 294.9,76.6 302.1,76.6 309.4,76.6 316.6,82.8 323.8,82.8 331.0,82.8 338.3,82.8 345.5,76.6 352.7,76.6 359.9,76.6 367.2,76.6 374.4,76.6 381.6,76.6 388.8,76.6 396.1,82.8 403.3,82.8 410.5,82.8 417.7,82.8 425.0,76.6 432.2,76.6 439.4,76.6 446.6,76.6 453.9,76.6 461.1,76.6 468.3,76.6 475.5,76.6 482.8,82.8 490.0,76.6 497.2,76.6 504.5,76.6 511.7,76.6 518.9,76.6 526.1,82.8 533.4,76.6 540.6,76.6 547.8,76.6 555.0,76.6 562.3,76.6 569.5,76.6 576.7,76.6 583.9,76.6 591.2,76.6 598.4,70.5 605.6,70.5 612.8,70.5 620.1,70.5 627.3,76.6 634.5,70.5 641.7,76.6 649.0,76.6 656.2,76.6 663.4,76.6 670.6,76.6 677.9,76.6 685.1,82.8 692.3,88.9 699.5,88.9 706.8,88.9 714.0,88.9 721.2,88.9 728.5,88.9 735.7,88.9 742.9,95.1 750.1,88.9 757.4,88.9 764.6,88.9 771.8,88.9 779.0,88.9 786.3,88.9 793.5,82.8 800.7,82.8 807.9,82.8 815.2,82.8 822.4,82.8 829.6,82.8 836.8,82.8 844.1,82.8 851.3,88.9 858.5,88.9 865.7,88.9 873.0,88.9 880.2,88.9 887.4,88.9 894.6,88.9 901.9,88.9 909.1,95.1 916.3,88.9 923.5,88.9 930.8,88.9 938.0,101.3"/><polyline fill="none" stroke="#f59e0b" stroke-width="2.5" stroke-linejoin="round" stroke-linecap="round" points="42.0,273.7 49.2,267.5 56.5,255.2 63.7,249.1 70.9,255.2 78.1,261.4 85.4,261.4 92.6,261.4 99.8,261.4 107.0,261.4 114.3,261.4 121.5,261.4 128.7,261.4 135.9,261.4 143.2,261.4 150.4,267.5 157.6,267.5 164.8,261.4 172.1,255.2 179.3,255.2 186.5,249.1 193.7,249.1 201.0,249.1 208.2,249.1 215.4,249.1 222.6,249.1 229.9,249.1 237.1,249.1 244.3,249.1 251.5,255.2 258.8,255.2 266.0,255.2 273.2,255.2 280.5,261.4 287.7,261.4 294.9,261.4 302.1,261.4 309.4,261.4 316.6,255.2 323.8,255.2 331.0,255.2 338.3,255.2 345.5,261.4 352.7,261.4 359.9,261.4 367.2,261.4 374.4,261.4 381.6,261.4 388.8,261.4 396.1,255.2 403.3,255.2 410.5,255.2 417.7,261.4 425.0,261.4 432.2,261.4 439.4,261.4 446.6,261.4 453.9,261.4 461.1,261.4 468.3,261.4 475.5,261.4 482.8,255.2 490.0,261.4 497.2,261.4 504.5,261.4 511.7,261.4 518.9,261.4 526.1,261.4 533.4,261.4 540.6,261.4 547.8,261.4 555.0,261.4 562.3,261.4 569.5,261.4 576.7,261.4 583.9,261.4 591.2,261.4 598.4,267.5 605.6,267.5 612.8,267.5 620.1,267.5 627.3,267.5 634.5,267.5 641.7,261.4 649.0,261.4 656.2,261.4 663.4,261.4 670.6,261.4 677.9,261.4 685.1,255.2 692.3,249.1 699.5,249.1 706.8,255.2 714.0,249.1 721.2,249.1 728.5,249.1 735.7,249.1 742.9,249.1 750.1,249.1 757.4,255.2 764.6,249.1 771.8,249.1 779.0,249.1 786.3,249.1 793.5,255.2 800.7,255.2 807.9,255.2 815.2,255.2 822.4,255.2 829.6,255.2 836.8,255.2 844.1,255.2 851.3,249.1 858.5,249.1 865.7,249.1 873.0,249.1 880.2,249.1 887.4,249.1 894.6,249.1 901.9,255.2 909.1,249.1 916.3,249.1 923.5,249.1 930.8,249.1 938.0,249.1"/><polyline fill="none" stroke="#ef4444" stroke-width="2.5" stroke-linejoin="round" stroke-linecap="round" points="42.0,286.0 49.2,132.1 56.5,286.0 63.7,286.0 70.9,286.0 78.1,286.0 85.4,286.0 92.6,286.0 99.8,286.0 107.0,286.0 114.3,286.0 121.5,286.0 128.7,286.0 135.9,286.0 143.2,286.0 150.4,286.0 157.6,286.0 164.8,279.8 172.1,286.0 179.3,286.0 186.5,286.0 193.7,286.0 201.0,286.0 208.2,286.0 215.4,286.0 222.6,286.0 229.9,286.0 237.1,286.0 244.3,286.0 251.5,286.0 258.8,286.0 266.0,286.0 273.2,286.0 280.5,286.0 287.7,286.0 294.9,286.0 302.1,286.0 309.4,286.0 316.6,286.0 323.8,286.0 331.0,286.0 338.3,286.0 345.5,286.0 352.7,286.0 359.9,286.0 367.2,286.0 374.4,286.0 381.6,286.0 388.8,286.0 396.1,286.0 403.3,286.0 410.5,286.0 417.7,286.0 425.0,286.0 432.2,286.0 439.4,286.0 446.6,286.0 453.9,286.0 461.1,286.0 468.3,286.0 475.5,286.0 482.8,286.0 490.0,286.0 497.2,286.0 504.5,286.0 511.7,286.0 518.9,286.0 526.1,279.8 533.4,286.0 540.6,286.0 547.8,286.0 555.0,286.0 562.3,286.0 569.5,286.0 576.7,286.0 583.9,286.0 591.2,286.0 598.4,286.0 605.6,286.0 612.8,286.0 620.1,286.0 627.3,279.8 634.5,286.0 641.7,286.0 649.0,286.0 656.2,286.0 663.4,286.0 670.6,286.0 677.9,286.0 685.1,286.0 692.3,286.0 699.5,286.0 706.8,279.8 714.0,286.0 721.2,286.0 728.5,286.0 735.7,286.0 742.9,279.8 750.1,286.0 757.4,286.0 764.6,286.0 771.8,286.0 779.0,286.0 786.3,286.0 793.5,286.0 800.7,286.0 807.9,286.0 815.2,286.0 822.4,286.0 829.6,286.0 836.8,286.0 844.1,286.0 851.3,286.0 858.5,286.0 865.7,286.0 873.0,286.0 880.2,286.0 887.4,286.0 894.6,286.0 901.9,286.0 909.1,279.8 916.3,286.0 923.5,286.0 930.8,286.0 938.0,273.7"/><polyline fill="none" stroke="#a855f7" stroke-width="2.5" stroke-linejoin="round" stroke-linecap="round" points="42.0,286.0 49.2,286.0 56.5,286.0 63.7,286.0 70.9,286.0 78.1,286.0 85.4,286.0 92.6,286.0 99.8,286.0 107.0,286.0 114.3,286.0 121.5,286.0 128.7,286.0 135.9,286.0 143.2,286.0 150.4,286.0 157.6,286.0 164.8,286.0 172.1,286.0 179.3,286.0 186.5,286.0 193.7,286.0 201.0,286.0 208.2,286.0 215.4,286.0 222.6,286.0 229.9,286.0 237.1,286.0 244.3,286.0 251.5,286.0 258.8,286.0 266.0,286.0 273.2,286.0 280.5,286.0 287.7,286.0 294.9,286.0 302.1,286.0 309.4,286.0 316.6,286.0 323.8,286.0 331.0,286.0 338.3,286.0 345.5,286.0 352.7,286.0 359.9,286.0 367.2,286.0 374.4,286.0 381.6,286.0 388.8,286.0 396.1,286.0 403.3,286.0 410.5,286.0 417.7,279.8 425.0,286.0 432.2,286.0 439.4,286.0 446.6,286.0 453.9,286.0 461.1,286.0 468.3,286.0 475.5,286.0 482.8,286.0 490.0,286.0 497.2,286.0 504.5,286.0 511.7,286.0 518.9,286.0 526.1,286.0 533.4,286.0 540.6,286.0 547.8,286.0 555.0,286.0 562.3,286.0 569.5,286.0 576.7,286.0 583.9,286.0 591.2,286.0 598.4,286.0 605.6,286.0 612.8,286.0 620.1,286.0 627.3,286.0 634.5,286.0 641.7,286.0 649.0,286.0 656.2,286.0 663.4,286.0 670.6,286.0 677.9,286.0 685.1,286.0 692.3,286.0 699.5,286.0 706.8,286.0 714.0,286.0 721.2,286.0 728.5,286.0 735.7,286.0 742.9,286.0 750.1,286.0 757.4,279.8 764.6,286.0 771.8,286.0 779.0,286.0 786.3,286.0 793.5,286.0 800.7,286.0 807.9,286.0 815.2,286.0 822.4,286.0 829.6,286.0 836.8,286.0 844.1,286.0 851.3,286.0 858.5,286.0 865.7,286.0 873.0,286.0 880.2,286.0 887.4,286.0 894.6,286.0 901.9,279.8 909.1,286.0 916.3,286.0 923.5,286.0 930.8,286.0 938.0,286.0"/><text x="42" y="308" font-size="11" fill="#5a688a">19/06 15:39</text><text x="938" y="308" text-anchor="end" font-size="11" fill="#5a688a">21/07 19:30</text></svg>