<svg xmlns="http://www.w3.org/2000/svg" viewBox="0 0 960 320" width="960" height="320" font-family="Segoe UI, system-ui, -apple-system, Roboto, Helvetica, Arial, sans-serif" role="img" aria-label="Availability history per region"><rect x="0.5" y="0.5" width="959" height="319" rx="14" fill="#ffffff" stroke="#dce3f1"/><text x="42" y="26" font-size="14" font-weight="600" fill="#14203a">History · 119 points</text><circle cx="47" cy="40" r="5" fill="#22c55e"/><text x="57" y="44" font-size="12" fill="#5a688a">Available</text><circle cx="139.8" cy="40" r="5" fill="#f59e0b"/><text x="149.8" y="44" font-size="12" fill="#5a688a">Saturated</text><circle cx="232.60000000000002" cy="40" r="5" fill="#ef4444"/><text x="242.60000000000002" y="44" font-size="12" fill="#5a688a">Error</text><circle cx="296.6" cy="40" r="5" fill="#a855f7"/><text x="306.6" y="44" font-size="12" fill="#5a688a">Timeout</text><line x1="42" y1="286.0" x2="938" y2="286.0" stroke="#eef2f7" stroke-width="1"/><text x="35" y="289.0" text-anchor="end" font-size="11" fill="#5a688a">0</text><line x1="42" y1="227.5" x2="938" y2="227.5" stroke="#eef2f7" stroke-width="1"/><text x="35" y="230.5" text-anchor="end" font-size="11" fill="#5a688a">10</text><line x1="42" y1="169.0" x2="938" y2="169.0" stroke="#eef2f7" stroke-width="1"/><text x="35" y="172.0" text-anchor="end" font-size="11" fill="#5a688a">19</text><line x1="42" y1="110.5" x2="938" y2="110.5" stroke="#eef2f7" stroke-width="1"/><text x="35" y="113.5" text-anchor="end" font-size="11" fill="#5a688a">28</text><line x1="42" y1="52.0" x2="938" y2="52.0" stroke="#eef2f7" stroke-width="1"/><text x="35" y="55.0" text-anchor="end" font-size="11" fill="#5a688a">38</text><polyline fill="none" stroke="#22c55e" stroke-width="2.5" stroke-linejoin="round" stroke-linecap="round" points="42.0,64.3 49.6,224.4 57.2,82.8 64.8,88.9 72.4,82.8 80.0,76.6 87.6,76.6 95.2,76.6 102.7,76.6 110.3,76.6 117.9,76.6 125.5,76.6 133.1,76.6 140.7,76.6 148.3,76.6 155.9,70.5 163.5,70.5 171.1,82.8 178.7,82.8 186.3,82.8 193.9,88.9 201.5,88.9 209.1,88.9 216.6,88.9 224.2,88.9 231.8,88.9 239.4,88.9 247.0,88.9 254.6,88.9 262.2,82.8 269.8,82.8 277.4,82.8 285.0,82.8 292.6,76.6 300.2,76.6 307.8,76.6 315.4,76.6 322.9,76.6 330.5,82.8 338.1,82.8 345.7,82.8 353.3,82.8 360.9,76.6 368.5,76.6 376.1,76.6 383.7,76.6 391.3,76.6 398.9,76.6 406.5,76.6 414.1,82.8 421.7,82.8 429.3,82.8 436.8,82.8 444.4,76.6 452.0,76.6 459.6,76.6 467.2,76.6 474.8,76.6 482.4,76.6 490.0,76.6 497.6,76.6 505.2,82.8 512.8,76.6 520.4,76.6 528.0,76.6 535.6,76.6 543.2,76.6 550.7,82.8 558.3,76.6 565.9,76.6 573.5,76.6 581.1,76.6 588.7,76.6 596.3,76.6 603.9,76.6 611.5,76.6 619.1,76.6 626.7,70.5 634.3,70.5 641.9,70.5 649.5,70.5 657.1,76.6 664.6,70.5 672.2,76.6 679.8,76.6 687.4,76.6 695.0,76.6 702.6,76.6 710.2,76.6 717.8,82.8 725.4,88.9 733.0,88.9 740.6,88.9 748.2,88.9 755.8,88.9 763.4,88.9 770.9,88.9 778.5,95.1 786.1,88.9 793.7,88.9 801.3,88.9 808.9,88.9 816.5,88.9 824.1,88.9 831.7,82.8 839.3,82.8 846.9,82.8 854.5,82.8 862.1,82.8 869.7,82.8 877.3,82.8 884.8,82.8 892.4,88.9 900.0,88.9 907.6,88.9 915.2,88.9 922.8,88.9 930.4,88.9 938.0,88.9"/><polyline fill="none" stroke="#f59e0b" stroke-width="2.5" stroke-linejoin="round" stroke-linecap="round" points="42.0,273.7 49.6,267.5 57.2,255.2 64.8,249.1 72.4,255.2 80.0,261.4 87.6,261.4 95.2,261.4 102.7,261.4 110.3,261.4 117.9,261.4 125.5,261.4 133.1,261.4 140.7,261.4 148.3,261.4 155.9,267.5 163.5,267.5 171.1,261.4 178.7,255.2 186.3,255.2 193.9,249.1 201.5,249.1 209.1,249.1 216.6,249.1 224.2,249.1 231.8,249.1 239.4,249.1 247.0,249.1 254.6,249.1 262.2,255.2 269.8,255.2 277.4,255.2 285.0,255.2 292.6,261.4 300.2,261.4 307.8,261.4 315.4,261.4 322.9,261.4 330.5,255.2 338.1,255.2 345.7,255.2 353.3,255.2 360.9,261.4 368.5,261.4 376.1,261.4 383.7,261.4 391.3,261.4 398.9,261.4 406.5,261.4 414.1,255.2 421.7,255.2 429.3,255.2 436.8,261.4 444.4,261.4 452.0,261.4 459.6,261.4 467.2,261.4 474.8,261.4 482.4,261.4 490.0,261.4 497.6,261.4 505.2,255.2 512.8,261.4 520.4,261.4 528.0,261.4 535.6,261.4 543.2,261.4 550.7,261.4 558.3,261.4 565.9,261.4 573.5,261.4 581.1,261.4 588.7,261.4 596.3,261.4 603.9,261.4 611.5,261.4 619.1,261.4 626.7,267.5 634.3,267.5 641.9,267.5 649.5,267.5 657.1,267.5 664.6,267.5 672.2,261.4 679.8,261.4 687.4,261.4 695.0,261.4 702.6,261.4 710.2,261.4 717.8,255.2 725.4,249.1 733.0,249.1 740.6,255.2 748.2,249.1 755.8,249.1 763.4,249.1 770.9,249.1 778.5,249.1 786.1,249.1 793.7,255.2 801.3,249.1 808.9,249.1 816.5,249.1 824.1,249.1 831.7,255.2 839.3,255.2 846.9,255.2 854.5,255.2 862.1,255.2 869.7,255.2 877.3,255.2 884.8,255.2 892.4,249.1 900.0,249.1 907.6,249.1 915.2,249.1 922.8,249.1 930.4,249.1 938.0,249.1"/><polyline fill="none" stroke="#ef4444" stroke-width="2.5" stroke-linejoin="round" stroke-linecap="round" points="42.0,286.0 49.6,132.1 57.2,286.0 64.8,286.0 72.4,286.0 80.0,286.0 87.6,286.0 95.2,286.0 102.7,286.0 110.3,286.0 117.9,286.0 125.5,286.0 133.1,286.0 140.7,286.0 148.3,286.0 155.9,286.0 163.5,286.0 171.1,279.8 178.7,286.0 186.3,286.0 193.9,286.0 201.5,286.0 209.1,286.0 216.6,286.0 224.2,286.0 231.8,286.0 239.4,286.0 247.0,286.0 254.6,286.0 262.2,286.0 269.8,286.0 277.4,286.0 285.0,286.0 292.6,286.0 300.2,286.0 307.8,286.0 315.4,286.0 322.9,286.0 330.5,286.0 338.1,286.0 345.7,286.0 353.3,286.0 360.9,286.0 368.5,286.0 376.1,286.0 383.7,286.0 391.3,286.0 398.9,286.0 406.5,286.0 414.1,286.0 421.7,286.0 429.3,286.0 436.8,286.0 444.4,286.0 452.0,286.0 459.6,286.0 467.2,286.0 474.8,286.0 482.4,286.0 490.0,286.0 497.6,286.0 505.2,286.0 512.8,286.0 520.4,286.0 528.0,286.0 535.6,286.0 543.2,286.0 550.7,279.8 558.3,286.0 565.9,286.0 573.5,286.0 581.1,286.0 588.7,286.0 596.3,286.0 603.9,286.0 611.5,286.0 619.1,286.0 626.7,286.0 634.3,286.0 641.9,286.0 649.5,286.0 657.1,279.8 664.6,286.0 672.2,286.0 679.8,286.0 687.4,286.0 695.0,286.0 702.6,286.0 710.2,286.0 717.8,286.0 725.4,286.0 733.0,286.0 740.6,279.8 748.2,286.0 755.8,286.0 763.4,286.0 770.9,286.0 778.5,279.8 786.1,286.0 793.7,286.0 801.3,286.0 808.9,286.0 816.5,286.0 824.1,286.0 831.7,286.0 839.3,286.0 846.9,286.0 854.5,286.0 862.1,286.0 869.7,286.0 877.3,286.0 884.8,286.0 892.4,286.0 900.0,286.0 907.6,286.0 915.2,286.0 922.8,286.0 930.4,286.0 938.0,286.0"/><polyline fill="none" stroke="#a855f7" stroke-width="2.5" stroke-linejoin="round" stroke-linecap="round" points="42.0,286.0 49.6,286.0 57.2,286.0 64.8,286.0 72.4,286.0 80.0,286.0 87.6,286.0 95.2,286.0 102.7,286.0 110.3,286.0 117.9,286.0 125.5,286.0 133.1,286.0 140.7,286.0 148.3,286.0 155.9,286.0 163.5,286.0 171.1,286.0 178.7,286.0 186.3,286.0 193.9,286.0 201.5,286.0 209.1,286.0 216.6,286.0 224.2,286.0 231.8,286.0 239.4,286.0 247.0,286.0 254.6,286.0 262.2,286.0 269.8,286.0 277.4,286.0 285.0,286.0 292.6,286.0 300.2,286.0 307.8,286.0 315.4,286.0 322.9,286.0 330.5,286.0 338.1,286.0 345.7,286.0 353.3,286.0 360.9,286.0 368.5,286.0 376.1,286.0 383.7,286.0 391.3,286.0 398.9,286.0 406.5,286.0 414.1,286.0 421.7,286.0 429.3,286.0 436.8,279.8 444.4,286.0 452.0,286.0 459.6,286.0 467.2,286.0 474.8,286.0 482.4,286.0 490.0,286.0 497.6,286.0 505.2,286.0 512.8,286.0 520.4,286.0 528.0,286.0 535.6,286.0 543.2,286.0 550.7,286.0 558.3,286.0 565.9,286.0 573.5,286.0 581.1,286.0 588.7,286.0 596.3,286.0 603.9,286.0 611.5,286.0 619.1,286.0 626.7,286.0 634.3,286.0 641.9,286.0 649.5,286.0 657.1,286.0 664.6,286.0 672.2,286.0 679.8,286.0 687.4,286.0 695.0,286.0 702.6,286.0 710.2,286.0 717.8,286.0 725.4,286.0 733.0,286.0 740.6,286.0 748.2,286.0 755.8,286.0 763.4,286.0 770.9,286.0 778.5,286.0 786.1,286.0 793.7,279.8 801.3,286.0 808.9,286.0 816.5,286.0 824.1,286.0 831.7,286.0 839.3,286.0 846.9,286.0 854.5,286.0 862.1,286.0 869.7,286.0 877.3,286.0 884.8,286.0 892.4,286.0 900.0,286.0 907.6,286.0 915.2,286.0 922.8,286.0 930.4,286.0 938.0,286.0"/><text x="42" y="308" font-size="11" fill="#5a688a">19/06 15:39</text><text x="938" y="308" text-anchor="end" font-size="11" fill="#5a688a">21/07 13:29</text></svg>