<svg xmlns="http://www.w3.org/2000/svg" viewBox="0 0 960 320" width="960" height="320" font-family="Segoe UI, system-ui, -apple-system, Roboto, Helvetica, Arial, sans-serif" role="img" aria-label="Availability history per region"><rect x="0.5" y="0.5" width="959" height="319" rx="14" fill="#0d1117" stroke="#2c3a5e"/><text x="42" y="26" font-size="14" font-weight="600" fill="#e6ecff">History · 336 points</text><circle cx="47" cy="40" r="5" fill="#22c55e"/><text x="57" y="44" font-size="12" fill="#9fb0d4">Available</text><circle cx="139.8" cy="40" r="5" fill="#f59e0b"/><text x="149.8" y="44" font-size="12" fill="#9fb0d4">Saturated</text><circle cx="232.60000000000002" cy="40" r="5" fill="#ef4444"/><text x="242.60000000000002" y="44" font-size="12" fill="#9fb0d4">Error</text><circle cx="296.6" cy="40" r="5" fill="#a855f7"/><text x="306.6" y="44" font-size="12" fill="#9fb0d4">Timeout</text><line x1="42" y1="286.0" x2="938" y2="286.0" stroke="#21304f" stroke-width="1"/><text x="35" y="289.0" text-anchor="end" font-size="11" fill="#9fb0d4">0</text><line x1="42" y1="227.5" x2="938" y2="227.5" stroke="#21304f" stroke-width="1"/><text x="35" y="230.5" text-anchor="end" font-size="11" fill="#9fb0d4">10</text><line x1="42" y1="169.0" x2="938" y2="169.0" stroke="#21304f" stroke-width="1"/><text x="35" y="172.0" text-anchor="end" font-size="11" fill="#9fb0d4">19</text><line x1="42" y1="110.5" x2="938" y2="110.5" stroke="#21304f" stroke-width="1"/><text x="35" y="113.5" text-anchor="end" font-size="11" fill="#9fb0d4">28</text><line x1="42" y1="52.0" x2="938" y2="52.0" stroke="#21304f" stroke-width="1"/><text x="35" y="55.0" text-anchor="end" font-size="11" fill="#9fb0d4">38</text><polyline fill="none" stroke="#22c55e" stroke-width="2.5" stroke-linejoin="round" stroke-linecap="round" points="42.0,82.8 44.7,88.9 47.3,88.9 50.0,82.8 52.7,82.8 55.4,82.8 58.0,88.9 60.7,88.9 63.4,101.3 66.1,88.9 68.7,88.9 71.4,88.9 74.1,88.9 76.8,82.8 79.4,82.8 82.1,76.6 84.8,70.5 87.5,70.5 90.1,70.5 92.8,70.5 95.5,70.5 98.2,70.5 100.8,64.3 103.5,64.3 106.2,64.3 108.9,70.5 111.5,82.8 114.2,76.6 116.9,64.3 119.6,64.3 122.2,64.3 124.9,70.5 127.6,70.5 130.3,70.5 132.9,76.6 135.6,64.3 138.3,70.5 141.0,58.2 143.6,64.3 146.3,52.0 149.0,52.0 151.7,52.0 154.3,52.0 157.0,52.0 159.7,58.2 162.4,52.0 165.0,58.2 167.7,52.0 170.4,52.0 173.1,52.0 175.7,52.0 178.4,58.2 181.1,58.2 183.8,58.2 186.4,70.5 189.1,64.3 191.8,76.6 194.5,64.3 197.1,70.5 199.8,52.0 202.5,58.2 205.2,52.0 207.8,58.2 210.5,52.0 213.2,52.0 215.9,52.0 218.5,58.2 221.2,64.3 223.9,58.2 226.5,58.2 229.2,58.2 231.9,64.3 234.6,64.3 237.2,58.2 239.9,64.3 242.6,64.3 245.3,64.3 247.9,52.0 250.6,52.0 253.3,52.0 256.0,52.0 258.6,52.0 261.3,58.2 264.0,52.0 266.7,52.0 269.3,52.0 272.0,52.0 274.7,52.0 277.4,52.0 280.0,52.0 282.7,52.0 285.4,58.2 288.1,52.0 290.7,52.0 293.4,52.0 296.1,52.0 298.8,52.0 301.4,52.0 304.1,52.0 306.8,58.2 309.5,52.0 312.1,52.0 314.8,52.0 317.5,52.0 320.2,52.0 322.8,52.0 325.5,52.0 328.2,52.0 330.9,52.0 333.5,52.0 336.2,52.0 338.9,52.0 341.6,52.0 344.2,52.0 346.9,52.0 349.6,52.0 352.3,52.0 354.9,52.0 357.6,52.0 360.3,58.2 363.0,58.2 365.6,52.0 368.3,52.0 371.0,52.0 373.7,58.2 376.3,58.2 379.0,70.5 381.7,58.2 384.4,58.2 387.0,64.3 389.7,52.0 392.4,52.0 395.1,52.0 397.7,52.0 400.4,52.0 403.1,52.0 405.7,64.3 408.4,58.2 411.1,58.2 413.8,58.2 416.4,58.2 419.1,64.3 421.8,64.3 424.5,70.5 427.1,70.5 429.8,76.6 432.5,82.8 435.2,76.6 437.8,76.6 440.5,82.8 443.2,76.6 445.9,70.5 448.5,70.5 451.2,64.3 453.9,58.2 456.6,58.2 459.2,70.5 461.9,70.5 464.6,64.3 467.3,70.5 469.9,64.3 472.6,64.3 475.3,64.3 478.0,76.6 480.6,64.3 483.3,70.5 486.0,64.3 488.7,70.5 491.3,64.3 494.0,70.5 496.7,64.3 499.4,64.3 502.0,76.6 504.7,70.5 507.4,70.5 510.1,70.5 512.7,70.5 515.4,70.5 518.1,64.3 520.8,70.5 523.4,64.3 526.1,64.3 528.8,64.3 531.5,70.5 534.1,70.5 536.8,70.5 539.5,64.3 542.2,64.3 544.8,64.3 547.5,64.3 550.2,70.5 552.9,70.5 555.5,70.5 558.2,76.6 560.9,70.5 563.6,76.6 566.2,76.6 568.9,76.6 571.6,82.8 574.3,76.6 576.9,76.6 579.6,76.6 582.3,70.5 584.9,70.5 587.6,70.5 590.3,70.5 593.0,70.5 595.6,64.3 598.3,64.3 601.0,64.3 603.7,70.5 606.3,76.6 609.0,64.3 611.7,64.3 614.4,64.3 617.0,70.5 619.7,70.5 622.4,70.5 625.1,76.6 627.7,76.6 630.4,76.6 633.1,82.8 635.8,88.9 638.4,82.8 641.1,82.8 643.8,76.6 646.5,70.5 649.1,76.6 651.8,82.8 654.5,76.6 657.2,70.5 659.8,70.5 662.5,64.3 665.2,64.3 667.9,64.3 670.5,64.3 673.2,64.3 675.9,64.3 678.6,64.3 681.2,64.3 683.9,64.3 686.6,64.3 689.3,64.3 691.9,64.3 694.6,64.3 697.3,58.2 700.0,70.5 702.6,64.3 705.3,58.2 708.0,64.3 710.7,64.3 713.3,64.3 716.0,64.3 718.7,64.3 721.4,58.2 724.0,58.2 726.7,58.2 729.4,58.2 732.1,58.2 734.7,64.3 737.4,58.2 740.1,58.2 742.8,58.2 745.4,58.2 748.1,58.2 750.8,58.2 753.5,64.3 756.1,64.3 758.8,58.2 761.5,58.2 764.1,58.2 766.8,64.3 769.5,58.2 772.2,58.2 774.8,58.2 777.5,58.2 780.2,58.2 782.9,58.2 785.5,58.2 788.2,58.2 790.9,58.2 793.6,58.2 796.2,58.2 798.9,58.2 801.6,58.2 804.3,64.3 806.9,70.5 809.6,70.5 812.3,70.5 815.0,76.6 817.6,76.6 820.3,76.6 823.0,82.8 825.7,82.8 828.3,76.6 831.0,76.6 833.7,82.8 836.4,82.8 839.0,76.6 841.7,70.5 844.4,76.6 847.1,70.5 849.7,76.6 852.4,70.5 855.1,70.5 857.8,70.5 860.4,70.5 863.1,76.6 865.8,76.6 868.5,76.6 871.1,82.8 873.8,82.8 876.5,82.8 879.2,82.8 881.8,82.8 884.5,82.8 887.2,76.6 889.9,82.8 892.5,82.8 895.2,82.8 897.9,88.9 900.6,82.8 903.2,76.6 905.9,76.6 908.6,76.6 911.3,76.6 913.9,76.6 916.6,82.8 919.3,76.6 922.0,76.6 924.6,76.6 927.3,76.6 930.0,76.6 932.7,76.6 935.3,82.8 938.0,82.8"/><polyline fill="none" stroke="#f59e0b" stroke-width="2.5" stroke-linejoin="round" stroke-linecap="round" points="42.0,267.5 44.7,261.4 47.3,261.4 50.0,267.5 52.7,267.5 55.4,267.5 58.0,261.4 60.7,261.4 63.4,273.7 66.1,261.4 68.7,261.4 71.4,261.4 74.1,261.4 76.8,267.5 79.4,267.5 82.1,273.7 84.8,279.8 87.5,279.8 90.1,279.8 92.8,279.8 95.5,279.8 98.2,279.8 100.8,286.0 103.5,286.0 106.2,286.0 108.9,279.8 111.5,273.7 114.2,273.7 116.9,279.8 119.6,273.7 122.2,273.7 124.9,267.5 127.6,267.5 130.3,267.5 132.9,267.5 135.6,279.8 138.3,273.7 141.0,279.8 143.6,279.8 146.3,286.0 149.0,286.0 151.7,286.0 154.3,286.0 157.0,286.0 159.7,286.0 162.4,286.0 165.0,286.0 167.7,286.0 170.4,286.0 173.1,286.0 175.7,286.0 178.4,279.8 181.1,279.8 183.8,279.8 186.4,267.5 189.1,279.8 191.8,267.5 194.5,273.7 197.1,273.7 199.8,286.0 202.5,279.8 205.2,286.0 207.8,279.8 210.5,286.0 213.2,286.0 215.9,286.0 218.5,279.8 221.2,273.7 223.9,279.8 226.5,279.8 229.2,279.8 231.9,273.7 234.6,273.7 237.2,279.8 239.9,279.8 242.6,279.8 245.3,279.8 247.9,286.0 250.6,286.0 253.3,286.0 256.0,286.0 258.6,286.0 261.3,286.0 264.0,286.0 266.7,286.0 269.3,286.0 272.0,286.0 274.7,286.0 277.4,286.0 280.0,286.0 282.7,286.0 285.4,286.0 288.1,286.0 290.7,286.0 293.4,286.0 296.1,286.0 298.8,286.0 301.4,286.0 304.1,286.0 306.8,286.0 309.5,286.0 312.1,286.0 314.8,286.0 317.5,286.0 320.2,286.0 322.8,286.0 325.5,286.0 328.2,286.0 330.9,286.0 333.5,286.0 336.2,286.0 338.9,286.0 341.6,286.0 344.2,286.0 346.9,286.0 349.6,286.0 352.3,286.0 354.9,286.0 357.6,286.0 360.3,286.0 363.0,286.0 365.6,286.0 368.3,286.0 371.0,286.0 373.7,279.8 376.3,279.8 379.0,279.8 381.7,279.8 384.4,279.8 387.0,273.7 389.7,286.0 392.4,286.0 395.1,286.0 397.7,286.0 400.4,286.0 403.1,286.0 405.7,286.0 408.4,279.8 411.1,279.8 413.8,279.8 416.4,279.8 419.1,273.7 421.8,273.7 424.5,267.5 427.1,267.5 429.8,261.4 432.5,261.4 435.2,261.4 437.8,261.4 440.5,261.4 443.2,267.5 445.9,267.5 448.5,267.5 451.2,273.7 453.9,279.8 456.6,279.8 459.2,267.5 461.9,267.5 464.6,273.7 467.3,267.5 469.9,273.7 472.6,273.7 475.3,273.7 478.0,273.7 480.6,273.7 483.3,267.5 486.0,273.7 488.7,267.5 491.3,273.7 494.0,267.5 496.7,273.7 499.4,273.7 502.0,261.4 504.7,267.5 507.4,267.5 510.1,267.5 512.7,267.5 515.4,267.5 518.1,273.7 520.8,267.5 523.4,273.7 526.1,273.7 528.8,273.7 531.5,267.5 534.1,267.5 536.8,267.5 539.5,273.7 542.2,273.7 544.8,273.7 547.5,273.7 550.2,267.5 552.9,267.5 555.5,267.5 558.2,267.5 560.9,267.5 563.6,261.4 566.2,261.4 568.9,261.4 571.6,261.4 574.3,261.4 576.9,261.4 579.6,261.4 582.3,267.5 584.9,267.5 587.6,267.5 590.3,267.5 593.0,267.5 595.6,273.7 598.3,273.7 601.0,273.7 603.7,267.5 606.3,267.5 609.0,273.7 611.7,273.7 614.4,273.7 617.0,267.5 619.7,267.5 622.4,267.5 625.1,261.4 627.7,261.4 630.4,261.4 633.1,255.2 635.8,255.2 638.4,255.2 641.1,261.4 643.8,261.4 646.5,267.5 649.1,261.4 651.8,261.4 654.5,261.4 657.2,267.5 659.8,267.5 662.5,273.7 665.2,273.7 667.9,273.7 670.5,273.7 673.2,273.7 675.9,273.7 678.6,273.7 681.2,273.7 683.9,273.7 686.6,273.7 689.3,273.7 691.9,273.7 694.6,273.7 697.3,279.8 700.0,273.7 702.6,273.7 705.3,279.8 708.0,273.7 710.7,273.7 713.3,273.7 716.0,273.7 718.7,273.7 721.4,279.8 724.0,279.8 726.7,279.8 729.4,279.8 732.1,279.8 734.7,273.7 737.4,279.8 740.1,279.8 742.8,279.8 745.4,279.8 748.1,279.8 750.8,279.8 753.5,273.7 756.1,273.7 758.8,279.8 761.5,279.8 764.1,279.8 766.8,279.8 769.5,279.8 772.2,279.8 774.8,279.8 777.5,279.8 780.2,279.8 782.9,279.8 785.5,279.8 788.2,279.8 790.9,279.8 793.6,279.8 796.2,279.8 798.9,279.8 801.6,279.8 804.3,273.7 806.9,273.7 809.6,267.5 812.3,267.5 815.0,261.4 817.6,261.4 820.3,261.4 823.0,255.2 825.7,255.2 828.3,261.4 831.0,261.4 833.7,255.2 836.4,255.2 839.0,267.5 841.7,267.5 844.4,261.4 847.1,267.5 849.7,261.4 852.4,267.5 855.1,267.5 857.8,267.5 860.4,267.5 863.1,267.5 865.8,267.5 868.5,261.4 871.1,255.2 873.8,255.2 876.5,255.2 879.2,255.2 881.8,255.2 884.5,255.2 887.2,261.4 889.9,255.2 892.5,255.2 895.2,255.2 897.9,255.2 900.6,255.2 903.2,261.4 905.9,261.4 908.6,261.4 911.3,261.4 913.9,261.4 916.6,261.4 919.3,261.4 922.0,261.4 924.6,261.4 927.3,261.4 930.0,261.4 932.7,261.4 935.3,255.2 938.0,255.2"/><polyline fill="none" stroke="#ef4444" stroke-width="2.5" stroke-linejoin="round" stroke-linecap="round" points="42.0,273.7 44.7,273.7 47.3,273.7 50.0,273.7 52.7,273.7 55.4,273.7 58.0,273.7 60.7,273.7 63.4,249.1 66.1,273.7 68.7,273.7 71.4,273.7 74.1,273.7 76.8,273.7 79.4,273.7 82.1,273.7 84.8,273.7 87.5,273.7 90.1,273.7 92.8,273.7 95.5,273.7 98.2,273.7 100.8,273.7 103.5,273.7 106.2,273.7 108.9,273.7 111.5,267.5 114.2,273.7 116.9,279.8 119.6,286.0 122.2,286.0 124.9,286.0 127.6,286.0 130.3,286.0 132.9,279.8 135.6,279.8 138.3,286.0 141.0,286.0 143.6,279.8 146.3,286.0 149.0,286.0 151.7,286.0 154.3,286.0 157.0,286.0 159.7,279.8 162.4,286.0 165.0,286.0 167.7,286.0 170.4,286.0 173.1,286.0 175.7,286.0 178.4,286.0 181.1,286.0 183.8,286.0 186.4,286.0 189.1,279.8 191.8,279.8 194.5,286.0 197.1,279.8 199.8,286.0 202.5,286.0 205.2,286.0 207.8,286.0 210.5,286.0 213.2,286.0 215.9,286.0 218.5,286.0 221.2,286.0 223.9,286.0 226.5,286.0 229.2,286.0 231.9,286.0 234.6,286.0 237.2,286.0 239.9,279.8 242.6,286.0 245.3,279.8 247.9,286.0 250.6,286.0 253.3,286.0 256.0,286.0 258.6,286.0 261.3,286.0 264.0,286.0 266.7,286.0 269.3,286.0 272.0,286.0 274.7,286.0 277.4,286.0 280.0,286.0 282.7,286.0 285.4,279.8 288.1,286.0 290.7,286.0 293.4,286.0 296.1,286.0 298.8,286.0 301.4,286.0 304.1,286.0 306.8,286.0 309.5,286.0 312.1,286.0 314.8,286.0 317.5,286.0 320.2,286.0 322.8,286.0 325.5,286.0 328.2,286.0 330.9,286.0 333.5,286.0 336.2,286.0 338.9,286.0 341.6,286.0 344.2,286.0 346.9,286.0 349.6,286.0 352.3,286.0 354.9,286.0 357.6,286.0 360.3,279.8 363.0,279.8 365.6,286.0 368.3,286.0 371.0,286.0 373.7,286.0 376.3,286.0 379.0,273.7 381.7,286.0 384.4,286.0 387.0,286.0 389.7,286.0 392.4,286.0 395.1,286.0 397.7,286.0 400.4,286.0 403.1,286.0 405.7,286.0 408.4,286.0 411.1,286.0 413.8,286.0 416.4,286.0 419.1,286.0 421.8,286.0 424.5,286.0 427.1,286.0 429.8,286.0 432.5,279.8 435.2,286.0 437.8,286.0 440.5,279.8 443.2,279.8 445.9,286.0 448.5,286.0 451.2,286.0 453.9,286.0 456.6,286.0 459.2,286.0 461.9,286.0 464.6,286.0 467.3,286.0 469.9,286.0 472.6,286.0 475.3,286.0 478.0,273.7 480.6,286.0 483.3,286.0 486.0,286.0 488.7,286.0 491.3,286.0 494.0,286.0 496.7,286.0 499.4,286.0 502.0,286.0 504.7,286.0 507.4,286.0 510.1,286.0 512.7,286.0 515.4,286.0 518.1,286.0 520.8,286.0 523.4,286.0 526.1,286.0 528.8,286.0 531.5,286.0 534.1,286.0 536.8,286.0 539.5,286.0 542.2,286.0 544.8,286.0 547.5,286.0 550.2,286.0 552.9,286.0 555.5,286.0 558.2,279.8 560.9,286.0 563.6,286.0 566.2,286.0 568.9,286.0 571.6,279.8 574.3,286.0 576.9,286.0 579.6,286.0 582.3,286.0 584.9,286.0 587.6,286.0 590.3,286.0 593.0,286.0 595.6,286.0 598.3,286.0 601.0,286.0 603.7,286.0 606.3,279.8 609.0,286.0 611.7,286.0 614.4,286.0 617.0,286.0 619.7,286.0 622.4,286.0 625.1,286.0 627.7,286.0 630.4,286.0 633.1,286.0 635.8,279.8 638.4,286.0 641.1,279.8 643.8,286.0 646.5,286.0 649.1,286.0 651.8,279.8 654.5,286.0 657.2,286.0 659.8,286.0 662.5,286.0 665.2,286.0 667.9,286.0 670.5,286.0 673.2,286.0 675.9,286.0 678.6,286.0 681.2,286.0 683.9,286.0 686.6,286.0 689.3,286.0 691.9,286.0 694.6,286.0 697.3,286.0 700.0,279.8 702.6,286.0 705.3,286.0 708.0,286.0 710.7,286.0 713.3,286.0 716.0,286.0 718.7,286.0 721.4,286.0 724.0,286.0 726.7,286.0 729.4,286.0 732.1,286.0 734.7,286.0 737.4,286.0 740.1,286.0 742.8,286.0 745.4,286.0 748.1,286.0 750.8,286.0 753.5,286.0 756.1,286.0 758.8,286.0 761.5,286.0 764.1,286.0 766.8,286.0 769.5,286.0 772.2,286.0 774.8,286.0 777.5,286.0 780.2,286.0 782.9,286.0 785.5,286.0 788.2,286.0 790.9,286.0 793.6,286.0 796.2,286.0 798.9,286.0 801.6,286.0 804.3,286.0 806.9,279.8 809.6,286.0 812.3,286.0 815.0,286.0 817.6,286.0 820.3,286.0 823.0,286.0 825.7,286.0 828.3,286.0 831.0,286.0 833.7,286.0 836.4,286.0 839.0,279.8 841.7,286.0 844.4,286.0 847.1,286.0 849.7,286.0 852.4,286.0 855.1,286.0 857.8,286.0 860.4,286.0 863.1,286.0 865.8,279.8 868.5,286.0 871.1,286.0 873.8,286.0 876.5,286.0 879.2,286.0 881.8,286.0 884.5,286.0 887.2,286.0 889.9,286.0 892.5,286.0 895.2,286.0 897.9,279.8 900.6,286.0 903.2,286.0 905.9,286.0 908.6,286.0 911.3,286.0 913.9,286.0 916.6,279.8 919.3,286.0 922.0,286.0 924.6,286.0 927.3,286.0 930.0,286.0 932.7,286.0 935.3,286.0 938.0,286.0"/><polyline fill="none" stroke="#a855f7" stroke-width="2.5" stroke-linejoin="round" stroke-linecap="round" points="42.0,286.0 44.7,286.0 47.3,286.0 50.0,286.0 52.7,286.0 55.4,286.0 58.0,286.0 60.7,286.0 63.4,286.0 66.1,286.0 68.7,286.0 71.4,286.0 74.1,286.0 76.8,286.0 79.4,286.0 82.1,286.0 84.8,286.0 87.5,286.0 90.1,286.0 92.8,286.0 95.5,286.0 98.2,286.0 100.8,286.0 103.5,286.0 106.2,286.0 108.9,286.0 111.5,286.0 114.2,286.0 116.9,286.0 119.6,286.0 122.2,286.0 124.9,286.0 127.6,286.0 130.3,286.0 132.9,286.0 135.6,286.0 138.3,279.8 141.0,286.0 143.6,286.0 146.3,286.0 149.0,286.0 151.7,286.0 154.3,286.0 157.0,286.0 159.7,286.0 162.4,286.0 165.0,279.8 167.7,286.0 170.4,286.0 173.1,286.0 175.7,286.0 178.4,286.0 181.1,286.0 183.8,286.0 186.4,286.0 189.1,286.0 191.8,286.0 194.5,286.0 197.1,286.0 199.8,286.0 202.5,286.0 205.2,286.0 207.8,286.0 210.5,286.0 213.2,286.0 215.9,286.0 218.5,286.0 221.2,286.0 223.9,286.0 226.5,286.0 229.2,286.0 231.9,286.0 234.6,286.0 237.2,286.0 239.9,286.0 242.6,279.8 245.3,286.0 247.9,286.0 250.6,286.0 253.3,286.0 256.0,286.0 258.6,286.0 261.3,279.8 264.0,286.0 266.7,286.0 269.3,286.0 272.0,286.0 274.7,286.0 277.4,286.0 280.0,286.0 282.7,286.0 285.4,286.0 288.1,286.0 290.7,286.0 293.4,286.0 296.1,286.0 298.8,286.0 301.4,286.0 304.1,286.0 306.8,279.8 309.5,286.0 312.1,286.0 314.8,286.0 317.5,286.0 320.2,286.0 322.8,286.0 325.5,286.0 328.2,286.0 330.9,286.0 333.5,286.0 336.2,286.0 338.9,286.0 341.6,286.0 344.2,286.0 346.9,286.0 349.6,286.0 352.3,286.0 354.9,286.0 357.6,286.0 360.3,286.0 363.0,286.0 365.6,286.0 368.3,286.0 371.0,286.0 373.7,286.0 376.3,286.0 379.0,286.0 381.7,286.0 384.4,286.0 387.0,286.0 389.7,286.0 392.4,286.0 395.1,286.0 397.7,286.0 400.4,286.0 403.1,286.0 405.7,273.7 408.4,286.0 411.1,286.0 413.8,286.0 416.4,286.0 419.1,286.0 421.8,286.0 424.5,286.0 427.1,286.0 429.8,286.0 432.5,286.0 435.2,286.0 437.8,286.0 440.5,286.0 443.2,286.0 445.9,286.0 448.5,286.0 451.2,286.0 453.9,286.0 456.6,286.0 459.2,286.0 461.9,286.0 464.6,286.0 467.3,286.0 469.9,286.0 472.6,286.0 475.3,286.0 478.0,286.0 480.6,286.0 483.3,286.0 486.0,286.0 488.7,286.0 491.3,286.0 494.0,286.0 496.7,286.0 499.4,286.0 502.0,286.0 504.7,286.0 507.4,286.0 510.1,286.0 512.7,286.0 515.4,286.0 518.1,286.0 520.8,286.0 523.4,286.0 526.1,286.0 528.8,286.0 531.5,286.0 534.1,286.0 536.8,286.0 539.5,286.0 542.2,286.0 544.8,286.0 547.5,286.0 550.2,286.0 552.9,286.0 555.5,286.0 558.2,286.0 560.9,286.0 563.6,286.0 566.2,286.0 568.9,286.0 571.6,286.0 574.3,286.0 576.9,286.0 579.6,286.0 582.3,286.0 584.9,286.0 587.6,286.0 590.3,286.0 593.0,286.0 595.6,286.0 598.3,286.0 601.0,286.0 603.7,286.0 606.3,286.0 609.0,286.0 611.7,286.0 614.4,286.0 617.0,286.0 619.7,286.0 622.4,286.0 625.1,286.0 627.7,286.0 630.4,286.0 633.1,286.0 635.8,286.0 638.4,286.0 641.1,286.0 643.8,286.0 646.5,286.0 649.1,286.0 651.8,286.0 654.5,286.0 657.2,286.0 659.8,286.0 662.5,286.0 665.2,286.0 667.9,286.0 670.5,286.0 673.2,286.0 675.9,286.0 678.6,286.0 681.2,286.0 683.9,286.0 686.6,286.0 689.3,286.0 691.9,286.0 694.6,286.0 697.3,286.0 700.0,286.0 702.6,286.0 705.3,286.0 708.0,286.0 710.7,286.0 713.3,286.0 716.0,286.0 718.7,286.0 721.4,286.0 724.0,286.0 726.7,286.0 729.4,286.0 732.1,286.0 734.7,286.0 737.4,286.0 740.1,286.0 742.8,286.0 745.4,286.0 748.1,286.0 750.8,286.0 753.5,286.0 756.1,286.0 758.8,286.0 761.5,286.0 764.1,286.0 766.8,279.8 769.5,286.0 772.2,286.0 774.8,286.0 777.5,286.0 780.2,286.0 782.9,286.0 785.5,286.0 788.2,286.0 790.9,286.0 793.6,286.0 796.2,286.0 798.9,286.0 801.6,286.0 804.3,286.0 806.9,286.0 809.6,286.0 812.3,286.0 815.0,286.0 817.6,286.0 820.3,286.0 823.0,286.0 825.7,286.0 828.3,286.0 831.0,286.0 833.7,286.0 836.4,286.0 839.0,286.0 841.7,286.0 844.4,286.0 847.1,286.0 849.7,286.0 852.4,286.0 855.1,286.0 857.8,286.0 860.4,286.0 863.1,279.8 865.8,286.0 868.5,286.0 871.1,286.0 873.8,286.0 876.5,286.0 879.2,286.0 881.8,286.0 884.5,286.0 887.2,286.0 889.9,286.0 892.5,286.0 895.2,286.0 897.9,286.0 900.6,286.0 903.2,286.0 905.9,286.0 908.6,286.0 911.3,286.0 913.9,286.0 916.6,286.0 919.3,286.0 922.0,286.0 924.6,286.0 927.3,286.0 930.0,286.0 932.7,286.0 935.3,286.0 938.0,286.0"/><text x="42" y="308" font-size="11" fill="#9fb0d4">30/06 06:33</text><text x="938" y="308" text-anchor="end" font-size="11" fill="#9fb0d4">15/07 08:29</text></svg>