<svg xmlns="http://www.w3.org/2000/svg" viewBox="0 0 960 320" width="960" height="320" font-family="Segoe UI, system-ui, -apple-system, Roboto, Helvetica, Arial, sans-serif" role="img" aria-label="Availability history per region"><rect x="0.5" y="0.5" width="959" height="319" rx="14" fill="#0d1117" stroke="#2c3a5e"/><text x="42" y="26" font-size="14" font-weight="600" fill="#e6ecff">History · 110 points</text><circle cx="47" cy="40" r="5" fill="#22c55e"/><text x="57" y="44" font-size="12" fill="#9fb0d4">Available</text><circle cx="139.8" cy="40" r="5" fill="#f59e0b"/><text x="149.8" y="44" font-size="12" fill="#9fb0d4">Saturated</text><circle cx="232.60000000000002" cy="40" r="5" fill="#ef4444"/><text x="242.60000000000002" y="44" font-size="12" fill="#9fb0d4">Error</text><circle cx="296.6" cy="40" r="5" fill="#a855f7"/><text x="306.6" y="44" font-size="12" fill="#9fb0d4">Timeout</text><line x1="42" y1="286.0" x2="938" y2="286.0" stroke="#21304f" stroke-width="1"/><text x="35" y="289.0" text-anchor="end" font-size="11" fill="#9fb0d4">0</text><line x1="42" y1="227.5" x2="938" y2="227.5" stroke="#21304f" stroke-width="1"/><text x="35" y="230.5" text-anchor="end" font-size="11" fill="#9fb0d4">10</text><line x1="42" y1="169.0" x2="938" y2="169.0" stroke="#21304f" stroke-width="1"/><text x="35" y="172.0" text-anchor="end" font-size="11" fill="#9fb0d4">20</text><line x1="42" y1="110.5" x2="938" y2="110.5" stroke="#21304f" stroke-width="1"/><text x="35" y="113.5" text-anchor="end" font-size="11" fill="#9fb0d4">29</text><line x1="42" y1="52.0" x2="938" y2="52.0" stroke="#21304f" stroke-width="1"/><text x="35" y="55.0" text-anchor="end" font-size="11" fill="#9fb0d4">39</text><polyline fill="none" stroke="#22c55e" stroke-width="2.5" stroke-linejoin="round" stroke-linecap="round" points="42.0,70.0 50.2,70.0 58.4,88.0 66.7,88.0 74.9,76.0 83.1,76.0 91.3,76.0 99.5,70.0 107.8,76.0 116.0,70.0 124.2,64.0 132.4,58.0 140.6,58.0 148.9,58.0 157.1,58.0 165.3,58.0 173.5,58.0 181.7,58.0 190.0,58.0 198.2,58.0 206.4,58.0 214.6,58.0 222.8,58.0 231.1,58.0 239.3,58.0 247.5,58.0 255.7,58.0 263.9,58.0 272.2,58.0 280.4,58.0 288.6,58.0 296.8,70.0 305.0,76.0 313.3,94.0 321.5,64.0 329.7,64.0 337.9,58.0 346.1,58.0 354.4,58.0 362.6,70.0 370.8,76.0 379.0,76.0 387.2,82.0 395.5,82.0 403.7,82.0 411.9,82.0 420.1,76.0 428.3,64.0 436.6,70.0 444.8,70.0 453.0,82.0 461.2,76.0 469.4,76.0 477.7,82.0 485.9,76.0 494.1,76.0 502.3,76.0 510.6,64.0 518.8,64.0 527.0,76.0 535.2,76.0 543.4,76.0 551.7,88.0 559.9,70.0 568.1,64.0 576.3,58.0 584.5,58.0 592.8,70.0 601.0,70.0 609.2,70.0 617.4,76.0 625.6,70.0 633.9,70.0 642.1,70.0 650.3,70.0 658.5,76.0 666.7,82.0 675.0,76.0 683.2,70.0 691.4,70.0 699.6,70.0 707.8,70.0 716.1,76.0 724.3,70.0 732.5,70.0 740.7,70.0 748.9,70.0 757.2,70.0 765.4,70.0 773.6,70.0 781.8,70.0 790.0,70.0 798.3,70.0 806.5,70.0 814.7,70.0 822.9,70.0 831.1,70.0 839.4,70.0 847.6,70.0 855.8,70.0 864.0,70.0 872.2,70.0 880.5,70.0 888.7,70.0 896.9,70.0 905.1,70.0 913.3,70.0 921.6,70.0 929.8,70.0 938.0,70.0"/><polyline fill="none" stroke="#f59e0b" stroke-width="2.5" stroke-linejoin="round" stroke-linecap="round" points="42.0,274.0 50.2,274.0 58.4,274.0 66.7,280.0 74.9,268.0 83.1,268.0 91.3,268.0 99.5,274.0 107.8,274.0 116.0,274.0 124.2,280.0 132.4,286.0 140.6,286.0 148.9,286.0 157.1,286.0 165.3,286.0 173.5,286.0 181.7,286.0 190.0,286.0 198.2,286.0 206.4,286.0 214.6,286.0 222.8,286.0 231.1,286.0 239.3,286.0 247.5,286.0 255.7,286.0 263.9,286.0 272.2,286.0 280.4,286.0 288.6,286.0 296.8,274.0 305.0,280.0 313.3,280.0 321.5,280.0 329.7,280.0 337.9,286.0 346.1,286.0 354.4,286.0 362.6,274.0 370.8,268.0 379.0,268.0 387.2,262.0 395.5,262.0 403.7,262.0 411.9,262.0 420.1,268.0 428.3,280.0 436.6,280.0 444.8,274.0 453.0,262.0 461.2,268.0 469.4,268.0 477.7,262.0 485.9,268.0 494.1,268.0 502.3,268.0 510.6,280.0 518.8,280.0 527.0,268.0 535.2,268.0 543.4,268.0 551.7,262.0 559.9,274.0 568.1,280.0 576.3,286.0 584.5,286.0 592.8,274.0 601.0,274.0 609.2,274.0 617.4,274.0 625.6,274.0 633.9,274.0 642.1,274.0 650.3,274.0 658.5,280.0 666.7,274.0 675.0,280.0 683.2,286.0 691.4,286.0 699.6,286.0 707.8,286.0 716.1,280.0 724.3,286.0 732.5,286.0 740.7,286.0 748.9,286.0 757.2,286.0 765.4,286.0 773.6,286.0 781.8,286.0 790.0,286.0 798.3,286.0 806.5,286.0 814.7,286.0 822.9,286.0 831.1,286.0 839.4,286.0 847.6,286.0 855.8,286.0 864.0,286.0 872.2,286.0 880.5,286.0 888.7,286.0 896.9,286.0 905.1,286.0 913.3,286.0 921.6,286.0 929.8,286.0 938.0,286.0"/><polyline fill="none" stroke="#ef4444" stroke-width="2.5" stroke-linejoin="round" stroke-linecap="round" points="42.0,280.0 50.2,280.0 58.4,268.0 66.7,262.0 74.9,286.0 83.1,286.0 91.3,286.0 99.5,286.0 107.8,280.0 116.0,286.0 124.2,286.0 132.4,286.0 140.6,286.0 148.9,286.0 157.1,286.0 165.3,286.0 173.5,286.0 181.7,286.0 190.0,286.0 198.2,286.0 206.4,286.0 214.6,286.0 222.8,286.0 231.1,286.0 239.3,286.0 247.5,286.0 255.7,286.0 263.9,286.0 272.2,286.0 280.4,286.0 288.6,286.0 296.8,286.0 305.0,274.0 313.3,256.0 321.5,286.0 329.7,286.0 337.9,286.0 346.1,286.0 354.4,286.0 362.6,286.0 370.8,286.0 379.0,286.0 387.2,286.0 395.5,286.0 403.7,286.0 411.9,286.0 420.1,286.0 428.3,286.0 436.6,280.0 444.8,286.0 453.0,286.0 461.2,286.0 469.4,286.0 477.7,286.0 485.9,286.0 494.1,286.0 502.3,286.0 510.6,286.0 518.8,286.0 527.0,286.0 535.2,286.0 543.4,286.0 551.7,280.0 559.9,286.0 568.1,286.0 576.3,286.0 584.5,286.0 592.8,286.0 601.0,286.0 609.2,286.0 617.4,286.0 625.6,286.0 633.9,286.0 642.1,286.0 650.3,286.0 658.5,274.0 666.7,274.0 675.0,274.0 683.2,274.0 691.4,274.0 699.6,274.0 707.8,274.0 716.1,274.0 724.3,274.0 732.5,274.0 740.7,274.0 748.9,274.0 757.2,274.0 765.4,274.0 773.6,274.0 781.8,274.0 790.0,274.0 798.3,274.0 806.5,274.0 814.7,274.0 822.9,274.0 831.1,274.0 839.4,274.0 847.6,274.0 855.8,274.0 864.0,274.0 872.2,274.0 880.5,274.0 888.7,274.0 896.9,274.0 905.1,274.0 913.3,274.0 921.6,274.0 929.8,274.0 938.0,274.0"/><polyline fill="none" stroke="#a855f7" stroke-width="2.5" stroke-linejoin="round" stroke-linecap="round" points="42.0,286.0 50.2,286.0 58.4,286.0 66.7,286.0 74.9,286.0 83.1,286.0 91.3,286.0 99.5,286.0 107.8,286.0 116.0,286.0 124.2,286.0 132.4,286.0 140.6,286.0 148.9,286.0 157.1,286.0 165.3,286.0 173.5,286.0 181.7,286.0 190.0,286.0 198.2,286.0 206.4,286.0 214.6,286.0 222.8,286.0 231.1,286.0 239.3,286.0 247.5,286.0 255.7,286.0 263.9,286.0 272.2,286.0 280.4,286.0 288.6,286.0 296.8,286.0 305.0,286.0 313.3,286.0 321.5,286.0 329.7,286.0 337.9,286.0 346.1,286.0 354.4,286.0 362.6,286.0 370.8,286.0 379.0,286.0 387.2,286.0 395.5,286.0 403.7,286.0 411.9,286.0 420.1,286.0 428.3,286.0 436.6,286.0 444.8,286.0 453.0,286.0 461.2,286.0 469.4,286.0 477.7,286.0 485.9,286.0 494.1,286.0 502.3,286.0 510.6,286.0 518.8,286.0 527.0,286.0 535.2,286.0 543.4,286.0 551.7,286.0 559.9,286.0 568.1,286.0 576.3,286.0 584.5,286.0 592.8,286.0 601.0,286.0 609.2,286.0 617.4,280.0 625.6,286.0 633.9,286.0 642.1,286.0 650.3,286.0 658.5,286.0 666.7,286.0 675.0,286.0 683.2,286.0 691.4,286.0 699.6,286.0 707.8,286.0 716.1,286.0 724.3,286.0 732.5,286.0 740.7,286.0 748.9,286.0 757.2,286.0 765.4,286.0 773.6,286.0 781.8,286.0 790.0,286.0 798.3,286.0 806.5,286.0 814.7,286.0 822.9,286.0 831.1,286.0 839.4,286.0 847.6,286.0 855.8,286.0 864.0,286.0 872.2,286.0 880.5,286.0 888.7,286.0 896.9,286.0 905.1,286.0 913.3,286.0 921.6,286.0 929.8,286.0 938.0,286.0"/><text x="42" y="308" font-size="11" fill="#9fb0d4">19/06 12:43</text><text x="938" y="308" text-anchor="end" font-size="11" fill="#9fb0d4">27/06 20:31</text></svg>