<svg xmlns="http://www.w3.org/2000/svg" viewBox="0 0 960 320" width="960" height="320" font-family="Segoe UI, system-ui, -apple-system, Roboto, Helvetica, Arial, sans-serif" role="img" aria-label="Availability history per region"><rect x="0.5" y="0.5" width="959" height="319" rx="14" fill="#ffffff" stroke="#dce3f1"/><text x="42" y="26" font-size="14" font-weight="600" fill="#14203a">History · 204 points</text><circle cx="47" cy="40" r="5" fill="#22c55e"/><text x="57" y="44" font-size="12" fill="#5a688a">Available</text><circle cx="139.8" cy="40" r="5" fill="#f59e0b"/><text x="149.8" y="44" font-size="12" fill="#5a688a">Saturated</text><circle cx="232.60000000000002" cy="40" r="5" fill="#ef4444"/><text x="242.60000000000002" y="44" font-size="12" fill="#5a688a">Error</text><circle cx="296.6" cy="40" r="5" fill="#a855f7"/><text x="306.6" y="44" font-size="12" fill="#5a688a">Timeout</text><line x1="42" y1="286.0" x2="938" y2="286.0" stroke="#eef2f7" stroke-width="1"/><text x="35" y="289.0" text-anchor="end" font-size="11" fill="#5a688a">0</text><line x1="42" y1="227.5" x2="938" y2="227.5" stroke="#eef2f7" stroke-width="1"/><text x="35" y="230.5" text-anchor="end" font-size="11" fill="#5a688a">10</text><line x1="42" y1="169.0" x2="938" y2="169.0" stroke="#eef2f7" stroke-width="1"/><text x="35" y="172.0" text-anchor="end" font-size="11" fill="#5a688a">20</text><line x1="42" y1="110.5" x2="938" y2="110.5" stroke="#eef2f7" stroke-width="1"/><text x="35" y="113.5" text-anchor="end" font-size="11" fill="#5a688a">29</text><line x1="42" y1="52.0" x2="938" y2="52.0" stroke="#eef2f7" stroke-width="1"/><text x="35" y="55.0" text-anchor="end" font-size="11" fill="#5a688a">39</text><polyline fill="none" stroke="#22c55e" stroke-width="2.5" stroke-linejoin="round" stroke-linecap="round" points="42.0,70.0 46.4,70.0 50.8,88.0 55.2,88.0 59.7,76.0 64.1,76.0 68.5,76.0 72.9,70.0 77.3,76.0 81.7,70.0 86.1,64.0 90.6,58.0 95.0,58.0 99.4,58.0 103.8,58.0 108.2,58.0 112.6,58.0 117.0,58.0 121.4,58.0 125.9,58.0 130.3,58.0 134.7,58.0 139.1,58.0 143.5,58.0 147.9,58.0 152.3,58.0 156.8,58.0 161.2,58.0 165.6,58.0 170.0,58.0 174.4,58.0 178.8,70.0 183.2,76.0 187.7,94.0 192.1,64.0 196.5,64.0 200.9,58.0 205.3,58.0 209.7,58.0 214.1,70.0 218.6,76.0 223.0,76.0 227.4,82.0 231.8,82.0 236.2,82.0 240.6,82.0 245.0,76.0 249.4,64.0 253.9,70.0 258.3,70.0 262.7,82.0 267.1,76.0 271.5,76.0 275.9,82.0 280.3,76.0 284.8,76.0 289.2,76.0 293.6,64.0 298.0,64.0 302.4,76.0 306.8,76.0 311.2,76.0 315.7,88.0 320.1,70.0 324.5,64.0 328.9,58.0 333.3,58.0 337.7,70.0 342.1,70.0 346.6,70.0 351.0,76.0 355.4,70.0 359.8,70.0 364.2,70.0 368.6,70.0 373.0,76.0 377.4,82.0 381.9,76.0 386.3,70.0 390.7,70.0 395.1,70.0 399.5,70.0 403.9,76.0 408.3,70.0 412.8,70.0 417.2,70.0 421.6,70.0 426.0,70.0 430.4,70.0 434.8,70.0 439.2,70.0 443.7,70.0 448.1,70.0 452.5,70.0 456.9,70.0 461.3,70.0 465.7,70.0 470.1,70.0 474.6,70.0 479.0,70.0 483.4,70.0 487.8,70.0 492.2,70.0 496.6,70.0 501.0,70.0 505.4,70.0 509.9,70.0 514.3,70.0 518.7,70.0 523.1,70.0 527.5,70.0 531.9,70.0 536.3,70.0 540.8,70.0 545.2,70.0 549.6,70.0 554.0,70.0 558.4,70.0 562.8,70.0 567.2,70.0 571.7,70.0 576.1,70.0 580.5,70.0 584.9,70.0 589.3,70.0 593.7,70.0 598.1,70.0 602.6,70.0 607.0,70.0 611.4,70.0 615.8,70.0 620.2,70.0 624.6,70.0 629.0,70.0 633.4,70.0 637.9,70.0 642.3,70.0 646.7,70.0 651.1,70.0 655.5,70.0 659.9,70.0 664.3,70.0 668.8,70.0 673.2,70.0 677.6,70.0 682.0,70.0 686.4,70.0 690.8,70.0 695.2,70.0 699.7,70.0 704.1,70.0 708.5,76.0 712.9,70.0 717.3,70.0 721.7,70.0 726.1,70.0 730.6,70.0 735.0,76.0 739.4,76.0 743.8,88.0 748.2,88.0 752.6,88.0 757.0,94.0 761.4,94.0 765.9,94.0 770.3,94.0 774.7,88.0 779.1,88.0 783.5,82.0 787.9,82.0 792.3,82.0 796.8,88.0 801.2,88.0 805.6,94.0 810.0,82.0 814.4,82.0 818.8,82.0 823.2,82.0 827.7,88.0 832.1,88.0 836.5,94.0 840.9,94.0 845.3,88.0 849.7,88.0 854.1,88.0 858.6,94.0 863.0,94.0 867.4,106.0 871.8,94.0 876.2,94.0 880.6,94.0 885.0,94.0 889.4,88.0 893.9,88.0 898.3,82.0 902.7,76.0 907.1,76.0 911.5,76.0 915.9,76.0 920.3,76.0 924.8,76.0 929.2,70.0 933.6,70.0 938.0,70.0"/><polyline fill="none" stroke="#f59e0b" stroke-width="2.5" stroke-linejoin="round" stroke-linecap="round" points="42.0,274.0 46.4,274.0 50.8,274.0 55.2,280.0 59.7,268.0 64.1,268.0 68.5,268.0 72.9,274.0 77.3,274.0 81.7,274.0 86.1,280.0 90.6,286.0 95.0,286.0 99.4,286.0 103.8,286.0 108.2,286.0 112.6,286.0 117.0,286.0 121.4,286.0 125.9,286.0 130.3,286.0 134.7,286.0 139.1,286.0 143.5,286.0 147.9,286.0 152.3,286.0 156.8,286.0 161.2,286.0 165.6,286.0 170.0,286.0 174.4,286.0 178.8,274.0 183.2,280.0 187.7,280.0 192.1,280.0 196.5,280.0 200.9,286.0 205.3,286.0 209.7,286.0 214.1,274.0 218.6,268.0 223.0,268.0 227.4,262.0 231.8,262.0 236.2,262.0 240.6,262.0 245.0,268.0 249.4,280.0 253.9,280.0 258.3,274.0 262.7,262.0 267.1,268.0 271.5,268.0 275.9,262.0 280.3,268.0 284.8,268.0 289.2,268.0 293.6,280.0 298.0,280.0 302.4,268.0 306.8,268.0 311.2,268.0 315.7,262.0 320.1,274.0 324.5,280.0 328.9,286.0 333.3,286.0 337.7,274.0 342.1,274.0 346.6,274.0 351.0,274.0 355.4,274.0 359.8,274.0 364.2,274.0 368.6,274.0 373.0,280.0 377.4,274.0 381.9,280.0 386.3,286.0 390.7,286.0 395.1,286.0 399.5,286.0 403.9,280.0 408.3,286.0 412.8,286.0 417.2,286.0 421.6,286.0 426.0,286.0 430.4,286.0 434.8,286.0 439.2,286.0 443.7,286.0 448.1,286.0 452.5,286.0 456.9,286.0 461.3,286.0 465.7,286.0 470.1,286.0 474.6,286.0 479.0,286.0 483.4,286.0 487.8,286.0 492.2,286.0 496.6,286.0 501.0,286.0 505.4,286.0 509.9,286.0 514.3,286.0 518.7,286.0 523.1,286.0 527.5,286.0 531.9,286.0 536.3,286.0 540.8,286.0 545.2,286.0 549.6,286.0 554.0,286.0 558.4,286.0 562.8,286.0 567.2,286.0 571.7,286.0 576.1,286.0 580.5,286.0 584.9,286.0 589.3,286.0 593.7,286.0 598.1,286.0 602.6,286.0 607.0,286.0 611.4,286.0 615.8,286.0 620.2,286.0 624.6,286.0 629.0,286.0 633.4,286.0 637.9,286.0 642.3,286.0 646.7,286.0 651.1,286.0 655.5,286.0 659.9,286.0 664.3,286.0 668.8,286.0 673.2,286.0 677.6,286.0 682.0,286.0 686.4,286.0 690.8,286.0 695.2,286.0 699.7,286.0 704.1,286.0 708.5,286.0 712.9,286.0 717.3,286.0 721.7,286.0 726.1,286.0 730.6,286.0 735.0,286.0 739.4,280.0 743.8,268.0 748.2,268.0 752.6,268.0 757.0,268.0 761.4,262.0 765.9,262.0 770.3,262.0 774.7,268.0 779.1,268.0 783.5,274.0 787.9,274.0 792.3,274.0 796.8,268.0 801.2,268.0 805.6,268.0 810.0,274.0 814.4,274.0 818.8,274.0 823.2,274.0 827.7,268.0 832.1,268.0 836.5,262.0 840.9,262.0 845.3,268.0 849.7,268.0 854.1,268.0 858.6,262.0 863.0,262.0 867.4,274.0 871.8,262.0 876.2,262.0 880.6,262.0 885.0,262.0 889.4,268.0 893.9,268.0 898.3,274.0 902.7,280.0 907.1,280.0 911.5,280.0 915.9,280.0 920.3,280.0 924.8,280.0 929.2,286.0 933.6,286.0 938.0,286.0"/><polyline fill="none" stroke="#ef4444" stroke-width="2.5" stroke-linejoin="round" stroke-linecap="round" points="42.0,280.0 46.4,280.0 50.8,268.0 55.2,262.0 59.7,286.0 64.1,286.0 68.5,286.0 72.9,286.0 77.3,280.0 81.7,286.0 86.1,286.0 90.6,286.0 95.0,286.0 99.4,286.0 103.8,286.0 108.2,286.0 112.6,286.0 117.0,286.0 121.4,286.0 125.9,286.0 130.3,286.0 134.7,286.0 139.1,286.0 143.5,286.0 147.9,286.0 152.3,286.0 156.8,286.0 161.2,286.0 165.6,286.0 170.0,286.0 174.4,286.0 178.8,286.0 183.2,274.0 187.7,256.0 192.1,286.0 196.5,286.0 200.9,286.0 205.3,286.0 209.7,286.0 214.1,286.0 218.6,286.0 223.0,286.0 227.4,286.0 231.8,286.0 236.2,286.0 240.6,286.0 245.0,286.0 249.4,286.0 253.9,280.0 258.3,286.0 262.7,286.0 267.1,286.0 271.5,286.0 275.9,286.0 280.3,286.0 284.8,286.0 289.2,286.0 293.6,286.0 298.0,286.0 302.4,286.0 306.8,286.0 311.2,286.0 315.7,280.0 320.1,286.0 324.5,286.0 328.9,286.0 333.3,286.0 337.7,286.0 342.1,286.0 346.6,286.0 351.0,286.0 355.4,286.0 359.8,286.0 364.2,286.0 368.6,286.0 373.0,274.0 377.4,274.0 381.9,274.0 386.3,274.0 390.7,274.0 395.1,274.0 399.5,274.0 403.9,274.0 408.3,274.0 412.8,274.0 417.2,274.0 421.6,274.0 426.0,274.0 430.4,274.0 434.8,274.0 439.2,274.0 443.7,274.0 448.1,274.0 452.5,274.0 456.9,274.0 461.3,274.0 465.7,274.0 470.1,274.0 474.6,274.0 479.0,274.0 483.4,274.0 487.8,274.0 492.2,274.0 496.6,274.0 501.0,274.0 505.4,274.0 509.9,274.0 514.3,274.0 518.7,274.0 523.1,274.0 527.5,274.0 531.9,274.0 536.3,274.0 540.8,274.0 545.2,274.0 549.6,274.0 554.0,274.0 558.4,274.0 562.8,274.0 567.2,274.0 571.7,274.0 576.1,274.0 580.5,274.0 584.9,274.0 589.3,274.0 593.7,274.0 598.1,274.0 602.6,274.0 607.0,274.0 611.4,274.0 615.8,274.0 620.2,274.0 624.6,274.0 629.0,274.0 633.4,274.0 637.9,274.0 642.3,274.0 646.7,274.0 651.1,274.0 655.5,274.0 659.9,274.0 664.3,274.0 668.8,274.0 673.2,274.0 677.6,274.0 682.0,274.0 686.4,274.0 690.8,274.0 695.2,274.0 699.7,274.0 704.1,274.0 708.5,268.0 712.9,274.0 717.3,274.0 721.7,274.0 726.1,274.0 730.6,274.0 735.0,274.0 739.4,274.0 743.8,274.0 748.2,274.0 752.6,274.0 757.0,268.0 761.4,274.0 765.9,274.0 770.3,274.0 774.7,274.0 779.1,274.0 783.5,274.0 787.9,274.0 792.3,274.0 796.8,274.0 801.2,274.0 805.6,268.0 810.0,274.0 814.4,274.0 818.8,274.0 823.2,274.0 827.7,274.0 832.1,274.0 836.5,274.0 840.9,274.0 845.3,274.0 849.7,274.0 854.1,274.0 858.6,274.0 863.0,274.0 867.4,250.0 871.8,274.0 876.2,274.0 880.6,274.0 885.0,274.0 889.4,274.0 893.9,274.0 898.3,274.0 902.7,274.0 907.1,274.0 911.5,274.0 915.9,274.0 920.3,274.0 924.8,274.0 929.2,274.0 933.6,274.0 938.0,274.0"/><polyline fill="none" stroke="#a855f7" stroke-width="2.5" stroke-linejoin="round" stroke-linecap="round" points="42.0,286.0 46.4,286.0 50.8,286.0 55.2,286.0 59.7,286.0 64.1,286.0 68.5,286.0 72.9,286.0 77.3,286.0 81.7,286.0 86.1,286.0 90.6,286.0 95.0,286.0 99.4,286.0 103.8,286.0 108.2,286.0 112.6,286.0 117.0,286.0 121.4,286.0 125.9,286.0 130.3,286.0 134.7,286.0 139.1,286.0 143.5,286.0 147.9,286.0 152.3,286.0 156.8,286.0 161.2,286.0 165.6,286.0 170.0,286.0 174.4,286.0 178.8,286.0 183.2,286.0 187.7,286.0 192.1,286.0 196.5,286.0 200.9,286.0 205.3,286.0 209.7,286.0 214.1,286.0 218.6,286.0 223.0,286.0 227.4,286.0 231.8,286.0 236.2,286.0 240.6,286.0 245.0,286.0 249.4,286.0 253.9,286.0 258.3,286.0 262.7,286.0 267.1,286.0 271.5,286.0 275.9,286.0 280.3,286.0 284.8,286.0 289.2,286.0 293.6,286.0 298.0,286.0 302.4,286.0 306.8,286.0 311.2,286.0 315.7,286.0 320.1,286.0 324.5,286.0 328.9,286.0 333.3,286.0 337.7,286.0 342.1,286.0 346.6,286.0 351.0,280.0 355.4,286.0 359.8,286.0 364.2,286.0 368.6,286.0 373.0,286.0 377.4,286.0 381.9,286.0 386.3,286.0 390.7,286.0 395.1,286.0 399.5,286.0 403.9,286.0 408.3,286.0 412.8,286.0 417.2,286.0 421.6,286.0 426.0,286.0 430.4,286.0 434.8,286.0 439.2,286.0 443.7,286.0 448.1,286.0 452.5,286.0 456.9,286.0 461.3,286.0 465.7,286.0 470.1,286.0 474.6,286.0 479.0,286.0 483.4,286.0 487.8,286.0 492.2,286.0 496.6,286.0 501.0,286.0 505.4,286.0 509.9,286.0 514.3,286.0 518.7,286.0 523.1,286.0 527.5,286.0 531.9,286.0 536.3,286.0 540.8,286.0 545.2,286.0 549.6,286.0 554.0,286.0 558.4,286.0 562.8,286.0 567.2,286.0 571.7,286.0 576.1,286.0 580.5,286.0 584.9,286.0 589.3,286.0 593.7,286.0 598.1,286.0 602.6,286.0 607.0,286.0 611.4,286.0 615.8,286.0 620.2,286.0 624.6,286.0 629.0,286.0 633.4,286.0 637.9,286.0 642.3,286.0 646.7,286.0 651.1,286.0 655.5,286.0 659.9,286.0 664.3,286.0 668.8,286.0 673.2,286.0 677.6,286.0 682.0,286.0 686.4,286.0 690.8,286.0 695.2,286.0 699.7,286.0 704.1,286.0 708.5,286.0 712.9,286.0 717.3,286.0 721.7,286.0 726.1,286.0 730.6,286.0 735.0,280.0 739.4,286.0 743.8,286.0 748.2,286.0 752.6,286.0 757.0,286.0 761.4,286.0 765.9,286.0 770.3,286.0 774.7,286.0 779.1,286.0 783.5,286.0 787.9,286.0 792.3,286.0 796.8,286.0 801.2,286.0 805.6,286.0 810.0,286.0 814.4,286.0 818.8,286.0 823.2,286.0 827.7,286.0 832.1,286.0 836.5,286.0 840.9,286.0 845.3,286.0 849.7,286.0 854.1,286.0 858.6,286.0 863.0,286.0 867.4,286.0 871.8,286.0 876.2,286.0 880.6,286.0 885.0,286.0 889.4,286.0 893.9,286.0 898.3,286.0 902.7,286.0 907.1,286.0 911.5,286.0 915.9,286.0 920.3,286.0 924.8,286.0 929.2,286.0 933.6,286.0 938.0,286.0"/><text x="42" y="308" font-size="11" fill="#5a688a">19/06 12:43</text><text x="938" y="308" text-anchor="end" font-size="11" fill="#5a688a">01/07 06:31</text></svg>