<svg xmlns="http://www.w3.org/2000/svg" viewBox="0 0 960 320" width="960" height="320" font-family="Segoe UI, system-ui, -apple-system, Roboto, Helvetica, Arial, sans-serif" role="img" aria-label="Availability history per region"><rect x="0.5" y="0.5" width="959" height="319" rx="14" fill="#ffffff" stroke="#dce3f1"/><text x="42" y="26" font-size="14" font-weight="600" fill="#14203a">History · 57 points</text><circle cx="47" cy="40" r="5" fill="#22c55e"/><text x="57" y="44" font-size="12" fill="#5a688a">Available</text><circle cx="139.8" cy="40" r="5" fill="#f59e0b"/><text x="149.8" y="44" font-size="12" fill="#5a688a">Saturated</text><circle cx="232.60000000000002" cy="40" r="5" fill="#ef4444"/><text x="242.60000000000002" y="44" font-size="12" fill="#5a688a">Error</text><line x1="42" y1="286.0" x2="938" y2="286.0" stroke="#eef2f7" stroke-width="1"/><text x="35" y="289.0" text-anchor="end" font-size="11" fill="#5a688a">0</text><line x1="42" y1="227.5" x2="938" y2="227.5" stroke="#eef2f7" stroke-width="1"/><text x="35" y="230.5" text-anchor="end" font-size="11" fill="#5a688a">10</text><line x1="42" y1="169.0" x2="938" y2="169.0" stroke="#eef2f7" stroke-width="1"/><text x="35" y="172.0" text-anchor="end" font-size="11" fill="#5a688a">20</text><line x1="42" y1="110.5" x2="938" y2="110.5" stroke="#eef2f7" stroke-width="1"/><text x="35" y="113.5" text-anchor="end" font-size="11" fill="#5a688a">29</text><line x1="42" y1="52.0" x2="938" y2="52.0" stroke="#eef2f7" stroke-width="1"/><text x="35" y="55.0" text-anchor="end" font-size="11" fill="#5a688a">39</text><polyline fill="none" stroke="#22c55e" stroke-width="2.5" stroke-linejoin="round" stroke-linecap="round" points="42.0,70.0 58.0,70.0 74.0,88.0 90.0,88.0 106.0,76.0 122.0,76.0 138.0,76.0 154.0,70.0 170.0,76.0 186.0,70.0 202.0,64.0 218.0,58.0 234.0,58.0 250.0,58.0 266.0,58.0 282.0,58.0 298.0,58.0 314.0,58.0 330.0,58.0 346.0,58.0 362.0,58.0 378.0,58.0 394.0,58.0 410.0,58.0 426.0,58.0 442.0,58.0 458.0,58.0 474.0,58.0 490.0,58.0 506.0,58.0 522.0,58.0 538.0,70.0 554.0,76.0 570.0,94.0 586.0,64.0 602.0,64.0 618.0,58.0 634.0,58.0 650.0,58.0 666.0,70.0 682.0,76.0 698.0,76.0 714.0,82.0 730.0,82.0 746.0,82.0 762.0,82.0 778.0,76.0 794.0,64.0 810.0,70.0 826.0,70.0 842.0,82.0 858.0,76.0 874.0,76.0 890.0,82.0 906.0,76.0 922.0,76.0 938.0,76.0"/><circle cx="42.0" cy="70.0" r="2.5" fill="#22c55e"/><circle cx="58.0" cy="70.0" r="2.5" fill="#22c55e"/><circle cx="74.0" cy="88.0" r="2.5" fill="#22c55e"/><circle cx="90.0" cy="88.0" r="2.5" fill="#22c55e"/><circle cx="106.0" cy="76.0" r="2.5" fill="#22c55e"/><circle cx="122.0" cy="76.0" r="2.5" fill="#22c55e"/><circle cx="138.0" cy="76.0" r="2.5" fill="#22c55e"/><circle cx="154.0" cy="70.0" r="2.5" fill="#22c55e"/><circle cx="170.0" cy="76.0" r="2.5" fill="#22c55e"/><circle cx="186.0" cy="70.0" r="2.5" fill="#22c55e"/><circle cx="202.0" cy="64.0" r="2.5" fill="#22c55e"/><circle cx="218.0" cy="58.0" r="2.5" fill="#22c55e"/><circle cx="234.0" cy="58.0" r="2.5" fill="#22c55e"/><circle cx="250.0" cy="58.0" r="2.5" fill="#22c55e"/><circle cx="266.0" cy="58.0" r="2.5" fill="#22c55e"/><circle cx="282.0" cy="58.0" r="2.5" fill="#22c55e"/><circle cx="298.0" cy="58.0" r="2.5" fill="#22c55e"/><circle cx="314.0" cy="58.0" r="2.5" fill="#22c55e"/><circle cx="330.0" cy="58.0" r="2.5" fill="#22c55e"/><circle cx="346.0" cy="58.0" r="2.5" fill="#22c55e"/><circle cx="362.0" cy="58.0" r="2.5" fill="#22c55e"/><circle cx="378.0" cy="58.0" r="2.5" fill="#22c55e"/><circle cx="394.0" cy="58.0" r="2.5" fill="#22c55e"/><circle cx="410.0" cy="58.0" r="2.5" fill="#22c55e"/><circle cx="426.0" cy="58.0" r="2.5" fill="#22c55e"/><circle cx="442.0" cy="58.0" r="2.5" fill="#22c55e"/><circle cx="458.0" cy="58.0" r="2.5" fill="#22c55e"/><circle cx="474.0" cy="58.0" r="2.5" fill="#22c55e"/><circle cx="490.0" cy="58.0" r="2.5" fill="#22c55e"/><circle cx="506.0" cy="58.0" r="2.5" fill="#22c55e"/><circle cx="522.0" cy="58.0" r="2.5" fill="#22c55e"/><circle cx="538.0" cy="70.0" r="2.5" fill="#22c55e"/><circle cx="554.0" cy="76.0" r="2.5" fill="#22c55e"/><circle cx="570.0" cy="94.0" r="2.5" fill="#22c55e"/><circle cx="586.0" cy="64.0" r="2.5" fill="#22c55e"/><circle cx="602.0" cy="64.0" r="2.5" fill="#22c55e"/><circle cx="618.0" cy="58.0" r="2.5" fill="#22c55e"/><circle cx="634.0" cy="58.0" r="2.5" fill="#22c55e"/><circle cx="650.0" cy="58.0" r="2.5" fill="#22c55e"/><circle cx="666.0" cy="70.0" r="2.5" fill="#22c55e"/><circle cx="682.0" cy="76.0" r="2.5" fill="#22c55e"/><circle cx="698.0" cy="76.0" r="2.5" fill="#22c55e"/><circle cx="714.0" cy="82.0" r="2.5" fill="#22c55e"/><circle cx="730.0" cy="82.0" r="2.5" fill="#22c55e"/><circle cx="746.0" cy="82.0" r="2.5" fill="#22c55e"/><circle cx="762.0" cy="82.0" r="2.5" fill="#22c55e"/><circle cx="778.0" cy="76.0" r="2.5" fill="#22c55e"/><circle cx="794.0" cy="64.0" r="2.5" fill="#22c55e"/><circle cx="810.0" cy="70.0" r="2.5" fill="#22c55e"/><circle cx="826.0" cy="70.0" r="2.5" fill="#22c55e"/><circle cx="842.0" cy="82.0" r="2.5" fill="#22c55e"/><circle cx="858.0" cy="76.0" r="2.5" fill="#22c55e"/><circle cx="874.0" cy="76.0" r="2.5" fill="#22c55e"/><circle cx="890.0" cy="82.0" r="2.5" fill="#22c55e"/><circle cx="906.0" cy="76.0" r="2.5" fill="#22c55e"/><circle cx="922.0" cy="76.0" r="2.5" fill="#22c55e"/><circle cx="938.0" cy="76.0" r="2.5" fill="#22c55e"/><polyline fill="none" stroke="#f59e0b" stroke-width="2.5" stroke-linejoin="round" stroke-linecap="round" points="42.0,274.0 58.0,274.0 74.0,274.0 90.0,280.0 106.0,268.0 122.0,268.0 138.0,268.0 154.0,274.0 170.0,274.0 186.0,274.0 202.0,280.0 218.0,286.0 234.0,286.0 250.0,286.0 266.0,286.0 282.0,286.0 298.0,286.0 314.0,286.0 330.0,286.0 346.0,286.0 362.0,286.0 378.0,286.0 394.0,286.0 410.0,286.0 426.0,286.0 442.0,286.0 458.0,286.0 474.0,286.0 490.0,286.0 506.0,286.0 522.0,286.0 538.0,274.0 554.0,280.0 570.0,280.0 586.0,280.0 602.0,280.0 618.0,286.0 634.0,286.0 650.0,286.0 666.0,274.0 682.0,268.0 698.0,268.0 714.0,262.0 730.0,262.0 746.0,262.0 762.0,262.0 778.0,268.0 794.0,280.0 810.0,280.0 826.0,274.0 842.0,262.0 858.0,268.0 874.0,268.0 890.0,262.0 906.0,268.0 922.0,268.0 938.0,268.0"/><circle cx="42.0" cy="274.0" r="2.5" fill="#f59e0b"/><circle cx="58.0" cy="274.0" r="2.5" fill="#f59e0b"/><circle cx="74.0" cy="274.0" r="2.5" fill="#f59e0b"/><circle cx="90.0" cy="280.0" r="2.5" fill="#f59e0b"/><circle cx="106.0" cy="268.0" r="2.5" fill="#f59e0b"/><circle cx="122.0" cy="268.0" r="2.5" fill="#f59e0b"/><circle cx="138.0" cy="268.0" r="2.5" fill="#f59e0b"/><circle cx="154.0" cy="274.0" r="2.5" fill="#f59e0b"/><circle cx="170.0" cy="274.0" r="2.5" fill="#f59e0b"/><circle cx="186.0" cy="274.0" r="2.5" fill="#f59e0b"/><circle cx="202.0" cy="280.0" r="2.5" fill="#f59e0b"/><circle cx="218.0" cy="286.0" r="2.5" fill="#f59e0b"/><circle cx="234.0" cy="286.0" r="2.5" fill="#f59e0b"/><circle cx="250.0" cy="286.0" r="2.5" fill="#f59e0b"/><circle cx="266.0" cy="286.0" r="2.5" fill="#f59e0b"/><circle cx="282.0" cy="286.0" r="2.5" fill="#f59e0b"/><circle cx="298.0" cy="286.0" r="2.5" fill="#f59e0b"/><circle cx="314.0" cy="286.0" r="2.5" fill="#f59e0b"/><circle cx="330.0" cy="286.0" r="2.5" fill="#f59e0b"/><circle cx="346.0" cy="286.0" r="2.5" fill="#f59e0b"/><circle cx="362.0" cy="286.0" r="2.5" fill="#f59e0b"/><circle cx="378.0" cy="286.0" r="2.5" fill="#f59e0b"/><circle cx="394.0" cy="286.0" r="2.5" fill="#f59e0b"/><circle cx="410.0" cy="286.0" r="2.5" fill="#f59e0b"/><circle cx="426.0" cy="286.0" r="2.5" fill="#f59e0b"/><circle cx="442.0" cy="286.0" r="2.5" fill="#f59e0b"/><circle cx="458.0" cy="286.0" r="2.5" fill="#f59e0b"/><circle cx="474.0" cy="286.0" r="2.5" fill="#f59e0b"/><circle cx="490.0" cy="286.0" r="2.5" fill="#f59e0b"/><circle cx="506.0" cy="286.0" r="2.5" fill="#f59e0b"/><circle cx="522.0" cy="286.0" r="2.5" fill="#f59e0b"/><circle cx="538.0" cy="274.0" r="2.5" fill="#f59e0b"/><circle cx="554.0" cy="280.0" r="2.5" fill="#f59e0b"/><circle cx="570.0" cy="280.0" r="2.5" fill="#f59e0b"/><circle cx="586.0" cy="280.0" r="2.5" fill="#f59e0b"/><circle cx="602.0" cy="280.0" r="2.5" fill="#f59e0b"/><circle cx="618.0" cy="286.0" r="2.5" fill="#f59e0b"/><circle cx="634.0" cy="286.0" r="2.5" fill="#f59e0b"/><circle cx="650.0" cy="286.0" r="2.5" fill="#f59e0b"/><circle cx="666.0" cy="274.0" r="2.5" fill="#f59e0b"/><circle cx="682.0" cy="268.0" r="2.5" fill="#f59e0b"/><circle cx="698.0" cy="268.0" r="2.5" fill="#f59e0b"/><circle cx="714.0" cy="262.0" r="2.5" fill="#f59e0b"/><circle cx="730.0" cy="262.0" r="2.5" fill="#f59e0b"/><circle cx="746.0" cy="262.0" r="2.5" fill="#f59e0b"/><circle cx="762.0" cy="262.0" r="2.5" fill="#f59e0b"/><circle cx="778.0" cy="268.0" r="2.5" fill="#f59e0b"/><circle cx="794.0" cy="280.0" r="2.5" fill="#f59e0b"/><circle cx="810.0" cy="280.0" r="2.5" fill="#f59e0b"/><circle cx="826.0" cy="274.0" r="2.5" fill="#f59e0b"/><circle cx="842.0" cy="262.0" r="2.5" fill="#f59e0b"/><circle cx="858.0" cy="268.0" r="2.5" fill="#f59e0b"/><circle cx="874.0" cy="268.0" r="2.5" fill="#f59e0b"/><circle cx="890.0" cy="262.0" r="2.5" fill="#f59e0b"/><circle cx="906.0" cy="268.0" r="2.5" fill="#f59e0b"/><circle cx="922.0" cy="268.0" r="2.5" fill="#f59e0b"/><circle cx="938.0" cy="268.0" r="2.5" fill="#f59e0b"/><polyline fill="none" stroke="#ef4444" stroke-width="2.5" stroke-linejoin="round" stroke-linecap="round" points="42.0,280.0 58.0,280.0 74.0,268.0 90.0,262.0 106.0,286.0 122.0,286.0 138.0,286.0 154.0,286.0 170.0,280.0 186.0,286.0 202.0,286.0 218.0,286.0 234.0,286.0 250.0,286.0 266.0,286.0 282.0,286.0 298.0,286.0 314.0,286.0 330.0,286.0 346.0,286.0 362.0,286.0 378.0,286.0 394.0,286.0 410.0,286.0 426.0,286.0 442.0,286.0 458.0,286.0 474.0,286.0 490.0,286.0 506.0,286.0 522.0,286.0 538.0,286.0 554.0,274.0 570.0,256.0 586.0,286.0 602.0,286.0 618.0,286.0 634.0,286.0 650.0,286.0 666.0,286.0 682.0,286.0 698.0,286.0 714.0,286.0 730.0,286.0 746.0,286.0 762.0,286.0 778.0,286.0 794.0,286.0 810.0,280.0 826.0,286.0 842.0,286.0 858.0,286.0 874.0,286.0 890.0,286.0 906.0,286.0 922.0,286.0 938.0,286.0"/><circle cx="42.0" cy="280.0" r="2.5" fill="#ef4444"/><circle cx="58.0" cy="280.0" r="2.5" fill="#ef4444"/><circle cx="74.0" cy="268.0" r="2.5" fill="#ef4444"/><circle cx="90.0" cy="262.0" r="2.5" fill="#ef4444"/><circle cx="106.0" cy="286.0" r="2.5" fill="#ef4444"/><circle cx="122.0" cy="286.0" r="2.5" fill="#ef4444"/><circle cx="138.0" cy="286.0" r="2.5" fill="#ef4444"/><circle cx="154.0" cy="286.0" r="2.5" fill="#ef4444"/><circle cx="170.0" cy="280.0" r="2.5" fill="#ef4444"/><circle cx="186.0" cy="286.0" r="2.5" fill="#ef4444"/><circle cx="202.0" cy="286.0" r="2.5" fill="#ef4444"/><circle cx="218.0" cy="286.0" r="2.5" fill="#ef4444"/><circle cx="234.0" cy="286.0" r="2.5" fill="#ef4444"/><circle cx="250.0" cy="286.0" r="2.5" fill="#ef4444"/><circle cx="266.0" cy="286.0" r="2.5" fill="#ef4444"/><circle cx="282.0" cy="286.0" r="2.5" fill="#ef4444"/><circle cx="298.0" cy="286.0" r="2.5" fill="#ef4444"/><circle cx="314.0" cy="286.0" r="2.5" fill="#ef4444"/><circle cx="330.0" cy="286.0" r="2.5" fill="#ef4444"/><circle cx="346.0" cy="286.0" r="2.5" fill="#ef4444"/><circle cx="362.0" cy="286.0" r="2.5" fill="#ef4444"/><circle cx="378.0" cy="286.0" r="2.5" fill="#ef4444"/><circle cx="394.0" cy="286.0" r="2.5" fill="#ef4444"/><circle cx="410.0" cy="286.0" r="2.5" fill="#ef4444"/><circle cx="426.0" cy="286.0" r="2.5" fill="#ef4444"/><circle cx="442.0" cy="286.0" r="2.5" fill="#ef4444"/><circle cx="458.0" cy="286.0" r="2.5" fill="#ef4444"/><circle cx="474.0" cy="286.0" r="2.5" fill="#ef4444"/><circle cx="490.0" cy="286.0" r="2.5" fill="#ef4444"/><circle cx="506.0" cy="286.0" r="2.5" fill="#ef4444"/><circle cx="522.0" cy="286.0" r="2.5" fill="#ef4444"/><circle cx="538.0" cy="286.0" r="2.5" fill="#ef4444"/><circle cx="554.0" cy="274.0" r="2.5" fill="#ef4444"/><circle cx="570.0" cy="256.0" r="2.5" fill="#ef4444"/><circle cx="586.0" cy="286.0" r="2.5" fill="#ef4444"/><circle cx="602.0" cy="286.0" r="2.5" fill="#ef4444"/><circle cx="618.0" cy="286.0" r="2.5" fill="#ef4444"/><circle cx="634.0" cy="286.0" r="2.5" fill="#ef4444"/><circle cx="650.0" cy="286.0" r="2.5" fill="#ef4444"/><circle cx="666.0" cy="286.0" r="2.5" fill="#ef4444"/><circle cx="682.0" cy="286.0" r="2.5" fill="#ef4444"/><circle cx="698.0" cy="286.0" r="2.5" fill="#ef4444"/><circle cx="714.0" cy="286.0" r="2.5" fill="#ef4444"/><circle cx="730.0" cy="286.0" r="2.5" fill="#ef4444"/><circle cx="746.0" cy="286.0" r="2.5" fill="#ef4444"/><circle cx="762.0" cy="286.0" r="2.5" fill="#ef4444"/><circle cx="778.0" cy="286.0" r="2.5" fill="#ef4444"/><circle cx="794.0" cy="286.0" r="2.5" fill="#ef4444"/><circle cx="810.0" cy="280.0" r="2.5" fill="#ef4444"/><circle cx="826.0" cy="286.0" r="2.5" fill="#ef4444"/><circle cx="842.0" cy="286.0" r="2.5" fill="#ef4444"/><circle cx="858.0" cy="286.0" r="2.5" fill="#ef4444"/><circle cx="874.0" cy="286.0" r="2.5" fill="#ef4444"/><circle cx="890.0" cy="286.0" r="2.5" fill="#ef4444"/><circle cx="906.0" cy="286.0" r="2.5" fill="#ef4444"/><circle cx="922.0" cy="286.0" r="2.5" fill="#ef4444"/><circle cx="938.0" cy="286.0" r="2.5" fill="#ef4444"/><text x="42" y="308" font-size="11" fill="#5a688a">19/06 12:43</text><text x="938" y="308" text-anchor="end" font-size="11" fill="#5a688a">24/06 21:59</text></svg>