<svg xmlns="http://www.w3.org/2000/svg" viewBox="0 0 960 320" width="960" height="320" font-family="Segoe UI, system-ui, -apple-system, Roboto, Helvetica, Arial, sans-serif" role="img" aria-label="Availability history per region"><rect x="0.5" y="0.5" width="959" height="319" rx="14" fill="#0d1117" stroke="#2c3a5e"/><text x="42" y="26" font-size="14" font-weight="600" fill="#e6ecff">History · 122 points</text><circle cx="47" cy="40" r="5" fill="#22c55e"/><text x="57" y="44" font-size="12" fill="#9fb0d4">Available</text><circle cx="139.8" cy="40" r="5" fill="#f59e0b"/><text x="149.8" y="44" font-size="12" fill="#9fb0d4">Saturated</text><circle cx="232.60000000000002" cy="40" r="5" fill="#ef4444"/><text x="242.60000000000002" y="44" font-size="12" fill="#9fb0d4">Error</text><circle cx="296.6" cy="40" r="5" fill="#a855f7"/><text x="306.6" y="44" font-size="12" fill="#9fb0d4">Timeout</text><line x1="42" y1="286.0" x2="938" y2="286.0" stroke="#21304f" stroke-width="1"/><text x="35" y="289.0" text-anchor="end" font-size="11" fill="#9fb0d4">0</text><line x1="42" y1="227.5" x2="938" y2="227.5" stroke="#21304f" stroke-width="1"/><text x="35" y="230.5" text-anchor="end" font-size="11" fill="#9fb0d4">10</text><line x1="42" y1="169.0" x2="938" y2="169.0" stroke="#21304f" stroke-width="1"/><text x="35" y="172.0" text-anchor="end" font-size="11" fill="#9fb0d4">19</text><line x1="42" y1="110.5" x2="938" y2="110.5" stroke="#21304f" stroke-width="1"/><text x="35" y="113.5" text-anchor="end" font-size="11" fill="#9fb0d4">28</text><line x1="42" y1="52.0" x2="938" y2="52.0" stroke="#21304f" stroke-width="1"/><text x="35" y="55.0" text-anchor="end" font-size="11" fill="#9fb0d4">38</text><polyline fill="none" stroke="#22c55e" stroke-width="2.5" stroke-linejoin="round" stroke-linecap="round" points="42.0,64.3 49.4,224.4 56.8,82.8 64.2,88.9 71.6,82.8 79.0,76.6 86.4,76.6 93.8,76.6 101.2,76.6 108.6,76.6 116.0,76.6 123.5,76.6 130.9,76.6 138.3,76.6 145.7,76.6 153.1,70.5 160.5,70.5 167.9,82.8 175.3,82.8 182.7,82.8 190.1,88.9 197.5,88.9 204.9,88.9 212.3,88.9 219.7,88.9 227.1,88.9 234.5,88.9 241.9,88.9 249.3,88.9 256.7,82.8 264.1,82.8 271.6,82.8 279.0,82.8 286.4,76.6 293.8,76.6 301.2,76.6 308.6,76.6 316.0,76.6 323.4,82.8 330.8,82.8 338.2,82.8 345.6,82.8 353.0,76.6 360.4,76.6 367.8,76.6 375.2,76.6 382.6,76.6 390.0,76.6 397.4,76.6 404.8,82.8 412.2,82.8 419.7,82.8 427.1,82.8 434.5,76.6 441.9,76.6 449.3,76.6 456.7,76.6 464.1,76.6 471.5,76.6 478.9,76.6 486.3,76.6 493.7,82.8 501.1,76.6 508.5,76.6 515.9,76.6 523.3,76.6 530.7,76.6 538.1,82.8 545.5,76.6 552.9,76.6 560.3,76.6 567.8,76.6 575.2,76.6 582.6,76.6 590.0,76.6 597.4,76.6 604.8,76.6 612.2,70.5 619.6,70.5 627.0,70.5 634.4,70.5 641.8,76.6 649.2,70.5 656.6,76.6 664.0,76.6 671.4,76.6 678.8,76.6 686.2,76.6 693.6,76.6 701.0,82.8 708.4,88.9 715.9,88.9 723.3,88.9 730.7,88.9 738.1,88.9 745.5,88.9 752.9,88.9 760.3,95.1 767.7,88.9 775.1,88.9 782.5,88.9 789.9,88.9 797.3,88.9 804.7,88.9 812.1,82.8 819.5,82.8 826.9,82.8 834.3,82.8 841.7,82.8 849.1,82.8 856.5,82.8 864.0,82.8 871.4,88.9 878.8,88.9 886.2,88.9 893.6,88.9 901.0,88.9 908.4,88.9 915.8,88.9 923.2,88.9 930.6,95.1 938.0,88.9"/><polyline fill="none" stroke="#f59e0b" stroke-width="2.5" stroke-linejoin="round" stroke-linecap="round" points="42.0,273.7 49.4,267.5 56.8,255.2 64.2,249.1 71.6,255.2 79.0,261.4 86.4,261.4 93.8,261.4 101.2,261.4 108.6,261.4 116.0,261.4 123.5,261.4 130.9,261.4 138.3,261.4 145.7,261.4 153.1,267.5 160.5,267.5 167.9,261.4 175.3,255.2 182.7,255.2 190.1,249.1 197.5,249.1 204.9,249.1 212.3,249.1 219.7,249.1 227.1,249.1 234.5,249.1 241.9,249.1 249.3,249.1 256.7,255.2 264.1,255.2 271.6,255.2 279.0,255.2 286.4,261.4 293.8,261.4 301.2,261.4 308.6,261.4 316.0,261.4 323.4,255.2 330.8,255.2 338.2,255.2 345.6,255.2 353.0,261.4 360.4,261.4 367.8,261.4 375.2,261.4 382.6,261.4 390.0,261.4 397.4,261.4 404.8,255.2 412.2,255.2 419.7,255.2 427.1,261.4 434.5,261.4 441.9,261.4 449.3,261.4 456.7,261.4 464.1,261.4 471.5,261.4 478.9,261.4 486.3,261.4 493.7,255.2 501.1,261.4 508.5,261.4 515.9,261.4 523.3,261.4 530.7,261.4 538.1,261.4 545.5,261.4 552.9,261.4 560.3,261.4 567.8,261.4 575.2,261.4 582.6,261.4 590.0,261.4 597.4,261.4 604.8,261.4 612.2,267.5 619.6,267.5 627.0,267.5 634.4,267.5 641.8,267.5 649.2,267.5 656.6,261.4 664.0,261.4 671.4,261.4 678.8,261.4 686.2,261.4 693.6,261.4 701.0,255.2 708.4,249.1 715.9,249.1 723.3,255.2 730.7,249.1 738.1,249.1 745.5,249.1 752.9,249.1 760.3,249.1 767.7,249.1 775.1,255.2 782.5,249.1 789.9,249.1 797.3,249.1 804.7,249.1 812.1,255.2 819.5,255.2 826.9,255.2 834.3,255.2 841.7,255.2 849.1,255.2 856.5,255.2 864.0,255.2 871.4,249.1 878.8,249.1 886.2,249.1 893.6,249.1 901.0,249.1 908.4,249.1 915.8,249.1 923.2,255.2 930.6,249.1 938.0,249.1"/><polyline fill="none" stroke="#ef4444" stroke-width="2.5" stroke-linejoin="round" stroke-linecap="round" points="42.0,286.0 49.4,132.1 56.8,286.0 64.2,286.0 71.6,286.0 79.0,286.0 86.4,286.0 93.8,286.0 101.2,286.0 108.6,286.0 116.0,286.0 123.5,286.0 130.9,286.0 138.3,286.0 145.7,286.0 153.1,286.0 160.5,286.0 167.9,279.8 175.3,286.0 182.7,286.0 190.1,286.0 197.5,286.0 204.9,286.0 212.3,286.0 219.7,286.0 227.1,286.0 234.5,286.0 241.9,286.0 249.3,286.0 256.7,286.0 264.1,286.0 271.6,286.0 279.0,286.0 286.4,286.0 293.8,286.0 301.2,286.0 308.6,286.0 316.0,286.0 323.4,286.0 330.8,286.0 338.2,286.0 345.6,286.0 353.0,286.0 360.4,286.0 367.8,286.0 375.2,286.0 382.6,286.0 390.0,286.0 397.4,286.0 404.8,286.0 412.2,286.0 419.7,286.0 427.1,286.0 434.5,286.0 441.9,286.0 449.3,286.0 456.7,286.0 464.1,286.0 471.5,286.0 478.9,286.0 486.3,286.0 493.7,286.0 501.1,286.0 508.5,286.0 515.9,286.0 523.3,286.0 530.7,286.0 538.1,279.8 545.5,286.0 552.9,286.0 560.3,286.0 567.8,286.0 575.2,286.0 582.6,286.0 590.0,286.0 597.4,286.0 604.8,286.0 612.2,286.0 619.6,286.0 627.0,286.0 634.4,286.0 641.8,279.8 649.2,286.0 656.6,286.0 664.0,286.0 671.4,286.0 678.8,286.0 686.2,286.0 693.6,286.0 701.0,286.0 708.4,286.0 715.9,286.0 723.3,279.8 730.7,286.0 738.1,286.0 745.5,286.0 752.9,286.0 760.3,279.8 767.7,286.0 775.1,286.0 782.5,286.0 789.9,286.0 797.3,286.0 804.7,286.0 812.1,286.0 819.5,286.0 826.9,286.0 834.3,286.0 841.7,286.0 849.1,286.0 856.5,286.0 864.0,286.0 871.4,286.0 878.8,286.0 886.2,286.0 893.6,286.0 901.0,286.0 908.4,286.0 915.8,286.0 923.2,286.0 930.6,279.8 938.0,286.0"/><polyline fill="none" stroke="#a855f7" stroke-width="2.5" stroke-linejoin="round" stroke-linecap="round" points="42.0,286.0 49.4,286.0 56.8,286.0 64.2,286.0 71.6,286.0 79.0,286.0 86.4,286.0 93.8,286.0 101.2,286.0 108.6,286.0 116.0,286.0 123.5,286.0 130.9,286.0 138.3,286.0 145.7,286.0 153.1,286.0 160.5,286.0 167.9,286.0 175.3,286.0 182.7,286.0 190.1,286.0 197.5,286.0 204.9,286.0 212.3,286.0 219.7,286.0 227.1,286.0 234.5,286.0 241.9,286.0 249.3,286.0 256.7,286.0 264.1,286.0 271.6,286.0 279.0,286.0 286.4,286.0 293.8,286.0 301.2,286.0 308.6,286.0 316.0,286.0 323.4,286.0 330.8,286.0 338.2,286.0 345.6,286.0 353.0,286.0 360.4,286.0 367.8,286.0 375.2,286.0 382.6,286.0 390.0,286.0 397.4,286.0 404.8,286.0 412.2,286.0 419.7,286.0 427.1,279.8 434.5,286.0 441.9,286.0 449.3,286.0 456.7,286.0 464.1,286.0 471.5,286.0 478.9,286.0 486.3,286.0 493.7,286.0 501.1,286.0 508.5,286.0 515.9,286.0 523.3,286.0 530.7,286.0 538.1,286.0 545.5,286.0 552.9,286.0 560.3,286.0 567.8,286.0 575.2,286.0 582.6,286.0 590.0,286.0 597.4,286.0 604.8,286.0 612.2,286.0 619.6,286.0 627.0,286.0 634.4,286.0 641.8,286.0 649.2,286.0 656.6,286.0 664.0,286.0 671.4,286.0 678.8,286.0 686.2,286.0 693.6,286.0 701.0,286.0 708.4,286.0 715.9,286.0 723.3,286.0 730.7,286.0 738.1,286.0 745.5,286.0 752.9,286.0 760.3,286.0 767.7,286.0 775.1,279.8 782.5,286.0 789.9,286.0 797.3,286.0 804.7,286.0 812.1,286.0 819.5,286.0 826.9,286.0 834.3,286.0 841.7,286.0 849.1,286.0 856.5,286.0 864.0,286.0 871.4,286.0 878.8,286.0 886.2,286.0 893.6,286.0 901.0,286.0 908.4,286.0 915.8,286.0 923.2,279.8 930.6,286.0 938.0,286.0"/><text x="42" y="308" font-size="11" fill="#9fb0d4">19/06 15:39</text><text x="938" y="308" text-anchor="end" font-size="11" fill="#9fb0d4">21/07 16:32</text></svg>