<svg xmlns="http://www.w3.org/2000/svg" viewBox="0 0 960 320" width="960" height="320" font-family="Segoe UI, system-ui, -apple-system, Roboto, Helvetica, Arial, sans-serif" role="img" aria-label="Availability history per region"><rect x="0.5" y="0.5" width="959" height="319" rx="14" fill="#0d1117" stroke="#2c3a5e"/><text x="42" y="26" font-size="14" font-weight="600" fill="#e6ecff">History · 61 points</text><circle cx="47" cy="40" r="5" fill="#22c55e"/><text x="57" y="44" font-size="12" fill="#9fb0d4">Available</text><circle cx="139.8" cy="40" r="5" fill="#f59e0b"/><text x="149.8" y="44" font-size="12" fill="#9fb0d4">Saturated</text><circle cx="232.60000000000002" cy="40" r="5" fill="#ef4444"/><text x="242.60000000000002" y="44" font-size="12" fill="#9fb0d4">Error</text><circle cx="296.6" cy="40" r="5" fill="#a855f7"/><text x="306.6" y="44" font-size="12" fill="#9fb0d4">Timeout</text><line x1="42" y1="286.0" x2="938" y2="286.0" stroke="#21304f" stroke-width="1"/><text x="35" y="289.0" text-anchor="end" font-size="11" fill="#9fb0d4">0</text><line x1="42" y1="227.5" x2="938" y2="227.5" stroke="#21304f" stroke-width="1"/><text x="35" y="230.5" text-anchor="end" font-size="11" fill="#9fb0d4">10</text><line x1="42" y1="169.0" x2="938" y2="169.0" stroke="#21304f" stroke-width="1"/><text x="35" y="172.0" text-anchor="end" font-size="11" fill="#9fb0d4">19</text><line x1="42" y1="110.5" x2="938" y2="110.5" stroke="#21304f" stroke-width="1"/><text x="35" y="113.5" text-anchor="end" font-size="11" fill="#9fb0d4">28</text><line x1="42" y1="52.0" x2="938" y2="52.0" stroke="#21304f" stroke-width="1"/><text x="35" y="55.0" text-anchor="end" font-size="11" fill="#9fb0d4">38</text><polyline fill="none" stroke="#22c55e" stroke-width="2.5" stroke-linejoin="round" stroke-linecap="round" points="42.0,64.3 56.9,224.4 71.9,82.8 86.8,88.9 101.7,82.8 116.7,76.6 131.6,76.6 146.5,76.6 161.5,76.6 176.4,76.6 191.3,76.6 206.3,76.6 221.2,76.6 236.1,76.6 251.1,76.6 266.0,70.5 280.9,70.5 295.9,82.8 310.8,82.8 325.7,82.8 340.7,88.9 355.6,88.9 370.5,88.9 385.5,88.9 400.4,88.9 415.3,88.9 430.3,88.9 445.2,88.9 460.1,88.9 475.1,82.8 490.0,82.8 504.9,82.8 519.9,82.8 534.8,76.6 549.7,76.6 564.7,76.6 579.6,76.6 594.5,76.6 609.5,82.8 624.4,82.8 639.3,82.8 654.3,82.8 669.2,76.6 684.1,76.6 699.1,76.6 714.0,76.6 728.9,76.6 743.9,76.6 758.8,76.6 773.7,82.8 788.7,82.8 803.6,82.8 818.5,82.8 833.5,76.6 848.4,76.6 863.3,76.6 878.3,76.6 893.2,76.6 908.1,76.6 923.1,76.6 938.0,76.6"/><polyline fill="none" stroke="#f59e0b" stroke-width="2.5" stroke-linejoin="round" stroke-linecap="round" points="42.0,273.7 56.9,267.5 71.9,255.2 86.8,249.1 101.7,255.2 116.7,261.4 131.6,261.4 146.5,261.4 161.5,261.4 176.4,261.4 191.3,261.4 206.3,261.4 221.2,261.4 236.1,261.4 251.1,261.4 266.0,267.5 280.9,267.5 295.9,261.4 310.8,255.2 325.7,255.2 340.7,249.1 355.6,249.1 370.5,249.1 385.5,249.1 400.4,249.1 415.3,249.1 430.3,249.1 445.2,249.1 460.1,249.1 475.1,255.2 490.0,255.2 504.9,255.2 519.9,255.2 534.8,261.4 549.7,261.4 564.7,261.4 579.6,261.4 594.5,261.4 609.5,255.2 624.4,255.2 639.3,255.2 654.3,255.2 669.2,261.4 684.1,261.4 699.1,261.4 714.0,261.4 728.9,261.4 743.9,261.4 758.8,261.4 773.7,255.2 788.7,255.2 803.6,255.2 818.5,261.4 833.5,261.4 848.4,261.4 863.3,261.4 878.3,261.4 893.2,261.4 908.1,261.4 923.1,261.4 938.0,261.4"/><polyline fill="none" stroke="#ef4444" stroke-width="2.5" stroke-linejoin="round" stroke-linecap="round" points="42.0,286.0 56.9,132.1 71.9,286.0 86.8,286.0 101.7,286.0 116.7,286.0 131.6,286.0 146.5,286.0 161.5,286.0 176.4,286.0 191.3,286.0 206.3,286.0 221.2,286.0 236.1,286.0 251.1,286.0 266.0,286.0 280.9,286.0 295.9,279.8 310.8,286.0 325.7,286.0 340.7,286.0 355.6,286.0 370.5,286.0 385.5,286.0 400.4,286.0 415.3,286.0 430.3,286.0 445.2,286.0 460.1,286.0 475.1,286.0 490.0,286.0 504.9,286.0 519.9,286.0 534.8,286.0 549.7,286.0 564.7,286.0 579.6,286.0 594.5,286.0 609.5,286.0 624.4,286.0 639.3,286.0 654.3,286.0 669.2,286.0 684.1,286.0 699.1,286.0 714.0,286.0 728.9,286.0 743.9,286.0 758.8,286.0 773.7,286.0 788.7,286.0 803.6,286.0 818.5,286.0 833.5,286.0 848.4,286.0 863.3,286.0 878.3,286.0 893.2,286.0 908.1,286.0 923.1,286.0 938.0,286.0"/><polyline fill="none" stroke="#a855f7" stroke-width="2.5" stroke-linejoin="round" stroke-linecap="round" points="42.0,286.0 56.9,286.0 71.9,286.0 86.8,286.0 101.7,286.0 116.7,286.0 131.6,286.0 146.5,286.0 161.5,286.0 176.4,286.0 191.3,286.0 206.3,286.0 221.2,286.0 236.1,286.0 251.1,286.0 266.0,286.0 280.9,286.0 295.9,286.0 310.8,286.0 325.7,286.0 340.7,286.0 355.6,286.0 370.5,286.0 385.5,286.0 400.4,286.0 415.3,286.0 430.3,286.0 445.2,286.0 460.1,286.0 475.1,286.0 490.0,286.0 504.9,286.0 519.9,286.0 534.8,286.0 549.7,286.0 564.7,286.0 579.6,286.0 594.5,286.0 609.5,286.0 624.4,286.0 639.3,286.0 654.3,286.0 669.2,286.0 684.1,286.0 699.1,286.0 714.0,286.0 728.9,286.0 743.9,286.0 758.8,286.0 773.7,286.0 788.7,286.0 803.6,286.0 818.5,279.8 833.5,286.0 848.4,286.0 863.3,286.0 878.3,286.0 893.2,286.0 908.1,286.0 923.1,286.0 938.0,286.0"/><text x="42" y="308" font-size="11" fill="#9fb0d4">19/06 15:39</text><text x="938" y="308" text-anchor="end" font-size="11" fill="#9fb0d4">19/07 02:31</text></svg>