<svg xmlns="http://www.w3.org/2000/svg" viewBox="0 0 960 320" width="960" height="320" font-family="Segoe UI, system-ui, -apple-system, Roboto, Helvetica, Arial, sans-serif" role="img" aria-label="Availability history per region"><rect x="0.5" y="0.5" width="959" height="319" rx="14" fill="#0d1117" stroke="#2c3a5e"/><text x="42" y="26" font-size="14" font-weight="600" fill="#e6ecff">History · 334 points</text><circle cx="47" cy="40" r="5" fill="#22c55e"/><text x="57" y="44" font-size="12" fill="#9fb0d4">Available</text><circle cx="139.8" cy="40" r="5" fill="#f59e0b"/><text x="149.8" y="44" font-size="12" fill="#9fb0d4">Saturated</text><circle cx="232.60000000000002" cy="40" r="5" fill="#ef4444"/><text x="242.60000000000002" y="44" font-size="12" fill="#9fb0d4">Error</text><circle cx="296.6" cy="40" r="5" fill="#a855f7"/><text x="306.6" y="44" font-size="12" fill="#9fb0d4">Timeout</text><line x1="42" y1="286.0" x2="938" y2="286.0" stroke="#21304f" stroke-width="1"/><text x="35" y="289.0" text-anchor="end" font-size="11" fill="#9fb0d4">0</text><line x1="42" y1="227.5" x2="938" y2="227.5" stroke="#21304f" stroke-width="1"/><text x="35" y="230.5" text-anchor="end" font-size="11" fill="#9fb0d4">10</text><line x1="42" y1="169.0" x2="938" y2="169.0" stroke="#21304f" stroke-width="1"/><text x="35" y="172.0" text-anchor="end" font-size="11" fill="#9fb0d4">20</text><line x1="42" y1="110.5" x2="938" y2="110.5" stroke="#21304f" stroke-width="1"/><text x="35" y="113.5" text-anchor="end" font-size="11" fill="#9fb0d4">29</text><line x1="42" y1="52.0" x2="938" y2="52.0" stroke="#21304f" stroke-width="1"/><text x="35" y="55.0" text-anchor="end" font-size="11" fill="#9fb0d4">39</text><polyline fill="none" stroke="#22c55e" stroke-width="2.5" stroke-linejoin="round" stroke-linecap="round" points="42.0,70.0 44.7,70.0 47.4,88.0 50.1,88.0 52.8,76.0 55.5,76.0 58.1,76.0 60.8,70.0 63.5,76.0 66.2,70.0 68.9,64.0 71.6,58.0 74.3,58.0 77.0,58.0 79.7,58.0 82.4,58.0 85.1,58.0 87.7,58.0 90.4,58.0 93.1,58.0 95.8,58.0 98.5,58.0 101.2,58.0 103.9,58.0 106.6,58.0 109.3,58.0 112.0,58.0 114.6,58.0 117.3,58.0 120.0,58.0 122.7,58.0 125.4,70.0 128.1,76.0 130.8,94.0 133.5,64.0 136.2,64.0 138.9,58.0 141.6,58.0 144.2,58.0 146.9,70.0 149.6,76.0 152.3,76.0 155.0,82.0 157.7,82.0 160.4,82.0 163.1,82.0 165.8,76.0 168.5,64.0 171.2,70.0 173.8,70.0 176.5,82.0 179.2,76.0 181.9,76.0 184.6,82.0 187.3,76.0 190.0,76.0 192.7,76.0 195.4,64.0 198.1,64.0 200.8,76.0 203.4,76.0 206.1,76.0 208.8,88.0 211.5,70.0 214.2,64.0 216.9,58.0 219.6,58.0 222.3,70.0 225.0,70.0 227.7,70.0 230.3,76.0 233.0,70.0 235.7,70.0 238.4,70.0 241.1,70.0 243.8,76.0 246.5,82.0 249.2,76.0 251.9,70.0 254.6,70.0 257.3,70.0 259.9,70.0 262.6,76.0 265.3,70.0 268.0,70.0 270.7,70.0 273.4,70.0 276.1,70.0 278.8,70.0 281.5,70.0 284.2,70.0 286.9,70.0 289.5,70.0 292.2,70.0 294.9,70.0 297.6,70.0 300.3,70.0 303.0,70.0 305.7,70.0 308.4,70.0 311.1,70.0 313.8,70.0 316.5,70.0 319.1,70.0 321.8,70.0 324.5,70.0 327.2,70.0 329.9,70.0 332.6,70.0 335.3,70.0 338.0,70.0 340.7,70.0 343.4,70.0 346.0,70.0 348.7,70.0 351.4,70.0 354.1,70.0 356.8,70.0 359.5,70.0 362.2,70.0 364.9,70.0 367.6,70.0 370.3,70.0 373.0,70.0 375.6,70.0 378.3,70.0 381.0,70.0 383.7,70.0 386.4,70.0 389.1,70.0 391.8,70.0 394.5,70.0 397.2,70.0 399.9,70.0 402.6,70.0 405.2,70.0 407.9,70.0 410.6,70.0 413.3,70.0 416.0,70.0 418.7,70.0 421.4,70.0 424.1,70.0 426.8,70.0 429.5,70.0 432.2,70.0 434.8,70.0 437.5,70.0 440.2,70.0 442.9,70.0 445.6,70.0 448.3,76.0 451.0,70.0 453.7,70.0 456.4,70.0 459.1,70.0 461.7,70.0 464.4,76.0 467.1,76.0 469.8,88.0 472.5,88.0 475.2,88.0 477.9,94.0 480.6,94.0 483.3,94.0 486.0,94.0 488.7,88.0 491.3,88.0 494.0,82.0 496.7,82.0 499.4,82.0 502.1,88.0 504.8,88.0 507.5,94.0 510.2,82.0 512.9,82.0 515.6,82.0 518.3,82.0 520.9,88.0 523.6,88.0 526.3,94.0 529.0,94.0 531.7,88.0 534.4,88.0 537.1,88.0 539.8,94.0 542.5,94.0 545.2,106.0 547.8,94.0 550.5,94.0 553.2,94.0 555.9,94.0 558.6,88.0 561.3,88.0 564.0,82.0 566.7,76.0 569.4,76.0 572.1,76.0 574.8,76.0 577.4,76.0 580.1,76.0 582.8,70.0 585.5,70.0 588.2,70.0 590.9,76.0 593.6,88.0 596.3,82.0 599.0,70.0 601.7,70.0 604.4,70.0 607.0,76.0 609.7,76.0 612.4,76.0 615.1,82.0 617.8,70.0 620.5,76.0 623.2,64.0 625.9,70.0 628.6,58.0 631.3,58.0 634.0,58.0 636.6,58.0 639.3,58.0 642.0,64.0 644.7,58.0 647.4,64.0 650.1,58.0 652.8,58.0 655.5,58.0 658.2,58.0 660.9,64.0 663.5,64.0 666.2,64.0 668.9,76.0 671.6,70.0 674.3,82.0 677.0,70.0 679.7,76.0 682.4,58.0 685.1,64.0 687.8,58.0 690.5,64.0 693.1,58.0 695.8,58.0 698.5,58.0 701.2,64.0 703.9,70.0 706.6,64.0 709.3,64.0 712.0,64.0 714.7,70.0 717.4,70.0 720.1,64.0 722.7,70.0 725.4,70.0 728.1,70.0 730.8,58.0 733.5,58.0 736.2,58.0 738.9,58.0 741.6,58.0 744.3,64.0 747.0,58.0 749.7,58.0 752.3,58.0 755.0,58.0 757.7,58.0 760.4,58.0 763.1,58.0 765.8,58.0 768.5,64.0 771.2,58.0 773.9,58.0 776.6,58.0 779.2,58.0 781.9,58.0 784.6,58.0 787.3,58.0 790.0,64.0 792.7,58.0 795.4,58.0 798.1,58.0 800.8,58.0 803.5,58.0 806.2,58.0 808.8,58.0 811.5,58.0 814.2,58.0 816.9,58.0 819.6,58.0 822.3,58.0 825.0,58.0 827.7,58.0 830.4,58.0 833.1,58.0 835.8,58.0 838.4,58.0 841.1,58.0 843.8,64.0 846.5,64.0 849.2,58.0 851.9,58.0 854.6,58.0 857.3,64.0 860.0,64.0 862.7,76.0 865.4,64.0 868.0,64.0 870.7,70.0 873.4,58.0 876.1,58.0 878.8,58.0 881.5,58.0 884.2,58.0 886.9,58.0 889.6,70.0 892.3,64.0 894.9,64.0 897.6,64.0 900.3,64.0 903.0,70.0 905.7,70.0 908.4,76.0 911.1,76.0 913.8,82.0 916.5,88.0 919.2,82.0 921.9,82.0 924.5,88.0 927.2,82.0 929.9,76.0 932.6,76.0 935.3,70.0 938.0,64.0"/><polyline fill="none" stroke="#f59e0b" stroke-width="2.5" stroke-linejoin="round" stroke-linecap="round" points="42.0,274.0 44.7,274.0 47.4,274.0 50.1,280.0 52.8,268.0 55.5,268.0 58.1,268.0 60.8,274.0 63.5,274.0 66.2,274.0 68.9,280.0 71.6,286.0 74.3,286.0 77.0,286.0 79.7,286.0 82.4,286.0 85.1,286.0 87.7,286.0 90.4,286.0 93.1,286.0 95.8,286.0 98.5,286.0 101.2,286.0 103.9,286.0 106.6,286.0 109.3,286.0 112.0,286.0 114.6,286.0 117.3,286.0 120.0,286.0 122.7,286.0 125.4,274.0 128.1,280.0 130.8,280.0 133.5,280.0 136.2,280.0 138.9,286.0 141.6,286.0 144.2,286.0 146.9,274.0 149.6,268.0 152.3,268.0 155.0,262.0 157.7,262.0 160.4,262.0 163.1,262.0 165.8,268.0 168.5,280.0 171.2,280.0 173.8,274.0 176.5,262.0 179.2,268.0 181.9,268.0 184.6,262.0 187.3,268.0 190.0,268.0 192.7,268.0 195.4,280.0 198.1,280.0 200.8,268.0 203.4,268.0 206.1,268.0 208.8,262.0 211.5,274.0 214.2,280.0 216.9,286.0 219.6,286.0 222.3,274.0 225.0,274.0 227.7,274.0 230.3,274.0 233.0,274.0 235.7,274.0 238.4,274.0 241.1,274.0 243.8,280.0 246.5,274.0 249.2,280.0 251.9,286.0 254.6,286.0 257.3,286.0 259.9,286.0 262.6,280.0 265.3,286.0 268.0,286.0 270.7,286.0 273.4,286.0 276.1,286.0 278.8,286.0 281.5,286.0 284.2,286.0 286.9,286.0 289.5,286.0 292.2,286.0 294.9,286.0 297.6,286.0 300.3,286.0 303.0,286.0 305.7,286.0 308.4,286.0 311.1,286.0 313.8,286.0 316.5,286.0 319.1,286.0 321.8,286.0 324.5,286.0 327.2,286.0 329.9,286.0 332.6,286.0 335.3,286.0 338.0,286.0 340.7,286.0 343.4,286.0 346.0,286.0 348.7,286.0 351.4,286.0 354.1,286.0 356.8,286.0 359.5,286.0 362.2,286.0 364.9,286.0 367.6,286.0 370.3,286.0 373.0,286.0 375.6,286.0 378.3,286.0 381.0,286.0 383.7,286.0 386.4,286.0 389.1,286.0 391.8,286.0 394.5,286.0 397.2,286.0 399.9,286.0 402.6,286.0 405.2,286.0 407.9,286.0 410.6,286.0 413.3,286.0 416.0,286.0 418.7,286.0 421.4,286.0 424.1,286.0 426.8,286.0 429.5,286.0 432.2,286.0 434.8,286.0 437.5,286.0 440.2,286.0 442.9,286.0 445.6,286.0 448.3,286.0 451.0,286.0 453.7,286.0 456.4,286.0 459.1,286.0 461.7,286.0 464.4,286.0 467.1,280.0 469.8,268.0 472.5,268.0 475.2,268.0 477.9,268.0 480.6,262.0 483.3,262.0 486.0,262.0 488.7,268.0 491.3,268.0 494.0,274.0 496.7,274.0 499.4,274.0 502.1,268.0 504.8,268.0 507.5,268.0 510.2,274.0 512.9,274.0 515.6,274.0 518.3,274.0 520.9,268.0 523.6,268.0 526.3,262.0 529.0,262.0 531.7,268.0 534.4,268.0 537.1,268.0 539.8,262.0 542.5,262.0 545.2,274.0 547.8,262.0 550.5,262.0 553.2,262.0 555.9,262.0 558.6,268.0 561.3,268.0 564.0,274.0 566.7,280.0 569.4,280.0 572.1,280.0 574.8,280.0 577.4,280.0 580.1,280.0 582.8,286.0 585.5,286.0 588.2,286.0 590.9,280.0 593.6,274.0 596.3,274.0 599.0,280.0 601.7,274.0 604.4,274.0 607.0,268.0 609.7,268.0 612.4,268.0 615.1,268.0 617.8,280.0 620.5,274.0 623.2,280.0 625.9,280.0 628.6,286.0 631.3,286.0 634.0,286.0 636.6,286.0 639.3,286.0 642.0,286.0 644.7,286.0 647.4,286.0 650.1,286.0 652.8,286.0 655.5,286.0 658.2,286.0 660.9,280.0 663.5,280.0 666.2,280.0 668.9,268.0 671.6,280.0 674.3,268.0 677.0,274.0 679.7,274.0 682.4,286.0 685.1,280.0 687.8,286.0 690.5,280.0 693.1,286.0 695.8,286.0 698.5,286.0 701.2,280.0 703.9,274.0 706.6,280.0 709.3,280.0 712.0,280.0 714.7,274.0 717.4,274.0 720.1,280.0 722.7,280.0 725.4,280.0 728.1,280.0 730.8,286.0 733.5,286.0 736.2,286.0 738.9,286.0 741.6,286.0 744.3,286.0 747.0,286.0 749.7,286.0 752.3,286.0 755.0,286.0 757.7,286.0 760.4,286.0 763.1,286.0 765.8,286.0 768.5,286.0 771.2,286.0 773.9,286.0 776.6,286.0 779.2,286.0 781.9,286.0 784.6,286.0 787.3,286.0 790.0,286.0 792.7,286.0 795.4,286.0 798.1,286.0 800.8,286.0 803.5,286.0 806.2,286.0 808.8,286.0 811.5,286.0 814.2,286.0 816.9,286.0 819.6,286.0 822.3,286.0 825.0,286.0 827.7,286.0 830.4,286.0 833.1,286.0 835.8,286.0 838.4,286.0 841.1,286.0 843.8,286.0 846.5,286.0 849.2,286.0 851.9,286.0 854.6,286.0 857.3,280.0 860.0,280.0 862.7,280.0 865.4,280.0 868.0,280.0 870.7,274.0 873.4,286.0 876.1,286.0 878.8,286.0 881.5,286.0 884.2,286.0 886.9,286.0 889.6,286.0 892.3,280.0 894.9,280.0 897.6,280.0 900.3,280.0 903.0,274.0 905.7,274.0 908.4,268.0 911.1,268.0 913.8,262.0 916.5,262.0 919.2,262.0 921.9,262.0 924.5,262.0 927.2,268.0 929.9,268.0 932.6,268.0 935.3,274.0 938.0,280.0"/><polyline fill="none" stroke="#ef4444" stroke-width="2.5" stroke-linejoin="round" stroke-linecap="round" points="42.0,280.0 44.7,280.0 47.4,268.0 50.1,262.0 52.8,286.0 55.5,286.0 58.1,286.0 60.8,286.0 63.5,280.0 66.2,286.0 68.9,286.0 71.6,286.0 74.3,286.0 77.0,286.0 79.7,286.0 82.4,286.0 85.1,286.0 87.7,286.0 90.4,286.0 93.1,286.0 95.8,286.0 98.5,286.0 101.2,286.0 103.9,286.0 106.6,286.0 109.3,286.0 112.0,286.0 114.6,286.0 117.3,286.0 120.0,286.0 122.7,286.0 125.4,286.0 128.1,274.0 130.8,256.0 133.5,286.0 136.2,286.0 138.9,286.0 141.6,286.0 144.2,286.0 146.9,286.0 149.6,286.0 152.3,286.0 155.0,286.0 157.7,286.0 160.4,286.0 163.1,286.0 165.8,286.0 168.5,286.0 171.2,280.0 173.8,286.0 176.5,286.0 179.2,286.0 181.9,286.0 184.6,286.0 187.3,286.0 190.0,286.0 192.7,286.0 195.4,286.0 198.1,286.0 200.8,286.0 203.4,286.0 206.1,286.0 208.8,280.0 211.5,286.0 214.2,286.0 216.9,286.0 219.6,286.0 222.3,286.0 225.0,286.0 227.7,286.0 230.3,286.0 233.0,286.0 235.7,286.0 238.4,286.0 241.1,286.0 243.8,274.0 246.5,274.0 249.2,274.0 251.9,274.0 254.6,274.0 257.3,274.0 259.9,274.0 262.6,274.0 265.3,274.0 268.0,274.0 270.7,274.0 273.4,274.0 276.1,274.0 278.8,274.0 281.5,274.0 284.2,274.0 286.9,274.0 289.5,274.0 292.2,274.0 294.9,274.0 297.6,274.0 300.3,274.0 303.0,274.0 305.7,274.0 308.4,274.0 311.1,274.0 313.8,274.0 316.5,274.0 319.1,274.0 321.8,274.0 324.5,274.0 327.2,274.0 329.9,274.0 332.6,274.0 335.3,274.0 338.0,274.0 340.7,274.0 343.4,274.0 346.0,274.0 348.7,274.0 351.4,274.0 354.1,274.0 356.8,274.0 359.5,274.0 362.2,274.0 364.9,274.0 367.6,274.0 370.3,274.0 373.0,274.0 375.6,274.0 378.3,274.0 381.0,274.0 383.7,274.0 386.4,274.0 389.1,274.0 391.8,274.0 394.5,274.0 397.2,274.0 399.9,274.0 402.6,274.0 405.2,274.0 407.9,274.0 410.6,274.0 413.3,274.0 416.0,274.0 418.7,274.0 421.4,274.0 424.1,274.0 426.8,274.0 429.5,274.0 432.2,274.0 434.8,274.0 437.5,274.0 440.2,274.0 442.9,274.0 445.6,274.0 448.3,268.0 451.0,274.0 453.7,274.0 456.4,274.0 459.1,274.0 461.7,274.0 464.4,274.0 467.1,274.0 469.8,274.0 472.5,274.0 475.2,274.0 477.9,268.0 480.6,274.0 483.3,274.0 486.0,274.0 488.7,274.0 491.3,274.0 494.0,274.0 496.7,274.0 499.4,274.0 502.1,274.0 504.8,274.0 507.5,268.0 510.2,274.0 512.9,274.0 515.6,274.0 518.3,274.0 520.9,274.0 523.6,274.0 526.3,274.0 529.0,274.0 531.7,274.0 534.4,274.0 537.1,274.0 539.8,274.0 542.5,274.0 545.2,250.0 547.8,274.0 550.5,274.0 553.2,274.0 555.9,274.0 558.6,274.0 561.3,274.0 564.0,274.0 566.7,274.0 569.4,274.0 572.1,274.0 574.8,274.0 577.4,274.0 580.1,274.0 582.8,274.0 585.5,274.0 588.2,274.0 590.9,274.0 593.6,268.0 596.3,274.0 599.0,280.0 601.7,286.0 604.4,286.0 607.0,286.0 609.7,286.0 612.4,286.0 615.1,280.0 617.8,280.0 620.5,286.0 623.2,286.0 625.9,280.0 628.6,286.0 631.3,286.0 634.0,286.0 636.6,286.0 639.3,286.0 642.0,280.0 644.7,286.0 647.4,286.0 650.1,286.0 652.8,286.0 655.5,286.0 658.2,286.0 660.9,286.0 663.5,286.0 666.2,286.0 668.9,286.0 671.6,280.0 674.3,280.0 677.0,286.0 679.7,280.0 682.4,286.0 685.1,286.0 687.8,286.0 690.5,286.0 693.1,286.0 695.8,286.0 698.5,286.0 701.2,286.0 703.9,286.0 706.6,286.0 709.3,286.0 712.0,286.0 714.7,286.0 717.4,286.0 720.1,286.0 722.7,280.0 725.4,286.0 728.1,280.0 730.8,286.0 733.5,286.0 736.2,286.0 738.9,286.0 741.6,286.0 744.3,286.0 747.0,286.0 749.7,286.0 752.3,286.0 755.0,286.0 757.7,286.0 760.4,286.0 763.1,286.0 765.8,286.0 768.5,280.0 771.2,286.0 773.9,286.0 776.6,286.0 779.2,286.0 781.9,286.0 784.6,286.0 787.3,286.0 790.0,286.0 792.7,286.0 795.4,286.0 798.1,286.0 800.8,286.0 803.5,286.0 806.2,286.0 808.8,286.0 811.5,286.0 814.2,286.0 816.9,286.0 819.6,286.0 822.3,286.0 825.0,286.0 827.7,286.0 830.4,286.0 833.1,286.0 835.8,286.0 838.4,286.0 841.1,286.0 843.8,280.0 846.5,280.0 849.2,286.0 851.9,286.0 854.6,286.0 857.3,286.0 860.0,286.0 862.7,274.0 865.4,286.0 868.0,286.0 870.7,286.0 873.4,286.0 876.1,286.0 878.8,286.0 881.5,286.0 884.2,286.0 886.9,286.0 889.6,286.0 892.3,286.0 894.9,286.0 897.6,286.0 900.3,286.0 903.0,286.0 905.7,286.0 908.4,286.0 911.1,286.0 913.8,286.0 916.5,280.0 919.2,286.0 921.9,286.0 924.5,280.0 927.2,280.0 929.9,286.0 932.6,286.0 935.3,286.0 938.0,286.0"/><polyline fill="none" stroke="#a855f7" stroke-width="2.5" stroke-linejoin="round" stroke-linecap="round" points="42.0,286.0 44.7,286.0 47.4,286.0 50.1,286.0 52.8,286.0 55.5,286.0 58.1,286.0 60.8,286.0 63.5,286.0 66.2,286.0 68.9,286.0 71.6,286.0 74.3,286.0 77.0,286.0 79.7,286.0 82.4,286.0 85.1,286.0 87.7,286.0 90.4,286.0 93.1,286.0 95.8,286.0 98.5,286.0 101.2,286.0 103.9,286.0 106.6,286.0 109.3,286.0 112.0,286.0 114.6,286.0 117.3,286.0 120.0,286.0 122.7,286.0 125.4,286.0 128.1,286.0 130.8,286.0 133.5,286.0 136.2,286.0 138.9,286.0 141.6,286.0 144.2,286.0 146.9,286.0 149.6,286.0 152.3,286.0 155.0,286.0 157.7,286.0 160.4,286.0 163.1,286.0 165.8,286.0 168.5,286.0 171.2,286.0 173.8,286.0 176.5,286.0 179.2,286.0 181.9,286.0 184.6,286.0 187.3,286.0 190.0,286.0 192.7,286.0 195.4,286.0 198.1,286.0 200.8,286.0 203.4,286.0 206.1,286.0 208.8,286.0 211.5,286.0 214.2,286.0 216.9,286.0 219.6,286.0 222.3,286.0 225.0,286.0 227.7,286.0 230.3,280.0 233.0,286.0 235.7,286.0 238.4,286.0 241.1,286.0 243.8,286.0 246.5,286.0 249.2,286.0 251.9,286.0 254.6,286.0 257.3,286.0 259.9,286.0 262.6,286.0 265.3,286.0 268.0,286.0 270.7,286.0 273.4,286.0 276.1,286.0 278.8,286.0 281.5,286.0 284.2,286.0 286.9,286.0 289.5,286.0 292.2,286.0 294.9,286.0 297.6,286.0 300.3,286.0 303.0,286.0 305.7,286.0 308.4,286.0 311.1,286.0 313.8,286.0 316.5,286.0 319.1,286.0 321.8,286.0 324.5,286.0 327.2,286.0 329.9,286.0 332.6,286.0 335.3,286.0 338.0,286.0 340.7,286.0 343.4,286.0 346.0,286.0 348.7,286.0 351.4,286.0 354.1,286.0 356.8,286.0 359.5,286.0 362.2,286.0 364.9,286.0 367.6,286.0 370.3,286.0 373.0,286.0 375.6,286.0 378.3,286.0 381.0,286.0 383.7,286.0 386.4,286.0 389.1,286.0 391.8,286.0 394.5,286.0 397.2,286.0 399.9,286.0 402.6,286.0 405.2,286.0 407.9,286.0 410.6,286.0 413.3,286.0 416.0,286.0 418.7,286.0 421.4,286.0 424.1,286.0 426.8,286.0 429.5,286.0 432.2,286.0 434.8,286.0 437.5,286.0 440.2,286.0 442.9,286.0 445.6,286.0 448.3,286.0 451.0,286.0 453.7,286.0 456.4,286.0 459.1,286.0 461.7,286.0 464.4,280.0 467.1,286.0 469.8,286.0 472.5,286.0 475.2,286.0 477.9,286.0 480.6,286.0 483.3,286.0 486.0,286.0 488.7,286.0 491.3,286.0 494.0,286.0 496.7,286.0 499.4,286.0 502.1,286.0 504.8,286.0 507.5,286.0 510.2,286.0 512.9,286.0 515.6,286.0 518.3,286.0 520.9,286.0 523.6,286.0 526.3,286.0 529.0,286.0 531.7,286.0 534.4,286.0 537.1,286.0 539.8,286.0 542.5,286.0 545.2,286.0 547.8,286.0 550.5,286.0 553.2,286.0 555.9,286.0 558.6,286.0 561.3,286.0 564.0,286.0 566.7,286.0 569.4,286.0 572.1,286.0 574.8,286.0 577.4,286.0 580.1,286.0 582.8,286.0 585.5,286.0 588.2,286.0 590.9,286.0 593.6,286.0 596.3,286.0 599.0,286.0 601.7,286.0 604.4,286.0 607.0,286.0 609.7,286.0 612.4,286.0 615.1,286.0 617.8,286.0 620.5,280.0 623.2,286.0 625.9,286.0 628.6,286.0 631.3,286.0 634.0,286.0 636.6,286.0 639.3,286.0 642.0,286.0 644.7,286.0 647.4,280.0 650.1,286.0 652.8,286.0 655.5,286.0 658.2,286.0 660.9,286.0 663.5,286.0 666.2,286.0 668.9,286.0 671.6,286.0 674.3,286.0 677.0,286.0 679.7,286.0 682.4,286.0 685.1,286.0 687.8,286.0 690.5,286.0 693.1,286.0 695.8,286.0 698.5,286.0 701.2,286.0 703.9,286.0 706.6,286.0 709.3,286.0 712.0,286.0 714.7,286.0 717.4,286.0 720.1,286.0 722.7,286.0 725.4,280.0 728.1,286.0 730.8,286.0 733.5,286.0 736.2,286.0 738.9,286.0 741.6,286.0 744.3,280.0 747.0,286.0 749.7,286.0 752.3,286.0 755.0,286.0 757.7,286.0 760.4,286.0 763.1,286.0 765.8,286.0 768.5,286.0 771.2,286.0 773.9,286.0 776.6,286.0 779.2,286.0 781.9,286.0 784.6,286.0 787.3,286.0 790.0,280.0 792.7,286.0 795.4,286.0 798.1,286.0 800.8,286.0 803.5,286.0 806.2,286.0 808.8,286.0 811.5,286.0 814.2,286.0 816.9,286.0 819.6,286.0 822.3,286.0 825.0,286.0 827.7,286.0 830.4,286.0 833.1,286.0 835.8,286.0 838.4,286.0 841.1,286.0 843.8,286.0 846.5,286.0 849.2,286.0 851.9,286.0 854.6,286.0 857.3,286.0 860.0,286.0 862.7,286.0 865.4,286.0 868.0,286.0 870.7,286.0 873.4,286.0 876.1,286.0 878.8,286.0 881.5,286.0 884.2,286.0 886.9,286.0 889.6,274.0 892.3,286.0 894.9,286.0 897.6,286.0 900.3,286.0 903.0,286.0 905.7,286.0 908.4,286.0 911.1,286.0 913.8,286.0 916.5,286.0 919.2,286.0 921.9,286.0 924.5,286.0 927.2,286.0 929.9,286.0 932.6,286.0 935.3,286.0 938.0,286.0"/><text x="42" y="308" font-size="11" fill="#9fb0d4">19/06 12:43</text><text x="938" y="308" text-anchor="end" font-size="11" fill="#9fb0d4">07/07 19:40</text></svg>