<svg xmlns="http://www.w3.org/2000/svg" viewBox="0 0 960 320" width="960" height="320" font-family="Segoe UI, system-ui, -apple-system, Roboto, Helvetica, Arial, sans-serif" role="img" aria-label="Availability history per region"><rect x="0.5" y="0.5" width="959" height="319" rx="14" fill="#ffffff" stroke="#dce3f1"/><text x="42" y="26" font-size="14" font-weight="600" fill="#14203a">History · 115 points</text><circle cx="47" cy="40" r="5" fill="#22c55e"/><text x="57" y="44" font-size="12" fill="#5a688a">Available</text><circle cx="139.8" cy="40" r="5" fill="#f59e0b"/><text x="149.8" y="44" font-size="12" fill="#5a688a">Saturated</text><circle cx="232.60000000000002" cy="40" r="5" fill="#ef4444"/><text x="242.60000000000002" y="44" font-size="12" fill="#5a688a">Error</text><circle cx="296.6" cy="40" r="5" fill="#a855f7"/><text x="306.6" y="44" font-size="12" fill="#5a688a">Timeout</text><line x1="42" y1="286.0" x2="938" y2="286.0" stroke="#eef2f7" stroke-width="1"/><text x="35" y="289.0" text-anchor="end" font-size="11" fill="#5a688a">0</text><line x1="42" y1="227.5" x2="938" y2="227.5" stroke="#eef2f7" stroke-width="1"/><text x="35" y="230.5" text-anchor="end" font-size="11" fill="#5a688a">10</text><line x1="42" y1="169.0" x2="938" y2="169.0" stroke="#eef2f7" stroke-width="1"/><text x="35" y="172.0" text-anchor="end" font-size="11" fill="#5a688a">19</text><line x1="42" y1="110.5" x2="938" y2="110.5" stroke="#eef2f7" stroke-width="1"/><text x="35" y="113.5" text-anchor="end" font-size="11" fill="#5a688a">28</text><line x1="42" y1="52.0" x2="938" y2="52.0" stroke="#eef2f7" stroke-width="1"/><text x="35" y="55.0" text-anchor="end" font-size="11" fill="#5a688a">38</text><polyline fill="none" stroke="#22c55e" stroke-width="2.5" stroke-linejoin="round" stroke-linecap="round" points="42.0,64.3 49.9,224.4 57.7,82.8 65.6,88.9 73.4,82.8 81.3,76.6 89.2,76.6 97.0,76.6 104.9,76.6 112.7,76.6 120.6,76.6 128.5,76.6 136.3,76.6 144.2,76.6 152.0,76.6 159.9,70.5 167.8,70.5 175.6,82.8 183.5,82.8 191.3,82.8 199.2,88.9 207.1,88.9 214.9,88.9 222.8,88.9 230.6,88.9 238.5,88.9 246.4,88.9 254.2,88.9 262.1,88.9 269.9,82.8 277.8,82.8 285.6,82.8 293.5,82.8 301.4,76.6 309.2,76.6 317.1,76.6 324.9,76.6 332.8,76.6 340.7,82.8 348.5,82.8 356.4,82.8 364.2,82.8 372.1,76.6 380.0,76.6 387.8,76.6 395.7,76.6 403.5,76.6 411.4,76.6 419.3,76.6 427.1,82.8 435.0,82.8 442.8,82.8 450.7,82.8 458.6,76.6 466.4,76.6 474.3,76.6 482.1,76.6 490.0,76.6 497.9,76.6 505.7,76.6 513.6,76.6 521.4,82.8 529.3,76.6 537.2,76.6 545.0,76.6 552.9,76.6 560.7,76.6 568.6,82.8 576.5,76.6 584.3,76.6 592.2,76.6 600.0,76.6 607.9,76.6 615.8,76.6 623.6,76.6 631.5,76.6 639.3,76.6 647.2,70.5 655.1,70.5 662.9,70.5 670.8,70.5 678.6,76.6 686.5,70.5 694.4,76.6 702.2,76.6 710.1,76.6 717.9,76.6 725.8,76.6 733.6,76.6 741.5,82.8 749.4,88.9 757.2,88.9 765.1,88.9 772.9,88.9 780.8,88.9 788.7,88.9 796.5,88.9 804.4,95.1 812.2,88.9 820.1,88.9 828.0,88.9 835.8,88.9 843.7,88.9 851.5,88.9 859.4,82.8 867.3,82.8 875.1,82.8 883.0,82.8 890.8,82.8 898.7,82.8 906.6,82.8 914.4,82.8 922.3,88.9 930.1,88.9 938.0,88.9"/><polyline fill="none" stroke="#f59e0b" stroke-width="2.5" stroke-linejoin="round" stroke-linecap="round" points="42.0,273.7 49.9,267.5 57.7,255.2 65.6,249.1 73.4,255.2 81.3,261.4 89.2,261.4 97.0,261.4 104.9,261.4 112.7,261.4 120.6,261.4 128.5,261.4 136.3,261.4 144.2,261.4 152.0,261.4 159.9,267.5 167.8,267.5 175.6,261.4 183.5,255.2 191.3,255.2 199.2,249.1 207.1,249.1 214.9,249.1 222.8,249.1 230.6,249.1 238.5,249.1 246.4,249.1 254.2,249.1 262.1,249.1 269.9,255.2 277.8,255.2 285.6,255.2 293.5,255.2 301.4,261.4 309.2,261.4 317.1,261.4 324.9,261.4 332.8,261.4 340.7,255.2 348.5,255.2 356.4,255.2 364.2,255.2 372.1,261.4 380.0,261.4 387.8,261.4 395.7,261.4 403.5,261.4 411.4,261.4 419.3,261.4 427.1,255.2 435.0,255.2 442.8,255.2 450.7,261.4 458.6,261.4 466.4,261.4 474.3,261.4 482.1,261.4 490.0,261.4 497.9,261.4 505.7,261.4 513.6,261.4 521.4,255.2 529.3,261.4 537.2,261.4 545.0,261.4 552.9,261.4 560.7,261.4 568.6,261.4 576.5,261.4 584.3,261.4 592.2,261.4 600.0,261.4 607.9,261.4 615.8,261.4 623.6,261.4 631.5,261.4 639.3,261.4 647.2,267.5 655.1,267.5 662.9,267.5 670.8,267.5 678.6,267.5 686.5,267.5 694.4,261.4 702.2,261.4 710.1,261.4 717.9,261.4 725.8,261.4 733.6,261.4 741.5,255.2 749.4,249.1 757.2,249.1 765.1,255.2 772.9,249.1 780.8,249.1 788.7,249.1 796.5,249.1 804.4,249.1 812.2,249.1 820.1,255.2 828.0,249.1 835.8,249.1 843.7,249.1 851.5,249.1 859.4,255.2 867.3,255.2 875.1,255.2 883.0,255.2 890.8,255.2 898.7,255.2 906.6,255.2 914.4,255.2 922.3,249.1 930.1,249.1 938.0,249.1"/><polyline fill="none" stroke="#ef4444" stroke-width="2.5" stroke-linejoin="round" stroke-linecap="round" points="42.0,286.0 49.9,132.1 57.7,286.0 65.6,286.0 73.4,286.0 81.3,286.0 89.2,286.0 97.0,286.0 104.9,286.0 112.7,286.0 120.6,286.0 128.5,286.0 136.3,286.0 144.2,286.0 152.0,286.0 159.9,286.0 167.8,286.0 175.6,279.8 183.5,286.0 191.3,286.0 199.2,286.0 207.1,286.0 214.9,286.0 222.8,286.0 230.6,286.0 238.5,286.0 246.4,286.0 254.2,286.0 262.1,286.0 269.9,286.0 277.8,286.0 285.6,286.0 293.5,286.0 301.4,286.0 309.2,286.0 317.1,286.0 324.9,286.0 332.8,286.0 340.7,286.0 348.5,286.0 356.4,286.0 364.2,286.0 372.1,286.0 380.0,286.0 387.8,286.0 395.7,286.0 403.5,286.0 411.4,286.0 419.3,286.0 427.1,286.0 435.0,286.0 442.8,286.0 450.7,286.0 458.6,286.0 466.4,286.0 474.3,286.0 482.1,286.0 490.0,286.0 497.9,286.0 505.7,286.0 513.6,286.0 521.4,286.0 529.3,286.0 537.2,286.0 545.0,286.0 552.9,286.0 560.7,286.0 568.6,279.8 576.5,286.0 584.3,286.0 592.2,286.0 600.0,286.0 607.9,286.0 615.8,286.0 623.6,286.0 631.5,286.0 639.3,286.0 647.2,286.0 655.1,286.0 662.9,286.0 670.8,286.0 678.6,279.8 686.5,286.0 694.4,286.0 702.2,286.0 710.1,286.0 717.9,286.0 725.8,286.0 733.6,286.0 741.5,286.0 749.4,286.0 757.2,286.0 765.1,279.8 772.9,286.0 780.8,286.0 788.7,286.0 796.5,286.0 804.4,279.8 812.2,286.0 820.1,286.0 828.0,286.0 835.8,286.0 843.7,286.0 851.5,286.0 859.4,286.0 867.3,286.0 875.1,286.0 883.0,286.0 890.8,286.0 898.7,286.0 906.6,286.0 914.4,286.0 922.3,286.0 930.1,286.0 938.0,286.0"/><polyline fill="none" stroke="#a855f7" stroke-width="2.5" stroke-linejoin="round" stroke-linecap="round" points="42.0,286.0 49.9,286.0 57.7,286.0 65.6,286.0 73.4,286.0 81.3,286.0 89.2,286.0 97.0,286.0 104.9,286.0 112.7,286.0 120.6,286.0 128.5,286.0 136.3,286.0 144.2,286.0 152.0,286.0 159.9,286.0 167.8,286.0 175.6,286.0 183.5,286.0 191.3,286.0 199.2,286.0 207.1,286.0 214.9,286.0 222.8,286.0 230.6,286.0 238.5,286.0 246.4,286.0 254.2,286.0 262.1,286.0 269.9,286.0 277.8,286.0 285.6,286.0 293.5,286.0 301.4,286.0 309.2,286.0 317.1,286.0 324.9,286.0 332.8,286.0 340.7,286.0 348.5,286.0 356.4,286.0 364.2,286.0 372.1,286.0 380.0,286.0 387.8,286.0 395.7,286.0 403.5,286.0 411.4,286.0 419.3,286.0 427.1,286.0 435.0,286.0 442.8,286.0 450.7,279.8 458.6,286.0 466.4,286.0 474.3,286.0 482.1,286.0 490.0,286.0 497.9,286.0 505.7,286.0 513.6,286.0 521.4,286.0 529.3,286.0 537.2,286.0 545.0,286.0 552.9,286.0 560.7,286.0 568.6,286.0 576.5,286.0 584.3,286.0 592.2,286.0 600.0,286.0 607.9,286.0 615.8,286.0 623.6,286.0 631.5,286.0 639.3,286.0 647.2,286.0 655.1,286.0 662.9,286.0 670.8,286.0 678.6,286.0 686.5,286.0 694.4,286.0 702.2,286.0 710.1,286.0 717.9,286.0 725.8,286.0 733.6,286.0 741.5,286.0 749.4,286.0 757.2,286.0 765.1,286.0 772.9,286.0 780.8,286.0 788.7,286.0 796.5,286.0 804.4,286.0 812.2,286.0 820.1,279.8 828.0,286.0 835.8,286.0 843.7,286.0 851.5,286.0 859.4,286.0 867.3,286.0 875.1,286.0 883.0,286.0 890.8,286.0 898.7,286.0 906.6,286.0 914.4,286.0 922.3,286.0 930.1,286.0 938.0,286.0"/><text x="42" y="308" font-size="11" fill="#5a688a">19/06 15:39</text><text x="938" y="308" text-anchor="end" font-size="11" fill="#5a688a">21/07 09:29</text></svg>