<svg xmlns="http://www.w3.org/2000/svg" viewBox="0 0 960 320" width="960" height="320" font-family="Segoe UI, system-ui, -apple-system, Roboto, Helvetica, Arial, sans-serif" role="img" aria-label="Availability history per region"><rect x="0.5" y="0.5" width="959" height="319" rx="14" fill="#0d1117" stroke="#2c3a5e"/><text x="42" y="26" font-size="14" font-weight="600" fill="#e6ecff">History · 65 points</text><circle cx="47" cy="40" r="5" fill="#22c55e"/><text x="57" y="44" font-size="12" fill="#9fb0d4">Available</text><circle cx="139.8" cy="40" r="5" fill="#f59e0b"/><text x="149.8" y="44" font-size="12" fill="#9fb0d4">Saturated</text><circle cx="232.60000000000002" cy="40" r="5" fill="#ef4444"/><text x="242.60000000000002" y="44" font-size="12" fill="#9fb0d4">Error</text><line x1="42" y1="286.0" x2="938" y2="286.0" stroke="#21304f" stroke-width="1"/><text x="35" y="289.0" text-anchor="end" font-size="11" fill="#9fb0d4">0</text><line x1="42" y1="227.5" x2="938" y2="227.5" stroke="#21304f" stroke-width="1"/><text x="35" y="230.5" text-anchor="end" font-size="11" fill="#9fb0d4">10</text><line x1="42" y1="169.0" x2="938" y2="169.0" stroke="#21304f" stroke-width="1"/><text x="35" y="172.0" text-anchor="end" font-size="11" fill="#9fb0d4">20</text><line x1="42" y1="110.5" x2="938" y2="110.5" stroke="#21304f" stroke-width="1"/><text x="35" y="113.5" text-anchor="end" font-size="11" fill="#9fb0d4">29</text><line x1="42" y1="52.0" x2="938" y2="52.0" stroke="#21304f" stroke-width="1"/><text x="35" y="55.0" text-anchor="end" font-size="11" fill="#9fb0d4">39</text><polyline fill="none" stroke="#22c55e" stroke-width="2.5" stroke-linejoin="round" stroke-linecap="round" points="42.0,70.0 56.0,70.0 70.0,88.0 84.0,88.0 98.0,76.0 112.0,76.0 126.0,76.0 140.0,70.0 154.0,76.0 168.0,70.0 182.0,64.0 196.0,58.0 210.0,58.0 224.0,58.0 238.0,58.0 252.0,58.0 266.0,58.0 280.0,58.0 294.0,58.0 308.0,58.0 322.0,58.0 336.0,58.0 350.0,58.0 364.0,58.0 378.0,58.0 392.0,58.0 406.0,58.0 420.0,58.0 434.0,58.0 448.0,58.0 462.0,58.0 476.0,70.0 490.0,76.0 504.0,94.0 518.0,64.0 532.0,64.0 546.0,58.0 560.0,58.0 574.0,58.0 588.0,70.0 602.0,76.0 616.0,76.0 630.0,82.0 644.0,82.0 658.0,82.0 672.0,82.0 686.0,76.0 700.0,64.0 714.0,70.0 728.0,70.0 742.0,82.0 756.0,76.0 770.0,76.0 784.0,82.0 798.0,76.0 812.0,76.0 826.0,76.0 840.0,64.0 854.0,64.0 868.0,76.0 882.0,76.0 896.0,76.0 910.0,88.0 924.0,70.0 938.0,64.0"/><polyline fill="none" stroke="#f59e0b" stroke-width="2.5" stroke-linejoin="round" stroke-linecap="round" points="42.0,274.0 56.0,274.0 70.0,274.0 84.0,280.0 98.0,268.0 112.0,268.0 126.0,268.0 140.0,274.0 154.0,274.0 168.0,274.0 182.0,280.0 196.0,286.0 210.0,286.0 224.0,286.0 238.0,286.0 252.0,286.0 266.0,286.0 280.0,286.0 294.0,286.0 308.0,286.0 322.0,286.0 336.0,286.0 350.0,286.0 364.0,286.0 378.0,286.0 392.0,286.0 406.0,286.0 420.0,286.0 434.0,286.0 448.0,286.0 462.0,286.0 476.0,274.0 490.0,280.0 504.0,280.0 518.0,280.0 532.0,280.0 546.0,286.0 560.0,286.0 574.0,286.0 588.0,274.0 602.0,268.0 616.0,268.0 630.0,262.0 644.0,262.0 658.0,262.0 672.0,262.0 686.0,268.0 700.0,280.0 714.0,280.0 728.0,274.0 742.0,262.0 756.0,268.0 770.0,268.0 784.0,262.0 798.0,268.0 812.0,268.0 826.0,268.0 840.0,280.0 854.0,280.0 868.0,268.0 882.0,268.0 896.0,268.0 910.0,262.0 924.0,274.0 938.0,280.0"/><polyline fill="none" stroke="#ef4444" stroke-width="2.5" stroke-linejoin="round" stroke-linecap="round" points="42.0,280.0 56.0,280.0 70.0,268.0 84.0,262.0 98.0,286.0 112.0,286.0 126.0,286.0 140.0,286.0 154.0,280.0 168.0,286.0 182.0,286.0 196.0,286.0 210.0,286.0 224.0,286.0 238.0,286.0 252.0,286.0 266.0,286.0 280.0,286.0 294.0,286.0 308.0,286.0 322.0,286.0 336.0,286.0 350.0,286.0 364.0,286.0 378.0,286.0 392.0,286.0 406.0,286.0 420.0,286.0 434.0,286.0 448.0,286.0 462.0,286.0 476.0,286.0 490.0,274.0 504.0,256.0 518.0,286.0 532.0,286.0 546.0,286.0 560.0,286.0 574.0,286.0 588.0,286.0 602.0,286.0 616.0,286.0 630.0,286.0 644.0,286.0 658.0,286.0 672.0,286.0 686.0,286.0 700.0,286.0 714.0,280.0 728.0,286.0 742.0,286.0 756.0,286.0 770.0,286.0 784.0,286.0 798.0,286.0 812.0,286.0 826.0,286.0 840.0,286.0 854.0,286.0 868.0,286.0 882.0,286.0 896.0,286.0 910.0,280.0 924.0,286.0 938.0,286.0"/><text x="42" y="308" font-size="11" fill="#9fb0d4">19/06 12:43</text><text x="938" y="308" text-anchor="end" font-size="11" fill="#9fb0d4">25/06 22:59</text></svg>