<svg xmlns="http://www.w3.org/2000/svg" viewBox="0 0 960 320" width="960" height="320" font-family="Segoe UI, system-ui, -apple-system, Roboto, Helvetica, Arial, sans-serif" role="img" aria-label="Availability history per region"><rect x="0.5" y="0.5" width="959" height="319" rx="14" fill="#ffffff" stroke="#dce3f1"/><text x="42" y="26" font-size="14" font-weight="600" fill="#14203a">History · 203 points</text><circle cx="47" cy="40" r="5" fill="#22c55e"/><text x="57" y="44" font-size="12" fill="#5a688a">Available</text><circle cx="139.8" cy="40" r="5" fill="#f59e0b"/><text x="149.8" y="44" font-size="12" fill="#5a688a">Saturated</text><circle cx="232.60000000000002" cy="40" r="5" fill="#ef4444"/><text x="242.60000000000002" y="44" font-size="12" fill="#5a688a">Error</text><circle cx="296.6" cy="40" r="5" fill="#a855f7"/><text x="306.6" y="44" font-size="12" fill="#5a688a">Timeout</text><line x1="42" y1="286.0" x2="938" y2="286.0" stroke="#eef2f7" stroke-width="1"/><text x="35" y="289.0" text-anchor="end" font-size="11" fill="#5a688a">0</text><line x1="42" y1="227.5" x2="938" y2="227.5" stroke="#eef2f7" stroke-width="1"/><text x="35" y="230.5" text-anchor="end" font-size="11" fill="#5a688a">10</text><line x1="42" y1="169.0" x2="938" y2="169.0" stroke="#eef2f7" stroke-width="1"/><text x="35" y="172.0" text-anchor="end" font-size="11" fill="#5a688a">20</text><line x1="42" y1="110.5" x2="938" y2="110.5" stroke="#eef2f7" stroke-width="1"/><text x="35" y="113.5" text-anchor="end" font-size="11" fill="#5a688a">29</text><line x1="42" y1="52.0" x2="938" y2="52.0" stroke="#eef2f7" stroke-width="1"/><text x="35" y="55.0" text-anchor="end" font-size="11" fill="#5a688a">39</text><polyline fill="none" stroke="#22c55e" stroke-width="2.5" stroke-linejoin="round" stroke-linecap="round" points="42.0,70.0 46.4,70.0 50.9,88.0 55.3,88.0 59.7,76.0 64.2,76.0 68.6,76.0 73.0,70.0 77.5,76.0 81.9,70.0 86.4,64.0 90.8,58.0 95.2,58.0 99.7,58.0 104.1,58.0 108.5,58.0 113.0,58.0 117.4,58.0 121.8,58.0 126.3,58.0 130.7,58.0 135.1,58.0 139.6,58.0 144.0,58.0 148.5,58.0 152.9,58.0 157.3,58.0 161.8,58.0 166.2,58.0 170.6,58.0 175.1,58.0 179.5,70.0 183.9,76.0 188.4,94.0 192.8,64.0 197.2,64.0 201.7,58.0 206.1,58.0 210.6,58.0 215.0,70.0 219.4,76.0 223.9,76.0 228.3,82.0 232.7,82.0 237.2,82.0 241.6,82.0 246.0,76.0 250.5,64.0 254.9,70.0 259.3,70.0 263.8,82.0 268.2,76.0 272.7,76.0 277.1,82.0 281.5,76.0 286.0,76.0 290.4,76.0 294.8,64.0 299.3,64.0 303.7,76.0 308.1,76.0 312.6,76.0 317.0,88.0 321.4,70.0 325.9,64.0 330.3,58.0 334.8,58.0 339.2,70.0 343.6,70.0 348.1,70.0 352.5,76.0 356.9,70.0 361.4,70.0 365.8,70.0 370.2,70.0 374.7,76.0 379.1,82.0 383.5,76.0 388.0,70.0 392.4,70.0 396.9,70.0 401.3,70.0 405.7,76.0 410.2,70.0 414.6,70.0 419.0,70.0 423.5,70.0 427.9,70.0 432.3,70.0 436.8,70.0 441.2,70.0 445.6,70.0 450.1,70.0 454.5,70.0 459.0,70.0 463.4,70.0 467.8,70.0 472.3,70.0 476.7,70.0 481.1,70.0 485.6,70.0 490.0,70.0 494.4,70.0 498.9,70.0 503.3,70.0 507.7,70.0 512.2,70.0 516.6,70.0 521.0,70.0 525.5,70.0 529.9,70.0 534.4,70.0 538.8,70.0 543.2,70.0 547.7,70.0 552.1,70.0 556.5,70.0 561.0,70.0 565.4,70.0 569.8,70.0 574.3,70.0 578.7,70.0 583.1,70.0 587.6,70.0 592.0,70.0 596.5,70.0 600.9,70.0 605.3,70.0 609.8,70.0 614.2,70.0 618.6,70.0 623.1,70.0 627.5,70.0 631.9,70.0 636.4,70.0 640.8,70.0 645.2,70.0 649.7,70.0 654.1,70.0 658.6,70.0 663.0,70.0 667.4,70.0 671.9,70.0 676.3,70.0 680.7,70.0 685.2,70.0 689.6,70.0 694.0,70.0 698.5,70.0 702.9,70.0 707.3,70.0 711.8,76.0 716.2,70.0 720.7,70.0 725.1,70.0 729.5,70.0 734.0,70.0 738.4,76.0 742.8,76.0 747.3,88.0 751.7,88.0 756.1,88.0 760.6,94.0 765.0,94.0 769.4,94.0 773.9,94.0 778.3,88.0 782.8,88.0 787.2,82.0 791.6,82.0 796.1,82.0 800.5,88.0 804.9,88.0 809.4,94.0 813.8,82.0 818.2,82.0 822.7,82.0 827.1,82.0 831.5,88.0 836.0,88.0 840.4,94.0 844.9,94.0 849.3,88.0 853.7,88.0 858.2,88.0 862.6,94.0 867.0,94.0 871.5,106.0 875.9,94.0 880.3,94.0 884.8,94.0 889.2,94.0 893.6,88.0 898.1,88.0 902.5,82.0 907.0,76.0 911.4,76.0 915.8,76.0 920.3,76.0 924.7,76.0 929.1,76.0 933.6,70.0 938.0,70.0"/><polyline fill="none" stroke="#f59e0b" stroke-width="2.5" stroke-linejoin="round" stroke-linecap="round" points="42.0,274.0 46.4,274.0 50.9,274.0 55.3,280.0 59.7,268.0 64.2,268.0 68.6,268.0 73.0,274.0 77.5,274.0 81.9,274.0 86.4,280.0 90.8,286.0 95.2,286.0 99.7,286.0 104.1,286.0 108.5,286.0 113.0,286.0 117.4,286.0 121.8,286.0 126.3,286.0 130.7,286.0 135.1,286.0 139.6,286.0 144.0,286.0 148.5,286.0 152.9,286.0 157.3,286.0 161.8,286.0 166.2,286.0 170.6,286.0 175.1,286.0 179.5,274.0 183.9,280.0 188.4,280.0 192.8,280.0 197.2,280.0 201.7,286.0 206.1,286.0 210.6,286.0 215.0,274.0 219.4,268.0 223.9,268.0 228.3,262.0 232.7,262.0 237.2,262.0 241.6,262.0 246.0,268.0 250.5,280.0 254.9,280.0 259.3,274.0 263.8,262.0 268.2,268.0 272.7,268.0 277.1,262.0 281.5,268.0 286.0,268.0 290.4,268.0 294.8,280.0 299.3,280.0 303.7,268.0 308.1,268.0 312.6,268.0 317.0,262.0 321.4,274.0 325.9,280.0 330.3,286.0 334.8,286.0 339.2,274.0 343.6,274.0 348.1,274.0 352.5,274.0 356.9,274.0 361.4,274.0 365.8,274.0 370.2,274.0 374.7,280.0 379.1,274.0 383.5,280.0 388.0,286.0 392.4,286.0 396.9,286.0 401.3,286.0 405.7,280.0 410.2,286.0 414.6,286.0 419.0,286.0 423.5,286.0 427.9,286.0 432.3,286.0 436.8,286.0 441.2,286.0 445.6,286.0 450.1,286.0 454.5,286.0 459.0,286.0 463.4,286.0 467.8,286.0 472.3,286.0 476.7,286.0 481.1,286.0 485.6,286.0 490.0,286.0 494.4,286.0 498.9,286.0 503.3,286.0 507.7,286.0 512.2,286.0 516.6,286.0 521.0,286.0 525.5,286.0 529.9,286.0 534.4,286.0 538.8,286.0 543.2,286.0 547.7,286.0 552.1,286.0 556.5,286.0 561.0,286.0 565.4,286.0 569.8,286.0 574.3,286.0 578.7,286.0 583.1,286.0 587.6,286.0 592.0,286.0 596.5,286.0 600.9,286.0 605.3,286.0 609.8,286.0 614.2,286.0 618.6,286.0 623.1,286.0 627.5,286.0 631.9,286.0 636.4,286.0 640.8,286.0 645.2,286.0 649.7,286.0 654.1,286.0 658.6,286.0 663.0,286.0 667.4,286.0 671.9,286.0 676.3,286.0 680.7,286.0 685.2,286.0 689.6,286.0 694.0,286.0 698.5,286.0 702.9,286.0 707.3,286.0 711.8,286.0 716.2,286.0 720.7,286.0 725.1,286.0 729.5,286.0 734.0,286.0 738.4,286.0 742.8,280.0 747.3,268.0 751.7,268.0 756.1,268.0 760.6,268.0 765.0,262.0 769.4,262.0 773.9,262.0 778.3,268.0 782.8,268.0 787.2,274.0 791.6,274.0 796.1,274.0 800.5,268.0 804.9,268.0 809.4,268.0 813.8,274.0 818.2,274.0 822.7,274.0 827.1,274.0 831.5,268.0 836.0,268.0 840.4,262.0 844.9,262.0 849.3,268.0 853.7,268.0 858.2,268.0 862.6,262.0 867.0,262.0 871.5,274.0 875.9,262.0 880.3,262.0 884.8,262.0 889.2,262.0 893.6,268.0 898.1,268.0 902.5,274.0 907.0,280.0 911.4,280.0 915.8,280.0 920.3,280.0 924.7,280.0 929.1,280.0 933.6,286.0 938.0,286.0"/><polyline fill="none" stroke="#ef4444" stroke-width="2.5" stroke-linejoin="round" stroke-linecap="round" points="42.0,280.0 46.4,280.0 50.9,268.0 55.3,262.0 59.7,286.0 64.2,286.0 68.6,286.0 73.0,286.0 77.5,280.0 81.9,286.0 86.4,286.0 90.8,286.0 95.2,286.0 99.7,286.0 104.1,286.0 108.5,286.0 113.0,286.0 117.4,286.0 121.8,286.0 126.3,286.0 130.7,286.0 135.1,286.0 139.6,286.0 144.0,286.0 148.5,286.0 152.9,286.0 157.3,286.0 161.8,286.0 166.2,286.0 170.6,286.0 175.1,286.0 179.5,286.0 183.9,274.0 188.4,256.0 192.8,286.0 197.2,286.0 201.7,286.0 206.1,286.0 210.6,286.0 215.0,286.0 219.4,286.0 223.9,286.0 228.3,286.0 232.7,286.0 237.2,286.0 241.6,286.0 246.0,286.0 250.5,286.0 254.9,280.0 259.3,286.0 263.8,286.0 268.2,286.0 272.7,286.0 277.1,286.0 281.5,286.0 286.0,286.0 290.4,286.0 294.8,286.0 299.3,286.0 303.7,286.0 308.1,286.0 312.6,286.0 317.0,280.0 321.4,286.0 325.9,286.0 330.3,286.0 334.8,286.0 339.2,286.0 343.6,286.0 348.1,286.0 352.5,286.0 356.9,286.0 361.4,286.0 365.8,286.0 370.2,286.0 374.7,274.0 379.1,274.0 383.5,274.0 388.0,274.0 392.4,274.0 396.9,274.0 401.3,274.0 405.7,274.0 410.2,274.0 414.6,274.0 419.0,274.0 423.5,274.0 427.9,274.0 432.3,274.0 436.8,274.0 441.2,274.0 445.6,274.0 450.1,274.0 454.5,274.0 459.0,274.0 463.4,274.0 467.8,274.0 472.3,274.0 476.7,274.0 481.1,274.0 485.6,274.0 490.0,274.0 494.4,274.0 498.9,274.0 503.3,274.0 507.7,274.0 512.2,274.0 516.6,274.0 521.0,274.0 525.5,274.0 529.9,274.0 534.4,274.0 538.8,274.0 543.2,274.0 547.7,274.0 552.1,274.0 556.5,274.0 561.0,274.0 565.4,274.0 569.8,274.0 574.3,274.0 578.7,274.0 583.1,274.0 587.6,274.0 592.0,274.0 596.5,274.0 600.9,274.0 605.3,274.0 609.8,274.0 614.2,274.0 618.6,274.0 623.1,274.0 627.5,274.0 631.9,274.0 636.4,274.0 640.8,274.0 645.2,274.0 649.7,274.0 654.1,274.0 658.6,274.0 663.0,274.0 667.4,274.0 671.9,274.0 676.3,274.0 680.7,274.0 685.2,274.0 689.6,274.0 694.0,274.0 698.5,274.0 702.9,274.0 707.3,274.0 711.8,268.0 716.2,274.0 720.7,274.0 725.1,274.0 729.5,274.0 734.0,274.0 738.4,274.0 742.8,274.0 747.3,274.0 751.7,274.0 756.1,274.0 760.6,268.0 765.0,274.0 769.4,274.0 773.9,274.0 778.3,274.0 782.8,274.0 787.2,274.0 791.6,274.0 796.1,274.0 800.5,274.0 804.9,274.0 809.4,268.0 813.8,274.0 818.2,274.0 822.7,274.0 827.1,274.0 831.5,274.0 836.0,274.0 840.4,274.0 844.9,274.0 849.3,274.0 853.7,274.0 858.2,274.0 862.6,274.0 867.0,274.0 871.5,250.0 875.9,274.0 880.3,274.0 884.8,274.0 889.2,274.0 893.6,274.0 898.1,274.0 902.5,274.0 907.0,274.0 911.4,274.0 915.8,274.0 920.3,274.0 924.7,274.0 929.1,274.0 933.6,274.0 938.0,274.0"/><polyline fill="none" stroke="#a855f7" stroke-width="2.5" stroke-linejoin="round" stroke-linecap="round" points="42.0,286.0 46.4,286.0 50.9,286.0 55.3,286.0 59.7,286.0 64.2,286.0 68.6,286.0 73.0,286.0 77.5,286.0 81.9,286.0 86.4,286.0 90.8,286.0 95.2,286.0 99.7,286.0 104.1,286.0 108.5,286.0 113.0,286.0 117.4,286.0 121.8,286.0 126.3,286.0 130.7,286.0 135.1,286.0 139.6,286.0 144.0,286.0 148.5,286.0 152.9,286.0 157.3,286.0 161.8,286.0 166.2,286.0 170.6,286.0 175.1,286.0 179.5,286.0 183.9,286.0 188.4,286.0 192.8,286.0 197.2,286.0 201.7,286.0 206.1,286.0 210.6,286.0 215.0,286.0 219.4,286.0 223.9,286.0 228.3,286.0 232.7,286.0 237.2,286.0 241.6,286.0 246.0,286.0 250.5,286.0 254.9,286.0 259.3,286.0 263.8,286.0 268.2,286.0 272.7,286.0 277.1,286.0 281.5,286.0 286.0,286.0 290.4,286.0 294.8,286.0 299.3,286.0 303.7,286.0 308.1,286.0 312.6,286.0 317.0,286.0 321.4,286.0 325.9,286.0 330.3,286.0 334.8,286.0 339.2,286.0 343.6,286.0 348.1,286.0 352.5,280.0 356.9,286.0 361.4,286.0 365.8,286.0 370.2,286.0 374.7,286.0 379.1,286.0 383.5,286.0 388.0,286.0 392.4,286.0 396.9,286.0 401.3,286.0 405.7,286.0 410.2,286.0 414.6,286.0 419.0,286.0 423.5,286.0 427.9,286.0 432.3,286.0 436.8,286.0 441.2,286.0 445.6,286.0 450.1,286.0 454.5,286.0 459.0,286.0 463.4,286.0 467.8,286.0 472.3,286.0 476.7,286.0 481.1,286.0 485.6,286.0 490.0,286.0 494.4,286.0 498.9,286.0 503.3,286.0 507.7,286.0 512.2,286.0 516.6,286.0 521.0,286.0 525.5,286.0 529.9,286.0 534.4,286.0 538.8,286.0 543.2,286.0 547.7,286.0 552.1,286.0 556.5,286.0 561.0,286.0 565.4,286.0 569.8,286.0 574.3,286.0 578.7,286.0 583.1,286.0 587.6,286.0 592.0,286.0 596.5,286.0 600.9,286.0 605.3,286.0 609.8,286.0 614.2,286.0 618.6,286.0 623.1,286.0 627.5,286.0 631.9,286.0 636.4,286.0 640.8,286.0 645.2,286.0 649.7,286.0 654.1,286.0 658.6,286.0 663.0,286.0 667.4,286.0 671.9,286.0 676.3,286.0 680.7,286.0 685.2,286.0 689.6,286.0 694.0,286.0 698.5,286.0 702.9,286.0 707.3,286.0 711.8,286.0 716.2,286.0 720.7,286.0 725.1,286.0 729.5,286.0 734.0,286.0 738.4,280.0 742.8,286.0 747.3,286.0 751.7,286.0 756.1,286.0 760.6,286.0 765.0,286.0 769.4,286.0 773.9,286.0 778.3,286.0 782.8,286.0 787.2,286.0 791.6,286.0 796.1,286.0 800.5,286.0 804.9,286.0 809.4,286.0 813.8,286.0 818.2,286.0 822.7,286.0 827.1,286.0 831.5,286.0 836.0,286.0 840.4,286.0 844.9,286.0 849.3,286.0 853.7,286.0 858.2,286.0 862.6,286.0 867.0,286.0 871.5,286.0 875.9,286.0 880.3,286.0 884.8,286.0 889.2,286.0 893.6,286.0 898.1,286.0 902.5,286.0 907.0,286.0 911.4,286.0 915.8,286.0 920.3,286.0 924.7,286.0 929.1,286.0 933.6,286.0 938.0,286.0"/><text x="42" y="308" font-size="11" fill="#5a688a">19/06 12:43</text><text x="938" y="308" text-anchor="end" font-size="11" fill="#5a688a">01/07 05:29</text></svg>