<svg xmlns="http://www.w3.org/2000/svg" viewBox="0 0 960 320" width="960" height="320" font-family="Segoe UI, system-ui, -apple-system, Roboto, Helvetica, Arial, sans-serif" role="img" aria-label="Availability history per region"><rect x="0.5" y="0.5" width="959" height="319" rx="14" fill="#ffffff" stroke="#dce3f1"/><text x="42" y="26" font-size="14" font-weight="600" fill="#14203a">History · 153 points</text><circle cx="47" cy="40" r="5" fill="#22c55e"/><text x="57" y="44" font-size="12" fill="#5a688a">Available</text><circle cx="139.8" cy="40" r="5" fill="#f59e0b"/><text x="149.8" y="44" font-size="12" fill="#5a688a">Saturated</text><circle cx="232.60000000000002" cy="40" r="5" fill="#ef4444"/><text x="242.60000000000002" y="44" font-size="12" fill="#5a688a">Error</text><circle cx="296.6" cy="40" r="5" fill="#a855f7"/><text x="306.6" y="44" font-size="12" fill="#5a688a">Timeout</text><line x1="42" y1="286.0" x2="938" y2="286.0" stroke="#eef2f7" stroke-width="1"/><text x="35" y="289.0" text-anchor="end" font-size="11" fill="#5a688a">0</text><line x1="42" y1="227.5" x2="938" y2="227.5" stroke="#eef2f7" stroke-width="1"/><text x="35" y="230.5" text-anchor="end" font-size="11" fill="#5a688a">10</text><line x1="42" y1="169.0" x2="938" y2="169.0" stroke="#eef2f7" stroke-width="1"/><text x="35" y="172.0" text-anchor="end" font-size="11" fill="#5a688a">20</text><line x1="42" y1="110.5" x2="938" y2="110.5" stroke="#eef2f7" stroke-width="1"/><text x="35" y="113.5" text-anchor="end" font-size="11" fill="#5a688a">29</text><line x1="42" y1="52.0" x2="938" y2="52.0" stroke="#eef2f7" stroke-width="1"/><text x="35" y="55.0" text-anchor="end" font-size="11" fill="#5a688a">39</text><polyline fill="none" stroke="#22c55e" stroke-width="2.5" stroke-linejoin="round" stroke-linecap="round" points="42.0,70.0 47.9,70.0 53.8,88.0 59.7,88.0 65.6,76.0 71.5,76.0 77.4,76.0 83.3,70.0 89.2,76.0 95.1,70.0 100.9,64.0 106.8,58.0 112.7,58.0 118.6,58.0 124.5,58.0 130.4,58.0 136.3,58.0 142.2,58.0 148.1,58.0 154.0,58.0 159.9,58.0 165.8,58.0 171.7,58.0 177.6,58.0 183.5,58.0 189.4,58.0 195.3,58.0 201.2,58.0 207.1,58.0 212.9,58.0 218.8,58.0 224.7,70.0 230.6,76.0 236.5,94.0 242.4,64.0 248.3,64.0 254.2,58.0 260.1,58.0 266.0,58.0 271.9,70.0 277.8,76.0 283.7,76.0 289.6,82.0 295.5,82.0 301.4,82.0 307.3,82.0 313.2,76.0 319.1,64.0 324.9,70.0 330.8,70.0 336.7,82.0 342.6,76.0 348.5,76.0 354.4,82.0 360.3,76.0 366.2,76.0 372.1,76.0 378.0,64.0 383.9,64.0 389.8,76.0 395.7,76.0 401.6,76.0 407.5,88.0 413.4,70.0 419.3,64.0 425.2,58.0 431.1,58.0 436.9,70.0 442.8,70.0 448.7,70.0 454.6,76.0 460.5,70.0 466.4,70.0 472.3,70.0 478.2,70.0 484.1,76.0 490.0,82.0 495.9,76.0 501.8,70.0 507.7,70.0 513.6,70.0 519.5,70.0 525.4,76.0 531.3,70.0 537.2,70.0 543.1,70.0 548.9,70.0 554.8,70.0 560.7,70.0 566.6,70.0 572.5,70.0 578.4,70.0 584.3,70.0 590.2,70.0 596.1,70.0 602.0,70.0 607.9,70.0 613.8,70.0 619.7,70.0 625.6,70.0 631.5,70.0 637.4,70.0 643.3,70.0 649.2,70.0 655.1,70.0 660.9,70.0 666.8,70.0 672.7,70.0 678.6,70.0 684.5,70.0 690.4,70.0 696.3,70.0 702.2,70.0 708.1,70.0 714.0,70.0 719.9,70.0 725.8,70.0 731.7,70.0 737.6,70.0 743.5,70.0 749.4,70.0 755.3,70.0 761.2,70.0 767.1,70.0 772.9,70.0 778.8,70.0 784.7,70.0 790.6,70.0 796.5,70.0 802.4,70.0 808.3,70.0 814.2,70.0 820.1,70.0 826.0,70.0 831.9,70.0 837.8,70.0 843.7,70.0 849.6,70.0 855.5,70.0 861.4,70.0 867.3,70.0 873.2,70.0 879.1,70.0 884.9,70.0 890.8,70.0 896.7,70.0 902.6,70.0 908.5,70.0 914.4,70.0 920.3,70.0 926.2,70.0 932.1,76.0 938.0,70.0"/><polyline fill="none" stroke="#f59e0b" stroke-width="2.5" stroke-linejoin="round" stroke-linecap="round" points="42.0,274.0 47.9,274.0 53.8,274.0 59.7,280.0 65.6,268.0 71.5,268.0 77.4,268.0 83.3,274.0 89.2,274.0 95.1,274.0 100.9,280.0 106.8,286.0 112.7,286.0 118.6,286.0 124.5,286.0 130.4,286.0 136.3,286.0 142.2,286.0 148.1,286.0 154.0,286.0 159.9,286.0 165.8,286.0 171.7,286.0 177.6,286.0 183.5,286.0 189.4,286.0 195.3,286.0 201.2,286.0 207.1,286.0 212.9,286.0 218.8,286.0 224.7,274.0 230.6,280.0 236.5,280.0 242.4,280.0 248.3,280.0 254.2,286.0 260.1,286.0 266.0,286.0 271.9,274.0 277.8,268.0 283.7,268.0 289.6,262.0 295.5,262.0 301.4,262.0 307.3,262.0 313.2,268.0 319.1,280.0 324.9,280.0 330.8,274.0 336.7,262.0 342.6,268.0 348.5,268.0 354.4,262.0 360.3,268.0 366.2,268.0 372.1,268.0 378.0,280.0 383.9,280.0 389.8,268.0 395.7,268.0 401.6,268.0 407.5,262.0 413.4,274.0 419.3,280.0 425.2,286.0 431.1,286.0 436.9,274.0 442.8,274.0 448.7,274.0 454.6,274.0 460.5,274.0 466.4,274.0 472.3,274.0 478.2,274.0 484.1,280.0 490.0,274.0 495.9,280.0 501.8,286.0 507.7,286.0 513.6,286.0 519.5,286.0 525.4,280.0 531.3,286.0 537.2,286.0 543.1,286.0 548.9,286.0 554.8,286.0 560.7,286.0 566.6,286.0 572.5,286.0 578.4,286.0 584.3,286.0 590.2,286.0 596.1,286.0 602.0,286.0 607.9,286.0 613.8,286.0 619.7,286.0 625.6,286.0 631.5,286.0 637.4,286.0 643.3,286.0 649.2,286.0 655.1,286.0 660.9,286.0 666.8,286.0 672.7,286.0 678.6,286.0 684.5,286.0 690.4,286.0 696.3,286.0 702.2,286.0 708.1,286.0 714.0,286.0 719.9,286.0 725.8,286.0 731.7,286.0 737.6,286.0 743.5,286.0 749.4,286.0 755.3,286.0 761.2,286.0 767.1,286.0 772.9,286.0 778.8,286.0 784.7,286.0 790.6,286.0 796.5,286.0 802.4,286.0 808.3,286.0 814.2,286.0 820.1,286.0 826.0,286.0 831.9,286.0 837.8,286.0 843.7,286.0 849.6,286.0 855.5,286.0 861.4,286.0 867.3,286.0 873.2,286.0 879.1,286.0 884.9,286.0 890.8,286.0 896.7,286.0 902.6,286.0 908.5,286.0 914.4,286.0 920.3,286.0 926.2,286.0 932.1,286.0 938.0,286.0"/><polyline fill="none" stroke="#ef4444" stroke-width="2.5" stroke-linejoin="round" stroke-linecap="round" points="42.0,280.0 47.9,280.0 53.8,268.0 59.7,262.0 65.6,286.0 71.5,286.0 77.4,286.0 83.3,286.0 89.2,280.0 95.1,286.0 100.9,286.0 106.8,286.0 112.7,286.0 118.6,286.0 124.5,286.0 130.4,286.0 136.3,286.0 142.2,286.0 148.1,286.0 154.0,286.0 159.9,286.0 165.8,286.0 171.7,286.0 177.6,286.0 183.5,286.0 189.4,286.0 195.3,286.0 201.2,286.0 207.1,286.0 212.9,286.0 218.8,286.0 224.7,286.0 230.6,274.0 236.5,256.0 242.4,286.0 248.3,286.0 254.2,286.0 260.1,286.0 266.0,286.0 271.9,286.0 277.8,286.0 283.7,286.0 289.6,286.0 295.5,286.0 301.4,286.0 307.3,286.0 313.2,286.0 319.1,286.0 324.9,280.0 330.8,286.0 336.7,286.0 342.6,286.0 348.5,286.0 354.4,286.0 360.3,286.0 366.2,286.0 372.1,286.0 378.0,286.0 383.9,286.0 389.8,286.0 395.7,286.0 401.6,286.0 407.5,280.0 413.4,286.0 419.3,286.0 425.2,286.0 431.1,286.0 436.9,286.0 442.8,286.0 448.7,286.0 454.6,286.0 460.5,286.0 466.4,286.0 472.3,286.0 478.2,286.0 484.1,274.0 490.0,274.0 495.9,274.0 501.8,274.0 507.7,274.0 513.6,274.0 519.5,274.0 525.4,274.0 531.3,274.0 537.2,274.0 543.1,274.0 548.9,274.0 554.8,274.0 560.7,274.0 566.6,274.0 572.5,274.0 578.4,274.0 584.3,274.0 590.2,274.0 596.1,274.0 602.0,274.0 607.9,274.0 613.8,274.0 619.7,274.0 625.6,274.0 631.5,274.0 637.4,274.0 643.3,274.0 649.2,274.0 655.1,274.0 660.9,274.0 666.8,274.0 672.7,274.0 678.6,274.0 684.5,274.0 690.4,274.0 696.3,274.0 702.2,274.0 708.1,274.0 714.0,274.0 719.9,274.0 725.8,274.0 731.7,274.0 737.6,274.0 743.5,274.0 749.4,274.0 755.3,274.0 761.2,274.0 767.1,274.0 772.9,274.0 778.8,274.0 784.7,274.0 790.6,274.0 796.5,274.0 802.4,274.0 808.3,274.0 814.2,274.0 820.1,274.0 826.0,274.0 831.9,274.0 837.8,274.0 843.7,274.0 849.6,274.0 855.5,274.0 861.4,274.0 867.3,274.0 873.2,274.0 879.1,274.0 884.9,274.0 890.8,274.0 896.7,274.0 902.6,274.0 908.5,274.0 914.4,274.0 920.3,274.0 926.2,274.0 932.1,268.0 938.0,274.0"/><polyline fill="none" stroke="#a855f7" stroke-width="2.5" stroke-linejoin="round" stroke-linecap="round" points="42.0,286.0 47.9,286.0 53.8,286.0 59.7,286.0 65.6,286.0 71.5,286.0 77.4,286.0 83.3,286.0 89.2,286.0 95.1,286.0 100.9,286.0 106.8,286.0 112.7,286.0 118.6,286.0 124.5,286.0 130.4,286.0 136.3,286.0 142.2,286.0 148.1,286.0 154.0,286.0 159.9,286.0 165.8,286.0 171.7,286.0 177.6,286.0 183.5,286.0 189.4,286.0 195.3,286.0 201.2,286.0 207.1,286.0 212.9,286.0 218.8,286.0 224.7,286.0 230.6,286.0 236.5,286.0 242.4,286.0 248.3,286.0 254.2,286.0 260.1,286.0 266.0,286.0 271.9,286.0 277.8,286.0 283.7,286.0 289.6,286.0 295.5,286.0 301.4,286.0 307.3,286.0 313.2,286.0 319.1,286.0 324.9,286.0 330.8,286.0 336.7,286.0 342.6,286.0 348.5,286.0 354.4,286.0 360.3,286.0 366.2,286.0 372.1,286.0 378.0,286.0 383.9,286.0 389.8,286.0 395.7,286.0 401.6,286.0 407.5,286.0 413.4,286.0 419.3,286.0 425.2,286.0 431.1,286.0 436.9,286.0 442.8,286.0 448.7,286.0 454.6,280.0 460.5,286.0 466.4,286.0 472.3,286.0 478.2,286.0 484.1,286.0 490.0,286.0 495.9,286.0 501.8,286.0 507.7,286.0 513.6,286.0 519.5,286.0 525.4,286.0 531.3,286.0 537.2,286.0 543.1,286.0 548.9,286.0 554.8,286.0 560.7,286.0 566.6,286.0 572.5,286.0 578.4,286.0 584.3,286.0 590.2,286.0 596.1,286.0 602.0,286.0 607.9,286.0 613.8,286.0 619.7,286.0 625.6,286.0 631.5,286.0 637.4,286.0 643.3,286.0 649.2,286.0 655.1,286.0 660.9,286.0 666.8,286.0 672.7,286.0 678.6,286.0 684.5,286.0 690.4,286.0 696.3,286.0 702.2,286.0 708.1,286.0 714.0,286.0 719.9,286.0 725.8,286.0 731.7,286.0 737.6,286.0 743.5,286.0 749.4,286.0 755.3,286.0 761.2,286.0 767.1,286.0 772.9,286.0 778.8,286.0 784.7,286.0 790.6,286.0 796.5,286.0 802.4,286.0 808.3,286.0 814.2,286.0 820.1,286.0 826.0,286.0 831.9,286.0 837.8,286.0 843.7,286.0 849.6,286.0 855.5,286.0 861.4,286.0 867.3,286.0 873.2,286.0 879.1,286.0 884.9,286.0 890.8,286.0 896.7,286.0 902.6,286.0 908.5,286.0 914.4,286.0 920.3,286.0 926.2,286.0 932.1,286.0 938.0,286.0"/><text x="42" y="308" font-size="11" fill="#5a688a">19/06 12:43</text><text x="938" y="308" text-anchor="end" font-size="11" fill="#5a688a">29/06 04:30</text></svg>