<svg xmlns="http://www.w3.org/2000/svg" viewBox="0 0 960 320" width="960" height="320" font-family="Segoe UI, system-ui, -apple-system, Roboto, Helvetica, Arial, sans-serif" role="img" aria-label="Availability history per region"><rect x="0.5" y="0.5" width="959" height="319" rx="14" fill="#ffffff" stroke="#dce3f1"/><text x="42" y="26" font-size="14" font-weight="600" fill="#14203a">History · 83 points</text><circle cx="47" cy="40" r="5" fill="#22c55e"/><text x="57" y="44" font-size="12" fill="#5a688a">Available</text><circle cx="139.8" cy="40" r="5" fill="#f59e0b"/><text x="149.8" y="44" font-size="12" fill="#5a688a">Saturated</text><circle cx="232.60000000000002" cy="40" r="5" fill="#ef4444"/><text x="242.60000000000002" y="44" font-size="12" fill="#5a688a">Error</text><circle cx="296.6" cy="40" r="5" fill="#a855f7"/><text x="306.6" y="44" font-size="12" fill="#5a688a">Timeout</text><line x1="42" y1="286.0" x2="938" y2="286.0" stroke="#eef2f7" stroke-width="1"/><text x="35" y="289.0" text-anchor="end" font-size="11" fill="#5a688a">0</text><line x1="42" y1="227.5" x2="938" y2="227.5" stroke="#eef2f7" stroke-width="1"/><text x="35" y="230.5" text-anchor="end" font-size="11" fill="#5a688a">10</text><line x1="42" y1="169.0" x2="938" y2="169.0" stroke="#eef2f7" stroke-width="1"/><text x="35" y="172.0" text-anchor="end" font-size="11" fill="#5a688a">19</text><line x1="42" y1="110.5" x2="938" y2="110.5" stroke="#eef2f7" stroke-width="1"/><text x="35" y="113.5" text-anchor="end" font-size="11" fill="#5a688a">28</text><line x1="42" y1="52.0" x2="938" y2="52.0" stroke="#eef2f7" stroke-width="1"/><text x="35" y="55.0" text-anchor="end" font-size="11" fill="#5a688a">38</text><polyline fill="none" stroke="#22c55e" stroke-width="2.5" stroke-linejoin="round" stroke-linecap="round" points="42.0,64.3 52.9,224.4 63.9,82.8 74.8,88.9 85.7,82.8 96.6,76.6 107.6,76.6 118.5,76.6 129.4,76.6 140.3,76.6 151.3,76.6 162.2,76.6 173.1,76.6 184.0,76.6 195.0,76.6 205.9,70.5 216.8,70.5 227.8,82.8 238.7,82.8 249.6,82.8 260.5,88.9 271.5,88.9 282.4,88.9 293.3,88.9 304.2,88.9 315.2,88.9 326.1,88.9 337.0,88.9 348.0,88.9 358.9,82.8 369.8,82.8 380.7,82.8 391.7,82.8 402.6,76.6 413.5,76.6 424.4,76.6 435.4,76.6 446.3,76.6 457.2,82.8 468.1,82.8 479.1,82.8 490.0,82.8 500.9,76.6 511.9,76.6 522.8,76.6 533.7,76.6 544.6,76.6 555.6,76.6 566.5,76.6 577.4,82.8 588.3,82.8 599.3,82.8 610.2,82.8 621.1,76.6 632.0,76.6 643.0,76.6 653.9,76.6 664.8,76.6 675.8,76.6 686.7,76.6 697.6,76.6 708.5,82.8 719.5,76.6 730.4,76.6 741.3,76.6 752.2,76.6 763.2,76.6 774.1,82.8 785.0,76.6 796.0,76.6 806.9,76.6 817.8,76.6 828.7,76.6 839.7,76.6 850.6,76.6 861.5,76.6 872.4,76.6 883.4,70.5 894.3,70.5 905.2,70.5 916.1,70.5 927.1,76.6 938.0,70.5"/><polyline fill="none" stroke="#f59e0b" stroke-width="2.5" stroke-linejoin="round" stroke-linecap="round" points="42.0,273.7 52.9,267.5 63.9,255.2 74.8,249.1 85.7,255.2 96.6,261.4 107.6,261.4 118.5,261.4 129.4,261.4 140.3,261.4 151.3,261.4 162.2,261.4 173.1,261.4 184.0,261.4 195.0,261.4 205.9,267.5 216.8,267.5 227.8,261.4 238.7,255.2 249.6,255.2 260.5,249.1 271.5,249.1 282.4,249.1 293.3,249.1 304.2,249.1 315.2,249.1 326.1,249.1 337.0,249.1 348.0,249.1 358.9,255.2 369.8,255.2 380.7,255.2 391.7,255.2 402.6,261.4 413.5,261.4 424.4,261.4 435.4,261.4 446.3,261.4 457.2,255.2 468.1,255.2 479.1,255.2 490.0,255.2 500.9,261.4 511.9,261.4 522.8,261.4 533.7,261.4 544.6,261.4 555.6,261.4 566.5,261.4 577.4,255.2 588.3,255.2 599.3,255.2 610.2,261.4 621.1,261.4 632.0,261.4 643.0,261.4 653.9,261.4 664.8,261.4 675.8,261.4 686.7,261.4 697.6,261.4 708.5,255.2 719.5,261.4 730.4,261.4 741.3,261.4 752.2,261.4 763.2,261.4 774.1,261.4 785.0,261.4 796.0,261.4 806.9,261.4 817.8,261.4 828.7,261.4 839.7,261.4 850.6,261.4 861.5,261.4 872.4,261.4 883.4,267.5 894.3,267.5 905.2,267.5 916.1,267.5 927.1,267.5 938.0,267.5"/><polyline fill="none" stroke="#ef4444" stroke-width="2.5" stroke-linejoin="round" stroke-linecap="round" points="42.0,286.0 52.9,132.1 63.9,286.0 74.8,286.0 85.7,286.0 96.6,286.0 107.6,286.0 118.5,286.0 129.4,286.0 140.3,286.0 151.3,286.0 162.2,286.0 173.1,286.0 184.0,286.0 195.0,286.0 205.9,286.0 216.8,286.0 227.8,279.8 238.7,286.0 249.6,286.0 260.5,286.0 271.5,286.0 282.4,286.0 293.3,286.0 304.2,286.0 315.2,286.0 326.1,286.0 337.0,286.0 348.0,286.0 358.9,286.0 369.8,286.0 380.7,286.0 391.7,286.0 402.6,286.0 413.5,286.0 424.4,286.0 435.4,286.0 446.3,286.0 457.2,286.0 468.1,286.0 479.1,286.0 490.0,286.0 500.9,286.0 511.9,286.0 522.8,286.0 533.7,286.0 544.6,286.0 555.6,286.0 566.5,286.0 577.4,286.0 588.3,286.0 599.3,286.0 610.2,286.0 621.1,286.0 632.0,286.0 643.0,286.0 653.9,286.0 664.8,286.0 675.8,286.0 686.7,286.0 697.6,286.0 708.5,286.0 719.5,286.0 730.4,286.0 741.3,286.0 752.2,286.0 763.2,286.0 774.1,279.8 785.0,286.0 796.0,286.0 806.9,286.0 817.8,286.0 828.7,286.0 839.7,286.0 850.6,286.0 861.5,286.0 872.4,286.0 883.4,286.0 894.3,286.0 905.2,286.0 916.1,286.0 927.1,279.8 938.0,286.0"/><polyline fill="none" stroke="#a855f7" stroke-width="2.5" stroke-linejoin="round" stroke-linecap="round" points="42.0,286.0 52.9,286.0 63.9,286.0 74.8,286.0 85.7,286.0 96.6,286.0 107.6,286.0 118.5,286.0 129.4,286.0 140.3,286.0 151.3,286.0 162.2,286.0 173.1,286.0 184.0,286.0 195.0,286.0 205.9,286.0 216.8,286.0 227.8,286.0 238.7,286.0 249.6,286.0 260.5,286.0 271.5,286.0 282.4,286.0 293.3,286.0 304.2,286.0 315.2,286.0 326.1,286.0 337.0,286.0 348.0,286.0 358.9,286.0 369.8,286.0 380.7,286.0 391.7,286.0 402.6,286.0 413.5,286.0 424.4,286.0 435.4,286.0 446.3,286.0 457.2,286.0 468.1,286.0 479.1,286.0 490.0,286.0 500.9,286.0 511.9,286.0 522.8,286.0 533.7,286.0 544.6,286.0 555.6,286.0 566.5,286.0 577.4,286.0 588.3,286.0 599.3,286.0 610.2,279.8 621.1,286.0 632.0,286.0 643.0,286.0 653.9,286.0 664.8,286.0 675.8,286.0 686.7,286.0 697.6,286.0 708.5,286.0 719.5,286.0 730.4,286.0 741.3,286.0 752.2,286.0 763.2,286.0 774.1,286.0 785.0,286.0 796.0,286.0 806.9,286.0 817.8,286.0 828.7,286.0 839.7,286.0 850.6,286.0 861.5,286.0 872.4,286.0 883.4,286.0 894.3,286.0 905.2,286.0 916.1,286.0 927.1,286.0 938.0,286.0"/><text x="42" y="308" font-size="11" fill="#5a688a">19/06 15:39</text><text x="938" y="308" text-anchor="end" font-size="11" fill="#5a688a">20/07 01:29</text></svg>