<svg xmlns="http://www.w3.org/2000/svg" viewBox="0 0 960 320" width="960" height="320" font-family="Segoe UI, system-ui, -apple-system, Roboto, Helvetica, Arial, sans-serif" role="img" aria-label="Availability history per region"><rect x="0.5" y="0.5" width="959" height="319" rx="14" fill="#ffffff" stroke="#dce3f1"/><text x="42" y="26" font-size="14" font-weight="600" fill="#14203a">History · 158 points</text><circle cx="47" cy="40" r="5" fill="#22c55e"/><text x="57" y="44" font-size="12" fill="#5a688a">Available</text><circle cx="139.8" cy="40" r="5" fill="#f59e0b"/><text x="149.8" y="44" font-size="12" fill="#5a688a">Saturated</text><circle cx="232.60000000000002" cy="40" r="5" fill="#ef4444"/><text x="242.60000000000002" y="44" font-size="12" fill="#5a688a">Error</text><circle cx="296.6" cy="40" r="5" fill="#a855f7"/><text x="306.6" y="44" font-size="12" fill="#5a688a">Timeout</text><line x1="42" y1="286.0" x2="938" y2="286.0" stroke="#eef2f7" stroke-width="1"/><text x="35" y="289.0" text-anchor="end" font-size="11" fill="#5a688a">0</text><line x1="42" y1="227.5" x2="938" y2="227.5" stroke="#eef2f7" stroke-width="1"/><text x="35" y="230.5" text-anchor="end" font-size="11" fill="#5a688a">10</text><line x1="42" y1="169.0" x2="938" y2="169.0" stroke="#eef2f7" stroke-width="1"/><text x="35" y="172.0" text-anchor="end" font-size="11" fill="#5a688a">20</text><line x1="42" y1="110.5" x2="938" y2="110.5" stroke="#eef2f7" stroke-width="1"/><text x="35" y="113.5" text-anchor="end" font-size="11" fill="#5a688a">29</text><line x1="42" y1="52.0" x2="938" y2="52.0" stroke="#eef2f7" stroke-width="1"/><text x="35" y="55.0" text-anchor="end" font-size="11" fill="#5a688a">39</text><polyline fill="none" stroke="#22c55e" stroke-width="2.5" stroke-linejoin="round" stroke-linecap="round" points="42.0,70.0 47.7,70.0 53.4,88.0 59.1,88.0 64.8,76.0 70.5,76.0 76.2,76.0 81.9,70.0 87.7,76.0 93.4,70.0 99.1,64.0 104.8,58.0 110.5,58.0 116.2,58.0 121.9,58.0 127.6,58.0 133.3,58.0 139.0,58.0 144.7,58.0 150.4,58.0 156.1,58.0 161.8,58.0 167.6,58.0 173.3,58.0 179.0,58.0 184.7,58.0 190.4,58.0 196.1,58.0 201.8,58.0 207.5,58.0 213.2,58.0 218.9,70.0 224.6,76.0 230.3,94.0 236.0,64.0 241.7,64.0 247.5,58.0 253.2,58.0 258.9,58.0 264.6,70.0 270.3,76.0 276.0,76.0 281.7,82.0 287.4,82.0 293.1,82.0 298.8,82.0 304.5,76.0 310.2,64.0 315.9,70.0 321.6,70.0 327.4,82.0 333.1,76.0 338.8,76.0 344.5,82.0 350.2,76.0 355.9,76.0 361.6,76.0 367.3,64.0 373.0,64.0 378.7,76.0 384.4,76.0 390.1,76.0 395.8,88.0 401.5,70.0 407.2,64.0 413.0,58.0 418.7,58.0 424.4,70.0 430.1,70.0 435.8,70.0 441.5,76.0 447.2,70.0 452.9,70.0 458.6,70.0 464.3,70.0 470.0,76.0 475.7,82.0 481.4,76.0 487.1,70.0 492.9,70.0 498.6,70.0 504.3,70.0 510.0,76.0 515.7,70.0 521.4,70.0 527.1,70.0 532.8,70.0 538.5,70.0 544.2,70.0 549.9,70.0 555.6,70.0 561.3,70.0 567.0,70.0 572.8,70.0 578.5,70.0 584.2,70.0 589.9,70.0 595.6,70.0 601.3,70.0 607.0,70.0 612.7,70.0 618.4,70.0 624.1,70.0 629.8,70.0 635.5,70.0 641.2,70.0 646.9,70.0 652.6,70.0 658.4,70.0 664.1,70.0 669.8,70.0 675.5,70.0 681.2,70.0 686.9,70.0 692.6,70.0 698.3,70.0 704.0,70.0 709.7,70.0 715.4,70.0 721.1,70.0 726.8,70.0 732.5,70.0 738.3,70.0 744.0,70.0 749.7,70.0 755.4,70.0 761.1,70.0 766.8,70.0 772.5,70.0 778.2,70.0 783.9,70.0 789.6,70.0 795.3,70.0 801.0,70.0 806.7,70.0 812.4,70.0 818.2,70.0 823.9,70.0 829.6,70.0 835.3,70.0 841.0,70.0 846.7,70.0 852.4,70.0 858.1,70.0 863.8,70.0 869.5,70.0 875.2,70.0 880.9,70.0 886.6,70.0 892.3,70.0 898.1,70.0 903.8,76.0 909.5,70.0 915.2,70.0 920.9,70.0 926.6,70.0 932.3,70.0 938.0,76.0"/><polyline fill="none" stroke="#f59e0b" stroke-width="2.5" stroke-linejoin="round" stroke-linecap="round" points="42.0,274.0 47.7,274.0 53.4,274.0 59.1,280.0 64.8,268.0 70.5,268.0 76.2,268.0 81.9,274.0 87.7,274.0 93.4,274.0 99.1,280.0 104.8,286.0 110.5,286.0 116.2,286.0 121.9,286.0 127.6,286.0 133.3,286.0 139.0,286.0 144.7,286.0 150.4,286.0 156.1,286.0 161.8,286.0 167.6,286.0 173.3,286.0 179.0,286.0 184.7,286.0 190.4,286.0 196.1,286.0 201.8,286.0 207.5,286.0 213.2,286.0 218.9,274.0 224.6,280.0 230.3,280.0 236.0,280.0 241.7,280.0 247.5,286.0 253.2,286.0 258.9,286.0 264.6,274.0 270.3,268.0 276.0,268.0 281.7,262.0 287.4,262.0 293.1,262.0 298.8,262.0 304.5,268.0 310.2,280.0 315.9,280.0 321.6,274.0 327.4,262.0 333.1,268.0 338.8,268.0 344.5,262.0 350.2,268.0 355.9,268.0 361.6,268.0 367.3,280.0 373.0,280.0 378.7,268.0 384.4,268.0 390.1,268.0 395.8,262.0 401.5,274.0 407.2,280.0 413.0,286.0 418.7,286.0 424.4,274.0 430.1,274.0 435.8,274.0 441.5,274.0 447.2,274.0 452.9,274.0 458.6,274.0 464.3,274.0 470.0,280.0 475.7,274.0 481.4,280.0 487.1,286.0 492.9,286.0 498.6,286.0 504.3,286.0 510.0,280.0 515.7,286.0 521.4,286.0 527.1,286.0 532.8,286.0 538.5,286.0 544.2,286.0 549.9,286.0 555.6,286.0 561.3,286.0 567.0,286.0 572.8,286.0 578.5,286.0 584.2,286.0 589.9,286.0 595.6,286.0 601.3,286.0 607.0,286.0 612.7,286.0 618.4,286.0 624.1,286.0 629.8,286.0 635.5,286.0 641.2,286.0 646.9,286.0 652.6,286.0 658.4,286.0 664.1,286.0 669.8,286.0 675.5,286.0 681.2,286.0 686.9,286.0 692.6,286.0 698.3,286.0 704.0,286.0 709.7,286.0 715.4,286.0 721.1,286.0 726.8,286.0 732.5,286.0 738.3,286.0 744.0,286.0 749.7,286.0 755.4,286.0 761.1,286.0 766.8,286.0 772.5,286.0 778.2,286.0 783.9,286.0 789.6,286.0 795.3,286.0 801.0,286.0 806.7,286.0 812.4,286.0 818.2,286.0 823.9,286.0 829.6,286.0 835.3,286.0 841.0,286.0 846.7,286.0 852.4,286.0 858.1,286.0 863.8,286.0 869.5,286.0 875.2,286.0 880.9,286.0 886.6,286.0 892.3,286.0 898.1,286.0 903.8,286.0 909.5,286.0 915.2,286.0 920.9,286.0 926.6,286.0 932.3,286.0 938.0,286.0"/><polyline fill="none" stroke="#ef4444" stroke-width="2.5" stroke-linejoin="round" stroke-linecap="round" points="42.0,280.0 47.7,280.0 53.4,268.0 59.1,262.0 64.8,286.0 70.5,286.0 76.2,286.0 81.9,286.0 87.7,280.0 93.4,286.0 99.1,286.0 104.8,286.0 110.5,286.0 116.2,286.0 121.9,286.0 127.6,286.0 133.3,286.0 139.0,286.0 144.7,286.0 150.4,286.0 156.1,286.0 161.8,286.0 167.6,286.0 173.3,286.0 179.0,286.0 184.7,286.0 190.4,286.0 196.1,286.0 201.8,286.0 207.5,286.0 213.2,286.0 218.9,286.0 224.6,274.0 230.3,256.0 236.0,286.0 241.7,286.0 247.5,286.0 253.2,286.0 258.9,286.0 264.6,286.0 270.3,286.0 276.0,286.0 281.7,286.0 287.4,286.0 293.1,286.0 298.8,286.0 304.5,286.0 310.2,286.0 315.9,280.0 321.6,286.0 327.4,286.0 333.1,286.0 338.8,286.0 344.5,286.0 350.2,286.0 355.9,286.0 361.6,286.0 367.3,286.0 373.0,286.0 378.7,286.0 384.4,286.0 390.1,286.0 395.8,280.0 401.5,286.0 407.2,286.0 413.0,286.0 418.7,286.0 424.4,286.0 430.1,286.0 435.8,286.0 441.5,286.0 447.2,286.0 452.9,286.0 458.6,286.0 464.3,286.0 470.0,274.0 475.7,274.0 481.4,274.0 487.1,274.0 492.9,274.0 498.6,274.0 504.3,274.0 510.0,274.0 515.7,274.0 521.4,274.0 527.1,274.0 532.8,274.0 538.5,274.0 544.2,274.0 549.9,274.0 555.6,274.0 561.3,274.0 567.0,274.0 572.8,274.0 578.5,274.0 584.2,274.0 589.9,274.0 595.6,274.0 601.3,274.0 607.0,274.0 612.7,274.0 618.4,274.0 624.1,274.0 629.8,274.0 635.5,274.0 641.2,274.0 646.9,274.0 652.6,274.0 658.4,274.0 664.1,274.0 669.8,274.0 675.5,274.0 681.2,274.0 686.9,274.0 692.6,274.0 698.3,274.0 704.0,274.0 709.7,274.0 715.4,274.0 721.1,274.0 726.8,274.0 732.5,274.0 738.3,274.0 744.0,274.0 749.7,274.0 755.4,274.0 761.1,274.0 766.8,274.0 772.5,274.0 778.2,274.0 783.9,274.0 789.6,274.0 795.3,274.0 801.0,274.0 806.7,274.0 812.4,274.0 818.2,274.0 823.9,274.0 829.6,274.0 835.3,274.0 841.0,274.0 846.7,274.0 852.4,274.0 858.1,274.0 863.8,274.0 869.5,274.0 875.2,274.0 880.9,274.0 886.6,274.0 892.3,274.0 898.1,274.0 903.8,268.0 909.5,274.0 915.2,274.0 920.9,274.0 926.6,274.0 932.3,274.0 938.0,274.0"/><polyline fill="none" stroke="#a855f7" stroke-width="2.5" stroke-linejoin="round" stroke-linecap="round" points="42.0,286.0 47.7,286.0 53.4,286.0 59.1,286.0 64.8,286.0 70.5,286.0 76.2,286.0 81.9,286.0 87.7,286.0 93.4,286.0 99.1,286.0 104.8,286.0 110.5,286.0 116.2,286.0 121.9,286.0 127.6,286.0 133.3,286.0 139.0,286.0 144.7,286.0 150.4,286.0 156.1,286.0 161.8,286.0 167.6,286.0 173.3,286.0 179.0,286.0 184.7,286.0 190.4,286.0 196.1,286.0 201.8,286.0 207.5,286.0 213.2,286.0 218.9,286.0 224.6,286.0 230.3,286.0 236.0,286.0 241.7,286.0 247.5,286.0 253.2,286.0 258.9,286.0 264.6,286.0 270.3,286.0 276.0,286.0 281.7,286.0 287.4,286.0 293.1,286.0 298.8,286.0 304.5,286.0 310.2,286.0 315.9,286.0 321.6,286.0 327.4,286.0 333.1,286.0 338.8,286.0 344.5,286.0 350.2,286.0 355.9,286.0 361.6,286.0 367.3,286.0 373.0,286.0 378.7,286.0 384.4,286.0 390.1,286.0 395.8,286.0 401.5,286.0 407.2,286.0 413.0,286.0 418.7,286.0 424.4,286.0 430.1,286.0 435.8,286.0 441.5,280.0 447.2,286.0 452.9,286.0 458.6,286.0 464.3,286.0 470.0,286.0 475.7,286.0 481.4,286.0 487.1,286.0 492.9,286.0 498.6,286.0 504.3,286.0 510.0,286.0 515.7,286.0 521.4,286.0 527.1,286.0 532.8,286.0 538.5,286.0 544.2,286.0 549.9,286.0 555.6,286.0 561.3,286.0 567.0,286.0 572.8,286.0 578.5,286.0 584.2,286.0 589.9,286.0 595.6,286.0 601.3,286.0 607.0,286.0 612.7,286.0 618.4,286.0 624.1,286.0 629.8,286.0 635.5,286.0 641.2,286.0 646.9,286.0 652.6,286.0 658.4,286.0 664.1,286.0 669.8,286.0 675.5,286.0 681.2,286.0 686.9,286.0 692.6,286.0 698.3,286.0 704.0,286.0 709.7,286.0 715.4,286.0 721.1,286.0 726.8,286.0 732.5,286.0 738.3,286.0 744.0,286.0 749.7,286.0 755.4,286.0 761.1,286.0 766.8,286.0 772.5,286.0 778.2,286.0 783.9,286.0 789.6,286.0 795.3,286.0 801.0,286.0 806.7,286.0 812.4,286.0 818.2,286.0 823.9,286.0 829.6,286.0 835.3,286.0 841.0,286.0 846.7,286.0 852.4,286.0 858.1,286.0 863.8,286.0 869.5,286.0 875.2,286.0 880.9,286.0 886.6,286.0 892.3,286.0 898.1,286.0 903.8,286.0 909.5,286.0 915.2,286.0 920.9,286.0 926.6,286.0 932.3,286.0 938.0,280.0"/><text x="42" y="308" font-size="11" fill="#5a688a">19/06 12:43</text><text x="938" y="308" text-anchor="end" font-size="11" fill="#5a688a">29/06 08:35</text></svg>