<svg xmlns="http://www.w3.org/2000/svg" viewBox="0 0 960 320" width="960" height="320" font-family="Segoe UI, system-ui, -apple-system, Roboto, Helvetica, Arial, sans-serif" role="img" aria-label="Availability history per region"><rect x="0.5" y="0.5" width="959" height="319" rx="14" fill="#0d1117" stroke="#2c3a5e"/><text x="42" y="26" font-size="14" font-weight="600" fill="#e6ecff">History · 51 points</text><circle cx="47" cy="40" r="5" fill="#22c55e"/><text x="57" y="44" font-size="12" fill="#9fb0d4">Available</text><circle cx="139.8" cy="40" r="5" fill="#f59e0b"/><text x="149.8" y="44" font-size="12" fill="#9fb0d4">Saturated</text><circle cx="232.60000000000002" cy="40" r="5" fill="#ef4444"/><text x="242.60000000000002" y="44" font-size="12" fill="#9fb0d4">Error</text><line x1="42" y1="286.0" x2="938" y2="286.0" stroke="#21304f" stroke-width="1"/><text x="35" y="289.0" text-anchor="end" font-size="11" fill="#9fb0d4">0</text><line x1="42" y1="227.5" x2="938" y2="227.5" stroke="#21304f" stroke-width="1"/><text x="35" y="230.5" text-anchor="end" font-size="11" fill="#9fb0d4">10</text><line x1="42" y1="169.0" x2="938" y2="169.0" stroke="#21304f" stroke-width="1"/><text x="35" y="172.0" text-anchor="end" font-size="11" fill="#9fb0d4">20</text><line x1="42" y1="110.5" x2="938" y2="110.5" stroke="#21304f" stroke-width="1"/><text x="35" y="113.5" text-anchor="end" font-size="11" fill="#9fb0d4">29</text><line x1="42" y1="52.0" x2="938" y2="52.0" stroke="#21304f" stroke-width="1"/><text x="35" y="55.0" text-anchor="end" font-size="11" fill="#9fb0d4">39</text><polyline fill="none" stroke="#22c55e" stroke-width="2.5" stroke-linejoin="round" stroke-linecap="round" points="42.0,70.0 59.9,70.0 77.8,88.0 95.8,88.0 113.7,76.0 131.6,76.0 149.5,76.0 167.4,70.0 185.4,76.0 203.3,70.0 221.2,64.0 239.1,58.0 257.0,58.0 275.0,58.0 292.9,58.0 310.8,58.0 328.7,58.0 346.6,58.0 364.6,58.0 382.5,58.0 400.4,58.0 418.3,58.0 436.2,58.0 454.2,58.0 472.1,58.0 490.0,58.0 507.9,58.0 525.8,58.0 543.8,58.0 561.7,58.0 579.6,58.0 597.5,70.0 615.4,76.0 633.4,94.0 651.3,64.0 669.2,64.0 687.1,58.0 705.0,58.0 723.0,58.0 740.9,70.0 758.8,76.0 776.7,76.0 794.6,82.0 812.6,82.0 830.5,82.0 848.4,82.0 866.3,76.0 884.2,64.0 902.2,70.0 920.1,70.0 938.0,82.0"/><circle cx="42.0" cy="70.0" r="2.5" fill="#22c55e"/><circle cx="59.9" cy="70.0" r="2.5" fill="#22c55e"/><circle cx="77.8" cy="88.0" r="2.5" fill="#22c55e"/><circle cx="95.8" cy="88.0" r="2.5" fill="#22c55e"/><circle cx="113.7" cy="76.0" r="2.5" fill="#22c55e"/><circle cx="131.6" cy="76.0" r="2.5" fill="#22c55e"/><circle cx="149.5" cy="76.0" r="2.5" fill="#22c55e"/><circle cx="167.4" cy="70.0" r="2.5" fill="#22c55e"/><circle cx="185.4" cy="76.0" r="2.5" fill="#22c55e"/><circle cx="203.3" cy="70.0" r="2.5" fill="#22c55e"/><circle cx="221.2" cy="64.0" r="2.5" fill="#22c55e"/><circle cx="239.1" cy="58.0" r="2.5" fill="#22c55e"/><circle cx="257.0" cy="58.0" r="2.5" fill="#22c55e"/><circle cx="275.0" cy="58.0" r="2.5" fill="#22c55e"/><circle cx="292.9" cy="58.0" r="2.5" fill="#22c55e"/><circle cx="310.8" cy="58.0" r="2.5" fill="#22c55e"/><circle cx="328.7" cy="58.0" r="2.5" fill="#22c55e"/><circle cx="346.6" cy="58.0" r="2.5" fill="#22c55e"/><circle cx="364.6" cy="58.0" r="2.5" fill="#22c55e"/><circle cx="382.5" cy="58.0" r="2.5" fill="#22c55e"/><circle cx="400.4" cy="58.0" r="2.5" fill="#22c55e"/><circle cx="418.3" cy="58.0" r="2.5" fill="#22c55e"/><circle cx="436.2" cy="58.0" r="2.5" fill="#22c55e"/><circle cx="454.2" cy="58.0" r="2.5" fill="#22c55e"/><circle cx="472.1" cy="58.0" r="2.5" fill="#22c55e"/><circle cx="490.0" cy="58.0" r="2.5" fill="#22c55e"/><circle cx="507.9" cy="58.0" r="2.5" fill="#22c55e"/><circle cx="525.8" cy="58.0" r="2.5" fill="#22c55e"/><circle cx="543.8" cy="58.0" r="2.5" fill="#22c55e"/><circle cx="561.7" cy="58.0" r="2.5" fill="#22c55e"/><circle cx="579.6" cy="58.0" r="2.5" fill="#22c55e"/><circle cx="597.5" cy="70.0" r="2.5" fill="#22c55e"/><circle cx="615.4" cy="76.0" r="2.5" fill="#22c55e"/><circle cx="633.4" cy="94.0" r="2.5" fill="#22c55e"/><circle cx="651.3" cy="64.0" r="2.5" fill="#22c55e"/><circle cx="669.2" cy="64.0" r="2.5" fill="#22c55e"/><circle cx="687.1" cy="58.0" r="2.5" fill="#22c55e"/><circle cx="705.0" cy="58.0" r="2.5" fill="#22c55e"/><circle cx="723.0" cy="58.0" r="2.5" fill="#22c55e"/><circle cx="740.9" cy="70.0" r="2.5" fill="#22c55e"/><circle cx="758.8" cy="76.0" r="2.5" fill="#22c55e"/><circle cx="776.7" cy="76.0" r="2.5" fill="#22c55e"/><circle cx="794.6" cy="82.0" r="2.5" fill="#22c55e"/><circle cx="812.6" cy="82.0" r="2.5" fill="#22c55e"/><circle cx="830.5" cy="82.0" r="2.5" fill="#22c55e"/><circle cx="848.4" cy="82.0" r="2.5" fill="#22c55e"/><circle cx="866.3" cy="76.0" r="2.5" fill="#22c55e"/><circle cx="884.2" cy="64.0" r="2.5" fill="#22c55e"/><circle cx="902.2" cy="70.0" r="2.5" fill="#22c55e"/><circle cx="920.1" cy="70.0" r="2.5" fill="#22c55e"/><circle cx="938.0" cy="82.0" r="2.5" fill="#22c55e"/><polyline fill="none" stroke="#f59e0b" stroke-width="2.5" stroke-linejoin="round" stroke-linecap="round" points="42.0,274.0 59.9,274.0 77.8,274.0 95.8,280.0 113.7,268.0 131.6,268.0 149.5,268.0 167.4,274.0 185.4,274.0 203.3,274.0 221.2,280.0 239.1,286.0 257.0,286.0 275.0,286.0 292.9,286.0 310.8,286.0 328.7,286.0 346.6,286.0 364.6,286.0 382.5,286.0 400.4,286.0 418.3,286.0 436.2,286.0 454.2,286.0 472.1,286.0 490.0,286.0 507.9,286.0 525.8,286.0 543.8,286.0 561.7,286.0 579.6,286.0 597.5,274.0 615.4,280.0 633.4,280.0 651.3,280.0 669.2,280.0 687.1,286.0 705.0,286.0 723.0,286.0 740.9,274.0 758.8,268.0 776.7,268.0 794.6,262.0 812.6,262.0 830.5,262.0 848.4,262.0 866.3,268.0 884.2,280.0 902.2,280.0 920.1,274.0 938.0,262.0"/><circle cx="42.0" cy="274.0" r="2.5" fill="#f59e0b"/><circle cx="59.9" cy="274.0" r="2.5" fill="#f59e0b"/><circle cx="77.8" cy="274.0" r="2.5" fill="#f59e0b"/><circle cx="95.8" cy="280.0" r="2.5" fill="#f59e0b"/><circle cx="113.7" cy="268.0" r="2.5" fill="#f59e0b"/><circle cx="131.6" cy="268.0" r="2.5" fill="#f59e0b"/><circle cx="149.5" cy="268.0" r="2.5" fill="#f59e0b"/><circle cx="167.4" cy="274.0" r="2.5" fill="#f59e0b"/><circle cx="185.4" cy="274.0" r="2.5" fill="#f59e0b"/><circle cx="203.3" cy="274.0" r="2.5" fill="#f59e0b"/><circle cx="221.2" cy="280.0" r="2.5" fill="#f59e0b"/><circle cx="239.1" cy="286.0" r="2.5" fill="#f59e0b"/><circle cx="257.0" cy="286.0" r="2.5" fill="#f59e0b"/><circle cx="275.0" cy="286.0" r="2.5" fill="#f59e0b"/><circle cx="292.9" cy="286.0" r="2.5" fill="#f59e0b"/><circle cx="310.8" cy="286.0" r="2.5" fill="#f59e0b"/><circle cx="328.7" cy="286.0" r="2.5" fill="#f59e0b"/><circle cx="346.6" cy="286.0" r="2.5" fill="#f59e0b"/><circle cx="364.6" cy="286.0" r="2.5" fill="#f59e0b"/><circle cx="382.5" cy="286.0" r="2.5" fill="#f59e0b"/><circle cx="400.4" cy="286.0" r="2.5" fill="#f59e0b"/><circle cx="418.3" cy="286.0" r="2.5" fill="#f59e0b"/><circle cx="436.2" cy="286.0" r="2.5" fill="#f59e0b"/><circle cx="454.2" cy="286.0" r="2.5" fill="#f59e0b"/><circle cx="472.1" cy="286.0" r="2.5" fill="#f59e0b"/><circle cx="490.0" cy="286.0" r="2.5" fill="#f59e0b"/><circle cx="507.9" cy="286.0" r="2.5" fill="#f59e0b"/><circle cx="525.8" cy="286.0" r="2.5" fill="#f59e0b"/><circle cx="543.8" cy="286.0" r="2.5" fill="#f59e0b"/><circle cx="561.7" cy="286.0" r="2.5" fill="#f59e0b"/><circle cx="579.6" cy="286.0" r="2.5" fill="#f59e0b"/><circle cx="597.5" cy="274.0" r="2.5" fill="#f59e0b"/><circle cx="615.4" cy="280.0" r="2.5" fill="#f59e0b"/><circle cx="633.4" cy="280.0" r="2.5" fill="#f59e0b"/><circle cx="651.3" cy="280.0" r="2.5" fill="#f59e0b"/><circle cx="669.2" cy="280.0" r="2.5" fill="#f59e0b"/><circle cx="687.1" cy="286.0" r="2.5" fill="#f59e0b"/><circle cx="705.0" cy="286.0" r="2.5" fill="#f59e0b"/><circle cx="723.0" cy="286.0" r="2.5" fill="#f59e0b"/><circle cx="740.9" cy="274.0" r="2.5" fill="#f59e0b"/><circle cx="758.8" cy="268.0" r="2.5" fill="#f59e0b"/><circle cx="776.7" cy="268.0" r="2.5" fill="#f59e0b"/><circle cx="794.6" cy="262.0" r="2.5" fill="#f59e0b"/><circle cx="812.6" cy="262.0" r="2.5" fill="#f59e0b"/><circle cx="830.5" cy="262.0" r="2.5" fill="#f59e0b"/><circle cx="848.4" cy="262.0" r="2.5" fill="#f59e0b"/><circle cx="866.3" cy="268.0" r="2.5" fill="#f59e0b"/><circle cx="884.2" cy="280.0" r="2.5" fill="#f59e0b"/><circle cx="902.2" cy="280.0" r="2.5" fill="#f59e0b"/><circle cx="920.1" cy="274.0" r="2.5" fill="#f59e0b"/><circle cx="938.0" cy="262.0" r="2.5" fill="#f59e0b"/><polyline fill="none" stroke="#ef4444" stroke-width="2.5" stroke-linejoin="round" stroke-linecap="round" points="42.0,280.0 59.9,280.0 77.8,268.0 95.8,262.0 113.7,286.0 131.6,286.0 149.5,286.0 167.4,286.0 185.4,280.0 203.3,286.0 221.2,286.0 239.1,286.0 257.0,286.0 275.0,286.0 292.9,286.0 310.8,286.0 328.7,286.0 346.6,286.0 364.6,286.0 382.5,286.0 400.4,286.0 418.3,286.0 436.2,286.0 454.2,286.0 472.1,286.0 490.0,286.0 507.9,286.0 525.8,286.0 543.8,286.0 561.7,286.0 579.6,286.0 597.5,286.0 615.4,274.0 633.4,256.0 651.3,286.0 669.2,286.0 687.1,286.0 705.0,286.0 723.0,286.0 740.9,286.0 758.8,286.0 776.7,286.0 794.6,286.0 812.6,286.0 830.5,286.0 848.4,286.0 866.3,286.0 884.2,286.0 902.2,280.0 920.1,286.0 938.0,286.0"/><circle cx="42.0" cy="280.0" r="2.5" fill="#ef4444"/><circle cx="59.9" cy="280.0" r="2.5" fill="#ef4444"/><circle cx="77.8" cy="268.0" r="2.5" fill="#ef4444"/><circle cx="95.8" cy="262.0" r="2.5" fill="#ef4444"/><circle cx="113.7" cy="286.0" r="2.5" fill="#ef4444"/><circle cx="131.6" cy="286.0" r="2.5" fill="#ef4444"/><circle cx="149.5" cy="286.0" r="2.5" fill="#ef4444"/><circle cx="167.4" cy="286.0" r="2.5" fill="#ef4444"/><circle cx="185.4" cy="280.0" r="2.5" fill="#ef4444"/><circle cx="203.3" cy="286.0" r="2.5" fill="#ef4444"/><circle cx="221.2" cy="286.0" r="2.5" fill="#ef4444"/><circle cx="239.1" cy="286.0" r="2.5" fill="#ef4444"/><circle cx="257.0" cy="286.0" r="2.5" fill="#ef4444"/><circle cx="275.0" cy="286.0" r="2.5" fill="#ef4444"/><circle cx="292.9" cy="286.0" r="2.5" fill="#ef4444"/><circle cx="310.8" cy="286.0" r="2.5" fill="#ef4444"/><circle cx="328.7" cy="286.0" r="2.5" fill="#ef4444"/><circle cx="346.6" cy="286.0" r="2.5" fill="#ef4444"/><circle cx="364.6" cy="286.0" r="2.5" fill="#ef4444"/><circle cx="382.5" cy="286.0" r="2.5" fill="#ef4444"/><circle cx="400.4" cy="286.0" r="2.5" fill="#ef4444"/><circle cx="418.3" cy="286.0" r="2.5" fill="#ef4444"/><circle cx="436.2" cy="286.0" r="2.5" fill="#ef4444"/><circle cx="454.2" cy="286.0" r="2.5" fill="#ef4444"/><circle cx="472.1" cy="286.0" r="2.5" fill="#ef4444"/><circle cx="490.0" cy="286.0" r="2.5" fill="#ef4444"/><circle cx="507.9" cy="286.0" r="2.5" fill="#ef4444"/><circle cx="525.8" cy="286.0" r="2.5" fill="#ef4444"/><circle cx="543.8" cy="286.0" r="2.5" fill="#ef4444"/><circle cx="561.7" cy="286.0" r="2.5" fill="#ef4444"/><circle cx="579.6" cy="286.0" r="2.5" fill="#ef4444"/><circle cx="597.5" cy="286.0" r="2.5" fill="#ef4444"/><circle cx="615.4" cy="274.0" r="2.5" fill="#ef4444"/><circle cx="633.4" cy="256.0" r="2.5" fill="#ef4444"/><circle cx="651.3" cy="286.0" r="2.5" fill="#ef4444"/><circle cx="669.2" cy="286.0" r="2.5" fill="#ef4444"/><circle cx="687.1" cy="286.0" r="2.5" fill="#ef4444"/><circle cx="705.0" cy="286.0" r="2.5" fill="#ef4444"/><circle cx="723.0" cy="286.0" r="2.5" fill="#ef4444"/><circle cx="740.9" cy="286.0" r="2.5" fill="#ef4444"/><circle cx="758.8" cy="286.0" r="2.5" fill="#ef4444"/><circle cx="776.7" cy="286.0" r="2.5" fill="#ef4444"/><circle cx="794.6" cy="286.0" r="2.5" fill="#ef4444"/><circle cx="812.6" cy="286.0" r="2.5" fill="#ef4444"/><circle cx="830.5" cy="286.0" r="2.5" fill="#ef4444"/><circle cx="848.4" cy="286.0" r="2.5" fill="#ef4444"/><circle cx="866.3" cy="286.0" r="2.5" fill="#ef4444"/><circle cx="884.2" cy="286.0" r="2.5" fill="#ef4444"/><circle cx="902.2" cy="280.0" r="2.5" fill="#ef4444"/><circle cx="920.1" cy="286.0" r="2.5" fill="#ef4444"/><circle cx="938.0" cy="286.0" r="2.5" fill="#ef4444"/><text x="42" y="308" font-size="11" fill="#9fb0d4">19/06 12:43</text><text x="938" y="308" text-anchor="end" font-size="11" fill="#9fb0d4">24/06 08:45</text></svg>