<svg xmlns="http://www.w3.org/2000/svg" viewBox="0 0 960 320" width="960" height="320" font-family="Segoe UI, system-ui, -apple-system, Roboto, Helvetica, Arial, sans-serif" role="img" aria-label="Availability history per region"><rect x="0.5" y="0.5" width="959" height="319" rx="14" fill="#0d1117" stroke="#2c3a5e"/><text x="42" y="26" font-size="14" font-weight="600" fill="#e6ecff">History · 148 points</text><circle cx="47" cy="40" r="5" fill="#22c55e"/><text x="57" y="44" font-size="12" fill="#9fb0d4">Available</text><circle cx="139.8" cy="40" r="5" fill="#f59e0b"/><text x="149.8" y="44" font-size="12" fill="#9fb0d4">Saturated</text><circle cx="232.60000000000002" cy="40" r="5" fill="#ef4444"/><text x="242.60000000000002" y="44" font-size="12" fill="#9fb0d4">Error</text><circle cx="296.6" cy="40" r="5" fill="#a855f7"/><text x="306.6" y="44" font-size="12" fill="#9fb0d4">Timeout</text><line x1="42" y1="286.0" x2="938" y2="286.0" stroke="#21304f" stroke-width="1"/><text x="35" y="289.0" text-anchor="end" font-size="11" fill="#9fb0d4">0</text><line x1="42" y1="227.5" x2="938" y2="227.5" stroke="#21304f" stroke-width="1"/><text x="35" y="230.5" text-anchor="end" font-size="11" fill="#9fb0d4">10</text><line x1="42" y1="169.0" x2="938" y2="169.0" stroke="#21304f" stroke-width="1"/><text x="35" y="172.0" text-anchor="end" font-size="11" fill="#9fb0d4">20</text><line x1="42" y1="110.5" x2="938" y2="110.5" stroke="#21304f" stroke-width="1"/><text x="35" y="113.5" text-anchor="end" font-size="11" fill="#9fb0d4">29</text><line x1="42" y1="52.0" x2="938" y2="52.0" stroke="#21304f" stroke-width="1"/><text x="35" y="55.0" text-anchor="end" font-size="11" fill="#9fb0d4">39</text><polyline fill="none" stroke="#22c55e" stroke-width="2.5" stroke-linejoin="round" stroke-linecap="round" points="42.0,70.0 48.1,70.0 54.2,88.0 60.3,88.0 66.4,76.0 72.5,76.0 78.6,76.0 84.7,70.0 90.8,76.0 96.9,70.0 103.0,64.0 109.0,58.0 115.1,58.0 121.2,58.0 127.3,58.0 133.4,58.0 139.5,58.0 145.6,58.0 151.7,58.0 157.8,58.0 163.9,58.0 170.0,58.0 176.1,58.0 182.2,58.0 188.3,58.0 194.4,58.0 200.5,58.0 206.6,58.0 212.7,58.0 218.8,58.0 224.9,58.0 231.0,70.0 237.0,76.0 243.1,94.0 249.2,64.0 255.3,64.0 261.4,58.0 267.5,58.0 273.6,58.0 279.7,70.0 285.8,76.0 291.9,76.0 298.0,82.0 304.1,82.0 310.2,82.0 316.3,82.0 322.4,76.0 328.5,64.0 334.6,70.0 340.7,70.0 346.8,82.0 352.9,76.0 359.0,76.0 365.0,82.0 371.1,76.0 377.2,76.0 383.3,76.0 389.4,64.0 395.5,64.0 401.6,76.0 407.7,76.0 413.8,76.0 419.9,88.0 426.0,70.0 432.1,64.0 438.2,58.0 444.3,58.0 450.4,70.0 456.5,70.0 462.6,70.0 468.7,76.0 474.8,70.0 480.9,70.0 487.0,70.0 493.0,70.0 499.1,76.0 505.2,82.0 511.3,76.0 517.4,70.0 523.5,70.0 529.6,70.0 535.7,70.0 541.8,76.0 547.9,70.0 554.0,70.0 560.1,70.0 566.2,70.0 572.3,70.0 578.4,70.0 584.5,70.0 590.6,70.0 596.7,70.0 602.8,70.0 608.9,70.0 615.0,70.0 621.0,70.0 627.1,70.0 633.2,70.0 639.3,70.0 645.4,70.0 651.5,70.0 657.6,70.0 663.7,70.0 669.8,70.0 675.9,70.0 682.0,70.0 688.1,70.0 694.2,70.0 700.3,70.0 706.4,70.0 712.5,70.0 718.6,70.0 724.7,70.0 730.8,70.0 736.9,70.0 743.0,70.0 749.0,70.0 755.1,70.0 761.2,70.0 767.3,70.0 773.4,70.0 779.5,70.0 785.6,70.0 791.7,70.0 797.8,70.0 803.9,70.0 810.0,70.0 816.1,70.0 822.2,70.0 828.3,70.0 834.4,70.0 840.5,70.0 846.6,70.0 852.7,70.0 858.8,70.0 864.9,70.0 871.0,70.0 877.0,70.0 883.1,70.0 889.2,70.0 895.3,70.0 901.4,70.0 907.5,70.0 913.6,70.0 919.7,70.0 925.8,70.0 931.9,70.0 938.0,70.0"/><polyline fill="none" stroke="#f59e0b" stroke-width="2.5" stroke-linejoin="round" stroke-linecap="round" points="42.0,274.0 48.1,274.0 54.2,274.0 60.3,280.0 66.4,268.0 72.5,268.0 78.6,268.0 84.7,274.0 90.8,274.0 96.9,274.0 103.0,280.0 109.0,286.0 115.1,286.0 121.2,286.0 127.3,286.0 133.4,286.0 139.5,286.0 145.6,286.0 151.7,286.0 157.8,286.0 163.9,286.0 170.0,286.0 176.1,286.0 182.2,286.0 188.3,286.0 194.4,286.0 200.5,286.0 206.6,286.0 212.7,286.0 218.8,286.0 224.9,286.0 231.0,274.0 237.0,280.0 243.1,280.0 249.2,280.0 255.3,280.0 261.4,286.0 267.5,286.0 273.6,286.0 279.7,274.0 285.8,268.0 291.9,268.0 298.0,262.0 304.1,262.0 310.2,262.0 316.3,262.0 322.4,268.0 328.5,280.0 334.6,280.0 340.7,274.0 346.8,262.0 352.9,268.0 359.0,268.0 365.0,262.0 371.1,268.0 377.2,268.0 383.3,268.0 389.4,280.0 395.5,280.0 401.6,268.0 407.7,268.0 413.8,268.0 419.9,262.0 426.0,274.0 432.1,280.0 438.2,286.0 444.3,286.0 450.4,274.0 456.5,274.0 462.6,274.0 468.7,274.0 474.8,274.0 480.9,274.0 487.0,274.0 493.0,274.0 499.1,280.0 505.2,274.0 511.3,280.0 517.4,286.0 523.5,286.0 529.6,286.0 535.7,286.0 541.8,280.0 547.9,286.0 554.0,286.0 560.1,286.0 566.2,286.0 572.3,286.0 578.4,286.0 584.5,286.0 590.6,286.0 596.7,286.0 602.8,286.0 608.9,286.0 615.0,286.0 621.0,286.0 627.1,286.0 633.2,286.0 639.3,286.0 645.4,286.0 651.5,286.0 657.6,286.0 663.7,286.0 669.8,286.0 675.9,286.0 682.0,286.0 688.1,286.0 694.2,286.0 700.3,286.0 706.4,286.0 712.5,286.0 718.6,286.0 724.7,286.0 730.8,286.0 736.9,286.0 743.0,286.0 749.0,286.0 755.1,286.0 761.2,286.0 767.3,286.0 773.4,286.0 779.5,286.0 785.6,286.0 791.7,286.0 797.8,286.0 803.9,286.0 810.0,286.0 816.1,286.0 822.2,286.0 828.3,286.0 834.4,286.0 840.5,286.0 846.6,286.0 852.7,286.0 858.8,286.0 864.9,286.0 871.0,286.0 877.0,286.0 883.1,286.0 889.2,286.0 895.3,286.0 901.4,286.0 907.5,286.0 913.6,286.0 919.7,286.0 925.8,286.0 931.9,286.0 938.0,286.0"/><polyline fill="none" stroke="#ef4444" stroke-width="2.5" stroke-linejoin="round" stroke-linecap="round" points="42.0,280.0 48.1,280.0 54.2,268.0 60.3,262.0 66.4,286.0 72.5,286.0 78.6,286.0 84.7,286.0 90.8,280.0 96.9,286.0 103.0,286.0 109.0,286.0 115.1,286.0 121.2,286.0 127.3,286.0 133.4,286.0 139.5,286.0 145.6,286.0 151.7,286.0 157.8,286.0 163.9,286.0 170.0,286.0 176.1,286.0 182.2,286.0 188.3,286.0 194.4,286.0 200.5,286.0 206.6,286.0 212.7,286.0 218.8,286.0 224.9,286.0 231.0,286.0 237.0,274.0 243.1,256.0 249.2,286.0 255.3,286.0 261.4,286.0 267.5,286.0 273.6,286.0 279.7,286.0 285.8,286.0 291.9,286.0 298.0,286.0 304.1,286.0 310.2,286.0 316.3,286.0 322.4,286.0 328.5,286.0 334.6,280.0 340.7,286.0 346.8,286.0 352.9,286.0 359.0,286.0 365.0,286.0 371.1,286.0 377.2,286.0 383.3,286.0 389.4,286.0 395.5,286.0 401.6,286.0 407.7,286.0 413.8,286.0 419.9,280.0 426.0,286.0 432.1,286.0 438.2,286.0 444.3,286.0 450.4,286.0 456.5,286.0 462.6,286.0 468.7,286.0 474.8,286.0 480.9,286.0 487.0,286.0 493.0,286.0 499.1,274.0 505.2,274.0 511.3,274.0 517.4,274.0 523.5,274.0 529.6,274.0 535.7,274.0 541.8,274.0 547.9,274.0 554.0,274.0 560.1,274.0 566.2,274.0 572.3,274.0 578.4,274.0 584.5,274.0 590.6,274.0 596.7,274.0 602.8,274.0 608.9,274.0 615.0,274.0 621.0,274.0 627.1,274.0 633.2,274.0 639.3,274.0 645.4,274.0 651.5,274.0 657.6,274.0 663.7,274.0 669.8,274.0 675.9,274.0 682.0,274.0 688.1,274.0 694.2,274.0 700.3,274.0 706.4,274.0 712.5,274.0 718.6,274.0 724.7,274.0 730.8,274.0 736.9,274.0 743.0,274.0 749.0,274.0 755.1,274.0 761.2,274.0 767.3,274.0 773.4,274.0 779.5,274.0 785.6,274.0 791.7,274.0 797.8,274.0 803.9,274.0 810.0,274.0 816.1,274.0 822.2,274.0 828.3,274.0 834.4,274.0 840.5,274.0 846.6,274.0 852.7,274.0 858.8,274.0 864.9,274.0 871.0,274.0 877.0,274.0 883.1,274.0 889.2,274.0 895.3,274.0 901.4,274.0 907.5,274.0 913.6,274.0 919.7,274.0 925.8,274.0 931.9,274.0 938.0,274.0"/><polyline fill="none" stroke="#a855f7" stroke-width="2.5" stroke-linejoin="round" stroke-linecap="round" points="42.0,286.0 48.1,286.0 54.2,286.0 60.3,286.0 66.4,286.0 72.5,286.0 78.6,286.0 84.7,286.0 90.8,286.0 96.9,286.0 103.0,286.0 109.0,286.0 115.1,286.0 121.2,286.0 127.3,286.0 133.4,286.0 139.5,286.0 145.6,286.0 151.7,286.0 157.8,286.0 163.9,286.0 170.0,286.0 176.1,286.0 182.2,286.0 188.3,286.0 194.4,286.0 200.5,286.0 206.6,286.0 212.7,286.0 218.8,286.0 224.9,286.0 231.0,286.0 237.0,286.0 243.1,286.0 249.2,286.0 255.3,286.0 261.4,286.0 267.5,286.0 273.6,286.0 279.7,286.0 285.8,286.0 291.9,286.0 298.0,286.0 304.1,286.0 310.2,286.0 316.3,286.0 322.4,286.0 328.5,286.0 334.6,286.0 340.7,286.0 346.8,286.0 352.9,286.0 359.0,286.0 365.0,286.0 371.1,286.0 377.2,286.0 383.3,286.0 389.4,286.0 395.5,286.0 401.6,286.0 407.7,286.0 413.8,286.0 419.9,286.0 426.0,286.0 432.1,286.0 438.2,286.0 444.3,286.0 450.4,286.0 456.5,286.0 462.6,286.0 468.7,280.0 474.8,286.0 480.9,286.0 487.0,286.0 493.0,286.0 499.1,286.0 505.2,286.0 511.3,286.0 517.4,286.0 523.5,286.0 529.6,286.0 535.7,286.0 541.8,286.0 547.9,286.0 554.0,286.0 560.1,286.0 566.2,286.0 572.3,286.0 578.4,286.0 584.5,286.0 590.6,286.0 596.7,286.0 602.8,286.0 608.9,286.0 615.0,286.0 621.0,286.0 627.1,286.0 633.2,286.0 639.3,286.0 645.4,286.0 651.5,286.0 657.6,286.0 663.7,286.0 669.8,286.0 675.9,286.0 682.0,286.0 688.1,286.0 694.2,286.0 700.3,286.0 706.4,286.0 712.5,286.0 718.6,286.0 724.7,286.0 730.8,286.0 736.9,286.0 743.0,286.0 749.0,286.0 755.1,286.0 761.2,286.0 767.3,286.0 773.4,286.0 779.5,286.0 785.6,286.0 791.7,286.0 797.8,286.0 803.9,286.0 810.0,286.0 816.1,286.0 822.2,286.0 828.3,286.0 834.4,286.0 840.5,286.0 846.6,286.0 852.7,286.0 858.8,286.0 864.9,286.0 871.0,286.0 877.0,286.0 883.1,286.0 889.2,286.0 895.3,286.0 901.4,286.0 907.5,286.0 913.6,286.0 919.7,286.0 925.8,286.0 931.9,286.0 938.0,286.0"/><text x="42" y="308" font-size="11" fill="#9fb0d4">19/06 12:43</text><text x="938" y="308" text-anchor="end" font-size="11" fill="#9fb0d4">28/06 23:41</text></svg>