<svg xmlns="http://www.w3.org/2000/svg" viewBox="0 0 960 320" width="960" height="320" font-family="Segoe UI, system-ui, -apple-system, Roboto, Helvetica, Arial, sans-serif" role="img" aria-label="Availability history per region"><rect x="0.5" y="0.5" width="959" height="319" rx="14" fill="#0d1117" stroke="#2c3a5e"/><text x="42" y="26" font-size="14" font-weight="600" fill="#e6ecff">History · 163 points</text><circle cx="47" cy="40" r="5" fill="#22c55e"/><text x="57" y="44" font-size="12" fill="#9fb0d4">Available</text><circle cx="139.8" cy="40" r="5" fill="#f59e0b"/><text x="149.8" y="44" font-size="12" fill="#9fb0d4">Saturated</text><circle cx="232.60000000000002" cy="40" r="5" fill="#ef4444"/><text x="242.60000000000002" y="44" font-size="12" fill="#9fb0d4">Error</text><circle cx="296.6" cy="40" r="5" fill="#a855f7"/><text x="306.6" y="44" font-size="12" fill="#9fb0d4">Timeout</text><line x1="42" y1="286.0" x2="938" y2="286.0" stroke="#21304f" stroke-width="1"/><text x="35" y="289.0" text-anchor="end" font-size="11" fill="#9fb0d4">0</text><line x1="42" y1="227.5" x2="938" y2="227.5" stroke="#21304f" stroke-width="1"/><text x="35" y="230.5" text-anchor="end" font-size="11" fill="#9fb0d4">10</text><line x1="42" y1="169.0" x2="938" y2="169.0" stroke="#21304f" stroke-width="1"/><text x="35" y="172.0" text-anchor="end" font-size="11" fill="#9fb0d4">20</text><line x1="42" y1="110.5" x2="938" y2="110.5" stroke="#21304f" stroke-width="1"/><text x="35" y="113.5" text-anchor="end" font-size="11" fill="#9fb0d4">29</text><line x1="42" y1="52.0" x2="938" y2="52.0" stroke="#21304f" stroke-width="1"/><text x="35" y="55.0" text-anchor="end" font-size="11" fill="#9fb0d4">39</text><polyline fill="none" stroke="#22c55e" stroke-width="2.5" stroke-linejoin="round" stroke-linecap="round" points="42.0,70.0 47.5,70.0 53.1,88.0 58.6,88.0 64.1,76.0 69.7,76.0 75.2,76.0 80.7,70.0 86.2,76.0 91.8,70.0 97.3,64.0 102.8,58.0 108.4,58.0 113.9,58.0 119.4,58.0 125.0,58.0 130.5,58.0 136.0,58.0 141.6,58.0 147.1,58.0 152.6,58.0 158.1,58.0 163.7,58.0 169.2,58.0 174.7,58.0 180.3,58.0 185.8,58.0 191.3,58.0 196.9,58.0 202.4,58.0 207.9,58.0 213.5,70.0 219.0,76.0 224.5,94.0 230.0,64.0 235.6,64.0 241.1,58.0 246.6,58.0 252.2,58.0 257.7,70.0 263.2,76.0 268.8,76.0 274.3,82.0 279.8,82.0 285.4,82.0 290.9,82.0 296.4,76.0 302.0,64.0 307.5,70.0 313.0,70.0 318.5,82.0 324.1,76.0 329.6,76.0 335.1,82.0 340.7,76.0 346.2,76.0 351.7,76.0 357.3,64.0 362.8,64.0 368.3,76.0 373.9,76.0 379.4,76.0 384.9,88.0 390.4,70.0 396.0,64.0 401.5,58.0 407.0,58.0 412.6,70.0 418.1,70.0 423.6,70.0 429.2,76.0 434.7,70.0 440.2,70.0 445.8,70.0 451.3,70.0 456.8,76.0 462.3,82.0 467.9,76.0 473.4,70.0 478.9,70.0 484.5,70.0 490.0,70.0 495.5,76.0 501.1,70.0 506.6,70.0 512.1,70.0 517.7,70.0 523.2,70.0 528.7,70.0 534.2,70.0 539.8,70.0 545.3,70.0 550.8,70.0 556.4,70.0 561.9,70.0 567.4,70.0 573.0,70.0 578.5,70.0 584.0,70.0 589.6,70.0 595.1,70.0 600.6,70.0 606.1,70.0 611.7,70.0 617.2,70.0 622.7,70.0 628.3,70.0 633.8,70.0 639.3,70.0 644.9,70.0 650.4,70.0 655.9,70.0 661.5,70.0 667.0,70.0 672.5,70.0 678.0,70.0 683.6,70.0 689.1,70.0 694.6,70.0 700.2,70.0 705.7,70.0 711.2,70.0 716.8,70.0 722.3,70.0 727.8,70.0 733.4,70.0 738.9,70.0 744.4,70.0 750.0,70.0 755.5,70.0 761.0,70.0 766.5,70.0 772.1,70.0 777.6,70.0 783.1,70.0 788.7,70.0 794.2,70.0 799.7,70.0 805.3,70.0 810.8,70.0 816.3,70.0 821.9,70.0 827.4,70.0 832.9,70.0 838.4,70.0 844.0,70.0 849.5,70.0 855.0,70.0 860.6,70.0 866.1,70.0 871.6,70.0 877.2,76.0 882.7,70.0 888.2,70.0 893.8,70.0 899.3,70.0 904.8,70.0 910.3,76.0 915.9,76.0 921.4,88.0 926.9,88.0 932.5,88.0 938.0,94.0"/><polyline fill="none" stroke="#f59e0b" stroke-width="2.5" stroke-linejoin="round" stroke-linecap="round" points="42.0,274.0 47.5,274.0 53.1,274.0 58.6,280.0 64.1,268.0 69.7,268.0 75.2,268.0 80.7,274.0 86.2,274.0 91.8,274.0 97.3,280.0 102.8,286.0 108.4,286.0 113.9,286.0 119.4,286.0 125.0,286.0 130.5,286.0 136.0,286.0 141.6,286.0 147.1,286.0 152.6,286.0 158.1,286.0 163.7,286.0 169.2,286.0 174.7,286.0 180.3,286.0 185.8,286.0 191.3,286.0 196.9,286.0 202.4,286.0 207.9,286.0 213.5,274.0 219.0,280.0 224.5,280.0 230.0,280.0 235.6,280.0 241.1,286.0 246.6,286.0 252.2,286.0 257.7,274.0 263.2,268.0 268.8,268.0 274.3,262.0 279.8,262.0 285.4,262.0 290.9,262.0 296.4,268.0 302.0,280.0 307.5,280.0 313.0,274.0 318.5,262.0 324.1,268.0 329.6,268.0 335.1,262.0 340.7,268.0 346.2,268.0 351.7,268.0 357.3,280.0 362.8,280.0 368.3,268.0 373.9,268.0 379.4,268.0 384.9,262.0 390.4,274.0 396.0,280.0 401.5,286.0 407.0,286.0 412.6,274.0 418.1,274.0 423.6,274.0 429.2,274.0 434.7,274.0 440.2,274.0 445.8,274.0 451.3,274.0 456.8,280.0 462.3,274.0 467.9,280.0 473.4,286.0 478.9,286.0 484.5,286.0 490.0,286.0 495.5,280.0 501.1,286.0 506.6,286.0 512.1,286.0 517.7,286.0 523.2,286.0 528.7,286.0 534.2,286.0 539.8,286.0 545.3,286.0 550.8,286.0 556.4,286.0 561.9,286.0 567.4,286.0 573.0,286.0 578.5,286.0 584.0,286.0 589.6,286.0 595.1,286.0 600.6,286.0 606.1,286.0 611.7,286.0 617.2,286.0 622.7,286.0 628.3,286.0 633.8,286.0 639.3,286.0 644.9,286.0 650.4,286.0 655.9,286.0 661.5,286.0 667.0,286.0 672.5,286.0 678.0,286.0 683.6,286.0 689.1,286.0 694.6,286.0 700.2,286.0 705.7,286.0 711.2,286.0 716.8,286.0 722.3,286.0 727.8,286.0 733.4,286.0 738.9,286.0 744.4,286.0 750.0,286.0 755.5,286.0 761.0,286.0 766.5,286.0 772.1,286.0 777.6,286.0 783.1,286.0 788.7,286.0 794.2,286.0 799.7,286.0 805.3,286.0 810.8,286.0 816.3,286.0 821.9,286.0 827.4,286.0 832.9,286.0 838.4,286.0 844.0,286.0 849.5,286.0 855.0,286.0 860.6,286.0 866.1,286.0 871.6,286.0 877.2,286.0 882.7,286.0 888.2,286.0 893.8,286.0 899.3,286.0 904.8,286.0 910.3,286.0 915.9,280.0 921.4,268.0 926.9,268.0 932.5,268.0 938.0,268.0"/><polyline fill="none" stroke="#ef4444" stroke-width="2.5" stroke-linejoin="round" stroke-linecap="round" points="42.0,280.0 47.5,280.0 53.1,268.0 58.6,262.0 64.1,286.0 69.7,286.0 75.2,286.0 80.7,286.0 86.2,280.0 91.8,286.0 97.3,286.0 102.8,286.0 108.4,286.0 113.9,286.0 119.4,286.0 125.0,286.0 130.5,286.0 136.0,286.0 141.6,286.0 147.1,286.0 152.6,286.0 158.1,286.0 163.7,286.0 169.2,286.0 174.7,286.0 180.3,286.0 185.8,286.0 191.3,286.0 196.9,286.0 202.4,286.0 207.9,286.0 213.5,286.0 219.0,274.0 224.5,256.0 230.0,286.0 235.6,286.0 241.1,286.0 246.6,286.0 252.2,286.0 257.7,286.0 263.2,286.0 268.8,286.0 274.3,286.0 279.8,286.0 285.4,286.0 290.9,286.0 296.4,286.0 302.0,286.0 307.5,280.0 313.0,286.0 318.5,286.0 324.1,286.0 329.6,286.0 335.1,286.0 340.7,286.0 346.2,286.0 351.7,286.0 357.3,286.0 362.8,286.0 368.3,286.0 373.9,286.0 379.4,286.0 384.9,280.0 390.4,286.0 396.0,286.0 401.5,286.0 407.0,286.0 412.6,286.0 418.1,286.0 423.6,286.0 429.2,286.0 434.7,286.0 440.2,286.0 445.8,286.0 451.3,286.0 456.8,274.0 462.3,274.0 467.9,274.0 473.4,274.0 478.9,274.0 484.5,274.0 490.0,274.0 495.5,274.0 501.1,274.0 506.6,274.0 512.1,274.0 517.7,274.0 523.2,274.0 528.7,274.0 534.2,274.0 539.8,274.0 545.3,274.0 550.8,274.0 556.4,274.0 561.9,274.0 567.4,274.0 573.0,274.0 578.5,274.0 584.0,274.0 589.6,274.0 595.1,274.0 600.6,274.0 606.1,274.0 611.7,274.0 617.2,274.0 622.7,274.0 628.3,274.0 633.8,274.0 639.3,274.0 644.9,274.0 650.4,274.0 655.9,274.0 661.5,274.0 667.0,274.0 672.5,274.0 678.0,274.0 683.6,274.0 689.1,274.0 694.6,274.0 700.2,274.0 705.7,274.0 711.2,274.0 716.8,274.0 722.3,274.0 727.8,274.0 733.4,274.0 738.9,274.0 744.4,274.0 750.0,274.0 755.5,274.0 761.0,274.0 766.5,274.0 772.1,274.0 777.6,274.0 783.1,274.0 788.7,274.0 794.2,274.0 799.7,274.0 805.3,274.0 810.8,274.0 816.3,274.0 821.9,274.0 827.4,274.0 832.9,274.0 838.4,274.0 844.0,274.0 849.5,274.0 855.0,274.0 860.6,274.0 866.1,274.0 871.6,274.0 877.2,268.0 882.7,274.0 888.2,274.0 893.8,274.0 899.3,274.0 904.8,274.0 910.3,274.0 915.9,274.0 921.4,274.0 926.9,274.0 932.5,274.0 938.0,268.0"/><polyline fill="none" stroke="#a855f7" stroke-width="2.5" stroke-linejoin="round" stroke-linecap="round" points="42.0,286.0 47.5,286.0 53.1,286.0 58.6,286.0 64.1,286.0 69.7,286.0 75.2,286.0 80.7,286.0 86.2,286.0 91.8,286.0 97.3,286.0 102.8,286.0 108.4,286.0 113.9,286.0 119.4,286.0 125.0,286.0 130.5,286.0 136.0,286.0 141.6,286.0 147.1,286.0 152.6,286.0 158.1,286.0 163.7,286.0 169.2,286.0 174.7,286.0 180.3,286.0 185.8,286.0 191.3,286.0 196.9,286.0 202.4,286.0 207.9,286.0 213.5,286.0 219.0,286.0 224.5,286.0 230.0,286.0 235.6,286.0 241.1,286.0 246.6,286.0 252.2,286.0 257.7,286.0 263.2,286.0 268.8,286.0 274.3,286.0 279.8,286.0 285.4,286.0 290.9,286.0 296.4,286.0 302.0,286.0 307.5,286.0 313.0,286.0 318.5,286.0 324.1,286.0 329.6,286.0 335.1,286.0 340.7,286.0 346.2,286.0 351.7,286.0 357.3,286.0 362.8,286.0 368.3,286.0 373.9,286.0 379.4,286.0 384.9,286.0 390.4,286.0 396.0,286.0 401.5,286.0 407.0,286.0 412.6,286.0 418.1,286.0 423.6,286.0 429.2,280.0 434.7,286.0 440.2,286.0 445.8,286.0 451.3,286.0 456.8,286.0 462.3,286.0 467.9,286.0 473.4,286.0 478.9,286.0 484.5,286.0 490.0,286.0 495.5,286.0 501.1,286.0 506.6,286.0 512.1,286.0 517.7,286.0 523.2,286.0 528.7,286.0 534.2,286.0 539.8,286.0 545.3,286.0 550.8,286.0 556.4,286.0 561.9,286.0 567.4,286.0 573.0,286.0 578.5,286.0 584.0,286.0 589.6,286.0 595.1,286.0 600.6,286.0 606.1,286.0 611.7,286.0 617.2,286.0 622.7,286.0 628.3,286.0 633.8,286.0 639.3,286.0 644.9,286.0 650.4,286.0 655.9,286.0 661.5,286.0 667.0,286.0 672.5,286.0 678.0,286.0 683.6,286.0 689.1,286.0 694.6,286.0 700.2,286.0 705.7,286.0 711.2,286.0 716.8,286.0 722.3,286.0 727.8,286.0 733.4,286.0 738.9,286.0 744.4,286.0 750.0,286.0 755.5,286.0 761.0,286.0 766.5,286.0 772.1,286.0 777.6,286.0 783.1,286.0 788.7,286.0 794.2,286.0 799.7,286.0 805.3,286.0 810.8,286.0 816.3,286.0 821.9,286.0 827.4,286.0 832.9,286.0 838.4,286.0 844.0,286.0 849.5,286.0 855.0,286.0 860.6,286.0 866.1,286.0 871.6,286.0 877.2,286.0 882.7,286.0 888.2,286.0 893.8,286.0 899.3,286.0 904.8,286.0 910.3,280.0 915.9,286.0 921.4,286.0 926.9,286.0 932.5,286.0 938.0,286.0"/><text x="42" y="308" font-size="11" fill="#9fb0d4">19/06 12:43</text><text x="938" y="308" text-anchor="end" font-size="11" fill="#9fb0d4">29/06 13:30</text></svg>