<svg xmlns="http://www.w3.org/2000/svg" viewBox="0 0 960 320" width="960" height="320" font-family="Segoe UI, system-ui, -apple-system, Roboto, Helvetica, Arial, sans-serif" role="img" aria-label="Availability history per region"><rect x="0.5" y="0.5" width="959" height="319" rx="14" fill="#ffffff" stroke="#dce3f1"/><text x="42" y="26" font-size="14" font-weight="600" fill="#14203a">History · 258 points</text><circle cx="47" cy="40" r="5" fill="#22c55e"/><text x="57" y="44" font-size="12" fill="#5a688a">Available</text><circle cx="139.8" cy="40" r="5" fill="#f59e0b"/><text x="149.8" y="44" font-size="12" fill="#5a688a">Saturated</text><circle cx="232.60000000000002" cy="40" r="5" fill="#ef4444"/><text x="242.60000000000002" y="44" font-size="12" fill="#5a688a">Error</text><circle cx="296.6" cy="40" r="5" fill="#a855f7"/><text x="306.6" y="44" font-size="12" fill="#5a688a">Timeout</text><line x1="42" y1="286.0" x2="938" y2="286.0" stroke="#eef2f7" stroke-width="1"/><text x="35" y="289.0" text-anchor="end" font-size="11" fill="#5a688a">0</text><line x1="42" y1="227.5" x2="938" y2="227.5" stroke="#eef2f7" stroke-width="1"/><text x="35" y="230.5" text-anchor="end" font-size="11" fill="#5a688a">10</text><line x1="42" y1="169.0" x2="938" y2="169.0" stroke="#eef2f7" stroke-width="1"/><text x="35" y="172.0" text-anchor="end" font-size="11" fill="#5a688a">20</text><line x1="42" y1="110.5" x2="938" y2="110.5" stroke="#eef2f7" stroke-width="1"/><text x="35" y="113.5" text-anchor="end" font-size="11" fill="#5a688a">29</text><line x1="42" y1="52.0" x2="938" y2="52.0" stroke="#eef2f7" stroke-width="1"/><text x="35" y="55.0" text-anchor="end" font-size="11" fill="#5a688a">39</text><polyline fill="none" stroke="#22c55e" stroke-width="2.5" stroke-linejoin="round" stroke-linecap="round" points="42.0,70.0 45.5,70.0 49.0,88.0 52.5,88.0 55.9,76.0 59.4,76.0 62.9,76.0 66.4,70.0 69.9,76.0 73.4,70.0 76.9,64.0 80.4,58.0 83.8,58.0 87.3,58.0 90.8,58.0 94.3,58.0 97.8,58.0 101.3,58.0 104.8,58.0 108.2,58.0 111.7,58.0 115.2,58.0 118.7,58.0 122.2,58.0 125.7,58.0 129.2,58.0 132.6,58.0 136.1,58.0 139.6,58.0 143.1,58.0 146.6,58.0 150.1,70.0 153.6,76.0 157.1,94.0 160.5,64.0 164.0,64.0 167.5,58.0 171.0,58.0 174.5,58.0 178.0,70.0 181.5,76.0 184.9,76.0 188.4,82.0 191.9,82.0 195.4,82.0 198.9,82.0 202.4,76.0 205.9,64.0 209.3,70.0 212.8,70.0 216.3,82.0 219.8,76.0 223.3,76.0 226.8,82.0 230.3,76.0 233.8,76.0 237.2,76.0 240.7,64.0 244.2,64.0 247.7,76.0 251.2,76.0 254.7,76.0 258.2,88.0 261.6,70.0 265.1,64.0 268.6,58.0 272.1,58.0 275.6,70.0 279.1,70.0 282.6,70.0 286.0,76.0 289.5,70.0 293.0,70.0 296.5,70.0 300.0,70.0 303.5,76.0 307.0,82.0 310.5,76.0 313.9,70.0 317.4,70.0 320.9,70.0 324.4,70.0 327.9,76.0 331.4,70.0 334.9,70.0 338.3,70.0 341.8,70.0 345.3,70.0 348.8,70.0 352.3,70.0 355.8,70.0 359.3,70.0 362.7,70.0 366.2,70.0 369.7,70.0 373.2,70.0 376.7,70.0 380.2,70.0 383.7,70.0 387.2,70.0 390.6,70.0 394.1,70.0 397.6,70.0 401.1,70.0 404.6,70.0 408.1,70.0 411.6,70.0 415.0,70.0 418.5,70.0 422.0,70.0 425.5,70.0 429.0,70.0 432.5,70.0 436.0,70.0 439.4,70.0 442.9,70.0 446.4,70.0 449.9,70.0 453.4,70.0 456.9,70.0 460.4,70.0 463.9,70.0 467.3,70.0 470.8,70.0 474.3,70.0 477.8,70.0 481.3,70.0 484.8,70.0 488.3,70.0 491.7,70.0 495.2,70.0 498.7,70.0 502.2,70.0 505.7,70.0 509.2,70.0 512.7,70.0 516.1,70.0 519.6,70.0 523.1,70.0 526.6,70.0 530.1,70.0 533.6,70.0 537.1,70.0 540.6,70.0 544.0,70.0 547.5,70.0 551.0,70.0 554.5,70.0 558.0,70.0 561.5,70.0 565.0,70.0 568.4,76.0 571.9,70.0 575.4,70.0 578.9,70.0 582.4,70.0 585.9,70.0 589.4,76.0 592.8,76.0 596.3,88.0 599.8,88.0 603.3,88.0 606.8,94.0 610.3,94.0 613.8,94.0 617.3,94.0 620.7,88.0 624.2,88.0 627.7,82.0 631.2,82.0 634.7,82.0 638.2,88.0 641.7,88.0 645.1,94.0 648.6,82.0 652.1,82.0 655.6,82.0 659.1,82.0 662.6,88.0 666.1,88.0 669.5,94.0 673.0,94.0 676.5,88.0 680.0,88.0 683.5,88.0 687.0,94.0 690.5,94.0 694.0,106.0 697.4,94.0 700.9,94.0 704.4,94.0 707.9,94.0 711.4,88.0 714.9,88.0 718.4,82.0 721.8,76.0 725.3,76.0 728.8,76.0 732.3,76.0 735.8,76.0 739.3,76.0 742.8,70.0 746.2,70.0 749.7,70.0 753.2,76.0 756.7,88.0 760.2,82.0 763.7,70.0 767.2,70.0 770.7,70.0 774.1,76.0 777.6,76.0 781.1,76.0 784.6,82.0 788.1,70.0 791.6,76.0 795.1,64.0 798.5,70.0 802.0,58.0 805.5,58.0 809.0,58.0 812.5,58.0 816.0,58.0 819.5,64.0 822.9,58.0 826.4,64.0 829.9,58.0 833.4,58.0 836.9,58.0 840.4,58.0 843.9,64.0 847.4,64.0 850.8,64.0 854.3,76.0 857.8,70.0 861.3,82.0 864.8,70.0 868.3,76.0 871.8,58.0 875.2,64.0 878.7,58.0 882.2,64.0 885.7,58.0 889.2,58.0 892.7,58.0 896.2,64.0 899.6,70.0 903.1,64.0 906.6,64.0 910.1,64.0 913.6,70.0 917.1,70.0 920.6,64.0 924.1,70.0 927.5,70.0 931.0,70.0 934.5,58.0 938.0,58.0"/><polyline fill="none" stroke="#f59e0b" stroke-width="2.5" stroke-linejoin="round" stroke-linecap="round" points="42.0,274.0 45.5,274.0 49.0,274.0 52.5,280.0 55.9,268.0 59.4,268.0 62.9,268.0 66.4,274.0 69.9,274.0 73.4,274.0 76.9,280.0 80.4,286.0 83.8,286.0 87.3,286.0 90.8,286.0 94.3,286.0 97.8,286.0 101.3,286.0 104.8,286.0 108.2,286.0 111.7,286.0 115.2,286.0 118.7,286.0 122.2,286.0 125.7,286.0 129.2,286.0 132.6,286.0 136.1,286.0 139.6,286.0 143.1,286.0 146.6,286.0 150.1,274.0 153.6,280.0 157.1,280.0 160.5,280.0 164.0,280.0 167.5,286.0 171.0,286.0 174.5,286.0 178.0,274.0 181.5,268.0 184.9,268.0 188.4,262.0 191.9,262.0 195.4,262.0 198.9,262.0 202.4,268.0 205.9,280.0 209.3,280.0 212.8,274.0 216.3,262.0 219.8,268.0 223.3,268.0 226.8,262.0 230.3,268.0 233.8,268.0 237.2,268.0 240.7,280.0 244.2,280.0 247.7,268.0 251.2,268.0 254.7,268.0 258.2,262.0 261.6,274.0 265.1,280.0 268.6,286.0 272.1,286.0 275.6,274.0 279.1,274.0 282.6,274.0 286.0,274.0 289.5,274.0 293.0,274.0 296.5,274.0 300.0,274.0 303.5,280.0 307.0,274.0 310.5,280.0 313.9,286.0 317.4,286.0 320.9,286.0 324.4,286.0 327.9,280.0 331.4,286.0 334.9,286.0 338.3,286.0 341.8,286.0 345.3,286.0 348.8,286.0 352.3,286.0 355.8,286.0 359.3,286.0 362.7,286.0 366.2,286.0 369.7,286.0 373.2,286.0 376.7,286.0 380.2,286.0 383.7,286.0 387.2,286.0 390.6,286.0 394.1,286.0 397.6,286.0 401.1,286.0 404.6,286.0 408.1,286.0 411.6,286.0 415.0,286.0 418.5,286.0 422.0,286.0 425.5,286.0 429.0,286.0 432.5,286.0 436.0,286.0 439.4,286.0 442.9,286.0 446.4,286.0 449.9,286.0 453.4,286.0 456.9,286.0 460.4,286.0 463.9,286.0 467.3,286.0 470.8,286.0 474.3,286.0 477.8,286.0 481.3,286.0 484.8,286.0 488.3,286.0 491.7,286.0 495.2,286.0 498.7,286.0 502.2,286.0 505.7,286.0 509.2,286.0 512.7,286.0 516.1,286.0 519.6,286.0 523.1,286.0 526.6,286.0 530.1,286.0 533.6,286.0 537.1,286.0 540.6,286.0 544.0,286.0 547.5,286.0 551.0,286.0 554.5,286.0 558.0,286.0 561.5,286.0 565.0,286.0 568.4,286.0 571.9,286.0 575.4,286.0 578.9,286.0 582.4,286.0 585.9,286.0 589.4,286.0 592.8,280.0 596.3,268.0 599.8,268.0 603.3,268.0 606.8,268.0 610.3,262.0 613.8,262.0 617.3,262.0 620.7,268.0 624.2,268.0 627.7,274.0 631.2,274.0 634.7,274.0 638.2,268.0 641.7,268.0 645.1,268.0 648.6,274.0 652.1,274.0 655.6,274.0 659.1,274.0 662.6,268.0 666.1,268.0 669.5,262.0 673.0,262.0 676.5,268.0 680.0,268.0 683.5,268.0 687.0,262.0 690.5,262.0 694.0,274.0 697.4,262.0 700.9,262.0 704.4,262.0 707.9,262.0 711.4,268.0 714.9,268.0 718.4,274.0 721.8,280.0 725.3,280.0 728.8,280.0 732.3,280.0 735.8,280.0 739.3,280.0 742.8,286.0 746.2,286.0 749.7,286.0 753.2,280.0 756.7,274.0 760.2,274.0 763.7,280.0 767.2,274.0 770.7,274.0 774.1,268.0 777.6,268.0 781.1,268.0 784.6,268.0 788.1,280.0 791.6,274.0 795.1,280.0 798.5,280.0 802.0,286.0 805.5,286.0 809.0,286.0 812.5,286.0 816.0,286.0 819.5,286.0 822.9,286.0 826.4,286.0 829.9,286.0 833.4,286.0 836.9,286.0 840.4,286.0 843.9,280.0 847.4,280.0 850.8,280.0 854.3,268.0 857.8,280.0 861.3,268.0 864.8,274.0 868.3,274.0 871.8,286.0 875.2,280.0 878.7,286.0 882.2,280.0 885.7,286.0 889.2,286.0 892.7,286.0 896.2,280.0 899.6,274.0 903.1,280.0 906.6,280.0 910.1,280.0 913.6,274.0 917.1,274.0 920.6,280.0 924.1,280.0 927.5,280.0 931.0,280.0 934.5,286.0 938.0,286.0"/><polyline fill="none" stroke="#ef4444" stroke-width="2.5" stroke-linejoin="round" stroke-linecap="round" points="42.0,280.0 45.5,280.0 49.0,268.0 52.5,262.0 55.9,286.0 59.4,286.0 62.9,286.0 66.4,286.0 69.9,280.0 73.4,286.0 76.9,286.0 80.4,286.0 83.8,286.0 87.3,286.0 90.8,286.0 94.3,286.0 97.8,286.0 101.3,286.0 104.8,286.0 108.2,286.0 111.7,286.0 115.2,286.0 118.7,286.0 122.2,286.0 125.7,286.0 129.2,286.0 132.6,286.0 136.1,286.0 139.6,286.0 143.1,286.0 146.6,286.0 150.1,286.0 153.6,274.0 157.1,256.0 160.5,286.0 164.0,286.0 167.5,286.0 171.0,286.0 174.5,286.0 178.0,286.0 181.5,286.0 184.9,286.0 188.4,286.0 191.9,286.0 195.4,286.0 198.9,286.0 202.4,286.0 205.9,286.0 209.3,280.0 212.8,286.0 216.3,286.0 219.8,286.0 223.3,286.0 226.8,286.0 230.3,286.0 233.8,286.0 237.2,286.0 240.7,286.0 244.2,286.0 247.7,286.0 251.2,286.0 254.7,286.0 258.2,280.0 261.6,286.0 265.1,286.0 268.6,286.0 272.1,286.0 275.6,286.0 279.1,286.0 282.6,286.0 286.0,286.0 289.5,286.0 293.0,286.0 296.5,286.0 300.0,286.0 303.5,274.0 307.0,274.0 310.5,274.0 313.9,274.0 317.4,274.0 320.9,274.0 324.4,274.0 327.9,274.0 331.4,274.0 334.9,274.0 338.3,274.0 341.8,274.0 345.3,274.0 348.8,274.0 352.3,274.0 355.8,274.0 359.3,274.0 362.7,274.0 366.2,274.0 369.7,274.0 373.2,274.0 376.7,274.0 380.2,274.0 383.7,274.0 387.2,274.0 390.6,274.0 394.1,274.0 397.6,274.0 401.1,274.0 404.6,274.0 408.1,274.0 411.6,274.0 415.0,274.0 418.5,274.0 422.0,274.0 425.5,274.0 429.0,274.0 432.5,274.0 436.0,274.0 439.4,274.0 442.9,274.0 446.4,274.0 449.9,274.0 453.4,274.0 456.9,274.0 460.4,274.0 463.9,274.0 467.3,274.0 470.8,274.0 474.3,274.0 477.8,274.0 481.3,274.0 484.8,274.0 488.3,274.0 491.7,274.0 495.2,274.0 498.7,274.0 502.2,274.0 505.7,274.0 509.2,274.0 512.7,274.0 516.1,274.0 519.6,274.0 523.1,274.0 526.6,274.0 530.1,274.0 533.6,274.0 537.1,274.0 540.6,274.0 544.0,274.0 547.5,274.0 551.0,274.0 554.5,274.0 558.0,274.0 561.5,274.0 565.0,274.0 568.4,268.0 571.9,274.0 575.4,274.0 578.9,274.0 582.4,274.0 585.9,274.0 589.4,274.0 592.8,274.0 596.3,274.0 599.8,274.0 603.3,274.0 606.8,268.0 610.3,274.0 613.8,274.0 617.3,274.0 620.7,274.0 624.2,274.0 627.7,274.0 631.2,274.0 634.7,274.0 638.2,274.0 641.7,274.0 645.1,268.0 648.6,274.0 652.1,274.0 655.6,274.0 659.1,274.0 662.6,274.0 666.1,274.0 669.5,274.0 673.0,274.0 676.5,274.0 680.0,274.0 683.5,274.0 687.0,274.0 690.5,274.0 694.0,250.0 697.4,274.0 700.9,274.0 704.4,274.0 707.9,274.0 711.4,274.0 714.9,274.0 718.4,274.0 721.8,274.0 725.3,274.0 728.8,274.0 732.3,274.0 735.8,274.0 739.3,274.0 742.8,274.0 746.2,274.0 749.7,274.0 753.2,274.0 756.7,268.0 760.2,274.0 763.7,280.0 767.2,286.0 770.7,286.0 774.1,286.0 777.6,286.0 781.1,286.0 784.6,280.0 788.1,280.0 791.6,286.0 795.1,286.0 798.5,280.0 802.0,286.0 805.5,286.0 809.0,286.0 812.5,286.0 816.0,286.0 819.5,280.0 822.9,286.0 826.4,286.0 829.9,286.0 833.4,286.0 836.9,286.0 840.4,286.0 843.9,286.0 847.4,286.0 850.8,286.0 854.3,286.0 857.8,280.0 861.3,280.0 864.8,286.0 868.3,280.0 871.8,286.0 875.2,286.0 878.7,286.0 882.2,286.0 885.7,286.0 889.2,286.0 892.7,286.0 896.2,286.0 899.6,286.0 903.1,286.0 906.6,286.0 910.1,286.0 913.6,286.0 917.1,286.0 920.6,286.0 924.1,280.0 927.5,286.0 931.0,280.0 934.5,286.0 938.0,286.0"/><polyline fill="none" stroke="#a855f7" stroke-width="2.5" stroke-linejoin="round" stroke-linecap="round" points="42.0,286.0 45.5,286.0 49.0,286.0 52.5,286.0 55.9,286.0 59.4,286.0 62.9,286.0 66.4,286.0 69.9,286.0 73.4,286.0 76.9,286.0 80.4,286.0 83.8,286.0 87.3,286.0 90.8,286.0 94.3,286.0 97.8,286.0 101.3,286.0 104.8,286.0 108.2,286.0 111.7,286.0 115.2,286.0 118.7,286.0 122.2,286.0 125.7,286.0 129.2,286.0 132.6,286.0 136.1,286.0 139.6,286.0 143.1,286.0 146.6,286.0 150.1,286.0 153.6,286.0 157.1,286.0 160.5,286.0 164.0,286.0 167.5,286.0 171.0,286.0 174.5,286.0 178.0,286.0 181.5,286.0 184.9,286.0 188.4,286.0 191.9,286.0 195.4,286.0 198.9,286.0 202.4,286.0 205.9,286.0 209.3,286.0 212.8,286.0 216.3,286.0 219.8,286.0 223.3,286.0 226.8,286.0 230.3,286.0 233.8,286.0 237.2,286.0 240.7,286.0 244.2,286.0 247.7,286.0 251.2,286.0 254.7,286.0 258.2,286.0 261.6,286.0 265.1,286.0 268.6,286.0 272.1,286.0 275.6,286.0 279.1,286.0 282.6,286.0 286.0,280.0 289.5,286.0 293.0,286.0 296.5,286.0 300.0,286.0 303.5,286.0 307.0,286.0 310.5,286.0 313.9,286.0 317.4,286.0 320.9,286.0 324.4,286.0 327.9,286.0 331.4,286.0 334.9,286.0 338.3,286.0 341.8,286.0 345.3,286.0 348.8,286.0 352.3,286.0 355.8,286.0 359.3,286.0 362.7,286.0 366.2,286.0 369.7,286.0 373.2,286.0 376.7,286.0 380.2,286.0 383.7,286.0 387.2,286.0 390.6,286.0 394.1,286.0 397.6,286.0 401.1,286.0 404.6,286.0 408.1,286.0 411.6,286.0 415.0,286.0 418.5,286.0 422.0,286.0 425.5,286.0 429.0,286.0 432.5,286.0 436.0,286.0 439.4,286.0 442.9,286.0 446.4,286.0 449.9,286.0 453.4,286.0 456.9,286.0 460.4,286.0 463.9,286.0 467.3,286.0 470.8,286.0 474.3,286.0 477.8,286.0 481.3,286.0 484.8,286.0 488.3,286.0 491.7,286.0 495.2,286.0 498.7,286.0 502.2,286.0 505.7,286.0 509.2,286.0 512.7,286.0 516.1,286.0 519.6,286.0 523.1,286.0 526.6,286.0 530.1,286.0 533.6,286.0 537.1,286.0 540.6,286.0 544.0,286.0 547.5,286.0 551.0,286.0 554.5,286.0 558.0,286.0 561.5,286.0 565.0,286.0 568.4,286.0 571.9,286.0 575.4,286.0 578.9,286.0 582.4,286.0 585.9,286.0 589.4,280.0 592.8,286.0 596.3,286.0 599.8,286.0 603.3,286.0 606.8,286.0 610.3,286.0 613.8,286.0 617.3,286.0 620.7,286.0 624.2,286.0 627.7,286.0 631.2,286.0 634.7,286.0 638.2,286.0 641.7,286.0 645.1,286.0 648.6,286.0 652.1,286.0 655.6,286.0 659.1,286.0 662.6,286.0 666.1,286.0 669.5,286.0 673.0,286.0 676.5,286.0 680.0,286.0 683.5,286.0 687.0,286.0 690.5,286.0 694.0,286.0 697.4,286.0 700.9,286.0 704.4,286.0 707.9,286.0 711.4,286.0 714.9,286.0 718.4,286.0 721.8,286.0 725.3,286.0 728.8,286.0 732.3,286.0 735.8,286.0 739.3,286.0 742.8,286.0 746.2,286.0 749.7,286.0 753.2,286.0 756.7,286.0 760.2,286.0 763.7,286.0 767.2,286.0 770.7,286.0 774.1,286.0 777.6,286.0 781.1,286.0 784.6,286.0 788.1,286.0 791.6,280.0 795.1,286.0 798.5,286.0 802.0,286.0 805.5,286.0 809.0,286.0 812.5,286.0 816.0,286.0 819.5,286.0 822.9,286.0 826.4,280.0 829.9,286.0 833.4,286.0 836.9,286.0 840.4,286.0 843.9,286.0 847.4,286.0 850.8,286.0 854.3,286.0 857.8,286.0 861.3,286.0 864.8,286.0 868.3,286.0 871.8,286.0 875.2,286.0 878.7,286.0 882.2,286.0 885.7,286.0 889.2,286.0 892.7,286.0 896.2,286.0 899.6,286.0 903.1,286.0 906.6,286.0 910.1,286.0 913.6,286.0 917.1,286.0 920.6,286.0 924.1,286.0 927.5,280.0 931.0,286.0 934.5,286.0 938.0,286.0"/><text x="42" y="308" font-size="11" fill="#5a688a">19/06 12:43</text><text x="938" y="308" text-anchor="end" font-size="11" fill="#5a688a">03/07 20:30</text></svg>