<svg xmlns="http://www.w3.org/2000/svg" viewBox="0 0 960 320" width="960" height="320" font-family="Segoe UI, system-ui, -apple-system, Roboto, Helvetica, Arial, sans-serif" role="img" aria-label="Availability history per region"><rect x="0.5" y="0.5" width="959" height="319" rx="14" fill="#0d1117" stroke="#2c3a5e"/><text x="42" y="26" font-size="14" font-weight="600" fill="#e6ecff">History · 178 points</text><circle cx="47" cy="40" r="5" fill="#22c55e"/><text x="57" y="44" font-size="12" fill="#9fb0d4">Available</text><circle cx="139.8" cy="40" r="5" fill="#f59e0b"/><text x="149.8" y="44" font-size="12" fill="#9fb0d4">Saturated</text><circle cx="232.60000000000002" cy="40" r="5" fill="#ef4444"/><text x="242.60000000000002" y="44" font-size="12" fill="#9fb0d4">Error</text><circle cx="296.6" cy="40" r="5" fill="#a855f7"/><text x="306.6" y="44" font-size="12" fill="#9fb0d4">Timeout</text><line x1="42" y1="286.0" x2="938" y2="286.0" stroke="#21304f" stroke-width="1"/><text x="35" y="289.0" text-anchor="end" font-size="11" fill="#9fb0d4">0</text><line x1="42" y1="227.5" x2="938" y2="227.5" stroke="#21304f" stroke-width="1"/><text x="35" y="230.5" text-anchor="end" font-size="11" fill="#9fb0d4">10</text><line x1="42" y1="169.0" x2="938" y2="169.0" stroke="#21304f" stroke-width="1"/><text x="35" y="172.0" text-anchor="end" font-size="11" fill="#9fb0d4">20</text><line x1="42" y1="110.5" x2="938" y2="110.5" stroke="#21304f" stroke-width="1"/><text x="35" y="113.5" text-anchor="end" font-size="11" fill="#9fb0d4">29</text><line x1="42" y1="52.0" x2="938" y2="52.0" stroke="#21304f" stroke-width="1"/><text x="35" y="55.0" text-anchor="end" font-size="11" fill="#9fb0d4">39</text><polyline fill="none" stroke="#22c55e" stroke-width="2.5" stroke-linejoin="round" stroke-linecap="round" points="42.0,70.0 47.1,70.0 52.1,88.0 57.2,88.0 62.2,76.0 67.3,76.0 72.4,76.0 77.4,70.0 82.5,76.0 87.6,70.0 92.6,64.0 97.7,58.0 102.7,58.0 107.8,58.0 112.9,58.0 117.9,58.0 123.0,58.0 128.1,58.0 133.1,58.0 138.2,58.0 143.2,58.0 148.3,58.0 153.4,58.0 158.4,58.0 163.5,58.0 168.6,58.0 173.6,58.0 178.7,58.0 183.7,58.0 188.8,58.0 193.9,58.0 198.9,70.0 204.0,76.0 209.1,94.0 214.1,64.0 219.2,64.0 224.2,58.0 229.3,58.0 234.4,58.0 239.4,70.0 244.5,76.0 249.5,76.0 254.6,82.0 259.7,82.0 264.7,82.0 269.8,82.0 274.9,76.0 279.9,64.0 285.0,70.0 290.0,70.0 295.1,82.0 300.2,76.0 305.2,76.0 310.3,82.0 315.4,76.0 320.4,76.0 325.5,76.0 330.5,64.0 335.6,64.0 340.7,76.0 345.7,76.0 350.8,76.0 355.9,88.0 360.9,70.0 366.0,64.0 371.0,58.0 376.1,58.0 381.2,70.0 386.2,70.0 391.3,70.0 396.4,76.0 401.4,70.0 406.5,70.0 411.5,70.0 416.6,70.0 421.7,76.0 426.7,82.0 431.8,76.0 436.8,70.0 441.9,70.0 447.0,70.0 452.0,70.0 457.1,76.0 462.2,70.0 467.2,70.0 472.3,70.0 477.3,70.0 482.4,70.0 487.5,70.0 492.5,70.0 497.6,70.0 502.7,70.0 507.7,70.0 512.8,70.0 517.8,70.0 522.9,70.0 528.0,70.0 533.0,70.0 538.1,70.0 543.2,70.0 548.2,70.0 553.3,70.0 558.3,70.0 563.4,70.0 568.5,70.0 573.5,70.0 578.6,70.0 583.6,70.0 588.7,70.0 593.8,70.0 598.8,70.0 603.9,70.0 609.0,70.0 614.0,70.0 619.1,70.0 624.1,70.0 629.2,70.0 634.3,70.0 639.3,70.0 644.4,70.0 649.5,70.0 654.5,70.0 659.6,70.0 664.6,70.0 669.7,70.0 674.8,70.0 679.8,70.0 684.9,70.0 690.0,70.0 695.0,70.0 700.1,70.0 705.1,70.0 710.2,70.0 715.3,70.0 720.3,70.0 725.4,70.0 730.5,70.0 735.5,70.0 740.6,70.0 745.6,70.0 750.7,70.0 755.8,70.0 760.8,70.0 765.9,70.0 770.9,70.0 776.0,70.0 781.1,70.0 786.1,70.0 791.2,70.0 796.3,70.0 801.3,70.0 806.4,76.0 811.4,70.0 816.5,70.0 821.6,70.0 826.6,70.0 831.7,70.0 836.8,76.0 841.8,76.0 846.9,88.0 851.9,88.0 857.0,88.0 862.1,94.0 867.1,94.0 872.2,94.0 877.3,94.0 882.3,88.0 887.4,88.0 892.4,82.0 897.5,82.0 902.6,82.0 907.6,88.0 912.7,88.0 917.8,94.0 922.8,82.0 927.9,82.0 932.9,82.0 938.0,82.0"/><polyline fill="none" stroke="#f59e0b" stroke-width="2.5" stroke-linejoin="round" stroke-linecap="round" points="42.0,274.0 47.1,274.0 52.1,274.0 57.2,280.0 62.2,268.0 67.3,268.0 72.4,268.0 77.4,274.0 82.5,274.0 87.6,274.0 92.6,280.0 97.7,286.0 102.7,286.0 107.8,286.0 112.9,286.0 117.9,286.0 123.0,286.0 128.1,286.0 133.1,286.0 138.2,286.0 143.2,286.0 148.3,286.0 153.4,286.0 158.4,286.0 163.5,286.0 168.6,286.0 173.6,286.0 178.7,286.0 183.7,286.0 188.8,286.0 193.9,286.0 198.9,274.0 204.0,280.0 209.1,280.0 214.1,280.0 219.2,280.0 224.2,286.0 229.3,286.0 234.4,286.0 239.4,274.0 244.5,268.0 249.5,268.0 254.6,262.0 259.7,262.0 264.7,262.0 269.8,262.0 274.9,268.0 279.9,280.0 285.0,280.0 290.0,274.0 295.1,262.0 300.2,268.0 305.2,268.0 310.3,262.0 315.4,268.0 320.4,268.0 325.5,268.0 330.5,280.0 335.6,280.0 340.7,268.0 345.7,268.0 350.8,268.0 355.9,262.0 360.9,274.0 366.0,280.0 371.0,286.0 376.1,286.0 381.2,274.0 386.2,274.0 391.3,274.0 396.4,274.0 401.4,274.0 406.5,274.0 411.5,274.0 416.6,274.0 421.7,280.0 426.7,274.0 431.8,280.0 436.8,286.0 441.9,286.0 447.0,286.0 452.0,286.0 457.1,280.0 462.2,286.0 467.2,286.0 472.3,286.0 477.3,286.0 482.4,286.0 487.5,286.0 492.5,286.0 497.6,286.0 502.7,286.0 507.7,286.0 512.8,286.0 517.8,286.0 522.9,286.0 528.0,286.0 533.0,286.0 538.1,286.0 543.2,286.0 548.2,286.0 553.3,286.0 558.3,286.0 563.4,286.0 568.5,286.0 573.5,286.0 578.6,286.0 583.6,286.0 588.7,286.0 593.8,286.0 598.8,286.0 603.9,286.0 609.0,286.0 614.0,286.0 619.1,286.0 624.1,286.0 629.2,286.0 634.3,286.0 639.3,286.0 644.4,286.0 649.5,286.0 654.5,286.0 659.6,286.0 664.6,286.0 669.7,286.0 674.8,286.0 679.8,286.0 684.9,286.0 690.0,286.0 695.0,286.0 700.1,286.0 705.1,286.0 710.2,286.0 715.3,286.0 720.3,286.0 725.4,286.0 730.5,286.0 735.5,286.0 740.6,286.0 745.6,286.0 750.7,286.0 755.8,286.0 760.8,286.0 765.9,286.0 770.9,286.0 776.0,286.0 781.1,286.0 786.1,286.0 791.2,286.0 796.3,286.0 801.3,286.0 806.4,286.0 811.4,286.0 816.5,286.0 821.6,286.0 826.6,286.0 831.7,286.0 836.8,286.0 841.8,280.0 846.9,268.0 851.9,268.0 857.0,268.0 862.1,268.0 867.1,262.0 872.2,262.0 877.3,262.0 882.3,268.0 887.4,268.0 892.4,274.0 897.5,274.0 902.6,274.0 907.6,268.0 912.7,268.0 917.8,268.0 922.8,274.0 927.9,274.0 932.9,274.0 938.0,274.0"/><polyline fill="none" stroke="#ef4444" stroke-width="2.5" stroke-linejoin="round" stroke-linecap="round" points="42.0,280.0 47.1,280.0 52.1,268.0 57.2,262.0 62.2,286.0 67.3,286.0 72.4,286.0 77.4,286.0 82.5,280.0 87.6,286.0 92.6,286.0 97.7,286.0 102.7,286.0 107.8,286.0 112.9,286.0 117.9,286.0 123.0,286.0 128.1,286.0 133.1,286.0 138.2,286.0 143.2,286.0 148.3,286.0 153.4,286.0 158.4,286.0 163.5,286.0 168.6,286.0 173.6,286.0 178.7,286.0 183.7,286.0 188.8,286.0 193.9,286.0 198.9,286.0 204.0,274.0 209.1,256.0 214.1,286.0 219.2,286.0 224.2,286.0 229.3,286.0 234.4,286.0 239.4,286.0 244.5,286.0 249.5,286.0 254.6,286.0 259.7,286.0 264.7,286.0 269.8,286.0 274.9,286.0 279.9,286.0 285.0,280.0 290.0,286.0 295.1,286.0 300.2,286.0 305.2,286.0 310.3,286.0 315.4,286.0 320.4,286.0 325.5,286.0 330.5,286.0 335.6,286.0 340.7,286.0 345.7,286.0 350.8,286.0 355.9,280.0 360.9,286.0 366.0,286.0 371.0,286.0 376.1,286.0 381.2,286.0 386.2,286.0 391.3,286.0 396.4,286.0 401.4,286.0 406.5,286.0 411.5,286.0 416.6,286.0 421.7,274.0 426.7,274.0 431.8,274.0 436.8,274.0 441.9,274.0 447.0,274.0 452.0,274.0 457.1,274.0 462.2,274.0 467.2,274.0 472.3,274.0 477.3,274.0 482.4,274.0 487.5,274.0 492.5,274.0 497.6,274.0 502.7,274.0 507.7,274.0 512.8,274.0 517.8,274.0 522.9,274.0 528.0,274.0 533.0,274.0 538.1,274.0 543.2,274.0 548.2,274.0 553.3,274.0 558.3,274.0 563.4,274.0 568.5,274.0 573.5,274.0 578.6,274.0 583.6,274.0 588.7,274.0 593.8,274.0 598.8,274.0 603.9,274.0 609.0,274.0 614.0,274.0 619.1,274.0 624.1,274.0 629.2,274.0 634.3,274.0 639.3,274.0 644.4,274.0 649.5,274.0 654.5,274.0 659.6,274.0 664.6,274.0 669.7,274.0 674.8,274.0 679.8,274.0 684.9,274.0 690.0,274.0 695.0,274.0 700.1,274.0 705.1,274.0 710.2,274.0 715.3,274.0 720.3,274.0 725.4,274.0 730.5,274.0 735.5,274.0 740.6,274.0 745.6,274.0 750.7,274.0 755.8,274.0 760.8,274.0 765.9,274.0 770.9,274.0 776.0,274.0 781.1,274.0 786.1,274.0 791.2,274.0 796.3,274.0 801.3,274.0 806.4,268.0 811.4,274.0 816.5,274.0 821.6,274.0 826.6,274.0 831.7,274.0 836.8,274.0 841.8,274.0 846.9,274.0 851.9,274.0 857.0,274.0 862.1,268.0 867.1,274.0 872.2,274.0 877.3,274.0 882.3,274.0 887.4,274.0 892.4,274.0 897.5,274.0 902.6,274.0 907.6,274.0 912.7,274.0 917.8,268.0 922.8,274.0 927.9,274.0 932.9,274.0 938.0,274.0"/><polyline fill="none" stroke="#a855f7" stroke-width="2.5" stroke-linejoin="round" stroke-linecap="round" points="42.0,286.0 47.1,286.0 52.1,286.0 57.2,286.0 62.2,286.0 67.3,286.0 72.4,286.0 77.4,286.0 82.5,286.0 87.6,286.0 92.6,286.0 97.7,286.0 102.7,286.0 107.8,286.0 112.9,286.0 117.9,286.0 123.0,286.0 128.1,286.0 133.1,286.0 138.2,286.0 143.2,286.0 148.3,286.0 153.4,286.0 158.4,286.0 163.5,286.0 168.6,286.0 173.6,286.0 178.7,286.0 183.7,286.0 188.8,286.0 193.9,286.0 198.9,286.0 204.0,286.0 209.1,286.0 214.1,286.0 219.2,286.0 224.2,286.0 229.3,286.0 234.4,286.0 239.4,286.0 244.5,286.0 249.5,286.0 254.6,286.0 259.7,286.0 264.7,286.0 269.8,286.0 274.9,286.0 279.9,286.0 285.0,286.0 290.0,286.0 295.1,286.0 300.2,286.0 305.2,286.0 310.3,286.0 315.4,286.0 320.4,286.0 325.5,286.0 330.5,286.0 335.6,286.0 340.7,286.0 345.7,286.0 350.8,286.0 355.9,286.0 360.9,286.0 366.0,286.0 371.0,286.0 376.1,286.0 381.2,286.0 386.2,286.0 391.3,286.0 396.4,280.0 401.4,286.0 406.5,286.0 411.5,286.0 416.6,286.0 421.7,286.0 426.7,286.0 431.8,286.0 436.8,286.0 441.9,286.0 447.0,286.0 452.0,286.0 457.1,286.0 462.2,286.0 467.2,286.0 472.3,286.0 477.3,286.0 482.4,286.0 487.5,286.0 492.5,286.0 497.6,286.0 502.7,286.0 507.7,286.0 512.8,286.0 517.8,286.0 522.9,286.0 528.0,286.0 533.0,286.0 538.1,286.0 543.2,286.0 548.2,286.0 553.3,286.0 558.3,286.0 563.4,286.0 568.5,286.0 573.5,286.0 578.6,286.0 583.6,286.0 588.7,286.0 593.8,286.0 598.8,286.0 603.9,286.0 609.0,286.0 614.0,286.0 619.1,286.0 624.1,286.0 629.2,286.0 634.3,286.0 639.3,286.0 644.4,286.0 649.5,286.0 654.5,286.0 659.6,286.0 664.6,286.0 669.7,286.0 674.8,286.0 679.8,286.0 684.9,286.0 690.0,286.0 695.0,286.0 700.1,286.0 705.1,286.0 710.2,286.0 715.3,286.0 720.3,286.0 725.4,286.0 730.5,286.0 735.5,286.0 740.6,286.0 745.6,286.0 750.7,286.0 755.8,286.0 760.8,286.0 765.9,286.0 770.9,286.0 776.0,286.0 781.1,286.0 786.1,286.0 791.2,286.0 796.3,286.0 801.3,286.0 806.4,286.0 811.4,286.0 816.5,286.0 821.6,286.0 826.6,286.0 831.7,286.0 836.8,280.0 841.8,286.0 846.9,286.0 851.9,286.0 857.0,286.0 862.1,286.0 867.1,286.0 872.2,286.0 877.3,286.0 882.3,286.0 887.4,286.0 892.4,286.0 897.5,286.0 902.6,286.0 907.6,286.0 912.7,286.0 917.8,286.0 922.8,286.0 927.9,286.0 932.9,286.0 938.0,286.0"/><text x="42" y="308" font-size="11" fill="#9fb0d4">19/06 12:43</text><text x="938" y="308" text-anchor="end" font-size="11" fill="#9fb0d4">30/06 04:34</text></svg>