<svg xmlns="http://www.w3.org/2000/svg" viewBox="0 0 960 320" width="960" height="320" font-family="Segoe UI, system-ui, -apple-system, Roboto, Helvetica, Arial, sans-serif" role="img" aria-label="Availability history per region"><rect x="0.5" y="0.5" width="959" height="319" rx="14" fill="#ffffff" stroke="#dce3f1"/><text x="42" y="26" font-size="14" font-weight="600" fill="#14203a">History · 230 points</text><circle cx="47" cy="40" r="5" fill="#22c55e"/><text x="57" y="44" font-size="12" fill="#5a688a">Available</text><circle cx="139.8" cy="40" r="5" fill="#f59e0b"/><text x="149.8" y="44" font-size="12" fill="#5a688a">Saturated</text><circle cx="232.60000000000002" cy="40" r="5" fill="#ef4444"/><text x="242.60000000000002" y="44" font-size="12" fill="#5a688a">Error</text><circle cx="296.6" cy="40" r="5" fill="#a855f7"/><text x="306.6" y="44" font-size="12" fill="#5a688a">Timeout</text><line x1="42" y1="286.0" x2="938" y2="286.0" stroke="#eef2f7" stroke-width="1"/><text x="35" y="289.0" text-anchor="end" font-size="11" fill="#5a688a">0</text><line x1="42" y1="227.5" x2="938" y2="227.5" stroke="#eef2f7" stroke-width="1"/><text x="35" y="230.5" text-anchor="end" font-size="11" fill="#5a688a">10</text><line x1="42" y1="169.0" x2="938" y2="169.0" stroke="#eef2f7" stroke-width="1"/><text x="35" y="172.0" text-anchor="end" font-size="11" fill="#5a688a">20</text><line x1="42" y1="110.5" x2="938" y2="110.5" stroke="#eef2f7" stroke-width="1"/><text x="35" y="113.5" text-anchor="end" font-size="11" fill="#5a688a">29</text><line x1="42" y1="52.0" x2="938" y2="52.0" stroke="#eef2f7" stroke-width="1"/><text x="35" y="55.0" text-anchor="end" font-size="11" fill="#5a688a">39</text><polyline fill="none" stroke="#22c55e" stroke-width="2.5" stroke-linejoin="round" stroke-linecap="round" points="42.0,70.0 45.9,70.0 49.8,88.0 53.7,88.0 57.7,76.0 61.6,76.0 65.5,76.0 69.4,70.0 73.3,76.0 77.2,70.0 81.1,64.0 85.0,58.0 89.0,58.0 92.9,58.0 96.8,58.0 100.7,58.0 104.6,58.0 108.5,58.0 112.4,58.0 116.3,58.0 120.3,58.0 124.2,58.0 128.1,58.0 132.0,58.0 135.9,58.0 139.8,58.0 143.7,58.0 147.6,58.0 151.6,58.0 155.5,58.0 159.4,58.0 163.3,70.0 167.2,76.0 171.1,94.0 175.0,64.0 178.9,64.0 182.9,58.0 186.8,58.0 190.7,58.0 194.6,70.0 198.5,76.0 202.4,76.0 206.3,82.0 210.2,82.0 214.2,82.0 218.1,82.0 222.0,76.0 225.9,64.0 229.8,70.0 233.7,70.0 237.6,82.0 241.5,76.0 245.5,76.0 249.4,82.0 253.3,76.0 257.2,76.0 261.1,76.0 265.0,64.0 268.9,64.0 272.8,76.0 276.8,76.0 280.7,76.0 284.6,88.0 288.5,70.0 292.4,64.0 296.3,58.0 300.2,58.0 304.1,70.0 308.1,70.0 312.0,70.0 315.9,76.0 319.8,70.0 323.7,70.0 327.6,70.0 331.5,70.0 335.4,76.0 339.4,82.0 343.3,76.0 347.2,70.0 351.1,70.0 355.0,70.0 358.9,70.0 362.8,76.0 366.8,70.0 370.7,70.0 374.6,70.0 378.5,70.0 382.4,70.0 386.3,70.0 390.2,70.0 394.1,70.0 398.1,70.0 402.0,70.0 405.9,70.0 409.8,70.0 413.7,70.0 417.6,70.0 421.5,70.0 425.4,70.0 429.4,70.0 433.3,70.0 437.2,70.0 441.1,70.0 445.0,70.0 448.9,70.0 452.8,70.0 456.7,70.0 460.7,70.0 464.6,70.0 468.5,70.0 472.4,70.0 476.3,70.0 480.2,70.0 484.1,70.0 488.0,70.0 492.0,70.0 495.9,70.0 499.8,70.0 503.7,70.0 507.6,70.0 511.5,70.0 515.4,70.0 519.3,70.0 523.3,70.0 527.2,70.0 531.1,70.0 535.0,70.0 538.9,70.0 542.8,70.0 546.7,70.0 550.6,70.0 554.6,70.0 558.5,70.0 562.4,70.0 566.3,70.0 570.2,70.0 574.1,70.0 578.0,70.0 581.9,70.0 585.9,70.0 589.8,70.0 593.7,70.0 597.6,70.0 601.5,70.0 605.4,70.0 609.3,70.0 613.2,70.0 617.2,70.0 621.1,70.0 625.0,70.0 628.9,70.0 632.8,76.0 636.7,70.0 640.6,70.0 644.6,70.0 648.5,70.0 652.4,70.0 656.3,76.0 660.2,76.0 664.1,88.0 668.0,88.0 671.9,88.0 675.9,94.0 679.8,94.0 683.7,94.0 687.6,94.0 691.5,88.0 695.4,88.0 699.3,82.0 703.2,82.0 707.2,82.0 711.1,88.0 715.0,88.0 718.9,94.0 722.8,82.0 726.7,82.0 730.6,82.0 734.5,82.0 738.5,88.0 742.4,88.0 746.3,94.0 750.2,94.0 754.1,88.0 758.0,88.0 761.9,88.0 765.8,94.0 769.8,94.0 773.7,106.0 777.6,94.0 781.5,94.0 785.4,94.0 789.3,94.0 793.2,88.0 797.1,88.0 801.1,82.0 805.0,76.0 808.9,76.0 812.8,76.0 816.7,76.0 820.6,76.0 824.5,76.0 828.4,70.0 832.4,70.0 836.3,70.0 840.2,76.0 844.1,88.0 848.0,82.0 851.9,70.0 855.8,70.0 859.7,70.0 863.7,76.0 867.6,76.0 871.5,76.0 875.4,82.0 879.3,70.0 883.2,76.0 887.1,64.0 891.0,70.0 895.0,58.0 898.9,58.0 902.8,58.0 906.7,58.0 910.6,58.0 914.5,64.0 918.4,58.0 922.3,64.0 926.3,58.0 930.2,58.0 934.1,58.0 938.0,58.0"/><polyline fill="none" stroke="#f59e0b" stroke-width="2.5" stroke-linejoin="round" stroke-linecap="round" points="42.0,274.0 45.9,274.0 49.8,274.0 53.7,280.0 57.7,268.0 61.6,268.0 65.5,268.0 69.4,274.0 73.3,274.0 77.2,274.0 81.1,280.0 85.0,286.0 89.0,286.0 92.9,286.0 96.8,286.0 100.7,286.0 104.6,286.0 108.5,286.0 112.4,286.0 116.3,286.0 120.3,286.0 124.2,286.0 128.1,286.0 132.0,286.0 135.9,286.0 139.8,286.0 143.7,286.0 147.6,286.0 151.6,286.0 155.5,286.0 159.4,286.0 163.3,274.0 167.2,280.0 171.1,280.0 175.0,280.0 178.9,280.0 182.9,286.0 186.8,286.0 190.7,286.0 194.6,274.0 198.5,268.0 202.4,268.0 206.3,262.0 210.2,262.0 214.2,262.0 218.1,262.0 222.0,268.0 225.9,280.0 229.8,280.0 233.7,274.0 237.6,262.0 241.5,268.0 245.5,268.0 249.4,262.0 253.3,268.0 257.2,268.0 261.1,268.0 265.0,280.0 268.9,280.0 272.8,268.0 276.8,268.0 280.7,268.0 284.6,262.0 288.5,274.0 292.4,280.0 296.3,286.0 300.2,286.0 304.1,274.0 308.1,274.0 312.0,274.0 315.9,274.0 319.8,274.0 323.7,274.0 327.6,274.0 331.5,274.0 335.4,280.0 339.4,274.0 343.3,280.0 347.2,286.0 351.1,286.0 355.0,286.0 358.9,286.0 362.8,280.0 366.8,286.0 370.7,286.0 374.6,286.0 378.5,286.0 382.4,286.0 386.3,286.0 390.2,286.0 394.1,286.0 398.1,286.0 402.0,286.0 405.9,286.0 409.8,286.0 413.7,286.0 417.6,286.0 421.5,286.0 425.4,286.0 429.4,286.0 433.3,286.0 437.2,286.0 441.1,286.0 445.0,286.0 448.9,286.0 452.8,286.0 456.7,286.0 460.7,286.0 464.6,286.0 468.5,286.0 472.4,286.0 476.3,286.0 480.2,286.0 484.1,286.0 488.0,286.0 492.0,286.0 495.9,286.0 499.8,286.0 503.7,286.0 507.6,286.0 511.5,286.0 515.4,286.0 519.3,286.0 523.3,286.0 527.2,286.0 531.1,286.0 535.0,286.0 538.9,286.0 542.8,286.0 546.7,286.0 550.6,286.0 554.6,286.0 558.5,286.0 562.4,286.0 566.3,286.0 570.2,286.0 574.1,286.0 578.0,286.0 581.9,286.0 585.9,286.0 589.8,286.0 593.7,286.0 597.6,286.0 601.5,286.0 605.4,286.0 609.3,286.0 613.2,286.0 617.2,286.0 621.1,286.0 625.0,286.0 628.9,286.0 632.8,286.0 636.7,286.0 640.6,286.0 644.6,286.0 648.5,286.0 652.4,286.0 656.3,286.0 660.2,280.0 664.1,268.0 668.0,268.0 671.9,268.0 675.9,268.0 679.8,262.0 683.7,262.0 687.6,262.0 691.5,268.0 695.4,268.0 699.3,274.0 703.2,274.0 707.2,274.0 711.1,268.0 715.0,268.0 718.9,268.0 722.8,274.0 726.7,274.0 730.6,274.0 734.5,274.0 738.5,268.0 742.4,268.0 746.3,262.0 750.2,262.0 754.1,268.0 758.0,268.0 761.9,268.0 765.8,262.0 769.8,262.0 773.7,274.0 777.6,262.0 781.5,262.0 785.4,262.0 789.3,262.0 793.2,268.0 797.1,268.0 801.1,274.0 805.0,280.0 808.9,280.0 812.8,280.0 816.7,280.0 820.6,280.0 824.5,280.0 828.4,286.0 832.4,286.0 836.3,286.0 840.2,280.0 844.1,274.0 848.0,274.0 851.9,280.0 855.8,274.0 859.7,274.0 863.7,268.0 867.6,268.0 871.5,268.0 875.4,268.0 879.3,280.0 883.2,274.0 887.1,280.0 891.0,280.0 895.0,286.0 898.9,286.0 902.8,286.0 906.7,286.0 910.6,286.0 914.5,286.0 918.4,286.0 922.3,286.0 926.3,286.0 930.2,286.0 934.1,286.0 938.0,286.0"/><polyline fill="none" stroke="#ef4444" stroke-width="2.5" stroke-linejoin="round" stroke-linecap="round" points="42.0,280.0 45.9,280.0 49.8,268.0 53.7,262.0 57.7,286.0 61.6,286.0 65.5,286.0 69.4,286.0 73.3,280.0 77.2,286.0 81.1,286.0 85.0,286.0 89.0,286.0 92.9,286.0 96.8,286.0 100.7,286.0 104.6,286.0 108.5,286.0 112.4,286.0 116.3,286.0 120.3,286.0 124.2,286.0 128.1,286.0 132.0,286.0 135.9,286.0 139.8,286.0 143.7,286.0 147.6,286.0 151.6,286.0 155.5,286.0 159.4,286.0 163.3,286.0 167.2,274.0 171.1,256.0 175.0,286.0 178.9,286.0 182.9,286.0 186.8,286.0 190.7,286.0 194.6,286.0 198.5,286.0 202.4,286.0 206.3,286.0 210.2,286.0 214.2,286.0 218.1,286.0 222.0,286.0 225.9,286.0 229.8,280.0 233.7,286.0 237.6,286.0 241.5,286.0 245.5,286.0 249.4,286.0 253.3,286.0 257.2,286.0 261.1,286.0 265.0,286.0 268.9,286.0 272.8,286.0 276.8,286.0 280.7,286.0 284.6,280.0 288.5,286.0 292.4,286.0 296.3,286.0 300.2,286.0 304.1,286.0 308.1,286.0 312.0,286.0 315.9,286.0 319.8,286.0 323.7,286.0 327.6,286.0 331.5,286.0 335.4,274.0 339.4,274.0 343.3,274.0 347.2,274.0 351.1,274.0 355.0,274.0 358.9,274.0 362.8,274.0 366.8,274.0 370.7,274.0 374.6,274.0 378.5,274.0 382.4,274.0 386.3,274.0 390.2,274.0 394.1,274.0 398.1,274.0 402.0,274.0 405.9,274.0 409.8,274.0 413.7,274.0 417.6,274.0 421.5,274.0 425.4,274.0 429.4,274.0 433.3,274.0 437.2,274.0 441.1,274.0 445.0,274.0 448.9,274.0 452.8,274.0 456.7,274.0 460.7,274.0 464.6,274.0 468.5,274.0 472.4,274.0 476.3,274.0 480.2,274.0 484.1,274.0 488.0,274.0 492.0,274.0 495.9,274.0 499.8,274.0 503.7,274.0 507.6,274.0 511.5,274.0 515.4,274.0 519.3,274.0 523.3,274.0 527.2,274.0 531.1,274.0 535.0,274.0 538.9,274.0 542.8,274.0 546.7,274.0 550.6,274.0 554.6,274.0 558.5,274.0 562.4,274.0 566.3,274.0 570.2,274.0 574.1,274.0 578.0,274.0 581.9,274.0 585.9,274.0 589.8,274.0 593.7,274.0 597.6,274.0 601.5,274.0 605.4,274.0 609.3,274.0 613.2,274.0 617.2,274.0 621.1,274.0 625.0,274.0 628.9,274.0 632.8,268.0 636.7,274.0 640.6,274.0 644.6,274.0 648.5,274.0 652.4,274.0 656.3,274.0 660.2,274.0 664.1,274.0 668.0,274.0 671.9,274.0 675.9,268.0 679.8,274.0 683.7,274.0 687.6,274.0 691.5,274.0 695.4,274.0 699.3,274.0 703.2,274.0 707.2,274.0 711.1,274.0 715.0,274.0 718.9,268.0 722.8,274.0 726.7,274.0 730.6,274.0 734.5,274.0 738.5,274.0 742.4,274.0 746.3,274.0 750.2,274.0 754.1,274.0 758.0,274.0 761.9,274.0 765.8,274.0 769.8,274.0 773.7,250.0 777.6,274.0 781.5,274.0 785.4,274.0 789.3,274.0 793.2,274.0 797.1,274.0 801.1,274.0 805.0,274.0 808.9,274.0 812.8,274.0 816.7,274.0 820.6,274.0 824.5,274.0 828.4,274.0 832.4,274.0 836.3,274.0 840.2,274.0 844.1,268.0 848.0,274.0 851.9,280.0 855.8,286.0 859.7,286.0 863.7,286.0 867.6,286.0 871.5,286.0 875.4,280.0 879.3,280.0 883.2,286.0 887.1,286.0 891.0,280.0 895.0,286.0 898.9,286.0 902.8,286.0 906.7,286.0 910.6,286.0 914.5,280.0 918.4,286.0 922.3,286.0 926.3,286.0 930.2,286.0 934.1,286.0 938.0,286.0"/><polyline fill="none" stroke="#a855f7" stroke-width="2.5" stroke-linejoin="round" stroke-linecap="round" points="42.0,286.0 45.9,286.0 49.8,286.0 53.7,286.0 57.7,286.0 61.6,286.0 65.5,286.0 69.4,286.0 73.3,286.0 77.2,286.0 81.1,286.0 85.0,286.0 89.0,286.0 92.9,286.0 96.8,286.0 100.7,286.0 104.6,286.0 108.5,286.0 112.4,286.0 116.3,286.0 120.3,286.0 124.2,286.0 128.1,286.0 132.0,286.0 135.9,286.0 139.8,286.0 143.7,286.0 147.6,286.0 151.6,286.0 155.5,286.0 159.4,286.0 163.3,286.0 167.2,286.0 171.1,286.0 175.0,286.0 178.9,286.0 182.9,286.0 186.8,286.0 190.7,286.0 194.6,286.0 198.5,286.0 202.4,286.0 206.3,286.0 210.2,286.0 214.2,286.0 218.1,286.0 222.0,286.0 225.9,286.0 229.8,286.0 233.7,286.0 237.6,286.0 241.5,286.0 245.5,286.0 249.4,286.0 253.3,286.0 257.2,286.0 261.1,286.0 265.0,286.0 268.9,286.0 272.8,286.0 276.8,286.0 280.7,286.0 284.6,286.0 288.5,286.0 292.4,286.0 296.3,286.0 300.2,286.0 304.1,286.0 308.1,286.0 312.0,286.0 315.9,280.0 319.8,286.0 323.7,286.0 327.6,286.0 331.5,286.0 335.4,286.0 339.4,286.0 343.3,286.0 347.2,286.0 351.1,286.0 355.0,286.0 358.9,286.0 362.8,286.0 366.8,286.0 370.7,286.0 374.6,286.0 378.5,286.0 382.4,286.0 386.3,286.0 390.2,286.0 394.1,286.0 398.1,286.0 402.0,286.0 405.9,286.0 409.8,286.0 413.7,286.0 417.6,286.0 421.5,286.0 425.4,286.0 429.4,286.0 433.3,286.0 437.2,286.0 441.1,286.0 445.0,286.0 448.9,286.0 452.8,286.0 456.7,286.0 460.7,286.0 464.6,286.0 468.5,286.0 472.4,286.0 476.3,286.0 480.2,286.0 484.1,286.0 488.0,286.0 492.0,286.0 495.9,286.0 499.8,286.0 503.7,286.0 507.6,286.0 511.5,286.0 515.4,286.0 519.3,286.0 523.3,286.0 527.2,286.0 531.1,286.0 535.0,286.0 538.9,286.0 542.8,286.0 546.7,286.0 550.6,286.0 554.6,286.0 558.5,286.0 562.4,286.0 566.3,286.0 570.2,286.0 574.1,286.0 578.0,286.0 581.9,286.0 585.9,286.0 589.8,286.0 593.7,286.0 597.6,286.0 601.5,286.0 605.4,286.0 609.3,286.0 613.2,286.0 617.2,286.0 621.1,286.0 625.0,286.0 628.9,286.0 632.8,286.0 636.7,286.0 640.6,286.0 644.6,286.0 648.5,286.0 652.4,286.0 656.3,280.0 660.2,286.0 664.1,286.0 668.0,286.0 671.9,286.0 675.9,286.0 679.8,286.0 683.7,286.0 687.6,286.0 691.5,286.0 695.4,286.0 699.3,286.0 703.2,286.0 707.2,286.0 711.1,286.0 715.0,286.0 718.9,286.0 722.8,286.0 726.7,286.0 730.6,286.0 734.5,286.0 738.5,286.0 742.4,286.0 746.3,286.0 750.2,286.0 754.1,286.0 758.0,286.0 761.9,286.0 765.8,286.0 769.8,286.0 773.7,286.0 777.6,286.0 781.5,286.0 785.4,286.0 789.3,286.0 793.2,286.0 797.1,286.0 801.1,286.0 805.0,286.0 808.9,286.0 812.8,286.0 816.7,286.0 820.6,286.0 824.5,286.0 828.4,286.0 832.4,286.0 836.3,286.0 840.2,286.0 844.1,286.0 848.0,286.0 851.9,286.0 855.8,286.0 859.7,286.0 863.7,286.0 867.6,286.0 871.5,286.0 875.4,286.0 879.3,286.0 883.2,280.0 887.1,286.0 891.0,286.0 895.0,286.0 898.9,286.0 902.8,286.0 906.7,286.0 910.6,286.0 914.5,286.0 918.4,286.0 922.3,280.0 926.3,286.0 930.2,286.0 934.1,286.0 938.0,286.0"/><text x="42" y="308" font-size="11" fill="#5a688a">19/06 12:43</text><text x="938" y="308" text-anchor="end" font-size="11" fill="#5a688a">02/07 08:32</text></svg>