<svg xmlns="http://www.w3.org/2000/svg" viewBox="0 0 960 320" width="960" height="320" font-family="Segoe UI, system-ui, -apple-system, Roboto, Helvetica, Arial, sans-serif" role="img" aria-label="Availability history per region"><rect x="0.5" y="0.5" width="959" height="319" rx="14" fill="#ffffff" stroke="#dce3f1"/><text x="42" y="26" font-size="14" font-weight="600" fill="#14203a">History · 298 points</text><circle cx="47" cy="40" r="5" fill="#22c55e"/><text x="57" y="44" font-size="12" fill="#5a688a">Available</text><circle cx="139.8" cy="40" r="5" fill="#f59e0b"/><text x="149.8" y="44" font-size="12" fill="#5a688a">Saturated</text><circle cx="232.60000000000002" cy="40" r="5" fill="#ef4444"/><text x="242.60000000000002" y="44" font-size="12" fill="#5a688a">Error</text><circle cx="296.6" cy="40" r="5" fill="#a855f7"/><text x="306.6" y="44" font-size="12" fill="#5a688a">Timeout</text><line x1="42" y1="286.0" x2="938" y2="286.0" stroke="#eef2f7" stroke-width="1"/><text x="35" y="289.0" text-anchor="end" font-size="11" fill="#5a688a">0</text><line x1="42" y1="227.5" x2="938" y2="227.5" stroke="#eef2f7" stroke-width="1"/><text x="35" y="230.5" text-anchor="end" font-size="11" fill="#5a688a">10</text><line x1="42" y1="169.0" x2="938" y2="169.0" stroke="#eef2f7" stroke-width="1"/><text x="35" y="172.0" text-anchor="end" font-size="11" fill="#5a688a">20</text><line x1="42" y1="110.5" x2="938" y2="110.5" stroke="#eef2f7" stroke-width="1"/><text x="35" y="113.5" text-anchor="end" font-size="11" fill="#5a688a">29</text><line x1="42" y1="52.0" x2="938" y2="52.0" stroke="#eef2f7" stroke-width="1"/><text x="35" y="55.0" text-anchor="end" font-size="11" fill="#5a688a">39</text><polyline fill="none" stroke="#22c55e" stroke-width="2.5" stroke-linejoin="round" stroke-linecap="round" points="42.0,70.0 45.0,70.0 48.0,88.0 51.1,88.0 54.1,76.0 57.1,76.0 60.1,76.0 63.1,70.0 66.1,76.0 69.2,70.0 72.2,64.0 75.2,58.0 78.2,58.0 81.2,58.0 84.2,58.0 87.3,58.0 90.3,58.0 93.3,58.0 96.3,58.0 99.3,58.0 102.3,58.0 105.4,58.0 108.4,58.0 111.4,58.0 114.4,58.0 117.4,58.0 120.4,58.0 123.5,58.0 126.5,58.0 129.5,58.0 132.5,58.0 135.5,70.0 138.5,76.0 141.6,94.0 144.6,64.0 147.6,64.0 150.6,58.0 153.6,58.0 156.6,58.0 159.7,70.0 162.7,76.0 165.7,76.0 168.7,82.0 171.7,82.0 174.7,82.0 177.8,82.0 180.8,76.0 183.8,64.0 186.8,70.0 189.8,70.0 192.8,82.0 195.9,76.0 198.9,76.0 201.9,82.0 204.9,76.0 207.9,76.0 210.9,76.0 214.0,64.0 217.0,64.0 220.0,76.0 223.0,76.0 226.0,76.0 229.0,88.0 232.1,70.0 235.1,64.0 238.1,58.0 241.1,58.0 244.1,70.0 247.1,70.0 250.2,70.0 253.2,76.0 256.2,70.0 259.2,70.0 262.2,70.0 265.2,70.0 268.3,76.0 271.3,82.0 274.3,76.0 277.3,70.0 280.3,70.0 283.3,70.0 286.4,70.0 289.4,76.0 292.4,70.0 295.4,70.0 298.4,70.0 301.4,70.0 304.5,70.0 307.5,70.0 310.5,70.0 313.5,70.0 316.5,70.0 319.5,70.0 322.6,70.0 325.6,70.0 328.6,70.0 331.6,70.0 334.6,70.0 337.6,70.0 340.7,70.0 343.7,70.0 346.7,70.0 349.7,70.0 352.7,70.0 355.8,70.0 358.8,70.0 361.8,70.0 364.8,70.0 367.8,70.0 370.8,70.0 373.9,70.0 376.9,70.0 379.9,70.0 382.9,70.0 385.9,70.0 388.9,70.0 392.0,70.0 395.0,70.0 398.0,70.0 401.0,70.0 404.0,70.0 407.0,70.0 410.1,70.0 413.1,70.0 416.1,70.0 419.1,70.0 422.1,70.0 425.1,70.0 428.2,70.0 431.2,70.0 434.2,70.0 437.2,70.0 440.2,70.0 443.2,70.0 446.3,70.0 449.3,70.0 452.3,70.0 455.3,70.0 458.3,70.0 461.3,70.0 464.4,70.0 467.4,70.0 470.4,70.0 473.4,70.0 476.4,70.0 479.4,70.0 482.5,70.0 485.5,70.0 488.5,70.0 491.5,70.0 494.5,70.0 497.5,76.0 500.6,70.0 503.6,70.0 506.6,70.0 509.6,70.0 512.6,70.0 515.6,76.0 518.7,76.0 521.7,88.0 524.7,88.0 527.7,88.0 530.7,94.0 533.7,94.0 536.8,94.0 539.8,94.0 542.8,88.0 545.8,88.0 548.8,82.0 551.8,82.0 554.9,82.0 557.9,88.0 560.9,88.0 563.9,94.0 566.9,82.0 569.9,82.0 573.0,82.0 576.0,82.0 579.0,88.0 582.0,88.0 585.0,94.0 588.0,94.0 591.1,88.0 594.1,88.0 597.1,88.0 600.1,94.0 603.1,94.0 606.1,106.0 609.2,94.0 612.2,94.0 615.2,94.0 618.2,94.0 621.2,88.0 624.2,88.0 627.3,82.0 630.3,76.0 633.3,76.0 636.3,76.0 639.3,76.0 642.4,76.0 645.4,76.0 648.4,70.0 651.4,70.0 654.4,70.0 657.4,76.0 660.5,88.0 663.5,82.0 666.5,70.0 669.5,70.0 672.5,70.0 675.5,76.0 678.6,76.0 681.6,76.0 684.6,82.0 687.6,70.0 690.6,76.0 693.6,64.0 696.7,70.0 699.7,58.0 702.7,58.0 705.7,58.0 708.7,58.0 711.7,58.0 714.8,64.0 717.8,58.0 720.8,64.0 723.8,58.0 726.8,58.0 729.8,58.0 732.9,58.0 735.9,64.0 738.9,64.0 741.9,64.0 744.9,76.0 747.9,70.0 751.0,82.0 754.0,70.0 757.0,76.0 760.0,58.0 763.0,64.0 766.0,58.0 769.1,64.0 772.1,58.0 775.1,58.0 778.1,58.0 781.1,64.0 784.1,70.0 787.2,64.0 790.2,64.0 793.2,64.0 796.2,70.0 799.2,70.0 802.2,64.0 805.3,70.0 808.3,70.0 811.3,70.0 814.3,58.0 817.3,58.0 820.3,58.0 823.4,58.0 826.4,58.0 829.4,64.0 832.4,58.0 835.4,58.0 838.4,58.0 841.5,58.0 844.5,58.0 847.5,58.0 850.5,58.0 853.5,58.0 856.5,64.0 859.6,58.0 862.6,58.0 865.6,58.0 868.6,58.0 871.6,58.0 874.6,58.0 877.7,58.0 880.7,64.0 883.7,58.0 886.7,58.0 889.7,58.0 892.7,58.0 895.8,58.0 898.8,58.0 901.8,58.0 904.8,58.0 907.8,58.0 910.8,58.0 913.9,58.0 916.9,58.0 919.9,58.0 922.9,58.0 925.9,58.0 928.9,58.0 932.0,58.0 935.0,58.0 938.0,58.0"/><polyline fill="none" stroke="#f59e0b" stroke-width="2.5" stroke-linejoin="round" stroke-linecap="round" points="42.0,274.0 45.0,274.0 48.0,274.0 51.1,280.0 54.1,268.0 57.1,268.0 60.1,268.0 63.1,274.0 66.1,274.0 69.2,274.0 72.2,280.0 75.2,286.0 78.2,286.0 81.2,286.0 84.2,286.0 87.3,286.0 90.3,286.0 93.3,286.0 96.3,286.0 99.3,286.0 102.3,286.0 105.4,286.0 108.4,286.0 111.4,286.0 114.4,286.0 117.4,286.0 120.4,286.0 123.5,286.0 126.5,286.0 129.5,286.0 132.5,286.0 135.5,274.0 138.5,280.0 141.6,280.0 144.6,280.0 147.6,280.0 150.6,286.0 153.6,286.0 156.6,286.0 159.7,274.0 162.7,268.0 165.7,268.0 168.7,262.0 171.7,262.0 174.7,262.0 177.8,262.0 180.8,268.0 183.8,280.0 186.8,280.0 189.8,274.0 192.8,262.0 195.9,268.0 198.9,268.0 201.9,262.0 204.9,268.0 207.9,268.0 210.9,268.0 214.0,280.0 217.0,280.0 220.0,268.0 223.0,268.0 226.0,268.0 229.0,262.0 232.1,274.0 235.1,280.0 238.1,286.0 241.1,286.0 244.1,274.0 247.1,274.0 250.2,274.0 253.2,274.0 256.2,274.0 259.2,274.0 262.2,274.0 265.2,274.0 268.3,280.0 271.3,274.0 274.3,280.0 277.3,286.0 280.3,286.0 283.3,286.0 286.4,286.0 289.4,280.0 292.4,286.0 295.4,286.0 298.4,286.0 301.4,286.0 304.5,286.0 307.5,286.0 310.5,286.0 313.5,286.0 316.5,286.0 319.5,286.0 322.6,286.0 325.6,286.0 328.6,286.0 331.6,286.0 334.6,286.0 337.6,286.0 340.7,286.0 343.7,286.0 346.7,286.0 349.7,286.0 352.7,286.0 355.8,286.0 358.8,286.0 361.8,286.0 364.8,286.0 367.8,286.0 370.8,286.0 373.9,286.0 376.9,286.0 379.9,286.0 382.9,286.0 385.9,286.0 388.9,286.0 392.0,286.0 395.0,286.0 398.0,286.0 401.0,286.0 404.0,286.0 407.0,286.0 410.1,286.0 413.1,286.0 416.1,286.0 419.1,286.0 422.1,286.0 425.1,286.0 428.2,286.0 431.2,286.0 434.2,286.0 437.2,286.0 440.2,286.0 443.2,286.0 446.3,286.0 449.3,286.0 452.3,286.0 455.3,286.0 458.3,286.0 461.3,286.0 464.4,286.0 467.4,286.0 470.4,286.0 473.4,286.0 476.4,286.0 479.4,286.0 482.5,286.0 485.5,286.0 488.5,286.0 491.5,286.0 494.5,286.0 497.5,286.0 500.6,286.0 503.6,286.0 506.6,286.0 509.6,286.0 512.6,286.0 515.6,286.0 518.7,280.0 521.7,268.0 524.7,268.0 527.7,268.0 530.7,268.0 533.7,262.0 536.8,262.0 539.8,262.0 542.8,268.0 545.8,268.0 548.8,274.0 551.8,274.0 554.9,274.0 557.9,268.0 560.9,268.0 563.9,268.0 566.9,274.0 569.9,274.0 573.0,274.0 576.0,274.0 579.0,268.0 582.0,268.0 585.0,262.0 588.0,262.0 591.1,268.0 594.1,268.0 597.1,268.0 600.1,262.0 603.1,262.0 606.1,274.0 609.2,262.0 612.2,262.0 615.2,262.0 618.2,262.0 621.2,268.0 624.2,268.0 627.3,274.0 630.3,280.0 633.3,280.0 636.3,280.0 639.3,280.0 642.4,280.0 645.4,280.0 648.4,286.0 651.4,286.0 654.4,286.0 657.4,280.0 660.5,274.0 663.5,274.0 666.5,280.0 669.5,274.0 672.5,274.0 675.5,268.0 678.6,268.0 681.6,268.0 684.6,268.0 687.6,280.0 690.6,274.0 693.6,280.0 696.7,280.0 699.7,286.0 702.7,286.0 705.7,286.0 708.7,286.0 711.7,286.0 714.8,286.0 717.8,286.0 720.8,286.0 723.8,286.0 726.8,286.0 729.8,286.0 732.9,286.0 735.9,280.0 738.9,280.0 741.9,280.0 744.9,268.0 747.9,280.0 751.0,268.0 754.0,274.0 757.0,274.0 760.0,286.0 763.0,280.0 766.0,286.0 769.1,280.0 772.1,286.0 775.1,286.0 778.1,286.0 781.1,280.0 784.1,274.0 787.2,280.0 790.2,280.0 793.2,280.0 796.2,274.0 799.2,274.0 802.2,280.0 805.3,280.0 808.3,280.0 811.3,280.0 814.3,286.0 817.3,286.0 820.3,286.0 823.4,286.0 826.4,286.0 829.4,286.0 832.4,286.0 835.4,286.0 838.4,286.0 841.5,286.0 844.5,286.0 847.5,286.0 850.5,286.0 853.5,286.0 856.5,286.0 859.6,286.0 862.6,286.0 865.6,286.0 868.6,286.0 871.6,286.0 874.6,286.0 877.7,286.0 880.7,286.0 883.7,286.0 886.7,286.0 889.7,286.0 892.7,286.0 895.8,286.0 898.8,286.0 901.8,286.0 904.8,286.0 907.8,286.0 910.8,286.0 913.9,286.0 916.9,286.0 919.9,286.0 922.9,286.0 925.9,286.0 928.9,286.0 932.0,286.0 935.0,286.0 938.0,286.0"/><polyline fill="none" stroke="#ef4444" stroke-width="2.5" stroke-linejoin="round" stroke-linecap="round" points="42.0,280.0 45.0,280.0 48.0,268.0 51.1,262.0 54.1,286.0 57.1,286.0 60.1,286.0 63.1,286.0 66.1,280.0 69.2,286.0 72.2,286.0 75.2,286.0 78.2,286.0 81.2,286.0 84.2,286.0 87.3,286.0 90.3,286.0 93.3,286.0 96.3,286.0 99.3,286.0 102.3,286.0 105.4,286.0 108.4,286.0 111.4,286.0 114.4,286.0 117.4,286.0 120.4,286.0 123.5,286.0 126.5,286.0 129.5,286.0 132.5,286.0 135.5,286.0 138.5,274.0 141.6,256.0 144.6,286.0 147.6,286.0 150.6,286.0 153.6,286.0 156.6,286.0 159.7,286.0 162.7,286.0 165.7,286.0 168.7,286.0 171.7,286.0 174.7,286.0 177.8,286.0 180.8,286.0 183.8,286.0 186.8,280.0 189.8,286.0 192.8,286.0 195.9,286.0 198.9,286.0 201.9,286.0 204.9,286.0 207.9,286.0 210.9,286.0 214.0,286.0 217.0,286.0 220.0,286.0 223.0,286.0 226.0,286.0 229.0,280.0 232.1,286.0 235.1,286.0 238.1,286.0 241.1,286.0 244.1,286.0 247.1,286.0 250.2,286.0 253.2,286.0 256.2,286.0 259.2,286.0 262.2,286.0 265.2,286.0 268.3,274.0 271.3,274.0 274.3,274.0 277.3,274.0 280.3,274.0 283.3,274.0 286.4,274.0 289.4,274.0 292.4,274.0 295.4,274.0 298.4,274.0 301.4,274.0 304.5,274.0 307.5,274.0 310.5,274.0 313.5,274.0 316.5,274.0 319.5,274.0 322.6,274.0 325.6,274.0 328.6,274.0 331.6,274.0 334.6,274.0 337.6,274.0 340.7,274.0 343.7,274.0 346.7,274.0 349.7,274.0 352.7,274.0 355.8,274.0 358.8,274.0 361.8,274.0 364.8,274.0 367.8,274.0 370.8,274.0 373.9,274.0 376.9,274.0 379.9,274.0 382.9,274.0 385.9,274.0 388.9,274.0 392.0,274.0 395.0,274.0 398.0,274.0 401.0,274.0 404.0,274.0 407.0,274.0 410.1,274.0 413.1,274.0 416.1,274.0 419.1,274.0 422.1,274.0 425.1,274.0 428.2,274.0 431.2,274.0 434.2,274.0 437.2,274.0 440.2,274.0 443.2,274.0 446.3,274.0 449.3,274.0 452.3,274.0 455.3,274.0 458.3,274.0 461.3,274.0 464.4,274.0 467.4,274.0 470.4,274.0 473.4,274.0 476.4,274.0 479.4,274.0 482.5,274.0 485.5,274.0 488.5,274.0 491.5,274.0 494.5,274.0 497.5,268.0 500.6,274.0 503.6,274.0 506.6,274.0 509.6,274.0 512.6,274.0 515.6,274.0 518.7,274.0 521.7,274.0 524.7,274.0 527.7,274.0 530.7,268.0 533.7,274.0 536.8,274.0 539.8,274.0 542.8,274.0 545.8,274.0 548.8,274.0 551.8,274.0 554.9,274.0 557.9,274.0 560.9,274.0 563.9,268.0 566.9,274.0 569.9,274.0 573.0,274.0 576.0,274.0 579.0,274.0 582.0,274.0 585.0,274.0 588.0,274.0 591.1,274.0 594.1,274.0 597.1,274.0 600.1,274.0 603.1,274.0 606.1,250.0 609.2,274.0 612.2,274.0 615.2,274.0 618.2,274.0 621.2,274.0 624.2,274.0 627.3,274.0 630.3,274.0 633.3,274.0 636.3,274.0 639.3,274.0 642.4,274.0 645.4,274.0 648.4,274.0 651.4,274.0 654.4,274.0 657.4,274.0 660.5,268.0 663.5,274.0 666.5,280.0 669.5,286.0 672.5,286.0 675.5,286.0 678.6,286.0 681.6,286.0 684.6,280.0 687.6,280.0 690.6,286.0 693.6,286.0 696.7,280.0 699.7,286.0 702.7,286.0 705.7,286.0 708.7,286.0 711.7,286.0 714.8,280.0 717.8,286.0 720.8,286.0 723.8,286.0 726.8,286.0 729.8,286.0 732.9,286.0 735.9,286.0 738.9,286.0 741.9,286.0 744.9,286.0 747.9,280.0 751.0,280.0 754.0,286.0 757.0,280.0 760.0,286.0 763.0,286.0 766.0,286.0 769.1,286.0 772.1,286.0 775.1,286.0 778.1,286.0 781.1,286.0 784.1,286.0 787.2,286.0 790.2,286.0 793.2,286.0 796.2,286.0 799.2,286.0 802.2,286.0 805.3,280.0 808.3,286.0 811.3,280.0 814.3,286.0 817.3,286.0 820.3,286.0 823.4,286.0 826.4,286.0 829.4,286.0 832.4,286.0 835.4,286.0 838.4,286.0 841.5,286.0 844.5,286.0 847.5,286.0 850.5,286.0 853.5,286.0 856.5,280.0 859.6,286.0 862.6,286.0 865.6,286.0 868.6,286.0 871.6,286.0 874.6,286.0 877.7,286.0 880.7,286.0 883.7,286.0 886.7,286.0 889.7,286.0 892.7,286.0 895.8,286.0 898.8,286.0 901.8,286.0 904.8,286.0 907.8,286.0 910.8,286.0 913.9,286.0 916.9,286.0 919.9,286.0 922.9,286.0 925.9,286.0 928.9,286.0 932.0,286.0 935.0,286.0 938.0,286.0"/><polyline fill="none" stroke="#a855f7" stroke-width="2.5" stroke-linejoin="round" stroke-linecap="round" points="42.0,286.0 45.0,286.0 48.0,286.0 51.1,286.0 54.1,286.0 57.1,286.0 60.1,286.0 63.1,286.0 66.1,286.0 69.2,286.0 72.2,286.0 75.2,286.0 78.2,286.0 81.2,286.0 84.2,286.0 87.3,286.0 90.3,286.0 93.3,286.0 96.3,286.0 99.3,286.0 102.3,286.0 105.4,286.0 108.4,286.0 111.4,286.0 114.4,286.0 117.4,286.0 120.4,286.0 123.5,286.0 126.5,286.0 129.5,286.0 132.5,286.0 135.5,286.0 138.5,286.0 141.6,286.0 144.6,286.0 147.6,286.0 150.6,286.0 153.6,286.0 156.6,286.0 159.7,286.0 162.7,286.0 165.7,286.0 168.7,286.0 171.7,286.0 174.7,286.0 177.8,286.0 180.8,286.0 183.8,286.0 186.8,286.0 189.8,286.0 192.8,286.0 195.9,286.0 198.9,286.0 201.9,286.0 204.9,286.0 207.9,286.0 210.9,286.0 214.0,286.0 217.0,286.0 220.0,286.0 223.0,286.0 226.0,286.0 229.0,286.0 232.1,286.0 235.1,286.0 238.1,286.0 241.1,286.0 244.1,286.0 247.1,286.0 250.2,286.0 253.2,280.0 256.2,286.0 259.2,286.0 262.2,286.0 265.2,286.0 268.3,286.0 271.3,286.0 274.3,286.0 277.3,286.0 280.3,286.0 283.3,286.0 286.4,286.0 289.4,286.0 292.4,286.0 295.4,286.0 298.4,286.0 301.4,286.0 304.5,286.0 307.5,286.0 310.5,286.0 313.5,286.0 316.5,286.0 319.5,286.0 322.6,286.0 325.6,286.0 328.6,286.0 331.6,286.0 334.6,286.0 337.6,286.0 340.7,286.0 343.7,286.0 346.7,286.0 349.7,286.0 352.7,286.0 355.8,286.0 358.8,286.0 361.8,286.0 364.8,286.0 367.8,286.0 370.8,286.0 373.9,286.0 376.9,286.0 379.9,286.0 382.9,286.0 385.9,286.0 388.9,286.0 392.0,286.0 395.0,286.0 398.0,286.0 401.0,286.0 404.0,286.0 407.0,286.0 410.1,286.0 413.1,286.0 416.1,286.0 419.1,286.0 422.1,286.0 425.1,286.0 428.2,286.0 431.2,286.0 434.2,286.0 437.2,286.0 440.2,286.0 443.2,286.0 446.3,286.0 449.3,286.0 452.3,286.0 455.3,286.0 458.3,286.0 461.3,286.0 464.4,286.0 467.4,286.0 470.4,286.0 473.4,286.0 476.4,286.0 479.4,286.0 482.5,286.0 485.5,286.0 488.5,286.0 491.5,286.0 494.5,286.0 497.5,286.0 500.6,286.0 503.6,286.0 506.6,286.0 509.6,286.0 512.6,286.0 515.6,280.0 518.7,286.0 521.7,286.0 524.7,286.0 527.7,286.0 530.7,286.0 533.7,286.0 536.8,286.0 539.8,286.0 542.8,286.0 545.8,286.0 548.8,286.0 551.8,286.0 554.9,286.0 557.9,286.0 560.9,286.0 563.9,286.0 566.9,286.0 569.9,286.0 573.0,286.0 576.0,286.0 579.0,286.0 582.0,286.0 585.0,286.0 588.0,286.0 591.1,286.0 594.1,286.0 597.1,286.0 600.1,286.0 603.1,286.0 606.1,286.0 609.2,286.0 612.2,286.0 615.2,286.0 618.2,286.0 621.2,286.0 624.2,286.0 627.3,286.0 630.3,286.0 633.3,286.0 636.3,286.0 639.3,286.0 642.4,286.0 645.4,286.0 648.4,286.0 651.4,286.0 654.4,286.0 657.4,286.0 660.5,286.0 663.5,286.0 666.5,286.0 669.5,286.0 672.5,286.0 675.5,286.0 678.6,286.0 681.6,286.0 684.6,286.0 687.6,286.0 690.6,280.0 693.6,286.0 696.7,286.0 699.7,286.0 702.7,286.0 705.7,286.0 708.7,286.0 711.7,286.0 714.8,286.0 717.8,286.0 720.8,280.0 723.8,286.0 726.8,286.0 729.8,286.0 732.9,286.0 735.9,286.0 738.9,286.0 741.9,286.0 744.9,286.0 747.9,286.0 751.0,286.0 754.0,286.0 757.0,286.0 760.0,286.0 763.0,286.0 766.0,286.0 769.1,286.0 772.1,286.0 775.1,286.0 778.1,286.0 781.1,286.0 784.1,286.0 787.2,286.0 790.2,286.0 793.2,286.0 796.2,286.0 799.2,286.0 802.2,286.0 805.3,286.0 808.3,280.0 811.3,286.0 814.3,286.0 817.3,286.0 820.3,286.0 823.4,286.0 826.4,286.0 829.4,280.0 832.4,286.0 835.4,286.0 838.4,286.0 841.5,286.0 844.5,286.0 847.5,286.0 850.5,286.0 853.5,286.0 856.5,286.0 859.6,286.0 862.6,286.0 865.6,286.0 868.6,286.0 871.6,286.0 874.6,286.0 877.7,286.0 880.7,280.0 883.7,286.0 886.7,286.0 889.7,286.0 892.7,286.0 895.8,286.0 898.8,286.0 901.8,286.0 904.8,286.0 907.8,286.0 910.8,286.0 913.9,286.0 916.9,286.0 919.9,286.0 922.9,286.0 925.9,286.0 928.9,286.0 932.0,286.0 935.0,286.0 938.0,286.0"/><text x="42" y="308" font-size="11" fill="#5a688a">19/06 12:43</text><text x="938" y="308" text-anchor="end" font-size="11" fill="#5a688a">06/07 02:30</text></svg>