<svg xmlns="http://www.w3.org/2000/svg" viewBox="0 0 960 320" width="960" height="320" font-family="Segoe UI, system-ui, -apple-system, Roboto, Helvetica, Arial, sans-serif" role="img" aria-label="Availability history per region"><rect x="0.5" y="0.5" width="959" height="319" rx="14" fill="#0d1117" stroke="#2c3a5e"/><text x="42" y="26" font-size="14" font-weight="600" fill="#e6ecff">History · 90 points</text><circle cx="47" cy="40" r="5" fill="#22c55e"/><text x="57" y="44" font-size="12" fill="#9fb0d4">Available</text><circle cx="139.8" cy="40" r="5" fill="#f59e0b"/><text x="149.8" y="44" font-size="12" fill="#9fb0d4">Saturated</text><circle cx="232.60000000000002" cy="40" r="5" fill="#ef4444"/><text x="242.60000000000002" y="44" font-size="12" fill="#9fb0d4">Error</text><circle cx="296.6" cy="40" r="5" fill="#a855f7"/><text x="306.6" y="44" font-size="12" fill="#9fb0d4">Timeout</text><line x1="42" y1="286.0" x2="938" y2="286.0" stroke="#21304f" stroke-width="1"/><text x="35" y="289.0" text-anchor="end" font-size="11" fill="#9fb0d4">0</text><line x1="42" y1="227.5" x2="938" y2="227.5" stroke="#21304f" stroke-width="1"/><text x="35" y="230.5" text-anchor="end" font-size="11" fill="#9fb0d4">10</text><line x1="42" y1="169.0" x2="938" y2="169.0" stroke="#21304f" stroke-width="1"/><text x="35" y="172.0" text-anchor="end" font-size="11" fill="#9fb0d4">19</text><line x1="42" y1="110.5" x2="938" y2="110.5" stroke="#21304f" stroke-width="1"/><text x="35" y="113.5" text-anchor="end" font-size="11" fill="#9fb0d4">28</text><line x1="42" y1="52.0" x2="938" y2="52.0" stroke="#21304f" stroke-width="1"/><text x="35" y="55.0" text-anchor="end" font-size="11" fill="#9fb0d4">38</text><polyline fill="none" stroke="#22c55e" stroke-width="2.5" stroke-linejoin="round" stroke-linecap="round" points="42.0,64.3 52.1,224.4 62.1,82.8 72.2,88.9 82.3,82.8 92.3,76.6 102.4,76.6 112.5,76.6 122.5,76.6 132.6,76.6 142.7,76.6 152.7,76.6 162.8,76.6 172.9,76.6 182.9,76.6 193.0,70.5 203.1,70.5 213.1,82.8 223.2,82.8 233.3,82.8 243.3,88.9 253.4,88.9 263.5,88.9 273.6,88.9 283.6,88.9 293.7,88.9 303.8,88.9 313.8,88.9 323.9,88.9 334.0,82.8 344.0,82.8 354.1,82.8 364.2,82.8 374.2,76.6 384.3,76.6 394.4,76.6 404.4,76.6 414.5,76.6 424.6,82.8 434.6,82.8 444.7,82.8 454.8,82.8 464.8,76.6 474.9,76.6 485.0,76.6 495.0,76.6 505.1,76.6 515.2,76.6 525.2,76.6 535.3,82.8 545.4,82.8 555.4,82.8 565.5,82.8 575.6,76.6 585.6,76.6 595.7,76.6 605.8,76.6 615.8,76.6 625.9,76.6 636.0,76.6 646.0,76.6 656.1,82.8 666.2,76.6 676.2,76.6 686.3,76.6 696.4,76.6 706.4,76.6 716.5,82.8 726.6,76.6 736.7,76.6 746.7,76.6 756.8,76.6 766.9,76.6 776.9,76.6 787.0,76.6 797.1,76.6 807.1,76.6 817.2,70.5 827.3,70.5 837.3,70.5 847.4,70.5 857.5,76.6 867.5,70.5 877.6,76.6 887.7,76.6 897.7,76.6 907.8,76.6 917.9,76.6 927.9,76.6 938.0,82.8"/><polyline fill="none" stroke="#f59e0b" stroke-width="2.5" stroke-linejoin="round" stroke-linecap="round" points="42.0,273.7 52.1,267.5 62.1,255.2 72.2,249.1 82.3,255.2 92.3,261.4 102.4,261.4 112.5,261.4 122.5,261.4 132.6,261.4 142.7,261.4 152.7,261.4 162.8,261.4 172.9,261.4 182.9,261.4 193.0,267.5 203.1,267.5 213.1,261.4 223.2,255.2 233.3,255.2 243.3,249.1 253.4,249.1 263.5,249.1 273.6,249.1 283.6,249.1 293.7,249.1 303.8,249.1 313.8,249.1 323.9,249.1 334.0,255.2 344.0,255.2 354.1,255.2 364.2,255.2 374.2,261.4 384.3,261.4 394.4,261.4 404.4,261.4 414.5,261.4 424.6,255.2 434.6,255.2 444.7,255.2 454.8,255.2 464.8,261.4 474.9,261.4 485.0,261.4 495.0,261.4 505.1,261.4 515.2,261.4 525.2,261.4 535.3,255.2 545.4,255.2 555.4,255.2 565.5,261.4 575.6,261.4 585.6,261.4 595.7,261.4 605.8,261.4 615.8,261.4 625.9,261.4 636.0,261.4 646.0,261.4 656.1,255.2 666.2,261.4 676.2,261.4 686.3,261.4 696.4,261.4 706.4,261.4 716.5,261.4 726.6,261.4 736.7,261.4 746.7,261.4 756.8,261.4 766.9,261.4 776.9,261.4 787.0,261.4 797.1,261.4 807.1,261.4 817.2,267.5 827.3,267.5 837.3,267.5 847.4,267.5 857.5,267.5 867.5,267.5 877.6,261.4 887.7,261.4 897.7,261.4 907.8,261.4 917.9,261.4 927.9,261.4 938.0,255.2"/><polyline fill="none" stroke="#ef4444" stroke-width="2.5" stroke-linejoin="round" stroke-linecap="round" points="42.0,286.0 52.1,132.1 62.1,286.0 72.2,286.0 82.3,286.0 92.3,286.0 102.4,286.0 112.5,286.0 122.5,286.0 132.6,286.0 142.7,286.0 152.7,286.0 162.8,286.0 172.9,286.0 182.9,286.0 193.0,286.0 203.1,286.0 213.1,279.8 223.2,286.0 233.3,286.0 243.3,286.0 253.4,286.0 263.5,286.0 273.6,286.0 283.6,286.0 293.7,286.0 303.8,286.0 313.8,286.0 323.9,286.0 334.0,286.0 344.0,286.0 354.1,286.0 364.2,286.0 374.2,286.0 384.3,286.0 394.4,286.0 404.4,286.0 414.5,286.0 424.6,286.0 434.6,286.0 444.7,286.0 454.8,286.0 464.8,286.0 474.9,286.0 485.0,286.0 495.0,286.0 505.1,286.0 515.2,286.0 525.2,286.0 535.3,286.0 545.4,286.0 555.4,286.0 565.5,286.0 575.6,286.0 585.6,286.0 595.7,286.0 605.8,286.0 615.8,286.0 625.9,286.0 636.0,286.0 646.0,286.0 656.1,286.0 666.2,286.0 676.2,286.0 686.3,286.0 696.4,286.0 706.4,286.0 716.5,279.8 726.6,286.0 736.7,286.0 746.7,286.0 756.8,286.0 766.9,286.0 776.9,286.0 787.0,286.0 797.1,286.0 807.1,286.0 817.2,286.0 827.3,286.0 837.3,286.0 847.4,286.0 857.5,279.8 867.5,286.0 877.6,286.0 887.7,286.0 897.7,286.0 907.8,286.0 917.9,286.0 927.9,286.0 938.0,286.0"/><polyline fill="none" stroke="#a855f7" stroke-width="2.5" stroke-linejoin="round" stroke-linecap="round" points="42.0,286.0 52.1,286.0 62.1,286.0 72.2,286.0 82.3,286.0 92.3,286.0 102.4,286.0 112.5,286.0 122.5,286.0 132.6,286.0 142.7,286.0 152.7,286.0 162.8,286.0 172.9,286.0 182.9,286.0 193.0,286.0 203.1,286.0 213.1,286.0 223.2,286.0 233.3,286.0 243.3,286.0 253.4,286.0 263.5,286.0 273.6,286.0 283.6,286.0 293.7,286.0 303.8,286.0 313.8,286.0 323.9,286.0 334.0,286.0 344.0,286.0 354.1,286.0 364.2,286.0 374.2,286.0 384.3,286.0 394.4,286.0 404.4,286.0 414.5,286.0 424.6,286.0 434.6,286.0 444.7,286.0 454.8,286.0 464.8,286.0 474.9,286.0 485.0,286.0 495.0,286.0 505.1,286.0 515.2,286.0 525.2,286.0 535.3,286.0 545.4,286.0 555.4,286.0 565.5,279.8 575.6,286.0 585.6,286.0 595.7,286.0 605.8,286.0 615.8,286.0 625.9,286.0 636.0,286.0 646.0,286.0 656.1,286.0 666.2,286.0 676.2,286.0 686.3,286.0 696.4,286.0 706.4,286.0 716.5,286.0 726.6,286.0 736.7,286.0 746.7,286.0 756.8,286.0 766.9,286.0 776.9,286.0 787.0,286.0 797.1,286.0 807.1,286.0 817.2,286.0 827.3,286.0 837.3,286.0 847.4,286.0 857.5,286.0 867.5,286.0 877.6,286.0 887.7,286.0 897.7,286.0 907.8,286.0 917.9,286.0 927.9,286.0 938.0,286.0"/><text x="42" y="308" font-size="11" fill="#9fb0d4">19/06 15:39</text><text x="938" y="308" text-anchor="end" font-size="11" fill="#9fb0d4">20/07 08:29</text></svg>