<svg xmlns="http://www.w3.org/2000/svg" viewBox="0 0 960 320" width="960" height="320" font-family="Segoe UI, system-ui, -apple-system, Roboto, Helvetica, Arial, sans-serif" role="img" aria-label="Availability history per region"><rect x="0.5" y="0.5" width="959" height="319" rx="14" fill="#0d1117" stroke="#2c3a5e"/><text x="42" y="26" font-size="14" font-weight="600" fill="#e6ecff">History · 273 points</text><circle cx="47" cy="40" r="5" fill="#22c55e"/><text x="57" y="44" font-size="12" fill="#9fb0d4">Available</text><circle cx="139.8" cy="40" r="5" fill="#f59e0b"/><text x="149.8" y="44" font-size="12" fill="#9fb0d4">Saturated</text><circle cx="232.60000000000002" cy="40" r="5" fill="#ef4444"/><text x="242.60000000000002" y="44" font-size="12" fill="#9fb0d4">Error</text><circle cx="296.6" cy="40" r="5" fill="#a855f7"/><text x="306.6" y="44" font-size="12" fill="#9fb0d4">Timeout</text><line x1="42" y1="286.0" x2="938" y2="286.0" stroke="#21304f" stroke-width="1"/><text x="35" y="289.0" text-anchor="end" font-size="11" fill="#9fb0d4">0</text><line x1="42" y1="227.5" x2="938" y2="227.5" stroke="#21304f" stroke-width="1"/><text x="35" y="230.5" text-anchor="end" font-size="11" fill="#9fb0d4">10</text><line x1="42" y1="169.0" x2="938" y2="169.0" stroke="#21304f" stroke-width="1"/><text x="35" y="172.0" text-anchor="end" font-size="11" fill="#9fb0d4">20</text><line x1="42" y1="110.5" x2="938" y2="110.5" stroke="#21304f" stroke-width="1"/><text x="35" y="113.5" text-anchor="end" font-size="11" fill="#9fb0d4">29</text><line x1="42" y1="52.0" x2="938" y2="52.0" stroke="#21304f" stroke-width="1"/><text x="35" y="55.0" text-anchor="end" font-size="11" fill="#9fb0d4">39</text><polyline fill="none" stroke="#22c55e" stroke-width="2.5" stroke-linejoin="round" stroke-linecap="round" points="42.0,70.0 45.3,70.0 48.6,88.0 51.9,88.0 55.2,76.0 58.5,76.0 61.8,76.0 65.1,70.0 68.4,76.0 71.6,70.0 74.9,64.0 78.2,58.0 81.5,58.0 84.8,58.0 88.1,58.0 91.4,58.0 94.7,58.0 98.0,58.0 101.3,58.0 104.6,58.0 107.9,58.0 111.2,58.0 114.5,58.0 117.8,58.0 121.1,58.0 124.4,58.0 127.6,58.0 130.9,58.0 134.2,58.0 137.5,58.0 140.8,58.0 144.1,70.0 147.4,76.0 150.7,94.0 154.0,64.0 157.3,64.0 160.6,58.0 163.9,58.0 167.2,58.0 170.5,70.0 173.8,76.0 177.1,76.0 180.4,82.0 183.6,82.0 186.9,82.0 190.2,82.0 193.5,76.0 196.8,64.0 200.1,70.0 203.4,70.0 206.7,82.0 210.0,76.0 213.3,76.0 216.6,82.0 219.9,76.0 223.2,76.0 226.5,76.0 229.8,64.0 233.1,64.0 236.4,76.0 239.6,76.0 242.9,76.0 246.2,88.0 249.5,70.0 252.8,64.0 256.1,58.0 259.4,58.0 262.7,70.0 266.0,70.0 269.3,70.0 272.6,76.0 275.9,70.0 279.2,70.0 282.5,70.0 285.8,70.0 289.1,76.0 292.4,82.0 295.6,76.0 298.9,70.0 302.2,70.0 305.5,70.0 308.8,70.0 312.1,76.0 315.4,70.0 318.7,70.0 322.0,70.0 325.3,70.0 328.6,70.0 331.9,70.0 335.2,70.0 338.5,70.0 341.8,70.0 345.1,70.0 348.4,70.0 351.6,70.0 354.9,70.0 358.2,70.0 361.5,70.0 364.8,70.0 368.1,70.0 371.4,70.0 374.7,70.0 378.0,70.0 381.3,70.0 384.6,70.0 387.9,70.0 391.2,70.0 394.5,70.0 397.8,70.0 401.1,70.0 404.4,70.0 407.6,70.0 410.9,70.0 414.2,70.0 417.5,70.0 420.8,70.0 424.1,70.0 427.4,70.0 430.7,70.0 434.0,70.0 437.3,70.0 440.6,70.0 443.9,70.0 447.2,70.0 450.5,70.0 453.8,70.0 457.1,70.0 460.4,70.0 463.6,70.0 466.9,70.0 470.2,70.0 473.5,70.0 476.8,70.0 480.1,70.0 483.4,70.0 486.7,70.0 490.0,70.0 493.3,70.0 496.6,70.0 499.9,70.0 503.2,70.0 506.5,70.0 509.8,70.0 513.1,70.0 516.4,70.0 519.6,70.0 522.9,70.0 526.2,70.0 529.5,70.0 532.8,70.0 536.1,70.0 539.4,76.0 542.7,70.0 546.0,70.0 549.3,70.0 552.6,70.0 555.9,70.0 559.2,76.0 562.5,76.0 565.8,88.0 569.1,88.0 572.4,88.0 575.6,94.0 578.9,94.0 582.2,94.0 585.5,94.0 588.8,88.0 592.1,88.0 595.4,82.0 598.7,82.0 602.0,82.0 605.3,88.0 608.6,88.0 611.9,94.0 615.2,82.0 618.5,82.0 621.8,82.0 625.1,82.0 628.4,88.0 631.6,88.0 634.9,94.0 638.2,94.0 641.5,88.0 644.8,88.0 648.1,88.0 651.4,94.0 654.7,94.0 658.0,106.0 661.3,94.0 664.6,94.0 667.9,94.0 671.2,94.0 674.5,88.0 677.8,88.0 681.1,82.0 684.4,76.0 687.6,76.0 690.9,76.0 694.2,76.0 697.5,76.0 700.8,76.0 704.1,70.0 707.4,70.0 710.7,70.0 714.0,76.0 717.3,88.0 720.6,82.0 723.9,70.0 727.2,70.0 730.5,70.0 733.8,76.0 737.1,76.0 740.4,76.0 743.6,82.0 746.9,70.0 750.2,76.0 753.5,64.0 756.8,70.0 760.1,58.0 763.4,58.0 766.7,58.0 770.0,58.0 773.3,58.0 776.6,64.0 779.9,58.0 783.2,64.0 786.5,58.0 789.8,58.0 793.1,58.0 796.4,58.0 799.6,64.0 802.9,64.0 806.2,64.0 809.5,76.0 812.8,70.0 816.1,82.0 819.4,70.0 822.7,76.0 826.0,58.0 829.3,64.0 832.6,58.0 835.9,64.0 839.2,58.0 842.5,58.0 845.8,58.0 849.1,64.0 852.4,70.0 855.6,64.0 858.9,64.0 862.2,64.0 865.5,70.0 868.8,70.0 872.1,64.0 875.4,70.0 878.7,70.0 882.0,70.0 885.3,58.0 888.6,58.0 891.9,58.0 895.2,58.0 898.5,58.0 901.8,64.0 905.1,58.0 908.4,58.0 911.6,58.0 914.9,58.0 918.2,58.0 921.5,58.0 924.8,58.0 928.1,58.0 931.4,64.0 934.7,58.0 938.0,58.0"/><polyline fill="none" stroke="#f59e0b" stroke-width="2.5" stroke-linejoin="round" stroke-linecap="round" points="42.0,274.0 45.3,274.0 48.6,274.0 51.9,280.0 55.2,268.0 58.5,268.0 61.8,268.0 65.1,274.0 68.4,274.0 71.6,274.0 74.9,280.0 78.2,286.0 81.5,286.0 84.8,286.0 88.1,286.0 91.4,286.0 94.7,286.0 98.0,286.0 101.3,286.0 104.6,286.0 107.9,286.0 111.2,286.0 114.5,286.0 117.8,286.0 121.1,286.0 124.4,286.0 127.6,286.0 130.9,286.0 134.2,286.0 137.5,286.0 140.8,286.0 144.1,274.0 147.4,280.0 150.7,280.0 154.0,280.0 157.3,280.0 160.6,286.0 163.9,286.0 167.2,286.0 170.5,274.0 173.8,268.0 177.1,268.0 180.4,262.0 183.6,262.0 186.9,262.0 190.2,262.0 193.5,268.0 196.8,280.0 200.1,280.0 203.4,274.0 206.7,262.0 210.0,268.0 213.3,268.0 216.6,262.0 219.9,268.0 223.2,268.0 226.5,268.0 229.8,280.0 233.1,280.0 236.4,268.0 239.6,268.0 242.9,268.0 246.2,262.0 249.5,274.0 252.8,280.0 256.1,286.0 259.4,286.0 262.7,274.0 266.0,274.0 269.3,274.0 272.6,274.0 275.9,274.0 279.2,274.0 282.5,274.0 285.8,274.0 289.1,280.0 292.4,274.0 295.6,280.0 298.9,286.0 302.2,286.0 305.5,286.0 308.8,286.0 312.1,280.0 315.4,286.0 318.7,286.0 322.0,286.0 325.3,286.0 328.6,286.0 331.9,286.0 335.2,286.0 338.5,286.0 341.8,286.0 345.1,286.0 348.4,286.0 351.6,286.0 354.9,286.0 358.2,286.0 361.5,286.0 364.8,286.0 368.1,286.0 371.4,286.0 374.7,286.0 378.0,286.0 381.3,286.0 384.6,286.0 387.9,286.0 391.2,286.0 394.5,286.0 397.8,286.0 401.1,286.0 404.4,286.0 407.6,286.0 410.9,286.0 414.2,286.0 417.5,286.0 420.8,286.0 424.1,286.0 427.4,286.0 430.7,286.0 434.0,286.0 437.3,286.0 440.6,286.0 443.9,286.0 447.2,286.0 450.5,286.0 453.8,286.0 457.1,286.0 460.4,286.0 463.6,286.0 466.9,286.0 470.2,286.0 473.5,286.0 476.8,286.0 480.1,286.0 483.4,286.0 486.7,286.0 490.0,286.0 493.3,286.0 496.6,286.0 499.9,286.0 503.2,286.0 506.5,286.0 509.8,286.0 513.1,286.0 516.4,286.0 519.6,286.0 522.9,286.0 526.2,286.0 529.5,286.0 532.8,286.0 536.1,286.0 539.4,286.0 542.7,286.0 546.0,286.0 549.3,286.0 552.6,286.0 555.9,286.0 559.2,286.0 562.5,280.0 565.8,268.0 569.1,268.0 572.4,268.0 575.6,268.0 578.9,262.0 582.2,262.0 585.5,262.0 588.8,268.0 592.1,268.0 595.4,274.0 598.7,274.0 602.0,274.0 605.3,268.0 608.6,268.0 611.9,268.0 615.2,274.0 618.5,274.0 621.8,274.0 625.1,274.0 628.4,268.0 631.6,268.0 634.9,262.0 638.2,262.0 641.5,268.0 644.8,268.0 648.1,268.0 651.4,262.0 654.7,262.0 658.0,274.0 661.3,262.0 664.6,262.0 667.9,262.0 671.2,262.0 674.5,268.0 677.8,268.0 681.1,274.0 684.4,280.0 687.6,280.0 690.9,280.0 694.2,280.0 697.5,280.0 700.8,280.0 704.1,286.0 707.4,286.0 710.7,286.0 714.0,280.0 717.3,274.0 720.6,274.0 723.9,280.0 727.2,274.0 730.5,274.0 733.8,268.0 737.1,268.0 740.4,268.0 743.6,268.0 746.9,280.0 750.2,274.0 753.5,280.0 756.8,280.0 760.1,286.0 763.4,286.0 766.7,286.0 770.0,286.0 773.3,286.0 776.6,286.0 779.9,286.0 783.2,286.0 786.5,286.0 789.8,286.0 793.1,286.0 796.4,286.0 799.6,280.0 802.9,280.0 806.2,280.0 809.5,268.0 812.8,280.0 816.1,268.0 819.4,274.0 822.7,274.0 826.0,286.0 829.3,280.0 832.6,286.0 835.9,280.0 839.2,286.0 842.5,286.0 845.8,286.0 849.1,280.0 852.4,274.0 855.6,280.0 858.9,280.0 862.2,280.0 865.5,274.0 868.8,274.0 872.1,280.0 875.4,280.0 878.7,280.0 882.0,280.0 885.3,286.0 888.6,286.0 891.9,286.0 895.2,286.0 898.5,286.0 901.8,286.0 905.1,286.0 908.4,286.0 911.6,286.0 914.9,286.0 918.2,286.0 921.5,286.0 924.8,286.0 928.1,286.0 931.4,286.0 934.7,286.0 938.0,286.0"/><polyline fill="none" stroke="#ef4444" stroke-width="2.5" stroke-linejoin="round" stroke-linecap="round" points="42.0,280.0 45.3,280.0 48.6,268.0 51.9,262.0 55.2,286.0 58.5,286.0 61.8,286.0 65.1,286.0 68.4,280.0 71.6,286.0 74.9,286.0 78.2,286.0 81.5,286.0 84.8,286.0 88.1,286.0 91.4,286.0 94.7,286.0 98.0,286.0 101.3,286.0 104.6,286.0 107.9,286.0 111.2,286.0 114.5,286.0 117.8,286.0 121.1,286.0 124.4,286.0 127.6,286.0 130.9,286.0 134.2,286.0 137.5,286.0 140.8,286.0 144.1,286.0 147.4,274.0 150.7,256.0 154.0,286.0 157.3,286.0 160.6,286.0 163.9,286.0 167.2,286.0 170.5,286.0 173.8,286.0 177.1,286.0 180.4,286.0 183.6,286.0 186.9,286.0 190.2,286.0 193.5,286.0 196.8,286.0 200.1,280.0 203.4,286.0 206.7,286.0 210.0,286.0 213.3,286.0 216.6,286.0 219.9,286.0 223.2,286.0 226.5,286.0 229.8,286.0 233.1,286.0 236.4,286.0 239.6,286.0 242.9,286.0 246.2,280.0 249.5,286.0 252.8,286.0 256.1,286.0 259.4,286.0 262.7,286.0 266.0,286.0 269.3,286.0 272.6,286.0 275.9,286.0 279.2,286.0 282.5,286.0 285.8,286.0 289.1,274.0 292.4,274.0 295.6,274.0 298.9,274.0 302.2,274.0 305.5,274.0 308.8,274.0 312.1,274.0 315.4,274.0 318.7,274.0 322.0,274.0 325.3,274.0 328.6,274.0 331.9,274.0 335.2,274.0 338.5,274.0 341.8,274.0 345.1,274.0 348.4,274.0 351.6,274.0 354.9,274.0 358.2,274.0 361.5,274.0 364.8,274.0 368.1,274.0 371.4,274.0 374.7,274.0 378.0,274.0 381.3,274.0 384.6,274.0 387.9,274.0 391.2,274.0 394.5,274.0 397.8,274.0 401.1,274.0 404.4,274.0 407.6,274.0 410.9,274.0 414.2,274.0 417.5,274.0 420.8,274.0 424.1,274.0 427.4,274.0 430.7,274.0 434.0,274.0 437.3,274.0 440.6,274.0 443.9,274.0 447.2,274.0 450.5,274.0 453.8,274.0 457.1,274.0 460.4,274.0 463.6,274.0 466.9,274.0 470.2,274.0 473.5,274.0 476.8,274.0 480.1,274.0 483.4,274.0 486.7,274.0 490.0,274.0 493.3,274.0 496.6,274.0 499.9,274.0 503.2,274.0 506.5,274.0 509.8,274.0 513.1,274.0 516.4,274.0 519.6,274.0 522.9,274.0 526.2,274.0 529.5,274.0 532.8,274.0 536.1,274.0 539.4,268.0 542.7,274.0 546.0,274.0 549.3,274.0 552.6,274.0 555.9,274.0 559.2,274.0 562.5,274.0 565.8,274.0 569.1,274.0 572.4,274.0 575.6,268.0 578.9,274.0 582.2,274.0 585.5,274.0 588.8,274.0 592.1,274.0 595.4,274.0 598.7,274.0 602.0,274.0 605.3,274.0 608.6,274.0 611.9,268.0 615.2,274.0 618.5,274.0 621.8,274.0 625.1,274.0 628.4,274.0 631.6,274.0 634.9,274.0 638.2,274.0 641.5,274.0 644.8,274.0 648.1,274.0 651.4,274.0 654.7,274.0 658.0,250.0 661.3,274.0 664.6,274.0 667.9,274.0 671.2,274.0 674.5,274.0 677.8,274.0 681.1,274.0 684.4,274.0 687.6,274.0 690.9,274.0 694.2,274.0 697.5,274.0 700.8,274.0 704.1,274.0 707.4,274.0 710.7,274.0 714.0,274.0 717.3,268.0 720.6,274.0 723.9,280.0 727.2,286.0 730.5,286.0 733.8,286.0 737.1,286.0 740.4,286.0 743.6,280.0 746.9,280.0 750.2,286.0 753.5,286.0 756.8,280.0 760.1,286.0 763.4,286.0 766.7,286.0 770.0,286.0 773.3,286.0 776.6,280.0 779.9,286.0 783.2,286.0 786.5,286.0 789.8,286.0 793.1,286.0 796.4,286.0 799.6,286.0 802.9,286.0 806.2,286.0 809.5,286.0 812.8,280.0 816.1,280.0 819.4,286.0 822.7,280.0 826.0,286.0 829.3,286.0 832.6,286.0 835.9,286.0 839.2,286.0 842.5,286.0 845.8,286.0 849.1,286.0 852.4,286.0 855.6,286.0 858.9,286.0 862.2,286.0 865.5,286.0 868.8,286.0 872.1,286.0 875.4,280.0 878.7,286.0 882.0,280.0 885.3,286.0 888.6,286.0 891.9,286.0 895.2,286.0 898.5,286.0 901.8,286.0 905.1,286.0 908.4,286.0 911.6,286.0 914.9,286.0 918.2,286.0 921.5,286.0 924.8,286.0 928.1,286.0 931.4,280.0 934.7,286.0 938.0,286.0"/><polyline fill="none" stroke="#a855f7" stroke-width="2.5" stroke-linejoin="round" stroke-linecap="round" points="42.0,286.0 45.3,286.0 48.6,286.0 51.9,286.0 55.2,286.0 58.5,286.0 61.8,286.0 65.1,286.0 68.4,286.0 71.6,286.0 74.9,286.0 78.2,286.0 81.5,286.0 84.8,286.0 88.1,286.0 91.4,286.0 94.7,286.0 98.0,286.0 101.3,286.0 104.6,286.0 107.9,286.0 111.2,286.0 114.5,286.0 117.8,286.0 121.1,286.0 124.4,286.0 127.6,286.0 130.9,286.0 134.2,286.0 137.5,286.0 140.8,286.0 144.1,286.0 147.4,286.0 150.7,286.0 154.0,286.0 157.3,286.0 160.6,286.0 163.9,286.0 167.2,286.0 170.5,286.0 173.8,286.0 177.1,286.0 180.4,286.0 183.6,286.0 186.9,286.0 190.2,286.0 193.5,286.0 196.8,286.0 200.1,286.0 203.4,286.0 206.7,286.0 210.0,286.0 213.3,286.0 216.6,286.0 219.9,286.0 223.2,286.0 226.5,286.0 229.8,286.0 233.1,286.0 236.4,286.0 239.6,286.0 242.9,286.0 246.2,286.0 249.5,286.0 252.8,286.0 256.1,286.0 259.4,286.0 262.7,286.0 266.0,286.0 269.3,286.0 272.6,280.0 275.9,286.0 279.2,286.0 282.5,286.0 285.8,286.0 289.1,286.0 292.4,286.0 295.6,286.0 298.9,286.0 302.2,286.0 305.5,286.0 308.8,286.0 312.1,286.0 315.4,286.0 318.7,286.0 322.0,286.0 325.3,286.0 328.6,286.0 331.9,286.0 335.2,286.0 338.5,286.0 341.8,286.0 345.1,286.0 348.4,286.0 351.6,286.0 354.9,286.0 358.2,286.0 361.5,286.0 364.8,286.0 368.1,286.0 371.4,286.0 374.7,286.0 378.0,286.0 381.3,286.0 384.6,286.0 387.9,286.0 391.2,286.0 394.5,286.0 397.8,286.0 401.1,286.0 404.4,286.0 407.6,286.0 410.9,286.0 414.2,286.0 417.5,286.0 420.8,286.0 424.1,286.0 427.4,286.0 430.7,286.0 434.0,286.0 437.3,286.0 440.6,286.0 443.9,286.0 447.2,286.0 450.5,286.0 453.8,286.0 457.1,286.0 460.4,286.0 463.6,286.0 466.9,286.0 470.2,286.0 473.5,286.0 476.8,286.0 480.1,286.0 483.4,286.0 486.7,286.0 490.0,286.0 493.3,286.0 496.6,286.0 499.9,286.0 503.2,286.0 506.5,286.0 509.8,286.0 513.1,286.0 516.4,286.0 519.6,286.0 522.9,286.0 526.2,286.0 529.5,286.0 532.8,286.0 536.1,286.0 539.4,286.0 542.7,286.0 546.0,286.0 549.3,286.0 552.6,286.0 555.9,286.0 559.2,280.0 562.5,286.0 565.8,286.0 569.1,286.0 572.4,286.0 575.6,286.0 578.9,286.0 582.2,286.0 585.5,286.0 588.8,286.0 592.1,286.0 595.4,286.0 598.7,286.0 602.0,286.0 605.3,286.0 608.6,286.0 611.9,286.0 615.2,286.0 618.5,286.0 621.8,286.0 625.1,286.0 628.4,286.0 631.6,286.0 634.9,286.0 638.2,286.0 641.5,286.0 644.8,286.0 648.1,286.0 651.4,286.0 654.7,286.0 658.0,286.0 661.3,286.0 664.6,286.0 667.9,286.0 671.2,286.0 674.5,286.0 677.8,286.0 681.1,286.0 684.4,286.0 687.6,286.0 690.9,286.0 694.2,286.0 697.5,286.0 700.8,286.0 704.1,286.0 707.4,286.0 710.7,286.0 714.0,286.0 717.3,286.0 720.6,286.0 723.9,286.0 727.2,286.0 730.5,286.0 733.8,286.0 737.1,286.0 740.4,286.0 743.6,286.0 746.9,286.0 750.2,280.0 753.5,286.0 756.8,286.0 760.1,286.0 763.4,286.0 766.7,286.0 770.0,286.0 773.3,286.0 776.6,286.0 779.9,286.0 783.2,280.0 786.5,286.0 789.8,286.0 793.1,286.0 796.4,286.0 799.6,286.0 802.9,286.0 806.2,286.0 809.5,286.0 812.8,286.0 816.1,286.0 819.4,286.0 822.7,286.0 826.0,286.0 829.3,286.0 832.6,286.0 835.9,286.0 839.2,286.0 842.5,286.0 845.8,286.0 849.1,286.0 852.4,286.0 855.6,286.0 858.9,286.0 862.2,286.0 865.5,286.0 868.8,286.0 872.1,286.0 875.4,286.0 878.7,280.0 882.0,286.0 885.3,286.0 888.6,286.0 891.9,286.0 895.2,286.0 898.5,286.0 901.8,280.0 905.1,286.0 908.4,286.0 911.6,286.0 914.9,286.0 918.2,286.0 921.5,286.0 924.8,286.0 928.1,286.0 931.4,286.0 934.7,286.0 938.0,286.0"/><text x="42" y="308" font-size="11" fill="#9fb0d4">19/06 12:43</text><text x="938" y="308" text-anchor="end" font-size="11" fill="#9fb0d4">04/07 18:30</text></svg>