<svg xmlns="http://www.w3.org/2000/svg" viewBox="0 0 960 320" width="960" height="320" font-family="Segoe UI, system-ui, -apple-system, Roboto, Helvetica, Arial, sans-serif" role="img" aria-label="Availability history per region"><rect x="0.5" y="0.5" width="959" height="319" rx="14" fill="#ffffff" stroke="#dce3f1"/><text x="42" y="26" font-size="14" font-weight="600" fill="#14203a">History · 68 points</text><circle cx="47" cy="40" r="5" fill="#22c55e"/><text x="57" y="44" font-size="12" fill="#5a688a">Available</text><circle cx="139.8" cy="40" r="5" fill="#f59e0b"/><text x="149.8" y="44" font-size="12" fill="#5a688a">Saturated</text><circle cx="232.60000000000002" cy="40" r="5" fill="#ef4444"/><text x="242.60000000000002" y="44" font-size="12" fill="#5a688a">Error</text><circle cx="296.6" cy="40" r="5" fill="#a855f7"/><text x="306.6" y="44" font-size="12" fill="#5a688a">Timeout</text><line x1="42" y1="286.0" x2="938" y2="286.0" stroke="#eef2f7" stroke-width="1"/><text x="35" y="289.0" text-anchor="end" font-size="11" fill="#5a688a">0</text><line x1="42" y1="227.5" x2="938" y2="227.5" stroke="#eef2f7" stroke-width="1"/><text x="35" y="230.5" text-anchor="end" font-size="11" fill="#5a688a">10</text><line x1="42" y1="169.0" x2="938" y2="169.0" stroke="#eef2f7" stroke-width="1"/><text x="35" y="172.0" text-anchor="end" font-size="11" fill="#5a688a">19</text><line x1="42" y1="110.5" x2="938" y2="110.5" stroke="#eef2f7" stroke-width="1"/><text x="35" y="113.5" text-anchor="end" font-size="11" fill="#5a688a">28</text><line x1="42" y1="52.0" x2="938" y2="52.0" stroke="#eef2f7" stroke-width="1"/><text x="35" y="55.0" text-anchor="end" font-size="11" fill="#5a688a">38</text><polyline fill="none" stroke="#22c55e" stroke-width="2.5" stroke-linejoin="round" stroke-linecap="round" points="42.0,64.3 55.4,224.4 68.7,82.8 82.1,88.9 95.5,82.8 108.9,76.6 122.2,76.6 135.6,76.6 149.0,76.6 162.4,76.6 175.7,76.6 189.1,76.6 202.5,76.6 215.9,76.6 229.2,76.6 242.6,70.5 256.0,70.5 269.3,82.8 282.7,82.8 296.1,82.8 309.5,88.9 322.8,88.9 336.2,88.9 349.6,88.9 363.0,88.9 376.3,88.9 389.7,88.9 403.1,88.9 416.4,88.9 429.8,82.8 443.2,82.8 456.6,82.8 469.9,82.8 483.3,76.6 496.7,76.6 510.1,76.6 523.4,76.6 536.8,76.6 550.2,82.8 563.6,82.8 576.9,82.8 590.3,82.8 603.7,76.6 617.0,76.6 630.4,76.6 643.8,76.6 657.2,76.6 670.5,76.6 683.9,76.6 697.3,82.8 710.7,82.8 724.0,82.8 737.4,82.8 750.8,76.6 764.1,76.6 777.5,76.6 790.9,76.6 804.3,76.6 817.6,76.6 831.0,76.6 844.4,76.6 857.8,82.8 871.1,76.6 884.5,76.6 897.9,76.6 911.3,76.6 924.6,76.6 938.0,82.8"/><polyline fill="none" stroke="#f59e0b" stroke-width="2.5" stroke-linejoin="round" stroke-linecap="round" points="42.0,273.7 55.4,267.5 68.7,255.2 82.1,249.1 95.5,255.2 108.9,261.4 122.2,261.4 135.6,261.4 149.0,261.4 162.4,261.4 175.7,261.4 189.1,261.4 202.5,261.4 215.9,261.4 229.2,261.4 242.6,267.5 256.0,267.5 269.3,261.4 282.7,255.2 296.1,255.2 309.5,249.1 322.8,249.1 336.2,249.1 349.6,249.1 363.0,249.1 376.3,249.1 389.7,249.1 403.1,249.1 416.4,249.1 429.8,255.2 443.2,255.2 456.6,255.2 469.9,255.2 483.3,261.4 496.7,261.4 510.1,261.4 523.4,261.4 536.8,261.4 550.2,255.2 563.6,255.2 576.9,255.2 590.3,255.2 603.7,261.4 617.0,261.4 630.4,261.4 643.8,261.4 657.2,261.4 670.5,261.4 683.9,261.4 697.3,255.2 710.7,255.2 724.0,255.2 737.4,261.4 750.8,261.4 764.1,261.4 777.5,261.4 790.9,261.4 804.3,261.4 817.6,261.4 831.0,261.4 844.4,261.4 857.8,255.2 871.1,261.4 884.5,261.4 897.9,261.4 911.3,261.4 924.6,261.4 938.0,261.4"/><polyline fill="none" stroke="#ef4444" stroke-width="2.5" stroke-linejoin="round" stroke-linecap="round" points="42.0,286.0 55.4,132.1 68.7,286.0 82.1,286.0 95.5,286.0 108.9,286.0 122.2,286.0 135.6,286.0 149.0,286.0 162.4,286.0 175.7,286.0 189.1,286.0 202.5,286.0 215.9,286.0 229.2,286.0 242.6,286.0 256.0,286.0 269.3,279.8 282.7,286.0 296.1,286.0 309.5,286.0 322.8,286.0 336.2,286.0 349.6,286.0 363.0,286.0 376.3,286.0 389.7,286.0 403.1,286.0 416.4,286.0 429.8,286.0 443.2,286.0 456.6,286.0 469.9,286.0 483.3,286.0 496.7,286.0 510.1,286.0 523.4,286.0 536.8,286.0 550.2,286.0 563.6,286.0 576.9,286.0 590.3,286.0 603.7,286.0 617.0,286.0 630.4,286.0 643.8,286.0 657.2,286.0 670.5,286.0 683.9,286.0 697.3,286.0 710.7,286.0 724.0,286.0 737.4,286.0 750.8,286.0 764.1,286.0 777.5,286.0 790.9,286.0 804.3,286.0 817.6,286.0 831.0,286.0 844.4,286.0 857.8,286.0 871.1,286.0 884.5,286.0 897.9,286.0 911.3,286.0 924.6,286.0 938.0,279.8"/><polyline fill="none" stroke="#a855f7" stroke-width="2.5" stroke-linejoin="round" stroke-linecap="round" points="42.0,286.0 55.4,286.0 68.7,286.0 82.1,286.0 95.5,286.0 108.9,286.0 122.2,286.0 135.6,286.0 149.0,286.0 162.4,286.0 175.7,286.0 189.1,286.0 202.5,286.0 215.9,286.0 229.2,286.0 242.6,286.0 256.0,286.0 269.3,286.0 282.7,286.0 296.1,286.0 309.5,286.0 322.8,286.0 336.2,286.0 349.6,286.0 363.0,286.0 376.3,286.0 389.7,286.0 403.1,286.0 416.4,286.0 429.8,286.0 443.2,286.0 456.6,286.0 469.9,286.0 483.3,286.0 496.7,286.0 510.1,286.0 523.4,286.0 536.8,286.0 550.2,286.0 563.6,286.0 576.9,286.0 590.3,286.0 603.7,286.0 617.0,286.0 630.4,286.0 643.8,286.0 657.2,286.0 670.5,286.0 683.9,286.0 697.3,286.0 710.7,286.0 724.0,286.0 737.4,279.8 750.8,286.0 764.1,286.0 777.5,286.0 790.9,286.0 804.3,286.0 817.6,286.0 831.0,286.0 844.4,286.0 857.8,286.0 871.1,286.0 884.5,286.0 897.9,286.0 911.3,286.0 924.6,286.0 938.0,286.0"/><text x="42" y="308" font-size="11" fill="#5a688a">19/06 15:39</text><text x="938" y="308" text-anchor="end" font-size="11" fill="#5a688a">19/07 09:32</text></svg>