<svg xmlns="http://www.w3.org/2000/svg" viewBox="0 0 960 320" width="960" height="320" font-family="Segoe UI, system-ui, -apple-system, Roboto, Helvetica, Arial, sans-serif" role="img" aria-label="Availability history per region"><rect x="0.5" y="0.5" width="959" height="319" rx="14" fill="#ffffff" stroke="#dce3f1"/><text x="42" y="26" font-size="14" font-weight="600" fill="#14203a">History · 69 points</text><circle cx="47" cy="40" r="5" fill="#22c55e"/><text x="57" y="44" font-size="12" fill="#5a688a">Available</text><circle cx="139.8" cy="40" r="5" fill="#f59e0b"/><text x="149.8" y="44" font-size="12" fill="#5a688a">Saturated</text><circle cx="232.60000000000002" cy="40" r="5" fill="#ef4444"/><text x="242.60000000000002" y="44" font-size="12" fill="#5a688a">Error</text><line x1="42" y1="286.0" x2="938" y2="286.0" stroke="#eef2f7" stroke-width="1"/><text x="35" y="289.0" text-anchor="end" font-size="11" fill="#5a688a">0</text><line x1="42" y1="227.5" x2="938" y2="227.5" stroke="#eef2f7" stroke-width="1"/><text x="35" y="230.5" text-anchor="end" font-size="11" fill="#5a688a">10</text><line x1="42" y1="169.0" x2="938" y2="169.0" stroke="#eef2f7" stroke-width="1"/><text x="35" y="172.0" text-anchor="end" font-size="11" fill="#5a688a">20</text><line x1="42" y1="110.5" x2="938" y2="110.5" stroke="#eef2f7" stroke-width="1"/><text x="35" y="113.5" text-anchor="end" font-size="11" fill="#5a688a">29</text><line x1="42" y1="52.0" x2="938" y2="52.0" stroke="#eef2f7" stroke-width="1"/><text x="35" y="55.0" text-anchor="end" font-size="11" fill="#5a688a">39</text><polyline fill="none" stroke="#22c55e" stroke-width="2.5" stroke-linejoin="round" stroke-linecap="round" points="42.0,70.0 55.2,70.0 68.4,88.0 81.5,88.0 94.7,76.0 107.9,76.0 121.1,76.0 134.2,70.0 147.4,76.0 160.6,70.0 173.8,64.0 186.9,58.0 200.1,58.0 213.3,58.0 226.5,58.0 239.6,58.0 252.8,58.0 266.0,58.0 279.2,58.0 292.4,58.0 305.5,58.0 318.7,58.0 331.9,58.0 345.1,58.0 358.2,58.0 371.4,58.0 384.6,58.0 397.8,58.0 410.9,58.0 424.1,58.0 437.3,58.0 450.5,70.0 463.6,76.0 476.8,94.0 490.0,64.0 503.2,64.0 516.4,58.0 529.5,58.0 542.7,58.0 555.9,70.0 569.1,76.0 582.2,76.0 595.4,82.0 608.6,82.0 621.8,82.0 634.9,82.0 648.1,76.0 661.3,64.0 674.5,70.0 687.6,70.0 700.8,82.0 714.0,76.0 727.2,76.0 740.4,82.0 753.5,76.0 766.7,76.0 779.9,76.0 793.1,64.0 806.2,64.0 819.4,76.0 832.6,76.0 845.8,76.0 858.9,88.0 872.1,70.0 885.3,64.0 898.5,58.0 911.6,58.0 924.8,70.0 938.0,70.0"/><polyline fill="none" stroke="#f59e0b" stroke-width="2.5" stroke-linejoin="round" stroke-linecap="round" points="42.0,274.0 55.2,274.0 68.4,274.0 81.5,280.0 94.7,268.0 107.9,268.0 121.1,268.0 134.2,274.0 147.4,274.0 160.6,274.0 173.8,280.0 186.9,286.0 200.1,286.0 213.3,286.0 226.5,286.0 239.6,286.0 252.8,286.0 266.0,286.0 279.2,286.0 292.4,286.0 305.5,286.0 318.7,286.0 331.9,286.0 345.1,286.0 358.2,286.0 371.4,286.0 384.6,286.0 397.8,286.0 410.9,286.0 424.1,286.0 437.3,286.0 450.5,274.0 463.6,280.0 476.8,280.0 490.0,280.0 503.2,280.0 516.4,286.0 529.5,286.0 542.7,286.0 555.9,274.0 569.1,268.0 582.2,268.0 595.4,262.0 608.6,262.0 621.8,262.0 634.9,262.0 648.1,268.0 661.3,280.0 674.5,280.0 687.6,274.0 700.8,262.0 714.0,268.0 727.2,268.0 740.4,262.0 753.5,268.0 766.7,268.0 779.9,268.0 793.1,280.0 806.2,280.0 819.4,268.0 832.6,268.0 845.8,268.0 858.9,262.0 872.1,274.0 885.3,280.0 898.5,286.0 911.6,286.0 924.8,274.0 938.0,274.0"/><polyline fill="none" stroke="#ef4444" stroke-width="2.5" stroke-linejoin="round" stroke-linecap="round" points="42.0,280.0 55.2,280.0 68.4,268.0 81.5,262.0 94.7,286.0 107.9,286.0 121.1,286.0 134.2,286.0 147.4,280.0 160.6,286.0 173.8,286.0 186.9,286.0 200.1,286.0 213.3,286.0 226.5,286.0 239.6,286.0 252.8,286.0 266.0,286.0 279.2,286.0 292.4,286.0 305.5,286.0 318.7,286.0 331.9,286.0 345.1,286.0 358.2,286.0 371.4,286.0 384.6,286.0 397.8,286.0 410.9,286.0 424.1,286.0 437.3,286.0 450.5,286.0 463.6,274.0 476.8,256.0 490.0,286.0 503.2,286.0 516.4,286.0 529.5,286.0 542.7,286.0 555.9,286.0 569.1,286.0 582.2,286.0 595.4,286.0 608.6,286.0 621.8,286.0 634.9,286.0 648.1,286.0 661.3,286.0 674.5,280.0 687.6,286.0 700.8,286.0 714.0,286.0 727.2,286.0 740.4,286.0 753.5,286.0 766.7,286.0 779.9,286.0 793.1,286.0 806.2,286.0 819.4,286.0 832.6,286.0 845.8,286.0 858.9,280.0 872.1,286.0 885.3,286.0 898.5,286.0 911.6,286.0 924.8,286.0 938.0,286.0"/><text x="42" y="308" font-size="11" fill="#5a688a">19/06 12:43</text><text x="938" y="308" text-anchor="end" font-size="11" fill="#5a688a">26/06 14:59</text></svg>