<svg xmlns="http://www.w3.org/2000/svg" viewBox="0 0 960 320" width="960" height="320" font-family="Segoe UI, system-ui, -apple-system, Roboto, Helvetica, Arial, sans-serif" role="img" aria-label="Availability history per region"><rect x="0.5" y="0.5" width="959" height="319" rx="14" fill="#ffffff" stroke="#dce3f1"/><text x="42" y="26" font-size="14" font-weight="600" fill="#14203a">History · 99 points</text><circle cx="47" cy="40" r="5" fill="#22c55e"/><text x="57" y="44" font-size="12" fill="#5a688a">Available</text><circle cx="139.8" cy="40" r="5" fill="#f59e0b"/><text x="149.8" y="44" font-size="12" fill="#5a688a">Saturated</text><circle cx="232.60000000000002" cy="40" r="5" fill="#ef4444"/><text x="242.60000000000002" y="44" font-size="12" fill="#5a688a">Error</text><circle cx="296.6" cy="40" r="5" fill="#a855f7"/><text x="306.6" y="44" font-size="12" fill="#5a688a">Timeout</text><line x1="42" y1="286.0" x2="938" y2="286.0" stroke="#eef2f7" stroke-width="1"/><text x="35" y="289.0" text-anchor="end" font-size="11" fill="#5a688a">0</text><line x1="42" y1="227.5" x2="938" y2="227.5" stroke="#eef2f7" stroke-width="1"/><text x="35" y="230.5" text-anchor="end" font-size="11" fill="#5a688a">10</text><line x1="42" y1="169.0" x2="938" y2="169.0" stroke="#eef2f7" stroke-width="1"/><text x="35" y="172.0" text-anchor="end" font-size="11" fill="#5a688a">19</text><line x1="42" y1="110.5" x2="938" y2="110.5" stroke="#eef2f7" stroke-width="1"/><text x="35" y="113.5" text-anchor="end" font-size="11" fill="#5a688a">28</text><line x1="42" y1="52.0" x2="938" y2="52.0" stroke="#eef2f7" stroke-width="1"/><text x="35" y="55.0" text-anchor="end" font-size="11" fill="#5a688a">38</text><polyline fill="none" stroke="#22c55e" stroke-width="2.5" stroke-linejoin="round" stroke-linecap="round" points="42.0,64.3 51.1,224.4 60.3,82.8 69.4,88.9 78.6,82.8 87.7,76.6 96.9,76.6 106.0,76.6 115.1,76.6 124.3,76.6 133.4,76.6 142.6,76.6 151.7,76.6 160.9,76.6 170.0,76.6 179.1,70.5 188.3,70.5 197.4,82.8 206.6,82.8 215.7,82.8 224.9,88.9 234.0,88.9 243.1,88.9 252.3,88.9 261.4,88.9 270.6,88.9 279.7,88.9 288.9,88.9 298.0,88.9 307.1,82.8 316.3,82.8 325.4,82.8 334.6,82.8 343.7,76.6 352.9,76.6 362.0,76.6 371.1,76.6 380.3,76.6 389.4,82.8 398.6,82.8 407.7,82.8 416.9,82.8 426.0,76.6 435.1,76.6 444.3,76.6 453.4,76.6 462.6,76.6 471.7,76.6 480.9,76.6 490.0,82.8 499.1,82.8 508.3,82.8 517.4,82.8 526.6,76.6 535.7,76.6 544.9,76.6 554.0,76.6 563.1,76.6 572.3,76.6 581.4,76.6 590.6,76.6 599.7,82.8 608.9,76.6 618.0,76.6 627.1,76.6 636.3,76.6 645.4,76.6 654.6,82.8 663.7,76.6 672.9,76.6 682.0,76.6 691.1,76.6 700.3,76.6 709.4,76.6 718.6,76.6 727.7,76.6 736.9,76.6 746.0,70.5 755.1,70.5 764.3,70.5 773.4,70.5 782.6,76.6 791.7,70.5 800.9,76.6 810.0,76.6 819.1,76.6 828.3,76.6 837.4,76.6 846.6,76.6 855.7,82.8 864.9,88.9 874.0,88.9 883.1,88.9 892.3,88.9 901.4,88.9 910.6,88.9 919.7,88.9 928.9,95.1 938.0,88.9"/><polyline fill="none" stroke="#f59e0b" stroke-width="2.5" stroke-linejoin="round" stroke-linecap="round" points="42.0,273.7 51.1,267.5 60.3,255.2 69.4,249.1 78.6,255.2 87.7,261.4 96.9,261.4 106.0,261.4 115.1,261.4 124.3,261.4 133.4,261.4 142.6,261.4 151.7,261.4 160.9,261.4 170.0,261.4 179.1,267.5 188.3,267.5 197.4,261.4 206.6,255.2 215.7,255.2 224.9,249.1 234.0,249.1 243.1,249.1 252.3,249.1 261.4,249.1 270.6,249.1 279.7,249.1 288.9,249.1 298.0,249.1 307.1,255.2 316.3,255.2 325.4,255.2 334.6,255.2 343.7,261.4 352.9,261.4 362.0,261.4 371.1,261.4 380.3,261.4 389.4,255.2 398.6,255.2 407.7,255.2 416.9,255.2 426.0,261.4 435.1,261.4 444.3,261.4 453.4,261.4 462.6,261.4 471.7,261.4 480.9,261.4 490.0,255.2 499.1,255.2 508.3,255.2 517.4,261.4 526.6,261.4 535.7,261.4 544.9,261.4 554.0,261.4 563.1,261.4 572.3,261.4 581.4,261.4 590.6,261.4 599.7,255.2 608.9,261.4 618.0,261.4 627.1,261.4 636.3,261.4 645.4,261.4 654.6,261.4 663.7,261.4 672.9,261.4 682.0,261.4 691.1,261.4 700.3,261.4 709.4,261.4 718.6,261.4 727.7,261.4 736.9,261.4 746.0,267.5 755.1,267.5 764.3,267.5 773.4,267.5 782.6,267.5 791.7,267.5 800.9,261.4 810.0,261.4 819.1,261.4 828.3,261.4 837.4,261.4 846.6,261.4 855.7,255.2 864.9,249.1 874.0,249.1 883.1,255.2 892.3,249.1 901.4,249.1 910.6,249.1 919.7,249.1 928.9,249.1 938.0,249.1"/><polyline fill="none" stroke="#ef4444" stroke-width="2.5" stroke-linejoin="round" stroke-linecap="round" points="42.0,286.0 51.1,132.1 60.3,286.0 69.4,286.0 78.6,286.0 87.7,286.0 96.9,286.0 106.0,286.0 115.1,286.0 124.3,286.0 133.4,286.0 142.6,286.0 151.7,286.0 160.9,286.0 170.0,286.0 179.1,286.0 188.3,286.0 197.4,279.8 206.6,286.0 215.7,286.0 224.9,286.0 234.0,286.0 243.1,286.0 252.3,286.0 261.4,286.0 270.6,286.0 279.7,286.0 288.9,286.0 298.0,286.0 307.1,286.0 316.3,286.0 325.4,286.0 334.6,286.0 343.7,286.0 352.9,286.0 362.0,286.0 371.1,286.0 380.3,286.0 389.4,286.0 398.6,286.0 407.7,286.0 416.9,286.0 426.0,286.0 435.1,286.0 444.3,286.0 453.4,286.0 462.6,286.0 471.7,286.0 480.9,286.0 490.0,286.0 499.1,286.0 508.3,286.0 517.4,286.0 526.6,286.0 535.7,286.0 544.9,286.0 554.0,286.0 563.1,286.0 572.3,286.0 581.4,286.0 590.6,286.0 599.7,286.0 608.9,286.0 618.0,286.0 627.1,286.0 636.3,286.0 645.4,286.0 654.6,279.8 663.7,286.0 672.9,286.0 682.0,286.0 691.1,286.0 700.3,286.0 709.4,286.0 718.6,286.0 727.7,286.0 736.9,286.0 746.0,286.0 755.1,286.0 764.3,286.0 773.4,286.0 782.6,279.8 791.7,286.0 800.9,286.0 810.0,286.0 819.1,286.0 828.3,286.0 837.4,286.0 846.6,286.0 855.7,286.0 864.9,286.0 874.0,286.0 883.1,279.8 892.3,286.0 901.4,286.0 910.6,286.0 919.7,286.0 928.9,279.8 938.0,286.0"/><polyline fill="none" stroke="#a855f7" stroke-width="2.5" stroke-linejoin="round" stroke-linecap="round" points="42.0,286.0 51.1,286.0 60.3,286.0 69.4,286.0 78.6,286.0 87.7,286.0 96.9,286.0 106.0,286.0 115.1,286.0 124.3,286.0 133.4,286.0 142.6,286.0 151.7,286.0 160.9,286.0 170.0,286.0 179.1,286.0 188.3,286.0 197.4,286.0 206.6,286.0 215.7,286.0 224.9,286.0 234.0,286.0 243.1,286.0 252.3,286.0 261.4,286.0 270.6,286.0 279.7,286.0 288.9,286.0 298.0,286.0 307.1,286.0 316.3,286.0 325.4,286.0 334.6,286.0 343.7,286.0 352.9,286.0 362.0,286.0 371.1,286.0 380.3,286.0 389.4,286.0 398.6,286.0 407.7,286.0 416.9,286.0 426.0,286.0 435.1,286.0 444.3,286.0 453.4,286.0 462.6,286.0 471.7,286.0 480.9,286.0 490.0,286.0 499.1,286.0 508.3,286.0 517.4,279.8 526.6,286.0 535.7,286.0 544.9,286.0 554.0,286.0 563.1,286.0 572.3,286.0 581.4,286.0 590.6,286.0 599.7,286.0 608.9,286.0 618.0,286.0 627.1,286.0 636.3,286.0 645.4,286.0 654.6,286.0 663.7,286.0 672.9,286.0 682.0,286.0 691.1,286.0 700.3,286.0 709.4,286.0 718.6,286.0 727.7,286.0 736.9,286.0 746.0,286.0 755.1,286.0 764.3,286.0 773.4,286.0 782.6,286.0 791.7,286.0 800.9,286.0 810.0,286.0 819.1,286.0 828.3,286.0 837.4,286.0 846.6,286.0 855.7,286.0 864.9,286.0 874.0,286.0 883.1,286.0 892.3,286.0 901.4,286.0 910.6,286.0 919.7,286.0 928.9,286.0 938.0,286.0"/><text x="42" y="308" font-size="11" fill="#5a688a">19/06 15:39</text><text x="938" y="308" text-anchor="end" font-size="11" fill="#5a688a">20/07 17:30</text></svg>