<svg xmlns="http://www.w3.org/2000/svg" viewBox="0 0 960 320" width="960" height="320" font-family="Segoe UI, system-ui, -apple-system, Roboto, Helvetica, Arial, sans-serif" role="img" aria-label="Availability history per region"><rect x="0.5" y="0.5" width="959" height="319" rx="14" fill="#0d1117" stroke="#2c3a5e"/><text x="42" y="26" font-size="14" font-weight="600" fill="#e6ecff">History · 148 points</text><circle cx="47" cy="40" r="5" fill="#22c55e"/><text x="57" y="44" font-size="12" fill="#9fb0d4">Available</text><circle cx="139.8" cy="40" r="5" fill="#f59e0b"/><text x="149.8" y="44" font-size="12" fill="#9fb0d4">Saturated</text><circle cx="232.60000000000002" cy="40" r="5" fill="#ef4444"/><text x="242.60000000000002" y="44" font-size="12" fill="#9fb0d4">Error</text><circle cx="296.6" cy="40" r="5" fill="#a855f7"/><text x="306.6" y="44" font-size="12" fill="#9fb0d4">Timeout</text><line x1="42" y1="286.0" x2="938" y2="286.0" stroke="#21304f" stroke-width="1"/><text x="35" y="289.0" text-anchor="end" font-size="11" fill="#9fb0d4">0</text><line x1="42" y1="227.5" x2="938" y2="227.5" stroke="#21304f" stroke-width="1"/><text x="35" y="230.5" text-anchor="end" font-size="11" fill="#9fb0d4">10</text><line x1="42" y1="169.0" x2="938" y2="169.0" stroke="#21304f" stroke-width="1"/><text x="35" y="172.0" text-anchor="end" font-size="11" fill="#9fb0d4">19</text><line x1="42" y1="110.5" x2="938" y2="110.5" stroke="#21304f" stroke-width="1"/><text x="35" y="113.5" text-anchor="end" font-size="11" fill="#9fb0d4">28</text><line x1="42" y1="52.0" x2="938" y2="52.0" stroke="#21304f" stroke-width="1"/><text x="35" y="55.0" text-anchor="end" font-size="11" fill="#9fb0d4">38</text><polyline fill="none" stroke="#22c55e" stroke-width="2.5" stroke-linejoin="round" stroke-linecap="round" points="42.0,64.3 48.1,224.4 54.2,82.8 60.3,88.9 66.4,82.8 72.5,76.6 78.6,76.6 84.7,76.6 90.8,76.6 96.9,76.6 103.0,76.6 109.0,76.6 115.1,76.6 121.2,76.6 127.3,76.6 133.4,70.5 139.5,70.5 145.6,82.8 151.7,82.8 157.8,82.8 163.9,88.9 170.0,88.9 176.1,88.9 182.2,88.9 188.3,88.9 194.4,88.9 200.5,88.9 206.6,88.9 212.7,88.9 218.8,82.8 224.9,82.8 231.0,82.8 237.0,82.8 243.1,76.6 249.2,76.6 255.3,76.6 261.4,76.6 267.5,76.6 273.6,82.8 279.7,82.8 285.8,82.8 291.9,82.8 298.0,76.6 304.1,76.6 310.2,76.6 316.3,76.6 322.4,76.6 328.5,76.6 334.6,76.6 340.7,82.8 346.8,82.8 352.9,82.8 359.0,82.8 365.0,76.6 371.1,76.6 377.2,76.6 383.3,76.6 389.4,76.6 395.5,76.6 401.6,76.6 407.7,76.6 413.8,82.8 419.9,76.6 426.0,76.6 432.1,76.6 438.2,76.6 444.3,76.6 450.4,82.8 456.5,76.6 462.6,76.6 468.7,76.6 474.8,76.6 480.9,76.6 487.0,76.6 493.0,76.6 499.1,76.6 505.2,76.6 511.3,70.5 517.4,70.5 523.5,70.5 529.6,70.5 535.7,76.6 541.8,70.5 547.9,76.6 554.0,76.6 560.1,76.6 566.2,76.6 572.3,76.6 578.4,76.6 584.5,82.8 590.6,88.9 596.7,88.9 602.8,88.9 608.9,88.9 615.0,88.9 621.0,88.9 627.1,88.9 633.2,95.1 639.3,88.9 645.4,88.9 651.5,88.9 657.6,88.9 663.7,88.9 669.8,88.9 675.9,82.8 682.0,82.8 688.1,82.8 694.2,82.8 700.3,82.8 706.4,82.8 712.5,82.8 718.6,82.8 724.7,88.9 730.8,88.9 736.9,88.9 743.0,88.9 749.0,88.9 755.1,88.9 761.2,88.9 767.3,88.9 773.4,95.1 779.5,88.9 785.6,88.9 791.7,88.9 797.8,101.3 803.9,88.9 810.0,88.9 816.1,88.9 822.2,88.9 828.3,82.8 834.4,82.8 840.5,82.8 846.6,82.8 852.7,88.9 858.8,82.8 864.9,88.9 871.0,88.9 877.0,88.9 883.1,88.9 889.2,95.1 895.3,88.9 901.4,88.9 907.5,88.9 913.6,88.9 919.7,88.9 925.8,88.9 931.9,88.9 938.0,88.9"/><polyline fill="none" stroke="#f59e0b" stroke-width="2.5" stroke-linejoin="round" stroke-linecap="round" points="42.0,273.7 48.1,267.5 54.2,255.2 60.3,249.1 66.4,255.2 72.5,261.4 78.6,261.4 84.7,261.4 90.8,261.4 96.9,261.4 103.0,261.4 109.0,261.4 115.1,261.4 121.2,261.4 127.3,261.4 133.4,267.5 139.5,267.5 145.6,261.4 151.7,255.2 157.8,255.2 163.9,249.1 170.0,249.1 176.1,249.1 182.2,249.1 188.3,249.1 194.4,249.1 200.5,249.1 206.6,249.1 212.7,249.1 218.8,255.2 224.9,255.2 231.0,255.2 237.0,255.2 243.1,261.4 249.2,261.4 255.3,261.4 261.4,261.4 267.5,261.4 273.6,255.2 279.7,255.2 285.8,255.2 291.9,255.2 298.0,261.4 304.1,261.4 310.2,261.4 316.3,261.4 322.4,261.4 328.5,261.4 334.6,261.4 340.7,255.2 346.8,255.2 352.9,255.2 359.0,261.4 365.0,261.4 371.1,261.4 377.2,261.4 383.3,261.4 389.4,261.4 395.5,261.4 401.6,261.4 407.7,261.4 413.8,255.2 419.9,261.4 426.0,261.4 432.1,261.4 438.2,261.4 444.3,261.4 450.4,261.4 456.5,261.4 462.6,261.4 468.7,261.4 474.8,261.4 480.9,261.4 487.0,261.4 493.0,261.4 499.1,261.4 505.2,261.4 511.3,267.5 517.4,267.5 523.5,267.5 529.6,267.5 535.7,267.5 541.8,267.5 547.9,261.4 554.0,261.4 560.1,261.4 566.2,261.4 572.3,261.4 578.4,261.4 584.5,255.2 590.6,249.1 596.7,249.1 602.8,255.2 608.9,249.1 615.0,249.1 621.0,249.1 627.1,249.1 633.2,249.1 639.3,249.1 645.4,255.2 651.5,249.1 657.6,249.1 663.7,249.1 669.8,249.1 675.9,255.2 682.0,255.2 688.1,255.2 694.2,255.2 700.3,255.2 706.4,255.2 712.5,255.2 718.6,255.2 724.7,249.1 730.8,249.1 736.9,249.1 743.0,249.1 749.0,249.1 755.1,249.1 761.2,249.1 767.3,255.2 773.4,249.1 779.5,249.1 785.6,249.1 791.7,249.1 797.8,249.1 803.9,249.1 810.0,249.1 816.1,255.2 822.2,255.2 828.3,255.2 834.4,255.2 840.5,255.2 846.6,255.2 852.7,255.2 858.8,255.2 864.9,249.1 871.0,249.1 877.0,249.1 883.1,249.1 889.2,249.1 895.3,249.1 901.4,249.1 907.5,249.1 913.6,249.1 919.7,249.1 925.8,249.1 931.9,249.1 938.0,249.1"/><polyline fill="none" stroke="#ef4444" stroke-width="2.5" stroke-linejoin="round" stroke-linecap="round" points="42.0,286.0 48.1,132.1 54.2,286.0 60.3,286.0 66.4,286.0 72.5,286.0 78.6,286.0 84.7,286.0 90.8,286.0 96.9,286.0 103.0,286.0 109.0,286.0 115.1,286.0 121.2,286.0 127.3,286.0 133.4,286.0 139.5,286.0 145.6,279.8 151.7,286.0 157.8,286.0 163.9,286.0 170.0,286.0 176.1,286.0 182.2,286.0 188.3,286.0 194.4,286.0 200.5,286.0 206.6,286.0 212.7,286.0 218.8,286.0 224.9,286.0 231.0,286.0 237.0,286.0 243.1,286.0 249.2,286.0 255.3,286.0 261.4,286.0 267.5,286.0 273.6,286.0 279.7,286.0 285.8,286.0 291.9,286.0 298.0,286.0 304.1,286.0 310.2,286.0 316.3,286.0 322.4,286.0 328.5,286.0 334.6,286.0 340.7,286.0 346.8,286.0 352.9,286.0 359.0,286.0 365.0,286.0 371.1,286.0 377.2,286.0 383.3,286.0 389.4,286.0 395.5,286.0 401.6,286.0 407.7,286.0 413.8,286.0 419.9,286.0 426.0,286.0 432.1,286.0 438.2,286.0 444.3,286.0 450.4,279.8 456.5,286.0 462.6,286.0 468.7,286.0 474.8,286.0 480.9,286.0 487.0,286.0 493.0,286.0 499.1,286.0 505.2,286.0 511.3,286.0 517.4,286.0 523.5,286.0 529.6,286.0 535.7,279.8 541.8,286.0 547.9,286.0 554.0,286.0 560.1,286.0 566.2,286.0 572.3,286.0 578.4,286.0 584.5,286.0 590.6,286.0 596.7,286.0 602.8,279.8 608.9,286.0 615.0,286.0 621.0,286.0 627.1,286.0 633.2,279.8 639.3,286.0 645.4,286.0 651.5,286.0 657.6,286.0 663.7,286.0 669.8,286.0 675.9,286.0 682.0,286.0 688.1,286.0 694.2,286.0 700.3,286.0 706.4,286.0 712.5,286.0 718.6,286.0 724.7,286.0 730.8,286.0 736.9,286.0 743.0,286.0 749.0,286.0 755.1,286.0 761.2,286.0 767.3,286.0 773.4,279.8 779.5,286.0 785.6,286.0 791.7,286.0 797.8,273.7 803.9,286.0 810.0,286.0 816.1,279.8 822.2,279.8 828.3,286.0 834.4,286.0 840.5,286.0 846.6,286.0 852.7,279.8 858.8,286.0 864.9,286.0 871.0,286.0 877.0,286.0 883.1,286.0 889.2,286.0 895.3,286.0 901.4,286.0 907.5,286.0 913.6,286.0 919.7,286.0 925.8,286.0 931.9,286.0 938.0,286.0"/><polyline fill="none" stroke="#a855f7" stroke-width="2.5" stroke-linejoin="round" stroke-linecap="round" points="42.0,286.0 48.1,286.0 54.2,286.0 60.3,286.0 66.4,286.0 72.5,286.0 78.6,286.0 84.7,286.0 90.8,286.0 96.9,286.0 103.0,286.0 109.0,286.0 115.1,286.0 121.2,286.0 127.3,286.0 133.4,286.0 139.5,286.0 145.6,286.0 151.7,286.0 157.8,286.0 163.9,286.0 170.0,286.0 176.1,286.0 182.2,286.0 188.3,286.0 194.4,286.0 200.5,286.0 206.6,286.0 212.7,286.0 218.8,286.0 224.9,286.0 231.0,286.0 237.0,286.0 243.1,286.0 249.2,286.0 255.3,286.0 261.4,286.0 267.5,286.0 273.6,286.0 279.7,286.0 285.8,286.0 291.9,286.0 298.0,286.0 304.1,286.0 310.2,286.0 316.3,286.0 322.4,286.0 328.5,286.0 334.6,286.0 340.7,286.0 346.8,286.0 352.9,286.0 359.0,279.8 365.0,286.0 371.1,286.0 377.2,286.0 383.3,286.0 389.4,286.0 395.5,286.0 401.6,286.0 407.7,286.0 413.8,286.0 419.9,286.0 426.0,286.0 432.1,286.0 438.2,286.0 444.3,286.0 450.4,286.0 456.5,286.0 462.6,286.0 468.7,286.0 474.8,286.0 480.9,286.0 487.0,286.0 493.0,286.0 499.1,286.0 505.2,286.0 511.3,286.0 517.4,286.0 523.5,286.0 529.6,286.0 535.7,286.0 541.8,286.0 547.9,286.0 554.0,286.0 560.1,286.0 566.2,286.0 572.3,286.0 578.4,286.0 584.5,286.0 590.6,286.0 596.7,286.0 602.8,286.0 608.9,286.0 615.0,286.0 621.0,286.0 627.1,286.0 633.2,286.0 639.3,286.0 645.4,279.8 651.5,286.0 657.6,286.0 663.7,286.0 669.8,286.0 675.9,286.0 682.0,286.0 688.1,286.0 694.2,286.0 700.3,286.0 706.4,286.0 712.5,286.0 718.6,286.0 724.7,286.0 730.8,286.0 736.9,286.0 743.0,286.0 749.0,286.0 755.1,286.0 761.2,286.0 767.3,279.8 773.4,286.0 779.5,286.0 785.6,286.0 791.7,286.0 797.8,286.0 803.9,286.0 810.0,286.0 816.1,286.0 822.2,286.0 828.3,286.0 834.4,286.0 840.5,286.0 846.6,286.0 852.7,286.0 858.8,286.0 864.9,286.0 871.0,286.0 877.0,286.0 883.1,286.0 889.2,279.8 895.3,286.0 901.4,286.0 907.5,286.0 913.6,286.0 919.7,286.0 925.8,286.0 931.9,286.0 938.0,286.0"/><text x="42" y="308" font-size="11" fill="#9fb0d4">19/06 15:39</text><text x="938" y="308" text-anchor="end" font-size="11" fill="#9fb0d4">22/07 18:32</text></svg>