<svg xmlns="http://www.w3.org/2000/svg" viewBox="0 0 960 320" width="960" height="320" font-family="Segoe UI, system-ui, -apple-system, Roboto, Helvetica, Arial, sans-serif" role="img" aria-label="Availability history per region"><rect x="0.5" y="0.5" width="959" height="319" rx="14" fill="#ffffff" stroke="#dce3f1"/><text x="42" y="26" font-size="14" font-weight="600" fill="#14203a">History · 147 points</text><circle cx="47" cy="40" r="5" fill="#22c55e"/><text x="57" y="44" font-size="12" fill="#5a688a">Available</text><circle cx="139.8" cy="40" r="5" fill="#f59e0b"/><text x="149.8" y="44" font-size="12" fill="#5a688a">Saturated</text><circle cx="232.60000000000002" cy="40" r="5" fill="#ef4444"/><text x="242.60000000000002" y="44" font-size="12" fill="#5a688a">Error</text><circle cx="296.6" cy="40" r="5" fill="#a855f7"/><text x="306.6" y="44" font-size="12" fill="#5a688a">Timeout</text><line x1="42" y1="286.0" x2="938" y2="286.0" stroke="#eef2f7" stroke-width="1"/><text x="35" y="289.0" text-anchor="end" font-size="11" fill="#5a688a">0</text><line x1="42" y1="227.5" x2="938" y2="227.5" stroke="#eef2f7" stroke-width="1"/><text x="35" y="230.5" text-anchor="end" font-size="11" fill="#5a688a">10</text><line x1="42" y1="169.0" x2="938" y2="169.0" stroke="#eef2f7" stroke-width="1"/><text x="35" y="172.0" text-anchor="end" font-size="11" fill="#5a688a">19</text><line x1="42" y1="110.5" x2="938" y2="110.5" stroke="#eef2f7" stroke-width="1"/><text x="35" y="113.5" text-anchor="end" font-size="11" fill="#5a688a">28</text><line x1="42" y1="52.0" x2="938" y2="52.0" stroke="#eef2f7" stroke-width="1"/><text x="35" y="55.0" text-anchor="end" font-size="11" fill="#5a688a">38</text><polyline fill="none" stroke="#22c55e" stroke-width="2.5" stroke-linejoin="round" stroke-linecap="round" points="42.0,64.3 48.1,224.4 54.3,82.8 60.4,88.9 66.5,82.8 72.7,76.6 78.8,76.6 85.0,76.6 91.1,76.6 97.2,76.6 103.4,76.6 109.5,76.6 115.6,76.6 121.8,76.6 127.9,76.6 134.1,70.5 140.2,70.5 146.3,82.8 152.5,82.8 158.6,82.8 164.7,88.9 170.9,88.9 177.0,88.9 183.2,88.9 189.3,88.9 195.4,88.9 201.6,88.9 207.7,88.9 213.8,88.9 220.0,82.8 226.1,82.8 232.2,82.8 238.4,82.8 244.5,76.6 250.7,76.6 256.8,76.6 262.9,76.6 269.1,76.6 275.2,82.8 281.3,82.8 287.5,82.8 293.6,82.8 299.8,76.6 305.9,76.6 312.0,76.6 318.2,76.6 324.3,76.6 330.4,76.6 336.6,76.6 342.7,82.8 348.8,82.8 355.0,82.8 361.1,82.8 367.3,76.6 373.4,76.6 379.5,76.6 385.7,76.6 391.8,76.6 397.9,76.6 404.1,76.6 410.2,76.6 416.4,82.8 422.5,76.6 428.6,76.6 434.8,76.6 440.9,76.6 447.0,76.6 453.2,82.8 459.3,76.6 465.5,76.6 471.6,76.6 477.7,76.6 483.9,76.6 490.0,76.6 496.1,76.6 502.3,76.6 508.4,76.6 514.5,70.5 520.7,70.5 526.8,70.5 533.0,70.5 539.1,76.6 545.2,70.5 551.4,76.6 557.5,76.6 563.6,76.6 569.8,76.6 575.9,76.6 582.1,76.6 588.2,82.8 594.3,88.9 600.5,88.9 606.6,88.9 612.7,88.9 618.9,88.9 625.0,88.9 631.2,88.9 637.3,95.1 643.4,88.9 649.6,88.9 655.7,88.9 661.8,88.9 668.0,88.9 674.1,88.9 680.2,82.8 686.4,82.8 692.5,82.8 698.7,82.8 704.8,82.8 710.9,82.8 717.1,82.8 723.2,82.8 729.3,88.9 735.5,88.9 741.6,88.9 747.8,88.9 753.9,88.9 760.0,88.9 766.2,88.9 772.3,88.9 778.4,95.1 784.6,88.9 790.7,88.9 796.8,88.9 803.0,101.3 809.1,88.9 815.3,88.9 821.4,88.9 827.5,88.9 833.7,82.8 839.8,82.8 845.9,82.8 852.1,82.8 858.2,88.9 864.4,82.8 870.5,88.9 876.6,88.9 882.8,88.9 888.9,88.9 895.0,95.1 901.2,88.9 907.3,88.9 913.5,88.9 919.6,88.9 925.7,88.9 931.9,88.9 938.0,88.9"/><polyline fill="none" stroke="#f59e0b" stroke-width="2.5" stroke-linejoin="round" stroke-linecap="round" points="42.0,273.7 48.1,267.5 54.3,255.2 60.4,249.1 66.5,255.2 72.7,261.4 78.8,261.4 85.0,261.4 91.1,261.4 97.2,261.4 103.4,261.4 109.5,261.4 115.6,261.4 121.8,261.4 127.9,261.4 134.1,267.5 140.2,267.5 146.3,261.4 152.5,255.2 158.6,255.2 164.7,249.1 170.9,249.1 177.0,249.1 183.2,249.1 189.3,249.1 195.4,249.1 201.6,249.1 207.7,249.1 213.8,249.1 220.0,255.2 226.1,255.2 232.2,255.2 238.4,255.2 244.5,261.4 250.7,261.4 256.8,261.4 262.9,261.4 269.1,261.4 275.2,255.2 281.3,255.2 287.5,255.2 293.6,255.2 299.8,261.4 305.9,261.4 312.0,261.4 318.2,261.4 324.3,261.4 330.4,261.4 336.6,261.4 342.7,255.2 348.8,255.2 355.0,255.2 361.1,261.4 367.3,261.4 373.4,261.4 379.5,261.4 385.7,261.4 391.8,261.4 397.9,261.4 404.1,261.4 410.2,261.4 416.4,255.2 422.5,261.4 428.6,261.4 434.8,261.4 440.9,261.4 447.0,261.4 453.2,261.4 459.3,261.4 465.5,261.4 471.6,261.4 477.7,261.4 483.9,261.4 490.0,261.4 496.1,261.4 502.3,261.4 508.4,261.4 514.5,267.5 520.7,267.5 526.8,267.5 533.0,267.5 539.1,267.5 545.2,267.5 551.4,261.4 557.5,261.4 563.6,261.4 569.8,261.4 575.9,261.4 582.1,261.4 588.2,255.2 594.3,249.1 600.5,249.1 606.6,255.2 612.7,249.1 618.9,249.1 625.0,249.1 631.2,249.1 637.3,249.1 643.4,249.1 649.6,255.2 655.7,249.1 661.8,249.1 668.0,249.1 674.1,249.1 680.2,255.2 686.4,255.2 692.5,255.2 698.7,255.2 704.8,255.2 710.9,255.2 717.1,255.2 723.2,255.2 729.3,249.1 735.5,249.1 741.6,249.1 747.8,249.1 753.9,249.1 760.0,249.1 766.2,249.1 772.3,255.2 778.4,249.1 784.6,249.1 790.7,249.1 796.8,249.1 803.0,249.1 809.1,249.1 815.3,249.1 821.4,255.2 827.5,255.2 833.7,255.2 839.8,255.2 845.9,255.2 852.1,255.2 858.2,255.2 864.4,255.2 870.5,249.1 876.6,249.1 882.8,249.1 888.9,249.1 895.0,249.1 901.2,249.1 907.3,249.1 913.5,249.1 919.6,249.1 925.7,249.1 931.9,249.1 938.0,249.1"/><polyline fill="none" stroke="#ef4444" stroke-width="2.5" stroke-linejoin="round" stroke-linecap="round" points="42.0,286.0 48.1,132.1 54.3,286.0 60.4,286.0 66.5,286.0 72.7,286.0 78.8,286.0 85.0,286.0 91.1,286.0 97.2,286.0 103.4,286.0 109.5,286.0 115.6,286.0 121.8,286.0 127.9,286.0 134.1,286.0 140.2,286.0 146.3,279.8 152.5,286.0 158.6,286.0 164.7,286.0 170.9,286.0 177.0,286.0 183.2,286.0 189.3,286.0 195.4,286.0 201.6,286.0 207.7,286.0 213.8,286.0 220.0,286.0 226.1,286.0 232.2,286.0 238.4,286.0 244.5,286.0 250.7,286.0 256.8,286.0 262.9,286.0 269.1,286.0 275.2,286.0 281.3,286.0 287.5,286.0 293.6,286.0 299.8,286.0 305.9,286.0 312.0,286.0 318.2,286.0 324.3,286.0 330.4,286.0 336.6,286.0 342.7,286.0 348.8,286.0 355.0,286.0 361.1,286.0 367.3,286.0 373.4,286.0 379.5,286.0 385.7,286.0 391.8,286.0 397.9,286.0 404.1,286.0 410.2,286.0 416.4,286.0 422.5,286.0 428.6,286.0 434.8,286.0 440.9,286.0 447.0,286.0 453.2,279.8 459.3,286.0 465.5,286.0 471.6,286.0 477.7,286.0 483.9,286.0 490.0,286.0 496.1,286.0 502.3,286.0 508.4,286.0 514.5,286.0 520.7,286.0 526.8,286.0 533.0,286.0 539.1,279.8 545.2,286.0 551.4,286.0 557.5,286.0 563.6,286.0 569.8,286.0 575.9,286.0 582.1,286.0 588.2,286.0 594.3,286.0 600.5,286.0 606.6,279.8 612.7,286.0 618.9,286.0 625.0,286.0 631.2,286.0 637.3,279.8 643.4,286.0 649.6,286.0 655.7,286.0 661.8,286.0 668.0,286.0 674.1,286.0 680.2,286.0 686.4,286.0 692.5,286.0 698.7,286.0 704.8,286.0 710.9,286.0 717.1,286.0 723.2,286.0 729.3,286.0 735.5,286.0 741.6,286.0 747.8,286.0 753.9,286.0 760.0,286.0 766.2,286.0 772.3,286.0 778.4,279.8 784.6,286.0 790.7,286.0 796.8,286.0 803.0,273.7 809.1,286.0 815.3,286.0 821.4,279.8 827.5,279.8 833.7,286.0 839.8,286.0 845.9,286.0 852.1,286.0 858.2,279.8 864.4,286.0 870.5,286.0 876.6,286.0 882.8,286.0 888.9,286.0 895.0,286.0 901.2,286.0 907.3,286.0 913.5,286.0 919.6,286.0 925.7,286.0 931.9,286.0 938.0,286.0"/><polyline fill="none" stroke="#a855f7" stroke-width="2.5" stroke-linejoin="round" stroke-linecap="round" points="42.0,286.0 48.1,286.0 54.3,286.0 60.4,286.0 66.5,286.0 72.7,286.0 78.8,286.0 85.0,286.0 91.1,286.0 97.2,286.0 103.4,286.0 109.5,286.0 115.6,286.0 121.8,286.0 127.9,286.0 134.1,286.0 140.2,286.0 146.3,286.0 152.5,286.0 158.6,286.0 164.7,286.0 170.9,286.0 177.0,286.0 183.2,286.0 189.3,286.0 195.4,286.0 201.6,286.0 207.7,286.0 213.8,286.0 220.0,286.0 226.1,286.0 232.2,286.0 238.4,286.0 244.5,286.0 250.7,286.0 256.8,286.0 262.9,286.0 269.1,286.0 275.2,286.0 281.3,286.0 287.5,286.0 293.6,286.0 299.8,286.0 305.9,286.0 312.0,286.0 318.2,286.0 324.3,286.0 330.4,286.0 336.6,286.0 342.7,286.0 348.8,286.0 355.0,286.0 361.1,279.8 367.3,286.0 373.4,286.0 379.5,286.0 385.7,286.0 391.8,286.0 397.9,286.0 404.1,286.0 410.2,286.0 416.4,286.0 422.5,286.0 428.6,286.0 434.8,286.0 440.9,286.0 447.0,286.0 453.2,286.0 459.3,286.0 465.5,286.0 471.6,286.0 477.7,286.0 483.9,286.0 490.0,286.0 496.1,286.0 502.3,286.0 508.4,286.0 514.5,286.0 520.7,286.0 526.8,286.0 533.0,286.0 539.1,286.0 545.2,286.0 551.4,286.0 557.5,286.0 563.6,286.0 569.8,286.0 575.9,286.0 582.1,286.0 588.2,286.0 594.3,286.0 600.5,286.0 606.6,286.0 612.7,286.0 618.9,286.0 625.0,286.0 631.2,286.0 637.3,286.0 643.4,286.0 649.6,279.8 655.7,286.0 661.8,286.0 668.0,286.0 674.1,286.0 680.2,286.0 686.4,286.0 692.5,286.0 698.7,286.0 704.8,286.0 710.9,286.0 717.1,286.0 723.2,286.0 729.3,286.0 735.5,286.0 741.6,286.0 747.8,286.0 753.9,286.0 760.0,286.0 766.2,286.0 772.3,279.8 778.4,286.0 784.6,286.0 790.7,286.0 796.8,286.0 803.0,286.0 809.1,286.0 815.3,286.0 821.4,286.0 827.5,286.0 833.7,286.0 839.8,286.0 845.9,286.0 852.1,286.0 858.2,286.0 864.4,286.0 870.5,286.0 876.6,286.0 882.8,286.0 888.9,286.0 895.0,279.8 901.2,286.0 907.3,286.0 913.5,286.0 919.6,286.0 925.7,286.0 931.9,286.0 938.0,286.0"/><text x="42" y="308" font-size="11" fill="#5a688a">19/06 15:39</text><text x="938" y="308" text-anchor="end" font-size="11" fill="#5a688a">22/07 17:45</text></svg>