<svg xmlns="http://www.w3.org/2000/svg" viewBox="0 0 960 320" width="960" height="320" font-family="Segoe UI, system-ui, -apple-system, Roboto, Helvetica, Arial, sans-serif" role="img" aria-label="Availability history per region"><rect x="0.5" y="0.5" width="959" height="319" rx="14" fill="#0d1117" stroke="#2c3a5e"/><text x="42" y="26" font-size="14" font-weight="600" fill="#e6ecff">History · 67 points</text><circle cx="47" cy="40" r="5" fill="#22c55e"/><text x="57" y="44" font-size="12" fill="#9fb0d4">Available</text><circle cx="139.8" cy="40" r="5" fill="#f59e0b"/><text x="149.8" y="44" font-size="12" fill="#9fb0d4">Saturated</text><circle cx="232.60000000000002" cy="40" r="5" fill="#ef4444"/><text x="242.60000000000002" y="44" font-size="12" fill="#9fb0d4">Error</text><circle cx="296.6" cy="40" r="5" fill="#a855f7"/><text x="306.6" y="44" font-size="12" fill="#9fb0d4">Timeout</text><line x1="42" y1="286.0" x2="938" y2="286.0" stroke="#21304f" stroke-width="1"/><text x="35" y="289.0" text-anchor="end" font-size="11" fill="#9fb0d4">0</text><line x1="42" y1="227.5" x2="938" y2="227.5" stroke="#21304f" stroke-width="1"/><text x="35" y="230.5" text-anchor="end" font-size="11" fill="#9fb0d4">10</text><line x1="42" y1="169.0" x2="938" y2="169.0" stroke="#21304f" stroke-width="1"/><text x="35" y="172.0" text-anchor="end" font-size="11" fill="#9fb0d4">19</text><line x1="42" y1="110.5" x2="938" y2="110.5" stroke="#21304f" stroke-width="1"/><text x="35" y="113.5" text-anchor="end" font-size="11" fill="#9fb0d4">28</text><line x1="42" y1="52.0" x2="938" y2="52.0" stroke="#21304f" stroke-width="1"/><text x="35" y="55.0" text-anchor="end" font-size="11" fill="#9fb0d4">38</text><polyline fill="none" stroke="#22c55e" stroke-width="2.5" stroke-linejoin="round" stroke-linecap="round" points="42.0,64.3 55.6,224.4 69.2,82.8 82.7,88.9 96.3,82.8 109.9,76.6 123.5,76.6 137.0,76.6 150.6,76.6 164.2,76.6 177.8,76.6 191.3,76.6 204.9,76.6 218.5,76.6 232.1,76.6 245.6,70.5 259.2,70.5 272.8,82.8 286.4,82.8 299.9,82.8 313.5,88.9 327.1,88.9 340.7,88.9 354.2,88.9 367.8,88.9 381.4,88.9 395.0,88.9 408.5,88.9 422.1,88.9 435.7,82.8 449.3,82.8 462.8,82.8 476.4,82.8 490.0,76.6 503.6,76.6 517.2,76.6 530.7,76.6 544.3,76.6 557.9,82.8 571.5,82.8 585.0,82.8 598.6,82.8 612.2,76.6 625.8,76.6 639.3,76.6 652.9,76.6 666.5,76.6 680.1,76.6 693.6,76.6 707.2,82.8 720.8,82.8 734.4,82.8 747.9,82.8 761.5,76.6 775.1,76.6 788.7,76.6 802.2,76.6 815.8,76.6 829.4,76.6 843.0,76.6 856.5,76.6 870.1,82.8 883.7,76.6 897.3,76.6 910.8,76.6 924.4,76.6 938.0,76.6"/><polyline fill="none" stroke="#f59e0b" stroke-width="2.5" stroke-linejoin="round" stroke-linecap="round" points="42.0,273.7 55.6,267.5 69.2,255.2 82.7,249.1 96.3,255.2 109.9,261.4 123.5,261.4 137.0,261.4 150.6,261.4 164.2,261.4 177.8,261.4 191.3,261.4 204.9,261.4 218.5,261.4 232.1,261.4 245.6,267.5 259.2,267.5 272.8,261.4 286.4,255.2 299.9,255.2 313.5,249.1 327.1,249.1 340.7,249.1 354.2,249.1 367.8,249.1 381.4,249.1 395.0,249.1 408.5,249.1 422.1,249.1 435.7,255.2 449.3,255.2 462.8,255.2 476.4,255.2 490.0,261.4 503.6,261.4 517.2,261.4 530.7,261.4 544.3,261.4 557.9,255.2 571.5,255.2 585.0,255.2 598.6,255.2 612.2,261.4 625.8,261.4 639.3,261.4 652.9,261.4 666.5,261.4 680.1,261.4 693.6,261.4 707.2,255.2 720.8,255.2 734.4,255.2 747.9,261.4 761.5,261.4 775.1,261.4 788.7,261.4 802.2,261.4 815.8,261.4 829.4,261.4 843.0,261.4 856.5,261.4 870.1,255.2 883.7,261.4 897.3,261.4 910.8,261.4 924.4,261.4 938.0,261.4"/><polyline fill="none" stroke="#ef4444" stroke-width="2.5" stroke-linejoin="round" stroke-linecap="round" points="42.0,286.0 55.6,132.1 69.2,286.0 82.7,286.0 96.3,286.0 109.9,286.0 123.5,286.0 137.0,286.0 150.6,286.0 164.2,286.0 177.8,286.0 191.3,286.0 204.9,286.0 218.5,286.0 232.1,286.0 245.6,286.0 259.2,286.0 272.8,279.8 286.4,286.0 299.9,286.0 313.5,286.0 327.1,286.0 340.7,286.0 354.2,286.0 367.8,286.0 381.4,286.0 395.0,286.0 408.5,286.0 422.1,286.0 435.7,286.0 449.3,286.0 462.8,286.0 476.4,286.0 490.0,286.0 503.6,286.0 517.2,286.0 530.7,286.0 544.3,286.0 557.9,286.0 571.5,286.0 585.0,286.0 598.6,286.0 612.2,286.0 625.8,286.0 639.3,286.0 652.9,286.0 666.5,286.0 680.1,286.0 693.6,286.0 707.2,286.0 720.8,286.0 734.4,286.0 747.9,286.0 761.5,286.0 775.1,286.0 788.7,286.0 802.2,286.0 815.8,286.0 829.4,286.0 843.0,286.0 856.5,286.0 870.1,286.0 883.7,286.0 897.3,286.0 910.8,286.0 924.4,286.0 938.0,286.0"/><polyline fill="none" stroke="#a855f7" stroke-width="2.5" stroke-linejoin="round" stroke-linecap="round" points="42.0,286.0 55.6,286.0 69.2,286.0 82.7,286.0 96.3,286.0 109.9,286.0 123.5,286.0 137.0,286.0 150.6,286.0 164.2,286.0 177.8,286.0 191.3,286.0 204.9,286.0 218.5,286.0 232.1,286.0 245.6,286.0 259.2,286.0 272.8,286.0 286.4,286.0 299.9,286.0 313.5,286.0 327.1,286.0 340.7,286.0 354.2,286.0 367.8,286.0 381.4,286.0 395.0,286.0 408.5,286.0 422.1,286.0 435.7,286.0 449.3,286.0 462.8,286.0 476.4,286.0 490.0,286.0 503.6,286.0 517.2,286.0 530.7,286.0 544.3,286.0 557.9,286.0 571.5,286.0 585.0,286.0 598.6,286.0 612.2,286.0 625.8,286.0 639.3,286.0 652.9,286.0 666.5,286.0 680.1,286.0 693.6,286.0 707.2,286.0 720.8,286.0 734.4,286.0 747.9,279.8 761.5,286.0 775.1,286.0 788.7,286.0 802.2,286.0 815.8,286.0 829.4,286.0 843.0,286.0 856.5,286.0 870.1,286.0 883.7,286.0 897.3,286.0 910.8,286.0 924.4,286.0 938.0,286.0"/><text x="42" y="308" font-size="11" fill="#9fb0d4">19/06 15:39</text><text x="938" y="308" text-anchor="end" font-size="11" fill="#9fb0d4">19/07 08:32</text></svg>