<svg xmlns="http://www.w3.org/2000/svg" viewBox="0 0 960 320" width="960" height="320" font-family="Segoe UI, system-ui, -apple-system, Roboto, Helvetica, Arial, sans-serif" role="img" aria-label="Availability history per region"><rect x="0.5" y="0.5" width="959" height="319" rx="14" fill="#0d1117" stroke="#2c3a5e"/><text x="42" y="26" font-size="14" font-weight="600" fill="#e6ecff">History · 38 points</text><circle cx="47" cy="40" r="5" fill="#22c55e"/><text x="57" y="44" font-size="12" fill="#9fb0d4">Available</text><circle cx="139.8" cy="40" r="5" fill="#f59e0b"/><text x="149.8" y="44" font-size="12" fill="#9fb0d4">Saturated</text><circle cx="232.60000000000002" cy="40" r="5" fill="#ef4444"/><text x="242.60000000000002" y="44" font-size="12" fill="#9fb0d4">Error</text><line x1="42" y1="286.0" x2="938" y2="286.0" stroke="#21304f" stroke-width="1"/><text x="35" y="289.0" text-anchor="end" font-size="11" fill="#9fb0d4">0</text><line x1="42" y1="227.5" x2="938" y2="227.5" stroke="#21304f" stroke-width="1"/><text x="35" y="230.5" text-anchor="end" font-size="11" fill="#9fb0d4">10</text><line x1="42" y1="169.0" x2="938" y2="169.0" stroke="#21304f" stroke-width="1"/><text x="35" y="172.0" text-anchor="end" font-size="11" fill="#9fb0d4">19</text><line x1="42" y1="110.5" x2="938" y2="110.5" stroke="#21304f" stroke-width="1"/><text x="35" y="113.5" text-anchor="end" font-size="11" fill="#9fb0d4">28</text><line x1="42" y1="52.0" x2="938" y2="52.0" stroke="#21304f" stroke-width="1"/><text x="35" y="55.0" text-anchor="end" font-size="11" fill="#9fb0d4">38</text><polyline fill="none" stroke="#22c55e" stroke-width="2.5" stroke-linejoin="round" stroke-linecap="round" points="42.0,64.3 66.2,224.4 90.4,82.8 114.6,88.9 138.9,82.8 163.1,76.6 187.3,76.6 211.5,76.6 235.7,76.6 259.9,76.6 284.2,76.6 308.4,76.6 332.6,76.6 356.8,76.6 381.0,76.6 405.2,70.5 429.5,70.5 453.7,82.8 477.9,82.8 502.1,82.8 526.3,88.9 550.5,88.9 574.8,88.9 599.0,88.9 623.2,88.9 647.4,88.9 671.6,88.9 695.8,88.9 720.1,88.9 744.3,82.8 768.5,82.8 792.7,82.8 816.9,82.8 841.1,76.6 865.4,76.6 889.6,76.6 913.8,76.6 938.0,76.6"/><circle cx="42.0" cy="64.3" r="2.5" fill="#22c55e"/><circle cx="66.2" cy="224.4" r="2.5" fill="#22c55e"/><circle cx="90.4" cy="82.8" r="2.5" fill="#22c55e"/><circle cx="114.6" cy="88.9" r="2.5" fill="#22c55e"/><circle cx="138.9" cy="82.8" r="2.5" fill="#22c55e"/><circle cx="163.1" cy="76.6" r="2.5" fill="#22c55e"/><circle cx="187.3" cy="76.6" r="2.5" fill="#22c55e"/><circle cx="211.5" cy="76.6" r="2.5" fill="#22c55e"/><circle cx="235.7" cy="76.6" r="2.5" fill="#22c55e"/><circle cx="259.9" cy="76.6" r="2.5" fill="#22c55e"/><circle cx="284.2" cy="76.6" r="2.5" fill="#22c55e"/><circle cx="308.4" cy="76.6" r="2.5" fill="#22c55e"/><circle cx="332.6" cy="76.6" r="2.5" fill="#22c55e"/><circle cx="356.8" cy="76.6" r="2.5" fill="#22c55e"/><circle cx="381.0" cy="76.6" r="2.5" fill="#22c55e"/><circle cx="405.2" cy="70.5" r="2.5" fill="#22c55e"/><circle cx="429.5" cy="70.5" r="2.5" fill="#22c55e"/><circle cx="453.7" cy="82.8" r="2.5" fill="#22c55e"/><circle cx="477.9" cy="82.8" r="2.5" fill="#22c55e"/><circle cx="502.1" cy="82.8" r="2.5" fill="#22c55e"/><circle cx="526.3" cy="88.9" r="2.5" fill="#22c55e"/><circle cx="550.5" cy="88.9" r="2.5" fill="#22c55e"/><circle cx="574.8" cy="88.9" r="2.5" fill="#22c55e"/><circle cx="599.0" cy="88.9" r="2.5" fill="#22c55e"/><circle cx="623.2" cy="88.9" r="2.5" fill="#22c55e"/><circle cx="647.4" cy="88.9" r="2.5" fill="#22c55e"/><circle cx="671.6" cy="88.9" r="2.5" fill="#22c55e"/><circle cx="695.8" cy="88.9" r="2.5" fill="#22c55e"/><circle cx="720.1" cy="88.9" r="2.5" fill="#22c55e"/><circle cx="744.3" cy="82.8" r="2.5" fill="#22c55e"/><circle cx="768.5" cy="82.8" r="2.5" fill="#22c55e"/><circle cx="792.7" cy="82.8" r="2.5" fill="#22c55e"/><circle cx="816.9" cy="82.8" r="2.5" fill="#22c55e"/><circle cx="841.1" cy="76.6" r="2.5" fill="#22c55e"/><circle cx="865.4" cy="76.6" r="2.5" fill="#22c55e"/><circle cx="889.6" cy="76.6" r="2.5" fill="#22c55e"/><circle cx="913.8" cy="76.6" r="2.5" fill="#22c55e"/><circle cx="938.0" cy="76.6" r="2.5" fill="#22c55e"/><polyline fill="none" stroke="#f59e0b" stroke-width="2.5" stroke-linejoin="round" stroke-linecap="round" points="42.0,273.7 66.2,267.5 90.4,255.2 114.6,249.1 138.9,255.2 163.1,261.4 187.3,261.4 211.5,261.4 235.7,261.4 259.9,261.4 284.2,261.4 308.4,261.4 332.6,261.4 356.8,261.4 381.0,261.4 405.2,267.5 429.5,267.5 453.7,261.4 477.9,255.2 502.1,255.2 526.3,249.1 550.5,249.1 574.8,249.1 599.0,249.1 623.2,249.1 647.4,249.1 671.6,249.1 695.8,249.1 720.1,249.1 744.3,255.2 768.5,255.2 792.7,255.2 816.9,255.2 841.1,261.4 865.4,261.4 889.6,261.4 913.8,261.4 938.0,261.4"/><circle cx="42.0" cy="273.7" r="2.5" fill="#f59e0b"/><circle cx="66.2" cy="267.5" r="2.5" fill="#f59e0b"/><circle cx="90.4" cy="255.2" r="2.5" fill="#f59e0b"/><circle cx="114.6" cy="249.1" r="2.5" fill="#f59e0b"/><circle cx="138.9" cy="255.2" r="2.5" fill="#f59e0b"/><circle cx="163.1" cy="261.4" r="2.5" fill="#f59e0b"/><circle cx="187.3" cy="261.4" r="2.5" fill="#f59e0b"/><circle cx="211.5" cy="261.4" r="2.5" fill="#f59e0b"/><circle cx="235.7" cy="261.4" r="2.5" fill="#f59e0b"/><circle cx="259.9" cy="261.4" r="2.5" fill="#f59e0b"/><circle cx="284.2" cy="261.4" r="2.5" fill="#f59e0b"/><circle cx="308.4" cy="261.4" r="2.5" fill="#f59e0b"/><circle cx="332.6" cy="261.4" r="2.5" fill="#f59e0b"/><circle cx="356.8" cy="261.4" r="2.5" fill="#f59e0b"/><circle cx="381.0" cy="261.4" r="2.5" fill="#f59e0b"/><circle cx="405.2" cy="267.5" r="2.5" fill="#f59e0b"/><circle cx="429.5" cy="267.5" r="2.5" fill="#f59e0b"/><circle cx="453.7" cy="261.4" r="2.5" fill="#f59e0b"/><circle cx="477.9" cy="255.2" r="2.5" fill="#f59e0b"/><circle cx="502.1" cy="255.2" r="2.5" fill="#f59e0b"/><circle cx="526.3" cy="249.1" r="2.5" fill="#f59e0b"/><circle cx="550.5" cy="249.1" r="2.5" fill="#f59e0b"/><circle cx="574.8" cy="249.1" r="2.5" fill="#f59e0b"/><circle cx="599.0" cy="249.1" r="2.5" fill="#f59e0b"/><circle cx="623.2" cy="249.1" r="2.5" fill="#f59e0b"/><circle cx="647.4" cy="249.1" r="2.5" fill="#f59e0b"/><circle cx="671.6" cy="249.1" r="2.5" fill="#f59e0b"/><circle cx="695.8" cy="249.1" r="2.5" fill="#f59e0b"/><circle cx="720.1" cy="249.1" r="2.5" fill="#f59e0b"/><circle cx="744.3" cy="255.2" r="2.5" fill="#f59e0b"/><circle cx="768.5" cy="255.2" r="2.5" fill="#f59e0b"/><circle cx="792.7" cy="255.2" r="2.5" fill="#f59e0b"/><circle cx="816.9" cy="255.2" r="2.5" fill="#f59e0b"/><circle cx="841.1" cy="261.4" r="2.5" fill="#f59e0b"/><circle cx="865.4" cy="261.4" r="2.5" fill="#f59e0b"/><circle cx="889.6" cy="261.4" r="2.5" fill="#f59e0b"/><circle cx="913.8" cy="261.4" r="2.5" fill="#f59e0b"/><circle cx="938.0" cy="261.4" r="2.5" fill="#f59e0b"/><polyline fill="none" stroke="#ef4444" stroke-width="2.5" stroke-linejoin="round" stroke-linecap="round" points="42.0,286.0 66.2,132.1 90.4,286.0 114.6,286.0 138.9,286.0 163.1,286.0 187.3,286.0 211.5,286.0 235.7,286.0 259.9,286.0 284.2,286.0 308.4,286.0 332.6,286.0 356.8,286.0 381.0,286.0 405.2,286.0 429.5,286.0 453.7,279.8 477.9,286.0 502.1,286.0 526.3,286.0 550.5,286.0 574.8,286.0 599.0,286.0 623.2,286.0 647.4,286.0 671.6,286.0 695.8,286.0 720.1,286.0 744.3,286.0 768.5,286.0 792.7,286.0 816.9,286.0 841.1,286.0 865.4,286.0 889.6,286.0 913.8,286.0 938.0,286.0"/><circle cx="42.0" cy="286.0" r="2.5" fill="#ef4444"/><circle cx="66.2" cy="132.1" r="2.5" fill="#ef4444"/><circle cx="90.4" cy="286.0" r="2.5" fill="#ef4444"/><circle cx="114.6" cy="286.0" r="2.5" fill="#ef4444"/><circle cx="138.9" cy="286.0" r="2.5" fill="#ef4444"/><circle cx="163.1" cy="286.0" r="2.5" fill="#ef4444"/><circle cx="187.3" cy="286.0" r="2.5" fill="#ef4444"/><circle cx="211.5" cy="286.0" r="2.5" fill="#ef4444"/><circle cx="235.7" cy="286.0" r="2.5" fill="#ef4444"/><circle cx="259.9" cy="286.0" r="2.5" fill="#ef4444"/><circle cx="284.2" cy="286.0" r="2.5" fill="#ef4444"/><circle cx="308.4" cy="286.0" r="2.5" fill="#ef4444"/><circle cx="332.6" cy="286.0" r="2.5" fill="#ef4444"/><circle cx="356.8" cy="286.0" r="2.5" fill="#ef4444"/><circle cx="381.0" cy="286.0" r="2.5" fill="#ef4444"/><circle cx="405.2" cy="286.0" r="2.5" fill="#ef4444"/><circle cx="429.5" cy="286.0" r="2.5" fill="#ef4444"/><circle cx="453.7" cy="279.8" r="2.5" fill="#ef4444"/><circle cx="477.9" cy="286.0" r="2.5" fill="#ef4444"/><circle cx="502.1" cy="286.0" r="2.5" fill="#ef4444"/><circle cx="526.3" cy="286.0" r="2.5" fill="#ef4444"/><circle cx="550.5" cy="286.0" r="2.5" fill="#ef4444"/><circle cx="574.8" cy="286.0" r="2.5" fill="#ef4444"/><circle cx="599.0" cy="286.0" r="2.5" fill="#ef4444"/><circle cx="623.2" cy="286.0" r="2.5" fill="#ef4444"/><circle cx="647.4" cy="286.0" r="2.5" fill="#ef4444"/><circle cx="671.6" cy="286.0" r="2.5" fill="#ef4444"/><circle cx="695.8" cy="286.0" r="2.5" fill="#ef4444"/><circle cx="720.1" cy="286.0" r="2.5" fill="#ef4444"/><circle cx="744.3" cy="286.0" r="2.5" fill="#ef4444"/><circle cx="768.5" cy="286.0" r="2.5" fill="#ef4444"/><circle cx="792.7" cy="286.0" r="2.5" fill="#ef4444"/><circle cx="816.9" cy="286.0" r="2.5" fill="#ef4444"/><circle cx="841.1" cy="286.0" r="2.5" fill="#ef4444"/><circle cx="865.4" cy="286.0" r="2.5" fill="#ef4444"/><circle cx="889.6" cy="286.0" r="2.5" fill="#ef4444"/><circle cx="913.8" cy="286.0" r="2.5" fill="#ef4444"/><circle cx="938.0" cy="286.0" r="2.5" fill="#ef4444"/><text x="42" y="308" font-size="11" fill="#9fb0d4">19/06 15:39</text><text x="938" y="308" text-anchor="end" font-size="11" fill="#9fb0d4">18/07 03:29</text></svg>