<svg xmlns="http://www.w3.org/2000/svg" viewBox="0 0 960 320" width="960" height="320" font-family="Segoe UI, system-ui, -apple-system, Roboto, Helvetica, Arial, sans-serif" role="img" aria-label="Availability history per region"><rect x="0.5" y="0.5" width="959" height="319" rx="14" fill="#0d1117" stroke="#2c3a5e"/><text x="42" y="26" font-size="14" font-weight="600" fill="#e6ecff">History · 315 points</text><circle cx="47" cy="40" r="5" fill="#22c55e"/><text x="57" y="44" font-size="12" fill="#9fb0d4">Available</text><circle cx="139.8" cy="40" r="5" fill="#f59e0b"/><text x="149.8" y="44" font-size="12" fill="#9fb0d4">Saturated</text><circle cx="232.60000000000002" cy="40" r="5" fill="#ef4444"/><text x="242.60000000000002" y="44" font-size="12" fill="#9fb0d4">Error</text><circle cx="296.6" cy="40" r="5" fill="#a855f7"/><text x="306.6" y="44" font-size="12" fill="#9fb0d4">Timeout</text><line x1="42" y1="286.0" x2="938" y2="286.0" stroke="#21304f" stroke-width="1"/><text x="35" y="289.0" text-anchor="end" font-size="11" fill="#9fb0d4">0</text><line x1="42" y1="227.5" x2="938" y2="227.5" stroke="#21304f" stroke-width="1"/><text x="35" y="230.5" text-anchor="end" font-size="11" fill="#9fb0d4">10</text><line x1="42" y1="169.0" x2="938" y2="169.0" stroke="#21304f" stroke-width="1"/><text x="35" y="172.0" text-anchor="end" font-size="11" fill="#9fb0d4">20</text><line x1="42" y1="110.5" x2="938" y2="110.5" stroke="#21304f" stroke-width="1"/><text x="35" y="113.5" text-anchor="end" font-size="11" fill="#9fb0d4">29</text><line x1="42" y1="52.0" x2="938" y2="52.0" stroke="#21304f" stroke-width="1"/><text x="35" y="55.0" text-anchor="end" font-size="11" fill="#9fb0d4">39</text><polyline fill="none" stroke="#22c55e" stroke-width="2.5" stroke-linejoin="round" stroke-linecap="round" points="42.0,70.0 44.9,70.0 47.7,88.0 50.6,88.0 53.4,76.0 56.3,76.0 59.1,76.0 62.0,70.0 64.8,76.0 67.7,70.0 70.5,64.0 73.4,58.0 76.2,58.0 79.1,58.0 81.9,58.0 84.8,58.0 87.7,58.0 90.5,58.0 93.4,58.0 96.2,58.0 99.1,58.0 101.9,58.0 104.8,58.0 107.6,58.0 110.5,58.0 113.3,58.0 116.2,58.0 119.0,58.0 121.9,58.0 124.8,58.0 127.6,58.0 130.5,70.0 133.3,76.0 136.2,94.0 139.0,64.0 141.9,64.0 144.7,58.0 147.6,58.0 150.4,58.0 153.3,70.0 156.1,76.0 159.0,76.0 161.8,82.0 164.7,82.0 167.6,82.0 170.4,82.0 173.3,76.0 176.1,64.0 179.0,70.0 181.8,70.0 184.7,82.0 187.5,76.0 190.4,76.0 193.2,82.0 196.1,76.0 198.9,76.0 201.8,76.0 204.6,64.0 207.5,64.0 210.4,76.0 213.2,76.0 216.1,76.0 218.9,88.0 221.8,70.0 224.6,64.0 227.5,58.0 230.3,58.0 233.2,70.0 236.0,70.0 238.9,70.0 241.7,76.0 244.6,70.0 247.5,70.0 250.3,70.0 253.2,70.0 256.0,76.0 258.9,82.0 261.7,76.0 264.6,70.0 267.4,70.0 270.3,70.0 273.1,70.0 276.0,76.0 278.8,70.0 281.7,70.0 284.5,70.0 287.4,70.0 290.3,70.0 293.1,70.0 296.0,70.0 298.8,70.0 301.7,70.0 304.5,70.0 307.4,70.0 310.2,70.0 313.1,70.0 315.9,70.0 318.8,70.0 321.6,70.0 324.5,70.0 327.4,70.0 330.2,70.0 333.1,70.0 335.9,70.0 338.8,70.0 341.6,70.0 344.5,70.0 347.3,70.0 350.2,70.0 353.0,70.0 355.9,70.0 358.7,70.0 361.6,70.0 364.4,70.0 367.3,70.0 370.2,70.0 373.0,70.0 375.9,70.0 378.7,70.0 381.6,70.0 384.4,70.0 387.3,70.0 390.1,70.0 393.0,70.0 395.8,70.0 398.7,70.0 401.5,70.0 404.4,70.0 407.2,70.0 410.1,70.0 413.0,70.0 415.8,70.0 418.7,70.0 421.5,70.0 424.4,70.0 427.2,70.0 430.1,70.0 432.9,70.0 435.8,70.0 438.6,70.0 441.5,70.0 444.3,70.0 447.2,70.0 450.1,70.0 452.9,70.0 455.8,70.0 458.6,70.0 461.5,70.0 464.3,70.0 467.2,70.0 470.0,70.0 472.9,76.0 475.7,70.0 478.6,70.0 481.4,70.0 484.3,70.0 487.1,70.0 490.0,76.0 492.9,76.0 495.7,88.0 498.6,88.0 501.4,88.0 504.3,94.0 507.1,94.0 510.0,94.0 512.8,94.0 515.7,88.0 518.5,88.0 521.4,82.0 524.2,82.0 527.1,82.0 529.9,88.0 532.8,88.0 535.7,94.0 538.5,82.0 541.4,82.0 544.2,82.0 547.1,82.0 549.9,88.0 552.8,88.0 555.6,94.0 558.5,94.0 561.3,88.0 564.2,88.0 567.0,88.0 569.9,94.0 572.8,94.0 575.6,106.0 578.5,94.0 581.3,94.0 584.2,94.0 587.0,94.0 589.9,88.0 592.7,88.0 595.6,82.0 598.4,76.0 601.3,76.0 604.1,76.0 607.0,76.0 609.8,76.0 612.7,76.0 615.6,70.0 618.4,70.0 621.3,70.0 624.1,76.0 627.0,88.0 629.8,82.0 632.7,70.0 635.5,70.0 638.4,70.0 641.2,76.0 644.1,76.0 646.9,76.0 649.8,82.0 652.6,70.0 655.5,76.0 658.4,64.0 661.2,70.0 664.1,58.0 666.9,58.0 669.8,58.0 672.6,58.0 675.5,58.0 678.3,64.0 681.2,58.0 684.0,64.0 686.9,58.0 689.7,58.0 692.6,58.0 695.5,58.0 698.3,64.0 701.2,64.0 704.0,64.0 706.9,76.0 709.7,70.0 712.6,82.0 715.4,70.0 718.3,76.0 721.1,58.0 724.0,64.0 726.8,58.0 729.7,64.0 732.5,58.0 735.4,58.0 738.3,58.0 741.1,64.0 744.0,70.0 746.8,64.0 749.7,64.0 752.5,64.0 755.4,70.0 758.2,70.0 761.1,64.0 763.9,70.0 766.8,70.0 769.6,70.0 772.5,58.0 775.4,58.0 778.2,58.0 781.1,58.0 783.9,58.0 786.8,64.0 789.6,58.0 792.5,58.0 795.3,58.0 798.2,58.0 801.0,58.0 803.9,58.0 806.7,58.0 809.6,58.0 812.4,64.0 815.3,58.0 818.2,58.0 821.0,58.0 823.9,58.0 826.7,58.0 829.6,58.0 832.4,58.0 835.3,64.0 838.1,58.0 841.0,58.0 843.8,58.0 846.7,58.0 849.5,58.0 852.4,58.0 855.2,58.0 858.1,58.0 861.0,58.0 863.8,58.0 866.7,58.0 869.5,58.0 872.4,58.0 875.2,58.0 878.1,58.0 880.9,58.0 883.8,58.0 886.6,58.0 889.5,58.0 892.3,64.0 895.2,64.0 898.1,58.0 900.9,58.0 903.8,58.0 906.6,64.0 909.5,64.0 912.3,76.0 915.2,64.0 918.0,64.0 920.9,70.0 923.7,58.0 926.6,58.0 929.4,58.0 932.3,58.0 935.1,58.0 938.0,58.0"/><polyline fill="none" stroke="#f59e0b" stroke-width="2.5" stroke-linejoin="round" stroke-linecap="round" points="42.0,274.0 44.9,274.0 47.7,274.0 50.6,280.0 53.4,268.0 56.3,268.0 59.1,268.0 62.0,274.0 64.8,274.0 67.7,274.0 70.5,280.0 73.4,286.0 76.2,286.0 79.1,286.0 81.9,286.0 84.8,286.0 87.7,286.0 90.5,286.0 93.4,286.0 96.2,286.0 99.1,286.0 101.9,286.0 104.8,286.0 107.6,286.0 110.5,286.0 113.3,286.0 116.2,286.0 119.0,286.0 121.9,286.0 124.8,286.0 127.6,286.0 130.5,274.0 133.3,280.0 136.2,280.0 139.0,280.0 141.9,280.0 144.7,286.0 147.6,286.0 150.4,286.0 153.3,274.0 156.1,268.0 159.0,268.0 161.8,262.0 164.7,262.0 167.6,262.0 170.4,262.0 173.3,268.0 176.1,280.0 179.0,280.0 181.8,274.0 184.7,262.0 187.5,268.0 190.4,268.0 193.2,262.0 196.1,268.0 198.9,268.0 201.8,268.0 204.6,280.0 207.5,280.0 210.4,268.0 213.2,268.0 216.1,268.0 218.9,262.0 221.8,274.0 224.6,280.0 227.5,286.0 230.3,286.0 233.2,274.0 236.0,274.0 238.9,274.0 241.7,274.0 244.6,274.0 247.5,274.0 250.3,274.0 253.2,274.0 256.0,280.0 258.9,274.0 261.7,280.0 264.6,286.0 267.4,286.0 270.3,286.0 273.1,286.0 276.0,280.0 278.8,286.0 281.7,286.0 284.5,286.0 287.4,286.0 290.3,286.0 293.1,286.0 296.0,286.0 298.8,286.0 301.7,286.0 304.5,286.0 307.4,286.0 310.2,286.0 313.1,286.0 315.9,286.0 318.8,286.0 321.6,286.0 324.5,286.0 327.4,286.0 330.2,286.0 333.1,286.0 335.9,286.0 338.8,286.0 341.6,286.0 344.5,286.0 347.3,286.0 350.2,286.0 353.0,286.0 355.9,286.0 358.7,286.0 361.6,286.0 364.4,286.0 367.3,286.0 370.2,286.0 373.0,286.0 375.9,286.0 378.7,286.0 381.6,286.0 384.4,286.0 387.3,286.0 390.1,286.0 393.0,286.0 395.8,286.0 398.7,286.0 401.5,286.0 404.4,286.0 407.2,286.0 410.1,286.0 413.0,286.0 415.8,286.0 418.7,286.0 421.5,286.0 424.4,286.0 427.2,286.0 430.1,286.0 432.9,286.0 435.8,286.0 438.6,286.0 441.5,286.0 444.3,286.0 447.2,286.0 450.1,286.0 452.9,286.0 455.8,286.0 458.6,286.0 461.5,286.0 464.3,286.0 467.2,286.0 470.0,286.0 472.9,286.0 475.7,286.0 478.6,286.0 481.4,286.0 484.3,286.0 487.1,286.0 490.0,286.0 492.9,280.0 495.7,268.0 498.6,268.0 501.4,268.0 504.3,268.0 507.1,262.0 510.0,262.0 512.8,262.0 515.7,268.0 518.5,268.0 521.4,274.0 524.2,274.0 527.1,274.0 529.9,268.0 532.8,268.0 535.7,268.0 538.5,274.0 541.4,274.0 544.2,274.0 547.1,274.0 549.9,268.0 552.8,268.0 555.6,262.0 558.5,262.0 561.3,268.0 564.2,268.0 567.0,268.0 569.9,262.0 572.8,262.0 575.6,274.0 578.5,262.0 581.3,262.0 584.2,262.0 587.0,262.0 589.9,268.0 592.7,268.0 595.6,274.0 598.4,280.0 601.3,280.0 604.1,280.0 607.0,280.0 609.8,280.0 612.7,280.0 615.6,286.0 618.4,286.0 621.3,286.0 624.1,280.0 627.0,274.0 629.8,274.0 632.7,280.0 635.5,274.0 638.4,274.0 641.2,268.0 644.1,268.0 646.9,268.0 649.8,268.0 652.6,280.0 655.5,274.0 658.4,280.0 661.2,280.0 664.1,286.0 666.9,286.0 669.8,286.0 672.6,286.0 675.5,286.0 678.3,286.0 681.2,286.0 684.0,286.0 686.9,286.0 689.7,286.0 692.6,286.0 695.5,286.0 698.3,280.0 701.2,280.0 704.0,280.0 706.9,268.0 709.7,280.0 712.6,268.0 715.4,274.0 718.3,274.0 721.1,286.0 724.0,280.0 726.8,286.0 729.7,280.0 732.5,286.0 735.4,286.0 738.3,286.0 741.1,280.0 744.0,274.0 746.8,280.0 749.7,280.0 752.5,280.0 755.4,274.0 758.2,274.0 761.1,280.0 763.9,280.0 766.8,280.0 769.6,280.0 772.5,286.0 775.4,286.0 778.2,286.0 781.1,286.0 783.9,286.0 786.8,286.0 789.6,286.0 792.5,286.0 795.3,286.0 798.2,286.0 801.0,286.0 803.9,286.0 806.7,286.0 809.6,286.0 812.4,286.0 815.3,286.0 818.2,286.0 821.0,286.0 823.9,286.0 826.7,286.0 829.6,286.0 832.4,286.0 835.3,286.0 838.1,286.0 841.0,286.0 843.8,286.0 846.7,286.0 849.5,286.0 852.4,286.0 855.2,286.0 858.1,286.0 861.0,286.0 863.8,286.0 866.7,286.0 869.5,286.0 872.4,286.0 875.2,286.0 878.1,286.0 880.9,286.0 883.8,286.0 886.6,286.0 889.5,286.0 892.3,286.0 895.2,286.0 898.1,286.0 900.9,286.0 903.8,286.0 906.6,280.0 909.5,280.0 912.3,280.0 915.2,280.0 918.0,280.0 920.9,274.0 923.7,286.0 926.6,286.0 929.4,286.0 932.3,286.0 935.1,286.0 938.0,286.0"/><polyline fill="none" stroke="#ef4444" stroke-width="2.5" stroke-linejoin="round" stroke-linecap="round" points="42.0,280.0 44.9,280.0 47.7,268.0 50.6,262.0 53.4,286.0 56.3,286.0 59.1,286.0 62.0,286.0 64.8,280.0 67.7,286.0 70.5,286.0 73.4,286.0 76.2,286.0 79.1,286.0 81.9,286.0 84.8,286.0 87.7,286.0 90.5,286.0 93.4,286.0 96.2,286.0 99.1,286.0 101.9,286.0 104.8,286.0 107.6,286.0 110.5,286.0 113.3,286.0 116.2,286.0 119.0,286.0 121.9,286.0 124.8,286.0 127.6,286.0 130.5,286.0 133.3,274.0 136.2,256.0 139.0,286.0 141.9,286.0 144.7,286.0 147.6,286.0 150.4,286.0 153.3,286.0 156.1,286.0 159.0,286.0 161.8,286.0 164.7,286.0 167.6,286.0 170.4,286.0 173.3,286.0 176.1,286.0 179.0,280.0 181.8,286.0 184.7,286.0 187.5,286.0 190.4,286.0 193.2,286.0 196.1,286.0 198.9,286.0 201.8,286.0 204.6,286.0 207.5,286.0 210.4,286.0 213.2,286.0 216.1,286.0 218.9,280.0 221.8,286.0 224.6,286.0 227.5,286.0 230.3,286.0 233.2,286.0 236.0,286.0 238.9,286.0 241.7,286.0 244.6,286.0 247.5,286.0 250.3,286.0 253.2,286.0 256.0,274.0 258.9,274.0 261.7,274.0 264.6,274.0 267.4,274.0 270.3,274.0 273.1,274.0 276.0,274.0 278.8,274.0 281.7,274.0 284.5,274.0 287.4,274.0 290.3,274.0 293.1,274.0 296.0,274.0 298.8,274.0 301.7,274.0 304.5,274.0 307.4,274.0 310.2,274.0 313.1,274.0 315.9,274.0 318.8,274.0 321.6,274.0 324.5,274.0 327.4,274.0 330.2,274.0 333.1,274.0 335.9,274.0 338.8,274.0 341.6,274.0 344.5,274.0 347.3,274.0 350.2,274.0 353.0,274.0 355.9,274.0 358.7,274.0 361.6,274.0 364.4,274.0 367.3,274.0 370.2,274.0 373.0,274.0 375.9,274.0 378.7,274.0 381.6,274.0 384.4,274.0 387.3,274.0 390.1,274.0 393.0,274.0 395.8,274.0 398.7,274.0 401.5,274.0 404.4,274.0 407.2,274.0 410.1,274.0 413.0,274.0 415.8,274.0 418.7,274.0 421.5,274.0 424.4,274.0 427.2,274.0 430.1,274.0 432.9,274.0 435.8,274.0 438.6,274.0 441.5,274.0 444.3,274.0 447.2,274.0 450.1,274.0 452.9,274.0 455.8,274.0 458.6,274.0 461.5,274.0 464.3,274.0 467.2,274.0 470.0,274.0 472.9,268.0 475.7,274.0 478.6,274.0 481.4,274.0 484.3,274.0 487.1,274.0 490.0,274.0 492.9,274.0 495.7,274.0 498.6,274.0 501.4,274.0 504.3,268.0 507.1,274.0 510.0,274.0 512.8,274.0 515.7,274.0 518.5,274.0 521.4,274.0 524.2,274.0 527.1,274.0 529.9,274.0 532.8,274.0 535.7,268.0 538.5,274.0 541.4,274.0 544.2,274.0 547.1,274.0 549.9,274.0 552.8,274.0 555.6,274.0 558.5,274.0 561.3,274.0 564.2,274.0 567.0,274.0 569.9,274.0 572.8,274.0 575.6,250.0 578.5,274.0 581.3,274.0 584.2,274.0 587.0,274.0 589.9,274.0 592.7,274.0 595.6,274.0 598.4,274.0 601.3,274.0 604.1,274.0 607.0,274.0 609.8,274.0 612.7,274.0 615.6,274.0 618.4,274.0 621.3,274.0 624.1,274.0 627.0,268.0 629.8,274.0 632.7,280.0 635.5,286.0 638.4,286.0 641.2,286.0 644.1,286.0 646.9,286.0 649.8,280.0 652.6,280.0 655.5,286.0 658.4,286.0 661.2,280.0 664.1,286.0 666.9,286.0 669.8,286.0 672.6,286.0 675.5,286.0 678.3,280.0 681.2,286.0 684.0,286.0 686.9,286.0 689.7,286.0 692.6,286.0 695.5,286.0 698.3,286.0 701.2,286.0 704.0,286.0 706.9,286.0 709.7,280.0 712.6,280.0 715.4,286.0 718.3,280.0 721.1,286.0 724.0,286.0 726.8,286.0 729.7,286.0 732.5,286.0 735.4,286.0 738.3,286.0 741.1,286.0 744.0,286.0 746.8,286.0 749.7,286.0 752.5,286.0 755.4,286.0 758.2,286.0 761.1,286.0 763.9,280.0 766.8,286.0 769.6,280.0 772.5,286.0 775.4,286.0 778.2,286.0 781.1,286.0 783.9,286.0 786.8,286.0 789.6,286.0 792.5,286.0 795.3,286.0 798.2,286.0 801.0,286.0 803.9,286.0 806.7,286.0 809.6,286.0 812.4,280.0 815.3,286.0 818.2,286.0 821.0,286.0 823.9,286.0 826.7,286.0 829.6,286.0 832.4,286.0 835.3,286.0 838.1,286.0 841.0,286.0 843.8,286.0 846.7,286.0 849.5,286.0 852.4,286.0 855.2,286.0 858.1,286.0 861.0,286.0 863.8,286.0 866.7,286.0 869.5,286.0 872.4,286.0 875.2,286.0 878.1,286.0 880.9,286.0 883.8,286.0 886.6,286.0 889.5,286.0 892.3,280.0 895.2,280.0 898.1,286.0 900.9,286.0 903.8,286.0 906.6,286.0 909.5,286.0 912.3,274.0 915.2,286.0 918.0,286.0 920.9,286.0 923.7,286.0 926.6,286.0 929.4,286.0 932.3,286.0 935.1,286.0 938.0,286.0"/><polyline fill="none" stroke="#a855f7" stroke-width="2.5" stroke-linejoin="round" stroke-linecap="round" points="42.0,286.0 44.9,286.0 47.7,286.0 50.6,286.0 53.4,286.0 56.3,286.0 59.1,286.0 62.0,286.0 64.8,286.0 67.7,286.0 70.5,286.0 73.4,286.0 76.2,286.0 79.1,286.0 81.9,286.0 84.8,286.0 87.7,286.0 90.5,286.0 93.4,286.0 96.2,286.0 99.1,286.0 101.9,286.0 104.8,286.0 107.6,286.0 110.5,286.0 113.3,286.0 116.2,286.0 119.0,286.0 121.9,286.0 124.8,286.0 127.6,286.0 130.5,286.0 133.3,286.0 136.2,286.0 139.0,286.0 141.9,286.0 144.7,286.0 147.6,286.0 150.4,286.0 153.3,286.0 156.1,286.0 159.0,286.0 161.8,286.0 164.7,286.0 167.6,286.0 170.4,286.0 173.3,286.0 176.1,286.0 179.0,286.0 181.8,286.0 184.7,286.0 187.5,286.0 190.4,286.0 193.2,286.0 196.1,286.0 198.9,286.0 201.8,286.0 204.6,286.0 207.5,286.0 210.4,286.0 213.2,286.0 216.1,286.0 218.9,286.0 221.8,286.0 224.6,286.0 227.5,286.0 230.3,286.0 233.2,286.0 236.0,286.0 238.9,286.0 241.7,280.0 244.6,286.0 247.5,286.0 250.3,286.0 253.2,286.0 256.0,286.0 258.9,286.0 261.7,286.0 264.6,286.0 267.4,286.0 270.3,286.0 273.1,286.0 276.0,286.0 278.8,286.0 281.7,286.0 284.5,286.0 287.4,286.0 290.3,286.0 293.1,286.0 296.0,286.0 298.8,286.0 301.7,286.0 304.5,286.0 307.4,286.0 310.2,286.0 313.1,286.0 315.9,286.0 318.8,286.0 321.6,286.0 324.5,286.0 327.4,286.0 330.2,286.0 333.1,286.0 335.9,286.0 338.8,286.0 341.6,286.0 344.5,286.0 347.3,286.0 350.2,286.0 353.0,286.0 355.9,286.0 358.7,286.0 361.6,286.0 364.4,286.0 367.3,286.0 370.2,286.0 373.0,286.0 375.9,286.0 378.7,286.0 381.6,286.0 384.4,286.0 387.3,286.0 390.1,286.0 393.0,286.0 395.8,286.0 398.7,286.0 401.5,286.0 404.4,286.0 407.2,286.0 410.1,286.0 413.0,286.0 415.8,286.0 418.7,286.0 421.5,286.0 424.4,286.0 427.2,286.0 430.1,286.0 432.9,286.0 435.8,286.0 438.6,286.0 441.5,286.0 444.3,286.0 447.2,286.0 450.1,286.0 452.9,286.0 455.8,286.0 458.6,286.0 461.5,286.0 464.3,286.0 467.2,286.0 470.0,286.0 472.9,286.0 475.7,286.0 478.6,286.0 481.4,286.0 484.3,286.0 487.1,286.0 490.0,280.0 492.9,286.0 495.7,286.0 498.6,286.0 501.4,286.0 504.3,286.0 507.1,286.0 510.0,286.0 512.8,286.0 515.7,286.0 518.5,286.0 521.4,286.0 524.2,286.0 527.1,286.0 529.9,286.0 532.8,286.0 535.7,286.0 538.5,286.0 541.4,286.0 544.2,286.0 547.1,286.0 549.9,286.0 552.8,286.0 555.6,286.0 558.5,286.0 561.3,286.0 564.2,286.0 567.0,286.0 569.9,286.0 572.8,286.0 575.6,286.0 578.5,286.0 581.3,286.0 584.2,286.0 587.0,286.0 589.9,286.0 592.7,286.0 595.6,286.0 598.4,286.0 601.3,286.0 604.1,286.0 607.0,286.0 609.8,286.0 612.7,286.0 615.6,286.0 618.4,286.0 621.3,286.0 624.1,286.0 627.0,286.0 629.8,286.0 632.7,286.0 635.5,286.0 638.4,286.0 641.2,286.0 644.1,286.0 646.9,286.0 649.8,286.0 652.6,286.0 655.5,280.0 658.4,286.0 661.2,286.0 664.1,286.0 666.9,286.0 669.8,286.0 672.6,286.0 675.5,286.0 678.3,286.0 681.2,286.0 684.0,280.0 686.9,286.0 689.7,286.0 692.6,286.0 695.5,286.0 698.3,286.0 701.2,286.0 704.0,286.0 706.9,286.0 709.7,286.0 712.6,286.0 715.4,286.0 718.3,286.0 721.1,286.0 724.0,286.0 726.8,286.0 729.7,286.0 732.5,286.0 735.4,286.0 738.3,286.0 741.1,286.0 744.0,286.0 746.8,286.0 749.7,286.0 752.5,286.0 755.4,286.0 758.2,286.0 761.1,286.0 763.9,286.0 766.8,280.0 769.6,286.0 772.5,286.0 775.4,286.0 778.2,286.0 781.1,286.0 783.9,286.0 786.8,280.0 789.6,286.0 792.5,286.0 795.3,286.0 798.2,286.0 801.0,286.0 803.9,286.0 806.7,286.0 809.6,286.0 812.4,286.0 815.3,286.0 818.2,286.0 821.0,286.0 823.9,286.0 826.7,286.0 829.6,286.0 832.4,286.0 835.3,280.0 838.1,286.0 841.0,286.0 843.8,286.0 846.7,286.0 849.5,286.0 852.4,286.0 855.2,286.0 858.1,286.0 861.0,286.0 863.8,286.0 866.7,286.0 869.5,286.0 872.4,286.0 875.2,286.0 878.1,286.0 880.9,286.0 883.8,286.0 886.6,286.0 889.5,286.0 892.3,286.0 895.2,286.0 898.1,286.0 900.9,286.0 903.8,286.0 906.6,286.0 909.5,286.0 912.3,286.0 915.2,286.0 918.0,286.0 920.9,286.0 923.7,286.0 926.6,286.0 929.4,286.0 932.3,286.0 935.1,286.0 938.0,286.0"/><text x="42" y="308" font-size="11" fill="#9fb0d4">19/06 12:43</text><text x="938" y="308" text-anchor="end" font-size="11" fill="#9fb0d4">07/07 00:30</text></svg>