<svg xmlns="http://www.w3.org/2000/svg" viewBox="0 0 960 320" width="960" height="320" font-family="Segoe UI, system-ui, -apple-system, Roboto, Helvetica, Arial, sans-serif" role="img" aria-label="Availability history per region"><rect x="0.5" y="0.5" width="959" height="319" rx="14" fill="#ffffff" stroke="#dce3f1"/><text x="42" y="26" font-size="14" font-weight="600" fill="#14203a">History · 45 points</text><circle cx="47" cy="40" r="5" fill="#22c55e"/><text x="57" y="44" font-size="12" fill="#5a688a">Available</text><circle cx="139.8" cy="40" r="5" fill="#f59e0b"/><text x="149.8" y="44" font-size="12" fill="#5a688a">Saturated</text><circle cx="232.60000000000002" cy="40" r="5" fill="#ef4444"/><text x="242.60000000000002" y="44" font-size="12" fill="#5a688a">Error</text><line x1="42" y1="286.0" x2="938" y2="286.0" stroke="#eef2f7" stroke-width="1"/><text x="35" y="289.0" text-anchor="end" font-size="11" fill="#5a688a">0</text><line x1="42" y1="227.5" x2="938" y2="227.5" stroke="#eef2f7" stroke-width="1"/><text x="35" y="230.5" text-anchor="end" font-size="11" fill="#5a688a">10</text><line x1="42" y1="169.0" x2="938" y2="169.0" stroke="#eef2f7" stroke-width="1"/><text x="35" y="172.0" text-anchor="end" font-size="11" fill="#5a688a">19</text><line x1="42" y1="110.5" x2="938" y2="110.5" stroke="#eef2f7" stroke-width="1"/><text x="35" y="113.5" text-anchor="end" font-size="11" fill="#5a688a">28</text><line x1="42" y1="52.0" x2="938" y2="52.0" stroke="#eef2f7" stroke-width="1"/><text x="35" y="55.0" text-anchor="end" font-size="11" fill="#5a688a">38</text><polyline fill="none" stroke="#22c55e" stroke-width="2.5" stroke-linejoin="round" stroke-linecap="round" points="42.0,64.3 62.4,224.4 82.7,82.8 103.1,88.9 123.5,82.8 143.8,76.6 164.2,76.6 184.5,76.6 204.9,76.6 225.3,76.6 245.6,76.6 266.0,76.6 286.4,76.6 306.7,76.6 327.1,76.6 347.5,70.5 367.8,70.5 388.2,82.8 408.5,82.8 428.9,82.8 449.3,88.9 469.6,88.9 490.0,88.9 510.4,88.9 530.7,88.9 551.1,88.9 571.5,88.9 591.8,88.9 612.2,88.9 632.5,82.8 652.9,82.8 673.3,82.8 693.6,82.8 714.0,76.6 734.4,76.6 754.7,76.6 775.1,76.6 795.5,76.6 815.8,82.8 836.2,82.8 856.5,82.8 876.9,82.8 897.3,76.6 917.6,76.6 938.0,76.6"/><circle cx="42.0" cy="64.3" r="2.5" fill="#22c55e"/><circle cx="62.4" cy="224.4" r="2.5" fill="#22c55e"/><circle cx="82.7" cy="82.8" r="2.5" fill="#22c55e"/><circle cx="103.1" cy="88.9" r="2.5" fill="#22c55e"/><circle cx="123.5" cy="82.8" r="2.5" fill="#22c55e"/><circle cx="143.8" cy="76.6" r="2.5" fill="#22c55e"/><circle cx="164.2" cy="76.6" r="2.5" fill="#22c55e"/><circle cx="184.5" cy="76.6" r="2.5" fill="#22c55e"/><circle cx="204.9" cy="76.6" r="2.5" fill="#22c55e"/><circle cx="225.3" cy="76.6" r="2.5" fill="#22c55e"/><circle cx="245.6" cy="76.6" r="2.5" fill="#22c55e"/><circle cx="266.0" cy="76.6" r="2.5" fill="#22c55e"/><circle cx="286.4" cy="76.6" r="2.5" fill="#22c55e"/><circle cx="306.7" cy="76.6" r="2.5" fill="#22c55e"/><circle cx="327.1" cy="76.6" r="2.5" fill="#22c55e"/><circle cx="347.5" cy="70.5" r="2.5" fill="#22c55e"/><circle cx="367.8" cy="70.5" r="2.5" fill="#22c55e"/><circle cx="388.2" cy="82.8" r="2.5" fill="#22c55e"/><circle cx="408.5" cy="82.8" r="2.5" fill="#22c55e"/><circle cx="428.9" cy="82.8" r="2.5" fill="#22c55e"/><circle cx="449.3" cy="88.9" r="2.5" fill="#22c55e"/><circle cx="469.6" cy="88.9" r="2.5" fill="#22c55e"/><circle cx="490.0" cy="88.9" r="2.5" fill="#22c55e"/><circle cx="510.4" cy="88.9" r="2.5" fill="#22c55e"/><circle cx="530.7" cy="88.9" r="2.5" fill="#22c55e"/><circle cx="551.1" cy="88.9" r="2.5" fill="#22c55e"/><circle cx="571.5" cy="88.9" r="2.5" fill="#22c55e"/><circle cx="591.8" cy="88.9" r="2.5" fill="#22c55e"/><circle cx="612.2" cy="88.9" r="2.5" fill="#22c55e"/><circle cx="632.5" cy="82.8" r="2.5" fill="#22c55e"/><circle cx="652.9" cy="82.8" r="2.5" fill="#22c55e"/><circle cx="673.3" cy="82.8" r="2.5" fill="#22c55e"/><circle cx="693.6" cy="82.8" r="2.5" fill="#22c55e"/><circle cx="714.0" cy="76.6" r="2.5" fill="#22c55e"/><circle cx="734.4" cy="76.6" r="2.5" fill="#22c55e"/><circle cx="754.7" cy="76.6" r="2.5" fill="#22c55e"/><circle cx="775.1" cy="76.6" r="2.5" fill="#22c55e"/><circle cx="795.5" cy="76.6" r="2.5" fill="#22c55e"/><circle cx="815.8" cy="82.8" r="2.5" fill="#22c55e"/><circle cx="836.2" cy="82.8" r="2.5" fill="#22c55e"/><circle cx="856.5" cy="82.8" r="2.5" fill="#22c55e"/><circle cx="876.9" cy="82.8" r="2.5" fill="#22c55e"/><circle cx="897.3" cy="76.6" r="2.5" fill="#22c55e"/><circle cx="917.6" cy="76.6" r="2.5" fill="#22c55e"/><circle cx="938.0" cy="76.6" r="2.5" fill="#22c55e"/><polyline fill="none" stroke="#f59e0b" stroke-width="2.5" stroke-linejoin="round" stroke-linecap="round" points="42.0,273.7 62.4,267.5 82.7,255.2 103.1,249.1 123.5,255.2 143.8,261.4 164.2,261.4 184.5,261.4 204.9,261.4 225.3,261.4 245.6,261.4 266.0,261.4 286.4,261.4 306.7,261.4 327.1,261.4 347.5,267.5 367.8,267.5 388.2,261.4 408.5,255.2 428.9,255.2 449.3,249.1 469.6,249.1 490.0,249.1 510.4,249.1 530.7,249.1 551.1,249.1 571.5,249.1 591.8,249.1 612.2,249.1 632.5,255.2 652.9,255.2 673.3,255.2 693.6,255.2 714.0,261.4 734.4,261.4 754.7,261.4 775.1,261.4 795.5,261.4 815.8,255.2 836.2,255.2 856.5,255.2 876.9,255.2 897.3,261.4 917.6,261.4 938.0,261.4"/><circle cx="42.0" cy="273.7" r="2.5" fill="#f59e0b"/><circle cx="62.4" cy="267.5" r="2.5" fill="#f59e0b"/><circle cx="82.7" cy="255.2" r="2.5" fill="#f59e0b"/><circle cx="103.1" cy="249.1" r="2.5" fill="#f59e0b"/><circle cx="123.5" cy="255.2" r="2.5" fill="#f59e0b"/><circle cx="143.8" cy="261.4" r="2.5" fill="#f59e0b"/><circle cx="164.2" cy="261.4" r="2.5" fill="#f59e0b"/><circle cx="184.5" cy="261.4" r="2.5" fill="#f59e0b"/><circle cx="204.9" cy="261.4" r="2.5" fill="#f59e0b"/><circle cx="225.3" cy="261.4" r="2.5" fill="#f59e0b"/><circle cx="245.6" cy="261.4" r="2.5" fill="#f59e0b"/><circle cx="266.0" cy="261.4" r="2.5" fill="#f59e0b"/><circle cx="286.4" cy="261.4" r="2.5" fill="#f59e0b"/><circle cx="306.7" cy="261.4" r="2.5" fill="#f59e0b"/><circle cx="327.1" cy="261.4" r="2.5" fill="#f59e0b"/><circle cx="347.5" cy="267.5" r="2.5" fill="#f59e0b"/><circle cx="367.8" cy="267.5" r="2.5" fill="#f59e0b"/><circle cx="388.2" cy="261.4" r="2.5" fill="#f59e0b"/><circle cx="408.5" cy="255.2" r="2.5" fill="#f59e0b"/><circle cx="428.9" cy="255.2" r="2.5" fill="#f59e0b"/><circle cx="449.3" cy="249.1" r="2.5" fill="#f59e0b"/><circle cx="469.6" cy="249.1" r="2.5" fill="#f59e0b"/><circle cx="490.0" cy="249.1" r="2.5" fill="#f59e0b"/><circle cx="510.4" cy="249.1" r="2.5" fill="#f59e0b"/><circle cx="530.7" cy="249.1" r="2.5" fill="#f59e0b"/><circle cx="551.1" cy="249.1" r="2.5" fill="#f59e0b"/><circle cx="571.5" cy="249.1" r="2.5" fill="#f59e0b"/><circle cx="591.8" cy="249.1" r="2.5" fill="#f59e0b"/><circle cx="612.2" cy="249.1" r="2.5" fill="#f59e0b"/><circle cx="632.5" cy="255.2" r="2.5" fill="#f59e0b"/><circle cx="652.9" cy="255.2" r="2.5" fill="#f59e0b"/><circle cx="673.3" cy="255.2" r="2.5" fill="#f59e0b"/><circle cx="693.6" cy="255.2" r="2.5" fill="#f59e0b"/><circle cx="714.0" cy="261.4" r="2.5" fill="#f59e0b"/><circle cx="734.4" cy="261.4" r="2.5" fill="#f59e0b"/><circle cx="754.7" cy="261.4" r="2.5" fill="#f59e0b"/><circle cx="775.1" cy="261.4" r="2.5" fill="#f59e0b"/><circle cx="795.5" cy="261.4" r="2.5" fill="#f59e0b"/><circle cx="815.8" cy="255.2" r="2.5" fill="#f59e0b"/><circle cx="836.2" cy="255.2" r="2.5" fill="#f59e0b"/><circle cx="856.5" cy="255.2" r="2.5" fill="#f59e0b"/><circle cx="876.9" cy="255.2" r="2.5" fill="#f59e0b"/><circle cx="897.3" cy="261.4" r="2.5" fill="#f59e0b"/><circle cx="917.6" cy="261.4" r="2.5" fill="#f59e0b"/><circle cx="938.0" cy="261.4" r="2.5" fill="#f59e0b"/><polyline fill="none" stroke="#ef4444" stroke-width="2.5" stroke-linejoin="round" stroke-linecap="round" points="42.0,286.0 62.4,132.1 82.7,286.0 103.1,286.0 123.5,286.0 143.8,286.0 164.2,286.0 184.5,286.0 204.9,286.0 225.3,286.0 245.6,286.0 266.0,286.0 286.4,286.0 306.7,286.0 327.1,286.0 347.5,286.0 367.8,286.0 388.2,279.8 408.5,286.0 428.9,286.0 449.3,286.0 469.6,286.0 490.0,286.0 510.4,286.0 530.7,286.0 551.1,286.0 571.5,286.0 591.8,286.0 612.2,286.0 632.5,286.0 652.9,286.0 673.3,286.0 693.6,286.0 714.0,286.0 734.4,286.0 754.7,286.0 775.1,286.0 795.5,286.0 815.8,286.0 836.2,286.0 856.5,286.0 876.9,286.0 897.3,286.0 917.6,286.0 938.0,286.0"/><circle cx="42.0" cy="286.0" r="2.5" fill="#ef4444"/><circle cx="62.4" cy="132.1" r="2.5" fill="#ef4444"/><circle cx="82.7" cy="286.0" r="2.5" fill="#ef4444"/><circle cx="103.1" cy="286.0" r="2.5" fill="#ef4444"/><circle cx="123.5" cy="286.0" r="2.5" fill="#ef4444"/><circle cx="143.8" cy="286.0" r="2.5" fill="#ef4444"/><circle cx="164.2" cy="286.0" r="2.5" fill="#ef4444"/><circle cx="184.5" cy="286.0" r="2.5" fill="#ef4444"/><circle cx="204.9" cy="286.0" r="2.5" fill="#ef4444"/><circle cx="225.3" cy="286.0" r="2.5" fill="#ef4444"/><circle cx="245.6" cy="286.0" r="2.5" fill="#ef4444"/><circle cx="266.0" cy="286.0" r="2.5" fill="#ef4444"/><circle cx="286.4" cy="286.0" r="2.5" fill="#ef4444"/><circle cx="306.7" cy="286.0" r="2.5" fill="#ef4444"/><circle cx="327.1" cy="286.0" r="2.5" fill="#ef4444"/><circle cx="347.5" cy="286.0" r="2.5" fill="#ef4444"/><circle cx="367.8" cy="286.0" r="2.5" fill="#ef4444"/><circle cx="388.2" cy="279.8" r="2.5" fill="#ef4444"/><circle cx="408.5" cy="286.0" r="2.5" fill="#ef4444"/><circle cx="428.9" cy="286.0" r="2.5" fill="#ef4444"/><circle cx="449.3" cy="286.0" r="2.5" fill="#ef4444"/><circle cx="469.6" cy="286.0" r="2.5" fill="#ef4444"/><circle cx="490.0" cy="286.0" r="2.5" fill="#ef4444"/><circle cx="510.4" cy="286.0" r="2.5" fill="#ef4444"/><circle cx="530.7" cy="286.0" r="2.5" fill="#ef4444"/><circle cx="551.1" cy="286.0" r="2.5" fill="#ef4444"/><circle cx="571.5" cy="286.0" r="2.5" fill="#ef4444"/><circle cx="591.8" cy="286.0" r="2.5" fill="#ef4444"/><circle cx="612.2" cy="286.0" r="2.5" fill="#ef4444"/><circle cx="632.5" cy="286.0" r="2.5" fill="#ef4444"/><circle cx="652.9" cy="286.0" r="2.5" fill="#ef4444"/><circle cx="673.3" cy="286.0" r="2.5" fill="#ef4444"/><circle cx="693.6" cy="286.0" r="2.5" fill="#ef4444"/><circle cx="714.0" cy="286.0" r="2.5" fill="#ef4444"/><circle cx="734.4" cy="286.0" r="2.5" fill="#ef4444"/><circle cx="754.7" cy="286.0" r="2.5" fill="#ef4444"/><circle cx="775.1" cy="286.0" r="2.5" fill="#ef4444"/><circle cx="795.5" cy="286.0" r="2.5" fill="#ef4444"/><circle cx="815.8" cy="286.0" r="2.5" fill="#ef4444"/><circle cx="836.2" cy="286.0" r="2.5" fill="#ef4444"/><circle cx="856.5" cy="286.0" r="2.5" fill="#ef4444"/><circle cx="876.9" cy="286.0" r="2.5" fill="#ef4444"/><circle cx="897.3" cy="286.0" r="2.5" fill="#ef4444"/><circle cx="917.6" cy="286.0" r="2.5" fill="#ef4444"/><circle cx="938.0" cy="286.0" r="2.5" fill="#ef4444"/><text x="42" y="308" font-size="11" fill="#5a688a">19/06 15:39</text><text x="938" y="308" text-anchor="end" font-size="11" fill="#5a688a">18/07 10:33</text></svg>