<svg xmlns="http://www.w3.org/2000/svg" viewBox="0 0 960 320" width="960" height="320" font-family="Segoe UI, system-ui, -apple-system, Roboto, Helvetica, Arial, sans-serif" role="img" aria-label="Availability history per region"><rect x="0.5" y="0.5" width="959" height="319" rx="14" fill="#0d1117" stroke="#2c3a5e"/><text x="42" y="26" font-size="14" font-weight="600" fill="#e6ecff">History · 35 points</text><circle cx="47" cy="40" r="5" fill="#22c55e"/><text x="57" y="44" font-size="12" fill="#9fb0d4">Available</text><circle cx="139.8" cy="40" r="5" fill="#f59e0b"/><text x="149.8" y="44" font-size="12" fill="#9fb0d4">Saturated</text><circle cx="232.60000000000002" cy="40" r="5" fill="#ef4444"/><text x="242.60000000000002" y="44" font-size="12" fill="#9fb0d4">Error</text><line x1="42" y1="286.0" x2="938" y2="286.0" stroke="#21304f" stroke-width="1"/><text x="35" y="289.0" text-anchor="end" font-size="11" fill="#9fb0d4">0</text><line x1="42" y1="227.5" x2="938" y2="227.5" stroke="#21304f" stroke-width="1"/><text x="35" y="230.5" text-anchor="end" font-size="11" fill="#9fb0d4">10</text><line x1="42" y1="169.0" x2="938" y2="169.0" stroke="#21304f" stroke-width="1"/><text x="35" y="172.0" text-anchor="end" font-size="11" fill="#9fb0d4">19</text><line x1="42" y1="110.5" x2="938" y2="110.5" stroke="#21304f" stroke-width="1"/><text x="35" y="113.5" text-anchor="end" font-size="11" fill="#9fb0d4">28</text><line x1="42" y1="52.0" x2="938" y2="52.0" stroke="#21304f" stroke-width="1"/><text x="35" y="55.0" text-anchor="end" font-size="11" fill="#9fb0d4">38</text><polyline fill="none" stroke="#22c55e" stroke-width="2.5" stroke-linejoin="round" stroke-linecap="round" points="42.0,64.3 68.4,224.4 94.7,82.8 121.1,88.9 147.4,82.8 173.8,76.6 200.1,76.6 226.5,76.6 252.8,76.6 279.2,76.6 305.5,76.6 331.9,76.6 358.2,76.6 384.6,76.6 410.9,76.6 437.3,70.5 463.6,70.5 490.0,82.8 516.4,82.8 542.7,82.8 569.1,88.9 595.4,88.9 621.8,88.9 648.1,88.9 674.5,88.9 700.8,88.9 727.2,88.9 753.5,88.9 779.9,88.9 806.2,82.8 832.6,82.8 858.9,82.8 885.3,82.8 911.6,76.6 938.0,76.6"/><circle cx="42.0" cy="64.3" r="2.5" fill="#22c55e"/><circle cx="68.4" cy="224.4" r="2.5" fill="#22c55e"/><circle cx="94.7" cy="82.8" r="2.5" fill="#22c55e"/><circle cx="121.1" cy="88.9" r="2.5" fill="#22c55e"/><circle cx="147.4" cy="82.8" r="2.5" fill="#22c55e"/><circle cx="173.8" cy="76.6" r="2.5" fill="#22c55e"/><circle cx="200.1" cy="76.6" r="2.5" fill="#22c55e"/><circle cx="226.5" cy="76.6" r="2.5" fill="#22c55e"/><circle cx="252.8" cy="76.6" r="2.5" fill="#22c55e"/><circle cx="279.2" cy="76.6" r="2.5" fill="#22c55e"/><circle cx="305.5" cy="76.6" r="2.5" fill="#22c55e"/><circle cx="331.9" cy="76.6" r="2.5" fill="#22c55e"/><circle cx="358.2" cy="76.6" r="2.5" fill="#22c55e"/><circle cx="384.6" cy="76.6" r="2.5" fill="#22c55e"/><circle cx="410.9" cy="76.6" r="2.5" fill="#22c55e"/><circle cx="437.3" cy="70.5" r="2.5" fill="#22c55e"/><circle cx="463.6" cy="70.5" r="2.5" fill="#22c55e"/><circle cx="490.0" cy="82.8" r="2.5" fill="#22c55e"/><circle cx="516.4" cy="82.8" r="2.5" fill="#22c55e"/><circle cx="542.7" cy="82.8" r="2.5" fill="#22c55e"/><circle cx="569.1" cy="88.9" r="2.5" fill="#22c55e"/><circle cx="595.4" cy="88.9" r="2.5" fill="#22c55e"/><circle cx="621.8" cy="88.9" r="2.5" fill="#22c55e"/><circle cx="648.1" cy="88.9" r="2.5" fill="#22c55e"/><circle cx="674.5" cy="88.9" r="2.5" fill="#22c55e"/><circle cx="700.8" cy="88.9" r="2.5" fill="#22c55e"/><circle cx="727.2" cy="88.9" r="2.5" fill="#22c55e"/><circle cx="753.5" cy="88.9" r="2.5" fill="#22c55e"/><circle cx="779.9" cy="88.9" r="2.5" fill="#22c55e"/><circle cx="806.2" cy="82.8" r="2.5" fill="#22c55e"/><circle cx="832.6" cy="82.8" r="2.5" fill="#22c55e"/><circle cx="858.9" cy="82.8" r="2.5" fill="#22c55e"/><circle cx="885.3" cy="82.8" r="2.5" fill="#22c55e"/><circle cx="911.6" cy="76.6" r="2.5" fill="#22c55e"/><circle cx="938.0" cy="76.6" r="2.5" fill="#22c55e"/><polyline fill="none" stroke="#f59e0b" stroke-width="2.5" stroke-linejoin="round" stroke-linecap="round" points="42.0,273.7 68.4,267.5 94.7,255.2 121.1,249.1 147.4,255.2 173.8,261.4 200.1,261.4 226.5,261.4 252.8,261.4 279.2,261.4 305.5,261.4 331.9,261.4 358.2,261.4 384.6,261.4 410.9,261.4 437.3,267.5 463.6,267.5 490.0,261.4 516.4,255.2 542.7,255.2 569.1,249.1 595.4,249.1 621.8,249.1 648.1,249.1 674.5,249.1 700.8,249.1 727.2,249.1 753.5,249.1 779.9,249.1 806.2,255.2 832.6,255.2 858.9,255.2 885.3,255.2 911.6,261.4 938.0,261.4"/><circle cx="42.0" cy="273.7" r="2.5" fill="#f59e0b"/><circle cx="68.4" cy="267.5" r="2.5" fill="#f59e0b"/><circle cx="94.7" cy="255.2" r="2.5" fill="#f59e0b"/><circle cx="121.1" cy="249.1" r="2.5" fill="#f59e0b"/><circle cx="147.4" cy="255.2" r="2.5" fill="#f59e0b"/><circle cx="173.8" cy="261.4" r="2.5" fill="#f59e0b"/><circle cx="200.1" cy="261.4" r="2.5" fill="#f59e0b"/><circle cx="226.5" cy="261.4" r="2.5" fill="#f59e0b"/><circle cx="252.8" cy="261.4" r="2.5" fill="#f59e0b"/><circle cx="279.2" cy="261.4" r="2.5" fill="#f59e0b"/><circle cx="305.5" cy="261.4" r="2.5" fill="#f59e0b"/><circle cx="331.9" cy="261.4" r="2.5" fill="#f59e0b"/><circle cx="358.2" cy="261.4" r="2.5" fill="#f59e0b"/><circle cx="384.6" cy="261.4" r="2.5" fill="#f59e0b"/><circle cx="410.9" cy="261.4" r="2.5" fill="#f59e0b"/><circle cx="437.3" cy="267.5" r="2.5" fill="#f59e0b"/><circle cx="463.6" cy="267.5" r="2.5" fill="#f59e0b"/><circle cx="490.0" cy="261.4" r="2.5" fill="#f59e0b"/><circle cx="516.4" cy="255.2" r="2.5" fill="#f59e0b"/><circle cx="542.7" cy="255.2" r="2.5" fill="#f59e0b"/><circle cx="569.1" cy="249.1" r="2.5" fill="#f59e0b"/><circle cx="595.4" cy="249.1" r="2.5" fill="#f59e0b"/><circle cx="621.8" cy="249.1" r="2.5" fill="#f59e0b"/><circle cx="648.1" cy="249.1" r="2.5" fill="#f59e0b"/><circle cx="674.5" cy="249.1" r="2.5" fill="#f59e0b"/><circle cx="700.8" cy="249.1" r="2.5" fill="#f59e0b"/><circle cx="727.2" cy="249.1" r="2.5" fill="#f59e0b"/><circle cx="753.5" cy="249.1" r="2.5" fill="#f59e0b"/><circle cx="779.9" cy="249.1" r="2.5" fill="#f59e0b"/><circle cx="806.2" cy="255.2" r="2.5" fill="#f59e0b"/><circle cx="832.6" cy="255.2" r="2.5" fill="#f59e0b"/><circle cx="858.9" cy="255.2" r="2.5" fill="#f59e0b"/><circle cx="885.3" cy="255.2" r="2.5" fill="#f59e0b"/><circle cx="911.6" cy="261.4" r="2.5" fill="#f59e0b"/><circle cx="938.0" cy="261.4" r="2.5" fill="#f59e0b"/><polyline fill="none" stroke="#ef4444" stroke-width="2.5" stroke-linejoin="round" stroke-linecap="round" points="42.0,286.0 68.4,132.1 94.7,286.0 121.1,286.0 147.4,286.0 173.8,286.0 200.1,286.0 226.5,286.0 252.8,286.0 279.2,286.0 305.5,286.0 331.9,286.0 358.2,286.0 384.6,286.0 410.9,286.0 437.3,286.0 463.6,286.0 490.0,279.8 516.4,286.0 542.7,286.0 569.1,286.0 595.4,286.0 621.8,286.0 648.1,286.0 674.5,286.0 700.8,286.0 727.2,286.0 753.5,286.0 779.9,286.0 806.2,286.0 832.6,286.0 858.9,286.0 885.3,286.0 911.6,286.0 938.0,286.0"/><circle cx="42.0" cy="286.0" r="2.5" fill="#ef4444"/><circle cx="68.4" cy="132.1" r="2.5" fill="#ef4444"/><circle cx="94.7" cy="286.0" r="2.5" fill="#ef4444"/><circle cx="121.1" cy="286.0" r="2.5" fill="#ef4444"/><circle cx="147.4" cy="286.0" r="2.5" fill="#ef4444"/><circle cx="173.8" cy="286.0" r="2.5" fill="#ef4444"/><circle cx="200.1" cy="286.0" r="2.5" fill="#ef4444"/><circle cx="226.5" cy="286.0" r="2.5" fill="#ef4444"/><circle cx="252.8" cy="286.0" r="2.5" fill="#ef4444"/><circle cx="279.2" cy="286.0" r="2.5" fill="#ef4444"/><circle cx="305.5" cy="286.0" r="2.5" fill="#ef4444"/><circle cx="331.9" cy="286.0" r="2.5" fill="#ef4444"/><circle cx="358.2" cy="286.0" r="2.5" fill="#ef4444"/><circle cx="384.6" cy="286.0" r="2.5" fill="#ef4444"/><circle cx="410.9" cy="286.0" r="2.5" fill="#ef4444"/><circle cx="437.3" cy="286.0" r="2.5" fill="#ef4444"/><circle cx="463.6" cy="286.0" r="2.5" fill="#ef4444"/><circle cx="490.0" cy="279.8" r="2.5" fill="#ef4444"/><circle cx="516.4" cy="286.0" r="2.5" fill="#ef4444"/><circle cx="542.7" cy="286.0" r="2.5" fill="#ef4444"/><circle cx="569.1" cy="286.0" r="2.5" fill="#ef4444"/><circle cx="595.4" cy="286.0" r="2.5" fill="#ef4444"/><circle cx="621.8" cy="286.0" r="2.5" fill="#ef4444"/><circle cx="648.1" cy="286.0" r="2.5" fill="#ef4444"/><circle cx="674.5" cy="286.0" r="2.5" fill="#ef4444"/><circle cx="700.8" cy="286.0" r="2.5" fill="#ef4444"/><circle cx="727.2" cy="286.0" r="2.5" fill="#ef4444"/><circle cx="753.5" cy="286.0" r="2.5" fill="#ef4444"/><circle cx="779.9" cy="286.0" r="2.5" fill="#ef4444"/><circle cx="806.2" cy="286.0" r="2.5" fill="#ef4444"/><circle cx="832.6" cy="286.0" r="2.5" fill="#ef4444"/><circle cx="858.9" cy="286.0" r="2.5" fill="#ef4444"/><circle cx="885.3" cy="286.0" r="2.5" fill="#ef4444"/><circle cx="911.6" cy="286.0" r="2.5" fill="#ef4444"/><circle cx="938.0" cy="286.0" r="2.5" fill="#ef4444"/><text x="42" y="308" font-size="11" fill="#9fb0d4">19/06 15:39</text><text x="938" y="308" text-anchor="end" font-size="11" fill="#9fb0d4">18/07 00:32</text></svg>