<svg xmlns="http://www.w3.org/2000/svg" viewBox="0 0 960 320" width="960" height="320" font-family="Segoe UI, system-ui, -apple-system, Roboto, Helvetica, Arial, sans-serif" role="img" aria-label="Availability history per region"><rect x="0.5" y="0.5" width="959" height="319" rx="14" fill="#0d1117" stroke="#2c3a5e"/><text x="42" y="26" font-size="14" font-weight="600" fill="#e6ecff">History · 137 points</text><circle cx="47" cy="40" r="5" fill="#22c55e"/><text x="57" y="44" font-size="12" fill="#9fb0d4">Available</text><circle cx="139.8" cy="40" r="5" fill="#f59e0b"/><text x="149.8" y="44" font-size="12" fill="#9fb0d4">Saturated</text><circle cx="232.60000000000002" cy="40" r="5" fill="#ef4444"/><text x="242.60000000000002" y="44" font-size="12" fill="#9fb0d4">Error</text><circle cx="296.6" cy="40" r="5" fill="#a855f7"/><text x="306.6" y="44" font-size="12" fill="#9fb0d4">Timeout</text><line x1="42" y1="286.0" x2="938" y2="286.0" stroke="#21304f" stroke-width="1"/><text x="35" y="289.0" text-anchor="end" font-size="11" fill="#9fb0d4">0</text><line x1="42" y1="227.5" x2="938" y2="227.5" stroke="#21304f" stroke-width="1"/><text x="35" y="230.5" text-anchor="end" font-size="11" fill="#9fb0d4">10</text><line x1="42" y1="169.0" x2="938" y2="169.0" stroke="#21304f" stroke-width="1"/><text x="35" y="172.0" text-anchor="end" font-size="11" fill="#9fb0d4">20</text><line x1="42" y1="110.5" x2="938" y2="110.5" stroke="#21304f" stroke-width="1"/><text x="35" y="113.5" text-anchor="end" font-size="11" fill="#9fb0d4">29</text><line x1="42" y1="52.0" x2="938" y2="52.0" stroke="#21304f" stroke-width="1"/><text x="35" y="55.0" text-anchor="end" font-size="11" fill="#9fb0d4">39</text><polyline fill="none" stroke="#22c55e" stroke-width="2.5" stroke-linejoin="round" stroke-linecap="round" points="42.0,70.0 48.6,70.0 55.2,88.0 61.8,88.0 68.4,76.0 74.9,76.0 81.5,76.0 88.1,70.0 94.7,76.0 101.3,70.0 107.9,64.0 114.5,58.0 121.1,58.0 127.6,58.0 134.2,58.0 140.8,58.0 147.4,58.0 154.0,58.0 160.6,58.0 167.2,58.0 173.8,58.0 180.4,58.0 186.9,58.0 193.5,58.0 200.1,58.0 206.7,58.0 213.3,58.0 219.9,58.0 226.5,58.0 233.1,58.0 239.6,58.0 246.2,70.0 252.8,76.0 259.4,94.0 266.0,64.0 272.6,64.0 279.2,58.0 285.8,58.0 292.4,58.0 298.9,70.0 305.5,76.0 312.1,76.0 318.7,82.0 325.3,82.0 331.9,82.0 338.5,82.0 345.1,76.0 351.6,64.0 358.2,70.0 364.8,70.0 371.4,82.0 378.0,76.0 384.6,76.0 391.2,82.0 397.8,76.0 404.4,76.0 410.9,76.0 417.5,64.0 424.1,64.0 430.7,76.0 437.3,76.0 443.9,76.0 450.5,88.0 457.1,70.0 463.6,64.0 470.2,58.0 476.8,58.0 483.4,70.0 490.0,70.0 496.6,70.0 503.2,76.0 509.8,70.0 516.4,70.0 522.9,70.0 529.5,70.0 536.1,76.0 542.7,82.0 549.3,76.0 555.9,70.0 562.5,70.0 569.1,70.0 575.6,70.0 582.2,76.0 588.8,70.0 595.4,70.0 602.0,70.0 608.6,70.0 615.2,70.0 621.8,70.0 628.4,70.0 634.9,70.0 641.5,70.0 648.1,70.0 654.7,70.0 661.3,70.0 667.9,70.0 674.5,70.0 681.1,70.0 687.6,70.0 694.2,70.0 700.8,70.0 707.4,70.0 714.0,70.0 720.6,70.0 727.2,70.0 733.8,70.0 740.4,70.0 746.9,70.0 753.5,70.0 760.1,70.0 766.7,70.0 773.3,70.0 779.9,70.0 786.5,70.0 793.1,70.0 799.6,70.0 806.2,70.0 812.8,70.0 819.4,70.0 826.0,70.0 832.6,70.0 839.2,70.0 845.8,70.0 852.4,70.0 858.9,70.0 865.5,70.0 872.1,70.0 878.7,70.0 885.3,70.0 891.9,70.0 898.5,70.0 905.1,70.0 911.6,70.0 918.2,70.0 924.8,70.0 931.4,70.0 938.0,70.0"/><polyline fill="none" stroke="#f59e0b" stroke-width="2.5" stroke-linejoin="round" stroke-linecap="round" points="42.0,274.0 48.6,274.0 55.2,274.0 61.8,280.0 68.4,268.0 74.9,268.0 81.5,268.0 88.1,274.0 94.7,274.0 101.3,274.0 107.9,280.0 114.5,286.0 121.1,286.0 127.6,286.0 134.2,286.0 140.8,286.0 147.4,286.0 154.0,286.0 160.6,286.0 167.2,286.0 173.8,286.0 180.4,286.0 186.9,286.0 193.5,286.0 200.1,286.0 206.7,286.0 213.3,286.0 219.9,286.0 226.5,286.0 233.1,286.0 239.6,286.0 246.2,274.0 252.8,280.0 259.4,280.0 266.0,280.0 272.6,280.0 279.2,286.0 285.8,286.0 292.4,286.0 298.9,274.0 305.5,268.0 312.1,268.0 318.7,262.0 325.3,262.0 331.9,262.0 338.5,262.0 345.1,268.0 351.6,280.0 358.2,280.0 364.8,274.0 371.4,262.0 378.0,268.0 384.6,268.0 391.2,262.0 397.8,268.0 404.4,268.0 410.9,268.0 417.5,280.0 424.1,280.0 430.7,268.0 437.3,268.0 443.9,268.0 450.5,262.0 457.1,274.0 463.6,280.0 470.2,286.0 476.8,286.0 483.4,274.0 490.0,274.0 496.6,274.0 503.2,274.0 509.8,274.0 516.4,274.0 522.9,274.0 529.5,274.0 536.1,280.0 542.7,274.0 549.3,280.0 555.9,286.0 562.5,286.0 569.1,286.0 575.6,286.0 582.2,280.0 588.8,286.0 595.4,286.0 602.0,286.0 608.6,286.0 615.2,286.0 621.8,286.0 628.4,286.0 634.9,286.0 641.5,286.0 648.1,286.0 654.7,286.0 661.3,286.0 667.9,286.0 674.5,286.0 681.1,286.0 687.6,286.0 694.2,286.0 700.8,286.0 707.4,286.0 714.0,286.0 720.6,286.0 727.2,286.0 733.8,286.0 740.4,286.0 746.9,286.0 753.5,286.0 760.1,286.0 766.7,286.0 773.3,286.0 779.9,286.0 786.5,286.0 793.1,286.0 799.6,286.0 806.2,286.0 812.8,286.0 819.4,286.0 826.0,286.0 832.6,286.0 839.2,286.0 845.8,286.0 852.4,286.0 858.9,286.0 865.5,286.0 872.1,286.0 878.7,286.0 885.3,286.0 891.9,286.0 898.5,286.0 905.1,286.0 911.6,286.0 918.2,286.0 924.8,286.0 931.4,286.0 938.0,286.0"/><polyline fill="none" stroke="#ef4444" stroke-width="2.5" stroke-linejoin="round" stroke-linecap="round" points="42.0,280.0 48.6,280.0 55.2,268.0 61.8,262.0 68.4,286.0 74.9,286.0 81.5,286.0 88.1,286.0 94.7,280.0 101.3,286.0 107.9,286.0 114.5,286.0 121.1,286.0 127.6,286.0 134.2,286.0 140.8,286.0 147.4,286.0 154.0,286.0 160.6,286.0 167.2,286.0 173.8,286.0 180.4,286.0 186.9,286.0 193.5,286.0 200.1,286.0 206.7,286.0 213.3,286.0 219.9,286.0 226.5,286.0 233.1,286.0 239.6,286.0 246.2,286.0 252.8,274.0 259.4,256.0 266.0,286.0 272.6,286.0 279.2,286.0 285.8,286.0 292.4,286.0 298.9,286.0 305.5,286.0 312.1,286.0 318.7,286.0 325.3,286.0 331.9,286.0 338.5,286.0 345.1,286.0 351.6,286.0 358.2,280.0 364.8,286.0 371.4,286.0 378.0,286.0 384.6,286.0 391.2,286.0 397.8,286.0 404.4,286.0 410.9,286.0 417.5,286.0 424.1,286.0 430.7,286.0 437.3,286.0 443.9,286.0 450.5,280.0 457.1,286.0 463.6,286.0 470.2,286.0 476.8,286.0 483.4,286.0 490.0,286.0 496.6,286.0 503.2,286.0 509.8,286.0 516.4,286.0 522.9,286.0 529.5,286.0 536.1,274.0 542.7,274.0 549.3,274.0 555.9,274.0 562.5,274.0 569.1,274.0 575.6,274.0 582.2,274.0 588.8,274.0 595.4,274.0 602.0,274.0 608.6,274.0 615.2,274.0 621.8,274.0 628.4,274.0 634.9,274.0 641.5,274.0 648.1,274.0 654.7,274.0 661.3,274.0 667.9,274.0 674.5,274.0 681.1,274.0 687.6,274.0 694.2,274.0 700.8,274.0 707.4,274.0 714.0,274.0 720.6,274.0 727.2,274.0 733.8,274.0 740.4,274.0 746.9,274.0 753.5,274.0 760.1,274.0 766.7,274.0 773.3,274.0 779.9,274.0 786.5,274.0 793.1,274.0 799.6,274.0 806.2,274.0 812.8,274.0 819.4,274.0 826.0,274.0 832.6,274.0 839.2,274.0 845.8,274.0 852.4,274.0 858.9,274.0 865.5,274.0 872.1,274.0 878.7,274.0 885.3,274.0 891.9,274.0 898.5,274.0 905.1,274.0 911.6,274.0 918.2,274.0 924.8,274.0 931.4,274.0 938.0,274.0"/><polyline fill="none" stroke="#a855f7" stroke-width="2.5" stroke-linejoin="round" stroke-linecap="round" points="42.0,286.0 48.6,286.0 55.2,286.0 61.8,286.0 68.4,286.0 74.9,286.0 81.5,286.0 88.1,286.0 94.7,286.0 101.3,286.0 107.9,286.0 114.5,286.0 121.1,286.0 127.6,286.0 134.2,286.0 140.8,286.0 147.4,286.0 154.0,286.0 160.6,286.0 167.2,286.0 173.8,286.0 180.4,286.0 186.9,286.0 193.5,286.0 200.1,286.0 206.7,286.0 213.3,286.0 219.9,286.0 226.5,286.0 233.1,286.0 239.6,286.0 246.2,286.0 252.8,286.0 259.4,286.0 266.0,286.0 272.6,286.0 279.2,286.0 285.8,286.0 292.4,286.0 298.9,286.0 305.5,286.0 312.1,286.0 318.7,286.0 325.3,286.0 331.9,286.0 338.5,286.0 345.1,286.0 351.6,286.0 358.2,286.0 364.8,286.0 371.4,286.0 378.0,286.0 384.6,286.0 391.2,286.0 397.8,286.0 404.4,286.0 410.9,286.0 417.5,286.0 424.1,286.0 430.7,286.0 437.3,286.0 443.9,286.0 450.5,286.0 457.1,286.0 463.6,286.0 470.2,286.0 476.8,286.0 483.4,286.0 490.0,286.0 496.6,286.0 503.2,280.0 509.8,286.0 516.4,286.0 522.9,286.0 529.5,286.0 536.1,286.0 542.7,286.0 549.3,286.0 555.9,286.0 562.5,286.0 569.1,286.0 575.6,286.0 582.2,286.0 588.8,286.0 595.4,286.0 602.0,286.0 608.6,286.0 615.2,286.0 621.8,286.0 628.4,286.0 634.9,286.0 641.5,286.0 648.1,286.0 654.7,286.0 661.3,286.0 667.9,286.0 674.5,286.0 681.1,286.0 687.6,286.0 694.2,286.0 700.8,286.0 707.4,286.0 714.0,286.0 720.6,286.0 727.2,286.0 733.8,286.0 740.4,286.0 746.9,286.0 753.5,286.0 760.1,286.0 766.7,286.0 773.3,286.0 779.9,286.0 786.5,286.0 793.1,286.0 799.6,286.0 806.2,286.0 812.8,286.0 819.4,286.0 826.0,286.0 832.6,286.0 839.2,286.0 845.8,286.0 852.4,286.0 858.9,286.0 865.5,286.0 872.1,286.0 878.7,286.0 885.3,286.0 891.9,286.0 898.5,286.0 905.1,286.0 911.6,286.0 918.2,286.0 924.8,286.0 931.4,286.0 938.0,286.0"/><text x="42" y="308" font-size="11" fill="#9fb0d4">19/06 12:43</text><text x="938" y="308" text-anchor="end" font-size="11" fill="#9fb0d4">28/06 16:30</text></svg>