<svg xmlns="http://www.w3.org/2000/svg" viewBox="0 0 960 320" width="960" height="320" font-family="Segoe UI, system-ui, -apple-system, Roboto, Helvetica, Arial, sans-serif" role="img" aria-label="Availability history per region"><rect x="0.5" y="0.5" width="959" height="319" rx="14" fill="#0d1117" stroke="#2c3a5e"/><text x="42" y="26" font-size="14" font-weight="600" fill="#e6ecff">History · 259 points</text><circle cx="47" cy="40" r="5" fill="#22c55e"/><text x="57" y="44" font-size="12" fill="#9fb0d4">Available</text><circle cx="139.8" cy="40" r="5" fill="#f59e0b"/><text x="149.8" y="44" font-size="12" fill="#9fb0d4">Saturated</text><circle cx="232.60000000000002" cy="40" r="5" fill="#ef4444"/><text x="242.60000000000002" y="44" font-size="12" fill="#9fb0d4">Error</text><circle cx="296.6" cy="40" r="5" fill="#a855f7"/><text x="306.6" y="44" font-size="12" fill="#9fb0d4">Timeout</text><line x1="42" y1="286.0" x2="938" y2="286.0" stroke="#21304f" stroke-width="1"/><text x="35" y="289.0" text-anchor="end" font-size="11" fill="#9fb0d4">0</text><line x1="42" y1="227.5" x2="938" y2="227.5" stroke="#21304f" stroke-width="1"/><text x="35" y="230.5" text-anchor="end" font-size="11" fill="#9fb0d4">10</text><line x1="42" y1="169.0" x2="938" y2="169.0" stroke="#21304f" stroke-width="1"/><text x="35" y="172.0" text-anchor="end" font-size="11" fill="#9fb0d4">20</text><line x1="42" y1="110.5" x2="938" y2="110.5" stroke="#21304f" stroke-width="1"/><text x="35" y="113.5" text-anchor="end" font-size="11" fill="#9fb0d4">29</text><line x1="42" y1="52.0" x2="938" y2="52.0" stroke="#21304f" stroke-width="1"/><text x="35" y="55.0" text-anchor="end" font-size="11" fill="#9fb0d4">39</text><polyline fill="none" stroke="#22c55e" stroke-width="2.5" stroke-linejoin="round" stroke-linecap="round" points="42.0,70.0 45.5,70.0 48.9,88.0 52.4,88.0 55.9,76.0 59.4,76.0 62.8,76.0 66.3,70.0 69.8,76.0 73.3,70.0 76.7,64.0 80.2,58.0 83.7,58.0 87.1,58.0 90.6,58.0 94.1,58.0 97.6,58.0 101.0,58.0 104.5,58.0 108.0,58.0 111.5,58.0 114.9,58.0 118.4,58.0 121.9,58.0 125.3,58.0 128.8,58.0 132.3,58.0 135.8,58.0 139.2,58.0 142.7,58.0 146.2,58.0 149.7,70.0 153.1,76.0 156.6,94.0 160.1,64.0 163.6,64.0 167.0,58.0 170.5,58.0 174.0,58.0 177.4,70.0 180.9,76.0 184.4,76.0 187.9,82.0 191.3,82.0 194.8,82.0 198.3,82.0 201.8,76.0 205.2,64.0 208.7,70.0 212.2,70.0 215.6,82.0 219.1,76.0 222.6,76.0 226.1,82.0 229.5,76.0 233.0,76.0 236.5,76.0 240.0,64.0 243.4,64.0 246.9,76.0 250.4,76.0 253.8,76.0 257.3,88.0 260.8,70.0 264.3,64.0 267.7,58.0 271.2,58.0 274.7,70.0 278.2,70.0 281.6,70.0 285.1,76.0 288.6,70.0 292.0,70.0 295.5,70.0 299.0,70.0 302.5,76.0 305.9,82.0 309.4,76.0 312.9,70.0 316.4,70.0 319.8,70.0 323.3,70.0 326.8,76.0 330.2,70.0 333.7,70.0 337.2,70.0 340.7,70.0 344.1,70.0 347.6,70.0 351.1,70.0 354.6,70.0 358.0,70.0 361.5,70.0 365.0,70.0 368.4,70.0 371.9,70.0 375.4,70.0 378.9,70.0 382.3,70.0 385.8,70.0 389.3,70.0 392.8,70.0 396.2,70.0 399.7,70.0 403.2,70.0 406.7,70.0 410.1,70.0 413.6,70.0 417.1,70.0 420.5,70.0 424.0,70.0 427.5,70.0 431.0,70.0 434.4,70.0 437.9,70.0 441.4,70.0 444.9,70.0 448.3,70.0 451.8,70.0 455.3,70.0 458.7,70.0 462.2,70.0 465.7,70.0 469.2,70.0 472.6,70.0 476.1,70.0 479.6,70.0 483.1,70.0 486.5,70.0 490.0,70.0 493.5,70.0 496.9,70.0 500.4,70.0 503.9,70.0 507.4,70.0 510.8,70.0 514.3,70.0 517.8,70.0 521.3,70.0 524.7,70.0 528.2,70.0 531.7,70.0 535.1,70.0 538.6,70.0 542.1,70.0 545.6,70.0 549.0,70.0 552.5,70.0 556.0,70.0 559.5,70.0 562.9,70.0 566.4,76.0 569.9,70.0 573.3,70.0 576.8,70.0 580.3,70.0 583.8,70.0 587.2,76.0 590.7,76.0 594.2,88.0 597.7,88.0 601.1,88.0 604.6,94.0 608.1,94.0 611.6,94.0 615.0,94.0 618.5,88.0 622.0,88.0 625.4,82.0 628.9,82.0 632.4,82.0 635.9,88.0 639.3,88.0 642.8,94.0 646.3,82.0 649.8,82.0 653.2,82.0 656.7,82.0 660.2,88.0 663.6,88.0 667.1,94.0 670.6,94.0 674.1,88.0 677.5,88.0 681.0,88.0 684.5,94.0 688.0,94.0 691.4,106.0 694.9,94.0 698.4,94.0 701.8,94.0 705.3,94.0 708.8,88.0 712.3,88.0 715.7,82.0 719.2,76.0 722.7,76.0 726.2,76.0 729.6,76.0 733.1,76.0 736.6,76.0 740.0,70.0 743.5,70.0 747.0,70.0 750.5,76.0 753.9,88.0 757.4,82.0 760.9,70.0 764.4,70.0 767.8,70.0 771.3,76.0 774.8,76.0 778.2,76.0 781.7,82.0 785.2,70.0 788.7,76.0 792.1,64.0 795.6,70.0 799.1,58.0 802.6,58.0 806.0,58.0 809.5,58.0 813.0,58.0 816.4,64.0 819.9,58.0 823.4,64.0 826.9,58.0 830.3,58.0 833.8,58.0 837.3,58.0 840.8,64.0 844.2,64.0 847.7,64.0 851.2,76.0 854.7,70.0 858.1,82.0 861.6,70.0 865.1,76.0 868.5,58.0 872.0,64.0 875.5,58.0 879.0,64.0 882.4,58.0 885.9,58.0 889.4,58.0 892.9,64.0 896.3,70.0 899.8,64.0 903.3,64.0 906.7,64.0 910.2,70.0 913.7,70.0 917.2,64.0 920.6,70.0 924.1,70.0 927.6,70.0 931.1,58.0 934.5,58.0 938.0,58.0"/><polyline fill="none" stroke="#f59e0b" stroke-width="2.5" stroke-linejoin="round" stroke-linecap="round" points="42.0,274.0 45.5,274.0 48.9,274.0 52.4,280.0 55.9,268.0 59.4,268.0 62.8,268.0 66.3,274.0 69.8,274.0 73.3,274.0 76.7,280.0 80.2,286.0 83.7,286.0 87.1,286.0 90.6,286.0 94.1,286.0 97.6,286.0 101.0,286.0 104.5,286.0 108.0,286.0 111.5,286.0 114.9,286.0 118.4,286.0 121.9,286.0 125.3,286.0 128.8,286.0 132.3,286.0 135.8,286.0 139.2,286.0 142.7,286.0 146.2,286.0 149.7,274.0 153.1,280.0 156.6,280.0 160.1,280.0 163.6,280.0 167.0,286.0 170.5,286.0 174.0,286.0 177.4,274.0 180.9,268.0 184.4,268.0 187.9,262.0 191.3,262.0 194.8,262.0 198.3,262.0 201.8,268.0 205.2,280.0 208.7,280.0 212.2,274.0 215.6,262.0 219.1,268.0 222.6,268.0 226.1,262.0 229.5,268.0 233.0,268.0 236.5,268.0 240.0,280.0 243.4,280.0 246.9,268.0 250.4,268.0 253.8,268.0 257.3,262.0 260.8,274.0 264.3,280.0 267.7,286.0 271.2,286.0 274.7,274.0 278.2,274.0 281.6,274.0 285.1,274.0 288.6,274.0 292.0,274.0 295.5,274.0 299.0,274.0 302.5,280.0 305.9,274.0 309.4,280.0 312.9,286.0 316.4,286.0 319.8,286.0 323.3,286.0 326.8,280.0 330.2,286.0 333.7,286.0 337.2,286.0 340.7,286.0 344.1,286.0 347.6,286.0 351.1,286.0 354.6,286.0 358.0,286.0 361.5,286.0 365.0,286.0 368.4,286.0 371.9,286.0 375.4,286.0 378.9,286.0 382.3,286.0 385.8,286.0 389.3,286.0 392.8,286.0 396.2,286.0 399.7,286.0 403.2,286.0 406.7,286.0 410.1,286.0 413.6,286.0 417.1,286.0 420.5,286.0 424.0,286.0 427.5,286.0 431.0,286.0 434.4,286.0 437.9,286.0 441.4,286.0 444.9,286.0 448.3,286.0 451.8,286.0 455.3,286.0 458.7,286.0 462.2,286.0 465.7,286.0 469.2,286.0 472.6,286.0 476.1,286.0 479.6,286.0 483.1,286.0 486.5,286.0 490.0,286.0 493.5,286.0 496.9,286.0 500.4,286.0 503.9,286.0 507.4,286.0 510.8,286.0 514.3,286.0 517.8,286.0 521.3,286.0 524.7,286.0 528.2,286.0 531.7,286.0 535.1,286.0 538.6,286.0 542.1,286.0 545.6,286.0 549.0,286.0 552.5,286.0 556.0,286.0 559.5,286.0 562.9,286.0 566.4,286.0 569.9,286.0 573.3,286.0 576.8,286.0 580.3,286.0 583.8,286.0 587.2,286.0 590.7,280.0 594.2,268.0 597.7,268.0 601.1,268.0 604.6,268.0 608.1,262.0 611.6,262.0 615.0,262.0 618.5,268.0 622.0,268.0 625.4,274.0 628.9,274.0 632.4,274.0 635.9,268.0 639.3,268.0 642.8,268.0 646.3,274.0 649.8,274.0 653.2,274.0 656.7,274.0 660.2,268.0 663.6,268.0 667.1,262.0 670.6,262.0 674.1,268.0 677.5,268.0 681.0,268.0 684.5,262.0 688.0,262.0 691.4,274.0 694.9,262.0 698.4,262.0 701.8,262.0 705.3,262.0 708.8,268.0 712.3,268.0 715.7,274.0 719.2,280.0 722.7,280.0 726.2,280.0 729.6,280.0 733.1,280.0 736.6,280.0 740.0,286.0 743.5,286.0 747.0,286.0 750.5,280.0 753.9,274.0 757.4,274.0 760.9,280.0 764.4,274.0 767.8,274.0 771.3,268.0 774.8,268.0 778.2,268.0 781.7,268.0 785.2,280.0 788.7,274.0 792.1,280.0 795.6,280.0 799.1,286.0 802.6,286.0 806.0,286.0 809.5,286.0 813.0,286.0 816.4,286.0 819.9,286.0 823.4,286.0 826.9,286.0 830.3,286.0 833.8,286.0 837.3,286.0 840.8,280.0 844.2,280.0 847.7,280.0 851.2,268.0 854.7,280.0 858.1,268.0 861.6,274.0 865.1,274.0 868.5,286.0 872.0,280.0 875.5,286.0 879.0,280.0 882.4,286.0 885.9,286.0 889.4,286.0 892.9,280.0 896.3,274.0 899.8,280.0 903.3,280.0 906.7,280.0 910.2,274.0 913.7,274.0 917.2,280.0 920.6,280.0 924.1,280.0 927.6,280.0 931.1,286.0 934.5,286.0 938.0,286.0"/><polyline fill="none" stroke="#ef4444" stroke-width="2.5" stroke-linejoin="round" stroke-linecap="round" points="42.0,280.0 45.5,280.0 48.9,268.0 52.4,262.0 55.9,286.0 59.4,286.0 62.8,286.0 66.3,286.0 69.8,280.0 73.3,286.0 76.7,286.0 80.2,286.0 83.7,286.0 87.1,286.0 90.6,286.0 94.1,286.0 97.6,286.0 101.0,286.0 104.5,286.0 108.0,286.0 111.5,286.0 114.9,286.0 118.4,286.0 121.9,286.0 125.3,286.0 128.8,286.0 132.3,286.0 135.8,286.0 139.2,286.0 142.7,286.0 146.2,286.0 149.7,286.0 153.1,274.0 156.6,256.0 160.1,286.0 163.6,286.0 167.0,286.0 170.5,286.0 174.0,286.0 177.4,286.0 180.9,286.0 184.4,286.0 187.9,286.0 191.3,286.0 194.8,286.0 198.3,286.0 201.8,286.0 205.2,286.0 208.7,280.0 212.2,286.0 215.6,286.0 219.1,286.0 222.6,286.0 226.1,286.0 229.5,286.0 233.0,286.0 236.5,286.0 240.0,286.0 243.4,286.0 246.9,286.0 250.4,286.0 253.8,286.0 257.3,280.0 260.8,286.0 264.3,286.0 267.7,286.0 271.2,286.0 274.7,286.0 278.2,286.0 281.6,286.0 285.1,286.0 288.6,286.0 292.0,286.0 295.5,286.0 299.0,286.0 302.5,274.0 305.9,274.0 309.4,274.0 312.9,274.0 316.4,274.0 319.8,274.0 323.3,274.0 326.8,274.0 330.2,274.0 333.7,274.0 337.2,274.0 340.7,274.0 344.1,274.0 347.6,274.0 351.1,274.0 354.6,274.0 358.0,274.0 361.5,274.0 365.0,274.0 368.4,274.0 371.9,274.0 375.4,274.0 378.9,274.0 382.3,274.0 385.8,274.0 389.3,274.0 392.8,274.0 396.2,274.0 399.7,274.0 403.2,274.0 406.7,274.0 410.1,274.0 413.6,274.0 417.1,274.0 420.5,274.0 424.0,274.0 427.5,274.0 431.0,274.0 434.4,274.0 437.9,274.0 441.4,274.0 444.9,274.0 448.3,274.0 451.8,274.0 455.3,274.0 458.7,274.0 462.2,274.0 465.7,274.0 469.2,274.0 472.6,274.0 476.1,274.0 479.6,274.0 483.1,274.0 486.5,274.0 490.0,274.0 493.5,274.0 496.9,274.0 500.4,274.0 503.9,274.0 507.4,274.0 510.8,274.0 514.3,274.0 517.8,274.0 521.3,274.0 524.7,274.0 528.2,274.0 531.7,274.0 535.1,274.0 538.6,274.0 542.1,274.0 545.6,274.0 549.0,274.0 552.5,274.0 556.0,274.0 559.5,274.0 562.9,274.0 566.4,268.0 569.9,274.0 573.3,274.0 576.8,274.0 580.3,274.0 583.8,274.0 587.2,274.0 590.7,274.0 594.2,274.0 597.7,274.0 601.1,274.0 604.6,268.0 608.1,274.0 611.6,274.0 615.0,274.0 618.5,274.0 622.0,274.0 625.4,274.0 628.9,274.0 632.4,274.0 635.9,274.0 639.3,274.0 642.8,268.0 646.3,274.0 649.8,274.0 653.2,274.0 656.7,274.0 660.2,274.0 663.6,274.0 667.1,274.0 670.6,274.0 674.1,274.0 677.5,274.0 681.0,274.0 684.5,274.0 688.0,274.0 691.4,250.0 694.9,274.0 698.4,274.0 701.8,274.0 705.3,274.0 708.8,274.0 712.3,274.0 715.7,274.0 719.2,274.0 722.7,274.0 726.2,274.0 729.6,274.0 733.1,274.0 736.6,274.0 740.0,274.0 743.5,274.0 747.0,274.0 750.5,274.0 753.9,268.0 757.4,274.0 760.9,280.0 764.4,286.0 767.8,286.0 771.3,286.0 774.8,286.0 778.2,286.0 781.7,280.0 785.2,280.0 788.7,286.0 792.1,286.0 795.6,280.0 799.1,286.0 802.6,286.0 806.0,286.0 809.5,286.0 813.0,286.0 816.4,280.0 819.9,286.0 823.4,286.0 826.9,286.0 830.3,286.0 833.8,286.0 837.3,286.0 840.8,286.0 844.2,286.0 847.7,286.0 851.2,286.0 854.7,280.0 858.1,280.0 861.6,286.0 865.1,280.0 868.5,286.0 872.0,286.0 875.5,286.0 879.0,286.0 882.4,286.0 885.9,286.0 889.4,286.0 892.9,286.0 896.3,286.0 899.8,286.0 903.3,286.0 906.7,286.0 910.2,286.0 913.7,286.0 917.2,286.0 920.6,280.0 924.1,286.0 927.6,280.0 931.1,286.0 934.5,286.0 938.0,286.0"/><polyline fill="none" stroke="#a855f7" stroke-width="2.5" stroke-linejoin="round" stroke-linecap="round" points="42.0,286.0 45.5,286.0 48.9,286.0 52.4,286.0 55.9,286.0 59.4,286.0 62.8,286.0 66.3,286.0 69.8,286.0 73.3,286.0 76.7,286.0 80.2,286.0 83.7,286.0 87.1,286.0 90.6,286.0 94.1,286.0 97.6,286.0 101.0,286.0 104.5,286.0 108.0,286.0 111.5,286.0 114.9,286.0 118.4,286.0 121.9,286.0 125.3,286.0 128.8,286.0 132.3,286.0 135.8,286.0 139.2,286.0 142.7,286.0 146.2,286.0 149.7,286.0 153.1,286.0 156.6,286.0 160.1,286.0 163.6,286.0 167.0,286.0 170.5,286.0 174.0,286.0 177.4,286.0 180.9,286.0 184.4,286.0 187.9,286.0 191.3,286.0 194.8,286.0 198.3,286.0 201.8,286.0 205.2,286.0 208.7,286.0 212.2,286.0 215.6,286.0 219.1,286.0 222.6,286.0 226.1,286.0 229.5,286.0 233.0,286.0 236.5,286.0 240.0,286.0 243.4,286.0 246.9,286.0 250.4,286.0 253.8,286.0 257.3,286.0 260.8,286.0 264.3,286.0 267.7,286.0 271.2,286.0 274.7,286.0 278.2,286.0 281.6,286.0 285.1,280.0 288.6,286.0 292.0,286.0 295.5,286.0 299.0,286.0 302.5,286.0 305.9,286.0 309.4,286.0 312.9,286.0 316.4,286.0 319.8,286.0 323.3,286.0 326.8,286.0 330.2,286.0 333.7,286.0 337.2,286.0 340.7,286.0 344.1,286.0 347.6,286.0 351.1,286.0 354.6,286.0 358.0,286.0 361.5,286.0 365.0,286.0 368.4,286.0 371.9,286.0 375.4,286.0 378.9,286.0 382.3,286.0 385.8,286.0 389.3,286.0 392.8,286.0 396.2,286.0 399.7,286.0 403.2,286.0 406.7,286.0 410.1,286.0 413.6,286.0 417.1,286.0 420.5,286.0 424.0,286.0 427.5,286.0 431.0,286.0 434.4,286.0 437.9,286.0 441.4,286.0 444.9,286.0 448.3,286.0 451.8,286.0 455.3,286.0 458.7,286.0 462.2,286.0 465.7,286.0 469.2,286.0 472.6,286.0 476.1,286.0 479.6,286.0 483.1,286.0 486.5,286.0 490.0,286.0 493.5,286.0 496.9,286.0 500.4,286.0 503.9,286.0 507.4,286.0 510.8,286.0 514.3,286.0 517.8,286.0 521.3,286.0 524.7,286.0 528.2,286.0 531.7,286.0 535.1,286.0 538.6,286.0 542.1,286.0 545.6,286.0 549.0,286.0 552.5,286.0 556.0,286.0 559.5,286.0 562.9,286.0 566.4,286.0 569.9,286.0 573.3,286.0 576.8,286.0 580.3,286.0 583.8,286.0 587.2,280.0 590.7,286.0 594.2,286.0 597.7,286.0 601.1,286.0 604.6,286.0 608.1,286.0 611.6,286.0 615.0,286.0 618.5,286.0 622.0,286.0 625.4,286.0 628.9,286.0 632.4,286.0 635.9,286.0 639.3,286.0 642.8,286.0 646.3,286.0 649.8,286.0 653.2,286.0 656.7,286.0 660.2,286.0 663.6,286.0 667.1,286.0 670.6,286.0 674.1,286.0 677.5,286.0 681.0,286.0 684.5,286.0 688.0,286.0 691.4,286.0 694.9,286.0 698.4,286.0 701.8,286.0 705.3,286.0 708.8,286.0 712.3,286.0 715.7,286.0 719.2,286.0 722.7,286.0 726.2,286.0 729.6,286.0 733.1,286.0 736.6,286.0 740.0,286.0 743.5,286.0 747.0,286.0 750.5,286.0 753.9,286.0 757.4,286.0 760.9,286.0 764.4,286.0 767.8,286.0 771.3,286.0 774.8,286.0 778.2,286.0 781.7,286.0 785.2,286.0 788.7,280.0 792.1,286.0 795.6,286.0 799.1,286.0 802.6,286.0 806.0,286.0 809.5,286.0 813.0,286.0 816.4,286.0 819.9,286.0 823.4,280.0 826.9,286.0 830.3,286.0 833.8,286.0 837.3,286.0 840.8,286.0 844.2,286.0 847.7,286.0 851.2,286.0 854.7,286.0 858.1,286.0 861.6,286.0 865.1,286.0 868.5,286.0 872.0,286.0 875.5,286.0 879.0,286.0 882.4,286.0 885.9,286.0 889.4,286.0 892.9,286.0 896.3,286.0 899.8,286.0 903.3,286.0 906.7,286.0 910.2,286.0 913.7,286.0 917.2,286.0 920.6,286.0 924.1,280.0 927.6,286.0 931.1,286.0 934.5,286.0 938.0,286.0"/><text x="42" y="308" font-size="11" fill="#9fb0d4">19/06 12:43</text><text x="938" y="308" text-anchor="end" font-size="11" fill="#9fb0d4">03/07 21:29</text></svg>