<svg xmlns="http://www.w3.org/2000/svg" viewBox="0 0 960 320" width="960" height="320" font-family="Segoe UI, system-ui, -apple-system, Roboto, Helvetica, Arial, sans-serif" role="img" aria-label="Availability history per region"><rect x="0.5" y="0.5" width="959" height="319" rx="14" fill="#ffffff" stroke="#dce3f1"/><text x="42" y="26" font-size="14" font-weight="600" fill="#14203a">History · 116 points</text><circle cx="47" cy="40" r="5" fill="#22c55e"/><text x="57" y="44" font-size="12" fill="#5a688a">Available</text><circle cx="139.8" cy="40" r="5" fill="#f59e0b"/><text x="149.8" y="44" font-size="12" fill="#5a688a">Saturated</text><circle cx="232.60000000000002" cy="40" r="5" fill="#ef4444"/><text x="242.60000000000002" y="44" font-size="12" fill="#5a688a">Error</text><circle cx="296.6" cy="40" r="5" fill="#a855f7"/><text x="306.6" y="44" font-size="12" fill="#5a688a">Timeout</text><line x1="42" y1="286.0" x2="938" y2="286.0" stroke="#eef2f7" stroke-width="1"/><text x="35" y="289.0" text-anchor="end" font-size="11" fill="#5a688a">0</text><line x1="42" y1="227.5" x2="938" y2="227.5" stroke="#eef2f7" stroke-width="1"/><text x="35" y="230.5" text-anchor="end" font-size="11" fill="#5a688a">10</text><line x1="42" y1="169.0" x2="938" y2="169.0" stroke="#eef2f7" stroke-width="1"/><text x="35" y="172.0" text-anchor="end" font-size="11" fill="#5a688a">19</text><line x1="42" y1="110.5" x2="938" y2="110.5" stroke="#eef2f7" stroke-width="1"/><text x="35" y="113.5" text-anchor="end" font-size="11" fill="#5a688a">28</text><line x1="42" y1="52.0" x2="938" y2="52.0" stroke="#eef2f7" stroke-width="1"/><text x="35" y="55.0" text-anchor="end" font-size="11" fill="#5a688a">38</text><polyline fill="none" stroke="#22c55e" stroke-width="2.5" stroke-linejoin="round" stroke-linecap="round" points="42.0,64.3 49.8,224.4 57.6,82.8 65.4,88.9 73.2,82.8 81.0,76.6 88.7,76.6 96.5,76.6 104.3,76.6 112.1,76.6 119.9,76.6 127.7,76.6 135.5,76.6 143.3,76.6 151.1,76.6 158.9,70.5 166.7,70.5 174.5,82.8 182.2,82.8 190.0,82.8 197.8,88.9 205.6,88.9 213.4,88.9 221.2,88.9 229.0,88.9 236.8,88.9 244.6,88.9 252.4,88.9 260.2,88.9 267.9,82.8 275.7,82.8 283.5,82.8 291.3,82.8 299.1,76.6 306.9,76.6 314.7,76.6 322.5,76.6 330.3,76.6 338.1,82.8 345.9,82.8 353.7,82.8 361.4,82.8 369.2,76.6 377.0,76.6 384.8,76.6 392.6,76.6 400.4,76.6 408.2,76.6 416.0,76.6 423.8,82.8 431.6,82.8 439.4,82.8 447.1,82.8 454.9,76.6 462.7,76.6 470.5,76.6 478.3,76.6 486.1,76.6 493.9,76.6 501.7,76.6 509.5,76.6 517.3,82.8 525.1,76.6 532.9,76.6 540.6,76.6 548.4,76.6 556.2,76.6 564.0,82.8 571.8,76.6 579.6,76.6 587.4,76.6 595.2,76.6 603.0,76.6 610.8,76.6 618.6,76.6 626.3,76.6 634.1,76.6 641.9,70.5 649.7,70.5 657.5,70.5 665.3,70.5 673.1,76.6 680.9,70.5 688.7,76.6 696.5,76.6 704.3,76.6 712.1,76.6 719.8,76.6 727.6,76.6 735.4,82.8 743.2,88.9 751.0,88.9 758.8,88.9 766.6,88.9 774.4,88.9 782.2,88.9 790.0,88.9 797.8,95.1 805.5,88.9 813.3,88.9 821.1,88.9 828.9,88.9 836.7,88.9 844.5,88.9 852.3,82.8 860.1,82.8 867.9,82.8 875.7,82.8 883.5,82.8 891.3,82.8 899.0,82.8 906.8,82.8 914.6,88.9 922.4,88.9 930.2,88.9 938.0,88.9"/><polyline fill="none" stroke="#f59e0b" stroke-width="2.5" stroke-linejoin="round" stroke-linecap="round" points="42.0,273.7 49.8,267.5 57.6,255.2 65.4,249.1 73.2,255.2 81.0,261.4 88.7,261.4 96.5,261.4 104.3,261.4 112.1,261.4 119.9,261.4 127.7,261.4 135.5,261.4 143.3,261.4 151.1,261.4 158.9,267.5 166.7,267.5 174.5,261.4 182.2,255.2 190.0,255.2 197.8,249.1 205.6,249.1 213.4,249.1 221.2,249.1 229.0,249.1 236.8,249.1 244.6,249.1 252.4,249.1 260.2,249.1 267.9,255.2 275.7,255.2 283.5,255.2 291.3,255.2 299.1,261.4 306.9,261.4 314.7,261.4 322.5,261.4 330.3,261.4 338.1,255.2 345.9,255.2 353.7,255.2 361.4,255.2 369.2,261.4 377.0,261.4 384.8,261.4 392.6,261.4 400.4,261.4 408.2,261.4 416.0,261.4 423.8,255.2 431.6,255.2 439.4,255.2 447.1,261.4 454.9,261.4 462.7,261.4 470.5,261.4 478.3,261.4 486.1,261.4 493.9,261.4 501.7,261.4 509.5,261.4 517.3,255.2 525.1,261.4 532.9,261.4 540.6,261.4 548.4,261.4 556.2,261.4 564.0,261.4 571.8,261.4 579.6,261.4 587.4,261.4 595.2,261.4 603.0,261.4 610.8,261.4 618.6,261.4 626.3,261.4 634.1,261.4 641.9,267.5 649.7,267.5 657.5,267.5 665.3,267.5 673.1,267.5 680.9,267.5 688.7,261.4 696.5,261.4 704.3,261.4 712.1,261.4 719.8,261.4 727.6,261.4 735.4,255.2 743.2,249.1 751.0,249.1 758.8,255.2 766.6,249.1 774.4,249.1 782.2,249.1 790.0,249.1 797.8,249.1 805.5,249.1 813.3,255.2 821.1,249.1 828.9,249.1 836.7,249.1 844.5,249.1 852.3,255.2 860.1,255.2 867.9,255.2 875.7,255.2 883.5,255.2 891.3,255.2 899.0,255.2 906.8,255.2 914.6,249.1 922.4,249.1 930.2,249.1 938.0,249.1"/><polyline fill="none" stroke="#ef4444" stroke-width="2.5" stroke-linejoin="round" stroke-linecap="round" points="42.0,286.0 49.8,132.1 57.6,286.0 65.4,286.0 73.2,286.0 81.0,286.0 88.7,286.0 96.5,286.0 104.3,286.0 112.1,286.0 119.9,286.0 127.7,286.0 135.5,286.0 143.3,286.0 151.1,286.0 158.9,286.0 166.7,286.0 174.5,279.8 182.2,286.0 190.0,286.0 197.8,286.0 205.6,286.0 213.4,286.0 221.2,286.0 229.0,286.0 236.8,286.0 244.6,286.0 252.4,286.0 260.2,286.0 267.9,286.0 275.7,286.0 283.5,286.0 291.3,286.0 299.1,286.0 306.9,286.0 314.7,286.0 322.5,286.0 330.3,286.0 338.1,286.0 345.9,286.0 353.7,286.0 361.4,286.0 369.2,286.0 377.0,286.0 384.8,286.0 392.6,286.0 400.4,286.0 408.2,286.0 416.0,286.0 423.8,286.0 431.6,286.0 439.4,286.0 447.1,286.0 454.9,286.0 462.7,286.0 470.5,286.0 478.3,286.0 486.1,286.0 493.9,286.0 501.7,286.0 509.5,286.0 517.3,286.0 525.1,286.0 532.9,286.0 540.6,286.0 548.4,286.0 556.2,286.0 564.0,279.8 571.8,286.0 579.6,286.0 587.4,286.0 595.2,286.0 603.0,286.0 610.8,286.0 618.6,286.0 626.3,286.0 634.1,286.0 641.9,286.0 649.7,286.0 657.5,286.0 665.3,286.0 673.1,279.8 680.9,286.0 688.7,286.0 696.5,286.0 704.3,286.0 712.1,286.0 719.8,286.0 727.6,286.0 735.4,286.0 743.2,286.0 751.0,286.0 758.8,279.8 766.6,286.0 774.4,286.0 782.2,286.0 790.0,286.0 797.8,279.8 805.5,286.0 813.3,286.0 821.1,286.0 828.9,286.0 836.7,286.0 844.5,286.0 852.3,286.0 860.1,286.0 867.9,286.0 875.7,286.0 883.5,286.0 891.3,286.0 899.0,286.0 906.8,286.0 914.6,286.0 922.4,286.0 930.2,286.0 938.0,286.0"/><polyline fill="none" stroke="#a855f7" stroke-width="2.5" stroke-linejoin="round" stroke-linecap="round" points="42.0,286.0 49.8,286.0 57.6,286.0 65.4,286.0 73.2,286.0 81.0,286.0 88.7,286.0 96.5,286.0 104.3,286.0 112.1,286.0 119.9,286.0 127.7,286.0 135.5,286.0 143.3,286.0 151.1,286.0 158.9,286.0 166.7,286.0 174.5,286.0 182.2,286.0 190.0,286.0 197.8,286.0 205.6,286.0 213.4,286.0 221.2,286.0 229.0,286.0 236.8,286.0 244.6,286.0 252.4,286.0 260.2,286.0 267.9,286.0 275.7,286.0 283.5,286.0 291.3,286.0 299.1,286.0 306.9,286.0 314.7,286.0 322.5,286.0 330.3,286.0 338.1,286.0 345.9,286.0 353.7,286.0 361.4,286.0 369.2,286.0 377.0,286.0 384.8,286.0 392.6,286.0 400.4,286.0 408.2,286.0 416.0,286.0 423.8,286.0 431.6,286.0 439.4,286.0 447.1,279.8 454.9,286.0 462.7,286.0 470.5,286.0 478.3,286.0 486.1,286.0 493.9,286.0 501.7,286.0 509.5,286.0 517.3,286.0 525.1,286.0 532.9,286.0 540.6,286.0 548.4,286.0 556.2,286.0 564.0,286.0 571.8,286.0 579.6,286.0 587.4,286.0 595.2,286.0 603.0,286.0 610.8,286.0 618.6,286.0 626.3,286.0 634.1,286.0 641.9,286.0 649.7,286.0 657.5,286.0 665.3,286.0 673.1,286.0 680.9,286.0 688.7,286.0 696.5,286.0 704.3,286.0 712.1,286.0 719.8,286.0 727.6,286.0 735.4,286.0 743.2,286.0 751.0,286.0 758.8,286.0 766.6,286.0 774.4,286.0 782.2,286.0 790.0,286.0 797.8,286.0 805.5,286.0 813.3,279.8 821.1,286.0 828.9,286.0 836.7,286.0 844.5,286.0 852.3,286.0 860.1,286.0 867.9,286.0 875.7,286.0 883.5,286.0 891.3,286.0 899.0,286.0 906.8,286.0 914.6,286.0 922.4,286.0 930.2,286.0 938.0,286.0"/><text x="42" y="308" font-size="11" fill="#5a688a">19/06 15:39</text><text x="938" y="308" text-anchor="end" font-size="11" fill="#5a688a">21/07 10:30</text></svg>