<svg xmlns="http://www.w3.org/2000/svg" viewBox="0 0 960 320" width="960" height="320" font-family="Segoe UI, system-ui, -apple-system, Roboto, Helvetica, Arial, sans-serif" role="img" aria-label="Availability history per region"><rect x="0.5" y="0.5" width="959" height="319" rx="14" fill="#0d1117" stroke="#2c3a5e"/><text x="42" y="26" font-size="14" font-weight="600" fill="#e6ecff">History · 97 points</text><circle cx="47" cy="40" r="5" fill="#22c55e"/><text x="57" y="44" font-size="12" fill="#9fb0d4">Available</text><circle cx="139.8" cy="40" r="5" fill="#f59e0b"/><text x="149.8" y="44" font-size="12" fill="#9fb0d4">Saturated</text><circle cx="232.60000000000002" cy="40" r="5" fill="#ef4444"/><text x="242.60000000000002" y="44" font-size="12" fill="#9fb0d4">Error</text><circle cx="296.6" cy="40" r="5" fill="#a855f7"/><text x="306.6" y="44" font-size="12" fill="#9fb0d4">Timeout</text><line x1="42" y1="286.0" x2="938" y2="286.0" stroke="#21304f" stroke-width="1"/><text x="35" y="289.0" text-anchor="end" font-size="11" fill="#9fb0d4">0</text><line x1="42" y1="227.5" x2="938" y2="227.5" stroke="#21304f" stroke-width="1"/><text x="35" y="230.5" text-anchor="end" font-size="11" fill="#9fb0d4">10</text><line x1="42" y1="169.0" x2="938" y2="169.0" stroke="#21304f" stroke-width="1"/><text x="35" y="172.0" text-anchor="end" font-size="11" fill="#9fb0d4">19</text><line x1="42" y1="110.5" x2="938" y2="110.5" stroke="#21304f" stroke-width="1"/><text x="35" y="113.5" text-anchor="end" font-size="11" fill="#9fb0d4">28</text><line x1="42" y1="52.0" x2="938" y2="52.0" stroke="#21304f" stroke-width="1"/><text x="35" y="55.0" text-anchor="end" font-size="11" fill="#9fb0d4">38</text><polyline fill="none" stroke="#22c55e" stroke-width="2.5" stroke-linejoin="round" stroke-linecap="round" points="42.0,64.3 51.3,224.4 60.7,82.8 70.0,88.9 79.3,82.8 88.7,76.6 98.0,76.6 107.3,76.6 116.7,76.6 126.0,76.6 135.3,76.6 144.7,76.6 154.0,76.6 163.3,76.6 172.7,76.6 182.0,70.5 191.3,70.5 200.7,82.8 210.0,82.8 219.3,82.8 228.7,88.9 238.0,88.9 247.3,88.9 256.7,88.9 266.0,88.9 275.3,88.9 284.7,88.9 294.0,88.9 303.3,88.9 312.7,82.8 322.0,82.8 331.3,82.8 340.7,82.8 350.0,76.6 359.3,76.6 368.7,76.6 378.0,76.6 387.3,76.6 396.7,82.8 406.0,82.8 415.3,82.8 424.7,82.8 434.0,76.6 443.3,76.6 452.7,76.6 462.0,76.6 471.3,76.6 480.7,76.6 490.0,76.6 499.3,82.8 508.7,82.8 518.0,82.8 527.3,82.8 536.7,76.6 546.0,76.6 555.3,76.6 564.7,76.6 574.0,76.6 583.3,76.6 592.7,76.6 602.0,76.6 611.3,82.8 620.7,76.6 630.0,76.6 639.3,76.6 648.7,76.6 658.0,76.6 667.3,82.8 676.7,76.6 686.0,76.6 695.3,76.6 704.7,76.6 714.0,76.6 723.3,76.6 732.7,76.6 742.0,76.6 751.3,76.6 760.7,70.5 770.0,70.5 779.3,70.5 788.7,70.5 798.0,76.6 807.3,70.5 816.7,76.6 826.0,76.6 835.3,76.6 844.7,76.6 854.0,76.6 863.3,76.6 872.7,82.8 882.0,88.9 891.3,88.9 900.7,88.9 910.0,88.9 919.3,88.9 928.7,88.9 938.0,88.9"/><polyline fill="none" stroke="#f59e0b" stroke-width="2.5" stroke-linejoin="round" stroke-linecap="round" points="42.0,273.7 51.3,267.5 60.7,255.2 70.0,249.1 79.3,255.2 88.7,261.4 98.0,261.4 107.3,261.4 116.7,261.4 126.0,261.4 135.3,261.4 144.7,261.4 154.0,261.4 163.3,261.4 172.7,261.4 182.0,267.5 191.3,267.5 200.7,261.4 210.0,255.2 219.3,255.2 228.7,249.1 238.0,249.1 247.3,249.1 256.7,249.1 266.0,249.1 275.3,249.1 284.7,249.1 294.0,249.1 303.3,249.1 312.7,255.2 322.0,255.2 331.3,255.2 340.7,255.2 350.0,261.4 359.3,261.4 368.7,261.4 378.0,261.4 387.3,261.4 396.7,255.2 406.0,255.2 415.3,255.2 424.7,255.2 434.0,261.4 443.3,261.4 452.7,261.4 462.0,261.4 471.3,261.4 480.7,261.4 490.0,261.4 499.3,255.2 508.7,255.2 518.0,255.2 527.3,261.4 536.7,261.4 546.0,261.4 555.3,261.4 564.7,261.4 574.0,261.4 583.3,261.4 592.7,261.4 602.0,261.4 611.3,255.2 620.7,261.4 630.0,261.4 639.3,261.4 648.7,261.4 658.0,261.4 667.3,261.4 676.7,261.4 686.0,261.4 695.3,261.4 704.7,261.4 714.0,261.4 723.3,261.4 732.7,261.4 742.0,261.4 751.3,261.4 760.7,267.5 770.0,267.5 779.3,267.5 788.7,267.5 798.0,267.5 807.3,267.5 816.7,261.4 826.0,261.4 835.3,261.4 844.7,261.4 854.0,261.4 863.3,261.4 872.7,255.2 882.0,249.1 891.3,249.1 900.7,255.2 910.0,249.1 919.3,249.1 928.7,249.1 938.0,249.1"/><polyline fill="none" stroke="#ef4444" stroke-width="2.5" stroke-linejoin="round" stroke-linecap="round" points="42.0,286.0 51.3,132.1 60.7,286.0 70.0,286.0 79.3,286.0 88.7,286.0 98.0,286.0 107.3,286.0 116.7,286.0 126.0,286.0 135.3,286.0 144.7,286.0 154.0,286.0 163.3,286.0 172.7,286.0 182.0,286.0 191.3,286.0 200.7,279.8 210.0,286.0 219.3,286.0 228.7,286.0 238.0,286.0 247.3,286.0 256.7,286.0 266.0,286.0 275.3,286.0 284.7,286.0 294.0,286.0 303.3,286.0 312.7,286.0 322.0,286.0 331.3,286.0 340.7,286.0 350.0,286.0 359.3,286.0 368.7,286.0 378.0,286.0 387.3,286.0 396.7,286.0 406.0,286.0 415.3,286.0 424.7,286.0 434.0,286.0 443.3,286.0 452.7,286.0 462.0,286.0 471.3,286.0 480.7,286.0 490.0,286.0 499.3,286.0 508.7,286.0 518.0,286.0 527.3,286.0 536.7,286.0 546.0,286.0 555.3,286.0 564.7,286.0 574.0,286.0 583.3,286.0 592.7,286.0 602.0,286.0 611.3,286.0 620.7,286.0 630.0,286.0 639.3,286.0 648.7,286.0 658.0,286.0 667.3,279.8 676.7,286.0 686.0,286.0 695.3,286.0 704.7,286.0 714.0,286.0 723.3,286.0 732.7,286.0 742.0,286.0 751.3,286.0 760.7,286.0 770.0,286.0 779.3,286.0 788.7,286.0 798.0,279.8 807.3,286.0 816.7,286.0 826.0,286.0 835.3,286.0 844.7,286.0 854.0,286.0 863.3,286.0 872.7,286.0 882.0,286.0 891.3,286.0 900.7,279.8 910.0,286.0 919.3,286.0 928.7,286.0 938.0,286.0"/><polyline fill="none" stroke="#a855f7" stroke-width="2.5" stroke-linejoin="round" stroke-linecap="round" points="42.0,286.0 51.3,286.0 60.7,286.0 70.0,286.0 79.3,286.0 88.7,286.0 98.0,286.0 107.3,286.0 116.7,286.0 126.0,286.0 135.3,286.0 144.7,286.0 154.0,286.0 163.3,286.0 172.7,286.0 182.0,286.0 191.3,286.0 200.7,286.0 210.0,286.0 219.3,286.0 228.7,286.0 238.0,286.0 247.3,286.0 256.7,286.0 266.0,286.0 275.3,286.0 284.7,286.0 294.0,286.0 303.3,286.0 312.7,286.0 322.0,286.0 331.3,286.0 340.7,286.0 350.0,286.0 359.3,286.0 368.7,286.0 378.0,286.0 387.3,286.0 396.7,286.0 406.0,286.0 415.3,286.0 424.7,286.0 434.0,286.0 443.3,286.0 452.7,286.0 462.0,286.0 471.3,286.0 480.7,286.0 490.0,286.0 499.3,286.0 508.7,286.0 518.0,286.0 527.3,279.8 536.7,286.0 546.0,286.0 555.3,286.0 564.7,286.0 574.0,286.0 583.3,286.0 592.7,286.0 602.0,286.0 611.3,286.0 620.7,286.0 630.0,286.0 639.3,286.0 648.7,286.0 658.0,286.0 667.3,286.0 676.7,286.0 686.0,286.0 695.3,286.0 704.7,286.0 714.0,286.0 723.3,286.0 732.7,286.0 742.0,286.0 751.3,286.0 760.7,286.0 770.0,286.0 779.3,286.0 788.7,286.0 798.0,286.0 807.3,286.0 816.7,286.0 826.0,286.0 835.3,286.0 844.7,286.0 854.0,286.0 863.3,286.0 872.7,286.0 882.0,286.0 891.3,286.0 900.7,286.0 910.0,286.0 919.3,286.0 928.7,286.0 938.0,286.0"/><text x="42" y="308" font-size="11" fill="#9fb0d4">19/06 15:39</text><text x="938" y="308" text-anchor="end" font-size="11" fill="#9fb0d4">20/07 15:29</text></svg>