<svg xmlns="http://www.w3.org/2000/svg" viewBox="0 0 960 320" width="960" height="320" font-family="Segoe UI, system-ui, -apple-system, Roboto, Helvetica, Arial, sans-serif" role="img" aria-label="Availability history per region"><rect x="0.5" y="0.5" width="959" height="319" rx="14" fill="#0d1117" stroke="#2c3a5e"/><text x="42" y="26" font-size="14" font-weight="600" fill="#e6ecff">History · 54 points</text><circle cx="47" cy="40" r="5" fill="#22c55e"/><text x="57" y="44" font-size="12" fill="#9fb0d4">Available</text><circle cx="139.8" cy="40" r="5" fill="#f59e0b"/><text x="149.8" y="44" font-size="12" fill="#9fb0d4">Saturated</text><circle cx="232.60000000000002" cy="40" r="5" fill="#ef4444"/><text x="242.60000000000002" y="44" font-size="12" fill="#9fb0d4">Error</text><line x1="42" y1="286.0" x2="938" y2="286.0" stroke="#21304f" stroke-width="1"/><text x="35" y="289.0" text-anchor="end" font-size="11" fill="#9fb0d4">0</text><line x1="42" y1="227.5" x2="938" y2="227.5" stroke="#21304f" stroke-width="1"/><text x="35" y="230.5" text-anchor="end" font-size="11" fill="#9fb0d4">10</text><line x1="42" y1="169.0" x2="938" y2="169.0" stroke="#21304f" stroke-width="1"/><text x="35" y="172.0" text-anchor="end" font-size="11" fill="#9fb0d4">20</text><line x1="42" y1="110.5" x2="938" y2="110.5" stroke="#21304f" stroke-width="1"/><text x="35" y="113.5" text-anchor="end" font-size="11" fill="#9fb0d4">29</text><line x1="42" y1="52.0" x2="938" y2="52.0" stroke="#21304f" stroke-width="1"/><text x="35" y="55.0" text-anchor="end" font-size="11" fill="#9fb0d4">39</text><polyline fill="none" stroke="#22c55e" stroke-width="2.5" stroke-linejoin="round" stroke-linecap="round" points="42.0,70.0 58.9,70.0 75.8,88.0 92.7,88.0 109.6,76.0 126.5,76.0 143.4,76.0 160.3,70.0 177.2,76.0 194.2,70.0 211.1,64.0 228.0,58.0 244.9,58.0 261.8,58.0 278.7,58.0 295.6,58.0 312.5,58.0 329.4,58.0 346.3,58.0 363.2,58.0 380.1,58.0 397.0,58.0 413.9,58.0 430.8,58.0 447.7,58.0 464.6,58.0 481.5,58.0 498.5,58.0 515.4,58.0 532.3,58.0 549.2,58.0 566.1,70.0 583.0,76.0 599.9,94.0 616.8,64.0 633.7,64.0 650.6,58.0 667.5,58.0 684.4,58.0 701.3,70.0 718.2,76.0 735.1,76.0 752.0,82.0 768.9,82.0 785.8,82.0 802.8,82.0 819.7,76.0 836.6,64.0 853.5,70.0 870.4,70.0 887.3,82.0 904.2,76.0 921.1,76.0 938.0,82.0"/><circle cx="42.0" cy="70.0" r="2.5" fill="#22c55e"/><circle cx="58.9" cy="70.0" r="2.5" fill="#22c55e"/><circle cx="75.8" cy="88.0" r="2.5" fill="#22c55e"/><circle cx="92.7" cy="88.0" r="2.5" fill="#22c55e"/><circle cx="109.6" cy="76.0" r="2.5" fill="#22c55e"/><circle cx="126.5" cy="76.0" r="2.5" fill="#22c55e"/><circle cx="143.4" cy="76.0" r="2.5" fill="#22c55e"/><circle cx="160.3" cy="70.0" r="2.5" fill="#22c55e"/><circle cx="177.2" cy="76.0" r="2.5" fill="#22c55e"/><circle cx="194.2" cy="70.0" r="2.5" fill="#22c55e"/><circle cx="211.1" cy="64.0" r="2.5" fill="#22c55e"/><circle cx="228.0" cy="58.0" r="2.5" fill="#22c55e"/><circle cx="244.9" cy="58.0" r="2.5" fill="#22c55e"/><circle cx="261.8" cy="58.0" r="2.5" fill="#22c55e"/><circle cx="278.7" cy="58.0" r="2.5" fill="#22c55e"/><circle cx="295.6" cy="58.0" r="2.5" fill="#22c55e"/><circle cx="312.5" cy="58.0" r="2.5" fill="#22c55e"/><circle cx="329.4" cy="58.0" r="2.5" fill="#22c55e"/><circle cx="346.3" cy="58.0" r="2.5" fill="#22c55e"/><circle cx="363.2" cy="58.0" r="2.5" fill="#22c55e"/><circle cx="380.1" cy="58.0" r="2.5" fill="#22c55e"/><circle cx="397.0" cy="58.0" r="2.5" fill="#22c55e"/><circle cx="413.9" cy="58.0" r="2.5" fill="#22c55e"/><circle cx="430.8" cy="58.0" r="2.5" fill="#22c55e"/><circle cx="447.7" cy="58.0" r="2.5" fill="#22c55e"/><circle cx="464.6" cy="58.0" r="2.5" fill="#22c55e"/><circle cx="481.5" cy="58.0" r="2.5" fill="#22c55e"/><circle cx="498.5" cy="58.0" r="2.5" fill="#22c55e"/><circle cx="515.4" cy="58.0" r="2.5" fill="#22c55e"/><circle cx="532.3" cy="58.0" r="2.5" fill="#22c55e"/><circle cx="549.2" cy="58.0" r="2.5" fill="#22c55e"/><circle cx="566.1" cy="70.0" r="2.5" fill="#22c55e"/><circle cx="583.0" cy="76.0" r="2.5" fill="#22c55e"/><circle cx="599.9" cy="94.0" r="2.5" fill="#22c55e"/><circle cx="616.8" cy="64.0" r="2.5" fill="#22c55e"/><circle cx="633.7" cy="64.0" r="2.5" fill="#22c55e"/><circle cx="650.6" cy="58.0" r="2.5" fill="#22c55e"/><circle cx="667.5" cy="58.0" r="2.5" fill="#22c55e"/><circle cx="684.4" cy="58.0" r="2.5" fill="#22c55e"/><circle cx="701.3" cy="70.0" r="2.5" fill="#22c55e"/><circle cx="718.2" cy="76.0" r="2.5" fill="#22c55e"/><circle cx="735.1" cy="76.0" r="2.5" fill="#22c55e"/><circle cx="752.0" cy="82.0" r="2.5" fill="#22c55e"/><circle cx="768.9" cy="82.0" r="2.5" fill="#22c55e"/><circle cx="785.8" cy="82.0" r="2.5" fill="#22c55e"/><circle cx="802.8" cy="82.0" r="2.5" fill="#22c55e"/><circle cx="819.7" cy="76.0" r="2.5" fill="#22c55e"/><circle cx="836.6" cy="64.0" r="2.5" fill="#22c55e"/><circle cx="853.5" cy="70.0" r="2.5" fill="#22c55e"/><circle cx="870.4" cy="70.0" r="2.5" fill="#22c55e"/><circle cx="887.3" cy="82.0" r="2.5" fill="#22c55e"/><circle cx="904.2" cy="76.0" r="2.5" fill="#22c55e"/><circle cx="921.1" cy="76.0" r="2.5" fill="#22c55e"/><circle cx="938.0" cy="82.0" r="2.5" fill="#22c55e"/><polyline fill="none" stroke="#f59e0b" stroke-width="2.5" stroke-linejoin="round" stroke-linecap="round" points="42.0,274.0 58.9,274.0 75.8,274.0 92.7,280.0 109.6,268.0 126.5,268.0 143.4,268.0 160.3,274.0 177.2,274.0 194.2,274.0 211.1,280.0 228.0,286.0 244.9,286.0 261.8,286.0 278.7,286.0 295.6,286.0 312.5,286.0 329.4,286.0 346.3,286.0 363.2,286.0 380.1,286.0 397.0,286.0 413.9,286.0 430.8,286.0 447.7,286.0 464.6,286.0 481.5,286.0 498.5,286.0 515.4,286.0 532.3,286.0 549.2,286.0 566.1,274.0 583.0,280.0 599.9,280.0 616.8,280.0 633.7,280.0 650.6,286.0 667.5,286.0 684.4,286.0 701.3,274.0 718.2,268.0 735.1,268.0 752.0,262.0 768.9,262.0 785.8,262.0 802.8,262.0 819.7,268.0 836.6,280.0 853.5,280.0 870.4,274.0 887.3,262.0 904.2,268.0 921.1,268.0 938.0,262.0"/><circle cx="42.0" cy="274.0" r="2.5" fill="#f59e0b"/><circle cx="58.9" cy="274.0" r="2.5" fill="#f59e0b"/><circle cx="75.8" cy="274.0" r="2.5" fill="#f59e0b"/><circle cx="92.7" cy="280.0" r="2.5" fill="#f59e0b"/><circle cx="109.6" cy="268.0" r="2.5" fill="#f59e0b"/><circle cx="126.5" cy="268.0" r="2.5" fill="#f59e0b"/><circle cx="143.4" cy="268.0" r="2.5" fill="#f59e0b"/><circle cx="160.3" cy="274.0" r="2.5" fill="#f59e0b"/><circle cx="177.2" cy="274.0" r="2.5" fill="#f59e0b"/><circle cx="194.2" cy="274.0" r="2.5" fill="#f59e0b"/><circle cx="211.1" cy="280.0" r="2.5" fill="#f59e0b"/><circle cx="228.0" cy="286.0" r="2.5" fill="#f59e0b"/><circle cx="244.9" cy="286.0" r="2.5" fill="#f59e0b"/><circle cx="261.8" cy="286.0" r="2.5" fill="#f59e0b"/><circle cx="278.7" cy="286.0" r="2.5" fill="#f59e0b"/><circle cx="295.6" cy="286.0" r="2.5" fill="#f59e0b"/><circle cx="312.5" cy="286.0" r="2.5" fill="#f59e0b"/><circle cx="329.4" cy="286.0" r="2.5" fill="#f59e0b"/><circle cx="346.3" cy="286.0" r="2.5" fill="#f59e0b"/><circle cx="363.2" cy="286.0" r="2.5" fill="#f59e0b"/><circle cx="380.1" cy="286.0" r="2.5" fill="#f59e0b"/><circle cx="397.0" cy="286.0" r="2.5" fill="#f59e0b"/><circle cx="413.9" cy="286.0" r="2.5" fill="#f59e0b"/><circle cx="430.8" cy="286.0" r="2.5" fill="#f59e0b"/><circle cx="447.7" cy="286.0" r="2.5" fill="#f59e0b"/><circle cx="464.6" cy="286.0" r="2.5" fill="#f59e0b"/><circle cx="481.5" cy="286.0" r="2.5" fill="#f59e0b"/><circle cx="498.5" cy="286.0" r="2.5" fill="#f59e0b"/><circle cx="515.4" cy="286.0" r="2.5" fill="#f59e0b"/><circle cx="532.3" cy="286.0" r="2.5" fill="#f59e0b"/><circle cx="549.2" cy="286.0" r="2.5" fill="#f59e0b"/><circle cx="566.1" cy="274.0" r="2.5" fill="#f59e0b"/><circle cx="583.0" cy="280.0" r="2.5" fill="#f59e0b"/><circle cx="599.9" cy="280.0" r="2.5" fill="#f59e0b"/><circle cx="616.8" cy="280.0" r="2.5" fill="#f59e0b"/><circle cx="633.7" cy="280.0" r="2.5" fill="#f59e0b"/><circle cx="650.6" cy="286.0" r="2.5" fill="#f59e0b"/><circle cx="667.5" cy="286.0" r="2.5" fill="#f59e0b"/><circle cx="684.4" cy="286.0" r="2.5" fill="#f59e0b"/><circle cx="701.3" cy="274.0" r="2.5" fill="#f59e0b"/><circle cx="718.2" cy="268.0" r="2.5" fill="#f59e0b"/><circle cx="735.1" cy="268.0" r="2.5" fill="#f59e0b"/><circle cx="752.0" cy="262.0" r="2.5" fill="#f59e0b"/><circle cx="768.9" cy="262.0" r="2.5" fill="#f59e0b"/><circle cx="785.8" cy="262.0" r="2.5" fill="#f59e0b"/><circle cx="802.8" cy="262.0" r="2.5" fill="#f59e0b"/><circle cx="819.7" cy="268.0" r="2.5" fill="#f59e0b"/><circle cx="836.6" cy="280.0" r="2.5" fill="#f59e0b"/><circle cx="853.5" cy="280.0" r="2.5" fill="#f59e0b"/><circle cx="870.4" cy="274.0" r="2.5" fill="#f59e0b"/><circle cx="887.3" cy="262.0" r="2.5" fill="#f59e0b"/><circle cx="904.2" cy="268.0" r="2.5" fill="#f59e0b"/><circle cx="921.1" cy="268.0" r="2.5" fill="#f59e0b"/><circle cx="938.0" cy="262.0" r="2.5" fill="#f59e0b"/><polyline fill="none" stroke="#ef4444" stroke-width="2.5" stroke-linejoin="round" stroke-linecap="round" points="42.0,280.0 58.9,280.0 75.8,268.0 92.7,262.0 109.6,286.0 126.5,286.0 143.4,286.0 160.3,286.0 177.2,280.0 194.2,286.0 211.1,286.0 228.0,286.0 244.9,286.0 261.8,286.0 278.7,286.0 295.6,286.0 312.5,286.0 329.4,286.0 346.3,286.0 363.2,286.0 380.1,286.0 397.0,286.0 413.9,286.0 430.8,286.0 447.7,286.0 464.6,286.0 481.5,286.0 498.5,286.0 515.4,286.0 532.3,286.0 549.2,286.0 566.1,286.0 583.0,274.0 599.9,256.0 616.8,286.0 633.7,286.0 650.6,286.0 667.5,286.0 684.4,286.0 701.3,286.0 718.2,286.0 735.1,286.0 752.0,286.0 768.9,286.0 785.8,286.0 802.8,286.0 819.7,286.0 836.6,286.0 853.5,280.0 870.4,286.0 887.3,286.0 904.2,286.0 921.1,286.0 938.0,286.0"/><circle cx="42.0" cy="280.0" r="2.5" fill="#ef4444"/><circle cx="58.9" cy="280.0" r="2.5" fill="#ef4444"/><circle cx="75.8" cy="268.0" r="2.5" fill="#ef4444"/><circle cx="92.7" cy="262.0" r="2.5" fill="#ef4444"/><circle cx="109.6" cy="286.0" r="2.5" fill="#ef4444"/><circle cx="126.5" cy="286.0" r="2.5" fill="#ef4444"/><circle cx="143.4" cy="286.0" r="2.5" fill="#ef4444"/><circle cx="160.3" cy="286.0" r="2.5" fill="#ef4444"/><circle cx="177.2" cy="280.0" r="2.5" fill="#ef4444"/><circle cx="194.2" cy="286.0" r="2.5" fill="#ef4444"/><circle cx="211.1" cy="286.0" r="2.5" fill="#ef4444"/><circle cx="228.0" cy="286.0" r="2.5" fill="#ef4444"/><circle cx="244.9" cy="286.0" r="2.5" fill="#ef4444"/><circle cx="261.8" cy="286.0" r="2.5" fill="#ef4444"/><circle cx="278.7" cy="286.0" r="2.5" fill="#ef4444"/><circle cx="295.6" cy="286.0" r="2.5" fill="#ef4444"/><circle cx="312.5" cy="286.0" r="2.5" fill="#ef4444"/><circle cx="329.4" cy="286.0" r="2.5" fill="#ef4444"/><circle cx="346.3" cy="286.0" r="2.5" fill="#ef4444"/><circle cx="363.2" cy="286.0" r="2.5" fill="#ef4444"/><circle cx="380.1" cy="286.0" r="2.5" fill="#ef4444"/><circle cx="397.0" cy="286.0" r="2.5" fill="#ef4444"/><circle cx="413.9" cy="286.0" r="2.5" fill="#ef4444"/><circle cx="430.8" cy="286.0" r="2.5" fill="#ef4444"/><circle cx="447.7" cy="286.0" r="2.5" fill="#ef4444"/><circle cx="464.6" cy="286.0" r="2.5" fill="#ef4444"/><circle cx="481.5" cy="286.0" r="2.5" fill="#ef4444"/><circle cx="498.5" cy="286.0" r="2.5" fill="#ef4444"/><circle cx="515.4" cy="286.0" r="2.5" fill="#ef4444"/><circle cx="532.3" cy="286.0" r="2.5" fill="#ef4444"/><circle cx="549.2" cy="286.0" r="2.5" fill="#ef4444"/><circle cx="566.1" cy="286.0" r="2.5" fill="#ef4444"/><circle cx="583.0" cy="274.0" r="2.5" fill="#ef4444"/><circle cx="599.9" cy="256.0" r="2.5" fill="#ef4444"/><circle cx="616.8" cy="286.0" r="2.5" fill="#ef4444"/><circle cx="633.7" cy="286.0" r="2.5" fill="#ef4444"/><circle cx="650.6" cy="286.0" r="2.5" fill="#ef4444"/><circle cx="667.5" cy="286.0" r="2.5" fill="#ef4444"/><circle cx="684.4" cy="286.0" r="2.5" fill="#ef4444"/><circle cx="701.3" cy="286.0" r="2.5" fill="#ef4444"/><circle cx="718.2" cy="286.0" r="2.5" fill="#ef4444"/><circle cx="735.1" cy="286.0" r="2.5" fill="#ef4444"/><circle cx="752.0" cy="286.0" r="2.5" fill="#ef4444"/><circle cx="768.9" cy="286.0" r="2.5" fill="#ef4444"/><circle cx="785.8" cy="286.0" r="2.5" fill="#ef4444"/><circle cx="802.8" cy="286.0" r="2.5" fill="#ef4444"/><circle cx="819.7" cy="286.0" r="2.5" fill="#ef4444"/><circle cx="836.6" cy="286.0" r="2.5" fill="#ef4444"/><circle cx="853.5" cy="280.0" r="2.5" fill="#ef4444"/><circle cx="870.4" cy="286.0" r="2.5" fill="#ef4444"/><circle cx="887.3" cy="286.0" r="2.5" fill="#ef4444"/><circle cx="904.2" cy="286.0" r="2.5" fill="#ef4444"/><circle cx="921.1" cy="286.0" r="2.5" fill="#ef4444"/><circle cx="938.0" cy="286.0" r="2.5" fill="#ef4444"/><text x="42" y="308" font-size="11" fill="#9fb0d4">19/06 12:43</text><text x="938" y="308" text-anchor="end" font-size="11" fill="#9fb0d4">24/06 15:22</text></svg>