<svg xmlns="http://www.w3.org/2000/svg" viewBox="0 0 960 320" width="960" height="320" font-family="Segoe UI, system-ui, -apple-system, Roboto, Helvetica, Arial, sans-serif" role="img" aria-label="Availability history per region"><rect x="0.5" y="0.5" width="959" height="319" rx="14" fill="#0d1117" stroke="#2c3a5e"/><text x="42" y="26" font-size="14" font-weight="600" fill="#e6ecff">History · 93 points</text><circle cx="47" cy="40" r="5" fill="#22c55e"/><text x="57" y="44" font-size="12" fill="#9fb0d4">Available</text><circle cx="139.8" cy="40" r="5" fill="#f59e0b"/><text x="149.8" y="44" font-size="12" fill="#9fb0d4">Saturated</text><circle cx="232.60000000000002" cy="40" r="5" fill="#ef4444"/><text x="242.60000000000002" y="44" font-size="12" fill="#9fb0d4">Error</text><circle cx="296.6" cy="40" r="5" fill="#a855f7"/><text x="306.6" y="44" font-size="12" fill="#9fb0d4">Timeout</text><line x1="42" y1="286.0" x2="938" y2="286.0" stroke="#21304f" stroke-width="1"/><text x="35" y="289.0" text-anchor="end" font-size="11" fill="#9fb0d4">0</text><line x1="42" y1="227.5" x2="938" y2="227.5" stroke="#21304f" stroke-width="1"/><text x="35" y="230.5" text-anchor="end" font-size="11" fill="#9fb0d4">10</text><line x1="42" y1="169.0" x2="938" y2="169.0" stroke="#21304f" stroke-width="1"/><text x="35" y="172.0" text-anchor="end" font-size="11" fill="#9fb0d4">19</text><line x1="42" y1="110.5" x2="938" y2="110.5" stroke="#21304f" stroke-width="1"/><text x="35" y="113.5" text-anchor="end" font-size="11" fill="#9fb0d4">28</text><line x1="42" y1="52.0" x2="938" y2="52.0" stroke="#21304f" stroke-width="1"/><text x="35" y="55.0" text-anchor="end" font-size="11" fill="#9fb0d4">38</text><polyline fill="none" stroke="#22c55e" stroke-width="2.5" stroke-linejoin="round" stroke-linecap="round" points="42.0,64.3 51.7,224.4 61.5,82.8 71.2,88.9 81.0,82.8 90.7,76.6 100.4,76.6 110.2,76.6 119.9,76.6 129.7,76.6 139.4,76.6 149.1,76.6 158.9,76.6 168.6,76.6 178.3,76.6 188.1,70.5 197.8,70.5 207.6,82.8 217.3,82.8 227.0,82.8 236.8,88.9 246.5,88.9 256.3,88.9 266.0,88.9 275.7,88.9 285.5,88.9 295.2,88.9 305.0,88.9 314.7,88.9 324.4,82.8 334.2,82.8 343.9,82.8 353.7,82.8 363.4,76.6 373.1,76.6 382.9,76.6 392.6,76.6 402.3,76.6 412.1,82.8 421.8,82.8 431.6,82.8 441.3,82.8 451.0,76.6 460.8,76.6 470.5,76.6 480.3,76.6 490.0,76.6 499.7,76.6 509.5,76.6 519.2,82.8 529.0,82.8 538.7,82.8 548.4,82.8 558.2,76.6 567.9,76.6 577.7,76.6 587.4,76.6 597.1,76.6 606.9,76.6 616.6,76.6 626.3,76.6 636.1,82.8 645.8,76.6 655.6,76.6 665.3,76.6 675.0,76.6 684.8,76.6 694.5,82.8 704.3,76.6 714.0,76.6 723.7,76.6 733.5,76.6 743.2,76.6 753.0,76.6 762.7,76.6 772.4,76.6 782.2,76.6 791.9,70.5 801.7,70.5 811.4,70.5 821.1,70.5 830.9,76.6 840.6,70.5 850.3,76.6 860.1,76.6 869.8,76.6 879.6,76.6 889.3,76.6 899.0,76.6 908.8,82.8 918.5,88.9 928.3,88.9 938.0,88.9"/><polyline fill="none" stroke="#f59e0b" stroke-width="2.5" stroke-linejoin="round" stroke-linecap="round" points="42.0,273.7 51.7,267.5 61.5,255.2 71.2,249.1 81.0,255.2 90.7,261.4 100.4,261.4 110.2,261.4 119.9,261.4 129.7,261.4 139.4,261.4 149.1,261.4 158.9,261.4 168.6,261.4 178.3,261.4 188.1,267.5 197.8,267.5 207.6,261.4 217.3,255.2 227.0,255.2 236.8,249.1 246.5,249.1 256.3,249.1 266.0,249.1 275.7,249.1 285.5,249.1 295.2,249.1 305.0,249.1 314.7,249.1 324.4,255.2 334.2,255.2 343.9,255.2 353.7,255.2 363.4,261.4 373.1,261.4 382.9,261.4 392.6,261.4 402.3,261.4 412.1,255.2 421.8,255.2 431.6,255.2 441.3,255.2 451.0,261.4 460.8,261.4 470.5,261.4 480.3,261.4 490.0,261.4 499.7,261.4 509.5,261.4 519.2,255.2 529.0,255.2 538.7,255.2 548.4,261.4 558.2,261.4 567.9,261.4 577.7,261.4 587.4,261.4 597.1,261.4 606.9,261.4 616.6,261.4 626.3,261.4 636.1,255.2 645.8,261.4 655.6,261.4 665.3,261.4 675.0,261.4 684.8,261.4 694.5,261.4 704.3,261.4 714.0,261.4 723.7,261.4 733.5,261.4 743.2,261.4 753.0,261.4 762.7,261.4 772.4,261.4 782.2,261.4 791.9,267.5 801.7,267.5 811.4,267.5 821.1,267.5 830.9,267.5 840.6,267.5 850.3,261.4 860.1,261.4 869.8,261.4 879.6,261.4 889.3,261.4 899.0,261.4 908.8,255.2 918.5,249.1 928.3,249.1 938.0,255.2"/><polyline fill="none" stroke="#ef4444" stroke-width="2.5" stroke-linejoin="round" stroke-linecap="round" points="42.0,286.0 51.7,132.1 61.5,286.0 71.2,286.0 81.0,286.0 90.7,286.0 100.4,286.0 110.2,286.0 119.9,286.0 129.7,286.0 139.4,286.0 149.1,286.0 158.9,286.0 168.6,286.0 178.3,286.0 188.1,286.0 197.8,286.0 207.6,279.8 217.3,286.0 227.0,286.0 236.8,286.0 246.5,286.0 256.3,286.0 266.0,286.0 275.7,286.0 285.5,286.0 295.2,286.0 305.0,286.0 314.7,286.0 324.4,286.0 334.2,286.0 343.9,286.0 353.7,286.0 363.4,286.0 373.1,286.0 382.9,286.0 392.6,286.0 402.3,286.0 412.1,286.0 421.8,286.0 431.6,286.0 441.3,286.0 451.0,286.0 460.8,286.0 470.5,286.0 480.3,286.0 490.0,286.0 499.7,286.0 509.5,286.0 519.2,286.0 529.0,286.0 538.7,286.0 548.4,286.0 558.2,286.0 567.9,286.0 577.7,286.0 587.4,286.0 597.1,286.0 606.9,286.0 616.6,286.0 626.3,286.0 636.1,286.0 645.8,286.0 655.6,286.0 665.3,286.0 675.0,286.0 684.8,286.0 694.5,279.8 704.3,286.0 714.0,286.0 723.7,286.0 733.5,286.0 743.2,286.0 753.0,286.0 762.7,286.0 772.4,286.0 782.2,286.0 791.9,286.0 801.7,286.0 811.4,286.0 821.1,286.0 830.9,279.8 840.6,286.0 850.3,286.0 860.1,286.0 869.8,286.0 879.6,286.0 889.3,286.0 899.0,286.0 908.8,286.0 918.5,286.0 928.3,286.0 938.0,279.8"/><polyline fill="none" stroke="#a855f7" stroke-width="2.5" stroke-linejoin="round" stroke-linecap="round" points="42.0,286.0 51.7,286.0 61.5,286.0 71.2,286.0 81.0,286.0 90.7,286.0 100.4,286.0 110.2,286.0 119.9,286.0 129.7,286.0 139.4,286.0 149.1,286.0 158.9,286.0 168.6,286.0 178.3,286.0 188.1,286.0 197.8,286.0 207.6,286.0 217.3,286.0 227.0,286.0 236.8,286.0 246.5,286.0 256.3,286.0 266.0,286.0 275.7,286.0 285.5,286.0 295.2,286.0 305.0,286.0 314.7,286.0 324.4,286.0 334.2,286.0 343.9,286.0 353.7,286.0 363.4,286.0 373.1,286.0 382.9,286.0 392.6,286.0 402.3,286.0 412.1,286.0 421.8,286.0 431.6,286.0 441.3,286.0 451.0,286.0 460.8,286.0 470.5,286.0 480.3,286.0 490.0,286.0 499.7,286.0 509.5,286.0 519.2,286.0 529.0,286.0 538.7,286.0 548.4,279.8 558.2,286.0 567.9,286.0 577.7,286.0 587.4,286.0 597.1,286.0 606.9,286.0 616.6,286.0 626.3,286.0 636.1,286.0 645.8,286.0 655.6,286.0 665.3,286.0 675.0,286.0 684.8,286.0 694.5,286.0 704.3,286.0 714.0,286.0 723.7,286.0 733.5,286.0 743.2,286.0 753.0,286.0 762.7,286.0 772.4,286.0 782.2,286.0 791.9,286.0 801.7,286.0 811.4,286.0 821.1,286.0 830.9,286.0 840.6,286.0 850.3,286.0 860.1,286.0 869.8,286.0 879.6,286.0 889.3,286.0 899.0,286.0 908.8,286.0 918.5,286.0 928.3,286.0 938.0,286.0"/><text x="42" y="308" font-size="11" fill="#9fb0d4">19/06 15:39</text><text x="938" y="308" text-anchor="end" font-size="11" fill="#9fb0d4">20/07 11:29</text></svg>