<svg xmlns="http://www.w3.org/2000/svg" viewBox="0 0 960 320" width="960" height="320" font-family="Segoe UI, system-ui, -apple-system, Roboto, Helvetica, Arial, sans-serif" role="img" aria-label="Availability history per region"><rect x="0.5" y="0.5" width="959" height="319" rx="14" fill="#0d1117" stroke="#2c3a5e"/><text x="42" y="26" font-size="14" font-weight="600" fill="#e6ecff">History · 336 points</text><circle cx="47" cy="40" r="5" fill="#22c55e"/><text x="57" y="44" font-size="12" fill="#9fb0d4">Available</text><circle cx="139.8" cy="40" r="5" fill="#f59e0b"/><text x="149.8" y="44" font-size="12" fill="#9fb0d4">Saturated</text><circle cx="232.60000000000002" cy="40" r="5" fill="#ef4444"/><text x="242.60000000000002" y="44" font-size="12" fill="#9fb0d4">Error</text><circle cx="296.6" cy="40" r="5" fill="#a855f7"/><text x="306.6" y="44" font-size="12" fill="#9fb0d4">Timeout</text><line x1="42" y1="286.0" x2="938" y2="286.0" stroke="#21304f" stroke-width="1"/><text x="35" y="289.0" text-anchor="end" font-size="11" fill="#9fb0d4">0</text><line x1="42" y1="227.5" x2="938" y2="227.5" stroke="#21304f" stroke-width="1"/><text x="35" y="230.5" text-anchor="end" font-size="11" fill="#9fb0d4">10</text><line x1="42" y1="169.0" x2="938" y2="169.0" stroke="#21304f" stroke-width="1"/><text x="35" y="172.0" text-anchor="end" font-size="11" fill="#9fb0d4">19</text><line x1="42" y1="110.5" x2="938" y2="110.5" stroke="#21304f" stroke-width="1"/><text x="35" y="113.5" text-anchor="end" font-size="11" fill="#9fb0d4">28</text><line x1="42" y1="52.0" x2="938" y2="52.0" stroke="#21304f" stroke-width="1"/><text x="35" y="55.0" text-anchor="end" font-size="11" fill="#9fb0d4">38</text><polyline fill="none" stroke="#22c55e" stroke-width="2.5" stroke-linejoin="round" stroke-linecap="round" points="42.0,82.8 44.7,82.8 47.3,82.8 50.0,88.9 52.7,88.9 55.4,101.3 58.0,88.9 60.7,88.9 63.4,88.9 66.1,88.9 68.7,82.8 71.4,82.8 74.1,76.6 76.8,70.5 79.4,70.5 82.1,70.5 84.8,70.5 87.5,70.5 90.1,70.5 92.8,64.3 95.5,64.3 98.2,64.3 100.8,70.5 103.5,82.8 106.2,76.6 108.9,64.3 111.5,64.3 114.2,64.3 116.9,70.5 119.6,70.5 122.2,70.5 124.9,76.6 127.6,64.3 130.3,70.5 132.9,58.2 135.6,64.3 138.3,52.0 141.0,52.0 143.6,52.0 146.3,52.0 149.0,52.0 151.7,58.2 154.3,52.0 157.0,58.2 159.7,52.0 162.4,52.0 165.0,52.0 167.7,52.0 170.4,58.2 173.1,58.2 175.7,58.2 178.4,70.5 181.1,64.3 183.8,76.6 186.4,64.3 189.1,70.5 191.8,52.0 194.5,58.2 197.1,52.0 199.8,58.2 202.5,52.0 205.2,52.0 207.8,52.0 210.5,58.2 213.2,64.3 215.9,58.2 218.5,58.2 221.2,58.2 223.9,64.3 226.5,64.3 229.2,58.2 231.9,64.3 234.6,64.3 237.2,64.3 239.9,52.0 242.6,52.0 245.3,52.0 247.9,52.0 250.6,52.0 253.3,58.2 256.0,52.0 258.6,52.0 261.3,52.0 264.0,52.0 266.7,52.0 269.3,52.0 272.0,52.0 274.7,52.0 277.4,58.2 280.0,52.0 282.7,52.0 285.4,52.0 288.1,52.0 290.7,52.0 293.4,52.0 296.1,52.0 298.8,58.2 301.4,52.0 304.1,52.0 306.8,52.0 309.5,52.0 312.1,52.0 314.8,52.0 317.5,52.0 320.2,52.0 322.8,52.0 325.5,52.0 328.2,52.0 330.9,52.0 333.5,52.0 336.2,52.0 338.9,52.0 341.6,52.0 344.2,52.0 346.9,52.0 349.6,52.0 352.3,58.2 354.9,58.2 357.6,52.0 360.3,52.0 363.0,52.0 365.6,58.2 368.3,58.2 371.0,70.5 373.7,58.2 376.3,58.2 379.0,64.3 381.7,52.0 384.4,52.0 387.0,52.0 389.7,52.0 392.4,52.0 395.1,52.0 397.7,64.3 400.4,58.2 403.1,58.2 405.7,58.2 408.4,58.2 411.1,64.3 413.8,64.3 416.4,70.5 419.1,70.5 421.8,76.6 424.5,82.8 427.1,76.6 429.8,76.6 432.5,82.8 435.2,76.6 437.8,70.5 440.5,70.5 443.2,64.3 445.9,58.2 448.5,58.2 451.2,70.5 453.9,70.5 456.6,64.3 459.2,70.5 461.9,64.3 464.6,64.3 467.3,64.3 469.9,76.6 472.6,64.3 475.3,70.5 478.0,64.3 480.6,70.5 483.3,64.3 486.0,70.5 488.7,64.3 491.3,64.3 494.0,76.6 496.7,70.5 499.4,70.5 502.0,70.5 504.7,70.5 507.4,70.5 510.1,64.3 512.7,70.5 515.4,64.3 518.1,64.3 520.8,64.3 523.4,70.5 526.1,70.5 528.8,70.5 531.5,64.3 534.1,64.3 536.8,64.3 539.5,64.3 542.2,70.5 544.8,70.5 547.5,70.5 550.2,76.6 552.9,70.5 555.5,76.6 558.2,76.6 560.9,76.6 563.6,82.8 566.2,76.6 568.9,76.6 571.6,76.6 574.3,70.5 576.9,70.5 579.6,70.5 582.3,70.5 584.9,70.5 587.6,64.3 590.3,64.3 593.0,64.3 595.6,70.5 598.3,76.6 601.0,64.3 603.7,64.3 606.3,64.3 609.0,70.5 611.7,70.5 614.4,70.5 617.0,76.6 619.7,76.6 622.4,76.6 625.1,82.8 627.7,88.9 630.4,82.8 633.1,82.8 635.8,76.6 638.4,70.5 641.1,76.6 643.8,82.8 646.5,76.6 649.1,70.5 651.8,70.5 654.5,64.3 657.2,64.3 659.8,64.3 662.5,64.3 665.2,64.3 667.9,64.3 670.5,64.3 673.2,64.3 675.9,64.3 678.6,64.3 681.2,64.3 683.9,64.3 686.6,64.3 689.3,58.2 691.9,70.5 694.6,64.3 697.3,58.2 700.0,64.3 702.6,64.3 705.3,64.3 708.0,64.3 710.7,64.3 713.3,58.2 716.0,58.2 718.7,58.2 721.4,58.2 724.0,58.2 726.7,64.3 729.4,58.2 732.1,58.2 734.7,58.2 737.4,58.2 740.1,58.2 742.8,58.2 745.4,64.3 748.1,64.3 750.8,58.2 753.5,58.2 756.1,58.2 758.8,64.3 761.5,58.2 764.1,58.2 766.8,58.2 769.5,58.2 772.2,58.2 774.8,58.2 777.5,58.2 780.2,58.2 782.9,58.2 785.5,58.2 788.2,58.2 790.9,58.2 793.6,58.2 796.2,64.3 798.9,70.5 801.6,70.5 804.3,70.5 806.9,76.6 809.6,76.6 812.3,76.6 815.0,82.8 817.6,82.8 820.3,76.6 823.0,76.6 825.7,82.8 828.3,82.8 831.0,76.6 833.7,70.5 836.4,76.6 839.0,70.5 841.7,76.6 844.4,70.5 847.1,70.5 849.7,70.5 852.4,70.5 855.1,76.6 857.8,76.6 860.4,76.6 863.1,82.8 865.8,82.8 868.5,82.8 871.1,82.8 873.8,82.8 876.5,82.8 879.2,76.6 881.8,82.8 884.5,82.8 887.2,82.8 889.9,88.9 892.5,82.8 895.2,76.6 897.9,76.6 900.6,76.6 903.2,76.6 905.9,76.6 908.6,82.8 911.3,76.6 913.9,76.6 916.6,76.6 919.3,76.6 922.0,76.6 924.6,76.6 927.3,82.8 930.0,82.8 932.7,82.8 935.3,82.8 938.0,82.8"/><polyline fill="none" stroke="#f59e0b" stroke-width="2.5" stroke-linejoin="round" stroke-linecap="round" points="42.0,267.5 44.7,267.5 47.3,267.5 50.0,261.4 52.7,261.4 55.4,273.7 58.0,261.4 60.7,261.4 63.4,261.4 66.1,261.4 68.7,267.5 71.4,267.5 74.1,273.7 76.8,279.8 79.4,279.8 82.1,279.8 84.8,279.8 87.5,279.8 90.1,279.8 92.8,286.0 95.5,286.0 98.2,286.0 100.8,279.8 103.5,273.7 106.2,273.7 108.9,279.8 111.5,273.7 114.2,273.7 116.9,267.5 119.6,267.5 122.2,267.5 124.9,267.5 127.6,279.8 130.3,273.7 132.9,279.8 135.6,279.8 138.3,286.0 141.0,286.0 143.6,286.0 146.3,286.0 149.0,286.0 151.7,286.0 154.3,286.0 157.0,286.0 159.7,286.0 162.4,286.0 165.0,286.0 167.7,286.0 170.4,279.8 173.1,279.8 175.7,279.8 178.4,267.5 181.1,279.8 183.8,267.5 186.4,273.7 189.1,273.7 191.8,286.0 194.5,279.8 197.1,286.0 199.8,279.8 202.5,286.0 205.2,286.0 207.8,286.0 210.5,279.8 213.2,273.7 215.9,279.8 218.5,279.8 221.2,279.8 223.9,273.7 226.5,273.7 229.2,279.8 231.9,279.8 234.6,279.8 237.2,279.8 239.9,286.0 242.6,286.0 245.3,286.0 247.9,286.0 250.6,286.0 253.3,286.0 256.0,286.0 258.6,286.0 261.3,286.0 264.0,286.0 266.7,286.0 269.3,286.0 272.0,286.0 274.7,286.0 277.4,286.0 280.0,286.0 282.7,286.0 285.4,286.0 288.1,286.0 290.7,286.0 293.4,286.0 296.1,286.0 298.8,286.0 301.4,286.0 304.1,286.0 306.8,286.0 309.5,286.0 312.1,286.0 314.8,286.0 317.5,286.0 320.2,286.0 322.8,286.0 325.5,286.0 328.2,286.0 330.9,286.0 333.5,286.0 336.2,286.0 338.9,286.0 341.6,286.0 344.2,286.0 346.9,286.0 349.6,286.0 352.3,286.0 354.9,286.0 357.6,286.0 360.3,286.0 363.0,286.0 365.6,279.8 368.3,279.8 371.0,279.8 373.7,279.8 376.3,279.8 379.0,273.7 381.7,286.0 384.4,286.0 387.0,286.0 389.7,286.0 392.4,286.0 395.1,286.0 397.7,286.0 400.4,279.8 403.1,279.8 405.7,279.8 408.4,279.8 411.1,273.7 413.8,273.7 416.4,267.5 419.1,267.5 421.8,261.4 424.5,261.4 427.1,261.4 429.8,261.4 432.5,261.4 435.2,267.5 437.8,267.5 440.5,267.5 443.2,273.7 445.9,279.8 448.5,279.8 451.2,267.5 453.9,267.5 456.6,273.7 459.2,267.5 461.9,273.7 464.6,273.7 467.3,273.7 469.9,273.7 472.6,273.7 475.3,267.5 478.0,273.7 480.6,267.5 483.3,273.7 486.0,267.5 488.7,273.7 491.3,273.7 494.0,261.4 496.7,267.5 499.4,267.5 502.0,267.5 504.7,267.5 507.4,267.5 510.1,273.7 512.7,267.5 515.4,273.7 518.1,273.7 520.8,273.7 523.4,267.5 526.1,267.5 528.8,267.5 531.5,273.7 534.1,273.7 536.8,273.7 539.5,273.7 542.2,267.5 544.8,267.5 547.5,267.5 550.2,267.5 552.9,267.5 555.5,261.4 558.2,261.4 560.9,261.4 563.6,261.4 566.2,261.4 568.9,261.4 571.6,261.4 574.3,267.5 576.9,267.5 579.6,267.5 582.3,267.5 584.9,267.5 587.6,273.7 590.3,273.7 593.0,273.7 595.6,267.5 598.3,267.5 601.0,273.7 603.7,273.7 606.3,273.7 609.0,267.5 611.7,267.5 614.4,267.5 617.0,261.4 619.7,261.4 622.4,261.4 625.1,255.2 627.7,255.2 630.4,255.2 633.1,261.4 635.8,261.4 638.4,267.5 641.1,261.4 643.8,261.4 646.5,261.4 649.1,267.5 651.8,267.5 654.5,273.7 657.2,273.7 659.8,273.7 662.5,273.7 665.2,273.7 667.9,273.7 670.5,273.7 673.2,273.7 675.9,273.7 678.6,273.7 681.2,273.7 683.9,273.7 686.6,273.7 689.3,279.8 691.9,273.7 694.6,273.7 697.3,279.8 700.0,273.7 702.6,273.7 705.3,273.7 708.0,273.7 710.7,273.7 713.3,279.8 716.0,279.8 718.7,279.8 721.4,279.8 724.0,279.8 726.7,273.7 729.4,279.8 732.1,279.8 734.7,279.8 737.4,279.8 740.1,279.8 742.8,279.8 745.4,273.7 748.1,273.7 750.8,279.8 753.5,279.8 756.1,279.8 758.8,279.8 761.5,279.8 764.1,279.8 766.8,279.8 769.5,279.8 772.2,279.8 774.8,279.8 777.5,279.8 780.2,279.8 782.9,279.8 785.5,279.8 788.2,279.8 790.9,279.8 793.6,279.8 796.2,273.7 798.9,273.7 801.6,267.5 804.3,267.5 806.9,261.4 809.6,261.4 812.3,261.4 815.0,255.2 817.6,255.2 820.3,261.4 823.0,261.4 825.7,255.2 828.3,255.2 831.0,267.5 833.7,267.5 836.4,261.4 839.0,267.5 841.7,261.4 844.4,267.5 847.1,267.5 849.7,267.5 852.4,267.5 855.1,267.5 857.8,267.5 860.4,261.4 863.1,255.2 865.8,255.2 868.5,255.2 871.1,255.2 873.8,255.2 876.5,255.2 879.2,261.4 881.8,255.2 884.5,255.2 887.2,255.2 889.9,255.2 892.5,255.2 895.2,261.4 897.9,261.4 900.6,261.4 903.2,261.4 905.9,261.4 908.6,261.4 911.3,261.4 913.9,261.4 916.6,261.4 919.3,261.4 922.0,261.4 924.6,261.4 927.3,255.2 930.0,255.2 932.7,255.2 935.3,255.2 938.0,255.2"/><polyline fill="none" stroke="#ef4444" stroke-width="2.5" stroke-linejoin="round" stroke-linecap="round" points="42.0,273.7 44.7,273.7 47.3,273.7 50.0,273.7 52.7,273.7 55.4,249.1 58.0,273.7 60.7,273.7 63.4,273.7 66.1,273.7 68.7,273.7 71.4,273.7 74.1,273.7 76.8,273.7 79.4,273.7 82.1,273.7 84.8,273.7 87.5,273.7 90.1,273.7 92.8,273.7 95.5,273.7 98.2,273.7 100.8,273.7 103.5,267.5 106.2,273.7 108.9,279.8 111.5,286.0 114.2,286.0 116.9,286.0 119.6,286.0 122.2,286.0 124.9,279.8 127.6,279.8 130.3,286.0 132.9,286.0 135.6,279.8 138.3,286.0 141.0,286.0 143.6,286.0 146.3,286.0 149.0,286.0 151.7,279.8 154.3,286.0 157.0,286.0 159.7,286.0 162.4,286.0 165.0,286.0 167.7,286.0 170.4,286.0 173.1,286.0 175.7,286.0 178.4,286.0 181.1,279.8 183.8,279.8 186.4,286.0 189.1,279.8 191.8,286.0 194.5,286.0 197.1,286.0 199.8,286.0 202.5,286.0 205.2,286.0 207.8,286.0 210.5,286.0 213.2,286.0 215.9,286.0 218.5,286.0 221.2,286.0 223.9,286.0 226.5,286.0 229.2,286.0 231.9,279.8 234.6,286.0 237.2,279.8 239.9,286.0 242.6,286.0 245.3,286.0 247.9,286.0 250.6,286.0 253.3,286.0 256.0,286.0 258.6,286.0 261.3,286.0 264.0,286.0 266.7,286.0 269.3,286.0 272.0,286.0 274.7,286.0 277.4,279.8 280.0,286.0 282.7,286.0 285.4,286.0 288.1,286.0 290.7,286.0 293.4,286.0 296.1,286.0 298.8,286.0 301.4,286.0 304.1,286.0 306.8,286.0 309.5,286.0 312.1,286.0 314.8,286.0 317.5,286.0 320.2,286.0 322.8,286.0 325.5,286.0 328.2,286.0 330.9,286.0 333.5,286.0 336.2,286.0 338.9,286.0 341.6,286.0 344.2,286.0 346.9,286.0 349.6,286.0 352.3,279.8 354.9,279.8 357.6,286.0 360.3,286.0 363.0,286.0 365.6,286.0 368.3,286.0 371.0,273.7 373.7,286.0 376.3,286.0 379.0,286.0 381.7,286.0 384.4,286.0 387.0,286.0 389.7,286.0 392.4,286.0 395.1,286.0 397.7,286.0 400.4,286.0 403.1,286.0 405.7,286.0 408.4,286.0 411.1,286.0 413.8,286.0 416.4,286.0 419.1,286.0 421.8,286.0 424.5,279.8 427.1,286.0 429.8,286.0 432.5,279.8 435.2,279.8 437.8,286.0 440.5,286.0 443.2,286.0 445.9,286.0 448.5,286.0 451.2,286.0 453.9,286.0 456.6,286.0 459.2,286.0 461.9,286.0 464.6,286.0 467.3,286.0 469.9,273.7 472.6,286.0 475.3,286.0 478.0,286.0 480.6,286.0 483.3,286.0 486.0,286.0 488.7,286.0 491.3,286.0 494.0,286.0 496.7,286.0 499.4,286.0 502.0,286.0 504.7,286.0 507.4,286.0 510.1,286.0 512.7,286.0 515.4,286.0 518.1,286.0 520.8,286.0 523.4,286.0 526.1,286.0 528.8,286.0 531.5,286.0 534.1,286.0 536.8,286.0 539.5,286.0 542.2,286.0 544.8,286.0 547.5,286.0 550.2,279.8 552.9,286.0 555.5,286.0 558.2,286.0 560.9,286.0 563.6,279.8 566.2,286.0 568.9,286.0 571.6,286.0 574.3,286.0 576.9,286.0 579.6,286.0 582.3,286.0 584.9,286.0 587.6,286.0 590.3,286.0 593.0,286.0 595.6,286.0 598.3,279.8 601.0,286.0 603.7,286.0 606.3,286.0 609.0,286.0 611.7,286.0 614.4,286.0 617.0,286.0 619.7,286.0 622.4,286.0 625.1,286.0 627.7,279.8 630.4,286.0 633.1,279.8 635.8,286.0 638.4,286.0 641.1,286.0 643.8,279.8 646.5,286.0 649.1,286.0 651.8,286.0 654.5,286.0 657.2,286.0 659.8,286.0 662.5,286.0 665.2,286.0 667.9,286.0 670.5,286.0 673.2,286.0 675.9,286.0 678.6,286.0 681.2,286.0 683.9,286.0 686.6,286.0 689.3,286.0 691.9,279.8 694.6,286.0 697.3,286.0 700.0,286.0 702.6,286.0 705.3,286.0 708.0,286.0 710.7,286.0 713.3,286.0 716.0,286.0 718.7,286.0 721.4,286.0 724.0,286.0 726.7,286.0 729.4,286.0 732.1,286.0 734.7,286.0 737.4,286.0 740.1,286.0 742.8,286.0 745.4,286.0 748.1,286.0 750.8,286.0 753.5,286.0 756.1,286.0 758.8,286.0 761.5,286.0 764.1,286.0 766.8,286.0 769.5,286.0 772.2,286.0 774.8,286.0 777.5,286.0 780.2,286.0 782.9,286.0 785.5,286.0 788.2,286.0 790.9,286.0 793.6,286.0 796.2,286.0 798.9,279.8 801.6,286.0 804.3,286.0 806.9,286.0 809.6,286.0 812.3,286.0 815.0,286.0 817.6,286.0 820.3,286.0 823.0,286.0 825.7,286.0 828.3,286.0 831.0,279.8 833.7,286.0 836.4,286.0 839.0,286.0 841.7,286.0 844.4,286.0 847.1,286.0 849.7,286.0 852.4,286.0 855.1,286.0 857.8,279.8 860.4,286.0 863.1,286.0 865.8,286.0 868.5,286.0 871.1,286.0 873.8,286.0 876.5,286.0 879.2,286.0 881.8,286.0 884.5,286.0 887.2,286.0 889.9,279.8 892.5,286.0 895.2,286.0 897.9,286.0 900.6,286.0 903.2,286.0 905.9,286.0 908.6,279.8 911.3,286.0 913.9,286.0 916.6,286.0 919.3,286.0 922.0,286.0 924.6,286.0 927.3,286.0 930.0,286.0 932.7,286.0 935.3,286.0 938.0,286.0"/><polyline fill="none" stroke="#a855f7" stroke-width="2.5" stroke-linejoin="round" stroke-linecap="round" points="42.0,286.0 44.7,286.0 47.3,286.0 50.0,286.0 52.7,286.0 55.4,286.0 58.0,286.0 60.7,286.0 63.4,286.0 66.1,286.0 68.7,286.0 71.4,286.0 74.1,286.0 76.8,286.0 79.4,286.0 82.1,286.0 84.8,286.0 87.5,286.0 90.1,286.0 92.8,286.0 95.5,286.0 98.2,286.0 100.8,286.0 103.5,286.0 106.2,286.0 108.9,286.0 111.5,286.0 114.2,286.0 116.9,286.0 119.6,286.0 122.2,286.0 124.9,286.0 127.6,286.0 130.3,279.8 132.9,286.0 135.6,286.0 138.3,286.0 141.0,286.0 143.6,286.0 146.3,286.0 149.0,286.0 151.7,286.0 154.3,286.0 157.0,279.8 159.7,286.0 162.4,286.0 165.0,286.0 167.7,286.0 170.4,286.0 173.1,286.0 175.7,286.0 178.4,286.0 181.1,286.0 183.8,286.0 186.4,286.0 189.1,286.0 191.8,286.0 194.5,286.0 197.1,286.0 199.8,286.0 202.5,286.0 205.2,286.0 207.8,286.0 210.5,286.0 213.2,286.0 215.9,286.0 218.5,286.0 221.2,286.0 223.9,286.0 226.5,286.0 229.2,286.0 231.9,286.0 234.6,279.8 237.2,286.0 239.9,286.0 242.6,286.0 245.3,286.0 247.9,286.0 250.6,286.0 253.3,279.8 256.0,286.0 258.6,286.0 261.3,286.0 264.0,286.0 266.7,286.0 269.3,286.0 272.0,286.0 274.7,286.0 277.4,286.0 280.0,286.0 282.7,286.0 285.4,286.0 288.1,286.0 290.7,286.0 293.4,286.0 296.1,286.0 298.8,279.8 301.4,286.0 304.1,286.0 306.8,286.0 309.5,286.0 312.1,286.0 314.8,286.0 317.5,286.0 320.2,286.0 322.8,286.0 325.5,286.0 328.2,286.0 330.9,286.0 333.5,286.0 336.2,286.0 338.9,286.0 341.6,286.0 344.2,286.0 346.9,286.0 349.6,286.0 352.3,286.0 354.9,286.0 357.6,286.0 360.3,286.0 363.0,286.0 365.6,286.0 368.3,286.0 371.0,286.0 373.7,286.0 376.3,286.0 379.0,286.0 381.7,286.0 384.4,286.0 387.0,286.0 389.7,286.0 392.4,286.0 395.1,286.0 397.7,273.7 400.4,286.0 403.1,286.0 405.7,286.0 408.4,286.0 411.1,286.0 413.8,286.0 416.4,286.0 419.1,286.0 421.8,286.0 424.5,286.0 427.1,286.0 429.8,286.0 432.5,286.0 435.2,286.0 437.8,286.0 440.5,286.0 443.2,286.0 445.9,286.0 448.5,286.0 451.2,286.0 453.9,286.0 456.6,286.0 459.2,286.0 461.9,286.0 464.6,286.0 467.3,286.0 469.9,286.0 472.6,286.0 475.3,286.0 478.0,286.0 480.6,286.0 483.3,286.0 486.0,286.0 488.7,286.0 491.3,286.0 494.0,286.0 496.7,286.0 499.4,286.0 502.0,286.0 504.7,286.0 507.4,286.0 510.1,286.0 512.7,286.0 515.4,286.0 518.1,286.0 520.8,286.0 523.4,286.0 526.1,286.0 528.8,286.0 531.5,286.0 534.1,286.0 536.8,286.0 539.5,286.0 542.2,286.0 544.8,286.0 547.5,286.0 550.2,286.0 552.9,286.0 555.5,286.0 558.2,286.0 560.9,286.0 563.6,286.0 566.2,286.0 568.9,286.0 571.6,286.0 574.3,286.0 576.9,286.0 579.6,286.0 582.3,286.0 584.9,286.0 587.6,286.0 590.3,286.0 593.0,286.0 595.6,286.0 598.3,286.0 601.0,286.0 603.7,286.0 606.3,286.0 609.0,286.0 611.7,286.0 614.4,286.0 617.0,286.0 619.7,286.0 622.4,286.0 625.1,286.0 627.7,286.0 630.4,286.0 633.1,286.0 635.8,286.0 638.4,286.0 641.1,286.0 643.8,286.0 646.5,286.0 649.1,286.0 651.8,286.0 654.5,286.0 657.2,286.0 659.8,286.0 662.5,286.0 665.2,286.0 667.9,286.0 670.5,286.0 673.2,286.0 675.9,286.0 678.6,286.0 681.2,286.0 683.9,286.0 686.6,286.0 689.3,286.0 691.9,286.0 694.6,286.0 697.3,286.0 700.0,286.0 702.6,286.0 705.3,286.0 708.0,286.0 710.7,286.0 713.3,286.0 716.0,286.0 718.7,286.0 721.4,286.0 724.0,286.0 726.7,286.0 729.4,286.0 732.1,286.0 734.7,286.0 737.4,286.0 740.1,286.0 742.8,286.0 745.4,286.0 748.1,286.0 750.8,286.0 753.5,286.0 756.1,286.0 758.8,279.8 761.5,286.0 764.1,286.0 766.8,286.0 769.5,286.0 772.2,286.0 774.8,286.0 777.5,286.0 780.2,286.0 782.9,286.0 785.5,286.0 788.2,286.0 790.9,286.0 793.6,286.0 796.2,286.0 798.9,286.0 801.6,286.0 804.3,286.0 806.9,286.0 809.6,286.0 812.3,286.0 815.0,286.0 817.6,286.0 820.3,286.0 823.0,286.0 825.7,286.0 828.3,286.0 831.0,286.0 833.7,286.0 836.4,286.0 839.0,286.0 841.7,286.0 844.4,286.0 847.1,286.0 849.7,286.0 852.4,286.0 855.1,279.8 857.8,286.0 860.4,286.0 863.1,286.0 865.8,286.0 868.5,286.0 871.1,286.0 873.8,286.0 876.5,286.0 879.2,286.0 881.8,286.0 884.5,286.0 887.2,286.0 889.9,286.0 892.5,286.0 895.2,286.0 897.9,286.0 900.6,286.0 903.2,286.0 905.9,286.0 908.6,286.0 911.3,286.0 913.9,286.0 916.6,286.0 919.3,286.0 922.0,286.0 924.6,286.0 927.3,286.0 930.0,286.0 932.7,286.0 935.3,286.0 938.0,286.0"/><text x="42" y="308" font-size="11" fill="#9fb0d4">30/06 09:29</text><text x="938" y="308" text-anchor="end" font-size="11" fill="#9fb0d4">15/07 11:29</text></svg>