<svg xmlns="http://www.w3.org/2000/svg" viewBox="0 0 960 320" width="960" height="320" font-family="Segoe UI, system-ui, -apple-system, Roboto, Helvetica, Arial, sans-serif" role="img" aria-label="Availability history per region"><rect x="0.5" y="0.5" width="959" height="319" rx="14" fill="#ffffff" stroke="#dce3f1"/><text x="42" y="26" font-size="14" font-weight="600" fill="#14203a">History · 90 points</text><circle cx="47" cy="40" r="5" fill="#22c55e"/><text x="57" y="44" font-size="12" fill="#5a688a">Available</text><circle cx="139.8" cy="40" r="5" fill="#f59e0b"/><text x="149.8" y="44" font-size="12" fill="#5a688a">Saturated</text><circle cx="232.60000000000002" cy="40" r="5" fill="#ef4444"/><text x="242.60000000000002" y="44" font-size="12" fill="#5a688a">Error</text><circle cx="296.6" cy="40" r="5" fill="#a855f7"/><text x="306.6" y="44" font-size="12" fill="#5a688a">Timeout</text><line x1="42" y1="286.0" x2="938" y2="286.0" stroke="#eef2f7" stroke-width="1"/><text x="35" y="289.0" text-anchor="end" font-size="11" fill="#5a688a">0</text><line x1="42" y1="227.5" x2="938" y2="227.5" stroke="#eef2f7" stroke-width="1"/><text x="35" y="230.5" text-anchor="end" font-size="11" fill="#5a688a">10</text><line x1="42" y1="169.0" x2="938" y2="169.0" stroke="#eef2f7" stroke-width="1"/><text x="35" y="172.0" text-anchor="end" font-size="11" fill="#5a688a">20</text><line x1="42" y1="110.5" x2="938" y2="110.5" stroke="#eef2f7" stroke-width="1"/><text x="35" y="113.5" text-anchor="end" font-size="11" fill="#5a688a">29</text><line x1="42" y1="52.0" x2="938" y2="52.0" stroke="#eef2f7" stroke-width="1"/><text x="35" y="55.0" text-anchor="end" font-size="11" fill="#5a688a">39</text><polyline fill="none" stroke="#22c55e" stroke-width="2.5" stroke-linejoin="round" stroke-linecap="round" points="42.0,70.0 52.1,70.0 62.1,88.0 72.2,88.0 82.3,76.0 92.3,76.0 102.4,76.0 112.5,70.0 122.5,76.0 132.6,70.0 142.7,64.0 152.7,58.0 162.8,58.0 172.9,58.0 182.9,58.0 193.0,58.0 203.1,58.0 213.1,58.0 223.2,58.0 233.3,58.0 243.3,58.0 253.4,58.0 263.5,58.0 273.6,58.0 283.6,58.0 293.7,58.0 303.8,58.0 313.8,58.0 323.9,58.0 334.0,58.0 344.0,58.0 354.1,70.0 364.2,76.0 374.2,94.0 384.3,64.0 394.4,64.0 404.4,58.0 414.5,58.0 424.6,58.0 434.6,70.0 444.7,76.0 454.8,76.0 464.8,82.0 474.9,82.0 485.0,82.0 495.0,82.0 505.1,76.0 515.2,64.0 525.2,70.0 535.3,70.0 545.4,82.0 555.4,76.0 565.5,76.0 575.6,82.0 585.6,76.0 595.7,76.0 605.8,76.0 615.8,64.0 625.9,64.0 636.0,76.0 646.0,76.0 656.1,76.0 666.2,88.0 676.2,70.0 686.3,64.0 696.4,58.0 706.4,58.0 716.5,70.0 726.6,70.0 736.7,70.0 746.7,76.0 756.8,70.0 766.9,70.0 776.9,70.0 787.0,70.0 797.1,76.0 807.1,82.0 817.2,76.0 827.3,70.0 837.3,70.0 847.4,70.0 857.5,70.0 867.5,76.0 877.6,70.0 887.7,70.0 897.7,70.0 907.8,70.0 917.9,70.0 927.9,70.0 938.0,70.0"/><polyline fill="none" stroke="#f59e0b" stroke-width="2.5" stroke-linejoin="round" stroke-linecap="round" points="42.0,274.0 52.1,274.0 62.1,274.0 72.2,280.0 82.3,268.0 92.3,268.0 102.4,268.0 112.5,274.0 122.5,274.0 132.6,274.0 142.7,280.0 152.7,286.0 162.8,286.0 172.9,286.0 182.9,286.0 193.0,286.0 203.1,286.0 213.1,286.0 223.2,286.0 233.3,286.0 243.3,286.0 253.4,286.0 263.5,286.0 273.6,286.0 283.6,286.0 293.7,286.0 303.8,286.0 313.8,286.0 323.9,286.0 334.0,286.0 344.0,286.0 354.1,274.0 364.2,280.0 374.2,280.0 384.3,280.0 394.4,280.0 404.4,286.0 414.5,286.0 424.6,286.0 434.6,274.0 444.7,268.0 454.8,268.0 464.8,262.0 474.9,262.0 485.0,262.0 495.0,262.0 505.1,268.0 515.2,280.0 525.2,280.0 535.3,274.0 545.4,262.0 555.4,268.0 565.5,268.0 575.6,262.0 585.6,268.0 595.7,268.0 605.8,268.0 615.8,280.0 625.9,280.0 636.0,268.0 646.0,268.0 656.1,268.0 666.2,262.0 676.2,274.0 686.3,280.0 696.4,286.0 706.4,286.0 716.5,274.0 726.6,274.0 736.7,274.0 746.7,274.0 756.8,274.0 766.9,274.0 776.9,274.0 787.0,274.0 797.1,280.0 807.1,274.0 817.2,280.0 827.3,286.0 837.3,286.0 847.4,286.0 857.5,286.0 867.5,280.0 877.6,286.0 887.7,286.0 897.7,286.0 907.8,286.0 917.9,286.0 927.9,286.0 938.0,286.0"/><polyline fill="none" stroke="#ef4444" stroke-width="2.5" stroke-linejoin="round" stroke-linecap="round" points="42.0,280.0 52.1,280.0 62.1,268.0 72.2,262.0 82.3,286.0 92.3,286.0 102.4,286.0 112.5,286.0 122.5,280.0 132.6,286.0 142.7,286.0 152.7,286.0 162.8,286.0 172.9,286.0 182.9,286.0 193.0,286.0 203.1,286.0 213.1,286.0 223.2,286.0 233.3,286.0 243.3,286.0 253.4,286.0 263.5,286.0 273.6,286.0 283.6,286.0 293.7,286.0 303.8,286.0 313.8,286.0 323.9,286.0 334.0,286.0 344.0,286.0 354.1,286.0 364.2,274.0 374.2,256.0 384.3,286.0 394.4,286.0 404.4,286.0 414.5,286.0 424.6,286.0 434.6,286.0 444.7,286.0 454.8,286.0 464.8,286.0 474.9,286.0 485.0,286.0 495.0,286.0 505.1,286.0 515.2,286.0 525.2,280.0 535.3,286.0 545.4,286.0 555.4,286.0 565.5,286.0 575.6,286.0 585.6,286.0 595.7,286.0 605.8,286.0 615.8,286.0 625.9,286.0 636.0,286.0 646.0,286.0 656.1,286.0 666.2,280.0 676.2,286.0 686.3,286.0 696.4,286.0 706.4,286.0 716.5,286.0 726.6,286.0 736.7,286.0 746.7,286.0 756.8,286.0 766.9,286.0 776.9,286.0 787.0,286.0 797.1,274.0 807.1,274.0 817.2,274.0 827.3,274.0 837.3,274.0 847.4,274.0 857.5,274.0 867.5,274.0 877.6,274.0 887.7,274.0 897.7,274.0 907.8,274.0 917.9,274.0 927.9,274.0 938.0,274.0"/><polyline fill="none" stroke="#a855f7" stroke-width="2.5" stroke-linejoin="round" stroke-linecap="round" points="42.0,286.0 52.1,286.0 62.1,286.0 72.2,286.0 82.3,286.0 92.3,286.0 102.4,286.0 112.5,286.0 122.5,286.0 132.6,286.0 142.7,286.0 152.7,286.0 162.8,286.0 172.9,286.0 182.9,286.0 193.0,286.0 203.1,286.0 213.1,286.0 223.2,286.0 233.3,286.0 243.3,286.0 253.4,286.0 263.5,286.0 273.6,286.0 283.6,286.0 293.7,286.0 303.8,286.0 313.8,286.0 323.9,286.0 334.0,286.0 344.0,286.0 354.1,286.0 364.2,286.0 374.2,286.0 384.3,286.0 394.4,286.0 404.4,286.0 414.5,286.0 424.6,286.0 434.6,286.0 444.7,286.0 454.8,286.0 464.8,286.0 474.9,286.0 485.0,286.0 495.0,286.0 505.1,286.0 515.2,286.0 525.2,286.0 535.3,286.0 545.4,286.0 555.4,286.0 565.5,286.0 575.6,286.0 585.6,286.0 595.7,286.0 605.8,286.0 615.8,286.0 625.9,286.0 636.0,286.0 646.0,286.0 656.1,286.0 666.2,286.0 676.2,286.0 686.3,286.0 696.4,286.0 706.4,286.0 716.5,286.0 726.6,286.0 736.7,286.0 746.7,280.0 756.8,286.0 766.9,286.0 776.9,286.0 787.0,286.0 797.1,286.0 807.1,286.0 817.2,286.0 827.3,286.0 837.3,286.0 847.4,286.0 857.5,286.0 867.5,286.0 877.6,286.0 887.7,286.0 897.7,286.0 907.8,286.0 917.9,286.0 927.9,286.0 938.0,286.0"/><text x="42" y="308" font-size="11" fill="#5a688a">19/06 12:43</text><text x="938" y="308" text-anchor="end" font-size="11" fill="#5a688a">27/06 06:31</text></svg>