<svg xmlns="http://www.w3.org/2000/svg" viewBox="0 0 960 320" width="960" height="320" font-family="Segoe UI, system-ui, -apple-system, Roboto, Helvetica, Arial, sans-serif" role="img" aria-label="Availability history per region"><rect x="0.5" y="0.5" width="959" height="319" rx="14" fill="#ffffff" stroke="#dce3f1"/><text x="42" y="26" font-size="14" font-weight="600" fill="#14203a">History · 288 points</text><circle cx="47" cy="40" r="5" fill="#22c55e"/><text x="57" y="44" font-size="12" fill="#5a688a">Available</text><circle cx="139.8" cy="40" r="5" fill="#f59e0b"/><text x="149.8" y="44" font-size="12" fill="#5a688a">Saturated</text><circle cx="232.60000000000002" cy="40" r="5" fill="#ef4444"/><text x="242.60000000000002" y="44" font-size="12" fill="#5a688a">Error</text><circle cx="296.6" cy="40" r="5" fill="#a855f7"/><text x="306.6" y="44" font-size="12" fill="#5a688a">Timeout</text><line x1="42" y1="286.0" x2="938" y2="286.0" stroke="#eef2f7" stroke-width="1"/><text x="35" y="289.0" text-anchor="end" font-size="11" fill="#5a688a">0</text><line x1="42" y1="227.5" x2="938" y2="227.5" stroke="#eef2f7" stroke-width="1"/><text x="35" y="230.5" text-anchor="end" font-size="11" fill="#5a688a">10</text><line x1="42" y1="169.0" x2="938" y2="169.0" stroke="#eef2f7" stroke-width="1"/><text x="35" y="172.0" text-anchor="end" font-size="11" fill="#5a688a">20</text><line x1="42" y1="110.5" x2="938" y2="110.5" stroke="#eef2f7" stroke-width="1"/><text x="35" y="113.5" text-anchor="end" font-size="11" fill="#5a688a">29</text><line x1="42" y1="52.0" x2="938" y2="52.0" stroke="#eef2f7" stroke-width="1"/><text x="35" y="55.0" text-anchor="end" font-size="11" fill="#5a688a">39</text><polyline fill="none" stroke="#22c55e" stroke-width="2.5" stroke-linejoin="round" stroke-linecap="round" points="42.0,70.0 45.1,70.0 48.2,88.0 51.4,88.0 54.5,76.0 57.6,76.0 60.7,76.0 63.9,70.0 67.0,76.0 70.1,70.0 73.2,64.0 76.3,58.0 79.5,58.0 82.6,58.0 85.7,58.0 88.8,58.0 92.0,58.0 95.1,58.0 98.2,58.0 101.3,58.0 104.4,58.0 107.6,58.0 110.7,58.0 113.8,58.0 116.9,58.0 120.0,58.0 123.2,58.0 126.3,58.0 129.4,58.0 132.5,58.0 135.7,58.0 138.8,70.0 141.9,76.0 145.0,94.0 148.1,64.0 151.3,64.0 154.4,58.0 157.5,58.0 160.6,58.0 163.8,70.0 166.9,76.0 170.0,76.0 173.1,82.0 176.2,82.0 179.4,82.0 182.5,82.0 185.6,76.0 188.7,64.0 191.9,70.0 195.0,70.0 198.1,82.0 201.2,76.0 204.3,76.0 207.5,82.0 210.6,76.0 213.7,76.0 216.8,76.0 220.0,64.0 223.1,64.0 226.2,76.0 229.3,76.0 232.4,76.0 235.6,88.0 238.7,70.0 241.8,64.0 244.9,58.0 248.0,58.0 251.2,70.0 254.3,70.0 257.4,70.0 260.5,76.0 263.7,70.0 266.8,70.0 269.9,70.0 273.0,70.0 276.1,76.0 279.3,82.0 282.4,76.0 285.5,70.0 288.6,70.0 291.8,70.0 294.9,70.0 298.0,76.0 301.1,70.0 304.2,70.0 307.4,70.0 310.5,70.0 313.6,70.0 316.7,70.0 319.9,70.0 323.0,70.0 326.1,70.0 329.2,70.0 332.3,70.0 335.5,70.0 338.6,70.0 341.7,70.0 344.8,70.0 348.0,70.0 351.1,70.0 354.2,70.0 357.3,70.0 360.4,70.0 363.6,70.0 366.7,70.0 369.8,70.0 372.9,70.0 376.0,70.0 379.2,70.0 382.3,70.0 385.4,70.0 388.5,70.0 391.7,70.0 394.8,70.0 397.9,70.0 401.0,70.0 404.1,70.0 407.3,70.0 410.4,70.0 413.5,70.0 416.6,70.0 419.8,70.0 422.9,70.0 426.0,70.0 429.1,70.0 432.2,70.0 435.4,70.0 438.5,70.0 441.6,70.0 444.7,70.0 447.9,70.0 451.0,70.0 454.1,70.0 457.2,70.0 460.3,70.0 463.5,70.0 466.6,70.0 469.7,70.0 472.8,70.0 476.0,70.0 479.1,70.0 482.2,70.0 485.3,70.0 488.4,70.0 491.6,70.0 494.7,70.0 497.8,70.0 500.9,70.0 504.0,70.0 507.2,70.0 510.3,70.0 513.4,76.0 516.5,70.0 519.7,70.0 522.8,70.0 525.9,70.0 529.0,70.0 532.1,76.0 535.3,76.0 538.4,88.0 541.5,88.0 544.6,88.0 547.8,94.0 550.9,94.0 554.0,94.0 557.1,94.0 560.2,88.0 563.4,88.0 566.5,82.0 569.6,82.0 572.7,82.0 575.9,88.0 579.0,88.0 582.1,94.0 585.2,82.0 588.3,82.0 591.5,82.0 594.6,82.0 597.7,88.0 600.8,88.0 604.0,94.0 607.1,94.0 610.2,88.0 613.3,88.0 616.4,88.0 619.6,94.0 622.7,94.0 625.8,106.0 628.9,94.0 632.0,94.0 635.2,94.0 638.3,94.0 641.4,88.0 644.5,88.0 647.7,82.0 650.8,76.0 653.9,76.0 657.0,76.0 660.1,76.0 663.3,76.0 666.4,76.0 669.5,70.0 672.6,70.0 675.8,70.0 678.9,76.0 682.0,88.0 685.1,82.0 688.2,70.0 691.4,70.0 694.5,70.0 697.6,76.0 700.7,76.0 703.9,76.0 707.0,82.0 710.1,70.0 713.2,76.0 716.3,64.0 719.5,70.0 722.6,58.0 725.7,58.0 728.8,58.0 732.0,58.0 735.1,58.0 738.2,64.0 741.3,58.0 744.4,64.0 747.6,58.0 750.7,58.0 753.8,58.0 756.9,58.0 760.0,64.0 763.2,64.0 766.3,64.0 769.4,76.0 772.5,70.0 775.7,82.0 778.8,70.0 781.9,76.0 785.0,58.0 788.1,64.0 791.3,58.0 794.4,64.0 797.5,58.0 800.6,58.0 803.8,58.0 806.9,64.0 810.0,70.0 813.1,64.0 816.2,64.0 819.4,64.0 822.5,70.0 825.6,70.0 828.7,64.0 831.9,70.0 835.0,70.0 838.1,70.0 841.2,58.0 844.3,58.0 847.5,58.0 850.6,58.0 853.7,58.0 856.8,64.0 860.0,58.0 863.1,58.0 866.2,58.0 869.3,58.0 872.4,58.0 875.6,58.0 878.7,58.0 881.8,58.0 884.9,64.0 888.0,58.0 891.2,58.0 894.3,58.0 897.4,58.0 900.5,58.0 903.7,58.0 906.8,58.0 909.9,64.0 913.0,58.0 916.1,58.0 919.3,58.0 922.4,58.0 925.5,58.0 928.6,58.0 931.8,58.0 934.9,58.0 938.0,58.0"/><polyline fill="none" stroke="#f59e0b" stroke-width="2.5" stroke-linejoin="round" stroke-linecap="round" points="42.0,274.0 45.1,274.0 48.2,274.0 51.4,280.0 54.5,268.0 57.6,268.0 60.7,268.0 63.9,274.0 67.0,274.0 70.1,274.0 73.2,280.0 76.3,286.0 79.5,286.0 82.6,286.0 85.7,286.0 88.8,286.0 92.0,286.0 95.1,286.0 98.2,286.0 101.3,286.0 104.4,286.0 107.6,286.0 110.7,286.0 113.8,286.0 116.9,286.0 120.0,286.0 123.2,286.0 126.3,286.0 129.4,286.0 132.5,286.0 135.7,286.0 138.8,274.0 141.9,280.0 145.0,280.0 148.1,280.0 151.3,280.0 154.4,286.0 157.5,286.0 160.6,286.0 163.8,274.0 166.9,268.0 170.0,268.0 173.1,262.0 176.2,262.0 179.4,262.0 182.5,262.0 185.6,268.0 188.7,280.0 191.9,280.0 195.0,274.0 198.1,262.0 201.2,268.0 204.3,268.0 207.5,262.0 210.6,268.0 213.7,268.0 216.8,268.0 220.0,280.0 223.1,280.0 226.2,268.0 229.3,268.0 232.4,268.0 235.6,262.0 238.7,274.0 241.8,280.0 244.9,286.0 248.0,286.0 251.2,274.0 254.3,274.0 257.4,274.0 260.5,274.0 263.7,274.0 266.8,274.0 269.9,274.0 273.0,274.0 276.1,280.0 279.3,274.0 282.4,280.0 285.5,286.0 288.6,286.0 291.8,286.0 294.9,286.0 298.0,280.0 301.1,286.0 304.2,286.0 307.4,286.0 310.5,286.0 313.6,286.0 316.7,286.0 319.9,286.0 323.0,286.0 326.1,286.0 329.2,286.0 332.3,286.0 335.5,286.0 338.6,286.0 341.7,286.0 344.8,286.0 348.0,286.0 351.1,286.0 354.2,286.0 357.3,286.0 360.4,286.0 363.6,286.0 366.7,286.0 369.8,286.0 372.9,286.0 376.0,286.0 379.2,286.0 382.3,286.0 385.4,286.0 388.5,286.0 391.7,286.0 394.8,286.0 397.9,286.0 401.0,286.0 404.1,286.0 407.3,286.0 410.4,286.0 413.5,286.0 416.6,286.0 419.8,286.0 422.9,286.0 426.0,286.0 429.1,286.0 432.2,286.0 435.4,286.0 438.5,286.0 441.6,286.0 444.7,286.0 447.9,286.0 451.0,286.0 454.1,286.0 457.2,286.0 460.3,286.0 463.5,286.0 466.6,286.0 469.7,286.0 472.8,286.0 476.0,286.0 479.1,286.0 482.2,286.0 485.3,286.0 488.4,286.0 491.6,286.0 494.7,286.0 497.8,286.0 500.9,286.0 504.0,286.0 507.2,286.0 510.3,286.0 513.4,286.0 516.5,286.0 519.7,286.0 522.8,286.0 525.9,286.0 529.0,286.0 532.1,286.0 535.3,280.0 538.4,268.0 541.5,268.0 544.6,268.0 547.8,268.0 550.9,262.0 554.0,262.0 557.1,262.0 560.2,268.0 563.4,268.0 566.5,274.0 569.6,274.0 572.7,274.0 575.9,268.0 579.0,268.0 582.1,268.0 585.2,274.0 588.3,274.0 591.5,274.0 594.6,274.0 597.7,268.0 600.8,268.0 604.0,262.0 607.1,262.0 610.2,268.0 613.3,268.0 616.4,268.0 619.6,262.0 622.7,262.0 625.8,274.0 628.9,262.0 632.0,262.0 635.2,262.0 638.3,262.0 641.4,268.0 644.5,268.0 647.7,274.0 650.8,280.0 653.9,280.0 657.0,280.0 660.1,280.0 663.3,280.0 666.4,280.0 669.5,286.0 672.6,286.0 675.8,286.0 678.9,280.0 682.0,274.0 685.1,274.0 688.2,280.0 691.4,274.0 694.5,274.0 697.6,268.0 700.7,268.0 703.9,268.0 707.0,268.0 710.1,280.0 713.2,274.0 716.3,280.0 719.5,280.0 722.6,286.0 725.7,286.0 728.8,286.0 732.0,286.0 735.1,286.0 738.2,286.0 741.3,286.0 744.4,286.0 747.6,286.0 750.7,286.0 753.8,286.0 756.9,286.0 760.0,280.0 763.2,280.0 766.3,280.0 769.4,268.0 772.5,280.0 775.7,268.0 778.8,274.0 781.9,274.0 785.0,286.0 788.1,280.0 791.3,286.0 794.4,280.0 797.5,286.0 800.6,286.0 803.8,286.0 806.9,280.0 810.0,274.0 813.1,280.0 816.2,280.0 819.4,280.0 822.5,274.0 825.6,274.0 828.7,280.0 831.9,280.0 835.0,280.0 838.1,280.0 841.2,286.0 844.3,286.0 847.5,286.0 850.6,286.0 853.7,286.0 856.8,286.0 860.0,286.0 863.1,286.0 866.2,286.0 869.3,286.0 872.4,286.0 875.6,286.0 878.7,286.0 881.8,286.0 884.9,286.0 888.0,286.0 891.2,286.0 894.3,286.0 897.4,286.0 900.5,286.0 903.7,286.0 906.8,286.0 909.9,286.0 913.0,286.0 916.1,286.0 919.3,286.0 922.4,286.0 925.5,286.0 928.6,286.0 931.8,286.0 934.9,286.0 938.0,286.0"/><polyline fill="none" stroke="#ef4444" stroke-width="2.5" stroke-linejoin="round" stroke-linecap="round" points="42.0,280.0 45.1,280.0 48.2,268.0 51.4,262.0 54.5,286.0 57.6,286.0 60.7,286.0 63.9,286.0 67.0,280.0 70.1,286.0 73.2,286.0 76.3,286.0 79.5,286.0 82.6,286.0 85.7,286.0 88.8,286.0 92.0,286.0 95.1,286.0 98.2,286.0 101.3,286.0 104.4,286.0 107.6,286.0 110.7,286.0 113.8,286.0 116.9,286.0 120.0,286.0 123.2,286.0 126.3,286.0 129.4,286.0 132.5,286.0 135.7,286.0 138.8,286.0 141.9,274.0 145.0,256.0 148.1,286.0 151.3,286.0 154.4,286.0 157.5,286.0 160.6,286.0 163.8,286.0 166.9,286.0 170.0,286.0 173.1,286.0 176.2,286.0 179.4,286.0 182.5,286.0 185.6,286.0 188.7,286.0 191.9,280.0 195.0,286.0 198.1,286.0 201.2,286.0 204.3,286.0 207.5,286.0 210.6,286.0 213.7,286.0 216.8,286.0 220.0,286.0 223.1,286.0 226.2,286.0 229.3,286.0 232.4,286.0 235.6,280.0 238.7,286.0 241.8,286.0 244.9,286.0 248.0,286.0 251.2,286.0 254.3,286.0 257.4,286.0 260.5,286.0 263.7,286.0 266.8,286.0 269.9,286.0 273.0,286.0 276.1,274.0 279.3,274.0 282.4,274.0 285.5,274.0 288.6,274.0 291.8,274.0 294.9,274.0 298.0,274.0 301.1,274.0 304.2,274.0 307.4,274.0 310.5,274.0 313.6,274.0 316.7,274.0 319.9,274.0 323.0,274.0 326.1,274.0 329.2,274.0 332.3,274.0 335.5,274.0 338.6,274.0 341.7,274.0 344.8,274.0 348.0,274.0 351.1,274.0 354.2,274.0 357.3,274.0 360.4,274.0 363.6,274.0 366.7,274.0 369.8,274.0 372.9,274.0 376.0,274.0 379.2,274.0 382.3,274.0 385.4,274.0 388.5,274.0 391.7,274.0 394.8,274.0 397.9,274.0 401.0,274.0 404.1,274.0 407.3,274.0 410.4,274.0 413.5,274.0 416.6,274.0 419.8,274.0 422.9,274.0 426.0,274.0 429.1,274.0 432.2,274.0 435.4,274.0 438.5,274.0 441.6,274.0 444.7,274.0 447.9,274.0 451.0,274.0 454.1,274.0 457.2,274.0 460.3,274.0 463.5,274.0 466.6,274.0 469.7,274.0 472.8,274.0 476.0,274.0 479.1,274.0 482.2,274.0 485.3,274.0 488.4,274.0 491.6,274.0 494.7,274.0 497.8,274.0 500.9,274.0 504.0,274.0 507.2,274.0 510.3,274.0 513.4,268.0 516.5,274.0 519.7,274.0 522.8,274.0 525.9,274.0 529.0,274.0 532.1,274.0 535.3,274.0 538.4,274.0 541.5,274.0 544.6,274.0 547.8,268.0 550.9,274.0 554.0,274.0 557.1,274.0 560.2,274.0 563.4,274.0 566.5,274.0 569.6,274.0 572.7,274.0 575.9,274.0 579.0,274.0 582.1,268.0 585.2,274.0 588.3,274.0 591.5,274.0 594.6,274.0 597.7,274.0 600.8,274.0 604.0,274.0 607.1,274.0 610.2,274.0 613.3,274.0 616.4,274.0 619.6,274.0 622.7,274.0 625.8,250.0 628.9,274.0 632.0,274.0 635.2,274.0 638.3,274.0 641.4,274.0 644.5,274.0 647.7,274.0 650.8,274.0 653.9,274.0 657.0,274.0 660.1,274.0 663.3,274.0 666.4,274.0 669.5,274.0 672.6,274.0 675.8,274.0 678.9,274.0 682.0,268.0 685.1,274.0 688.2,280.0 691.4,286.0 694.5,286.0 697.6,286.0 700.7,286.0 703.9,286.0 707.0,280.0 710.1,280.0 713.2,286.0 716.3,286.0 719.5,280.0 722.6,286.0 725.7,286.0 728.8,286.0 732.0,286.0 735.1,286.0 738.2,280.0 741.3,286.0 744.4,286.0 747.6,286.0 750.7,286.0 753.8,286.0 756.9,286.0 760.0,286.0 763.2,286.0 766.3,286.0 769.4,286.0 772.5,280.0 775.7,280.0 778.8,286.0 781.9,280.0 785.0,286.0 788.1,286.0 791.3,286.0 794.4,286.0 797.5,286.0 800.6,286.0 803.8,286.0 806.9,286.0 810.0,286.0 813.1,286.0 816.2,286.0 819.4,286.0 822.5,286.0 825.6,286.0 828.7,286.0 831.9,280.0 835.0,286.0 838.1,280.0 841.2,286.0 844.3,286.0 847.5,286.0 850.6,286.0 853.7,286.0 856.8,286.0 860.0,286.0 863.1,286.0 866.2,286.0 869.3,286.0 872.4,286.0 875.6,286.0 878.7,286.0 881.8,286.0 884.9,280.0 888.0,286.0 891.2,286.0 894.3,286.0 897.4,286.0 900.5,286.0 903.7,286.0 906.8,286.0 909.9,286.0 913.0,286.0 916.1,286.0 919.3,286.0 922.4,286.0 925.5,286.0 928.6,286.0 931.8,286.0 934.9,286.0 938.0,286.0"/><polyline fill="none" stroke="#a855f7" stroke-width="2.5" stroke-linejoin="round" stroke-linecap="round" points="42.0,286.0 45.1,286.0 48.2,286.0 51.4,286.0 54.5,286.0 57.6,286.0 60.7,286.0 63.9,286.0 67.0,286.0 70.1,286.0 73.2,286.0 76.3,286.0 79.5,286.0 82.6,286.0 85.7,286.0 88.8,286.0 92.0,286.0 95.1,286.0 98.2,286.0 101.3,286.0 104.4,286.0 107.6,286.0 110.7,286.0 113.8,286.0 116.9,286.0 120.0,286.0 123.2,286.0 126.3,286.0 129.4,286.0 132.5,286.0 135.7,286.0 138.8,286.0 141.9,286.0 145.0,286.0 148.1,286.0 151.3,286.0 154.4,286.0 157.5,286.0 160.6,286.0 163.8,286.0 166.9,286.0 170.0,286.0 173.1,286.0 176.2,286.0 179.4,286.0 182.5,286.0 185.6,286.0 188.7,286.0 191.9,286.0 195.0,286.0 198.1,286.0 201.2,286.0 204.3,286.0 207.5,286.0 210.6,286.0 213.7,286.0 216.8,286.0 220.0,286.0 223.1,286.0 226.2,286.0 229.3,286.0 232.4,286.0 235.6,286.0 238.7,286.0 241.8,286.0 244.9,286.0 248.0,286.0 251.2,286.0 254.3,286.0 257.4,286.0 260.5,280.0 263.7,286.0 266.8,286.0 269.9,286.0 273.0,286.0 276.1,286.0 279.3,286.0 282.4,286.0 285.5,286.0 288.6,286.0 291.8,286.0 294.9,286.0 298.0,286.0 301.1,286.0 304.2,286.0 307.4,286.0 310.5,286.0 313.6,286.0 316.7,286.0 319.9,286.0 323.0,286.0 326.1,286.0 329.2,286.0 332.3,286.0 335.5,286.0 338.6,286.0 341.7,286.0 344.8,286.0 348.0,286.0 351.1,286.0 354.2,286.0 357.3,286.0 360.4,286.0 363.6,286.0 366.7,286.0 369.8,286.0 372.9,286.0 376.0,286.0 379.2,286.0 382.3,286.0 385.4,286.0 388.5,286.0 391.7,286.0 394.8,286.0 397.9,286.0 401.0,286.0 404.1,286.0 407.3,286.0 410.4,286.0 413.5,286.0 416.6,286.0 419.8,286.0 422.9,286.0 426.0,286.0 429.1,286.0 432.2,286.0 435.4,286.0 438.5,286.0 441.6,286.0 444.7,286.0 447.9,286.0 451.0,286.0 454.1,286.0 457.2,286.0 460.3,286.0 463.5,286.0 466.6,286.0 469.7,286.0 472.8,286.0 476.0,286.0 479.1,286.0 482.2,286.0 485.3,286.0 488.4,286.0 491.6,286.0 494.7,286.0 497.8,286.0 500.9,286.0 504.0,286.0 507.2,286.0 510.3,286.0 513.4,286.0 516.5,286.0 519.7,286.0 522.8,286.0 525.9,286.0 529.0,286.0 532.1,280.0 535.3,286.0 538.4,286.0 541.5,286.0 544.6,286.0 547.8,286.0 550.9,286.0 554.0,286.0 557.1,286.0 560.2,286.0 563.4,286.0 566.5,286.0 569.6,286.0 572.7,286.0 575.9,286.0 579.0,286.0 582.1,286.0 585.2,286.0 588.3,286.0 591.5,286.0 594.6,286.0 597.7,286.0 600.8,286.0 604.0,286.0 607.1,286.0 610.2,286.0 613.3,286.0 616.4,286.0 619.6,286.0 622.7,286.0 625.8,286.0 628.9,286.0 632.0,286.0 635.2,286.0 638.3,286.0 641.4,286.0 644.5,286.0 647.7,286.0 650.8,286.0 653.9,286.0 657.0,286.0 660.1,286.0 663.3,286.0 666.4,286.0 669.5,286.0 672.6,286.0 675.8,286.0 678.9,286.0 682.0,286.0 685.1,286.0 688.2,286.0 691.4,286.0 694.5,286.0 697.6,286.0 700.7,286.0 703.9,286.0 707.0,286.0 710.1,286.0 713.2,280.0 716.3,286.0 719.5,286.0 722.6,286.0 725.7,286.0 728.8,286.0 732.0,286.0 735.1,286.0 738.2,286.0 741.3,286.0 744.4,280.0 747.6,286.0 750.7,286.0 753.8,286.0 756.9,286.0 760.0,286.0 763.2,286.0 766.3,286.0 769.4,286.0 772.5,286.0 775.7,286.0 778.8,286.0 781.9,286.0 785.0,286.0 788.1,286.0 791.3,286.0 794.4,286.0 797.5,286.0 800.6,286.0 803.8,286.0 806.9,286.0 810.0,286.0 813.1,286.0 816.2,286.0 819.4,286.0 822.5,286.0 825.6,286.0 828.7,286.0 831.9,286.0 835.0,280.0 838.1,286.0 841.2,286.0 844.3,286.0 847.5,286.0 850.6,286.0 853.7,286.0 856.8,280.0 860.0,286.0 863.1,286.0 866.2,286.0 869.3,286.0 872.4,286.0 875.6,286.0 878.7,286.0 881.8,286.0 884.9,286.0 888.0,286.0 891.2,286.0 894.3,286.0 897.4,286.0 900.5,286.0 903.7,286.0 906.8,286.0 909.9,280.0 913.0,286.0 916.1,286.0 919.3,286.0 922.4,286.0 925.5,286.0 928.6,286.0 931.8,286.0 934.9,286.0 938.0,286.0"/><text x="42" y="308" font-size="11" fill="#5a688a">19/06 12:43</text><text x="938" y="308" text-anchor="end" font-size="11" fill="#5a688a">05/07 14:30</text></svg>