<svg xmlns="http://www.w3.org/2000/svg" viewBox="0 0 960 320" width="960" height="320" font-family="Segoe UI, system-ui, -apple-system, Roboto, Helvetica, Arial, sans-serif" role="img" aria-label="Availability history per region"><rect x="0.5" y="0.5" width="959" height="319" rx="14" fill="#ffffff" stroke="#dce3f1"/><text x="42" y="26" font-size="14" font-weight="600" fill="#14203a">History · 154 points</text><circle cx="47" cy="40" r="5" fill="#22c55e"/><text x="57" y="44" font-size="12" fill="#5a688a">Available</text><circle cx="139.8" cy="40" r="5" fill="#f59e0b"/><text x="149.8" y="44" font-size="12" fill="#5a688a">Saturated</text><circle cx="232.60000000000002" cy="40" r="5" fill="#ef4444"/><text x="242.60000000000002" y="44" font-size="12" fill="#5a688a">Error</text><circle cx="296.6" cy="40" r="5" fill="#a855f7"/><text x="306.6" y="44" font-size="12" fill="#5a688a">Timeout</text><line x1="42" y1="286.0" x2="938" y2="286.0" stroke="#eef2f7" stroke-width="1"/><text x="35" y="289.0" text-anchor="end" font-size="11" fill="#5a688a">0</text><line x1="42" y1="227.5" x2="938" y2="227.5" stroke="#eef2f7" stroke-width="1"/><text x="35" y="230.5" text-anchor="end" font-size="11" fill="#5a688a">10</text><line x1="42" y1="169.0" x2="938" y2="169.0" stroke="#eef2f7" stroke-width="1"/><text x="35" y="172.0" text-anchor="end" font-size="11" fill="#5a688a">19</text><line x1="42" y1="110.5" x2="938" y2="110.5" stroke="#eef2f7" stroke-width="1"/><text x="35" y="113.5" text-anchor="end" font-size="11" fill="#5a688a">28</text><line x1="42" y1="52.0" x2="938" y2="52.0" stroke="#eef2f7" stroke-width="1"/><text x="35" y="55.0" text-anchor="end" font-size="11" fill="#5a688a">38</text><polyline fill="none" stroke="#22c55e" stroke-width="2.5" stroke-linejoin="round" stroke-linecap="round" points="42.0,64.3 47.9,224.4 53.7,82.8 59.6,88.9 65.4,82.8 71.3,76.6 77.1,76.6 83.0,76.6 88.8,76.6 94.7,76.6 100.6,76.6 106.4,76.6 112.3,76.6 118.1,76.6 124.0,76.6 129.8,70.5 135.7,70.5 141.6,82.8 147.4,82.8 153.3,82.8 159.1,88.9 165.0,88.9 170.8,88.9 176.7,88.9 182.5,88.9 188.4,88.9 194.3,88.9 200.1,88.9 206.0,88.9 211.8,82.8 217.7,82.8 223.5,82.8 229.4,82.8 235.3,76.6 241.1,76.6 247.0,76.6 252.8,76.6 258.7,76.6 264.5,82.8 270.4,82.8 276.2,82.8 282.1,82.8 288.0,76.6 293.8,76.6 299.7,76.6 305.5,76.6 311.4,76.6 317.2,76.6 323.1,76.6 329.0,82.8 334.8,82.8 340.7,82.8 346.5,82.8 352.4,76.6 358.2,76.6 364.1,76.6 369.9,76.6 375.8,76.6 381.7,76.6 387.5,76.6 393.4,76.6 399.2,82.8 405.1,76.6 410.9,76.6 416.8,76.6 422.7,76.6 428.5,76.6 434.4,82.8 440.2,76.6 446.1,76.6 451.9,76.6 457.8,76.6 463.6,76.6 469.5,76.6 475.4,76.6 481.2,76.6 487.1,76.6 492.9,70.5 498.8,70.5 504.6,70.5 510.5,70.5 516.4,76.6 522.2,70.5 528.1,76.6 533.9,76.6 539.8,76.6 545.6,76.6 551.5,76.6 557.3,76.6 563.2,82.8 569.1,88.9 574.9,88.9 580.8,88.9 586.6,88.9 592.5,88.9 598.3,88.9 604.2,88.9 610.1,95.1 615.9,88.9 621.8,88.9 627.6,88.9 633.5,88.9 639.3,88.9 645.2,88.9 651.0,82.8 656.9,82.8 662.8,82.8 668.6,82.8 674.5,82.8 680.3,82.8 686.2,82.8 692.0,82.8 697.9,88.9 703.8,88.9 709.6,88.9 715.5,88.9 721.3,88.9 727.2,88.9 733.0,88.9 738.9,88.9 744.7,95.1 750.6,88.9 756.5,88.9 762.3,88.9 768.2,101.3 774.0,88.9 779.9,88.9 785.7,88.9 791.6,88.9 797.5,82.8 803.3,82.8 809.2,82.8 815.0,82.8 820.9,88.9 826.7,82.8 832.6,88.9 838.4,88.9 844.3,88.9 850.2,88.9 856.0,95.1 861.9,88.9 867.7,88.9 873.6,88.9 879.4,88.9 885.3,88.9 891.2,88.9 897.0,88.9 902.9,88.9 908.7,95.1 914.6,82.8 920.4,82.8 926.3,82.8 932.1,82.8 938.0,82.8"/><polyline fill="none" stroke="#f59e0b" stroke-width="2.5" stroke-linejoin="round" stroke-linecap="round" points="42.0,273.7 47.9,267.5 53.7,255.2 59.6,249.1 65.4,255.2 71.3,261.4 77.1,261.4 83.0,261.4 88.8,261.4 94.7,261.4 100.6,261.4 106.4,261.4 112.3,261.4 118.1,261.4 124.0,261.4 129.8,267.5 135.7,267.5 141.6,261.4 147.4,255.2 153.3,255.2 159.1,249.1 165.0,249.1 170.8,249.1 176.7,249.1 182.5,249.1 188.4,249.1 194.3,249.1 200.1,249.1 206.0,249.1 211.8,255.2 217.7,255.2 223.5,255.2 229.4,255.2 235.3,261.4 241.1,261.4 247.0,261.4 252.8,261.4 258.7,261.4 264.5,255.2 270.4,255.2 276.2,255.2 282.1,255.2 288.0,261.4 293.8,261.4 299.7,261.4 305.5,261.4 311.4,261.4 317.2,261.4 323.1,261.4 329.0,255.2 334.8,255.2 340.7,255.2 346.5,261.4 352.4,261.4 358.2,261.4 364.1,261.4 369.9,261.4 375.8,261.4 381.7,261.4 387.5,261.4 393.4,261.4 399.2,255.2 405.1,261.4 410.9,261.4 416.8,261.4 422.7,261.4 428.5,261.4 434.4,261.4 440.2,261.4 446.1,261.4 451.9,261.4 457.8,261.4 463.6,261.4 469.5,261.4 475.4,261.4 481.2,261.4 487.1,261.4 492.9,267.5 498.8,267.5 504.6,267.5 510.5,267.5 516.4,267.5 522.2,267.5 528.1,261.4 533.9,261.4 539.8,261.4 545.6,261.4 551.5,261.4 557.3,261.4 563.2,255.2 569.1,249.1 574.9,249.1 580.8,255.2 586.6,249.1 592.5,249.1 598.3,249.1 604.2,249.1 610.1,249.1 615.9,249.1 621.8,255.2 627.6,249.1 633.5,249.1 639.3,249.1 645.2,249.1 651.0,255.2 656.9,255.2 662.8,255.2 668.6,255.2 674.5,255.2 680.3,255.2 686.2,255.2 692.0,255.2 697.9,249.1 703.8,249.1 709.6,249.1 715.5,249.1 721.3,249.1 727.2,249.1 733.0,249.1 738.9,255.2 744.7,249.1 750.6,249.1 756.5,249.1 762.3,249.1 768.2,249.1 774.0,249.1 779.9,249.1 785.7,255.2 791.6,255.2 797.5,255.2 803.3,255.2 809.2,255.2 815.0,255.2 820.9,255.2 826.7,255.2 832.6,249.1 838.4,249.1 844.3,249.1 850.2,249.1 856.0,249.1 861.9,249.1 867.7,249.1 873.6,249.1 879.4,249.1 885.3,249.1 891.2,249.1 897.0,249.1 902.9,249.1 908.7,249.1 914.6,255.2 920.4,255.2 926.3,255.2 932.1,255.2 938.0,255.2"/><polyline fill="none" stroke="#ef4444" stroke-width="2.5" stroke-linejoin="round" stroke-linecap="round" points="42.0,286.0 47.9,132.1 53.7,286.0 59.6,286.0 65.4,286.0 71.3,286.0 77.1,286.0 83.0,286.0 88.8,286.0 94.7,286.0 100.6,286.0 106.4,286.0 112.3,286.0 118.1,286.0 124.0,286.0 129.8,286.0 135.7,286.0 141.6,279.8 147.4,286.0 153.3,286.0 159.1,286.0 165.0,286.0 170.8,286.0 176.7,286.0 182.5,286.0 188.4,286.0 194.3,286.0 200.1,286.0 206.0,286.0 211.8,286.0 217.7,286.0 223.5,286.0 229.4,286.0 235.3,286.0 241.1,286.0 247.0,286.0 252.8,286.0 258.7,286.0 264.5,286.0 270.4,286.0 276.2,286.0 282.1,286.0 288.0,286.0 293.8,286.0 299.7,286.0 305.5,286.0 311.4,286.0 317.2,286.0 323.1,286.0 329.0,286.0 334.8,286.0 340.7,286.0 346.5,286.0 352.4,286.0 358.2,286.0 364.1,286.0 369.9,286.0 375.8,286.0 381.7,286.0 387.5,286.0 393.4,286.0 399.2,286.0 405.1,286.0 410.9,286.0 416.8,286.0 422.7,286.0 428.5,286.0 434.4,279.8 440.2,286.0 446.1,286.0 451.9,286.0 457.8,286.0 463.6,286.0 469.5,286.0 475.4,286.0 481.2,286.0 487.1,286.0 492.9,286.0 498.8,286.0 504.6,286.0 510.5,286.0 516.4,279.8 522.2,286.0 528.1,286.0 533.9,286.0 539.8,286.0 545.6,286.0 551.5,286.0 557.3,286.0 563.2,286.0 569.1,286.0 574.9,286.0 580.8,279.8 586.6,286.0 592.5,286.0 598.3,286.0 604.2,286.0 610.1,279.8 615.9,286.0 621.8,286.0 627.6,286.0 633.5,286.0 639.3,286.0 645.2,286.0 651.0,286.0 656.9,286.0 662.8,286.0 668.6,286.0 674.5,286.0 680.3,286.0 686.2,286.0 692.0,286.0 697.9,286.0 703.8,286.0 709.6,286.0 715.5,286.0 721.3,286.0 727.2,286.0 733.0,286.0 738.9,286.0 744.7,279.8 750.6,286.0 756.5,286.0 762.3,286.0 768.2,273.7 774.0,286.0 779.9,286.0 785.7,279.8 791.6,279.8 797.5,286.0 803.3,286.0 809.2,286.0 815.0,286.0 820.9,279.8 826.7,286.0 832.6,286.0 838.4,286.0 844.3,286.0 850.2,286.0 856.0,286.0 861.9,286.0 867.7,286.0 873.6,286.0 879.4,286.0 885.3,286.0 891.2,286.0 897.0,286.0 902.9,286.0 908.7,286.0 914.6,286.0 920.4,286.0 926.3,286.0 932.1,286.0 938.0,286.0"/><polyline fill="none" stroke="#a855f7" stroke-width="2.5" stroke-linejoin="round" stroke-linecap="round" points="42.0,286.0 47.9,286.0 53.7,286.0 59.6,286.0 65.4,286.0 71.3,286.0 77.1,286.0 83.0,286.0 88.8,286.0 94.7,286.0 100.6,286.0 106.4,286.0 112.3,286.0 118.1,286.0 124.0,286.0 129.8,286.0 135.7,286.0 141.6,286.0 147.4,286.0 153.3,286.0 159.1,286.0 165.0,286.0 170.8,286.0 176.7,286.0 182.5,286.0 188.4,286.0 194.3,286.0 200.1,286.0 206.0,286.0 211.8,286.0 217.7,286.0 223.5,286.0 229.4,286.0 235.3,286.0 241.1,286.0 247.0,286.0 252.8,286.0 258.7,286.0 264.5,286.0 270.4,286.0 276.2,286.0 282.1,286.0 288.0,286.0 293.8,286.0 299.7,286.0 305.5,286.0 311.4,286.0 317.2,286.0 323.1,286.0 329.0,286.0 334.8,286.0 340.7,286.0 346.5,279.8 352.4,286.0 358.2,286.0 364.1,286.0 369.9,286.0 375.8,286.0 381.7,286.0 387.5,286.0 393.4,286.0 399.2,286.0 405.1,286.0 410.9,286.0 416.8,286.0 422.7,286.0 428.5,286.0 434.4,286.0 440.2,286.0 446.1,286.0 451.9,286.0 457.8,286.0 463.6,286.0 469.5,286.0 475.4,286.0 481.2,286.0 487.1,286.0 492.9,286.0 498.8,286.0 504.6,286.0 510.5,286.0 516.4,286.0 522.2,286.0 528.1,286.0 533.9,286.0 539.8,286.0 545.6,286.0 551.5,286.0 557.3,286.0 563.2,286.0 569.1,286.0 574.9,286.0 580.8,286.0 586.6,286.0 592.5,286.0 598.3,286.0 604.2,286.0 610.1,286.0 615.9,286.0 621.8,279.8 627.6,286.0 633.5,286.0 639.3,286.0 645.2,286.0 651.0,286.0 656.9,286.0 662.8,286.0 668.6,286.0 674.5,286.0 680.3,286.0 686.2,286.0 692.0,286.0 697.9,286.0 703.8,286.0 709.6,286.0 715.5,286.0 721.3,286.0 727.2,286.0 733.0,286.0 738.9,279.8 744.7,286.0 750.6,286.0 756.5,286.0 762.3,286.0 768.2,286.0 774.0,286.0 779.9,286.0 785.7,286.0 791.6,286.0 797.5,286.0 803.3,286.0 809.2,286.0 815.0,286.0 820.9,286.0 826.7,286.0 832.6,286.0 838.4,286.0 844.3,286.0 850.2,286.0 856.0,279.8 861.9,286.0 867.7,286.0 873.6,286.0 879.4,286.0 885.3,286.0 891.2,286.0 897.0,286.0 902.9,286.0 908.7,279.8 914.6,286.0 920.4,286.0 926.3,286.0 932.1,286.0 938.0,286.0"/><text x="42" y="308" font-size="11" fill="#5a688a">19/06 15:39</text><text x="938" y="308" text-anchor="end" font-size="11" fill="#5a688a">23/07 00:30</text></svg>