<svg xmlns="http://www.w3.org/2000/svg" viewBox="0 0 960 320" width="960" height="320" font-family="Segoe UI, system-ui, -apple-system, Roboto, Helvetica, Arial, sans-serif" role="img" aria-label="Availability history per region"><rect x="0.5" y="0.5" width="959" height="319" rx="14" fill="#ffffff" stroke="#dce3f1"/><text x="42" y="26" font-size="14" font-weight="600" fill="#14203a">History · 58 points</text><circle cx="47" cy="40" r="5" fill="#22c55e"/><text x="57" y="44" font-size="12" fill="#5a688a">Available</text><circle cx="139.8" cy="40" r="5" fill="#f59e0b"/><text x="149.8" y="44" font-size="12" fill="#5a688a">Saturated</text><circle cx="232.60000000000002" cy="40" r="5" fill="#ef4444"/><text x="242.60000000000002" y="44" font-size="12" fill="#5a688a">Error</text><line x1="42" y1="286.0" x2="938" y2="286.0" stroke="#eef2f7" stroke-width="1"/><text x="35" y="289.0" text-anchor="end" font-size="11" fill="#5a688a">0</text><line x1="42" y1="227.5" x2="938" y2="227.5" stroke="#eef2f7" stroke-width="1"/><text x="35" y="230.5" text-anchor="end" font-size="11" fill="#5a688a">10</text><line x1="42" y1="169.0" x2="938" y2="169.0" stroke="#eef2f7" stroke-width="1"/><text x="35" y="172.0" text-anchor="end" font-size="11" fill="#5a688a">20</text><line x1="42" y1="110.5" x2="938" y2="110.5" stroke="#eef2f7" stroke-width="1"/><text x="35" y="113.5" text-anchor="end" font-size="11" fill="#5a688a">29</text><line x1="42" y1="52.0" x2="938" y2="52.0" stroke="#eef2f7" stroke-width="1"/><text x="35" y="55.0" text-anchor="end" font-size="11" fill="#5a688a">39</text><polyline fill="none" stroke="#22c55e" stroke-width="2.5" stroke-linejoin="round" stroke-linecap="round" points="42.0,70.0 57.7,70.0 73.4,88.0 89.2,88.0 104.9,76.0 120.6,76.0 136.3,76.0 152.0,70.0 167.8,76.0 183.5,70.0 199.2,64.0 214.9,58.0 230.6,58.0 246.4,58.0 262.1,58.0 277.8,58.0 293.5,58.0 309.2,58.0 324.9,58.0 340.7,58.0 356.4,58.0 372.1,58.0 387.8,58.0 403.5,58.0 419.3,58.0 435.0,58.0 450.7,58.0 466.4,58.0 482.1,58.0 497.9,58.0 513.6,58.0 529.3,70.0 545.0,76.0 560.7,94.0 576.5,64.0 592.2,64.0 607.9,58.0 623.6,58.0 639.3,58.0 655.1,70.0 670.8,76.0 686.5,76.0 702.2,82.0 717.9,82.0 733.6,82.0 749.4,82.0 765.1,76.0 780.8,64.0 796.5,70.0 812.2,70.0 828.0,82.0 843.7,76.0 859.4,76.0 875.1,82.0 890.8,76.0 906.6,76.0 922.3,76.0 938.0,64.0"/><circle cx="42.0" cy="70.0" r="2.5" fill="#22c55e"/><circle cx="57.7" cy="70.0" r="2.5" fill="#22c55e"/><circle cx="73.4" cy="88.0" r="2.5" fill="#22c55e"/><circle cx="89.2" cy="88.0" r="2.5" fill="#22c55e"/><circle cx="104.9" cy="76.0" r="2.5" fill="#22c55e"/><circle cx="120.6" cy="76.0" r="2.5" fill="#22c55e"/><circle cx="136.3" cy="76.0" r="2.5" fill="#22c55e"/><circle cx="152.0" cy="70.0" r="2.5" fill="#22c55e"/><circle cx="167.8" cy="76.0" r="2.5" fill="#22c55e"/><circle cx="183.5" cy="70.0" r="2.5" fill="#22c55e"/><circle cx="199.2" cy="64.0" r="2.5" fill="#22c55e"/><circle cx="214.9" cy="58.0" r="2.5" fill="#22c55e"/><circle cx="230.6" cy="58.0" r="2.5" fill="#22c55e"/><circle cx="246.4" cy="58.0" r="2.5" fill="#22c55e"/><circle cx="262.1" cy="58.0" r="2.5" fill="#22c55e"/><circle cx="277.8" cy="58.0" r="2.5" fill="#22c55e"/><circle cx="293.5" cy="58.0" r="2.5" fill="#22c55e"/><circle cx="309.2" cy="58.0" r="2.5" fill="#22c55e"/><circle cx="324.9" cy="58.0" r="2.5" fill="#22c55e"/><circle cx="340.7" cy="58.0" r="2.5" fill="#22c55e"/><circle cx="356.4" cy="58.0" r="2.5" fill="#22c55e"/><circle cx="372.1" cy="58.0" r="2.5" fill="#22c55e"/><circle cx="387.8" cy="58.0" r="2.5" fill="#22c55e"/><circle cx="403.5" cy="58.0" r="2.5" fill="#22c55e"/><circle cx="419.3" cy="58.0" r="2.5" fill="#22c55e"/><circle cx="435.0" cy="58.0" r="2.5" fill="#22c55e"/><circle cx="450.7" cy="58.0" r="2.5" fill="#22c55e"/><circle cx="466.4" cy="58.0" r="2.5" fill="#22c55e"/><circle cx="482.1" cy="58.0" r="2.5" fill="#22c55e"/><circle cx="497.9" cy="58.0" r="2.5" fill="#22c55e"/><circle cx="513.6" cy="58.0" r="2.5" fill="#22c55e"/><circle cx="529.3" cy="70.0" r="2.5" fill="#22c55e"/><circle cx="545.0" cy="76.0" r="2.5" fill="#22c55e"/><circle cx="560.7" cy="94.0" r="2.5" fill="#22c55e"/><circle cx="576.5" cy="64.0" r="2.5" fill="#22c55e"/><circle cx="592.2" cy="64.0" r="2.5" fill="#22c55e"/><circle cx="607.9" cy="58.0" r="2.5" fill="#22c55e"/><circle cx="623.6" cy="58.0" r="2.5" fill="#22c55e"/><circle cx="639.3" cy="58.0" r="2.5" fill="#22c55e"/><circle cx="655.1" cy="70.0" r="2.5" fill="#22c55e"/><circle cx="670.8" cy="76.0" r="2.5" fill="#22c55e"/><circle cx="686.5" cy="76.0" r="2.5" fill="#22c55e"/><circle cx="702.2" cy="82.0" r="2.5" fill="#22c55e"/><circle cx="717.9" cy="82.0" r="2.5" fill="#22c55e"/><circle cx="733.6" cy="82.0" r="2.5" fill="#22c55e"/><circle cx="749.4" cy="82.0" r="2.5" fill="#22c55e"/><circle cx="765.1" cy="76.0" r="2.5" fill="#22c55e"/><circle cx="780.8" cy="64.0" r="2.5" fill="#22c55e"/><circle cx="796.5" cy="70.0" r="2.5" fill="#22c55e"/><circle cx="812.2" cy="70.0" r="2.5" fill="#22c55e"/><circle cx="828.0" cy="82.0" r="2.5" fill="#22c55e"/><circle cx="843.7" cy="76.0" r="2.5" fill="#22c55e"/><circle cx="859.4" cy="76.0" r="2.5" fill="#22c55e"/><circle cx="875.1" cy="82.0" r="2.5" fill="#22c55e"/><circle cx="890.8" cy="76.0" r="2.5" fill="#22c55e"/><circle cx="906.6" cy="76.0" r="2.5" fill="#22c55e"/><circle cx="922.3" cy="76.0" r="2.5" fill="#22c55e"/><circle cx="938.0" cy="64.0" r="2.5" fill="#22c55e"/><polyline fill="none" stroke="#f59e0b" stroke-width="2.5" stroke-linejoin="round" stroke-linecap="round" points="42.0,274.0 57.7,274.0 73.4,274.0 89.2,280.0 104.9,268.0 120.6,268.0 136.3,268.0 152.0,274.0 167.8,274.0 183.5,274.0 199.2,280.0 214.9,286.0 230.6,286.0 246.4,286.0 262.1,286.0 277.8,286.0 293.5,286.0 309.2,286.0 324.9,286.0 340.7,286.0 356.4,286.0 372.1,286.0 387.8,286.0 403.5,286.0 419.3,286.0 435.0,286.0 450.7,286.0 466.4,286.0 482.1,286.0 497.9,286.0 513.6,286.0 529.3,274.0 545.0,280.0 560.7,280.0 576.5,280.0 592.2,280.0 607.9,286.0 623.6,286.0 639.3,286.0 655.1,274.0 670.8,268.0 686.5,268.0 702.2,262.0 717.9,262.0 733.6,262.0 749.4,262.0 765.1,268.0 780.8,280.0 796.5,280.0 812.2,274.0 828.0,262.0 843.7,268.0 859.4,268.0 875.1,262.0 890.8,268.0 906.6,268.0 922.3,268.0 938.0,280.0"/><circle cx="42.0" cy="274.0" r="2.5" fill="#f59e0b"/><circle cx="57.7" cy="274.0" r="2.5" fill="#f59e0b"/><circle cx="73.4" cy="274.0" r="2.5" fill="#f59e0b"/><circle cx="89.2" cy="280.0" r="2.5" fill="#f59e0b"/><circle cx="104.9" cy="268.0" r="2.5" fill="#f59e0b"/><circle cx="120.6" cy="268.0" r="2.5" fill="#f59e0b"/><circle cx="136.3" cy="268.0" r="2.5" fill="#f59e0b"/><circle cx="152.0" cy="274.0" r="2.5" fill="#f59e0b"/><circle cx="167.8" cy="274.0" r="2.5" fill="#f59e0b"/><circle cx="183.5" cy="274.0" r="2.5" fill="#f59e0b"/><circle cx="199.2" cy="280.0" r="2.5" fill="#f59e0b"/><circle cx="214.9" cy="286.0" r="2.5" fill="#f59e0b"/><circle cx="230.6" cy="286.0" r="2.5" fill="#f59e0b"/><circle cx="246.4" cy="286.0" r="2.5" fill="#f59e0b"/><circle cx="262.1" cy="286.0" r="2.5" fill="#f59e0b"/><circle cx="277.8" cy="286.0" r="2.5" fill="#f59e0b"/><circle cx="293.5" cy="286.0" r="2.5" fill="#f59e0b"/><circle cx="309.2" cy="286.0" r="2.5" fill="#f59e0b"/><circle cx="324.9" cy="286.0" r="2.5" fill="#f59e0b"/><circle cx="340.7" cy="286.0" r="2.5" fill="#f59e0b"/><circle cx="356.4" cy="286.0" r="2.5" fill="#f59e0b"/><circle cx="372.1" cy="286.0" r="2.5" fill="#f59e0b"/><circle cx="387.8" cy="286.0" r="2.5" fill="#f59e0b"/><circle cx="403.5" cy="286.0" r="2.5" fill="#f59e0b"/><circle cx="419.3" cy="286.0" r="2.5" fill="#f59e0b"/><circle cx="435.0" cy="286.0" r="2.5" fill="#f59e0b"/><circle cx="450.7" cy="286.0" r="2.5" fill="#f59e0b"/><circle cx="466.4" cy="286.0" r="2.5" fill="#f59e0b"/><circle cx="482.1" cy="286.0" r="2.5" fill="#f59e0b"/><circle cx="497.9" cy="286.0" r="2.5" fill="#f59e0b"/><circle cx="513.6" cy="286.0" r="2.5" fill="#f59e0b"/><circle cx="529.3" cy="274.0" r="2.5" fill="#f59e0b"/><circle cx="545.0" cy="280.0" r="2.5" fill="#f59e0b"/><circle cx="560.7" cy="280.0" r="2.5" fill="#f59e0b"/><circle cx="576.5" cy="280.0" r="2.5" fill="#f59e0b"/><circle cx="592.2" cy="280.0" r="2.5" fill="#f59e0b"/><circle cx="607.9" cy="286.0" r="2.5" fill="#f59e0b"/><circle cx="623.6" cy="286.0" r="2.5" fill="#f59e0b"/><circle cx="639.3" cy="286.0" r="2.5" fill="#f59e0b"/><circle cx="655.1" cy="274.0" r="2.5" fill="#f59e0b"/><circle cx="670.8" cy="268.0" r="2.5" fill="#f59e0b"/><circle cx="686.5" cy="268.0" r="2.5" fill="#f59e0b"/><circle cx="702.2" cy="262.0" r="2.5" fill="#f59e0b"/><circle cx="717.9" cy="262.0" r="2.5" fill="#f59e0b"/><circle cx="733.6" cy="262.0" r="2.5" fill="#f59e0b"/><circle cx="749.4" cy="262.0" r="2.5" fill="#f59e0b"/><circle cx="765.1" cy="268.0" r="2.5" fill="#f59e0b"/><circle cx="780.8" cy="280.0" r="2.5" fill="#f59e0b"/><circle cx="796.5" cy="280.0" r="2.5" fill="#f59e0b"/><circle cx="812.2" cy="274.0" r="2.5" fill="#f59e0b"/><circle cx="828.0" cy="262.0" r="2.5" fill="#f59e0b"/><circle cx="843.7" cy="268.0" r="2.5" fill="#f59e0b"/><circle cx="859.4" cy="268.0" r="2.5" fill="#f59e0b"/><circle cx="875.1" cy="262.0" r="2.5" fill="#f59e0b"/><circle cx="890.8" cy="268.0" r="2.5" fill="#f59e0b"/><circle cx="906.6" cy="268.0" r="2.5" fill="#f59e0b"/><circle cx="922.3" cy="268.0" r="2.5" fill="#f59e0b"/><circle cx="938.0" cy="280.0" r="2.5" fill="#f59e0b"/><polyline fill="none" stroke="#ef4444" stroke-width="2.5" stroke-linejoin="round" stroke-linecap="round" points="42.0,280.0 57.7,280.0 73.4,268.0 89.2,262.0 104.9,286.0 120.6,286.0 136.3,286.0 152.0,286.0 167.8,280.0 183.5,286.0 199.2,286.0 214.9,286.0 230.6,286.0 246.4,286.0 262.1,286.0 277.8,286.0 293.5,286.0 309.2,286.0 324.9,286.0 340.7,286.0 356.4,286.0 372.1,286.0 387.8,286.0 403.5,286.0 419.3,286.0 435.0,286.0 450.7,286.0 466.4,286.0 482.1,286.0 497.9,286.0 513.6,286.0 529.3,286.0 545.0,274.0 560.7,256.0 576.5,286.0 592.2,286.0 607.9,286.0 623.6,286.0 639.3,286.0 655.1,286.0 670.8,286.0 686.5,286.0 702.2,286.0 717.9,286.0 733.6,286.0 749.4,286.0 765.1,286.0 780.8,286.0 796.5,280.0 812.2,286.0 828.0,286.0 843.7,286.0 859.4,286.0 875.1,286.0 890.8,286.0 906.6,286.0 922.3,286.0 938.0,286.0"/><circle cx="42.0" cy="280.0" r="2.5" fill="#ef4444"/><circle cx="57.7" cy="280.0" r="2.5" fill="#ef4444"/><circle cx="73.4" cy="268.0" r="2.5" fill="#ef4444"/><circle cx="89.2" cy="262.0" r="2.5" fill="#ef4444"/><circle cx="104.9" cy="286.0" r="2.5" fill="#ef4444"/><circle cx="120.6" cy="286.0" r="2.5" fill="#ef4444"/><circle cx="136.3" cy="286.0" r="2.5" fill="#ef4444"/><circle cx="152.0" cy="286.0" r="2.5" fill="#ef4444"/><circle cx="167.8" cy="280.0" r="2.5" fill="#ef4444"/><circle cx="183.5" cy="286.0" r="2.5" fill="#ef4444"/><circle cx="199.2" cy="286.0" r="2.5" fill="#ef4444"/><circle cx="214.9" cy="286.0" r="2.5" fill="#ef4444"/><circle cx="230.6" cy="286.0" r="2.5" fill="#ef4444"/><circle cx="246.4" cy="286.0" r="2.5" fill="#ef4444"/><circle cx="262.1" cy="286.0" r="2.5" fill="#ef4444"/><circle cx="277.8" cy="286.0" r="2.5" fill="#ef4444"/><circle cx="293.5" cy="286.0" r="2.5" fill="#ef4444"/><circle cx="309.2" cy="286.0" r="2.5" fill="#ef4444"/><circle cx="324.9" cy="286.0" r="2.5" fill="#ef4444"/><circle cx="340.7" cy="286.0" r="2.5" fill="#ef4444"/><circle cx="356.4" cy="286.0" r="2.5" fill="#ef4444"/><circle cx="372.1" cy="286.0" r="2.5" fill="#ef4444"/><circle cx="387.8" cy="286.0" r="2.5" fill="#ef4444"/><circle cx="403.5" cy="286.0" r="2.5" fill="#ef4444"/><circle cx="419.3" cy="286.0" r="2.5" fill="#ef4444"/><circle cx="435.0" cy="286.0" r="2.5" fill="#ef4444"/><circle cx="450.7" cy="286.0" r="2.5" fill="#ef4444"/><circle cx="466.4" cy="286.0" r="2.5" fill="#ef4444"/><circle cx="482.1" cy="286.0" r="2.5" fill="#ef4444"/><circle cx="497.9" cy="286.0" r="2.5" fill="#ef4444"/><circle cx="513.6" cy="286.0" r="2.5" fill="#ef4444"/><circle cx="529.3" cy="286.0" r="2.5" fill="#ef4444"/><circle cx="545.0" cy="274.0" r="2.5" fill="#ef4444"/><circle cx="560.7" cy="256.0" r="2.5" fill="#ef4444"/><circle cx="576.5" cy="286.0" r="2.5" fill="#ef4444"/><circle cx="592.2" cy="286.0" r="2.5" fill="#ef4444"/><circle cx="607.9" cy="286.0" r="2.5" fill="#ef4444"/><circle cx="623.6" cy="286.0" r="2.5" fill="#ef4444"/><circle cx="639.3" cy="286.0" r="2.5" fill="#ef4444"/><circle cx="655.1" cy="286.0" r="2.5" fill="#ef4444"/><circle cx="670.8" cy="286.0" r="2.5" fill="#ef4444"/><circle cx="686.5" cy="286.0" r="2.5" fill="#ef4444"/><circle cx="702.2" cy="286.0" r="2.5" fill="#ef4444"/><circle cx="717.9" cy="286.0" r="2.5" fill="#ef4444"/><circle cx="733.6" cy="286.0" r="2.5" fill="#ef4444"/><circle cx="749.4" cy="286.0" r="2.5" fill="#ef4444"/><circle cx="765.1" cy="286.0" r="2.5" fill="#ef4444"/><circle cx="780.8" cy="286.0" r="2.5" fill="#ef4444"/><circle cx="796.5" cy="280.0" r="2.5" fill="#ef4444"/><circle cx="812.2" cy="286.0" r="2.5" fill="#ef4444"/><circle cx="828.0" cy="286.0" r="2.5" fill="#ef4444"/><circle cx="843.7" cy="286.0" r="2.5" fill="#ef4444"/><circle cx="859.4" cy="286.0" r="2.5" fill="#ef4444"/><circle cx="875.1" cy="286.0" r="2.5" fill="#ef4444"/><circle cx="890.8" cy="286.0" r="2.5" fill="#ef4444"/><circle cx="906.6" cy="286.0" r="2.5" fill="#ef4444"/><circle cx="922.3" cy="286.0" r="2.5" fill="#ef4444"/><circle cx="938.0" cy="286.0" r="2.5" fill="#ef4444"/><text x="42" y="308" font-size="11" fill="#5a688a">19/06 12:43</text><text x="938" y="308" text-anchor="end" font-size="11" fill="#5a688a">24/06 23:46</text></svg>