<svg xmlns="http://www.w3.org/2000/svg" viewBox="0 0 960 320" width="960" height="320" font-family="Segoe UI, system-ui, -apple-system, Roboto, Helvetica, Arial, sans-serif" role="img" aria-label="Availability history per region"><rect x="0.5" y="0.5" width="959" height="319" rx="14" fill="#ffffff" stroke="#dce3f1"/><text x="42" y="26" font-size="14" font-weight="600" fill="#14203a">History · 88 points</text><circle cx="47" cy="40" r="5" fill="#22c55e"/><text x="57" y="44" font-size="12" fill="#5a688a">Available</text><circle cx="139.8" cy="40" r="5" fill="#f59e0b"/><text x="149.8" y="44" font-size="12" fill="#5a688a">Saturated</text><circle cx="232.60000000000002" cy="40" r="5" fill="#ef4444"/><text x="242.60000000000002" y="44" font-size="12" fill="#5a688a">Error</text><circle cx="296.6" cy="40" r="5" fill="#a855f7"/><text x="306.6" y="44" font-size="12" fill="#5a688a">Timeout</text><line x1="42" y1="286.0" x2="938" y2="286.0" stroke="#eef2f7" stroke-width="1"/><text x="35" y="289.0" text-anchor="end" font-size="11" fill="#5a688a">0</text><line x1="42" y1="227.5" x2="938" y2="227.5" stroke="#eef2f7" stroke-width="1"/><text x="35" y="230.5" text-anchor="end" font-size="11" fill="#5a688a">10</text><line x1="42" y1="169.0" x2="938" y2="169.0" stroke="#eef2f7" stroke-width="1"/><text x="35" y="172.0" text-anchor="end" font-size="11" fill="#5a688a">19</text><line x1="42" y1="110.5" x2="938" y2="110.5" stroke="#eef2f7" stroke-width="1"/><text x="35" y="113.5" text-anchor="end" font-size="11" fill="#5a688a">28</text><line x1="42" y1="52.0" x2="938" y2="52.0" stroke="#eef2f7" stroke-width="1"/><text x="35" y="55.0" text-anchor="end" font-size="11" fill="#5a688a">38</text><polyline fill="none" stroke="#22c55e" stroke-width="2.5" stroke-linejoin="round" stroke-linecap="round" points="42.0,64.3 52.3,224.4 62.6,82.8 72.9,88.9 83.2,82.8 93.5,76.6 103.8,76.6 114.1,76.6 124.4,76.6 134.7,76.6 145.0,76.6 155.3,76.6 165.6,76.6 175.9,76.6 186.2,76.6 196.5,70.5 206.8,70.5 217.1,82.8 227.4,82.8 237.7,82.8 248.0,88.9 258.3,88.9 268.6,88.9 278.9,88.9 289.2,88.9 299.5,88.9 309.8,88.9 320.1,88.9 330.4,88.9 340.7,82.8 351.0,82.8 361.3,82.8 371.6,82.8 381.9,76.6 392.2,76.6 402.5,76.6 412.8,76.6 423.1,76.6 433.4,82.8 443.7,82.8 454.0,82.8 464.3,82.8 474.6,76.6 484.9,76.6 495.1,76.6 505.4,76.6 515.7,76.6 526.0,76.6 536.3,76.6 546.6,82.8 556.9,82.8 567.2,82.8 577.5,82.8 587.8,76.6 598.1,76.6 608.4,76.6 618.7,76.6 629.0,76.6 639.3,76.6 649.6,76.6 659.9,76.6 670.2,82.8 680.5,76.6 690.8,76.6 701.1,76.6 711.4,76.6 721.7,76.6 732.0,82.8 742.3,76.6 752.6,76.6 762.9,76.6 773.2,76.6 783.5,76.6 793.8,76.6 804.1,76.6 814.4,76.6 824.7,76.6 835.0,70.5 845.3,70.5 855.6,70.5 865.9,70.5 876.2,76.6 886.5,70.5 896.8,76.6 907.1,76.6 917.4,76.6 927.7,76.6 938.0,76.6"/><polyline fill="none" stroke="#f59e0b" stroke-width="2.5" stroke-linejoin="round" stroke-linecap="round" points="42.0,273.7 52.3,267.5 62.6,255.2 72.9,249.1 83.2,255.2 93.5,261.4 103.8,261.4 114.1,261.4 124.4,261.4 134.7,261.4 145.0,261.4 155.3,261.4 165.6,261.4 175.9,261.4 186.2,261.4 196.5,267.5 206.8,267.5 217.1,261.4 227.4,255.2 237.7,255.2 248.0,249.1 258.3,249.1 268.6,249.1 278.9,249.1 289.2,249.1 299.5,249.1 309.8,249.1 320.1,249.1 330.4,249.1 340.7,255.2 351.0,255.2 361.3,255.2 371.6,255.2 381.9,261.4 392.2,261.4 402.5,261.4 412.8,261.4 423.1,261.4 433.4,255.2 443.7,255.2 454.0,255.2 464.3,255.2 474.6,261.4 484.9,261.4 495.1,261.4 505.4,261.4 515.7,261.4 526.0,261.4 536.3,261.4 546.6,255.2 556.9,255.2 567.2,255.2 577.5,261.4 587.8,261.4 598.1,261.4 608.4,261.4 618.7,261.4 629.0,261.4 639.3,261.4 649.6,261.4 659.9,261.4 670.2,255.2 680.5,261.4 690.8,261.4 701.1,261.4 711.4,261.4 721.7,261.4 732.0,261.4 742.3,261.4 752.6,261.4 762.9,261.4 773.2,261.4 783.5,261.4 793.8,261.4 804.1,261.4 814.4,261.4 824.7,261.4 835.0,267.5 845.3,267.5 855.6,267.5 865.9,267.5 876.2,267.5 886.5,267.5 896.8,261.4 907.1,261.4 917.4,261.4 927.7,261.4 938.0,261.4"/><polyline fill="none" stroke="#ef4444" stroke-width="2.5" stroke-linejoin="round" stroke-linecap="round" points="42.0,286.0 52.3,132.1 62.6,286.0 72.9,286.0 83.2,286.0 93.5,286.0 103.8,286.0 114.1,286.0 124.4,286.0 134.7,286.0 145.0,286.0 155.3,286.0 165.6,286.0 175.9,286.0 186.2,286.0 196.5,286.0 206.8,286.0 217.1,279.8 227.4,286.0 237.7,286.0 248.0,286.0 258.3,286.0 268.6,286.0 278.9,286.0 289.2,286.0 299.5,286.0 309.8,286.0 320.1,286.0 330.4,286.0 340.7,286.0 351.0,286.0 361.3,286.0 371.6,286.0 381.9,286.0 392.2,286.0 402.5,286.0 412.8,286.0 423.1,286.0 433.4,286.0 443.7,286.0 454.0,286.0 464.3,286.0 474.6,286.0 484.9,286.0 495.1,286.0 505.4,286.0 515.7,286.0 526.0,286.0 536.3,286.0 546.6,286.0 556.9,286.0 567.2,286.0 577.5,286.0 587.8,286.0 598.1,286.0 608.4,286.0 618.7,286.0 629.0,286.0 639.3,286.0 649.6,286.0 659.9,286.0 670.2,286.0 680.5,286.0 690.8,286.0 701.1,286.0 711.4,286.0 721.7,286.0 732.0,279.8 742.3,286.0 752.6,286.0 762.9,286.0 773.2,286.0 783.5,286.0 793.8,286.0 804.1,286.0 814.4,286.0 824.7,286.0 835.0,286.0 845.3,286.0 855.6,286.0 865.9,286.0 876.2,279.8 886.5,286.0 896.8,286.0 907.1,286.0 917.4,286.0 927.7,286.0 938.0,286.0"/><polyline fill="none" stroke="#a855f7" stroke-width="2.5" stroke-linejoin="round" stroke-linecap="round" points="42.0,286.0 52.3,286.0 62.6,286.0 72.9,286.0 83.2,286.0 93.5,286.0 103.8,286.0 114.1,286.0 124.4,286.0 134.7,286.0 145.0,286.0 155.3,286.0 165.6,286.0 175.9,286.0 186.2,286.0 196.5,286.0 206.8,286.0 217.1,286.0 227.4,286.0 237.7,286.0 248.0,286.0 258.3,286.0 268.6,286.0 278.9,286.0 289.2,286.0 299.5,286.0 309.8,286.0 320.1,286.0 330.4,286.0 340.7,286.0 351.0,286.0 361.3,286.0 371.6,286.0 381.9,286.0 392.2,286.0 402.5,286.0 412.8,286.0 423.1,286.0 433.4,286.0 443.7,286.0 454.0,286.0 464.3,286.0 474.6,286.0 484.9,286.0 495.1,286.0 505.4,286.0 515.7,286.0 526.0,286.0 536.3,286.0 546.6,286.0 556.9,286.0 567.2,286.0 577.5,279.8 587.8,286.0 598.1,286.0 608.4,286.0 618.7,286.0 629.0,286.0 639.3,286.0 649.6,286.0 659.9,286.0 670.2,286.0 680.5,286.0 690.8,286.0 701.1,286.0 711.4,286.0 721.7,286.0 732.0,286.0 742.3,286.0 752.6,286.0 762.9,286.0 773.2,286.0 783.5,286.0 793.8,286.0 804.1,286.0 814.4,286.0 824.7,286.0 835.0,286.0 845.3,286.0 855.6,286.0 865.9,286.0 876.2,286.0 886.5,286.0 896.8,286.0 907.1,286.0 917.4,286.0 927.7,286.0 938.0,286.0"/><text x="42" y="308" font-size="11" fill="#5a688a">19/06 15:39</text><text x="938" y="308" text-anchor="end" font-size="11" fill="#5a688a">20/07 06:30</text></svg>