<svg xmlns="http://www.w3.org/2000/svg" viewBox="0 0 960 320" width="960" height="320" font-family="Segoe UI, system-ui, -apple-system, Roboto, Helvetica, Arial, sans-serif" role="img" aria-label="Availability history per region"><rect x="0.5" y="0.5" width="959" height="319" rx="14" fill="#0d1117" stroke="#2c3a5e"/><text x="42" y="26" font-size="14" font-weight="600" fill="#e6ecff">History · 306 points</text><circle cx="47" cy="40" r="5" fill="#22c55e"/><text x="57" y="44" font-size="12" fill="#9fb0d4">Available</text><circle cx="139.8" cy="40" r="5" fill="#f59e0b"/><text x="149.8" y="44" font-size="12" fill="#9fb0d4">Saturated</text><circle cx="232.60000000000002" cy="40" r="5" fill="#ef4444"/><text x="242.60000000000002" y="44" font-size="12" fill="#9fb0d4">Error</text><circle cx="296.6" cy="40" r="5" fill="#a855f7"/><text x="306.6" y="44" font-size="12" fill="#9fb0d4">Timeout</text><line x1="42" y1="286.0" x2="938" y2="286.0" stroke="#21304f" stroke-width="1"/><text x="35" y="289.0" text-anchor="end" font-size="11" fill="#9fb0d4">0</text><line x1="42" y1="227.5" x2="938" y2="227.5" stroke="#21304f" stroke-width="1"/><text x="35" y="230.5" text-anchor="end" font-size="11" fill="#9fb0d4">10</text><line x1="42" y1="169.0" x2="938" y2="169.0" stroke="#21304f" stroke-width="1"/><text x="35" y="172.0" text-anchor="end" font-size="11" fill="#9fb0d4">20</text><line x1="42" y1="110.5" x2="938" y2="110.5" stroke="#21304f" stroke-width="1"/><text x="35" y="113.5" text-anchor="end" font-size="11" fill="#9fb0d4">29</text><line x1="42" y1="52.0" x2="938" y2="52.0" stroke="#21304f" stroke-width="1"/><text x="35" y="55.0" text-anchor="end" font-size="11" fill="#9fb0d4">39</text><polyline fill="none" stroke="#22c55e" stroke-width="2.5" stroke-linejoin="round" stroke-linecap="round" points="42.0,70.0 44.9,70.0 47.9,88.0 50.8,88.0 53.8,76.0 56.7,76.0 59.6,76.0 62.6,70.0 65.5,76.0 68.4,70.0 71.4,64.0 74.3,58.0 77.3,58.0 80.2,58.0 83.1,58.0 86.1,58.0 89.0,58.0 91.9,58.0 94.9,58.0 97.8,58.0 100.8,58.0 103.7,58.0 106.6,58.0 109.6,58.0 112.5,58.0 115.4,58.0 118.4,58.0 121.3,58.0 124.3,58.0 127.2,58.0 130.1,58.0 133.1,70.0 136.0,76.0 138.9,94.0 141.9,64.0 144.8,64.0 147.8,58.0 150.7,58.0 153.6,58.0 156.6,70.0 159.5,76.0 162.4,76.0 165.4,82.0 168.3,82.0 171.3,82.0 174.2,82.0 177.1,76.0 180.1,64.0 183.0,70.0 185.9,70.0 188.9,82.0 191.8,76.0 194.8,76.0 197.7,82.0 200.6,76.0 203.6,76.0 206.5,76.0 209.4,64.0 212.4,64.0 215.3,76.0 218.3,76.0 221.2,76.0 224.1,88.0 227.1,70.0 230.0,64.0 233.0,58.0 235.9,58.0 238.8,70.0 241.8,70.0 244.7,70.0 247.6,76.0 250.6,70.0 253.5,70.0 256.5,70.0 259.4,70.0 262.3,76.0 265.3,82.0 268.2,76.0 271.1,70.0 274.1,70.0 277.0,70.0 280.0,70.0 282.9,76.0 285.8,70.0 288.8,70.0 291.7,70.0 294.6,70.0 297.6,70.0 300.5,70.0 303.5,70.0 306.4,70.0 309.3,70.0 312.3,70.0 315.2,70.0 318.1,70.0 321.1,70.0 324.0,70.0 327.0,70.0 329.9,70.0 332.8,70.0 335.8,70.0 338.7,70.0 341.6,70.0 344.6,70.0 347.5,70.0 350.5,70.0 353.4,70.0 356.3,70.0 359.3,70.0 362.2,70.0 365.1,70.0 368.1,70.0 371.0,70.0 374.0,70.0 376.9,70.0 379.8,70.0 382.8,70.0 385.7,70.0 388.6,70.0 391.6,70.0 394.5,70.0 397.5,70.0 400.4,70.0 403.3,70.0 406.3,70.0 409.2,70.0 412.2,70.0 415.1,70.0 418.0,70.0 421.0,70.0 423.9,70.0 426.8,70.0 429.8,70.0 432.7,70.0 435.7,70.0 438.6,70.0 441.5,70.0 444.5,70.0 447.4,70.0 450.3,70.0 453.3,70.0 456.2,70.0 459.2,70.0 462.1,70.0 465.0,70.0 468.0,70.0 470.9,70.0 473.8,70.0 476.8,70.0 479.7,70.0 482.7,70.0 485.6,76.0 488.5,70.0 491.5,70.0 494.4,70.0 497.3,70.0 500.3,70.0 503.2,76.0 506.2,76.0 509.1,88.0 512.0,88.0 515.0,88.0 517.9,94.0 520.8,94.0 523.8,94.0 526.7,94.0 529.7,88.0 532.6,88.0 535.5,82.0 538.5,82.0 541.4,82.0 544.3,88.0 547.3,88.0 550.2,94.0 553.2,82.0 556.1,82.0 559.0,82.0 562.0,82.0 564.9,88.0 567.8,88.0 570.8,94.0 573.7,94.0 576.7,88.0 579.6,88.0 582.5,88.0 585.5,94.0 588.4,94.0 591.4,106.0 594.3,94.0 597.2,94.0 600.2,94.0 603.1,94.0 606.0,88.0 609.0,88.0 611.9,82.0 614.9,76.0 617.8,76.0 620.7,76.0 623.7,76.0 626.6,76.0 629.5,76.0 632.5,70.0 635.4,70.0 638.4,70.0 641.3,76.0 644.2,88.0 647.2,82.0 650.1,70.0 653.0,70.0 656.0,70.0 658.9,76.0 661.9,76.0 664.8,76.0 667.7,82.0 670.7,70.0 673.6,76.0 676.5,64.0 679.5,70.0 682.4,58.0 685.4,58.0 688.3,58.0 691.2,58.0 694.2,58.0 697.1,64.0 700.0,58.0 703.0,64.0 705.9,58.0 708.9,58.0 711.8,58.0 714.7,58.0 717.7,64.0 720.6,64.0 723.5,64.0 726.5,76.0 729.4,70.0 732.4,82.0 735.3,70.0 738.2,76.0 741.2,58.0 744.1,64.0 747.0,58.0 750.0,64.0 752.9,58.0 755.9,58.0 758.8,58.0 761.7,64.0 764.7,70.0 767.6,64.0 770.6,64.0 773.5,64.0 776.4,70.0 779.4,70.0 782.3,64.0 785.2,70.0 788.2,70.0 791.1,70.0 794.1,58.0 797.0,58.0 799.9,58.0 802.9,58.0 805.8,58.0 808.7,64.0 811.7,58.0 814.6,58.0 817.6,58.0 820.5,58.0 823.4,58.0 826.4,58.0 829.3,58.0 832.2,58.0 835.2,64.0 838.1,58.0 841.1,58.0 844.0,58.0 846.9,58.0 849.9,58.0 852.8,58.0 855.7,58.0 858.7,64.0 861.6,58.0 864.6,58.0 867.5,58.0 870.4,58.0 873.4,58.0 876.3,58.0 879.2,58.0 882.2,58.0 885.1,58.0 888.1,58.0 891.0,58.0 893.9,58.0 896.9,58.0 899.8,58.0 902.7,58.0 905.7,58.0 908.6,58.0 911.6,58.0 914.5,58.0 917.4,64.0 920.4,64.0 923.3,58.0 926.2,58.0 929.2,58.0 932.1,64.0 935.1,64.0 938.0,76.0"/><polyline fill="none" stroke="#f59e0b" stroke-width="2.5" stroke-linejoin="round" stroke-linecap="round" points="42.0,274.0 44.9,274.0 47.9,274.0 50.8,280.0 53.8,268.0 56.7,268.0 59.6,268.0 62.6,274.0 65.5,274.0 68.4,274.0 71.4,280.0 74.3,286.0 77.3,286.0 80.2,286.0 83.1,286.0 86.1,286.0 89.0,286.0 91.9,286.0 94.9,286.0 97.8,286.0 100.8,286.0 103.7,286.0 106.6,286.0 109.6,286.0 112.5,286.0 115.4,286.0 118.4,286.0 121.3,286.0 124.3,286.0 127.2,286.0 130.1,286.0 133.1,274.0 136.0,280.0 138.9,280.0 141.9,280.0 144.8,280.0 147.8,286.0 150.7,286.0 153.6,286.0 156.6,274.0 159.5,268.0 162.4,268.0 165.4,262.0 168.3,262.0 171.3,262.0 174.2,262.0 177.1,268.0 180.1,280.0 183.0,280.0 185.9,274.0 188.9,262.0 191.8,268.0 194.8,268.0 197.7,262.0 200.6,268.0 203.6,268.0 206.5,268.0 209.4,280.0 212.4,280.0 215.3,268.0 218.3,268.0 221.2,268.0 224.1,262.0 227.1,274.0 230.0,280.0 233.0,286.0 235.9,286.0 238.8,274.0 241.8,274.0 244.7,274.0 247.6,274.0 250.6,274.0 253.5,274.0 256.5,274.0 259.4,274.0 262.3,280.0 265.3,274.0 268.2,280.0 271.1,286.0 274.1,286.0 277.0,286.0 280.0,286.0 282.9,280.0 285.8,286.0 288.8,286.0 291.7,286.0 294.6,286.0 297.6,286.0 300.5,286.0 303.5,286.0 306.4,286.0 309.3,286.0 312.3,286.0 315.2,286.0 318.1,286.0 321.1,286.0 324.0,286.0 327.0,286.0 329.9,286.0 332.8,286.0 335.8,286.0 338.7,286.0 341.6,286.0 344.6,286.0 347.5,286.0 350.5,286.0 353.4,286.0 356.3,286.0 359.3,286.0 362.2,286.0 365.1,286.0 368.1,286.0 371.0,286.0 374.0,286.0 376.9,286.0 379.8,286.0 382.8,286.0 385.7,286.0 388.6,286.0 391.6,286.0 394.5,286.0 397.5,286.0 400.4,286.0 403.3,286.0 406.3,286.0 409.2,286.0 412.2,286.0 415.1,286.0 418.0,286.0 421.0,286.0 423.9,286.0 426.8,286.0 429.8,286.0 432.7,286.0 435.7,286.0 438.6,286.0 441.5,286.0 444.5,286.0 447.4,286.0 450.3,286.0 453.3,286.0 456.2,286.0 459.2,286.0 462.1,286.0 465.0,286.0 468.0,286.0 470.9,286.0 473.8,286.0 476.8,286.0 479.7,286.0 482.7,286.0 485.6,286.0 488.5,286.0 491.5,286.0 494.4,286.0 497.3,286.0 500.3,286.0 503.2,286.0 506.2,280.0 509.1,268.0 512.0,268.0 515.0,268.0 517.9,268.0 520.8,262.0 523.8,262.0 526.7,262.0 529.7,268.0 532.6,268.0 535.5,274.0 538.5,274.0 541.4,274.0 544.3,268.0 547.3,268.0 550.2,268.0 553.2,274.0 556.1,274.0 559.0,274.0 562.0,274.0 564.9,268.0 567.8,268.0 570.8,262.0 573.7,262.0 576.7,268.0 579.6,268.0 582.5,268.0 585.5,262.0 588.4,262.0 591.4,274.0 594.3,262.0 597.2,262.0 600.2,262.0 603.1,262.0 606.0,268.0 609.0,268.0 611.9,274.0 614.9,280.0 617.8,280.0 620.7,280.0 623.7,280.0 626.6,280.0 629.5,280.0 632.5,286.0 635.4,286.0 638.4,286.0 641.3,280.0 644.2,274.0 647.2,274.0 650.1,280.0 653.0,274.0 656.0,274.0 658.9,268.0 661.9,268.0 664.8,268.0 667.7,268.0 670.7,280.0 673.6,274.0 676.5,280.0 679.5,280.0 682.4,286.0 685.4,286.0 688.3,286.0 691.2,286.0 694.2,286.0 697.1,286.0 700.0,286.0 703.0,286.0 705.9,286.0 708.9,286.0 711.8,286.0 714.7,286.0 717.7,280.0 720.6,280.0 723.5,280.0 726.5,268.0 729.4,280.0 732.4,268.0 735.3,274.0 738.2,274.0 741.2,286.0 744.1,280.0 747.0,286.0 750.0,280.0 752.9,286.0 755.9,286.0 758.8,286.0 761.7,280.0 764.7,274.0 767.6,280.0 770.6,280.0 773.5,280.0 776.4,274.0 779.4,274.0 782.3,280.0 785.2,280.0 788.2,280.0 791.1,280.0 794.1,286.0 797.0,286.0 799.9,286.0 802.9,286.0 805.8,286.0 808.7,286.0 811.7,286.0 814.6,286.0 817.6,286.0 820.5,286.0 823.4,286.0 826.4,286.0 829.3,286.0 832.2,286.0 835.2,286.0 838.1,286.0 841.1,286.0 844.0,286.0 846.9,286.0 849.9,286.0 852.8,286.0 855.7,286.0 858.7,286.0 861.6,286.0 864.6,286.0 867.5,286.0 870.4,286.0 873.4,286.0 876.3,286.0 879.2,286.0 882.2,286.0 885.1,286.0 888.1,286.0 891.0,286.0 893.9,286.0 896.9,286.0 899.8,286.0 902.7,286.0 905.7,286.0 908.6,286.0 911.6,286.0 914.5,286.0 917.4,286.0 920.4,286.0 923.3,286.0 926.2,286.0 929.2,286.0 932.1,280.0 935.1,280.0 938.0,280.0"/><polyline fill="none" stroke="#ef4444" stroke-width="2.5" stroke-linejoin="round" stroke-linecap="round" points="42.0,280.0 44.9,280.0 47.9,268.0 50.8,262.0 53.8,286.0 56.7,286.0 59.6,286.0 62.6,286.0 65.5,280.0 68.4,286.0 71.4,286.0 74.3,286.0 77.3,286.0 80.2,286.0 83.1,286.0 86.1,286.0 89.0,286.0 91.9,286.0 94.9,286.0 97.8,286.0 100.8,286.0 103.7,286.0 106.6,286.0 109.6,286.0 112.5,286.0 115.4,286.0 118.4,286.0 121.3,286.0 124.3,286.0 127.2,286.0 130.1,286.0 133.1,286.0 136.0,274.0 138.9,256.0 141.9,286.0 144.8,286.0 147.8,286.0 150.7,286.0 153.6,286.0 156.6,286.0 159.5,286.0 162.4,286.0 165.4,286.0 168.3,286.0 171.3,286.0 174.2,286.0 177.1,286.0 180.1,286.0 183.0,280.0 185.9,286.0 188.9,286.0 191.8,286.0 194.8,286.0 197.7,286.0 200.6,286.0 203.6,286.0 206.5,286.0 209.4,286.0 212.4,286.0 215.3,286.0 218.3,286.0 221.2,286.0 224.1,280.0 227.1,286.0 230.0,286.0 233.0,286.0 235.9,286.0 238.8,286.0 241.8,286.0 244.7,286.0 247.6,286.0 250.6,286.0 253.5,286.0 256.5,286.0 259.4,286.0 262.3,274.0 265.3,274.0 268.2,274.0 271.1,274.0 274.1,274.0 277.0,274.0 280.0,274.0 282.9,274.0 285.8,274.0 288.8,274.0 291.7,274.0 294.6,274.0 297.6,274.0 300.5,274.0 303.5,274.0 306.4,274.0 309.3,274.0 312.3,274.0 315.2,274.0 318.1,274.0 321.1,274.0 324.0,274.0 327.0,274.0 329.9,274.0 332.8,274.0 335.8,274.0 338.7,274.0 341.6,274.0 344.6,274.0 347.5,274.0 350.5,274.0 353.4,274.0 356.3,274.0 359.3,274.0 362.2,274.0 365.1,274.0 368.1,274.0 371.0,274.0 374.0,274.0 376.9,274.0 379.8,274.0 382.8,274.0 385.7,274.0 388.6,274.0 391.6,274.0 394.5,274.0 397.5,274.0 400.4,274.0 403.3,274.0 406.3,274.0 409.2,274.0 412.2,274.0 415.1,274.0 418.0,274.0 421.0,274.0 423.9,274.0 426.8,274.0 429.8,274.0 432.7,274.0 435.7,274.0 438.6,274.0 441.5,274.0 444.5,274.0 447.4,274.0 450.3,274.0 453.3,274.0 456.2,274.0 459.2,274.0 462.1,274.0 465.0,274.0 468.0,274.0 470.9,274.0 473.8,274.0 476.8,274.0 479.7,274.0 482.7,274.0 485.6,268.0 488.5,274.0 491.5,274.0 494.4,274.0 497.3,274.0 500.3,274.0 503.2,274.0 506.2,274.0 509.1,274.0 512.0,274.0 515.0,274.0 517.9,268.0 520.8,274.0 523.8,274.0 526.7,274.0 529.7,274.0 532.6,274.0 535.5,274.0 538.5,274.0 541.4,274.0 544.3,274.0 547.3,274.0 550.2,268.0 553.2,274.0 556.1,274.0 559.0,274.0 562.0,274.0 564.9,274.0 567.8,274.0 570.8,274.0 573.7,274.0 576.7,274.0 579.6,274.0 582.5,274.0 585.5,274.0 588.4,274.0 591.4,250.0 594.3,274.0 597.2,274.0 600.2,274.0 603.1,274.0 606.0,274.0 609.0,274.0 611.9,274.0 614.9,274.0 617.8,274.0 620.7,274.0 623.7,274.0 626.6,274.0 629.5,274.0 632.5,274.0 635.4,274.0 638.4,274.0 641.3,274.0 644.2,268.0 647.2,274.0 650.1,280.0 653.0,286.0 656.0,286.0 658.9,286.0 661.9,286.0 664.8,286.0 667.7,280.0 670.7,280.0 673.6,286.0 676.5,286.0 679.5,280.0 682.4,286.0 685.4,286.0 688.3,286.0 691.2,286.0 694.2,286.0 697.1,280.0 700.0,286.0 703.0,286.0 705.9,286.0 708.9,286.0 711.8,286.0 714.7,286.0 717.7,286.0 720.6,286.0 723.5,286.0 726.5,286.0 729.4,280.0 732.4,280.0 735.3,286.0 738.2,280.0 741.2,286.0 744.1,286.0 747.0,286.0 750.0,286.0 752.9,286.0 755.9,286.0 758.8,286.0 761.7,286.0 764.7,286.0 767.6,286.0 770.6,286.0 773.5,286.0 776.4,286.0 779.4,286.0 782.3,286.0 785.2,280.0 788.2,286.0 791.1,280.0 794.1,286.0 797.0,286.0 799.9,286.0 802.9,286.0 805.8,286.0 808.7,286.0 811.7,286.0 814.6,286.0 817.6,286.0 820.5,286.0 823.4,286.0 826.4,286.0 829.3,286.0 832.2,286.0 835.2,280.0 838.1,286.0 841.1,286.0 844.0,286.0 846.9,286.0 849.9,286.0 852.8,286.0 855.7,286.0 858.7,286.0 861.6,286.0 864.6,286.0 867.5,286.0 870.4,286.0 873.4,286.0 876.3,286.0 879.2,286.0 882.2,286.0 885.1,286.0 888.1,286.0 891.0,286.0 893.9,286.0 896.9,286.0 899.8,286.0 902.7,286.0 905.7,286.0 908.6,286.0 911.6,286.0 914.5,286.0 917.4,280.0 920.4,280.0 923.3,286.0 926.2,286.0 929.2,286.0 932.1,286.0 935.1,286.0 938.0,274.0"/><polyline fill="none" stroke="#a855f7" stroke-width="2.5" stroke-linejoin="round" stroke-linecap="round" points="42.0,286.0 44.9,286.0 47.9,286.0 50.8,286.0 53.8,286.0 56.7,286.0 59.6,286.0 62.6,286.0 65.5,286.0 68.4,286.0 71.4,286.0 74.3,286.0 77.3,286.0 80.2,286.0 83.1,286.0 86.1,286.0 89.0,286.0 91.9,286.0 94.9,286.0 97.8,286.0 100.8,286.0 103.7,286.0 106.6,286.0 109.6,286.0 112.5,286.0 115.4,286.0 118.4,286.0 121.3,286.0 124.3,286.0 127.2,286.0 130.1,286.0 133.1,286.0 136.0,286.0 138.9,286.0 141.9,286.0 144.8,286.0 147.8,286.0 150.7,286.0 153.6,286.0 156.6,286.0 159.5,286.0 162.4,286.0 165.4,286.0 168.3,286.0 171.3,286.0 174.2,286.0 177.1,286.0 180.1,286.0 183.0,286.0 185.9,286.0 188.9,286.0 191.8,286.0 194.8,286.0 197.7,286.0 200.6,286.0 203.6,286.0 206.5,286.0 209.4,286.0 212.4,286.0 215.3,286.0 218.3,286.0 221.2,286.0 224.1,286.0 227.1,286.0 230.0,286.0 233.0,286.0 235.9,286.0 238.8,286.0 241.8,286.0 244.7,286.0 247.6,280.0 250.6,286.0 253.5,286.0 256.5,286.0 259.4,286.0 262.3,286.0 265.3,286.0 268.2,286.0 271.1,286.0 274.1,286.0 277.0,286.0 280.0,286.0 282.9,286.0 285.8,286.0 288.8,286.0 291.7,286.0 294.6,286.0 297.6,286.0 300.5,286.0 303.5,286.0 306.4,286.0 309.3,286.0 312.3,286.0 315.2,286.0 318.1,286.0 321.1,286.0 324.0,286.0 327.0,286.0 329.9,286.0 332.8,286.0 335.8,286.0 338.7,286.0 341.6,286.0 344.6,286.0 347.5,286.0 350.5,286.0 353.4,286.0 356.3,286.0 359.3,286.0 362.2,286.0 365.1,286.0 368.1,286.0 371.0,286.0 374.0,286.0 376.9,286.0 379.8,286.0 382.8,286.0 385.7,286.0 388.6,286.0 391.6,286.0 394.5,286.0 397.5,286.0 400.4,286.0 403.3,286.0 406.3,286.0 409.2,286.0 412.2,286.0 415.1,286.0 418.0,286.0 421.0,286.0 423.9,286.0 426.8,286.0 429.8,286.0 432.7,286.0 435.7,286.0 438.6,286.0 441.5,286.0 444.5,286.0 447.4,286.0 450.3,286.0 453.3,286.0 456.2,286.0 459.2,286.0 462.1,286.0 465.0,286.0 468.0,286.0 470.9,286.0 473.8,286.0 476.8,286.0 479.7,286.0 482.7,286.0 485.6,286.0 488.5,286.0 491.5,286.0 494.4,286.0 497.3,286.0 500.3,286.0 503.2,280.0 506.2,286.0 509.1,286.0 512.0,286.0 515.0,286.0 517.9,286.0 520.8,286.0 523.8,286.0 526.7,286.0 529.7,286.0 532.6,286.0 535.5,286.0 538.5,286.0 541.4,286.0 544.3,286.0 547.3,286.0 550.2,286.0 553.2,286.0 556.1,286.0 559.0,286.0 562.0,286.0 564.9,286.0 567.8,286.0 570.8,286.0 573.7,286.0 576.7,286.0 579.6,286.0 582.5,286.0 585.5,286.0 588.4,286.0 591.4,286.0 594.3,286.0 597.2,286.0 600.2,286.0 603.1,286.0 606.0,286.0 609.0,286.0 611.9,286.0 614.9,286.0 617.8,286.0 620.7,286.0 623.7,286.0 626.6,286.0 629.5,286.0 632.5,286.0 635.4,286.0 638.4,286.0 641.3,286.0 644.2,286.0 647.2,286.0 650.1,286.0 653.0,286.0 656.0,286.0 658.9,286.0 661.9,286.0 664.8,286.0 667.7,286.0 670.7,286.0 673.6,280.0 676.5,286.0 679.5,286.0 682.4,286.0 685.4,286.0 688.3,286.0 691.2,286.0 694.2,286.0 697.1,286.0 700.0,286.0 703.0,280.0 705.9,286.0 708.9,286.0 711.8,286.0 714.7,286.0 717.7,286.0 720.6,286.0 723.5,286.0 726.5,286.0 729.4,286.0 732.4,286.0 735.3,286.0 738.2,286.0 741.2,286.0 744.1,286.0 747.0,286.0 750.0,286.0 752.9,286.0 755.9,286.0 758.8,286.0 761.7,286.0 764.7,286.0 767.6,286.0 770.6,286.0 773.5,286.0 776.4,286.0 779.4,286.0 782.3,286.0 785.2,286.0 788.2,280.0 791.1,286.0 794.1,286.0 797.0,286.0 799.9,286.0 802.9,286.0 805.8,286.0 808.7,280.0 811.7,286.0 814.6,286.0 817.6,286.0 820.5,286.0 823.4,286.0 826.4,286.0 829.3,286.0 832.2,286.0 835.2,286.0 838.1,286.0 841.1,286.0 844.0,286.0 846.9,286.0 849.9,286.0 852.8,286.0 855.7,286.0 858.7,280.0 861.6,286.0 864.6,286.0 867.5,286.0 870.4,286.0 873.4,286.0 876.3,286.0 879.2,286.0 882.2,286.0 885.1,286.0 888.1,286.0 891.0,286.0 893.9,286.0 896.9,286.0 899.8,286.0 902.7,286.0 905.7,286.0 908.6,286.0 911.6,286.0 914.5,286.0 917.4,286.0 920.4,286.0 923.3,286.0 926.2,286.0 929.2,286.0 932.1,286.0 935.1,286.0 938.0,286.0"/><text x="42" y="308" font-size="11" fill="#9fb0d4">19/06 12:43</text><text x="938" y="308" text-anchor="end" font-size="11" fill="#9fb0d4">06/07 15:29</text></svg>