<svg xmlns="http://www.w3.org/2000/svg" viewBox="0 0 960 320" width="960" height="320" font-family="Segoe UI, system-ui, -apple-system, Roboto, Helvetica, Arial, sans-serif" role="img" aria-label="Availability history per region"><rect x="0.5" y="0.5" width="959" height="319" rx="14" fill="#ffffff" stroke="#dce3f1"/><text x="42" y="26" font-size="14" font-weight="600" fill="#14203a">History · 336 points</text><circle cx="47" cy="40" r="5" fill="#22c55e"/><text x="57" y="44" font-size="12" fill="#5a688a">Available</text><circle cx="139.8" cy="40" r="5" fill="#f59e0b"/><text x="149.8" y="44" font-size="12" fill="#5a688a">Saturated</text><circle cx="232.60000000000002" cy="40" r="5" fill="#ef4444"/><text x="242.60000000000002" y="44" font-size="12" fill="#5a688a">Error</text><circle cx="296.6" cy="40" r="5" fill="#a855f7"/><text x="306.6" y="44" font-size="12" fill="#5a688a">Timeout</text><line x1="42" y1="286.0" x2="938" y2="286.0" stroke="#eef2f7" stroke-width="1"/><text x="35" y="289.0" text-anchor="end" font-size="11" fill="#5a688a">0</text><line x1="42" y1="227.5" x2="938" y2="227.5" stroke="#eef2f7" stroke-width="1"/><text x="35" y="230.5" text-anchor="end" font-size="11" fill="#5a688a">10</text><line x1="42" y1="169.0" x2="938" y2="169.0" stroke="#eef2f7" stroke-width="1"/><text x="35" y="172.0" text-anchor="end" font-size="11" fill="#5a688a">19</text><line x1="42" y1="110.5" x2="938" y2="110.5" stroke="#eef2f7" stroke-width="1"/><text x="35" y="113.5" text-anchor="end" font-size="11" fill="#5a688a">28</text><line x1="42" y1="52.0" x2="938" y2="52.0" stroke="#eef2f7" stroke-width="1"/><text x="35" y="55.0" text-anchor="end" font-size="11" fill="#5a688a">38</text><polyline fill="none" stroke="#22c55e" stroke-width="2.5" stroke-linejoin="round" stroke-linecap="round" points="42.0,76.6 44.7,76.6 47.3,76.6 50.0,70.5 52.7,58.2 55.4,64.3 58.0,64.3 60.7,76.6 63.4,70.5 66.1,70.5 68.7,76.6 71.4,70.5 74.1,70.5 76.8,70.5 79.4,58.2 82.1,58.2 84.8,70.5 87.5,70.5 90.1,70.5 92.8,82.8 95.5,64.3 98.2,58.2 100.8,52.0 103.5,52.0 106.2,64.3 108.9,64.3 111.5,64.3 114.2,70.5 116.9,64.3 119.6,64.3 122.2,64.3 124.9,64.3 127.6,70.5 130.3,76.6 132.9,70.5 135.6,64.3 138.3,64.3 141.0,64.3 143.6,64.3 146.3,70.5 149.0,64.3 151.7,64.3 154.3,64.3 157.0,64.3 159.7,64.3 162.4,64.3 165.0,64.3 167.7,64.3 170.4,64.3 173.1,64.3 175.7,64.3 178.4,64.3 181.1,64.3 183.8,64.3 186.4,64.3 189.1,64.3 191.8,64.3 194.5,64.3 197.1,64.3 199.8,64.3 202.5,64.3 205.2,64.3 207.8,64.3 210.5,64.3 213.2,64.3 215.9,64.3 218.5,64.3 221.2,64.3 223.9,64.3 226.5,64.3 229.2,64.3 231.9,64.3 234.6,64.3 237.2,64.3 239.9,64.3 242.6,64.3 245.3,64.3 247.9,64.3 250.6,64.3 253.3,64.3 256.0,64.3 258.6,64.3 261.3,64.3 264.0,64.3 266.7,64.3 269.3,64.3 272.0,64.3 274.7,64.3 277.4,64.3 280.0,64.3 282.7,64.3 285.4,64.3 288.1,64.3 290.7,64.3 293.4,64.3 296.1,64.3 298.8,64.3 301.4,64.3 304.1,64.3 306.8,64.3 309.5,64.3 312.1,64.3 314.8,64.3 317.5,64.3 320.2,64.3 322.8,64.3 325.5,64.3 328.2,64.3 330.9,70.5 333.5,64.3 336.2,64.3 338.9,64.3 341.6,64.3 344.2,64.3 346.9,70.5 349.6,70.5 352.3,82.8 354.9,82.8 357.6,82.8 360.3,88.9 363.0,88.9 365.6,88.9 368.3,88.9 371.0,82.8 373.7,82.8 376.3,76.6 379.0,76.6 381.7,76.6 384.4,82.8 387.0,82.8 389.7,88.9 392.4,76.6 395.1,76.6 397.7,76.6 400.4,76.6 403.1,82.8 405.7,82.8 408.4,88.9 411.1,88.9 413.8,82.8 416.4,82.8 419.1,82.8 421.8,88.9 424.5,88.9 427.1,101.3 429.8,88.9 432.5,88.9 435.2,88.9 437.8,88.9 440.5,82.8 443.2,82.8 445.9,76.6 448.5,70.5 451.2,70.5 453.9,70.5 456.6,70.5 459.2,70.5 461.9,70.5 464.6,64.3 467.3,64.3 469.9,64.3 472.6,70.5 475.3,82.8 478.0,76.6 480.6,64.3 483.3,64.3 486.0,64.3 488.7,70.5 491.3,70.5 494.0,70.5 496.7,76.6 499.4,64.3 502.0,70.5 504.7,58.2 507.4,64.3 510.1,52.0 512.7,52.0 515.4,52.0 518.1,52.0 520.8,52.0 523.4,58.2 526.1,52.0 528.8,58.2 531.5,52.0 534.1,52.0 536.8,52.0 539.5,52.0 542.2,58.2 544.8,58.2 547.5,58.2 550.2,70.5 552.9,64.3 555.5,76.6 558.2,64.3 560.9,70.5 563.6,52.0 566.2,58.2 568.9,52.0 571.6,58.2 574.3,52.0 576.9,52.0 579.6,52.0 582.3,58.2 584.9,64.3 587.6,58.2 590.3,58.2 593.0,58.2 595.6,64.3 598.3,64.3 601.0,58.2 603.7,64.3 606.3,64.3 609.0,64.3 611.7,52.0 614.4,52.0 617.0,52.0 619.7,52.0 622.4,52.0 625.1,58.2 627.7,52.0 630.4,52.0 633.1,52.0 635.8,52.0 638.4,52.0 641.1,52.0 643.8,52.0 646.5,52.0 649.1,58.2 651.8,52.0 654.5,52.0 657.2,52.0 659.8,52.0 662.5,52.0 665.2,52.0 667.9,52.0 670.5,58.2 673.2,52.0 675.9,52.0 678.6,52.0 681.2,52.0 683.9,52.0 686.6,52.0 689.3,52.0 691.9,52.0 694.6,52.0 697.3,52.0 700.0,52.0 702.6,52.0 705.3,52.0 708.0,52.0 710.7,52.0 713.3,52.0 716.0,52.0 718.7,52.0 721.4,52.0 724.0,58.2 726.7,58.2 729.4,52.0 732.1,52.0 734.7,52.0 737.4,58.2 740.1,58.2 742.8,70.5 745.4,58.2 748.1,58.2 750.8,64.3 753.5,52.0 756.1,52.0 758.8,52.0 761.5,52.0 764.1,52.0 766.8,52.0 769.5,64.3 772.2,58.2 774.8,58.2 777.5,58.2 780.2,58.2 782.9,64.3 785.5,64.3 788.2,70.5 790.9,70.5 793.6,76.6 796.2,82.8 798.9,76.6 801.6,76.6 804.3,82.8 806.9,76.6 809.6,70.5 812.3,70.5 815.0,64.3 817.6,58.2 820.3,58.2 823.0,70.5 825.7,70.5 828.3,64.3 831.0,70.5 833.7,64.3 836.4,64.3 839.0,64.3 841.7,76.6 844.4,64.3 847.1,70.5 849.7,64.3 852.4,70.5 855.1,64.3 857.8,70.5 860.4,64.3 863.1,64.3 865.8,76.6 868.5,70.5 871.1,70.5 873.8,70.5 876.5,70.5 879.2,70.5 881.8,64.3 884.5,70.5 887.2,64.3 889.9,64.3 892.5,64.3 895.2,70.5 897.9,70.5 900.6,70.5 903.2,64.3 905.9,64.3 908.6,64.3 911.3,64.3 913.9,70.5 916.6,70.5 919.3,70.5 922.0,76.6 924.6,70.5 927.3,76.6 930.0,76.6 932.7,76.6 935.3,82.8 938.0,76.6"/><polyline fill="none" stroke="#f59e0b" stroke-width="2.5" stroke-linejoin="round" stroke-linecap="round" points="42.0,261.4 44.7,261.4 47.3,261.4 50.0,267.5 52.7,279.8 55.4,279.8 58.0,273.7 60.7,261.4 63.4,267.5 66.1,267.5 68.7,261.4 71.4,267.5 74.1,267.5 76.8,267.5 79.4,279.8 82.1,279.8 84.8,267.5 87.5,267.5 90.1,267.5 92.8,261.4 95.5,273.7 98.2,279.8 100.8,286.0 103.5,286.0 106.2,273.7 108.9,273.7 111.5,273.7 114.2,273.7 116.9,273.7 119.6,273.7 122.2,273.7 124.9,273.7 127.6,279.8 130.3,273.7 132.9,279.8 135.6,286.0 138.3,286.0 141.0,286.0 143.6,286.0 146.3,279.8 149.0,286.0 151.7,286.0 154.3,286.0 157.0,286.0 159.7,286.0 162.4,286.0 165.0,286.0 167.7,286.0 170.4,286.0 173.1,286.0 175.7,286.0 178.4,286.0 181.1,286.0 183.8,286.0 186.4,286.0 189.1,286.0 191.8,286.0 194.5,286.0 197.1,286.0 199.8,286.0 202.5,286.0 205.2,286.0 207.8,286.0 210.5,286.0 213.2,286.0 215.9,286.0 218.5,286.0 221.2,286.0 223.9,286.0 226.5,286.0 229.2,286.0 231.9,286.0 234.6,286.0 237.2,286.0 239.9,286.0 242.6,286.0 245.3,286.0 247.9,286.0 250.6,286.0 253.3,286.0 256.0,286.0 258.6,286.0 261.3,286.0 264.0,286.0 266.7,286.0 269.3,286.0 272.0,286.0 274.7,286.0 277.4,286.0 280.0,286.0 282.7,286.0 285.4,286.0 288.1,286.0 290.7,286.0 293.4,286.0 296.1,286.0 298.8,286.0 301.4,286.0 304.1,286.0 306.8,286.0 309.5,286.0 312.1,286.0 314.8,286.0 317.5,286.0 320.2,286.0 322.8,286.0 325.5,286.0 328.2,286.0 330.9,286.0 333.5,286.0 336.2,286.0 338.9,286.0 341.6,286.0 344.2,286.0 346.9,286.0 349.6,279.8 352.3,267.5 354.9,267.5 357.6,267.5 360.3,267.5 363.0,261.4 365.6,261.4 368.3,261.4 371.0,267.5 373.7,267.5 376.3,273.7 379.0,273.7 381.7,273.7 384.4,267.5 387.0,267.5 389.7,267.5 392.4,273.7 395.1,273.7 397.7,273.7 400.4,273.7 403.1,267.5 405.7,267.5 408.4,261.4 411.1,261.4 413.8,267.5 416.4,267.5 419.1,267.5 421.8,261.4 424.5,261.4 427.1,273.7 429.8,261.4 432.5,261.4 435.2,261.4 437.8,261.4 440.5,267.5 443.2,267.5 445.9,273.7 448.5,279.8 451.2,279.8 453.9,279.8 456.6,279.8 459.2,279.8 461.9,279.8 464.6,286.0 467.3,286.0 469.9,286.0 472.6,279.8 475.3,273.7 478.0,273.7 480.6,279.8 483.3,273.7 486.0,273.7 488.7,267.5 491.3,267.5 494.0,267.5 496.7,267.5 499.4,279.8 502.0,273.7 504.7,279.8 507.4,279.8 510.1,286.0 512.7,286.0 515.4,286.0 518.1,286.0 520.8,286.0 523.4,286.0 526.1,286.0 528.8,286.0 531.5,286.0 534.1,286.0 536.8,286.0 539.5,286.0 542.2,279.8 544.8,279.8 547.5,279.8 550.2,267.5 552.9,279.8 555.5,267.5 558.2,273.7 560.9,273.7 563.6,286.0 566.2,279.8 568.9,286.0 571.6,279.8 574.3,286.0 576.9,286.0 579.6,286.0 582.3,279.8 584.9,273.7 587.6,279.8 590.3,279.8 593.0,279.8 595.6,273.7 598.3,273.7 601.0,279.8 603.7,279.8 606.3,279.8 609.0,279.8 611.7,286.0 614.4,286.0 617.0,286.0 619.7,286.0 622.4,286.0 625.1,286.0 627.7,286.0 630.4,286.0 633.1,286.0 635.8,286.0 638.4,286.0 641.1,286.0 643.8,286.0 646.5,286.0 649.1,286.0 651.8,286.0 654.5,286.0 657.2,286.0 659.8,286.0 662.5,286.0 665.2,286.0 667.9,286.0 670.5,286.0 673.2,286.0 675.9,286.0 678.6,286.0 681.2,286.0 683.9,286.0 686.6,286.0 689.3,286.0 691.9,286.0 694.6,286.0 697.3,286.0 700.0,286.0 702.6,286.0 705.3,286.0 708.0,286.0 710.7,286.0 713.3,286.0 716.0,286.0 718.7,286.0 721.4,286.0 724.0,286.0 726.7,286.0 729.4,286.0 732.1,286.0 734.7,286.0 737.4,279.8 740.1,279.8 742.8,279.8 745.4,279.8 748.1,279.8 750.8,273.7 753.5,286.0 756.1,286.0 758.8,286.0 761.5,286.0 764.1,286.0 766.8,286.0 769.5,286.0 772.2,279.8 774.8,279.8 777.5,279.8 780.2,279.8 782.9,273.7 785.5,273.7 788.2,267.5 790.9,267.5 793.6,261.4 796.2,261.4 798.9,261.4 801.6,261.4 804.3,261.4 806.9,267.5 809.6,267.5 812.3,267.5 815.0,273.7 817.6,279.8 820.3,279.8 823.0,267.5 825.7,267.5 828.3,273.7 831.0,267.5 833.7,273.7 836.4,273.7 839.0,273.7 841.7,273.7 844.4,273.7 847.1,267.5 849.7,273.7 852.4,267.5 855.1,273.7 857.8,267.5 860.4,273.7 863.1,273.7 865.8,261.4 868.5,267.5 871.1,267.5 873.8,267.5 876.5,267.5 879.2,267.5 881.8,273.7 884.5,267.5 887.2,273.7 889.9,273.7 892.5,273.7 895.2,267.5 897.9,267.5 900.6,267.5 903.2,273.7 905.9,273.7 908.6,273.7 911.3,273.7 913.9,267.5 916.6,267.5 919.3,267.5 922.0,267.5 924.6,267.5 927.3,261.4 930.0,261.4 932.7,261.4 935.3,261.4 938.0,261.4"/><polyline fill="none" stroke="#ef4444" stroke-width="2.5" stroke-linejoin="round" stroke-linecap="round" points="42.0,286.0 44.7,286.0 47.3,286.0 50.0,286.0 52.7,286.0 55.4,279.8 58.0,286.0 60.7,286.0 63.4,286.0 66.1,286.0 68.7,286.0 71.4,286.0 74.1,286.0 76.8,286.0 79.4,286.0 82.1,286.0 84.8,286.0 87.5,286.0 90.1,286.0 92.8,279.8 95.5,286.0 98.2,286.0 100.8,286.0 103.5,286.0 106.2,286.0 108.9,286.0 111.5,286.0 114.2,286.0 116.9,286.0 119.6,286.0 122.2,286.0 124.9,286.0 127.6,273.7 130.3,273.7 132.9,273.7 135.6,273.7 138.3,273.7 141.0,273.7 143.6,273.7 146.3,273.7 149.0,273.7 151.7,273.7 154.3,273.7 157.0,273.7 159.7,273.7 162.4,273.7 165.0,273.7 167.7,273.7 170.4,273.7 173.1,273.7 175.7,273.7 178.4,273.7 181.1,273.7 183.8,273.7 186.4,273.7 189.1,273.7 191.8,273.7 194.5,273.7 197.1,273.7 199.8,273.7 202.5,273.7 205.2,273.7 207.8,273.7 210.5,273.7 213.2,273.7 215.9,273.7 218.5,273.7 221.2,273.7 223.9,273.7 226.5,273.7 229.2,273.7 231.9,273.7 234.6,273.7 237.2,273.7 239.9,273.7 242.6,273.7 245.3,273.7 247.9,273.7 250.6,273.7 253.3,273.7 256.0,273.7 258.6,273.7 261.3,273.7 264.0,273.7 266.7,273.7 269.3,273.7 272.0,273.7 274.7,273.7 277.4,273.7 280.0,273.7 282.7,273.7 285.4,273.7 288.1,273.7 290.7,273.7 293.4,273.7 296.1,273.7 298.8,273.7 301.4,273.7 304.1,273.7 306.8,273.7 309.5,273.7 312.1,273.7 314.8,273.7 317.5,273.7 320.2,273.7 322.8,273.7 325.5,273.7 328.2,273.7 330.9,267.5 333.5,273.7 336.2,273.7 338.9,273.7 341.6,273.7 344.2,273.7 346.9,273.7 349.6,273.7 352.3,273.7 354.9,273.7 357.6,273.7 360.3,267.5 363.0,273.7 365.6,273.7 368.3,273.7 371.0,273.7 373.7,273.7 376.3,273.7 379.0,273.7 381.7,273.7 384.4,273.7 387.0,273.7 389.7,267.5 392.4,273.7 395.1,273.7 397.7,273.7 400.4,273.7 403.1,273.7 405.7,273.7 408.4,273.7 411.1,273.7 413.8,273.7 416.4,273.7 419.1,273.7 421.8,273.7 424.5,273.7 427.1,249.1 429.8,273.7 432.5,273.7 435.2,273.7 437.8,273.7 440.5,273.7 443.2,273.7 445.9,273.7 448.5,273.7 451.2,273.7 453.9,273.7 456.6,273.7 459.2,273.7 461.9,273.7 464.6,273.7 467.3,273.7 469.9,273.7 472.6,273.7 475.3,267.5 478.0,273.7 480.6,279.8 483.3,286.0 486.0,286.0 488.7,286.0 491.3,286.0 494.0,286.0 496.7,279.8 499.4,279.8 502.0,286.0 504.7,286.0 507.4,279.8 510.1,286.0 512.7,286.0 515.4,286.0 518.1,286.0 520.8,286.0 523.4,279.8 526.1,286.0 528.8,286.0 531.5,286.0 534.1,286.0 536.8,286.0 539.5,286.0 542.2,286.0 544.8,286.0 547.5,286.0 550.2,286.0 552.9,279.8 555.5,279.8 558.2,286.0 560.9,279.8 563.6,286.0 566.2,286.0 568.9,286.0 571.6,286.0 574.3,286.0 576.9,286.0 579.6,286.0 582.3,286.0 584.9,286.0 587.6,286.0 590.3,286.0 593.0,286.0 595.6,286.0 598.3,286.0 601.0,286.0 603.7,279.8 606.3,286.0 609.0,279.8 611.7,286.0 614.4,286.0 617.0,286.0 619.7,286.0 622.4,286.0 625.1,286.0 627.7,286.0 630.4,286.0 633.1,286.0 635.8,286.0 638.4,286.0 641.1,286.0 643.8,286.0 646.5,286.0 649.1,279.8 651.8,286.0 654.5,286.0 657.2,286.0 659.8,286.0 662.5,286.0 665.2,286.0 667.9,286.0 670.5,286.0 673.2,286.0 675.9,286.0 678.6,286.0 681.2,286.0 683.9,286.0 686.6,286.0 689.3,286.0 691.9,286.0 694.6,286.0 697.3,286.0 700.0,286.0 702.6,286.0 705.3,286.0 708.0,286.0 710.7,286.0 713.3,286.0 716.0,286.0 718.7,286.0 721.4,286.0 724.0,279.8 726.7,279.8 729.4,286.0 732.1,286.0 734.7,286.0 737.4,286.0 740.1,286.0 742.8,273.7 745.4,286.0 748.1,286.0 750.8,286.0 753.5,286.0 756.1,286.0 758.8,286.0 761.5,286.0 764.1,286.0 766.8,286.0 769.5,286.0 772.2,286.0 774.8,286.0 777.5,286.0 780.2,286.0 782.9,286.0 785.5,286.0 788.2,286.0 790.9,286.0 793.6,286.0 796.2,279.8 798.9,286.0 801.6,286.0 804.3,279.8 806.9,279.8 809.6,286.0 812.3,286.0 815.0,286.0 817.6,286.0 820.3,286.0 823.0,286.0 825.7,286.0 828.3,286.0 831.0,286.0 833.7,286.0 836.4,286.0 839.0,286.0 841.7,273.7 844.4,286.0 847.1,286.0 849.7,286.0 852.4,286.0 855.1,286.0 857.8,286.0 860.4,286.0 863.1,286.0 865.8,286.0 868.5,286.0 871.1,286.0 873.8,286.0 876.5,286.0 879.2,286.0 881.8,286.0 884.5,286.0 887.2,286.0 889.9,286.0 892.5,286.0 895.2,286.0 897.9,286.0 900.6,286.0 903.2,286.0 905.9,286.0 908.6,286.0 911.3,286.0 913.9,286.0 916.6,286.0 919.3,286.0 922.0,279.8 924.6,286.0 927.3,286.0 930.0,286.0 932.7,286.0 935.3,279.8 938.0,286.0"/><polyline fill="none" stroke="#a855f7" stroke-width="2.5" stroke-linejoin="round" stroke-linecap="round" points="42.0,286.0 44.7,286.0 47.3,286.0 50.0,286.0 52.7,286.0 55.4,286.0 58.0,286.0 60.7,286.0 63.4,286.0 66.1,286.0 68.7,286.0 71.4,286.0 74.1,286.0 76.8,286.0 79.4,286.0 82.1,286.0 84.8,286.0 87.5,286.0 90.1,286.0 92.8,286.0 95.5,286.0 98.2,286.0 100.8,286.0 103.5,286.0 106.2,286.0 108.9,286.0 111.5,286.0 114.2,279.8 116.9,286.0 119.6,286.0 122.2,286.0 124.9,286.0 127.6,286.0 130.3,286.0 132.9,286.0 135.6,286.0 138.3,286.0 141.0,286.0 143.6,286.0 146.3,286.0 149.0,286.0 151.7,286.0 154.3,286.0 157.0,286.0 159.7,286.0 162.4,286.0 165.0,286.0 167.7,286.0 170.4,286.0 173.1,286.0 175.7,286.0 178.4,286.0 181.1,286.0 183.8,286.0 186.4,286.0 189.1,286.0 191.8,286.0 194.5,286.0 197.1,286.0 199.8,286.0 202.5,286.0 205.2,286.0 207.8,286.0 210.5,286.0 213.2,286.0 215.9,286.0 218.5,286.0 221.2,286.0 223.9,286.0 226.5,286.0 229.2,286.0 231.9,286.0 234.6,286.0 237.2,286.0 239.9,286.0 242.6,286.0 245.3,286.0 247.9,286.0 250.6,286.0 253.3,286.0 256.0,286.0 258.6,286.0 261.3,286.0 264.0,286.0 266.7,286.0 269.3,286.0 272.0,286.0 274.7,286.0 277.4,286.0 280.0,286.0 282.7,286.0 285.4,286.0 288.1,286.0 290.7,286.0 293.4,286.0 296.1,286.0 298.8,286.0 301.4,286.0 304.1,286.0 306.8,286.0 309.5,286.0 312.1,286.0 314.8,286.0 317.5,286.0 320.2,286.0 322.8,286.0 325.5,286.0 328.2,286.0 330.9,286.0 333.5,286.0 336.2,286.0 338.9,286.0 341.6,286.0 344.2,286.0 346.9,279.8 349.6,286.0 352.3,286.0 354.9,286.0 357.6,286.0 360.3,286.0 363.0,286.0 365.6,286.0 368.3,286.0 371.0,286.0 373.7,286.0 376.3,286.0 379.0,286.0 381.7,286.0 384.4,286.0 387.0,286.0 389.7,286.0 392.4,286.0 395.1,286.0 397.7,286.0 400.4,286.0 403.1,286.0 405.7,286.0 408.4,286.0 411.1,286.0 413.8,286.0 416.4,286.0 419.1,286.0 421.8,286.0 424.5,286.0 427.1,286.0 429.8,286.0 432.5,286.0 435.2,286.0 437.8,286.0 440.5,286.0 443.2,286.0 445.9,286.0 448.5,286.0 451.2,286.0 453.9,286.0 456.6,286.0 459.2,286.0 461.9,286.0 464.6,286.0 467.3,286.0 469.9,286.0 472.6,286.0 475.3,286.0 478.0,286.0 480.6,286.0 483.3,286.0 486.0,286.0 488.7,286.0 491.3,286.0 494.0,286.0 496.7,286.0 499.4,286.0 502.0,279.8 504.7,286.0 507.4,286.0 510.1,286.0 512.7,286.0 515.4,286.0 518.1,286.0 520.8,286.0 523.4,286.0 526.1,286.0 528.8,279.8 531.5,286.0 534.1,286.0 536.8,286.0 539.5,286.0 542.2,286.0 544.8,286.0 547.5,286.0 550.2,286.0 552.9,286.0 555.5,286.0 558.2,286.0 560.9,286.0 563.6,286.0 566.2,286.0 568.9,286.0 571.6,286.0 574.3,286.0 576.9,286.0 579.6,286.0 582.3,286.0 584.9,286.0 587.6,286.0 590.3,286.0 593.0,286.0 595.6,286.0 598.3,286.0 601.0,286.0 603.7,286.0 606.3,279.8 609.0,286.0 611.7,286.0 614.4,286.0 617.0,286.0 619.7,286.0 622.4,286.0 625.1,279.8 627.7,286.0 630.4,286.0 633.1,286.0 635.8,286.0 638.4,286.0 641.1,286.0 643.8,286.0 646.5,286.0 649.1,286.0 651.8,286.0 654.5,286.0 657.2,286.0 659.8,286.0 662.5,286.0 665.2,286.0 667.9,286.0 670.5,279.8 673.2,286.0 675.9,286.0 678.6,286.0 681.2,286.0 683.9,286.0 686.6,286.0 689.3,286.0 691.9,286.0 694.6,286.0 697.3,286.0 700.0,286.0 702.6,286.0 705.3,286.0 708.0,286.0 710.7,286.0 713.3,286.0 716.0,286.0 718.7,286.0 721.4,286.0 724.0,286.0 726.7,286.0 729.4,286.0 732.1,286.0 734.7,286.0 737.4,286.0 740.1,286.0 742.8,286.0 745.4,286.0 748.1,286.0 750.8,286.0 753.5,286.0 756.1,286.0 758.8,286.0 761.5,286.0 764.1,286.0 766.8,286.0 769.5,273.7 772.2,286.0 774.8,286.0 777.5,286.0 780.2,286.0 782.9,286.0 785.5,286.0 788.2,286.0 790.9,286.0 793.6,286.0 796.2,286.0 798.9,286.0 801.6,286.0 804.3,286.0 806.9,286.0 809.6,286.0 812.3,286.0 815.0,286.0 817.6,286.0 820.3,286.0 823.0,286.0 825.7,286.0 828.3,286.0 831.0,286.0 833.7,286.0 836.4,286.0 839.0,286.0 841.7,286.0 844.4,286.0 847.1,286.0 849.7,286.0 852.4,286.0 855.1,286.0 857.8,286.0 860.4,286.0 863.1,286.0 865.8,286.0 868.5,286.0 871.1,286.0 873.8,286.0 876.5,286.0 879.2,286.0 881.8,286.0 884.5,286.0 887.2,286.0 889.9,286.0 892.5,286.0 895.2,286.0 897.9,286.0 900.6,286.0 903.2,286.0 905.9,286.0 908.6,286.0 911.3,286.0 913.9,286.0 916.6,286.0 919.3,286.0 922.0,286.0 924.6,286.0 927.3,286.0 930.0,286.0 932.7,286.0 935.3,286.0 938.0,286.0"/><text x="42" y="308" font-size="11" fill="#5a688a">23/06 14:11</text><text x="938" y="308" text-anchor="end" font-size="11" fill="#5a688a">09/07 16:31</text></svg>