<svg xmlns="http://www.w3.org/2000/svg" viewBox="0 0 960 320" width="960" height="320" font-family="Segoe UI, system-ui, -apple-system, Roboto, Helvetica, Arial, sans-serif" role="img" aria-label="Availability history per region"><rect x="0.5" y="0.5" width="959" height="319" rx="14" fill="#0d1117" stroke="#2c3a5e"/><text x="42" y="26" font-size="14" font-weight="600" fill="#e6ecff">History · 181 points</text><circle cx="47" cy="40" r="5" fill="#22c55e"/><text x="57" y="44" font-size="12" fill="#9fb0d4">Available</text><circle cx="139.8" cy="40" r="5" fill="#f59e0b"/><text x="149.8" y="44" font-size="12" fill="#9fb0d4">Saturated</text><circle cx="232.60000000000002" cy="40" r="5" fill="#ef4444"/><text x="242.60000000000002" y="44" font-size="12" fill="#9fb0d4">Error</text><circle cx="296.6" cy="40" r="5" fill="#a855f7"/><text x="306.6" y="44" font-size="12" fill="#9fb0d4">Timeout</text><line x1="42" y1="286.0" x2="938" y2="286.0" stroke="#21304f" stroke-width="1"/><text x="35" y="289.0" text-anchor="end" font-size="11" fill="#9fb0d4">0</text><line x1="42" y1="227.5" x2="938" y2="227.5" stroke="#21304f" stroke-width="1"/><text x="35" y="230.5" text-anchor="end" font-size="11" fill="#9fb0d4">10</text><line x1="42" y1="169.0" x2="938" y2="169.0" stroke="#21304f" stroke-width="1"/><text x="35" y="172.0" text-anchor="end" font-size="11" fill="#9fb0d4">21</text><line x1="42" y1="110.5" x2="938" y2="110.5" stroke="#21304f" stroke-width="1"/><text x="35" y="113.5" text-anchor="end" font-size="11" fill="#9fb0d4">32</text><line x1="42" y1="52.0" x2="938" y2="52.0" stroke="#21304f" stroke-width="1"/><text x="35" y="55.0" text-anchor="end" font-size="11" fill="#9fb0d4">42</text><polyline fill="none" stroke="#22c55e" stroke-width="2.5" stroke-linejoin="round" stroke-linecap="round" points="42.0,85.4 47.0,230.3 52.0,102.1 56.9,107.7 61.9,102.1 66.9,96.6 71.9,96.6 76.8,96.6 81.8,96.6 86.8,96.6 91.8,96.6 96.8,96.6 101.7,96.6 106.7,96.6 111.7,96.6 116.7,91.0 121.6,91.0 126.6,102.1 131.6,102.1 136.6,102.1 141.6,107.7 146.5,107.7 151.5,107.7 156.5,107.7 161.5,107.7 166.4,107.7 171.4,107.7 176.4,107.7 181.4,107.7 186.4,102.1 191.3,102.1 196.3,102.1 201.3,102.1 206.3,96.6 211.2,96.6 216.2,96.6 221.2,96.6 226.2,96.6 231.2,102.1 236.1,102.1 241.1,102.1 246.1,102.1 251.1,96.6 256.0,96.6 261.0,96.6 266.0,96.6 271.0,96.6 276.0,96.6 280.9,96.6 285.9,102.1 290.9,102.1 295.9,102.1 300.8,102.1 305.8,96.6 310.8,96.6 315.8,96.6 320.8,96.6 325.7,96.6 330.7,96.6 335.7,96.6 340.7,96.6 345.6,102.1 350.6,96.6 355.6,96.6 360.6,96.6 365.6,96.6 370.5,96.6 375.5,102.1 380.5,96.6 385.5,96.6 390.4,96.6 395.4,96.6 400.4,96.6 405.4,96.6 410.4,96.6 415.3,96.6 420.3,96.6 425.3,91.0 430.3,91.0 435.2,91.0 440.2,91.0 445.2,96.6 450.2,91.0 455.2,96.6 460.1,96.6 465.1,96.6 470.1,96.6 475.1,96.6 480.0,96.6 485.0,102.1 490.0,107.7 495.0,107.7 500.0,107.7 504.9,107.7 509.9,107.7 514.9,107.7 519.9,107.7 524.8,113.3 529.8,107.7 534.8,107.7 539.8,107.7 544.8,107.7 549.7,107.7 554.7,107.7 559.7,102.1 564.7,102.1 569.6,102.1 574.6,102.1 579.6,102.1 584.6,102.1 589.6,102.1 594.5,102.1 599.5,107.7 604.5,107.7 609.5,107.7 614.4,107.7 619.4,107.7 624.4,107.7 629.4,107.7 634.4,107.7 639.3,113.3 644.3,107.7 649.3,107.7 654.3,107.7 659.2,118.9 664.2,107.7 669.2,107.7 674.2,107.7 679.2,107.7 684.1,102.1 689.1,102.1 694.1,102.1 699.1,102.1 704.0,107.7 709.0,102.1 714.0,107.7 719.0,107.7 724.0,107.7 728.9,107.7 733.9,113.3 738.9,107.7 743.9,107.7 748.8,107.7 753.8,107.7 758.8,107.7 763.8,107.7 768.8,107.7 773.7,107.7 778.7,113.3 783.7,102.1 788.7,102.1 793.6,102.1 798.6,102.1 803.6,102.1 808.6,102.1 813.6,102.1 818.5,102.1 823.5,102.1 828.5,102.1 833.5,107.7 838.4,102.1 843.4,102.1 848.4,102.1 853.4,102.1 858.4,102.1 863.3,102.1 868.3,102.1 873.3,102.1 878.3,107.7 883.2,91.0 888.2,85.4 893.2,79.9 898.2,79.9 903.2,79.9 908.1,79.9 913.1,79.9 918.1,79.9 923.1,79.9 928.0,91.0 933.0,96.6 938.0,91.0"/><polyline fill="none" stroke="#f59e0b" stroke-width="2.5" stroke-linejoin="round" stroke-linecap="round" points="42.0,274.9 47.0,269.3 52.0,258.1 56.9,252.6 61.9,258.1 66.9,263.7 71.9,263.7 76.8,263.7 81.8,263.7 86.8,263.7 91.8,263.7 96.8,263.7 101.7,263.7 106.7,263.7 111.7,263.7 116.7,269.3 121.6,269.3 126.6,263.7 131.6,258.1 136.6,258.1 141.6,252.6 146.5,252.6 151.5,252.6 156.5,252.6 161.5,252.6 166.4,252.6 171.4,252.6 176.4,252.6 181.4,252.6 186.4,258.1 191.3,258.1 196.3,258.1 201.3,258.1 206.3,263.7 211.2,263.7 216.2,263.7 221.2,263.7 226.2,263.7 231.2,258.1 236.1,258.1 241.1,258.1 246.1,258.1 251.1,263.7 256.0,263.7 261.0,263.7 266.0,263.7 271.0,263.7 276.0,263.7 280.9,263.7 285.9,258.1 290.9,258.1 295.9,258.1 300.8,263.7 305.8,263.7 310.8,263.7 315.8,263.7 320.8,263.7 325.7,263.7 330.7,263.7 335.7,263.7 340.7,263.7 345.6,258.1 350.6,263.7 355.6,263.7 360.6,263.7 365.6,263.7 370.5,263.7 375.5,263.7 380.5,263.7 385.5,263.7 390.4,263.7 395.4,263.7 400.4,263.7 405.4,263.7 410.4,263.7 415.3,263.7 420.3,263.7 425.3,269.3 430.3,269.3 435.2,269.3 440.2,269.3 445.2,269.3 450.2,269.3 455.2,263.7 460.1,263.7 465.1,263.7 470.1,263.7 475.1,263.7 480.0,263.7 485.0,258.1 490.0,252.6 495.0,252.6 500.0,258.1 504.9,252.6 509.9,252.6 514.9,252.6 519.9,252.6 524.8,252.6 529.8,252.6 534.8,258.1 539.8,252.6 544.8,252.6 549.7,252.6 554.7,252.6 559.7,258.1 564.7,258.1 569.6,258.1 574.6,258.1 579.6,258.1 584.6,258.1 589.6,258.1 594.5,258.1 599.5,252.6 604.5,252.6 609.5,252.6 614.4,252.6 619.4,252.6 624.4,252.6 629.4,252.6 634.4,258.1 639.3,252.6 644.3,252.6 649.3,252.6 654.3,252.6 659.2,252.6 664.2,252.6 669.2,252.6 674.2,258.1 679.2,258.1 684.1,258.1 689.1,258.1 694.1,258.1 699.1,258.1 704.0,258.1 709.0,258.1 714.0,252.6 719.0,252.6 724.0,252.6 728.9,252.6 733.9,252.6 738.9,252.6 743.9,252.6 748.8,252.6 753.8,252.6 758.8,252.6 763.8,252.6 768.8,252.6 773.7,252.6 778.7,252.6 783.7,258.1 788.7,258.1 793.6,258.1 798.6,258.1 803.6,258.1 808.6,263.7 813.6,263.7 818.5,258.1 823.5,258.1 828.5,258.1 833.5,258.1 838.4,258.1 843.4,258.1 848.4,258.1 853.4,258.1 858.4,258.1 863.3,258.1 868.3,258.1 873.3,258.1 878.3,258.1 883.2,258.1 888.2,258.1 893.2,258.1 898.2,258.1 903.2,258.1 908.1,258.1 913.1,258.1 918.1,258.1 923.1,258.1 928.0,258.1 933.0,258.1 938.0,258.1"/><polyline fill="none" stroke="#ef4444" stroke-width="2.5" stroke-linejoin="round" stroke-linecap="round" points="42.0,286.0 47.0,146.7 52.0,286.0 56.9,286.0 61.9,286.0 66.9,286.0 71.9,286.0 76.8,286.0 81.8,286.0 86.8,286.0 91.8,286.0 96.8,286.0 101.7,286.0 106.7,286.0 111.7,286.0 116.7,286.0 121.6,286.0 126.6,280.4 131.6,286.0 136.6,286.0 141.6,286.0 146.5,286.0 151.5,286.0 156.5,286.0 161.5,286.0 166.4,286.0 171.4,286.0 176.4,286.0 181.4,286.0 186.4,286.0 191.3,286.0 196.3,286.0 201.3,286.0 206.3,286.0 211.2,286.0 216.2,286.0 221.2,286.0 226.2,286.0 231.2,286.0 236.1,286.0 241.1,286.0 246.1,286.0 251.1,286.0 256.0,286.0 261.0,286.0 266.0,286.0 271.0,286.0 276.0,286.0 280.9,286.0 285.9,286.0 290.9,286.0 295.9,286.0 300.8,286.0 305.8,286.0 310.8,286.0 315.8,286.0 320.8,286.0 325.7,286.0 330.7,286.0 335.7,286.0 340.7,286.0 345.6,286.0 350.6,286.0 355.6,286.0 360.6,286.0 365.6,286.0 370.5,286.0 375.5,280.4 380.5,286.0 385.5,286.0 390.4,286.0 395.4,286.0 400.4,286.0 405.4,286.0 410.4,286.0 415.3,286.0 420.3,286.0 425.3,286.0 430.3,286.0 435.2,286.0 440.2,286.0 445.2,280.4 450.2,286.0 455.2,286.0 460.1,286.0 465.1,286.0 470.1,286.0 475.1,286.0 480.0,286.0 485.0,286.0 490.0,286.0 495.0,286.0 500.0,280.4 504.9,286.0 509.9,286.0 514.9,286.0 519.9,286.0 524.8,280.4 529.8,286.0 534.8,286.0 539.8,286.0 544.8,286.0 549.7,286.0 554.7,286.0 559.7,286.0 564.7,286.0 569.6,286.0 574.6,286.0 579.6,286.0 584.6,286.0 589.6,286.0 594.5,286.0 599.5,286.0 604.5,286.0 609.5,286.0 614.4,286.0 619.4,286.0 624.4,286.0 629.4,286.0 634.4,286.0 639.3,280.4 644.3,286.0 649.3,286.0 654.3,286.0 659.2,274.9 664.2,286.0 669.2,286.0 674.2,280.4 679.2,280.4 684.1,286.0 689.1,286.0 694.1,286.0 699.1,286.0 704.0,280.4 709.0,286.0 714.0,286.0 719.0,286.0 724.0,286.0 728.9,286.0 733.9,286.0 738.9,286.0 743.9,286.0 748.8,286.0 753.8,286.0 758.8,286.0 763.8,286.0 768.8,286.0 773.7,286.0 778.7,286.0 783.7,286.0 788.7,286.0 793.6,286.0 798.6,286.0 803.6,286.0 808.6,280.4 813.6,286.0 818.5,286.0 823.5,286.0 828.5,263.7 833.5,280.4 838.4,286.0 843.4,286.0 848.4,286.0 853.4,286.0 858.4,286.0 863.3,286.0 868.3,286.0 873.3,286.0 878.3,258.1 883.2,274.9 888.2,280.4 893.2,286.0 898.2,286.0 903.2,286.0 908.1,286.0 913.1,286.0 918.1,286.0 923.1,286.0 928.0,274.9 933.0,269.3 938.0,274.9"/><polyline fill="none" stroke="#a855f7" stroke-width="2.5" stroke-linejoin="round" stroke-linecap="round" points="42.0,286.0 47.0,286.0 52.0,286.0 56.9,286.0 61.9,286.0 66.9,286.0 71.9,286.0 76.8,286.0 81.8,286.0 86.8,286.0 91.8,286.0 96.8,286.0 101.7,286.0 106.7,286.0 111.7,286.0 116.7,286.0 121.6,286.0 126.6,286.0 131.6,286.0 136.6,286.0 141.6,286.0 146.5,286.0 151.5,286.0 156.5,286.0 161.5,286.0 166.4,286.0 171.4,286.0 176.4,286.0 181.4,286.0 186.4,286.0 191.3,286.0 196.3,286.0 201.3,286.0 206.3,286.0 211.2,286.0 216.2,286.0 221.2,286.0 226.2,286.0 231.2,286.0 236.1,286.0 241.1,286.0 246.1,286.0 251.1,286.0 256.0,286.0 261.0,286.0 266.0,286.0 271.0,286.0 276.0,286.0 280.9,286.0 285.9,286.0 290.9,286.0 295.9,286.0 300.8,280.4 305.8,286.0 310.8,286.0 315.8,286.0 320.8,286.0 325.7,286.0 330.7,286.0 335.7,286.0 340.7,286.0 345.6,286.0 350.6,286.0 355.6,286.0 360.6,286.0 365.6,286.0 370.5,286.0 375.5,286.0 380.5,286.0 385.5,286.0 390.4,286.0 395.4,286.0 400.4,286.0 405.4,286.0 410.4,286.0 415.3,286.0 420.3,286.0 425.3,286.0 430.3,286.0 435.2,286.0 440.2,286.0 445.2,286.0 450.2,286.0 455.2,286.0 460.1,286.0 465.1,286.0 470.1,286.0 475.1,286.0 480.0,286.0 485.0,286.0 490.0,286.0 495.0,286.0 500.0,286.0 504.9,286.0 509.9,286.0 514.9,286.0 519.9,286.0 524.8,286.0 529.8,286.0 534.8,280.4 539.8,286.0 544.8,286.0 549.7,286.0 554.7,286.0 559.7,286.0 564.7,286.0 569.6,286.0 574.6,286.0 579.6,286.0 584.6,286.0 589.6,286.0 594.5,286.0 599.5,286.0 604.5,286.0 609.5,286.0 614.4,286.0 619.4,286.0 624.4,286.0 629.4,286.0 634.4,280.4 639.3,286.0 644.3,286.0 649.3,286.0 654.3,286.0 659.2,286.0 664.2,286.0 669.2,286.0 674.2,286.0 679.2,286.0 684.1,286.0 689.1,286.0 694.1,286.0 699.1,286.0 704.0,286.0 709.0,286.0 714.0,286.0 719.0,286.0 724.0,286.0 728.9,286.0 733.9,280.4 738.9,286.0 743.9,286.0 748.8,286.0 753.8,286.0 758.8,286.0 763.8,286.0 768.8,286.0 773.7,286.0 778.7,280.4 783.7,286.0 788.7,286.0 793.6,286.0 798.6,286.0 803.6,286.0 808.6,286.0 813.6,280.4 818.5,286.0 823.5,286.0 828.5,286.0 833.5,286.0 838.4,286.0 843.4,286.0 848.4,286.0 853.4,286.0 858.4,286.0 863.3,286.0 868.3,286.0 873.3,286.0 878.3,286.0 883.2,286.0 888.2,286.0 893.2,286.0 898.2,286.0 903.2,286.0 908.1,286.0 913.1,286.0 918.1,286.0 923.1,286.0 928.0,286.0 933.0,286.0 938.0,286.0"/><text x="42" y="308" font-size="11" fill="#9fb0d4">19/06 15:39</text><text x="938" y="308" text-anchor="end" font-size="11" fill="#9fb0d4">24/07 03:30</text></svg>