<svg xmlns="http://www.w3.org/2000/svg" viewBox="0 0 960 320" width="960" height="320" font-family="Segoe UI, system-ui, -apple-system, Roboto, Helvetica, Arial, sans-serif" role="img" aria-label="Availability history per region"><rect x="0.5" y="0.5" width="959" height="319" rx="14" fill="#0d1117" stroke="#2c3a5e"/><text x="42" y="26" font-size="14" font-weight="600" fill="#e6ecff">History · 156 points</text><circle cx="47" cy="40" r="5" fill="#22c55e"/><text x="57" y="44" font-size="12" fill="#9fb0d4">Available</text><circle cx="139.8" cy="40" r="5" fill="#f59e0b"/><text x="149.8" y="44" font-size="12" fill="#9fb0d4">Saturated</text><circle cx="232.60000000000002" cy="40" r="5" fill="#ef4444"/><text x="242.60000000000002" y="44" font-size="12" fill="#9fb0d4">Error</text><circle cx="296.6" cy="40" r="5" fill="#a855f7"/><text x="306.6" y="44" font-size="12" fill="#9fb0d4">Timeout</text><line x1="42" y1="286.0" x2="938" y2="286.0" stroke="#21304f" stroke-width="1"/><text x="35" y="289.0" text-anchor="end" font-size="11" fill="#9fb0d4">0</text><line x1="42" y1="227.5" x2="938" y2="227.5" stroke="#21304f" stroke-width="1"/><text x="35" y="230.5" text-anchor="end" font-size="11" fill="#9fb0d4">10</text><line x1="42" y1="169.0" x2="938" y2="169.0" stroke="#21304f" stroke-width="1"/><text x="35" y="172.0" text-anchor="end" font-size="11" fill="#9fb0d4">19</text><line x1="42" y1="110.5" x2="938" y2="110.5" stroke="#21304f" stroke-width="1"/><text x="35" y="113.5" text-anchor="end" font-size="11" fill="#9fb0d4">28</text><line x1="42" y1="52.0" x2="938" y2="52.0" stroke="#21304f" stroke-width="1"/><text x="35" y="55.0" text-anchor="end" font-size="11" fill="#9fb0d4">38</text><polyline fill="none" stroke="#22c55e" stroke-width="2.5" stroke-linejoin="round" stroke-linecap="round" points="42.0,64.3 47.8,224.4 53.6,82.8 59.3,88.9 65.1,82.8 70.9,76.6 76.7,76.6 82.5,76.6 88.2,76.6 94.0,76.6 99.8,76.6 105.6,76.6 111.4,76.6 117.1,76.6 122.9,76.6 128.7,70.5 134.5,70.5 140.3,82.8 146.1,82.8 151.8,82.8 157.6,88.9 163.4,88.9 169.2,88.9 175.0,88.9 180.7,88.9 186.5,88.9 192.3,88.9 198.1,88.9 203.9,88.9 209.6,82.8 215.4,82.8 221.2,82.8 227.0,82.8 232.8,76.6 238.5,76.6 244.3,76.6 250.1,76.6 255.9,76.6 261.7,82.8 267.4,82.8 273.2,82.8 279.0,82.8 284.8,76.6 290.6,76.6 296.3,76.6 302.1,76.6 307.9,76.6 313.7,76.6 319.5,76.6 325.3,82.8 331.0,82.8 336.8,82.8 342.6,82.8 348.4,76.6 354.2,76.6 359.9,76.6 365.7,76.6 371.5,76.6 377.3,76.6 383.1,76.6 388.8,76.6 394.6,82.8 400.4,76.6 406.2,76.6 412.0,76.6 417.7,76.6 423.5,76.6 429.3,82.8 435.1,76.6 440.9,76.6 446.6,76.6 452.4,76.6 458.2,76.6 464.0,76.6 469.8,76.6 475.5,76.6 481.3,76.6 487.1,70.5 492.9,70.5 498.7,70.5 504.5,70.5 510.2,76.6 516.0,70.5 521.8,76.6 527.6,76.6 533.4,76.6 539.1,76.6 544.9,76.6 550.7,76.6 556.5,82.8 562.3,88.9 568.0,88.9 573.8,88.9 579.6,88.9 585.4,88.9 591.2,88.9 596.9,88.9 602.7,95.1 608.5,88.9 614.3,88.9 620.1,88.9 625.8,88.9 631.6,88.9 637.4,88.9 643.2,82.8 649.0,82.8 654.7,82.8 660.5,82.8 666.3,82.8 672.1,82.8 677.9,82.8 683.7,82.8 689.4,88.9 695.2,88.9 701.0,88.9 706.8,88.9 712.6,88.9 718.3,88.9 724.1,88.9 729.9,88.9 735.7,95.1 741.5,88.9 747.2,88.9 753.0,88.9 758.8,101.3 764.6,88.9 770.4,88.9 776.1,88.9 781.9,88.9 787.7,82.8 793.5,82.8 799.3,82.8 805.0,82.8 810.8,88.9 816.6,82.8 822.4,88.9 828.2,88.9 833.9,88.9 839.7,88.9 845.5,95.1 851.3,88.9 857.1,88.9 862.9,88.9 868.6,88.9 874.4,88.9 880.2,88.9 886.0,88.9 891.8,88.9 897.5,95.1 903.3,82.8 909.1,82.8 914.9,82.8 920.7,82.8 926.4,82.8 932.2,82.8 938.0,82.8"/><polyline fill="none" stroke="#f59e0b" stroke-width="2.5" stroke-linejoin="round" stroke-linecap="round" points="42.0,273.7 47.8,267.5 53.6,255.2 59.3,249.1 65.1,255.2 70.9,261.4 76.7,261.4 82.5,261.4 88.2,261.4 94.0,261.4 99.8,261.4 105.6,261.4 111.4,261.4 117.1,261.4 122.9,261.4 128.7,267.5 134.5,267.5 140.3,261.4 146.1,255.2 151.8,255.2 157.6,249.1 163.4,249.1 169.2,249.1 175.0,249.1 180.7,249.1 186.5,249.1 192.3,249.1 198.1,249.1 203.9,249.1 209.6,255.2 215.4,255.2 221.2,255.2 227.0,255.2 232.8,261.4 238.5,261.4 244.3,261.4 250.1,261.4 255.9,261.4 261.7,255.2 267.4,255.2 273.2,255.2 279.0,255.2 284.8,261.4 290.6,261.4 296.3,261.4 302.1,261.4 307.9,261.4 313.7,261.4 319.5,261.4 325.3,255.2 331.0,255.2 336.8,255.2 342.6,261.4 348.4,261.4 354.2,261.4 359.9,261.4 365.7,261.4 371.5,261.4 377.3,261.4 383.1,261.4 388.8,261.4 394.6,255.2 400.4,261.4 406.2,261.4 412.0,261.4 417.7,261.4 423.5,261.4 429.3,261.4 435.1,261.4 440.9,261.4 446.6,261.4 452.4,261.4 458.2,261.4 464.0,261.4 469.8,261.4 475.5,261.4 481.3,261.4 487.1,267.5 492.9,267.5 498.7,267.5 504.5,267.5 510.2,267.5 516.0,267.5 521.8,261.4 527.6,261.4 533.4,261.4 539.1,261.4 544.9,261.4 550.7,261.4 556.5,255.2 562.3,249.1 568.0,249.1 573.8,255.2 579.6,249.1 585.4,249.1 591.2,249.1 596.9,249.1 602.7,249.1 608.5,249.1 614.3,255.2 620.1,249.1 625.8,249.1 631.6,249.1 637.4,249.1 643.2,255.2 649.0,255.2 654.7,255.2 660.5,255.2 666.3,255.2 672.1,255.2 677.9,255.2 683.7,255.2 689.4,249.1 695.2,249.1 701.0,249.1 706.8,249.1 712.6,249.1 718.3,249.1 724.1,249.1 729.9,255.2 735.7,249.1 741.5,249.1 747.2,249.1 753.0,249.1 758.8,249.1 764.6,249.1 770.4,249.1 776.1,255.2 781.9,255.2 787.7,255.2 793.5,255.2 799.3,255.2 805.0,255.2 810.8,255.2 816.6,255.2 822.4,249.1 828.2,249.1 833.9,249.1 839.7,249.1 845.5,249.1 851.3,249.1 857.1,249.1 862.9,249.1 868.6,249.1 874.4,249.1 880.2,249.1 886.0,249.1 891.8,249.1 897.5,249.1 903.3,255.2 909.1,255.2 914.9,255.2 920.7,255.2 926.4,255.2 932.2,261.4 938.0,261.4"/><polyline fill="none" stroke="#ef4444" stroke-width="2.5" stroke-linejoin="round" stroke-linecap="round" points="42.0,286.0 47.8,132.1 53.6,286.0 59.3,286.0 65.1,286.0 70.9,286.0 76.7,286.0 82.5,286.0 88.2,286.0 94.0,286.0 99.8,286.0 105.6,286.0 111.4,286.0 117.1,286.0 122.9,286.0 128.7,286.0 134.5,286.0 140.3,279.8 146.1,286.0 151.8,286.0 157.6,286.0 163.4,286.0 169.2,286.0 175.0,286.0 180.7,286.0 186.5,286.0 192.3,286.0 198.1,286.0 203.9,286.0 209.6,286.0 215.4,286.0 221.2,286.0 227.0,286.0 232.8,286.0 238.5,286.0 244.3,286.0 250.1,286.0 255.9,286.0 261.7,286.0 267.4,286.0 273.2,286.0 279.0,286.0 284.8,286.0 290.6,286.0 296.3,286.0 302.1,286.0 307.9,286.0 313.7,286.0 319.5,286.0 325.3,286.0 331.0,286.0 336.8,286.0 342.6,286.0 348.4,286.0 354.2,286.0 359.9,286.0 365.7,286.0 371.5,286.0 377.3,286.0 383.1,286.0 388.8,286.0 394.6,286.0 400.4,286.0 406.2,286.0 412.0,286.0 417.7,286.0 423.5,286.0 429.3,279.8 435.1,286.0 440.9,286.0 446.6,286.0 452.4,286.0 458.2,286.0 464.0,286.0 469.8,286.0 475.5,286.0 481.3,286.0 487.1,286.0 492.9,286.0 498.7,286.0 504.5,286.0 510.2,279.8 516.0,286.0 521.8,286.0 527.6,286.0 533.4,286.0 539.1,286.0 544.9,286.0 550.7,286.0 556.5,286.0 562.3,286.0 568.0,286.0 573.8,279.8 579.6,286.0 585.4,286.0 591.2,286.0 596.9,286.0 602.7,279.8 608.5,286.0 614.3,286.0 620.1,286.0 625.8,286.0 631.6,286.0 637.4,286.0 643.2,286.0 649.0,286.0 654.7,286.0 660.5,286.0 666.3,286.0 672.1,286.0 677.9,286.0 683.7,286.0 689.4,286.0 695.2,286.0 701.0,286.0 706.8,286.0 712.6,286.0 718.3,286.0 724.1,286.0 729.9,286.0 735.7,279.8 741.5,286.0 747.2,286.0 753.0,286.0 758.8,273.7 764.6,286.0 770.4,286.0 776.1,279.8 781.9,279.8 787.7,286.0 793.5,286.0 799.3,286.0 805.0,286.0 810.8,279.8 816.6,286.0 822.4,286.0 828.2,286.0 833.9,286.0 839.7,286.0 845.5,286.0 851.3,286.0 857.1,286.0 862.9,286.0 868.6,286.0 874.4,286.0 880.2,286.0 886.0,286.0 891.8,286.0 897.5,286.0 903.3,286.0 909.1,286.0 914.9,286.0 920.7,286.0 926.4,286.0 932.2,279.8 938.0,286.0"/><polyline fill="none" stroke="#a855f7" stroke-width="2.5" stroke-linejoin="round" stroke-linecap="round" points="42.0,286.0 47.8,286.0 53.6,286.0 59.3,286.0 65.1,286.0 70.9,286.0 76.7,286.0 82.5,286.0 88.2,286.0 94.0,286.0 99.8,286.0 105.6,286.0 111.4,286.0 117.1,286.0 122.9,286.0 128.7,286.0 134.5,286.0 140.3,286.0 146.1,286.0 151.8,286.0 157.6,286.0 163.4,286.0 169.2,286.0 175.0,286.0 180.7,286.0 186.5,286.0 192.3,286.0 198.1,286.0 203.9,286.0 209.6,286.0 215.4,286.0 221.2,286.0 227.0,286.0 232.8,286.0 238.5,286.0 244.3,286.0 250.1,286.0 255.9,286.0 261.7,286.0 267.4,286.0 273.2,286.0 279.0,286.0 284.8,286.0 290.6,286.0 296.3,286.0 302.1,286.0 307.9,286.0 313.7,286.0 319.5,286.0 325.3,286.0 331.0,286.0 336.8,286.0 342.6,279.8 348.4,286.0 354.2,286.0 359.9,286.0 365.7,286.0 371.5,286.0 377.3,286.0 383.1,286.0 388.8,286.0 394.6,286.0 400.4,286.0 406.2,286.0 412.0,286.0 417.7,286.0 423.5,286.0 429.3,286.0 435.1,286.0 440.9,286.0 446.6,286.0 452.4,286.0 458.2,286.0 464.0,286.0 469.8,286.0 475.5,286.0 481.3,286.0 487.1,286.0 492.9,286.0 498.7,286.0 504.5,286.0 510.2,286.0 516.0,286.0 521.8,286.0 527.6,286.0 533.4,286.0 539.1,286.0 544.9,286.0 550.7,286.0 556.5,286.0 562.3,286.0 568.0,286.0 573.8,286.0 579.6,286.0 585.4,286.0 591.2,286.0 596.9,286.0 602.7,286.0 608.5,286.0 614.3,279.8 620.1,286.0 625.8,286.0 631.6,286.0 637.4,286.0 643.2,286.0 649.0,286.0 654.7,286.0 660.5,286.0 666.3,286.0 672.1,286.0 677.9,286.0 683.7,286.0 689.4,286.0 695.2,286.0 701.0,286.0 706.8,286.0 712.6,286.0 718.3,286.0 724.1,286.0 729.9,279.8 735.7,286.0 741.5,286.0 747.2,286.0 753.0,286.0 758.8,286.0 764.6,286.0 770.4,286.0 776.1,286.0 781.9,286.0 787.7,286.0 793.5,286.0 799.3,286.0 805.0,286.0 810.8,286.0 816.6,286.0 822.4,286.0 828.2,286.0 833.9,286.0 839.7,286.0 845.5,279.8 851.3,286.0 857.1,286.0 862.9,286.0 868.6,286.0 874.4,286.0 880.2,286.0 886.0,286.0 891.8,286.0 897.5,279.8 903.3,286.0 909.1,286.0 914.9,286.0 920.7,286.0 926.4,286.0 932.2,286.0 938.0,279.8"/><text x="42" y="308" font-size="11" fill="#9fb0d4">19/06 15:39</text><text x="938" y="308" text-anchor="end" font-size="11" fill="#9fb0d4">23/07 02:35</text></svg>