<svg xmlns="http://www.w3.org/2000/svg" viewBox="0 0 960 320" width="960" height="320" font-family="Segoe UI, system-ui, -apple-system, Roboto, Helvetica, Arial, sans-serif" role="img" aria-label="Availability history per region"><rect x="0.5" y="0.5" width="959" height="319" rx="14" fill="#0d1117" stroke="#2c3a5e"/><text x="42" y="26" font-size="14" font-weight="600" fill="#e6ecff">History · 86 points</text><circle cx="47" cy="40" r="5" fill="#22c55e"/><text x="57" y="44" font-size="12" fill="#9fb0d4">Available</text><circle cx="139.8" cy="40" r="5" fill="#f59e0b"/><text x="149.8" y="44" font-size="12" fill="#9fb0d4">Saturated</text><circle cx="232.60000000000002" cy="40" r="5" fill="#ef4444"/><text x="242.60000000000002" y="44" font-size="12" fill="#9fb0d4">Error</text><circle cx="296.6" cy="40" r="5" fill="#a855f7"/><text x="306.6" y="44" font-size="12" fill="#9fb0d4">Timeout</text><line x1="42" y1="286.0" x2="938" y2="286.0" stroke="#21304f" stroke-width="1"/><text x="35" y="289.0" text-anchor="end" font-size="11" fill="#9fb0d4">0</text><line x1="42" y1="227.5" x2="938" y2="227.5" stroke="#21304f" stroke-width="1"/><text x="35" y="230.5" text-anchor="end" font-size="11" fill="#9fb0d4">10</text><line x1="42" y1="169.0" x2="938" y2="169.0" stroke="#21304f" stroke-width="1"/><text x="35" y="172.0" text-anchor="end" font-size="11" fill="#9fb0d4">20</text><line x1="42" y1="110.5" x2="938" y2="110.5" stroke="#21304f" stroke-width="1"/><text x="35" y="113.5" text-anchor="end" font-size="11" fill="#9fb0d4">29</text><line x1="42" y1="52.0" x2="938" y2="52.0" stroke="#21304f" stroke-width="1"/><text x="35" y="55.0" text-anchor="end" font-size="11" fill="#9fb0d4">39</text><polyline fill="none" stroke="#22c55e" stroke-width="2.5" stroke-linejoin="round" stroke-linecap="round" points="42.0,70.0 52.5,70.0 63.1,88.0 73.6,88.0 84.2,76.0 94.7,76.0 105.2,76.0 115.8,70.0 126.3,76.0 136.9,70.0 147.4,64.0 158.0,58.0 168.5,58.0 179.0,58.0 189.6,58.0 200.1,58.0 210.7,58.0 221.2,58.0 231.7,58.0 242.3,58.0 252.8,58.0 263.4,58.0 273.9,58.0 284.4,58.0 295.0,58.0 305.5,58.0 316.1,58.0 326.6,58.0 337.2,58.0 347.7,58.0 358.2,58.0 368.8,70.0 379.3,76.0 389.9,94.0 400.4,64.0 410.9,64.0 421.5,58.0 432.0,58.0 442.6,58.0 453.1,70.0 463.6,76.0 474.2,76.0 484.7,82.0 495.3,82.0 505.8,82.0 516.4,82.0 526.9,76.0 537.4,64.0 548.0,70.0 558.5,70.0 569.1,82.0 579.6,76.0 590.1,76.0 600.7,82.0 611.2,76.0 621.8,76.0 632.3,76.0 642.8,64.0 653.4,64.0 663.9,76.0 674.5,76.0 685.0,76.0 695.6,88.0 706.1,70.0 716.6,64.0 727.2,58.0 737.7,58.0 748.3,70.0 758.8,70.0 769.3,70.0 779.9,76.0 790.4,70.0 801.0,70.0 811.5,70.0 822.0,70.0 832.6,76.0 843.1,82.0 853.7,76.0 864.2,70.0 874.8,70.0 885.3,70.0 895.8,70.0 906.4,76.0 916.9,70.0 927.5,70.0 938.0,70.0"/><polyline fill="none" stroke="#f59e0b" stroke-width="2.5" stroke-linejoin="round" stroke-linecap="round" points="42.0,274.0 52.5,274.0 63.1,274.0 73.6,280.0 84.2,268.0 94.7,268.0 105.2,268.0 115.8,274.0 126.3,274.0 136.9,274.0 147.4,280.0 158.0,286.0 168.5,286.0 179.0,286.0 189.6,286.0 200.1,286.0 210.7,286.0 221.2,286.0 231.7,286.0 242.3,286.0 252.8,286.0 263.4,286.0 273.9,286.0 284.4,286.0 295.0,286.0 305.5,286.0 316.1,286.0 326.6,286.0 337.2,286.0 347.7,286.0 358.2,286.0 368.8,274.0 379.3,280.0 389.9,280.0 400.4,280.0 410.9,280.0 421.5,286.0 432.0,286.0 442.6,286.0 453.1,274.0 463.6,268.0 474.2,268.0 484.7,262.0 495.3,262.0 505.8,262.0 516.4,262.0 526.9,268.0 537.4,280.0 548.0,280.0 558.5,274.0 569.1,262.0 579.6,268.0 590.1,268.0 600.7,262.0 611.2,268.0 621.8,268.0 632.3,268.0 642.8,280.0 653.4,280.0 663.9,268.0 674.5,268.0 685.0,268.0 695.6,262.0 706.1,274.0 716.6,280.0 727.2,286.0 737.7,286.0 748.3,274.0 758.8,274.0 769.3,274.0 779.9,274.0 790.4,274.0 801.0,274.0 811.5,274.0 822.0,274.0 832.6,280.0 843.1,274.0 853.7,280.0 864.2,286.0 874.8,286.0 885.3,286.0 895.8,286.0 906.4,280.0 916.9,286.0 927.5,286.0 938.0,286.0"/><polyline fill="none" stroke="#ef4444" stroke-width="2.5" stroke-linejoin="round" stroke-linecap="round" points="42.0,280.0 52.5,280.0 63.1,268.0 73.6,262.0 84.2,286.0 94.7,286.0 105.2,286.0 115.8,286.0 126.3,280.0 136.9,286.0 147.4,286.0 158.0,286.0 168.5,286.0 179.0,286.0 189.6,286.0 200.1,286.0 210.7,286.0 221.2,286.0 231.7,286.0 242.3,286.0 252.8,286.0 263.4,286.0 273.9,286.0 284.4,286.0 295.0,286.0 305.5,286.0 316.1,286.0 326.6,286.0 337.2,286.0 347.7,286.0 358.2,286.0 368.8,286.0 379.3,274.0 389.9,256.0 400.4,286.0 410.9,286.0 421.5,286.0 432.0,286.0 442.6,286.0 453.1,286.0 463.6,286.0 474.2,286.0 484.7,286.0 495.3,286.0 505.8,286.0 516.4,286.0 526.9,286.0 537.4,286.0 548.0,280.0 558.5,286.0 569.1,286.0 579.6,286.0 590.1,286.0 600.7,286.0 611.2,286.0 621.8,286.0 632.3,286.0 642.8,286.0 653.4,286.0 663.9,286.0 674.5,286.0 685.0,286.0 695.6,280.0 706.1,286.0 716.6,286.0 727.2,286.0 737.7,286.0 748.3,286.0 758.8,286.0 769.3,286.0 779.9,286.0 790.4,286.0 801.0,286.0 811.5,286.0 822.0,286.0 832.6,274.0 843.1,274.0 853.7,274.0 864.2,274.0 874.8,274.0 885.3,274.0 895.8,274.0 906.4,274.0 916.9,274.0 927.5,274.0 938.0,274.0"/><polyline fill="none" stroke="#a855f7" stroke-width="2.5" stroke-linejoin="round" stroke-linecap="round" points="42.0,286.0 52.5,286.0 63.1,286.0 73.6,286.0 84.2,286.0 94.7,286.0 105.2,286.0 115.8,286.0 126.3,286.0 136.9,286.0 147.4,286.0 158.0,286.0 168.5,286.0 179.0,286.0 189.6,286.0 200.1,286.0 210.7,286.0 221.2,286.0 231.7,286.0 242.3,286.0 252.8,286.0 263.4,286.0 273.9,286.0 284.4,286.0 295.0,286.0 305.5,286.0 316.1,286.0 326.6,286.0 337.2,286.0 347.7,286.0 358.2,286.0 368.8,286.0 379.3,286.0 389.9,286.0 400.4,286.0 410.9,286.0 421.5,286.0 432.0,286.0 442.6,286.0 453.1,286.0 463.6,286.0 474.2,286.0 484.7,286.0 495.3,286.0 505.8,286.0 516.4,286.0 526.9,286.0 537.4,286.0 548.0,286.0 558.5,286.0 569.1,286.0 579.6,286.0 590.1,286.0 600.7,286.0 611.2,286.0 621.8,286.0 632.3,286.0 642.8,286.0 653.4,286.0 663.9,286.0 674.5,286.0 685.0,286.0 695.6,286.0 706.1,286.0 716.6,286.0 727.2,286.0 737.7,286.0 748.3,286.0 758.8,286.0 769.3,286.0 779.9,280.0 790.4,286.0 801.0,286.0 811.5,286.0 822.0,286.0 832.6,286.0 843.1,286.0 853.7,286.0 864.2,286.0 874.8,286.0 885.3,286.0 895.8,286.0 906.4,286.0 916.9,286.0 927.5,286.0 938.0,286.0"/><text x="42" y="308" font-size="11" fill="#9fb0d4">19/06 12:43</text><text x="938" y="308" text-anchor="end" font-size="11" fill="#9fb0d4">27/06 03:30</text></svg>