<svg xmlns="http://www.w3.org/2000/svg" viewBox="0 0 960 320" width="960" height="320" font-family="Segoe UI, system-ui, -apple-system, Roboto, Helvetica, Arial, sans-serif" role="img" aria-label="Availability history per region"><rect x="0.5" y="0.5" width="959" height="319" rx="14" fill="#0d1117" stroke="#2c3a5e"/><text x="42" y="26" font-size="14" font-weight="600" fill="#e6ecff">History · 111 points</text><circle cx="47" cy="40" r="5" fill="#22c55e"/><text x="57" y="44" font-size="12" fill="#9fb0d4">Available</text><circle cx="139.8" cy="40" r="5" fill="#f59e0b"/><text x="149.8" y="44" font-size="12" fill="#9fb0d4">Saturated</text><circle cx="232.60000000000002" cy="40" r="5" fill="#ef4444"/><text x="242.60000000000002" y="44" font-size="12" fill="#9fb0d4">Error</text><circle cx="296.6" cy="40" r="5" fill="#a855f7"/><text x="306.6" y="44" font-size="12" fill="#9fb0d4">Timeout</text><line x1="42" y1="286.0" x2="938" y2="286.0" stroke="#21304f" stroke-width="1"/><text x="35" y="289.0" text-anchor="end" font-size="11" fill="#9fb0d4">0</text><line x1="42" y1="227.5" x2="938" y2="227.5" stroke="#21304f" stroke-width="1"/><text x="35" y="230.5" text-anchor="end" font-size="11" fill="#9fb0d4">10</text><line x1="42" y1="169.0" x2="938" y2="169.0" stroke="#21304f" stroke-width="1"/><text x="35" y="172.0" text-anchor="end" font-size="11" fill="#9fb0d4">20</text><line x1="42" y1="110.5" x2="938" y2="110.5" stroke="#21304f" stroke-width="1"/><text x="35" y="113.5" text-anchor="end" font-size="11" fill="#9fb0d4">29</text><line x1="42" y1="52.0" x2="938" y2="52.0" stroke="#21304f" stroke-width="1"/><text x="35" y="55.0" text-anchor="end" font-size="11" fill="#9fb0d4">39</text><polyline fill="none" stroke="#22c55e" stroke-width="2.5" stroke-linejoin="round" stroke-linecap="round" points="42.0,70.0 50.1,70.0 58.3,88.0 66.4,88.0 74.6,76.0 82.7,76.0 90.9,76.0 99.0,70.0 107.2,76.0 115.3,70.0 123.5,64.0 131.6,58.0 139.7,58.0 147.9,58.0 156.0,58.0 164.2,58.0 172.3,58.0 180.5,58.0 188.6,58.0 196.8,58.0 204.9,58.0 213.1,58.0 221.2,58.0 229.3,58.0 237.5,58.0 245.6,58.0 253.8,58.0 261.9,58.0 270.1,58.0 278.2,58.0 286.4,58.0 294.5,70.0 302.7,76.0 310.8,94.0 318.9,64.0 327.1,64.0 335.2,58.0 343.4,58.0 351.5,58.0 359.7,70.0 367.8,76.0 376.0,76.0 384.1,82.0 392.3,82.0 400.4,82.0 408.5,82.0 416.7,76.0 424.8,64.0 433.0,70.0 441.1,70.0 449.3,82.0 457.4,76.0 465.6,76.0 473.7,82.0 481.9,76.0 490.0,76.0 498.1,76.0 506.3,64.0 514.4,64.0 522.6,76.0 530.7,76.0 538.9,76.0 547.0,88.0 555.2,70.0 563.3,64.0 571.5,58.0 579.6,58.0 587.7,70.0 595.9,70.0 604.0,70.0 612.2,76.0 620.3,70.0 628.5,70.0 636.6,70.0 644.8,70.0 652.9,76.0 661.1,82.0 669.2,76.0 677.3,70.0 685.5,70.0 693.6,70.0 701.8,70.0 709.9,76.0 718.1,70.0 726.2,70.0 734.4,70.0 742.5,70.0 750.7,70.0 758.8,70.0 766.9,70.0 775.1,70.0 783.2,70.0 791.4,70.0 799.5,70.0 807.7,70.0 815.8,70.0 824.0,70.0 832.1,70.0 840.3,70.0 848.4,70.0 856.5,70.0 864.7,70.0 872.8,70.0 881.0,70.0 889.1,70.0 897.3,70.0 905.4,70.0 913.6,70.0 921.7,70.0 929.9,70.0 938.0,70.0"/><polyline fill="none" stroke="#f59e0b" stroke-width="2.5" stroke-linejoin="round" stroke-linecap="round" points="42.0,274.0 50.1,274.0 58.3,274.0 66.4,280.0 74.6,268.0 82.7,268.0 90.9,268.0 99.0,274.0 107.2,274.0 115.3,274.0 123.5,280.0 131.6,286.0 139.7,286.0 147.9,286.0 156.0,286.0 164.2,286.0 172.3,286.0 180.5,286.0 188.6,286.0 196.8,286.0 204.9,286.0 213.1,286.0 221.2,286.0 229.3,286.0 237.5,286.0 245.6,286.0 253.8,286.0 261.9,286.0 270.1,286.0 278.2,286.0 286.4,286.0 294.5,274.0 302.7,280.0 310.8,280.0 318.9,280.0 327.1,280.0 335.2,286.0 343.4,286.0 351.5,286.0 359.7,274.0 367.8,268.0 376.0,268.0 384.1,262.0 392.3,262.0 400.4,262.0 408.5,262.0 416.7,268.0 424.8,280.0 433.0,280.0 441.1,274.0 449.3,262.0 457.4,268.0 465.6,268.0 473.7,262.0 481.9,268.0 490.0,268.0 498.1,268.0 506.3,280.0 514.4,280.0 522.6,268.0 530.7,268.0 538.9,268.0 547.0,262.0 555.2,274.0 563.3,280.0 571.5,286.0 579.6,286.0 587.7,274.0 595.9,274.0 604.0,274.0 612.2,274.0 620.3,274.0 628.5,274.0 636.6,274.0 644.8,274.0 652.9,280.0 661.1,274.0 669.2,280.0 677.3,286.0 685.5,286.0 693.6,286.0 701.8,286.0 709.9,280.0 718.1,286.0 726.2,286.0 734.4,286.0 742.5,286.0 750.7,286.0 758.8,286.0 766.9,286.0 775.1,286.0 783.2,286.0 791.4,286.0 799.5,286.0 807.7,286.0 815.8,286.0 824.0,286.0 832.1,286.0 840.3,286.0 848.4,286.0 856.5,286.0 864.7,286.0 872.8,286.0 881.0,286.0 889.1,286.0 897.3,286.0 905.4,286.0 913.6,286.0 921.7,286.0 929.9,286.0 938.0,286.0"/><polyline fill="none" stroke="#ef4444" stroke-width="2.5" stroke-linejoin="round" stroke-linecap="round" points="42.0,280.0 50.1,280.0 58.3,268.0 66.4,262.0 74.6,286.0 82.7,286.0 90.9,286.0 99.0,286.0 107.2,280.0 115.3,286.0 123.5,286.0 131.6,286.0 139.7,286.0 147.9,286.0 156.0,286.0 164.2,286.0 172.3,286.0 180.5,286.0 188.6,286.0 196.8,286.0 204.9,286.0 213.1,286.0 221.2,286.0 229.3,286.0 237.5,286.0 245.6,286.0 253.8,286.0 261.9,286.0 270.1,286.0 278.2,286.0 286.4,286.0 294.5,286.0 302.7,274.0 310.8,256.0 318.9,286.0 327.1,286.0 335.2,286.0 343.4,286.0 351.5,286.0 359.7,286.0 367.8,286.0 376.0,286.0 384.1,286.0 392.3,286.0 400.4,286.0 408.5,286.0 416.7,286.0 424.8,286.0 433.0,280.0 441.1,286.0 449.3,286.0 457.4,286.0 465.6,286.0 473.7,286.0 481.9,286.0 490.0,286.0 498.1,286.0 506.3,286.0 514.4,286.0 522.6,286.0 530.7,286.0 538.9,286.0 547.0,280.0 555.2,286.0 563.3,286.0 571.5,286.0 579.6,286.0 587.7,286.0 595.9,286.0 604.0,286.0 612.2,286.0 620.3,286.0 628.5,286.0 636.6,286.0 644.8,286.0 652.9,274.0 661.1,274.0 669.2,274.0 677.3,274.0 685.5,274.0 693.6,274.0 701.8,274.0 709.9,274.0 718.1,274.0 726.2,274.0 734.4,274.0 742.5,274.0 750.7,274.0 758.8,274.0 766.9,274.0 775.1,274.0 783.2,274.0 791.4,274.0 799.5,274.0 807.7,274.0 815.8,274.0 824.0,274.0 832.1,274.0 840.3,274.0 848.4,274.0 856.5,274.0 864.7,274.0 872.8,274.0 881.0,274.0 889.1,274.0 897.3,274.0 905.4,274.0 913.6,274.0 921.7,274.0 929.9,274.0 938.0,274.0"/><polyline fill="none" stroke="#a855f7" stroke-width="2.5" stroke-linejoin="round" stroke-linecap="round" points="42.0,286.0 50.1,286.0 58.3,286.0 66.4,286.0 74.6,286.0 82.7,286.0 90.9,286.0 99.0,286.0 107.2,286.0 115.3,286.0 123.5,286.0 131.6,286.0 139.7,286.0 147.9,286.0 156.0,286.0 164.2,286.0 172.3,286.0 180.5,286.0 188.6,286.0 196.8,286.0 204.9,286.0 213.1,286.0 221.2,286.0 229.3,286.0 237.5,286.0 245.6,286.0 253.8,286.0 261.9,286.0 270.1,286.0 278.2,286.0 286.4,286.0 294.5,286.0 302.7,286.0 310.8,286.0 318.9,286.0 327.1,286.0 335.2,286.0 343.4,286.0 351.5,286.0 359.7,286.0 367.8,286.0 376.0,286.0 384.1,286.0 392.3,286.0 400.4,286.0 408.5,286.0 416.7,286.0 424.8,286.0 433.0,286.0 441.1,286.0 449.3,286.0 457.4,286.0 465.6,286.0 473.7,286.0 481.9,286.0 490.0,286.0 498.1,286.0 506.3,286.0 514.4,286.0 522.6,286.0 530.7,286.0 538.9,286.0 547.0,286.0 555.2,286.0 563.3,286.0 571.5,286.0 579.6,286.0 587.7,286.0 595.9,286.0 604.0,286.0 612.2,280.0 620.3,286.0 628.5,286.0 636.6,286.0 644.8,286.0 652.9,286.0 661.1,286.0 669.2,286.0 677.3,286.0 685.5,286.0 693.6,286.0 701.8,286.0 709.9,286.0 718.1,286.0 726.2,286.0 734.4,286.0 742.5,286.0 750.7,286.0 758.8,286.0 766.9,286.0 775.1,286.0 783.2,286.0 791.4,286.0 799.5,286.0 807.7,286.0 815.8,286.0 824.0,286.0 832.1,286.0 840.3,286.0 848.4,286.0 856.5,286.0 864.7,286.0 872.8,286.0 881.0,286.0 889.1,286.0 897.3,286.0 905.4,286.0 913.6,286.0 921.7,286.0 929.9,286.0 938.0,286.0"/><text x="42" y="308" font-size="11" fill="#9fb0d4">19/06 12:43</text><text x="938" y="308" text-anchor="end" font-size="11" fill="#9fb0d4">27/06 21:30</text></svg>