<svg xmlns="http://www.w3.org/2000/svg" viewBox="0 0 960 320" width="960" height="320" font-family="Segoe UI, system-ui, -apple-system, Roboto, Helvetica, Arial, sans-serif" role="img" aria-label="Availability history per region"><rect x="0.5" y="0.5" width="959" height="319" rx="14" fill="#0d1117" stroke="#2c3a5e"/><text x="42" y="26" font-size="14" font-weight="600" fill="#e6ecff">History · 336 points</text><circle cx="47" cy="40" r="5" fill="#22c55e"/><text x="57" y="44" font-size="12" fill="#9fb0d4">Available</text><circle cx="139.8" cy="40" r="5" fill="#f59e0b"/><text x="149.8" y="44" font-size="12" fill="#9fb0d4">Saturated</text><circle cx="232.60000000000002" cy="40" r="5" fill="#ef4444"/><text x="242.60000000000002" y="44" font-size="12" fill="#9fb0d4">Error</text><circle cx="296.6" cy="40" r="5" fill="#a855f7"/><text x="306.6" y="44" font-size="12" fill="#9fb0d4">Timeout</text><line x1="42" y1="286.0" x2="938" y2="286.0" stroke="#21304f" stroke-width="1"/><text x="35" y="289.0" text-anchor="end" font-size="11" fill="#9fb0d4">0</text><line x1="42" y1="227.5" x2="938" y2="227.5" stroke="#21304f" stroke-width="1"/><text x="35" y="230.5" text-anchor="end" font-size="11" fill="#9fb0d4">10</text><line x1="42" y1="169.0" x2="938" y2="169.0" stroke="#21304f" stroke-width="1"/><text x="35" y="172.0" text-anchor="end" font-size="11" fill="#9fb0d4">19</text><line x1="42" y1="110.5" x2="938" y2="110.5" stroke="#21304f" stroke-width="1"/><text x="35" y="113.5" text-anchor="end" font-size="11" fill="#9fb0d4">28</text><line x1="42" y1="52.0" x2="938" y2="52.0" stroke="#21304f" stroke-width="1"/><text x="35" y="55.0" text-anchor="end" font-size="11" fill="#9fb0d4">38</text><polyline fill="none" stroke="#22c55e" stroke-width="2.5" stroke-linejoin="round" stroke-linecap="round" points="42.0,76.6 44.7,64.3 47.3,64.3 50.0,64.3 52.7,70.5 55.4,70.5 58.0,70.5 60.7,76.6 63.4,64.3 66.1,70.5 68.7,58.2 71.4,64.3 74.1,52.0 76.8,52.0 79.4,52.0 82.1,52.0 84.8,52.0 87.5,58.2 90.1,52.0 92.8,58.2 95.5,52.0 98.2,52.0 100.8,52.0 103.5,52.0 106.2,58.2 108.9,58.2 111.5,58.2 114.2,70.5 116.9,64.3 119.6,76.6 122.2,64.3 124.9,70.5 127.6,52.0 130.3,58.2 132.9,52.0 135.6,58.2 138.3,52.0 141.0,52.0 143.6,52.0 146.3,58.2 149.0,64.3 151.7,58.2 154.3,58.2 157.0,58.2 159.7,64.3 162.4,64.3 165.0,58.2 167.7,64.3 170.4,64.3 173.1,64.3 175.7,52.0 178.4,52.0 181.1,52.0 183.8,52.0 186.4,52.0 189.1,58.2 191.8,52.0 194.5,52.0 197.1,52.0 199.8,52.0 202.5,52.0 205.2,52.0 207.8,52.0 210.5,52.0 213.2,58.2 215.9,52.0 218.5,52.0 221.2,52.0 223.9,52.0 226.5,52.0 229.2,52.0 231.9,52.0 234.6,58.2 237.2,52.0 239.9,52.0 242.6,52.0 245.3,52.0 247.9,52.0 250.6,52.0 253.3,52.0 256.0,52.0 258.6,52.0 261.3,52.0 264.0,52.0 266.7,52.0 269.3,52.0 272.0,52.0 274.7,52.0 277.4,52.0 280.0,52.0 282.7,52.0 285.4,52.0 288.1,58.2 290.7,58.2 293.4,52.0 296.1,52.0 298.8,52.0 301.4,58.2 304.1,58.2 306.8,70.5 309.5,58.2 312.1,58.2 314.8,64.3 317.5,52.0 320.2,52.0 322.8,52.0 325.5,52.0 328.2,52.0 330.9,52.0 333.5,64.3 336.2,58.2 338.9,58.2 341.6,58.2 344.2,58.2 346.9,64.3 349.6,64.3 352.3,70.5 354.9,70.5 357.6,76.6 360.3,82.8 363.0,76.6 365.6,76.6 368.3,82.8 371.0,76.6 373.7,70.5 376.3,70.5 379.0,64.3 381.7,58.2 384.4,58.2 387.0,70.5 389.7,70.5 392.4,64.3 395.1,70.5 397.7,64.3 400.4,64.3 403.1,64.3 405.7,76.6 408.4,64.3 411.1,70.5 413.8,64.3 416.4,70.5 419.1,64.3 421.8,70.5 424.5,64.3 427.1,64.3 429.8,76.6 432.5,70.5 435.2,70.5 437.8,70.5 440.5,70.5 443.2,70.5 445.9,64.3 448.5,70.5 451.2,64.3 453.9,64.3 456.6,64.3 459.2,70.5 461.9,70.5 464.6,70.5 467.3,64.3 469.9,64.3 472.6,64.3 475.3,64.3 478.0,70.5 480.6,70.5 483.3,70.5 486.0,76.6 488.7,70.5 491.3,76.6 494.0,76.6 496.7,76.6 499.4,82.8 502.0,76.6 504.7,76.6 507.4,76.6 510.1,70.5 512.7,70.5 515.4,70.5 518.1,70.5 520.8,70.5 523.4,64.3 526.1,64.3 528.8,64.3 531.5,70.5 534.1,76.6 536.8,64.3 539.5,64.3 542.2,64.3 544.8,70.5 547.5,70.5 550.2,70.5 552.9,76.6 555.5,76.6 558.2,76.6 560.9,82.8 563.6,88.9 566.2,82.8 568.9,82.8 571.6,76.6 574.3,70.5 576.9,76.6 579.6,82.8 582.3,76.6 584.9,70.5 587.6,70.5 590.3,64.3 593.0,64.3 595.6,64.3 598.3,64.3 601.0,64.3 603.7,64.3 606.3,64.3 609.0,64.3 611.7,64.3 614.4,64.3 617.0,64.3 619.7,64.3 622.4,64.3 625.1,58.2 627.7,70.5 630.4,64.3 633.1,58.2 635.8,64.3 638.4,64.3 641.1,64.3 643.8,64.3 646.5,64.3 649.1,58.2 651.8,58.2 654.5,58.2 657.2,58.2 659.8,58.2 662.5,64.3 665.2,58.2 667.9,58.2 670.5,58.2 673.2,58.2 675.9,58.2 678.6,58.2 681.2,64.3 683.9,64.3 686.6,58.2 689.3,58.2 691.9,58.2 694.6,64.3 697.3,58.2 700.0,58.2 702.6,58.2 705.3,58.2 708.0,58.2 710.7,58.2 713.3,58.2 716.0,58.2 718.7,58.2 721.4,58.2 724.0,58.2 726.7,58.2 729.4,58.2 732.1,64.3 734.7,70.5 737.4,70.5 740.1,70.5 742.8,76.6 745.4,76.6 748.1,76.6 750.8,82.8 753.5,82.8 756.1,76.6 758.8,76.6 761.5,82.8 764.1,82.8 766.8,76.6 769.5,70.5 772.2,76.6 774.8,70.5 777.5,76.6 780.2,70.5 782.9,70.5 785.5,70.5 788.2,70.5 790.9,76.6 793.6,76.6 796.2,76.6 798.9,82.8 801.6,82.8 804.3,82.8 806.9,82.8 809.6,82.8 812.3,82.8 815.0,76.6 817.6,82.8 820.3,82.8 823.0,82.8 825.7,88.9 828.3,82.8 831.0,76.6 833.7,76.6 836.4,76.6 839.0,76.6 841.7,76.6 844.4,82.8 847.1,76.6 849.7,76.6 852.4,76.6 855.1,76.6 857.8,76.6 860.4,76.6 863.1,82.8 865.8,82.8 868.5,82.8 871.1,82.8 873.8,82.8 876.5,82.8 879.2,82.8 881.8,82.8 884.5,82.8 887.2,88.9 889.9,82.8 892.5,82.8 895.2,76.6 897.9,76.6 900.6,76.6 903.2,70.5 905.9,70.5 908.6,70.5 911.3,70.5 913.9,76.6 916.6,70.5 919.3,76.6 922.0,70.5 924.6,70.5 927.3,70.5 930.0,82.8 932.7,76.6 935.3,82.8 938.0,82.8"/><polyline fill="none" stroke="#f59e0b" stroke-width="2.5" stroke-linejoin="round" stroke-linecap="round" points="42.0,273.7 44.7,279.8 47.3,273.7 50.0,273.7 52.7,267.5 55.4,267.5 58.0,267.5 60.7,267.5 63.4,279.8 66.1,273.7 68.7,279.8 71.4,279.8 74.1,286.0 76.8,286.0 79.4,286.0 82.1,286.0 84.8,286.0 87.5,286.0 90.1,286.0 92.8,286.0 95.5,286.0 98.2,286.0 100.8,286.0 103.5,286.0 106.2,279.8 108.9,279.8 111.5,279.8 114.2,267.5 116.9,279.8 119.6,267.5 122.2,273.7 124.9,273.7 127.6,286.0 130.3,279.8 132.9,286.0 135.6,279.8 138.3,286.0 141.0,286.0 143.6,286.0 146.3,279.8 149.0,273.7 151.7,279.8 154.3,279.8 157.0,279.8 159.7,273.7 162.4,273.7 165.0,279.8 167.7,279.8 170.4,279.8 173.1,279.8 175.7,286.0 178.4,286.0 181.1,286.0 183.8,286.0 186.4,286.0 189.1,286.0 191.8,286.0 194.5,286.0 197.1,286.0 199.8,286.0 202.5,286.0 205.2,286.0 207.8,286.0 210.5,286.0 213.2,286.0 215.9,286.0 218.5,286.0 221.2,286.0 223.9,286.0 226.5,286.0 229.2,286.0 231.9,286.0 234.6,286.0 237.2,286.0 239.9,286.0 242.6,286.0 245.3,286.0 247.9,286.0 250.6,286.0 253.3,286.0 256.0,286.0 258.6,286.0 261.3,286.0 264.0,286.0 266.7,286.0 269.3,286.0 272.0,286.0 274.7,286.0 277.4,286.0 280.0,286.0 282.7,286.0 285.4,286.0 288.1,286.0 290.7,286.0 293.4,286.0 296.1,286.0 298.8,286.0 301.4,279.8 304.1,279.8 306.8,279.8 309.5,279.8 312.1,279.8 314.8,273.7 317.5,286.0 320.2,286.0 322.8,286.0 325.5,286.0 328.2,286.0 330.9,286.0 333.5,286.0 336.2,279.8 338.9,279.8 341.6,279.8 344.2,279.8 346.9,273.7 349.6,273.7 352.3,267.5 354.9,267.5 357.6,261.4 360.3,261.4 363.0,261.4 365.6,261.4 368.3,261.4 371.0,267.5 373.7,267.5 376.3,267.5 379.0,273.7 381.7,279.8 384.4,279.8 387.0,267.5 389.7,267.5 392.4,273.7 395.1,267.5 397.7,273.7 400.4,273.7 403.1,273.7 405.7,273.7 408.4,273.7 411.1,267.5 413.8,273.7 416.4,267.5 419.1,273.7 421.8,267.5 424.5,273.7 427.1,273.7 429.8,261.4 432.5,267.5 435.2,267.5 437.8,267.5 440.5,267.5 443.2,267.5 445.9,273.7 448.5,267.5 451.2,273.7 453.9,273.7 456.6,273.7 459.2,267.5 461.9,267.5 464.6,267.5 467.3,273.7 469.9,273.7 472.6,273.7 475.3,273.7 478.0,267.5 480.6,267.5 483.3,267.5 486.0,267.5 488.7,267.5 491.3,261.4 494.0,261.4 496.7,261.4 499.4,261.4 502.0,261.4 504.7,261.4 507.4,261.4 510.1,267.5 512.7,267.5 515.4,267.5 518.1,267.5 520.8,267.5 523.4,273.7 526.1,273.7 528.8,273.7 531.5,267.5 534.1,267.5 536.8,273.7 539.5,273.7 542.2,273.7 544.8,267.5 547.5,267.5 550.2,267.5 552.9,261.4 555.5,261.4 558.2,261.4 560.9,255.2 563.6,255.2 566.2,255.2 568.9,261.4 571.6,261.4 574.3,267.5 576.9,261.4 579.6,261.4 582.3,261.4 584.9,267.5 587.6,267.5 590.3,273.7 593.0,273.7 595.6,273.7 598.3,273.7 601.0,273.7 603.7,273.7 606.3,273.7 609.0,273.7 611.7,273.7 614.4,273.7 617.0,273.7 619.7,273.7 622.4,273.7 625.1,279.8 627.7,273.7 630.4,273.7 633.1,279.8 635.8,273.7 638.4,273.7 641.1,273.7 643.8,273.7 646.5,273.7 649.1,279.8 651.8,279.8 654.5,279.8 657.2,279.8 659.8,279.8 662.5,273.7 665.2,279.8 667.9,279.8 670.5,279.8 673.2,279.8 675.9,279.8 678.6,279.8 681.2,273.7 683.9,273.7 686.6,279.8 689.3,279.8 691.9,279.8 694.6,279.8 697.3,279.8 700.0,279.8 702.6,279.8 705.3,279.8 708.0,279.8 710.7,279.8 713.3,279.8 716.0,279.8 718.7,279.8 721.4,279.8 724.0,279.8 726.7,279.8 729.4,279.8 732.1,273.7 734.7,273.7 737.4,267.5 740.1,267.5 742.8,261.4 745.4,261.4 748.1,261.4 750.8,255.2 753.5,255.2 756.1,261.4 758.8,261.4 761.5,255.2 764.1,255.2 766.8,267.5 769.5,267.5 772.2,261.4 774.8,267.5 777.5,261.4 780.2,267.5 782.9,267.5 785.5,267.5 788.2,267.5 790.9,267.5 793.6,267.5 796.2,261.4 798.9,255.2 801.6,255.2 804.3,255.2 806.9,255.2 809.6,255.2 812.3,255.2 815.0,261.4 817.6,255.2 820.3,255.2 823.0,255.2 825.7,255.2 828.3,255.2 831.0,261.4 833.7,261.4 836.4,261.4 839.0,261.4 841.7,261.4 844.4,261.4 847.1,261.4 849.7,261.4 852.4,261.4 855.1,261.4 857.8,261.4 860.4,261.4 863.1,255.2 865.8,255.2 868.5,255.2 871.1,255.2 873.8,255.2 876.5,255.2 879.2,255.2 881.8,255.2 884.5,255.2 887.2,255.2 889.9,255.2 892.5,255.2 895.2,261.4 897.9,261.4 900.6,261.4 903.2,267.5 905.9,267.5 908.6,267.5 911.3,267.5 913.9,261.4 916.6,267.5 919.3,267.5 922.0,267.5 924.6,267.5 927.3,267.5 930.0,261.4 932.7,261.4 935.3,255.2 938.0,255.2"/><polyline fill="none" stroke="#ef4444" stroke-width="2.5" stroke-linejoin="round" stroke-linecap="round" points="42.0,273.7 44.7,279.8 47.3,286.0 50.0,286.0 52.7,286.0 55.4,286.0 58.0,286.0 60.7,279.8 63.4,279.8 66.1,286.0 68.7,286.0 71.4,279.8 74.1,286.0 76.8,286.0 79.4,286.0 82.1,286.0 84.8,286.0 87.5,279.8 90.1,286.0 92.8,286.0 95.5,286.0 98.2,286.0 100.8,286.0 103.5,286.0 106.2,286.0 108.9,286.0 111.5,286.0 114.2,286.0 116.9,279.8 119.6,279.8 122.2,286.0 124.9,279.8 127.6,286.0 130.3,286.0 132.9,286.0 135.6,286.0 138.3,286.0 141.0,286.0 143.6,286.0 146.3,286.0 149.0,286.0 151.7,286.0 154.3,286.0 157.0,286.0 159.7,286.0 162.4,286.0 165.0,286.0 167.7,279.8 170.4,286.0 173.1,279.8 175.7,286.0 178.4,286.0 181.1,286.0 183.8,286.0 186.4,286.0 189.1,286.0 191.8,286.0 194.5,286.0 197.1,286.0 199.8,286.0 202.5,286.0 205.2,286.0 207.8,286.0 210.5,286.0 213.2,279.8 215.9,286.0 218.5,286.0 221.2,286.0 223.9,286.0 226.5,286.0 229.2,286.0 231.9,286.0 234.6,286.0 237.2,286.0 239.9,286.0 242.6,286.0 245.3,286.0 247.9,286.0 250.6,286.0 253.3,286.0 256.0,286.0 258.6,286.0 261.3,286.0 264.0,286.0 266.7,286.0 269.3,286.0 272.0,286.0 274.7,286.0 277.4,286.0 280.0,286.0 282.7,286.0 285.4,286.0 288.1,279.8 290.7,279.8 293.4,286.0 296.1,286.0 298.8,286.0 301.4,286.0 304.1,286.0 306.8,273.7 309.5,286.0 312.1,286.0 314.8,286.0 317.5,286.0 320.2,286.0 322.8,286.0 325.5,286.0 328.2,286.0 330.9,286.0 333.5,286.0 336.2,286.0 338.9,286.0 341.6,286.0 344.2,286.0 346.9,286.0 349.6,286.0 352.3,286.0 354.9,286.0 357.6,286.0 360.3,279.8 363.0,286.0 365.6,286.0 368.3,279.8 371.0,279.8 373.7,286.0 376.3,286.0 379.0,286.0 381.7,286.0 384.4,286.0 387.0,286.0 389.7,286.0 392.4,286.0 395.1,286.0 397.7,286.0 400.4,286.0 403.1,286.0 405.7,273.7 408.4,286.0 411.1,286.0 413.8,286.0 416.4,286.0 419.1,286.0 421.8,286.0 424.5,286.0 427.1,286.0 429.8,286.0 432.5,286.0 435.2,286.0 437.8,286.0 440.5,286.0 443.2,286.0 445.9,286.0 448.5,286.0 451.2,286.0 453.9,286.0 456.6,286.0 459.2,286.0 461.9,286.0 464.6,286.0 467.3,286.0 469.9,286.0 472.6,286.0 475.3,286.0 478.0,286.0 480.6,286.0 483.3,286.0 486.0,279.8 488.7,286.0 491.3,286.0 494.0,286.0 496.7,286.0 499.4,279.8 502.0,286.0 504.7,286.0 507.4,286.0 510.1,286.0 512.7,286.0 515.4,286.0 518.1,286.0 520.8,286.0 523.4,286.0 526.1,286.0 528.8,286.0 531.5,286.0 534.1,279.8 536.8,286.0 539.5,286.0 542.2,286.0 544.8,286.0 547.5,286.0 550.2,286.0 552.9,286.0 555.5,286.0 558.2,286.0 560.9,286.0 563.6,279.8 566.2,286.0 568.9,279.8 571.6,286.0 574.3,286.0 576.9,286.0 579.6,279.8 582.3,286.0 584.9,286.0 587.6,286.0 590.3,286.0 593.0,286.0 595.6,286.0 598.3,286.0 601.0,286.0 603.7,286.0 606.3,286.0 609.0,286.0 611.7,286.0 614.4,286.0 617.0,286.0 619.7,286.0 622.4,286.0 625.1,286.0 627.7,279.8 630.4,286.0 633.1,286.0 635.8,286.0 638.4,286.0 641.1,286.0 643.8,286.0 646.5,286.0 649.1,286.0 651.8,286.0 654.5,286.0 657.2,286.0 659.8,286.0 662.5,286.0 665.2,286.0 667.9,286.0 670.5,286.0 673.2,286.0 675.9,286.0 678.6,286.0 681.2,286.0 683.9,286.0 686.6,286.0 689.3,286.0 691.9,286.0 694.6,286.0 697.3,286.0 700.0,286.0 702.6,286.0 705.3,286.0 708.0,286.0 710.7,286.0 713.3,286.0 716.0,286.0 718.7,286.0 721.4,286.0 724.0,286.0 726.7,286.0 729.4,286.0 732.1,286.0 734.7,279.8 737.4,286.0 740.1,286.0 742.8,286.0 745.4,286.0 748.1,286.0 750.8,286.0 753.5,286.0 756.1,286.0 758.8,286.0 761.5,286.0 764.1,286.0 766.8,279.8 769.5,286.0 772.2,286.0 774.8,286.0 777.5,286.0 780.2,286.0 782.9,286.0 785.5,286.0 788.2,286.0 790.9,286.0 793.6,279.8 796.2,286.0 798.9,286.0 801.6,286.0 804.3,286.0 806.9,286.0 809.6,286.0 812.3,286.0 815.0,286.0 817.6,286.0 820.3,286.0 823.0,286.0 825.7,279.8 828.3,286.0 831.0,286.0 833.7,286.0 836.4,286.0 839.0,286.0 841.7,286.0 844.4,279.8 847.1,286.0 849.7,286.0 852.4,286.0 855.1,286.0 857.8,286.0 860.4,286.0 863.1,286.0 865.8,286.0 868.5,286.0 871.1,286.0 873.8,286.0 876.5,286.0 879.2,286.0 881.8,286.0 884.5,286.0 887.2,279.8 889.9,286.0 892.5,286.0 895.2,286.0 897.9,286.0 900.6,286.0 903.2,286.0 905.9,286.0 908.6,286.0 911.3,286.0 913.9,286.0 916.6,286.0 919.3,279.8 922.0,286.0 924.6,286.0 927.3,286.0 930.0,279.8 932.7,286.0 935.3,286.0 938.0,286.0"/><polyline fill="none" stroke="#a855f7" stroke-width="2.5" stroke-linejoin="round" stroke-linecap="round" points="42.0,286.0 44.7,286.0 47.3,286.0 50.0,286.0 52.7,286.0 55.4,286.0 58.0,286.0 60.7,286.0 63.4,286.0 66.1,279.8 68.7,286.0 71.4,286.0 74.1,286.0 76.8,286.0 79.4,286.0 82.1,286.0 84.8,286.0 87.5,286.0 90.1,286.0 92.8,279.8 95.5,286.0 98.2,286.0 100.8,286.0 103.5,286.0 106.2,286.0 108.9,286.0 111.5,286.0 114.2,286.0 116.9,286.0 119.6,286.0 122.2,286.0 124.9,286.0 127.6,286.0 130.3,286.0 132.9,286.0 135.6,286.0 138.3,286.0 141.0,286.0 143.6,286.0 146.3,286.0 149.0,286.0 151.7,286.0 154.3,286.0 157.0,286.0 159.7,286.0 162.4,286.0 165.0,286.0 167.7,286.0 170.4,279.8 173.1,286.0 175.7,286.0 178.4,286.0 181.1,286.0 183.8,286.0 186.4,286.0 189.1,279.8 191.8,286.0 194.5,286.0 197.1,286.0 199.8,286.0 202.5,286.0 205.2,286.0 207.8,286.0 210.5,286.0 213.2,286.0 215.9,286.0 218.5,286.0 221.2,286.0 223.9,286.0 226.5,286.0 229.2,286.0 231.9,286.0 234.6,279.8 237.2,286.0 239.9,286.0 242.6,286.0 245.3,286.0 247.9,286.0 250.6,286.0 253.3,286.0 256.0,286.0 258.6,286.0 261.3,286.0 264.0,286.0 266.7,286.0 269.3,286.0 272.0,286.0 274.7,286.0 277.4,286.0 280.0,286.0 282.7,286.0 285.4,286.0 288.1,286.0 290.7,286.0 293.4,286.0 296.1,286.0 298.8,286.0 301.4,286.0 304.1,286.0 306.8,286.0 309.5,286.0 312.1,286.0 314.8,286.0 317.5,286.0 320.2,286.0 322.8,286.0 325.5,286.0 328.2,286.0 330.9,286.0 333.5,273.7 336.2,286.0 338.9,286.0 341.6,286.0 344.2,286.0 346.9,286.0 349.6,286.0 352.3,286.0 354.9,286.0 357.6,286.0 360.3,286.0 363.0,286.0 365.6,286.0 368.3,286.0 371.0,286.0 373.7,286.0 376.3,286.0 379.0,286.0 381.7,286.0 384.4,286.0 387.0,286.0 389.7,286.0 392.4,286.0 395.1,286.0 397.7,286.0 400.4,286.0 403.1,286.0 405.7,286.0 408.4,286.0 411.1,286.0 413.8,286.0 416.4,286.0 419.1,286.0 421.8,286.0 424.5,286.0 427.1,286.0 429.8,286.0 432.5,286.0 435.2,286.0 437.8,286.0 440.5,286.0 443.2,286.0 445.9,286.0 448.5,286.0 451.2,286.0 453.9,286.0 456.6,286.0 459.2,286.0 461.9,286.0 464.6,286.0 467.3,286.0 469.9,286.0 472.6,286.0 475.3,286.0 478.0,286.0 480.6,286.0 483.3,286.0 486.0,286.0 488.7,286.0 491.3,286.0 494.0,286.0 496.7,286.0 499.4,286.0 502.0,286.0 504.7,286.0 507.4,286.0 510.1,286.0 512.7,286.0 515.4,286.0 518.1,286.0 520.8,286.0 523.4,286.0 526.1,286.0 528.8,286.0 531.5,286.0 534.1,286.0 536.8,286.0 539.5,286.0 542.2,286.0 544.8,286.0 547.5,286.0 550.2,286.0 552.9,286.0 555.5,286.0 558.2,286.0 560.9,286.0 563.6,286.0 566.2,286.0 568.9,286.0 571.6,286.0 574.3,286.0 576.9,286.0 579.6,286.0 582.3,286.0 584.9,286.0 587.6,286.0 590.3,286.0 593.0,286.0 595.6,286.0 598.3,286.0 601.0,286.0 603.7,286.0 606.3,286.0 609.0,286.0 611.7,286.0 614.4,286.0 617.0,286.0 619.7,286.0 622.4,286.0 625.1,286.0 627.7,286.0 630.4,286.0 633.1,286.0 635.8,286.0 638.4,286.0 641.1,286.0 643.8,286.0 646.5,286.0 649.1,286.0 651.8,286.0 654.5,286.0 657.2,286.0 659.8,286.0 662.5,286.0 665.2,286.0 667.9,286.0 670.5,286.0 673.2,286.0 675.9,286.0 678.6,286.0 681.2,286.0 683.9,286.0 686.6,286.0 689.3,286.0 691.9,286.0 694.6,279.8 697.3,286.0 700.0,286.0 702.6,286.0 705.3,286.0 708.0,286.0 710.7,286.0 713.3,286.0 716.0,286.0 718.7,286.0 721.4,286.0 724.0,286.0 726.7,286.0 729.4,286.0 732.1,286.0 734.7,286.0 737.4,286.0 740.1,286.0 742.8,286.0 745.4,286.0 748.1,286.0 750.8,286.0 753.5,286.0 756.1,286.0 758.8,286.0 761.5,286.0 764.1,286.0 766.8,286.0 769.5,286.0 772.2,286.0 774.8,286.0 777.5,286.0 780.2,286.0 782.9,286.0 785.5,286.0 788.2,286.0 790.9,279.8 793.6,286.0 796.2,286.0 798.9,286.0 801.6,286.0 804.3,286.0 806.9,286.0 809.6,286.0 812.3,286.0 815.0,286.0 817.6,286.0 820.3,286.0 823.0,286.0 825.7,286.0 828.3,286.0 831.0,286.0 833.7,286.0 836.4,286.0 839.0,286.0 841.7,286.0 844.4,286.0 847.1,286.0 849.7,286.0 852.4,286.0 855.1,286.0 857.8,286.0 860.4,286.0 863.1,286.0 865.8,286.0 868.5,286.0 871.1,286.0 873.8,286.0 876.5,286.0 879.2,286.0 881.8,286.0 884.5,286.0 887.2,286.0 889.9,286.0 892.5,286.0 895.2,286.0 897.9,286.0 900.6,286.0 903.2,286.0 905.9,286.0 908.6,286.0 911.3,286.0 913.9,286.0 916.6,286.0 919.3,286.0 922.0,286.0 924.6,286.0 927.3,286.0 930.0,286.0 932.7,286.0 935.3,286.0 938.0,286.0"/><text x="42" y="308" font-size="11" fill="#9fb0d4">01/07 09:32</text><text x="938" y="308" text-anchor="end" font-size="11" fill="#9fb0d4">16/07 11:33</text></svg>