<svg xmlns="http://www.w3.org/2000/svg" viewBox="0 0 960 320" width="960" height="320" font-family="Segoe UI, system-ui, -apple-system, Roboto, Helvetica, Arial, sans-serif" role="img" aria-label="Availability history per region"><rect x="0.5" y="0.5" width="959" height="319" rx="14" fill="#ffffff" stroke="#dce3f1"/><text x="42" y="26" font-size="14" font-weight="600" fill="#14203a">History · 103 points</text><circle cx="47" cy="40" r="5" fill="#22c55e"/><text x="57" y="44" font-size="12" fill="#5a688a">Available</text><circle cx="139.8" cy="40" r="5" fill="#f59e0b"/><text x="149.8" y="44" font-size="12" fill="#5a688a">Saturated</text><circle cx="232.60000000000002" cy="40" r="5" fill="#ef4444"/><text x="242.60000000000002" y="44" font-size="12" fill="#5a688a">Error</text><circle cx="296.6" cy="40" r="5" fill="#a855f7"/><text x="306.6" y="44" font-size="12" fill="#5a688a">Timeout</text><line x1="42" y1="286.0" x2="938" y2="286.0" stroke="#eef2f7" stroke-width="1"/><text x="35" y="289.0" text-anchor="end" font-size="11" fill="#5a688a">0</text><line x1="42" y1="227.5" x2="938" y2="227.5" stroke="#eef2f7" stroke-width="1"/><text x="35" y="230.5" text-anchor="end" font-size="11" fill="#5a688a">10</text><line x1="42" y1="169.0" x2="938" y2="169.0" stroke="#eef2f7" stroke-width="1"/><text x="35" y="172.0" text-anchor="end" font-size="11" fill="#5a688a">19</text><line x1="42" y1="110.5" x2="938" y2="110.5" stroke="#eef2f7" stroke-width="1"/><text x="35" y="113.5" text-anchor="end" font-size="11" fill="#5a688a">28</text><line x1="42" y1="52.0" x2="938" y2="52.0" stroke="#eef2f7" stroke-width="1"/><text x="35" y="55.0" text-anchor="end" font-size="11" fill="#5a688a">38</text><polyline fill="none" stroke="#22c55e" stroke-width="2.5" stroke-linejoin="round" stroke-linecap="round" points="42.0,64.3 50.8,224.4 59.6,82.8 68.4,88.9 77.1,82.8 85.9,76.6 94.7,76.6 103.5,76.6 112.3,76.6 121.1,76.6 129.8,76.6 138.6,76.6 147.4,76.6 156.2,76.6 165.0,76.6 173.8,70.5 182.5,70.5 191.3,82.8 200.1,82.8 208.9,82.8 217.7,88.9 226.5,88.9 235.3,88.9 244.0,88.9 252.8,88.9 261.6,88.9 270.4,88.9 279.2,88.9 288.0,88.9 296.7,82.8 305.5,82.8 314.3,82.8 323.1,82.8 331.9,76.6 340.7,76.6 349.5,76.6 358.2,76.6 367.0,76.6 375.8,82.8 384.6,82.8 393.4,82.8 402.2,82.8 410.9,76.6 419.7,76.6 428.5,76.6 437.3,76.6 446.1,76.6 454.9,76.6 463.6,76.6 472.4,82.8 481.2,82.8 490.0,82.8 498.8,82.8 507.6,76.6 516.4,76.6 525.1,76.6 533.9,76.6 542.7,76.6 551.5,76.6 560.3,76.6 569.1,76.6 577.8,82.8 586.6,76.6 595.4,76.6 604.2,76.6 613.0,76.6 621.8,76.6 630.5,82.8 639.3,76.6 648.1,76.6 656.9,76.6 665.7,76.6 674.5,76.6 683.3,76.6 692.0,76.6 700.8,76.6 709.6,76.6 718.4,70.5 727.2,70.5 736.0,70.5 744.7,70.5 753.5,76.6 762.3,70.5 771.1,76.6 779.9,76.6 788.7,76.6 797.5,76.6 806.2,76.6 815.0,76.6 823.8,82.8 832.6,88.9 841.4,88.9 850.2,88.9 858.9,88.9 867.7,88.9 876.5,88.9 885.3,88.9 894.1,95.1 902.9,88.9 911.6,88.9 920.4,88.9 929.2,88.9 938.0,88.9"/><polyline fill="none" stroke="#f59e0b" stroke-width="2.5" stroke-linejoin="round" stroke-linecap="round" points="42.0,273.7 50.8,267.5 59.6,255.2 68.4,249.1 77.1,255.2 85.9,261.4 94.7,261.4 103.5,261.4 112.3,261.4 121.1,261.4 129.8,261.4 138.6,261.4 147.4,261.4 156.2,261.4 165.0,261.4 173.8,267.5 182.5,267.5 191.3,261.4 200.1,255.2 208.9,255.2 217.7,249.1 226.5,249.1 235.3,249.1 244.0,249.1 252.8,249.1 261.6,249.1 270.4,249.1 279.2,249.1 288.0,249.1 296.7,255.2 305.5,255.2 314.3,255.2 323.1,255.2 331.9,261.4 340.7,261.4 349.5,261.4 358.2,261.4 367.0,261.4 375.8,255.2 384.6,255.2 393.4,255.2 402.2,255.2 410.9,261.4 419.7,261.4 428.5,261.4 437.3,261.4 446.1,261.4 454.9,261.4 463.6,261.4 472.4,255.2 481.2,255.2 490.0,255.2 498.8,261.4 507.6,261.4 516.4,261.4 525.1,261.4 533.9,261.4 542.7,261.4 551.5,261.4 560.3,261.4 569.1,261.4 577.8,255.2 586.6,261.4 595.4,261.4 604.2,261.4 613.0,261.4 621.8,261.4 630.5,261.4 639.3,261.4 648.1,261.4 656.9,261.4 665.7,261.4 674.5,261.4 683.3,261.4 692.0,261.4 700.8,261.4 709.6,261.4 718.4,267.5 727.2,267.5 736.0,267.5 744.7,267.5 753.5,267.5 762.3,267.5 771.1,261.4 779.9,261.4 788.7,261.4 797.5,261.4 806.2,261.4 815.0,261.4 823.8,255.2 832.6,249.1 841.4,249.1 850.2,255.2 858.9,249.1 867.7,249.1 876.5,249.1 885.3,249.1 894.1,249.1 902.9,249.1 911.6,255.2 920.4,249.1 929.2,249.1 938.0,249.1"/><polyline fill="none" stroke="#ef4444" stroke-width="2.5" stroke-linejoin="round" stroke-linecap="round" points="42.0,286.0 50.8,132.1 59.6,286.0 68.4,286.0 77.1,286.0 85.9,286.0 94.7,286.0 103.5,286.0 112.3,286.0 121.1,286.0 129.8,286.0 138.6,286.0 147.4,286.0 156.2,286.0 165.0,286.0 173.8,286.0 182.5,286.0 191.3,279.8 200.1,286.0 208.9,286.0 217.7,286.0 226.5,286.0 235.3,286.0 244.0,286.0 252.8,286.0 261.6,286.0 270.4,286.0 279.2,286.0 288.0,286.0 296.7,286.0 305.5,286.0 314.3,286.0 323.1,286.0 331.9,286.0 340.7,286.0 349.5,286.0 358.2,286.0 367.0,286.0 375.8,286.0 384.6,286.0 393.4,286.0 402.2,286.0 410.9,286.0 419.7,286.0 428.5,286.0 437.3,286.0 446.1,286.0 454.9,286.0 463.6,286.0 472.4,286.0 481.2,286.0 490.0,286.0 498.8,286.0 507.6,286.0 516.4,286.0 525.1,286.0 533.9,286.0 542.7,286.0 551.5,286.0 560.3,286.0 569.1,286.0 577.8,286.0 586.6,286.0 595.4,286.0 604.2,286.0 613.0,286.0 621.8,286.0 630.5,279.8 639.3,286.0 648.1,286.0 656.9,286.0 665.7,286.0 674.5,286.0 683.3,286.0 692.0,286.0 700.8,286.0 709.6,286.0 718.4,286.0 727.2,286.0 736.0,286.0 744.7,286.0 753.5,279.8 762.3,286.0 771.1,286.0 779.9,286.0 788.7,286.0 797.5,286.0 806.2,286.0 815.0,286.0 823.8,286.0 832.6,286.0 841.4,286.0 850.2,279.8 858.9,286.0 867.7,286.0 876.5,286.0 885.3,286.0 894.1,279.8 902.9,286.0 911.6,286.0 920.4,286.0 929.2,286.0 938.0,286.0"/><polyline fill="none" stroke="#a855f7" stroke-width="2.5" stroke-linejoin="round" stroke-linecap="round" points="42.0,286.0 50.8,286.0 59.6,286.0 68.4,286.0 77.1,286.0 85.9,286.0 94.7,286.0 103.5,286.0 112.3,286.0 121.1,286.0 129.8,286.0 138.6,286.0 147.4,286.0 156.2,286.0 165.0,286.0 173.8,286.0 182.5,286.0 191.3,286.0 200.1,286.0 208.9,286.0 217.7,286.0 226.5,286.0 235.3,286.0 244.0,286.0 252.8,286.0 261.6,286.0 270.4,286.0 279.2,286.0 288.0,286.0 296.7,286.0 305.5,286.0 314.3,286.0 323.1,286.0 331.9,286.0 340.7,286.0 349.5,286.0 358.2,286.0 367.0,286.0 375.8,286.0 384.6,286.0 393.4,286.0 402.2,286.0 410.9,286.0 419.7,286.0 428.5,286.0 437.3,286.0 446.1,286.0 454.9,286.0 463.6,286.0 472.4,286.0 481.2,286.0 490.0,286.0 498.8,279.8 507.6,286.0 516.4,286.0 525.1,286.0 533.9,286.0 542.7,286.0 551.5,286.0 560.3,286.0 569.1,286.0 577.8,286.0 586.6,286.0 595.4,286.0 604.2,286.0 613.0,286.0 621.8,286.0 630.5,286.0 639.3,286.0 648.1,286.0 656.9,286.0 665.7,286.0 674.5,286.0 683.3,286.0 692.0,286.0 700.8,286.0 709.6,286.0 718.4,286.0 727.2,286.0 736.0,286.0 744.7,286.0 753.5,286.0 762.3,286.0 771.1,286.0 779.9,286.0 788.7,286.0 797.5,286.0 806.2,286.0 815.0,286.0 823.8,286.0 832.6,286.0 841.4,286.0 850.2,286.0 858.9,286.0 867.7,286.0 876.5,286.0 885.3,286.0 894.1,286.0 902.9,286.0 911.6,279.8 920.4,286.0 929.2,286.0 938.0,286.0"/><text x="42" y="308" font-size="11" fill="#5a688a">19/06 15:39</text><text x="938" y="308" text-anchor="end" font-size="11" fill="#5a688a">20/07 21:33</text></svg>