<svg xmlns="http://www.w3.org/2000/svg" viewBox="0 0 960 320" width="960" height="320" font-family="Segoe UI, system-ui, -apple-system, Roboto, Helvetica, Arial, sans-serif" role="img" aria-label="Availability history per region"><rect x="0.5" y="0.5" width="959" height="319" rx="14" fill="#ffffff" stroke="#dce3f1"/><text x="42" y="26" font-size="14" font-weight="600" fill="#14203a">History · 30 points</text><circle cx="47" cy="40" r="5" fill="#22c55e"/><text x="57" y="44" font-size="12" fill="#5a688a">Available</text><circle cx="139.8" cy="40" r="5" fill="#f59e0b"/><text x="149.8" y="44" font-size="12" fill="#5a688a">Saturated</text><circle cx="232.60000000000002" cy="40" r="5" fill="#ef4444"/><text x="242.60000000000002" y="44" font-size="12" fill="#5a688a">Error</text><line x1="42" y1="286.0" x2="938" y2="286.0" stroke="#eef2f7" stroke-width="1"/><text x="35" y="289.0" text-anchor="end" font-size="11" fill="#5a688a">0</text><line x1="42" y1="227.5" x2="938" y2="227.5" stroke="#eef2f7" stroke-width="1"/><text x="35" y="230.5" text-anchor="end" font-size="11" fill="#5a688a">10</text><line x1="42" y1="169.0" x2="938" y2="169.0" stroke="#eef2f7" stroke-width="1"/><text x="35" y="172.0" text-anchor="end" font-size="11" fill="#5a688a">20</text><line x1="42" y1="110.5" x2="938" y2="110.5" stroke="#eef2f7" stroke-width="1"/><text x="35" y="113.5" text-anchor="end" font-size="11" fill="#5a688a">29</text><line x1="42" y1="52.0" x2="938" y2="52.0" stroke="#eef2f7" stroke-width="1"/><text x="35" y="55.0" text-anchor="end" font-size="11" fill="#5a688a">39</text><polyline fill="none" stroke="#22c55e" stroke-width="2.5" stroke-linejoin="round" stroke-linecap="round" points="42.0,70.0 72.9,70.0 103.8,88.0 134.7,88.0 165.6,76.0 196.5,76.0 227.4,76.0 258.3,70.0 289.2,76.0 320.1,70.0 351.0,64.0 381.9,58.0 412.8,58.0 443.7,58.0 474.6,58.0 505.4,58.0 536.3,58.0 567.2,58.0 598.1,58.0 629.0,58.0 659.9,58.0 690.8,58.0 721.7,58.0 752.6,58.0 783.5,58.0 814.4,58.0 845.3,58.0 876.2,58.0 907.1,58.0 938.0,58.0"/><circle cx="42.0" cy="70.0" r="2.5" fill="#22c55e"/><circle cx="72.9" cy="70.0" r="2.5" fill="#22c55e"/><circle cx="103.8" cy="88.0" r="2.5" fill="#22c55e"/><circle cx="134.7" cy="88.0" r="2.5" fill="#22c55e"/><circle cx="165.6" cy="76.0" r="2.5" fill="#22c55e"/><circle cx="196.5" cy="76.0" r="2.5" fill="#22c55e"/><circle cx="227.4" cy="76.0" r="2.5" fill="#22c55e"/><circle cx="258.3" cy="70.0" r="2.5" fill="#22c55e"/><circle cx="289.2" cy="76.0" r="2.5" fill="#22c55e"/><circle cx="320.1" cy="70.0" r="2.5" fill="#22c55e"/><circle cx="351.0" cy="64.0" r="2.5" fill="#22c55e"/><circle cx="381.9" cy="58.0" r="2.5" fill="#22c55e"/><circle cx="412.8" cy="58.0" r="2.5" fill="#22c55e"/><circle cx="443.7" cy="58.0" r="2.5" fill="#22c55e"/><circle cx="474.6" cy="58.0" r="2.5" fill="#22c55e"/><circle cx="505.4" cy="58.0" r="2.5" fill="#22c55e"/><circle cx="536.3" cy="58.0" r="2.5" fill="#22c55e"/><circle cx="567.2" cy="58.0" r="2.5" fill="#22c55e"/><circle cx="598.1" cy="58.0" r="2.5" fill="#22c55e"/><circle cx="629.0" cy="58.0" r="2.5" fill="#22c55e"/><circle cx="659.9" cy="58.0" r="2.5" fill="#22c55e"/><circle cx="690.8" cy="58.0" r="2.5" fill="#22c55e"/><circle cx="721.7" cy="58.0" r="2.5" fill="#22c55e"/><circle cx="752.6" cy="58.0" r="2.5" fill="#22c55e"/><circle cx="783.5" cy="58.0" r="2.5" fill="#22c55e"/><circle cx="814.4" cy="58.0" r="2.5" fill="#22c55e"/><circle cx="845.3" cy="58.0" r="2.5" fill="#22c55e"/><circle cx="876.2" cy="58.0" r="2.5" fill="#22c55e"/><circle cx="907.1" cy="58.0" r="2.5" fill="#22c55e"/><circle cx="938.0" cy="58.0" r="2.5" fill="#22c55e"/><polyline fill="none" stroke="#f59e0b" stroke-width="2.5" stroke-linejoin="round" stroke-linecap="round" points="42.0,274.0 72.9,274.0 103.8,274.0 134.7,280.0 165.6,268.0 196.5,268.0 227.4,268.0 258.3,274.0 289.2,274.0 320.1,274.0 351.0,280.0 381.9,286.0 412.8,286.0 443.7,286.0 474.6,286.0 505.4,286.0 536.3,286.0 567.2,286.0 598.1,286.0 629.0,286.0 659.9,286.0 690.8,286.0 721.7,286.0 752.6,286.0 783.5,286.0 814.4,286.0 845.3,286.0 876.2,286.0 907.1,286.0 938.0,286.0"/><circle cx="42.0" cy="274.0" r="2.5" fill="#f59e0b"/><circle cx="72.9" cy="274.0" r="2.5" fill="#f59e0b"/><circle cx="103.8" cy="274.0" r="2.5" fill="#f59e0b"/><circle cx="134.7" cy="280.0" r="2.5" fill="#f59e0b"/><circle cx="165.6" cy="268.0" r="2.5" fill="#f59e0b"/><circle cx="196.5" cy="268.0" r="2.5" fill="#f59e0b"/><circle cx="227.4" cy="268.0" r="2.5" fill="#f59e0b"/><circle cx="258.3" cy="274.0" r="2.5" fill="#f59e0b"/><circle cx="289.2" cy="274.0" r="2.5" fill="#f59e0b"/><circle cx="320.1" cy="274.0" r="2.5" fill="#f59e0b"/><circle cx="351.0" cy="280.0" r="2.5" fill="#f59e0b"/><circle cx="381.9" cy="286.0" r="2.5" fill="#f59e0b"/><circle cx="412.8" cy="286.0" r="2.5" fill="#f59e0b"/><circle cx="443.7" cy="286.0" r="2.5" fill="#f59e0b"/><circle cx="474.6" cy="286.0" r="2.5" fill="#f59e0b"/><circle cx="505.4" cy="286.0" r="2.5" fill="#f59e0b"/><circle cx="536.3" cy="286.0" r="2.5" fill="#f59e0b"/><circle cx="567.2" cy="286.0" r="2.5" fill="#f59e0b"/><circle cx="598.1" cy="286.0" r="2.5" fill="#f59e0b"/><circle cx="629.0" cy="286.0" r="2.5" fill="#f59e0b"/><circle cx="659.9" cy="286.0" r="2.5" fill="#f59e0b"/><circle cx="690.8" cy="286.0" r="2.5" fill="#f59e0b"/><circle cx="721.7" cy="286.0" r="2.5" fill="#f59e0b"/><circle cx="752.6" cy="286.0" r="2.5" fill="#f59e0b"/><circle cx="783.5" cy="286.0" r="2.5" fill="#f59e0b"/><circle cx="814.4" cy="286.0" r="2.5" fill="#f59e0b"/><circle cx="845.3" cy="286.0" r="2.5" fill="#f59e0b"/><circle cx="876.2" cy="286.0" r="2.5" fill="#f59e0b"/><circle cx="907.1" cy="286.0" r="2.5" fill="#f59e0b"/><circle cx="938.0" cy="286.0" r="2.5" fill="#f59e0b"/><polyline fill="none" stroke="#ef4444" stroke-width="2.5" stroke-linejoin="round" stroke-linecap="round" points="42.0,280.0 72.9,280.0 103.8,268.0 134.7,262.0 165.6,286.0 196.5,286.0 227.4,286.0 258.3,286.0 289.2,280.0 320.1,286.0 351.0,286.0 381.9,286.0 412.8,286.0 443.7,286.0 474.6,286.0 505.4,286.0 536.3,286.0 567.2,286.0 598.1,286.0 629.0,286.0 659.9,286.0 690.8,286.0 721.7,286.0 752.6,286.0 783.5,286.0 814.4,286.0 845.3,286.0 876.2,286.0 907.1,286.0 938.0,286.0"/><circle cx="42.0" cy="280.0" r="2.5" fill="#ef4444"/><circle cx="72.9" cy="280.0" r="2.5" fill="#ef4444"/><circle cx="103.8" cy="268.0" r="2.5" fill="#ef4444"/><circle cx="134.7" cy="262.0" r="2.5" fill="#ef4444"/><circle cx="165.6" cy="286.0" r="2.5" fill="#ef4444"/><circle cx="196.5" cy="286.0" r="2.5" fill="#ef4444"/><circle cx="227.4" cy="286.0" r="2.5" fill="#ef4444"/><circle cx="258.3" cy="286.0" r="2.5" fill="#ef4444"/><circle cx="289.2" cy="280.0" r="2.5" fill="#ef4444"/><circle cx="320.1" cy="286.0" r="2.5" fill="#ef4444"/><circle cx="351.0" cy="286.0" r="2.5" fill="#ef4444"/><circle cx="381.9" cy="286.0" r="2.5" fill="#ef4444"/><circle cx="412.8" cy="286.0" r="2.5" fill="#ef4444"/><circle cx="443.7" cy="286.0" r="2.5" fill="#ef4444"/><circle cx="474.6" cy="286.0" r="2.5" fill="#ef4444"/><circle cx="505.4" cy="286.0" r="2.5" fill="#ef4444"/><circle cx="536.3" cy="286.0" r="2.5" fill="#ef4444"/><circle cx="567.2" cy="286.0" r="2.5" fill="#ef4444"/><circle cx="598.1" cy="286.0" r="2.5" fill="#ef4444"/><circle cx="629.0" cy="286.0" r="2.5" fill="#ef4444"/><circle cx="659.9" cy="286.0" r="2.5" fill="#ef4444"/><circle cx="690.8" cy="286.0" r="2.5" fill="#ef4444"/><circle cx="721.7" cy="286.0" r="2.5" fill="#ef4444"/><circle cx="752.6" cy="286.0" r="2.5" fill="#ef4444"/><circle cx="783.5" cy="286.0" r="2.5" fill="#ef4444"/><circle cx="814.4" cy="286.0" r="2.5" fill="#ef4444"/><circle cx="845.3" cy="286.0" r="2.5" fill="#ef4444"/><circle cx="876.2" cy="286.0" r="2.5" fill="#ef4444"/><circle cx="907.1" cy="286.0" r="2.5" fill="#ef4444"/><circle cx="938.0" cy="286.0" r="2.5" fill="#ef4444"/><text x="42" y="308" font-size="11" fill="#5a688a">19/06 12:43</text><text x="938" y="308" text-anchor="end" font-size="11" fill="#5a688a">22/06 07:39</text></svg>