<svg xmlns="http://www.w3.org/2000/svg" viewBox="0 0 960 320" width="960" height="320" font-family="Segoe UI, system-ui, -apple-system, Roboto, Helvetica, Arial, sans-serif" role="img" aria-label="Availability history per region"><rect x="0.5" y="0.5" width="959" height="319" rx="14" fill="#ffffff" stroke="#dce3f1"/><text x="42" y="26" font-size="14" font-weight="600" fill="#14203a">History · 133 points</text><circle cx="47" cy="40" r="5" fill="#22c55e"/><text x="57" y="44" font-size="12" fill="#5a688a">Available</text><circle cx="139.8" cy="40" r="5" fill="#f59e0b"/><text x="149.8" y="44" font-size="12" fill="#5a688a">Saturated</text><circle cx="232.60000000000002" cy="40" r="5" fill="#ef4444"/><text x="242.60000000000002" y="44" font-size="12" fill="#5a688a">Error</text><circle cx="296.6" cy="40" r="5" fill="#a855f7"/><text x="306.6" y="44" font-size="12" fill="#5a688a">Timeout</text><line x1="42" y1="286.0" x2="938" y2="286.0" stroke="#eef2f7" stroke-width="1"/><text x="35" y="289.0" text-anchor="end" font-size="11" fill="#5a688a">0</text><line x1="42" y1="227.5" x2="938" y2="227.5" stroke="#eef2f7" stroke-width="1"/><text x="35" y="230.5" text-anchor="end" font-size="11" fill="#5a688a">10</text><line x1="42" y1="169.0" x2="938" y2="169.0" stroke="#eef2f7" stroke-width="1"/><text x="35" y="172.0" text-anchor="end" font-size="11" fill="#5a688a">20</text><line x1="42" y1="110.5" x2="938" y2="110.5" stroke="#eef2f7" stroke-width="1"/><text x="35" y="113.5" text-anchor="end" font-size="11" fill="#5a688a">29</text><line x1="42" y1="52.0" x2="938" y2="52.0" stroke="#eef2f7" stroke-width="1"/><text x="35" y="55.0" text-anchor="end" font-size="11" fill="#5a688a">39</text><polyline fill="none" stroke="#22c55e" stroke-width="2.5" stroke-linejoin="round" stroke-linecap="round" points="42.0,70.0 48.8,70.0 55.6,88.0 62.4,88.0 69.2,76.0 75.9,76.0 82.7,76.0 89.5,70.0 96.3,76.0 103.1,70.0 109.9,64.0 116.7,58.0 123.5,58.0 130.2,58.0 137.0,58.0 143.8,58.0 150.6,58.0 157.4,58.0 164.2,58.0 171.0,58.0 177.8,58.0 184.5,58.0 191.3,58.0 198.1,58.0 204.9,58.0 211.7,58.0 218.5,58.0 225.3,58.0 232.1,58.0 238.8,58.0 245.6,58.0 252.4,70.0 259.2,76.0 266.0,94.0 272.8,64.0 279.6,64.0 286.4,58.0 293.2,58.0 299.9,58.0 306.7,70.0 313.5,76.0 320.3,76.0 327.1,82.0 333.9,82.0 340.7,82.0 347.5,82.0 354.2,76.0 361.0,64.0 367.8,70.0 374.6,70.0 381.4,82.0 388.2,76.0 395.0,76.0 401.8,82.0 408.5,76.0 415.3,76.0 422.1,76.0 428.9,64.0 435.7,64.0 442.5,76.0 449.3,76.0 456.1,76.0 462.8,88.0 469.6,70.0 476.4,64.0 483.2,58.0 490.0,58.0 496.8,70.0 503.6,70.0 510.4,70.0 517.2,76.0 523.9,70.0 530.7,70.0 537.5,70.0 544.3,70.0 551.1,76.0 557.9,82.0 564.7,76.0 571.5,70.0 578.2,70.0 585.0,70.0 591.8,70.0 598.6,76.0 605.4,70.0 612.2,70.0 619.0,70.0 625.8,70.0 632.5,70.0 639.3,70.0 646.1,70.0 652.9,70.0 659.7,70.0 666.5,70.0 673.3,70.0 680.1,70.0 686.8,70.0 693.6,70.0 700.4,70.0 707.2,70.0 714.0,70.0 720.8,70.0 727.6,70.0 734.4,70.0 741.2,70.0 747.9,70.0 754.7,70.0 761.5,70.0 768.3,70.0 775.1,70.0 781.9,70.0 788.7,70.0 795.5,70.0 802.2,70.0 809.0,70.0 815.8,70.0 822.6,70.0 829.4,70.0 836.2,70.0 843.0,70.0 849.8,70.0 856.5,70.0 863.3,70.0 870.1,70.0 876.9,70.0 883.7,70.0 890.5,70.0 897.3,70.0 904.1,70.0 910.8,70.0 917.6,70.0 924.4,70.0 931.2,70.0 938.0,70.0"/><polyline fill="none" stroke="#f59e0b" stroke-width="2.5" stroke-linejoin="round" stroke-linecap="round" points="42.0,274.0 48.8,274.0 55.6,274.0 62.4,280.0 69.2,268.0 75.9,268.0 82.7,268.0 89.5,274.0 96.3,274.0 103.1,274.0 109.9,280.0 116.7,286.0 123.5,286.0 130.2,286.0 137.0,286.0 143.8,286.0 150.6,286.0 157.4,286.0 164.2,286.0 171.0,286.0 177.8,286.0 184.5,286.0 191.3,286.0 198.1,286.0 204.9,286.0 211.7,286.0 218.5,286.0 225.3,286.0 232.1,286.0 238.8,286.0 245.6,286.0 252.4,274.0 259.2,280.0 266.0,280.0 272.8,280.0 279.6,280.0 286.4,286.0 293.2,286.0 299.9,286.0 306.7,274.0 313.5,268.0 320.3,268.0 327.1,262.0 333.9,262.0 340.7,262.0 347.5,262.0 354.2,268.0 361.0,280.0 367.8,280.0 374.6,274.0 381.4,262.0 388.2,268.0 395.0,268.0 401.8,262.0 408.5,268.0 415.3,268.0 422.1,268.0 428.9,280.0 435.7,280.0 442.5,268.0 449.3,268.0 456.1,268.0 462.8,262.0 469.6,274.0 476.4,280.0 483.2,286.0 490.0,286.0 496.8,274.0 503.6,274.0 510.4,274.0 517.2,274.0 523.9,274.0 530.7,274.0 537.5,274.0 544.3,274.0 551.1,280.0 557.9,274.0 564.7,280.0 571.5,286.0 578.2,286.0 585.0,286.0 591.8,286.0 598.6,280.0 605.4,286.0 612.2,286.0 619.0,286.0 625.8,286.0 632.5,286.0 639.3,286.0 646.1,286.0 652.9,286.0 659.7,286.0 666.5,286.0 673.3,286.0 680.1,286.0 686.8,286.0 693.6,286.0 700.4,286.0 707.2,286.0 714.0,286.0 720.8,286.0 727.6,286.0 734.4,286.0 741.2,286.0 747.9,286.0 754.7,286.0 761.5,286.0 768.3,286.0 775.1,286.0 781.9,286.0 788.7,286.0 795.5,286.0 802.2,286.0 809.0,286.0 815.8,286.0 822.6,286.0 829.4,286.0 836.2,286.0 843.0,286.0 849.8,286.0 856.5,286.0 863.3,286.0 870.1,286.0 876.9,286.0 883.7,286.0 890.5,286.0 897.3,286.0 904.1,286.0 910.8,286.0 917.6,286.0 924.4,286.0 931.2,286.0 938.0,286.0"/><polyline fill="none" stroke="#ef4444" stroke-width="2.5" stroke-linejoin="round" stroke-linecap="round" points="42.0,280.0 48.8,280.0 55.6,268.0 62.4,262.0 69.2,286.0 75.9,286.0 82.7,286.0 89.5,286.0 96.3,280.0 103.1,286.0 109.9,286.0 116.7,286.0 123.5,286.0 130.2,286.0 137.0,286.0 143.8,286.0 150.6,286.0 157.4,286.0 164.2,286.0 171.0,286.0 177.8,286.0 184.5,286.0 191.3,286.0 198.1,286.0 204.9,286.0 211.7,286.0 218.5,286.0 225.3,286.0 232.1,286.0 238.8,286.0 245.6,286.0 252.4,286.0 259.2,274.0 266.0,256.0 272.8,286.0 279.6,286.0 286.4,286.0 293.2,286.0 299.9,286.0 306.7,286.0 313.5,286.0 320.3,286.0 327.1,286.0 333.9,286.0 340.7,286.0 347.5,286.0 354.2,286.0 361.0,286.0 367.8,280.0 374.6,286.0 381.4,286.0 388.2,286.0 395.0,286.0 401.8,286.0 408.5,286.0 415.3,286.0 422.1,286.0 428.9,286.0 435.7,286.0 442.5,286.0 449.3,286.0 456.1,286.0 462.8,280.0 469.6,286.0 476.4,286.0 483.2,286.0 490.0,286.0 496.8,286.0 503.6,286.0 510.4,286.0 517.2,286.0 523.9,286.0 530.7,286.0 537.5,286.0 544.3,286.0 551.1,274.0 557.9,274.0 564.7,274.0 571.5,274.0 578.2,274.0 585.0,274.0 591.8,274.0 598.6,274.0 605.4,274.0 612.2,274.0 619.0,274.0 625.8,274.0 632.5,274.0 639.3,274.0 646.1,274.0 652.9,274.0 659.7,274.0 666.5,274.0 673.3,274.0 680.1,274.0 686.8,274.0 693.6,274.0 700.4,274.0 707.2,274.0 714.0,274.0 720.8,274.0 727.6,274.0 734.4,274.0 741.2,274.0 747.9,274.0 754.7,274.0 761.5,274.0 768.3,274.0 775.1,274.0 781.9,274.0 788.7,274.0 795.5,274.0 802.2,274.0 809.0,274.0 815.8,274.0 822.6,274.0 829.4,274.0 836.2,274.0 843.0,274.0 849.8,274.0 856.5,274.0 863.3,274.0 870.1,274.0 876.9,274.0 883.7,274.0 890.5,274.0 897.3,274.0 904.1,274.0 910.8,274.0 917.6,274.0 924.4,274.0 931.2,274.0 938.0,274.0"/><polyline fill="none" stroke="#a855f7" stroke-width="2.5" stroke-linejoin="round" stroke-linecap="round" points="42.0,286.0 48.8,286.0 55.6,286.0 62.4,286.0 69.2,286.0 75.9,286.0 82.7,286.0 89.5,286.0 96.3,286.0 103.1,286.0 109.9,286.0 116.7,286.0 123.5,286.0 130.2,286.0 137.0,286.0 143.8,286.0 150.6,286.0 157.4,286.0 164.2,286.0 171.0,286.0 177.8,286.0 184.5,286.0 191.3,286.0 198.1,286.0 204.9,286.0 211.7,286.0 218.5,286.0 225.3,286.0 232.1,286.0 238.8,286.0 245.6,286.0 252.4,286.0 259.2,286.0 266.0,286.0 272.8,286.0 279.6,286.0 286.4,286.0 293.2,286.0 299.9,286.0 306.7,286.0 313.5,286.0 320.3,286.0 327.1,286.0 333.9,286.0 340.7,286.0 347.5,286.0 354.2,286.0 361.0,286.0 367.8,286.0 374.6,286.0 381.4,286.0 388.2,286.0 395.0,286.0 401.8,286.0 408.5,286.0 415.3,286.0 422.1,286.0 428.9,286.0 435.7,286.0 442.5,286.0 449.3,286.0 456.1,286.0 462.8,286.0 469.6,286.0 476.4,286.0 483.2,286.0 490.0,286.0 496.8,286.0 503.6,286.0 510.4,286.0 517.2,280.0 523.9,286.0 530.7,286.0 537.5,286.0 544.3,286.0 551.1,286.0 557.9,286.0 564.7,286.0 571.5,286.0 578.2,286.0 585.0,286.0 591.8,286.0 598.6,286.0 605.4,286.0 612.2,286.0 619.0,286.0 625.8,286.0 632.5,286.0 639.3,286.0 646.1,286.0 652.9,286.0 659.7,286.0 666.5,286.0 673.3,286.0 680.1,286.0 686.8,286.0 693.6,286.0 700.4,286.0 707.2,286.0 714.0,286.0 720.8,286.0 727.6,286.0 734.4,286.0 741.2,286.0 747.9,286.0 754.7,286.0 761.5,286.0 768.3,286.0 775.1,286.0 781.9,286.0 788.7,286.0 795.5,286.0 802.2,286.0 809.0,286.0 815.8,286.0 822.6,286.0 829.4,286.0 836.2,286.0 843.0,286.0 849.8,286.0 856.5,286.0 863.3,286.0 870.1,286.0 876.9,286.0 883.7,286.0 890.5,286.0 897.3,286.0 904.1,286.0 910.8,286.0 917.6,286.0 924.4,286.0 931.2,286.0 938.0,286.0"/><text x="42" y="308" font-size="11" fill="#5a688a">19/06 12:43</text><text x="938" y="308" text-anchor="end" font-size="11" fill="#5a688a">28/06 14:32</text></svg>