<svg xmlns="http://www.w3.org/2000/svg" viewBox="0 0 960 320" width="960" height="320" font-family="Segoe UI, system-ui, -apple-system, Roboto, Helvetica, Arial, sans-serif" role="img" aria-label="Availability history per region"><rect x="0.5" y="0.5" width="959" height="319" rx="14" fill="#0d1117" stroke="#2c3a5e"/><text x="42" y="26" font-size="14" font-weight="600" fill="#e6ecff">History · 136 points</text><circle cx="47" cy="40" r="5" fill="#22c55e"/><text x="57" y="44" font-size="12" fill="#9fb0d4">Available</text><circle cx="139.8" cy="40" r="5" fill="#f59e0b"/><text x="149.8" y="44" font-size="12" fill="#9fb0d4">Saturated</text><circle cx="232.60000000000002" cy="40" r="5" fill="#ef4444"/><text x="242.60000000000002" y="44" font-size="12" fill="#9fb0d4">Error</text><circle cx="296.6" cy="40" r="5" fill="#a855f7"/><text x="306.6" y="44" font-size="12" fill="#9fb0d4">Timeout</text><line x1="42" y1="286.0" x2="938" y2="286.0" stroke="#21304f" stroke-width="1"/><text x="35" y="289.0" text-anchor="end" font-size="11" fill="#9fb0d4">0</text><line x1="42" y1="227.5" x2="938" y2="227.5" stroke="#21304f" stroke-width="1"/><text x="35" y="230.5" text-anchor="end" font-size="11" fill="#9fb0d4">10</text><line x1="42" y1="169.0" x2="938" y2="169.0" stroke="#21304f" stroke-width="1"/><text x="35" y="172.0" text-anchor="end" font-size="11" fill="#9fb0d4">20</text><line x1="42" y1="110.5" x2="938" y2="110.5" stroke="#21304f" stroke-width="1"/><text x="35" y="113.5" text-anchor="end" font-size="11" fill="#9fb0d4">29</text><line x1="42" y1="52.0" x2="938" y2="52.0" stroke="#21304f" stroke-width="1"/><text x="35" y="55.0" text-anchor="end" font-size="11" fill="#9fb0d4">39</text><polyline fill="none" stroke="#22c55e" stroke-width="2.5" stroke-linejoin="round" stroke-linecap="round" points="42.0,70.0 48.6,70.0 55.3,88.0 61.9,88.0 68.5,76.0 75.2,76.0 81.8,76.0 88.5,70.0 95.1,76.0 101.7,70.0 108.4,64.0 115.0,58.0 121.6,58.0 128.3,58.0 134.9,58.0 141.6,58.0 148.2,58.0 154.8,58.0 161.5,58.0 168.1,58.0 174.7,58.0 181.4,58.0 188.0,58.0 194.7,58.0 201.3,58.0 207.9,58.0 214.6,58.0 221.2,58.0 227.8,58.0 234.5,58.0 241.1,58.0 247.7,70.0 254.4,76.0 261.0,94.0 267.7,64.0 274.3,64.0 280.9,58.0 287.6,58.0 294.2,58.0 300.8,70.0 307.5,76.0 314.1,76.0 320.8,82.0 327.4,82.0 334.0,82.0 340.7,82.0 347.3,76.0 353.9,64.0 360.6,70.0 367.2,70.0 373.9,82.0 380.5,76.0 387.1,76.0 393.8,82.0 400.4,76.0 407.0,76.0 413.7,76.0 420.3,64.0 426.9,64.0 433.6,76.0 440.2,76.0 446.9,76.0 453.5,88.0 460.1,70.0 466.8,64.0 473.4,58.0 480.0,58.0 486.7,70.0 493.3,70.0 500.0,70.0 506.6,76.0 513.2,70.0 519.9,70.0 526.5,70.0 533.1,70.0 539.8,76.0 546.4,82.0 553.1,76.0 559.7,70.0 566.3,70.0 573.0,70.0 579.6,70.0 586.2,76.0 592.9,70.0 599.5,70.0 606.1,70.0 612.8,70.0 619.4,70.0 626.1,70.0 632.7,70.0 639.3,70.0 646.0,70.0 652.6,70.0 659.2,70.0 665.9,70.0 672.5,70.0 679.2,70.0 685.8,70.0 692.4,70.0 699.1,70.0 705.7,70.0 712.3,70.0 719.0,70.0 725.6,70.0 732.3,70.0 738.9,70.0 745.5,70.0 752.2,70.0 758.8,70.0 765.4,70.0 772.1,70.0 778.7,70.0 785.3,70.0 792.0,70.0 798.6,70.0 805.3,70.0 811.9,70.0 818.5,70.0 825.2,70.0 831.8,70.0 838.4,70.0 845.1,70.0 851.7,70.0 858.4,70.0 865.0,70.0 871.6,70.0 878.3,70.0 884.9,70.0 891.5,70.0 898.2,70.0 904.8,70.0 911.5,70.0 918.1,70.0 924.7,70.0 931.4,70.0 938.0,70.0"/><polyline fill="none" stroke="#f59e0b" stroke-width="2.5" stroke-linejoin="round" stroke-linecap="round" points="42.0,274.0 48.6,274.0 55.3,274.0 61.9,280.0 68.5,268.0 75.2,268.0 81.8,268.0 88.5,274.0 95.1,274.0 101.7,274.0 108.4,280.0 115.0,286.0 121.6,286.0 128.3,286.0 134.9,286.0 141.6,286.0 148.2,286.0 154.8,286.0 161.5,286.0 168.1,286.0 174.7,286.0 181.4,286.0 188.0,286.0 194.7,286.0 201.3,286.0 207.9,286.0 214.6,286.0 221.2,286.0 227.8,286.0 234.5,286.0 241.1,286.0 247.7,274.0 254.4,280.0 261.0,280.0 267.7,280.0 274.3,280.0 280.9,286.0 287.6,286.0 294.2,286.0 300.8,274.0 307.5,268.0 314.1,268.0 320.8,262.0 327.4,262.0 334.0,262.0 340.7,262.0 347.3,268.0 353.9,280.0 360.6,280.0 367.2,274.0 373.9,262.0 380.5,268.0 387.1,268.0 393.8,262.0 400.4,268.0 407.0,268.0 413.7,268.0 420.3,280.0 426.9,280.0 433.6,268.0 440.2,268.0 446.9,268.0 453.5,262.0 460.1,274.0 466.8,280.0 473.4,286.0 480.0,286.0 486.7,274.0 493.3,274.0 500.0,274.0 506.6,274.0 513.2,274.0 519.9,274.0 526.5,274.0 533.1,274.0 539.8,280.0 546.4,274.0 553.1,280.0 559.7,286.0 566.3,286.0 573.0,286.0 579.6,286.0 586.2,280.0 592.9,286.0 599.5,286.0 606.1,286.0 612.8,286.0 619.4,286.0 626.1,286.0 632.7,286.0 639.3,286.0 646.0,286.0 652.6,286.0 659.2,286.0 665.9,286.0 672.5,286.0 679.2,286.0 685.8,286.0 692.4,286.0 699.1,286.0 705.7,286.0 712.3,286.0 719.0,286.0 725.6,286.0 732.3,286.0 738.9,286.0 745.5,286.0 752.2,286.0 758.8,286.0 765.4,286.0 772.1,286.0 778.7,286.0 785.3,286.0 792.0,286.0 798.6,286.0 805.3,286.0 811.9,286.0 818.5,286.0 825.2,286.0 831.8,286.0 838.4,286.0 845.1,286.0 851.7,286.0 858.4,286.0 865.0,286.0 871.6,286.0 878.3,286.0 884.9,286.0 891.5,286.0 898.2,286.0 904.8,286.0 911.5,286.0 918.1,286.0 924.7,286.0 931.4,286.0 938.0,286.0"/><polyline fill="none" stroke="#ef4444" stroke-width="2.5" stroke-linejoin="round" stroke-linecap="round" points="42.0,280.0 48.6,280.0 55.3,268.0 61.9,262.0 68.5,286.0 75.2,286.0 81.8,286.0 88.5,286.0 95.1,280.0 101.7,286.0 108.4,286.0 115.0,286.0 121.6,286.0 128.3,286.0 134.9,286.0 141.6,286.0 148.2,286.0 154.8,286.0 161.5,286.0 168.1,286.0 174.7,286.0 181.4,286.0 188.0,286.0 194.7,286.0 201.3,286.0 207.9,286.0 214.6,286.0 221.2,286.0 227.8,286.0 234.5,286.0 241.1,286.0 247.7,286.0 254.4,274.0 261.0,256.0 267.7,286.0 274.3,286.0 280.9,286.0 287.6,286.0 294.2,286.0 300.8,286.0 307.5,286.0 314.1,286.0 320.8,286.0 327.4,286.0 334.0,286.0 340.7,286.0 347.3,286.0 353.9,286.0 360.6,280.0 367.2,286.0 373.9,286.0 380.5,286.0 387.1,286.0 393.8,286.0 400.4,286.0 407.0,286.0 413.7,286.0 420.3,286.0 426.9,286.0 433.6,286.0 440.2,286.0 446.9,286.0 453.5,280.0 460.1,286.0 466.8,286.0 473.4,286.0 480.0,286.0 486.7,286.0 493.3,286.0 500.0,286.0 506.6,286.0 513.2,286.0 519.9,286.0 526.5,286.0 533.1,286.0 539.8,274.0 546.4,274.0 553.1,274.0 559.7,274.0 566.3,274.0 573.0,274.0 579.6,274.0 586.2,274.0 592.9,274.0 599.5,274.0 606.1,274.0 612.8,274.0 619.4,274.0 626.1,274.0 632.7,274.0 639.3,274.0 646.0,274.0 652.6,274.0 659.2,274.0 665.9,274.0 672.5,274.0 679.2,274.0 685.8,274.0 692.4,274.0 699.1,274.0 705.7,274.0 712.3,274.0 719.0,274.0 725.6,274.0 732.3,274.0 738.9,274.0 745.5,274.0 752.2,274.0 758.8,274.0 765.4,274.0 772.1,274.0 778.7,274.0 785.3,274.0 792.0,274.0 798.6,274.0 805.3,274.0 811.9,274.0 818.5,274.0 825.2,274.0 831.8,274.0 838.4,274.0 845.1,274.0 851.7,274.0 858.4,274.0 865.0,274.0 871.6,274.0 878.3,274.0 884.9,274.0 891.5,274.0 898.2,274.0 904.8,274.0 911.5,274.0 918.1,274.0 924.7,274.0 931.4,274.0 938.0,274.0"/><polyline fill="none" stroke="#a855f7" stroke-width="2.5" stroke-linejoin="round" stroke-linecap="round" points="42.0,286.0 48.6,286.0 55.3,286.0 61.9,286.0 68.5,286.0 75.2,286.0 81.8,286.0 88.5,286.0 95.1,286.0 101.7,286.0 108.4,286.0 115.0,286.0 121.6,286.0 128.3,286.0 134.9,286.0 141.6,286.0 148.2,286.0 154.8,286.0 161.5,286.0 168.1,286.0 174.7,286.0 181.4,286.0 188.0,286.0 194.7,286.0 201.3,286.0 207.9,286.0 214.6,286.0 221.2,286.0 227.8,286.0 234.5,286.0 241.1,286.0 247.7,286.0 254.4,286.0 261.0,286.0 267.7,286.0 274.3,286.0 280.9,286.0 287.6,286.0 294.2,286.0 300.8,286.0 307.5,286.0 314.1,286.0 320.8,286.0 327.4,286.0 334.0,286.0 340.7,286.0 347.3,286.0 353.9,286.0 360.6,286.0 367.2,286.0 373.9,286.0 380.5,286.0 387.1,286.0 393.8,286.0 400.4,286.0 407.0,286.0 413.7,286.0 420.3,286.0 426.9,286.0 433.6,286.0 440.2,286.0 446.9,286.0 453.5,286.0 460.1,286.0 466.8,286.0 473.4,286.0 480.0,286.0 486.7,286.0 493.3,286.0 500.0,286.0 506.6,280.0 513.2,286.0 519.9,286.0 526.5,286.0 533.1,286.0 539.8,286.0 546.4,286.0 553.1,286.0 559.7,286.0 566.3,286.0 573.0,286.0 579.6,286.0 586.2,286.0 592.9,286.0 599.5,286.0 606.1,286.0 612.8,286.0 619.4,286.0 626.1,286.0 632.7,286.0 639.3,286.0 646.0,286.0 652.6,286.0 659.2,286.0 665.9,286.0 672.5,286.0 679.2,286.0 685.8,286.0 692.4,286.0 699.1,286.0 705.7,286.0 712.3,286.0 719.0,286.0 725.6,286.0 732.3,286.0 738.9,286.0 745.5,286.0 752.2,286.0 758.8,286.0 765.4,286.0 772.1,286.0 778.7,286.0 785.3,286.0 792.0,286.0 798.6,286.0 805.3,286.0 811.9,286.0 818.5,286.0 825.2,286.0 831.8,286.0 838.4,286.0 845.1,286.0 851.7,286.0 858.4,286.0 865.0,286.0 871.6,286.0 878.3,286.0 884.9,286.0 891.5,286.0 898.2,286.0 904.8,286.0 911.5,286.0 918.1,286.0 924.7,286.0 931.4,286.0 938.0,286.0"/><text x="42" y="308" font-size="11" fill="#9fb0d4">19/06 12:43</text><text x="938" y="308" text-anchor="end" font-size="11" fill="#9fb0d4">28/06 15:54</text></svg>