<svg xmlns="http://www.w3.org/2000/svg" viewBox="0 0 960 320" width="960" height="320" font-family="Segoe UI, system-ui, -apple-system, Roboto, Helvetica, Arial, sans-serif" role="img" aria-label="Availability history per region"><rect x="0.5" y="0.5" width="959" height="319" rx="14" fill="#ffffff" stroke="#dce3f1"/><text x="42" y="26" font-size="14" font-weight="600" fill="#14203a">History · 37 points</text><circle cx="47" cy="40" r="5" fill="#22c55e"/><text x="57" y="44" font-size="12" fill="#5a688a">Available</text><circle cx="139.8" cy="40" r="5" fill="#f59e0b"/><text x="149.8" y="44" font-size="12" fill="#5a688a">Saturated</text><circle cx="232.60000000000002" cy="40" r="5" fill="#ef4444"/><text x="242.60000000000002" y="44" font-size="12" fill="#5a688a">Error</text><line x1="42" y1="286.0" x2="938" y2="286.0" stroke="#eef2f7" stroke-width="1"/><text x="35" y="289.0" text-anchor="end" font-size="11" fill="#5a688a">0</text><line x1="42" y1="227.5" x2="938" y2="227.5" stroke="#eef2f7" stroke-width="1"/><text x="35" y="230.5" text-anchor="end" font-size="11" fill="#5a688a">10</text><line x1="42" y1="169.0" x2="938" y2="169.0" stroke="#eef2f7" stroke-width="1"/><text x="35" y="172.0" text-anchor="end" font-size="11" fill="#5a688a">20</text><line x1="42" y1="110.5" x2="938" y2="110.5" stroke="#eef2f7" stroke-width="1"/><text x="35" y="113.5" text-anchor="end" font-size="11" fill="#5a688a">29</text><line x1="42" y1="52.0" x2="938" y2="52.0" stroke="#eef2f7" stroke-width="1"/><text x="35" y="55.0" text-anchor="end" font-size="11" fill="#5a688a">39</text><polyline fill="none" stroke="#22c55e" stroke-width="2.5" stroke-linejoin="round" stroke-linecap="round" points="42.0,70.0 66.9,70.0 91.8,88.0 116.7,88.0 141.6,76.0 166.4,76.0 191.3,76.0 216.2,70.0 241.1,76.0 266.0,70.0 290.9,64.0 315.8,58.0 340.7,58.0 365.6,58.0 390.4,58.0 415.3,58.0 440.2,58.0 465.1,58.0 490.0,58.0 514.9,58.0 539.8,58.0 564.7,58.0 589.6,58.0 614.4,58.0 639.3,58.0 664.2,58.0 689.1,58.0 714.0,58.0 738.9,58.0 763.8,58.0 788.7,58.0 813.6,70.0 838.4,76.0 863.3,94.0 888.2,64.0 913.1,64.0 938.0,58.0"/><circle cx="42.0" cy="70.0" r="2.5" fill="#22c55e"/><circle cx="66.9" cy="70.0" r="2.5" fill="#22c55e"/><circle cx="91.8" cy="88.0" r="2.5" fill="#22c55e"/><circle cx="116.7" cy="88.0" r="2.5" fill="#22c55e"/><circle cx="141.6" cy="76.0" r="2.5" fill="#22c55e"/><circle cx="166.4" cy="76.0" r="2.5" fill="#22c55e"/><circle cx="191.3" cy="76.0" r="2.5" fill="#22c55e"/><circle cx="216.2" cy="70.0" r="2.5" fill="#22c55e"/><circle cx="241.1" cy="76.0" r="2.5" fill="#22c55e"/><circle cx="266.0" cy="70.0" r="2.5" fill="#22c55e"/><circle cx="290.9" cy="64.0" r="2.5" fill="#22c55e"/><circle cx="315.8" cy="58.0" r="2.5" fill="#22c55e"/><circle cx="340.7" cy="58.0" r="2.5" fill="#22c55e"/><circle cx="365.6" cy="58.0" r="2.5" fill="#22c55e"/><circle cx="390.4" cy="58.0" r="2.5" fill="#22c55e"/><circle cx="415.3" cy="58.0" r="2.5" fill="#22c55e"/><circle cx="440.2" cy="58.0" r="2.5" fill="#22c55e"/><circle cx="465.1" cy="58.0" r="2.5" fill="#22c55e"/><circle cx="490.0" cy="58.0" r="2.5" fill="#22c55e"/><circle cx="514.9" cy="58.0" r="2.5" fill="#22c55e"/><circle cx="539.8" cy="58.0" r="2.5" fill="#22c55e"/><circle cx="564.7" cy="58.0" r="2.5" fill="#22c55e"/><circle cx="589.6" cy="58.0" r="2.5" fill="#22c55e"/><circle cx="614.4" cy="58.0" r="2.5" fill="#22c55e"/><circle cx="639.3" cy="58.0" r="2.5" fill="#22c55e"/><circle cx="664.2" cy="58.0" r="2.5" fill="#22c55e"/><circle cx="689.1" cy="58.0" r="2.5" fill="#22c55e"/><circle cx="714.0" cy="58.0" r="2.5" fill="#22c55e"/><circle cx="738.9" cy="58.0" r="2.5" fill="#22c55e"/><circle cx="763.8" cy="58.0" r="2.5" fill="#22c55e"/><circle cx="788.7" cy="58.0" r="2.5" fill="#22c55e"/><circle cx="813.6" cy="70.0" r="2.5" fill="#22c55e"/><circle cx="838.4" cy="76.0" r="2.5" fill="#22c55e"/><circle cx="863.3" cy="94.0" r="2.5" fill="#22c55e"/><circle cx="888.2" cy="64.0" r="2.5" fill="#22c55e"/><circle cx="913.1" cy="64.0" r="2.5" fill="#22c55e"/><circle cx="938.0" cy="58.0" r="2.5" fill="#22c55e"/><polyline fill="none" stroke="#f59e0b" stroke-width="2.5" stroke-linejoin="round" stroke-linecap="round" points="42.0,274.0 66.9,274.0 91.8,274.0 116.7,280.0 141.6,268.0 166.4,268.0 191.3,268.0 216.2,274.0 241.1,274.0 266.0,274.0 290.9,280.0 315.8,286.0 340.7,286.0 365.6,286.0 390.4,286.0 415.3,286.0 440.2,286.0 465.1,286.0 490.0,286.0 514.9,286.0 539.8,286.0 564.7,286.0 589.6,286.0 614.4,286.0 639.3,286.0 664.2,286.0 689.1,286.0 714.0,286.0 738.9,286.0 763.8,286.0 788.7,286.0 813.6,274.0 838.4,280.0 863.3,280.0 888.2,280.0 913.1,280.0 938.0,286.0"/><circle cx="42.0" cy="274.0" r="2.5" fill="#f59e0b"/><circle cx="66.9" cy="274.0" r="2.5" fill="#f59e0b"/><circle cx="91.8" cy="274.0" r="2.5" fill="#f59e0b"/><circle cx="116.7" cy="280.0" r="2.5" fill="#f59e0b"/><circle cx="141.6" cy="268.0" r="2.5" fill="#f59e0b"/><circle cx="166.4" cy="268.0" r="2.5" fill="#f59e0b"/><circle cx="191.3" cy="268.0" r="2.5" fill="#f59e0b"/><circle cx="216.2" cy="274.0" r="2.5" fill="#f59e0b"/><circle cx="241.1" cy="274.0" r="2.5" fill="#f59e0b"/><circle cx="266.0" cy="274.0" r="2.5" fill="#f59e0b"/><circle cx="290.9" cy="280.0" r="2.5" fill="#f59e0b"/><circle cx="315.8" cy="286.0" r="2.5" fill="#f59e0b"/><circle cx="340.7" cy="286.0" r="2.5" fill="#f59e0b"/><circle cx="365.6" cy="286.0" r="2.5" fill="#f59e0b"/><circle cx="390.4" cy="286.0" r="2.5" fill="#f59e0b"/><circle cx="415.3" cy="286.0" r="2.5" fill="#f59e0b"/><circle cx="440.2" cy="286.0" r="2.5" fill="#f59e0b"/><circle cx="465.1" cy="286.0" r="2.5" fill="#f59e0b"/><circle cx="490.0" cy="286.0" r="2.5" fill="#f59e0b"/><circle cx="514.9" cy="286.0" r="2.5" fill="#f59e0b"/><circle cx="539.8" cy="286.0" r="2.5" fill="#f59e0b"/><circle cx="564.7" cy="286.0" r="2.5" fill="#f59e0b"/><circle cx="589.6" cy="286.0" r="2.5" fill="#f59e0b"/><circle cx="614.4" cy="286.0" r="2.5" fill="#f59e0b"/><circle cx="639.3" cy="286.0" r="2.5" fill="#f59e0b"/><circle cx="664.2" cy="286.0" r="2.5" fill="#f59e0b"/><circle cx="689.1" cy="286.0" r="2.5" fill="#f59e0b"/><circle cx="714.0" cy="286.0" r="2.5" fill="#f59e0b"/><circle cx="738.9" cy="286.0" r="2.5" fill="#f59e0b"/><circle cx="763.8" cy="286.0" r="2.5" fill="#f59e0b"/><circle cx="788.7" cy="286.0" r="2.5" fill="#f59e0b"/><circle cx="813.6" cy="274.0" r="2.5" fill="#f59e0b"/><circle cx="838.4" cy="280.0" r="2.5" fill="#f59e0b"/><circle cx="863.3" cy="280.0" r="2.5" fill="#f59e0b"/><circle cx="888.2" cy="280.0" r="2.5" fill="#f59e0b"/><circle cx="913.1" cy="280.0" r="2.5" fill="#f59e0b"/><circle cx="938.0" cy="286.0" r="2.5" fill="#f59e0b"/><polyline fill="none" stroke="#ef4444" stroke-width="2.5" stroke-linejoin="round" stroke-linecap="round" points="42.0,280.0 66.9,280.0 91.8,268.0 116.7,262.0 141.6,286.0 166.4,286.0 191.3,286.0 216.2,286.0 241.1,280.0 266.0,286.0 290.9,286.0 315.8,286.0 340.7,286.0 365.6,286.0 390.4,286.0 415.3,286.0 440.2,286.0 465.1,286.0 490.0,286.0 514.9,286.0 539.8,286.0 564.7,286.0 589.6,286.0 614.4,286.0 639.3,286.0 664.2,286.0 689.1,286.0 714.0,286.0 738.9,286.0 763.8,286.0 788.7,286.0 813.6,286.0 838.4,274.0 863.3,256.0 888.2,286.0 913.1,286.0 938.0,286.0"/><circle cx="42.0" cy="280.0" r="2.5" fill="#ef4444"/><circle cx="66.9" cy="280.0" r="2.5" fill="#ef4444"/><circle cx="91.8" cy="268.0" r="2.5" fill="#ef4444"/><circle cx="116.7" cy="262.0" r="2.5" fill="#ef4444"/><circle cx="141.6" cy="286.0" r="2.5" fill="#ef4444"/><circle cx="166.4" cy="286.0" r="2.5" fill="#ef4444"/><circle cx="191.3" cy="286.0" r="2.5" fill="#ef4444"/><circle cx="216.2" cy="286.0" r="2.5" fill="#ef4444"/><circle cx="241.1" cy="280.0" r="2.5" fill="#ef4444"/><circle cx="266.0" cy="286.0" r="2.5" fill="#ef4444"/><circle cx="290.9" cy="286.0" r="2.5" fill="#ef4444"/><circle cx="315.8" cy="286.0" r="2.5" fill="#ef4444"/><circle cx="340.7" cy="286.0" r="2.5" fill="#ef4444"/><circle cx="365.6" cy="286.0" r="2.5" fill="#ef4444"/><circle cx="390.4" cy="286.0" r="2.5" fill="#ef4444"/><circle cx="415.3" cy="286.0" r="2.5" fill="#ef4444"/><circle cx="440.2" cy="286.0" r="2.5" fill="#ef4444"/><circle cx="465.1" cy="286.0" r="2.5" fill="#ef4444"/><circle cx="490.0" cy="286.0" r="2.5" fill="#ef4444"/><circle cx="514.9" cy="286.0" r="2.5" fill="#ef4444"/><circle cx="539.8" cy="286.0" r="2.5" fill="#ef4444"/><circle cx="564.7" cy="286.0" r="2.5" fill="#ef4444"/><circle cx="589.6" cy="286.0" r="2.5" fill="#ef4444"/><circle cx="614.4" cy="286.0" r="2.5" fill="#ef4444"/><circle cx="639.3" cy="286.0" r="2.5" fill="#ef4444"/><circle cx="664.2" cy="286.0" r="2.5" fill="#ef4444"/><circle cx="689.1" cy="286.0" r="2.5" fill="#ef4444"/><circle cx="714.0" cy="286.0" r="2.5" fill="#ef4444"/><circle cx="738.9" cy="286.0" r="2.5" fill="#ef4444"/><circle cx="763.8" cy="286.0" r="2.5" fill="#ef4444"/><circle cx="788.7" cy="286.0" r="2.5" fill="#ef4444"/><circle cx="813.6" cy="286.0" r="2.5" fill="#ef4444"/><circle cx="838.4" cy="274.0" r="2.5" fill="#ef4444"/><circle cx="863.3" cy="256.0" r="2.5" fill="#ef4444"/><circle cx="888.2" cy="286.0" r="2.5" fill="#ef4444"/><circle cx="913.1" cy="286.0" r="2.5" fill="#ef4444"/><circle cx="938.0" cy="286.0" r="2.5" fill="#ef4444"/><text x="42" y="308" font-size="11" fill="#5a688a">19/06 12:43</text><text x="938" y="308" text-anchor="end" font-size="11" fill="#5a688a">22/06 22:35</text></svg>