<svg xmlns="http://www.w3.org/2000/svg" viewBox="0 0 960 320" width="960" height="320" font-family="Segoe UI, system-ui, -apple-system, Roboto, Helvetica, Arial, sans-serif" role="img" aria-label="Availability history per region"><rect x="0.5" y="0.5" width="959" height="319" rx="14" fill="#ffffff" stroke="#dce3f1"/><text x="42" y="26" font-size="14" font-weight="600" fill="#14203a">History · 336 points</text><circle cx="47" cy="40" r="5" fill="#22c55e"/><text x="57" y="44" font-size="12" fill="#5a688a">Available</text><circle cx="139.8" cy="40" r="5" fill="#f59e0b"/><text x="149.8" y="44" font-size="12" fill="#5a688a">Saturated</text><circle cx="232.60000000000002" cy="40" r="5" fill="#ef4444"/><text x="242.60000000000002" y="44" font-size="12" fill="#5a688a">Error</text><circle cx="296.6" cy="40" r="5" fill="#a855f7"/><text x="306.6" y="44" font-size="12" fill="#5a688a">Timeout</text><line x1="42" y1="286.0" x2="938" y2="286.0" stroke="#eef2f7" stroke-width="1"/><text x="35" y="289.0" text-anchor="end" font-size="11" fill="#5a688a">0</text><line x1="42" y1="227.5" x2="938" y2="227.5" stroke="#eef2f7" stroke-width="1"/><text x="35" y="230.5" text-anchor="end" font-size="11" fill="#5a688a">10</text><line x1="42" y1="169.0" x2="938" y2="169.0" stroke="#eef2f7" stroke-width="1"/><text x="35" y="172.0" text-anchor="end" font-size="11" fill="#5a688a">19</text><line x1="42" y1="110.5" x2="938" y2="110.5" stroke="#eef2f7" stroke-width="1"/><text x="35" y="113.5" text-anchor="end" font-size="11" fill="#5a688a">28</text><line x1="42" y1="52.0" x2="938" y2="52.0" stroke="#eef2f7" stroke-width="1"/><text x="35" y="55.0" text-anchor="end" font-size="11" fill="#5a688a">38</text><polyline fill="none" stroke="#22c55e" stroke-width="2.5" stroke-linejoin="round" stroke-linecap="round" points="42.0,64.3 44.7,64.3 47.3,64.3 50.0,64.3 52.7,64.3 55.4,64.3 58.0,64.3 60.7,64.3 63.4,64.3 66.1,64.3 68.7,64.3 71.4,64.3 74.1,64.3 76.8,64.3 79.4,64.3 82.1,64.3 84.8,64.3 87.5,64.3 90.1,64.3 92.8,64.3 95.5,64.3 98.2,64.3 100.8,64.3 103.5,64.3 106.2,64.3 108.9,64.3 111.5,64.3 114.2,64.3 116.9,64.3 119.6,64.3 122.2,64.3 124.9,64.3 127.6,64.3 130.3,64.3 132.9,64.3 135.6,64.3 138.3,64.3 141.0,64.3 143.6,64.3 146.3,64.3 149.0,64.3 151.7,64.3 154.3,64.3 157.0,64.3 159.7,64.3 162.4,70.5 165.0,64.3 167.7,64.3 170.4,64.3 173.1,64.3 175.7,64.3 178.4,70.5 181.1,70.5 183.8,82.8 186.4,82.8 189.1,82.8 191.8,88.9 194.5,88.9 197.1,88.9 199.8,88.9 202.5,82.8 205.2,82.8 207.8,76.6 210.5,76.6 213.2,76.6 215.9,82.8 218.5,82.8 221.2,88.9 223.9,76.6 226.5,76.6 229.2,76.6 231.9,76.6 234.6,82.8 237.2,82.8 239.9,88.9 242.6,88.9 245.3,82.8 247.9,82.8 250.6,82.8 253.3,88.9 256.0,88.9 258.6,101.3 261.3,88.9 264.0,88.9 266.7,88.9 269.3,88.9 272.0,82.8 274.7,82.8 277.4,76.6 280.0,70.5 282.7,70.5 285.4,70.5 288.1,70.5 290.7,70.5 293.4,70.5 296.1,64.3 298.8,64.3 301.4,64.3 304.1,70.5 306.8,82.8 309.5,76.6 312.1,64.3 314.8,64.3 317.5,64.3 320.2,70.5 322.8,70.5 325.5,70.5 328.2,76.6 330.9,64.3 333.5,70.5 336.2,58.2 338.9,64.3 341.6,52.0 344.2,52.0 346.9,52.0 349.6,52.0 352.3,52.0 354.9,58.2 357.6,52.0 360.3,58.2 363.0,52.0 365.6,52.0 368.3,52.0 371.0,52.0 373.7,58.2 376.3,58.2 379.0,58.2 381.7,70.5 384.4,64.3 387.0,76.6 389.7,64.3 392.4,70.5 395.1,52.0 397.7,58.2 400.4,52.0 403.1,58.2 405.7,52.0 408.4,52.0 411.1,52.0 413.8,58.2 416.4,64.3 419.1,58.2 421.8,58.2 424.5,58.2 427.1,64.3 429.8,64.3 432.5,58.2 435.2,64.3 437.8,64.3 440.5,64.3 443.2,52.0 445.9,52.0 448.5,52.0 451.2,52.0 453.9,52.0 456.6,58.2 459.2,52.0 461.9,52.0 464.6,52.0 467.3,52.0 469.9,52.0 472.6,52.0 475.3,52.0 478.0,52.0 480.6,58.2 483.3,52.0 486.0,52.0 488.7,52.0 491.3,52.0 494.0,52.0 496.7,52.0 499.4,52.0 502.0,58.2 504.7,52.0 507.4,52.0 510.1,52.0 512.7,52.0 515.4,52.0 518.1,52.0 520.8,52.0 523.4,52.0 526.1,52.0 528.8,52.0 531.5,52.0 534.1,52.0 536.8,52.0 539.5,52.0 542.2,52.0 544.8,52.0 547.5,52.0 550.2,52.0 552.9,52.0 555.5,58.2 558.2,58.2 560.9,52.0 563.6,52.0 566.2,52.0 568.9,58.2 571.6,58.2 574.3,70.5 576.9,58.2 579.6,58.2 582.3,64.3 584.9,52.0 587.6,52.0 590.3,52.0 593.0,52.0 595.6,52.0 598.3,52.0 601.0,64.3 603.7,58.2 606.3,58.2 609.0,58.2 611.7,58.2 614.4,64.3 617.0,64.3 619.7,70.5 622.4,70.5 625.1,76.6 627.7,82.8 630.4,76.6 633.1,76.6 635.8,82.8 638.4,76.6 641.1,70.5 643.8,70.5 646.5,64.3 649.1,58.2 651.8,58.2 654.5,70.5 657.2,70.5 659.8,64.3 662.5,70.5 665.2,64.3 667.9,64.3 670.5,64.3 673.2,76.6 675.9,64.3 678.6,70.5 681.2,64.3 683.9,70.5 686.6,64.3 689.3,70.5 691.9,64.3 694.6,64.3 697.3,76.6 700.0,70.5 702.6,70.5 705.3,70.5 708.0,70.5 710.7,70.5 713.3,64.3 716.0,70.5 718.7,64.3 721.4,64.3 724.0,64.3 726.7,70.5 729.4,70.5 732.1,70.5 734.7,64.3 737.4,64.3 740.1,64.3 742.8,64.3 745.4,70.5 748.1,70.5 750.8,70.5 753.5,76.6 756.1,70.5 758.8,76.6 761.5,76.6 764.1,76.6 766.8,82.8 769.5,76.6 772.2,76.6 774.8,76.6 777.5,70.5 780.2,70.5 782.9,70.5 785.5,70.5 788.2,70.5 790.9,64.3 793.6,64.3 796.2,64.3 798.9,70.5 801.6,76.6 804.3,64.3 806.9,64.3 809.6,64.3 812.3,70.5 815.0,70.5 817.6,70.5 820.3,76.6 823.0,76.6 825.7,76.6 828.3,82.8 831.0,88.9 833.7,82.8 836.4,82.8 839.0,76.6 841.7,70.5 844.4,76.6 847.1,82.8 849.7,76.6 852.4,70.5 855.1,70.5 857.8,64.3 860.4,64.3 863.1,64.3 865.8,64.3 868.5,64.3 871.1,64.3 873.8,64.3 876.5,64.3 879.2,64.3 881.8,64.3 884.5,64.3 887.2,64.3 889.9,64.3 892.5,58.2 895.2,70.5 897.9,64.3 900.6,58.2 903.2,64.3 905.9,64.3 908.6,64.3 911.3,64.3 913.9,64.3 916.6,58.2 919.3,58.2 922.0,58.2 924.6,58.2 927.3,58.2 930.0,64.3 932.7,58.2 935.3,58.2 938.0,58.2"/><polyline fill="none" stroke="#f59e0b" stroke-width="2.5" stroke-linejoin="round" stroke-linecap="round" points="42.0,286.0 44.7,286.0 47.3,286.0 50.0,286.0 52.7,286.0 55.4,286.0 58.0,286.0 60.7,286.0 63.4,286.0 66.1,286.0 68.7,286.0 71.4,286.0 74.1,286.0 76.8,286.0 79.4,286.0 82.1,286.0 84.8,286.0 87.5,286.0 90.1,286.0 92.8,286.0 95.5,286.0 98.2,286.0 100.8,286.0 103.5,286.0 106.2,286.0 108.9,286.0 111.5,286.0 114.2,286.0 116.9,286.0 119.6,286.0 122.2,286.0 124.9,286.0 127.6,286.0 130.3,286.0 132.9,286.0 135.6,286.0 138.3,286.0 141.0,286.0 143.6,286.0 146.3,286.0 149.0,286.0 151.7,286.0 154.3,286.0 157.0,286.0 159.7,286.0 162.4,286.0 165.0,286.0 167.7,286.0 170.4,286.0 173.1,286.0 175.7,286.0 178.4,286.0 181.1,279.8 183.8,267.5 186.4,267.5 189.1,267.5 191.8,267.5 194.5,261.4 197.1,261.4 199.8,261.4 202.5,267.5 205.2,267.5 207.8,273.7 210.5,273.7 213.2,273.7 215.9,267.5 218.5,267.5 221.2,267.5 223.9,273.7 226.5,273.7 229.2,273.7 231.9,273.7 234.6,267.5 237.2,267.5 239.9,261.4 242.6,261.4 245.3,267.5 247.9,267.5 250.6,267.5 253.3,261.4 256.0,261.4 258.6,273.7 261.3,261.4 264.0,261.4 266.7,261.4 269.3,261.4 272.0,267.5 274.7,267.5 277.4,273.7 280.0,279.8 282.7,279.8 285.4,279.8 288.1,279.8 290.7,279.8 293.4,279.8 296.1,286.0 298.8,286.0 301.4,286.0 304.1,279.8 306.8,273.7 309.5,273.7 312.1,279.8 314.8,273.7 317.5,273.7 320.2,267.5 322.8,267.5 325.5,267.5 328.2,267.5 330.9,279.8 333.5,273.7 336.2,279.8 338.9,279.8 341.6,286.0 344.2,286.0 346.9,286.0 349.6,286.0 352.3,286.0 354.9,286.0 357.6,286.0 360.3,286.0 363.0,286.0 365.6,286.0 368.3,286.0 371.0,286.0 373.7,279.8 376.3,279.8 379.0,279.8 381.7,267.5 384.4,279.8 387.0,267.5 389.7,273.7 392.4,273.7 395.1,286.0 397.7,279.8 400.4,286.0 403.1,279.8 405.7,286.0 408.4,286.0 411.1,286.0 413.8,279.8 416.4,273.7 419.1,279.8 421.8,279.8 424.5,279.8 427.1,273.7 429.8,273.7 432.5,279.8 435.2,279.8 437.8,279.8 440.5,279.8 443.2,286.0 445.9,286.0 448.5,286.0 451.2,286.0 453.9,286.0 456.6,286.0 459.2,286.0 461.9,286.0 464.6,286.0 467.3,286.0 469.9,286.0 472.6,286.0 475.3,286.0 478.0,286.0 480.6,286.0 483.3,286.0 486.0,286.0 488.7,286.0 491.3,286.0 494.0,286.0 496.7,286.0 499.4,286.0 502.0,286.0 504.7,286.0 507.4,286.0 510.1,286.0 512.7,286.0 515.4,286.0 518.1,286.0 520.8,286.0 523.4,286.0 526.1,286.0 528.8,286.0 531.5,286.0 534.1,286.0 536.8,286.0 539.5,286.0 542.2,286.0 544.8,286.0 547.5,286.0 550.2,286.0 552.9,286.0 555.5,286.0 558.2,286.0 560.9,286.0 563.6,286.0 566.2,286.0 568.9,279.8 571.6,279.8 574.3,279.8 576.9,279.8 579.6,279.8 582.3,273.7 584.9,286.0 587.6,286.0 590.3,286.0 593.0,286.0 595.6,286.0 598.3,286.0 601.0,286.0 603.7,279.8 606.3,279.8 609.0,279.8 611.7,279.8 614.4,273.7 617.0,273.7 619.7,267.5 622.4,267.5 625.1,261.4 627.7,261.4 630.4,261.4 633.1,261.4 635.8,261.4 638.4,267.5 641.1,267.5 643.8,267.5 646.5,273.7 649.1,279.8 651.8,279.8 654.5,267.5 657.2,267.5 659.8,273.7 662.5,267.5 665.2,273.7 667.9,273.7 670.5,273.7 673.2,273.7 675.9,273.7 678.6,267.5 681.2,273.7 683.9,267.5 686.6,273.7 689.3,267.5 691.9,273.7 694.6,273.7 697.3,261.4 700.0,267.5 702.6,267.5 705.3,267.5 708.0,267.5 710.7,267.5 713.3,273.7 716.0,267.5 718.7,273.7 721.4,273.7 724.0,273.7 726.7,267.5 729.4,267.5 732.1,267.5 734.7,273.7 737.4,273.7 740.1,273.7 742.8,273.7 745.4,267.5 748.1,267.5 750.8,267.5 753.5,267.5 756.1,267.5 758.8,261.4 761.5,261.4 764.1,261.4 766.8,261.4 769.5,261.4 772.2,261.4 774.8,261.4 777.5,267.5 780.2,267.5 782.9,267.5 785.5,267.5 788.2,267.5 790.9,273.7 793.6,273.7 796.2,273.7 798.9,267.5 801.6,267.5 804.3,273.7 806.9,273.7 809.6,273.7 812.3,267.5 815.0,267.5 817.6,267.5 820.3,261.4 823.0,261.4 825.7,261.4 828.3,255.2 831.0,255.2 833.7,255.2 836.4,261.4 839.0,261.4 841.7,267.5 844.4,261.4 847.1,261.4 849.7,261.4 852.4,267.5 855.1,267.5 857.8,273.7 860.4,273.7 863.1,273.7 865.8,273.7 868.5,273.7 871.1,273.7 873.8,273.7 876.5,273.7 879.2,273.7 881.8,273.7 884.5,273.7 887.2,273.7 889.9,273.7 892.5,279.8 895.2,273.7 897.9,273.7 900.6,279.8 903.2,273.7 905.9,273.7 908.6,273.7 911.3,273.7 913.9,273.7 916.6,279.8 919.3,279.8 922.0,279.8 924.6,279.8 927.3,279.8 930.0,273.7 932.7,279.8 935.3,279.8 938.0,279.8"/><polyline fill="none" stroke="#ef4444" stroke-width="2.5" stroke-linejoin="round" stroke-linecap="round" points="42.0,273.7 44.7,273.7 47.3,273.7 50.0,273.7 52.7,273.7 55.4,273.7 58.0,273.7 60.7,273.7 63.4,273.7 66.1,273.7 68.7,273.7 71.4,273.7 74.1,273.7 76.8,273.7 79.4,273.7 82.1,273.7 84.8,273.7 87.5,273.7 90.1,273.7 92.8,273.7 95.5,273.7 98.2,273.7 100.8,273.7 103.5,273.7 106.2,273.7 108.9,273.7 111.5,273.7 114.2,273.7 116.9,273.7 119.6,273.7 122.2,273.7 124.9,273.7 127.6,273.7 130.3,273.7 132.9,273.7 135.6,273.7 138.3,273.7 141.0,273.7 143.6,273.7 146.3,273.7 149.0,273.7 151.7,273.7 154.3,273.7 157.0,273.7 159.7,273.7 162.4,267.5 165.0,273.7 167.7,273.7 170.4,273.7 173.1,273.7 175.7,273.7 178.4,273.7 181.1,273.7 183.8,273.7 186.4,273.7 189.1,273.7 191.8,267.5 194.5,273.7 197.1,273.7 199.8,273.7 202.5,273.7 205.2,273.7 207.8,273.7 210.5,273.7 213.2,273.7 215.9,273.7 218.5,273.7 221.2,267.5 223.9,273.7 226.5,273.7 229.2,273.7 231.9,273.7 234.6,273.7 237.2,273.7 239.9,273.7 242.6,273.7 245.3,273.7 247.9,273.7 250.6,273.7 253.3,273.7 256.0,273.7 258.6,249.1 261.3,273.7 264.0,273.7 266.7,273.7 269.3,273.7 272.0,273.7 274.7,273.7 277.4,273.7 280.0,273.7 282.7,273.7 285.4,273.7 288.1,273.7 290.7,273.7 293.4,273.7 296.1,273.7 298.8,273.7 301.4,273.7 304.1,273.7 306.8,267.5 309.5,273.7 312.1,279.8 314.8,286.0 317.5,286.0 320.2,286.0 322.8,286.0 325.5,286.0 328.2,279.8 330.9,279.8 333.5,286.0 336.2,286.0 338.9,279.8 341.6,286.0 344.2,286.0 346.9,286.0 349.6,286.0 352.3,286.0 354.9,279.8 357.6,286.0 360.3,286.0 363.0,286.0 365.6,286.0 368.3,286.0 371.0,286.0 373.7,286.0 376.3,286.0 379.0,286.0 381.7,286.0 384.4,279.8 387.0,279.8 389.7,286.0 392.4,279.8 395.1,286.0 397.7,286.0 400.4,286.0 403.1,286.0 405.7,286.0 408.4,286.0 411.1,286.0 413.8,286.0 416.4,286.0 419.1,286.0 421.8,286.0 424.5,286.0 427.1,286.0 429.8,286.0 432.5,286.0 435.2,279.8 437.8,286.0 440.5,279.8 443.2,286.0 445.9,286.0 448.5,286.0 451.2,286.0 453.9,286.0 456.6,286.0 459.2,286.0 461.9,286.0 464.6,286.0 467.3,286.0 469.9,286.0 472.6,286.0 475.3,286.0 478.0,286.0 480.6,279.8 483.3,286.0 486.0,286.0 488.7,286.0 491.3,286.0 494.0,286.0 496.7,286.0 499.4,286.0 502.0,286.0 504.7,286.0 507.4,286.0 510.1,286.0 512.7,286.0 515.4,286.0 518.1,286.0 520.8,286.0 523.4,286.0 526.1,286.0 528.8,286.0 531.5,286.0 534.1,286.0 536.8,286.0 539.5,286.0 542.2,286.0 544.8,286.0 547.5,286.0 550.2,286.0 552.9,286.0 555.5,279.8 558.2,279.8 560.9,286.0 563.6,286.0 566.2,286.0 568.9,286.0 571.6,286.0 574.3,273.7 576.9,286.0 579.6,286.0 582.3,286.0 584.9,286.0 587.6,286.0 590.3,286.0 593.0,286.0 595.6,286.0 598.3,286.0 601.0,286.0 603.7,286.0 606.3,286.0 609.0,286.0 611.7,286.0 614.4,286.0 617.0,286.0 619.7,286.0 622.4,286.0 625.1,286.0 627.7,279.8 630.4,286.0 633.1,286.0 635.8,279.8 638.4,279.8 641.1,286.0 643.8,286.0 646.5,286.0 649.1,286.0 651.8,286.0 654.5,286.0 657.2,286.0 659.8,286.0 662.5,286.0 665.2,286.0 667.9,286.0 670.5,286.0 673.2,273.7 675.9,286.0 678.6,286.0 681.2,286.0 683.9,286.0 686.6,286.0 689.3,286.0 691.9,286.0 694.6,286.0 697.3,286.0 700.0,286.0 702.6,286.0 705.3,286.0 708.0,286.0 710.7,286.0 713.3,286.0 716.0,286.0 718.7,286.0 721.4,286.0 724.0,286.0 726.7,286.0 729.4,286.0 732.1,286.0 734.7,286.0 737.4,286.0 740.1,286.0 742.8,286.0 745.4,286.0 748.1,286.0 750.8,286.0 753.5,279.8 756.1,286.0 758.8,286.0 761.5,286.0 764.1,286.0 766.8,279.8 769.5,286.0 772.2,286.0 774.8,286.0 777.5,286.0 780.2,286.0 782.9,286.0 785.5,286.0 788.2,286.0 790.9,286.0 793.6,286.0 796.2,286.0 798.9,286.0 801.6,279.8 804.3,286.0 806.9,286.0 809.6,286.0 812.3,286.0 815.0,286.0 817.6,286.0 820.3,286.0 823.0,286.0 825.7,286.0 828.3,286.0 831.0,279.8 833.7,286.0 836.4,279.8 839.0,286.0 841.7,286.0 844.4,286.0 847.1,279.8 849.7,286.0 852.4,286.0 855.1,286.0 857.8,286.0 860.4,286.0 863.1,286.0 865.8,286.0 868.5,286.0 871.1,286.0 873.8,286.0 876.5,286.0 879.2,286.0 881.8,286.0 884.5,286.0 887.2,286.0 889.9,286.0 892.5,286.0 895.2,279.8 897.9,286.0 900.6,286.0 903.2,286.0 905.9,286.0 908.6,286.0 911.3,286.0 913.9,286.0 916.6,286.0 919.3,286.0 922.0,286.0 924.6,286.0 927.3,286.0 930.0,286.0 932.7,286.0 935.3,286.0 938.0,286.0"/><polyline fill="none" stroke="#a855f7" stroke-width="2.5" stroke-linejoin="round" stroke-linecap="round" points="42.0,286.0 44.7,286.0 47.3,286.0 50.0,286.0 52.7,286.0 55.4,286.0 58.0,286.0 60.7,286.0 63.4,286.0 66.1,286.0 68.7,286.0 71.4,286.0 74.1,286.0 76.8,286.0 79.4,286.0 82.1,286.0 84.8,286.0 87.5,286.0 90.1,286.0 92.8,286.0 95.5,286.0 98.2,286.0 100.8,286.0 103.5,286.0 106.2,286.0 108.9,286.0 111.5,286.0 114.2,286.0 116.9,286.0 119.6,286.0 122.2,286.0 124.9,286.0 127.6,286.0 130.3,286.0 132.9,286.0 135.6,286.0 138.3,286.0 141.0,286.0 143.6,286.0 146.3,286.0 149.0,286.0 151.7,286.0 154.3,286.0 157.0,286.0 159.7,286.0 162.4,286.0 165.0,286.0 167.7,286.0 170.4,286.0 173.1,286.0 175.7,286.0 178.4,279.8 181.1,286.0 183.8,286.0 186.4,286.0 189.1,286.0 191.8,286.0 194.5,286.0 197.1,286.0 199.8,286.0 202.5,286.0 205.2,286.0 207.8,286.0 210.5,286.0 213.2,286.0 215.9,286.0 218.5,286.0 221.2,286.0 223.9,286.0 226.5,286.0 229.2,286.0 231.9,286.0 234.6,286.0 237.2,286.0 239.9,286.0 242.6,286.0 245.3,286.0 247.9,286.0 250.6,286.0 253.3,286.0 256.0,286.0 258.6,286.0 261.3,286.0 264.0,286.0 266.7,286.0 269.3,286.0 272.0,286.0 274.7,286.0 277.4,286.0 280.0,286.0 282.7,286.0 285.4,286.0 288.1,286.0 290.7,286.0 293.4,286.0 296.1,286.0 298.8,286.0 301.4,286.0 304.1,286.0 306.8,286.0 309.5,286.0 312.1,286.0 314.8,286.0 317.5,286.0 320.2,286.0 322.8,286.0 325.5,286.0 328.2,286.0 330.9,286.0 333.5,279.8 336.2,286.0 338.9,286.0 341.6,286.0 344.2,286.0 346.9,286.0 349.6,286.0 352.3,286.0 354.9,286.0 357.6,286.0 360.3,279.8 363.0,286.0 365.6,286.0 368.3,286.0 371.0,286.0 373.7,286.0 376.3,286.0 379.0,286.0 381.7,286.0 384.4,286.0 387.0,286.0 389.7,286.0 392.4,286.0 395.1,286.0 397.7,286.0 400.4,286.0 403.1,286.0 405.7,286.0 408.4,286.0 411.1,286.0 413.8,286.0 416.4,286.0 419.1,286.0 421.8,286.0 424.5,286.0 427.1,286.0 429.8,286.0 432.5,286.0 435.2,286.0 437.8,279.8 440.5,286.0 443.2,286.0 445.9,286.0 448.5,286.0 451.2,286.0 453.9,286.0 456.6,279.8 459.2,286.0 461.9,286.0 464.6,286.0 467.3,286.0 469.9,286.0 472.6,286.0 475.3,286.0 478.0,286.0 480.6,286.0 483.3,286.0 486.0,286.0 488.7,286.0 491.3,286.0 494.0,286.0 496.7,286.0 499.4,286.0 502.0,279.8 504.7,286.0 507.4,286.0 510.1,286.0 512.7,286.0 515.4,286.0 518.1,286.0 520.8,286.0 523.4,286.0 526.1,286.0 528.8,286.0 531.5,286.0 534.1,286.0 536.8,286.0 539.5,286.0 542.2,286.0 544.8,286.0 547.5,286.0 550.2,286.0 552.9,286.0 555.5,286.0 558.2,286.0 560.9,286.0 563.6,286.0 566.2,286.0 568.9,286.0 571.6,286.0 574.3,286.0 576.9,286.0 579.6,286.0 582.3,286.0 584.9,286.0 587.6,286.0 590.3,286.0 593.0,286.0 595.6,286.0 598.3,286.0 601.0,273.7 603.7,286.0 606.3,286.0 609.0,286.0 611.7,286.0 614.4,286.0 617.0,286.0 619.7,286.0 622.4,286.0 625.1,286.0 627.7,286.0 630.4,286.0 633.1,286.0 635.8,286.0 638.4,286.0 641.1,286.0 643.8,286.0 646.5,286.0 649.1,286.0 651.8,286.0 654.5,286.0 657.2,286.0 659.8,286.0 662.5,286.0 665.2,286.0 667.9,286.0 670.5,286.0 673.2,286.0 675.9,286.0 678.6,286.0 681.2,286.0 683.9,286.0 686.6,286.0 689.3,286.0 691.9,286.0 694.6,286.0 697.3,286.0 700.0,286.0 702.6,286.0 705.3,286.0 708.0,286.0 710.7,286.0 713.3,286.0 716.0,286.0 718.7,286.0 721.4,286.0 724.0,286.0 726.7,286.0 729.4,286.0 732.1,286.0 734.7,286.0 737.4,286.0 740.1,286.0 742.8,286.0 745.4,286.0 748.1,286.0 750.8,286.0 753.5,286.0 756.1,286.0 758.8,286.0 761.5,286.0 764.1,286.0 766.8,286.0 769.5,286.0 772.2,286.0 774.8,286.0 777.5,286.0 780.2,286.0 782.9,286.0 785.5,286.0 788.2,286.0 790.9,286.0 793.6,286.0 796.2,286.0 798.9,286.0 801.6,286.0 804.3,286.0 806.9,286.0 809.6,286.0 812.3,286.0 815.0,286.0 817.6,286.0 820.3,286.0 823.0,286.0 825.7,286.0 828.3,286.0 831.0,286.0 833.7,286.0 836.4,286.0 839.0,286.0 841.7,286.0 844.4,286.0 847.1,286.0 849.7,286.0 852.4,286.0 855.1,286.0 857.8,286.0 860.4,286.0 863.1,286.0 865.8,286.0 868.5,286.0 871.1,286.0 873.8,286.0 876.5,286.0 879.2,286.0 881.8,286.0 884.5,286.0 887.2,286.0 889.9,286.0 892.5,286.0 895.2,286.0 897.9,286.0 900.6,286.0 903.2,286.0 905.9,286.0 908.6,286.0 911.3,286.0 913.9,286.0 916.6,286.0 919.3,286.0 922.0,286.0 924.6,286.0 927.3,286.0 930.0,286.0 932.7,286.0 935.3,286.0 938.0,286.0"/><text x="42" y="308" font-size="11" fill="#5a688a">27/06 18:31</text><text x="938" y="308" text-anchor="end" font-size="11" fill="#5a688a">12/07 07:29</text></svg>