<svg xmlns="http://www.w3.org/2000/svg" viewBox="0 0 960 320" width="960" height="320" font-family="Segoe UI, system-ui, -apple-system, Roboto, Helvetica, Arial, sans-serif" role="img" aria-label="Availability history per region"><rect x="0.5" y="0.5" width="959" height="319" rx="14" fill="#0d1117" stroke="#2c3a5e"/><text x="42" y="26" font-size="14" font-weight="600" fill="#e6ecff">History · 167 points</text><circle cx="47" cy="40" r="5" fill="#22c55e"/><text x="57" y="44" font-size="12" fill="#9fb0d4">Available</text><circle cx="139.8" cy="40" r="5" fill="#f59e0b"/><text x="149.8" y="44" font-size="12" fill="#9fb0d4">Saturated</text><circle cx="232.60000000000002" cy="40" r="5" fill="#ef4444"/><text x="242.60000000000002" y="44" font-size="12" fill="#9fb0d4">Error</text><circle cx="296.6" cy="40" r="5" fill="#a855f7"/><text x="306.6" y="44" font-size="12" fill="#9fb0d4">Timeout</text><line x1="42" y1="286.0" x2="938" y2="286.0" stroke="#21304f" stroke-width="1"/><text x="35" y="289.0" text-anchor="end" font-size="11" fill="#9fb0d4">0</text><line x1="42" y1="227.5" x2="938" y2="227.5" stroke="#21304f" stroke-width="1"/><text x="35" y="230.5" text-anchor="end" font-size="11" fill="#9fb0d4">10</text><line x1="42" y1="169.0" x2="938" y2="169.0" stroke="#21304f" stroke-width="1"/><text x="35" y="172.0" text-anchor="end" font-size="11" fill="#9fb0d4">20</text><line x1="42" y1="110.5" x2="938" y2="110.5" stroke="#21304f" stroke-width="1"/><text x="35" y="113.5" text-anchor="end" font-size="11" fill="#9fb0d4">29</text><line x1="42" y1="52.0" x2="938" y2="52.0" stroke="#21304f" stroke-width="1"/><text x="35" y="55.0" text-anchor="end" font-size="11" fill="#9fb0d4">39</text><polyline fill="none" stroke="#22c55e" stroke-width="2.5" stroke-linejoin="round" stroke-linecap="round" points="42.0,70.0 47.4,70.0 52.8,88.0 58.2,88.0 63.6,76.0 69.0,76.0 74.4,76.0 79.8,70.0 85.2,76.0 90.6,70.0 96.0,64.0 101.4,58.0 106.8,58.0 112.2,58.0 117.6,58.0 123.0,58.0 128.4,58.0 133.8,58.0 139.2,58.0 144.6,58.0 150.0,58.0 155.3,58.0 160.7,58.0 166.1,58.0 171.5,58.0 176.9,58.0 182.3,58.0 187.7,58.0 193.1,58.0 198.5,58.0 203.9,58.0 209.3,70.0 214.7,76.0 220.1,94.0 225.5,64.0 230.9,64.0 236.3,58.0 241.7,58.0 247.1,58.0 252.5,70.0 257.9,76.0 263.3,76.0 268.7,82.0 274.1,82.0 279.5,82.0 284.9,82.0 290.3,76.0 295.7,64.0 301.1,70.0 306.5,70.0 311.9,82.0 317.3,76.0 322.7,76.0 328.1,82.0 333.5,76.0 338.9,76.0 344.3,76.0 349.7,64.0 355.1,64.0 360.5,76.0 365.9,76.0 371.3,76.0 376.7,88.0 382.0,70.0 387.4,64.0 392.8,58.0 398.2,58.0 403.6,70.0 409.0,70.0 414.4,70.0 419.8,76.0 425.2,70.0 430.6,70.0 436.0,70.0 441.4,70.0 446.8,76.0 452.2,82.0 457.6,76.0 463.0,70.0 468.4,70.0 473.8,70.0 479.2,70.0 484.6,76.0 490.0,70.0 495.4,70.0 500.8,70.0 506.2,70.0 511.6,70.0 517.0,70.0 522.4,70.0 527.8,70.0 533.2,70.0 538.6,70.0 544.0,70.0 549.4,70.0 554.8,70.0 560.2,70.0 565.6,70.0 571.0,70.0 576.4,70.0 581.8,70.0 587.2,70.0 592.6,70.0 598.0,70.0 603.3,70.0 608.7,70.0 614.1,70.0 619.5,70.0 624.9,70.0 630.3,70.0 635.7,70.0 641.1,70.0 646.5,70.0 651.9,70.0 657.3,70.0 662.7,70.0 668.1,70.0 673.5,70.0 678.9,70.0 684.3,70.0 689.7,70.0 695.1,70.0 700.5,70.0 705.9,70.0 711.3,70.0 716.7,70.0 722.1,70.0 727.5,70.0 732.9,70.0 738.3,70.0 743.7,70.0 749.1,70.0 754.5,70.0 759.9,70.0 765.3,70.0 770.7,70.0 776.1,70.0 781.5,70.0 786.9,70.0 792.3,70.0 797.7,70.0 803.1,70.0 808.5,70.0 813.9,70.0 819.3,70.0 824.7,70.0 830.0,70.0 835.4,70.0 840.8,70.0 846.2,70.0 851.6,70.0 857.0,76.0 862.4,70.0 867.8,70.0 873.2,70.0 878.6,70.0 884.0,70.0 889.4,76.0 894.8,76.0 900.2,88.0 905.6,88.0 911.0,88.0 916.4,94.0 921.8,94.0 927.2,94.0 932.6,94.0 938.0,88.0"/><polyline fill="none" stroke="#f59e0b" stroke-width="2.5" stroke-linejoin="round" stroke-linecap="round" points="42.0,274.0 47.4,274.0 52.8,274.0 58.2,280.0 63.6,268.0 69.0,268.0 74.4,268.0 79.8,274.0 85.2,274.0 90.6,274.0 96.0,280.0 101.4,286.0 106.8,286.0 112.2,286.0 117.6,286.0 123.0,286.0 128.4,286.0 133.8,286.0 139.2,286.0 144.6,286.0 150.0,286.0 155.3,286.0 160.7,286.0 166.1,286.0 171.5,286.0 176.9,286.0 182.3,286.0 187.7,286.0 193.1,286.0 198.5,286.0 203.9,286.0 209.3,274.0 214.7,280.0 220.1,280.0 225.5,280.0 230.9,280.0 236.3,286.0 241.7,286.0 247.1,286.0 252.5,274.0 257.9,268.0 263.3,268.0 268.7,262.0 274.1,262.0 279.5,262.0 284.9,262.0 290.3,268.0 295.7,280.0 301.1,280.0 306.5,274.0 311.9,262.0 317.3,268.0 322.7,268.0 328.1,262.0 333.5,268.0 338.9,268.0 344.3,268.0 349.7,280.0 355.1,280.0 360.5,268.0 365.9,268.0 371.3,268.0 376.7,262.0 382.0,274.0 387.4,280.0 392.8,286.0 398.2,286.0 403.6,274.0 409.0,274.0 414.4,274.0 419.8,274.0 425.2,274.0 430.6,274.0 436.0,274.0 441.4,274.0 446.8,280.0 452.2,274.0 457.6,280.0 463.0,286.0 468.4,286.0 473.8,286.0 479.2,286.0 484.6,280.0 490.0,286.0 495.4,286.0 500.8,286.0 506.2,286.0 511.6,286.0 517.0,286.0 522.4,286.0 527.8,286.0 533.2,286.0 538.6,286.0 544.0,286.0 549.4,286.0 554.8,286.0 560.2,286.0 565.6,286.0 571.0,286.0 576.4,286.0 581.8,286.0 587.2,286.0 592.6,286.0 598.0,286.0 603.3,286.0 608.7,286.0 614.1,286.0 619.5,286.0 624.9,286.0 630.3,286.0 635.7,286.0 641.1,286.0 646.5,286.0 651.9,286.0 657.3,286.0 662.7,286.0 668.1,286.0 673.5,286.0 678.9,286.0 684.3,286.0 689.7,286.0 695.1,286.0 700.5,286.0 705.9,286.0 711.3,286.0 716.7,286.0 722.1,286.0 727.5,286.0 732.9,286.0 738.3,286.0 743.7,286.0 749.1,286.0 754.5,286.0 759.9,286.0 765.3,286.0 770.7,286.0 776.1,286.0 781.5,286.0 786.9,286.0 792.3,286.0 797.7,286.0 803.1,286.0 808.5,286.0 813.9,286.0 819.3,286.0 824.7,286.0 830.0,286.0 835.4,286.0 840.8,286.0 846.2,286.0 851.6,286.0 857.0,286.0 862.4,286.0 867.8,286.0 873.2,286.0 878.6,286.0 884.0,286.0 889.4,286.0 894.8,280.0 900.2,268.0 905.6,268.0 911.0,268.0 916.4,268.0 921.8,262.0 927.2,262.0 932.6,262.0 938.0,268.0"/><polyline fill="none" stroke="#ef4444" stroke-width="2.5" stroke-linejoin="round" stroke-linecap="round" points="42.0,280.0 47.4,280.0 52.8,268.0 58.2,262.0 63.6,286.0 69.0,286.0 74.4,286.0 79.8,286.0 85.2,280.0 90.6,286.0 96.0,286.0 101.4,286.0 106.8,286.0 112.2,286.0 117.6,286.0 123.0,286.0 128.4,286.0 133.8,286.0 139.2,286.0 144.6,286.0 150.0,286.0 155.3,286.0 160.7,286.0 166.1,286.0 171.5,286.0 176.9,286.0 182.3,286.0 187.7,286.0 193.1,286.0 198.5,286.0 203.9,286.0 209.3,286.0 214.7,274.0 220.1,256.0 225.5,286.0 230.9,286.0 236.3,286.0 241.7,286.0 247.1,286.0 252.5,286.0 257.9,286.0 263.3,286.0 268.7,286.0 274.1,286.0 279.5,286.0 284.9,286.0 290.3,286.0 295.7,286.0 301.1,280.0 306.5,286.0 311.9,286.0 317.3,286.0 322.7,286.0 328.1,286.0 333.5,286.0 338.9,286.0 344.3,286.0 349.7,286.0 355.1,286.0 360.5,286.0 365.9,286.0 371.3,286.0 376.7,280.0 382.0,286.0 387.4,286.0 392.8,286.0 398.2,286.0 403.6,286.0 409.0,286.0 414.4,286.0 419.8,286.0 425.2,286.0 430.6,286.0 436.0,286.0 441.4,286.0 446.8,274.0 452.2,274.0 457.6,274.0 463.0,274.0 468.4,274.0 473.8,274.0 479.2,274.0 484.6,274.0 490.0,274.0 495.4,274.0 500.8,274.0 506.2,274.0 511.6,274.0 517.0,274.0 522.4,274.0 527.8,274.0 533.2,274.0 538.6,274.0 544.0,274.0 549.4,274.0 554.8,274.0 560.2,274.0 565.6,274.0 571.0,274.0 576.4,274.0 581.8,274.0 587.2,274.0 592.6,274.0 598.0,274.0 603.3,274.0 608.7,274.0 614.1,274.0 619.5,274.0 624.9,274.0 630.3,274.0 635.7,274.0 641.1,274.0 646.5,274.0 651.9,274.0 657.3,274.0 662.7,274.0 668.1,274.0 673.5,274.0 678.9,274.0 684.3,274.0 689.7,274.0 695.1,274.0 700.5,274.0 705.9,274.0 711.3,274.0 716.7,274.0 722.1,274.0 727.5,274.0 732.9,274.0 738.3,274.0 743.7,274.0 749.1,274.0 754.5,274.0 759.9,274.0 765.3,274.0 770.7,274.0 776.1,274.0 781.5,274.0 786.9,274.0 792.3,274.0 797.7,274.0 803.1,274.0 808.5,274.0 813.9,274.0 819.3,274.0 824.7,274.0 830.0,274.0 835.4,274.0 840.8,274.0 846.2,274.0 851.6,274.0 857.0,268.0 862.4,274.0 867.8,274.0 873.2,274.0 878.6,274.0 884.0,274.0 889.4,274.0 894.8,274.0 900.2,274.0 905.6,274.0 911.0,274.0 916.4,268.0 921.8,274.0 927.2,274.0 932.6,274.0 938.0,274.0"/><polyline fill="none" stroke="#a855f7" stroke-width="2.5" stroke-linejoin="round" stroke-linecap="round" points="42.0,286.0 47.4,286.0 52.8,286.0 58.2,286.0 63.6,286.0 69.0,286.0 74.4,286.0 79.8,286.0 85.2,286.0 90.6,286.0 96.0,286.0 101.4,286.0 106.8,286.0 112.2,286.0 117.6,286.0 123.0,286.0 128.4,286.0 133.8,286.0 139.2,286.0 144.6,286.0 150.0,286.0 155.3,286.0 160.7,286.0 166.1,286.0 171.5,286.0 176.9,286.0 182.3,286.0 187.7,286.0 193.1,286.0 198.5,286.0 203.9,286.0 209.3,286.0 214.7,286.0 220.1,286.0 225.5,286.0 230.9,286.0 236.3,286.0 241.7,286.0 247.1,286.0 252.5,286.0 257.9,286.0 263.3,286.0 268.7,286.0 274.1,286.0 279.5,286.0 284.9,286.0 290.3,286.0 295.7,286.0 301.1,286.0 306.5,286.0 311.9,286.0 317.3,286.0 322.7,286.0 328.1,286.0 333.5,286.0 338.9,286.0 344.3,286.0 349.7,286.0 355.1,286.0 360.5,286.0 365.9,286.0 371.3,286.0 376.7,286.0 382.0,286.0 387.4,286.0 392.8,286.0 398.2,286.0 403.6,286.0 409.0,286.0 414.4,286.0 419.8,280.0 425.2,286.0 430.6,286.0 436.0,286.0 441.4,286.0 446.8,286.0 452.2,286.0 457.6,286.0 463.0,286.0 468.4,286.0 473.8,286.0 479.2,286.0 484.6,286.0 490.0,286.0 495.4,286.0 500.8,286.0 506.2,286.0 511.6,286.0 517.0,286.0 522.4,286.0 527.8,286.0 533.2,286.0 538.6,286.0 544.0,286.0 549.4,286.0 554.8,286.0 560.2,286.0 565.6,286.0 571.0,286.0 576.4,286.0 581.8,286.0 587.2,286.0 592.6,286.0 598.0,286.0 603.3,286.0 608.7,286.0 614.1,286.0 619.5,286.0 624.9,286.0 630.3,286.0 635.7,286.0 641.1,286.0 646.5,286.0 651.9,286.0 657.3,286.0 662.7,286.0 668.1,286.0 673.5,286.0 678.9,286.0 684.3,286.0 689.7,286.0 695.1,286.0 700.5,286.0 705.9,286.0 711.3,286.0 716.7,286.0 722.1,286.0 727.5,286.0 732.9,286.0 738.3,286.0 743.7,286.0 749.1,286.0 754.5,286.0 759.9,286.0 765.3,286.0 770.7,286.0 776.1,286.0 781.5,286.0 786.9,286.0 792.3,286.0 797.7,286.0 803.1,286.0 808.5,286.0 813.9,286.0 819.3,286.0 824.7,286.0 830.0,286.0 835.4,286.0 840.8,286.0 846.2,286.0 851.6,286.0 857.0,286.0 862.4,286.0 867.8,286.0 873.2,286.0 878.6,286.0 884.0,286.0 889.4,280.0 894.8,286.0 900.2,286.0 905.6,286.0 911.0,286.0 916.4,286.0 921.8,286.0 927.2,286.0 932.6,286.0 938.0,286.0"/><text x="42" y="308" font-size="11" fill="#9fb0d4">19/06 12:43</text><text x="938" y="308" text-anchor="end" font-size="11" fill="#9fb0d4">29/06 17:29</text></svg>