<svg xmlns="http://www.w3.org/2000/svg" viewBox="0 0 960 320" width="960" height="320" font-family="Segoe UI, system-ui, -apple-system, Roboto, Helvetica, Arial, sans-serif" role="img" aria-label="Availability history per region"><rect x="0.5" y="0.5" width="959" height="319" rx="14" fill="#ffffff" stroke="#dce3f1"/><text x="42" y="26" font-size="14" font-weight="600" fill="#14203a">History · 129 points</text><circle cx="47" cy="40" r="5" fill="#22c55e"/><text x="57" y="44" font-size="12" fill="#5a688a">Available</text><circle cx="139.8" cy="40" r="5" fill="#f59e0b"/><text x="149.8" y="44" font-size="12" fill="#5a688a">Saturated</text><circle cx="232.60000000000002" cy="40" r="5" fill="#ef4444"/><text x="242.60000000000002" y="44" font-size="12" fill="#5a688a">Error</text><circle cx="296.6" cy="40" r="5" fill="#a855f7"/><text x="306.6" y="44" font-size="12" fill="#5a688a">Timeout</text><line x1="42" y1="286.0" x2="938" y2="286.0" stroke="#eef2f7" stroke-width="1"/><text x="35" y="289.0" text-anchor="end" font-size="11" fill="#5a688a">0</text><line x1="42" y1="227.5" x2="938" y2="227.5" stroke="#eef2f7" stroke-width="1"/><text x="35" y="230.5" text-anchor="end" font-size="11" fill="#5a688a">10</text><line x1="42" y1="169.0" x2="938" y2="169.0" stroke="#eef2f7" stroke-width="1"/><text x="35" y="172.0" text-anchor="end" font-size="11" fill="#5a688a">20</text><line x1="42" y1="110.5" x2="938" y2="110.5" stroke="#eef2f7" stroke-width="1"/><text x="35" y="113.5" text-anchor="end" font-size="11" fill="#5a688a">29</text><line x1="42" y1="52.0" x2="938" y2="52.0" stroke="#eef2f7" stroke-width="1"/><text x="35" y="55.0" text-anchor="end" font-size="11" fill="#5a688a">39</text><polyline fill="none" stroke="#22c55e" stroke-width="2.5" stroke-linejoin="round" stroke-linecap="round" points="42.0,70.0 49.0,70.0 56.0,88.0 63.0,88.0 70.0,76.0 77.0,76.0 84.0,76.0 91.0,70.0 98.0,76.0 105.0,70.0 112.0,64.0 119.0,58.0 126.0,58.0 133.0,58.0 140.0,58.0 147.0,58.0 154.0,58.0 161.0,58.0 168.0,58.0 175.0,58.0 182.0,58.0 189.0,58.0 196.0,58.0 203.0,58.0 210.0,58.0 217.0,58.0 224.0,58.0 231.0,58.0 238.0,58.0 245.0,58.0 252.0,58.0 259.0,70.0 266.0,76.0 273.0,94.0 280.0,64.0 287.0,64.0 294.0,58.0 301.0,58.0 308.0,58.0 315.0,70.0 322.0,76.0 329.0,76.0 336.0,82.0 343.0,82.0 350.0,82.0 357.0,82.0 364.0,76.0 371.0,64.0 378.0,70.0 385.0,70.0 392.0,82.0 399.0,76.0 406.0,76.0 413.0,82.0 420.0,76.0 427.0,76.0 434.0,76.0 441.0,64.0 448.0,64.0 455.0,76.0 462.0,76.0 469.0,76.0 476.0,88.0 483.0,70.0 490.0,64.0 497.0,58.0 504.0,58.0 511.0,70.0 518.0,70.0 525.0,70.0 532.0,76.0 539.0,70.0 546.0,70.0 553.0,70.0 560.0,70.0 567.0,76.0 574.0,82.0 581.0,76.0 588.0,70.0 595.0,70.0 602.0,70.0 609.0,70.0 616.0,76.0 623.0,70.0 630.0,70.0 637.0,70.0 644.0,70.0 651.0,70.0 658.0,70.0 665.0,70.0 672.0,70.0 679.0,70.0 686.0,70.0 693.0,70.0 700.0,70.0 707.0,70.0 714.0,70.0 721.0,70.0 728.0,70.0 735.0,70.0 742.0,70.0 749.0,70.0 756.0,70.0 763.0,70.0 770.0,70.0 777.0,70.0 784.0,70.0 791.0,70.0 798.0,70.0 805.0,70.0 812.0,70.0 819.0,70.0 826.0,70.0 833.0,70.0 840.0,70.0 847.0,70.0 854.0,70.0 861.0,70.0 868.0,70.0 875.0,70.0 882.0,70.0 889.0,70.0 896.0,70.0 903.0,70.0 910.0,70.0 917.0,70.0 924.0,70.0 931.0,70.0 938.0,70.0"/><polyline fill="none" stroke="#f59e0b" stroke-width="2.5" stroke-linejoin="round" stroke-linecap="round" points="42.0,274.0 49.0,274.0 56.0,274.0 63.0,280.0 70.0,268.0 77.0,268.0 84.0,268.0 91.0,274.0 98.0,274.0 105.0,274.0 112.0,280.0 119.0,286.0 126.0,286.0 133.0,286.0 140.0,286.0 147.0,286.0 154.0,286.0 161.0,286.0 168.0,286.0 175.0,286.0 182.0,286.0 189.0,286.0 196.0,286.0 203.0,286.0 210.0,286.0 217.0,286.0 224.0,286.0 231.0,286.0 238.0,286.0 245.0,286.0 252.0,286.0 259.0,274.0 266.0,280.0 273.0,280.0 280.0,280.0 287.0,280.0 294.0,286.0 301.0,286.0 308.0,286.0 315.0,274.0 322.0,268.0 329.0,268.0 336.0,262.0 343.0,262.0 350.0,262.0 357.0,262.0 364.0,268.0 371.0,280.0 378.0,280.0 385.0,274.0 392.0,262.0 399.0,268.0 406.0,268.0 413.0,262.0 420.0,268.0 427.0,268.0 434.0,268.0 441.0,280.0 448.0,280.0 455.0,268.0 462.0,268.0 469.0,268.0 476.0,262.0 483.0,274.0 490.0,280.0 497.0,286.0 504.0,286.0 511.0,274.0 518.0,274.0 525.0,274.0 532.0,274.0 539.0,274.0 546.0,274.0 553.0,274.0 560.0,274.0 567.0,280.0 574.0,274.0 581.0,280.0 588.0,286.0 595.0,286.0 602.0,286.0 609.0,286.0 616.0,280.0 623.0,286.0 630.0,286.0 637.0,286.0 644.0,286.0 651.0,286.0 658.0,286.0 665.0,286.0 672.0,286.0 679.0,286.0 686.0,286.0 693.0,286.0 700.0,286.0 707.0,286.0 714.0,286.0 721.0,286.0 728.0,286.0 735.0,286.0 742.0,286.0 749.0,286.0 756.0,286.0 763.0,286.0 770.0,286.0 777.0,286.0 784.0,286.0 791.0,286.0 798.0,286.0 805.0,286.0 812.0,286.0 819.0,286.0 826.0,286.0 833.0,286.0 840.0,286.0 847.0,286.0 854.0,286.0 861.0,286.0 868.0,286.0 875.0,286.0 882.0,286.0 889.0,286.0 896.0,286.0 903.0,286.0 910.0,286.0 917.0,286.0 924.0,286.0 931.0,286.0 938.0,286.0"/><polyline fill="none" stroke="#ef4444" stroke-width="2.5" stroke-linejoin="round" stroke-linecap="round" points="42.0,280.0 49.0,280.0 56.0,268.0 63.0,262.0 70.0,286.0 77.0,286.0 84.0,286.0 91.0,286.0 98.0,280.0 105.0,286.0 112.0,286.0 119.0,286.0 126.0,286.0 133.0,286.0 140.0,286.0 147.0,286.0 154.0,286.0 161.0,286.0 168.0,286.0 175.0,286.0 182.0,286.0 189.0,286.0 196.0,286.0 203.0,286.0 210.0,286.0 217.0,286.0 224.0,286.0 231.0,286.0 238.0,286.0 245.0,286.0 252.0,286.0 259.0,286.0 266.0,274.0 273.0,256.0 280.0,286.0 287.0,286.0 294.0,286.0 301.0,286.0 308.0,286.0 315.0,286.0 322.0,286.0 329.0,286.0 336.0,286.0 343.0,286.0 350.0,286.0 357.0,286.0 364.0,286.0 371.0,286.0 378.0,280.0 385.0,286.0 392.0,286.0 399.0,286.0 406.0,286.0 413.0,286.0 420.0,286.0 427.0,286.0 434.0,286.0 441.0,286.0 448.0,286.0 455.0,286.0 462.0,286.0 469.0,286.0 476.0,280.0 483.0,286.0 490.0,286.0 497.0,286.0 504.0,286.0 511.0,286.0 518.0,286.0 525.0,286.0 532.0,286.0 539.0,286.0 546.0,286.0 553.0,286.0 560.0,286.0 567.0,274.0 574.0,274.0 581.0,274.0 588.0,274.0 595.0,274.0 602.0,274.0 609.0,274.0 616.0,274.0 623.0,274.0 630.0,274.0 637.0,274.0 644.0,274.0 651.0,274.0 658.0,274.0 665.0,274.0 672.0,274.0 679.0,274.0 686.0,274.0 693.0,274.0 700.0,274.0 707.0,274.0 714.0,274.0 721.0,274.0 728.0,274.0 735.0,274.0 742.0,274.0 749.0,274.0 756.0,274.0 763.0,274.0 770.0,274.0 777.0,274.0 784.0,274.0 791.0,274.0 798.0,274.0 805.0,274.0 812.0,274.0 819.0,274.0 826.0,274.0 833.0,274.0 840.0,274.0 847.0,274.0 854.0,274.0 861.0,274.0 868.0,274.0 875.0,274.0 882.0,274.0 889.0,274.0 896.0,274.0 903.0,274.0 910.0,274.0 917.0,274.0 924.0,274.0 931.0,274.0 938.0,274.0"/><polyline fill="none" stroke="#a855f7" stroke-width="2.5" stroke-linejoin="round" stroke-linecap="round" points="42.0,286.0 49.0,286.0 56.0,286.0 63.0,286.0 70.0,286.0 77.0,286.0 84.0,286.0 91.0,286.0 98.0,286.0 105.0,286.0 112.0,286.0 119.0,286.0 126.0,286.0 133.0,286.0 140.0,286.0 147.0,286.0 154.0,286.0 161.0,286.0 168.0,286.0 175.0,286.0 182.0,286.0 189.0,286.0 196.0,286.0 203.0,286.0 210.0,286.0 217.0,286.0 224.0,286.0 231.0,286.0 238.0,286.0 245.0,286.0 252.0,286.0 259.0,286.0 266.0,286.0 273.0,286.0 280.0,286.0 287.0,286.0 294.0,286.0 301.0,286.0 308.0,286.0 315.0,286.0 322.0,286.0 329.0,286.0 336.0,286.0 343.0,286.0 350.0,286.0 357.0,286.0 364.0,286.0 371.0,286.0 378.0,286.0 385.0,286.0 392.0,286.0 399.0,286.0 406.0,286.0 413.0,286.0 420.0,286.0 427.0,286.0 434.0,286.0 441.0,286.0 448.0,286.0 455.0,286.0 462.0,286.0 469.0,286.0 476.0,286.0 483.0,286.0 490.0,286.0 497.0,286.0 504.0,286.0 511.0,286.0 518.0,286.0 525.0,286.0 532.0,280.0 539.0,286.0 546.0,286.0 553.0,286.0 560.0,286.0 567.0,286.0 574.0,286.0 581.0,286.0 588.0,286.0 595.0,286.0 602.0,286.0 609.0,286.0 616.0,286.0 623.0,286.0 630.0,286.0 637.0,286.0 644.0,286.0 651.0,286.0 658.0,286.0 665.0,286.0 672.0,286.0 679.0,286.0 686.0,286.0 693.0,286.0 700.0,286.0 707.0,286.0 714.0,286.0 721.0,286.0 728.0,286.0 735.0,286.0 742.0,286.0 749.0,286.0 756.0,286.0 763.0,286.0 770.0,286.0 777.0,286.0 784.0,286.0 791.0,286.0 798.0,286.0 805.0,286.0 812.0,286.0 819.0,286.0 826.0,286.0 833.0,286.0 840.0,286.0 847.0,286.0 854.0,286.0 861.0,286.0 868.0,286.0 875.0,286.0 882.0,286.0 889.0,286.0 896.0,286.0 903.0,286.0 910.0,286.0 917.0,286.0 924.0,286.0 931.0,286.0 938.0,286.0"/><text x="42" y="308" font-size="11" fill="#5a688a">19/06 12:43</text><text x="938" y="308" text-anchor="end" font-size="11" fill="#5a688a">28/06 11:29</text></svg>