<svg xmlns="http://www.w3.org/2000/svg" viewBox="0 0 960 320" width="960" height="320" font-family="Segoe UI, system-ui, -apple-system, Roboto, Helvetica, Arial, sans-serif" role="img" aria-label="Availability history per region"><rect x="0.5" y="0.5" width="959" height="319" rx="14" fill="#0d1117" stroke="#2c3a5e"/><text x="42" y="26" font-size="14" font-weight="600" fill="#e6ecff">History · 266 points</text><circle cx="47" cy="40" r="5" fill="#22c55e"/><text x="57" y="44" font-size="12" fill="#9fb0d4">Available</text><circle cx="139.8" cy="40" r="5" fill="#f59e0b"/><text x="149.8" y="44" font-size="12" fill="#9fb0d4">Saturated</text><circle cx="232.60000000000002" cy="40" r="5" fill="#ef4444"/><text x="242.60000000000002" y="44" font-size="12" fill="#9fb0d4">Error</text><circle cx="296.6" cy="40" r="5" fill="#a855f7"/><text x="306.6" y="44" font-size="12" fill="#9fb0d4">Timeout</text><line x1="42" y1="286.0" x2="938" y2="286.0" stroke="#21304f" stroke-width="1"/><text x="35" y="289.0" text-anchor="end" font-size="11" fill="#9fb0d4">0</text><line x1="42" y1="227.5" x2="938" y2="227.5" stroke="#21304f" stroke-width="1"/><text x="35" y="230.5" text-anchor="end" font-size="11" fill="#9fb0d4">10</text><line x1="42" y1="169.0" x2="938" y2="169.0" stroke="#21304f" stroke-width="1"/><text x="35" y="172.0" text-anchor="end" font-size="11" fill="#9fb0d4">20</text><line x1="42" y1="110.5" x2="938" y2="110.5" stroke="#21304f" stroke-width="1"/><text x="35" y="113.5" text-anchor="end" font-size="11" fill="#9fb0d4">29</text><line x1="42" y1="52.0" x2="938" y2="52.0" stroke="#21304f" stroke-width="1"/><text x="35" y="55.0" text-anchor="end" font-size="11" fill="#9fb0d4">39</text><polyline fill="none" stroke="#22c55e" stroke-width="2.5" stroke-linejoin="round" stroke-linecap="round" points="42.0,70.0 45.4,70.0 48.8,88.0 52.1,88.0 55.5,76.0 58.9,76.0 62.3,76.0 65.7,70.0 69.0,76.0 72.4,70.0 75.8,64.0 79.2,58.0 82.6,58.0 86.0,58.0 89.3,58.0 92.7,58.0 96.1,58.0 99.5,58.0 102.9,58.0 106.2,58.0 109.6,58.0 113.0,58.0 116.4,58.0 119.8,58.0 123.1,58.0 126.5,58.0 129.9,58.0 133.3,58.0 136.7,58.0 140.1,58.0 143.4,58.0 146.8,70.0 150.2,76.0 153.6,94.0 157.0,64.0 160.3,64.0 163.7,58.0 167.1,58.0 170.5,58.0 173.9,70.0 177.2,76.0 180.6,76.0 184.0,82.0 187.4,82.0 190.8,82.0 194.2,82.0 197.5,76.0 200.9,64.0 204.3,70.0 207.7,70.0 211.1,82.0 214.4,76.0 217.8,76.0 221.2,82.0 224.6,76.0 228.0,76.0 231.3,76.0 234.7,64.0 238.1,64.0 241.5,76.0 244.9,76.0 248.2,76.0 251.6,88.0 255.0,70.0 258.4,64.0 261.8,58.0 265.2,58.0 268.5,70.0 271.9,70.0 275.3,70.0 278.7,76.0 282.1,70.0 285.4,70.0 288.8,70.0 292.2,70.0 295.6,76.0 299.0,82.0 302.3,76.0 305.7,70.0 309.1,70.0 312.5,70.0 315.9,70.0 319.3,76.0 322.6,70.0 326.0,70.0 329.4,70.0 332.8,70.0 336.2,70.0 339.5,70.0 342.9,70.0 346.3,70.0 349.7,70.0 353.1,70.0 356.4,70.0 359.8,70.0 363.2,70.0 366.6,70.0 370.0,70.0 373.4,70.0 376.7,70.0 380.1,70.0 383.5,70.0 386.9,70.0 390.3,70.0 393.6,70.0 397.0,70.0 400.4,70.0 403.8,70.0 407.2,70.0 410.5,70.0 413.9,70.0 417.3,70.0 420.7,70.0 424.1,70.0 427.4,70.0 430.8,70.0 434.2,70.0 437.6,70.0 441.0,70.0 444.4,70.0 447.7,70.0 451.1,70.0 454.5,70.0 457.9,70.0 461.3,70.0 464.6,70.0 468.0,70.0 471.4,70.0 474.8,70.0 478.2,70.0 481.5,70.0 484.9,70.0 488.3,70.0 491.7,70.0 495.1,70.0 498.5,70.0 501.8,70.0 505.2,70.0 508.6,70.0 512.0,70.0 515.4,70.0 518.7,70.0 522.1,70.0 525.5,70.0 528.9,70.0 532.3,70.0 535.6,70.0 539.0,70.0 542.4,70.0 545.8,70.0 549.2,70.0 552.6,76.0 555.9,70.0 559.3,70.0 562.7,70.0 566.1,70.0 569.5,70.0 572.8,76.0 576.2,76.0 579.6,88.0 583.0,88.0 586.4,88.0 589.7,94.0 593.1,94.0 596.5,94.0 599.9,94.0 603.3,88.0 606.6,88.0 610.0,82.0 613.4,82.0 616.8,82.0 620.2,88.0 623.6,88.0 626.9,94.0 630.3,82.0 633.7,82.0 637.1,82.0 640.5,82.0 643.8,88.0 647.2,88.0 650.6,94.0 654.0,94.0 657.4,88.0 660.7,88.0 664.1,88.0 667.5,94.0 670.9,94.0 674.3,106.0 677.7,94.0 681.0,94.0 684.4,94.0 687.8,94.0 691.2,88.0 694.6,88.0 697.9,82.0 701.3,76.0 704.7,76.0 708.1,76.0 711.5,76.0 714.8,76.0 718.2,76.0 721.6,70.0 725.0,70.0 728.4,70.0 731.8,76.0 735.1,88.0 738.5,82.0 741.9,70.0 745.3,70.0 748.7,70.0 752.0,76.0 755.4,76.0 758.8,76.0 762.2,82.0 765.6,70.0 768.9,76.0 772.3,64.0 775.7,70.0 779.1,58.0 782.5,58.0 785.8,58.0 789.2,58.0 792.6,58.0 796.0,64.0 799.4,58.0 802.8,64.0 806.1,58.0 809.5,58.0 812.9,58.0 816.3,58.0 819.7,64.0 823.0,64.0 826.4,64.0 829.8,76.0 833.2,70.0 836.6,82.0 839.9,70.0 843.3,76.0 846.7,58.0 850.1,64.0 853.5,58.0 856.9,64.0 860.2,58.0 863.6,58.0 867.0,58.0 870.4,64.0 873.8,70.0 877.1,64.0 880.5,64.0 883.9,64.0 887.3,70.0 890.7,70.0 894.0,64.0 897.4,70.0 900.8,70.0 904.2,70.0 907.6,58.0 911.0,58.0 914.3,58.0 917.7,58.0 921.1,58.0 924.5,64.0 927.9,58.0 931.2,58.0 934.6,58.0 938.0,58.0"/><polyline fill="none" stroke="#f59e0b" stroke-width="2.5" stroke-linejoin="round" stroke-linecap="round" points="42.0,274.0 45.4,274.0 48.8,274.0 52.1,280.0 55.5,268.0 58.9,268.0 62.3,268.0 65.7,274.0 69.0,274.0 72.4,274.0 75.8,280.0 79.2,286.0 82.6,286.0 86.0,286.0 89.3,286.0 92.7,286.0 96.1,286.0 99.5,286.0 102.9,286.0 106.2,286.0 109.6,286.0 113.0,286.0 116.4,286.0 119.8,286.0 123.1,286.0 126.5,286.0 129.9,286.0 133.3,286.0 136.7,286.0 140.1,286.0 143.4,286.0 146.8,274.0 150.2,280.0 153.6,280.0 157.0,280.0 160.3,280.0 163.7,286.0 167.1,286.0 170.5,286.0 173.9,274.0 177.2,268.0 180.6,268.0 184.0,262.0 187.4,262.0 190.8,262.0 194.2,262.0 197.5,268.0 200.9,280.0 204.3,280.0 207.7,274.0 211.1,262.0 214.4,268.0 217.8,268.0 221.2,262.0 224.6,268.0 228.0,268.0 231.3,268.0 234.7,280.0 238.1,280.0 241.5,268.0 244.9,268.0 248.2,268.0 251.6,262.0 255.0,274.0 258.4,280.0 261.8,286.0 265.2,286.0 268.5,274.0 271.9,274.0 275.3,274.0 278.7,274.0 282.1,274.0 285.4,274.0 288.8,274.0 292.2,274.0 295.6,280.0 299.0,274.0 302.3,280.0 305.7,286.0 309.1,286.0 312.5,286.0 315.9,286.0 319.3,280.0 322.6,286.0 326.0,286.0 329.4,286.0 332.8,286.0 336.2,286.0 339.5,286.0 342.9,286.0 346.3,286.0 349.7,286.0 353.1,286.0 356.4,286.0 359.8,286.0 363.2,286.0 366.6,286.0 370.0,286.0 373.4,286.0 376.7,286.0 380.1,286.0 383.5,286.0 386.9,286.0 390.3,286.0 393.6,286.0 397.0,286.0 400.4,286.0 403.8,286.0 407.2,286.0 410.5,286.0 413.9,286.0 417.3,286.0 420.7,286.0 424.1,286.0 427.4,286.0 430.8,286.0 434.2,286.0 437.6,286.0 441.0,286.0 444.4,286.0 447.7,286.0 451.1,286.0 454.5,286.0 457.9,286.0 461.3,286.0 464.6,286.0 468.0,286.0 471.4,286.0 474.8,286.0 478.2,286.0 481.5,286.0 484.9,286.0 488.3,286.0 491.7,286.0 495.1,286.0 498.5,286.0 501.8,286.0 505.2,286.0 508.6,286.0 512.0,286.0 515.4,286.0 518.7,286.0 522.1,286.0 525.5,286.0 528.9,286.0 532.3,286.0 535.6,286.0 539.0,286.0 542.4,286.0 545.8,286.0 549.2,286.0 552.6,286.0 555.9,286.0 559.3,286.0 562.7,286.0 566.1,286.0 569.5,286.0 572.8,286.0 576.2,280.0 579.6,268.0 583.0,268.0 586.4,268.0 589.7,268.0 593.1,262.0 596.5,262.0 599.9,262.0 603.3,268.0 606.6,268.0 610.0,274.0 613.4,274.0 616.8,274.0 620.2,268.0 623.6,268.0 626.9,268.0 630.3,274.0 633.7,274.0 637.1,274.0 640.5,274.0 643.8,268.0 647.2,268.0 650.6,262.0 654.0,262.0 657.4,268.0 660.7,268.0 664.1,268.0 667.5,262.0 670.9,262.0 674.3,274.0 677.7,262.0 681.0,262.0 684.4,262.0 687.8,262.0 691.2,268.0 694.6,268.0 697.9,274.0 701.3,280.0 704.7,280.0 708.1,280.0 711.5,280.0 714.8,280.0 718.2,280.0 721.6,286.0 725.0,286.0 728.4,286.0 731.8,280.0 735.1,274.0 738.5,274.0 741.9,280.0 745.3,274.0 748.7,274.0 752.0,268.0 755.4,268.0 758.8,268.0 762.2,268.0 765.6,280.0 768.9,274.0 772.3,280.0 775.7,280.0 779.1,286.0 782.5,286.0 785.8,286.0 789.2,286.0 792.6,286.0 796.0,286.0 799.4,286.0 802.8,286.0 806.1,286.0 809.5,286.0 812.9,286.0 816.3,286.0 819.7,280.0 823.0,280.0 826.4,280.0 829.8,268.0 833.2,280.0 836.6,268.0 839.9,274.0 843.3,274.0 846.7,286.0 850.1,280.0 853.5,286.0 856.9,280.0 860.2,286.0 863.6,286.0 867.0,286.0 870.4,280.0 873.8,274.0 877.1,280.0 880.5,280.0 883.9,280.0 887.3,274.0 890.7,274.0 894.0,280.0 897.4,280.0 900.8,280.0 904.2,280.0 907.6,286.0 911.0,286.0 914.3,286.0 917.7,286.0 921.1,286.0 924.5,286.0 927.9,286.0 931.2,286.0 934.6,286.0 938.0,286.0"/><polyline fill="none" stroke="#ef4444" stroke-width="2.5" stroke-linejoin="round" stroke-linecap="round" points="42.0,280.0 45.4,280.0 48.8,268.0 52.1,262.0 55.5,286.0 58.9,286.0 62.3,286.0 65.7,286.0 69.0,280.0 72.4,286.0 75.8,286.0 79.2,286.0 82.6,286.0 86.0,286.0 89.3,286.0 92.7,286.0 96.1,286.0 99.5,286.0 102.9,286.0 106.2,286.0 109.6,286.0 113.0,286.0 116.4,286.0 119.8,286.0 123.1,286.0 126.5,286.0 129.9,286.0 133.3,286.0 136.7,286.0 140.1,286.0 143.4,286.0 146.8,286.0 150.2,274.0 153.6,256.0 157.0,286.0 160.3,286.0 163.7,286.0 167.1,286.0 170.5,286.0 173.9,286.0 177.2,286.0 180.6,286.0 184.0,286.0 187.4,286.0 190.8,286.0 194.2,286.0 197.5,286.0 200.9,286.0 204.3,280.0 207.7,286.0 211.1,286.0 214.4,286.0 217.8,286.0 221.2,286.0 224.6,286.0 228.0,286.0 231.3,286.0 234.7,286.0 238.1,286.0 241.5,286.0 244.9,286.0 248.2,286.0 251.6,280.0 255.0,286.0 258.4,286.0 261.8,286.0 265.2,286.0 268.5,286.0 271.9,286.0 275.3,286.0 278.7,286.0 282.1,286.0 285.4,286.0 288.8,286.0 292.2,286.0 295.6,274.0 299.0,274.0 302.3,274.0 305.7,274.0 309.1,274.0 312.5,274.0 315.9,274.0 319.3,274.0 322.6,274.0 326.0,274.0 329.4,274.0 332.8,274.0 336.2,274.0 339.5,274.0 342.9,274.0 346.3,274.0 349.7,274.0 353.1,274.0 356.4,274.0 359.8,274.0 363.2,274.0 366.6,274.0 370.0,274.0 373.4,274.0 376.7,274.0 380.1,274.0 383.5,274.0 386.9,274.0 390.3,274.0 393.6,274.0 397.0,274.0 400.4,274.0 403.8,274.0 407.2,274.0 410.5,274.0 413.9,274.0 417.3,274.0 420.7,274.0 424.1,274.0 427.4,274.0 430.8,274.0 434.2,274.0 437.6,274.0 441.0,274.0 444.4,274.0 447.7,274.0 451.1,274.0 454.5,274.0 457.9,274.0 461.3,274.0 464.6,274.0 468.0,274.0 471.4,274.0 474.8,274.0 478.2,274.0 481.5,274.0 484.9,274.0 488.3,274.0 491.7,274.0 495.1,274.0 498.5,274.0 501.8,274.0 505.2,274.0 508.6,274.0 512.0,274.0 515.4,274.0 518.7,274.0 522.1,274.0 525.5,274.0 528.9,274.0 532.3,274.0 535.6,274.0 539.0,274.0 542.4,274.0 545.8,274.0 549.2,274.0 552.6,268.0 555.9,274.0 559.3,274.0 562.7,274.0 566.1,274.0 569.5,274.0 572.8,274.0 576.2,274.0 579.6,274.0 583.0,274.0 586.4,274.0 589.7,268.0 593.1,274.0 596.5,274.0 599.9,274.0 603.3,274.0 606.6,274.0 610.0,274.0 613.4,274.0 616.8,274.0 620.2,274.0 623.6,274.0 626.9,268.0 630.3,274.0 633.7,274.0 637.1,274.0 640.5,274.0 643.8,274.0 647.2,274.0 650.6,274.0 654.0,274.0 657.4,274.0 660.7,274.0 664.1,274.0 667.5,274.0 670.9,274.0 674.3,250.0 677.7,274.0 681.0,274.0 684.4,274.0 687.8,274.0 691.2,274.0 694.6,274.0 697.9,274.0 701.3,274.0 704.7,274.0 708.1,274.0 711.5,274.0 714.8,274.0 718.2,274.0 721.6,274.0 725.0,274.0 728.4,274.0 731.8,274.0 735.1,268.0 738.5,274.0 741.9,280.0 745.3,286.0 748.7,286.0 752.0,286.0 755.4,286.0 758.8,286.0 762.2,280.0 765.6,280.0 768.9,286.0 772.3,286.0 775.7,280.0 779.1,286.0 782.5,286.0 785.8,286.0 789.2,286.0 792.6,286.0 796.0,280.0 799.4,286.0 802.8,286.0 806.1,286.0 809.5,286.0 812.9,286.0 816.3,286.0 819.7,286.0 823.0,286.0 826.4,286.0 829.8,286.0 833.2,280.0 836.6,280.0 839.9,286.0 843.3,280.0 846.7,286.0 850.1,286.0 853.5,286.0 856.9,286.0 860.2,286.0 863.6,286.0 867.0,286.0 870.4,286.0 873.8,286.0 877.1,286.0 880.5,286.0 883.9,286.0 887.3,286.0 890.7,286.0 894.0,286.0 897.4,280.0 900.8,286.0 904.2,280.0 907.6,286.0 911.0,286.0 914.3,286.0 917.7,286.0 921.1,286.0 924.5,286.0 927.9,286.0 931.2,286.0 934.6,286.0 938.0,286.0"/><polyline fill="none" stroke="#a855f7" stroke-width="2.5" stroke-linejoin="round" stroke-linecap="round" points="42.0,286.0 45.4,286.0 48.8,286.0 52.1,286.0 55.5,286.0 58.9,286.0 62.3,286.0 65.7,286.0 69.0,286.0 72.4,286.0 75.8,286.0 79.2,286.0 82.6,286.0 86.0,286.0 89.3,286.0 92.7,286.0 96.1,286.0 99.5,286.0 102.9,286.0 106.2,286.0 109.6,286.0 113.0,286.0 116.4,286.0 119.8,286.0 123.1,286.0 126.5,286.0 129.9,286.0 133.3,286.0 136.7,286.0 140.1,286.0 143.4,286.0 146.8,286.0 150.2,286.0 153.6,286.0 157.0,286.0 160.3,286.0 163.7,286.0 167.1,286.0 170.5,286.0 173.9,286.0 177.2,286.0 180.6,286.0 184.0,286.0 187.4,286.0 190.8,286.0 194.2,286.0 197.5,286.0 200.9,286.0 204.3,286.0 207.7,286.0 211.1,286.0 214.4,286.0 217.8,286.0 221.2,286.0 224.6,286.0 228.0,286.0 231.3,286.0 234.7,286.0 238.1,286.0 241.5,286.0 244.9,286.0 248.2,286.0 251.6,286.0 255.0,286.0 258.4,286.0 261.8,286.0 265.2,286.0 268.5,286.0 271.9,286.0 275.3,286.0 278.7,280.0 282.1,286.0 285.4,286.0 288.8,286.0 292.2,286.0 295.6,286.0 299.0,286.0 302.3,286.0 305.7,286.0 309.1,286.0 312.5,286.0 315.9,286.0 319.3,286.0 322.6,286.0 326.0,286.0 329.4,286.0 332.8,286.0 336.2,286.0 339.5,286.0 342.9,286.0 346.3,286.0 349.7,286.0 353.1,286.0 356.4,286.0 359.8,286.0 363.2,286.0 366.6,286.0 370.0,286.0 373.4,286.0 376.7,286.0 380.1,286.0 383.5,286.0 386.9,286.0 390.3,286.0 393.6,286.0 397.0,286.0 400.4,286.0 403.8,286.0 407.2,286.0 410.5,286.0 413.9,286.0 417.3,286.0 420.7,286.0 424.1,286.0 427.4,286.0 430.8,286.0 434.2,286.0 437.6,286.0 441.0,286.0 444.4,286.0 447.7,286.0 451.1,286.0 454.5,286.0 457.9,286.0 461.3,286.0 464.6,286.0 468.0,286.0 471.4,286.0 474.8,286.0 478.2,286.0 481.5,286.0 484.9,286.0 488.3,286.0 491.7,286.0 495.1,286.0 498.5,286.0 501.8,286.0 505.2,286.0 508.6,286.0 512.0,286.0 515.4,286.0 518.7,286.0 522.1,286.0 525.5,286.0 528.9,286.0 532.3,286.0 535.6,286.0 539.0,286.0 542.4,286.0 545.8,286.0 549.2,286.0 552.6,286.0 555.9,286.0 559.3,286.0 562.7,286.0 566.1,286.0 569.5,286.0 572.8,280.0 576.2,286.0 579.6,286.0 583.0,286.0 586.4,286.0 589.7,286.0 593.1,286.0 596.5,286.0 599.9,286.0 603.3,286.0 606.6,286.0 610.0,286.0 613.4,286.0 616.8,286.0 620.2,286.0 623.6,286.0 626.9,286.0 630.3,286.0 633.7,286.0 637.1,286.0 640.5,286.0 643.8,286.0 647.2,286.0 650.6,286.0 654.0,286.0 657.4,286.0 660.7,286.0 664.1,286.0 667.5,286.0 670.9,286.0 674.3,286.0 677.7,286.0 681.0,286.0 684.4,286.0 687.8,286.0 691.2,286.0 694.6,286.0 697.9,286.0 701.3,286.0 704.7,286.0 708.1,286.0 711.5,286.0 714.8,286.0 718.2,286.0 721.6,286.0 725.0,286.0 728.4,286.0 731.8,286.0 735.1,286.0 738.5,286.0 741.9,286.0 745.3,286.0 748.7,286.0 752.0,286.0 755.4,286.0 758.8,286.0 762.2,286.0 765.6,286.0 768.9,280.0 772.3,286.0 775.7,286.0 779.1,286.0 782.5,286.0 785.8,286.0 789.2,286.0 792.6,286.0 796.0,286.0 799.4,286.0 802.8,280.0 806.1,286.0 809.5,286.0 812.9,286.0 816.3,286.0 819.7,286.0 823.0,286.0 826.4,286.0 829.8,286.0 833.2,286.0 836.6,286.0 839.9,286.0 843.3,286.0 846.7,286.0 850.1,286.0 853.5,286.0 856.9,286.0 860.2,286.0 863.6,286.0 867.0,286.0 870.4,286.0 873.8,286.0 877.1,286.0 880.5,286.0 883.9,286.0 887.3,286.0 890.7,286.0 894.0,286.0 897.4,286.0 900.8,280.0 904.2,286.0 907.6,286.0 911.0,286.0 914.3,286.0 917.7,286.0 921.1,286.0 924.5,280.0 927.9,286.0 931.2,286.0 934.6,286.0 938.0,286.0"/><text x="42" y="308" font-size="11" fill="#9fb0d4">19/06 12:43</text><text x="938" y="308" text-anchor="end" font-size="11" fill="#9fb0d4">04/07 10:47</text></svg>