<svg xmlns="http://www.w3.org/2000/svg" viewBox="0 0 960 320" width="960" height="320" font-family="Segoe UI, system-ui, -apple-system, Roboto, Helvetica, Arial, sans-serif" role="img" aria-label="Availability history per region"><rect x="0.5" y="0.5" width="959" height="319" rx="14" fill="#0d1117" stroke="#2c3a5e"/><text x="42" y="26" font-size="14" font-weight="600" fill="#e6ecff">History · 295 points</text><circle cx="47" cy="40" r="5" fill="#22c55e"/><text x="57" y="44" font-size="12" fill="#9fb0d4">Available</text><circle cx="139.8" cy="40" r="5" fill="#f59e0b"/><text x="149.8" y="44" font-size="12" fill="#9fb0d4">Saturated</text><circle cx="232.60000000000002" cy="40" r="5" fill="#ef4444"/><text x="242.60000000000002" y="44" font-size="12" fill="#9fb0d4">Error</text><circle cx="296.6" cy="40" r="5" fill="#a855f7"/><text x="306.6" y="44" font-size="12" fill="#9fb0d4">Timeout</text><line x1="42" y1="286.0" x2="938" y2="286.0" stroke="#21304f" stroke-width="1"/><text x="35" y="289.0" text-anchor="end" font-size="11" fill="#9fb0d4">0</text><line x1="42" y1="227.5" x2="938" y2="227.5" stroke="#21304f" stroke-width="1"/><text x="35" y="230.5" text-anchor="end" font-size="11" fill="#9fb0d4">10</text><line x1="42" y1="169.0" x2="938" y2="169.0" stroke="#21304f" stroke-width="1"/><text x="35" y="172.0" text-anchor="end" font-size="11" fill="#9fb0d4">20</text><line x1="42" y1="110.5" x2="938" y2="110.5" stroke="#21304f" stroke-width="1"/><text x="35" y="113.5" text-anchor="end" font-size="11" fill="#9fb0d4">29</text><line x1="42" y1="52.0" x2="938" y2="52.0" stroke="#21304f" stroke-width="1"/><text x="35" y="55.0" text-anchor="end" font-size="11" fill="#9fb0d4">39</text><polyline fill="none" stroke="#22c55e" stroke-width="2.5" stroke-linejoin="round" stroke-linecap="round" points="42.0,70.0 45.0,70.0 48.1,88.0 51.1,88.0 54.2,76.0 57.2,76.0 60.3,76.0 63.3,70.0 66.4,76.0 69.4,70.0 72.5,64.0 75.5,58.0 78.6,58.0 81.6,58.0 84.7,58.0 87.7,58.0 90.8,58.0 93.8,58.0 96.9,58.0 99.9,58.0 103.0,58.0 106.0,58.0 109.0,58.0 112.1,58.0 115.1,58.0 118.2,58.0 121.2,58.0 124.3,58.0 127.3,58.0 130.4,58.0 133.4,58.0 136.5,70.0 139.5,76.0 142.6,94.0 145.6,64.0 148.7,64.0 151.7,58.0 154.8,58.0 157.8,58.0 160.9,70.0 163.9,76.0 167.0,76.0 170.0,82.0 173.0,82.0 176.1,82.0 179.1,82.0 182.2,76.0 185.2,64.0 188.3,70.0 191.3,70.0 194.4,82.0 197.4,76.0 200.5,76.0 203.5,82.0 206.6,76.0 209.6,76.0 212.7,76.0 215.7,64.0 218.8,64.0 221.8,76.0 224.9,76.0 227.9,76.0 231.0,88.0 234.0,70.0 237.0,64.0 240.1,58.0 243.1,58.0 246.2,70.0 249.2,70.0 252.3,70.0 255.3,76.0 258.4,70.0 261.4,70.0 264.5,70.0 267.5,70.0 270.6,76.0 273.6,82.0 276.7,76.0 279.7,70.0 282.8,70.0 285.8,70.0 288.9,70.0 291.9,76.0 295.0,70.0 298.0,70.0 301.0,70.0 304.1,70.0 307.1,70.0 310.2,70.0 313.2,70.0 316.3,70.0 319.3,70.0 322.4,70.0 325.4,70.0 328.5,70.0 331.5,70.0 334.6,70.0 337.6,70.0 340.7,70.0 343.7,70.0 346.8,70.0 349.8,70.0 352.9,70.0 355.9,70.0 359.0,70.0 362.0,70.0 365.0,70.0 368.1,70.0 371.1,70.0 374.2,70.0 377.2,70.0 380.3,70.0 383.3,70.0 386.4,70.0 389.4,70.0 392.5,70.0 395.5,70.0 398.6,70.0 401.6,70.0 404.7,70.0 407.7,70.0 410.8,70.0 413.8,70.0 416.9,70.0 419.9,70.0 423.0,70.0 426.0,70.0 429.0,70.0 432.1,70.0 435.1,70.0 438.2,70.0 441.2,70.0 444.3,70.0 447.3,70.0 450.4,70.0 453.4,70.0 456.5,70.0 459.5,70.0 462.6,70.0 465.6,70.0 468.7,70.0 471.7,70.0 474.8,70.0 477.8,70.0 480.9,70.0 483.9,70.0 487.0,70.0 490.0,70.0 493.0,70.0 496.1,70.0 499.1,70.0 502.2,76.0 505.2,70.0 508.3,70.0 511.3,70.0 514.4,70.0 517.4,70.0 520.5,76.0 523.5,76.0 526.6,88.0 529.6,88.0 532.7,88.0 535.7,94.0 538.8,94.0 541.8,94.0 544.9,94.0 547.9,88.0 551.0,88.0 554.0,82.0 557.0,82.0 560.1,82.0 563.1,88.0 566.2,88.0 569.2,94.0 572.3,82.0 575.3,82.0 578.4,82.0 581.4,82.0 584.5,88.0 587.5,88.0 590.6,94.0 593.6,94.0 596.7,88.0 599.7,88.0 602.8,88.0 605.8,94.0 608.9,94.0 611.9,106.0 615.0,94.0 618.0,94.0 621.0,94.0 624.1,94.0 627.1,88.0 630.2,88.0 633.2,82.0 636.3,76.0 639.3,76.0 642.4,76.0 645.4,76.0 648.5,76.0 651.5,76.0 654.6,70.0 657.6,70.0 660.7,70.0 663.7,76.0 666.8,88.0 669.8,82.0 672.9,70.0 675.9,70.0 679.0,70.0 682.0,76.0 685.0,76.0 688.1,76.0 691.1,82.0 694.2,70.0 697.2,76.0 700.3,64.0 703.3,70.0 706.4,58.0 709.4,58.0 712.5,58.0 715.5,58.0 718.6,58.0 721.6,64.0 724.7,58.0 727.7,64.0 730.8,58.0 733.8,58.0 736.9,58.0 739.9,58.0 743.0,64.0 746.0,64.0 749.0,64.0 752.1,76.0 755.1,70.0 758.2,82.0 761.2,70.0 764.3,76.0 767.3,58.0 770.4,64.0 773.4,58.0 776.5,64.0 779.5,58.0 782.6,58.0 785.6,58.0 788.7,64.0 791.7,70.0 794.8,64.0 797.8,64.0 800.9,64.0 803.9,70.0 807.0,70.0 810.0,64.0 813.0,70.0 816.1,70.0 819.1,70.0 822.2,58.0 825.2,58.0 828.3,58.0 831.3,58.0 834.4,58.0 837.4,64.0 840.5,58.0 843.5,58.0 846.6,58.0 849.6,58.0 852.7,58.0 855.7,58.0 858.8,58.0 861.8,58.0 864.9,64.0 867.9,58.0 871.0,58.0 874.0,58.0 877.0,58.0 880.1,58.0 883.1,58.0 886.2,58.0 889.2,64.0 892.3,58.0 895.3,58.0 898.4,58.0 901.4,58.0 904.5,58.0 907.5,58.0 910.6,58.0 913.6,58.0 916.7,58.0 919.7,58.0 922.8,58.0 925.8,58.0 928.9,58.0 931.9,58.0 935.0,58.0 938.0,58.0"/><polyline fill="none" stroke="#f59e0b" stroke-width="2.5" stroke-linejoin="round" stroke-linecap="round" points="42.0,274.0 45.0,274.0 48.1,274.0 51.1,280.0 54.2,268.0 57.2,268.0 60.3,268.0 63.3,274.0 66.4,274.0 69.4,274.0 72.5,280.0 75.5,286.0 78.6,286.0 81.6,286.0 84.7,286.0 87.7,286.0 90.8,286.0 93.8,286.0 96.9,286.0 99.9,286.0 103.0,286.0 106.0,286.0 109.0,286.0 112.1,286.0 115.1,286.0 118.2,286.0 121.2,286.0 124.3,286.0 127.3,286.0 130.4,286.0 133.4,286.0 136.5,274.0 139.5,280.0 142.6,280.0 145.6,280.0 148.7,280.0 151.7,286.0 154.8,286.0 157.8,286.0 160.9,274.0 163.9,268.0 167.0,268.0 170.0,262.0 173.0,262.0 176.1,262.0 179.1,262.0 182.2,268.0 185.2,280.0 188.3,280.0 191.3,274.0 194.4,262.0 197.4,268.0 200.5,268.0 203.5,262.0 206.6,268.0 209.6,268.0 212.7,268.0 215.7,280.0 218.8,280.0 221.8,268.0 224.9,268.0 227.9,268.0 231.0,262.0 234.0,274.0 237.0,280.0 240.1,286.0 243.1,286.0 246.2,274.0 249.2,274.0 252.3,274.0 255.3,274.0 258.4,274.0 261.4,274.0 264.5,274.0 267.5,274.0 270.6,280.0 273.6,274.0 276.7,280.0 279.7,286.0 282.8,286.0 285.8,286.0 288.9,286.0 291.9,280.0 295.0,286.0 298.0,286.0 301.0,286.0 304.1,286.0 307.1,286.0 310.2,286.0 313.2,286.0 316.3,286.0 319.3,286.0 322.4,286.0 325.4,286.0 328.5,286.0 331.5,286.0 334.6,286.0 337.6,286.0 340.7,286.0 343.7,286.0 346.8,286.0 349.8,286.0 352.9,286.0 355.9,286.0 359.0,286.0 362.0,286.0 365.0,286.0 368.1,286.0 371.1,286.0 374.2,286.0 377.2,286.0 380.3,286.0 383.3,286.0 386.4,286.0 389.4,286.0 392.5,286.0 395.5,286.0 398.6,286.0 401.6,286.0 404.7,286.0 407.7,286.0 410.8,286.0 413.8,286.0 416.9,286.0 419.9,286.0 423.0,286.0 426.0,286.0 429.0,286.0 432.1,286.0 435.1,286.0 438.2,286.0 441.2,286.0 444.3,286.0 447.3,286.0 450.4,286.0 453.4,286.0 456.5,286.0 459.5,286.0 462.6,286.0 465.6,286.0 468.7,286.0 471.7,286.0 474.8,286.0 477.8,286.0 480.9,286.0 483.9,286.0 487.0,286.0 490.0,286.0 493.0,286.0 496.1,286.0 499.1,286.0 502.2,286.0 505.2,286.0 508.3,286.0 511.3,286.0 514.4,286.0 517.4,286.0 520.5,286.0 523.5,280.0 526.6,268.0 529.6,268.0 532.7,268.0 535.7,268.0 538.8,262.0 541.8,262.0 544.9,262.0 547.9,268.0 551.0,268.0 554.0,274.0 557.0,274.0 560.1,274.0 563.1,268.0 566.2,268.0 569.2,268.0 572.3,274.0 575.3,274.0 578.4,274.0 581.4,274.0 584.5,268.0 587.5,268.0 590.6,262.0 593.6,262.0 596.7,268.0 599.7,268.0 602.8,268.0 605.8,262.0 608.9,262.0 611.9,274.0 615.0,262.0 618.0,262.0 621.0,262.0 624.1,262.0 627.1,268.0 630.2,268.0 633.2,274.0 636.3,280.0 639.3,280.0 642.4,280.0 645.4,280.0 648.5,280.0 651.5,280.0 654.6,286.0 657.6,286.0 660.7,286.0 663.7,280.0 666.8,274.0 669.8,274.0 672.9,280.0 675.9,274.0 679.0,274.0 682.0,268.0 685.0,268.0 688.1,268.0 691.1,268.0 694.2,280.0 697.2,274.0 700.3,280.0 703.3,280.0 706.4,286.0 709.4,286.0 712.5,286.0 715.5,286.0 718.6,286.0 721.6,286.0 724.7,286.0 727.7,286.0 730.8,286.0 733.8,286.0 736.9,286.0 739.9,286.0 743.0,280.0 746.0,280.0 749.0,280.0 752.1,268.0 755.1,280.0 758.2,268.0 761.2,274.0 764.3,274.0 767.3,286.0 770.4,280.0 773.4,286.0 776.5,280.0 779.5,286.0 782.6,286.0 785.6,286.0 788.7,280.0 791.7,274.0 794.8,280.0 797.8,280.0 800.9,280.0 803.9,274.0 807.0,274.0 810.0,280.0 813.0,280.0 816.1,280.0 819.1,280.0 822.2,286.0 825.2,286.0 828.3,286.0 831.3,286.0 834.4,286.0 837.4,286.0 840.5,286.0 843.5,286.0 846.6,286.0 849.6,286.0 852.7,286.0 855.7,286.0 858.8,286.0 861.8,286.0 864.9,286.0 867.9,286.0 871.0,286.0 874.0,286.0 877.0,286.0 880.1,286.0 883.1,286.0 886.2,286.0 889.2,286.0 892.3,286.0 895.3,286.0 898.4,286.0 901.4,286.0 904.5,286.0 907.5,286.0 910.6,286.0 913.6,286.0 916.7,286.0 919.7,286.0 922.8,286.0 925.8,286.0 928.9,286.0 931.9,286.0 935.0,286.0 938.0,286.0"/><polyline fill="none" stroke="#ef4444" stroke-width="2.5" stroke-linejoin="round" stroke-linecap="round" points="42.0,280.0 45.0,280.0 48.1,268.0 51.1,262.0 54.2,286.0 57.2,286.0 60.3,286.0 63.3,286.0 66.4,280.0 69.4,286.0 72.5,286.0 75.5,286.0 78.6,286.0 81.6,286.0 84.7,286.0 87.7,286.0 90.8,286.0 93.8,286.0 96.9,286.0 99.9,286.0 103.0,286.0 106.0,286.0 109.0,286.0 112.1,286.0 115.1,286.0 118.2,286.0 121.2,286.0 124.3,286.0 127.3,286.0 130.4,286.0 133.4,286.0 136.5,286.0 139.5,274.0 142.6,256.0 145.6,286.0 148.7,286.0 151.7,286.0 154.8,286.0 157.8,286.0 160.9,286.0 163.9,286.0 167.0,286.0 170.0,286.0 173.0,286.0 176.1,286.0 179.1,286.0 182.2,286.0 185.2,286.0 188.3,280.0 191.3,286.0 194.4,286.0 197.4,286.0 200.5,286.0 203.5,286.0 206.6,286.0 209.6,286.0 212.7,286.0 215.7,286.0 218.8,286.0 221.8,286.0 224.9,286.0 227.9,286.0 231.0,280.0 234.0,286.0 237.0,286.0 240.1,286.0 243.1,286.0 246.2,286.0 249.2,286.0 252.3,286.0 255.3,286.0 258.4,286.0 261.4,286.0 264.5,286.0 267.5,286.0 270.6,274.0 273.6,274.0 276.7,274.0 279.7,274.0 282.8,274.0 285.8,274.0 288.9,274.0 291.9,274.0 295.0,274.0 298.0,274.0 301.0,274.0 304.1,274.0 307.1,274.0 310.2,274.0 313.2,274.0 316.3,274.0 319.3,274.0 322.4,274.0 325.4,274.0 328.5,274.0 331.5,274.0 334.6,274.0 337.6,274.0 340.7,274.0 343.7,274.0 346.8,274.0 349.8,274.0 352.9,274.0 355.9,274.0 359.0,274.0 362.0,274.0 365.0,274.0 368.1,274.0 371.1,274.0 374.2,274.0 377.2,274.0 380.3,274.0 383.3,274.0 386.4,274.0 389.4,274.0 392.5,274.0 395.5,274.0 398.6,274.0 401.6,274.0 404.7,274.0 407.7,274.0 410.8,274.0 413.8,274.0 416.9,274.0 419.9,274.0 423.0,274.0 426.0,274.0 429.0,274.0 432.1,274.0 435.1,274.0 438.2,274.0 441.2,274.0 444.3,274.0 447.3,274.0 450.4,274.0 453.4,274.0 456.5,274.0 459.5,274.0 462.6,274.0 465.6,274.0 468.7,274.0 471.7,274.0 474.8,274.0 477.8,274.0 480.9,274.0 483.9,274.0 487.0,274.0 490.0,274.0 493.0,274.0 496.1,274.0 499.1,274.0 502.2,268.0 505.2,274.0 508.3,274.0 511.3,274.0 514.4,274.0 517.4,274.0 520.5,274.0 523.5,274.0 526.6,274.0 529.6,274.0 532.7,274.0 535.7,268.0 538.8,274.0 541.8,274.0 544.9,274.0 547.9,274.0 551.0,274.0 554.0,274.0 557.0,274.0 560.1,274.0 563.1,274.0 566.2,274.0 569.2,268.0 572.3,274.0 575.3,274.0 578.4,274.0 581.4,274.0 584.5,274.0 587.5,274.0 590.6,274.0 593.6,274.0 596.7,274.0 599.7,274.0 602.8,274.0 605.8,274.0 608.9,274.0 611.9,250.0 615.0,274.0 618.0,274.0 621.0,274.0 624.1,274.0 627.1,274.0 630.2,274.0 633.2,274.0 636.3,274.0 639.3,274.0 642.4,274.0 645.4,274.0 648.5,274.0 651.5,274.0 654.6,274.0 657.6,274.0 660.7,274.0 663.7,274.0 666.8,268.0 669.8,274.0 672.9,280.0 675.9,286.0 679.0,286.0 682.0,286.0 685.0,286.0 688.1,286.0 691.1,280.0 694.2,280.0 697.2,286.0 700.3,286.0 703.3,280.0 706.4,286.0 709.4,286.0 712.5,286.0 715.5,286.0 718.6,286.0 721.6,280.0 724.7,286.0 727.7,286.0 730.8,286.0 733.8,286.0 736.9,286.0 739.9,286.0 743.0,286.0 746.0,286.0 749.0,286.0 752.1,286.0 755.1,280.0 758.2,280.0 761.2,286.0 764.3,280.0 767.3,286.0 770.4,286.0 773.4,286.0 776.5,286.0 779.5,286.0 782.6,286.0 785.6,286.0 788.7,286.0 791.7,286.0 794.8,286.0 797.8,286.0 800.9,286.0 803.9,286.0 807.0,286.0 810.0,286.0 813.0,280.0 816.1,286.0 819.1,280.0 822.2,286.0 825.2,286.0 828.3,286.0 831.3,286.0 834.4,286.0 837.4,286.0 840.5,286.0 843.5,286.0 846.6,286.0 849.6,286.0 852.7,286.0 855.7,286.0 858.8,286.0 861.8,286.0 864.9,280.0 867.9,286.0 871.0,286.0 874.0,286.0 877.0,286.0 880.1,286.0 883.1,286.0 886.2,286.0 889.2,286.0 892.3,286.0 895.3,286.0 898.4,286.0 901.4,286.0 904.5,286.0 907.5,286.0 910.6,286.0 913.6,286.0 916.7,286.0 919.7,286.0 922.8,286.0 925.8,286.0 928.9,286.0 931.9,286.0 935.0,286.0 938.0,286.0"/><polyline fill="none" stroke="#a855f7" stroke-width="2.5" stroke-linejoin="round" stroke-linecap="round" points="42.0,286.0 45.0,286.0 48.1,286.0 51.1,286.0 54.2,286.0 57.2,286.0 60.3,286.0 63.3,286.0 66.4,286.0 69.4,286.0 72.5,286.0 75.5,286.0 78.6,286.0 81.6,286.0 84.7,286.0 87.7,286.0 90.8,286.0 93.8,286.0 96.9,286.0 99.9,286.0 103.0,286.0 106.0,286.0 109.0,286.0 112.1,286.0 115.1,286.0 118.2,286.0 121.2,286.0 124.3,286.0 127.3,286.0 130.4,286.0 133.4,286.0 136.5,286.0 139.5,286.0 142.6,286.0 145.6,286.0 148.7,286.0 151.7,286.0 154.8,286.0 157.8,286.0 160.9,286.0 163.9,286.0 167.0,286.0 170.0,286.0 173.0,286.0 176.1,286.0 179.1,286.0 182.2,286.0 185.2,286.0 188.3,286.0 191.3,286.0 194.4,286.0 197.4,286.0 200.5,286.0 203.5,286.0 206.6,286.0 209.6,286.0 212.7,286.0 215.7,286.0 218.8,286.0 221.8,286.0 224.9,286.0 227.9,286.0 231.0,286.0 234.0,286.0 237.0,286.0 240.1,286.0 243.1,286.0 246.2,286.0 249.2,286.0 252.3,286.0 255.3,280.0 258.4,286.0 261.4,286.0 264.5,286.0 267.5,286.0 270.6,286.0 273.6,286.0 276.7,286.0 279.7,286.0 282.8,286.0 285.8,286.0 288.9,286.0 291.9,286.0 295.0,286.0 298.0,286.0 301.0,286.0 304.1,286.0 307.1,286.0 310.2,286.0 313.2,286.0 316.3,286.0 319.3,286.0 322.4,286.0 325.4,286.0 328.5,286.0 331.5,286.0 334.6,286.0 337.6,286.0 340.7,286.0 343.7,286.0 346.8,286.0 349.8,286.0 352.9,286.0 355.9,286.0 359.0,286.0 362.0,286.0 365.0,286.0 368.1,286.0 371.1,286.0 374.2,286.0 377.2,286.0 380.3,286.0 383.3,286.0 386.4,286.0 389.4,286.0 392.5,286.0 395.5,286.0 398.6,286.0 401.6,286.0 404.7,286.0 407.7,286.0 410.8,286.0 413.8,286.0 416.9,286.0 419.9,286.0 423.0,286.0 426.0,286.0 429.0,286.0 432.1,286.0 435.1,286.0 438.2,286.0 441.2,286.0 444.3,286.0 447.3,286.0 450.4,286.0 453.4,286.0 456.5,286.0 459.5,286.0 462.6,286.0 465.6,286.0 468.7,286.0 471.7,286.0 474.8,286.0 477.8,286.0 480.9,286.0 483.9,286.0 487.0,286.0 490.0,286.0 493.0,286.0 496.1,286.0 499.1,286.0 502.2,286.0 505.2,286.0 508.3,286.0 511.3,286.0 514.4,286.0 517.4,286.0 520.5,280.0 523.5,286.0 526.6,286.0 529.6,286.0 532.7,286.0 535.7,286.0 538.8,286.0 541.8,286.0 544.9,286.0 547.9,286.0 551.0,286.0 554.0,286.0 557.0,286.0 560.1,286.0 563.1,286.0 566.2,286.0 569.2,286.0 572.3,286.0 575.3,286.0 578.4,286.0 581.4,286.0 584.5,286.0 587.5,286.0 590.6,286.0 593.6,286.0 596.7,286.0 599.7,286.0 602.8,286.0 605.8,286.0 608.9,286.0 611.9,286.0 615.0,286.0 618.0,286.0 621.0,286.0 624.1,286.0 627.1,286.0 630.2,286.0 633.2,286.0 636.3,286.0 639.3,286.0 642.4,286.0 645.4,286.0 648.5,286.0 651.5,286.0 654.6,286.0 657.6,286.0 660.7,286.0 663.7,286.0 666.8,286.0 669.8,286.0 672.9,286.0 675.9,286.0 679.0,286.0 682.0,286.0 685.0,286.0 688.1,286.0 691.1,286.0 694.2,286.0 697.2,280.0 700.3,286.0 703.3,286.0 706.4,286.0 709.4,286.0 712.5,286.0 715.5,286.0 718.6,286.0 721.6,286.0 724.7,286.0 727.7,280.0 730.8,286.0 733.8,286.0 736.9,286.0 739.9,286.0 743.0,286.0 746.0,286.0 749.0,286.0 752.1,286.0 755.1,286.0 758.2,286.0 761.2,286.0 764.3,286.0 767.3,286.0 770.4,286.0 773.4,286.0 776.5,286.0 779.5,286.0 782.6,286.0 785.6,286.0 788.7,286.0 791.7,286.0 794.8,286.0 797.8,286.0 800.9,286.0 803.9,286.0 807.0,286.0 810.0,286.0 813.0,286.0 816.1,280.0 819.1,286.0 822.2,286.0 825.2,286.0 828.3,286.0 831.3,286.0 834.4,286.0 837.4,280.0 840.5,286.0 843.5,286.0 846.6,286.0 849.6,286.0 852.7,286.0 855.7,286.0 858.8,286.0 861.8,286.0 864.9,286.0 867.9,286.0 871.0,286.0 874.0,286.0 877.0,286.0 880.1,286.0 883.1,286.0 886.2,286.0 889.2,280.0 892.3,286.0 895.3,286.0 898.4,286.0 901.4,286.0 904.5,286.0 907.5,286.0 910.6,286.0 913.6,286.0 916.7,286.0 919.7,286.0 922.8,286.0 925.8,286.0 928.9,286.0 931.9,286.0 935.0,286.0 938.0,286.0"/><text x="42" y="308" font-size="11" fill="#9fb0d4">19/06 12:43</text><text x="938" y="308" text-anchor="end" font-size="11" fill="#9fb0d4">05/07 23:29</text></svg>