<svg xmlns="http://www.w3.org/2000/svg" viewBox="0 0 960 320" width="960" height="320" font-family="Segoe UI, system-ui, -apple-system, Roboto, Helvetica, Arial, sans-serif" role="img" aria-label="Availability history per region"><rect x="0.5" y="0.5" width="959" height="319" rx="14" fill="#0d1117" stroke="#2c3a5e"/><text x="42" y="26" font-size="14" font-weight="600" fill="#e6ecff">History · 311 points</text><circle cx="47" cy="40" r="5" fill="#22c55e"/><text x="57" y="44" font-size="12" fill="#9fb0d4">Available</text><circle cx="139.8" cy="40" r="5" fill="#f59e0b"/><text x="149.8" y="44" font-size="12" fill="#9fb0d4">Saturated</text><circle cx="232.60000000000002" cy="40" r="5" fill="#ef4444"/><text x="242.60000000000002" y="44" font-size="12" fill="#9fb0d4">Error</text><circle cx="296.6" cy="40" r="5" fill="#a855f7"/><text x="306.6" y="44" font-size="12" fill="#9fb0d4">Timeout</text><line x1="42" y1="286.0" x2="938" y2="286.0" stroke="#21304f" stroke-width="1"/><text x="35" y="289.0" text-anchor="end" font-size="11" fill="#9fb0d4">0</text><line x1="42" y1="227.5" x2="938" y2="227.5" stroke="#21304f" stroke-width="1"/><text x="35" y="230.5" text-anchor="end" font-size="11" fill="#9fb0d4">10</text><line x1="42" y1="169.0" x2="938" y2="169.0" stroke="#21304f" stroke-width="1"/><text x="35" y="172.0" text-anchor="end" font-size="11" fill="#9fb0d4">20</text><line x1="42" y1="110.5" x2="938" y2="110.5" stroke="#21304f" stroke-width="1"/><text x="35" y="113.5" text-anchor="end" font-size="11" fill="#9fb0d4">29</text><line x1="42" y1="52.0" x2="938" y2="52.0" stroke="#21304f" stroke-width="1"/><text x="35" y="55.0" text-anchor="end" font-size="11" fill="#9fb0d4">39</text><polyline fill="none" stroke="#22c55e" stroke-width="2.5" stroke-linejoin="round" stroke-linecap="round" points="42.0,70.0 44.9,70.0 47.8,88.0 50.7,88.0 53.6,76.0 56.5,76.0 59.3,76.0 62.2,70.0 65.1,76.0 68.0,70.0 70.9,64.0 73.8,58.0 76.7,58.0 79.6,58.0 82.5,58.0 85.4,58.0 88.2,58.0 91.1,58.0 94.0,58.0 96.9,58.0 99.8,58.0 102.7,58.0 105.6,58.0 108.5,58.0 111.4,58.0 114.3,58.0 117.1,58.0 120.0,58.0 122.9,58.0 125.8,58.0 128.7,58.0 131.6,70.0 134.5,76.0 137.4,94.0 140.3,64.0 143.2,64.0 146.1,58.0 148.9,58.0 151.8,58.0 154.7,70.0 157.6,76.0 160.5,76.0 163.4,82.0 166.3,82.0 169.2,82.0 172.1,82.0 175.0,76.0 177.8,64.0 180.7,70.0 183.6,70.0 186.5,82.0 189.4,76.0 192.3,76.0 195.2,82.0 198.1,76.0 201.0,76.0 203.9,76.0 206.7,64.0 209.6,64.0 212.5,76.0 215.4,76.0 218.3,76.0 221.2,88.0 224.1,70.0 227.0,64.0 229.9,58.0 232.8,58.0 235.7,70.0 238.5,70.0 241.4,70.0 244.3,76.0 247.2,70.0 250.1,70.0 253.0,70.0 255.9,70.0 258.8,76.0 261.7,82.0 264.6,76.0 267.4,70.0 270.3,70.0 273.2,70.0 276.1,70.0 279.0,76.0 281.9,70.0 284.8,70.0 287.7,70.0 290.6,70.0 293.5,70.0 296.3,70.0 299.2,70.0 302.1,70.0 305.0,70.0 307.9,70.0 310.8,70.0 313.7,70.0 316.6,70.0 319.5,70.0 322.4,70.0 325.3,70.0 328.1,70.0 331.0,70.0 333.9,70.0 336.8,70.0 339.7,70.0 342.6,70.0 345.5,70.0 348.4,70.0 351.3,70.0 354.2,70.0 357.0,70.0 359.9,70.0 362.8,70.0 365.7,70.0 368.6,70.0 371.5,70.0 374.4,70.0 377.3,70.0 380.2,70.0 383.1,70.0 385.9,70.0 388.8,70.0 391.7,70.0 394.6,70.0 397.5,70.0 400.4,70.0 403.3,70.0 406.2,70.0 409.1,70.0 412.0,70.0 414.9,70.0 417.7,70.0 420.6,70.0 423.5,70.0 426.4,70.0 429.3,70.0 432.2,70.0 435.1,70.0 438.0,70.0 440.9,70.0 443.8,70.0 446.6,70.0 449.5,70.0 452.4,70.0 455.3,70.0 458.2,70.0 461.1,70.0 464.0,70.0 466.9,70.0 469.8,70.0 472.7,70.0 475.5,70.0 478.4,76.0 481.3,70.0 484.2,70.0 487.1,70.0 490.0,70.0 492.9,70.0 495.8,76.0 498.7,76.0 501.6,88.0 504.5,88.0 507.3,88.0 510.2,94.0 513.1,94.0 516.0,94.0 518.9,94.0 521.8,88.0 524.7,88.0 527.6,82.0 530.5,82.0 533.4,82.0 536.2,88.0 539.1,88.0 542.0,94.0 544.9,82.0 547.8,82.0 550.7,82.0 553.6,82.0 556.5,88.0 559.4,88.0 562.3,94.0 565.1,94.0 568.0,88.0 570.9,88.0 573.8,88.0 576.7,94.0 579.6,94.0 582.5,106.0 585.4,94.0 588.3,94.0 591.2,94.0 594.1,94.0 596.9,88.0 599.8,88.0 602.7,82.0 605.6,76.0 608.5,76.0 611.4,76.0 614.3,76.0 617.2,76.0 620.1,76.0 623.0,70.0 625.8,70.0 628.7,70.0 631.6,76.0 634.5,88.0 637.4,82.0 640.3,70.0 643.2,70.0 646.1,70.0 649.0,76.0 651.9,76.0 654.7,76.0 657.6,82.0 660.5,70.0 663.4,76.0 666.3,64.0 669.2,70.0 672.1,58.0 675.0,58.0 677.9,58.0 680.8,58.0 683.7,58.0 686.5,64.0 689.4,58.0 692.3,64.0 695.2,58.0 698.1,58.0 701.0,58.0 703.9,58.0 706.8,64.0 709.7,64.0 712.6,64.0 715.4,76.0 718.3,70.0 721.2,82.0 724.1,70.0 727.0,76.0 729.9,58.0 732.8,64.0 735.7,58.0 738.6,64.0 741.5,58.0 744.3,58.0 747.2,58.0 750.1,64.0 753.0,70.0 755.9,64.0 758.8,64.0 761.7,64.0 764.6,70.0 767.5,70.0 770.4,64.0 773.3,70.0 776.1,70.0 779.0,70.0 781.9,58.0 784.8,58.0 787.7,58.0 790.6,58.0 793.5,58.0 796.4,64.0 799.3,58.0 802.2,58.0 805.0,58.0 807.9,58.0 810.8,58.0 813.7,58.0 816.6,58.0 819.5,58.0 822.4,64.0 825.3,58.0 828.2,58.0 831.1,58.0 833.9,58.0 836.8,58.0 839.7,58.0 842.6,58.0 845.5,64.0 848.4,58.0 851.3,58.0 854.2,58.0 857.1,58.0 860.0,58.0 862.9,58.0 865.7,58.0 868.6,58.0 871.5,58.0 874.4,58.0 877.3,58.0 880.2,58.0 883.1,58.0 886.0,58.0 888.9,58.0 891.8,58.0 894.6,58.0 897.5,58.0 900.4,58.0 903.3,64.0 906.2,64.0 909.1,58.0 912.0,58.0 914.9,58.0 917.8,64.0 920.7,64.0 923.5,76.0 926.4,64.0 929.3,64.0 932.2,70.0 935.1,58.0 938.0,58.0"/><polyline fill="none" stroke="#f59e0b" stroke-width="2.5" stroke-linejoin="round" stroke-linecap="round" points="42.0,274.0 44.9,274.0 47.8,274.0 50.7,280.0 53.6,268.0 56.5,268.0 59.3,268.0 62.2,274.0 65.1,274.0 68.0,274.0 70.9,280.0 73.8,286.0 76.7,286.0 79.6,286.0 82.5,286.0 85.4,286.0 88.2,286.0 91.1,286.0 94.0,286.0 96.9,286.0 99.8,286.0 102.7,286.0 105.6,286.0 108.5,286.0 111.4,286.0 114.3,286.0 117.1,286.0 120.0,286.0 122.9,286.0 125.8,286.0 128.7,286.0 131.6,274.0 134.5,280.0 137.4,280.0 140.3,280.0 143.2,280.0 146.1,286.0 148.9,286.0 151.8,286.0 154.7,274.0 157.6,268.0 160.5,268.0 163.4,262.0 166.3,262.0 169.2,262.0 172.1,262.0 175.0,268.0 177.8,280.0 180.7,280.0 183.6,274.0 186.5,262.0 189.4,268.0 192.3,268.0 195.2,262.0 198.1,268.0 201.0,268.0 203.9,268.0 206.7,280.0 209.6,280.0 212.5,268.0 215.4,268.0 218.3,268.0 221.2,262.0 224.1,274.0 227.0,280.0 229.9,286.0 232.8,286.0 235.7,274.0 238.5,274.0 241.4,274.0 244.3,274.0 247.2,274.0 250.1,274.0 253.0,274.0 255.9,274.0 258.8,280.0 261.7,274.0 264.6,280.0 267.4,286.0 270.3,286.0 273.2,286.0 276.1,286.0 279.0,280.0 281.9,286.0 284.8,286.0 287.7,286.0 290.6,286.0 293.5,286.0 296.3,286.0 299.2,286.0 302.1,286.0 305.0,286.0 307.9,286.0 310.8,286.0 313.7,286.0 316.6,286.0 319.5,286.0 322.4,286.0 325.3,286.0 328.1,286.0 331.0,286.0 333.9,286.0 336.8,286.0 339.7,286.0 342.6,286.0 345.5,286.0 348.4,286.0 351.3,286.0 354.2,286.0 357.0,286.0 359.9,286.0 362.8,286.0 365.7,286.0 368.6,286.0 371.5,286.0 374.4,286.0 377.3,286.0 380.2,286.0 383.1,286.0 385.9,286.0 388.8,286.0 391.7,286.0 394.6,286.0 397.5,286.0 400.4,286.0 403.3,286.0 406.2,286.0 409.1,286.0 412.0,286.0 414.9,286.0 417.7,286.0 420.6,286.0 423.5,286.0 426.4,286.0 429.3,286.0 432.2,286.0 435.1,286.0 438.0,286.0 440.9,286.0 443.8,286.0 446.6,286.0 449.5,286.0 452.4,286.0 455.3,286.0 458.2,286.0 461.1,286.0 464.0,286.0 466.9,286.0 469.8,286.0 472.7,286.0 475.5,286.0 478.4,286.0 481.3,286.0 484.2,286.0 487.1,286.0 490.0,286.0 492.9,286.0 495.8,286.0 498.7,280.0 501.6,268.0 504.5,268.0 507.3,268.0 510.2,268.0 513.1,262.0 516.0,262.0 518.9,262.0 521.8,268.0 524.7,268.0 527.6,274.0 530.5,274.0 533.4,274.0 536.2,268.0 539.1,268.0 542.0,268.0 544.9,274.0 547.8,274.0 550.7,274.0 553.6,274.0 556.5,268.0 559.4,268.0 562.3,262.0 565.1,262.0 568.0,268.0 570.9,268.0 573.8,268.0 576.7,262.0 579.6,262.0 582.5,274.0 585.4,262.0 588.3,262.0 591.2,262.0 594.1,262.0 596.9,268.0 599.8,268.0 602.7,274.0 605.6,280.0 608.5,280.0 611.4,280.0 614.3,280.0 617.2,280.0 620.1,280.0 623.0,286.0 625.8,286.0 628.7,286.0 631.6,280.0 634.5,274.0 637.4,274.0 640.3,280.0 643.2,274.0 646.1,274.0 649.0,268.0 651.9,268.0 654.7,268.0 657.6,268.0 660.5,280.0 663.4,274.0 666.3,280.0 669.2,280.0 672.1,286.0 675.0,286.0 677.9,286.0 680.8,286.0 683.7,286.0 686.5,286.0 689.4,286.0 692.3,286.0 695.2,286.0 698.1,286.0 701.0,286.0 703.9,286.0 706.8,280.0 709.7,280.0 712.6,280.0 715.4,268.0 718.3,280.0 721.2,268.0 724.1,274.0 727.0,274.0 729.9,286.0 732.8,280.0 735.7,286.0 738.6,280.0 741.5,286.0 744.3,286.0 747.2,286.0 750.1,280.0 753.0,274.0 755.9,280.0 758.8,280.0 761.7,280.0 764.6,274.0 767.5,274.0 770.4,280.0 773.3,280.0 776.1,280.0 779.0,280.0 781.9,286.0 784.8,286.0 787.7,286.0 790.6,286.0 793.5,286.0 796.4,286.0 799.3,286.0 802.2,286.0 805.0,286.0 807.9,286.0 810.8,286.0 813.7,286.0 816.6,286.0 819.5,286.0 822.4,286.0 825.3,286.0 828.2,286.0 831.1,286.0 833.9,286.0 836.8,286.0 839.7,286.0 842.6,286.0 845.5,286.0 848.4,286.0 851.3,286.0 854.2,286.0 857.1,286.0 860.0,286.0 862.9,286.0 865.7,286.0 868.6,286.0 871.5,286.0 874.4,286.0 877.3,286.0 880.2,286.0 883.1,286.0 886.0,286.0 888.9,286.0 891.8,286.0 894.6,286.0 897.5,286.0 900.4,286.0 903.3,286.0 906.2,286.0 909.1,286.0 912.0,286.0 914.9,286.0 917.8,280.0 920.7,280.0 923.5,280.0 926.4,280.0 929.3,280.0 932.2,274.0 935.1,286.0 938.0,286.0"/><polyline fill="none" stroke="#ef4444" stroke-width="2.5" stroke-linejoin="round" stroke-linecap="round" points="42.0,280.0 44.9,280.0 47.8,268.0 50.7,262.0 53.6,286.0 56.5,286.0 59.3,286.0 62.2,286.0 65.1,280.0 68.0,286.0 70.9,286.0 73.8,286.0 76.7,286.0 79.6,286.0 82.5,286.0 85.4,286.0 88.2,286.0 91.1,286.0 94.0,286.0 96.9,286.0 99.8,286.0 102.7,286.0 105.6,286.0 108.5,286.0 111.4,286.0 114.3,286.0 117.1,286.0 120.0,286.0 122.9,286.0 125.8,286.0 128.7,286.0 131.6,286.0 134.5,274.0 137.4,256.0 140.3,286.0 143.2,286.0 146.1,286.0 148.9,286.0 151.8,286.0 154.7,286.0 157.6,286.0 160.5,286.0 163.4,286.0 166.3,286.0 169.2,286.0 172.1,286.0 175.0,286.0 177.8,286.0 180.7,280.0 183.6,286.0 186.5,286.0 189.4,286.0 192.3,286.0 195.2,286.0 198.1,286.0 201.0,286.0 203.9,286.0 206.7,286.0 209.6,286.0 212.5,286.0 215.4,286.0 218.3,286.0 221.2,280.0 224.1,286.0 227.0,286.0 229.9,286.0 232.8,286.0 235.7,286.0 238.5,286.0 241.4,286.0 244.3,286.0 247.2,286.0 250.1,286.0 253.0,286.0 255.9,286.0 258.8,274.0 261.7,274.0 264.6,274.0 267.4,274.0 270.3,274.0 273.2,274.0 276.1,274.0 279.0,274.0 281.9,274.0 284.8,274.0 287.7,274.0 290.6,274.0 293.5,274.0 296.3,274.0 299.2,274.0 302.1,274.0 305.0,274.0 307.9,274.0 310.8,274.0 313.7,274.0 316.6,274.0 319.5,274.0 322.4,274.0 325.3,274.0 328.1,274.0 331.0,274.0 333.9,274.0 336.8,274.0 339.7,274.0 342.6,274.0 345.5,274.0 348.4,274.0 351.3,274.0 354.2,274.0 357.0,274.0 359.9,274.0 362.8,274.0 365.7,274.0 368.6,274.0 371.5,274.0 374.4,274.0 377.3,274.0 380.2,274.0 383.1,274.0 385.9,274.0 388.8,274.0 391.7,274.0 394.6,274.0 397.5,274.0 400.4,274.0 403.3,274.0 406.2,274.0 409.1,274.0 412.0,274.0 414.9,274.0 417.7,274.0 420.6,274.0 423.5,274.0 426.4,274.0 429.3,274.0 432.2,274.0 435.1,274.0 438.0,274.0 440.9,274.0 443.8,274.0 446.6,274.0 449.5,274.0 452.4,274.0 455.3,274.0 458.2,274.0 461.1,274.0 464.0,274.0 466.9,274.0 469.8,274.0 472.7,274.0 475.5,274.0 478.4,268.0 481.3,274.0 484.2,274.0 487.1,274.0 490.0,274.0 492.9,274.0 495.8,274.0 498.7,274.0 501.6,274.0 504.5,274.0 507.3,274.0 510.2,268.0 513.1,274.0 516.0,274.0 518.9,274.0 521.8,274.0 524.7,274.0 527.6,274.0 530.5,274.0 533.4,274.0 536.2,274.0 539.1,274.0 542.0,268.0 544.9,274.0 547.8,274.0 550.7,274.0 553.6,274.0 556.5,274.0 559.4,274.0 562.3,274.0 565.1,274.0 568.0,274.0 570.9,274.0 573.8,274.0 576.7,274.0 579.6,274.0 582.5,250.0 585.4,274.0 588.3,274.0 591.2,274.0 594.1,274.0 596.9,274.0 599.8,274.0 602.7,274.0 605.6,274.0 608.5,274.0 611.4,274.0 614.3,274.0 617.2,274.0 620.1,274.0 623.0,274.0 625.8,274.0 628.7,274.0 631.6,274.0 634.5,268.0 637.4,274.0 640.3,280.0 643.2,286.0 646.1,286.0 649.0,286.0 651.9,286.0 654.7,286.0 657.6,280.0 660.5,280.0 663.4,286.0 666.3,286.0 669.2,280.0 672.1,286.0 675.0,286.0 677.9,286.0 680.8,286.0 683.7,286.0 686.5,280.0 689.4,286.0 692.3,286.0 695.2,286.0 698.1,286.0 701.0,286.0 703.9,286.0 706.8,286.0 709.7,286.0 712.6,286.0 715.4,286.0 718.3,280.0 721.2,280.0 724.1,286.0 727.0,280.0 729.9,286.0 732.8,286.0 735.7,286.0 738.6,286.0 741.5,286.0 744.3,286.0 747.2,286.0 750.1,286.0 753.0,286.0 755.9,286.0 758.8,286.0 761.7,286.0 764.6,286.0 767.5,286.0 770.4,286.0 773.3,280.0 776.1,286.0 779.0,280.0 781.9,286.0 784.8,286.0 787.7,286.0 790.6,286.0 793.5,286.0 796.4,286.0 799.3,286.0 802.2,286.0 805.0,286.0 807.9,286.0 810.8,286.0 813.7,286.0 816.6,286.0 819.5,286.0 822.4,280.0 825.3,286.0 828.2,286.0 831.1,286.0 833.9,286.0 836.8,286.0 839.7,286.0 842.6,286.0 845.5,286.0 848.4,286.0 851.3,286.0 854.2,286.0 857.1,286.0 860.0,286.0 862.9,286.0 865.7,286.0 868.6,286.0 871.5,286.0 874.4,286.0 877.3,286.0 880.2,286.0 883.1,286.0 886.0,286.0 888.9,286.0 891.8,286.0 894.6,286.0 897.5,286.0 900.4,286.0 903.3,280.0 906.2,280.0 909.1,286.0 912.0,286.0 914.9,286.0 917.8,286.0 920.7,286.0 923.5,274.0 926.4,286.0 929.3,286.0 932.2,286.0 935.1,286.0 938.0,286.0"/><polyline fill="none" stroke="#a855f7" stroke-width="2.5" stroke-linejoin="round" stroke-linecap="round" points="42.0,286.0 44.9,286.0 47.8,286.0 50.7,286.0 53.6,286.0 56.5,286.0 59.3,286.0 62.2,286.0 65.1,286.0 68.0,286.0 70.9,286.0 73.8,286.0 76.7,286.0 79.6,286.0 82.5,286.0 85.4,286.0 88.2,286.0 91.1,286.0 94.0,286.0 96.9,286.0 99.8,286.0 102.7,286.0 105.6,286.0 108.5,286.0 111.4,286.0 114.3,286.0 117.1,286.0 120.0,286.0 122.9,286.0 125.8,286.0 128.7,286.0 131.6,286.0 134.5,286.0 137.4,286.0 140.3,286.0 143.2,286.0 146.1,286.0 148.9,286.0 151.8,286.0 154.7,286.0 157.6,286.0 160.5,286.0 163.4,286.0 166.3,286.0 169.2,286.0 172.1,286.0 175.0,286.0 177.8,286.0 180.7,286.0 183.6,286.0 186.5,286.0 189.4,286.0 192.3,286.0 195.2,286.0 198.1,286.0 201.0,286.0 203.9,286.0 206.7,286.0 209.6,286.0 212.5,286.0 215.4,286.0 218.3,286.0 221.2,286.0 224.1,286.0 227.0,286.0 229.9,286.0 232.8,286.0 235.7,286.0 238.5,286.0 241.4,286.0 244.3,280.0 247.2,286.0 250.1,286.0 253.0,286.0 255.9,286.0 258.8,286.0 261.7,286.0 264.6,286.0 267.4,286.0 270.3,286.0 273.2,286.0 276.1,286.0 279.0,286.0 281.9,286.0 284.8,286.0 287.7,286.0 290.6,286.0 293.5,286.0 296.3,286.0 299.2,286.0 302.1,286.0 305.0,286.0 307.9,286.0 310.8,286.0 313.7,286.0 316.6,286.0 319.5,286.0 322.4,286.0 325.3,286.0 328.1,286.0 331.0,286.0 333.9,286.0 336.8,286.0 339.7,286.0 342.6,286.0 345.5,286.0 348.4,286.0 351.3,286.0 354.2,286.0 357.0,286.0 359.9,286.0 362.8,286.0 365.7,286.0 368.6,286.0 371.5,286.0 374.4,286.0 377.3,286.0 380.2,286.0 383.1,286.0 385.9,286.0 388.8,286.0 391.7,286.0 394.6,286.0 397.5,286.0 400.4,286.0 403.3,286.0 406.2,286.0 409.1,286.0 412.0,286.0 414.9,286.0 417.7,286.0 420.6,286.0 423.5,286.0 426.4,286.0 429.3,286.0 432.2,286.0 435.1,286.0 438.0,286.0 440.9,286.0 443.8,286.0 446.6,286.0 449.5,286.0 452.4,286.0 455.3,286.0 458.2,286.0 461.1,286.0 464.0,286.0 466.9,286.0 469.8,286.0 472.7,286.0 475.5,286.0 478.4,286.0 481.3,286.0 484.2,286.0 487.1,286.0 490.0,286.0 492.9,286.0 495.8,280.0 498.7,286.0 501.6,286.0 504.5,286.0 507.3,286.0 510.2,286.0 513.1,286.0 516.0,286.0 518.9,286.0 521.8,286.0 524.7,286.0 527.6,286.0 530.5,286.0 533.4,286.0 536.2,286.0 539.1,286.0 542.0,286.0 544.9,286.0 547.8,286.0 550.7,286.0 553.6,286.0 556.5,286.0 559.4,286.0 562.3,286.0 565.1,286.0 568.0,286.0 570.9,286.0 573.8,286.0 576.7,286.0 579.6,286.0 582.5,286.0 585.4,286.0 588.3,286.0 591.2,286.0 594.1,286.0 596.9,286.0 599.8,286.0 602.7,286.0 605.6,286.0 608.5,286.0 611.4,286.0 614.3,286.0 617.2,286.0 620.1,286.0 623.0,286.0 625.8,286.0 628.7,286.0 631.6,286.0 634.5,286.0 637.4,286.0 640.3,286.0 643.2,286.0 646.1,286.0 649.0,286.0 651.9,286.0 654.7,286.0 657.6,286.0 660.5,286.0 663.4,280.0 666.3,286.0 669.2,286.0 672.1,286.0 675.0,286.0 677.9,286.0 680.8,286.0 683.7,286.0 686.5,286.0 689.4,286.0 692.3,280.0 695.2,286.0 698.1,286.0 701.0,286.0 703.9,286.0 706.8,286.0 709.7,286.0 712.6,286.0 715.4,286.0 718.3,286.0 721.2,286.0 724.1,286.0 727.0,286.0 729.9,286.0 732.8,286.0 735.7,286.0 738.6,286.0 741.5,286.0 744.3,286.0 747.2,286.0 750.1,286.0 753.0,286.0 755.9,286.0 758.8,286.0 761.7,286.0 764.6,286.0 767.5,286.0 770.4,286.0 773.3,286.0 776.1,280.0 779.0,286.0 781.9,286.0 784.8,286.0 787.7,286.0 790.6,286.0 793.5,286.0 796.4,280.0 799.3,286.0 802.2,286.0 805.0,286.0 807.9,286.0 810.8,286.0 813.7,286.0 816.6,286.0 819.5,286.0 822.4,286.0 825.3,286.0 828.2,286.0 831.1,286.0 833.9,286.0 836.8,286.0 839.7,286.0 842.6,286.0 845.5,280.0 848.4,286.0 851.3,286.0 854.2,286.0 857.1,286.0 860.0,286.0 862.9,286.0 865.7,286.0 868.6,286.0 871.5,286.0 874.4,286.0 877.3,286.0 880.2,286.0 883.1,286.0 886.0,286.0 888.9,286.0 891.8,286.0 894.6,286.0 897.5,286.0 900.4,286.0 903.3,286.0 906.2,286.0 909.1,286.0 912.0,286.0 914.9,286.0 917.8,286.0 920.7,286.0 923.5,286.0 926.4,286.0 929.3,286.0 932.2,286.0 935.1,286.0 938.0,286.0"/><text x="42" y="308" font-size="11" fill="#9fb0d4">19/06 12:43</text><text x="938" y="308" text-anchor="end" font-size="11" fill="#9fb0d4">06/07 20:30</text></svg>