<svg xmlns="http://www.w3.org/2000/svg" viewBox="0 0 960 320" width="960" height="320" font-family="Segoe UI, system-ui, -apple-system, Roboto, Helvetica, Arial, sans-serif" role="img" aria-label="Availability history per region"><rect x="0.5" y="0.5" width="959" height="319" rx="14" fill="#0d1117" stroke="#2c3a5e"/><text x="42" y="26" font-size="14" font-weight="600" fill="#e6ecff">History · 20 points</text><circle cx="47" cy="40" r="5" fill="#22c55e"/><text x="57" y="44" font-size="12" fill="#9fb0d4">Available</text><circle cx="139.8" cy="40" r="5" fill="#f59e0b"/><text x="149.8" y="44" font-size="12" fill="#9fb0d4">Saturated</text><circle cx="232.60000000000002" cy="40" r="5" fill="#ef4444"/><text x="242.60000000000002" y="44" font-size="12" fill="#9fb0d4">Error</text><line x1="42" y1="286.0" x2="938" y2="286.0" stroke="#21304f" stroke-width="1"/><text x="35" y="289.0" text-anchor="end" font-size="11" fill="#9fb0d4">0</text><line x1="42" y1="227.5" x2="938" y2="227.5" stroke="#21304f" stroke-width="1"/><text x="35" y="230.5" text-anchor="end" font-size="11" fill="#9fb0d4">10</text><line x1="42" y1="169.0" x2="938" y2="169.0" stroke="#21304f" stroke-width="1"/><text x="35" y="172.0" text-anchor="end" font-size="11" fill="#9fb0d4">19</text><line x1="42" y1="110.5" x2="938" y2="110.5" stroke="#21304f" stroke-width="1"/><text x="35" y="113.5" text-anchor="end" font-size="11" fill="#9fb0d4">28</text><line x1="42" y1="52.0" x2="938" y2="52.0" stroke="#21304f" stroke-width="1"/><text x="35" y="55.0" text-anchor="end" font-size="11" fill="#9fb0d4">38</text><polyline fill="none" stroke="#22c55e" stroke-width="2.5" stroke-linejoin="round" stroke-linecap="round" points="42.0,64.3 89.2,224.4 136.3,82.8 183.5,88.9 230.6,82.8 277.8,76.6 324.9,76.6 372.1,76.6 419.3,76.6 466.4,76.6 513.6,76.6 560.7,76.6 607.9,76.6 655.1,76.6 702.2,76.6 749.4,70.5 796.5,70.5 843.7,82.8 890.8,82.8 938.0,82.8"/><circle cx="42.0" cy="64.3" r="2.5" fill="#22c55e"/><circle cx="89.2" cy="224.4" r="2.5" fill="#22c55e"/><circle cx="136.3" cy="82.8" r="2.5" fill="#22c55e"/><circle cx="183.5" cy="88.9" r="2.5" fill="#22c55e"/><circle cx="230.6" cy="82.8" r="2.5" fill="#22c55e"/><circle cx="277.8" cy="76.6" r="2.5" fill="#22c55e"/><circle cx="324.9" cy="76.6" r="2.5" fill="#22c55e"/><circle cx="372.1" cy="76.6" r="2.5" fill="#22c55e"/><circle cx="419.3" cy="76.6" r="2.5" fill="#22c55e"/><circle cx="466.4" cy="76.6" r="2.5" fill="#22c55e"/><circle cx="513.6" cy="76.6" r="2.5" fill="#22c55e"/><circle cx="560.7" cy="76.6" r="2.5" fill="#22c55e"/><circle cx="607.9" cy="76.6" r="2.5" fill="#22c55e"/><circle cx="655.1" cy="76.6" r="2.5" fill="#22c55e"/><circle cx="702.2" cy="76.6" r="2.5" fill="#22c55e"/><circle cx="749.4" cy="70.5" r="2.5" fill="#22c55e"/><circle cx="796.5" cy="70.5" r="2.5" fill="#22c55e"/><circle cx="843.7" cy="82.8" r="2.5" fill="#22c55e"/><circle cx="890.8" cy="82.8" r="2.5" fill="#22c55e"/><circle cx="938.0" cy="82.8" r="2.5" fill="#22c55e"/><polyline fill="none" stroke="#f59e0b" stroke-width="2.5" stroke-linejoin="round" stroke-linecap="round" points="42.0,273.7 89.2,267.5 136.3,255.2 183.5,249.1 230.6,255.2 277.8,261.4 324.9,261.4 372.1,261.4 419.3,261.4 466.4,261.4 513.6,261.4 560.7,261.4 607.9,261.4 655.1,261.4 702.2,261.4 749.4,267.5 796.5,267.5 843.7,261.4 890.8,255.2 938.0,255.2"/><circle cx="42.0" cy="273.7" r="2.5" fill="#f59e0b"/><circle cx="89.2" cy="267.5" r="2.5" fill="#f59e0b"/><circle cx="136.3" cy="255.2" r="2.5" fill="#f59e0b"/><circle cx="183.5" cy="249.1" r="2.5" fill="#f59e0b"/><circle cx="230.6" cy="255.2" r="2.5" fill="#f59e0b"/><circle cx="277.8" cy="261.4" r="2.5" fill="#f59e0b"/><circle cx="324.9" cy="261.4" r="2.5" fill="#f59e0b"/><circle cx="372.1" cy="261.4" r="2.5" fill="#f59e0b"/><circle cx="419.3" cy="261.4" r="2.5" fill="#f59e0b"/><circle cx="466.4" cy="261.4" r="2.5" fill="#f59e0b"/><circle cx="513.6" cy="261.4" r="2.5" fill="#f59e0b"/><circle cx="560.7" cy="261.4" r="2.5" fill="#f59e0b"/><circle cx="607.9" cy="261.4" r="2.5" fill="#f59e0b"/><circle cx="655.1" cy="261.4" r="2.5" fill="#f59e0b"/><circle cx="702.2" cy="261.4" r="2.5" fill="#f59e0b"/><circle cx="749.4" cy="267.5" r="2.5" fill="#f59e0b"/><circle cx="796.5" cy="267.5" r="2.5" fill="#f59e0b"/><circle cx="843.7" cy="261.4" r="2.5" fill="#f59e0b"/><circle cx="890.8" cy="255.2" r="2.5" fill="#f59e0b"/><circle cx="938.0" cy="255.2" r="2.5" fill="#f59e0b"/><polyline fill="none" stroke="#ef4444" stroke-width="2.5" stroke-linejoin="round" stroke-linecap="round" points="42.0,286.0 89.2,132.1 136.3,286.0 183.5,286.0 230.6,286.0 277.8,286.0 324.9,286.0 372.1,286.0 419.3,286.0 466.4,286.0 513.6,286.0 560.7,286.0 607.9,286.0 655.1,286.0 702.2,286.0 749.4,286.0 796.5,286.0 843.7,279.8 890.8,286.0 938.0,286.0"/><circle cx="42.0" cy="286.0" r="2.5" fill="#ef4444"/><circle cx="89.2" cy="132.1" r="2.5" fill="#ef4444"/><circle cx="136.3" cy="286.0" r="2.5" fill="#ef4444"/><circle cx="183.5" cy="286.0" r="2.5" fill="#ef4444"/><circle cx="230.6" cy="286.0" r="2.5" fill="#ef4444"/><circle cx="277.8" cy="286.0" r="2.5" fill="#ef4444"/><circle cx="324.9" cy="286.0" r="2.5" fill="#ef4444"/><circle cx="372.1" cy="286.0" r="2.5" fill="#ef4444"/><circle cx="419.3" cy="286.0" r="2.5" fill="#ef4444"/><circle cx="466.4" cy="286.0" r="2.5" fill="#ef4444"/><circle cx="513.6" cy="286.0" r="2.5" fill="#ef4444"/><circle cx="560.7" cy="286.0" r="2.5" fill="#ef4444"/><circle cx="607.9" cy="286.0" r="2.5" fill="#ef4444"/><circle cx="655.1" cy="286.0" r="2.5" fill="#ef4444"/><circle cx="702.2" cy="286.0" r="2.5" fill="#ef4444"/><circle cx="749.4" cy="286.0" r="2.5" fill="#ef4444"/><circle cx="796.5" cy="286.0" r="2.5" fill="#ef4444"/><circle cx="843.7" cy="279.8" r="2.5" fill="#ef4444"/><circle cx="890.8" cy="286.0" r="2.5" fill="#ef4444"/><circle cx="938.0" cy="286.0" r="2.5" fill="#ef4444"/><text x="42" y="308" font-size="11" fill="#9fb0d4">19/06 15:39</text><text x="938" y="308" text-anchor="end" font-size="11" fill="#9fb0d4">17/07 09:30</text></svg>