<svg xmlns="http://www.w3.org/2000/svg" viewBox="0 0 960 320" width="960" height="320" font-family="Segoe UI, system-ui, -apple-system, Roboto, Helvetica, Arial, sans-serif" role="img" aria-label="Availability history per region"><rect x="0.5" y="0.5" width="959" height="319" rx="14" fill="#0d1117" stroke="#2c3a5e"/><text x="42" y="26" font-size="14" font-weight="600" fill="#e6ecff">History · 132 points</text><circle cx="47" cy="40" r="5" fill="#22c55e"/><text x="57" y="44" font-size="12" fill="#9fb0d4">Available</text><circle cx="139.8" cy="40" r="5" fill="#f59e0b"/><text x="149.8" y="44" font-size="12" fill="#9fb0d4">Saturated</text><circle cx="232.60000000000002" cy="40" r="5" fill="#ef4444"/><text x="242.60000000000002" y="44" font-size="12" fill="#9fb0d4">Error</text><circle cx="296.6" cy="40" r="5" fill="#a855f7"/><text x="306.6" y="44" font-size="12" fill="#9fb0d4">Timeout</text><line x1="42" y1="286.0" x2="938" y2="286.0" stroke="#21304f" stroke-width="1"/><text x="35" y="289.0" text-anchor="end" font-size="11" fill="#9fb0d4">0</text><line x1="42" y1="227.5" x2="938" y2="227.5" stroke="#21304f" stroke-width="1"/><text x="35" y="230.5" text-anchor="end" font-size="11" fill="#9fb0d4">10</text><line x1="42" y1="169.0" x2="938" y2="169.0" stroke="#21304f" stroke-width="1"/><text x="35" y="172.0" text-anchor="end" font-size="11" fill="#9fb0d4">19</text><line x1="42" y1="110.5" x2="938" y2="110.5" stroke="#21304f" stroke-width="1"/><text x="35" y="113.5" text-anchor="end" font-size="11" fill="#9fb0d4">28</text><line x1="42" y1="52.0" x2="938" y2="52.0" stroke="#21304f" stroke-width="1"/><text x="35" y="55.0" text-anchor="end" font-size="11" fill="#9fb0d4">38</text><polyline fill="none" stroke="#22c55e" stroke-width="2.5" stroke-linejoin="round" stroke-linecap="round" points="42.0,64.3 48.8,224.4 55.7,82.8 62.5,88.9 69.4,82.8 76.2,76.6 83.0,76.6 89.9,76.6 96.7,76.6 103.6,76.6 110.4,76.6 117.2,76.6 124.1,76.6 130.9,76.6 137.8,76.6 144.6,70.5 151.4,70.5 158.3,82.8 165.1,82.8 172.0,82.8 178.8,88.9 185.6,88.9 192.5,88.9 199.3,88.9 206.2,88.9 213.0,88.9 219.8,88.9 226.7,88.9 233.5,88.9 240.4,82.8 247.2,82.8 254.0,82.8 260.9,82.8 267.7,76.6 274.5,76.6 281.4,76.6 288.2,76.6 295.1,76.6 301.9,82.8 308.7,82.8 315.6,82.8 322.4,82.8 329.3,76.6 336.1,76.6 342.9,76.6 349.8,76.6 356.6,76.6 363.5,76.6 370.3,76.6 377.1,82.8 384.0,82.8 390.8,82.8 397.7,82.8 404.5,76.6 411.3,76.6 418.2,76.6 425.0,76.6 431.9,76.6 438.7,76.6 445.5,76.6 452.4,76.6 459.2,82.8 466.1,76.6 472.9,76.6 479.7,76.6 486.6,76.6 493.4,76.6 500.3,82.8 507.1,76.6 513.9,76.6 520.8,76.6 527.6,76.6 534.5,76.6 541.3,76.6 548.1,76.6 555.0,76.6 561.8,76.6 568.7,70.5 575.5,70.5 582.3,70.5 589.2,70.5 596.0,76.6 602.9,70.5 609.7,76.6 616.5,76.6 623.4,76.6 630.2,76.6 637.1,76.6 643.9,76.6 650.7,82.8 657.6,88.9 664.4,88.9 671.3,88.9 678.1,88.9 684.9,88.9 691.8,88.9 698.6,88.9 705.5,95.1 712.3,88.9 719.1,88.9 726.0,88.9 732.8,88.9 739.6,88.9 746.5,88.9 753.3,82.8 760.2,82.8 767.0,82.8 773.8,82.8 780.7,82.8 787.5,82.8 794.4,82.8 801.2,82.8 808.0,88.9 814.9,88.9 821.7,88.9 828.6,88.9 835.4,88.9 842.2,88.9 849.1,88.9 855.9,88.9 862.8,95.1 869.6,88.9 876.4,88.9 883.3,88.9 890.1,101.3 897.0,88.9 903.8,88.9 910.6,88.9 917.5,88.9 924.3,82.8 931.2,82.8 938.0,82.8"/><polyline fill="none" stroke="#f59e0b" stroke-width="2.5" stroke-linejoin="round" stroke-linecap="round" points="42.0,273.7 48.8,267.5 55.7,255.2 62.5,249.1 69.4,255.2 76.2,261.4 83.0,261.4 89.9,261.4 96.7,261.4 103.6,261.4 110.4,261.4 117.2,261.4 124.1,261.4 130.9,261.4 137.8,261.4 144.6,267.5 151.4,267.5 158.3,261.4 165.1,255.2 172.0,255.2 178.8,249.1 185.6,249.1 192.5,249.1 199.3,249.1 206.2,249.1 213.0,249.1 219.8,249.1 226.7,249.1 233.5,249.1 240.4,255.2 247.2,255.2 254.0,255.2 260.9,255.2 267.7,261.4 274.5,261.4 281.4,261.4 288.2,261.4 295.1,261.4 301.9,255.2 308.7,255.2 315.6,255.2 322.4,255.2 329.3,261.4 336.1,261.4 342.9,261.4 349.8,261.4 356.6,261.4 363.5,261.4 370.3,261.4 377.1,255.2 384.0,255.2 390.8,255.2 397.7,261.4 404.5,261.4 411.3,261.4 418.2,261.4 425.0,261.4 431.9,261.4 438.7,261.4 445.5,261.4 452.4,261.4 459.2,255.2 466.1,261.4 472.9,261.4 479.7,261.4 486.6,261.4 493.4,261.4 500.3,261.4 507.1,261.4 513.9,261.4 520.8,261.4 527.6,261.4 534.5,261.4 541.3,261.4 548.1,261.4 555.0,261.4 561.8,261.4 568.7,267.5 575.5,267.5 582.3,267.5 589.2,267.5 596.0,267.5 602.9,267.5 609.7,261.4 616.5,261.4 623.4,261.4 630.2,261.4 637.1,261.4 643.9,261.4 650.7,255.2 657.6,249.1 664.4,249.1 671.3,255.2 678.1,249.1 684.9,249.1 691.8,249.1 698.6,249.1 705.5,249.1 712.3,249.1 719.1,255.2 726.0,249.1 732.8,249.1 739.6,249.1 746.5,249.1 753.3,255.2 760.2,255.2 767.0,255.2 773.8,255.2 780.7,255.2 787.5,255.2 794.4,255.2 801.2,255.2 808.0,249.1 814.9,249.1 821.7,249.1 828.6,249.1 835.4,249.1 842.2,249.1 849.1,249.1 855.9,255.2 862.8,249.1 869.6,249.1 876.4,249.1 883.3,249.1 890.1,249.1 897.0,249.1 903.8,249.1 910.6,255.2 917.5,255.2 924.3,255.2 931.2,255.2 938.0,255.2"/><polyline fill="none" stroke="#ef4444" stroke-width="2.5" stroke-linejoin="round" stroke-linecap="round" points="42.0,286.0 48.8,132.1 55.7,286.0 62.5,286.0 69.4,286.0 76.2,286.0 83.0,286.0 89.9,286.0 96.7,286.0 103.6,286.0 110.4,286.0 117.2,286.0 124.1,286.0 130.9,286.0 137.8,286.0 144.6,286.0 151.4,286.0 158.3,279.8 165.1,286.0 172.0,286.0 178.8,286.0 185.6,286.0 192.5,286.0 199.3,286.0 206.2,286.0 213.0,286.0 219.8,286.0 226.7,286.0 233.5,286.0 240.4,286.0 247.2,286.0 254.0,286.0 260.9,286.0 267.7,286.0 274.5,286.0 281.4,286.0 288.2,286.0 295.1,286.0 301.9,286.0 308.7,286.0 315.6,286.0 322.4,286.0 329.3,286.0 336.1,286.0 342.9,286.0 349.8,286.0 356.6,286.0 363.5,286.0 370.3,286.0 377.1,286.0 384.0,286.0 390.8,286.0 397.7,286.0 404.5,286.0 411.3,286.0 418.2,286.0 425.0,286.0 431.9,286.0 438.7,286.0 445.5,286.0 452.4,286.0 459.2,286.0 466.1,286.0 472.9,286.0 479.7,286.0 486.6,286.0 493.4,286.0 500.3,279.8 507.1,286.0 513.9,286.0 520.8,286.0 527.6,286.0 534.5,286.0 541.3,286.0 548.1,286.0 555.0,286.0 561.8,286.0 568.7,286.0 575.5,286.0 582.3,286.0 589.2,286.0 596.0,279.8 602.9,286.0 609.7,286.0 616.5,286.0 623.4,286.0 630.2,286.0 637.1,286.0 643.9,286.0 650.7,286.0 657.6,286.0 664.4,286.0 671.3,279.8 678.1,286.0 684.9,286.0 691.8,286.0 698.6,286.0 705.5,279.8 712.3,286.0 719.1,286.0 726.0,286.0 732.8,286.0 739.6,286.0 746.5,286.0 753.3,286.0 760.2,286.0 767.0,286.0 773.8,286.0 780.7,286.0 787.5,286.0 794.4,286.0 801.2,286.0 808.0,286.0 814.9,286.0 821.7,286.0 828.6,286.0 835.4,286.0 842.2,286.0 849.1,286.0 855.9,286.0 862.8,279.8 869.6,286.0 876.4,286.0 883.3,286.0 890.1,273.7 897.0,286.0 903.8,286.0 910.6,279.8 917.5,279.8 924.3,286.0 931.2,286.0 938.0,286.0"/><polyline fill="none" stroke="#a855f7" stroke-width="2.5" stroke-linejoin="round" stroke-linecap="round" points="42.0,286.0 48.8,286.0 55.7,286.0 62.5,286.0 69.4,286.0 76.2,286.0 83.0,286.0 89.9,286.0 96.7,286.0 103.6,286.0 110.4,286.0 117.2,286.0 124.1,286.0 130.9,286.0 137.8,286.0 144.6,286.0 151.4,286.0 158.3,286.0 165.1,286.0 172.0,286.0 178.8,286.0 185.6,286.0 192.5,286.0 199.3,286.0 206.2,286.0 213.0,286.0 219.8,286.0 226.7,286.0 233.5,286.0 240.4,286.0 247.2,286.0 254.0,286.0 260.9,286.0 267.7,286.0 274.5,286.0 281.4,286.0 288.2,286.0 295.1,286.0 301.9,286.0 308.7,286.0 315.6,286.0 322.4,286.0 329.3,286.0 336.1,286.0 342.9,286.0 349.8,286.0 356.6,286.0 363.5,286.0 370.3,286.0 377.1,286.0 384.0,286.0 390.8,286.0 397.7,279.8 404.5,286.0 411.3,286.0 418.2,286.0 425.0,286.0 431.9,286.0 438.7,286.0 445.5,286.0 452.4,286.0 459.2,286.0 466.1,286.0 472.9,286.0 479.7,286.0 486.6,286.0 493.4,286.0 500.3,286.0 507.1,286.0 513.9,286.0 520.8,286.0 527.6,286.0 534.5,286.0 541.3,286.0 548.1,286.0 555.0,286.0 561.8,286.0 568.7,286.0 575.5,286.0 582.3,286.0 589.2,286.0 596.0,286.0 602.9,286.0 609.7,286.0 616.5,286.0 623.4,286.0 630.2,286.0 637.1,286.0 643.9,286.0 650.7,286.0 657.6,286.0 664.4,286.0 671.3,286.0 678.1,286.0 684.9,286.0 691.8,286.0 698.6,286.0 705.5,286.0 712.3,286.0 719.1,279.8 726.0,286.0 732.8,286.0 739.6,286.0 746.5,286.0 753.3,286.0 760.2,286.0 767.0,286.0 773.8,286.0 780.7,286.0 787.5,286.0 794.4,286.0 801.2,286.0 808.0,286.0 814.9,286.0 821.7,286.0 828.6,286.0 835.4,286.0 842.2,286.0 849.1,286.0 855.9,279.8 862.8,286.0 869.6,286.0 876.4,286.0 883.3,286.0 890.1,286.0 897.0,286.0 903.8,286.0 910.6,286.0 917.5,286.0 924.3,286.0 931.2,286.0 938.0,286.0"/><text x="42" y="308" font-size="11" fill="#9fb0d4">19/06 15:39</text><text x="938" y="308" text-anchor="end" font-size="11" fill="#9fb0d4">22/07 02:31</text></svg>