<svg xmlns="http://www.w3.org/2000/svg" viewBox="0 0 960 320" width="960" height="320" font-family="Segoe UI, system-ui, -apple-system, Roboto, Helvetica, Arial, sans-serif" role="img" aria-label="Availability history per region"><rect x="0.5" y="0.5" width="959" height="319" rx="14" fill="#ffffff" stroke="#dce3f1"/><text x="42" y="26" font-size="14" font-weight="600" fill="#14203a">History · 217 points</text><circle cx="47" cy="40" r="5" fill="#22c55e"/><text x="57" y="44" font-size="12" fill="#5a688a">Available</text><circle cx="139.8" cy="40" r="5" fill="#f59e0b"/><text x="149.8" y="44" font-size="12" fill="#5a688a">Saturated</text><circle cx="232.60000000000002" cy="40" r="5" fill="#ef4444"/><text x="242.60000000000002" y="44" font-size="12" fill="#5a688a">Error</text><circle cx="296.6" cy="40" r="5" fill="#a855f7"/><text x="306.6" y="44" font-size="12" fill="#5a688a">Timeout</text><line x1="42" y1="286.0" x2="938" y2="286.0" stroke="#eef2f7" stroke-width="1"/><text x="35" y="289.0" text-anchor="end" font-size="11" fill="#5a688a">0</text><line x1="42" y1="227.5" x2="938" y2="227.5" stroke="#eef2f7" stroke-width="1"/><text x="35" y="230.5" text-anchor="end" font-size="11" fill="#5a688a">10</text><line x1="42" y1="169.0" x2="938" y2="169.0" stroke="#eef2f7" stroke-width="1"/><text x="35" y="172.0" text-anchor="end" font-size="11" fill="#5a688a">20</text><line x1="42" y1="110.5" x2="938" y2="110.5" stroke="#eef2f7" stroke-width="1"/><text x="35" y="113.5" text-anchor="end" font-size="11" fill="#5a688a">29</text><line x1="42" y1="52.0" x2="938" y2="52.0" stroke="#eef2f7" stroke-width="1"/><text x="35" y="55.0" text-anchor="end" font-size="11" fill="#5a688a">39</text><polyline fill="none" stroke="#22c55e" stroke-width="2.5" stroke-linejoin="round" stroke-linecap="round" points="42.0,70.0 46.1,70.0 50.3,88.0 54.4,88.0 58.6,76.0 62.7,76.0 66.9,76.0 71.0,70.0 75.2,76.0 79.3,70.0 83.5,64.0 87.6,58.0 91.8,58.0 95.9,58.0 100.1,58.0 104.2,58.0 108.4,58.0 112.5,58.0 116.7,58.0 120.8,58.0 125.0,58.0 129.1,58.0 133.3,58.0 137.4,58.0 141.6,58.0 145.7,58.0 149.9,58.0 154.0,58.0 158.1,58.0 162.3,58.0 166.4,58.0 170.6,70.0 174.7,76.0 178.9,94.0 183.0,64.0 187.2,64.0 191.3,58.0 195.5,58.0 199.6,58.0 203.8,70.0 207.9,76.0 212.1,76.0 216.2,82.0 220.4,82.0 224.5,82.0 228.7,82.0 232.8,76.0 237.0,64.0 241.1,70.0 245.3,70.0 249.4,82.0 253.6,76.0 257.7,76.0 261.9,82.0 266.0,76.0 270.1,76.0 274.3,76.0 278.4,64.0 282.6,64.0 286.7,76.0 290.9,76.0 295.0,76.0 299.2,88.0 303.3,70.0 307.5,64.0 311.6,58.0 315.8,58.0 319.9,70.0 324.1,70.0 328.2,70.0 332.4,76.0 336.5,70.0 340.7,70.0 344.8,70.0 349.0,70.0 353.1,76.0 357.3,82.0 361.4,76.0 365.6,70.0 369.7,70.0 373.9,70.0 378.0,70.0 382.1,76.0 386.3,70.0 390.4,70.0 394.6,70.0 398.7,70.0 402.9,70.0 407.0,70.0 411.2,70.0 415.3,70.0 419.5,70.0 423.6,70.0 427.8,70.0 431.9,70.0 436.1,70.0 440.2,70.0 444.4,70.0 448.5,70.0 452.7,70.0 456.8,70.0 461.0,70.0 465.1,70.0 469.3,70.0 473.4,70.0 477.6,70.0 481.7,70.0 485.9,70.0 490.0,70.0 494.1,70.0 498.3,70.0 502.4,70.0 506.6,70.0 510.7,70.0 514.9,70.0 519.0,70.0 523.2,70.0 527.3,70.0 531.5,70.0 535.6,70.0 539.8,70.0 543.9,70.0 548.1,70.0 552.2,70.0 556.4,70.0 560.5,70.0 564.7,70.0 568.8,70.0 573.0,70.0 577.1,70.0 581.3,70.0 585.4,70.0 589.6,70.0 593.7,70.0 597.9,70.0 602.0,70.0 606.1,70.0 610.3,70.0 614.4,70.0 618.6,70.0 622.7,70.0 626.9,70.0 631.0,70.0 635.2,70.0 639.3,70.0 643.5,70.0 647.6,70.0 651.8,70.0 655.9,70.0 660.1,70.0 664.2,70.0 668.4,76.0 672.5,70.0 676.7,70.0 680.8,70.0 685.0,70.0 689.1,70.0 693.3,76.0 697.4,76.0 701.6,88.0 705.7,88.0 709.9,88.0 714.0,94.0 718.1,94.0 722.3,94.0 726.4,94.0 730.6,88.0 734.7,88.0 738.9,82.0 743.0,82.0 747.2,82.0 751.3,88.0 755.5,88.0 759.6,94.0 763.8,82.0 767.9,82.0 772.1,82.0 776.2,82.0 780.4,88.0 784.5,88.0 788.7,94.0 792.8,94.0 797.0,88.0 801.1,88.0 805.3,88.0 809.4,94.0 813.6,94.0 817.7,106.0 821.9,94.0 826.0,94.0 830.1,94.0 834.3,94.0 838.4,88.0 842.6,88.0 846.7,82.0 850.9,76.0 855.0,76.0 859.2,76.0 863.3,76.0 867.5,76.0 871.6,76.0 875.8,70.0 879.9,70.0 884.1,70.0 888.2,76.0 892.4,88.0 896.5,82.0 900.7,70.0 904.8,70.0 909.0,70.0 913.1,76.0 917.3,76.0 921.4,76.0 925.6,82.0 929.7,70.0 933.9,76.0 938.0,64.0"/><polyline fill="none" stroke="#f59e0b" stroke-width="2.5" stroke-linejoin="round" stroke-linecap="round" points="42.0,274.0 46.1,274.0 50.3,274.0 54.4,280.0 58.6,268.0 62.7,268.0 66.9,268.0 71.0,274.0 75.2,274.0 79.3,274.0 83.5,280.0 87.6,286.0 91.8,286.0 95.9,286.0 100.1,286.0 104.2,286.0 108.4,286.0 112.5,286.0 116.7,286.0 120.8,286.0 125.0,286.0 129.1,286.0 133.3,286.0 137.4,286.0 141.6,286.0 145.7,286.0 149.9,286.0 154.0,286.0 158.1,286.0 162.3,286.0 166.4,286.0 170.6,274.0 174.7,280.0 178.9,280.0 183.0,280.0 187.2,280.0 191.3,286.0 195.5,286.0 199.6,286.0 203.8,274.0 207.9,268.0 212.1,268.0 216.2,262.0 220.4,262.0 224.5,262.0 228.7,262.0 232.8,268.0 237.0,280.0 241.1,280.0 245.3,274.0 249.4,262.0 253.6,268.0 257.7,268.0 261.9,262.0 266.0,268.0 270.1,268.0 274.3,268.0 278.4,280.0 282.6,280.0 286.7,268.0 290.9,268.0 295.0,268.0 299.2,262.0 303.3,274.0 307.5,280.0 311.6,286.0 315.8,286.0 319.9,274.0 324.1,274.0 328.2,274.0 332.4,274.0 336.5,274.0 340.7,274.0 344.8,274.0 349.0,274.0 353.1,280.0 357.3,274.0 361.4,280.0 365.6,286.0 369.7,286.0 373.9,286.0 378.0,286.0 382.1,280.0 386.3,286.0 390.4,286.0 394.6,286.0 398.7,286.0 402.9,286.0 407.0,286.0 411.2,286.0 415.3,286.0 419.5,286.0 423.6,286.0 427.8,286.0 431.9,286.0 436.1,286.0 440.2,286.0 444.4,286.0 448.5,286.0 452.7,286.0 456.8,286.0 461.0,286.0 465.1,286.0 469.3,286.0 473.4,286.0 477.6,286.0 481.7,286.0 485.9,286.0 490.0,286.0 494.1,286.0 498.3,286.0 502.4,286.0 506.6,286.0 510.7,286.0 514.9,286.0 519.0,286.0 523.2,286.0 527.3,286.0 531.5,286.0 535.6,286.0 539.8,286.0 543.9,286.0 548.1,286.0 552.2,286.0 556.4,286.0 560.5,286.0 564.7,286.0 568.8,286.0 573.0,286.0 577.1,286.0 581.3,286.0 585.4,286.0 589.6,286.0 593.7,286.0 597.9,286.0 602.0,286.0 606.1,286.0 610.3,286.0 614.4,286.0 618.6,286.0 622.7,286.0 626.9,286.0 631.0,286.0 635.2,286.0 639.3,286.0 643.5,286.0 647.6,286.0 651.8,286.0 655.9,286.0 660.1,286.0 664.2,286.0 668.4,286.0 672.5,286.0 676.7,286.0 680.8,286.0 685.0,286.0 689.1,286.0 693.3,286.0 697.4,280.0 701.6,268.0 705.7,268.0 709.9,268.0 714.0,268.0 718.1,262.0 722.3,262.0 726.4,262.0 730.6,268.0 734.7,268.0 738.9,274.0 743.0,274.0 747.2,274.0 751.3,268.0 755.5,268.0 759.6,268.0 763.8,274.0 767.9,274.0 772.1,274.0 776.2,274.0 780.4,268.0 784.5,268.0 788.7,262.0 792.8,262.0 797.0,268.0 801.1,268.0 805.3,268.0 809.4,262.0 813.6,262.0 817.7,274.0 821.9,262.0 826.0,262.0 830.1,262.0 834.3,262.0 838.4,268.0 842.6,268.0 846.7,274.0 850.9,280.0 855.0,280.0 859.2,280.0 863.3,280.0 867.5,280.0 871.6,280.0 875.8,286.0 879.9,286.0 884.1,286.0 888.2,280.0 892.4,274.0 896.5,274.0 900.7,280.0 904.8,274.0 909.0,274.0 913.1,268.0 917.3,268.0 921.4,268.0 925.6,268.0 929.7,280.0 933.9,274.0 938.0,280.0"/><polyline fill="none" stroke="#ef4444" stroke-width="2.5" stroke-linejoin="round" stroke-linecap="round" points="42.0,280.0 46.1,280.0 50.3,268.0 54.4,262.0 58.6,286.0 62.7,286.0 66.9,286.0 71.0,286.0 75.2,280.0 79.3,286.0 83.5,286.0 87.6,286.0 91.8,286.0 95.9,286.0 100.1,286.0 104.2,286.0 108.4,286.0 112.5,286.0 116.7,286.0 120.8,286.0 125.0,286.0 129.1,286.0 133.3,286.0 137.4,286.0 141.6,286.0 145.7,286.0 149.9,286.0 154.0,286.0 158.1,286.0 162.3,286.0 166.4,286.0 170.6,286.0 174.7,274.0 178.9,256.0 183.0,286.0 187.2,286.0 191.3,286.0 195.5,286.0 199.6,286.0 203.8,286.0 207.9,286.0 212.1,286.0 216.2,286.0 220.4,286.0 224.5,286.0 228.7,286.0 232.8,286.0 237.0,286.0 241.1,280.0 245.3,286.0 249.4,286.0 253.6,286.0 257.7,286.0 261.9,286.0 266.0,286.0 270.1,286.0 274.3,286.0 278.4,286.0 282.6,286.0 286.7,286.0 290.9,286.0 295.0,286.0 299.2,280.0 303.3,286.0 307.5,286.0 311.6,286.0 315.8,286.0 319.9,286.0 324.1,286.0 328.2,286.0 332.4,286.0 336.5,286.0 340.7,286.0 344.8,286.0 349.0,286.0 353.1,274.0 357.3,274.0 361.4,274.0 365.6,274.0 369.7,274.0 373.9,274.0 378.0,274.0 382.1,274.0 386.3,274.0 390.4,274.0 394.6,274.0 398.7,274.0 402.9,274.0 407.0,274.0 411.2,274.0 415.3,274.0 419.5,274.0 423.6,274.0 427.8,274.0 431.9,274.0 436.1,274.0 440.2,274.0 444.4,274.0 448.5,274.0 452.7,274.0 456.8,274.0 461.0,274.0 465.1,274.0 469.3,274.0 473.4,274.0 477.6,274.0 481.7,274.0 485.9,274.0 490.0,274.0 494.1,274.0 498.3,274.0 502.4,274.0 506.6,274.0 510.7,274.0 514.9,274.0 519.0,274.0 523.2,274.0 527.3,274.0 531.5,274.0 535.6,274.0 539.8,274.0 543.9,274.0 548.1,274.0 552.2,274.0 556.4,274.0 560.5,274.0 564.7,274.0 568.8,274.0 573.0,274.0 577.1,274.0 581.3,274.0 585.4,274.0 589.6,274.0 593.7,274.0 597.9,274.0 602.0,274.0 606.1,274.0 610.3,274.0 614.4,274.0 618.6,274.0 622.7,274.0 626.9,274.0 631.0,274.0 635.2,274.0 639.3,274.0 643.5,274.0 647.6,274.0 651.8,274.0 655.9,274.0 660.1,274.0 664.2,274.0 668.4,268.0 672.5,274.0 676.7,274.0 680.8,274.0 685.0,274.0 689.1,274.0 693.3,274.0 697.4,274.0 701.6,274.0 705.7,274.0 709.9,274.0 714.0,268.0 718.1,274.0 722.3,274.0 726.4,274.0 730.6,274.0 734.7,274.0 738.9,274.0 743.0,274.0 747.2,274.0 751.3,274.0 755.5,274.0 759.6,268.0 763.8,274.0 767.9,274.0 772.1,274.0 776.2,274.0 780.4,274.0 784.5,274.0 788.7,274.0 792.8,274.0 797.0,274.0 801.1,274.0 805.3,274.0 809.4,274.0 813.6,274.0 817.7,250.0 821.9,274.0 826.0,274.0 830.1,274.0 834.3,274.0 838.4,274.0 842.6,274.0 846.7,274.0 850.9,274.0 855.0,274.0 859.2,274.0 863.3,274.0 867.5,274.0 871.6,274.0 875.8,274.0 879.9,274.0 884.1,274.0 888.2,274.0 892.4,268.0 896.5,274.0 900.7,280.0 904.8,286.0 909.0,286.0 913.1,286.0 917.3,286.0 921.4,286.0 925.6,280.0 929.7,280.0 933.9,286.0 938.0,286.0"/><polyline fill="none" stroke="#a855f7" stroke-width="2.5" stroke-linejoin="round" stroke-linecap="round" points="42.0,286.0 46.1,286.0 50.3,286.0 54.4,286.0 58.6,286.0 62.7,286.0 66.9,286.0 71.0,286.0 75.2,286.0 79.3,286.0 83.5,286.0 87.6,286.0 91.8,286.0 95.9,286.0 100.1,286.0 104.2,286.0 108.4,286.0 112.5,286.0 116.7,286.0 120.8,286.0 125.0,286.0 129.1,286.0 133.3,286.0 137.4,286.0 141.6,286.0 145.7,286.0 149.9,286.0 154.0,286.0 158.1,286.0 162.3,286.0 166.4,286.0 170.6,286.0 174.7,286.0 178.9,286.0 183.0,286.0 187.2,286.0 191.3,286.0 195.5,286.0 199.6,286.0 203.8,286.0 207.9,286.0 212.1,286.0 216.2,286.0 220.4,286.0 224.5,286.0 228.7,286.0 232.8,286.0 237.0,286.0 241.1,286.0 245.3,286.0 249.4,286.0 253.6,286.0 257.7,286.0 261.9,286.0 266.0,286.0 270.1,286.0 274.3,286.0 278.4,286.0 282.6,286.0 286.7,286.0 290.9,286.0 295.0,286.0 299.2,286.0 303.3,286.0 307.5,286.0 311.6,286.0 315.8,286.0 319.9,286.0 324.1,286.0 328.2,286.0 332.4,280.0 336.5,286.0 340.7,286.0 344.8,286.0 349.0,286.0 353.1,286.0 357.3,286.0 361.4,286.0 365.6,286.0 369.7,286.0 373.9,286.0 378.0,286.0 382.1,286.0 386.3,286.0 390.4,286.0 394.6,286.0 398.7,286.0 402.9,286.0 407.0,286.0 411.2,286.0 415.3,286.0 419.5,286.0 423.6,286.0 427.8,286.0 431.9,286.0 436.1,286.0 440.2,286.0 444.4,286.0 448.5,286.0 452.7,286.0 456.8,286.0 461.0,286.0 465.1,286.0 469.3,286.0 473.4,286.0 477.6,286.0 481.7,286.0 485.9,286.0 490.0,286.0 494.1,286.0 498.3,286.0 502.4,286.0 506.6,286.0 510.7,286.0 514.9,286.0 519.0,286.0 523.2,286.0 527.3,286.0 531.5,286.0 535.6,286.0 539.8,286.0 543.9,286.0 548.1,286.0 552.2,286.0 556.4,286.0 560.5,286.0 564.7,286.0 568.8,286.0 573.0,286.0 577.1,286.0 581.3,286.0 585.4,286.0 589.6,286.0 593.7,286.0 597.9,286.0 602.0,286.0 606.1,286.0 610.3,286.0 614.4,286.0 618.6,286.0 622.7,286.0 626.9,286.0 631.0,286.0 635.2,286.0 639.3,286.0 643.5,286.0 647.6,286.0 651.8,286.0 655.9,286.0 660.1,286.0 664.2,286.0 668.4,286.0 672.5,286.0 676.7,286.0 680.8,286.0 685.0,286.0 689.1,286.0 693.3,280.0 697.4,286.0 701.6,286.0 705.7,286.0 709.9,286.0 714.0,286.0 718.1,286.0 722.3,286.0 726.4,286.0 730.6,286.0 734.7,286.0 738.9,286.0 743.0,286.0 747.2,286.0 751.3,286.0 755.5,286.0 759.6,286.0 763.8,286.0 767.9,286.0 772.1,286.0 776.2,286.0 780.4,286.0 784.5,286.0 788.7,286.0 792.8,286.0 797.0,286.0 801.1,286.0 805.3,286.0 809.4,286.0 813.6,286.0 817.7,286.0 821.9,286.0 826.0,286.0 830.1,286.0 834.3,286.0 838.4,286.0 842.6,286.0 846.7,286.0 850.9,286.0 855.0,286.0 859.2,286.0 863.3,286.0 867.5,286.0 871.6,286.0 875.8,286.0 879.9,286.0 884.1,286.0 888.2,286.0 892.4,286.0 896.5,286.0 900.7,286.0 904.8,286.0 909.0,286.0 913.1,286.0 917.3,286.0 921.4,286.0 925.6,286.0 929.7,286.0 933.9,280.0 938.0,286.0"/><text x="42" y="308" font-size="11" fill="#5a688a">19/06 12:43</text><text x="938" y="308" text-anchor="end" font-size="11" fill="#5a688a">01/07 19:29</text></svg>