<svg xmlns="http://www.w3.org/2000/svg" viewBox="0 0 960 320" width="960" height="320" font-family="Segoe UI, system-ui, -apple-system, Roboto, Helvetica, Arial, sans-serif" role="img" aria-label="Availability history per region"><rect x="0.5" y="0.5" width="959" height="319" rx="14" fill="#ffffff" stroke="#dce3f1"/><text x="42" y="26" font-size="14" font-weight="600" fill="#14203a">History · 55 points</text><circle cx="47" cy="40" r="5" fill="#22c55e"/><text x="57" y="44" font-size="12" fill="#5a688a">Available</text><circle cx="139.8" cy="40" r="5" fill="#f59e0b"/><text x="149.8" y="44" font-size="12" fill="#5a688a">Saturated</text><circle cx="232.60000000000002" cy="40" r="5" fill="#ef4444"/><text x="242.60000000000002" y="44" font-size="12" fill="#5a688a">Error</text><line x1="42" y1="286.0" x2="938" y2="286.0" stroke="#eef2f7" stroke-width="1"/><text x="35" y="289.0" text-anchor="end" font-size="11" fill="#5a688a">0</text><line x1="42" y1="227.5" x2="938" y2="227.5" stroke="#eef2f7" stroke-width="1"/><text x="35" y="230.5" text-anchor="end" font-size="11" fill="#5a688a">10</text><line x1="42" y1="169.0" x2="938" y2="169.0" stroke="#eef2f7" stroke-width="1"/><text x="35" y="172.0" text-anchor="end" font-size="11" fill="#5a688a">20</text><line x1="42" y1="110.5" x2="938" y2="110.5" stroke="#eef2f7" stroke-width="1"/><text x="35" y="113.5" text-anchor="end" font-size="11" fill="#5a688a">29</text><line x1="42" y1="52.0" x2="938" y2="52.0" stroke="#eef2f7" stroke-width="1"/><text x="35" y="55.0" text-anchor="end" font-size="11" fill="#5a688a">39</text><polyline fill="none" stroke="#22c55e" stroke-width="2.5" stroke-linejoin="round" stroke-linecap="round" points="42.0,70.0 58.6,70.0 75.2,88.0 91.8,88.0 108.4,76.0 125.0,76.0 141.6,76.0 158.1,70.0 174.7,76.0 191.3,70.0 207.9,64.0 224.5,58.0 241.1,58.0 257.7,58.0 274.3,58.0 290.9,58.0 307.5,58.0 324.1,58.0 340.7,58.0 357.3,58.0 373.9,58.0 390.4,58.0 407.0,58.0 423.6,58.0 440.2,58.0 456.8,58.0 473.4,58.0 490.0,58.0 506.6,58.0 523.2,58.0 539.8,58.0 556.4,70.0 573.0,76.0 589.6,94.0 606.1,64.0 622.7,64.0 639.3,58.0 655.9,58.0 672.5,58.0 689.1,70.0 705.7,76.0 722.3,76.0 738.9,82.0 755.5,82.0 772.1,82.0 788.7,82.0 805.3,76.0 821.9,64.0 838.4,70.0 855.0,70.0 871.6,82.0 888.2,76.0 904.8,76.0 921.4,82.0 938.0,76.0"/><circle cx="42.0" cy="70.0" r="2.5" fill="#22c55e"/><circle cx="58.6" cy="70.0" r="2.5" fill="#22c55e"/><circle cx="75.2" cy="88.0" r="2.5" fill="#22c55e"/><circle cx="91.8" cy="88.0" r="2.5" fill="#22c55e"/><circle cx="108.4" cy="76.0" r="2.5" fill="#22c55e"/><circle cx="125.0" cy="76.0" r="2.5" fill="#22c55e"/><circle cx="141.6" cy="76.0" r="2.5" fill="#22c55e"/><circle cx="158.1" cy="70.0" r="2.5" fill="#22c55e"/><circle cx="174.7" cy="76.0" r="2.5" fill="#22c55e"/><circle cx="191.3" cy="70.0" r="2.5" fill="#22c55e"/><circle cx="207.9" cy="64.0" r="2.5" fill="#22c55e"/><circle cx="224.5" cy="58.0" r="2.5" fill="#22c55e"/><circle cx="241.1" cy="58.0" r="2.5" fill="#22c55e"/><circle cx="257.7" cy="58.0" r="2.5" fill="#22c55e"/><circle cx="274.3" cy="58.0" r="2.5" fill="#22c55e"/><circle cx="290.9" cy="58.0" r="2.5" fill="#22c55e"/><circle cx="307.5" cy="58.0" r="2.5" fill="#22c55e"/><circle cx="324.1" cy="58.0" r="2.5" fill="#22c55e"/><circle cx="340.7" cy="58.0" r="2.5" fill="#22c55e"/><circle cx="357.3" cy="58.0" r="2.5" fill="#22c55e"/><circle cx="373.9" cy="58.0" r="2.5" fill="#22c55e"/><circle cx="390.4" cy="58.0" r="2.5" fill="#22c55e"/><circle cx="407.0" cy="58.0" r="2.5" fill="#22c55e"/><circle cx="423.6" cy="58.0" r="2.5" fill="#22c55e"/><circle cx="440.2" cy="58.0" r="2.5" fill="#22c55e"/><circle cx="456.8" cy="58.0" r="2.5" fill="#22c55e"/><circle cx="473.4" cy="58.0" r="2.5" fill="#22c55e"/><circle cx="490.0" cy="58.0" r="2.5" fill="#22c55e"/><circle cx="506.6" cy="58.0" r="2.5" fill="#22c55e"/><circle cx="523.2" cy="58.0" r="2.5" fill="#22c55e"/><circle cx="539.8" cy="58.0" r="2.5" fill="#22c55e"/><circle cx="556.4" cy="70.0" r="2.5" fill="#22c55e"/><circle cx="573.0" cy="76.0" r="2.5" fill="#22c55e"/><circle cx="589.6" cy="94.0" r="2.5" fill="#22c55e"/><circle cx="606.1" cy="64.0" r="2.5" fill="#22c55e"/><circle cx="622.7" cy="64.0" r="2.5" fill="#22c55e"/><circle cx="639.3" cy="58.0" r="2.5" fill="#22c55e"/><circle cx="655.9" cy="58.0" r="2.5" fill="#22c55e"/><circle cx="672.5" cy="58.0" r="2.5" fill="#22c55e"/><circle cx="689.1" cy="70.0" r="2.5" fill="#22c55e"/><circle cx="705.7" cy="76.0" r="2.5" fill="#22c55e"/><circle cx="722.3" cy="76.0" r="2.5" fill="#22c55e"/><circle cx="738.9" cy="82.0" r="2.5" fill="#22c55e"/><circle cx="755.5" cy="82.0" r="2.5" fill="#22c55e"/><circle cx="772.1" cy="82.0" r="2.5" fill="#22c55e"/><circle cx="788.7" cy="82.0" r="2.5" fill="#22c55e"/><circle cx="805.3" cy="76.0" r="2.5" fill="#22c55e"/><circle cx="821.9" cy="64.0" r="2.5" fill="#22c55e"/><circle cx="838.4" cy="70.0" r="2.5" fill="#22c55e"/><circle cx="855.0" cy="70.0" r="2.5" fill="#22c55e"/><circle cx="871.6" cy="82.0" r="2.5" fill="#22c55e"/><circle cx="888.2" cy="76.0" r="2.5" fill="#22c55e"/><circle cx="904.8" cy="76.0" r="2.5" fill="#22c55e"/><circle cx="921.4" cy="82.0" r="2.5" fill="#22c55e"/><circle cx="938.0" cy="76.0" r="2.5" fill="#22c55e"/><polyline fill="none" stroke="#f59e0b" stroke-width="2.5" stroke-linejoin="round" stroke-linecap="round" points="42.0,274.0 58.6,274.0 75.2,274.0 91.8,280.0 108.4,268.0 125.0,268.0 141.6,268.0 158.1,274.0 174.7,274.0 191.3,274.0 207.9,280.0 224.5,286.0 241.1,286.0 257.7,286.0 274.3,286.0 290.9,286.0 307.5,286.0 324.1,286.0 340.7,286.0 357.3,286.0 373.9,286.0 390.4,286.0 407.0,286.0 423.6,286.0 440.2,286.0 456.8,286.0 473.4,286.0 490.0,286.0 506.6,286.0 523.2,286.0 539.8,286.0 556.4,274.0 573.0,280.0 589.6,280.0 606.1,280.0 622.7,280.0 639.3,286.0 655.9,286.0 672.5,286.0 689.1,274.0 705.7,268.0 722.3,268.0 738.9,262.0 755.5,262.0 772.1,262.0 788.7,262.0 805.3,268.0 821.9,280.0 838.4,280.0 855.0,274.0 871.6,262.0 888.2,268.0 904.8,268.0 921.4,262.0 938.0,268.0"/><circle cx="42.0" cy="274.0" r="2.5" fill="#f59e0b"/><circle cx="58.6" cy="274.0" r="2.5" fill="#f59e0b"/><circle cx="75.2" cy="274.0" r="2.5" fill="#f59e0b"/><circle cx="91.8" cy="280.0" r="2.5" fill="#f59e0b"/><circle cx="108.4" cy="268.0" r="2.5" fill="#f59e0b"/><circle cx="125.0" cy="268.0" r="2.5" fill="#f59e0b"/><circle cx="141.6" cy="268.0" r="2.5" fill="#f59e0b"/><circle cx="158.1" cy="274.0" r="2.5" fill="#f59e0b"/><circle cx="174.7" cy="274.0" r="2.5" fill="#f59e0b"/><circle cx="191.3" cy="274.0" r="2.5" fill="#f59e0b"/><circle cx="207.9" cy="280.0" r="2.5" fill="#f59e0b"/><circle cx="224.5" cy="286.0" r="2.5" fill="#f59e0b"/><circle cx="241.1" cy="286.0" r="2.5" fill="#f59e0b"/><circle cx="257.7" cy="286.0" r="2.5" fill="#f59e0b"/><circle cx="274.3" cy="286.0" r="2.5" fill="#f59e0b"/><circle cx="290.9" cy="286.0" r="2.5" fill="#f59e0b"/><circle cx="307.5" cy="286.0" r="2.5" fill="#f59e0b"/><circle cx="324.1" cy="286.0" r="2.5" fill="#f59e0b"/><circle cx="340.7" cy="286.0" r="2.5" fill="#f59e0b"/><circle cx="357.3" cy="286.0" r="2.5" fill="#f59e0b"/><circle cx="373.9" cy="286.0" r="2.5" fill="#f59e0b"/><circle cx="390.4" cy="286.0" r="2.5" fill="#f59e0b"/><circle cx="407.0" cy="286.0" r="2.5" fill="#f59e0b"/><circle cx="423.6" cy="286.0" r="2.5" fill="#f59e0b"/><circle cx="440.2" cy="286.0" r="2.5" fill="#f59e0b"/><circle cx="456.8" cy="286.0" r="2.5" fill="#f59e0b"/><circle cx="473.4" cy="286.0" r="2.5" fill="#f59e0b"/><circle cx="490.0" cy="286.0" r="2.5" fill="#f59e0b"/><circle cx="506.6" cy="286.0" r="2.5" fill="#f59e0b"/><circle cx="523.2" cy="286.0" r="2.5" fill="#f59e0b"/><circle cx="539.8" cy="286.0" r="2.5" fill="#f59e0b"/><circle cx="556.4" cy="274.0" r="2.5" fill="#f59e0b"/><circle cx="573.0" cy="280.0" r="2.5" fill="#f59e0b"/><circle cx="589.6" cy="280.0" r="2.5" fill="#f59e0b"/><circle cx="606.1" cy="280.0" r="2.5" fill="#f59e0b"/><circle cx="622.7" cy="280.0" r="2.5" fill="#f59e0b"/><circle cx="639.3" cy="286.0" r="2.5" fill="#f59e0b"/><circle cx="655.9" cy="286.0" r="2.5" fill="#f59e0b"/><circle cx="672.5" cy="286.0" r="2.5" fill="#f59e0b"/><circle cx="689.1" cy="274.0" r="2.5" fill="#f59e0b"/><circle cx="705.7" cy="268.0" r="2.5" fill="#f59e0b"/><circle cx="722.3" cy="268.0" r="2.5" fill="#f59e0b"/><circle cx="738.9" cy="262.0" r="2.5" fill="#f59e0b"/><circle cx="755.5" cy="262.0" r="2.5" fill="#f59e0b"/><circle cx="772.1" cy="262.0" r="2.5" fill="#f59e0b"/><circle cx="788.7" cy="262.0" r="2.5" fill="#f59e0b"/><circle cx="805.3" cy="268.0" r="2.5" fill="#f59e0b"/><circle cx="821.9" cy="280.0" r="2.5" fill="#f59e0b"/><circle cx="838.4" cy="280.0" r="2.5" fill="#f59e0b"/><circle cx="855.0" cy="274.0" r="2.5" fill="#f59e0b"/><circle cx="871.6" cy="262.0" r="2.5" fill="#f59e0b"/><circle cx="888.2" cy="268.0" r="2.5" fill="#f59e0b"/><circle cx="904.8" cy="268.0" r="2.5" fill="#f59e0b"/><circle cx="921.4" cy="262.0" r="2.5" fill="#f59e0b"/><circle cx="938.0" cy="268.0" r="2.5" fill="#f59e0b"/><polyline fill="none" stroke="#ef4444" stroke-width="2.5" stroke-linejoin="round" stroke-linecap="round" points="42.0,280.0 58.6,280.0 75.2,268.0 91.8,262.0 108.4,286.0 125.0,286.0 141.6,286.0 158.1,286.0 174.7,280.0 191.3,286.0 207.9,286.0 224.5,286.0 241.1,286.0 257.7,286.0 274.3,286.0 290.9,286.0 307.5,286.0 324.1,286.0 340.7,286.0 357.3,286.0 373.9,286.0 390.4,286.0 407.0,286.0 423.6,286.0 440.2,286.0 456.8,286.0 473.4,286.0 490.0,286.0 506.6,286.0 523.2,286.0 539.8,286.0 556.4,286.0 573.0,274.0 589.6,256.0 606.1,286.0 622.7,286.0 639.3,286.0 655.9,286.0 672.5,286.0 689.1,286.0 705.7,286.0 722.3,286.0 738.9,286.0 755.5,286.0 772.1,286.0 788.7,286.0 805.3,286.0 821.9,286.0 838.4,280.0 855.0,286.0 871.6,286.0 888.2,286.0 904.8,286.0 921.4,286.0 938.0,286.0"/><circle cx="42.0" cy="280.0" r="2.5" fill="#ef4444"/><circle cx="58.6" cy="280.0" r="2.5" fill="#ef4444"/><circle cx="75.2" cy="268.0" r="2.5" fill="#ef4444"/><circle cx="91.8" cy="262.0" r="2.5" fill="#ef4444"/><circle cx="108.4" cy="286.0" r="2.5" fill="#ef4444"/><circle cx="125.0" cy="286.0" r="2.5" fill="#ef4444"/><circle cx="141.6" cy="286.0" r="2.5" fill="#ef4444"/><circle cx="158.1" cy="286.0" r="2.5" fill="#ef4444"/><circle cx="174.7" cy="280.0" r="2.5" fill="#ef4444"/><circle cx="191.3" cy="286.0" r="2.5" fill="#ef4444"/><circle cx="207.9" cy="286.0" r="2.5" fill="#ef4444"/><circle cx="224.5" cy="286.0" r="2.5" fill="#ef4444"/><circle cx="241.1" cy="286.0" r="2.5" fill="#ef4444"/><circle cx="257.7" cy="286.0" r="2.5" fill="#ef4444"/><circle cx="274.3" cy="286.0" r="2.5" fill="#ef4444"/><circle cx="290.9" cy="286.0" r="2.5" fill="#ef4444"/><circle cx="307.5" cy="286.0" r="2.5" fill="#ef4444"/><circle cx="324.1" cy="286.0" r="2.5" fill="#ef4444"/><circle cx="340.7" cy="286.0" r="2.5" fill="#ef4444"/><circle cx="357.3" cy="286.0" r="2.5" fill="#ef4444"/><circle cx="373.9" cy="286.0" r="2.5" fill="#ef4444"/><circle cx="390.4" cy="286.0" r="2.5" fill="#ef4444"/><circle cx="407.0" cy="286.0" r="2.5" fill="#ef4444"/><circle cx="423.6" cy="286.0" r="2.5" fill="#ef4444"/><circle cx="440.2" cy="286.0" r="2.5" fill="#ef4444"/><circle cx="456.8" cy="286.0" r="2.5" fill="#ef4444"/><circle cx="473.4" cy="286.0" r="2.5" fill="#ef4444"/><circle cx="490.0" cy="286.0" r="2.5" fill="#ef4444"/><circle cx="506.6" cy="286.0" r="2.5" fill="#ef4444"/><circle cx="523.2" cy="286.0" r="2.5" fill="#ef4444"/><circle cx="539.8" cy="286.0" r="2.5" fill="#ef4444"/><circle cx="556.4" cy="286.0" r="2.5" fill="#ef4444"/><circle cx="573.0" cy="274.0" r="2.5" fill="#ef4444"/><circle cx="589.6" cy="256.0" r="2.5" fill="#ef4444"/><circle cx="606.1" cy="286.0" r="2.5" fill="#ef4444"/><circle cx="622.7" cy="286.0" r="2.5" fill="#ef4444"/><circle cx="639.3" cy="286.0" r="2.5" fill="#ef4444"/><circle cx="655.9" cy="286.0" r="2.5" fill="#ef4444"/><circle cx="672.5" cy="286.0" r="2.5" fill="#ef4444"/><circle cx="689.1" cy="286.0" r="2.5" fill="#ef4444"/><circle cx="705.7" cy="286.0" r="2.5" fill="#ef4444"/><circle cx="722.3" cy="286.0" r="2.5" fill="#ef4444"/><circle cx="738.9" cy="286.0" r="2.5" fill="#ef4444"/><circle cx="755.5" cy="286.0" r="2.5" fill="#ef4444"/><circle cx="772.1" cy="286.0" r="2.5" fill="#ef4444"/><circle cx="788.7" cy="286.0" r="2.5" fill="#ef4444"/><circle cx="805.3" cy="286.0" r="2.5" fill="#ef4444"/><circle cx="821.9" cy="286.0" r="2.5" fill="#ef4444"/><circle cx="838.4" cy="280.0" r="2.5" fill="#ef4444"/><circle cx="855.0" cy="286.0" r="2.5" fill="#ef4444"/><circle cx="871.6" cy="286.0" r="2.5" fill="#ef4444"/><circle cx="888.2" cy="286.0" r="2.5" fill="#ef4444"/><circle cx="904.8" cy="286.0" r="2.5" fill="#ef4444"/><circle cx="921.4" cy="286.0" r="2.5" fill="#ef4444"/><circle cx="938.0" cy="286.0" r="2.5" fill="#ef4444"/><text x="42" y="308" font-size="11" fill="#5a688a">19/06 12:43</text><text x="938" y="308" text-anchor="end" font-size="11" fill="#5a688a">24/06 17:32</text></svg>