<svg xmlns="http://www.w3.org/2000/svg" viewBox="0 0 960 320" width="960" height="320" font-family="Segoe UI, system-ui, -apple-system, Roboto, Helvetica, Arial, sans-serif" role="img" aria-label="Availability history per region"><rect x="0.5" y="0.5" width="959" height="319" rx="14" fill="#0d1117" stroke="#2c3a5e"/><text x="42" y="26" font-size="14" font-weight="600" fill="#e6ecff">History · 74 points</text><circle cx="47" cy="40" r="5" fill="#22c55e"/><text x="57" y="44" font-size="12" fill="#9fb0d4">Available</text><circle cx="139.8" cy="40" r="5" fill="#f59e0b"/><text x="149.8" y="44" font-size="12" fill="#9fb0d4">Saturated</text><circle cx="232.60000000000002" cy="40" r="5" fill="#ef4444"/><text x="242.60000000000002" y="44" font-size="12" fill="#9fb0d4">Error</text><circle cx="296.6" cy="40" r="5" fill="#a855f7"/><text x="306.6" y="44" font-size="12" fill="#9fb0d4">Timeout</text><line x1="42" y1="286.0" x2="938" y2="286.0" stroke="#21304f" stroke-width="1"/><text x="35" y="289.0" text-anchor="end" font-size="11" fill="#9fb0d4">0</text><line x1="42" y1="227.5" x2="938" y2="227.5" stroke="#21304f" stroke-width="1"/><text x="35" y="230.5" text-anchor="end" font-size="11" fill="#9fb0d4">10</text><line x1="42" y1="169.0" x2="938" y2="169.0" stroke="#21304f" stroke-width="1"/><text x="35" y="172.0" text-anchor="end" font-size="11" fill="#9fb0d4">20</text><line x1="42" y1="110.5" x2="938" y2="110.5" stroke="#21304f" stroke-width="1"/><text x="35" y="113.5" text-anchor="end" font-size="11" fill="#9fb0d4">29</text><line x1="42" y1="52.0" x2="938" y2="52.0" stroke="#21304f" stroke-width="1"/><text x="35" y="55.0" text-anchor="end" font-size="11" fill="#9fb0d4">39</text><polyline fill="none" stroke="#22c55e" stroke-width="2.5" stroke-linejoin="round" stroke-linecap="round" points="42.0,70.0 54.3,70.0 66.5,88.0 78.8,88.0 91.1,76.0 103.4,76.0 115.6,76.0 127.9,70.0 140.2,76.0 152.5,70.0 164.7,64.0 177.0,58.0 189.3,58.0 201.6,58.0 213.8,58.0 226.1,58.0 238.4,58.0 250.7,58.0 262.9,58.0 275.2,58.0 287.5,58.0 299.8,58.0 312.0,58.0 324.3,58.0 336.6,58.0 348.8,58.0 361.1,58.0 373.4,58.0 385.7,58.0 397.9,58.0 410.2,58.0 422.5,70.0 434.8,76.0 447.0,94.0 459.3,64.0 471.6,64.0 483.9,58.0 496.1,58.0 508.4,58.0 520.7,70.0 533.0,76.0 545.2,76.0 557.5,82.0 569.8,82.0 582.1,82.0 594.3,82.0 606.6,76.0 618.9,64.0 631.2,70.0 643.4,70.0 655.7,82.0 668.0,76.0 680.2,76.0 692.5,82.0 704.8,76.0 717.1,76.0 729.3,76.0 741.6,64.0 753.9,64.0 766.2,76.0 778.4,76.0 790.7,76.0 803.0,88.0 815.3,70.0 827.5,64.0 839.8,58.0 852.1,58.0 864.4,70.0 876.6,70.0 888.9,70.0 901.2,76.0 913.5,70.0 925.7,70.0 938.0,70.0"/><polyline fill="none" stroke="#f59e0b" stroke-width="2.5" stroke-linejoin="round" stroke-linecap="round" points="42.0,274.0 54.3,274.0 66.5,274.0 78.8,280.0 91.1,268.0 103.4,268.0 115.6,268.0 127.9,274.0 140.2,274.0 152.5,274.0 164.7,280.0 177.0,286.0 189.3,286.0 201.6,286.0 213.8,286.0 226.1,286.0 238.4,286.0 250.7,286.0 262.9,286.0 275.2,286.0 287.5,286.0 299.8,286.0 312.0,286.0 324.3,286.0 336.6,286.0 348.8,286.0 361.1,286.0 373.4,286.0 385.7,286.0 397.9,286.0 410.2,286.0 422.5,274.0 434.8,280.0 447.0,280.0 459.3,280.0 471.6,280.0 483.9,286.0 496.1,286.0 508.4,286.0 520.7,274.0 533.0,268.0 545.2,268.0 557.5,262.0 569.8,262.0 582.1,262.0 594.3,262.0 606.6,268.0 618.9,280.0 631.2,280.0 643.4,274.0 655.7,262.0 668.0,268.0 680.2,268.0 692.5,262.0 704.8,268.0 717.1,268.0 729.3,268.0 741.6,280.0 753.9,280.0 766.2,268.0 778.4,268.0 790.7,268.0 803.0,262.0 815.3,274.0 827.5,280.0 839.8,286.0 852.1,286.0 864.4,274.0 876.6,274.0 888.9,274.0 901.2,274.0 913.5,274.0 925.7,274.0 938.0,274.0"/><polyline fill="none" stroke="#ef4444" stroke-width="2.5" stroke-linejoin="round" stroke-linecap="round" points="42.0,280.0 54.3,280.0 66.5,268.0 78.8,262.0 91.1,286.0 103.4,286.0 115.6,286.0 127.9,286.0 140.2,280.0 152.5,286.0 164.7,286.0 177.0,286.0 189.3,286.0 201.6,286.0 213.8,286.0 226.1,286.0 238.4,286.0 250.7,286.0 262.9,286.0 275.2,286.0 287.5,286.0 299.8,286.0 312.0,286.0 324.3,286.0 336.6,286.0 348.8,286.0 361.1,286.0 373.4,286.0 385.7,286.0 397.9,286.0 410.2,286.0 422.5,286.0 434.8,274.0 447.0,256.0 459.3,286.0 471.6,286.0 483.9,286.0 496.1,286.0 508.4,286.0 520.7,286.0 533.0,286.0 545.2,286.0 557.5,286.0 569.8,286.0 582.1,286.0 594.3,286.0 606.6,286.0 618.9,286.0 631.2,280.0 643.4,286.0 655.7,286.0 668.0,286.0 680.2,286.0 692.5,286.0 704.8,286.0 717.1,286.0 729.3,286.0 741.6,286.0 753.9,286.0 766.2,286.0 778.4,286.0 790.7,286.0 803.0,280.0 815.3,286.0 827.5,286.0 839.8,286.0 852.1,286.0 864.4,286.0 876.6,286.0 888.9,286.0 901.2,286.0 913.5,286.0 925.7,286.0 938.0,286.0"/><polyline fill="none" stroke="#a855f7" stroke-width="2.5" stroke-linejoin="round" stroke-linecap="round" points="42.0,286.0 54.3,286.0 66.5,286.0 78.8,286.0 91.1,286.0 103.4,286.0 115.6,286.0 127.9,286.0 140.2,286.0 152.5,286.0 164.7,286.0 177.0,286.0 189.3,286.0 201.6,286.0 213.8,286.0 226.1,286.0 238.4,286.0 250.7,286.0 262.9,286.0 275.2,286.0 287.5,286.0 299.8,286.0 312.0,286.0 324.3,286.0 336.6,286.0 348.8,286.0 361.1,286.0 373.4,286.0 385.7,286.0 397.9,286.0 410.2,286.0 422.5,286.0 434.8,286.0 447.0,286.0 459.3,286.0 471.6,286.0 483.9,286.0 496.1,286.0 508.4,286.0 520.7,286.0 533.0,286.0 545.2,286.0 557.5,286.0 569.8,286.0 582.1,286.0 594.3,286.0 606.6,286.0 618.9,286.0 631.2,286.0 643.4,286.0 655.7,286.0 668.0,286.0 680.2,286.0 692.5,286.0 704.8,286.0 717.1,286.0 729.3,286.0 741.6,286.0 753.9,286.0 766.2,286.0 778.4,286.0 790.7,286.0 803.0,286.0 815.3,286.0 827.5,286.0 839.8,286.0 852.1,286.0 864.4,286.0 876.6,286.0 888.9,286.0 901.2,280.0 913.5,286.0 925.7,286.0 938.0,286.0"/><text x="42" y="308" font-size="11" fill="#9fb0d4">19/06 12:43</text><text x="938" y="308" text-anchor="end" font-size="11" fill="#9fb0d4">26/06 18:40</text></svg>