<svg xmlns="http://www.w3.org/2000/svg" viewBox="0 0 960 320" width="960" height="320" font-family="Segoe UI, system-ui, -apple-system, Roboto, Helvetica, Arial, sans-serif" role="img" aria-label="Availability history per region"><rect x="0.5" y="0.5" width="959" height="319" rx="14" fill="#0d1117" stroke="#2c3a5e"/><text x="42" y="26" font-size="14" font-weight="600" fill="#e6ecff">History · 246 points</text><circle cx="47" cy="40" r="5" fill="#22c55e"/><text x="57" y="44" font-size="12" fill="#9fb0d4">Available</text><circle cx="139.8" cy="40" r="5" fill="#f59e0b"/><text x="149.8" y="44" font-size="12" fill="#9fb0d4">Saturated</text><circle cx="232.60000000000002" cy="40" r="5" fill="#ef4444"/><text x="242.60000000000002" y="44" font-size="12" fill="#9fb0d4">Error</text><circle cx="296.6" cy="40" r="5" fill="#a855f7"/><text x="306.6" y="44" font-size="12" fill="#9fb0d4">Timeout</text><line x1="42" y1="286.0" x2="938" y2="286.0" stroke="#21304f" stroke-width="1"/><text x="35" y="289.0" text-anchor="end" font-size="11" fill="#9fb0d4">0</text><line x1="42" y1="227.5" x2="938" y2="227.5" stroke="#21304f" stroke-width="1"/><text x="35" y="230.5" text-anchor="end" font-size="11" fill="#9fb0d4">10</text><line x1="42" y1="169.0" x2="938" y2="169.0" stroke="#21304f" stroke-width="1"/><text x="35" y="172.0" text-anchor="end" font-size="11" fill="#9fb0d4">20</text><line x1="42" y1="110.5" x2="938" y2="110.5" stroke="#21304f" stroke-width="1"/><text x="35" y="113.5" text-anchor="end" font-size="11" fill="#9fb0d4">29</text><line x1="42" y1="52.0" x2="938" y2="52.0" stroke="#21304f" stroke-width="1"/><text x="35" y="55.0" text-anchor="end" font-size="11" fill="#9fb0d4">39</text><polyline fill="none" stroke="#22c55e" stroke-width="2.5" stroke-linejoin="round" stroke-linecap="round" points="42.0,70.0 45.7,70.0 49.3,88.0 53.0,88.0 56.6,76.0 60.3,76.0 63.9,76.0 67.6,70.0 71.3,76.0 74.9,70.0 78.6,64.0 82.2,58.0 85.9,58.0 89.5,58.0 93.2,58.0 96.9,58.0 100.5,58.0 104.2,58.0 107.8,58.0 111.5,58.0 115.1,58.0 118.8,58.0 122.5,58.0 126.1,58.0 129.8,58.0 133.4,58.0 137.1,58.0 140.7,58.0 144.4,58.0 148.1,58.0 151.7,58.0 155.4,70.0 159.0,76.0 162.7,94.0 166.3,64.0 170.0,64.0 173.7,58.0 177.3,58.0 181.0,58.0 184.6,70.0 188.3,76.0 191.9,76.0 195.6,82.0 199.3,82.0 202.9,82.0 206.6,82.0 210.2,76.0 213.9,64.0 217.5,70.0 221.2,70.0 224.9,82.0 228.5,76.0 232.2,76.0 235.8,82.0 239.5,76.0 243.1,76.0 246.8,76.0 250.5,64.0 254.1,64.0 257.8,76.0 261.4,76.0 265.1,76.0 268.7,88.0 272.4,70.0 276.1,64.0 279.7,58.0 283.4,58.0 287.0,70.0 290.7,70.0 294.3,70.0 298.0,76.0 301.7,70.0 305.3,70.0 309.0,70.0 312.6,70.0 316.3,76.0 319.9,82.0 323.6,76.0 327.3,70.0 330.9,70.0 334.6,70.0 338.2,70.0 341.9,76.0 345.5,70.0 349.2,70.0 352.9,70.0 356.5,70.0 360.2,70.0 363.8,70.0 367.5,70.0 371.1,70.0 374.8,70.0 378.5,70.0 382.1,70.0 385.8,70.0 389.4,70.0 393.1,70.0 396.7,70.0 400.4,70.0 404.1,70.0 407.7,70.0 411.4,70.0 415.0,70.0 418.7,70.0 422.3,70.0 426.0,70.0 429.7,70.0 433.3,70.0 437.0,70.0 440.6,70.0 444.3,70.0 447.9,70.0 451.6,70.0 455.3,70.0 458.9,70.0 462.6,70.0 466.2,70.0 469.9,70.0 473.5,70.0 477.2,70.0 480.9,70.0 484.5,70.0 488.2,70.0 491.8,70.0 495.5,70.0 499.1,70.0 502.8,70.0 506.5,70.0 510.1,70.0 513.8,70.0 517.4,70.0 521.1,70.0 524.7,70.0 528.4,70.0 532.1,70.0 535.7,70.0 539.4,70.0 543.0,70.0 546.7,70.0 550.3,70.0 554.0,70.0 557.7,70.0 561.3,70.0 565.0,70.0 568.6,70.0 572.3,70.0 575.9,70.0 579.6,70.0 583.3,70.0 586.9,70.0 590.6,70.0 594.2,76.0 597.9,70.0 601.5,70.0 605.2,70.0 608.9,70.0 612.5,70.0 616.2,76.0 619.8,76.0 623.5,88.0 627.1,88.0 630.8,88.0 634.5,94.0 638.1,94.0 641.8,94.0 645.4,94.0 649.1,88.0 652.7,88.0 656.4,82.0 660.1,82.0 663.7,82.0 667.4,88.0 671.0,88.0 674.7,94.0 678.3,82.0 682.0,82.0 685.7,82.0 689.3,82.0 693.0,88.0 696.6,88.0 700.3,94.0 703.9,94.0 707.6,88.0 711.3,88.0 714.9,88.0 718.6,94.0 722.2,94.0 725.9,106.0 729.5,94.0 733.2,94.0 736.9,94.0 740.5,94.0 744.2,88.0 747.8,88.0 751.5,82.0 755.1,76.0 758.8,76.0 762.5,76.0 766.1,76.0 769.8,76.0 773.4,76.0 777.1,70.0 780.7,70.0 784.4,70.0 788.1,76.0 791.7,88.0 795.4,82.0 799.0,70.0 802.7,70.0 806.3,70.0 810.0,76.0 813.7,76.0 817.3,76.0 821.0,82.0 824.6,70.0 828.3,76.0 831.9,64.0 835.6,70.0 839.3,58.0 842.9,58.0 846.6,58.0 850.2,58.0 853.9,58.0 857.5,64.0 861.2,58.0 864.9,64.0 868.5,58.0 872.2,58.0 875.8,58.0 879.5,58.0 883.1,64.0 886.8,64.0 890.5,64.0 894.1,76.0 897.8,70.0 901.4,82.0 905.1,70.0 908.7,76.0 912.4,58.0 916.1,64.0 919.7,58.0 923.4,64.0 927.0,58.0 930.7,58.0 934.3,58.0 938.0,64.0"/><polyline fill="none" stroke="#f59e0b" stroke-width="2.5" stroke-linejoin="round" stroke-linecap="round" points="42.0,274.0 45.7,274.0 49.3,274.0 53.0,280.0 56.6,268.0 60.3,268.0 63.9,268.0 67.6,274.0 71.3,274.0 74.9,274.0 78.6,280.0 82.2,286.0 85.9,286.0 89.5,286.0 93.2,286.0 96.9,286.0 100.5,286.0 104.2,286.0 107.8,286.0 111.5,286.0 115.1,286.0 118.8,286.0 122.5,286.0 126.1,286.0 129.8,286.0 133.4,286.0 137.1,286.0 140.7,286.0 144.4,286.0 148.1,286.0 151.7,286.0 155.4,274.0 159.0,280.0 162.7,280.0 166.3,280.0 170.0,280.0 173.7,286.0 177.3,286.0 181.0,286.0 184.6,274.0 188.3,268.0 191.9,268.0 195.6,262.0 199.3,262.0 202.9,262.0 206.6,262.0 210.2,268.0 213.9,280.0 217.5,280.0 221.2,274.0 224.9,262.0 228.5,268.0 232.2,268.0 235.8,262.0 239.5,268.0 243.1,268.0 246.8,268.0 250.5,280.0 254.1,280.0 257.8,268.0 261.4,268.0 265.1,268.0 268.7,262.0 272.4,274.0 276.1,280.0 279.7,286.0 283.4,286.0 287.0,274.0 290.7,274.0 294.3,274.0 298.0,274.0 301.7,274.0 305.3,274.0 309.0,274.0 312.6,274.0 316.3,280.0 319.9,274.0 323.6,280.0 327.3,286.0 330.9,286.0 334.6,286.0 338.2,286.0 341.9,280.0 345.5,286.0 349.2,286.0 352.9,286.0 356.5,286.0 360.2,286.0 363.8,286.0 367.5,286.0 371.1,286.0 374.8,286.0 378.5,286.0 382.1,286.0 385.8,286.0 389.4,286.0 393.1,286.0 396.7,286.0 400.4,286.0 404.1,286.0 407.7,286.0 411.4,286.0 415.0,286.0 418.7,286.0 422.3,286.0 426.0,286.0 429.7,286.0 433.3,286.0 437.0,286.0 440.6,286.0 444.3,286.0 447.9,286.0 451.6,286.0 455.3,286.0 458.9,286.0 462.6,286.0 466.2,286.0 469.9,286.0 473.5,286.0 477.2,286.0 480.9,286.0 484.5,286.0 488.2,286.0 491.8,286.0 495.5,286.0 499.1,286.0 502.8,286.0 506.5,286.0 510.1,286.0 513.8,286.0 517.4,286.0 521.1,286.0 524.7,286.0 528.4,286.0 532.1,286.0 535.7,286.0 539.4,286.0 543.0,286.0 546.7,286.0 550.3,286.0 554.0,286.0 557.7,286.0 561.3,286.0 565.0,286.0 568.6,286.0 572.3,286.0 575.9,286.0 579.6,286.0 583.3,286.0 586.9,286.0 590.6,286.0 594.2,286.0 597.9,286.0 601.5,286.0 605.2,286.0 608.9,286.0 612.5,286.0 616.2,286.0 619.8,280.0 623.5,268.0 627.1,268.0 630.8,268.0 634.5,268.0 638.1,262.0 641.8,262.0 645.4,262.0 649.1,268.0 652.7,268.0 656.4,274.0 660.1,274.0 663.7,274.0 667.4,268.0 671.0,268.0 674.7,268.0 678.3,274.0 682.0,274.0 685.7,274.0 689.3,274.0 693.0,268.0 696.6,268.0 700.3,262.0 703.9,262.0 707.6,268.0 711.3,268.0 714.9,268.0 718.6,262.0 722.2,262.0 725.9,274.0 729.5,262.0 733.2,262.0 736.9,262.0 740.5,262.0 744.2,268.0 747.8,268.0 751.5,274.0 755.1,280.0 758.8,280.0 762.5,280.0 766.1,280.0 769.8,280.0 773.4,280.0 777.1,286.0 780.7,286.0 784.4,286.0 788.1,280.0 791.7,274.0 795.4,274.0 799.0,280.0 802.7,274.0 806.3,274.0 810.0,268.0 813.7,268.0 817.3,268.0 821.0,268.0 824.6,280.0 828.3,274.0 831.9,280.0 835.6,280.0 839.3,286.0 842.9,286.0 846.6,286.0 850.2,286.0 853.9,286.0 857.5,286.0 861.2,286.0 864.9,286.0 868.5,286.0 872.2,286.0 875.8,286.0 879.5,286.0 883.1,280.0 886.8,280.0 890.5,280.0 894.1,268.0 897.8,280.0 901.4,268.0 905.1,274.0 908.7,274.0 912.4,286.0 916.1,280.0 919.7,286.0 923.4,280.0 927.0,286.0 930.7,286.0 934.3,286.0 938.0,280.0"/><polyline fill="none" stroke="#ef4444" stroke-width="2.5" stroke-linejoin="round" stroke-linecap="round" points="42.0,280.0 45.7,280.0 49.3,268.0 53.0,262.0 56.6,286.0 60.3,286.0 63.9,286.0 67.6,286.0 71.3,280.0 74.9,286.0 78.6,286.0 82.2,286.0 85.9,286.0 89.5,286.0 93.2,286.0 96.9,286.0 100.5,286.0 104.2,286.0 107.8,286.0 111.5,286.0 115.1,286.0 118.8,286.0 122.5,286.0 126.1,286.0 129.8,286.0 133.4,286.0 137.1,286.0 140.7,286.0 144.4,286.0 148.1,286.0 151.7,286.0 155.4,286.0 159.0,274.0 162.7,256.0 166.3,286.0 170.0,286.0 173.7,286.0 177.3,286.0 181.0,286.0 184.6,286.0 188.3,286.0 191.9,286.0 195.6,286.0 199.3,286.0 202.9,286.0 206.6,286.0 210.2,286.0 213.9,286.0 217.5,280.0 221.2,286.0 224.9,286.0 228.5,286.0 232.2,286.0 235.8,286.0 239.5,286.0 243.1,286.0 246.8,286.0 250.5,286.0 254.1,286.0 257.8,286.0 261.4,286.0 265.1,286.0 268.7,280.0 272.4,286.0 276.1,286.0 279.7,286.0 283.4,286.0 287.0,286.0 290.7,286.0 294.3,286.0 298.0,286.0 301.7,286.0 305.3,286.0 309.0,286.0 312.6,286.0 316.3,274.0 319.9,274.0 323.6,274.0 327.3,274.0 330.9,274.0 334.6,274.0 338.2,274.0 341.9,274.0 345.5,274.0 349.2,274.0 352.9,274.0 356.5,274.0 360.2,274.0 363.8,274.0 367.5,274.0 371.1,274.0 374.8,274.0 378.5,274.0 382.1,274.0 385.8,274.0 389.4,274.0 393.1,274.0 396.7,274.0 400.4,274.0 404.1,274.0 407.7,274.0 411.4,274.0 415.0,274.0 418.7,274.0 422.3,274.0 426.0,274.0 429.7,274.0 433.3,274.0 437.0,274.0 440.6,274.0 444.3,274.0 447.9,274.0 451.6,274.0 455.3,274.0 458.9,274.0 462.6,274.0 466.2,274.0 469.9,274.0 473.5,274.0 477.2,274.0 480.9,274.0 484.5,274.0 488.2,274.0 491.8,274.0 495.5,274.0 499.1,274.0 502.8,274.0 506.5,274.0 510.1,274.0 513.8,274.0 517.4,274.0 521.1,274.0 524.7,274.0 528.4,274.0 532.1,274.0 535.7,274.0 539.4,274.0 543.0,274.0 546.7,274.0 550.3,274.0 554.0,274.0 557.7,274.0 561.3,274.0 565.0,274.0 568.6,274.0 572.3,274.0 575.9,274.0 579.6,274.0 583.3,274.0 586.9,274.0 590.6,274.0 594.2,268.0 597.9,274.0 601.5,274.0 605.2,274.0 608.9,274.0 612.5,274.0 616.2,274.0 619.8,274.0 623.5,274.0 627.1,274.0 630.8,274.0 634.5,268.0 638.1,274.0 641.8,274.0 645.4,274.0 649.1,274.0 652.7,274.0 656.4,274.0 660.1,274.0 663.7,274.0 667.4,274.0 671.0,274.0 674.7,268.0 678.3,274.0 682.0,274.0 685.7,274.0 689.3,274.0 693.0,274.0 696.6,274.0 700.3,274.0 703.9,274.0 707.6,274.0 711.3,274.0 714.9,274.0 718.6,274.0 722.2,274.0 725.9,250.0 729.5,274.0 733.2,274.0 736.9,274.0 740.5,274.0 744.2,274.0 747.8,274.0 751.5,274.0 755.1,274.0 758.8,274.0 762.5,274.0 766.1,274.0 769.8,274.0 773.4,274.0 777.1,274.0 780.7,274.0 784.4,274.0 788.1,274.0 791.7,268.0 795.4,274.0 799.0,280.0 802.7,286.0 806.3,286.0 810.0,286.0 813.7,286.0 817.3,286.0 821.0,280.0 824.6,280.0 828.3,286.0 831.9,286.0 835.6,280.0 839.3,286.0 842.9,286.0 846.6,286.0 850.2,286.0 853.9,286.0 857.5,280.0 861.2,286.0 864.9,286.0 868.5,286.0 872.2,286.0 875.8,286.0 879.5,286.0 883.1,286.0 886.8,286.0 890.5,286.0 894.1,286.0 897.8,280.0 901.4,280.0 905.1,286.0 908.7,280.0 912.4,286.0 916.1,286.0 919.7,286.0 923.4,286.0 927.0,286.0 930.7,286.0 934.3,286.0 938.0,286.0"/><polyline fill="none" stroke="#a855f7" stroke-width="2.5" stroke-linejoin="round" stroke-linecap="round" points="42.0,286.0 45.7,286.0 49.3,286.0 53.0,286.0 56.6,286.0 60.3,286.0 63.9,286.0 67.6,286.0 71.3,286.0 74.9,286.0 78.6,286.0 82.2,286.0 85.9,286.0 89.5,286.0 93.2,286.0 96.9,286.0 100.5,286.0 104.2,286.0 107.8,286.0 111.5,286.0 115.1,286.0 118.8,286.0 122.5,286.0 126.1,286.0 129.8,286.0 133.4,286.0 137.1,286.0 140.7,286.0 144.4,286.0 148.1,286.0 151.7,286.0 155.4,286.0 159.0,286.0 162.7,286.0 166.3,286.0 170.0,286.0 173.7,286.0 177.3,286.0 181.0,286.0 184.6,286.0 188.3,286.0 191.9,286.0 195.6,286.0 199.3,286.0 202.9,286.0 206.6,286.0 210.2,286.0 213.9,286.0 217.5,286.0 221.2,286.0 224.9,286.0 228.5,286.0 232.2,286.0 235.8,286.0 239.5,286.0 243.1,286.0 246.8,286.0 250.5,286.0 254.1,286.0 257.8,286.0 261.4,286.0 265.1,286.0 268.7,286.0 272.4,286.0 276.1,286.0 279.7,286.0 283.4,286.0 287.0,286.0 290.7,286.0 294.3,286.0 298.0,280.0 301.7,286.0 305.3,286.0 309.0,286.0 312.6,286.0 316.3,286.0 319.9,286.0 323.6,286.0 327.3,286.0 330.9,286.0 334.6,286.0 338.2,286.0 341.9,286.0 345.5,286.0 349.2,286.0 352.9,286.0 356.5,286.0 360.2,286.0 363.8,286.0 367.5,286.0 371.1,286.0 374.8,286.0 378.5,286.0 382.1,286.0 385.8,286.0 389.4,286.0 393.1,286.0 396.7,286.0 400.4,286.0 404.1,286.0 407.7,286.0 411.4,286.0 415.0,286.0 418.7,286.0 422.3,286.0 426.0,286.0 429.7,286.0 433.3,286.0 437.0,286.0 440.6,286.0 444.3,286.0 447.9,286.0 451.6,286.0 455.3,286.0 458.9,286.0 462.6,286.0 466.2,286.0 469.9,286.0 473.5,286.0 477.2,286.0 480.9,286.0 484.5,286.0 488.2,286.0 491.8,286.0 495.5,286.0 499.1,286.0 502.8,286.0 506.5,286.0 510.1,286.0 513.8,286.0 517.4,286.0 521.1,286.0 524.7,286.0 528.4,286.0 532.1,286.0 535.7,286.0 539.4,286.0 543.0,286.0 546.7,286.0 550.3,286.0 554.0,286.0 557.7,286.0 561.3,286.0 565.0,286.0 568.6,286.0 572.3,286.0 575.9,286.0 579.6,286.0 583.3,286.0 586.9,286.0 590.6,286.0 594.2,286.0 597.9,286.0 601.5,286.0 605.2,286.0 608.9,286.0 612.5,286.0 616.2,280.0 619.8,286.0 623.5,286.0 627.1,286.0 630.8,286.0 634.5,286.0 638.1,286.0 641.8,286.0 645.4,286.0 649.1,286.0 652.7,286.0 656.4,286.0 660.1,286.0 663.7,286.0 667.4,286.0 671.0,286.0 674.7,286.0 678.3,286.0 682.0,286.0 685.7,286.0 689.3,286.0 693.0,286.0 696.6,286.0 700.3,286.0 703.9,286.0 707.6,286.0 711.3,286.0 714.9,286.0 718.6,286.0 722.2,286.0 725.9,286.0 729.5,286.0 733.2,286.0 736.9,286.0 740.5,286.0 744.2,286.0 747.8,286.0 751.5,286.0 755.1,286.0 758.8,286.0 762.5,286.0 766.1,286.0 769.8,286.0 773.4,286.0 777.1,286.0 780.7,286.0 784.4,286.0 788.1,286.0 791.7,286.0 795.4,286.0 799.0,286.0 802.7,286.0 806.3,286.0 810.0,286.0 813.7,286.0 817.3,286.0 821.0,286.0 824.6,286.0 828.3,280.0 831.9,286.0 835.6,286.0 839.3,286.0 842.9,286.0 846.6,286.0 850.2,286.0 853.9,286.0 857.5,286.0 861.2,286.0 864.9,280.0 868.5,286.0 872.2,286.0 875.8,286.0 879.5,286.0 883.1,286.0 886.8,286.0 890.5,286.0 894.1,286.0 897.8,286.0 901.4,286.0 905.1,286.0 908.7,286.0 912.4,286.0 916.1,286.0 919.7,286.0 923.4,286.0 927.0,286.0 930.7,286.0 934.3,286.0 938.0,286.0"/><text x="42" y="308" font-size="11" fill="#9fb0d4">19/06 12:43</text><text x="938" y="308" text-anchor="end" font-size="11" fill="#9fb0d4">03/07 06:30</text></svg>