<svg xmlns="http://www.w3.org/2000/svg" viewBox="0 0 960 320" width="960" height="320" font-family="Segoe UI, system-ui, -apple-system, Roboto, Helvetica, Arial, sans-serif" role="img" aria-label="Availability history per region"><rect x="0.5" y="0.5" width="959" height="319" rx="14" fill="#0d1117" stroke="#2c3a5e"/><text x="42" y="26" font-size="14" font-weight="600" fill="#e6ecff">History · 336 points</text><circle cx="47" cy="40" r="5" fill="#22c55e"/><text x="57" y="44" font-size="12" fill="#9fb0d4">Available</text><circle cx="139.8" cy="40" r="5" fill="#f59e0b"/><text x="149.8" y="44" font-size="12" fill="#9fb0d4">Saturated</text><circle cx="232.60000000000002" cy="40" r="5" fill="#ef4444"/><text x="242.60000000000002" y="44" font-size="12" fill="#9fb0d4">Error</text><circle cx="296.6" cy="40" r="5" fill="#a855f7"/><text x="306.6" y="44" font-size="12" fill="#9fb0d4">Timeout</text><line x1="42" y1="286.0" x2="938" y2="286.0" stroke="#21304f" stroke-width="1"/><text x="35" y="289.0" text-anchor="end" font-size="11" fill="#9fb0d4">0</text><line x1="42" y1="227.5" x2="938" y2="227.5" stroke="#21304f" stroke-width="1"/><text x="35" y="230.5" text-anchor="end" font-size="11" fill="#9fb0d4">10</text><line x1="42" y1="169.0" x2="938" y2="169.0" stroke="#21304f" stroke-width="1"/><text x="35" y="172.0" text-anchor="end" font-size="11" fill="#9fb0d4">19</text><line x1="42" y1="110.5" x2="938" y2="110.5" stroke="#21304f" stroke-width="1"/><text x="35" y="113.5" text-anchor="end" font-size="11" fill="#9fb0d4">28</text><line x1="42" y1="52.0" x2="938" y2="52.0" stroke="#21304f" stroke-width="1"/><text x="35" y="55.0" text-anchor="end" font-size="11" fill="#9fb0d4">38</text><polyline fill="none" stroke="#22c55e" stroke-width="2.5" stroke-linejoin="round" stroke-linecap="round" points="42.0,64.3 44.7,64.3 47.3,64.3 50.0,64.3 52.7,70.5 55.4,70.5 58.0,82.8 60.7,82.8 63.4,82.8 66.1,88.9 68.7,88.9 71.4,88.9 74.1,88.9 76.8,82.8 79.4,82.8 82.1,76.6 84.8,76.6 87.5,76.6 90.1,82.8 92.8,82.8 95.5,88.9 98.2,76.6 100.8,76.6 103.5,76.6 106.2,76.6 108.9,82.8 111.5,82.8 114.2,88.9 116.9,88.9 119.6,82.8 122.2,82.8 124.9,82.8 127.6,88.9 130.3,88.9 132.9,101.3 135.6,88.9 138.3,88.9 141.0,88.9 143.6,88.9 146.3,82.8 149.0,82.8 151.7,76.6 154.3,70.5 157.0,70.5 159.7,70.5 162.4,70.5 165.0,70.5 167.7,70.5 170.4,64.3 173.1,64.3 175.7,64.3 178.4,70.5 181.1,82.8 183.8,76.6 186.4,64.3 189.1,64.3 191.8,64.3 194.5,70.5 197.1,70.5 199.8,70.5 202.5,76.6 205.2,64.3 207.8,70.5 210.5,58.2 213.2,64.3 215.9,52.0 218.5,52.0 221.2,52.0 223.9,52.0 226.5,52.0 229.2,58.2 231.9,52.0 234.6,58.2 237.2,52.0 239.9,52.0 242.6,52.0 245.3,52.0 247.9,58.2 250.6,58.2 253.3,58.2 256.0,70.5 258.6,64.3 261.3,76.6 264.0,64.3 266.7,70.5 269.3,52.0 272.0,58.2 274.7,52.0 277.4,58.2 280.0,52.0 282.7,52.0 285.4,52.0 288.1,58.2 290.7,64.3 293.4,58.2 296.1,58.2 298.8,58.2 301.4,64.3 304.1,64.3 306.8,58.2 309.5,64.3 312.1,64.3 314.8,64.3 317.5,52.0 320.2,52.0 322.8,52.0 325.5,52.0 328.2,52.0 330.9,58.2 333.5,52.0 336.2,52.0 338.9,52.0 341.6,52.0 344.2,52.0 346.9,52.0 349.6,52.0 352.3,52.0 354.9,58.2 357.6,52.0 360.3,52.0 363.0,52.0 365.6,52.0 368.3,52.0 371.0,52.0 373.7,52.0 376.3,58.2 379.0,52.0 381.7,52.0 384.4,52.0 387.0,52.0 389.7,52.0 392.4,52.0 395.1,52.0 397.7,52.0 400.4,52.0 403.1,52.0 405.7,52.0 408.4,52.0 411.1,52.0 413.8,52.0 416.4,52.0 419.1,52.0 421.8,52.0 424.5,52.0 427.1,52.0 429.8,58.2 432.5,58.2 435.2,52.0 437.8,52.0 440.5,52.0 443.2,58.2 445.9,58.2 448.5,70.5 451.2,58.2 453.9,58.2 456.6,64.3 459.2,52.0 461.9,52.0 464.6,52.0 467.3,52.0 469.9,52.0 472.6,52.0 475.3,64.3 478.0,58.2 480.6,58.2 483.3,58.2 486.0,58.2 488.7,64.3 491.3,64.3 494.0,70.5 496.7,70.5 499.4,76.6 502.0,82.8 504.7,76.6 507.4,76.6 510.1,82.8 512.7,76.6 515.4,70.5 518.1,70.5 520.8,64.3 523.4,58.2 526.1,58.2 528.8,70.5 531.5,70.5 534.1,64.3 536.8,70.5 539.5,64.3 542.2,64.3 544.8,64.3 547.5,76.6 550.2,64.3 552.9,70.5 555.5,64.3 558.2,70.5 560.9,64.3 563.6,70.5 566.2,64.3 568.9,64.3 571.6,76.6 574.3,70.5 576.9,70.5 579.6,70.5 582.3,70.5 584.9,70.5 587.6,64.3 590.3,70.5 593.0,64.3 595.6,64.3 598.3,64.3 601.0,70.5 603.7,70.5 606.3,70.5 609.0,64.3 611.7,64.3 614.4,64.3 617.0,64.3 619.7,70.5 622.4,70.5 625.1,70.5 627.7,76.6 630.4,70.5 633.1,76.6 635.8,76.6 638.4,76.6 641.1,82.8 643.8,76.6 646.5,76.6 649.1,76.6 651.8,70.5 654.5,70.5 657.2,70.5 659.8,70.5 662.5,70.5 665.2,64.3 667.9,64.3 670.5,64.3 673.2,70.5 675.9,76.6 678.6,64.3 681.2,64.3 683.9,64.3 686.6,70.5 689.3,70.5 691.9,70.5 694.6,76.6 697.3,76.6 700.0,76.6 702.6,82.8 705.3,88.9 708.0,82.8 710.7,82.8 713.3,76.6 716.0,70.5 718.7,76.6 721.4,82.8 724.0,76.6 726.7,70.5 729.4,70.5 732.1,64.3 734.7,64.3 737.4,64.3 740.1,64.3 742.8,64.3 745.4,64.3 748.1,64.3 750.8,64.3 753.5,64.3 756.1,64.3 758.8,64.3 761.5,64.3 764.1,64.3 766.8,58.2 769.5,70.5 772.2,64.3 774.8,58.2 777.5,64.3 780.2,64.3 782.9,64.3 785.5,64.3 788.2,64.3 790.9,58.2 793.6,58.2 796.2,58.2 798.9,58.2 801.6,58.2 804.3,64.3 806.9,58.2 809.6,58.2 812.3,58.2 815.0,58.2 817.6,58.2 820.3,58.2 823.0,64.3 825.7,64.3 828.3,58.2 831.0,58.2 833.7,58.2 836.4,64.3 839.0,58.2 841.7,58.2 844.4,58.2 847.1,58.2 849.7,58.2 852.4,58.2 855.1,58.2 857.8,58.2 860.4,58.2 863.1,58.2 865.8,58.2 868.5,58.2 871.1,58.2 873.8,64.3 876.5,70.5 879.2,70.5 881.8,70.5 884.5,76.6 887.2,76.6 889.9,76.6 892.5,82.8 895.2,82.8 897.9,76.6 900.6,76.6 903.2,82.8 905.9,82.8 908.6,76.6 911.3,70.5 913.9,76.6 916.6,70.5 919.3,76.6 922.0,70.5 924.6,70.5 927.3,70.5 930.0,70.5 932.7,76.6 935.3,76.6 938.0,76.6"/><polyline fill="none" stroke="#f59e0b" stroke-width="2.5" stroke-linejoin="round" stroke-linecap="round" points="42.0,286.0 44.7,286.0 47.3,286.0 50.0,286.0 52.7,286.0 55.4,279.8 58.0,267.5 60.7,267.5 63.4,267.5 66.1,267.5 68.7,261.4 71.4,261.4 74.1,261.4 76.8,267.5 79.4,267.5 82.1,273.7 84.8,273.7 87.5,273.7 90.1,267.5 92.8,267.5 95.5,267.5 98.2,273.7 100.8,273.7 103.5,273.7 106.2,273.7 108.9,267.5 111.5,267.5 114.2,261.4 116.9,261.4 119.6,267.5 122.2,267.5 124.9,267.5 127.6,261.4 130.3,261.4 132.9,273.7 135.6,261.4 138.3,261.4 141.0,261.4 143.6,261.4 146.3,267.5 149.0,267.5 151.7,273.7 154.3,279.8 157.0,279.8 159.7,279.8 162.4,279.8 165.0,279.8 167.7,279.8 170.4,286.0 173.1,286.0 175.7,286.0 178.4,279.8 181.1,273.7 183.8,273.7 186.4,279.8 189.1,273.7 191.8,273.7 194.5,267.5 197.1,267.5 199.8,267.5 202.5,267.5 205.2,279.8 207.8,273.7 210.5,279.8 213.2,279.8 215.9,286.0 218.5,286.0 221.2,286.0 223.9,286.0 226.5,286.0 229.2,286.0 231.9,286.0 234.6,286.0 237.2,286.0 239.9,286.0 242.6,286.0 245.3,286.0 247.9,279.8 250.6,279.8 253.3,279.8 256.0,267.5 258.6,279.8 261.3,267.5 264.0,273.7 266.7,273.7 269.3,286.0 272.0,279.8 274.7,286.0 277.4,279.8 280.0,286.0 282.7,286.0 285.4,286.0 288.1,279.8 290.7,273.7 293.4,279.8 296.1,279.8 298.8,279.8 301.4,273.7 304.1,273.7 306.8,279.8 309.5,279.8 312.1,279.8 314.8,279.8 317.5,286.0 320.2,286.0 322.8,286.0 325.5,286.0 328.2,286.0 330.9,286.0 333.5,286.0 336.2,286.0 338.9,286.0 341.6,286.0 344.2,286.0 346.9,286.0 349.6,286.0 352.3,286.0 354.9,286.0 357.6,286.0 360.3,286.0 363.0,286.0 365.6,286.0 368.3,286.0 371.0,286.0 373.7,286.0 376.3,286.0 379.0,286.0 381.7,286.0 384.4,286.0 387.0,286.0 389.7,286.0 392.4,286.0 395.1,286.0 397.7,286.0 400.4,286.0 403.1,286.0 405.7,286.0 408.4,286.0 411.1,286.0 413.8,286.0 416.4,286.0 419.1,286.0 421.8,286.0 424.5,286.0 427.1,286.0 429.8,286.0 432.5,286.0 435.2,286.0 437.8,286.0 440.5,286.0 443.2,279.8 445.9,279.8 448.5,279.8 451.2,279.8 453.9,279.8 456.6,273.7 459.2,286.0 461.9,286.0 464.6,286.0 467.3,286.0 469.9,286.0 472.6,286.0 475.3,286.0 478.0,279.8 480.6,279.8 483.3,279.8 486.0,279.8 488.7,273.7 491.3,273.7 494.0,267.5 496.7,267.5 499.4,261.4 502.0,261.4 504.7,261.4 507.4,261.4 510.1,261.4 512.7,267.5 515.4,267.5 518.1,267.5 520.8,273.7 523.4,279.8 526.1,279.8 528.8,267.5 531.5,267.5 534.1,273.7 536.8,267.5 539.5,273.7 542.2,273.7 544.8,273.7 547.5,273.7 550.2,273.7 552.9,267.5 555.5,273.7 558.2,267.5 560.9,273.7 563.6,267.5 566.2,273.7 568.9,273.7 571.6,261.4 574.3,267.5 576.9,267.5 579.6,267.5 582.3,267.5 584.9,267.5 587.6,273.7 590.3,267.5 593.0,273.7 595.6,273.7 598.3,273.7 601.0,267.5 603.7,267.5 606.3,267.5 609.0,273.7 611.7,273.7 614.4,273.7 617.0,273.7 619.7,267.5 622.4,267.5 625.1,267.5 627.7,267.5 630.4,267.5 633.1,261.4 635.8,261.4 638.4,261.4 641.1,261.4 643.8,261.4 646.5,261.4 649.1,261.4 651.8,267.5 654.5,267.5 657.2,267.5 659.8,267.5 662.5,267.5 665.2,273.7 667.9,273.7 670.5,273.7 673.2,267.5 675.9,267.5 678.6,273.7 681.2,273.7 683.9,273.7 686.6,267.5 689.3,267.5 691.9,267.5 694.6,261.4 697.3,261.4 700.0,261.4 702.6,255.2 705.3,255.2 708.0,255.2 710.7,261.4 713.3,261.4 716.0,267.5 718.7,261.4 721.4,261.4 724.0,261.4 726.7,267.5 729.4,267.5 732.1,273.7 734.7,273.7 737.4,273.7 740.1,273.7 742.8,273.7 745.4,273.7 748.1,273.7 750.8,273.7 753.5,273.7 756.1,273.7 758.8,273.7 761.5,273.7 764.1,273.7 766.8,279.8 769.5,273.7 772.2,273.7 774.8,279.8 777.5,273.7 780.2,273.7 782.9,273.7 785.5,273.7 788.2,273.7 790.9,279.8 793.6,279.8 796.2,279.8 798.9,279.8 801.6,279.8 804.3,273.7 806.9,279.8 809.6,279.8 812.3,279.8 815.0,279.8 817.6,279.8 820.3,279.8 823.0,273.7 825.7,273.7 828.3,279.8 831.0,279.8 833.7,279.8 836.4,279.8 839.0,279.8 841.7,279.8 844.4,279.8 847.1,279.8 849.7,279.8 852.4,279.8 855.1,279.8 857.8,279.8 860.4,279.8 863.1,279.8 865.8,279.8 868.5,279.8 871.1,279.8 873.8,273.7 876.5,273.7 879.2,267.5 881.8,267.5 884.5,261.4 887.2,261.4 889.9,261.4 892.5,255.2 895.2,255.2 897.9,261.4 900.6,261.4 903.2,255.2 905.9,255.2 908.6,267.5 911.3,267.5 913.9,261.4 916.6,267.5 919.3,261.4 922.0,267.5 924.6,267.5 927.3,267.5 930.0,267.5 932.7,267.5 935.3,267.5 938.0,261.4"/><polyline fill="none" stroke="#ef4444" stroke-width="2.5" stroke-linejoin="round" stroke-linecap="round" points="42.0,273.7 44.7,273.7 47.3,273.7 50.0,273.7 52.7,273.7 55.4,273.7 58.0,273.7 60.7,273.7 63.4,273.7 66.1,267.5 68.7,273.7 71.4,273.7 74.1,273.7 76.8,273.7 79.4,273.7 82.1,273.7 84.8,273.7 87.5,273.7 90.1,273.7 92.8,273.7 95.5,267.5 98.2,273.7 100.8,273.7 103.5,273.7 106.2,273.7 108.9,273.7 111.5,273.7 114.2,273.7 116.9,273.7 119.6,273.7 122.2,273.7 124.9,273.7 127.6,273.7 130.3,273.7 132.9,249.1 135.6,273.7 138.3,273.7 141.0,273.7 143.6,273.7 146.3,273.7 149.0,273.7 151.7,273.7 154.3,273.7 157.0,273.7 159.7,273.7 162.4,273.7 165.0,273.7 167.7,273.7 170.4,273.7 173.1,273.7 175.7,273.7 178.4,273.7 181.1,267.5 183.8,273.7 186.4,279.8 189.1,286.0 191.8,286.0 194.5,286.0 197.1,286.0 199.8,286.0 202.5,279.8 205.2,279.8 207.8,286.0 210.5,286.0 213.2,279.8 215.9,286.0 218.5,286.0 221.2,286.0 223.9,286.0 226.5,286.0 229.2,279.8 231.9,286.0 234.6,286.0 237.2,286.0 239.9,286.0 242.6,286.0 245.3,286.0 247.9,286.0 250.6,286.0 253.3,286.0 256.0,286.0 258.6,279.8 261.3,279.8 264.0,286.0 266.7,279.8 269.3,286.0 272.0,286.0 274.7,286.0 277.4,286.0 280.0,286.0 282.7,286.0 285.4,286.0 288.1,286.0 290.7,286.0 293.4,286.0 296.1,286.0 298.8,286.0 301.4,286.0 304.1,286.0 306.8,286.0 309.5,279.8 312.1,286.0 314.8,279.8 317.5,286.0 320.2,286.0 322.8,286.0 325.5,286.0 328.2,286.0 330.9,286.0 333.5,286.0 336.2,286.0 338.9,286.0 341.6,286.0 344.2,286.0 346.9,286.0 349.6,286.0 352.3,286.0 354.9,279.8 357.6,286.0 360.3,286.0 363.0,286.0 365.6,286.0 368.3,286.0 371.0,286.0 373.7,286.0 376.3,286.0 379.0,286.0 381.7,286.0 384.4,286.0 387.0,286.0 389.7,286.0 392.4,286.0 395.1,286.0 397.7,286.0 400.4,286.0 403.1,286.0 405.7,286.0 408.4,286.0 411.1,286.0 413.8,286.0 416.4,286.0 419.1,286.0 421.8,286.0 424.5,286.0 427.1,286.0 429.8,279.8 432.5,279.8 435.2,286.0 437.8,286.0 440.5,286.0 443.2,286.0 445.9,286.0 448.5,273.7 451.2,286.0 453.9,286.0 456.6,286.0 459.2,286.0 461.9,286.0 464.6,286.0 467.3,286.0 469.9,286.0 472.6,286.0 475.3,286.0 478.0,286.0 480.6,286.0 483.3,286.0 486.0,286.0 488.7,286.0 491.3,286.0 494.0,286.0 496.7,286.0 499.4,286.0 502.0,279.8 504.7,286.0 507.4,286.0 510.1,279.8 512.7,279.8 515.4,286.0 518.1,286.0 520.8,286.0 523.4,286.0 526.1,286.0 528.8,286.0 531.5,286.0 534.1,286.0 536.8,286.0 539.5,286.0 542.2,286.0 544.8,286.0 547.5,273.7 550.2,286.0 552.9,286.0 555.5,286.0 558.2,286.0 560.9,286.0 563.6,286.0 566.2,286.0 568.9,286.0 571.6,286.0 574.3,286.0 576.9,286.0 579.6,286.0 582.3,286.0 584.9,286.0 587.6,286.0 590.3,286.0 593.0,286.0 595.6,286.0 598.3,286.0 601.0,286.0 603.7,286.0 606.3,286.0 609.0,286.0 611.7,286.0 614.4,286.0 617.0,286.0 619.7,286.0 622.4,286.0 625.1,286.0 627.7,279.8 630.4,286.0 633.1,286.0 635.8,286.0 638.4,286.0 641.1,279.8 643.8,286.0 646.5,286.0 649.1,286.0 651.8,286.0 654.5,286.0 657.2,286.0 659.8,286.0 662.5,286.0 665.2,286.0 667.9,286.0 670.5,286.0 673.2,286.0 675.9,279.8 678.6,286.0 681.2,286.0 683.9,286.0 686.6,286.0 689.3,286.0 691.9,286.0 694.6,286.0 697.3,286.0 700.0,286.0 702.6,286.0 705.3,279.8 708.0,286.0 710.7,279.8 713.3,286.0 716.0,286.0 718.7,286.0 721.4,279.8 724.0,286.0 726.7,286.0 729.4,286.0 732.1,286.0 734.7,286.0 737.4,286.0 740.1,286.0 742.8,286.0 745.4,286.0 748.1,286.0 750.8,286.0 753.5,286.0 756.1,286.0 758.8,286.0 761.5,286.0 764.1,286.0 766.8,286.0 769.5,279.8 772.2,286.0 774.8,286.0 777.5,286.0 780.2,286.0 782.9,286.0 785.5,286.0 788.2,286.0 790.9,286.0 793.6,286.0 796.2,286.0 798.9,286.0 801.6,286.0 804.3,286.0 806.9,286.0 809.6,286.0 812.3,286.0 815.0,286.0 817.6,286.0 820.3,286.0 823.0,286.0 825.7,286.0 828.3,286.0 831.0,286.0 833.7,286.0 836.4,286.0 839.0,286.0 841.7,286.0 844.4,286.0 847.1,286.0 849.7,286.0 852.4,286.0 855.1,286.0 857.8,286.0 860.4,286.0 863.1,286.0 865.8,286.0 868.5,286.0 871.1,286.0 873.8,286.0 876.5,279.8 879.2,286.0 881.8,286.0 884.5,286.0 887.2,286.0 889.9,286.0 892.5,286.0 895.2,286.0 897.9,286.0 900.6,286.0 903.2,286.0 905.9,286.0 908.6,279.8 911.3,286.0 913.9,286.0 916.6,286.0 919.3,286.0 922.0,286.0 924.6,286.0 927.3,286.0 930.0,286.0 932.7,286.0 935.3,279.8 938.0,286.0"/><polyline fill="none" stroke="#a855f7" stroke-width="2.5" stroke-linejoin="round" stroke-linecap="round" points="42.0,286.0 44.7,286.0 47.3,286.0 50.0,286.0 52.7,279.8 55.4,286.0 58.0,286.0 60.7,286.0 63.4,286.0 66.1,286.0 68.7,286.0 71.4,286.0 74.1,286.0 76.8,286.0 79.4,286.0 82.1,286.0 84.8,286.0 87.5,286.0 90.1,286.0 92.8,286.0 95.5,286.0 98.2,286.0 100.8,286.0 103.5,286.0 106.2,286.0 108.9,286.0 111.5,286.0 114.2,286.0 116.9,286.0 119.6,286.0 122.2,286.0 124.9,286.0 127.6,286.0 130.3,286.0 132.9,286.0 135.6,286.0 138.3,286.0 141.0,286.0 143.6,286.0 146.3,286.0 149.0,286.0 151.7,286.0 154.3,286.0 157.0,286.0 159.7,286.0 162.4,286.0 165.0,286.0 167.7,286.0 170.4,286.0 173.1,286.0 175.7,286.0 178.4,286.0 181.1,286.0 183.8,286.0 186.4,286.0 189.1,286.0 191.8,286.0 194.5,286.0 197.1,286.0 199.8,286.0 202.5,286.0 205.2,286.0 207.8,279.8 210.5,286.0 213.2,286.0 215.9,286.0 218.5,286.0 221.2,286.0 223.9,286.0 226.5,286.0 229.2,286.0 231.9,286.0 234.6,279.8 237.2,286.0 239.9,286.0 242.6,286.0 245.3,286.0 247.9,286.0 250.6,286.0 253.3,286.0 256.0,286.0 258.6,286.0 261.3,286.0 264.0,286.0 266.7,286.0 269.3,286.0 272.0,286.0 274.7,286.0 277.4,286.0 280.0,286.0 282.7,286.0 285.4,286.0 288.1,286.0 290.7,286.0 293.4,286.0 296.1,286.0 298.8,286.0 301.4,286.0 304.1,286.0 306.8,286.0 309.5,286.0 312.1,279.8 314.8,286.0 317.5,286.0 320.2,286.0 322.8,286.0 325.5,286.0 328.2,286.0 330.9,279.8 333.5,286.0 336.2,286.0 338.9,286.0 341.6,286.0 344.2,286.0 346.9,286.0 349.6,286.0 352.3,286.0 354.9,286.0 357.6,286.0 360.3,286.0 363.0,286.0 365.6,286.0 368.3,286.0 371.0,286.0 373.7,286.0 376.3,279.8 379.0,286.0 381.7,286.0 384.4,286.0 387.0,286.0 389.7,286.0 392.4,286.0 395.1,286.0 397.7,286.0 400.4,286.0 403.1,286.0 405.7,286.0 408.4,286.0 411.1,286.0 413.8,286.0 416.4,286.0 419.1,286.0 421.8,286.0 424.5,286.0 427.1,286.0 429.8,286.0 432.5,286.0 435.2,286.0 437.8,286.0 440.5,286.0 443.2,286.0 445.9,286.0 448.5,286.0 451.2,286.0 453.9,286.0 456.6,286.0 459.2,286.0 461.9,286.0 464.6,286.0 467.3,286.0 469.9,286.0 472.6,286.0 475.3,273.7 478.0,286.0 480.6,286.0 483.3,286.0 486.0,286.0 488.7,286.0 491.3,286.0 494.0,286.0 496.7,286.0 499.4,286.0 502.0,286.0 504.7,286.0 507.4,286.0 510.1,286.0 512.7,286.0 515.4,286.0 518.1,286.0 520.8,286.0 523.4,286.0 526.1,286.0 528.8,286.0 531.5,286.0 534.1,286.0 536.8,286.0 539.5,286.0 542.2,286.0 544.8,286.0 547.5,286.0 550.2,286.0 552.9,286.0 555.5,286.0 558.2,286.0 560.9,286.0 563.6,286.0 566.2,286.0 568.9,286.0 571.6,286.0 574.3,286.0 576.9,286.0 579.6,286.0 582.3,286.0 584.9,286.0 587.6,286.0 590.3,286.0 593.0,286.0 595.6,286.0 598.3,286.0 601.0,286.0 603.7,286.0 606.3,286.0 609.0,286.0 611.7,286.0 614.4,286.0 617.0,286.0 619.7,286.0 622.4,286.0 625.1,286.0 627.7,286.0 630.4,286.0 633.1,286.0 635.8,286.0 638.4,286.0 641.1,286.0 643.8,286.0 646.5,286.0 649.1,286.0 651.8,286.0 654.5,286.0 657.2,286.0 659.8,286.0 662.5,286.0 665.2,286.0 667.9,286.0 670.5,286.0 673.2,286.0 675.9,286.0 678.6,286.0 681.2,286.0 683.9,286.0 686.6,286.0 689.3,286.0 691.9,286.0 694.6,286.0 697.3,286.0 700.0,286.0 702.6,286.0 705.3,286.0 708.0,286.0 710.7,286.0 713.3,286.0 716.0,286.0 718.7,286.0 721.4,286.0 724.0,286.0 726.7,286.0 729.4,286.0 732.1,286.0 734.7,286.0 737.4,286.0 740.1,286.0 742.8,286.0 745.4,286.0 748.1,286.0 750.8,286.0 753.5,286.0 756.1,286.0 758.8,286.0 761.5,286.0 764.1,286.0 766.8,286.0 769.5,286.0 772.2,286.0 774.8,286.0 777.5,286.0 780.2,286.0 782.9,286.0 785.5,286.0 788.2,286.0 790.9,286.0 793.6,286.0 796.2,286.0 798.9,286.0 801.6,286.0 804.3,286.0 806.9,286.0 809.6,286.0 812.3,286.0 815.0,286.0 817.6,286.0 820.3,286.0 823.0,286.0 825.7,286.0 828.3,286.0 831.0,286.0 833.7,286.0 836.4,279.8 839.0,286.0 841.7,286.0 844.4,286.0 847.1,286.0 849.7,286.0 852.4,286.0 855.1,286.0 857.8,286.0 860.4,286.0 863.1,286.0 865.8,286.0 868.5,286.0 871.1,286.0 873.8,286.0 876.5,286.0 879.2,286.0 881.8,286.0 884.5,286.0 887.2,286.0 889.9,286.0 892.5,286.0 895.2,286.0 897.9,286.0 900.6,286.0 903.2,286.0 905.9,286.0 908.6,286.0 911.3,286.0 913.9,286.0 916.6,286.0 919.3,286.0 922.0,286.0 924.6,286.0 927.3,286.0 930.0,286.0 932.7,279.8 935.3,286.0 938.0,286.0"/><text x="42" y="308" font-size="11" fill="#9fb0d4">29/06 05:12</text><text x="938" y="308" text-anchor="end" font-size="11" fill="#9fb0d4">14/07 06:33</text></svg>