<svg xmlns="http://www.w3.org/2000/svg" viewBox="0 0 960 320" width="960" height="320" font-family="Segoe UI, system-ui, -apple-system, Roboto, Helvetica, Arial, sans-serif" role="img" aria-label="Availability history per region"><rect x="0.5" y="0.5" width="959" height="319" rx="14" fill="#ffffff" stroke="#dce3f1"/><text x="42" y="26" font-size="14" font-weight="600" fill="#14203a">History · 158 points</text><circle cx="47" cy="40" r="5" fill="#22c55e"/><text x="57" y="44" font-size="12" fill="#5a688a">Available</text><circle cx="139.8" cy="40" r="5" fill="#f59e0b"/><text x="149.8" y="44" font-size="12" fill="#5a688a">Saturated</text><circle cx="232.60000000000002" cy="40" r="5" fill="#ef4444"/><text x="242.60000000000002" y="44" font-size="12" fill="#5a688a">Error</text><circle cx="296.6" cy="40" r="5" fill="#a855f7"/><text x="306.6" y="44" font-size="12" fill="#5a688a">Timeout</text><line x1="42" y1="286.0" x2="938" y2="286.0" stroke="#eef2f7" stroke-width="1"/><text x="35" y="289.0" text-anchor="end" font-size="11" fill="#5a688a">0</text><line x1="42" y1="227.5" x2="938" y2="227.5" stroke="#eef2f7" stroke-width="1"/><text x="35" y="230.5" text-anchor="end" font-size="11" fill="#5a688a">10</text><line x1="42" y1="169.0" x2="938" y2="169.0" stroke="#eef2f7" stroke-width="1"/><text x="35" y="172.0" text-anchor="end" font-size="11" fill="#5a688a">19</text><line x1="42" y1="110.5" x2="938" y2="110.5" stroke="#eef2f7" stroke-width="1"/><text x="35" y="113.5" text-anchor="end" font-size="11" fill="#5a688a">28</text><line x1="42" y1="52.0" x2="938" y2="52.0" stroke="#eef2f7" stroke-width="1"/><text x="35" y="55.0" text-anchor="end" font-size="11" fill="#5a688a">38</text><polyline fill="none" stroke="#22c55e" stroke-width="2.5" stroke-linejoin="round" stroke-linecap="round" points="42.0,64.3 47.7,224.4 53.4,82.8 59.1,88.9 64.8,82.8 70.5,76.6 76.2,76.6 81.9,76.6 87.7,76.6 93.4,76.6 99.1,76.6 104.8,76.6 110.5,76.6 116.2,76.6 121.9,76.6 127.6,70.5 133.3,70.5 139.0,82.8 144.7,82.8 150.4,82.8 156.1,88.9 161.8,88.9 167.6,88.9 173.3,88.9 179.0,88.9 184.7,88.9 190.4,88.9 196.1,88.9 201.8,88.9 207.5,82.8 213.2,82.8 218.9,82.8 224.6,82.8 230.3,76.6 236.0,76.6 241.7,76.6 247.5,76.6 253.2,76.6 258.9,82.8 264.6,82.8 270.3,82.8 276.0,82.8 281.7,76.6 287.4,76.6 293.1,76.6 298.8,76.6 304.5,76.6 310.2,76.6 315.9,76.6 321.6,82.8 327.4,82.8 333.1,82.8 338.8,82.8 344.5,76.6 350.2,76.6 355.9,76.6 361.6,76.6 367.3,76.6 373.0,76.6 378.7,76.6 384.4,76.6 390.1,82.8 395.8,76.6 401.5,76.6 407.2,76.6 413.0,76.6 418.7,76.6 424.4,82.8 430.1,76.6 435.8,76.6 441.5,76.6 447.2,76.6 452.9,76.6 458.6,76.6 464.3,76.6 470.0,76.6 475.7,76.6 481.4,70.5 487.1,70.5 492.9,70.5 498.6,70.5 504.3,76.6 510.0,70.5 515.7,76.6 521.4,76.6 527.1,76.6 532.8,76.6 538.5,76.6 544.2,76.6 549.9,82.8 555.6,88.9 561.3,88.9 567.0,88.9 572.8,88.9 578.5,88.9 584.2,88.9 589.9,88.9 595.6,95.1 601.3,88.9 607.0,88.9 612.7,88.9 618.4,88.9 624.1,88.9 629.8,88.9 635.5,82.8 641.2,82.8 646.9,82.8 652.6,82.8 658.4,82.8 664.1,82.8 669.8,82.8 675.5,82.8 681.2,88.9 686.9,88.9 692.6,88.9 698.3,88.9 704.0,88.9 709.7,88.9 715.4,88.9 721.1,88.9 726.8,95.1 732.5,88.9 738.3,88.9 744.0,88.9 749.7,101.3 755.4,88.9 761.1,88.9 766.8,88.9 772.5,88.9 778.2,82.8 783.9,82.8 789.6,82.8 795.3,82.8 801.0,88.9 806.7,82.8 812.4,88.9 818.2,88.9 823.9,88.9 829.6,88.9 835.3,95.1 841.0,88.9 846.7,88.9 852.4,88.9 858.1,88.9 863.8,88.9 869.5,88.9 875.2,88.9 880.9,88.9 886.6,95.1 892.3,82.8 898.1,82.8 903.8,82.8 909.5,82.8 915.2,82.8 920.9,82.8 926.6,82.8 932.3,82.8 938.0,82.8"/><polyline fill="none" stroke="#f59e0b" stroke-width="2.5" stroke-linejoin="round" stroke-linecap="round" points="42.0,273.7 47.7,267.5 53.4,255.2 59.1,249.1 64.8,255.2 70.5,261.4 76.2,261.4 81.9,261.4 87.7,261.4 93.4,261.4 99.1,261.4 104.8,261.4 110.5,261.4 116.2,261.4 121.9,261.4 127.6,267.5 133.3,267.5 139.0,261.4 144.7,255.2 150.4,255.2 156.1,249.1 161.8,249.1 167.6,249.1 173.3,249.1 179.0,249.1 184.7,249.1 190.4,249.1 196.1,249.1 201.8,249.1 207.5,255.2 213.2,255.2 218.9,255.2 224.6,255.2 230.3,261.4 236.0,261.4 241.7,261.4 247.5,261.4 253.2,261.4 258.9,255.2 264.6,255.2 270.3,255.2 276.0,255.2 281.7,261.4 287.4,261.4 293.1,261.4 298.8,261.4 304.5,261.4 310.2,261.4 315.9,261.4 321.6,255.2 327.4,255.2 333.1,255.2 338.8,261.4 344.5,261.4 350.2,261.4 355.9,261.4 361.6,261.4 367.3,261.4 373.0,261.4 378.7,261.4 384.4,261.4 390.1,255.2 395.8,261.4 401.5,261.4 407.2,261.4 413.0,261.4 418.7,261.4 424.4,261.4 430.1,261.4 435.8,261.4 441.5,261.4 447.2,261.4 452.9,261.4 458.6,261.4 464.3,261.4 470.0,261.4 475.7,261.4 481.4,267.5 487.1,267.5 492.9,267.5 498.6,267.5 504.3,267.5 510.0,267.5 515.7,261.4 521.4,261.4 527.1,261.4 532.8,261.4 538.5,261.4 544.2,261.4 549.9,255.2 555.6,249.1 561.3,249.1 567.0,255.2 572.8,249.1 578.5,249.1 584.2,249.1 589.9,249.1 595.6,249.1 601.3,249.1 607.0,255.2 612.7,249.1 618.4,249.1 624.1,249.1 629.8,249.1 635.5,255.2 641.2,255.2 646.9,255.2 652.6,255.2 658.4,255.2 664.1,255.2 669.8,255.2 675.5,255.2 681.2,249.1 686.9,249.1 692.6,249.1 698.3,249.1 704.0,249.1 709.7,249.1 715.4,249.1 721.1,255.2 726.8,249.1 732.5,249.1 738.3,249.1 744.0,249.1 749.7,249.1 755.4,249.1 761.1,249.1 766.8,255.2 772.5,255.2 778.2,255.2 783.9,255.2 789.6,255.2 795.3,255.2 801.0,255.2 806.7,255.2 812.4,249.1 818.2,249.1 823.9,249.1 829.6,249.1 835.3,249.1 841.0,249.1 846.7,249.1 852.4,249.1 858.1,249.1 863.8,249.1 869.5,249.1 875.2,249.1 880.9,249.1 886.6,249.1 892.3,255.2 898.1,255.2 903.8,255.2 909.5,255.2 915.2,255.2 920.9,261.4 926.6,261.4 932.3,255.2 938.0,255.2"/><polyline fill="none" stroke="#ef4444" stroke-width="2.5" stroke-linejoin="round" stroke-linecap="round" points="42.0,286.0 47.7,132.1 53.4,286.0 59.1,286.0 64.8,286.0 70.5,286.0 76.2,286.0 81.9,286.0 87.7,286.0 93.4,286.0 99.1,286.0 104.8,286.0 110.5,286.0 116.2,286.0 121.9,286.0 127.6,286.0 133.3,286.0 139.0,279.8 144.7,286.0 150.4,286.0 156.1,286.0 161.8,286.0 167.6,286.0 173.3,286.0 179.0,286.0 184.7,286.0 190.4,286.0 196.1,286.0 201.8,286.0 207.5,286.0 213.2,286.0 218.9,286.0 224.6,286.0 230.3,286.0 236.0,286.0 241.7,286.0 247.5,286.0 253.2,286.0 258.9,286.0 264.6,286.0 270.3,286.0 276.0,286.0 281.7,286.0 287.4,286.0 293.1,286.0 298.8,286.0 304.5,286.0 310.2,286.0 315.9,286.0 321.6,286.0 327.4,286.0 333.1,286.0 338.8,286.0 344.5,286.0 350.2,286.0 355.9,286.0 361.6,286.0 367.3,286.0 373.0,286.0 378.7,286.0 384.4,286.0 390.1,286.0 395.8,286.0 401.5,286.0 407.2,286.0 413.0,286.0 418.7,286.0 424.4,279.8 430.1,286.0 435.8,286.0 441.5,286.0 447.2,286.0 452.9,286.0 458.6,286.0 464.3,286.0 470.0,286.0 475.7,286.0 481.4,286.0 487.1,286.0 492.9,286.0 498.6,286.0 504.3,279.8 510.0,286.0 515.7,286.0 521.4,286.0 527.1,286.0 532.8,286.0 538.5,286.0 544.2,286.0 549.9,286.0 555.6,286.0 561.3,286.0 567.0,279.8 572.8,286.0 578.5,286.0 584.2,286.0 589.9,286.0 595.6,279.8 601.3,286.0 607.0,286.0 612.7,286.0 618.4,286.0 624.1,286.0 629.8,286.0 635.5,286.0 641.2,286.0 646.9,286.0 652.6,286.0 658.4,286.0 664.1,286.0 669.8,286.0 675.5,286.0 681.2,286.0 686.9,286.0 692.6,286.0 698.3,286.0 704.0,286.0 709.7,286.0 715.4,286.0 721.1,286.0 726.8,279.8 732.5,286.0 738.3,286.0 744.0,286.0 749.7,273.7 755.4,286.0 761.1,286.0 766.8,279.8 772.5,279.8 778.2,286.0 783.9,286.0 789.6,286.0 795.3,286.0 801.0,279.8 806.7,286.0 812.4,286.0 818.2,286.0 823.9,286.0 829.6,286.0 835.3,286.0 841.0,286.0 846.7,286.0 852.4,286.0 858.1,286.0 863.8,286.0 869.5,286.0 875.2,286.0 880.9,286.0 886.6,286.0 892.3,286.0 898.1,286.0 903.8,286.0 909.5,286.0 915.2,286.0 920.9,279.8 926.6,286.0 932.3,286.0 938.0,286.0"/><polyline fill="none" stroke="#a855f7" stroke-width="2.5" stroke-linejoin="round" stroke-linecap="round" points="42.0,286.0 47.7,286.0 53.4,286.0 59.1,286.0 64.8,286.0 70.5,286.0 76.2,286.0 81.9,286.0 87.7,286.0 93.4,286.0 99.1,286.0 104.8,286.0 110.5,286.0 116.2,286.0 121.9,286.0 127.6,286.0 133.3,286.0 139.0,286.0 144.7,286.0 150.4,286.0 156.1,286.0 161.8,286.0 167.6,286.0 173.3,286.0 179.0,286.0 184.7,286.0 190.4,286.0 196.1,286.0 201.8,286.0 207.5,286.0 213.2,286.0 218.9,286.0 224.6,286.0 230.3,286.0 236.0,286.0 241.7,286.0 247.5,286.0 253.2,286.0 258.9,286.0 264.6,286.0 270.3,286.0 276.0,286.0 281.7,286.0 287.4,286.0 293.1,286.0 298.8,286.0 304.5,286.0 310.2,286.0 315.9,286.0 321.6,286.0 327.4,286.0 333.1,286.0 338.8,279.8 344.5,286.0 350.2,286.0 355.9,286.0 361.6,286.0 367.3,286.0 373.0,286.0 378.7,286.0 384.4,286.0 390.1,286.0 395.8,286.0 401.5,286.0 407.2,286.0 413.0,286.0 418.7,286.0 424.4,286.0 430.1,286.0 435.8,286.0 441.5,286.0 447.2,286.0 452.9,286.0 458.6,286.0 464.3,286.0 470.0,286.0 475.7,286.0 481.4,286.0 487.1,286.0 492.9,286.0 498.6,286.0 504.3,286.0 510.0,286.0 515.7,286.0 521.4,286.0 527.1,286.0 532.8,286.0 538.5,286.0 544.2,286.0 549.9,286.0 555.6,286.0 561.3,286.0 567.0,286.0 572.8,286.0 578.5,286.0 584.2,286.0 589.9,286.0 595.6,286.0 601.3,286.0 607.0,279.8 612.7,286.0 618.4,286.0 624.1,286.0 629.8,286.0 635.5,286.0 641.2,286.0 646.9,286.0 652.6,286.0 658.4,286.0 664.1,286.0 669.8,286.0 675.5,286.0 681.2,286.0 686.9,286.0 692.6,286.0 698.3,286.0 704.0,286.0 709.7,286.0 715.4,286.0 721.1,279.8 726.8,286.0 732.5,286.0 738.3,286.0 744.0,286.0 749.7,286.0 755.4,286.0 761.1,286.0 766.8,286.0 772.5,286.0 778.2,286.0 783.9,286.0 789.6,286.0 795.3,286.0 801.0,286.0 806.7,286.0 812.4,286.0 818.2,286.0 823.9,286.0 829.6,286.0 835.3,279.8 841.0,286.0 846.7,286.0 852.4,286.0 858.1,286.0 863.8,286.0 869.5,286.0 875.2,286.0 880.9,286.0 886.6,279.8 892.3,286.0 898.1,286.0 903.8,286.0 909.5,286.0 915.2,286.0 920.9,286.0 926.6,279.8 932.3,286.0 938.0,286.0"/><text x="42" y="308" font-size="11" fill="#5a688a">19/06 15:39</text><text x="938" y="308" text-anchor="end" font-size="11" fill="#5a688a">23/07 04:32</text></svg>