<svg xmlns="http://www.w3.org/2000/svg" viewBox="0 0 960 320" width="960" height="320" font-family="Segoe UI, system-ui, -apple-system, Roboto, Helvetica, Arial, sans-serif" role="img" aria-label="Availability history per region"><rect x="0.5" y="0.5" width="959" height="319" rx="14" fill="#ffffff" stroke="#dce3f1"/><text x="42" y="26" font-size="14" font-weight="600" fill="#14203a">History · 66 points</text><circle cx="47" cy="40" r="5" fill="#22c55e"/><text x="57" y="44" font-size="12" fill="#5a688a">Available</text><circle cx="139.8" cy="40" r="5" fill="#f59e0b"/><text x="149.8" y="44" font-size="12" fill="#5a688a">Saturated</text><circle cx="232.60000000000002" cy="40" r="5" fill="#ef4444"/><text x="242.60000000000002" y="44" font-size="12" fill="#5a688a">Error</text><circle cx="296.6" cy="40" r="5" fill="#a855f7"/><text x="306.6" y="44" font-size="12" fill="#5a688a">Timeout</text><line x1="42" y1="286.0" x2="938" y2="286.0" stroke="#eef2f7" stroke-width="1"/><text x="35" y="289.0" text-anchor="end" font-size="11" fill="#5a688a">0</text><line x1="42" y1="227.5" x2="938" y2="227.5" stroke="#eef2f7" stroke-width="1"/><text x="35" y="230.5" text-anchor="end" font-size="11" fill="#5a688a">10</text><line x1="42" y1="169.0" x2="938" y2="169.0" stroke="#eef2f7" stroke-width="1"/><text x="35" y="172.0" text-anchor="end" font-size="11" fill="#5a688a">19</text><line x1="42" y1="110.5" x2="938" y2="110.5" stroke="#eef2f7" stroke-width="1"/><text x="35" y="113.5" text-anchor="end" font-size="11" fill="#5a688a">28</text><line x1="42" y1="52.0" x2="938" y2="52.0" stroke="#eef2f7" stroke-width="1"/><text x="35" y="55.0" text-anchor="end" font-size="11" fill="#5a688a">38</text><polyline fill="none" stroke="#22c55e" stroke-width="2.5" stroke-linejoin="round" stroke-linecap="round" points="42.0,64.3 55.8,224.4 69.6,82.8 83.4,88.9 97.1,82.8 110.9,76.6 124.7,76.6 138.5,76.6 152.3,76.6 166.1,76.6 179.8,76.6 193.6,76.6 207.4,76.6 221.2,76.6 235.0,76.6 248.8,70.5 262.6,70.5 276.3,82.8 290.1,82.8 303.9,82.8 317.7,88.9 331.5,88.9 345.3,88.9 359.0,88.9 372.8,88.9 386.6,88.9 400.4,88.9 414.2,88.9 428.0,88.9 441.8,82.8 455.5,82.8 469.3,82.8 483.1,82.8 496.9,76.6 510.7,76.6 524.5,76.6 538.2,76.6 552.0,76.6 565.8,82.8 579.6,82.8 593.4,82.8 607.2,82.8 621.0,76.6 634.7,76.6 648.5,76.6 662.3,76.6 676.1,76.6 689.9,76.6 703.7,76.6 717.4,82.8 731.2,82.8 745.0,82.8 758.8,82.8 772.6,76.6 786.4,76.6 800.2,76.6 813.9,76.6 827.7,76.6 841.5,76.6 855.3,76.6 869.1,76.6 882.9,82.8 896.6,76.6 910.4,76.6 924.2,76.6 938.0,76.6"/><polyline fill="none" stroke="#f59e0b" stroke-width="2.5" stroke-linejoin="round" stroke-linecap="round" points="42.0,273.7 55.8,267.5 69.6,255.2 83.4,249.1 97.1,255.2 110.9,261.4 124.7,261.4 138.5,261.4 152.3,261.4 166.1,261.4 179.8,261.4 193.6,261.4 207.4,261.4 221.2,261.4 235.0,261.4 248.8,267.5 262.6,267.5 276.3,261.4 290.1,255.2 303.9,255.2 317.7,249.1 331.5,249.1 345.3,249.1 359.0,249.1 372.8,249.1 386.6,249.1 400.4,249.1 414.2,249.1 428.0,249.1 441.8,255.2 455.5,255.2 469.3,255.2 483.1,255.2 496.9,261.4 510.7,261.4 524.5,261.4 538.2,261.4 552.0,261.4 565.8,255.2 579.6,255.2 593.4,255.2 607.2,255.2 621.0,261.4 634.7,261.4 648.5,261.4 662.3,261.4 676.1,261.4 689.9,261.4 703.7,261.4 717.4,255.2 731.2,255.2 745.0,255.2 758.8,261.4 772.6,261.4 786.4,261.4 800.2,261.4 813.9,261.4 827.7,261.4 841.5,261.4 855.3,261.4 869.1,261.4 882.9,255.2 896.6,261.4 910.4,261.4 924.2,261.4 938.0,261.4"/><polyline fill="none" stroke="#ef4444" stroke-width="2.5" stroke-linejoin="round" stroke-linecap="round" points="42.0,286.0 55.8,132.1 69.6,286.0 83.4,286.0 97.1,286.0 110.9,286.0 124.7,286.0 138.5,286.0 152.3,286.0 166.1,286.0 179.8,286.0 193.6,286.0 207.4,286.0 221.2,286.0 235.0,286.0 248.8,286.0 262.6,286.0 276.3,279.8 290.1,286.0 303.9,286.0 317.7,286.0 331.5,286.0 345.3,286.0 359.0,286.0 372.8,286.0 386.6,286.0 400.4,286.0 414.2,286.0 428.0,286.0 441.8,286.0 455.5,286.0 469.3,286.0 483.1,286.0 496.9,286.0 510.7,286.0 524.5,286.0 538.2,286.0 552.0,286.0 565.8,286.0 579.6,286.0 593.4,286.0 607.2,286.0 621.0,286.0 634.7,286.0 648.5,286.0 662.3,286.0 676.1,286.0 689.9,286.0 703.7,286.0 717.4,286.0 731.2,286.0 745.0,286.0 758.8,286.0 772.6,286.0 786.4,286.0 800.2,286.0 813.9,286.0 827.7,286.0 841.5,286.0 855.3,286.0 869.1,286.0 882.9,286.0 896.6,286.0 910.4,286.0 924.2,286.0 938.0,286.0"/><polyline fill="none" stroke="#a855f7" stroke-width="2.5" stroke-linejoin="round" stroke-linecap="round" points="42.0,286.0 55.8,286.0 69.6,286.0 83.4,286.0 97.1,286.0 110.9,286.0 124.7,286.0 138.5,286.0 152.3,286.0 166.1,286.0 179.8,286.0 193.6,286.0 207.4,286.0 221.2,286.0 235.0,286.0 248.8,286.0 262.6,286.0 276.3,286.0 290.1,286.0 303.9,286.0 317.7,286.0 331.5,286.0 345.3,286.0 359.0,286.0 372.8,286.0 386.6,286.0 400.4,286.0 414.2,286.0 428.0,286.0 441.8,286.0 455.5,286.0 469.3,286.0 483.1,286.0 496.9,286.0 510.7,286.0 524.5,286.0 538.2,286.0 552.0,286.0 565.8,286.0 579.6,286.0 593.4,286.0 607.2,286.0 621.0,286.0 634.7,286.0 648.5,286.0 662.3,286.0 676.1,286.0 689.9,286.0 703.7,286.0 717.4,286.0 731.2,286.0 745.0,286.0 758.8,279.8 772.6,286.0 786.4,286.0 800.2,286.0 813.9,286.0 827.7,286.0 841.5,286.0 855.3,286.0 869.1,286.0 882.9,286.0 896.6,286.0 910.4,286.0 924.2,286.0 938.0,286.0"/><text x="42" y="308" font-size="11" fill="#5a688a">19/06 15:39</text><text x="938" y="308" text-anchor="end" font-size="11" fill="#5a688a">19/07 07:29</text></svg>