<svg xmlns="http://www.w3.org/2000/svg" viewBox="0 0 960 320" width="960" height="320" font-family="Segoe UI, system-ui, -apple-system, Roboto, Helvetica, Arial, sans-serif" role="img" aria-label="Availability history per region"><rect x="0.5" y="0.5" width="959" height="319" rx="14" fill="#0d1117" stroke="#2c3a5e"/><text x="42" y="26" font-size="14" font-weight="600" fill="#e6ecff">History · 143 points</text><circle cx="47" cy="40" r="5" fill="#22c55e"/><text x="57" y="44" font-size="12" fill="#9fb0d4">Available</text><circle cx="139.8" cy="40" r="5" fill="#f59e0b"/><text x="149.8" y="44" font-size="12" fill="#9fb0d4">Saturated</text><circle cx="232.60000000000002" cy="40" r="5" fill="#ef4444"/><text x="242.60000000000002" y="44" font-size="12" fill="#9fb0d4">Error</text><circle cx="296.6" cy="40" r="5" fill="#a855f7"/><text x="306.6" y="44" font-size="12" fill="#9fb0d4">Timeout</text><line x1="42" y1="286.0" x2="938" y2="286.0" stroke="#21304f" stroke-width="1"/><text x="35" y="289.0" text-anchor="end" font-size="11" fill="#9fb0d4">0</text><line x1="42" y1="227.5" x2="938" y2="227.5" stroke="#21304f" stroke-width="1"/><text x="35" y="230.5" text-anchor="end" font-size="11" fill="#9fb0d4">10</text><line x1="42" y1="169.0" x2="938" y2="169.0" stroke="#21304f" stroke-width="1"/><text x="35" y="172.0" text-anchor="end" font-size="11" fill="#9fb0d4">20</text><line x1="42" y1="110.5" x2="938" y2="110.5" stroke="#21304f" stroke-width="1"/><text x="35" y="113.5" text-anchor="end" font-size="11" fill="#9fb0d4">29</text><line x1="42" y1="52.0" x2="938" y2="52.0" stroke="#21304f" stroke-width="1"/><text x="35" y="55.0" text-anchor="end" font-size="11" fill="#9fb0d4">39</text><polyline fill="none" stroke="#22c55e" stroke-width="2.5" stroke-linejoin="round" stroke-linecap="round" points="42.0,70.0 48.3,70.0 54.6,88.0 60.9,88.0 67.2,76.0 73.5,76.0 79.9,76.0 86.2,70.0 92.5,76.0 98.8,70.0 105.1,64.0 111.4,58.0 117.7,58.0 124.0,58.0 130.3,58.0 136.6,58.0 143.0,58.0 149.3,58.0 155.6,58.0 161.9,58.0 168.2,58.0 174.5,58.0 180.8,58.0 187.1,58.0 193.4,58.0 199.7,58.0 206.1,58.0 212.4,58.0 218.7,58.0 225.0,58.0 231.3,58.0 237.6,70.0 243.9,76.0 250.2,94.0 256.5,64.0 262.8,64.0 269.2,58.0 275.5,58.0 281.8,58.0 288.1,70.0 294.4,76.0 300.7,76.0 307.0,82.0 313.3,82.0 319.6,82.0 325.9,82.0 332.3,76.0 338.6,64.0 344.9,70.0 351.2,70.0 357.5,82.0 363.8,76.0 370.1,76.0 376.4,82.0 382.7,76.0 389.0,76.0 395.4,76.0 401.7,64.0 408.0,64.0 414.3,76.0 420.6,76.0 426.9,76.0 433.2,88.0 439.5,70.0 445.8,64.0 452.1,58.0 458.5,58.0 464.8,70.0 471.1,70.0 477.4,70.0 483.7,76.0 490.0,70.0 496.3,70.0 502.6,70.0 508.9,70.0 515.2,76.0 521.5,82.0 527.9,76.0 534.2,70.0 540.5,70.0 546.8,70.0 553.1,70.0 559.4,76.0 565.7,70.0 572.0,70.0 578.3,70.0 584.6,70.0 591.0,70.0 597.3,70.0 603.6,70.0 609.9,70.0 616.2,70.0 622.5,70.0 628.8,70.0 635.1,70.0 641.4,70.0 647.7,70.0 654.1,70.0 660.4,70.0 666.7,70.0 673.0,70.0 679.3,70.0 685.6,70.0 691.9,70.0 698.2,70.0 704.5,70.0 710.8,70.0 717.2,70.0 723.5,70.0 729.8,70.0 736.1,70.0 742.4,70.0 748.7,70.0 755.0,70.0 761.3,70.0 767.6,70.0 773.9,70.0 780.3,70.0 786.6,70.0 792.9,70.0 799.2,70.0 805.5,70.0 811.8,70.0 818.1,70.0 824.4,70.0 830.7,70.0 837.0,70.0 843.4,70.0 849.7,70.0 856.0,70.0 862.3,70.0 868.6,70.0 874.9,70.0 881.2,70.0 887.5,70.0 893.8,70.0 900.1,70.0 906.5,70.0 912.8,70.0 919.1,70.0 925.4,70.0 931.7,70.0 938.0,70.0"/><polyline fill="none" stroke="#f59e0b" stroke-width="2.5" stroke-linejoin="round" stroke-linecap="round" points="42.0,274.0 48.3,274.0 54.6,274.0 60.9,280.0 67.2,268.0 73.5,268.0 79.9,268.0 86.2,274.0 92.5,274.0 98.8,274.0 105.1,280.0 111.4,286.0 117.7,286.0 124.0,286.0 130.3,286.0 136.6,286.0 143.0,286.0 149.3,286.0 155.6,286.0 161.9,286.0 168.2,286.0 174.5,286.0 180.8,286.0 187.1,286.0 193.4,286.0 199.7,286.0 206.1,286.0 212.4,286.0 218.7,286.0 225.0,286.0 231.3,286.0 237.6,274.0 243.9,280.0 250.2,280.0 256.5,280.0 262.8,280.0 269.2,286.0 275.5,286.0 281.8,286.0 288.1,274.0 294.4,268.0 300.7,268.0 307.0,262.0 313.3,262.0 319.6,262.0 325.9,262.0 332.3,268.0 338.6,280.0 344.9,280.0 351.2,274.0 357.5,262.0 363.8,268.0 370.1,268.0 376.4,262.0 382.7,268.0 389.0,268.0 395.4,268.0 401.7,280.0 408.0,280.0 414.3,268.0 420.6,268.0 426.9,268.0 433.2,262.0 439.5,274.0 445.8,280.0 452.1,286.0 458.5,286.0 464.8,274.0 471.1,274.0 477.4,274.0 483.7,274.0 490.0,274.0 496.3,274.0 502.6,274.0 508.9,274.0 515.2,280.0 521.5,274.0 527.9,280.0 534.2,286.0 540.5,286.0 546.8,286.0 553.1,286.0 559.4,280.0 565.7,286.0 572.0,286.0 578.3,286.0 584.6,286.0 591.0,286.0 597.3,286.0 603.6,286.0 609.9,286.0 616.2,286.0 622.5,286.0 628.8,286.0 635.1,286.0 641.4,286.0 647.7,286.0 654.1,286.0 660.4,286.0 666.7,286.0 673.0,286.0 679.3,286.0 685.6,286.0 691.9,286.0 698.2,286.0 704.5,286.0 710.8,286.0 717.2,286.0 723.5,286.0 729.8,286.0 736.1,286.0 742.4,286.0 748.7,286.0 755.0,286.0 761.3,286.0 767.6,286.0 773.9,286.0 780.3,286.0 786.6,286.0 792.9,286.0 799.2,286.0 805.5,286.0 811.8,286.0 818.1,286.0 824.4,286.0 830.7,286.0 837.0,286.0 843.4,286.0 849.7,286.0 856.0,286.0 862.3,286.0 868.6,286.0 874.9,286.0 881.2,286.0 887.5,286.0 893.8,286.0 900.1,286.0 906.5,286.0 912.8,286.0 919.1,286.0 925.4,286.0 931.7,286.0 938.0,286.0"/><polyline fill="none" stroke="#ef4444" stroke-width="2.5" stroke-linejoin="round" stroke-linecap="round" points="42.0,280.0 48.3,280.0 54.6,268.0 60.9,262.0 67.2,286.0 73.5,286.0 79.9,286.0 86.2,286.0 92.5,280.0 98.8,286.0 105.1,286.0 111.4,286.0 117.7,286.0 124.0,286.0 130.3,286.0 136.6,286.0 143.0,286.0 149.3,286.0 155.6,286.0 161.9,286.0 168.2,286.0 174.5,286.0 180.8,286.0 187.1,286.0 193.4,286.0 199.7,286.0 206.1,286.0 212.4,286.0 218.7,286.0 225.0,286.0 231.3,286.0 237.6,286.0 243.9,274.0 250.2,256.0 256.5,286.0 262.8,286.0 269.2,286.0 275.5,286.0 281.8,286.0 288.1,286.0 294.4,286.0 300.7,286.0 307.0,286.0 313.3,286.0 319.6,286.0 325.9,286.0 332.3,286.0 338.6,286.0 344.9,280.0 351.2,286.0 357.5,286.0 363.8,286.0 370.1,286.0 376.4,286.0 382.7,286.0 389.0,286.0 395.4,286.0 401.7,286.0 408.0,286.0 414.3,286.0 420.6,286.0 426.9,286.0 433.2,280.0 439.5,286.0 445.8,286.0 452.1,286.0 458.5,286.0 464.8,286.0 471.1,286.0 477.4,286.0 483.7,286.0 490.0,286.0 496.3,286.0 502.6,286.0 508.9,286.0 515.2,274.0 521.5,274.0 527.9,274.0 534.2,274.0 540.5,274.0 546.8,274.0 553.1,274.0 559.4,274.0 565.7,274.0 572.0,274.0 578.3,274.0 584.6,274.0 591.0,274.0 597.3,274.0 603.6,274.0 609.9,274.0 616.2,274.0 622.5,274.0 628.8,274.0 635.1,274.0 641.4,274.0 647.7,274.0 654.1,274.0 660.4,274.0 666.7,274.0 673.0,274.0 679.3,274.0 685.6,274.0 691.9,274.0 698.2,274.0 704.5,274.0 710.8,274.0 717.2,274.0 723.5,274.0 729.8,274.0 736.1,274.0 742.4,274.0 748.7,274.0 755.0,274.0 761.3,274.0 767.6,274.0 773.9,274.0 780.3,274.0 786.6,274.0 792.9,274.0 799.2,274.0 805.5,274.0 811.8,274.0 818.1,274.0 824.4,274.0 830.7,274.0 837.0,274.0 843.4,274.0 849.7,274.0 856.0,274.0 862.3,274.0 868.6,274.0 874.9,274.0 881.2,274.0 887.5,274.0 893.8,274.0 900.1,274.0 906.5,274.0 912.8,274.0 919.1,274.0 925.4,274.0 931.7,274.0 938.0,274.0"/><polyline fill="none" stroke="#a855f7" stroke-width="2.5" stroke-linejoin="round" stroke-linecap="round" points="42.0,286.0 48.3,286.0 54.6,286.0 60.9,286.0 67.2,286.0 73.5,286.0 79.9,286.0 86.2,286.0 92.5,286.0 98.8,286.0 105.1,286.0 111.4,286.0 117.7,286.0 124.0,286.0 130.3,286.0 136.6,286.0 143.0,286.0 149.3,286.0 155.6,286.0 161.9,286.0 168.2,286.0 174.5,286.0 180.8,286.0 187.1,286.0 193.4,286.0 199.7,286.0 206.1,286.0 212.4,286.0 218.7,286.0 225.0,286.0 231.3,286.0 237.6,286.0 243.9,286.0 250.2,286.0 256.5,286.0 262.8,286.0 269.2,286.0 275.5,286.0 281.8,286.0 288.1,286.0 294.4,286.0 300.7,286.0 307.0,286.0 313.3,286.0 319.6,286.0 325.9,286.0 332.3,286.0 338.6,286.0 344.9,286.0 351.2,286.0 357.5,286.0 363.8,286.0 370.1,286.0 376.4,286.0 382.7,286.0 389.0,286.0 395.4,286.0 401.7,286.0 408.0,286.0 414.3,286.0 420.6,286.0 426.9,286.0 433.2,286.0 439.5,286.0 445.8,286.0 452.1,286.0 458.5,286.0 464.8,286.0 471.1,286.0 477.4,286.0 483.7,280.0 490.0,286.0 496.3,286.0 502.6,286.0 508.9,286.0 515.2,286.0 521.5,286.0 527.9,286.0 534.2,286.0 540.5,286.0 546.8,286.0 553.1,286.0 559.4,286.0 565.7,286.0 572.0,286.0 578.3,286.0 584.6,286.0 591.0,286.0 597.3,286.0 603.6,286.0 609.9,286.0 616.2,286.0 622.5,286.0 628.8,286.0 635.1,286.0 641.4,286.0 647.7,286.0 654.1,286.0 660.4,286.0 666.7,286.0 673.0,286.0 679.3,286.0 685.6,286.0 691.9,286.0 698.2,286.0 704.5,286.0 710.8,286.0 717.2,286.0 723.5,286.0 729.8,286.0 736.1,286.0 742.4,286.0 748.7,286.0 755.0,286.0 761.3,286.0 767.6,286.0 773.9,286.0 780.3,286.0 786.6,286.0 792.9,286.0 799.2,286.0 805.5,286.0 811.8,286.0 818.1,286.0 824.4,286.0 830.7,286.0 837.0,286.0 843.4,286.0 849.7,286.0 856.0,286.0 862.3,286.0 868.6,286.0 874.9,286.0 881.2,286.0 887.5,286.0 893.8,286.0 900.1,286.0 906.5,286.0 912.8,286.0 919.1,286.0 925.4,286.0 931.7,286.0 938.0,286.0"/><text x="42" y="308" font-size="11" fill="#9fb0d4">19/06 12:43</text><text x="938" y="308" text-anchor="end" font-size="11" fill="#9fb0d4">28/06 20:30</text></svg>