<svg xmlns="http://www.w3.org/2000/svg" viewBox="0 0 960 320" width="960" height="320" font-family="Segoe UI, system-ui, -apple-system, Roboto, Helvetica, Arial, sans-serif" role="img" aria-label="Availability history per region"><rect x="0.5" y="0.5" width="959" height="319" rx="14" fill="#0d1117" stroke="#2c3a5e"/><text x="42" y="26" font-size="14" font-weight="600" fill="#e6ecff">History · 154 points</text><circle cx="47" cy="40" r="5" fill="#22c55e"/><text x="57" y="44" font-size="12" fill="#9fb0d4">Available</text><circle cx="139.8" cy="40" r="5" fill="#f59e0b"/><text x="149.8" y="44" font-size="12" fill="#9fb0d4">Saturated</text><circle cx="232.60000000000002" cy="40" r="5" fill="#ef4444"/><text x="242.60000000000002" y="44" font-size="12" fill="#9fb0d4">Error</text><circle cx="296.6" cy="40" r="5" fill="#a855f7"/><text x="306.6" y="44" font-size="12" fill="#9fb0d4">Timeout</text><line x1="42" y1="286.0" x2="938" y2="286.0" stroke="#21304f" stroke-width="1"/><text x="35" y="289.0" text-anchor="end" font-size="11" fill="#9fb0d4">0</text><line x1="42" y1="227.5" x2="938" y2="227.5" stroke="#21304f" stroke-width="1"/><text x="35" y="230.5" text-anchor="end" font-size="11" fill="#9fb0d4">10</text><line x1="42" y1="169.0" x2="938" y2="169.0" stroke="#21304f" stroke-width="1"/><text x="35" y="172.0" text-anchor="end" font-size="11" fill="#9fb0d4">20</text><line x1="42" y1="110.5" x2="938" y2="110.5" stroke="#21304f" stroke-width="1"/><text x="35" y="113.5" text-anchor="end" font-size="11" fill="#9fb0d4">29</text><line x1="42" y1="52.0" x2="938" y2="52.0" stroke="#21304f" stroke-width="1"/><text x="35" y="55.0" text-anchor="end" font-size="11" fill="#9fb0d4">39</text><polyline fill="none" stroke="#22c55e" stroke-width="2.5" stroke-linejoin="round" stroke-linecap="round" points="42.0,70.0 47.9,70.0 53.7,88.0 59.6,88.0 65.4,76.0 71.3,76.0 77.1,76.0 83.0,70.0 88.8,76.0 94.7,70.0 100.6,64.0 106.4,58.0 112.3,58.0 118.1,58.0 124.0,58.0 129.8,58.0 135.7,58.0 141.6,58.0 147.4,58.0 153.3,58.0 159.1,58.0 165.0,58.0 170.8,58.0 176.7,58.0 182.5,58.0 188.4,58.0 194.3,58.0 200.1,58.0 206.0,58.0 211.8,58.0 217.7,58.0 223.5,70.0 229.4,76.0 235.3,94.0 241.1,64.0 247.0,64.0 252.8,58.0 258.7,58.0 264.5,58.0 270.4,70.0 276.2,76.0 282.1,76.0 288.0,82.0 293.8,82.0 299.7,82.0 305.5,82.0 311.4,76.0 317.2,64.0 323.1,70.0 329.0,70.0 334.8,82.0 340.7,76.0 346.5,76.0 352.4,82.0 358.2,76.0 364.1,76.0 369.9,76.0 375.8,64.0 381.7,64.0 387.5,76.0 393.4,76.0 399.2,76.0 405.1,88.0 410.9,70.0 416.8,64.0 422.7,58.0 428.5,58.0 434.4,70.0 440.2,70.0 446.1,70.0 451.9,76.0 457.8,70.0 463.6,70.0 469.5,70.0 475.4,70.0 481.2,76.0 487.1,82.0 492.9,76.0 498.8,70.0 504.6,70.0 510.5,70.0 516.4,70.0 522.2,76.0 528.1,70.0 533.9,70.0 539.8,70.0 545.6,70.0 551.5,70.0 557.3,70.0 563.2,70.0 569.1,70.0 574.9,70.0 580.8,70.0 586.6,70.0 592.5,70.0 598.3,70.0 604.2,70.0 610.1,70.0 615.9,70.0 621.8,70.0 627.6,70.0 633.5,70.0 639.3,70.0 645.2,70.0 651.0,70.0 656.9,70.0 662.8,70.0 668.6,70.0 674.5,70.0 680.3,70.0 686.2,70.0 692.0,70.0 697.9,70.0 703.8,70.0 709.6,70.0 715.5,70.0 721.3,70.0 727.2,70.0 733.0,70.0 738.9,70.0 744.7,70.0 750.6,70.0 756.5,70.0 762.3,70.0 768.2,70.0 774.0,70.0 779.9,70.0 785.7,70.0 791.6,70.0 797.5,70.0 803.3,70.0 809.2,70.0 815.0,70.0 820.9,70.0 826.7,70.0 832.6,70.0 838.4,70.0 844.3,70.0 850.2,70.0 856.0,70.0 861.9,70.0 867.7,70.0 873.6,70.0 879.4,70.0 885.3,70.0 891.2,70.0 897.0,70.0 902.9,70.0 908.7,70.0 914.6,70.0 920.4,70.0 926.3,76.0 932.1,70.0 938.0,70.0"/><polyline fill="none" stroke="#f59e0b" stroke-width="2.5" stroke-linejoin="round" stroke-linecap="round" points="42.0,274.0 47.9,274.0 53.7,274.0 59.6,280.0 65.4,268.0 71.3,268.0 77.1,268.0 83.0,274.0 88.8,274.0 94.7,274.0 100.6,280.0 106.4,286.0 112.3,286.0 118.1,286.0 124.0,286.0 129.8,286.0 135.7,286.0 141.6,286.0 147.4,286.0 153.3,286.0 159.1,286.0 165.0,286.0 170.8,286.0 176.7,286.0 182.5,286.0 188.4,286.0 194.3,286.0 200.1,286.0 206.0,286.0 211.8,286.0 217.7,286.0 223.5,274.0 229.4,280.0 235.3,280.0 241.1,280.0 247.0,280.0 252.8,286.0 258.7,286.0 264.5,286.0 270.4,274.0 276.2,268.0 282.1,268.0 288.0,262.0 293.8,262.0 299.7,262.0 305.5,262.0 311.4,268.0 317.2,280.0 323.1,280.0 329.0,274.0 334.8,262.0 340.7,268.0 346.5,268.0 352.4,262.0 358.2,268.0 364.1,268.0 369.9,268.0 375.8,280.0 381.7,280.0 387.5,268.0 393.4,268.0 399.2,268.0 405.1,262.0 410.9,274.0 416.8,280.0 422.7,286.0 428.5,286.0 434.4,274.0 440.2,274.0 446.1,274.0 451.9,274.0 457.8,274.0 463.6,274.0 469.5,274.0 475.4,274.0 481.2,280.0 487.1,274.0 492.9,280.0 498.8,286.0 504.6,286.0 510.5,286.0 516.4,286.0 522.2,280.0 528.1,286.0 533.9,286.0 539.8,286.0 545.6,286.0 551.5,286.0 557.3,286.0 563.2,286.0 569.1,286.0 574.9,286.0 580.8,286.0 586.6,286.0 592.5,286.0 598.3,286.0 604.2,286.0 610.1,286.0 615.9,286.0 621.8,286.0 627.6,286.0 633.5,286.0 639.3,286.0 645.2,286.0 651.0,286.0 656.9,286.0 662.8,286.0 668.6,286.0 674.5,286.0 680.3,286.0 686.2,286.0 692.0,286.0 697.9,286.0 703.8,286.0 709.6,286.0 715.5,286.0 721.3,286.0 727.2,286.0 733.0,286.0 738.9,286.0 744.7,286.0 750.6,286.0 756.5,286.0 762.3,286.0 768.2,286.0 774.0,286.0 779.9,286.0 785.7,286.0 791.6,286.0 797.5,286.0 803.3,286.0 809.2,286.0 815.0,286.0 820.9,286.0 826.7,286.0 832.6,286.0 838.4,286.0 844.3,286.0 850.2,286.0 856.0,286.0 861.9,286.0 867.7,286.0 873.6,286.0 879.4,286.0 885.3,286.0 891.2,286.0 897.0,286.0 902.9,286.0 908.7,286.0 914.6,286.0 920.4,286.0 926.3,286.0 932.1,286.0 938.0,286.0"/><polyline fill="none" stroke="#ef4444" stroke-width="2.5" stroke-linejoin="round" stroke-linecap="round" points="42.0,280.0 47.9,280.0 53.7,268.0 59.6,262.0 65.4,286.0 71.3,286.0 77.1,286.0 83.0,286.0 88.8,280.0 94.7,286.0 100.6,286.0 106.4,286.0 112.3,286.0 118.1,286.0 124.0,286.0 129.8,286.0 135.7,286.0 141.6,286.0 147.4,286.0 153.3,286.0 159.1,286.0 165.0,286.0 170.8,286.0 176.7,286.0 182.5,286.0 188.4,286.0 194.3,286.0 200.1,286.0 206.0,286.0 211.8,286.0 217.7,286.0 223.5,286.0 229.4,274.0 235.3,256.0 241.1,286.0 247.0,286.0 252.8,286.0 258.7,286.0 264.5,286.0 270.4,286.0 276.2,286.0 282.1,286.0 288.0,286.0 293.8,286.0 299.7,286.0 305.5,286.0 311.4,286.0 317.2,286.0 323.1,280.0 329.0,286.0 334.8,286.0 340.7,286.0 346.5,286.0 352.4,286.0 358.2,286.0 364.1,286.0 369.9,286.0 375.8,286.0 381.7,286.0 387.5,286.0 393.4,286.0 399.2,286.0 405.1,280.0 410.9,286.0 416.8,286.0 422.7,286.0 428.5,286.0 434.4,286.0 440.2,286.0 446.1,286.0 451.9,286.0 457.8,286.0 463.6,286.0 469.5,286.0 475.4,286.0 481.2,274.0 487.1,274.0 492.9,274.0 498.8,274.0 504.6,274.0 510.5,274.0 516.4,274.0 522.2,274.0 528.1,274.0 533.9,274.0 539.8,274.0 545.6,274.0 551.5,274.0 557.3,274.0 563.2,274.0 569.1,274.0 574.9,274.0 580.8,274.0 586.6,274.0 592.5,274.0 598.3,274.0 604.2,274.0 610.1,274.0 615.9,274.0 621.8,274.0 627.6,274.0 633.5,274.0 639.3,274.0 645.2,274.0 651.0,274.0 656.9,274.0 662.8,274.0 668.6,274.0 674.5,274.0 680.3,274.0 686.2,274.0 692.0,274.0 697.9,274.0 703.8,274.0 709.6,274.0 715.5,274.0 721.3,274.0 727.2,274.0 733.0,274.0 738.9,274.0 744.7,274.0 750.6,274.0 756.5,274.0 762.3,274.0 768.2,274.0 774.0,274.0 779.9,274.0 785.7,274.0 791.6,274.0 797.5,274.0 803.3,274.0 809.2,274.0 815.0,274.0 820.9,274.0 826.7,274.0 832.6,274.0 838.4,274.0 844.3,274.0 850.2,274.0 856.0,274.0 861.9,274.0 867.7,274.0 873.6,274.0 879.4,274.0 885.3,274.0 891.2,274.0 897.0,274.0 902.9,274.0 908.7,274.0 914.6,274.0 920.4,274.0 926.3,268.0 932.1,274.0 938.0,274.0"/><polyline fill="none" stroke="#a855f7" stroke-width="2.5" stroke-linejoin="round" stroke-linecap="round" points="42.0,286.0 47.9,286.0 53.7,286.0 59.6,286.0 65.4,286.0 71.3,286.0 77.1,286.0 83.0,286.0 88.8,286.0 94.7,286.0 100.6,286.0 106.4,286.0 112.3,286.0 118.1,286.0 124.0,286.0 129.8,286.0 135.7,286.0 141.6,286.0 147.4,286.0 153.3,286.0 159.1,286.0 165.0,286.0 170.8,286.0 176.7,286.0 182.5,286.0 188.4,286.0 194.3,286.0 200.1,286.0 206.0,286.0 211.8,286.0 217.7,286.0 223.5,286.0 229.4,286.0 235.3,286.0 241.1,286.0 247.0,286.0 252.8,286.0 258.7,286.0 264.5,286.0 270.4,286.0 276.2,286.0 282.1,286.0 288.0,286.0 293.8,286.0 299.7,286.0 305.5,286.0 311.4,286.0 317.2,286.0 323.1,286.0 329.0,286.0 334.8,286.0 340.7,286.0 346.5,286.0 352.4,286.0 358.2,286.0 364.1,286.0 369.9,286.0 375.8,286.0 381.7,286.0 387.5,286.0 393.4,286.0 399.2,286.0 405.1,286.0 410.9,286.0 416.8,286.0 422.7,286.0 428.5,286.0 434.4,286.0 440.2,286.0 446.1,286.0 451.9,280.0 457.8,286.0 463.6,286.0 469.5,286.0 475.4,286.0 481.2,286.0 487.1,286.0 492.9,286.0 498.8,286.0 504.6,286.0 510.5,286.0 516.4,286.0 522.2,286.0 528.1,286.0 533.9,286.0 539.8,286.0 545.6,286.0 551.5,286.0 557.3,286.0 563.2,286.0 569.1,286.0 574.9,286.0 580.8,286.0 586.6,286.0 592.5,286.0 598.3,286.0 604.2,286.0 610.1,286.0 615.9,286.0 621.8,286.0 627.6,286.0 633.5,286.0 639.3,286.0 645.2,286.0 651.0,286.0 656.9,286.0 662.8,286.0 668.6,286.0 674.5,286.0 680.3,286.0 686.2,286.0 692.0,286.0 697.9,286.0 703.8,286.0 709.6,286.0 715.5,286.0 721.3,286.0 727.2,286.0 733.0,286.0 738.9,286.0 744.7,286.0 750.6,286.0 756.5,286.0 762.3,286.0 768.2,286.0 774.0,286.0 779.9,286.0 785.7,286.0 791.6,286.0 797.5,286.0 803.3,286.0 809.2,286.0 815.0,286.0 820.9,286.0 826.7,286.0 832.6,286.0 838.4,286.0 844.3,286.0 850.2,286.0 856.0,286.0 861.9,286.0 867.7,286.0 873.6,286.0 879.4,286.0 885.3,286.0 891.2,286.0 897.0,286.0 902.9,286.0 908.7,286.0 914.6,286.0 920.4,286.0 926.3,286.0 932.1,286.0 938.0,286.0"/><text x="42" y="308" font-size="11" fill="#9fb0d4">19/06 12:43</text><text x="938" y="308" text-anchor="end" font-size="11" fill="#9fb0d4">29/06 05:12</text></svg>