<svg xmlns="http://www.w3.org/2000/svg" viewBox="0 0 960 320" width="960" height="320" font-family="Segoe UI, system-ui, -apple-system, Roboto, Helvetica, Arial, sans-serif" role="img" aria-label="Availability history per region"><rect x="0.5" y="0.5" width="959" height="319" rx="14" fill="#ffffff" stroke="#dce3f1"/><text x="42" y="26" font-size="14" font-weight="600" fill="#14203a">History · 106 points</text><circle cx="47" cy="40" r="5" fill="#22c55e"/><text x="57" y="44" font-size="12" fill="#5a688a">Available</text><circle cx="139.8" cy="40" r="5" fill="#f59e0b"/><text x="149.8" y="44" font-size="12" fill="#5a688a">Saturated</text><circle cx="232.60000000000002" cy="40" r="5" fill="#ef4444"/><text x="242.60000000000002" y="44" font-size="12" fill="#5a688a">Error</text><circle cx="296.6" cy="40" r="5" fill="#a855f7"/><text x="306.6" y="44" font-size="12" fill="#5a688a">Timeout</text><line x1="42" y1="286.0" x2="938" y2="286.0" stroke="#eef2f7" stroke-width="1"/><text x="35" y="289.0" text-anchor="end" font-size="11" fill="#5a688a">0</text><line x1="42" y1="227.5" x2="938" y2="227.5" stroke="#eef2f7" stroke-width="1"/><text x="35" y="230.5" text-anchor="end" font-size="11" fill="#5a688a">10</text><line x1="42" y1="169.0" x2="938" y2="169.0" stroke="#eef2f7" stroke-width="1"/><text x="35" y="172.0" text-anchor="end" font-size="11" fill="#5a688a">20</text><line x1="42" y1="110.5" x2="938" y2="110.5" stroke="#eef2f7" stroke-width="1"/><text x="35" y="113.5" text-anchor="end" font-size="11" fill="#5a688a">29</text><line x1="42" y1="52.0" x2="938" y2="52.0" stroke="#eef2f7" stroke-width="1"/><text x="35" y="55.0" text-anchor="end" font-size="11" fill="#5a688a">39</text><polyline fill="none" stroke="#22c55e" stroke-width="2.5" stroke-linejoin="round" stroke-linecap="round" points="42.0,70.0 50.5,70.0 59.1,88.0 67.6,88.0 76.1,76.0 84.7,76.0 93.2,76.0 101.7,70.0 110.3,76.0 118.8,70.0 127.3,64.0 135.9,58.0 144.4,58.0 152.9,58.0 161.5,58.0 170.0,58.0 178.5,58.0 187.1,58.0 195.6,58.0 204.1,58.0 212.7,58.0 221.2,58.0 229.7,58.0 238.3,58.0 246.8,58.0 255.3,58.0 263.9,58.0 272.4,58.0 280.9,58.0 289.5,58.0 298.0,58.0 306.5,70.0 315.1,76.0 323.6,94.0 332.1,64.0 340.7,64.0 349.2,58.0 357.7,58.0 366.3,58.0 374.8,70.0 383.3,76.0 391.9,76.0 400.4,82.0 408.9,82.0 417.5,82.0 426.0,82.0 434.5,76.0 443.1,64.0 451.6,70.0 460.1,70.0 468.7,82.0 477.2,76.0 485.7,76.0 494.3,82.0 502.8,76.0 511.3,76.0 519.9,76.0 528.4,64.0 536.9,64.0 545.5,76.0 554.0,76.0 562.5,76.0 571.1,88.0 579.6,70.0 588.1,64.0 596.7,58.0 605.2,58.0 613.7,70.0 622.3,70.0 630.8,70.0 639.3,76.0 647.9,70.0 656.4,70.0 664.9,70.0 673.5,70.0 682.0,76.0 690.5,82.0 699.1,76.0 707.6,70.0 716.1,70.0 724.7,70.0 733.2,70.0 741.7,76.0 750.3,70.0 758.8,70.0 767.3,70.0 775.9,70.0 784.4,70.0 792.9,70.0 801.5,70.0 810.0,70.0 818.5,70.0 827.1,70.0 835.6,70.0 844.1,70.0 852.7,70.0 861.2,70.0 869.7,70.0 878.3,70.0 886.8,70.0 895.3,70.0 903.9,70.0 912.4,70.0 920.9,70.0 929.5,70.0 938.0,70.0"/><polyline fill="none" stroke="#f59e0b" stroke-width="2.5" stroke-linejoin="round" stroke-linecap="round" points="42.0,274.0 50.5,274.0 59.1,274.0 67.6,280.0 76.1,268.0 84.7,268.0 93.2,268.0 101.7,274.0 110.3,274.0 118.8,274.0 127.3,280.0 135.9,286.0 144.4,286.0 152.9,286.0 161.5,286.0 170.0,286.0 178.5,286.0 187.1,286.0 195.6,286.0 204.1,286.0 212.7,286.0 221.2,286.0 229.7,286.0 238.3,286.0 246.8,286.0 255.3,286.0 263.9,286.0 272.4,286.0 280.9,286.0 289.5,286.0 298.0,286.0 306.5,274.0 315.1,280.0 323.6,280.0 332.1,280.0 340.7,280.0 349.2,286.0 357.7,286.0 366.3,286.0 374.8,274.0 383.3,268.0 391.9,268.0 400.4,262.0 408.9,262.0 417.5,262.0 426.0,262.0 434.5,268.0 443.1,280.0 451.6,280.0 460.1,274.0 468.7,262.0 477.2,268.0 485.7,268.0 494.3,262.0 502.8,268.0 511.3,268.0 519.9,268.0 528.4,280.0 536.9,280.0 545.5,268.0 554.0,268.0 562.5,268.0 571.1,262.0 579.6,274.0 588.1,280.0 596.7,286.0 605.2,286.0 613.7,274.0 622.3,274.0 630.8,274.0 639.3,274.0 647.9,274.0 656.4,274.0 664.9,274.0 673.5,274.0 682.0,280.0 690.5,274.0 699.1,280.0 707.6,286.0 716.1,286.0 724.7,286.0 733.2,286.0 741.7,280.0 750.3,286.0 758.8,286.0 767.3,286.0 775.9,286.0 784.4,286.0 792.9,286.0 801.5,286.0 810.0,286.0 818.5,286.0 827.1,286.0 835.6,286.0 844.1,286.0 852.7,286.0 861.2,286.0 869.7,286.0 878.3,286.0 886.8,286.0 895.3,286.0 903.9,286.0 912.4,286.0 920.9,286.0 929.5,286.0 938.0,286.0"/><polyline fill="none" stroke="#ef4444" stroke-width="2.5" stroke-linejoin="round" stroke-linecap="round" points="42.0,280.0 50.5,280.0 59.1,268.0 67.6,262.0 76.1,286.0 84.7,286.0 93.2,286.0 101.7,286.0 110.3,280.0 118.8,286.0 127.3,286.0 135.9,286.0 144.4,286.0 152.9,286.0 161.5,286.0 170.0,286.0 178.5,286.0 187.1,286.0 195.6,286.0 204.1,286.0 212.7,286.0 221.2,286.0 229.7,286.0 238.3,286.0 246.8,286.0 255.3,286.0 263.9,286.0 272.4,286.0 280.9,286.0 289.5,286.0 298.0,286.0 306.5,286.0 315.1,274.0 323.6,256.0 332.1,286.0 340.7,286.0 349.2,286.0 357.7,286.0 366.3,286.0 374.8,286.0 383.3,286.0 391.9,286.0 400.4,286.0 408.9,286.0 417.5,286.0 426.0,286.0 434.5,286.0 443.1,286.0 451.6,280.0 460.1,286.0 468.7,286.0 477.2,286.0 485.7,286.0 494.3,286.0 502.8,286.0 511.3,286.0 519.9,286.0 528.4,286.0 536.9,286.0 545.5,286.0 554.0,286.0 562.5,286.0 571.1,280.0 579.6,286.0 588.1,286.0 596.7,286.0 605.2,286.0 613.7,286.0 622.3,286.0 630.8,286.0 639.3,286.0 647.9,286.0 656.4,286.0 664.9,286.0 673.5,286.0 682.0,274.0 690.5,274.0 699.1,274.0 707.6,274.0 716.1,274.0 724.7,274.0 733.2,274.0 741.7,274.0 750.3,274.0 758.8,274.0 767.3,274.0 775.9,274.0 784.4,274.0 792.9,274.0 801.5,274.0 810.0,274.0 818.5,274.0 827.1,274.0 835.6,274.0 844.1,274.0 852.7,274.0 861.2,274.0 869.7,274.0 878.3,274.0 886.8,274.0 895.3,274.0 903.9,274.0 912.4,274.0 920.9,274.0 929.5,274.0 938.0,274.0"/><polyline fill="none" stroke="#a855f7" stroke-width="2.5" stroke-linejoin="round" stroke-linecap="round" points="42.0,286.0 50.5,286.0 59.1,286.0 67.6,286.0 76.1,286.0 84.7,286.0 93.2,286.0 101.7,286.0 110.3,286.0 118.8,286.0 127.3,286.0 135.9,286.0 144.4,286.0 152.9,286.0 161.5,286.0 170.0,286.0 178.5,286.0 187.1,286.0 195.6,286.0 204.1,286.0 212.7,286.0 221.2,286.0 229.7,286.0 238.3,286.0 246.8,286.0 255.3,286.0 263.9,286.0 272.4,286.0 280.9,286.0 289.5,286.0 298.0,286.0 306.5,286.0 315.1,286.0 323.6,286.0 332.1,286.0 340.7,286.0 349.2,286.0 357.7,286.0 366.3,286.0 374.8,286.0 383.3,286.0 391.9,286.0 400.4,286.0 408.9,286.0 417.5,286.0 426.0,286.0 434.5,286.0 443.1,286.0 451.6,286.0 460.1,286.0 468.7,286.0 477.2,286.0 485.7,286.0 494.3,286.0 502.8,286.0 511.3,286.0 519.9,286.0 528.4,286.0 536.9,286.0 545.5,286.0 554.0,286.0 562.5,286.0 571.1,286.0 579.6,286.0 588.1,286.0 596.7,286.0 605.2,286.0 613.7,286.0 622.3,286.0 630.8,286.0 639.3,280.0 647.9,286.0 656.4,286.0 664.9,286.0 673.5,286.0 682.0,286.0 690.5,286.0 699.1,286.0 707.6,286.0 716.1,286.0 724.7,286.0 733.2,286.0 741.7,286.0 750.3,286.0 758.8,286.0 767.3,286.0 775.9,286.0 784.4,286.0 792.9,286.0 801.5,286.0 810.0,286.0 818.5,286.0 827.1,286.0 835.6,286.0 844.1,286.0 852.7,286.0 861.2,286.0 869.7,286.0 878.3,286.0 886.8,286.0 895.3,286.0 903.9,286.0 912.4,286.0 920.9,286.0 929.5,286.0 938.0,286.0"/><text x="42" y="308" font-size="11" fill="#5a688a">19/06 12:43</text><text x="938" y="308" text-anchor="end" font-size="11" fill="#5a688a">27/06 17:42</text></svg>