<svg xmlns="http://www.w3.org/2000/svg" viewBox="0 0 960 320" width="960" height="320" font-family="Segoe UI, system-ui, -apple-system, Roboto, Helvetica, Arial, sans-serif" role="img" aria-label="Availability history per region"><rect x="0.5" y="0.5" width="959" height="319" rx="14" fill="#0d1117" stroke="#2c3a5e"/><text x="42" y="26" font-size="14" font-weight="600" fill="#e6ecff">History · 304 points</text><circle cx="47" cy="40" r="5" fill="#22c55e"/><text x="57" y="44" font-size="12" fill="#9fb0d4">Available</text><circle cx="139.8" cy="40" r="5" fill="#f59e0b"/><text x="149.8" y="44" font-size="12" fill="#9fb0d4">Saturated</text><circle cx="232.60000000000002" cy="40" r="5" fill="#ef4444"/><text x="242.60000000000002" y="44" font-size="12" fill="#9fb0d4">Error</text><circle cx="296.6" cy="40" r="5" fill="#a855f7"/><text x="306.6" y="44" font-size="12" fill="#9fb0d4">Timeout</text><line x1="42" y1="286.0" x2="938" y2="286.0" stroke="#21304f" stroke-width="1"/><text x="35" y="289.0" text-anchor="end" font-size="11" fill="#9fb0d4">0</text><line x1="42" y1="227.5" x2="938" y2="227.5" stroke="#21304f" stroke-width="1"/><text x="35" y="230.5" text-anchor="end" font-size="11" fill="#9fb0d4">10</text><line x1="42" y1="169.0" x2="938" y2="169.0" stroke="#21304f" stroke-width="1"/><text x="35" y="172.0" text-anchor="end" font-size="11" fill="#9fb0d4">20</text><line x1="42" y1="110.5" x2="938" y2="110.5" stroke="#21304f" stroke-width="1"/><text x="35" y="113.5" text-anchor="end" font-size="11" fill="#9fb0d4">29</text><line x1="42" y1="52.0" x2="938" y2="52.0" stroke="#21304f" stroke-width="1"/><text x="35" y="55.0" text-anchor="end" font-size="11" fill="#9fb0d4">39</text><polyline fill="none" stroke="#22c55e" stroke-width="2.5" stroke-linejoin="round" stroke-linecap="round" points="42.0,70.0 45.0,70.0 47.9,88.0 50.9,88.0 53.8,76.0 56.8,76.0 59.7,76.0 62.7,70.0 65.7,76.0 68.6,70.0 71.6,64.0 74.5,58.0 77.5,58.0 80.4,58.0 83.4,58.0 86.4,58.0 89.3,58.0 92.3,58.0 95.2,58.0 98.2,58.0 101.1,58.0 104.1,58.0 107.1,58.0 110.0,58.0 113.0,58.0 115.9,58.0 118.9,58.0 121.8,58.0 124.8,58.0 127.8,58.0 130.7,58.0 133.7,70.0 136.6,76.0 139.6,94.0 142.5,64.0 145.5,64.0 148.5,58.0 151.4,58.0 154.4,58.0 157.3,70.0 160.3,76.0 163.2,76.0 166.2,82.0 169.2,82.0 172.1,82.0 175.1,82.0 178.0,76.0 181.0,64.0 183.9,70.0 186.9,70.0 189.9,82.0 192.8,76.0 195.8,76.0 198.7,82.0 201.7,76.0 204.6,76.0 207.6,76.0 210.6,64.0 213.5,64.0 216.5,76.0 219.4,76.0 222.4,76.0 225.3,88.0 228.3,70.0 231.3,64.0 234.2,58.0 237.2,58.0 240.1,70.0 243.1,70.0 246.0,70.0 249.0,76.0 252.0,70.0 254.9,70.0 257.9,70.0 260.8,70.0 263.8,76.0 266.7,82.0 269.7,76.0 272.7,70.0 275.6,70.0 278.6,70.0 281.5,70.0 284.5,76.0 287.4,70.0 290.4,70.0 293.4,70.0 296.3,70.0 299.3,70.0 302.2,70.0 305.2,70.0 308.1,70.0 311.1,70.0 314.1,70.0 317.0,70.0 320.0,70.0 322.9,70.0 325.9,70.0 328.8,70.0 331.8,70.0 334.8,70.0 337.7,70.0 340.7,70.0 343.6,70.0 346.6,70.0 349.5,70.0 352.5,70.0 355.5,70.0 358.4,70.0 361.4,70.0 364.3,70.0 367.3,70.0 370.2,70.0 373.2,70.0 376.2,70.0 379.1,70.0 382.1,70.0 385.0,70.0 388.0,70.0 390.9,70.0 393.9,70.0 396.9,70.0 399.8,70.0 402.8,70.0 405.7,70.0 408.7,70.0 411.6,70.0 414.6,70.0 417.6,70.0 420.5,70.0 423.5,70.0 426.4,70.0 429.4,70.0 432.3,70.0 435.3,70.0 438.3,70.0 441.2,70.0 444.2,70.0 447.1,70.0 450.1,70.0 453.0,70.0 456.0,70.0 459.0,70.0 461.9,70.0 464.9,70.0 467.8,70.0 470.8,70.0 473.7,70.0 476.7,70.0 479.7,70.0 482.6,70.0 485.6,70.0 488.5,76.0 491.5,70.0 494.4,70.0 497.4,70.0 500.3,70.0 503.3,70.0 506.3,76.0 509.2,76.0 512.2,88.0 515.1,88.0 518.1,88.0 521.0,94.0 524.0,94.0 527.0,94.0 529.9,94.0 532.9,88.0 535.8,88.0 538.8,82.0 541.7,82.0 544.7,82.0 547.7,88.0 550.6,88.0 553.6,94.0 556.5,82.0 559.5,82.0 562.4,82.0 565.4,82.0 568.4,88.0 571.3,88.0 574.3,94.0 577.2,94.0 580.2,88.0 583.1,88.0 586.1,88.0 589.1,94.0 592.0,94.0 595.0,106.0 597.9,94.0 600.9,94.0 603.8,94.0 606.8,94.0 609.8,88.0 612.7,88.0 615.7,82.0 618.6,76.0 621.6,76.0 624.5,76.0 627.5,76.0 630.5,76.0 633.4,76.0 636.4,70.0 639.3,70.0 642.3,70.0 645.2,76.0 648.2,88.0 651.2,82.0 654.1,70.0 657.1,70.0 660.0,70.0 663.0,76.0 665.9,76.0 668.9,76.0 671.9,82.0 674.8,70.0 677.8,76.0 680.7,64.0 683.7,70.0 686.6,58.0 689.6,58.0 692.6,58.0 695.5,58.0 698.5,58.0 701.4,64.0 704.4,58.0 707.3,64.0 710.3,58.0 713.3,58.0 716.2,58.0 719.2,58.0 722.1,64.0 725.1,64.0 728.0,64.0 731.0,76.0 734.0,70.0 736.9,82.0 739.9,70.0 742.8,76.0 745.8,58.0 748.7,64.0 751.7,58.0 754.7,64.0 757.6,58.0 760.6,58.0 763.5,58.0 766.5,64.0 769.4,70.0 772.4,64.0 775.4,64.0 778.3,64.0 781.3,70.0 784.2,70.0 787.2,64.0 790.1,70.0 793.1,70.0 796.1,70.0 799.0,58.0 802.0,58.0 804.9,58.0 807.9,58.0 810.8,58.0 813.8,64.0 816.8,58.0 819.7,58.0 822.7,58.0 825.6,58.0 828.6,58.0 831.5,58.0 834.5,58.0 837.5,58.0 840.4,64.0 843.4,58.0 846.3,58.0 849.3,58.0 852.2,58.0 855.2,58.0 858.2,58.0 861.1,58.0 864.1,64.0 867.0,58.0 870.0,58.0 872.9,58.0 875.9,58.0 878.9,58.0 881.8,58.0 884.8,58.0 887.7,58.0 890.7,58.0 893.6,58.0 896.6,58.0 899.6,58.0 902.5,58.0 905.5,58.0 908.4,58.0 911.4,58.0 914.3,58.0 917.3,58.0 920.3,58.0 923.2,64.0 926.2,64.0 929.1,58.0 932.1,58.0 935.0,58.0 938.0,64.0"/><polyline fill="none" stroke="#f59e0b" stroke-width="2.5" stroke-linejoin="round" stroke-linecap="round" points="42.0,274.0 45.0,274.0 47.9,274.0 50.9,280.0 53.8,268.0 56.8,268.0 59.7,268.0 62.7,274.0 65.7,274.0 68.6,274.0 71.6,280.0 74.5,286.0 77.5,286.0 80.4,286.0 83.4,286.0 86.4,286.0 89.3,286.0 92.3,286.0 95.2,286.0 98.2,286.0 101.1,286.0 104.1,286.0 107.1,286.0 110.0,286.0 113.0,286.0 115.9,286.0 118.9,286.0 121.8,286.0 124.8,286.0 127.8,286.0 130.7,286.0 133.7,274.0 136.6,280.0 139.6,280.0 142.5,280.0 145.5,280.0 148.5,286.0 151.4,286.0 154.4,286.0 157.3,274.0 160.3,268.0 163.2,268.0 166.2,262.0 169.2,262.0 172.1,262.0 175.1,262.0 178.0,268.0 181.0,280.0 183.9,280.0 186.9,274.0 189.9,262.0 192.8,268.0 195.8,268.0 198.7,262.0 201.7,268.0 204.6,268.0 207.6,268.0 210.6,280.0 213.5,280.0 216.5,268.0 219.4,268.0 222.4,268.0 225.3,262.0 228.3,274.0 231.3,280.0 234.2,286.0 237.2,286.0 240.1,274.0 243.1,274.0 246.0,274.0 249.0,274.0 252.0,274.0 254.9,274.0 257.9,274.0 260.8,274.0 263.8,280.0 266.7,274.0 269.7,280.0 272.7,286.0 275.6,286.0 278.6,286.0 281.5,286.0 284.5,280.0 287.4,286.0 290.4,286.0 293.4,286.0 296.3,286.0 299.3,286.0 302.2,286.0 305.2,286.0 308.1,286.0 311.1,286.0 314.1,286.0 317.0,286.0 320.0,286.0 322.9,286.0 325.9,286.0 328.8,286.0 331.8,286.0 334.8,286.0 337.7,286.0 340.7,286.0 343.6,286.0 346.6,286.0 349.5,286.0 352.5,286.0 355.5,286.0 358.4,286.0 361.4,286.0 364.3,286.0 367.3,286.0 370.2,286.0 373.2,286.0 376.2,286.0 379.1,286.0 382.1,286.0 385.0,286.0 388.0,286.0 390.9,286.0 393.9,286.0 396.9,286.0 399.8,286.0 402.8,286.0 405.7,286.0 408.7,286.0 411.6,286.0 414.6,286.0 417.6,286.0 420.5,286.0 423.5,286.0 426.4,286.0 429.4,286.0 432.3,286.0 435.3,286.0 438.3,286.0 441.2,286.0 444.2,286.0 447.1,286.0 450.1,286.0 453.0,286.0 456.0,286.0 459.0,286.0 461.9,286.0 464.9,286.0 467.8,286.0 470.8,286.0 473.7,286.0 476.7,286.0 479.7,286.0 482.6,286.0 485.6,286.0 488.5,286.0 491.5,286.0 494.4,286.0 497.4,286.0 500.3,286.0 503.3,286.0 506.3,286.0 509.2,280.0 512.2,268.0 515.1,268.0 518.1,268.0 521.0,268.0 524.0,262.0 527.0,262.0 529.9,262.0 532.9,268.0 535.8,268.0 538.8,274.0 541.7,274.0 544.7,274.0 547.7,268.0 550.6,268.0 553.6,268.0 556.5,274.0 559.5,274.0 562.4,274.0 565.4,274.0 568.4,268.0 571.3,268.0 574.3,262.0 577.2,262.0 580.2,268.0 583.1,268.0 586.1,268.0 589.1,262.0 592.0,262.0 595.0,274.0 597.9,262.0 600.9,262.0 603.8,262.0 606.8,262.0 609.8,268.0 612.7,268.0 615.7,274.0 618.6,280.0 621.6,280.0 624.5,280.0 627.5,280.0 630.5,280.0 633.4,280.0 636.4,286.0 639.3,286.0 642.3,286.0 645.2,280.0 648.2,274.0 651.2,274.0 654.1,280.0 657.1,274.0 660.0,274.0 663.0,268.0 665.9,268.0 668.9,268.0 671.9,268.0 674.8,280.0 677.8,274.0 680.7,280.0 683.7,280.0 686.6,286.0 689.6,286.0 692.6,286.0 695.5,286.0 698.5,286.0 701.4,286.0 704.4,286.0 707.3,286.0 710.3,286.0 713.3,286.0 716.2,286.0 719.2,286.0 722.1,280.0 725.1,280.0 728.0,280.0 731.0,268.0 734.0,280.0 736.9,268.0 739.9,274.0 742.8,274.0 745.8,286.0 748.7,280.0 751.7,286.0 754.7,280.0 757.6,286.0 760.6,286.0 763.5,286.0 766.5,280.0 769.4,274.0 772.4,280.0 775.4,280.0 778.3,280.0 781.3,274.0 784.2,274.0 787.2,280.0 790.1,280.0 793.1,280.0 796.1,280.0 799.0,286.0 802.0,286.0 804.9,286.0 807.9,286.0 810.8,286.0 813.8,286.0 816.8,286.0 819.7,286.0 822.7,286.0 825.6,286.0 828.6,286.0 831.5,286.0 834.5,286.0 837.5,286.0 840.4,286.0 843.4,286.0 846.3,286.0 849.3,286.0 852.2,286.0 855.2,286.0 858.2,286.0 861.1,286.0 864.1,286.0 867.0,286.0 870.0,286.0 872.9,286.0 875.9,286.0 878.9,286.0 881.8,286.0 884.8,286.0 887.7,286.0 890.7,286.0 893.6,286.0 896.6,286.0 899.6,286.0 902.5,286.0 905.5,286.0 908.4,286.0 911.4,286.0 914.3,286.0 917.3,286.0 920.3,286.0 923.2,286.0 926.2,286.0 929.1,286.0 932.1,286.0 935.0,286.0 938.0,280.0"/><polyline fill="none" stroke="#ef4444" stroke-width="2.5" stroke-linejoin="round" stroke-linecap="round" points="42.0,280.0 45.0,280.0 47.9,268.0 50.9,262.0 53.8,286.0 56.8,286.0 59.7,286.0 62.7,286.0 65.7,280.0 68.6,286.0 71.6,286.0 74.5,286.0 77.5,286.0 80.4,286.0 83.4,286.0 86.4,286.0 89.3,286.0 92.3,286.0 95.2,286.0 98.2,286.0 101.1,286.0 104.1,286.0 107.1,286.0 110.0,286.0 113.0,286.0 115.9,286.0 118.9,286.0 121.8,286.0 124.8,286.0 127.8,286.0 130.7,286.0 133.7,286.0 136.6,274.0 139.6,256.0 142.5,286.0 145.5,286.0 148.5,286.0 151.4,286.0 154.4,286.0 157.3,286.0 160.3,286.0 163.2,286.0 166.2,286.0 169.2,286.0 172.1,286.0 175.1,286.0 178.0,286.0 181.0,286.0 183.9,280.0 186.9,286.0 189.9,286.0 192.8,286.0 195.8,286.0 198.7,286.0 201.7,286.0 204.6,286.0 207.6,286.0 210.6,286.0 213.5,286.0 216.5,286.0 219.4,286.0 222.4,286.0 225.3,280.0 228.3,286.0 231.3,286.0 234.2,286.0 237.2,286.0 240.1,286.0 243.1,286.0 246.0,286.0 249.0,286.0 252.0,286.0 254.9,286.0 257.9,286.0 260.8,286.0 263.8,274.0 266.7,274.0 269.7,274.0 272.7,274.0 275.6,274.0 278.6,274.0 281.5,274.0 284.5,274.0 287.4,274.0 290.4,274.0 293.4,274.0 296.3,274.0 299.3,274.0 302.2,274.0 305.2,274.0 308.1,274.0 311.1,274.0 314.1,274.0 317.0,274.0 320.0,274.0 322.9,274.0 325.9,274.0 328.8,274.0 331.8,274.0 334.8,274.0 337.7,274.0 340.7,274.0 343.6,274.0 346.6,274.0 349.5,274.0 352.5,274.0 355.5,274.0 358.4,274.0 361.4,274.0 364.3,274.0 367.3,274.0 370.2,274.0 373.2,274.0 376.2,274.0 379.1,274.0 382.1,274.0 385.0,274.0 388.0,274.0 390.9,274.0 393.9,274.0 396.9,274.0 399.8,274.0 402.8,274.0 405.7,274.0 408.7,274.0 411.6,274.0 414.6,274.0 417.6,274.0 420.5,274.0 423.5,274.0 426.4,274.0 429.4,274.0 432.3,274.0 435.3,274.0 438.3,274.0 441.2,274.0 444.2,274.0 447.1,274.0 450.1,274.0 453.0,274.0 456.0,274.0 459.0,274.0 461.9,274.0 464.9,274.0 467.8,274.0 470.8,274.0 473.7,274.0 476.7,274.0 479.7,274.0 482.6,274.0 485.6,274.0 488.5,268.0 491.5,274.0 494.4,274.0 497.4,274.0 500.3,274.0 503.3,274.0 506.3,274.0 509.2,274.0 512.2,274.0 515.1,274.0 518.1,274.0 521.0,268.0 524.0,274.0 527.0,274.0 529.9,274.0 532.9,274.0 535.8,274.0 538.8,274.0 541.7,274.0 544.7,274.0 547.7,274.0 550.6,274.0 553.6,268.0 556.5,274.0 559.5,274.0 562.4,274.0 565.4,274.0 568.4,274.0 571.3,274.0 574.3,274.0 577.2,274.0 580.2,274.0 583.1,274.0 586.1,274.0 589.1,274.0 592.0,274.0 595.0,250.0 597.9,274.0 600.9,274.0 603.8,274.0 606.8,274.0 609.8,274.0 612.7,274.0 615.7,274.0 618.6,274.0 621.6,274.0 624.5,274.0 627.5,274.0 630.5,274.0 633.4,274.0 636.4,274.0 639.3,274.0 642.3,274.0 645.2,274.0 648.2,268.0 651.2,274.0 654.1,280.0 657.1,286.0 660.0,286.0 663.0,286.0 665.9,286.0 668.9,286.0 671.9,280.0 674.8,280.0 677.8,286.0 680.7,286.0 683.7,280.0 686.6,286.0 689.6,286.0 692.6,286.0 695.5,286.0 698.5,286.0 701.4,280.0 704.4,286.0 707.3,286.0 710.3,286.0 713.3,286.0 716.2,286.0 719.2,286.0 722.1,286.0 725.1,286.0 728.0,286.0 731.0,286.0 734.0,280.0 736.9,280.0 739.9,286.0 742.8,280.0 745.8,286.0 748.7,286.0 751.7,286.0 754.7,286.0 757.6,286.0 760.6,286.0 763.5,286.0 766.5,286.0 769.4,286.0 772.4,286.0 775.4,286.0 778.3,286.0 781.3,286.0 784.2,286.0 787.2,286.0 790.1,280.0 793.1,286.0 796.1,280.0 799.0,286.0 802.0,286.0 804.9,286.0 807.9,286.0 810.8,286.0 813.8,286.0 816.8,286.0 819.7,286.0 822.7,286.0 825.6,286.0 828.6,286.0 831.5,286.0 834.5,286.0 837.5,286.0 840.4,280.0 843.4,286.0 846.3,286.0 849.3,286.0 852.2,286.0 855.2,286.0 858.2,286.0 861.1,286.0 864.1,286.0 867.0,286.0 870.0,286.0 872.9,286.0 875.9,286.0 878.9,286.0 881.8,286.0 884.8,286.0 887.7,286.0 890.7,286.0 893.6,286.0 896.6,286.0 899.6,286.0 902.5,286.0 905.5,286.0 908.4,286.0 911.4,286.0 914.3,286.0 917.3,286.0 920.3,286.0 923.2,280.0 926.2,280.0 929.1,286.0 932.1,286.0 935.0,286.0 938.0,286.0"/><polyline fill="none" stroke="#a855f7" stroke-width="2.5" stroke-linejoin="round" stroke-linecap="round" points="42.0,286.0 45.0,286.0 47.9,286.0 50.9,286.0 53.8,286.0 56.8,286.0 59.7,286.0 62.7,286.0 65.7,286.0 68.6,286.0 71.6,286.0 74.5,286.0 77.5,286.0 80.4,286.0 83.4,286.0 86.4,286.0 89.3,286.0 92.3,286.0 95.2,286.0 98.2,286.0 101.1,286.0 104.1,286.0 107.1,286.0 110.0,286.0 113.0,286.0 115.9,286.0 118.9,286.0 121.8,286.0 124.8,286.0 127.8,286.0 130.7,286.0 133.7,286.0 136.6,286.0 139.6,286.0 142.5,286.0 145.5,286.0 148.5,286.0 151.4,286.0 154.4,286.0 157.3,286.0 160.3,286.0 163.2,286.0 166.2,286.0 169.2,286.0 172.1,286.0 175.1,286.0 178.0,286.0 181.0,286.0 183.9,286.0 186.9,286.0 189.9,286.0 192.8,286.0 195.8,286.0 198.7,286.0 201.7,286.0 204.6,286.0 207.6,286.0 210.6,286.0 213.5,286.0 216.5,286.0 219.4,286.0 222.4,286.0 225.3,286.0 228.3,286.0 231.3,286.0 234.2,286.0 237.2,286.0 240.1,286.0 243.1,286.0 246.0,286.0 249.0,280.0 252.0,286.0 254.9,286.0 257.9,286.0 260.8,286.0 263.8,286.0 266.7,286.0 269.7,286.0 272.7,286.0 275.6,286.0 278.6,286.0 281.5,286.0 284.5,286.0 287.4,286.0 290.4,286.0 293.4,286.0 296.3,286.0 299.3,286.0 302.2,286.0 305.2,286.0 308.1,286.0 311.1,286.0 314.1,286.0 317.0,286.0 320.0,286.0 322.9,286.0 325.9,286.0 328.8,286.0 331.8,286.0 334.8,286.0 337.7,286.0 340.7,286.0 343.6,286.0 346.6,286.0 349.5,286.0 352.5,286.0 355.5,286.0 358.4,286.0 361.4,286.0 364.3,286.0 367.3,286.0 370.2,286.0 373.2,286.0 376.2,286.0 379.1,286.0 382.1,286.0 385.0,286.0 388.0,286.0 390.9,286.0 393.9,286.0 396.9,286.0 399.8,286.0 402.8,286.0 405.7,286.0 408.7,286.0 411.6,286.0 414.6,286.0 417.6,286.0 420.5,286.0 423.5,286.0 426.4,286.0 429.4,286.0 432.3,286.0 435.3,286.0 438.3,286.0 441.2,286.0 444.2,286.0 447.1,286.0 450.1,286.0 453.0,286.0 456.0,286.0 459.0,286.0 461.9,286.0 464.9,286.0 467.8,286.0 470.8,286.0 473.7,286.0 476.7,286.0 479.7,286.0 482.6,286.0 485.6,286.0 488.5,286.0 491.5,286.0 494.4,286.0 497.4,286.0 500.3,286.0 503.3,286.0 506.3,280.0 509.2,286.0 512.2,286.0 515.1,286.0 518.1,286.0 521.0,286.0 524.0,286.0 527.0,286.0 529.9,286.0 532.9,286.0 535.8,286.0 538.8,286.0 541.7,286.0 544.7,286.0 547.7,286.0 550.6,286.0 553.6,286.0 556.5,286.0 559.5,286.0 562.4,286.0 565.4,286.0 568.4,286.0 571.3,286.0 574.3,286.0 577.2,286.0 580.2,286.0 583.1,286.0 586.1,286.0 589.1,286.0 592.0,286.0 595.0,286.0 597.9,286.0 600.9,286.0 603.8,286.0 606.8,286.0 609.8,286.0 612.7,286.0 615.7,286.0 618.6,286.0 621.6,286.0 624.5,286.0 627.5,286.0 630.5,286.0 633.4,286.0 636.4,286.0 639.3,286.0 642.3,286.0 645.2,286.0 648.2,286.0 651.2,286.0 654.1,286.0 657.1,286.0 660.0,286.0 663.0,286.0 665.9,286.0 668.9,286.0 671.9,286.0 674.8,286.0 677.8,280.0 680.7,286.0 683.7,286.0 686.6,286.0 689.6,286.0 692.6,286.0 695.5,286.0 698.5,286.0 701.4,286.0 704.4,286.0 707.3,280.0 710.3,286.0 713.3,286.0 716.2,286.0 719.2,286.0 722.1,286.0 725.1,286.0 728.0,286.0 731.0,286.0 734.0,286.0 736.9,286.0 739.9,286.0 742.8,286.0 745.8,286.0 748.7,286.0 751.7,286.0 754.7,286.0 757.6,286.0 760.6,286.0 763.5,286.0 766.5,286.0 769.4,286.0 772.4,286.0 775.4,286.0 778.3,286.0 781.3,286.0 784.2,286.0 787.2,286.0 790.1,286.0 793.1,280.0 796.1,286.0 799.0,286.0 802.0,286.0 804.9,286.0 807.9,286.0 810.8,286.0 813.8,280.0 816.8,286.0 819.7,286.0 822.7,286.0 825.6,286.0 828.6,286.0 831.5,286.0 834.5,286.0 837.5,286.0 840.4,286.0 843.4,286.0 846.3,286.0 849.3,286.0 852.2,286.0 855.2,286.0 858.2,286.0 861.1,286.0 864.1,280.0 867.0,286.0 870.0,286.0 872.9,286.0 875.9,286.0 878.9,286.0 881.8,286.0 884.8,286.0 887.7,286.0 890.7,286.0 893.6,286.0 896.6,286.0 899.6,286.0 902.5,286.0 905.5,286.0 908.4,286.0 911.4,286.0 914.3,286.0 917.3,286.0 920.3,286.0 923.2,286.0 926.2,286.0 929.1,286.0 932.1,286.0 935.0,286.0 938.0,286.0"/><text x="42" y="308" font-size="11" fill="#9fb0d4">19/06 12:43</text><text x="938" y="308" text-anchor="end" font-size="11" fill="#9fb0d4">06/07 09:31</text></svg>