<svg xmlns="http://www.w3.org/2000/svg" viewBox="0 0 960 320" width="960" height="320" font-family="Segoe UI, system-ui, -apple-system, Roboto, Helvetica, Arial, sans-serif" role="img" aria-label="Availability history per region"><rect x="0.5" y="0.5" width="959" height="319" rx="14" fill="#ffffff" stroke="#dce3f1"/><text x="42" y="26" font-size="14" font-weight="600" fill="#14203a">History · 65 points</text><circle cx="47" cy="40" r="5" fill="#22c55e"/><text x="57" y="44" font-size="12" fill="#5a688a">Available</text><circle cx="139.8" cy="40" r="5" fill="#f59e0b"/><text x="149.8" y="44" font-size="12" fill="#5a688a">Saturated</text><circle cx="232.60000000000002" cy="40" r="5" fill="#ef4444"/><text x="242.60000000000002" y="44" font-size="12" fill="#5a688a">Error</text><circle cx="296.6" cy="40" r="5" fill="#a855f7"/><text x="306.6" y="44" font-size="12" fill="#5a688a">Timeout</text><line x1="42" y1="286.0" x2="938" y2="286.0" stroke="#eef2f7" stroke-width="1"/><text x="35" y="289.0" text-anchor="end" font-size="11" fill="#5a688a">0</text><line x1="42" y1="227.5" x2="938" y2="227.5" stroke="#eef2f7" stroke-width="1"/><text x="35" y="230.5" text-anchor="end" font-size="11" fill="#5a688a">10</text><line x1="42" y1="169.0" x2="938" y2="169.0" stroke="#eef2f7" stroke-width="1"/><text x="35" y="172.0" text-anchor="end" font-size="11" fill="#5a688a">19</text><line x1="42" y1="110.5" x2="938" y2="110.5" stroke="#eef2f7" stroke-width="1"/><text x="35" y="113.5" text-anchor="end" font-size="11" fill="#5a688a">28</text><line x1="42" y1="52.0" x2="938" y2="52.0" stroke="#eef2f7" stroke-width="1"/><text x="35" y="55.0" text-anchor="end" font-size="11" fill="#5a688a">38</text><polyline fill="none" stroke="#22c55e" stroke-width="2.5" stroke-linejoin="round" stroke-linecap="round" points="42.0,64.3 56.0,224.4 70.0,82.8 84.0,88.9 98.0,82.8 112.0,76.6 126.0,76.6 140.0,76.6 154.0,76.6 168.0,76.6 182.0,76.6 196.0,76.6 210.0,76.6 224.0,76.6 238.0,76.6 252.0,70.5 266.0,70.5 280.0,82.8 294.0,82.8 308.0,82.8 322.0,88.9 336.0,88.9 350.0,88.9 364.0,88.9 378.0,88.9 392.0,88.9 406.0,88.9 420.0,88.9 434.0,88.9 448.0,82.8 462.0,82.8 476.0,82.8 490.0,82.8 504.0,76.6 518.0,76.6 532.0,76.6 546.0,76.6 560.0,76.6 574.0,82.8 588.0,82.8 602.0,82.8 616.0,82.8 630.0,76.6 644.0,76.6 658.0,76.6 672.0,76.6 686.0,76.6 700.0,76.6 714.0,76.6 728.0,82.8 742.0,82.8 756.0,82.8 770.0,82.8 784.0,76.6 798.0,76.6 812.0,76.6 826.0,76.6 840.0,76.6 854.0,76.6 868.0,76.6 882.0,76.6 896.0,82.8 910.0,76.6 924.0,76.6 938.0,76.6"/><polyline fill="none" stroke="#f59e0b" stroke-width="2.5" stroke-linejoin="round" stroke-linecap="round" points="42.0,273.7 56.0,267.5 70.0,255.2 84.0,249.1 98.0,255.2 112.0,261.4 126.0,261.4 140.0,261.4 154.0,261.4 168.0,261.4 182.0,261.4 196.0,261.4 210.0,261.4 224.0,261.4 238.0,261.4 252.0,267.5 266.0,267.5 280.0,261.4 294.0,255.2 308.0,255.2 322.0,249.1 336.0,249.1 350.0,249.1 364.0,249.1 378.0,249.1 392.0,249.1 406.0,249.1 420.0,249.1 434.0,249.1 448.0,255.2 462.0,255.2 476.0,255.2 490.0,255.2 504.0,261.4 518.0,261.4 532.0,261.4 546.0,261.4 560.0,261.4 574.0,255.2 588.0,255.2 602.0,255.2 616.0,255.2 630.0,261.4 644.0,261.4 658.0,261.4 672.0,261.4 686.0,261.4 700.0,261.4 714.0,261.4 728.0,255.2 742.0,255.2 756.0,255.2 770.0,261.4 784.0,261.4 798.0,261.4 812.0,261.4 826.0,261.4 840.0,261.4 854.0,261.4 868.0,261.4 882.0,261.4 896.0,255.2 910.0,261.4 924.0,261.4 938.0,261.4"/><polyline fill="none" stroke="#ef4444" stroke-width="2.5" stroke-linejoin="round" stroke-linecap="round" points="42.0,286.0 56.0,132.1 70.0,286.0 84.0,286.0 98.0,286.0 112.0,286.0 126.0,286.0 140.0,286.0 154.0,286.0 168.0,286.0 182.0,286.0 196.0,286.0 210.0,286.0 224.0,286.0 238.0,286.0 252.0,286.0 266.0,286.0 280.0,279.8 294.0,286.0 308.0,286.0 322.0,286.0 336.0,286.0 350.0,286.0 364.0,286.0 378.0,286.0 392.0,286.0 406.0,286.0 420.0,286.0 434.0,286.0 448.0,286.0 462.0,286.0 476.0,286.0 490.0,286.0 504.0,286.0 518.0,286.0 532.0,286.0 546.0,286.0 560.0,286.0 574.0,286.0 588.0,286.0 602.0,286.0 616.0,286.0 630.0,286.0 644.0,286.0 658.0,286.0 672.0,286.0 686.0,286.0 700.0,286.0 714.0,286.0 728.0,286.0 742.0,286.0 756.0,286.0 770.0,286.0 784.0,286.0 798.0,286.0 812.0,286.0 826.0,286.0 840.0,286.0 854.0,286.0 868.0,286.0 882.0,286.0 896.0,286.0 910.0,286.0 924.0,286.0 938.0,286.0"/><polyline fill="none" stroke="#a855f7" stroke-width="2.5" stroke-linejoin="round" stroke-linecap="round" points="42.0,286.0 56.0,286.0 70.0,286.0 84.0,286.0 98.0,286.0 112.0,286.0 126.0,286.0 140.0,286.0 154.0,286.0 168.0,286.0 182.0,286.0 196.0,286.0 210.0,286.0 224.0,286.0 238.0,286.0 252.0,286.0 266.0,286.0 280.0,286.0 294.0,286.0 308.0,286.0 322.0,286.0 336.0,286.0 350.0,286.0 364.0,286.0 378.0,286.0 392.0,286.0 406.0,286.0 420.0,286.0 434.0,286.0 448.0,286.0 462.0,286.0 476.0,286.0 490.0,286.0 504.0,286.0 518.0,286.0 532.0,286.0 546.0,286.0 560.0,286.0 574.0,286.0 588.0,286.0 602.0,286.0 616.0,286.0 630.0,286.0 644.0,286.0 658.0,286.0 672.0,286.0 686.0,286.0 700.0,286.0 714.0,286.0 728.0,286.0 742.0,286.0 756.0,286.0 770.0,279.8 784.0,286.0 798.0,286.0 812.0,286.0 826.0,286.0 840.0,286.0 854.0,286.0 868.0,286.0 882.0,286.0 896.0,286.0 910.0,286.0 924.0,286.0 938.0,286.0"/><text x="42" y="308" font-size="11" fill="#5a688a">19/06 15:39</text><text x="938" y="308" text-anchor="end" font-size="11" fill="#5a688a">19/07 06:34</text></svg>