<svg xmlns="http://www.w3.org/2000/svg" viewBox="0 0 960 320" width="960" height="320" font-family="Segoe UI, system-ui, -apple-system, Roboto, Helvetica, Arial, sans-serif" role="img" aria-label="Availability history per region"><rect x="0.5" y="0.5" width="959" height="319" rx="14" fill="#0d1117" stroke="#2c3a5e"/><text x="42" y="26" font-size="14" font-weight="600" fill="#e6ecff">History · 105 points</text><circle cx="47" cy="40" r="5" fill="#22c55e"/><text x="57" y="44" font-size="12" fill="#9fb0d4">Available</text><circle cx="139.8" cy="40" r="5" fill="#f59e0b"/><text x="149.8" y="44" font-size="12" fill="#9fb0d4">Saturated</text><circle cx="232.60000000000002" cy="40" r="5" fill="#ef4444"/><text x="242.60000000000002" y="44" font-size="12" fill="#9fb0d4">Error</text><circle cx="296.6" cy="40" r="5" fill="#a855f7"/><text x="306.6" y="44" font-size="12" fill="#9fb0d4">Timeout</text><line x1="42" y1="286.0" x2="938" y2="286.0" stroke="#21304f" stroke-width="1"/><text x="35" y="289.0" text-anchor="end" font-size="11" fill="#9fb0d4">0</text><line x1="42" y1="227.5" x2="938" y2="227.5" stroke="#21304f" stroke-width="1"/><text x="35" y="230.5" text-anchor="end" font-size="11" fill="#9fb0d4">10</text><line x1="42" y1="169.0" x2="938" y2="169.0" stroke="#21304f" stroke-width="1"/><text x="35" y="172.0" text-anchor="end" font-size="11" fill="#9fb0d4">19</text><line x1="42" y1="110.5" x2="938" y2="110.5" stroke="#21304f" stroke-width="1"/><text x="35" y="113.5" text-anchor="end" font-size="11" fill="#9fb0d4">28</text><line x1="42" y1="52.0" x2="938" y2="52.0" stroke="#21304f" stroke-width="1"/><text x="35" y="55.0" text-anchor="end" font-size="11" fill="#9fb0d4">38</text><polyline fill="none" stroke="#22c55e" stroke-width="2.5" stroke-linejoin="round" stroke-linecap="round" points="42.0,64.3 50.6,224.4 59.2,82.8 67.8,88.9 76.5,82.8 85.1,76.6 93.7,76.6 102.3,76.6 110.9,76.6 119.5,76.6 128.2,76.6 136.8,76.6 145.4,76.6 154.0,76.6 162.6,76.6 171.2,70.5 179.8,70.5 188.5,82.8 197.1,82.8 205.7,82.8 214.3,88.9 222.9,88.9 231.5,88.9 240.2,88.9 248.8,88.9 257.4,88.9 266.0,88.9 274.6,88.9 283.2,88.9 291.8,82.8 300.5,82.8 309.1,82.8 317.7,82.8 326.3,76.6 334.9,76.6 343.5,76.6 352.2,76.6 360.8,76.6 369.4,82.8 378.0,82.8 386.6,82.8 395.2,82.8 403.8,76.6 412.5,76.6 421.1,76.6 429.7,76.6 438.3,76.6 446.9,76.6 455.5,76.6 464.2,82.8 472.8,82.8 481.4,82.8 490.0,82.8 498.6,76.6 507.2,76.6 515.8,76.6 524.5,76.6 533.1,76.6 541.7,76.6 550.3,76.6 558.9,76.6 567.5,82.8 576.2,76.6 584.8,76.6 593.4,76.6 602.0,76.6 610.6,76.6 619.2,82.8 627.8,76.6 636.5,76.6 645.1,76.6 653.7,76.6 662.3,76.6 670.9,76.6 679.5,76.6 688.2,76.6 696.8,76.6 705.4,70.5 714.0,70.5 722.6,70.5 731.2,70.5 739.8,76.6 748.5,70.5 757.1,76.6 765.7,76.6 774.3,76.6 782.9,76.6 791.5,76.6 800.2,76.6 808.8,82.8 817.4,88.9 826.0,88.9 834.6,88.9 843.2,88.9 851.8,88.9 860.5,88.9 869.1,88.9 877.7,95.1 886.3,88.9 894.9,88.9 903.5,88.9 912.2,88.9 920.8,88.9 929.4,88.9 938.0,82.8"/><polyline fill="none" stroke="#f59e0b" stroke-width="2.5" stroke-linejoin="round" stroke-linecap="round" points="42.0,273.7 50.6,267.5 59.2,255.2 67.8,249.1 76.5,255.2 85.1,261.4 93.7,261.4 102.3,261.4 110.9,261.4 119.5,261.4 128.2,261.4 136.8,261.4 145.4,261.4 154.0,261.4 162.6,261.4 171.2,267.5 179.8,267.5 188.5,261.4 197.1,255.2 205.7,255.2 214.3,249.1 222.9,249.1 231.5,249.1 240.2,249.1 248.8,249.1 257.4,249.1 266.0,249.1 274.6,249.1 283.2,249.1 291.8,255.2 300.5,255.2 309.1,255.2 317.7,255.2 326.3,261.4 334.9,261.4 343.5,261.4 352.2,261.4 360.8,261.4 369.4,255.2 378.0,255.2 386.6,255.2 395.2,255.2 403.8,261.4 412.5,261.4 421.1,261.4 429.7,261.4 438.3,261.4 446.9,261.4 455.5,261.4 464.2,255.2 472.8,255.2 481.4,255.2 490.0,261.4 498.6,261.4 507.2,261.4 515.8,261.4 524.5,261.4 533.1,261.4 541.7,261.4 550.3,261.4 558.9,261.4 567.5,255.2 576.2,261.4 584.8,261.4 593.4,261.4 602.0,261.4 610.6,261.4 619.2,261.4 627.8,261.4 636.5,261.4 645.1,261.4 653.7,261.4 662.3,261.4 670.9,261.4 679.5,261.4 688.2,261.4 696.8,261.4 705.4,267.5 714.0,267.5 722.6,267.5 731.2,267.5 739.8,267.5 748.5,267.5 757.1,261.4 765.7,261.4 774.3,261.4 782.9,261.4 791.5,261.4 800.2,261.4 808.8,255.2 817.4,249.1 826.0,249.1 834.6,255.2 843.2,249.1 851.8,249.1 860.5,249.1 869.1,249.1 877.7,249.1 886.3,249.1 894.9,255.2 903.5,249.1 912.2,249.1 920.8,249.1 929.4,249.1 938.0,255.2"/><polyline fill="none" stroke="#ef4444" stroke-width="2.5" stroke-linejoin="round" stroke-linecap="round" points="42.0,286.0 50.6,132.1 59.2,286.0 67.8,286.0 76.5,286.0 85.1,286.0 93.7,286.0 102.3,286.0 110.9,286.0 119.5,286.0 128.2,286.0 136.8,286.0 145.4,286.0 154.0,286.0 162.6,286.0 171.2,286.0 179.8,286.0 188.5,279.8 197.1,286.0 205.7,286.0 214.3,286.0 222.9,286.0 231.5,286.0 240.2,286.0 248.8,286.0 257.4,286.0 266.0,286.0 274.6,286.0 283.2,286.0 291.8,286.0 300.5,286.0 309.1,286.0 317.7,286.0 326.3,286.0 334.9,286.0 343.5,286.0 352.2,286.0 360.8,286.0 369.4,286.0 378.0,286.0 386.6,286.0 395.2,286.0 403.8,286.0 412.5,286.0 421.1,286.0 429.7,286.0 438.3,286.0 446.9,286.0 455.5,286.0 464.2,286.0 472.8,286.0 481.4,286.0 490.0,286.0 498.6,286.0 507.2,286.0 515.8,286.0 524.5,286.0 533.1,286.0 541.7,286.0 550.3,286.0 558.9,286.0 567.5,286.0 576.2,286.0 584.8,286.0 593.4,286.0 602.0,286.0 610.6,286.0 619.2,279.8 627.8,286.0 636.5,286.0 645.1,286.0 653.7,286.0 662.3,286.0 670.9,286.0 679.5,286.0 688.2,286.0 696.8,286.0 705.4,286.0 714.0,286.0 722.6,286.0 731.2,286.0 739.8,279.8 748.5,286.0 757.1,286.0 765.7,286.0 774.3,286.0 782.9,286.0 791.5,286.0 800.2,286.0 808.8,286.0 817.4,286.0 826.0,286.0 834.6,279.8 843.2,286.0 851.8,286.0 860.5,286.0 869.1,286.0 877.7,279.8 886.3,286.0 894.9,286.0 903.5,286.0 912.2,286.0 920.8,286.0 929.4,286.0 938.0,286.0"/><polyline fill="none" stroke="#a855f7" stroke-width="2.5" stroke-linejoin="round" stroke-linecap="round" points="42.0,286.0 50.6,286.0 59.2,286.0 67.8,286.0 76.5,286.0 85.1,286.0 93.7,286.0 102.3,286.0 110.9,286.0 119.5,286.0 128.2,286.0 136.8,286.0 145.4,286.0 154.0,286.0 162.6,286.0 171.2,286.0 179.8,286.0 188.5,286.0 197.1,286.0 205.7,286.0 214.3,286.0 222.9,286.0 231.5,286.0 240.2,286.0 248.8,286.0 257.4,286.0 266.0,286.0 274.6,286.0 283.2,286.0 291.8,286.0 300.5,286.0 309.1,286.0 317.7,286.0 326.3,286.0 334.9,286.0 343.5,286.0 352.2,286.0 360.8,286.0 369.4,286.0 378.0,286.0 386.6,286.0 395.2,286.0 403.8,286.0 412.5,286.0 421.1,286.0 429.7,286.0 438.3,286.0 446.9,286.0 455.5,286.0 464.2,286.0 472.8,286.0 481.4,286.0 490.0,279.8 498.6,286.0 507.2,286.0 515.8,286.0 524.5,286.0 533.1,286.0 541.7,286.0 550.3,286.0 558.9,286.0 567.5,286.0 576.2,286.0 584.8,286.0 593.4,286.0 602.0,286.0 610.6,286.0 619.2,286.0 627.8,286.0 636.5,286.0 645.1,286.0 653.7,286.0 662.3,286.0 670.9,286.0 679.5,286.0 688.2,286.0 696.8,286.0 705.4,286.0 714.0,286.0 722.6,286.0 731.2,286.0 739.8,286.0 748.5,286.0 757.1,286.0 765.7,286.0 774.3,286.0 782.9,286.0 791.5,286.0 800.2,286.0 808.8,286.0 817.4,286.0 826.0,286.0 834.6,286.0 843.2,286.0 851.8,286.0 860.5,286.0 869.1,286.0 877.7,286.0 886.3,286.0 894.9,279.8 903.5,286.0 912.2,286.0 920.8,286.0 929.4,286.0 938.0,286.0"/><text x="42" y="308" font-size="11" fill="#9fb0d4">19/06 15:39</text><text x="938" y="308" text-anchor="end" font-size="11" fill="#9fb0d4">20/07 23:40</text></svg>