<svg xmlns="http://www.w3.org/2000/svg" viewBox="0 0 960 320" width="960" height="320" font-family="Segoe UI, system-ui, -apple-system, Roboto, Helvetica, Arial, sans-serif" role="img" aria-label="Availability history per region"><rect x="0.5" y="0.5" width="959" height="319" rx="14" fill="#ffffff" stroke="#dce3f1"/><text x="42" y="26" font-size="14" font-weight="600" fill="#14203a">History · 297 points</text><circle cx="47" cy="40" r="5" fill="#22c55e"/><text x="57" y="44" font-size="12" fill="#5a688a">Available</text><circle cx="139.8" cy="40" r="5" fill="#f59e0b"/><text x="149.8" y="44" font-size="12" fill="#5a688a">Saturated</text><circle cx="232.60000000000002" cy="40" r="5" fill="#ef4444"/><text x="242.60000000000002" y="44" font-size="12" fill="#5a688a">Error</text><circle cx="296.6" cy="40" r="5" fill="#a855f7"/><text x="306.6" y="44" font-size="12" fill="#5a688a">Timeout</text><line x1="42" y1="286.0" x2="938" y2="286.0" stroke="#eef2f7" stroke-width="1"/><text x="35" y="289.0" text-anchor="end" font-size="11" fill="#5a688a">0</text><line x1="42" y1="227.5" x2="938" y2="227.5" stroke="#eef2f7" stroke-width="1"/><text x="35" y="230.5" text-anchor="end" font-size="11" fill="#5a688a">10</text><line x1="42" y1="169.0" x2="938" y2="169.0" stroke="#eef2f7" stroke-width="1"/><text x="35" y="172.0" text-anchor="end" font-size="11" fill="#5a688a">20</text><line x1="42" y1="110.5" x2="938" y2="110.5" stroke="#eef2f7" stroke-width="1"/><text x="35" y="113.5" text-anchor="end" font-size="11" fill="#5a688a">29</text><line x1="42" y1="52.0" x2="938" y2="52.0" stroke="#eef2f7" stroke-width="1"/><text x="35" y="55.0" text-anchor="end" font-size="11" fill="#5a688a">39</text><polyline fill="none" stroke="#22c55e" stroke-width="2.5" stroke-linejoin="round" stroke-linecap="round" points="42.0,70.0 45.0,70.0 48.1,88.0 51.1,88.0 54.1,76.0 57.1,76.0 60.2,76.0 63.2,70.0 66.2,76.0 69.2,70.0 72.3,64.0 75.3,58.0 78.3,58.0 81.4,58.0 84.4,58.0 87.4,58.0 90.4,58.0 93.5,58.0 96.5,58.0 99.5,58.0 102.5,58.0 105.6,58.0 108.6,58.0 111.6,58.0 114.6,58.0 117.7,58.0 120.7,58.0 123.7,58.0 126.8,58.0 129.8,58.0 132.8,58.0 135.8,70.0 138.9,76.0 141.9,94.0 144.9,64.0 147.9,64.0 151.0,58.0 154.0,58.0 157.0,58.0 160.1,70.0 163.1,76.0 166.1,76.0 169.1,82.0 172.2,82.0 175.2,82.0 178.2,82.0 181.2,76.0 184.3,64.0 187.3,70.0 190.3,70.0 193.4,82.0 196.4,76.0 199.4,76.0 202.4,82.0 205.5,76.0 208.5,76.0 211.5,76.0 214.5,64.0 217.6,64.0 220.6,76.0 223.6,76.0 226.6,76.0 229.7,88.0 232.7,70.0 235.7,64.0 238.8,58.0 241.8,58.0 244.8,70.0 247.8,70.0 250.9,70.0 253.9,76.0 256.9,70.0 259.9,70.0 263.0,70.0 266.0,70.0 269.0,76.0 272.1,82.0 275.1,76.0 278.1,70.0 281.1,70.0 284.2,70.0 287.2,70.0 290.2,76.0 293.2,70.0 296.3,70.0 299.3,70.0 302.3,70.0 305.4,70.0 308.4,70.0 311.4,70.0 314.4,70.0 317.5,70.0 320.5,70.0 323.5,70.0 326.5,70.0 329.6,70.0 332.6,70.0 335.6,70.0 338.6,70.0 341.7,70.0 344.7,70.0 347.7,70.0 350.8,70.0 353.8,70.0 356.8,70.0 359.8,70.0 362.9,70.0 365.9,70.0 368.9,70.0 371.9,70.0 375.0,70.0 378.0,70.0 381.0,70.0 384.1,70.0 387.1,70.0 390.1,70.0 393.1,70.0 396.2,70.0 399.2,70.0 402.2,70.0 405.2,70.0 408.3,70.0 411.3,70.0 414.3,70.0 417.4,70.0 420.4,70.0 423.4,70.0 426.4,70.0 429.5,70.0 432.5,70.0 435.5,70.0 438.5,70.0 441.6,70.0 444.6,70.0 447.6,70.0 450.6,70.0 453.7,70.0 456.7,70.0 459.7,70.0 462.8,70.0 465.8,70.0 468.8,70.0 471.8,70.0 474.9,70.0 477.9,70.0 480.9,70.0 483.9,70.0 487.0,70.0 490.0,70.0 493.0,70.0 496.1,70.0 499.1,76.0 502.1,70.0 505.1,70.0 508.2,70.0 511.2,70.0 514.2,70.0 517.2,76.0 520.3,76.0 523.3,88.0 526.3,88.0 529.4,88.0 532.4,94.0 535.4,94.0 538.4,94.0 541.5,94.0 544.5,88.0 547.5,88.0 550.5,82.0 553.6,82.0 556.6,82.0 559.6,88.0 562.6,88.0 565.7,94.0 568.7,82.0 571.7,82.0 574.8,82.0 577.8,82.0 580.8,88.0 583.8,88.0 586.9,94.0 589.9,94.0 592.9,88.0 595.9,88.0 599.0,88.0 602.0,94.0 605.0,94.0 608.1,106.0 611.1,94.0 614.1,94.0 617.1,94.0 620.2,94.0 623.2,88.0 626.2,88.0 629.2,82.0 632.3,76.0 635.3,76.0 638.3,76.0 641.4,76.0 644.4,76.0 647.4,76.0 650.4,70.0 653.5,70.0 656.5,70.0 659.5,76.0 662.5,88.0 665.6,82.0 668.6,70.0 671.6,70.0 674.6,70.0 677.7,76.0 680.7,76.0 683.7,76.0 686.8,82.0 689.8,70.0 692.8,76.0 695.8,64.0 698.9,70.0 701.9,58.0 704.9,58.0 707.9,58.0 711.0,58.0 714.0,58.0 717.0,64.0 720.1,58.0 723.1,64.0 726.1,58.0 729.1,58.0 732.2,58.0 735.2,58.0 738.2,64.0 741.2,64.0 744.3,64.0 747.3,76.0 750.3,70.0 753.4,82.0 756.4,70.0 759.4,76.0 762.4,58.0 765.5,64.0 768.5,58.0 771.5,64.0 774.5,58.0 777.6,58.0 780.6,58.0 783.6,64.0 786.6,70.0 789.7,64.0 792.7,64.0 795.7,64.0 798.8,70.0 801.8,70.0 804.8,64.0 807.8,70.0 810.9,70.0 813.9,70.0 816.9,58.0 819.9,58.0 823.0,58.0 826.0,58.0 829.0,58.0 832.1,64.0 835.1,58.0 838.1,58.0 841.1,58.0 844.2,58.0 847.2,58.0 850.2,58.0 853.2,58.0 856.3,58.0 859.3,64.0 862.3,58.0 865.4,58.0 868.4,58.0 871.4,58.0 874.4,58.0 877.5,58.0 880.5,58.0 883.5,64.0 886.5,58.0 889.6,58.0 892.6,58.0 895.6,58.0 898.6,58.0 901.7,58.0 904.7,58.0 907.7,58.0 910.8,58.0 913.8,58.0 916.8,58.0 919.8,58.0 922.9,58.0 925.9,58.0 928.9,58.0 931.9,58.0 935.0,58.0 938.0,58.0"/><polyline fill="none" stroke="#f59e0b" stroke-width="2.5" stroke-linejoin="round" stroke-linecap="round" points="42.0,274.0 45.0,274.0 48.1,274.0 51.1,280.0 54.1,268.0 57.1,268.0 60.2,268.0 63.2,274.0 66.2,274.0 69.2,274.0 72.3,280.0 75.3,286.0 78.3,286.0 81.4,286.0 84.4,286.0 87.4,286.0 90.4,286.0 93.5,286.0 96.5,286.0 99.5,286.0 102.5,286.0 105.6,286.0 108.6,286.0 111.6,286.0 114.6,286.0 117.7,286.0 120.7,286.0 123.7,286.0 126.8,286.0 129.8,286.0 132.8,286.0 135.8,274.0 138.9,280.0 141.9,280.0 144.9,280.0 147.9,280.0 151.0,286.0 154.0,286.0 157.0,286.0 160.1,274.0 163.1,268.0 166.1,268.0 169.1,262.0 172.2,262.0 175.2,262.0 178.2,262.0 181.2,268.0 184.3,280.0 187.3,280.0 190.3,274.0 193.4,262.0 196.4,268.0 199.4,268.0 202.4,262.0 205.5,268.0 208.5,268.0 211.5,268.0 214.5,280.0 217.6,280.0 220.6,268.0 223.6,268.0 226.6,268.0 229.7,262.0 232.7,274.0 235.7,280.0 238.8,286.0 241.8,286.0 244.8,274.0 247.8,274.0 250.9,274.0 253.9,274.0 256.9,274.0 259.9,274.0 263.0,274.0 266.0,274.0 269.0,280.0 272.1,274.0 275.1,280.0 278.1,286.0 281.1,286.0 284.2,286.0 287.2,286.0 290.2,280.0 293.2,286.0 296.3,286.0 299.3,286.0 302.3,286.0 305.4,286.0 308.4,286.0 311.4,286.0 314.4,286.0 317.5,286.0 320.5,286.0 323.5,286.0 326.5,286.0 329.6,286.0 332.6,286.0 335.6,286.0 338.6,286.0 341.7,286.0 344.7,286.0 347.7,286.0 350.8,286.0 353.8,286.0 356.8,286.0 359.8,286.0 362.9,286.0 365.9,286.0 368.9,286.0 371.9,286.0 375.0,286.0 378.0,286.0 381.0,286.0 384.1,286.0 387.1,286.0 390.1,286.0 393.1,286.0 396.2,286.0 399.2,286.0 402.2,286.0 405.2,286.0 408.3,286.0 411.3,286.0 414.3,286.0 417.4,286.0 420.4,286.0 423.4,286.0 426.4,286.0 429.5,286.0 432.5,286.0 435.5,286.0 438.5,286.0 441.6,286.0 444.6,286.0 447.6,286.0 450.6,286.0 453.7,286.0 456.7,286.0 459.7,286.0 462.8,286.0 465.8,286.0 468.8,286.0 471.8,286.0 474.9,286.0 477.9,286.0 480.9,286.0 483.9,286.0 487.0,286.0 490.0,286.0 493.0,286.0 496.1,286.0 499.1,286.0 502.1,286.0 505.1,286.0 508.2,286.0 511.2,286.0 514.2,286.0 517.2,286.0 520.3,280.0 523.3,268.0 526.3,268.0 529.4,268.0 532.4,268.0 535.4,262.0 538.4,262.0 541.5,262.0 544.5,268.0 547.5,268.0 550.5,274.0 553.6,274.0 556.6,274.0 559.6,268.0 562.6,268.0 565.7,268.0 568.7,274.0 571.7,274.0 574.8,274.0 577.8,274.0 580.8,268.0 583.8,268.0 586.9,262.0 589.9,262.0 592.9,268.0 595.9,268.0 599.0,268.0 602.0,262.0 605.0,262.0 608.1,274.0 611.1,262.0 614.1,262.0 617.1,262.0 620.2,262.0 623.2,268.0 626.2,268.0 629.2,274.0 632.3,280.0 635.3,280.0 638.3,280.0 641.4,280.0 644.4,280.0 647.4,280.0 650.4,286.0 653.5,286.0 656.5,286.0 659.5,280.0 662.5,274.0 665.6,274.0 668.6,280.0 671.6,274.0 674.6,274.0 677.7,268.0 680.7,268.0 683.7,268.0 686.8,268.0 689.8,280.0 692.8,274.0 695.8,280.0 698.9,280.0 701.9,286.0 704.9,286.0 707.9,286.0 711.0,286.0 714.0,286.0 717.0,286.0 720.1,286.0 723.1,286.0 726.1,286.0 729.1,286.0 732.2,286.0 735.2,286.0 738.2,280.0 741.2,280.0 744.3,280.0 747.3,268.0 750.3,280.0 753.4,268.0 756.4,274.0 759.4,274.0 762.4,286.0 765.5,280.0 768.5,286.0 771.5,280.0 774.5,286.0 777.6,286.0 780.6,286.0 783.6,280.0 786.6,274.0 789.7,280.0 792.7,280.0 795.7,280.0 798.8,274.0 801.8,274.0 804.8,280.0 807.8,280.0 810.9,280.0 813.9,280.0 816.9,286.0 819.9,286.0 823.0,286.0 826.0,286.0 829.0,286.0 832.1,286.0 835.1,286.0 838.1,286.0 841.1,286.0 844.2,286.0 847.2,286.0 850.2,286.0 853.2,286.0 856.3,286.0 859.3,286.0 862.3,286.0 865.4,286.0 868.4,286.0 871.4,286.0 874.4,286.0 877.5,286.0 880.5,286.0 883.5,286.0 886.5,286.0 889.6,286.0 892.6,286.0 895.6,286.0 898.6,286.0 901.7,286.0 904.7,286.0 907.7,286.0 910.8,286.0 913.8,286.0 916.8,286.0 919.8,286.0 922.9,286.0 925.9,286.0 928.9,286.0 931.9,286.0 935.0,286.0 938.0,286.0"/><polyline fill="none" stroke="#ef4444" stroke-width="2.5" stroke-linejoin="round" stroke-linecap="round" points="42.0,280.0 45.0,280.0 48.1,268.0 51.1,262.0 54.1,286.0 57.1,286.0 60.2,286.0 63.2,286.0 66.2,280.0 69.2,286.0 72.3,286.0 75.3,286.0 78.3,286.0 81.4,286.0 84.4,286.0 87.4,286.0 90.4,286.0 93.5,286.0 96.5,286.0 99.5,286.0 102.5,286.0 105.6,286.0 108.6,286.0 111.6,286.0 114.6,286.0 117.7,286.0 120.7,286.0 123.7,286.0 126.8,286.0 129.8,286.0 132.8,286.0 135.8,286.0 138.9,274.0 141.9,256.0 144.9,286.0 147.9,286.0 151.0,286.0 154.0,286.0 157.0,286.0 160.1,286.0 163.1,286.0 166.1,286.0 169.1,286.0 172.2,286.0 175.2,286.0 178.2,286.0 181.2,286.0 184.3,286.0 187.3,280.0 190.3,286.0 193.4,286.0 196.4,286.0 199.4,286.0 202.4,286.0 205.5,286.0 208.5,286.0 211.5,286.0 214.5,286.0 217.6,286.0 220.6,286.0 223.6,286.0 226.6,286.0 229.7,280.0 232.7,286.0 235.7,286.0 238.8,286.0 241.8,286.0 244.8,286.0 247.8,286.0 250.9,286.0 253.9,286.0 256.9,286.0 259.9,286.0 263.0,286.0 266.0,286.0 269.0,274.0 272.1,274.0 275.1,274.0 278.1,274.0 281.1,274.0 284.2,274.0 287.2,274.0 290.2,274.0 293.2,274.0 296.3,274.0 299.3,274.0 302.3,274.0 305.4,274.0 308.4,274.0 311.4,274.0 314.4,274.0 317.5,274.0 320.5,274.0 323.5,274.0 326.5,274.0 329.6,274.0 332.6,274.0 335.6,274.0 338.6,274.0 341.7,274.0 344.7,274.0 347.7,274.0 350.8,274.0 353.8,274.0 356.8,274.0 359.8,274.0 362.9,274.0 365.9,274.0 368.9,274.0 371.9,274.0 375.0,274.0 378.0,274.0 381.0,274.0 384.1,274.0 387.1,274.0 390.1,274.0 393.1,274.0 396.2,274.0 399.2,274.0 402.2,274.0 405.2,274.0 408.3,274.0 411.3,274.0 414.3,274.0 417.4,274.0 420.4,274.0 423.4,274.0 426.4,274.0 429.5,274.0 432.5,274.0 435.5,274.0 438.5,274.0 441.6,274.0 444.6,274.0 447.6,274.0 450.6,274.0 453.7,274.0 456.7,274.0 459.7,274.0 462.8,274.0 465.8,274.0 468.8,274.0 471.8,274.0 474.9,274.0 477.9,274.0 480.9,274.0 483.9,274.0 487.0,274.0 490.0,274.0 493.0,274.0 496.1,274.0 499.1,268.0 502.1,274.0 505.1,274.0 508.2,274.0 511.2,274.0 514.2,274.0 517.2,274.0 520.3,274.0 523.3,274.0 526.3,274.0 529.4,274.0 532.4,268.0 535.4,274.0 538.4,274.0 541.5,274.0 544.5,274.0 547.5,274.0 550.5,274.0 553.6,274.0 556.6,274.0 559.6,274.0 562.6,274.0 565.7,268.0 568.7,274.0 571.7,274.0 574.8,274.0 577.8,274.0 580.8,274.0 583.8,274.0 586.9,274.0 589.9,274.0 592.9,274.0 595.9,274.0 599.0,274.0 602.0,274.0 605.0,274.0 608.1,250.0 611.1,274.0 614.1,274.0 617.1,274.0 620.2,274.0 623.2,274.0 626.2,274.0 629.2,274.0 632.3,274.0 635.3,274.0 638.3,274.0 641.4,274.0 644.4,274.0 647.4,274.0 650.4,274.0 653.5,274.0 656.5,274.0 659.5,274.0 662.5,268.0 665.6,274.0 668.6,280.0 671.6,286.0 674.6,286.0 677.7,286.0 680.7,286.0 683.7,286.0 686.8,280.0 689.8,280.0 692.8,286.0 695.8,286.0 698.9,280.0 701.9,286.0 704.9,286.0 707.9,286.0 711.0,286.0 714.0,286.0 717.0,280.0 720.1,286.0 723.1,286.0 726.1,286.0 729.1,286.0 732.2,286.0 735.2,286.0 738.2,286.0 741.2,286.0 744.3,286.0 747.3,286.0 750.3,280.0 753.4,280.0 756.4,286.0 759.4,280.0 762.4,286.0 765.5,286.0 768.5,286.0 771.5,286.0 774.5,286.0 777.6,286.0 780.6,286.0 783.6,286.0 786.6,286.0 789.7,286.0 792.7,286.0 795.7,286.0 798.8,286.0 801.8,286.0 804.8,286.0 807.8,280.0 810.9,286.0 813.9,280.0 816.9,286.0 819.9,286.0 823.0,286.0 826.0,286.0 829.0,286.0 832.1,286.0 835.1,286.0 838.1,286.0 841.1,286.0 844.2,286.0 847.2,286.0 850.2,286.0 853.2,286.0 856.3,286.0 859.3,280.0 862.3,286.0 865.4,286.0 868.4,286.0 871.4,286.0 874.4,286.0 877.5,286.0 880.5,286.0 883.5,286.0 886.5,286.0 889.6,286.0 892.6,286.0 895.6,286.0 898.6,286.0 901.7,286.0 904.7,286.0 907.7,286.0 910.8,286.0 913.8,286.0 916.8,286.0 919.8,286.0 922.9,286.0 925.9,286.0 928.9,286.0 931.9,286.0 935.0,286.0 938.0,286.0"/><polyline fill="none" stroke="#a855f7" stroke-width="2.5" stroke-linejoin="round" stroke-linecap="round" points="42.0,286.0 45.0,286.0 48.1,286.0 51.1,286.0 54.1,286.0 57.1,286.0 60.2,286.0 63.2,286.0 66.2,286.0 69.2,286.0 72.3,286.0 75.3,286.0 78.3,286.0 81.4,286.0 84.4,286.0 87.4,286.0 90.4,286.0 93.5,286.0 96.5,286.0 99.5,286.0 102.5,286.0 105.6,286.0 108.6,286.0 111.6,286.0 114.6,286.0 117.7,286.0 120.7,286.0 123.7,286.0 126.8,286.0 129.8,286.0 132.8,286.0 135.8,286.0 138.9,286.0 141.9,286.0 144.9,286.0 147.9,286.0 151.0,286.0 154.0,286.0 157.0,286.0 160.1,286.0 163.1,286.0 166.1,286.0 169.1,286.0 172.2,286.0 175.2,286.0 178.2,286.0 181.2,286.0 184.3,286.0 187.3,286.0 190.3,286.0 193.4,286.0 196.4,286.0 199.4,286.0 202.4,286.0 205.5,286.0 208.5,286.0 211.5,286.0 214.5,286.0 217.6,286.0 220.6,286.0 223.6,286.0 226.6,286.0 229.7,286.0 232.7,286.0 235.7,286.0 238.8,286.0 241.8,286.0 244.8,286.0 247.8,286.0 250.9,286.0 253.9,280.0 256.9,286.0 259.9,286.0 263.0,286.0 266.0,286.0 269.0,286.0 272.1,286.0 275.1,286.0 278.1,286.0 281.1,286.0 284.2,286.0 287.2,286.0 290.2,286.0 293.2,286.0 296.3,286.0 299.3,286.0 302.3,286.0 305.4,286.0 308.4,286.0 311.4,286.0 314.4,286.0 317.5,286.0 320.5,286.0 323.5,286.0 326.5,286.0 329.6,286.0 332.6,286.0 335.6,286.0 338.6,286.0 341.7,286.0 344.7,286.0 347.7,286.0 350.8,286.0 353.8,286.0 356.8,286.0 359.8,286.0 362.9,286.0 365.9,286.0 368.9,286.0 371.9,286.0 375.0,286.0 378.0,286.0 381.0,286.0 384.1,286.0 387.1,286.0 390.1,286.0 393.1,286.0 396.2,286.0 399.2,286.0 402.2,286.0 405.2,286.0 408.3,286.0 411.3,286.0 414.3,286.0 417.4,286.0 420.4,286.0 423.4,286.0 426.4,286.0 429.5,286.0 432.5,286.0 435.5,286.0 438.5,286.0 441.6,286.0 444.6,286.0 447.6,286.0 450.6,286.0 453.7,286.0 456.7,286.0 459.7,286.0 462.8,286.0 465.8,286.0 468.8,286.0 471.8,286.0 474.9,286.0 477.9,286.0 480.9,286.0 483.9,286.0 487.0,286.0 490.0,286.0 493.0,286.0 496.1,286.0 499.1,286.0 502.1,286.0 505.1,286.0 508.2,286.0 511.2,286.0 514.2,286.0 517.2,280.0 520.3,286.0 523.3,286.0 526.3,286.0 529.4,286.0 532.4,286.0 535.4,286.0 538.4,286.0 541.5,286.0 544.5,286.0 547.5,286.0 550.5,286.0 553.6,286.0 556.6,286.0 559.6,286.0 562.6,286.0 565.7,286.0 568.7,286.0 571.7,286.0 574.8,286.0 577.8,286.0 580.8,286.0 583.8,286.0 586.9,286.0 589.9,286.0 592.9,286.0 595.9,286.0 599.0,286.0 602.0,286.0 605.0,286.0 608.1,286.0 611.1,286.0 614.1,286.0 617.1,286.0 620.2,286.0 623.2,286.0 626.2,286.0 629.2,286.0 632.3,286.0 635.3,286.0 638.3,286.0 641.4,286.0 644.4,286.0 647.4,286.0 650.4,286.0 653.5,286.0 656.5,286.0 659.5,286.0 662.5,286.0 665.6,286.0 668.6,286.0 671.6,286.0 674.6,286.0 677.7,286.0 680.7,286.0 683.7,286.0 686.8,286.0 689.8,286.0 692.8,280.0 695.8,286.0 698.9,286.0 701.9,286.0 704.9,286.0 707.9,286.0 711.0,286.0 714.0,286.0 717.0,286.0 720.1,286.0 723.1,280.0 726.1,286.0 729.1,286.0 732.2,286.0 735.2,286.0 738.2,286.0 741.2,286.0 744.3,286.0 747.3,286.0 750.3,286.0 753.4,286.0 756.4,286.0 759.4,286.0 762.4,286.0 765.5,286.0 768.5,286.0 771.5,286.0 774.5,286.0 777.6,286.0 780.6,286.0 783.6,286.0 786.6,286.0 789.7,286.0 792.7,286.0 795.7,286.0 798.8,286.0 801.8,286.0 804.8,286.0 807.8,286.0 810.9,280.0 813.9,286.0 816.9,286.0 819.9,286.0 823.0,286.0 826.0,286.0 829.0,286.0 832.1,280.0 835.1,286.0 838.1,286.0 841.1,286.0 844.2,286.0 847.2,286.0 850.2,286.0 853.2,286.0 856.3,286.0 859.3,286.0 862.3,286.0 865.4,286.0 868.4,286.0 871.4,286.0 874.4,286.0 877.5,286.0 880.5,286.0 883.5,280.0 886.5,286.0 889.6,286.0 892.6,286.0 895.6,286.0 898.6,286.0 901.7,286.0 904.7,286.0 907.7,286.0 910.8,286.0 913.8,286.0 916.8,286.0 919.8,286.0 922.9,286.0 925.9,286.0 928.9,286.0 931.9,286.0 935.0,286.0 938.0,286.0"/><text x="42" y="308" font-size="11" fill="#5a688a">19/06 12:43</text><text x="938" y="308" text-anchor="end" font-size="11" fill="#5a688a">06/07 01:29</text></svg>