<svg xmlns="http://www.w3.org/2000/svg" viewBox="0 0 960 320" width="960" height="320" font-family="Segoe UI, system-ui, -apple-system, Roboto, Helvetica, Arial, sans-serif" role="img" aria-label="Availability history per region"><rect x="0.5" y="0.5" width="959" height="319" rx="14" fill="#ffffff" stroke="#dce3f1"/><text x="42" y="26" font-size="14" font-weight="600" fill="#14203a">History · 243 points</text><circle cx="47" cy="40" r="5" fill="#22c55e"/><text x="57" y="44" font-size="12" fill="#5a688a">Available</text><circle cx="139.8" cy="40" r="5" fill="#f59e0b"/><text x="149.8" y="44" font-size="12" fill="#5a688a">Saturated</text><circle cx="232.60000000000002" cy="40" r="5" fill="#ef4444"/><text x="242.60000000000002" y="44" font-size="12" fill="#5a688a">Error</text><circle cx="296.6" cy="40" r="5" fill="#a855f7"/><text x="306.6" y="44" font-size="12" fill="#5a688a">Timeout</text><line x1="42" y1="286.0" x2="938" y2="286.0" stroke="#eef2f7" stroke-width="1"/><text x="35" y="289.0" text-anchor="end" font-size="11" fill="#5a688a">0</text><line x1="42" y1="227.5" x2="938" y2="227.5" stroke="#eef2f7" stroke-width="1"/><text x="35" y="230.5" text-anchor="end" font-size="11" fill="#5a688a">10</text><line x1="42" y1="169.0" x2="938" y2="169.0" stroke="#eef2f7" stroke-width="1"/><text x="35" y="172.0" text-anchor="end" font-size="11" fill="#5a688a">20</text><line x1="42" y1="110.5" x2="938" y2="110.5" stroke="#eef2f7" stroke-width="1"/><text x="35" y="113.5" text-anchor="end" font-size="11" fill="#5a688a">29</text><line x1="42" y1="52.0" x2="938" y2="52.0" stroke="#eef2f7" stroke-width="1"/><text x="35" y="55.0" text-anchor="end" font-size="11" fill="#5a688a">39</text><polyline fill="none" stroke="#22c55e" stroke-width="2.5" stroke-linejoin="round" stroke-linecap="round" points="42.0,70.0 45.7,70.0 49.4,88.0 53.1,88.0 56.8,76.0 60.5,76.0 64.2,76.0 67.9,70.0 71.6,76.0 75.3,70.0 79.0,64.0 82.7,58.0 86.4,58.0 90.1,58.0 93.8,58.0 97.5,58.0 101.2,58.0 104.9,58.0 108.6,58.0 112.3,58.0 116.0,58.0 119.8,58.0 123.5,58.0 127.2,58.0 130.9,58.0 134.6,58.0 138.3,58.0 142.0,58.0 145.7,58.0 149.4,58.0 153.1,58.0 156.8,70.0 160.5,76.0 164.2,94.0 167.9,64.0 171.6,64.0 175.3,58.0 179.0,58.0 182.7,58.0 186.4,70.0 190.1,76.0 193.8,76.0 197.5,82.0 201.2,82.0 204.9,82.0 208.6,82.0 212.3,76.0 216.0,64.0 219.7,70.0 223.4,70.0 227.1,82.0 230.8,76.0 234.5,76.0 238.2,82.0 241.9,76.0 245.6,76.0 249.3,76.0 253.0,64.0 256.7,64.0 260.4,76.0 264.1,76.0 267.9,76.0 271.6,88.0 275.3,70.0 279.0,64.0 282.7,58.0 286.4,58.0 290.1,70.0 293.8,70.0 297.5,70.0 301.2,76.0 304.9,70.0 308.6,70.0 312.3,70.0 316.0,70.0 319.7,76.0 323.4,82.0 327.1,76.0 330.8,70.0 334.5,70.0 338.2,70.0 341.9,70.0 345.6,76.0 349.3,70.0 353.0,70.0 356.7,70.0 360.4,70.0 364.1,70.0 367.8,70.0 371.5,70.0 375.2,70.0 378.9,70.0 382.6,70.0 386.3,70.0 390.0,70.0 393.7,70.0 397.4,70.0 401.1,70.0 404.8,70.0 408.5,70.0 412.2,70.0 416.0,70.0 419.7,70.0 423.4,70.0 427.1,70.0 430.8,70.0 434.5,70.0 438.2,70.0 441.9,70.0 445.6,70.0 449.3,70.0 453.0,70.0 456.7,70.0 460.4,70.0 464.1,70.0 467.8,70.0 471.5,70.0 475.2,70.0 478.9,70.0 482.6,70.0 486.3,70.0 490.0,70.0 493.7,70.0 497.4,70.0 501.1,70.0 504.8,70.0 508.5,70.0 512.2,70.0 515.9,70.0 519.6,70.0 523.3,70.0 527.0,70.0 530.7,70.0 534.4,70.0 538.1,70.0 541.8,70.0 545.5,70.0 549.2,70.0 552.9,70.0 556.6,70.0 560.3,70.0 564.0,70.0 567.8,70.0 571.5,70.0 575.2,70.0 578.9,70.0 582.6,70.0 586.3,70.0 590.0,70.0 593.7,70.0 597.4,70.0 601.1,76.0 604.8,70.0 608.5,70.0 612.2,70.0 615.9,70.0 619.6,70.0 623.3,76.0 627.0,76.0 630.7,88.0 634.4,88.0 638.1,88.0 641.8,94.0 645.5,94.0 649.2,94.0 652.9,94.0 656.6,88.0 660.3,88.0 664.0,82.0 667.7,82.0 671.4,82.0 675.1,88.0 678.8,88.0 682.5,94.0 686.2,82.0 689.9,82.0 693.6,82.0 697.3,82.0 701.0,88.0 704.7,88.0 708.4,94.0 712.1,94.0 715.9,88.0 719.6,88.0 723.3,88.0 727.0,94.0 730.7,94.0 734.4,106.0 738.1,94.0 741.8,94.0 745.5,94.0 749.2,94.0 752.9,88.0 756.6,88.0 760.3,82.0 764.0,76.0 767.7,76.0 771.4,76.0 775.1,76.0 778.8,76.0 782.5,76.0 786.2,70.0 789.9,70.0 793.6,70.0 797.3,76.0 801.0,88.0 804.7,82.0 808.4,70.0 812.1,70.0 815.8,70.0 819.5,76.0 823.2,76.0 826.9,76.0 830.6,82.0 834.3,70.0 838.0,76.0 841.7,64.0 845.4,70.0 849.1,58.0 852.8,58.0 856.5,58.0 860.2,58.0 864.0,58.0 867.7,64.0 871.4,58.0 875.1,64.0 878.8,58.0 882.5,58.0 886.2,58.0 889.9,58.0 893.6,64.0 897.3,64.0 901.0,64.0 904.7,76.0 908.4,70.0 912.1,82.0 915.8,70.0 919.5,76.0 923.2,58.0 926.9,64.0 930.6,58.0 934.3,64.0 938.0,58.0"/><polyline fill="none" stroke="#f59e0b" stroke-width="2.5" stroke-linejoin="round" stroke-linecap="round" points="42.0,274.0 45.7,274.0 49.4,274.0 53.1,280.0 56.8,268.0 60.5,268.0 64.2,268.0 67.9,274.0 71.6,274.0 75.3,274.0 79.0,280.0 82.7,286.0 86.4,286.0 90.1,286.0 93.8,286.0 97.5,286.0 101.2,286.0 104.9,286.0 108.6,286.0 112.3,286.0 116.0,286.0 119.8,286.0 123.5,286.0 127.2,286.0 130.9,286.0 134.6,286.0 138.3,286.0 142.0,286.0 145.7,286.0 149.4,286.0 153.1,286.0 156.8,274.0 160.5,280.0 164.2,280.0 167.9,280.0 171.6,280.0 175.3,286.0 179.0,286.0 182.7,286.0 186.4,274.0 190.1,268.0 193.8,268.0 197.5,262.0 201.2,262.0 204.9,262.0 208.6,262.0 212.3,268.0 216.0,280.0 219.7,280.0 223.4,274.0 227.1,262.0 230.8,268.0 234.5,268.0 238.2,262.0 241.9,268.0 245.6,268.0 249.3,268.0 253.0,280.0 256.7,280.0 260.4,268.0 264.1,268.0 267.9,268.0 271.6,262.0 275.3,274.0 279.0,280.0 282.7,286.0 286.4,286.0 290.1,274.0 293.8,274.0 297.5,274.0 301.2,274.0 304.9,274.0 308.6,274.0 312.3,274.0 316.0,274.0 319.7,280.0 323.4,274.0 327.1,280.0 330.8,286.0 334.5,286.0 338.2,286.0 341.9,286.0 345.6,280.0 349.3,286.0 353.0,286.0 356.7,286.0 360.4,286.0 364.1,286.0 367.8,286.0 371.5,286.0 375.2,286.0 378.9,286.0 382.6,286.0 386.3,286.0 390.0,286.0 393.7,286.0 397.4,286.0 401.1,286.0 404.8,286.0 408.5,286.0 412.2,286.0 416.0,286.0 419.7,286.0 423.4,286.0 427.1,286.0 430.8,286.0 434.5,286.0 438.2,286.0 441.9,286.0 445.6,286.0 449.3,286.0 453.0,286.0 456.7,286.0 460.4,286.0 464.1,286.0 467.8,286.0 471.5,286.0 475.2,286.0 478.9,286.0 482.6,286.0 486.3,286.0 490.0,286.0 493.7,286.0 497.4,286.0 501.1,286.0 504.8,286.0 508.5,286.0 512.2,286.0 515.9,286.0 519.6,286.0 523.3,286.0 527.0,286.0 530.7,286.0 534.4,286.0 538.1,286.0 541.8,286.0 545.5,286.0 549.2,286.0 552.9,286.0 556.6,286.0 560.3,286.0 564.0,286.0 567.8,286.0 571.5,286.0 575.2,286.0 578.9,286.0 582.6,286.0 586.3,286.0 590.0,286.0 593.7,286.0 597.4,286.0 601.1,286.0 604.8,286.0 608.5,286.0 612.2,286.0 615.9,286.0 619.6,286.0 623.3,286.0 627.0,280.0 630.7,268.0 634.4,268.0 638.1,268.0 641.8,268.0 645.5,262.0 649.2,262.0 652.9,262.0 656.6,268.0 660.3,268.0 664.0,274.0 667.7,274.0 671.4,274.0 675.1,268.0 678.8,268.0 682.5,268.0 686.2,274.0 689.9,274.0 693.6,274.0 697.3,274.0 701.0,268.0 704.7,268.0 708.4,262.0 712.1,262.0 715.9,268.0 719.6,268.0 723.3,268.0 727.0,262.0 730.7,262.0 734.4,274.0 738.1,262.0 741.8,262.0 745.5,262.0 749.2,262.0 752.9,268.0 756.6,268.0 760.3,274.0 764.0,280.0 767.7,280.0 771.4,280.0 775.1,280.0 778.8,280.0 782.5,280.0 786.2,286.0 789.9,286.0 793.6,286.0 797.3,280.0 801.0,274.0 804.7,274.0 808.4,280.0 812.1,274.0 815.8,274.0 819.5,268.0 823.2,268.0 826.9,268.0 830.6,268.0 834.3,280.0 838.0,274.0 841.7,280.0 845.4,280.0 849.1,286.0 852.8,286.0 856.5,286.0 860.2,286.0 864.0,286.0 867.7,286.0 871.4,286.0 875.1,286.0 878.8,286.0 882.5,286.0 886.2,286.0 889.9,286.0 893.6,280.0 897.3,280.0 901.0,280.0 904.7,268.0 908.4,280.0 912.1,268.0 915.8,274.0 919.5,274.0 923.2,286.0 926.9,280.0 930.6,286.0 934.3,280.0 938.0,286.0"/><polyline fill="none" stroke="#ef4444" stroke-width="2.5" stroke-linejoin="round" stroke-linecap="round" points="42.0,280.0 45.7,280.0 49.4,268.0 53.1,262.0 56.8,286.0 60.5,286.0 64.2,286.0 67.9,286.0 71.6,280.0 75.3,286.0 79.0,286.0 82.7,286.0 86.4,286.0 90.1,286.0 93.8,286.0 97.5,286.0 101.2,286.0 104.9,286.0 108.6,286.0 112.3,286.0 116.0,286.0 119.8,286.0 123.5,286.0 127.2,286.0 130.9,286.0 134.6,286.0 138.3,286.0 142.0,286.0 145.7,286.0 149.4,286.0 153.1,286.0 156.8,286.0 160.5,274.0 164.2,256.0 167.9,286.0 171.6,286.0 175.3,286.0 179.0,286.0 182.7,286.0 186.4,286.0 190.1,286.0 193.8,286.0 197.5,286.0 201.2,286.0 204.9,286.0 208.6,286.0 212.3,286.0 216.0,286.0 219.7,280.0 223.4,286.0 227.1,286.0 230.8,286.0 234.5,286.0 238.2,286.0 241.9,286.0 245.6,286.0 249.3,286.0 253.0,286.0 256.7,286.0 260.4,286.0 264.1,286.0 267.9,286.0 271.6,280.0 275.3,286.0 279.0,286.0 282.7,286.0 286.4,286.0 290.1,286.0 293.8,286.0 297.5,286.0 301.2,286.0 304.9,286.0 308.6,286.0 312.3,286.0 316.0,286.0 319.7,274.0 323.4,274.0 327.1,274.0 330.8,274.0 334.5,274.0 338.2,274.0 341.9,274.0 345.6,274.0 349.3,274.0 353.0,274.0 356.7,274.0 360.4,274.0 364.1,274.0 367.8,274.0 371.5,274.0 375.2,274.0 378.9,274.0 382.6,274.0 386.3,274.0 390.0,274.0 393.7,274.0 397.4,274.0 401.1,274.0 404.8,274.0 408.5,274.0 412.2,274.0 416.0,274.0 419.7,274.0 423.4,274.0 427.1,274.0 430.8,274.0 434.5,274.0 438.2,274.0 441.9,274.0 445.6,274.0 449.3,274.0 453.0,274.0 456.7,274.0 460.4,274.0 464.1,274.0 467.8,274.0 471.5,274.0 475.2,274.0 478.9,274.0 482.6,274.0 486.3,274.0 490.0,274.0 493.7,274.0 497.4,274.0 501.1,274.0 504.8,274.0 508.5,274.0 512.2,274.0 515.9,274.0 519.6,274.0 523.3,274.0 527.0,274.0 530.7,274.0 534.4,274.0 538.1,274.0 541.8,274.0 545.5,274.0 549.2,274.0 552.9,274.0 556.6,274.0 560.3,274.0 564.0,274.0 567.8,274.0 571.5,274.0 575.2,274.0 578.9,274.0 582.6,274.0 586.3,274.0 590.0,274.0 593.7,274.0 597.4,274.0 601.1,268.0 604.8,274.0 608.5,274.0 612.2,274.0 615.9,274.0 619.6,274.0 623.3,274.0 627.0,274.0 630.7,274.0 634.4,274.0 638.1,274.0 641.8,268.0 645.5,274.0 649.2,274.0 652.9,274.0 656.6,274.0 660.3,274.0 664.0,274.0 667.7,274.0 671.4,274.0 675.1,274.0 678.8,274.0 682.5,268.0 686.2,274.0 689.9,274.0 693.6,274.0 697.3,274.0 701.0,274.0 704.7,274.0 708.4,274.0 712.1,274.0 715.9,274.0 719.6,274.0 723.3,274.0 727.0,274.0 730.7,274.0 734.4,250.0 738.1,274.0 741.8,274.0 745.5,274.0 749.2,274.0 752.9,274.0 756.6,274.0 760.3,274.0 764.0,274.0 767.7,274.0 771.4,274.0 775.1,274.0 778.8,274.0 782.5,274.0 786.2,274.0 789.9,274.0 793.6,274.0 797.3,274.0 801.0,268.0 804.7,274.0 808.4,280.0 812.1,286.0 815.8,286.0 819.5,286.0 823.2,286.0 826.9,286.0 830.6,280.0 834.3,280.0 838.0,286.0 841.7,286.0 845.4,280.0 849.1,286.0 852.8,286.0 856.5,286.0 860.2,286.0 864.0,286.0 867.7,280.0 871.4,286.0 875.1,286.0 878.8,286.0 882.5,286.0 886.2,286.0 889.9,286.0 893.6,286.0 897.3,286.0 901.0,286.0 904.7,286.0 908.4,280.0 912.1,280.0 915.8,286.0 919.5,280.0 923.2,286.0 926.9,286.0 930.6,286.0 934.3,286.0 938.0,286.0"/><polyline fill="none" stroke="#a855f7" stroke-width="2.5" stroke-linejoin="round" stroke-linecap="round" points="42.0,286.0 45.7,286.0 49.4,286.0 53.1,286.0 56.8,286.0 60.5,286.0 64.2,286.0 67.9,286.0 71.6,286.0 75.3,286.0 79.0,286.0 82.7,286.0 86.4,286.0 90.1,286.0 93.8,286.0 97.5,286.0 101.2,286.0 104.9,286.0 108.6,286.0 112.3,286.0 116.0,286.0 119.8,286.0 123.5,286.0 127.2,286.0 130.9,286.0 134.6,286.0 138.3,286.0 142.0,286.0 145.7,286.0 149.4,286.0 153.1,286.0 156.8,286.0 160.5,286.0 164.2,286.0 167.9,286.0 171.6,286.0 175.3,286.0 179.0,286.0 182.7,286.0 186.4,286.0 190.1,286.0 193.8,286.0 197.5,286.0 201.2,286.0 204.9,286.0 208.6,286.0 212.3,286.0 216.0,286.0 219.7,286.0 223.4,286.0 227.1,286.0 230.8,286.0 234.5,286.0 238.2,286.0 241.9,286.0 245.6,286.0 249.3,286.0 253.0,286.0 256.7,286.0 260.4,286.0 264.1,286.0 267.9,286.0 271.6,286.0 275.3,286.0 279.0,286.0 282.7,286.0 286.4,286.0 290.1,286.0 293.8,286.0 297.5,286.0 301.2,280.0 304.9,286.0 308.6,286.0 312.3,286.0 316.0,286.0 319.7,286.0 323.4,286.0 327.1,286.0 330.8,286.0 334.5,286.0 338.2,286.0 341.9,286.0 345.6,286.0 349.3,286.0 353.0,286.0 356.7,286.0 360.4,286.0 364.1,286.0 367.8,286.0 371.5,286.0 375.2,286.0 378.9,286.0 382.6,286.0 386.3,286.0 390.0,286.0 393.7,286.0 397.4,286.0 401.1,286.0 404.8,286.0 408.5,286.0 412.2,286.0 416.0,286.0 419.7,286.0 423.4,286.0 427.1,286.0 430.8,286.0 434.5,286.0 438.2,286.0 441.9,286.0 445.6,286.0 449.3,286.0 453.0,286.0 456.7,286.0 460.4,286.0 464.1,286.0 467.8,286.0 471.5,286.0 475.2,286.0 478.9,286.0 482.6,286.0 486.3,286.0 490.0,286.0 493.7,286.0 497.4,286.0 501.1,286.0 504.8,286.0 508.5,286.0 512.2,286.0 515.9,286.0 519.6,286.0 523.3,286.0 527.0,286.0 530.7,286.0 534.4,286.0 538.1,286.0 541.8,286.0 545.5,286.0 549.2,286.0 552.9,286.0 556.6,286.0 560.3,286.0 564.0,286.0 567.8,286.0 571.5,286.0 575.2,286.0 578.9,286.0 582.6,286.0 586.3,286.0 590.0,286.0 593.7,286.0 597.4,286.0 601.1,286.0 604.8,286.0 608.5,286.0 612.2,286.0 615.9,286.0 619.6,286.0 623.3,280.0 627.0,286.0 630.7,286.0 634.4,286.0 638.1,286.0 641.8,286.0 645.5,286.0 649.2,286.0 652.9,286.0 656.6,286.0 660.3,286.0 664.0,286.0 667.7,286.0 671.4,286.0 675.1,286.0 678.8,286.0 682.5,286.0 686.2,286.0 689.9,286.0 693.6,286.0 697.3,286.0 701.0,286.0 704.7,286.0 708.4,286.0 712.1,286.0 715.9,286.0 719.6,286.0 723.3,286.0 727.0,286.0 730.7,286.0 734.4,286.0 738.1,286.0 741.8,286.0 745.5,286.0 749.2,286.0 752.9,286.0 756.6,286.0 760.3,286.0 764.0,286.0 767.7,286.0 771.4,286.0 775.1,286.0 778.8,286.0 782.5,286.0 786.2,286.0 789.9,286.0 793.6,286.0 797.3,286.0 801.0,286.0 804.7,286.0 808.4,286.0 812.1,286.0 815.8,286.0 819.5,286.0 823.2,286.0 826.9,286.0 830.6,286.0 834.3,286.0 838.0,280.0 841.7,286.0 845.4,286.0 849.1,286.0 852.8,286.0 856.5,286.0 860.2,286.0 864.0,286.0 867.7,286.0 871.4,286.0 875.1,280.0 878.8,286.0 882.5,286.0 886.2,286.0 889.9,286.0 893.6,286.0 897.3,286.0 901.0,286.0 904.7,286.0 908.4,286.0 912.1,286.0 915.8,286.0 919.5,286.0 923.2,286.0 926.9,286.0 930.6,286.0 934.3,286.0 938.0,286.0"/><text x="42" y="308" font-size="11" fill="#5a688a">19/06 12:43</text><text x="938" y="308" text-anchor="end" font-size="11" fill="#5a688a">03/07 01:32</text></svg>