<svg xmlns="http://www.w3.org/2000/svg" viewBox="0 0 960 320" width="960" height="320" font-family="Segoe UI, system-ui, -apple-system, Roboto, Helvetica, Arial, sans-serif" role="img" aria-label="Availability history per region"><rect x="0.5" y="0.5" width="959" height="319" rx="14" fill="#0d1117" stroke="#2c3a5e"/><text x="42" y="26" font-size="14" font-weight="600" fill="#e6ecff">History · 224 points</text><circle cx="47" cy="40" r="5" fill="#22c55e"/><text x="57" y="44" font-size="12" fill="#9fb0d4">Available</text><circle cx="139.8" cy="40" r="5" fill="#f59e0b"/><text x="149.8" y="44" font-size="12" fill="#9fb0d4">Saturated</text><circle cx="232.60000000000002" cy="40" r="5" fill="#ef4444"/><text x="242.60000000000002" y="44" font-size="12" fill="#9fb0d4">Error</text><circle cx="296.6" cy="40" r="5" fill="#a855f7"/><text x="306.6" y="44" font-size="12" fill="#9fb0d4">Timeout</text><line x1="42" y1="286.0" x2="938" y2="286.0" stroke="#21304f" stroke-width="1"/><text x="35" y="289.0" text-anchor="end" font-size="11" fill="#9fb0d4">0</text><line x1="42" y1="227.5" x2="938" y2="227.5" stroke="#21304f" stroke-width="1"/><text x="35" y="230.5" text-anchor="end" font-size="11" fill="#9fb0d4">10</text><line x1="42" y1="169.0" x2="938" y2="169.0" stroke="#21304f" stroke-width="1"/><text x="35" y="172.0" text-anchor="end" font-size="11" fill="#9fb0d4">20</text><line x1="42" y1="110.5" x2="938" y2="110.5" stroke="#21304f" stroke-width="1"/><text x="35" y="113.5" text-anchor="end" font-size="11" fill="#9fb0d4">29</text><line x1="42" y1="52.0" x2="938" y2="52.0" stroke="#21304f" stroke-width="1"/><text x="35" y="55.0" text-anchor="end" font-size="11" fill="#9fb0d4">39</text><polyline fill="none" stroke="#22c55e" stroke-width="2.5" stroke-linejoin="round" stroke-linecap="round" points="42.0,70.0 46.0,70.0 50.0,88.0 54.1,88.0 58.1,76.0 62.1,76.0 66.1,76.0 70.1,70.0 74.1,76.0 78.2,70.0 82.2,64.0 86.2,58.0 90.2,58.0 94.2,58.0 98.3,58.0 102.3,58.0 106.3,58.0 110.3,58.0 114.3,58.0 118.3,58.0 122.4,58.0 126.4,58.0 130.4,58.0 134.4,58.0 138.4,58.0 142.4,58.0 146.5,58.0 150.5,58.0 154.5,58.0 158.5,58.0 162.5,58.0 166.6,70.0 170.6,76.0 174.6,94.0 178.6,64.0 182.6,64.0 186.6,58.0 190.7,58.0 194.7,58.0 198.7,70.0 202.7,76.0 206.7,76.0 210.8,82.0 214.8,82.0 218.8,82.0 222.8,82.0 226.8,76.0 230.8,64.0 234.9,70.0 238.9,70.0 242.9,82.0 246.9,76.0 250.9,76.0 255.0,82.0 259.0,76.0 263.0,76.0 267.0,76.0 271.0,64.0 275.0,64.0 279.1,76.0 283.1,76.0 287.1,76.0 291.1,88.0 295.1,70.0 299.1,64.0 303.2,58.0 307.2,58.0 311.2,70.0 315.2,70.0 319.2,70.0 323.3,76.0 327.3,70.0 331.3,70.0 335.3,70.0 339.3,70.0 343.3,76.0 347.4,82.0 351.4,76.0 355.4,70.0 359.4,70.0 363.4,70.0 367.5,70.0 371.5,76.0 375.5,70.0 379.5,70.0 383.5,70.0 387.5,70.0 391.6,70.0 395.6,70.0 399.6,70.0 403.6,70.0 407.6,70.0 411.7,70.0 415.7,70.0 419.7,70.0 423.7,70.0 427.7,70.0 431.7,70.0 435.8,70.0 439.8,70.0 443.8,70.0 447.8,70.0 451.8,70.0 455.8,70.0 459.9,70.0 463.9,70.0 467.9,70.0 471.9,70.0 475.9,70.0 480.0,70.0 484.0,70.0 488.0,70.0 492.0,70.0 496.0,70.0 500.0,70.0 504.1,70.0 508.1,70.0 512.1,70.0 516.1,70.0 520.1,70.0 524.2,70.0 528.2,70.0 532.2,70.0 536.2,70.0 540.2,70.0 544.2,70.0 548.3,70.0 552.3,70.0 556.3,70.0 560.3,70.0 564.3,70.0 568.3,70.0 572.4,70.0 576.4,70.0 580.4,70.0 584.4,70.0 588.4,70.0 592.5,70.0 596.5,70.0 600.5,70.0 604.5,70.0 608.5,70.0 612.5,70.0 616.6,70.0 620.6,70.0 624.6,70.0 628.6,70.0 632.6,70.0 636.7,70.0 640.7,70.0 644.7,70.0 648.7,76.0 652.7,70.0 656.7,70.0 660.8,70.0 664.8,70.0 668.8,70.0 672.8,76.0 676.8,76.0 680.9,88.0 684.9,88.0 688.9,88.0 692.9,94.0 696.9,94.0 700.9,94.0 705.0,94.0 709.0,88.0 713.0,88.0 717.0,82.0 721.0,82.0 725.0,82.0 729.1,88.0 733.1,88.0 737.1,94.0 741.1,82.0 745.1,82.0 749.2,82.0 753.2,82.0 757.2,88.0 761.2,88.0 765.2,94.0 769.2,94.0 773.3,88.0 777.3,88.0 781.3,88.0 785.3,94.0 789.3,94.0 793.4,106.0 797.4,94.0 801.4,94.0 805.4,94.0 809.4,94.0 813.4,88.0 817.5,88.0 821.5,82.0 825.5,76.0 829.5,76.0 833.5,76.0 837.6,76.0 841.6,76.0 845.6,76.0 849.6,70.0 853.6,70.0 857.6,70.0 861.7,76.0 865.7,88.0 869.7,82.0 873.7,70.0 877.7,70.0 881.7,70.0 885.8,76.0 889.8,76.0 893.8,76.0 897.8,82.0 901.8,70.0 905.9,76.0 909.9,64.0 913.9,70.0 917.9,58.0 921.9,58.0 925.9,58.0 930.0,58.0 934.0,58.0 938.0,64.0"/><polyline fill="none" stroke="#f59e0b" stroke-width="2.5" stroke-linejoin="round" stroke-linecap="round" points="42.0,274.0 46.0,274.0 50.0,274.0 54.1,280.0 58.1,268.0 62.1,268.0 66.1,268.0 70.1,274.0 74.1,274.0 78.2,274.0 82.2,280.0 86.2,286.0 90.2,286.0 94.2,286.0 98.3,286.0 102.3,286.0 106.3,286.0 110.3,286.0 114.3,286.0 118.3,286.0 122.4,286.0 126.4,286.0 130.4,286.0 134.4,286.0 138.4,286.0 142.4,286.0 146.5,286.0 150.5,286.0 154.5,286.0 158.5,286.0 162.5,286.0 166.6,274.0 170.6,280.0 174.6,280.0 178.6,280.0 182.6,280.0 186.6,286.0 190.7,286.0 194.7,286.0 198.7,274.0 202.7,268.0 206.7,268.0 210.8,262.0 214.8,262.0 218.8,262.0 222.8,262.0 226.8,268.0 230.8,280.0 234.9,280.0 238.9,274.0 242.9,262.0 246.9,268.0 250.9,268.0 255.0,262.0 259.0,268.0 263.0,268.0 267.0,268.0 271.0,280.0 275.0,280.0 279.1,268.0 283.1,268.0 287.1,268.0 291.1,262.0 295.1,274.0 299.1,280.0 303.2,286.0 307.2,286.0 311.2,274.0 315.2,274.0 319.2,274.0 323.3,274.0 327.3,274.0 331.3,274.0 335.3,274.0 339.3,274.0 343.3,280.0 347.4,274.0 351.4,280.0 355.4,286.0 359.4,286.0 363.4,286.0 367.5,286.0 371.5,280.0 375.5,286.0 379.5,286.0 383.5,286.0 387.5,286.0 391.6,286.0 395.6,286.0 399.6,286.0 403.6,286.0 407.6,286.0 411.7,286.0 415.7,286.0 419.7,286.0 423.7,286.0 427.7,286.0 431.7,286.0 435.8,286.0 439.8,286.0 443.8,286.0 447.8,286.0 451.8,286.0 455.8,286.0 459.9,286.0 463.9,286.0 467.9,286.0 471.9,286.0 475.9,286.0 480.0,286.0 484.0,286.0 488.0,286.0 492.0,286.0 496.0,286.0 500.0,286.0 504.1,286.0 508.1,286.0 512.1,286.0 516.1,286.0 520.1,286.0 524.2,286.0 528.2,286.0 532.2,286.0 536.2,286.0 540.2,286.0 544.2,286.0 548.3,286.0 552.3,286.0 556.3,286.0 560.3,286.0 564.3,286.0 568.3,286.0 572.4,286.0 576.4,286.0 580.4,286.0 584.4,286.0 588.4,286.0 592.5,286.0 596.5,286.0 600.5,286.0 604.5,286.0 608.5,286.0 612.5,286.0 616.6,286.0 620.6,286.0 624.6,286.0 628.6,286.0 632.6,286.0 636.7,286.0 640.7,286.0 644.7,286.0 648.7,286.0 652.7,286.0 656.7,286.0 660.8,286.0 664.8,286.0 668.8,286.0 672.8,286.0 676.8,280.0 680.9,268.0 684.9,268.0 688.9,268.0 692.9,268.0 696.9,262.0 700.9,262.0 705.0,262.0 709.0,268.0 713.0,268.0 717.0,274.0 721.0,274.0 725.0,274.0 729.1,268.0 733.1,268.0 737.1,268.0 741.1,274.0 745.1,274.0 749.2,274.0 753.2,274.0 757.2,268.0 761.2,268.0 765.2,262.0 769.2,262.0 773.3,268.0 777.3,268.0 781.3,268.0 785.3,262.0 789.3,262.0 793.4,274.0 797.4,262.0 801.4,262.0 805.4,262.0 809.4,262.0 813.4,268.0 817.5,268.0 821.5,274.0 825.5,280.0 829.5,280.0 833.5,280.0 837.6,280.0 841.6,280.0 845.6,280.0 849.6,286.0 853.6,286.0 857.6,286.0 861.7,280.0 865.7,274.0 869.7,274.0 873.7,280.0 877.7,274.0 881.7,274.0 885.8,268.0 889.8,268.0 893.8,268.0 897.8,268.0 901.8,280.0 905.9,274.0 909.9,280.0 913.9,280.0 917.9,286.0 921.9,286.0 925.9,286.0 930.0,286.0 934.0,286.0 938.0,286.0"/><polyline fill="none" stroke="#ef4444" stroke-width="2.5" stroke-linejoin="round" stroke-linecap="round" points="42.0,280.0 46.0,280.0 50.0,268.0 54.1,262.0 58.1,286.0 62.1,286.0 66.1,286.0 70.1,286.0 74.1,280.0 78.2,286.0 82.2,286.0 86.2,286.0 90.2,286.0 94.2,286.0 98.3,286.0 102.3,286.0 106.3,286.0 110.3,286.0 114.3,286.0 118.3,286.0 122.4,286.0 126.4,286.0 130.4,286.0 134.4,286.0 138.4,286.0 142.4,286.0 146.5,286.0 150.5,286.0 154.5,286.0 158.5,286.0 162.5,286.0 166.6,286.0 170.6,274.0 174.6,256.0 178.6,286.0 182.6,286.0 186.6,286.0 190.7,286.0 194.7,286.0 198.7,286.0 202.7,286.0 206.7,286.0 210.8,286.0 214.8,286.0 218.8,286.0 222.8,286.0 226.8,286.0 230.8,286.0 234.9,280.0 238.9,286.0 242.9,286.0 246.9,286.0 250.9,286.0 255.0,286.0 259.0,286.0 263.0,286.0 267.0,286.0 271.0,286.0 275.0,286.0 279.1,286.0 283.1,286.0 287.1,286.0 291.1,280.0 295.1,286.0 299.1,286.0 303.2,286.0 307.2,286.0 311.2,286.0 315.2,286.0 319.2,286.0 323.3,286.0 327.3,286.0 331.3,286.0 335.3,286.0 339.3,286.0 343.3,274.0 347.4,274.0 351.4,274.0 355.4,274.0 359.4,274.0 363.4,274.0 367.5,274.0 371.5,274.0 375.5,274.0 379.5,274.0 383.5,274.0 387.5,274.0 391.6,274.0 395.6,274.0 399.6,274.0 403.6,274.0 407.6,274.0 411.7,274.0 415.7,274.0 419.7,274.0 423.7,274.0 427.7,274.0 431.7,274.0 435.8,274.0 439.8,274.0 443.8,274.0 447.8,274.0 451.8,274.0 455.8,274.0 459.9,274.0 463.9,274.0 467.9,274.0 471.9,274.0 475.9,274.0 480.0,274.0 484.0,274.0 488.0,274.0 492.0,274.0 496.0,274.0 500.0,274.0 504.1,274.0 508.1,274.0 512.1,274.0 516.1,274.0 520.1,274.0 524.2,274.0 528.2,274.0 532.2,274.0 536.2,274.0 540.2,274.0 544.2,274.0 548.3,274.0 552.3,274.0 556.3,274.0 560.3,274.0 564.3,274.0 568.3,274.0 572.4,274.0 576.4,274.0 580.4,274.0 584.4,274.0 588.4,274.0 592.5,274.0 596.5,274.0 600.5,274.0 604.5,274.0 608.5,274.0 612.5,274.0 616.6,274.0 620.6,274.0 624.6,274.0 628.6,274.0 632.6,274.0 636.7,274.0 640.7,274.0 644.7,274.0 648.7,268.0 652.7,274.0 656.7,274.0 660.8,274.0 664.8,274.0 668.8,274.0 672.8,274.0 676.8,274.0 680.9,274.0 684.9,274.0 688.9,274.0 692.9,268.0 696.9,274.0 700.9,274.0 705.0,274.0 709.0,274.0 713.0,274.0 717.0,274.0 721.0,274.0 725.0,274.0 729.1,274.0 733.1,274.0 737.1,268.0 741.1,274.0 745.1,274.0 749.2,274.0 753.2,274.0 757.2,274.0 761.2,274.0 765.2,274.0 769.2,274.0 773.3,274.0 777.3,274.0 781.3,274.0 785.3,274.0 789.3,274.0 793.4,250.0 797.4,274.0 801.4,274.0 805.4,274.0 809.4,274.0 813.4,274.0 817.5,274.0 821.5,274.0 825.5,274.0 829.5,274.0 833.5,274.0 837.6,274.0 841.6,274.0 845.6,274.0 849.6,274.0 853.6,274.0 857.6,274.0 861.7,274.0 865.7,268.0 869.7,274.0 873.7,280.0 877.7,286.0 881.7,286.0 885.8,286.0 889.8,286.0 893.8,286.0 897.8,280.0 901.8,280.0 905.9,286.0 909.9,286.0 913.9,280.0 917.9,286.0 921.9,286.0 925.9,286.0 930.0,286.0 934.0,286.0 938.0,280.0"/><polyline fill="none" stroke="#a855f7" stroke-width="2.5" stroke-linejoin="round" stroke-linecap="round" points="42.0,286.0 46.0,286.0 50.0,286.0 54.1,286.0 58.1,286.0 62.1,286.0 66.1,286.0 70.1,286.0 74.1,286.0 78.2,286.0 82.2,286.0 86.2,286.0 90.2,286.0 94.2,286.0 98.3,286.0 102.3,286.0 106.3,286.0 110.3,286.0 114.3,286.0 118.3,286.0 122.4,286.0 126.4,286.0 130.4,286.0 134.4,286.0 138.4,286.0 142.4,286.0 146.5,286.0 150.5,286.0 154.5,286.0 158.5,286.0 162.5,286.0 166.6,286.0 170.6,286.0 174.6,286.0 178.6,286.0 182.6,286.0 186.6,286.0 190.7,286.0 194.7,286.0 198.7,286.0 202.7,286.0 206.7,286.0 210.8,286.0 214.8,286.0 218.8,286.0 222.8,286.0 226.8,286.0 230.8,286.0 234.9,286.0 238.9,286.0 242.9,286.0 246.9,286.0 250.9,286.0 255.0,286.0 259.0,286.0 263.0,286.0 267.0,286.0 271.0,286.0 275.0,286.0 279.1,286.0 283.1,286.0 287.1,286.0 291.1,286.0 295.1,286.0 299.1,286.0 303.2,286.0 307.2,286.0 311.2,286.0 315.2,286.0 319.2,286.0 323.3,280.0 327.3,286.0 331.3,286.0 335.3,286.0 339.3,286.0 343.3,286.0 347.4,286.0 351.4,286.0 355.4,286.0 359.4,286.0 363.4,286.0 367.5,286.0 371.5,286.0 375.5,286.0 379.5,286.0 383.5,286.0 387.5,286.0 391.6,286.0 395.6,286.0 399.6,286.0 403.6,286.0 407.6,286.0 411.7,286.0 415.7,286.0 419.7,286.0 423.7,286.0 427.7,286.0 431.7,286.0 435.8,286.0 439.8,286.0 443.8,286.0 447.8,286.0 451.8,286.0 455.8,286.0 459.9,286.0 463.9,286.0 467.9,286.0 471.9,286.0 475.9,286.0 480.0,286.0 484.0,286.0 488.0,286.0 492.0,286.0 496.0,286.0 500.0,286.0 504.1,286.0 508.1,286.0 512.1,286.0 516.1,286.0 520.1,286.0 524.2,286.0 528.2,286.0 532.2,286.0 536.2,286.0 540.2,286.0 544.2,286.0 548.3,286.0 552.3,286.0 556.3,286.0 560.3,286.0 564.3,286.0 568.3,286.0 572.4,286.0 576.4,286.0 580.4,286.0 584.4,286.0 588.4,286.0 592.5,286.0 596.5,286.0 600.5,286.0 604.5,286.0 608.5,286.0 612.5,286.0 616.6,286.0 620.6,286.0 624.6,286.0 628.6,286.0 632.6,286.0 636.7,286.0 640.7,286.0 644.7,286.0 648.7,286.0 652.7,286.0 656.7,286.0 660.8,286.0 664.8,286.0 668.8,286.0 672.8,280.0 676.8,286.0 680.9,286.0 684.9,286.0 688.9,286.0 692.9,286.0 696.9,286.0 700.9,286.0 705.0,286.0 709.0,286.0 713.0,286.0 717.0,286.0 721.0,286.0 725.0,286.0 729.1,286.0 733.1,286.0 737.1,286.0 741.1,286.0 745.1,286.0 749.2,286.0 753.2,286.0 757.2,286.0 761.2,286.0 765.2,286.0 769.2,286.0 773.3,286.0 777.3,286.0 781.3,286.0 785.3,286.0 789.3,286.0 793.4,286.0 797.4,286.0 801.4,286.0 805.4,286.0 809.4,286.0 813.4,286.0 817.5,286.0 821.5,286.0 825.5,286.0 829.5,286.0 833.5,286.0 837.6,286.0 841.6,286.0 845.6,286.0 849.6,286.0 853.6,286.0 857.6,286.0 861.7,286.0 865.7,286.0 869.7,286.0 873.7,286.0 877.7,286.0 881.7,286.0 885.8,286.0 889.8,286.0 893.8,286.0 897.8,286.0 901.8,286.0 905.9,280.0 909.9,286.0 913.9,286.0 917.9,286.0 921.9,286.0 925.9,286.0 930.0,286.0 934.0,286.0 938.0,286.0"/><text x="42" y="308" font-size="11" fill="#9fb0d4">19/06 12:43</text><text x="938" y="308" text-anchor="end" font-size="11" fill="#9fb0d4">02/07 02:31</text></svg>