<svg xmlns="http://www.w3.org/2000/svg" viewBox="0 0 960 320" width="960" height="320" font-family="Segoe UI, system-ui, -apple-system, Roboto, Helvetica, Arial, sans-serif" role="img" aria-label="Availability history per region"><rect x="0.5" y="0.5" width="959" height="319" rx="14" fill="#ffffff" stroke="#dce3f1"/><text x="42" y="26" font-size="14" font-weight="600" fill="#14203a">History · 229 points</text><circle cx="47" cy="40" r="5" fill="#22c55e"/><text x="57" y="44" font-size="12" fill="#5a688a">Available</text><circle cx="139.8" cy="40" r="5" fill="#f59e0b"/><text x="149.8" y="44" font-size="12" fill="#5a688a">Saturated</text><circle cx="232.60000000000002" cy="40" r="5" fill="#ef4444"/><text x="242.60000000000002" y="44" font-size="12" fill="#5a688a">Error</text><circle cx="296.6" cy="40" r="5" fill="#a855f7"/><text x="306.6" y="44" font-size="12" fill="#5a688a">Timeout</text><line x1="42" y1="286.0" x2="938" y2="286.0" stroke="#eef2f7" stroke-width="1"/><text x="35" y="289.0" text-anchor="end" font-size="11" fill="#5a688a">0</text><line x1="42" y1="227.5" x2="938" y2="227.5" stroke="#eef2f7" stroke-width="1"/><text x="35" y="230.5" text-anchor="end" font-size="11" fill="#5a688a">10</text><line x1="42" y1="169.0" x2="938" y2="169.0" stroke="#eef2f7" stroke-width="1"/><text x="35" y="172.0" text-anchor="end" font-size="11" fill="#5a688a">20</text><line x1="42" y1="110.5" x2="938" y2="110.5" stroke="#eef2f7" stroke-width="1"/><text x="35" y="113.5" text-anchor="end" font-size="11" fill="#5a688a">29</text><line x1="42" y1="52.0" x2="938" y2="52.0" stroke="#eef2f7" stroke-width="1"/><text x="35" y="55.0" text-anchor="end" font-size="11" fill="#5a688a">39</text><polyline fill="none" stroke="#22c55e" stroke-width="2.5" stroke-linejoin="round" stroke-linecap="round" points="42.0,70.0 45.9,70.0 49.9,88.0 53.8,88.0 57.7,76.0 61.6,76.0 65.6,76.0 69.5,70.0 73.4,76.0 77.4,70.0 81.3,64.0 85.2,58.0 89.2,58.0 93.1,58.0 97.0,58.0 100.9,58.0 104.9,58.0 108.8,58.0 112.7,58.0 116.7,58.0 120.6,58.0 124.5,58.0 128.5,58.0 132.4,58.0 136.3,58.0 140.2,58.0 144.2,58.0 148.1,58.0 152.0,58.0 156.0,58.0 159.9,58.0 163.8,70.0 167.8,76.0 171.7,94.0 175.6,64.0 179.5,64.0 183.5,58.0 187.4,58.0 191.3,58.0 195.3,70.0 199.2,76.0 203.1,76.0 207.1,82.0 211.0,82.0 214.9,82.0 218.8,82.0 222.8,76.0 226.7,64.0 230.6,70.0 234.6,70.0 238.5,82.0 242.4,76.0 246.4,76.0 250.3,82.0 254.2,76.0 258.1,76.0 262.1,76.0 266.0,64.0 269.9,64.0 273.9,76.0 277.8,76.0 281.7,76.0 285.6,88.0 289.6,70.0 293.5,64.0 297.4,58.0 301.4,58.0 305.3,70.0 309.2,70.0 313.2,70.0 317.1,76.0 321.0,70.0 324.9,70.0 328.9,70.0 332.8,70.0 336.7,76.0 340.7,82.0 344.6,76.0 348.5,70.0 352.5,70.0 356.4,70.0 360.3,70.0 364.2,76.0 368.2,70.0 372.1,70.0 376.0,70.0 380.0,70.0 383.9,70.0 387.8,70.0 391.8,70.0 395.7,70.0 399.6,70.0 403.5,70.0 407.5,70.0 411.4,70.0 415.3,70.0 419.3,70.0 423.2,70.0 427.1,70.0 431.1,70.0 435.0,70.0 438.9,70.0 442.8,70.0 446.8,70.0 450.7,70.0 454.6,70.0 458.6,70.0 462.5,70.0 466.4,70.0 470.4,70.0 474.3,70.0 478.2,70.0 482.1,70.0 486.1,70.0 490.0,70.0 493.9,70.0 497.9,70.0 501.8,70.0 505.7,70.0 509.6,70.0 513.6,70.0 517.5,70.0 521.4,70.0 525.4,70.0 529.3,70.0 533.2,70.0 537.2,70.0 541.1,70.0 545.0,70.0 548.9,70.0 552.9,70.0 556.8,70.0 560.7,70.0 564.7,70.0 568.6,70.0 572.5,70.0 576.5,70.0 580.4,70.0 584.3,70.0 588.2,70.0 592.2,70.0 596.1,70.0 600.0,70.0 604.0,70.0 607.9,70.0 611.8,70.0 615.8,70.0 619.7,70.0 623.6,70.0 627.5,70.0 631.5,70.0 635.4,76.0 639.3,70.0 643.3,70.0 647.2,70.0 651.1,70.0 655.1,70.0 659.0,76.0 662.9,76.0 666.8,88.0 670.8,88.0 674.7,88.0 678.6,94.0 682.6,94.0 686.5,94.0 690.4,94.0 694.4,88.0 698.3,88.0 702.2,82.0 706.1,82.0 710.1,82.0 714.0,88.0 717.9,88.0 721.9,94.0 725.8,82.0 729.7,82.0 733.6,82.0 737.6,82.0 741.5,88.0 745.4,88.0 749.4,94.0 753.3,94.0 757.2,88.0 761.2,88.0 765.1,88.0 769.0,94.0 772.9,94.0 776.9,106.0 780.8,94.0 784.7,94.0 788.7,94.0 792.6,94.0 796.5,88.0 800.5,88.0 804.4,82.0 808.3,76.0 812.2,76.0 816.2,76.0 820.1,76.0 824.0,76.0 828.0,76.0 831.9,70.0 835.8,70.0 839.8,70.0 843.7,76.0 847.6,88.0 851.5,82.0 855.5,70.0 859.4,70.0 863.3,70.0 867.3,76.0 871.2,76.0 875.1,76.0 879.1,82.0 883.0,70.0 886.9,76.0 890.8,64.0 894.8,70.0 898.7,58.0 902.6,58.0 906.6,58.0 910.5,58.0 914.4,58.0 918.4,64.0 922.3,58.0 926.2,64.0 930.1,58.0 934.1,58.0 938.0,58.0"/><polyline fill="none" stroke="#f59e0b" stroke-width="2.5" stroke-linejoin="round" stroke-linecap="round" points="42.0,274.0 45.9,274.0 49.9,274.0 53.8,280.0 57.7,268.0 61.6,268.0 65.6,268.0 69.5,274.0 73.4,274.0 77.4,274.0 81.3,280.0 85.2,286.0 89.2,286.0 93.1,286.0 97.0,286.0 100.9,286.0 104.9,286.0 108.8,286.0 112.7,286.0 116.7,286.0 120.6,286.0 124.5,286.0 128.5,286.0 132.4,286.0 136.3,286.0 140.2,286.0 144.2,286.0 148.1,286.0 152.0,286.0 156.0,286.0 159.9,286.0 163.8,274.0 167.8,280.0 171.7,280.0 175.6,280.0 179.5,280.0 183.5,286.0 187.4,286.0 191.3,286.0 195.3,274.0 199.2,268.0 203.1,268.0 207.1,262.0 211.0,262.0 214.9,262.0 218.8,262.0 222.8,268.0 226.7,280.0 230.6,280.0 234.6,274.0 238.5,262.0 242.4,268.0 246.4,268.0 250.3,262.0 254.2,268.0 258.1,268.0 262.1,268.0 266.0,280.0 269.9,280.0 273.9,268.0 277.8,268.0 281.7,268.0 285.6,262.0 289.6,274.0 293.5,280.0 297.4,286.0 301.4,286.0 305.3,274.0 309.2,274.0 313.2,274.0 317.1,274.0 321.0,274.0 324.9,274.0 328.9,274.0 332.8,274.0 336.7,280.0 340.7,274.0 344.6,280.0 348.5,286.0 352.5,286.0 356.4,286.0 360.3,286.0 364.2,280.0 368.2,286.0 372.1,286.0 376.0,286.0 380.0,286.0 383.9,286.0 387.8,286.0 391.8,286.0 395.7,286.0 399.6,286.0 403.5,286.0 407.5,286.0 411.4,286.0 415.3,286.0 419.3,286.0 423.2,286.0 427.1,286.0 431.1,286.0 435.0,286.0 438.9,286.0 442.8,286.0 446.8,286.0 450.7,286.0 454.6,286.0 458.6,286.0 462.5,286.0 466.4,286.0 470.4,286.0 474.3,286.0 478.2,286.0 482.1,286.0 486.1,286.0 490.0,286.0 493.9,286.0 497.9,286.0 501.8,286.0 505.7,286.0 509.6,286.0 513.6,286.0 517.5,286.0 521.4,286.0 525.4,286.0 529.3,286.0 533.2,286.0 537.2,286.0 541.1,286.0 545.0,286.0 548.9,286.0 552.9,286.0 556.8,286.0 560.7,286.0 564.7,286.0 568.6,286.0 572.5,286.0 576.5,286.0 580.4,286.0 584.3,286.0 588.2,286.0 592.2,286.0 596.1,286.0 600.0,286.0 604.0,286.0 607.9,286.0 611.8,286.0 615.8,286.0 619.7,286.0 623.6,286.0 627.5,286.0 631.5,286.0 635.4,286.0 639.3,286.0 643.3,286.0 647.2,286.0 651.1,286.0 655.1,286.0 659.0,286.0 662.9,280.0 666.8,268.0 670.8,268.0 674.7,268.0 678.6,268.0 682.6,262.0 686.5,262.0 690.4,262.0 694.4,268.0 698.3,268.0 702.2,274.0 706.1,274.0 710.1,274.0 714.0,268.0 717.9,268.0 721.9,268.0 725.8,274.0 729.7,274.0 733.6,274.0 737.6,274.0 741.5,268.0 745.4,268.0 749.4,262.0 753.3,262.0 757.2,268.0 761.2,268.0 765.1,268.0 769.0,262.0 772.9,262.0 776.9,274.0 780.8,262.0 784.7,262.0 788.7,262.0 792.6,262.0 796.5,268.0 800.5,268.0 804.4,274.0 808.3,280.0 812.2,280.0 816.2,280.0 820.1,280.0 824.0,280.0 828.0,280.0 831.9,286.0 835.8,286.0 839.8,286.0 843.7,280.0 847.6,274.0 851.5,274.0 855.5,280.0 859.4,274.0 863.3,274.0 867.3,268.0 871.2,268.0 875.1,268.0 879.1,268.0 883.0,280.0 886.9,274.0 890.8,280.0 894.8,280.0 898.7,286.0 902.6,286.0 906.6,286.0 910.5,286.0 914.4,286.0 918.4,286.0 922.3,286.0 926.2,286.0 930.1,286.0 934.1,286.0 938.0,286.0"/><polyline fill="none" stroke="#ef4444" stroke-width="2.5" stroke-linejoin="round" stroke-linecap="round" points="42.0,280.0 45.9,280.0 49.9,268.0 53.8,262.0 57.7,286.0 61.6,286.0 65.6,286.0 69.5,286.0 73.4,280.0 77.4,286.0 81.3,286.0 85.2,286.0 89.2,286.0 93.1,286.0 97.0,286.0 100.9,286.0 104.9,286.0 108.8,286.0 112.7,286.0 116.7,286.0 120.6,286.0 124.5,286.0 128.5,286.0 132.4,286.0 136.3,286.0 140.2,286.0 144.2,286.0 148.1,286.0 152.0,286.0 156.0,286.0 159.9,286.0 163.8,286.0 167.8,274.0 171.7,256.0 175.6,286.0 179.5,286.0 183.5,286.0 187.4,286.0 191.3,286.0 195.3,286.0 199.2,286.0 203.1,286.0 207.1,286.0 211.0,286.0 214.9,286.0 218.8,286.0 222.8,286.0 226.7,286.0 230.6,280.0 234.6,286.0 238.5,286.0 242.4,286.0 246.4,286.0 250.3,286.0 254.2,286.0 258.1,286.0 262.1,286.0 266.0,286.0 269.9,286.0 273.9,286.0 277.8,286.0 281.7,286.0 285.6,280.0 289.6,286.0 293.5,286.0 297.4,286.0 301.4,286.0 305.3,286.0 309.2,286.0 313.2,286.0 317.1,286.0 321.0,286.0 324.9,286.0 328.9,286.0 332.8,286.0 336.7,274.0 340.7,274.0 344.6,274.0 348.5,274.0 352.5,274.0 356.4,274.0 360.3,274.0 364.2,274.0 368.2,274.0 372.1,274.0 376.0,274.0 380.0,274.0 383.9,274.0 387.8,274.0 391.8,274.0 395.7,274.0 399.6,274.0 403.5,274.0 407.5,274.0 411.4,274.0 415.3,274.0 419.3,274.0 423.2,274.0 427.1,274.0 431.1,274.0 435.0,274.0 438.9,274.0 442.8,274.0 446.8,274.0 450.7,274.0 454.6,274.0 458.6,274.0 462.5,274.0 466.4,274.0 470.4,274.0 474.3,274.0 478.2,274.0 482.1,274.0 486.1,274.0 490.0,274.0 493.9,274.0 497.9,274.0 501.8,274.0 505.7,274.0 509.6,274.0 513.6,274.0 517.5,274.0 521.4,274.0 525.4,274.0 529.3,274.0 533.2,274.0 537.2,274.0 541.1,274.0 545.0,274.0 548.9,274.0 552.9,274.0 556.8,274.0 560.7,274.0 564.7,274.0 568.6,274.0 572.5,274.0 576.5,274.0 580.4,274.0 584.3,274.0 588.2,274.0 592.2,274.0 596.1,274.0 600.0,274.0 604.0,274.0 607.9,274.0 611.8,274.0 615.8,274.0 619.7,274.0 623.6,274.0 627.5,274.0 631.5,274.0 635.4,268.0 639.3,274.0 643.3,274.0 647.2,274.0 651.1,274.0 655.1,274.0 659.0,274.0 662.9,274.0 666.8,274.0 670.8,274.0 674.7,274.0 678.6,268.0 682.6,274.0 686.5,274.0 690.4,274.0 694.4,274.0 698.3,274.0 702.2,274.0 706.1,274.0 710.1,274.0 714.0,274.0 717.9,274.0 721.9,268.0 725.8,274.0 729.7,274.0 733.6,274.0 737.6,274.0 741.5,274.0 745.4,274.0 749.4,274.0 753.3,274.0 757.2,274.0 761.2,274.0 765.1,274.0 769.0,274.0 772.9,274.0 776.9,250.0 780.8,274.0 784.7,274.0 788.7,274.0 792.6,274.0 796.5,274.0 800.5,274.0 804.4,274.0 808.3,274.0 812.2,274.0 816.2,274.0 820.1,274.0 824.0,274.0 828.0,274.0 831.9,274.0 835.8,274.0 839.8,274.0 843.7,274.0 847.6,268.0 851.5,274.0 855.5,280.0 859.4,286.0 863.3,286.0 867.3,286.0 871.2,286.0 875.1,286.0 879.1,280.0 883.0,280.0 886.9,286.0 890.8,286.0 894.8,280.0 898.7,286.0 902.6,286.0 906.6,286.0 910.5,286.0 914.4,286.0 918.4,280.0 922.3,286.0 926.2,286.0 930.1,286.0 934.1,286.0 938.0,286.0"/><polyline fill="none" stroke="#a855f7" stroke-width="2.5" stroke-linejoin="round" stroke-linecap="round" points="42.0,286.0 45.9,286.0 49.9,286.0 53.8,286.0 57.7,286.0 61.6,286.0 65.6,286.0 69.5,286.0 73.4,286.0 77.4,286.0 81.3,286.0 85.2,286.0 89.2,286.0 93.1,286.0 97.0,286.0 100.9,286.0 104.9,286.0 108.8,286.0 112.7,286.0 116.7,286.0 120.6,286.0 124.5,286.0 128.5,286.0 132.4,286.0 136.3,286.0 140.2,286.0 144.2,286.0 148.1,286.0 152.0,286.0 156.0,286.0 159.9,286.0 163.8,286.0 167.8,286.0 171.7,286.0 175.6,286.0 179.5,286.0 183.5,286.0 187.4,286.0 191.3,286.0 195.3,286.0 199.2,286.0 203.1,286.0 207.1,286.0 211.0,286.0 214.9,286.0 218.8,286.0 222.8,286.0 226.7,286.0 230.6,286.0 234.6,286.0 238.5,286.0 242.4,286.0 246.4,286.0 250.3,286.0 254.2,286.0 258.1,286.0 262.1,286.0 266.0,286.0 269.9,286.0 273.9,286.0 277.8,286.0 281.7,286.0 285.6,286.0 289.6,286.0 293.5,286.0 297.4,286.0 301.4,286.0 305.3,286.0 309.2,286.0 313.2,286.0 317.1,280.0 321.0,286.0 324.9,286.0 328.9,286.0 332.8,286.0 336.7,286.0 340.7,286.0 344.6,286.0 348.5,286.0 352.5,286.0 356.4,286.0 360.3,286.0 364.2,286.0 368.2,286.0 372.1,286.0 376.0,286.0 380.0,286.0 383.9,286.0 387.8,286.0 391.8,286.0 395.7,286.0 399.6,286.0 403.5,286.0 407.5,286.0 411.4,286.0 415.3,286.0 419.3,286.0 423.2,286.0 427.1,286.0 431.1,286.0 435.0,286.0 438.9,286.0 442.8,286.0 446.8,286.0 450.7,286.0 454.6,286.0 458.6,286.0 462.5,286.0 466.4,286.0 470.4,286.0 474.3,286.0 478.2,286.0 482.1,286.0 486.1,286.0 490.0,286.0 493.9,286.0 497.9,286.0 501.8,286.0 505.7,286.0 509.6,286.0 513.6,286.0 517.5,286.0 521.4,286.0 525.4,286.0 529.3,286.0 533.2,286.0 537.2,286.0 541.1,286.0 545.0,286.0 548.9,286.0 552.9,286.0 556.8,286.0 560.7,286.0 564.7,286.0 568.6,286.0 572.5,286.0 576.5,286.0 580.4,286.0 584.3,286.0 588.2,286.0 592.2,286.0 596.1,286.0 600.0,286.0 604.0,286.0 607.9,286.0 611.8,286.0 615.8,286.0 619.7,286.0 623.6,286.0 627.5,286.0 631.5,286.0 635.4,286.0 639.3,286.0 643.3,286.0 647.2,286.0 651.1,286.0 655.1,286.0 659.0,280.0 662.9,286.0 666.8,286.0 670.8,286.0 674.7,286.0 678.6,286.0 682.6,286.0 686.5,286.0 690.4,286.0 694.4,286.0 698.3,286.0 702.2,286.0 706.1,286.0 710.1,286.0 714.0,286.0 717.9,286.0 721.9,286.0 725.8,286.0 729.7,286.0 733.6,286.0 737.6,286.0 741.5,286.0 745.4,286.0 749.4,286.0 753.3,286.0 757.2,286.0 761.2,286.0 765.1,286.0 769.0,286.0 772.9,286.0 776.9,286.0 780.8,286.0 784.7,286.0 788.7,286.0 792.6,286.0 796.5,286.0 800.5,286.0 804.4,286.0 808.3,286.0 812.2,286.0 816.2,286.0 820.1,286.0 824.0,286.0 828.0,286.0 831.9,286.0 835.8,286.0 839.8,286.0 843.7,286.0 847.6,286.0 851.5,286.0 855.5,286.0 859.4,286.0 863.3,286.0 867.3,286.0 871.2,286.0 875.1,286.0 879.1,286.0 883.0,286.0 886.9,280.0 890.8,286.0 894.8,286.0 898.7,286.0 902.6,286.0 906.6,286.0 910.5,286.0 914.4,286.0 918.4,286.0 922.3,286.0 926.2,280.0 930.1,286.0 934.1,286.0 938.0,286.0"/><text x="42" y="308" font-size="11" fill="#5a688a">19/06 12:43</text><text x="938" y="308" text-anchor="end" font-size="11" fill="#5a688a">02/07 07:29</text></svg>