<svg xmlns="http://www.w3.org/2000/svg" viewBox="0 0 960 320" width="960" height="320" font-family="Segoe UI, system-ui, -apple-system, Roboto, Helvetica, Arial, sans-serif" role="img" aria-label="Availability history per region"><rect x="0.5" y="0.5" width="959" height="319" rx="14" fill="#0d1117" stroke="#2c3a5e"/><text x="42" y="26" font-size="14" font-weight="600" fill="#e6ecff">History · 143 points</text><circle cx="47" cy="40" r="5" fill="#22c55e"/><text x="57" y="44" font-size="12" fill="#9fb0d4">Available</text><circle cx="139.8" cy="40" r="5" fill="#f59e0b"/><text x="149.8" y="44" font-size="12" fill="#9fb0d4">Saturated</text><circle cx="232.60000000000002" cy="40" r="5" fill="#ef4444"/><text x="242.60000000000002" y="44" font-size="12" fill="#9fb0d4">Error</text><circle cx="296.6" cy="40" r="5" fill="#a855f7"/><text x="306.6" y="44" font-size="12" fill="#9fb0d4">Timeout</text><line x1="42" y1="286.0" x2="938" y2="286.0" stroke="#21304f" stroke-width="1"/><text x="35" y="289.0" text-anchor="end" font-size="11" fill="#9fb0d4">0</text><line x1="42" y1="227.5" x2="938" y2="227.5" stroke="#21304f" stroke-width="1"/><text x="35" y="230.5" text-anchor="end" font-size="11" fill="#9fb0d4">10</text><line x1="42" y1="169.0" x2="938" y2="169.0" stroke="#21304f" stroke-width="1"/><text x="35" y="172.0" text-anchor="end" font-size="11" fill="#9fb0d4">19</text><line x1="42" y1="110.5" x2="938" y2="110.5" stroke="#21304f" stroke-width="1"/><text x="35" y="113.5" text-anchor="end" font-size="11" fill="#9fb0d4">28</text><line x1="42" y1="52.0" x2="938" y2="52.0" stroke="#21304f" stroke-width="1"/><text x="35" y="55.0" text-anchor="end" font-size="11" fill="#9fb0d4">38</text><polyline fill="none" stroke="#22c55e" stroke-width="2.5" stroke-linejoin="round" stroke-linecap="round" points="42.0,64.3 48.3,224.4 54.6,82.8 60.9,88.9 67.2,82.8 73.5,76.6 79.9,76.6 86.2,76.6 92.5,76.6 98.8,76.6 105.1,76.6 111.4,76.6 117.7,76.6 124.0,76.6 130.3,76.6 136.6,70.5 143.0,70.5 149.3,82.8 155.6,82.8 161.9,82.8 168.2,88.9 174.5,88.9 180.8,88.9 187.1,88.9 193.4,88.9 199.7,88.9 206.1,88.9 212.4,88.9 218.7,88.9 225.0,82.8 231.3,82.8 237.6,82.8 243.9,82.8 250.2,76.6 256.5,76.6 262.8,76.6 269.2,76.6 275.5,76.6 281.8,82.8 288.1,82.8 294.4,82.8 300.7,82.8 307.0,76.6 313.3,76.6 319.6,76.6 325.9,76.6 332.3,76.6 338.6,76.6 344.9,76.6 351.2,82.8 357.5,82.8 363.8,82.8 370.1,82.8 376.4,76.6 382.7,76.6 389.0,76.6 395.4,76.6 401.7,76.6 408.0,76.6 414.3,76.6 420.6,76.6 426.9,82.8 433.2,76.6 439.5,76.6 445.8,76.6 452.1,76.6 458.5,76.6 464.8,82.8 471.1,76.6 477.4,76.6 483.7,76.6 490.0,76.6 496.3,76.6 502.6,76.6 508.9,76.6 515.2,76.6 521.5,76.6 527.9,70.5 534.2,70.5 540.5,70.5 546.8,70.5 553.1,76.6 559.4,70.5 565.7,76.6 572.0,76.6 578.3,76.6 584.6,76.6 591.0,76.6 597.3,76.6 603.6,82.8 609.9,88.9 616.2,88.9 622.5,88.9 628.8,88.9 635.1,88.9 641.4,88.9 647.7,88.9 654.1,95.1 660.4,88.9 666.7,88.9 673.0,88.9 679.3,88.9 685.6,88.9 691.9,88.9 698.2,82.8 704.5,82.8 710.8,82.8 717.2,82.8 723.5,82.8 729.8,82.8 736.1,82.8 742.4,82.8 748.7,88.9 755.0,88.9 761.3,88.9 767.6,88.9 773.9,88.9 780.3,88.9 786.6,88.9 792.9,88.9 799.2,95.1 805.5,88.9 811.8,88.9 818.1,88.9 824.4,101.3 830.7,88.9 837.0,88.9 843.4,88.9 849.7,88.9 856.0,82.8 862.3,82.8 868.6,82.8 874.9,82.8 881.2,88.9 887.5,82.8 893.8,88.9 900.1,88.9 906.5,88.9 912.8,88.9 919.1,95.1 925.4,88.9 931.7,88.9 938.0,88.9"/><polyline fill="none" stroke="#f59e0b" stroke-width="2.5" stroke-linejoin="round" stroke-linecap="round" points="42.0,273.7 48.3,267.5 54.6,255.2 60.9,249.1 67.2,255.2 73.5,261.4 79.9,261.4 86.2,261.4 92.5,261.4 98.8,261.4 105.1,261.4 111.4,261.4 117.7,261.4 124.0,261.4 130.3,261.4 136.6,267.5 143.0,267.5 149.3,261.4 155.6,255.2 161.9,255.2 168.2,249.1 174.5,249.1 180.8,249.1 187.1,249.1 193.4,249.1 199.7,249.1 206.1,249.1 212.4,249.1 218.7,249.1 225.0,255.2 231.3,255.2 237.6,255.2 243.9,255.2 250.2,261.4 256.5,261.4 262.8,261.4 269.2,261.4 275.5,261.4 281.8,255.2 288.1,255.2 294.4,255.2 300.7,255.2 307.0,261.4 313.3,261.4 319.6,261.4 325.9,261.4 332.3,261.4 338.6,261.4 344.9,261.4 351.2,255.2 357.5,255.2 363.8,255.2 370.1,261.4 376.4,261.4 382.7,261.4 389.0,261.4 395.4,261.4 401.7,261.4 408.0,261.4 414.3,261.4 420.6,261.4 426.9,255.2 433.2,261.4 439.5,261.4 445.8,261.4 452.1,261.4 458.5,261.4 464.8,261.4 471.1,261.4 477.4,261.4 483.7,261.4 490.0,261.4 496.3,261.4 502.6,261.4 508.9,261.4 515.2,261.4 521.5,261.4 527.9,267.5 534.2,267.5 540.5,267.5 546.8,267.5 553.1,267.5 559.4,267.5 565.7,261.4 572.0,261.4 578.3,261.4 584.6,261.4 591.0,261.4 597.3,261.4 603.6,255.2 609.9,249.1 616.2,249.1 622.5,255.2 628.8,249.1 635.1,249.1 641.4,249.1 647.7,249.1 654.1,249.1 660.4,249.1 666.7,255.2 673.0,249.1 679.3,249.1 685.6,249.1 691.9,249.1 698.2,255.2 704.5,255.2 710.8,255.2 717.2,255.2 723.5,255.2 729.8,255.2 736.1,255.2 742.4,255.2 748.7,249.1 755.0,249.1 761.3,249.1 767.6,249.1 773.9,249.1 780.3,249.1 786.6,249.1 792.9,255.2 799.2,249.1 805.5,249.1 811.8,249.1 818.1,249.1 824.4,249.1 830.7,249.1 837.0,249.1 843.4,255.2 849.7,255.2 856.0,255.2 862.3,255.2 868.6,255.2 874.9,255.2 881.2,255.2 887.5,255.2 893.8,249.1 900.1,249.1 906.5,249.1 912.8,249.1 919.1,249.1 925.4,249.1 931.7,249.1 938.0,249.1"/><polyline fill="none" stroke="#ef4444" stroke-width="2.5" stroke-linejoin="round" stroke-linecap="round" points="42.0,286.0 48.3,132.1 54.6,286.0 60.9,286.0 67.2,286.0 73.5,286.0 79.9,286.0 86.2,286.0 92.5,286.0 98.8,286.0 105.1,286.0 111.4,286.0 117.7,286.0 124.0,286.0 130.3,286.0 136.6,286.0 143.0,286.0 149.3,279.8 155.6,286.0 161.9,286.0 168.2,286.0 174.5,286.0 180.8,286.0 187.1,286.0 193.4,286.0 199.7,286.0 206.1,286.0 212.4,286.0 218.7,286.0 225.0,286.0 231.3,286.0 237.6,286.0 243.9,286.0 250.2,286.0 256.5,286.0 262.8,286.0 269.2,286.0 275.5,286.0 281.8,286.0 288.1,286.0 294.4,286.0 300.7,286.0 307.0,286.0 313.3,286.0 319.6,286.0 325.9,286.0 332.3,286.0 338.6,286.0 344.9,286.0 351.2,286.0 357.5,286.0 363.8,286.0 370.1,286.0 376.4,286.0 382.7,286.0 389.0,286.0 395.4,286.0 401.7,286.0 408.0,286.0 414.3,286.0 420.6,286.0 426.9,286.0 433.2,286.0 439.5,286.0 445.8,286.0 452.1,286.0 458.5,286.0 464.8,279.8 471.1,286.0 477.4,286.0 483.7,286.0 490.0,286.0 496.3,286.0 502.6,286.0 508.9,286.0 515.2,286.0 521.5,286.0 527.9,286.0 534.2,286.0 540.5,286.0 546.8,286.0 553.1,279.8 559.4,286.0 565.7,286.0 572.0,286.0 578.3,286.0 584.6,286.0 591.0,286.0 597.3,286.0 603.6,286.0 609.9,286.0 616.2,286.0 622.5,279.8 628.8,286.0 635.1,286.0 641.4,286.0 647.7,286.0 654.1,279.8 660.4,286.0 666.7,286.0 673.0,286.0 679.3,286.0 685.6,286.0 691.9,286.0 698.2,286.0 704.5,286.0 710.8,286.0 717.2,286.0 723.5,286.0 729.8,286.0 736.1,286.0 742.4,286.0 748.7,286.0 755.0,286.0 761.3,286.0 767.6,286.0 773.9,286.0 780.3,286.0 786.6,286.0 792.9,286.0 799.2,279.8 805.5,286.0 811.8,286.0 818.1,286.0 824.4,273.7 830.7,286.0 837.0,286.0 843.4,279.8 849.7,279.8 856.0,286.0 862.3,286.0 868.6,286.0 874.9,286.0 881.2,279.8 887.5,286.0 893.8,286.0 900.1,286.0 906.5,286.0 912.8,286.0 919.1,286.0 925.4,286.0 931.7,286.0 938.0,286.0"/><polyline fill="none" stroke="#a855f7" stroke-width="2.5" stroke-linejoin="round" stroke-linecap="round" points="42.0,286.0 48.3,286.0 54.6,286.0 60.9,286.0 67.2,286.0 73.5,286.0 79.9,286.0 86.2,286.0 92.5,286.0 98.8,286.0 105.1,286.0 111.4,286.0 117.7,286.0 124.0,286.0 130.3,286.0 136.6,286.0 143.0,286.0 149.3,286.0 155.6,286.0 161.9,286.0 168.2,286.0 174.5,286.0 180.8,286.0 187.1,286.0 193.4,286.0 199.7,286.0 206.1,286.0 212.4,286.0 218.7,286.0 225.0,286.0 231.3,286.0 237.6,286.0 243.9,286.0 250.2,286.0 256.5,286.0 262.8,286.0 269.2,286.0 275.5,286.0 281.8,286.0 288.1,286.0 294.4,286.0 300.7,286.0 307.0,286.0 313.3,286.0 319.6,286.0 325.9,286.0 332.3,286.0 338.6,286.0 344.9,286.0 351.2,286.0 357.5,286.0 363.8,286.0 370.1,279.8 376.4,286.0 382.7,286.0 389.0,286.0 395.4,286.0 401.7,286.0 408.0,286.0 414.3,286.0 420.6,286.0 426.9,286.0 433.2,286.0 439.5,286.0 445.8,286.0 452.1,286.0 458.5,286.0 464.8,286.0 471.1,286.0 477.4,286.0 483.7,286.0 490.0,286.0 496.3,286.0 502.6,286.0 508.9,286.0 515.2,286.0 521.5,286.0 527.9,286.0 534.2,286.0 540.5,286.0 546.8,286.0 553.1,286.0 559.4,286.0 565.7,286.0 572.0,286.0 578.3,286.0 584.6,286.0 591.0,286.0 597.3,286.0 603.6,286.0 609.9,286.0 616.2,286.0 622.5,286.0 628.8,286.0 635.1,286.0 641.4,286.0 647.7,286.0 654.1,286.0 660.4,286.0 666.7,279.8 673.0,286.0 679.3,286.0 685.6,286.0 691.9,286.0 698.2,286.0 704.5,286.0 710.8,286.0 717.2,286.0 723.5,286.0 729.8,286.0 736.1,286.0 742.4,286.0 748.7,286.0 755.0,286.0 761.3,286.0 767.6,286.0 773.9,286.0 780.3,286.0 786.6,286.0 792.9,279.8 799.2,286.0 805.5,286.0 811.8,286.0 818.1,286.0 824.4,286.0 830.7,286.0 837.0,286.0 843.4,286.0 849.7,286.0 856.0,286.0 862.3,286.0 868.6,286.0 874.9,286.0 881.2,286.0 887.5,286.0 893.8,286.0 900.1,286.0 906.5,286.0 912.8,286.0 919.1,279.8 925.4,286.0 931.7,286.0 938.0,286.0"/><text x="42" y="308" font-size="11" fill="#9fb0d4">19/06 15:39</text><text x="938" y="308" text-anchor="end" font-size="11" fill="#9fb0d4">22/07 13:29</text></svg>