<svg xmlns="http://www.w3.org/2000/svg" viewBox="0 0 960 320" width="960" height="320" font-family="Segoe UI, system-ui, -apple-system, Roboto, Helvetica, Arial, sans-serif" role="img" aria-label="Availability history per region"><rect x="0.5" y="0.5" width="959" height="319" rx="14" fill="#ffffff" stroke="#dce3f1"/><text x="42" y="26" font-size="14" font-weight="600" fill="#14203a">History · 200 points</text><circle cx="47" cy="40" r="5" fill="#22c55e"/><text x="57" y="44" font-size="12" fill="#5a688a">Available</text><circle cx="139.8" cy="40" r="5" fill="#f59e0b"/><text x="149.8" y="44" font-size="12" fill="#5a688a">Saturated</text><circle cx="232.60000000000002" cy="40" r="5" fill="#ef4444"/><text x="242.60000000000002" y="44" font-size="12" fill="#5a688a">Error</text><circle cx="296.6" cy="40" r="5" fill="#a855f7"/><text x="306.6" y="44" font-size="12" fill="#5a688a">Timeout</text><line x1="42" y1="286.0" x2="938" y2="286.0" stroke="#eef2f7" stroke-width="1"/><text x="35" y="289.0" text-anchor="end" font-size="11" fill="#5a688a">0</text><line x1="42" y1="227.5" x2="938" y2="227.5" stroke="#eef2f7" stroke-width="1"/><text x="35" y="230.5" text-anchor="end" font-size="11" fill="#5a688a">10</text><line x1="42" y1="169.0" x2="938" y2="169.0" stroke="#eef2f7" stroke-width="1"/><text x="35" y="172.0" text-anchor="end" font-size="11" fill="#5a688a">20</text><line x1="42" y1="110.5" x2="938" y2="110.5" stroke="#eef2f7" stroke-width="1"/><text x="35" y="113.5" text-anchor="end" font-size="11" fill="#5a688a">29</text><line x1="42" y1="52.0" x2="938" y2="52.0" stroke="#eef2f7" stroke-width="1"/><text x="35" y="55.0" text-anchor="end" font-size="11" fill="#5a688a">39</text><polyline fill="none" stroke="#22c55e" stroke-width="2.5" stroke-linejoin="round" stroke-linecap="round" points="42.0,70.0 46.5,70.0 51.0,88.0 55.5,88.0 60.0,76.0 64.5,76.0 69.0,76.0 73.5,70.0 78.0,76.0 82.5,70.0 87.0,64.0 91.5,58.0 96.0,58.0 100.5,58.0 105.0,58.0 109.5,58.0 114.0,58.0 118.5,58.0 123.0,58.0 127.5,58.0 132.1,58.0 136.6,58.0 141.1,58.0 145.6,58.0 150.1,58.0 154.6,58.0 159.1,58.0 163.6,58.0 168.1,58.0 172.6,58.0 177.1,58.0 181.6,70.0 186.1,76.0 190.6,94.0 195.1,64.0 199.6,64.0 204.1,58.0 208.6,58.0 213.1,58.0 217.6,70.0 222.1,76.0 226.6,76.0 231.1,82.0 235.6,82.0 240.1,82.0 244.6,82.0 249.1,76.0 253.6,64.0 258.1,70.0 262.6,70.0 267.1,82.0 271.6,76.0 276.1,76.0 280.6,82.0 285.1,76.0 289.6,76.0 294.1,76.0 298.6,64.0 303.1,64.0 307.6,76.0 312.2,76.0 316.7,76.0 321.2,88.0 325.7,70.0 330.2,64.0 334.7,58.0 339.2,58.0 343.7,70.0 348.2,70.0 352.7,70.0 357.2,76.0 361.7,70.0 366.2,70.0 370.7,70.0 375.2,70.0 379.7,76.0 384.2,82.0 388.7,76.0 393.2,70.0 397.7,70.0 402.2,70.0 406.7,70.0 411.2,76.0 415.7,70.0 420.2,70.0 424.7,70.0 429.2,70.0 433.7,70.0 438.2,70.0 442.7,70.0 447.2,70.0 451.7,70.0 456.2,70.0 460.7,70.0 465.2,70.0 469.7,70.0 474.2,70.0 478.7,70.0 483.2,70.0 487.7,70.0 492.3,70.0 496.8,70.0 501.3,70.0 505.8,70.0 510.3,70.0 514.8,70.0 519.3,70.0 523.8,70.0 528.3,70.0 532.8,70.0 537.3,70.0 541.8,70.0 546.3,70.0 550.8,70.0 555.3,70.0 559.8,70.0 564.3,70.0 568.8,70.0 573.3,70.0 577.8,70.0 582.3,70.0 586.8,70.0 591.3,70.0 595.8,70.0 600.3,70.0 604.8,70.0 609.3,70.0 613.8,70.0 618.3,70.0 622.8,70.0 627.3,70.0 631.8,70.0 636.3,70.0 640.8,70.0 645.3,70.0 649.8,70.0 654.3,70.0 658.8,70.0 663.3,70.0 667.8,70.0 672.4,70.0 676.9,70.0 681.4,70.0 685.9,70.0 690.4,70.0 694.9,70.0 699.4,70.0 703.9,70.0 708.4,70.0 712.9,70.0 717.4,70.0 721.9,76.0 726.4,70.0 730.9,70.0 735.4,70.0 739.9,70.0 744.4,70.0 748.9,76.0 753.4,76.0 757.9,88.0 762.4,88.0 766.9,88.0 771.4,94.0 775.9,94.0 780.4,94.0 784.9,94.0 789.4,88.0 793.9,88.0 798.4,82.0 802.9,82.0 807.4,82.0 811.9,88.0 816.4,88.0 820.9,94.0 825.4,82.0 829.9,82.0 834.4,82.0 838.9,82.0 843.4,88.0 847.9,88.0 852.5,94.0 857.0,94.0 861.5,88.0 866.0,88.0 870.5,88.0 875.0,94.0 879.5,94.0 884.0,106.0 888.5,94.0 893.0,94.0 897.5,94.0 902.0,94.0 906.5,88.0 911.0,88.0 915.5,82.0 920.0,76.0 924.5,76.0 929.0,76.0 933.5,76.0 938.0,76.0"/><polyline fill="none" stroke="#f59e0b" stroke-width="2.5" stroke-linejoin="round" stroke-linecap="round" points="42.0,274.0 46.5,274.0 51.0,274.0 55.5,280.0 60.0,268.0 64.5,268.0 69.0,268.0 73.5,274.0 78.0,274.0 82.5,274.0 87.0,280.0 91.5,286.0 96.0,286.0 100.5,286.0 105.0,286.0 109.5,286.0 114.0,286.0 118.5,286.0 123.0,286.0 127.5,286.0 132.1,286.0 136.6,286.0 141.1,286.0 145.6,286.0 150.1,286.0 154.6,286.0 159.1,286.0 163.6,286.0 168.1,286.0 172.6,286.0 177.1,286.0 181.6,274.0 186.1,280.0 190.6,280.0 195.1,280.0 199.6,280.0 204.1,286.0 208.6,286.0 213.1,286.0 217.6,274.0 222.1,268.0 226.6,268.0 231.1,262.0 235.6,262.0 240.1,262.0 244.6,262.0 249.1,268.0 253.6,280.0 258.1,280.0 262.6,274.0 267.1,262.0 271.6,268.0 276.1,268.0 280.6,262.0 285.1,268.0 289.6,268.0 294.1,268.0 298.6,280.0 303.1,280.0 307.6,268.0 312.2,268.0 316.7,268.0 321.2,262.0 325.7,274.0 330.2,280.0 334.7,286.0 339.2,286.0 343.7,274.0 348.2,274.0 352.7,274.0 357.2,274.0 361.7,274.0 366.2,274.0 370.7,274.0 375.2,274.0 379.7,280.0 384.2,274.0 388.7,280.0 393.2,286.0 397.7,286.0 402.2,286.0 406.7,286.0 411.2,280.0 415.7,286.0 420.2,286.0 424.7,286.0 429.2,286.0 433.7,286.0 438.2,286.0 442.7,286.0 447.2,286.0 451.7,286.0 456.2,286.0 460.7,286.0 465.2,286.0 469.7,286.0 474.2,286.0 478.7,286.0 483.2,286.0 487.7,286.0 492.3,286.0 496.8,286.0 501.3,286.0 505.8,286.0 510.3,286.0 514.8,286.0 519.3,286.0 523.8,286.0 528.3,286.0 532.8,286.0 537.3,286.0 541.8,286.0 546.3,286.0 550.8,286.0 555.3,286.0 559.8,286.0 564.3,286.0 568.8,286.0 573.3,286.0 577.8,286.0 582.3,286.0 586.8,286.0 591.3,286.0 595.8,286.0 600.3,286.0 604.8,286.0 609.3,286.0 613.8,286.0 618.3,286.0 622.8,286.0 627.3,286.0 631.8,286.0 636.3,286.0 640.8,286.0 645.3,286.0 649.8,286.0 654.3,286.0 658.8,286.0 663.3,286.0 667.8,286.0 672.4,286.0 676.9,286.0 681.4,286.0 685.9,286.0 690.4,286.0 694.9,286.0 699.4,286.0 703.9,286.0 708.4,286.0 712.9,286.0 717.4,286.0 721.9,286.0 726.4,286.0 730.9,286.0 735.4,286.0 739.9,286.0 744.4,286.0 748.9,286.0 753.4,280.0 757.9,268.0 762.4,268.0 766.9,268.0 771.4,268.0 775.9,262.0 780.4,262.0 784.9,262.0 789.4,268.0 793.9,268.0 798.4,274.0 802.9,274.0 807.4,274.0 811.9,268.0 816.4,268.0 820.9,268.0 825.4,274.0 829.9,274.0 834.4,274.0 838.9,274.0 843.4,268.0 847.9,268.0 852.5,262.0 857.0,262.0 861.5,268.0 866.0,268.0 870.5,268.0 875.0,262.0 879.5,262.0 884.0,274.0 888.5,262.0 893.0,262.0 897.5,262.0 902.0,262.0 906.5,268.0 911.0,268.0 915.5,274.0 920.0,280.0 924.5,280.0 929.0,280.0 933.5,280.0 938.0,280.0"/><polyline fill="none" stroke="#ef4444" stroke-width="2.5" stroke-linejoin="round" stroke-linecap="round" points="42.0,280.0 46.5,280.0 51.0,268.0 55.5,262.0 60.0,286.0 64.5,286.0 69.0,286.0 73.5,286.0 78.0,280.0 82.5,286.0 87.0,286.0 91.5,286.0 96.0,286.0 100.5,286.0 105.0,286.0 109.5,286.0 114.0,286.0 118.5,286.0 123.0,286.0 127.5,286.0 132.1,286.0 136.6,286.0 141.1,286.0 145.6,286.0 150.1,286.0 154.6,286.0 159.1,286.0 163.6,286.0 168.1,286.0 172.6,286.0 177.1,286.0 181.6,286.0 186.1,274.0 190.6,256.0 195.1,286.0 199.6,286.0 204.1,286.0 208.6,286.0 213.1,286.0 217.6,286.0 222.1,286.0 226.6,286.0 231.1,286.0 235.6,286.0 240.1,286.0 244.6,286.0 249.1,286.0 253.6,286.0 258.1,280.0 262.6,286.0 267.1,286.0 271.6,286.0 276.1,286.0 280.6,286.0 285.1,286.0 289.6,286.0 294.1,286.0 298.6,286.0 303.1,286.0 307.6,286.0 312.2,286.0 316.7,286.0 321.2,280.0 325.7,286.0 330.2,286.0 334.7,286.0 339.2,286.0 343.7,286.0 348.2,286.0 352.7,286.0 357.2,286.0 361.7,286.0 366.2,286.0 370.7,286.0 375.2,286.0 379.7,274.0 384.2,274.0 388.7,274.0 393.2,274.0 397.7,274.0 402.2,274.0 406.7,274.0 411.2,274.0 415.7,274.0 420.2,274.0 424.7,274.0 429.2,274.0 433.7,274.0 438.2,274.0 442.7,274.0 447.2,274.0 451.7,274.0 456.2,274.0 460.7,274.0 465.2,274.0 469.7,274.0 474.2,274.0 478.7,274.0 483.2,274.0 487.7,274.0 492.3,274.0 496.8,274.0 501.3,274.0 505.8,274.0 510.3,274.0 514.8,274.0 519.3,274.0 523.8,274.0 528.3,274.0 532.8,274.0 537.3,274.0 541.8,274.0 546.3,274.0 550.8,274.0 555.3,274.0 559.8,274.0 564.3,274.0 568.8,274.0 573.3,274.0 577.8,274.0 582.3,274.0 586.8,274.0 591.3,274.0 595.8,274.0 600.3,274.0 604.8,274.0 609.3,274.0 613.8,274.0 618.3,274.0 622.8,274.0 627.3,274.0 631.8,274.0 636.3,274.0 640.8,274.0 645.3,274.0 649.8,274.0 654.3,274.0 658.8,274.0 663.3,274.0 667.8,274.0 672.4,274.0 676.9,274.0 681.4,274.0 685.9,274.0 690.4,274.0 694.9,274.0 699.4,274.0 703.9,274.0 708.4,274.0 712.9,274.0 717.4,274.0 721.9,268.0 726.4,274.0 730.9,274.0 735.4,274.0 739.9,274.0 744.4,274.0 748.9,274.0 753.4,274.0 757.9,274.0 762.4,274.0 766.9,274.0 771.4,268.0 775.9,274.0 780.4,274.0 784.9,274.0 789.4,274.0 793.9,274.0 798.4,274.0 802.9,274.0 807.4,274.0 811.9,274.0 816.4,274.0 820.9,268.0 825.4,274.0 829.9,274.0 834.4,274.0 838.9,274.0 843.4,274.0 847.9,274.0 852.5,274.0 857.0,274.0 861.5,274.0 866.0,274.0 870.5,274.0 875.0,274.0 879.5,274.0 884.0,250.0 888.5,274.0 893.0,274.0 897.5,274.0 902.0,274.0 906.5,274.0 911.0,274.0 915.5,274.0 920.0,274.0 924.5,274.0 929.0,274.0 933.5,274.0 938.0,274.0"/><polyline fill="none" stroke="#a855f7" stroke-width="2.5" stroke-linejoin="round" stroke-linecap="round" points="42.0,286.0 46.5,286.0 51.0,286.0 55.5,286.0 60.0,286.0 64.5,286.0 69.0,286.0 73.5,286.0 78.0,286.0 82.5,286.0 87.0,286.0 91.5,286.0 96.0,286.0 100.5,286.0 105.0,286.0 109.5,286.0 114.0,286.0 118.5,286.0 123.0,286.0 127.5,286.0 132.1,286.0 136.6,286.0 141.1,286.0 145.6,286.0 150.1,286.0 154.6,286.0 159.1,286.0 163.6,286.0 168.1,286.0 172.6,286.0 177.1,286.0 181.6,286.0 186.1,286.0 190.6,286.0 195.1,286.0 199.6,286.0 204.1,286.0 208.6,286.0 213.1,286.0 217.6,286.0 222.1,286.0 226.6,286.0 231.1,286.0 235.6,286.0 240.1,286.0 244.6,286.0 249.1,286.0 253.6,286.0 258.1,286.0 262.6,286.0 267.1,286.0 271.6,286.0 276.1,286.0 280.6,286.0 285.1,286.0 289.6,286.0 294.1,286.0 298.6,286.0 303.1,286.0 307.6,286.0 312.2,286.0 316.7,286.0 321.2,286.0 325.7,286.0 330.2,286.0 334.7,286.0 339.2,286.0 343.7,286.0 348.2,286.0 352.7,286.0 357.2,280.0 361.7,286.0 366.2,286.0 370.7,286.0 375.2,286.0 379.7,286.0 384.2,286.0 388.7,286.0 393.2,286.0 397.7,286.0 402.2,286.0 406.7,286.0 411.2,286.0 415.7,286.0 420.2,286.0 424.7,286.0 429.2,286.0 433.7,286.0 438.2,286.0 442.7,286.0 447.2,286.0 451.7,286.0 456.2,286.0 460.7,286.0 465.2,286.0 469.7,286.0 474.2,286.0 478.7,286.0 483.2,286.0 487.7,286.0 492.3,286.0 496.8,286.0 501.3,286.0 505.8,286.0 510.3,286.0 514.8,286.0 519.3,286.0 523.8,286.0 528.3,286.0 532.8,286.0 537.3,286.0 541.8,286.0 546.3,286.0 550.8,286.0 555.3,286.0 559.8,286.0 564.3,286.0 568.8,286.0 573.3,286.0 577.8,286.0 582.3,286.0 586.8,286.0 591.3,286.0 595.8,286.0 600.3,286.0 604.8,286.0 609.3,286.0 613.8,286.0 618.3,286.0 622.8,286.0 627.3,286.0 631.8,286.0 636.3,286.0 640.8,286.0 645.3,286.0 649.8,286.0 654.3,286.0 658.8,286.0 663.3,286.0 667.8,286.0 672.4,286.0 676.9,286.0 681.4,286.0 685.9,286.0 690.4,286.0 694.9,286.0 699.4,286.0 703.9,286.0 708.4,286.0 712.9,286.0 717.4,286.0 721.9,286.0 726.4,286.0 730.9,286.0 735.4,286.0 739.9,286.0 744.4,286.0 748.9,280.0 753.4,286.0 757.9,286.0 762.4,286.0 766.9,286.0 771.4,286.0 775.9,286.0 780.4,286.0 784.9,286.0 789.4,286.0 793.9,286.0 798.4,286.0 802.9,286.0 807.4,286.0 811.9,286.0 816.4,286.0 820.9,286.0 825.4,286.0 829.9,286.0 834.4,286.0 838.9,286.0 843.4,286.0 847.9,286.0 852.5,286.0 857.0,286.0 861.5,286.0 866.0,286.0 870.5,286.0 875.0,286.0 879.5,286.0 884.0,286.0 888.5,286.0 893.0,286.0 897.5,286.0 902.0,286.0 906.5,286.0 911.0,286.0 915.5,286.0 920.0,286.0 924.5,286.0 929.0,286.0 933.5,286.0 938.0,286.0"/><text x="42" y="308" font-size="11" fill="#5a688a">19/06 12:43</text><text x="938" y="308" text-anchor="end" font-size="11" fill="#5a688a">01/07 02:29</text></svg>