<svg xmlns="http://www.w3.org/2000/svg" viewBox="0 0 960 320" width="960" height="320" font-family="Segoe UI, system-ui, -apple-system, Roboto, Helvetica, Arial, sans-serif" role="img" aria-label="Availability history per region"><rect x="0.5" y="0.5" width="959" height="319" rx="14" fill="#ffffff" stroke="#dce3f1"/><text x="42" y="26" font-size="14" font-weight="600" fill="#14203a">History · 247 points</text><circle cx="47" cy="40" r="5" fill="#22c55e"/><text x="57" y="44" font-size="12" fill="#5a688a">Available</text><circle cx="139.8" cy="40" r="5" fill="#f59e0b"/><text x="149.8" y="44" font-size="12" fill="#5a688a">Saturated</text><circle cx="232.60000000000002" cy="40" r="5" fill="#ef4444"/><text x="242.60000000000002" y="44" font-size="12" fill="#5a688a">Error</text><circle cx="296.6" cy="40" r="5" fill="#a855f7"/><text x="306.6" y="44" font-size="12" fill="#5a688a">Timeout</text><line x1="42" y1="286.0" x2="938" y2="286.0" stroke="#eef2f7" stroke-width="1"/><text x="35" y="289.0" text-anchor="end" font-size="11" fill="#5a688a">0</text><line x1="42" y1="227.5" x2="938" y2="227.5" stroke="#eef2f7" stroke-width="1"/><text x="35" y="230.5" text-anchor="end" font-size="11" fill="#5a688a">10</text><line x1="42" y1="169.0" x2="938" y2="169.0" stroke="#eef2f7" stroke-width="1"/><text x="35" y="172.0" text-anchor="end" font-size="11" fill="#5a688a">20</text><line x1="42" y1="110.5" x2="938" y2="110.5" stroke="#eef2f7" stroke-width="1"/><text x="35" y="113.5" text-anchor="end" font-size="11" fill="#5a688a">29</text><line x1="42" y1="52.0" x2="938" y2="52.0" stroke="#eef2f7" stroke-width="1"/><text x="35" y="55.0" text-anchor="end" font-size="11" fill="#5a688a">39</text><polyline fill="none" stroke="#22c55e" stroke-width="2.5" stroke-linejoin="round" stroke-linecap="round" points="42.0,70.0 45.6,70.0 49.3,88.0 52.9,88.0 56.6,76.0 60.2,76.0 63.9,76.0 67.5,70.0 71.1,76.0 74.8,70.0 78.4,64.0 82.1,58.0 85.7,58.0 89.3,58.0 93.0,58.0 96.6,58.0 100.3,58.0 103.9,58.0 107.6,58.0 111.2,58.0 114.8,58.0 118.5,58.0 122.1,58.0 125.8,58.0 129.4,58.0 133.1,58.0 136.7,58.0 140.3,58.0 144.0,58.0 147.6,58.0 151.3,58.0 154.9,70.0 158.6,76.0 162.2,94.0 165.8,64.0 169.5,64.0 173.1,58.0 176.8,58.0 180.4,58.0 184.0,70.0 187.7,76.0 191.3,76.0 195.0,82.0 198.6,82.0 202.3,82.0 205.9,82.0 209.5,76.0 213.2,64.0 216.8,70.0 220.5,70.0 224.1,82.0 227.8,76.0 231.4,76.0 235.0,82.0 238.7,76.0 242.3,76.0 246.0,76.0 249.6,64.0 253.3,64.0 256.9,76.0 260.5,76.0 264.2,76.0 267.8,88.0 271.5,70.0 275.1,64.0 278.7,58.0 282.4,58.0 286.0,70.0 289.7,70.0 293.3,70.0 297.0,76.0 300.6,70.0 304.2,70.0 307.9,70.0 311.5,70.0 315.2,76.0 318.8,82.0 322.5,76.0 326.1,70.0 329.7,70.0 333.4,70.0 337.0,70.0 340.7,76.0 344.3,70.0 348.0,70.0 351.6,70.0 355.2,70.0 358.9,70.0 362.5,70.0 366.2,70.0 369.8,70.0 373.4,70.0 377.1,70.0 380.7,70.0 384.4,70.0 388.0,70.0 391.7,70.0 395.3,70.0 398.9,70.0 402.6,70.0 406.2,70.0 409.9,70.0 413.5,70.0 417.2,70.0 420.8,70.0 424.4,70.0 428.1,70.0 431.7,70.0 435.4,70.0 439.0,70.0 442.7,70.0 446.3,70.0 449.9,70.0 453.6,70.0 457.2,70.0 460.9,70.0 464.5,70.0 468.1,70.0 471.8,70.0 475.4,70.0 479.1,70.0 482.7,70.0 486.4,70.0 490.0,70.0 493.6,70.0 497.3,70.0 500.9,70.0 504.6,70.0 508.2,70.0 511.9,70.0 515.5,70.0 519.1,70.0 522.8,70.0 526.4,70.0 530.1,70.0 533.7,70.0 537.3,70.0 541.0,70.0 544.6,70.0 548.3,70.0 551.9,70.0 555.6,70.0 559.2,70.0 562.8,70.0 566.5,70.0 570.1,70.0 573.8,70.0 577.4,70.0 581.1,70.0 584.7,70.0 588.3,70.0 592.0,76.0 595.6,70.0 599.3,70.0 602.9,70.0 606.6,70.0 610.2,70.0 613.8,76.0 617.5,76.0 621.1,88.0 624.8,88.0 628.4,88.0 632.0,94.0 635.7,94.0 639.3,94.0 643.0,94.0 646.6,88.0 650.3,88.0 653.9,82.0 657.5,82.0 661.2,82.0 664.8,88.0 668.5,88.0 672.1,94.0 675.8,82.0 679.4,82.0 683.0,82.0 686.7,82.0 690.3,88.0 694.0,88.0 697.6,94.0 701.3,94.0 704.9,88.0 708.5,88.0 712.2,88.0 715.8,94.0 719.5,94.0 723.1,106.0 726.7,94.0 730.4,94.0 734.0,94.0 737.7,94.0 741.3,88.0 745.0,88.0 748.6,82.0 752.2,76.0 755.9,76.0 759.5,76.0 763.2,76.0 766.8,76.0 770.5,76.0 774.1,70.0 777.7,70.0 781.4,70.0 785.0,76.0 788.7,88.0 792.3,82.0 796.0,70.0 799.6,70.0 803.2,70.0 806.9,76.0 810.5,76.0 814.2,76.0 817.8,82.0 821.4,70.0 825.1,76.0 828.7,64.0 832.4,70.0 836.0,58.0 839.7,58.0 843.3,58.0 846.9,58.0 850.6,58.0 854.2,64.0 857.9,58.0 861.5,64.0 865.2,58.0 868.8,58.0 872.4,58.0 876.1,58.0 879.7,64.0 883.4,64.0 887.0,64.0 890.7,76.0 894.3,70.0 897.9,82.0 901.6,70.0 905.2,76.0 908.9,58.0 912.5,64.0 916.1,58.0 919.8,64.0 923.4,58.0 927.1,58.0 930.7,58.0 934.4,64.0 938.0,70.0"/><polyline fill="none" stroke="#f59e0b" stroke-width="2.5" stroke-linejoin="round" stroke-linecap="round" points="42.0,274.0 45.6,274.0 49.3,274.0 52.9,280.0 56.6,268.0 60.2,268.0 63.9,268.0 67.5,274.0 71.1,274.0 74.8,274.0 78.4,280.0 82.1,286.0 85.7,286.0 89.3,286.0 93.0,286.0 96.6,286.0 100.3,286.0 103.9,286.0 107.6,286.0 111.2,286.0 114.8,286.0 118.5,286.0 122.1,286.0 125.8,286.0 129.4,286.0 133.1,286.0 136.7,286.0 140.3,286.0 144.0,286.0 147.6,286.0 151.3,286.0 154.9,274.0 158.6,280.0 162.2,280.0 165.8,280.0 169.5,280.0 173.1,286.0 176.8,286.0 180.4,286.0 184.0,274.0 187.7,268.0 191.3,268.0 195.0,262.0 198.6,262.0 202.3,262.0 205.9,262.0 209.5,268.0 213.2,280.0 216.8,280.0 220.5,274.0 224.1,262.0 227.8,268.0 231.4,268.0 235.0,262.0 238.7,268.0 242.3,268.0 246.0,268.0 249.6,280.0 253.3,280.0 256.9,268.0 260.5,268.0 264.2,268.0 267.8,262.0 271.5,274.0 275.1,280.0 278.7,286.0 282.4,286.0 286.0,274.0 289.7,274.0 293.3,274.0 297.0,274.0 300.6,274.0 304.2,274.0 307.9,274.0 311.5,274.0 315.2,280.0 318.8,274.0 322.5,280.0 326.1,286.0 329.7,286.0 333.4,286.0 337.0,286.0 340.7,280.0 344.3,286.0 348.0,286.0 351.6,286.0 355.2,286.0 358.9,286.0 362.5,286.0 366.2,286.0 369.8,286.0 373.4,286.0 377.1,286.0 380.7,286.0 384.4,286.0 388.0,286.0 391.7,286.0 395.3,286.0 398.9,286.0 402.6,286.0 406.2,286.0 409.9,286.0 413.5,286.0 417.2,286.0 420.8,286.0 424.4,286.0 428.1,286.0 431.7,286.0 435.4,286.0 439.0,286.0 442.7,286.0 446.3,286.0 449.9,286.0 453.6,286.0 457.2,286.0 460.9,286.0 464.5,286.0 468.1,286.0 471.8,286.0 475.4,286.0 479.1,286.0 482.7,286.0 486.4,286.0 490.0,286.0 493.6,286.0 497.3,286.0 500.9,286.0 504.6,286.0 508.2,286.0 511.9,286.0 515.5,286.0 519.1,286.0 522.8,286.0 526.4,286.0 530.1,286.0 533.7,286.0 537.3,286.0 541.0,286.0 544.6,286.0 548.3,286.0 551.9,286.0 555.6,286.0 559.2,286.0 562.8,286.0 566.5,286.0 570.1,286.0 573.8,286.0 577.4,286.0 581.1,286.0 584.7,286.0 588.3,286.0 592.0,286.0 595.6,286.0 599.3,286.0 602.9,286.0 606.6,286.0 610.2,286.0 613.8,286.0 617.5,280.0 621.1,268.0 624.8,268.0 628.4,268.0 632.0,268.0 635.7,262.0 639.3,262.0 643.0,262.0 646.6,268.0 650.3,268.0 653.9,274.0 657.5,274.0 661.2,274.0 664.8,268.0 668.5,268.0 672.1,268.0 675.8,274.0 679.4,274.0 683.0,274.0 686.7,274.0 690.3,268.0 694.0,268.0 697.6,262.0 701.3,262.0 704.9,268.0 708.5,268.0 712.2,268.0 715.8,262.0 719.5,262.0 723.1,274.0 726.7,262.0 730.4,262.0 734.0,262.0 737.7,262.0 741.3,268.0 745.0,268.0 748.6,274.0 752.2,280.0 755.9,280.0 759.5,280.0 763.2,280.0 766.8,280.0 770.5,280.0 774.1,286.0 777.7,286.0 781.4,286.0 785.0,280.0 788.7,274.0 792.3,274.0 796.0,280.0 799.6,274.0 803.2,274.0 806.9,268.0 810.5,268.0 814.2,268.0 817.8,268.0 821.4,280.0 825.1,274.0 828.7,280.0 832.4,280.0 836.0,286.0 839.7,286.0 843.3,286.0 846.9,286.0 850.6,286.0 854.2,286.0 857.9,286.0 861.5,286.0 865.2,286.0 868.8,286.0 872.4,286.0 876.1,286.0 879.7,280.0 883.4,280.0 887.0,280.0 890.7,268.0 894.3,280.0 897.9,268.0 901.6,274.0 905.2,274.0 908.9,286.0 912.5,280.0 916.1,286.0 919.8,280.0 923.4,286.0 927.1,286.0 930.7,286.0 934.4,280.0 938.0,274.0"/><polyline fill="none" stroke="#ef4444" stroke-width="2.5" stroke-linejoin="round" stroke-linecap="round" points="42.0,280.0 45.6,280.0 49.3,268.0 52.9,262.0 56.6,286.0 60.2,286.0 63.9,286.0 67.5,286.0 71.1,280.0 74.8,286.0 78.4,286.0 82.1,286.0 85.7,286.0 89.3,286.0 93.0,286.0 96.6,286.0 100.3,286.0 103.9,286.0 107.6,286.0 111.2,286.0 114.8,286.0 118.5,286.0 122.1,286.0 125.8,286.0 129.4,286.0 133.1,286.0 136.7,286.0 140.3,286.0 144.0,286.0 147.6,286.0 151.3,286.0 154.9,286.0 158.6,274.0 162.2,256.0 165.8,286.0 169.5,286.0 173.1,286.0 176.8,286.0 180.4,286.0 184.0,286.0 187.7,286.0 191.3,286.0 195.0,286.0 198.6,286.0 202.3,286.0 205.9,286.0 209.5,286.0 213.2,286.0 216.8,280.0 220.5,286.0 224.1,286.0 227.8,286.0 231.4,286.0 235.0,286.0 238.7,286.0 242.3,286.0 246.0,286.0 249.6,286.0 253.3,286.0 256.9,286.0 260.5,286.0 264.2,286.0 267.8,280.0 271.5,286.0 275.1,286.0 278.7,286.0 282.4,286.0 286.0,286.0 289.7,286.0 293.3,286.0 297.0,286.0 300.6,286.0 304.2,286.0 307.9,286.0 311.5,286.0 315.2,274.0 318.8,274.0 322.5,274.0 326.1,274.0 329.7,274.0 333.4,274.0 337.0,274.0 340.7,274.0 344.3,274.0 348.0,274.0 351.6,274.0 355.2,274.0 358.9,274.0 362.5,274.0 366.2,274.0 369.8,274.0 373.4,274.0 377.1,274.0 380.7,274.0 384.4,274.0 388.0,274.0 391.7,274.0 395.3,274.0 398.9,274.0 402.6,274.0 406.2,274.0 409.9,274.0 413.5,274.0 417.2,274.0 420.8,274.0 424.4,274.0 428.1,274.0 431.7,274.0 435.4,274.0 439.0,274.0 442.7,274.0 446.3,274.0 449.9,274.0 453.6,274.0 457.2,274.0 460.9,274.0 464.5,274.0 468.1,274.0 471.8,274.0 475.4,274.0 479.1,274.0 482.7,274.0 486.4,274.0 490.0,274.0 493.6,274.0 497.3,274.0 500.9,274.0 504.6,274.0 508.2,274.0 511.9,274.0 515.5,274.0 519.1,274.0 522.8,274.0 526.4,274.0 530.1,274.0 533.7,274.0 537.3,274.0 541.0,274.0 544.6,274.0 548.3,274.0 551.9,274.0 555.6,274.0 559.2,274.0 562.8,274.0 566.5,274.0 570.1,274.0 573.8,274.0 577.4,274.0 581.1,274.0 584.7,274.0 588.3,274.0 592.0,268.0 595.6,274.0 599.3,274.0 602.9,274.0 606.6,274.0 610.2,274.0 613.8,274.0 617.5,274.0 621.1,274.0 624.8,274.0 628.4,274.0 632.0,268.0 635.7,274.0 639.3,274.0 643.0,274.0 646.6,274.0 650.3,274.0 653.9,274.0 657.5,274.0 661.2,274.0 664.8,274.0 668.5,274.0 672.1,268.0 675.8,274.0 679.4,274.0 683.0,274.0 686.7,274.0 690.3,274.0 694.0,274.0 697.6,274.0 701.3,274.0 704.9,274.0 708.5,274.0 712.2,274.0 715.8,274.0 719.5,274.0 723.1,250.0 726.7,274.0 730.4,274.0 734.0,274.0 737.7,274.0 741.3,274.0 745.0,274.0 748.6,274.0 752.2,274.0 755.9,274.0 759.5,274.0 763.2,274.0 766.8,274.0 770.5,274.0 774.1,274.0 777.7,274.0 781.4,274.0 785.0,274.0 788.7,268.0 792.3,274.0 796.0,280.0 799.6,286.0 803.2,286.0 806.9,286.0 810.5,286.0 814.2,286.0 817.8,280.0 821.4,280.0 825.1,286.0 828.7,286.0 832.4,280.0 836.0,286.0 839.7,286.0 843.3,286.0 846.9,286.0 850.6,286.0 854.2,280.0 857.9,286.0 861.5,286.0 865.2,286.0 868.8,286.0 872.4,286.0 876.1,286.0 879.7,286.0 883.4,286.0 887.0,286.0 890.7,286.0 894.3,280.0 897.9,280.0 901.6,286.0 905.2,280.0 908.9,286.0 912.5,286.0 916.1,286.0 919.8,286.0 923.4,286.0 927.1,286.0 930.7,286.0 934.4,286.0 938.0,286.0"/><polyline fill="none" stroke="#a855f7" stroke-width="2.5" stroke-linejoin="round" stroke-linecap="round" points="42.0,286.0 45.6,286.0 49.3,286.0 52.9,286.0 56.6,286.0 60.2,286.0 63.9,286.0 67.5,286.0 71.1,286.0 74.8,286.0 78.4,286.0 82.1,286.0 85.7,286.0 89.3,286.0 93.0,286.0 96.6,286.0 100.3,286.0 103.9,286.0 107.6,286.0 111.2,286.0 114.8,286.0 118.5,286.0 122.1,286.0 125.8,286.0 129.4,286.0 133.1,286.0 136.7,286.0 140.3,286.0 144.0,286.0 147.6,286.0 151.3,286.0 154.9,286.0 158.6,286.0 162.2,286.0 165.8,286.0 169.5,286.0 173.1,286.0 176.8,286.0 180.4,286.0 184.0,286.0 187.7,286.0 191.3,286.0 195.0,286.0 198.6,286.0 202.3,286.0 205.9,286.0 209.5,286.0 213.2,286.0 216.8,286.0 220.5,286.0 224.1,286.0 227.8,286.0 231.4,286.0 235.0,286.0 238.7,286.0 242.3,286.0 246.0,286.0 249.6,286.0 253.3,286.0 256.9,286.0 260.5,286.0 264.2,286.0 267.8,286.0 271.5,286.0 275.1,286.0 278.7,286.0 282.4,286.0 286.0,286.0 289.7,286.0 293.3,286.0 297.0,280.0 300.6,286.0 304.2,286.0 307.9,286.0 311.5,286.0 315.2,286.0 318.8,286.0 322.5,286.0 326.1,286.0 329.7,286.0 333.4,286.0 337.0,286.0 340.7,286.0 344.3,286.0 348.0,286.0 351.6,286.0 355.2,286.0 358.9,286.0 362.5,286.0 366.2,286.0 369.8,286.0 373.4,286.0 377.1,286.0 380.7,286.0 384.4,286.0 388.0,286.0 391.7,286.0 395.3,286.0 398.9,286.0 402.6,286.0 406.2,286.0 409.9,286.0 413.5,286.0 417.2,286.0 420.8,286.0 424.4,286.0 428.1,286.0 431.7,286.0 435.4,286.0 439.0,286.0 442.7,286.0 446.3,286.0 449.9,286.0 453.6,286.0 457.2,286.0 460.9,286.0 464.5,286.0 468.1,286.0 471.8,286.0 475.4,286.0 479.1,286.0 482.7,286.0 486.4,286.0 490.0,286.0 493.6,286.0 497.3,286.0 500.9,286.0 504.6,286.0 508.2,286.0 511.9,286.0 515.5,286.0 519.1,286.0 522.8,286.0 526.4,286.0 530.1,286.0 533.7,286.0 537.3,286.0 541.0,286.0 544.6,286.0 548.3,286.0 551.9,286.0 555.6,286.0 559.2,286.0 562.8,286.0 566.5,286.0 570.1,286.0 573.8,286.0 577.4,286.0 581.1,286.0 584.7,286.0 588.3,286.0 592.0,286.0 595.6,286.0 599.3,286.0 602.9,286.0 606.6,286.0 610.2,286.0 613.8,280.0 617.5,286.0 621.1,286.0 624.8,286.0 628.4,286.0 632.0,286.0 635.7,286.0 639.3,286.0 643.0,286.0 646.6,286.0 650.3,286.0 653.9,286.0 657.5,286.0 661.2,286.0 664.8,286.0 668.5,286.0 672.1,286.0 675.8,286.0 679.4,286.0 683.0,286.0 686.7,286.0 690.3,286.0 694.0,286.0 697.6,286.0 701.3,286.0 704.9,286.0 708.5,286.0 712.2,286.0 715.8,286.0 719.5,286.0 723.1,286.0 726.7,286.0 730.4,286.0 734.0,286.0 737.7,286.0 741.3,286.0 745.0,286.0 748.6,286.0 752.2,286.0 755.9,286.0 759.5,286.0 763.2,286.0 766.8,286.0 770.5,286.0 774.1,286.0 777.7,286.0 781.4,286.0 785.0,286.0 788.7,286.0 792.3,286.0 796.0,286.0 799.6,286.0 803.2,286.0 806.9,286.0 810.5,286.0 814.2,286.0 817.8,286.0 821.4,286.0 825.1,280.0 828.7,286.0 832.4,286.0 836.0,286.0 839.7,286.0 843.3,286.0 846.9,286.0 850.6,286.0 854.2,286.0 857.9,286.0 861.5,280.0 865.2,286.0 868.8,286.0 872.4,286.0 876.1,286.0 879.7,286.0 883.4,286.0 887.0,286.0 890.7,286.0 894.3,286.0 897.9,286.0 901.6,286.0 905.2,286.0 908.9,286.0 912.5,286.0 916.1,286.0 919.8,286.0 923.4,286.0 927.1,286.0 930.7,286.0 934.4,286.0 938.0,286.0"/><text x="42" y="308" font-size="11" fill="#5a688a">19/06 12:43</text><text x="938" y="308" text-anchor="end" font-size="11" fill="#5a688a">03/07 07:29</text></svg>