<svg xmlns="http://www.w3.org/2000/svg" viewBox="0 0 960 320" width="960" height="320" font-family="Segoe UI, system-ui, -apple-system, Roboto, Helvetica, Arial, sans-serif" role="img" aria-label="Availability history per region"><rect x="0.5" y="0.5" width="959" height="319" rx="14" fill="#0d1117" stroke="#2c3a5e"/><text x="42" y="26" font-size="14" font-weight="600" fill="#e6ecff">History · 234 points</text><circle cx="47" cy="40" r="5" fill="#22c55e"/><text x="57" y="44" font-size="12" fill="#9fb0d4">Available</text><circle cx="139.8" cy="40" r="5" fill="#f59e0b"/><text x="149.8" y="44" font-size="12" fill="#9fb0d4">Saturated</text><circle cx="232.60000000000002" cy="40" r="5" fill="#ef4444"/><text x="242.60000000000002" y="44" font-size="12" fill="#9fb0d4">Error</text><circle cx="296.6" cy="40" r="5" fill="#a855f7"/><text x="306.6" y="44" font-size="12" fill="#9fb0d4">Timeout</text><line x1="42" y1="286.0" x2="938" y2="286.0" stroke="#21304f" stroke-width="1"/><text x="35" y="289.0" text-anchor="end" font-size="11" fill="#9fb0d4">0</text><line x1="42" y1="227.5" x2="938" y2="227.5" stroke="#21304f" stroke-width="1"/><text x="35" y="230.5" text-anchor="end" font-size="11" fill="#9fb0d4">10</text><line x1="42" y1="169.0" x2="938" y2="169.0" stroke="#21304f" stroke-width="1"/><text x="35" y="172.0" text-anchor="end" font-size="11" fill="#9fb0d4">20</text><line x1="42" y1="110.5" x2="938" y2="110.5" stroke="#21304f" stroke-width="1"/><text x="35" y="113.5" text-anchor="end" font-size="11" fill="#9fb0d4">29</text><line x1="42" y1="52.0" x2="938" y2="52.0" stroke="#21304f" stroke-width="1"/><text x="35" y="55.0" text-anchor="end" font-size="11" fill="#9fb0d4">39</text><polyline fill="none" stroke="#22c55e" stroke-width="2.5" stroke-linejoin="round" stroke-linecap="round" points="42.0,70.0 45.8,70.0 49.7,88.0 53.5,88.0 57.4,76.0 61.2,76.0 65.1,76.0 68.9,70.0 72.8,76.0 76.6,70.0 80.5,64.0 84.3,58.0 88.1,58.0 92.0,58.0 95.8,58.0 99.7,58.0 103.5,58.0 107.4,58.0 111.2,58.0 115.1,58.0 118.9,58.0 122.8,58.0 126.6,58.0 130.4,58.0 134.3,58.0 138.1,58.0 142.0,58.0 145.8,58.0 149.7,58.0 153.5,58.0 157.4,58.0 161.2,70.0 165.1,76.0 168.9,94.0 172.7,64.0 176.6,64.0 180.4,58.0 184.3,58.0 188.1,58.0 192.0,70.0 195.8,76.0 199.7,76.0 203.5,82.0 207.4,82.0 211.2,82.0 215.0,82.0 218.9,76.0 222.7,64.0 226.6,70.0 230.4,70.0 234.3,82.0 238.1,76.0 242.0,76.0 245.8,82.0 249.7,76.0 253.5,76.0 257.3,76.0 261.2,64.0 265.0,64.0 268.9,76.0 272.7,76.0 276.6,76.0 280.4,88.0 284.3,70.0 288.1,64.0 292.0,58.0 295.8,58.0 299.6,70.0 303.5,70.0 307.3,70.0 311.2,76.0 315.0,70.0 318.9,70.0 322.7,70.0 326.6,70.0 330.4,76.0 334.3,82.0 338.1,76.0 341.9,70.0 345.8,70.0 349.6,70.0 353.5,70.0 357.3,76.0 361.2,70.0 365.0,70.0 368.9,70.0 372.7,70.0 376.6,70.0 380.4,70.0 384.2,70.0 388.1,70.0 391.9,70.0 395.8,70.0 399.6,70.0 403.5,70.0 407.3,70.0 411.2,70.0 415.0,70.0 418.9,70.0 422.7,70.0 426.5,70.0 430.4,70.0 434.2,70.0 438.1,70.0 441.9,70.0 445.8,70.0 449.6,70.0 453.5,70.0 457.3,70.0 461.2,70.0 465.0,70.0 468.8,70.0 472.7,70.0 476.5,70.0 480.4,70.0 484.2,70.0 488.1,70.0 491.9,70.0 495.8,70.0 499.6,70.0 503.5,70.0 507.3,70.0 511.2,70.0 515.0,70.0 518.8,70.0 522.7,70.0 526.5,70.0 530.4,70.0 534.2,70.0 538.1,70.0 541.9,70.0 545.8,70.0 549.6,70.0 553.5,70.0 557.3,70.0 561.1,70.0 565.0,70.0 568.8,70.0 572.7,70.0 576.5,70.0 580.4,70.0 584.2,70.0 588.1,70.0 591.9,70.0 595.8,70.0 599.6,70.0 603.4,70.0 607.3,70.0 611.1,70.0 615.0,70.0 618.8,70.0 622.7,76.0 626.5,70.0 630.4,70.0 634.2,70.0 638.1,70.0 641.9,70.0 645.7,76.0 649.6,76.0 653.4,88.0 657.3,88.0 661.1,88.0 665.0,94.0 668.8,94.0 672.7,94.0 676.5,94.0 680.4,88.0 684.2,88.0 688.0,82.0 691.9,82.0 695.7,82.0 699.6,88.0 703.4,88.0 707.3,94.0 711.1,82.0 715.0,82.0 718.8,82.0 722.7,82.0 726.5,88.0 730.3,88.0 734.2,94.0 738.0,94.0 741.9,88.0 745.7,88.0 749.6,88.0 753.4,94.0 757.3,94.0 761.1,106.0 765.0,94.0 768.8,94.0 772.6,94.0 776.5,94.0 780.3,88.0 784.2,88.0 788.0,82.0 791.9,76.0 795.7,76.0 799.6,76.0 803.4,76.0 807.3,76.0 811.1,76.0 814.9,70.0 818.8,70.0 822.6,70.0 826.5,76.0 830.3,88.0 834.2,82.0 838.0,70.0 841.9,70.0 845.7,70.0 849.6,76.0 853.4,76.0 857.2,76.0 861.1,82.0 864.9,70.0 868.8,76.0 872.6,64.0 876.5,70.0 880.3,58.0 884.2,58.0 888.0,58.0 891.9,58.0 895.7,58.0 899.5,64.0 903.4,58.0 907.2,64.0 911.1,58.0 914.9,58.0 918.8,58.0 922.6,58.0 926.5,64.0 930.3,64.0 934.2,64.0 938.0,76.0"/><polyline fill="none" stroke="#f59e0b" stroke-width="2.5" stroke-linejoin="round" stroke-linecap="round" points="42.0,274.0 45.8,274.0 49.7,274.0 53.5,280.0 57.4,268.0 61.2,268.0 65.1,268.0 68.9,274.0 72.8,274.0 76.6,274.0 80.5,280.0 84.3,286.0 88.1,286.0 92.0,286.0 95.8,286.0 99.7,286.0 103.5,286.0 107.4,286.0 111.2,286.0 115.1,286.0 118.9,286.0 122.8,286.0 126.6,286.0 130.4,286.0 134.3,286.0 138.1,286.0 142.0,286.0 145.8,286.0 149.7,286.0 153.5,286.0 157.4,286.0 161.2,274.0 165.1,280.0 168.9,280.0 172.7,280.0 176.6,280.0 180.4,286.0 184.3,286.0 188.1,286.0 192.0,274.0 195.8,268.0 199.7,268.0 203.5,262.0 207.4,262.0 211.2,262.0 215.0,262.0 218.9,268.0 222.7,280.0 226.6,280.0 230.4,274.0 234.3,262.0 238.1,268.0 242.0,268.0 245.8,262.0 249.7,268.0 253.5,268.0 257.3,268.0 261.2,280.0 265.0,280.0 268.9,268.0 272.7,268.0 276.6,268.0 280.4,262.0 284.3,274.0 288.1,280.0 292.0,286.0 295.8,286.0 299.6,274.0 303.5,274.0 307.3,274.0 311.2,274.0 315.0,274.0 318.9,274.0 322.7,274.0 326.6,274.0 330.4,280.0 334.3,274.0 338.1,280.0 341.9,286.0 345.8,286.0 349.6,286.0 353.5,286.0 357.3,280.0 361.2,286.0 365.0,286.0 368.9,286.0 372.7,286.0 376.6,286.0 380.4,286.0 384.2,286.0 388.1,286.0 391.9,286.0 395.8,286.0 399.6,286.0 403.5,286.0 407.3,286.0 411.2,286.0 415.0,286.0 418.9,286.0 422.7,286.0 426.5,286.0 430.4,286.0 434.2,286.0 438.1,286.0 441.9,286.0 445.8,286.0 449.6,286.0 453.5,286.0 457.3,286.0 461.2,286.0 465.0,286.0 468.8,286.0 472.7,286.0 476.5,286.0 480.4,286.0 484.2,286.0 488.1,286.0 491.9,286.0 495.8,286.0 499.6,286.0 503.5,286.0 507.3,286.0 511.2,286.0 515.0,286.0 518.8,286.0 522.7,286.0 526.5,286.0 530.4,286.0 534.2,286.0 538.1,286.0 541.9,286.0 545.8,286.0 549.6,286.0 553.5,286.0 557.3,286.0 561.1,286.0 565.0,286.0 568.8,286.0 572.7,286.0 576.5,286.0 580.4,286.0 584.2,286.0 588.1,286.0 591.9,286.0 595.8,286.0 599.6,286.0 603.4,286.0 607.3,286.0 611.1,286.0 615.0,286.0 618.8,286.0 622.7,286.0 626.5,286.0 630.4,286.0 634.2,286.0 638.1,286.0 641.9,286.0 645.7,286.0 649.6,280.0 653.4,268.0 657.3,268.0 661.1,268.0 665.0,268.0 668.8,262.0 672.7,262.0 676.5,262.0 680.4,268.0 684.2,268.0 688.0,274.0 691.9,274.0 695.7,274.0 699.6,268.0 703.4,268.0 707.3,268.0 711.1,274.0 715.0,274.0 718.8,274.0 722.7,274.0 726.5,268.0 730.3,268.0 734.2,262.0 738.0,262.0 741.9,268.0 745.7,268.0 749.6,268.0 753.4,262.0 757.3,262.0 761.1,274.0 765.0,262.0 768.8,262.0 772.6,262.0 776.5,262.0 780.3,268.0 784.2,268.0 788.0,274.0 791.9,280.0 795.7,280.0 799.6,280.0 803.4,280.0 807.3,280.0 811.1,280.0 814.9,286.0 818.8,286.0 822.6,286.0 826.5,280.0 830.3,274.0 834.2,274.0 838.0,280.0 841.9,274.0 845.7,274.0 849.6,268.0 853.4,268.0 857.2,268.0 861.1,268.0 864.9,280.0 868.8,274.0 872.6,280.0 876.5,280.0 880.3,286.0 884.2,286.0 888.0,286.0 891.9,286.0 895.7,286.0 899.5,286.0 903.4,286.0 907.2,286.0 911.1,286.0 914.9,286.0 918.8,286.0 922.6,286.0 926.5,280.0 930.3,280.0 934.2,280.0 938.0,268.0"/><polyline fill="none" stroke="#ef4444" stroke-width="2.5" stroke-linejoin="round" stroke-linecap="round" points="42.0,280.0 45.8,280.0 49.7,268.0 53.5,262.0 57.4,286.0 61.2,286.0 65.1,286.0 68.9,286.0 72.8,280.0 76.6,286.0 80.5,286.0 84.3,286.0 88.1,286.0 92.0,286.0 95.8,286.0 99.7,286.0 103.5,286.0 107.4,286.0 111.2,286.0 115.1,286.0 118.9,286.0 122.8,286.0 126.6,286.0 130.4,286.0 134.3,286.0 138.1,286.0 142.0,286.0 145.8,286.0 149.7,286.0 153.5,286.0 157.4,286.0 161.2,286.0 165.1,274.0 168.9,256.0 172.7,286.0 176.6,286.0 180.4,286.0 184.3,286.0 188.1,286.0 192.0,286.0 195.8,286.0 199.7,286.0 203.5,286.0 207.4,286.0 211.2,286.0 215.0,286.0 218.9,286.0 222.7,286.0 226.6,280.0 230.4,286.0 234.3,286.0 238.1,286.0 242.0,286.0 245.8,286.0 249.7,286.0 253.5,286.0 257.3,286.0 261.2,286.0 265.0,286.0 268.9,286.0 272.7,286.0 276.6,286.0 280.4,280.0 284.3,286.0 288.1,286.0 292.0,286.0 295.8,286.0 299.6,286.0 303.5,286.0 307.3,286.0 311.2,286.0 315.0,286.0 318.9,286.0 322.7,286.0 326.6,286.0 330.4,274.0 334.3,274.0 338.1,274.0 341.9,274.0 345.8,274.0 349.6,274.0 353.5,274.0 357.3,274.0 361.2,274.0 365.0,274.0 368.9,274.0 372.7,274.0 376.6,274.0 380.4,274.0 384.2,274.0 388.1,274.0 391.9,274.0 395.8,274.0 399.6,274.0 403.5,274.0 407.3,274.0 411.2,274.0 415.0,274.0 418.9,274.0 422.7,274.0 426.5,274.0 430.4,274.0 434.2,274.0 438.1,274.0 441.9,274.0 445.8,274.0 449.6,274.0 453.5,274.0 457.3,274.0 461.2,274.0 465.0,274.0 468.8,274.0 472.7,274.0 476.5,274.0 480.4,274.0 484.2,274.0 488.1,274.0 491.9,274.0 495.8,274.0 499.6,274.0 503.5,274.0 507.3,274.0 511.2,274.0 515.0,274.0 518.8,274.0 522.7,274.0 526.5,274.0 530.4,274.0 534.2,274.0 538.1,274.0 541.9,274.0 545.8,274.0 549.6,274.0 553.5,274.0 557.3,274.0 561.1,274.0 565.0,274.0 568.8,274.0 572.7,274.0 576.5,274.0 580.4,274.0 584.2,274.0 588.1,274.0 591.9,274.0 595.8,274.0 599.6,274.0 603.4,274.0 607.3,274.0 611.1,274.0 615.0,274.0 618.8,274.0 622.7,268.0 626.5,274.0 630.4,274.0 634.2,274.0 638.1,274.0 641.9,274.0 645.7,274.0 649.6,274.0 653.4,274.0 657.3,274.0 661.1,274.0 665.0,268.0 668.8,274.0 672.7,274.0 676.5,274.0 680.4,274.0 684.2,274.0 688.0,274.0 691.9,274.0 695.7,274.0 699.6,274.0 703.4,274.0 707.3,268.0 711.1,274.0 715.0,274.0 718.8,274.0 722.7,274.0 726.5,274.0 730.3,274.0 734.2,274.0 738.0,274.0 741.9,274.0 745.7,274.0 749.6,274.0 753.4,274.0 757.3,274.0 761.1,250.0 765.0,274.0 768.8,274.0 772.6,274.0 776.5,274.0 780.3,274.0 784.2,274.0 788.0,274.0 791.9,274.0 795.7,274.0 799.6,274.0 803.4,274.0 807.3,274.0 811.1,274.0 814.9,274.0 818.8,274.0 822.6,274.0 826.5,274.0 830.3,268.0 834.2,274.0 838.0,280.0 841.9,286.0 845.7,286.0 849.6,286.0 853.4,286.0 857.2,286.0 861.1,280.0 864.9,280.0 868.8,286.0 872.6,286.0 876.5,280.0 880.3,286.0 884.2,286.0 888.0,286.0 891.9,286.0 895.7,286.0 899.5,280.0 903.4,286.0 907.2,286.0 911.1,286.0 914.9,286.0 918.8,286.0 922.6,286.0 926.5,286.0 930.3,286.0 934.2,286.0 938.0,286.0"/><polyline fill="none" stroke="#a855f7" stroke-width="2.5" stroke-linejoin="round" stroke-linecap="round" points="42.0,286.0 45.8,286.0 49.7,286.0 53.5,286.0 57.4,286.0 61.2,286.0 65.1,286.0 68.9,286.0 72.8,286.0 76.6,286.0 80.5,286.0 84.3,286.0 88.1,286.0 92.0,286.0 95.8,286.0 99.7,286.0 103.5,286.0 107.4,286.0 111.2,286.0 115.1,286.0 118.9,286.0 122.8,286.0 126.6,286.0 130.4,286.0 134.3,286.0 138.1,286.0 142.0,286.0 145.8,286.0 149.7,286.0 153.5,286.0 157.4,286.0 161.2,286.0 165.1,286.0 168.9,286.0 172.7,286.0 176.6,286.0 180.4,286.0 184.3,286.0 188.1,286.0 192.0,286.0 195.8,286.0 199.7,286.0 203.5,286.0 207.4,286.0 211.2,286.0 215.0,286.0 218.9,286.0 222.7,286.0 226.6,286.0 230.4,286.0 234.3,286.0 238.1,286.0 242.0,286.0 245.8,286.0 249.7,286.0 253.5,286.0 257.3,286.0 261.2,286.0 265.0,286.0 268.9,286.0 272.7,286.0 276.6,286.0 280.4,286.0 284.3,286.0 288.1,286.0 292.0,286.0 295.8,286.0 299.6,286.0 303.5,286.0 307.3,286.0 311.2,280.0 315.0,286.0 318.9,286.0 322.7,286.0 326.6,286.0 330.4,286.0 334.3,286.0 338.1,286.0 341.9,286.0 345.8,286.0 349.6,286.0 353.5,286.0 357.3,286.0 361.2,286.0 365.0,286.0 368.9,286.0 372.7,286.0 376.6,286.0 380.4,286.0 384.2,286.0 388.1,286.0 391.9,286.0 395.8,286.0 399.6,286.0 403.5,286.0 407.3,286.0 411.2,286.0 415.0,286.0 418.9,286.0 422.7,286.0 426.5,286.0 430.4,286.0 434.2,286.0 438.1,286.0 441.9,286.0 445.8,286.0 449.6,286.0 453.5,286.0 457.3,286.0 461.2,286.0 465.0,286.0 468.8,286.0 472.7,286.0 476.5,286.0 480.4,286.0 484.2,286.0 488.1,286.0 491.9,286.0 495.8,286.0 499.6,286.0 503.5,286.0 507.3,286.0 511.2,286.0 515.0,286.0 518.8,286.0 522.7,286.0 526.5,286.0 530.4,286.0 534.2,286.0 538.1,286.0 541.9,286.0 545.8,286.0 549.6,286.0 553.5,286.0 557.3,286.0 561.1,286.0 565.0,286.0 568.8,286.0 572.7,286.0 576.5,286.0 580.4,286.0 584.2,286.0 588.1,286.0 591.9,286.0 595.8,286.0 599.6,286.0 603.4,286.0 607.3,286.0 611.1,286.0 615.0,286.0 618.8,286.0 622.7,286.0 626.5,286.0 630.4,286.0 634.2,286.0 638.1,286.0 641.9,286.0 645.7,280.0 649.6,286.0 653.4,286.0 657.3,286.0 661.1,286.0 665.0,286.0 668.8,286.0 672.7,286.0 676.5,286.0 680.4,286.0 684.2,286.0 688.0,286.0 691.9,286.0 695.7,286.0 699.6,286.0 703.4,286.0 707.3,286.0 711.1,286.0 715.0,286.0 718.8,286.0 722.7,286.0 726.5,286.0 730.3,286.0 734.2,286.0 738.0,286.0 741.9,286.0 745.7,286.0 749.6,286.0 753.4,286.0 757.3,286.0 761.1,286.0 765.0,286.0 768.8,286.0 772.6,286.0 776.5,286.0 780.3,286.0 784.2,286.0 788.0,286.0 791.9,286.0 795.7,286.0 799.6,286.0 803.4,286.0 807.3,286.0 811.1,286.0 814.9,286.0 818.8,286.0 822.6,286.0 826.5,286.0 830.3,286.0 834.2,286.0 838.0,286.0 841.9,286.0 845.7,286.0 849.6,286.0 853.4,286.0 857.2,286.0 861.1,286.0 864.9,286.0 868.8,280.0 872.6,286.0 876.5,286.0 880.3,286.0 884.2,286.0 888.0,286.0 891.9,286.0 895.7,286.0 899.5,286.0 903.4,286.0 907.2,280.0 911.1,286.0 914.9,286.0 918.8,286.0 922.6,286.0 926.5,286.0 930.3,286.0 934.2,286.0 938.0,286.0"/><text x="42" y="308" font-size="11" fill="#9fb0d4">19/06 12:43</text><text x="938" y="308" text-anchor="end" font-size="11" fill="#9fb0d4">02/07 12:32</text></svg>