<svg xmlns="http://www.w3.org/2000/svg" viewBox="0 0 960 320" width="960" height="320" font-family="Segoe UI, system-ui, -apple-system, Roboto, Helvetica, Arial, sans-serif" role="img" aria-label="Availability history per region"><rect x="0.5" y="0.5" width="959" height="319" rx="14" fill="#ffffff" stroke="#dce3f1"/><text x="42" y="26" font-size="14" font-weight="600" fill="#14203a">History · 52 points</text><circle cx="47" cy="40" r="5" fill="#22c55e"/><text x="57" y="44" font-size="12" fill="#5a688a">Available</text><circle cx="139.8" cy="40" r="5" fill="#f59e0b"/><text x="149.8" y="44" font-size="12" fill="#5a688a">Saturated</text><circle cx="232.60000000000002" cy="40" r="5" fill="#ef4444"/><text x="242.60000000000002" y="44" font-size="12" fill="#5a688a">Error</text><line x1="42" y1="286.0" x2="938" y2="286.0" stroke="#eef2f7" stroke-width="1"/><text x="35" y="289.0" text-anchor="end" font-size="11" fill="#5a688a">0</text><line x1="42" y1="227.5" x2="938" y2="227.5" stroke="#eef2f7" stroke-width="1"/><text x="35" y="230.5" text-anchor="end" font-size="11" fill="#5a688a">10</text><line x1="42" y1="169.0" x2="938" y2="169.0" stroke="#eef2f7" stroke-width="1"/><text x="35" y="172.0" text-anchor="end" font-size="11" fill="#5a688a">19</text><line x1="42" y1="110.5" x2="938" y2="110.5" stroke="#eef2f7" stroke-width="1"/><text x="35" y="113.5" text-anchor="end" font-size="11" fill="#5a688a">28</text><line x1="42" y1="52.0" x2="938" y2="52.0" stroke="#eef2f7" stroke-width="1"/><text x="35" y="55.0" text-anchor="end" font-size="11" fill="#5a688a">38</text><polyline fill="none" stroke="#22c55e" stroke-width="2.5" stroke-linejoin="round" stroke-linecap="round" points="42.0,64.3 59.6,224.4 77.1,82.8 94.7,88.9 112.3,82.8 129.8,76.6 147.4,76.6 165.0,76.6 182.5,76.6 200.1,76.6 217.7,76.6 235.3,76.6 252.8,76.6 270.4,76.6 288.0,76.6 305.5,70.5 323.1,70.5 340.7,82.8 358.2,82.8 375.8,82.8 393.4,88.9 410.9,88.9 428.5,88.9 446.1,88.9 463.6,88.9 481.2,88.9 498.8,88.9 516.4,88.9 533.9,88.9 551.5,82.8 569.1,82.8 586.6,82.8 604.2,82.8 621.8,76.6 639.3,76.6 656.9,76.6 674.5,76.6 692.0,76.6 709.6,82.8 727.2,82.8 744.7,82.8 762.3,82.8 779.9,76.6 797.5,76.6 815.0,76.6 832.6,76.6 850.2,76.6 867.7,76.6 885.3,76.6 902.9,82.8 920.4,82.8 938.0,82.8"/><circle cx="42.0" cy="64.3" r="2.5" fill="#22c55e"/><circle cx="59.6" cy="224.4" r="2.5" fill="#22c55e"/><circle cx="77.1" cy="82.8" r="2.5" fill="#22c55e"/><circle cx="94.7" cy="88.9" r="2.5" fill="#22c55e"/><circle cx="112.3" cy="82.8" r="2.5" fill="#22c55e"/><circle cx="129.8" cy="76.6" r="2.5" fill="#22c55e"/><circle cx="147.4" cy="76.6" r="2.5" fill="#22c55e"/><circle cx="165.0" cy="76.6" r="2.5" fill="#22c55e"/><circle cx="182.5" cy="76.6" r="2.5" fill="#22c55e"/><circle cx="200.1" cy="76.6" r="2.5" fill="#22c55e"/><circle cx="217.7" cy="76.6" r="2.5" fill="#22c55e"/><circle cx="235.3" cy="76.6" r="2.5" fill="#22c55e"/><circle cx="252.8" cy="76.6" r="2.5" fill="#22c55e"/><circle cx="270.4" cy="76.6" r="2.5" fill="#22c55e"/><circle cx="288.0" cy="76.6" r="2.5" fill="#22c55e"/><circle cx="305.5" cy="70.5" r="2.5" fill="#22c55e"/><circle cx="323.1" cy="70.5" r="2.5" fill="#22c55e"/><circle cx="340.7" cy="82.8" r="2.5" fill="#22c55e"/><circle cx="358.2" cy="82.8" r="2.5" fill="#22c55e"/><circle cx="375.8" cy="82.8" r="2.5" fill="#22c55e"/><circle cx="393.4" cy="88.9" r="2.5" fill="#22c55e"/><circle cx="410.9" cy="88.9" r="2.5" fill="#22c55e"/><circle cx="428.5" cy="88.9" r="2.5" fill="#22c55e"/><circle cx="446.1" cy="88.9" r="2.5" fill="#22c55e"/><circle cx="463.6" cy="88.9" r="2.5" fill="#22c55e"/><circle cx="481.2" cy="88.9" r="2.5" fill="#22c55e"/><circle cx="498.8" cy="88.9" r="2.5" fill="#22c55e"/><circle cx="516.4" cy="88.9" r="2.5" fill="#22c55e"/><circle cx="533.9" cy="88.9" r="2.5" fill="#22c55e"/><circle cx="551.5" cy="82.8" r="2.5" fill="#22c55e"/><circle cx="569.1" cy="82.8" r="2.5" fill="#22c55e"/><circle cx="586.6" cy="82.8" r="2.5" fill="#22c55e"/><circle cx="604.2" cy="82.8" r="2.5" fill="#22c55e"/><circle cx="621.8" cy="76.6" r="2.5" fill="#22c55e"/><circle cx="639.3" cy="76.6" r="2.5" fill="#22c55e"/><circle cx="656.9" cy="76.6" r="2.5" fill="#22c55e"/><circle cx="674.5" cy="76.6" r="2.5" fill="#22c55e"/><circle cx="692.0" cy="76.6" r="2.5" fill="#22c55e"/><circle cx="709.6" cy="82.8" r="2.5" fill="#22c55e"/><circle cx="727.2" cy="82.8" r="2.5" fill="#22c55e"/><circle cx="744.7" cy="82.8" r="2.5" fill="#22c55e"/><circle cx="762.3" cy="82.8" r="2.5" fill="#22c55e"/><circle cx="779.9" cy="76.6" r="2.5" fill="#22c55e"/><circle cx="797.5" cy="76.6" r="2.5" fill="#22c55e"/><circle cx="815.0" cy="76.6" r="2.5" fill="#22c55e"/><circle cx="832.6" cy="76.6" r="2.5" fill="#22c55e"/><circle cx="850.2" cy="76.6" r="2.5" fill="#22c55e"/><circle cx="867.7" cy="76.6" r="2.5" fill="#22c55e"/><circle cx="885.3" cy="76.6" r="2.5" fill="#22c55e"/><circle cx="902.9" cy="82.8" r="2.5" fill="#22c55e"/><circle cx="920.4" cy="82.8" r="2.5" fill="#22c55e"/><circle cx="938.0" cy="82.8" r="2.5" fill="#22c55e"/><polyline fill="none" stroke="#f59e0b" stroke-width="2.5" stroke-linejoin="round" stroke-linecap="round" points="42.0,273.7 59.6,267.5 77.1,255.2 94.7,249.1 112.3,255.2 129.8,261.4 147.4,261.4 165.0,261.4 182.5,261.4 200.1,261.4 217.7,261.4 235.3,261.4 252.8,261.4 270.4,261.4 288.0,261.4 305.5,267.5 323.1,267.5 340.7,261.4 358.2,255.2 375.8,255.2 393.4,249.1 410.9,249.1 428.5,249.1 446.1,249.1 463.6,249.1 481.2,249.1 498.8,249.1 516.4,249.1 533.9,249.1 551.5,255.2 569.1,255.2 586.6,255.2 604.2,255.2 621.8,261.4 639.3,261.4 656.9,261.4 674.5,261.4 692.0,261.4 709.6,255.2 727.2,255.2 744.7,255.2 762.3,255.2 779.9,261.4 797.5,261.4 815.0,261.4 832.6,261.4 850.2,261.4 867.7,261.4 885.3,261.4 902.9,255.2 920.4,255.2 938.0,255.2"/><circle cx="42.0" cy="273.7" r="2.5" fill="#f59e0b"/><circle cx="59.6" cy="267.5" r="2.5" fill="#f59e0b"/><circle cx="77.1" cy="255.2" r="2.5" fill="#f59e0b"/><circle cx="94.7" cy="249.1" r="2.5" fill="#f59e0b"/><circle cx="112.3" cy="255.2" r="2.5" fill="#f59e0b"/><circle cx="129.8" cy="261.4" r="2.5" fill="#f59e0b"/><circle cx="147.4" cy="261.4" r="2.5" fill="#f59e0b"/><circle cx="165.0" cy="261.4" r="2.5" fill="#f59e0b"/><circle cx="182.5" cy="261.4" r="2.5" fill="#f59e0b"/><circle cx="200.1" cy="261.4" r="2.5" fill="#f59e0b"/><circle cx="217.7" cy="261.4" r="2.5" fill="#f59e0b"/><circle cx="235.3" cy="261.4" r="2.5" fill="#f59e0b"/><circle cx="252.8" cy="261.4" r="2.5" fill="#f59e0b"/><circle cx="270.4" cy="261.4" r="2.5" fill="#f59e0b"/><circle cx="288.0" cy="261.4" r="2.5" fill="#f59e0b"/><circle cx="305.5" cy="267.5" r="2.5" fill="#f59e0b"/><circle cx="323.1" cy="267.5" r="2.5" fill="#f59e0b"/><circle cx="340.7" cy="261.4" r="2.5" fill="#f59e0b"/><circle cx="358.2" cy="255.2" r="2.5" fill="#f59e0b"/><circle cx="375.8" cy="255.2" r="2.5" fill="#f59e0b"/><circle cx="393.4" cy="249.1" r="2.5" fill="#f59e0b"/><circle cx="410.9" cy="249.1" r="2.5" fill="#f59e0b"/><circle cx="428.5" cy="249.1" r="2.5" fill="#f59e0b"/><circle cx="446.1" cy="249.1" r="2.5" fill="#f59e0b"/><circle cx="463.6" cy="249.1" r="2.5" fill="#f59e0b"/><circle cx="481.2" cy="249.1" r="2.5" fill="#f59e0b"/><circle cx="498.8" cy="249.1" r="2.5" fill="#f59e0b"/><circle cx="516.4" cy="249.1" r="2.5" fill="#f59e0b"/><circle cx="533.9" cy="249.1" r="2.5" fill="#f59e0b"/><circle cx="551.5" cy="255.2" r="2.5" fill="#f59e0b"/><circle cx="569.1" cy="255.2" r="2.5" fill="#f59e0b"/><circle cx="586.6" cy="255.2" r="2.5" fill="#f59e0b"/><circle cx="604.2" cy="255.2" r="2.5" fill="#f59e0b"/><circle cx="621.8" cy="261.4" r="2.5" fill="#f59e0b"/><circle cx="639.3" cy="261.4" r="2.5" fill="#f59e0b"/><circle cx="656.9" cy="261.4" r="2.5" fill="#f59e0b"/><circle cx="674.5" cy="261.4" r="2.5" fill="#f59e0b"/><circle cx="692.0" cy="261.4" r="2.5" fill="#f59e0b"/><circle cx="709.6" cy="255.2" r="2.5" fill="#f59e0b"/><circle cx="727.2" cy="255.2" r="2.5" fill="#f59e0b"/><circle cx="744.7" cy="255.2" r="2.5" fill="#f59e0b"/><circle cx="762.3" cy="255.2" r="2.5" fill="#f59e0b"/><circle cx="779.9" cy="261.4" r="2.5" fill="#f59e0b"/><circle cx="797.5" cy="261.4" r="2.5" fill="#f59e0b"/><circle cx="815.0" cy="261.4" r="2.5" fill="#f59e0b"/><circle cx="832.6" cy="261.4" r="2.5" fill="#f59e0b"/><circle cx="850.2" cy="261.4" r="2.5" fill="#f59e0b"/><circle cx="867.7" cy="261.4" r="2.5" fill="#f59e0b"/><circle cx="885.3" cy="261.4" r="2.5" fill="#f59e0b"/><circle cx="902.9" cy="255.2" r="2.5" fill="#f59e0b"/><circle cx="920.4" cy="255.2" r="2.5" fill="#f59e0b"/><circle cx="938.0" cy="255.2" r="2.5" fill="#f59e0b"/><polyline fill="none" stroke="#ef4444" stroke-width="2.5" stroke-linejoin="round" stroke-linecap="round" points="42.0,286.0 59.6,132.1 77.1,286.0 94.7,286.0 112.3,286.0 129.8,286.0 147.4,286.0 165.0,286.0 182.5,286.0 200.1,286.0 217.7,286.0 235.3,286.0 252.8,286.0 270.4,286.0 288.0,286.0 305.5,286.0 323.1,286.0 340.7,279.8 358.2,286.0 375.8,286.0 393.4,286.0 410.9,286.0 428.5,286.0 446.1,286.0 463.6,286.0 481.2,286.0 498.8,286.0 516.4,286.0 533.9,286.0 551.5,286.0 569.1,286.0 586.6,286.0 604.2,286.0 621.8,286.0 639.3,286.0 656.9,286.0 674.5,286.0 692.0,286.0 709.6,286.0 727.2,286.0 744.7,286.0 762.3,286.0 779.9,286.0 797.5,286.0 815.0,286.0 832.6,286.0 850.2,286.0 867.7,286.0 885.3,286.0 902.9,286.0 920.4,286.0 938.0,286.0"/><circle cx="42.0" cy="286.0" r="2.5" fill="#ef4444"/><circle cx="59.6" cy="132.1" r="2.5" fill="#ef4444"/><circle cx="77.1" cy="286.0" r="2.5" fill="#ef4444"/><circle cx="94.7" cy="286.0" r="2.5" fill="#ef4444"/><circle cx="112.3" cy="286.0" r="2.5" fill="#ef4444"/><circle cx="129.8" cy="286.0" r="2.5" fill="#ef4444"/><circle cx="147.4" cy="286.0" r="2.5" fill="#ef4444"/><circle cx="165.0" cy="286.0" r="2.5" fill="#ef4444"/><circle cx="182.5" cy="286.0" r="2.5" fill="#ef4444"/><circle cx="200.1" cy="286.0" r="2.5" fill="#ef4444"/><circle cx="217.7" cy="286.0" r="2.5" fill="#ef4444"/><circle cx="235.3" cy="286.0" r="2.5" fill="#ef4444"/><circle cx="252.8" cy="286.0" r="2.5" fill="#ef4444"/><circle cx="270.4" cy="286.0" r="2.5" fill="#ef4444"/><circle cx="288.0" cy="286.0" r="2.5" fill="#ef4444"/><circle cx="305.5" cy="286.0" r="2.5" fill="#ef4444"/><circle cx="323.1" cy="286.0" r="2.5" fill="#ef4444"/><circle cx="340.7" cy="279.8" r="2.5" fill="#ef4444"/><circle cx="358.2" cy="286.0" r="2.5" fill="#ef4444"/><circle cx="375.8" cy="286.0" r="2.5" fill="#ef4444"/><circle cx="393.4" cy="286.0" r="2.5" fill="#ef4444"/><circle cx="410.9" cy="286.0" r="2.5" fill="#ef4444"/><circle cx="428.5" cy="286.0" r="2.5" fill="#ef4444"/><circle cx="446.1" cy="286.0" r="2.5" fill="#ef4444"/><circle cx="463.6" cy="286.0" r="2.5" fill="#ef4444"/><circle cx="481.2" cy="286.0" r="2.5" fill="#ef4444"/><circle cx="498.8" cy="286.0" r="2.5" fill="#ef4444"/><circle cx="516.4" cy="286.0" r="2.5" fill="#ef4444"/><circle cx="533.9" cy="286.0" r="2.5" fill="#ef4444"/><circle cx="551.5" cy="286.0" r="2.5" fill="#ef4444"/><circle cx="569.1" cy="286.0" r="2.5" fill="#ef4444"/><circle cx="586.6" cy="286.0" r="2.5" fill="#ef4444"/><circle cx="604.2" cy="286.0" r="2.5" fill="#ef4444"/><circle cx="621.8" cy="286.0" r="2.5" fill="#ef4444"/><circle cx="639.3" cy="286.0" r="2.5" fill="#ef4444"/><circle cx="656.9" cy="286.0" r="2.5" fill="#ef4444"/><circle cx="674.5" cy="286.0" r="2.5" fill="#ef4444"/><circle cx="692.0" cy="286.0" r="2.5" fill="#ef4444"/><circle cx="709.6" cy="286.0" r="2.5" fill="#ef4444"/><circle cx="727.2" cy="286.0" r="2.5" fill="#ef4444"/><circle cx="744.7" cy="286.0" r="2.5" fill="#ef4444"/><circle cx="762.3" cy="286.0" r="2.5" fill="#ef4444"/><circle cx="779.9" cy="286.0" r="2.5" fill="#ef4444"/><circle cx="797.5" cy="286.0" r="2.5" fill="#ef4444"/><circle cx="815.0" cy="286.0" r="2.5" fill="#ef4444"/><circle cx="832.6" cy="286.0" r="2.5" fill="#ef4444"/><circle cx="850.2" cy="286.0" r="2.5" fill="#ef4444"/><circle cx="867.7" cy="286.0" r="2.5" fill="#ef4444"/><circle cx="885.3" cy="286.0" r="2.5" fill="#ef4444"/><circle cx="902.9" cy="286.0" r="2.5" fill="#ef4444"/><circle cx="920.4" cy="286.0" r="2.5" fill="#ef4444"/><circle cx="938.0" cy="286.0" r="2.5" fill="#ef4444"/><text x="42" y="308" font-size="11" fill="#5a688a">19/06 15:39</text><text x="938" y="308" text-anchor="end" font-size="11" fill="#5a688a">18/07 17:34</text></svg>