<svg xmlns="http://www.w3.org/2000/svg" viewBox="0 0 960 320" width="960" height="320" font-family="Segoe UI, system-ui, -apple-system, Roboto, Helvetica, Arial, sans-serif" role="img" aria-label="Availability history per region"><rect x="0.5" y="0.5" width="959" height="319" rx="14" fill="#0d1117" stroke="#2c3a5e"/><text x="42" y="26" font-size="14" font-weight="600" fill="#e6ecff">History · 79 points</text><circle cx="47" cy="40" r="5" fill="#22c55e"/><text x="57" y="44" font-size="12" fill="#9fb0d4">Available</text><circle cx="139.8" cy="40" r="5" fill="#f59e0b"/><text x="149.8" y="44" font-size="12" fill="#9fb0d4">Saturated</text><circle cx="232.60000000000002" cy="40" r="5" fill="#ef4444"/><text x="242.60000000000002" y="44" font-size="12" fill="#9fb0d4">Error</text><circle cx="296.6" cy="40" r="5" fill="#a855f7"/><text x="306.6" y="44" font-size="12" fill="#9fb0d4">Timeout</text><line x1="42" y1="286.0" x2="938" y2="286.0" stroke="#21304f" stroke-width="1"/><text x="35" y="289.0" text-anchor="end" font-size="11" fill="#9fb0d4">0</text><line x1="42" y1="227.5" x2="938" y2="227.5" stroke="#21304f" stroke-width="1"/><text x="35" y="230.5" text-anchor="end" font-size="11" fill="#9fb0d4">10</text><line x1="42" y1="169.0" x2="938" y2="169.0" stroke="#21304f" stroke-width="1"/><text x="35" y="172.0" text-anchor="end" font-size="11" fill="#9fb0d4">20</text><line x1="42" y1="110.5" x2="938" y2="110.5" stroke="#21304f" stroke-width="1"/><text x="35" y="113.5" text-anchor="end" font-size="11" fill="#9fb0d4">29</text><line x1="42" y1="52.0" x2="938" y2="52.0" stroke="#21304f" stroke-width="1"/><text x="35" y="55.0" text-anchor="end" font-size="11" fill="#9fb0d4">39</text><polyline fill="none" stroke="#22c55e" stroke-width="2.5" stroke-linejoin="round" stroke-linecap="round" points="42.0,70.0 53.5,70.0 65.0,88.0 76.5,88.0 87.9,76.0 99.4,76.0 110.9,76.0 122.4,70.0 133.9,76.0 145.4,70.0 156.9,64.0 168.4,58.0 179.8,58.0 191.3,58.0 202.8,58.0 214.3,58.0 225.8,58.0 237.3,58.0 248.8,58.0 260.3,58.0 271.7,58.0 283.2,58.0 294.7,58.0 306.2,58.0 317.7,58.0 329.2,58.0 340.7,58.0 352.2,58.0 363.6,58.0 375.1,58.0 386.6,58.0 398.1,70.0 409.6,76.0 421.1,94.0 432.6,64.0 444.1,64.0 455.5,58.0 467.0,58.0 478.5,58.0 490.0,70.0 501.5,76.0 513.0,76.0 524.5,82.0 535.9,82.0 547.4,82.0 558.9,82.0 570.4,76.0 581.9,64.0 593.4,70.0 604.9,70.0 616.4,82.0 627.8,76.0 639.3,76.0 650.8,82.0 662.3,76.0 673.8,76.0 685.3,76.0 696.8,64.0 708.3,64.0 719.7,76.0 731.2,76.0 742.7,76.0 754.2,88.0 765.7,70.0 777.2,64.0 788.7,58.0 800.2,58.0 811.6,70.0 823.1,70.0 834.6,70.0 846.1,76.0 857.6,70.0 869.1,70.0 880.6,70.0 892.1,70.0 903.5,76.0 915.0,82.0 926.5,76.0 938.0,70.0"/><polyline fill="none" stroke="#f59e0b" stroke-width="2.5" stroke-linejoin="round" stroke-linecap="round" points="42.0,274.0 53.5,274.0 65.0,274.0 76.5,280.0 87.9,268.0 99.4,268.0 110.9,268.0 122.4,274.0 133.9,274.0 145.4,274.0 156.9,280.0 168.4,286.0 179.8,286.0 191.3,286.0 202.8,286.0 214.3,286.0 225.8,286.0 237.3,286.0 248.8,286.0 260.3,286.0 271.7,286.0 283.2,286.0 294.7,286.0 306.2,286.0 317.7,286.0 329.2,286.0 340.7,286.0 352.2,286.0 363.6,286.0 375.1,286.0 386.6,286.0 398.1,274.0 409.6,280.0 421.1,280.0 432.6,280.0 444.1,280.0 455.5,286.0 467.0,286.0 478.5,286.0 490.0,274.0 501.5,268.0 513.0,268.0 524.5,262.0 535.9,262.0 547.4,262.0 558.9,262.0 570.4,268.0 581.9,280.0 593.4,280.0 604.9,274.0 616.4,262.0 627.8,268.0 639.3,268.0 650.8,262.0 662.3,268.0 673.8,268.0 685.3,268.0 696.8,280.0 708.3,280.0 719.7,268.0 731.2,268.0 742.7,268.0 754.2,262.0 765.7,274.0 777.2,280.0 788.7,286.0 800.2,286.0 811.6,274.0 823.1,274.0 834.6,274.0 846.1,274.0 857.6,274.0 869.1,274.0 880.6,274.0 892.1,274.0 903.5,280.0 915.0,274.0 926.5,280.0 938.0,286.0"/><polyline fill="none" stroke="#ef4444" stroke-width="2.5" stroke-linejoin="round" stroke-linecap="round" points="42.0,280.0 53.5,280.0 65.0,268.0 76.5,262.0 87.9,286.0 99.4,286.0 110.9,286.0 122.4,286.0 133.9,280.0 145.4,286.0 156.9,286.0 168.4,286.0 179.8,286.0 191.3,286.0 202.8,286.0 214.3,286.0 225.8,286.0 237.3,286.0 248.8,286.0 260.3,286.0 271.7,286.0 283.2,286.0 294.7,286.0 306.2,286.0 317.7,286.0 329.2,286.0 340.7,286.0 352.2,286.0 363.6,286.0 375.1,286.0 386.6,286.0 398.1,286.0 409.6,274.0 421.1,256.0 432.6,286.0 444.1,286.0 455.5,286.0 467.0,286.0 478.5,286.0 490.0,286.0 501.5,286.0 513.0,286.0 524.5,286.0 535.9,286.0 547.4,286.0 558.9,286.0 570.4,286.0 581.9,286.0 593.4,280.0 604.9,286.0 616.4,286.0 627.8,286.0 639.3,286.0 650.8,286.0 662.3,286.0 673.8,286.0 685.3,286.0 696.8,286.0 708.3,286.0 719.7,286.0 731.2,286.0 742.7,286.0 754.2,280.0 765.7,286.0 777.2,286.0 788.7,286.0 800.2,286.0 811.6,286.0 823.1,286.0 834.6,286.0 846.1,286.0 857.6,286.0 869.1,286.0 880.6,286.0 892.1,286.0 903.5,274.0 915.0,274.0 926.5,274.0 938.0,274.0"/><polyline fill="none" stroke="#a855f7" stroke-width="2.5" stroke-linejoin="round" stroke-linecap="round" points="42.0,286.0 53.5,286.0 65.0,286.0 76.5,286.0 87.9,286.0 99.4,286.0 110.9,286.0 122.4,286.0 133.9,286.0 145.4,286.0 156.9,286.0 168.4,286.0 179.8,286.0 191.3,286.0 202.8,286.0 214.3,286.0 225.8,286.0 237.3,286.0 248.8,286.0 260.3,286.0 271.7,286.0 283.2,286.0 294.7,286.0 306.2,286.0 317.7,286.0 329.2,286.0 340.7,286.0 352.2,286.0 363.6,286.0 375.1,286.0 386.6,286.0 398.1,286.0 409.6,286.0 421.1,286.0 432.6,286.0 444.1,286.0 455.5,286.0 467.0,286.0 478.5,286.0 490.0,286.0 501.5,286.0 513.0,286.0 524.5,286.0 535.9,286.0 547.4,286.0 558.9,286.0 570.4,286.0 581.9,286.0 593.4,286.0 604.9,286.0 616.4,286.0 627.8,286.0 639.3,286.0 650.8,286.0 662.3,286.0 673.8,286.0 685.3,286.0 696.8,286.0 708.3,286.0 719.7,286.0 731.2,286.0 742.7,286.0 754.2,286.0 765.7,286.0 777.2,286.0 788.7,286.0 800.2,286.0 811.6,286.0 823.1,286.0 834.6,286.0 846.1,280.0 857.6,286.0 869.1,286.0 880.6,286.0 892.1,286.0 903.5,286.0 915.0,286.0 926.5,286.0 938.0,286.0"/><text x="42" y="308" font-size="11" fill="#9fb0d4">19/06 12:43</text><text x="938" y="308" text-anchor="end" font-size="11" fill="#9fb0d4">26/06 21:56</text></svg>