<svg xmlns="http://www.w3.org/2000/svg" viewBox="0 0 960 320" width="960" height="320" font-family="Segoe UI, system-ui, -apple-system, Roboto, Helvetica, Arial, sans-serif" role="img" aria-label="Availability history per region"><rect x="0.5" y="0.5" width="959" height="319" rx="14" fill="#0d1117" stroke="#2c3a5e"/><text x="42" y="26" font-size="14" font-weight="600" fill="#e6ecff">History · 135 points</text><circle cx="47" cy="40" r="5" fill="#22c55e"/><text x="57" y="44" font-size="12" fill="#9fb0d4">Available</text><circle cx="139.8" cy="40" r="5" fill="#f59e0b"/><text x="149.8" y="44" font-size="12" fill="#9fb0d4">Saturated</text><circle cx="232.60000000000002" cy="40" r="5" fill="#ef4444"/><text x="242.60000000000002" y="44" font-size="12" fill="#9fb0d4">Error</text><circle cx="296.6" cy="40" r="5" fill="#a855f7"/><text x="306.6" y="44" font-size="12" fill="#9fb0d4">Timeout</text><line x1="42" y1="286.0" x2="938" y2="286.0" stroke="#21304f" stroke-width="1"/><text x="35" y="289.0" text-anchor="end" font-size="11" fill="#9fb0d4">0</text><line x1="42" y1="227.5" x2="938" y2="227.5" stroke="#21304f" stroke-width="1"/><text x="35" y="230.5" text-anchor="end" font-size="11" fill="#9fb0d4">10</text><line x1="42" y1="169.0" x2="938" y2="169.0" stroke="#21304f" stroke-width="1"/><text x="35" y="172.0" text-anchor="end" font-size="11" fill="#9fb0d4">20</text><line x1="42" y1="110.5" x2="938" y2="110.5" stroke="#21304f" stroke-width="1"/><text x="35" y="113.5" text-anchor="end" font-size="11" fill="#9fb0d4">29</text><line x1="42" y1="52.0" x2="938" y2="52.0" stroke="#21304f" stroke-width="1"/><text x="35" y="55.0" text-anchor="end" font-size="11" fill="#9fb0d4">39</text><polyline fill="none" stroke="#22c55e" stroke-width="2.5" stroke-linejoin="round" stroke-linecap="round" points="42.0,70.0 48.7,70.0 55.4,88.0 62.1,88.0 68.7,76.0 75.4,76.0 82.1,76.0 88.8,70.0 95.5,76.0 102.2,70.0 108.9,64.0 115.6,58.0 122.2,58.0 128.9,58.0 135.6,58.0 142.3,58.0 149.0,58.0 155.7,58.0 162.4,58.0 169.0,58.0 175.7,58.0 182.4,58.0 189.1,58.0 195.8,58.0 202.5,58.0 209.2,58.0 215.9,58.0 222.5,58.0 229.2,58.0 235.9,58.0 242.6,58.0 249.3,70.0 256.0,76.0 262.7,94.0 269.3,64.0 276.0,64.0 282.7,58.0 289.4,58.0 296.1,58.0 302.8,70.0 309.5,76.0 316.1,76.0 322.8,82.0 329.5,82.0 336.2,82.0 342.9,82.0 349.6,76.0 356.3,64.0 363.0,70.0 369.6,70.0 376.3,82.0 383.0,76.0 389.7,76.0 396.4,82.0 403.1,76.0 409.8,76.0 416.4,76.0 423.1,64.0 429.8,64.0 436.5,76.0 443.2,76.0 449.9,76.0 456.6,88.0 463.3,70.0 469.9,64.0 476.6,58.0 483.3,58.0 490.0,70.0 496.7,70.0 503.4,70.0 510.1,76.0 516.7,70.0 523.4,70.0 530.1,70.0 536.8,70.0 543.5,76.0 550.2,82.0 556.9,76.0 563.6,70.0 570.2,70.0 576.9,70.0 583.6,70.0 590.3,76.0 597.0,70.0 603.7,70.0 610.4,70.0 617.0,70.0 623.7,70.0 630.4,70.0 637.1,70.0 643.8,70.0 650.5,70.0 657.2,70.0 663.9,70.0 670.5,70.0 677.2,70.0 683.9,70.0 690.6,70.0 697.3,70.0 704.0,70.0 710.7,70.0 717.3,70.0 724.0,70.0 730.7,70.0 737.4,70.0 744.1,70.0 750.8,70.0 757.5,70.0 764.1,70.0 770.8,70.0 777.5,70.0 784.2,70.0 790.9,70.0 797.6,70.0 804.3,70.0 811.0,70.0 817.6,70.0 824.3,70.0 831.0,70.0 837.7,70.0 844.4,70.0 851.1,70.0 857.8,70.0 864.4,70.0 871.1,70.0 877.8,70.0 884.5,70.0 891.2,70.0 897.9,70.0 904.6,70.0 911.3,70.0 917.9,70.0 924.6,70.0 931.3,70.0 938.0,70.0"/><polyline fill="none" stroke="#f59e0b" stroke-width="2.5" stroke-linejoin="round" stroke-linecap="round" points="42.0,274.0 48.7,274.0 55.4,274.0 62.1,280.0 68.7,268.0 75.4,268.0 82.1,268.0 88.8,274.0 95.5,274.0 102.2,274.0 108.9,280.0 115.6,286.0 122.2,286.0 128.9,286.0 135.6,286.0 142.3,286.0 149.0,286.0 155.7,286.0 162.4,286.0 169.0,286.0 175.7,286.0 182.4,286.0 189.1,286.0 195.8,286.0 202.5,286.0 209.2,286.0 215.9,286.0 222.5,286.0 229.2,286.0 235.9,286.0 242.6,286.0 249.3,274.0 256.0,280.0 262.7,280.0 269.3,280.0 276.0,280.0 282.7,286.0 289.4,286.0 296.1,286.0 302.8,274.0 309.5,268.0 316.1,268.0 322.8,262.0 329.5,262.0 336.2,262.0 342.9,262.0 349.6,268.0 356.3,280.0 363.0,280.0 369.6,274.0 376.3,262.0 383.0,268.0 389.7,268.0 396.4,262.0 403.1,268.0 409.8,268.0 416.4,268.0 423.1,280.0 429.8,280.0 436.5,268.0 443.2,268.0 449.9,268.0 456.6,262.0 463.3,274.0 469.9,280.0 476.6,286.0 483.3,286.0 490.0,274.0 496.7,274.0 503.4,274.0 510.1,274.0 516.7,274.0 523.4,274.0 530.1,274.0 536.8,274.0 543.5,280.0 550.2,274.0 556.9,280.0 563.6,286.0 570.2,286.0 576.9,286.0 583.6,286.0 590.3,280.0 597.0,286.0 603.7,286.0 610.4,286.0 617.0,286.0 623.7,286.0 630.4,286.0 637.1,286.0 643.8,286.0 650.5,286.0 657.2,286.0 663.9,286.0 670.5,286.0 677.2,286.0 683.9,286.0 690.6,286.0 697.3,286.0 704.0,286.0 710.7,286.0 717.3,286.0 724.0,286.0 730.7,286.0 737.4,286.0 744.1,286.0 750.8,286.0 757.5,286.0 764.1,286.0 770.8,286.0 777.5,286.0 784.2,286.0 790.9,286.0 797.6,286.0 804.3,286.0 811.0,286.0 817.6,286.0 824.3,286.0 831.0,286.0 837.7,286.0 844.4,286.0 851.1,286.0 857.8,286.0 864.4,286.0 871.1,286.0 877.8,286.0 884.5,286.0 891.2,286.0 897.9,286.0 904.6,286.0 911.3,286.0 917.9,286.0 924.6,286.0 931.3,286.0 938.0,286.0"/><polyline fill="none" stroke="#ef4444" stroke-width="2.5" stroke-linejoin="round" stroke-linecap="round" points="42.0,280.0 48.7,280.0 55.4,268.0 62.1,262.0 68.7,286.0 75.4,286.0 82.1,286.0 88.8,286.0 95.5,280.0 102.2,286.0 108.9,286.0 115.6,286.0 122.2,286.0 128.9,286.0 135.6,286.0 142.3,286.0 149.0,286.0 155.7,286.0 162.4,286.0 169.0,286.0 175.7,286.0 182.4,286.0 189.1,286.0 195.8,286.0 202.5,286.0 209.2,286.0 215.9,286.0 222.5,286.0 229.2,286.0 235.9,286.0 242.6,286.0 249.3,286.0 256.0,274.0 262.7,256.0 269.3,286.0 276.0,286.0 282.7,286.0 289.4,286.0 296.1,286.0 302.8,286.0 309.5,286.0 316.1,286.0 322.8,286.0 329.5,286.0 336.2,286.0 342.9,286.0 349.6,286.0 356.3,286.0 363.0,280.0 369.6,286.0 376.3,286.0 383.0,286.0 389.7,286.0 396.4,286.0 403.1,286.0 409.8,286.0 416.4,286.0 423.1,286.0 429.8,286.0 436.5,286.0 443.2,286.0 449.9,286.0 456.6,280.0 463.3,286.0 469.9,286.0 476.6,286.0 483.3,286.0 490.0,286.0 496.7,286.0 503.4,286.0 510.1,286.0 516.7,286.0 523.4,286.0 530.1,286.0 536.8,286.0 543.5,274.0 550.2,274.0 556.9,274.0 563.6,274.0 570.2,274.0 576.9,274.0 583.6,274.0 590.3,274.0 597.0,274.0 603.7,274.0 610.4,274.0 617.0,274.0 623.7,274.0 630.4,274.0 637.1,274.0 643.8,274.0 650.5,274.0 657.2,274.0 663.9,274.0 670.5,274.0 677.2,274.0 683.9,274.0 690.6,274.0 697.3,274.0 704.0,274.0 710.7,274.0 717.3,274.0 724.0,274.0 730.7,274.0 737.4,274.0 744.1,274.0 750.8,274.0 757.5,274.0 764.1,274.0 770.8,274.0 777.5,274.0 784.2,274.0 790.9,274.0 797.6,274.0 804.3,274.0 811.0,274.0 817.6,274.0 824.3,274.0 831.0,274.0 837.7,274.0 844.4,274.0 851.1,274.0 857.8,274.0 864.4,274.0 871.1,274.0 877.8,274.0 884.5,274.0 891.2,274.0 897.9,274.0 904.6,274.0 911.3,274.0 917.9,274.0 924.6,274.0 931.3,274.0 938.0,274.0"/><polyline fill="none" stroke="#a855f7" stroke-width="2.5" stroke-linejoin="round" stroke-linecap="round" points="42.0,286.0 48.7,286.0 55.4,286.0 62.1,286.0 68.7,286.0 75.4,286.0 82.1,286.0 88.8,286.0 95.5,286.0 102.2,286.0 108.9,286.0 115.6,286.0 122.2,286.0 128.9,286.0 135.6,286.0 142.3,286.0 149.0,286.0 155.7,286.0 162.4,286.0 169.0,286.0 175.7,286.0 182.4,286.0 189.1,286.0 195.8,286.0 202.5,286.0 209.2,286.0 215.9,286.0 222.5,286.0 229.2,286.0 235.9,286.0 242.6,286.0 249.3,286.0 256.0,286.0 262.7,286.0 269.3,286.0 276.0,286.0 282.7,286.0 289.4,286.0 296.1,286.0 302.8,286.0 309.5,286.0 316.1,286.0 322.8,286.0 329.5,286.0 336.2,286.0 342.9,286.0 349.6,286.0 356.3,286.0 363.0,286.0 369.6,286.0 376.3,286.0 383.0,286.0 389.7,286.0 396.4,286.0 403.1,286.0 409.8,286.0 416.4,286.0 423.1,286.0 429.8,286.0 436.5,286.0 443.2,286.0 449.9,286.0 456.6,286.0 463.3,286.0 469.9,286.0 476.6,286.0 483.3,286.0 490.0,286.0 496.7,286.0 503.4,286.0 510.1,280.0 516.7,286.0 523.4,286.0 530.1,286.0 536.8,286.0 543.5,286.0 550.2,286.0 556.9,286.0 563.6,286.0 570.2,286.0 576.9,286.0 583.6,286.0 590.3,286.0 597.0,286.0 603.7,286.0 610.4,286.0 617.0,286.0 623.7,286.0 630.4,286.0 637.1,286.0 643.8,286.0 650.5,286.0 657.2,286.0 663.9,286.0 670.5,286.0 677.2,286.0 683.9,286.0 690.6,286.0 697.3,286.0 704.0,286.0 710.7,286.0 717.3,286.0 724.0,286.0 730.7,286.0 737.4,286.0 744.1,286.0 750.8,286.0 757.5,286.0 764.1,286.0 770.8,286.0 777.5,286.0 784.2,286.0 790.9,286.0 797.6,286.0 804.3,286.0 811.0,286.0 817.6,286.0 824.3,286.0 831.0,286.0 837.7,286.0 844.4,286.0 851.1,286.0 857.8,286.0 864.4,286.0 871.1,286.0 877.8,286.0 884.5,286.0 891.2,286.0 897.9,286.0 904.6,286.0 911.3,286.0 917.9,286.0 924.6,286.0 931.3,286.0 938.0,286.0"/><text x="42" y="308" font-size="11" fill="#9fb0d4">19/06 12:43</text><text x="938" y="308" text-anchor="end" font-size="11" fill="#9fb0d4">28/06 15:29</text></svg>