<svg xmlns="http://www.w3.org/2000/svg" viewBox="0 0 960 320" width="960" height="320" font-family="Segoe UI, system-ui, -apple-system, Roboto, Helvetica, Arial, sans-serif" role="img" aria-label="Availability history per region"><rect x="0.5" y="0.5" width="959" height="319" rx="14" fill="#0d1117" stroke="#2c3a5e"/><text x="42" y="26" font-size="14" font-weight="600" fill="#e6ecff">History · 36 points</text><circle cx="47" cy="40" r="5" fill="#22c55e"/><text x="57" y="44" font-size="12" fill="#9fb0d4">Available</text><circle cx="139.8" cy="40" r="5" fill="#f59e0b"/><text x="149.8" y="44" font-size="12" fill="#9fb0d4">Saturated</text><circle cx="232.60000000000002" cy="40" r="5" fill="#ef4444"/><text x="242.60000000000002" y="44" font-size="12" fill="#9fb0d4">Error</text><line x1="42" y1="286.0" x2="938" y2="286.0" stroke="#21304f" stroke-width="1"/><text x="35" y="289.0" text-anchor="end" font-size="11" fill="#9fb0d4">0</text><line x1="42" y1="227.5" x2="938" y2="227.5" stroke="#21304f" stroke-width="1"/><text x="35" y="230.5" text-anchor="end" font-size="11" fill="#9fb0d4">10</text><line x1="42" y1="169.0" x2="938" y2="169.0" stroke="#21304f" stroke-width="1"/><text x="35" y="172.0" text-anchor="end" font-size="11" fill="#9fb0d4">19</text><line x1="42" y1="110.5" x2="938" y2="110.5" stroke="#21304f" stroke-width="1"/><text x="35" y="113.5" text-anchor="end" font-size="11" fill="#9fb0d4">28</text><line x1="42" y1="52.0" x2="938" y2="52.0" stroke="#21304f" stroke-width="1"/><text x="35" y="55.0" text-anchor="end" font-size="11" fill="#9fb0d4">38</text><polyline fill="none" stroke="#22c55e" stroke-width="2.5" stroke-linejoin="round" stroke-linecap="round" points="42.0,64.3 67.6,224.4 93.2,82.8 118.8,88.9 144.4,82.8 170.0,76.6 195.6,76.6 221.2,76.6 246.8,76.6 272.4,76.6 298.0,76.6 323.6,76.6 349.2,76.6 374.8,76.6 400.4,76.6 426.0,70.5 451.6,70.5 477.2,82.8 502.8,82.8 528.4,82.8 554.0,88.9 579.6,88.9 605.2,88.9 630.8,88.9 656.4,88.9 682.0,88.9 707.6,88.9 733.2,88.9 758.8,88.9 784.4,82.8 810.0,82.8 835.6,82.8 861.2,82.8 886.8,76.6 912.4,76.6 938.0,76.6"/><circle cx="42.0" cy="64.3" r="2.5" fill="#22c55e"/><circle cx="67.6" cy="224.4" r="2.5" fill="#22c55e"/><circle cx="93.2" cy="82.8" r="2.5" fill="#22c55e"/><circle cx="118.8" cy="88.9" r="2.5" fill="#22c55e"/><circle cx="144.4" cy="82.8" r="2.5" fill="#22c55e"/><circle cx="170.0" cy="76.6" r="2.5" fill="#22c55e"/><circle cx="195.6" cy="76.6" r="2.5" fill="#22c55e"/><circle cx="221.2" cy="76.6" r="2.5" fill="#22c55e"/><circle cx="246.8" cy="76.6" r="2.5" fill="#22c55e"/><circle cx="272.4" cy="76.6" r="2.5" fill="#22c55e"/><circle cx="298.0" cy="76.6" r="2.5" fill="#22c55e"/><circle cx="323.6" cy="76.6" r="2.5" fill="#22c55e"/><circle cx="349.2" cy="76.6" r="2.5" fill="#22c55e"/><circle cx="374.8" cy="76.6" r="2.5" fill="#22c55e"/><circle cx="400.4" cy="76.6" r="2.5" fill="#22c55e"/><circle cx="426.0" cy="70.5" r="2.5" fill="#22c55e"/><circle cx="451.6" cy="70.5" r="2.5" fill="#22c55e"/><circle cx="477.2" cy="82.8" r="2.5" fill="#22c55e"/><circle cx="502.8" cy="82.8" r="2.5" fill="#22c55e"/><circle cx="528.4" cy="82.8" r="2.5" fill="#22c55e"/><circle cx="554.0" cy="88.9" r="2.5" fill="#22c55e"/><circle cx="579.6" cy="88.9" r="2.5" fill="#22c55e"/><circle cx="605.2" cy="88.9" r="2.5" fill="#22c55e"/><circle cx="630.8" cy="88.9" r="2.5" fill="#22c55e"/><circle cx="656.4" cy="88.9" r="2.5" fill="#22c55e"/><circle cx="682.0" cy="88.9" r="2.5" fill="#22c55e"/><circle cx="707.6" cy="88.9" r="2.5" fill="#22c55e"/><circle cx="733.2" cy="88.9" r="2.5" fill="#22c55e"/><circle cx="758.8" cy="88.9" r="2.5" fill="#22c55e"/><circle cx="784.4" cy="82.8" r="2.5" fill="#22c55e"/><circle cx="810.0" cy="82.8" r="2.5" fill="#22c55e"/><circle cx="835.6" cy="82.8" r="2.5" fill="#22c55e"/><circle cx="861.2" cy="82.8" r="2.5" fill="#22c55e"/><circle cx="886.8" cy="76.6" r="2.5" fill="#22c55e"/><circle cx="912.4" cy="76.6" r="2.5" fill="#22c55e"/><circle cx="938.0" cy="76.6" r="2.5" fill="#22c55e"/><polyline fill="none" stroke="#f59e0b" stroke-width="2.5" stroke-linejoin="round" stroke-linecap="round" points="42.0,273.7 67.6,267.5 93.2,255.2 118.8,249.1 144.4,255.2 170.0,261.4 195.6,261.4 221.2,261.4 246.8,261.4 272.4,261.4 298.0,261.4 323.6,261.4 349.2,261.4 374.8,261.4 400.4,261.4 426.0,267.5 451.6,267.5 477.2,261.4 502.8,255.2 528.4,255.2 554.0,249.1 579.6,249.1 605.2,249.1 630.8,249.1 656.4,249.1 682.0,249.1 707.6,249.1 733.2,249.1 758.8,249.1 784.4,255.2 810.0,255.2 835.6,255.2 861.2,255.2 886.8,261.4 912.4,261.4 938.0,261.4"/><circle cx="42.0" cy="273.7" r="2.5" fill="#f59e0b"/><circle cx="67.6" cy="267.5" r="2.5" fill="#f59e0b"/><circle cx="93.2" cy="255.2" r="2.5" fill="#f59e0b"/><circle cx="118.8" cy="249.1" r="2.5" fill="#f59e0b"/><circle cx="144.4" cy="255.2" r="2.5" fill="#f59e0b"/><circle cx="170.0" cy="261.4" r="2.5" fill="#f59e0b"/><circle cx="195.6" cy="261.4" r="2.5" fill="#f59e0b"/><circle cx="221.2" cy="261.4" r="2.5" fill="#f59e0b"/><circle cx="246.8" cy="261.4" r="2.5" fill="#f59e0b"/><circle cx="272.4" cy="261.4" r="2.5" fill="#f59e0b"/><circle cx="298.0" cy="261.4" r="2.5" fill="#f59e0b"/><circle cx="323.6" cy="261.4" r="2.5" fill="#f59e0b"/><circle cx="349.2" cy="261.4" r="2.5" fill="#f59e0b"/><circle cx="374.8" cy="261.4" r="2.5" fill="#f59e0b"/><circle cx="400.4" cy="261.4" r="2.5" fill="#f59e0b"/><circle cx="426.0" cy="267.5" r="2.5" fill="#f59e0b"/><circle cx="451.6" cy="267.5" r="2.5" fill="#f59e0b"/><circle cx="477.2" cy="261.4" r="2.5" fill="#f59e0b"/><circle cx="502.8" cy="255.2" r="2.5" fill="#f59e0b"/><circle cx="528.4" cy="255.2" r="2.5" fill="#f59e0b"/><circle cx="554.0" cy="249.1" r="2.5" fill="#f59e0b"/><circle cx="579.6" cy="249.1" r="2.5" fill="#f59e0b"/><circle cx="605.2" cy="249.1" r="2.5" fill="#f59e0b"/><circle cx="630.8" cy="249.1" r="2.5" fill="#f59e0b"/><circle cx="656.4" cy="249.1" r="2.5" fill="#f59e0b"/><circle cx="682.0" cy="249.1" r="2.5" fill="#f59e0b"/><circle cx="707.6" cy="249.1" r="2.5" fill="#f59e0b"/><circle cx="733.2" cy="249.1" r="2.5" fill="#f59e0b"/><circle cx="758.8" cy="249.1" r="2.5" fill="#f59e0b"/><circle cx="784.4" cy="255.2" r="2.5" fill="#f59e0b"/><circle cx="810.0" cy="255.2" r="2.5" fill="#f59e0b"/><circle cx="835.6" cy="255.2" r="2.5" fill="#f59e0b"/><circle cx="861.2" cy="255.2" r="2.5" fill="#f59e0b"/><circle cx="886.8" cy="261.4" r="2.5" fill="#f59e0b"/><circle cx="912.4" cy="261.4" r="2.5" fill="#f59e0b"/><circle cx="938.0" cy="261.4" r="2.5" fill="#f59e0b"/><polyline fill="none" stroke="#ef4444" stroke-width="2.5" stroke-linejoin="round" stroke-linecap="round" points="42.0,286.0 67.6,132.1 93.2,286.0 118.8,286.0 144.4,286.0 170.0,286.0 195.6,286.0 221.2,286.0 246.8,286.0 272.4,286.0 298.0,286.0 323.6,286.0 349.2,286.0 374.8,286.0 400.4,286.0 426.0,286.0 451.6,286.0 477.2,279.8 502.8,286.0 528.4,286.0 554.0,286.0 579.6,286.0 605.2,286.0 630.8,286.0 656.4,286.0 682.0,286.0 707.6,286.0 733.2,286.0 758.8,286.0 784.4,286.0 810.0,286.0 835.6,286.0 861.2,286.0 886.8,286.0 912.4,286.0 938.0,286.0"/><circle cx="42.0" cy="286.0" r="2.5" fill="#ef4444"/><circle cx="67.6" cy="132.1" r="2.5" fill="#ef4444"/><circle cx="93.2" cy="286.0" r="2.5" fill="#ef4444"/><circle cx="118.8" cy="286.0" r="2.5" fill="#ef4444"/><circle cx="144.4" cy="286.0" r="2.5" fill="#ef4444"/><circle cx="170.0" cy="286.0" r="2.5" fill="#ef4444"/><circle cx="195.6" cy="286.0" r="2.5" fill="#ef4444"/><circle cx="221.2" cy="286.0" r="2.5" fill="#ef4444"/><circle cx="246.8" cy="286.0" r="2.5" fill="#ef4444"/><circle cx="272.4" cy="286.0" r="2.5" fill="#ef4444"/><circle cx="298.0" cy="286.0" r="2.5" fill="#ef4444"/><circle cx="323.6" cy="286.0" r="2.5" fill="#ef4444"/><circle cx="349.2" cy="286.0" r="2.5" fill="#ef4444"/><circle cx="374.8" cy="286.0" r="2.5" fill="#ef4444"/><circle cx="400.4" cy="286.0" r="2.5" fill="#ef4444"/><circle cx="426.0" cy="286.0" r="2.5" fill="#ef4444"/><circle cx="451.6" cy="286.0" r="2.5" fill="#ef4444"/><circle cx="477.2" cy="279.8" r="2.5" fill="#ef4444"/><circle cx="502.8" cy="286.0" r="2.5" fill="#ef4444"/><circle cx="528.4" cy="286.0" r="2.5" fill="#ef4444"/><circle cx="554.0" cy="286.0" r="2.5" fill="#ef4444"/><circle cx="579.6" cy="286.0" r="2.5" fill="#ef4444"/><circle cx="605.2" cy="286.0" r="2.5" fill="#ef4444"/><circle cx="630.8" cy="286.0" r="2.5" fill="#ef4444"/><circle cx="656.4" cy="286.0" r="2.5" fill="#ef4444"/><circle cx="682.0" cy="286.0" r="2.5" fill="#ef4444"/><circle cx="707.6" cy="286.0" r="2.5" fill="#ef4444"/><circle cx="733.2" cy="286.0" r="2.5" fill="#ef4444"/><circle cx="758.8" cy="286.0" r="2.5" fill="#ef4444"/><circle cx="784.4" cy="286.0" r="2.5" fill="#ef4444"/><circle cx="810.0" cy="286.0" r="2.5" fill="#ef4444"/><circle cx="835.6" cy="286.0" r="2.5" fill="#ef4444"/><circle cx="861.2" cy="286.0" r="2.5" fill="#ef4444"/><circle cx="886.8" cy="286.0" r="2.5" fill="#ef4444"/><circle cx="912.4" cy="286.0" r="2.5" fill="#ef4444"/><circle cx="938.0" cy="286.0" r="2.5" fill="#ef4444"/><text x="42" y="308" font-size="11" fill="#9fb0d4">19/06 15:39</text><text x="938" y="308" text-anchor="end" font-size="11" fill="#9fb0d4">18/07 01:29</text></svg>