<svg xmlns="http://www.w3.org/2000/svg" viewBox="0 0 960 320" width="960" height="320" font-family="Segoe UI, system-ui, -apple-system, Roboto, Helvetica, Arial, sans-serif" role="img" aria-label="Availability history per region"><rect x="0.5" y="0.5" width="959" height="319" rx="14" fill="#ffffff" stroke="#dce3f1"/><text x="42" y="26" font-size="14" font-weight="600" fill="#14203a">History · 232 points</text><circle cx="47" cy="40" r="5" fill="#22c55e"/><text x="57" y="44" font-size="12" fill="#5a688a">Available</text><circle cx="139.8" cy="40" r="5" fill="#f59e0b"/><text x="149.8" y="44" font-size="12" fill="#5a688a">Saturated</text><circle cx="232.60000000000002" cy="40" r="5" fill="#ef4444"/><text x="242.60000000000002" y="44" font-size="12" fill="#5a688a">Error</text><circle cx="296.6" cy="40" r="5" fill="#a855f7"/><text x="306.6" y="44" font-size="12" fill="#5a688a">Timeout</text><line x1="42" y1="286.0" x2="938" y2="286.0" stroke="#eef2f7" stroke-width="1"/><text x="35" y="289.0" text-anchor="end" font-size="11" fill="#5a688a">0</text><line x1="42" y1="227.5" x2="938" y2="227.5" stroke="#eef2f7" stroke-width="1"/><text x="35" y="230.5" text-anchor="end" font-size="11" fill="#5a688a">10</text><line x1="42" y1="169.0" x2="938" y2="169.0" stroke="#eef2f7" stroke-width="1"/><text x="35" y="172.0" text-anchor="end" font-size="11" fill="#5a688a">20</text><line x1="42" y1="110.5" x2="938" y2="110.5" stroke="#eef2f7" stroke-width="1"/><text x="35" y="113.5" text-anchor="end" font-size="11" fill="#5a688a">29</text><line x1="42" y1="52.0" x2="938" y2="52.0" stroke="#eef2f7" stroke-width="1"/><text x="35" y="55.0" text-anchor="end" font-size="11" fill="#5a688a">39</text><polyline fill="none" stroke="#22c55e" stroke-width="2.5" stroke-linejoin="round" stroke-linecap="round" points="42.0,70.0 45.9,70.0 49.8,88.0 53.6,88.0 57.5,76.0 61.4,76.0 65.3,76.0 69.2,70.0 73.0,76.0 76.9,70.0 80.8,64.0 84.7,58.0 88.5,58.0 92.4,58.0 96.3,58.0 100.2,58.0 104.1,58.0 107.9,58.0 111.8,58.0 115.7,58.0 119.6,58.0 123.5,58.0 127.3,58.0 131.2,58.0 135.1,58.0 139.0,58.0 142.8,58.0 146.7,58.0 150.6,58.0 154.5,58.0 158.4,58.0 162.2,70.0 166.1,76.0 170.0,94.0 173.9,64.0 177.8,64.0 181.6,58.0 185.5,58.0 189.4,58.0 193.3,70.0 197.2,76.0 201.0,76.0 204.9,82.0 208.8,82.0 212.7,82.0 216.5,82.0 220.4,76.0 224.3,64.0 228.2,70.0 232.1,70.0 235.9,82.0 239.8,76.0 243.7,76.0 247.6,82.0 251.5,76.0 255.3,76.0 259.2,76.0 263.1,64.0 267.0,64.0 270.8,76.0 274.7,76.0 278.6,76.0 282.5,88.0 286.4,70.0 290.2,64.0 294.1,58.0 298.0,58.0 301.9,70.0 305.8,70.0 309.6,70.0 313.5,76.0 317.4,70.0 321.3,70.0 325.2,70.0 329.0,70.0 332.9,76.0 336.8,82.0 340.7,76.0 344.5,70.0 348.4,70.0 352.3,70.0 356.2,70.0 360.1,76.0 363.9,70.0 367.8,70.0 371.7,70.0 375.6,70.0 379.5,70.0 383.3,70.0 387.2,70.0 391.1,70.0 395.0,70.0 398.8,70.0 402.7,70.0 406.6,70.0 410.5,70.0 414.4,70.0 418.2,70.0 422.1,70.0 426.0,70.0 429.9,70.0 433.8,70.0 437.6,70.0 441.5,70.0 445.4,70.0 449.3,70.0 453.2,70.0 457.0,70.0 460.9,70.0 464.8,70.0 468.7,70.0 472.5,70.0 476.4,70.0 480.3,70.0 484.2,70.0 488.1,70.0 491.9,70.0 495.8,70.0 499.7,70.0 503.6,70.0 507.5,70.0 511.3,70.0 515.2,70.0 519.1,70.0 523.0,70.0 526.8,70.0 530.7,70.0 534.6,70.0 538.5,70.0 542.4,70.0 546.2,70.0 550.1,70.0 554.0,70.0 557.9,70.0 561.8,70.0 565.6,70.0 569.5,70.0 573.4,70.0 577.3,70.0 581.2,70.0 585.0,70.0 588.9,70.0 592.8,70.0 596.7,70.0 600.5,70.0 604.4,70.0 608.3,70.0 612.2,70.0 616.1,70.0 619.9,70.0 623.8,70.0 627.7,76.0 631.6,70.0 635.5,70.0 639.3,70.0 643.2,70.0 647.1,70.0 651.0,76.0 654.8,76.0 658.7,88.0 662.6,88.0 666.5,88.0 670.4,94.0 674.2,94.0 678.1,94.0 682.0,94.0 685.9,88.0 689.8,88.0 693.6,82.0 697.5,82.0 701.4,82.0 705.3,88.0 709.2,88.0 713.0,94.0 716.9,82.0 720.8,82.0 724.7,82.0 728.5,82.0 732.4,88.0 736.3,88.0 740.2,94.0 744.1,94.0 747.9,88.0 751.8,88.0 755.7,88.0 759.6,94.0 763.5,94.0 767.3,106.0 771.2,94.0 775.1,94.0 779.0,94.0 782.8,94.0 786.7,88.0 790.6,88.0 794.5,82.0 798.4,76.0 802.2,76.0 806.1,76.0 810.0,76.0 813.9,76.0 817.8,76.0 821.6,70.0 825.5,70.0 829.4,70.0 833.3,76.0 837.2,88.0 841.0,82.0 844.9,70.0 848.8,70.0 852.7,70.0 856.5,76.0 860.4,76.0 864.3,76.0 868.2,82.0 872.1,70.0 875.9,76.0 879.8,64.0 883.7,70.0 887.6,58.0 891.5,58.0 895.3,58.0 899.2,58.0 903.1,58.0 907.0,64.0 910.8,58.0 914.7,64.0 918.6,58.0 922.5,58.0 926.4,58.0 930.2,58.0 934.1,64.0 938.0,64.0"/><polyline fill="none" stroke="#f59e0b" stroke-width="2.5" stroke-linejoin="round" stroke-linecap="round" points="42.0,274.0 45.9,274.0 49.8,274.0 53.6,280.0 57.5,268.0 61.4,268.0 65.3,268.0 69.2,274.0 73.0,274.0 76.9,274.0 80.8,280.0 84.7,286.0 88.5,286.0 92.4,286.0 96.3,286.0 100.2,286.0 104.1,286.0 107.9,286.0 111.8,286.0 115.7,286.0 119.6,286.0 123.5,286.0 127.3,286.0 131.2,286.0 135.1,286.0 139.0,286.0 142.8,286.0 146.7,286.0 150.6,286.0 154.5,286.0 158.4,286.0 162.2,274.0 166.1,280.0 170.0,280.0 173.9,280.0 177.8,280.0 181.6,286.0 185.5,286.0 189.4,286.0 193.3,274.0 197.2,268.0 201.0,268.0 204.9,262.0 208.8,262.0 212.7,262.0 216.5,262.0 220.4,268.0 224.3,280.0 228.2,280.0 232.1,274.0 235.9,262.0 239.8,268.0 243.7,268.0 247.6,262.0 251.5,268.0 255.3,268.0 259.2,268.0 263.1,280.0 267.0,280.0 270.8,268.0 274.7,268.0 278.6,268.0 282.5,262.0 286.4,274.0 290.2,280.0 294.1,286.0 298.0,286.0 301.9,274.0 305.8,274.0 309.6,274.0 313.5,274.0 317.4,274.0 321.3,274.0 325.2,274.0 329.0,274.0 332.9,280.0 336.8,274.0 340.7,280.0 344.5,286.0 348.4,286.0 352.3,286.0 356.2,286.0 360.1,280.0 363.9,286.0 367.8,286.0 371.7,286.0 375.6,286.0 379.5,286.0 383.3,286.0 387.2,286.0 391.1,286.0 395.0,286.0 398.8,286.0 402.7,286.0 406.6,286.0 410.5,286.0 414.4,286.0 418.2,286.0 422.1,286.0 426.0,286.0 429.9,286.0 433.8,286.0 437.6,286.0 441.5,286.0 445.4,286.0 449.3,286.0 453.2,286.0 457.0,286.0 460.9,286.0 464.8,286.0 468.7,286.0 472.5,286.0 476.4,286.0 480.3,286.0 484.2,286.0 488.1,286.0 491.9,286.0 495.8,286.0 499.7,286.0 503.6,286.0 507.5,286.0 511.3,286.0 515.2,286.0 519.1,286.0 523.0,286.0 526.8,286.0 530.7,286.0 534.6,286.0 538.5,286.0 542.4,286.0 546.2,286.0 550.1,286.0 554.0,286.0 557.9,286.0 561.8,286.0 565.6,286.0 569.5,286.0 573.4,286.0 577.3,286.0 581.2,286.0 585.0,286.0 588.9,286.0 592.8,286.0 596.7,286.0 600.5,286.0 604.4,286.0 608.3,286.0 612.2,286.0 616.1,286.0 619.9,286.0 623.8,286.0 627.7,286.0 631.6,286.0 635.5,286.0 639.3,286.0 643.2,286.0 647.1,286.0 651.0,286.0 654.8,280.0 658.7,268.0 662.6,268.0 666.5,268.0 670.4,268.0 674.2,262.0 678.1,262.0 682.0,262.0 685.9,268.0 689.8,268.0 693.6,274.0 697.5,274.0 701.4,274.0 705.3,268.0 709.2,268.0 713.0,268.0 716.9,274.0 720.8,274.0 724.7,274.0 728.5,274.0 732.4,268.0 736.3,268.0 740.2,262.0 744.1,262.0 747.9,268.0 751.8,268.0 755.7,268.0 759.6,262.0 763.5,262.0 767.3,274.0 771.2,262.0 775.1,262.0 779.0,262.0 782.8,262.0 786.7,268.0 790.6,268.0 794.5,274.0 798.4,280.0 802.2,280.0 806.1,280.0 810.0,280.0 813.9,280.0 817.8,280.0 821.6,286.0 825.5,286.0 829.4,286.0 833.3,280.0 837.2,274.0 841.0,274.0 844.9,280.0 848.8,274.0 852.7,274.0 856.5,268.0 860.4,268.0 864.3,268.0 868.2,268.0 872.1,280.0 875.9,274.0 879.8,280.0 883.7,280.0 887.6,286.0 891.5,286.0 895.3,286.0 899.2,286.0 903.1,286.0 907.0,286.0 910.8,286.0 914.7,286.0 918.6,286.0 922.5,286.0 926.4,286.0 930.2,286.0 934.1,280.0 938.0,280.0"/><polyline fill="none" stroke="#ef4444" stroke-width="2.5" stroke-linejoin="round" stroke-linecap="round" points="42.0,280.0 45.9,280.0 49.8,268.0 53.6,262.0 57.5,286.0 61.4,286.0 65.3,286.0 69.2,286.0 73.0,280.0 76.9,286.0 80.8,286.0 84.7,286.0 88.5,286.0 92.4,286.0 96.3,286.0 100.2,286.0 104.1,286.0 107.9,286.0 111.8,286.0 115.7,286.0 119.6,286.0 123.5,286.0 127.3,286.0 131.2,286.0 135.1,286.0 139.0,286.0 142.8,286.0 146.7,286.0 150.6,286.0 154.5,286.0 158.4,286.0 162.2,286.0 166.1,274.0 170.0,256.0 173.9,286.0 177.8,286.0 181.6,286.0 185.5,286.0 189.4,286.0 193.3,286.0 197.2,286.0 201.0,286.0 204.9,286.0 208.8,286.0 212.7,286.0 216.5,286.0 220.4,286.0 224.3,286.0 228.2,280.0 232.1,286.0 235.9,286.0 239.8,286.0 243.7,286.0 247.6,286.0 251.5,286.0 255.3,286.0 259.2,286.0 263.1,286.0 267.0,286.0 270.8,286.0 274.7,286.0 278.6,286.0 282.5,280.0 286.4,286.0 290.2,286.0 294.1,286.0 298.0,286.0 301.9,286.0 305.8,286.0 309.6,286.0 313.5,286.0 317.4,286.0 321.3,286.0 325.2,286.0 329.0,286.0 332.9,274.0 336.8,274.0 340.7,274.0 344.5,274.0 348.4,274.0 352.3,274.0 356.2,274.0 360.1,274.0 363.9,274.0 367.8,274.0 371.7,274.0 375.6,274.0 379.5,274.0 383.3,274.0 387.2,274.0 391.1,274.0 395.0,274.0 398.8,274.0 402.7,274.0 406.6,274.0 410.5,274.0 414.4,274.0 418.2,274.0 422.1,274.0 426.0,274.0 429.9,274.0 433.8,274.0 437.6,274.0 441.5,274.0 445.4,274.0 449.3,274.0 453.2,274.0 457.0,274.0 460.9,274.0 464.8,274.0 468.7,274.0 472.5,274.0 476.4,274.0 480.3,274.0 484.2,274.0 488.1,274.0 491.9,274.0 495.8,274.0 499.7,274.0 503.6,274.0 507.5,274.0 511.3,274.0 515.2,274.0 519.1,274.0 523.0,274.0 526.8,274.0 530.7,274.0 534.6,274.0 538.5,274.0 542.4,274.0 546.2,274.0 550.1,274.0 554.0,274.0 557.9,274.0 561.8,274.0 565.6,274.0 569.5,274.0 573.4,274.0 577.3,274.0 581.2,274.0 585.0,274.0 588.9,274.0 592.8,274.0 596.7,274.0 600.5,274.0 604.4,274.0 608.3,274.0 612.2,274.0 616.1,274.0 619.9,274.0 623.8,274.0 627.7,268.0 631.6,274.0 635.5,274.0 639.3,274.0 643.2,274.0 647.1,274.0 651.0,274.0 654.8,274.0 658.7,274.0 662.6,274.0 666.5,274.0 670.4,268.0 674.2,274.0 678.1,274.0 682.0,274.0 685.9,274.0 689.8,274.0 693.6,274.0 697.5,274.0 701.4,274.0 705.3,274.0 709.2,274.0 713.0,268.0 716.9,274.0 720.8,274.0 724.7,274.0 728.5,274.0 732.4,274.0 736.3,274.0 740.2,274.0 744.1,274.0 747.9,274.0 751.8,274.0 755.7,274.0 759.6,274.0 763.5,274.0 767.3,250.0 771.2,274.0 775.1,274.0 779.0,274.0 782.8,274.0 786.7,274.0 790.6,274.0 794.5,274.0 798.4,274.0 802.2,274.0 806.1,274.0 810.0,274.0 813.9,274.0 817.8,274.0 821.6,274.0 825.5,274.0 829.4,274.0 833.3,274.0 837.2,268.0 841.0,274.0 844.9,280.0 848.8,286.0 852.7,286.0 856.5,286.0 860.4,286.0 864.3,286.0 868.2,280.0 872.1,280.0 875.9,286.0 879.8,286.0 883.7,280.0 887.6,286.0 891.5,286.0 895.3,286.0 899.2,286.0 903.1,286.0 907.0,280.0 910.8,286.0 914.7,286.0 918.6,286.0 922.5,286.0 926.4,286.0 930.2,286.0 934.1,286.0 938.0,286.0"/><polyline fill="none" stroke="#a855f7" stroke-width="2.5" stroke-linejoin="round" stroke-linecap="round" points="42.0,286.0 45.9,286.0 49.8,286.0 53.6,286.0 57.5,286.0 61.4,286.0 65.3,286.0 69.2,286.0 73.0,286.0 76.9,286.0 80.8,286.0 84.7,286.0 88.5,286.0 92.4,286.0 96.3,286.0 100.2,286.0 104.1,286.0 107.9,286.0 111.8,286.0 115.7,286.0 119.6,286.0 123.5,286.0 127.3,286.0 131.2,286.0 135.1,286.0 139.0,286.0 142.8,286.0 146.7,286.0 150.6,286.0 154.5,286.0 158.4,286.0 162.2,286.0 166.1,286.0 170.0,286.0 173.9,286.0 177.8,286.0 181.6,286.0 185.5,286.0 189.4,286.0 193.3,286.0 197.2,286.0 201.0,286.0 204.9,286.0 208.8,286.0 212.7,286.0 216.5,286.0 220.4,286.0 224.3,286.0 228.2,286.0 232.1,286.0 235.9,286.0 239.8,286.0 243.7,286.0 247.6,286.0 251.5,286.0 255.3,286.0 259.2,286.0 263.1,286.0 267.0,286.0 270.8,286.0 274.7,286.0 278.6,286.0 282.5,286.0 286.4,286.0 290.2,286.0 294.1,286.0 298.0,286.0 301.9,286.0 305.8,286.0 309.6,286.0 313.5,280.0 317.4,286.0 321.3,286.0 325.2,286.0 329.0,286.0 332.9,286.0 336.8,286.0 340.7,286.0 344.5,286.0 348.4,286.0 352.3,286.0 356.2,286.0 360.1,286.0 363.9,286.0 367.8,286.0 371.7,286.0 375.6,286.0 379.5,286.0 383.3,286.0 387.2,286.0 391.1,286.0 395.0,286.0 398.8,286.0 402.7,286.0 406.6,286.0 410.5,286.0 414.4,286.0 418.2,286.0 422.1,286.0 426.0,286.0 429.9,286.0 433.8,286.0 437.6,286.0 441.5,286.0 445.4,286.0 449.3,286.0 453.2,286.0 457.0,286.0 460.9,286.0 464.8,286.0 468.7,286.0 472.5,286.0 476.4,286.0 480.3,286.0 484.2,286.0 488.1,286.0 491.9,286.0 495.8,286.0 499.7,286.0 503.6,286.0 507.5,286.0 511.3,286.0 515.2,286.0 519.1,286.0 523.0,286.0 526.8,286.0 530.7,286.0 534.6,286.0 538.5,286.0 542.4,286.0 546.2,286.0 550.1,286.0 554.0,286.0 557.9,286.0 561.8,286.0 565.6,286.0 569.5,286.0 573.4,286.0 577.3,286.0 581.2,286.0 585.0,286.0 588.9,286.0 592.8,286.0 596.7,286.0 600.5,286.0 604.4,286.0 608.3,286.0 612.2,286.0 616.1,286.0 619.9,286.0 623.8,286.0 627.7,286.0 631.6,286.0 635.5,286.0 639.3,286.0 643.2,286.0 647.1,286.0 651.0,280.0 654.8,286.0 658.7,286.0 662.6,286.0 666.5,286.0 670.4,286.0 674.2,286.0 678.1,286.0 682.0,286.0 685.9,286.0 689.8,286.0 693.6,286.0 697.5,286.0 701.4,286.0 705.3,286.0 709.2,286.0 713.0,286.0 716.9,286.0 720.8,286.0 724.7,286.0 728.5,286.0 732.4,286.0 736.3,286.0 740.2,286.0 744.1,286.0 747.9,286.0 751.8,286.0 755.7,286.0 759.6,286.0 763.5,286.0 767.3,286.0 771.2,286.0 775.1,286.0 779.0,286.0 782.8,286.0 786.7,286.0 790.6,286.0 794.5,286.0 798.4,286.0 802.2,286.0 806.1,286.0 810.0,286.0 813.9,286.0 817.8,286.0 821.6,286.0 825.5,286.0 829.4,286.0 833.3,286.0 837.2,286.0 841.0,286.0 844.9,286.0 848.8,286.0 852.7,286.0 856.5,286.0 860.4,286.0 864.3,286.0 868.2,286.0 872.1,286.0 875.9,280.0 879.8,286.0 883.7,286.0 887.6,286.0 891.5,286.0 895.3,286.0 899.2,286.0 903.1,286.0 907.0,286.0 910.8,286.0 914.7,280.0 918.6,286.0 922.5,286.0 926.4,286.0 930.2,286.0 934.1,286.0 938.0,286.0"/><text x="42" y="308" font-size="11" fill="#5a688a">19/06 12:43</text><text x="938" y="308" text-anchor="end" font-size="11" fill="#5a688a">02/07 10:31</text></svg>