<svg xmlns="http://www.w3.org/2000/svg" viewBox="0 0 960 320" width="960" height="320" font-family="Segoe UI, system-ui, -apple-system, Roboto, Helvetica, Arial, sans-serif" role="img" aria-label="Availability history per region"><rect x="0.5" y="0.5" width="959" height="319" rx="14" fill="#ffffff" stroke="#dce3f1"/><text x="42" y="26" font-size="14" font-weight="600" fill="#14203a">History · 218 points</text><circle cx="47" cy="40" r="5" fill="#22c55e"/><text x="57" y="44" font-size="12" fill="#5a688a">Available</text><circle cx="139.8" cy="40" r="5" fill="#f59e0b"/><text x="149.8" y="44" font-size="12" fill="#5a688a">Saturated</text><circle cx="232.60000000000002" cy="40" r="5" fill="#ef4444"/><text x="242.60000000000002" y="44" font-size="12" fill="#5a688a">Error</text><circle cx="296.6" cy="40" r="5" fill="#a855f7"/><text x="306.6" y="44" font-size="12" fill="#5a688a">Timeout</text><line x1="42" y1="286.0" x2="938" y2="286.0" stroke="#eef2f7" stroke-width="1"/><text x="35" y="289.0" text-anchor="end" font-size="11" fill="#5a688a">0</text><line x1="42" y1="227.5" x2="938" y2="227.5" stroke="#eef2f7" stroke-width="1"/><text x="35" y="230.5" text-anchor="end" font-size="11" fill="#5a688a">10</text><line x1="42" y1="169.0" x2="938" y2="169.0" stroke="#eef2f7" stroke-width="1"/><text x="35" y="172.0" text-anchor="end" font-size="11" fill="#5a688a">20</text><line x1="42" y1="110.5" x2="938" y2="110.5" stroke="#eef2f7" stroke-width="1"/><text x="35" y="113.5" text-anchor="end" font-size="11" fill="#5a688a">29</text><line x1="42" y1="52.0" x2="938" y2="52.0" stroke="#eef2f7" stroke-width="1"/><text x="35" y="55.0" text-anchor="end" font-size="11" fill="#5a688a">39</text><polyline fill="none" stroke="#22c55e" stroke-width="2.5" stroke-linejoin="round" stroke-linecap="round" points="42.0,70.0 46.1,70.0 50.3,88.0 54.4,88.0 58.5,76.0 62.6,76.0 66.8,76.0 70.9,70.0 75.0,76.0 79.2,70.0 83.3,64.0 87.4,58.0 91.5,58.0 95.7,58.0 99.8,58.0 103.9,58.0 108.1,58.0 112.2,58.0 116.3,58.0 120.5,58.0 124.6,58.0 128.7,58.0 132.8,58.0 137.0,58.0 141.1,58.0 145.2,58.0 149.4,58.0 153.5,58.0 157.6,58.0 161.7,58.0 165.9,58.0 170.0,70.0 174.1,76.0 178.3,94.0 182.4,64.0 186.5,64.0 190.6,58.0 194.8,58.0 198.9,58.0 203.0,70.0 207.2,76.0 211.3,76.0 215.4,82.0 219.5,82.0 223.7,82.0 227.8,82.0 231.9,76.0 236.1,64.0 240.2,70.0 244.3,70.0 248.5,82.0 252.6,76.0 256.7,76.0 260.8,82.0 265.0,76.0 269.1,76.0 273.2,76.0 277.4,64.0 281.5,64.0 285.6,76.0 289.7,76.0 293.9,76.0 298.0,88.0 302.1,70.0 306.3,64.0 310.4,58.0 314.5,58.0 318.6,70.0 322.8,70.0 326.9,70.0 331.0,76.0 335.2,70.0 339.3,70.0 343.4,70.0 347.5,70.0 351.7,76.0 355.8,82.0 359.9,76.0 364.1,70.0 368.2,70.0 372.3,70.0 376.5,70.0 380.6,76.0 384.7,70.0 388.8,70.0 393.0,70.0 397.1,70.0 401.2,70.0 405.4,70.0 409.5,70.0 413.6,70.0 417.7,70.0 421.9,70.0 426.0,70.0 430.1,70.0 434.3,70.0 438.4,70.0 442.5,70.0 446.6,70.0 450.8,70.0 454.9,70.0 459.0,70.0 463.2,70.0 467.3,70.0 471.4,70.0 475.5,70.0 479.7,70.0 483.8,70.0 487.9,70.0 492.1,70.0 496.2,70.0 500.3,70.0 504.5,70.0 508.6,70.0 512.7,70.0 516.8,70.0 521.0,70.0 525.1,70.0 529.2,70.0 533.4,70.0 537.5,70.0 541.6,70.0 545.7,70.0 549.9,70.0 554.0,70.0 558.1,70.0 562.3,70.0 566.4,70.0 570.5,70.0 574.6,70.0 578.8,70.0 582.9,70.0 587.0,70.0 591.2,70.0 595.3,70.0 599.4,70.0 603.5,70.0 607.7,70.0 611.8,70.0 615.9,70.0 620.1,70.0 624.2,70.0 628.3,70.0 632.5,70.0 636.6,70.0 640.7,70.0 644.8,70.0 649.0,70.0 653.1,70.0 657.2,70.0 661.4,70.0 665.5,76.0 669.6,70.0 673.7,70.0 677.9,70.0 682.0,70.0 686.1,70.0 690.3,76.0 694.4,76.0 698.5,88.0 702.6,88.0 706.8,88.0 710.9,94.0 715.0,94.0 719.2,94.0 723.3,94.0 727.4,88.0 731.5,88.0 735.7,82.0 739.8,82.0 743.9,82.0 748.1,88.0 752.2,88.0 756.3,94.0 760.5,82.0 764.6,82.0 768.7,82.0 772.8,82.0 777.0,88.0 781.1,88.0 785.2,94.0 789.4,94.0 793.5,88.0 797.6,88.0 801.7,88.0 805.9,94.0 810.0,94.0 814.1,106.0 818.3,94.0 822.4,94.0 826.5,94.0 830.6,94.0 834.8,88.0 838.9,88.0 843.0,82.0 847.2,76.0 851.3,76.0 855.4,76.0 859.5,76.0 863.7,76.0 867.8,76.0 871.9,70.0 876.1,70.0 880.2,70.0 884.3,76.0 888.5,88.0 892.6,82.0 896.7,70.0 900.8,70.0 905.0,70.0 909.1,76.0 913.2,76.0 917.4,76.0 921.5,82.0 925.6,70.0 929.7,76.0 933.9,64.0 938.0,70.0"/><polyline fill="none" stroke="#f59e0b" stroke-width="2.5" stroke-linejoin="round" stroke-linecap="round" points="42.0,274.0 46.1,274.0 50.3,274.0 54.4,280.0 58.5,268.0 62.6,268.0 66.8,268.0 70.9,274.0 75.0,274.0 79.2,274.0 83.3,280.0 87.4,286.0 91.5,286.0 95.7,286.0 99.8,286.0 103.9,286.0 108.1,286.0 112.2,286.0 116.3,286.0 120.5,286.0 124.6,286.0 128.7,286.0 132.8,286.0 137.0,286.0 141.1,286.0 145.2,286.0 149.4,286.0 153.5,286.0 157.6,286.0 161.7,286.0 165.9,286.0 170.0,274.0 174.1,280.0 178.3,280.0 182.4,280.0 186.5,280.0 190.6,286.0 194.8,286.0 198.9,286.0 203.0,274.0 207.2,268.0 211.3,268.0 215.4,262.0 219.5,262.0 223.7,262.0 227.8,262.0 231.9,268.0 236.1,280.0 240.2,280.0 244.3,274.0 248.5,262.0 252.6,268.0 256.7,268.0 260.8,262.0 265.0,268.0 269.1,268.0 273.2,268.0 277.4,280.0 281.5,280.0 285.6,268.0 289.7,268.0 293.9,268.0 298.0,262.0 302.1,274.0 306.3,280.0 310.4,286.0 314.5,286.0 318.6,274.0 322.8,274.0 326.9,274.0 331.0,274.0 335.2,274.0 339.3,274.0 343.4,274.0 347.5,274.0 351.7,280.0 355.8,274.0 359.9,280.0 364.1,286.0 368.2,286.0 372.3,286.0 376.5,286.0 380.6,280.0 384.7,286.0 388.8,286.0 393.0,286.0 397.1,286.0 401.2,286.0 405.4,286.0 409.5,286.0 413.6,286.0 417.7,286.0 421.9,286.0 426.0,286.0 430.1,286.0 434.3,286.0 438.4,286.0 442.5,286.0 446.6,286.0 450.8,286.0 454.9,286.0 459.0,286.0 463.2,286.0 467.3,286.0 471.4,286.0 475.5,286.0 479.7,286.0 483.8,286.0 487.9,286.0 492.1,286.0 496.2,286.0 500.3,286.0 504.5,286.0 508.6,286.0 512.7,286.0 516.8,286.0 521.0,286.0 525.1,286.0 529.2,286.0 533.4,286.0 537.5,286.0 541.6,286.0 545.7,286.0 549.9,286.0 554.0,286.0 558.1,286.0 562.3,286.0 566.4,286.0 570.5,286.0 574.6,286.0 578.8,286.0 582.9,286.0 587.0,286.0 591.2,286.0 595.3,286.0 599.4,286.0 603.5,286.0 607.7,286.0 611.8,286.0 615.9,286.0 620.1,286.0 624.2,286.0 628.3,286.0 632.5,286.0 636.6,286.0 640.7,286.0 644.8,286.0 649.0,286.0 653.1,286.0 657.2,286.0 661.4,286.0 665.5,286.0 669.6,286.0 673.7,286.0 677.9,286.0 682.0,286.0 686.1,286.0 690.3,286.0 694.4,280.0 698.5,268.0 702.6,268.0 706.8,268.0 710.9,268.0 715.0,262.0 719.2,262.0 723.3,262.0 727.4,268.0 731.5,268.0 735.7,274.0 739.8,274.0 743.9,274.0 748.1,268.0 752.2,268.0 756.3,268.0 760.5,274.0 764.6,274.0 768.7,274.0 772.8,274.0 777.0,268.0 781.1,268.0 785.2,262.0 789.4,262.0 793.5,268.0 797.6,268.0 801.7,268.0 805.9,262.0 810.0,262.0 814.1,274.0 818.3,262.0 822.4,262.0 826.5,262.0 830.6,262.0 834.8,268.0 838.9,268.0 843.0,274.0 847.2,280.0 851.3,280.0 855.4,280.0 859.5,280.0 863.7,280.0 867.8,280.0 871.9,286.0 876.1,286.0 880.2,286.0 884.3,280.0 888.5,274.0 892.6,274.0 896.7,280.0 900.8,274.0 905.0,274.0 909.1,268.0 913.2,268.0 917.4,268.0 921.5,268.0 925.6,280.0 929.7,274.0 933.9,280.0 938.0,280.0"/><polyline fill="none" stroke="#ef4444" stroke-width="2.5" stroke-linejoin="round" stroke-linecap="round" points="42.0,280.0 46.1,280.0 50.3,268.0 54.4,262.0 58.5,286.0 62.6,286.0 66.8,286.0 70.9,286.0 75.0,280.0 79.2,286.0 83.3,286.0 87.4,286.0 91.5,286.0 95.7,286.0 99.8,286.0 103.9,286.0 108.1,286.0 112.2,286.0 116.3,286.0 120.5,286.0 124.6,286.0 128.7,286.0 132.8,286.0 137.0,286.0 141.1,286.0 145.2,286.0 149.4,286.0 153.5,286.0 157.6,286.0 161.7,286.0 165.9,286.0 170.0,286.0 174.1,274.0 178.3,256.0 182.4,286.0 186.5,286.0 190.6,286.0 194.8,286.0 198.9,286.0 203.0,286.0 207.2,286.0 211.3,286.0 215.4,286.0 219.5,286.0 223.7,286.0 227.8,286.0 231.9,286.0 236.1,286.0 240.2,280.0 244.3,286.0 248.5,286.0 252.6,286.0 256.7,286.0 260.8,286.0 265.0,286.0 269.1,286.0 273.2,286.0 277.4,286.0 281.5,286.0 285.6,286.0 289.7,286.0 293.9,286.0 298.0,280.0 302.1,286.0 306.3,286.0 310.4,286.0 314.5,286.0 318.6,286.0 322.8,286.0 326.9,286.0 331.0,286.0 335.2,286.0 339.3,286.0 343.4,286.0 347.5,286.0 351.7,274.0 355.8,274.0 359.9,274.0 364.1,274.0 368.2,274.0 372.3,274.0 376.5,274.0 380.6,274.0 384.7,274.0 388.8,274.0 393.0,274.0 397.1,274.0 401.2,274.0 405.4,274.0 409.5,274.0 413.6,274.0 417.7,274.0 421.9,274.0 426.0,274.0 430.1,274.0 434.3,274.0 438.4,274.0 442.5,274.0 446.6,274.0 450.8,274.0 454.9,274.0 459.0,274.0 463.2,274.0 467.3,274.0 471.4,274.0 475.5,274.0 479.7,274.0 483.8,274.0 487.9,274.0 492.1,274.0 496.2,274.0 500.3,274.0 504.5,274.0 508.6,274.0 512.7,274.0 516.8,274.0 521.0,274.0 525.1,274.0 529.2,274.0 533.4,274.0 537.5,274.0 541.6,274.0 545.7,274.0 549.9,274.0 554.0,274.0 558.1,274.0 562.3,274.0 566.4,274.0 570.5,274.0 574.6,274.0 578.8,274.0 582.9,274.0 587.0,274.0 591.2,274.0 595.3,274.0 599.4,274.0 603.5,274.0 607.7,274.0 611.8,274.0 615.9,274.0 620.1,274.0 624.2,274.0 628.3,274.0 632.5,274.0 636.6,274.0 640.7,274.0 644.8,274.0 649.0,274.0 653.1,274.0 657.2,274.0 661.4,274.0 665.5,268.0 669.6,274.0 673.7,274.0 677.9,274.0 682.0,274.0 686.1,274.0 690.3,274.0 694.4,274.0 698.5,274.0 702.6,274.0 706.8,274.0 710.9,268.0 715.0,274.0 719.2,274.0 723.3,274.0 727.4,274.0 731.5,274.0 735.7,274.0 739.8,274.0 743.9,274.0 748.1,274.0 752.2,274.0 756.3,268.0 760.5,274.0 764.6,274.0 768.7,274.0 772.8,274.0 777.0,274.0 781.1,274.0 785.2,274.0 789.4,274.0 793.5,274.0 797.6,274.0 801.7,274.0 805.9,274.0 810.0,274.0 814.1,250.0 818.3,274.0 822.4,274.0 826.5,274.0 830.6,274.0 834.8,274.0 838.9,274.0 843.0,274.0 847.2,274.0 851.3,274.0 855.4,274.0 859.5,274.0 863.7,274.0 867.8,274.0 871.9,274.0 876.1,274.0 880.2,274.0 884.3,274.0 888.5,268.0 892.6,274.0 896.7,280.0 900.8,286.0 905.0,286.0 909.1,286.0 913.2,286.0 917.4,286.0 921.5,280.0 925.6,280.0 929.7,286.0 933.9,286.0 938.0,280.0"/><polyline fill="none" stroke="#a855f7" stroke-width="2.5" stroke-linejoin="round" stroke-linecap="round" points="42.0,286.0 46.1,286.0 50.3,286.0 54.4,286.0 58.5,286.0 62.6,286.0 66.8,286.0 70.9,286.0 75.0,286.0 79.2,286.0 83.3,286.0 87.4,286.0 91.5,286.0 95.7,286.0 99.8,286.0 103.9,286.0 108.1,286.0 112.2,286.0 116.3,286.0 120.5,286.0 124.6,286.0 128.7,286.0 132.8,286.0 137.0,286.0 141.1,286.0 145.2,286.0 149.4,286.0 153.5,286.0 157.6,286.0 161.7,286.0 165.9,286.0 170.0,286.0 174.1,286.0 178.3,286.0 182.4,286.0 186.5,286.0 190.6,286.0 194.8,286.0 198.9,286.0 203.0,286.0 207.2,286.0 211.3,286.0 215.4,286.0 219.5,286.0 223.7,286.0 227.8,286.0 231.9,286.0 236.1,286.0 240.2,286.0 244.3,286.0 248.5,286.0 252.6,286.0 256.7,286.0 260.8,286.0 265.0,286.0 269.1,286.0 273.2,286.0 277.4,286.0 281.5,286.0 285.6,286.0 289.7,286.0 293.9,286.0 298.0,286.0 302.1,286.0 306.3,286.0 310.4,286.0 314.5,286.0 318.6,286.0 322.8,286.0 326.9,286.0 331.0,280.0 335.2,286.0 339.3,286.0 343.4,286.0 347.5,286.0 351.7,286.0 355.8,286.0 359.9,286.0 364.1,286.0 368.2,286.0 372.3,286.0 376.5,286.0 380.6,286.0 384.7,286.0 388.8,286.0 393.0,286.0 397.1,286.0 401.2,286.0 405.4,286.0 409.5,286.0 413.6,286.0 417.7,286.0 421.9,286.0 426.0,286.0 430.1,286.0 434.3,286.0 438.4,286.0 442.5,286.0 446.6,286.0 450.8,286.0 454.9,286.0 459.0,286.0 463.2,286.0 467.3,286.0 471.4,286.0 475.5,286.0 479.7,286.0 483.8,286.0 487.9,286.0 492.1,286.0 496.2,286.0 500.3,286.0 504.5,286.0 508.6,286.0 512.7,286.0 516.8,286.0 521.0,286.0 525.1,286.0 529.2,286.0 533.4,286.0 537.5,286.0 541.6,286.0 545.7,286.0 549.9,286.0 554.0,286.0 558.1,286.0 562.3,286.0 566.4,286.0 570.5,286.0 574.6,286.0 578.8,286.0 582.9,286.0 587.0,286.0 591.2,286.0 595.3,286.0 599.4,286.0 603.5,286.0 607.7,286.0 611.8,286.0 615.9,286.0 620.1,286.0 624.2,286.0 628.3,286.0 632.5,286.0 636.6,286.0 640.7,286.0 644.8,286.0 649.0,286.0 653.1,286.0 657.2,286.0 661.4,286.0 665.5,286.0 669.6,286.0 673.7,286.0 677.9,286.0 682.0,286.0 686.1,286.0 690.3,280.0 694.4,286.0 698.5,286.0 702.6,286.0 706.8,286.0 710.9,286.0 715.0,286.0 719.2,286.0 723.3,286.0 727.4,286.0 731.5,286.0 735.7,286.0 739.8,286.0 743.9,286.0 748.1,286.0 752.2,286.0 756.3,286.0 760.5,286.0 764.6,286.0 768.7,286.0 772.8,286.0 777.0,286.0 781.1,286.0 785.2,286.0 789.4,286.0 793.5,286.0 797.6,286.0 801.7,286.0 805.9,286.0 810.0,286.0 814.1,286.0 818.3,286.0 822.4,286.0 826.5,286.0 830.6,286.0 834.8,286.0 838.9,286.0 843.0,286.0 847.2,286.0 851.3,286.0 855.4,286.0 859.5,286.0 863.7,286.0 867.8,286.0 871.9,286.0 876.1,286.0 880.2,286.0 884.3,286.0 888.5,286.0 892.6,286.0 896.7,286.0 900.8,286.0 905.0,286.0 909.1,286.0 913.2,286.0 917.4,286.0 921.5,286.0 925.6,286.0 929.7,280.0 933.9,286.0 938.0,286.0"/><text x="42" y="308" font-size="11" fill="#5a688a">19/06 12:43</text><text x="938" y="308" text-anchor="end" font-size="11" fill="#5a688a">01/07 20:34</text></svg>