<svg xmlns="http://www.w3.org/2000/svg" viewBox="0 0 960 320" width="960" height="320" font-family="Segoe UI, system-ui, -apple-system, Roboto, Helvetica, Arial, sans-serif" role="img" aria-label="Availability history per region"><rect x="0.5" y="0.5" width="959" height="319" rx="14" fill="#0d1117" stroke="#2c3a5e"/><text x="42" y="26" font-size="14" font-weight="600" fill="#e6ecff">History · 336 points</text><circle cx="47" cy="40" r="5" fill="#22c55e"/><text x="57" y="44" font-size="12" fill="#9fb0d4">Available</text><circle cx="139.8" cy="40" r="5" fill="#f59e0b"/><text x="149.8" y="44" font-size="12" fill="#9fb0d4">Saturated</text><circle cx="232.60000000000002" cy="40" r="5" fill="#ef4444"/><text x="242.60000000000002" y="44" font-size="12" fill="#9fb0d4">Error</text><circle cx="296.6" cy="40" r="5" fill="#a855f7"/><text x="306.6" y="44" font-size="12" fill="#9fb0d4">Timeout</text><line x1="42" y1="286.0" x2="938" y2="286.0" stroke="#21304f" stroke-width="1"/><text x="35" y="289.0" text-anchor="end" font-size="11" fill="#9fb0d4">0</text><line x1="42" y1="227.5" x2="938" y2="227.5" stroke="#21304f" stroke-width="1"/><text x="35" y="230.5" text-anchor="end" font-size="11" fill="#9fb0d4">10</text><line x1="42" y1="169.0" x2="938" y2="169.0" stroke="#21304f" stroke-width="1"/><text x="35" y="172.0" text-anchor="end" font-size="11" fill="#9fb0d4">21</text><line x1="42" y1="110.5" x2="938" y2="110.5" stroke="#21304f" stroke-width="1"/><text x="35" y="113.5" text-anchor="end" font-size="11" fill="#9fb0d4">32</text><line x1="42" y1="52.0" x2="938" y2="52.0" stroke="#21304f" stroke-width="1"/><text x="35" y="55.0" text-anchor="end" font-size="11" fill="#9fb0d4">42</text><polyline fill="none" stroke="#22c55e" stroke-width="2.5" stroke-linejoin="round" stroke-linecap="round" points="42.0,57.6 44.7,57.6 47.3,57.6 50.0,52.0 52.7,52.0 55.4,57.6 58.0,57.6 60.7,52.0 63.4,52.0 66.1,52.0 68.7,52.0 71.4,52.0 74.1,52.0 76.8,52.0 79.4,52.0 82.1,52.0 84.8,52.0 87.5,52.0 90.1,52.0 92.8,52.0 95.5,52.0 98.2,57.6 100.8,52.0 103.5,52.0 106.2,52.0 108.9,52.0 111.5,52.0 114.2,52.0 116.9,52.0 119.6,52.0 122.2,52.0 124.9,57.6 127.6,57.6 130.3,57.6 132.9,63.1 135.6,63.1 138.3,57.6 141.0,57.6 143.6,52.0 146.3,52.0 149.0,52.0 151.7,52.0 154.3,52.0 157.0,57.6 159.7,57.6 162.4,57.6 165.0,52.0 167.7,57.6 170.4,52.0 173.1,52.0 175.7,52.0 178.4,52.0 181.1,52.0 183.8,52.0 186.4,52.0 189.1,57.6 191.8,52.0 194.5,52.0 197.1,52.0 199.8,52.0 202.5,52.0 205.2,52.0 207.8,52.0 210.5,52.0 213.2,52.0 215.9,57.6 218.5,57.6 221.2,52.0 223.9,57.6 226.5,57.6 229.2,57.6 231.9,68.7 234.6,52.0 237.2,52.0 239.9,68.7 242.6,52.0 245.3,169.0 247.9,57.6 250.6,52.0 253.3,57.6 256.0,57.6 258.6,52.0 261.3,52.0 264.0,57.6 266.7,52.0 269.3,52.0 272.0,57.6 274.7,57.6 277.4,57.6 280.0,57.6 282.7,57.6 285.4,57.6 288.1,57.6 290.7,57.6 293.4,57.6 296.1,57.6 298.8,57.6 301.4,57.6 304.1,52.0 306.8,52.0 309.5,52.0 312.1,57.6 314.8,52.0 317.5,52.0 320.2,57.6 322.8,52.0 325.5,52.0 328.2,52.0 330.9,57.6 333.5,57.6 336.2,52.0 338.9,57.6 341.6,52.0 344.2,57.6 346.9,52.0 349.6,57.6 352.3,52.0 354.9,74.3 357.6,63.1 360.3,74.3 363.0,52.0 365.6,52.0 368.3,68.7 371.0,79.9 373.7,52.0 376.3,52.0 379.0,52.0 381.7,57.6 384.4,52.0 387.0,52.0 389.7,57.6 392.4,57.6 395.1,57.6 397.7,57.6 400.4,57.6 403.1,52.0 405.7,52.0 408.4,57.6 411.1,57.6 413.8,185.7 416.4,57.6 419.1,63.1 421.8,57.6 424.5,57.6 427.1,52.0 429.8,52.0 432.5,57.6 435.2,52.0 437.8,52.0 440.5,52.0 443.2,52.0 445.9,52.0 448.5,52.0 451.2,52.0 453.9,52.0 456.6,57.6 459.2,52.0 461.9,57.6 464.6,57.6 467.3,57.6 469.9,57.6 472.6,57.6 475.3,57.6 478.0,63.1 480.6,63.1 483.3,63.1 486.0,63.1 488.7,74.3 491.3,63.1 494.0,63.1 496.7,57.6 499.4,68.7 502.0,57.6 504.7,57.6 507.4,57.6 510.1,63.1 512.7,57.6 515.4,57.6 518.1,57.6 520.8,52.0 523.4,52.0 526.1,52.0 528.8,52.0 531.5,52.0 534.1,57.6 536.8,52.0 539.5,57.6 542.2,52.0 544.8,57.6 547.5,52.0 550.2,52.0 552.9,57.6 555.5,52.0 558.2,57.6 560.9,57.6 563.6,52.0 566.2,57.6 568.9,57.6 571.6,52.0 574.3,52.0 576.9,52.0 579.6,52.0 582.3,52.0 584.9,52.0 587.6,52.0 590.3,52.0 593.0,52.0 595.6,57.6 598.3,52.0 601.0,52.0 603.7,52.0 606.3,52.0 609.0,57.6 611.7,57.6 614.4,52.0 617.0,52.0 619.7,57.6 622.4,52.0 625.1,52.0 627.7,52.0 630.4,52.0 633.1,52.0 635.8,57.6 638.4,52.0 641.1,52.0 643.8,52.0 646.5,57.6 649.1,52.0 651.8,57.6 654.5,63.1 657.2,57.6 659.8,57.6 662.5,57.6 665.2,57.6 667.9,57.6 670.5,57.6 673.2,57.6 675.9,63.1 678.6,57.6 681.2,57.6 683.9,57.6 686.6,57.6 689.3,52.0 691.9,52.0 694.6,52.0 697.3,52.0 700.0,52.0 702.6,57.6 705.3,68.7 708.0,52.0 710.7,52.0 713.3,57.6 716.0,57.6 718.7,57.6 721.4,63.1 724.0,57.6 726.7,63.1 729.4,63.1 732.1,63.1 734.7,63.1 737.4,63.1 740.1,74.3 742.8,74.3 745.4,63.1 748.1,57.6 750.8,57.6 753.5,63.1 756.1,57.6 758.8,57.6 761.5,57.6 764.1,57.6 766.8,57.6 769.5,57.6 772.2,57.6 774.8,57.6 777.5,63.1 780.2,57.6 782.9,57.6 785.5,57.6 788.2,57.6 790.9,57.6 793.6,57.6 796.2,57.6 798.9,57.6 801.6,57.6 804.3,57.6 806.9,57.6 809.6,68.7 812.3,63.1 815.0,57.6 817.6,57.6 820.3,57.6 823.0,57.6 825.7,57.6 828.3,57.6 831.0,63.1 833.7,57.6 836.4,57.6 839.0,57.6 841.7,57.6 844.4,57.6 847.1,63.1 849.7,63.1 852.4,57.6 855.1,63.1 857.8,57.6 860.4,57.6 863.1,63.1 865.8,57.6 868.5,57.6 871.1,57.6 873.8,163.4 876.5,57.6 879.2,57.6 881.8,57.6 884.5,57.6 887.2,57.6 889.9,57.6 892.5,57.6 895.2,63.1 897.9,57.6 900.6,57.6 903.2,57.6 905.9,57.6 908.6,63.1 911.3,57.6 913.9,63.1 916.6,57.6 919.3,57.6 922.0,63.1 924.6,63.1 927.3,57.6 930.0,63.1 932.7,57.6 935.3,63.1 938.0,63.1"/><polyline fill="none" stroke="#f59e0b" stroke-width="2.5" stroke-linejoin="round" stroke-linecap="round" points="42.0,280.4 44.7,280.4 47.3,280.4 50.0,286.0 52.7,286.0 55.4,286.0 58.0,286.0 60.7,286.0 63.4,286.0 66.1,286.0 68.7,286.0 71.4,286.0 74.1,286.0 76.8,286.0 79.4,286.0 82.1,286.0 84.8,286.0 87.5,286.0 90.1,286.0 92.8,286.0 95.5,286.0 98.2,286.0 100.8,286.0 103.5,286.0 106.2,286.0 108.9,286.0 111.5,286.0 114.2,286.0 116.9,286.0 119.6,286.0 122.2,286.0 124.9,280.4 127.6,286.0 130.3,286.0 132.9,286.0 135.6,280.4 138.3,280.4 141.0,286.0 143.6,286.0 146.3,286.0 149.0,286.0 151.7,286.0 154.3,286.0 157.0,286.0 159.7,286.0 162.4,286.0 165.0,286.0 167.7,286.0 170.4,286.0 173.1,286.0 175.7,286.0 178.4,286.0 181.1,286.0 183.8,286.0 186.4,286.0 189.1,286.0 191.8,286.0 194.5,286.0 197.1,286.0 199.8,286.0 202.5,286.0 205.2,286.0 207.8,286.0 210.5,286.0 213.2,286.0 215.9,286.0 218.5,286.0 221.2,286.0 223.9,286.0 226.5,286.0 229.2,286.0 231.9,286.0 234.6,286.0 237.2,286.0 239.9,286.0 242.6,286.0 245.3,286.0 247.9,286.0 250.6,286.0 253.3,286.0 256.0,286.0 258.6,286.0 261.3,286.0 264.0,286.0 266.7,286.0 269.3,286.0 272.0,286.0 274.7,286.0 277.4,280.4 280.0,280.4 282.7,280.4 285.4,280.4 288.1,280.4 290.7,280.4 293.4,280.4 296.1,280.4 298.8,286.0 301.4,286.0 304.1,286.0 306.8,286.0 309.5,286.0 312.1,286.0 314.8,286.0 317.5,286.0 320.2,286.0 322.8,286.0 325.5,286.0 328.2,286.0 330.9,280.4 333.5,280.4 336.2,286.0 338.9,286.0 341.6,286.0 344.2,286.0 346.9,286.0 349.6,286.0 352.3,286.0 354.9,286.0 357.6,286.0 360.3,286.0 363.0,286.0 365.6,286.0 368.3,286.0 371.0,286.0 373.7,286.0 376.3,286.0 379.0,286.0 381.7,286.0 384.4,286.0 387.0,286.0 389.7,286.0 392.4,286.0 395.1,286.0 397.7,286.0 400.4,286.0 403.1,286.0 405.7,286.0 408.4,280.4 411.1,280.4 413.8,280.4 416.4,280.4 419.1,280.4 421.8,280.4 424.5,280.4 427.1,286.0 429.8,286.0 432.5,286.0 435.2,286.0 437.8,286.0 440.5,286.0 443.2,286.0 445.9,286.0 448.5,286.0 451.2,286.0 453.9,286.0 456.6,286.0 459.2,286.0 461.9,280.4 464.6,280.4 467.3,280.4 469.9,280.4 472.6,280.4 475.3,280.4 478.0,274.9 480.6,274.9 483.3,274.9 486.0,274.9 488.7,274.9 491.3,280.4 494.0,280.4 496.7,280.4 499.4,280.4 502.0,280.4 504.7,280.4 507.4,280.4 510.1,280.4 512.7,280.4 515.4,280.4 518.1,286.0 520.8,286.0 523.4,286.0 526.1,286.0 528.8,286.0 531.5,286.0 534.1,286.0 536.8,286.0 539.5,286.0 542.2,286.0 544.8,286.0 547.5,286.0 550.2,286.0 552.9,286.0 555.5,286.0 558.2,286.0 560.9,286.0 563.6,286.0 566.2,286.0 568.9,286.0 571.6,286.0 574.3,286.0 576.9,286.0 579.6,286.0 582.3,286.0 584.9,286.0 587.6,286.0 590.3,286.0 593.0,286.0 595.6,286.0 598.3,286.0 601.0,286.0 603.7,286.0 606.3,286.0 609.0,286.0 611.7,286.0 614.4,286.0 617.0,286.0 619.7,286.0 622.4,286.0 625.1,286.0 627.7,286.0 630.4,286.0 633.1,286.0 635.8,286.0 638.4,286.0 641.1,286.0 643.8,286.0 646.5,286.0 649.1,286.0 651.8,280.4 654.5,280.4 657.2,280.4 659.8,280.4 662.5,280.4 665.2,280.4 667.9,280.4 670.5,280.4 673.2,280.4 675.9,280.4 678.6,280.4 681.2,280.4 683.9,280.4 686.6,280.4 689.3,286.0 691.9,286.0 694.6,286.0 697.3,286.0 700.0,286.0 702.6,286.0 705.3,286.0 708.0,286.0 710.7,286.0 713.3,280.4 716.0,280.4 718.7,280.4 721.4,280.4 724.0,280.4 726.7,280.4 729.4,274.9 732.1,274.9 734.7,274.9 737.4,274.9 740.1,274.9 742.8,274.9 745.4,274.9 748.1,280.4 750.8,280.4 753.5,280.4 756.1,280.4 758.8,280.4 761.5,280.4 764.1,280.4 766.8,280.4 769.5,280.4 772.2,280.4 774.8,280.4 777.5,280.4 780.2,280.4 782.9,280.4 785.5,286.0 788.2,280.4 790.9,280.4 793.6,280.4 796.2,280.4 798.9,280.4 801.6,280.4 804.3,280.4 806.9,280.4 809.6,286.0 812.3,286.0 815.0,280.4 817.6,280.4 820.3,280.4 823.0,280.4 825.7,280.4 828.3,280.4 831.0,280.4 833.7,280.4 836.4,280.4 839.0,280.4 841.7,280.4 844.4,280.4 847.1,280.4 849.7,280.4 852.4,280.4 855.1,280.4 857.8,280.4 860.4,280.4 863.1,280.4 865.8,280.4 868.5,280.4 871.1,280.4 873.8,280.4 876.5,280.4 879.2,280.4 881.8,280.4 884.5,280.4 887.2,280.4 889.9,280.4 892.5,280.4 895.2,280.4 897.9,280.4 900.6,280.4 903.2,280.4 905.9,280.4 908.6,280.4 911.3,280.4 913.9,280.4 916.6,280.4 919.3,280.4 922.0,280.4 924.6,280.4 927.3,280.4 930.0,280.4 932.7,280.4 935.3,280.4 938.0,280.4"/><polyline fill="none" stroke="#ef4444" stroke-width="2.5" stroke-linejoin="round" stroke-linecap="round" points="42.0,286.0 44.7,286.0 47.3,286.0 50.0,286.0 52.7,286.0 55.4,286.0 58.0,280.4 60.7,286.0 63.4,286.0 66.1,286.0 68.7,286.0 71.4,286.0 74.1,286.0 76.8,286.0 79.4,286.0 82.1,286.0 84.8,286.0 87.5,286.0 90.1,286.0 92.8,286.0 95.5,286.0 98.2,280.4 100.8,286.0 103.5,286.0 106.2,286.0 108.9,286.0 111.5,286.0 114.2,286.0 116.9,286.0 119.6,286.0 122.2,286.0 124.9,286.0 127.6,286.0 130.3,280.4 132.9,274.9 135.6,286.0 138.3,286.0 141.0,286.0 143.6,286.0 146.3,286.0 149.0,286.0 151.7,286.0 154.3,286.0 157.0,286.0 159.7,286.0 162.4,286.0 165.0,286.0 167.7,280.4 170.4,286.0 173.1,286.0 175.7,286.0 178.4,286.0 181.1,286.0 183.8,286.0 186.4,286.0 189.1,286.0 191.8,286.0 194.5,286.0 197.1,286.0 199.8,286.0 202.5,286.0 205.2,286.0 207.8,286.0 210.5,286.0 213.2,286.0 215.9,280.4 218.5,286.0 221.2,286.0 223.9,286.0 226.5,286.0 229.2,286.0 231.9,269.3 234.6,286.0 237.2,286.0 239.9,269.3 242.6,286.0 245.3,174.6 247.9,286.0 250.6,286.0 253.3,286.0 256.0,286.0 258.6,286.0 261.3,286.0 264.0,280.4 266.7,286.0 269.3,286.0 272.0,280.4 274.7,286.0 277.4,286.0 280.0,286.0 282.7,286.0 285.4,286.0 288.1,286.0 290.7,286.0 293.4,286.0 296.1,286.0 298.8,286.0 301.4,280.4 304.1,286.0 306.8,286.0 309.5,286.0 312.1,286.0 314.8,286.0 317.5,286.0 320.2,280.4 322.8,286.0 325.5,286.0 328.2,286.0 330.9,286.0 333.5,286.0 336.2,286.0 338.9,286.0 341.6,286.0 344.2,286.0 346.9,286.0 349.6,280.4 352.3,286.0 354.9,263.7 357.6,280.4 360.3,269.3 363.0,286.0 365.6,286.0 368.3,274.9 371.0,258.1 373.7,286.0 376.3,286.0 379.0,286.0 381.7,286.0 384.4,286.0 387.0,286.0 389.7,286.0 392.4,286.0 395.1,286.0 397.7,286.0 400.4,286.0 403.1,286.0 405.7,286.0 408.4,286.0 411.1,286.0 413.8,157.9 416.4,286.0 419.1,280.4 421.8,286.0 424.5,286.0 427.1,286.0 429.8,286.0 432.5,286.0 435.2,286.0 437.8,286.0 440.5,286.0 443.2,286.0 445.9,286.0 448.5,286.0 451.2,286.0 453.9,286.0 456.6,286.0 459.2,286.0 461.9,286.0 464.6,286.0 467.3,286.0 469.9,286.0 472.6,286.0 475.3,286.0 478.0,286.0 480.6,286.0 483.3,286.0 486.0,286.0 488.7,274.9 491.3,286.0 494.0,280.4 496.7,286.0 499.4,274.9 502.0,286.0 504.7,286.0 507.4,286.0 510.1,286.0 512.7,286.0 515.4,286.0 518.1,286.0 520.8,286.0 523.4,286.0 526.1,286.0 528.8,286.0 531.5,286.0 534.1,280.4 536.8,286.0 539.5,286.0 542.2,286.0 544.8,286.0 547.5,286.0 550.2,286.0 552.9,286.0 555.5,286.0 558.2,286.0 560.9,286.0 563.6,286.0 566.2,286.0 568.9,286.0 571.6,286.0 574.3,286.0 576.9,286.0 579.6,286.0 582.3,286.0 584.9,286.0 587.6,286.0 590.3,286.0 593.0,286.0 595.6,286.0 598.3,286.0 601.0,286.0 603.7,286.0 606.3,286.0 609.0,286.0 611.7,286.0 614.4,286.0 617.0,286.0 619.7,286.0 622.4,286.0 625.1,286.0 627.7,286.0 630.4,286.0 633.1,286.0 635.8,286.0 638.4,286.0 641.1,286.0 643.8,286.0 646.5,286.0 649.1,286.0 651.8,286.0 654.5,286.0 657.2,286.0 659.8,286.0 662.5,286.0 665.2,286.0 667.9,286.0 670.5,286.0 673.2,286.0 675.9,280.4 678.6,286.0 681.2,286.0 683.9,286.0 686.6,286.0 689.3,286.0 691.9,286.0 694.6,286.0 697.3,286.0 700.0,286.0 702.6,286.0 705.3,286.0 708.0,286.0 710.7,286.0 713.3,286.0 716.0,286.0 718.7,286.0 721.4,286.0 724.0,286.0 726.7,286.0 729.4,286.0 732.1,286.0 734.7,286.0 737.4,286.0 740.1,274.9 742.8,274.9 745.4,286.0 748.1,286.0 750.8,286.0 753.5,280.4 756.1,286.0 758.8,286.0 761.5,286.0 764.1,286.0 766.8,286.0 769.5,286.0 772.2,286.0 774.8,286.0 777.5,286.0 780.2,286.0 782.9,286.0 785.5,286.0 788.2,286.0 790.9,286.0 793.6,286.0 796.2,286.0 798.9,286.0 801.6,286.0 804.3,286.0 806.9,286.0 809.6,274.9 812.3,286.0 815.0,286.0 817.6,286.0 820.3,286.0 823.0,286.0 825.7,286.0 828.3,286.0 831.0,286.0 833.7,286.0 836.4,286.0 839.0,286.0 841.7,286.0 844.4,286.0 847.1,286.0 849.7,286.0 852.4,286.0 855.1,286.0 857.8,286.0 860.4,286.0 863.1,286.0 865.8,286.0 868.5,286.0 871.1,286.0 873.8,180.1 876.5,286.0 879.2,286.0 881.8,286.0 884.5,286.0 887.2,286.0 889.9,286.0 892.5,286.0 895.2,286.0 897.9,286.0 900.6,286.0 903.2,286.0 905.9,286.0 908.6,286.0 911.3,286.0 913.9,286.0 916.6,286.0 919.3,286.0 922.0,286.0 924.6,286.0 927.3,286.0 930.0,286.0 932.7,286.0 935.3,280.4 938.0,286.0"/><polyline fill="none" stroke="#a855f7" stroke-width="2.5" stroke-linejoin="round" stroke-linecap="round" points="42.0,286.0 44.7,286.0 47.3,286.0 50.0,286.0 52.7,286.0 55.4,280.4 58.0,286.0 60.7,286.0 63.4,286.0 66.1,286.0 68.7,286.0 71.4,286.0 74.1,286.0 76.8,286.0 79.4,286.0 82.1,286.0 84.8,286.0 87.5,286.0 90.1,286.0 92.8,286.0 95.5,286.0 98.2,286.0 100.8,286.0 103.5,286.0 106.2,286.0 108.9,286.0 111.5,286.0 114.2,286.0 116.9,286.0 119.6,286.0 122.2,286.0 124.9,286.0 127.6,280.4 130.3,286.0 132.9,286.0 135.6,280.4 138.3,286.0 141.0,280.4 143.6,286.0 146.3,286.0 149.0,286.0 151.7,286.0 154.3,286.0 157.0,280.4 159.7,280.4 162.4,280.4 165.0,286.0 167.7,286.0 170.4,286.0 173.1,286.0 175.7,286.0 178.4,286.0 181.1,286.0 183.8,286.0 186.4,286.0 189.1,280.4 191.8,286.0 194.5,286.0 197.1,286.0 199.8,286.0 202.5,286.0 205.2,286.0 207.8,286.0 210.5,286.0 213.2,286.0 215.9,286.0 218.5,280.4 221.2,286.0 223.9,280.4 226.5,280.4 229.2,280.4 231.9,286.0 234.6,286.0 237.2,286.0 239.9,286.0 242.6,286.0 245.3,280.4 247.9,280.4 250.6,286.0 253.3,280.4 256.0,280.4 258.6,286.0 261.3,286.0 264.0,286.0 266.7,286.0 269.3,286.0 272.0,286.0 274.7,280.4 277.4,286.0 280.0,286.0 282.7,286.0 285.4,286.0 288.1,286.0 290.7,286.0 293.4,286.0 296.1,286.0 298.8,280.4 301.4,286.0 304.1,286.0 306.8,286.0 309.5,286.0 312.1,280.4 314.8,286.0 317.5,286.0 320.2,286.0 322.8,286.0 325.5,286.0 328.2,286.0 330.9,286.0 333.5,286.0 336.2,286.0 338.9,280.4 341.6,286.0 344.2,280.4 346.9,286.0 349.6,286.0 352.3,286.0 354.9,286.0 357.6,280.4 360.3,280.4 363.0,286.0 365.6,286.0 368.3,280.4 371.0,286.0 373.7,286.0 376.3,286.0 379.0,286.0 381.7,280.4 384.4,286.0 387.0,286.0 389.7,280.4 392.4,280.4 395.1,280.4 397.7,280.4 400.4,280.4 403.1,286.0 405.7,286.0 408.4,286.0 411.1,286.0 413.8,286.0 416.4,286.0 419.1,286.0 421.8,286.0 424.5,286.0 427.1,286.0 429.8,286.0 432.5,280.4 435.2,286.0 437.8,286.0 440.5,286.0 443.2,286.0 445.9,286.0 448.5,286.0 451.2,286.0 453.9,286.0 456.6,280.4 459.2,286.0 461.9,286.0 464.6,286.0 467.3,286.0 469.9,286.0 472.6,286.0 475.3,286.0 478.0,286.0 480.6,286.0 483.3,286.0 486.0,286.0 488.7,286.0 491.3,280.4 494.0,286.0 496.7,286.0 499.4,286.0 502.0,286.0 504.7,286.0 507.4,286.0 510.1,280.4 512.7,286.0 515.4,286.0 518.1,280.4 520.8,286.0 523.4,286.0 526.1,286.0 528.8,286.0 531.5,286.0 534.1,286.0 536.8,286.0 539.5,280.4 542.2,286.0 544.8,280.4 547.5,286.0 550.2,286.0 552.9,280.4 555.5,286.0 558.2,280.4 560.9,280.4 563.6,286.0 566.2,280.4 568.9,280.4 571.6,286.0 574.3,286.0 576.9,286.0 579.6,286.0 582.3,286.0 584.9,286.0 587.6,286.0 590.3,286.0 593.0,286.0 595.6,280.4 598.3,286.0 601.0,286.0 603.7,286.0 606.3,286.0 609.0,280.4 611.7,280.4 614.4,286.0 617.0,286.0 619.7,280.4 622.4,286.0 625.1,286.0 627.7,286.0 630.4,286.0 633.1,286.0 635.8,280.4 638.4,286.0 641.1,286.0 643.8,286.0 646.5,280.4 649.1,286.0 651.8,286.0 654.5,280.4 657.2,286.0 659.8,286.0 662.5,286.0 665.2,286.0 667.9,286.0 670.5,286.0 673.2,286.0 675.9,286.0 678.6,286.0 681.2,286.0 683.9,286.0 686.6,286.0 689.3,286.0 691.9,286.0 694.6,286.0 697.3,286.0 700.0,286.0 702.6,280.4 705.3,269.3 708.0,286.0 710.7,286.0 713.3,286.0 716.0,286.0 718.7,286.0 721.4,280.4 724.0,286.0 726.7,280.4 729.4,286.0 732.1,286.0 734.7,286.0 737.4,286.0 740.1,286.0 742.8,286.0 745.4,286.0 748.1,286.0 750.8,286.0 753.5,286.0 756.1,286.0 758.8,286.0 761.5,286.0 764.1,286.0 766.8,286.0 769.5,286.0 772.2,286.0 774.8,286.0 777.5,280.4 780.2,286.0 782.9,286.0 785.5,280.4 788.2,286.0 790.9,286.0 793.6,286.0 796.2,286.0 798.9,286.0 801.6,286.0 804.3,286.0 806.9,286.0 809.6,280.4 812.3,274.9 815.0,286.0 817.6,286.0 820.3,286.0 823.0,286.0 825.7,286.0 828.3,286.0 831.0,280.4 833.7,286.0 836.4,286.0 839.0,286.0 841.7,286.0 844.4,286.0 847.1,280.4 849.7,280.4 852.4,286.0 855.1,280.4 857.8,286.0 860.4,286.0 863.1,280.4 865.8,286.0 868.5,286.0 871.1,286.0 873.8,286.0 876.5,286.0 879.2,286.0 881.8,286.0 884.5,286.0 887.2,286.0 889.9,286.0 892.5,286.0 895.2,280.4 897.9,286.0 900.6,286.0 903.2,286.0 905.9,286.0 908.6,280.4 911.3,286.0 913.9,280.4 916.6,286.0 919.3,286.0 922.0,280.4 924.6,280.4 927.3,286.0 930.0,280.4 932.7,286.0 935.3,286.0 938.0,280.4"/><text x="42" y="308" font-size="11" fill="#9fb0d4">14/08 17:31</text><text x="938" y="308" text-anchor="end" font-size="11" fill="#9fb0d4">28/08 20:44</text></svg>