<svg xmlns="http://www.w3.org/2000/svg" viewBox="0 0 960 320" width="960" height="320" font-family="Segoe UI, system-ui, -apple-system, Roboto, Helvetica, Arial, sans-serif" role="img" aria-label="Availability history per region"><rect x="0.5" y="0.5" width="959" height="319" rx="14" fill="#ffffff" stroke="#dce3f1"/><text x="42" y="26" font-size="14" font-weight="600" fill="#14203a">History · 117 points</text><circle cx="47" cy="40" r="5" fill="#22c55e"/><text x="57" y="44" font-size="12" fill="#5a688a">Available</text><circle cx="139.8" cy="40" r="5" fill="#f59e0b"/><text x="149.8" y="44" font-size="12" fill="#5a688a">Saturated</text><circle cx="232.60000000000002" cy="40" r="5" fill="#ef4444"/><text x="242.60000000000002" y="44" font-size="12" fill="#5a688a">Error</text><circle cx="296.6" cy="40" r="5" fill="#a855f7"/><text x="306.6" y="44" font-size="12" fill="#5a688a">Timeout</text><line x1="42" y1="286.0" x2="938" y2="286.0" stroke="#eef2f7" stroke-width="1"/><text x="35" y="289.0" text-anchor="end" font-size="11" fill="#5a688a">0</text><line x1="42" y1="227.5" x2="938" y2="227.5" stroke="#eef2f7" stroke-width="1"/><text x="35" y="230.5" text-anchor="end" font-size="11" fill="#5a688a">10</text><line x1="42" y1="169.0" x2="938" y2="169.0" stroke="#eef2f7" stroke-width="1"/><text x="35" y="172.0" text-anchor="end" font-size="11" fill="#5a688a">19</text><line x1="42" y1="110.5" x2="938" y2="110.5" stroke="#eef2f7" stroke-width="1"/><text x="35" y="113.5" text-anchor="end" font-size="11" fill="#5a688a">28</text><line x1="42" y1="52.0" x2="938" y2="52.0" stroke="#eef2f7" stroke-width="1"/><text x="35" y="55.0" text-anchor="end" font-size="11" fill="#5a688a">38</text><polyline fill="none" stroke="#22c55e" stroke-width="2.5" stroke-linejoin="round" stroke-linecap="round" points="42.0,64.3 49.7,224.4 57.4,82.8 65.2,88.9 72.9,82.8 80.6,76.6 88.3,76.6 96.1,76.6 103.8,76.6 111.5,76.6 119.2,76.6 127.0,76.6 134.7,76.6 142.4,76.6 150.1,76.6 157.9,70.5 165.6,70.5 173.3,82.8 181.0,82.8 188.8,82.8 196.5,88.9 204.2,88.9 211.9,88.9 219.7,88.9 227.4,88.9 235.1,88.9 242.8,88.9 250.6,88.9 258.3,88.9 266.0,82.8 273.7,82.8 281.4,82.8 289.2,82.8 296.9,76.6 304.6,76.6 312.3,76.6 320.1,76.6 327.8,76.6 335.5,82.8 343.2,82.8 351.0,82.8 358.7,82.8 366.4,76.6 374.1,76.6 381.9,76.6 389.6,76.6 397.3,76.6 405.0,76.6 412.8,76.6 420.5,82.8 428.2,82.8 435.9,82.8 443.7,82.8 451.4,76.6 459.1,76.6 466.8,76.6 474.6,76.6 482.3,76.6 490.0,76.6 497.7,76.6 505.4,76.6 513.2,82.8 520.9,76.6 528.6,76.6 536.3,76.6 544.1,76.6 551.8,76.6 559.5,82.8 567.2,76.6 575.0,76.6 582.7,76.6 590.4,76.6 598.1,76.6 605.9,76.6 613.6,76.6 621.3,76.6 629.0,76.6 636.8,70.5 644.5,70.5 652.2,70.5 659.9,70.5 667.7,76.6 675.4,70.5 683.1,76.6 690.8,76.6 698.6,76.6 706.3,76.6 714.0,76.6 721.7,76.6 729.4,82.8 737.2,88.9 744.9,88.9 752.6,88.9 760.3,88.9 768.1,88.9 775.8,88.9 783.5,88.9 791.2,95.1 799.0,88.9 806.7,88.9 814.4,88.9 822.1,88.9 829.9,88.9 837.6,88.9 845.3,82.8 853.0,82.8 860.8,82.8 868.5,82.8 876.2,82.8 883.9,82.8 891.7,82.8 899.4,82.8 907.1,88.9 914.8,88.9 922.6,88.9 930.3,88.9 938.0,88.9"/><polyline fill="none" stroke="#f59e0b" stroke-width="2.5" stroke-linejoin="round" stroke-linecap="round" points="42.0,273.7 49.7,267.5 57.4,255.2 65.2,249.1 72.9,255.2 80.6,261.4 88.3,261.4 96.1,261.4 103.8,261.4 111.5,261.4 119.2,261.4 127.0,261.4 134.7,261.4 142.4,261.4 150.1,261.4 157.9,267.5 165.6,267.5 173.3,261.4 181.0,255.2 188.8,255.2 196.5,249.1 204.2,249.1 211.9,249.1 219.7,249.1 227.4,249.1 235.1,249.1 242.8,249.1 250.6,249.1 258.3,249.1 266.0,255.2 273.7,255.2 281.4,255.2 289.2,255.2 296.9,261.4 304.6,261.4 312.3,261.4 320.1,261.4 327.8,261.4 335.5,255.2 343.2,255.2 351.0,255.2 358.7,255.2 366.4,261.4 374.1,261.4 381.9,261.4 389.6,261.4 397.3,261.4 405.0,261.4 412.8,261.4 420.5,255.2 428.2,255.2 435.9,255.2 443.7,261.4 451.4,261.4 459.1,261.4 466.8,261.4 474.6,261.4 482.3,261.4 490.0,261.4 497.7,261.4 505.4,261.4 513.2,255.2 520.9,261.4 528.6,261.4 536.3,261.4 544.1,261.4 551.8,261.4 559.5,261.4 567.2,261.4 575.0,261.4 582.7,261.4 590.4,261.4 598.1,261.4 605.9,261.4 613.6,261.4 621.3,261.4 629.0,261.4 636.8,267.5 644.5,267.5 652.2,267.5 659.9,267.5 667.7,267.5 675.4,267.5 683.1,261.4 690.8,261.4 698.6,261.4 706.3,261.4 714.0,261.4 721.7,261.4 729.4,255.2 737.2,249.1 744.9,249.1 752.6,255.2 760.3,249.1 768.1,249.1 775.8,249.1 783.5,249.1 791.2,249.1 799.0,249.1 806.7,255.2 814.4,249.1 822.1,249.1 829.9,249.1 837.6,249.1 845.3,255.2 853.0,255.2 860.8,255.2 868.5,255.2 876.2,255.2 883.9,255.2 891.7,255.2 899.4,255.2 907.1,249.1 914.8,249.1 922.6,249.1 930.3,249.1 938.0,249.1"/><polyline fill="none" stroke="#ef4444" stroke-width="2.5" stroke-linejoin="round" stroke-linecap="round" points="42.0,286.0 49.7,132.1 57.4,286.0 65.2,286.0 72.9,286.0 80.6,286.0 88.3,286.0 96.1,286.0 103.8,286.0 111.5,286.0 119.2,286.0 127.0,286.0 134.7,286.0 142.4,286.0 150.1,286.0 157.9,286.0 165.6,286.0 173.3,279.8 181.0,286.0 188.8,286.0 196.5,286.0 204.2,286.0 211.9,286.0 219.7,286.0 227.4,286.0 235.1,286.0 242.8,286.0 250.6,286.0 258.3,286.0 266.0,286.0 273.7,286.0 281.4,286.0 289.2,286.0 296.9,286.0 304.6,286.0 312.3,286.0 320.1,286.0 327.8,286.0 335.5,286.0 343.2,286.0 351.0,286.0 358.7,286.0 366.4,286.0 374.1,286.0 381.9,286.0 389.6,286.0 397.3,286.0 405.0,286.0 412.8,286.0 420.5,286.0 428.2,286.0 435.9,286.0 443.7,286.0 451.4,286.0 459.1,286.0 466.8,286.0 474.6,286.0 482.3,286.0 490.0,286.0 497.7,286.0 505.4,286.0 513.2,286.0 520.9,286.0 528.6,286.0 536.3,286.0 544.1,286.0 551.8,286.0 559.5,279.8 567.2,286.0 575.0,286.0 582.7,286.0 590.4,286.0 598.1,286.0 605.9,286.0 613.6,286.0 621.3,286.0 629.0,286.0 636.8,286.0 644.5,286.0 652.2,286.0 659.9,286.0 667.7,279.8 675.4,286.0 683.1,286.0 690.8,286.0 698.6,286.0 706.3,286.0 714.0,286.0 721.7,286.0 729.4,286.0 737.2,286.0 744.9,286.0 752.6,279.8 760.3,286.0 768.1,286.0 775.8,286.0 783.5,286.0 791.2,279.8 799.0,286.0 806.7,286.0 814.4,286.0 822.1,286.0 829.9,286.0 837.6,286.0 845.3,286.0 853.0,286.0 860.8,286.0 868.5,286.0 876.2,286.0 883.9,286.0 891.7,286.0 899.4,286.0 907.1,286.0 914.8,286.0 922.6,286.0 930.3,286.0 938.0,286.0"/><polyline fill="none" stroke="#a855f7" stroke-width="2.5" stroke-linejoin="round" stroke-linecap="round" points="42.0,286.0 49.7,286.0 57.4,286.0 65.2,286.0 72.9,286.0 80.6,286.0 88.3,286.0 96.1,286.0 103.8,286.0 111.5,286.0 119.2,286.0 127.0,286.0 134.7,286.0 142.4,286.0 150.1,286.0 157.9,286.0 165.6,286.0 173.3,286.0 181.0,286.0 188.8,286.0 196.5,286.0 204.2,286.0 211.9,286.0 219.7,286.0 227.4,286.0 235.1,286.0 242.8,286.0 250.6,286.0 258.3,286.0 266.0,286.0 273.7,286.0 281.4,286.0 289.2,286.0 296.9,286.0 304.6,286.0 312.3,286.0 320.1,286.0 327.8,286.0 335.5,286.0 343.2,286.0 351.0,286.0 358.7,286.0 366.4,286.0 374.1,286.0 381.9,286.0 389.6,286.0 397.3,286.0 405.0,286.0 412.8,286.0 420.5,286.0 428.2,286.0 435.9,286.0 443.7,279.8 451.4,286.0 459.1,286.0 466.8,286.0 474.6,286.0 482.3,286.0 490.0,286.0 497.7,286.0 505.4,286.0 513.2,286.0 520.9,286.0 528.6,286.0 536.3,286.0 544.1,286.0 551.8,286.0 559.5,286.0 567.2,286.0 575.0,286.0 582.7,286.0 590.4,286.0 598.1,286.0 605.9,286.0 613.6,286.0 621.3,286.0 629.0,286.0 636.8,286.0 644.5,286.0 652.2,286.0 659.9,286.0 667.7,286.0 675.4,286.0 683.1,286.0 690.8,286.0 698.6,286.0 706.3,286.0 714.0,286.0 721.7,286.0 729.4,286.0 737.2,286.0 744.9,286.0 752.6,286.0 760.3,286.0 768.1,286.0 775.8,286.0 783.5,286.0 791.2,286.0 799.0,286.0 806.7,279.8 814.4,286.0 822.1,286.0 829.9,286.0 837.6,286.0 845.3,286.0 853.0,286.0 860.8,286.0 868.5,286.0 876.2,286.0 883.9,286.0 891.7,286.0 899.4,286.0 907.1,286.0 914.8,286.0 922.6,286.0 930.3,286.0 938.0,286.0"/><text x="42" y="308" font-size="11" fill="#5a688a">19/06 15:39</text><text x="938" y="308" text-anchor="end" font-size="11" fill="#5a688a">21/07 11:29</text></svg>