<svg xmlns="http://www.w3.org/2000/svg" viewBox="0 0 960 320" width="960" height="320" font-family="Segoe UI, system-ui, -apple-system, Roboto, Helvetica, Arial, sans-serif" role="img" aria-label="Availability history per region"><rect x="0.5" y="0.5" width="959" height="319" rx="14" fill="#ffffff" stroke="#dce3f1"/><text x="42" y="26" font-size="14" font-weight="600" fill="#14203a">History · 118 points</text><circle cx="47" cy="40" r="5" fill="#22c55e"/><text x="57" y="44" font-size="12" fill="#5a688a">Available</text><circle cx="139.8" cy="40" r="5" fill="#f59e0b"/><text x="149.8" y="44" font-size="12" fill="#5a688a">Saturated</text><circle cx="232.60000000000002" cy="40" r="5" fill="#ef4444"/><text x="242.60000000000002" y="44" font-size="12" fill="#5a688a">Error</text><circle cx="296.6" cy="40" r="5" fill="#a855f7"/><text x="306.6" y="44" font-size="12" fill="#5a688a">Timeout</text><line x1="42" y1="286.0" x2="938" y2="286.0" stroke="#eef2f7" stroke-width="1"/><text x="35" y="289.0" text-anchor="end" font-size="11" fill="#5a688a">0</text><line x1="42" y1="227.5" x2="938" y2="227.5" stroke="#eef2f7" stroke-width="1"/><text x="35" y="230.5" text-anchor="end" font-size="11" fill="#5a688a">10</text><line x1="42" y1="169.0" x2="938" y2="169.0" stroke="#eef2f7" stroke-width="1"/><text x="35" y="172.0" text-anchor="end" font-size="11" fill="#5a688a">20</text><line x1="42" y1="110.5" x2="938" y2="110.5" stroke="#eef2f7" stroke-width="1"/><text x="35" y="113.5" text-anchor="end" font-size="11" fill="#5a688a">29</text><line x1="42" y1="52.0" x2="938" y2="52.0" stroke="#eef2f7" stroke-width="1"/><text x="35" y="55.0" text-anchor="end" font-size="11" fill="#5a688a">39</text><polyline fill="none" stroke="#22c55e" stroke-width="2.5" stroke-linejoin="round" stroke-linecap="round" points="42.0,70.0 49.7,70.0 57.3,88.0 65.0,88.0 72.6,76.0 80.3,76.0 87.9,76.0 95.6,70.0 103.3,76.0 110.9,70.0 118.6,64.0 126.2,58.0 133.9,58.0 141.6,58.0 149.2,58.0 156.9,58.0 164.5,58.0 172.2,58.0 179.8,58.0 187.5,58.0 195.2,58.0 202.8,58.0 210.5,58.0 218.1,58.0 225.8,58.0 233.5,58.0 241.1,58.0 248.8,58.0 256.4,58.0 264.1,58.0 271.7,58.0 279.4,70.0 287.1,76.0 294.7,94.0 302.4,64.0 310.0,64.0 317.7,58.0 325.4,58.0 333.0,58.0 340.7,70.0 348.3,76.0 356.0,76.0 363.6,82.0 371.3,82.0 379.0,82.0 386.6,82.0 394.3,76.0 401.9,64.0 409.6,70.0 417.2,70.0 424.9,82.0 432.6,76.0 440.2,76.0 447.9,82.0 455.5,76.0 463.2,76.0 470.9,76.0 478.5,64.0 486.2,64.0 493.8,76.0 501.5,76.0 509.1,76.0 516.8,88.0 524.5,70.0 532.1,64.0 539.8,58.0 547.4,58.0 555.1,70.0 562.8,70.0 570.4,70.0 578.1,76.0 585.7,70.0 593.4,70.0 601.0,70.0 608.7,70.0 616.4,76.0 624.0,82.0 631.7,76.0 639.3,70.0 647.0,70.0 654.6,70.0 662.3,70.0 670.0,76.0 677.6,70.0 685.3,70.0 692.9,70.0 700.6,70.0 708.3,70.0 715.9,70.0 723.6,70.0 731.2,70.0 738.9,70.0 746.5,70.0 754.2,70.0 761.9,70.0 769.5,70.0 777.2,70.0 784.8,70.0 792.5,70.0 800.2,70.0 807.8,70.0 815.5,70.0 823.1,70.0 830.8,70.0 838.4,70.0 846.1,70.0 853.8,70.0 861.4,70.0 869.1,70.0 876.7,70.0 884.4,70.0 892.1,70.0 899.7,70.0 907.4,70.0 915.0,70.0 922.7,70.0 930.3,70.0 938.0,70.0"/><polyline fill="none" stroke="#f59e0b" stroke-width="2.5" stroke-linejoin="round" stroke-linecap="round" points="42.0,274.0 49.7,274.0 57.3,274.0 65.0,280.0 72.6,268.0 80.3,268.0 87.9,268.0 95.6,274.0 103.3,274.0 110.9,274.0 118.6,280.0 126.2,286.0 133.9,286.0 141.6,286.0 149.2,286.0 156.9,286.0 164.5,286.0 172.2,286.0 179.8,286.0 187.5,286.0 195.2,286.0 202.8,286.0 210.5,286.0 218.1,286.0 225.8,286.0 233.5,286.0 241.1,286.0 248.8,286.0 256.4,286.0 264.1,286.0 271.7,286.0 279.4,274.0 287.1,280.0 294.7,280.0 302.4,280.0 310.0,280.0 317.7,286.0 325.4,286.0 333.0,286.0 340.7,274.0 348.3,268.0 356.0,268.0 363.6,262.0 371.3,262.0 379.0,262.0 386.6,262.0 394.3,268.0 401.9,280.0 409.6,280.0 417.2,274.0 424.9,262.0 432.6,268.0 440.2,268.0 447.9,262.0 455.5,268.0 463.2,268.0 470.9,268.0 478.5,280.0 486.2,280.0 493.8,268.0 501.5,268.0 509.1,268.0 516.8,262.0 524.5,274.0 532.1,280.0 539.8,286.0 547.4,286.0 555.1,274.0 562.8,274.0 570.4,274.0 578.1,274.0 585.7,274.0 593.4,274.0 601.0,274.0 608.7,274.0 616.4,280.0 624.0,274.0 631.7,280.0 639.3,286.0 647.0,286.0 654.6,286.0 662.3,286.0 670.0,280.0 677.6,286.0 685.3,286.0 692.9,286.0 700.6,286.0 708.3,286.0 715.9,286.0 723.6,286.0 731.2,286.0 738.9,286.0 746.5,286.0 754.2,286.0 761.9,286.0 769.5,286.0 777.2,286.0 784.8,286.0 792.5,286.0 800.2,286.0 807.8,286.0 815.5,286.0 823.1,286.0 830.8,286.0 838.4,286.0 846.1,286.0 853.8,286.0 861.4,286.0 869.1,286.0 876.7,286.0 884.4,286.0 892.1,286.0 899.7,286.0 907.4,286.0 915.0,286.0 922.7,286.0 930.3,286.0 938.0,286.0"/><polyline fill="none" stroke="#ef4444" stroke-width="2.5" stroke-linejoin="round" stroke-linecap="round" points="42.0,280.0 49.7,280.0 57.3,268.0 65.0,262.0 72.6,286.0 80.3,286.0 87.9,286.0 95.6,286.0 103.3,280.0 110.9,286.0 118.6,286.0 126.2,286.0 133.9,286.0 141.6,286.0 149.2,286.0 156.9,286.0 164.5,286.0 172.2,286.0 179.8,286.0 187.5,286.0 195.2,286.0 202.8,286.0 210.5,286.0 218.1,286.0 225.8,286.0 233.5,286.0 241.1,286.0 248.8,286.0 256.4,286.0 264.1,286.0 271.7,286.0 279.4,286.0 287.1,274.0 294.7,256.0 302.4,286.0 310.0,286.0 317.7,286.0 325.4,286.0 333.0,286.0 340.7,286.0 348.3,286.0 356.0,286.0 363.6,286.0 371.3,286.0 379.0,286.0 386.6,286.0 394.3,286.0 401.9,286.0 409.6,280.0 417.2,286.0 424.9,286.0 432.6,286.0 440.2,286.0 447.9,286.0 455.5,286.0 463.2,286.0 470.9,286.0 478.5,286.0 486.2,286.0 493.8,286.0 501.5,286.0 509.1,286.0 516.8,280.0 524.5,286.0 532.1,286.0 539.8,286.0 547.4,286.0 555.1,286.0 562.8,286.0 570.4,286.0 578.1,286.0 585.7,286.0 593.4,286.0 601.0,286.0 608.7,286.0 616.4,274.0 624.0,274.0 631.7,274.0 639.3,274.0 647.0,274.0 654.6,274.0 662.3,274.0 670.0,274.0 677.6,274.0 685.3,274.0 692.9,274.0 700.6,274.0 708.3,274.0 715.9,274.0 723.6,274.0 731.2,274.0 738.9,274.0 746.5,274.0 754.2,274.0 761.9,274.0 769.5,274.0 777.2,274.0 784.8,274.0 792.5,274.0 800.2,274.0 807.8,274.0 815.5,274.0 823.1,274.0 830.8,274.0 838.4,274.0 846.1,274.0 853.8,274.0 861.4,274.0 869.1,274.0 876.7,274.0 884.4,274.0 892.1,274.0 899.7,274.0 907.4,274.0 915.0,274.0 922.7,274.0 930.3,274.0 938.0,274.0"/><polyline fill="none" stroke="#a855f7" stroke-width="2.5" stroke-linejoin="round" stroke-linecap="round" points="42.0,286.0 49.7,286.0 57.3,286.0 65.0,286.0 72.6,286.0 80.3,286.0 87.9,286.0 95.6,286.0 103.3,286.0 110.9,286.0 118.6,286.0 126.2,286.0 133.9,286.0 141.6,286.0 149.2,286.0 156.9,286.0 164.5,286.0 172.2,286.0 179.8,286.0 187.5,286.0 195.2,286.0 202.8,286.0 210.5,286.0 218.1,286.0 225.8,286.0 233.5,286.0 241.1,286.0 248.8,286.0 256.4,286.0 264.1,286.0 271.7,286.0 279.4,286.0 287.1,286.0 294.7,286.0 302.4,286.0 310.0,286.0 317.7,286.0 325.4,286.0 333.0,286.0 340.7,286.0 348.3,286.0 356.0,286.0 363.6,286.0 371.3,286.0 379.0,286.0 386.6,286.0 394.3,286.0 401.9,286.0 409.6,286.0 417.2,286.0 424.9,286.0 432.6,286.0 440.2,286.0 447.9,286.0 455.5,286.0 463.2,286.0 470.9,286.0 478.5,286.0 486.2,286.0 493.8,286.0 501.5,286.0 509.1,286.0 516.8,286.0 524.5,286.0 532.1,286.0 539.8,286.0 547.4,286.0 555.1,286.0 562.8,286.0 570.4,286.0 578.1,280.0 585.7,286.0 593.4,286.0 601.0,286.0 608.7,286.0 616.4,286.0 624.0,286.0 631.7,286.0 639.3,286.0 647.0,286.0 654.6,286.0 662.3,286.0 670.0,286.0 677.6,286.0 685.3,286.0 692.9,286.0 700.6,286.0 708.3,286.0 715.9,286.0 723.6,286.0 731.2,286.0 738.9,286.0 746.5,286.0 754.2,286.0 761.9,286.0 769.5,286.0 777.2,286.0 784.8,286.0 792.5,286.0 800.2,286.0 807.8,286.0 815.5,286.0 823.1,286.0 830.8,286.0 838.4,286.0 846.1,286.0 853.8,286.0 861.4,286.0 869.1,286.0 876.7,286.0 884.4,286.0 892.1,286.0 899.7,286.0 907.4,286.0 915.0,286.0 922.7,286.0 930.3,286.0 938.0,286.0"/><text x="42" y="308" font-size="11" fill="#5a688a">19/06 12:43</text><text x="938" y="308" text-anchor="end" font-size="11" fill="#5a688a">28/06 02:30</text></svg>