<svg xmlns="http://www.w3.org/2000/svg" viewBox="0 0 960 320" width="960" height="320" font-family="Segoe UI, system-ui, -apple-system, Roboto, Helvetica, Arial, sans-serif" role="img" aria-label="Availability history per region"><rect x="0.5" y="0.5" width="959" height="319" rx="14" fill="#0d1117" stroke="#2c3a5e"/><text x="42" y="26" font-size="14" font-weight="600" fill="#e6ecff">History · 274 points</text><circle cx="47" cy="40" r="5" fill="#22c55e"/><text x="57" y="44" font-size="12" fill="#9fb0d4">Available</text><circle cx="139.8" cy="40" r="5" fill="#f59e0b"/><text x="149.8" y="44" font-size="12" fill="#9fb0d4">Saturated</text><circle cx="232.60000000000002" cy="40" r="5" fill="#ef4444"/><text x="242.60000000000002" y="44" font-size="12" fill="#9fb0d4">Error</text><circle cx="296.6" cy="40" r="5" fill="#a855f7"/><text x="306.6" y="44" font-size="12" fill="#9fb0d4">Timeout</text><line x1="42" y1="286.0" x2="938" y2="286.0" stroke="#21304f" stroke-width="1"/><text x="35" y="289.0" text-anchor="end" font-size="11" fill="#9fb0d4">0</text><line x1="42" y1="227.5" x2="938" y2="227.5" stroke="#21304f" stroke-width="1"/><text x="35" y="230.5" text-anchor="end" font-size="11" fill="#9fb0d4">10</text><line x1="42" y1="169.0" x2="938" y2="169.0" stroke="#21304f" stroke-width="1"/><text x="35" y="172.0" text-anchor="end" font-size="11" fill="#9fb0d4">20</text><line x1="42" y1="110.5" x2="938" y2="110.5" stroke="#21304f" stroke-width="1"/><text x="35" y="113.5" text-anchor="end" font-size="11" fill="#9fb0d4">29</text><line x1="42" y1="52.0" x2="938" y2="52.0" stroke="#21304f" stroke-width="1"/><text x="35" y="55.0" text-anchor="end" font-size="11" fill="#9fb0d4">39</text><polyline fill="none" stroke="#22c55e" stroke-width="2.5" stroke-linejoin="round" stroke-linecap="round" points="42.0,70.0 45.3,70.0 48.6,88.0 51.8,88.0 55.1,76.0 58.4,76.0 61.7,76.0 65.0,70.0 68.3,76.0 71.5,70.0 74.8,64.0 78.1,58.0 81.4,58.0 84.7,58.0 87.9,58.0 91.2,58.0 94.5,58.0 97.8,58.0 101.1,58.0 104.4,58.0 107.6,58.0 110.9,58.0 114.2,58.0 117.5,58.0 120.8,58.0 124.1,58.0 127.3,58.0 130.6,58.0 133.9,58.0 137.2,58.0 140.5,58.0 143.7,70.0 147.0,76.0 150.3,94.0 153.6,64.0 156.9,64.0 160.2,58.0 163.4,58.0 166.7,58.0 170.0,70.0 173.3,76.0 176.6,76.0 179.8,82.0 183.1,82.0 186.4,82.0 189.7,82.0 193.0,76.0 196.3,64.0 199.5,70.0 202.8,70.0 206.1,82.0 209.4,76.0 212.7,76.0 215.9,82.0 219.2,76.0 222.5,76.0 225.8,76.0 229.1,64.0 232.4,64.0 235.6,76.0 238.9,76.0 242.2,76.0 245.5,88.0 248.8,70.0 252.1,64.0 255.3,58.0 258.6,58.0 261.9,70.0 265.2,70.0 268.5,70.0 271.7,76.0 275.0,70.0 278.3,70.0 281.6,70.0 284.9,70.0 288.2,76.0 291.4,82.0 294.7,76.0 298.0,70.0 301.3,70.0 304.6,70.0 307.8,70.0 311.1,76.0 314.4,70.0 317.7,70.0 321.0,70.0 324.3,70.0 327.5,70.0 330.8,70.0 334.1,70.0 337.4,70.0 340.7,70.0 343.9,70.0 347.2,70.0 350.5,70.0 353.8,70.0 357.1,70.0 360.4,70.0 363.6,70.0 366.9,70.0 370.2,70.0 373.5,70.0 376.8,70.0 380.1,70.0 383.3,70.0 386.6,70.0 389.9,70.0 393.2,70.0 396.5,70.0 399.7,70.0 403.0,70.0 406.3,70.0 409.6,70.0 412.9,70.0 416.2,70.0 419.4,70.0 422.7,70.0 426.0,70.0 429.3,70.0 432.6,70.0 435.8,70.0 439.1,70.0 442.4,70.0 445.7,70.0 449.0,70.0 452.3,70.0 455.5,70.0 458.8,70.0 462.1,70.0 465.4,70.0 468.7,70.0 471.9,70.0 475.2,70.0 478.5,70.0 481.8,70.0 485.1,70.0 488.4,70.0 491.6,70.0 494.9,70.0 498.2,70.0 501.5,70.0 504.8,70.0 508.1,70.0 511.3,70.0 514.6,70.0 517.9,70.0 521.2,70.0 524.5,70.0 527.7,70.0 531.0,70.0 534.3,70.0 537.6,76.0 540.9,70.0 544.2,70.0 547.4,70.0 550.7,70.0 554.0,70.0 557.3,76.0 560.6,76.0 563.8,88.0 567.1,88.0 570.4,88.0 573.7,94.0 577.0,94.0 580.3,94.0 583.5,94.0 586.8,88.0 590.1,88.0 593.4,82.0 596.7,82.0 599.9,82.0 603.2,88.0 606.5,88.0 609.8,94.0 613.1,82.0 616.4,82.0 619.6,82.0 622.9,82.0 626.2,88.0 629.5,88.0 632.8,94.0 636.1,94.0 639.3,88.0 642.6,88.0 645.9,88.0 649.2,94.0 652.5,94.0 655.7,106.0 659.0,94.0 662.3,94.0 665.6,94.0 668.9,94.0 672.2,88.0 675.4,88.0 678.7,82.0 682.0,76.0 685.3,76.0 688.6,76.0 691.8,76.0 695.1,76.0 698.4,76.0 701.7,70.0 705.0,70.0 708.3,70.0 711.5,76.0 714.8,88.0 718.1,82.0 721.4,70.0 724.7,70.0 727.9,70.0 731.2,76.0 734.5,76.0 737.8,76.0 741.1,82.0 744.4,70.0 747.6,76.0 750.9,64.0 754.2,70.0 757.5,58.0 760.8,58.0 764.1,58.0 767.3,58.0 770.6,58.0 773.9,64.0 777.2,58.0 780.5,64.0 783.7,58.0 787.0,58.0 790.3,58.0 793.6,58.0 796.9,64.0 800.2,64.0 803.4,64.0 806.7,76.0 810.0,70.0 813.3,82.0 816.6,70.0 819.8,76.0 823.1,58.0 826.4,64.0 829.7,58.0 833.0,64.0 836.3,58.0 839.5,58.0 842.8,58.0 846.1,64.0 849.4,70.0 852.7,64.0 855.9,64.0 859.2,64.0 862.5,70.0 865.8,70.0 869.1,64.0 872.4,70.0 875.6,70.0 878.9,70.0 882.2,58.0 885.5,58.0 888.8,58.0 892.1,58.0 895.3,58.0 898.6,64.0 901.9,58.0 905.2,58.0 908.5,58.0 911.7,58.0 915.0,58.0 918.3,58.0 921.6,58.0 924.9,58.0 928.2,64.0 931.4,58.0 934.7,58.0 938.0,58.0"/><polyline fill="none" stroke="#f59e0b" stroke-width="2.5" stroke-linejoin="round" stroke-linecap="round" points="42.0,274.0 45.3,274.0 48.6,274.0 51.8,280.0 55.1,268.0 58.4,268.0 61.7,268.0 65.0,274.0 68.3,274.0 71.5,274.0 74.8,280.0 78.1,286.0 81.4,286.0 84.7,286.0 87.9,286.0 91.2,286.0 94.5,286.0 97.8,286.0 101.1,286.0 104.4,286.0 107.6,286.0 110.9,286.0 114.2,286.0 117.5,286.0 120.8,286.0 124.1,286.0 127.3,286.0 130.6,286.0 133.9,286.0 137.2,286.0 140.5,286.0 143.7,274.0 147.0,280.0 150.3,280.0 153.6,280.0 156.9,280.0 160.2,286.0 163.4,286.0 166.7,286.0 170.0,274.0 173.3,268.0 176.6,268.0 179.8,262.0 183.1,262.0 186.4,262.0 189.7,262.0 193.0,268.0 196.3,280.0 199.5,280.0 202.8,274.0 206.1,262.0 209.4,268.0 212.7,268.0 215.9,262.0 219.2,268.0 222.5,268.0 225.8,268.0 229.1,280.0 232.4,280.0 235.6,268.0 238.9,268.0 242.2,268.0 245.5,262.0 248.8,274.0 252.1,280.0 255.3,286.0 258.6,286.0 261.9,274.0 265.2,274.0 268.5,274.0 271.7,274.0 275.0,274.0 278.3,274.0 281.6,274.0 284.9,274.0 288.2,280.0 291.4,274.0 294.7,280.0 298.0,286.0 301.3,286.0 304.6,286.0 307.8,286.0 311.1,280.0 314.4,286.0 317.7,286.0 321.0,286.0 324.3,286.0 327.5,286.0 330.8,286.0 334.1,286.0 337.4,286.0 340.7,286.0 343.9,286.0 347.2,286.0 350.5,286.0 353.8,286.0 357.1,286.0 360.4,286.0 363.6,286.0 366.9,286.0 370.2,286.0 373.5,286.0 376.8,286.0 380.1,286.0 383.3,286.0 386.6,286.0 389.9,286.0 393.2,286.0 396.5,286.0 399.7,286.0 403.0,286.0 406.3,286.0 409.6,286.0 412.9,286.0 416.2,286.0 419.4,286.0 422.7,286.0 426.0,286.0 429.3,286.0 432.6,286.0 435.8,286.0 439.1,286.0 442.4,286.0 445.7,286.0 449.0,286.0 452.3,286.0 455.5,286.0 458.8,286.0 462.1,286.0 465.4,286.0 468.7,286.0 471.9,286.0 475.2,286.0 478.5,286.0 481.8,286.0 485.1,286.0 488.4,286.0 491.6,286.0 494.9,286.0 498.2,286.0 501.5,286.0 504.8,286.0 508.1,286.0 511.3,286.0 514.6,286.0 517.9,286.0 521.2,286.0 524.5,286.0 527.7,286.0 531.0,286.0 534.3,286.0 537.6,286.0 540.9,286.0 544.2,286.0 547.4,286.0 550.7,286.0 554.0,286.0 557.3,286.0 560.6,280.0 563.8,268.0 567.1,268.0 570.4,268.0 573.7,268.0 577.0,262.0 580.3,262.0 583.5,262.0 586.8,268.0 590.1,268.0 593.4,274.0 596.7,274.0 599.9,274.0 603.2,268.0 606.5,268.0 609.8,268.0 613.1,274.0 616.4,274.0 619.6,274.0 622.9,274.0 626.2,268.0 629.5,268.0 632.8,262.0 636.1,262.0 639.3,268.0 642.6,268.0 645.9,268.0 649.2,262.0 652.5,262.0 655.7,274.0 659.0,262.0 662.3,262.0 665.6,262.0 668.9,262.0 672.2,268.0 675.4,268.0 678.7,274.0 682.0,280.0 685.3,280.0 688.6,280.0 691.8,280.0 695.1,280.0 698.4,280.0 701.7,286.0 705.0,286.0 708.3,286.0 711.5,280.0 714.8,274.0 718.1,274.0 721.4,280.0 724.7,274.0 727.9,274.0 731.2,268.0 734.5,268.0 737.8,268.0 741.1,268.0 744.4,280.0 747.6,274.0 750.9,280.0 754.2,280.0 757.5,286.0 760.8,286.0 764.1,286.0 767.3,286.0 770.6,286.0 773.9,286.0 777.2,286.0 780.5,286.0 783.7,286.0 787.0,286.0 790.3,286.0 793.6,286.0 796.9,280.0 800.2,280.0 803.4,280.0 806.7,268.0 810.0,280.0 813.3,268.0 816.6,274.0 819.8,274.0 823.1,286.0 826.4,280.0 829.7,286.0 833.0,280.0 836.3,286.0 839.5,286.0 842.8,286.0 846.1,280.0 849.4,274.0 852.7,280.0 855.9,280.0 859.2,280.0 862.5,274.0 865.8,274.0 869.1,280.0 872.4,280.0 875.6,280.0 878.9,280.0 882.2,286.0 885.5,286.0 888.8,286.0 892.1,286.0 895.3,286.0 898.6,286.0 901.9,286.0 905.2,286.0 908.5,286.0 911.7,286.0 915.0,286.0 918.3,286.0 921.6,286.0 924.9,286.0 928.2,286.0 931.4,286.0 934.7,286.0 938.0,286.0"/><polyline fill="none" stroke="#ef4444" stroke-width="2.5" stroke-linejoin="round" stroke-linecap="round" points="42.0,280.0 45.3,280.0 48.6,268.0 51.8,262.0 55.1,286.0 58.4,286.0 61.7,286.0 65.0,286.0 68.3,280.0 71.5,286.0 74.8,286.0 78.1,286.0 81.4,286.0 84.7,286.0 87.9,286.0 91.2,286.0 94.5,286.0 97.8,286.0 101.1,286.0 104.4,286.0 107.6,286.0 110.9,286.0 114.2,286.0 117.5,286.0 120.8,286.0 124.1,286.0 127.3,286.0 130.6,286.0 133.9,286.0 137.2,286.0 140.5,286.0 143.7,286.0 147.0,274.0 150.3,256.0 153.6,286.0 156.9,286.0 160.2,286.0 163.4,286.0 166.7,286.0 170.0,286.0 173.3,286.0 176.6,286.0 179.8,286.0 183.1,286.0 186.4,286.0 189.7,286.0 193.0,286.0 196.3,286.0 199.5,280.0 202.8,286.0 206.1,286.0 209.4,286.0 212.7,286.0 215.9,286.0 219.2,286.0 222.5,286.0 225.8,286.0 229.1,286.0 232.4,286.0 235.6,286.0 238.9,286.0 242.2,286.0 245.5,280.0 248.8,286.0 252.1,286.0 255.3,286.0 258.6,286.0 261.9,286.0 265.2,286.0 268.5,286.0 271.7,286.0 275.0,286.0 278.3,286.0 281.6,286.0 284.9,286.0 288.2,274.0 291.4,274.0 294.7,274.0 298.0,274.0 301.3,274.0 304.6,274.0 307.8,274.0 311.1,274.0 314.4,274.0 317.7,274.0 321.0,274.0 324.3,274.0 327.5,274.0 330.8,274.0 334.1,274.0 337.4,274.0 340.7,274.0 343.9,274.0 347.2,274.0 350.5,274.0 353.8,274.0 357.1,274.0 360.4,274.0 363.6,274.0 366.9,274.0 370.2,274.0 373.5,274.0 376.8,274.0 380.1,274.0 383.3,274.0 386.6,274.0 389.9,274.0 393.2,274.0 396.5,274.0 399.7,274.0 403.0,274.0 406.3,274.0 409.6,274.0 412.9,274.0 416.2,274.0 419.4,274.0 422.7,274.0 426.0,274.0 429.3,274.0 432.6,274.0 435.8,274.0 439.1,274.0 442.4,274.0 445.7,274.0 449.0,274.0 452.3,274.0 455.5,274.0 458.8,274.0 462.1,274.0 465.4,274.0 468.7,274.0 471.9,274.0 475.2,274.0 478.5,274.0 481.8,274.0 485.1,274.0 488.4,274.0 491.6,274.0 494.9,274.0 498.2,274.0 501.5,274.0 504.8,274.0 508.1,274.0 511.3,274.0 514.6,274.0 517.9,274.0 521.2,274.0 524.5,274.0 527.7,274.0 531.0,274.0 534.3,274.0 537.6,268.0 540.9,274.0 544.2,274.0 547.4,274.0 550.7,274.0 554.0,274.0 557.3,274.0 560.6,274.0 563.8,274.0 567.1,274.0 570.4,274.0 573.7,268.0 577.0,274.0 580.3,274.0 583.5,274.0 586.8,274.0 590.1,274.0 593.4,274.0 596.7,274.0 599.9,274.0 603.2,274.0 606.5,274.0 609.8,268.0 613.1,274.0 616.4,274.0 619.6,274.0 622.9,274.0 626.2,274.0 629.5,274.0 632.8,274.0 636.1,274.0 639.3,274.0 642.6,274.0 645.9,274.0 649.2,274.0 652.5,274.0 655.7,250.0 659.0,274.0 662.3,274.0 665.6,274.0 668.9,274.0 672.2,274.0 675.4,274.0 678.7,274.0 682.0,274.0 685.3,274.0 688.6,274.0 691.8,274.0 695.1,274.0 698.4,274.0 701.7,274.0 705.0,274.0 708.3,274.0 711.5,274.0 714.8,268.0 718.1,274.0 721.4,280.0 724.7,286.0 727.9,286.0 731.2,286.0 734.5,286.0 737.8,286.0 741.1,280.0 744.4,280.0 747.6,286.0 750.9,286.0 754.2,280.0 757.5,286.0 760.8,286.0 764.1,286.0 767.3,286.0 770.6,286.0 773.9,280.0 777.2,286.0 780.5,286.0 783.7,286.0 787.0,286.0 790.3,286.0 793.6,286.0 796.9,286.0 800.2,286.0 803.4,286.0 806.7,286.0 810.0,280.0 813.3,280.0 816.6,286.0 819.8,280.0 823.1,286.0 826.4,286.0 829.7,286.0 833.0,286.0 836.3,286.0 839.5,286.0 842.8,286.0 846.1,286.0 849.4,286.0 852.7,286.0 855.9,286.0 859.2,286.0 862.5,286.0 865.8,286.0 869.1,286.0 872.4,280.0 875.6,286.0 878.9,280.0 882.2,286.0 885.5,286.0 888.8,286.0 892.1,286.0 895.3,286.0 898.6,286.0 901.9,286.0 905.2,286.0 908.5,286.0 911.7,286.0 915.0,286.0 918.3,286.0 921.6,286.0 924.9,286.0 928.2,280.0 931.4,286.0 934.7,286.0 938.0,286.0"/><polyline fill="none" stroke="#a855f7" stroke-width="2.5" stroke-linejoin="round" stroke-linecap="round" points="42.0,286.0 45.3,286.0 48.6,286.0 51.8,286.0 55.1,286.0 58.4,286.0 61.7,286.0 65.0,286.0 68.3,286.0 71.5,286.0 74.8,286.0 78.1,286.0 81.4,286.0 84.7,286.0 87.9,286.0 91.2,286.0 94.5,286.0 97.8,286.0 101.1,286.0 104.4,286.0 107.6,286.0 110.9,286.0 114.2,286.0 117.5,286.0 120.8,286.0 124.1,286.0 127.3,286.0 130.6,286.0 133.9,286.0 137.2,286.0 140.5,286.0 143.7,286.0 147.0,286.0 150.3,286.0 153.6,286.0 156.9,286.0 160.2,286.0 163.4,286.0 166.7,286.0 170.0,286.0 173.3,286.0 176.6,286.0 179.8,286.0 183.1,286.0 186.4,286.0 189.7,286.0 193.0,286.0 196.3,286.0 199.5,286.0 202.8,286.0 206.1,286.0 209.4,286.0 212.7,286.0 215.9,286.0 219.2,286.0 222.5,286.0 225.8,286.0 229.1,286.0 232.4,286.0 235.6,286.0 238.9,286.0 242.2,286.0 245.5,286.0 248.8,286.0 252.1,286.0 255.3,286.0 258.6,286.0 261.9,286.0 265.2,286.0 268.5,286.0 271.7,280.0 275.0,286.0 278.3,286.0 281.6,286.0 284.9,286.0 288.2,286.0 291.4,286.0 294.7,286.0 298.0,286.0 301.3,286.0 304.6,286.0 307.8,286.0 311.1,286.0 314.4,286.0 317.7,286.0 321.0,286.0 324.3,286.0 327.5,286.0 330.8,286.0 334.1,286.0 337.4,286.0 340.7,286.0 343.9,286.0 347.2,286.0 350.5,286.0 353.8,286.0 357.1,286.0 360.4,286.0 363.6,286.0 366.9,286.0 370.2,286.0 373.5,286.0 376.8,286.0 380.1,286.0 383.3,286.0 386.6,286.0 389.9,286.0 393.2,286.0 396.5,286.0 399.7,286.0 403.0,286.0 406.3,286.0 409.6,286.0 412.9,286.0 416.2,286.0 419.4,286.0 422.7,286.0 426.0,286.0 429.3,286.0 432.6,286.0 435.8,286.0 439.1,286.0 442.4,286.0 445.7,286.0 449.0,286.0 452.3,286.0 455.5,286.0 458.8,286.0 462.1,286.0 465.4,286.0 468.7,286.0 471.9,286.0 475.2,286.0 478.5,286.0 481.8,286.0 485.1,286.0 488.4,286.0 491.6,286.0 494.9,286.0 498.2,286.0 501.5,286.0 504.8,286.0 508.1,286.0 511.3,286.0 514.6,286.0 517.9,286.0 521.2,286.0 524.5,286.0 527.7,286.0 531.0,286.0 534.3,286.0 537.6,286.0 540.9,286.0 544.2,286.0 547.4,286.0 550.7,286.0 554.0,286.0 557.3,280.0 560.6,286.0 563.8,286.0 567.1,286.0 570.4,286.0 573.7,286.0 577.0,286.0 580.3,286.0 583.5,286.0 586.8,286.0 590.1,286.0 593.4,286.0 596.7,286.0 599.9,286.0 603.2,286.0 606.5,286.0 609.8,286.0 613.1,286.0 616.4,286.0 619.6,286.0 622.9,286.0 626.2,286.0 629.5,286.0 632.8,286.0 636.1,286.0 639.3,286.0 642.6,286.0 645.9,286.0 649.2,286.0 652.5,286.0 655.7,286.0 659.0,286.0 662.3,286.0 665.6,286.0 668.9,286.0 672.2,286.0 675.4,286.0 678.7,286.0 682.0,286.0 685.3,286.0 688.6,286.0 691.8,286.0 695.1,286.0 698.4,286.0 701.7,286.0 705.0,286.0 708.3,286.0 711.5,286.0 714.8,286.0 718.1,286.0 721.4,286.0 724.7,286.0 727.9,286.0 731.2,286.0 734.5,286.0 737.8,286.0 741.1,286.0 744.4,286.0 747.6,280.0 750.9,286.0 754.2,286.0 757.5,286.0 760.8,286.0 764.1,286.0 767.3,286.0 770.6,286.0 773.9,286.0 777.2,286.0 780.5,280.0 783.7,286.0 787.0,286.0 790.3,286.0 793.6,286.0 796.9,286.0 800.2,286.0 803.4,286.0 806.7,286.0 810.0,286.0 813.3,286.0 816.6,286.0 819.8,286.0 823.1,286.0 826.4,286.0 829.7,286.0 833.0,286.0 836.3,286.0 839.5,286.0 842.8,286.0 846.1,286.0 849.4,286.0 852.7,286.0 855.9,286.0 859.2,286.0 862.5,286.0 865.8,286.0 869.1,286.0 872.4,286.0 875.6,280.0 878.9,286.0 882.2,286.0 885.5,286.0 888.8,286.0 892.1,286.0 895.3,286.0 898.6,280.0 901.9,286.0 905.2,286.0 908.5,286.0 911.7,286.0 915.0,286.0 918.3,286.0 921.6,286.0 924.9,286.0 928.2,286.0 931.4,286.0 934.7,286.0 938.0,286.0"/><text x="42" y="308" font-size="11" fill="#9fb0d4">19/06 12:43</text><text x="938" y="308" text-anchor="end" font-size="11" fill="#9fb0d4">04/07 19:29</text></svg>