<svg xmlns="http://www.w3.org/2000/svg" viewBox="0 0 960 320" width="960" height="320" font-family="Segoe UI, system-ui, -apple-system, Roboto, Helvetica, Arial, sans-serif" role="img" aria-label="Availability history per region"><rect x="0.5" y="0.5" width="959" height="319" rx="14" fill="#ffffff" stroke="#dce3f1"/><text x="42" y="26" font-size="14" font-weight="600" fill="#14203a">History · 48 points</text><circle cx="47" cy="40" r="5" fill="#22c55e"/><text x="57" y="44" font-size="12" fill="#5a688a">Available</text><circle cx="139.8" cy="40" r="5" fill="#f59e0b"/><text x="149.8" y="44" font-size="12" fill="#5a688a">Saturated</text><circle cx="232.60000000000002" cy="40" r="5" fill="#ef4444"/><text x="242.60000000000002" y="44" font-size="12" fill="#5a688a">Error</text><line x1="42" y1="286.0" x2="938" y2="286.0" stroke="#eef2f7" stroke-width="1"/><text x="35" y="289.0" text-anchor="end" font-size="11" fill="#5a688a">0</text><line x1="42" y1="227.5" x2="938" y2="227.5" stroke="#eef2f7" stroke-width="1"/><text x="35" y="230.5" text-anchor="end" font-size="11" fill="#5a688a">10</text><line x1="42" y1="169.0" x2="938" y2="169.0" stroke="#eef2f7" stroke-width="1"/><text x="35" y="172.0" text-anchor="end" font-size="11" fill="#5a688a">19</text><line x1="42" y1="110.5" x2="938" y2="110.5" stroke="#eef2f7" stroke-width="1"/><text x="35" y="113.5" text-anchor="end" font-size="11" fill="#5a688a">28</text><line x1="42" y1="52.0" x2="938" y2="52.0" stroke="#eef2f7" stroke-width="1"/><text x="35" y="55.0" text-anchor="end" font-size="11" fill="#5a688a">38</text><polyline fill="none" stroke="#22c55e" stroke-width="2.5" stroke-linejoin="round" stroke-linecap="round" points="42.0,64.3 61.1,224.4 80.1,82.8 99.2,88.9 118.3,82.8 137.3,76.6 156.4,76.6 175.4,76.6 194.5,76.6 213.6,76.6 232.6,76.6 251.7,76.6 270.8,76.6 289.8,76.6 308.9,76.6 328.0,70.5 347.0,70.5 366.1,82.8 385.1,82.8 404.2,82.8 423.3,88.9 442.3,88.9 461.4,88.9 480.5,88.9 499.5,88.9 518.6,88.9 537.7,88.9 556.7,88.9 575.8,88.9 594.9,82.8 613.9,82.8 633.0,82.8 652.0,82.8 671.1,76.6 690.2,76.6 709.2,76.6 728.3,76.6 747.4,76.6 766.4,82.8 785.5,82.8 804.6,82.8 823.6,82.8 842.7,76.6 861.7,76.6 880.8,76.6 899.9,76.6 918.9,76.6 938.0,76.6"/><circle cx="42.0" cy="64.3" r="2.5" fill="#22c55e"/><circle cx="61.1" cy="224.4" r="2.5" fill="#22c55e"/><circle cx="80.1" cy="82.8" r="2.5" fill="#22c55e"/><circle cx="99.2" cy="88.9" r="2.5" fill="#22c55e"/><circle cx="118.3" cy="82.8" r="2.5" fill="#22c55e"/><circle cx="137.3" cy="76.6" r="2.5" fill="#22c55e"/><circle cx="156.4" cy="76.6" r="2.5" fill="#22c55e"/><circle cx="175.4" cy="76.6" r="2.5" fill="#22c55e"/><circle cx="194.5" cy="76.6" r="2.5" fill="#22c55e"/><circle cx="213.6" cy="76.6" r="2.5" fill="#22c55e"/><circle cx="232.6" cy="76.6" r="2.5" fill="#22c55e"/><circle cx="251.7" cy="76.6" r="2.5" fill="#22c55e"/><circle cx="270.8" cy="76.6" r="2.5" fill="#22c55e"/><circle cx="289.8" cy="76.6" r="2.5" fill="#22c55e"/><circle cx="308.9" cy="76.6" r="2.5" fill="#22c55e"/><circle cx="328.0" cy="70.5" r="2.5" fill="#22c55e"/><circle cx="347.0" cy="70.5" r="2.5" fill="#22c55e"/><circle cx="366.1" cy="82.8" r="2.5" fill="#22c55e"/><circle cx="385.1" cy="82.8" r="2.5" fill="#22c55e"/><circle cx="404.2" cy="82.8" r="2.5" fill="#22c55e"/><circle cx="423.3" cy="88.9" r="2.5" fill="#22c55e"/><circle cx="442.3" cy="88.9" r="2.5" fill="#22c55e"/><circle cx="461.4" cy="88.9" r="2.5" fill="#22c55e"/><circle cx="480.5" cy="88.9" r="2.5" fill="#22c55e"/><circle cx="499.5" cy="88.9" r="2.5" fill="#22c55e"/><circle cx="518.6" cy="88.9" r="2.5" fill="#22c55e"/><circle cx="537.7" cy="88.9" r="2.5" fill="#22c55e"/><circle cx="556.7" cy="88.9" r="2.5" fill="#22c55e"/><circle cx="575.8" cy="88.9" r="2.5" fill="#22c55e"/><circle cx="594.9" cy="82.8" r="2.5" fill="#22c55e"/><circle cx="613.9" cy="82.8" r="2.5" fill="#22c55e"/><circle cx="633.0" cy="82.8" r="2.5" fill="#22c55e"/><circle cx="652.0" cy="82.8" r="2.5" fill="#22c55e"/><circle cx="671.1" cy="76.6" r="2.5" fill="#22c55e"/><circle cx="690.2" cy="76.6" r="2.5" fill="#22c55e"/><circle cx="709.2" cy="76.6" r="2.5" fill="#22c55e"/><circle cx="728.3" cy="76.6" r="2.5" fill="#22c55e"/><circle cx="747.4" cy="76.6" r="2.5" fill="#22c55e"/><circle cx="766.4" cy="82.8" r="2.5" fill="#22c55e"/><circle cx="785.5" cy="82.8" r="2.5" fill="#22c55e"/><circle cx="804.6" cy="82.8" r="2.5" fill="#22c55e"/><circle cx="823.6" cy="82.8" r="2.5" fill="#22c55e"/><circle cx="842.7" cy="76.6" r="2.5" fill="#22c55e"/><circle cx="861.7" cy="76.6" r="2.5" fill="#22c55e"/><circle cx="880.8" cy="76.6" r="2.5" fill="#22c55e"/><circle cx="899.9" cy="76.6" r="2.5" fill="#22c55e"/><circle cx="918.9" cy="76.6" r="2.5" fill="#22c55e"/><circle cx="938.0" cy="76.6" r="2.5" fill="#22c55e"/><polyline fill="none" stroke="#f59e0b" stroke-width="2.5" stroke-linejoin="round" stroke-linecap="round" points="42.0,273.7 61.1,267.5 80.1,255.2 99.2,249.1 118.3,255.2 137.3,261.4 156.4,261.4 175.4,261.4 194.5,261.4 213.6,261.4 232.6,261.4 251.7,261.4 270.8,261.4 289.8,261.4 308.9,261.4 328.0,267.5 347.0,267.5 366.1,261.4 385.1,255.2 404.2,255.2 423.3,249.1 442.3,249.1 461.4,249.1 480.5,249.1 499.5,249.1 518.6,249.1 537.7,249.1 556.7,249.1 575.8,249.1 594.9,255.2 613.9,255.2 633.0,255.2 652.0,255.2 671.1,261.4 690.2,261.4 709.2,261.4 728.3,261.4 747.4,261.4 766.4,255.2 785.5,255.2 804.6,255.2 823.6,255.2 842.7,261.4 861.7,261.4 880.8,261.4 899.9,261.4 918.9,261.4 938.0,261.4"/><circle cx="42.0" cy="273.7" r="2.5" fill="#f59e0b"/><circle cx="61.1" cy="267.5" r="2.5" fill="#f59e0b"/><circle cx="80.1" cy="255.2" r="2.5" fill="#f59e0b"/><circle cx="99.2" cy="249.1" r="2.5" fill="#f59e0b"/><circle cx="118.3" cy="255.2" r="2.5" fill="#f59e0b"/><circle cx="137.3" cy="261.4" r="2.5" fill="#f59e0b"/><circle cx="156.4" cy="261.4" r="2.5" fill="#f59e0b"/><circle cx="175.4" cy="261.4" r="2.5" fill="#f59e0b"/><circle cx="194.5" cy="261.4" r="2.5" fill="#f59e0b"/><circle cx="213.6" cy="261.4" r="2.5" fill="#f59e0b"/><circle cx="232.6" cy="261.4" r="2.5" fill="#f59e0b"/><circle cx="251.7" cy="261.4" r="2.5" fill="#f59e0b"/><circle cx="270.8" cy="261.4" r="2.5" fill="#f59e0b"/><circle cx="289.8" cy="261.4" r="2.5" fill="#f59e0b"/><circle cx="308.9" cy="261.4" r="2.5" fill="#f59e0b"/><circle cx="328.0" cy="267.5" r="2.5" fill="#f59e0b"/><circle cx="347.0" cy="267.5" r="2.5" fill="#f59e0b"/><circle cx="366.1" cy="261.4" r="2.5" fill="#f59e0b"/><circle cx="385.1" cy="255.2" r="2.5" fill="#f59e0b"/><circle cx="404.2" cy="255.2" r="2.5" fill="#f59e0b"/><circle cx="423.3" cy="249.1" r="2.5" fill="#f59e0b"/><circle cx="442.3" cy="249.1" r="2.5" fill="#f59e0b"/><circle cx="461.4" cy="249.1" r="2.5" fill="#f59e0b"/><circle cx="480.5" cy="249.1" r="2.5" fill="#f59e0b"/><circle cx="499.5" cy="249.1" r="2.5" fill="#f59e0b"/><circle cx="518.6" cy="249.1" r="2.5" fill="#f59e0b"/><circle cx="537.7" cy="249.1" r="2.5" fill="#f59e0b"/><circle cx="556.7" cy="249.1" r="2.5" fill="#f59e0b"/><circle cx="575.8" cy="249.1" r="2.5" fill="#f59e0b"/><circle cx="594.9" cy="255.2" r="2.5" fill="#f59e0b"/><circle cx="613.9" cy="255.2" r="2.5" fill="#f59e0b"/><circle cx="633.0" cy="255.2" r="2.5" fill="#f59e0b"/><circle cx="652.0" cy="255.2" r="2.5" fill="#f59e0b"/><circle cx="671.1" cy="261.4" r="2.5" fill="#f59e0b"/><circle cx="690.2" cy="261.4" r="2.5" fill="#f59e0b"/><circle cx="709.2" cy="261.4" r="2.5" fill="#f59e0b"/><circle cx="728.3" cy="261.4" r="2.5" fill="#f59e0b"/><circle cx="747.4" cy="261.4" r="2.5" fill="#f59e0b"/><circle cx="766.4" cy="255.2" r="2.5" fill="#f59e0b"/><circle cx="785.5" cy="255.2" r="2.5" fill="#f59e0b"/><circle cx="804.6" cy="255.2" r="2.5" fill="#f59e0b"/><circle cx="823.6" cy="255.2" r="2.5" fill="#f59e0b"/><circle cx="842.7" cy="261.4" r="2.5" fill="#f59e0b"/><circle cx="861.7" cy="261.4" r="2.5" fill="#f59e0b"/><circle cx="880.8" cy="261.4" r="2.5" fill="#f59e0b"/><circle cx="899.9" cy="261.4" r="2.5" fill="#f59e0b"/><circle cx="918.9" cy="261.4" r="2.5" fill="#f59e0b"/><circle cx="938.0" cy="261.4" r="2.5" fill="#f59e0b"/><polyline fill="none" stroke="#ef4444" stroke-width="2.5" stroke-linejoin="round" stroke-linecap="round" points="42.0,286.0 61.1,132.1 80.1,286.0 99.2,286.0 118.3,286.0 137.3,286.0 156.4,286.0 175.4,286.0 194.5,286.0 213.6,286.0 232.6,286.0 251.7,286.0 270.8,286.0 289.8,286.0 308.9,286.0 328.0,286.0 347.0,286.0 366.1,279.8 385.1,286.0 404.2,286.0 423.3,286.0 442.3,286.0 461.4,286.0 480.5,286.0 499.5,286.0 518.6,286.0 537.7,286.0 556.7,286.0 575.8,286.0 594.9,286.0 613.9,286.0 633.0,286.0 652.0,286.0 671.1,286.0 690.2,286.0 709.2,286.0 728.3,286.0 747.4,286.0 766.4,286.0 785.5,286.0 804.6,286.0 823.6,286.0 842.7,286.0 861.7,286.0 880.8,286.0 899.9,286.0 918.9,286.0 938.0,286.0"/><circle cx="42.0" cy="286.0" r="2.5" fill="#ef4444"/><circle cx="61.1" cy="132.1" r="2.5" fill="#ef4444"/><circle cx="80.1" cy="286.0" r="2.5" fill="#ef4444"/><circle cx="99.2" cy="286.0" r="2.5" fill="#ef4444"/><circle cx="118.3" cy="286.0" r="2.5" fill="#ef4444"/><circle cx="137.3" cy="286.0" r="2.5" fill="#ef4444"/><circle cx="156.4" cy="286.0" r="2.5" fill="#ef4444"/><circle cx="175.4" cy="286.0" r="2.5" fill="#ef4444"/><circle cx="194.5" cy="286.0" r="2.5" fill="#ef4444"/><circle cx="213.6" cy="286.0" r="2.5" fill="#ef4444"/><circle cx="232.6" cy="286.0" r="2.5" fill="#ef4444"/><circle cx="251.7" cy="286.0" r="2.5" fill="#ef4444"/><circle cx="270.8" cy="286.0" r="2.5" fill="#ef4444"/><circle cx="289.8" cy="286.0" r="2.5" fill="#ef4444"/><circle cx="308.9" cy="286.0" r="2.5" fill="#ef4444"/><circle cx="328.0" cy="286.0" r="2.5" fill="#ef4444"/><circle cx="347.0" cy="286.0" r="2.5" fill="#ef4444"/><circle cx="366.1" cy="279.8" r="2.5" fill="#ef4444"/><circle cx="385.1" cy="286.0" r="2.5" fill="#ef4444"/><circle cx="404.2" cy="286.0" r="2.5" fill="#ef4444"/><circle cx="423.3" cy="286.0" r="2.5" fill="#ef4444"/><circle cx="442.3" cy="286.0" r="2.5" fill="#ef4444"/><circle cx="461.4" cy="286.0" r="2.5" fill="#ef4444"/><circle cx="480.5" cy="286.0" r="2.5" fill="#ef4444"/><circle cx="499.5" cy="286.0" r="2.5" fill="#ef4444"/><circle cx="518.6" cy="286.0" r="2.5" fill="#ef4444"/><circle cx="537.7" cy="286.0" r="2.5" fill="#ef4444"/><circle cx="556.7" cy="286.0" r="2.5" fill="#ef4444"/><circle cx="575.8" cy="286.0" r="2.5" fill="#ef4444"/><circle cx="594.9" cy="286.0" r="2.5" fill="#ef4444"/><circle cx="613.9" cy="286.0" r="2.5" fill="#ef4444"/><circle cx="633.0" cy="286.0" r="2.5" fill="#ef4444"/><circle cx="652.0" cy="286.0" r="2.5" fill="#ef4444"/><circle cx="671.1" cy="286.0" r="2.5" fill="#ef4444"/><circle cx="690.2" cy="286.0" r="2.5" fill="#ef4444"/><circle cx="709.2" cy="286.0" r="2.5" fill="#ef4444"/><circle cx="728.3" cy="286.0" r="2.5" fill="#ef4444"/><circle cx="747.4" cy="286.0" r="2.5" fill="#ef4444"/><circle cx="766.4" cy="286.0" r="2.5" fill="#ef4444"/><circle cx="785.5" cy="286.0" r="2.5" fill="#ef4444"/><circle cx="804.6" cy="286.0" r="2.5" fill="#ef4444"/><circle cx="823.6" cy="286.0" r="2.5" fill="#ef4444"/><circle cx="842.7" cy="286.0" r="2.5" fill="#ef4444"/><circle cx="861.7" cy="286.0" r="2.5" fill="#ef4444"/><circle cx="880.8" cy="286.0" r="2.5" fill="#ef4444"/><circle cx="899.9" cy="286.0" r="2.5" fill="#ef4444"/><circle cx="918.9" cy="286.0" r="2.5" fill="#ef4444"/><circle cx="938.0" cy="286.0" r="2.5" fill="#ef4444"/><text x="42" y="308" font-size="11" fill="#5a688a">19/06 15:39</text><text x="938" y="308" text-anchor="end" font-size="11" fill="#5a688a">18/07 13:29</text></svg>