<svg xmlns="http://www.w3.org/2000/svg" viewBox="0 0 960 320" width="960" height="320" font-family="Segoe UI, system-ui, -apple-system, Roboto, Helvetica, Arial, sans-serif" role="img" aria-label="Availability history per region"><rect x="0.5" y="0.5" width="959" height="319" rx="14" fill="#0d1117" stroke="#2c3a5e"/><text x="42" y="26" font-size="14" font-weight="600" fill="#e6ecff">History · 308 points</text><circle cx="47" cy="40" r="5" fill="#22c55e"/><text x="57" y="44" font-size="12" fill="#9fb0d4">Available</text><circle cx="139.8" cy="40" r="5" fill="#f59e0b"/><text x="149.8" y="44" font-size="12" fill="#9fb0d4">Saturated</text><circle cx="232.60000000000002" cy="40" r="5" fill="#ef4444"/><text x="242.60000000000002" y="44" font-size="12" fill="#9fb0d4">Error</text><circle cx="296.6" cy="40" r="5" fill="#a855f7"/><text x="306.6" y="44" font-size="12" fill="#9fb0d4">Timeout</text><line x1="42" y1="286.0" x2="938" y2="286.0" stroke="#21304f" stroke-width="1"/><text x="35" y="289.0" text-anchor="end" font-size="11" fill="#9fb0d4">0</text><line x1="42" y1="227.5" x2="938" y2="227.5" stroke="#21304f" stroke-width="1"/><text x="35" y="230.5" text-anchor="end" font-size="11" fill="#9fb0d4">10</text><line x1="42" y1="169.0" x2="938" y2="169.0" stroke="#21304f" stroke-width="1"/><text x="35" y="172.0" text-anchor="end" font-size="11" fill="#9fb0d4">20</text><line x1="42" y1="110.5" x2="938" y2="110.5" stroke="#21304f" stroke-width="1"/><text x="35" y="113.5" text-anchor="end" font-size="11" fill="#9fb0d4">29</text><line x1="42" y1="52.0" x2="938" y2="52.0" stroke="#21304f" stroke-width="1"/><text x="35" y="55.0" text-anchor="end" font-size="11" fill="#9fb0d4">39</text><polyline fill="none" stroke="#22c55e" stroke-width="2.5" stroke-linejoin="round" stroke-linecap="round" points="42.0,70.0 44.9,70.0 47.8,88.0 50.8,88.0 53.7,76.0 56.6,76.0 59.5,76.0 62.4,70.0 65.3,76.0 68.3,70.0 71.2,64.0 74.1,58.0 77.0,58.0 79.9,58.0 82.9,58.0 85.8,58.0 88.7,58.0 91.6,58.0 94.5,58.0 97.5,58.0 100.4,58.0 103.3,58.0 106.2,58.0 109.1,58.0 112.0,58.0 115.0,58.0 117.9,58.0 120.8,58.0 123.7,58.0 126.6,58.0 129.6,58.0 132.5,70.0 135.4,76.0 138.3,94.0 141.2,64.0 144.1,64.0 147.1,58.0 150.0,58.0 152.9,58.0 155.8,70.0 158.7,76.0 161.7,76.0 164.6,82.0 167.5,82.0 170.4,82.0 173.3,82.0 176.3,76.0 179.2,64.0 182.1,70.0 185.0,70.0 187.9,82.0 190.8,76.0 193.8,76.0 196.7,82.0 199.6,76.0 202.5,76.0 205.4,76.0 208.4,64.0 211.3,64.0 214.2,76.0 217.1,76.0 220.0,76.0 223.0,88.0 225.9,70.0 228.8,64.0 231.7,58.0 234.6,58.0 237.5,70.0 240.5,70.0 243.4,70.0 246.3,76.0 249.2,70.0 252.1,70.0 255.1,70.0 258.0,70.0 260.9,76.0 263.8,82.0 266.7,76.0 269.6,70.0 272.6,70.0 275.5,70.0 278.4,70.0 281.3,76.0 284.2,70.0 287.2,70.0 290.1,70.0 293.0,70.0 295.9,70.0 298.8,70.0 301.8,70.0 304.7,70.0 307.6,70.0 310.5,70.0 313.4,70.0 316.3,70.0 319.3,70.0 322.2,70.0 325.1,70.0 328.0,70.0 330.9,70.0 333.9,70.0 336.8,70.0 339.7,70.0 342.6,70.0 345.5,70.0 348.4,70.0 351.4,70.0 354.3,70.0 357.2,70.0 360.1,70.0 363.0,70.0 366.0,70.0 368.9,70.0 371.8,70.0 374.7,70.0 377.6,70.0 380.6,70.0 383.5,70.0 386.4,70.0 389.3,70.0 392.2,70.0 395.1,70.0 398.1,70.0 401.0,70.0 403.9,70.0 406.8,70.0 409.7,70.0 412.7,70.0 415.6,70.0 418.5,70.0 421.4,70.0 424.3,70.0 427.3,70.0 430.2,70.0 433.1,70.0 436.0,70.0 438.9,70.0 441.8,70.0 444.8,70.0 447.7,70.0 450.6,70.0 453.5,70.0 456.4,70.0 459.4,70.0 462.3,70.0 465.2,70.0 468.1,70.0 471.0,70.0 473.9,70.0 476.9,70.0 479.8,70.0 482.7,76.0 485.6,70.0 488.5,70.0 491.5,70.0 494.4,70.0 497.3,70.0 500.2,76.0 503.1,76.0 506.1,88.0 509.0,88.0 511.9,88.0 514.8,94.0 517.7,94.0 520.6,94.0 523.6,94.0 526.5,88.0 529.4,88.0 532.3,82.0 535.2,82.0 538.2,82.0 541.1,88.0 544.0,88.0 546.9,94.0 549.8,82.0 552.7,82.0 555.7,82.0 558.6,82.0 561.5,88.0 564.4,88.0 567.3,94.0 570.3,94.0 573.2,88.0 576.1,88.0 579.0,88.0 581.9,94.0 584.9,94.0 587.8,106.0 590.7,94.0 593.6,94.0 596.5,94.0 599.4,94.0 602.4,88.0 605.3,88.0 608.2,82.0 611.1,76.0 614.0,76.0 617.0,76.0 619.9,76.0 622.8,76.0 625.7,76.0 628.6,70.0 631.6,70.0 634.5,70.0 637.4,76.0 640.3,88.0 643.2,82.0 646.1,70.0 649.1,70.0 652.0,70.0 654.9,76.0 657.8,76.0 660.7,76.0 663.7,82.0 666.6,70.0 669.5,76.0 672.4,64.0 675.3,70.0 678.2,58.0 681.2,58.0 684.1,58.0 687.0,58.0 689.9,58.0 692.8,64.0 695.8,58.0 698.7,64.0 701.6,58.0 704.5,58.0 707.4,58.0 710.4,58.0 713.3,64.0 716.2,64.0 719.1,64.0 722.0,76.0 724.9,70.0 727.9,82.0 730.8,70.0 733.7,76.0 736.6,58.0 739.5,64.0 742.5,58.0 745.4,64.0 748.3,58.0 751.2,58.0 754.1,58.0 757.0,64.0 760.0,70.0 762.9,64.0 765.8,64.0 768.7,64.0 771.6,70.0 774.6,70.0 777.5,64.0 780.4,70.0 783.3,70.0 786.2,70.0 789.2,58.0 792.1,58.0 795.0,58.0 797.9,58.0 800.8,58.0 803.7,64.0 806.7,58.0 809.6,58.0 812.5,58.0 815.4,58.0 818.3,58.0 821.3,58.0 824.2,58.0 827.1,58.0 830.0,64.0 832.9,58.0 835.9,58.0 838.8,58.0 841.7,58.0 844.6,58.0 847.5,58.0 850.4,58.0 853.4,64.0 856.3,58.0 859.2,58.0 862.1,58.0 865.0,58.0 868.0,58.0 870.9,58.0 873.8,58.0 876.7,58.0 879.6,58.0 882.5,58.0 885.5,58.0 888.4,58.0 891.3,58.0 894.2,58.0 897.1,58.0 900.1,58.0 903.0,58.0 905.9,58.0 908.8,58.0 911.7,64.0 914.7,64.0 917.6,58.0 920.5,58.0 923.4,58.0 926.3,64.0 929.2,64.0 932.2,76.0 935.1,64.0 938.0,64.0"/><polyline fill="none" stroke="#f59e0b" stroke-width="2.5" stroke-linejoin="round" stroke-linecap="round" points="42.0,274.0 44.9,274.0 47.8,274.0 50.8,280.0 53.7,268.0 56.6,268.0 59.5,268.0 62.4,274.0 65.3,274.0 68.3,274.0 71.2,280.0 74.1,286.0 77.0,286.0 79.9,286.0 82.9,286.0 85.8,286.0 88.7,286.0 91.6,286.0 94.5,286.0 97.5,286.0 100.4,286.0 103.3,286.0 106.2,286.0 109.1,286.0 112.0,286.0 115.0,286.0 117.9,286.0 120.8,286.0 123.7,286.0 126.6,286.0 129.6,286.0 132.5,274.0 135.4,280.0 138.3,280.0 141.2,280.0 144.1,280.0 147.1,286.0 150.0,286.0 152.9,286.0 155.8,274.0 158.7,268.0 161.7,268.0 164.6,262.0 167.5,262.0 170.4,262.0 173.3,262.0 176.3,268.0 179.2,280.0 182.1,280.0 185.0,274.0 187.9,262.0 190.8,268.0 193.8,268.0 196.7,262.0 199.6,268.0 202.5,268.0 205.4,268.0 208.4,280.0 211.3,280.0 214.2,268.0 217.1,268.0 220.0,268.0 223.0,262.0 225.9,274.0 228.8,280.0 231.7,286.0 234.6,286.0 237.5,274.0 240.5,274.0 243.4,274.0 246.3,274.0 249.2,274.0 252.1,274.0 255.1,274.0 258.0,274.0 260.9,280.0 263.8,274.0 266.7,280.0 269.6,286.0 272.6,286.0 275.5,286.0 278.4,286.0 281.3,280.0 284.2,286.0 287.2,286.0 290.1,286.0 293.0,286.0 295.9,286.0 298.8,286.0 301.8,286.0 304.7,286.0 307.6,286.0 310.5,286.0 313.4,286.0 316.3,286.0 319.3,286.0 322.2,286.0 325.1,286.0 328.0,286.0 330.9,286.0 333.9,286.0 336.8,286.0 339.7,286.0 342.6,286.0 345.5,286.0 348.4,286.0 351.4,286.0 354.3,286.0 357.2,286.0 360.1,286.0 363.0,286.0 366.0,286.0 368.9,286.0 371.8,286.0 374.7,286.0 377.6,286.0 380.6,286.0 383.5,286.0 386.4,286.0 389.3,286.0 392.2,286.0 395.1,286.0 398.1,286.0 401.0,286.0 403.9,286.0 406.8,286.0 409.7,286.0 412.7,286.0 415.6,286.0 418.5,286.0 421.4,286.0 424.3,286.0 427.3,286.0 430.2,286.0 433.1,286.0 436.0,286.0 438.9,286.0 441.8,286.0 444.8,286.0 447.7,286.0 450.6,286.0 453.5,286.0 456.4,286.0 459.4,286.0 462.3,286.0 465.2,286.0 468.1,286.0 471.0,286.0 473.9,286.0 476.9,286.0 479.8,286.0 482.7,286.0 485.6,286.0 488.5,286.0 491.5,286.0 494.4,286.0 497.3,286.0 500.2,286.0 503.1,280.0 506.1,268.0 509.0,268.0 511.9,268.0 514.8,268.0 517.7,262.0 520.6,262.0 523.6,262.0 526.5,268.0 529.4,268.0 532.3,274.0 535.2,274.0 538.2,274.0 541.1,268.0 544.0,268.0 546.9,268.0 549.8,274.0 552.7,274.0 555.7,274.0 558.6,274.0 561.5,268.0 564.4,268.0 567.3,262.0 570.3,262.0 573.2,268.0 576.1,268.0 579.0,268.0 581.9,262.0 584.9,262.0 587.8,274.0 590.7,262.0 593.6,262.0 596.5,262.0 599.4,262.0 602.4,268.0 605.3,268.0 608.2,274.0 611.1,280.0 614.0,280.0 617.0,280.0 619.9,280.0 622.8,280.0 625.7,280.0 628.6,286.0 631.6,286.0 634.5,286.0 637.4,280.0 640.3,274.0 643.2,274.0 646.1,280.0 649.1,274.0 652.0,274.0 654.9,268.0 657.8,268.0 660.7,268.0 663.7,268.0 666.6,280.0 669.5,274.0 672.4,280.0 675.3,280.0 678.2,286.0 681.2,286.0 684.1,286.0 687.0,286.0 689.9,286.0 692.8,286.0 695.8,286.0 698.7,286.0 701.6,286.0 704.5,286.0 707.4,286.0 710.4,286.0 713.3,280.0 716.2,280.0 719.1,280.0 722.0,268.0 724.9,280.0 727.9,268.0 730.8,274.0 733.7,274.0 736.6,286.0 739.5,280.0 742.5,286.0 745.4,280.0 748.3,286.0 751.2,286.0 754.1,286.0 757.0,280.0 760.0,274.0 762.9,280.0 765.8,280.0 768.7,280.0 771.6,274.0 774.6,274.0 777.5,280.0 780.4,280.0 783.3,280.0 786.2,280.0 789.2,286.0 792.1,286.0 795.0,286.0 797.9,286.0 800.8,286.0 803.7,286.0 806.7,286.0 809.6,286.0 812.5,286.0 815.4,286.0 818.3,286.0 821.3,286.0 824.2,286.0 827.1,286.0 830.0,286.0 832.9,286.0 835.9,286.0 838.8,286.0 841.7,286.0 844.6,286.0 847.5,286.0 850.4,286.0 853.4,286.0 856.3,286.0 859.2,286.0 862.1,286.0 865.0,286.0 868.0,286.0 870.9,286.0 873.8,286.0 876.7,286.0 879.6,286.0 882.5,286.0 885.5,286.0 888.4,286.0 891.3,286.0 894.2,286.0 897.1,286.0 900.1,286.0 903.0,286.0 905.9,286.0 908.8,286.0 911.7,286.0 914.7,286.0 917.6,286.0 920.5,286.0 923.4,286.0 926.3,280.0 929.2,280.0 932.2,280.0 935.1,280.0 938.0,280.0"/><polyline fill="none" stroke="#ef4444" stroke-width="2.5" stroke-linejoin="round" stroke-linecap="round" points="42.0,280.0 44.9,280.0 47.8,268.0 50.8,262.0 53.7,286.0 56.6,286.0 59.5,286.0 62.4,286.0 65.3,280.0 68.3,286.0 71.2,286.0 74.1,286.0 77.0,286.0 79.9,286.0 82.9,286.0 85.8,286.0 88.7,286.0 91.6,286.0 94.5,286.0 97.5,286.0 100.4,286.0 103.3,286.0 106.2,286.0 109.1,286.0 112.0,286.0 115.0,286.0 117.9,286.0 120.8,286.0 123.7,286.0 126.6,286.0 129.6,286.0 132.5,286.0 135.4,274.0 138.3,256.0 141.2,286.0 144.1,286.0 147.1,286.0 150.0,286.0 152.9,286.0 155.8,286.0 158.7,286.0 161.7,286.0 164.6,286.0 167.5,286.0 170.4,286.0 173.3,286.0 176.3,286.0 179.2,286.0 182.1,280.0 185.0,286.0 187.9,286.0 190.8,286.0 193.8,286.0 196.7,286.0 199.6,286.0 202.5,286.0 205.4,286.0 208.4,286.0 211.3,286.0 214.2,286.0 217.1,286.0 220.0,286.0 223.0,280.0 225.9,286.0 228.8,286.0 231.7,286.0 234.6,286.0 237.5,286.0 240.5,286.0 243.4,286.0 246.3,286.0 249.2,286.0 252.1,286.0 255.1,286.0 258.0,286.0 260.9,274.0 263.8,274.0 266.7,274.0 269.6,274.0 272.6,274.0 275.5,274.0 278.4,274.0 281.3,274.0 284.2,274.0 287.2,274.0 290.1,274.0 293.0,274.0 295.9,274.0 298.8,274.0 301.8,274.0 304.7,274.0 307.6,274.0 310.5,274.0 313.4,274.0 316.3,274.0 319.3,274.0 322.2,274.0 325.1,274.0 328.0,274.0 330.9,274.0 333.9,274.0 336.8,274.0 339.7,274.0 342.6,274.0 345.5,274.0 348.4,274.0 351.4,274.0 354.3,274.0 357.2,274.0 360.1,274.0 363.0,274.0 366.0,274.0 368.9,274.0 371.8,274.0 374.7,274.0 377.6,274.0 380.6,274.0 383.5,274.0 386.4,274.0 389.3,274.0 392.2,274.0 395.1,274.0 398.1,274.0 401.0,274.0 403.9,274.0 406.8,274.0 409.7,274.0 412.7,274.0 415.6,274.0 418.5,274.0 421.4,274.0 424.3,274.0 427.3,274.0 430.2,274.0 433.1,274.0 436.0,274.0 438.9,274.0 441.8,274.0 444.8,274.0 447.7,274.0 450.6,274.0 453.5,274.0 456.4,274.0 459.4,274.0 462.3,274.0 465.2,274.0 468.1,274.0 471.0,274.0 473.9,274.0 476.9,274.0 479.8,274.0 482.7,268.0 485.6,274.0 488.5,274.0 491.5,274.0 494.4,274.0 497.3,274.0 500.2,274.0 503.1,274.0 506.1,274.0 509.0,274.0 511.9,274.0 514.8,268.0 517.7,274.0 520.6,274.0 523.6,274.0 526.5,274.0 529.4,274.0 532.3,274.0 535.2,274.0 538.2,274.0 541.1,274.0 544.0,274.0 546.9,268.0 549.8,274.0 552.7,274.0 555.7,274.0 558.6,274.0 561.5,274.0 564.4,274.0 567.3,274.0 570.3,274.0 573.2,274.0 576.1,274.0 579.0,274.0 581.9,274.0 584.9,274.0 587.8,250.0 590.7,274.0 593.6,274.0 596.5,274.0 599.4,274.0 602.4,274.0 605.3,274.0 608.2,274.0 611.1,274.0 614.0,274.0 617.0,274.0 619.9,274.0 622.8,274.0 625.7,274.0 628.6,274.0 631.6,274.0 634.5,274.0 637.4,274.0 640.3,268.0 643.2,274.0 646.1,280.0 649.1,286.0 652.0,286.0 654.9,286.0 657.8,286.0 660.7,286.0 663.7,280.0 666.6,280.0 669.5,286.0 672.4,286.0 675.3,280.0 678.2,286.0 681.2,286.0 684.1,286.0 687.0,286.0 689.9,286.0 692.8,280.0 695.8,286.0 698.7,286.0 701.6,286.0 704.5,286.0 707.4,286.0 710.4,286.0 713.3,286.0 716.2,286.0 719.1,286.0 722.0,286.0 724.9,280.0 727.9,280.0 730.8,286.0 733.7,280.0 736.6,286.0 739.5,286.0 742.5,286.0 745.4,286.0 748.3,286.0 751.2,286.0 754.1,286.0 757.0,286.0 760.0,286.0 762.9,286.0 765.8,286.0 768.7,286.0 771.6,286.0 774.6,286.0 777.5,286.0 780.4,280.0 783.3,286.0 786.2,280.0 789.2,286.0 792.1,286.0 795.0,286.0 797.9,286.0 800.8,286.0 803.7,286.0 806.7,286.0 809.6,286.0 812.5,286.0 815.4,286.0 818.3,286.0 821.3,286.0 824.2,286.0 827.1,286.0 830.0,280.0 832.9,286.0 835.9,286.0 838.8,286.0 841.7,286.0 844.6,286.0 847.5,286.0 850.4,286.0 853.4,286.0 856.3,286.0 859.2,286.0 862.1,286.0 865.0,286.0 868.0,286.0 870.9,286.0 873.8,286.0 876.7,286.0 879.6,286.0 882.5,286.0 885.5,286.0 888.4,286.0 891.3,286.0 894.2,286.0 897.1,286.0 900.1,286.0 903.0,286.0 905.9,286.0 908.8,286.0 911.7,280.0 914.7,280.0 917.6,286.0 920.5,286.0 923.4,286.0 926.3,286.0 929.2,286.0 932.2,274.0 935.1,286.0 938.0,286.0"/><polyline fill="none" stroke="#a855f7" stroke-width="2.5" stroke-linejoin="round" stroke-linecap="round" points="42.0,286.0 44.9,286.0 47.8,286.0 50.8,286.0 53.7,286.0 56.6,286.0 59.5,286.0 62.4,286.0 65.3,286.0 68.3,286.0 71.2,286.0 74.1,286.0 77.0,286.0 79.9,286.0 82.9,286.0 85.8,286.0 88.7,286.0 91.6,286.0 94.5,286.0 97.5,286.0 100.4,286.0 103.3,286.0 106.2,286.0 109.1,286.0 112.0,286.0 115.0,286.0 117.9,286.0 120.8,286.0 123.7,286.0 126.6,286.0 129.6,286.0 132.5,286.0 135.4,286.0 138.3,286.0 141.2,286.0 144.1,286.0 147.1,286.0 150.0,286.0 152.9,286.0 155.8,286.0 158.7,286.0 161.7,286.0 164.6,286.0 167.5,286.0 170.4,286.0 173.3,286.0 176.3,286.0 179.2,286.0 182.1,286.0 185.0,286.0 187.9,286.0 190.8,286.0 193.8,286.0 196.7,286.0 199.6,286.0 202.5,286.0 205.4,286.0 208.4,286.0 211.3,286.0 214.2,286.0 217.1,286.0 220.0,286.0 223.0,286.0 225.9,286.0 228.8,286.0 231.7,286.0 234.6,286.0 237.5,286.0 240.5,286.0 243.4,286.0 246.3,280.0 249.2,286.0 252.1,286.0 255.1,286.0 258.0,286.0 260.9,286.0 263.8,286.0 266.7,286.0 269.6,286.0 272.6,286.0 275.5,286.0 278.4,286.0 281.3,286.0 284.2,286.0 287.2,286.0 290.1,286.0 293.0,286.0 295.9,286.0 298.8,286.0 301.8,286.0 304.7,286.0 307.6,286.0 310.5,286.0 313.4,286.0 316.3,286.0 319.3,286.0 322.2,286.0 325.1,286.0 328.0,286.0 330.9,286.0 333.9,286.0 336.8,286.0 339.7,286.0 342.6,286.0 345.5,286.0 348.4,286.0 351.4,286.0 354.3,286.0 357.2,286.0 360.1,286.0 363.0,286.0 366.0,286.0 368.9,286.0 371.8,286.0 374.7,286.0 377.6,286.0 380.6,286.0 383.5,286.0 386.4,286.0 389.3,286.0 392.2,286.0 395.1,286.0 398.1,286.0 401.0,286.0 403.9,286.0 406.8,286.0 409.7,286.0 412.7,286.0 415.6,286.0 418.5,286.0 421.4,286.0 424.3,286.0 427.3,286.0 430.2,286.0 433.1,286.0 436.0,286.0 438.9,286.0 441.8,286.0 444.8,286.0 447.7,286.0 450.6,286.0 453.5,286.0 456.4,286.0 459.4,286.0 462.3,286.0 465.2,286.0 468.1,286.0 471.0,286.0 473.9,286.0 476.9,286.0 479.8,286.0 482.7,286.0 485.6,286.0 488.5,286.0 491.5,286.0 494.4,286.0 497.3,286.0 500.2,280.0 503.1,286.0 506.1,286.0 509.0,286.0 511.9,286.0 514.8,286.0 517.7,286.0 520.6,286.0 523.6,286.0 526.5,286.0 529.4,286.0 532.3,286.0 535.2,286.0 538.2,286.0 541.1,286.0 544.0,286.0 546.9,286.0 549.8,286.0 552.7,286.0 555.7,286.0 558.6,286.0 561.5,286.0 564.4,286.0 567.3,286.0 570.3,286.0 573.2,286.0 576.1,286.0 579.0,286.0 581.9,286.0 584.9,286.0 587.8,286.0 590.7,286.0 593.6,286.0 596.5,286.0 599.4,286.0 602.4,286.0 605.3,286.0 608.2,286.0 611.1,286.0 614.0,286.0 617.0,286.0 619.9,286.0 622.8,286.0 625.7,286.0 628.6,286.0 631.6,286.0 634.5,286.0 637.4,286.0 640.3,286.0 643.2,286.0 646.1,286.0 649.1,286.0 652.0,286.0 654.9,286.0 657.8,286.0 660.7,286.0 663.7,286.0 666.6,286.0 669.5,280.0 672.4,286.0 675.3,286.0 678.2,286.0 681.2,286.0 684.1,286.0 687.0,286.0 689.9,286.0 692.8,286.0 695.8,286.0 698.7,280.0 701.6,286.0 704.5,286.0 707.4,286.0 710.4,286.0 713.3,286.0 716.2,286.0 719.1,286.0 722.0,286.0 724.9,286.0 727.9,286.0 730.8,286.0 733.7,286.0 736.6,286.0 739.5,286.0 742.5,286.0 745.4,286.0 748.3,286.0 751.2,286.0 754.1,286.0 757.0,286.0 760.0,286.0 762.9,286.0 765.8,286.0 768.7,286.0 771.6,286.0 774.6,286.0 777.5,286.0 780.4,286.0 783.3,280.0 786.2,286.0 789.2,286.0 792.1,286.0 795.0,286.0 797.9,286.0 800.8,286.0 803.7,280.0 806.7,286.0 809.6,286.0 812.5,286.0 815.4,286.0 818.3,286.0 821.3,286.0 824.2,286.0 827.1,286.0 830.0,286.0 832.9,286.0 835.9,286.0 838.8,286.0 841.7,286.0 844.6,286.0 847.5,286.0 850.4,286.0 853.4,280.0 856.3,286.0 859.2,286.0 862.1,286.0 865.0,286.0 868.0,286.0 870.9,286.0 873.8,286.0 876.7,286.0 879.6,286.0 882.5,286.0 885.5,286.0 888.4,286.0 891.3,286.0 894.2,286.0 897.1,286.0 900.1,286.0 903.0,286.0 905.9,286.0 908.8,286.0 911.7,286.0 914.7,286.0 917.6,286.0 920.5,286.0 923.4,286.0 926.3,286.0 929.2,286.0 932.2,286.0 935.1,286.0 938.0,286.0"/><text x="42" y="308" font-size="11" fill="#9fb0d4">19/06 12:43</text><text x="938" y="308" text-anchor="end" font-size="11" fill="#9fb0d4">06/07 17:31</text></svg>