<svg xmlns="http://www.w3.org/2000/svg" viewBox="0 0 960 320" width="960" height="320" font-family="Segoe UI, system-ui, -apple-system, Roboto, Helvetica, Arial, sans-serif" role="img" aria-label="Availability history per region"><rect x="0.5" y="0.5" width="959" height="319" rx="14" fill="#ffffff" stroke="#dce3f1"/><text x="42" y="26" font-size="14" font-weight="600" fill="#14203a">History · 39 points</text><circle cx="47" cy="40" r="5" fill="#22c55e"/><text x="57" y="44" font-size="12" fill="#5a688a">Available</text><circle cx="139.8" cy="40" r="5" fill="#f59e0b"/><text x="149.8" y="44" font-size="12" fill="#5a688a">Saturated</text><circle cx="232.60000000000002" cy="40" r="5" fill="#ef4444"/><text x="242.60000000000002" y="44" font-size="12" fill="#5a688a">Error</text><line x1="42" y1="286.0" x2="938" y2="286.0" stroke="#eef2f7" stroke-width="1"/><text x="35" y="289.0" text-anchor="end" font-size="11" fill="#5a688a">0</text><line x1="42" y1="227.5" x2="938" y2="227.5" stroke="#eef2f7" stroke-width="1"/><text x="35" y="230.5" text-anchor="end" font-size="11" fill="#5a688a">10</text><line x1="42" y1="169.0" x2="938" y2="169.0" stroke="#eef2f7" stroke-width="1"/><text x="35" y="172.0" text-anchor="end" font-size="11" fill="#5a688a">20</text><line x1="42" y1="110.5" x2="938" y2="110.5" stroke="#eef2f7" stroke-width="1"/><text x="35" y="113.5" text-anchor="end" font-size="11" fill="#5a688a">29</text><line x1="42" y1="52.0" x2="938" y2="52.0" stroke="#eef2f7" stroke-width="1"/><text x="35" y="55.0" text-anchor="end" font-size="11" fill="#5a688a">39</text><polyline fill="none" stroke="#22c55e" stroke-width="2.5" stroke-linejoin="round" stroke-linecap="round" points="42.0,70.0 65.6,70.0 89.2,88.0 112.7,88.0 136.3,76.0 159.9,76.0 183.5,76.0 207.1,70.0 230.6,76.0 254.2,70.0 277.8,64.0 301.4,58.0 324.9,58.0 348.5,58.0 372.1,58.0 395.7,58.0 419.3,58.0 442.8,58.0 466.4,58.0 490.0,58.0 513.6,58.0 537.2,58.0 560.7,58.0 584.3,58.0 607.9,58.0 631.5,58.0 655.1,58.0 678.6,58.0 702.2,58.0 725.8,58.0 749.4,58.0 772.9,70.0 796.5,76.0 820.1,94.0 843.7,64.0 867.3,64.0 890.8,58.0 914.4,58.0 938.0,58.0"/><circle cx="42.0" cy="70.0" r="2.5" fill="#22c55e"/><circle cx="65.6" cy="70.0" r="2.5" fill="#22c55e"/><circle cx="89.2" cy="88.0" r="2.5" fill="#22c55e"/><circle cx="112.7" cy="88.0" r="2.5" fill="#22c55e"/><circle cx="136.3" cy="76.0" r="2.5" fill="#22c55e"/><circle cx="159.9" cy="76.0" r="2.5" fill="#22c55e"/><circle cx="183.5" cy="76.0" r="2.5" fill="#22c55e"/><circle cx="207.1" cy="70.0" r="2.5" fill="#22c55e"/><circle cx="230.6" cy="76.0" r="2.5" fill="#22c55e"/><circle cx="254.2" cy="70.0" r="2.5" fill="#22c55e"/><circle cx="277.8" cy="64.0" r="2.5" fill="#22c55e"/><circle cx="301.4" cy="58.0" r="2.5" fill="#22c55e"/><circle cx="324.9" cy="58.0" r="2.5" fill="#22c55e"/><circle cx="348.5" cy="58.0" r="2.5" fill="#22c55e"/><circle cx="372.1" cy="58.0" r="2.5" fill="#22c55e"/><circle cx="395.7" cy="58.0" r="2.5" fill="#22c55e"/><circle cx="419.3" cy="58.0" r="2.5" fill="#22c55e"/><circle cx="442.8" cy="58.0" r="2.5" fill="#22c55e"/><circle cx="466.4" cy="58.0" r="2.5" fill="#22c55e"/><circle cx="490.0" cy="58.0" r="2.5" fill="#22c55e"/><circle cx="513.6" cy="58.0" r="2.5" fill="#22c55e"/><circle cx="537.2" cy="58.0" r="2.5" fill="#22c55e"/><circle cx="560.7" cy="58.0" r="2.5" fill="#22c55e"/><circle cx="584.3" cy="58.0" r="2.5" fill="#22c55e"/><circle cx="607.9" cy="58.0" r="2.5" fill="#22c55e"/><circle cx="631.5" cy="58.0" r="2.5" fill="#22c55e"/><circle cx="655.1" cy="58.0" r="2.5" fill="#22c55e"/><circle cx="678.6" cy="58.0" r="2.5" fill="#22c55e"/><circle cx="702.2" cy="58.0" r="2.5" fill="#22c55e"/><circle cx="725.8" cy="58.0" r="2.5" fill="#22c55e"/><circle cx="749.4" cy="58.0" r="2.5" fill="#22c55e"/><circle cx="772.9" cy="70.0" r="2.5" fill="#22c55e"/><circle cx="796.5" cy="76.0" r="2.5" fill="#22c55e"/><circle cx="820.1" cy="94.0" r="2.5" fill="#22c55e"/><circle cx="843.7" cy="64.0" r="2.5" fill="#22c55e"/><circle cx="867.3" cy="64.0" r="2.5" fill="#22c55e"/><circle cx="890.8" cy="58.0" r="2.5" fill="#22c55e"/><circle cx="914.4" cy="58.0" r="2.5" fill="#22c55e"/><circle cx="938.0" cy="58.0" r="2.5" fill="#22c55e"/><polyline fill="none" stroke="#f59e0b" stroke-width="2.5" stroke-linejoin="round" stroke-linecap="round" points="42.0,274.0 65.6,274.0 89.2,274.0 112.7,280.0 136.3,268.0 159.9,268.0 183.5,268.0 207.1,274.0 230.6,274.0 254.2,274.0 277.8,280.0 301.4,286.0 324.9,286.0 348.5,286.0 372.1,286.0 395.7,286.0 419.3,286.0 442.8,286.0 466.4,286.0 490.0,286.0 513.6,286.0 537.2,286.0 560.7,286.0 584.3,286.0 607.9,286.0 631.5,286.0 655.1,286.0 678.6,286.0 702.2,286.0 725.8,286.0 749.4,286.0 772.9,274.0 796.5,280.0 820.1,280.0 843.7,280.0 867.3,280.0 890.8,286.0 914.4,286.0 938.0,286.0"/><circle cx="42.0" cy="274.0" r="2.5" fill="#f59e0b"/><circle cx="65.6" cy="274.0" r="2.5" fill="#f59e0b"/><circle cx="89.2" cy="274.0" r="2.5" fill="#f59e0b"/><circle cx="112.7" cy="280.0" r="2.5" fill="#f59e0b"/><circle cx="136.3" cy="268.0" r="2.5" fill="#f59e0b"/><circle cx="159.9" cy="268.0" r="2.5" fill="#f59e0b"/><circle cx="183.5" cy="268.0" r="2.5" fill="#f59e0b"/><circle cx="207.1" cy="274.0" r="2.5" fill="#f59e0b"/><circle cx="230.6" cy="274.0" r="2.5" fill="#f59e0b"/><circle cx="254.2" cy="274.0" r="2.5" fill="#f59e0b"/><circle cx="277.8" cy="280.0" r="2.5" fill="#f59e0b"/><circle cx="301.4" cy="286.0" r="2.5" fill="#f59e0b"/><circle cx="324.9" cy="286.0" r="2.5" fill="#f59e0b"/><circle cx="348.5" cy="286.0" r="2.5" fill="#f59e0b"/><circle cx="372.1" cy="286.0" r="2.5" fill="#f59e0b"/><circle cx="395.7" cy="286.0" r="2.5" fill="#f59e0b"/><circle cx="419.3" cy="286.0" r="2.5" fill="#f59e0b"/><circle cx="442.8" cy="286.0" r="2.5" fill="#f59e0b"/><circle cx="466.4" cy="286.0" r="2.5" fill="#f59e0b"/><circle cx="490.0" cy="286.0" r="2.5" fill="#f59e0b"/><circle cx="513.6" cy="286.0" r="2.5" fill="#f59e0b"/><circle cx="537.2" cy="286.0" r="2.5" fill="#f59e0b"/><circle cx="560.7" cy="286.0" r="2.5" fill="#f59e0b"/><circle cx="584.3" cy="286.0" r="2.5" fill="#f59e0b"/><circle cx="607.9" cy="286.0" r="2.5" fill="#f59e0b"/><circle cx="631.5" cy="286.0" r="2.5" fill="#f59e0b"/><circle cx="655.1" cy="286.0" r="2.5" fill="#f59e0b"/><circle cx="678.6" cy="286.0" r="2.5" fill="#f59e0b"/><circle cx="702.2" cy="286.0" r="2.5" fill="#f59e0b"/><circle cx="725.8" cy="286.0" r="2.5" fill="#f59e0b"/><circle cx="749.4" cy="286.0" r="2.5" fill="#f59e0b"/><circle cx="772.9" cy="274.0" r="2.5" fill="#f59e0b"/><circle cx="796.5" cy="280.0" r="2.5" fill="#f59e0b"/><circle cx="820.1" cy="280.0" r="2.5" fill="#f59e0b"/><circle cx="843.7" cy="280.0" r="2.5" fill="#f59e0b"/><circle cx="867.3" cy="280.0" r="2.5" fill="#f59e0b"/><circle cx="890.8" cy="286.0" r="2.5" fill="#f59e0b"/><circle cx="914.4" cy="286.0" r="2.5" fill="#f59e0b"/><circle cx="938.0" cy="286.0" r="2.5" fill="#f59e0b"/><polyline fill="none" stroke="#ef4444" stroke-width="2.5" stroke-linejoin="round" stroke-linecap="round" points="42.0,280.0 65.6,280.0 89.2,268.0 112.7,262.0 136.3,286.0 159.9,286.0 183.5,286.0 207.1,286.0 230.6,280.0 254.2,286.0 277.8,286.0 301.4,286.0 324.9,286.0 348.5,286.0 372.1,286.0 395.7,286.0 419.3,286.0 442.8,286.0 466.4,286.0 490.0,286.0 513.6,286.0 537.2,286.0 560.7,286.0 584.3,286.0 607.9,286.0 631.5,286.0 655.1,286.0 678.6,286.0 702.2,286.0 725.8,286.0 749.4,286.0 772.9,286.0 796.5,274.0 820.1,256.0 843.7,286.0 867.3,286.0 890.8,286.0 914.4,286.0 938.0,286.0"/><circle cx="42.0" cy="280.0" r="2.5" fill="#ef4444"/><circle cx="65.6" cy="280.0" r="2.5" fill="#ef4444"/><circle cx="89.2" cy="268.0" r="2.5" fill="#ef4444"/><circle cx="112.7" cy="262.0" r="2.5" fill="#ef4444"/><circle cx="136.3" cy="286.0" r="2.5" fill="#ef4444"/><circle cx="159.9" cy="286.0" r="2.5" fill="#ef4444"/><circle cx="183.5" cy="286.0" r="2.5" fill="#ef4444"/><circle cx="207.1" cy="286.0" r="2.5" fill="#ef4444"/><circle cx="230.6" cy="280.0" r="2.5" fill="#ef4444"/><circle cx="254.2" cy="286.0" r="2.5" fill="#ef4444"/><circle cx="277.8" cy="286.0" r="2.5" fill="#ef4444"/><circle cx="301.4" cy="286.0" r="2.5" fill="#ef4444"/><circle cx="324.9" cy="286.0" r="2.5" fill="#ef4444"/><circle cx="348.5" cy="286.0" r="2.5" fill="#ef4444"/><circle cx="372.1" cy="286.0" r="2.5" fill="#ef4444"/><circle cx="395.7" cy="286.0" r="2.5" fill="#ef4444"/><circle cx="419.3" cy="286.0" r="2.5" fill="#ef4444"/><circle cx="442.8" cy="286.0" r="2.5" fill="#ef4444"/><circle cx="466.4" cy="286.0" r="2.5" fill="#ef4444"/><circle cx="490.0" cy="286.0" r="2.5" fill="#ef4444"/><circle cx="513.6" cy="286.0" r="2.5" fill="#ef4444"/><circle cx="537.2" cy="286.0" r="2.5" fill="#ef4444"/><circle cx="560.7" cy="286.0" r="2.5" fill="#ef4444"/><circle cx="584.3" cy="286.0" r="2.5" fill="#ef4444"/><circle cx="607.9" cy="286.0" r="2.5" fill="#ef4444"/><circle cx="631.5" cy="286.0" r="2.5" fill="#ef4444"/><circle cx="655.1" cy="286.0" r="2.5" fill="#ef4444"/><circle cx="678.6" cy="286.0" r="2.5" fill="#ef4444"/><circle cx="702.2" cy="286.0" r="2.5" fill="#ef4444"/><circle cx="725.8" cy="286.0" r="2.5" fill="#ef4444"/><circle cx="749.4" cy="286.0" r="2.5" fill="#ef4444"/><circle cx="772.9" cy="286.0" r="2.5" fill="#ef4444"/><circle cx="796.5" cy="274.0" r="2.5" fill="#ef4444"/><circle cx="820.1" cy="256.0" r="2.5" fill="#ef4444"/><circle cx="843.7" cy="286.0" r="2.5" fill="#ef4444"/><circle cx="867.3" cy="286.0" r="2.5" fill="#ef4444"/><circle cx="890.8" cy="286.0" r="2.5" fill="#ef4444"/><circle cx="914.4" cy="286.0" r="2.5" fill="#ef4444"/><circle cx="938.0" cy="286.0" r="2.5" fill="#ef4444"/><text x="42" y="308" font-size="11" fill="#5a688a">19/06 12:43</text><text x="938" y="308" text-anchor="end" font-size="11" fill="#5a688a">23/06 04:56</text></svg>