<svg xmlns="http://www.w3.org/2000/svg" viewBox="0 0 960 320" width="960" height="320" font-family="Segoe UI, system-ui, -apple-system, Roboto, Helvetica, Arial, sans-serif" role="img" aria-label="Availability history per region"><rect x="0.5" y="0.5" width="959" height="319" rx="14" fill="#ffffff" stroke="#dce3f1"/><text x="42" y="26" font-size="14" font-weight="600" fill="#14203a">History · 176 points</text><circle cx="47" cy="40" r="5" fill="#22c55e"/><text x="57" y="44" font-size="12" fill="#5a688a">Available</text><circle cx="139.8" cy="40" r="5" fill="#f59e0b"/><text x="149.8" y="44" font-size="12" fill="#5a688a">Saturated</text><circle cx="232.60000000000002" cy="40" r="5" fill="#ef4444"/><text x="242.60000000000002" y="44" font-size="12" fill="#5a688a">Error</text><circle cx="296.6" cy="40" r="5" fill="#a855f7"/><text x="306.6" y="44" font-size="12" fill="#5a688a">Timeout</text><line x1="42" y1="286.0" x2="938" y2="286.0" stroke="#eef2f7" stroke-width="1"/><text x="35" y="289.0" text-anchor="end" font-size="11" fill="#5a688a">0</text><line x1="42" y1="227.5" x2="938" y2="227.5" stroke="#eef2f7" stroke-width="1"/><text x="35" y="230.5" text-anchor="end" font-size="11" fill="#5a688a">10</text><line x1="42" y1="169.0" x2="938" y2="169.0" stroke="#eef2f7" stroke-width="1"/><text x="35" y="172.0" text-anchor="end" font-size="11" fill="#5a688a">20</text><line x1="42" y1="110.5" x2="938" y2="110.5" stroke="#eef2f7" stroke-width="1"/><text x="35" y="113.5" text-anchor="end" font-size="11" fill="#5a688a">29</text><line x1="42" y1="52.0" x2="938" y2="52.0" stroke="#eef2f7" stroke-width="1"/><text x="35" y="55.0" text-anchor="end" font-size="11" fill="#5a688a">39</text><polyline fill="none" stroke="#22c55e" stroke-width="2.5" stroke-linejoin="round" stroke-linecap="round" points="42.0,70.0 47.1,70.0 52.2,88.0 57.4,88.0 62.5,76.0 67.6,76.0 72.7,76.0 77.8,70.0 83.0,76.0 88.1,70.0 93.2,64.0 98.3,58.0 103.4,58.0 108.6,58.0 113.7,58.0 118.8,58.0 123.9,58.0 129.0,58.0 134.2,58.0 139.3,58.0 144.4,58.0 149.5,58.0 154.6,58.0 159.8,58.0 164.9,58.0 170.0,58.0 175.1,58.0 180.2,58.0 185.4,58.0 190.5,58.0 195.6,58.0 200.7,70.0 205.8,76.0 211.0,94.0 216.1,64.0 221.2,64.0 226.3,58.0 231.4,58.0 236.6,58.0 241.7,70.0 246.8,76.0 251.9,76.0 257.0,82.0 262.2,82.0 267.3,82.0 272.4,82.0 277.5,76.0 282.6,64.0 287.8,70.0 292.9,70.0 298.0,82.0 303.1,76.0 308.2,76.0 313.4,82.0 318.5,76.0 323.6,76.0 328.7,76.0 333.8,64.0 339.0,64.0 344.1,76.0 349.2,76.0 354.3,76.0 359.4,88.0 364.6,70.0 369.7,64.0 374.8,58.0 379.9,58.0 385.0,70.0 390.2,70.0 395.3,70.0 400.4,76.0 405.5,70.0 410.6,70.0 415.8,70.0 420.9,70.0 426.0,76.0 431.1,82.0 436.2,76.0 441.4,70.0 446.5,70.0 451.6,70.0 456.7,70.0 461.8,76.0 467.0,70.0 472.1,70.0 477.2,70.0 482.3,70.0 487.4,70.0 492.6,70.0 497.7,70.0 502.8,70.0 507.9,70.0 513.0,70.0 518.2,70.0 523.3,70.0 528.4,70.0 533.5,70.0 538.6,70.0 543.8,70.0 548.9,70.0 554.0,70.0 559.1,70.0 564.2,70.0 569.4,70.0 574.5,70.0 579.6,70.0 584.7,70.0 589.8,70.0 595.0,70.0 600.1,70.0 605.2,70.0 610.3,70.0 615.4,70.0 620.6,70.0 625.7,70.0 630.8,70.0 635.9,70.0 641.0,70.0 646.2,70.0 651.3,70.0 656.4,70.0 661.5,70.0 666.6,70.0 671.8,70.0 676.9,70.0 682.0,70.0 687.1,70.0 692.2,70.0 697.4,70.0 702.5,70.0 707.6,70.0 712.7,70.0 717.8,70.0 723.0,70.0 728.1,70.0 733.2,70.0 738.3,70.0 743.4,70.0 748.6,70.0 753.7,70.0 758.8,70.0 763.9,70.0 769.0,70.0 774.2,70.0 779.3,70.0 784.4,70.0 789.5,70.0 794.6,70.0 799.8,70.0 804.9,70.0 810.0,70.0 815.1,76.0 820.2,70.0 825.4,70.0 830.5,70.0 835.6,70.0 840.7,70.0 845.8,76.0 851.0,76.0 856.1,88.0 861.2,88.0 866.3,88.0 871.4,94.0 876.6,94.0 881.7,94.0 886.8,94.0 891.9,88.0 897.0,88.0 902.2,82.0 907.3,82.0 912.4,82.0 917.5,88.0 922.6,88.0 927.8,94.0 932.9,82.0 938.0,82.0"/><polyline fill="none" stroke="#f59e0b" stroke-width="2.5" stroke-linejoin="round" stroke-linecap="round" points="42.0,274.0 47.1,274.0 52.2,274.0 57.4,280.0 62.5,268.0 67.6,268.0 72.7,268.0 77.8,274.0 83.0,274.0 88.1,274.0 93.2,280.0 98.3,286.0 103.4,286.0 108.6,286.0 113.7,286.0 118.8,286.0 123.9,286.0 129.0,286.0 134.2,286.0 139.3,286.0 144.4,286.0 149.5,286.0 154.6,286.0 159.8,286.0 164.9,286.0 170.0,286.0 175.1,286.0 180.2,286.0 185.4,286.0 190.5,286.0 195.6,286.0 200.7,274.0 205.8,280.0 211.0,280.0 216.1,280.0 221.2,280.0 226.3,286.0 231.4,286.0 236.6,286.0 241.7,274.0 246.8,268.0 251.9,268.0 257.0,262.0 262.2,262.0 267.3,262.0 272.4,262.0 277.5,268.0 282.6,280.0 287.8,280.0 292.9,274.0 298.0,262.0 303.1,268.0 308.2,268.0 313.4,262.0 318.5,268.0 323.6,268.0 328.7,268.0 333.8,280.0 339.0,280.0 344.1,268.0 349.2,268.0 354.3,268.0 359.4,262.0 364.6,274.0 369.7,280.0 374.8,286.0 379.9,286.0 385.0,274.0 390.2,274.0 395.3,274.0 400.4,274.0 405.5,274.0 410.6,274.0 415.8,274.0 420.9,274.0 426.0,280.0 431.1,274.0 436.2,280.0 441.4,286.0 446.5,286.0 451.6,286.0 456.7,286.0 461.8,280.0 467.0,286.0 472.1,286.0 477.2,286.0 482.3,286.0 487.4,286.0 492.6,286.0 497.7,286.0 502.8,286.0 507.9,286.0 513.0,286.0 518.2,286.0 523.3,286.0 528.4,286.0 533.5,286.0 538.6,286.0 543.8,286.0 548.9,286.0 554.0,286.0 559.1,286.0 564.2,286.0 569.4,286.0 574.5,286.0 579.6,286.0 584.7,286.0 589.8,286.0 595.0,286.0 600.1,286.0 605.2,286.0 610.3,286.0 615.4,286.0 620.6,286.0 625.7,286.0 630.8,286.0 635.9,286.0 641.0,286.0 646.2,286.0 651.3,286.0 656.4,286.0 661.5,286.0 666.6,286.0 671.8,286.0 676.9,286.0 682.0,286.0 687.1,286.0 692.2,286.0 697.4,286.0 702.5,286.0 707.6,286.0 712.7,286.0 717.8,286.0 723.0,286.0 728.1,286.0 733.2,286.0 738.3,286.0 743.4,286.0 748.6,286.0 753.7,286.0 758.8,286.0 763.9,286.0 769.0,286.0 774.2,286.0 779.3,286.0 784.4,286.0 789.5,286.0 794.6,286.0 799.8,286.0 804.9,286.0 810.0,286.0 815.1,286.0 820.2,286.0 825.4,286.0 830.5,286.0 835.6,286.0 840.7,286.0 845.8,286.0 851.0,280.0 856.1,268.0 861.2,268.0 866.3,268.0 871.4,268.0 876.6,262.0 881.7,262.0 886.8,262.0 891.9,268.0 897.0,268.0 902.2,274.0 907.3,274.0 912.4,274.0 917.5,268.0 922.6,268.0 927.8,268.0 932.9,274.0 938.0,274.0"/><polyline fill="none" stroke="#ef4444" stroke-width="2.5" stroke-linejoin="round" stroke-linecap="round" points="42.0,280.0 47.1,280.0 52.2,268.0 57.4,262.0 62.5,286.0 67.6,286.0 72.7,286.0 77.8,286.0 83.0,280.0 88.1,286.0 93.2,286.0 98.3,286.0 103.4,286.0 108.6,286.0 113.7,286.0 118.8,286.0 123.9,286.0 129.0,286.0 134.2,286.0 139.3,286.0 144.4,286.0 149.5,286.0 154.6,286.0 159.8,286.0 164.9,286.0 170.0,286.0 175.1,286.0 180.2,286.0 185.4,286.0 190.5,286.0 195.6,286.0 200.7,286.0 205.8,274.0 211.0,256.0 216.1,286.0 221.2,286.0 226.3,286.0 231.4,286.0 236.6,286.0 241.7,286.0 246.8,286.0 251.9,286.0 257.0,286.0 262.2,286.0 267.3,286.0 272.4,286.0 277.5,286.0 282.6,286.0 287.8,280.0 292.9,286.0 298.0,286.0 303.1,286.0 308.2,286.0 313.4,286.0 318.5,286.0 323.6,286.0 328.7,286.0 333.8,286.0 339.0,286.0 344.1,286.0 349.2,286.0 354.3,286.0 359.4,280.0 364.6,286.0 369.7,286.0 374.8,286.0 379.9,286.0 385.0,286.0 390.2,286.0 395.3,286.0 400.4,286.0 405.5,286.0 410.6,286.0 415.8,286.0 420.9,286.0 426.0,274.0 431.1,274.0 436.2,274.0 441.4,274.0 446.5,274.0 451.6,274.0 456.7,274.0 461.8,274.0 467.0,274.0 472.1,274.0 477.2,274.0 482.3,274.0 487.4,274.0 492.6,274.0 497.7,274.0 502.8,274.0 507.9,274.0 513.0,274.0 518.2,274.0 523.3,274.0 528.4,274.0 533.5,274.0 538.6,274.0 543.8,274.0 548.9,274.0 554.0,274.0 559.1,274.0 564.2,274.0 569.4,274.0 574.5,274.0 579.6,274.0 584.7,274.0 589.8,274.0 595.0,274.0 600.1,274.0 605.2,274.0 610.3,274.0 615.4,274.0 620.6,274.0 625.7,274.0 630.8,274.0 635.9,274.0 641.0,274.0 646.2,274.0 651.3,274.0 656.4,274.0 661.5,274.0 666.6,274.0 671.8,274.0 676.9,274.0 682.0,274.0 687.1,274.0 692.2,274.0 697.4,274.0 702.5,274.0 707.6,274.0 712.7,274.0 717.8,274.0 723.0,274.0 728.1,274.0 733.2,274.0 738.3,274.0 743.4,274.0 748.6,274.0 753.7,274.0 758.8,274.0 763.9,274.0 769.0,274.0 774.2,274.0 779.3,274.0 784.4,274.0 789.5,274.0 794.6,274.0 799.8,274.0 804.9,274.0 810.0,274.0 815.1,268.0 820.2,274.0 825.4,274.0 830.5,274.0 835.6,274.0 840.7,274.0 845.8,274.0 851.0,274.0 856.1,274.0 861.2,274.0 866.3,274.0 871.4,268.0 876.6,274.0 881.7,274.0 886.8,274.0 891.9,274.0 897.0,274.0 902.2,274.0 907.3,274.0 912.4,274.0 917.5,274.0 922.6,274.0 927.8,268.0 932.9,274.0 938.0,274.0"/><polyline fill="none" stroke="#a855f7" stroke-width="2.5" stroke-linejoin="round" stroke-linecap="round" points="42.0,286.0 47.1,286.0 52.2,286.0 57.4,286.0 62.5,286.0 67.6,286.0 72.7,286.0 77.8,286.0 83.0,286.0 88.1,286.0 93.2,286.0 98.3,286.0 103.4,286.0 108.6,286.0 113.7,286.0 118.8,286.0 123.9,286.0 129.0,286.0 134.2,286.0 139.3,286.0 144.4,286.0 149.5,286.0 154.6,286.0 159.8,286.0 164.9,286.0 170.0,286.0 175.1,286.0 180.2,286.0 185.4,286.0 190.5,286.0 195.6,286.0 200.7,286.0 205.8,286.0 211.0,286.0 216.1,286.0 221.2,286.0 226.3,286.0 231.4,286.0 236.6,286.0 241.7,286.0 246.8,286.0 251.9,286.0 257.0,286.0 262.2,286.0 267.3,286.0 272.4,286.0 277.5,286.0 282.6,286.0 287.8,286.0 292.9,286.0 298.0,286.0 303.1,286.0 308.2,286.0 313.4,286.0 318.5,286.0 323.6,286.0 328.7,286.0 333.8,286.0 339.0,286.0 344.1,286.0 349.2,286.0 354.3,286.0 359.4,286.0 364.6,286.0 369.7,286.0 374.8,286.0 379.9,286.0 385.0,286.0 390.2,286.0 395.3,286.0 400.4,280.0 405.5,286.0 410.6,286.0 415.8,286.0 420.9,286.0 426.0,286.0 431.1,286.0 436.2,286.0 441.4,286.0 446.5,286.0 451.6,286.0 456.7,286.0 461.8,286.0 467.0,286.0 472.1,286.0 477.2,286.0 482.3,286.0 487.4,286.0 492.6,286.0 497.7,286.0 502.8,286.0 507.9,286.0 513.0,286.0 518.2,286.0 523.3,286.0 528.4,286.0 533.5,286.0 538.6,286.0 543.8,286.0 548.9,286.0 554.0,286.0 559.1,286.0 564.2,286.0 569.4,286.0 574.5,286.0 579.6,286.0 584.7,286.0 589.8,286.0 595.0,286.0 600.1,286.0 605.2,286.0 610.3,286.0 615.4,286.0 620.6,286.0 625.7,286.0 630.8,286.0 635.9,286.0 641.0,286.0 646.2,286.0 651.3,286.0 656.4,286.0 661.5,286.0 666.6,286.0 671.8,286.0 676.9,286.0 682.0,286.0 687.1,286.0 692.2,286.0 697.4,286.0 702.5,286.0 707.6,286.0 712.7,286.0 717.8,286.0 723.0,286.0 728.1,286.0 733.2,286.0 738.3,286.0 743.4,286.0 748.6,286.0 753.7,286.0 758.8,286.0 763.9,286.0 769.0,286.0 774.2,286.0 779.3,286.0 784.4,286.0 789.5,286.0 794.6,286.0 799.8,286.0 804.9,286.0 810.0,286.0 815.1,286.0 820.2,286.0 825.4,286.0 830.5,286.0 835.6,286.0 840.7,286.0 845.8,280.0 851.0,286.0 856.1,286.0 861.2,286.0 866.3,286.0 871.4,286.0 876.6,286.0 881.7,286.0 886.8,286.0 891.9,286.0 897.0,286.0 902.2,286.0 907.3,286.0 912.4,286.0 917.5,286.0 922.6,286.0 927.8,286.0 932.9,286.0 938.0,286.0"/><text x="42" y="308" font-size="11" fill="#5a688a">19/06 12:43</text><text x="938" y="308" text-anchor="end" font-size="11" fill="#5a688a">30/06 02:30</text></svg>