<svg xmlns="http://www.w3.org/2000/svg" viewBox="0 0 960 320" width="960" height="320" font-family="Segoe UI, system-ui, -apple-system, Roboto, Helvetica, Arial, sans-serif" role="img" aria-label="Availability history per region"><rect x="0.5" y="0.5" width="959" height="319" rx="14" fill="#ffffff" stroke="#dce3f1"/><text x="42" y="26" font-size="14" font-weight="600" fill="#14203a">History · 31 points</text><circle cx="47" cy="40" r="5" fill="#22c55e"/><text x="57" y="44" font-size="12" fill="#5a688a">Available</text><circle cx="139.8" cy="40" r="5" fill="#f59e0b"/><text x="149.8" y="44" font-size="12" fill="#5a688a">Saturated</text><circle cx="232.60000000000002" cy="40" r="5" fill="#ef4444"/><text x="242.60000000000002" y="44" font-size="12" fill="#5a688a">Error</text><line x1="42" y1="286.0" x2="938" y2="286.0" stroke="#eef2f7" stroke-width="1"/><text x="35" y="289.0" text-anchor="end" font-size="11" fill="#5a688a">0</text><line x1="42" y1="227.5" x2="938" y2="227.5" stroke="#eef2f7" stroke-width="1"/><text x="35" y="230.5" text-anchor="end" font-size="11" fill="#5a688a">10</text><line x1="42" y1="169.0" x2="938" y2="169.0" stroke="#eef2f7" stroke-width="1"/><text x="35" y="172.0" text-anchor="end" font-size="11" fill="#5a688a">19</text><line x1="42" y1="110.5" x2="938" y2="110.5" stroke="#eef2f7" stroke-width="1"/><text x="35" y="113.5" text-anchor="end" font-size="11" fill="#5a688a">28</text><line x1="42" y1="52.0" x2="938" y2="52.0" stroke="#eef2f7" stroke-width="1"/><text x="35" y="55.0" text-anchor="end" font-size="11" fill="#5a688a">38</text><polyline fill="none" stroke="#22c55e" stroke-width="2.5" stroke-linejoin="round" stroke-linecap="round" points="42.0,64.3 71.9,224.4 101.7,82.8 131.6,88.9 161.5,82.8 191.3,76.6 221.2,76.6 251.1,76.6 280.9,76.6 310.8,76.6 340.7,76.6 370.5,76.6 400.4,76.6 430.3,76.6 460.1,76.6 490.0,70.5 519.9,70.5 549.7,82.8 579.6,82.8 609.5,82.8 639.3,88.9 669.2,88.9 699.1,88.9 728.9,88.9 758.8,88.9 788.7,88.9 818.5,88.9 848.4,88.9 878.3,88.9 908.1,82.8 938.0,82.8"/><circle cx="42.0" cy="64.3" r="2.5" fill="#22c55e"/><circle cx="71.9" cy="224.4" r="2.5" fill="#22c55e"/><circle cx="101.7" cy="82.8" r="2.5" fill="#22c55e"/><circle cx="131.6" cy="88.9" r="2.5" fill="#22c55e"/><circle cx="161.5" cy="82.8" r="2.5" fill="#22c55e"/><circle cx="191.3" cy="76.6" r="2.5" fill="#22c55e"/><circle cx="221.2" cy="76.6" r="2.5" fill="#22c55e"/><circle cx="251.1" cy="76.6" r="2.5" fill="#22c55e"/><circle cx="280.9" cy="76.6" r="2.5" fill="#22c55e"/><circle cx="310.8" cy="76.6" r="2.5" fill="#22c55e"/><circle cx="340.7" cy="76.6" r="2.5" fill="#22c55e"/><circle cx="370.5" cy="76.6" r="2.5" fill="#22c55e"/><circle cx="400.4" cy="76.6" r="2.5" fill="#22c55e"/><circle cx="430.3" cy="76.6" r="2.5" fill="#22c55e"/><circle cx="460.1" cy="76.6" r="2.5" fill="#22c55e"/><circle cx="490.0" cy="70.5" r="2.5" fill="#22c55e"/><circle cx="519.9" cy="70.5" r="2.5" fill="#22c55e"/><circle cx="549.7" cy="82.8" r="2.5" fill="#22c55e"/><circle cx="579.6" cy="82.8" r="2.5" fill="#22c55e"/><circle cx="609.5" cy="82.8" r="2.5" fill="#22c55e"/><circle cx="639.3" cy="88.9" r="2.5" fill="#22c55e"/><circle cx="669.2" cy="88.9" r="2.5" fill="#22c55e"/><circle cx="699.1" cy="88.9" r="2.5" fill="#22c55e"/><circle cx="728.9" cy="88.9" r="2.5" fill="#22c55e"/><circle cx="758.8" cy="88.9" r="2.5" fill="#22c55e"/><circle cx="788.7" cy="88.9" r="2.5" fill="#22c55e"/><circle cx="818.5" cy="88.9" r="2.5" fill="#22c55e"/><circle cx="848.4" cy="88.9" r="2.5" fill="#22c55e"/><circle cx="878.3" cy="88.9" r="2.5" fill="#22c55e"/><circle cx="908.1" cy="82.8" r="2.5" fill="#22c55e"/><circle cx="938.0" cy="82.8" r="2.5" fill="#22c55e"/><polyline fill="none" stroke="#f59e0b" stroke-width="2.5" stroke-linejoin="round" stroke-linecap="round" points="42.0,273.7 71.9,267.5 101.7,255.2 131.6,249.1 161.5,255.2 191.3,261.4 221.2,261.4 251.1,261.4 280.9,261.4 310.8,261.4 340.7,261.4 370.5,261.4 400.4,261.4 430.3,261.4 460.1,261.4 490.0,267.5 519.9,267.5 549.7,261.4 579.6,255.2 609.5,255.2 639.3,249.1 669.2,249.1 699.1,249.1 728.9,249.1 758.8,249.1 788.7,249.1 818.5,249.1 848.4,249.1 878.3,249.1 908.1,255.2 938.0,255.2"/><circle cx="42.0" cy="273.7" r="2.5" fill="#f59e0b"/><circle cx="71.9" cy="267.5" r="2.5" fill="#f59e0b"/><circle cx="101.7" cy="255.2" r="2.5" fill="#f59e0b"/><circle cx="131.6" cy="249.1" r="2.5" fill="#f59e0b"/><circle cx="161.5" cy="255.2" r="2.5" fill="#f59e0b"/><circle cx="191.3" cy="261.4" r="2.5" fill="#f59e0b"/><circle cx="221.2" cy="261.4" r="2.5" fill="#f59e0b"/><circle cx="251.1" cy="261.4" r="2.5" fill="#f59e0b"/><circle cx="280.9" cy="261.4" r="2.5" fill="#f59e0b"/><circle cx="310.8" cy="261.4" r="2.5" fill="#f59e0b"/><circle cx="340.7" cy="261.4" r="2.5" fill="#f59e0b"/><circle cx="370.5" cy="261.4" r="2.5" fill="#f59e0b"/><circle cx="400.4" cy="261.4" r="2.5" fill="#f59e0b"/><circle cx="430.3" cy="261.4" r="2.5" fill="#f59e0b"/><circle cx="460.1" cy="261.4" r="2.5" fill="#f59e0b"/><circle cx="490.0" cy="267.5" r="2.5" fill="#f59e0b"/><circle cx="519.9" cy="267.5" r="2.5" fill="#f59e0b"/><circle cx="549.7" cy="261.4" r="2.5" fill="#f59e0b"/><circle cx="579.6" cy="255.2" r="2.5" fill="#f59e0b"/><circle cx="609.5" cy="255.2" r="2.5" fill="#f59e0b"/><circle cx="639.3" cy="249.1" r="2.5" fill="#f59e0b"/><circle cx="669.2" cy="249.1" r="2.5" fill="#f59e0b"/><circle cx="699.1" cy="249.1" r="2.5" fill="#f59e0b"/><circle cx="728.9" cy="249.1" r="2.5" fill="#f59e0b"/><circle cx="758.8" cy="249.1" r="2.5" fill="#f59e0b"/><circle cx="788.7" cy="249.1" r="2.5" fill="#f59e0b"/><circle cx="818.5" cy="249.1" r="2.5" fill="#f59e0b"/><circle cx="848.4" cy="249.1" r="2.5" fill="#f59e0b"/><circle cx="878.3" cy="249.1" r="2.5" fill="#f59e0b"/><circle cx="908.1" cy="255.2" r="2.5" fill="#f59e0b"/><circle cx="938.0" cy="255.2" r="2.5" fill="#f59e0b"/><polyline fill="none" stroke="#ef4444" stroke-width="2.5" stroke-linejoin="round" stroke-linecap="round" points="42.0,286.0 71.9,132.1 101.7,286.0 131.6,286.0 161.5,286.0 191.3,286.0 221.2,286.0 251.1,286.0 280.9,286.0 310.8,286.0 340.7,286.0 370.5,286.0 400.4,286.0 430.3,286.0 460.1,286.0 490.0,286.0 519.9,286.0 549.7,279.8 579.6,286.0 609.5,286.0 639.3,286.0 669.2,286.0 699.1,286.0 728.9,286.0 758.8,286.0 788.7,286.0 818.5,286.0 848.4,286.0 878.3,286.0 908.1,286.0 938.0,286.0"/><circle cx="42.0" cy="286.0" r="2.5" fill="#ef4444"/><circle cx="71.9" cy="132.1" r="2.5" fill="#ef4444"/><circle cx="101.7" cy="286.0" r="2.5" fill="#ef4444"/><circle cx="131.6" cy="286.0" r="2.5" fill="#ef4444"/><circle cx="161.5" cy="286.0" r="2.5" fill="#ef4444"/><circle cx="191.3" cy="286.0" r="2.5" fill="#ef4444"/><circle cx="221.2" cy="286.0" r="2.5" fill="#ef4444"/><circle cx="251.1" cy="286.0" r="2.5" fill="#ef4444"/><circle cx="280.9" cy="286.0" r="2.5" fill="#ef4444"/><circle cx="310.8" cy="286.0" r="2.5" fill="#ef4444"/><circle cx="340.7" cy="286.0" r="2.5" fill="#ef4444"/><circle cx="370.5" cy="286.0" r="2.5" fill="#ef4444"/><circle cx="400.4" cy="286.0" r="2.5" fill="#ef4444"/><circle cx="430.3" cy="286.0" r="2.5" fill="#ef4444"/><circle cx="460.1" cy="286.0" r="2.5" fill="#ef4444"/><circle cx="490.0" cy="286.0" r="2.5" fill="#ef4444"/><circle cx="519.9" cy="286.0" r="2.5" fill="#ef4444"/><circle cx="549.7" cy="279.8" r="2.5" fill="#ef4444"/><circle cx="579.6" cy="286.0" r="2.5" fill="#ef4444"/><circle cx="609.5" cy="286.0" r="2.5" fill="#ef4444"/><circle cx="639.3" cy="286.0" r="2.5" fill="#ef4444"/><circle cx="669.2" cy="286.0" r="2.5" fill="#ef4444"/><circle cx="699.1" cy="286.0" r="2.5" fill="#ef4444"/><circle cx="728.9" cy="286.0" r="2.5" fill="#ef4444"/><circle cx="758.8" cy="286.0" r="2.5" fill="#ef4444"/><circle cx="788.7" cy="286.0" r="2.5" fill="#ef4444"/><circle cx="818.5" cy="286.0" r="2.5" fill="#ef4444"/><circle cx="848.4" cy="286.0" r="2.5" fill="#ef4444"/><circle cx="878.3" cy="286.0" r="2.5" fill="#ef4444"/><circle cx="908.1" cy="286.0" r="2.5" fill="#ef4444"/><circle cx="938.0" cy="286.0" r="2.5" fill="#ef4444"/><text x="42" y="308" font-size="11" fill="#5a688a">19/06 15:39</text><text x="938" y="308" text-anchor="end" font-size="11" fill="#5a688a">17/07 20:31</text></svg>