<svg xmlns="http://www.w3.org/2000/svg" viewBox="0 0 960 320" width="960" height="320" font-family="Segoe UI, system-ui, -apple-system, Roboto, Helvetica, Arial, sans-serif" role="img" aria-label="Availability history per region"><rect x="0.5" y="0.5" width="959" height="319" rx="14" fill="#0d1117" stroke="#2c3a5e"/><text x="42" y="26" font-size="14" font-weight="600" fill="#e6ecff">History · 177 points</text><circle cx="47" cy="40" r="5" fill="#22c55e"/><text x="57" y="44" font-size="12" fill="#9fb0d4">Available</text><circle cx="139.8" cy="40" r="5" fill="#f59e0b"/><text x="149.8" y="44" font-size="12" fill="#9fb0d4">Saturated</text><circle cx="232.60000000000002" cy="40" r="5" fill="#ef4444"/><text x="242.60000000000002" y="44" font-size="12" fill="#9fb0d4">Error</text><circle cx="296.6" cy="40" r="5" fill="#a855f7"/><text x="306.6" y="44" font-size="12" fill="#9fb0d4">Timeout</text><line x1="42" y1="286.0" x2="938" y2="286.0" stroke="#21304f" stroke-width="1"/><text x="35" y="289.0" text-anchor="end" font-size="11" fill="#9fb0d4">0</text><line x1="42" y1="227.5" x2="938" y2="227.5" stroke="#21304f" stroke-width="1"/><text x="35" y="230.5" text-anchor="end" font-size="11" fill="#9fb0d4">10</text><line x1="42" y1="169.0" x2="938" y2="169.0" stroke="#21304f" stroke-width="1"/><text x="35" y="172.0" text-anchor="end" font-size="11" fill="#9fb0d4">21</text><line x1="42" y1="110.5" x2="938" y2="110.5" stroke="#21304f" stroke-width="1"/><text x="35" y="113.5" text-anchor="end" font-size="11" fill="#9fb0d4">32</text><line x1="42" y1="52.0" x2="938" y2="52.0" stroke="#21304f" stroke-width="1"/><text x="35" y="55.0" text-anchor="end" font-size="11" fill="#9fb0d4">42</text><polyline fill="none" stroke="#22c55e" stroke-width="2.5" stroke-linejoin="round" stroke-linecap="round" points="42.0,85.4 47.1,230.3 52.2,102.1 57.3,107.7 62.4,102.1 67.5,96.6 72.5,96.6 77.6,96.6 82.7,96.6 87.8,96.6 92.9,96.6 98.0,96.6 103.1,96.6 108.2,96.6 113.3,96.6 118.4,91.0 123.5,91.0 128.5,102.1 133.6,102.1 138.7,102.1 143.8,107.7 148.9,107.7 154.0,107.7 159.1,107.7 164.2,107.7 169.3,107.7 174.4,107.7 179.5,107.7 184.5,107.7 189.6,102.1 194.7,102.1 199.8,102.1 204.9,102.1 210.0,96.6 215.1,96.6 220.2,96.6 225.3,96.6 230.4,96.6 235.5,102.1 240.5,102.1 245.6,102.1 250.7,102.1 255.8,96.6 260.9,96.6 266.0,96.6 271.1,96.6 276.2,96.6 281.3,96.6 286.4,96.6 291.5,102.1 296.5,102.1 301.6,102.1 306.7,102.1 311.8,96.6 316.9,96.6 322.0,96.6 327.1,96.6 332.2,96.6 337.3,96.6 342.4,96.6 347.5,96.6 352.5,102.1 357.6,96.6 362.7,96.6 367.8,96.6 372.9,96.6 378.0,96.6 383.1,102.1 388.2,96.6 393.3,96.6 398.4,96.6 403.5,96.6 408.5,96.6 413.6,96.6 418.7,96.6 423.8,96.6 428.9,96.6 434.0,91.0 439.1,91.0 444.2,91.0 449.3,91.0 454.4,96.6 459.5,91.0 464.5,96.6 469.6,96.6 474.7,96.6 479.8,96.6 484.9,96.6 490.0,96.6 495.1,102.1 500.2,107.7 505.3,107.7 510.4,107.7 515.5,107.7 520.5,107.7 525.6,107.7 530.7,107.7 535.8,113.3 540.9,107.7 546.0,107.7 551.1,107.7 556.2,107.7 561.3,107.7 566.4,107.7 571.5,102.1 576.5,102.1 581.6,102.1 586.7,102.1 591.8,102.1 596.9,102.1 602.0,102.1 607.1,102.1 612.2,107.7 617.3,107.7 622.4,107.7 627.5,107.7 632.5,107.7 637.6,107.7 642.7,107.7 647.8,107.7 652.9,113.3 658.0,107.7 663.1,107.7 668.2,107.7 673.3,118.9 678.4,107.7 683.5,107.7 688.5,107.7 693.6,107.7 698.7,102.1 703.8,102.1 708.9,102.1 714.0,102.1 719.1,107.7 724.2,102.1 729.3,107.7 734.4,107.7 739.5,107.7 744.5,107.7 749.6,113.3 754.7,107.7 759.8,107.7 764.9,107.7 770.0,107.7 775.1,107.7 780.2,107.7 785.3,107.7 790.4,107.7 795.5,113.3 800.5,102.1 805.6,102.1 810.7,102.1 815.8,102.1 820.9,102.1 826.0,102.1 831.1,102.1 836.2,102.1 841.3,102.1 846.4,102.1 851.5,107.7 856.5,102.1 861.6,102.1 866.7,102.1 871.8,102.1 876.9,102.1 882.0,102.1 887.1,102.1 892.2,102.1 897.3,107.7 902.4,91.0 907.5,85.4 912.5,79.9 917.6,79.9 922.7,79.9 927.8,79.9 932.9,79.9 938.0,79.9"/><polyline fill="none" stroke="#f59e0b" stroke-width="2.5" stroke-linejoin="round" stroke-linecap="round" points="42.0,274.9 47.1,269.3 52.2,258.1 57.3,252.6 62.4,258.1 67.5,263.7 72.5,263.7 77.6,263.7 82.7,263.7 87.8,263.7 92.9,263.7 98.0,263.7 103.1,263.7 108.2,263.7 113.3,263.7 118.4,269.3 123.5,269.3 128.5,263.7 133.6,258.1 138.7,258.1 143.8,252.6 148.9,252.6 154.0,252.6 159.1,252.6 164.2,252.6 169.3,252.6 174.4,252.6 179.5,252.6 184.5,252.6 189.6,258.1 194.7,258.1 199.8,258.1 204.9,258.1 210.0,263.7 215.1,263.7 220.2,263.7 225.3,263.7 230.4,263.7 235.5,258.1 240.5,258.1 245.6,258.1 250.7,258.1 255.8,263.7 260.9,263.7 266.0,263.7 271.1,263.7 276.2,263.7 281.3,263.7 286.4,263.7 291.5,258.1 296.5,258.1 301.6,258.1 306.7,263.7 311.8,263.7 316.9,263.7 322.0,263.7 327.1,263.7 332.2,263.7 337.3,263.7 342.4,263.7 347.5,263.7 352.5,258.1 357.6,263.7 362.7,263.7 367.8,263.7 372.9,263.7 378.0,263.7 383.1,263.7 388.2,263.7 393.3,263.7 398.4,263.7 403.5,263.7 408.5,263.7 413.6,263.7 418.7,263.7 423.8,263.7 428.9,263.7 434.0,269.3 439.1,269.3 444.2,269.3 449.3,269.3 454.4,269.3 459.5,269.3 464.5,263.7 469.6,263.7 474.7,263.7 479.8,263.7 484.9,263.7 490.0,263.7 495.1,258.1 500.2,252.6 505.3,252.6 510.4,258.1 515.5,252.6 520.5,252.6 525.6,252.6 530.7,252.6 535.8,252.6 540.9,252.6 546.0,258.1 551.1,252.6 556.2,252.6 561.3,252.6 566.4,252.6 571.5,258.1 576.5,258.1 581.6,258.1 586.7,258.1 591.8,258.1 596.9,258.1 602.0,258.1 607.1,258.1 612.2,252.6 617.3,252.6 622.4,252.6 627.5,252.6 632.5,252.6 637.6,252.6 642.7,252.6 647.8,258.1 652.9,252.6 658.0,252.6 663.1,252.6 668.2,252.6 673.3,252.6 678.4,252.6 683.5,252.6 688.5,258.1 693.6,258.1 698.7,258.1 703.8,258.1 708.9,258.1 714.0,258.1 719.1,258.1 724.2,258.1 729.3,252.6 734.4,252.6 739.5,252.6 744.5,252.6 749.6,252.6 754.7,252.6 759.8,252.6 764.9,252.6 770.0,252.6 775.1,252.6 780.2,252.6 785.3,252.6 790.4,252.6 795.5,252.6 800.5,258.1 805.6,258.1 810.7,258.1 815.8,258.1 820.9,258.1 826.0,263.7 831.1,263.7 836.2,258.1 841.3,258.1 846.4,258.1 851.5,258.1 856.5,258.1 861.6,258.1 866.7,258.1 871.8,258.1 876.9,258.1 882.0,258.1 887.1,258.1 892.2,258.1 897.3,258.1 902.4,258.1 907.5,258.1 912.5,258.1 917.6,258.1 922.7,258.1 927.8,258.1 932.9,258.1 938.0,258.1"/><polyline fill="none" stroke="#ef4444" stroke-width="2.5" stroke-linejoin="round" stroke-linecap="round" points="42.0,286.0 47.1,146.7 52.2,286.0 57.3,286.0 62.4,286.0 67.5,286.0 72.5,286.0 77.6,286.0 82.7,286.0 87.8,286.0 92.9,286.0 98.0,286.0 103.1,286.0 108.2,286.0 113.3,286.0 118.4,286.0 123.5,286.0 128.5,280.4 133.6,286.0 138.7,286.0 143.8,286.0 148.9,286.0 154.0,286.0 159.1,286.0 164.2,286.0 169.3,286.0 174.4,286.0 179.5,286.0 184.5,286.0 189.6,286.0 194.7,286.0 199.8,286.0 204.9,286.0 210.0,286.0 215.1,286.0 220.2,286.0 225.3,286.0 230.4,286.0 235.5,286.0 240.5,286.0 245.6,286.0 250.7,286.0 255.8,286.0 260.9,286.0 266.0,286.0 271.1,286.0 276.2,286.0 281.3,286.0 286.4,286.0 291.5,286.0 296.5,286.0 301.6,286.0 306.7,286.0 311.8,286.0 316.9,286.0 322.0,286.0 327.1,286.0 332.2,286.0 337.3,286.0 342.4,286.0 347.5,286.0 352.5,286.0 357.6,286.0 362.7,286.0 367.8,286.0 372.9,286.0 378.0,286.0 383.1,280.4 388.2,286.0 393.3,286.0 398.4,286.0 403.5,286.0 408.5,286.0 413.6,286.0 418.7,286.0 423.8,286.0 428.9,286.0 434.0,286.0 439.1,286.0 444.2,286.0 449.3,286.0 454.4,280.4 459.5,286.0 464.5,286.0 469.6,286.0 474.7,286.0 479.8,286.0 484.9,286.0 490.0,286.0 495.1,286.0 500.2,286.0 505.3,286.0 510.4,280.4 515.5,286.0 520.5,286.0 525.6,286.0 530.7,286.0 535.8,280.4 540.9,286.0 546.0,286.0 551.1,286.0 556.2,286.0 561.3,286.0 566.4,286.0 571.5,286.0 576.5,286.0 581.6,286.0 586.7,286.0 591.8,286.0 596.9,286.0 602.0,286.0 607.1,286.0 612.2,286.0 617.3,286.0 622.4,286.0 627.5,286.0 632.5,286.0 637.6,286.0 642.7,286.0 647.8,286.0 652.9,280.4 658.0,286.0 663.1,286.0 668.2,286.0 673.3,274.9 678.4,286.0 683.5,286.0 688.5,280.4 693.6,280.4 698.7,286.0 703.8,286.0 708.9,286.0 714.0,286.0 719.1,280.4 724.2,286.0 729.3,286.0 734.4,286.0 739.5,286.0 744.5,286.0 749.6,286.0 754.7,286.0 759.8,286.0 764.9,286.0 770.0,286.0 775.1,286.0 780.2,286.0 785.3,286.0 790.4,286.0 795.5,286.0 800.5,286.0 805.6,286.0 810.7,286.0 815.8,286.0 820.9,286.0 826.0,280.4 831.1,286.0 836.2,286.0 841.3,286.0 846.4,263.7 851.5,280.4 856.5,286.0 861.6,286.0 866.7,286.0 871.8,286.0 876.9,286.0 882.0,286.0 887.1,286.0 892.2,286.0 897.3,258.1 902.4,274.9 907.5,280.4 912.5,286.0 917.6,286.0 922.7,286.0 927.8,286.0 932.9,286.0 938.0,286.0"/><polyline fill="none" stroke="#a855f7" stroke-width="2.5" stroke-linejoin="round" stroke-linecap="round" points="42.0,286.0 47.1,286.0 52.2,286.0 57.3,286.0 62.4,286.0 67.5,286.0 72.5,286.0 77.6,286.0 82.7,286.0 87.8,286.0 92.9,286.0 98.0,286.0 103.1,286.0 108.2,286.0 113.3,286.0 118.4,286.0 123.5,286.0 128.5,286.0 133.6,286.0 138.7,286.0 143.8,286.0 148.9,286.0 154.0,286.0 159.1,286.0 164.2,286.0 169.3,286.0 174.4,286.0 179.5,286.0 184.5,286.0 189.6,286.0 194.7,286.0 199.8,286.0 204.9,286.0 210.0,286.0 215.1,286.0 220.2,286.0 225.3,286.0 230.4,286.0 235.5,286.0 240.5,286.0 245.6,286.0 250.7,286.0 255.8,286.0 260.9,286.0 266.0,286.0 271.1,286.0 276.2,286.0 281.3,286.0 286.4,286.0 291.5,286.0 296.5,286.0 301.6,286.0 306.7,280.4 311.8,286.0 316.9,286.0 322.0,286.0 327.1,286.0 332.2,286.0 337.3,286.0 342.4,286.0 347.5,286.0 352.5,286.0 357.6,286.0 362.7,286.0 367.8,286.0 372.9,286.0 378.0,286.0 383.1,286.0 388.2,286.0 393.3,286.0 398.4,286.0 403.5,286.0 408.5,286.0 413.6,286.0 418.7,286.0 423.8,286.0 428.9,286.0 434.0,286.0 439.1,286.0 444.2,286.0 449.3,286.0 454.4,286.0 459.5,286.0 464.5,286.0 469.6,286.0 474.7,286.0 479.8,286.0 484.9,286.0 490.0,286.0 495.1,286.0 500.2,286.0 505.3,286.0 510.4,286.0 515.5,286.0 520.5,286.0 525.6,286.0 530.7,286.0 535.8,286.0 540.9,286.0 546.0,280.4 551.1,286.0 556.2,286.0 561.3,286.0 566.4,286.0 571.5,286.0 576.5,286.0 581.6,286.0 586.7,286.0 591.8,286.0 596.9,286.0 602.0,286.0 607.1,286.0 612.2,286.0 617.3,286.0 622.4,286.0 627.5,286.0 632.5,286.0 637.6,286.0 642.7,286.0 647.8,280.4 652.9,286.0 658.0,286.0 663.1,286.0 668.2,286.0 673.3,286.0 678.4,286.0 683.5,286.0 688.5,286.0 693.6,286.0 698.7,286.0 703.8,286.0 708.9,286.0 714.0,286.0 719.1,286.0 724.2,286.0 729.3,286.0 734.4,286.0 739.5,286.0 744.5,286.0 749.6,280.4 754.7,286.0 759.8,286.0 764.9,286.0 770.0,286.0 775.1,286.0 780.2,286.0 785.3,286.0 790.4,286.0 795.5,280.4 800.5,286.0 805.6,286.0 810.7,286.0 815.8,286.0 820.9,286.0 826.0,286.0 831.1,280.4 836.2,286.0 841.3,286.0 846.4,286.0 851.5,286.0 856.5,286.0 861.6,286.0 866.7,286.0 871.8,286.0 876.9,286.0 882.0,286.0 887.1,286.0 892.2,286.0 897.3,286.0 902.4,286.0 907.5,286.0 912.5,286.0 917.6,286.0 922.7,286.0 927.8,286.0 932.9,286.0 938.0,286.0"/><text x="42" y="308" font-size="11" fill="#9fb0d4">19/06 15:39</text><text x="938" y="308" text-anchor="end" font-size="11" fill="#9fb0d4">23/07 23:30</text></svg>