<svg xmlns="http://www.w3.org/2000/svg" viewBox="0 0 960 320" width="960" height="320" font-family="Segoe UI, system-ui, -apple-system, Roboto, Helvetica, Arial, sans-serif" role="img" aria-label="Availability history per region"><rect x="0.5" y="0.5" width="959" height="319" rx="14" fill="#ffffff" stroke="#dce3f1"/><text x="42" y="26" font-size="14" font-weight="600" fill="#14203a">History · 184 points</text><circle cx="47" cy="40" r="5" fill="#22c55e"/><text x="57" y="44" font-size="12" fill="#5a688a">Available</text><circle cx="139.8" cy="40" r="5" fill="#f59e0b"/><text x="149.8" y="44" font-size="12" fill="#5a688a">Saturated</text><circle cx="232.60000000000002" cy="40" r="5" fill="#ef4444"/><text x="242.60000000000002" y="44" font-size="12" fill="#5a688a">Error</text><circle cx="296.6" cy="40" r="5" fill="#a855f7"/><text x="306.6" y="44" font-size="12" fill="#5a688a">Timeout</text><line x1="42" y1="286.0" x2="938" y2="286.0" stroke="#eef2f7" stroke-width="1"/><text x="35" y="289.0" text-anchor="end" font-size="11" fill="#5a688a">0</text><line x1="42" y1="227.5" x2="938" y2="227.5" stroke="#eef2f7" stroke-width="1"/><text x="35" y="230.5" text-anchor="end" font-size="11" fill="#5a688a">10</text><line x1="42" y1="169.0" x2="938" y2="169.0" stroke="#eef2f7" stroke-width="1"/><text x="35" y="172.0" text-anchor="end" font-size="11" fill="#5a688a">21</text><line x1="42" y1="110.5" x2="938" y2="110.5" stroke="#eef2f7" stroke-width="1"/><text x="35" y="113.5" text-anchor="end" font-size="11" fill="#5a688a">32</text><line x1="42" y1="52.0" x2="938" y2="52.0" stroke="#eef2f7" stroke-width="1"/><text x="35" y="55.0" text-anchor="end" font-size="11" fill="#5a688a">42</text><polyline fill="none" stroke="#22c55e" stroke-width="2.5" stroke-linejoin="round" stroke-linecap="round" points="42.0,85.4 46.9,230.3 51.8,102.1 56.7,107.7 61.6,102.1 66.5,96.6 71.4,96.6 76.3,96.6 81.2,96.6 86.1,96.6 91.0,96.6 95.9,96.6 100.8,96.6 105.7,96.6 110.5,96.6 115.4,91.0 120.3,91.0 125.2,102.1 130.1,102.1 135.0,102.1 139.9,107.7 144.8,107.7 149.7,107.7 154.6,107.7 159.5,107.7 164.4,107.7 169.3,107.7 174.2,107.7 179.1,107.7 184.0,102.1 188.9,102.1 193.8,102.1 198.7,102.1 203.6,96.6 208.5,96.6 213.4,96.6 218.3,96.6 223.2,96.6 228.1,102.1 233.0,102.1 237.8,102.1 242.7,102.1 247.6,96.6 252.5,96.6 257.4,96.6 262.3,96.6 267.2,96.6 272.1,96.6 277.0,96.6 281.9,102.1 286.8,102.1 291.7,102.1 296.6,102.1 301.5,96.6 306.4,96.6 311.3,96.6 316.2,96.6 321.1,96.6 326.0,96.6 330.9,96.6 335.8,96.6 340.7,102.1 345.6,96.6 350.5,96.6 355.4,96.6 360.3,96.6 365.1,96.6 370.0,102.1 374.9,96.6 379.8,96.6 384.7,96.6 389.6,96.6 394.5,96.6 399.4,96.6 404.3,96.6 409.2,96.6 414.1,96.6 419.0,91.0 423.9,91.0 428.8,91.0 433.7,91.0 438.6,96.6 443.5,91.0 448.4,96.6 453.3,96.6 458.2,96.6 463.1,96.6 468.0,96.6 472.9,96.6 477.8,102.1 482.7,107.7 487.6,107.7 492.4,107.7 497.3,107.7 502.2,107.7 507.1,107.7 512.0,107.7 516.9,113.3 521.8,107.7 526.7,107.7 531.6,107.7 536.5,107.7 541.4,107.7 546.3,107.7 551.2,102.1 556.1,102.1 561.0,102.1 565.9,102.1 570.8,102.1 575.7,102.1 580.6,102.1 585.5,102.1 590.4,107.7 595.3,107.7 600.2,107.7 605.1,107.7 610.0,107.7 614.9,107.7 619.7,107.7 624.6,107.7 629.5,113.3 634.4,107.7 639.3,107.7 644.2,107.7 649.1,118.9 654.0,107.7 658.9,107.7 663.8,107.7 668.7,107.7 673.6,102.1 678.5,102.1 683.4,102.1 688.3,102.1 693.2,107.7 698.1,102.1 703.0,107.7 707.9,107.7 712.8,107.7 717.7,107.7 722.6,113.3 727.5,107.7 732.4,107.7 737.3,107.7 742.2,107.7 747.0,107.7 751.9,107.7 756.8,107.7 761.7,107.7 766.6,113.3 771.5,102.1 776.4,102.1 781.3,102.1 786.2,102.1 791.1,102.1 796.0,102.1 800.9,102.1 805.8,102.1 810.7,102.1 815.6,102.1 820.5,107.7 825.4,102.1 830.3,102.1 835.2,102.1 840.1,102.1 845.0,102.1 849.9,102.1 854.8,102.1 859.7,102.1 864.6,107.7 869.5,91.0 874.3,85.4 879.2,79.9 884.1,79.9 889.0,79.9 893.9,79.9 898.8,79.9 903.7,79.9 908.6,79.9 913.5,91.0 918.4,96.6 923.3,91.0 928.2,91.0 933.1,91.0 938.0,91.0"/><polyline fill="none" stroke="#f59e0b" stroke-width="2.5" stroke-linejoin="round" stroke-linecap="round" points="42.0,274.9 46.9,269.3 51.8,258.1 56.7,252.6 61.6,258.1 66.5,263.7 71.4,263.7 76.3,263.7 81.2,263.7 86.1,263.7 91.0,263.7 95.9,263.7 100.8,263.7 105.7,263.7 110.5,263.7 115.4,269.3 120.3,269.3 125.2,263.7 130.1,258.1 135.0,258.1 139.9,252.6 144.8,252.6 149.7,252.6 154.6,252.6 159.5,252.6 164.4,252.6 169.3,252.6 174.2,252.6 179.1,252.6 184.0,258.1 188.9,258.1 193.8,258.1 198.7,258.1 203.6,263.7 208.5,263.7 213.4,263.7 218.3,263.7 223.2,263.7 228.1,258.1 233.0,258.1 237.8,258.1 242.7,258.1 247.6,263.7 252.5,263.7 257.4,263.7 262.3,263.7 267.2,263.7 272.1,263.7 277.0,263.7 281.9,258.1 286.8,258.1 291.7,258.1 296.6,263.7 301.5,263.7 306.4,263.7 311.3,263.7 316.2,263.7 321.1,263.7 326.0,263.7 330.9,263.7 335.8,263.7 340.7,258.1 345.6,263.7 350.5,263.7 355.4,263.7 360.3,263.7 365.1,263.7 370.0,263.7 374.9,263.7 379.8,263.7 384.7,263.7 389.6,263.7 394.5,263.7 399.4,263.7 404.3,263.7 409.2,263.7 414.1,263.7 419.0,269.3 423.9,269.3 428.8,269.3 433.7,269.3 438.6,269.3 443.5,269.3 448.4,263.7 453.3,263.7 458.2,263.7 463.1,263.7 468.0,263.7 472.9,263.7 477.8,258.1 482.7,252.6 487.6,252.6 492.4,258.1 497.3,252.6 502.2,252.6 507.1,252.6 512.0,252.6 516.9,252.6 521.8,252.6 526.7,258.1 531.6,252.6 536.5,252.6 541.4,252.6 546.3,252.6 551.2,258.1 556.1,258.1 561.0,258.1 565.9,258.1 570.8,258.1 575.7,258.1 580.6,258.1 585.5,258.1 590.4,252.6 595.3,252.6 600.2,252.6 605.1,252.6 610.0,252.6 614.9,252.6 619.7,252.6 624.6,258.1 629.5,252.6 634.4,252.6 639.3,252.6 644.2,252.6 649.1,252.6 654.0,252.6 658.9,252.6 663.8,258.1 668.7,258.1 673.6,258.1 678.5,258.1 683.4,258.1 688.3,258.1 693.2,258.1 698.1,258.1 703.0,252.6 707.9,252.6 712.8,252.6 717.7,252.6 722.6,252.6 727.5,252.6 732.4,252.6 737.3,252.6 742.2,252.6 747.0,252.6 751.9,252.6 756.8,252.6 761.7,252.6 766.6,252.6 771.5,258.1 776.4,258.1 781.3,258.1 786.2,258.1 791.1,258.1 796.0,263.7 800.9,263.7 805.8,258.1 810.7,258.1 815.6,258.1 820.5,258.1 825.4,258.1 830.3,258.1 835.2,258.1 840.1,258.1 845.0,258.1 849.9,258.1 854.8,258.1 859.7,258.1 864.6,258.1 869.5,258.1 874.3,258.1 879.2,258.1 884.1,258.1 889.0,258.1 893.9,258.1 898.8,258.1 903.7,258.1 908.6,258.1 913.5,258.1 918.4,258.1 923.3,258.1 928.2,258.1 933.1,258.1 938.0,258.1"/><polyline fill="none" stroke="#ef4444" stroke-width="2.5" stroke-linejoin="round" stroke-linecap="round" points="42.0,286.0 46.9,146.7 51.8,286.0 56.7,286.0 61.6,286.0 66.5,286.0 71.4,286.0 76.3,286.0 81.2,286.0 86.1,286.0 91.0,286.0 95.9,286.0 100.8,286.0 105.7,286.0 110.5,286.0 115.4,286.0 120.3,286.0 125.2,280.4 130.1,286.0 135.0,286.0 139.9,286.0 144.8,286.0 149.7,286.0 154.6,286.0 159.5,286.0 164.4,286.0 169.3,286.0 174.2,286.0 179.1,286.0 184.0,286.0 188.9,286.0 193.8,286.0 198.7,286.0 203.6,286.0 208.5,286.0 213.4,286.0 218.3,286.0 223.2,286.0 228.1,286.0 233.0,286.0 237.8,286.0 242.7,286.0 247.6,286.0 252.5,286.0 257.4,286.0 262.3,286.0 267.2,286.0 272.1,286.0 277.0,286.0 281.9,286.0 286.8,286.0 291.7,286.0 296.6,286.0 301.5,286.0 306.4,286.0 311.3,286.0 316.2,286.0 321.1,286.0 326.0,286.0 330.9,286.0 335.8,286.0 340.7,286.0 345.6,286.0 350.5,286.0 355.4,286.0 360.3,286.0 365.1,286.0 370.0,280.4 374.9,286.0 379.8,286.0 384.7,286.0 389.6,286.0 394.5,286.0 399.4,286.0 404.3,286.0 409.2,286.0 414.1,286.0 419.0,286.0 423.9,286.0 428.8,286.0 433.7,286.0 438.6,280.4 443.5,286.0 448.4,286.0 453.3,286.0 458.2,286.0 463.1,286.0 468.0,286.0 472.9,286.0 477.8,286.0 482.7,286.0 487.6,286.0 492.4,280.4 497.3,286.0 502.2,286.0 507.1,286.0 512.0,286.0 516.9,280.4 521.8,286.0 526.7,286.0 531.6,286.0 536.5,286.0 541.4,286.0 546.3,286.0 551.2,286.0 556.1,286.0 561.0,286.0 565.9,286.0 570.8,286.0 575.7,286.0 580.6,286.0 585.5,286.0 590.4,286.0 595.3,286.0 600.2,286.0 605.1,286.0 610.0,286.0 614.9,286.0 619.7,286.0 624.6,286.0 629.5,280.4 634.4,286.0 639.3,286.0 644.2,286.0 649.1,274.9 654.0,286.0 658.9,286.0 663.8,280.4 668.7,280.4 673.6,286.0 678.5,286.0 683.4,286.0 688.3,286.0 693.2,280.4 698.1,286.0 703.0,286.0 707.9,286.0 712.8,286.0 717.7,286.0 722.6,286.0 727.5,286.0 732.4,286.0 737.3,286.0 742.2,286.0 747.0,286.0 751.9,286.0 756.8,286.0 761.7,286.0 766.6,286.0 771.5,286.0 776.4,286.0 781.3,286.0 786.2,286.0 791.1,286.0 796.0,280.4 800.9,286.0 805.8,286.0 810.7,286.0 815.6,263.7 820.5,280.4 825.4,286.0 830.3,286.0 835.2,286.0 840.1,286.0 845.0,286.0 849.9,286.0 854.8,286.0 859.7,286.0 864.6,258.1 869.5,274.9 874.3,280.4 879.2,286.0 884.1,286.0 889.0,286.0 893.9,286.0 898.8,286.0 903.7,286.0 908.6,286.0 913.5,274.9 918.4,269.3 923.3,274.9 928.2,274.9 933.1,274.9 938.0,274.9"/><polyline fill="none" stroke="#a855f7" stroke-width="2.5" stroke-linejoin="round" stroke-linecap="round" points="42.0,286.0 46.9,286.0 51.8,286.0 56.7,286.0 61.6,286.0 66.5,286.0 71.4,286.0 76.3,286.0 81.2,286.0 86.1,286.0 91.0,286.0 95.9,286.0 100.8,286.0 105.7,286.0 110.5,286.0 115.4,286.0 120.3,286.0 125.2,286.0 130.1,286.0 135.0,286.0 139.9,286.0 144.8,286.0 149.7,286.0 154.6,286.0 159.5,286.0 164.4,286.0 169.3,286.0 174.2,286.0 179.1,286.0 184.0,286.0 188.9,286.0 193.8,286.0 198.7,286.0 203.6,286.0 208.5,286.0 213.4,286.0 218.3,286.0 223.2,286.0 228.1,286.0 233.0,286.0 237.8,286.0 242.7,286.0 247.6,286.0 252.5,286.0 257.4,286.0 262.3,286.0 267.2,286.0 272.1,286.0 277.0,286.0 281.9,286.0 286.8,286.0 291.7,286.0 296.6,280.4 301.5,286.0 306.4,286.0 311.3,286.0 316.2,286.0 321.1,286.0 326.0,286.0 330.9,286.0 335.8,286.0 340.7,286.0 345.6,286.0 350.5,286.0 355.4,286.0 360.3,286.0 365.1,286.0 370.0,286.0 374.9,286.0 379.8,286.0 384.7,286.0 389.6,286.0 394.5,286.0 399.4,286.0 404.3,286.0 409.2,286.0 414.1,286.0 419.0,286.0 423.9,286.0 428.8,286.0 433.7,286.0 438.6,286.0 443.5,286.0 448.4,286.0 453.3,286.0 458.2,286.0 463.1,286.0 468.0,286.0 472.9,286.0 477.8,286.0 482.7,286.0 487.6,286.0 492.4,286.0 497.3,286.0 502.2,286.0 507.1,286.0 512.0,286.0 516.9,286.0 521.8,286.0 526.7,280.4 531.6,286.0 536.5,286.0 541.4,286.0 546.3,286.0 551.2,286.0 556.1,286.0 561.0,286.0 565.9,286.0 570.8,286.0 575.7,286.0 580.6,286.0 585.5,286.0 590.4,286.0 595.3,286.0 600.2,286.0 605.1,286.0 610.0,286.0 614.9,286.0 619.7,286.0 624.6,280.4 629.5,286.0 634.4,286.0 639.3,286.0 644.2,286.0 649.1,286.0 654.0,286.0 658.9,286.0 663.8,286.0 668.7,286.0 673.6,286.0 678.5,286.0 683.4,286.0 688.3,286.0 693.2,286.0 698.1,286.0 703.0,286.0 707.9,286.0 712.8,286.0 717.7,286.0 722.6,280.4 727.5,286.0 732.4,286.0 737.3,286.0 742.2,286.0 747.0,286.0 751.9,286.0 756.8,286.0 761.7,286.0 766.6,280.4 771.5,286.0 776.4,286.0 781.3,286.0 786.2,286.0 791.1,286.0 796.0,286.0 800.9,280.4 805.8,286.0 810.7,286.0 815.6,286.0 820.5,286.0 825.4,286.0 830.3,286.0 835.2,286.0 840.1,286.0 845.0,286.0 849.9,286.0 854.8,286.0 859.7,286.0 864.6,286.0 869.5,286.0 874.3,286.0 879.2,286.0 884.1,286.0 889.0,286.0 893.9,286.0 898.8,286.0 903.7,286.0 908.6,286.0 913.5,286.0 918.4,286.0 923.3,286.0 928.2,286.0 933.1,286.0 938.0,286.0"/><text x="42" y="308" font-size="11" fill="#5a688a">19/06 15:39</text><text x="938" y="308" text-anchor="end" font-size="11" fill="#5a688a">24/07 06:32</text></svg>