<svg xmlns="http://www.w3.org/2000/svg" viewBox="0 0 960 320" width="960" height="320" font-family="Segoe UI, system-ui, -apple-system, Roboto, Helvetica, Arial, sans-serif" role="img" aria-label="Availability history per region"><rect x="0.5" y="0.5" width="959" height="319" rx="14" fill="#0d1117" stroke="#2c3a5e"/><text x="42" y="26" font-size="14" font-weight="600" fill="#e6ecff">History · 214 points</text><circle cx="47" cy="40" r="5" fill="#22c55e"/><text x="57" y="44" font-size="12" fill="#9fb0d4">Available</text><circle cx="139.8" cy="40" r="5" fill="#f59e0b"/><text x="149.8" y="44" font-size="12" fill="#9fb0d4">Saturated</text><circle cx="232.60000000000002" cy="40" r="5" fill="#ef4444"/><text x="242.60000000000002" y="44" font-size="12" fill="#9fb0d4">Error</text><circle cx="296.6" cy="40" r="5" fill="#a855f7"/><text x="306.6" y="44" font-size="12" fill="#9fb0d4">Timeout</text><line x1="42" y1="286.0" x2="938" y2="286.0" stroke="#21304f" stroke-width="1"/><text x="35" y="289.0" text-anchor="end" font-size="11" fill="#9fb0d4">0</text><line x1="42" y1="227.5" x2="938" y2="227.5" stroke="#21304f" stroke-width="1"/><text x="35" y="230.5" text-anchor="end" font-size="11" fill="#9fb0d4">10</text><line x1="42" y1="169.0" x2="938" y2="169.0" stroke="#21304f" stroke-width="1"/><text x="35" y="172.0" text-anchor="end" font-size="11" fill="#9fb0d4">20</text><line x1="42" y1="110.5" x2="938" y2="110.5" stroke="#21304f" stroke-width="1"/><text x="35" y="113.5" text-anchor="end" font-size="11" fill="#9fb0d4">29</text><line x1="42" y1="52.0" x2="938" y2="52.0" stroke="#21304f" stroke-width="1"/><text x="35" y="55.0" text-anchor="end" font-size="11" fill="#9fb0d4">39</text><polyline fill="none" stroke="#22c55e" stroke-width="2.5" stroke-linejoin="round" stroke-linecap="round" points="42.0,70.0 46.2,70.0 50.4,88.0 54.6,88.0 58.8,76.0 63.0,76.0 67.2,76.0 71.4,70.0 75.7,76.0 79.9,70.0 84.1,64.0 88.3,58.0 92.5,58.0 96.7,58.0 100.9,58.0 105.1,58.0 109.3,58.0 113.5,58.0 117.7,58.0 121.9,58.0 126.1,58.0 130.3,58.0 134.5,58.0 138.8,58.0 143.0,58.0 147.2,58.0 151.4,58.0 155.6,58.0 159.8,58.0 164.0,58.0 168.2,58.0 172.4,70.0 176.6,76.0 180.8,94.0 185.0,64.0 189.2,64.0 193.4,58.0 197.6,58.0 201.8,58.0 206.1,70.0 210.3,76.0 214.5,76.0 218.7,82.0 222.9,82.0 227.1,82.0 231.3,82.0 235.5,76.0 239.7,64.0 243.9,70.0 248.1,70.0 252.3,82.0 256.5,76.0 260.7,76.0 264.9,82.0 269.2,76.0 273.4,76.0 277.6,76.0 281.8,64.0 286.0,64.0 290.2,76.0 294.4,76.0 298.6,76.0 302.8,88.0 307.0,70.0 311.2,64.0 315.4,58.0 319.6,58.0 323.8,70.0 328.0,70.0 332.3,70.0 336.5,76.0 340.7,70.0 344.9,70.0 349.1,70.0 353.3,70.0 357.5,76.0 361.7,82.0 365.9,76.0 370.1,70.0 374.3,70.0 378.5,70.0 382.7,70.0 386.9,76.0 391.1,70.0 395.4,70.0 399.6,70.0 403.8,70.0 408.0,70.0 412.2,70.0 416.4,70.0 420.6,70.0 424.8,70.0 429.0,70.0 433.2,70.0 437.4,70.0 441.6,70.0 445.8,70.0 450.0,70.0 454.2,70.0 458.5,70.0 462.7,70.0 466.9,70.0 471.1,70.0 475.3,70.0 479.5,70.0 483.7,70.0 487.9,70.0 492.1,70.0 496.3,70.0 500.5,70.0 504.7,70.0 508.9,70.0 513.1,70.0 517.3,70.0 521.5,70.0 525.8,70.0 530.0,70.0 534.2,70.0 538.4,70.0 542.6,70.0 546.8,70.0 551.0,70.0 555.2,70.0 559.4,70.0 563.6,70.0 567.8,70.0 572.0,70.0 576.2,70.0 580.4,70.0 584.6,70.0 588.9,70.0 593.1,70.0 597.3,70.0 601.5,70.0 605.7,70.0 609.9,70.0 614.1,70.0 618.3,70.0 622.5,70.0 626.7,70.0 630.9,70.0 635.1,70.0 639.3,70.0 643.5,70.0 647.7,70.0 652.0,70.0 656.2,70.0 660.4,70.0 664.6,70.0 668.8,70.0 673.0,70.0 677.2,76.0 681.4,70.0 685.6,70.0 689.8,70.0 694.0,70.0 698.2,70.0 702.4,76.0 706.6,76.0 710.8,88.0 715.1,88.0 719.3,88.0 723.5,94.0 727.7,94.0 731.9,94.0 736.1,94.0 740.3,88.0 744.5,88.0 748.7,82.0 752.9,82.0 757.1,82.0 761.3,88.0 765.5,88.0 769.7,94.0 773.9,82.0 778.2,82.0 782.4,82.0 786.6,82.0 790.8,88.0 795.0,88.0 799.2,94.0 803.4,94.0 807.6,88.0 811.8,88.0 816.0,88.0 820.2,94.0 824.4,94.0 828.6,106.0 832.8,94.0 837.0,94.0 841.2,94.0 845.5,94.0 849.7,88.0 853.9,88.0 858.1,82.0 862.3,76.0 866.5,76.0 870.7,76.0 874.9,76.0 879.1,76.0 883.3,76.0 887.5,70.0 891.7,70.0 895.9,70.0 900.1,76.0 904.3,88.0 908.6,82.0 912.8,70.0 917.0,70.0 921.2,70.0 925.4,76.0 929.6,76.0 933.8,76.0 938.0,82.0"/><polyline fill="none" stroke="#f59e0b" stroke-width="2.5" stroke-linejoin="round" stroke-linecap="round" points="42.0,274.0 46.2,274.0 50.4,274.0 54.6,280.0 58.8,268.0 63.0,268.0 67.2,268.0 71.4,274.0 75.7,274.0 79.9,274.0 84.1,280.0 88.3,286.0 92.5,286.0 96.7,286.0 100.9,286.0 105.1,286.0 109.3,286.0 113.5,286.0 117.7,286.0 121.9,286.0 126.1,286.0 130.3,286.0 134.5,286.0 138.8,286.0 143.0,286.0 147.2,286.0 151.4,286.0 155.6,286.0 159.8,286.0 164.0,286.0 168.2,286.0 172.4,274.0 176.6,280.0 180.8,280.0 185.0,280.0 189.2,280.0 193.4,286.0 197.6,286.0 201.8,286.0 206.1,274.0 210.3,268.0 214.5,268.0 218.7,262.0 222.9,262.0 227.1,262.0 231.3,262.0 235.5,268.0 239.7,280.0 243.9,280.0 248.1,274.0 252.3,262.0 256.5,268.0 260.7,268.0 264.9,262.0 269.2,268.0 273.4,268.0 277.6,268.0 281.8,280.0 286.0,280.0 290.2,268.0 294.4,268.0 298.6,268.0 302.8,262.0 307.0,274.0 311.2,280.0 315.4,286.0 319.6,286.0 323.8,274.0 328.0,274.0 332.3,274.0 336.5,274.0 340.7,274.0 344.9,274.0 349.1,274.0 353.3,274.0 357.5,280.0 361.7,274.0 365.9,280.0 370.1,286.0 374.3,286.0 378.5,286.0 382.7,286.0 386.9,280.0 391.1,286.0 395.4,286.0 399.6,286.0 403.8,286.0 408.0,286.0 412.2,286.0 416.4,286.0 420.6,286.0 424.8,286.0 429.0,286.0 433.2,286.0 437.4,286.0 441.6,286.0 445.8,286.0 450.0,286.0 454.2,286.0 458.5,286.0 462.7,286.0 466.9,286.0 471.1,286.0 475.3,286.0 479.5,286.0 483.7,286.0 487.9,286.0 492.1,286.0 496.3,286.0 500.5,286.0 504.7,286.0 508.9,286.0 513.1,286.0 517.3,286.0 521.5,286.0 525.8,286.0 530.0,286.0 534.2,286.0 538.4,286.0 542.6,286.0 546.8,286.0 551.0,286.0 555.2,286.0 559.4,286.0 563.6,286.0 567.8,286.0 572.0,286.0 576.2,286.0 580.4,286.0 584.6,286.0 588.9,286.0 593.1,286.0 597.3,286.0 601.5,286.0 605.7,286.0 609.9,286.0 614.1,286.0 618.3,286.0 622.5,286.0 626.7,286.0 630.9,286.0 635.1,286.0 639.3,286.0 643.5,286.0 647.7,286.0 652.0,286.0 656.2,286.0 660.4,286.0 664.6,286.0 668.8,286.0 673.0,286.0 677.2,286.0 681.4,286.0 685.6,286.0 689.8,286.0 694.0,286.0 698.2,286.0 702.4,286.0 706.6,280.0 710.8,268.0 715.1,268.0 719.3,268.0 723.5,268.0 727.7,262.0 731.9,262.0 736.1,262.0 740.3,268.0 744.5,268.0 748.7,274.0 752.9,274.0 757.1,274.0 761.3,268.0 765.5,268.0 769.7,268.0 773.9,274.0 778.2,274.0 782.4,274.0 786.6,274.0 790.8,268.0 795.0,268.0 799.2,262.0 803.4,262.0 807.6,268.0 811.8,268.0 816.0,268.0 820.2,262.0 824.4,262.0 828.6,274.0 832.8,262.0 837.0,262.0 841.2,262.0 845.5,262.0 849.7,268.0 853.9,268.0 858.1,274.0 862.3,280.0 866.5,280.0 870.7,280.0 874.9,280.0 879.1,280.0 883.3,280.0 887.5,286.0 891.7,286.0 895.9,286.0 900.1,280.0 904.3,274.0 908.6,274.0 912.8,280.0 917.0,274.0 921.2,274.0 925.4,268.0 929.6,268.0 933.8,268.0 938.0,268.0"/><polyline fill="none" stroke="#ef4444" stroke-width="2.5" stroke-linejoin="round" stroke-linecap="round" points="42.0,280.0 46.2,280.0 50.4,268.0 54.6,262.0 58.8,286.0 63.0,286.0 67.2,286.0 71.4,286.0 75.7,280.0 79.9,286.0 84.1,286.0 88.3,286.0 92.5,286.0 96.7,286.0 100.9,286.0 105.1,286.0 109.3,286.0 113.5,286.0 117.7,286.0 121.9,286.0 126.1,286.0 130.3,286.0 134.5,286.0 138.8,286.0 143.0,286.0 147.2,286.0 151.4,286.0 155.6,286.0 159.8,286.0 164.0,286.0 168.2,286.0 172.4,286.0 176.6,274.0 180.8,256.0 185.0,286.0 189.2,286.0 193.4,286.0 197.6,286.0 201.8,286.0 206.1,286.0 210.3,286.0 214.5,286.0 218.7,286.0 222.9,286.0 227.1,286.0 231.3,286.0 235.5,286.0 239.7,286.0 243.9,280.0 248.1,286.0 252.3,286.0 256.5,286.0 260.7,286.0 264.9,286.0 269.2,286.0 273.4,286.0 277.6,286.0 281.8,286.0 286.0,286.0 290.2,286.0 294.4,286.0 298.6,286.0 302.8,280.0 307.0,286.0 311.2,286.0 315.4,286.0 319.6,286.0 323.8,286.0 328.0,286.0 332.3,286.0 336.5,286.0 340.7,286.0 344.9,286.0 349.1,286.0 353.3,286.0 357.5,274.0 361.7,274.0 365.9,274.0 370.1,274.0 374.3,274.0 378.5,274.0 382.7,274.0 386.9,274.0 391.1,274.0 395.4,274.0 399.6,274.0 403.8,274.0 408.0,274.0 412.2,274.0 416.4,274.0 420.6,274.0 424.8,274.0 429.0,274.0 433.2,274.0 437.4,274.0 441.6,274.0 445.8,274.0 450.0,274.0 454.2,274.0 458.5,274.0 462.7,274.0 466.9,274.0 471.1,274.0 475.3,274.0 479.5,274.0 483.7,274.0 487.9,274.0 492.1,274.0 496.3,274.0 500.5,274.0 504.7,274.0 508.9,274.0 513.1,274.0 517.3,274.0 521.5,274.0 525.8,274.0 530.0,274.0 534.2,274.0 538.4,274.0 542.6,274.0 546.8,274.0 551.0,274.0 555.2,274.0 559.4,274.0 563.6,274.0 567.8,274.0 572.0,274.0 576.2,274.0 580.4,274.0 584.6,274.0 588.9,274.0 593.1,274.0 597.3,274.0 601.5,274.0 605.7,274.0 609.9,274.0 614.1,274.0 618.3,274.0 622.5,274.0 626.7,274.0 630.9,274.0 635.1,274.0 639.3,274.0 643.5,274.0 647.7,274.0 652.0,274.0 656.2,274.0 660.4,274.0 664.6,274.0 668.8,274.0 673.0,274.0 677.2,268.0 681.4,274.0 685.6,274.0 689.8,274.0 694.0,274.0 698.2,274.0 702.4,274.0 706.6,274.0 710.8,274.0 715.1,274.0 719.3,274.0 723.5,268.0 727.7,274.0 731.9,274.0 736.1,274.0 740.3,274.0 744.5,274.0 748.7,274.0 752.9,274.0 757.1,274.0 761.3,274.0 765.5,274.0 769.7,268.0 773.9,274.0 778.2,274.0 782.4,274.0 786.6,274.0 790.8,274.0 795.0,274.0 799.2,274.0 803.4,274.0 807.6,274.0 811.8,274.0 816.0,274.0 820.2,274.0 824.4,274.0 828.6,250.0 832.8,274.0 837.0,274.0 841.2,274.0 845.5,274.0 849.7,274.0 853.9,274.0 858.1,274.0 862.3,274.0 866.5,274.0 870.7,274.0 874.9,274.0 879.1,274.0 883.3,274.0 887.5,274.0 891.7,274.0 895.9,274.0 900.1,274.0 904.3,268.0 908.6,274.0 912.8,280.0 917.0,286.0 921.2,286.0 925.4,286.0 929.6,286.0 933.8,286.0 938.0,280.0"/><polyline fill="none" stroke="#a855f7" stroke-width="2.5" stroke-linejoin="round" stroke-linecap="round" points="42.0,286.0 46.2,286.0 50.4,286.0 54.6,286.0 58.8,286.0 63.0,286.0 67.2,286.0 71.4,286.0 75.7,286.0 79.9,286.0 84.1,286.0 88.3,286.0 92.5,286.0 96.7,286.0 100.9,286.0 105.1,286.0 109.3,286.0 113.5,286.0 117.7,286.0 121.9,286.0 126.1,286.0 130.3,286.0 134.5,286.0 138.8,286.0 143.0,286.0 147.2,286.0 151.4,286.0 155.6,286.0 159.8,286.0 164.0,286.0 168.2,286.0 172.4,286.0 176.6,286.0 180.8,286.0 185.0,286.0 189.2,286.0 193.4,286.0 197.6,286.0 201.8,286.0 206.1,286.0 210.3,286.0 214.5,286.0 218.7,286.0 222.9,286.0 227.1,286.0 231.3,286.0 235.5,286.0 239.7,286.0 243.9,286.0 248.1,286.0 252.3,286.0 256.5,286.0 260.7,286.0 264.9,286.0 269.2,286.0 273.4,286.0 277.6,286.0 281.8,286.0 286.0,286.0 290.2,286.0 294.4,286.0 298.6,286.0 302.8,286.0 307.0,286.0 311.2,286.0 315.4,286.0 319.6,286.0 323.8,286.0 328.0,286.0 332.3,286.0 336.5,280.0 340.7,286.0 344.9,286.0 349.1,286.0 353.3,286.0 357.5,286.0 361.7,286.0 365.9,286.0 370.1,286.0 374.3,286.0 378.5,286.0 382.7,286.0 386.9,286.0 391.1,286.0 395.4,286.0 399.6,286.0 403.8,286.0 408.0,286.0 412.2,286.0 416.4,286.0 420.6,286.0 424.8,286.0 429.0,286.0 433.2,286.0 437.4,286.0 441.6,286.0 445.8,286.0 450.0,286.0 454.2,286.0 458.5,286.0 462.7,286.0 466.9,286.0 471.1,286.0 475.3,286.0 479.5,286.0 483.7,286.0 487.9,286.0 492.1,286.0 496.3,286.0 500.5,286.0 504.7,286.0 508.9,286.0 513.1,286.0 517.3,286.0 521.5,286.0 525.8,286.0 530.0,286.0 534.2,286.0 538.4,286.0 542.6,286.0 546.8,286.0 551.0,286.0 555.2,286.0 559.4,286.0 563.6,286.0 567.8,286.0 572.0,286.0 576.2,286.0 580.4,286.0 584.6,286.0 588.9,286.0 593.1,286.0 597.3,286.0 601.5,286.0 605.7,286.0 609.9,286.0 614.1,286.0 618.3,286.0 622.5,286.0 626.7,286.0 630.9,286.0 635.1,286.0 639.3,286.0 643.5,286.0 647.7,286.0 652.0,286.0 656.2,286.0 660.4,286.0 664.6,286.0 668.8,286.0 673.0,286.0 677.2,286.0 681.4,286.0 685.6,286.0 689.8,286.0 694.0,286.0 698.2,286.0 702.4,280.0 706.6,286.0 710.8,286.0 715.1,286.0 719.3,286.0 723.5,286.0 727.7,286.0 731.9,286.0 736.1,286.0 740.3,286.0 744.5,286.0 748.7,286.0 752.9,286.0 757.1,286.0 761.3,286.0 765.5,286.0 769.7,286.0 773.9,286.0 778.2,286.0 782.4,286.0 786.6,286.0 790.8,286.0 795.0,286.0 799.2,286.0 803.4,286.0 807.6,286.0 811.8,286.0 816.0,286.0 820.2,286.0 824.4,286.0 828.6,286.0 832.8,286.0 837.0,286.0 841.2,286.0 845.5,286.0 849.7,286.0 853.9,286.0 858.1,286.0 862.3,286.0 866.5,286.0 870.7,286.0 874.9,286.0 879.1,286.0 883.3,286.0 887.5,286.0 891.7,286.0 895.9,286.0 900.1,286.0 904.3,286.0 908.6,286.0 912.8,286.0 917.0,286.0 921.2,286.0 925.4,286.0 929.6,286.0 933.8,286.0 938.0,286.0"/><text x="42" y="308" font-size="11" fill="#9fb0d4">19/06 12:43</text><text x="938" y="308" text-anchor="end" font-size="11" fill="#9fb0d4">01/07 16:36</text></svg>