<svg xmlns="http://www.w3.org/2000/svg" viewBox="0 0 960 320" width="960" height="320" font-family="Segoe UI, system-ui, -apple-system, Roboto, Helvetica, Arial, sans-serif" role="img" aria-label="Availability history per region"><rect x="0.5" y="0.5" width="959" height="319" rx="14" fill="#0d1117" stroke="#2c3a5e"/><text x="42" y="26" font-size="14" font-weight="600" fill="#e6ecff">History · 303 points</text><circle cx="47" cy="40" r="5" fill="#22c55e"/><text x="57" y="44" font-size="12" fill="#9fb0d4">Available</text><circle cx="139.8" cy="40" r="5" fill="#f59e0b"/><text x="149.8" y="44" font-size="12" fill="#9fb0d4">Saturated</text><circle cx="232.60000000000002" cy="40" r="5" fill="#ef4444"/><text x="242.60000000000002" y="44" font-size="12" fill="#9fb0d4">Error</text><circle cx="296.6" cy="40" r="5" fill="#a855f7"/><text x="306.6" y="44" font-size="12" fill="#9fb0d4">Timeout</text><line x1="42" y1="286.0" x2="938" y2="286.0" stroke="#21304f" stroke-width="1"/><text x="35" y="289.0" text-anchor="end" font-size="11" fill="#9fb0d4">0</text><line x1="42" y1="227.5" x2="938" y2="227.5" stroke="#21304f" stroke-width="1"/><text x="35" y="230.5" text-anchor="end" font-size="11" fill="#9fb0d4">10</text><line x1="42" y1="169.0" x2="938" y2="169.0" stroke="#21304f" stroke-width="1"/><text x="35" y="172.0" text-anchor="end" font-size="11" fill="#9fb0d4">20</text><line x1="42" y1="110.5" x2="938" y2="110.5" stroke="#21304f" stroke-width="1"/><text x="35" y="113.5" text-anchor="end" font-size="11" fill="#9fb0d4">29</text><line x1="42" y1="52.0" x2="938" y2="52.0" stroke="#21304f" stroke-width="1"/><text x="35" y="55.0" text-anchor="end" font-size="11" fill="#9fb0d4">39</text><polyline fill="none" stroke="#22c55e" stroke-width="2.5" stroke-linejoin="round" stroke-linecap="round" points="42.0,70.0 45.0,70.0 47.9,88.0 50.9,88.0 53.9,76.0 56.8,76.0 59.8,76.0 62.8,70.0 65.7,76.0 68.7,70.0 71.7,64.0 74.6,58.0 77.6,58.0 80.6,58.0 83.5,58.0 86.5,58.0 89.5,58.0 92.4,58.0 95.4,58.0 98.4,58.0 101.3,58.0 104.3,58.0 107.3,58.0 110.2,58.0 113.2,58.0 116.2,58.0 119.1,58.0 122.1,58.0 125.1,58.0 128.0,58.0 131.0,58.0 134.0,70.0 136.9,76.0 139.9,94.0 142.9,64.0 145.8,64.0 148.8,58.0 151.8,58.0 154.7,58.0 157.7,70.0 160.7,76.0 163.6,76.0 166.6,82.0 169.6,82.0 172.5,82.0 175.5,82.0 178.5,76.0 181.4,64.0 184.4,70.0 187.4,70.0 190.3,82.0 193.3,76.0 196.3,76.0 199.2,82.0 202.2,76.0 205.2,76.0 208.1,76.0 211.1,64.0 214.1,64.0 217.0,76.0 220.0,76.0 223.0,76.0 225.9,88.0 228.9,70.0 231.9,64.0 234.8,58.0 237.8,58.0 240.8,70.0 243.7,70.0 246.7,70.0 249.7,76.0 252.6,70.0 255.6,70.0 258.6,70.0 261.5,70.0 264.5,76.0 267.5,82.0 270.5,76.0 273.4,70.0 276.4,70.0 279.4,70.0 282.3,70.0 285.3,76.0 288.3,70.0 291.2,70.0 294.2,70.0 297.2,70.0 300.1,70.0 303.1,70.0 306.1,70.0 309.0,70.0 312.0,70.0 315.0,70.0 317.9,70.0 320.9,70.0 323.9,70.0 326.8,70.0 329.8,70.0 332.8,70.0 335.7,70.0 338.7,70.0 341.7,70.0 344.6,70.0 347.6,70.0 350.6,70.0 353.5,70.0 356.5,70.0 359.5,70.0 362.4,70.0 365.4,70.0 368.4,70.0 371.3,70.0 374.3,70.0 377.3,70.0 380.2,70.0 383.2,70.0 386.2,70.0 389.1,70.0 392.1,70.0 395.1,70.0 398.0,70.0 401.0,70.0 404.0,70.0 406.9,70.0 409.9,70.0 412.9,70.0 415.8,70.0 418.8,70.0 421.8,70.0 424.7,70.0 427.7,70.0 430.7,70.0 433.6,70.0 436.6,70.0 439.6,70.0 442.5,70.0 445.5,70.0 448.5,70.0 451.4,70.0 454.4,70.0 457.4,70.0 460.3,70.0 463.3,70.0 466.3,70.0 469.2,70.0 472.2,70.0 475.2,70.0 478.1,70.0 481.1,70.0 484.1,70.0 487.0,70.0 490.0,76.0 493.0,70.0 495.9,70.0 498.9,70.0 501.9,70.0 504.8,70.0 507.8,76.0 510.8,76.0 513.7,88.0 516.7,88.0 519.7,88.0 522.6,94.0 525.6,94.0 528.6,94.0 531.5,94.0 534.5,88.0 537.5,88.0 540.4,82.0 543.4,82.0 546.4,82.0 549.3,88.0 552.3,88.0 555.3,94.0 558.2,82.0 561.2,82.0 564.2,82.0 567.1,82.0 570.1,88.0 573.1,88.0 576.0,94.0 579.0,94.0 582.0,88.0 584.9,88.0 587.9,88.0 590.9,94.0 593.8,94.0 596.8,106.0 599.8,94.0 602.7,94.0 605.7,94.0 608.7,94.0 611.6,88.0 614.6,88.0 617.6,82.0 620.5,76.0 623.5,76.0 626.5,76.0 629.4,76.0 632.4,76.0 635.4,76.0 638.3,70.0 641.3,70.0 644.3,70.0 647.2,76.0 650.2,88.0 653.2,82.0 656.1,70.0 659.1,70.0 662.1,70.0 665.0,76.0 668.0,76.0 671.0,76.0 673.9,82.0 676.9,70.0 679.9,76.0 682.8,64.0 685.8,70.0 688.8,58.0 691.7,58.0 694.7,58.0 697.7,58.0 700.6,58.0 703.6,64.0 706.6,58.0 709.5,64.0 712.5,58.0 715.5,58.0 718.5,58.0 721.4,58.0 724.4,64.0 727.4,64.0 730.3,64.0 733.3,76.0 736.3,70.0 739.2,82.0 742.2,70.0 745.2,76.0 748.1,58.0 751.1,64.0 754.1,58.0 757.0,64.0 760.0,58.0 763.0,58.0 765.9,58.0 768.9,64.0 771.9,70.0 774.8,64.0 777.8,64.0 780.8,64.0 783.7,70.0 786.7,70.0 789.7,64.0 792.6,70.0 795.6,70.0 798.6,70.0 801.5,58.0 804.5,58.0 807.5,58.0 810.4,58.0 813.4,58.0 816.4,64.0 819.3,58.0 822.3,58.0 825.3,58.0 828.2,58.0 831.2,58.0 834.2,58.0 837.1,58.0 840.1,58.0 843.1,64.0 846.0,58.0 849.0,58.0 852.0,58.0 854.9,58.0 857.9,58.0 860.9,58.0 863.8,58.0 866.8,64.0 869.8,58.0 872.7,58.0 875.7,58.0 878.7,58.0 881.6,58.0 884.6,58.0 887.6,58.0 890.5,58.0 893.5,58.0 896.5,58.0 899.4,58.0 902.4,58.0 905.4,58.0 908.3,58.0 911.3,58.0 914.3,58.0 917.2,58.0 920.2,58.0 923.2,58.0 926.1,64.0 929.1,64.0 932.1,58.0 935.0,58.0 938.0,58.0"/><polyline fill="none" stroke="#f59e0b" stroke-width="2.5" stroke-linejoin="round" stroke-linecap="round" points="42.0,274.0 45.0,274.0 47.9,274.0 50.9,280.0 53.9,268.0 56.8,268.0 59.8,268.0 62.8,274.0 65.7,274.0 68.7,274.0 71.7,280.0 74.6,286.0 77.6,286.0 80.6,286.0 83.5,286.0 86.5,286.0 89.5,286.0 92.4,286.0 95.4,286.0 98.4,286.0 101.3,286.0 104.3,286.0 107.3,286.0 110.2,286.0 113.2,286.0 116.2,286.0 119.1,286.0 122.1,286.0 125.1,286.0 128.0,286.0 131.0,286.0 134.0,274.0 136.9,280.0 139.9,280.0 142.9,280.0 145.8,280.0 148.8,286.0 151.8,286.0 154.7,286.0 157.7,274.0 160.7,268.0 163.6,268.0 166.6,262.0 169.6,262.0 172.5,262.0 175.5,262.0 178.5,268.0 181.4,280.0 184.4,280.0 187.4,274.0 190.3,262.0 193.3,268.0 196.3,268.0 199.2,262.0 202.2,268.0 205.2,268.0 208.1,268.0 211.1,280.0 214.1,280.0 217.0,268.0 220.0,268.0 223.0,268.0 225.9,262.0 228.9,274.0 231.9,280.0 234.8,286.0 237.8,286.0 240.8,274.0 243.7,274.0 246.7,274.0 249.7,274.0 252.6,274.0 255.6,274.0 258.6,274.0 261.5,274.0 264.5,280.0 267.5,274.0 270.5,280.0 273.4,286.0 276.4,286.0 279.4,286.0 282.3,286.0 285.3,280.0 288.3,286.0 291.2,286.0 294.2,286.0 297.2,286.0 300.1,286.0 303.1,286.0 306.1,286.0 309.0,286.0 312.0,286.0 315.0,286.0 317.9,286.0 320.9,286.0 323.9,286.0 326.8,286.0 329.8,286.0 332.8,286.0 335.7,286.0 338.7,286.0 341.7,286.0 344.6,286.0 347.6,286.0 350.6,286.0 353.5,286.0 356.5,286.0 359.5,286.0 362.4,286.0 365.4,286.0 368.4,286.0 371.3,286.0 374.3,286.0 377.3,286.0 380.2,286.0 383.2,286.0 386.2,286.0 389.1,286.0 392.1,286.0 395.1,286.0 398.0,286.0 401.0,286.0 404.0,286.0 406.9,286.0 409.9,286.0 412.9,286.0 415.8,286.0 418.8,286.0 421.8,286.0 424.7,286.0 427.7,286.0 430.7,286.0 433.6,286.0 436.6,286.0 439.6,286.0 442.5,286.0 445.5,286.0 448.5,286.0 451.4,286.0 454.4,286.0 457.4,286.0 460.3,286.0 463.3,286.0 466.3,286.0 469.2,286.0 472.2,286.0 475.2,286.0 478.1,286.0 481.1,286.0 484.1,286.0 487.0,286.0 490.0,286.0 493.0,286.0 495.9,286.0 498.9,286.0 501.9,286.0 504.8,286.0 507.8,286.0 510.8,280.0 513.7,268.0 516.7,268.0 519.7,268.0 522.6,268.0 525.6,262.0 528.6,262.0 531.5,262.0 534.5,268.0 537.5,268.0 540.4,274.0 543.4,274.0 546.4,274.0 549.3,268.0 552.3,268.0 555.3,268.0 558.2,274.0 561.2,274.0 564.2,274.0 567.1,274.0 570.1,268.0 573.1,268.0 576.0,262.0 579.0,262.0 582.0,268.0 584.9,268.0 587.9,268.0 590.9,262.0 593.8,262.0 596.8,274.0 599.8,262.0 602.7,262.0 605.7,262.0 608.7,262.0 611.6,268.0 614.6,268.0 617.6,274.0 620.5,280.0 623.5,280.0 626.5,280.0 629.4,280.0 632.4,280.0 635.4,280.0 638.3,286.0 641.3,286.0 644.3,286.0 647.2,280.0 650.2,274.0 653.2,274.0 656.1,280.0 659.1,274.0 662.1,274.0 665.0,268.0 668.0,268.0 671.0,268.0 673.9,268.0 676.9,280.0 679.9,274.0 682.8,280.0 685.8,280.0 688.8,286.0 691.7,286.0 694.7,286.0 697.7,286.0 700.6,286.0 703.6,286.0 706.6,286.0 709.5,286.0 712.5,286.0 715.5,286.0 718.5,286.0 721.4,286.0 724.4,280.0 727.4,280.0 730.3,280.0 733.3,268.0 736.3,280.0 739.2,268.0 742.2,274.0 745.2,274.0 748.1,286.0 751.1,280.0 754.1,286.0 757.0,280.0 760.0,286.0 763.0,286.0 765.9,286.0 768.9,280.0 771.9,274.0 774.8,280.0 777.8,280.0 780.8,280.0 783.7,274.0 786.7,274.0 789.7,280.0 792.6,280.0 795.6,280.0 798.6,280.0 801.5,286.0 804.5,286.0 807.5,286.0 810.4,286.0 813.4,286.0 816.4,286.0 819.3,286.0 822.3,286.0 825.3,286.0 828.2,286.0 831.2,286.0 834.2,286.0 837.1,286.0 840.1,286.0 843.1,286.0 846.0,286.0 849.0,286.0 852.0,286.0 854.9,286.0 857.9,286.0 860.9,286.0 863.8,286.0 866.8,286.0 869.8,286.0 872.7,286.0 875.7,286.0 878.7,286.0 881.6,286.0 884.6,286.0 887.6,286.0 890.5,286.0 893.5,286.0 896.5,286.0 899.4,286.0 902.4,286.0 905.4,286.0 908.3,286.0 911.3,286.0 914.3,286.0 917.2,286.0 920.2,286.0 923.2,286.0 926.1,286.0 929.1,286.0 932.1,286.0 935.0,286.0 938.0,286.0"/><polyline fill="none" stroke="#ef4444" stroke-width="2.5" stroke-linejoin="round" stroke-linecap="round" points="42.0,280.0 45.0,280.0 47.9,268.0 50.9,262.0 53.9,286.0 56.8,286.0 59.8,286.0 62.8,286.0 65.7,280.0 68.7,286.0 71.7,286.0 74.6,286.0 77.6,286.0 80.6,286.0 83.5,286.0 86.5,286.0 89.5,286.0 92.4,286.0 95.4,286.0 98.4,286.0 101.3,286.0 104.3,286.0 107.3,286.0 110.2,286.0 113.2,286.0 116.2,286.0 119.1,286.0 122.1,286.0 125.1,286.0 128.0,286.0 131.0,286.0 134.0,286.0 136.9,274.0 139.9,256.0 142.9,286.0 145.8,286.0 148.8,286.0 151.8,286.0 154.7,286.0 157.7,286.0 160.7,286.0 163.6,286.0 166.6,286.0 169.6,286.0 172.5,286.0 175.5,286.0 178.5,286.0 181.4,286.0 184.4,280.0 187.4,286.0 190.3,286.0 193.3,286.0 196.3,286.0 199.2,286.0 202.2,286.0 205.2,286.0 208.1,286.0 211.1,286.0 214.1,286.0 217.0,286.0 220.0,286.0 223.0,286.0 225.9,280.0 228.9,286.0 231.9,286.0 234.8,286.0 237.8,286.0 240.8,286.0 243.7,286.0 246.7,286.0 249.7,286.0 252.6,286.0 255.6,286.0 258.6,286.0 261.5,286.0 264.5,274.0 267.5,274.0 270.5,274.0 273.4,274.0 276.4,274.0 279.4,274.0 282.3,274.0 285.3,274.0 288.3,274.0 291.2,274.0 294.2,274.0 297.2,274.0 300.1,274.0 303.1,274.0 306.1,274.0 309.0,274.0 312.0,274.0 315.0,274.0 317.9,274.0 320.9,274.0 323.9,274.0 326.8,274.0 329.8,274.0 332.8,274.0 335.7,274.0 338.7,274.0 341.7,274.0 344.6,274.0 347.6,274.0 350.6,274.0 353.5,274.0 356.5,274.0 359.5,274.0 362.4,274.0 365.4,274.0 368.4,274.0 371.3,274.0 374.3,274.0 377.3,274.0 380.2,274.0 383.2,274.0 386.2,274.0 389.1,274.0 392.1,274.0 395.1,274.0 398.0,274.0 401.0,274.0 404.0,274.0 406.9,274.0 409.9,274.0 412.9,274.0 415.8,274.0 418.8,274.0 421.8,274.0 424.7,274.0 427.7,274.0 430.7,274.0 433.6,274.0 436.6,274.0 439.6,274.0 442.5,274.0 445.5,274.0 448.5,274.0 451.4,274.0 454.4,274.0 457.4,274.0 460.3,274.0 463.3,274.0 466.3,274.0 469.2,274.0 472.2,274.0 475.2,274.0 478.1,274.0 481.1,274.0 484.1,274.0 487.0,274.0 490.0,268.0 493.0,274.0 495.9,274.0 498.9,274.0 501.9,274.0 504.8,274.0 507.8,274.0 510.8,274.0 513.7,274.0 516.7,274.0 519.7,274.0 522.6,268.0 525.6,274.0 528.6,274.0 531.5,274.0 534.5,274.0 537.5,274.0 540.4,274.0 543.4,274.0 546.4,274.0 549.3,274.0 552.3,274.0 555.3,268.0 558.2,274.0 561.2,274.0 564.2,274.0 567.1,274.0 570.1,274.0 573.1,274.0 576.0,274.0 579.0,274.0 582.0,274.0 584.9,274.0 587.9,274.0 590.9,274.0 593.8,274.0 596.8,250.0 599.8,274.0 602.7,274.0 605.7,274.0 608.7,274.0 611.6,274.0 614.6,274.0 617.6,274.0 620.5,274.0 623.5,274.0 626.5,274.0 629.4,274.0 632.4,274.0 635.4,274.0 638.3,274.0 641.3,274.0 644.3,274.0 647.2,274.0 650.2,268.0 653.2,274.0 656.1,280.0 659.1,286.0 662.1,286.0 665.0,286.0 668.0,286.0 671.0,286.0 673.9,280.0 676.9,280.0 679.9,286.0 682.8,286.0 685.8,280.0 688.8,286.0 691.7,286.0 694.7,286.0 697.7,286.0 700.6,286.0 703.6,280.0 706.6,286.0 709.5,286.0 712.5,286.0 715.5,286.0 718.5,286.0 721.4,286.0 724.4,286.0 727.4,286.0 730.3,286.0 733.3,286.0 736.3,280.0 739.2,280.0 742.2,286.0 745.2,280.0 748.1,286.0 751.1,286.0 754.1,286.0 757.0,286.0 760.0,286.0 763.0,286.0 765.9,286.0 768.9,286.0 771.9,286.0 774.8,286.0 777.8,286.0 780.8,286.0 783.7,286.0 786.7,286.0 789.7,286.0 792.6,280.0 795.6,286.0 798.6,280.0 801.5,286.0 804.5,286.0 807.5,286.0 810.4,286.0 813.4,286.0 816.4,286.0 819.3,286.0 822.3,286.0 825.3,286.0 828.2,286.0 831.2,286.0 834.2,286.0 837.1,286.0 840.1,286.0 843.1,280.0 846.0,286.0 849.0,286.0 852.0,286.0 854.9,286.0 857.9,286.0 860.9,286.0 863.8,286.0 866.8,286.0 869.8,286.0 872.7,286.0 875.7,286.0 878.7,286.0 881.6,286.0 884.6,286.0 887.6,286.0 890.5,286.0 893.5,286.0 896.5,286.0 899.4,286.0 902.4,286.0 905.4,286.0 908.3,286.0 911.3,286.0 914.3,286.0 917.2,286.0 920.2,286.0 923.2,286.0 926.1,280.0 929.1,280.0 932.1,286.0 935.0,286.0 938.0,286.0"/><polyline fill="none" stroke="#a855f7" stroke-width="2.5" stroke-linejoin="round" stroke-linecap="round" points="42.0,286.0 45.0,286.0 47.9,286.0 50.9,286.0 53.9,286.0 56.8,286.0 59.8,286.0 62.8,286.0 65.7,286.0 68.7,286.0 71.7,286.0 74.6,286.0 77.6,286.0 80.6,286.0 83.5,286.0 86.5,286.0 89.5,286.0 92.4,286.0 95.4,286.0 98.4,286.0 101.3,286.0 104.3,286.0 107.3,286.0 110.2,286.0 113.2,286.0 116.2,286.0 119.1,286.0 122.1,286.0 125.1,286.0 128.0,286.0 131.0,286.0 134.0,286.0 136.9,286.0 139.9,286.0 142.9,286.0 145.8,286.0 148.8,286.0 151.8,286.0 154.7,286.0 157.7,286.0 160.7,286.0 163.6,286.0 166.6,286.0 169.6,286.0 172.5,286.0 175.5,286.0 178.5,286.0 181.4,286.0 184.4,286.0 187.4,286.0 190.3,286.0 193.3,286.0 196.3,286.0 199.2,286.0 202.2,286.0 205.2,286.0 208.1,286.0 211.1,286.0 214.1,286.0 217.0,286.0 220.0,286.0 223.0,286.0 225.9,286.0 228.9,286.0 231.9,286.0 234.8,286.0 237.8,286.0 240.8,286.0 243.7,286.0 246.7,286.0 249.7,280.0 252.6,286.0 255.6,286.0 258.6,286.0 261.5,286.0 264.5,286.0 267.5,286.0 270.5,286.0 273.4,286.0 276.4,286.0 279.4,286.0 282.3,286.0 285.3,286.0 288.3,286.0 291.2,286.0 294.2,286.0 297.2,286.0 300.1,286.0 303.1,286.0 306.1,286.0 309.0,286.0 312.0,286.0 315.0,286.0 317.9,286.0 320.9,286.0 323.9,286.0 326.8,286.0 329.8,286.0 332.8,286.0 335.7,286.0 338.7,286.0 341.7,286.0 344.6,286.0 347.6,286.0 350.6,286.0 353.5,286.0 356.5,286.0 359.5,286.0 362.4,286.0 365.4,286.0 368.4,286.0 371.3,286.0 374.3,286.0 377.3,286.0 380.2,286.0 383.2,286.0 386.2,286.0 389.1,286.0 392.1,286.0 395.1,286.0 398.0,286.0 401.0,286.0 404.0,286.0 406.9,286.0 409.9,286.0 412.9,286.0 415.8,286.0 418.8,286.0 421.8,286.0 424.7,286.0 427.7,286.0 430.7,286.0 433.6,286.0 436.6,286.0 439.6,286.0 442.5,286.0 445.5,286.0 448.5,286.0 451.4,286.0 454.4,286.0 457.4,286.0 460.3,286.0 463.3,286.0 466.3,286.0 469.2,286.0 472.2,286.0 475.2,286.0 478.1,286.0 481.1,286.0 484.1,286.0 487.0,286.0 490.0,286.0 493.0,286.0 495.9,286.0 498.9,286.0 501.9,286.0 504.8,286.0 507.8,280.0 510.8,286.0 513.7,286.0 516.7,286.0 519.7,286.0 522.6,286.0 525.6,286.0 528.6,286.0 531.5,286.0 534.5,286.0 537.5,286.0 540.4,286.0 543.4,286.0 546.4,286.0 549.3,286.0 552.3,286.0 555.3,286.0 558.2,286.0 561.2,286.0 564.2,286.0 567.1,286.0 570.1,286.0 573.1,286.0 576.0,286.0 579.0,286.0 582.0,286.0 584.9,286.0 587.9,286.0 590.9,286.0 593.8,286.0 596.8,286.0 599.8,286.0 602.7,286.0 605.7,286.0 608.7,286.0 611.6,286.0 614.6,286.0 617.6,286.0 620.5,286.0 623.5,286.0 626.5,286.0 629.4,286.0 632.4,286.0 635.4,286.0 638.3,286.0 641.3,286.0 644.3,286.0 647.2,286.0 650.2,286.0 653.2,286.0 656.1,286.0 659.1,286.0 662.1,286.0 665.0,286.0 668.0,286.0 671.0,286.0 673.9,286.0 676.9,286.0 679.9,280.0 682.8,286.0 685.8,286.0 688.8,286.0 691.7,286.0 694.7,286.0 697.7,286.0 700.6,286.0 703.6,286.0 706.6,286.0 709.5,280.0 712.5,286.0 715.5,286.0 718.5,286.0 721.4,286.0 724.4,286.0 727.4,286.0 730.3,286.0 733.3,286.0 736.3,286.0 739.2,286.0 742.2,286.0 745.2,286.0 748.1,286.0 751.1,286.0 754.1,286.0 757.0,286.0 760.0,286.0 763.0,286.0 765.9,286.0 768.9,286.0 771.9,286.0 774.8,286.0 777.8,286.0 780.8,286.0 783.7,286.0 786.7,286.0 789.7,286.0 792.6,286.0 795.6,280.0 798.6,286.0 801.5,286.0 804.5,286.0 807.5,286.0 810.4,286.0 813.4,286.0 816.4,280.0 819.3,286.0 822.3,286.0 825.3,286.0 828.2,286.0 831.2,286.0 834.2,286.0 837.1,286.0 840.1,286.0 843.1,286.0 846.0,286.0 849.0,286.0 852.0,286.0 854.9,286.0 857.9,286.0 860.9,286.0 863.8,286.0 866.8,280.0 869.8,286.0 872.7,286.0 875.7,286.0 878.7,286.0 881.6,286.0 884.6,286.0 887.6,286.0 890.5,286.0 893.5,286.0 896.5,286.0 899.4,286.0 902.4,286.0 905.4,286.0 908.3,286.0 911.3,286.0 914.3,286.0 917.2,286.0 920.2,286.0 923.2,286.0 926.1,286.0 929.1,286.0 932.1,286.0 935.0,286.0 938.0,286.0"/><text x="42" y="308" font-size="11" fill="#9fb0d4">19/06 12:43</text><text x="938" y="308" text-anchor="end" font-size="11" fill="#9fb0d4">06/07 08:31</text></svg>