<svg xmlns="http://www.w3.org/2000/svg" viewBox="0 0 960 320" width="960" height="320" font-family="Segoe UI, system-ui, -apple-system, Roboto, Helvetica, Arial, sans-serif" role="img" aria-label="Availability history per region"><rect x="0.5" y="0.5" width="959" height="319" rx="14" fill="#ffffff" stroke="#dce3f1"/><text x="42" y="26" font-size="14" font-weight="600" fill="#14203a">History · 160 points</text><circle cx="47" cy="40" r="5" fill="#22c55e"/><text x="57" y="44" font-size="12" fill="#5a688a">Available</text><circle cx="139.8" cy="40" r="5" fill="#f59e0b"/><text x="149.8" y="44" font-size="12" fill="#5a688a">Saturated</text><circle cx="232.60000000000002" cy="40" r="5" fill="#ef4444"/><text x="242.60000000000002" y="44" font-size="12" fill="#5a688a">Error</text><circle cx="296.6" cy="40" r="5" fill="#a855f7"/><text x="306.6" y="44" font-size="12" fill="#5a688a">Timeout</text><line x1="42" y1="286.0" x2="938" y2="286.0" stroke="#eef2f7" stroke-width="1"/><text x="35" y="289.0" text-anchor="end" font-size="11" fill="#5a688a">0</text><line x1="42" y1="227.5" x2="938" y2="227.5" stroke="#eef2f7" stroke-width="1"/><text x="35" y="230.5" text-anchor="end" font-size="11" fill="#5a688a">10</text><line x1="42" y1="169.0" x2="938" y2="169.0" stroke="#eef2f7" stroke-width="1"/><text x="35" y="172.0" text-anchor="end" font-size="11" fill="#5a688a">20</text><line x1="42" y1="110.5" x2="938" y2="110.5" stroke="#eef2f7" stroke-width="1"/><text x="35" y="113.5" text-anchor="end" font-size="11" fill="#5a688a">29</text><line x1="42" y1="52.0" x2="938" y2="52.0" stroke="#eef2f7" stroke-width="1"/><text x="35" y="55.0" text-anchor="end" font-size="11" fill="#5a688a">39</text><polyline fill="none" stroke="#22c55e" stroke-width="2.5" stroke-linejoin="round" stroke-linecap="round" points="42.0,70.0 47.6,70.0 53.3,88.0 58.9,88.0 64.5,76.0 70.2,76.0 75.8,76.0 81.4,70.0 87.1,76.0 92.7,70.0 98.4,64.0 104.0,58.0 109.6,58.0 115.3,58.0 120.9,58.0 126.5,58.0 132.2,58.0 137.8,58.0 143.4,58.0 149.1,58.0 154.7,58.0 160.3,58.0 166.0,58.0 171.6,58.0 177.2,58.0 182.9,58.0 188.5,58.0 194.2,58.0 199.8,58.0 205.4,58.0 211.1,58.0 216.7,70.0 222.3,76.0 228.0,94.0 233.6,64.0 239.2,64.0 244.9,58.0 250.5,58.0 256.1,58.0 261.8,70.0 267.4,76.0 273.0,76.0 278.7,82.0 284.3,82.0 289.9,82.0 295.6,82.0 301.2,76.0 306.9,64.0 312.5,70.0 318.1,70.0 323.8,82.0 329.4,76.0 335.0,76.0 340.7,82.0 346.3,76.0 351.9,76.0 357.6,76.0 363.2,64.0 368.8,64.0 374.5,76.0 380.1,76.0 385.7,76.0 391.4,88.0 397.0,70.0 402.7,64.0 408.3,58.0 413.9,58.0 419.6,70.0 425.2,70.0 430.8,70.0 436.5,76.0 442.1,70.0 447.7,70.0 453.4,70.0 459.0,70.0 464.6,76.0 470.3,82.0 475.9,76.0 481.5,70.0 487.2,70.0 492.8,70.0 498.5,70.0 504.1,76.0 509.7,70.0 515.4,70.0 521.0,70.0 526.6,70.0 532.3,70.0 537.9,70.0 543.5,70.0 549.2,70.0 554.8,70.0 560.4,70.0 566.1,70.0 571.7,70.0 577.3,70.0 583.0,70.0 588.6,70.0 594.3,70.0 599.9,70.0 605.5,70.0 611.2,70.0 616.8,70.0 622.4,70.0 628.1,70.0 633.7,70.0 639.3,70.0 645.0,70.0 650.6,70.0 656.2,70.0 661.9,70.0 667.5,70.0 673.1,70.0 678.8,70.0 684.4,70.0 690.1,70.0 695.7,70.0 701.3,70.0 707.0,70.0 712.6,70.0 718.2,70.0 723.9,70.0 729.5,70.0 735.1,70.0 740.8,70.0 746.4,70.0 752.0,70.0 757.7,70.0 763.3,70.0 768.9,70.0 774.6,70.0 780.2,70.0 785.8,70.0 791.5,70.0 797.1,70.0 802.8,70.0 808.4,70.0 814.0,70.0 819.7,70.0 825.3,70.0 830.9,70.0 836.6,70.0 842.2,70.0 847.8,70.0 853.5,70.0 859.1,70.0 864.7,70.0 870.4,70.0 876.0,70.0 881.6,70.0 887.3,70.0 892.9,76.0 898.6,70.0 904.2,70.0 909.8,70.0 915.5,70.0 921.1,70.0 926.7,76.0 932.4,76.0 938.0,88.0"/><polyline fill="none" stroke="#f59e0b" stroke-width="2.5" stroke-linejoin="round" stroke-linecap="round" points="42.0,274.0 47.6,274.0 53.3,274.0 58.9,280.0 64.5,268.0 70.2,268.0 75.8,268.0 81.4,274.0 87.1,274.0 92.7,274.0 98.4,280.0 104.0,286.0 109.6,286.0 115.3,286.0 120.9,286.0 126.5,286.0 132.2,286.0 137.8,286.0 143.4,286.0 149.1,286.0 154.7,286.0 160.3,286.0 166.0,286.0 171.6,286.0 177.2,286.0 182.9,286.0 188.5,286.0 194.2,286.0 199.8,286.0 205.4,286.0 211.1,286.0 216.7,274.0 222.3,280.0 228.0,280.0 233.6,280.0 239.2,280.0 244.9,286.0 250.5,286.0 256.1,286.0 261.8,274.0 267.4,268.0 273.0,268.0 278.7,262.0 284.3,262.0 289.9,262.0 295.6,262.0 301.2,268.0 306.9,280.0 312.5,280.0 318.1,274.0 323.8,262.0 329.4,268.0 335.0,268.0 340.7,262.0 346.3,268.0 351.9,268.0 357.6,268.0 363.2,280.0 368.8,280.0 374.5,268.0 380.1,268.0 385.7,268.0 391.4,262.0 397.0,274.0 402.7,280.0 408.3,286.0 413.9,286.0 419.6,274.0 425.2,274.0 430.8,274.0 436.5,274.0 442.1,274.0 447.7,274.0 453.4,274.0 459.0,274.0 464.6,280.0 470.3,274.0 475.9,280.0 481.5,286.0 487.2,286.0 492.8,286.0 498.5,286.0 504.1,280.0 509.7,286.0 515.4,286.0 521.0,286.0 526.6,286.0 532.3,286.0 537.9,286.0 543.5,286.0 549.2,286.0 554.8,286.0 560.4,286.0 566.1,286.0 571.7,286.0 577.3,286.0 583.0,286.0 588.6,286.0 594.3,286.0 599.9,286.0 605.5,286.0 611.2,286.0 616.8,286.0 622.4,286.0 628.1,286.0 633.7,286.0 639.3,286.0 645.0,286.0 650.6,286.0 656.2,286.0 661.9,286.0 667.5,286.0 673.1,286.0 678.8,286.0 684.4,286.0 690.1,286.0 695.7,286.0 701.3,286.0 707.0,286.0 712.6,286.0 718.2,286.0 723.9,286.0 729.5,286.0 735.1,286.0 740.8,286.0 746.4,286.0 752.0,286.0 757.7,286.0 763.3,286.0 768.9,286.0 774.6,286.0 780.2,286.0 785.8,286.0 791.5,286.0 797.1,286.0 802.8,286.0 808.4,286.0 814.0,286.0 819.7,286.0 825.3,286.0 830.9,286.0 836.6,286.0 842.2,286.0 847.8,286.0 853.5,286.0 859.1,286.0 864.7,286.0 870.4,286.0 876.0,286.0 881.6,286.0 887.3,286.0 892.9,286.0 898.6,286.0 904.2,286.0 909.8,286.0 915.5,286.0 921.1,286.0 926.7,286.0 932.4,280.0 938.0,268.0"/><polyline fill="none" stroke="#ef4444" stroke-width="2.5" stroke-linejoin="round" stroke-linecap="round" points="42.0,280.0 47.6,280.0 53.3,268.0 58.9,262.0 64.5,286.0 70.2,286.0 75.8,286.0 81.4,286.0 87.1,280.0 92.7,286.0 98.4,286.0 104.0,286.0 109.6,286.0 115.3,286.0 120.9,286.0 126.5,286.0 132.2,286.0 137.8,286.0 143.4,286.0 149.1,286.0 154.7,286.0 160.3,286.0 166.0,286.0 171.6,286.0 177.2,286.0 182.9,286.0 188.5,286.0 194.2,286.0 199.8,286.0 205.4,286.0 211.1,286.0 216.7,286.0 222.3,274.0 228.0,256.0 233.6,286.0 239.2,286.0 244.9,286.0 250.5,286.0 256.1,286.0 261.8,286.0 267.4,286.0 273.0,286.0 278.7,286.0 284.3,286.0 289.9,286.0 295.6,286.0 301.2,286.0 306.9,286.0 312.5,280.0 318.1,286.0 323.8,286.0 329.4,286.0 335.0,286.0 340.7,286.0 346.3,286.0 351.9,286.0 357.6,286.0 363.2,286.0 368.8,286.0 374.5,286.0 380.1,286.0 385.7,286.0 391.4,280.0 397.0,286.0 402.7,286.0 408.3,286.0 413.9,286.0 419.6,286.0 425.2,286.0 430.8,286.0 436.5,286.0 442.1,286.0 447.7,286.0 453.4,286.0 459.0,286.0 464.6,274.0 470.3,274.0 475.9,274.0 481.5,274.0 487.2,274.0 492.8,274.0 498.5,274.0 504.1,274.0 509.7,274.0 515.4,274.0 521.0,274.0 526.6,274.0 532.3,274.0 537.9,274.0 543.5,274.0 549.2,274.0 554.8,274.0 560.4,274.0 566.1,274.0 571.7,274.0 577.3,274.0 583.0,274.0 588.6,274.0 594.3,274.0 599.9,274.0 605.5,274.0 611.2,274.0 616.8,274.0 622.4,274.0 628.1,274.0 633.7,274.0 639.3,274.0 645.0,274.0 650.6,274.0 656.2,274.0 661.9,274.0 667.5,274.0 673.1,274.0 678.8,274.0 684.4,274.0 690.1,274.0 695.7,274.0 701.3,274.0 707.0,274.0 712.6,274.0 718.2,274.0 723.9,274.0 729.5,274.0 735.1,274.0 740.8,274.0 746.4,274.0 752.0,274.0 757.7,274.0 763.3,274.0 768.9,274.0 774.6,274.0 780.2,274.0 785.8,274.0 791.5,274.0 797.1,274.0 802.8,274.0 808.4,274.0 814.0,274.0 819.7,274.0 825.3,274.0 830.9,274.0 836.6,274.0 842.2,274.0 847.8,274.0 853.5,274.0 859.1,274.0 864.7,274.0 870.4,274.0 876.0,274.0 881.6,274.0 887.3,274.0 892.9,268.0 898.6,274.0 904.2,274.0 909.8,274.0 915.5,274.0 921.1,274.0 926.7,274.0 932.4,274.0 938.0,274.0"/><polyline fill="none" stroke="#a855f7" stroke-width="2.5" stroke-linejoin="round" stroke-linecap="round" points="42.0,286.0 47.6,286.0 53.3,286.0 58.9,286.0 64.5,286.0 70.2,286.0 75.8,286.0 81.4,286.0 87.1,286.0 92.7,286.0 98.4,286.0 104.0,286.0 109.6,286.0 115.3,286.0 120.9,286.0 126.5,286.0 132.2,286.0 137.8,286.0 143.4,286.0 149.1,286.0 154.7,286.0 160.3,286.0 166.0,286.0 171.6,286.0 177.2,286.0 182.9,286.0 188.5,286.0 194.2,286.0 199.8,286.0 205.4,286.0 211.1,286.0 216.7,286.0 222.3,286.0 228.0,286.0 233.6,286.0 239.2,286.0 244.9,286.0 250.5,286.0 256.1,286.0 261.8,286.0 267.4,286.0 273.0,286.0 278.7,286.0 284.3,286.0 289.9,286.0 295.6,286.0 301.2,286.0 306.9,286.0 312.5,286.0 318.1,286.0 323.8,286.0 329.4,286.0 335.0,286.0 340.7,286.0 346.3,286.0 351.9,286.0 357.6,286.0 363.2,286.0 368.8,286.0 374.5,286.0 380.1,286.0 385.7,286.0 391.4,286.0 397.0,286.0 402.7,286.0 408.3,286.0 413.9,286.0 419.6,286.0 425.2,286.0 430.8,286.0 436.5,280.0 442.1,286.0 447.7,286.0 453.4,286.0 459.0,286.0 464.6,286.0 470.3,286.0 475.9,286.0 481.5,286.0 487.2,286.0 492.8,286.0 498.5,286.0 504.1,286.0 509.7,286.0 515.4,286.0 521.0,286.0 526.6,286.0 532.3,286.0 537.9,286.0 543.5,286.0 549.2,286.0 554.8,286.0 560.4,286.0 566.1,286.0 571.7,286.0 577.3,286.0 583.0,286.0 588.6,286.0 594.3,286.0 599.9,286.0 605.5,286.0 611.2,286.0 616.8,286.0 622.4,286.0 628.1,286.0 633.7,286.0 639.3,286.0 645.0,286.0 650.6,286.0 656.2,286.0 661.9,286.0 667.5,286.0 673.1,286.0 678.8,286.0 684.4,286.0 690.1,286.0 695.7,286.0 701.3,286.0 707.0,286.0 712.6,286.0 718.2,286.0 723.9,286.0 729.5,286.0 735.1,286.0 740.8,286.0 746.4,286.0 752.0,286.0 757.7,286.0 763.3,286.0 768.9,286.0 774.6,286.0 780.2,286.0 785.8,286.0 791.5,286.0 797.1,286.0 802.8,286.0 808.4,286.0 814.0,286.0 819.7,286.0 825.3,286.0 830.9,286.0 836.6,286.0 842.2,286.0 847.8,286.0 853.5,286.0 859.1,286.0 864.7,286.0 870.4,286.0 876.0,286.0 881.6,286.0 887.3,286.0 892.9,286.0 898.6,286.0 904.2,286.0 909.8,286.0 915.5,286.0 921.1,286.0 926.7,280.0 932.4,286.0 938.0,286.0"/><text x="42" y="308" font-size="11" fill="#5a688a">19/06 12:43</text><text x="938" y="308" text-anchor="end" font-size="11" fill="#5a688a">29/06 10:29</text></svg>