<svg xmlns="http://www.w3.org/2000/svg" viewBox="0 0 960 320" width="960" height="320" font-family="Segoe UI, system-ui, -apple-system, Roboto, Helvetica, Arial, sans-serif" role="img" aria-label="Availability history per region"><rect x="0.5" y="0.5" width="959" height="319" rx="14" fill="#0d1117" stroke="#2c3a5e"/><text x="42" y="26" font-size="14" font-weight="600" fill="#e6ecff">History · 188 points</text><circle cx="47" cy="40" r="5" fill="#22c55e"/><text x="57" y="44" font-size="12" fill="#9fb0d4">Available</text><circle cx="139.8" cy="40" r="5" fill="#f59e0b"/><text x="149.8" y="44" font-size="12" fill="#9fb0d4">Saturated</text><circle cx="232.60000000000002" cy="40" r="5" fill="#ef4444"/><text x="242.60000000000002" y="44" font-size="12" fill="#9fb0d4">Error</text><circle cx="296.6" cy="40" r="5" fill="#a855f7"/><text x="306.6" y="44" font-size="12" fill="#9fb0d4">Timeout</text><line x1="42" y1="286.0" x2="938" y2="286.0" stroke="#21304f" stroke-width="1"/><text x="35" y="289.0" text-anchor="end" font-size="11" fill="#9fb0d4">0</text><line x1="42" y1="227.5" x2="938" y2="227.5" stroke="#21304f" stroke-width="1"/><text x="35" y="230.5" text-anchor="end" font-size="11" fill="#9fb0d4">10</text><line x1="42" y1="169.0" x2="938" y2="169.0" stroke="#21304f" stroke-width="1"/><text x="35" y="172.0" text-anchor="end" font-size="11" fill="#9fb0d4">21</text><line x1="42" y1="110.5" x2="938" y2="110.5" stroke="#21304f" stroke-width="1"/><text x="35" y="113.5" text-anchor="end" font-size="11" fill="#9fb0d4">32</text><line x1="42" y1="52.0" x2="938" y2="52.0" stroke="#21304f" stroke-width="1"/><text x="35" y="55.0" text-anchor="end" font-size="11" fill="#9fb0d4">42</text><polyline fill="none" stroke="#22c55e" stroke-width="2.5" stroke-linejoin="round" stroke-linecap="round" points="42.0,85.4 46.8,230.3 51.6,102.1 56.4,107.7 61.2,102.1 66.0,96.6 70.7,96.6 75.5,96.6 80.3,96.6 85.1,96.6 89.9,96.6 94.7,96.6 99.5,96.6 104.3,96.6 109.1,96.6 113.9,91.0 118.7,91.0 123.5,102.1 128.2,102.1 133.0,102.1 137.8,107.7 142.6,107.7 147.4,107.7 152.2,107.7 157.0,107.7 161.8,107.7 166.6,107.7 171.4,107.7 176.2,107.7 181.0,102.1 185.7,102.1 190.5,102.1 195.3,102.1 200.1,96.6 204.9,96.6 209.7,96.6 214.5,96.6 219.3,96.6 224.1,102.1 228.9,102.1 233.7,102.1 238.4,102.1 243.2,96.6 248.0,96.6 252.8,96.6 257.6,96.6 262.4,96.6 267.2,96.6 272.0,96.6 276.8,102.1 281.6,102.1 286.4,102.1 291.2,102.1 295.9,96.6 300.7,96.6 305.5,96.6 310.3,96.6 315.1,96.6 319.9,96.6 324.7,96.6 329.5,96.6 334.3,102.1 339.1,96.6 343.9,96.6 348.7,96.6 353.4,96.6 358.2,96.6 363.0,102.1 367.8,96.6 372.6,96.6 377.4,96.6 382.2,96.6 387.0,96.6 391.8,96.6 396.6,96.6 401.4,96.6 406.1,96.6 410.9,91.0 415.7,91.0 420.5,91.0 425.3,91.0 430.1,96.6 434.9,91.0 439.7,96.6 444.5,96.6 449.3,96.6 454.1,96.6 458.9,96.6 463.6,96.6 468.4,102.1 473.2,107.7 478.0,107.7 482.8,107.7 487.6,107.7 492.4,107.7 497.2,107.7 502.0,107.7 506.8,113.3 511.6,107.7 516.4,107.7 521.1,107.7 525.9,107.7 530.7,107.7 535.5,107.7 540.3,102.1 545.1,102.1 549.9,102.1 554.7,102.1 559.5,102.1 564.3,102.1 569.1,102.1 573.9,102.1 578.6,107.7 583.4,107.7 588.2,107.7 593.0,107.7 597.8,107.7 602.6,107.7 607.4,107.7 612.2,107.7 617.0,113.3 621.8,107.7 626.6,107.7 631.3,107.7 636.1,118.9 640.9,107.7 645.7,107.7 650.5,107.7 655.3,107.7 660.1,102.1 664.9,102.1 669.7,102.1 674.5,102.1 679.3,107.7 684.1,102.1 688.8,107.7 693.6,107.7 698.4,107.7 703.2,107.7 708.0,113.3 712.8,107.7 717.6,107.7 722.4,107.7 727.2,107.7 732.0,107.7 736.8,107.7 741.6,107.7 746.3,107.7 751.1,113.3 755.9,102.1 760.7,102.1 765.5,102.1 770.3,102.1 775.1,102.1 779.9,102.1 784.7,102.1 789.5,102.1 794.3,102.1 799.0,102.1 803.8,107.7 808.6,102.1 813.4,102.1 818.2,102.1 823.0,102.1 827.8,102.1 832.6,102.1 837.4,102.1 842.2,102.1 847.0,107.7 851.8,91.0 856.5,85.4 861.3,79.9 866.1,79.9 870.9,79.9 875.7,79.9 880.5,79.9 885.3,79.9 890.1,79.9 894.9,91.0 899.7,96.6 904.5,91.0 909.3,91.0 914.0,91.0 918.8,91.0 923.6,91.0 928.4,91.0 933.2,91.0 938.0,79.9"/><polyline fill="none" stroke="#f59e0b" stroke-width="2.5" stroke-linejoin="round" stroke-linecap="round" points="42.0,274.9 46.8,269.3 51.6,258.1 56.4,252.6 61.2,258.1 66.0,263.7 70.7,263.7 75.5,263.7 80.3,263.7 85.1,263.7 89.9,263.7 94.7,263.7 99.5,263.7 104.3,263.7 109.1,263.7 113.9,269.3 118.7,269.3 123.5,263.7 128.2,258.1 133.0,258.1 137.8,252.6 142.6,252.6 147.4,252.6 152.2,252.6 157.0,252.6 161.8,252.6 166.6,252.6 171.4,252.6 176.2,252.6 181.0,258.1 185.7,258.1 190.5,258.1 195.3,258.1 200.1,263.7 204.9,263.7 209.7,263.7 214.5,263.7 219.3,263.7 224.1,258.1 228.9,258.1 233.7,258.1 238.4,258.1 243.2,263.7 248.0,263.7 252.8,263.7 257.6,263.7 262.4,263.7 267.2,263.7 272.0,263.7 276.8,258.1 281.6,258.1 286.4,258.1 291.2,263.7 295.9,263.7 300.7,263.7 305.5,263.7 310.3,263.7 315.1,263.7 319.9,263.7 324.7,263.7 329.5,263.7 334.3,258.1 339.1,263.7 343.9,263.7 348.7,263.7 353.4,263.7 358.2,263.7 363.0,263.7 367.8,263.7 372.6,263.7 377.4,263.7 382.2,263.7 387.0,263.7 391.8,263.7 396.6,263.7 401.4,263.7 406.1,263.7 410.9,269.3 415.7,269.3 420.5,269.3 425.3,269.3 430.1,269.3 434.9,269.3 439.7,263.7 444.5,263.7 449.3,263.7 454.1,263.7 458.9,263.7 463.6,263.7 468.4,258.1 473.2,252.6 478.0,252.6 482.8,258.1 487.6,252.6 492.4,252.6 497.2,252.6 502.0,252.6 506.8,252.6 511.6,252.6 516.4,258.1 521.1,252.6 525.9,252.6 530.7,252.6 535.5,252.6 540.3,258.1 545.1,258.1 549.9,258.1 554.7,258.1 559.5,258.1 564.3,258.1 569.1,258.1 573.9,258.1 578.6,252.6 583.4,252.6 588.2,252.6 593.0,252.6 597.8,252.6 602.6,252.6 607.4,252.6 612.2,258.1 617.0,252.6 621.8,252.6 626.6,252.6 631.3,252.6 636.1,252.6 640.9,252.6 645.7,252.6 650.5,258.1 655.3,258.1 660.1,258.1 664.9,258.1 669.7,258.1 674.5,258.1 679.3,258.1 684.1,258.1 688.8,252.6 693.6,252.6 698.4,252.6 703.2,252.6 708.0,252.6 712.8,252.6 717.6,252.6 722.4,252.6 727.2,252.6 732.0,252.6 736.8,252.6 741.6,252.6 746.3,252.6 751.1,252.6 755.9,258.1 760.7,258.1 765.5,258.1 770.3,258.1 775.1,258.1 779.9,263.7 784.7,263.7 789.5,258.1 794.3,258.1 799.0,258.1 803.8,258.1 808.6,258.1 813.4,258.1 818.2,258.1 823.0,258.1 827.8,258.1 832.6,258.1 837.4,258.1 842.2,258.1 847.0,258.1 851.8,258.1 856.5,258.1 861.3,258.1 866.1,258.1 870.9,258.1 875.7,258.1 880.5,258.1 885.3,258.1 890.1,258.1 894.9,258.1 899.7,258.1 904.5,258.1 909.3,258.1 914.0,258.1 918.8,258.1 923.6,258.1 928.4,258.1 933.2,258.1 938.0,258.1"/><polyline fill="none" stroke="#ef4444" stroke-width="2.5" stroke-linejoin="round" stroke-linecap="round" points="42.0,286.0 46.8,146.7 51.6,286.0 56.4,286.0 61.2,286.0 66.0,286.0 70.7,286.0 75.5,286.0 80.3,286.0 85.1,286.0 89.9,286.0 94.7,286.0 99.5,286.0 104.3,286.0 109.1,286.0 113.9,286.0 118.7,286.0 123.5,280.4 128.2,286.0 133.0,286.0 137.8,286.0 142.6,286.0 147.4,286.0 152.2,286.0 157.0,286.0 161.8,286.0 166.6,286.0 171.4,286.0 176.2,286.0 181.0,286.0 185.7,286.0 190.5,286.0 195.3,286.0 200.1,286.0 204.9,286.0 209.7,286.0 214.5,286.0 219.3,286.0 224.1,286.0 228.9,286.0 233.7,286.0 238.4,286.0 243.2,286.0 248.0,286.0 252.8,286.0 257.6,286.0 262.4,286.0 267.2,286.0 272.0,286.0 276.8,286.0 281.6,286.0 286.4,286.0 291.2,286.0 295.9,286.0 300.7,286.0 305.5,286.0 310.3,286.0 315.1,286.0 319.9,286.0 324.7,286.0 329.5,286.0 334.3,286.0 339.1,286.0 343.9,286.0 348.7,286.0 353.4,286.0 358.2,286.0 363.0,280.4 367.8,286.0 372.6,286.0 377.4,286.0 382.2,286.0 387.0,286.0 391.8,286.0 396.6,286.0 401.4,286.0 406.1,286.0 410.9,286.0 415.7,286.0 420.5,286.0 425.3,286.0 430.1,280.4 434.9,286.0 439.7,286.0 444.5,286.0 449.3,286.0 454.1,286.0 458.9,286.0 463.6,286.0 468.4,286.0 473.2,286.0 478.0,286.0 482.8,280.4 487.6,286.0 492.4,286.0 497.2,286.0 502.0,286.0 506.8,280.4 511.6,286.0 516.4,286.0 521.1,286.0 525.9,286.0 530.7,286.0 535.5,286.0 540.3,286.0 545.1,286.0 549.9,286.0 554.7,286.0 559.5,286.0 564.3,286.0 569.1,286.0 573.9,286.0 578.6,286.0 583.4,286.0 588.2,286.0 593.0,286.0 597.8,286.0 602.6,286.0 607.4,286.0 612.2,286.0 617.0,280.4 621.8,286.0 626.6,286.0 631.3,286.0 636.1,274.9 640.9,286.0 645.7,286.0 650.5,280.4 655.3,280.4 660.1,286.0 664.9,286.0 669.7,286.0 674.5,286.0 679.3,280.4 684.1,286.0 688.8,286.0 693.6,286.0 698.4,286.0 703.2,286.0 708.0,286.0 712.8,286.0 717.6,286.0 722.4,286.0 727.2,286.0 732.0,286.0 736.8,286.0 741.6,286.0 746.3,286.0 751.1,286.0 755.9,286.0 760.7,286.0 765.5,286.0 770.3,286.0 775.1,286.0 779.9,280.4 784.7,286.0 789.5,286.0 794.3,286.0 799.0,263.7 803.8,280.4 808.6,286.0 813.4,286.0 818.2,286.0 823.0,286.0 827.8,286.0 832.6,286.0 837.4,286.0 842.2,286.0 847.0,258.1 851.8,274.9 856.5,280.4 861.3,286.0 866.1,286.0 870.9,286.0 875.7,286.0 880.5,286.0 885.3,286.0 890.1,286.0 894.9,274.9 899.7,269.3 904.5,274.9 909.3,274.9 914.0,274.9 918.8,274.9 923.6,274.9 928.4,274.9 933.2,274.9 938.0,286.0"/><polyline fill="none" stroke="#a855f7" stroke-width="2.5" stroke-linejoin="round" stroke-linecap="round" points="42.0,286.0 46.8,286.0 51.6,286.0 56.4,286.0 61.2,286.0 66.0,286.0 70.7,286.0 75.5,286.0 80.3,286.0 85.1,286.0 89.9,286.0 94.7,286.0 99.5,286.0 104.3,286.0 109.1,286.0 113.9,286.0 118.7,286.0 123.5,286.0 128.2,286.0 133.0,286.0 137.8,286.0 142.6,286.0 147.4,286.0 152.2,286.0 157.0,286.0 161.8,286.0 166.6,286.0 171.4,286.0 176.2,286.0 181.0,286.0 185.7,286.0 190.5,286.0 195.3,286.0 200.1,286.0 204.9,286.0 209.7,286.0 214.5,286.0 219.3,286.0 224.1,286.0 228.9,286.0 233.7,286.0 238.4,286.0 243.2,286.0 248.0,286.0 252.8,286.0 257.6,286.0 262.4,286.0 267.2,286.0 272.0,286.0 276.8,286.0 281.6,286.0 286.4,286.0 291.2,280.4 295.9,286.0 300.7,286.0 305.5,286.0 310.3,286.0 315.1,286.0 319.9,286.0 324.7,286.0 329.5,286.0 334.3,286.0 339.1,286.0 343.9,286.0 348.7,286.0 353.4,286.0 358.2,286.0 363.0,286.0 367.8,286.0 372.6,286.0 377.4,286.0 382.2,286.0 387.0,286.0 391.8,286.0 396.6,286.0 401.4,286.0 406.1,286.0 410.9,286.0 415.7,286.0 420.5,286.0 425.3,286.0 430.1,286.0 434.9,286.0 439.7,286.0 444.5,286.0 449.3,286.0 454.1,286.0 458.9,286.0 463.6,286.0 468.4,286.0 473.2,286.0 478.0,286.0 482.8,286.0 487.6,286.0 492.4,286.0 497.2,286.0 502.0,286.0 506.8,286.0 511.6,286.0 516.4,280.4 521.1,286.0 525.9,286.0 530.7,286.0 535.5,286.0 540.3,286.0 545.1,286.0 549.9,286.0 554.7,286.0 559.5,286.0 564.3,286.0 569.1,286.0 573.9,286.0 578.6,286.0 583.4,286.0 588.2,286.0 593.0,286.0 597.8,286.0 602.6,286.0 607.4,286.0 612.2,280.4 617.0,286.0 621.8,286.0 626.6,286.0 631.3,286.0 636.1,286.0 640.9,286.0 645.7,286.0 650.5,286.0 655.3,286.0 660.1,286.0 664.9,286.0 669.7,286.0 674.5,286.0 679.3,286.0 684.1,286.0 688.8,286.0 693.6,286.0 698.4,286.0 703.2,286.0 708.0,280.4 712.8,286.0 717.6,286.0 722.4,286.0 727.2,286.0 732.0,286.0 736.8,286.0 741.6,286.0 746.3,286.0 751.1,280.4 755.9,286.0 760.7,286.0 765.5,286.0 770.3,286.0 775.1,286.0 779.9,286.0 784.7,280.4 789.5,286.0 794.3,286.0 799.0,286.0 803.8,286.0 808.6,286.0 813.4,286.0 818.2,286.0 823.0,286.0 827.8,286.0 832.6,286.0 837.4,286.0 842.2,286.0 847.0,286.0 851.8,286.0 856.5,286.0 861.3,286.0 866.1,286.0 870.9,286.0 875.7,286.0 880.5,286.0 885.3,286.0 890.1,286.0 894.9,286.0 899.7,286.0 904.5,286.0 909.3,286.0 914.0,286.0 918.8,286.0 923.6,286.0 928.4,286.0 933.2,286.0 938.0,286.0"/><text x="42" y="308" font-size="11" fill="#9fb0d4">19/06 15:39</text><text x="938" y="308" text-anchor="end" font-size="11" fill="#9fb0d4">24/07 10:53</text></svg>