<svg xmlns="http://www.w3.org/2000/svg" viewBox="0 0 960 320" width="960" height="320" font-family="Segoe UI, system-ui, -apple-system, Roboto, Helvetica, Arial, sans-serif" role="img" aria-label="Availability history per region"><rect x="0.5" y="0.5" width="959" height="319" rx="14" fill="#0d1117" stroke="#2c3a5e"/><text x="42" y="26" font-size="14" font-weight="600" fill="#e6ecff">History · 114 points</text><circle cx="47" cy="40" r="5" fill="#22c55e"/><text x="57" y="44" font-size="12" fill="#9fb0d4">Available</text><circle cx="139.8" cy="40" r="5" fill="#f59e0b"/><text x="149.8" y="44" font-size="12" fill="#9fb0d4">Saturated</text><circle cx="232.60000000000002" cy="40" r="5" fill="#ef4444"/><text x="242.60000000000002" y="44" font-size="12" fill="#9fb0d4">Error</text><circle cx="296.6" cy="40" r="5" fill="#a855f7"/><text x="306.6" y="44" font-size="12" fill="#9fb0d4">Timeout</text><line x1="42" y1="286.0" x2="938" y2="286.0" stroke="#21304f" stroke-width="1"/><text x="35" y="289.0" text-anchor="end" font-size="11" fill="#9fb0d4">0</text><line x1="42" y1="227.5" x2="938" y2="227.5" stroke="#21304f" stroke-width="1"/><text x="35" y="230.5" text-anchor="end" font-size="11" fill="#9fb0d4">10</text><line x1="42" y1="169.0" x2="938" y2="169.0" stroke="#21304f" stroke-width="1"/><text x="35" y="172.0" text-anchor="end" font-size="11" fill="#9fb0d4">20</text><line x1="42" y1="110.5" x2="938" y2="110.5" stroke="#21304f" stroke-width="1"/><text x="35" y="113.5" text-anchor="end" font-size="11" fill="#9fb0d4">29</text><line x1="42" y1="52.0" x2="938" y2="52.0" stroke="#21304f" stroke-width="1"/><text x="35" y="55.0" text-anchor="end" font-size="11" fill="#9fb0d4">39</text><polyline fill="none" stroke="#22c55e" stroke-width="2.5" stroke-linejoin="round" stroke-linecap="round" points="42.0,70.0 49.9,70.0 57.9,88.0 65.8,88.0 73.7,76.0 81.6,76.0 89.6,76.0 97.5,70.0 105.4,76.0 113.4,70.0 121.3,64.0 129.2,58.0 137.2,58.0 145.1,58.0 153.0,58.0 160.9,58.0 168.9,58.0 176.8,58.0 184.7,58.0 192.7,58.0 200.6,58.0 208.5,58.0 216.4,58.0 224.4,58.0 232.3,58.0 240.2,58.0 248.2,58.0 256.1,58.0 264.0,58.0 271.9,58.0 279.9,58.0 287.8,70.0 295.7,76.0 303.7,94.0 311.6,64.0 319.5,64.0 327.5,58.0 335.4,58.0 343.3,58.0 351.2,70.0 359.2,76.0 367.1,76.0 375.0,82.0 383.0,82.0 390.9,82.0 398.8,82.0 406.7,76.0 414.7,64.0 422.6,70.0 430.5,70.0 438.5,82.0 446.4,76.0 454.3,76.0 462.2,82.0 470.2,76.0 478.1,76.0 486.0,76.0 494.0,64.0 501.9,64.0 509.8,76.0 517.8,76.0 525.7,76.0 533.6,88.0 541.5,70.0 549.5,64.0 557.4,58.0 565.3,58.0 573.3,70.0 581.2,70.0 589.1,70.0 597.0,76.0 605.0,70.0 612.9,70.0 620.8,70.0 628.8,70.0 636.7,76.0 644.6,82.0 652.5,76.0 660.5,70.0 668.4,70.0 676.3,70.0 684.3,70.0 692.2,76.0 700.1,70.0 708.1,70.0 716.0,70.0 723.9,70.0 731.8,70.0 739.8,70.0 747.7,70.0 755.6,70.0 763.6,70.0 771.5,70.0 779.4,70.0 787.3,70.0 795.3,70.0 803.2,70.0 811.1,70.0 819.1,70.0 827.0,70.0 834.9,70.0 842.8,70.0 850.8,70.0 858.7,70.0 866.6,70.0 874.6,70.0 882.5,70.0 890.4,70.0 898.4,70.0 906.3,70.0 914.2,70.0 922.1,70.0 930.1,70.0 938.0,70.0"/><polyline fill="none" stroke="#f59e0b" stroke-width="2.5" stroke-linejoin="round" stroke-linecap="round" points="42.0,274.0 49.9,274.0 57.9,274.0 65.8,280.0 73.7,268.0 81.6,268.0 89.6,268.0 97.5,274.0 105.4,274.0 113.4,274.0 121.3,280.0 129.2,286.0 137.2,286.0 145.1,286.0 153.0,286.0 160.9,286.0 168.9,286.0 176.8,286.0 184.7,286.0 192.7,286.0 200.6,286.0 208.5,286.0 216.4,286.0 224.4,286.0 232.3,286.0 240.2,286.0 248.2,286.0 256.1,286.0 264.0,286.0 271.9,286.0 279.9,286.0 287.8,274.0 295.7,280.0 303.7,280.0 311.6,280.0 319.5,280.0 327.5,286.0 335.4,286.0 343.3,286.0 351.2,274.0 359.2,268.0 367.1,268.0 375.0,262.0 383.0,262.0 390.9,262.0 398.8,262.0 406.7,268.0 414.7,280.0 422.6,280.0 430.5,274.0 438.5,262.0 446.4,268.0 454.3,268.0 462.2,262.0 470.2,268.0 478.1,268.0 486.0,268.0 494.0,280.0 501.9,280.0 509.8,268.0 517.8,268.0 525.7,268.0 533.6,262.0 541.5,274.0 549.5,280.0 557.4,286.0 565.3,286.0 573.3,274.0 581.2,274.0 589.1,274.0 597.0,274.0 605.0,274.0 612.9,274.0 620.8,274.0 628.8,274.0 636.7,280.0 644.6,274.0 652.5,280.0 660.5,286.0 668.4,286.0 676.3,286.0 684.3,286.0 692.2,280.0 700.1,286.0 708.1,286.0 716.0,286.0 723.9,286.0 731.8,286.0 739.8,286.0 747.7,286.0 755.6,286.0 763.6,286.0 771.5,286.0 779.4,286.0 787.3,286.0 795.3,286.0 803.2,286.0 811.1,286.0 819.1,286.0 827.0,286.0 834.9,286.0 842.8,286.0 850.8,286.0 858.7,286.0 866.6,286.0 874.6,286.0 882.5,286.0 890.4,286.0 898.4,286.0 906.3,286.0 914.2,286.0 922.1,286.0 930.1,286.0 938.0,286.0"/><polyline fill="none" stroke="#ef4444" stroke-width="2.5" stroke-linejoin="round" stroke-linecap="round" points="42.0,280.0 49.9,280.0 57.9,268.0 65.8,262.0 73.7,286.0 81.6,286.0 89.6,286.0 97.5,286.0 105.4,280.0 113.4,286.0 121.3,286.0 129.2,286.0 137.2,286.0 145.1,286.0 153.0,286.0 160.9,286.0 168.9,286.0 176.8,286.0 184.7,286.0 192.7,286.0 200.6,286.0 208.5,286.0 216.4,286.0 224.4,286.0 232.3,286.0 240.2,286.0 248.2,286.0 256.1,286.0 264.0,286.0 271.9,286.0 279.9,286.0 287.8,286.0 295.7,274.0 303.7,256.0 311.6,286.0 319.5,286.0 327.5,286.0 335.4,286.0 343.3,286.0 351.2,286.0 359.2,286.0 367.1,286.0 375.0,286.0 383.0,286.0 390.9,286.0 398.8,286.0 406.7,286.0 414.7,286.0 422.6,280.0 430.5,286.0 438.5,286.0 446.4,286.0 454.3,286.0 462.2,286.0 470.2,286.0 478.1,286.0 486.0,286.0 494.0,286.0 501.9,286.0 509.8,286.0 517.8,286.0 525.7,286.0 533.6,280.0 541.5,286.0 549.5,286.0 557.4,286.0 565.3,286.0 573.3,286.0 581.2,286.0 589.1,286.0 597.0,286.0 605.0,286.0 612.9,286.0 620.8,286.0 628.8,286.0 636.7,274.0 644.6,274.0 652.5,274.0 660.5,274.0 668.4,274.0 676.3,274.0 684.3,274.0 692.2,274.0 700.1,274.0 708.1,274.0 716.0,274.0 723.9,274.0 731.8,274.0 739.8,274.0 747.7,274.0 755.6,274.0 763.6,274.0 771.5,274.0 779.4,274.0 787.3,274.0 795.3,274.0 803.2,274.0 811.1,274.0 819.1,274.0 827.0,274.0 834.9,274.0 842.8,274.0 850.8,274.0 858.7,274.0 866.6,274.0 874.6,274.0 882.5,274.0 890.4,274.0 898.4,274.0 906.3,274.0 914.2,274.0 922.1,274.0 930.1,274.0 938.0,274.0"/><polyline fill="none" stroke="#a855f7" stroke-width="2.5" stroke-linejoin="round" stroke-linecap="round" points="42.0,286.0 49.9,286.0 57.9,286.0 65.8,286.0 73.7,286.0 81.6,286.0 89.6,286.0 97.5,286.0 105.4,286.0 113.4,286.0 121.3,286.0 129.2,286.0 137.2,286.0 145.1,286.0 153.0,286.0 160.9,286.0 168.9,286.0 176.8,286.0 184.7,286.0 192.7,286.0 200.6,286.0 208.5,286.0 216.4,286.0 224.4,286.0 232.3,286.0 240.2,286.0 248.2,286.0 256.1,286.0 264.0,286.0 271.9,286.0 279.9,286.0 287.8,286.0 295.7,286.0 303.7,286.0 311.6,286.0 319.5,286.0 327.5,286.0 335.4,286.0 343.3,286.0 351.2,286.0 359.2,286.0 367.1,286.0 375.0,286.0 383.0,286.0 390.9,286.0 398.8,286.0 406.7,286.0 414.7,286.0 422.6,286.0 430.5,286.0 438.5,286.0 446.4,286.0 454.3,286.0 462.2,286.0 470.2,286.0 478.1,286.0 486.0,286.0 494.0,286.0 501.9,286.0 509.8,286.0 517.8,286.0 525.7,286.0 533.6,286.0 541.5,286.0 549.5,286.0 557.4,286.0 565.3,286.0 573.3,286.0 581.2,286.0 589.1,286.0 597.0,280.0 605.0,286.0 612.9,286.0 620.8,286.0 628.8,286.0 636.7,286.0 644.6,286.0 652.5,286.0 660.5,286.0 668.4,286.0 676.3,286.0 684.3,286.0 692.2,286.0 700.1,286.0 708.1,286.0 716.0,286.0 723.9,286.0 731.8,286.0 739.8,286.0 747.7,286.0 755.6,286.0 763.6,286.0 771.5,286.0 779.4,286.0 787.3,286.0 795.3,286.0 803.2,286.0 811.1,286.0 819.1,286.0 827.0,286.0 834.9,286.0 842.8,286.0 850.8,286.0 858.7,286.0 866.6,286.0 874.6,286.0 882.5,286.0 890.4,286.0 898.4,286.0 906.3,286.0 914.2,286.0 922.1,286.0 930.1,286.0 938.0,286.0"/><text x="42" y="308" font-size="11" fill="#9fb0d4">19/06 12:43</text><text x="938" y="308" text-anchor="end" font-size="11" fill="#9fb0d4">27/06 23:29</text></svg>