<svg xmlns="http://www.w3.org/2000/svg" viewBox="0 0 960 320" width="960" height="320" font-family="Segoe UI, system-ui, -apple-system, Roboto, Helvetica, Arial, sans-serif" role="img" aria-label="Availability history per region"><rect x="0.5" y="0.5" width="959" height="319" rx="14" fill="#0d1117" stroke="#2c3a5e"/><text x="42" y="26" font-size="14" font-weight="600" fill="#e6ecff">History · 166 points</text><circle cx="47" cy="40" r="5" fill="#22c55e"/><text x="57" y="44" font-size="12" fill="#9fb0d4">Available</text><circle cx="139.8" cy="40" r="5" fill="#f59e0b"/><text x="149.8" y="44" font-size="12" fill="#9fb0d4">Saturated</text><circle cx="232.60000000000002" cy="40" r="5" fill="#ef4444"/><text x="242.60000000000002" y="44" font-size="12" fill="#9fb0d4">Error</text><circle cx="296.6" cy="40" r="5" fill="#a855f7"/><text x="306.6" y="44" font-size="12" fill="#9fb0d4">Timeout</text><line x1="42" y1="286.0" x2="938" y2="286.0" stroke="#21304f" stroke-width="1"/><text x="35" y="289.0" text-anchor="end" font-size="11" fill="#9fb0d4">0</text><line x1="42" y1="227.5" x2="938" y2="227.5" stroke="#21304f" stroke-width="1"/><text x="35" y="230.5" text-anchor="end" font-size="11" fill="#9fb0d4">10</text><line x1="42" y1="169.0" x2="938" y2="169.0" stroke="#21304f" stroke-width="1"/><text x="35" y="172.0" text-anchor="end" font-size="11" fill="#9fb0d4">20</text><line x1="42" y1="110.5" x2="938" y2="110.5" stroke="#21304f" stroke-width="1"/><text x="35" y="113.5" text-anchor="end" font-size="11" fill="#9fb0d4">29</text><line x1="42" y1="52.0" x2="938" y2="52.0" stroke="#21304f" stroke-width="1"/><text x="35" y="55.0" text-anchor="end" font-size="11" fill="#9fb0d4">39</text><polyline fill="none" stroke="#22c55e" stroke-width="2.5" stroke-linejoin="round" stroke-linecap="round" points="42.0,70.0 47.4,70.0 52.9,88.0 58.3,88.0 63.7,76.0 69.2,76.0 74.6,76.0 80.0,70.0 85.4,76.0 90.9,70.0 96.3,64.0 101.7,58.0 107.2,58.0 112.6,58.0 118.0,58.0 123.5,58.0 128.9,58.0 134.3,58.0 139.7,58.0 145.2,58.0 150.6,58.0 156.0,58.0 161.5,58.0 166.9,58.0 172.3,58.0 177.8,58.0 183.2,58.0 188.6,58.0 194.0,58.0 199.5,58.0 204.9,58.0 210.3,70.0 215.8,76.0 221.2,94.0 226.6,64.0 232.1,64.0 237.5,58.0 242.9,58.0 248.4,58.0 253.8,70.0 259.2,76.0 264.6,76.0 270.1,82.0 275.5,82.0 280.9,82.0 286.4,82.0 291.8,76.0 297.2,64.0 302.7,70.0 308.1,70.0 313.5,82.0 318.9,76.0 324.4,76.0 329.8,82.0 335.2,76.0 340.7,76.0 346.1,76.0 351.5,64.0 357.0,64.0 362.4,76.0 367.8,76.0 373.2,76.0 378.7,88.0 384.1,70.0 389.5,64.0 395.0,58.0 400.4,58.0 405.8,70.0 411.3,70.0 416.7,70.0 422.1,76.0 427.6,70.0 433.0,70.0 438.4,70.0 443.8,70.0 449.3,76.0 454.7,82.0 460.1,76.0 465.6,70.0 471.0,70.0 476.4,70.0 481.9,70.0 487.3,76.0 492.7,70.0 498.1,70.0 503.6,70.0 509.0,70.0 514.4,70.0 519.9,70.0 525.3,70.0 530.7,70.0 536.2,70.0 541.6,70.0 547.0,70.0 552.4,70.0 557.9,70.0 563.3,70.0 568.7,70.0 574.2,70.0 579.6,70.0 585.0,70.0 590.5,70.0 595.9,70.0 601.3,70.0 606.8,70.0 612.2,70.0 617.6,70.0 623.0,70.0 628.5,70.0 633.9,70.0 639.3,70.0 644.8,70.0 650.2,70.0 655.6,70.0 661.1,70.0 666.5,70.0 671.9,70.0 677.3,70.0 682.8,70.0 688.2,70.0 693.6,70.0 699.1,70.0 704.5,70.0 709.9,70.0 715.4,70.0 720.8,70.0 726.2,70.0 731.6,70.0 737.1,70.0 742.5,70.0 747.9,70.0 753.4,70.0 758.8,70.0 764.2,70.0 769.7,70.0 775.1,70.0 780.5,70.0 786.0,70.0 791.4,70.0 796.8,70.0 802.2,70.0 807.7,70.0 813.1,70.0 818.5,70.0 824.0,70.0 829.4,70.0 834.8,70.0 840.3,70.0 845.7,70.0 851.1,70.0 856.5,70.0 862.0,76.0 867.4,70.0 872.8,70.0 878.3,70.0 883.7,70.0 889.1,70.0 894.6,76.0 900.0,76.0 905.4,88.0 910.8,88.0 916.3,88.0 921.7,94.0 927.1,94.0 932.6,94.0 938.0,94.0"/><polyline fill="none" stroke="#f59e0b" stroke-width="2.5" stroke-linejoin="round" stroke-linecap="round" points="42.0,274.0 47.4,274.0 52.9,274.0 58.3,280.0 63.7,268.0 69.2,268.0 74.6,268.0 80.0,274.0 85.4,274.0 90.9,274.0 96.3,280.0 101.7,286.0 107.2,286.0 112.6,286.0 118.0,286.0 123.5,286.0 128.9,286.0 134.3,286.0 139.7,286.0 145.2,286.0 150.6,286.0 156.0,286.0 161.5,286.0 166.9,286.0 172.3,286.0 177.8,286.0 183.2,286.0 188.6,286.0 194.0,286.0 199.5,286.0 204.9,286.0 210.3,274.0 215.8,280.0 221.2,280.0 226.6,280.0 232.1,280.0 237.5,286.0 242.9,286.0 248.4,286.0 253.8,274.0 259.2,268.0 264.6,268.0 270.1,262.0 275.5,262.0 280.9,262.0 286.4,262.0 291.8,268.0 297.2,280.0 302.7,280.0 308.1,274.0 313.5,262.0 318.9,268.0 324.4,268.0 329.8,262.0 335.2,268.0 340.7,268.0 346.1,268.0 351.5,280.0 357.0,280.0 362.4,268.0 367.8,268.0 373.2,268.0 378.7,262.0 384.1,274.0 389.5,280.0 395.0,286.0 400.4,286.0 405.8,274.0 411.3,274.0 416.7,274.0 422.1,274.0 427.6,274.0 433.0,274.0 438.4,274.0 443.8,274.0 449.3,280.0 454.7,274.0 460.1,280.0 465.6,286.0 471.0,286.0 476.4,286.0 481.9,286.0 487.3,280.0 492.7,286.0 498.1,286.0 503.6,286.0 509.0,286.0 514.4,286.0 519.9,286.0 525.3,286.0 530.7,286.0 536.2,286.0 541.6,286.0 547.0,286.0 552.4,286.0 557.9,286.0 563.3,286.0 568.7,286.0 574.2,286.0 579.6,286.0 585.0,286.0 590.5,286.0 595.9,286.0 601.3,286.0 606.8,286.0 612.2,286.0 617.6,286.0 623.0,286.0 628.5,286.0 633.9,286.0 639.3,286.0 644.8,286.0 650.2,286.0 655.6,286.0 661.1,286.0 666.5,286.0 671.9,286.0 677.3,286.0 682.8,286.0 688.2,286.0 693.6,286.0 699.1,286.0 704.5,286.0 709.9,286.0 715.4,286.0 720.8,286.0 726.2,286.0 731.6,286.0 737.1,286.0 742.5,286.0 747.9,286.0 753.4,286.0 758.8,286.0 764.2,286.0 769.7,286.0 775.1,286.0 780.5,286.0 786.0,286.0 791.4,286.0 796.8,286.0 802.2,286.0 807.7,286.0 813.1,286.0 818.5,286.0 824.0,286.0 829.4,286.0 834.8,286.0 840.3,286.0 845.7,286.0 851.1,286.0 856.5,286.0 862.0,286.0 867.4,286.0 872.8,286.0 878.3,286.0 883.7,286.0 889.1,286.0 894.6,286.0 900.0,280.0 905.4,268.0 910.8,268.0 916.3,268.0 921.7,268.0 927.1,262.0 932.6,262.0 938.0,262.0"/><polyline fill="none" stroke="#ef4444" stroke-width="2.5" stroke-linejoin="round" stroke-linecap="round" points="42.0,280.0 47.4,280.0 52.9,268.0 58.3,262.0 63.7,286.0 69.2,286.0 74.6,286.0 80.0,286.0 85.4,280.0 90.9,286.0 96.3,286.0 101.7,286.0 107.2,286.0 112.6,286.0 118.0,286.0 123.5,286.0 128.9,286.0 134.3,286.0 139.7,286.0 145.2,286.0 150.6,286.0 156.0,286.0 161.5,286.0 166.9,286.0 172.3,286.0 177.8,286.0 183.2,286.0 188.6,286.0 194.0,286.0 199.5,286.0 204.9,286.0 210.3,286.0 215.8,274.0 221.2,256.0 226.6,286.0 232.1,286.0 237.5,286.0 242.9,286.0 248.4,286.0 253.8,286.0 259.2,286.0 264.6,286.0 270.1,286.0 275.5,286.0 280.9,286.0 286.4,286.0 291.8,286.0 297.2,286.0 302.7,280.0 308.1,286.0 313.5,286.0 318.9,286.0 324.4,286.0 329.8,286.0 335.2,286.0 340.7,286.0 346.1,286.0 351.5,286.0 357.0,286.0 362.4,286.0 367.8,286.0 373.2,286.0 378.7,280.0 384.1,286.0 389.5,286.0 395.0,286.0 400.4,286.0 405.8,286.0 411.3,286.0 416.7,286.0 422.1,286.0 427.6,286.0 433.0,286.0 438.4,286.0 443.8,286.0 449.3,274.0 454.7,274.0 460.1,274.0 465.6,274.0 471.0,274.0 476.4,274.0 481.9,274.0 487.3,274.0 492.7,274.0 498.1,274.0 503.6,274.0 509.0,274.0 514.4,274.0 519.9,274.0 525.3,274.0 530.7,274.0 536.2,274.0 541.6,274.0 547.0,274.0 552.4,274.0 557.9,274.0 563.3,274.0 568.7,274.0 574.2,274.0 579.6,274.0 585.0,274.0 590.5,274.0 595.9,274.0 601.3,274.0 606.8,274.0 612.2,274.0 617.6,274.0 623.0,274.0 628.5,274.0 633.9,274.0 639.3,274.0 644.8,274.0 650.2,274.0 655.6,274.0 661.1,274.0 666.5,274.0 671.9,274.0 677.3,274.0 682.8,274.0 688.2,274.0 693.6,274.0 699.1,274.0 704.5,274.0 709.9,274.0 715.4,274.0 720.8,274.0 726.2,274.0 731.6,274.0 737.1,274.0 742.5,274.0 747.9,274.0 753.4,274.0 758.8,274.0 764.2,274.0 769.7,274.0 775.1,274.0 780.5,274.0 786.0,274.0 791.4,274.0 796.8,274.0 802.2,274.0 807.7,274.0 813.1,274.0 818.5,274.0 824.0,274.0 829.4,274.0 834.8,274.0 840.3,274.0 845.7,274.0 851.1,274.0 856.5,274.0 862.0,268.0 867.4,274.0 872.8,274.0 878.3,274.0 883.7,274.0 889.1,274.0 894.6,274.0 900.0,274.0 905.4,274.0 910.8,274.0 916.3,274.0 921.7,268.0 927.1,274.0 932.6,274.0 938.0,274.0"/><polyline fill="none" stroke="#a855f7" stroke-width="2.5" stroke-linejoin="round" stroke-linecap="round" points="42.0,286.0 47.4,286.0 52.9,286.0 58.3,286.0 63.7,286.0 69.2,286.0 74.6,286.0 80.0,286.0 85.4,286.0 90.9,286.0 96.3,286.0 101.7,286.0 107.2,286.0 112.6,286.0 118.0,286.0 123.5,286.0 128.9,286.0 134.3,286.0 139.7,286.0 145.2,286.0 150.6,286.0 156.0,286.0 161.5,286.0 166.9,286.0 172.3,286.0 177.8,286.0 183.2,286.0 188.6,286.0 194.0,286.0 199.5,286.0 204.9,286.0 210.3,286.0 215.8,286.0 221.2,286.0 226.6,286.0 232.1,286.0 237.5,286.0 242.9,286.0 248.4,286.0 253.8,286.0 259.2,286.0 264.6,286.0 270.1,286.0 275.5,286.0 280.9,286.0 286.4,286.0 291.8,286.0 297.2,286.0 302.7,286.0 308.1,286.0 313.5,286.0 318.9,286.0 324.4,286.0 329.8,286.0 335.2,286.0 340.7,286.0 346.1,286.0 351.5,286.0 357.0,286.0 362.4,286.0 367.8,286.0 373.2,286.0 378.7,286.0 384.1,286.0 389.5,286.0 395.0,286.0 400.4,286.0 405.8,286.0 411.3,286.0 416.7,286.0 422.1,280.0 427.6,286.0 433.0,286.0 438.4,286.0 443.8,286.0 449.3,286.0 454.7,286.0 460.1,286.0 465.6,286.0 471.0,286.0 476.4,286.0 481.9,286.0 487.3,286.0 492.7,286.0 498.1,286.0 503.6,286.0 509.0,286.0 514.4,286.0 519.9,286.0 525.3,286.0 530.7,286.0 536.2,286.0 541.6,286.0 547.0,286.0 552.4,286.0 557.9,286.0 563.3,286.0 568.7,286.0 574.2,286.0 579.6,286.0 585.0,286.0 590.5,286.0 595.9,286.0 601.3,286.0 606.8,286.0 612.2,286.0 617.6,286.0 623.0,286.0 628.5,286.0 633.9,286.0 639.3,286.0 644.8,286.0 650.2,286.0 655.6,286.0 661.1,286.0 666.5,286.0 671.9,286.0 677.3,286.0 682.8,286.0 688.2,286.0 693.6,286.0 699.1,286.0 704.5,286.0 709.9,286.0 715.4,286.0 720.8,286.0 726.2,286.0 731.6,286.0 737.1,286.0 742.5,286.0 747.9,286.0 753.4,286.0 758.8,286.0 764.2,286.0 769.7,286.0 775.1,286.0 780.5,286.0 786.0,286.0 791.4,286.0 796.8,286.0 802.2,286.0 807.7,286.0 813.1,286.0 818.5,286.0 824.0,286.0 829.4,286.0 834.8,286.0 840.3,286.0 845.7,286.0 851.1,286.0 856.5,286.0 862.0,286.0 867.4,286.0 872.8,286.0 878.3,286.0 883.7,286.0 889.1,286.0 894.6,280.0 900.0,286.0 905.4,286.0 910.8,286.0 916.3,286.0 921.7,286.0 927.1,286.0 932.6,286.0 938.0,286.0"/><text x="42" y="308" font-size="11" fill="#9fb0d4">19/06 12:43</text><text x="938" y="308" text-anchor="end" font-size="11" fill="#9fb0d4">29/06 16:33</text></svg>