<svg xmlns="http://www.w3.org/2000/svg" viewBox="0 0 960 320" width="960" height="320" font-family="Segoe UI, system-ui, -apple-system, Roboto, Helvetica, Arial, sans-serif" role="img" aria-label="Availability history per region"><rect x="0.5" y="0.5" width="959" height="319" rx="14" fill="#ffffff" stroke="#dce3f1"/><text x="42" y="26" font-size="14" font-weight="600" fill="#14203a">History · 131 points</text><circle cx="47" cy="40" r="5" fill="#22c55e"/><text x="57" y="44" font-size="12" fill="#5a688a">Available</text><circle cx="139.8" cy="40" r="5" fill="#f59e0b"/><text x="149.8" y="44" font-size="12" fill="#5a688a">Saturated</text><circle cx="232.60000000000002" cy="40" r="5" fill="#ef4444"/><text x="242.60000000000002" y="44" font-size="12" fill="#5a688a">Error</text><circle cx="296.6" cy="40" r="5" fill="#a855f7"/><text x="306.6" y="44" font-size="12" fill="#5a688a">Timeout</text><line x1="42" y1="286.0" x2="938" y2="286.0" stroke="#eef2f7" stroke-width="1"/><text x="35" y="289.0" text-anchor="end" font-size="11" fill="#5a688a">0</text><line x1="42" y1="227.5" x2="938" y2="227.5" stroke="#eef2f7" stroke-width="1"/><text x="35" y="230.5" text-anchor="end" font-size="11" fill="#5a688a">10</text><line x1="42" y1="169.0" x2="938" y2="169.0" stroke="#eef2f7" stroke-width="1"/><text x="35" y="172.0" text-anchor="end" font-size="11" fill="#5a688a">20</text><line x1="42" y1="110.5" x2="938" y2="110.5" stroke="#eef2f7" stroke-width="1"/><text x="35" y="113.5" text-anchor="end" font-size="11" fill="#5a688a">29</text><line x1="42" y1="52.0" x2="938" y2="52.0" stroke="#eef2f7" stroke-width="1"/><text x="35" y="55.0" text-anchor="end" font-size="11" fill="#5a688a">39</text><polyline fill="none" stroke="#22c55e" stroke-width="2.5" stroke-linejoin="round" stroke-linecap="round" points="42.0,70.0 48.9,70.0 55.8,88.0 62.7,88.0 69.6,76.0 76.5,76.0 83.4,76.0 90.2,70.0 97.1,76.0 104.0,70.0 110.9,64.0 117.8,58.0 124.7,58.0 131.6,58.0 138.5,58.0 145.4,58.0 152.3,58.0 159.2,58.0 166.1,58.0 173.0,58.0 179.8,58.0 186.7,58.0 193.6,58.0 200.5,58.0 207.4,58.0 214.3,58.0 221.2,58.0 228.1,58.0 235.0,58.0 241.9,58.0 248.8,58.0 255.7,70.0 262.6,76.0 269.4,94.0 276.3,64.0 283.2,64.0 290.1,58.0 297.0,58.0 303.9,58.0 310.8,70.0 317.7,76.0 324.6,76.0 331.5,82.0 338.4,82.0 345.3,82.0 352.2,82.0 359.0,76.0 365.9,64.0 372.8,70.0 379.7,70.0 386.6,82.0 393.5,76.0 400.4,76.0 407.3,82.0 414.2,76.0 421.1,76.0 428.0,76.0 434.9,64.0 441.8,64.0 448.6,76.0 455.5,76.0 462.4,76.0 469.3,88.0 476.2,70.0 483.1,64.0 490.0,58.0 496.9,58.0 503.8,70.0 510.7,70.0 517.6,70.0 524.5,76.0 531.4,70.0 538.2,70.0 545.1,70.0 552.0,70.0 558.9,76.0 565.8,82.0 572.7,76.0 579.6,70.0 586.5,70.0 593.4,70.0 600.3,70.0 607.2,76.0 614.1,70.0 621.0,70.0 627.8,70.0 634.7,70.0 641.6,70.0 648.5,70.0 655.4,70.0 662.3,70.0 669.2,70.0 676.1,70.0 683.0,70.0 689.9,70.0 696.8,70.0 703.7,70.0 710.6,70.0 717.4,70.0 724.3,70.0 731.2,70.0 738.1,70.0 745.0,70.0 751.9,70.0 758.8,70.0 765.7,70.0 772.6,70.0 779.5,70.0 786.4,70.0 793.3,70.0 800.2,70.0 807.0,70.0 813.9,70.0 820.8,70.0 827.7,70.0 834.6,70.0 841.5,70.0 848.4,70.0 855.3,70.0 862.2,70.0 869.1,70.0 876.0,70.0 882.9,70.0 889.8,70.0 896.6,70.0 903.5,70.0 910.4,70.0 917.3,70.0 924.2,70.0 931.1,70.0 938.0,70.0"/><polyline fill="none" stroke="#f59e0b" stroke-width="2.5" stroke-linejoin="round" stroke-linecap="round" points="42.0,274.0 48.9,274.0 55.8,274.0 62.7,280.0 69.6,268.0 76.5,268.0 83.4,268.0 90.2,274.0 97.1,274.0 104.0,274.0 110.9,280.0 117.8,286.0 124.7,286.0 131.6,286.0 138.5,286.0 145.4,286.0 152.3,286.0 159.2,286.0 166.1,286.0 173.0,286.0 179.8,286.0 186.7,286.0 193.6,286.0 200.5,286.0 207.4,286.0 214.3,286.0 221.2,286.0 228.1,286.0 235.0,286.0 241.9,286.0 248.8,286.0 255.7,274.0 262.6,280.0 269.4,280.0 276.3,280.0 283.2,280.0 290.1,286.0 297.0,286.0 303.9,286.0 310.8,274.0 317.7,268.0 324.6,268.0 331.5,262.0 338.4,262.0 345.3,262.0 352.2,262.0 359.0,268.0 365.9,280.0 372.8,280.0 379.7,274.0 386.6,262.0 393.5,268.0 400.4,268.0 407.3,262.0 414.2,268.0 421.1,268.0 428.0,268.0 434.9,280.0 441.8,280.0 448.6,268.0 455.5,268.0 462.4,268.0 469.3,262.0 476.2,274.0 483.1,280.0 490.0,286.0 496.9,286.0 503.8,274.0 510.7,274.0 517.6,274.0 524.5,274.0 531.4,274.0 538.2,274.0 545.1,274.0 552.0,274.0 558.9,280.0 565.8,274.0 572.7,280.0 579.6,286.0 586.5,286.0 593.4,286.0 600.3,286.0 607.2,280.0 614.1,286.0 621.0,286.0 627.8,286.0 634.7,286.0 641.6,286.0 648.5,286.0 655.4,286.0 662.3,286.0 669.2,286.0 676.1,286.0 683.0,286.0 689.9,286.0 696.8,286.0 703.7,286.0 710.6,286.0 717.4,286.0 724.3,286.0 731.2,286.0 738.1,286.0 745.0,286.0 751.9,286.0 758.8,286.0 765.7,286.0 772.6,286.0 779.5,286.0 786.4,286.0 793.3,286.0 800.2,286.0 807.0,286.0 813.9,286.0 820.8,286.0 827.7,286.0 834.6,286.0 841.5,286.0 848.4,286.0 855.3,286.0 862.2,286.0 869.1,286.0 876.0,286.0 882.9,286.0 889.8,286.0 896.6,286.0 903.5,286.0 910.4,286.0 917.3,286.0 924.2,286.0 931.1,286.0 938.0,286.0"/><polyline fill="none" stroke="#ef4444" stroke-width="2.5" stroke-linejoin="round" stroke-linecap="round" points="42.0,280.0 48.9,280.0 55.8,268.0 62.7,262.0 69.6,286.0 76.5,286.0 83.4,286.0 90.2,286.0 97.1,280.0 104.0,286.0 110.9,286.0 117.8,286.0 124.7,286.0 131.6,286.0 138.5,286.0 145.4,286.0 152.3,286.0 159.2,286.0 166.1,286.0 173.0,286.0 179.8,286.0 186.7,286.0 193.6,286.0 200.5,286.0 207.4,286.0 214.3,286.0 221.2,286.0 228.1,286.0 235.0,286.0 241.9,286.0 248.8,286.0 255.7,286.0 262.6,274.0 269.4,256.0 276.3,286.0 283.2,286.0 290.1,286.0 297.0,286.0 303.9,286.0 310.8,286.0 317.7,286.0 324.6,286.0 331.5,286.0 338.4,286.0 345.3,286.0 352.2,286.0 359.0,286.0 365.9,286.0 372.8,280.0 379.7,286.0 386.6,286.0 393.5,286.0 400.4,286.0 407.3,286.0 414.2,286.0 421.1,286.0 428.0,286.0 434.9,286.0 441.8,286.0 448.6,286.0 455.5,286.0 462.4,286.0 469.3,280.0 476.2,286.0 483.1,286.0 490.0,286.0 496.9,286.0 503.8,286.0 510.7,286.0 517.6,286.0 524.5,286.0 531.4,286.0 538.2,286.0 545.1,286.0 552.0,286.0 558.9,274.0 565.8,274.0 572.7,274.0 579.6,274.0 586.5,274.0 593.4,274.0 600.3,274.0 607.2,274.0 614.1,274.0 621.0,274.0 627.8,274.0 634.7,274.0 641.6,274.0 648.5,274.0 655.4,274.0 662.3,274.0 669.2,274.0 676.1,274.0 683.0,274.0 689.9,274.0 696.8,274.0 703.7,274.0 710.6,274.0 717.4,274.0 724.3,274.0 731.2,274.0 738.1,274.0 745.0,274.0 751.9,274.0 758.8,274.0 765.7,274.0 772.6,274.0 779.5,274.0 786.4,274.0 793.3,274.0 800.2,274.0 807.0,274.0 813.9,274.0 820.8,274.0 827.7,274.0 834.6,274.0 841.5,274.0 848.4,274.0 855.3,274.0 862.2,274.0 869.1,274.0 876.0,274.0 882.9,274.0 889.8,274.0 896.6,274.0 903.5,274.0 910.4,274.0 917.3,274.0 924.2,274.0 931.1,274.0 938.0,274.0"/><polyline fill="none" stroke="#a855f7" stroke-width="2.5" stroke-linejoin="round" stroke-linecap="round" points="42.0,286.0 48.9,286.0 55.8,286.0 62.7,286.0 69.6,286.0 76.5,286.0 83.4,286.0 90.2,286.0 97.1,286.0 104.0,286.0 110.9,286.0 117.8,286.0 124.7,286.0 131.6,286.0 138.5,286.0 145.4,286.0 152.3,286.0 159.2,286.0 166.1,286.0 173.0,286.0 179.8,286.0 186.7,286.0 193.6,286.0 200.5,286.0 207.4,286.0 214.3,286.0 221.2,286.0 228.1,286.0 235.0,286.0 241.9,286.0 248.8,286.0 255.7,286.0 262.6,286.0 269.4,286.0 276.3,286.0 283.2,286.0 290.1,286.0 297.0,286.0 303.9,286.0 310.8,286.0 317.7,286.0 324.6,286.0 331.5,286.0 338.4,286.0 345.3,286.0 352.2,286.0 359.0,286.0 365.9,286.0 372.8,286.0 379.7,286.0 386.6,286.0 393.5,286.0 400.4,286.0 407.3,286.0 414.2,286.0 421.1,286.0 428.0,286.0 434.9,286.0 441.8,286.0 448.6,286.0 455.5,286.0 462.4,286.0 469.3,286.0 476.2,286.0 483.1,286.0 490.0,286.0 496.9,286.0 503.8,286.0 510.7,286.0 517.6,286.0 524.5,280.0 531.4,286.0 538.2,286.0 545.1,286.0 552.0,286.0 558.9,286.0 565.8,286.0 572.7,286.0 579.6,286.0 586.5,286.0 593.4,286.0 600.3,286.0 607.2,286.0 614.1,286.0 621.0,286.0 627.8,286.0 634.7,286.0 641.6,286.0 648.5,286.0 655.4,286.0 662.3,286.0 669.2,286.0 676.1,286.0 683.0,286.0 689.9,286.0 696.8,286.0 703.7,286.0 710.6,286.0 717.4,286.0 724.3,286.0 731.2,286.0 738.1,286.0 745.0,286.0 751.9,286.0 758.8,286.0 765.7,286.0 772.6,286.0 779.5,286.0 786.4,286.0 793.3,286.0 800.2,286.0 807.0,286.0 813.9,286.0 820.8,286.0 827.7,286.0 834.6,286.0 841.5,286.0 848.4,286.0 855.3,286.0 862.2,286.0 869.1,286.0 876.0,286.0 882.9,286.0 889.8,286.0 896.6,286.0 903.5,286.0 910.4,286.0 917.3,286.0 924.2,286.0 931.1,286.0 938.0,286.0"/><text x="42" y="308" font-size="11" fill="#5a688a">19/06 12:43</text><text x="938" y="308" text-anchor="end" font-size="11" fill="#5a688a">28/06 12:34</text></svg>