<svg xmlns="http://www.w3.org/2000/svg" viewBox="0 0 960 320" width="960" height="320" font-family="Segoe UI, system-ui, -apple-system, Roboto, Helvetica, Arial, sans-serif" role="img" aria-label="Availability history per region"><rect x="0.5" y="0.5" width="959" height="319" rx="14" fill="#0d1117" stroke="#2c3a5e"/><text x="42" y="26" font-size="14" font-weight="600" fill="#e6ecff">History · 77 points</text><circle cx="47" cy="40" r="5" fill="#22c55e"/><text x="57" y="44" font-size="12" fill="#9fb0d4">Available</text><circle cx="139.8" cy="40" r="5" fill="#f59e0b"/><text x="149.8" y="44" font-size="12" fill="#9fb0d4">Saturated</text><circle cx="232.60000000000002" cy="40" r="5" fill="#ef4444"/><text x="242.60000000000002" y="44" font-size="12" fill="#9fb0d4">Error</text><circle cx="296.6" cy="40" r="5" fill="#a855f7"/><text x="306.6" y="44" font-size="12" fill="#9fb0d4">Timeout</text><line x1="42" y1="286.0" x2="938" y2="286.0" stroke="#21304f" stroke-width="1"/><text x="35" y="289.0" text-anchor="end" font-size="11" fill="#9fb0d4">0</text><line x1="42" y1="227.5" x2="938" y2="227.5" stroke="#21304f" stroke-width="1"/><text x="35" y="230.5" text-anchor="end" font-size="11" fill="#9fb0d4">10</text><line x1="42" y1="169.0" x2="938" y2="169.0" stroke="#21304f" stroke-width="1"/><text x="35" y="172.0" text-anchor="end" font-size="11" fill="#9fb0d4">19</text><line x1="42" y1="110.5" x2="938" y2="110.5" stroke="#21304f" stroke-width="1"/><text x="35" y="113.5" text-anchor="end" font-size="11" fill="#9fb0d4">28</text><line x1="42" y1="52.0" x2="938" y2="52.0" stroke="#21304f" stroke-width="1"/><text x="35" y="55.0" text-anchor="end" font-size="11" fill="#9fb0d4">38</text><polyline fill="none" stroke="#22c55e" stroke-width="2.5" stroke-linejoin="round" stroke-linecap="round" points="42.0,64.3 53.8,224.4 65.6,82.8 77.4,88.9 89.2,82.8 100.9,76.6 112.7,76.6 124.5,76.6 136.3,76.6 148.1,76.6 159.9,76.6 171.7,76.6 183.5,76.6 195.3,76.6 207.1,76.6 218.8,70.5 230.6,70.5 242.4,82.8 254.2,82.8 266.0,82.8 277.8,88.9 289.6,88.9 301.4,88.9 313.2,88.9 324.9,88.9 336.7,88.9 348.5,88.9 360.3,88.9 372.1,88.9 383.9,82.8 395.7,82.8 407.5,82.8 419.3,82.8 431.1,76.6 442.8,76.6 454.6,76.6 466.4,76.6 478.2,76.6 490.0,82.8 501.8,82.8 513.6,82.8 525.4,82.8 537.2,76.6 548.9,76.6 560.7,76.6 572.5,76.6 584.3,76.6 596.1,76.6 607.9,76.6 619.7,82.8 631.5,82.8 643.3,82.8 655.1,82.8 666.8,76.6 678.6,76.6 690.4,76.6 702.2,76.6 714.0,76.6 725.8,76.6 737.6,76.6 749.4,76.6 761.2,82.8 772.9,76.6 784.7,76.6 796.5,76.6 808.3,76.6 820.1,76.6 831.9,82.8 843.7,76.6 855.5,76.6 867.3,76.6 879.1,76.6 890.8,76.6 902.6,76.6 914.4,76.6 926.2,76.6 938.0,76.6"/><polyline fill="none" stroke="#f59e0b" stroke-width="2.5" stroke-linejoin="round" stroke-linecap="round" points="42.0,273.7 53.8,267.5 65.6,255.2 77.4,249.1 89.2,255.2 100.9,261.4 112.7,261.4 124.5,261.4 136.3,261.4 148.1,261.4 159.9,261.4 171.7,261.4 183.5,261.4 195.3,261.4 207.1,261.4 218.8,267.5 230.6,267.5 242.4,261.4 254.2,255.2 266.0,255.2 277.8,249.1 289.6,249.1 301.4,249.1 313.2,249.1 324.9,249.1 336.7,249.1 348.5,249.1 360.3,249.1 372.1,249.1 383.9,255.2 395.7,255.2 407.5,255.2 419.3,255.2 431.1,261.4 442.8,261.4 454.6,261.4 466.4,261.4 478.2,261.4 490.0,255.2 501.8,255.2 513.6,255.2 525.4,255.2 537.2,261.4 548.9,261.4 560.7,261.4 572.5,261.4 584.3,261.4 596.1,261.4 607.9,261.4 619.7,255.2 631.5,255.2 643.3,255.2 655.1,261.4 666.8,261.4 678.6,261.4 690.4,261.4 702.2,261.4 714.0,261.4 725.8,261.4 737.6,261.4 749.4,261.4 761.2,255.2 772.9,261.4 784.7,261.4 796.5,261.4 808.3,261.4 820.1,261.4 831.9,261.4 843.7,261.4 855.5,261.4 867.3,261.4 879.1,261.4 890.8,261.4 902.6,261.4 914.4,261.4 926.2,261.4 938.0,261.4"/><polyline fill="none" stroke="#ef4444" stroke-width="2.5" stroke-linejoin="round" stroke-linecap="round" points="42.0,286.0 53.8,132.1 65.6,286.0 77.4,286.0 89.2,286.0 100.9,286.0 112.7,286.0 124.5,286.0 136.3,286.0 148.1,286.0 159.9,286.0 171.7,286.0 183.5,286.0 195.3,286.0 207.1,286.0 218.8,286.0 230.6,286.0 242.4,279.8 254.2,286.0 266.0,286.0 277.8,286.0 289.6,286.0 301.4,286.0 313.2,286.0 324.9,286.0 336.7,286.0 348.5,286.0 360.3,286.0 372.1,286.0 383.9,286.0 395.7,286.0 407.5,286.0 419.3,286.0 431.1,286.0 442.8,286.0 454.6,286.0 466.4,286.0 478.2,286.0 490.0,286.0 501.8,286.0 513.6,286.0 525.4,286.0 537.2,286.0 548.9,286.0 560.7,286.0 572.5,286.0 584.3,286.0 596.1,286.0 607.9,286.0 619.7,286.0 631.5,286.0 643.3,286.0 655.1,286.0 666.8,286.0 678.6,286.0 690.4,286.0 702.2,286.0 714.0,286.0 725.8,286.0 737.6,286.0 749.4,286.0 761.2,286.0 772.9,286.0 784.7,286.0 796.5,286.0 808.3,286.0 820.1,286.0 831.9,279.8 843.7,286.0 855.5,286.0 867.3,286.0 879.1,286.0 890.8,286.0 902.6,286.0 914.4,286.0 926.2,286.0 938.0,286.0"/><polyline fill="none" stroke="#a855f7" stroke-width="2.5" stroke-linejoin="round" stroke-linecap="round" points="42.0,286.0 53.8,286.0 65.6,286.0 77.4,286.0 89.2,286.0 100.9,286.0 112.7,286.0 124.5,286.0 136.3,286.0 148.1,286.0 159.9,286.0 171.7,286.0 183.5,286.0 195.3,286.0 207.1,286.0 218.8,286.0 230.6,286.0 242.4,286.0 254.2,286.0 266.0,286.0 277.8,286.0 289.6,286.0 301.4,286.0 313.2,286.0 324.9,286.0 336.7,286.0 348.5,286.0 360.3,286.0 372.1,286.0 383.9,286.0 395.7,286.0 407.5,286.0 419.3,286.0 431.1,286.0 442.8,286.0 454.6,286.0 466.4,286.0 478.2,286.0 490.0,286.0 501.8,286.0 513.6,286.0 525.4,286.0 537.2,286.0 548.9,286.0 560.7,286.0 572.5,286.0 584.3,286.0 596.1,286.0 607.9,286.0 619.7,286.0 631.5,286.0 643.3,286.0 655.1,279.8 666.8,286.0 678.6,286.0 690.4,286.0 702.2,286.0 714.0,286.0 725.8,286.0 737.6,286.0 749.4,286.0 761.2,286.0 772.9,286.0 784.7,286.0 796.5,286.0 808.3,286.0 820.1,286.0 831.9,286.0 843.7,286.0 855.5,286.0 867.3,286.0 879.1,286.0 890.8,286.0 902.6,286.0 914.4,286.0 926.2,286.0 938.0,286.0"/><text x="42" y="308" font-size="11" fill="#9fb0d4">19/06 15:39</text><text x="938" y="308" text-anchor="end" font-size="11" fill="#9fb0d4">19/07 18:33</text></svg>