<svg xmlns="http://www.w3.org/2000/svg" viewBox="0 0 960 320" width="960" height="320" font-family="Segoe UI, system-ui, -apple-system, Roboto, Helvetica, Arial, sans-serif" role="img" aria-label="Availability history per region"><rect x="0.5" y="0.5" width="959" height="319" rx="14" fill="#ffffff" stroke="#dce3f1"/><text x="42" y="26" font-size="14" font-weight="600" fill="#14203a">History · 190 points</text><circle cx="47" cy="40" r="5" fill="#22c55e"/><text x="57" y="44" font-size="12" fill="#5a688a">Available</text><circle cx="139.8" cy="40" r="5" fill="#f59e0b"/><text x="149.8" y="44" font-size="12" fill="#5a688a">Saturated</text><circle cx="232.60000000000002" cy="40" r="5" fill="#ef4444"/><text x="242.60000000000002" y="44" font-size="12" fill="#5a688a">Error</text><circle cx="296.6" cy="40" r="5" fill="#a855f7"/><text x="306.6" y="44" font-size="12" fill="#5a688a">Timeout</text><line x1="42" y1="286.0" x2="938" y2="286.0" stroke="#eef2f7" stroke-width="1"/><text x="35" y="289.0" text-anchor="end" font-size="11" fill="#5a688a">0</text><line x1="42" y1="227.5" x2="938" y2="227.5" stroke="#eef2f7" stroke-width="1"/><text x="35" y="230.5" text-anchor="end" font-size="11" fill="#5a688a">10</text><line x1="42" y1="169.0" x2="938" y2="169.0" stroke="#eef2f7" stroke-width="1"/><text x="35" y="172.0" text-anchor="end" font-size="11" fill="#5a688a">21</text><line x1="42" y1="110.5" x2="938" y2="110.5" stroke="#eef2f7" stroke-width="1"/><text x="35" y="113.5" text-anchor="end" font-size="11" fill="#5a688a">32</text><line x1="42" y1="52.0" x2="938" y2="52.0" stroke="#eef2f7" stroke-width="1"/><text x="35" y="55.0" text-anchor="end" font-size="11" fill="#5a688a">42</text><polyline fill="none" stroke="#22c55e" stroke-width="2.5" stroke-linejoin="round" stroke-linecap="round" points="42.0,85.4 46.7,230.3 51.5,102.1 56.2,107.7 61.0,102.1 65.7,96.6 70.4,96.6 75.2,96.6 79.9,96.6 84.7,96.6 89.4,96.6 94.1,96.6 98.9,96.6 103.6,96.6 108.4,96.6 113.1,91.0 117.9,91.0 122.6,102.1 127.3,102.1 132.1,102.1 136.8,107.7 141.6,107.7 146.3,107.7 151.0,107.7 155.8,107.7 160.5,107.7 165.3,107.7 170.0,107.7 174.7,107.7 179.5,102.1 184.2,102.1 189.0,102.1 193.7,102.1 198.4,96.6 203.2,96.6 207.9,96.6 212.7,96.6 217.4,96.6 222.1,102.1 226.9,102.1 231.6,102.1 236.4,102.1 241.1,96.6 245.9,96.6 250.6,96.6 255.3,96.6 260.1,96.6 264.8,96.6 269.6,96.6 274.3,102.1 279.0,102.1 283.8,102.1 288.5,102.1 293.3,96.6 298.0,96.6 302.7,96.6 307.5,96.6 312.2,96.6 317.0,96.6 321.7,96.6 326.4,96.6 331.2,102.1 335.9,96.6 340.7,96.6 345.4,96.6 350.1,96.6 354.9,96.6 359.6,102.1 364.4,96.6 369.1,96.6 373.9,96.6 378.6,96.6 383.3,96.6 388.1,96.6 392.8,96.6 397.6,96.6 402.3,96.6 407.0,91.0 411.8,91.0 416.5,91.0 421.3,91.0 426.0,96.6 430.7,91.0 435.5,96.6 440.2,96.6 445.0,96.6 449.7,96.6 454.4,96.6 459.2,96.6 463.9,102.1 468.7,107.7 473.4,107.7 478.1,107.7 482.9,107.7 487.6,107.7 492.4,107.7 497.1,107.7 501.9,113.3 506.6,107.7 511.3,107.7 516.1,107.7 520.8,107.7 525.6,107.7 530.3,107.7 535.0,102.1 539.8,102.1 544.5,102.1 549.3,102.1 554.0,102.1 558.7,102.1 563.5,102.1 568.2,102.1 573.0,107.7 577.7,107.7 582.4,107.7 587.2,107.7 591.9,107.7 596.7,107.7 601.4,107.7 606.1,107.7 610.9,113.3 615.6,107.7 620.4,107.7 625.1,107.7 629.9,118.9 634.6,107.7 639.3,107.7 644.1,107.7 648.8,107.7 653.6,102.1 658.3,102.1 663.0,102.1 667.8,102.1 672.5,107.7 677.3,102.1 682.0,107.7 686.7,107.7 691.5,107.7 696.2,107.7 701.0,113.3 705.7,107.7 710.4,107.7 715.2,107.7 719.9,107.7 724.7,107.7 729.4,107.7 734.1,107.7 738.9,107.7 743.6,113.3 748.4,102.1 753.1,102.1 757.9,102.1 762.6,102.1 767.3,102.1 772.1,102.1 776.8,102.1 781.6,102.1 786.3,102.1 791.0,102.1 795.8,107.7 800.5,102.1 805.3,102.1 810.0,102.1 814.7,102.1 819.5,102.1 824.2,102.1 829.0,102.1 833.7,102.1 838.4,107.7 843.2,91.0 847.9,85.4 852.7,79.9 857.4,79.9 862.1,79.9 866.9,79.9 871.6,79.9 876.4,79.9 881.1,79.9 885.9,91.0 890.6,96.6 895.3,91.0 900.1,91.0 904.8,91.0 909.6,91.0 914.3,91.0 919.0,91.0 923.8,91.0 928.5,79.9 933.3,79.9 938.0,79.9"/><polyline fill="none" stroke="#f59e0b" stroke-width="2.5" stroke-linejoin="round" stroke-linecap="round" points="42.0,274.9 46.7,269.3 51.5,258.1 56.2,252.6 61.0,258.1 65.7,263.7 70.4,263.7 75.2,263.7 79.9,263.7 84.7,263.7 89.4,263.7 94.1,263.7 98.9,263.7 103.6,263.7 108.4,263.7 113.1,269.3 117.9,269.3 122.6,263.7 127.3,258.1 132.1,258.1 136.8,252.6 141.6,252.6 146.3,252.6 151.0,252.6 155.8,252.6 160.5,252.6 165.3,252.6 170.0,252.6 174.7,252.6 179.5,258.1 184.2,258.1 189.0,258.1 193.7,258.1 198.4,263.7 203.2,263.7 207.9,263.7 212.7,263.7 217.4,263.7 222.1,258.1 226.9,258.1 231.6,258.1 236.4,258.1 241.1,263.7 245.9,263.7 250.6,263.7 255.3,263.7 260.1,263.7 264.8,263.7 269.6,263.7 274.3,258.1 279.0,258.1 283.8,258.1 288.5,263.7 293.3,263.7 298.0,263.7 302.7,263.7 307.5,263.7 312.2,263.7 317.0,263.7 321.7,263.7 326.4,263.7 331.2,258.1 335.9,263.7 340.7,263.7 345.4,263.7 350.1,263.7 354.9,263.7 359.6,263.7 364.4,263.7 369.1,263.7 373.9,263.7 378.6,263.7 383.3,263.7 388.1,263.7 392.8,263.7 397.6,263.7 402.3,263.7 407.0,269.3 411.8,269.3 416.5,269.3 421.3,269.3 426.0,269.3 430.7,269.3 435.5,263.7 440.2,263.7 445.0,263.7 449.7,263.7 454.4,263.7 459.2,263.7 463.9,258.1 468.7,252.6 473.4,252.6 478.1,258.1 482.9,252.6 487.6,252.6 492.4,252.6 497.1,252.6 501.9,252.6 506.6,252.6 511.3,258.1 516.1,252.6 520.8,252.6 525.6,252.6 530.3,252.6 535.0,258.1 539.8,258.1 544.5,258.1 549.3,258.1 554.0,258.1 558.7,258.1 563.5,258.1 568.2,258.1 573.0,252.6 577.7,252.6 582.4,252.6 587.2,252.6 591.9,252.6 596.7,252.6 601.4,252.6 606.1,258.1 610.9,252.6 615.6,252.6 620.4,252.6 625.1,252.6 629.9,252.6 634.6,252.6 639.3,252.6 644.1,258.1 648.8,258.1 653.6,258.1 658.3,258.1 663.0,258.1 667.8,258.1 672.5,258.1 677.3,258.1 682.0,252.6 686.7,252.6 691.5,252.6 696.2,252.6 701.0,252.6 705.7,252.6 710.4,252.6 715.2,252.6 719.9,252.6 724.7,252.6 729.4,252.6 734.1,252.6 738.9,252.6 743.6,252.6 748.4,258.1 753.1,258.1 757.9,258.1 762.6,258.1 767.3,258.1 772.1,263.7 776.8,263.7 781.6,258.1 786.3,258.1 791.0,258.1 795.8,258.1 800.5,258.1 805.3,258.1 810.0,258.1 814.7,258.1 819.5,258.1 824.2,258.1 829.0,258.1 833.7,258.1 838.4,258.1 843.2,258.1 847.9,258.1 852.7,258.1 857.4,258.1 862.1,258.1 866.9,258.1 871.6,258.1 876.4,258.1 881.1,258.1 885.9,258.1 890.6,258.1 895.3,258.1 900.1,258.1 904.8,258.1 909.6,258.1 914.3,258.1 919.0,258.1 923.8,258.1 928.5,258.1 933.3,258.1 938.0,258.1"/><polyline fill="none" stroke="#ef4444" stroke-width="2.5" stroke-linejoin="round" stroke-linecap="round" points="42.0,286.0 46.7,146.7 51.5,286.0 56.2,286.0 61.0,286.0 65.7,286.0 70.4,286.0 75.2,286.0 79.9,286.0 84.7,286.0 89.4,286.0 94.1,286.0 98.9,286.0 103.6,286.0 108.4,286.0 113.1,286.0 117.9,286.0 122.6,280.4 127.3,286.0 132.1,286.0 136.8,286.0 141.6,286.0 146.3,286.0 151.0,286.0 155.8,286.0 160.5,286.0 165.3,286.0 170.0,286.0 174.7,286.0 179.5,286.0 184.2,286.0 189.0,286.0 193.7,286.0 198.4,286.0 203.2,286.0 207.9,286.0 212.7,286.0 217.4,286.0 222.1,286.0 226.9,286.0 231.6,286.0 236.4,286.0 241.1,286.0 245.9,286.0 250.6,286.0 255.3,286.0 260.1,286.0 264.8,286.0 269.6,286.0 274.3,286.0 279.0,286.0 283.8,286.0 288.5,286.0 293.3,286.0 298.0,286.0 302.7,286.0 307.5,286.0 312.2,286.0 317.0,286.0 321.7,286.0 326.4,286.0 331.2,286.0 335.9,286.0 340.7,286.0 345.4,286.0 350.1,286.0 354.9,286.0 359.6,280.4 364.4,286.0 369.1,286.0 373.9,286.0 378.6,286.0 383.3,286.0 388.1,286.0 392.8,286.0 397.6,286.0 402.3,286.0 407.0,286.0 411.8,286.0 416.5,286.0 421.3,286.0 426.0,280.4 430.7,286.0 435.5,286.0 440.2,286.0 445.0,286.0 449.7,286.0 454.4,286.0 459.2,286.0 463.9,286.0 468.7,286.0 473.4,286.0 478.1,280.4 482.9,286.0 487.6,286.0 492.4,286.0 497.1,286.0 501.9,280.4 506.6,286.0 511.3,286.0 516.1,286.0 520.8,286.0 525.6,286.0 530.3,286.0 535.0,286.0 539.8,286.0 544.5,286.0 549.3,286.0 554.0,286.0 558.7,286.0 563.5,286.0 568.2,286.0 573.0,286.0 577.7,286.0 582.4,286.0 587.2,286.0 591.9,286.0 596.7,286.0 601.4,286.0 606.1,286.0 610.9,280.4 615.6,286.0 620.4,286.0 625.1,286.0 629.9,274.9 634.6,286.0 639.3,286.0 644.1,280.4 648.8,280.4 653.6,286.0 658.3,286.0 663.0,286.0 667.8,286.0 672.5,280.4 677.3,286.0 682.0,286.0 686.7,286.0 691.5,286.0 696.2,286.0 701.0,286.0 705.7,286.0 710.4,286.0 715.2,286.0 719.9,286.0 724.7,286.0 729.4,286.0 734.1,286.0 738.9,286.0 743.6,286.0 748.4,286.0 753.1,286.0 757.9,286.0 762.6,286.0 767.3,286.0 772.1,280.4 776.8,286.0 781.6,286.0 786.3,286.0 791.0,263.7 795.8,280.4 800.5,286.0 805.3,286.0 810.0,286.0 814.7,286.0 819.5,286.0 824.2,286.0 829.0,286.0 833.7,286.0 838.4,258.1 843.2,274.9 847.9,280.4 852.7,286.0 857.4,286.0 862.1,286.0 866.9,286.0 871.6,286.0 876.4,286.0 881.1,286.0 885.9,274.9 890.6,269.3 895.3,274.9 900.1,274.9 904.8,274.9 909.6,274.9 914.3,274.9 919.0,274.9 923.8,274.9 928.5,286.0 933.3,286.0 938.0,286.0"/><polyline fill="none" stroke="#a855f7" stroke-width="2.5" stroke-linejoin="round" stroke-linecap="round" points="42.0,286.0 46.7,286.0 51.5,286.0 56.2,286.0 61.0,286.0 65.7,286.0 70.4,286.0 75.2,286.0 79.9,286.0 84.7,286.0 89.4,286.0 94.1,286.0 98.9,286.0 103.6,286.0 108.4,286.0 113.1,286.0 117.9,286.0 122.6,286.0 127.3,286.0 132.1,286.0 136.8,286.0 141.6,286.0 146.3,286.0 151.0,286.0 155.8,286.0 160.5,286.0 165.3,286.0 170.0,286.0 174.7,286.0 179.5,286.0 184.2,286.0 189.0,286.0 193.7,286.0 198.4,286.0 203.2,286.0 207.9,286.0 212.7,286.0 217.4,286.0 222.1,286.0 226.9,286.0 231.6,286.0 236.4,286.0 241.1,286.0 245.9,286.0 250.6,286.0 255.3,286.0 260.1,286.0 264.8,286.0 269.6,286.0 274.3,286.0 279.0,286.0 283.8,286.0 288.5,280.4 293.3,286.0 298.0,286.0 302.7,286.0 307.5,286.0 312.2,286.0 317.0,286.0 321.7,286.0 326.4,286.0 331.2,286.0 335.9,286.0 340.7,286.0 345.4,286.0 350.1,286.0 354.9,286.0 359.6,286.0 364.4,286.0 369.1,286.0 373.9,286.0 378.6,286.0 383.3,286.0 388.1,286.0 392.8,286.0 397.6,286.0 402.3,286.0 407.0,286.0 411.8,286.0 416.5,286.0 421.3,286.0 426.0,286.0 430.7,286.0 435.5,286.0 440.2,286.0 445.0,286.0 449.7,286.0 454.4,286.0 459.2,286.0 463.9,286.0 468.7,286.0 473.4,286.0 478.1,286.0 482.9,286.0 487.6,286.0 492.4,286.0 497.1,286.0 501.9,286.0 506.6,286.0 511.3,280.4 516.1,286.0 520.8,286.0 525.6,286.0 530.3,286.0 535.0,286.0 539.8,286.0 544.5,286.0 549.3,286.0 554.0,286.0 558.7,286.0 563.5,286.0 568.2,286.0 573.0,286.0 577.7,286.0 582.4,286.0 587.2,286.0 591.9,286.0 596.7,286.0 601.4,286.0 606.1,280.4 610.9,286.0 615.6,286.0 620.4,286.0 625.1,286.0 629.9,286.0 634.6,286.0 639.3,286.0 644.1,286.0 648.8,286.0 653.6,286.0 658.3,286.0 663.0,286.0 667.8,286.0 672.5,286.0 677.3,286.0 682.0,286.0 686.7,286.0 691.5,286.0 696.2,286.0 701.0,280.4 705.7,286.0 710.4,286.0 715.2,286.0 719.9,286.0 724.7,286.0 729.4,286.0 734.1,286.0 738.9,286.0 743.6,280.4 748.4,286.0 753.1,286.0 757.9,286.0 762.6,286.0 767.3,286.0 772.1,286.0 776.8,280.4 781.6,286.0 786.3,286.0 791.0,286.0 795.8,286.0 800.5,286.0 805.3,286.0 810.0,286.0 814.7,286.0 819.5,286.0 824.2,286.0 829.0,286.0 833.7,286.0 838.4,286.0 843.2,286.0 847.9,286.0 852.7,286.0 857.4,286.0 862.1,286.0 866.9,286.0 871.6,286.0 876.4,286.0 881.1,286.0 885.9,286.0 890.6,286.0 895.3,286.0 900.1,286.0 904.8,286.0 909.6,286.0 914.3,286.0 919.0,286.0 923.8,286.0 928.5,286.0 933.3,286.0 938.0,286.0"/><text x="42" y="308" font-size="11" fill="#5a688a">19/06 15:39</text><text x="938" y="308" text-anchor="end" font-size="11" fill="#5a688a">24/07 12:33</text></svg>