<svg xmlns="http://www.w3.org/2000/svg" viewBox="0 0 960 320" width="960" height="320" font-family="Segoe UI, system-ui, -apple-system, Roboto, Helvetica, Arial, sans-serif" role="img" aria-label="Availability history per region"><rect x="0.5" y="0.5" width="959" height="319" rx="14" fill="#0d1117" stroke="#2c3a5e"/><text x="42" y="26" font-size="14" font-weight="600" fill="#e6ecff">History · 136 points</text><circle cx="47" cy="40" r="5" fill="#22c55e"/><text x="57" y="44" font-size="12" fill="#9fb0d4">Available</text><circle cx="139.8" cy="40" r="5" fill="#f59e0b"/><text x="149.8" y="44" font-size="12" fill="#9fb0d4">Saturated</text><circle cx="232.60000000000002" cy="40" r="5" fill="#ef4444"/><text x="242.60000000000002" y="44" font-size="12" fill="#9fb0d4">Error</text><circle cx="296.6" cy="40" r="5" fill="#a855f7"/><text x="306.6" y="44" font-size="12" fill="#9fb0d4">Timeout</text><line x1="42" y1="286.0" x2="938" y2="286.0" stroke="#21304f" stroke-width="1"/><text x="35" y="289.0" text-anchor="end" font-size="11" fill="#9fb0d4">0</text><line x1="42" y1="227.5" x2="938" y2="227.5" stroke="#21304f" stroke-width="1"/><text x="35" y="230.5" text-anchor="end" font-size="11" fill="#9fb0d4">10</text><line x1="42" y1="169.0" x2="938" y2="169.0" stroke="#21304f" stroke-width="1"/><text x="35" y="172.0" text-anchor="end" font-size="11" fill="#9fb0d4">19</text><line x1="42" y1="110.5" x2="938" y2="110.5" stroke="#21304f" stroke-width="1"/><text x="35" y="113.5" text-anchor="end" font-size="11" fill="#9fb0d4">28</text><line x1="42" y1="52.0" x2="938" y2="52.0" stroke="#21304f" stroke-width="1"/><text x="35" y="55.0" text-anchor="end" font-size="11" fill="#9fb0d4">38</text><polyline fill="none" stroke="#22c55e" stroke-width="2.5" stroke-linejoin="round" stroke-linecap="round" points="42.0,64.3 48.6,224.4 55.3,82.8 61.9,88.9 68.5,82.8 75.2,76.6 81.8,76.6 88.5,76.6 95.1,76.6 101.7,76.6 108.4,76.6 115.0,76.6 121.6,76.6 128.3,76.6 134.9,76.6 141.6,70.5 148.2,70.5 154.8,82.8 161.5,82.8 168.1,82.8 174.7,88.9 181.4,88.9 188.0,88.9 194.7,88.9 201.3,88.9 207.9,88.9 214.6,88.9 221.2,88.9 227.8,88.9 234.5,82.8 241.1,82.8 247.7,82.8 254.4,82.8 261.0,76.6 267.7,76.6 274.3,76.6 280.9,76.6 287.6,76.6 294.2,82.8 300.8,82.8 307.5,82.8 314.1,82.8 320.8,76.6 327.4,76.6 334.0,76.6 340.7,76.6 347.3,76.6 353.9,76.6 360.6,76.6 367.2,82.8 373.9,82.8 380.5,82.8 387.1,82.8 393.8,76.6 400.4,76.6 407.0,76.6 413.7,76.6 420.3,76.6 426.9,76.6 433.6,76.6 440.2,76.6 446.9,82.8 453.5,76.6 460.1,76.6 466.8,76.6 473.4,76.6 480.0,76.6 486.7,82.8 493.3,76.6 500.0,76.6 506.6,76.6 513.2,76.6 519.9,76.6 526.5,76.6 533.1,76.6 539.8,76.6 546.4,76.6 553.1,70.5 559.7,70.5 566.3,70.5 573.0,70.5 579.6,76.6 586.2,70.5 592.9,76.6 599.5,76.6 606.1,76.6 612.8,76.6 619.4,76.6 626.1,76.6 632.7,82.8 639.3,88.9 646.0,88.9 652.6,88.9 659.2,88.9 665.9,88.9 672.5,88.9 679.2,88.9 685.8,95.1 692.4,88.9 699.1,88.9 705.7,88.9 712.3,88.9 719.0,88.9 725.6,88.9 732.3,82.8 738.9,82.8 745.5,82.8 752.2,82.8 758.8,82.8 765.4,82.8 772.1,82.8 778.7,82.8 785.3,88.9 792.0,88.9 798.6,88.9 805.3,88.9 811.9,88.9 818.5,88.9 825.2,88.9 831.8,88.9 838.4,95.1 845.1,88.9 851.7,88.9 858.4,88.9 865.0,101.3 871.6,88.9 878.3,88.9 884.9,88.9 891.5,88.9 898.2,82.8 904.8,82.8 911.5,82.8 918.1,82.8 924.7,88.9 931.4,82.8 938.0,88.9"/><polyline fill="none" stroke="#f59e0b" stroke-width="2.5" stroke-linejoin="round" stroke-linecap="round" points="42.0,273.7 48.6,267.5 55.3,255.2 61.9,249.1 68.5,255.2 75.2,261.4 81.8,261.4 88.5,261.4 95.1,261.4 101.7,261.4 108.4,261.4 115.0,261.4 121.6,261.4 128.3,261.4 134.9,261.4 141.6,267.5 148.2,267.5 154.8,261.4 161.5,255.2 168.1,255.2 174.7,249.1 181.4,249.1 188.0,249.1 194.7,249.1 201.3,249.1 207.9,249.1 214.6,249.1 221.2,249.1 227.8,249.1 234.5,255.2 241.1,255.2 247.7,255.2 254.4,255.2 261.0,261.4 267.7,261.4 274.3,261.4 280.9,261.4 287.6,261.4 294.2,255.2 300.8,255.2 307.5,255.2 314.1,255.2 320.8,261.4 327.4,261.4 334.0,261.4 340.7,261.4 347.3,261.4 353.9,261.4 360.6,261.4 367.2,255.2 373.9,255.2 380.5,255.2 387.1,261.4 393.8,261.4 400.4,261.4 407.0,261.4 413.7,261.4 420.3,261.4 426.9,261.4 433.6,261.4 440.2,261.4 446.9,255.2 453.5,261.4 460.1,261.4 466.8,261.4 473.4,261.4 480.0,261.4 486.7,261.4 493.3,261.4 500.0,261.4 506.6,261.4 513.2,261.4 519.9,261.4 526.5,261.4 533.1,261.4 539.8,261.4 546.4,261.4 553.1,267.5 559.7,267.5 566.3,267.5 573.0,267.5 579.6,267.5 586.2,267.5 592.9,261.4 599.5,261.4 606.1,261.4 612.8,261.4 619.4,261.4 626.1,261.4 632.7,255.2 639.3,249.1 646.0,249.1 652.6,255.2 659.2,249.1 665.9,249.1 672.5,249.1 679.2,249.1 685.8,249.1 692.4,249.1 699.1,255.2 705.7,249.1 712.3,249.1 719.0,249.1 725.6,249.1 732.3,255.2 738.9,255.2 745.5,255.2 752.2,255.2 758.8,255.2 765.4,255.2 772.1,255.2 778.7,255.2 785.3,249.1 792.0,249.1 798.6,249.1 805.3,249.1 811.9,249.1 818.5,249.1 825.2,249.1 831.8,255.2 838.4,249.1 845.1,249.1 851.7,249.1 858.4,249.1 865.0,249.1 871.6,249.1 878.3,249.1 884.9,255.2 891.5,255.2 898.2,255.2 904.8,255.2 911.5,255.2 918.1,255.2 924.7,255.2 931.4,255.2 938.0,249.1"/><polyline fill="none" stroke="#ef4444" stroke-width="2.5" stroke-linejoin="round" stroke-linecap="round" points="42.0,286.0 48.6,132.1 55.3,286.0 61.9,286.0 68.5,286.0 75.2,286.0 81.8,286.0 88.5,286.0 95.1,286.0 101.7,286.0 108.4,286.0 115.0,286.0 121.6,286.0 128.3,286.0 134.9,286.0 141.6,286.0 148.2,286.0 154.8,279.8 161.5,286.0 168.1,286.0 174.7,286.0 181.4,286.0 188.0,286.0 194.7,286.0 201.3,286.0 207.9,286.0 214.6,286.0 221.2,286.0 227.8,286.0 234.5,286.0 241.1,286.0 247.7,286.0 254.4,286.0 261.0,286.0 267.7,286.0 274.3,286.0 280.9,286.0 287.6,286.0 294.2,286.0 300.8,286.0 307.5,286.0 314.1,286.0 320.8,286.0 327.4,286.0 334.0,286.0 340.7,286.0 347.3,286.0 353.9,286.0 360.6,286.0 367.2,286.0 373.9,286.0 380.5,286.0 387.1,286.0 393.8,286.0 400.4,286.0 407.0,286.0 413.7,286.0 420.3,286.0 426.9,286.0 433.6,286.0 440.2,286.0 446.9,286.0 453.5,286.0 460.1,286.0 466.8,286.0 473.4,286.0 480.0,286.0 486.7,279.8 493.3,286.0 500.0,286.0 506.6,286.0 513.2,286.0 519.9,286.0 526.5,286.0 533.1,286.0 539.8,286.0 546.4,286.0 553.1,286.0 559.7,286.0 566.3,286.0 573.0,286.0 579.6,279.8 586.2,286.0 592.9,286.0 599.5,286.0 606.1,286.0 612.8,286.0 619.4,286.0 626.1,286.0 632.7,286.0 639.3,286.0 646.0,286.0 652.6,279.8 659.2,286.0 665.9,286.0 672.5,286.0 679.2,286.0 685.8,279.8 692.4,286.0 699.1,286.0 705.7,286.0 712.3,286.0 719.0,286.0 725.6,286.0 732.3,286.0 738.9,286.0 745.5,286.0 752.2,286.0 758.8,286.0 765.4,286.0 772.1,286.0 778.7,286.0 785.3,286.0 792.0,286.0 798.6,286.0 805.3,286.0 811.9,286.0 818.5,286.0 825.2,286.0 831.8,286.0 838.4,279.8 845.1,286.0 851.7,286.0 858.4,286.0 865.0,273.7 871.6,286.0 878.3,286.0 884.9,279.8 891.5,279.8 898.2,286.0 904.8,286.0 911.5,286.0 918.1,286.0 924.7,279.8 931.4,286.0 938.0,286.0"/><polyline fill="none" stroke="#a855f7" stroke-width="2.5" stroke-linejoin="round" stroke-linecap="round" points="42.0,286.0 48.6,286.0 55.3,286.0 61.9,286.0 68.5,286.0 75.2,286.0 81.8,286.0 88.5,286.0 95.1,286.0 101.7,286.0 108.4,286.0 115.0,286.0 121.6,286.0 128.3,286.0 134.9,286.0 141.6,286.0 148.2,286.0 154.8,286.0 161.5,286.0 168.1,286.0 174.7,286.0 181.4,286.0 188.0,286.0 194.7,286.0 201.3,286.0 207.9,286.0 214.6,286.0 221.2,286.0 227.8,286.0 234.5,286.0 241.1,286.0 247.7,286.0 254.4,286.0 261.0,286.0 267.7,286.0 274.3,286.0 280.9,286.0 287.6,286.0 294.2,286.0 300.8,286.0 307.5,286.0 314.1,286.0 320.8,286.0 327.4,286.0 334.0,286.0 340.7,286.0 347.3,286.0 353.9,286.0 360.6,286.0 367.2,286.0 373.9,286.0 380.5,286.0 387.1,279.8 393.8,286.0 400.4,286.0 407.0,286.0 413.7,286.0 420.3,286.0 426.9,286.0 433.6,286.0 440.2,286.0 446.9,286.0 453.5,286.0 460.1,286.0 466.8,286.0 473.4,286.0 480.0,286.0 486.7,286.0 493.3,286.0 500.0,286.0 506.6,286.0 513.2,286.0 519.9,286.0 526.5,286.0 533.1,286.0 539.8,286.0 546.4,286.0 553.1,286.0 559.7,286.0 566.3,286.0 573.0,286.0 579.6,286.0 586.2,286.0 592.9,286.0 599.5,286.0 606.1,286.0 612.8,286.0 619.4,286.0 626.1,286.0 632.7,286.0 639.3,286.0 646.0,286.0 652.6,286.0 659.2,286.0 665.9,286.0 672.5,286.0 679.2,286.0 685.8,286.0 692.4,286.0 699.1,279.8 705.7,286.0 712.3,286.0 719.0,286.0 725.6,286.0 732.3,286.0 738.9,286.0 745.5,286.0 752.2,286.0 758.8,286.0 765.4,286.0 772.1,286.0 778.7,286.0 785.3,286.0 792.0,286.0 798.6,286.0 805.3,286.0 811.9,286.0 818.5,286.0 825.2,286.0 831.8,279.8 838.4,286.0 845.1,286.0 851.7,286.0 858.4,286.0 865.0,286.0 871.6,286.0 878.3,286.0 884.9,286.0 891.5,286.0 898.2,286.0 904.8,286.0 911.5,286.0 918.1,286.0 924.7,286.0 931.4,286.0 938.0,286.0"/><text x="42" y="308" font-size="11" fill="#9fb0d4">19/06 15:39</text><text x="938" y="308" text-anchor="end" font-size="11" fill="#9fb0d4">22/07 06:32</text></svg>