<svg xmlns="http://www.w3.org/2000/svg" viewBox="0 0 960 320" width="960" height="320" font-family="Segoe UI, system-ui, -apple-system, Roboto, Helvetica, Arial, sans-serif" role="img" aria-label="Availability history per region"><rect x="0.5" y="0.5" width="959" height="319" rx="14" fill="#0d1117" stroke="#2c3a5e"/><text x="42" y="26" font-size="14" font-weight="600" fill="#e6ecff">History · 23 points</text><circle cx="47" cy="40" r="5" fill="#22c55e"/><text x="57" y="44" font-size="12" fill="#9fb0d4">Available</text><circle cx="139.8" cy="40" r="5" fill="#f59e0b"/><text x="149.8" y="44" font-size="12" fill="#9fb0d4">Saturated</text><circle cx="232.60000000000002" cy="40" r="5" fill="#ef4444"/><text x="242.60000000000002" y="44" font-size="12" fill="#9fb0d4">Error</text><line x1="42" y1="286.0" x2="938" y2="286.0" stroke="#21304f" stroke-width="1"/><text x="35" y="289.0" text-anchor="end" font-size="11" fill="#9fb0d4">0</text><line x1="42" y1="227.5" x2="938" y2="227.5" stroke="#21304f" stroke-width="1"/><text x="35" y="230.5" text-anchor="end" font-size="11" fill="#9fb0d4">10</text><line x1="42" y1="169.0" x2="938" y2="169.0" stroke="#21304f" stroke-width="1"/><text x="35" y="172.0" text-anchor="end" font-size="11" fill="#9fb0d4">20</text><line x1="42" y1="110.5" x2="938" y2="110.5" stroke="#21304f" stroke-width="1"/><text x="35" y="113.5" text-anchor="end" font-size="11" fill="#9fb0d4">29</text><line x1="42" y1="52.0" x2="938" y2="52.0" stroke="#21304f" stroke-width="1"/><text x="35" y="55.0" text-anchor="end" font-size="11" fill="#9fb0d4">39</text><polyline fill="none" stroke="#22c55e" stroke-width="2.5" stroke-linejoin="round" stroke-linecap="round" points="42.0,70.0 82.7,70.0 123.5,88.0 164.2,88.0 204.9,76.0 245.6,76.0 286.4,76.0 327.1,70.0 367.8,76.0 408.5,70.0 449.3,64.0 490.0,58.0 530.7,58.0 571.5,58.0 612.2,58.0 652.9,58.0 693.6,58.0 734.4,58.0 775.1,58.0 815.8,58.0 856.5,58.0 897.3,58.0 938.0,58.0"/><circle cx="42.0" cy="70.0" r="2.5" fill="#22c55e"/><circle cx="82.7" cy="70.0" r="2.5" fill="#22c55e"/><circle cx="123.5" cy="88.0" r="2.5" fill="#22c55e"/><circle cx="164.2" cy="88.0" r="2.5" fill="#22c55e"/><circle cx="204.9" cy="76.0" r="2.5" fill="#22c55e"/><circle cx="245.6" cy="76.0" r="2.5" fill="#22c55e"/><circle cx="286.4" cy="76.0" r="2.5" fill="#22c55e"/><circle cx="327.1" cy="70.0" r="2.5" fill="#22c55e"/><circle cx="367.8" cy="76.0" r="2.5" fill="#22c55e"/><circle cx="408.5" cy="70.0" r="2.5" fill="#22c55e"/><circle cx="449.3" cy="64.0" r="2.5" fill="#22c55e"/><circle cx="490.0" cy="58.0" r="2.5" fill="#22c55e"/><circle cx="530.7" cy="58.0" r="2.5" fill="#22c55e"/><circle cx="571.5" cy="58.0" r="2.5" fill="#22c55e"/><circle cx="612.2" cy="58.0" r="2.5" fill="#22c55e"/><circle cx="652.9" cy="58.0" r="2.5" fill="#22c55e"/><circle cx="693.6" cy="58.0" r="2.5" fill="#22c55e"/><circle cx="734.4" cy="58.0" r="2.5" fill="#22c55e"/><circle cx="775.1" cy="58.0" r="2.5" fill="#22c55e"/><circle cx="815.8" cy="58.0" r="2.5" fill="#22c55e"/><circle cx="856.5" cy="58.0" r="2.5" fill="#22c55e"/><circle cx="897.3" cy="58.0" r="2.5" fill="#22c55e"/><circle cx="938.0" cy="58.0" r="2.5" fill="#22c55e"/><polyline fill="none" stroke="#f59e0b" stroke-width="2.5" stroke-linejoin="round" stroke-linecap="round" points="42.0,274.0 82.7,274.0 123.5,274.0 164.2,280.0 204.9,268.0 245.6,268.0 286.4,268.0 327.1,274.0 367.8,274.0 408.5,274.0 449.3,280.0 490.0,286.0 530.7,286.0 571.5,286.0 612.2,286.0 652.9,286.0 693.6,286.0 734.4,286.0 775.1,286.0 815.8,286.0 856.5,286.0 897.3,286.0 938.0,286.0"/><circle cx="42.0" cy="274.0" r="2.5" fill="#f59e0b"/><circle cx="82.7" cy="274.0" r="2.5" fill="#f59e0b"/><circle cx="123.5" cy="274.0" r="2.5" fill="#f59e0b"/><circle cx="164.2" cy="280.0" r="2.5" fill="#f59e0b"/><circle cx="204.9" cy="268.0" r="2.5" fill="#f59e0b"/><circle cx="245.6" cy="268.0" r="2.5" fill="#f59e0b"/><circle cx="286.4" cy="268.0" r="2.5" fill="#f59e0b"/><circle cx="327.1" cy="274.0" r="2.5" fill="#f59e0b"/><circle cx="367.8" cy="274.0" r="2.5" fill="#f59e0b"/><circle cx="408.5" cy="274.0" r="2.5" fill="#f59e0b"/><circle cx="449.3" cy="280.0" r="2.5" fill="#f59e0b"/><circle cx="490.0" cy="286.0" r="2.5" fill="#f59e0b"/><circle cx="530.7" cy="286.0" r="2.5" fill="#f59e0b"/><circle cx="571.5" cy="286.0" r="2.5" fill="#f59e0b"/><circle cx="612.2" cy="286.0" r="2.5" fill="#f59e0b"/><circle cx="652.9" cy="286.0" r="2.5" fill="#f59e0b"/><circle cx="693.6" cy="286.0" r="2.5" fill="#f59e0b"/><circle cx="734.4" cy="286.0" r="2.5" fill="#f59e0b"/><circle cx="775.1" cy="286.0" r="2.5" fill="#f59e0b"/><circle cx="815.8" cy="286.0" r="2.5" fill="#f59e0b"/><circle cx="856.5" cy="286.0" r="2.5" fill="#f59e0b"/><circle cx="897.3" cy="286.0" r="2.5" fill="#f59e0b"/><circle cx="938.0" cy="286.0" r="2.5" fill="#f59e0b"/><polyline fill="none" stroke="#ef4444" stroke-width="2.5" stroke-linejoin="round" stroke-linecap="round" points="42.0,280.0 82.7,280.0 123.5,268.0 164.2,262.0 204.9,286.0 245.6,286.0 286.4,286.0 327.1,286.0 367.8,280.0 408.5,286.0 449.3,286.0 490.0,286.0 530.7,286.0 571.5,286.0 612.2,286.0 652.9,286.0 693.6,286.0 734.4,286.0 775.1,286.0 815.8,286.0 856.5,286.0 897.3,286.0 938.0,286.0"/><circle cx="42.0" cy="280.0" r="2.5" fill="#ef4444"/><circle cx="82.7" cy="280.0" r="2.5" fill="#ef4444"/><circle cx="123.5" cy="268.0" r="2.5" fill="#ef4444"/><circle cx="164.2" cy="262.0" r="2.5" fill="#ef4444"/><circle cx="204.9" cy="286.0" r="2.5" fill="#ef4444"/><circle cx="245.6" cy="286.0" r="2.5" fill="#ef4444"/><circle cx="286.4" cy="286.0" r="2.5" fill="#ef4444"/><circle cx="327.1" cy="286.0" r="2.5" fill="#ef4444"/><circle cx="367.8" cy="280.0" r="2.5" fill="#ef4444"/><circle cx="408.5" cy="286.0" r="2.5" fill="#ef4444"/><circle cx="449.3" cy="286.0" r="2.5" fill="#ef4444"/><circle cx="490.0" cy="286.0" r="2.5" fill="#ef4444"/><circle cx="530.7" cy="286.0" r="2.5" fill="#ef4444"/><circle cx="571.5" cy="286.0" r="2.5" fill="#ef4444"/><circle cx="612.2" cy="286.0" r="2.5" fill="#ef4444"/><circle cx="652.9" cy="286.0" r="2.5" fill="#ef4444"/><circle cx="693.6" cy="286.0" r="2.5" fill="#ef4444"/><circle cx="734.4" cy="286.0" r="2.5" fill="#ef4444"/><circle cx="775.1" cy="286.0" r="2.5" fill="#ef4444"/><circle cx="815.8" cy="286.0" r="2.5" fill="#ef4444"/><circle cx="856.5" cy="286.0" r="2.5" fill="#ef4444"/><circle cx="897.3" cy="286.0" r="2.5" fill="#ef4444"/><circle cx="938.0" cy="286.0" r="2.5" fill="#ef4444"/><text x="42" y="308" font-size="11" fill="#9fb0d4">19/06 12:43</text><text x="938" y="308" text-anchor="end" font-size="11" fill="#9fb0d4">21/06 13:33</text></svg>