<svg xmlns="http://www.w3.org/2000/svg" viewBox="0 0 960 320" width="960" height="320" font-family="Segoe UI, system-ui, -apple-system, Roboto, Helvetica, Arial, sans-serif" role="img" aria-label="Availability history per region"><rect x="0.5" y="0.5" width="959" height="319" rx="14" fill="#0d1117" stroke="#2c3a5e"/><text x="42" y="26" font-size="14" font-weight="600" fill="#e6ecff">History · 177 points</text><circle cx="47" cy="40" r="5" fill="#22c55e"/><text x="57" y="44" font-size="12" fill="#9fb0d4">Available</text><circle cx="139.8" cy="40" r="5" fill="#f59e0b"/><text x="149.8" y="44" font-size="12" fill="#9fb0d4">Saturated</text><circle cx="232.60000000000002" cy="40" r="5" fill="#ef4444"/><text x="242.60000000000002" y="44" font-size="12" fill="#9fb0d4">Error</text><circle cx="296.6" cy="40" r="5" fill="#a855f7"/><text x="306.6" y="44" font-size="12" fill="#9fb0d4">Timeout</text><line x1="42" y1="286.0" x2="938" y2="286.0" stroke="#21304f" stroke-width="1"/><text x="35" y="289.0" text-anchor="end" font-size="11" fill="#9fb0d4">0</text><line x1="42" y1="227.5" x2="938" y2="227.5" stroke="#21304f" stroke-width="1"/><text x="35" y="230.5" text-anchor="end" font-size="11" fill="#9fb0d4">10</text><line x1="42" y1="169.0" x2="938" y2="169.0" stroke="#21304f" stroke-width="1"/><text x="35" y="172.0" text-anchor="end" font-size="11" fill="#9fb0d4">20</text><line x1="42" y1="110.5" x2="938" y2="110.5" stroke="#21304f" stroke-width="1"/><text x="35" y="113.5" text-anchor="end" font-size="11" fill="#9fb0d4">29</text><line x1="42" y1="52.0" x2="938" y2="52.0" stroke="#21304f" stroke-width="1"/><text x="35" y="55.0" text-anchor="end" font-size="11" fill="#9fb0d4">39</text><polyline fill="none" stroke="#22c55e" stroke-width="2.5" stroke-linejoin="round" stroke-linecap="round" points="42.0,70.0 47.1,70.0 52.2,88.0 57.3,88.0 62.4,76.0 67.5,76.0 72.5,76.0 77.6,70.0 82.7,76.0 87.8,70.0 92.9,64.0 98.0,58.0 103.1,58.0 108.2,58.0 113.3,58.0 118.4,58.0 123.5,58.0 128.5,58.0 133.6,58.0 138.7,58.0 143.8,58.0 148.9,58.0 154.0,58.0 159.1,58.0 164.2,58.0 169.3,58.0 174.4,58.0 179.5,58.0 184.5,58.0 189.6,58.0 194.7,58.0 199.8,70.0 204.9,76.0 210.0,94.0 215.1,64.0 220.2,64.0 225.3,58.0 230.4,58.0 235.5,58.0 240.5,70.0 245.6,76.0 250.7,76.0 255.8,82.0 260.9,82.0 266.0,82.0 271.1,82.0 276.2,76.0 281.3,64.0 286.4,70.0 291.5,70.0 296.5,82.0 301.6,76.0 306.7,76.0 311.8,82.0 316.9,76.0 322.0,76.0 327.1,76.0 332.2,64.0 337.3,64.0 342.4,76.0 347.5,76.0 352.5,76.0 357.6,88.0 362.7,70.0 367.8,64.0 372.9,58.0 378.0,58.0 383.1,70.0 388.2,70.0 393.3,70.0 398.4,76.0 403.5,70.0 408.5,70.0 413.6,70.0 418.7,70.0 423.8,76.0 428.9,82.0 434.0,76.0 439.1,70.0 444.2,70.0 449.3,70.0 454.4,70.0 459.5,76.0 464.5,70.0 469.6,70.0 474.7,70.0 479.8,70.0 484.9,70.0 490.0,70.0 495.1,70.0 500.2,70.0 505.3,70.0 510.4,70.0 515.5,70.0 520.5,70.0 525.6,70.0 530.7,70.0 535.8,70.0 540.9,70.0 546.0,70.0 551.1,70.0 556.2,70.0 561.3,70.0 566.4,70.0 571.5,70.0 576.5,70.0 581.6,70.0 586.7,70.0 591.8,70.0 596.9,70.0 602.0,70.0 607.1,70.0 612.2,70.0 617.3,70.0 622.4,70.0 627.5,70.0 632.5,70.0 637.6,70.0 642.7,70.0 647.8,70.0 652.9,70.0 658.0,70.0 663.1,70.0 668.2,70.0 673.3,70.0 678.4,70.0 683.5,70.0 688.5,70.0 693.6,70.0 698.7,70.0 703.8,70.0 708.9,70.0 714.0,70.0 719.1,70.0 724.2,70.0 729.3,70.0 734.4,70.0 739.5,70.0 744.5,70.0 749.6,70.0 754.7,70.0 759.8,70.0 764.9,70.0 770.0,70.0 775.1,70.0 780.2,70.0 785.3,70.0 790.4,70.0 795.5,70.0 800.5,70.0 805.6,70.0 810.7,76.0 815.8,70.0 820.9,70.0 826.0,70.0 831.1,70.0 836.2,70.0 841.3,76.0 846.4,76.0 851.5,88.0 856.5,88.0 861.6,88.0 866.7,94.0 871.8,94.0 876.9,94.0 882.0,94.0 887.1,88.0 892.2,88.0 897.3,82.0 902.4,82.0 907.5,82.0 912.5,88.0 917.6,88.0 922.7,94.0 927.8,82.0 932.9,82.0 938.0,82.0"/><polyline fill="none" stroke="#f59e0b" stroke-width="2.5" stroke-linejoin="round" stroke-linecap="round" points="42.0,274.0 47.1,274.0 52.2,274.0 57.3,280.0 62.4,268.0 67.5,268.0 72.5,268.0 77.6,274.0 82.7,274.0 87.8,274.0 92.9,280.0 98.0,286.0 103.1,286.0 108.2,286.0 113.3,286.0 118.4,286.0 123.5,286.0 128.5,286.0 133.6,286.0 138.7,286.0 143.8,286.0 148.9,286.0 154.0,286.0 159.1,286.0 164.2,286.0 169.3,286.0 174.4,286.0 179.5,286.0 184.5,286.0 189.6,286.0 194.7,286.0 199.8,274.0 204.9,280.0 210.0,280.0 215.1,280.0 220.2,280.0 225.3,286.0 230.4,286.0 235.5,286.0 240.5,274.0 245.6,268.0 250.7,268.0 255.8,262.0 260.9,262.0 266.0,262.0 271.1,262.0 276.2,268.0 281.3,280.0 286.4,280.0 291.5,274.0 296.5,262.0 301.6,268.0 306.7,268.0 311.8,262.0 316.9,268.0 322.0,268.0 327.1,268.0 332.2,280.0 337.3,280.0 342.4,268.0 347.5,268.0 352.5,268.0 357.6,262.0 362.7,274.0 367.8,280.0 372.9,286.0 378.0,286.0 383.1,274.0 388.2,274.0 393.3,274.0 398.4,274.0 403.5,274.0 408.5,274.0 413.6,274.0 418.7,274.0 423.8,280.0 428.9,274.0 434.0,280.0 439.1,286.0 444.2,286.0 449.3,286.0 454.4,286.0 459.5,280.0 464.5,286.0 469.6,286.0 474.7,286.0 479.8,286.0 484.9,286.0 490.0,286.0 495.1,286.0 500.2,286.0 505.3,286.0 510.4,286.0 515.5,286.0 520.5,286.0 525.6,286.0 530.7,286.0 535.8,286.0 540.9,286.0 546.0,286.0 551.1,286.0 556.2,286.0 561.3,286.0 566.4,286.0 571.5,286.0 576.5,286.0 581.6,286.0 586.7,286.0 591.8,286.0 596.9,286.0 602.0,286.0 607.1,286.0 612.2,286.0 617.3,286.0 622.4,286.0 627.5,286.0 632.5,286.0 637.6,286.0 642.7,286.0 647.8,286.0 652.9,286.0 658.0,286.0 663.1,286.0 668.2,286.0 673.3,286.0 678.4,286.0 683.5,286.0 688.5,286.0 693.6,286.0 698.7,286.0 703.8,286.0 708.9,286.0 714.0,286.0 719.1,286.0 724.2,286.0 729.3,286.0 734.4,286.0 739.5,286.0 744.5,286.0 749.6,286.0 754.7,286.0 759.8,286.0 764.9,286.0 770.0,286.0 775.1,286.0 780.2,286.0 785.3,286.0 790.4,286.0 795.5,286.0 800.5,286.0 805.6,286.0 810.7,286.0 815.8,286.0 820.9,286.0 826.0,286.0 831.1,286.0 836.2,286.0 841.3,286.0 846.4,280.0 851.5,268.0 856.5,268.0 861.6,268.0 866.7,268.0 871.8,262.0 876.9,262.0 882.0,262.0 887.1,268.0 892.2,268.0 897.3,274.0 902.4,274.0 907.5,274.0 912.5,268.0 917.6,268.0 922.7,268.0 927.8,274.0 932.9,274.0 938.0,274.0"/><polyline fill="none" stroke="#ef4444" stroke-width="2.5" stroke-linejoin="round" stroke-linecap="round" points="42.0,280.0 47.1,280.0 52.2,268.0 57.3,262.0 62.4,286.0 67.5,286.0 72.5,286.0 77.6,286.0 82.7,280.0 87.8,286.0 92.9,286.0 98.0,286.0 103.1,286.0 108.2,286.0 113.3,286.0 118.4,286.0 123.5,286.0 128.5,286.0 133.6,286.0 138.7,286.0 143.8,286.0 148.9,286.0 154.0,286.0 159.1,286.0 164.2,286.0 169.3,286.0 174.4,286.0 179.5,286.0 184.5,286.0 189.6,286.0 194.7,286.0 199.8,286.0 204.9,274.0 210.0,256.0 215.1,286.0 220.2,286.0 225.3,286.0 230.4,286.0 235.5,286.0 240.5,286.0 245.6,286.0 250.7,286.0 255.8,286.0 260.9,286.0 266.0,286.0 271.1,286.0 276.2,286.0 281.3,286.0 286.4,280.0 291.5,286.0 296.5,286.0 301.6,286.0 306.7,286.0 311.8,286.0 316.9,286.0 322.0,286.0 327.1,286.0 332.2,286.0 337.3,286.0 342.4,286.0 347.5,286.0 352.5,286.0 357.6,280.0 362.7,286.0 367.8,286.0 372.9,286.0 378.0,286.0 383.1,286.0 388.2,286.0 393.3,286.0 398.4,286.0 403.5,286.0 408.5,286.0 413.6,286.0 418.7,286.0 423.8,274.0 428.9,274.0 434.0,274.0 439.1,274.0 444.2,274.0 449.3,274.0 454.4,274.0 459.5,274.0 464.5,274.0 469.6,274.0 474.7,274.0 479.8,274.0 484.9,274.0 490.0,274.0 495.1,274.0 500.2,274.0 505.3,274.0 510.4,274.0 515.5,274.0 520.5,274.0 525.6,274.0 530.7,274.0 535.8,274.0 540.9,274.0 546.0,274.0 551.1,274.0 556.2,274.0 561.3,274.0 566.4,274.0 571.5,274.0 576.5,274.0 581.6,274.0 586.7,274.0 591.8,274.0 596.9,274.0 602.0,274.0 607.1,274.0 612.2,274.0 617.3,274.0 622.4,274.0 627.5,274.0 632.5,274.0 637.6,274.0 642.7,274.0 647.8,274.0 652.9,274.0 658.0,274.0 663.1,274.0 668.2,274.0 673.3,274.0 678.4,274.0 683.5,274.0 688.5,274.0 693.6,274.0 698.7,274.0 703.8,274.0 708.9,274.0 714.0,274.0 719.1,274.0 724.2,274.0 729.3,274.0 734.4,274.0 739.5,274.0 744.5,274.0 749.6,274.0 754.7,274.0 759.8,274.0 764.9,274.0 770.0,274.0 775.1,274.0 780.2,274.0 785.3,274.0 790.4,274.0 795.5,274.0 800.5,274.0 805.6,274.0 810.7,268.0 815.8,274.0 820.9,274.0 826.0,274.0 831.1,274.0 836.2,274.0 841.3,274.0 846.4,274.0 851.5,274.0 856.5,274.0 861.6,274.0 866.7,268.0 871.8,274.0 876.9,274.0 882.0,274.0 887.1,274.0 892.2,274.0 897.3,274.0 902.4,274.0 907.5,274.0 912.5,274.0 917.6,274.0 922.7,268.0 927.8,274.0 932.9,274.0 938.0,274.0"/><polyline fill="none" stroke="#a855f7" stroke-width="2.5" stroke-linejoin="round" stroke-linecap="round" points="42.0,286.0 47.1,286.0 52.2,286.0 57.3,286.0 62.4,286.0 67.5,286.0 72.5,286.0 77.6,286.0 82.7,286.0 87.8,286.0 92.9,286.0 98.0,286.0 103.1,286.0 108.2,286.0 113.3,286.0 118.4,286.0 123.5,286.0 128.5,286.0 133.6,286.0 138.7,286.0 143.8,286.0 148.9,286.0 154.0,286.0 159.1,286.0 164.2,286.0 169.3,286.0 174.4,286.0 179.5,286.0 184.5,286.0 189.6,286.0 194.7,286.0 199.8,286.0 204.9,286.0 210.0,286.0 215.1,286.0 220.2,286.0 225.3,286.0 230.4,286.0 235.5,286.0 240.5,286.0 245.6,286.0 250.7,286.0 255.8,286.0 260.9,286.0 266.0,286.0 271.1,286.0 276.2,286.0 281.3,286.0 286.4,286.0 291.5,286.0 296.5,286.0 301.6,286.0 306.7,286.0 311.8,286.0 316.9,286.0 322.0,286.0 327.1,286.0 332.2,286.0 337.3,286.0 342.4,286.0 347.5,286.0 352.5,286.0 357.6,286.0 362.7,286.0 367.8,286.0 372.9,286.0 378.0,286.0 383.1,286.0 388.2,286.0 393.3,286.0 398.4,280.0 403.5,286.0 408.5,286.0 413.6,286.0 418.7,286.0 423.8,286.0 428.9,286.0 434.0,286.0 439.1,286.0 444.2,286.0 449.3,286.0 454.4,286.0 459.5,286.0 464.5,286.0 469.6,286.0 474.7,286.0 479.8,286.0 484.9,286.0 490.0,286.0 495.1,286.0 500.2,286.0 505.3,286.0 510.4,286.0 515.5,286.0 520.5,286.0 525.6,286.0 530.7,286.0 535.8,286.0 540.9,286.0 546.0,286.0 551.1,286.0 556.2,286.0 561.3,286.0 566.4,286.0 571.5,286.0 576.5,286.0 581.6,286.0 586.7,286.0 591.8,286.0 596.9,286.0 602.0,286.0 607.1,286.0 612.2,286.0 617.3,286.0 622.4,286.0 627.5,286.0 632.5,286.0 637.6,286.0 642.7,286.0 647.8,286.0 652.9,286.0 658.0,286.0 663.1,286.0 668.2,286.0 673.3,286.0 678.4,286.0 683.5,286.0 688.5,286.0 693.6,286.0 698.7,286.0 703.8,286.0 708.9,286.0 714.0,286.0 719.1,286.0 724.2,286.0 729.3,286.0 734.4,286.0 739.5,286.0 744.5,286.0 749.6,286.0 754.7,286.0 759.8,286.0 764.9,286.0 770.0,286.0 775.1,286.0 780.2,286.0 785.3,286.0 790.4,286.0 795.5,286.0 800.5,286.0 805.6,286.0 810.7,286.0 815.8,286.0 820.9,286.0 826.0,286.0 831.1,286.0 836.2,286.0 841.3,280.0 846.4,286.0 851.5,286.0 856.5,286.0 861.6,286.0 866.7,286.0 871.8,286.0 876.9,286.0 882.0,286.0 887.1,286.0 892.2,286.0 897.3,286.0 902.4,286.0 907.5,286.0 912.5,286.0 917.6,286.0 922.7,286.0 927.8,286.0 932.9,286.0 938.0,286.0"/><text x="42" y="308" font-size="11" fill="#9fb0d4">19/06 12:43</text><text x="938" y="308" text-anchor="end" font-size="11" fill="#9fb0d4">30/06 03:29</text></svg>