<svg xmlns="http://www.w3.org/2000/svg" viewBox="0 0 960 320" width="960" height="320" font-family="Segoe UI, system-ui, -apple-system, Roboto, Helvetica, Arial, sans-serif" role="img" aria-label="Availability history per region"><rect x="0.5" y="0.5" width="959" height="319" rx="14" fill="#ffffff" stroke="#dce3f1"/><text x="42" y="26" font-size="14" font-weight="600" fill="#14203a">History · 120 points</text><circle cx="47" cy="40" r="5" fill="#22c55e"/><text x="57" y="44" font-size="12" fill="#5a688a">Available</text><circle cx="139.8" cy="40" r="5" fill="#f59e0b"/><text x="149.8" y="44" font-size="12" fill="#5a688a">Saturated</text><circle cx="232.60000000000002" cy="40" r="5" fill="#ef4444"/><text x="242.60000000000002" y="44" font-size="12" fill="#5a688a">Error</text><circle cx="296.6" cy="40" r="5" fill="#a855f7"/><text x="306.6" y="44" font-size="12" fill="#5a688a">Timeout</text><line x1="42" y1="286.0" x2="938" y2="286.0" stroke="#eef2f7" stroke-width="1"/><text x="35" y="289.0" text-anchor="end" font-size="11" fill="#5a688a">0</text><line x1="42" y1="227.5" x2="938" y2="227.5" stroke="#eef2f7" stroke-width="1"/><text x="35" y="230.5" text-anchor="end" font-size="11" fill="#5a688a">10</text><line x1="42" y1="169.0" x2="938" y2="169.0" stroke="#eef2f7" stroke-width="1"/><text x="35" y="172.0" text-anchor="end" font-size="11" fill="#5a688a">20</text><line x1="42" y1="110.5" x2="938" y2="110.5" stroke="#eef2f7" stroke-width="1"/><text x="35" y="113.5" text-anchor="end" font-size="11" fill="#5a688a">29</text><line x1="42" y1="52.0" x2="938" y2="52.0" stroke="#eef2f7" stroke-width="1"/><text x="35" y="55.0" text-anchor="end" font-size="11" fill="#5a688a">39</text><polyline fill="none" stroke="#22c55e" stroke-width="2.5" stroke-linejoin="round" stroke-linecap="round" points="42.0,70.0 49.5,70.0 57.1,88.0 64.6,88.0 72.1,76.0 79.6,76.0 87.2,76.0 94.7,70.0 102.2,76.0 109.8,70.0 117.3,64.0 124.8,58.0 132.4,58.0 139.9,58.0 147.4,58.0 154.9,58.0 162.5,58.0 170.0,58.0 177.5,58.0 185.1,58.0 192.6,58.0 200.1,58.0 207.6,58.0 215.2,58.0 222.7,58.0 230.2,58.0 237.8,58.0 245.3,58.0 252.8,58.0 260.4,58.0 267.9,58.0 275.4,70.0 282.9,76.0 290.5,94.0 298.0,64.0 305.5,64.0 313.1,58.0 320.6,58.0 328.1,58.0 335.6,70.0 343.2,76.0 350.7,76.0 358.2,82.0 365.8,82.0 373.3,82.0 380.8,82.0 388.4,76.0 395.9,64.0 403.4,70.0 410.9,70.0 418.5,82.0 426.0,76.0 433.5,76.0 441.1,82.0 448.6,76.0 456.1,76.0 463.6,76.0 471.2,64.0 478.7,64.0 486.2,76.0 493.8,76.0 501.3,76.0 508.8,88.0 516.4,70.0 523.9,64.0 531.4,58.0 538.9,58.0 546.5,70.0 554.0,70.0 561.5,70.0 569.1,76.0 576.6,70.0 584.1,70.0 591.6,70.0 599.2,70.0 606.7,76.0 614.2,82.0 621.8,76.0 629.3,70.0 636.8,70.0 644.4,70.0 651.9,70.0 659.4,76.0 666.9,70.0 674.5,70.0 682.0,70.0 689.5,70.0 697.1,70.0 704.6,70.0 712.1,70.0 719.6,70.0 727.2,70.0 734.7,70.0 742.2,70.0 749.8,70.0 757.3,70.0 764.8,70.0 772.4,70.0 779.9,70.0 787.4,70.0 794.9,70.0 802.5,70.0 810.0,70.0 817.5,70.0 825.1,70.0 832.6,70.0 840.1,70.0 847.6,70.0 855.2,70.0 862.7,70.0 870.2,70.0 877.8,70.0 885.3,70.0 892.8,70.0 900.4,70.0 907.9,70.0 915.4,70.0 922.9,70.0 930.5,70.0 938.0,70.0"/><polyline fill="none" stroke="#f59e0b" stroke-width="2.5" stroke-linejoin="round" stroke-linecap="round" points="42.0,274.0 49.5,274.0 57.1,274.0 64.6,280.0 72.1,268.0 79.6,268.0 87.2,268.0 94.7,274.0 102.2,274.0 109.8,274.0 117.3,280.0 124.8,286.0 132.4,286.0 139.9,286.0 147.4,286.0 154.9,286.0 162.5,286.0 170.0,286.0 177.5,286.0 185.1,286.0 192.6,286.0 200.1,286.0 207.6,286.0 215.2,286.0 222.7,286.0 230.2,286.0 237.8,286.0 245.3,286.0 252.8,286.0 260.4,286.0 267.9,286.0 275.4,274.0 282.9,280.0 290.5,280.0 298.0,280.0 305.5,280.0 313.1,286.0 320.6,286.0 328.1,286.0 335.6,274.0 343.2,268.0 350.7,268.0 358.2,262.0 365.8,262.0 373.3,262.0 380.8,262.0 388.4,268.0 395.9,280.0 403.4,280.0 410.9,274.0 418.5,262.0 426.0,268.0 433.5,268.0 441.1,262.0 448.6,268.0 456.1,268.0 463.6,268.0 471.2,280.0 478.7,280.0 486.2,268.0 493.8,268.0 501.3,268.0 508.8,262.0 516.4,274.0 523.9,280.0 531.4,286.0 538.9,286.0 546.5,274.0 554.0,274.0 561.5,274.0 569.1,274.0 576.6,274.0 584.1,274.0 591.6,274.0 599.2,274.0 606.7,280.0 614.2,274.0 621.8,280.0 629.3,286.0 636.8,286.0 644.4,286.0 651.9,286.0 659.4,280.0 666.9,286.0 674.5,286.0 682.0,286.0 689.5,286.0 697.1,286.0 704.6,286.0 712.1,286.0 719.6,286.0 727.2,286.0 734.7,286.0 742.2,286.0 749.8,286.0 757.3,286.0 764.8,286.0 772.4,286.0 779.9,286.0 787.4,286.0 794.9,286.0 802.5,286.0 810.0,286.0 817.5,286.0 825.1,286.0 832.6,286.0 840.1,286.0 847.6,286.0 855.2,286.0 862.7,286.0 870.2,286.0 877.8,286.0 885.3,286.0 892.8,286.0 900.4,286.0 907.9,286.0 915.4,286.0 922.9,286.0 930.5,286.0 938.0,286.0"/><polyline fill="none" stroke="#ef4444" stroke-width="2.5" stroke-linejoin="round" stroke-linecap="round" points="42.0,280.0 49.5,280.0 57.1,268.0 64.6,262.0 72.1,286.0 79.6,286.0 87.2,286.0 94.7,286.0 102.2,280.0 109.8,286.0 117.3,286.0 124.8,286.0 132.4,286.0 139.9,286.0 147.4,286.0 154.9,286.0 162.5,286.0 170.0,286.0 177.5,286.0 185.1,286.0 192.6,286.0 200.1,286.0 207.6,286.0 215.2,286.0 222.7,286.0 230.2,286.0 237.8,286.0 245.3,286.0 252.8,286.0 260.4,286.0 267.9,286.0 275.4,286.0 282.9,274.0 290.5,256.0 298.0,286.0 305.5,286.0 313.1,286.0 320.6,286.0 328.1,286.0 335.6,286.0 343.2,286.0 350.7,286.0 358.2,286.0 365.8,286.0 373.3,286.0 380.8,286.0 388.4,286.0 395.9,286.0 403.4,280.0 410.9,286.0 418.5,286.0 426.0,286.0 433.5,286.0 441.1,286.0 448.6,286.0 456.1,286.0 463.6,286.0 471.2,286.0 478.7,286.0 486.2,286.0 493.8,286.0 501.3,286.0 508.8,280.0 516.4,286.0 523.9,286.0 531.4,286.0 538.9,286.0 546.5,286.0 554.0,286.0 561.5,286.0 569.1,286.0 576.6,286.0 584.1,286.0 591.6,286.0 599.2,286.0 606.7,274.0 614.2,274.0 621.8,274.0 629.3,274.0 636.8,274.0 644.4,274.0 651.9,274.0 659.4,274.0 666.9,274.0 674.5,274.0 682.0,274.0 689.5,274.0 697.1,274.0 704.6,274.0 712.1,274.0 719.6,274.0 727.2,274.0 734.7,274.0 742.2,274.0 749.8,274.0 757.3,274.0 764.8,274.0 772.4,274.0 779.9,274.0 787.4,274.0 794.9,274.0 802.5,274.0 810.0,274.0 817.5,274.0 825.1,274.0 832.6,274.0 840.1,274.0 847.6,274.0 855.2,274.0 862.7,274.0 870.2,274.0 877.8,274.0 885.3,274.0 892.8,274.0 900.4,274.0 907.9,274.0 915.4,274.0 922.9,274.0 930.5,274.0 938.0,274.0"/><polyline fill="none" stroke="#a855f7" stroke-width="2.5" stroke-linejoin="round" stroke-linecap="round" points="42.0,286.0 49.5,286.0 57.1,286.0 64.6,286.0 72.1,286.0 79.6,286.0 87.2,286.0 94.7,286.0 102.2,286.0 109.8,286.0 117.3,286.0 124.8,286.0 132.4,286.0 139.9,286.0 147.4,286.0 154.9,286.0 162.5,286.0 170.0,286.0 177.5,286.0 185.1,286.0 192.6,286.0 200.1,286.0 207.6,286.0 215.2,286.0 222.7,286.0 230.2,286.0 237.8,286.0 245.3,286.0 252.8,286.0 260.4,286.0 267.9,286.0 275.4,286.0 282.9,286.0 290.5,286.0 298.0,286.0 305.5,286.0 313.1,286.0 320.6,286.0 328.1,286.0 335.6,286.0 343.2,286.0 350.7,286.0 358.2,286.0 365.8,286.0 373.3,286.0 380.8,286.0 388.4,286.0 395.9,286.0 403.4,286.0 410.9,286.0 418.5,286.0 426.0,286.0 433.5,286.0 441.1,286.0 448.6,286.0 456.1,286.0 463.6,286.0 471.2,286.0 478.7,286.0 486.2,286.0 493.8,286.0 501.3,286.0 508.8,286.0 516.4,286.0 523.9,286.0 531.4,286.0 538.9,286.0 546.5,286.0 554.0,286.0 561.5,286.0 569.1,280.0 576.6,286.0 584.1,286.0 591.6,286.0 599.2,286.0 606.7,286.0 614.2,286.0 621.8,286.0 629.3,286.0 636.8,286.0 644.4,286.0 651.9,286.0 659.4,286.0 666.9,286.0 674.5,286.0 682.0,286.0 689.5,286.0 697.1,286.0 704.6,286.0 712.1,286.0 719.6,286.0 727.2,286.0 734.7,286.0 742.2,286.0 749.8,286.0 757.3,286.0 764.8,286.0 772.4,286.0 779.9,286.0 787.4,286.0 794.9,286.0 802.5,286.0 810.0,286.0 817.5,286.0 825.1,286.0 832.6,286.0 840.1,286.0 847.6,286.0 855.2,286.0 862.7,286.0 870.2,286.0 877.8,286.0 885.3,286.0 892.8,286.0 900.4,286.0 907.9,286.0 915.4,286.0 922.9,286.0 930.5,286.0 938.0,286.0"/><text x="42" y="308" font-size="11" fill="#5a688a">19/06 12:43</text><text x="938" y="308" text-anchor="end" font-size="11" fill="#5a688a">28/06 04:31</text></svg>