<svg xmlns="http://www.w3.org/2000/svg" viewBox="0 0 960 320" width="960" height="320" font-family="Segoe UI, system-ui, -apple-system, Roboto, Helvetica, Arial, sans-serif" role="img" aria-label="Availability history per region"><rect x="0.5" y="0.5" width="959" height="319" rx="14" fill="#0d1117" stroke="#2c3a5e"/><text x="42" y="26" font-size="14" font-weight="600" fill="#e6ecff">History · 155 points</text><circle cx="47" cy="40" r="5" fill="#22c55e"/><text x="57" y="44" font-size="12" fill="#9fb0d4">Available</text><circle cx="139.8" cy="40" r="5" fill="#f59e0b"/><text x="149.8" y="44" font-size="12" fill="#9fb0d4">Saturated</text><circle cx="232.60000000000002" cy="40" r="5" fill="#ef4444"/><text x="242.60000000000002" y="44" font-size="12" fill="#9fb0d4">Error</text><circle cx="296.6" cy="40" r="5" fill="#a855f7"/><text x="306.6" y="44" font-size="12" fill="#9fb0d4">Timeout</text><line x1="42" y1="286.0" x2="938" y2="286.0" stroke="#21304f" stroke-width="1"/><text x="35" y="289.0" text-anchor="end" font-size="11" fill="#9fb0d4">0</text><line x1="42" y1="227.5" x2="938" y2="227.5" stroke="#21304f" stroke-width="1"/><text x="35" y="230.5" text-anchor="end" font-size="11" fill="#9fb0d4">10</text><line x1="42" y1="169.0" x2="938" y2="169.0" stroke="#21304f" stroke-width="1"/><text x="35" y="172.0" text-anchor="end" font-size="11" fill="#9fb0d4">19</text><line x1="42" y1="110.5" x2="938" y2="110.5" stroke="#21304f" stroke-width="1"/><text x="35" y="113.5" text-anchor="end" font-size="11" fill="#9fb0d4">28</text><line x1="42" y1="52.0" x2="938" y2="52.0" stroke="#21304f" stroke-width="1"/><text x="35" y="55.0" text-anchor="end" font-size="11" fill="#9fb0d4">38</text><polyline fill="none" stroke="#22c55e" stroke-width="2.5" stroke-linejoin="round" stroke-linecap="round" points="42.0,64.3 47.8,224.4 53.6,82.8 59.5,88.9 65.3,82.8 71.1,76.6 76.9,76.6 82.7,76.6 88.5,76.6 94.4,76.6 100.2,76.6 106.0,76.6 111.8,76.6 117.6,76.6 123.5,76.6 129.3,70.5 135.1,70.5 140.9,82.8 146.7,82.8 152.5,82.8 158.4,88.9 164.2,88.9 170.0,88.9 175.8,88.9 181.6,88.9 187.5,88.9 193.3,88.9 199.1,88.9 204.9,88.9 210.7,82.8 216.5,82.8 222.4,82.8 228.2,82.8 234.0,76.6 239.8,76.6 245.6,76.6 251.5,76.6 257.3,76.6 263.1,82.8 268.9,82.8 274.7,82.8 280.5,82.8 286.4,76.6 292.2,76.6 298.0,76.6 303.8,76.6 309.6,76.6 315.5,76.6 321.3,76.6 327.1,82.8 332.9,82.8 338.7,82.8 344.5,82.8 350.4,76.6 356.2,76.6 362.0,76.6 367.8,76.6 373.6,76.6 379.5,76.6 385.3,76.6 391.1,76.6 396.9,82.8 402.7,76.6 408.5,76.6 414.4,76.6 420.2,76.6 426.0,76.6 431.8,82.8 437.6,76.6 443.5,76.6 449.3,76.6 455.1,76.6 460.9,76.6 466.7,76.6 472.5,76.6 478.4,76.6 484.2,76.6 490.0,70.5 495.8,70.5 501.6,70.5 507.5,70.5 513.3,76.6 519.1,70.5 524.9,76.6 530.7,76.6 536.5,76.6 542.4,76.6 548.2,76.6 554.0,76.6 559.8,82.8 565.6,88.9 571.5,88.9 577.3,88.9 583.1,88.9 588.9,88.9 594.7,88.9 600.5,88.9 606.4,95.1 612.2,88.9 618.0,88.9 623.8,88.9 629.6,88.9 635.5,88.9 641.3,88.9 647.1,82.8 652.9,82.8 658.7,82.8 664.5,82.8 670.4,82.8 676.2,82.8 682.0,82.8 687.8,82.8 693.6,88.9 699.5,88.9 705.3,88.9 711.1,88.9 716.9,88.9 722.7,88.9 728.5,88.9 734.4,88.9 740.2,95.1 746.0,88.9 751.8,88.9 757.6,88.9 763.5,101.3 769.3,88.9 775.1,88.9 780.9,88.9 786.7,88.9 792.5,82.8 798.4,82.8 804.2,82.8 810.0,82.8 815.8,88.9 821.6,82.8 827.5,88.9 833.3,88.9 839.1,88.9 844.9,88.9 850.7,95.1 856.5,88.9 862.4,88.9 868.2,88.9 874.0,88.9 879.8,88.9 885.6,88.9 891.5,88.9 897.3,88.9 903.1,95.1 908.9,82.8 914.7,82.8 920.5,82.8 926.4,82.8 932.2,82.8 938.0,82.8"/><polyline fill="none" stroke="#f59e0b" stroke-width="2.5" stroke-linejoin="round" stroke-linecap="round" points="42.0,273.7 47.8,267.5 53.6,255.2 59.5,249.1 65.3,255.2 71.1,261.4 76.9,261.4 82.7,261.4 88.5,261.4 94.4,261.4 100.2,261.4 106.0,261.4 111.8,261.4 117.6,261.4 123.5,261.4 129.3,267.5 135.1,267.5 140.9,261.4 146.7,255.2 152.5,255.2 158.4,249.1 164.2,249.1 170.0,249.1 175.8,249.1 181.6,249.1 187.5,249.1 193.3,249.1 199.1,249.1 204.9,249.1 210.7,255.2 216.5,255.2 222.4,255.2 228.2,255.2 234.0,261.4 239.8,261.4 245.6,261.4 251.5,261.4 257.3,261.4 263.1,255.2 268.9,255.2 274.7,255.2 280.5,255.2 286.4,261.4 292.2,261.4 298.0,261.4 303.8,261.4 309.6,261.4 315.5,261.4 321.3,261.4 327.1,255.2 332.9,255.2 338.7,255.2 344.5,261.4 350.4,261.4 356.2,261.4 362.0,261.4 367.8,261.4 373.6,261.4 379.5,261.4 385.3,261.4 391.1,261.4 396.9,255.2 402.7,261.4 408.5,261.4 414.4,261.4 420.2,261.4 426.0,261.4 431.8,261.4 437.6,261.4 443.5,261.4 449.3,261.4 455.1,261.4 460.9,261.4 466.7,261.4 472.5,261.4 478.4,261.4 484.2,261.4 490.0,267.5 495.8,267.5 501.6,267.5 507.5,267.5 513.3,267.5 519.1,267.5 524.9,261.4 530.7,261.4 536.5,261.4 542.4,261.4 548.2,261.4 554.0,261.4 559.8,255.2 565.6,249.1 571.5,249.1 577.3,255.2 583.1,249.1 588.9,249.1 594.7,249.1 600.5,249.1 606.4,249.1 612.2,249.1 618.0,255.2 623.8,249.1 629.6,249.1 635.5,249.1 641.3,249.1 647.1,255.2 652.9,255.2 658.7,255.2 664.5,255.2 670.4,255.2 676.2,255.2 682.0,255.2 687.8,255.2 693.6,249.1 699.5,249.1 705.3,249.1 711.1,249.1 716.9,249.1 722.7,249.1 728.5,249.1 734.4,255.2 740.2,249.1 746.0,249.1 751.8,249.1 757.6,249.1 763.5,249.1 769.3,249.1 775.1,249.1 780.9,255.2 786.7,255.2 792.5,255.2 798.4,255.2 804.2,255.2 810.0,255.2 815.8,255.2 821.6,255.2 827.5,249.1 833.3,249.1 839.1,249.1 844.9,249.1 850.7,249.1 856.5,249.1 862.4,249.1 868.2,249.1 874.0,249.1 879.8,249.1 885.6,249.1 891.5,249.1 897.3,249.1 903.1,249.1 908.9,255.2 914.7,255.2 920.5,255.2 926.4,255.2 932.2,255.2 938.0,261.4"/><polyline fill="none" stroke="#ef4444" stroke-width="2.5" stroke-linejoin="round" stroke-linecap="round" points="42.0,286.0 47.8,132.1 53.6,286.0 59.5,286.0 65.3,286.0 71.1,286.0 76.9,286.0 82.7,286.0 88.5,286.0 94.4,286.0 100.2,286.0 106.0,286.0 111.8,286.0 117.6,286.0 123.5,286.0 129.3,286.0 135.1,286.0 140.9,279.8 146.7,286.0 152.5,286.0 158.4,286.0 164.2,286.0 170.0,286.0 175.8,286.0 181.6,286.0 187.5,286.0 193.3,286.0 199.1,286.0 204.9,286.0 210.7,286.0 216.5,286.0 222.4,286.0 228.2,286.0 234.0,286.0 239.8,286.0 245.6,286.0 251.5,286.0 257.3,286.0 263.1,286.0 268.9,286.0 274.7,286.0 280.5,286.0 286.4,286.0 292.2,286.0 298.0,286.0 303.8,286.0 309.6,286.0 315.5,286.0 321.3,286.0 327.1,286.0 332.9,286.0 338.7,286.0 344.5,286.0 350.4,286.0 356.2,286.0 362.0,286.0 367.8,286.0 373.6,286.0 379.5,286.0 385.3,286.0 391.1,286.0 396.9,286.0 402.7,286.0 408.5,286.0 414.4,286.0 420.2,286.0 426.0,286.0 431.8,279.8 437.6,286.0 443.5,286.0 449.3,286.0 455.1,286.0 460.9,286.0 466.7,286.0 472.5,286.0 478.4,286.0 484.2,286.0 490.0,286.0 495.8,286.0 501.6,286.0 507.5,286.0 513.3,279.8 519.1,286.0 524.9,286.0 530.7,286.0 536.5,286.0 542.4,286.0 548.2,286.0 554.0,286.0 559.8,286.0 565.6,286.0 571.5,286.0 577.3,279.8 583.1,286.0 588.9,286.0 594.7,286.0 600.5,286.0 606.4,279.8 612.2,286.0 618.0,286.0 623.8,286.0 629.6,286.0 635.5,286.0 641.3,286.0 647.1,286.0 652.9,286.0 658.7,286.0 664.5,286.0 670.4,286.0 676.2,286.0 682.0,286.0 687.8,286.0 693.6,286.0 699.5,286.0 705.3,286.0 711.1,286.0 716.9,286.0 722.7,286.0 728.5,286.0 734.4,286.0 740.2,279.8 746.0,286.0 751.8,286.0 757.6,286.0 763.5,273.7 769.3,286.0 775.1,286.0 780.9,279.8 786.7,279.8 792.5,286.0 798.4,286.0 804.2,286.0 810.0,286.0 815.8,279.8 821.6,286.0 827.5,286.0 833.3,286.0 839.1,286.0 844.9,286.0 850.7,286.0 856.5,286.0 862.4,286.0 868.2,286.0 874.0,286.0 879.8,286.0 885.6,286.0 891.5,286.0 897.3,286.0 903.1,286.0 908.9,286.0 914.7,286.0 920.5,286.0 926.4,286.0 932.2,286.0 938.0,279.8"/><polyline fill="none" stroke="#a855f7" stroke-width="2.5" stroke-linejoin="round" stroke-linecap="round" points="42.0,286.0 47.8,286.0 53.6,286.0 59.5,286.0 65.3,286.0 71.1,286.0 76.9,286.0 82.7,286.0 88.5,286.0 94.4,286.0 100.2,286.0 106.0,286.0 111.8,286.0 117.6,286.0 123.5,286.0 129.3,286.0 135.1,286.0 140.9,286.0 146.7,286.0 152.5,286.0 158.4,286.0 164.2,286.0 170.0,286.0 175.8,286.0 181.6,286.0 187.5,286.0 193.3,286.0 199.1,286.0 204.9,286.0 210.7,286.0 216.5,286.0 222.4,286.0 228.2,286.0 234.0,286.0 239.8,286.0 245.6,286.0 251.5,286.0 257.3,286.0 263.1,286.0 268.9,286.0 274.7,286.0 280.5,286.0 286.4,286.0 292.2,286.0 298.0,286.0 303.8,286.0 309.6,286.0 315.5,286.0 321.3,286.0 327.1,286.0 332.9,286.0 338.7,286.0 344.5,279.8 350.4,286.0 356.2,286.0 362.0,286.0 367.8,286.0 373.6,286.0 379.5,286.0 385.3,286.0 391.1,286.0 396.9,286.0 402.7,286.0 408.5,286.0 414.4,286.0 420.2,286.0 426.0,286.0 431.8,286.0 437.6,286.0 443.5,286.0 449.3,286.0 455.1,286.0 460.9,286.0 466.7,286.0 472.5,286.0 478.4,286.0 484.2,286.0 490.0,286.0 495.8,286.0 501.6,286.0 507.5,286.0 513.3,286.0 519.1,286.0 524.9,286.0 530.7,286.0 536.5,286.0 542.4,286.0 548.2,286.0 554.0,286.0 559.8,286.0 565.6,286.0 571.5,286.0 577.3,286.0 583.1,286.0 588.9,286.0 594.7,286.0 600.5,286.0 606.4,286.0 612.2,286.0 618.0,279.8 623.8,286.0 629.6,286.0 635.5,286.0 641.3,286.0 647.1,286.0 652.9,286.0 658.7,286.0 664.5,286.0 670.4,286.0 676.2,286.0 682.0,286.0 687.8,286.0 693.6,286.0 699.5,286.0 705.3,286.0 711.1,286.0 716.9,286.0 722.7,286.0 728.5,286.0 734.4,279.8 740.2,286.0 746.0,286.0 751.8,286.0 757.6,286.0 763.5,286.0 769.3,286.0 775.1,286.0 780.9,286.0 786.7,286.0 792.5,286.0 798.4,286.0 804.2,286.0 810.0,286.0 815.8,286.0 821.6,286.0 827.5,286.0 833.3,286.0 839.1,286.0 844.9,286.0 850.7,279.8 856.5,286.0 862.4,286.0 868.2,286.0 874.0,286.0 879.8,286.0 885.6,286.0 891.5,286.0 897.3,286.0 903.1,279.8 908.9,286.0 914.7,286.0 920.5,286.0 926.4,286.0 932.2,286.0 938.0,286.0"/><text x="42" y="308" font-size="11" fill="#9fb0d4">19/06 15:39</text><text x="938" y="308" text-anchor="end" font-size="11" fill="#9fb0d4">23/07 01:29</text></svg>