<svg xmlns="http://www.w3.org/2000/svg" viewBox="0 0 960 320" width="960" height="320" font-family="Segoe UI, system-ui, -apple-system, Roboto, Helvetica, Arial, sans-serif" role="img" aria-label="Availability history per region"><rect x="0.5" y="0.5" width="959" height="319" rx="14" fill="#0d1117" stroke="#2c3a5e"/><text x="42" y="26" font-size="14" font-weight="600" fill="#e6ecff">History · 335 points</text><circle cx="47" cy="40" r="5" fill="#22c55e"/><text x="57" y="44" font-size="12" fill="#9fb0d4">Available</text><circle cx="139.8" cy="40" r="5" fill="#f59e0b"/><text x="149.8" y="44" font-size="12" fill="#9fb0d4">Saturated</text><circle cx="232.60000000000002" cy="40" r="5" fill="#ef4444"/><text x="242.60000000000002" y="44" font-size="12" fill="#9fb0d4">Error</text><circle cx="296.6" cy="40" r="5" fill="#a855f7"/><text x="306.6" y="44" font-size="12" fill="#9fb0d4">Timeout</text><line x1="42" y1="286.0" x2="938" y2="286.0" stroke="#21304f" stroke-width="1"/><text x="35" y="289.0" text-anchor="end" font-size="11" fill="#9fb0d4">0</text><line x1="42" y1="227.5" x2="938" y2="227.5" stroke="#21304f" stroke-width="1"/><text x="35" y="230.5" text-anchor="end" font-size="11" fill="#9fb0d4">10</text><line x1="42" y1="169.0" x2="938" y2="169.0" stroke="#21304f" stroke-width="1"/><text x="35" y="172.0" text-anchor="end" font-size="11" fill="#9fb0d4">20</text><line x1="42" y1="110.5" x2="938" y2="110.5" stroke="#21304f" stroke-width="1"/><text x="35" y="113.5" text-anchor="end" font-size="11" fill="#9fb0d4">29</text><line x1="42" y1="52.0" x2="938" y2="52.0" stroke="#21304f" stroke-width="1"/><text x="35" y="55.0" text-anchor="end" font-size="11" fill="#9fb0d4">39</text><polyline fill="none" stroke="#22c55e" stroke-width="2.5" stroke-linejoin="round" stroke-linecap="round" points="42.0,70.0 44.7,70.0 47.4,88.0 50.0,88.0 52.7,76.0 55.4,76.0 58.1,76.0 60.8,70.0 63.5,76.0 66.1,70.0 68.8,64.0 71.5,58.0 74.2,58.0 76.9,58.0 79.6,58.0 82.2,58.0 84.9,58.0 87.6,58.0 90.3,58.0 93.0,58.0 95.7,58.0 98.3,58.0 101.0,58.0 103.7,58.0 106.4,58.0 109.1,58.0 111.7,58.0 114.4,58.0 117.1,58.0 119.8,58.0 122.5,58.0 125.2,70.0 127.8,76.0 130.5,94.0 133.2,64.0 135.9,64.0 138.6,58.0 141.3,58.0 143.9,58.0 146.6,70.0 149.3,76.0 152.0,76.0 154.7,82.0 157.4,82.0 160.0,82.0 162.7,82.0 165.4,76.0 168.1,64.0 170.8,70.0 173.4,70.0 176.1,82.0 178.8,76.0 181.5,76.0 184.2,82.0 186.9,76.0 189.5,76.0 192.2,76.0 194.9,64.0 197.6,64.0 200.3,76.0 203.0,76.0 205.6,76.0 208.3,88.0 211.0,70.0 213.7,64.0 216.4,58.0 219.1,58.0 221.7,70.0 224.4,70.0 227.1,70.0 229.8,76.0 232.5,70.0 235.1,70.0 237.8,70.0 240.5,70.0 243.2,76.0 245.9,82.0 248.6,76.0 251.2,70.0 253.9,70.0 256.6,70.0 259.3,70.0 262.0,76.0 264.7,70.0 267.3,70.0 270.0,70.0 272.7,70.0 275.4,70.0 278.1,70.0 280.8,70.0 283.4,70.0 286.1,70.0 288.8,70.0 291.5,70.0 294.2,70.0 296.9,70.0 299.5,70.0 302.2,70.0 304.9,70.0 307.6,70.0 310.3,70.0 312.9,70.0 315.6,70.0 318.3,70.0 321.0,70.0 323.7,70.0 326.4,70.0 329.0,70.0 331.7,70.0 334.4,70.0 337.1,70.0 339.8,70.0 342.5,70.0 345.1,70.0 347.8,70.0 350.5,70.0 353.2,70.0 355.9,70.0 358.6,70.0 361.2,70.0 363.9,70.0 366.6,70.0 369.3,70.0 372.0,70.0 374.6,70.0 377.3,70.0 380.0,70.0 382.7,70.0 385.4,70.0 388.1,70.0 390.7,70.0 393.4,70.0 396.1,70.0 398.8,70.0 401.5,70.0 404.2,70.0 406.8,70.0 409.5,70.0 412.2,70.0 414.9,70.0 417.6,70.0 420.3,70.0 422.9,70.0 425.6,70.0 428.3,70.0 431.0,70.0 433.7,70.0 436.3,70.0 439.0,70.0 441.7,70.0 444.4,70.0 447.1,76.0 449.8,70.0 452.4,70.0 455.1,70.0 457.8,70.0 460.5,70.0 463.2,76.0 465.9,76.0 468.5,88.0 471.2,88.0 473.9,88.0 476.6,94.0 479.3,94.0 482.0,94.0 484.6,94.0 487.3,88.0 490.0,88.0 492.7,82.0 495.4,82.0 498.0,82.0 500.7,88.0 503.4,88.0 506.1,94.0 508.8,82.0 511.5,82.0 514.1,82.0 516.8,82.0 519.5,88.0 522.2,88.0 524.9,94.0 527.6,94.0 530.2,88.0 532.9,88.0 535.6,88.0 538.3,94.0 541.0,94.0 543.7,106.0 546.3,94.0 549.0,94.0 551.7,94.0 554.4,94.0 557.1,88.0 559.7,88.0 562.4,82.0 565.1,76.0 567.8,76.0 570.5,76.0 573.2,76.0 575.8,76.0 578.5,76.0 581.2,70.0 583.9,70.0 586.6,70.0 589.3,76.0 591.9,88.0 594.6,82.0 597.3,70.0 600.0,70.0 602.7,70.0 605.4,76.0 608.0,76.0 610.7,76.0 613.4,82.0 616.1,70.0 618.8,76.0 621.4,64.0 624.1,70.0 626.8,58.0 629.5,58.0 632.2,58.0 634.9,58.0 637.5,58.0 640.2,64.0 642.9,58.0 645.6,64.0 648.3,58.0 651.0,58.0 653.6,58.0 656.3,58.0 659.0,64.0 661.7,64.0 664.4,64.0 667.1,76.0 669.7,70.0 672.4,82.0 675.1,70.0 677.8,76.0 680.5,58.0 683.1,64.0 685.8,58.0 688.5,64.0 691.2,58.0 693.9,58.0 696.6,58.0 699.2,64.0 701.9,70.0 704.6,64.0 707.3,64.0 710.0,64.0 712.7,70.0 715.3,70.0 718.0,64.0 720.7,70.0 723.4,70.0 726.1,70.0 728.8,58.0 731.4,58.0 734.1,58.0 736.8,58.0 739.5,58.0 742.2,64.0 744.9,58.0 747.5,58.0 750.2,58.0 752.9,58.0 755.6,58.0 758.3,58.0 760.9,58.0 763.6,58.0 766.3,64.0 769.0,58.0 771.7,58.0 774.4,58.0 777.0,58.0 779.7,58.0 782.4,58.0 785.1,58.0 787.8,64.0 790.5,58.0 793.1,58.0 795.8,58.0 798.5,58.0 801.2,58.0 803.9,58.0 806.6,58.0 809.2,58.0 811.9,58.0 814.6,58.0 817.3,58.0 820.0,58.0 822.6,58.0 825.3,58.0 828.0,58.0 830.7,58.0 833.4,58.0 836.1,58.0 838.7,58.0 841.4,64.0 844.1,64.0 846.8,58.0 849.5,58.0 852.2,58.0 854.8,64.0 857.5,64.0 860.2,76.0 862.9,64.0 865.6,64.0 868.3,70.0 870.9,58.0 873.6,58.0 876.3,58.0 879.0,58.0 881.7,58.0 884.3,58.0 887.0,70.0 889.7,64.0 892.4,64.0 895.1,64.0 897.8,64.0 900.4,70.0 903.1,70.0 905.8,76.0 908.5,76.0 911.2,82.0 913.9,88.0 916.5,82.0 919.2,82.0 921.9,88.0 924.6,82.0 927.3,76.0 930.0,76.0 932.6,70.0 935.3,64.0 938.0,64.0"/><polyline fill="none" stroke="#f59e0b" stroke-width="2.5" stroke-linejoin="round" stroke-linecap="round" points="42.0,274.0 44.7,274.0 47.4,274.0 50.0,280.0 52.7,268.0 55.4,268.0 58.1,268.0 60.8,274.0 63.5,274.0 66.1,274.0 68.8,280.0 71.5,286.0 74.2,286.0 76.9,286.0 79.6,286.0 82.2,286.0 84.9,286.0 87.6,286.0 90.3,286.0 93.0,286.0 95.7,286.0 98.3,286.0 101.0,286.0 103.7,286.0 106.4,286.0 109.1,286.0 111.7,286.0 114.4,286.0 117.1,286.0 119.8,286.0 122.5,286.0 125.2,274.0 127.8,280.0 130.5,280.0 133.2,280.0 135.9,280.0 138.6,286.0 141.3,286.0 143.9,286.0 146.6,274.0 149.3,268.0 152.0,268.0 154.7,262.0 157.4,262.0 160.0,262.0 162.7,262.0 165.4,268.0 168.1,280.0 170.8,280.0 173.4,274.0 176.1,262.0 178.8,268.0 181.5,268.0 184.2,262.0 186.9,268.0 189.5,268.0 192.2,268.0 194.9,280.0 197.6,280.0 200.3,268.0 203.0,268.0 205.6,268.0 208.3,262.0 211.0,274.0 213.7,280.0 216.4,286.0 219.1,286.0 221.7,274.0 224.4,274.0 227.1,274.0 229.8,274.0 232.5,274.0 235.1,274.0 237.8,274.0 240.5,274.0 243.2,280.0 245.9,274.0 248.6,280.0 251.2,286.0 253.9,286.0 256.6,286.0 259.3,286.0 262.0,280.0 264.7,286.0 267.3,286.0 270.0,286.0 272.7,286.0 275.4,286.0 278.1,286.0 280.8,286.0 283.4,286.0 286.1,286.0 288.8,286.0 291.5,286.0 294.2,286.0 296.9,286.0 299.5,286.0 302.2,286.0 304.9,286.0 307.6,286.0 310.3,286.0 312.9,286.0 315.6,286.0 318.3,286.0 321.0,286.0 323.7,286.0 326.4,286.0 329.0,286.0 331.7,286.0 334.4,286.0 337.1,286.0 339.8,286.0 342.5,286.0 345.1,286.0 347.8,286.0 350.5,286.0 353.2,286.0 355.9,286.0 358.6,286.0 361.2,286.0 363.9,286.0 366.6,286.0 369.3,286.0 372.0,286.0 374.6,286.0 377.3,286.0 380.0,286.0 382.7,286.0 385.4,286.0 388.1,286.0 390.7,286.0 393.4,286.0 396.1,286.0 398.8,286.0 401.5,286.0 404.2,286.0 406.8,286.0 409.5,286.0 412.2,286.0 414.9,286.0 417.6,286.0 420.3,286.0 422.9,286.0 425.6,286.0 428.3,286.0 431.0,286.0 433.7,286.0 436.3,286.0 439.0,286.0 441.7,286.0 444.4,286.0 447.1,286.0 449.8,286.0 452.4,286.0 455.1,286.0 457.8,286.0 460.5,286.0 463.2,286.0 465.9,280.0 468.5,268.0 471.2,268.0 473.9,268.0 476.6,268.0 479.3,262.0 482.0,262.0 484.6,262.0 487.3,268.0 490.0,268.0 492.7,274.0 495.4,274.0 498.0,274.0 500.7,268.0 503.4,268.0 506.1,268.0 508.8,274.0 511.5,274.0 514.1,274.0 516.8,274.0 519.5,268.0 522.2,268.0 524.9,262.0 527.6,262.0 530.2,268.0 532.9,268.0 535.6,268.0 538.3,262.0 541.0,262.0 543.7,274.0 546.3,262.0 549.0,262.0 551.7,262.0 554.4,262.0 557.1,268.0 559.7,268.0 562.4,274.0 565.1,280.0 567.8,280.0 570.5,280.0 573.2,280.0 575.8,280.0 578.5,280.0 581.2,286.0 583.9,286.0 586.6,286.0 589.3,280.0 591.9,274.0 594.6,274.0 597.3,280.0 600.0,274.0 602.7,274.0 605.4,268.0 608.0,268.0 610.7,268.0 613.4,268.0 616.1,280.0 618.8,274.0 621.4,280.0 624.1,280.0 626.8,286.0 629.5,286.0 632.2,286.0 634.9,286.0 637.5,286.0 640.2,286.0 642.9,286.0 645.6,286.0 648.3,286.0 651.0,286.0 653.6,286.0 656.3,286.0 659.0,280.0 661.7,280.0 664.4,280.0 667.1,268.0 669.7,280.0 672.4,268.0 675.1,274.0 677.8,274.0 680.5,286.0 683.1,280.0 685.8,286.0 688.5,280.0 691.2,286.0 693.9,286.0 696.6,286.0 699.2,280.0 701.9,274.0 704.6,280.0 707.3,280.0 710.0,280.0 712.7,274.0 715.3,274.0 718.0,280.0 720.7,280.0 723.4,280.0 726.1,280.0 728.8,286.0 731.4,286.0 734.1,286.0 736.8,286.0 739.5,286.0 742.2,286.0 744.9,286.0 747.5,286.0 750.2,286.0 752.9,286.0 755.6,286.0 758.3,286.0 760.9,286.0 763.6,286.0 766.3,286.0 769.0,286.0 771.7,286.0 774.4,286.0 777.0,286.0 779.7,286.0 782.4,286.0 785.1,286.0 787.8,286.0 790.5,286.0 793.1,286.0 795.8,286.0 798.5,286.0 801.2,286.0 803.9,286.0 806.6,286.0 809.2,286.0 811.9,286.0 814.6,286.0 817.3,286.0 820.0,286.0 822.6,286.0 825.3,286.0 828.0,286.0 830.7,286.0 833.4,286.0 836.1,286.0 838.7,286.0 841.4,286.0 844.1,286.0 846.8,286.0 849.5,286.0 852.2,286.0 854.8,280.0 857.5,280.0 860.2,280.0 862.9,280.0 865.6,280.0 868.3,274.0 870.9,286.0 873.6,286.0 876.3,286.0 879.0,286.0 881.7,286.0 884.3,286.0 887.0,286.0 889.7,280.0 892.4,280.0 895.1,280.0 897.8,280.0 900.4,274.0 903.1,274.0 905.8,268.0 908.5,268.0 911.2,262.0 913.9,262.0 916.5,262.0 919.2,262.0 921.9,262.0 924.6,268.0 927.3,268.0 930.0,268.0 932.6,274.0 935.3,280.0 938.0,280.0"/><polyline fill="none" stroke="#ef4444" stroke-width="2.5" stroke-linejoin="round" stroke-linecap="round" points="42.0,280.0 44.7,280.0 47.4,268.0 50.0,262.0 52.7,286.0 55.4,286.0 58.1,286.0 60.8,286.0 63.5,280.0 66.1,286.0 68.8,286.0 71.5,286.0 74.2,286.0 76.9,286.0 79.6,286.0 82.2,286.0 84.9,286.0 87.6,286.0 90.3,286.0 93.0,286.0 95.7,286.0 98.3,286.0 101.0,286.0 103.7,286.0 106.4,286.0 109.1,286.0 111.7,286.0 114.4,286.0 117.1,286.0 119.8,286.0 122.5,286.0 125.2,286.0 127.8,274.0 130.5,256.0 133.2,286.0 135.9,286.0 138.6,286.0 141.3,286.0 143.9,286.0 146.6,286.0 149.3,286.0 152.0,286.0 154.7,286.0 157.4,286.0 160.0,286.0 162.7,286.0 165.4,286.0 168.1,286.0 170.8,280.0 173.4,286.0 176.1,286.0 178.8,286.0 181.5,286.0 184.2,286.0 186.9,286.0 189.5,286.0 192.2,286.0 194.9,286.0 197.6,286.0 200.3,286.0 203.0,286.0 205.6,286.0 208.3,280.0 211.0,286.0 213.7,286.0 216.4,286.0 219.1,286.0 221.7,286.0 224.4,286.0 227.1,286.0 229.8,286.0 232.5,286.0 235.1,286.0 237.8,286.0 240.5,286.0 243.2,274.0 245.9,274.0 248.6,274.0 251.2,274.0 253.9,274.0 256.6,274.0 259.3,274.0 262.0,274.0 264.7,274.0 267.3,274.0 270.0,274.0 272.7,274.0 275.4,274.0 278.1,274.0 280.8,274.0 283.4,274.0 286.1,274.0 288.8,274.0 291.5,274.0 294.2,274.0 296.9,274.0 299.5,274.0 302.2,274.0 304.9,274.0 307.6,274.0 310.3,274.0 312.9,274.0 315.6,274.0 318.3,274.0 321.0,274.0 323.7,274.0 326.4,274.0 329.0,274.0 331.7,274.0 334.4,274.0 337.1,274.0 339.8,274.0 342.5,274.0 345.1,274.0 347.8,274.0 350.5,274.0 353.2,274.0 355.9,274.0 358.6,274.0 361.2,274.0 363.9,274.0 366.6,274.0 369.3,274.0 372.0,274.0 374.6,274.0 377.3,274.0 380.0,274.0 382.7,274.0 385.4,274.0 388.1,274.0 390.7,274.0 393.4,274.0 396.1,274.0 398.8,274.0 401.5,274.0 404.2,274.0 406.8,274.0 409.5,274.0 412.2,274.0 414.9,274.0 417.6,274.0 420.3,274.0 422.9,274.0 425.6,274.0 428.3,274.0 431.0,274.0 433.7,274.0 436.3,274.0 439.0,274.0 441.7,274.0 444.4,274.0 447.1,268.0 449.8,274.0 452.4,274.0 455.1,274.0 457.8,274.0 460.5,274.0 463.2,274.0 465.9,274.0 468.5,274.0 471.2,274.0 473.9,274.0 476.6,268.0 479.3,274.0 482.0,274.0 484.6,274.0 487.3,274.0 490.0,274.0 492.7,274.0 495.4,274.0 498.0,274.0 500.7,274.0 503.4,274.0 506.1,268.0 508.8,274.0 511.5,274.0 514.1,274.0 516.8,274.0 519.5,274.0 522.2,274.0 524.9,274.0 527.6,274.0 530.2,274.0 532.9,274.0 535.6,274.0 538.3,274.0 541.0,274.0 543.7,250.0 546.3,274.0 549.0,274.0 551.7,274.0 554.4,274.0 557.1,274.0 559.7,274.0 562.4,274.0 565.1,274.0 567.8,274.0 570.5,274.0 573.2,274.0 575.8,274.0 578.5,274.0 581.2,274.0 583.9,274.0 586.6,274.0 589.3,274.0 591.9,268.0 594.6,274.0 597.3,280.0 600.0,286.0 602.7,286.0 605.4,286.0 608.0,286.0 610.7,286.0 613.4,280.0 616.1,280.0 618.8,286.0 621.4,286.0 624.1,280.0 626.8,286.0 629.5,286.0 632.2,286.0 634.9,286.0 637.5,286.0 640.2,280.0 642.9,286.0 645.6,286.0 648.3,286.0 651.0,286.0 653.6,286.0 656.3,286.0 659.0,286.0 661.7,286.0 664.4,286.0 667.1,286.0 669.7,280.0 672.4,280.0 675.1,286.0 677.8,280.0 680.5,286.0 683.1,286.0 685.8,286.0 688.5,286.0 691.2,286.0 693.9,286.0 696.6,286.0 699.2,286.0 701.9,286.0 704.6,286.0 707.3,286.0 710.0,286.0 712.7,286.0 715.3,286.0 718.0,286.0 720.7,280.0 723.4,286.0 726.1,280.0 728.8,286.0 731.4,286.0 734.1,286.0 736.8,286.0 739.5,286.0 742.2,286.0 744.9,286.0 747.5,286.0 750.2,286.0 752.9,286.0 755.6,286.0 758.3,286.0 760.9,286.0 763.6,286.0 766.3,280.0 769.0,286.0 771.7,286.0 774.4,286.0 777.0,286.0 779.7,286.0 782.4,286.0 785.1,286.0 787.8,286.0 790.5,286.0 793.1,286.0 795.8,286.0 798.5,286.0 801.2,286.0 803.9,286.0 806.6,286.0 809.2,286.0 811.9,286.0 814.6,286.0 817.3,286.0 820.0,286.0 822.6,286.0 825.3,286.0 828.0,286.0 830.7,286.0 833.4,286.0 836.1,286.0 838.7,286.0 841.4,280.0 844.1,280.0 846.8,286.0 849.5,286.0 852.2,286.0 854.8,286.0 857.5,286.0 860.2,274.0 862.9,286.0 865.6,286.0 868.3,286.0 870.9,286.0 873.6,286.0 876.3,286.0 879.0,286.0 881.7,286.0 884.3,286.0 887.0,286.0 889.7,286.0 892.4,286.0 895.1,286.0 897.8,286.0 900.4,286.0 903.1,286.0 905.8,286.0 908.5,286.0 911.2,286.0 913.9,280.0 916.5,286.0 919.2,286.0 921.9,280.0 924.6,280.0 927.3,286.0 930.0,286.0 932.6,286.0 935.3,286.0 938.0,286.0"/><polyline fill="none" stroke="#a855f7" stroke-width="2.5" stroke-linejoin="round" stroke-linecap="round" points="42.0,286.0 44.7,286.0 47.4,286.0 50.0,286.0 52.7,286.0 55.4,286.0 58.1,286.0 60.8,286.0 63.5,286.0 66.1,286.0 68.8,286.0 71.5,286.0 74.2,286.0 76.9,286.0 79.6,286.0 82.2,286.0 84.9,286.0 87.6,286.0 90.3,286.0 93.0,286.0 95.7,286.0 98.3,286.0 101.0,286.0 103.7,286.0 106.4,286.0 109.1,286.0 111.7,286.0 114.4,286.0 117.1,286.0 119.8,286.0 122.5,286.0 125.2,286.0 127.8,286.0 130.5,286.0 133.2,286.0 135.9,286.0 138.6,286.0 141.3,286.0 143.9,286.0 146.6,286.0 149.3,286.0 152.0,286.0 154.7,286.0 157.4,286.0 160.0,286.0 162.7,286.0 165.4,286.0 168.1,286.0 170.8,286.0 173.4,286.0 176.1,286.0 178.8,286.0 181.5,286.0 184.2,286.0 186.9,286.0 189.5,286.0 192.2,286.0 194.9,286.0 197.6,286.0 200.3,286.0 203.0,286.0 205.6,286.0 208.3,286.0 211.0,286.0 213.7,286.0 216.4,286.0 219.1,286.0 221.7,286.0 224.4,286.0 227.1,286.0 229.8,280.0 232.5,286.0 235.1,286.0 237.8,286.0 240.5,286.0 243.2,286.0 245.9,286.0 248.6,286.0 251.2,286.0 253.9,286.0 256.6,286.0 259.3,286.0 262.0,286.0 264.7,286.0 267.3,286.0 270.0,286.0 272.7,286.0 275.4,286.0 278.1,286.0 280.8,286.0 283.4,286.0 286.1,286.0 288.8,286.0 291.5,286.0 294.2,286.0 296.9,286.0 299.5,286.0 302.2,286.0 304.9,286.0 307.6,286.0 310.3,286.0 312.9,286.0 315.6,286.0 318.3,286.0 321.0,286.0 323.7,286.0 326.4,286.0 329.0,286.0 331.7,286.0 334.4,286.0 337.1,286.0 339.8,286.0 342.5,286.0 345.1,286.0 347.8,286.0 350.5,286.0 353.2,286.0 355.9,286.0 358.6,286.0 361.2,286.0 363.9,286.0 366.6,286.0 369.3,286.0 372.0,286.0 374.6,286.0 377.3,286.0 380.0,286.0 382.7,286.0 385.4,286.0 388.1,286.0 390.7,286.0 393.4,286.0 396.1,286.0 398.8,286.0 401.5,286.0 404.2,286.0 406.8,286.0 409.5,286.0 412.2,286.0 414.9,286.0 417.6,286.0 420.3,286.0 422.9,286.0 425.6,286.0 428.3,286.0 431.0,286.0 433.7,286.0 436.3,286.0 439.0,286.0 441.7,286.0 444.4,286.0 447.1,286.0 449.8,286.0 452.4,286.0 455.1,286.0 457.8,286.0 460.5,286.0 463.2,280.0 465.9,286.0 468.5,286.0 471.2,286.0 473.9,286.0 476.6,286.0 479.3,286.0 482.0,286.0 484.6,286.0 487.3,286.0 490.0,286.0 492.7,286.0 495.4,286.0 498.0,286.0 500.7,286.0 503.4,286.0 506.1,286.0 508.8,286.0 511.5,286.0 514.1,286.0 516.8,286.0 519.5,286.0 522.2,286.0 524.9,286.0 527.6,286.0 530.2,286.0 532.9,286.0 535.6,286.0 538.3,286.0 541.0,286.0 543.7,286.0 546.3,286.0 549.0,286.0 551.7,286.0 554.4,286.0 557.1,286.0 559.7,286.0 562.4,286.0 565.1,286.0 567.8,286.0 570.5,286.0 573.2,286.0 575.8,286.0 578.5,286.0 581.2,286.0 583.9,286.0 586.6,286.0 589.3,286.0 591.9,286.0 594.6,286.0 597.3,286.0 600.0,286.0 602.7,286.0 605.4,286.0 608.0,286.0 610.7,286.0 613.4,286.0 616.1,286.0 618.8,280.0 621.4,286.0 624.1,286.0 626.8,286.0 629.5,286.0 632.2,286.0 634.9,286.0 637.5,286.0 640.2,286.0 642.9,286.0 645.6,280.0 648.3,286.0 651.0,286.0 653.6,286.0 656.3,286.0 659.0,286.0 661.7,286.0 664.4,286.0 667.1,286.0 669.7,286.0 672.4,286.0 675.1,286.0 677.8,286.0 680.5,286.0 683.1,286.0 685.8,286.0 688.5,286.0 691.2,286.0 693.9,286.0 696.6,286.0 699.2,286.0 701.9,286.0 704.6,286.0 707.3,286.0 710.0,286.0 712.7,286.0 715.3,286.0 718.0,286.0 720.7,286.0 723.4,280.0 726.1,286.0 728.8,286.0 731.4,286.0 734.1,286.0 736.8,286.0 739.5,286.0 742.2,280.0 744.9,286.0 747.5,286.0 750.2,286.0 752.9,286.0 755.6,286.0 758.3,286.0 760.9,286.0 763.6,286.0 766.3,286.0 769.0,286.0 771.7,286.0 774.4,286.0 777.0,286.0 779.7,286.0 782.4,286.0 785.1,286.0 787.8,280.0 790.5,286.0 793.1,286.0 795.8,286.0 798.5,286.0 801.2,286.0 803.9,286.0 806.6,286.0 809.2,286.0 811.9,286.0 814.6,286.0 817.3,286.0 820.0,286.0 822.6,286.0 825.3,286.0 828.0,286.0 830.7,286.0 833.4,286.0 836.1,286.0 838.7,286.0 841.4,286.0 844.1,286.0 846.8,286.0 849.5,286.0 852.2,286.0 854.8,286.0 857.5,286.0 860.2,286.0 862.9,286.0 865.6,286.0 868.3,286.0 870.9,286.0 873.6,286.0 876.3,286.0 879.0,286.0 881.7,286.0 884.3,286.0 887.0,274.0 889.7,286.0 892.4,286.0 895.1,286.0 897.8,286.0 900.4,286.0 903.1,286.0 905.8,286.0 908.5,286.0 911.2,286.0 913.9,286.0 916.5,286.0 919.2,286.0 921.9,286.0 924.6,286.0 927.3,286.0 930.0,286.0 932.6,286.0 935.3,286.0 938.0,286.0"/><text x="42" y="308" font-size="11" fill="#9fb0d4">19/06 12:43</text><text x="938" y="308" text-anchor="end" font-size="11" fill="#9fb0d4">07/07 20:30</text></svg>