<svg xmlns="http://www.w3.org/2000/svg" viewBox="0 0 960 320" width="960" height="320" font-family="Segoe UI, system-ui, -apple-system, Roboto, Helvetica, Arial, sans-serif" role="img" aria-label="Availability history per region"><rect x="0.5" y="0.5" width="959" height="319" rx="14" fill="#0d1117" stroke="#2c3a5e"/><text x="42" y="26" font-size="14" font-weight="600" fill="#e6ecff">History · 64 points</text><circle cx="47" cy="40" r="5" fill="#22c55e"/><text x="57" y="44" font-size="12" fill="#9fb0d4">Available</text><circle cx="139.8" cy="40" r="5" fill="#f59e0b"/><text x="149.8" y="44" font-size="12" fill="#9fb0d4">Saturated</text><circle cx="232.60000000000002" cy="40" r="5" fill="#ef4444"/><text x="242.60000000000002" y="44" font-size="12" fill="#9fb0d4">Error</text><line x1="42" y1="286.0" x2="938" y2="286.0" stroke="#21304f" stroke-width="1"/><text x="35" y="289.0" text-anchor="end" font-size="11" fill="#9fb0d4">0</text><line x1="42" y1="227.5" x2="938" y2="227.5" stroke="#21304f" stroke-width="1"/><text x="35" y="230.5" text-anchor="end" font-size="11" fill="#9fb0d4">10</text><line x1="42" y1="169.0" x2="938" y2="169.0" stroke="#21304f" stroke-width="1"/><text x="35" y="172.0" text-anchor="end" font-size="11" fill="#9fb0d4">20</text><line x1="42" y1="110.5" x2="938" y2="110.5" stroke="#21304f" stroke-width="1"/><text x="35" y="113.5" text-anchor="end" font-size="11" fill="#9fb0d4">29</text><line x1="42" y1="52.0" x2="938" y2="52.0" stroke="#21304f" stroke-width="1"/><text x="35" y="55.0" text-anchor="end" font-size="11" fill="#9fb0d4">39</text><polyline fill="none" stroke="#22c55e" stroke-width="2.5" stroke-linejoin="round" stroke-linecap="round" points="42.0,70.0 56.2,70.0 70.4,88.0 84.7,88.0 98.9,76.0 113.1,76.0 127.3,76.0 141.6,70.0 155.8,76.0 170.0,70.0 184.2,64.0 198.4,58.0 212.7,58.0 226.9,58.0 241.1,58.0 255.3,58.0 269.6,58.0 283.8,58.0 298.0,58.0 312.2,58.0 326.4,58.0 340.7,58.0 354.9,58.0 369.1,58.0 383.3,58.0 397.6,58.0 411.8,58.0 426.0,58.0 440.2,58.0 454.4,58.0 468.7,58.0 482.9,70.0 497.1,76.0 511.3,94.0 525.6,64.0 539.8,64.0 554.0,58.0 568.2,58.0 582.4,58.0 596.7,70.0 610.9,76.0 625.1,76.0 639.3,82.0 653.6,82.0 667.8,82.0 682.0,82.0 696.2,76.0 710.4,64.0 724.7,70.0 738.9,70.0 753.1,82.0 767.3,76.0 781.6,76.0 795.8,82.0 810.0,76.0 824.2,76.0 838.4,76.0 852.7,64.0 866.9,64.0 881.1,76.0 895.3,76.0 909.6,76.0 923.8,88.0 938.0,70.0"/><polyline fill="none" stroke="#f59e0b" stroke-width="2.5" stroke-linejoin="round" stroke-linecap="round" points="42.0,274.0 56.2,274.0 70.4,274.0 84.7,280.0 98.9,268.0 113.1,268.0 127.3,268.0 141.6,274.0 155.8,274.0 170.0,274.0 184.2,280.0 198.4,286.0 212.7,286.0 226.9,286.0 241.1,286.0 255.3,286.0 269.6,286.0 283.8,286.0 298.0,286.0 312.2,286.0 326.4,286.0 340.7,286.0 354.9,286.0 369.1,286.0 383.3,286.0 397.6,286.0 411.8,286.0 426.0,286.0 440.2,286.0 454.4,286.0 468.7,286.0 482.9,274.0 497.1,280.0 511.3,280.0 525.6,280.0 539.8,280.0 554.0,286.0 568.2,286.0 582.4,286.0 596.7,274.0 610.9,268.0 625.1,268.0 639.3,262.0 653.6,262.0 667.8,262.0 682.0,262.0 696.2,268.0 710.4,280.0 724.7,280.0 738.9,274.0 753.1,262.0 767.3,268.0 781.6,268.0 795.8,262.0 810.0,268.0 824.2,268.0 838.4,268.0 852.7,280.0 866.9,280.0 881.1,268.0 895.3,268.0 909.6,268.0 923.8,262.0 938.0,274.0"/><polyline fill="none" stroke="#ef4444" stroke-width="2.5" stroke-linejoin="round" stroke-linecap="round" points="42.0,280.0 56.2,280.0 70.4,268.0 84.7,262.0 98.9,286.0 113.1,286.0 127.3,286.0 141.6,286.0 155.8,280.0 170.0,286.0 184.2,286.0 198.4,286.0 212.7,286.0 226.9,286.0 241.1,286.0 255.3,286.0 269.6,286.0 283.8,286.0 298.0,286.0 312.2,286.0 326.4,286.0 340.7,286.0 354.9,286.0 369.1,286.0 383.3,286.0 397.6,286.0 411.8,286.0 426.0,286.0 440.2,286.0 454.4,286.0 468.7,286.0 482.9,286.0 497.1,274.0 511.3,256.0 525.6,286.0 539.8,286.0 554.0,286.0 568.2,286.0 582.4,286.0 596.7,286.0 610.9,286.0 625.1,286.0 639.3,286.0 653.6,286.0 667.8,286.0 682.0,286.0 696.2,286.0 710.4,286.0 724.7,280.0 738.9,286.0 753.1,286.0 767.3,286.0 781.6,286.0 795.8,286.0 810.0,286.0 824.2,286.0 838.4,286.0 852.7,286.0 866.9,286.0 881.1,286.0 895.3,286.0 909.6,286.0 923.8,280.0 938.0,286.0"/><text x="42" y="308" font-size="11" fill="#9fb0d4">19/06 12:43</text><text x="938" y="308" text-anchor="end" font-size="11" fill="#9fb0d4">25/06 20:35</text></svg>