<svg xmlns="http://www.w3.org/2000/svg" viewBox="0 0 960 320" width="960" height="320" font-family="Segoe UI, system-ui, -apple-system, Roboto, Helvetica, Arial, sans-serif" role="img" aria-label="Availability history per region"><rect x="0.5" y="0.5" width="959" height="319" rx="14" fill="#0d1117" stroke="#2c3a5e"/><text x="42" y="26" font-size="14" font-weight="600" fill="#e6ecff">History · 305 points</text><circle cx="47" cy="40" r="5" fill="#22c55e"/><text x="57" y="44" font-size="12" fill="#9fb0d4">Available</text><circle cx="139.8" cy="40" r="5" fill="#f59e0b"/><text x="149.8" y="44" font-size="12" fill="#9fb0d4">Saturated</text><circle cx="232.60000000000002" cy="40" r="5" fill="#ef4444"/><text x="242.60000000000002" y="44" font-size="12" fill="#9fb0d4">Error</text><circle cx="296.6" cy="40" r="5" fill="#a855f7"/><text x="306.6" y="44" font-size="12" fill="#9fb0d4">Timeout</text><line x1="42" y1="286.0" x2="938" y2="286.0" stroke="#21304f" stroke-width="1"/><text x="35" y="289.0" text-anchor="end" font-size="11" fill="#9fb0d4">0</text><line x1="42" y1="227.5" x2="938" y2="227.5" stroke="#21304f" stroke-width="1"/><text x="35" y="230.5" text-anchor="end" font-size="11" fill="#9fb0d4">10</text><line x1="42" y1="169.0" x2="938" y2="169.0" stroke="#21304f" stroke-width="1"/><text x="35" y="172.0" text-anchor="end" font-size="11" fill="#9fb0d4">20</text><line x1="42" y1="110.5" x2="938" y2="110.5" stroke="#21304f" stroke-width="1"/><text x="35" y="113.5" text-anchor="end" font-size="11" fill="#9fb0d4">29</text><line x1="42" y1="52.0" x2="938" y2="52.0" stroke="#21304f" stroke-width="1"/><text x="35" y="55.0" text-anchor="end" font-size="11" fill="#9fb0d4">39</text><polyline fill="none" stroke="#22c55e" stroke-width="2.5" stroke-linejoin="round" stroke-linecap="round" points="42.0,70.0 44.9,70.0 47.9,88.0 50.8,88.0 53.8,76.0 56.7,76.0 59.7,76.0 62.6,70.0 65.6,76.0 68.5,70.0 71.5,64.0 74.4,58.0 77.4,58.0 80.3,58.0 83.3,58.0 86.2,58.0 89.2,58.0 92.1,58.0 95.1,58.0 98.0,58.0 100.9,58.0 103.9,58.0 106.8,58.0 109.8,58.0 112.7,58.0 115.7,58.0 118.6,58.0 121.6,58.0 124.5,58.0 127.5,58.0 130.4,58.0 133.4,70.0 136.3,76.0 139.3,94.0 142.2,64.0 145.2,64.0 148.1,58.0 151.1,58.0 154.0,58.0 156.9,70.0 159.9,76.0 162.8,76.0 165.8,82.0 168.7,82.0 171.7,82.0 174.6,82.0 177.6,76.0 180.5,64.0 183.5,70.0 186.4,70.0 189.4,82.0 192.3,76.0 195.3,76.0 198.2,82.0 201.2,76.0 204.1,76.0 207.1,76.0 210.0,64.0 212.9,64.0 215.9,76.0 218.8,76.0 221.8,76.0 224.7,88.0 227.7,70.0 230.6,64.0 233.6,58.0 236.5,58.0 239.5,70.0 242.4,70.0 245.4,70.0 248.3,76.0 251.3,70.0 254.2,70.0 257.2,70.0 260.1,70.0 263.1,76.0 266.0,82.0 268.9,76.0 271.9,70.0 274.8,70.0 277.8,70.0 280.7,70.0 283.7,76.0 286.6,70.0 289.6,70.0 292.5,70.0 295.5,70.0 298.4,70.0 301.4,70.0 304.3,70.0 307.3,70.0 310.2,70.0 313.2,70.0 316.1,70.0 319.1,70.0 322.0,70.0 324.9,70.0 327.9,70.0 330.8,70.0 333.8,70.0 336.7,70.0 339.7,70.0 342.6,70.0 345.6,70.0 348.5,70.0 351.5,70.0 354.4,70.0 357.4,70.0 360.3,70.0 363.3,70.0 366.2,70.0 369.2,70.0 372.1,70.0 375.1,70.0 378.0,70.0 380.9,70.0 383.9,70.0 386.8,70.0 389.8,70.0 392.7,70.0 395.7,70.0 398.6,70.0 401.6,70.0 404.5,70.0 407.5,70.0 410.4,70.0 413.4,70.0 416.3,70.0 419.3,70.0 422.2,70.0 425.2,70.0 428.1,70.0 431.1,70.0 434.0,70.0 436.9,70.0 439.9,70.0 442.8,70.0 445.8,70.0 448.7,70.0 451.7,70.0 454.6,70.0 457.6,70.0 460.5,70.0 463.5,70.0 466.4,70.0 469.4,70.0 472.3,70.0 475.3,70.0 478.2,70.0 481.2,70.0 484.1,70.0 487.1,76.0 490.0,70.0 492.9,70.0 495.9,70.0 498.8,70.0 501.8,70.0 504.7,76.0 507.7,76.0 510.6,88.0 513.6,88.0 516.5,88.0 519.5,94.0 522.4,94.0 525.4,94.0 528.3,94.0 531.3,88.0 534.2,88.0 537.2,82.0 540.1,82.0 543.1,82.0 546.0,88.0 548.9,88.0 551.9,94.0 554.8,82.0 557.8,82.0 560.7,82.0 563.7,82.0 566.6,88.0 569.6,88.0 572.5,94.0 575.5,94.0 578.4,88.0 581.4,88.0 584.3,88.0 587.3,94.0 590.2,94.0 593.2,106.0 596.1,94.0 599.1,94.0 602.0,94.0 604.9,94.0 607.9,88.0 610.8,88.0 613.8,82.0 616.7,76.0 619.7,76.0 622.6,76.0 625.6,76.0 628.5,76.0 631.5,76.0 634.4,70.0 637.4,70.0 640.3,70.0 643.3,76.0 646.2,88.0 649.2,82.0 652.1,70.0 655.1,70.0 658.0,70.0 660.9,76.0 663.9,76.0 666.8,76.0 669.8,82.0 672.7,70.0 675.7,76.0 678.6,64.0 681.6,70.0 684.5,58.0 687.5,58.0 690.4,58.0 693.4,58.0 696.3,58.0 699.3,64.0 702.2,58.0 705.2,64.0 708.1,58.0 711.1,58.0 714.0,58.0 716.9,58.0 719.9,64.0 722.8,64.0 725.8,64.0 728.7,76.0 731.7,70.0 734.6,82.0 737.6,70.0 740.5,76.0 743.5,58.0 746.4,64.0 749.4,58.0 752.3,64.0 755.3,58.0 758.2,58.0 761.2,58.0 764.1,64.0 767.1,70.0 770.0,64.0 772.9,64.0 775.9,64.0 778.8,70.0 781.8,70.0 784.7,64.0 787.7,70.0 790.6,70.0 793.6,70.0 796.5,58.0 799.5,58.0 802.4,58.0 805.4,58.0 808.3,58.0 811.3,64.0 814.2,58.0 817.2,58.0 820.1,58.0 823.1,58.0 826.0,58.0 828.9,58.0 831.9,58.0 834.8,58.0 837.8,64.0 840.7,58.0 843.7,58.0 846.6,58.0 849.6,58.0 852.5,58.0 855.5,58.0 858.4,58.0 861.4,64.0 864.3,58.0 867.3,58.0 870.2,58.0 873.2,58.0 876.1,58.0 879.1,58.0 882.0,58.0 884.9,58.0 887.9,58.0 890.8,58.0 893.8,58.0 896.7,58.0 899.7,58.0 902.6,58.0 905.6,58.0 908.5,58.0 911.5,58.0 914.4,58.0 917.4,58.0 920.3,64.0 923.3,64.0 926.2,58.0 929.2,58.0 932.1,58.0 935.1,64.0 938.0,64.0"/><polyline fill="none" stroke="#f59e0b" stroke-width="2.5" stroke-linejoin="round" stroke-linecap="round" points="42.0,274.0 44.9,274.0 47.9,274.0 50.8,280.0 53.8,268.0 56.7,268.0 59.7,268.0 62.6,274.0 65.6,274.0 68.5,274.0 71.5,280.0 74.4,286.0 77.4,286.0 80.3,286.0 83.3,286.0 86.2,286.0 89.2,286.0 92.1,286.0 95.1,286.0 98.0,286.0 100.9,286.0 103.9,286.0 106.8,286.0 109.8,286.0 112.7,286.0 115.7,286.0 118.6,286.0 121.6,286.0 124.5,286.0 127.5,286.0 130.4,286.0 133.4,274.0 136.3,280.0 139.3,280.0 142.2,280.0 145.2,280.0 148.1,286.0 151.1,286.0 154.0,286.0 156.9,274.0 159.9,268.0 162.8,268.0 165.8,262.0 168.7,262.0 171.7,262.0 174.6,262.0 177.6,268.0 180.5,280.0 183.5,280.0 186.4,274.0 189.4,262.0 192.3,268.0 195.3,268.0 198.2,262.0 201.2,268.0 204.1,268.0 207.1,268.0 210.0,280.0 212.9,280.0 215.9,268.0 218.8,268.0 221.8,268.0 224.7,262.0 227.7,274.0 230.6,280.0 233.6,286.0 236.5,286.0 239.5,274.0 242.4,274.0 245.4,274.0 248.3,274.0 251.3,274.0 254.2,274.0 257.2,274.0 260.1,274.0 263.1,280.0 266.0,274.0 268.9,280.0 271.9,286.0 274.8,286.0 277.8,286.0 280.7,286.0 283.7,280.0 286.6,286.0 289.6,286.0 292.5,286.0 295.5,286.0 298.4,286.0 301.4,286.0 304.3,286.0 307.3,286.0 310.2,286.0 313.2,286.0 316.1,286.0 319.1,286.0 322.0,286.0 324.9,286.0 327.9,286.0 330.8,286.0 333.8,286.0 336.7,286.0 339.7,286.0 342.6,286.0 345.6,286.0 348.5,286.0 351.5,286.0 354.4,286.0 357.4,286.0 360.3,286.0 363.3,286.0 366.2,286.0 369.2,286.0 372.1,286.0 375.1,286.0 378.0,286.0 380.9,286.0 383.9,286.0 386.8,286.0 389.8,286.0 392.7,286.0 395.7,286.0 398.6,286.0 401.6,286.0 404.5,286.0 407.5,286.0 410.4,286.0 413.4,286.0 416.3,286.0 419.3,286.0 422.2,286.0 425.2,286.0 428.1,286.0 431.1,286.0 434.0,286.0 436.9,286.0 439.9,286.0 442.8,286.0 445.8,286.0 448.7,286.0 451.7,286.0 454.6,286.0 457.6,286.0 460.5,286.0 463.5,286.0 466.4,286.0 469.4,286.0 472.3,286.0 475.3,286.0 478.2,286.0 481.2,286.0 484.1,286.0 487.1,286.0 490.0,286.0 492.9,286.0 495.9,286.0 498.8,286.0 501.8,286.0 504.7,286.0 507.7,280.0 510.6,268.0 513.6,268.0 516.5,268.0 519.5,268.0 522.4,262.0 525.4,262.0 528.3,262.0 531.3,268.0 534.2,268.0 537.2,274.0 540.1,274.0 543.1,274.0 546.0,268.0 548.9,268.0 551.9,268.0 554.8,274.0 557.8,274.0 560.7,274.0 563.7,274.0 566.6,268.0 569.6,268.0 572.5,262.0 575.5,262.0 578.4,268.0 581.4,268.0 584.3,268.0 587.3,262.0 590.2,262.0 593.2,274.0 596.1,262.0 599.1,262.0 602.0,262.0 604.9,262.0 607.9,268.0 610.8,268.0 613.8,274.0 616.7,280.0 619.7,280.0 622.6,280.0 625.6,280.0 628.5,280.0 631.5,280.0 634.4,286.0 637.4,286.0 640.3,286.0 643.3,280.0 646.2,274.0 649.2,274.0 652.1,280.0 655.1,274.0 658.0,274.0 660.9,268.0 663.9,268.0 666.8,268.0 669.8,268.0 672.7,280.0 675.7,274.0 678.6,280.0 681.6,280.0 684.5,286.0 687.5,286.0 690.4,286.0 693.4,286.0 696.3,286.0 699.3,286.0 702.2,286.0 705.2,286.0 708.1,286.0 711.1,286.0 714.0,286.0 716.9,286.0 719.9,280.0 722.8,280.0 725.8,280.0 728.7,268.0 731.7,280.0 734.6,268.0 737.6,274.0 740.5,274.0 743.5,286.0 746.4,280.0 749.4,286.0 752.3,280.0 755.3,286.0 758.2,286.0 761.2,286.0 764.1,280.0 767.1,274.0 770.0,280.0 772.9,280.0 775.9,280.0 778.8,274.0 781.8,274.0 784.7,280.0 787.7,280.0 790.6,280.0 793.6,280.0 796.5,286.0 799.5,286.0 802.4,286.0 805.4,286.0 808.3,286.0 811.3,286.0 814.2,286.0 817.2,286.0 820.1,286.0 823.1,286.0 826.0,286.0 828.9,286.0 831.9,286.0 834.8,286.0 837.8,286.0 840.7,286.0 843.7,286.0 846.6,286.0 849.6,286.0 852.5,286.0 855.5,286.0 858.4,286.0 861.4,286.0 864.3,286.0 867.3,286.0 870.2,286.0 873.2,286.0 876.1,286.0 879.1,286.0 882.0,286.0 884.9,286.0 887.9,286.0 890.8,286.0 893.8,286.0 896.7,286.0 899.7,286.0 902.6,286.0 905.6,286.0 908.5,286.0 911.5,286.0 914.4,286.0 917.4,286.0 920.3,286.0 923.3,286.0 926.2,286.0 929.2,286.0 932.1,286.0 935.1,280.0 938.0,280.0"/><polyline fill="none" stroke="#ef4444" stroke-width="2.5" stroke-linejoin="round" stroke-linecap="round" points="42.0,280.0 44.9,280.0 47.9,268.0 50.8,262.0 53.8,286.0 56.7,286.0 59.7,286.0 62.6,286.0 65.6,280.0 68.5,286.0 71.5,286.0 74.4,286.0 77.4,286.0 80.3,286.0 83.3,286.0 86.2,286.0 89.2,286.0 92.1,286.0 95.1,286.0 98.0,286.0 100.9,286.0 103.9,286.0 106.8,286.0 109.8,286.0 112.7,286.0 115.7,286.0 118.6,286.0 121.6,286.0 124.5,286.0 127.5,286.0 130.4,286.0 133.4,286.0 136.3,274.0 139.3,256.0 142.2,286.0 145.2,286.0 148.1,286.0 151.1,286.0 154.0,286.0 156.9,286.0 159.9,286.0 162.8,286.0 165.8,286.0 168.7,286.0 171.7,286.0 174.6,286.0 177.6,286.0 180.5,286.0 183.5,280.0 186.4,286.0 189.4,286.0 192.3,286.0 195.3,286.0 198.2,286.0 201.2,286.0 204.1,286.0 207.1,286.0 210.0,286.0 212.9,286.0 215.9,286.0 218.8,286.0 221.8,286.0 224.7,280.0 227.7,286.0 230.6,286.0 233.6,286.0 236.5,286.0 239.5,286.0 242.4,286.0 245.4,286.0 248.3,286.0 251.3,286.0 254.2,286.0 257.2,286.0 260.1,286.0 263.1,274.0 266.0,274.0 268.9,274.0 271.9,274.0 274.8,274.0 277.8,274.0 280.7,274.0 283.7,274.0 286.6,274.0 289.6,274.0 292.5,274.0 295.5,274.0 298.4,274.0 301.4,274.0 304.3,274.0 307.3,274.0 310.2,274.0 313.2,274.0 316.1,274.0 319.1,274.0 322.0,274.0 324.9,274.0 327.9,274.0 330.8,274.0 333.8,274.0 336.7,274.0 339.7,274.0 342.6,274.0 345.6,274.0 348.5,274.0 351.5,274.0 354.4,274.0 357.4,274.0 360.3,274.0 363.3,274.0 366.2,274.0 369.2,274.0 372.1,274.0 375.1,274.0 378.0,274.0 380.9,274.0 383.9,274.0 386.8,274.0 389.8,274.0 392.7,274.0 395.7,274.0 398.6,274.0 401.6,274.0 404.5,274.0 407.5,274.0 410.4,274.0 413.4,274.0 416.3,274.0 419.3,274.0 422.2,274.0 425.2,274.0 428.1,274.0 431.1,274.0 434.0,274.0 436.9,274.0 439.9,274.0 442.8,274.0 445.8,274.0 448.7,274.0 451.7,274.0 454.6,274.0 457.6,274.0 460.5,274.0 463.5,274.0 466.4,274.0 469.4,274.0 472.3,274.0 475.3,274.0 478.2,274.0 481.2,274.0 484.1,274.0 487.1,268.0 490.0,274.0 492.9,274.0 495.9,274.0 498.8,274.0 501.8,274.0 504.7,274.0 507.7,274.0 510.6,274.0 513.6,274.0 516.5,274.0 519.5,268.0 522.4,274.0 525.4,274.0 528.3,274.0 531.3,274.0 534.2,274.0 537.2,274.0 540.1,274.0 543.1,274.0 546.0,274.0 548.9,274.0 551.9,268.0 554.8,274.0 557.8,274.0 560.7,274.0 563.7,274.0 566.6,274.0 569.6,274.0 572.5,274.0 575.5,274.0 578.4,274.0 581.4,274.0 584.3,274.0 587.3,274.0 590.2,274.0 593.2,250.0 596.1,274.0 599.1,274.0 602.0,274.0 604.9,274.0 607.9,274.0 610.8,274.0 613.8,274.0 616.7,274.0 619.7,274.0 622.6,274.0 625.6,274.0 628.5,274.0 631.5,274.0 634.4,274.0 637.4,274.0 640.3,274.0 643.3,274.0 646.2,268.0 649.2,274.0 652.1,280.0 655.1,286.0 658.0,286.0 660.9,286.0 663.9,286.0 666.8,286.0 669.8,280.0 672.7,280.0 675.7,286.0 678.6,286.0 681.6,280.0 684.5,286.0 687.5,286.0 690.4,286.0 693.4,286.0 696.3,286.0 699.3,280.0 702.2,286.0 705.2,286.0 708.1,286.0 711.1,286.0 714.0,286.0 716.9,286.0 719.9,286.0 722.8,286.0 725.8,286.0 728.7,286.0 731.7,280.0 734.6,280.0 737.6,286.0 740.5,280.0 743.5,286.0 746.4,286.0 749.4,286.0 752.3,286.0 755.3,286.0 758.2,286.0 761.2,286.0 764.1,286.0 767.1,286.0 770.0,286.0 772.9,286.0 775.9,286.0 778.8,286.0 781.8,286.0 784.7,286.0 787.7,280.0 790.6,286.0 793.6,280.0 796.5,286.0 799.5,286.0 802.4,286.0 805.4,286.0 808.3,286.0 811.3,286.0 814.2,286.0 817.2,286.0 820.1,286.0 823.1,286.0 826.0,286.0 828.9,286.0 831.9,286.0 834.8,286.0 837.8,280.0 840.7,286.0 843.7,286.0 846.6,286.0 849.6,286.0 852.5,286.0 855.5,286.0 858.4,286.0 861.4,286.0 864.3,286.0 867.3,286.0 870.2,286.0 873.2,286.0 876.1,286.0 879.1,286.0 882.0,286.0 884.9,286.0 887.9,286.0 890.8,286.0 893.8,286.0 896.7,286.0 899.7,286.0 902.6,286.0 905.6,286.0 908.5,286.0 911.5,286.0 914.4,286.0 917.4,286.0 920.3,280.0 923.3,280.0 926.2,286.0 929.2,286.0 932.1,286.0 935.1,286.0 938.0,286.0"/><polyline fill="none" stroke="#a855f7" stroke-width="2.5" stroke-linejoin="round" stroke-linecap="round" points="42.0,286.0 44.9,286.0 47.9,286.0 50.8,286.0 53.8,286.0 56.7,286.0 59.7,286.0 62.6,286.0 65.6,286.0 68.5,286.0 71.5,286.0 74.4,286.0 77.4,286.0 80.3,286.0 83.3,286.0 86.2,286.0 89.2,286.0 92.1,286.0 95.1,286.0 98.0,286.0 100.9,286.0 103.9,286.0 106.8,286.0 109.8,286.0 112.7,286.0 115.7,286.0 118.6,286.0 121.6,286.0 124.5,286.0 127.5,286.0 130.4,286.0 133.4,286.0 136.3,286.0 139.3,286.0 142.2,286.0 145.2,286.0 148.1,286.0 151.1,286.0 154.0,286.0 156.9,286.0 159.9,286.0 162.8,286.0 165.8,286.0 168.7,286.0 171.7,286.0 174.6,286.0 177.6,286.0 180.5,286.0 183.5,286.0 186.4,286.0 189.4,286.0 192.3,286.0 195.3,286.0 198.2,286.0 201.2,286.0 204.1,286.0 207.1,286.0 210.0,286.0 212.9,286.0 215.9,286.0 218.8,286.0 221.8,286.0 224.7,286.0 227.7,286.0 230.6,286.0 233.6,286.0 236.5,286.0 239.5,286.0 242.4,286.0 245.4,286.0 248.3,280.0 251.3,286.0 254.2,286.0 257.2,286.0 260.1,286.0 263.1,286.0 266.0,286.0 268.9,286.0 271.9,286.0 274.8,286.0 277.8,286.0 280.7,286.0 283.7,286.0 286.6,286.0 289.6,286.0 292.5,286.0 295.5,286.0 298.4,286.0 301.4,286.0 304.3,286.0 307.3,286.0 310.2,286.0 313.2,286.0 316.1,286.0 319.1,286.0 322.0,286.0 324.9,286.0 327.9,286.0 330.8,286.0 333.8,286.0 336.7,286.0 339.7,286.0 342.6,286.0 345.6,286.0 348.5,286.0 351.5,286.0 354.4,286.0 357.4,286.0 360.3,286.0 363.3,286.0 366.2,286.0 369.2,286.0 372.1,286.0 375.1,286.0 378.0,286.0 380.9,286.0 383.9,286.0 386.8,286.0 389.8,286.0 392.7,286.0 395.7,286.0 398.6,286.0 401.6,286.0 404.5,286.0 407.5,286.0 410.4,286.0 413.4,286.0 416.3,286.0 419.3,286.0 422.2,286.0 425.2,286.0 428.1,286.0 431.1,286.0 434.0,286.0 436.9,286.0 439.9,286.0 442.8,286.0 445.8,286.0 448.7,286.0 451.7,286.0 454.6,286.0 457.6,286.0 460.5,286.0 463.5,286.0 466.4,286.0 469.4,286.0 472.3,286.0 475.3,286.0 478.2,286.0 481.2,286.0 484.1,286.0 487.1,286.0 490.0,286.0 492.9,286.0 495.9,286.0 498.8,286.0 501.8,286.0 504.7,280.0 507.7,286.0 510.6,286.0 513.6,286.0 516.5,286.0 519.5,286.0 522.4,286.0 525.4,286.0 528.3,286.0 531.3,286.0 534.2,286.0 537.2,286.0 540.1,286.0 543.1,286.0 546.0,286.0 548.9,286.0 551.9,286.0 554.8,286.0 557.8,286.0 560.7,286.0 563.7,286.0 566.6,286.0 569.6,286.0 572.5,286.0 575.5,286.0 578.4,286.0 581.4,286.0 584.3,286.0 587.3,286.0 590.2,286.0 593.2,286.0 596.1,286.0 599.1,286.0 602.0,286.0 604.9,286.0 607.9,286.0 610.8,286.0 613.8,286.0 616.7,286.0 619.7,286.0 622.6,286.0 625.6,286.0 628.5,286.0 631.5,286.0 634.4,286.0 637.4,286.0 640.3,286.0 643.3,286.0 646.2,286.0 649.2,286.0 652.1,286.0 655.1,286.0 658.0,286.0 660.9,286.0 663.9,286.0 666.8,286.0 669.8,286.0 672.7,286.0 675.7,280.0 678.6,286.0 681.6,286.0 684.5,286.0 687.5,286.0 690.4,286.0 693.4,286.0 696.3,286.0 699.3,286.0 702.2,286.0 705.2,280.0 708.1,286.0 711.1,286.0 714.0,286.0 716.9,286.0 719.9,286.0 722.8,286.0 725.8,286.0 728.7,286.0 731.7,286.0 734.6,286.0 737.6,286.0 740.5,286.0 743.5,286.0 746.4,286.0 749.4,286.0 752.3,286.0 755.3,286.0 758.2,286.0 761.2,286.0 764.1,286.0 767.1,286.0 770.0,286.0 772.9,286.0 775.9,286.0 778.8,286.0 781.8,286.0 784.7,286.0 787.7,286.0 790.6,280.0 793.6,286.0 796.5,286.0 799.5,286.0 802.4,286.0 805.4,286.0 808.3,286.0 811.3,280.0 814.2,286.0 817.2,286.0 820.1,286.0 823.1,286.0 826.0,286.0 828.9,286.0 831.9,286.0 834.8,286.0 837.8,286.0 840.7,286.0 843.7,286.0 846.6,286.0 849.6,286.0 852.5,286.0 855.5,286.0 858.4,286.0 861.4,280.0 864.3,286.0 867.3,286.0 870.2,286.0 873.2,286.0 876.1,286.0 879.1,286.0 882.0,286.0 884.9,286.0 887.9,286.0 890.8,286.0 893.8,286.0 896.7,286.0 899.7,286.0 902.6,286.0 905.6,286.0 908.5,286.0 911.5,286.0 914.4,286.0 917.4,286.0 920.3,286.0 923.3,286.0 926.2,286.0 929.2,286.0 932.1,286.0 935.1,286.0 938.0,286.0"/><text x="42" y="308" font-size="11" fill="#9fb0d4">19/06 12:43</text><text x="938" y="308" text-anchor="end" font-size="11" fill="#9fb0d4">06/07 14:31</text></svg>