<svg xmlns="http://www.w3.org/2000/svg" viewBox="0 0 960 320" width="960" height="320" font-family="Segoe UI, system-ui, -apple-system, Roboto, Helvetica, Arial, sans-serif" role="img" aria-label="Availability history per region"><rect x="0.5" y="0.5" width="959" height="319" rx="14" fill="#ffffff" stroke="#dce3f1"/><text x="42" y="26" font-size="14" font-weight="600" fill="#14203a">History · 160 points</text><circle cx="47" cy="40" r="5" fill="#22c55e"/><text x="57" y="44" font-size="12" fill="#5a688a">Available</text><circle cx="139.8" cy="40" r="5" fill="#f59e0b"/><text x="149.8" y="44" font-size="12" fill="#5a688a">Saturated</text><circle cx="232.60000000000002" cy="40" r="5" fill="#ef4444"/><text x="242.60000000000002" y="44" font-size="12" fill="#5a688a">Error</text><circle cx="296.6" cy="40" r="5" fill="#a855f7"/><text x="306.6" y="44" font-size="12" fill="#5a688a">Timeout</text><line x1="42" y1="286.0" x2="938" y2="286.0" stroke="#eef2f7" stroke-width="1"/><text x="35" y="289.0" text-anchor="end" font-size="11" fill="#5a688a">0</text><line x1="42" y1="227.5" x2="938" y2="227.5" stroke="#eef2f7" stroke-width="1"/><text x="35" y="230.5" text-anchor="end" font-size="11" fill="#5a688a">10</text><line x1="42" y1="169.0" x2="938" y2="169.0" stroke="#eef2f7" stroke-width="1"/><text x="35" y="172.0" text-anchor="end" font-size="11" fill="#5a688a">21</text><line x1="42" y1="110.5" x2="938" y2="110.5" stroke="#eef2f7" stroke-width="1"/><text x="35" y="113.5" text-anchor="end" font-size="11" fill="#5a688a">32</text><line x1="42" y1="52.0" x2="938" y2="52.0" stroke="#eef2f7" stroke-width="1"/><text x="35" y="55.0" text-anchor="end" font-size="11" fill="#5a688a">42</text><polyline fill="none" stroke="#22c55e" stroke-width="2.5" stroke-linejoin="round" stroke-linecap="round" points="42.0,85.4 47.6,230.3 53.3,102.1 58.9,107.7 64.5,102.1 70.2,96.6 75.8,96.6 81.4,96.6 87.1,96.6 92.7,96.6 98.4,96.6 104.0,96.6 109.6,96.6 115.3,96.6 120.9,96.6 126.5,91.0 132.2,91.0 137.8,102.1 143.4,102.1 149.1,102.1 154.7,107.7 160.3,107.7 166.0,107.7 171.6,107.7 177.2,107.7 182.9,107.7 188.5,107.7 194.2,107.7 199.8,107.7 205.4,102.1 211.1,102.1 216.7,102.1 222.3,102.1 228.0,96.6 233.6,96.6 239.2,96.6 244.9,96.6 250.5,96.6 256.1,102.1 261.8,102.1 267.4,102.1 273.0,102.1 278.7,96.6 284.3,96.6 289.9,96.6 295.6,96.6 301.2,96.6 306.9,96.6 312.5,96.6 318.1,102.1 323.8,102.1 329.4,102.1 335.0,102.1 340.7,96.6 346.3,96.6 351.9,96.6 357.6,96.6 363.2,96.6 368.8,96.6 374.5,96.6 380.1,96.6 385.7,102.1 391.4,96.6 397.0,96.6 402.7,96.6 408.3,96.6 413.9,96.6 419.6,102.1 425.2,96.6 430.8,96.6 436.5,96.6 442.1,96.6 447.7,96.6 453.4,96.6 459.0,96.6 464.6,96.6 470.3,96.6 475.9,91.0 481.5,91.0 487.2,91.0 492.8,91.0 498.5,96.6 504.1,91.0 509.7,96.6 515.4,96.6 521.0,96.6 526.6,96.6 532.3,96.6 537.9,96.6 543.5,102.1 549.2,107.7 554.8,107.7 560.4,107.7 566.1,107.7 571.7,107.7 577.3,107.7 583.0,107.7 588.6,113.3 594.3,107.7 599.9,107.7 605.5,107.7 611.2,107.7 616.8,107.7 622.4,107.7 628.1,102.1 633.7,102.1 639.3,102.1 645.0,102.1 650.6,102.1 656.2,102.1 661.9,102.1 667.5,102.1 673.1,107.7 678.8,107.7 684.4,107.7 690.1,107.7 695.7,107.7 701.3,107.7 707.0,107.7 712.6,107.7 718.2,113.3 723.9,107.7 729.5,107.7 735.1,107.7 740.8,118.9 746.4,107.7 752.0,107.7 757.7,107.7 763.3,107.7 768.9,102.1 774.6,102.1 780.2,102.1 785.8,102.1 791.5,107.7 797.1,102.1 802.8,107.7 808.4,107.7 814.0,107.7 819.7,107.7 825.3,113.3 830.9,107.7 836.6,107.7 842.2,107.7 847.8,107.7 853.5,107.7 859.1,107.7 864.7,107.7 870.4,107.7 876.0,113.3 881.6,102.1 887.3,102.1 892.9,102.1 898.6,102.1 904.2,102.1 909.8,102.1 915.5,102.1 921.1,102.1 926.7,102.1 932.4,102.1 938.0,107.7"/><polyline fill="none" stroke="#f59e0b" stroke-width="2.5" stroke-linejoin="round" stroke-linecap="round" points="42.0,274.9 47.6,269.3 53.3,258.1 58.9,252.6 64.5,258.1 70.2,263.7 75.8,263.7 81.4,263.7 87.1,263.7 92.7,263.7 98.4,263.7 104.0,263.7 109.6,263.7 115.3,263.7 120.9,263.7 126.5,269.3 132.2,269.3 137.8,263.7 143.4,258.1 149.1,258.1 154.7,252.6 160.3,252.6 166.0,252.6 171.6,252.6 177.2,252.6 182.9,252.6 188.5,252.6 194.2,252.6 199.8,252.6 205.4,258.1 211.1,258.1 216.7,258.1 222.3,258.1 228.0,263.7 233.6,263.7 239.2,263.7 244.9,263.7 250.5,263.7 256.1,258.1 261.8,258.1 267.4,258.1 273.0,258.1 278.7,263.7 284.3,263.7 289.9,263.7 295.6,263.7 301.2,263.7 306.9,263.7 312.5,263.7 318.1,258.1 323.8,258.1 329.4,258.1 335.0,263.7 340.7,263.7 346.3,263.7 351.9,263.7 357.6,263.7 363.2,263.7 368.8,263.7 374.5,263.7 380.1,263.7 385.7,258.1 391.4,263.7 397.0,263.7 402.7,263.7 408.3,263.7 413.9,263.7 419.6,263.7 425.2,263.7 430.8,263.7 436.5,263.7 442.1,263.7 447.7,263.7 453.4,263.7 459.0,263.7 464.6,263.7 470.3,263.7 475.9,269.3 481.5,269.3 487.2,269.3 492.8,269.3 498.5,269.3 504.1,269.3 509.7,263.7 515.4,263.7 521.0,263.7 526.6,263.7 532.3,263.7 537.9,263.7 543.5,258.1 549.2,252.6 554.8,252.6 560.4,258.1 566.1,252.6 571.7,252.6 577.3,252.6 583.0,252.6 588.6,252.6 594.3,252.6 599.9,258.1 605.5,252.6 611.2,252.6 616.8,252.6 622.4,252.6 628.1,258.1 633.7,258.1 639.3,258.1 645.0,258.1 650.6,258.1 656.2,258.1 661.9,258.1 667.5,258.1 673.1,252.6 678.8,252.6 684.4,252.6 690.1,252.6 695.7,252.6 701.3,252.6 707.0,252.6 712.6,258.1 718.2,252.6 723.9,252.6 729.5,252.6 735.1,252.6 740.8,252.6 746.4,252.6 752.0,252.6 757.7,258.1 763.3,258.1 768.9,258.1 774.6,258.1 780.2,258.1 785.8,258.1 791.5,258.1 797.1,258.1 802.8,252.6 808.4,252.6 814.0,252.6 819.7,252.6 825.3,252.6 830.9,252.6 836.6,252.6 842.2,252.6 847.8,252.6 853.5,252.6 859.1,252.6 864.7,252.6 870.4,252.6 876.0,252.6 881.6,258.1 887.3,258.1 892.9,258.1 898.6,258.1 904.2,258.1 909.8,263.7 915.5,263.7 921.1,258.1 926.7,258.1 932.4,258.1 938.0,258.1"/><polyline fill="none" stroke="#ef4444" stroke-width="2.5" stroke-linejoin="round" stroke-linecap="round" points="42.0,286.0 47.6,146.7 53.3,286.0 58.9,286.0 64.5,286.0 70.2,286.0 75.8,286.0 81.4,286.0 87.1,286.0 92.7,286.0 98.4,286.0 104.0,286.0 109.6,286.0 115.3,286.0 120.9,286.0 126.5,286.0 132.2,286.0 137.8,280.4 143.4,286.0 149.1,286.0 154.7,286.0 160.3,286.0 166.0,286.0 171.6,286.0 177.2,286.0 182.9,286.0 188.5,286.0 194.2,286.0 199.8,286.0 205.4,286.0 211.1,286.0 216.7,286.0 222.3,286.0 228.0,286.0 233.6,286.0 239.2,286.0 244.9,286.0 250.5,286.0 256.1,286.0 261.8,286.0 267.4,286.0 273.0,286.0 278.7,286.0 284.3,286.0 289.9,286.0 295.6,286.0 301.2,286.0 306.9,286.0 312.5,286.0 318.1,286.0 323.8,286.0 329.4,286.0 335.0,286.0 340.7,286.0 346.3,286.0 351.9,286.0 357.6,286.0 363.2,286.0 368.8,286.0 374.5,286.0 380.1,286.0 385.7,286.0 391.4,286.0 397.0,286.0 402.7,286.0 408.3,286.0 413.9,286.0 419.6,280.4 425.2,286.0 430.8,286.0 436.5,286.0 442.1,286.0 447.7,286.0 453.4,286.0 459.0,286.0 464.6,286.0 470.3,286.0 475.9,286.0 481.5,286.0 487.2,286.0 492.8,286.0 498.5,280.4 504.1,286.0 509.7,286.0 515.4,286.0 521.0,286.0 526.6,286.0 532.3,286.0 537.9,286.0 543.5,286.0 549.2,286.0 554.8,286.0 560.4,280.4 566.1,286.0 571.7,286.0 577.3,286.0 583.0,286.0 588.6,280.4 594.3,286.0 599.9,286.0 605.5,286.0 611.2,286.0 616.8,286.0 622.4,286.0 628.1,286.0 633.7,286.0 639.3,286.0 645.0,286.0 650.6,286.0 656.2,286.0 661.9,286.0 667.5,286.0 673.1,286.0 678.8,286.0 684.4,286.0 690.1,286.0 695.7,286.0 701.3,286.0 707.0,286.0 712.6,286.0 718.2,280.4 723.9,286.0 729.5,286.0 735.1,286.0 740.8,274.9 746.4,286.0 752.0,286.0 757.7,280.4 763.3,280.4 768.9,286.0 774.6,286.0 780.2,286.0 785.8,286.0 791.5,280.4 797.1,286.0 802.8,286.0 808.4,286.0 814.0,286.0 819.7,286.0 825.3,286.0 830.9,286.0 836.6,286.0 842.2,286.0 847.8,286.0 853.5,286.0 859.1,286.0 864.7,286.0 870.4,286.0 876.0,286.0 881.6,286.0 887.3,286.0 892.9,286.0 898.6,286.0 904.2,286.0 909.8,280.4 915.5,286.0 921.1,286.0 926.7,286.0 932.4,263.7 938.0,280.4"/><polyline fill="none" stroke="#a855f7" stroke-width="2.5" stroke-linejoin="round" stroke-linecap="round" points="42.0,286.0 47.6,286.0 53.3,286.0 58.9,286.0 64.5,286.0 70.2,286.0 75.8,286.0 81.4,286.0 87.1,286.0 92.7,286.0 98.4,286.0 104.0,286.0 109.6,286.0 115.3,286.0 120.9,286.0 126.5,286.0 132.2,286.0 137.8,286.0 143.4,286.0 149.1,286.0 154.7,286.0 160.3,286.0 166.0,286.0 171.6,286.0 177.2,286.0 182.9,286.0 188.5,286.0 194.2,286.0 199.8,286.0 205.4,286.0 211.1,286.0 216.7,286.0 222.3,286.0 228.0,286.0 233.6,286.0 239.2,286.0 244.9,286.0 250.5,286.0 256.1,286.0 261.8,286.0 267.4,286.0 273.0,286.0 278.7,286.0 284.3,286.0 289.9,286.0 295.6,286.0 301.2,286.0 306.9,286.0 312.5,286.0 318.1,286.0 323.8,286.0 329.4,286.0 335.0,280.4 340.7,286.0 346.3,286.0 351.9,286.0 357.6,286.0 363.2,286.0 368.8,286.0 374.5,286.0 380.1,286.0 385.7,286.0 391.4,286.0 397.0,286.0 402.7,286.0 408.3,286.0 413.9,286.0 419.6,286.0 425.2,286.0 430.8,286.0 436.5,286.0 442.1,286.0 447.7,286.0 453.4,286.0 459.0,286.0 464.6,286.0 470.3,286.0 475.9,286.0 481.5,286.0 487.2,286.0 492.8,286.0 498.5,286.0 504.1,286.0 509.7,286.0 515.4,286.0 521.0,286.0 526.6,286.0 532.3,286.0 537.9,286.0 543.5,286.0 549.2,286.0 554.8,286.0 560.4,286.0 566.1,286.0 571.7,286.0 577.3,286.0 583.0,286.0 588.6,286.0 594.3,286.0 599.9,280.4 605.5,286.0 611.2,286.0 616.8,286.0 622.4,286.0 628.1,286.0 633.7,286.0 639.3,286.0 645.0,286.0 650.6,286.0 656.2,286.0 661.9,286.0 667.5,286.0 673.1,286.0 678.8,286.0 684.4,286.0 690.1,286.0 695.7,286.0 701.3,286.0 707.0,286.0 712.6,280.4 718.2,286.0 723.9,286.0 729.5,286.0 735.1,286.0 740.8,286.0 746.4,286.0 752.0,286.0 757.7,286.0 763.3,286.0 768.9,286.0 774.6,286.0 780.2,286.0 785.8,286.0 791.5,286.0 797.1,286.0 802.8,286.0 808.4,286.0 814.0,286.0 819.7,286.0 825.3,280.4 830.9,286.0 836.6,286.0 842.2,286.0 847.8,286.0 853.5,286.0 859.1,286.0 864.7,286.0 870.4,286.0 876.0,280.4 881.6,286.0 887.3,286.0 892.9,286.0 898.6,286.0 904.2,286.0 909.8,286.0 915.5,280.4 921.1,286.0 926.7,286.0 932.4,286.0 938.0,286.0"/><text x="42" y="308" font-size="11" fill="#5a688a">19/06 15:39</text><text x="938" y="308" text-anchor="end" font-size="11" fill="#5a688a">23/07 06:34</text></svg>