<svg xmlns="http://www.w3.org/2000/svg" viewBox="0 0 960 320" width="960" height="320" font-family="Segoe UI, system-ui, -apple-system, Roboto, Helvetica, Arial, sans-serif" role="img" aria-label="Availability history per region"><rect x="0.5" y="0.5" width="959" height="319" rx="14" fill="#0d1117" stroke="#2c3a5e"/><text x="42" y="26" font-size="14" font-weight="600" fill="#e6ecff">History · 94 points</text><circle cx="47" cy="40" r="5" fill="#22c55e"/><text x="57" y="44" font-size="12" fill="#9fb0d4">Available</text><circle cx="139.8" cy="40" r="5" fill="#f59e0b"/><text x="149.8" y="44" font-size="12" fill="#9fb0d4">Saturated</text><circle cx="232.60000000000002" cy="40" r="5" fill="#ef4444"/><text x="242.60000000000002" y="44" font-size="12" fill="#9fb0d4">Error</text><circle cx="296.6" cy="40" r="5" fill="#a855f7"/><text x="306.6" y="44" font-size="12" fill="#9fb0d4">Timeout</text><line x1="42" y1="286.0" x2="938" y2="286.0" stroke="#21304f" stroke-width="1"/><text x="35" y="289.0" text-anchor="end" font-size="11" fill="#9fb0d4">0</text><line x1="42" y1="227.5" x2="938" y2="227.5" stroke="#21304f" stroke-width="1"/><text x="35" y="230.5" text-anchor="end" font-size="11" fill="#9fb0d4">10</text><line x1="42" y1="169.0" x2="938" y2="169.0" stroke="#21304f" stroke-width="1"/><text x="35" y="172.0" text-anchor="end" font-size="11" fill="#9fb0d4">19</text><line x1="42" y1="110.5" x2="938" y2="110.5" stroke="#21304f" stroke-width="1"/><text x="35" y="113.5" text-anchor="end" font-size="11" fill="#9fb0d4">28</text><line x1="42" y1="52.0" x2="938" y2="52.0" stroke="#21304f" stroke-width="1"/><text x="35" y="55.0" text-anchor="end" font-size="11" fill="#9fb0d4">38</text><polyline fill="none" stroke="#22c55e" stroke-width="2.5" stroke-linejoin="round" stroke-linecap="round" points="42.0,64.3 51.6,224.4 61.3,82.8 70.9,88.9 80.5,82.8 90.2,76.6 99.8,76.6 109.4,76.6 119.1,76.6 128.7,76.6 138.3,76.6 148.0,76.6 157.6,76.6 167.2,76.6 176.9,76.6 186.5,70.5 196.2,70.5 205.8,82.8 215.4,82.8 225.1,82.8 234.7,88.9 244.3,88.9 254.0,88.9 263.6,88.9 273.2,88.9 282.9,88.9 292.5,88.9 302.1,88.9 311.8,88.9 321.4,82.8 331.0,82.8 340.7,82.8 350.3,82.8 359.9,76.6 369.6,76.6 379.2,76.6 388.8,76.6 398.5,76.6 408.1,82.8 417.7,82.8 427.4,82.8 437.0,82.8 446.6,76.6 456.3,76.6 465.9,76.6 475.5,76.6 485.2,76.6 494.8,76.6 504.5,76.6 514.1,82.8 523.7,82.8 533.4,82.8 543.0,82.8 552.6,76.6 562.3,76.6 571.9,76.6 581.5,76.6 591.2,76.6 600.8,76.6 610.4,76.6 620.1,76.6 629.7,82.8 639.3,76.6 649.0,76.6 658.6,76.6 668.2,76.6 677.9,76.6 687.5,82.8 697.1,76.6 706.8,76.6 716.4,76.6 726.0,76.6 735.7,76.6 745.3,76.6 754.9,76.6 764.6,76.6 774.2,76.6 783.8,70.5 793.5,70.5 803.1,70.5 812.8,70.5 822.4,76.6 832.0,70.5 841.7,76.6 851.3,76.6 860.9,76.6 870.6,76.6 880.2,76.6 889.8,76.6 899.5,82.8 909.1,88.9 918.7,88.9 928.4,88.9 938.0,88.9"/><polyline fill="none" stroke="#f59e0b" stroke-width="2.5" stroke-linejoin="round" stroke-linecap="round" points="42.0,273.7 51.6,267.5 61.3,255.2 70.9,249.1 80.5,255.2 90.2,261.4 99.8,261.4 109.4,261.4 119.1,261.4 128.7,261.4 138.3,261.4 148.0,261.4 157.6,261.4 167.2,261.4 176.9,261.4 186.5,267.5 196.2,267.5 205.8,261.4 215.4,255.2 225.1,255.2 234.7,249.1 244.3,249.1 254.0,249.1 263.6,249.1 273.2,249.1 282.9,249.1 292.5,249.1 302.1,249.1 311.8,249.1 321.4,255.2 331.0,255.2 340.7,255.2 350.3,255.2 359.9,261.4 369.6,261.4 379.2,261.4 388.8,261.4 398.5,261.4 408.1,255.2 417.7,255.2 427.4,255.2 437.0,255.2 446.6,261.4 456.3,261.4 465.9,261.4 475.5,261.4 485.2,261.4 494.8,261.4 504.5,261.4 514.1,255.2 523.7,255.2 533.4,255.2 543.0,261.4 552.6,261.4 562.3,261.4 571.9,261.4 581.5,261.4 591.2,261.4 600.8,261.4 610.4,261.4 620.1,261.4 629.7,255.2 639.3,261.4 649.0,261.4 658.6,261.4 668.2,261.4 677.9,261.4 687.5,261.4 697.1,261.4 706.8,261.4 716.4,261.4 726.0,261.4 735.7,261.4 745.3,261.4 754.9,261.4 764.6,261.4 774.2,261.4 783.8,267.5 793.5,267.5 803.1,267.5 812.8,267.5 822.4,267.5 832.0,267.5 841.7,261.4 851.3,261.4 860.9,261.4 870.6,261.4 880.2,261.4 889.8,261.4 899.5,255.2 909.1,249.1 918.7,249.1 928.4,255.2 938.0,249.1"/><polyline fill="none" stroke="#ef4444" stroke-width="2.5" stroke-linejoin="round" stroke-linecap="round" points="42.0,286.0 51.6,132.1 61.3,286.0 70.9,286.0 80.5,286.0 90.2,286.0 99.8,286.0 109.4,286.0 119.1,286.0 128.7,286.0 138.3,286.0 148.0,286.0 157.6,286.0 167.2,286.0 176.9,286.0 186.5,286.0 196.2,286.0 205.8,279.8 215.4,286.0 225.1,286.0 234.7,286.0 244.3,286.0 254.0,286.0 263.6,286.0 273.2,286.0 282.9,286.0 292.5,286.0 302.1,286.0 311.8,286.0 321.4,286.0 331.0,286.0 340.7,286.0 350.3,286.0 359.9,286.0 369.6,286.0 379.2,286.0 388.8,286.0 398.5,286.0 408.1,286.0 417.7,286.0 427.4,286.0 437.0,286.0 446.6,286.0 456.3,286.0 465.9,286.0 475.5,286.0 485.2,286.0 494.8,286.0 504.5,286.0 514.1,286.0 523.7,286.0 533.4,286.0 543.0,286.0 552.6,286.0 562.3,286.0 571.9,286.0 581.5,286.0 591.2,286.0 600.8,286.0 610.4,286.0 620.1,286.0 629.7,286.0 639.3,286.0 649.0,286.0 658.6,286.0 668.2,286.0 677.9,286.0 687.5,279.8 697.1,286.0 706.8,286.0 716.4,286.0 726.0,286.0 735.7,286.0 745.3,286.0 754.9,286.0 764.6,286.0 774.2,286.0 783.8,286.0 793.5,286.0 803.1,286.0 812.8,286.0 822.4,279.8 832.0,286.0 841.7,286.0 851.3,286.0 860.9,286.0 870.6,286.0 880.2,286.0 889.8,286.0 899.5,286.0 909.1,286.0 918.7,286.0 928.4,279.8 938.0,286.0"/><polyline fill="none" stroke="#a855f7" stroke-width="2.5" stroke-linejoin="round" stroke-linecap="round" points="42.0,286.0 51.6,286.0 61.3,286.0 70.9,286.0 80.5,286.0 90.2,286.0 99.8,286.0 109.4,286.0 119.1,286.0 128.7,286.0 138.3,286.0 148.0,286.0 157.6,286.0 167.2,286.0 176.9,286.0 186.5,286.0 196.2,286.0 205.8,286.0 215.4,286.0 225.1,286.0 234.7,286.0 244.3,286.0 254.0,286.0 263.6,286.0 273.2,286.0 282.9,286.0 292.5,286.0 302.1,286.0 311.8,286.0 321.4,286.0 331.0,286.0 340.7,286.0 350.3,286.0 359.9,286.0 369.6,286.0 379.2,286.0 388.8,286.0 398.5,286.0 408.1,286.0 417.7,286.0 427.4,286.0 437.0,286.0 446.6,286.0 456.3,286.0 465.9,286.0 475.5,286.0 485.2,286.0 494.8,286.0 504.5,286.0 514.1,286.0 523.7,286.0 533.4,286.0 543.0,279.8 552.6,286.0 562.3,286.0 571.9,286.0 581.5,286.0 591.2,286.0 600.8,286.0 610.4,286.0 620.1,286.0 629.7,286.0 639.3,286.0 649.0,286.0 658.6,286.0 668.2,286.0 677.9,286.0 687.5,286.0 697.1,286.0 706.8,286.0 716.4,286.0 726.0,286.0 735.7,286.0 745.3,286.0 754.9,286.0 764.6,286.0 774.2,286.0 783.8,286.0 793.5,286.0 803.1,286.0 812.8,286.0 822.4,286.0 832.0,286.0 841.7,286.0 851.3,286.0 860.9,286.0 870.6,286.0 880.2,286.0 889.8,286.0 899.5,286.0 909.1,286.0 918.7,286.0 928.4,286.0 938.0,286.0"/><text x="42" y="308" font-size="11" fill="#9fb0d4">19/06 15:39</text><text x="938" y="308" text-anchor="end" font-size="11" fill="#9fb0d4">20/07 12:32</text></svg>