<svg xmlns="http://www.w3.org/2000/svg" viewBox="0 0 960 320" width="960" height="320" font-family="Segoe UI, system-ui, -apple-system, Roboto, Helvetica, Arial, sans-serif" role="img" aria-label="Availability history per region"><rect x="0.5" y="0.5" width="959" height="319" rx="14" fill="#0d1117" stroke="#2c3a5e"/><text x="42" y="26" font-size="14" font-weight="600" fill="#e6ecff">History · 51 points</text><circle cx="47" cy="40" r="5" fill="#22c55e"/><text x="57" y="44" font-size="12" fill="#9fb0d4">Available</text><circle cx="139.8" cy="40" r="5" fill="#f59e0b"/><text x="149.8" y="44" font-size="12" fill="#9fb0d4">Saturated</text><circle cx="232.60000000000002" cy="40" r="5" fill="#ef4444"/><text x="242.60000000000002" y="44" font-size="12" fill="#9fb0d4">Error</text><line x1="42" y1="286.0" x2="938" y2="286.0" stroke="#21304f" stroke-width="1"/><text x="35" y="289.0" text-anchor="end" font-size="11" fill="#9fb0d4">0</text><line x1="42" y1="227.5" x2="938" y2="227.5" stroke="#21304f" stroke-width="1"/><text x="35" y="230.5" text-anchor="end" font-size="11" fill="#9fb0d4">10</text><line x1="42" y1="169.0" x2="938" y2="169.0" stroke="#21304f" stroke-width="1"/><text x="35" y="172.0" text-anchor="end" font-size="11" fill="#9fb0d4">19</text><line x1="42" y1="110.5" x2="938" y2="110.5" stroke="#21304f" stroke-width="1"/><text x="35" y="113.5" text-anchor="end" font-size="11" fill="#9fb0d4">28</text><line x1="42" y1="52.0" x2="938" y2="52.0" stroke="#21304f" stroke-width="1"/><text x="35" y="55.0" text-anchor="end" font-size="11" fill="#9fb0d4">38</text><polyline fill="none" stroke="#22c55e" stroke-width="2.5" stroke-linejoin="round" stroke-linecap="round" points="42.0,64.3 59.9,224.4 77.8,82.8 95.8,88.9 113.7,82.8 131.6,76.6 149.5,76.6 167.4,76.6 185.4,76.6 203.3,76.6 221.2,76.6 239.1,76.6 257.0,76.6 275.0,76.6 292.9,76.6 310.8,70.5 328.7,70.5 346.6,82.8 364.6,82.8 382.5,82.8 400.4,88.9 418.3,88.9 436.2,88.9 454.2,88.9 472.1,88.9 490.0,88.9 507.9,88.9 525.8,88.9 543.8,88.9 561.7,82.8 579.6,82.8 597.5,82.8 615.4,82.8 633.4,76.6 651.3,76.6 669.2,76.6 687.1,76.6 705.0,76.6 723.0,82.8 740.9,82.8 758.8,82.8 776.7,82.8 794.6,76.6 812.6,76.6 830.5,76.6 848.4,76.6 866.3,76.6 884.2,76.6 902.2,76.6 920.1,82.8 938.0,82.8"/><circle cx="42.0" cy="64.3" r="2.5" fill="#22c55e"/><circle cx="59.9" cy="224.4" r="2.5" fill="#22c55e"/><circle cx="77.8" cy="82.8" r="2.5" fill="#22c55e"/><circle cx="95.8" cy="88.9" r="2.5" fill="#22c55e"/><circle cx="113.7" cy="82.8" r="2.5" fill="#22c55e"/><circle cx="131.6" cy="76.6" r="2.5" fill="#22c55e"/><circle cx="149.5" cy="76.6" r="2.5" fill="#22c55e"/><circle cx="167.4" cy="76.6" r="2.5" fill="#22c55e"/><circle cx="185.4" cy="76.6" r="2.5" fill="#22c55e"/><circle cx="203.3" cy="76.6" r="2.5" fill="#22c55e"/><circle cx="221.2" cy="76.6" r="2.5" fill="#22c55e"/><circle cx="239.1" cy="76.6" r="2.5" fill="#22c55e"/><circle cx="257.0" cy="76.6" r="2.5" fill="#22c55e"/><circle cx="275.0" cy="76.6" r="2.5" fill="#22c55e"/><circle cx="292.9" cy="76.6" r="2.5" fill="#22c55e"/><circle cx="310.8" cy="70.5" r="2.5" fill="#22c55e"/><circle cx="328.7" cy="70.5" r="2.5" fill="#22c55e"/><circle cx="346.6" cy="82.8" r="2.5" fill="#22c55e"/><circle cx="364.6" cy="82.8" r="2.5" fill="#22c55e"/><circle cx="382.5" cy="82.8" r="2.5" fill="#22c55e"/><circle cx="400.4" cy="88.9" r="2.5" fill="#22c55e"/><circle cx="418.3" cy="88.9" r="2.5" fill="#22c55e"/><circle cx="436.2" cy="88.9" r="2.5" fill="#22c55e"/><circle cx="454.2" cy="88.9" r="2.5" fill="#22c55e"/><circle cx="472.1" cy="88.9" r="2.5" fill="#22c55e"/><circle cx="490.0" cy="88.9" r="2.5" fill="#22c55e"/><circle cx="507.9" cy="88.9" r="2.5" fill="#22c55e"/><circle cx="525.8" cy="88.9" r="2.5" fill="#22c55e"/><circle cx="543.8" cy="88.9" r="2.5" fill="#22c55e"/><circle cx="561.7" cy="82.8" r="2.5" fill="#22c55e"/><circle cx="579.6" cy="82.8" r="2.5" fill="#22c55e"/><circle cx="597.5" cy="82.8" r="2.5" fill="#22c55e"/><circle cx="615.4" cy="82.8" r="2.5" fill="#22c55e"/><circle cx="633.4" cy="76.6" r="2.5" fill="#22c55e"/><circle cx="651.3" cy="76.6" r="2.5" fill="#22c55e"/><circle cx="669.2" cy="76.6" r="2.5" fill="#22c55e"/><circle cx="687.1" cy="76.6" r="2.5" fill="#22c55e"/><circle cx="705.0" cy="76.6" r="2.5" fill="#22c55e"/><circle cx="723.0" cy="82.8" r="2.5" fill="#22c55e"/><circle cx="740.9" cy="82.8" r="2.5" fill="#22c55e"/><circle cx="758.8" cy="82.8" r="2.5" fill="#22c55e"/><circle cx="776.7" cy="82.8" r="2.5" fill="#22c55e"/><circle cx="794.6" cy="76.6" r="2.5" fill="#22c55e"/><circle cx="812.6" cy="76.6" r="2.5" fill="#22c55e"/><circle cx="830.5" cy="76.6" r="2.5" fill="#22c55e"/><circle cx="848.4" cy="76.6" r="2.5" fill="#22c55e"/><circle cx="866.3" cy="76.6" r="2.5" fill="#22c55e"/><circle cx="884.2" cy="76.6" r="2.5" fill="#22c55e"/><circle cx="902.2" cy="76.6" r="2.5" fill="#22c55e"/><circle cx="920.1" cy="82.8" r="2.5" fill="#22c55e"/><circle cx="938.0" cy="82.8" r="2.5" fill="#22c55e"/><polyline fill="none" stroke="#f59e0b" stroke-width="2.5" stroke-linejoin="round" stroke-linecap="round" points="42.0,273.7 59.9,267.5 77.8,255.2 95.8,249.1 113.7,255.2 131.6,261.4 149.5,261.4 167.4,261.4 185.4,261.4 203.3,261.4 221.2,261.4 239.1,261.4 257.0,261.4 275.0,261.4 292.9,261.4 310.8,267.5 328.7,267.5 346.6,261.4 364.6,255.2 382.5,255.2 400.4,249.1 418.3,249.1 436.2,249.1 454.2,249.1 472.1,249.1 490.0,249.1 507.9,249.1 525.8,249.1 543.8,249.1 561.7,255.2 579.6,255.2 597.5,255.2 615.4,255.2 633.4,261.4 651.3,261.4 669.2,261.4 687.1,261.4 705.0,261.4 723.0,255.2 740.9,255.2 758.8,255.2 776.7,255.2 794.6,261.4 812.6,261.4 830.5,261.4 848.4,261.4 866.3,261.4 884.2,261.4 902.2,261.4 920.1,255.2 938.0,255.2"/><circle cx="42.0" cy="273.7" r="2.5" fill="#f59e0b"/><circle cx="59.9" cy="267.5" r="2.5" fill="#f59e0b"/><circle cx="77.8" cy="255.2" r="2.5" fill="#f59e0b"/><circle cx="95.8" cy="249.1" r="2.5" fill="#f59e0b"/><circle cx="113.7" cy="255.2" r="2.5" fill="#f59e0b"/><circle cx="131.6" cy="261.4" r="2.5" fill="#f59e0b"/><circle cx="149.5" cy="261.4" r="2.5" fill="#f59e0b"/><circle cx="167.4" cy="261.4" r="2.5" fill="#f59e0b"/><circle cx="185.4" cy="261.4" r="2.5" fill="#f59e0b"/><circle cx="203.3" cy="261.4" r="2.5" fill="#f59e0b"/><circle cx="221.2" cy="261.4" r="2.5" fill="#f59e0b"/><circle cx="239.1" cy="261.4" r="2.5" fill="#f59e0b"/><circle cx="257.0" cy="261.4" r="2.5" fill="#f59e0b"/><circle cx="275.0" cy="261.4" r="2.5" fill="#f59e0b"/><circle cx="292.9" cy="261.4" r="2.5" fill="#f59e0b"/><circle cx="310.8" cy="267.5" r="2.5" fill="#f59e0b"/><circle cx="328.7" cy="267.5" r="2.5" fill="#f59e0b"/><circle cx="346.6" cy="261.4" r="2.5" fill="#f59e0b"/><circle cx="364.6" cy="255.2" r="2.5" fill="#f59e0b"/><circle cx="382.5" cy="255.2" r="2.5" fill="#f59e0b"/><circle cx="400.4" cy="249.1" r="2.5" fill="#f59e0b"/><circle cx="418.3" cy="249.1" r="2.5" fill="#f59e0b"/><circle cx="436.2" cy="249.1" r="2.5" fill="#f59e0b"/><circle cx="454.2" cy="249.1" r="2.5" fill="#f59e0b"/><circle cx="472.1" cy="249.1" r="2.5" fill="#f59e0b"/><circle cx="490.0" cy="249.1" r="2.5" fill="#f59e0b"/><circle cx="507.9" cy="249.1" r="2.5" fill="#f59e0b"/><circle cx="525.8" cy="249.1" r="2.5" fill="#f59e0b"/><circle cx="543.8" cy="249.1" r="2.5" fill="#f59e0b"/><circle cx="561.7" cy="255.2" r="2.5" fill="#f59e0b"/><circle cx="579.6" cy="255.2" r="2.5" fill="#f59e0b"/><circle cx="597.5" cy="255.2" r="2.5" fill="#f59e0b"/><circle cx="615.4" cy="255.2" r="2.5" fill="#f59e0b"/><circle cx="633.4" cy="261.4" r="2.5" fill="#f59e0b"/><circle cx="651.3" cy="261.4" r="2.5" fill="#f59e0b"/><circle cx="669.2" cy="261.4" r="2.5" fill="#f59e0b"/><circle cx="687.1" cy="261.4" r="2.5" fill="#f59e0b"/><circle cx="705.0" cy="261.4" r="2.5" fill="#f59e0b"/><circle cx="723.0" cy="255.2" r="2.5" fill="#f59e0b"/><circle cx="740.9" cy="255.2" r="2.5" fill="#f59e0b"/><circle cx="758.8" cy="255.2" r="2.5" fill="#f59e0b"/><circle cx="776.7" cy="255.2" r="2.5" fill="#f59e0b"/><circle cx="794.6" cy="261.4" r="2.5" fill="#f59e0b"/><circle cx="812.6" cy="261.4" r="2.5" fill="#f59e0b"/><circle cx="830.5" cy="261.4" r="2.5" fill="#f59e0b"/><circle cx="848.4" cy="261.4" r="2.5" fill="#f59e0b"/><circle cx="866.3" cy="261.4" r="2.5" fill="#f59e0b"/><circle cx="884.2" cy="261.4" r="2.5" fill="#f59e0b"/><circle cx="902.2" cy="261.4" r="2.5" fill="#f59e0b"/><circle cx="920.1" cy="255.2" r="2.5" fill="#f59e0b"/><circle cx="938.0" cy="255.2" r="2.5" fill="#f59e0b"/><polyline fill="none" stroke="#ef4444" stroke-width="2.5" stroke-linejoin="round" stroke-linecap="round" points="42.0,286.0 59.9,132.1 77.8,286.0 95.8,286.0 113.7,286.0 131.6,286.0 149.5,286.0 167.4,286.0 185.4,286.0 203.3,286.0 221.2,286.0 239.1,286.0 257.0,286.0 275.0,286.0 292.9,286.0 310.8,286.0 328.7,286.0 346.6,279.8 364.6,286.0 382.5,286.0 400.4,286.0 418.3,286.0 436.2,286.0 454.2,286.0 472.1,286.0 490.0,286.0 507.9,286.0 525.8,286.0 543.8,286.0 561.7,286.0 579.6,286.0 597.5,286.0 615.4,286.0 633.4,286.0 651.3,286.0 669.2,286.0 687.1,286.0 705.0,286.0 723.0,286.0 740.9,286.0 758.8,286.0 776.7,286.0 794.6,286.0 812.6,286.0 830.5,286.0 848.4,286.0 866.3,286.0 884.2,286.0 902.2,286.0 920.1,286.0 938.0,286.0"/><circle cx="42.0" cy="286.0" r="2.5" fill="#ef4444"/><circle cx="59.9" cy="132.1" r="2.5" fill="#ef4444"/><circle cx="77.8" cy="286.0" r="2.5" fill="#ef4444"/><circle cx="95.8" cy="286.0" r="2.5" fill="#ef4444"/><circle cx="113.7" cy="286.0" r="2.5" fill="#ef4444"/><circle cx="131.6" cy="286.0" r="2.5" fill="#ef4444"/><circle cx="149.5" cy="286.0" r="2.5" fill="#ef4444"/><circle cx="167.4" cy="286.0" r="2.5" fill="#ef4444"/><circle cx="185.4" cy="286.0" r="2.5" fill="#ef4444"/><circle cx="203.3" cy="286.0" r="2.5" fill="#ef4444"/><circle cx="221.2" cy="286.0" r="2.5" fill="#ef4444"/><circle cx="239.1" cy="286.0" r="2.5" fill="#ef4444"/><circle cx="257.0" cy="286.0" r="2.5" fill="#ef4444"/><circle cx="275.0" cy="286.0" r="2.5" fill="#ef4444"/><circle cx="292.9" cy="286.0" r="2.5" fill="#ef4444"/><circle cx="310.8" cy="286.0" r="2.5" fill="#ef4444"/><circle cx="328.7" cy="286.0" r="2.5" fill="#ef4444"/><circle cx="346.6" cy="279.8" r="2.5" fill="#ef4444"/><circle cx="364.6" cy="286.0" r="2.5" fill="#ef4444"/><circle cx="382.5" cy="286.0" r="2.5" fill="#ef4444"/><circle cx="400.4" cy="286.0" r="2.5" fill="#ef4444"/><circle cx="418.3" cy="286.0" r="2.5" fill="#ef4444"/><circle cx="436.2" cy="286.0" r="2.5" fill="#ef4444"/><circle cx="454.2" cy="286.0" r="2.5" fill="#ef4444"/><circle cx="472.1" cy="286.0" r="2.5" fill="#ef4444"/><circle cx="490.0" cy="286.0" r="2.5" fill="#ef4444"/><circle cx="507.9" cy="286.0" r="2.5" fill="#ef4444"/><circle cx="525.8" cy="286.0" r="2.5" fill="#ef4444"/><circle cx="543.8" cy="286.0" r="2.5" fill="#ef4444"/><circle cx="561.7" cy="286.0" r="2.5" fill="#ef4444"/><circle cx="579.6" cy="286.0" r="2.5" fill="#ef4444"/><circle cx="597.5" cy="286.0" r="2.5" fill="#ef4444"/><circle cx="615.4" cy="286.0" r="2.5" fill="#ef4444"/><circle cx="633.4" cy="286.0" r="2.5" fill="#ef4444"/><circle cx="651.3" cy="286.0" r="2.5" fill="#ef4444"/><circle cx="669.2" cy="286.0" r="2.5" fill="#ef4444"/><circle cx="687.1" cy="286.0" r="2.5" fill="#ef4444"/><circle cx="705.0" cy="286.0" r="2.5" fill="#ef4444"/><circle cx="723.0" cy="286.0" r="2.5" fill="#ef4444"/><circle cx="740.9" cy="286.0" r="2.5" fill="#ef4444"/><circle cx="758.8" cy="286.0" r="2.5" fill="#ef4444"/><circle cx="776.7" cy="286.0" r="2.5" fill="#ef4444"/><circle cx="794.6" cy="286.0" r="2.5" fill="#ef4444"/><circle cx="812.6" cy="286.0" r="2.5" fill="#ef4444"/><circle cx="830.5" cy="286.0" r="2.5" fill="#ef4444"/><circle cx="848.4" cy="286.0" r="2.5" fill="#ef4444"/><circle cx="866.3" cy="286.0" r="2.5" fill="#ef4444"/><circle cx="884.2" cy="286.0" r="2.5" fill="#ef4444"/><circle cx="902.2" cy="286.0" r="2.5" fill="#ef4444"/><circle cx="920.1" cy="286.0" r="2.5" fill="#ef4444"/><circle cx="938.0" cy="286.0" r="2.5" fill="#ef4444"/><text x="42" y="308" font-size="11" fill="#9fb0d4">19/06 15:39</text><text x="938" y="308" text-anchor="end" font-size="11" fill="#9fb0d4">18/07 16:30</text></svg>