<svg xmlns="http://www.w3.org/2000/svg" viewBox="0 0 960 320" width="960" height="320" font-family="Segoe UI, system-ui, -apple-system, Roboto, Helvetica, Arial, sans-serif" role="img" aria-label="Availability history per region"><rect x="0.5" y="0.5" width="959" height="319" rx="14" fill="#0d1117" stroke="#2c3a5e"/><text x="42" y="26" font-size="14" font-weight="600" fill="#e6ecff">History · 327 points</text><circle cx="47" cy="40" r="5" fill="#22c55e"/><text x="57" y="44" font-size="12" fill="#9fb0d4">Available</text><circle cx="139.8" cy="40" r="5" fill="#f59e0b"/><text x="149.8" y="44" font-size="12" fill="#9fb0d4">Saturated</text><circle cx="232.60000000000002" cy="40" r="5" fill="#ef4444"/><text x="242.60000000000002" y="44" font-size="12" fill="#9fb0d4">Error</text><circle cx="296.6" cy="40" r="5" fill="#a855f7"/><text x="306.6" y="44" font-size="12" fill="#9fb0d4">Timeout</text><line x1="42" y1="286.0" x2="938" y2="286.0" stroke="#21304f" stroke-width="1"/><text x="35" y="289.0" text-anchor="end" font-size="11" fill="#9fb0d4">0</text><line x1="42" y1="227.5" x2="938" y2="227.5" stroke="#21304f" stroke-width="1"/><text x="35" y="230.5" text-anchor="end" font-size="11" fill="#9fb0d4">10</text><line x1="42" y1="169.0" x2="938" y2="169.0" stroke="#21304f" stroke-width="1"/><text x="35" y="172.0" text-anchor="end" font-size="11" fill="#9fb0d4">20</text><line x1="42" y1="110.5" x2="938" y2="110.5" stroke="#21304f" stroke-width="1"/><text x="35" y="113.5" text-anchor="end" font-size="11" fill="#9fb0d4">29</text><line x1="42" y1="52.0" x2="938" y2="52.0" stroke="#21304f" stroke-width="1"/><text x="35" y="55.0" text-anchor="end" font-size="11" fill="#9fb0d4">39</text><polyline fill="none" stroke="#22c55e" stroke-width="2.5" stroke-linejoin="round" stroke-linecap="round" points="42.0,70.0 44.7,70.0 47.5,88.0 50.2,88.0 53.0,76.0 55.7,76.0 58.5,76.0 61.2,70.0 64.0,76.0 66.7,70.0 69.5,64.0 72.2,58.0 75.0,58.0 77.7,58.0 80.5,58.0 83.2,58.0 86.0,58.0 88.7,58.0 91.5,58.0 94.2,58.0 97.0,58.0 99.7,58.0 102.5,58.0 105.2,58.0 108.0,58.0 110.7,58.0 113.5,58.0 116.2,58.0 119.0,58.0 121.7,58.0 124.5,58.0 127.2,70.0 130.0,76.0 132.7,94.0 135.4,64.0 138.2,64.0 140.9,58.0 143.7,58.0 146.4,58.0 149.2,70.0 151.9,76.0 154.7,76.0 157.4,82.0 160.2,82.0 162.9,82.0 165.7,82.0 168.4,76.0 171.2,64.0 173.9,70.0 176.7,70.0 179.4,82.0 182.2,76.0 184.9,76.0 187.7,82.0 190.4,76.0 193.2,76.0 195.9,76.0 198.7,64.0 201.4,64.0 204.2,76.0 206.9,76.0 209.7,76.0 212.4,88.0 215.2,70.0 217.9,64.0 220.7,58.0 223.4,58.0 226.1,70.0 228.9,70.0 231.6,70.0 234.4,76.0 237.1,70.0 239.9,70.0 242.6,70.0 245.4,70.0 248.1,76.0 250.9,82.0 253.6,76.0 256.4,70.0 259.1,70.0 261.9,70.0 264.6,70.0 267.4,76.0 270.1,70.0 272.9,70.0 275.6,70.0 278.4,70.0 281.1,70.0 283.9,70.0 286.6,70.0 289.4,70.0 292.1,70.0 294.9,70.0 297.6,70.0 300.4,70.0 303.1,70.0 305.9,70.0 308.6,70.0 311.3,70.0 314.1,70.0 316.8,70.0 319.6,70.0 322.3,70.0 325.1,70.0 327.8,70.0 330.6,70.0 333.3,70.0 336.1,70.0 338.8,70.0 341.6,70.0 344.3,70.0 347.1,70.0 349.8,70.0 352.6,70.0 355.3,70.0 358.1,70.0 360.8,70.0 363.6,70.0 366.3,70.0 369.1,70.0 371.8,70.0 374.6,70.0 377.3,70.0 380.1,70.0 382.8,70.0 385.6,70.0 388.3,70.0 391.1,70.0 393.8,70.0 396.6,70.0 399.3,70.0 402.0,70.0 404.8,70.0 407.5,70.0 410.3,70.0 413.0,70.0 415.8,70.0 418.5,70.0 421.3,70.0 424.0,70.0 426.8,70.0 429.5,70.0 432.3,70.0 435.0,70.0 437.8,70.0 440.5,70.0 443.3,70.0 446.0,70.0 448.8,70.0 451.5,70.0 454.3,70.0 457.0,76.0 459.8,70.0 462.5,70.0 465.3,70.0 468.0,70.0 470.8,70.0 473.5,76.0 476.3,76.0 479.0,88.0 481.8,88.0 484.5,88.0 487.3,94.0 490.0,94.0 492.7,94.0 495.5,94.0 498.2,88.0 501.0,88.0 503.7,82.0 506.5,82.0 509.2,82.0 512.0,88.0 514.7,88.0 517.5,94.0 520.2,82.0 523.0,82.0 525.7,82.0 528.5,82.0 531.2,88.0 534.0,88.0 536.7,94.0 539.5,94.0 542.2,88.0 545.0,88.0 547.7,88.0 550.5,94.0 553.2,94.0 556.0,106.0 558.7,94.0 561.5,94.0 564.2,94.0 567.0,94.0 569.7,88.0 572.5,88.0 575.2,82.0 578.0,76.0 580.7,76.0 583.4,76.0 586.2,76.0 588.9,76.0 591.7,76.0 594.4,70.0 597.2,70.0 599.9,70.0 602.7,76.0 605.4,88.0 608.2,82.0 610.9,70.0 613.7,70.0 616.4,70.0 619.2,76.0 621.9,76.0 624.7,76.0 627.4,82.0 630.2,70.0 632.9,76.0 635.7,64.0 638.4,70.0 641.2,58.0 643.9,58.0 646.7,58.0 649.4,58.0 652.2,58.0 654.9,64.0 657.7,58.0 660.4,64.0 663.2,58.0 665.9,58.0 668.7,58.0 671.4,58.0 674.1,64.0 676.9,64.0 679.6,64.0 682.4,76.0 685.1,70.0 687.9,82.0 690.6,70.0 693.4,76.0 696.1,58.0 698.9,64.0 701.6,58.0 704.4,64.0 707.1,58.0 709.9,58.0 712.6,58.0 715.4,64.0 718.1,70.0 720.9,64.0 723.6,64.0 726.4,64.0 729.1,70.0 731.9,70.0 734.6,64.0 737.4,70.0 740.1,70.0 742.9,70.0 745.6,58.0 748.4,58.0 751.1,58.0 753.9,58.0 756.6,58.0 759.3,64.0 762.1,58.0 764.8,58.0 767.6,58.0 770.3,58.0 773.1,58.0 775.8,58.0 778.6,58.0 781.3,58.0 784.1,64.0 786.8,58.0 789.6,58.0 792.3,58.0 795.1,58.0 797.8,58.0 800.6,58.0 803.3,58.0 806.1,64.0 808.8,58.0 811.6,58.0 814.3,58.0 817.1,58.0 819.8,58.0 822.6,58.0 825.3,58.0 828.1,58.0 830.8,58.0 833.6,58.0 836.3,58.0 839.1,58.0 841.8,58.0 844.6,58.0 847.3,58.0 850.0,58.0 852.8,58.0 855.5,58.0 858.3,58.0 861.0,64.0 863.8,64.0 866.5,58.0 869.3,58.0 872.0,58.0 874.8,64.0 877.5,64.0 880.3,76.0 883.0,64.0 885.8,64.0 888.5,70.0 891.3,58.0 894.0,58.0 896.8,58.0 899.5,58.0 902.3,58.0 905.0,58.0 907.8,70.0 910.5,64.0 913.3,64.0 916.0,64.0 918.8,64.0 921.5,70.0 924.3,70.0 927.0,76.0 929.8,76.0 932.5,82.0 935.3,88.0 938.0,82.0"/><polyline fill="none" stroke="#f59e0b" stroke-width="2.5" stroke-linejoin="round" stroke-linecap="round" points="42.0,274.0 44.7,274.0 47.5,274.0 50.2,280.0 53.0,268.0 55.7,268.0 58.5,268.0 61.2,274.0 64.0,274.0 66.7,274.0 69.5,280.0 72.2,286.0 75.0,286.0 77.7,286.0 80.5,286.0 83.2,286.0 86.0,286.0 88.7,286.0 91.5,286.0 94.2,286.0 97.0,286.0 99.7,286.0 102.5,286.0 105.2,286.0 108.0,286.0 110.7,286.0 113.5,286.0 116.2,286.0 119.0,286.0 121.7,286.0 124.5,286.0 127.2,274.0 130.0,280.0 132.7,280.0 135.4,280.0 138.2,280.0 140.9,286.0 143.7,286.0 146.4,286.0 149.2,274.0 151.9,268.0 154.7,268.0 157.4,262.0 160.2,262.0 162.9,262.0 165.7,262.0 168.4,268.0 171.2,280.0 173.9,280.0 176.7,274.0 179.4,262.0 182.2,268.0 184.9,268.0 187.7,262.0 190.4,268.0 193.2,268.0 195.9,268.0 198.7,280.0 201.4,280.0 204.2,268.0 206.9,268.0 209.7,268.0 212.4,262.0 215.2,274.0 217.9,280.0 220.7,286.0 223.4,286.0 226.1,274.0 228.9,274.0 231.6,274.0 234.4,274.0 237.1,274.0 239.9,274.0 242.6,274.0 245.4,274.0 248.1,280.0 250.9,274.0 253.6,280.0 256.4,286.0 259.1,286.0 261.9,286.0 264.6,286.0 267.4,280.0 270.1,286.0 272.9,286.0 275.6,286.0 278.4,286.0 281.1,286.0 283.9,286.0 286.6,286.0 289.4,286.0 292.1,286.0 294.9,286.0 297.6,286.0 300.4,286.0 303.1,286.0 305.9,286.0 308.6,286.0 311.3,286.0 314.1,286.0 316.8,286.0 319.6,286.0 322.3,286.0 325.1,286.0 327.8,286.0 330.6,286.0 333.3,286.0 336.1,286.0 338.8,286.0 341.6,286.0 344.3,286.0 347.1,286.0 349.8,286.0 352.6,286.0 355.3,286.0 358.1,286.0 360.8,286.0 363.6,286.0 366.3,286.0 369.1,286.0 371.8,286.0 374.6,286.0 377.3,286.0 380.1,286.0 382.8,286.0 385.6,286.0 388.3,286.0 391.1,286.0 393.8,286.0 396.6,286.0 399.3,286.0 402.0,286.0 404.8,286.0 407.5,286.0 410.3,286.0 413.0,286.0 415.8,286.0 418.5,286.0 421.3,286.0 424.0,286.0 426.8,286.0 429.5,286.0 432.3,286.0 435.0,286.0 437.8,286.0 440.5,286.0 443.3,286.0 446.0,286.0 448.8,286.0 451.5,286.0 454.3,286.0 457.0,286.0 459.8,286.0 462.5,286.0 465.3,286.0 468.0,286.0 470.8,286.0 473.5,286.0 476.3,280.0 479.0,268.0 481.8,268.0 484.5,268.0 487.3,268.0 490.0,262.0 492.7,262.0 495.5,262.0 498.2,268.0 501.0,268.0 503.7,274.0 506.5,274.0 509.2,274.0 512.0,268.0 514.7,268.0 517.5,268.0 520.2,274.0 523.0,274.0 525.7,274.0 528.5,274.0 531.2,268.0 534.0,268.0 536.7,262.0 539.5,262.0 542.2,268.0 545.0,268.0 547.7,268.0 550.5,262.0 553.2,262.0 556.0,274.0 558.7,262.0 561.5,262.0 564.2,262.0 567.0,262.0 569.7,268.0 572.5,268.0 575.2,274.0 578.0,280.0 580.7,280.0 583.4,280.0 586.2,280.0 588.9,280.0 591.7,280.0 594.4,286.0 597.2,286.0 599.9,286.0 602.7,280.0 605.4,274.0 608.2,274.0 610.9,280.0 613.7,274.0 616.4,274.0 619.2,268.0 621.9,268.0 624.7,268.0 627.4,268.0 630.2,280.0 632.9,274.0 635.7,280.0 638.4,280.0 641.2,286.0 643.9,286.0 646.7,286.0 649.4,286.0 652.2,286.0 654.9,286.0 657.7,286.0 660.4,286.0 663.2,286.0 665.9,286.0 668.7,286.0 671.4,286.0 674.1,280.0 676.9,280.0 679.6,280.0 682.4,268.0 685.1,280.0 687.9,268.0 690.6,274.0 693.4,274.0 696.1,286.0 698.9,280.0 701.6,286.0 704.4,280.0 707.1,286.0 709.9,286.0 712.6,286.0 715.4,280.0 718.1,274.0 720.9,280.0 723.6,280.0 726.4,280.0 729.1,274.0 731.9,274.0 734.6,280.0 737.4,280.0 740.1,280.0 742.9,280.0 745.6,286.0 748.4,286.0 751.1,286.0 753.9,286.0 756.6,286.0 759.3,286.0 762.1,286.0 764.8,286.0 767.6,286.0 770.3,286.0 773.1,286.0 775.8,286.0 778.6,286.0 781.3,286.0 784.1,286.0 786.8,286.0 789.6,286.0 792.3,286.0 795.1,286.0 797.8,286.0 800.6,286.0 803.3,286.0 806.1,286.0 808.8,286.0 811.6,286.0 814.3,286.0 817.1,286.0 819.8,286.0 822.6,286.0 825.3,286.0 828.1,286.0 830.8,286.0 833.6,286.0 836.3,286.0 839.1,286.0 841.8,286.0 844.6,286.0 847.3,286.0 850.0,286.0 852.8,286.0 855.5,286.0 858.3,286.0 861.0,286.0 863.8,286.0 866.5,286.0 869.3,286.0 872.0,286.0 874.8,280.0 877.5,280.0 880.3,280.0 883.0,280.0 885.8,280.0 888.5,274.0 891.3,286.0 894.0,286.0 896.8,286.0 899.5,286.0 902.3,286.0 905.0,286.0 907.8,286.0 910.5,280.0 913.3,280.0 916.0,280.0 918.8,280.0 921.5,274.0 924.3,274.0 927.0,268.0 929.8,268.0 932.5,262.0 935.3,262.0 938.0,262.0"/><polyline fill="none" stroke="#ef4444" stroke-width="2.5" stroke-linejoin="round" stroke-linecap="round" points="42.0,280.0 44.7,280.0 47.5,268.0 50.2,262.0 53.0,286.0 55.7,286.0 58.5,286.0 61.2,286.0 64.0,280.0 66.7,286.0 69.5,286.0 72.2,286.0 75.0,286.0 77.7,286.0 80.5,286.0 83.2,286.0 86.0,286.0 88.7,286.0 91.5,286.0 94.2,286.0 97.0,286.0 99.7,286.0 102.5,286.0 105.2,286.0 108.0,286.0 110.7,286.0 113.5,286.0 116.2,286.0 119.0,286.0 121.7,286.0 124.5,286.0 127.2,286.0 130.0,274.0 132.7,256.0 135.4,286.0 138.2,286.0 140.9,286.0 143.7,286.0 146.4,286.0 149.2,286.0 151.9,286.0 154.7,286.0 157.4,286.0 160.2,286.0 162.9,286.0 165.7,286.0 168.4,286.0 171.2,286.0 173.9,280.0 176.7,286.0 179.4,286.0 182.2,286.0 184.9,286.0 187.7,286.0 190.4,286.0 193.2,286.0 195.9,286.0 198.7,286.0 201.4,286.0 204.2,286.0 206.9,286.0 209.7,286.0 212.4,280.0 215.2,286.0 217.9,286.0 220.7,286.0 223.4,286.0 226.1,286.0 228.9,286.0 231.6,286.0 234.4,286.0 237.1,286.0 239.9,286.0 242.6,286.0 245.4,286.0 248.1,274.0 250.9,274.0 253.6,274.0 256.4,274.0 259.1,274.0 261.9,274.0 264.6,274.0 267.4,274.0 270.1,274.0 272.9,274.0 275.6,274.0 278.4,274.0 281.1,274.0 283.9,274.0 286.6,274.0 289.4,274.0 292.1,274.0 294.9,274.0 297.6,274.0 300.4,274.0 303.1,274.0 305.9,274.0 308.6,274.0 311.3,274.0 314.1,274.0 316.8,274.0 319.6,274.0 322.3,274.0 325.1,274.0 327.8,274.0 330.6,274.0 333.3,274.0 336.1,274.0 338.8,274.0 341.6,274.0 344.3,274.0 347.1,274.0 349.8,274.0 352.6,274.0 355.3,274.0 358.1,274.0 360.8,274.0 363.6,274.0 366.3,274.0 369.1,274.0 371.8,274.0 374.6,274.0 377.3,274.0 380.1,274.0 382.8,274.0 385.6,274.0 388.3,274.0 391.1,274.0 393.8,274.0 396.6,274.0 399.3,274.0 402.0,274.0 404.8,274.0 407.5,274.0 410.3,274.0 413.0,274.0 415.8,274.0 418.5,274.0 421.3,274.0 424.0,274.0 426.8,274.0 429.5,274.0 432.3,274.0 435.0,274.0 437.8,274.0 440.5,274.0 443.3,274.0 446.0,274.0 448.8,274.0 451.5,274.0 454.3,274.0 457.0,268.0 459.8,274.0 462.5,274.0 465.3,274.0 468.0,274.0 470.8,274.0 473.5,274.0 476.3,274.0 479.0,274.0 481.8,274.0 484.5,274.0 487.3,268.0 490.0,274.0 492.7,274.0 495.5,274.0 498.2,274.0 501.0,274.0 503.7,274.0 506.5,274.0 509.2,274.0 512.0,274.0 514.7,274.0 517.5,268.0 520.2,274.0 523.0,274.0 525.7,274.0 528.5,274.0 531.2,274.0 534.0,274.0 536.7,274.0 539.5,274.0 542.2,274.0 545.0,274.0 547.7,274.0 550.5,274.0 553.2,274.0 556.0,250.0 558.7,274.0 561.5,274.0 564.2,274.0 567.0,274.0 569.7,274.0 572.5,274.0 575.2,274.0 578.0,274.0 580.7,274.0 583.4,274.0 586.2,274.0 588.9,274.0 591.7,274.0 594.4,274.0 597.2,274.0 599.9,274.0 602.7,274.0 605.4,268.0 608.2,274.0 610.9,280.0 613.7,286.0 616.4,286.0 619.2,286.0 621.9,286.0 624.7,286.0 627.4,280.0 630.2,280.0 632.9,286.0 635.7,286.0 638.4,280.0 641.2,286.0 643.9,286.0 646.7,286.0 649.4,286.0 652.2,286.0 654.9,280.0 657.7,286.0 660.4,286.0 663.2,286.0 665.9,286.0 668.7,286.0 671.4,286.0 674.1,286.0 676.9,286.0 679.6,286.0 682.4,286.0 685.1,280.0 687.9,280.0 690.6,286.0 693.4,280.0 696.1,286.0 698.9,286.0 701.6,286.0 704.4,286.0 707.1,286.0 709.9,286.0 712.6,286.0 715.4,286.0 718.1,286.0 720.9,286.0 723.6,286.0 726.4,286.0 729.1,286.0 731.9,286.0 734.6,286.0 737.4,280.0 740.1,286.0 742.9,280.0 745.6,286.0 748.4,286.0 751.1,286.0 753.9,286.0 756.6,286.0 759.3,286.0 762.1,286.0 764.8,286.0 767.6,286.0 770.3,286.0 773.1,286.0 775.8,286.0 778.6,286.0 781.3,286.0 784.1,280.0 786.8,286.0 789.6,286.0 792.3,286.0 795.1,286.0 797.8,286.0 800.6,286.0 803.3,286.0 806.1,286.0 808.8,286.0 811.6,286.0 814.3,286.0 817.1,286.0 819.8,286.0 822.6,286.0 825.3,286.0 828.1,286.0 830.8,286.0 833.6,286.0 836.3,286.0 839.1,286.0 841.8,286.0 844.6,286.0 847.3,286.0 850.0,286.0 852.8,286.0 855.5,286.0 858.3,286.0 861.0,280.0 863.8,280.0 866.5,286.0 869.3,286.0 872.0,286.0 874.8,286.0 877.5,286.0 880.3,274.0 883.0,286.0 885.8,286.0 888.5,286.0 891.3,286.0 894.0,286.0 896.8,286.0 899.5,286.0 902.3,286.0 905.0,286.0 907.8,286.0 910.5,286.0 913.3,286.0 916.0,286.0 918.8,286.0 921.5,286.0 924.3,286.0 927.0,286.0 929.8,286.0 932.5,286.0 935.3,280.0 938.0,286.0"/><polyline fill="none" stroke="#a855f7" stroke-width="2.5" stroke-linejoin="round" stroke-linecap="round" points="42.0,286.0 44.7,286.0 47.5,286.0 50.2,286.0 53.0,286.0 55.7,286.0 58.5,286.0 61.2,286.0 64.0,286.0 66.7,286.0 69.5,286.0 72.2,286.0 75.0,286.0 77.7,286.0 80.5,286.0 83.2,286.0 86.0,286.0 88.7,286.0 91.5,286.0 94.2,286.0 97.0,286.0 99.7,286.0 102.5,286.0 105.2,286.0 108.0,286.0 110.7,286.0 113.5,286.0 116.2,286.0 119.0,286.0 121.7,286.0 124.5,286.0 127.2,286.0 130.0,286.0 132.7,286.0 135.4,286.0 138.2,286.0 140.9,286.0 143.7,286.0 146.4,286.0 149.2,286.0 151.9,286.0 154.7,286.0 157.4,286.0 160.2,286.0 162.9,286.0 165.7,286.0 168.4,286.0 171.2,286.0 173.9,286.0 176.7,286.0 179.4,286.0 182.2,286.0 184.9,286.0 187.7,286.0 190.4,286.0 193.2,286.0 195.9,286.0 198.7,286.0 201.4,286.0 204.2,286.0 206.9,286.0 209.7,286.0 212.4,286.0 215.2,286.0 217.9,286.0 220.7,286.0 223.4,286.0 226.1,286.0 228.9,286.0 231.6,286.0 234.4,280.0 237.1,286.0 239.9,286.0 242.6,286.0 245.4,286.0 248.1,286.0 250.9,286.0 253.6,286.0 256.4,286.0 259.1,286.0 261.9,286.0 264.6,286.0 267.4,286.0 270.1,286.0 272.9,286.0 275.6,286.0 278.4,286.0 281.1,286.0 283.9,286.0 286.6,286.0 289.4,286.0 292.1,286.0 294.9,286.0 297.6,286.0 300.4,286.0 303.1,286.0 305.9,286.0 308.6,286.0 311.3,286.0 314.1,286.0 316.8,286.0 319.6,286.0 322.3,286.0 325.1,286.0 327.8,286.0 330.6,286.0 333.3,286.0 336.1,286.0 338.8,286.0 341.6,286.0 344.3,286.0 347.1,286.0 349.8,286.0 352.6,286.0 355.3,286.0 358.1,286.0 360.8,286.0 363.6,286.0 366.3,286.0 369.1,286.0 371.8,286.0 374.6,286.0 377.3,286.0 380.1,286.0 382.8,286.0 385.6,286.0 388.3,286.0 391.1,286.0 393.8,286.0 396.6,286.0 399.3,286.0 402.0,286.0 404.8,286.0 407.5,286.0 410.3,286.0 413.0,286.0 415.8,286.0 418.5,286.0 421.3,286.0 424.0,286.0 426.8,286.0 429.5,286.0 432.3,286.0 435.0,286.0 437.8,286.0 440.5,286.0 443.3,286.0 446.0,286.0 448.8,286.0 451.5,286.0 454.3,286.0 457.0,286.0 459.8,286.0 462.5,286.0 465.3,286.0 468.0,286.0 470.8,286.0 473.5,280.0 476.3,286.0 479.0,286.0 481.8,286.0 484.5,286.0 487.3,286.0 490.0,286.0 492.7,286.0 495.5,286.0 498.2,286.0 501.0,286.0 503.7,286.0 506.5,286.0 509.2,286.0 512.0,286.0 514.7,286.0 517.5,286.0 520.2,286.0 523.0,286.0 525.7,286.0 528.5,286.0 531.2,286.0 534.0,286.0 536.7,286.0 539.5,286.0 542.2,286.0 545.0,286.0 547.7,286.0 550.5,286.0 553.2,286.0 556.0,286.0 558.7,286.0 561.5,286.0 564.2,286.0 567.0,286.0 569.7,286.0 572.5,286.0 575.2,286.0 578.0,286.0 580.7,286.0 583.4,286.0 586.2,286.0 588.9,286.0 591.7,286.0 594.4,286.0 597.2,286.0 599.9,286.0 602.7,286.0 605.4,286.0 608.2,286.0 610.9,286.0 613.7,286.0 616.4,286.0 619.2,286.0 621.9,286.0 624.7,286.0 627.4,286.0 630.2,286.0 632.9,280.0 635.7,286.0 638.4,286.0 641.2,286.0 643.9,286.0 646.7,286.0 649.4,286.0 652.2,286.0 654.9,286.0 657.7,286.0 660.4,280.0 663.2,286.0 665.9,286.0 668.7,286.0 671.4,286.0 674.1,286.0 676.9,286.0 679.6,286.0 682.4,286.0 685.1,286.0 687.9,286.0 690.6,286.0 693.4,286.0 696.1,286.0 698.9,286.0 701.6,286.0 704.4,286.0 707.1,286.0 709.9,286.0 712.6,286.0 715.4,286.0 718.1,286.0 720.9,286.0 723.6,286.0 726.4,286.0 729.1,286.0 731.9,286.0 734.6,286.0 737.4,286.0 740.1,280.0 742.9,286.0 745.6,286.0 748.4,286.0 751.1,286.0 753.9,286.0 756.6,286.0 759.3,280.0 762.1,286.0 764.8,286.0 767.6,286.0 770.3,286.0 773.1,286.0 775.8,286.0 778.6,286.0 781.3,286.0 784.1,286.0 786.8,286.0 789.6,286.0 792.3,286.0 795.1,286.0 797.8,286.0 800.6,286.0 803.3,286.0 806.1,280.0 808.8,286.0 811.6,286.0 814.3,286.0 817.1,286.0 819.8,286.0 822.6,286.0 825.3,286.0 828.1,286.0 830.8,286.0 833.6,286.0 836.3,286.0 839.1,286.0 841.8,286.0 844.6,286.0 847.3,286.0 850.0,286.0 852.8,286.0 855.5,286.0 858.3,286.0 861.0,286.0 863.8,286.0 866.5,286.0 869.3,286.0 872.0,286.0 874.8,286.0 877.5,286.0 880.3,286.0 883.0,286.0 885.8,286.0 888.5,286.0 891.3,286.0 894.0,286.0 896.8,286.0 899.5,286.0 902.3,286.0 905.0,286.0 907.8,274.0 910.5,286.0 913.3,286.0 916.0,286.0 918.8,286.0 921.5,286.0 924.3,286.0 927.0,286.0 929.8,286.0 932.5,286.0 935.3,286.0 938.0,286.0"/><text x="42" y="308" font-size="11" fill="#9fb0d4">19/06 12:43</text><text x="938" y="308" text-anchor="end" font-size="11" fill="#9fb0d4">07/07 12:33</text></svg>