<svg xmlns="http://www.w3.org/2000/svg" viewBox="0 0 960 320" width="960" height="320" font-family="Segoe UI, system-ui, -apple-system, Roboto, Helvetica, Arial, sans-serif" role="img" aria-label="Availability history per region"><rect x="0.5" y="0.5" width="959" height="319" rx="14" fill="#ffffff" stroke="#dce3f1"/><text x="42" y="26" font-size="14" font-weight="600" fill="#14203a">History · 302 points</text><circle cx="47" cy="40" r="5" fill="#22c55e"/><text x="57" y="44" font-size="12" fill="#5a688a">Available</text><circle cx="139.8" cy="40" r="5" fill="#f59e0b"/><text x="149.8" y="44" font-size="12" fill="#5a688a">Saturated</text><circle cx="232.60000000000002" cy="40" r="5" fill="#ef4444"/><text x="242.60000000000002" y="44" font-size="12" fill="#5a688a">Error</text><circle cx="296.6" cy="40" r="5" fill="#a855f7"/><text x="306.6" y="44" font-size="12" fill="#5a688a">Timeout</text><line x1="42" y1="286.0" x2="938" y2="286.0" stroke="#eef2f7" stroke-width="1"/><text x="35" y="289.0" text-anchor="end" font-size="11" fill="#5a688a">0</text><line x1="42" y1="227.5" x2="938" y2="227.5" stroke="#eef2f7" stroke-width="1"/><text x="35" y="230.5" text-anchor="end" font-size="11" fill="#5a688a">10</text><line x1="42" y1="169.0" x2="938" y2="169.0" stroke="#eef2f7" stroke-width="1"/><text x="35" y="172.0" text-anchor="end" font-size="11" fill="#5a688a">20</text><line x1="42" y1="110.5" x2="938" y2="110.5" stroke="#eef2f7" stroke-width="1"/><text x="35" y="113.5" text-anchor="end" font-size="11" fill="#5a688a">29</text><line x1="42" y1="52.0" x2="938" y2="52.0" stroke="#eef2f7" stroke-width="1"/><text x="35" y="55.0" text-anchor="end" font-size="11" fill="#5a688a">39</text><polyline fill="none" stroke="#22c55e" stroke-width="2.5" stroke-linejoin="round" stroke-linecap="round" points="42.0,70.0 45.0,70.0 48.0,88.0 50.9,88.0 53.9,76.0 56.9,76.0 59.9,76.0 62.8,70.0 65.8,76.0 68.8,70.0 71.8,64.0 74.7,58.0 77.7,58.0 80.7,58.0 83.7,58.0 86.7,58.0 89.6,58.0 92.6,58.0 95.6,58.0 98.6,58.0 101.5,58.0 104.5,58.0 107.5,58.0 110.5,58.0 113.4,58.0 116.4,58.0 119.4,58.0 122.4,58.0 125.3,58.0 128.3,58.0 131.3,58.0 134.3,70.0 137.3,76.0 140.2,94.0 143.2,64.0 146.2,64.0 149.2,58.0 152.1,58.0 155.1,58.0 158.1,70.0 161.1,76.0 164.0,76.0 167.0,82.0 170.0,82.0 173.0,82.0 176.0,82.0 178.9,76.0 181.9,64.0 184.9,70.0 187.9,70.0 190.8,82.0 193.8,76.0 196.8,76.0 199.8,82.0 202.7,76.0 205.7,76.0 208.7,76.0 211.7,64.0 214.7,64.0 217.6,76.0 220.6,76.0 223.6,76.0 226.6,88.0 229.5,70.0 232.5,64.0 235.5,58.0 238.5,58.0 241.4,70.0 244.4,70.0 247.4,70.0 250.4,76.0 253.3,70.0 256.3,70.0 259.3,70.0 262.3,70.0 265.3,76.0 268.2,82.0 271.2,76.0 274.2,70.0 277.2,70.0 280.1,70.0 283.1,70.0 286.1,76.0 289.1,70.0 292.0,70.0 295.0,70.0 298.0,70.0 301.0,70.0 304.0,70.0 306.9,70.0 309.9,70.0 312.9,70.0 315.9,70.0 318.8,70.0 321.8,70.0 324.8,70.0 327.8,70.0 330.7,70.0 333.7,70.0 336.7,70.0 339.7,70.0 342.7,70.0 345.6,70.0 348.6,70.0 351.6,70.0 354.6,70.0 357.5,70.0 360.5,70.0 363.5,70.0 366.5,70.0 369.4,70.0 372.4,70.0 375.4,70.0 378.4,70.0 381.3,70.0 384.3,70.0 387.3,70.0 390.3,70.0 393.3,70.0 396.2,70.0 399.2,70.0 402.2,70.0 405.2,70.0 408.1,70.0 411.1,70.0 414.1,70.0 417.1,70.0 420.0,70.0 423.0,70.0 426.0,70.0 429.0,70.0 432.0,70.0 434.9,70.0 437.9,70.0 440.9,70.0 443.9,70.0 446.8,70.0 449.8,70.0 452.8,70.0 455.8,70.0 458.7,70.0 461.7,70.0 464.7,70.0 467.7,70.0 470.7,70.0 473.6,70.0 476.6,70.0 479.6,70.0 482.6,70.0 485.5,70.0 488.5,70.0 491.5,76.0 494.5,70.0 497.4,70.0 500.4,70.0 503.4,70.0 506.4,70.0 509.3,76.0 512.3,76.0 515.3,88.0 518.3,88.0 521.3,88.0 524.2,94.0 527.2,94.0 530.2,94.0 533.2,94.0 536.1,88.0 539.1,88.0 542.1,82.0 545.1,82.0 548.0,82.0 551.0,88.0 554.0,88.0 557.0,94.0 560.0,82.0 562.9,82.0 565.9,82.0 568.9,82.0 571.9,88.0 574.8,88.0 577.8,94.0 580.8,94.0 583.8,88.0 586.7,88.0 589.7,88.0 592.7,94.0 595.7,94.0 598.7,106.0 601.6,94.0 604.6,94.0 607.6,94.0 610.6,94.0 613.5,88.0 616.5,88.0 619.5,82.0 622.5,76.0 625.4,76.0 628.4,76.0 631.4,76.0 634.4,76.0 637.3,76.0 640.3,70.0 643.3,70.0 646.3,70.0 649.3,76.0 652.2,88.0 655.2,82.0 658.2,70.0 661.2,70.0 664.1,70.0 667.1,76.0 670.1,76.0 673.1,76.0 676.0,82.0 679.0,70.0 682.0,76.0 685.0,64.0 688.0,70.0 690.9,58.0 693.9,58.0 696.9,58.0 699.9,58.0 702.8,58.0 705.8,64.0 708.8,58.0 711.8,64.0 714.7,58.0 717.7,58.0 720.7,58.0 723.7,58.0 726.7,64.0 729.6,64.0 732.6,64.0 735.6,76.0 738.6,70.0 741.5,82.0 744.5,70.0 747.5,76.0 750.5,58.0 753.4,64.0 756.4,58.0 759.4,64.0 762.4,58.0 765.3,58.0 768.3,58.0 771.3,64.0 774.3,70.0 777.3,64.0 780.2,64.0 783.2,64.0 786.2,70.0 789.2,70.0 792.1,64.0 795.1,70.0 798.1,70.0 801.1,70.0 804.0,58.0 807.0,58.0 810.0,58.0 813.0,58.0 816.0,58.0 818.9,64.0 821.9,58.0 824.9,58.0 827.9,58.0 830.8,58.0 833.8,58.0 836.8,58.0 839.8,58.0 842.7,58.0 845.7,64.0 848.7,58.0 851.7,58.0 854.7,58.0 857.6,58.0 860.6,58.0 863.6,58.0 866.6,58.0 869.5,64.0 872.5,58.0 875.5,58.0 878.5,58.0 881.4,58.0 884.4,58.0 887.4,58.0 890.4,58.0 893.3,58.0 896.3,58.0 899.3,58.0 902.3,58.0 905.3,58.0 908.2,58.0 911.2,58.0 914.2,58.0 917.2,58.0 920.1,58.0 923.1,58.0 926.1,58.0 929.1,64.0 932.0,64.0 935.0,58.0 938.0,58.0"/><polyline fill="none" stroke="#f59e0b" stroke-width="2.5" stroke-linejoin="round" stroke-linecap="round" points="42.0,274.0 45.0,274.0 48.0,274.0 50.9,280.0 53.9,268.0 56.9,268.0 59.9,268.0 62.8,274.0 65.8,274.0 68.8,274.0 71.8,280.0 74.7,286.0 77.7,286.0 80.7,286.0 83.7,286.0 86.7,286.0 89.6,286.0 92.6,286.0 95.6,286.0 98.6,286.0 101.5,286.0 104.5,286.0 107.5,286.0 110.5,286.0 113.4,286.0 116.4,286.0 119.4,286.0 122.4,286.0 125.3,286.0 128.3,286.0 131.3,286.0 134.3,274.0 137.3,280.0 140.2,280.0 143.2,280.0 146.2,280.0 149.2,286.0 152.1,286.0 155.1,286.0 158.1,274.0 161.1,268.0 164.0,268.0 167.0,262.0 170.0,262.0 173.0,262.0 176.0,262.0 178.9,268.0 181.9,280.0 184.9,280.0 187.9,274.0 190.8,262.0 193.8,268.0 196.8,268.0 199.8,262.0 202.7,268.0 205.7,268.0 208.7,268.0 211.7,280.0 214.7,280.0 217.6,268.0 220.6,268.0 223.6,268.0 226.6,262.0 229.5,274.0 232.5,280.0 235.5,286.0 238.5,286.0 241.4,274.0 244.4,274.0 247.4,274.0 250.4,274.0 253.3,274.0 256.3,274.0 259.3,274.0 262.3,274.0 265.3,280.0 268.2,274.0 271.2,280.0 274.2,286.0 277.2,286.0 280.1,286.0 283.1,286.0 286.1,280.0 289.1,286.0 292.0,286.0 295.0,286.0 298.0,286.0 301.0,286.0 304.0,286.0 306.9,286.0 309.9,286.0 312.9,286.0 315.9,286.0 318.8,286.0 321.8,286.0 324.8,286.0 327.8,286.0 330.7,286.0 333.7,286.0 336.7,286.0 339.7,286.0 342.7,286.0 345.6,286.0 348.6,286.0 351.6,286.0 354.6,286.0 357.5,286.0 360.5,286.0 363.5,286.0 366.5,286.0 369.4,286.0 372.4,286.0 375.4,286.0 378.4,286.0 381.3,286.0 384.3,286.0 387.3,286.0 390.3,286.0 393.3,286.0 396.2,286.0 399.2,286.0 402.2,286.0 405.2,286.0 408.1,286.0 411.1,286.0 414.1,286.0 417.1,286.0 420.0,286.0 423.0,286.0 426.0,286.0 429.0,286.0 432.0,286.0 434.9,286.0 437.9,286.0 440.9,286.0 443.9,286.0 446.8,286.0 449.8,286.0 452.8,286.0 455.8,286.0 458.7,286.0 461.7,286.0 464.7,286.0 467.7,286.0 470.7,286.0 473.6,286.0 476.6,286.0 479.6,286.0 482.6,286.0 485.5,286.0 488.5,286.0 491.5,286.0 494.5,286.0 497.4,286.0 500.4,286.0 503.4,286.0 506.4,286.0 509.3,286.0 512.3,280.0 515.3,268.0 518.3,268.0 521.3,268.0 524.2,268.0 527.2,262.0 530.2,262.0 533.2,262.0 536.1,268.0 539.1,268.0 542.1,274.0 545.1,274.0 548.0,274.0 551.0,268.0 554.0,268.0 557.0,268.0 560.0,274.0 562.9,274.0 565.9,274.0 568.9,274.0 571.9,268.0 574.8,268.0 577.8,262.0 580.8,262.0 583.8,268.0 586.7,268.0 589.7,268.0 592.7,262.0 595.7,262.0 598.7,274.0 601.6,262.0 604.6,262.0 607.6,262.0 610.6,262.0 613.5,268.0 616.5,268.0 619.5,274.0 622.5,280.0 625.4,280.0 628.4,280.0 631.4,280.0 634.4,280.0 637.3,280.0 640.3,286.0 643.3,286.0 646.3,286.0 649.3,280.0 652.2,274.0 655.2,274.0 658.2,280.0 661.2,274.0 664.1,274.0 667.1,268.0 670.1,268.0 673.1,268.0 676.0,268.0 679.0,280.0 682.0,274.0 685.0,280.0 688.0,280.0 690.9,286.0 693.9,286.0 696.9,286.0 699.9,286.0 702.8,286.0 705.8,286.0 708.8,286.0 711.8,286.0 714.7,286.0 717.7,286.0 720.7,286.0 723.7,286.0 726.7,280.0 729.6,280.0 732.6,280.0 735.6,268.0 738.6,280.0 741.5,268.0 744.5,274.0 747.5,274.0 750.5,286.0 753.4,280.0 756.4,286.0 759.4,280.0 762.4,286.0 765.3,286.0 768.3,286.0 771.3,280.0 774.3,274.0 777.3,280.0 780.2,280.0 783.2,280.0 786.2,274.0 789.2,274.0 792.1,280.0 795.1,280.0 798.1,280.0 801.1,280.0 804.0,286.0 807.0,286.0 810.0,286.0 813.0,286.0 816.0,286.0 818.9,286.0 821.9,286.0 824.9,286.0 827.9,286.0 830.8,286.0 833.8,286.0 836.8,286.0 839.8,286.0 842.7,286.0 845.7,286.0 848.7,286.0 851.7,286.0 854.7,286.0 857.6,286.0 860.6,286.0 863.6,286.0 866.6,286.0 869.5,286.0 872.5,286.0 875.5,286.0 878.5,286.0 881.4,286.0 884.4,286.0 887.4,286.0 890.4,286.0 893.3,286.0 896.3,286.0 899.3,286.0 902.3,286.0 905.3,286.0 908.2,286.0 911.2,286.0 914.2,286.0 917.2,286.0 920.1,286.0 923.1,286.0 926.1,286.0 929.1,286.0 932.0,286.0 935.0,286.0 938.0,286.0"/><polyline fill="none" stroke="#ef4444" stroke-width="2.5" stroke-linejoin="round" stroke-linecap="round" points="42.0,280.0 45.0,280.0 48.0,268.0 50.9,262.0 53.9,286.0 56.9,286.0 59.9,286.0 62.8,286.0 65.8,280.0 68.8,286.0 71.8,286.0 74.7,286.0 77.7,286.0 80.7,286.0 83.7,286.0 86.7,286.0 89.6,286.0 92.6,286.0 95.6,286.0 98.6,286.0 101.5,286.0 104.5,286.0 107.5,286.0 110.5,286.0 113.4,286.0 116.4,286.0 119.4,286.0 122.4,286.0 125.3,286.0 128.3,286.0 131.3,286.0 134.3,286.0 137.3,274.0 140.2,256.0 143.2,286.0 146.2,286.0 149.2,286.0 152.1,286.0 155.1,286.0 158.1,286.0 161.1,286.0 164.0,286.0 167.0,286.0 170.0,286.0 173.0,286.0 176.0,286.0 178.9,286.0 181.9,286.0 184.9,280.0 187.9,286.0 190.8,286.0 193.8,286.0 196.8,286.0 199.8,286.0 202.7,286.0 205.7,286.0 208.7,286.0 211.7,286.0 214.7,286.0 217.6,286.0 220.6,286.0 223.6,286.0 226.6,280.0 229.5,286.0 232.5,286.0 235.5,286.0 238.5,286.0 241.4,286.0 244.4,286.0 247.4,286.0 250.4,286.0 253.3,286.0 256.3,286.0 259.3,286.0 262.3,286.0 265.3,274.0 268.2,274.0 271.2,274.0 274.2,274.0 277.2,274.0 280.1,274.0 283.1,274.0 286.1,274.0 289.1,274.0 292.0,274.0 295.0,274.0 298.0,274.0 301.0,274.0 304.0,274.0 306.9,274.0 309.9,274.0 312.9,274.0 315.9,274.0 318.8,274.0 321.8,274.0 324.8,274.0 327.8,274.0 330.7,274.0 333.7,274.0 336.7,274.0 339.7,274.0 342.7,274.0 345.6,274.0 348.6,274.0 351.6,274.0 354.6,274.0 357.5,274.0 360.5,274.0 363.5,274.0 366.5,274.0 369.4,274.0 372.4,274.0 375.4,274.0 378.4,274.0 381.3,274.0 384.3,274.0 387.3,274.0 390.3,274.0 393.3,274.0 396.2,274.0 399.2,274.0 402.2,274.0 405.2,274.0 408.1,274.0 411.1,274.0 414.1,274.0 417.1,274.0 420.0,274.0 423.0,274.0 426.0,274.0 429.0,274.0 432.0,274.0 434.9,274.0 437.9,274.0 440.9,274.0 443.9,274.0 446.8,274.0 449.8,274.0 452.8,274.0 455.8,274.0 458.7,274.0 461.7,274.0 464.7,274.0 467.7,274.0 470.7,274.0 473.6,274.0 476.6,274.0 479.6,274.0 482.6,274.0 485.5,274.0 488.5,274.0 491.5,268.0 494.5,274.0 497.4,274.0 500.4,274.0 503.4,274.0 506.4,274.0 509.3,274.0 512.3,274.0 515.3,274.0 518.3,274.0 521.3,274.0 524.2,268.0 527.2,274.0 530.2,274.0 533.2,274.0 536.1,274.0 539.1,274.0 542.1,274.0 545.1,274.0 548.0,274.0 551.0,274.0 554.0,274.0 557.0,268.0 560.0,274.0 562.9,274.0 565.9,274.0 568.9,274.0 571.9,274.0 574.8,274.0 577.8,274.0 580.8,274.0 583.8,274.0 586.7,274.0 589.7,274.0 592.7,274.0 595.7,274.0 598.7,250.0 601.6,274.0 604.6,274.0 607.6,274.0 610.6,274.0 613.5,274.0 616.5,274.0 619.5,274.0 622.5,274.0 625.4,274.0 628.4,274.0 631.4,274.0 634.4,274.0 637.3,274.0 640.3,274.0 643.3,274.0 646.3,274.0 649.3,274.0 652.2,268.0 655.2,274.0 658.2,280.0 661.2,286.0 664.1,286.0 667.1,286.0 670.1,286.0 673.1,286.0 676.0,280.0 679.0,280.0 682.0,286.0 685.0,286.0 688.0,280.0 690.9,286.0 693.9,286.0 696.9,286.0 699.9,286.0 702.8,286.0 705.8,280.0 708.8,286.0 711.8,286.0 714.7,286.0 717.7,286.0 720.7,286.0 723.7,286.0 726.7,286.0 729.6,286.0 732.6,286.0 735.6,286.0 738.6,280.0 741.5,280.0 744.5,286.0 747.5,280.0 750.5,286.0 753.4,286.0 756.4,286.0 759.4,286.0 762.4,286.0 765.3,286.0 768.3,286.0 771.3,286.0 774.3,286.0 777.3,286.0 780.2,286.0 783.2,286.0 786.2,286.0 789.2,286.0 792.1,286.0 795.1,280.0 798.1,286.0 801.1,280.0 804.0,286.0 807.0,286.0 810.0,286.0 813.0,286.0 816.0,286.0 818.9,286.0 821.9,286.0 824.9,286.0 827.9,286.0 830.8,286.0 833.8,286.0 836.8,286.0 839.8,286.0 842.7,286.0 845.7,280.0 848.7,286.0 851.7,286.0 854.7,286.0 857.6,286.0 860.6,286.0 863.6,286.0 866.6,286.0 869.5,286.0 872.5,286.0 875.5,286.0 878.5,286.0 881.4,286.0 884.4,286.0 887.4,286.0 890.4,286.0 893.3,286.0 896.3,286.0 899.3,286.0 902.3,286.0 905.3,286.0 908.2,286.0 911.2,286.0 914.2,286.0 917.2,286.0 920.1,286.0 923.1,286.0 926.1,286.0 929.1,280.0 932.0,280.0 935.0,286.0 938.0,286.0"/><polyline fill="none" stroke="#a855f7" stroke-width="2.5" stroke-linejoin="round" stroke-linecap="round" points="42.0,286.0 45.0,286.0 48.0,286.0 50.9,286.0 53.9,286.0 56.9,286.0 59.9,286.0 62.8,286.0 65.8,286.0 68.8,286.0 71.8,286.0 74.7,286.0 77.7,286.0 80.7,286.0 83.7,286.0 86.7,286.0 89.6,286.0 92.6,286.0 95.6,286.0 98.6,286.0 101.5,286.0 104.5,286.0 107.5,286.0 110.5,286.0 113.4,286.0 116.4,286.0 119.4,286.0 122.4,286.0 125.3,286.0 128.3,286.0 131.3,286.0 134.3,286.0 137.3,286.0 140.2,286.0 143.2,286.0 146.2,286.0 149.2,286.0 152.1,286.0 155.1,286.0 158.1,286.0 161.1,286.0 164.0,286.0 167.0,286.0 170.0,286.0 173.0,286.0 176.0,286.0 178.9,286.0 181.9,286.0 184.9,286.0 187.9,286.0 190.8,286.0 193.8,286.0 196.8,286.0 199.8,286.0 202.7,286.0 205.7,286.0 208.7,286.0 211.7,286.0 214.7,286.0 217.6,286.0 220.6,286.0 223.6,286.0 226.6,286.0 229.5,286.0 232.5,286.0 235.5,286.0 238.5,286.0 241.4,286.0 244.4,286.0 247.4,286.0 250.4,280.0 253.3,286.0 256.3,286.0 259.3,286.0 262.3,286.0 265.3,286.0 268.2,286.0 271.2,286.0 274.2,286.0 277.2,286.0 280.1,286.0 283.1,286.0 286.1,286.0 289.1,286.0 292.0,286.0 295.0,286.0 298.0,286.0 301.0,286.0 304.0,286.0 306.9,286.0 309.9,286.0 312.9,286.0 315.9,286.0 318.8,286.0 321.8,286.0 324.8,286.0 327.8,286.0 330.7,286.0 333.7,286.0 336.7,286.0 339.7,286.0 342.7,286.0 345.6,286.0 348.6,286.0 351.6,286.0 354.6,286.0 357.5,286.0 360.5,286.0 363.5,286.0 366.5,286.0 369.4,286.0 372.4,286.0 375.4,286.0 378.4,286.0 381.3,286.0 384.3,286.0 387.3,286.0 390.3,286.0 393.3,286.0 396.2,286.0 399.2,286.0 402.2,286.0 405.2,286.0 408.1,286.0 411.1,286.0 414.1,286.0 417.1,286.0 420.0,286.0 423.0,286.0 426.0,286.0 429.0,286.0 432.0,286.0 434.9,286.0 437.9,286.0 440.9,286.0 443.9,286.0 446.8,286.0 449.8,286.0 452.8,286.0 455.8,286.0 458.7,286.0 461.7,286.0 464.7,286.0 467.7,286.0 470.7,286.0 473.6,286.0 476.6,286.0 479.6,286.0 482.6,286.0 485.5,286.0 488.5,286.0 491.5,286.0 494.5,286.0 497.4,286.0 500.4,286.0 503.4,286.0 506.4,286.0 509.3,280.0 512.3,286.0 515.3,286.0 518.3,286.0 521.3,286.0 524.2,286.0 527.2,286.0 530.2,286.0 533.2,286.0 536.1,286.0 539.1,286.0 542.1,286.0 545.1,286.0 548.0,286.0 551.0,286.0 554.0,286.0 557.0,286.0 560.0,286.0 562.9,286.0 565.9,286.0 568.9,286.0 571.9,286.0 574.8,286.0 577.8,286.0 580.8,286.0 583.8,286.0 586.7,286.0 589.7,286.0 592.7,286.0 595.7,286.0 598.7,286.0 601.6,286.0 604.6,286.0 607.6,286.0 610.6,286.0 613.5,286.0 616.5,286.0 619.5,286.0 622.5,286.0 625.4,286.0 628.4,286.0 631.4,286.0 634.4,286.0 637.3,286.0 640.3,286.0 643.3,286.0 646.3,286.0 649.3,286.0 652.2,286.0 655.2,286.0 658.2,286.0 661.2,286.0 664.1,286.0 667.1,286.0 670.1,286.0 673.1,286.0 676.0,286.0 679.0,286.0 682.0,280.0 685.0,286.0 688.0,286.0 690.9,286.0 693.9,286.0 696.9,286.0 699.9,286.0 702.8,286.0 705.8,286.0 708.8,286.0 711.8,280.0 714.7,286.0 717.7,286.0 720.7,286.0 723.7,286.0 726.7,286.0 729.6,286.0 732.6,286.0 735.6,286.0 738.6,286.0 741.5,286.0 744.5,286.0 747.5,286.0 750.5,286.0 753.4,286.0 756.4,286.0 759.4,286.0 762.4,286.0 765.3,286.0 768.3,286.0 771.3,286.0 774.3,286.0 777.3,286.0 780.2,286.0 783.2,286.0 786.2,286.0 789.2,286.0 792.1,286.0 795.1,286.0 798.1,280.0 801.1,286.0 804.0,286.0 807.0,286.0 810.0,286.0 813.0,286.0 816.0,286.0 818.9,280.0 821.9,286.0 824.9,286.0 827.9,286.0 830.8,286.0 833.8,286.0 836.8,286.0 839.8,286.0 842.7,286.0 845.7,286.0 848.7,286.0 851.7,286.0 854.7,286.0 857.6,286.0 860.6,286.0 863.6,286.0 866.6,286.0 869.5,280.0 872.5,286.0 875.5,286.0 878.5,286.0 881.4,286.0 884.4,286.0 887.4,286.0 890.4,286.0 893.3,286.0 896.3,286.0 899.3,286.0 902.3,286.0 905.3,286.0 908.2,286.0 911.2,286.0 914.2,286.0 917.2,286.0 920.1,286.0 923.1,286.0 926.1,286.0 929.1,286.0 932.0,286.0 935.0,286.0 938.0,286.0"/><text x="42" y="308" font-size="11" fill="#5a688a">19/06 12:43</text><text x="938" y="308" text-anchor="end" font-size="11" fill="#5a688a">06/07 07:29</text></svg>