<svg xmlns="http://www.w3.org/2000/svg" viewBox="0 0 960 320" width="960" height="320" font-family="Segoe UI, system-ui, -apple-system, Roboto, Helvetica, Arial, sans-serif" role="img" aria-label="Availability history per region"><rect x="0.5" y="0.5" width="959" height="319" rx="14" fill="#ffffff" stroke="#dce3f1"/><text x="42" y="26" font-size="14" font-weight="600" fill="#14203a">History · 336 points</text><circle cx="47" cy="40" r="5" fill="#22c55e"/><text x="57" y="44" font-size="12" fill="#5a688a">Available</text><circle cx="139.8" cy="40" r="5" fill="#f59e0b"/><text x="149.8" y="44" font-size="12" fill="#5a688a">Saturated</text><circle cx="232.60000000000002" cy="40" r="5" fill="#ef4444"/><text x="242.60000000000002" y="44" font-size="12" fill="#5a688a">Error</text><circle cx="296.6" cy="40" r="5" fill="#a855f7"/><text x="306.6" y="44" font-size="12" fill="#5a688a">Timeout</text><line x1="42" y1="286.0" x2="938" y2="286.0" stroke="#eef2f7" stroke-width="1"/><text x="35" y="289.0" text-anchor="end" font-size="11" fill="#5a688a">0</text><line x1="42" y1="227.5" x2="938" y2="227.5" stroke="#eef2f7" stroke-width="1"/><text x="35" y="230.5" text-anchor="end" font-size="11" fill="#5a688a">10</text><line x1="42" y1="169.0" x2="938" y2="169.0" stroke="#eef2f7" stroke-width="1"/><text x="35" y="172.0" text-anchor="end" font-size="11" fill="#5a688a">19</text><line x1="42" y1="110.5" x2="938" y2="110.5" stroke="#eef2f7" stroke-width="1"/><text x="35" y="113.5" text-anchor="end" font-size="11" fill="#5a688a">28</text><line x1="42" y1="52.0" x2="938" y2="52.0" stroke="#eef2f7" stroke-width="1"/><text x="35" y="55.0" text-anchor="end" font-size="11" fill="#5a688a">38</text><polyline fill="none" stroke="#22c55e" stroke-width="2.5" stroke-linejoin="round" stroke-linecap="round" points="42.0,64.3 44.7,64.3 47.3,64.3 50.0,64.3 52.7,64.3 55.4,64.3 58.0,64.3 60.7,64.3 63.4,64.3 66.1,64.3 68.7,64.3 71.4,64.3 74.1,64.3 76.8,64.3 79.4,64.3 82.1,64.3 84.8,64.3 87.5,64.3 90.1,64.3 92.8,64.3 95.5,64.3 98.2,64.3 100.8,64.3 103.5,64.3 106.2,64.3 108.9,64.3 111.5,64.3 114.2,64.3 116.9,64.3 119.6,64.3 122.2,64.3 124.9,64.3 127.6,70.5 130.3,64.3 132.9,64.3 135.6,64.3 138.3,64.3 141.0,64.3 143.6,70.5 146.3,70.5 149.0,82.8 151.7,82.8 154.3,82.8 157.0,88.9 159.7,88.9 162.4,88.9 165.0,88.9 167.7,82.8 170.4,82.8 173.1,76.6 175.7,76.6 178.4,76.6 181.1,82.8 183.8,82.8 186.4,88.9 189.1,76.6 191.8,76.6 194.5,76.6 197.1,76.6 199.8,82.8 202.5,82.8 205.2,88.9 207.8,88.9 210.5,82.8 213.2,82.8 215.9,82.8 218.5,88.9 221.2,88.9 223.9,101.3 226.5,88.9 229.2,88.9 231.9,88.9 234.6,88.9 237.2,82.8 239.9,82.8 242.6,76.6 245.3,70.5 247.9,70.5 250.6,70.5 253.3,70.5 256.0,70.5 258.6,70.5 261.3,64.3 264.0,64.3 266.7,64.3 269.3,70.5 272.0,82.8 274.7,76.6 277.4,64.3 280.0,64.3 282.7,64.3 285.4,70.5 288.1,70.5 290.7,70.5 293.4,76.6 296.1,64.3 298.8,70.5 301.4,58.2 304.1,64.3 306.8,52.0 309.5,52.0 312.1,52.0 314.8,52.0 317.5,52.0 320.2,58.2 322.8,52.0 325.5,58.2 328.2,52.0 330.9,52.0 333.5,52.0 336.2,52.0 338.9,58.2 341.6,58.2 344.2,58.2 346.9,70.5 349.6,64.3 352.3,76.6 354.9,64.3 357.6,70.5 360.3,52.0 363.0,58.2 365.6,52.0 368.3,58.2 371.0,52.0 373.7,52.0 376.3,52.0 379.0,58.2 381.7,64.3 384.4,58.2 387.0,58.2 389.7,58.2 392.4,64.3 395.1,64.3 397.7,58.2 400.4,64.3 403.1,64.3 405.7,64.3 408.4,52.0 411.1,52.0 413.8,52.0 416.4,52.0 419.1,52.0 421.8,58.2 424.5,52.0 427.1,52.0 429.8,52.0 432.5,52.0 435.2,52.0 437.8,52.0 440.5,52.0 443.2,52.0 445.9,58.2 448.5,52.0 451.2,52.0 453.9,52.0 456.6,52.0 459.2,52.0 461.9,52.0 464.6,52.0 467.3,58.2 469.9,52.0 472.6,52.0 475.3,52.0 478.0,52.0 480.6,52.0 483.3,52.0 486.0,52.0 488.7,52.0 491.3,52.0 494.0,52.0 496.7,52.0 499.4,52.0 502.0,52.0 504.7,52.0 507.4,52.0 510.1,52.0 512.7,52.0 515.4,52.0 518.1,52.0 520.8,58.2 523.4,58.2 526.1,52.0 528.8,52.0 531.5,52.0 534.1,58.2 536.8,58.2 539.5,70.5 542.2,58.2 544.8,58.2 547.5,64.3 550.2,52.0 552.9,52.0 555.5,52.0 558.2,52.0 560.9,52.0 563.6,52.0 566.2,64.3 568.9,58.2 571.6,58.2 574.3,58.2 576.9,58.2 579.6,64.3 582.3,64.3 584.9,70.5 587.6,70.5 590.3,76.6 593.0,82.8 595.6,76.6 598.3,76.6 601.0,82.8 603.7,76.6 606.3,70.5 609.0,70.5 611.7,64.3 614.4,58.2 617.0,58.2 619.7,70.5 622.4,70.5 625.1,64.3 627.7,70.5 630.4,64.3 633.1,64.3 635.8,64.3 638.4,76.6 641.1,64.3 643.8,70.5 646.5,64.3 649.1,70.5 651.8,64.3 654.5,70.5 657.2,64.3 659.8,64.3 662.5,76.6 665.2,70.5 667.9,70.5 670.5,70.5 673.2,70.5 675.9,70.5 678.6,64.3 681.2,70.5 683.9,64.3 686.6,64.3 689.3,64.3 691.9,70.5 694.6,70.5 697.3,70.5 700.0,64.3 702.6,64.3 705.3,64.3 708.0,64.3 710.7,70.5 713.3,70.5 716.0,70.5 718.7,76.6 721.4,70.5 724.0,76.6 726.7,76.6 729.4,76.6 732.1,82.8 734.7,76.6 737.4,76.6 740.1,76.6 742.8,70.5 745.4,70.5 748.1,70.5 750.8,70.5 753.5,70.5 756.1,64.3 758.8,64.3 761.5,64.3 764.1,70.5 766.8,76.6 769.5,64.3 772.2,64.3 774.8,64.3 777.5,70.5 780.2,70.5 782.9,70.5 785.5,76.6 788.2,76.6 790.9,76.6 793.6,82.8 796.2,88.9 798.9,82.8 801.6,82.8 804.3,76.6 806.9,70.5 809.6,76.6 812.3,82.8 815.0,76.6 817.6,70.5 820.3,70.5 823.0,64.3 825.7,64.3 828.3,64.3 831.0,64.3 833.7,64.3 836.4,64.3 839.0,64.3 841.7,64.3 844.4,64.3 847.1,64.3 849.7,64.3 852.4,64.3 855.1,64.3 857.8,58.2 860.4,70.5 863.1,64.3 865.8,58.2 868.5,64.3 871.1,64.3 873.8,64.3 876.5,64.3 879.2,64.3 881.8,58.2 884.5,58.2 887.2,58.2 889.9,58.2 892.5,58.2 895.2,64.3 897.9,58.2 900.6,58.2 903.2,58.2 905.9,58.2 908.6,58.2 911.3,58.2 913.9,64.3 916.6,64.3 919.3,58.2 922.0,58.2 924.6,58.2 927.3,64.3 930.0,58.2 932.7,58.2 935.3,58.2 938.0,58.2"/><polyline fill="none" stroke="#f59e0b" stroke-width="2.5" stroke-linejoin="round" stroke-linecap="round" points="42.0,286.0 44.7,286.0 47.3,286.0 50.0,286.0 52.7,286.0 55.4,286.0 58.0,286.0 60.7,286.0 63.4,286.0 66.1,286.0 68.7,286.0 71.4,286.0 74.1,286.0 76.8,286.0 79.4,286.0 82.1,286.0 84.8,286.0 87.5,286.0 90.1,286.0 92.8,286.0 95.5,286.0 98.2,286.0 100.8,286.0 103.5,286.0 106.2,286.0 108.9,286.0 111.5,286.0 114.2,286.0 116.9,286.0 119.6,286.0 122.2,286.0 124.9,286.0 127.6,286.0 130.3,286.0 132.9,286.0 135.6,286.0 138.3,286.0 141.0,286.0 143.6,286.0 146.3,279.8 149.0,267.5 151.7,267.5 154.3,267.5 157.0,267.5 159.7,261.4 162.4,261.4 165.0,261.4 167.7,267.5 170.4,267.5 173.1,273.7 175.7,273.7 178.4,273.7 181.1,267.5 183.8,267.5 186.4,267.5 189.1,273.7 191.8,273.7 194.5,273.7 197.1,273.7 199.8,267.5 202.5,267.5 205.2,261.4 207.8,261.4 210.5,267.5 213.2,267.5 215.9,267.5 218.5,261.4 221.2,261.4 223.9,273.7 226.5,261.4 229.2,261.4 231.9,261.4 234.6,261.4 237.2,267.5 239.9,267.5 242.6,273.7 245.3,279.8 247.9,279.8 250.6,279.8 253.3,279.8 256.0,279.8 258.6,279.8 261.3,286.0 264.0,286.0 266.7,286.0 269.3,279.8 272.0,273.7 274.7,273.7 277.4,279.8 280.0,273.7 282.7,273.7 285.4,267.5 288.1,267.5 290.7,267.5 293.4,267.5 296.1,279.8 298.8,273.7 301.4,279.8 304.1,279.8 306.8,286.0 309.5,286.0 312.1,286.0 314.8,286.0 317.5,286.0 320.2,286.0 322.8,286.0 325.5,286.0 328.2,286.0 330.9,286.0 333.5,286.0 336.2,286.0 338.9,279.8 341.6,279.8 344.2,279.8 346.9,267.5 349.6,279.8 352.3,267.5 354.9,273.7 357.6,273.7 360.3,286.0 363.0,279.8 365.6,286.0 368.3,279.8 371.0,286.0 373.7,286.0 376.3,286.0 379.0,279.8 381.7,273.7 384.4,279.8 387.0,279.8 389.7,279.8 392.4,273.7 395.1,273.7 397.7,279.8 400.4,279.8 403.1,279.8 405.7,279.8 408.4,286.0 411.1,286.0 413.8,286.0 416.4,286.0 419.1,286.0 421.8,286.0 424.5,286.0 427.1,286.0 429.8,286.0 432.5,286.0 435.2,286.0 437.8,286.0 440.5,286.0 443.2,286.0 445.9,286.0 448.5,286.0 451.2,286.0 453.9,286.0 456.6,286.0 459.2,286.0 461.9,286.0 464.6,286.0 467.3,286.0 469.9,286.0 472.6,286.0 475.3,286.0 478.0,286.0 480.6,286.0 483.3,286.0 486.0,286.0 488.7,286.0 491.3,286.0 494.0,286.0 496.7,286.0 499.4,286.0 502.0,286.0 504.7,286.0 507.4,286.0 510.1,286.0 512.7,286.0 515.4,286.0 518.1,286.0 520.8,286.0 523.4,286.0 526.1,286.0 528.8,286.0 531.5,286.0 534.1,279.8 536.8,279.8 539.5,279.8 542.2,279.8 544.8,279.8 547.5,273.7 550.2,286.0 552.9,286.0 555.5,286.0 558.2,286.0 560.9,286.0 563.6,286.0 566.2,286.0 568.9,279.8 571.6,279.8 574.3,279.8 576.9,279.8 579.6,273.7 582.3,273.7 584.9,267.5 587.6,267.5 590.3,261.4 593.0,261.4 595.6,261.4 598.3,261.4 601.0,261.4 603.7,267.5 606.3,267.5 609.0,267.5 611.7,273.7 614.4,279.8 617.0,279.8 619.7,267.5 622.4,267.5 625.1,273.7 627.7,267.5 630.4,273.7 633.1,273.7 635.8,273.7 638.4,273.7 641.1,273.7 643.8,267.5 646.5,273.7 649.1,267.5 651.8,273.7 654.5,267.5 657.2,273.7 659.8,273.7 662.5,261.4 665.2,267.5 667.9,267.5 670.5,267.5 673.2,267.5 675.9,267.5 678.6,273.7 681.2,267.5 683.9,273.7 686.6,273.7 689.3,273.7 691.9,267.5 694.6,267.5 697.3,267.5 700.0,273.7 702.6,273.7 705.3,273.7 708.0,273.7 710.7,267.5 713.3,267.5 716.0,267.5 718.7,267.5 721.4,267.5 724.0,261.4 726.7,261.4 729.4,261.4 732.1,261.4 734.7,261.4 737.4,261.4 740.1,261.4 742.8,267.5 745.4,267.5 748.1,267.5 750.8,267.5 753.5,267.5 756.1,273.7 758.8,273.7 761.5,273.7 764.1,267.5 766.8,267.5 769.5,273.7 772.2,273.7 774.8,273.7 777.5,267.5 780.2,267.5 782.9,267.5 785.5,261.4 788.2,261.4 790.9,261.4 793.6,255.2 796.2,255.2 798.9,255.2 801.6,261.4 804.3,261.4 806.9,267.5 809.6,261.4 812.3,261.4 815.0,261.4 817.6,267.5 820.3,267.5 823.0,273.7 825.7,273.7 828.3,273.7 831.0,273.7 833.7,273.7 836.4,273.7 839.0,273.7 841.7,273.7 844.4,273.7 847.1,273.7 849.7,273.7 852.4,273.7 855.1,273.7 857.8,279.8 860.4,273.7 863.1,273.7 865.8,279.8 868.5,273.7 871.1,273.7 873.8,273.7 876.5,273.7 879.2,273.7 881.8,279.8 884.5,279.8 887.2,279.8 889.9,279.8 892.5,279.8 895.2,273.7 897.9,279.8 900.6,279.8 903.2,279.8 905.9,279.8 908.6,279.8 911.3,279.8 913.9,273.7 916.6,273.7 919.3,279.8 922.0,279.8 924.6,279.8 927.3,279.8 930.0,279.8 932.7,279.8 935.3,279.8 938.0,279.8"/><polyline fill="none" stroke="#ef4444" stroke-width="2.5" stroke-linejoin="round" stroke-linecap="round" points="42.0,273.7 44.7,273.7 47.3,273.7 50.0,273.7 52.7,273.7 55.4,273.7 58.0,273.7 60.7,273.7 63.4,273.7 66.1,273.7 68.7,273.7 71.4,273.7 74.1,273.7 76.8,273.7 79.4,273.7 82.1,273.7 84.8,273.7 87.5,273.7 90.1,273.7 92.8,273.7 95.5,273.7 98.2,273.7 100.8,273.7 103.5,273.7 106.2,273.7 108.9,273.7 111.5,273.7 114.2,273.7 116.9,273.7 119.6,273.7 122.2,273.7 124.9,273.7 127.6,267.5 130.3,273.7 132.9,273.7 135.6,273.7 138.3,273.7 141.0,273.7 143.6,273.7 146.3,273.7 149.0,273.7 151.7,273.7 154.3,273.7 157.0,267.5 159.7,273.7 162.4,273.7 165.0,273.7 167.7,273.7 170.4,273.7 173.1,273.7 175.7,273.7 178.4,273.7 181.1,273.7 183.8,273.7 186.4,267.5 189.1,273.7 191.8,273.7 194.5,273.7 197.1,273.7 199.8,273.7 202.5,273.7 205.2,273.7 207.8,273.7 210.5,273.7 213.2,273.7 215.9,273.7 218.5,273.7 221.2,273.7 223.9,249.1 226.5,273.7 229.2,273.7 231.9,273.7 234.6,273.7 237.2,273.7 239.9,273.7 242.6,273.7 245.3,273.7 247.9,273.7 250.6,273.7 253.3,273.7 256.0,273.7 258.6,273.7 261.3,273.7 264.0,273.7 266.7,273.7 269.3,273.7 272.0,267.5 274.7,273.7 277.4,279.8 280.0,286.0 282.7,286.0 285.4,286.0 288.1,286.0 290.7,286.0 293.4,279.8 296.1,279.8 298.8,286.0 301.4,286.0 304.1,279.8 306.8,286.0 309.5,286.0 312.1,286.0 314.8,286.0 317.5,286.0 320.2,279.8 322.8,286.0 325.5,286.0 328.2,286.0 330.9,286.0 333.5,286.0 336.2,286.0 338.9,286.0 341.6,286.0 344.2,286.0 346.9,286.0 349.6,279.8 352.3,279.8 354.9,286.0 357.6,279.8 360.3,286.0 363.0,286.0 365.6,286.0 368.3,286.0 371.0,286.0 373.7,286.0 376.3,286.0 379.0,286.0 381.7,286.0 384.4,286.0 387.0,286.0 389.7,286.0 392.4,286.0 395.1,286.0 397.7,286.0 400.4,279.8 403.1,286.0 405.7,279.8 408.4,286.0 411.1,286.0 413.8,286.0 416.4,286.0 419.1,286.0 421.8,286.0 424.5,286.0 427.1,286.0 429.8,286.0 432.5,286.0 435.2,286.0 437.8,286.0 440.5,286.0 443.2,286.0 445.9,279.8 448.5,286.0 451.2,286.0 453.9,286.0 456.6,286.0 459.2,286.0 461.9,286.0 464.6,286.0 467.3,286.0 469.9,286.0 472.6,286.0 475.3,286.0 478.0,286.0 480.6,286.0 483.3,286.0 486.0,286.0 488.7,286.0 491.3,286.0 494.0,286.0 496.7,286.0 499.4,286.0 502.0,286.0 504.7,286.0 507.4,286.0 510.1,286.0 512.7,286.0 515.4,286.0 518.1,286.0 520.8,279.8 523.4,279.8 526.1,286.0 528.8,286.0 531.5,286.0 534.1,286.0 536.8,286.0 539.5,273.7 542.2,286.0 544.8,286.0 547.5,286.0 550.2,286.0 552.9,286.0 555.5,286.0 558.2,286.0 560.9,286.0 563.6,286.0 566.2,286.0 568.9,286.0 571.6,286.0 574.3,286.0 576.9,286.0 579.6,286.0 582.3,286.0 584.9,286.0 587.6,286.0 590.3,286.0 593.0,279.8 595.6,286.0 598.3,286.0 601.0,279.8 603.7,279.8 606.3,286.0 609.0,286.0 611.7,286.0 614.4,286.0 617.0,286.0 619.7,286.0 622.4,286.0 625.1,286.0 627.7,286.0 630.4,286.0 633.1,286.0 635.8,286.0 638.4,273.7 641.1,286.0 643.8,286.0 646.5,286.0 649.1,286.0 651.8,286.0 654.5,286.0 657.2,286.0 659.8,286.0 662.5,286.0 665.2,286.0 667.9,286.0 670.5,286.0 673.2,286.0 675.9,286.0 678.6,286.0 681.2,286.0 683.9,286.0 686.6,286.0 689.3,286.0 691.9,286.0 694.6,286.0 697.3,286.0 700.0,286.0 702.6,286.0 705.3,286.0 708.0,286.0 710.7,286.0 713.3,286.0 716.0,286.0 718.7,279.8 721.4,286.0 724.0,286.0 726.7,286.0 729.4,286.0 732.1,279.8 734.7,286.0 737.4,286.0 740.1,286.0 742.8,286.0 745.4,286.0 748.1,286.0 750.8,286.0 753.5,286.0 756.1,286.0 758.8,286.0 761.5,286.0 764.1,286.0 766.8,279.8 769.5,286.0 772.2,286.0 774.8,286.0 777.5,286.0 780.2,286.0 782.9,286.0 785.5,286.0 788.2,286.0 790.9,286.0 793.6,286.0 796.2,279.8 798.9,286.0 801.6,279.8 804.3,286.0 806.9,286.0 809.6,286.0 812.3,279.8 815.0,286.0 817.6,286.0 820.3,286.0 823.0,286.0 825.7,286.0 828.3,286.0 831.0,286.0 833.7,286.0 836.4,286.0 839.0,286.0 841.7,286.0 844.4,286.0 847.1,286.0 849.7,286.0 852.4,286.0 855.1,286.0 857.8,286.0 860.4,279.8 863.1,286.0 865.8,286.0 868.5,286.0 871.1,286.0 873.8,286.0 876.5,286.0 879.2,286.0 881.8,286.0 884.5,286.0 887.2,286.0 889.9,286.0 892.5,286.0 895.2,286.0 897.9,286.0 900.6,286.0 903.2,286.0 905.9,286.0 908.6,286.0 911.3,286.0 913.9,286.0 916.6,286.0 919.3,286.0 922.0,286.0 924.6,286.0 927.3,286.0 930.0,286.0 932.7,286.0 935.3,286.0 938.0,286.0"/><polyline fill="none" stroke="#a855f7" stroke-width="2.5" stroke-linejoin="round" stroke-linecap="round" points="42.0,286.0 44.7,286.0 47.3,286.0 50.0,286.0 52.7,286.0 55.4,286.0 58.0,286.0 60.7,286.0 63.4,286.0 66.1,286.0 68.7,286.0 71.4,286.0 74.1,286.0 76.8,286.0 79.4,286.0 82.1,286.0 84.8,286.0 87.5,286.0 90.1,286.0 92.8,286.0 95.5,286.0 98.2,286.0 100.8,286.0 103.5,286.0 106.2,286.0 108.9,286.0 111.5,286.0 114.2,286.0 116.9,286.0 119.6,286.0 122.2,286.0 124.9,286.0 127.6,286.0 130.3,286.0 132.9,286.0 135.6,286.0 138.3,286.0 141.0,286.0 143.6,279.8 146.3,286.0 149.0,286.0 151.7,286.0 154.3,286.0 157.0,286.0 159.7,286.0 162.4,286.0 165.0,286.0 167.7,286.0 170.4,286.0 173.1,286.0 175.7,286.0 178.4,286.0 181.1,286.0 183.8,286.0 186.4,286.0 189.1,286.0 191.8,286.0 194.5,286.0 197.1,286.0 199.8,286.0 202.5,286.0 205.2,286.0 207.8,286.0 210.5,286.0 213.2,286.0 215.9,286.0 218.5,286.0 221.2,286.0 223.9,286.0 226.5,286.0 229.2,286.0 231.9,286.0 234.6,286.0 237.2,286.0 239.9,286.0 242.6,286.0 245.3,286.0 247.9,286.0 250.6,286.0 253.3,286.0 256.0,286.0 258.6,286.0 261.3,286.0 264.0,286.0 266.7,286.0 269.3,286.0 272.0,286.0 274.7,286.0 277.4,286.0 280.0,286.0 282.7,286.0 285.4,286.0 288.1,286.0 290.7,286.0 293.4,286.0 296.1,286.0 298.8,279.8 301.4,286.0 304.1,286.0 306.8,286.0 309.5,286.0 312.1,286.0 314.8,286.0 317.5,286.0 320.2,286.0 322.8,286.0 325.5,279.8 328.2,286.0 330.9,286.0 333.5,286.0 336.2,286.0 338.9,286.0 341.6,286.0 344.2,286.0 346.9,286.0 349.6,286.0 352.3,286.0 354.9,286.0 357.6,286.0 360.3,286.0 363.0,286.0 365.6,286.0 368.3,286.0 371.0,286.0 373.7,286.0 376.3,286.0 379.0,286.0 381.7,286.0 384.4,286.0 387.0,286.0 389.7,286.0 392.4,286.0 395.1,286.0 397.7,286.0 400.4,286.0 403.1,279.8 405.7,286.0 408.4,286.0 411.1,286.0 413.8,286.0 416.4,286.0 419.1,286.0 421.8,279.8 424.5,286.0 427.1,286.0 429.8,286.0 432.5,286.0 435.2,286.0 437.8,286.0 440.5,286.0 443.2,286.0 445.9,286.0 448.5,286.0 451.2,286.0 453.9,286.0 456.6,286.0 459.2,286.0 461.9,286.0 464.6,286.0 467.3,279.8 469.9,286.0 472.6,286.0 475.3,286.0 478.0,286.0 480.6,286.0 483.3,286.0 486.0,286.0 488.7,286.0 491.3,286.0 494.0,286.0 496.7,286.0 499.4,286.0 502.0,286.0 504.7,286.0 507.4,286.0 510.1,286.0 512.7,286.0 515.4,286.0 518.1,286.0 520.8,286.0 523.4,286.0 526.1,286.0 528.8,286.0 531.5,286.0 534.1,286.0 536.8,286.0 539.5,286.0 542.2,286.0 544.8,286.0 547.5,286.0 550.2,286.0 552.9,286.0 555.5,286.0 558.2,286.0 560.9,286.0 563.6,286.0 566.2,273.7 568.9,286.0 571.6,286.0 574.3,286.0 576.9,286.0 579.6,286.0 582.3,286.0 584.9,286.0 587.6,286.0 590.3,286.0 593.0,286.0 595.6,286.0 598.3,286.0 601.0,286.0 603.7,286.0 606.3,286.0 609.0,286.0 611.7,286.0 614.4,286.0 617.0,286.0 619.7,286.0 622.4,286.0 625.1,286.0 627.7,286.0 630.4,286.0 633.1,286.0 635.8,286.0 638.4,286.0 641.1,286.0 643.8,286.0 646.5,286.0 649.1,286.0 651.8,286.0 654.5,286.0 657.2,286.0 659.8,286.0 662.5,286.0 665.2,286.0 667.9,286.0 670.5,286.0 673.2,286.0 675.9,286.0 678.6,286.0 681.2,286.0 683.9,286.0 686.6,286.0 689.3,286.0 691.9,286.0 694.6,286.0 697.3,286.0 700.0,286.0 702.6,286.0 705.3,286.0 708.0,286.0 710.7,286.0 713.3,286.0 716.0,286.0 718.7,286.0 721.4,286.0 724.0,286.0 726.7,286.0 729.4,286.0 732.1,286.0 734.7,286.0 737.4,286.0 740.1,286.0 742.8,286.0 745.4,286.0 748.1,286.0 750.8,286.0 753.5,286.0 756.1,286.0 758.8,286.0 761.5,286.0 764.1,286.0 766.8,286.0 769.5,286.0 772.2,286.0 774.8,286.0 777.5,286.0 780.2,286.0 782.9,286.0 785.5,286.0 788.2,286.0 790.9,286.0 793.6,286.0 796.2,286.0 798.9,286.0 801.6,286.0 804.3,286.0 806.9,286.0 809.6,286.0 812.3,286.0 815.0,286.0 817.6,286.0 820.3,286.0 823.0,286.0 825.7,286.0 828.3,286.0 831.0,286.0 833.7,286.0 836.4,286.0 839.0,286.0 841.7,286.0 844.4,286.0 847.1,286.0 849.7,286.0 852.4,286.0 855.1,286.0 857.8,286.0 860.4,286.0 863.1,286.0 865.8,286.0 868.5,286.0 871.1,286.0 873.8,286.0 876.5,286.0 879.2,286.0 881.8,286.0 884.5,286.0 887.2,286.0 889.9,286.0 892.5,286.0 895.2,286.0 897.9,286.0 900.6,286.0 903.2,286.0 905.9,286.0 908.6,286.0 911.3,286.0 913.9,286.0 916.6,286.0 919.3,286.0 922.0,286.0 924.6,286.0 927.3,279.8 930.0,286.0 932.7,286.0 935.3,286.0 938.0,286.0"/><text x="42" y="308" font-size="11" fill="#5a688a">28/06 04:31</text><text x="938" y="308" text-anchor="end" font-size="11" fill="#5a688a">12/07 20:34</text></svg>