<svg xmlns="http://www.w3.org/2000/svg" viewBox="0 0 960 320" width="960" height="320" font-family="Segoe UI, system-ui, -apple-system, Roboto, Helvetica, Arial, sans-serif" role="img" aria-label="Availability history per region"><rect x="0.5" y="0.5" width="959" height="319" rx="14" fill="#ffffff" stroke="#dce3f1"/><text x="42" y="26" font-size="14" font-weight="600" fill="#14203a">History · 256 points</text><circle cx="47" cy="40" r="5" fill="#22c55e"/><text x="57" y="44" font-size="12" fill="#5a688a">Available</text><circle cx="139.8" cy="40" r="5" fill="#f59e0b"/><text x="149.8" y="44" font-size="12" fill="#5a688a">Saturated</text><circle cx="232.60000000000002" cy="40" r="5" fill="#ef4444"/><text x="242.60000000000002" y="44" font-size="12" fill="#5a688a">Error</text><circle cx="296.6" cy="40" r="5" fill="#a855f7"/><text x="306.6" y="44" font-size="12" fill="#5a688a">Timeout</text><line x1="42" y1="286.0" x2="938" y2="286.0" stroke="#eef2f7" stroke-width="1"/><text x="35" y="289.0" text-anchor="end" font-size="11" fill="#5a688a">0</text><line x1="42" y1="227.5" x2="938" y2="227.5" stroke="#eef2f7" stroke-width="1"/><text x="35" y="230.5" text-anchor="end" font-size="11" fill="#5a688a">10</text><line x1="42" y1="169.0" x2="938" y2="169.0" stroke="#eef2f7" stroke-width="1"/><text x="35" y="172.0" text-anchor="end" font-size="11" fill="#5a688a">20</text><line x1="42" y1="110.5" x2="938" y2="110.5" stroke="#eef2f7" stroke-width="1"/><text x="35" y="113.5" text-anchor="end" font-size="11" fill="#5a688a">29</text><line x1="42" y1="52.0" x2="938" y2="52.0" stroke="#eef2f7" stroke-width="1"/><text x="35" y="55.0" text-anchor="end" font-size="11" fill="#5a688a">39</text><polyline fill="none" stroke="#22c55e" stroke-width="2.5" stroke-linejoin="round" stroke-linecap="round" points="42.0,70.0 45.5,70.0 49.0,88.0 52.5,88.0 56.1,76.0 59.6,76.0 63.1,76.0 66.6,70.0 70.1,76.0 73.6,70.0 77.1,64.0 80.7,58.0 84.2,58.0 87.7,58.0 91.2,58.0 94.7,58.0 98.2,58.0 101.7,58.0 105.2,58.0 108.8,58.0 112.3,58.0 115.8,58.0 119.3,58.0 122.8,58.0 126.3,58.0 129.8,58.0 133.4,58.0 136.9,58.0 140.4,58.0 143.9,58.0 147.4,58.0 150.9,70.0 154.4,76.0 158.0,94.0 161.5,64.0 165.0,64.0 168.5,58.0 172.0,58.0 175.5,58.0 179.0,70.0 182.5,76.0 186.1,76.0 189.6,82.0 193.1,82.0 196.6,82.0 200.1,82.0 203.6,76.0 207.1,64.0 210.7,70.0 214.2,70.0 217.7,82.0 221.2,76.0 224.7,76.0 228.2,82.0 231.7,76.0 235.3,76.0 238.8,76.0 242.3,64.0 245.8,64.0 249.3,76.0 252.8,76.0 256.3,76.0 259.9,88.0 263.4,70.0 266.9,64.0 270.4,58.0 273.9,58.0 277.4,70.0 280.9,70.0 284.4,70.0 288.0,76.0 291.5,70.0 295.0,70.0 298.5,70.0 302.0,70.0 305.5,76.0 309.0,82.0 312.6,76.0 316.1,70.0 319.6,70.0 323.1,70.0 326.6,70.0 330.1,76.0 333.6,70.0 337.2,70.0 340.7,70.0 344.2,70.0 347.7,70.0 351.2,70.0 354.7,70.0 358.2,70.0 361.7,70.0 365.3,70.0 368.8,70.0 372.3,70.0 375.8,70.0 379.3,70.0 382.8,70.0 386.3,70.0 389.9,70.0 393.4,70.0 396.9,70.0 400.4,70.0 403.9,70.0 407.4,70.0 410.9,70.0 414.5,70.0 418.0,70.0 421.5,70.0 425.0,70.0 428.5,70.0 432.0,70.0 435.5,70.0 439.1,70.0 442.6,70.0 446.1,70.0 449.6,70.0 453.1,70.0 456.6,70.0 460.1,70.0 463.6,70.0 467.2,70.0 470.7,70.0 474.2,70.0 477.7,70.0 481.2,70.0 484.7,70.0 488.2,70.0 491.8,70.0 495.3,70.0 498.8,70.0 502.3,70.0 505.8,70.0 509.3,70.0 512.8,70.0 516.4,70.0 519.9,70.0 523.4,70.0 526.9,70.0 530.4,70.0 533.9,70.0 537.4,70.0 540.9,70.0 544.5,70.0 548.0,70.0 551.5,70.0 555.0,70.0 558.5,70.0 562.0,70.0 565.5,70.0 569.1,70.0 572.6,76.0 576.1,70.0 579.6,70.0 583.1,70.0 586.6,70.0 590.1,70.0 593.7,76.0 597.2,76.0 600.7,88.0 604.2,88.0 607.7,88.0 611.2,94.0 614.7,94.0 618.3,94.0 621.8,94.0 625.3,88.0 628.8,88.0 632.3,82.0 635.8,82.0 639.3,82.0 642.8,88.0 646.4,88.0 649.9,94.0 653.4,82.0 656.9,82.0 660.4,82.0 663.9,82.0 667.4,88.0 671.0,88.0 674.5,94.0 678.0,94.0 681.5,88.0 685.0,88.0 688.5,88.0 692.0,94.0 695.6,94.0 699.1,106.0 702.6,94.0 706.1,94.0 709.6,94.0 713.1,94.0 716.6,88.0 720.1,88.0 723.7,82.0 727.2,76.0 730.7,76.0 734.2,76.0 737.7,76.0 741.2,76.0 744.7,76.0 748.3,70.0 751.8,70.0 755.3,70.0 758.8,76.0 762.3,88.0 765.8,82.0 769.3,70.0 772.9,70.0 776.4,70.0 779.9,76.0 783.4,76.0 786.9,76.0 790.4,82.0 793.9,70.0 797.5,76.0 801.0,64.0 804.5,70.0 808.0,58.0 811.5,58.0 815.0,58.0 818.5,58.0 822.0,58.0 825.6,64.0 829.1,58.0 832.6,64.0 836.1,58.0 839.6,58.0 843.1,58.0 846.6,58.0 850.2,64.0 853.7,64.0 857.2,64.0 860.7,76.0 864.2,70.0 867.7,82.0 871.2,70.0 874.8,76.0 878.3,58.0 881.8,64.0 885.3,58.0 888.8,64.0 892.3,58.0 895.8,58.0 899.3,58.0 902.9,64.0 906.4,70.0 909.9,64.0 913.4,64.0 916.9,64.0 920.4,70.0 923.9,70.0 927.5,64.0 931.0,70.0 934.5,70.0 938.0,70.0"/><polyline fill="none" stroke="#f59e0b" stroke-width="2.5" stroke-linejoin="round" stroke-linecap="round" points="42.0,274.0 45.5,274.0 49.0,274.0 52.5,280.0 56.1,268.0 59.6,268.0 63.1,268.0 66.6,274.0 70.1,274.0 73.6,274.0 77.1,280.0 80.7,286.0 84.2,286.0 87.7,286.0 91.2,286.0 94.7,286.0 98.2,286.0 101.7,286.0 105.2,286.0 108.8,286.0 112.3,286.0 115.8,286.0 119.3,286.0 122.8,286.0 126.3,286.0 129.8,286.0 133.4,286.0 136.9,286.0 140.4,286.0 143.9,286.0 147.4,286.0 150.9,274.0 154.4,280.0 158.0,280.0 161.5,280.0 165.0,280.0 168.5,286.0 172.0,286.0 175.5,286.0 179.0,274.0 182.5,268.0 186.1,268.0 189.6,262.0 193.1,262.0 196.6,262.0 200.1,262.0 203.6,268.0 207.1,280.0 210.7,280.0 214.2,274.0 217.7,262.0 221.2,268.0 224.7,268.0 228.2,262.0 231.7,268.0 235.3,268.0 238.8,268.0 242.3,280.0 245.8,280.0 249.3,268.0 252.8,268.0 256.3,268.0 259.9,262.0 263.4,274.0 266.9,280.0 270.4,286.0 273.9,286.0 277.4,274.0 280.9,274.0 284.4,274.0 288.0,274.0 291.5,274.0 295.0,274.0 298.5,274.0 302.0,274.0 305.5,280.0 309.0,274.0 312.6,280.0 316.1,286.0 319.6,286.0 323.1,286.0 326.6,286.0 330.1,280.0 333.6,286.0 337.2,286.0 340.7,286.0 344.2,286.0 347.7,286.0 351.2,286.0 354.7,286.0 358.2,286.0 361.7,286.0 365.3,286.0 368.8,286.0 372.3,286.0 375.8,286.0 379.3,286.0 382.8,286.0 386.3,286.0 389.9,286.0 393.4,286.0 396.9,286.0 400.4,286.0 403.9,286.0 407.4,286.0 410.9,286.0 414.5,286.0 418.0,286.0 421.5,286.0 425.0,286.0 428.5,286.0 432.0,286.0 435.5,286.0 439.1,286.0 442.6,286.0 446.1,286.0 449.6,286.0 453.1,286.0 456.6,286.0 460.1,286.0 463.6,286.0 467.2,286.0 470.7,286.0 474.2,286.0 477.7,286.0 481.2,286.0 484.7,286.0 488.2,286.0 491.8,286.0 495.3,286.0 498.8,286.0 502.3,286.0 505.8,286.0 509.3,286.0 512.8,286.0 516.4,286.0 519.9,286.0 523.4,286.0 526.9,286.0 530.4,286.0 533.9,286.0 537.4,286.0 540.9,286.0 544.5,286.0 548.0,286.0 551.5,286.0 555.0,286.0 558.5,286.0 562.0,286.0 565.5,286.0 569.1,286.0 572.6,286.0 576.1,286.0 579.6,286.0 583.1,286.0 586.6,286.0 590.1,286.0 593.7,286.0 597.2,280.0 600.7,268.0 604.2,268.0 607.7,268.0 611.2,268.0 614.7,262.0 618.3,262.0 621.8,262.0 625.3,268.0 628.8,268.0 632.3,274.0 635.8,274.0 639.3,274.0 642.8,268.0 646.4,268.0 649.9,268.0 653.4,274.0 656.9,274.0 660.4,274.0 663.9,274.0 667.4,268.0 671.0,268.0 674.5,262.0 678.0,262.0 681.5,268.0 685.0,268.0 688.5,268.0 692.0,262.0 695.6,262.0 699.1,274.0 702.6,262.0 706.1,262.0 709.6,262.0 713.1,262.0 716.6,268.0 720.1,268.0 723.7,274.0 727.2,280.0 730.7,280.0 734.2,280.0 737.7,280.0 741.2,280.0 744.7,280.0 748.3,286.0 751.8,286.0 755.3,286.0 758.8,280.0 762.3,274.0 765.8,274.0 769.3,280.0 772.9,274.0 776.4,274.0 779.9,268.0 783.4,268.0 786.9,268.0 790.4,268.0 793.9,280.0 797.5,274.0 801.0,280.0 804.5,280.0 808.0,286.0 811.5,286.0 815.0,286.0 818.5,286.0 822.0,286.0 825.6,286.0 829.1,286.0 832.6,286.0 836.1,286.0 839.6,286.0 843.1,286.0 846.6,286.0 850.2,280.0 853.7,280.0 857.2,280.0 860.7,268.0 864.2,280.0 867.7,268.0 871.2,274.0 874.8,274.0 878.3,286.0 881.8,280.0 885.3,286.0 888.8,280.0 892.3,286.0 895.8,286.0 899.3,286.0 902.9,280.0 906.4,274.0 909.9,280.0 913.4,280.0 916.9,280.0 920.4,274.0 923.9,274.0 927.5,280.0 931.0,280.0 934.5,280.0 938.0,280.0"/><polyline fill="none" stroke="#ef4444" stroke-width="2.5" stroke-linejoin="round" stroke-linecap="round" points="42.0,280.0 45.5,280.0 49.0,268.0 52.5,262.0 56.1,286.0 59.6,286.0 63.1,286.0 66.6,286.0 70.1,280.0 73.6,286.0 77.1,286.0 80.7,286.0 84.2,286.0 87.7,286.0 91.2,286.0 94.7,286.0 98.2,286.0 101.7,286.0 105.2,286.0 108.8,286.0 112.3,286.0 115.8,286.0 119.3,286.0 122.8,286.0 126.3,286.0 129.8,286.0 133.4,286.0 136.9,286.0 140.4,286.0 143.9,286.0 147.4,286.0 150.9,286.0 154.4,274.0 158.0,256.0 161.5,286.0 165.0,286.0 168.5,286.0 172.0,286.0 175.5,286.0 179.0,286.0 182.5,286.0 186.1,286.0 189.6,286.0 193.1,286.0 196.6,286.0 200.1,286.0 203.6,286.0 207.1,286.0 210.7,280.0 214.2,286.0 217.7,286.0 221.2,286.0 224.7,286.0 228.2,286.0 231.7,286.0 235.3,286.0 238.8,286.0 242.3,286.0 245.8,286.0 249.3,286.0 252.8,286.0 256.3,286.0 259.9,280.0 263.4,286.0 266.9,286.0 270.4,286.0 273.9,286.0 277.4,286.0 280.9,286.0 284.4,286.0 288.0,286.0 291.5,286.0 295.0,286.0 298.5,286.0 302.0,286.0 305.5,274.0 309.0,274.0 312.6,274.0 316.1,274.0 319.6,274.0 323.1,274.0 326.6,274.0 330.1,274.0 333.6,274.0 337.2,274.0 340.7,274.0 344.2,274.0 347.7,274.0 351.2,274.0 354.7,274.0 358.2,274.0 361.7,274.0 365.3,274.0 368.8,274.0 372.3,274.0 375.8,274.0 379.3,274.0 382.8,274.0 386.3,274.0 389.9,274.0 393.4,274.0 396.9,274.0 400.4,274.0 403.9,274.0 407.4,274.0 410.9,274.0 414.5,274.0 418.0,274.0 421.5,274.0 425.0,274.0 428.5,274.0 432.0,274.0 435.5,274.0 439.1,274.0 442.6,274.0 446.1,274.0 449.6,274.0 453.1,274.0 456.6,274.0 460.1,274.0 463.6,274.0 467.2,274.0 470.7,274.0 474.2,274.0 477.7,274.0 481.2,274.0 484.7,274.0 488.2,274.0 491.8,274.0 495.3,274.0 498.8,274.0 502.3,274.0 505.8,274.0 509.3,274.0 512.8,274.0 516.4,274.0 519.9,274.0 523.4,274.0 526.9,274.0 530.4,274.0 533.9,274.0 537.4,274.0 540.9,274.0 544.5,274.0 548.0,274.0 551.5,274.0 555.0,274.0 558.5,274.0 562.0,274.0 565.5,274.0 569.1,274.0 572.6,268.0 576.1,274.0 579.6,274.0 583.1,274.0 586.6,274.0 590.1,274.0 593.7,274.0 597.2,274.0 600.7,274.0 604.2,274.0 607.7,274.0 611.2,268.0 614.7,274.0 618.3,274.0 621.8,274.0 625.3,274.0 628.8,274.0 632.3,274.0 635.8,274.0 639.3,274.0 642.8,274.0 646.4,274.0 649.9,268.0 653.4,274.0 656.9,274.0 660.4,274.0 663.9,274.0 667.4,274.0 671.0,274.0 674.5,274.0 678.0,274.0 681.5,274.0 685.0,274.0 688.5,274.0 692.0,274.0 695.6,274.0 699.1,250.0 702.6,274.0 706.1,274.0 709.6,274.0 713.1,274.0 716.6,274.0 720.1,274.0 723.7,274.0 727.2,274.0 730.7,274.0 734.2,274.0 737.7,274.0 741.2,274.0 744.7,274.0 748.3,274.0 751.8,274.0 755.3,274.0 758.8,274.0 762.3,268.0 765.8,274.0 769.3,280.0 772.9,286.0 776.4,286.0 779.9,286.0 783.4,286.0 786.9,286.0 790.4,280.0 793.9,280.0 797.5,286.0 801.0,286.0 804.5,280.0 808.0,286.0 811.5,286.0 815.0,286.0 818.5,286.0 822.0,286.0 825.6,280.0 829.1,286.0 832.6,286.0 836.1,286.0 839.6,286.0 843.1,286.0 846.6,286.0 850.2,286.0 853.7,286.0 857.2,286.0 860.7,286.0 864.2,280.0 867.7,280.0 871.2,286.0 874.8,280.0 878.3,286.0 881.8,286.0 885.3,286.0 888.8,286.0 892.3,286.0 895.8,286.0 899.3,286.0 902.9,286.0 906.4,286.0 909.9,286.0 913.4,286.0 916.9,286.0 920.4,286.0 923.9,286.0 927.5,286.0 931.0,280.0 934.5,286.0 938.0,280.0"/><polyline fill="none" stroke="#a855f7" stroke-width="2.5" stroke-linejoin="round" stroke-linecap="round" points="42.0,286.0 45.5,286.0 49.0,286.0 52.5,286.0 56.1,286.0 59.6,286.0 63.1,286.0 66.6,286.0 70.1,286.0 73.6,286.0 77.1,286.0 80.7,286.0 84.2,286.0 87.7,286.0 91.2,286.0 94.7,286.0 98.2,286.0 101.7,286.0 105.2,286.0 108.8,286.0 112.3,286.0 115.8,286.0 119.3,286.0 122.8,286.0 126.3,286.0 129.8,286.0 133.4,286.0 136.9,286.0 140.4,286.0 143.9,286.0 147.4,286.0 150.9,286.0 154.4,286.0 158.0,286.0 161.5,286.0 165.0,286.0 168.5,286.0 172.0,286.0 175.5,286.0 179.0,286.0 182.5,286.0 186.1,286.0 189.6,286.0 193.1,286.0 196.6,286.0 200.1,286.0 203.6,286.0 207.1,286.0 210.7,286.0 214.2,286.0 217.7,286.0 221.2,286.0 224.7,286.0 228.2,286.0 231.7,286.0 235.3,286.0 238.8,286.0 242.3,286.0 245.8,286.0 249.3,286.0 252.8,286.0 256.3,286.0 259.9,286.0 263.4,286.0 266.9,286.0 270.4,286.0 273.9,286.0 277.4,286.0 280.9,286.0 284.4,286.0 288.0,280.0 291.5,286.0 295.0,286.0 298.5,286.0 302.0,286.0 305.5,286.0 309.0,286.0 312.6,286.0 316.1,286.0 319.6,286.0 323.1,286.0 326.6,286.0 330.1,286.0 333.6,286.0 337.2,286.0 340.7,286.0 344.2,286.0 347.7,286.0 351.2,286.0 354.7,286.0 358.2,286.0 361.7,286.0 365.3,286.0 368.8,286.0 372.3,286.0 375.8,286.0 379.3,286.0 382.8,286.0 386.3,286.0 389.9,286.0 393.4,286.0 396.9,286.0 400.4,286.0 403.9,286.0 407.4,286.0 410.9,286.0 414.5,286.0 418.0,286.0 421.5,286.0 425.0,286.0 428.5,286.0 432.0,286.0 435.5,286.0 439.1,286.0 442.6,286.0 446.1,286.0 449.6,286.0 453.1,286.0 456.6,286.0 460.1,286.0 463.6,286.0 467.2,286.0 470.7,286.0 474.2,286.0 477.7,286.0 481.2,286.0 484.7,286.0 488.2,286.0 491.8,286.0 495.3,286.0 498.8,286.0 502.3,286.0 505.8,286.0 509.3,286.0 512.8,286.0 516.4,286.0 519.9,286.0 523.4,286.0 526.9,286.0 530.4,286.0 533.9,286.0 537.4,286.0 540.9,286.0 544.5,286.0 548.0,286.0 551.5,286.0 555.0,286.0 558.5,286.0 562.0,286.0 565.5,286.0 569.1,286.0 572.6,286.0 576.1,286.0 579.6,286.0 583.1,286.0 586.6,286.0 590.1,286.0 593.7,280.0 597.2,286.0 600.7,286.0 604.2,286.0 607.7,286.0 611.2,286.0 614.7,286.0 618.3,286.0 621.8,286.0 625.3,286.0 628.8,286.0 632.3,286.0 635.8,286.0 639.3,286.0 642.8,286.0 646.4,286.0 649.9,286.0 653.4,286.0 656.9,286.0 660.4,286.0 663.9,286.0 667.4,286.0 671.0,286.0 674.5,286.0 678.0,286.0 681.5,286.0 685.0,286.0 688.5,286.0 692.0,286.0 695.6,286.0 699.1,286.0 702.6,286.0 706.1,286.0 709.6,286.0 713.1,286.0 716.6,286.0 720.1,286.0 723.7,286.0 727.2,286.0 730.7,286.0 734.2,286.0 737.7,286.0 741.2,286.0 744.7,286.0 748.3,286.0 751.8,286.0 755.3,286.0 758.8,286.0 762.3,286.0 765.8,286.0 769.3,286.0 772.9,286.0 776.4,286.0 779.9,286.0 783.4,286.0 786.9,286.0 790.4,286.0 793.9,286.0 797.5,280.0 801.0,286.0 804.5,286.0 808.0,286.0 811.5,286.0 815.0,286.0 818.5,286.0 822.0,286.0 825.6,286.0 829.1,286.0 832.6,280.0 836.1,286.0 839.6,286.0 843.1,286.0 846.6,286.0 850.2,286.0 853.7,286.0 857.2,286.0 860.7,286.0 864.2,286.0 867.7,286.0 871.2,286.0 874.8,286.0 878.3,286.0 881.8,286.0 885.3,286.0 888.8,286.0 892.3,286.0 895.8,286.0 899.3,286.0 902.9,286.0 906.4,286.0 909.9,286.0 913.4,286.0 916.9,286.0 920.4,286.0 923.9,286.0 927.5,286.0 931.0,286.0 934.5,280.0 938.0,286.0"/><text x="42" y="308" font-size="11" fill="#5a688a">19/06 12:43</text><text x="938" y="308" text-anchor="end" font-size="11" fill="#5a688a">03/07 18:29</text></svg>