<svg xmlns="http://www.w3.org/2000/svg" viewBox="0 0 960 320" width="960" height="320" font-family="Segoe UI, system-ui, -apple-system, Roboto, Helvetica, Arial, sans-serif" role="img" aria-label="Availability history per region"><rect x="0.5" y="0.5" width="959" height="319" rx="14" fill="#ffffff" stroke="#dce3f1"/><text x="42" y="26" font-size="14" font-weight="600" fill="#14203a">History · 248 points</text><circle cx="47" cy="40" r="5" fill="#22c55e"/><text x="57" y="44" font-size="12" fill="#5a688a">Available</text><circle cx="139.8" cy="40" r="5" fill="#f59e0b"/><text x="149.8" y="44" font-size="12" fill="#5a688a">Saturated</text><circle cx="232.60000000000002" cy="40" r="5" fill="#ef4444"/><text x="242.60000000000002" y="44" font-size="12" fill="#5a688a">Error</text><circle cx="296.6" cy="40" r="5" fill="#a855f7"/><text x="306.6" y="44" font-size="12" fill="#5a688a">Timeout</text><line x1="42" y1="286.0" x2="938" y2="286.0" stroke="#eef2f7" stroke-width="1"/><text x="35" y="289.0" text-anchor="end" font-size="11" fill="#5a688a">0</text><line x1="42" y1="227.5" x2="938" y2="227.5" stroke="#eef2f7" stroke-width="1"/><text x="35" y="230.5" text-anchor="end" font-size="11" fill="#5a688a">10</text><line x1="42" y1="169.0" x2="938" y2="169.0" stroke="#eef2f7" stroke-width="1"/><text x="35" y="172.0" text-anchor="end" font-size="11" fill="#5a688a">20</text><line x1="42" y1="110.5" x2="938" y2="110.5" stroke="#eef2f7" stroke-width="1"/><text x="35" y="113.5" text-anchor="end" font-size="11" fill="#5a688a">29</text><line x1="42" y1="52.0" x2="938" y2="52.0" stroke="#eef2f7" stroke-width="1"/><text x="35" y="55.0" text-anchor="end" font-size="11" fill="#5a688a">39</text><polyline fill="none" stroke="#22c55e" stroke-width="2.5" stroke-linejoin="round" stroke-linecap="round" points="42.0,70.0 45.6,70.0 49.3,88.0 52.9,88.0 56.5,76.0 60.1,76.0 63.8,76.0 67.4,70.0 71.0,76.0 74.6,70.0 78.3,64.0 81.9,58.0 85.5,58.0 89.2,58.0 92.8,58.0 96.4,58.0 100.0,58.0 103.7,58.0 107.3,58.0 110.9,58.0 114.6,58.0 118.2,58.0 121.8,58.0 125.4,58.0 129.1,58.0 132.7,58.0 136.3,58.0 139.9,58.0 143.6,58.0 147.2,58.0 150.8,58.0 154.5,70.0 158.1,76.0 161.7,94.0 165.3,64.0 169.0,64.0 172.6,58.0 176.2,58.0 179.8,58.0 183.5,70.0 187.1,76.0 190.7,76.0 194.4,82.0 198.0,82.0 201.6,82.0 205.2,82.0 208.9,76.0 212.5,64.0 216.1,70.0 219.7,70.0 223.4,82.0 227.0,76.0 230.6,76.0 234.3,82.0 237.9,76.0 241.5,76.0 245.1,76.0 248.8,64.0 252.4,64.0 256.0,76.0 259.7,76.0 263.3,76.0 266.9,88.0 270.5,70.0 274.2,64.0 277.8,58.0 281.4,58.0 285.0,70.0 288.7,70.0 292.3,70.0 295.9,76.0 299.6,70.0 303.2,70.0 306.8,70.0 310.4,70.0 314.1,76.0 317.7,82.0 321.3,76.0 324.9,70.0 328.6,70.0 332.2,70.0 335.8,70.0 339.5,76.0 343.1,70.0 346.7,70.0 350.3,70.0 354.0,70.0 357.6,70.0 361.2,70.0 364.9,70.0 368.5,70.0 372.1,70.0 375.7,70.0 379.4,70.0 383.0,70.0 386.6,70.0 390.2,70.0 393.9,70.0 397.5,70.0 401.1,70.0 404.8,70.0 408.4,70.0 412.0,70.0 415.6,70.0 419.3,70.0 422.9,70.0 426.5,70.0 430.1,70.0 433.8,70.0 437.4,70.0 441.0,70.0 444.7,70.0 448.3,70.0 451.9,70.0 455.5,70.0 459.2,70.0 462.8,70.0 466.4,70.0 470.0,70.0 473.7,70.0 477.3,70.0 480.9,70.0 484.6,70.0 488.2,70.0 491.8,70.0 495.4,70.0 499.1,70.0 502.7,70.0 506.3,70.0 510.0,70.0 513.6,70.0 517.2,70.0 520.8,70.0 524.5,70.0 528.1,70.0 531.7,70.0 535.3,70.0 539.0,70.0 542.6,70.0 546.2,70.0 549.9,70.0 553.5,70.0 557.1,70.0 560.7,70.0 564.4,70.0 568.0,70.0 571.6,70.0 575.2,70.0 578.9,70.0 582.5,70.0 586.1,70.0 589.8,76.0 593.4,70.0 597.0,70.0 600.6,70.0 604.3,70.0 607.9,70.0 611.5,76.0 615.1,76.0 618.8,88.0 622.4,88.0 626.0,88.0 629.7,94.0 633.3,94.0 636.9,94.0 640.5,94.0 644.2,88.0 647.8,88.0 651.4,82.0 655.1,82.0 658.7,82.0 662.3,88.0 665.9,88.0 669.6,94.0 673.2,82.0 676.8,82.0 680.4,82.0 684.1,82.0 687.7,88.0 691.3,88.0 695.0,94.0 698.6,94.0 702.2,88.0 705.8,88.0 709.5,88.0 713.1,94.0 716.7,94.0 720.3,106.0 724.0,94.0 727.6,94.0 731.2,94.0 734.9,94.0 738.5,88.0 742.1,88.0 745.7,82.0 749.4,76.0 753.0,76.0 756.6,76.0 760.3,76.0 763.9,76.0 767.5,76.0 771.1,70.0 774.8,70.0 778.4,70.0 782.0,76.0 785.6,88.0 789.3,82.0 792.9,70.0 796.5,70.0 800.2,70.0 803.8,76.0 807.4,76.0 811.0,76.0 814.7,82.0 818.3,70.0 821.9,76.0 825.5,64.0 829.2,70.0 832.8,58.0 836.4,58.0 840.1,58.0 843.7,58.0 847.3,58.0 850.9,64.0 854.6,58.0 858.2,64.0 861.8,58.0 865.4,58.0 869.1,58.0 872.7,58.0 876.3,64.0 880.0,64.0 883.6,64.0 887.2,76.0 890.8,70.0 894.5,82.0 898.1,70.0 901.7,76.0 905.4,58.0 909.0,64.0 912.6,58.0 916.2,64.0 919.9,58.0 923.5,58.0 927.1,58.0 930.7,64.0 934.4,70.0 938.0,64.0"/><polyline fill="none" stroke="#f59e0b" stroke-width="2.5" stroke-linejoin="round" stroke-linecap="round" points="42.0,274.0 45.6,274.0 49.3,274.0 52.9,280.0 56.5,268.0 60.1,268.0 63.8,268.0 67.4,274.0 71.0,274.0 74.6,274.0 78.3,280.0 81.9,286.0 85.5,286.0 89.2,286.0 92.8,286.0 96.4,286.0 100.0,286.0 103.7,286.0 107.3,286.0 110.9,286.0 114.6,286.0 118.2,286.0 121.8,286.0 125.4,286.0 129.1,286.0 132.7,286.0 136.3,286.0 139.9,286.0 143.6,286.0 147.2,286.0 150.8,286.0 154.5,274.0 158.1,280.0 161.7,280.0 165.3,280.0 169.0,280.0 172.6,286.0 176.2,286.0 179.8,286.0 183.5,274.0 187.1,268.0 190.7,268.0 194.4,262.0 198.0,262.0 201.6,262.0 205.2,262.0 208.9,268.0 212.5,280.0 216.1,280.0 219.7,274.0 223.4,262.0 227.0,268.0 230.6,268.0 234.3,262.0 237.9,268.0 241.5,268.0 245.1,268.0 248.8,280.0 252.4,280.0 256.0,268.0 259.7,268.0 263.3,268.0 266.9,262.0 270.5,274.0 274.2,280.0 277.8,286.0 281.4,286.0 285.0,274.0 288.7,274.0 292.3,274.0 295.9,274.0 299.6,274.0 303.2,274.0 306.8,274.0 310.4,274.0 314.1,280.0 317.7,274.0 321.3,280.0 324.9,286.0 328.6,286.0 332.2,286.0 335.8,286.0 339.5,280.0 343.1,286.0 346.7,286.0 350.3,286.0 354.0,286.0 357.6,286.0 361.2,286.0 364.9,286.0 368.5,286.0 372.1,286.0 375.7,286.0 379.4,286.0 383.0,286.0 386.6,286.0 390.2,286.0 393.9,286.0 397.5,286.0 401.1,286.0 404.8,286.0 408.4,286.0 412.0,286.0 415.6,286.0 419.3,286.0 422.9,286.0 426.5,286.0 430.1,286.0 433.8,286.0 437.4,286.0 441.0,286.0 444.7,286.0 448.3,286.0 451.9,286.0 455.5,286.0 459.2,286.0 462.8,286.0 466.4,286.0 470.0,286.0 473.7,286.0 477.3,286.0 480.9,286.0 484.6,286.0 488.2,286.0 491.8,286.0 495.4,286.0 499.1,286.0 502.7,286.0 506.3,286.0 510.0,286.0 513.6,286.0 517.2,286.0 520.8,286.0 524.5,286.0 528.1,286.0 531.7,286.0 535.3,286.0 539.0,286.0 542.6,286.0 546.2,286.0 549.9,286.0 553.5,286.0 557.1,286.0 560.7,286.0 564.4,286.0 568.0,286.0 571.6,286.0 575.2,286.0 578.9,286.0 582.5,286.0 586.1,286.0 589.8,286.0 593.4,286.0 597.0,286.0 600.6,286.0 604.3,286.0 607.9,286.0 611.5,286.0 615.1,280.0 618.8,268.0 622.4,268.0 626.0,268.0 629.7,268.0 633.3,262.0 636.9,262.0 640.5,262.0 644.2,268.0 647.8,268.0 651.4,274.0 655.1,274.0 658.7,274.0 662.3,268.0 665.9,268.0 669.6,268.0 673.2,274.0 676.8,274.0 680.4,274.0 684.1,274.0 687.7,268.0 691.3,268.0 695.0,262.0 698.6,262.0 702.2,268.0 705.8,268.0 709.5,268.0 713.1,262.0 716.7,262.0 720.3,274.0 724.0,262.0 727.6,262.0 731.2,262.0 734.9,262.0 738.5,268.0 742.1,268.0 745.7,274.0 749.4,280.0 753.0,280.0 756.6,280.0 760.3,280.0 763.9,280.0 767.5,280.0 771.1,286.0 774.8,286.0 778.4,286.0 782.0,280.0 785.6,274.0 789.3,274.0 792.9,280.0 796.5,274.0 800.2,274.0 803.8,268.0 807.4,268.0 811.0,268.0 814.7,268.0 818.3,280.0 821.9,274.0 825.5,280.0 829.2,280.0 832.8,286.0 836.4,286.0 840.1,286.0 843.7,286.0 847.3,286.0 850.9,286.0 854.6,286.0 858.2,286.0 861.8,286.0 865.4,286.0 869.1,286.0 872.7,286.0 876.3,280.0 880.0,280.0 883.6,280.0 887.2,268.0 890.8,280.0 894.5,268.0 898.1,274.0 901.7,274.0 905.4,286.0 909.0,280.0 912.6,286.0 916.2,280.0 919.9,286.0 923.5,286.0 927.1,286.0 930.7,280.0 934.4,274.0 938.0,280.0"/><polyline fill="none" stroke="#ef4444" stroke-width="2.5" stroke-linejoin="round" stroke-linecap="round" points="42.0,280.0 45.6,280.0 49.3,268.0 52.9,262.0 56.5,286.0 60.1,286.0 63.8,286.0 67.4,286.0 71.0,280.0 74.6,286.0 78.3,286.0 81.9,286.0 85.5,286.0 89.2,286.0 92.8,286.0 96.4,286.0 100.0,286.0 103.7,286.0 107.3,286.0 110.9,286.0 114.6,286.0 118.2,286.0 121.8,286.0 125.4,286.0 129.1,286.0 132.7,286.0 136.3,286.0 139.9,286.0 143.6,286.0 147.2,286.0 150.8,286.0 154.5,286.0 158.1,274.0 161.7,256.0 165.3,286.0 169.0,286.0 172.6,286.0 176.2,286.0 179.8,286.0 183.5,286.0 187.1,286.0 190.7,286.0 194.4,286.0 198.0,286.0 201.6,286.0 205.2,286.0 208.9,286.0 212.5,286.0 216.1,280.0 219.7,286.0 223.4,286.0 227.0,286.0 230.6,286.0 234.3,286.0 237.9,286.0 241.5,286.0 245.1,286.0 248.8,286.0 252.4,286.0 256.0,286.0 259.7,286.0 263.3,286.0 266.9,280.0 270.5,286.0 274.2,286.0 277.8,286.0 281.4,286.0 285.0,286.0 288.7,286.0 292.3,286.0 295.9,286.0 299.6,286.0 303.2,286.0 306.8,286.0 310.4,286.0 314.1,274.0 317.7,274.0 321.3,274.0 324.9,274.0 328.6,274.0 332.2,274.0 335.8,274.0 339.5,274.0 343.1,274.0 346.7,274.0 350.3,274.0 354.0,274.0 357.6,274.0 361.2,274.0 364.9,274.0 368.5,274.0 372.1,274.0 375.7,274.0 379.4,274.0 383.0,274.0 386.6,274.0 390.2,274.0 393.9,274.0 397.5,274.0 401.1,274.0 404.8,274.0 408.4,274.0 412.0,274.0 415.6,274.0 419.3,274.0 422.9,274.0 426.5,274.0 430.1,274.0 433.8,274.0 437.4,274.0 441.0,274.0 444.7,274.0 448.3,274.0 451.9,274.0 455.5,274.0 459.2,274.0 462.8,274.0 466.4,274.0 470.0,274.0 473.7,274.0 477.3,274.0 480.9,274.0 484.6,274.0 488.2,274.0 491.8,274.0 495.4,274.0 499.1,274.0 502.7,274.0 506.3,274.0 510.0,274.0 513.6,274.0 517.2,274.0 520.8,274.0 524.5,274.0 528.1,274.0 531.7,274.0 535.3,274.0 539.0,274.0 542.6,274.0 546.2,274.0 549.9,274.0 553.5,274.0 557.1,274.0 560.7,274.0 564.4,274.0 568.0,274.0 571.6,274.0 575.2,274.0 578.9,274.0 582.5,274.0 586.1,274.0 589.8,268.0 593.4,274.0 597.0,274.0 600.6,274.0 604.3,274.0 607.9,274.0 611.5,274.0 615.1,274.0 618.8,274.0 622.4,274.0 626.0,274.0 629.7,268.0 633.3,274.0 636.9,274.0 640.5,274.0 644.2,274.0 647.8,274.0 651.4,274.0 655.1,274.0 658.7,274.0 662.3,274.0 665.9,274.0 669.6,268.0 673.2,274.0 676.8,274.0 680.4,274.0 684.1,274.0 687.7,274.0 691.3,274.0 695.0,274.0 698.6,274.0 702.2,274.0 705.8,274.0 709.5,274.0 713.1,274.0 716.7,274.0 720.3,250.0 724.0,274.0 727.6,274.0 731.2,274.0 734.9,274.0 738.5,274.0 742.1,274.0 745.7,274.0 749.4,274.0 753.0,274.0 756.6,274.0 760.3,274.0 763.9,274.0 767.5,274.0 771.1,274.0 774.8,274.0 778.4,274.0 782.0,274.0 785.6,268.0 789.3,274.0 792.9,280.0 796.5,286.0 800.2,286.0 803.8,286.0 807.4,286.0 811.0,286.0 814.7,280.0 818.3,280.0 821.9,286.0 825.5,286.0 829.2,280.0 832.8,286.0 836.4,286.0 840.1,286.0 843.7,286.0 847.3,286.0 850.9,280.0 854.6,286.0 858.2,286.0 861.8,286.0 865.4,286.0 869.1,286.0 872.7,286.0 876.3,286.0 880.0,286.0 883.6,286.0 887.2,286.0 890.8,280.0 894.5,280.0 898.1,286.0 901.7,280.0 905.4,286.0 909.0,286.0 912.6,286.0 916.2,286.0 919.9,286.0 923.5,286.0 927.1,286.0 930.7,286.0 934.4,286.0 938.0,286.0"/><polyline fill="none" stroke="#a855f7" stroke-width="2.5" stroke-linejoin="round" stroke-linecap="round" points="42.0,286.0 45.6,286.0 49.3,286.0 52.9,286.0 56.5,286.0 60.1,286.0 63.8,286.0 67.4,286.0 71.0,286.0 74.6,286.0 78.3,286.0 81.9,286.0 85.5,286.0 89.2,286.0 92.8,286.0 96.4,286.0 100.0,286.0 103.7,286.0 107.3,286.0 110.9,286.0 114.6,286.0 118.2,286.0 121.8,286.0 125.4,286.0 129.1,286.0 132.7,286.0 136.3,286.0 139.9,286.0 143.6,286.0 147.2,286.0 150.8,286.0 154.5,286.0 158.1,286.0 161.7,286.0 165.3,286.0 169.0,286.0 172.6,286.0 176.2,286.0 179.8,286.0 183.5,286.0 187.1,286.0 190.7,286.0 194.4,286.0 198.0,286.0 201.6,286.0 205.2,286.0 208.9,286.0 212.5,286.0 216.1,286.0 219.7,286.0 223.4,286.0 227.0,286.0 230.6,286.0 234.3,286.0 237.9,286.0 241.5,286.0 245.1,286.0 248.8,286.0 252.4,286.0 256.0,286.0 259.7,286.0 263.3,286.0 266.9,286.0 270.5,286.0 274.2,286.0 277.8,286.0 281.4,286.0 285.0,286.0 288.7,286.0 292.3,286.0 295.9,280.0 299.6,286.0 303.2,286.0 306.8,286.0 310.4,286.0 314.1,286.0 317.7,286.0 321.3,286.0 324.9,286.0 328.6,286.0 332.2,286.0 335.8,286.0 339.5,286.0 343.1,286.0 346.7,286.0 350.3,286.0 354.0,286.0 357.6,286.0 361.2,286.0 364.9,286.0 368.5,286.0 372.1,286.0 375.7,286.0 379.4,286.0 383.0,286.0 386.6,286.0 390.2,286.0 393.9,286.0 397.5,286.0 401.1,286.0 404.8,286.0 408.4,286.0 412.0,286.0 415.6,286.0 419.3,286.0 422.9,286.0 426.5,286.0 430.1,286.0 433.8,286.0 437.4,286.0 441.0,286.0 444.7,286.0 448.3,286.0 451.9,286.0 455.5,286.0 459.2,286.0 462.8,286.0 466.4,286.0 470.0,286.0 473.7,286.0 477.3,286.0 480.9,286.0 484.6,286.0 488.2,286.0 491.8,286.0 495.4,286.0 499.1,286.0 502.7,286.0 506.3,286.0 510.0,286.0 513.6,286.0 517.2,286.0 520.8,286.0 524.5,286.0 528.1,286.0 531.7,286.0 535.3,286.0 539.0,286.0 542.6,286.0 546.2,286.0 549.9,286.0 553.5,286.0 557.1,286.0 560.7,286.0 564.4,286.0 568.0,286.0 571.6,286.0 575.2,286.0 578.9,286.0 582.5,286.0 586.1,286.0 589.8,286.0 593.4,286.0 597.0,286.0 600.6,286.0 604.3,286.0 607.9,286.0 611.5,280.0 615.1,286.0 618.8,286.0 622.4,286.0 626.0,286.0 629.7,286.0 633.3,286.0 636.9,286.0 640.5,286.0 644.2,286.0 647.8,286.0 651.4,286.0 655.1,286.0 658.7,286.0 662.3,286.0 665.9,286.0 669.6,286.0 673.2,286.0 676.8,286.0 680.4,286.0 684.1,286.0 687.7,286.0 691.3,286.0 695.0,286.0 698.6,286.0 702.2,286.0 705.8,286.0 709.5,286.0 713.1,286.0 716.7,286.0 720.3,286.0 724.0,286.0 727.6,286.0 731.2,286.0 734.9,286.0 738.5,286.0 742.1,286.0 745.7,286.0 749.4,286.0 753.0,286.0 756.6,286.0 760.3,286.0 763.9,286.0 767.5,286.0 771.1,286.0 774.8,286.0 778.4,286.0 782.0,286.0 785.6,286.0 789.3,286.0 792.9,286.0 796.5,286.0 800.2,286.0 803.8,286.0 807.4,286.0 811.0,286.0 814.7,286.0 818.3,286.0 821.9,280.0 825.5,286.0 829.2,286.0 832.8,286.0 836.4,286.0 840.1,286.0 843.7,286.0 847.3,286.0 850.9,286.0 854.6,286.0 858.2,280.0 861.8,286.0 865.4,286.0 869.1,286.0 872.7,286.0 876.3,286.0 880.0,286.0 883.6,286.0 887.2,286.0 890.8,286.0 894.5,286.0 898.1,286.0 901.7,286.0 905.4,286.0 909.0,286.0 912.6,286.0 916.2,286.0 919.9,286.0 923.5,286.0 927.1,286.0 930.7,286.0 934.4,286.0 938.0,286.0"/><text x="42" y="308" font-size="11" fill="#5a688a">19/06 12:43</text><text x="938" y="308" text-anchor="end" font-size="11" fill="#5a688a">03/07 08:33</text></svg>