<svg xmlns="http://www.w3.org/2000/svg" viewBox="0 0 960 320" width="960" height="320" font-family="Segoe UI, system-ui, -apple-system, Roboto, Helvetica, Arial, sans-serif" role="img" aria-label="Availability history per region"><rect x="0.5" y="0.5" width="959" height="319" rx="14" fill="#0d1117" stroke="#2c3a5e"/><text x="42" y="26" font-size="14" font-weight="600" fill="#e6ecff">History · 72 points</text><circle cx="47" cy="40" r="5" fill="#22c55e"/><text x="57" y="44" font-size="12" fill="#9fb0d4">Available</text><circle cx="139.8" cy="40" r="5" fill="#f59e0b"/><text x="149.8" y="44" font-size="12" fill="#9fb0d4">Saturated</text><circle cx="232.60000000000002" cy="40" r="5" fill="#ef4444"/><text x="242.60000000000002" y="44" font-size="12" fill="#9fb0d4">Error</text><circle cx="296.6" cy="40" r="5" fill="#a855f7"/><text x="306.6" y="44" font-size="12" fill="#9fb0d4">Timeout</text><line x1="42" y1="286.0" x2="938" y2="286.0" stroke="#21304f" stroke-width="1"/><text x="35" y="289.0" text-anchor="end" font-size="11" fill="#9fb0d4">0</text><line x1="42" y1="227.5" x2="938" y2="227.5" stroke="#21304f" stroke-width="1"/><text x="35" y="230.5" text-anchor="end" font-size="11" fill="#9fb0d4">10</text><line x1="42" y1="169.0" x2="938" y2="169.0" stroke="#21304f" stroke-width="1"/><text x="35" y="172.0" text-anchor="end" font-size="11" fill="#9fb0d4">19</text><line x1="42" y1="110.5" x2="938" y2="110.5" stroke="#21304f" stroke-width="1"/><text x="35" y="113.5" text-anchor="end" font-size="11" fill="#9fb0d4">28</text><line x1="42" y1="52.0" x2="938" y2="52.0" stroke="#21304f" stroke-width="1"/><text x="35" y="55.0" text-anchor="end" font-size="11" fill="#9fb0d4">38</text><polyline fill="none" stroke="#22c55e" stroke-width="2.5" stroke-linejoin="round" stroke-linecap="round" points="42.0,64.3 54.6,224.4 67.2,82.8 79.9,88.9 92.5,82.8 105.1,76.6 117.7,76.6 130.3,76.6 143.0,76.6 155.6,76.6 168.2,76.6 180.8,76.6 193.4,76.6 206.1,76.6 218.7,76.6 231.3,70.5 243.9,70.5 256.5,82.8 269.2,82.8 281.8,82.8 294.4,88.9 307.0,88.9 319.6,88.9 332.3,88.9 344.9,88.9 357.5,88.9 370.1,88.9 382.7,88.9 395.4,88.9 408.0,82.8 420.6,82.8 433.2,82.8 445.8,82.8 458.5,76.6 471.1,76.6 483.7,76.6 496.3,76.6 508.9,76.6 521.5,82.8 534.2,82.8 546.8,82.8 559.4,82.8 572.0,76.6 584.6,76.6 597.3,76.6 609.9,76.6 622.5,76.6 635.1,76.6 647.7,76.6 660.4,82.8 673.0,82.8 685.6,82.8 698.2,82.8 710.8,76.6 723.5,76.6 736.1,76.6 748.7,76.6 761.3,76.6 773.9,76.6 786.6,76.6 799.2,76.6 811.8,82.8 824.4,76.6 837.0,76.6 849.7,76.6 862.3,76.6 874.9,76.6 887.5,82.8 900.1,76.6 912.8,76.6 925.4,76.6 938.0,76.6"/><polyline fill="none" stroke="#f59e0b" stroke-width="2.5" stroke-linejoin="round" stroke-linecap="round" points="42.0,273.7 54.6,267.5 67.2,255.2 79.9,249.1 92.5,255.2 105.1,261.4 117.7,261.4 130.3,261.4 143.0,261.4 155.6,261.4 168.2,261.4 180.8,261.4 193.4,261.4 206.1,261.4 218.7,261.4 231.3,267.5 243.9,267.5 256.5,261.4 269.2,255.2 281.8,255.2 294.4,249.1 307.0,249.1 319.6,249.1 332.3,249.1 344.9,249.1 357.5,249.1 370.1,249.1 382.7,249.1 395.4,249.1 408.0,255.2 420.6,255.2 433.2,255.2 445.8,255.2 458.5,261.4 471.1,261.4 483.7,261.4 496.3,261.4 508.9,261.4 521.5,255.2 534.2,255.2 546.8,255.2 559.4,255.2 572.0,261.4 584.6,261.4 597.3,261.4 609.9,261.4 622.5,261.4 635.1,261.4 647.7,261.4 660.4,255.2 673.0,255.2 685.6,255.2 698.2,261.4 710.8,261.4 723.5,261.4 736.1,261.4 748.7,261.4 761.3,261.4 773.9,261.4 786.6,261.4 799.2,261.4 811.8,255.2 824.4,261.4 837.0,261.4 849.7,261.4 862.3,261.4 874.9,261.4 887.5,261.4 900.1,261.4 912.8,261.4 925.4,261.4 938.0,261.4"/><polyline fill="none" stroke="#ef4444" stroke-width="2.5" stroke-linejoin="round" stroke-linecap="round" points="42.0,286.0 54.6,132.1 67.2,286.0 79.9,286.0 92.5,286.0 105.1,286.0 117.7,286.0 130.3,286.0 143.0,286.0 155.6,286.0 168.2,286.0 180.8,286.0 193.4,286.0 206.1,286.0 218.7,286.0 231.3,286.0 243.9,286.0 256.5,279.8 269.2,286.0 281.8,286.0 294.4,286.0 307.0,286.0 319.6,286.0 332.3,286.0 344.9,286.0 357.5,286.0 370.1,286.0 382.7,286.0 395.4,286.0 408.0,286.0 420.6,286.0 433.2,286.0 445.8,286.0 458.5,286.0 471.1,286.0 483.7,286.0 496.3,286.0 508.9,286.0 521.5,286.0 534.2,286.0 546.8,286.0 559.4,286.0 572.0,286.0 584.6,286.0 597.3,286.0 609.9,286.0 622.5,286.0 635.1,286.0 647.7,286.0 660.4,286.0 673.0,286.0 685.6,286.0 698.2,286.0 710.8,286.0 723.5,286.0 736.1,286.0 748.7,286.0 761.3,286.0 773.9,286.0 786.6,286.0 799.2,286.0 811.8,286.0 824.4,286.0 837.0,286.0 849.7,286.0 862.3,286.0 874.9,286.0 887.5,279.8 900.1,286.0 912.8,286.0 925.4,286.0 938.0,286.0"/><polyline fill="none" stroke="#a855f7" stroke-width="2.5" stroke-linejoin="round" stroke-linecap="round" points="42.0,286.0 54.6,286.0 67.2,286.0 79.9,286.0 92.5,286.0 105.1,286.0 117.7,286.0 130.3,286.0 143.0,286.0 155.6,286.0 168.2,286.0 180.8,286.0 193.4,286.0 206.1,286.0 218.7,286.0 231.3,286.0 243.9,286.0 256.5,286.0 269.2,286.0 281.8,286.0 294.4,286.0 307.0,286.0 319.6,286.0 332.3,286.0 344.9,286.0 357.5,286.0 370.1,286.0 382.7,286.0 395.4,286.0 408.0,286.0 420.6,286.0 433.2,286.0 445.8,286.0 458.5,286.0 471.1,286.0 483.7,286.0 496.3,286.0 508.9,286.0 521.5,286.0 534.2,286.0 546.8,286.0 559.4,286.0 572.0,286.0 584.6,286.0 597.3,286.0 609.9,286.0 622.5,286.0 635.1,286.0 647.7,286.0 660.4,286.0 673.0,286.0 685.6,286.0 698.2,279.8 710.8,286.0 723.5,286.0 736.1,286.0 748.7,286.0 761.3,286.0 773.9,286.0 786.6,286.0 799.2,286.0 811.8,286.0 824.4,286.0 837.0,286.0 849.7,286.0 862.3,286.0 874.9,286.0 887.5,286.0 900.1,286.0 912.8,286.0 925.4,286.0 938.0,286.0"/><text x="42" y="308" font-size="11" fill="#9fb0d4">19/06 15:39</text><text x="938" y="308" text-anchor="end" font-size="11" fill="#9fb0d4">19/07 13:35</text></svg>