<svg xmlns="http://www.w3.org/2000/svg" viewBox="0 0 960 320" width="960" height="320" font-family="Segoe UI, system-ui, -apple-system, Roboto, Helvetica, Arial, sans-serif" role="img" aria-label="Availability history per region"><rect x="0.5" y="0.5" width="959" height="319" rx="14" fill="#ffffff" stroke="#dce3f1"/><text x="42" y="26" font-size="14" font-weight="600" fill="#14203a">History · 326 points</text><circle cx="47" cy="40" r="5" fill="#22c55e"/><text x="57" y="44" font-size="12" fill="#5a688a">Available</text><circle cx="139.8" cy="40" r="5" fill="#f59e0b"/><text x="149.8" y="44" font-size="12" fill="#5a688a">Saturated</text><circle cx="232.60000000000002" cy="40" r="5" fill="#ef4444"/><text x="242.60000000000002" y="44" font-size="12" fill="#5a688a">Error</text><circle cx="296.6" cy="40" r="5" fill="#a855f7"/><text x="306.6" y="44" font-size="12" fill="#5a688a">Timeout</text><line x1="42" y1="286.0" x2="938" y2="286.0" stroke="#eef2f7" stroke-width="1"/><text x="35" y="289.0" text-anchor="end" font-size="11" fill="#5a688a">0</text><line x1="42" y1="227.5" x2="938" y2="227.5" stroke="#eef2f7" stroke-width="1"/><text x="35" y="230.5" text-anchor="end" font-size="11" fill="#5a688a">10</text><line x1="42" y1="169.0" x2="938" y2="169.0" stroke="#eef2f7" stroke-width="1"/><text x="35" y="172.0" text-anchor="end" font-size="11" fill="#5a688a">20</text><line x1="42" y1="110.5" x2="938" y2="110.5" stroke="#eef2f7" stroke-width="1"/><text x="35" y="113.5" text-anchor="end" font-size="11" fill="#5a688a">29</text><line x1="42" y1="52.0" x2="938" y2="52.0" stroke="#eef2f7" stroke-width="1"/><text x="35" y="55.0" text-anchor="end" font-size="11" fill="#5a688a">39</text><polyline fill="none" stroke="#22c55e" stroke-width="2.5" stroke-linejoin="round" stroke-linecap="round" points="42.0,70.0 44.8,70.0 47.5,88.0 50.3,88.0 53.0,76.0 55.8,76.0 58.5,76.0 61.3,70.0 64.1,76.0 66.8,70.0 69.6,64.0 72.3,58.0 75.1,58.0 77.8,58.0 80.6,58.0 83.4,58.0 86.1,58.0 88.9,58.0 91.6,58.0 94.4,58.0 97.1,58.0 99.9,58.0 102.7,58.0 105.4,58.0 108.2,58.0 110.9,58.0 113.7,58.0 116.4,58.0 119.2,58.0 122.0,58.0 124.7,58.0 127.5,70.0 130.2,76.0 133.0,94.0 135.7,64.0 138.5,64.0 141.2,58.0 144.0,58.0 146.8,58.0 149.5,70.0 152.3,76.0 155.0,76.0 157.8,82.0 160.5,82.0 163.3,82.0 166.1,82.0 168.8,76.0 171.6,64.0 174.3,70.0 177.1,70.0 179.8,82.0 182.6,76.0 185.4,76.0 188.1,82.0 190.9,76.0 193.6,76.0 196.4,76.0 199.1,64.0 201.9,64.0 204.7,76.0 207.4,76.0 210.2,76.0 212.9,88.0 215.7,70.0 218.4,64.0 221.2,58.0 224.0,58.0 226.7,70.0 229.5,70.0 232.2,70.0 235.0,76.0 237.7,70.0 240.5,70.0 243.3,70.0 246.0,70.0 248.8,76.0 251.5,82.0 254.3,76.0 257.0,70.0 259.8,70.0 262.6,70.0 265.3,70.0 268.1,76.0 270.8,70.0 273.6,70.0 276.3,70.0 279.1,70.0 281.9,70.0 284.6,70.0 287.4,70.0 290.1,70.0 292.9,70.0 295.6,70.0 298.4,70.0 301.2,70.0 303.9,70.0 306.7,70.0 309.4,70.0 312.2,70.0 314.9,70.0 317.7,70.0 320.4,70.0 323.2,70.0 326.0,70.0 328.7,70.0 331.5,70.0 334.2,70.0 337.0,70.0 339.7,70.0 342.5,70.0 345.3,70.0 348.0,70.0 350.8,70.0 353.5,70.0 356.3,70.0 359.0,70.0 361.8,70.0 364.6,70.0 367.3,70.0 370.1,70.0 372.8,70.0 375.6,70.0 378.3,70.0 381.1,70.0 383.9,70.0 386.6,70.0 389.4,70.0 392.1,70.0 394.9,70.0 397.6,70.0 400.4,70.0 403.2,70.0 405.9,70.0 408.7,70.0 411.4,70.0 414.2,70.0 416.9,70.0 419.7,70.0 422.5,70.0 425.2,70.0 428.0,70.0 430.7,70.0 433.5,70.0 436.2,70.0 439.0,70.0 441.8,70.0 444.5,70.0 447.3,70.0 450.0,70.0 452.8,70.0 455.5,70.0 458.3,76.0 461.1,70.0 463.8,70.0 466.6,70.0 469.3,70.0 472.1,70.0 474.8,76.0 477.6,76.0 480.4,88.0 483.1,88.0 485.9,88.0 488.6,94.0 491.4,94.0 494.1,94.0 496.9,94.0 499.6,88.0 502.4,88.0 505.2,82.0 507.9,82.0 510.7,82.0 513.4,88.0 516.2,88.0 518.9,94.0 521.7,82.0 524.5,82.0 527.2,82.0 530.0,82.0 532.7,88.0 535.5,88.0 538.2,94.0 541.0,94.0 543.8,88.0 546.5,88.0 549.3,88.0 552.0,94.0 554.8,94.0 557.5,106.0 560.3,94.0 563.1,94.0 565.8,94.0 568.6,94.0 571.3,88.0 574.1,88.0 576.8,82.0 579.6,76.0 582.4,76.0 585.1,76.0 587.9,76.0 590.6,76.0 593.4,76.0 596.1,70.0 598.9,70.0 601.7,70.0 604.4,76.0 607.2,88.0 609.9,82.0 612.7,70.0 615.4,70.0 618.2,70.0 621.0,76.0 623.7,76.0 626.5,76.0 629.2,82.0 632.0,70.0 634.7,76.0 637.5,64.0 640.3,70.0 643.0,58.0 645.8,58.0 648.5,58.0 651.3,58.0 654.0,58.0 656.8,64.0 659.6,58.0 662.3,64.0 665.1,58.0 667.8,58.0 670.6,58.0 673.3,58.0 676.1,64.0 678.8,64.0 681.6,64.0 684.4,76.0 687.1,70.0 689.9,82.0 692.6,70.0 695.4,76.0 698.1,58.0 700.9,64.0 703.7,58.0 706.4,64.0 709.2,58.0 711.9,58.0 714.7,58.0 717.4,64.0 720.2,70.0 723.0,64.0 725.7,64.0 728.5,64.0 731.2,70.0 734.0,70.0 736.7,64.0 739.5,70.0 742.3,70.0 745.0,70.0 747.8,58.0 750.5,58.0 753.3,58.0 756.0,58.0 758.8,58.0 761.6,64.0 764.3,58.0 767.1,58.0 769.8,58.0 772.6,58.0 775.3,58.0 778.1,58.0 780.9,58.0 783.6,58.0 786.4,64.0 789.1,58.0 791.9,58.0 794.6,58.0 797.4,58.0 800.2,58.0 802.9,58.0 805.7,58.0 808.4,64.0 811.2,58.0 813.9,58.0 816.7,58.0 819.5,58.0 822.2,58.0 825.0,58.0 827.7,58.0 830.5,58.0 833.2,58.0 836.0,58.0 838.8,58.0 841.5,58.0 844.3,58.0 847.0,58.0 849.8,58.0 852.5,58.0 855.3,58.0 858.0,58.0 860.8,58.0 863.6,64.0 866.3,64.0 869.1,58.0 871.8,58.0 874.6,58.0 877.3,64.0 880.1,64.0 882.9,76.0 885.6,64.0 888.4,64.0 891.1,70.0 893.9,58.0 896.6,58.0 899.4,58.0 902.2,58.0 904.9,58.0 907.7,58.0 910.4,70.0 913.2,64.0 915.9,64.0 918.7,64.0 921.5,64.0 924.2,70.0 927.0,70.0 929.7,76.0 932.5,76.0 935.2,82.0 938.0,88.0"/><polyline fill="none" stroke="#f59e0b" stroke-width="2.5" stroke-linejoin="round" stroke-linecap="round" points="42.0,274.0 44.8,274.0 47.5,274.0 50.3,280.0 53.0,268.0 55.8,268.0 58.5,268.0 61.3,274.0 64.1,274.0 66.8,274.0 69.6,280.0 72.3,286.0 75.1,286.0 77.8,286.0 80.6,286.0 83.4,286.0 86.1,286.0 88.9,286.0 91.6,286.0 94.4,286.0 97.1,286.0 99.9,286.0 102.7,286.0 105.4,286.0 108.2,286.0 110.9,286.0 113.7,286.0 116.4,286.0 119.2,286.0 122.0,286.0 124.7,286.0 127.5,274.0 130.2,280.0 133.0,280.0 135.7,280.0 138.5,280.0 141.2,286.0 144.0,286.0 146.8,286.0 149.5,274.0 152.3,268.0 155.0,268.0 157.8,262.0 160.5,262.0 163.3,262.0 166.1,262.0 168.8,268.0 171.6,280.0 174.3,280.0 177.1,274.0 179.8,262.0 182.6,268.0 185.4,268.0 188.1,262.0 190.9,268.0 193.6,268.0 196.4,268.0 199.1,280.0 201.9,280.0 204.7,268.0 207.4,268.0 210.2,268.0 212.9,262.0 215.7,274.0 218.4,280.0 221.2,286.0 224.0,286.0 226.7,274.0 229.5,274.0 232.2,274.0 235.0,274.0 237.7,274.0 240.5,274.0 243.3,274.0 246.0,274.0 248.8,280.0 251.5,274.0 254.3,280.0 257.0,286.0 259.8,286.0 262.6,286.0 265.3,286.0 268.1,280.0 270.8,286.0 273.6,286.0 276.3,286.0 279.1,286.0 281.9,286.0 284.6,286.0 287.4,286.0 290.1,286.0 292.9,286.0 295.6,286.0 298.4,286.0 301.2,286.0 303.9,286.0 306.7,286.0 309.4,286.0 312.2,286.0 314.9,286.0 317.7,286.0 320.4,286.0 323.2,286.0 326.0,286.0 328.7,286.0 331.5,286.0 334.2,286.0 337.0,286.0 339.7,286.0 342.5,286.0 345.3,286.0 348.0,286.0 350.8,286.0 353.5,286.0 356.3,286.0 359.0,286.0 361.8,286.0 364.6,286.0 367.3,286.0 370.1,286.0 372.8,286.0 375.6,286.0 378.3,286.0 381.1,286.0 383.9,286.0 386.6,286.0 389.4,286.0 392.1,286.0 394.9,286.0 397.6,286.0 400.4,286.0 403.2,286.0 405.9,286.0 408.7,286.0 411.4,286.0 414.2,286.0 416.9,286.0 419.7,286.0 422.5,286.0 425.2,286.0 428.0,286.0 430.7,286.0 433.5,286.0 436.2,286.0 439.0,286.0 441.8,286.0 444.5,286.0 447.3,286.0 450.0,286.0 452.8,286.0 455.5,286.0 458.3,286.0 461.1,286.0 463.8,286.0 466.6,286.0 469.3,286.0 472.1,286.0 474.8,286.0 477.6,280.0 480.4,268.0 483.1,268.0 485.9,268.0 488.6,268.0 491.4,262.0 494.1,262.0 496.9,262.0 499.6,268.0 502.4,268.0 505.2,274.0 507.9,274.0 510.7,274.0 513.4,268.0 516.2,268.0 518.9,268.0 521.7,274.0 524.5,274.0 527.2,274.0 530.0,274.0 532.7,268.0 535.5,268.0 538.2,262.0 541.0,262.0 543.8,268.0 546.5,268.0 549.3,268.0 552.0,262.0 554.8,262.0 557.5,274.0 560.3,262.0 563.1,262.0 565.8,262.0 568.6,262.0 571.3,268.0 574.1,268.0 576.8,274.0 579.6,280.0 582.4,280.0 585.1,280.0 587.9,280.0 590.6,280.0 593.4,280.0 596.1,286.0 598.9,286.0 601.7,286.0 604.4,280.0 607.2,274.0 609.9,274.0 612.7,280.0 615.4,274.0 618.2,274.0 621.0,268.0 623.7,268.0 626.5,268.0 629.2,268.0 632.0,280.0 634.7,274.0 637.5,280.0 640.3,280.0 643.0,286.0 645.8,286.0 648.5,286.0 651.3,286.0 654.0,286.0 656.8,286.0 659.6,286.0 662.3,286.0 665.1,286.0 667.8,286.0 670.6,286.0 673.3,286.0 676.1,280.0 678.8,280.0 681.6,280.0 684.4,268.0 687.1,280.0 689.9,268.0 692.6,274.0 695.4,274.0 698.1,286.0 700.9,280.0 703.7,286.0 706.4,280.0 709.2,286.0 711.9,286.0 714.7,286.0 717.4,280.0 720.2,274.0 723.0,280.0 725.7,280.0 728.5,280.0 731.2,274.0 734.0,274.0 736.7,280.0 739.5,280.0 742.3,280.0 745.0,280.0 747.8,286.0 750.5,286.0 753.3,286.0 756.0,286.0 758.8,286.0 761.6,286.0 764.3,286.0 767.1,286.0 769.8,286.0 772.6,286.0 775.3,286.0 778.1,286.0 780.9,286.0 783.6,286.0 786.4,286.0 789.1,286.0 791.9,286.0 794.6,286.0 797.4,286.0 800.2,286.0 802.9,286.0 805.7,286.0 808.4,286.0 811.2,286.0 813.9,286.0 816.7,286.0 819.5,286.0 822.2,286.0 825.0,286.0 827.7,286.0 830.5,286.0 833.2,286.0 836.0,286.0 838.8,286.0 841.5,286.0 844.3,286.0 847.0,286.0 849.8,286.0 852.5,286.0 855.3,286.0 858.0,286.0 860.8,286.0 863.6,286.0 866.3,286.0 869.1,286.0 871.8,286.0 874.6,286.0 877.3,280.0 880.1,280.0 882.9,280.0 885.6,280.0 888.4,280.0 891.1,274.0 893.9,286.0 896.6,286.0 899.4,286.0 902.2,286.0 904.9,286.0 907.7,286.0 910.4,286.0 913.2,280.0 915.9,280.0 918.7,280.0 921.5,280.0 924.2,274.0 927.0,274.0 929.7,268.0 932.5,268.0 935.2,262.0 938.0,262.0"/><polyline fill="none" stroke="#ef4444" stroke-width="2.5" stroke-linejoin="round" stroke-linecap="round" points="42.0,280.0 44.8,280.0 47.5,268.0 50.3,262.0 53.0,286.0 55.8,286.0 58.5,286.0 61.3,286.0 64.1,280.0 66.8,286.0 69.6,286.0 72.3,286.0 75.1,286.0 77.8,286.0 80.6,286.0 83.4,286.0 86.1,286.0 88.9,286.0 91.6,286.0 94.4,286.0 97.1,286.0 99.9,286.0 102.7,286.0 105.4,286.0 108.2,286.0 110.9,286.0 113.7,286.0 116.4,286.0 119.2,286.0 122.0,286.0 124.7,286.0 127.5,286.0 130.2,274.0 133.0,256.0 135.7,286.0 138.5,286.0 141.2,286.0 144.0,286.0 146.8,286.0 149.5,286.0 152.3,286.0 155.0,286.0 157.8,286.0 160.5,286.0 163.3,286.0 166.1,286.0 168.8,286.0 171.6,286.0 174.3,280.0 177.1,286.0 179.8,286.0 182.6,286.0 185.4,286.0 188.1,286.0 190.9,286.0 193.6,286.0 196.4,286.0 199.1,286.0 201.9,286.0 204.7,286.0 207.4,286.0 210.2,286.0 212.9,280.0 215.7,286.0 218.4,286.0 221.2,286.0 224.0,286.0 226.7,286.0 229.5,286.0 232.2,286.0 235.0,286.0 237.7,286.0 240.5,286.0 243.3,286.0 246.0,286.0 248.8,274.0 251.5,274.0 254.3,274.0 257.0,274.0 259.8,274.0 262.6,274.0 265.3,274.0 268.1,274.0 270.8,274.0 273.6,274.0 276.3,274.0 279.1,274.0 281.9,274.0 284.6,274.0 287.4,274.0 290.1,274.0 292.9,274.0 295.6,274.0 298.4,274.0 301.2,274.0 303.9,274.0 306.7,274.0 309.4,274.0 312.2,274.0 314.9,274.0 317.7,274.0 320.4,274.0 323.2,274.0 326.0,274.0 328.7,274.0 331.5,274.0 334.2,274.0 337.0,274.0 339.7,274.0 342.5,274.0 345.3,274.0 348.0,274.0 350.8,274.0 353.5,274.0 356.3,274.0 359.0,274.0 361.8,274.0 364.6,274.0 367.3,274.0 370.1,274.0 372.8,274.0 375.6,274.0 378.3,274.0 381.1,274.0 383.9,274.0 386.6,274.0 389.4,274.0 392.1,274.0 394.9,274.0 397.6,274.0 400.4,274.0 403.2,274.0 405.9,274.0 408.7,274.0 411.4,274.0 414.2,274.0 416.9,274.0 419.7,274.0 422.5,274.0 425.2,274.0 428.0,274.0 430.7,274.0 433.5,274.0 436.2,274.0 439.0,274.0 441.8,274.0 444.5,274.0 447.3,274.0 450.0,274.0 452.8,274.0 455.5,274.0 458.3,268.0 461.1,274.0 463.8,274.0 466.6,274.0 469.3,274.0 472.1,274.0 474.8,274.0 477.6,274.0 480.4,274.0 483.1,274.0 485.9,274.0 488.6,268.0 491.4,274.0 494.1,274.0 496.9,274.0 499.6,274.0 502.4,274.0 505.2,274.0 507.9,274.0 510.7,274.0 513.4,274.0 516.2,274.0 518.9,268.0 521.7,274.0 524.5,274.0 527.2,274.0 530.0,274.0 532.7,274.0 535.5,274.0 538.2,274.0 541.0,274.0 543.8,274.0 546.5,274.0 549.3,274.0 552.0,274.0 554.8,274.0 557.5,250.0 560.3,274.0 563.1,274.0 565.8,274.0 568.6,274.0 571.3,274.0 574.1,274.0 576.8,274.0 579.6,274.0 582.4,274.0 585.1,274.0 587.9,274.0 590.6,274.0 593.4,274.0 596.1,274.0 598.9,274.0 601.7,274.0 604.4,274.0 607.2,268.0 609.9,274.0 612.7,280.0 615.4,286.0 618.2,286.0 621.0,286.0 623.7,286.0 626.5,286.0 629.2,280.0 632.0,280.0 634.7,286.0 637.5,286.0 640.3,280.0 643.0,286.0 645.8,286.0 648.5,286.0 651.3,286.0 654.0,286.0 656.8,280.0 659.6,286.0 662.3,286.0 665.1,286.0 667.8,286.0 670.6,286.0 673.3,286.0 676.1,286.0 678.8,286.0 681.6,286.0 684.4,286.0 687.1,280.0 689.9,280.0 692.6,286.0 695.4,280.0 698.1,286.0 700.9,286.0 703.7,286.0 706.4,286.0 709.2,286.0 711.9,286.0 714.7,286.0 717.4,286.0 720.2,286.0 723.0,286.0 725.7,286.0 728.5,286.0 731.2,286.0 734.0,286.0 736.7,286.0 739.5,280.0 742.3,286.0 745.0,280.0 747.8,286.0 750.5,286.0 753.3,286.0 756.0,286.0 758.8,286.0 761.6,286.0 764.3,286.0 767.1,286.0 769.8,286.0 772.6,286.0 775.3,286.0 778.1,286.0 780.9,286.0 783.6,286.0 786.4,280.0 789.1,286.0 791.9,286.0 794.6,286.0 797.4,286.0 800.2,286.0 802.9,286.0 805.7,286.0 808.4,286.0 811.2,286.0 813.9,286.0 816.7,286.0 819.5,286.0 822.2,286.0 825.0,286.0 827.7,286.0 830.5,286.0 833.2,286.0 836.0,286.0 838.8,286.0 841.5,286.0 844.3,286.0 847.0,286.0 849.8,286.0 852.5,286.0 855.3,286.0 858.0,286.0 860.8,286.0 863.6,280.0 866.3,280.0 869.1,286.0 871.8,286.0 874.6,286.0 877.3,286.0 880.1,286.0 882.9,274.0 885.6,286.0 888.4,286.0 891.1,286.0 893.9,286.0 896.6,286.0 899.4,286.0 902.2,286.0 904.9,286.0 907.7,286.0 910.4,286.0 913.2,286.0 915.9,286.0 918.7,286.0 921.5,286.0 924.2,286.0 927.0,286.0 929.7,286.0 932.5,286.0 935.2,286.0 938.0,280.0"/><polyline fill="none" stroke="#a855f7" stroke-width="2.5" stroke-linejoin="round" stroke-linecap="round" points="42.0,286.0 44.8,286.0 47.5,286.0 50.3,286.0 53.0,286.0 55.8,286.0 58.5,286.0 61.3,286.0 64.1,286.0 66.8,286.0 69.6,286.0 72.3,286.0 75.1,286.0 77.8,286.0 80.6,286.0 83.4,286.0 86.1,286.0 88.9,286.0 91.6,286.0 94.4,286.0 97.1,286.0 99.9,286.0 102.7,286.0 105.4,286.0 108.2,286.0 110.9,286.0 113.7,286.0 116.4,286.0 119.2,286.0 122.0,286.0 124.7,286.0 127.5,286.0 130.2,286.0 133.0,286.0 135.7,286.0 138.5,286.0 141.2,286.0 144.0,286.0 146.8,286.0 149.5,286.0 152.3,286.0 155.0,286.0 157.8,286.0 160.5,286.0 163.3,286.0 166.1,286.0 168.8,286.0 171.6,286.0 174.3,286.0 177.1,286.0 179.8,286.0 182.6,286.0 185.4,286.0 188.1,286.0 190.9,286.0 193.6,286.0 196.4,286.0 199.1,286.0 201.9,286.0 204.7,286.0 207.4,286.0 210.2,286.0 212.9,286.0 215.7,286.0 218.4,286.0 221.2,286.0 224.0,286.0 226.7,286.0 229.5,286.0 232.2,286.0 235.0,280.0 237.7,286.0 240.5,286.0 243.3,286.0 246.0,286.0 248.8,286.0 251.5,286.0 254.3,286.0 257.0,286.0 259.8,286.0 262.6,286.0 265.3,286.0 268.1,286.0 270.8,286.0 273.6,286.0 276.3,286.0 279.1,286.0 281.9,286.0 284.6,286.0 287.4,286.0 290.1,286.0 292.9,286.0 295.6,286.0 298.4,286.0 301.2,286.0 303.9,286.0 306.7,286.0 309.4,286.0 312.2,286.0 314.9,286.0 317.7,286.0 320.4,286.0 323.2,286.0 326.0,286.0 328.7,286.0 331.5,286.0 334.2,286.0 337.0,286.0 339.7,286.0 342.5,286.0 345.3,286.0 348.0,286.0 350.8,286.0 353.5,286.0 356.3,286.0 359.0,286.0 361.8,286.0 364.6,286.0 367.3,286.0 370.1,286.0 372.8,286.0 375.6,286.0 378.3,286.0 381.1,286.0 383.9,286.0 386.6,286.0 389.4,286.0 392.1,286.0 394.9,286.0 397.6,286.0 400.4,286.0 403.2,286.0 405.9,286.0 408.7,286.0 411.4,286.0 414.2,286.0 416.9,286.0 419.7,286.0 422.5,286.0 425.2,286.0 428.0,286.0 430.7,286.0 433.5,286.0 436.2,286.0 439.0,286.0 441.8,286.0 444.5,286.0 447.3,286.0 450.0,286.0 452.8,286.0 455.5,286.0 458.3,286.0 461.1,286.0 463.8,286.0 466.6,286.0 469.3,286.0 472.1,286.0 474.8,280.0 477.6,286.0 480.4,286.0 483.1,286.0 485.9,286.0 488.6,286.0 491.4,286.0 494.1,286.0 496.9,286.0 499.6,286.0 502.4,286.0 505.2,286.0 507.9,286.0 510.7,286.0 513.4,286.0 516.2,286.0 518.9,286.0 521.7,286.0 524.5,286.0 527.2,286.0 530.0,286.0 532.7,286.0 535.5,286.0 538.2,286.0 541.0,286.0 543.8,286.0 546.5,286.0 549.3,286.0 552.0,286.0 554.8,286.0 557.5,286.0 560.3,286.0 563.1,286.0 565.8,286.0 568.6,286.0 571.3,286.0 574.1,286.0 576.8,286.0 579.6,286.0 582.4,286.0 585.1,286.0 587.9,286.0 590.6,286.0 593.4,286.0 596.1,286.0 598.9,286.0 601.7,286.0 604.4,286.0 607.2,286.0 609.9,286.0 612.7,286.0 615.4,286.0 618.2,286.0 621.0,286.0 623.7,286.0 626.5,286.0 629.2,286.0 632.0,286.0 634.7,280.0 637.5,286.0 640.3,286.0 643.0,286.0 645.8,286.0 648.5,286.0 651.3,286.0 654.0,286.0 656.8,286.0 659.6,286.0 662.3,280.0 665.1,286.0 667.8,286.0 670.6,286.0 673.3,286.0 676.1,286.0 678.8,286.0 681.6,286.0 684.4,286.0 687.1,286.0 689.9,286.0 692.6,286.0 695.4,286.0 698.1,286.0 700.9,286.0 703.7,286.0 706.4,286.0 709.2,286.0 711.9,286.0 714.7,286.0 717.4,286.0 720.2,286.0 723.0,286.0 725.7,286.0 728.5,286.0 731.2,286.0 734.0,286.0 736.7,286.0 739.5,286.0 742.3,280.0 745.0,286.0 747.8,286.0 750.5,286.0 753.3,286.0 756.0,286.0 758.8,286.0 761.6,280.0 764.3,286.0 767.1,286.0 769.8,286.0 772.6,286.0 775.3,286.0 778.1,286.0 780.9,286.0 783.6,286.0 786.4,286.0 789.1,286.0 791.9,286.0 794.6,286.0 797.4,286.0 800.2,286.0 802.9,286.0 805.7,286.0 808.4,280.0 811.2,286.0 813.9,286.0 816.7,286.0 819.5,286.0 822.2,286.0 825.0,286.0 827.7,286.0 830.5,286.0 833.2,286.0 836.0,286.0 838.8,286.0 841.5,286.0 844.3,286.0 847.0,286.0 849.8,286.0 852.5,286.0 855.3,286.0 858.0,286.0 860.8,286.0 863.6,286.0 866.3,286.0 869.1,286.0 871.8,286.0 874.6,286.0 877.3,286.0 880.1,286.0 882.9,286.0 885.6,286.0 888.4,286.0 891.1,286.0 893.9,286.0 896.6,286.0 899.4,286.0 902.2,286.0 904.9,286.0 907.7,286.0 910.4,274.0 913.2,286.0 915.9,286.0 918.7,286.0 921.5,286.0 924.2,286.0 927.0,286.0 929.7,286.0 932.5,286.0 935.2,286.0 938.0,286.0"/><text x="42" y="308" font-size="11" fill="#5a688a">19/06 12:43</text><text x="938" y="308" text-anchor="end" font-size="11" fill="#5a688a">07/07 11:31</text></svg>