<svg xmlns="http://www.w3.org/2000/svg" viewBox="0 0 960 320" width="960" height="320" font-family="Segoe UI, system-ui, -apple-system, Roboto, Helvetica, Arial, sans-serif" role="img" aria-label="Availability history per region"><rect x="0.5" y="0.5" width="959" height="319" rx="14" fill="#ffffff" stroke="#dce3f1"/><text x="42" y="26" font-size="14" font-weight="600" fill="#14203a">History · 185 points</text><circle cx="47" cy="40" r="5" fill="#22c55e"/><text x="57" y="44" font-size="12" fill="#5a688a">Available</text><circle cx="139.8" cy="40" r="5" fill="#f59e0b"/><text x="149.8" y="44" font-size="12" fill="#5a688a">Saturated</text><circle cx="232.60000000000002" cy="40" r="5" fill="#ef4444"/><text x="242.60000000000002" y="44" font-size="12" fill="#5a688a">Error</text><circle cx="296.6" cy="40" r="5" fill="#a855f7"/><text x="306.6" y="44" font-size="12" fill="#5a688a">Timeout</text><line x1="42" y1="286.0" x2="938" y2="286.0" stroke="#eef2f7" stroke-width="1"/><text x="35" y="289.0" text-anchor="end" font-size="11" fill="#5a688a">0</text><line x1="42" y1="227.5" x2="938" y2="227.5" stroke="#eef2f7" stroke-width="1"/><text x="35" y="230.5" text-anchor="end" font-size="11" fill="#5a688a">10</text><line x1="42" y1="169.0" x2="938" y2="169.0" stroke="#eef2f7" stroke-width="1"/><text x="35" y="172.0" text-anchor="end" font-size="11" fill="#5a688a">20</text><line x1="42" y1="110.5" x2="938" y2="110.5" stroke="#eef2f7" stroke-width="1"/><text x="35" y="113.5" text-anchor="end" font-size="11" fill="#5a688a">29</text><line x1="42" y1="52.0" x2="938" y2="52.0" stroke="#eef2f7" stroke-width="1"/><text x="35" y="55.0" text-anchor="end" font-size="11" fill="#5a688a">39</text><polyline fill="none" stroke="#22c55e" stroke-width="2.5" stroke-linejoin="round" stroke-linecap="round" points="42.0,70.0 46.9,70.0 51.7,88.0 56.6,88.0 61.5,76.0 66.3,76.0 71.2,76.0 76.1,70.0 81.0,76.0 85.8,70.0 90.7,64.0 95.6,58.0 100.4,58.0 105.3,58.0 110.2,58.0 115.0,58.0 119.9,58.0 124.8,58.0 129.7,58.0 134.5,58.0 139.4,58.0 144.3,58.0 149.1,58.0 154.0,58.0 158.9,58.0 163.7,58.0 168.6,58.0 173.5,58.0 178.3,58.0 183.2,58.0 188.1,58.0 193.0,70.0 197.8,76.0 202.7,94.0 207.6,64.0 212.4,64.0 217.3,58.0 222.2,58.0 227.0,58.0 231.9,70.0 236.8,76.0 241.7,76.0 246.5,82.0 251.4,82.0 256.3,82.0 261.1,82.0 266.0,76.0 270.9,64.0 275.7,70.0 280.6,70.0 285.5,82.0 290.3,76.0 295.2,76.0 300.1,82.0 305.0,76.0 309.8,76.0 314.7,76.0 319.6,64.0 324.4,64.0 329.3,76.0 334.2,76.0 339.0,76.0 343.9,88.0 348.8,70.0 353.7,64.0 358.5,58.0 363.4,58.0 368.3,70.0 373.1,70.0 378.0,70.0 382.9,76.0 387.7,70.0 392.6,70.0 397.5,70.0 402.3,70.0 407.2,76.0 412.1,82.0 417.0,76.0 421.8,70.0 426.7,70.0 431.6,70.0 436.4,70.0 441.3,76.0 446.2,70.0 451.0,70.0 455.9,70.0 460.8,70.0 465.7,70.0 470.5,70.0 475.4,70.0 480.3,70.0 485.1,70.0 490.0,70.0 494.9,70.0 499.7,70.0 504.6,70.0 509.5,70.0 514.3,70.0 519.2,70.0 524.1,70.0 529.0,70.0 533.8,70.0 538.7,70.0 543.6,70.0 548.4,70.0 553.3,70.0 558.2,70.0 563.0,70.0 567.9,70.0 572.8,70.0 577.7,70.0 582.5,70.0 587.4,70.0 592.3,70.0 597.1,70.0 602.0,70.0 606.9,70.0 611.7,70.0 616.6,70.0 621.5,70.0 626.3,70.0 631.2,70.0 636.1,70.0 641.0,70.0 645.8,70.0 650.7,70.0 655.6,70.0 660.4,70.0 665.3,70.0 670.2,70.0 675.0,70.0 679.9,70.0 684.8,70.0 689.7,70.0 694.5,70.0 699.4,70.0 704.3,70.0 709.1,70.0 714.0,70.0 718.9,70.0 723.7,70.0 728.6,70.0 733.5,70.0 738.3,70.0 743.2,70.0 748.1,70.0 753.0,70.0 757.8,70.0 762.7,70.0 767.6,70.0 772.4,70.0 777.3,76.0 782.2,70.0 787.0,70.0 791.9,70.0 796.8,70.0 801.7,70.0 806.5,76.0 811.4,76.0 816.3,88.0 821.1,88.0 826.0,88.0 830.9,94.0 835.7,94.0 840.6,94.0 845.5,94.0 850.3,88.0 855.2,88.0 860.1,82.0 865.0,82.0 869.8,82.0 874.7,88.0 879.6,88.0 884.4,94.0 889.3,82.0 894.2,82.0 899.0,82.0 903.9,82.0 908.8,88.0 913.7,88.0 918.5,94.0 923.4,94.0 928.3,88.0 933.1,88.0 938.0,88.0"/><polyline fill="none" stroke="#f59e0b" stroke-width="2.5" stroke-linejoin="round" stroke-linecap="round" points="42.0,274.0 46.9,274.0 51.7,274.0 56.6,280.0 61.5,268.0 66.3,268.0 71.2,268.0 76.1,274.0 81.0,274.0 85.8,274.0 90.7,280.0 95.6,286.0 100.4,286.0 105.3,286.0 110.2,286.0 115.0,286.0 119.9,286.0 124.8,286.0 129.7,286.0 134.5,286.0 139.4,286.0 144.3,286.0 149.1,286.0 154.0,286.0 158.9,286.0 163.7,286.0 168.6,286.0 173.5,286.0 178.3,286.0 183.2,286.0 188.1,286.0 193.0,274.0 197.8,280.0 202.7,280.0 207.6,280.0 212.4,280.0 217.3,286.0 222.2,286.0 227.0,286.0 231.9,274.0 236.8,268.0 241.7,268.0 246.5,262.0 251.4,262.0 256.3,262.0 261.1,262.0 266.0,268.0 270.9,280.0 275.7,280.0 280.6,274.0 285.5,262.0 290.3,268.0 295.2,268.0 300.1,262.0 305.0,268.0 309.8,268.0 314.7,268.0 319.6,280.0 324.4,280.0 329.3,268.0 334.2,268.0 339.0,268.0 343.9,262.0 348.8,274.0 353.7,280.0 358.5,286.0 363.4,286.0 368.3,274.0 373.1,274.0 378.0,274.0 382.9,274.0 387.7,274.0 392.6,274.0 397.5,274.0 402.3,274.0 407.2,280.0 412.1,274.0 417.0,280.0 421.8,286.0 426.7,286.0 431.6,286.0 436.4,286.0 441.3,280.0 446.2,286.0 451.0,286.0 455.9,286.0 460.8,286.0 465.7,286.0 470.5,286.0 475.4,286.0 480.3,286.0 485.1,286.0 490.0,286.0 494.9,286.0 499.7,286.0 504.6,286.0 509.5,286.0 514.3,286.0 519.2,286.0 524.1,286.0 529.0,286.0 533.8,286.0 538.7,286.0 543.6,286.0 548.4,286.0 553.3,286.0 558.2,286.0 563.0,286.0 567.9,286.0 572.8,286.0 577.7,286.0 582.5,286.0 587.4,286.0 592.3,286.0 597.1,286.0 602.0,286.0 606.9,286.0 611.7,286.0 616.6,286.0 621.5,286.0 626.3,286.0 631.2,286.0 636.1,286.0 641.0,286.0 645.8,286.0 650.7,286.0 655.6,286.0 660.4,286.0 665.3,286.0 670.2,286.0 675.0,286.0 679.9,286.0 684.8,286.0 689.7,286.0 694.5,286.0 699.4,286.0 704.3,286.0 709.1,286.0 714.0,286.0 718.9,286.0 723.7,286.0 728.6,286.0 733.5,286.0 738.3,286.0 743.2,286.0 748.1,286.0 753.0,286.0 757.8,286.0 762.7,286.0 767.6,286.0 772.4,286.0 777.3,286.0 782.2,286.0 787.0,286.0 791.9,286.0 796.8,286.0 801.7,286.0 806.5,286.0 811.4,280.0 816.3,268.0 821.1,268.0 826.0,268.0 830.9,268.0 835.7,262.0 840.6,262.0 845.5,262.0 850.3,268.0 855.2,268.0 860.1,274.0 865.0,274.0 869.8,274.0 874.7,268.0 879.6,268.0 884.4,268.0 889.3,274.0 894.2,274.0 899.0,274.0 903.9,274.0 908.8,268.0 913.7,268.0 918.5,262.0 923.4,262.0 928.3,268.0 933.1,268.0 938.0,268.0"/><polyline fill="none" stroke="#ef4444" stroke-width="2.5" stroke-linejoin="round" stroke-linecap="round" points="42.0,280.0 46.9,280.0 51.7,268.0 56.6,262.0 61.5,286.0 66.3,286.0 71.2,286.0 76.1,286.0 81.0,280.0 85.8,286.0 90.7,286.0 95.6,286.0 100.4,286.0 105.3,286.0 110.2,286.0 115.0,286.0 119.9,286.0 124.8,286.0 129.7,286.0 134.5,286.0 139.4,286.0 144.3,286.0 149.1,286.0 154.0,286.0 158.9,286.0 163.7,286.0 168.6,286.0 173.5,286.0 178.3,286.0 183.2,286.0 188.1,286.0 193.0,286.0 197.8,274.0 202.7,256.0 207.6,286.0 212.4,286.0 217.3,286.0 222.2,286.0 227.0,286.0 231.9,286.0 236.8,286.0 241.7,286.0 246.5,286.0 251.4,286.0 256.3,286.0 261.1,286.0 266.0,286.0 270.9,286.0 275.7,280.0 280.6,286.0 285.5,286.0 290.3,286.0 295.2,286.0 300.1,286.0 305.0,286.0 309.8,286.0 314.7,286.0 319.6,286.0 324.4,286.0 329.3,286.0 334.2,286.0 339.0,286.0 343.9,280.0 348.8,286.0 353.7,286.0 358.5,286.0 363.4,286.0 368.3,286.0 373.1,286.0 378.0,286.0 382.9,286.0 387.7,286.0 392.6,286.0 397.5,286.0 402.3,286.0 407.2,274.0 412.1,274.0 417.0,274.0 421.8,274.0 426.7,274.0 431.6,274.0 436.4,274.0 441.3,274.0 446.2,274.0 451.0,274.0 455.9,274.0 460.8,274.0 465.7,274.0 470.5,274.0 475.4,274.0 480.3,274.0 485.1,274.0 490.0,274.0 494.9,274.0 499.7,274.0 504.6,274.0 509.5,274.0 514.3,274.0 519.2,274.0 524.1,274.0 529.0,274.0 533.8,274.0 538.7,274.0 543.6,274.0 548.4,274.0 553.3,274.0 558.2,274.0 563.0,274.0 567.9,274.0 572.8,274.0 577.7,274.0 582.5,274.0 587.4,274.0 592.3,274.0 597.1,274.0 602.0,274.0 606.9,274.0 611.7,274.0 616.6,274.0 621.5,274.0 626.3,274.0 631.2,274.0 636.1,274.0 641.0,274.0 645.8,274.0 650.7,274.0 655.6,274.0 660.4,274.0 665.3,274.0 670.2,274.0 675.0,274.0 679.9,274.0 684.8,274.0 689.7,274.0 694.5,274.0 699.4,274.0 704.3,274.0 709.1,274.0 714.0,274.0 718.9,274.0 723.7,274.0 728.6,274.0 733.5,274.0 738.3,274.0 743.2,274.0 748.1,274.0 753.0,274.0 757.8,274.0 762.7,274.0 767.6,274.0 772.4,274.0 777.3,268.0 782.2,274.0 787.0,274.0 791.9,274.0 796.8,274.0 801.7,274.0 806.5,274.0 811.4,274.0 816.3,274.0 821.1,274.0 826.0,274.0 830.9,268.0 835.7,274.0 840.6,274.0 845.5,274.0 850.3,274.0 855.2,274.0 860.1,274.0 865.0,274.0 869.8,274.0 874.7,274.0 879.6,274.0 884.4,268.0 889.3,274.0 894.2,274.0 899.0,274.0 903.9,274.0 908.8,274.0 913.7,274.0 918.5,274.0 923.4,274.0 928.3,274.0 933.1,274.0 938.0,274.0"/><polyline fill="none" stroke="#a855f7" stroke-width="2.5" stroke-linejoin="round" stroke-linecap="round" points="42.0,286.0 46.9,286.0 51.7,286.0 56.6,286.0 61.5,286.0 66.3,286.0 71.2,286.0 76.1,286.0 81.0,286.0 85.8,286.0 90.7,286.0 95.6,286.0 100.4,286.0 105.3,286.0 110.2,286.0 115.0,286.0 119.9,286.0 124.8,286.0 129.7,286.0 134.5,286.0 139.4,286.0 144.3,286.0 149.1,286.0 154.0,286.0 158.9,286.0 163.7,286.0 168.6,286.0 173.5,286.0 178.3,286.0 183.2,286.0 188.1,286.0 193.0,286.0 197.8,286.0 202.7,286.0 207.6,286.0 212.4,286.0 217.3,286.0 222.2,286.0 227.0,286.0 231.9,286.0 236.8,286.0 241.7,286.0 246.5,286.0 251.4,286.0 256.3,286.0 261.1,286.0 266.0,286.0 270.9,286.0 275.7,286.0 280.6,286.0 285.5,286.0 290.3,286.0 295.2,286.0 300.1,286.0 305.0,286.0 309.8,286.0 314.7,286.0 319.6,286.0 324.4,286.0 329.3,286.0 334.2,286.0 339.0,286.0 343.9,286.0 348.8,286.0 353.7,286.0 358.5,286.0 363.4,286.0 368.3,286.0 373.1,286.0 378.0,286.0 382.9,280.0 387.7,286.0 392.6,286.0 397.5,286.0 402.3,286.0 407.2,286.0 412.1,286.0 417.0,286.0 421.8,286.0 426.7,286.0 431.6,286.0 436.4,286.0 441.3,286.0 446.2,286.0 451.0,286.0 455.9,286.0 460.8,286.0 465.7,286.0 470.5,286.0 475.4,286.0 480.3,286.0 485.1,286.0 490.0,286.0 494.9,286.0 499.7,286.0 504.6,286.0 509.5,286.0 514.3,286.0 519.2,286.0 524.1,286.0 529.0,286.0 533.8,286.0 538.7,286.0 543.6,286.0 548.4,286.0 553.3,286.0 558.2,286.0 563.0,286.0 567.9,286.0 572.8,286.0 577.7,286.0 582.5,286.0 587.4,286.0 592.3,286.0 597.1,286.0 602.0,286.0 606.9,286.0 611.7,286.0 616.6,286.0 621.5,286.0 626.3,286.0 631.2,286.0 636.1,286.0 641.0,286.0 645.8,286.0 650.7,286.0 655.6,286.0 660.4,286.0 665.3,286.0 670.2,286.0 675.0,286.0 679.9,286.0 684.8,286.0 689.7,286.0 694.5,286.0 699.4,286.0 704.3,286.0 709.1,286.0 714.0,286.0 718.9,286.0 723.7,286.0 728.6,286.0 733.5,286.0 738.3,286.0 743.2,286.0 748.1,286.0 753.0,286.0 757.8,286.0 762.7,286.0 767.6,286.0 772.4,286.0 777.3,286.0 782.2,286.0 787.0,286.0 791.9,286.0 796.8,286.0 801.7,286.0 806.5,280.0 811.4,286.0 816.3,286.0 821.1,286.0 826.0,286.0 830.9,286.0 835.7,286.0 840.6,286.0 845.5,286.0 850.3,286.0 855.2,286.0 860.1,286.0 865.0,286.0 869.8,286.0 874.7,286.0 879.6,286.0 884.4,286.0 889.3,286.0 894.2,286.0 899.0,286.0 903.9,286.0 908.8,286.0 913.7,286.0 918.5,286.0 923.4,286.0 928.3,286.0 933.1,286.0 938.0,286.0"/><text x="42" y="308" font-size="11" fill="#5a688a">19/06 12:43</text><text x="938" y="308" text-anchor="end" font-size="11" fill="#5a688a">30/06 11:30</text></svg>