<svg xmlns="http://www.w3.org/2000/svg" viewBox="0 0 960 320" width="960" height="320" font-family="Segoe UI, system-ui, -apple-system, Roboto, Helvetica, Arial, sans-serif" role="img" aria-label="Availability history per region"><rect x="0.5" y="0.5" width="959" height="319" rx="14" fill="#ffffff" stroke="#dce3f1"/><text x="42" y="26" font-size="14" font-weight="600" fill="#14203a">History · 173 points</text><circle cx="47" cy="40" r="5" fill="#22c55e"/><text x="57" y="44" font-size="12" fill="#5a688a">Available</text><circle cx="139.8" cy="40" r="5" fill="#f59e0b"/><text x="149.8" y="44" font-size="12" fill="#5a688a">Saturated</text><circle cx="232.60000000000002" cy="40" r="5" fill="#ef4444"/><text x="242.60000000000002" y="44" font-size="12" fill="#5a688a">Error</text><circle cx="296.6" cy="40" r="5" fill="#a855f7"/><text x="306.6" y="44" font-size="12" fill="#5a688a">Timeout</text><line x1="42" y1="286.0" x2="938" y2="286.0" stroke="#eef2f7" stroke-width="1"/><text x="35" y="289.0" text-anchor="end" font-size="11" fill="#5a688a">0</text><line x1="42" y1="227.5" x2="938" y2="227.5" stroke="#eef2f7" stroke-width="1"/><text x="35" y="230.5" text-anchor="end" font-size="11" fill="#5a688a">10</text><line x1="42" y1="169.0" x2="938" y2="169.0" stroke="#eef2f7" stroke-width="1"/><text x="35" y="172.0" text-anchor="end" font-size="11" fill="#5a688a">21</text><line x1="42" y1="110.5" x2="938" y2="110.5" stroke="#eef2f7" stroke-width="1"/><text x="35" y="113.5" text-anchor="end" font-size="11" fill="#5a688a">32</text><line x1="42" y1="52.0" x2="938" y2="52.0" stroke="#eef2f7" stroke-width="1"/><text x="35" y="55.0" text-anchor="end" font-size="11" fill="#5a688a">42</text><polyline fill="none" stroke="#22c55e" stroke-width="2.5" stroke-linejoin="round" stroke-linecap="round" points="42.0,85.4 47.2,230.3 52.4,102.1 57.6,107.7 62.8,102.1 68.0,96.6 73.3,96.6 78.5,96.6 83.7,96.6 88.9,96.6 94.1,96.6 99.3,96.6 104.5,96.6 109.7,96.6 114.9,96.6 120.1,91.0 125.3,91.0 130.6,102.1 135.8,102.1 141.0,102.1 146.2,107.7 151.4,107.7 156.6,107.7 161.8,107.7 167.0,107.7 172.2,107.7 177.4,107.7 182.7,107.7 187.9,107.7 193.1,102.1 198.3,102.1 203.5,102.1 208.7,102.1 213.9,96.6 219.1,96.6 224.3,96.6 229.5,96.6 234.7,96.6 240.0,102.1 245.2,102.1 250.4,102.1 255.6,102.1 260.8,96.6 266.0,96.6 271.2,96.6 276.4,96.6 281.6,96.6 286.8,96.6 292.0,96.6 297.3,102.1 302.5,102.1 307.7,102.1 312.9,102.1 318.1,96.6 323.3,96.6 328.5,96.6 333.7,96.6 338.9,96.6 344.1,96.6 349.3,96.6 354.6,96.6 359.8,102.1 365.0,96.6 370.2,96.6 375.4,96.6 380.6,96.6 385.8,96.6 391.0,102.1 396.2,96.6 401.4,96.6 406.7,96.6 411.9,96.6 417.1,96.6 422.3,96.6 427.5,96.6 432.7,96.6 437.9,96.6 443.1,91.0 448.3,91.0 453.5,91.0 458.7,91.0 464.0,96.6 469.2,91.0 474.4,96.6 479.6,96.6 484.8,96.6 490.0,96.6 495.2,96.6 500.4,96.6 505.6,102.1 510.8,107.7 516.0,107.7 521.3,107.7 526.5,107.7 531.7,107.7 536.9,107.7 542.1,107.7 547.3,113.3 552.5,107.7 557.7,107.7 562.9,107.7 568.1,107.7 573.3,107.7 578.6,107.7 583.8,102.1 589.0,102.1 594.2,102.1 599.4,102.1 604.6,102.1 609.8,102.1 615.0,102.1 620.2,102.1 625.4,107.7 630.7,107.7 635.9,107.7 641.1,107.7 646.3,107.7 651.5,107.7 656.7,107.7 661.9,107.7 667.1,113.3 672.3,107.7 677.5,107.7 682.7,107.7 688.0,118.9 693.2,107.7 698.4,107.7 703.6,107.7 708.8,107.7 714.0,102.1 719.2,102.1 724.4,102.1 729.6,102.1 734.8,107.7 740.0,102.1 745.3,107.7 750.5,107.7 755.7,107.7 760.9,107.7 766.1,113.3 771.3,107.7 776.5,107.7 781.7,107.7 786.9,107.7 792.1,107.7 797.3,107.7 802.6,107.7 807.8,107.7 813.0,113.3 818.2,102.1 823.4,102.1 828.6,102.1 833.8,102.1 839.0,102.1 844.2,102.1 849.4,102.1 854.7,102.1 859.9,102.1 865.1,102.1 870.3,107.7 875.5,102.1 880.7,102.1 885.9,102.1 891.1,102.1 896.3,102.1 901.5,102.1 906.7,102.1 912.0,102.1 917.2,107.7 922.4,91.0 927.6,85.4 932.8,79.9 938.0,79.9"/><polyline fill="none" stroke="#f59e0b" stroke-width="2.5" stroke-linejoin="round" stroke-linecap="round" points="42.0,274.9 47.2,269.3 52.4,258.1 57.6,252.6 62.8,258.1 68.0,263.7 73.3,263.7 78.5,263.7 83.7,263.7 88.9,263.7 94.1,263.7 99.3,263.7 104.5,263.7 109.7,263.7 114.9,263.7 120.1,269.3 125.3,269.3 130.6,263.7 135.8,258.1 141.0,258.1 146.2,252.6 151.4,252.6 156.6,252.6 161.8,252.6 167.0,252.6 172.2,252.6 177.4,252.6 182.7,252.6 187.9,252.6 193.1,258.1 198.3,258.1 203.5,258.1 208.7,258.1 213.9,263.7 219.1,263.7 224.3,263.7 229.5,263.7 234.7,263.7 240.0,258.1 245.2,258.1 250.4,258.1 255.6,258.1 260.8,263.7 266.0,263.7 271.2,263.7 276.4,263.7 281.6,263.7 286.8,263.7 292.0,263.7 297.3,258.1 302.5,258.1 307.7,258.1 312.9,263.7 318.1,263.7 323.3,263.7 328.5,263.7 333.7,263.7 338.9,263.7 344.1,263.7 349.3,263.7 354.6,263.7 359.8,258.1 365.0,263.7 370.2,263.7 375.4,263.7 380.6,263.7 385.8,263.7 391.0,263.7 396.2,263.7 401.4,263.7 406.7,263.7 411.9,263.7 417.1,263.7 422.3,263.7 427.5,263.7 432.7,263.7 437.9,263.7 443.1,269.3 448.3,269.3 453.5,269.3 458.7,269.3 464.0,269.3 469.2,269.3 474.4,263.7 479.6,263.7 484.8,263.7 490.0,263.7 495.2,263.7 500.4,263.7 505.6,258.1 510.8,252.6 516.0,252.6 521.3,258.1 526.5,252.6 531.7,252.6 536.9,252.6 542.1,252.6 547.3,252.6 552.5,252.6 557.7,258.1 562.9,252.6 568.1,252.6 573.3,252.6 578.6,252.6 583.8,258.1 589.0,258.1 594.2,258.1 599.4,258.1 604.6,258.1 609.8,258.1 615.0,258.1 620.2,258.1 625.4,252.6 630.7,252.6 635.9,252.6 641.1,252.6 646.3,252.6 651.5,252.6 656.7,252.6 661.9,258.1 667.1,252.6 672.3,252.6 677.5,252.6 682.7,252.6 688.0,252.6 693.2,252.6 698.4,252.6 703.6,258.1 708.8,258.1 714.0,258.1 719.2,258.1 724.4,258.1 729.6,258.1 734.8,258.1 740.0,258.1 745.3,252.6 750.5,252.6 755.7,252.6 760.9,252.6 766.1,252.6 771.3,252.6 776.5,252.6 781.7,252.6 786.9,252.6 792.1,252.6 797.3,252.6 802.6,252.6 807.8,252.6 813.0,252.6 818.2,258.1 823.4,258.1 828.6,258.1 833.8,258.1 839.0,258.1 844.2,263.7 849.4,263.7 854.7,258.1 859.9,258.1 865.1,258.1 870.3,258.1 875.5,258.1 880.7,258.1 885.9,258.1 891.1,258.1 896.3,258.1 901.5,258.1 906.7,258.1 912.0,258.1 917.2,258.1 922.4,258.1 927.6,258.1 932.8,258.1 938.0,258.1"/><polyline fill="none" stroke="#ef4444" stroke-width="2.5" stroke-linejoin="round" stroke-linecap="round" points="42.0,286.0 47.2,146.7 52.4,286.0 57.6,286.0 62.8,286.0 68.0,286.0 73.3,286.0 78.5,286.0 83.7,286.0 88.9,286.0 94.1,286.0 99.3,286.0 104.5,286.0 109.7,286.0 114.9,286.0 120.1,286.0 125.3,286.0 130.6,280.4 135.8,286.0 141.0,286.0 146.2,286.0 151.4,286.0 156.6,286.0 161.8,286.0 167.0,286.0 172.2,286.0 177.4,286.0 182.7,286.0 187.9,286.0 193.1,286.0 198.3,286.0 203.5,286.0 208.7,286.0 213.9,286.0 219.1,286.0 224.3,286.0 229.5,286.0 234.7,286.0 240.0,286.0 245.2,286.0 250.4,286.0 255.6,286.0 260.8,286.0 266.0,286.0 271.2,286.0 276.4,286.0 281.6,286.0 286.8,286.0 292.0,286.0 297.3,286.0 302.5,286.0 307.7,286.0 312.9,286.0 318.1,286.0 323.3,286.0 328.5,286.0 333.7,286.0 338.9,286.0 344.1,286.0 349.3,286.0 354.6,286.0 359.8,286.0 365.0,286.0 370.2,286.0 375.4,286.0 380.6,286.0 385.8,286.0 391.0,280.4 396.2,286.0 401.4,286.0 406.7,286.0 411.9,286.0 417.1,286.0 422.3,286.0 427.5,286.0 432.7,286.0 437.9,286.0 443.1,286.0 448.3,286.0 453.5,286.0 458.7,286.0 464.0,280.4 469.2,286.0 474.4,286.0 479.6,286.0 484.8,286.0 490.0,286.0 495.2,286.0 500.4,286.0 505.6,286.0 510.8,286.0 516.0,286.0 521.3,280.4 526.5,286.0 531.7,286.0 536.9,286.0 542.1,286.0 547.3,280.4 552.5,286.0 557.7,286.0 562.9,286.0 568.1,286.0 573.3,286.0 578.6,286.0 583.8,286.0 589.0,286.0 594.2,286.0 599.4,286.0 604.6,286.0 609.8,286.0 615.0,286.0 620.2,286.0 625.4,286.0 630.7,286.0 635.9,286.0 641.1,286.0 646.3,286.0 651.5,286.0 656.7,286.0 661.9,286.0 667.1,280.4 672.3,286.0 677.5,286.0 682.7,286.0 688.0,274.9 693.2,286.0 698.4,286.0 703.6,280.4 708.8,280.4 714.0,286.0 719.2,286.0 724.4,286.0 729.6,286.0 734.8,280.4 740.0,286.0 745.3,286.0 750.5,286.0 755.7,286.0 760.9,286.0 766.1,286.0 771.3,286.0 776.5,286.0 781.7,286.0 786.9,286.0 792.1,286.0 797.3,286.0 802.6,286.0 807.8,286.0 813.0,286.0 818.2,286.0 823.4,286.0 828.6,286.0 833.8,286.0 839.0,286.0 844.2,280.4 849.4,286.0 854.7,286.0 859.9,286.0 865.1,263.7 870.3,280.4 875.5,286.0 880.7,286.0 885.9,286.0 891.1,286.0 896.3,286.0 901.5,286.0 906.7,286.0 912.0,286.0 917.2,258.1 922.4,274.9 927.6,280.4 932.8,286.0 938.0,286.0"/><polyline fill="none" stroke="#a855f7" stroke-width="2.5" stroke-linejoin="round" stroke-linecap="round" points="42.0,286.0 47.2,286.0 52.4,286.0 57.6,286.0 62.8,286.0 68.0,286.0 73.3,286.0 78.5,286.0 83.7,286.0 88.9,286.0 94.1,286.0 99.3,286.0 104.5,286.0 109.7,286.0 114.9,286.0 120.1,286.0 125.3,286.0 130.6,286.0 135.8,286.0 141.0,286.0 146.2,286.0 151.4,286.0 156.6,286.0 161.8,286.0 167.0,286.0 172.2,286.0 177.4,286.0 182.7,286.0 187.9,286.0 193.1,286.0 198.3,286.0 203.5,286.0 208.7,286.0 213.9,286.0 219.1,286.0 224.3,286.0 229.5,286.0 234.7,286.0 240.0,286.0 245.2,286.0 250.4,286.0 255.6,286.0 260.8,286.0 266.0,286.0 271.2,286.0 276.4,286.0 281.6,286.0 286.8,286.0 292.0,286.0 297.3,286.0 302.5,286.0 307.7,286.0 312.9,280.4 318.1,286.0 323.3,286.0 328.5,286.0 333.7,286.0 338.9,286.0 344.1,286.0 349.3,286.0 354.6,286.0 359.8,286.0 365.0,286.0 370.2,286.0 375.4,286.0 380.6,286.0 385.8,286.0 391.0,286.0 396.2,286.0 401.4,286.0 406.7,286.0 411.9,286.0 417.1,286.0 422.3,286.0 427.5,286.0 432.7,286.0 437.9,286.0 443.1,286.0 448.3,286.0 453.5,286.0 458.7,286.0 464.0,286.0 469.2,286.0 474.4,286.0 479.6,286.0 484.8,286.0 490.0,286.0 495.2,286.0 500.4,286.0 505.6,286.0 510.8,286.0 516.0,286.0 521.3,286.0 526.5,286.0 531.7,286.0 536.9,286.0 542.1,286.0 547.3,286.0 552.5,286.0 557.7,280.4 562.9,286.0 568.1,286.0 573.3,286.0 578.6,286.0 583.8,286.0 589.0,286.0 594.2,286.0 599.4,286.0 604.6,286.0 609.8,286.0 615.0,286.0 620.2,286.0 625.4,286.0 630.7,286.0 635.9,286.0 641.1,286.0 646.3,286.0 651.5,286.0 656.7,286.0 661.9,280.4 667.1,286.0 672.3,286.0 677.5,286.0 682.7,286.0 688.0,286.0 693.2,286.0 698.4,286.0 703.6,286.0 708.8,286.0 714.0,286.0 719.2,286.0 724.4,286.0 729.6,286.0 734.8,286.0 740.0,286.0 745.3,286.0 750.5,286.0 755.7,286.0 760.9,286.0 766.1,280.4 771.3,286.0 776.5,286.0 781.7,286.0 786.9,286.0 792.1,286.0 797.3,286.0 802.6,286.0 807.8,286.0 813.0,280.4 818.2,286.0 823.4,286.0 828.6,286.0 833.8,286.0 839.0,286.0 844.2,286.0 849.4,280.4 854.7,286.0 859.9,286.0 865.1,286.0 870.3,286.0 875.5,286.0 880.7,286.0 885.9,286.0 891.1,286.0 896.3,286.0 901.5,286.0 906.7,286.0 912.0,286.0 917.2,286.0 922.4,286.0 927.6,286.0 932.8,286.0 938.0,286.0"/><text x="42" y="308" font-size="11" fill="#5a688a">19/06 15:39</text><text x="938" y="308" text-anchor="end" font-size="11" fill="#5a688a">23/07 19:30</text></svg>