<svg xmlns="http://www.w3.org/2000/svg" viewBox="0 0 960 320" width="960" height="320" font-family="Segoe UI, system-ui, -apple-system, Roboto, Helvetica, Arial, sans-serif" role="img" aria-label="Availability history per region"><rect x="0.5" y="0.5" width="959" height="319" rx="14" fill="#0d1117" stroke="#2c3a5e"/><text x="42" y="26" font-size="14" font-weight="600" fill="#e6ecff">History · 141 points</text><circle cx="47" cy="40" r="5" fill="#22c55e"/><text x="57" y="44" font-size="12" fill="#9fb0d4">Available</text><circle cx="139.8" cy="40" r="5" fill="#f59e0b"/><text x="149.8" y="44" font-size="12" fill="#9fb0d4">Saturated</text><circle cx="232.60000000000002" cy="40" r="5" fill="#ef4444"/><text x="242.60000000000002" y="44" font-size="12" fill="#9fb0d4">Error</text><circle cx="296.6" cy="40" r="5" fill="#a855f7"/><text x="306.6" y="44" font-size="12" fill="#9fb0d4">Timeout</text><line x1="42" y1="286.0" x2="938" y2="286.0" stroke="#21304f" stroke-width="1"/><text x="35" y="289.0" text-anchor="end" font-size="11" fill="#9fb0d4">0</text><line x1="42" y1="227.5" x2="938" y2="227.5" stroke="#21304f" stroke-width="1"/><text x="35" y="230.5" text-anchor="end" font-size="11" fill="#9fb0d4">10</text><line x1="42" y1="169.0" x2="938" y2="169.0" stroke="#21304f" stroke-width="1"/><text x="35" y="172.0" text-anchor="end" font-size="11" fill="#9fb0d4">20</text><line x1="42" y1="110.5" x2="938" y2="110.5" stroke="#21304f" stroke-width="1"/><text x="35" y="113.5" text-anchor="end" font-size="11" fill="#9fb0d4">29</text><line x1="42" y1="52.0" x2="938" y2="52.0" stroke="#21304f" stroke-width="1"/><text x="35" y="55.0" text-anchor="end" font-size="11" fill="#9fb0d4">39</text><polyline fill="none" stroke="#22c55e" stroke-width="2.5" stroke-linejoin="round" stroke-linecap="round" points="42.0,70.0 48.4,70.0 54.8,88.0 61.2,88.0 67.6,76.0 74.0,76.0 80.4,76.0 86.8,70.0 93.2,76.0 99.6,70.0 106.0,64.0 112.4,58.0 118.8,58.0 125.2,58.0 131.6,58.0 138.0,58.0 144.4,58.0 150.8,58.0 157.2,58.0 163.6,58.0 170.0,58.0 176.4,58.0 182.8,58.0 189.2,58.0 195.6,58.0 202.0,58.0 208.4,58.0 214.8,58.0 221.2,58.0 227.6,58.0 234.0,58.0 240.4,70.0 246.8,76.0 253.2,94.0 259.6,64.0 266.0,64.0 272.4,58.0 278.8,58.0 285.2,58.0 291.6,70.0 298.0,76.0 304.4,76.0 310.8,82.0 317.2,82.0 323.6,82.0 330.0,82.0 336.4,76.0 342.8,64.0 349.2,70.0 355.6,70.0 362.0,82.0 368.4,76.0 374.8,76.0 381.2,82.0 387.6,76.0 394.0,76.0 400.4,76.0 406.8,64.0 413.2,64.0 419.6,76.0 426.0,76.0 432.4,76.0 438.8,88.0 445.2,70.0 451.6,64.0 458.0,58.0 464.4,58.0 470.8,70.0 477.2,70.0 483.6,70.0 490.0,76.0 496.4,70.0 502.8,70.0 509.2,70.0 515.6,70.0 522.0,76.0 528.4,82.0 534.8,76.0 541.2,70.0 547.6,70.0 554.0,70.0 560.4,70.0 566.8,76.0 573.2,70.0 579.6,70.0 586.0,70.0 592.4,70.0 598.8,70.0 605.2,70.0 611.6,70.0 618.0,70.0 624.4,70.0 630.8,70.0 637.2,70.0 643.6,70.0 650.0,70.0 656.4,70.0 662.8,70.0 669.2,70.0 675.6,70.0 682.0,70.0 688.4,70.0 694.8,70.0 701.2,70.0 707.6,70.0 714.0,70.0 720.4,70.0 726.8,70.0 733.2,70.0 739.6,70.0 746.0,70.0 752.4,70.0 758.8,70.0 765.2,70.0 771.6,70.0 778.0,70.0 784.4,70.0 790.8,70.0 797.2,70.0 803.6,70.0 810.0,70.0 816.4,70.0 822.8,70.0 829.2,70.0 835.6,70.0 842.0,70.0 848.4,70.0 854.8,70.0 861.2,70.0 867.6,70.0 874.0,70.0 880.4,70.0 886.8,70.0 893.2,70.0 899.6,70.0 906.0,70.0 912.4,70.0 918.8,70.0 925.2,70.0 931.6,70.0 938.0,70.0"/><polyline fill="none" stroke="#f59e0b" stroke-width="2.5" stroke-linejoin="round" stroke-linecap="round" points="42.0,274.0 48.4,274.0 54.8,274.0 61.2,280.0 67.6,268.0 74.0,268.0 80.4,268.0 86.8,274.0 93.2,274.0 99.6,274.0 106.0,280.0 112.4,286.0 118.8,286.0 125.2,286.0 131.6,286.0 138.0,286.0 144.4,286.0 150.8,286.0 157.2,286.0 163.6,286.0 170.0,286.0 176.4,286.0 182.8,286.0 189.2,286.0 195.6,286.0 202.0,286.0 208.4,286.0 214.8,286.0 221.2,286.0 227.6,286.0 234.0,286.0 240.4,274.0 246.8,280.0 253.2,280.0 259.6,280.0 266.0,280.0 272.4,286.0 278.8,286.0 285.2,286.0 291.6,274.0 298.0,268.0 304.4,268.0 310.8,262.0 317.2,262.0 323.6,262.0 330.0,262.0 336.4,268.0 342.8,280.0 349.2,280.0 355.6,274.0 362.0,262.0 368.4,268.0 374.8,268.0 381.2,262.0 387.6,268.0 394.0,268.0 400.4,268.0 406.8,280.0 413.2,280.0 419.6,268.0 426.0,268.0 432.4,268.0 438.8,262.0 445.2,274.0 451.6,280.0 458.0,286.0 464.4,286.0 470.8,274.0 477.2,274.0 483.6,274.0 490.0,274.0 496.4,274.0 502.8,274.0 509.2,274.0 515.6,274.0 522.0,280.0 528.4,274.0 534.8,280.0 541.2,286.0 547.6,286.0 554.0,286.0 560.4,286.0 566.8,280.0 573.2,286.0 579.6,286.0 586.0,286.0 592.4,286.0 598.8,286.0 605.2,286.0 611.6,286.0 618.0,286.0 624.4,286.0 630.8,286.0 637.2,286.0 643.6,286.0 650.0,286.0 656.4,286.0 662.8,286.0 669.2,286.0 675.6,286.0 682.0,286.0 688.4,286.0 694.8,286.0 701.2,286.0 707.6,286.0 714.0,286.0 720.4,286.0 726.8,286.0 733.2,286.0 739.6,286.0 746.0,286.0 752.4,286.0 758.8,286.0 765.2,286.0 771.6,286.0 778.0,286.0 784.4,286.0 790.8,286.0 797.2,286.0 803.6,286.0 810.0,286.0 816.4,286.0 822.8,286.0 829.2,286.0 835.6,286.0 842.0,286.0 848.4,286.0 854.8,286.0 861.2,286.0 867.6,286.0 874.0,286.0 880.4,286.0 886.8,286.0 893.2,286.0 899.6,286.0 906.0,286.0 912.4,286.0 918.8,286.0 925.2,286.0 931.6,286.0 938.0,286.0"/><polyline fill="none" stroke="#ef4444" stroke-width="2.5" stroke-linejoin="round" stroke-linecap="round" points="42.0,280.0 48.4,280.0 54.8,268.0 61.2,262.0 67.6,286.0 74.0,286.0 80.4,286.0 86.8,286.0 93.2,280.0 99.6,286.0 106.0,286.0 112.4,286.0 118.8,286.0 125.2,286.0 131.6,286.0 138.0,286.0 144.4,286.0 150.8,286.0 157.2,286.0 163.6,286.0 170.0,286.0 176.4,286.0 182.8,286.0 189.2,286.0 195.6,286.0 202.0,286.0 208.4,286.0 214.8,286.0 221.2,286.0 227.6,286.0 234.0,286.0 240.4,286.0 246.8,274.0 253.2,256.0 259.6,286.0 266.0,286.0 272.4,286.0 278.8,286.0 285.2,286.0 291.6,286.0 298.0,286.0 304.4,286.0 310.8,286.0 317.2,286.0 323.6,286.0 330.0,286.0 336.4,286.0 342.8,286.0 349.2,280.0 355.6,286.0 362.0,286.0 368.4,286.0 374.8,286.0 381.2,286.0 387.6,286.0 394.0,286.0 400.4,286.0 406.8,286.0 413.2,286.0 419.6,286.0 426.0,286.0 432.4,286.0 438.8,280.0 445.2,286.0 451.6,286.0 458.0,286.0 464.4,286.0 470.8,286.0 477.2,286.0 483.6,286.0 490.0,286.0 496.4,286.0 502.8,286.0 509.2,286.0 515.6,286.0 522.0,274.0 528.4,274.0 534.8,274.0 541.2,274.0 547.6,274.0 554.0,274.0 560.4,274.0 566.8,274.0 573.2,274.0 579.6,274.0 586.0,274.0 592.4,274.0 598.8,274.0 605.2,274.0 611.6,274.0 618.0,274.0 624.4,274.0 630.8,274.0 637.2,274.0 643.6,274.0 650.0,274.0 656.4,274.0 662.8,274.0 669.2,274.0 675.6,274.0 682.0,274.0 688.4,274.0 694.8,274.0 701.2,274.0 707.6,274.0 714.0,274.0 720.4,274.0 726.8,274.0 733.2,274.0 739.6,274.0 746.0,274.0 752.4,274.0 758.8,274.0 765.2,274.0 771.6,274.0 778.0,274.0 784.4,274.0 790.8,274.0 797.2,274.0 803.6,274.0 810.0,274.0 816.4,274.0 822.8,274.0 829.2,274.0 835.6,274.0 842.0,274.0 848.4,274.0 854.8,274.0 861.2,274.0 867.6,274.0 874.0,274.0 880.4,274.0 886.8,274.0 893.2,274.0 899.6,274.0 906.0,274.0 912.4,274.0 918.8,274.0 925.2,274.0 931.6,274.0 938.0,274.0"/><polyline fill="none" stroke="#a855f7" stroke-width="2.5" stroke-linejoin="round" stroke-linecap="round" points="42.0,286.0 48.4,286.0 54.8,286.0 61.2,286.0 67.6,286.0 74.0,286.0 80.4,286.0 86.8,286.0 93.2,286.0 99.6,286.0 106.0,286.0 112.4,286.0 118.8,286.0 125.2,286.0 131.6,286.0 138.0,286.0 144.4,286.0 150.8,286.0 157.2,286.0 163.6,286.0 170.0,286.0 176.4,286.0 182.8,286.0 189.2,286.0 195.6,286.0 202.0,286.0 208.4,286.0 214.8,286.0 221.2,286.0 227.6,286.0 234.0,286.0 240.4,286.0 246.8,286.0 253.2,286.0 259.6,286.0 266.0,286.0 272.4,286.0 278.8,286.0 285.2,286.0 291.6,286.0 298.0,286.0 304.4,286.0 310.8,286.0 317.2,286.0 323.6,286.0 330.0,286.0 336.4,286.0 342.8,286.0 349.2,286.0 355.6,286.0 362.0,286.0 368.4,286.0 374.8,286.0 381.2,286.0 387.6,286.0 394.0,286.0 400.4,286.0 406.8,286.0 413.2,286.0 419.6,286.0 426.0,286.0 432.4,286.0 438.8,286.0 445.2,286.0 451.6,286.0 458.0,286.0 464.4,286.0 470.8,286.0 477.2,286.0 483.6,286.0 490.0,280.0 496.4,286.0 502.8,286.0 509.2,286.0 515.6,286.0 522.0,286.0 528.4,286.0 534.8,286.0 541.2,286.0 547.6,286.0 554.0,286.0 560.4,286.0 566.8,286.0 573.2,286.0 579.6,286.0 586.0,286.0 592.4,286.0 598.8,286.0 605.2,286.0 611.6,286.0 618.0,286.0 624.4,286.0 630.8,286.0 637.2,286.0 643.6,286.0 650.0,286.0 656.4,286.0 662.8,286.0 669.2,286.0 675.6,286.0 682.0,286.0 688.4,286.0 694.8,286.0 701.2,286.0 707.6,286.0 714.0,286.0 720.4,286.0 726.8,286.0 733.2,286.0 739.6,286.0 746.0,286.0 752.4,286.0 758.8,286.0 765.2,286.0 771.6,286.0 778.0,286.0 784.4,286.0 790.8,286.0 797.2,286.0 803.6,286.0 810.0,286.0 816.4,286.0 822.8,286.0 829.2,286.0 835.6,286.0 842.0,286.0 848.4,286.0 854.8,286.0 861.2,286.0 867.6,286.0 874.0,286.0 880.4,286.0 886.8,286.0 893.2,286.0 899.6,286.0 906.0,286.0 912.4,286.0 918.8,286.0 925.2,286.0 931.6,286.0 938.0,286.0"/><text x="42" y="308" font-size="11" fill="#9fb0d4">19/06 12:43</text><text x="938" y="308" text-anchor="end" font-size="11" fill="#9fb0d4">28/06 19:29</text></svg>