<svg xmlns="http://www.w3.org/2000/svg" viewBox="0 0 960 320" width="960" height="320" font-family="Segoe UI, system-ui, -apple-system, Roboto, Helvetica, Arial, sans-serif" role="img" aria-label="Availability history per region"><rect x="0.5" y="0.5" width="959" height="319" rx="14" fill="#ffffff" stroke="#dce3f1"/><text x="42" y="26" font-size="14" font-weight="600" fill="#14203a">History · 174 points</text><circle cx="47" cy="40" r="5" fill="#22c55e"/><text x="57" y="44" font-size="12" fill="#5a688a">Available</text><circle cx="139.8" cy="40" r="5" fill="#f59e0b"/><text x="149.8" y="44" font-size="12" fill="#5a688a">Saturated</text><circle cx="232.60000000000002" cy="40" r="5" fill="#ef4444"/><text x="242.60000000000002" y="44" font-size="12" fill="#5a688a">Error</text><circle cx="296.6" cy="40" r="5" fill="#a855f7"/><text x="306.6" y="44" font-size="12" fill="#5a688a">Timeout</text><line x1="42" y1="286.0" x2="938" y2="286.0" stroke="#eef2f7" stroke-width="1"/><text x="35" y="289.0" text-anchor="end" font-size="11" fill="#5a688a">0</text><line x1="42" y1="227.5" x2="938" y2="227.5" stroke="#eef2f7" stroke-width="1"/><text x="35" y="230.5" text-anchor="end" font-size="11" fill="#5a688a">10</text><line x1="42" y1="169.0" x2="938" y2="169.0" stroke="#eef2f7" stroke-width="1"/><text x="35" y="172.0" text-anchor="end" font-size="11" fill="#5a688a">20</text><line x1="42" y1="110.5" x2="938" y2="110.5" stroke="#eef2f7" stroke-width="1"/><text x="35" y="113.5" text-anchor="end" font-size="11" fill="#5a688a">29</text><line x1="42" y1="52.0" x2="938" y2="52.0" stroke="#eef2f7" stroke-width="1"/><text x="35" y="55.0" text-anchor="end" font-size="11" fill="#5a688a">39</text><polyline fill="none" stroke="#22c55e" stroke-width="2.5" stroke-linejoin="round" stroke-linecap="round" points="42.0,70.0 47.2,70.0 52.4,88.0 57.5,88.0 62.7,76.0 67.9,76.0 73.1,76.0 78.3,70.0 83.4,76.0 88.6,70.0 93.8,64.0 99.0,58.0 104.2,58.0 109.3,58.0 114.5,58.0 119.7,58.0 124.9,58.0 130.0,58.0 135.2,58.0 140.4,58.0 145.6,58.0 150.8,58.0 155.9,58.0 161.1,58.0 166.3,58.0 171.5,58.0 176.7,58.0 181.8,58.0 187.0,58.0 192.2,58.0 197.4,58.0 202.6,70.0 207.7,76.0 212.9,94.0 218.1,64.0 223.3,64.0 228.5,58.0 233.6,58.0 238.8,58.0 244.0,70.0 249.2,76.0 254.3,76.0 259.5,82.0 264.7,82.0 269.9,82.0 275.1,82.0 280.2,76.0 285.4,64.0 290.6,70.0 295.8,70.0 301.0,82.0 306.1,76.0 311.3,76.0 316.5,82.0 321.7,76.0 326.9,76.0 332.0,76.0 337.2,64.0 342.4,64.0 347.6,76.0 352.8,76.0 357.9,76.0 363.1,88.0 368.3,70.0 373.5,64.0 378.6,58.0 383.8,58.0 389.0,70.0 394.2,70.0 399.4,70.0 404.5,76.0 409.7,70.0 414.9,70.0 420.1,70.0 425.3,70.0 430.4,76.0 435.6,82.0 440.8,76.0 446.0,70.0 451.2,70.0 456.3,70.0 461.5,70.0 466.7,76.0 471.9,70.0 477.1,70.0 482.2,70.0 487.4,70.0 492.6,70.0 497.8,70.0 502.9,70.0 508.1,70.0 513.3,70.0 518.5,70.0 523.7,70.0 528.8,70.0 534.0,70.0 539.2,70.0 544.4,70.0 549.6,70.0 554.7,70.0 559.9,70.0 565.1,70.0 570.3,70.0 575.5,70.0 580.6,70.0 585.8,70.0 591.0,70.0 596.2,70.0 601.4,70.0 606.5,70.0 611.7,70.0 616.9,70.0 622.1,70.0 627.2,70.0 632.4,70.0 637.6,70.0 642.8,70.0 648.0,70.0 653.1,70.0 658.3,70.0 663.5,70.0 668.7,70.0 673.9,70.0 679.0,70.0 684.2,70.0 689.4,70.0 694.6,70.0 699.8,70.0 704.9,70.0 710.1,70.0 715.3,70.0 720.5,70.0 725.7,70.0 730.8,70.0 736.0,70.0 741.2,70.0 746.4,70.0 751.5,70.0 756.7,70.0 761.9,70.0 767.1,70.0 772.3,70.0 777.4,70.0 782.6,70.0 787.8,70.0 793.0,70.0 798.2,70.0 803.3,70.0 808.5,70.0 813.7,70.0 818.9,70.0 824.1,76.0 829.2,70.0 834.4,70.0 839.6,70.0 844.8,70.0 850.0,70.0 855.1,76.0 860.3,76.0 865.5,88.0 870.7,88.0 875.8,88.0 881.0,94.0 886.2,94.0 891.4,94.0 896.6,94.0 901.7,88.0 906.9,88.0 912.1,82.0 917.3,82.0 922.5,82.0 927.6,88.0 932.8,88.0 938.0,94.0"/><polyline fill="none" stroke="#f59e0b" stroke-width="2.5" stroke-linejoin="round" stroke-linecap="round" points="42.0,274.0 47.2,274.0 52.4,274.0 57.5,280.0 62.7,268.0 67.9,268.0 73.1,268.0 78.3,274.0 83.4,274.0 88.6,274.0 93.8,280.0 99.0,286.0 104.2,286.0 109.3,286.0 114.5,286.0 119.7,286.0 124.9,286.0 130.0,286.0 135.2,286.0 140.4,286.0 145.6,286.0 150.8,286.0 155.9,286.0 161.1,286.0 166.3,286.0 171.5,286.0 176.7,286.0 181.8,286.0 187.0,286.0 192.2,286.0 197.4,286.0 202.6,274.0 207.7,280.0 212.9,280.0 218.1,280.0 223.3,280.0 228.5,286.0 233.6,286.0 238.8,286.0 244.0,274.0 249.2,268.0 254.3,268.0 259.5,262.0 264.7,262.0 269.9,262.0 275.1,262.0 280.2,268.0 285.4,280.0 290.6,280.0 295.8,274.0 301.0,262.0 306.1,268.0 311.3,268.0 316.5,262.0 321.7,268.0 326.9,268.0 332.0,268.0 337.2,280.0 342.4,280.0 347.6,268.0 352.8,268.0 357.9,268.0 363.1,262.0 368.3,274.0 373.5,280.0 378.6,286.0 383.8,286.0 389.0,274.0 394.2,274.0 399.4,274.0 404.5,274.0 409.7,274.0 414.9,274.0 420.1,274.0 425.3,274.0 430.4,280.0 435.6,274.0 440.8,280.0 446.0,286.0 451.2,286.0 456.3,286.0 461.5,286.0 466.7,280.0 471.9,286.0 477.1,286.0 482.2,286.0 487.4,286.0 492.6,286.0 497.8,286.0 502.9,286.0 508.1,286.0 513.3,286.0 518.5,286.0 523.7,286.0 528.8,286.0 534.0,286.0 539.2,286.0 544.4,286.0 549.6,286.0 554.7,286.0 559.9,286.0 565.1,286.0 570.3,286.0 575.5,286.0 580.6,286.0 585.8,286.0 591.0,286.0 596.2,286.0 601.4,286.0 606.5,286.0 611.7,286.0 616.9,286.0 622.1,286.0 627.2,286.0 632.4,286.0 637.6,286.0 642.8,286.0 648.0,286.0 653.1,286.0 658.3,286.0 663.5,286.0 668.7,286.0 673.9,286.0 679.0,286.0 684.2,286.0 689.4,286.0 694.6,286.0 699.8,286.0 704.9,286.0 710.1,286.0 715.3,286.0 720.5,286.0 725.7,286.0 730.8,286.0 736.0,286.0 741.2,286.0 746.4,286.0 751.5,286.0 756.7,286.0 761.9,286.0 767.1,286.0 772.3,286.0 777.4,286.0 782.6,286.0 787.8,286.0 793.0,286.0 798.2,286.0 803.3,286.0 808.5,286.0 813.7,286.0 818.9,286.0 824.1,286.0 829.2,286.0 834.4,286.0 839.6,286.0 844.8,286.0 850.0,286.0 855.1,286.0 860.3,280.0 865.5,268.0 870.7,268.0 875.8,268.0 881.0,268.0 886.2,262.0 891.4,262.0 896.6,262.0 901.7,268.0 906.9,268.0 912.1,274.0 917.3,274.0 922.5,274.0 927.6,268.0 932.8,268.0 938.0,268.0"/><polyline fill="none" stroke="#ef4444" stroke-width="2.5" stroke-linejoin="round" stroke-linecap="round" points="42.0,280.0 47.2,280.0 52.4,268.0 57.5,262.0 62.7,286.0 67.9,286.0 73.1,286.0 78.3,286.0 83.4,280.0 88.6,286.0 93.8,286.0 99.0,286.0 104.2,286.0 109.3,286.0 114.5,286.0 119.7,286.0 124.9,286.0 130.0,286.0 135.2,286.0 140.4,286.0 145.6,286.0 150.8,286.0 155.9,286.0 161.1,286.0 166.3,286.0 171.5,286.0 176.7,286.0 181.8,286.0 187.0,286.0 192.2,286.0 197.4,286.0 202.6,286.0 207.7,274.0 212.9,256.0 218.1,286.0 223.3,286.0 228.5,286.0 233.6,286.0 238.8,286.0 244.0,286.0 249.2,286.0 254.3,286.0 259.5,286.0 264.7,286.0 269.9,286.0 275.1,286.0 280.2,286.0 285.4,286.0 290.6,280.0 295.8,286.0 301.0,286.0 306.1,286.0 311.3,286.0 316.5,286.0 321.7,286.0 326.9,286.0 332.0,286.0 337.2,286.0 342.4,286.0 347.6,286.0 352.8,286.0 357.9,286.0 363.1,280.0 368.3,286.0 373.5,286.0 378.6,286.0 383.8,286.0 389.0,286.0 394.2,286.0 399.4,286.0 404.5,286.0 409.7,286.0 414.9,286.0 420.1,286.0 425.3,286.0 430.4,274.0 435.6,274.0 440.8,274.0 446.0,274.0 451.2,274.0 456.3,274.0 461.5,274.0 466.7,274.0 471.9,274.0 477.1,274.0 482.2,274.0 487.4,274.0 492.6,274.0 497.8,274.0 502.9,274.0 508.1,274.0 513.3,274.0 518.5,274.0 523.7,274.0 528.8,274.0 534.0,274.0 539.2,274.0 544.4,274.0 549.6,274.0 554.7,274.0 559.9,274.0 565.1,274.0 570.3,274.0 575.5,274.0 580.6,274.0 585.8,274.0 591.0,274.0 596.2,274.0 601.4,274.0 606.5,274.0 611.7,274.0 616.9,274.0 622.1,274.0 627.2,274.0 632.4,274.0 637.6,274.0 642.8,274.0 648.0,274.0 653.1,274.0 658.3,274.0 663.5,274.0 668.7,274.0 673.9,274.0 679.0,274.0 684.2,274.0 689.4,274.0 694.6,274.0 699.8,274.0 704.9,274.0 710.1,274.0 715.3,274.0 720.5,274.0 725.7,274.0 730.8,274.0 736.0,274.0 741.2,274.0 746.4,274.0 751.5,274.0 756.7,274.0 761.9,274.0 767.1,274.0 772.3,274.0 777.4,274.0 782.6,274.0 787.8,274.0 793.0,274.0 798.2,274.0 803.3,274.0 808.5,274.0 813.7,274.0 818.9,274.0 824.1,268.0 829.2,274.0 834.4,274.0 839.6,274.0 844.8,274.0 850.0,274.0 855.1,274.0 860.3,274.0 865.5,274.0 870.7,274.0 875.8,274.0 881.0,268.0 886.2,274.0 891.4,274.0 896.6,274.0 901.7,274.0 906.9,274.0 912.1,274.0 917.3,274.0 922.5,274.0 927.6,274.0 932.8,274.0 938.0,268.0"/><polyline fill="none" stroke="#a855f7" stroke-width="2.5" stroke-linejoin="round" stroke-linecap="round" points="42.0,286.0 47.2,286.0 52.4,286.0 57.5,286.0 62.7,286.0 67.9,286.0 73.1,286.0 78.3,286.0 83.4,286.0 88.6,286.0 93.8,286.0 99.0,286.0 104.2,286.0 109.3,286.0 114.5,286.0 119.7,286.0 124.9,286.0 130.0,286.0 135.2,286.0 140.4,286.0 145.6,286.0 150.8,286.0 155.9,286.0 161.1,286.0 166.3,286.0 171.5,286.0 176.7,286.0 181.8,286.0 187.0,286.0 192.2,286.0 197.4,286.0 202.6,286.0 207.7,286.0 212.9,286.0 218.1,286.0 223.3,286.0 228.5,286.0 233.6,286.0 238.8,286.0 244.0,286.0 249.2,286.0 254.3,286.0 259.5,286.0 264.7,286.0 269.9,286.0 275.1,286.0 280.2,286.0 285.4,286.0 290.6,286.0 295.8,286.0 301.0,286.0 306.1,286.0 311.3,286.0 316.5,286.0 321.7,286.0 326.9,286.0 332.0,286.0 337.2,286.0 342.4,286.0 347.6,286.0 352.8,286.0 357.9,286.0 363.1,286.0 368.3,286.0 373.5,286.0 378.6,286.0 383.8,286.0 389.0,286.0 394.2,286.0 399.4,286.0 404.5,280.0 409.7,286.0 414.9,286.0 420.1,286.0 425.3,286.0 430.4,286.0 435.6,286.0 440.8,286.0 446.0,286.0 451.2,286.0 456.3,286.0 461.5,286.0 466.7,286.0 471.9,286.0 477.1,286.0 482.2,286.0 487.4,286.0 492.6,286.0 497.8,286.0 502.9,286.0 508.1,286.0 513.3,286.0 518.5,286.0 523.7,286.0 528.8,286.0 534.0,286.0 539.2,286.0 544.4,286.0 549.6,286.0 554.7,286.0 559.9,286.0 565.1,286.0 570.3,286.0 575.5,286.0 580.6,286.0 585.8,286.0 591.0,286.0 596.2,286.0 601.4,286.0 606.5,286.0 611.7,286.0 616.9,286.0 622.1,286.0 627.2,286.0 632.4,286.0 637.6,286.0 642.8,286.0 648.0,286.0 653.1,286.0 658.3,286.0 663.5,286.0 668.7,286.0 673.9,286.0 679.0,286.0 684.2,286.0 689.4,286.0 694.6,286.0 699.8,286.0 704.9,286.0 710.1,286.0 715.3,286.0 720.5,286.0 725.7,286.0 730.8,286.0 736.0,286.0 741.2,286.0 746.4,286.0 751.5,286.0 756.7,286.0 761.9,286.0 767.1,286.0 772.3,286.0 777.4,286.0 782.6,286.0 787.8,286.0 793.0,286.0 798.2,286.0 803.3,286.0 808.5,286.0 813.7,286.0 818.9,286.0 824.1,286.0 829.2,286.0 834.4,286.0 839.6,286.0 844.8,286.0 850.0,286.0 855.1,280.0 860.3,286.0 865.5,286.0 870.7,286.0 875.8,286.0 881.0,286.0 886.2,286.0 891.4,286.0 896.6,286.0 901.7,286.0 906.9,286.0 912.1,286.0 917.3,286.0 922.5,286.0 927.6,286.0 932.8,286.0 938.0,286.0"/><text x="42" y="308" font-size="11" fill="#5a688a">19/06 12:43</text><text x="938" y="308" text-anchor="end" font-size="11" fill="#5a688a">30/06 00:34</text></svg>