<svg xmlns="http://www.w3.org/2000/svg" viewBox="0 0 960 320" width="960" height="320" font-family="Segoe UI, system-ui, -apple-system, Roboto, Helvetica, Arial, sans-serif" role="img" aria-label="Availability history per region"><rect x="0.5" y="0.5" width="959" height="319" rx="14" fill="#ffffff" stroke="#dce3f1"/><text x="42" y="26" font-size="14" font-weight="600" fill="#14203a">History · 54 points</text><circle cx="47" cy="40" r="5" fill="#22c55e"/><text x="57" y="44" font-size="12" fill="#5a688a">Available</text><circle cx="139.8" cy="40" r="5" fill="#f59e0b"/><text x="149.8" y="44" font-size="12" fill="#5a688a">Saturated</text><circle cx="232.60000000000002" cy="40" r="5" fill="#ef4444"/><text x="242.60000000000002" y="44" font-size="12" fill="#5a688a">Error</text><circle cx="296.6" cy="40" r="5" fill="#a855f7"/><text x="306.6" y="44" font-size="12" fill="#5a688a">Timeout</text><line x1="42" y1="286.0" x2="938" y2="286.0" stroke="#eef2f7" stroke-width="1"/><text x="35" y="289.0" text-anchor="end" font-size="11" fill="#5a688a">0</text><line x1="42" y1="227.5" x2="938" y2="227.5" stroke="#eef2f7" stroke-width="1"/><text x="35" y="230.5" text-anchor="end" font-size="11" fill="#5a688a">11</text><line x1="42" y1="169.0" x2="938" y2="169.0" stroke="#eef2f7" stroke-width="1"/><text x="35" y="172.0" text-anchor="end" font-size="11" fill="#5a688a">22</text><line x1="42" y1="110.5" x2="938" y2="110.5" stroke="#eef2f7" stroke-width="1"/><text x="35" y="113.5" text-anchor="end" font-size="11" fill="#5a688a">33</text><line x1="42" y1="52.0" x2="938" y2="52.0" stroke="#eef2f7" stroke-width="1"/><text x="35" y="55.0" text-anchor="end" font-size="11" fill="#5a688a">44</text><polyline fill="none" stroke="#22c55e" stroke-width="2.5" stroke-linejoin="round" stroke-linecap="round" points="42.0,94.5 58.9,52.0 75.8,62.6 92.7,57.3 109.6,57.3 126.5,62.6 143.4,57.3 160.3,52.0 177.2,62.6 194.2,57.3 211.1,68.0 228.0,52.0 244.9,57.3 261.8,52.0 278.7,57.3 295.6,52.0 312.5,57.3 329.4,52.0 346.3,57.3 363.2,57.3 380.1,52.0 397.0,52.0 413.9,52.0 430.8,52.0 447.7,52.0 464.6,57.3 481.5,52.0 498.5,57.3 515.4,52.0 532.3,52.0 549.2,57.3 566.1,52.0 583.0,99.9 599.9,57.3 616.8,52.0 633.7,131.8 650.6,52.0 667.5,52.0 684.4,52.0 701.3,52.0 718.2,57.3 735.1,52.0 752.0,57.3 768.9,52.0 785.8,52.0 802.8,57.3 819.7,52.0 836.6,57.3 853.5,57.3 870.4,52.0 887.3,52.0 904.2,57.3 921.1,52.0 938.0,52.0"/><circle cx="42.0" cy="94.5" r="2.5" fill="#22c55e"/><circle cx="58.9" cy="52.0" r="2.5" fill="#22c55e"/><circle cx="75.8" cy="62.6" r="2.5" fill="#22c55e"/><circle cx="92.7" cy="57.3" r="2.5" fill="#22c55e"/><circle cx="109.6" cy="57.3" r="2.5" fill="#22c55e"/><circle cx="126.5" cy="62.6" r="2.5" fill="#22c55e"/><circle cx="143.4" cy="57.3" r="2.5" fill="#22c55e"/><circle cx="160.3" cy="52.0" r="2.5" fill="#22c55e"/><circle cx="177.2" cy="62.6" r="2.5" fill="#22c55e"/><circle cx="194.2" cy="57.3" r="2.5" fill="#22c55e"/><circle cx="211.1" cy="68.0" r="2.5" fill="#22c55e"/><circle cx="228.0" cy="52.0" r="2.5" fill="#22c55e"/><circle cx="244.9" cy="57.3" r="2.5" fill="#22c55e"/><circle cx="261.8" cy="52.0" r="2.5" fill="#22c55e"/><circle cx="278.7" cy="57.3" r="2.5" fill="#22c55e"/><circle cx="295.6" cy="52.0" r="2.5" fill="#22c55e"/><circle cx="312.5" cy="57.3" r="2.5" fill="#22c55e"/><circle cx="329.4" cy="52.0" r="2.5" fill="#22c55e"/><circle cx="346.3" cy="57.3" r="2.5" fill="#22c55e"/><circle cx="363.2" cy="57.3" r="2.5" fill="#22c55e"/><circle cx="380.1" cy="52.0" r="2.5" fill="#22c55e"/><circle cx="397.0" cy="52.0" r="2.5" fill="#22c55e"/><circle cx="413.9" cy="52.0" r="2.5" fill="#22c55e"/><circle cx="430.8" cy="52.0" r="2.5" fill="#22c55e"/><circle cx="447.7" cy="52.0" r="2.5" fill="#22c55e"/><circle cx="464.6" cy="57.3" r="2.5" fill="#22c55e"/><circle cx="481.5" cy="52.0" r="2.5" fill="#22c55e"/><circle cx="498.5" cy="57.3" r="2.5" fill="#22c55e"/><circle cx="515.4" cy="52.0" r="2.5" fill="#22c55e"/><circle cx="532.3" cy="52.0" r="2.5" fill="#22c55e"/><circle cx="549.2" cy="57.3" r="2.5" fill="#22c55e"/><circle cx="566.1" cy="52.0" r="2.5" fill="#22c55e"/><circle cx="583.0" cy="99.9" r="2.5" fill="#22c55e"/><circle cx="599.9" cy="57.3" r="2.5" fill="#22c55e"/><circle cx="616.8" cy="52.0" r="2.5" fill="#22c55e"/><circle cx="633.7" cy="131.8" r="2.5" fill="#22c55e"/><circle cx="650.6" cy="52.0" r="2.5" fill="#22c55e"/><circle cx="667.5" cy="52.0" r="2.5" fill="#22c55e"/><circle cx="684.4" cy="52.0" r="2.5" fill="#22c55e"/><circle cx="701.3" cy="52.0" r="2.5" fill="#22c55e"/><circle cx="718.2" cy="57.3" r="2.5" fill="#22c55e"/><circle cx="735.1" cy="52.0" r="2.5" fill="#22c55e"/><circle cx="752.0" cy="57.3" r="2.5" fill="#22c55e"/><circle cx="768.9" cy="52.0" r="2.5" fill="#22c55e"/><circle cx="785.8" cy="52.0" r="2.5" fill="#22c55e"/><circle cx="802.8" cy="57.3" r="2.5" fill="#22c55e"/><circle cx="819.7" cy="52.0" r="2.5" fill="#22c55e"/><circle cx="836.6" cy="57.3" r="2.5" fill="#22c55e"/><circle cx="853.5" cy="57.3" r="2.5" fill="#22c55e"/><circle cx="870.4" cy="52.0" r="2.5" fill="#22c55e"/><circle cx="887.3" cy="52.0" r="2.5" fill="#22c55e"/><circle cx="904.2" cy="57.3" r="2.5" fill="#22c55e"/><circle cx="921.1" cy="52.0" r="2.5" fill="#22c55e"/><circle cx="938.0" cy="52.0" r="2.5" fill="#22c55e"/><polyline fill="none" stroke="#f59e0b" stroke-width="2.5" stroke-linejoin="round" stroke-linecap="round" points="42.0,275.4 58.9,286.0 75.8,286.0 92.7,286.0 109.6,286.0 126.5,286.0 143.4,286.0 160.3,286.0 177.2,286.0 194.2,286.0 211.1,286.0 228.0,286.0 244.9,286.0 261.8,286.0 278.7,286.0 295.6,286.0 312.5,286.0 329.4,286.0 346.3,286.0 363.2,286.0 380.1,286.0 397.0,286.0 413.9,286.0 430.8,286.0 447.7,286.0 464.6,286.0 481.5,286.0 498.5,286.0 515.4,286.0 532.3,286.0 549.2,286.0 566.1,286.0 583.0,286.0 599.9,286.0 616.8,286.0 633.7,286.0 650.6,286.0 667.5,286.0 684.4,286.0 701.3,286.0 718.2,286.0 735.1,286.0 752.0,286.0 768.9,286.0 785.8,286.0 802.8,286.0 819.7,286.0 836.6,286.0 853.5,286.0 870.4,286.0 887.3,286.0 904.2,286.0 921.1,286.0 938.0,286.0"/><circle cx="42.0" cy="275.4" r="2.5" fill="#f59e0b"/><circle cx="58.9" cy="286.0" r="2.5" fill="#f59e0b"/><circle cx="75.8" cy="286.0" r="2.5" fill="#f59e0b"/><circle cx="92.7" cy="286.0" r="2.5" fill="#f59e0b"/><circle cx="109.6" cy="286.0" r="2.5" fill="#f59e0b"/><circle cx="126.5" cy="286.0" r="2.5" fill="#f59e0b"/><circle cx="143.4" cy="286.0" r="2.5" fill="#f59e0b"/><circle cx="160.3" cy="286.0" r="2.5" fill="#f59e0b"/><circle cx="177.2" cy="286.0" r="2.5" fill="#f59e0b"/><circle cx="194.2" cy="286.0" r="2.5" fill="#f59e0b"/><circle cx="211.1" cy="286.0" r="2.5" fill="#f59e0b"/><circle cx="228.0" cy="286.0" r="2.5" fill="#f59e0b"/><circle cx="244.9" cy="286.0" r="2.5" fill="#f59e0b"/><circle cx="261.8" cy="286.0" r="2.5" fill="#f59e0b"/><circle cx="278.7" cy="286.0" r="2.5" fill="#f59e0b"/><circle cx="295.6" cy="286.0" r="2.5" fill="#f59e0b"/><circle cx="312.5" cy="286.0" r="2.5" fill="#f59e0b"/><circle cx="329.4" cy="286.0" r="2.5" fill="#f59e0b"/><circle cx="346.3" cy="286.0" r="2.5" fill="#f59e0b"/><circle cx="363.2" cy="286.0" r="2.5" fill="#f59e0b"/><circle cx="380.1" cy="286.0" r="2.5" fill="#f59e0b"/><circle cx="397.0" cy="286.0" r="2.5" fill="#f59e0b"/><circle cx="413.9" cy="286.0" r="2.5" fill="#f59e0b"/><circle cx="430.8" cy="286.0" r="2.5" fill="#f59e0b"/><circle cx="447.7" cy="286.0" r="2.5" fill="#f59e0b"/><circle cx="464.6" cy="286.0" r="2.5" fill="#f59e0b"/><circle cx="481.5" cy="286.0" r="2.5" fill="#f59e0b"/><circle cx="498.5" cy="286.0" r="2.5" fill="#f59e0b"/><circle cx="515.4" cy="286.0" r="2.5" fill="#f59e0b"/><circle cx="532.3" cy="286.0" r="2.5" fill="#f59e0b"/><circle cx="549.2" cy="286.0" r="2.5" fill="#f59e0b"/><circle cx="566.1" cy="286.0" r="2.5" fill="#f59e0b"/><circle cx="583.0" cy="286.0" r="2.5" fill="#f59e0b"/><circle cx="599.9" cy="286.0" r="2.5" fill="#f59e0b"/><circle cx="616.8" cy="286.0" r="2.5" fill="#f59e0b"/><circle cx="633.7" cy="286.0" r="2.5" fill="#f59e0b"/><circle cx="650.6" cy="286.0" r="2.5" fill="#f59e0b"/><circle cx="667.5" cy="286.0" r="2.5" fill="#f59e0b"/><circle cx="684.4" cy="286.0" r="2.5" fill="#f59e0b"/><circle cx="701.3" cy="286.0" r="2.5" fill="#f59e0b"/><circle cx="718.2" cy="286.0" r="2.5" fill="#f59e0b"/><circle cx="735.1" cy="286.0" r="2.5" fill="#f59e0b"/><circle cx="752.0" cy="286.0" r="2.5" fill="#f59e0b"/><circle cx="768.9" cy="286.0" r="2.5" fill="#f59e0b"/><circle cx="785.8" cy="286.0" r="2.5" fill="#f59e0b"/><circle cx="802.8" cy="286.0" r="2.5" fill="#f59e0b"/><circle cx="819.7" cy="286.0" r="2.5" fill="#f59e0b"/><circle cx="836.6" cy="286.0" r="2.5" fill="#f59e0b"/><circle cx="853.5" cy="286.0" r="2.5" fill="#f59e0b"/><circle cx="870.4" cy="286.0" r="2.5" fill="#f59e0b"/><circle cx="887.3" cy="286.0" r="2.5" fill="#f59e0b"/><circle cx="904.2" cy="286.0" r="2.5" fill="#f59e0b"/><circle cx="921.1" cy="286.0" r="2.5" fill="#f59e0b"/><circle cx="938.0" cy="286.0" r="2.5" fill="#f59e0b"/><polyline fill="none" stroke="#ef4444" stroke-width="2.5" stroke-linejoin="round" stroke-linecap="round" points="42.0,286.0 58.9,286.0 75.8,286.0 92.7,286.0 109.6,286.0 126.5,286.0 143.4,286.0 160.3,286.0 177.2,280.7 194.2,280.7 211.1,286.0 228.0,286.0 244.9,286.0 261.8,286.0 278.7,286.0 295.6,286.0 312.5,286.0 329.4,286.0 346.3,286.0 363.2,286.0 380.1,286.0 397.0,286.0 413.9,286.0 430.8,286.0 447.7,286.0 464.6,286.0 481.5,286.0 498.5,286.0 515.4,286.0 532.3,286.0 549.2,280.7 566.1,286.0 583.0,238.1 599.9,286.0 616.8,286.0 633.7,206.2 650.6,286.0 667.5,286.0 684.4,286.0 701.3,286.0 718.2,286.0 735.1,286.0 752.0,286.0 768.9,286.0 785.8,286.0 802.8,286.0 819.7,286.0 836.6,286.0 853.5,286.0 870.4,286.0 887.3,286.0 904.2,286.0 921.1,286.0 938.0,286.0"/><circle cx="42.0" cy="286.0" r="2.5" fill="#ef4444"/><circle cx="58.9" cy="286.0" r="2.5" fill="#ef4444"/><circle cx="75.8" cy="286.0" r="2.5" fill="#ef4444"/><circle cx="92.7" cy="286.0" r="2.5" fill="#ef4444"/><circle cx="109.6" cy="286.0" r="2.5" fill="#ef4444"/><circle cx="126.5" cy="286.0" r="2.5" fill="#ef4444"/><circle cx="143.4" cy="286.0" r="2.5" fill="#ef4444"/><circle cx="160.3" cy="286.0" r="2.5" fill="#ef4444"/><circle cx="177.2" cy="280.7" r="2.5" fill="#ef4444"/><circle cx="194.2" cy="280.7" r="2.5" fill="#ef4444"/><circle cx="211.1" cy="286.0" r="2.5" fill="#ef4444"/><circle cx="228.0" cy="286.0" r="2.5" fill="#ef4444"/><circle cx="244.9" cy="286.0" r="2.5" fill="#ef4444"/><circle cx="261.8" cy="286.0" r="2.5" fill="#ef4444"/><circle cx="278.7" cy="286.0" r="2.5" fill="#ef4444"/><circle cx="295.6" cy="286.0" r="2.5" fill="#ef4444"/><circle cx="312.5" cy="286.0" r="2.5" fill="#ef4444"/><circle cx="329.4" cy="286.0" r="2.5" fill="#ef4444"/><circle cx="346.3" cy="286.0" r="2.5" fill="#ef4444"/><circle cx="363.2" cy="286.0" r="2.5" fill="#ef4444"/><circle cx="380.1" cy="286.0" r="2.5" fill="#ef4444"/><circle cx="397.0" cy="286.0" r="2.5" fill="#ef4444"/><circle cx="413.9" cy="286.0" r="2.5" fill="#ef4444"/><circle cx="430.8" cy="286.0" r="2.5" fill="#ef4444"/><circle cx="447.7" cy="286.0" r="2.5" fill="#ef4444"/><circle cx="464.6" cy="286.0" r="2.5" fill="#ef4444"/><circle cx="481.5" cy="286.0" r="2.5" fill="#ef4444"/><circle cx="498.5" cy="286.0" r="2.5" fill="#ef4444"/><circle cx="515.4" cy="286.0" r="2.5" fill="#ef4444"/><circle cx="532.3" cy="286.0" r="2.5" fill="#ef4444"/><circle cx="549.2" cy="280.7" r="2.5" fill="#ef4444"/><circle cx="566.1" cy="286.0" r="2.5" fill="#ef4444"/><circle cx="583.0" cy="238.1" r="2.5" fill="#ef4444"/><circle cx="599.9" cy="286.0" r="2.5" fill="#ef4444"/><circle cx="616.8" cy="286.0" r="2.5" fill="#ef4444"/><circle cx="633.7" cy="206.2" r="2.5" fill="#ef4444"/><circle cx="650.6" cy="286.0" r="2.5" fill="#ef4444"/><circle cx="667.5" cy="286.0" r="2.5" fill="#ef4444"/><circle cx="684.4" cy="286.0" r="2.5" fill="#ef4444"/><circle cx="701.3" cy="286.0" r="2.5" fill="#ef4444"/><circle cx="718.2" cy="286.0" r="2.5" fill="#ef4444"/><circle cx="735.1" cy="286.0" r="2.5" fill="#ef4444"/><circle cx="752.0" cy="286.0" r="2.5" fill="#ef4444"/><circle cx="768.9" cy="286.0" r="2.5" fill="#ef4444"/><circle cx="785.8" cy="286.0" r="2.5" fill="#ef4444"/><circle cx="802.8" cy="286.0" r="2.5" fill="#ef4444"/><circle cx="819.7" cy="286.0" r="2.5" fill="#ef4444"/><circle cx="836.6" cy="286.0" r="2.5" fill="#ef4444"/><circle cx="853.5" cy="286.0" r="2.5" fill="#ef4444"/><circle cx="870.4" cy="286.0" r="2.5" fill="#ef4444"/><circle cx="887.3" cy="286.0" r="2.5" fill="#ef4444"/><circle cx="904.2" cy="286.0" r="2.5" fill="#ef4444"/><circle cx="921.1" cy="286.0" r="2.5" fill="#ef4444"/><circle cx="938.0" cy="286.0" r="2.5" fill="#ef4444"/><polyline fill="none" stroke="#a855f7" stroke-width="2.5" stroke-linejoin="round" stroke-linecap="round" points="42.0,286.0 58.9,286.0 75.8,275.4 92.7,280.7 109.6,280.7 126.5,275.4 143.4,280.7 160.3,286.0 177.2,280.7 194.2,286.0 211.1,270.0 228.0,286.0 244.9,280.7 261.8,286.0 278.7,280.7 295.6,286.0 312.5,280.7 329.4,286.0 346.3,280.7 363.2,280.7 380.1,286.0 397.0,286.0 413.9,286.0 430.8,286.0 447.7,286.0 464.6,280.7 481.5,286.0 498.5,280.7 515.4,286.0 532.3,286.0 549.2,286.0 566.1,286.0 583.0,286.0 599.9,280.7 616.8,286.0 633.7,286.0 650.6,286.0 667.5,286.0 684.4,286.0 701.3,286.0 718.2,280.7 735.1,286.0 752.0,280.7 768.9,286.0 785.8,286.0 802.8,280.7 819.7,286.0 836.6,280.7 853.5,280.7 870.4,286.0 887.3,286.0 904.2,280.7 921.1,286.0 938.0,286.0"/><circle cx="42.0" cy="286.0" r="2.5" fill="#a855f7"/><circle cx="58.9" cy="286.0" r="2.5" fill="#a855f7"/><circle cx="75.8" cy="275.4" r="2.5" fill="#a855f7"/><circle cx="92.7" cy="280.7" r="2.5" fill="#a855f7"/><circle cx="109.6" cy="280.7" r="2.5" fill="#a855f7"/><circle cx="126.5" cy="275.4" r="2.5" fill="#a855f7"/><circle cx="143.4" cy="280.7" r="2.5" fill="#a855f7"/><circle cx="160.3" cy="286.0" r="2.5" fill="#a855f7"/><circle cx="177.2" cy="280.7" r="2.5" fill="#a855f7"/><circle cx="194.2" cy="286.0" r="2.5" fill="#a855f7"/><circle cx="211.1" cy="270.0" r="2.5" fill="#a855f7"/><circle cx="228.0" cy="286.0" r="2.5" fill="#a855f7"/><circle cx="244.9" cy="280.7" r="2.5" fill="#a855f7"/><circle cx="261.8" cy="286.0" r="2.5" fill="#a855f7"/><circle cx="278.7" cy="280.7" r="2.5" fill="#a855f7"/><circle cx="295.6" cy="286.0" r="2.5" fill="#a855f7"/><circle cx="312.5" cy="280.7" r="2.5" fill="#a855f7"/><circle cx="329.4" cy="286.0" r="2.5" fill="#a855f7"/><circle cx="346.3" cy="280.7" r="2.5" fill="#a855f7"/><circle cx="363.2" cy="280.7" r="2.5" fill="#a855f7"/><circle cx="380.1" cy="286.0" r="2.5" fill="#a855f7"/><circle cx="397.0" cy="286.0" r="2.5" fill="#a855f7"/><circle cx="413.9" cy="286.0" r="2.5" fill="#a855f7"/><circle cx="430.8" cy="286.0" r="2.5" fill="#a855f7"/><circle cx="447.7" cy="286.0" r="2.5" fill="#a855f7"/><circle cx="464.6" cy="280.7" r="2.5" fill="#a855f7"/><circle cx="481.5" cy="286.0" r="2.5" fill="#a855f7"/><circle cx="498.5" cy="280.7" r="2.5" fill="#a855f7"/><circle cx="515.4" cy="286.0" r="2.5" fill="#a855f7"/><circle cx="532.3" cy="286.0" r="2.5" fill="#a855f7"/><circle cx="549.2" cy="286.0" r="2.5" fill="#a855f7"/><circle cx="566.1" cy="286.0" r="2.5" fill="#a855f7"/><circle cx="583.0" cy="286.0" r="2.5" fill="#a855f7"/><circle cx="599.9" cy="280.7" r="2.5" fill="#a855f7"/><circle cx="616.8" cy="286.0" r="2.5" fill="#a855f7"/><circle cx="633.7" cy="286.0" r="2.5" fill="#a855f7"/><circle cx="650.6" cy="286.0" r="2.5" fill="#a855f7"/><circle cx="667.5" cy="286.0" r="2.5" fill="#a855f7"/><circle cx="684.4" cy="286.0" r="2.5" fill="#a855f7"/><circle cx="701.3" cy="286.0" r="2.5" fill="#a855f7"/><circle cx="718.2" cy="280.7" r="2.5" fill="#a855f7"/><circle cx="735.1" cy="286.0" r="2.5" fill="#a855f7"/><circle cx="752.0" cy="280.7" r="2.5" fill="#a855f7"/><circle cx="768.9" cy="286.0" r="2.5" fill="#a855f7"/><circle cx="785.8" cy="286.0" r="2.5" fill="#a855f7"/><circle cx="802.8" cy="280.7" r="2.5" fill="#a855f7"/><circle cx="819.7" cy="286.0" r="2.5" fill="#a855f7"/><circle cx="836.6" cy="280.7" r="2.5" fill="#a855f7"/><circle cx="853.5" cy="280.7" r="2.5" fill="#a855f7"/><circle cx="870.4" cy="286.0" r="2.5" fill="#a855f7"/><circle cx="887.3" cy="286.0" r="2.5" fill="#a855f7"/><circle cx="904.2" cy="280.7" r="2.5" fill="#a855f7"/><circle cx="921.1" cy="286.0" r="2.5" fill="#a855f7"/><circle cx="938.0" cy="286.0" r="2.5" fill="#a855f7"/><text x="42" y="308" font-size="11" fill="#5a688a">19/06 15:39</text><text x="938" y="308" text-anchor="end" font-size="11" fill="#5a688a">09/09 11:43</text></svg>