<svg xmlns="http://www.w3.org/2000/svg" viewBox="0 0 960 320" width="960" height="320" font-family="Segoe UI, system-ui, -apple-system, Roboto, Helvetica, Arial, sans-serif" role="img" aria-label="Availability history per region"><rect x="0.5" y="0.5" width="959" height="319" rx="14" fill="#ffffff" stroke="#dce3f1"/><text x="42" y="26" font-size="14" font-weight="600" fill="#14203a">History · 108 points</text><circle cx="47" cy="40" r="5" fill="#22c55e"/><text x="57" y="44" font-size="12" fill="#5a688a">Available</text><circle cx="139.8" cy="40" r="5" fill="#f59e0b"/><text x="149.8" y="44" font-size="12" fill="#5a688a">Saturated</text><circle cx="232.60000000000002" cy="40" r="5" fill="#ef4444"/><text x="242.60000000000002" y="44" font-size="12" fill="#5a688a">Error</text><circle cx="296.6" cy="40" r="5" fill="#a855f7"/><text x="306.6" y="44" font-size="12" fill="#5a688a">Timeout</text><line x1="42" y1="286.0" x2="938" y2="286.0" stroke="#eef2f7" stroke-width="1"/><text x="35" y="289.0" text-anchor="end" font-size="11" fill="#5a688a">0</text><line x1="42" y1="227.5" x2="938" y2="227.5" stroke="#eef2f7" stroke-width="1"/><text x="35" y="230.5" text-anchor="end" font-size="11" fill="#5a688a">10</text><line x1="42" y1="169.0" x2="938" y2="169.0" stroke="#eef2f7" stroke-width="1"/><text x="35" y="172.0" text-anchor="end" font-size="11" fill="#5a688a">20</text><line x1="42" y1="110.5" x2="938" y2="110.5" stroke="#eef2f7" stroke-width="1"/><text x="35" y="113.5" text-anchor="end" font-size="11" fill="#5a688a">29</text><line x1="42" y1="52.0" x2="938" y2="52.0" stroke="#eef2f7" stroke-width="1"/><text x="35" y="55.0" text-anchor="end" font-size="11" fill="#5a688a">39</text><polyline fill="none" stroke="#22c55e" stroke-width="2.5" stroke-linejoin="round" stroke-linecap="round" points="42.0,70.0 50.4,70.0 58.7,88.0 67.1,88.0 75.5,76.0 83.9,76.0 92.2,76.0 100.6,70.0 109.0,76.0 117.4,70.0 125.7,64.0 134.1,58.0 142.5,58.0 150.9,58.0 159.2,58.0 167.6,58.0 176.0,58.0 184.4,58.0 192.7,58.0 201.1,58.0 209.5,58.0 217.9,58.0 226.2,58.0 234.6,58.0 243.0,58.0 251.3,58.0 259.7,58.0 268.1,58.0 276.5,58.0 284.8,58.0 293.2,58.0 301.6,70.0 310.0,76.0 318.3,94.0 326.7,64.0 335.1,64.0 343.5,58.0 351.8,58.0 360.2,58.0 368.6,70.0 377.0,76.0 385.3,76.0 393.7,82.0 402.1,82.0 410.4,82.0 418.8,82.0 427.2,76.0 435.6,64.0 443.9,70.0 452.3,70.0 460.7,82.0 469.1,76.0 477.4,76.0 485.8,82.0 494.2,76.0 502.6,76.0 510.9,76.0 519.3,64.0 527.7,64.0 536.1,76.0 544.4,76.0 552.8,76.0 561.2,88.0 569.6,70.0 577.9,64.0 586.3,58.0 594.7,58.0 603.0,70.0 611.4,70.0 619.8,70.0 628.2,76.0 636.5,70.0 644.9,70.0 653.3,70.0 661.7,70.0 670.0,76.0 678.4,82.0 686.8,76.0 695.2,70.0 703.5,70.0 711.9,70.0 720.3,70.0 728.7,76.0 737.0,70.0 745.4,70.0 753.8,70.0 762.1,70.0 770.5,70.0 778.9,70.0 787.3,70.0 795.6,70.0 804.0,70.0 812.4,70.0 820.8,70.0 829.1,70.0 837.5,70.0 845.9,70.0 854.3,70.0 862.6,70.0 871.0,70.0 879.4,70.0 887.8,70.0 896.1,70.0 904.5,70.0 912.9,70.0 921.3,70.0 929.6,70.0 938.0,70.0"/><polyline fill="none" stroke="#f59e0b" stroke-width="2.5" stroke-linejoin="round" stroke-linecap="round" points="42.0,274.0 50.4,274.0 58.7,274.0 67.1,280.0 75.5,268.0 83.9,268.0 92.2,268.0 100.6,274.0 109.0,274.0 117.4,274.0 125.7,280.0 134.1,286.0 142.5,286.0 150.9,286.0 159.2,286.0 167.6,286.0 176.0,286.0 184.4,286.0 192.7,286.0 201.1,286.0 209.5,286.0 217.9,286.0 226.2,286.0 234.6,286.0 243.0,286.0 251.3,286.0 259.7,286.0 268.1,286.0 276.5,286.0 284.8,286.0 293.2,286.0 301.6,274.0 310.0,280.0 318.3,280.0 326.7,280.0 335.1,280.0 343.5,286.0 351.8,286.0 360.2,286.0 368.6,274.0 377.0,268.0 385.3,268.0 393.7,262.0 402.1,262.0 410.4,262.0 418.8,262.0 427.2,268.0 435.6,280.0 443.9,280.0 452.3,274.0 460.7,262.0 469.1,268.0 477.4,268.0 485.8,262.0 494.2,268.0 502.6,268.0 510.9,268.0 519.3,280.0 527.7,280.0 536.1,268.0 544.4,268.0 552.8,268.0 561.2,262.0 569.6,274.0 577.9,280.0 586.3,286.0 594.7,286.0 603.0,274.0 611.4,274.0 619.8,274.0 628.2,274.0 636.5,274.0 644.9,274.0 653.3,274.0 661.7,274.0 670.0,280.0 678.4,274.0 686.8,280.0 695.2,286.0 703.5,286.0 711.9,286.0 720.3,286.0 728.7,280.0 737.0,286.0 745.4,286.0 753.8,286.0 762.1,286.0 770.5,286.0 778.9,286.0 787.3,286.0 795.6,286.0 804.0,286.0 812.4,286.0 820.8,286.0 829.1,286.0 837.5,286.0 845.9,286.0 854.3,286.0 862.6,286.0 871.0,286.0 879.4,286.0 887.8,286.0 896.1,286.0 904.5,286.0 912.9,286.0 921.3,286.0 929.6,286.0 938.0,286.0"/><polyline fill="none" stroke="#ef4444" stroke-width="2.5" stroke-linejoin="round" stroke-linecap="round" points="42.0,280.0 50.4,280.0 58.7,268.0 67.1,262.0 75.5,286.0 83.9,286.0 92.2,286.0 100.6,286.0 109.0,280.0 117.4,286.0 125.7,286.0 134.1,286.0 142.5,286.0 150.9,286.0 159.2,286.0 167.6,286.0 176.0,286.0 184.4,286.0 192.7,286.0 201.1,286.0 209.5,286.0 217.9,286.0 226.2,286.0 234.6,286.0 243.0,286.0 251.3,286.0 259.7,286.0 268.1,286.0 276.5,286.0 284.8,286.0 293.2,286.0 301.6,286.0 310.0,274.0 318.3,256.0 326.7,286.0 335.1,286.0 343.5,286.0 351.8,286.0 360.2,286.0 368.6,286.0 377.0,286.0 385.3,286.0 393.7,286.0 402.1,286.0 410.4,286.0 418.8,286.0 427.2,286.0 435.6,286.0 443.9,280.0 452.3,286.0 460.7,286.0 469.1,286.0 477.4,286.0 485.8,286.0 494.2,286.0 502.6,286.0 510.9,286.0 519.3,286.0 527.7,286.0 536.1,286.0 544.4,286.0 552.8,286.0 561.2,280.0 569.6,286.0 577.9,286.0 586.3,286.0 594.7,286.0 603.0,286.0 611.4,286.0 619.8,286.0 628.2,286.0 636.5,286.0 644.9,286.0 653.3,286.0 661.7,286.0 670.0,274.0 678.4,274.0 686.8,274.0 695.2,274.0 703.5,274.0 711.9,274.0 720.3,274.0 728.7,274.0 737.0,274.0 745.4,274.0 753.8,274.0 762.1,274.0 770.5,274.0 778.9,274.0 787.3,274.0 795.6,274.0 804.0,274.0 812.4,274.0 820.8,274.0 829.1,274.0 837.5,274.0 845.9,274.0 854.3,274.0 862.6,274.0 871.0,274.0 879.4,274.0 887.8,274.0 896.1,274.0 904.5,274.0 912.9,274.0 921.3,274.0 929.6,274.0 938.0,274.0"/><polyline fill="none" stroke="#a855f7" stroke-width="2.5" stroke-linejoin="round" stroke-linecap="round" points="42.0,286.0 50.4,286.0 58.7,286.0 67.1,286.0 75.5,286.0 83.9,286.0 92.2,286.0 100.6,286.0 109.0,286.0 117.4,286.0 125.7,286.0 134.1,286.0 142.5,286.0 150.9,286.0 159.2,286.0 167.6,286.0 176.0,286.0 184.4,286.0 192.7,286.0 201.1,286.0 209.5,286.0 217.9,286.0 226.2,286.0 234.6,286.0 243.0,286.0 251.3,286.0 259.7,286.0 268.1,286.0 276.5,286.0 284.8,286.0 293.2,286.0 301.6,286.0 310.0,286.0 318.3,286.0 326.7,286.0 335.1,286.0 343.5,286.0 351.8,286.0 360.2,286.0 368.6,286.0 377.0,286.0 385.3,286.0 393.7,286.0 402.1,286.0 410.4,286.0 418.8,286.0 427.2,286.0 435.6,286.0 443.9,286.0 452.3,286.0 460.7,286.0 469.1,286.0 477.4,286.0 485.8,286.0 494.2,286.0 502.6,286.0 510.9,286.0 519.3,286.0 527.7,286.0 536.1,286.0 544.4,286.0 552.8,286.0 561.2,286.0 569.6,286.0 577.9,286.0 586.3,286.0 594.7,286.0 603.0,286.0 611.4,286.0 619.8,286.0 628.2,280.0 636.5,286.0 644.9,286.0 653.3,286.0 661.7,286.0 670.0,286.0 678.4,286.0 686.8,286.0 695.2,286.0 703.5,286.0 711.9,286.0 720.3,286.0 728.7,286.0 737.0,286.0 745.4,286.0 753.8,286.0 762.1,286.0 770.5,286.0 778.9,286.0 787.3,286.0 795.6,286.0 804.0,286.0 812.4,286.0 820.8,286.0 829.1,286.0 837.5,286.0 845.9,286.0 854.3,286.0 862.6,286.0 871.0,286.0 879.4,286.0 887.8,286.0 896.1,286.0 904.5,286.0 912.9,286.0 921.3,286.0 929.6,286.0 938.0,286.0"/><text x="42" y="308" font-size="11" fill="#5a688a">19/06 12:43</text><text x="938" y="308" text-anchor="end" font-size="11" fill="#5a688a">27/06 19:30</text></svg>