<svg xmlns="http://www.w3.org/2000/svg" viewBox="0 0 960 320" width="960" height="320" font-family="Segoe UI, system-ui, -apple-system, Roboto, Helvetica, Arial, sans-serif" role="img" aria-label="Availability history per region"><rect x="0.5" y="0.5" width="959" height="319" rx="14" fill="#0d1117" stroke="#2c3a5e"/><text x="42" y="26" font-size="14" font-weight="600" fill="#e6ecff">History · 212 points</text><circle cx="47" cy="40" r="5" fill="#22c55e"/><text x="57" y="44" font-size="12" fill="#9fb0d4">Available</text><circle cx="139.8" cy="40" r="5" fill="#f59e0b"/><text x="149.8" y="44" font-size="12" fill="#9fb0d4">Saturated</text><circle cx="232.60000000000002" cy="40" r="5" fill="#ef4444"/><text x="242.60000000000002" y="44" font-size="12" fill="#9fb0d4">Error</text><circle cx="296.6" cy="40" r="5" fill="#a855f7"/><text x="306.6" y="44" font-size="12" fill="#9fb0d4">Timeout</text><line x1="42" y1="286.0" x2="938" y2="286.0" stroke="#21304f" stroke-width="1"/><text x="35" y="289.0" text-anchor="end" font-size="11" fill="#9fb0d4">0</text><line x1="42" y1="227.5" x2="938" y2="227.5" stroke="#21304f" stroke-width="1"/><text x="35" y="230.5" text-anchor="end" font-size="11" fill="#9fb0d4">10</text><line x1="42" y1="169.0" x2="938" y2="169.0" stroke="#21304f" stroke-width="1"/><text x="35" y="172.0" text-anchor="end" font-size="11" fill="#9fb0d4">20</text><line x1="42" y1="110.5" x2="938" y2="110.5" stroke="#21304f" stroke-width="1"/><text x="35" y="113.5" text-anchor="end" font-size="11" fill="#9fb0d4">29</text><line x1="42" y1="52.0" x2="938" y2="52.0" stroke="#21304f" stroke-width="1"/><text x="35" y="55.0" text-anchor="end" font-size="11" fill="#9fb0d4">39</text><polyline fill="none" stroke="#22c55e" stroke-width="2.5" stroke-linejoin="round" stroke-linecap="round" points="42.0,70.0 46.2,70.0 50.5,88.0 54.7,88.0 59.0,76.0 63.2,76.0 67.5,76.0 71.7,70.0 76.0,76.0 80.2,70.0 84.5,64.0 88.7,58.0 93.0,58.0 97.2,58.0 101.5,58.0 105.7,58.0 109.9,58.0 114.2,58.0 118.4,58.0 122.7,58.0 126.9,58.0 131.2,58.0 135.4,58.0 139.7,58.0 143.9,58.0 148.2,58.0 152.4,58.0 156.7,58.0 160.9,58.0 165.1,58.0 169.4,58.0 173.6,70.0 177.9,76.0 182.1,94.0 186.4,64.0 190.6,64.0 194.9,58.0 199.1,58.0 203.4,58.0 207.6,70.0 211.9,76.0 216.1,76.0 220.4,82.0 224.6,82.0 228.8,82.0 233.1,82.0 237.3,76.0 241.6,64.0 245.8,70.0 250.1,70.0 254.3,82.0 258.6,76.0 262.8,76.0 267.1,82.0 271.3,76.0 275.6,76.0 279.8,76.0 284.0,64.0 288.3,64.0 292.5,76.0 296.8,76.0 301.0,76.0 305.3,88.0 309.5,70.0 313.8,64.0 318.0,58.0 322.3,58.0 326.5,70.0 330.8,70.0 335.0,70.0 339.3,76.0 343.5,70.0 347.7,70.0 352.0,70.0 356.2,70.0 360.5,76.0 364.7,82.0 369.0,76.0 373.2,70.0 377.5,70.0 381.7,70.0 386.0,70.0 390.2,76.0 394.5,70.0 398.7,70.0 402.9,70.0 407.2,70.0 411.4,70.0 415.7,70.0 419.9,70.0 424.2,70.0 428.4,70.0 432.7,70.0 436.9,70.0 441.2,70.0 445.4,70.0 449.7,70.0 453.9,70.0 458.2,70.0 462.4,70.0 466.6,70.0 470.9,70.0 475.1,70.0 479.4,70.0 483.6,70.0 487.9,70.0 492.1,70.0 496.4,70.0 500.6,70.0 504.9,70.0 509.1,70.0 513.4,70.0 517.6,70.0 521.8,70.0 526.1,70.0 530.3,70.0 534.6,70.0 538.8,70.0 543.1,70.0 547.3,70.0 551.6,70.0 555.8,70.0 560.1,70.0 564.3,70.0 568.6,70.0 572.8,70.0 577.1,70.0 581.3,70.0 585.5,70.0 589.8,70.0 594.0,70.0 598.3,70.0 602.5,70.0 606.8,70.0 611.0,70.0 615.3,70.0 619.5,70.0 623.8,70.0 628.0,70.0 632.3,70.0 636.5,70.0 640.7,70.0 645.0,70.0 649.2,70.0 653.5,70.0 657.7,70.0 662.0,70.0 666.2,70.0 670.5,70.0 674.7,70.0 679.0,70.0 683.2,76.0 687.5,70.0 691.7,70.0 696.0,70.0 700.2,70.0 704.4,70.0 708.7,76.0 712.9,76.0 717.2,88.0 721.4,88.0 725.7,88.0 729.9,94.0 734.2,94.0 738.4,94.0 742.7,94.0 746.9,88.0 751.2,88.0 755.4,82.0 759.6,82.0 763.9,82.0 768.1,88.0 772.4,88.0 776.6,94.0 780.9,82.0 785.1,82.0 789.4,82.0 793.6,82.0 797.9,88.0 802.1,88.0 806.4,94.0 810.6,94.0 814.9,88.0 819.1,88.0 823.3,88.0 827.6,94.0 831.8,94.0 836.1,106.0 840.3,94.0 844.6,94.0 848.8,94.0 853.1,94.0 857.3,88.0 861.6,88.0 865.8,82.0 870.1,76.0 874.3,76.0 878.5,76.0 882.8,76.0 887.0,76.0 891.3,76.0 895.5,70.0 899.8,70.0 904.0,70.0 908.3,76.0 912.5,88.0 916.8,82.0 921.0,70.0 925.3,70.0 929.5,70.0 933.8,76.0 938.0,76.0"/><polyline fill="none" stroke="#f59e0b" stroke-width="2.5" stroke-linejoin="round" stroke-linecap="round" points="42.0,274.0 46.2,274.0 50.5,274.0 54.7,280.0 59.0,268.0 63.2,268.0 67.5,268.0 71.7,274.0 76.0,274.0 80.2,274.0 84.5,280.0 88.7,286.0 93.0,286.0 97.2,286.0 101.5,286.0 105.7,286.0 109.9,286.0 114.2,286.0 118.4,286.0 122.7,286.0 126.9,286.0 131.2,286.0 135.4,286.0 139.7,286.0 143.9,286.0 148.2,286.0 152.4,286.0 156.7,286.0 160.9,286.0 165.1,286.0 169.4,286.0 173.6,274.0 177.9,280.0 182.1,280.0 186.4,280.0 190.6,280.0 194.9,286.0 199.1,286.0 203.4,286.0 207.6,274.0 211.9,268.0 216.1,268.0 220.4,262.0 224.6,262.0 228.8,262.0 233.1,262.0 237.3,268.0 241.6,280.0 245.8,280.0 250.1,274.0 254.3,262.0 258.6,268.0 262.8,268.0 267.1,262.0 271.3,268.0 275.6,268.0 279.8,268.0 284.0,280.0 288.3,280.0 292.5,268.0 296.8,268.0 301.0,268.0 305.3,262.0 309.5,274.0 313.8,280.0 318.0,286.0 322.3,286.0 326.5,274.0 330.8,274.0 335.0,274.0 339.3,274.0 343.5,274.0 347.7,274.0 352.0,274.0 356.2,274.0 360.5,280.0 364.7,274.0 369.0,280.0 373.2,286.0 377.5,286.0 381.7,286.0 386.0,286.0 390.2,280.0 394.5,286.0 398.7,286.0 402.9,286.0 407.2,286.0 411.4,286.0 415.7,286.0 419.9,286.0 424.2,286.0 428.4,286.0 432.7,286.0 436.9,286.0 441.2,286.0 445.4,286.0 449.7,286.0 453.9,286.0 458.2,286.0 462.4,286.0 466.6,286.0 470.9,286.0 475.1,286.0 479.4,286.0 483.6,286.0 487.9,286.0 492.1,286.0 496.4,286.0 500.6,286.0 504.9,286.0 509.1,286.0 513.4,286.0 517.6,286.0 521.8,286.0 526.1,286.0 530.3,286.0 534.6,286.0 538.8,286.0 543.1,286.0 547.3,286.0 551.6,286.0 555.8,286.0 560.1,286.0 564.3,286.0 568.6,286.0 572.8,286.0 577.1,286.0 581.3,286.0 585.5,286.0 589.8,286.0 594.0,286.0 598.3,286.0 602.5,286.0 606.8,286.0 611.0,286.0 615.3,286.0 619.5,286.0 623.8,286.0 628.0,286.0 632.3,286.0 636.5,286.0 640.7,286.0 645.0,286.0 649.2,286.0 653.5,286.0 657.7,286.0 662.0,286.0 666.2,286.0 670.5,286.0 674.7,286.0 679.0,286.0 683.2,286.0 687.5,286.0 691.7,286.0 696.0,286.0 700.2,286.0 704.4,286.0 708.7,286.0 712.9,280.0 717.2,268.0 721.4,268.0 725.7,268.0 729.9,268.0 734.2,262.0 738.4,262.0 742.7,262.0 746.9,268.0 751.2,268.0 755.4,274.0 759.6,274.0 763.9,274.0 768.1,268.0 772.4,268.0 776.6,268.0 780.9,274.0 785.1,274.0 789.4,274.0 793.6,274.0 797.9,268.0 802.1,268.0 806.4,262.0 810.6,262.0 814.9,268.0 819.1,268.0 823.3,268.0 827.6,262.0 831.8,262.0 836.1,274.0 840.3,262.0 844.6,262.0 848.8,262.0 853.1,262.0 857.3,268.0 861.6,268.0 865.8,274.0 870.1,280.0 874.3,280.0 878.5,280.0 882.8,280.0 887.0,280.0 891.3,280.0 895.5,286.0 899.8,286.0 904.0,286.0 908.3,280.0 912.5,274.0 916.8,274.0 921.0,280.0 925.3,274.0 929.5,274.0 933.8,268.0 938.0,268.0"/><polyline fill="none" stroke="#ef4444" stroke-width="2.5" stroke-linejoin="round" stroke-linecap="round" points="42.0,280.0 46.2,280.0 50.5,268.0 54.7,262.0 59.0,286.0 63.2,286.0 67.5,286.0 71.7,286.0 76.0,280.0 80.2,286.0 84.5,286.0 88.7,286.0 93.0,286.0 97.2,286.0 101.5,286.0 105.7,286.0 109.9,286.0 114.2,286.0 118.4,286.0 122.7,286.0 126.9,286.0 131.2,286.0 135.4,286.0 139.7,286.0 143.9,286.0 148.2,286.0 152.4,286.0 156.7,286.0 160.9,286.0 165.1,286.0 169.4,286.0 173.6,286.0 177.9,274.0 182.1,256.0 186.4,286.0 190.6,286.0 194.9,286.0 199.1,286.0 203.4,286.0 207.6,286.0 211.9,286.0 216.1,286.0 220.4,286.0 224.6,286.0 228.8,286.0 233.1,286.0 237.3,286.0 241.6,286.0 245.8,280.0 250.1,286.0 254.3,286.0 258.6,286.0 262.8,286.0 267.1,286.0 271.3,286.0 275.6,286.0 279.8,286.0 284.0,286.0 288.3,286.0 292.5,286.0 296.8,286.0 301.0,286.0 305.3,280.0 309.5,286.0 313.8,286.0 318.0,286.0 322.3,286.0 326.5,286.0 330.8,286.0 335.0,286.0 339.3,286.0 343.5,286.0 347.7,286.0 352.0,286.0 356.2,286.0 360.5,274.0 364.7,274.0 369.0,274.0 373.2,274.0 377.5,274.0 381.7,274.0 386.0,274.0 390.2,274.0 394.5,274.0 398.7,274.0 402.9,274.0 407.2,274.0 411.4,274.0 415.7,274.0 419.9,274.0 424.2,274.0 428.4,274.0 432.7,274.0 436.9,274.0 441.2,274.0 445.4,274.0 449.7,274.0 453.9,274.0 458.2,274.0 462.4,274.0 466.6,274.0 470.9,274.0 475.1,274.0 479.4,274.0 483.6,274.0 487.9,274.0 492.1,274.0 496.4,274.0 500.6,274.0 504.9,274.0 509.1,274.0 513.4,274.0 517.6,274.0 521.8,274.0 526.1,274.0 530.3,274.0 534.6,274.0 538.8,274.0 543.1,274.0 547.3,274.0 551.6,274.0 555.8,274.0 560.1,274.0 564.3,274.0 568.6,274.0 572.8,274.0 577.1,274.0 581.3,274.0 585.5,274.0 589.8,274.0 594.0,274.0 598.3,274.0 602.5,274.0 606.8,274.0 611.0,274.0 615.3,274.0 619.5,274.0 623.8,274.0 628.0,274.0 632.3,274.0 636.5,274.0 640.7,274.0 645.0,274.0 649.2,274.0 653.5,274.0 657.7,274.0 662.0,274.0 666.2,274.0 670.5,274.0 674.7,274.0 679.0,274.0 683.2,268.0 687.5,274.0 691.7,274.0 696.0,274.0 700.2,274.0 704.4,274.0 708.7,274.0 712.9,274.0 717.2,274.0 721.4,274.0 725.7,274.0 729.9,268.0 734.2,274.0 738.4,274.0 742.7,274.0 746.9,274.0 751.2,274.0 755.4,274.0 759.6,274.0 763.9,274.0 768.1,274.0 772.4,274.0 776.6,268.0 780.9,274.0 785.1,274.0 789.4,274.0 793.6,274.0 797.9,274.0 802.1,274.0 806.4,274.0 810.6,274.0 814.9,274.0 819.1,274.0 823.3,274.0 827.6,274.0 831.8,274.0 836.1,250.0 840.3,274.0 844.6,274.0 848.8,274.0 853.1,274.0 857.3,274.0 861.6,274.0 865.8,274.0 870.1,274.0 874.3,274.0 878.5,274.0 882.8,274.0 887.0,274.0 891.3,274.0 895.5,274.0 899.8,274.0 904.0,274.0 908.3,274.0 912.5,268.0 916.8,274.0 921.0,280.0 925.3,286.0 929.5,286.0 933.8,286.0 938.0,286.0"/><polyline fill="none" stroke="#a855f7" stroke-width="2.5" stroke-linejoin="round" stroke-linecap="round" points="42.0,286.0 46.2,286.0 50.5,286.0 54.7,286.0 59.0,286.0 63.2,286.0 67.5,286.0 71.7,286.0 76.0,286.0 80.2,286.0 84.5,286.0 88.7,286.0 93.0,286.0 97.2,286.0 101.5,286.0 105.7,286.0 109.9,286.0 114.2,286.0 118.4,286.0 122.7,286.0 126.9,286.0 131.2,286.0 135.4,286.0 139.7,286.0 143.9,286.0 148.2,286.0 152.4,286.0 156.7,286.0 160.9,286.0 165.1,286.0 169.4,286.0 173.6,286.0 177.9,286.0 182.1,286.0 186.4,286.0 190.6,286.0 194.9,286.0 199.1,286.0 203.4,286.0 207.6,286.0 211.9,286.0 216.1,286.0 220.4,286.0 224.6,286.0 228.8,286.0 233.1,286.0 237.3,286.0 241.6,286.0 245.8,286.0 250.1,286.0 254.3,286.0 258.6,286.0 262.8,286.0 267.1,286.0 271.3,286.0 275.6,286.0 279.8,286.0 284.0,286.0 288.3,286.0 292.5,286.0 296.8,286.0 301.0,286.0 305.3,286.0 309.5,286.0 313.8,286.0 318.0,286.0 322.3,286.0 326.5,286.0 330.8,286.0 335.0,286.0 339.3,280.0 343.5,286.0 347.7,286.0 352.0,286.0 356.2,286.0 360.5,286.0 364.7,286.0 369.0,286.0 373.2,286.0 377.5,286.0 381.7,286.0 386.0,286.0 390.2,286.0 394.5,286.0 398.7,286.0 402.9,286.0 407.2,286.0 411.4,286.0 415.7,286.0 419.9,286.0 424.2,286.0 428.4,286.0 432.7,286.0 436.9,286.0 441.2,286.0 445.4,286.0 449.7,286.0 453.9,286.0 458.2,286.0 462.4,286.0 466.6,286.0 470.9,286.0 475.1,286.0 479.4,286.0 483.6,286.0 487.9,286.0 492.1,286.0 496.4,286.0 500.6,286.0 504.9,286.0 509.1,286.0 513.4,286.0 517.6,286.0 521.8,286.0 526.1,286.0 530.3,286.0 534.6,286.0 538.8,286.0 543.1,286.0 547.3,286.0 551.6,286.0 555.8,286.0 560.1,286.0 564.3,286.0 568.6,286.0 572.8,286.0 577.1,286.0 581.3,286.0 585.5,286.0 589.8,286.0 594.0,286.0 598.3,286.0 602.5,286.0 606.8,286.0 611.0,286.0 615.3,286.0 619.5,286.0 623.8,286.0 628.0,286.0 632.3,286.0 636.5,286.0 640.7,286.0 645.0,286.0 649.2,286.0 653.5,286.0 657.7,286.0 662.0,286.0 666.2,286.0 670.5,286.0 674.7,286.0 679.0,286.0 683.2,286.0 687.5,286.0 691.7,286.0 696.0,286.0 700.2,286.0 704.4,286.0 708.7,280.0 712.9,286.0 717.2,286.0 721.4,286.0 725.7,286.0 729.9,286.0 734.2,286.0 738.4,286.0 742.7,286.0 746.9,286.0 751.2,286.0 755.4,286.0 759.6,286.0 763.9,286.0 768.1,286.0 772.4,286.0 776.6,286.0 780.9,286.0 785.1,286.0 789.4,286.0 793.6,286.0 797.9,286.0 802.1,286.0 806.4,286.0 810.6,286.0 814.9,286.0 819.1,286.0 823.3,286.0 827.6,286.0 831.8,286.0 836.1,286.0 840.3,286.0 844.6,286.0 848.8,286.0 853.1,286.0 857.3,286.0 861.6,286.0 865.8,286.0 870.1,286.0 874.3,286.0 878.5,286.0 882.8,286.0 887.0,286.0 891.3,286.0 895.5,286.0 899.8,286.0 904.0,286.0 908.3,286.0 912.5,286.0 916.8,286.0 921.0,286.0 925.3,286.0 929.5,286.0 933.8,286.0 938.0,286.0"/><text x="42" y="308" font-size="11" fill="#9fb0d4">19/06 12:43</text><text x="938" y="308" text-anchor="end" font-size="11" fill="#9fb0d4">01/07 14:30</text></svg>