<svg xmlns="http://www.w3.org/2000/svg" viewBox="0 0 960 320" width="960" height="320" font-family="Segoe UI, system-ui, -apple-system, Roboto, Helvetica, Arial, sans-serif" role="img" aria-label="Availability history per region"><rect x="0.5" y="0.5" width="959" height="319" rx="14" fill="#0d1117" stroke="#2c3a5e"/><text x="42" y="26" font-size="14" font-weight="600" fill="#e6ecff">History · 137 points</text><circle cx="47" cy="40" r="5" fill="#22c55e"/><text x="57" y="44" font-size="12" fill="#9fb0d4">Available</text><circle cx="139.8" cy="40" r="5" fill="#f59e0b"/><text x="149.8" y="44" font-size="12" fill="#9fb0d4">Saturated</text><circle cx="232.60000000000002" cy="40" r="5" fill="#ef4444"/><text x="242.60000000000002" y="44" font-size="12" fill="#9fb0d4">Error</text><circle cx="296.6" cy="40" r="5" fill="#a855f7"/><text x="306.6" y="44" font-size="12" fill="#9fb0d4">Timeout</text><line x1="42" y1="286.0" x2="938" y2="286.0" stroke="#21304f" stroke-width="1"/><text x="35" y="289.0" text-anchor="end" font-size="11" fill="#9fb0d4">0</text><line x1="42" y1="227.5" x2="938" y2="227.5" stroke="#21304f" stroke-width="1"/><text x="35" y="230.5" text-anchor="end" font-size="11" fill="#9fb0d4">10</text><line x1="42" y1="169.0" x2="938" y2="169.0" stroke="#21304f" stroke-width="1"/><text x="35" y="172.0" text-anchor="end" font-size="11" fill="#9fb0d4">19</text><line x1="42" y1="110.5" x2="938" y2="110.5" stroke="#21304f" stroke-width="1"/><text x="35" y="113.5" text-anchor="end" font-size="11" fill="#9fb0d4">28</text><line x1="42" y1="52.0" x2="938" y2="52.0" stroke="#21304f" stroke-width="1"/><text x="35" y="55.0" text-anchor="end" font-size="11" fill="#9fb0d4">38</text><polyline fill="none" stroke="#22c55e" stroke-width="2.5" stroke-linejoin="round" stroke-linecap="round" points="42.0,64.3 48.6,224.4 55.2,82.8 61.8,88.9 68.4,82.8 74.9,76.6 81.5,76.6 88.1,76.6 94.7,76.6 101.3,76.6 107.9,76.6 114.5,76.6 121.1,76.6 127.6,76.6 134.2,76.6 140.8,70.5 147.4,70.5 154.0,82.8 160.6,82.8 167.2,82.8 173.8,88.9 180.4,88.9 186.9,88.9 193.5,88.9 200.1,88.9 206.7,88.9 213.3,88.9 219.9,88.9 226.5,88.9 233.1,82.8 239.6,82.8 246.2,82.8 252.8,82.8 259.4,76.6 266.0,76.6 272.6,76.6 279.2,76.6 285.8,76.6 292.4,82.8 298.9,82.8 305.5,82.8 312.1,82.8 318.7,76.6 325.3,76.6 331.9,76.6 338.5,76.6 345.1,76.6 351.6,76.6 358.2,76.6 364.8,82.8 371.4,82.8 378.0,82.8 384.6,82.8 391.2,76.6 397.8,76.6 404.4,76.6 410.9,76.6 417.5,76.6 424.1,76.6 430.7,76.6 437.3,76.6 443.9,82.8 450.5,76.6 457.1,76.6 463.6,76.6 470.2,76.6 476.8,76.6 483.4,82.8 490.0,76.6 496.6,76.6 503.2,76.6 509.8,76.6 516.4,76.6 522.9,76.6 529.5,76.6 536.1,76.6 542.7,76.6 549.3,70.5 555.9,70.5 562.5,70.5 569.1,70.5 575.6,76.6 582.2,70.5 588.8,76.6 595.4,76.6 602.0,76.6 608.6,76.6 615.2,76.6 621.8,76.6 628.4,82.8 634.9,88.9 641.5,88.9 648.1,88.9 654.7,88.9 661.3,88.9 667.9,88.9 674.5,88.9 681.1,95.1 687.6,88.9 694.2,88.9 700.8,88.9 707.4,88.9 714.0,88.9 720.6,88.9 727.2,82.8 733.8,82.8 740.4,82.8 746.9,82.8 753.5,82.8 760.1,82.8 766.7,82.8 773.3,82.8 779.9,88.9 786.5,88.9 793.1,88.9 799.6,88.9 806.2,88.9 812.8,88.9 819.4,88.9 826.0,88.9 832.6,95.1 839.2,88.9 845.8,88.9 852.4,88.9 858.9,101.3 865.5,88.9 872.1,88.9 878.7,88.9 885.3,88.9 891.9,82.8 898.5,82.8 905.1,82.8 911.6,82.8 918.2,88.9 924.8,82.8 931.4,88.9 938.0,88.9"/><polyline fill="none" stroke="#f59e0b" stroke-width="2.5" stroke-linejoin="round" stroke-linecap="round" points="42.0,273.7 48.6,267.5 55.2,255.2 61.8,249.1 68.4,255.2 74.9,261.4 81.5,261.4 88.1,261.4 94.7,261.4 101.3,261.4 107.9,261.4 114.5,261.4 121.1,261.4 127.6,261.4 134.2,261.4 140.8,267.5 147.4,267.5 154.0,261.4 160.6,255.2 167.2,255.2 173.8,249.1 180.4,249.1 186.9,249.1 193.5,249.1 200.1,249.1 206.7,249.1 213.3,249.1 219.9,249.1 226.5,249.1 233.1,255.2 239.6,255.2 246.2,255.2 252.8,255.2 259.4,261.4 266.0,261.4 272.6,261.4 279.2,261.4 285.8,261.4 292.4,255.2 298.9,255.2 305.5,255.2 312.1,255.2 318.7,261.4 325.3,261.4 331.9,261.4 338.5,261.4 345.1,261.4 351.6,261.4 358.2,261.4 364.8,255.2 371.4,255.2 378.0,255.2 384.6,261.4 391.2,261.4 397.8,261.4 404.4,261.4 410.9,261.4 417.5,261.4 424.1,261.4 430.7,261.4 437.3,261.4 443.9,255.2 450.5,261.4 457.1,261.4 463.6,261.4 470.2,261.4 476.8,261.4 483.4,261.4 490.0,261.4 496.6,261.4 503.2,261.4 509.8,261.4 516.4,261.4 522.9,261.4 529.5,261.4 536.1,261.4 542.7,261.4 549.3,267.5 555.9,267.5 562.5,267.5 569.1,267.5 575.6,267.5 582.2,267.5 588.8,261.4 595.4,261.4 602.0,261.4 608.6,261.4 615.2,261.4 621.8,261.4 628.4,255.2 634.9,249.1 641.5,249.1 648.1,255.2 654.7,249.1 661.3,249.1 667.9,249.1 674.5,249.1 681.1,249.1 687.6,249.1 694.2,255.2 700.8,249.1 707.4,249.1 714.0,249.1 720.6,249.1 727.2,255.2 733.8,255.2 740.4,255.2 746.9,255.2 753.5,255.2 760.1,255.2 766.7,255.2 773.3,255.2 779.9,249.1 786.5,249.1 793.1,249.1 799.6,249.1 806.2,249.1 812.8,249.1 819.4,249.1 826.0,255.2 832.6,249.1 839.2,249.1 845.8,249.1 852.4,249.1 858.9,249.1 865.5,249.1 872.1,249.1 878.7,255.2 885.3,255.2 891.9,255.2 898.5,255.2 905.1,255.2 911.6,255.2 918.2,255.2 924.8,255.2 931.4,249.1 938.0,249.1"/><polyline fill="none" stroke="#ef4444" stroke-width="2.5" stroke-linejoin="round" stroke-linecap="round" points="42.0,286.0 48.6,132.1 55.2,286.0 61.8,286.0 68.4,286.0 74.9,286.0 81.5,286.0 88.1,286.0 94.7,286.0 101.3,286.0 107.9,286.0 114.5,286.0 121.1,286.0 127.6,286.0 134.2,286.0 140.8,286.0 147.4,286.0 154.0,279.8 160.6,286.0 167.2,286.0 173.8,286.0 180.4,286.0 186.9,286.0 193.5,286.0 200.1,286.0 206.7,286.0 213.3,286.0 219.9,286.0 226.5,286.0 233.1,286.0 239.6,286.0 246.2,286.0 252.8,286.0 259.4,286.0 266.0,286.0 272.6,286.0 279.2,286.0 285.8,286.0 292.4,286.0 298.9,286.0 305.5,286.0 312.1,286.0 318.7,286.0 325.3,286.0 331.9,286.0 338.5,286.0 345.1,286.0 351.6,286.0 358.2,286.0 364.8,286.0 371.4,286.0 378.0,286.0 384.6,286.0 391.2,286.0 397.8,286.0 404.4,286.0 410.9,286.0 417.5,286.0 424.1,286.0 430.7,286.0 437.3,286.0 443.9,286.0 450.5,286.0 457.1,286.0 463.6,286.0 470.2,286.0 476.8,286.0 483.4,279.8 490.0,286.0 496.6,286.0 503.2,286.0 509.8,286.0 516.4,286.0 522.9,286.0 529.5,286.0 536.1,286.0 542.7,286.0 549.3,286.0 555.9,286.0 562.5,286.0 569.1,286.0 575.6,279.8 582.2,286.0 588.8,286.0 595.4,286.0 602.0,286.0 608.6,286.0 615.2,286.0 621.8,286.0 628.4,286.0 634.9,286.0 641.5,286.0 648.1,279.8 654.7,286.0 661.3,286.0 667.9,286.0 674.5,286.0 681.1,279.8 687.6,286.0 694.2,286.0 700.8,286.0 707.4,286.0 714.0,286.0 720.6,286.0 727.2,286.0 733.8,286.0 740.4,286.0 746.9,286.0 753.5,286.0 760.1,286.0 766.7,286.0 773.3,286.0 779.9,286.0 786.5,286.0 793.1,286.0 799.6,286.0 806.2,286.0 812.8,286.0 819.4,286.0 826.0,286.0 832.6,279.8 839.2,286.0 845.8,286.0 852.4,286.0 858.9,273.7 865.5,286.0 872.1,286.0 878.7,279.8 885.3,279.8 891.9,286.0 898.5,286.0 905.1,286.0 911.6,286.0 918.2,279.8 924.8,286.0 931.4,286.0 938.0,286.0"/><polyline fill="none" stroke="#a855f7" stroke-width="2.5" stroke-linejoin="round" stroke-linecap="round" points="42.0,286.0 48.6,286.0 55.2,286.0 61.8,286.0 68.4,286.0 74.9,286.0 81.5,286.0 88.1,286.0 94.7,286.0 101.3,286.0 107.9,286.0 114.5,286.0 121.1,286.0 127.6,286.0 134.2,286.0 140.8,286.0 147.4,286.0 154.0,286.0 160.6,286.0 167.2,286.0 173.8,286.0 180.4,286.0 186.9,286.0 193.5,286.0 200.1,286.0 206.7,286.0 213.3,286.0 219.9,286.0 226.5,286.0 233.1,286.0 239.6,286.0 246.2,286.0 252.8,286.0 259.4,286.0 266.0,286.0 272.6,286.0 279.2,286.0 285.8,286.0 292.4,286.0 298.9,286.0 305.5,286.0 312.1,286.0 318.7,286.0 325.3,286.0 331.9,286.0 338.5,286.0 345.1,286.0 351.6,286.0 358.2,286.0 364.8,286.0 371.4,286.0 378.0,286.0 384.6,279.8 391.2,286.0 397.8,286.0 404.4,286.0 410.9,286.0 417.5,286.0 424.1,286.0 430.7,286.0 437.3,286.0 443.9,286.0 450.5,286.0 457.1,286.0 463.6,286.0 470.2,286.0 476.8,286.0 483.4,286.0 490.0,286.0 496.6,286.0 503.2,286.0 509.8,286.0 516.4,286.0 522.9,286.0 529.5,286.0 536.1,286.0 542.7,286.0 549.3,286.0 555.9,286.0 562.5,286.0 569.1,286.0 575.6,286.0 582.2,286.0 588.8,286.0 595.4,286.0 602.0,286.0 608.6,286.0 615.2,286.0 621.8,286.0 628.4,286.0 634.9,286.0 641.5,286.0 648.1,286.0 654.7,286.0 661.3,286.0 667.9,286.0 674.5,286.0 681.1,286.0 687.6,286.0 694.2,279.8 700.8,286.0 707.4,286.0 714.0,286.0 720.6,286.0 727.2,286.0 733.8,286.0 740.4,286.0 746.9,286.0 753.5,286.0 760.1,286.0 766.7,286.0 773.3,286.0 779.9,286.0 786.5,286.0 793.1,286.0 799.6,286.0 806.2,286.0 812.8,286.0 819.4,286.0 826.0,279.8 832.6,286.0 839.2,286.0 845.8,286.0 852.4,286.0 858.9,286.0 865.5,286.0 872.1,286.0 878.7,286.0 885.3,286.0 891.9,286.0 898.5,286.0 905.1,286.0 911.6,286.0 918.2,286.0 924.8,286.0 931.4,286.0 938.0,286.0"/><text x="42" y="308" font-size="11" fill="#9fb0d4">19/06 15:39</text><text x="938" y="308" text-anchor="end" font-size="11" fill="#9fb0d4">22/07 07:29</text></svg>