<svg xmlns="http://www.w3.org/2000/svg" viewBox="0 0 960 320" width="960" height="320" font-family="Segoe UI, system-ui, -apple-system, Roboto, Helvetica, Arial, sans-serif" role="img" aria-label="Availability history per region"><rect x="0.5" y="0.5" width="959" height="319" rx="14" fill="#ffffff" stroke="#dce3f1"/><text x="42" y="26" font-size="14" font-weight="600" fill="#14203a">History · 21 points</text><circle cx="47" cy="40" r="5" fill="#22c55e"/><text x="57" y="44" font-size="12" fill="#5a688a">Available</text><circle cx="139.8" cy="40" r="5" fill="#f59e0b"/><text x="149.8" y="44" font-size="12" fill="#5a688a">Saturated</text><circle cx="232.60000000000002" cy="40" r="5" fill="#ef4444"/><text x="242.60000000000002" y="44" font-size="12" fill="#5a688a">Error</text><line x1="42" y1="286.0" x2="938" y2="286.0" stroke="#eef2f7" stroke-width="1"/><text x="35" y="289.0" text-anchor="end" font-size="11" fill="#5a688a">0</text><line x1="42" y1="227.5" x2="938" y2="227.5" stroke="#eef2f7" stroke-width="1"/><text x="35" y="230.5" text-anchor="end" font-size="11" fill="#5a688a">10</text><line x1="42" y1="169.0" x2="938" y2="169.0" stroke="#eef2f7" stroke-width="1"/><text x="35" y="172.0" text-anchor="end" font-size="11" fill="#5a688a">19</text><line x1="42" y1="110.5" x2="938" y2="110.5" stroke="#eef2f7" stroke-width="1"/><text x="35" y="113.5" text-anchor="end" font-size="11" fill="#5a688a">28</text><line x1="42" y1="52.0" x2="938" y2="52.0" stroke="#eef2f7" stroke-width="1"/><text x="35" y="55.0" text-anchor="end" font-size="11" fill="#5a688a">38</text><polyline fill="none" stroke="#22c55e" stroke-width="2.5" stroke-linejoin="round" stroke-linecap="round" points="42.0,64.3 86.8,224.4 131.6,82.8 176.4,88.9 221.2,82.8 266.0,76.6 310.8,76.6 355.6,76.6 400.4,76.6 445.2,76.6 490.0,76.6 534.8,76.6 579.6,76.6 624.4,76.6 669.2,76.6 714.0,70.5 758.8,70.5 803.6,82.8 848.4,82.8 893.2,82.8 938.0,88.9"/><circle cx="42.0" cy="64.3" r="2.5" fill="#22c55e"/><circle cx="86.8" cy="224.4" r="2.5" fill="#22c55e"/><circle cx="131.6" cy="82.8" r="2.5" fill="#22c55e"/><circle cx="176.4" cy="88.9" r="2.5" fill="#22c55e"/><circle cx="221.2" cy="82.8" r="2.5" fill="#22c55e"/><circle cx="266.0" cy="76.6" r="2.5" fill="#22c55e"/><circle cx="310.8" cy="76.6" r="2.5" fill="#22c55e"/><circle cx="355.6" cy="76.6" r="2.5" fill="#22c55e"/><circle cx="400.4" cy="76.6" r="2.5" fill="#22c55e"/><circle cx="445.2" cy="76.6" r="2.5" fill="#22c55e"/><circle cx="490.0" cy="76.6" r="2.5" fill="#22c55e"/><circle cx="534.8" cy="76.6" r="2.5" fill="#22c55e"/><circle cx="579.6" cy="76.6" r="2.5" fill="#22c55e"/><circle cx="624.4" cy="76.6" r="2.5" fill="#22c55e"/><circle cx="669.2" cy="76.6" r="2.5" fill="#22c55e"/><circle cx="714.0" cy="70.5" r="2.5" fill="#22c55e"/><circle cx="758.8" cy="70.5" r="2.5" fill="#22c55e"/><circle cx="803.6" cy="82.8" r="2.5" fill="#22c55e"/><circle cx="848.4" cy="82.8" r="2.5" fill="#22c55e"/><circle cx="893.2" cy="82.8" r="2.5" fill="#22c55e"/><circle cx="938.0" cy="88.9" r="2.5" fill="#22c55e"/><polyline fill="none" stroke="#f59e0b" stroke-width="2.5" stroke-linejoin="round" stroke-linecap="round" points="42.0,273.7 86.8,267.5 131.6,255.2 176.4,249.1 221.2,255.2 266.0,261.4 310.8,261.4 355.6,261.4 400.4,261.4 445.2,261.4 490.0,261.4 534.8,261.4 579.6,261.4 624.4,261.4 669.2,261.4 714.0,267.5 758.8,267.5 803.6,261.4 848.4,255.2 893.2,255.2 938.0,249.1"/><circle cx="42.0" cy="273.7" r="2.5" fill="#f59e0b"/><circle cx="86.8" cy="267.5" r="2.5" fill="#f59e0b"/><circle cx="131.6" cy="255.2" r="2.5" fill="#f59e0b"/><circle cx="176.4" cy="249.1" r="2.5" fill="#f59e0b"/><circle cx="221.2" cy="255.2" r="2.5" fill="#f59e0b"/><circle cx="266.0" cy="261.4" r="2.5" fill="#f59e0b"/><circle cx="310.8" cy="261.4" r="2.5" fill="#f59e0b"/><circle cx="355.6" cy="261.4" r="2.5" fill="#f59e0b"/><circle cx="400.4" cy="261.4" r="2.5" fill="#f59e0b"/><circle cx="445.2" cy="261.4" r="2.5" fill="#f59e0b"/><circle cx="490.0" cy="261.4" r="2.5" fill="#f59e0b"/><circle cx="534.8" cy="261.4" r="2.5" fill="#f59e0b"/><circle cx="579.6" cy="261.4" r="2.5" fill="#f59e0b"/><circle cx="624.4" cy="261.4" r="2.5" fill="#f59e0b"/><circle cx="669.2" cy="261.4" r="2.5" fill="#f59e0b"/><circle cx="714.0" cy="267.5" r="2.5" fill="#f59e0b"/><circle cx="758.8" cy="267.5" r="2.5" fill="#f59e0b"/><circle cx="803.6" cy="261.4" r="2.5" fill="#f59e0b"/><circle cx="848.4" cy="255.2" r="2.5" fill="#f59e0b"/><circle cx="893.2" cy="255.2" r="2.5" fill="#f59e0b"/><circle cx="938.0" cy="249.1" r="2.5" fill="#f59e0b"/><polyline fill="none" stroke="#ef4444" stroke-width="2.5" stroke-linejoin="round" stroke-linecap="round" points="42.0,286.0 86.8,132.1 131.6,286.0 176.4,286.0 221.2,286.0 266.0,286.0 310.8,286.0 355.6,286.0 400.4,286.0 445.2,286.0 490.0,286.0 534.8,286.0 579.6,286.0 624.4,286.0 669.2,286.0 714.0,286.0 758.8,286.0 803.6,279.8 848.4,286.0 893.2,286.0 938.0,286.0"/><circle cx="42.0" cy="286.0" r="2.5" fill="#ef4444"/><circle cx="86.8" cy="132.1" r="2.5" fill="#ef4444"/><circle cx="131.6" cy="286.0" r="2.5" fill="#ef4444"/><circle cx="176.4" cy="286.0" r="2.5" fill="#ef4444"/><circle cx="221.2" cy="286.0" r="2.5" fill="#ef4444"/><circle cx="266.0" cy="286.0" r="2.5" fill="#ef4444"/><circle cx="310.8" cy="286.0" r="2.5" fill="#ef4444"/><circle cx="355.6" cy="286.0" r="2.5" fill="#ef4444"/><circle cx="400.4" cy="286.0" r="2.5" fill="#ef4444"/><circle cx="445.2" cy="286.0" r="2.5" fill="#ef4444"/><circle cx="490.0" cy="286.0" r="2.5" fill="#ef4444"/><circle cx="534.8" cy="286.0" r="2.5" fill="#ef4444"/><circle cx="579.6" cy="286.0" r="2.5" fill="#ef4444"/><circle cx="624.4" cy="286.0" r="2.5" fill="#ef4444"/><circle cx="669.2" cy="286.0" r="2.5" fill="#ef4444"/><circle cx="714.0" cy="286.0" r="2.5" fill="#ef4444"/><circle cx="758.8" cy="286.0" r="2.5" fill="#ef4444"/><circle cx="803.6" cy="279.8" r="2.5" fill="#ef4444"/><circle cx="848.4" cy="286.0" r="2.5" fill="#ef4444"/><circle cx="893.2" cy="286.0" r="2.5" fill="#ef4444"/><circle cx="938.0" cy="286.0" r="2.5" fill="#ef4444"/><text x="42" y="308" font-size="11" fill="#5a688a">19/06 15:39</text><text x="938" y="308" text-anchor="end" font-size="11" fill="#5a688a">17/07 10:33</text></svg>