<svg xmlns="http://www.w3.org/2000/svg" viewBox="0 0 960 320" width="960" height="320" font-family="Segoe UI, system-ui, -apple-system, Roboto, Helvetica, Arial, sans-serif" role="img" aria-label="Availability history per region"><rect x="0.5" y="0.5" width="959" height="319" rx="14" fill="#0d1117" stroke="#2c3a5e"/><text x="42" y="26" font-size="14" font-weight="600" fill="#e6ecff">History · 131 points</text><circle cx="47" cy="40" r="5" fill="#22c55e"/><text x="57" y="44" font-size="12" fill="#9fb0d4">Available</text><circle cx="139.8" cy="40" r="5" fill="#f59e0b"/><text x="149.8" y="44" font-size="12" fill="#9fb0d4">Saturated</text><circle cx="232.60000000000002" cy="40" r="5" fill="#ef4444"/><text x="242.60000000000002" y="44" font-size="12" fill="#9fb0d4">Error</text><circle cx="296.6" cy="40" r="5" fill="#a855f7"/><text x="306.6" y="44" font-size="12" fill="#9fb0d4">Timeout</text><line x1="42" y1="286.0" x2="938" y2="286.0" stroke="#21304f" stroke-width="1"/><text x="35" y="289.0" text-anchor="end" font-size="11" fill="#9fb0d4">0</text><line x1="42" y1="227.5" x2="938" y2="227.5" stroke="#21304f" stroke-width="1"/><text x="35" y="230.5" text-anchor="end" font-size="11" fill="#9fb0d4">10</text><line x1="42" y1="169.0" x2="938" y2="169.0" stroke="#21304f" stroke-width="1"/><text x="35" y="172.0" text-anchor="end" font-size="11" fill="#9fb0d4">19</text><line x1="42" y1="110.5" x2="938" y2="110.5" stroke="#21304f" stroke-width="1"/><text x="35" y="113.5" text-anchor="end" font-size="11" fill="#9fb0d4">28</text><line x1="42" y1="52.0" x2="938" y2="52.0" stroke="#21304f" stroke-width="1"/><text x="35" y="55.0" text-anchor="end" font-size="11" fill="#9fb0d4">38</text><polyline fill="none" stroke="#22c55e" stroke-width="2.5" stroke-linejoin="round" stroke-linecap="round" points="42.0,64.3 48.9,224.4 55.8,82.8 62.7,88.9 69.6,82.8 76.5,76.6 83.4,76.6 90.2,76.6 97.1,76.6 104.0,76.6 110.9,76.6 117.8,76.6 124.7,76.6 131.6,76.6 138.5,76.6 145.4,70.5 152.3,70.5 159.2,82.8 166.1,82.8 173.0,82.8 179.8,88.9 186.7,88.9 193.6,88.9 200.5,88.9 207.4,88.9 214.3,88.9 221.2,88.9 228.1,88.9 235.0,88.9 241.9,82.8 248.8,82.8 255.7,82.8 262.6,82.8 269.4,76.6 276.3,76.6 283.2,76.6 290.1,76.6 297.0,76.6 303.9,82.8 310.8,82.8 317.7,82.8 324.6,82.8 331.5,76.6 338.4,76.6 345.3,76.6 352.2,76.6 359.0,76.6 365.9,76.6 372.8,76.6 379.7,82.8 386.6,82.8 393.5,82.8 400.4,82.8 407.3,76.6 414.2,76.6 421.1,76.6 428.0,76.6 434.9,76.6 441.8,76.6 448.6,76.6 455.5,76.6 462.4,82.8 469.3,76.6 476.2,76.6 483.1,76.6 490.0,76.6 496.9,76.6 503.8,82.8 510.7,76.6 517.6,76.6 524.5,76.6 531.4,76.6 538.2,76.6 545.1,76.6 552.0,76.6 558.9,76.6 565.8,76.6 572.7,70.5 579.6,70.5 586.5,70.5 593.4,70.5 600.3,76.6 607.2,70.5 614.1,76.6 621.0,76.6 627.8,76.6 634.7,76.6 641.6,76.6 648.5,76.6 655.4,82.8 662.3,88.9 669.2,88.9 676.1,88.9 683.0,88.9 689.9,88.9 696.8,88.9 703.7,88.9 710.6,95.1 717.4,88.9 724.3,88.9 731.2,88.9 738.1,88.9 745.0,88.9 751.9,88.9 758.8,82.8 765.7,82.8 772.6,82.8 779.5,82.8 786.4,82.8 793.3,82.8 800.2,82.8 807.0,82.8 813.9,88.9 820.8,88.9 827.7,88.9 834.6,88.9 841.5,88.9 848.4,88.9 855.3,88.9 862.2,88.9 869.1,95.1 876.0,88.9 882.9,88.9 889.8,88.9 896.6,101.3 903.5,88.9 910.4,88.9 917.3,88.9 924.2,88.9 931.1,82.8 938.0,82.8"/><polyline fill="none" stroke="#f59e0b" stroke-width="2.5" stroke-linejoin="round" stroke-linecap="round" points="42.0,273.7 48.9,267.5 55.8,255.2 62.7,249.1 69.6,255.2 76.5,261.4 83.4,261.4 90.2,261.4 97.1,261.4 104.0,261.4 110.9,261.4 117.8,261.4 124.7,261.4 131.6,261.4 138.5,261.4 145.4,267.5 152.3,267.5 159.2,261.4 166.1,255.2 173.0,255.2 179.8,249.1 186.7,249.1 193.6,249.1 200.5,249.1 207.4,249.1 214.3,249.1 221.2,249.1 228.1,249.1 235.0,249.1 241.9,255.2 248.8,255.2 255.7,255.2 262.6,255.2 269.4,261.4 276.3,261.4 283.2,261.4 290.1,261.4 297.0,261.4 303.9,255.2 310.8,255.2 317.7,255.2 324.6,255.2 331.5,261.4 338.4,261.4 345.3,261.4 352.2,261.4 359.0,261.4 365.9,261.4 372.8,261.4 379.7,255.2 386.6,255.2 393.5,255.2 400.4,261.4 407.3,261.4 414.2,261.4 421.1,261.4 428.0,261.4 434.9,261.4 441.8,261.4 448.6,261.4 455.5,261.4 462.4,255.2 469.3,261.4 476.2,261.4 483.1,261.4 490.0,261.4 496.9,261.4 503.8,261.4 510.7,261.4 517.6,261.4 524.5,261.4 531.4,261.4 538.2,261.4 545.1,261.4 552.0,261.4 558.9,261.4 565.8,261.4 572.7,267.5 579.6,267.5 586.5,267.5 593.4,267.5 600.3,267.5 607.2,267.5 614.1,261.4 621.0,261.4 627.8,261.4 634.7,261.4 641.6,261.4 648.5,261.4 655.4,255.2 662.3,249.1 669.2,249.1 676.1,255.2 683.0,249.1 689.9,249.1 696.8,249.1 703.7,249.1 710.6,249.1 717.4,249.1 724.3,255.2 731.2,249.1 738.1,249.1 745.0,249.1 751.9,249.1 758.8,255.2 765.7,255.2 772.6,255.2 779.5,255.2 786.4,255.2 793.3,255.2 800.2,255.2 807.0,255.2 813.9,249.1 820.8,249.1 827.7,249.1 834.6,249.1 841.5,249.1 848.4,249.1 855.3,249.1 862.2,255.2 869.1,249.1 876.0,249.1 882.9,249.1 889.8,249.1 896.6,249.1 903.5,249.1 910.4,249.1 917.3,255.2 924.2,255.2 931.1,255.2 938.0,255.2"/><polyline fill="none" stroke="#ef4444" stroke-width="2.5" stroke-linejoin="round" stroke-linecap="round" points="42.0,286.0 48.9,132.1 55.8,286.0 62.7,286.0 69.6,286.0 76.5,286.0 83.4,286.0 90.2,286.0 97.1,286.0 104.0,286.0 110.9,286.0 117.8,286.0 124.7,286.0 131.6,286.0 138.5,286.0 145.4,286.0 152.3,286.0 159.2,279.8 166.1,286.0 173.0,286.0 179.8,286.0 186.7,286.0 193.6,286.0 200.5,286.0 207.4,286.0 214.3,286.0 221.2,286.0 228.1,286.0 235.0,286.0 241.9,286.0 248.8,286.0 255.7,286.0 262.6,286.0 269.4,286.0 276.3,286.0 283.2,286.0 290.1,286.0 297.0,286.0 303.9,286.0 310.8,286.0 317.7,286.0 324.6,286.0 331.5,286.0 338.4,286.0 345.3,286.0 352.2,286.0 359.0,286.0 365.9,286.0 372.8,286.0 379.7,286.0 386.6,286.0 393.5,286.0 400.4,286.0 407.3,286.0 414.2,286.0 421.1,286.0 428.0,286.0 434.9,286.0 441.8,286.0 448.6,286.0 455.5,286.0 462.4,286.0 469.3,286.0 476.2,286.0 483.1,286.0 490.0,286.0 496.9,286.0 503.8,279.8 510.7,286.0 517.6,286.0 524.5,286.0 531.4,286.0 538.2,286.0 545.1,286.0 552.0,286.0 558.9,286.0 565.8,286.0 572.7,286.0 579.6,286.0 586.5,286.0 593.4,286.0 600.3,279.8 607.2,286.0 614.1,286.0 621.0,286.0 627.8,286.0 634.7,286.0 641.6,286.0 648.5,286.0 655.4,286.0 662.3,286.0 669.2,286.0 676.1,279.8 683.0,286.0 689.9,286.0 696.8,286.0 703.7,286.0 710.6,279.8 717.4,286.0 724.3,286.0 731.2,286.0 738.1,286.0 745.0,286.0 751.9,286.0 758.8,286.0 765.7,286.0 772.6,286.0 779.5,286.0 786.4,286.0 793.3,286.0 800.2,286.0 807.0,286.0 813.9,286.0 820.8,286.0 827.7,286.0 834.6,286.0 841.5,286.0 848.4,286.0 855.3,286.0 862.2,286.0 869.1,279.8 876.0,286.0 882.9,286.0 889.8,286.0 896.6,273.7 903.5,286.0 910.4,286.0 917.3,279.8 924.2,279.8 931.1,286.0 938.0,286.0"/><polyline fill="none" stroke="#a855f7" stroke-width="2.5" stroke-linejoin="round" stroke-linecap="round" points="42.0,286.0 48.9,286.0 55.8,286.0 62.7,286.0 69.6,286.0 76.5,286.0 83.4,286.0 90.2,286.0 97.1,286.0 104.0,286.0 110.9,286.0 117.8,286.0 124.7,286.0 131.6,286.0 138.5,286.0 145.4,286.0 152.3,286.0 159.2,286.0 166.1,286.0 173.0,286.0 179.8,286.0 186.7,286.0 193.6,286.0 200.5,286.0 207.4,286.0 214.3,286.0 221.2,286.0 228.1,286.0 235.0,286.0 241.9,286.0 248.8,286.0 255.7,286.0 262.6,286.0 269.4,286.0 276.3,286.0 283.2,286.0 290.1,286.0 297.0,286.0 303.9,286.0 310.8,286.0 317.7,286.0 324.6,286.0 331.5,286.0 338.4,286.0 345.3,286.0 352.2,286.0 359.0,286.0 365.9,286.0 372.8,286.0 379.7,286.0 386.6,286.0 393.5,286.0 400.4,279.8 407.3,286.0 414.2,286.0 421.1,286.0 428.0,286.0 434.9,286.0 441.8,286.0 448.6,286.0 455.5,286.0 462.4,286.0 469.3,286.0 476.2,286.0 483.1,286.0 490.0,286.0 496.9,286.0 503.8,286.0 510.7,286.0 517.6,286.0 524.5,286.0 531.4,286.0 538.2,286.0 545.1,286.0 552.0,286.0 558.9,286.0 565.8,286.0 572.7,286.0 579.6,286.0 586.5,286.0 593.4,286.0 600.3,286.0 607.2,286.0 614.1,286.0 621.0,286.0 627.8,286.0 634.7,286.0 641.6,286.0 648.5,286.0 655.4,286.0 662.3,286.0 669.2,286.0 676.1,286.0 683.0,286.0 689.9,286.0 696.8,286.0 703.7,286.0 710.6,286.0 717.4,286.0 724.3,279.8 731.2,286.0 738.1,286.0 745.0,286.0 751.9,286.0 758.8,286.0 765.7,286.0 772.6,286.0 779.5,286.0 786.4,286.0 793.3,286.0 800.2,286.0 807.0,286.0 813.9,286.0 820.8,286.0 827.7,286.0 834.6,286.0 841.5,286.0 848.4,286.0 855.3,286.0 862.2,279.8 869.1,286.0 876.0,286.0 882.9,286.0 889.8,286.0 896.6,286.0 903.5,286.0 910.4,286.0 917.3,286.0 924.2,286.0 931.1,286.0 938.0,286.0"/><text x="42" y="308" font-size="11" fill="#9fb0d4">19/06 15:39</text><text x="938" y="308" text-anchor="end" font-size="11" fill="#9fb0d4">22/07 01:30</text></svg>