<svg xmlns="http://www.w3.org/2000/svg" viewBox="0 0 960 320" width="960" height="320" font-family="Segoe UI, system-ui, -apple-system, Roboto, Helvetica, Arial, sans-serif" role="img" aria-label="Availability history per region"><rect x="0.5" y="0.5" width="959" height="319" rx="14" fill="#ffffff" stroke="#dce3f1"/><text x="42" y="26" font-size="14" font-weight="600" fill="#14203a">History · 139 points</text><circle cx="47" cy="40" r="5" fill="#22c55e"/><text x="57" y="44" font-size="12" fill="#5a688a">Available</text><circle cx="139.8" cy="40" r="5" fill="#f59e0b"/><text x="149.8" y="44" font-size="12" fill="#5a688a">Saturated</text><circle cx="232.60000000000002" cy="40" r="5" fill="#ef4444"/><text x="242.60000000000002" y="44" font-size="12" fill="#5a688a">Error</text><circle cx="296.6" cy="40" r="5" fill="#a855f7"/><text x="306.6" y="44" font-size="12" fill="#5a688a">Timeout</text><line x1="42" y1="286.0" x2="938" y2="286.0" stroke="#eef2f7" stroke-width="1"/><text x="35" y="289.0" text-anchor="end" font-size="11" fill="#5a688a">0</text><line x1="42" y1="227.5" x2="938" y2="227.5" stroke="#eef2f7" stroke-width="1"/><text x="35" y="230.5" text-anchor="end" font-size="11" fill="#5a688a">10</text><line x1="42" y1="169.0" x2="938" y2="169.0" stroke="#eef2f7" stroke-width="1"/><text x="35" y="172.0" text-anchor="end" font-size="11" fill="#5a688a">20</text><line x1="42" y1="110.5" x2="938" y2="110.5" stroke="#eef2f7" stroke-width="1"/><text x="35" y="113.5" text-anchor="end" font-size="11" fill="#5a688a">29</text><line x1="42" y1="52.0" x2="938" y2="52.0" stroke="#eef2f7" stroke-width="1"/><text x="35" y="55.0" text-anchor="end" font-size="11" fill="#5a688a">39</text><polyline fill="none" stroke="#22c55e" stroke-width="2.5" stroke-linejoin="round" stroke-linecap="round" points="42.0,70.0 48.5,70.0 55.0,88.0 61.5,88.0 68.0,76.0 74.5,76.0 81.0,76.0 87.4,70.0 93.9,76.0 100.4,70.0 106.9,64.0 113.4,58.0 119.9,58.0 126.4,58.0 132.9,58.0 139.4,58.0 145.9,58.0 152.4,58.0 158.9,58.0 165.4,58.0 171.9,58.0 178.3,58.0 184.8,58.0 191.3,58.0 197.8,58.0 204.3,58.0 210.8,58.0 217.3,58.0 223.8,58.0 230.3,58.0 236.8,58.0 243.3,70.0 249.8,76.0 256.3,94.0 262.8,64.0 269.2,64.0 275.7,58.0 282.2,58.0 288.7,58.0 295.2,70.0 301.7,76.0 308.2,76.0 314.7,82.0 321.2,82.0 327.7,82.0 334.2,82.0 340.7,76.0 347.2,64.0 353.7,70.0 360.1,70.0 366.6,82.0 373.1,76.0 379.6,76.0 386.1,82.0 392.6,76.0 399.1,76.0 405.6,76.0 412.1,64.0 418.6,64.0 425.1,76.0 431.6,76.0 438.1,76.0 444.6,88.0 451.0,70.0 457.5,64.0 464.0,58.0 470.5,58.0 477.0,70.0 483.5,70.0 490.0,70.0 496.5,76.0 503.0,70.0 509.5,70.0 516.0,70.0 522.5,70.0 529.0,76.0 535.4,82.0 541.9,76.0 548.4,70.0 554.9,70.0 561.4,70.0 567.9,70.0 574.4,76.0 580.9,70.0 587.4,70.0 593.9,70.0 600.4,70.0 606.9,70.0 613.4,70.0 619.9,70.0 626.3,70.0 632.8,70.0 639.3,70.0 645.8,70.0 652.3,70.0 658.8,70.0 665.3,70.0 671.8,70.0 678.3,70.0 684.8,70.0 691.3,70.0 697.8,70.0 704.3,70.0 710.8,70.0 717.2,70.0 723.7,70.0 730.2,70.0 736.7,70.0 743.2,70.0 749.7,70.0 756.2,70.0 762.7,70.0 769.2,70.0 775.7,70.0 782.2,70.0 788.7,70.0 795.2,70.0 801.7,70.0 808.1,70.0 814.6,70.0 821.1,70.0 827.6,70.0 834.1,70.0 840.6,70.0 847.1,70.0 853.6,70.0 860.1,70.0 866.6,70.0 873.1,70.0 879.6,70.0 886.1,70.0 892.6,70.0 899.0,70.0 905.5,70.0 912.0,70.0 918.5,70.0 925.0,70.0 931.5,70.0 938.0,70.0"/><polyline fill="none" stroke="#f59e0b" stroke-width="2.5" stroke-linejoin="round" stroke-linecap="round" points="42.0,274.0 48.5,274.0 55.0,274.0 61.5,280.0 68.0,268.0 74.5,268.0 81.0,268.0 87.4,274.0 93.9,274.0 100.4,274.0 106.9,280.0 113.4,286.0 119.9,286.0 126.4,286.0 132.9,286.0 139.4,286.0 145.9,286.0 152.4,286.0 158.9,286.0 165.4,286.0 171.9,286.0 178.3,286.0 184.8,286.0 191.3,286.0 197.8,286.0 204.3,286.0 210.8,286.0 217.3,286.0 223.8,286.0 230.3,286.0 236.8,286.0 243.3,274.0 249.8,280.0 256.3,280.0 262.8,280.0 269.2,280.0 275.7,286.0 282.2,286.0 288.7,286.0 295.2,274.0 301.7,268.0 308.2,268.0 314.7,262.0 321.2,262.0 327.7,262.0 334.2,262.0 340.7,268.0 347.2,280.0 353.7,280.0 360.1,274.0 366.6,262.0 373.1,268.0 379.6,268.0 386.1,262.0 392.6,268.0 399.1,268.0 405.6,268.0 412.1,280.0 418.6,280.0 425.1,268.0 431.6,268.0 438.1,268.0 444.6,262.0 451.0,274.0 457.5,280.0 464.0,286.0 470.5,286.0 477.0,274.0 483.5,274.0 490.0,274.0 496.5,274.0 503.0,274.0 509.5,274.0 516.0,274.0 522.5,274.0 529.0,280.0 535.4,274.0 541.9,280.0 548.4,286.0 554.9,286.0 561.4,286.0 567.9,286.0 574.4,280.0 580.9,286.0 587.4,286.0 593.9,286.0 600.4,286.0 606.9,286.0 613.4,286.0 619.9,286.0 626.3,286.0 632.8,286.0 639.3,286.0 645.8,286.0 652.3,286.0 658.8,286.0 665.3,286.0 671.8,286.0 678.3,286.0 684.8,286.0 691.3,286.0 697.8,286.0 704.3,286.0 710.8,286.0 717.2,286.0 723.7,286.0 730.2,286.0 736.7,286.0 743.2,286.0 749.7,286.0 756.2,286.0 762.7,286.0 769.2,286.0 775.7,286.0 782.2,286.0 788.7,286.0 795.2,286.0 801.7,286.0 808.1,286.0 814.6,286.0 821.1,286.0 827.6,286.0 834.1,286.0 840.6,286.0 847.1,286.0 853.6,286.0 860.1,286.0 866.6,286.0 873.1,286.0 879.6,286.0 886.1,286.0 892.6,286.0 899.0,286.0 905.5,286.0 912.0,286.0 918.5,286.0 925.0,286.0 931.5,286.0 938.0,286.0"/><polyline fill="none" stroke="#ef4444" stroke-width="2.5" stroke-linejoin="round" stroke-linecap="round" points="42.0,280.0 48.5,280.0 55.0,268.0 61.5,262.0 68.0,286.0 74.5,286.0 81.0,286.0 87.4,286.0 93.9,280.0 100.4,286.0 106.9,286.0 113.4,286.0 119.9,286.0 126.4,286.0 132.9,286.0 139.4,286.0 145.9,286.0 152.4,286.0 158.9,286.0 165.4,286.0 171.9,286.0 178.3,286.0 184.8,286.0 191.3,286.0 197.8,286.0 204.3,286.0 210.8,286.0 217.3,286.0 223.8,286.0 230.3,286.0 236.8,286.0 243.3,286.0 249.8,274.0 256.3,256.0 262.8,286.0 269.2,286.0 275.7,286.0 282.2,286.0 288.7,286.0 295.2,286.0 301.7,286.0 308.2,286.0 314.7,286.0 321.2,286.0 327.7,286.0 334.2,286.0 340.7,286.0 347.2,286.0 353.7,280.0 360.1,286.0 366.6,286.0 373.1,286.0 379.6,286.0 386.1,286.0 392.6,286.0 399.1,286.0 405.6,286.0 412.1,286.0 418.6,286.0 425.1,286.0 431.6,286.0 438.1,286.0 444.6,280.0 451.0,286.0 457.5,286.0 464.0,286.0 470.5,286.0 477.0,286.0 483.5,286.0 490.0,286.0 496.5,286.0 503.0,286.0 509.5,286.0 516.0,286.0 522.5,286.0 529.0,274.0 535.4,274.0 541.9,274.0 548.4,274.0 554.9,274.0 561.4,274.0 567.9,274.0 574.4,274.0 580.9,274.0 587.4,274.0 593.9,274.0 600.4,274.0 606.9,274.0 613.4,274.0 619.9,274.0 626.3,274.0 632.8,274.0 639.3,274.0 645.8,274.0 652.3,274.0 658.8,274.0 665.3,274.0 671.8,274.0 678.3,274.0 684.8,274.0 691.3,274.0 697.8,274.0 704.3,274.0 710.8,274.0 717.2,274.0 723.7,274.0 730.2,274.0 736.7,274.0 743.2,274.0 749.7,274.0 756.2,274.0 762.7,274.0 769.2,274.0 775.7,274.0 782.2,274.0 788.7,274.0 795.2,274.0 801.7,274.0 808.1,274.0 814.6,274.0 821.1,274.0 827.6,274.0 834.1,274.0 840.6,274.0 847.1,274.0 853.6,274.0 860.1,274.0 866.6,274.0 873.1,274.0 879.6,274.0 886.1,274.0 892.6,274.0 899.0,274.0 905.5,274.0 912.0,274.0 918.5,274.0 925.0,274.0 931.5,274.0 938.0,274.0"/><polyline fill="none" stroke="#a855f7" stroke-width="2.5" stroke-linejoin="round" stroke-linecap="round" points="42.0,286.0 48.5,286.0 55.0,286.0 61.5,286.0 68.0,286.0 74.5,286.0 81.0,286.0 87.4,286.0 93.9,286.0 100.4,286.0 106.9,286.0 113.4,286.0 119.9,286.0 126.4,286.0 132.9,286.0 139.4,286.0 145.9,286.0 152.4,286.0 158.9,286.0 165.4,286.0 171.9,286.0 178.3,286.0 184.8,286.0 191.3,286.0 197.8,286.0 204.3,286.0 210.8,286.0 217.3,286.0 223.8,286.0 230.3,286.0 236.8,286.0 243.3,286.0 249.8,286.0 256.3,286.0 262.8,286.0 269.2,286.0 275.7,286.0 282.2,286.0 288.7,286.0 295.2,286.0 301.7,286.0 308.2,286.0 314.7,286.0 321.2,286.0 327.7,286.0 334.2,286.0 340.7,286.0 347.2,286.0 353.7,286.0 360.1,286.0 366.6,286.0 373.1,286.0 379.6,286.0 386.1,286.0 392.6,286.0 399.1,286.0 405.6,286.0 412.1,286.0 418.6,286.0 425.1,286.0 431.6,286.0 438.1,286.0 444.6,286.0 451.0,286.0 457.5,286.0 464.0,286.0 470.5,286.0 477.0,286.0 483.5,286.0 490.0,286.0 496.5,280.0 503.0,286.0 509.5,286.0 516.0,286.0 522.5,286.0 529.0,286.0 535.4,286.0 541.9,286.0 548.4,286.0 554.9,286.0 561.4,286.0 567.9,286.0 574.4,286.0 580.9,286.0 587.4,286.0 593.9,286.0 600.4,286.0 606.9,286.0 613.4,286.0 619.9,286.0 626.3,286.0 632.8,286.0 639.3,286.0 645.8,286.0 652.3,286.0 658.8,286.0 665.3,286.0 671.8,286.0 678.3,286.0 684.8,286.0 691.3,286.0 697.8,286.0 704.3,286.0 710.8,286.0 717.2,286.0 723.7,286.0 730.2,286.0 736.7,286.0 743.2,286.0 749.7,286.0 756.2,286.0 762.7,286.0 769.2,286.0 775.7,286.0 782.2,286.0 788.7,286.0 795.2,286.0 801.7,286.0 808.1,286.0 814.6,286.0 821.1,286.0 827.6,286.0 834.1,286.0 840.6,286.0 847.1,286.0 853.6,286.0 860.1,286.0 866.6,286.0 873.1,286.0 879.6,286.0 886.1,286.0 892.6,286.0 899.0,286.0 905.5,286.0 912.0,286.0 918.5,286.0 925.0,286.0 931.5,286.0 938.0,286.0"/><text x="42" y="308" font-size="11" fill="#5a688a">19/06 12:43</text><text x="938" y="308" text-anchor="end" font-size="11" fill="#5a688a">28/06 17:46</text></svg>