<svg xmlns="http://www.w3.org/2000/svg" viewBox="0 0 960 320" width="960" height="320" font-family="Segoe UI, system-ui, -apple-system, Roboto, Helvetica, Arial, sans-serif" role="img" aria-label="Availability history per region"><rect x="0.5" y="0.5" width="959" height="319" rx="14" fill="#0d1117" stroke="#2c3a5e"/><text x="42" y="26" font-size="14" font-weight="600" fill="#e6ecff">History · 169 points</text><circle cx="47" cy="40" r="5" fill="#22c55e"/><text x="57" y="44" font-size="12" fill="#9fb0d4">Available</text><circle cx="139.8" cy="40" r="5" fill="#f59e0b"/><text x="149.8" y="44" font-size="12" fill="#9fb0d4">Saturated</text><circle cx="232.60000000000002" cy="40" r="5" fill="#ef4444"/><text x="242.60000000000002" y="44" font-size="12" fill="#9fb0d4">Error</text><circle cx="296.6" cy="40" r="5" fill="#a855f7"/><text x="306.6" y="44" font-size="12" fill="#9fb0d4">Timeout</text><line x1="42" y1="286.0" x2="938" y2="286.0" stroke="#21304f" stroke-width="1"/><text x="35" y="289.0" text-anchor="end" font-size="11" fill="#9fb0d4">0</text><line x1="42" y1="227.5" x2="938" y2="227.5" stroke="#21304f" stroke-width="1"/><text x="35" y="230.5" text-anchor="end" font-size="11" fill="#9fb0d4">10</text><line x1="42" y1="169.0" x2="938" y2="169.0" stroke="#21304f" stroke-width="1"/><text x="35" y="172.0" text-anchor="end" font-size="11" fill="#9fb0d4">21</text><line x1="42" y1="110.5" x2="938" y2="110.5" stroke="#21304f" stroke-width="1"/><text x="35" y="113.5" text-anchor="end" font-size="11" fill="#9fb0d4">32</text><line x1="42" y1="52.0" x2="938" y2="52.0" stroke="#21304f" stroke-width="1"/><text x="35" y="55.0" text-anchor="end" font-size="11" fill="#9fb0d4">42</text><polyline fill="none" stroke="#22c55e" stroke-width="2.5" stroke-linejoin="round" stroke-linecap="round" points="42.0,85.4 47.3,230.3 52.7,102.1 58.0,107.7 63.3,102.1 68.7,96.6 74.0,96.6 79.3,96.6 84.7,96.6 90.0,96.6 95.3,96.6 100.7,96.6 106.0,96.6 111.3,96.6 116.7,96.6 122.0,91.0 127.3,91.0 132.7,102.1 138.0,102.1 143.3,102.1 148.7,107.7 154.0,107.7 159.3,107.7 164.7,107.7 170.0,107.7 175.3,107.7 180.7,107.7 186.0,107.7 191.3,107.7 196.7,102.1 202.0,102.1 207.3,102.1 212.7,102.1 218.0,96.6 223.3,96.6 228.7,96.6 234.0,96.6 239.3,96.6 244.7,102.1 250.0,102.1 255.3,102.1 260.7,102.1 266.0,96.6 271.3,96.6 276.7,96.6 282.0,96.6 287.3,96.6 292.7,96.6 298.0,96.6 303.3,102.1 308.7,102.1 314.0,102.1 319.3,102.1 324.7,96.6 330.0,96.6 335.3,96.6 340.7,96.6 346.0,96.6 351.3,96.6 356.7,96.6 362.0,96.6 367.3,102.1 372.7,96.6 378.0,96.6 383.3,96.6 388.7,96.6 394.0,96.6 399.3,102.1 404.7,96.6 410.0,96.6 415.3,96.6 420.7,96.6 426.0,96.6 431.3,96.6 436.7,96.6 442.0,96.6 447.3,96.6 452.7,91.0 458.0,91.0 463.3,91.0 468.7,91.0 474.0,96.6 479.3,91.0 484.7,96.6 490.0,96.6 495.3,96.6 500.7,96.6 506.0,96.6 511.3,96.6 516.7,102.1 522.0,107.7 527.3,107.7 532.7,107.7 538.0,107.7 543.3,107.7 548.7,107.7 554.0,107.7 559.3,113.3 564.7,107.7 570.0,107.7 575.3,107.7 580.7,107.7 586.0,107.7 591.3,107.7 596.7,102.1 602.0,102.1 607.3,102.1 612.7,102.1 618.0,102.1 623.3,102.1 628.7,102.1 634.0,102.1 639.3,107.7 644.7,107.7 650.0,107.7 655.3,107.7 660.7,107.7 666.0,107.7 671.3,107.7 676.7,107.7 682.0,113.3 687.3,107.7 692.7,107.7 698.0,107.7 703.3,118.9 708.7,107.7 714.0,107.7 719.3,107.7 724.7,107.7 730.0,102.1 735.3,102.1 740.7,102.1 746.0,102.1 751.3,107.7 756.7,102.1 762.0,107.7 767.3,107.7 772.7,107.7 778.0,107.7 783.3,113.3 788.7,107.7 794.0,107.7 799.3,107.7 804.7,107.7 810.0,107.7 815.3,107.7 820.7,107.7 826.0,107.7 831.3,113.3 836.7,102.1 842.0,102.1 847.3,102.1 852.7,102.1 858.0,102.1 863.3,102.1 868.7,102.1 874.0,102.1 879.3,102.1 884.7,102.1 890.0,107.7 895.3,102.1 900.7,102.1 906.0,102.1 911.3,102.1 916.7,102.1 922.0,102.1 927.3,102.1 932.7,102.1 938.0,107.7"/><polyline fill="none" stroke="#f59e0b" stroke-width="2.5" stroke-linejoin="round" stroke-linecap="round" points="42.0,274.9 47.3,269.3 52.7,258.1 58.0,252.6 63.3,258.1 68.7,263.7 74.0,263.7 79.3,263.7 84.7,263.7 90.0,263.7 95.3,263.7 100.7,263.7 106.0,263.7 111.3,263.7 116.7,263.7 122.0,269.3 127.3,269.3 132.7,263.7 138.0,258.1 143.3,258.1 148.7,252.6 154.0,252.6 159.3,252.6 164.7,252.6 170.0,252.6 175.3,252.6 180.7,252.6 186.0,252.6 191.3,252.6 196.7,258.1 202.0,258.1 207.3,258.1 212.7,258.1 218.0,263.7 223.3,263.7 228.7,263.7 234.0,263.7 239.3,263.7 244.7,258.1 250.0,258.1 255.3,258.1 260.7,258.1 266.0,263.7 271.3,263.7 276.7,263.7 282.0,263.7 287.3,263.7 292.7,263.7 298.0,263.7 303.3,258.1 308.7,258.1 314.0,258.1 319.3,263.7 324.7,263.7 330.0,263.7 335.3,263.7 340.7,263.7 346.0,263.7 351.3,263.7 356.7,263.7 362.0,263.7 367.3,258.1 372.7,263.7 378.0,263.7 383.3,263.7 388.7,263.7 394.0,263.7 399.3,263.7 404.7,263.7 410.0,263.7 415.3,263.7 420.7,263.7 426.0,263.7 431.3,263.7 436.7,263.7 442.0,263.7 447.3,263.7 452.7,269.3 458.0,269.3 463.3,269.3 468.7,269.3 474.0,269.3 479.3,269.3 484.7,263.7 490.0,263.7 495.3,263.7 500.7,263.7 506.0,263.7 511.3,263.7 516.7,258.1 522.0,252.6 527.3,252.6 532.7,258.1 538.0,252.6 543.3,252.6 548.7,252.6 554.0,252.6 559.3,252.6 564.7,252.6 570.0,258.1 575.3,252.6 580.7,252.6 586.0,252.6 591.3,252.6 596.7,258.1 602.0,258.1 607.3,258.1 612.7,258.1 618.0,258.1 623.3,258.1 628.7,258.1 634.0,258.1 639.3,252.6 644.7,252.6 650.0,252.6 655.3,252.6 660.7,252.6 666.0,252.6 671.3,252.6 676.7,258.1 682.0,252.6 687.3,252.6 692.7,252.6 698.0,252.6 703.3,252.6 708.7,252.6 714.0,252.6 719.3,258.1 724.7,258.1 730.0,258.1 735.3,258.1 740.7,258.1 746.0,258.1 751.3,258.1 756.7,258.1 762.0,252.6 767.3,252.6 772.7,252.6 778.0,252.6 783.3,252.6 788.7,252.6 794.0,252.6 799.3,252.6 804.7,252.6 810.0,252.6 815.3,252.6 820.7,252.6 826.0,252.6 831.3,252.6 836.7,258.1 842.0,258.1 847.3,258.1 852.7,258.1 858.0,258.1 863.3,263.7 868.7,263.7 874.0,258.1 879.3,258.1 884.7,258.1 890.0,258.1 895.3,258.1 900.7,258.1 906.0,258.1 911.3,258.1 916.7,258.1 922.0,258.1 927.3,258.1 932.7,258.1 938.0,258.1"/><polyline fill="none" stroke="#ef4444" stroke-width="2.5" stroke-linejoin="round" stroke-linecap="round" points="42.0,286.0 47.3,146.7 52.7,286.0 58.0,286.0 63.3,286.0 68.7,286.0 74.0,286.0 79.3,286.0 84.7,286.0 90.0,286.0 95.3,286.0 100.7,286.0 106.0,286.0 111.3,286.0 116.7,286.0 122.0,286.0 127.3,286.0 132.7,280.4 138.0,286.0 143.3,286.0 148.7,286.0 154.0,286.0 159.3,286.0 164.7,286.0 170.0,286.0 175.3,286.0 180.7,286.0 186.0,286.0 191.3,286.0 196.7,286.0 202.0,286.0 207.3,286.0 212.7,286.0 218.0,286.0 223.3,286.0 228.7,286.0 234.0,286.0 239.3,286.0 244.7,286.0 250.0,286.0 255.3,286.0 260.7,286.0 266.0,286.0 271.3,286.0 276.7,286.0 282.0,286.0 287.3,286.0 292.7,286.0 298.0,286.0 303.3,286.0 308.7,286.0 314.0,286.0 319.3,286.0 324.7,286.0 330.0,286.0 335.3,286.0 340.7,286.0 346.0,286.0 351.3,286.0 356.7,286.0 362.0,286.0 367.3,286.0 372.7,286.0 378.0,286.0 383.3,286.0 388.7,286.0 394.0,286.0 399.3,280.4 404.7,286.0 410.0,286.0 415.3,286.0 420.7,286.0 426.0,286.0 431.3,286.0 436.7,286.0 442.0,286.0 447.3,286.0 452.7,286.0 458.0,286.0 463.3,286.0 468.7,286.0 474.0,280.4 479.3,286.0 484.7,286.0 490.0,286.0 495.3,286.0 500.7,286.0 506.0,286.0 511.3,286.0 516.7,286.0 522.0,286.0 527.3,286.0 532.7,280.4 538.0,286.0 543.3,286.0 548.7,286.0 554.0,286.0 559.3,280.4 564.7,286.0 570.0,286.0 575.3,286.0 580.7,286.0 586.0,286.0 591.3,286.0 596.7,286.0 602.0,286.0 607.3,286.0 612.7,286.0 618.0,286.0 623.3,286.0 628.7,286.0 634.0,286.0 639.3,286.0 644.7,286.0 650.0,286.0 655.3,286.0 660.7,286.0 666.0,286.0 671.3,286.0 676.7,286.0 682.0,280.4 687.3,286.0 692.7,286.0 698.0,286.0 703.3,274.9 708.7,286.0 714.0,286.0 719.3,280.4 724.7,280.4 730.0,286.0 735.3,286.0 740.7,286.0 746.0,286.0 751.3,280.4 756.7,286.0 762.0,286.0 767.3,286.0 772.7,286.0 778.0,286.0 783.3,286.0 788.7,286.0 794.0,286.0 799.3,286.0 804.7,286.0 810.0,286.0 815.3,286.0 820.7,286.0 826.0,286.0 831.3,286.0 836.7,286.0 842.0,286.0 847.3,286.0 852.7,286.0 858.0,286.0 863.3,280.4 868.7,286.0 874.0,286.0 879.3,286.0 884.7,263.7 890.0,280.4 895.3,286.0 900.7,286.0 906.0,286.0 911.3,286.0 916.7,286.0 922.0,286.0 927.3,286.0 932.7,286.0 938.0,258.1"/><polyline fill="none" stroke="#a855f7" stroke-width="2.5" stroke-linejoin="round" stroke-linecap="round" points="42.0,286.0 47.3,286.0 52.7,286.0 58.0,286.0 63.3,286.0 68.7,286.0 74.0,286.0 79.3,286.0 84.7,286.0 90.0,286.0 95.3,286.0 100.7,286.0 106.0,286.0 111.3,286.0 116.7,286.0 122.0,286.0 127.3,286.0 132.7,286.0 138.0,286.0 143.3,286.0 148.7,286.0 154.0,286.0 159.3,286.0 164.7,286.0 170.0,286.0 175.3,286.0 180.7,286.0 186.0,286.0 191.3,286.0 196.7,286.0 202.0,286.0 207.3,286.0 212.7,286.0 218.0,286.0 223.3,286.0 228.7,286.0 234.0,286.0 239.3,286.0 244.7,286.0 250.0,286.0 255.3,286.0 260.7,286.0 266.0,286.0 271.3,286.0 276.7,286.0 282.0,286.0 287.3,286.0 292.7,286.0 298.0,286.0 303.3,286.0 308.7,286.0 314.0,286.0 319.3,280.4 324.7,286.0 330.0,286.0 335.3,286.0 340.7,286.0 346.0,286.0 351.3,286.0 356.7,286.0 362.0,286.0 367.3,286.0 372.7,286.0 378.0,286.0 383.3,286.0 388.7,286.0 394.0,286.0 399.3,286.0 404.7,286.0 410.0,286.0 415.3,286.0 420.7,286.0 426.0,286.0 431.3,286.0 436.7,286.0 442.0,286.0 447.3,286.0 452.7,286.0 458.0,286.0 463.3,286.0 468.7,286.0 474.0,286.0 479.3,286.0 484.7,286.0 490.0,286.0 495.3,286.0 500.7,286.0 506.0,286.0 511.3,286.0 516.7,286.0 522.0,286.0 527.3,286.0 532.7,286.0 538.0,286.0 543.3,286.0 548.7,286.0 554.0,286.0 559.3,286.0 564.7,286.0 570.0,280.4 575.3,286.0 580.7,286.0 586.0,286.0 591.3,286.0 596.7,286.0 602.0,286.0 607.3,286.0 612.7,286.0 618.0,286.0 623.3,286.0 628.7,286.0 634.0,286.0 639.3,286.0 644.7,286.0 650.0,286.0 655.3,286.0 660.7,286.0 666.0,286.0 671.3,286.0 676.7,280.4 682.0,286.0 687.3,286.0 692.7,286.0 698.0,286.0 703.3,286.0 708.7,286.0 714.0,286.0 719.3,286.0 724.7,286.0 730.0,286.0 735.3,286.0 740.7,286.0 746.0,286.0 751.3,286.0 756.7,286.0 762.0,286.0 767.3,286.0 772.7,286.0 778.0,286.0 783.3,280.4 788.7,286.0 794.0,286.0 799.3,286.0 804.7,286.0 810.0,286.0 815.3,286.0 820.7,286.0 826.0,286.0 831.3,280.4 836.7,286.0 842.0,286.0 847.3,286.0 852.7,286.0 858.0,286.0 863.3,286.0 868.7,280.4 874.0,286.0 879.3,286.0 884.7,286.0 890.0,286.0 895.3,286.0 900.7,286.0 906.0,286.0 911.3,286.0 916.7,286.0 922.0,286.0 927.3,286.0 932.7,286.0 938.0,286.0"/><text x="42" y="308" font-size="11" fill="#9fb0d4">19/06 15:39</text><text x="938" y="308" text-anchor="end" font-size="11" fill="#9fb0d4">23/07 15:30</text></svg>