<svg xmlns="http://www.w3.org/2000/svg" viewBox="0 0 960 320" width="960" height="320" font-family="Segoe UI, system-ui, -apple-system, Roboto, Helvetica, Arial, sans-serif" role="img" aria-label="Availability history per region"><rect x="0.5" y="0.5" width="959" height="319" rx="14" fill="#ffffff" stroke="#dce3f1"/><text x="42" y="26" font-size="14" font-weight="600" fill="#14203a">History · 140 points</text><circle cx="47" cy="40" r="5" fill="#22c55e"/><text x="57" y="44" font-size="12" fill="#5a688a">Available</text><circle cx="139.8" cy="40" r="5" fill="#f59e0b"/><text x="149.8" y="44" font-size="12" fill="#5a688a">Saturated</text><circle cx="232.60000000000002" cy="40" r="5" fill="#ef4444"/><text x="242.60000000000002" y="44" font-size="12" fill="#5a688a">Error</text><circle cx="296.6" cy="40" r="5" fill="#a855f7"/><text x="306.6" y="44" font-size="12" fill="#5a688a">Timeout</text><line x1="42" y1="286.0" x2="938" y2="286.0" stroke="#eef2f7" stroke-width="1"/><text x="35" y="289.0" text-anchor="end" font-size="11" fill="#5a688a">0</text><line x1="42" y1="227.5" x2="938" y2="227.5" stroke="#eef2f7" stroke-width="1"/><text x="35" y="230.5" text-anchor="end" font-size="11" fill="#5a688a">10</text><line x1="42" y1="169.0" x2="938" y2="169.0" stroke="#eef2f7" stroke-width="1"/><text x="35" y="172.0" text-anchor="end" font-size="11" fill="#5a688a">19</text><line x1="42" y1="110.5" x2="938" y2="110.5" stroke="#eef2f7" stroke-width="1"/><text x="35" y="113.5" text-anchor="end" font-size="11" fill="#5a688a">28</text><line x1="42" y1="52.0" x2="938" y2="52.0" stroke="#eef2f7" stroke-width="1"/><text x="35" y="55.0" text-anchor="end" font-size="11" fill="#5a688a">38</text><polyline fill="none" stroke="#22c55e" stroke-width="2.5" stroke-linejoin="round" stroke-linecap="round" points="42.0,64.3 48.4,224.4 54.9,82.8 61.3,88.9 67.8,82.8 74.2,76.6 80.7,76.6 87.1,76.6 93.6,76.6 100.0,76.6 106.5,76.6 112.9,76.6 119.4,76.6 125.8,76.6 132.2,76.6 138.7,70.5 145.1,70.5 151.6,82.8 158.0,82.8 164.5,82.8 170.9,88.9 177.4,88.9 183.8,88.9 190.3,88.9 196.7,88.9 203.2,88.9 209.6,88.9 216.0,88.9 222.5,88.9 228.9,82.8 235.4,82.8 241.8,82.8 248.3,82.8 254.7,76.6 261.2,76.6 267.6,76.6 274.1,76.6 280.5,76.6 286.9,82.8 293.4,82.8 299.8,82.8 306.3,82.8 312.7,76.6 319.2,76.6 325.6,76.6 332.1,76.6 338.5,76.6 345.0,76.6 351.4,76.6 357.9,82.8 364.3,82.8 370.7,82.8 377.2,82.8 383.6,76.6 390.1,76.6 396.5,76.6 403.0,76.6 409.4,76.6 415.9,76.6 422.3,76.6 428.8,76.6 435.2,82.8 441.7,76.6 448.1,76.6 454.5,76.6 461.0,76.6 467.4,76.6 473.9,82.8 480.3,76.6 486.8,76.6 493.2,76.6 499.7,76.6 506.1,76.6 512.6,76.6 519.0,76.6 525.5,76.6 531.9,76.6 538.3,70.5 544.8,70.5 551.2,70.5 557.7,70.5 564.1,76.6 570.6,70.5 577.0,76.6 583.5,76.6 589.9,76.6 596.4,76.6 602.8,76.6 609.3,76.6 615.7,82.8 622.1,88.9 628.6,88.9 635.0,88.9 641.5,88.9 647.9,88.9 654.4,88.9 660.8,88.9 667.3,95.1 673.7,88.9 680.2,88.9 686.6,88.9 693.1,88.9 699.5,88.9 705.9,88.9 712.4,82.8 718.8,82.8 725.3,82.8 731.7,82.8 738.2,82.8 744.6,82.8 751.1,82.8 757.5,82.8 764.0,88.9 770.4,88.9 776.8,88.9 783.3,88.9 789.7,88.9 796.2,88.9 802.6,88.9 809.1,88.9 815.5,95.1 822.0,88.9 828.4,88.9 834.9,88.9 841.3,101.3 847.8,88.9 854.2,88.9 860.6,88.9 867.1,88.9 873.5,82.8 880.0,82.8 886.4,82.8 892.9,82.8 899.3,88.9 905.8,82.8 912.2,88.9 918.7,88.9 925.1,88.9 931.6,88.9 938.0,95.1"/><polyline fill="none" stroke="#f59e0b" stroke-width="2.5" stroke-linejoin="round" stroke-linecap="round" points="42.0,273.7 48.4,267.5 54.9,255.2 61.3,249.1 67.8,255.2 74.2,261.4 80.7,261.4 87.1,261.4 93.6,261.4 100.0,261.4 106.5,261.4 112.9,261.4 119.4,261.4 125.8,261.4 132.2,261.4 138.7,267.5 145.1,267.5 151.6,261.4 158.0,255.2 164.5,255.2 170.9,249.1 177.4,249.1 183.8,249.1 190.3,249.1 196.7,249.1 203.2,249.1 209.6,249.1 216.0,249.1 222.5,249.1 228.9,255.2 235.4,255.2 241.8,255.2 248.3,255.2 254.7,261.4 261.2,261.4 267.6,261.4 274.1,261.4 280.5,261.4 286.9,255.2 293.4,255.2 299.8,255.2 306.3,255.2 312.7,261.4 319.2,261.4 325.6,261.4 332.1,261.4 338.5,261.4 345.0,261.4 351.4,261.4 357.9,255.2 364.3,255.2 370.7,255.2 377.2,261.4 383.6,261.4 390.1,261.4 396.5,261.4 403.0,261.4 409.4,261.4 415.9,261.4 422.3,261.4 428.8,261.4 435.2,255.2 441.7,261.4 448.1,261.4 454.5,261.4 461.0,261.4 467.4,261.4 473.9,261.4 480.3,261.4 486.8,261.4 493.2,261.4 499.7,261.4 506.1,261.4 512.6,261.4 519.0,261.4 525.5,261.4 531.9,261.4 538.3,267.5 544.8,267.5 551.2,267.5 557.7,267.5 564.1,267.5 570.6,267.5 577.0,261.4 583.5,261.4 589.9,261.4 596.4,261.4 602.8,261.4 609.3,261.4 615.7,255.2 622.1,249.1 628.6,249.1 635.0,255.2 641.5,249.1 647.9,249.1 654.4,249.1 660.8,249.1 667.3,249.1 673.7,249.1 680.2,255.2 686.6,249.1 693.1,249.1 699.5,249.1 705.9,249.1 712.4,255.2 718.8,255.2 725.3,255.2 731.7,255.2 738.2,255.2 744.6,255.2 751.1,255.2 757.5,255.2 764.0,249.1 770.4,249.1 776.8,249.1 783.3,249.1 789.7,249.1 796.2,249.1 802.6,249.1 809.1,255.2 815.5,249.1 822.0,249.1 828.4,249.1 834.9,249.1 841.3,249.1 847.8,249.1 854.2,249.1 860.6,255.2 867.1,255.2 873.5,255.2 880.0,255.2 886.4,255.2 892.9,255.2 899.3,255.2 905.8,255.2 912.2,249.1 918.7,249.1 925.1,249.1 931.6,249.1 938.0,249.1"/><polyline fill="none" stroke="#ef4444" stroke-width="2.5" stroke-linejoin="round" stroke-linecap="round" points="42.0,286.0 48.4,132.1 54.9,286.0 61.3,286.0 67.8,286.0 74.2,286.0 80.7,286.0 87.1,286.0 93.6,286.0 100.0,286.0 106.5,286.0 112.9,286.0 119.4,286.0 125.8,286.0 132.2,286.0 138.7,286.0 145.1,286.0 151.6,279.8 158.0,286.0 164.5,286.0 170.9,286.0 177.4,286.0 183.8,286.0 190.3,286.0 196.7,286.0 203.2,286.0 209.6,286.0 216.0,286.0 222.5,286.0 228.9,286.0 235.4,286.0 241.8,286.0 248.3,286.0 254.7,286.0 261.2,286.0 267.6,286.0 274.1,286.0 280.5,286.0 286.9,286.0 293.4,286.0 299.8,286.0 306.3,286.0 312.7,286.0 319.2,286.0 325.6,286.0 332.1,286.0 338.5,286.0 345.0,286.0 351.4,286.0 357.9,286.0 364.3,286.0 370.7,286.0 377.2,286.0 383.6,286.0 390.1,286.0 396.5,286.0 403.0,286.0 409.4,286.0 415.9,286.0 422.3,286.0 428.8,286.0 435.2,286.0 441.7,286.0 448.1,286.0 454.5,286.0 461.0,286.0 467.4,286.0 473.9,279.8 480.3,286.0 486.8,286.0 493.2,286.0 499.7,286.0 506.1,286.0 512.6,286.0 519.0,286.0 525.5,286.0 531.9,286.0 538.3,286.0 544.8,286.0 551.2,286.0 557.7,286.0 564.1,279.8 570.6,286.0 577.0,286.0 583.5,286.0 589.9,286.0 596.4,286.0 602.8,286.0 609.3,286.0 615.7,286.0 622.1,286.0 628.6,286.0 635.0,279.8 641.5,286.0 647.9,286.0 654.4,286.0 660.8,286.0 667.3,279.8 673.7,286.0 680.2,286.0 686.6,286.0 693.1,286.0 699.5,286.0 705.9,286.0 712.4,286.0 718.8,286.0 725.3,286.0 731.7,286.0 738.2,286.0 744.6,286.0 751.1,286.0 757.5,286.0 764.0,286.0 770.4,286.0 776.8,286.0 783.3,286.0 789.7,286.0 796.2,286.0 802.6,286.0 809.1,286.0 815.5,279.8 822.0,286.0 828.4,286.0 834.9,286.0 841.3,273.7 847.8,286.0 854.2,286.0 860.6,279.8 867.1,279.8 873.5,286.0 880.0,286.0 886.4,286.0 892.9,286.0 899.3,279.8 905.8,286.0 912.2,286.0 918.7,286.0 925.1,286.0 931.6,286.0 938.0,286.0"/><polyline fill="none" stroke="#a855f7" stroke-width="2.5" stroke-linejoin="round" stroke-linecap="round" points="42.0,286.0 48.4,286.0 54.9,286.0 61.3,286.0 67.8,286.0 74.2,286.0 80.7,286.0 87.1,286.0 93.6,286.0 100.0,286.0 106.5,286.0 112.9,286.0 119.4,286.0 125.8,286.0 132.2,286.0 138.7,286.0 145.1,286.0 151.6,286.0 158.0,286.0 164.5,286.0 170.9,286.0 177.4,286.0 183.8,286.0 190.3,286.0 196.7,286.0 203.2,286.0 209.6,286.0 216.0,286.0 222.5,286.0 228.9,286.0 235.4,286.0 241.8,286.0 248.3,286.0 254.7,286.0 261.2,286.0 267.6,286.0 274.1,286.0 280.5,286.0 286.9,286.0 293.4,286.0 299.8,286.0 306.3,286.0 312.7,286.0 319.2,286.0 325.6,286.0 332.1,286.0 338.5,286.0 345.0,286.0 351.4,286.0 357.9,286.0 364.3,286.0 370.7,286.0 377.2,279.8 383.6,286.0 390.1,286.0 396.5,286.0 403.0,286.0 409.4,286.0 415.9,286.0 422.3,286.0 428.8,286.0 435.2,286.0 441.7,286.0 448.1,286.0 454.5,286.0 461.0,286.0 467.4,286.0 473.9,286.0 480.3,286.0 486.8,286.0 493.2,286.0 499.7,286.0 506.1,286.0 512.6,286.0 519.0,286.0 525.5,286.0 531.9,286.0 538.3,286.0 544.8,286.0 551.2,286.0 557.7,286.0 564.1,286.0 570.6,286.0 577.0,286.0 583.5,286.0 589.9,286.0 596.4,286.0 602.8,286.0 609.3,286.0 615.7,286.0 622.1,286.0 628.6,286.0 635.0,286.0 641.5,286.0 647.9,286.0 654.4,286.0 660.8,286.0 667.3,286.0 673.7,286.0 680.2,279.8 686.6,286.0 693.1,286.0 699.5,286.0 705.9,286.0 712.4,286.0 718.8,286.0 725.3,286.0 731.7,286.0 738.2,286.0 744.6,286.0 751.1,286.0 757.5,286.0 764.0,286.0 770.4,286.0 776.8,286.0 783.3,286.0 789.7,286.0 796.2,286.0 802.6,286.0 809.1,279.8 815.5,286.0 822.0,286.0 828.4,286.0 834.9,286.0 841.3,286.0 847.8,286.0 854.2,286.0 860.6,286.0 867.1,286.0 873.5,286.0 880.0,286.0 886.4,286.0 892.9,286.0 899.3,286.0 905.8,286.0 912.2,286.0 918.7,286.0 925.1,286.0 931.6,286.0 938.0,279.8"/><text x="42" y="308" font-size="11" fill="#5a688a">19/06 15:39</text><text x="938" y="308" text-anchor="end" font-size="11" fill="#5a688a">22/07 10:35</text></svg>