<svg xmlns="http://www.w3.org/2000/svg" viewBox="0 0 960 320" width="960" height="320" font-family="Segoe UI, system-ui, -apple-system, Roboto, Helvetica, Arial, sans-serif" role="img" aria-label="Availability history per region"><rect x="0.5" y="0.5" width="959" height="319" rx="14" fill="#ffffff" stroke="#dce3f1"/><text x="42" y="26" font-size="14" font-weight="600" fill="#14203a">History · 62 points</text><circle cx="47" cy="40" r="5" fill="#22c55e"/><text x="57" y="44" font-size="12" fill="#5a688a">Available</text><circle cx="139.8" cy="40" r="5" fill="#f59e0b"/><text x="149.8" y="44" font-size="12" fill="#5a688a">Saturated</text><circle cx="232.60000000000002" cy="40" r="5" fill="#ef4444"/><text x="242.60000000000002" y="44" font-size="12" fill="#5a688a">Error</text><circle cx="296.6" cy="40" r="5" fill="#a855f7"/><text x="306.6" y="44" font-size="12" fill="#5a688a">Timeout</text><line x1="42" y1="286.0" x2="938" y2="286.0" stroke="#eef2f7" stroke-width="1"/><text x="35" y="289.0" text-anchor="end" font-size="11" fill="#5a688a">0</text><line x1="42" y1="227.5" x2="938" y2="227.5" stroke="#eef2f7" stroke-width="1"/><text x="35" y="230.5" text-anchor="end" font-size="11" fill="#5a688a">10</text><line x1="42" y1="169.0" x2="938" y2="169.0" stroke="#eef2f7" stroke-width="1"/><text x="35" y="172.0" text-anchor="end" font-size="11" fill="#5a688a">19</text><line x1="42" y1="110.5" x2="938" y2="110.5" stroke="#eef2f7" stroke-width="1"/><text x="35" y="113.5" text-anchor="end" font-size="11" fill="#5a688a">28</text><line x1="42" y1="52.0" x2="938" y2="52.0" stroke="#eef2f7" stroke-width="1"/><text x="35" y="55.0" text-anchor="end" font-size="11" fill="#5a688a">38</text><polyline fill="none" stroke="#22c55e" stroke-width="2.5" stroke-linejoin="round" stroke-linecap="round" points="42.0,64.3 56.7,224.4 71.4,82.8 86.1,88.9 100.8,82.8 115.4,76.6 130.1,76.6 144.8,76.6 159.5,76.6 174.2,76.6 188.9,76.6 203.6,76.6 218.3,76.6 233.0,76.6 247.6,76.6 262.3,70.5 277.0,70.5 291.7,82.8 306.4,82.8 321.1,82.8 335.8,88.9 350.5,88.9 365.1,88.9 379.8,88.9 394.5,88.9 409.2,88.9 423.9,88.9 438.6,88.9 453.3,88.9 468.0,82.8 482.7,82.8 497.3,82.8 512.0,82.8 526.7,76.6 541.4,76.6 556.1,76.6 570.8,76.6 585.5,76.6 600.2,82.8 614.9,82.8 629.5,82.8 644.2,82.8 658.9,76.6 673.6,76.6 688.3,76.6 703.0,76.6 717.7,76.6 732.4,76.6 747.0,76.6 761.7,82.8 776.4,82.8 791.1,82.8 805.8,82.8 820.5,76.6 835.2,76.6 849.9,76.6 864.6,76.6 879.2,76.6 893.9,76.6 908.6,76.6 923.3,76.6 938.0,82.8"/><polyline fill="none" stroke="#f59e0b" stroke-width="2.5" stroke-linejoin="round" stroke-linecap="round" points="42.0,273.7 56.7,267.5 71.4,255.2 86.1,249.1 100.8,255.2 115.4,261.4 130.1,261.4 144.8,261.4 159.5,261.4 174.2,261.4 188.9,261.4 203.6,261.4 218.3,261.4 233.0,261.4 247.6,261.4 262.3,267.5 277.0,267.5 291.7,261.4 306.4,255.2 321.1,255.2 335.8,249.1 350.5,249.1 365.1,249.1 379.8,249.1 394.5,249.1 409.2,249.1 423.9,249.1 438.6,249.1 453.3,249.1 468.0,255.2 482.7,255.2 497.3,255.2 512.0,255.2 526.7,261.4 541.4,261.4 556.1,261.4 570.8,261.4 585.5,261.4 600.2,255.2 614.9,255.2 629.5,255.2 644.2,255.2 658.9,261.4 673.6,261.4 688.3,261.4 703.0,261.4 717.7,261.4 732.4,261.4 747.0,261.4 761.7,255.2 776.4,255.2 791.1,255.2 805.8,261.4 820.5,261.4 835.2,261.4 849.9,261.4 864.6,261.4 879.2,261.4 893.9,261.4 908.6,261.4 923.3,261.4 938.0,255.2"/><polyline fill="none" stroke="#ef4444" stroke-width="2.5" stroke-linejoin="round" stroke-linecap="round" points="42.0,286.0 56.7,132.1 71.4,286.0 86.1,286.0 100.8,286.0 115.4,286.0 130.1,286.0 144.8,286.0 159.5,286.0 174.2,286.0 188.9,286.0 203.6,286.0 218.3,286.0 233.0,286.0 247.6,286.0 262.3,286.0 277.0,286.0 291.7,279.8 306.4,286.0 321.1,286.0 335.8,286.0 350.5,286.0 365.1,286.0 379.8,286.0 394.5,286.0 409.2,286.0 423.9,286.0 438.6,286.0 453.3,286.0 468.0,286.0 482.7,286.0 497.3,286.0 512.0,286.0 526.7,286.0 541.4,286.0 556.1,286.0 570.8,286.0 585.5,286.0 600.2,286.0 614.9,286.0 629.5,286.0 644.2,286.0 658.9,286.0 673.6,286.0 688.3,286.0 703.0,286.0 717.7,286.0 732.4,286.0 747.0,286.0 761.7,286.0 776.4,286.0 791.1,286.0 805.8,286.0 820.5,286.0 835.2,286.0 849.9,286.0 864.6,286.0 879.2,286.0 893.9,286.0 908.6,286.0 923.3,286.0 938.0,286.0"/><polyline fill="none" stroke="#a855f7" stroke-width="2.5" stroke-linejoin="round" stroke-linecap="round" points="42.0,286.0 56.7,286.0 71.4,286.0 86.1,286.0 100.8,286.0 115.4,286.0 130.1,286.0 144.8,286.0 159.5,286.0 174.2,286.0 188.9,286.0 203.6,286.0 218.3,286.0 233.0,286.0 247.6,286.0 262.3,286.0 277.0,286.0 291.7,286.0 306.4,286.0 321.1,286.0 335.8,286.0 350.5,286.0 365.1,286.0 379.8,286.0 394.5,286.0 409.2,286.0 423.9,286.0 438.6,286.0 453.3,286.0 468.0,286.0 482.7,286.0 497.3,286.0 512.0,286.0 526.7,286.0 541.4,286.0 556.1,286.0 570.8,286.0 585.5,286.0 600.2,286.0 614.9,286.0 629.5,286.0 644.2,286.0 658.9,286.0 673.6,286.0 688.3,286.0 703.0,286.0 717.7,286.0 732.4,286.0 747.0,286.0 761.7,286.0 776.4,286.0 791.1,286.0 805.8,279.8 820.5,286.0 835.2,286.0 849.9,286.0 864.6,286.0 879.2,286.0 893.9,286.0 908.6,286.0 923.3,286.0 938.0,286.0"/><text x="42" y="308" font-size="11" fill="#5a688a">19/06 15:39</text><text x="938" y="308" text-anchor="end" font-size="11" fill="#5a688a">19/07 03:29</text></svg>