<svg xmlns="http://www.w3.org/2000/svg" viewBox="0 0 960 320" width="960" height="320" font-family="Segoe UI, system-ui, -apple-system, Roboto, Helvetica, Arial, sans-serif" role="img" aria-label="Availability history per region"><rect x="0.5" y="0.5" width="959" height="319" rx="14" fill="#0d1117" stroke="#2c3a5e"/><text x="42" y="26" font-size="14" font-weight="600" fill="#e6ecff">History · 60 points</text><circle cx="47" cy="40" r="5" fill="#22c55e"/><text x="57" y="44" font-size="12" fill="#9fb0d4">Available</text><circle cx="139.8" cy="40" r="5" fill="#f59e0b"/><text x="149.8" y="44" font-size="12" fill="#9fb0d4">Saturated</text><circle cx="232.60000000000002" cy="40" r="5" fill="#ef4444"/><text x="242.60000000000002" y="44" font-size="12" fill="#9fb0d4">Error</text><circle cx="296.6" cy="40" r="5" fill="#a855f7"/><text x="306.6" y="44" font-size="12" fill="#9fb0d4">Timeout</text><line x1="42" y1="286.0" x2="938" y2="286.0" stroke="#21304f" stroke-width="1"/><text x="35" y="289.0" text-anchor="end" font-size="11" fill="#9fb0d4">0</text><line x1="42" y1="227.5" x2="938" y2="227.5" stroke="#21304f" stroke-width="1"/><text x="35" y="230.5" text-anchor="end" font-size="11" fill="#9fb0d4">10</text><line x1="42" y1="169.0" x2="938" y2="169.0" stroke="#21304f" stroke-width="1"/><text x="35" y="172.0" text-anchor="end" font-size="11" fill="#9fb0d4">19</text><line x1="42" y1="110.5" x2="938" y2="110.5" stroke="#21304f" stroke-width="1"/><text x="35" y="113.5" text-anchor="end" font-size="11" fill="#9fb0d4">28</text><line x1="42" y1="52.0" x2="938" y2="52.0" stroke="#21304f" stroke-width="1"/><text x="35" y="55.0" text-anchor="end" font-size="11" fill="#9fb0d4">38</text><polyline fill="none" stroke="#22c55e" stroke-width="2.5" stroke-linejoin="round" stroke-linecap="round" points="42.0,64.3 57.2,224.4 72.4,82.8 87.6,88.9 102.7,82.8 117.9,76.6 133.1,76.6 148.3,76.6 163.5,76.6 178.7,76.6 193.9,76.6 209.1,76.6 224.2,76.6 239.4,76.6 254.6,76.6 269.8,70.5 285.0,70.5 300.2,82.8 315.4,82.8 330.5,82.8 345.7,88.9 360.9,88.9 376.1,88.9 391.3,88.9 406.5,88.9 421.7,88.9 436.8,88.9 452.0,88.9 467.2,88.9 482.4,82.8 497.6,82.8 512.8,82.8 528.0,82.8 543.2,76.6 558.3,76.6 573.5,76.6 588.7,76.6 603.9,76.6 619.1,82.8 634.3,82.8 649.5,82.8 664.6,82.8 679.8,76.6 695.0,76.6 710.2,76.6 725.4,76.6 740.6,76.6 755.8,76.6 770.9,76.6 786.1,82.8 801.3,82.8 816.5,82.8 831.7,82.8 846.9,76.6 862.1,76.6 877.3,76.6 892.4,76.6 907.6,76.6 922.8,76.6 938.0,76.6"/><circle cx="42.0" cy="64.3" r="2.5" fill="#22c55e"/><circle cx="57.2" cy="224.4" r="2.5" fill="#22c55e"/><circle cx="72.4" cy="82.8" r="2.5" fill="#22c55e"/><circle cx="87.6" cy="88.9" r="2.5" fill="#22c55e"/><circle cx="102.7" cy="82.8" r="2.5" fill="#22c55e"/><circle cx="117.9" cy="76.6" r="2.5" fill="#22c55e"/><circle cx="133.1" cy="76.6" r="2.5" fill="#22c55e"/><circle cx="148.3" cy="76.6" r="2.5" fill="#22c55e"/><circle cx="163.5" cy="76.6" r="2.5" fill="#22c55e"/><circle cx="178.7" cy="76.6" r="2.5" fill="#22c55e"/><circle cx="193.9" cy="76.6" r="2.5" fill="#22c55e"/><circle cx="209.1" cy="76.6" r="2.5" fill="#22c55e"/><circle cx="224.2" cy="76.6" r="2.5" fill="#22c55e"/><circle cx="239.4" cy="76.6" r="2.5" fill="#22c55e"/><circle cx="254.6" cy="76.6" r="2.5" fill="#22c55e"/><circle cx="269.8" cy="70.5" r="2.5" fill="#22c55e"/><circle cx="285.0" cy="70.5" r="2.5" fill="#22c55e"/><circle cx="300.2" cy="82.8" r="2.5" fill="#22c55e"/><circle cx="315.4" cy="82.8" r="2.5" fill="#22c55e"/><circle cx="330.5" cy="82.8" r="2.5" fill="#22c55e"/><circle cx="345.7" cy="88.9" r="2.5" fill="#22c55e"/><circle cx="360.9" cy="88.9" r="2.5" fill="#22c55e"/><circle cx="376.1" cy="88.9" r="2.5" fill="#22c55e"/><circle cx="391.3" cy="88.9" r="2.5" fill="#22c55e"/><circle cx="406.5" cy="88.9" r="2.5" fill="#22c55e"/><circle cx="421.7" cy="88.9" r="2.5" fill="#22c55e"/><circle cx="436.8" cy="88.9" r="2.5" fill="#22c55e"/><circle cx="452.0" cy="88.9" r="2.5" fill="#22c55e"/><circle cx="467.2" cy="88.9" r="2.5" fill="#22c55e"/><circle cx="482.4" cy="82.8" r="2.5" fill="#22c55e"/><circle cx="497.6" cy="82.8" r="2.5" fill="#22c55e"/><circle cx="512.8" cy="82.8" r="2.5" fill="#22c55e"/><circle cx="528.0" cy="82.8" r="2.5" fill="#22c55e"/><circle cx="543.2" cy="76.6" r="2.5" fill="#22c55e"/><circle cx="558.3" cy="76.6" r="2.5" fill="#22c55e"/><circle cx="573.5" cy="76.6" r="2.5" fill="#22c55e"/><circle cx="588.7" cy="76.6" r="2.5" fill="#22c55e"/><circle cx="603.9" cy="76.6" r="2.5" fill="#22c55e"/><circle cx="619.1" cy="82.8" r="2.5" fill="#22c55e"/><circle cx="634.3" cy="82.8" r="2.5" fill="#22c55e"/><circle cx="649.5" cy="82.8" r="2.5" fill="#22c55e"/><circle cx="664.6" cy="82.8" r="2.5" fill="#22c55e"/><circle cx="679.8" cy="76.6" r="2.5" fill="#22c55e"/><circle cx="695.0" cy="76.6" r="2.5" fill="#22c55e"/><circle cx="710.2" cy="76.6" r="2.5" fill="#22c55e"/><circle cx="725.4" cy="76.6" r="2.5" fill="#22c55e"/><circle cx="740.6" cy="76.6" r="2.5" fill="#22c55e"/><circle cx="755.8" cy="76.6" r="2.5" fill="#22c55e"/><circle cx="770.9" cy="76.6" r="2.5" fill="#22c55e"/><circle cx="786.1" cy="82.8" r="2.5" fill="#22c55e"/><circle cx="801.3" cy="82.8" r="2.5" fill="#22c55e"/><circle cx="816.5" cy="82.8" r="2.5" fill="#22c55e"/><circle cx="831.7" cy="82.8" r="2.5" fill="#22c55e"/><circle cx="846.9" cy="76.6" r="2.5" fill="#22c55e"/><circle cx="862.1" cy="76.6" r="2.5" fill="#22c55e"/><circle cx="877.3" cy="76.6" r="2.5" fill="#22c55e"/><circle cx="892.4" cy="76.6" r="2.5" fill="#22c55e"/><circle cx="907.6" cy="76.6" r="2.5" fill="#22c55e"/><circle cx="922.8" cy="76.6" r="2.5" fill="#22c55e"/><circle cx="938.0" cy="76.6" r="2.5" fill="#22c55e"/><polyline fill="none" stroke="#f59e0b" stroke-width="2.5" stroke-linejoin="round" stroke-linecap="round" points="42.0,273.7 57.2,267.5 72.4,255.2 87.6,249.1 102.7,255.2 117.9,261.4 133.1,261.4 148.3,261.4 163.5,261.4 178.7,261.4 193.9,261.4 209.1,261.4 224.2,261.4 239.4,261.4 254.6,261.4 269.8,267.5 285.0,267.5 300.2,261.4 315.4,255.2 330.5,255.2 345.7,249.1 360.9,249.1 376.1,249.1 391.3,249.1 406.5,249.1 421.7,249.1 436.8,249.1 452.0,249.1 467.2,249.1 482.4,255.2 497.6,255.2 512.8,255.2 528.0,255.2 543.2,261.4 558.3,261.4 573.5,261.4 588.7,261.4 603.9,261.4 619.1,255.2 634.3,255.2 649.5,255.2 664.6,255.2 679.8,261.4 695.0,261.4 710.2,261.4 725.4,261.4 740.6,261.4 755.8,261.4 770.9,261.4 786.1,255.2 801.3,255.2 816.5,255.2 831.7,261.4 846.9,261.4 862.1,261.4 877.3,261.4 892.4,261.4 907.6,261.4 922.8,261.4 938.0,261.4"/><circle cx="42.0" cy="273.7" r="2.5" fill="#f59e0b"/><circle cx="57.2" cy="267.5" r="2.5" fill="#f59e0b"/><circle cx="72.4" cy="255.2" r="2.5" fill="#f59e0b"/><circle cx="87.6" cy="249.1" r="2.5" fill="#f59e0b"/><circle cx="102.7" cy="255.2" r="2.5" fill="#f59e0b"/><circle cx="117.9" cy="261.4" r="2.5" fill="#f59e0b"/><circle cx="133.1" cy="261.4" r="2.5" fill="#f59e0b"/><circle cx="148.3" cy="261.4" r="2.5" fill="#f59e0b"/><circle cx="163.5" cy="261.4" r="2.5" fill="#f59e0b"/><circle cx="178.7" cy="261.4" r="2.5" fill="#f59e0b"/><circle cx="193.9" cy="261.4" r="2.5" fill="#f59e0b"/><circle cx="209.1" cy="261.4" r="2.5" fill="#f59e0b"/><circle cx="224.2" cy="261.4" r="2.5" fill="#f59e0b"/><circle cx="239.4" cy="261.4" r="2.5" fill="#f59e0b"/><circle cx="254.6" cy="261.4" r="2.5" fill="#f59e0b"/><circle cx="269.8" cy="267.5" r="2.5" fill="#f59e0b"/><circle cx="285.0" cy="267.5" r="2.5" fill="#f59e0b"/><circle cx="300.2" cy="261.4" r="2.5" fill="#f59e0b"/><circle cx="315.4" cy="255.2" r="2.5" fill="#f59e0b"/><circle cx="330.5" cy="255.2" r="2.5" fill="#f59e0b"/><circle cx="345.7" cy="249.1" r="2.5" fill="#f59e0b"/><circle cx="360.9" cy="249.1" r="2.5" fill="#f59e0b"/><circle cx="376.1" cy="249.1" r="2.5" fill="#f59e0b"/><circle cx="391.3" cy="249.1" r="2.5" fill="#f59e0b"/><circle cx="406.5" cy="249.1" r="2.5" fill="#f59e0b"/><circle cx="421.7" cy="249.1" r="2.5" fill="#f59e0b"/><circle cx="436.8" cy="249.1" r="2.5" fill="#f59e0b"/><circle cx="452.0" cy="249.1" r="2.5" fill="#f59e0b"/><circle cx="467.2" cy="249.1" r="2.5" fill="#f59e0b"/><circle cx="482.4" cy="255.2" r="2.5" fill="#f59e0b"/><circle cx="497.6" cy="255.2" r="2.5" fill="#f59e0b"/><circle cx="512.8" cy="255.2" r="2.5" fill="#f59e0b"/><circle cx="528.0" cy="255.2" r="2.5" fill="#f59e0b"/><circle cx="543.2" cy="261.4" r="2.5" fill="#f59e0b"/><circle cx="558.3" cy="261.4" r="2.5" fill="#f59e0b"/><circle cx="573.5" cy="261.4" r="2.5" fill="#f59e0b"/><circle cx="588.7" cy="261.4" r="2.5" fill="#f59e0b"/><circle cx="603.9" cy="261.4" r="2.5" fill="#f59e0b"/><circle cx="619.1" cy="255.2" r="2.5" fill="#f59e0b"/><circle cx="634.3" cy="255.2" r="2.5" fill="#f59e0b"/><circle cx="649.5" cy="255.2" r="2.5" fill="#f59e0b"/><circle cx="664.6" cy="255.2" r="2.5" fill="#f59e0b"/><circle cx="679.8" cy="261.4" r="2.5" fill="#f59e0b"/><circle cx="695.0" cy="261.4" r="2.5" fill="#f59e0b"/><circle cx="710.2" cy="261.4" r="2.5" fill="#f59e0b"/><circle cx="725.4" cy="261.4" r="2.5" fill="#f59e0b"/><circle cx="740.6" cy="261.4" r="2.5" fill="#f59e0b"/><circle cx="755.8" cy="261.4" r="2.5" fill="#f59e0b"/><circle cx="770.9" cy="261.4" r="2.5" fill="#f59e0b"/><circle cx="786.1" cy="255.2" r="2.5" fill="#f59e0b"/><circle cx="801.3" cy="255.2" r="2.5" fill="#f59e0b"/><circle cx="816.5" cy="255.2" r="2.5" fill="#f59e0b"/><circle cx="831.7" cy="261.4" r="2.5" fill="#f59e0b"/><circle cx="846.9" cy="261.4" r="2.5" fill="#f59e0b"/><circle cx="862.1" cy="261.4" r="2.5" fill="#f59e0b"/><circle cx="877.3" cy="261.4" r="2.5" fill="#f59e0b"/><circle cx="892.4" cy="261.4" r="2.5" fill="#f59e0b"/><circle cx="907.6" cy="261.4" r="2.5" fill="#f59e0b"/><circle cx="922.8" cy="261.4" r="2.5" fill="#f59e0b"/><circle cx="938.0" cy="261.4" r="2.5" fill="#f59e0b"/><polyline fill="none" stroke="#ef4444" stroke-width="2.5" stroke-linejoin="round" stroke-linecap="round" points="42.0,286.0 57.2,132.1 72.4,286.0 87.6,286.0 102.7,286.0 117.9,286.0 133.1,286.0 148.3,286.0 163.5,286.0 178.7,286.0 193.9,286.0 209.1,286.0 224.2,286.0 239.4,286.0 254.6,286.0 269.8,286.0 285.0,286.0 300.2,279.8 315.4,286.0 330.5,286.0 345.7,286.0 360.9,286.0 376.1,286.0 391.3,286.0 406.5,286.0 421.7,286.0 436.8,286.0 452.0,286.0 467.2,286.0 482.4,286.0 497.6,286.0 512.8,286.0 528.0,286.0 543.2,286.0 558.3,286.0 573.5,286.0 588.7,286.0 603.9,286.0 619.1,286.0 634.3,286.0 649.5,286.0 664.6,286.0 679.8,286.0 695.0,286.0 710.2,286.0 725.4,286.0 740.6,286.0 755.8,286.0 770.9,286.0 786.1,286.0 801.3,286.0 816.5,286.0 831.7,286.0 846.9,286.0 862.1,286.0 877.3,286.0 892.4,286.0 907.6,286.0 922.8,286.0 938.0,286.0"/><circle cx="42.0" cy="286.0" r="2.5" fill="#ef4444"/><circle cx="57.2" cy="132.1" r="2.5" fill="#ef4444"/><circle cx="72.4" cy="286.0" r="2.5" fill="#ef4444"/><circle cx="87.6" cy="286.0" r="2.5" fill="#ef4444"/><circle cx="102.7" cy="286.0" r="2.5" fill="#ef4444"/><circle cx="117.9" cy="286.0" r="2.5" fill="#ef4444"/><circle cx="133.1" cy="286.0" r="2.5" fill="#ef4444"/><circle cx="148.3" cy="286.0" r="2.5" fill="#ef4444"/><circle cx="163.5" cy="286.0" r="2.5" fill="#ef4444"/><circle cx="178.7" cy="286.0" r="2.5" fill="#ef4444"/><circle cx="193.9" cy="286.0" r="2.5" fill="#ef4444"/><circle cx="209.1" cy="286.0" r="2.5" fill="#ef4444"/><circle cx="224.2" cy="286.0" r="2.5" fill="#ef4444"/><circle cx="239.4" cy="286.0" r="2.5" fill="#ef4444"/><circle cx="254.6" cy="286.0" r="2.5" fill="#ef4444"/><circle cx="269.8" cy="286.0" r="2.5" fill="#ef4444"/><circle cx="285.0" cy="286.0" r="2.5" fill="#ef4444"/><circle cx="300.2" cy="279.8" r="2.5" fill="#ef4444"/><circle cx="315.4" cy="286.0" r="2.5" fill="#ef4444"/><circle cx="330.5" cy="286.0" r="2.5" fill="#ef4444"/><circle cx="345.7" cy="286.0" r="2.5" fill="#ef4444"/><circle cx="360.9" cy="286.0" r="2.5" fill="#ef4444"/><circle cx="376.1" cy="286.0" r="2.5" fill="#ef4444"/><circle cx="391.3" cy="286.0" r="2.5" fill="#ef4444"/><circle cx="406.5" cy="286.0" r="2.5" fill="#ef4444"/><circle cx="421.7" cy="286.0" r="2.5" fill="#ef4444"/><circle cx="436.8" cy="286.0" r="2.5" fill="#ef4444"/><circle cx="452.0" cy="286.0" r="2.5" fill="#ef4444"/><circle cx="467.2" cy="286.0" r="2.5" fill="#ef4444"/><circle cx="482.4" cy="286.0" r="2.5" fill="#ef4444"/><circle cx="497.6" cy="286.0" r="2.5" fill="#ef4444"/><circle cx="512.8" cy="286.0" r="2.5" fill="#ef4444"/><circle cx="528.0" cy="286.0" r="2.5" fill="#ef4444"/><circle cx="543.2" cy="286.0" r="2.5" fill="#ef4444"/><circle cx="558.3" cy="286.0" r="2.5" fill="#ef4444"/><circle cx="573.5" cy="286.0" r="2.5" fill="#ef4444"/><circle cx="588.7" cy="286.0" r="2.5" fill="#ef4444"/><circle cx="603.9" cy="286.0" r="2.5" fill="#ef4444"/><circle cx="619.1" cy="286.0" r="2.5" fill="#ef4444"/><circle cx="634.3" cy="286.0" r="2.5" fill="#ef4444"/><circle cx="649.5" cy="286.0" r="2.5" fill="#ef4444"/><circle cx="664.6" cy="286.0" r="2.5" fill="#ef4444"/><circle cx="679.8" cy="286.0" r="2.5" fill="#ef4444"/><circle cx="695.0" cy="286.0" r="2.5" fill="#ef4444"/><circle cx="710.2" cy="286.0" r="2.5" fill="#ef4444"/><circle cx="725.4" cy="286.0" r="2.5" fill="#ef4444"/><circle cx="740.6" cy="286.0" r="2.5" fill="#ef4444"/><circle cx="755.8" cy="286.0" r="2.5" fill="#ef4444"/><circle cx="770.9" cy="286.0" r="2.5" fill="#ef4444"/><circle cx="786.1" cy="286.0" r="2.5" fill="#ef4444"/><circle cx="801.3" cy="286.0" r="2.5" fill="#ef4444"/><circle cx="816.5" cy="286.0" r="2.5" fill="#ef4444"/><circle cx="831.7" cy="286.0" r="2.5" fill="#ef4444"/><circle cx="846.9" cy="286.0" r="2.5" fill="#ef4444"/><circle cx="862.1" cy="286.0" r="2.5" fill="#ef4444"/><circle cx="877.3" cy="286.0" r="2.5" fill="#ef4444"/><circle cx="892.4" cy="286.0" r="2.5" fill="#ef4444"/><circle cx="907.6" cy="286.0" r="2.5" fill="#ef4444"/><circle cx="922.8" cy="286.0" r="2.5" fill="#ef4444"/><circle cx="938.0" cy="286.0" r="2.5" fill="#ef4444"/><polyline fill="none" stroke="#a855f7" stroke-width="2.5" stroke-linejoin="round" stroke-linecap="round" points="42.0,286.0 57.2,286.0 72.4,286.0 87.6,286.0 102.7,286.0 117.9,286.0 133.1,286.0 148.3,286.0 163.5,286.0 178.7,286.0 193.9,286.0 209.1,286.0 224.2,286.0 239.4,286.0 254.6,286.0 269.8,286.0 285.0,286.0 300.2,286.0 315.4,286.0 330.5,286.0 345.7,286.0 360.9,286.0 376.1,286.0 391.3,286.0 406.5,286.0 421.7,286.0 436.8,286.0 452.0,286.0 467.2,286.0 482.4,286.0 497.6,286.0 512.8,286.0 528.0,286.0 543.2,286.0 558.3,286.0 573.5,286.0 588.7,286.0 603.9,286.0 619.1,286.0 634.3,286.0 649.5,286.0 664.6,286.0 679.8,286.0 695.0,286.0 710.2,286.0 725.4,286.0 740.6,286.0 755.8,286.0 770.9,286.0 786.1,286.0 801.3,286.0 816.5,286.0 831.7,279.8 846.9,286.0 862.1,286.0 877.3,286.0 892.4,286.0 907.6,286.0 922.8,286.0 938.0,286.0"/><circle cx="42.0" cy="286.0" r="2.5" fill="#a855f7"/><circle cx="57.2" cy="286.0" r="2.5" fill="#a855f7"/><circle cx="72.4" cy="286.0" r="2.5" fill="#a855f7"/><circle cx="87.6" cy="286.0" r="2.5" fill="#a855f7"/><circle cx="102.7" cy="286.0" r="2.5" fill="#a855f7"/><circle cx="117.9" cy="286.0" r="2.5" fill="#a855f7"/><circle cx="133.1" cy="286.0" r="2.5" fill="#a855f7"/><circle cx="148.3" cy="286.0" r="2.5" fill="#a855f7"/><circle cx="163.5" cy="286.0" r="2.5" fill="#a855f7"/><circle cx="178.7" cy="286.0" r="2.5" fill="#a855f7"/><circle cx="193.9" cy="286.0" r="2.5" fill="#a855f7"/><circle cx="209.1" cy="286.0" r="2.5" fill="#a855f7"/><circle cx="224.2" cy="286.0" r="2.5" fill="#a855f7"/><circle cx="239.4" cy="286.0" r="2.5" fill="#a855f7"/><circle cx="254.6" cy="286.0" r="2.5" fill="#a855f7"/><circle cx="269.8" cy="286.0" r="2.5" fill="#a855f7"/><circle cx="285.0" cy="286.0" r="2.5" fill="#a855f7"/><circle cx="300.2" cy="286.0" r="2.5" fill="#a855f7"/><circle cx="315.4" cy="286.0" r="2.5" fill="#a855f7"/><circle cx="330.5" cy="286.0" r="2.5" fill="#a855f7"/><circle cx="345.7" cy="286.0" r="2.5" fill="#a855f7"/><circle cx="360.9" cy="286.0" r="2.5" fill="#a855f7"/><circle cx="376.1" cy="286.0" r="2.5" fill="#a855f7"/><circle cx="391.3" cy="286.0" r="2.5" fill="#a855f7"/><circle cx="406.5" cy="286.0" r="2.5" fill="#a855f7"/><circle cx="421.7" cy="286.0" r="2.5" fill="#a855f7"/><circle cx="436.8" cy="286.0" r="2.5" fill="#a855f7"/><circle cx="452.0" cy="286.0" r="2.5" fill="#a855f7"/><circle cx="467.2" cy="286.0" r="2.5" fill="#a855f7"/><circle cx="482.4" cy="286.0" r="2.5" fill="#a855f7"/><circle cx="497.6" cy="286.0" r="2.5" fill="#a855f7"/><circle cx="512.8" cy="286.0" r="2.5" fill="#a855f7"/><circle cx="528.0" cy="286.0" r="2.5" fill="#a855f7"/><circle cx="543.2" cy="286.0" r="2.5" fill="#a855f7"/><circle cx="558.3" cy="286.0" r="2.5" fill="#a855f7"/><circle cx="573.5" cy="286.0" r="2.5" fill="#a855f7"/><circle cx="588.7" cy="286.0" r="2.5" fill="#a855f7"/><circle cx="603.9" cy="286.0" r="2.5" fill="#a855f7"/><circle cx="619.1" cy="286.0" r="2.5" fill="#a855f7"/><circle cx="634.3" cy="286.0" r="2.5" fill="#a855f7"/><circle cx="649.5" cy="286.0" r="2.5" fill="#a855f7"/><circle cx="664.6" cy="286.0" r="2.5" fill="#a855f7"/><circle cx="679.8" cy="286.0" r="2.5" fill="#a855f7"/><circle cx="695.0" cy="286.0" r="2.5" fill="#a855f7"/><circle cx="710.2" cy="286.0" r="2.5" fill="#a855f7"/><circle cx="725.4" cy="286.0" r="2.5" fill="#a855f7"/><circle cx="740.6" cy="286.0" r="2.5" fill="#a855f7"/><circle cx="755.8" cy="286.0" r="2.5" fill="#a855f7"/><circle cx="770.9" cy="286.0" r="2.5" fill="#a855f7"/><circle cx="786.1" cy="286.0" r="2.5" fill="#a855f7"/><circle cx="801.3" cy="286.0" r="2.5" fill="#a855f7"/><circle cx="816.5" cy="286.0" r="2.5" fill="#a855f7"/><circle cx="831.7" cy="279.8" r="2.5" fill="#a855f7"/><circle cx="846.9" cy="286.0" r="2.5" fill="#a855f7"/><circle cx="862.1" cy="286.0" r="2.5" fill="#a855f7"/><circle cx="877.3" cy="286.0" r="2.5" fill="#a855f7"/><circle cx="892.4" cy="286.0" r="2.5" fill="#a855f7"/><circle cx="907.6" cy="286.0" r="2.5" fill="#a855f7"/><circle cx="922.8" cy="286.0" r="2.5" fill="#a855f7"/><circle cx="938.0" cy="286.0" r="2.5" fill="#a855f7"/><text x="42" y="308" font-size="11" fill="#9fb0d4">19/06 15:39</text><text x="938" y="308" text-anchor="end" font-size="11" fill="#9fb0d4">19/07 01:29</text></svg>