<svg xmlns="http://www.w3.org/2000/svg" viewBox="0 0 960 320" width="960" height="320" font-family="Segoe UI, system-ui, -apple-system, Roboto, Helvetica, Arial, sans-serif" role="img" aria-label="Availability history per region"><rect x="0.5" y="0.5" width="959" height="319" rx="14" fill="#0d1117" stroke="#2c3a5e"/><text x="42" y="26" font-size="14" font-weight="600" fill="#e6ecff">History · 40 points</text><circle cx="47" cy="40" r="5" fill="#22c55e"/><text x="57" y="44" font-size="12" fill="#9fb0d4">Available</text><circle cx="139.8" cy="40" r="5" fill="#f59e0b"/><text x="149.8" y="44" font-size="12" fill="#9fb0d4">Saturated</text><circle cx="232.60000000000002" cy="40" r="5" fill="#ef4444"/><text x="242.60000000000002" y="44" font-size="12" fill="#9fb0d4">Error</text><line x1="42" y1="286.0" x2="938" y2="286.0" stroke="#21304f" stroke-width="1"/><text x="35" y="289.0" text-anchor="end" font-size="11" fill="#9fb0d4">0</text><line x1="42" y1="227.5" x2="938" y2="227.5" stroke="#21304f" stroke-width="1"/><text x="35" y="230.5" text-anchor="end" font-size="11" fill="#9fb0d4">10</text><line x1="42" y1="169.0" x2="938" y2="169.0" stroke="#21304f" stroke-width="1"/><text x="35" y="172.0" text-anchor="end" font-size="11" fill="#9fb0d4">20</text><line x1="42" y1="110.5" x2="938" y2="110.5" stroke="#21304f" stroke-width="1"/><text x="35" y="113.5" text-anchor="end" font-size="11" fill="#9fb0d4">29</text><line x1="42" y1="52.0" x2="938" y2="52.0" stroke="#21304f" stroke-width="1"/><text x="35" y="55.0" text-anchor="end" font-size="11" fill="#9fb0d4">39</text><polyline fill="none" stroke="#22c55e" stroke-width="2.5" stroke-linejoin="round" stroke-linecap="round" points="42.0,70.0 65.0,70.0 87.9,88.0 110.9,88.0 133.9,76.0 156.9,76.0 179.8,76.0 202.8,70.0 225.8,76.0 248.8,70.0 271.7,64.0 294.7,58.0 317.7,58.0 340.7,58.0 363.6,58.0 386.6,58.0 409.6,58.0 432.6,58.0 455.5,58.0 478.5,58.0 501.5,58.0 524.5,58.0 547.4,58.0 570.4,58.0 593.4,58.0 616.4,58.0 639.3,58.0 662.3,58.0 685.3,58.0 708.3,58.0 731.2,58.0 754.2,70.0 777.2,76.0 800.2,94.0 823.1,64.0 846.1,64.0 869.1,58.0 892.1,58.0 915.0,58.0 938.0,70.0"/><circle cx="42.0" cy="70.0" r="2.5" fill="#22c55e"/><circle cx="65.0" cy="70.0" r="2.5" fill="#22c55e"/><circle cx="87.9" cy="88.0" r="2.5" fill="#22c55e"/><circle cx="110.9" cy="88.0" r="2.5" fill="#22c55e"/><circle cx="133.9" cy="76.0" r="2.5" fill="#22c55e"/><circle cx="156.9" cy="76.0" r="2.5" fill="#22c55e"/><circle cx="179.8" cy="76.0" r="2.5" fill="#22c55e"/><circle cx="202.8" cy="70.0" r="2.5" fill="#22c55e"/><circle cx="225.8" cy="76.0" r="2.5" fill="#22c55e"/><circle cx="248.8" cy="70.0" r="2.5" fill="#22c55e"/><circle cx="271.7" cy="64.0" r="2.5" fill="#22c55e"/><circle cx="294.7" cy="58.0" r="2.5" fill="#22c55e"/><circle cx="317.7" cy="58.0" r="2.5" fill="#22c55e"/><circle cx="340.7" cy="58.0" r="2.5" fill="#22c55e"/><circle cx="363.6" cy="58.0" r="2.5" fill="#22c55e"/><circle cx="386.6" cy="58.0" r="2.5" fill="#22c55e"/><circle cx="409.6" cy="58.0" r="2.5" fill="#22c55e"/><circle cx="432.6" cy="58.0" r="2.5" fill="#22c55e"/><circle cx="455.5" cy="58.0" r="2.5" fill="#22c55e"/><circle cx="478.5" cy="58.0" r="2.5" fill="#22c55e"/><circle cx="501.5" cy="58.0" r="2.5" fill="#22c55e"/><circle cx="524.5" cy="58.0" r="2.5" fill="#22c55e"/><circle cx="547.4" cy="58.0" r="2.5" fill="#22c55e"/><circle cx="570.4" cy="58.0" r="2.5" fill="#22c55e"/><circle cx="593.4" cy="58.0" r="2.5" fill="#22c55e"/><circle cx="616.4" cy="58.0" r="2.5" fill="#22c55e"/><circle cx="639.3" cy="58.0" r="2.5" fill="#22c55e"/><circle cx="662.3" cy="58.0" r="2.5" fill="#22c55e"/><circle cx="685.3" cy="58.0" r="2.5" fill="#22c55e"/><circle cx="708.3" cy="58.0" r="2.5" fill="#22c55e"/><circle cx="731.2" cy="58.0" r="2.5" fill="#22c55e"/><circle cx="754.2" cy="70.0" r="2.5" fill="#22c55e"/><circle cx="777.2" cy="76.0" r="2.5" fill="#22c55e"/><circle cx="800.2" cy="94.0" r="2.5" fill="#22c55e"/><circle cx="823.1" cy="64.0" r="2.5" fill="#22c55e"/><circle cx="846.1" cy="64.0" r="2.5" fill="#22c55e"/><circle cx="869.1" cy="58.0" r="2.5" fill="#22c55e"/><circle cx="892.1" cy="58.0" r="2.5" fill="#22c55e"/><circle cx="915.0" cy="58.0" r="2.5" fill="#22c55e"/><circle cx="938.0" cy="70.0" r="2.5" fill="#22c55e"/><polyline fill="none" stroke="#f59e0b" stroke-width="2.5" stroke-linejoin="round" stroke-linecap="round" points="42.0,274.0 65.0,274.0 87.9,274.0 110.9,280.0 133.9,268.0 156.9,268.0 179.8,268.0 202.8,274.0 225.8,274.0 248.8,274.0 271.7,280.0 294.7,286.0 317.7,286.0 340.7,286.0 363.6,286.0 386.6,286.0 409.6,286.0 432.6,286.0 455.5,286.0 478.5,286.0 501.5,286.0 524.5,286.0 547.4,286.0 570.4,286.0 593.4,286.0 616.4,286.0 639.3,286.0 662.3,286.0 685.3,286.0 708.3,286.0 731.2,286.0 754.2,274.0 777.2,280.0 800.2,280.0 823.1,280.0 846.1,280.0 869.1,286.0 892.1,286.0 915.0,286.0 938.0,274.0"/><circle cx="42.0" cy="274.0" r="2.5" fill="#f59e0b"/><circle cx="65.0" cy="274.0" r="2.5" fill="#f59e0b"/><circle cx="87.9" cy="274.0" r="2.5" fill="#f59e0b"/><circle cx="110.9" cy="280.0" r="2.5" fill="#f59e0b"/><circle cx="133.9" cy="268.0" r="2.5" fill="#f59e0b"/><circle cx="156.9" cy="268.0" r="2.5" fill="#f59e0b"/><circle cx="179.8" cy="268.0" r="2.5" fill="#f59e0b"/><circle cx="202.8" cy="274.0" r="2.5" fill="#f59e0b"/><circle cx="225.8" cy="274.0" r="2.5" fill="#f59e0b"/><circle cx="248.8" cy="274.0" r="2.5" fill="#f59e0b"/><circle cx="271.7" cy="280.0" r="2.5" fill="#f59e0b"/><circle cx="294.7" cy="286.0" r="2.5" fill="#f59e0b"/><circle cx="317.7" cy="286.0" r="2.5" fill="#f59e0b"/><circle cx="340.7" cy="286.0" r="2.5" fill="#f59e0b"/><circle cx="363.6" cy="286.0" r="2.5" fill="#f59e0b"/><circle cx="386.6" cy="286.0" r="2.5" fill="#f59e0b"/><circle cx="409.6" cy="286.0" r="2.5" fill="#f59e0b"/><circle cx="432.6" cy="286.0" r="2.5" fill="#f59e0b"/><circle cx="455.5" cy="286.0" r="2.5" fill="#f59e0b"/><circle cx="478.5" cy="286.0" r="2.5" fill="#f59e0b"/><circle cx="501.5" cy="286.0" r="2.5" fill="#f59e0b"/><circle cx="524.5" cy="286.0" r="2.5" fill="#f59e0b"/><circle cx="547.4" cy="286.0" r="2.5" fill="#f59e0b"/><circle cx="570.4" cy="286.0" r="2.5" fill="#f59e0b"/><circle cx="593.4" cy="286.0" r="2.5" fill="#f59e0b"/><circle cx="616.4" cy="286.0" r="2.5" fill="#f59e0b"/><circle cx="639.3" cy="286.0" r="2.5" fill="#f59e0b"/><circle cx="662.3" cy="286.0" r="2.5" fill="#f59e0b"/><circle cx="685.3" cy="286.0" r="2.5" fill="#f59e0b"/><circle cx="708.3" cy="286.0" r="2.5" fill="#f59e0b"/><circle cx="731.2" cy="286.0" r="2.5" fill="#f59e0b"/><circle cx="754.2" cy="274.0" r="2.5" fill="#f59e0b"/><circle cx="777.2" cy="280.0" r="2.5" fill="#f59e0b"/><circle cx="800.2" cy="280.0" r="2.5" fill="#f59e0b"/><circle cx="823.1" cy="280.0" r="2.5" fill="#f59e0b"/><circle cx="846.1" cy="280.0" r="2.5" fill="#f59e0b"/><circle cx="869.1" cy="286.0" r="2.5" fill="#f59e0b"/><circle cx="892.1" cy="286.0" r="2.5" fill="#f59e0b"/><circle cx="915.0" cy="286.0" r="2.5" fill="#f59e0b"/><circle cx="938.0" cy="274.0" r="2.5" fill="#f59e0b"/><polyline fill="none" stroke="#ef4444" stroke-width="2.5" stroke-linejoin="round" stroke-linecap="round" points="42.0,280.0 65.0,280.0 87.9,268.0 110.9,262.0 133.9,286.0 156.9,286.0 179.8,286.0 202.8,286.0 225.8,280.0 248.8,286.0 271.7,286.0 294.7,286.0 317.7,286.0 340.7,286.0 363.6,286.0 386.6,286.0 409.6,286.0 432.6,286.0 455.5,286.0 478.5,286.0 501.5,286.0 524.5,286.0 547.4,286.0 570.4,286.0 593.4,286.0 616.4,286.0 639.3,286.0 662.3,286.0 685.3,286.0 708.3,286.0 731.2,286.0 754.2,286.0 777.2,274.0 800.2,256.0 823.1,286.0 846.1,286.0 869.1,286.0 892.1,286.0 915.0,286.0 938.0,286.0"/><circle cx="42.0" cy="280.0" r="2.5" fill="#ef4444"/><circle cx="65.0" cy="280.0" r="2.5" fill="#ef4444"/><circle cx="87.9" cy="268.0" r="2.5" fill="#ef4444"/><circle cx="110.9" cy="262.0" r="2.5" fill="#ef4444"/><circle cx="133.9" cy="286.0" r="2.5" fill="#ef4444"/><circle cx="156.9" cy="286.0" r="2.5" fill="#ef4444"/><circle cx="179.8" cy="286.0" r="2.5" fill="#ef4444"/><circle cx="202.8" cy="286.0" r="2.5" fill="#ef4444"/><circle cx="225.8" cy="280.0" r="2.5" fill="#ef4444"/><circle cx="248.8" cy="286.0" r="2.5" fill="#ef4444"/><circle cx="271.7" cy="286.0" r="2.5" fill="#ef4444"/><circle cx="294.7" cy="286.0" r="2.5" fill="#ef4444"/><circle cx="317.7" cy="286.0" r="2.5" fill="#ef4444"/><circle cx="340.7" cy="286.0" r="2.5" fill="#ef4444"/><circle cx="363.6" cy="286.0" r="2.5" fill="#ef4444"/><circle cx="386.6" cy="286.0" r="2.5" fill="#ef4444"/><circle cx="409.6" cy="286.0" r="2.5" fill="#ef4444"/><circle cx="432.6" cy="286.0" r="2.5" fill="#ef4444"/><circle cx="455.5" cy="286.0" r="2.5" fill="#ef4444"/><circle cx="478.5" cy="286.0" r="2.5" fill="#ef4444"/><circle cx="501.5" cy="286.0" r="2.5" fill="#ef4444"/><circle cx="524.5" cy="286.0" r="2.5" fill="#ef4444"/><circle cx="547.4" cy="286.0" r="2.5" fill="#ef4444"/><circle cx="570.4" cy="286.0" r="2.5" fill="#ef4444"/><circle cx="593.4" cy="286.0" r="2.5" fill="#ef4444"/><circle cx="616.4" cy="286.0" r="2.5" fill="#ef4444"/><circle cx="639.3" cy="286.0" r="2.5" fill="#ef4444"/><circle cx="662.3" cy="286.0" r="2.5" fill="#ef4444"/><circle cx="685.3" cy="286.0" r="2.5" fill="#ef4444"/><circle cx="708.3" cy="286.0" r="2.5" fill="#ef4444"/><circle cx="731.2" cy="286.0" r="2.5" fill="#ef4444"/><circle cx="754.2" cy="286.0" r="2.5" fill="#ef4444"/><circle cx="777.2" cy="274.0" r="2.5" fill="#ef4444"/><circle cx="800.2" cy="256.0" r="2.5" fill="#ef4444"/><circle cx="823.1" cy="286.0" r="2.5" fill="#ef4444"/><circle cx="846.1" cy="286.0" r="2.5" fill="#ef4444"/><circle cx="869.1" cy="286.0" r="2.5" fill="#ef4444"/><circle cx="892.1" cy="286.0" r="2.5" fill="#ef4444"/><circle cx="915.0" cy="286.0" r="2.5" fill="#ef4444"/><circle cx="938.0" cy="286.0" r="2.5" fill="#ef4444"/><text x="42" y="308" font-size="11" fill="#9fb0d4">19/06 12:43</text><text x="938" y="308" text-anchor="end" font-size="11" fill="#9fb0d4">23/06 08:57</text></svg>