<svg xmlns="http://www.w3.org/2000/svg" viewBox="0 0 960 320" width="960" height="320" font-family="Segoe UI, system-ui, -apple-system, Roboto, Helvetica, Arial, sans-serif" role="img" aria-label="Availability history per region"><rect x="0.5" y="0.5" width="959" height="319" rx="14" fill="#ffffff" stroke="#dce3f1"/><text x="42" y="26" font-size="14" font-weight="600" fill="#14203a">History · 205 points</text><circle cx="47" cy="40" r="5" fill="#22c55e"/><text x="57" y="44" font-size="12" fill="#5a688a">Available</text><circle cx="139.8" cy="40" r="5" fill="#f59e0b"/><text x="149.8" y="44" font-size="12" fill="#5a688a">Saturated</text><circle cx="232.60000000000002" cy="40" r="5" fill="#ef4444"/><text x="242.60000000000002" y="44" font-size="12" fill="#5a688a">Error</text><circle cx="296.6" cy="40" r="5" fill="#a855f7"/><text x="306.6" y="44" font-size="12" fill="#5a688a">Timeout</text><line x1="42" y1="286.0" x2="938" y2="286.0" stroke="#eef2f7" stroke-width="1"/><text x="35" y="289.0" text-anchor="end" font-size="11" fill="#5a688a">0</text><line x1="42" y1="227.5" x2="938" y2="227.5" stroke="#eef2f7" stroke-width="1"/><text x="35" y="230.5" text-anchor="end" font-size="11" fill="#5a688a">10</text><line x1="42" y1="169.0" x2="938" y2="169.0" stroke="#eef2f7" stroke-width="1"/><text x="35" y="172.0" text-anchor="end" font-size="11" fill="#5a688a">20</text><line x1="42" y1="110.5" x2="938" y2="110.5" stroke="#eef2f7" stroke-width="1"/><text x="35" y="113.5" text-anchor="end" font-size="11" fill="#5a688a">29</text><line x1="42" y1="52.0" x2="938" y2="52.0" stroke="#eef2f7" stroke-width="1"/><text x="35" y="55.0" text-anchor="end" font-size="11" fill="#5a688a">39</text><polyline fill="none" stroke="#22c55e" stroke-width="2.5" stroke-linejoin="round" stroke-linecap="round" points="42.0,70.0 46.4,70.0 50.8,88.0 55.2,88.0 59.6,76.0 64.0,76.0 68.4,76.0 72.7,70.0 77.1,76.0 81.5,70.0 85.9,64.0 90.3,58.0 94.7,58.0 99.1,58.0 103.5,58.0 107.9,58.0 112.3,58.0 116.7,58.0 121.1,58.0 125.5,58.0 129.8,58.0 134.2,58.0 138.6,58.0 143.0,58.0 147.4,58.0 151.8,58.0 156.2,58.0 160.6,58.0 165.0,58.0 169.4,58.0 173.8,58.0 178.2,70.0 182.5,76.0 186.9,94.0 191.3,64.0 195.7,64.0 200.1,58.0 204.5,58.0 208.9,58.0 213.3,70.0 217.7,76.0 222.1,76.0 226.5,82.0 230.9,82.0 235.3,82.0 239.6,82.0 244.0,76.0 248.4,64.0 252.8,70.0 257.2,70.0 261.6,82.0 266.0,76.0 270.4,76.0 274.8,82.0 279.2,76.0 283.6,76.0 288.0,76.0 292.4,64.0 296.7,64.0 301.1,76.0 305.5,76.0 309.9,76.0 314.3,88.0 318.7,70.0 323.1,64.0 327.5,58.0 331.9,58.0 336.3,70.0 340.7,70.0 345.1,70.0 349.5,76.0 353.8,70.0 358.2,70.0 362.6,70.0 367.0,70.0 371.4,76.0 375.8,82.0 380.2,76.0 384.6,70.0 389.0,70.0 393.4,70.0 397.8,70.0 402.2,76.0 406.5,70.0 410.9,70.0 415.3,70.0 419.7,70.0 424.1,70.0 428.5,70.0 432.9,70.0 437.3,70.0 441.7,70.0 446.1,70.0 450.5,70.0 454.9,70.0 459.3,70.0 463.6,70.0 468.0,70.0 472.4,70.0 476.8,70.0 481.2,70.0 485.6,70.0 490.0,70.0 494.4,70.0 498.8,70.0 503.2,70.0 507.6,70.0 512.0,70.0 516.4,70.0 520.7,70.0 525.1,70.0 529.5,70.0 533.9,70.0 538.3,70.0 542.7,70.0 547.1,70.0 551.5,70.0 555.9,70.0 560.3,70.0 564.7,70.0 569.1,70.0 573.5,70.0 577.8,70.0 582.2,70.0 586.6,70.0 591.0,70.0 595.4,70.0 599.8,70.0 604.2,70.0 608.6,70.0 613.0,70.0 617.4,70.0 621.8,70.0 626.2,70.0 630.5,70.0 634.9,70.0 639.3,70.0 643.7,70.0 648.1,70.0 652.5,70.0 656.9,70.0 661.3,70.0 665.7,70.0 670.1,70.0 674.5,70.0 678.9,70.0 683.3,70.0 687.6,70.0 692.0,70.0 696.4,70.0 700.8,70.0 705.2,76.0 709.6,70.0 714.0,70.0 718.4,70.0 722.8,70.0 727.2,70.0 731.6,76.0 736.0,76.0 740.4,88.0 744.7,88.0 749.1,88.0 753.5,94.0 757.9,94.0 762.3,94.0 766.7,94.0 771.1,88.0 775.5,88.0 779.9,82.0 784.3,82.0 788.7,82.0 793.1,88.0 797.5,88.0 801.8,94.0 806.2,82.0 810.6,82.0 815.0,82.0 819.4,82.0 823.8,88.0 828.2,88.0 832.6,94.0 837.0,94.0 841.4,88.0 845.8,88.0 850.2,88.0 854.5,94.0 858.9,94.0 863.3,106.0 867.7,94.0 872.1,94.0 876.5,94.0 880.9,94.0 885.3,88.0 889.7,88.0 894.1,82.0 898.5,76.0 902.9,76.0 907.3,76.0 911.6,76.0 916.0,76.0 920.4,76.0 924.8,70.0 929.2,70.0 933.6,70.0 938.0,76.0"/><polyline fill="none" stroke="#f59e0b" stroke-width="2.5" stroke-linejoin="round" stroke-linecap="round" points="42.0,274.0 46.4,274.0 50.8,274.0 55.2,280.0 59.6,268.0 64.0,268.0 68.4,268.0 72.7,274.0 77.1,274.0 81.5,274.0 85.9,280.0 90.3,286.0 94.7,286.0 99.1,286.0 103.5,286.0 107.9,286.0 112.3,286.0 116.7,286.0 121.1,286.0 125.5,286.0 129.8,286.0 134.2,286.0 138.6,286.0 143.0,286.0 147.4,286.0 151.8,286.0 156.2,286.0 160.6,286.0 165.0,286.0 169.4,286.0 173.8,286.0 178.2,274.0 182.5,280.0 186.9,280.0 191.3,280.0 195.7,280.0 200.1,286.0 204.5,286.0 208.9,286.0 213.3,274.0 217.7,268.0 222.1,268.0 226.5,262.0 230.9,262.0 235.3,262.0 239.6,262.0 244.0,268.0 248.4,280.0 252.8,280.0 257.2,274.0 261.6,262.0 266.0,268.0 270.4,268.0 274.8,262.0 279.2,268.0 283.6,268.0 288.0,268.0 292.4,280.0 296.7,280.0 301.1,268.0 305.5,268.0 309.9,268.0 314.3,262.0 318.7,274.0 323.1,280.0 327.5,286.0 331.9,286.0 336.3,274.0 340.7,274.0 345.1,274.0 349.5,274.0 353.8,274.0 358.2,274.0 362.6,274.0 367.0,274.0 371.4,280.0 375.8,274.0 380.2,280.0 384.6,286.0 389.0,286.0 393.4,286.0 397.8,286.0 402.2,280.0 406.5,286.0 410.9,286.0 415.3,286.0 419.7,286.0 424.1,286.0 428.5,286.0 432.9,286.0 437.3,286.0 441.7,286.0 446.1,286.0 450.5,286.0 454.9,286.0 459.3,286.0 463.6,286.0 468.0,286.0 472.4,286.0 476.8,286.0 481.2,286.0 485.6,286.0 490.0,286.0 494.4,286.0 498.8,286.0 503.2,286.0 507.6,286.0 512.0,286.0 516.4,286.0 520.7,286.0 525.1,286.0 529.5,286.0 533.9,286.0 538.3,286.0 542.7,286.0 547.1,286.0 551.5,286.0 555.9,286.0 560.3,286.0 564.7,286.0 569.1,286.0 573.5,286.0 577.8,286.0 582.2,286.0 586.6,286.0 591.0,286.0 595.4,286.0 599.8,286.0 604.2,286.0 608.6,286.0 613.0,286.0 617.4,286.0 621.8,286.0 626.2,286.0 630.5,286.0 634.9,286.0 639.3,286.0 643.7,286.0 648.1,286.0 652.5,286.0 656.9,286.0 661.3,286.0 665.7,286.0 670.1,286.0 674.5,286.0 678.9,286.0 683.3,286.0 687.6,286.0 692.0,286.0 696.4,286.0 700.8,286.0 705.2,286.0 709.6,286.0 714.0,286.0 718.4,286.0 722.8,286.0 727.2,286.0 731.6,286.0 736.0,280.0 740.4,268.0 744.7,268.0 749.1,268.0 753.5,268.0 757.9,262.0 762.3,262.0 766.7,262.0 771.1,268.0 775.5,268.0 779.9,274.0 784.3,274.0 788.7,274.0 793.1,268.0 797.5,268.0 801.8,268.0 806.2,274.0 810.6,274.0 815.0,274.0 819.4,274.0 823.8,268.0 828.2,268.0 832.6,262.0 837.0,262.0 841.4,268.0 845.8,268.0 850.2,268.0 854.5,262.0 858.9,262.0 863.3,274.0 867.7,262.0 872.1,262.0 876.5,262.0 880.9,262.0 885.3,268.0 889.7,268.0 894.1,274.0 898.5,280.0 902.9,280.0 907.3,280.0 911.6,280.0 916.0,280.0 920.4,280.0 924.8,286.0 929.2,286.0 933.6,286.0 938.0,280.0"/><polyline fill="none" stroke="#ef4444" stroke-width="2.5" stroke-linejoin="round" stroke-linecap="round" points="42.0,280.0 46.4,280.0 50.8,268.0 55.2,262.0 59.6,286.0 64.0,286.0 68.4,286.0 72.7,286.0 77.1,280.0 81.5,286.0 85.9,286.0 90.3,286.0 94.7,286.0 99.1,286.0 103.5,286.0 107.9,286.0 112.3,286.0 116.7,286.0 121.1,286.0 125.5,286.0 129.8,286.0 134.2,286.0 138.6,286.0 143.0,286.0 147.4,286.0 151.8,286.0 156.2,286.0 160.6,286.0 165.0,286.0 169.4,286.0 173.8,286.0 178.2,286.0 182.5,274.0 186.9,256.0 191.3,286.0 195.7,286.0 200.1,286.0 204.5,286.0 208.9,286.0 213.3,286.0 217.7,286.0 222.1,286.0 226.5,286.0 230.9,286.0 235.3,286.0 239.6,286.0 244.0,286.0 248.4,286.0 252.8,280.0 257.2,286.0 261.6,286.0 266.0,286.0 270.4,286.0 274.8,286.0 279.2,286.0 283.6,286.0 288.0,286.0 292.4,286.0 296.7,286.0 301.1,286.0 305.5,286.0 309.9,286.0 314.3,280.0 318.7,286.0 323.1,286.0 327.5,286.0 331.9,286.0 336.3,286.0 340.7,286.0 345.1,286.0 349.5,286.0 353.8,286.0 358.2,286.0 362.6,286.0 367.0,286.0 371.4,274.0 375.8,274.0 380.2,274.0 384.6,274.0 389.0,274.0 393.4,274.0 397.8,274.0 402.2,274.0 406.5,274.0 410.9,274.0 415.3,274.0 419.7,274.0 424.1,274.0 428.5,274.0 432.9,274.0 437.3,274.0 441.7,274.0 446.1,274.0 450.5,274.0 454.9,274.0 459.3,274.0 463.6,274.0 468.0,274.0 472.4,274.0 476.8,274.0 481.2,274.0 485.6,274.0 490.0,274.0 494.4,274.0 498.8,274.0 503.2,274.0 507.6,274.0 512.0,274.0 516.4,274.0 520.7,274.0 525.1,274.0 529.5,274.0 533.9,274.0 538.3,274.0 542.7,274.0 547.1,274.0 551.5,274.0 555.9,274.0 560.3,274.0 564.7,274.0 569.1,274.0 573.5,274.0 577.8,274.0 582.2,274.0 586.6,274.0 591.0,274.0 595.4,274.0 599.8,274.0 604.2,274.0 608.6,274.0 613.0,274.0 617.4,274.0 621.8,274.0 626.2,274.0 630.5,274.0 634.9,274.0 639.3,274.0 643.7,274.0 648.1,274.0 652.5,274.0 656.9,274.0 661.3,274.0 665.7,274.0 670.1,274.0 674.5,274.0 678.9,274.0 683.3,274.0 687.6,274.0 692.0,274.0 696.4,274.0 700.8,274.0 705.2,268.0 709.6,274.0 714.0,274.0 718.4,274.0 722.8,274.0 727.2,274.0 731.6,274.0 736.0,274.0 740.4,274.0 744.7,274.0 749.1,274.0 753.5,268.0 757.9,274.0 762.3,274.0 766.7,274.0 771.1,274.0 775.5,274.0 779.9,274.0 784.3,274.0 788.7,274.0 793.1,274.0 797.5,274.0 801.8,268.0 806.2,274.0 810.6,274.0 815.0,274.0 819.4,274.0 823.8,274.0 828.2,274.0 832.6,274.0 837.0,274.0 841.4,274.0 845.8,274.0 850.2,274.0 854.5,274.0 858.9,274.0 863.3,250.0 867.7,274.0 872.1,274.0 876.5,274.0 880.9,274.0 885.3,274.0 889.7,274.0 894.1,274.0 898.5,274.0 902.9,274.0 907.3,274.0 911.6,274.0 916.0,274.0 920.4,274.0 924.8,274.0 929.2,274.0 933.6,274.0 938.0,274.0"/><polyline fill="none" stroke="#a855f7" stroke-width="2.5" stroke-linejoin="round" stroke-linecap="round" points="42.0,286.0 46.4,286.0 50.8,286.0 55.2,286.0 59.6,286.0 64.0,286.0 68.4,286.0 72.7,286.0 77.1,286.0 81.5,286.0 85.9,286.0 90.3,286.0 94.7,286.0 99.1,286.0 103.5,286.0 107.9,286.0 112.3,286.0 116.7,286.0 121.1,286.0 125.5,286.0 129.8,286.0 134.2,286.0 138.6,286.0 143.0,286.0 147.4,286.0 151.8,286.0 156.2,286.0 160.6,286.0 165.0,286.0 169.4,286.0 173.8,286.0 178.2,286.0 182.5,286.0 186.9,286.0 191.3,286.0 195.7,286.0 200.1,286.0 204.5,286.0 208.9,286.0 213.3,286.0 217.7,286.0 222.1,286.0 226.5,286.0 230.9,286.0 235.3,286.0 239.6,286.0 244.0,286.0 248.4,286.0 252.8,286.0 257.2,286.0 261.6,286.0 266.0,286.0 270.4,286.0 274.8,286.0 279.2,286.0 283.6,286.0 288.0,286.0 292.4,286.0 296.7,286.0 301.1,286.0 305.5,286.0 309.9,286.0 314.3,286.0 318.7,286.0 323.1,286.0 327.5,286.0 331.9,286.0 336.3,286.0 340.7,286.0 345.1,286.0 349.5,280.0 353.8,286.0 358.2,286.0 362.6,286.0 367.0,286.0 371.4,286.0 375.8,286.0 380.2,286.0 384.6,286.0 389.0,286.0 393.4,286.0 397.8,286.0 402.2,286.0 406.5,286.0 410.9,286.0 415.3,286.0 419.7,286.0 424.1,286.0 428.5,286.0 432.9,286.0 437.3,286.0 441.7,286.0 446.1,286.0 450.5,286.0 454.9,286.0 459.3,286.0 463.6,286.0 468.0,286.0 472.4,286.0 476.8,286.0 481.2,286.0 485.6,286.0 490.0,286.0 494.4,286.0 498.8,286.0 503.2,286.0 507.6,286.0 512.0,286.0 516.4,286.0 520.7,286.0 525.1,286.0 529.5,286.0 533.9,286.0 538.3,286.0 542.7,286.0 547.1,286.0 551.5,286.0 555.9,286.0 560.3,286.0 564.7,286.0 569.1,286.0 573.5,286.0 577.8,286.0 582.2,286.0 586.6,286.0 591.0,286.0 595.4,286.0 599.8,286.0 604.2,286.0 608.6,286.0 613.0,286.0 617.4,286.0 621.8,286.0 626.2,286.0 630.5,286.0 634.9,286.0 639.3,286.0 643.7,286.0 648.1,286.0 652.5,286.0 656.9,286.0 661.3,286.0 665.7,286.0 670.1,286.0 674.5,286.0 678.9,286.0 683.3,286.0 687.6,286.0 692.0,286.0 696.4,286.0 700.8,286.0 705.2,286.0 709.6,286.0 714.0,286.0 718.4,286.0 722.8,286.0 727.2,286.0 731.6,280.0 736.0,286.0 740.4,286.0 744.7,286.0 749.1,286.0 753.5,286.0 757.9,286.0 762.3,286.0 766.7,286.0 771.1,286.0 775.5,286.0 779.9,286.0 784.3,286.0 788.7,286.0 793.1,286.0 797.5,286.0 801.8,286.0 806.2,286.0 810.6,286.0 815.0,286.0 819.4,286.0 823.8,286.0 828.2,286.0 832.6,286.0 837.0,286.0 841.4,286.0 845.8,286.0 850.2,286.0 854.5,286.0 858.9,286.0 863.3,286.0 867.7,286.0 872.1,286.0 876.5,286.0 880.9,286.0 885.3,286.0 889.7,286.0 894.1,286.0 898.5,286.0 902.9,286.0 907.3,286.0 911.6,286.0 916.0,286.0 920.4,286.0 924.8,286.0 929.2,286.0 933.6,286.0 938.0,286.0"/><text x="42" y="308" font-size="11" fill="#5a688a">19/06 12:43</text><text x="938" y="308" text-anchor="end" font-size="11" fill="#5a688a">01/07 07:30</text></svg>