<svg xmlns="http://www.w3.org/2000/svg" viewBox="0 0 960 320" width="960" height="320" font-family="Segoe UI, system-ui, -apple-system, Roboto, Helvetica, Arial, sans-serif" role="img" aria-label="Availability history per region"><rect x="0.5" y="0.5" width="959" height="319" rx="14" fill="#ffffff" stroke="#dce3f1"/><text x="42" y="26" font-size="14" font-weight="600" fill="#14203a">History · 336 points</text><circle cx="47" cy="40" r="5" fill="#22c55e"/><text x="57" y="44" font-size="12" fill="#5a688a">Available</text><circle cx="139.8" cy="40" r="5" fill="#f59e0b"/><text x="149.8" y="44" font-size="12" fill="#5a688a">Saturated</text><circle cx="232.60000000000002" cy="40" r="5" fill="#ef4444"/><text x="242.60000000000002" y="44" font-size="12" fill="#5a688a">Error</text><circle cx="296.6" cy="40" r="5" fill="#a855f7"/><text x="306.6" y="44" font-size="12" fill="#5a688a">Timeout</text><line x1="42" y1="286.0" x2="938" y2="286.0" stroke="#eef2f7" stroke-width="1"/><text x="35" y="289.0" text-anchor="end" font-size="11" fill="#5a688a">0</text><line x1="42" y1="227.5" x2="938" y2="227.5" stroke="#eef2f7" stroke-width="1"/><text x="35" y="230.5" text-anchor="end" font-size="11" fill="#5a688a">10</text><line x1="42" y1="169.0" x2="938" y2="169.0" stroke="#eef2f7" stroke-width="1"/><text x="35" y="172.0" text-anchor="end" font-size="11" fill="#5a688a">19</text><line x1="42" y1="110.5" x2="938" y2="110.5" stroke="#eef2f7" stroke-width="1"/><text x="35" y="113.5" text-anchor="end" font-size="11" fill="#5a688a">28</text><line x1="42" y1="52.0" x2="938" y2="52.0" stroke="#eef2f7" stroke-width="1"/><text x="35" y="55.0" text-anchor="end" font-size="11" fill="#5a688a">38</text><polyline fill="none" stroke="#22c55e" stroke-width="2.5" stroke-linejoin="round" stroke-linecap="round" points="42.0,64.3 44.7,64.3 47.3,64.3 50.0,64.3 52.7,64.3 55.4,64.3 58.0,64.3 60.7,64.3 63.4,64.3 66.1,64.3 68.7,64.3 71.4,64.3 74.1,64.3 76.8,64.3 79.4,64.3 82.1,64.3 84.8,64.3 87.5,64.3 90.1,64.3 92.8,64.3 95.5,64.3 98.2,64.3 100.8,64.3 103.5,64.3 106.2,64.3 108.9,64.3 111.5,64.3 114.2,64.3 116.9,64.3 119.6,64.3 122.2,64.3 124.9,64.3 127.6,64.3 130.3,64.3 132.9,64.3 135.6,64.3 138.3,64.3 141.0,64.3 143.6,64.3 146.3,64.3 149.0,64.3 151.7,64.3 154.3,64.3 157.0,64.3 159.7,64.3 162.4,64.3 165.0,64.3 167.7,64.3 170.4,64.3 173.1,64.3 175.7,64.3 178.4,64.3 181.1,64.3 183.8,64.3 186.4,70.5 189.1,64.3 191.8,64.3 194.5,64.3 197.1,64.3 199.8,64.3 202.5,70.5 205.2,70.5 207.8,82.8 210.5,82.8 213.2,82.8 215.9,88.9 218.5,88.9 221.2,88.9 223.9,88.9 226.5,82.8 229.2,82.8 231.9,76.6 234.6,76.6 237.2,76.6 239.9,82.8 242.6,82.8 245.3,88.9 247.9,76.6 250.6,76.6 253.3,76.6 256.0,76.6 258.6,82.8 261.3,82.8 264.0,88.9 266.7,88.9 269.3,82.8 272.0,82.8 274.7,82.8 277.4,88.9 280.0,88.9 282.7,101.3 285.4,88.9 288.1,88.9 290.7,88.9 293.4,88.9 296.1,82.8 298.8,82.8 301.4,76.6 304.1,70.5 306.8,70.5 309.5,70.5 312.1,70.5 314.8,70.5 317.5,70.5 320.2,64.3 322.8,64.3 325.5,64.3 328.2,70.5 330.9,82.8 333.5,76.6 336.2,64.3 338.9,64.3 341.6,64.3 344.2,70.5 346.9,70.5 349.6,70.5 352.3,76.6 354.9,64.3 357.6,70.5 360.3,58.2 363.0,64.3 365.6,52.0 368.3,52.0 371.0,52.0 373.7,52.0 376.3,52.0 379.0,58.2 381.7,52.0 384.4,58.2 387.0,52.0 389.7,52.0 392.4,52.0 395.1,52.0 397.7,58.2 400.4,58.2 403.1,58.2 405.7,70.5 408.4,64.3 411.1,76.6 413.8,64.3 416.4,70.5 419.1,52.0 421.8,58.2 424.5,52.0 427.1,58.2 429.8,52.0 432.5,52.0 435.2,52.0 437.8,58.2 440.5,64.3 443.2,58.2 445.9,58.2 448.5,58.2 451.2,64.3 453.9,64.3 456.6,58.2 459.2,64.3 461.9,64.3 464.6,64.3 467.3,52.0 469.9,52.0 472.6,52.0 475.3,52.0 478.0,52.0 480.6,58.2 483.3,52.0 486.0,52.0 488.7,52.0 491.3,52.0 494.0,52.0 496.7,52.0 499.4,52.0 502.0,52.0 504.7,58.2 507.4,52.0 510.1,52.0 512.7,52.0 515.4,52.0 518.1,52.0 520.8,52.0 523.4,52.0 526.1,58.2 528.8,52.0 531.5,52.0 534.1,52.0 536.8,52.0 539.5,52.0 542.2,52.0 544.8,52.0 547.5,52.0 550.2,52.0 552.9,52.0 555.5,52.0 558.2,52.0 560.9,52.0 563.6,52.0 566.2,52.0 568.9,52.0 571.6,52.0 574.3,52.0 576.9,52.0 579.6,58.2 582.3,58.2 584.9,52.0 587.6,52.0 590.3,52.0 593.0,58.2 595.6,58.2 598.3,70.5 601.0,58.2 603.7,58.2 606.3,64.3 609.0,52.0 611.7,52.0 614.4,52.0 617.0,52.0 619.7,52.0 622.4,52.0 625.1,64.3 627.7,58.2 630.4,58.2 633.1,58.2 635.8,58.2 638.4,64.3 641.1,64.3 643.8,70.5 646.5,70.5 649.1,76.6 651.8,82.8 654.5,76.6 657.2,76.6 659.8,82.8 662.5,76.6 665.2,70.5 667.9,70.5 670.5,64.3 673.2,58.2 675.9,58.2 678.6,70.5 681.2,70.5 683.9,64.3 686.6,70.5 689.3,64.3 691.9,64.3 694.6,64.3 697.3,76.6 700.0,64.3 702.6,70.5 705.3,64.3 708.0,70.5 710.7,64.3 713.3,70.5 716.0,64.3 718.7,64.3 721.4,76.6 724.0,70.5 726.7,70.5 729.4,70.5 732.1,70.5 734.7,70.5 737.4,64.3 740.1,70.5 742.8,64.3 745.4,64.3 748.1,64.3 750.8,70.5 753.5,70.5 756.1,70.5 758.8,64.3 761.5,64.3 764.1,64.3 766.8,64.3 769.5,70.5 772.2,70.5 774.8,70.5 777.5,76.6 780.2,70.5 782.9,76.6 785.5,76.6 788.2,76.6 790.9,82.8 793.6,76.6 796.2,76.6 798.9,76.6 801.6,70.5 804.3,70.5 806.9,70.5 809.6,70.5 812.3,70.5 815.0,64.3 817.6,64.3 820.3,64.3 823.0,70.5 825.7,76.6 828.3,64.3 831.0,64.3 833.7,64.3 836.4,70.5 839.0,70.5 841.7,70.5 844.4,76.6 847.1,76.6 849.7,76.6 852.4,82.8 855.1,88.9 857.8,82.8 860.4,82.8 863.1,76.6 865.8,70.5 868.5,76.6 871.1,82.8 873.8,76.6 876.5,70.5 879.2,70.5 881.8,64.3 884.5,64.3 887.2,64.3 889.9,64.3 892.5,64.3 895.2,64.3 897.9,64.3 900.6,64.3 903.2,64.3 905.9,64.3 908.6,64.3 911.3,64.3 913.9,64.3 916.6,58.2 919.3,70.5 922.0,64.3 924.6,58.2 927.3,64.3 930.0,64.3 932.7,64.3 935.3,64.3 938.0,64.3"/><polyline fill="none" stroke="#f59e0b" stroke-width="2.5" stroke-linejoin="round" stroke-linecap="round" points="42.0,286.0 44.7,286.0 47.3,286.0 50.0,286.0 52.7,286.0 55.4,286.0 58.0,286.0 60.7,286.0 63.4,286.0 66.1,286.0 68.7,286.0 71.4,286.0 74.1,286.0 76.8,286.0 79.4,286.0 82.1,286.0 84.8,286.0 87.5,286.0 90.1,286.0 92.8,286.0 95.5,286.0 98.2,286.0 100.8,286.0 103.5,286.0 106.2,286.0 108.9,286.0 111.5,286.0 114.2,286.0 116.9,286.0 119.6,286.0 122.2,286.0 124.9,286.0 127.6,286.0 130.3,286.0 132.9,286.0 135.6,286.0 138.3,286.0 141.0,286.0 143.6,286.0 146.3,286.0 149.0,286.0 151.7,286.0 154.3,286.0 157.0,286.0 159.7,286.0 162.4,286.0 165.0,286.0 167.7,286.0 170.4,286.0 173.1,286.0 175.7,286.0 178.4,286.0 181.1,286.0 183.8,286.0 186.4,286.0 189.1,286.0 191.8,286.0 194.5,286.0 197.1,286.0 199.8,286.0 202.5,286.0 205.2,279.8 207.8,267.5 210.5,267.5 213.2,267.5 215.9,267.5 218.5,261.4 221.2,261.4 223.9,261.4 226.5,267.5 229.2,267.5 231.9,273.7 234.6,273.7 237.2,273.7 239.9,267.5 242.6,267.5 245.3,267.5 247.9,273.7 250.6,273.7 253.3,273.7 256.0,273.7 258.6,267.5 261.3,267.5 264.0,261.4 266.7,261.4 269.3,267.5 272.0,267.5 274.7,267.5 277.4,261.4 280.0,261.4 282.7,273.7 285.4,261.4 288.1,261.4 290.7,261.4 293.4,261.4 296.1,267.5 298.8,267.5 301.4,273.7 304.1,279.8 306.8,279.8 309.5,279.8 312.1,279.8 314.8,279.8 317.5,279.8 320.2,286.0 322.8,286.0 325.5,286.0 328.2,279.8 330.9,273.7 333.5,273.7 336.2,279.8 338.9,273.7 341.6,273.7 344.2,267.5 346.9,267.5 349.6,267.5 352.3,267.5 354.9,279.8 357.6,273.7 360.3,279.8 363.0,279.8 365.6,286.0 368.3,286.0 371.0,286.0 373.7,286.0 376.3,286.0 379.0,286.0 381.7,286.0 384.4,286.0 387.0,286.0 389.7,286.0 392.4,286.0 395.1,286.0 397.7,279.8 400.4,279.8 403.1,279.8 405.7,267.5 408.4,279.8 411.1,267.5 413.8,273.7 416.4,273.7 419.1,286.0 421.8,279.8 424.5,286.0 427.1,279.8 429.8,286.0 432.5,286.0 435.2,286.0 437.8,279.8 440.5,273.7 443.2,279.8 445.9,279.8 448.5,279.8 451.2,273.7 453.9,273.7 456.6,279.8 459.2,279.8 461.9,279.8 464.6,279.8 467.3,286.0 469.9,286.0 472.6,286.0 475.3,286.0 478.0,286.0 480.6,286.0 483.3,286.0 486.0,286.0 488.7,286.0 491.3,286.0 494.0,286.0 496.7,286.0 499.4,286.0 502.0,286.0 504.7,286.0 507.4,286.0 510.1,286.0 512.7,286.0 515.4,286.0 518.1,286.0 520.8,286.0 523.4,286.0 526.1,286.0 528.8,286.0 531.5,286.0 534.1,286.0 536.8,286.0 539.5,286.0 542.2,286.0 544.8,286.0 547.5,286.0 550.2,286.0 552.9,286.0 555.5,286.0 558.2,286.0 560.9,286.0 563.6,286.0 566.2,286.0 568.9,286.0 571.6,286.0 574.3,286.0 576.9,286.0 579.6,286.0 582.3,286.0 584.9,286.0 587.6,286.0 590.3,286.0 593.0,279.8 595.6,279.8 598.3,279.8 601.0,279.8 603.7,279.8 606.3,273.7 609.0,286.0 611.7,286.0 614.4,286.0 617.0,286.0 619.7,286.0 622.4,286.0 625.1,286.0 627.7,279.8 630.4,279.8 633.1,279.8 635.8,279.8 638.4,273.7 641.1,273.7 643.8,267.5 646.5,267.5 649.1,261.4 651.8,261.4 654.5,261.4 657.2,261.4 659.8,261.4 662.5,267.5 665.2,267.5 667.9,267.5 670.5,273.7 673.2,279.8 675.9,279.8 678.6,267.5 681.2,267.5 683.9,273.7 686.6,267.5 689.3,273.7 691.9,273.7 694.6,273.7 697.3,273.7 700.0,273.7 702.6,267.5 705.3,273.7 708.0,267.5 710.7,273.7 713.3,267.5 716.0,273.7 718.7,273.7 721.4,261.4 724.0,267.5 726.7,267.5 729.4,267.5 732.1,267.5 734.7,267.5 737.4,273.7 740.1,267.5 742.8,273.7 745.4,273.7 748.1,273.7 750.8,267.5 753.5,267.5 756.1,267.5 758.8,273.7 761.5,273.7 764.1,273.7 766.8,273.7 769.5,267.5 772.2,267.5 774.8,267.5 777.5,267.5 780.2,267.5 782.9,261.4 785.5,261.4 788.2,261.4 790.9,261.4 793.6,261.4 796.2,261.4 798.9,261.4 801.6,267.5 804.3,267.5 806.9,267.5 809.6,267.5 812.3,267.5 815.0,273.7 817.6,273.7 820.3,273.7 823.0,267.5 825.7,267.5 828.3,273.7 831.0,273.7 833.7,273.7 836.4,267.5 839.0,267.5 841.7,267.5 844.4,261.4 847.1,261.4 849.7,261.4 852.4,255.2 855.1,255.2 857.8,255.2 860.4,261.4 863.1,261.4 865.8,267.5 868.5,261.4 871.1,261.4 873.8,261.4 876.5,267.5 879.2,267.5 881.8,273.7 884.5,273.7 887.2,273.7 889.9,273.7 892.5,273.7 895.2,273.7 897.9,273.7 900.6,273.7 903.2,273.7 905.9,273.7 908.6,273.7 911.3,273.7 913.9,273.7 916.6,279.8 919.3,273.7 922.0,273.7 924.6,279.8 927.3,273.7 930.0,273.7 932.7,273.7 935.3,273.7 938.0,273.7"/><polyline fill="none" stroke="#ef4444" stroke-width="2.5" stroke-linejoin="round" stroke-linecap="round" points="42.0,273.7 44.7,273.7 47.3,273.7 50.0,273.7 52.7,273.7 55.4,273.7 58.0,273.7 60.7,273.7 63.4,273.7 66.1,273.7 68.7,273.7 71.4,273.7 74.1,273.7 76.8,273.7 79.4,273.7 82.1,273.7 84.8,273.7 87.5,273.7 90.1,273.7 92.8,273.7 95.5,273.7 98.2,273.7 100.8,273.7 103.5,273.7 106.2,273.7 108.9,273.7 111.5,273.7 114.2,273.7 116.9,273.7 119.6,273.7 122.2,273.7 124.9,273.7 127.6,273.7 130.3,273.7 132.9,273.7 135.6,273.7 138.3,273.7 141.0,273.7 143.6,273.7 146.3,273.7 149.0,273.7 151.7,273.7 154.3,273.7 157.0,273.7 159.7,273.7 162.4,273.7 165.0,273.7 167.7,273.7 170.4,273.7 173.1,273.7 175.7,273.7 178.4,273.7 181.1,273.7 183.8,273.7 186.4,267.5 189.1,273.7 191.8,273.7 194.5,273.7 197.1,273.7 199.8,273.7 202.5,273.7 205.2,273.7 207.8,273.7 210.5,273.7 213.2,273.7 215.9,267.5 218.5,273.7 221.2,273.7 223.9,273.7 226.5,273.7 229.2,273.7 231.9,273.7 234.6,273.7 237.2,273.7 239.9,273.7 242.6,273.7 245.3,267.5 247.9,273.7 250.6,273.7 253.3,273.7 256.0,273.7 258.6,273.7 261.3,273.7 264.0,273.7 266.7,273.7 269.3,273.7 272.0,273.7 274.7,273.7 277.4,273.7 280.0,273.7 282.7,249.1 285.4,273.7 288.1,273.7 290.7,273.7 293.4,273.7 296.1,273.7 298.8,273.7 301.4,273.7 304.1,273.7 306.8,273.7 309.5,273.7 312.1,273.7 314.8,273.7 317.5,273.7 320.2,273.7 322.8,273.7 325.5,273.7 328.2,273.7 330.9,267.5 333.5,273.7 336.2,279.8 338.9,286.0 341.6,286.0 344.2,286.0 346.9,286.0 349.6,286.0 352.3,279.8 354.9,279.8 357.6,286.0 360.3,286.0 363.0,279.8 365.6,286.0 368.3,286.0 371.0,286.0 373.7,286.0 376.3,286.0 379.0,279.8 381.7,286.0 384.4,286.0 387.0,286.0 389.7,286.0 392.4,286.0 395.1,286.0 397.7,286.0 400.4,286.0 403.1,286.0 405.7,286.0 408.4,279.8 411.1,279.8 413.8,286.0 416.4,279.8 419.1,286.0 421.8,286.0 424.5,286.0 427.1,286.0 429.8,286.0 432.5,286.0 435.2,286.0 437.8,286.0 440.5,286.0 443.2,286.0 445.9,286.0 448.5,286.0 451.2,286.0 453.9,286.0 456.6,286.0 459.2,279.8 461.9,286.0 464.6,279.8 467.3,286.0 469.9,286.0 472.6,286.0 475.3,286.0 478.0,286.0 480.6,286.0 483.3,286.0 486.0,286.0 488.7,286.0 491.3,286.0 494.0,286.0 496.7,286.0 499.4,286.0 502.0,286.0 504.7,279.8 507.4,286.0 510.1,286.0 512.7,286.0 515.4,286.0 518.1,286.0 520.8,286.0 523.4,286.0 526.1,286.0 528.8,286.0 531.5,286.0 534.1,286.0 536.8,286.0 539.5,286.0 542.2,286.0 544.8,286.0 547.5,286.0 550.2,286.0 552.9,286.0 555.5,286.0 558.2,286.0 560.9,286.0 563.6,286.0 566.2,286.0 568.9,286.0 571.6,286.0 574.3,286.0 576.9,286.0 579.6,279.8 582.3,279.8 584.9,286.0 587.6,286.0 590.3,286.0 593.0,286.0 595.6,286.0 598.3,273.7 601.0,286.0 603.7,286.0 606.3,286.0 609.0,286.0 611.7,286.0 614.4,286.0 617.0,286.0 619.7,286.0 622.4,286.0 625.1,286.0 627.7,286.0 630.4,286.0 633.1,286.0 635.8,286.0 638.4,286.0 641.1,286.0 643.8,286.0 646.5,286.0 649.1,286.0 651.8,279.8 654.5,286.0 657.2,286.0 659.8,279.8 662.5,279.8 665.2,286.0 667.9,286.0 670.5,286.0 673.2,286.0 675.9,286.0 678.6,286.0 681.2,286.0 683.9,286.0 686.6,286.0 689.3,286.0 691.9,286.0 694.6,286.0 697.3,273.7 700.0,286.0 702.6,286.0 705.3,286.0 708.0,286.0 710.7,286.0 713.3,286.0 716.0,286.0 718.7,286.0 721.4,286.0 724.0,286.0 726.7,286.0 729.4,286.0 732.1,286.0 734.7,286.0 737.4,286.0 740.1,286.0 742.8,286.0 745.4,286.0 748.1,286.0 750.8,286.0 753.5,286.0 756.1,286.0 758.8,286.0 761.5,286.0 764.1,286.0 766.8,286.0 769.5,286.0 772.2,286.0 774.8,286.0 777.5,279.8 780.2,286.0 782.9,286.0 785.5,286.0 788.2,286.0 790.9,279.8 793.6,286.0 796.2,286.0 798.9,286.0 801.6,286.0 804.3,286.0 806.9,286.0 809.6,286.0 812.3,286.0 815.0,286.0 817.6,286.0 820.3,286.0 823.0,286.0 825.7,279.8 828.3,286.0 831.0,286.0 833.7,286.0 836.4,286.0 839.0,286.0 841.7,286.0 844.4,286.0 847.1,286.0 849.7,286.0 852.4,286.0 855.1,279.8 857.8,286.0 860.4,279.8 863.1,286.0 865.8,286.0 868.5,286.0 871.1,279.8 873.8,286.0 876.5,286.0 879.2,286.0 881.8,286.0 884.5,286.0 887.2,286.0 889.9,286.0 892.5,286.0 895.2,286.0 897.9,286.0 900.6,286.0 903.2,286.0 905.9,286.0 908.6,286.0 911.3,286.0 913.9,286.0 916.6,286.0 919.3,279.8 922.0,286.0 924.6,286.0 927.3,286.0 930.0,286.0 932.7,286.0 935.3,286.0 938.0,286.0"/><polyline fill="none" stroke="#a855f7" stroke-width="2.5" stroke-linejoin="round" stroke-linecap="round" points="42.0,286.0 44.7,286.0 47.3,286.0 50.0,286.0 52.7,286.0 55.4,286.0 58.0,286.0 60.7,286.0 63.4,286.0 66.1,286.0 68.7,286.0 71.4,286.0 74.1,286.0 76.8,286.0 79.4,286.0 82.1,286.0 84.8,286.0 87.5,286.0 90.1,286.0 92.8,286.0 95.5,286.0 98.2,286.0 100.8,286.0 103.5,286.0 106.2,286.0 108.9,286.0 111.5,286.0 114.2,286.0 116.9,286.0 119.6,286.0 122.2,286.0 124.9,286.0 127.6,286.0 130.3,286.0 132.9,286.0 135.6,286.0 138.3,286.0 141.0,286.0 143.6,286.0 146.3,286.0 149.0,286.0 151.7,286.0 154.3,286.0 157.0,286.0 159.7,286.0 162.4,286.0 165.0,286.0 167.7,286.0 170.4,286.0 173.1,286.0 175.7,286.0 178.4,286.0 181.1,286.0 183.8,286.0 186.4,286.0 189.1,286.0 191.8,286.0 194.5,286.0 197.1,286.0 199.8,286.0 202.5,279.8 205.2,286.0 207.8,286.0 210.5,286.0 213.2,286.0 215.9,286.0 218.5,286.0 221.2,286.0 223.9,286.0 226.5,286.0 229.2,286.0 231.9,286.0 234.6,286.0 237.2,286.0 239.9,286.0 242.6,286.0 245.3,286.0 247.9,286.0 250.6,286.0 253.3,286.0 256.0,286.0 258.6,286.0 261.3,286.0 264.0,286.0 266.7,286.0 269.3,286.0 272.0,286.0 274.7,286.0 277.4,286.0 280.0,286.0 282.7,286.0 285.4,286.0 288.1,286.0 290.7,286.0 293.4,286.0 296.1,286.0 298.8,286.0 301.4,286.0 304.1,286.0 306.8,286.0 309.5,286.0 312.1,286.0 314.8,286.0 317.5,286.0 320.2,286.0 322.8,286.0 325.5,286.0 328.2,286.0 330.9,286.0 333.5,286.0 336.2,286.0 338.9,286.0 341.6,286.0 344.2,286.0 346.9,286.0 349.6,286.0 352.3,286.0 354.9,286.0 357.6,279.8 360.3,286.0 363.0,286.0 365.6,286.0 368.3,286.0 371.0,286.0 373.7,286.0 376.3,286.0 379.0,286.0 381.7,286.0 384.4,279.8 387.0,286.0 389.7,286.0 392.4,286.0 395.1,286.0 397.7,286.0 400.4,286.0 403.1,286.0 405.7,286.0 408.4,286.0 411.1,286.0 413.8,286.0 416.4,286.0 419.1,286.0 421.8,286.0 424.5,286.0 427.1,286.0 429.8,286.0 432.5,286.0 435.2,286.0 437.8,286.0 440.5,286.0 443.2,286.0 445.9,286.0 448.5,286.0 451.2,286.0 453.9,286.0 456.6,286.0 459.2,286.0 461.9,279.8 464.6,286.0 467.3,286.0 469.9,286.0 472.6,286.0 475.3,286.0 478.0,286.0 480.6,279.8 483.3,286.0 486.0,286.0 488.7,286.0 491.3,286.0 494.0,286.0 496.7,286.0 499.4,286.0 502.0,286.0 504.7,286.0 507.4,286.0 510.1,286.0 512.7,286.0 515.4,286.0 518.1,286.0 520.8,286.0 523.4,286.0 526.1,279.8 528.8,286.0 531.5,286.0 534.1,286.0 536.8,286.0 539.5,286.0 542.2,286.0 544.8,286.0 547.5,286.0 550.2,286.0 552.9,286.0 555.5,286.0 558.2,286.0 560.9,286.0 563.6,286.0 566.2,286.0 568.9,286.0 571.6,286.0 574.3,286.0 576.9,286.0 579.6,286.0 582.3,286.0 584.9,286.0 587.6,286.0 590.3,286.0 593.0,286.0 595.6,286.0 598.3,286.0 601.0,286.0 603.7,286.0 606.3,286.0 609.0,286.0 611.7,286.0 614.4,286.0 617.0,286.0 619.7,286.0 622.4,286.0 625.1,273.7 627.7,286.0 630.4,286.0 633.1,286.0 635.8,286.0 638.4,286.0 641.1,286.0 643.8,286.0 646.5,286.0 649.1,286.0 651.8,286.0 654.5,286.0 657.2,286.0 659.8,286.0 662.5,286.0 665.2,286.0 667.9,286.0 670.5,286.0 673.2,286.0 675.9,286.0 678.6,286.0 681.2,286.0 683.9,286.0 686.6,286.0 689.3,286.0 691.9,286.0 694.6,286.0 697.3,286.0 700.0,286.0 702.6,286.0 705.3,286.0 708.0,286.0 710.7,286.0 713.3,286.0 716.0,286.0 718.7,286.0 721.4,286.0 724.0,286.0 726.7,286.0 729.4,286.0 732.1,286.0 734.7,286.0 737.4,286.0 740.1,286.0 742.8,286.0 745.4,286.0 748.1,286.0 750.8,286.0 753.5,286.0 756.1,286.0 758.8,286.0 761.5,286.0 764.1,286.0 766.8,286.0 769.5,286.0 772.2,286.0 774.8,286.0 777.5,286.0 780.2,286.0 782.9,286.0 785.5,286.0 788.2,286.0 790.9,286.0 793.6,286.0 796.2,286.0 798.9,286.0 801.6,286.0 804.3,286.0 806.9,286.0 809.6,286.0 812.3,286.0 815.0,286.0 817.6,286.0 820.3,286.0 823.0,286.0 825.7,286.0 828.3,286.0 831.0,286.0 833.7,286.0 836.4,286.0 839.0,286.0 841.7,286.0 844.4,286.0 847.1,286.0 849.7,286.0 852.4,286.0 855.1,286.0 857.8,286.0 860.4,286.0 863.1,286.0 865.8,286.0 868.5,286.0 871.1,286.0 873.8,286.0 876.5,286.0 879.2,286.0 881.8,286.0 884.5,286.0 887.2,286.0 889.9,286.0 892.5,286.0 895.2,286.0 897.9,286.0 900.6,286.0 903.2,286.0 905.9,286.0 908.6,286.0 911.3,286.0 913.9,286.0 916.6,286.0 919.3,286.0 922.0,286.0 924.6,286.0 927.3,286.0 930.0,286.0 932.7,286.0 935.3,286.0 938.0,286.0"/><text x="42" y="308" font-size="11" fill="#5a688a">27/06 12:31</text><text x="938" y="308" text-anchor="end" font-size="11" fill="#5a688a">11/07 22:35</text></svg>