<svg xmlns="http://www.w3.org/2000/svg" viewBox="0 0 960 320" width="960" height="320" font-family="Segoe UI, system-ui, -apple-system, Roboto, Helvetica, Arial, sans-serif" role="img" aria-label="Availability history per region"><rect x="0.5" y="0.5" width="959" height="319" rx="14" fill="#ffffff" stroke="#dce3f1"/><text x="42" y="26" font-size="14" font-weight="600" fill="#14203a">History · 278 points</text><circle cx="47" cy="40" r="5" fill="#22c55e"/><text x="57" y="44" font-size="12" fill="#5a688a">Available</text><circle cx="139.8" cy="40" r="5" fill="#f59e0b"/><text x="149.8" y="44" font-size="12" fill="#5a688a">Saturated</text><circle cx="232.60000000000002" cy="40" r="5" fill="#ef4444"/><text x="242.60000000000002" y="44" font-size="12" fill="#5a688a">Error</text><circle cx="296.6" cy="40" r="5" fill="#a855f7"/><text x="306.6" y="44" font-size="12" fill="#5a688a">Timeout</text><line x1="42" y1="286.0" x2="938" y2="286.0" stroke="#eef2f7" stroke-width="1"/><text x="35" y="289.0" text-anchor="end" font-size="11" fill="#5a688a">0</text><line x1="42" y1="227.5" x2="938" y2="227.5" stroke="#eef2f7" stroke-width="1"/><text x="35" y="230.5" text-anchor="end" font-size="11" fill="#5a688a">10</text><line x1="42" y1="169.0" x2="938" y2="169.0" stroke="#eef2f7" stroke-width="1"/><text x="35" y="172.0" text-anchor="end" font-size="11" fill="#5a688a">20</text><line x1="42" y1="110.5" x2="938" y2="110.5" stroke="#eef2f7" stroke-width="1"/><text x="35" y="113.5" text-anchor="end" font-size="11" fill="#5a688a">29</text><line x1="42" y1="52.0" x2="938" y2="52.0" stroke="#eef2f7" stroke-width="1"/><text x="35" y="55.0" text-anchor="end" font-size="11" fill="#5a688a">39</text><polyline fill="none" stroke="#22c55e" stroke-width="2.5" stroke-linejoin="round" stroke-linecap="round" points="42.0,70.0 45.2,70.0 48.5,88.0 51.7,88.0 54.9,76.0 58.2,76.0 61.4,76.0 64.6,70.0 67.9,76.0 71.1,70.0 74.3,64.0 77.6,58.0 80.8,58.0 84.1,58.0 87.3,58.0 90.5,58.0 93.8,58.0 97.0,58.0 100.2,58.0 103.5,58.0 106.7,58.0 109.9,58.0 113.2,58.0 116.4,58.0 119.6,58.0 122.9,58.0 126.1,58.0 129.3,58.0 132.6,58.0 135.8,58.0 139.0,58.0 142.3,70.0 145.5,76.0 148.7,94.0 152.0,64.0 155.2,64.0 158.4,58.0 161.7,58.0 164.9,58.0 168.2,70.0 171.4,76.0 174.6,76.0 177.9,82.0 181.1,82.0 184.3,82.0 187.6,82.0 190.8,76.0 194.0,64.0 197.3,70.0 200.5,70.0 203.7,82.0 207.0,76.0 210.2,76.0 213.4,82.0 216.7,76.0 219.9,76.0 223.1,76.0 226.4,64.0 229.6,64.0 232.8,76.0 236.1,76.0 239.3,76.0 242.5,88.0 245.8,70.0 249.0,64.0 252.3,58.0 255.5,58.0 258.7,70.0 262.0,70.0 265.2,70.0 268.4,76.0 271.7,70.0 274.9,70.0 278.1,70.0 281.4,70.0 284.6,76.0 287.8,82.0 291.1,76.0 294.3,70.0 297.5,70.0 300.8,70.0 304.0,70.0 307.2,76.0 310.5,70.0 313.7,70.0 316.9,70.0 320.2,70.0 323.4,70.0 326.6,70.0 329.9,70.0 333.1,70.0 336.4,70.0 339.6,70.0 342.8,70.0 346.1,70.0 349.3,70.0 352.5,70.0 355.8,70.0 359.0,70.0 362.2,70.0 365.5,70.0 368.7,70.0 371.9,70.0 375.2,70.0 378.4,70.0 381.6,70.0 384.9,70.0 388.1,70.0 391.3,70.0 394.6,70.0 397.8,70.0 401.0,70.0 404.3,70.0 407.5,70.0 410.8,70.0 414.0,70.0 417.2,70.0 420.5,70.0 423.7,70.0 426.9,70.0 430.2,70.0 433.4,70.0 436.6,70.0 439.9,70.0 443.1,70.0 446.3,70.0 449.6,70.0 452.8,70.0 456.0,70.0 459.3,70.0 462.5,70.0 465.7,70.0 469.0,70.0 472.2,70.0 475.4,70.0 478.7,70.0 481.9,70.0 485.1,70.0 488.4,70.0 491.6,70.0 494.9,70.0 498.1,70.0 501.3,70.0 504.6,70.0 507.8,70.0 511.0,70.0 514.3,70.0 517.5,70.0 520.7,70.0 524.0,70.0 527.2,70.0 530.4,76.0 533.7,70.0 536.9,70.0 540.1,70.0 543.4,70.0 546.6,70.0 549.8,76.0 553.1,76.0 556.3,88.0 559.5,88.0 562.8,88.0 566.0,94.0 569.2,94.0 572.5,94.0 575.7,94.0 579.0,88.0 582.2,88.0 585.4,82.0 588.7,82.0 591.9,82.0 595.1,88.0 598.4,88.0 601.6,94.0 604.8,82.0 608.1,82.0 611.3,82.0 614.5,82.0 617.8,88.0 621.0,88.0 624.2,94.0 627.5,94.0 630.7,88.0 633.9,88.0 637.2,88.0 640.4,94.0 643.6,94.0 646.9,106.0 650.1,94.0 653.4,94.0 656.6,94.0 659.8,94.0 663.1,88.0 666.3,88.0 669.5,82.0 672.8,76.0 676.0,76.0 679.2,76.0 682.5,76.0 685.7,76.0 688.9,76.0 692.2,70.0 695.4,70.0 698.6,70.0 701.9,76.0 705.1,88.0 708.3,82.0 711.6,70.0 714.8,70.0 718.0,70.0 721.3,76.0 724.5,76.0 727.7,76.0 731.0,82.0 734.2,70.0 737.5,76.0 740.7,64.0 743.9,70.0 747.2,58.0 750.4,58.0 753.6,58.0 756.9,58.0 760.1,58.0 763.3,64.0 766.6,58.0 769.8,64.0 773.0,58.0 776.3,58.0 779.5,58.0 782.7,58.0 786.0,64.0 789.2,64.0 792.4,64.0 795.7,76.0 798.9,70.0 802.1,82.0 805.4,70.0 808.6,76.0 811.8,58.0 815.1,64.0 818.3,58.0 821.6,64.0 824.8,58.0 828.0,58.0 831.3,58.0 834.5,64.0 837.7,70.0 841.0,64.0 844.2,64.0 847.4,64.0 850.7,70.0 853.9,70.0 857.1,64.0 860.4,70.0 863.6,70.0 866.8,70.0 870.1,58.0 873.3,58.0 876.5,58.0 879.8,58.0 883.0,58.0 886.2,64.0 889.5,58.0 892.7,58.0 895.9,58.0 899.2,58.0 902.4,58.0 905.7,58.0 908.9,58.0 912.1,58.0 915.4,64.0 918.6,58.0 921.8,58.0 925.1,58.0 928.3,58.0 931.5,58.0 934.8,58.0 938.0,58.0"/><polyline fill="none" stroke="#f59e0b" stroke-width="2.5" stroke-linejoin="round" stroke-linecap="round" points="42.0,274.0 45.2,274.0 48.5,274.0 51.7,280.0 54.9,268.0 58.2,268.0 61.4,268.0 64.6,274.0 67.9,274.0 71.1,274.0 74.3,280.0 77.6,286.0 80.8,286.0 84.1,286.0 87.3,286.0 90.5,286.0 93.8,286.0 97.0,286.0 100.2,286.0 103.5,286.0 106.7,286.0 109.9,286.0 113.2,286.0 116.4,286.0 119.6,286.0 122.9,286.0 126.1,286.0 129.3,286.0 132.6,286.0 135.8,286.0 139.0,286.0 142.3,274.0 145.5,280.0 148.7,280.0 152.0,280.0 155.2,280.0 158.4,286.0 161.7,286.0 164.9,286.0 168.2,274.0 171.4,268.0 174.6,268.0 177.9,262.0 181.1,262.0 184.3,262.0 187.6,262.0 190.8,268.0 194.0,280.0 197.3,280.0 200.5,274.0 203.7,262.0 207.0,268.0 210.2,268.0 213.4,262.0 216.7,268.0 219.9,268.0 223.1,268.0 226.4,280.0 229.6,280.0 232.8,268.0 236.1,268.0 239.3,268.0 242.5,262.0 245.8,274.0 249.0,280.0 252.3,286.0 255.5,286.0 258.7,274.0 262.0,274.0 265.2,274.0 268.4,274.0 271.7,274.0 274.9,274.0 278.1,274.0 281.4,274.0 284.6,280.0 287.8,274.0 291.1,280.0 294.3,286.0 297.5,286.0 300.8,286.0 304.0,286.0 307.2,280.0 310.5,286.0 313.7,286.0 316.9,286.0 320.2,286.0 323.4,286.0 326.6,286.0 329.9,286.0 333.1,286.0 336.4,286.0 339.6,286.0 342.8,286.0 346.1,286.0 349.3,286.0 352.5,286.0 355.8,286.0 359.0,286.0 362.2,286.0 365.5,286.0 368.7,286.0 371.9,286.0 375.2,286.0 378.4,286.0 381.6,286.0 384.9,286.0 388.1,286.0 391.3,286.0 394.6,286.0 397.8,286.0 401.0,286.0 404.3,286.0 407.5,286.0 410.8,286.0 414.0,286.0 417.2,286.0 420.5,286.0 423.7,286.0 426.9,286.0 430.2,286.0 433.4,286.0 436.6,286.0 439.9,286.0 443.1,286.0 446.3,286.0 449.6,286.0 452.8,286.0 456.0,286.0 459.3,286.0 462.5,286.0 465.7,286.0 469.0,286.0 472.2,286.0 475.4,286.0 478.7,286.0 481.9,286.0 485.1,286.0 488.4,286.0 491.6,286.0 494.9,286.0 498.1,286.0 501.3,286.0 504.6,286.0 507.8,286.0 511.0,286.0 514.3,286.0 517.5,286.0 520.7,286.0 524.0,286.0 527.2,286.0 530.4,286.0 533.7,286.0 536.9,286.0 540.1,286.0 543.4,286.0 546.6,286.0 549.8,286.0 553.1,280.0 556.3,268.0 559.5,268.0 562.8,268.0 566.0,268.0 569.2,262.0 572.5,262.0 575.7,262.0 579.0,268.0 582.2,268.0 585.4,274.0 588.7,274.0 591.9,274.0 595.1,268.0 598.4,268.0 601.6,268.0 604.8,274.0 608.1,274.0 611.3,274.0 614.5,274.0 617.8,268.0 621.0,268.0 624.2,262.0 627.5,262.0 630.7,268.0 633.9,268.0 637.2,268.0 640.4,262.0 643.6,262.0 646.9,274.0 650.1,262.0 653.4,262.0 656.6,262.0 659.8,262.0 663.1,268.0 666.3,268.0 669.5,274.0 672.8,280.0 676.0,280.0 679.2,280.0 682.5,280.0 685.7,280.0 688.9,280.0 692.2,286.0 695.4,286.0 698.6,286.0 701.9,280.0 705.1,274.0 708.3,274.0 711.6,280.0 714.8,274.0 718.0,274.0 721.3,268.0 724.5,268.0 727.7,268.0 731.0,268.0 734.2,280.0 737.5,274.0 740.7,280.0 743.9,280.0 747.2,286.0 750.4,286.0 753.6,286.0 756.9,286.0 760.1,286.0 763.3,286.0 766.6,286.0 769.8,286.0 773.0,286.0 776.3,286.0 779.5,286.0 782.7,286.0 786.0,280.0 789.2,280.0 792.4,280.0 795.7,268.0 798.9,280.0 802.1,268.0 805.4,274.0 808.6,274.0 811.8,286.0 815.1,280.0 818.3,286.0 821.6,280.0 824.8,286.0 828.0,286.0 831.3,286.0 834.5,280.0 837.7,274.0 841.0,280.0 844.2,280.0 847.4,280.0 850.7,274.0 853.9,274.0 857.1,280.0 860.4,280.0 863.6,280.0 866.8,280.0 870.1,286.0 873.3,286.0 876.5,286.0 879.8,286.0 883.0,286.0 886.2,286.0 889.5,286.0 892.7,286.0 895.9,286.0 899.2,286.0 902.4,286.0 905.7,286.0 908.9,286.0 912.1,286.0 915.4,286.0 918.6,286.0 921.8,286.0 925.1,286.0 928.3,286.0 931.5,286.0 934.8,286.0 938.0,286.0"/><polyline fill="none" stroke="#ef4444" stroke-width="2.5" stroke-linejoin="round" stroke-linecap="round" points="42.0,280.0 45.2,280.0 48.5,268.0 51.7,262.0 54.9,286.0 58.2,286.0 61.4,286.0 64.6,286.0 67.9,280.0 71.1,286.0 74.3,286.0 77.6,286.0 80.8,286.0 84.1,286.0 87.3,286.0 90.5,286.0 93.8,286.0 97.0,286.0 100.2,286.0 103.5,286.0 106.7,286.0 109.9,286.0 113.2,286.0 116.4,286.0 119.6,286.0 122.9,286.0 126.1,286.0 129.3,286.0 132.6,286.0 135.8,286.0 139.0,286.0 142.3,286.0 145.5,274.0 148.7,256.0 152.0,286.0 155.2,286.0 158.4,286.0 161.7,286.0 164.9,286.0 168.2,286.0 171.4,286.0 174.6,286.0 177.9,286.0 181.1,286.0 184.3,286.0 187.6,286.0 190.8,286.0 194.0,286.0 197.3,280.0 200.5,286.0 203.7,286.0 207.0,286.0 210.2,286.0 213.4,286.0 216.7,286.0 219.9,286.0 223.1,286.0 226.4,286.0 229.6,286.0 232.8,286.0 236.1,286.0 239.3,286.0 242.5,280.0 245.8,286.0 249.0,286.0 252.3,286.0 255.5,286.0 258.7,286.0 262.0,286.0 265.2,286.0 268.4,286.0 271.7,286.0 274.9,286.0 278.1,286.0 281.4,286.0 284.6,274.0 287.8,274.0 291.1,274.0 294.3,274.0 297.5,274.0 300.8,274.0 304.0,274.0 307.2,274.0 310.5,274.0 313.7,274.0 316.9,274.0 320.2,274.0 323.4,274.0 326.6,274.0 329.9,274.0 333.1,274.0 336.4,274.0 339.6,274.0 342.8,274.0 346.1,274.0 349.3,274.0 352.5,274.0 355.8,274.0 359.0,274.0 362.2,274.0 365.5,274.0 368.7,274.0 371.9,274.0 375.2,274.0 378.4,274.0 381.6,274.0 384.9,274.0 388.1,274.0 391.3,274.0 394.6,274.0 397.8,274.0 401.0,274.0 404.3,274.0 407.5,274.0 410.8,274.0 414.0,274.0 417.2,274.0 420.5,274.0 423.7,274.0 426.9,274.0 430.2,274.0 433.4,274.0 436.6,274.0 439.9,274.0 443.1,274.0 446.3,274.0 449.6,274.0 452.8,274.0 456.0,274.0 459.3,274.0 462.5,274.0 465.7,274.0 469.0,274.0 472.2,274.0 475.4,274.0 478.7,274.0 481.9,274.0 485.1,274.0 488.4,274.0 491.6,274.0 494.9,274.0 498.1,274.0 501.3,274.0 504.6,274.0 507.8,274.0 511.0,274.0 514.3,274.0 517.5,274.0 520.7,274.0 524.0,274.0 527.2,274.0 530.4,268.0 533.7,274.0 536.9,274.0 540.1,274.0 543.4,274.0 546.6,274.0 549.8,274.0 553.1,274.0 556.3,274.0 559.5,274.0 562.8,274.0 566.0,268.0 569.2,274.0 572.5,274.0 575.7,274.0 579.0,274.0 582.2,274.0 585.4,274.0 588.7,274.0 591.9,274.0 595.1,274.0 598.4,274.0 601.6,268.0 604.8,274.0 608.1,274.0 611.3,274.0 614.5,274.0 617.8,274.0 621.0,274.0 624.2,274.0 627.5,274.0 630.7,274.0 633.9,274.0 637.2,274.0 640.4,274.0 643.6,274.0 646.9,250.0 650.1,274.0 653.4,274.0 656.6,274.0 659.8,274.0 663.1,274.0 666.3,274.0 669.5,274.0 672.8,274.0 676.0,274.0 679.2,274.0 682.5,274.0 685.7,274.0 688.9,274.0 692.2,274.0 695.4,274.0 698.6,274.0 701.9,274.0 705.1,268.0 708.3,274.0 711.6,280.0 714.8,286.0 718.0,286.0 721.3,286.0 724.5,286.0 727.7,286.0 731.0,280.0 734.2,280.0 737.5,286.0 740.7,286.0 743.9,280.0 747.2,286.0 750.4,286.0 753.6,286.0 756.9,286.0 760.1,286.0 763.3,280.0 766.6,286.0 769.8,286.0 773.0,286.0 776.3,286.0 779.5,286.0 782.7,286.0 786.0,286.0 789.2,286.0 792.4,286.0 795.7,286.0 798.9,280.0 802.1,280.0 805.4,286.0 808.6,280.0 811.8,286.0 815.1,286.0 818.3,286.0 821.6,286.0 824.8,286.0 828.0,286.0 831.3,286.0 834.5,286.0 837.7,286.0 841.0,286.0 844.2,286.0 847.4,286.0 850.7,286.0 853.9,286.0 857.1,286.0 860.4,280.0 863.6,286.0 866.8,280.0 870.1,286.0 873.3,286.0 876.5,286.0 879.8,286.0 883.0,286.0 886.2,286.0 889.5,286.0 892.7,286.0 895.9,286.0 899.2,286.0 902.4,286.0 905.7,286.0 908.9,286.0 912.1,286.0 915.4,280.0 918.6,286.0 921.8,286.0 925.1,286.0 928.3,286.0 931.5,286.0 934.8,286.0 938.0,286.0"/><polyline fill="none" stroke="#a855f7" stroke-width="2.5" stroke-linejoin="round" stroke-linecap="round" points="42.0,286.0 45.2,286.0 48.5,286.0 51.7,286.0 54.9,286.0 58.2,286.0 61.4,286.0 64.6,286.0 67.9,286.0 71.1,286.0 74.3,286.0 77.6,286.0 80.8,286.0 84.1,286.0 87.3,286.0 90.5,286.0 93.8,286.0 97.0,286.0 100.2,286.0 103.5,286.0 106.7,286.0 109.9,286.0 113.2,286.0 116.4,286.0 119.6,286.0 122.9,286.0 126.1,286.0 129.3,286.0 132.6,286.0 135.8,286.0 139.0,286.0 142.3,286.0 145.5,286.0 148.7,286.0 152.0,286.0 155.2,286.0 158.4,286.0 161.7,286.0 164.9,286.0 168.2,286.0 171.4,286.0 174.6,286.0 177.9,286.0 181.1,286.0 184.3,286.0 187.6,286.0 190.8,286.0 194.0,286.0 197.3,286.0 200.5,286.0 203.7,286.0 207.0,286.0 210.2,286.0 213.4,286.0 216.7,286.0 219.9,286.0 223.1,286.0 226.4,286.0 229.6,286.0 232.8,286.0 236.1,286.0 239.3,286.0 242.5,286.0 245.8,286.0 249.0,286.0 252.3,286.0 255.5,286.0 258.7,286.0 262.0,286.0 265.2,286.0 268.4,280.0 271.7,286.0 274.9,286.0 278.1,286.0 281.4,286.0 284.6,286.0 287.8,286.0 291.1,286.0 294.3,286.0 297.5,286.0 300.8,286.0 304.0,286.0 307.2,286.0 310.5,286.0 313.7,286.0 316.9,286.0 320.2,286.0 323.4,286.0 326.6,286.0 329.9,286.0 333.1,286.0 336.4,286.0 339.6,286.0 342.8,286.0 346.1,286.0 349.3,286.0 352.5,286.0 355.8,286.0 359.0,286.0 362.2,286.0 365.5,286.0 368.7,286.0 371.9,286.0 375.2,286.0 378.4,286.0 381.6,286.0 384.9,286.0 388.1,286.0 391.3,286.0 394.6,286.0 397.8,286.0 401.0,286.0 404.3,286.0 407.5,286.0 410.8,286.0 414.0,286.0 417.2,286.0 420.5,286.0 423.7,286.0 426.9,286.0 430.2,286.0 433.4,286.0 436.6,286.0 439.9,286.0 443.1,286.0 446.3,286.0 449.6,286.0 452.8,286.0 456.0,286.0 459.3,286.0 462.5,286.0 465.7,286.0 469.0,286.0 472.2,286.0 475.4,286.0 478.7,286.0 481.9,286.0 485.1,286.0 488.4,286.0 491.6,286.0 494.9,286.0 498.1,286.0 501.3,286.0 504.6,286.0 507.8,286.0 511.0,286.0 514.3,286.0 517.5,286.0 520.7,286.0 524.0,286.0 527.2,286.0 530.4,286.0 533.7,286.0 536.9,286.0 540.1,286.0 543.4,286.0 546.6,286.0 549.8,280.0 553.1,286.0 556.3,286.0 559.5,286.0 562.8,286.0 566.0,286.0 569.2,286.0 572.5,286.0 575.7,286.0 579.0,286.0 582.2,286.0 585.4,286.0 588.7,286.0 591.9,286.0 595.1,286.0 598.4,286.0 601.6,286.0 604.8,286.0 608.1,286.0 611.3,286.0 614.5,286.0 617.8,286.0 621.0,286.0 624.2,286.0 627.5,286.0 630.7,286.0 633.9,286.0 637.2,286.0 640.4,286.0 643.6,286.0 646.9,286.0 650.1,286.0 653.4,286.0 656.6,286.0 659.8,286.0 663.1,286.0 666.3,286.0 669.5,286.0 672.8,286.0 676.0,286.0 679.2,286.0 682.5,286.0 685.7,286.0 688.9,286.0 692.2,286.0 695.4,286.0 698.6,286.0 701.9,286.0 705.1,286.0 708.3,286.0 711.6,286.0 714.8,286.0 718.0,286.0 721.3,286.0 724.5,286.0 727.7,286.0 731.0,286.0 734.2,286.0 737.5,280.0 740.7,286.0 743.9,286.0 747.2,286.0 750.4,286.0 753.6,286.0 756.9,286.0 760.1,286.0 763.3,286.0 766.6,286.0 769.8,280.0 773.0,286.0 776.3,286.0 779.5,286.0 782.7,286.0 786.0,286.0 789.2,286.0 792.4,286.0 795.7,286.0 798.9,286.0 802.1,286.0 805.4,286.0 808.6,286.0 811.8,286.0 815.1,286.0 818.3,286.0 821.6,286.0 824.8,286.0 828.0,286.0 831.3,286.0 834.5,286.0 837.7,286.0 841.0,286.0 844.2,286.0 847.4,286.0 850.7,286.0 853.9,286.0 857.1,286.0 860.4,286.0 863.6,280.0 866.8,286.0 870.1,286.0 873.3,286.0 876.5,286.0 879.8,286.0 883.0,286.0 886.2,280.0 889.5,286.0 892.7,286.0 895.9,286.0 899.2,286.0 902.4,286.0 905.7,286.0 908.9,286.0 912.1,286.0 915.4,286.0 918.6,286.0 921.8,286.0 925.1,286.0 928.3,286.0 931.5,286.0 934.8,286.0 938.0,286.0"/><text x="42" y="308" font-size="11" fill="#5a688a">19/06 12:43</text><text x="938" y="308" text-anchor="end" font-size="11" fill="#5a688a">04/07 23:30</text></svg>