<svg xmlns="http://www.w3.org/2000/svg" viewBox="0 0 960 320" width="960" height="320" font-family="Segoe UI, system-ui, -apple-system, Roboto, Helvetica, Arial, sans-serif" role="img" aria-label="Availability history per region"><rect x="0.5" y="0.5" width="959" height="319" rx="14" fill="#0d1117" stroke="#2c3a5e"/><text x="42" y="26" font-size="14" font-weight="600" fill="#e6ecff">History · 121 points</text><circle cx="47" cy="40" r="5" fill="#22c55e"/><text x="57" y="44" font-size="12" fill="#9fb0d4">Available</text><circle cx="139.8" cy="40" r="5" fill="#f59e0b"/><text x="149.8" y="44" font-size="12" fill="#9fb0d4">Saturated</text><circle cx="232.60000000000002" cy="40" r="5" fill="#ef4444"/><text x="242.60000000000002" y="44" font-size="12" fill="#9fb0d4">Error</text><circle cx="296.6" cy="40" r="5" fill="#a855f7"/><text x="306.6" y="44" font-size="12" fill="#9fb0d4">Timeout</text><line x1="42" y1="286.0" x2="938" y2="286.0" stroke="#21304f" stroke-width="1"/><text x="35" y="289.0" text-anchor="end" font-size="11" fill="#9fb0d4">0</text><line x1="42" y1="227.5" x2="938" y2="227.5" stroke="#21304f" stroke-width="1"/><text x="35" y="230.5" text-anchor="end" font-size="11" fill="#9fb0d4">10</text><line x1="42" y1="169.0" x2="938" y2="169.0" stroke="#21304f" stroke-width="1"/><text x="35" y="172.0" text-anchor="end" font-size="11" fill="#9fb0d4">19</text><line x1="42" y1="110.5" x2="938" y2="110.5" stroke="#21304f" stroke-width="1"/><text x="35" y="113.5" text-anchor="end" font-size="11" fill="#9fb0d4">28</text><line x1="42" y1="52.0" x2="938" y2="52.0" stroke="#21304f" stroke-width="1"/><text x="35" y="55.0" text-anchor="end" font-size="11" fill="#9fb0d4">38</text><polyline fill="none" stroke="#22c55e" stroke-width="2.5" stroke-linejoin="round" stroke-linecap="round" points="42.0,64.3 49.5,224.4 56.9,82.8 64.4,88.9 71.9,82.8 79.3,76.6 86.8,76.6 94.3,76.6 101.7,76.6 109.2,76.6 116.7,76.6 124.1,76.6 131.6,76.6 139.1,76.6 146.5,76.6 154.0,70.5 161.5,70.5 168.9,82.8 176.4,82.8 183.9,82.8 191.3,88.9 198.8,88.9 206.3,88.9 213.7,88.9 221.2,88.9 228.7,88.9 236.1,88.9 243.6,88.9 251.1,88.9 258.5,82.8 266.0,82.8 273.5,82.8 280.9,82.8 288.4,76.6 295.9,76.6 303.3,76.6 310.8,76.6 318.3,76.6 325.7,82.8 333.2,82.8 340.7,82.8 348.1,82.8 355.6,76.6 363.1,76.6 370.5,76.6 378.0,76.6 385.5,76.6 392.9,76.6 400.4,76.6 407.9,82.8 415.3,82.8 422.8,82.8 430.3,82.8 437.7,76.6 445.2,76.6 452.7,76.6 460.1,76.6 467.6,76.6 475.1,76.6 482.5,76.6 490.0,76.6 497.5,82.8 504.9,76.6 512.4,76.6 519.9,76.6 527.3,76.6 534.8,76.6 542.3,82.8 549.7,76.6 557.2,76.6 564.7,76.6 572.1,76.6 579.6,76.6 587.1,76.6 594.5,76.6 602.0,76.6 609.5,76.6 616.9,70.5 624.4,70.5 631.9,70.5 639.3,70.5 646.8,76.6 654.3,70.5 661.7,76.6 669.2,76.6 676.7,76.6 684.1,76.6 691.6,76.6 699.1,76.6 706.5,82.8 714.0,88.9 721.5,88.9 728.9,88.9 736.4,88.9 743.9,88.9 751.3,88.9 758.8,88.9 766.3,95.1 773.7,88.9 781.2,88.9 788.7,88.9 796.1,88.9 803.6,88.9 811.1,88.9 818.5,82.8 826.0,82.8 833.5,82.8 840.9,82.8 848.4,82.8 855.9,82.8 863.3,82.8 870.8,82.8 878.3,88.9 885.7,88.9 893.2,88.9 900.7,88.9 908.1,88.9 915.6,88.9 923.1,88.9 930.5,88.9 938.0,95.1"/><polyline fill="none" stroke="#f59e0b" stroke-width="2.5" stroke-linejoin="round" stroke-linecap="round" points="42.0,273.7 49.5,267.5 56.9,255.2 64.4,249.1 71.9,255.2 79.3,261.4 86.8,261.4 94.3,261.4 101.7,261.4 109.2,261.4 116.7,261.4 124.1,261.4 131.6,261.4 139.1,261.4 146.5,261.4 154.0,267.5 161.5,267.5 168.9,261.4 176.4,255.2 183.9,255.2 191.3,249.1 198.8,249.1 206.3,249.1 213.7,249.1 221.2,249.1 228.7,249.1 236.1,249.1 243.6,249.1 251.1,249.1 258.5,255.2 266.0,255.2 273.5,255.2 280.9,255.2 288.4,261.4 295.9,261.4 303.3,261.4 310.8,261.4 318.3,261.4 325.7,255.2 333.2,255.2 340.7,255.2 348.1,255.2 355.6,261.4 363.1,261.4 370.5,261.4 378.0,261.4 385.5,261.4 392.9,261.4 400.4,261.4 407.9,255.2 415.3,255.2 422.8,255.2 430.3,261.4 437.7,261.4 445.2,261.4 452.7,261.4 460.1,261.4 467.6,261.4 475.1,261.4 482.5,261.4 490.0,261.4 497.5,255.2 504.9,261.4 512.4,261.4 519.9,261.4 527.3,261.4 534.8,261.4 542.3,261.4 549.7,261.4 557.2,261.4 564.7,261.4 572.1,261.4 579.6,261.4 587.1,261.4 594.5,261.4 602.0,261.4 609.5,261.4 616.9,267.5 624.4,267.5 631.9,267.5 639.3,267.5 646.8,267.5 654.3,267.5 661.7,261.4 669.2,261.4 676.7,261.4 684.1,261.4 691.6,261.4 699.1,261.4 706.5,255.2 714.0,249.1 721.5,249.1 728.9,255.2 736.4,249.1 743.9,249.1 751.3,249.1 758.8,249.1 766.3,249.1 773.7,249.1 781.2,255.2 788.7,249.1 796.1,249.1 803.6,249.1 811.1,249.1 818.5,255.2 826.0,255.2 833.5,255.2 840.9,255.2 848.4,255.2 855.9,255.2 863.3,255.2 870.8,255.2 878.3,249.1 885.7,249.1 893.2,249.1 900.7,249.1 908.1,249.1 915.6,249.1 923.1,249.1 930.5,255.2 938.0,249.1"/><polyline fill="none" stroke="#ef4444" stroke-width="2.5" stroke-linejoin="round" stroke-linecap="round" points="42.0,286.0 49.5,132.1 56.9,286.0 64.4,286.0 71.9,286.0 79.3,286.0 86.8,286.0 94.3,286.0 101.7,286.0 109.2,286.0 116.7,286.0 124.1,286.0 131.6,286.0 139.1,286.0 146.5,286.0 154.0,286.0 161.5,286.0 168.9,279.8 176.4,286.0 183.9,286.0 191.3,286.0 198.8,286.0 206.3,286.0 213.7,286.0 221.2,286.0 228.7,286.0 236.1,286.0 243.6,286.0 251.1,286.0 258.5,286.0 266.0,286.0 273.5,286.0 280.9,286.0 288.4,286.0 295.9,286.0 303.3,286.0 310.8,286.0 318.3,286.0 325.7,286.0 333.2,286.0 340.7,286.0 348.1,286.0 355.6,286.0 363.1,286.0 370.5,286.0 378.0,286.0 385.5,286.0 392.9,286.0 400.4,286.0 407.9,286.0 415.3,286.0 422.8,286.0 430.3,286.0 437.7,286.0 445.2,286.0 452.7,286.0 460.1,286.0 467.6,286.0 475.1,286.0 482.5,286.0 490.0,286.0 497.5,286.0 504.9,286.0 512.4,286.0 519.9,286.0 527.3,286.0 534.8,286.0 542.3,279.8 549.7,286.0 557.2,286.0 564.7,286.0 572.1,286.0 579.6,286.0 587.1,286.0 594.5,286.0 602.0,286.0 609.5,286.0 616.9,286.0 624.4,286.0 631.9,286.0 639.3,286.0 646.8,279.8 654.3,286.0 661.7,286.0 669.2,286.0 676.7,286.0 684.1,286.0 691.6,286.0 699.1,286.0 706.5,286.0 714.0,286.0 721.5,286.0 728.9,279.8 736.4,286.0 743.9,286.0 751.3,286.0 758.8,286.0 766.3,279.8 773.7,286.0 781.2,286.0 788.7,286.0 796.1,286.0 803.6,286.0 811.1,286.0 818.5,286.0 826.0,286.0 833.5,286.0 840.9,286.0 848.4,286.0 855.9,286.0 863.3,286.0 870.8,286.0 878.3,286.0 885.7,286.0 893.2,286.0 900.7,286.0 908.1,286.0 915.6,286.0 923.1,286.0 930.5,286.0 938.0,279.8"/><polyline fill="none" stroke="#a855f7" stroke-width="2.5" stroke-linejoin="round" stroke-linecap="round" points="42.0,286.0 49.5,286.0 56.9,286.0 64.4,286.0 71.9,286.0 79.3,286.0 86.8,286.0 94.3,286.0 101.7,286.0 109.2,286.0 116.7,286.0 124.1,286.0 131.6,286.0 139.1,286.0 146.5,286.0 154.0,286.0 161.5,286.0 168.9,286.0 176.4,286.0 183.9,286.0 191.3,286.0 198.8,286.0 206.3,286.0 213.7,286.0 221.2,286.0 228.7,286.0 236.1,286.0 243.6,286.0 251.1,286.0 258.5,286.0 266.0,286.0 273.5,286.0 280.9,286.0 288.4,286.0 295.9,286.0 303.3,286.0 310.8,286.0 318.3,286.0 325.7,286.0 333.2,286.0 340.7,286.0 348.1,286.0 355.6,286.0 363.1,286.0 370.5,286.0 378.0,286.0 385.5,286.0 392.9,286.0 400.4,286.0 407.9,286.0 415.3,286.0 422.8,286.0 430.3,279.8 437.7,286.0 445.2,286.0 452.7,286.0 460.1,286.0 467.6,286.0 475.1,286.0 482.5,286.0 490.0,286.0 497.5,286.0 504.9,286.0 512.4,286.0 519.9,286.0 527.3,286.0 534.8,286.0 542.3,286.0 549.7,286.0 557.2,286.0 564.7,286.0 572.1,286.0 579.6,286.0 587.1,286.0 594.5,286.0 602.0,286.0 609.5,286.0 616.9,286.0 624.4,286.0 631.9,286.0 639.3,286.0 646.8,286.0 654.3,286.0 661.7,286.0 669.2,286.0 676.7,286.0 684.1,286.0 691.6,286.0 699.1,286.0 706.5,286.0 714.0,286.0 721.5,286.0 728.9,286.0 736.4,286.0 743.9,286.0 751.3,286.0 758.8,286.0 766.3,286.0 773.7,286.0 781.2,279.8 788.7,286.0 796.1,286.0 803.6,286.0 811.1,286.0 818.5,286.0 826.0,286.0 833.5,286.0 840.9,286.0 848.4,286.0 855.9,286.0 863.3,286.0 870.8,286.0 878.3,286.0 885.7,286.0 893.2,286.0 900.7,286.0 908.1,286.0 915.6,286.0 923.1,286.0 930.5,279.8 938.0,286.0"/><text x="42" y="308" font-size="11" fill="#9fb0d4">19/06 15:39</text><text x="938" y="308" text-anchor="end" font-size="11" fill="#9fb0d4">21/07 15:30</text></svg>