<svg xmlns="http://www.w3.org/2000/svg" viewBox="0 0 960 320" width="960" height="320" font-family="Segoe UI, system-ui, -apple-system, Roboto, Helvetica, Arial, sans-serif" role="img" aria-label="Availability history per region"><rect x="0.5" y="0.5" width="959" height="319" rx="14" fill="#0d1117" stroke="#2c3a5e"/><text x="42" y="26" font-size="14" font-weight="600" fill="#e6ecff">History · 162 points</text><circle cx="47" cy="40" r="5" fill="#22c55e"/><text x="57" y="44" font-size="12" fill="#9fb0d4">Available</text><circle cx="139.8" cy="40" r="5" fill="#f59e0b"/><text x="149.8" y="44" font-size="12" fill="#9fb0d4">Saturated</text><circle cx="232.60000000000002" cy="40" r="5" fill="#ef4444"/><text x="242.60000000000002" y="44" font-size="12" fill="#9fb0d4">Error</text><circle cx="296.6" cy="40" r="5" fill="#a855f7"/><text x="306.6" y="44" font-size="12" fill="#9fb0d4">Timeout</text><line x1="42" y1="286.0" x2="938" y2="286.0" stroke="#21304f" stroke-width="1"/><text x="35" y="289.0" text-anchor="end" font-size="11" fill="#9fb0d4">0</text><line x1="42" y1="227.5" x2="938" y2="227.5" stroke="#21304f" stroke-width="1"/><text x="35" y="230.5" text-anchor="end" font-size="11" fill="#9fb0d4">10</text><line x1="42" y1="169.0" x2="938" y2="169.0" stroke="#21304f" stroke-width="1"/><text x="35" y="172.0" text-anchor="end" font-size="11" fill="#9fb0d4">20</text><line x1="42" y1="110.5" x2="938" y2="110.5" stroke="#21304f" stroke-width="1"/><text x="35" y="113.5" text-anchor="end" font-size="11" fill="#9fb0d4">29</text><line x1="42" y1="52.0" x2="938" y2="52.0" stroke="#21304f" stroke-width="1"/><text x="35" y="55.0" text-anchor="end" font-size="11" fill="#9fb0d4">39</text><polyline fill="none" stroke="#22c55e" stroke-width="2.5" stroke-linejoin="round" stroke-linecap="round" points="42.0,70.0 47.6,70.0 53.1,88.0 58.7,88.0 64.3,76.0 69.8,76.0 75.4,76.0 81.0,70.0 86.5,76.0 92.1,70.0 97.7,64.0 103.2,58.0 108.8,58.0 114.3,58.0 119.9,58.0 125.5,58.0 131.0,58.0 136.6,58.0 142.2,58.0 147.7,58.0 153.3,58.0 158.9,58.0 164.4,58.0 170.0,58.0 175.6,58.0 181.1,58.0 186.7,58.0 192.3,58.0 197.8,58.0 203.4,58.0 209.0,58.0 214.5,70.0 220.1,76.0 225.7,94.0 231.2,64.0 236.8,64.0 242.3,58.0 247.9,58.0 253.5,58.0 259.0,70.0 264.6,76.0 270.2,76.0 275.7,82.0 281.3,82.0 286.9,82.0 292.4,82.0 298.0,76.0 303.6,64.0 309.1,70.0 314.7,70.0 320.3,82.0 325.8,76.0 331.4,76.0 337.0,82.0 342.5,76.0 348.1,76.0 353.7,76.0 359.2,64.0 364.8,64.0 370.3,76.0 375.9,76.0 381.5,76.0 387.0,88.0 392.6,70.0 398.2,64.0 403.7,58.0 409.3,58.0 414.9,70.0 420.4,70.0 426.0,70.0 431.6,76.0 437.1,70.0 442.7,70.0 448.3,70.0 453.8,70.0 459.4,76.0 465.0,82.0 470.5,76.0 476.1,70.0 481.7,70.0 487.2,70.0 492.8,70.0 498.3,76.0 503.9,70.0 509.5,70.0 515.0,70.0 520.6,70.0 526.2,70.0 531.7,70.0 537.3,70.0 542.9,70.0 548.4,70.0 554.0,70.0 559.6,70.0 565.1,70.0 570.7,70.0 576.3,70.0 581.8,70.0 587.4,70.0 593.0,70.0 598.5,70.0 604.1,70.0 609.7,70.0 615.2,70.0 620.8,70.0 626.3,70.0 631.9,70.0 637.5,70.0 643.0,70.0 648.6,70.0 654.2,70.0 659.7,70.0 665.3,70.0 670.9,70.0 676.4,70.0 682.0,70.0 687.6,70.0 693.1,70.0 698.7,70.0 704.3,70.0 709.8,70.0 715.4,70.0 721.0,70.0 726.5,70.0 732.1,70.0 737.7,70.0 743.2,70.0 748.8,70.0 754.3,70.0 759.9,70.0 765.5,70.0 771.0,70.0 776.6,70.0 782.2,70.0 787.7,70.0 793.3,70.0 798.9,70.0 804.4,70.0 810.0,70.0 815.6,70.0 821.1,70.0 826.7,70.0 832.3,70.0 837.8,70.0 843.4,70.0 849.0,70.0 854.5,70.0 860.1,70.0 865.7,70.0 871.2,70.0 876.8,70.0 882.3,76.0 887.9,70.0 893.5,70.0 899.0,70.0 904.6,70.0 910.2,70.0 915.7,76.0 921.3,76.0 926.9,88.0 932.4,88.0 938.0,88.0"/><polyline fill="none" stroke="#f59e0b" stroke-width="2.5" stroke-linejoin="round" stroke-linecap="round" points="42.0,274.0 47.6,274.0 53.1,274.0 58.7,280.0 64.3,268.0 69.8,268.0 75.4,268.0 81.0,274.0 86.5,274.0 92.1,274.0 97.7,280.0 103.2,286.0 108.8,286.0 114.3,286.0 119.9,286.0 125.5,286.0 131.0,286.0 136.6,286.0 142.2,286.0 147.7,286.0 153.3,286.0 158.9,286.0 164.4,286.0 170.0,286.0 175.6,286.0 181.1,286.0 186.7,286.0 192.3,286.0 197.8,286.0 203.4,286.0 209.0,286.0 214.5,274.0 220.1,280.0 225.7,280.0 231.2,280.0 236.8,280.0 242.3,286.0 247.9,286.0 253.5,286.0 259.0,274.0 264.6,268.0 270.2,268.0 275.7,262.0 281.3,262.0 286.9,262.0 292.4,262.0 298.0,268.0 303.6,280.0 309.1,280.0 314.7,274.0 320.3,262.0 325.8,268.0 331.4,268.0 337.0,262.0 342.5,268.0 348.1,268.0 353.7,268.0 359.2,280.0 364.8,280.0 370.3,268.0 375.9,268.0 381.5,268.0 387.0,262.0 392.6,274.0 398.2,280.0 403.7,286.0 409.3,286.0 414.9,274.0 420.4,274.0 426.0,274.0 431.6,274.0 437.1,274.0 442.7,274.0 448.3,274.0 453.8,274.0 459.4,280.0 465.0,274.0 470.5,280.0 476.1,286.0 481.7,286.0 487.2,286.0 492.8,286.0 498.3,280.0 503.9,286.0 509.5,286.0 515.0,286.0 520.6,286.0 526.2,286.0 531.7,286.0 537.3,286.0 542.9,286.0 548.4,286.0 554.0,286.0 559.6,286.0 565.1,286.0 570.7,286.0 576.3,286.0 581.8,286.0 587.4,286.0 593.0,286.0 598.5,286.0 604.1,286.0 609.7,286.0 615.2,286.0 620.8,286.0 626.3,286.0 631.9,286.0 637.5,286.0 643.0,286.0 648.6,286.0 654.2,286.0 659.7,286.0 665.3,286.0 670.9,286.0 676.4,286.0 682.0,286.0 687.6,286.0 693.1,286.0 698.7,286.0 704.3,286.0 709.8,286.0 715.4,286.0 721.0,286.0 726.5,286.0 732.1,286.0 737.7,286.0 743.2,286.0 748.8,286.0 754.3,286.0 759.9,286.0 765.5,286.0 771.0,286.0 776.6,286.0 782.2,286.0 787.7,286.0 793.3,286.0 798.9,286.0 804.4,286.0 810.0,286.0 815.6,286.0 821.1,286.0 826.7,286.0 832.3,286.0 837.8,286.0 843.4,286.0 849.0,286.0 854.5,286.0 860.1,286.0 865.7,286.0 871.2,286.0 876.8,286.0 882.3,286.0 887.9,286.0 893.5,286.0 899.0,286.0 904.6,286.0 910.2,286.0 915.7,286.0 921.3,280.0 926.9,268.0 932.4,268.0 938.0,268.0"/><polyline fill="none" stroke="#ef4444" stroke-width="2.5" stroke-linejoin="round" stroke-linecap="round" points="42.0,280.0 47.6,280.0 53.1,268.0 58.7,262.0 64.3,286.0 69.8,286.0 75.4,286.0 81.0,286.0 86.5,280.0 92.1,286.0 97.7,286.0 103.2,286.0 108.8,286.0 114.3,286.0 119.9,286.0 125.5,286.0 131.0,286.0 136.6,286.0 142.2,286.0 147.7,286.0 153.3,286.0 158.9,286.0 164.4,286.0 170.0,286.0 175.6,286.0 181.1,286.0 186.7,286.0 192.3,286.0 197.8,286.0 203.4,286.0 209.0,286.0 214.5,286.0 220.1,274.0 225.7,256.0 231.2,286.0 236.8,286.0 242.3,286.0 247.9,286.0 253.5,286.0 259.0,286.0 264.6,286.0 270.2,286.0 275.7,286.0 281.3,286.0 286.9,286.0 292.4,286.0 298.0,286.0 303.6,286.0 309.1,280.0 314.7,286.0 320.3,286.0 325.8,286.0 331.4,286.0 337.0,286.0 342.5,286.0 348.1,286.0 353.7,286.0 359.2,286.0 364.8,286.0 370.3,286.0 375.9,286.0 381.5,286.0 387.0,280.0 392.6,286.0 398.2,286.0 403.7,286.0 409.3,286.0 414.9,286.0 420.4,286.0 426.0,286.0 431.6,286.0 437.1,286.0 442.7,286.0 448.3,286.0 453.8,286.0 459.4,274.0 465.0,274.0 470.5,274.0 476.1,274.0 481.7,274.0 487.2,274.0 492.8,274.0 498.3,274.0 503.9,274.0 509.5,274.0 515.0,274.0 520.6,274.0 526.2,274.0 531.7,274.0 537.3,274.0 542.9,274.0 548.4,274.0 554.0,274.0 559.6,274.0 565.1,274.0 570.7,274.0 576.3,274.0 581.8,274.0 587.4,274.0 593.0,274.0 598.5,274.0 604.1,274.0 609.7,274.0 615.2,274.0 620.8,274.0 626.3,274.0 631.9,274.0 637.5,274.0 643.0,274.0 648.6,274.0 654.2,274.0 659.7,274.0 665.3,274.0 670.9,274.0 676.4,274.0 682.0,274.0 687.6,274.0 693.1,274.0 698.7,274.0 704.3,274.0 709.8,274.0 715.4,274.0 721.0,274.0 726.5,274.0 732.1,274.0 737.7,274.0 743.2,274.0 748.8,274.0 754.3,274.0 759.9,274.0 765.5,274.0 771.0,274.0 776.6,274.0 782.2,274.0 787.7,274.0 793.3,274.0 798.9,274.0 804.4,274.0 810.0,274.0 815.6,274.0 821.1,274.0 826.7,274.0 832.3,274.0 837.8,274.0 843.4,274.0 849.0,274.0 854.5,274.0 860.1,274.0 865.7,274.0 871.2,274.0 876.8,274.0 882.3,268.0 887.9,274.0 893.5,274.0 899.0,274.0 904.6,274.0 910.2,274.0 915.7,274.0 921.3,274.0 926.9,274.0 932.4,274.0 938.0,274.0"/><polyline fill="none" stroke="#a855f7" stroke-width="2.5" stroke-linejoin="round" stroke-linecap="round" points="42.0,286.0 47.6,286.0 53.1,286.0 58.7,286.0 64.3,286.0 69.8,286.0 75.4,286.0 81.0,286.0 86.5,286.0 92.1,286.0 97.7,286.0 103.2,286.0 108.8,286.0 114.3,286.0 119.9,286.0 125.5,286.0 131.0,286.0 136.6,286.0 142.2,286.0 147.7,286.0 153.3,286.0 158.9,286.0 164.4,286.0 170.0,286.0 175.6,286.0 181.1,286.0 186.7,286.0 192.3,286.0 197.8,286.0 203.4,286.0 209.0,286.0 214.5,286.0 220.1,286.0 225.7,286.0 231.2,286.0 236.8,286.0 242.3,286.0 247.9,286.0 253.5,286.0 259.0,286.0 264.6,286.0 270.2,286.0 275.7,286.0 281.3,286.0 286.9,286.0 292.4,286.0 298.0,286.0 303.6,286.0 309.1,286.0 314.7,286.0 320.3,286.0 325.8,286.0 331.4,286.0 337.0,286.0 342.5,286.0 348.1,286.0 353.7,286.0 359.2,286.0 364.8,286.0 370.3,286.0 375.9,286.0 381.5,286.0 387.0,286.0 392.6,286.0 398.2,286.0 403.7,286.0 409.3,286.0 414.9,286.0 420.4,286.0 426.0,286.0 431.6,280.0 437.1,286.0 442.7,286.0 448.3,286.0 453.8,286.0 459.4,286.0 465.0,286.0 470.5,286.0 476.1,286.0 481.7,286.0 487.2,286.0 492.8,286.0 498.3,286.0 503.9,286.0 509.5,286.0 515.0,286.0 520.6,286.0 526.2,286.0 531.7,286.0 537.3,286.0 542.9,286.0 548.4,286.0 554.0,286.0 559.6,286.0 565.1,286.0 570.7,286.0 576.3,286.0 581.8,286.0 587.4,286.0 593.0,286.0 598.5,286.0 604.1,286.0 609.7,286.0 615.2,286.0 620.8,286.0 626.3,286.0 631.9,286.0 637.5,286.0 643.0,286.0 648.6,286.0 654.2,286.0 659.7,286.0 665.3,286.0 670.9,286.0 676.4,286.0 682.0,286.0 687.6,286.0 693.1,286.0 698.7,286.0 704.3,286.0 709.8,286.0 715.4,286.0 721.0,286.0 726.5,286.0 732.1,286.0 737.7,286.0 743.2,286.0 748.8,286.0 754.3,286.0 759.9,286.0 765.5,286.0 771.0,286.0 776.6,286.0 782.2,286.0 787.7,286.0 793.3,286.0 798.9,286.0 804.4,286.0 810.0,286.0 815.6,286.0 821.1,286.0 826.7,286.0 832.3,286.0 837.8,286.0 843.4,286.0 849.0,286.0 854.5,286.0 860.1,286.0 865.7,286.0 871.2,286.0 876.8,286.0 882.3,286.0 887.9,286.0 893.5,286.0 899.0,286.0 904.6,286.0 910.2,286.0 915.7,280.0 921.3,286.0 926.9,286.0 932.4,286.0 938.0,286.0"/><text x="42" y="308" font-size="11" fill="#9fb0d4">19/06 12:43</text><text x="938" y="308" text-anchor="end" font-size="11" fill="#9fb0d4">29/06 12:30</text></svg>