<svg xmlns="http://www.w3.org/2000/svg" viewBox="0 0 960 320" width="960" height="320" font-family="Segoe UI, system-ui, -apple-system, Roboto, Helvetica, Arial, sans-serif" role="img" aria-label="Availability history per region"><rect x="0.5" y="0.5" width="959" height="319" rx="14" fill="#ffffff" stroke="#dce3f1"/><text x="42" y="26" font-size="14" font-weight="600" fill="#14203a">History · 145 points</text><circle cx="47" cy="40" r="5" fill="#22c55e"/><text x="57" y="44" font-size="12" fill="#5a688a">Available</text><circle cx="139.8" cy="40" r="5" fill="#f59e0b"/><text x="149.8" y="44" font-size="12" fill="#5a688a">Saturated</text><circle cx="232.60000000000002" cy="40" r="5" fill="#ef4444"/><text x="242.60000000000002" y="44" font-size="12" fill="#5a688a">Error</text><circle cx="296.6" cy="40" r="5" fill="#a855f7"/><text x="306.6" y="44" font-size="12" fill="#5a688a">Timeout</text><line x1="42" y1="286.0" x2="938" y2="286.0" stroke="#eef2f7" stroke-width="1"/><text x="35" y="289.0" text-anchor="end" font-size="11" fill="#5a688a">0</text><line x1="42" y1="227.5" x2="938" y2="227.5" stroke="#eef2f7" stroke-width="1"/><text x="35" y="230.5" text-anchor="end" font-size="11" fill="#5a688a">10</text><line x1="42" y1="169.0" x2="938" y2="169.0" stroke="#eef2f7" stroke-width="1"/><text x="35" y="172.0" text-anchor="end" font-size="11" fill="#5a688a">19</text><line x1="42" y1="110.5" x2="938" y2="110.5" stroke="#eef2f7" stroke-width="1"/><text x="35" y="113.5" text-anchor="end" font-size="11" fill="#5a688a">28</text><line x1="42" y1="52.0" x2="938" y2="52.0" stroke="#eef2f7" stroke-width="1"/><text x="35" y="55.0" text-anchor="end" font-size="11" fill="#5a688a">38</text><polyline fill="none" stroke="#22c55e" stroke-width="2.5" stroke-linejoin="round" stroke-linecap="round" points="42.0,64.3 48.2,224.4 54.4,82.8 60.7,88.9 66.9,82.8 73.1,76.6 79.3,76.6 85.6,76.6 91.8,76.6 98.0,76.6 104.2,76.6 110.4,76.6 116.7,76.6 122.9,76.6 129.1,76.6 135.3,70.5 141.6,70.5 147.8,82.8 154.0,82.8 160.2,82.8 166.4,88.9 172.7,88.9 178.9,88.9 185.1,88.9 191.3,88.9 197.6,88.9 203.8,88.9 210.0,88.9 216.2,88.9 222.4,82.8 228.7,82.8 234.9,82.8 241.1,82.8 247.3,76.6 253.6,76.6 259.8,76.6 266.0,76.6 272.2,76.6 278.4,82.8 284.7,82.8 290.9,82.8 297.1,82.8 303.3,76.6 309.6,76.6 315.8,76.6 322.0,76.6 328.2,76.6 334.4,76.6 340.7,76.6 346.9,82.8 353.1,82.8 359.3,82.8 365.6,82.8 371.8,76.6 378.0,76.6 384.2,76.6 390.4,76.6 396.7,76.6 402.9,76.6 409.1,76.6 415.3,76.6 421.6,82.8 427.8,76.6 434.0,76.6 440.2,76.6 446.4,76.6 452.7,76.6 458.9,82.8 465.1,76.6 471.3,76.6 477.6,76.6 483.8,76.6 490.0,76.6 496.2,76.6 502.4,76.6 508.7,76.6 514.9,76.6 521.1,70.5 527.3,70.5 533.6,70.5 539.8,70.5 546.0,76.6 552.2,70.5 558.4,76.6 564.7,76.6 570.9,76.6 577.1,76.6 583.3,76.6 589.6,76.6 595.8,82.8 602.0,88.9 608.2,88.9 614.4,88.9 620.7,88.9 626.9,88.9 633.1,88.9 639.3,88.9 645.6,95.1 651.8,88.9 658.0,88.9 664.2,88.9 670.4,88.9 676.7,88.9 682.9,88.9 689.1,82.8 695.3,82.8 701.6,82.8 707.8,82.8 714.0,82.8 720.2,82.8 726.4,82.8 732.7,82.8 738.9,88.9 745.1,88.9 751.3,88.9 757.6,88.9 763.8,88.9 770.0,88.9 776.2,88.9 782.4,88.9 788.7,95.1 794.9,88.9 801.1,88.9 807.3,88.9 813.6,101.3 819.8,88.9 826.0,88.9 832.2,88.9 838.4,88.9 844.7,82.8 850.9,82.8 857.1,82.8 863.3,82.8 869.6,88.9 875.8,82.8 882.0,88.9 888.2,88.9 894.4,88.9 900.7,88.9 906.9,95.1 913.1,88.9 919.3,88.9 925.6,88.9 931.8,88.9 938.0,88.9"/><polyline fill="none" stroke="#f59e0b" stroke-width="2.5" stroke-linejoin="round" stroke-linecap="round" points="42.0,273.7 48.2,267.5 54.4,255.2 60.7,249.1 66.9,255.2 73.1,261.4 79.3,261.4 85.6,261.4 91.8,261.4 98.0,261.4 104.2,261.4 110.4,261.4 116.7,261.4 122.9,261.4 129.1,261.4 135.3,267.5 141.6,267.5 147.8,261.4 154.0,255.2 160.2,255.2 166.4,249.1 172.7,249.1 178.9,249.1 185.1,249.1 191.3,249.1 197.6,249.1 203.8,249.1 210.0,249.1 216.2,249.1 222.4,255.2 228.7,255.2 234.9,255.2 241.1,255.2 247.3,261.4 253.6,261.4 259.8,261.4 266.0,261.4 272.2,261.4 278.4,255.2 284.7,255.2 290.9,255.2 297.1,255.2 303.3,261.4 309.6,261.4 315.8,261.4 322.0,261.4 328.2,261.4 334.4,261.4 340.7,261.4 346.9,255.2 353.1,255.2 359.3,255.2 365.6,261.4 371.8,261.4 378.0,261.4 384.2,261.4 390.4,261.4 396.7,261.4 402.9,261.4 409.1,261.4 415.3,261.4 421.6,255.2 427.8,261.4 434.0,261.4 440.2,261.4 446.4,261.4 452.7,261.4 458.9,261.4 465.1,261.4 471.3,261.4 477.6,261.4 483.8,261.4 490.0,261.4 496.2,261.4 502.4,261.4 508.7,261.4 514.9,261.4 521.1,267.5 527.3,267.5 533.6,267.5 539.8,267.5 546.0,267.5 552.2,267.5 558.4,261.4 564.7,261.4 570.9,261.4 577.1,261.4 583.3,261.4 589.6,261.4 595.8,255.2 602.0,249.1 608.2,249.1 614.4,255.2 620.7,249.1 626.9,249.1 633.1,249.1 639.3,249.1 645.6,249.1 651.8,249.1 658.0,255.2 664.2,249.1 670.4,249.1 676.7,249.1 682.9,249.1 689.1,255.2 695.3,255.2 701.6,255.2 707.8,255.2 714.0,255.2 720.2,255.2 726.4,255.2 732.7,255.2 738.9,249.1 745.1,249.1 751.3,249.1 757.6,249.1 763.8,249.1 770.0,249.1 776.2,249.1 782.4,255.2 788.7,249.1 794.9,249.1 801.1,249.1 807.3,249.1 813.6,249.1 819.8,249.1 826.0,249.1 832.2,255.2 838.4,255.2 844.7,255.2 850.9,255.2 857.1,255.2 863.3,255.2 869.6,255.2 875.8,255.2 882.0,249.1 888.2,249.1 894.4,249.1 900.7,249.1 906.9,249.1 913.1,249.1 919.3,249.1 925.6,249.1 931.8,249.1 938.0,249.1"/><polyline fill="none" stroke="#ef4444" stroke-width="2.5" stroke-linejoin="round" stroke-linecap="round" points="42.0,286.0 48.2,132.1 54.4,286.0 60.7,286.0 66.9,286.0 73.1,286.0 79.3,286.0 85.6,286.0 91.8,286.0 98.0,286.0 104.2,286.0 110.4,286.0 116.7,286.0 122.9,286.0 129.1,286.0 135.3,286.0 141.6,286.0 147.8,279.8 154.0,286.0 160.2,286.0 166.4,286.0 172.7,286.0 178.9,286.0 185.1,286.0 191.3,286.0 197.6,286.0 203.8,286.0 210.0,286.0 216.2,286.0 222.4,286.0 228.7,286.0 234.9,286.0 241.1,286.0 247.3,286.0 253.6,286.0 259.8,286.0 266.0,286.0 272.2,286.0 278.4,286.0 284.7,286.0 290.9,286.0 297.1,286.0 303.3,286.0 309.6,286.0 315.8,286.0 322.0,286.0 328.2,286.0 334.4,286.0 340.7,286.0 346.9,286.0 353.1,286.0 359.3,286.0 365.6,286.0 371.8,286.0 378.0,286.0 384.2,286.0 390.4,286.0 396.7,286.0 402.9,286.0 409.1,286.0 415.3,286.0 421.6,286.0 427.8,286.0 434.0,286.0 440.2,286.0 446.4,286.0 452.7,286.0 458.9,279.8 465.1,286.0 471.3,286.0 477.6,286.0 483.8,286.0 490.0,286.0 496.2,286.0 502.4,286.0 508.7,286.0 514.9,286.0 521.1,286.0 527.3,286.0 533.6,286.0 539.8,286.0 546.0,279.8 552.2,286.0 558.4,286.0 564.7,286.0 570.9,286.0 577.1,286.0 583.3,286.0 589.6,286.0 595.8,286.0 602.0,286.0 608.2,286.0 614.4,279.8 620.7,286.0 626.9,286.0 633.1,286.0 639.3,286.0 645.6,279.8 651.8,286.0 658.0,286.0 664.2,286.0 670.4,286.0 676.7,286.0 682.9,286.0 689.1,286.0 695.3,286.0 701.6,286.0 707.8,286.0 714.0,286.0 720.2,286.0 726.4,286.0 732.7,286.0 738.9,286.0 745.1,286.0 751.3,286.0 757.6,286.0 763.8,286.0 770.0,286.0 776.2,286.0 782.4,286.0 788.7,279.8 794.9,286.0 801.1,286.0 807.3,286.0 813.6,273.7 819.8,286.0 826.0,286.0 832.2,279.8 838.4,279.8 844.7,286.0 850.9,286.0 857.1,286.0 863.3,286.0 869.6,279.8 875.8,286.0 882.0,286.0 888.2,286.0 894.4,286.0 900.7,286.0 906.9,286.0 913.1,286.0 919.3,286.0 925.6,286.0 931.8,286.0 938.0,286.0"/><polyline fill="none" stroke="#a855f7" stroke-width="2.5" stroke-linejoin="round" stroke-linecap="round" points="42.0,286.0 48.2,286.0 54.4,286.0 60.7,286.0 66.9,286.0 73.1,286.0 79.3,286.0 85.6,286.0 91.8,286.0 98.0,286.0 104.2,286.0 110.4,286.0 116.7,286.0 122.9,286.0 129.1,286.0 135.3,286.0 141.6,286.0 147.8,286.0 154.0,286.0 160.2,286.0 166.4,286.0 172.7,286.0 178.9,286.0 185.1,286.0 191.3,286.0 197.6,286.0 203.8,286.0 210.0,286.0 216.2,286.0 222.4,286.0 228.7,286.0 234.9,286.0 241.1,286.0 247.3,286.0 253.6,286.0 259.8,286.0 266.0,286.0 272.2,286.0 278.4,286.0 284.7,286.0 290.9,286.0 297.1,286.0 303.3,286.0 309.6,286.0 315.8,286.0 322.0,286.0 328.2,286.0 334.4,286.0 340.7,286.0 346.9,286.0 353.1,286.0 359.3,286.0 365.6,279.8 371.8,286.0 378.0,286.0 384.2,286.0 390.4,286.0 396.7,286.0 402.9,286.0 409.1,286.0 415.3,286.0 421.6,286.0 427.8,286.0 434.0,286.0 440.2,286.0 446.4,286.0 452.7,286.0 458.9,286.0 465.1,286.0 471.3,286.0 477.6,286.0 483.8,286.0 490.0,286.0 496.2,286.0 502.4,286.0 508.7,286.0 514.9,286.0 521.1,286.0 527.3,286.0 533.6,286.0 539.8,286.0 546.0,286.0 552.2,286.0 558.4,286.0 564.7,286.0 570.9,286.0 577.1,286.0 583.3,286.0 589.6,286.0 595.8,286.0 602.0,286.0 608.2,286.0 614.4,286.0 620.7,286.0 626.9,286.0 633.1,286.0 639.3,286.0 645.6,286.0 651.8,286.0 658.0,279.8 664.2,286.0 670.4,286.0 676.7,286.0 682.9,286.0 689.1,286.0 695.3,286.0 701.6,286.0 707.8,286.0 714.0,286.0 720.2,286.0 726.4,286.0 732.7,286.0 738.9,286.0 745.1,286.0 751.3,286.0 757.6,286.0 763.8,286.0 770.0,286.0 776.2,286.0 782.4,279.8 788.7,286.0 794.9,286.0 801.1,286.0 807.3,286.0 813.6,286.0 819.8,286.0 826.0,286.0 832.2,286.0 838.4,286.0 844.7,286.0 850.9,286.0 857.1,286.0 863.3,286.0 869.6,286.0 875.8,286.0 882.0,286.0 888.2,286.0 894.4,286.0 900.7,286.0 906.9,279.8 913.1,286.0 919.3,286.0 925.6,286.0 931.8,286.0 938.0,286.0"/><text x="42" y="308" font-size="11" fill="#5a688a">19/06 15:39</text><text x="938" y="308" text-anchor="end" font-size="11" fill="#5a688a">22/07 15:30</text></svg>