<svg xmlns="http://www.w3.org/2000/svg" viewBox="0 0 960 320" width="960" height="320" font-family="Segoe UI, system-ui, -apple-system, Roboto, Helvetica, Arial, sans-serif" role="img" aria-label="Availability history per region"><rect x="0.5" y="0.5" width="959" height="319" rx="14" fill="#ffffff" stroke="#dce3f1"/><text x="42" y="26" font-size="14" font-weight="600" fill="#14203a">History · 34 points</text><circle cx="47" cy="40" r="5" fill="#22c55e"/><text x="57" y="44" font-size="12" fill="#5a688a">Available</text><circle cx="139.8" cy="40" r="5" fill="#f59e0b"/><text x="149.8" y="44" font-size="12" fill="#5a688a">Saturated</text><circle cx="232.60000000000002" cy="40" r="5" fill="#ef4444"/><text x="242.60000000000002" y="44" font-size="12" fill="#5a688a">Error</text><line x1="42" y1="286.0" x2="938" y2="286.0" stroke="#eef2f7" stroke-width="1"/><text x="35" y="289.0" text-anchor="end" font-size="11" fill="#5a688a">0</text><line x1="42" y1="227.5" x2="938" y2="227.5" stroke="#eef2f7" stroke-width="1"/><text x="35" y="230.5" text-anchor="end" font-size="11" fill="#5a688a">10</text><line x1="42" y1="169.0" x2="938" y2="169.0" stroke="#eef2f7" stroke-width="1"/><text x="35" y="172.0" text-anchor="end" font-size="11" fill="#5a688a">19</text><line x1="42" y1="110.5" x2="938" y2="110.5" stroke="#eef2f7" stroke-width="1"/><text x="35" y="113.5" text-anchor="end" font-size="11" fill="#5a688a">28</text><line x1="42" y1="52.0" x2="938" y2="52.0" stroke="#eef2f7" stroke-width="1"/><text x="35" y="55.0" text-anchor="end" font-size="11" fill="#5a688a">38</text><polyline fill="none" stroke="#22c55e" stroke-width="2.5" stroke-linejoin="round" stroke-linecap="round" points="42.0,64.3 69.2,224.4 96.3,82.8 123.5,88.9 150.6,82.8 177.8,76.6 204.9,76.6 232.1,76.6 259.2,76.6 286.4,76.6 313.5,76.6 340.7,76.6 367.8,76.6 395.0,76.6 422.1,76.6 449.3,70.5 476.4,70.5 503.6,82.8 530.7,82.8 557.9,82.8 585.0,88.9 612.2,88.9 639.3,88.9 666.5,88.9 693.6,88.9 720.8,88.9 747.9,88.9 775.1,88.9 802.2,88.9 829.4,82.8 856.5,82.8 883.7,82.8 910.8,82.8 938.0,76.6"/><circle cx="42.0" cy="64.3" r="2.5" fill="#22c55e"/><circle cx="69.2" cy="224.4" r="2.5" fill="#22c55e"/><circle cx="96.3" cy="82.8" r="2.5" fill="#22c55e"/><circle cx="123.5" cy="88.9" r="2.5" fill="#22c55e"/><circle cx="150.6" cy="82.8" r="2.5" fill="#22c55e"/><circle cx="177.8" cy="76.6" r="2.5" fill="#22c55e"/><circle cx="204.9" cy="76.6" r="2.5" fill="#22c55e"/><circle cx="232.1" cy="76.6" r="2.5" fill="#22c55e"/><circle cx="259.2" cy="76.6" r="2.5" fill="#22c55e"/><circle cx="286.4" cy="76.6" r="2.5" fill="#22c55e"/><circle cx="313.5" cy="76.6" r="2.5" fill="#22c55e"/><circle cx="340.7" cy="76.6" r="2.5" fill="#22c55e"/><circle cx="367.8" cy="76.6" r="2.5" fill="#22c55e"/><circle cx="395.0" cy="76.6" r="2.5" fill="#22c55e"/><circle cx="422.1" cy="76.6" r="2.5" fill="#22c55e"/><circle cx="449.3" cy="70.5" r="2.5" fill="#22c55e"/><circle cx="476.4" cy="70.5" r="2.5" fill="#22c55e"/><circle cx="503.6" cy="82.8" r="2.5" fill="#22c55e"/><circle cx="530.7" cy="82.8" r="2.5" fill="#22c55e"/><circle cx="557.9" cy="82.8" r="2.5" fill="#22c55e"/><circle cx="585.0" cy="88.9" r="2.5" fill="#22c55e"/><circle cx="612.2" cy="88.9" r="2.5" fill="#22c55e"/><circle cx="639.3" cy="88.9" r="2.5" fill="#22c55e"/><circle cx="666.5" cy="88.9" r="2.5" fill="#22c55e"/><circle cx="693.6" cy="88.9" r="2.5" fill="#22c55e"/><circle cx="720.8" cy="88.9" r="2.5" fill="#22c55e"/><circle cx="747.9" cy="88.9" r="2.5" fill="#22c55e"/><circle cx="775.1" cy="88.9" r="2.5" fill="#22c55e"/><circle cx="802.2" cy="88.9" r="2.5" fill="#22c55e"/><circle cx="829.4" cy="82.8" r="2.5" fill="#22c55e"/><circle cx="856.5" cy="82.8" r="2.5" fill="#22c55e"/><circle cx="883.7" cy="82.8" r="2.5" fill="#22c55e"/><circle cx="910.8" cy="82.8" r="2.5" fill="#22c55e"/><circle cx="938.0" cy="76.6" r="2.5" fill="#22c55e"/><polyline fill="none" stroke="#f59e0b" stroke-width="2.5" stroke-linejoin="round" stroke-linecap="round" points="42.0,273.7 69.2,267.5 96.3,255.2 123.5,249.1 150.6,255.2 177.8,261.4 204.9,261.4 232.1,261.4 259.2,261.4 286.4,261.4 313.5,261.4 340.7,261.4 367.8,261.4 395.0,261.4 422.1,261.4 449.3,267.5 476.4,267.5 503.6,261.4 530.7,255.2 557.9,255.2 585.0,249.1 612.2,249.1 639.3,249.1 666.5,249.1 693.6,249.1 720.8,249.1 747.9,249.1 775.1,249.1 802.2,249.1 829.4,255.2 856.5,255.2 883.7,255.2 910.8,255.2 938.0,261.4"/><circle cx="42.0" cy="273.7" r="2.5" fill="#f59e0b"/><circle cx="69.2" cy="267.5" r="2.5" fill="#f59e0b"/><circle cx="96.3" cy="255.2" r="2.5" fill="#f59e0b"/><circle cx="123.5" cy="249.1" r="2.5" fill="#f59e0b"/><circle cx="150.6" cy="255.2" r="2.5" fill="#f59e0b"/><circle cx="177.8" cy="261.4" r="2.5" fill="#f59e0b"/><circle cx="204.9" cy="261.4" r="2.5" fill="#f59e0b"/><circle cx="232.1" cy="261.4" r="2.5" fill="#f59e0b"/><circle cx="259.2" cy="261.4" r="2.5" fill="#f59e0b"/><circle cx="286.4" cy="261.4" r="2.5" fill="#f59e0b"/><circle cx="313.5" cy="261.4" r="2.5" fill="#f59e0b"/><circle cx="340.7" cy="261.4" r="2.5" fill="#f59e0b"/><circle cx="367.8" cy="261.4" r="2.5" fill="#f59e0b"/><circle cx="395.0" cy="261.4" r="2.5" fill="#f59e0b"/><circle cx="422.1" cy="261.4" r="2.5" fill="#f59e0b"/><circle cx="449.3" cy="267.5" r="2.5" fill="#f59e0b"/><circle cx="476.4" cy="267.5" r="2.5" fill="#f59e0b"/><circle cx="503.6" cy="261.4" r="2.5" fill="#f59e0b"/><circle cx="530.7" cy="255.2" r="2.5" fill="#f59e0b"/><circle cx="557.9" cy="255.2" r="2.5" fill="#f59e0b"/><circle cx="585.0" cy="249.1" r="2.5" fill="#f59e0b"/><circle cx="612.2" cy="249.1" r="2.5" fill="#f59e0b"/><circle cx="639.3" cy="249.1" r="2.5" fill="#f59e0b"/><circle cx="666.5" cy="249.1" r="2.5" fill="#f59e0b"/><circle cx="693.6" cy="249.1" r="2.5" fill="#f59e0b"/><circle cx="720.8" cy="249.1" r="2.5" fill="#f59e0b"/><circle cx="747.9" cy="249.1" r="2.5" fill="#f59e0b"/><circle cx="775.1" cy="249.1" r="2.5" fill="#f59e0b"/><circle cx="802.2" cy="249.1" r="2.5" fill="#f59e0b"/><circle cx="829.4" cy="255.2" r="2.5" fill="#f59e0b"/><circle cx="856.5" cy="255.2" r="2.5" fill="#f59e0b"/><circle cx="883.7" cy="255.2" r="2.5" fill="#f59e0b"/><circle cx="910.8" cy="255.2" r="2.5" fill="#f59e0b"/><circle cx="938.0" cy="261.4" r="2.5" fill="#f59e0b"/><polyline fill="none" stroke="#ef4444" stroke-width="2.5" stroke-linejoin="round" stroke-linecap="round" points="42.0,286.0 69.2,132.1 96.3,286.0 123.5,286.0 150.6,286.0 177.8,286.0 204.9,286.0 232.1,286.0 259.2,286.0 286.4,286.0 313.5,286.0 340.7,286.0 367.8,286.0 395.0,286.0 422.1,286.0 449.3,286.0 476.4,286.0 503.6,279.8 530.7,286.0 557.9,286.0 585.0,286.0 612.2,286.0 639.3,286.0 666.5,286.0 693.6,286.0 720.8,286.0 747.9,286.0 775.1,286.0 802.2,286.0 829.4,286.0 856.5,286.0 883.7,286.0 910.8,286.0 938.0,286.0"/><circle cx="42.0" cy="286.0" r="2.5" fill="#ef4444"/><circle cx="69.2" cy="132.1" r="2.5" fill="#ef4444"/><circle cx="96.3" cy="286.0" r="2.5" fill="#ef4444"/><circle cx="123.5" cy="286.0" r="2.5" fill="#ef4444"/><circle cx="150.6" cy="286.0" r="2.5" fill="#ef4444"/><circle cx="177.8" cy="286.0" r="2.5" fill="#ef4444"/><circle cx="204.9" cy="286.0" r="2.5" fill="#ef4444"/><circle cx="232.1" cy="286.0" r="2.5" fill="#ef4444"/><circle cx="259.2" cy="286.0" r="2.5" fill="#ef4444"/><circle cx="286.4" cy="286.0" r="2.5" fill="#ef4444"/><circle cx="313.5" cy="286.0" r="2.5" fill="#ef4444"/><circle cx="340.7" cy="286.0" r="2.5" fill="#ef4444"/><circle cx="367.8" cy="286.0" r="2.5" fill="#ef4444"/><circle cx="395.0" cy="286.0" r="2.5" fill="#ef4444"/><circle cx="422.1" cy="286.0" r="2.5" fill="#ef4444"/><circle cx="449.3" cy="286.0" r="2.5" fill="#ef4444"/><circle cx="476.4" cy="286.0" r="2.5" fill="#ef4444"/><circle cx="503.6" cy="279.8" r="2.5" fill="#ef4444"/><circle cx="530.7" cy="286.0" r="2.5" fill="#ef4444"/><circle cx="557.9" cy="286.0" r="2.5" fill="#ef4444"/><circle cx="585.0" cy="286.0" r="2.5" fill="#ef4444"/><circle cx="612.2" cy="286.0" r="2.5" fill="#ef4444"/><circle cx="639.3" cy="286.0" r="2.5" fill="#ef4444"/><circle cx="666.5" cy="286.0" r="2.5" fill="#ef4444"/><circle cx="693.6" cy="286.0" r="2.5" fill="#ef4444"/><circle cx="720.8" cy="286.0" r="2.5" fill="#ef4444"/><circle cx="747.9" cy="286.0" r="2.5" fill="#ef4444"/><circle cx="775.1" cy="286.0" r="2.5" fill="#ef4444"/><circle cx="802.2" cy="286.0" r="2.5" fill="#ef4444"/><circle cx="829.4" cy="286.0" r="2.5" fill="#ef4444"/><circle cx="856.5" cy="286.0" r="2.5" fill="#ef4444"/><circle cx="883.7" cy="286.0" r="2.5" fill="#ef4444"/><circle cx="910.8" cy="286.0" r="2.5" fill="#ef4444"/><circle cx="938.0" cy="286.0" r="2.5" fill="#ef4444"/><text x="42" y="308" font-size="11" fill="#5a688a">19/06 15:39</text><text x="938" y="308" text-anchor="end" font-size="11" fill="#5a688a">17/07 23:30</text></svg>