<svg xmlns="http://www.w3.org/2000/svg" viewBox="0 0 960 320" width="960" height="320" font-family="Segoe UI, system-ui, -apple-system, Roboto, Helvetica, Arial, sans-serif" role="img" aria-label="Availability history per region"><rect x="0.5" y="0.5" width="959" height="319" rx="14" fill="#ffffff" stroke="#dce3f1"/><text x="42" y="26" font-size="14" font-weight="600" fill="#14203a">History · 25 points</text><circle cx="47" cy="40" r="5" fill="#22c55e"/><text x="57" y="44" font-size="12" fill="#5a688a">Available</text><circle cx="139.8" cy="40" r="5" fill="#f59e0b"/><text x="149.8" y="44" font-size="12" fill="#5a688a">Saturated</text><circle cx="232.60000000000002" cy="40" r="5" fill="#ef4444"/><text x="242.60000000000002" y="44" font-size="12" fill="#5a688a">Error</text><line x1="42" y1="286.0" x2="938" y2="286.0" stroke="#eef2f7" stroke-width="1"/><text x="35" y="289.0" text-anchor="end" font-size="11" fill="#5a688a">0</text><line x1="42" y1="227.5" x2="938" y2="227.5" stroke="#eef2f7" stroke-width="1"/><text x="35" y="230.5" text-anchor="end" font-size="11" fill="#5a688a">10</text><line x1="42" y1="169.0" x2="938" y2="169.0" stroke="#eef2f7" stroke-width="1"/><text x="35" y="172.0" text-anchor="end" font-size="11" fill="#5a688a">19</text><line x1="42" y1="110.5" x2="938" y2="110.5" stroke="#eef2f7" stroke-width="1"/><text x="35" y="113.5" text-anchor="end" font-size="11" fill="#5a688a">28</text><line x1="42" y1="52.0" x2="938" y2="52.0" stroke="#eef2f7" stroke-width="1"/><text x="35" y="55.0" text-anchor="end" font-size="11" fill="#5a688a">38</text><polyline fill="none" stroke="#22c55e" stroke-width="2.5" stroke-linejoin="round" stroke-linecap="round" points="42.0,64.3 79.3,224.4 116.7,82.8 154.0,88.9 191.3,82.8 228.7,76.6 266.0,76.6 303.3,76.6 340.7,76.6 378.0,76.6 415.3,76.6 452.7,76.6 490.0,76.6 527.3,76.6 564.7,76.6 602.0,70.5 639.3,70.5 676.7,82.8 714.0,82.8 751.3,82.8 788.7,88.9 826.0,88.9 863.3,88.9 900.7,88.9 938.0,88.9"/><circle cx="42.0" cy="64.3" r="2.5" fill="#22c55e"/><circle cx="79.3" cy="224.4" r="2.5" fill="#22c55e"/><circle cx="116.7" cy="82.8" r="2.5" fill="#22c55e"/><circle cx="154.0" cy="88.9" r="2.5" fill="#22c55e"/><circle cx="191.3" cy="82.8" r="2.5" fill="#22c55e"/><circle cx="228.7" cy="76.6" r="2.5" fill="#22c55e"/><circle cx="266.0" cy="76.6" r="2.5" fill="#22c55e"/><circle cx="303.3" cy="76.6" r="2.5" fill="#22c55e"/><circle cx="340.7" cy="76.6" r="2.5" fill="#22c55e"/><circle cx="378.0" cy="76.6" r="2.5" fill="#22c55e"/><circle cx="415.3" cy="76.6" r="2.5" fill="#22c55e"/><circle cx="452.7" cy="76.6" r="2.5" fill="#22c55e"/><circle cx="490.0" cy="76.6" r="2.5" fill="#22c55e"/><circle cx="527.3" cy="76.6" r="2.5" fill="#22c55e"/><circle cx="564.7" cy="76.6" r="2.5" fill="#22c55e"/><circle cx="602.0" cy="70.5" r="2.5" fill="#22c55e"/><circle cx="639.3" cy="70.5" r="2.5" fill="#22c55e"/><circle cx="676.7" cy="82.8" r="2.5" fill="#22c55e"/><circle cx="714.0" cy="82.8" r="2.5" fill="#22c55e"/><circle cx="751.3" cy="82.8" r="2.5" fill="#22c55e"/><circle cx="788.7" cy="88.9" r="2.5" fill="#22c55e"/><circle cx="826.0" cy="88.9" r="2.5" fill="#22c55e"/><circle cx="863.3" cy="88.9" r="2.5" fill="#22c55e"/><circle cx="900.7" cy="88.9" r="2.5" fill="#22c55e"/><circle cx="938.0" cy="88.9" r="2.5" fill="#22c55e"/><polyline fill="none" stroke="#f59e0b" stroke-width="2.5" stroke-linejoin="round" stroke-linecap="round" points="42.0,273.7 79.3,267.5 116.7,255.2 154.0,249.1 191.3,255.2 228.7,261.4 266.0,261.4 303.3,261.4 340.7,261.4 378.0,261.4 415.3,261.4 452.7,261.4 490.0,261.4 527.3,261.4 564.7,261.4 602.0,267.5 639.3,267.5 676.7,261.4 714.0,255.2 751.3,255.2 788.7,249.1 826.0,249.1 863.3,249.1 900.7,249.1 938.0,249.1"/><circle cx="42.0" cy="273.7" r="2.5" fill="#f59e0b"/><circle cx="79.3" cy="267.5" r="2.5" fill="#f59e0b"/><circle cx="116.7" cy="255.2" r="2.5" fill="#f59e0b"/><circle cx="154.0" cy="249.1" r="2.5" fill="#f59e0b"/><circle cx="191.3" cy="255.2" r="2.5" fill="#f59e0b"/><circle cx="228.7" cy="261.4" r="2.5" fill="#f59e0b"/><circle cx="266.0" cy="261.4" r="2.5" fill="#f59e0b"/><circle cx="303.3" cy="261.4" r="2.5" fill="#f59e0b"/><circle cx="340.7" cy="261.4" r="2.5" fill="#f59e0b"/><circle cx="378.0" cy="261.4" r="2.5" fill="#f59e0b"/><circle cx="415.3" cy="261.4" r="2.5" fill="#f59e0b"/><circle cx="452.7" cy="261.4" r="2.5" fill="#f59e0b"/><circle cx="490.0" cy="261.4" r="2.5" fill="#f59e0b"/><circle cx="527.3" cy="261.4" r="2.5" fill="#f59e0b"/><circle cx="564.7" cy="261.4" r="2.5" fill="#f59e0b"/><circle cx="602.0" cy="267.5" r="2.5" fill="#f59e0b"/><circle cx="639.3" cy="267.5" r="2.5" fill="#f59e0b"/><circle cx="676.7" cy="261.4" r="2.5" fill="#f59e0b"/><circle cx="714.0" cy="255.2" r="2.5" fill="#f59e0b"/><circle cx="751.3" cy="255.2" r="2.5" fill="#f59e0b"/><circle cx="788.7" cy="249.1" r="2.5" fill="#f59e0b"/><circle cx="826.0" cy="249.1" r="2.5" fill="#f59e0b"/><circle cx="863.3" cy="249.1" r="2.5" fill="#f59e0b"/><circle cx="900.7" cy="249.1" r="2.5" fill="#f59e0b"/><circle cx="938.0" cy="249.1" r="2.5" fill="#f59e0b"/><polyline fill="none" stroke="#ef4444" stroke-width="2.5" stroke-linejoin="round" stroke-linecap="round" points="42.0,286.0 79.3,132.1 116.7,286.0 154.0,286.0 191.3,286.0 228.7,286.0 266.0,286.0 303.3,286.0 340.7,286.0 378.0,286.0 415.3,286.0 452.7,286.0 490.0,286.0 527.3,286.0 564.7,286.0 602.0,286.0 639.3,286.0 676.7,279.8 714.0,286.0 751.3,286.0 788.7,286.0 826.0,286.0 863.3,286.0 900.7,286.0 938.0,286.0"/><circle cx="42.0" cy="286.0" r="2.5" fill="#ef4444"/><circle cx="79.3" cy="132.1" r="2.5" fill="#ef4444"/><circle cx="116.7" cy="286.0" r="2.5" fill="#ef4444"/><circle cx="154.0" cy="286.0" r="2.5" fill="#ef4444"/><circle cx="191.3" cy="286.0" r="2.5" fill="#ef4444"/><circle cx="228.7" cy="286.0" r="2.5" fill="#ef4444"/><circle cx="266.0" cy="286.0" r="2.5" fill="#ef4444"/><circle cx="303.3" cy="286.0" r="2.5" fill="#ef4444"/><circle cx="340.7" cy="286.0" r="2.5" fill="#ef4444"/><circle cx="378.0" cy="286.0" r="2.5" fill="#ef4444"/><circle cx="415.3" cy="286.0" r="2.5" fill="#ef4444"/><circle cx="452.7" cy="286.0" r="2.5" fill="#ef4444"/><circle cx="490.0" cy="286.0" r="2.5" fill="#ef4444"/><circle cx="527.3" cy="286.0" r="2.5" fill="#ef4444"/><circle cx="564.7" cy="286.0" r="2.5" fill="#ef4444"/><circle cx="602.0" cy="286.0" r="2.5" fill="#ef4444"/><circle cx="639.3" cy="286.0" r="2.5" fill="#ef4444"/><circle cx="676.7" cy="279.8" r="2.5" fill="#ef4444"/><circle cx="714.0" cy="286.0" r="2.5" fill="#ef4444"/><circle cx="751.3" cy="286.0" r="2.5" fill="#ef4444"/><circle cx="788.7" cy="286.0" r="2.5" fill="#ef4444"/><circle cx="826.0" cy="286.0" r="2.5" fill="#ef4444"/><circle cx="863.3" cy="286.0" r="2.5" fill="#ef4444"/><circle cx="900.7" cy="286.0" r="2.5" fill="#ef4444"/><circle cx="938.0" cy="286.0" r="2.5" fill="#ef4444"/><text x="42" y="308" font-size="11" fill="#5a688a">19/06 15:39</text><text x="938" y="308" text-anchor="end" font-size="11" fill="#5a688a">17/07 14:30</text></svg>