<svg xmlns="http://www.w3.org/2000/svg" viewBox="0 0 960 320" width="960" height="320" font-family="Segoe UI, system-ui, -apple-system, Roboto, Helvetica, Arial, sans-serif" role="img" aria-label="Availability history per region"><rect x="0.5" y="0.5" width="959" height="319" rx="14" fill="#0d1117" stroke="#2c3a5e"/><text x="42" y="26" font-size="14" font-weight="600" fill="#e6ecff">History · 149 points</text><circle cx="47" cy="40" r="5" fill="#22c55e"/><text x="57" y="44" font-size="12" fill="#9fb0d4">Available</text><circle cx="139.8" cy="40" r="5" fill="#f59e0b"/><text x="149.8" y="44" font-size="12" fill="#9fb0d4">Saturated</text><circle cx="232.60000000000002" cy="40" r="5" fill="#ef4444"/><text x="242.60000000000002" y="44" font-size="12" fill="#9fb0d4">Error</text><circle cx="296.6" cy="40" r="5" fill="#a855f7"/><text x="306.6" y="44" font-size="12" fill="#9fb0d4">Timeout</text><line x1="42" y1="286.0" x2="938" y2="286.0" stroke="#21304f" stroke-width="1"/><text x="35" y="289.0" text-anchor="end" font-size="11" fill="#9fb0d4">0</text><line x1="42" y1="227.5" x2="938" y2="227.5" stroke="#21304f" stroke-width="1"/><text x="35" y="230.5" text-anchor="end" font-size="11" fill="#9fb0d4">10</text><line x1="42" y1="169.0" x2="938" y2="169.0" stroke="#21304f" stroke-width="1"/><text x="35" y="172.0" text-anchor="end" font-size="11" fill="#9fb0d4">20</text><line x1="42" y1="110.5" x2="938" y2="110.5" stroke="#21304f" stroke-width="1"/><text x="35" y="113.5" text-anchor="end" font-size="11" fill="#9fb0d4">29</text><line x1="42" y1="52.0" x2="938" y2="52.0" stroke="#21304f" stroke-width="1"/><text x="35" y="55.0" text-anchor="end" font-size="11" fill="#9fb0d4">39</text><polyline fill="none" stroke="#22c55e" stroke-width="2.5" stroke-linejoin="round" stroke-linecap="round" points="42.0,70.0 48.1,70.0 54.1,88.0 60.2,88.0 66.2,76.0 72.3,76.0 78.3,76.0 84.4,70.0 90.4,76.0 96.5,70.0 102.5,64.0 108.6,58.0 114.6,58.0 120.7,58.0 126.8,58.0 132.8,58.0 138.9,58.0 144.9,58.0 151.0,58.0 157.0,58.0 163.1,58.0 169.1,58.0 175.2,58.0 181.2,58.0 187.3,58.0 193.4,58.0 199.4,58.0 205.5,58.0 211.5,58.0 217.6,58.0 223.6,58.0 229.7,70.0 235.7,76.0 241.8,94.0 247.8,64.0 253.9,64.0 259.9,58.0 266.0,58.0 272.1,58.0 278.1,70.0 284.2,76.0 290.2,76.0 296.3,82.0 302.3,82.0 308.4,82.0 314.4,82.0 320.5,76.0 326.5,64.0 332.6,70.0 338.6,70.0 344.7,82.0 350.8,76.0 356.8,76.0 362.9,82.0 368.9,76.0 375.0,76.0 381.0,76.0 387.1,64.0 393.1,64.0 399.2,76.0 405.2,76.0 411.3,76.0 417.4,88.0 423.4,70.0 429.5,64.0 435.5,58.0 441.6,58.0 447.6,70.0 453.7,70.0 459.7,70.0 465.8,76.0 471.8,70.0 477.9,70.0 483.9,70.0 490.0,70.0 496.1,76.0 502.1,82.0 508.2,76.0 514.2,70.0 520.3,70.0 526.3,70.0 532.4,70.0 538.4,76.0 544.5,70.0 550.5,70.0 556.6,70.0 562.6,70.0 568.7,70.0 574.8,70.0 580.8,70.0 586.9,70.0 592.9,70.0 599.0,70.0 605.0,70.0 611.1,70.0 617.1,70.0 623.2,70.0 629.2,70.0 635.3,70.0 641.4,70.0 647.4,70.0 653.5,70.0 659.5,70.0 665.6,70.0 671.6,70.0 677.7,70.0 683.7,70.0 689.8,70.0 695.8,70.0 701.9,70.0 707.9,70.0 714.0,70.0 720.1,70.0 726.1,70.0 732.2,70.0 738.2,70.0 744.3,70.0 750.3,70.0 756.4,70.0 762.4,70.0 768.5,70.0 774.5,70.0 780.6,70.0 786.6,70.0 792.7,70.0 798.8,70.0 804.8,70.0 810.9,70.0 816.9,70.0 823.0,70.0 829.0,70.0 835.1,70.0 841.1,70.0 847.2,70.0 853.2,70.0 859.3,70.0 865.4,70.0 871.4,70.0 877.5,70.0 883.5,70.0 889.6,70.0 895.6,70.0 901.7,70.0 907.7,70.0 913.8,70.0 919.8,70.0 925.9,70.0 931.9,70.0 938.0,70.0"/><polyline fill="none" stroke="#f59e0b" stroke-width="2.5" stroke-linejoin="round" stroke-linecap="round" points="42.0,274.0 48.1,274.0 54.1,274.0 60.2,280.0 66.2,268.0 72.3,268.0 78.3,268.0 84.4,274.0 90.4,274.0 96.5,274.0 102.5,280.0 108.6,286.0 114.6,286.0 120.7,286.0 126.8,286.0 132.8,286.0 138.9,286.0 144.9,286.0 151.0,286.0 157.0,286.0 163.1,286.0 169.1,286.0 175.2,286.0 181.2,286.0 187.3,286.0 193.4,286.0 199.4,286.0 205.5,286.0 211.5,286.0 217.6,286.0 223.6,286.0 229.7,274.0 235.7,280.0 241.8,280.0 247.8,280.0 253.9,280.0 259.9,286.0 266.0,286.0 272.1,286.0 278.1,274.0 284.2,268.0 290.2,268.0 296.3,262.0 302.3,262.0 308.4,262.0 314.4,262.0 320.5,268.0 326.5,280.0 332.6,280.0 338.6,274.0 344.7,262.0 350.8,268.0 356.8,268.0 362.9,262.0 368.9,268.0 375.0,268.0 381.0,268.0 387.1,280.0 393.1,280.0 399.2,268.0 405.2,268.0 411.3,268.0 417.4,262.0 423.4,274.0 429.5,280.0 435.5,286.0 441.6,286.0 447.6,274.0 453.7,274.0 459.7,274.0 465.8,274.0 471.8,274.0 477.9,274.0 483.9,274.0 490.0,274.0 496.1,280.0 502.1,274.0 508.2,280.0 514.2,286.0 520.3,286.0 526.3,286.0 532.4,286.0 538.4,280.0 544.5,286.0 550.5,286.0 556.6,286.0 562.6,286.0 568.7,286.0 574.8,286.0 580.8,286.0 586.9,286.0 592.9,286.0 599.0,286.0 605.0,286.0 611.1,286.0 617.1,286.0 623.2,286.0 629.2,286.0 635.3,286.0 641.4,286.0 647.4,286.0 653.5,286.0 659.5,286.0 665.6,286.0 671.6,286.0 677.7,286.0 683.7,286.0 689.8,286.0 695.8,286.0 701.9,286.0 707.9,286.0 714.0,286.0 720.1,286.0 726.1,286.0 732.2,286.0 738.2,286.0 744.3,286.0 750.3,286.0 756.4,286.0 762.4,286.0 768.5,286.0 774.5,286.0 780.6,286.0 786.6,286.0 792.7,286.0 798.8,286.0 804.8,286.0 810.9,286.0 816.9,286.0 823.0,286.0 829.0,286.0 835.1,286.0 841.1,286.0 847.2,286.0 853.2,286.0 859.3,286.0 865.4,286.0 871.4,286.0 877.5,286.0 883.5,286.0 889.6,286.0 895.6,286.0 901.7,286.0 907.7,286.0 913.8,286.0 919.8,286.0 925.9,286.0 931.9,286.0 938.0,286.0"/><polyline fill="none" stroke="#ef4444" stroke-width="2.5" stroke-linejoin="round" stroke-linecap="round" points="42.0,280.0 48.1,280.0 54.1,268.0 60.2,262.0 66.2,286.0 72.3,286.0 78.3,286.0 84.4,286.0 90.4,280.0 96.5,286.0 102.5,286.0 108.6,286.0 114.6,286.0 120.7,286.0 126.8,286.0 132.8,286.0 138.9,286.0 144.9,286.0 151.0,286.0 157.0,286.0 163.1,286.0 169.1,286.0 175.2,286.0 181.2,286.0 187.3,286.0 193.4,286.0 199.4,286.0 205.5,286.0 211.5,286.0 217.6,286.0 223.6,286.0 229.7,286.0 235.7,274.0 241.8,256.0 247.8,286.0 253.9,286.0 259.9,286.0 266.0,286.0 272.1,286.0 278.1,286.0 284.2,286.0 290.2,286.0 296.3,286.0 302.3,286.0 308.4,286.0 314.4,286.0 320.5,286.0 326.5,286.0 332.6,280.0 338.6,286.0 344.7,286.0 350.8,286.0 356.8,286.0 362.9,286.0 368.9,286.0 375.0,286.0 381.0,286.0 387.1,286.0 393.1,286.0 399.2,286.0 405.2,286.0 411.3,286.0 417.4,280.0 423.4,286.0 429.5,286.0 435.5,286.0 441.6,286.0 447.6,286.0 453.7,286.0 459.7,286.0 465.8,286.0 471.8,286.0 477.9,286.0 483.9,286.0 490.0,286.0 496.1,274.0 502.1,274.0 508.2,274.0 514.2,274.0 520.3,274.0 526.3,274.0 532.4,274.0 538.4,274.0 544.5,274.0 550.5,274.0 556.6,274.0 562.6,274.0 568.7,274.0 574.8,274.0 580.8,274.0 586.9,274.0 592.9,274.0 599.0,274.0 605.0,274.0 611.1,274.0 617.1,274.0 623.2,274.0 629.2,274.0 635.3,274.0 641.4,274.0 647.4,274.0 653.5,274.0 659.5,274.0 665.6,274.0 671.6,274.0 677.7,274.0 683.7,274.0 689.8,274.0 695.8,274.0 701.9,274.0 707.9,274.0 714.0,274.0 720.1,274.0 726.1,274.0 732.2,274.0 738.2,274.0 744.3,274.0 750.3,274.0 756.4,274.0 762.4,274.0 768.5,274.0 774.5,274.0 780.6,274.0 786.6,274.0 792.7,274.0 798.8,274.0 804.8,274.0 810.9,274.0 816.9,274.0 823.0,274.0 829.0,274.0 835.1,274.0 841.1,274.0 847.2,274.0 853.2,274.0 859.3,274.0 865.4,274.0 871.4,274.0 877.5,274.0 883.5,274.0 889.6,274.0 895.6,274.0 901.7,274.0 907.7,274.0 913.8,274.0 919.8,274.0 925.9,274.0 931.9,274.0 938.0,274.0"/><polyline fill="none" stroke="#a855f7" stroke-width="2.5" stroke-linejoin="round" stroke-linecap="round" points="42.0,286.0 48.1,286.0 54.1,286.0 60.2,286.0 66.2,286.0 72.3,286.0 78.3,286.0 84.4,286.0 90.4,286.0 96.5,286.0 102.5,286.0 108.6,286.0 114.6,286.0 120.7,286.0 126.8,286.0 132.8,286.0 138.9,286.0 144.9,286.0 151.0,286.0 157.0,286.0 163.1,286.0 169.1,286.0 175.2,286.0 181.2,286.0 187.3,286.0 193.4,286.0 199.4,286.0 205.5,286.0 211.5,286.0 217.6,286.0 223.6,286.0 229.7,286.0 235.7,286.0 241.8,286.0 247.8,286.0 253.9,286.0 259.9,286.0 266.0,286.0 272.1,286.0 278.1,286.0 284.2,286.0 290.2,286.0 296.3,286.0 302.3,286.0 308.4,286.0 314.4,286.0 320.5,286.0 326.5,286.0 332.6,286.0 338.6,286.0 344.7,286.0 350.8,286.0 356.8,286.0 362.9,286.0 368.9,286.0 375.0,286.0 381.0,286.0 387.1,286.0 393.1,286.0 399.2,286.0 405.2,286.0 411.3,286.0 417.4,286.0 423.4,286.0 429.5,286.0 435.5,286.0 441.6,286.0 447.6,286.0 453.7,286.0 459.7,286.0 465.8,280.0 471.8,286.0 477.9,286.0 483.9,286.0 490.0,286.0 496.1,286.0 502.1,286.0 508.2,286.0 514.2,286.0 520.3,286.0 526.3,286.0 532.4,286.0 538.4,286.0 544.5,286.0 550.5,286.0 556.6,286.0 562.6,286.0 568.7,286.0 574.8,286.0 580.8,286.0 586.9,286.0 592.9,286.0 599.0,286.0 605.0,286.0 611.1,286.0 617.1,286.0 623.2,286.0 629.2,286.0 635.3,286.0 641.4,286.0 647.4,286.0 653.5,286.0 659.5,286.0 665.6,286.0 671.6,286.0 677.7,286.0 683.7,286.0 689.8,286.0 695.8,286.0 701.9,286.0 707.9,286.0 714.0,286.0 720.1,286.0 726.1,286.0 732.2,286.0 738.2,286.0 744.3,286.0 750.3,286.0 756.4,286.0 762.4,286.0 768.5,286.0 774.5,286.0 780.6,286.0 786.6,286.0 792.7,286.0 798.8,286.0 804.8,286.0 810.9,286.0 816.9,286.0 823.0,286.0 829.0,286.0 835.1,286.0 841.1,286.0 847.2,286.0 853.2,286.0 859.3,286.0 865.4,286.0 871.4,286.0 877.5,286.0 883.5,286.0 889.6,286.0 895.6,286.0 901.7,286.0 907.7,286.0 913.8,286.0 919.8,286.0 925.9,286.0 931.9,286.0 938.0,286.0"/><text x="42" y="308" font-size="11" fill="#9fb0d4">19/06 12:43</text><text x="938" y="308" text-anchor="end" font-size="11" fill="#9fb0d4">29/06 00:31</text></svg>