<svg xmlns="http://www.w3.org/2000/svg" viewBox="0 0 960 320" width="960" height="320" font-family="Segoe UI, system-ui, -apple-system, Roboto, Helvetica, Arial, sans-serif" role="img" aria-label="Availability history per region"><rect x="0.5" y="0.5" width="959" height="319" rx="14" fill="#ffffff" stroke="#dce3f1"/><text x="42" y="26" font-size="14" font-weight="600" fill="#14203a">History · 320 points</text><circle cx="47" cy="40" r="5" fill="#22c55e"/><text x="57" y="44" font-size="12" fill="#5a688a">Available</text><circle cx="139.8" cy="40" r="5" fill="#f59e0b"/><text x="149.8" y="44" font-size="12" fill="#5a688a">Saturated</text><circle cx="232.60000000000002" cy="40" r="5" fill="#ef4444"/><text x="242.60000000000002" y="44" font-size="12" fill="#5a688a">Error</text><circle cx="296.6" cy="40" r="5" fill="#a855f7"/><text x="306.6" y="44" font-size="12" fill="#5a688a">Timeout</text><line x1="42" y1="286.0" x2="938" y2="286.0" stroke="#eef2f7" stroke-width="1"/><text x="35" y="289.0" text-anchor="end" font-size="11" fill="#5a688a">0</text><line x1="42" y1="227.5" x2="938" y2="227.5" stroke="#eef2f7" stroke-width="1"/><text x="35" y="230.5" text-anchor="end" font-size="11" fill="#5a688a">10</text><line x1="42" y1="169.0" x2="938" y2="169.0" stroke="#eef2f7" stroke-width="1"/><text x="35" y="172.0" text-anchor="end" font-size="11" fill="#5a688a">20</text><line x1="42" y1="110.5" x2="938" y2="110.5" stroke="#eef2f7" stroke-width="1"/><text x="35" y="113.5" text-anchor="end" font-size="11" fill="#5a688a">29</text><line x1="42" y1="52.0" x2="938" y2="52.0" stroke="#eef2f7" stroke-width="1"/><text x="35" y="55.0" text-anchor="end" font-size="11" fill="#5a688a">39</text><polyline fill="none" stroke="#22c55e" stroke-width="2.5" stroke-linejoin="round" stroke-linecap="round" points="42.0,70.0 44.8,70.0 47.6,88.0 50.4,88.0 53.2,76.0 56.0,76.0 58.9,76.0 61.7,70.0 64.5,76.0 67.3,70.0 70.1,64.0 72.9,58.0 75.7,58.0 78.5,58.0 81.3,58.0 84.1,58.0 86.9,58.0 89.7,58.0 92.6,58.0 95.4,58.0 98.2,58.0 101.0,58.0 103.8,58.0 106.6,58.0 109.4,58.0 112.2,58.0 115.0,58.0 117.8,58.0 120.6,58.0 123.5,58.0 126.3,58.0 129.1,70.0 131.9,76.0 134.7,94.0 137.5,64.0 140.3,64.0 143.1,58.0 145.9,58.0 148.7,58.0 151.5,70.0 154.4,76.0 157.2,76.0 160.0,82.0 162.8,82.0 165.6,82.0 168.4,82.0 171.2,76.0 174.0,64.0 176.8,70.0 179.6,70.0 182.4,82.0 185.2,76.0 188.1,76.0 190.9,82.0 193.7,76.0 196.5,76.0 199.3,76.0 202.1,64.0 204.9,64.0 207.7,76.0 210.5,76.0 213.3,76.0 216.1,88.0 219.0,70.0 221.8,64.0 224.6,58.0 227.4,58.0 230.2,70.0 233.0,70.0 235.8,70.0 238.6,76.0 241.4,70.0 244.2,70.0 247.0,70.0 249.8,70.0 252.7,76.0 255.5,82.0 258.3,76.0 261.1,70.0 263.9,70.0 266.7,70.0 269.5,70.0 272.3,76.0 275.1,70.0 277.9,70.0 280.7,70.0 283.6,70.0 286.4,70.0 289.2,70.0 292.0,70.0 294.8,70.0 297.6,70.0 300.4,70.0 303.2,70.0 306.0,70.0 308.8,70.0 311.6,70.0 314.5,70.0 317.3,70.0 320.1,70.0 322.9,70.0 325.7,70.0 328.5,70.0 331.3,70.0 334.1,70.0 336.9,70.0 339.7,70.0 342.5,70.0 345.3,70.0 348.2,70.0 351.0,70.0 353.8,70.0 356.6,70.0 359.4,70.0 362.2,70.0 365.0,70.0 367.8,70.0 370.6,70.0 373.4,70.0 376.2,70.0 379.1,70.0 381.9,70.0 384.7,70.0 387.5,70.0 390.3,70.0 393.1,70.0 395.9,70.0 398.7,70.0 401.5,70.0 404.3,70.0 407.1,70.0 409.9,70.0 412.8,70.0 415.6,70.0 418.4,70.0 421.2,70.0 424.0,70.0 426.8,70.0 429.6,70.0 432.4,70.0 435.2,70.0 438.0,70.0 440.8,70.0 443.7,70.0 446.5,70.0 449.3,70.0 452.1,70.0 454.9,70.0 457.7,70.0 460.5,70.0 463.3,70.0 466.1,76.0 468.9,70.0 471.7,70.0 474.6,70.0 477.4,70.0 480.2,70.0 483.0,76.0 485.8,76.0 488.6,88.0 491.4,88.0 494.2,88.0 497.0,94.0 499.8,94.0 502.6,94.0 505.4,94.0 508.3,88.0 511.1,88.0 513.9,82.0 516.7,82.0 519.5,82.0 522.3,88.0 525.1,88.0 527.9,94.0 530.7,82.0 533.5,82.0 536.3,82.0 539.2,82.0 542.0,88.0 544.8,88.0 547.6,94.0 550.4,94.0 553.2,88.0 556.0,88.0 558.8,88.0 561.6,94.0 564.4,94.0 567.2,106.0 570.1,94.0 572.9,94.0 575.7,94.0 578.5,94.0 581.3,88.0 584.1,88.0 586.9,82.0 589.7,76.0 592.5,76.0 595.3,76.0 598.1,76.0 600.9,76.0 603.8,76.0 606.6,70.0 609.4,70.0 612.2,70.0 615.0,76.0 617.8,88.0 620.6,82.0 623.4,70.0 626.2,70.0 629.0,70.0 631.8,76.0 634.7,76.0 637.5,76.0 640.3,82.0 643.1,70.0 645.9,76.0 648.7,64.0 651.5,70.0 654.3,58.0 657.1,58.0 659.9,58.0 662.7,58.0 665.5,58.0 668.4,64.0 671.2,58.0 674.0,64.0 676.8,58.0 679.6,58.0 682.4,58.0 685.2,58.0 688.0,64.0 690.8,64.0 693.6,64.0 696.4,76.0 699.3,70.0 702.1,82.0 704.9,70.0 707.7,76.0 710.5,58.0 713.3,64.0 716.1,58.0 718.9,64.0 721.7,58.0 724.5,58.0 727.3,58.0 730.2,64.0 733.0,70.0 735.8,64.0 738.6,64.0 741.4,64.0 744.2,70.0 747.0,70.0 749.8,64.0 752.6,70.0 755.4,70.0 758.2,70.0 761.0,58.0 763.9,58.0 766.7,58.0 769.5,58.0 772.3,58.0 775.1,64.0 777.9,58.0 780.7,58.0 783.5,58.0 786.3,58.0 789.1,58.0 791.9,58.0 794.8,58.0 797.6,58.0 800.4,64.0 803.2,58.0 806.0,58.0 808.8,58.0 811.6,58.0 814.4,58.0 817.2,58.0 820.0,58.0 822.8,64.0 825.6,58.0 828.5,58.0 831.3,58.0 834.1,58.0 836.9,58.0 839.7,58.0 842.5,58.0 845.3,58.0 848.1,58.0 850.9,58.0 853.7,58.0 856.5,58.0 859.4,58.0 862.2,58.0 865.0,58.0 867.8,58.0 870.6,58.0 873.4,58.0 876.2,58.0 879.0,64.0 881.8,64.0 884.6,58.0 887.4,58.0 890.3,58.0 893.1,64.0 895.9,64.0 898.7,76.0 901.5,64.0 904.3,64.0 907.1,70.0 909.9,58.0 912.7,58.0 915.5,58.0 918.3,58.0 921.1,58.0 924.0,58.0 926.8,70.0 929.6,64.0 932.4,64.0 935.2,64.0 938.0,64.0"/><polyline fill="none" stroke="#f59e0b" stroke-width="2.5" stroke-linejoin="round" stroke-linecap="round" points="42.0,274.0 44.8,274.0 47.6,274.0 50.4,280.0 53.2,268.0 56.0,268.0 58.9,268.0 61.7,274.0 64.5,274.0 67.3,274.0 70.1,280.0 72.9,286.0 75.7,286.0 78.5,286.0 81.3,286.0 84.1,286.0 86.9,286.0 89.7,286.0 92.6,286.0 95.4,286.0 98.2,286.0 101.0,286.0 103.8,286.0 106.6,286.0 109.4,286.0 112.2,286.0 115.0,286.0 117.8,286.0 120.6,286.0 123.5,286.0 126.3,286.0 129.1,274.0 131.9,280.0 134.7,280.0 137.5,280.0 140.3,280.0 143.1,286.0 145.9,286.0 148.7,286.0 151.5,274.0 154.4,268.0 157.2,268.0 160.0,262.0 162.8,262.0 165.6,262.0 168.4,262.0 171.2,268.0 174.0,280.0 176.8,280.0 179.6,274.0 182.4,262.0 185.2,268.0 188.1,268.0 190.9,262.0 193.7,268.0 196.5,268.0 199.3,268.0 202.1,280.0 204.9,280.0 207.7,268.0 210.5,268.0 213.3,268.0 216.1,262.0 219.0,274.0 221.8,280.0 224.6,286.0 227.4,286.0 230.2,274.0 233.0,274.0 235.8,274.0 238.6,274.0 241.4,274.0 244.2,274.0 247.0,274.0 249.8,274.0 252.7,280.0 255.5,274.0 258.3,280.0 261.1,286.0 263.9,286.0 266.7,286.0 269.5,286.0 272.3,280.0 275.1,286.0 277.9,286.0 280.7,286.0 283.6,286.0 286.4,286.0 289.2,286.0 292.0,286.0 294.8,286.0 297.6,286.0 300.4,286.0 303.2,286.0 306.0,286.0 308.8,286.0 311.6,286.0 314.5,286.0 317.3,286.0 320.1,286.0 322.9,286.0 325.7,286.0 328.5,286.0 331.3,286.0 334.1,286.0 336.9,286.0 339.7,286.0 342.5,286.0 345.3,286.0 348.2,286.0 351.0,286.0 353.8,286.0 356.6,286.0 359.4,286.0 362.2,286.0 365.0,286.0 367.8,286.0 370.6,286.0 373.4,286.0 376.2,286.0 379.1,286.0 381.9,286.0 384.7,286.0 387.5,286.0 390.3,286.0 393.1,286.0 395.9,286.0 398.7,286.0 401.5,286.0 404.3,286.0 407.1,286.0 409.9,286.0 412.8,286.0 415.6,286.0 418.4,286.0 421.2,286.0 424.0,286.0 426.8,286.0 429.6,286.0 432.4,286.0 435.2,286.0 438.0,286.0 440.8,286.0 443.7,286.0 446.5,286.0 449.3,286.0 452.1,286.0 454.9,286.0 457.7,286.0 460.5,286.0 463.3,286.0 466.1,286.0 468.9,286.0 471.7,286.0 474.6,286.0 477.4,286.0 480.2,286.0 483.0,286.0 485.8,280.0 488.6,268.0 491.4,268.0 494.2,268.0 497.0,268.0 499.8,262.0 502.6,262.0 505.4,262.0 508.3,268.0 511.1,268.0 513.9,274.0 516.7,274.0 519.5,274.0 522.3,268.0 525.1,268.0 527.9,268.0 530.7,274.0 533.5,274.0 536.3,274.0 539.2,274.0 542.0,268.0 544.8,268.0 547.6,262.0 550.4,262.0 553.2,268.0 556.0,268.0 558.8,268.0 561.6,262.0 564.4,262.0 567.2,274.0 570.1,262.0 572.9,262.0 575.7,262.0 578.5,262.0 581.3,268.0 584.1,268.0 586.9,274.0 589.7,280.0 592.5,280.0 595.3,280.0 598.1,280.0 600.9,280.0 603.8,280.0 606.6,286.0 609.4,286.0 612.2,286.0 615.0,280.0 617.8,274.0 620.6,274.0 623.4,280.0 626.2,274.0 629.0,274.0 631.8,268.0 634.7,268.0 637.5,268.0 640.3,268.0 643.1,280.0 645.9,274.0 648.7,280.0 651.5,280.0 654.3,286.0 657.1,286.0 659.9,286.0 662.7,286.0 665.5,286.0 668.4,286.0 671.2,286.0 674.0,286.0 676.8,286.0 679.6,286.0 682.4,286.0 685.2,286.0 688.0,280.0 690.8,280.0 693.6,280.0 696.4,268.0 699.3,280.0 702.1,268.0 704.9,274.0 707.7,274.0 710.5,286.0 713.3,280.0 716.1,286.0 718.9,280.0 721.7,286.0 724.5,286.0 727.3,286.0 730.2,280.0 733.0,274.0 735.8,280.0 738.6,280.0 741.4,280.0 744.2,274.0 747.0,274.0 749.8,280.0 752.6,280.0 755.4,280.0 758.2,280.0 761.0,286.0 763.9,286.0 766.7,286.0 769.5,286.0 772.3,286.0 775.1,286.0 777.9,286.0 780.7,286.0 783.5,286.0 786.3,286.0 789.1,286.0 791.9,286.0 794.8,286.0 797.6,286.0 800.4,286.0 803.2,286.0 806.0,286.0 808.8,286.0 811.6,286.0 814.4,286.0 817.2,286.0 820.0,286.0 822.8,286.0 825.6,286.0 828.5,286.0 831.3,286.0 834.1,286.0 836.9,286.0 839.7,286.0 842.5,286.0 845.3,286.0 848.1,286.0 850.9,286.0 853.7,286.0 856.5,286.0 859.4,286.0 862.2,286.0 865.0,286.0 867.8,286.0 870.6,286.0 873.4,286.0 876.2,286.0 879.0,286.0 881.8,286.0 884.6,286.0 887.4,286.0 890.3,286.0 893.1,280.0 895.9,280.0 898.7,280.0 901.5,280.0 904.3,280.0 907.1,274.0 909.9,286.0 912.7,286.0 915.5,286.0 918.3,286.0 921.1,286.0 924.0,286.0 926.8,286.0 929.6,280.0 932.4,280.0 935.2,280.0 938.0,280.0"/><polyline fill="none" stroke="#ef4444" stroke-width="2.5" stroke-linejoin="round" stroke-linecap="round" points="42.0,280.0 44.8,280.0 47.6,268.0 50.4,262.0 53.2,286.0 56.0,286.0 58.9,286.0 61.7,286.0 64.5,280.0 67.3,286.0 70.1,286.0 72.9,286.0 75.7,286.0 78.5,286.0 81.3,286.0 84.1,286.0 86.9,286.0 89.7,286.0 92.6,286.0 95.4,286.0 98.2,286.0 101.0,286.0 103.8,286.0 106.6,286.0 109.4,286.0 112.2,286.0 115.0,286.0 117.8,286.0 120.6,286.0 123.5,286.0 126.3,286.0 129.1,286.0 131.9,274.0 134.7,256.0 137.5,286.0 140.3,286.0 143.1,286.0 145.9,286.0 148.7,286.0 151.5,286.0 154.4,286.0 157.2,286.0 160.0,286.0 162.8,286.0 165.6,286.0 168.4,286.0 171.2,286.0 174.0,286.0 176.8,280.0 179.6,286.0 182.4,286.0 185.2,286.0 188.1,286.0 190.9,286.0 193.7,286.0 196.5,286.0 199.3,286.0 202.1,286.0 204.9,286.0 207.7,286.0 210.5,286.0 213.3,286.0 216.1,280.0 219.0,286.0 221.8,286.0 224.6,286.0 227.4,286.0 230.2,286.0 233.0,286.0 235.8,286.0 238.6,286.0 241.4,286.0 244.2,286.0 247.0,286.0 249.8,286.0 252.7,274.0 255.5,274.0 258.3,274.0 261.1,274.0 263.9,274.0 266.7,274.0 269.5,274.0 272.3,274.0 275.1,274.0 277.9,274.0 280.7,274.0 283.6,274.0 286.4,274.0 289.2,274.0 292.0,274.0 294.8,274.0 297.6,274.0 300.4,274.0 303.2,274.0 306.0,274.0 308.8,274.0 311.6,274.0 314.5,274.0 317.3,274.0 320.1,274.0 322.9,274.0 325.7,274.0 328.5,274.0 331.3,274.0 334.1,274.0 336.9,274.0 339.7,274.0 342.5,274.0 345.3,274.0 348.2,274.0 351.0,274.0 353.8,274.0 356.6,274.0 359.4,274.0 362.2,274.0 365.0,274.0 367.8,274.0 370.6,274.0 373.4,274.0 376.2,274.0 379.1,274.0 381.9,274.0 384.7,274.0 387.5,274.0 390.3,274.0 393.1,274.0 395.9,274.0 398.7,274.0 401.5,274.0 404.3,274.0 407.1,274.0 409.9,274.0 412.8,274.0 415.6,274.0 418.4,274.0 421.2,274.0 424.0,274.0 426.8,274.0 429.6,274.0 432.4,274.0 435.2,274.0 438.0,274.0 440.8,274.0 443.7,274.0 446.5,274.0 449.3,274.0 452.1,274.0 454.9,274.0 457.7,274.0 460.5,274.0 463.3,274.0 466.1,268.0 468.9,274.0 471.7,274.0 474.6,274.0 477.4,274.0 480.2,274.0 483.0,274.0 485.8,274.0 488.6,274.0 491.4,274.0 494.2,274.0 497.0,268.0 499.8,274.0 502.6,274.0 505.4,274.0 508.3,274.0 511.1,274.0 513.9,274.0 516.7,274.0 519.5,274.0 522.3,274.0 525.1,274.0 527.9,268.0 530.7,274.0 533.5,274.0 536.3,274.0 539.2,274.0 542.0,274.0 544.8,274.0 547.6,274.0 550.4,274.0 553.2,274.0 556.0,274.0 558.8,274.0 561.6,274.0 564.4,274.0 567.2,250.0 570.1,274.0 572.9,274.0 575.7,274.0 578.5,274.0 581.3,274.0 584.1,274.0 586.9,274.0 589.7,274.0 592.5,274.0 595.3,274.0 598.1,274.0 600.9,274.0 603.8,274.0 606.6,274.0 609.4,274.0 612.2,274.0 615.0,274.0 617.8,268.0 620.6,274.0 623.4,280.0 626.2,286.0 629.0,286.0 631.8,286.0 634.7,286.0 637.5,286.0 640.3,280.0 643.1,280.0 645.9,286.0 648.7,286.0 651.5,280.0 654.3,286.0 657.1,286.0 659.9,286.0 662.7,286.0 665.5,286.0 668.4,280.0 671.2,286.0 674.0,286.0 676.8,286.0 679.6,286.0 682.4,286.0 685.2,286.0 688.0,286.0 690.8,286.0 693.6,286.0 696.4,286.0 699.3,280.0 702.1,280.0 704.9,286.0 707.7,280.0 710.5,286.0 713.3,286.0 716.1,286.0 718.9,286.0 721.7,286.0 724.5,286.0 727.3,286.0 730.2,286.0 733.0,286.0 735.8,286.0 738.6,286.0 741.4,286.0 744.2,286.0 747.0,286.0 749.8,286.0 752.6,280.0 755.4,286.0 758.2,280.0 761.0,286.0 763.9,286.0 766.7,286.0 769.5,286.0 772.3,286.0 775.1,286.0 777.9,286.0 780.7,286.0 783.5,286.0 786.3,286.0 789.1,286.0 791.9,286.0 794.8,286.0 797.6,286.0 800.4,280.0 803.2,286.0 806.0,286.0 808.8,286.0 811.6,286.0 814.4,286.0 817.2,286.0 820.0,286.0 822.8,286.0 825.6,286.0 828.5,286.0 831.3,286.0 834.1,286.0 836.9,286.0 839.7,286.0 842.5,286.0 845.3,286.0 848.1,286.0 850.9,286.0 853.7,286.0 856.5,286.0 859.4,286.0 862.2,286.0 865.0,286.0 867.8,286.0 870.6,286.0 873.4,286.0 876.2,286.0 879.0,280.0 881.8,280.0 884.6,286.0 887.4,286.0 890.3,286.0 893.1,286.0 895.9,286.0 898.7,274.0 901.5,286.0 904.3,286.0 907.1,286.0 909.9,286.0 912.7,286.0 915.5,286.0 918.3,286.0 921.1,286.0 924.0,286.0 926.8,286.0 929.6,286.0 932.4,286.0 935.2,286.0 938.0,286.0"/><polyline fill="none" stroke="#a855f7" stroke-width="2.5" stroke-linejoin="round" stroke-linecap="round" points="42.0,286.0 44.8,286.0 47.6,286.0 50.4,286.0 53.2,286.0 56.0,286.0 58.9,286.0 61.7,286.0 64.5,286.0 67.3,286.0 70.1,286.0 72.9,286.0 75.7,286.0 78.5,286.0 81.3,286.0 84.1,286.0 86.9,286.0 89.7,286.0 92.6,286.0 95.4,286.0 98.2,286.0 101.0,286.0 103.8,286.0 106.6,286.0 109.4,286.0 112.2,286.0 115.0,286.0 117.8,286.0 120.6,286.0 123.5,286.0 126.3,286.0 129.1,286.0 131.9,286.0 134.7,286.0 137.5,286.0 140.3,286.0 143.1,286.0 145.9,286.0 148.7,286.0 151.5,286.0 154.4,286.0 157.2,286.0 160.0,286.0 162.8,286.0 165.6,286.0 168.4,286.0 171.2,286.0 174.0,286.0 176.8,286.0 179.6,286.0 182.4,286.0 185.2,286.0 188.1,286.0 190.9,286.0 193.7,286.0 196.5,286.0 199.3,286.0 202.1,286.0 204.9,286.0 207.7,286.0 210.5,286.0 213.3,286.0 216.1,286.0 219.0,286.0 221.8,286.0 224.6,286.0 227.4,286.0 230.2,286.0 233.0,286.0 235.8,286.0 238.6,280.0 241.4,286.0 244.2,286.0 247.0,286.0 249.8,286.0 252.7,286.0 255.5,286.0 258.3,286.0 261.1,286.0 263.9,286.0 266.7,286.0 269.5,286.0 272.3,286.0 275.1,286.0 277.9,286.0 280.7,286.0 283.6,286.0 286.4,286.0 289.2,286.0 292.0,286.0 294.8,286.0 297.6,286.0 300.4,286.0 303.2,286.0 306.0,286.0 308.8,286.0 311.6,286.0 314.5,286.0 317.3,286.0 320.1,286.0 322.9,286.0 325.7,286.0 328.5,286.0 331.3,286.0 334.1,286.0 336.9,286.0 339.7,286.0 342.5,286.0 345.3,286.0 348.2,286.0 351.0,286.0 353.8,286.0 356.6,286.0 359.4,286.0 362.2,286.0 365.0,286.0 367.8,286.0 370.6,286.0 373.4,286.0 376.2,286.0 379.1,286.0 381.9,286.0 384.7,286.0 387.5,286.0 390.3,286.0 393.1,286.0 395.9,286.0 398.7,286.0 401.5,286.0 404.3,286.0 407.1,286.0 409.9,286.0 412.8,286.0 415.6,286.0 418.4,286.0 421.2,286.0 424.0,286.0 426.8,286.0 429.6,286.0 432.4,286.0 435.2,286.0 438.0,286.0 440.8,286.0 443.7,286.0 446.5,286.0 449.3,286.0 452.1,286.0 454.9,286.0 457.7,286.0 460.5,286.0 463.3,286.0 466.1,286.0 468.9,286.0 471.7,286.0 474.6,286.0 477.4,286.0 480.2,286.0 483.0,280.0 485.8,286.0 488.6,286.0 491.4,286.0 494.2,286.0 497.0,286.0 499.8,286.0 502.6,286.0 505.4,286.0 508.3,286.0 511.1,286.0 513.9,286.0 516.7,286.0 519.5,286.0 522.3,286.0 525.1,286.0 527.9,286.0 530.7,286.0 533.5,286.0 536.3,286.0 539.2,286.0 542.0,286.0 544.8,286.0 547.6,286.0 550.4,286.0 553.2,286.0 556.0,286.0 558.8,286.0 561.6,286.0 564.4,286.0 567.2,286.0 570.1,286.0 572.9,286.0 575.7,286.0 578.5,286.0 581.3,286.0 584.1,286.0 586.9,286.0 589.7,286.0 592.5,286.0 595.3,286.0 598.1,286.0 600.9,286.0 603.8,286.0 606.6,286.0 609.4,286.0 612.2,286.0 615.0,286.0 617.8,286.0 620.6,286.0 623.4,286.0 626.2,286.0 629.0,286.0 631.8,286.0 634.7,286.0 637.5,286.0 640.3,286.0 643.1,286.0 645.9,280.0 648.7,286.0 651.5,286.0 654.3,286.0 657.1,286.0 659.9,286.0 662.7,286.0 665.5,286.0 668.4,286.0 671.2,286.0 674.0,280.0 676.8,286.0 679.6,286.0 682.4,286.0 685.2,286.0 688.0,286.0 690.8,286.0 693.6,286.0 696.4,286.0 699.3,286.0 702.1,286.0 704.9,286.0 707.7,286.0 710.5,286.0 713.3,286.0 716.1,286.0 718.9,286.0 721.7,286.0 724.5,286.0 727.3,286.0 730.2,286.0 733.0,286.0 735.8,286.0 738.6,286.0 741.4,286.0 744.2,286.0 747.0,286.0 749.8,286.0 752.6,286.0 755.4,280.0 758.2,286.0 761.0,286.0 763.9,286.0 766.7,286.0 769.5,286.0 772.3,286.0 775.1,280.0 777.9,286.0 780.7,286.0 783.5,286.0 786.3,286.0 789.1,286.0 791.9,286.0 794.8,286.0 797.6,286.0 800.4,286.0 803.2,286.0 806.0,286.0 808.8,286.0 811.6,286.0 814.4,286.0 817.2,286.0 820.0,286.0 822.8,280.0 825.6,286.0 828.5,286.0 831.3,286.0 834.1,286.0 836.9,286.0 839.7,286.0 842.5,286.0 845.3,286.0 848.1,286.0 850.9,286.0 853.7,286.0 856.5,286.0 859.4,286.0 862.2,286.0 865.0,286.0 867.8,286.0 870.6,286.0 873.4,286.0 876.2,286.0 879.0,286.0 881.8,286.0 884.6,286.0 887.4,286.0 890.3,286.0 893.1,286.0 895.9,286.0 898.7,286.0 901.5,286.0 904.3,286.0 907.1,286.0 909.9,286.0 912.7,286.0 915.5,286.0 918.3,286.0 921.1,286.0 924.0,286.0 926.8,274.0 929.6,286.0 932.4,286.0 935.2,286.0 938.0,286.0"/><text x="42" y="308" font-size="11" fill="#5a688a">19/06 12:43</text><text x="938" y="308" text-anchor="end" font-size="11" fill="#5a688a">07/07 05:30</text></svg>