<svg xmlns="http://www.w3.org/2000/svg" viewBox="0 0 960 320" width="960" height="320" font-family="Segoe UI, system-ui, -apple-system, Roboto, Helvetica, Arial, sans-serif" role="img" aria-label="Availability history per region"><rect x="0.5" y="0.5" width="959" height="319" rx="14" fill="#ffffff" stroke="#dce3f1"/><text x="42" y="26" font-size="14" font-weight="600" fill="#14203a">History · 38 points</text><circle cx="47" cy="40" r="5" fill="#22c55e"/><text x="57" y="44" font-size="12" fill="#5a688a">Available</text><circle cx="139.8" cy="40" r="5" fill="#f59e0b"/><text x="149.8" y="44" font-size="12" fill="#5a688a">Saturated</text><circle cx="232.60000000000002" cy="40" r="5" fill="#ef4444"/><text x="242.60000000000002" y="44" font-size="12" fill="#5a688a">Error</text><line x1="42" y1="286.0" x2="938" y2="286.0" stroke="#eef2f7" stroke-width="1"/><text x="35" y="289.0" text-anchor="end" font-size="11" fill="#5a688a">0</text><line x1="42" y1="227.5" x2="938" y2="227.5" stroke="#eef2f7" stroke-width="1"/><text x="35" y="230.5" text-anchor="end" font-size="11" fill="#5a688a">10</text><line x1="42" y1="169.0" x2="938" y2="169.0" stroke="#eef2f7" stroke-width="1"/><text x="35" y="172.0" text-anchor="end" font-size="11" fill="#5a688a">20</text><line x1="42" y1="110.5" x2="938" y2="110.5" stroke="#eef2f7" stroke-width="1"/><text x="35" y="113.5" text-anchor="end" font-size="11" fill="#5a688a">29</text><line x1="42" y1="52.0" x2="938" y2="52.0" stroke="#eef2f7" stroke-width="1"/><text x="35" y="55.0" text-anchor="end" font-size="11" fill="#5a688a">39</text><polyline fill="none" stroke="#22c55e" stroke-width="2.5" stroke-linejoin="round" stroke-linecap="round" points="42.0,70.0 66.2,70.0 90.4,88.0 114.6,88.0 138.9,76.0 163.1,76.0 187.3,76.0 211.5,70.0 235.7,76.0 259.9,70.0 284.2,64.0 308.4,58.0 332.6,58.0 356.8,58.0 381.0,58.0 405.2,58.0 429.5,58.0 453.7,58.0 477.9,58.0 502.1,58.0 526.3,58.0 550.5,58.0 574.8,58.0 599.0,58.0 623.2,58.0 647.4,58.0 671.6,58.0 695.8,58.0 720.1,58.0 744.3,58.0 768.5,58.0 792.7,70.0 816.9,76.0 841.1,94.0 865.4,64.0 889.6,64.0 913.8,58.0 938.0,58.0"/><circle cx="42.0" cy="70.0" r="2.5" fill="#22c55e"/><circle cx="66.2" cy="70.0" r="2.5" fill="#22c55e"/><circle cx="90.4" cy="88.0" r="2.5" fill="#22c55e"/><circle cx="114.6" cy="88.0" r="2.5" fill="#22c55e"/><circle cx="138.9" cy="76.0" r="2.5" fill="#22c55e"/><circle cx="163.1" cy="76.0" r="2.5" fill="#22c55e"/><circle cx="187.3" cy="76.0" r="2.5" fill="#22c55e"/><circle cx="211.5" cy="70.0" r="2.5" fill="#22c55e"/><circle cx="235.7" cy="76.0" r="2.5" fill="#22c55e"/><circle cx="259.9" cy="70.0" r="2.5" fill="#22c55e"/><circle cx="284.2" cy="64.0" r="2.5" fill="#22c55e"/><circle cx="308.4" cy="58.0" r="2.5" fill="#22c55e"/><circle cx="332.6" cy="58.0" r="2.5" fill="#22c55e"/><circle cx="356.8" cy="58.0" r="2.5" fill="#22c55e"/><circle cx="381.0" cy="58.0" r="2.5" fill="#22c55e"/><circle cx="405.2" cy="58.0" r="2.5" fill="#22c55e"/><circle cx="429.5" cy="58.0" r="2.5" fill="#22c55e"/><circle cx="453.7" cy="58.0" r="2.5" fill="#22c55e"/><circle cx="477.9" cy="58.0" r="2.5" fill="#22c55e"/><circle cx="502.1" cy="58.0" r="2.5" fill="#22c55e"/><circle cx="526.3" cy="58.0" r="2.5" fill="#22c55e"/><circle cx="550.5" cy="58.0" r="2.5" fill="#22c55e"/><circle cx="574.8" cy="58.0" r="2.5" fill="#22c55e"/><circle cx="599.0" cy="58.0" r="2.5" fill="#22c55e"/><circle cx="623.2" cy="58.0" r="2.5" fill="#22c55e"/><circle cx="647.4" cy="58.0" r="2.5" fill="#22c55e"/><circle cx="671.6" cy="58.0" r="2.5" fill="#22c55e"/><circle cx="695.8" cy="58.0" r="2.5" fill="#22c55e"/><circle cx="720.1" cy="58.0" r="2.5" fill="#22c55e"/><circle cx="744.3" cy="58.0" r="2.5" fill="#22c55e"/><circle cx="768.5" cy="58.0" r="2.5" fill="#22c55e"/><circle cx="792.7" cy="70.0" r="2.5" fill="#22c55e"/><circle cx="816.9" cy="76.0" r="2.5" fill="#22c55e"/><circle cx="841.1" cy="94.0" r="2.5" fill="#22c55e"/><circle cx="865.4" cy="64.0" r="2.5" fill="#22c55e"/><circle cx="889.6" cy="64.0" r="2.5" fill="#22c55e"/><circle cx="913.8" cy="58.0" r="2.5" fill="#22c55e"/><circle cx="938.0" cy="58.0" r="2.5" fill="#22c55e"/><polyline fill="none" stroke="#f59e0b" stroke-width="2.5" stroke-linejoin="round" stroke-linecap="round" points="42.0,274.0 66.2,274.0 90.4,274.0 114.6,280.0 138.9,268.0 163.1,268.0 187.3,268.0 211.5,274.0 235.7,274.0 259.9,274.0 284.2,280.0 308.4,286.0 332.6,286.0 356.8,286.0 381.0,286.0 405.2,286.0 429.5,286.0 453.7,286.0 477.9,286.0 502.1,286.0 526.3,286.0 550.5,286.0 574.8,286.0 599.0,286.0 623.2,286.0 647.4,286.0 671.6,286.0 695.8,286.0 720.1,286.0 744.3,286.0 768.5,286.0 792.7,274.0 816.9,280.0 841.1,280.0 865.4,280.0 889.6,280.0 913.8,286.0 938.0,286.0"/><circle cx="42.0" cy="274.0" r="2.5" fill="#f59e0b"/><circle cx="66.2" cy="274.0" r="2.5" fill="#f59e0b"/><circle cx="90.4" cy="274.0" r="2.5" fill="#f59e0b"/><circle cx="114.6" cy="280.0" r="2.5" fill="#f59e0b"/><circle cx="138.9" cy="268.0" r="2.5" fill="#f59e0b"/><circle cx="163.1" cy="268.0" r="2.5" fill="#f59e0b"/><circle cx="187.3" cy="268.0" r="2.5" fill="#f59e0b"/><circle cx="211.5" cy="274.0" r="2.5" fill="#f59e0b"/><circle cx="235.7" cy="274.0" r="2.5" fill="#f59e0b"/><circle cx="259.9" cy="274.0" r="2.5" fill="#f59e0b"/><circle cx="284.2" cy="280.0" r="2.5" fill="#f59e0b"/><circle cx="308.4" cy="286.0" r="2.5" fill="#f59e0b"/><circle cx="332.6" cy="286.0" r="2.5" fill="#f59e0b"/><circle cx="356.8" cy="286.0" r="2.5" fill="#f59e0b"/><circle cx="381.0" cy="286.0" r="2.5" fill="#f59e0b"/><circle cx="405.2" cy="286.0" r="2.5" fill="#f59e0b"/><circle cx="429.5" cy="286.0" r="2.5" fill="#f59e0b"/><circle cx="453.7" cy="286.0" r="2.5" fill="#f59e0b"/><circle cx="477.9" cy="286.0" r="2.5" fill="#f59e0b"/><circle cx="502.1" cy="286.0" r="2.5" fill="#f59e0b"/><circle cx="526.3" cy="286.0" r="2.5" fill="#f59e0b"/><circle cx="550.5" cy="286.0" r="2.5" fill="#f59e0b"/><circle cx="574.8" cy="286.0" r="2.5" fill="#f59e0b"/><circle cx="599.0" cy="286.0" r="2.5" fill="#f59e0b"/><circle cx="623.2" cy="286.0" r="2.5" fill="#f59e0b"/><circle cx="647.4" cy="286.0" r="2.5" fill="#f59e0b"/><circle cx="671.6" cy="286.0" r="2.5" fill="#f59e0b"/><circle cx="695.8" cy="286.0" r="2.5" fill="#f59e0b"/><circle cx="720.1" cy="286.0" r="2.5" fill="#f59e0b"/><circle cx="744.3" cy="286.0" r="2.5" fill="#f59e0b"/><circle cx="768.5" cy="286.0" r="2.5" fill="#f59e0b"/><circle cx="792.7" cy="274.0" r="2.5" fill="#f59e0b"/><circle cx="816.9" cy="280.0" r="2.5" fill="#f59e0b"/><circle cx="841.1" cy="280.0" r="2.5" fill="#f59e0b"/><circle cx="865.4" cy="280.0" r="2.5" fill="#f59e0b"/><circle cx="889.6" cy="280.0" r="2.5" fill="#f59e0b"/><circle cx="913.8" cy="286.0" r="2.5" fill="#f59e0b"/><circle cx="938.0" cy="286.0" r="2.5" fill="#f59e0b"/><polyline fill="none" stroke="#ef4444" stroke-width="2.5" stroke-linejoin="round" stroke-linecap="round" points="42.0,280.0 66.2,280.0 90.4,268.0 114.6,262.0 138.9,286.0 163.1,286.0 187.3,286.0 211.5,286.0 235.7,280.0 259.9,286.0 284.2,286.0 308.4,286.0 332.6,286.0 356.8,286.0 381.0,286.0 405.2,286.0 429.5,286.0 453.7,286.0 477.9,286.0 502.1,286.0 526.3,286.0 550.5,286.0 574.8,286.0 599.0,286.0 623.2,286.0 647.4,286.0 671.6,286.0 695.8,286.0 720.1,286.0 744.3,286.0 768.5,286.0 792.7,286.0 816.9,274.0 841.1,256.0 865.4,286.0 889.6,286.0 913.8,286.0 938.0,286.0"/><circle cx="42.0" cy="280.0" r="2.5" fill="#ef4444"/><circle cx="66.2" cy="280.0" r="2.5" fill="#ef4444"/><circle cx="90.4" cy="268.0" r="2.5" fill="#ef4444"/><circle cx="114.6" cy="262.0" r="2.5" fill="#ef4444"/><circle cx="138.9" cy="286.0" r="2.5" fill="#ef4444"/><circle cx="163.1" cy="286.0" r="2.5" fill="#ef4444"/><circle cx="187.3" cy="286.0" r="2.5" fill="#ef4444"/><circle cx="211.5" cy="286.0" r="2.5" fill="#ef4444"/><circle cx="235.7" cy="280.0" r="2.5" fill="#ef4444"/><circle cx="259.9" cy="286.0" r="2.5" fill="#ef4444"/><circle cx="284.2" cy="286.0" r="2.5" fill="#ef4444"/><circle cx="308.4" cy="286.0" r="2.5" fill="#ef4444"/><circle cx="332.6" cy="286.0" r="2.5" fill="#ef4444"/><circle cx="356.8" cy="286.0" r="2.5" fill="#ef4444"/><circle cx="381.0" cy="286.0" r="2.5" fill="#ef4444"/><circle cx="405.2" cy="286.0" r="2.5" fill="#ef4444"/><circle cx="429.5" cy="286.0" r="2.5" fill="#ef4444"/><circle cx="453.7" cy="286.0" r="2.5" fill="#ef4444"/><circle cx="477.9" cy="286.0" r="2.5" fill="#ef4444"/><circle cx="502.1" cy="286.0" r="2.5" fill="#ef4444"/><circle cx="526.3" cy="286.0" r="2.5" fill="#ef4444"/><circle cx="550.5" cy="286.0" r="2.5" fill="#ef4444"/><circle cx="574.8" cy="286.0" r="2.5" fill="#ef4444"/><circle cx="599.0" cy="286.0" r="2.5" fill="#ef4444"/><circle cx="623.2" cy="286.0" r="2.5" fill="#ef4444"/><circle cx="647.4" cy="286.0" r="2.5" fill="#ef4444"/><circle cx="671.6" cy="286.0" r="2.5" fill="#ef4444"/><circle cx="695.8" cy="286.0" r="2.5" fill="#ef4444"/><circle cx="720.1" cy="286.0" r="2.5" fill="#ef4444"/><circle cx="744.3" cy="286.0" r="2.5" fill="#ef4444"/><circle cx="768.5" cy="286.0" r="2.5" fill="#ef4444"/><circle cx="792.7" cy="286.0" r="2.5" fill="#ef4444"/><circle cx="816.9" cy="274.0" r="2.5" fill="#ef4444"/><circle cx="841.1" cy="256.0" r="2.5" fill="#ef4444"/><circle cx="865.4" cy="286.0" r="2.5" fill="#ef4444"/><circle cx="889.6" cy="286.0" r="2.5" fill="#ef4444"/><circle cx="913.8" cy="286.0" r="2.5" fill="#ef4444"/><circle cx="938.0" cy="286.0" r="2.5" fill="#ef4444"/><text x="42" y="308" font-size="11" fill="#5a688a">19/06 12:43</text><text x="938" y="308" text-anchor="end" font-size="11" fill="#5a688a">23/06 00:04</text></svg>