<svg xmlns="http://www.w3.org/2000/svg" viewBox="0 0 960 320" width="960" height="320" font-family="Segoe UI, system-ui, -apple-system, Roboto, Helvetica, Arial, sans-serif" role="img" aria-label="Availability history per region"><rect x="0.5" y="0.5" width="959" height="319" rx="14" fill="#ffffff" stroke="#dce3f1"/><text x="42" y="26" font-size="14" font-weight="600" fill="#14203a">History · 150 points</text><circle cx="47" cy="40" r="5" fill="#22c55e"/><text x="57" y="44" font-size="12" fill="#5a688a">Available</text><circle cx="139.8" cy="40" r="5" fill="#f59e0b"/><text x="149.8" y="44" font-size="12" fill="#5a688a">Saturated</text><circle cx="232.60000000000002" cy="40" r="5" fill="#ef4444"/><text x="242.60000000000002" y="44" font-size="12" fill="#5a688a">Error</text><circle cx="296.6" cy="40" r="5" fill="#a855f7"/><text x="306.6" y="44" font-size="12" fill="#5a688a">Timeout</text><line x1="42" y1="286.0" x2="938" y2="286.0" stroke="#eef2f7" stroke-width="1"/><text x="35" y="289.0" text-anchor="end" font-size="11" fill="#5a688a">0</text><line x1="42" y1="227.5" x2="938" y2="227.5" stroke="#eef2f7" stroke-width="1"/><text x="35" y="230.5" text-anchor="end" font-size="11" fill="#5a688a">10</text><line x1="42" y1="169.0" x2="938" y2="169.0" stroke="#eef2f7" stroke-width="1"/><text x="35" y="172.0" text-anchor="end" font-size="11" fill="#5a688a">19</text><line x1="42" y1="110.5" x2="938" y2="110.5" stroke="#eef2f7" stroke-width="1"/><text x="35" y="113.5" text-anchor="end" font-size="11" fill="#5a688a">28</text><line x1="42" y1="52.0" x2="938" y2="52.0" stroke="#eef2f7" stroke-width="1"/><text x="35" y="55.0" text-anchor="end" font-size="11" fill="#5a688a">38</text><polyline fill="none" stroke="#22c55e" stroke-width="2.5" stroke-linejoin="round" stroke-linecap="round" points="42.0,64.3 48.0,224.4 54.0,82.8 60.0,88.9 66.1,82.8 72.1,76.6 78.1,76.6 84.1,76.6 90.1,76.6 96.1,76.6 102.1,76.6 108.1,76.6 114.2,76.6 120.2,76.6 126.2,76.6 132.2,70.5 138.2,70.5 144.2,82.8 150.2,82.8 156.3,82.8 162.3,88.9 168.3,88.9 174.3,88.9 180.3,88.9 186.3,88.9 192.3,88.9 198.3,88.9 204.4,88.9 210.4,88.9 216.4,82.8 222.4,82.8 228.4,82.8 234.4,82.8 240.4,76.6 246.5,76.6 252.5,76.6 258.5,76.6 264.5,76.6 270.5,82.8 276.5,82.8 282.5,82.8 288.6,82.8 294.6,76.6 300.6,76.6 306.6,76.6 312.6,76.6 318.6,76.6 324.6,76.6 330.6,76.6 336.7,82.8 342.7,82.8 348.7,82.8 354.7,82.8 360.7,76.6 366.7,76.6 372.7,76.6 378.8,76.6 384.8,76.6 390.8,76.6 396.8,76.6 402.8,76.6 408.8,82.8 414.8,76.6 420.8,76.6 426.9,76.6 432.9,76.6 438.9,76.6 444.9,82.8 450.9,76.6 456.9,76.6 462.9,76.6 469.0,76.6 475.0,76.6 481.0,76.6 487.0,76.6 493.0,76.6 499.0,76.6 505.0,70.5 511.0,70.5 517.1,70.5 523.1,70.5 529.1,76.6 535.1,70.5 541.1,76.6 547.1,76.6 553.1,76.6 559.2,76.6 565.2,76.6 571.2,76.6 577.2,82.8 583.2,88.9 589.2,88.9 595.2,88.9 601.2,88.9 607.3,88.9 613.3,88.9 619.3,88.9 625.3,95.1 631.3,88.9 637.3,88.9 643.3,88.9 649.4,88.9 655.4,88.9 661.4,88.9 667.4,82.8 673.4,82.8 679.4,82.8 685.4,82.8 691.4,82.8 697.5,82.8 703.5,82.8 709.5,82.8 715.5,88.9 721.5,88.9 727.5,88.9 733.5,88.9 739.6,88.9 745.6,88.9 751.6,88.9 757.6,88.9 763.6,95.1 769.6,88.9 775.6,88.9 781.7,88.9 787.7,101.3 793.7,88.9 799.7,88.9 805.7,88.9 811.7,88.9 817.7,82.8 823.7,82.8 829.8,82.8 835.8,82.8 841.8,88.9 847.8,82.8 853.8,88.9 859.8,88.9 865.8,88.9 871.9,88.9 877.9,95.1 883.9,88.9 889.9,88.9 895.9,88.9 901.9,88.9 907.9,88.9 913.9,88.9 920.0,88.9 926.0,88.9 932.0,95.1 938.0,82.8"/><polyline fill="none" stroke="#f59e0b" stroke-width="2.5" stroke-linejoin="round" stroke-linecap="round" points="42.0,273.7 48.0,267.5 54.0,255.2 60.0,249.1 66.1,255.2 72.1,261.4 78.1,261.4 84.1,261.4 90.1,261.4 96.1,261.4 102.1,261.4 108.1,261.4 114.2,261.4 120.2,261.4 126.2,261.4 132.2,267.5 138.2,267.5 144.2,261.4 150.2,255.2 156.3,255.2 162.3,249.1 168.3,249.1 174.3,249.1 180.3,249.1 186.3,249.1 192.3,249.1 198.3,249.1 204.4,249.1 210.4,249.1 216.4,255.2 222.4,255.2 228.4,255.2 234.4,255.2 240.4,261.4 246.5,261.4 252.5,261.4 258.5,261.4 264.5,261.4 270.5,255.2 276.5,255.2 282.5,255.2 288.6,255.2 294.6,261.4 300.6,261.4 306.6,261.4 312.6,261.4 318.6,261.4 324.6,261.4 330.6,261.4 336.7,255.2 342.7,255.2 348.7,255.2 354.7,261.4 360.7,261.4 366.7,261.4 372.7,261.4 378.8,261.4 384.8,261.4 390.8,261.4 396.8,261.4 402.8,261.4 408.8,255.2 414.8,261.4 420.8,261.4 426.9,261.4 432.9,261.4 438.9,261.4 444.9,261.4 450.9,261.4 456.9,261.4 462.9,261.4 469.0,261.4 475.0,261.4 481.0,261.4 487.0,261.4 493.0,261.4 499.0,261.4 505.0,267.5 511.0,267.5 517.1,267.5 523.1,267.5 529.1,267.5 535.1,267.5 541.1,261.4 547.1,261.4 553.1,261.4 559.2,261.4 565.2,261.4 571.2,261.4 577.2,255.2 583.2,249.1 589.2,249.1 595.2,255.2 601.2,249.1 607.3,249.1 613.3,249.1 619.3,249.1 625.3,249.1 631.3,249.1 637.3,255.2 643.3,249.1 649.4,249.1 655.4,249.1 661.4,249.1 667.4,255.2 673.4,255.2 679.4,255.2 685.4,255.2 691.4,255.2 697.5,255.2 703.5,255.2 709.5,255.2 715.5,249.1 721.5,249.1 727.5,249.1 733.5,249.1 739.6,249.1 745.6,249.1 751.6,249.1 757.6,255.2 763.6,249.1 769.6,249.1 775.6,249.1 781.7,249.1 787.7,249.1 793.7,249.1 799.7,249.1 805.7,255.2 811.7,255.2 817.7,255.2 823.7,255.2 829.8,255.2 835.8,255.2 841.8,255.2 847.8,255.2 853.8,249.1 859.8,249.1 865.8,249.1 871.9,249.1 877.9,249.1 883.9,249.1 889.9,249.1 895.9,249.1 901.9,249.1 907.9,249.1 913.9,249.1 920.0,249.1 926.0,249.1 932.0,249.1 938.0,255.2"/><polyline fill="none" stroke="#ef4444" stroke-width="2.5" stroke-linejoin="round" stroke-linecap="round" points="42.0,286.0 48.0,132.1 54.0,286.0 60.0,286.0 66.1,286.0 72.1,286.0 78.1,286.0 84.1,286.0 90.1,286.0 96.1,286.0 102.1,286.0 108.1,286.0 114.2,286.0 120.2,286.0 126.2,286.0 132.2,286.0 138.2,286.0 144.2,279.8 150.2,286.0 156.3,286.0 162.3,286.0 168.3,286.0 174.3,286.0 180.3,286.0 186.3,286.0 192.3,286.0 198.3,286.0 204.4,286.0 210.4,286.0 216.4,286.0 222.4,286.0 228.4,286.0 234.4,286.0 240.4,286.0 246.5,286.0 252.5,286.0 258.5,286.0 264.5,286.0 270.5,286.0 276.5,286.0 282.5,286.0 288.6,286.0 294.6,286.0 300.6,286.0 306.6,286.0 312.6,286.0 318.6,286.0 324.6,286.0 330.6,286.0 336.7,286.0 342.7,286.0 348.7,286.0 354.7,286.0 360.7,286.0 366.7,286.0 372.7,286.0 378.8,286.0 384.8,286.0 390.8,286.0 396.8,286.0 402.8,286.0 408.8,286.0 414.8,286.0 420.8,286.0 426.9,286.0 432.9,286.0 438.9,286.0 444.9,279.8 450.9,286.0 456.9,286.0 462.9,286.0 469.0,286.0 475.0,286.0 481.0,286.0 487.0,286.0 493.0,286.0 499.0,286.0 505.0,286.0 511.0,286.0 517.1,286.0 523.1,286.0 529.1,279.8 535.1,286.0 541.1,286.0 547.1,286.0 553.1,286.0 559.2,286.0 565.2,286.0 571.2,286.0 577.2,286.0 583.2,286.0 589.2,286.0 595.2,279.8 601.2,286.0 607.3,286.0 613.3,286.0 619.3,286.0 625.3,279.8 631.3,286.0 637.3,286.0 643.3,286.0 649.4,286.0 655.4,286.0 661.4,286.0 667.4,286.0 673.4,286.0 679.4,286.0 685.4,286.0 691.4,286.0 697.5,286.0 703.5,286.0 709.5,286.0 715.5,286.0 721.5,286.0 727.5,286.0 733.5,286.0 739.6,286.0 745.6,286.0 751.6,286.0 757.6,286.0 763.6,279.8 769.6,286.0 775.6,286.0 781.7,286.0 787.7,273.7 793.7,286.0 799.7,286.0 805.7,279.8 811.7,279.8 817.7,286.0 823.7,286.0 829.8,286.0 835.8,286.0 841.8,279.8 847.8,286.0 853.8,286.0 859.8,286.0 865.8,286.0 871.9,286.0 877.9,286.0 883.9,286.0 889.9,286.0 895.9,286.0 901.9,286.0 907.9,286.0 913.9,286.0 920.0,286.0 926.0,286.0 932.0,286.0 938.0,286.0"/><polyline fill="none" stroke="#a855f7" stroke-width="2.5" stroke-linejoin="round" stroke-linecap="round" points="42.0,286.0 48.0,286.0 54.0,286.0 60.0,286.0 66.1,286.0 72.1,286.0 78.1,286.0 84.1,286.0 90.1,286.0 96.1,286.0 102.1,286.0 108.1,286.0 114.2,286.0 120.2,286.0 126.2,286.0 132.2,286.0 138.2,286.0 144.2,286.0 150.2,286.0 156.3,286.0 162.3,286.0 168.3,286.0 174.3,286.0 180.3,286.0 186.3,286.0 192.3,286.0 198.3,286.0 204.4,286.0 210.4,286.0 216.4,286.0 222.4,286.0 228.4,286.0 234.4,286.0 240.4,286.0 246.5,286.0 252.5,286.0 258.5,286.0 264.5,286.0 270.5,286.0 276.5,286.0 282.5,286.0 288.6,286.0 294.6,286.0 300.6,286.0 306.6,286.0 312.6,286.0 318.6,286.0 324.6,286.0 330.6,286.0 336.7,286.0 342.7,286.0 348.7,286.0 354.7,279.8 360.7,286.0 366.7,286.0 372.7,286.0 378.8,286.0 384.8,286.0 390.8,286.0 396.8,286.0 402.8,286.0 408.8,286.0 414.8,286.0 420.8,286.0 426.9,286.0 432.9,286.0 438.9,286.0 444.9,286.0 450.9,286.0 456.9,286.0 462.9,286.0 469.0,286.0 475.0,286.0 481.0,286.0 487.0,286.0 493.0,286.0 499.0,286.0 505.0,286.0 511.0,286.0 517.1,286.0 523.1,286.0 529.1,286.0 535.1,286.0 541.1,286.0 547.1,286.0 553.1,286.0 559.2,286.0 565.2,286.0 571.2,286.0 577.2,286.0 583.2,286.0 589.2,286.0 595.2,286.0 601.2,286.0 607.3,286.0 613.3,286.0 619.3,286.0 625.3,286.0 631.3,286.0 637.3,279.8 643.3,286.0 649.4,286.0 655.4,286.0 661.4,286.0 667.4,286.0 673.4,286.0 679.4,286.0 685.4,286.0 691.4,286.0 697.5,286.0 703.5,286.0 709.5,286.0 715.5,286.0 721.5,286.0 727.5,286.0 733.5,286.0 739.6,286.0 745.6,286.0 751.6,286.0 757.6,279.8 763.6,286.0 769.6,286.0 775.6,286.0 781.7,286.0 787.7,286.0 793.7,286.0 799.7,286.0 805.7,286.0 811.7,286.0 817.7,286.0 823.7,286.0 829.8,286.0 835.8,286.0 841.8,286.0 847.8,286.0 853.8,286.0 859.8,286.0 865.8,286.0 871.9,286.0 877.9,279.8 883.9,286.0 889.9,286.0 895.9,286.0 901.9,286.0 907.9,286.0 913.9,286.0 920.0,286.0 926.0,286.0 932.0,279.8 938.0,286.0"/><text x="42" y="308" font-size="11" fill="#5a688a">19/06 15:39</text><text x="938" y="308" text-anchor="end" font-size="11" fill="#5a688a">22/07 20:40</text></svg>