<svg xmlns="http://www.w3.org/2000/svg" viewBox="0 0 960 320" width="960" height="320" font-family="Segoe UI, system-ui, -apple-system, Roboto, Helvetica, Arial, sans-serif" role="img" aria-label="Availability history per region"><rect x="0.5" y="0.5" width="959" height="319" rx="14" fill="#0d1117" stroke="#2c3a5e"/><text x="42" y="26" font-size="14" font-weight="600" fill="#e6ecff">History · 46 points</text><circle cx="47" cy="40" r="5" fill="#22c55e"/><text x="57" y="44" font-size="12" fill="#9fb0d4">Available</text><circle cx="139.8" cy="40" r="5" fill="#f59e0b"/><text x="149.8" y="44" font-size="12" fill="#9fb0d4">Saturated</text><circle cx="232.60000000000002" cy="40" r="5" fill="#ef4444"/><text x="242.60000000000002" y="44" font-size="12" fill="#9fb0d4">Error</text><line x1="42" y1="286.0" x2="938" y2="286.0" stroke="#21304f" stroke-width="1"/><text x="35" y="289.0" text-anchor="end" font-size="11" fill="#9fb0d4">0</text><line x1="42" y1="227.5" x2="938" y2="227.5" stroke="#21304f" stroke-width="1"/><text x="35" y="230.5" text-anchor="end" font-size="11" fill="#9fb0d4">10</text><line x1="42" y1="169.0" x2="938" y2="169.0" stroke="#21304f" stroke-width="1"/><text x="35" y="172.0" text-anchor="end" font-size="11" fill="#9fb0d4">20</text><line x1="42" y1="110.5" x2="938" y2="110.5" stroke="#21304f" stroke-width="1"/><text x="35" y="113.5" text-anchor="end" font-size="11" fill="#9fb0d4">29</text><line x1="42" y1="52.0" x2="938" y2="52.0" stroke="#21304f" stroke-width="1"/><text x="35" y="55.0" text-anchor="end" font-size="11" fill="#9fb0d4">39</text><polyline fill="none" stroke="#22c55e" stroke-width="2.5" stroke-linejoin="round" stroke-linecap="round" points="42.0,70.0 61.9,70.0 81.8,88.0 101.7,88.0 121.6,76.0 141.6,76.0 161.5,76.0 181.4,70.0 201.3,76.0 221.2,70.0 241.1,64.0 261.0,58.0 280.9,58.0 300.8,58.0 320.8,58.0 340.7,58.0 360.6,58.0 380.5,58.0 400.4,58.0 420.3,58.0 440.2,58.0 460.1,58.0 480.0,58.0 500.0,58.0 519.9,58.0 539.8,58.0 559.7,58.0 579.6,58.0 599.5,58.0 619.4,58.0 639.3,58.0 659.2,70.0 679.2,76.0 699.1,94.0 719.0,64.0 738.9,64.0 758.8,58.0 778.7,58.0 798.6,58.0 818.5,70.0 838.4,76.0 858.4,76.0 878.3,82.0 898.2,82.0 918.1,82.0 938.0,82.0"/><circle cx="42.0" cy="70.0" r="2.5" fill="#22c55e"/><circle cx="61.9" cy="70.0" r="2.5" fill="#22c55e"/><circle cx="81.8" cy="88.0" r="2.5" fill="#22c55e"/><circle cx="101.7" cy="88.0" r="2.5" fill="#22c55e"/><circle cx="121.6" cy="76.0" r="2.5" fill="#22c55e"/><circle cx="141.6" cy="76.0" r="2.5" fill="#22c55e"/><circle cx="161.5" cy="76.0" r="2.5" fill="#22c55e"/><circle cx="181.4" cy="70.0" r="2.5" fill="#22c55e"/><circle cx="201.3" cy="76.0" r="2.5" fill="#22c55e"/><circle cx="221.2" cy="70.0" r="2.5" fill="#22c55e"/><circle cx="241.1" cy="64.0" r="2.5" fill="#22c55e"/><circle cx="261.0" cy="58.0" r="2.5" fill="#22c55e"/><circle cx="280.9" cy="58.0" r="2.5" fill="#22c55e"/><circle cx="300.8" cy="58.0" r="2.5" fill="#22c55e"/><circle cx="320.8" cy="58.0" r="2.5" fill="#22c55e"/><circle cx="340.7" cy="58.0" r="2.5" fill="#22c55e"/><circle cx="360.6" cy="58.0" r="2.5" fill="#22c55e"/><circle cx="380.5" cy="58.0" r="2.5" fill="#22c55e"/><circle cx="400.4" cy="58.0" r="2.5" fill="#22c55e"/><circle cx="420.3" cy="58.0" r="2.5" fill="#22c55e"/><circle cx="440.2" cy="58.0" r="2.5" fill="#22c55e"/><circle cx="460.1" cy="58.0" r="2.5" fill="#22c55e"/><circle cx="480.0" cy="58.0" r="2.5" fill="#22c55e"/><circle cx="500.0" cy="58.0" r="2.5" fill="#22c55e"/><circle cx="519.9" cy="58.0" r="2.5" fill="#22c55e"/><circle cx="539.8" cy="58.0" r="2.5" fill="#22c55e"/><circle cx="559.7" cy="58.0" r="2.5" fill="#22c55e"/><circle cx="579.6" cy="58.0" r="2.5" fill="#22c55e"/><circle cx="599.5" cy="58.0" r="2.5" fill="#22c55e"/><circle cx="619.4" cy="58.0" r="2.5" fill="#22c55e"/><circle cx="639.3" cy="58.0" r="2.5" fill="#22c55e"/><circle cx="659.2" cy="70.0" r="2.5" fill="#22c55e"/><circle cx="679.2" cy="76.0" r="2.5" fill="#22c55e"/><circle cx="699.1" cy="94.0" r="2.5" fill="#22c55e"/><circle cx="719.0" cy="64.0" r="2.5" fill="#22c55e"/><circle cx="738.9" cy="64.0" r="2.5" fill="#22c55e"/><circle cx="758.8" cy="58.0" r="2.5" fill="#22c55e"/><circle cx="778.7" cy="58.0" r="2.5" fill="#22c55e"/><circle cx="798.6" cy="58.0" r="2.5" fill="#22c55e"/><circle cx="818.5" cy="70.0" r="2.5" fill="#22c55e"/><circle cx="838.4" cy="76.0" r="2.5" fill="#22c55e"/><circle cx="858.4" cy="76.0" r="2.5" fill="#22c55e"/><circle cx="878.3" cy="82.0" r="2.5" fill="#22c55e"/><circle cx="898.2" cy="82.0" r="2.5" fill="#22c55e"/><circle cx="918.1" cy="82.0" r="2.5" fill="#22c55e"/><circle cx="938.0" cy="82.0" r="2.5" fill="#22c55e"/><polyline fill="none" stroke="#f59e0b" stroke-width="2.5" stroke-linejoin="round" stroke-linecap="round" points="42.0,274.0 61.9,274.0 81.8,274.0 101.7,280.0 121.6,268.0 141.6,268.0 161.5,268.0 181.4,274.0 201.3,274.0 221.2,274.0 241.1,280.0 261.0,286.0 280.9,286.0 300.8,286.0 320.8,286.0 340.7,286.0 360.6,286.0 380.5,286.0 400.4,286.0 420.3,286.0 440.2,286.0 460.1,286.0 480.0,286.0 500.0,286.0 519.9,286.0 539.8,286.0 559.7,286.0 579.6,286.0 599.5,286.0 619.4,286.0 639.3,286.0 659.2,274.0 679.2,280.0 699.1,280.0 719.0,280.0 738.9,280.0 758.8,286.0 778.7,286.0 798.6,286.0 818.5,274.0 838.4,268.0 858.4,268.0 878.3,262.0 898.2,262.0 918.1,262.0 938.0,262.0"/><circle cx="42.0" cy="274.0" r="2.5" fill="#f59e0b"/><circle cx="61.9" cy="274.0" r="2.5" fill="#f59e0b"/><circle cx="81.8" cy="274.0" r="2.5" fill="#f59e0b"/><circle cx="101.7" cy="280.0" r="2.5" fill="#f59e0b"/><circle cx="121.6" cy="268.0" r="2.5" fill="#f59e0b"/><circle cx="141.6" cy="268.0" r="2.5" fill="#f59e0b"/><circle cx="161.5" cy="268.0" r="2.5" fill="#f59e0b"/><circle cx="181.4" cy="274.0" r="2.5" fill="#f59e0b"/><circle cx="201.3" cy="274.0" r="2.5" fill="#f59e0b"/><circle cx="221.2" cy="274.0" r="2.5" fill="#f59e0b"/><circle cx="241.1" cy="280.0" r="2.5" fill="#f59e0b"/><circle cx="261.0" cy="286.0" r="2.5" fill="#f59e0b"/><circle cx="280.9" cy="286.0" r="2.5" fill="#f59e0b"/><circle cx="300.8" cy="286.0" r="2.5" fill="#f59e0b"/><circle cx="320.8" cy="286.0" r="2.5" fill="#f59e0b"/><circle cx="340.7" cy="286.0" r="2.5" fill="#f59e0b"/><circle cx="360.6" cy="286.0" r="2.5" fill="#f59e0b"/><circle cx="380.5" cy="286.0" r="2.5" fill="#f59e0b"/><circle cx="400.4" cy="286.0" r="2.5" fill="#f59e0b"/><circle cx="420.3" cy="286.0" r="2.5" fill="#f59e0b"/><circle cx="440.2" cy="286.0" r="2.5" fill="#f59e0b"/><circle cx="460.1" cy="286.0" r="2.5" fill="#f59e0b"/><circle cx="480.0" cy="286.0" r="2.5" fill="#f59e0b"/><circle cx="500.0" cy="286.0" r="2.5" fill="#f59e0b"/><circle cx="519.9" cy="286.0" r="2.5" fill="#f59e0b"/><circle cx="539.8" cy="286.0" r="2.5" fill="#f59e0b"/><circle cx="559.7" cy="286.0" r="2.5" fill="#f59e0b"/><circle cx="579.6" cy="286.0" r="2.5" fill="#f59e0b"/><circle cx="599.5" cy="286.0" r="2.5" fill="#f59e0b"/><circle cx="619.4" cy="286.0" r="2.5" fill="#f59e0b"/><circle cx="639.3" cy="286.0" r="2.5" fill="#f59e0b"/><circle cx="659.2" cy="274.0" r="2.5" fill="#f59e0b"/><circle cx="679.2" cy="280.0" r="2.5" fill="#f59e0b"/><circle cx="699.1" cy="280.0" r="2.5" fill="#f59e0b"/><circle cx="719.0" cy="280.0" r="2.5" fill="#f59e0b"/><circle cx="738.9" cy="280.0" r="2.5" fill="#f59e0b"/><circle cx="758.8" cy="286.0" r="2.5" fill="#f59e0b"/><circle cx="778.7" cy="286.0" r="2.5" fill="#f59e0b"/><circle cx="798.6" cy="286.0" r="2.5" fill="#f59e0b"/><circle cx="818.5" cy="274.0" r="2.5" fill="#f59e0b"/><circle cx="838.4" cy="268.0" r="2.5" fill="#f59e0b"/><circle cx="858.4" cy="268.0" r="2.5" fill="#f59e0b"/><circle cx="878.3" cy="262.0" r="2.5" fill="#f59e0b"/><circle cx="898.2" cy="262.0" r="2.5" fill="#f59e0b"/><circle cx="918.1" cy="262.0" r="2.5" fill="#f59e0b"/><circle cx="938.0" cy="262.0" r="2.5" fill="#f59e0b"/><polyline fill="none" stroke="#ef4444" stroke-width="2.5" stroke-linejoin="round" stroke-linecap="round" points="42.0,280.0 61.9,280.0 81.8,268.0 101.7,262.0 121.6,286.0 141.6,286.0 161.5,286.0 181.4,286.0 201.3,280.0 221.2,286.0 241.1,286.0 261.0,286.0 280.9,286.0 300.8,286.0 320.8,286.0 340.7,286.0 360.6,286.0 380.5,286.0 400.4,286.0 420.3,286.0 440.2,286.0 460.1,286.0 480.0,286.0 500.0,286.0 519.9,286.0 539.8,286.0 559.7,286.0 579.6,286.0 599.5,286.0 619.4,286.0 639.3,286.0 659.2,286.0 679.2,274.0 699.1,256.0 719.0,286.0 738.9,286.0 758.8,286.0 778.7,286.0 798.6,286.0 818.5,286.0 838.4,286.0 858.4,286.0 878.3,286.0 898.2,286.0 918.1,286.0 938.0,286.0"/><circle cx="42.0" cy="280.0" r="2.5" fill="#ef4444"/><circle cx="61.9" cy="280.0" r="2.5" fill="#ef4444"/><circle cx="81.8" cy="268.0" r="2.5" fill="#ef4444"/><circle cx="101.7" cy="262.0" r="2.5" fill="#ef4444"/><circle cx="121.6" cy="286.0" r="2.5" fill="#ef4444"/><circle cx="141.6" cy="286.0" r="2.5" fill="#ef4444"/><circle cx="161.5" cy="286.0" r="2.5" fill="#ef4444"/><circle cx="181.4" cy="286.0" r="2.5" fill="#ef4444"/><circle cx="201.3" cy="280.0" r="2.5" fill="#ef4444"/><circle cx="221.2" cy="286.0" r="2.5" fill="#ef4444"/><circle cx="241.1" cy="286.0" r="2.5" fill="#ef4444"/><circle cx="261.0" cy="286.0" r="2.5" fill="#ef4444"/><circle cx="280.9" cy="286.0" r="2.5" fill="#ef4444"/><circle cx="300.8" cy="286.0" r="2.5" fill="#ef4444"/><circle cx="320.8" cy="286.0" r="2.5" fill="#ef4444"/><circle cx="340.7" cy="286.0" r="2.5" fill="#ef4444"/><circle cx="360.6" cy="286.0" r="2.5" fill="#ef4444"/><circle cx="380.5" cy="286.0" r="2.5" fill="#ef4444"/><circle cx="400.4" cy="286.0" r="2.5" fill="#ef4444"/><circle cx="420.3" cy="286.0" r="2.5" fill="#ef4444"/><circle cx="440.2" cy="286.0" r="2.5" fill="#ef4444"/><circle cx="460.1" cy="286.0" r="2.5" fill="#ef4444"/><circle cx="480.0" cy="286.0" r="2.5" fill="#ef4444"/><circle cx="500.0" cy="286.0" r="2.5" fill="#ef4444"/><circle cx="519.9" cy="286.0" r="2.5" fill="#ef4444"/><circle cx="539.8" cy="286.0" r="2.5" fill="#ef4444"/><circle cx="559.7" cy="286.0" r="2.5" fill="#ef4444"/><circle cx="579.6" cy="286.0" r="2.5" fill="#ef4444"/><circle cx="599.5" cy="286.0" r="2.5" fill="#ef4444"/><circle cx="619.4" cy="286.0" r="2.5" fill="#ef4444"/><circle cx="639.3" cy="286.0" r="2.5" fill="#ef4444"/><circle cx="659.2" cy="286.0" r="2.5" fill="#ef4444"/><circle cx="679.2" cy="274.0" r="2.5" fill="#ef4444"/><circle cx="699.1" cy="256.0" r="2.5" fill="#ef4444"/><circle cx="719.0" cy="286.0" r="2.5" fill="#ef4444"/><circle cx="738.9" cy="286.0" r="2.5" fill="#ef4444"/><circle cx="758.8" cy="286.0" r="2.5" fill="#ef4444"/><circle cx="778.7" cy="286.0" r="2.5" fill="#ef4444"/><circle cx="798.6" cy="286.0" r="2.5" fill="#ef4444"/><circle cx="818.5" cy="286.0" r="2.5" fill="#ef4444"/><circle cx="838.4" cy="286.0" r="2.5" fill="#ef4444"/><circle cx="858.4" cy="286.0" r="2.5" fill="#ef4444"/><circle cx="878.3" cy="286.0" r="2.5" fill="#ef4444"/><circle cx="898.2" cy="286.0" r="2.5" fill="#ef4444"/><circle cx="918.1" cy="286.0" r="2.5" fill="#ef4444"/><circle cx="938.0" cy="286.0" r="2.5" fill="#ef4444"/><text x="42" y="308" font-size="11" fill="#9fb0d4">19/06 12:43</text><text x="938" y="308" text-anchor="end" font-size="11" fill="#9fb0d4">23/06 18:27</text></svg>