<svg xmlns="http://www.w3.org/2000/svg" viewBox="0 0 960 320" width="960" height="320" font-family="Segoe UI, system-ui, -apple-system, Roboto, Helvetica, Arial, sans-serif" role="img" aria-label="Availability history per region"><rect x="0.5" y="0.5" width="959" height="319" rx="14" fill="#ffffff" stroke="#dce3f1"/><text x="42" y="26" font-size="14" font-weight="600" fill="#14203a">History · 113 points</text><circle cx="47" cy="40" r="5" fill="#22c55e"/><text x="57" y="44" font-size="12" fill="#5a688a">Available</text><circle cx="139.8" cy="40" r="5" fill="#f59e0b"/><text x="149.8" y="44" font-size="12" fill="#5a688a">Saturated</text><circle cx="232.60000000000002" cy="40" r="5" fill="#ef4444"/><text x="242.60000000000002" y="44" font-size="12" fill="#5a688a">Error</text><circle cx="296.6" cy="40" r="5" fill="#a855f7"/><text x="306.6" y="44" font-size="12" fill="#5a688a">Timeout</text><line x1="42" y1="286.0" x2="938" y2="286.0" stroke="#eef2f7" stroke-width="1"/><text x="35" y="289.0" text-anchor="end" font-size="11" fill="#5a688a">0</text><line x1="42" y1="227.5" x2="938" y2="227.5" stroke="#eef2f7" stroke-width="1"/><text x="35" y="230.5" text-anchor="end" font-size="11" fill="#5a688a">10</text><line x1="42" y1="169.0" x2="938" y2="169.0" stroke="#eef2f7" stroke-width="1"/><text x="35" y="172.0" text-anchor="end" font-size="11" fill="#5a688a">20</text><line x1="42" y1="110.5" x2="938" y2="110.5" stroke="#eef2f7" stroke-width="1"/><text x="35" y="113.5" text-anchor="end" font-size="11" fill="#5a688a">29</text><line x1="42" y1="52.0" x2="938" y2="52.0" stroke="#eef2f7" stroke-width="1"/><text x="35" y="55.0" text-anchor="end" font-size="11" fill="#5a688a">39</text><polyline fill="none" stroke="#22c55e" stroke-width="2.5" stroke-linejoin="round" stroke-linecap="round" points="42.0,70.0 50.0,70.0 58.0,88.0 66.0,88.0 74.0,76.0 82.0,76.0 90.0,76.0 98.0,70.0 106.0,76.0 114.0,70.0 122.0,64.0 130.0,58.0 138.0,58.0 146.0,58.0 154.0,58.0 162.0,58.0 170.0,58.0 178.0,58.0 186.0,58.0 194.0,58.0 202.0,58.0 210.0,58.0 218.0,58.0 226.0,58.0 234.0,58.0 242.0,58.0 250.0,58.0 258.0,58.0 266.0,58.0 274.0,58.0 282.0,58.0 290.0,70.0 298.0,76.0 306.0,94.0 314.0,64.0 322.0,64.0 330.0,58.0 338.0,58.0 346.0,58.0 354.0,70.0 362.0,76.0 370.0,76.0 378.0,82.0 386.0,82.0 394.0,82.0 402.0,82.0 410.0,76.0 418.0,64.0 426.0,70.0 434.0,70.0 442.0,82.0 450.0,76.0 458.0,76.0 466.0,82.0 474.0,76.0 482.0,76.0 490.0,76.0 498.0,64.0 506.0,64.0 514.0,76.0 522.0,76.0 530.0,76.0 538.0,88.0 546.0,70.0 554.0,64.0 562.0,58.0 570.0,58.0 578.0,70.0 586.0,70.0 594.0,70.0 602.0,76.0 610.0,70.0 618.0,70.0 626.0,70.0 634.0,70.0 642.0,76.0 650.0,82.0 658.0,76.0 666.0,70.0 674.0,70.0 682.0,70.0 690.0,70.0 698.0,76.0 706.0,70.0 714.0,70.0 722.0,70.0 730.0,70.0 738.0,70.0 746.0,70.0 754.0,70.0 762.0,70.0 770.0,70.0 778.0,70.0 786.0,70.0 794.0,70.0 802.0,70.0 810.0,70.0 818.0,70.0 826.0,70.0 834.0,70.0 842.0,70.0 850.0,70.0 858.0,70.0 866.0,70.0 874.0,70.0 882.0,70.0 890.0,70.0 898.0,70.0 906.0,70.0 914.0,70.0 922.0,70.0 930.0,70.0 938.0,70.0"/><polyline fill="none" stroke="#f59e0b" stroke-width="2.5" stroke-linejoin="round" stroke-linecap="round" points="42.0,274.0 50.0,274.0 58.0,274.0 66.0,280.0 74.0,268.0 82.0,268.0 90.0,268.0 98.0,274.0 106.0,274.0 114.0,274.0 122.0,280.0 130.0,286.0 138.0,286.0 146.0,286.0 154.0,286.0 162.0,286.0 170.0,286.0 178.0,286.0 186.0,286.0 194.0,286.0 202.0,286.0 210.0,286.0 218.0,286.0 226.0,286.0 234.0,286.0 242.0,286.0 250.0,286.0 258.0,286.0 266.0,286.0 274.0,286.0 282.0,286.0 290.0,274.0 298.0,280.0 306.0,280.0 314.0,280.0 322.0,280.0 330.0,286.0 338.0,286.0 346.0,286.0 354.0,274.0 362.0,268.0 370.0,268.0 378.0,262.0 386.0,262.0 394.0,262.0 402.0,262.0 410.0,268.0 418.0,280.0 426.0,280.0 434.0,274.0 442.0,262.0 450.0,268.0 458.0,268.0 466.0,262.0 474.0,268.0 482.0,268.0 490.0,268.0 498.0,280.0 506.0,280.0 514.0,268.0 522.0,268.0 530.0,268.0 538.0,262.0 546.0,274.0 554.0,280.0 562.0,286.0 570.0,286.0 578.0,274.0 586.0,274.0 594.0,274.0 602.0,274.0 610.0,274.0 618.0,274.0 626.0,274.0 634.0,274.0 642.0,280.0 650.0,274.0 658.0,280.0 666.0,286.0 674.0,286.0 682.0,286.0 690.0,286.0 698.0,280.0 706.0,286.0 714.0,286.0 722.0,286.0 730.0,286.0 738.0,286.0 746.0,286.0 754.0,286.0 762.0,286.0 770.0,286.0 778.0,286.0 786.0,286.0 794.0,286.0 802.0,286.0 810.0,286.0 818.0,286.0 826.0,286.0 834.0,286.0 842.0,286.0 850.0,286.0 858.0,286.0 866.0,286.0 874.0,286.0 882.0,286.0 890.0,286.0 898.0,286.0 906.0,286.0 914.0,286.0 922.0,286.0 930.0,286.0 938.0,286.0"/><polyline fill="none" stroke="#ef4444" stroke-width="2.5" stroke-linejoin="round" stroke-linecap="round" points="42.0,280.0 50.0,280.0 58.0,268.0 66.0,262.0 74.0,286.0 82.0,286.0 90.0,286.0 98.0,286.0 106.0,280.0 114.0,286.0 122.0,286.0 130.0,286.0 138.0,286.0 146.0,286.0 154.0,286.0 162.0,286.0 170.0,286.0 178.0,286.0 186.0,286.0 194.0,286.0 202.0,286.0 210.0,286.0 218.0,286.0 226.0,286.0 234.0,286.0 242.0,286.0 250.0,286.0 258.0,286.0 266.0,286.0 274.0,286.0 282.0,286.0 290.0,286.0 298.0,274.0 306.0,256.0 314.0,286.0 322.0,286.0 330.0,286.0 338.0,286.0 346.0,286.0 354.0,286.0 362.0,286.0 370.0,286.0 378.0,286.0 386.0,286.0 394.0,286.0 402.0,286.0 410.0,286.0 418.0,286.0 426.0,280.0 434.0,286.0 442.0,286.0 450.0,286.0 458.0,286.0 466.0,286.0 474.0,286.0 482.0,286.0 490.0,286.0 498.0,286.0 506.0,286.0 514.0,286.0 522.0,286.0 530.0,286.0 538.0,280.0 546.0,286.0 554.0,286.0 562.0,286.0 570.0,286.0 578.0,286.0 586.0,286.0 594.0,286.0 602.0,286.0 610.0,286.0 618.0,286.0 626.0,286.0 634.0,286.0 642.0,274.0 650.0,274.0 658.0,274.0 666.0,274.0 674.0,274.0 682.0,274.0 690.0,274.0 698.0,274.0 706.0,274.0 714.0,274.0 722.0,274.0 730.0,274.0 738.0,274.0 746.0,274.0 754.0,274.0 762.0,274.0 770.0,274.0 778.0,274.0 786.0,274.0 794.0,274.0 802.0,274.0 810.0,274.0 818.0,274.0 826.0,274.0 834.0,274.0 842.0,274.0 850.0,274.0 858.0,274.0 866.0,274.0 874.0,274.0 882.0,274.0 890.0,274.0 898.0,274.0 906.0,274.0 914.0,274.0 922.0,274.0 930.0,274.0 938.0,274.0"/><polyline fill="none" stroke="#a855f7" stroke-width="2.5" stroke-linejoin="round" stroke-linecap="round" points="42.0,286.0 50.0,286.0 58.0,286.0 66.0,286.0 74.0,286.0 82.0,286.0 90.0,286.0 98.0,286.0 106.0,286.0 114.0,286.0 122.0,286.0 130.0,286.0 138.0,286.0 146.0,286.0 154.0,286.0 162.0,286.0 170.0,286.0 178.0,286.0 186.0,286.0 194.0,286.0 202.0,286.0 210.0,286.0 218.0,286.0 226.0,286.0 234.0,286.0 242.0,286.0 250.0,286.0 258.0,286.0 266.0,286.0 274.0,286.0 282.0,286.0 290.0,286.0 298.0,286.0 306.0,286.0 314.0,286.0 322.0,286.0 330.0,286.0 338.0,286.0 346.0,286.0 354.0,286.0 362.0,286.0 370.0,286.0 378.0,286.0 386.0,286.0 394.0,286.0 402.0,286.0 410.0,286.0 418.0,286.0 426.0,286.0 434.0,286.0 442.0,286.0 450.0,286.0 458.0,286.0 466.0,286.0 474.0,286.0 482.0,286.0 490.0,286.0 498.0,286.0 506.0,286.0 514.0,286.0 522.0,286.0 530.0,286.0 538.0,286.0 546.0,286.0 554.0,286.0 562.0,286.0 570.0,286.0 578.0,286.0 586.0,286.0 594.0,286.0 602.0,280.0 610.0,286.0 618.0,286.0 626.0,286.0 634.0,286.0 642.0,286.0 650.0,286.0 658.0,286.0 666.0,286.0 674.0,286.0 682.0,286.0 690.0,286.0 698.0,286.0 706.0,286.0 714.0,286.0 722.0,286.0 730.0,286.0 738.0,286.0 746.0,286.0 754.0,286.0 762.0,286.0 770.0,286.0 778.0,286.0 786.0,286.0 794.0,286.0 802.0,286.0 810.0,286.0 818.0,286.0 826.0,286.0 834.0,286.0 842.0,286.0 850.0,286.0 858.0,286.0 866.0,286.0 874.0,286.0 882.0,286.0 890.0,286.0 898.0,286.0 906.0,286.0 914.0,286.0 922.0,286.0 930.0,286.0 938.0,286.0"/><text x="42" y="308" font-size="11" fill="#5a688a">19/06 12:43</text><text x="938" y="308" text-anchor="end" font-size="11" fill="#5a688a">27/06 22:32</text></svg>