<svg xmlns="http://www.w3.org/2000/svg" viewBox="0 0 960 320" width="960" height="320" font-family="Segoe UI, system-ui, -apple-system, Roboto, Helvetica, Arial, sans-serif" role="img" aria-label="Availability history per region"><rect x="0.5" y="0.5" width="959" height="319" rx="14" fill="#0d1117" stroke="#2c3a5e"/><text x="42" y="26" font-size="14" font-weight="600" fill="#e6ecff">History · 300 points</text><circle cx="47" cy="40" r="5" fill="#22c55e"/><text x="57" y="44" font-size="12" fill="#9fb0d4">Available</text><circle cx="139.8" cy="40" r="5" fill="#f59e0b"/><text x="149.8" y="44" font-size="12" fill="#9fb0d4">Saturated</text><circle cx="232.60000000000002" cy="40" r="5" fill="#ef4444"/><text x="242.60000000000002" y="44" font-size="12" fill="#9fb0d4">Error</text><circle cx="296.6" cy="40" r="5" fill="#a855f7"/><text x="306.6" y="44" font-size="12" fill="#9fb0d4">Timeout</text><line x1="42" y1="286.0" x2="938" y2="286.0" stroke="#21304f" stroke-width="1"/><text x="35" y="289.0" text-anchor="end" font-size="11" fill="#9fb0d4">0</text><line x1="42" y1="227.5" x2="938" y2="227.5" stroke="#21304f" stroke-width="1"/><text x="35" y="230.5" text-anchor="end" font-size="11" fill="#9fb0d4">10</text><line x1="42" y1="169.0" x2="938" y2="169.0" stroke="#21304f" stroke-width="1"/><text x="35" y="172.0" text-anchor="end" font-size="11" fill="#9fb0d4">20</text><line x1="42" y1="110.5" x2="938" y2="110.5" stroke="#21304f" stroke-width="1"/><text x="35" y="113.5" text-anchor="end" font-size="11" fill="#9fb0d4">29</text><line x1="42" y1="52.0" x2="938" y2="52.0" stroke="#21304f" stroke-width="1"/><text x="35" y="55.0" text-anchor="end" font-size="11" fill="#9fb0d4">39</text><polyline fill="none" stroke="#22c55e" stroke-width="2.5" stroke-linejoin="round" stroke-linecap="round" points="42.0,70.0 45.0,70.0 48.0,88.0 51.0,88.0 54.0,76.0 57.0,76.0 60.0,76.0 63.0,70.0 66.0,76.0 69.0,70.0 72.0,64.0 75.0,58.0 78.0,58.0 81.0,58.0 84.0,58.0 86.9,58.0 89.9,58.0 92.9,58.0 95.9,58.0 98.9,58.0 101.9,58.0 104.9,58.0 107.9,58.0 110.9,58.0 113.9,58.0 116.9,58.0 119.9,58.0 122.9,58.0 125.9,58.0 128.9,58.0 131.9,58.0 134.9,70.0 137.9,76.0 140.9,94.0 143.9,64.0 146.9,64.0 149.9,58.0 152.9,58.0 155.9,58.0 158.9,70.0 161.9,76.0 164.9,76.0 167.9,82.0 170.9,82.0 173.9,82.0 176.8,82.0 179.8,76.0 182.8,64.0 185.8,70.0 188.8,70.0 191.8,82.0 194.8,76.0 197.8,76.0 200.8,82.0 203.8,76.0 206.8,76.0 209.8,76.0 212.8,64.0 215.8,64.0 218.8,76.0 221.8,76.0 224.8,76.0 227.8,88.0 230.8,70.0 233.8,64.0 236.8,58.0 239.8,58.0 242.8,70.0 245.8,70.0 248.8,70.0 251.8,76.0 254.8,70.0 257.8,70.0 260.8,70.0 263.8,70.0 266.7,76.0 269.7,82.0 272.7,76.0 275.7,70.0 278.7,70.0 281.7,70.0 284.7,70.0 287.7,76.0 290.7,70.0 293.7,70.0 296.7,70.0 299.7,70.0 302.7,70.0 305.7,70.0 308.7,70.0 311.7,70.0 314.7,70.0 317.7,70.0 320.7,70.0 323.7,70.0 326.7,70.0 329.7,70.0 332.7,70.0 335.7,70.0 338.7,70.0 341.7,70.0 344.7,70.0 347.7,70.0 350.7,70.0 353.7,70.0 356.6,70.0 359.6,70.0 362.6,70.0 365.6,70.0 368.6,70.0 371.6,70.0 374.6,70.0 377.6,70.0 380.6,70.0 383.6,70.0 386.6,70.0 389.6,70.0 392.6,70.0 395.6,70.0 398.6,70.0 401.6,70.0 404.6,70.0 407.6,70.0 410.6,70.0 413.6,70.0 416.6,70.0 419.6,70.0 422.6,70.0 425.6,70.0 428.6,70.0 431.6,70.0 434.6,70.0 437.6,70.0 440.6,70.0 443.6,70.0 446.5,70.0 449.5,70.0 452.5,70.0 455.5,70.0 458.5,70.0 461.5,70.0 464.5,70.0 467.5,70.0 470.5,70.0 473.5,70.0 476.5,70.0 479.5,70.0 482.5,70.0 485.5,70.0 488.5,70.0 491.5,70.0 494.5,76.0 497.5,70.0 500.5,70.0 503.5,70.0 506.5,70.0 509.5,70.0 512.5,76.0 515.5,76.0 518.5,88.0 521.5,88.0 524.5,88.0 527.5,94.0 530.5,94.0 533.5,94.0 536.4,94.0 539.4,88.0 542.4,88.0 545.4,82.0 548.4,82.0 551.4,82.0 554.4,88.0 557.4,88.0 560.4,94.0 563.4,82.0 566.4,82.0 569.4,82.0 572.4,82.0 575.4,88.0 578.4,88.0 581.4,94.0 584.4,94.0 587.4,88.0 590.4,88.0 593.4,88.0 596.4,94.0 599.4,94.0 602.4,106.0 605.4,94.0 608.4,94.0 611.4,94.0 614.4,94.0 617.4,88.0 620.4,88.0 623.4,82.0 626.3,76.0 629.3,76.0 632.3,76.0 635.3,76.0 638.3,76.0 641.3,76.0 644.3,70.0 647.3,70.0 650.3,70.0 653.3,76.0 656.3,88.0 659.3,82.0 662.3,70.0 665.3,70.0 668.3,70.0 671.3,76.0 674.3,76.0 677.3,76.0 680.3,82.0 683.3,70.0 686.3,76.0 689.3,64.0 692.3,70.0 695.3,58.0 698.3,58.0 701.3,58.0 704.3,58.0 707.3,58.0 710.3,64.0 713.3,58.0 716.2,64.0 719.2,58.0 722.2,58.0 725.2,58.0 728.2,58.0 731.2,64.0 734.2,64.0 737.2,64.0 740.2,76.0 743.2,70.0 746.2,82.0 749.2,70.0 752.2,76.0 755.2,58.0 758.2,64.0 761.2,58.0 764.2,64.0 767.2,58.0 770.2,58.0 773.2,58.0 776.2,64.0 779.2,70.0 782.2,64.0 785.2,64.0 788.2,64.0 791.2,70.0 794.2,70.0 797.2,64.0 800.2,70.0 803.2,70.0 806.1,70.0 809.1,58.0 812.1,58.0 815.1,58.0 818.1,58.0 821.1,58.0 824.1,64.0 827.1,58.0 830.1,58.0 833.1,58.0 836.1,58.0 839.1,58.0 842.1,58.0 845.1,58.0 848.1,58.0 851.1,64.0 854.1,58.0 857.1,58.0 860.1,58.0 863.1,58.0 866.1,58.0 869.1,58.0 872.1,58.0 875.1,64.0 878.1,58.0 881.1,58.0 884.1,58.0 887.1,58.0 890.1,58.0 893.1,58.0 896.0,58.0 899.0,58.0 902.0,58.0 905.0,58.0 908.0,58.0 911.0,58.0 914.0,58.0 917.0,58.0 920.0,58.0 923.0,58.0 926.0,58.0 929.0,58.0 932.0,58.0 935.0,64.0 938.0,64.0"/><polyline fill="none" stroke="#f59e0b" stroke-width="2.5" stroke-linejoin="round" stroke-linecap="round" points="42.0,274.0 45.0,274.0 48.0,274.0 51.0,280.0 54.0,268.0 57.0,268.0 60.0,268.0 63.0,274.0 66.0,274.0 69.0,274.0 72.0,280.0 75.0,286.0 78.0,286.0 81.0,286.0 84.0,286.0 86.9,286.0 89.9,286.0 92.9,286.0 95.9,286.0 98.9,286.0 101.9,286.0 104.9,286.0 107.9,286.0 110.9,286.0 113.9,286.0 116.9,286.0 119.9,286.0 122.9,286.0 125.9,286.0 128.9,286.0 131.9,286.0 134.9,274.0 137.9,280.0 140.9,280.0 143.9,280.0 146.9,280.0 149.9,286.0 152.9,286.0 155.9,286.0 158.9,274.0 161.9,268.0 164.9,268.0 167.9,262.0 170.9,262.0 173.9,262.0 176.8,262.0 179.8,268.0 182.8,280.0 185.8,280.0 188.8,274.0 191.8,262.0 194.8,268.0 197.8,268.0 200.8,262.0 203.8,268.0 206.8,268.0 209.8,268.0 212.8,280.0 215.8,280.0 218.8,268.0 221.8,268.0 224.8,268.0 227.8,262.0 230.8,274.0 233.8,280.0 236.8,286.0 239.8,286.0 242.8,274.0 245.8,274.0 248.8,274.0 251.8,274.0 254.8,274.0 257.8,274.0 260.8,274.0 263.8,274.0 266.7,280.0 269.7,274.0 272.7,280.0 275.7,286.0 278.7,286.0 281.7,286.0 284.7,286.0 287.7,280.0 290.7,286.0 293.7,286.0 296.7,286.0 299.7,286.0 302.7,286.0 305.7,286.0 308.7,286.0 311.7,286.0 314.7,286.0 317.7,286.0 320.7,286.0 323.7,286.0 326.7,286.0 329.7,286.0 332.7,286.0 335.7,286.0 338.7,286.0 341.7,286.0 344.7,286.0 347.7,286.0 350.7,286.0 353.7,286.0 356.6,286.0 359.6,286.0 362.6,286.0 365.6,286.0 368.6,286.0 371.6,286.0 374.6,286.0 377.6,286.0 380.6,286.0 383.6,286.0 386.6,286.0 389.6,286.0 392.6,286.0 395.6,286.0 398.6,286.0 401.6,286.0 404.6,286.0 407.6,286.0 410.6,286.0 413.6,286.0 416.6,286.0 419.6,286.0 422.6,286.0 425.6,286.0 428.6,286.0 431.6,286.0 434.6,286.0 437.6,286.0 440.6,286.0 443.6,286.0 446.5,286.0 449.5,286.0 452.5,286.0 455.5,286.0 458.5,286.0 461.5,286.0 464.5,286.0 467.5,286.0 470.5,286.0 473.5,286.0 476.5,286.0 479.5,286.0 482.5,286.0 485.5,286.0 488.5,286.0 491.5,286.0 494.5,286.0 497.5,286.0 500.5,286.0 503.5,286.0 506.5,286.0 509.5,286.0 512.5,286.0 515.5,280.0 518.5,268.0 521.5,268.0 524.5,268.0 527.5,268.0 530.5,262.0 533.5,262.0 536.4,262.0 539.4,268.0 542.4,268.0 545.4,274.0 548.4,274.0 551.4,274.0 554.4,268.0 557.4,268.0 560.4,268.0 563.4,274.0 566.4,274.0 569.4,274.0 572.4,274.0 575.4,268.0 578.4,268.0 581.4,262.0 584.4,262.0 587.4,268.0 590.4,268.0 593.4,268.0 596.4,262.0 599.4,262.0 602.4,274.0 605.4,262.0 608.4,262.0 611.4,262.0 614.4,262.0 617.4,268.0 620.4,268.0 623.4,274.0 626.3,280.0 629.3,280.0 632.3,280.0 635.3,280.0 638.3,280.0 641.3,280.0 644.3,286.0 647.3,286.0 650.3,286.0 653.3,280.0 656.3,274.0 659.3,274.0 662.3,280.0 665.3,274.0 668.3,274.0 671.3,268.0 674.3,268.0 677.3,268.0 680.3,268.0 683.3,280.0 686.3,274.0 689.3,280.0 692.3,280.0 695.3,286.0 698.3,286.0 701.3,286.0 704.3,286.0 707.3,286.0 710.3,286.0 713.3,286.0 716.2,286.0 719.2,286.0 722.2,286.0 725.2,286.0 728.2,286.0 731.2,280.0 734.2,280.0 737.2,280.0 740.2,268.0 743.2,280.0 746.2,268.0 749.2,274.0 752.2,274.0 755.2,286.0 758.2,280.0 761.2,286.0 764.2,280.0 767.2,286.0 770.2,286.0 773.2,286.0 776.2,280.0 779.2,274.0 782.2,280.0 785.2,280.0 788.2,280.0 791.2,274.0 794.2,274.0 797.2,280.0 800.2,280.0 803.2,280.0 806.1,280.0 809.1,286.0 812.1,286.0 815.1,286.0 818.1,286.0 821.1,286.0 824.1,286.0 827.1,286.0 830.1,286.0 833.1,286.0 836.1,286.0 839.1,286.0 842.1,286.0 845.1,286.0 848.1,286.0 851.1,286.0 854.1,286.0 857.1,286.0 860.1,286.0 863.1,286.0 866.1,286.0 869.1,286.0 872.1,286.0 875.1,286.0 878.1,286.0 881.1,286.0 884.1,286.0 887.1,286.0 890.1,286.0 893.1,286.0 896.0,286.0 899.0,286.0 902.0,286.0 905.0,286.0 908.0,286.0 911.0,286.0 914.0,286.0 917.0,286.0 920.0,286.0 923.0,286.0 926.0,286.0 929.0,286.0 932.0,286.0 935.0,286.0 938.0,286.0"/><polyline fill="none" stroke="#ef4444" stroke-width="2.5" stroke-linejoin="round" stroke-linecap="round" points="42.0,280.0 45.0,280.0 48.0,268.0 51.0,262.0 54.0,286.0 57.0,286.0 60.0,286.0 63.0,286.0 66.0,280.0 69.0,286.0 72.0,286.0 75.0,286.0 78.0,286.0 81.0,286.0 84.0,286.0 86.9,286.0 89.9,286.0 92.9,286.0 95.9,286.0 98.9,286.0 101.9,286.0 104.9,286.0 107.9,286.0 110.9,286.0 113.9,286.0 116.9,286.0 119.9,286.0 122.9,286.0 125.9,286.0 128.9,286.0 131.9,286.0 134.9,286.0 137.9,274.0 140.9,256.0 143.9,286.0 146.9,286.0 149.9,286.0 152.9,286.0 155.9,286.0 158.9,286.0 161.9,286.0 164.9,286.0 167.9,286.0 170.9,286.0 173.9,286.0 176.8,286.0 179.8,286.0 182.8,286.0 185.8,280.0 188.8,286.0 191.8,286.0 194.8,286.0 197.8,286.0 200.8,286.0 203.8,286.0 206.8,286.0 209.8,286.0 212.8,286.0 215.8,286.0 218.8,286.0 221.8,286.0 224.8,286.0 227.8,280.0 230.8,286.0 233.8,286.0 236.8,286.0 239.8,286.0 242.8,286.0 245.8,286.0 248.8,286.0 251.8,286.0 254.8,286.0 257.8,286.0 260.8,286.0 263.8,286.0 266.7,274.0 269.7,274.0 272.7,274.0 275.7,274.0 278.7,274.0 281.7,274.0 284.7,274.0 287.7,274.0 290.7,274.0 293.7,274.0 296.7,274.0 299.7,274.0 302.7,274.0 305.7,274.0 308.7,274.0 311.7,274.0 314.7,274.0 317.7,274.0 320.7,274.0 323.7,274.0 326.7,274.0 329.7,274.0 332.7,274.0 335.7,274.0 338.7,274.0 341.7,274.0 344.7,274.0 347.7,274.0 350.7,274.0 353.7,274.0 356.6,274.0 359.6,274.0 362.6,274.0 365.6,274.0 368.6,274.0 371.6,274.0 374.6,274.0 377.6,274.0 380.6,274.0 383.6,274.0 386.6,274.0 389.6,274.0 392.6,274.0 395.6,274.0 398.6,274.0 401.6,274.0 404.6,274.0 407.6,274.0 410.6,274.0 413.6,274.0 416.6,274.0 419.6,274.0 422.6,274.0 425.6,274.0 428.6,274.0 431.6,274.0 434.6,274.0 437.6,274.0 440.6,274.0 443.6,274.0 446.5,274.0 449.5,274.0 452.5,274.0 455.5,274.0 458.5,274.0 461.5,274.0 464.5,274.0 467.5,274.0 470.5,274.0 473.5,274.0 476.5,274.0 479.5,274.0 482.5,274.0 485.5,274.0 488.5,274.0 491.5,274.0 494.5,268.0 497.5,274.0 500.5,274.0 503.5,274.0 506.5,274.0 509.5,274.0 512.5,274.0 515.5,274.0 518.5,274.0 521.5,274.0 524.5,274.0 527.5,268.0 530.5,274.0 533.5,274.0 536.4,274.0 539.4,274.0 542.4,274.0 545.4,274.0 548.4,274.0 551.4,274.0 554.4,274.0 557.4,274.0 560.4,268.0 563.4,274.0 566.4,274.0 569.4,274.0 572.4,274.0 575.4,274.0 578.4,274.0 581.4,274.0 584.4,274.0 587.4,274.0 590.4,274.0 593.4,274.0 596.4,274.0 599.4,274.0 602.4,250.0 605.4,274.0 608.4,274.0 611.4,274.0 614.4,274.0 617.4,274.0 620.4,274.0 623.4,274.0 626.3,274.0 629.3,274.0 632.3,274.0 635.3,274.0 638.3,274.0 641.3,274.0 644.3,274.0 647.3,274.0 650.3,274.0 653.3,274.0 656.3,268.0 659.3,274.0 662.3,280.0 665.3,286.0 668.3,286.0 671.3,286.0 674.3,286.0 677.3,286.0 680.3,280.0 683.3,280.0 686.3,286.0 689.3,286.0 692.3,280.0 695.3,286.0 698.3,286.0 701.3,286.0 704.3,286.0 707.3,286.0 710.3,280.0 713.3,286.0 716.2,286.0 719.2,286.0 722.2,286.0 725.2,286.0 728.2,286.0 731.2,286.0 734.2,286.0 737.2,286.0 740.2,286.0 743.2,280.0 746.2,280.0 749.2,286.0 752.2,280.0 755.2,286.0 758.2,286.0 761.2,286.0 764.2,286.0 767.2,286.0 770.2,286.0 773.2,286.0 776.2,286.0 779.2,286.0 782.2,286.0 785.2,286.0 788.2,286.0 791.2,286.0 794.2,286.0 797.2,286.0 800.2,280.0 803.2,286.0 806.1,280.0 809.1,286.0 812.1,286.0 815.1,286.0 818.1,286.0 821.1,286.0 824.1,286.0 827.1,286.0 830.1,286.0 833.1,286.0 836.1,286.0 839.1,286.0 842.1,286.0 845.1,286.0 848.1,286.0 851.1,280.0 854.1,286.0 857.1,286.0 860.1,286.0 863.1,286.0 866.1,286.0 869.1,286.0 872.1,286.0 875.1,286.0 878.1,286.0 881.1,286.0 884.1,286.0 887.1,286.0 890.1,286.0 893.1,286.0 896.0,286.0 899.0,286.0 902.0,286.0 905.0,286.0 908.0,286.0 911.0,286.0 914.0,286.0 917.0,286.0 920.0,286.0 923.0,286.0 926.0,286.0 929.0,286.0 932.0,286.0 935.0,280.0 938.0,280.0"/><polyline fill="none" stroke="#a855f7" stroke-width="2.5" stroke-linejoin="round" stroke-linecap="round" points="42.0,286.0 45.0,286.0 48.0,286.0 51.0,286.0 54.0,286.0 57.0,286.0 60.0,286.0 63.0,286.0 66.0,286.0 69.0,286.0 72.0,286.0 75.0,286.0 78.0,286.0 81.0,286.0 84.0,286.0 86.9,286.0 89.9,286.0 92.9,286.0 95.9,286.0 98.9,286.0 101.9,286.0 104.9,286.0 107.9,286.0 110.9,286.0 113.9,286.0 116.9,286.0 119.9,286.0 122.9,286.0 125.9,286.0 128.9,286.0 131.9,286.0 134.9,286.0 137.9,286.0 140.9,286.0 143.9,286.0 146.9,286.0 149.9,286.0 152.9,286.0 155.9,286.0 158.9,286.0 161.9,286.0 164.9,286.0 167.9,286.0 170.9,286.0 173.9,286.0 176.8,286.0 179.8,286.0 182.8,286.0 185.8,286.0 188.8,286.0 191.8,286.0 194.8,286.0 197.8,286.0 200.8,286.0 203.8,286.0 206.8,286.0 209.8,286.0 212.8,286.0 215.8,286.0 218.8,286.0 221.8,286.0 224.8,286.0 227.8,286.0 230.8,286.0 233.8,286.0 236.8,286.0 239.8,286.0 242.8,286.0 245.8,286.0 248.8,286.0 251.8,280.0 254.8,286.0 257.8,286.0 260.8,286.0 263.8,286.0 266.7,286.0 269.7,286.0 272.7,286.0 275.7,286.0 278.7,286.0 281.7,286.0 284.7,286.0 287.7,286.0 290.7,286.0 293.7,286.0 296.7,286.0 299.7,286.0 302.7,286.0 305.7,286.0 308.7,286.0 311.7,286.0 314.7,286.0 317.7,286.0 320.7,286.0 323.7,286.0 326.7,286.0 329.7,286.0 332.7,286.0 335.7,286.0 338.7,286.0 341.7,286.0 344.7,286.0 347.7,286.0 350.7,286.0 353.7,286.0 356.6,286.0 359.6,286.0 362.6,286.0 365.6,286.0 368.6,286.0 371.6,286.0 374.6,286.0 377.6,286.0 380.6,286.0 383.6,286.0 386.6,286.0 389.6,286.0 392.6,286.0 395.6,286.0 398.6,286.0 401.6,286.0 404.6,286.0 407.6,286.0 410.6,286.0 413.6,286.0 416.6,286.0 419.6,286.0 422.6,286.0 425.6,286.0 428.6,286.0 431.6,286.0 434.6,286.0 437.6,286.0 440.6,286.0 443.6,286.0 446.5,286.0 449.5,286.0 452.5,286.0 455.5,286.0 458.5,286.0 461.5,286.0 464.5,286.0 467.5,286.0 470.5,286.0 473.5,286.0 476.5,286.0 479.5,286.0 482.5,286.0 485.5,286.0 488.5,286.0 491.5,286.0 494.5,286.0 497.5,286.0 500.5,286.0 503.5,286.0 506.5,286.0 509.5,286.0 512.5,280.0 515.5,286.0 518.5,286.0 521.5,286.0 524.5,286.0 527.5,286.0 530.5,286.0 533.5,286.0 536.4,286.0 539.4,286.0 542.4,286.0 545.4,286.0 548.4,286.0 551.4,286.0 554.4,286.0 557.4,286.0 560.4,286.0 563.4,286.0 566.4,286.0 569.4,286.0 572.4,286.0 575.4,286.0 578.4,286.0 581.4,286.0 584.4,286.0 587.4,286.0 590.4,286.0 593.4,286.0 596.4,286.0 599.4,286.0 602.4,286.0 605.4,286.0 608.4,286.0 611.4,286.0 614.4,286.0 617.4,286.0 620.4,286.0 623.4,286.0 626.3,286.0 629.3,286.0 632.3,286.0 635.3,286.0 638.3,286.0 641.3,286.0 644.3,286.0 647.3,286.0 650.3,286.0 653.3,286.0 656.3,286.0 659.3,286.0 662.3,286.0 665.3,286.0 668.3,286.0 671.3,286.0 674.3,286.0 677.3,286.0 680.3,286.0 683.3,286.0 686.3,280.0 689.3,286.0 692.3,286.0 695.3,286.0 698.3,286.0 701.3,286.0 704.3,286.0 707.3,286.0 710.3,286.0 713.3,286.0 716.2,280.0 719.2,286.0 722.2,286.0 725.2,286.0 728.2,286.0 731.2,286.0 734.2,286.0 737.2,286.0 740.2,286.0 743.2,286.0 746.2,286.0 749.2,286.0 752.2,286.0 755.2,286.0 758.2,286.0 761.2,286.0 764.2,286.0 767.2,286.0 770.2,286.0 773.2,286.0 776.2,286.0 779.2,286.0 782.2,286.0 785.2,286.0 788.2,286.0 791.2,286.0 794.2,286.0 797.2,286.0 800.2,286.0 803.2,280.0 806.1,286.0 809.1,286.0 812.1,286.0 815.1,286.0 818.1,286.0 821.1,286.0 824.1,280.0 827.1,286.0 830.1,286.0 833.1,286.0 836.1,286.0 839.1,286.0 842.1,286.0 845.1,286.0 848.1,286.0 851.1,286.0 854.1,286.0 857.1,286.0 860.1,286.0 863.1,286.0 866.1,286.0 869.1,286.0 872.1,286.0 875.1,280.0 878.1,286.0 881.1,286.0 884.1,286.0 887.1,286.0 890.1,286.0 893.1,286.0 896.0,286.0 899.0,286.0 902.0,286.0 905.0,286.0 908.0,286.0 911.0,286.0 914.0,286.0 917.0,286.0 920.0,286.0 923.0,286.0 926.0,286.0 929.0,286.0 932.0,286.0 935.0,286.0 938.0,286.0"/><text x="42" y="308" font-size="11" fill="#9fb0d4">19/06 12:43</text><text x="938" y="308" text-anchor="end" font-size="11" fill="#9fb0d4">06/07 04:29</text></svg>