<svg xmlns="http://www.w3.org/2000/svg" viewBox="0 0 960 320" width="960" height="320" font-family="Segoe UI, system-ui, -apple-system, Roboto, Helvetica, Arial, sans-serif" role="img" aria-label="Availability history per region"><rect x="0.5" y="0.5" width="959" height="319" rx="14" fill="#ffffff" stroke="#dce3f1"/><text x="42" y="26" font-size="14" font-weight="600" fill="#14203a">History · 107 points</text><circle cx="47" cy="40" r="5" fill="#22c55e"/><text x="57" y="44" font-size="12" fill="#5a688a">Available</text><circle cx="139.8" cy="40" r="5" fill="#f59e0b"/><text x="149.8" y="44" font-size="12" fill="#5a688a">Saturated</text><circle cx="232.60000000000002" cy="40" r="5" fill="#ef4444"/><text x="242.60000000000002" y="44" font-size="12" fill="#5a688a">Error</text><circle cx="296.6" cy="40" r="5" fill="#a855f7"/><text x="306.6" y="44" font-size="12" fill="#5a688a">Timeout</text><line x1="42" y1="286.0" x2="938" y2="286.0" stroke="#eef2f7" stroke-width="1"/><text x="35" y="289.0" text-anchor="end" font-size="11" fill="#5a688a">0</text><line x1="42" y1="227.5" x2="938" y2="227.5" stroke="#eef2f7" stroke-width="1"/><text x="35" y="230.5" text-anchor="end" font-size="11" fill="#5a688a">10</text><line x1="42" y1="169.0" x2="938" y2="169.0" stroke="#eef2f7" stroke-width="1"/><text x="35" y="172.0" text-anchor="end" font-size="11" fill="#5a688a">19</text><line x1="42" y1="110.5" x2="938" y2="110.5" stroke="#eef2f7" stroke-width="1"/><text x="35" y="113.5" text-anchor="end" font-size="11" fill="#5a688a">28</text><line x1="42" y1="52.0" x2="938" y2="52.0" stroke="#eef2f7" stroke-width="1"/><text x="35" y="55.0" text-anchor="end" font-size="11" fill="#5a688a">38</text><polyline fill="none" stroke="#22c55e" stroke-width="2.5" stroke-linejoin="round" stroke-linecap="round" points="42.0,64.3 50.5,224.4 58.9,82.8 67.4,88.9 75.8,82.8 84.3,76.6 92.7,76.6 101.2,76.6 109.6,76.6 118.1,76.6 126.5,76.6 135.0,76.6 143.4,76.6 151.9,76.6 160.3,76.6 168.8,70.5 177.2,70.5 185.7,82.8 194.2,82.8 202.6,82.8 211.1,88.9 219.5,88.9 228.0,88.9 236.4,88.9 244.9,88.9 253.3,88.9 261.8,88.9 270.2,88.9 278.7,88.9 287.1,82.8 295.6,82.8 304.0,82.8 312.5,82.8 320.9,76.6 329.4,76.6 337.8,76.6 346.3,76.6 354.8,76.6 363.2,82.8 371.7,82.8 380.1,82.8 388.6,82.8 397.0,76.6 405.5,76.6 413.9,76.6 422.4,76.6 430.8,76.6 439.3,76.6 447.7,76.6 456.2,82.8 464.6,82.8 473.1,82.8 481.5,82.8 490.0,76.6 498.5,76.6 506.9,76.6 515.4,76.6 523.8,76.6 532.3,76.6 540.7,76.6 549.2,76.6 557.6,82.8 566.1,76.6 574.5,76.6 583.0,76.6 591.4,76.6 599.9,76.6 608.3,82.8 616.8,76.6 625.2,76.6 633.7,76.6 642.2,76.6 650.6,76.6 659.1,76.6 667.5,76.6 676.0,76.6 684.4,76.6 692.9,70.5 701.3,70.5 709.8,70.5 718.2,70.5 726.7,76.6 735.1,70.5 743.6,76.6 752.0,76.6 760.5,76.6 768.9,76.6 777.4,76.6 785.8,76.6 794.3,82.8 802.8,88.9 811.2,88.9 819.7,88.9 828.1,88.9 836.6,88.9 845.0,88.9 853.5,88.9 861.9,95.1 870.4,88.9 878.8,88.9 887.3,88.9 895.7,88.9 904.2,88.9 912.6,88.9 921.1,82.8 929.5,82.8 938.0,82.8"/><polyline fill="none" stroke="#f59e0b" stroke-width="2.5" stroke-linejoin="round" stroke-linecap="round" points="42.0,273.7 50.5,267.5 58.9,255.2 67.4,249.1 75.8,255.2 84.3,261.4 92.7,261.4 101.2,261.4 109.6,261.4 118.1,261.4 126.5,261.4 135.0,261.4 143.4,261.4 151.9,261.4 160.3,261.4 168.8,267.5 177.2,267.5 185.7,261.4 194.2,255.2 202.6,255.2 211.1,249.1 219.5,249.1 228.0,249.1 236.4,249.1 244.9,249.1 253.3,249.1 261.8,249.1 270.2,249.1 278.7,249.1 287.1,255.2 295.6,255.2 304.0,255.2 312.5,255.2 320.9,261.4 329.4,261.4 337.8,261.4 346.3,261.4 354.8,261.4 363.2,255.2 371.7,255.2 380.1,255.2 388.6,255.2 397.0,261.4 405.5,261.4 413.9,261.4 422.4,261.4 430.8,261.4 439.3,261.4 447.7,261.4 456.2,255.2 464.6,255.2 473.1,255.2 481.5,261.4 490.0,261.4 498.5,261.4 506.9,261.4 515.4,261.4 523.8,261.4 532.3,261.4 540.7,261.4 549.2,261.4 557.6,255.2 566.1,261.4 574.5,261.4 583.0,261.4 591.4,261.4 599.9,261.4 608.3,261.4 616.8,261.4 625.2,261.4 633.7,261.4 642.2,261.4 650.6,261.4 659.1,261.4 667.5,261.4 676.0,261.4 684.4,261.4 692.9,267.5 701.3,267.5 709.8,267.5 718.2,267.5 726.7,267.5 735.1,267.5 743.6,261.4 752.0,261.4 760.5,261.4 768.9,261.4 777.4,261.4 785.8,261.4 794.3,255.2 802.8,249.1 811.2,249.1 819.7,255.2 828.1,249.1 836.6,249.1 845.0,249.1 853.5,249.1 861.9,249.1 870.4,249.1 878.8,255.2 887.3,249.1 895.7,249.1 904.2,249.1 912.6,249.1 921.1,255.2 929.5,255.2 938.0,255.2"/><polyline fill="none" stroke="#ef4444" stroke-width="2.5" stroke-linejoin="round" stroke-linecap="round" points="42.0,286.0 50.5,132.1 58.9,286.0 67.4,286.0 75.8,286.0 84.3,286.0 92.7,286.0 101.2,286.0 109.6,286.0 118.1,286.0 126.5,286.0 135.0,286.0 143.4,286.0 151.9,286.0 160.3,286.0 168.8,286.0 177.2,286.0 185.7,279.8 194.2,286.0 202.6,286.0 211.1,286.0 219.5,286.0 228.0,286.0 236.4,286.0 244.9,286.0 253.3,286.0 261.8,286.0 270.2,286.0 278.7,286.0 287.1,286.0 295.6,286.0 304.0,286.0 312.5,286.0 320.9,286.0 329.4,286.0 337.8,286.0 346.3,286.0 354.8,286.0 363.2,286.0 371.7,286.0 380.1,286.0 388.6,286.0 397.0,286.0 405.5,286.0 413.9,286.0 422.4,286.0 430.8,286.0 439.3,286.0 447.7,286.0 456.2,286.0 464.6,286.0 473.1,286.0 481.5,286.0 490.0,286.0 498.5,286.0 506.9,286.0 515.4,286.0 523.8,286.0 532.3,286.0 540.7,286.0 549.2,286.0 557.6,286.0 566.1,286.0 574.5,286.0 583.0,286.0 591.4,286.0 599.9,286.0 608.3,279.8 616.8,286.0 625.2,286.0 633.7,286.0 642.2,286.0 650.6,286.0 659.1,286.0 667.5,286.0 676.0,286.0 684.4,286.0 692.9,286.0 701.3,286.0 709.8,286.0 718.2,286.0 726.7,279.8 735.1,286.0 743.6,286.0 752.0,286.0 760.5,286.0 768.9,286.0 777.4,286.0 785.8,286.0 794.3,286.0 802.8,286.0 811.2,286.0 819.7,279.8 828.1,286.0 836.6,286.0 845.0,286.0 853.5,286.0 861.9,279.8 870.4,286.0 878.8,286.0 887.3,286.0 895.7,286.0 904.2,286.0 912.6,286.0 921.1,286.0 929.5,286.0 938.0,286.0"/><polyline fill="none" stroke="#a855f7" stroke-width="2.5" stroke-linejoin="round" stroke-linecap="round" points="42.0,286.0 50.5,286.0 58.9,286.0 67.4,286.0 75.8,286.0 84.3,286.0 92.7,286.0 101.2,286.0 109.6,286.0 118.1,286.0 126.5,286.0 135.0,286.0 143.4,286.0 151.9,286.0 160.3,286.0 168.8,286.0 177.2,286.0 185.7,286.0 194.2,286.0 202.6,286.0 211.1,286.0 219.5,286.0 228.0,286.0 236.4,286.0 244.9,286.0 253.3,286.0 261.8,286.0 270.2,286.0 278.7,286.0 287.1,286.0 295.6,286.0 304.0,286.0 312.5,286.0 320.9,286.0 329.4,286.0 337.8,286.0 346.3,286.0 354.8,286.0 363.2,286.0 371.7,286.0 380.1,286.0 388.6,286.0 397.0,286.0 405.5,286.0 413.9,286.0 422.4,286.0 430.8,286.0 439.3,286.0 447.7,286.0 456.2,286.0 464.6,286.0 473.1,286.0 481.5,279.8 490.0,286.0 498.5,286.0 506.9,286.0 515.4,286.0 523.8,286.0 532.3,286.0 540.7,286.0 549.2,286.0 557.6,286.0 566.1,286.0 574.5,286.0 583.0,286.0 591.4,286.0 599.9,286.0 608.3,286.0 616.8,286.0 625.2,286.0 633.7,286.0 642.2,286.0 650.6,286.0 659.1,286.0 667.5,286.0 676.0,286.0 684.4,286.0 692.9,286.0 701.3,286.0 709.8,286.0 718.2,286.0 726.7,286.0 735.1,286.0 743.6,286.0 752.0,286.0 760.5,286.0 768.9,286.0 777.4,286.0 785.8,286.0 794.3,286.0 802.8,286.0 811.2,286.0 819.7,286.0 828.1,286.0 836.6,286.0 845.0,286.0 853.5,286.0 861.9,286.0 870.4,286.0 878.8,279.8 887.3,286.0 895.7,286.0 904.2,286.0 912.6,286.0 921.1,286.0 929.5,286.0 938.0,286.0"/><text x="42" y="308" font-size="11" fill="#5a688a">19/06 15:39</text><text x="938" y="308" text-anchor="end" font-size="11" fill="#5a688a">21/07 01:29</text></svg>