<svg xmlns="http://www.w3.org/2000/svg" viewBox="0 0 960 320" width="960" height="320" font-family="Segoe UI, system-ui, -apple-system, Roboto, Helvetica, Arial, sans-serif" role="img" aria-label="Availability history per region"><rect x="0.5" y="0.5" width="959" height="319" rx="14" fill="#ffffff" stroke="#dce3f1"/><text x="42" y="26" font-size="14" font-weight="600" fill="#14203a">History · 336 points</text><circle cx="47" cy="40" r="5" fill="#22c55e"/><text x="57" y="44" font-size="12" fill="#5a688a">Available</text><circle cx="139.8" cy="40" r="5" fill="#f59e0b"/><text x="149.8" y="44" font-size="12" fill="#5a688a">Saturated</text><circle cx="232.60000000000002" cy="40" r="5" fill="#ef4444"/><text x="242.60000000000002" y="44" font-size="12" fill="#5a688a">Error</text><circle cx="296.6" cy="40" r="5" fill="#a855f7"/><text x="306.6" y="44" font-size="12" fill="#5a688a">Timeout</text><line x1="42" y1="286.0" x2="938" y2="286.0" stroke="#eef2f7" stroke-width="1"/><text x="35" y="289.0" text-anchor="end" font-size="11" fill="#5a688a">0</text><line x1="42" y1="227.5" x2="938" y2="227.5" stroke="#eef2f7" stroke-width="1"/><text x="35" y="230.5" text-anchor="end" font-size="11" fill="#5a688a">10</text><line x1="42" y1="169.0" x2="938" y2="169.0" stroke="#eef2f7" stroke-width="1"/><text x="35" y="172.0" text-anchor="end" font-size="11" fill="#5a688a">19</text><line x1="42" y1="110.5" x2="938" y2="110.5" stroke="#eef2f7" stroke-width="1"/><text x="35" y="113.5" text-anchor="end" font-size="11" fill="#5a688a">28</text><line x1="42" y1="52.0" x2="938" y2="52.0" stroke="#eef2f7" stroke-width="1"/><text x="35" y="55.0" text-anchor="end" font-size="11" fill="#5a688a">38</text><polyline fill="none" stroke="#22c55e" stroke-width="2.5" stroke-linejoin="round" stroke-linecap="round" points="42.0,70.5 44.7,70.5 47.3,70.5 50.0,70.5 52.7,70.5 55.4,64.3 58.0,64.3 60.7,64.3 63.4,70.5 66.1,82.8 68.7,76.6 71.4,64.3 74.1,64.3 76.8,64.3 79.4,70.5 82.1,70.5 84.8,70.5 87.5,76.6 90.1,64.3 92.8,70.5 95.5,58.2 98.2,64.3 100.8,52.0 103.5,52.0 106.2,52.0 108.9,52.0 111.5,52.0 114.2,58.2 116.9,52.0 119.6,58.2 122.2,52.0 124.9,52.0 127.6,52.0 130.3,52.0 132.9,58.2 135.6,58.2 138.3,58.2 141.0,70.5 143.6,64.3 146.3,76.6 149.0,64.3 151.7,70.5 154.3,52.0 157.0,58.2 159.7,52.0 162.4,58.2 165.0,52.0 167.7,52.0 170.4,52.0 173.1,58.2 175.7,64.3 178.4,58.2 181.1,58.2 183.8,58.2 186.4,64.3 189.1,64.3 191.8,58.2 194.5,64.3 197.1,64.3 199.8,64.3 202.5,52.0 205.2,52.0 207.8,52.0 210.5,52.0 213.2,52.0 215.9,58.2 218.5,52.0 221.2,52.0 223.9,52.0 226.5,52.0 229.2,52.0 231.9,52.0 234.6,52.0 237.2,52.0 239.9,58.2 242.6,52.0 245.3,52.0 247.9,52.0 250.6,52.0 253.3,52.0 256.0,52.0 258.6,52.0 261.3,58.2 264.0,52.0 266.7,52.0 269.3,52.0 272.0,52.0 274.7,52.0 277.4,52.0 280.0,52.0 282.7,52.0 285.4,52.0 288.1,52.0 290.7,52.0 293.4,52.0 296.1,52.0 298.8,52.0 301.4,52.0 304.1,52.0 306.8,52.0 309.5,52.0 312.1,52.0 314.8,58.2 317.5,58.2 320.2,52.0 322.8,52.0 325.5,52.0 328.2,58.2 330.9,58.2 333.5,70.5 336.2,58.2 338.9,58.2 341.6,64.3 344.2,52.0 346.9,52.0 349.6,52.0 352.3,52.0 354.9,52.0 357.6,52.0 360.3,64.3 363.0,58.2 365.6,58.2 368.3,58.2 371.0,58.2 373.7,64.3 376.3,64.3 379.0,70.5 381.7,70.5 384.4,76.6 387.0,82.8 389.7,76.6 392.4,76.6 395.1,82.8 397.7,76.6 400.4,70.5 403.1,70.5 405.7,64.3 408.4,58.2 411.1,58.2 413.8,70.5 416.4,70.5 419.1,64.3 421.8,70.5 424.5,64.3 427.1,64.3 429.8,64.3 432.5,76.6 435.2,64.3 437.8,70.5 440.5,64.3 443.2,70.5 445.9,64.3 448.5,70.5 451.2,64.3 453.9,64.3 456.6,76.6 459.2,70.5 461.9,70.5 464.6,70.5 467.3,70.5 469.9,70.5 472.6,64.3 475.3,70.5 478.0,64.3 480.6,64.3 483.3,64.3 486.0,70.5 488.7,70.5 491.3,70.5 494.0,64.3 496.7,64.3 499.4,64.3 502.0,64.3 504.7,70.5 507.4,70.5 510.1,70.5 512.7,76.6 515.4,70.5 518.1,76.6 520.8,76.6 523.4,76.6 526.1,82.8 528.8,76.6 531.5,76.6 534.1,76.6 536.8,70.5 539.5,70.5 542.2,70.5 544.8,70.5 547.5,70.5 550.2,64.3 552.9,64.3 555.5,64.3 558.2,70.5 560.9,76.6 563.6,64.3 566.2,64.3 568.9,64.3 571.6,70.5 574.3,70.5 576.9,70.5 579.6,76.6 582.3,76.6 584.9,76.6 587.6,82.8 590.3,88.9 593.0,82.8 595.6,82.8 598.3,76.6 601.0,70.5 603.7,76.6 606.3,82.8 609.0,76.6 611.7,70.5 614.4,70.5 617.0,64.3 619.7,64.3 622.4,64.3 625.1,64.3 627.7,64.3 630.4,64.3 633.1,64.3 635.8,64.3 638.4,64.3 641.1,64.3 643.8,64.3 646.5,64.3 649.1,64.3 651.8,58.2 654.5,70.5 657.2,64.3 659.8,58.2 662.5,64.3 665.2,64.3 667.9,64.3 670.5,64.3 673.2,64.3 675.9,58.2 678.6,58.2 681.2,58.2 683.9,58.2 686.6,58.2 689.3,64.3 691.9,58.2 694.6,58.2 697.3,58.2 700.0,58.2 702.6,58.2 705.3,58.2 708.0,64.3 710.7,64.3 713.3,58.2 716.0,58.2 718.7,58.2 721.4,64.3 724.0,58.2 726.7,58.2 729.4,58.2 732.1,58.2 734.7,58.2 737.4,58.2 740.1,58.2 742.8,58.2 745.4,58.2 748.1,58.2 750.8,58.2 753.5,58.2 756.1,58.2 758.8,64.3 761.5,70.5 764.1,70.5 766.8,70.5 769.5,76.6 772.2,76.6 774.8,76.6 777.5,82.8 780.2,82.8 782.9,76.6 785.5,76.6 788.2,82.8 790.9,82.8 793.6,76.6 796.2,70.5 798.9,76.6 801.6,70.5 804.3,76.6 806.9,70.5 809.6,70.5 812.3,70.5 815.0,70.5 817.6,76.6 820.3,76.6 823.0,76.6 825.7,82.8 828.3,82.8 831.0,82.8 833.7,82.8 836.4,82.8 839.0,82.8 841.7,76.6 844.4,82.8 847.1,82.8 849.7,82.8 852.4,88.9 855.1,82.8 857.8,76.6 860.4,76.6 863.1,76.6 865.8,76.6 868.5,76.6 871.1,82.8 873.8,76.6 876.5,76.6 879.2,76.6 881.8,76.6 884.5,76.6 887.2,76.6 889.9,82.8 892.5,82.8 895.2,82.8 897.9,82.8 900.6,82.8 903.2,82.8 905.9,82.8 908.6,82.8 911.3,82.8 913.9,88.9 916.6,82.8 919.3,82.8 922.0,76.6 924.6,76.6 927.3,76.6 930.0,70.5 932.7,70.5 935.3,70.5 938.0,70.5"/><polyline fill="none" stroke="#f59e0b" stroke-width="2.5" stroke-linejoin="round" stroke-linecap="round" points="42.0,279.8 44.7,279.8 47.3,279.8 50.0,279.8 52.7,279.8 55.4,286.0 58.0,286.0 60.7,286.0 63.4,279.8 66.1,273.7 68.7,273.7 71.4,279.8 74.1,273.7 76.8,273.7 79.4,267.5 82.1,267.5 84.8,267.5 87.5,267.5 90.1,279.8 92.8,273.7 95.5,279.8 98.2,279.8 100.8,286.0 103.5,286.0 106.2,286.0 108.9,286.0 111.5,286.0 114.2,286.0 116.9,286.0 119.6,286.0 122.2,286.0 124.9,286.0 127.6,286.0 130.3,286.0 132.9,279.8 135.6,279.8 138.3,279.8 141.0,267.5 143.6,279.8 146.3,267.5 149.0,273.7 151.7,273.7 154.3,286.0 157.0,279.8 159.7,286.0 162.4,279.8 165.0,286.0 167.7,286.0 170.4,286.0 173.1,279.8 175.7,273.7 178.4,279.8 181.1,279.8 183.8,279.8 186.4,273.7 189.1,273.7 191.8,279.8 194.5,279.8 197.1,279.8 199.8,279.8 202.5,286.0 205.2,286.0 207.8,286.0 210.5,286.0 213.2,286.0 215.9,286.0 218.5,286.0 221.2,286.0 223.9,286.0 226.5,286.0 229.2,286.0 231.9,286.0 234.6,286.0 237.2,286.0 239.9,286.0 242.6,286.0 245.3,286.0 247.9,286.0 250.6,286.0 253.3,286.0 256.0,286.0 258.6,286.0 261.3,286.0 264.0,286.0 266.7,286.0 269.3,286.0 272.0,286.0 274.7,286.0 277.4,286.0 280.0,286.0 282.7,286.0 285.4,286.0 288.1,286.0 290.7,286.0 293.4,286.0 296.1,286.0 298.8,286.0 301.4,286.0 304.1,286.0 306.8,286.0 309.5,286.0 312.1,286.0 314.8,286.0 317.5,286.0 320.2,286.0 322.8,286.0 325.5,286.0 328.2,279.8 330.9,279.8 333.5,279.8 336.2,279.8 338.9,279.8 341.6,273.7 344.2,286.0 346.9,286.0 349.6,286.0 352.3,286.0 354.9,286.0 357.6,286.0 360.3,286.0 363.0,279.8 365.6,279.8 368.3,279.8 371.0,279.8 373.7,273.7 376.3,273.7 379.0,267.5 381.7,267.5 384.4,261.4 387.0,261.4 389.7,261.4 392.4,261.4 395.1,261.4 397.7,267.5 400.4,267.5 403.1,267.5 405.7,273.7 408.4,279.8 411.1,279.8 413.8,267.5 416.4,267.5 419.1,273.7 421.8,267.5 424.5,273.7 427.1,273.7 429.8,273.7 432.5,273.7 435.2,273.7 437.8,267.5 440.5,273.7 443.2,267.5 445.9,273.7 448.5,267.5 451.2,273.7 453.9,273.7 456.6,261.4 459.2,267.5 461.9,267.5 464.6,267.5 467.3,267.5 469.9,267.5 472.6,273.7 475.3,267.5 478.0,273.7 480.6,273.7 483.3,273.7 486.0,267.5 488.7,267.5 491.3,267.5 494.0,273.7 496.7,273.7 499.4,273.7 502.0,273.7 504.7,267.5 507.4,267.5 510.1,267.5 512.7,267.5 515.4,267.5 518.1,261.4 520.8,261.4 523.4,261.4 526.1,261.4 528.8,261.4 531.5,261.4 534.1,261.4 536.8,267.5 539.5,267.5 542.2,267.5 544.8,267.5 547.5,267.5 550.2,273.7 552.9,273.7 555.5,273.7 558.2,267.5 560.9,267.5 563.6,273.7 566.2,273.7 568.9,273.7 571.6,267.5 574.3,267.5 576.9,267.5 579.6,261.4 582.3,261.4 584.9,261.4 587.6,255.2 590.3,255.2 593.0,255.2 595.6,261.4 598.3,261.4 601.0,267.5 603.7,261.4 606.3,261.4 609.0,261.4 611.7,267.5 614.4,267.5 617.0,273.7 619.7,273.7 622.4,273.7 625.1,273.7 627.7,273.7 630.4,273.7 633.1,273.7 635.8,273.7 638.4,273.7 641.1,273.7 643.8,273.7 646.5,273.7 649.1,273.7 651.8,279.8 654.5,273.7 657.2,273.7 659.8,279.8 662.5,273.7 665.2,273.7 667.9,273.7 670.5,273.7 673.2,273.7 675.9,279.8 678.6,279.8 681.2,279.8 683.9,279.8 686.6,279.8 689.3,273.7 691.9,279.8 694.6,279.8 697.3,279.8 700.0,279.8 702.6,279.8 705.3,279.8 708.0,273.7 710.7,273.7 713.3,279.8 716.0,279.8 718.7,279.8 721.4,279.8 724.0,279.8 726.7,279.8 729.4,279.8 732.1,279.8 734.7,279.8 737.4,279.8 740.1,279.8 742.8,279.8 745.4,279.8 748.1,279.8 750.8,279.8 753.5,279.8 756.1,279.8 758.8,273.7 761.5,273.7 764.1,267.5 766.8,267.5 769.5,261.4 772.2,261.4 774.8,261.4 777.5,255.2 780.2,255.2 782.9,261.4 785.5,261.4 788.2,255.2 790.9,255.2 793.6,267.5 796.2,267.5 798.9,261.4 801.6,267.5 804.3,261.4 806.9,267.5 809.6,267.5 812.3,267.5 815.0,267.5 817.6,267.5 820.3,267.5 823.0,261.4 825.7,255.2 828.3,255.2 831.0,255.2 833.7,255.2 836.4,255.2 839.0,255.2 841.7,261.4 844.4,255.2 847.1,255.2 849.7,255.2 852.4,255.2 855.1,255.2 857.8,261.4 860.4,261.4 863.1,261.4 865.8,261.4 868.5,261.4 871.1,261.4 873.8,261.4 876.5,261.4 879.2,261.4 881.8,261.4 884.5,261.4 887.2,261.4 889.9,255.2 892.5,255.2 895.2,255.2 897.9,255.2 900.6,255.2 903.2,255.2 905.9,255.2 908.6,255.2 911.3,255.2 913.9,255.2 916.6,255.2 919.3,255.2 922.0,261.4 924.6,261.4 927.3,261.4 930.0,267.5 932.7,267.5 935.3,267.5 938.0,267.5"/><polyline fill="none" stroke="#ef4444" stroke-width="2.5" stroke-linejoin="round" stroke-linecap="round" points="42.0,273.7 44.7,273.7 47.3,273.7 50.0,273.7 52.7,273.7 55.4,273.7 58.0,273.7 60.7,273.7 63.4,273.7 66.1,267.5 68.7,273.7 71.4,279.8 74.1,286.0 76.8,286.0 79.4,286.0 82.1,286.0 84.8,286.0 87.5,279.8 90.1,279.8 92.8,286.0 95.5,286.0 98.2,279.8 100.8,286.0 103.5,286.0 106.2,286.0 108.9,286.0 111.5,286.0 114.2,279.8 116.9,286.0 119.6,286.0 122.2,286.0 124.9,286.0 127.6,286.0 130.3,286.0 132.9,286.0 135.6,286.0 138.3,286.0 141.0,286.0 143.6,279.8 146.3,279.8 149.0,286.0 151.7,279.8 154.3,286.0 157.0,286.0 159.7,286.0 162.4,286.0 165.0,286.0 167.7,286.0 170.4,286.0 173.1,286.0 175.7,286.0 178.4,286.0 181.1,286.0 183.8,286.0 186.4,286.0 189.1,286.0 191.8,286.0 194.5,279.8 197.1,286.0 199.8,279.8 202.5,286.0 205.2,286.0 207.8,286.0 210.5,286.0 213.2,286.0 215.9,286.0 218.5,286.0 221.2,286.0 223.9,286.0 226.5,286.0 229.2,286.0 231.9,286.0 234.6,286.0 237.2,286.0 239.9,279.8 242.6,286.0 245.3,286.0 247.9,286.0 250.6,286.0 253.3,286.0 256.0,286.0 258.6,286.0 261.3,286.0 264.0,286.0 266.7,286.0 269.3,286.0 272.0,286.0 274.7,286.0 277.4,286.0 280.0,286.0 282.7,286.0 285.4,286.0 288.1,286.0 290.7,286.0 293.4,286.0 296.1,286.0 298.8,286.0 301.4,286.0 304.1,286.0 306.8,286.0 309.5,286.0 312.1,286.0 314.8,279.8 317.5,279.8 320.2,286.0 322.8,286.0 325.5,286.0 328.2,286.0 330.9,286.0 333.5,273.7 336.2,286.0 338.9,286.0 341.6,286.0 344.2,286.0 346.9,286.0 349.6,286.0 352.3,286.0 354.9,286.0 357.6,286.0 360.3,286.0 363.0,286.0 365.6,286.0 368.3,286.0 371.0,286.0 373.7,286.0 376.3,286.0 379.0,286.0 381.7,286.0 384.4,286.0 387.0,279.8 389.7,286.0 392.4,286.0 395.1,279.8 397.7,279.8 400.4,286.0 403.1,286.0 405.7,286.0 408.4,286.0 411.1,286.0 413.8,286.0 416.4,286.0 419.1,286.0 421.8,286.0 424.5,286.0 427.1,286.0 429.8,286.0 432.5,273.7 435.2,286.0 437.8,286.0 440.5,286.0 443.2,286.0 445.9,286.0 448.5,286.0 451.2,286.0 453.9,286.0 456.6,286.0 459.2,286.0 461.9,286.0 464.6,286.0 467.3,286.0 469.9,286.0 472.6,286.0 475.3,286.0 478.0,286.0 480.6,286.0 483.3,286.0 486.0,286.0 488.7,286.0 491.3,286.0 494.0,286.0 496.7,286.0 499.4,286.0 502.0,286.0 504.7,286.0 507.4,286.0 510.1,286.0 512.7,279.8 515.4,286.0 518.1,286.0 520.8,286.0 523.4,286.0 526.1,279.8 528.8,286.0 531.5,286.0 534.1,286.0 536.8,286.0 539.5,286.0 542.2,286.0 544.8,286.0 547.5,286.0 550.2,286.0 552.9,286.0 555.5,286.0 558.2,286.0 560.9,279.8 563.6,286.0 566.2,286.0 568.9,286.0 571.6,286.0 574.3,286.0 576.9,286.0 579.6,286.0 582.3,286.0 584.9,286.0 587.6,286.0 590.3,279.8 593.0,286.0 595.6,279.8 598.3,286.0 601.0,286.0 603.7,286.0 606.3,279.8 609.0,286.0 611.7,286.0 614.4,286.0 617.0,286.0 619.7,286.0 622.4,286.0 625.1,286.0 627.7,286.0 630.4,286.0 633.1,286.0 635.8,286.0 638.4,286.0 641.1,286.0 643.8,286.0 646.5,286.0 649.1,286.0 651.8,286.0 654.5,279.8 657.2,286.0 659.8,286.0 662.5,286.0 665.2,286.0 667.9,286.0 670.5,286.0 673.2,286.0 675.9,286.0 678.6,286.0 681.2,286.0 683.9,286.0 686.6,286.0 689.3,286.0 691.9,286.0 694.6,286.0 697.3,286.0 700.0,286.0 702.6,286.0 705.3,286.0 708.0,286.0 710.7,286.0 713.3,286.0 716.0,286.0 718.7,286.0 721.4,286.0 724.0,286.0 726.7,286.0 729.4,286.0 732.1,286.0 734.7,286.0 737.4,286.0 740.1,286.0 742.8,286.0 745.4,286.0 748.1,286.0 750.8,286.0 753.5,286.0 756.1,286.0 758.8,286.0 761.5,279.8 764.1,286.0 766.8,286.0 769.5,286.0 772.2,286.0 774.8,286.0 777.5,286.0 780.2,286.0 782.9,286.0 785.5,286.0 788.2,286.0 790.9,286.0 793.6,279.8 796.2,286.0 798.9,286.0 801.6,286.0 804.3,286.0 806.9,286.0 809.6,286.0 812.3,286.0 815.0,286.0 817.6,286.0 820.3,279.8 823.0,286.0 825.7,286.0 828.3,286.0 831.0,286.0 833.7,286.0 836.4,286.0 839.0,286.0 841.7,286.0 844.4,286.0 847.1,286.0 849.7,286.0 852.4,279.8 855.1,286.0 857.8,286.0 860.4,286.0 863.1,286.0 865.8,286.0 868.5,286.0 871.1,279.8 873.8,286.0 876.5,286.0 879.2,286.0 881.8,286.0 884.5,286.0 887.2,286.0 889.9,286.0 892.5,286.0 895.2,286.0 897.9,286.0 900.6,286.0 903.2,286.0 905.9,286.0 908.6,286.0 911.3,286.0 913.9,279.8 916.6,286.0 919.3,286.0 922.0,286.0 924.6,286.0 927.3,286.0 930.0,286.0 932.7,286.0 935.3,286.0 938.0,286.0"/><polyline fill="none" stroke="#a855f7" stroke-width="2.5" stroke-linejoin="round" stroke-linecap="round" points="42.0,286.0 44.7,286.0 47.3,286.0 50.0,286.0 52.7,286.0 55.4,286.0 58.0,286.0 60.7,286.0 63.4,286.0 66.1,286.0 68.7,286.0 71.4,286.0 74.1,286.0 76.8,286.0 79.4,286.0 82.1,286.0 84.8,286.0 87.5,286.0 90.1,286.0 92.8,279.8 95.5,286.0 98.2,286.0 100.8,286.0 103.5,286.0 106.2,286.0 108.9,286.0 111.5,286.0 114.2,286.0 116.9,286.0 119.6,279.8 122.2,286.0 124.9,286.0 127.6,286.0 130.3,286.0 132.9,286.0 135.6,286.0 138.3,286.0 141.0,286.0 143.6,286.0 146.3,286.0 149.0,286.0 151.7,286.0 154.3,286.0 157.0,286.0 159.7,286.0 162.4,286.0 165.0,286.0 167.7,286.0 170.4,286.0 173.1,286.0 175.7,286.0 178.4,286.0 181.1,286.0 183.8,286.0 186.4,286.0 189.1,286.0 191.8,286.0 194.5,286.0 197.1,279.8 199.8,286.0 202.5,286.0 205.2,286.0 207.8,286.0 210.5,286.0 213.2,286.0 215.9,279.8 218.5,286.0 221.2,286.0 223.9,286.0 226.5,286.0 229.2,286.0 231.9,286.0 234.6,286.0 237.2,286.0 239.9,286.0 242.6,286.0 245.3,286.0 247.9,286.0 250.6,286.0 253.3,286.0 256.0,286.0 258.6,286.0 261.3,279.8 264.0,286.0 266.7,286.0 269.3,286.0 272.0,286.0 274.7,286.0 277.4,286.0 280.0,286.0 282.7,286.0 285.4,286.0 288.1,286.0 290.7,286.0 293.4,286.0 296.1,286.0 298.8,286.0 301.4,286.0 304.1,286.0 306.8,286.0 309.5,286.0 312.1,286.0 314.8,286.0 317.5,286.0 320.2,286.0 322.8,286.0 325.5,286.0 328.2,286.0 330.9,286.0 333.5,286.0 336.2,286.0 338.9,286.0 341.6,286.0 344.2,286.0 346.9,286.0 349.6,286.0 352.3,286.0 354.9,286.0 357.6,286.0 360.3,273.7 363.0,286.0 365.6,286.0 368.3,286.0 371.0,286.0 373.7,286.0 376.3,286.0 379.0,286.0 381.7,286.0 384.4,286.0 387.0,286.0 389.7,286.0 392.4,286.0 395.1,286.0 397.7,286.0 400.4,286.0 403.1,286.0 405.7,286.0 408.4,286.0 411.1,286.0 413.8,286.0 416.4,286.0 419.1,286.0 421.8,286.0 424.5,286.0 427.1,286.0 429.8,286.0 432.5,286.0 435.2,286.0 437.8,286.0 440.5,286.0 443.2,286.0 445.9,286.0 448.5,286.0 451.2,286.0 453.9,286.0 456.6,286.0 459.2,286.0 461.9,286.0 464.6,286.0 467.3,286.0 469.9,286.0 472.6,286.0 475.3,286.0 478.0,286.0 480.6,286.0 483.3,286.0 486.0,286.0 488.7,286.0 491.3,286.0 494.0,286.0 496.7,286.0 499.4,286.0 502.0,286.0 504.7,286.0 507.4,286.0 510.1,286.0 512.7,286.0 515.4,286.0 518.1,286.0 520.8,286.0 523.4,286.0 526.1,286.0 528.8,286.0 531.5,286.0 534.1,286.0 536.8,286.0 539.5,286.0 542.2,286.0 544.8,286.0 547.5,286.0 550.2,286.0 552.9,286.0 555.5,286.0 558.2,286.0 560.9,286.0 563.6,286.0 566.2,286.0 568.9,286.0 571.6,286.0 574.3,286.0 576.9,286.0 579.6,286.0 582.3,286.0 584.9,286.0 587.6,286.0 590.3,286.0 593.0,286.0 595.6,286.0 598.3,286.0 601.0,286.0 603.7,286.0 606.3,286.0 609.0,286.0 611.7,286.0 614.4,286.0 617.0,286.0 619.7,286.0 622.4,286.0 625.1,286.0 627.7,286.0 630.4,286.0 633.1,286.0 635.8,286.0 638.4,286.0 641.1,286.0 643.8,286.0 646.5,286.0 649.1,286.0 651.8,286.0 654.5,286.0 657.2,286.0 659.8,286.0 662.5,286.0 665.2,286.0 667.9,286.0 670.5,286.0 673.2,286.0 675.9,286.0 678.6,286.0 681.2,286.0 683.9,286.0 686.6,286.0 689.3,286.0 691.9,286.0 694.6,286.0 697.3,286.0 700.0,286.0 702.6,286.0 705.3,286.0 708.0,286.0 710.7,286.0 713.3,286.0 716.0,286.0 718.7,286.0 721.4,279.8 724.0,286.0 726.7,286.0 729.4,286.0 732.1,286.0 734.7,286.0 737.4,286.0 740.1,286.0 742.8,286.0 745.4,286.0 748.1,286.0 750.8,286.0 753.5,286.0 756.1,286.0 758.8,286.0 761.5,286.0 764.1,286.0 766.8,286.0 769.5,286.0 772.2,286.0 774.8,286.0 777.5,286.0 780.2,286.0 782.9,286.0 785.5,286.0 788.2,286.0 790.9,286.0 793.6,286.0 796.2,286.0 798.9,286.0 801.6,286.0 804.3,286.0 806.9,286.0 809.6,286.0 812.3,286.0 815.0,286.0 817.6,279.8 820.3,286.0 823.0,286.0 825.7,286.0 828.3,286.0 831.0,286.0 833.7,286.0 836.4,286.0 839.0,286.0 841.7,286.0 844.4,286.0 847.1,286.0 849.7,286.0 852.4,286.0 855.1,286.0 857.8,286.0 860.4,286.0 863.1,286.0 865.8,286.0 868.5,286.0 871.1,286.0 873.8,286.0 876.5,286.0 879.2,286.0 881.8,286.0 884.5,286.0 887.2,286.0 889.9,286.0 892.5,286.0 895.2,286.0 897.9,286.0 900.6,286.0 903.2,286.0 905.9,286.0 908.6,286.0 911.3,286.0 913.9,286.0 916.6,286.0 919.3,286.0 922.0,286.0 924.6,286.0 927.3,286.0 930.0,286.0 932.7,286.0 935.3,286.0 938.0,286.0"/><text x="42" y="308" font-size="11" fill="#5a688a">30/06 23:29</text><text x="938" y="308" text-anchor="end" font-size="11" fill="#5a688a">16/07 01:32</text></svg>