<svg xmlns="http://www.w3.org/2000/svg" viewBox="0 0 960 320" width="960" height="320" font-family="Segoe UI, system-ui, -apple-system, Roboto, Helvetica, Arial, sans-serif" role="img" aria-label="Availability history per region"><rect x="0.5" y="0.5" width="959" height="319" rx="14" fill="#ffffff" stroke="#dce3f1"/><text x="42" y="26" font-size="14" font-weight="600" fill="#14203a">History · 95 points</text><circle cx="47" cy="40" r="5" fill="#22c55e"/><text x="57" y="44" font-size="12" fill="#5a688a">Available</text><circle cx="139.8" cy="40" r="5" fill="#f59e0b"/><text x="149.8" y="44" font-size="12" fill="#5a688a">Saturated</text><circle cx="232.60000000000002" cy="40" r="5" fill="#ef4444"/><text x="242.60000000000002" y="44" font-size="12" fill="#5a688a">Error</text><circle cx="296.6" cy="40" r="5" fill="#a855f7"/><text x="306.6" y="44" font-size="12" fill="#5a688a">Timeout</text><line x1="42" y1="286.0" x2="938" y2="286.0" stroke="#eef2f7" stroke-width="1"/><text x="35" y="289.0" text-anchor="end" font-size="11" fill="#5a688a">0</text><line x1="42" y1="227.5" x2="938" y2="227.5" stroke="#eef2f7" stroke-width="1"/><text x="35" y="230.5" text-anchor="end" font-size="11" fill="#5a688a">10</text><line x1="42" y1="169.0" x2="938" y2="169.0" stroke="#eef2f7" stroke-width="1"/><text x="35" y="172.0" text-anchor="end" font-size="11" fill="#5a688a">20</text><line x1="42" y1="110.5" x2="938" y2="110.5" stroke="#eef2f7" stroke-width="1"/><text x="35" y="113.5" text-anchor="end" font-size="11" fill="#5a688a">29</text><line x1="42" y1="52.0" x2="938" y2="52.0" stroke="#eef2f7" stroke-width="1"/><text x="35" y="55.0" text-anchor="end" font-size="11" fill="#5a688a">39</text><polyline fill="none" stroke="#22c55e" stroke-width="2.5" stroke-linejoin="round" stroke-linecap="round" points="42.0,70.0 51.5,70.0 61.1,88.0 70.6,88.0 80.1,76.0 89.7,76.0 99.2,76.0 108.7,70.0 118.3,76.0 127.8,70.0 137.3,64.0 146.9,58.0 156.4,58.0 165.9,58.0 175.4,58.0 185.0,58.0 194.5,58.0 204.0,58.0 213.6,58.0 223.1,58.0 232.6,58.0 242.2,58.0 251.7,58.0 261.2,58.0 270.8,58.0 280.3,58.0 289.8,58.0 299.4,58.0 308.9,58.0 318.4,58.0 328.0,58.0 337.5,70.0 347.0,76.0 356.6,94.0 366.1,64.0 375.6,64.0 385.1,58.0 394.7,58.0 404.2,58.0 413.7,70.0 423.3,76.0 432.8,76.0 442.3,82.0 451.9,82.0 461.4,82.0 470.9,82.0 480.5,76.0 490.0,64.0 499.5,70.0 509.1,70.0 518.6,82.0 528.1,76.0 537.7,76.0 547.2,82.0 556.7,76.0 566.3,76.0 575.8,76.0 585.3,64.0 594.9,64.0 604.4,76.0 613.9,76.0 623.4,76.0 633.0,88.0 642.5,70.0 652.0,64.0 661.6,58.0 671.1,58.0 680.6,70.0 690.2,70.0 699.7,70.0 709.2,76.0 718.8,70.0 728.3,70.0 737.8,70.0 747.4,70.0 756.9,76.0 766.4,82.0 776.0,76.0 785.5,70.0 795.0,70.0 804.6,70.0 814.1,70.0 823.6,76.0 833.1,70.0 842.7,70.0 852.2,70.0 861.7,70.0 871.3,70.0 880.8,70.0 890.3,70.0 899.9,70.0 909.4,70.0 918.9,70.0 928.5,70.0 938.0,70.0"/><polyline fill="none" stroke="#f59e0b" stroke-width="2.5" stroke-linejoin="round" stroke-linecap="round" points="42.0,274.0 51.5,274.0 61.1,274.0 70.6,280.0 80.1,268.0 89.7,268.0 99.2,268.0 108.7,274.0 118.3,274.0 127.8,274.0 137.3,280.0 146.9,286.0 156.4,286.0 165.9,286.0 175.4,286.0 185.0,286.0 194.5,286.0 204.0,286.0 213.6,286.0 223.1,286.0 232.6,286.0 242.2,286.0 251.7,286.0 261.2,286.0 270.8,286.0 280.3,286.0 289.8,286.0 299.4,286.0 308.9,286.0 318.4,286.0 328.0,286.0 337.5,274.0 347.0,280.0 356.6,280.0 366.1,280.0 375.6,280.0 385.1,286.0 394.7,286.0 404.2,286.0 413.7,274.0 423.3,268.0 432.8,268.0 442.3,262.0 451.9,262.0 461.4,262.0 470.9,262.0 480.5,268.0 490.0,280.0 499.5,280.0 509.1,274.0 518.6,262.0 528.1,268.0 537.7,268.0 547.2,262.0 556.7,268.0 566.3,268.0 575.8,268.0 585.3,280.0 594.9,280.0 604.4,268.0 613.9,268.0 623.4,268.0 633.0,262.0 642.5,274.0 652.0,280.0 661.6,286.0 671.1,286.0 680.6,274.0 690.2,274.0 699.7,274.0 709.2,274.0 718.8,274.0 728.3,274.0 737.8,274.0 747.4,274.0 756.9,280.0 766.4,274.0 776.0,280.0 785.5,286.0 795.0,286.0 804.6,286.0 814.1,286.0 823.6,280.0 833.1,286.0 842.7,286.0 852.2,286.0 861.7,286.0 871.3,286.0 880.8,286.0 890.3,286.0 899.9,286.0 909.4,286.0 918.9,286.0 928.5,286.0 938.0,286.0"/><polyline fill="none" stroke="#ef4444" stroke-width="2.5" stroke-linejoin="round" stroke-linecap="round" points="42.0,280.0 51.5,280.0 61.1,268.0 70.6,262.0 80.1,286.0 89.7,286.0 99.2,286.0 108.7,286.0 118.3,280.0 127.8,286.0 137.3,286.0 146.9,286.0 156.4,286.0 165.9,286.0 175.4,286.0 185.0,286.0 194.5,286.0 204.0,286.0 213.6,286.0 223.1,286.0 232.6,286.0 242.2,286.0 251.7,286.0 261.2,286.0 270.8,286.0 280.3,286.0 289.8,286.0 299.4,286.0 308.9,286.0 318.4,286.0 328.0,286.0 337.5,286.0 347.0,274.0 356.6,256.0 366.1,286.0 375.6,286.0 385.1,286.0 394.7,286.0 404.2,286.0 413.7,286.0 423.3,286.0 432.8,286.0 442.3,286.0 451.9,286.0 461.4,286.0 470.9,286.0 480.5,286.0 490.0,286.0 499.5,280.0 509.1,286.0 518.6,286.0 528.1,286.0 537.7,286.0 547.2,286.0 556.7,286.0 566.3,286.0 575.8,286.0 585.3,286.0 594.9,286.0 604.4,286.0 613.9,286.0 623.4,286.0 633.0,280.0 642.5,286.0 652.0,286.0 661.6,286.0 671.1,286.0 680.6,286.0 690.2,286.0 699.7,286.0 709.2,286.0 718.8,286.0 728.3,286.0 737.8,286.0 747.4,286.0 756.9,274.0 766.4,274.0 776.0,274.0 785.5,274.0 795.0,274.0 804.6,274.0 814.1,274.0 823.6,274.0 833.1,274.0 842.7,274.0 852.2,274.0 861.7,274.0 871.3,274.0 880.8,274.0 890.3,274.0 899.9,274.0 909.4,274.0 918.9,274.0 928.5,274.0 938.0,274.0"/><polyline fill="none" stroke="#a855f7" stroke-width="2.5" stroke-linejoin="round" stroke-linecap="round" points="42.0,286.0 51.5,286.0 61.1,286.0 70.6,286.0 80.1,286.0 89.7,286.0 99.2,286.0 108.7,286.0 118.3,286.0 127.8,286.0 137.3,286.0 146.9,286.0 156.4,286.0 165.9,286.0 175.4,286.0 185.0,286.0 194.5,286.0 204.0,286.0 213.6,286.0 223.1,286.0 232.6,286.0 242.2,286.0 251.7,286.0 261.2,286.0 270.8,286.0 280.3,286.0 289.8,286.0 299.4,286.0 308.9,286.0 318.4,286.0 328.0,286.0 337.5,286.0 347.0,286.0 356.6,286.0 366.1,286.0 375.6,286.0 385.1,286.0 394.7,286.0 404.2,286.0 413.7,286.0 423.3,286.0 432.8,286.0 442.3,286.0 451.9,286.0 461.4,286.0 470.9,286.0 480.5,286.0 490.0,286.0 499.5,286.0 509.1,286.0 518.6,286.0 528.1,286.0 537.7,286.0 547.2,286.0 556.7,286.0 566.3,286.0 575.8,286.0 585.3,286.0 594.9,286.0 604.4,286.0 613.9,286.0 623.4,286.0 633.0,286.0 642.5,286.0 652.0,286.0 661.6,286.0 671.1,286.0 680.6,286.0 690.2,286.0 699.7,286.0 709.2,280.0 718.8,286.0 728.3,286.0 737.8,286.0 747.4,286.0 756.9,286.0 766.4,286.0 776.0,286.0 785.5,286.0 795.0,286.0 804.6,286.0 814.1,286.0 823.6,286.0 833.1,286.0 842.7,286.0 852.2,286.0 861.7,286.0 871.3,286.0 880.8,286.0 890.3,286.0 899.9,286.0 909.4,286.0 918.9,286.0 928.5,286.0 938.0,286.0"/><text x="42" y="308" font-size="11" fill="#5a688a">19/06 12:43</text><text x="938" y="308" text-anchor="end" font-size="11" fill="#5a688a">27/06 10:29</text></svg>