<svg xmlns="http://www.w3.org/2000/svg" viewBox="0 0 960 320" width="960" height="320" font-family="Segoe UI, system-ui, -apple-system, Roboto, Helvetica, Arial, sans-serif" role="img" aria-label="Availability history per region"><rect x="0.5" y="0.5" width="959" height="319" rx="14" fill="#ffffff" stroke="#dce3f1"/><text x="42" y="26" font-size="14" font-weight="600" fill="#14203a">History · 173 points</text><circle cx="47" cy="40" r="5" fill="#22c55e"/><text x="57" y="44" font-size="12" fill="#5a688a">Available</text><circle cx="139.8" cy="40" r="5" fill="#f59e0b"/><text x="149.8" y="44" font-size="12" fill="#5a688a">Saturated</text><circle cx="232.60000000000002" cy="40" r="5" fill="#ef4444"/><text x="242.60000000000002" y="44" font-size="12" fill="#5a688a">Error</text><circle cx="296.6" cy="40" r="5" fill="#a855f7"/><text x="306.6" y="44" font-size="12" fill="#5a688a">Timeout</text><line x1="42" y1="286.0" x2="938" y2="286.0" stroke="#eef2f7" stroke-width="1"/><text x="35" y="289.0" text-anchor="end" font-size="11" fill="#5a688a">0</text><line x1="42" y1="227.5" x2="938" y2="227.5" stroke="#eef2f7" stroke-width="1"/><text x="35" y="230.5" text-anchor="end" font-size="11" fill="#5a688a">10</text><line x1="42" y1="169.0" x2="938" y2="169.0" stroke="#eef2f7" stroke-width="1"/><text x="35" y="172.0" text-anchor="end" font-size="11" fill="#5a688a">20</text><line x1="42" y1="110.5" x2="938" y2="110.5" stroke="#eef2f7" stroke-width="1"/><text x="35" y="113.5" text-anchor="end" font-size="11" fill="#5a688a">29</text><line x1="42" y1="52.0" x2="938" y2="52.0" stroke="#eef2f7" stroke-width="1"/><text x="35" y="55.0" text-anchor="end" font-size="11" fill="#5a688a">39</text><polyline fill="none" stroke="#22c55e" stroke-width="2.5" stroke-linejoin="round" stroke-linecap="round" points="42.0,70.0 47.2,70.0 52.4,88.0 57.6,88.0 62.8,76.0 68.0,76.0 73.3,76.0 78.5,70.0 83.7,76.0 88.9,70.0 94.1,64.0 99.3,58.0 104.5,58.0 109.7,58.0 114.9,58.0 120.1,58.0 125.3,58.0 130.6,58.0 135.8,58.0 141.0,58.0 146.2,58.0 151.4,58.0 156.6,58.0 161.8,58.0 167.0,58.0 172.2,58.0 177.4,58.0 182.7,58.0 187.9,58.0 193.1,58.0 198.3,58.0 203.5,70.0 208.7,76.0 213.9,94.0 219.1,64.0 224.3,64.0 229.5,58.0 234.7,58.0 240.0,58.0 245.2,70.0 250.4,76.0 255.6,76.0 260.8,82.0 266.0,82.0 271.2,82.0 276.4,82.0 281.6,76.0 286.8,64.0 292.0,70.0 297.3,70.0 302.5,82.0 307.7,76.0 312.9,76.0 318.1,82.0 323.3,76.0 328.5,76.0 333.7,76.0 338.9,64.0 344.1,64.0 349.3,76.0 354.6,76.0 359.8,76.0 365.0,88.0 370.2,70.0 375.4,64.0 380.6,58.0 385.8,58.0 391.0,70.0 396.2,70.0 401.4,70.0 406.7,76.0 411.9,70.0 417.1,70.0 422.3,70.0 427.5,70.0 432.7,76.0 437.9,82.0 443.1,76.0 448.3,70.0 453.5,70.0 458.7,70.0 464.0,70.0 469.2,76.0 474.4,70.0 479.6,70.0 484.8,70.0 490.0,70.0 495.2,70.0 500.4,70.0 505.6,70.0 510.8,70.0 516.0,70.0 521.3,70.0 526.5,70.0 531.7,70.0 536.9,70.0 542.1,70.0 547.3,70.0 552.5,70.0 557.7,70.0 562.9,70.0 568.1,70.0 573.3,70.0 578.6,70.0 583.8,70.0 589.0,70.0 594.2,70.0 599.4,70.0 604.6,70.0 609.8,70.0 615.0,70.0 620.2,70.0 625.4,70.0 630.7,70.0 635.9,70.0 641.1,70.0 646.3,70.0 651.5,70.0 656.7,70.0 661.9,70.0 667.1,70.0 672.3,70.0 677.5,70.0 682.7,70.0 688.0,70.0 693.2,70.0 698.4,70.0 703.6,70.0 708.8,70.0 714.0,70.0 719.2,70.0 724.4,70.0 729.6,70.0 734.8,70.0 740.0,70.0 745.3,70.0 750.5,70.0 755.7,70.0 760.9,70.0 766.1,70.0 771.3,70.0 776.5,70.0 781.7,70.0 786.9,70.0 792.1,70.0 797.3,70.0 802.6,70.0 807.8,70.0 813.0,70.0 818.2,70.0 823.4,70.0 828.6,76.0 833.8,70.0 839.0,70.0 844.2,70.0 849.4,70.0 854.7,70.0 859.9,76.0 865.1,76.0 870.3,88.0 875.5,88.0 880.7,88.0 885.9,94.0 891.1,94.0 896.3,94.0 901.5,94.0 906.7,88.0 912.0,88.0 917.2,82.0 922.4,82.0 927.6,82.0 932.8,88.0 938.0,88.0"/><polyline fill="none" stroke="#f59e0b" stroke-width="2.5" stroke-linejoin="round" stroke-linecap="round" points="42.0,274.0 47.2,274.0 52.4,274.0 57.6,280.0 62.8,268.0 68.0,268.0 73.3,268.0 78.5,274.0 83.7,274.0 88.9,274.0 94.1,280.0 99.3,286.0 104.5,286.0 109.7,286.0 114.9,286.0 120.1,286.0 125.3,286.0 130.6,286.0 135.8,286.0 141.0,286.0 146.2,286.0 151.4,286.0 156.6,286.0 161.8,286.0 167.0,286.0 172.2,286.0 177.4,286.0 182.7,286.0 187.9,286.0 193.1,286.0 198.3,286.0 203.5,274.0 208.7,280.0 213.9,280.0 219.1,280.0 224.3,280.0 229.5,286.0 234.7,286.0 240.0,286.0 245.2,274.0 250.4,268.0 255.6,268.0 260.8,262.0 266.0,262.0 271.2,262.0 276.4,262.0 281.6,268.0 286.8,280.0 292.0,280.0 297.3,274.0 302.5,262.0 307.7,268.0 312.9,268.0 318.1,262.0 323.3,268.0 328.5,268.0 333.7,268.0 338.9,280.0 344.1,280.0 349.3,268.0 354.6,268.0 359.8,268.0 365.0,262.0 370.2,274.0 375.4,280.0 380.6,286.0 385.8,286.0 391.0,274.0 396.2,274.0 401.4,274.0 406.7,274.0 411.9,274.0 417.1,274.0 422.3,274.0 427.5,274.0 432.7,280.0 437.9,274.0 443.1,280.0 448.3,286.0 453.5,286.0 458.7,286.0 464.0,286.0 469.2,280.0 474.4,286.0 479.6,286.0 484.8,286.0 490.0,286.0 495.2,286.0 500.4,286.0 505.6,286.0 510.8,286.0 516.0,286.0 521.3,286.0 526.5,286.0 531.7,286.0 536.9,286.0 542.1,286.0 547.3,286.0 552.5,286.0 557.7,286.0 562.9,286.0 568.1,286.0 573.3,286.0 578.6,286.0 583.8,286.0 589.0,286.0 594.2,286.0 599.4,286.0 604.6,286.0 609.8,286.0 615.0,286.0 620.2,286.0 625.4,286.0 630.7,286.0 635.9,286.0 641.1,286.0 646.3,286.0 651.5,286.0 656.7,286.0 661.9,286.0 667.1,286.0 672.3,286.0 677.5,286.0 682.7,286.0 688.0,286.0 693.2,286.0 698.4,286.0 703.6,286.0 708.8,286.0 714.0,286.0 719.2,286.0 724.4,286.0 729.6,286.0 734.8,286.0 740.0,286.0 745.3,286.0 750.5,286.0 755.7,286.0 760.9,286.0 766.1,286.0 771.3,286.0 776.5,286.0 781.7,286.0 786.9,286.0 792.1,286.0 797.3,286.0 802.6,286.0 807.8,286.0 813.0,286.0 818.2,286.0 823.4,286.0 828.6,286.0 833.8,286.0 839.0,286.0 844.2,286.0 849.4,286.0 854.7,286.0 859.9,286.0 865.1,280.0 870.3,268.0 875.5,268.0 880.7,268.0 885.9,268.0 891.1,262.0 896.3,262.0 901.5,262.0 906.7,268.0 912.0,268.0 917.2,274.0 922.4,274.0 927.6,274.0 932.8,268.0 938.0,268.0"/><polyline fill="none" stroke="#ef4444" stroke-width="2.5" stroke-linejoin="round" stroke-linecap="round" points="42.0,280.0 47.2,280.0 52.4,268.0 57.6,262.0 62.8,286.0 68.0,286.0 73.3,286.0 78.5,286.0 83.7,280.0 88.9,286.0 94.1,286.0 99.3,286.0 104.5,286.0 109.7,286.0 114.9,286.0 120.1,286.0 125.3,286.0 130.6,286.0 135.8,286.0 141.0,286.0 146.2,286.0 151.4,286.0 156.6,286.0 161.8,286.0 167.0,286.0 172.2,286.0 177.4,286.0 182.7,286.0 187.9,286.0 193.1,286.0 198.3,286.0 203.5,286.0 208.7,274.0 213.9,256.0 219.1,286.0 224.3,286.0 229.5,286.0 234.7,286.0 240.0,286.0 245.2,286.0 250.4,286.0 255.6,286.0 260.8,286.0 266.0,286.0 271.2,286.0 276.4,286.0 281.6,286.0 286.8,286.0 292.0,280.0 297.3,286.0 302.5,286.0 307.7,286.0 312.9,286.0 318.1,286.0 323.3,286.0 328.5,286.0 333.7,286.0 338.9,286.0 344.1,286.0 349.3,286.0 354.6,286.0 359.8,286.0 365.0,280.0 370.2,286.0 375.4,286.0 380.6,286.0 385.8,286.0 391.0,286.0 396.2,286.0 401.4,286.0 406.7,286.0 411.9,286.0 417.1,286.0 422.3,286.0 427.5,286.0 432.7,274.0 437.9,274.0 443.1,274.0 448.3,274.0 453.5,274.0 458.7,274.0 464.0,274.0 469.2,274.0 474.4,274.0 479.6,274.0 484.8,274.0 490.0,274.0 495.2,274.0 500.4,274.0 505.6,274.0 510.8,274.0 516.0,274.0 521.3,274.0 526.5,274.0 531.7,274.0 536.9,274.0 542.1,274.0 547.3,274.0 552.5,274.0 557.7,274.0 562.9,274.0 568.1,274.0 573.3,274.0 578.6,274.0 583.8,274.0 589.0,274.0 594.2,274.0 599.4,274.0 604.6,274.0 609.8,274.0 615.0,274.0 620.2,274.0 625.4,274.0 630.7,274.0 635.9,274.0 641.1,274.0 646.3,274.0 651.5,274.0 656.7,274.0 661.9,274.0 667.1,274.0 672.3,274.0 677.5,274.0 682.7,274.0 688.0,274.0 693.2,274.0 698.4,274.0 703.6,274.0 708.8,274.0 714.0,274.0 719.2,274.0 724.4,274.0 729.6,274.0 734.8,274.0 740.0,274.0 745.3,274.0 750.5,274.0 755.7,274.0 760.9,274.0 766.1,274.0 771.3,274.0 776.5,274.0 781.7,274.0 786.9,274.0 792.1,274.0 797.3,274.0 802.6,274.0 807.8,274.0 813.0,274.0 818.2,274.0 823.4,274.0 828.6,268.0 833.8,274.0 839.0,274.0 844.2,274.0 849.4,274.0 854.7,274.0 859.9,274.0 865.1,274.0 870.3,274.0 875.5,274.0 880.7,274.0 885.9,268.0 891.1,274.0 896.3,274.0 901.5,274.0 906.7,274.0 912.0,274.0 917.2,274.0 922.4,274.0 927.6,274.0 932.8,274.0 938.0,274.0"/><polyline fill="none" stroke="#a855f7" stroke-width="2.5" stroke-linejoin="round" stroke-linecap="round" points="42.0,286.0 47.2,286.0 52.4,286.0 57.6,286.0 62.8,286.0 68.0,286.0 73.3,286.0 78.5,286.0 83.7,286.0 88.9,286.0 94.1,286.0 99.3,286.0 104.5,286.0 109.7,286.0 114.9,286.0 120.1,286.0 125.3,286.0 130.6,286.0 135.8,286.0 141.0,286.0 146.2,286.0 151.4,286.0 156.6,286.0 161.8,286.0 167.0,286.0 172.2,286.0 177.4,286.0 182.7,286.0 187.9,286.0 193.1,286.0 198.3,286.0 203.5,286.0 208.7,286.0 213.9,286.0 219.1,286.0 224.3,286.0 229.5,286.0 234.7,286.0 240.0,286.0 245.2,286.0 250.4,286.0 255.6,286.0 260.8,286.0 266.0,286.0 271.2,286.0 276.4,286.0 281.6,286.0 286.8,286.0 292.0,286.0 297.3,286.0 302.5,286.0 307.7,286.0 312.9,286.0 318.1,286.0 323.3,286.0 328.5,286.0 333.7,286.0 338.9,286.0 344.1,286.0 349.3,286.0 354.6,286.0 359.8,286.0 365.0,286.0 370.2,286.0 375.4,286.0 380.6,286.0 385.8,286.0 391.0,286.0 396.2,286.0 401.4,286.0 406.7,280.0 411.9,286.0 417.1,286.0 422.3,286.0 427.5,286.0 432.7,286.0 437.9,286.0 443.1,286.0 448.3,286.0 453.5,286.0 458.7,286.0 464.0,286.0 469.2,286.0 474.4,286.0 479.6,286.0 484.8,286.0 490.0,286.0 495.2,286.0 500.4,286.0 505.6,286.0 510.8,286.0 516.0,286.0 521.3,286.0 526.5,286.0 531.7,286.0 536.9,286.0 542.1,286.0 547.3,286.0 552.5,286.0 557.7,286.0 562.9,286.0 568.1,286.0 573.3,286.0 578.6,286.0 583.8,286.0 589.0,286.0 594.2,286.0 599.4,286.0 604.6,286.0 609.8,286.0 615.0,286.0 620.2,286.0 625.4,286.0 630.7,286.0 635.9,286.0 641.1,286.0 646.3,286.0 651.5,286.0 656.7,286.0 661.9,286.0 667.1,286.0 672.3,286.0 677.5,286.0 682.7,286.0 688.0,286.0 693.2,286.0 698.4,286.0 703.6,286.0 708.8,286.0 714.0,286.0 719.2,286.0 724.4,286.0 729.6,286.0 734.8,286.0 740.0,286.0 745.3,286.0 750.5,286.0 755.7,286.0 760.9,286.0 766.1,286.0 771.3,286.0 776.5,286.0 781.7,286.0 786.9,286.0 792.1,286.0 797.3,286.0 802.6,286.0 807.8,286.0 813.0,286.0 818.2,286.0 823.4,286.0 828.6,286.0 833.8,286.0 839.0,286.0 844.2,286.0 849.4,286.0 854.7,286.0 859.9,280.0 865.1,286.0 870.3,286.0 875.5,286.0 880.7,286.0 885.9,286.0 891.1,286.0 896.3,286.0 901.5,286.0 906.7,286.0 912.0,286.0 917.2,286.0 922.4,286.0 927.6,286.0 932.8,286.0 938.0,286.0"/><text x="42" y="308" font-size="11" fill="#5a688a">19/06 12:43</text><text x="938" y="308" text-anchor="end" font-size="11" fill="#5a688a">29/06 23:29</text></svg>