<svg xmlns="http://www.w3.org/2000/svg" viewBox="0 0 960 320" width="960" height="320" font-family="Segoe UI, system-ui, -apple-system, Roboto, Helvetica, Arial, sans-serif" role="img" aria-label="Availability history per region"><rect x="0.5" y="0.5" width="959" height="319" rx="14" fill="#0d1117" stroke="#2c3a5e"/><text x="42" y="26" font-size="14" font-weight="600" fill="#e6ecff">History · 62 points</text><circle cx="47" cy="40" r="5" fill="#22c55e"/><text x="57" y="44" font-size="12" fill="#9fb0d4">Available</text><circle cx="139.8" cy="40" r="5" fill="#f59e0b"/><text x="149.8" y="44" font-size="12" fill="#9fb0d4">Saturated</text><circle cx="232.60000000000002" cy="40" r="5" fill="#ef4444"/><text x="242.60000000000002" y="44" font-size="12" fill="#9fb0d4">Error</text><line x1="42" y1="286.0" x2="938" y2="286.0" stroke="#21304f" stroke-width="1"/><text x="35" y="289.0" text-anchor="end" font-size="11" fill="#9fb0d4">0</text><line x1="42" y1="227.5" x2="938" y2="227.5" stroke="#21304f" stroke-width="1"/><text x="35" y="230.5" text-anchor="end" font-size="11" fill="#9fb0d4">10</text><line x1="42" y1="169.0" x2="938" y2="169.0" stroke="#21304f" stroke-width="1"/><text x="35" y="172.0" text-anchor="end" font-size="11" fill="#9fb0d4">20</text><line x1="42" y1="110.5" x2="938" y2="110.5" stroke="#21304f" stroke-width="1"/><text x="35" y="113.5" text-anchor="end" font-size="11" fill="#9fb0d4">29</text><line x1="42" y1="52.0" x2="938" y2="52.0" stroke="#21304f" stroke-width="1"/><text x="35" y="55.0" text-anchor="end" font-size="11" fill="#9fb0d4">39</text><polyline fill="none" stroke="#22c55e" stroke-width="2.5" stroke-linejoin="round" stroke-linecap="round" points="42.0,70.0 56.7,70.0 71.4,88.0 86.1,88.0 100.8,76.0 115.4,76.0 130.1,76.0 144.8,70.0 159.5,76.0 174.2,70.0 188.9,64.0 203.6,58.0 218.3,58.0 233.0,58.0 247.6,58.0 262.3,58.0 277.0,58.0 291.7,58.0 306.4,58.0 321.1,58.0 335.8,58.0 350.5,58.0 365.1,58.0 379.8,58.0 394.5,58.0 409.2,58.0 423.9,58.0 438.6,58.0 453.3,58.0 468.0,58.0 482.7,58.0 497.3,70.0 512.0,76.0 526.7,94.0 541.4,64.0 556.1,64.0 570.8,58.0 585.5,58.0 600.2,58.0 614.9,70.0 629.5,76.0 644.2,76.0 658.9,82.0 673.6,82.0 688.3,82.0 703.0,82.0 717.7,76.0 732.4,64.0 747.0,70.0 761.7,70.0 776.4,82.0 791.1,76.0 805.8,76.0 820.5,82.0 835.2,76.0 849.9,76.0 864.6,76.0 879.2,64.0 893.9,64.0 908.6,76.0 923.3,76.0 938.0,76.0"/><polyline fill="none" stroke="#f59e0b" stroke-width="2.5" stroke-linejoin="round" stroke-linecap="round" points="42.0,274.0 56.7,274.0 71.4,274.0 86.1,280.0 100.8,268.0 115.4,268.0 130.1,268.0 144.8,274.0 159.5,274.0 174.2,274.0 188.9,280.0 203.6,286.0 218.3,286.0 233.0,286.0 247.6,286.0 262.3,286.0 277.0,286.0 291.7,286.0 306.4,286.0 321.1,286.0 335.8,286.0 350.5,286.0 365.1,286.0 379.8,286.0 394.5,286.0 409.2,286.0 423.9,286.0 438.6,286.0 453.3,286.0 468.0,286.0 482.7,286.0 497.3,274.0 512.0,280.0 526.7,280.0 541.4,280.0 556.1,280.0 570.8,286.0 585.5,286.0 600.2,286.0 614.9,274.0 629.5,268.0 644.2,268.0 658.9,262.0 673.6,262.0 688.3,262.0 703.0,262.0 717.7,268.0 732.4,280.0 747.0,280.0 761.7,274.0 776.4,262.0 791.1,268.0 805.8,268.0 820.5,262.0 835.2,268.0 849.9,268.0 864.6,268.0 879.2,280.0 893.9,280.0 908.6,268.0 923.3,268.0 938.0,268.0"/><polyline fill="none" stroke="#ef4444" stroke-width="2.5" stroke-linejoin="round" stroke-linecap="round" points="42.0,280.0 56.7,280.0 71.4,268.0 86.1,262.0 100.8,286.0 115.4,286.0 130.1,286.0 144.8,286.0 159.5,280.0 174.2,286.0 188.9,286.0 203.6,286.0 218.3,286.0 233.0,286.0 247.6,286.0 262.3,286.0 277.0,286.0 291.7,286.0 306.4,286.0 321.1,286.0 335.8,286.0 350.5,286.0 365.1,286.0 379.8,286.0 394.5,286.0 409.2,286.0 423.9,286.0 438.6,286.0 453.3,286.0 468.0,286.0 482.7,286.0 497.3,286.0 512.0,274.0 526.7,256.0 541.4,286.0 556.1,286.0 570.8,286.0 585.5,286.0 600.2,286.0 614.9,286.0 629.5,286.0 644.2,286.0 658.9,286.0 673.6,286.0 688.3,286.0 703.0,286.0 717.7,286.0 732.4,286.0 747.0,280.0 761.7,286.0 776.4,286.0 791.1,286.0 805.8,286.0 820.5,286.0 835.2,286.0 849.9,286.0 864.6,286.0 879.2,286.0 893.9,286.0 908.6,286.0 923.3,286.0 938.0,286.0"/><text x="42" y="308" font-size="11" fill="#9fb0d4">19/06 12:43</text><text x="938" y="308" text-anchor="end" font-size="11" fill="#9fb0d4">25/06 15:29</text></svg>