<svg xmlns="http://www.w3.org/2000/svg" viewBox="0 0 960 320" width="960" height="320" font-family="Segoe UI, system-ui, -apple-system, Roboto, Helvetica, Arial, sans-serif" role="img" aria-label="Availability history per region"><rect x="0.5" y="0.5" width="959" height="319" rx="14" fill="#0d1117" stroke="#2c3a5e"/><text x="42" y="26" font-size="14" font-weight="600" fill="#e6ecff">History · 175 points</text><circle cx="47" cy="40" r="5" fill="#22c55e"/><text x="57" y="44" font-size="12" fill="#9fb0d4">Available</text><circle cx="139.8" cy="40" r="5" fill="#f59e0b"/><text x="149.8" y="44" font-size="12" fill="#9fb0d4">Saturated</text><circle cx="232.60000000000002" cy="40" r="5" fill="#ef4444"/><text x="242.60000000000002" y="44" font-size="12" fill="#9fb0d4">Error</text><circle cx="296.6" cy="40" r="5" fill="#a855f7"/><text x="306.6" y="44" font-size="12" fill="#9fb0d4">Timeout</text><line x1="42" y1="286.0" x2="938" y2="286.0" stroke="#21304f" stroke-width="1"/><text x="35" y="289.0" text-anchor="end" font-size="11" fill="#9fb0d4">0</text><line x1="42" y1="227.5" x2="938" y2="227.5" stroke="#21304f" stroke-width="1"/><text x="35" y="230.5" text-anchor="end" font-size="11" fill="#9fb0d4">10</text><line x1="42" y1="169.0" x2="938" y2="169.0" stroke="#21304f" stroke-width="1"/><text x="35" y="172.0" text-anchor="end" font-size="11" fill="#9fb0d4">21</text><line x1="42" y1="110.5" x2="938" y2="110.5" stroke="#21304f" stroke-width="1"/><text x="35" y="113.5" text-anchor="end" font-size="11" fill="#9fb0d4">32</text><line x1="42" y1="52.0" x2="938" y2="52.0" stroke="#21304f" stroke-width="1"/><text x="35" y="55.0" text-anchor="end" font-size="11" fill="#9fb0d4">42</text><polyline fill="none" stroke="#22c55e" stroke-width="2.5" stroke-linejoin="round" stroke-linecap="round" points="42.0,85.4 47.1,230.3 52.3,102.1 57.4,107.7 62.6,102.1 67.7,96.6 72.9,96.6 78.0,96.6 83.2,96.6 88.3,96.6 93.5,96.6 98.6,96.6 103.8,96.6 108.9,96.6 114.1,96.6 119.2,91.0 124.4,91.0 129.5,102.1 134.7,102.1 139.8,102.1 145.0,107.7 150.1,107.7 155.3,107.7 160.4,107.7 165.6,107.7 170.7,107.7 175.9,107.7 181.0,107.7 186.2,107.7 191.3,102.1 196.5,102.1 201.6,102.1 206.8,102.1 211.9,96.6 217.1,96.6 222.2,96.6 227.4,96.6 232.5,96.6 237.7,102.1 242.8,102.1 248.0,102.1 253.1,102.1 258.3,96.6 263.4,96.6 268.6,96.6 273.7,96.6 278.9,96.6 284.0,96.6 289.2,96.6 294.3,102.1 299.5,102.1 304.6,102.1 309.8,102.1 314.9,96.6 320.1,96.6 325.2,96.6 330.4,96.6 335.5,96.6 340.7,96.6 345.8,96.6 351.0,96.6 356.1,102.1 361.3,96.6 366.4,96.6 371.6,96.6 376.7,96.6 381.9,96.6 387.0,102.1 392.2,96.6 397.3,96.6 402.5,96.6 407.6,96.6 412.8,96.6 417.9,96.6 423.1,96.6 428.2,96.6 433.4,96.6 438.5,91.0 443.7,91.0 448.8,91.0 454.0,91.0 459.1,96.6 464.3,91.0 469.4,96.6 474.6,96.6 479.7,96.6 484.9,96.6 490.0,96.6 495.1,96.6 500.3,102.1 505.4,107.7 510.6,107.7 515.7,107.7 520.9,107.7 526.0,107.7 531.2,107.7 536.3,107.7 541.5,113.3 546.6,107.7 551.8,107.7 556.9,107.7 562.1,107.7 567.2,107.7 572.4,107.7 577.5,102.1 582.7,102.1 587.8,102.1 593.0,102.1 598.1,102.1 603.3,102.1 608.4,102.1 613.6,102.1 618.7,107.7 623.9,107.7 629.0,107.7 634.2,107.7 639.3,107.7 644.5,107.7 649.6,107.7 654.8,107.7 659.9,113.3 665.1,107.7 670.2,107.7 675.4,107.7 680.5,118.9 685.7,107.7 690.8,107.7 696.0,107.7 701.1,107.7 706.3,102.1 711.4,102.1 716.6,102.1 721.7,102.1 726.9,107.7 732.0,102.1 737.2,107.7 742.3,107.7 747.5,107.7 752.6,107.7 757.8,113.3 762.9,107.7 768.1,107.7 773.2,107.7 778.4,107.7 783.5,107.7 788.7,107.7 793.8,107.7 799.0,107.7 804.1,113.3 809.3,102.1 814.4,102.1 819.6,102.1 824.7,102.1 829.9,102.1 835.0,102.1 840.2,102.1 845.3,102.1 850.5,102.1 855.6,102.1 860.8,107.7 865.9,102.1 871.1,102.1 876.2,102.1 881.4,102.1 886.5,102.1 891.7,102.1 896.8,102.1 902.0,102.1 907.1,107.7 912.3,91.0 917.4,85.4 922.6,79.9 927.7,79.9 932.9,79.9 938.0,79.9"/><polyline fill="none" stroke="#f59e0b" stroke-width="2.5" stroke-linejoin="round" stroke-linecap="round" points="42.0,274.9 47.1,269.3 52.3,258.1 57.4,252.6 62.6,258.1 67.7,263.7 72.9,263.7 78.0,263.7 83.2,263.7 88.3,263.7 93.5,263.7 98.6,263.7 103.8,263.7 108.9,263.7 114.1,263.7 119.2,269.3 124.4,269.3 129.5,263.7 134.7,258.1 139.8,258.1 145.0,252.6 150.1,252.6 155.3,252.6 160.4,252.6 165.6,252.6 170.7,252.6 175.9,252.6 181.0,252.6 186.2,252.6 191.3,258.1 196.5,258.1 201.6,258.1 206.8,258.1 211.9,263.7 217.1,263.7 222.2,263.7 227.4,263.7 232.5,263.7 237.7,258.1 242.8,258.1 248.0,258.1 253.1,258.1 258.3,263.7 263.4,263.7 268.6,263.7 273.7,263.7 278.9,263.7 284.0,263.7 289.2,263.7 294.3,258.1 299.5,258.1 304.6,258.1 309.8,263.7 314.9,263.7 320.1,263.7 325.2,263.7 330.4,263.7 335.5,263.7 340.7,263.7 345.8,263.7 351.0,263.7 356.1,258.1 361.3,263.7 366.4,263.7 371.6,263.7 376.7,263.7 381.9,263.7 387.0,263.7 392.2,263.7 397.3,263.7 402.5,263.7 407.6,263.7 412.8,263.7 417.9,263.7 423.1,263.7 428.2,263.7 433.4,263.7 438.5,269.3 443.7,269.3 448.8,269.3 454.0,269.3 459.1,269.3 464.3,269.3 469.4,263.7 474.6,263.7 479.7,263.7 484.9,263.7 490.0,263.7 495.1,263.7 500.3,258.1 505.4,252.6 510.6,252.6 515.7,258.1 520.9,252.6 526.0,252.6 531.2,252.6 536.3,252.6 541.5,252.6 546.6,252.6 551.8,258.1 556.9,252.6 562.1,252.6 567.2,252.6 572.4,252.6 577.5,258.1 582.7,258.1 587.8,258.1 593.0,258.1 598.1,258.1 603.3,258.1 608.4,258.1 613.6,258.1 618.7,252.6 623.9,252.6 629.0,252.6 634.2,252.6 639.3,252.6 644.5,252.6 649.6,252.6 654.8,258.1 659.9,252.6 665.1,252.6 670.2,252.6 675.4,252.6 680.5,252.6 685.7,252.6 690.8,252.6 696.0,258.1 701.1,258.1 706.3,258.1 711.4,258.1 716.6,258.1 721.7,258.1 726.9,258.1 732.0,258.1 737.2,252.6 742.3,252.6 747.5,252.6 752.6,252.6 757.8,252.6 762.9,252.6 768.1,252.6 773.2,252.6 778.4,252.6 783.5,252.6 788.7,252.6 793.8,252.6 799.0,252.6 804.1,252.6 809.3,258.1 814.4,258.1 819.6,258.1 824.7,258.1 829.9,258.1 835.0,263.7 840.2,263.7 845.3,258.1 850.5,258.1 855.6,258.1 860.8,258.1 865.9,258.1 871.1,258.1 876.2,258.1 881.4,258.1 886.5,258.1 891.7,258.1 896.8,258.1 902.0,258.1 907.1,258.1 912.3,258.1 917.4,258.1 922.6,258.1 927.7,258.1 932.9,258.1 938.0,258.1"/><polyline fill="none" stroke="#ef4444" stroke-width="2.5" stroke-linejoin="round" stroke-linecap="round" points="42.0,286.0 47.1,146.7 52.3,286.0 57.4,286.0 62.6,286.0 67.7,286.0 72.9,286.0 78.0,286.0 83.2,286.0 88.3,286.0 93.5,286.0 98.6,286.0 103.8,286.0 108.9,286.0 114.1,286.0 119.2,286.0 124.4,286.0 129.5,280.4 134.7,286.0 139.8,286.0 145.0,286.0 150.1,286.0 155.3,286.0 160.4,286.0 165.6,286.0 170.7,286.0 175.9,286.0 181.0,286.0 186.2,286.0 191.3,286.0 196.5,286.0 201.6,286.0 206.8,286.0 211.9,286.0 217.1,286.0 222.2,286.0 227.4,286.0 232.5,286.0 237.7,286.0 242.8,286.0 248.0,286.0 253.1,286.0 258.3,286.0 263.4,286.0 268.6,286.0 273.7,286.0 278.9,286.0 284.0,286.0 289.2,286.0 294.3,286.0 299.5,286.0 304.6,286.0 309.8,286.0 314.9,286.0 320.1,286.0 325.2,286.0 330.4,286.0 335.5,286.0 340.7,286.0 345.8,286.0 351.0,286.0 356.1,286.0 361.3,286.0 366.4,286.0 371.6,286.0 376.7,286.0 381.9,286.0 387.0,280.4 392.2,286.0 397.3,286.0 402.5,286.0 407.6,286.0 412.8,286.0 417.9,286.0 423.1,286.0 428.2,286.0 433.4,286.0 438.5,286.0 443.7,286.0 448.8,286.0 454.0,286.0 459.1,280.4 464.3,286.0 469.4,286.0 474.6,286.0 479.7,286.0 484.9,286.0 490.0,286.0 495.1,286.0 500.3,286.0 505.4,286.0 510.6,286.0 515.7,280.4 520.9,286.0 526.0,286.0 531.2,286.0 536.3,286.0 541.5,280.4 546.6,286.0 551.8,286.0 556.9,286.0 562.1,286.0 567.2,286.0 572.4,286.0 577.5,286.0 582.7,286.0 587.8,286.0 593.0,286.0 598.1,286.0 603.3,286.0 608.4,286.0 613.6,286.0 618.7,286.0 623.9,286.0 629.0,286.0 634.2,286.0 639.3,286.0 644.5,286.0 649.6,286.0 654.8,286.0 659.9,280.4 665.1,286.0 670.2,286.0 675.4,286.0 680.5,274.9 685.7,286.0 690.8,286.0 696.0,280.4 701.1,280.4 706.3,286.0 711.4,286.0 716.6,286.0 721.7,286.0 726.9,280.4 732.0,286.0 737.2,286.0 742.3,286.0 747.5,286.0 752.6,286.0 757.8,286.0 762.9,286.0 768.1,286.0 773.2,286.0 778.4,286.0 783.5,286.0 788.7,286.0 793.8,286.0 799.0,286.0 804.1,286.0 809.3,286.0 814.4,286.0 819.6,286.0 824.7,286.0 829.9,286.0 835.0,280.4 840.2,286.0 845.3,286.0 850.5,286.0 855.6,263.7 860.8,280.4 865.9,286.0 871.1,286.0 876.2,286.0 881.4,286.0 886.5,286.0 891.7,286.0 896.8,286.0 902.0,286.0 907.1,258.1 912.3,274.9 917.4,280.4 922.6,286.0 927.7,286.0 932.9,286.0 938.0,286.0"/><polyline fill="none" stroke="#a855f7" stroke-width="2.5" stroke-linejoin="round" stroke-linecap="round" points="42.0,286.0 47.1,286.0 52.3,286.0 57.4,286.0 62.6,286.0 67.7,286.0 72.9,286.0 78.0,286.0 83.2,286.0 88.3,286.0 93.5,286.0 98.6,286.0 103.8,286.0 108.9,286.0 114.1,286.0 119.2,286.0 124.4,286.0 129.5,286.0 134.7,286.0 139.8,286.0 145.0,286.0 150.1,286.0 155.3,286.0 160.4,286.0 165.6,286.0 170.7,286.0 175.9,286.0 181.0,286.0 186.2,286.0 191.3,286.0 196.5,286.0 201.6,286.0 206.8,286.0 211.9,286.0 217.1,286.0 222.2,286.0 227.4,286.0 232.5,286.0 237.7,286.0 242.8,286.0 248.0,286.0 253.1,286.0 258.3,286.0 263.4,286.0 268.6,286.0 273.7,286.0 278.9,286.0 284.0,286.0 289.2,286.0 294.3,286.0 299.5,286.0 304.6,286.0 309.8,280.4 314.9,286.0 320.1,286.0 325.2,286.0 330.4,286.0 335.5,286.0 340.7,286.0 345.8,286.0 351.0,286.0 356.1,286.0 361.3,286.0 366.4,286.0 371.6,286.0 376.7,286.0 381.9,286.0 387.0,286.0 392.2,286.0 397.3,286.0 402.5,286.0 407.6,286.0 412.8,286.0 417.9,286.0 423.1,286.0 428.2,286.0 433.4,286.0 438.5,286.0 443.7,286.0 448.8,286.0 454.0,286.0 459.1,286.0 464.3,286.0 469.4,286.0 474.6,286.0 479.7,286.0 484.9,286.0 490.0,286.0 495.1,286.0 500.3,286.0 505.4,286.0 510.6,286.0 515.7,286.0 520.9,286.0 526.0,286.0 531.2,286.0 536.3,286.0 541.5,286.0 546.6,286.0 551.8,280.4 556.9,286.0 562.1,286.0 567.2,286.0 572.4,286.0 577.5,286.0 582.7,286.0 587.8,286.0 593.0,286.0 598.1,286.0 603.3,286.0 608.4,286.0 613.6,286.0 618.7,286.0 623.9,286.0 629.0,286.0 634.2,286.0 639.3,286.0 644.5,286.0 649.6,286.0 654.8,280.4 659.9,286.0 665.1,286.0 670.2,286.0 675.4,286.0 680.5,286.0 685.7,286.0 690.8,286.0 696.0,286.0 701.1,286.0 706.3,286.0 711.4,286.0 716.6,286.0 721.7,286.0 726.9,286.0 732.0,286.0 737.2,286.0 742.3,286.0 747.5,286.0 752.6,286.0 757.8,280.4 762.9,286.0 768.1,286.0 773.2,286.0 778.4,286.0 783.5,286.0 788.7,286.0 793.8,286.0 799.0,286.0 804.1,280.4 809.3,286.0 814.4,286.0 819.6,286.0 824.7,286.0 829.9,286.0 835.0,286.0 840.2,280.4 845.3,286.0 850.5,286.0 855.6,286.0 860.8,286.0 865.9,286.0 871.1,286.0 876.2,286.0 881.4,286.0 886.5,286.0 891.7,286.0 896.8,286.0 902.0,286.0 907.1,286.0 912.3,286.0 917.4,286.0 922.6,286.0 927.7,286.0 932.9,286.0 938.0,286.0"/><text x="42" y="308" font-size="11" fill="#9fb0d4">19/06 15:39</text><text x="938" y="308" text-anchor="end" font-size="11" fill="#9fb0d4">23/07 21:30</text></svg>