<svg xmlns="http://www.w3.org/2000/svg" viewBox="0 0 960 320" width="960" height="320" font-family="Segoe UI, system-ui, -apple-system, Roboto, Helvetica, Arial, sans-serif" role="img" aria-label="Availability history per region"><rect x="0.5" y="0.5" width="959" height="319" rx="14" fill="#0d1117" stroke="#2c3a5e"/><text x="42" y="26" font-size="14" font-weight="600" fill="#e6ecff">History · 149 points</text><circle cx="47" cy="40" r="5" fill="#22c55e"/><text x="57" y="44" font-size="12" fill="#9fb0d4">Available</text><circle cx="139.8" cy="40" r="5" fill="#f59e0b"/><text x="149.8" y="44" font-size="12" fill="#9fb0d4">Saturated</text><circle cx="232.60000000000002" cy="40" r="5" fill="#ef4444"/><text x="242.60000000000002" y="44" font-size="12" fill="#9fb0d4">Error</text><circle cx="296.6" cy="40" r="5" fill="#a855f7"/><text x="306.6" y="44" font-size="12" fill="#9fb0d4">Timeout</text><line x1="42" y1="286.0" x2="938" y2="286.0" stroke="#21304f" stroke-width="1"/><text x="35" y="289.0" text-anchor="end" font-size="11" fill="#9fb0d4">0</text><line x1="42" y1="227.5" x2="938" y2="227.5" stroke="#21304f" stroke-width="1"/><text x="35" y="230.5" text-anchor="end" font-size="11" fill="#9fb0d4">10</text><line x1="42" y1="169.0" x2="938" y2="169.0" stroke="#21304f" stroke-width="1"/><text x="35" y="172.0" text-anchor="end" font-size="11" fill="#9fb0d4">19</text><line x1="42" y1="110.5" x2="938" y2="110.5" stroke="#21304f" stroke-width="1"/><text x="35" y="113.5" text-anchor="end" font-size="11" fill="#9fb0d4">28</text><line x1="42" y1="52.0" x2="938" y2="52.0" stroke="#21304f" stroke-width="1"/><text x="35" y="55.0" text-anchor="end" font-size="11" fill="#9fb0d4">38</text><polyline fill="none" stroke="#22c55e" stroke-width="2.5" stroke-linejoin="round" stroke-linecap="round" points="42.0,64.3 48.1,224.4 54.1,82.8 60.2,88.9 66.2,82.8 72.3,76.6 78.3,76.6 84.4,76.6 90.4,76.6 96.5,76.6 102.5,76.6 108.6,76.6 114.6,76.6 120.7,76.6 126.8,76.6 132.8,70.5 138.9,70.5 144.9,82.8 151.0,82.8 157.0,82.8 163.1,88.9 169.1,88.9 175.2,88.9 181.2,88.9 187.3,88.9 193.4,88.9 199.4,88.9 205.5,88.9 211.5,88.9 217.6,82.8 223.6,82.8 229.7,82.8 235.7,82.8 241.8,76.6 247.8,76.6 253.9,76.6 259.9,76.6 266.0,76.6 272.1,82.8 278.1,82.8 284.2,82.8 290.2,82.8 296.3,76.6 302.3,76.6 308.4,76.6 314.4,76.6 320.5,76.6 326.5,76.6 332.6,76.6 338.6,82.8 344.7,82.8 350.8,82.8 356.8,82.8 362.9,76.6 368.9,76.6 375.0,76.6 381.0,76.6 387.1,76.6 393.1,76.6 399.2,76.6 405.2,76.6 411.3,82.8 417.4,76.6 423.4,76.6 429.5,76.6 435.5,76.6 441.6,76.6 447.6,82.8 453.7,76.6 459.7,76.6 465.8,76.6 471.8,76.6 477.9,76.6 483.9,76.6 490.0,76.6 496.1,76.6 502.1,76.6 508.2,70.5 514.2,70.5 520.3,70.5 526.3,70.5 532.4,76.6 538.4,70.5 544.5,76.6 550.5,76.6 556.6,76.6 562.6,76.6 568.7,76.6 574.8,76.6 580.8,82.8 586.9,88.9 592.9,88.9 599.0,88.9 605.0,88.9 611.1,88.9 617.1,88.9 623.2,88.9 629.2,95.1 635.3,88.9 641.4,88.9 647.4,88.9 653.5,88.9 659.5,88.9 665.6,88.9 671.6,82.8 677.7,82.8 683.7,82.8 689.8,82.8 695.8,82.8 701.9,82.8 707.9,82.8 714.0,82.8 720.1,88.9 726.1,88.9 732.2,88.9 738.2,88.9 744.3,88.9 750.3,88.9 756.4,88.9 762.4,88.9 768.5,95.1 774.5,88.9 780.6,88.9 786.6,88.9 792.7,101.3 798.8,88.9 804.8,88.9 810.9,88.9 816.9,88.9 823.0,82.8 829.0,82.8 835.1,82.8 841.1,82.8 847.2,88.9 853.2,82.8 859.3,88.9 865.4,88.9 871.4,88.9 877.5,88.9 883.5,95.1 889.6,88.9 895.6,88.9 901.7,88.9 907.7,88.9 913.8,88.9 919.8,88.9 925.9,88.9 931.9,88.9 938.0,95.1"/><polyline fill="none" stroke="#f59e0b" stroke-width="2.5" stroke-linejoin="round" stroke-linecap="round" points="42.0,273.7 48.1,267.5 54.1,255.2 60.2,249.1 66.2,255.2 72.3,261.4 78.3,261.4 84.4,261.4 90.4,261.4 96.5,261.4 102.5,261.4 108.6,261.4 114.6,261.4 120.7,261.4 126.8,261.4 132.8,267.5 138.9,267.5 144.9,261.4 151.0,255.2 157.0,255.2 163.1,249.1 169.1,249.1 175.2,249.1 181.2,249.1 187.3,249.1 193.4,249.1 199.4,249.1 205.5,249.1 211.5,249.1 217.6,255.2 223.6,255.2 229.7,255.2 235.7,255.2 241.8,261.4 247.8,261.4 253.9,261.4 259.9,261.4 266.0,261.4 272.1,255.2 278.1,255.2 284.2,255.2 290.2,255.2 296.3,261.4 302.3,261.4 308.4,261.4 314.4,261.4 320.5,261.4 326.5,261.4 332.6,261.4 338.6,255.2 344.7,255.2 350.8,255.2 356.8,261.4 362.9,261.4 368.9,261.4 375.0,261.4 381.0,261.4 387.1,261.4 393.1,261.4 399.2,261.4 405.2,261.4 411.3,255.2 417.4,261.4 423.4,261.4 429.5,261.4 435.5,261.4 441.6,261.4 447.6,261.4 453.7,261.4 459.7,261.4 465.8,261.4 471.8,261.4 477.9,261.4 483.9,261.4 490.0,261.4 496.1,261.4 502.1,261.4 508.2,267.5 514.2,267.5 520.3,267.5 526.3,267.5 532.4,267.5 538.4,267.5 544.5,261.4 550.5,261.4 556.6,261.4 562.6,261.4 568.7,261.4 574.8,261.4 580.8,255.2 586.9,249.1 592.9,249.1 599.0,255.2 605.0,249.1 611.1,249.1 617.1,249.1 623.2,249.1 629.2,249.1 635.3,249.1 641.4,255.2 647.4,249.1 653.5,249.1 659.5,249.1 665.6,249.1 671.6,255.2 677.7,255.2 683.7,255.2 689.8,255.2 695.8,255.2 701.9,255.2 707.9,255.2 714.0,255.2 720.1,249.1 726.1,249.1 732.2,249.1 738.2,249.1 744.3,249.1 750.3,249.1 756.4,249.1 762.4,255.2 768.5,249.1 774.5,249.1 780.6,249.1 786.6,249.1 792.7,249.1 798.8,249.1 804.8,249.1 810.9,255.2 816.9,255.2 823.0,255.2 829.0,255.2 835.1,255.2 841.1,255.2 847.2,255.2 853.2,255.2 859.3,249.1 865.4,249.1 871.4,249.1 877.5,249.1 883.5,249.1 889.6,249.1 895.6,249.1 901.7,249.1 907.7,249.1 913.8,249.1 919.8,249.1 925.9,249.1 931.9,249.1 938.0,249.1"/><polyline fill="none" stroke="#ef4444" stroke-width="2.5" stroke-linejoin="round" stroke-linecap="round" points="42.0,286.0 48.1,132.1 54.1,286.0 60.2,286.0 66.2,286.0 72.3,286.0 78.3,286.0 84.4,286.0 90.4,286.0 96.5,286.0 102.5,286.0 108.6,286.0 114.6,286.0 120.7,286.0 126.8,286.0 132.8,286.0 138.9,286.0 144.9,279.8 151.0,286.0 157.0,286.0 163.1,286.0 169.1,286.0 175.2,286.0 181.2,286.0 187.3,286.0 193.4,286.0 199.4,286.0 205.5,286.0 211.5,286.0 217.6,286.0 223.6,286.0 229.7,286.0 235.7,286.0 241.8,286.0 247.8,286.0 253.9,286.0 259.9,286.0 266.0,286.0 272.1,286.0 278.1,286.0 284.2,286.0 290.2,286.0 296.3,286.0 302.3,286.0 308.4,286.0 314.4,286.0 320.5,286.0 326.5,286.0 332.6,286.0 338.6,286.0 344.7,286.0 350.8,286.0 356.8,286.0 362.9,286.0 368.9,286.0 375.0,286.0 381.0,286.0 387.1,286.0 393.1,286.0 399.2,286.0 405.2,286.0 411.3,286.0 417.4,286.0 423.4,286.0 429.5,286.0 435.5,286.0 441.6,286.0 447.6,279.8 453.7,286.0 459.7,286.0 465.8,286.0 471.8,286.0 477.9,286.0 483.9,286.0 490.0,286.0 496.1,286.0 502.1,286.0 508.2,286.0 514.2,286.0 520.3,286.0 526.3,286.0 532.4,279.8 538.4,286.0 544.5,286.0 550.5,286.0 556.6,286.0 562.6,286.0 568.7,286.0 574.8,286.0 580.8,286.0 586.9,286.0 592.9,286.0 599.0,279.8 605.0,286.0 611.1,286.0 617.1,286.0 623.2,286.0 629.2,279.8 635.3,286.0 641.4,286.0 647.4,286.0 653.5,286.0 659.5,286.0 665.6,286.0 671.6,286.0 677.7,286.0 683.7,286.0 689.8,286.0 695.8,286.0 701.9,286.0 707.9,286.0 714.0,286.0 720.1,286.0 726.1,286.0 732.2,286.0 738.2,286.0 744.3,286.0 750.3,286.0 756.4,286.0 762.4,286.0 768.5,279.8 774.5,286.0 780.6,286.0 786.6,286.0 792.7,273.7 798.8,286.0 804.8,286.0 810.9,279.8 816.9,279.8 823.0,286.0 829.0,286.0 835.1,286.0 841.1,286.0 847.2,279.8 853.2,286.0 859.3,286.0 865.4,286.0 871.4,286.0 877.5,286.0 883.5,286.0 889.6,286.0 895.6,286.0 901.7,286.0 907.7,286.0 913.8,286.0 919.8,286.0 925.9,286.0 931.9,286.0 938.0,286.0"/><polyline fill="none" stroke="#a855f7" stroke-width="2.5" stroke-linejoin="round" stroke-linecap="round" points="42.0,286.0 48.1,286.0 54.1,286.0 60.2,286.0 66.2,286.0 72.3,286.0 78.3,286.0 84.4,286.0 90.4,286.0 96.5,286.0 102.5,286.0 108.6,286.0 114.6,286.0 120.7,286.0 126.8,286.0 132.8,286.0 138.9,286.0 144.9,286.0 151.0,286.0 157.0,286.0 163.1,286.0 169.1,286.0 175.2,286.0 181.2,286.0 187.3,286.0 193.4,286.0 199.4,286.0 205.5,286.0 211.5,286.0 217.6,286.0 223.6,286.0 229.7,286.0 235.7,286.0 241.8,286.0 247.8,286.0 253.9,286.0 259.9,286.0 266.0,286.0 272.1,286.0 278.1,286.0 284.2,286.0 290.2,286.0 296.3,286.0 302.3,286.0 308.4,286.0 314.4,286.0 320.5,286.0 326.5,286.0 332.6,286.0 338.6,286.0 344.7,286.0 350.8,286.0 356.8,279.8 362.9,286.0 368.9,286.0 375.0,286.0 381.0,286.0 387.1,286.0 393.1,286.0 399.2,286.0 405.2,286.0 411.3,286.0 417.4,286.0 423.4,286.0 429.5,286.0 435.5,286.0 441.6,286.0 447.6,286.0 453.7,286.0 459.7,286.0 465.8,286.0 471.8,286.0 477.9,286.0 483.9,286.0 490.0,286.0 496.1,286.0 502.1,286.0 508.2,286.0 514.2,286.0 520.3,286.0 526.3,286.0 532.4,286.0 538.4,286.0 544.5,286.0 550.5,286.0 556.6,286.0 562.6,286.0 568.7,286.0 574.8,286.0 580.8,286.0 586.9,286.0 592.9,286.0 599.0,286.0 605.0,286.0 611.1,286.0 617.1,286.0 623.2,286.0 629.2,286.0 635.3,286.0 641.4,279.8 647.4,286.0 653.5,286.0 659.5,286.0 665.6,286.0 671.6,286.0 677.7,286.0 683.7,286.0 689.8,286.0 695.8,286.0 701.9,286.0 707.9,286.0 714.0,286.0 720.1,286.0 726.1,286.0 732.2,286.0 738.2,286.0 744.3,286.0 750.3,286.0 756.4,286.0 762.4,279.8 768.5,286.0 774.5,286.0 780.6,286.0 786.6,286.0 792.7,286.0 798.8,286.0 804.8,286.0 810.9,286.0 816.9,286.0 823.0,286.0 829.0,286.0 835.1,286.0 841.1,286.0 847.2,286.0 853.2,286.0 859.3,286.0 865.4,286.0 871.4,286.0 877.5,286.0 883.5,279.8 889.6,286.0 895.6,286.0 901.7,286.0 907.7,286.0 913.8,286.0 919.8,286.0 925.9,286.0 931.9,286.0 938.0,279.8"/><text x="42" y="308" font-size="11" fill="#9fb0d4">19/06 15:39</text><text x="938" y="308" text-anchor="end" font-size="11" fill="#9fb0d4">22/07 19:42</text></svg>