<svg xmlns="http://www.w3.org/2000/svg" viewBox="0 0 960 320" width="960" height="320" font-family="Segoe UI, system-ui, -apple-system, Roboto, Helvetica, Arial, sans-serif" role="img" aria-label="Availability history per region"><rect x="0.5" y="0.5" width="959" height="319" rx="14" fill="#ffffff" stroke="#dce3f1"/><text x="42" y="26" font-size="14" font-weight="600" fill="#14203a">History · 46 points</text><circle cx="47" cy="40" r="5" fill="#22c55e"/><text x="57" y="44" font-size="12" fill="#5a688a">Available</text><circle cx="139.8" cy="40" r="5" fill="#f59e0b"/><text x="149.8" y="44" font-size="12" fill="#5a688a">Saturated</text><circle cx="232.60000000000002" cy="40" r="5" fill="#ef4444"/><text x="242.60000000000002" y="44" font-size="12" fill="#5a688a">Error</text><line x1="42" y1="286.0" x2="938" y2="286.0" stroke="#eef2f7" stroke-width="1"/><text x="35" y="289.0" text-anchor="end" font-size="11" fill="#5a688a">0</text><line x1="42" y1="227.5" x2="938" y2="227.5" stroke="#eef2f7" stroke-width="1"/><text x="35" y="230.5" text-anchor="end" font-size="11" fill="#5a688a">10</text><line x1="42" y1="169.0" x2="938" y2="169.0" stroke="#eef2f7" stroke-width="1"/><text x="35" y="172.0" text-anchor="end" font-size="11" fill="#5a688a">19</text><line x1="42" y1="110.5" x2="938" y2="110.5" stroke="#eef2f7" stroke-width="1"/><text x="35" y="113.5" text-anchor="end" font-size="11" fill="#5a688a">28</text><line x1="42" y1="52.0" x2="938" y2="52.0" stroke="#eef2f7" stroke-width="1"/><text x="35" y="55.0" text-anchor="end" font-size="11" fill="#5a688a">38</text><polyline fill="none" stroke="#22c55e" stroke-width="2.5" stroke-linejoin="round" stroke-linecap="round" points="42.0,64.3 61.9,224.4 81.8,82.8 101.7,88.9 121.6,82.8 141.6,76.6 161.5,76.6 181.4,76.6 201.3,76.6 221.2,76.6 241.1,76.6 261.0,76.6 280.9,76.6 300.8,76.6 320.8,76.6 340.7,70.5 360.6,70.5 380.5,82.8 400.4,82.8 420.3,82.8 440.2,88.9 460.1,88.9 480.0,88.9 500.0,88.9 519.9,88.9 539.8,88.9 559.7,88.9 579.6,88.9 599.5,88.9 619.4,82.8 639.3,82.8 659.2,82.8 679.2,82.8 699.1,76.6 719.0,76.6 738.9,76.6 758.8,76.6 778.7,76.6 798.6,82.8 818.5,82.8 838.4,82.8 858.4,82.8 878.3,76.6 898.2,76.6 918.1,76.6 938.0,76.6"/><circle cx="42.0" cy="64.3" r="2.5" fill="#22c55e"/><circle cx="61.9" cy="224.4" r="2.5" fill="#22c55e"/><circle cx="81.8" cy="82.8" r="2.5" fill="#22c55e"/><circle cx="101.7" cy="88.9" r="2.5" fill="#22c55e"/><circle cx="121.6" cy="82.8" r="2.5" fill="#22c55e"/><circle cx="141.6" cy="76.6" r="2.5" fill="#22c55e"/><circle cx="161.5" cy="76.6" r="2.5" fill="#22c55e"/><circle cx="181.4" cy="76.6" r="2.5" fill="#22c55e"/><circle cx="201.3" cy="76.6" r="2.5" fill="#22c55e"/><circle cx="221.2" cy="76.6" r="2.5" fill="#22c55e"/><circle cx="241.1" cy="76.6" r="2.5" fill="#22c55e"/><circle cx="261.0" cy="76.6" r="2.5" fill="#22c55e"/><circle cx="280.9" cy="76.6" r="2.5" fill="#22c55e"/><circle cx="300.8" cy="76.6" r="2.5" fill="#22c55e"/><circle cx="320.8" cy="76.6" r="2.5" fill="#22c55e"/><circle cx="340.7" cy="70.5" r="2.5" fill="#22c55e"/><circle cx="360.6" cy="70.5" r="2.5" fill="#22c55e"/><circle cx="380.5" cy="82.8" r="2.5" fill="#22c55e"/><circle cx="400.4" cy="82.8" r="2.5" fill="#22c55e"/><circle cx="420.3" cy="82.8" r="2.5" fill="#22c55e"/><circle cx="440.2" cy="88.9" r="2.5" fill="#22c55e"/><circle cx="460.1" cy="88.9" r="2.5" fill="#22c55e"/><circle cx="480.0" cy="88.9" r="2.5" fill="#22c55e"/><circle cx="500.0" cy="88.9" r="2.5" fill="#22c55e"/><circle cx="519.9" cy="88.9" r="2.5" fill="#22c55e"/><circle cx="539.8" cy="88.9" r="2.5" fill="#22c55e"/><circle cx="559.7" cy="88.9" r="2.5" fill="#22c55e"/><circle cx="579.6" cy="88.9" r="2.5" fill="#22c55e"/><circle cx="599.5" cy="88.9" r="2.5" fill="#22c55e"/><circle cx="619.4" cy="82.8" r="2.5" fill="#22c55e"/><circle cx="639.3" cy="82.8" r="2.5" fill="#22c55e"/><circle cx="659.2" cy="82.8" r="2.5" fill="#22c55e"/><circle cx="679.2" cy="82.8" r="2.5" fill="#22c55e"/><circle cx="699.1" cy="76.6" r="2.5" fill="#22c55e"/><circle cx="719.0" cy="76.6" r="2.5" fill="#22c55e"/><circle cx="738.9" cy="76.6" r="2.5" fill="#22c55e"/><circle cx="758.8" cy="76.6" r="2.5" fill="#22c55e"/><circle cx="778.7" cy="76.6" r="2.5" fill="#22c55e"/><circle cx="798.6" cy="82.8" r="2.5" fill="#22c55e"/><circle cx="818.5" cy="82.8" r="2.5" fill="#22c55e"/><circle cx="838.4" cy="82.8" r="2.5" fill="#22c55e"/><circle cx="858.4" cy="82.8" r="2.5" fill="#22c55e"/><circle cx="878.3" cy="76.6" r="2.5" fill="#22c55e"/><circle cx="898.2" cy="76.6" r="2.5" fill="#22c55e"/><circle cx="918.1" cy="76.6" r="2.5" fill="#22c55e"/><circle cx="938.0" cy="76.6" r="2.5" fill="#22c55e"/><polyline fill="none" stroke="#f59e0b" stroke-width="2.5" stroke-linejoin="round" stroke-linecap="round" points="42.0,273.7 61.9,267.5 81.8,255.2 101.7,249.1 121.6,255.2 141.6,261.4 161.5,261.4 181.4,261.4 201.3,261.4 221.2,261.4 241.1,261.4 261.0,261.4 280.9,261.4 300.8,261.4 320.8,261.4 340.7,267.5 360.6,267.5 380.5,261.4 400.4,255.2 420.3,255.2 440.2,249.1 460.1,249.1 480.0,249.1 500.0,249.1 519.9,249.1 539.8,249.1 559.7,249.1 579.6,249.1 599.5,249.1 619.4,255.2 639.3,255.2 659.2,255.2 679.2,255.2 699.1,261.4 719.0,261.4 738.9,261.4 758.8,261.4 778.7,261.4 798.6,255.2 818.5,255.2 838.4,255.2 858.4,255.2 878.3,261.4 898.2,261.4 918.1,261.4 938.0,261.4"/><circle cx="42.0" cy="273.7" r="2.5" fill="#f59e0b"/><circle cx="61.9" cy="267.5" r="2.5" fill="#f59e0b"/><circle cx="81.8" cy="255.2" r="2.5" fill="#f59e0b"/><circle cx="101.7" cy="249.1" r="2.5" fill="#f59e0b"/><circle cx="121.6" cy="255.2" r="2.5" fill="#f59e0b"/><circle cx="141.6" cy="261.4" r="2.5" fill="#f59e0b"/><circle cx="161.5" cy="261.4" r="2.5" fill="#f59e0b"/><circle cx="181.4" cy="261.4" r="2.5" fill="#f59e0b"/><circle cx="201.3" cy="261.4" r="2.5" fill="#f59e0b"/><circle cx="221.2" cy="261.4" r="2.5" fill="#f59e0b"/><circle cx="241.1" cy="261.4" r="2.5" fill="#f59e0b"/><circle cx="261.0" cy="261.4" r="2.5" fill="#f59e0b"/><circle cx="280.9" cy="261.4" r="2.5" fill="#f59e0b"/><circle cx="300.8" cy="261.4" r="2.5" fill="#f59e0b"/><circle cx="320.8" cy="261.4" r="2.5" fill="#f59e0b"/><circle cx="340.7" cy="267.5" r="2.5" fill="#f59e0b"/><circle cx="360.6" cy="267.5" r="2.5" fill="#f59e0b"/><circle cx="380.5" cy="261.4" r="2.5" fill="#f59e0b"/><circle cx="400.4" cy="255.2" r="2.5" fill="#f59e0b"/><circle cx="420.3" cy="255.2" r="2.5" fill="#f59e0b"/><circle cx="440.2" cy="249.1" r="2.5" fill="#f59e0b"/><circle cx="460.1" cy="249.1" r="2.5" fill="#f59e0b"/><circle cx="480.0" cy="249.1" r="2.5" fill="#f59e0b"/><circle cx="500.0" cy="249.1" r="2.5" fill="#f59e0b"/><circle cx="519.9" cy="249.1" r="2.5" fill="#f59e0b"/><circle cx="539.8" cy="249.1" r="2.5" fill="#f59e0b"/><circle cx="559.7" cy="249.1" r="2.5" fill="#f59e0b"/><circle cx="579.6" cy="249.1" r="2.5" fill="#f59e0b"/><circle cx="599.5" cy="249.1" r="2.5" fill="#f59e0b"/><circle cx="619.4" cy="255.2" r="2.5" fill="#f59e0b"/><circle cx="639.3" cy="255.2" r="2.5" fill="#f59e0b"/><circle cx="659.2" cy="255.2" r="2.5" fill="#f59e0b"/><circle cx="679.2" cy="255.2" r="2.5" fill="#f59e0b"/><circle cx="699.1" cy="261.4" r="2.5" fill="#f59e0b"/><circle cx="719.0" cy="261.4" r="2.5" fill="#f59e0b"/><circle cx="738.9" cy="261.4" r="2.5" fill="#f59e0b"/><circle cx="758.8" cy="261.4" r="2.5" fill="#f59e0b"/><circle cx="778.7" cy="261.4" r="2.5" fill="#f59e0b"/><circle cx="798.6" cy="255.2" r="2.5" fill="#f59e0b"/><circle cx="818.5" cy="255.2" r="2.5" fill="#f59e0b"/><circle cx="838.4" cy="255.2" r="2.5" fill="#f59e0b"/><circle cx="858.4" cy="255.2" r="2.5" fill="#f59e0b"/><circle cx="878.3" cy="261.4" r="2.5" fill="#f59e0b"/><circle cx="898.2" cy="261.4" r="2.5" fill="#f59e0b"/><circle cx="918.1" cy="261.4" r="2.5" fill="#f59e0b"/><circle cx="938.0" cy="261.4" r="2.5" fill="#f59e0b"/><polyline fill="none" stroke="#ef4444" stroke-width="2.5" stroke-linejoin="round" stroke-linecap="round" points="42.0,286.0 61.9,132.1 81.8,286.0 101.7,286.0 121.6,286.0 141.6,286.0 161.5,286.0 181.4,286.0 201.3,286.0 221.2,286.0 241.1,286.0 261.0,286.0 280.9,286.0 300.8,286.0 320.8,286.0 340.7,286.0 360.6,286.0 380.5,279.8 400.4,286.0 420.3,286.0 440.2,286.0 460.1,286.0 480.0,286.0 500.0,286.0 519.9,286.0 539.8,286.0 559.7,286.0 579.6,286.0 599.5,286.0 619.4,286.0 639.3,286.0 659.2,286.0 679.2,286.0 699.1,286.0 719.0,286.0 738.9,286.0 758.8,286.0 778.7,286.0 798.6,286.0 818.5,286.0 838.4,286.0 858.4,286.0 878.3,286.0 898.2,286.0 918.1,286.0 938.0,286.0"/><circle cx="42.0" cy="286.0" r="2.5" fill="#ef4444"/><circle cx="61.9" cy="132.1" r="2.5" fill="#ef4444"/><circle cx="81.8" cy="286.0" r="2.5" fill="#ef4444"/><circle cx="101.7" cy="286.0" r="2.5" fill="#ef4444"/><circle cx="121.6" cy="286.0" r="2.5" fill="#ef4444"/><circle cx="141.6" cy="286.0" r="2.5" fill="#ef4444"/><circle cx="161.5" cy="286.0" r="2.5" fill="#ef4444"/><circle cx="181.4" cy="286.0" r="2.5" fill="#ef4444"/><circle cx="201.3" cy="286.0" r="2.5" fill="#ef4444"/><circle cx="221.2" cy="286.0" r="2.5" fill="#ef4444"/><circle cx="241.1" cy="286.0" r="2.5" fill="#ef4444"/><circle cx="261.0" cy="286.0" r="2.5" fill="#ef4444"/><circle cx="280.9" cy="286.0" r="2.5" fill="#ef4444"/><circle cx="300.8" cy="286.0" r="2.5" fill="#ef4444"/><circle cx="320.8" cy="286.0" r="2.5" fill="#ef4444"/><circle cx="340.7" cy="286.0" r="2.5" fill="#ef4444"/><circle cx="360.6" cy="286.0" r="2.5" fill="#ef4444"/><circle cx="380.5" cy="279.8" r="2.5" fill="#ef4444"/><circle cx="400.4" cy="286.0" r="2.5" fill="#ef4444"/><circle cx="420.3" cy="286.0" r="2.5" fill="#ef4444"/><circle cx="440.2" cy="286.0" r="2.5" fill="#ef4444"/><circle cx="460.1" cy="286.0" r="2.5" fill="#ef4444"/><circle cx="480.0" cy="286.0" r="2.5" fill="#ef4444"/><circle cx="500.0" cy="286.0" r="2.5" fill="#ef4444"/><circle cx="519.9" cy="286.0" r="2.5" fill="#ef4444"/><circle cx="539.8" cy="286.0" r="2.5" fill="#ef4444"/><circle cx="559.7" cy="286.0" r="2.5" fill="#ef4444"/><circle cx="579.6" cy="286.0" r="2.5" fill="#ef4444"/><circle cx="599.5" cy="286.0" r="2.5" fill="#ef4444"/><circle cx="619.4" cy="286.0" r="2.5" fill="#ef4444"/><circle cx="639.3" cy="286.0" r="2.5" fill="#ef4444"/><circle cx="659.2" cy="286.0" r="2.5" fill="#ef4444"/><circle cx="679.2" cy="286.0" r="2.5" fill="#ef4444"/><circle cx="699.1" cy="286.0" r="2.5" fill="#ef4444"/><circle cx="719.0" cy="286.0" r="2.5" fill="#ef4444"/><circle cx="738.9" cy="286.0" r="2.5" fill="#ef4444"/><circle cx="758.8" cy="286.0" r="2.5" fill="#ef4444"/><circle cx="778.7" cy="286.0" r="2.5" fill="#ef4444"/><circle cx="798.6" cy="286.0" r="2.5" fill="#ef4444"/><circle cx="818.5" cy="286.0" r="2.5" fill="#ef4444"/><circle cx="838.4" cy="286.0" r="2.5" fill="#ef4444"/><circle cx="858.4" cy="286.0" r="2.5" fill="#ef4444"/><circle cx="878.3" cy="286.0" r="2.5" fill="#ef4444"/><circle cx="898.2" cy="286.0" r="2.5" fill="#ef4444"/><circle cx="918.1" cy="286.0" r="2.5" fill="#ef4444"/><circle cx="938.0" cy="286.0" r="2.5" fill="#ef4444"/><text x="42" y="308" font-size="11" fill="#5a688a">19/06 15:39</text><text x="938" y="308" text-anchor="end" font-size="11" fill="#5a688a">18/07 11:29</text></svg>