<svg xmlns="http://www.w3.org/2000/svg" viewBox="0 0 960 320" width="960" height="320" font-family="Segoe UI, system-ui, -apple-system, Roboto, Helvetica, Arial, sans-serif" role="img" aria-label="Availability history per region"><rect x="0.5" y="0.5" width="959" height="319" rx="14" fill="#0d1117" stroke="#2c3a5e"/><text x="42" y="26" font-size="14" font-weight="600" fill="#e6ecff">History · 321 points</text><circle cx="47" cy="40" r="5" fill="#22c55e"/><text x="57" y="44" font-size="12" fill="#9fb0d4">Available</text><circle cx="139.8" cy="40" r="5" fill="#f59e0b"/><text x="149.8" y="44" font-size="12" fill="#9fb0d4">Saturated</text><circle cx="232.60000000000002" cy="40" r="5" fill="#ef4444"/><text x="242.60000000000002" y="44" font-size="12" fill="#9fb0d4">Error</text><circle cx="296.6" cy="40" r="5" fill="#a855f7"/><text x="306.6" y="44" font-size="12" fill="#9fb0d4">Timeout</text><line x1="42" y1="286.0" x2="938" y2="286.0" stroke="#21304f" stroke-width="1"/><text x="35" y="289.0" text-anchor="end" font-size="11" fill="#9fb0d4">0</text><line x1="42" y1="227.5" x2="938" y2="227.5" stroke="#21304f" stroke-width="1"/><text x="35" y="230.5" text-anchor="end" font-size="11" fill="#9fb0d4">10</text><line x1="42" y1="169.0" x2="938" y2="169.0" stroke="#21304f" stroke-width="1"/><text x="35" y="172.0" text-anchor="end" font-size="11" fill="#9fb0d4">20</text><line x1="42" y1="110.5" x2="938" y2="110.5" stroke="#21304f" stroke-width="1"/><text x="35" y="113.5" text-anchor="end" font-size="11" fill="#9fb0d4">29</text><line x1="42" y1="52.0" x2="938" y2="52.0" stroke="#21304f" stroke-width="1"/><text x="35" y="55.0" text-anchor="end" font-size="11" fill="#9fb0d4">39</text><polyline fill="none" stroke="#22c55e" stroke-width="2.5" stroke-linejoin="round" stroke-linecap="round" points="42.0,70.0 44.8,70.0 47.6,88.0 50.4,88.0 53.2,76.0 56.0,76.0 58.8,76.0 61.6,70.0 64.4,76.0 67.2,70.0 70.0,64.0 72.8,58.0 75.6,58.0 78.4,58.0 81.2,58.0 84.0,58.0 86.8,58.0 89.6,58.0 92.4,58.0 95.2,58.0 98.0,58.0 100.8,58.0 103.6,58.0 106.4,58.0 109.2,58.0 112.0,58.0 114.8,58.0 117.6,58.0 120.4,58.0 123.2,58.0 126.0,58.0 128.8,70.0 131.6,76.0 134.4,94.0 137.2,64.0 140.0,64.0 142.8,58.0 145.6,58.0 148.4,58.0 151.2,70.0 154.0,76.0 156.8,76.0 159.6,82.0 162.4,82.0 165.2,82.0 168.0,82.0 170.8,76.0 173.6,64.0 176.4,70.0 179.2,70.0 182.0,82.0 184.8,76.0 187.6,76.0 190.4,82.0 193.2,76.0 196.0,76.0 198.8,76.0 201.6,64.0 204.4,64.0 207.2,76.0 210.0,76.0 212.8,76.0 215.6,88.0 218.4,70.0 221.2,64.0 224.0,58.0 226.8,58.0 229.6,70.0 232.4,70.0 235.2,70.0 238.0,76.0 240.8,70.0 243.6,70.0 246.4,70.0 249.2,70.0 252.0,76.0 254.8,82.0 257.6,76.0 260.4,70.0 263.2,70.0 266.0,70.0 268.8,70.0 271.6,76.0 274.4,70.0 277.2,70.0 280.0,70.0 282.8,70.0 285.6,70.0 288.4,70.0 291.2,70.0 294.0,70.0 296.8,70.0 299.6,70.0 302.4,70.0 305.2,70.0 308.0,70.0 310.8,70.0 313.6,70.0 316.4,70.0 319.2,70.0 322.0,70.0 324.8,70.0 327.6,70.0 330.4,70.0 333.2,70.0 336.0,70.0 338.8,70.0 341.6,70.0 344.4,70.0 347.2,70.0 350.0,70.0 352.8,70.0 355.6,70.0 358.4,70.0 361.2,70.0 364.0,70.0 366.8,70.0 369.6,70.0 372.4,70.0 375.2,70.0 378.0,70.0 380.8,70.0 383.6,70.0 386.4,70.0 389.2,70.0 392.0,70.0 394.8,70.0 397.6,70.0 400.4,70.0 403.2,70.0 406.0,70.0 408.8,70.0 411.6,70.0 414.4,70.0 417.2,70.0 420.0,70.0 422.8,70.0 425.6,70.0 428.4,70.0 431.2,70.0 434.0,70.0 436.8,70.0 439.6,70.0 442.4,70.0 445.2,70.0 448.0,70.0 450.8,70.0 453.6,70.0 456.4,70.0 459.2,70.0 462.0,70.0 464.8,76.0 467.6,70.0 470.4,70.0 473.2,70.0 476.0,70.0 478.8,70.0 481.6,76.0 484.4,76.0 487.2,88.0 490.0,88.0 492.8,88.0 495.6,94.0 498.4,94.0 501.2,94.0 504.0,94.0 506.8,88.0 509.6,88.0 512.4,82.0 515.2,82.0 518.0,82.0 520.8,88.0 523.6,88.0 526.4,94.0 529.2,82.0 532.0,82.0 534.8,82.0 537.6,82.0 540.4,88.0 543.2,88.0 546.0,94.0 548.8,94.0 551.6,88.0 554.4,88.0 557.2,88.0 560.0,94.0 562.8,94.0 565.6,106.0 568.4,94.0 571.2,94.0 574.0,94.0 576.8,94.0 579.6,88.0 582.4,88.0 585.2,82.0 588.0,76.0 590.8,76.0 593.6,76.0 596.4,76.0 599.2,76.0 602.0,76.0 604.8,70.0 607.6,70.0 610.4,70.0 613.2,76.0 616.0,88.0 618.8,82.0 621.6,70.0 624.4,70.0 627.2,70.0 630.0,76.0 632.8,76.0 635.6,76.0 638.4,82.0 641.2,70.0 644.0,76.0 646.8,64.0 649.6,70.0 652.4,58.0 655.2,58.0 658.0,58.0 660.8,58.0 663.6,58.0 666.4,64.0 669.2,58.0 672.0,64.0 674.8,58.0 677.6,58.0 680.4,58.0 683.2,58.0 686.0,64.0 688.8,64.0 691.6,64.0 694.4,76.0 697.2,70.0 700.0,82.0 702.8,70.0 705.6,76.0 708.4,58.0 711.2,64.0 714.0,58.0 716.8,64.0 719.6,58.0 722.4,58.0 725.2,58.0 728.0,64.0 730.8,70.0 733.6,64.0 736.4,64.0 739.2,64.0 742.0,70.0 744.8,70.0 747.6,64.0 750.4,70.0 753.2,70.0 756.0,70.0 758.8,58.0 761.6,58.0 764.4,58.0 767.2,58.0 770.0,58.0 772.8,64.0 775.6,58.0 778.4,58.0 781.2,58.0 784.0,58.0 786.8,58.0 789.6,58.0 792.4,58.0 795.2,58.0 798.0,64.0 800.8,58.0 803.6,58.0 806.4,58.0 809.2,58.0 812.0,58.0 814.8,58.0 817.6,58.0 820.4,64.0 823.2,58.0 826.0,58.0 828.8,58.0 831.6,58.0 834.4,58.0 837.2,58.0 840.0,58.0 842.8,58.0 845.6,58.0 848.4,58.0 851.2,58.0 854.0,58.0 856.8,58.0 859.6,58.0 862.4,58.0 865.2,58.0 868.0,58.0 870.8,58.0 873.6,58.0 876.4,64.0 879.2,64.0 882.0,58.0 884.8,58.0 887.6,58.0 890.4,64.0 893.2,64.0 896.0,76.0 898.8,64.0 901.6,64.0 904.4,70.0 907.2,58.0 910.0,58.0 912.8,58.0 915.6,58.0 918.4,58.0 921.2,58.0 924.0,70.0 926.8,64.0 929.6,64.0 932.4,64.0 935.2,64.0 938.0,70.0"/><polyline fill="none" stroke="#f59e0b" stroke-width="2.5" stroke-linejoin="round" stroke-linecap="round" points="42.0,274.0 44.8,274.0 47.6,274.0 50.4,280.0 53.2,268.0 56.0,268.0 58.8,268.0 61.6,274.0 64.4,274.0 67.2,274.0 70.0,280.0 72.8,286.0 75.6,286.0 78.4,286.0 81.2,286.0 84.0,286.0 86.8,286.0 89.6,286.0 92.4,286.0 95.2,286.0 98.0,286.0 100.8,286.0 103.6,286.0 106.4,286.0 109.2,286.0 112.0,286.0 114.8,286.0 117.6,286.0 120.4,286.0 123.2,286.0 126.0,286.0 128.8,274.0 131.6,280.0 134.4,280.0 137.2,280.0 140.0,280.0 142.8,286.0 145.6,286.0 148.4,286.0 151.2,274.0 154.0,268.0 156.8,268.0 159.6,262.0 162.4,262.0 165.2,262.0 168.0,262.0 170.8,268.0 173.6,280.0 176.4,280.0 179.2,274.0 182.0,262.0 184.8,268.0 187.6,268.0 190.4,262.0 193.2,268.0 196.0,268.0 198.8,268.0 201.6,280.0 204.4,280.0 207.2,268.0 210.0,268.0 212.8,268.0 215.6,262.0 218.4,274.0 221.2,280.0 224.0,286.0 226.8,286.0 229.6,274.0 232.4,274.0 235.2,274.0 238.0,274.0 240.8,274.0 243.6,274.0 246.4,274.0 249.2,274.0 252.0,280.0 254.8,274.0 257.6,280.0 260.4,286.0 263.2,286.0 266.0,286.0 268.8,286.0 271.6,280.0 274.4,286.0 277.2,286.0 280.0,286.0 282.8,286.0 285.6,286.0 288.4,286.0 291.2,286.0 294.0,286.0 296.8,286.0 299.6,286.0 302.4,286.0 305.2,286.0 308.0,286.0 310.8,286.0 313.6,286.0 316.4,286.0 319.2,286.0 322.0,286.0 324.8,286.0 327.6,286.0 330.4,286.0 333.2,286.0 336.0,286.0 338.8,286.0 341.6,286.0 344.4,286.0 347.2,286.0 350.0,286.0 352.8,286.0 355.6,286.0 358.4,286.0 361.2,286.0 364.0,286.0 366.8,286.0 369.6,286.0 372.4,286.0 375.2,286.0 378.0,286.0 380.8,286.0 383.6,286.0 386.4,286.0 389.2,286.0 392.0,286.0 394.8,286.0 397.6,286.0 400.4,286.0 403.2,286.0 406.0,286.0 408.8,286.0 411.6,286.0 414.4,286.0 417.2,286.0 420.0,286.0 422.8,286.0 425.6,286.0 428.4,286.0 431.2,286.0 434.0,286.0 436.8,286.0 439.6,286.0 442.4,286.0 445.2,286.0 448.0,286.0 450.8,286.0 453.6,286.0 456.4,286.0 459.2,286.0 462.0,286.0 464.8,286.0 467.6,286.0 470.4,286.0 473.2,286.0 476.0,286.0 478.8,286.0 481.6,286.0 484.4,280.0 487.2,268.0 490.0,268.0 492.8,268.0 495.6,268.0 498.4,262.0 501.2,262.0 504.0,262.0 506.8,268.0 509.6,268.0 512.4,274.0 515.2,274.0 518.0,274.0 520.8,268.0 523.6,268.0 526.4,268.0 529.2,274.0 532.0,274.0 534.8,274.0 537.6,274.0 540.4,268.0 543.2,268.0 546.0,262.0 548.8,262.0 551.6,268.0 554.4,268.0 557.2,268.0 560.0,262.0 562.8,262.0 565.6,274.0 568.4,262.0 571.2,262.0 574.0,262.0 576.8,262.0 579.6,268.0 582.4,268.0 585.2,274.0 588.0,280.0 590.8,280.0 593.6,280.0 596.4,280.0 599.2,280.0 602.0,280.0 604.8,286.0 607.6,286.0 610.4,286.0 613.2,280.0 616.0,274.0 618.8,274.0 621.6,280.0 624.4,274.0 627.2,274.0 630.0,268.0 632.8,268.0 635.6,268.0 638.4,268.0 641.2,280.0 644.0,274.0 646.8,280.0 649.6,280.0 652.4,286.0 655.2,286.0 658.0,286.0 660.8,286.0 663.6,286.0 666.4,286.0 669.2,286.0 672.0,286.0 674.8,286.0 677.6,286.0 680.4,286.0 683.2,286.0 686.0,280.0 688.8,280.0 691.6,280.0 694.4,268.0 697.2,280.0 700.0,268.0 702.8,274.0 705.6,274.0 708.4,286.0 711.2,280.0 714.0,286.0 716.8,280.0 719.6,286.0 722.4,286.0 725.2,286.0 728.0,280.0 730.8,274.0 733.6,280.0 736.4,280.0 739.2,280.0 742.0,274.0 744.8,274.0 747.6,280.0 750.4,280.0 753.2,280.0 756.0,280.0 758.8,286.0 761.6,286.0 764.4,286.0 767.2,286.0 770.0,286.0 772.8,286.0 775.6,286.0 778.4,286.0 781.2,286.0 784.0,286.0 786.8,286.0 789.6,286.0 792.4,286.0 795.2,286.0 798.0,286.0 800.8,286.0 803.6,286.0 806.4,286.0 809.2,286.0 812.0,286.0 814.8,286.0 817.6,286.0 820.4,286.0 823.2,286.0 826.0,286.0 828.8,286.0 831.6,286.0 834.4,286.0 837.2,286.0 840.0,286.0 842.8,286.0 845.6,286.0 848.4,286.0 851.2,286.0 854.0,286.0 856.8,286.0 859.6,286.0 862.4,286.0 865.2,286.0 868.0,286.0 870.8,286.0 873.6,286.0 876.4,286.0 879.2,286.0 882.0,286.0 884.8,286.0 887.6,286.0 890.4,280.0 893.2,280.0 896.0,280.0 898.8,280.0 901.6,280.0 904.4,274.0 907.2,286.0 910.0,286.0 912.8,286.0 915.6,286.0 918.4,286.0 921.2,286.0 924.0,286.0 926.8,280.0 929.6,280.0 932.4,280.0 935.2,280.0 938.0,274.0"/><polyline fill="none" stroke="#ef4444" stroke-width="2.5" stroke-linejoin="round" stroke-linecap="round" points="42.0,280.0 44.8,280.0 47.6,268.0 50.4,262.0 53.2,286.0 56.0,286.0 58.8,286.0 61.6,286.0 64.4,280.0 67.2,286.0 70.0,286.0 72.8,286.0 75.6,286.0 78.4,286.0 81.2,286.0 84.0,286.0 86.8,286.0 89.6,286.0 92.4,286.0 95.2,286.0 98.0,286.0 100.8,286.0 103.6,286.0 106.4,286.0 109.2,286.0 112.0,286.0 114.8,286.0 117.6,286.0 120.4,286.0 123.2,286.0 126.0,286.0 128.8,286.0 131.6,274.0 134.4,256.0 137.2,286.0 140.0,286.0 142.8,286.0 145.6,286.0 148.4,286.0 151.2,286.0 154.0,286.0 156.8,286.0 159.6,286.0 162.4,286.0 165.2,286.0 168.0,286.0 170.8,286.0 173.6,286.0 176.4,280.0 179.2,286.0 182.0,286.0 184.8,286.0 187.6,286.0 190.4,286.0 193.2,286.0 196.0,286.0 198.8,286.0 201.6,286.0 204.4,286.0 207.2,286.0 210.0,286.0 212.8,286.0 215.6,280.0 218.4,286.0 221.2,286.0 224.0,286.0 226.8,286.0 229.6,286.0 232.4,286.0 235.2,286.0 238.0,286.0 240.8,286.0 243.6,286.0 246.4,286.0 249.2,286.0 252.0,274.0 254.8,274.0 257.6,274.0 260.4,274.0 263.2,274.0 266.0,274.0 268.8,274.0 271.6,274.0 274.4,274.0 277.2,274.0 280.0,274.0 282.8,274.0 285.6,274.0 288.4,274.0 291.2,274.0 294.0,274.0 296.8,274.0 299.6,274.0 302.4,274.0 305.2,274.0 308.0,274.0 310.8,274.0 313.6,274.0 316.4,274.0 319.2,274.0 322.0,274.0 324.8,274.0 327.6,274.0 330.4,274.0 333.2,274.0 336.0,274.0 338.8,274.0 341.6,274.0 344.4,274.0 347.2,274.0 350.0,274.0 352.8,274.0 355.6,274.0 358.4,274.0 361.2,274.0 364.0,274.0 366.8,274.0 369.6,274.0 372.4,274.0 375.2,274.0 378.0,274.0 380.8,274.0 383.6,274.0 386.4,274.0 389.2,274.0 392.0,274.0 394.8,274.0 397.6,274.0 400.4,274.0 403.2,274.0 406.0,274.0 408.8,274.0 411.6,274.0 414.4,274.0 417.2,274.0 420.0,274.0 422.8,274.0 425.6,274.0 428.4,274.0 431.2,274.0 434.0,274.0 436.8,274.0 439.6,274.0 442.4,274.0 445.2,274.0 448.0,274.0 450.8,274.0 453.6,274.0 456.4,274.0 459.2,274.0 462.0,274.0 464.8,268.0 467.6,274.0 470.4,274.0 473.2,274.0 476.0,274.0 478.8,274.0 481.6,274.0 484.4,274.0 487.2,274.0 490.0,274.0 492.8,274.0 495.6,268.0 498.4,274.0 501.2,274.0 504.0,274.0 506.8,274.0 509.6,274.0 512.4,274.0 515.2,274.0 518.0,274.0 520.8,274.0 523.6,274.0 526.4,268.0 529.2,274.0 532.0,274.0 534.8,274.0 537.6,274.0 540.4,274.0 543.2,274.0 546.0,274.0 548.8,274.0 551.6,274.0 554.4,274.0 557.2,274.0 560.0,274.0 562.8,274.0 565.6,250.0 568.4,274.0 571.2,274.0 574.0,274.0 576.8,274.0 579.6,274.0 582.4,274.0 585.2,274.0 588.0,274.0 590.8,274.0 593.6,274.0 596.4,274.0 599.2,274.0 602.0,274.0 604.8,274.0 607.6,274.0 610.4,274.0 613.2,274.0 616.0,268.0 618.8,274.0 621.6,280.0 624.4,286.0 627.2,286.0 630.0,286.0 632.8,286.0 635.6,286.0 638.4,280.0 641.2,280.0 644.0,286.0 646.8,286.0 649.6,280.0 652.4,286.0 655.2,286.0 658.0,286.0 660.8,286.0 663.6,286.0 666.4,280.0 669.2,286.0 672.0,286.0 674.8,286.0 677.6,286.0 680.4,286.0 683.2,286.0 686.0,286.0 688.8,286.0 691.6,286.0 694.4,286.0 697.2,280.0 700.0,280.0 702.8,286.0 705.6,280.0 708.4,286.0 711.2,286.0 714.0,286.0 716.8,286.0 719.6,286.0 722.4,286.0 725.2,286.0 728.0,286.0 730.8,286.0 733.6,286.0 736.4,286.0 739.2,286.0 742.0,286.0 744.8,286.0 747.6,286.0 750.4,280.0 753.2,286.0 756.0,280.0 758.8,286.0 761.6,286.0 764.4,286.0 767.2,286.0 770.0,286.0 772.8,286.0 775.6,286.0 778.4,286.0 781.2,286.0 784.0,286.0 786.8,286.0 789.6,286.0 792.4,286.0 795.2,286.0 798.0,280.0 800.8,286.0 803.6,286.0 806.4,286.0 809.2,286.0 812.0,286.0 814.8,286.0 817.6,286.0 820.4,286.0 823.2,286.0 826.0,286.0 828.8,286.0 831.6,286.0 834.4,286.0 837.2,286.0 840.0,286.0 842.8,286.0 845.6,286.0 848.4,286.0 851.2,286.0 854.0,286.0 856.8,286.0 859.6,286.0 862.4,286.0 865.2,286.0 868.0,286.0 870.8,286.0 873.6,286.0 876.4,280.0 879.2,280.0 882.0,286.0 884.8,286.0 887.6,286.0 890.4,286.0 893.2,286.0 896.0,274.0 898.8,286.0 901.6,286.0 904.4,286.0 907.2,286.0 910.0,286.0 912.8,286.0 915.6,286.0 918.4,286.0 921.2,286.0 924.0,286.0 926.8,286.0 929.6,286.0 932.4,286.0 935.2,286.0 938.0,286.0"/><polyline fill="none" stroke="#a855f7" stroke-width="2.5" stroke-linejoin="round" stroke-linecap="round" points="42.0,286.0 44.8,286.0 47.6,286.0 50.4,286.0 53.2,286.0 56.0,286.0 58.8,286.0 61.6,286.0 64.4,286.0 67.2,286.0 70.0,286.0 72.8,286.0 75.6,286.0 78.4,286.0 81.2,286.0 84.0,286.0 86.8,286.0 89.6,286.0 92.4,286.0 95.2,286.0 98.0,286.0 100.8,286.0 103.6,286.0 106.4,286.0 109.2,286.0 112.0,286.0 114.8,286.0 117.6,286.0 120.4,286.0 123.2,286.0 126.0,286.0 128.8,286.0 131.6,286.0 134.4,286.0 137.2,286.0 140.0,286.0 142.8,286.0 145.6,286.0 148.4,286.0 151.2,286.0 154.0,286.0 156.8,286.0 159.6,286.0 162.4,286.0 165.2,286.0 168.0,286.0 170.8,286.0 173.6,286.0 176.4,286.0 179.2,286.0 182.0,286.0 184.8,286.0 187.6,286.0 190.4,286.0 193.2,286.0 196.0,286.0 198.8,286.0 201.6,286.0 204.4,286.0 207.2,286.0 210.0,286.0 212.8,286.0 215.6,286.0 218.4,286.0 221.2,286.0 224.0,286.0 226.8,286.0 229.6,286.0 232.4,286.0 235.2,286.0 238.0,280.0 240.8,286.0 243.6,286.0 246.4,286.0 249.2,286.0 252.0,286.0 254.8,286.0 257.6,286.0 260.4,286.0 263.2,286.0 266.0,286.0 268.8,286.0 271.6,286.0 274.4,286.0 277.2,286.0 280.0,286.0 282.8,286.0 285.6,286.0 288.4,286.0 291.2,286.0 294.0,286.0 296.8,286.0 299.6,286.0 302.4,286.0 305.2,286.0 308.0,286.0 310.8,286.0 313.6,286.0 316.4,286.0 319.2,286.0 322.0,286.0 324.8,286.0 327.6,286.0 330.4,286.0 333.2,286.0 336.0,286.0 338.8,286.0 341.6,286.0 344.4,286.0 347.2,286.0 350.0,286.0 352.8,286.0 355.6,286.0 358.4,286.0 361.2,286.0 364.0,286.0 366.8,286.0 369.6,286.0 372.4,286.0 375.2,286.0 378.0,286.0 380.8,286.0 383.6,286.0 386.4,286.0 389.2,286.0 392.0,286.0 394.8,286.0 397.6,286.0 400.4,286.0 403.2,286.0 406.0,286.0 408.8,286.0 411.6,286.0 414.4,286.0 417.2,286.0 420.0,286.0 422.8,286.0 425.6,286.0 428.4,286.0 431.2,286.0 434.0,286.0 436.8,286.0 439.6,286.0 442.4,286.0 445.2,286.0 448.0,286.0 450.8,286.0 453.6,286.0 456.4,286.0 459.2,286.0 462.0,286.0 464.8,286.0 467.6,286.0 470.4,286.0 473.2,286.0 476.0,286.0 478.8,286.0 481.6,280.0 484.4,286.0 487.2,286.0 490.0,286.0 492.8,286.0 495.6,286.0 498.4,286.0 501.2,286.0 504.0,286.0 506.8,286.0 509.6,286.0 512.4,286.0 515.2,286.0 518.0,286.0 520.8,286.0 523.6,286.0 526.4,286.0 529.2,286.0 532.0,286.0 534.8,286.0 537.6,286.0 540.4,286.0 543.2,286.0 546.0,286.0 548.8,286.0 551.6,286.0 554.4,286.0 557.2,286.0 560.0,286.0 562.8,286.0 565.6,286.0 568.4,286.0 571.2,286.0 574.0,286.0 576.8,286.0 579.6,286.0 582.4,286.0 585.2,286.0 588.0,286.0 590.8,286.0 593.6,286.0 596.4,286.0 599.2,286.0 602.0,286.0 604.8,286.0 607.6,286.0 610.4,286.0 613.2,286.0 616.0,286.0 618.8,286.0 621.6,286.0 624.4,286.0 627.2,286.0 630.0,286.0 632.8,286.0 635.6,286.0 638.4,286.0 641.2,286.0 644.0,280.0 646.8,286.0 649.6,286.0 652.4,286.0 655.2,286.0 658.0,286.0 660.8,286.0 663.6,286.0 666.4,286.0 669.2,286.0 672.0,280.0 674.8,286.0 677.6,286.0 680.4,286.0 683.2,286.0 686.0,286.0 688.8,286.0 691.6,286.0 694.4,286.0 697.2,286.0 700.0,286.0 702.8,286.0 705.6,286.0 708.4,286.0 711.2,286.0 714.0,286.0 716.8,286.0 719.6,286.0 722.4,286.0 725.2,286.0 728.0,286.0 730.8,286.0 733.6,286.0 736.4,286.0 739.2,286.0 742.0,286.0 744.8,286.0 747.6,286.0 750.4,286.0 753.2,280.0 756.0,286.0 758.8,286.0 761.6,286.0 764.4,286.0 767.2,286.0 770.0,286.0 772.8,280.0 775.6,286.0 778.4,286.0 781.2,286.0 784.0,286.0 786.8,286.0 789.6,286.0 792.4,286.0 795.2,286.0 798.0,286.0 800.8,286.0 803.6,286.0 806.4,286.0 809.2,286.0 812.0,286.0 814.8,286.0 817.6,286.0 820.4,280.0 823.2,286.0 826.0,286.0 828.8,286.0 831.6,286.0 834.4,286.0 837.2,286.0 840.0,286.0 842.8,286.0 845.6,286.0 848.4,286.0 851.2,286.0 854.0,286.0 856.8,286.0 859.6,286.0 862.4,286.0 865.2,286.0 868.0,286.0 870.8,286.0 873.6,286.0 876.4,286.0 879.2,286.0 882.0,286.0 884.8,286.0 887.6,286.0 890.4,286.0 893.2,286.0 896.0,286.0 898.8,286.0 901.6,286.0 904.4,286.0 907.2,286.0 910.0,286.0 912.8,286.0 915.6,286.0 918.4,286.0 921.2,286.0 924.0,274.0 926.8,286.0 929.6,286.0 932.4,286.0 935.2,286.0 938.0,286.0"/><text x="42" y="308" font-size="11" fill="#9fb0d4">19/06 12:43</text><text x="938" y="308" text-anchor="end" font-size="11" fill="#9fb0d4">07/07 06:31</text></svg>