<svg xmlns="http://www.w3.org/2000/svg" viewBox="0 0 960 320" width="960" height="320" font-family="Segoe UI, system-ui, -apple-system, Roboto, Helvetica, Arial, sans-serif" role="img" aria-label="Availability history per region"><rect x="0.5" y="0.5" width="959" height="319" rx="14" fill="#ffffff" stroke="#dce3f1"/><text x="42" y="26" font-size="14" font-weight="600" fill="#14203a">History · 153 points</text><circle cx="47" cy="40" r="5" fill="#22c55e"/><text x="57" y="44" font-size="12" fill="#5a688a">Available</text><circle cx="139.8" cy="40" r="5" fill="#f59e0b"/><text x="149.8" y="44" font-size="12" fill="#5a688a">Saturated</text><circle cx="232.60000000000002" cy="40" r="5" fill="#ef4444"/><text x="242.60000000000002" y="44" font-size="12" fill="#5a688a">Error</text><circle cx="296.6" cy="40" r="5" fill="#a855f7"/><text x="306.6" y="44" font-size="12" fill="#5a688a">Timeout</text><line x1="42" y1="286.0" x2="938" y2="286.0" stroke="#eef2f7" stroke-width="1"/><text x="35" y="289.0" text-anchor="end" font-size="11" fill="#5a688a">0</text><line x1="42" y1="227.5" x2="938" y2="227.5" stroke="#eef2f7" stroke-width="1"/><text x="35" y="230.5" text-anchor="end" font-size="11" fill="#5a688a">10</text><line x1="42" y1="169.0" x2="938" y2="169.0" stroke="#eef2f7" stroke-width="1"/><text x="35" y="172.0" text-anchor="end" font-size="11" fill="#5a688a">19</text><line x1="42" y1="110.5" x2="938" y2="110.5" stroke="#eef2f7" stroke-width="1"/><text x="35" y="113.5" text-anchor="end" font-size="11" fill="#5a688a">28</text><line x1="42" y1="52.0" x2="938" y2="52.0" stroke="#eef2f7" stroke-width="1"/><text x="35" y="55.0" text-anchor="end" font-size="11" fill="#5a688a">38</text><polyline fill="none" stroke="#22c55e" stroke-width="2.5" stroke-linejoin="round" stroke-linecap="round" points="42.0,64.3 47.9,224.4 53.8,82.8 59.7,88.9 65.6,82.8 71.5,76.6 77.4,76.6 83.3,76.6 89.2,76.6 95.1,76.6 100.9,76.6 106.8,76.6 112.7,76.6 118.6,76.6 124.5,76.6 130.4,70.5 136.3,70.5 142.2,82.8 148.1,82.8 154.0,82.8 159.9,88.9 165.8,88.9 171.7,88.9 177.6,88.9 183.5,88.9 189.4,88.9 195.3,88.9 201.2,88.9 207.1,88.9 212.9,82.8 218.8,82.8 224.7,82.8 230.6,82.8 236.5,76.6 242.4,76.6 248.3,76.6 254.2,76.6 260.1,76.6 266.0,82.8 271.9,82.8 277.8,82.8 283.7,82.8 289.6,76.6 295.5,76.6 301.4,76.6 307.3,76.6 313.2,76.6 319.1,76.6 324.9,76.6 330.8,82.8 336.7,82.8 342.6,82.8 348.5,82.8 354.4,76.6 360.3,76.6 366.2,76.6 372.1,76.6 378.0,76.6 383.9,76.6 389.8,76.6 395.7,76.6 401.6,82.8 407.5,76.6 413.4,76.6 419.3,76.6 425.2,76.6 431.1,76.6 436.9,82.8 442.8,76.6 448.7,76.6 454.6,76.6 460.5,76.6 466.4,76.6 472.3,76.6 478.2,76.6 484.1,76.6 490.0,76.6 495.9,70.5 501.8,70.5 507.7,70.5 513.6,70.5 519.5,76.6 525.4,70.5 531.3,76.6 537.2,76.6 543.1,76.6 548.9,76.6 554.8,76.6 560.7,76.6 566.6,82.8 572.5,88.9 578.4,88.9 584.3,88.9 590.2,88.9 596.1,88.9 602.0,88.9 607.9,88.9 613.8,95.1 619.7,88.9 625.6,88.9 631.5,88.9 637.4,88.9 643.3,88.9 649.2,88.9 655.1,82.8 660.9,82.8 666.8,82.8 672.7,82.8 678.6,82.8 684.5,82.8 690.4,82.8 696.3,82.8 702.2,88.9 708.1,88.9 714.0,88.9 719.9,88.9 725.8,88.9 731.7,88.9 737.6,88.9 743.5,88.9 749.4,95.1 755.3,88.9 761.2,88.9 767.1,88.9 772.9,101.3 778.8,88.9 784.7,88.9 790.6,88.9 796.5,88.9 802.4,82.8 808.3,82.8 814.2,82.8 820.1,82.8 826.0,88.9 831.9,82.8 837.8,88.9 843.7,88.9 849.6,88.9 855.5,88.9 861.4,95.1 867.3,88.9 873.2,88.9 879.1,88.9 884.9,88.9 890.8,88.9 896.7,88.9 902.6,88.9 908.5,88.9 914.4,95.1 920.3,82.8 926.2,82.8 932.1,82.8 938.0,82.8"/><polyline fill="none" stroke="#f59e0b" stroke-width="2.5" stroke-linejoin="round" stroke-linecap="round" points="42.0,273.7 47.9,267.5 53.8,255.2 59.7,249.1 65.6,255.2 71.5,261.4 77.4,261.4 83.3,261.4 89.2,261.4 95.1,261.4 100.9,261.4 106.8,261.4 112.7,261.4 118.6,261.4 124.5,261.4 130.4,267.5 136.3,267.5 142.2,261.4 148.1,255.2 154.0,255.2 159.9,249.1 165.8,249.1 171.7,249.1 177.6,249.1 183.5,249.1 189.4,249.1 195.3,249.1 201.2,249.1 207.1,249.1 212.9,255.2 218.8,255.2 224.7,255.2 230.6,255.2 236.5,261.4 242.4,261.4 248.3,261.4 254.2,261.4 260.1,261.4 266.0,255.2 271.9,255.2 277.8,255.2 283.7,255.2 289.6,261.4 295.5,261.4 301.4,261.4 307.3,261.4 313.2,261.4 319.1,261.4 324.9,261.4 330.8,255.2 336.7,255.2 342.6,255.2 348.5,261.4 354.4,261.4 360.3,261.4 366.2,261.4 372.1,261.4 378.0,261.4 383.9,261.4 389.8,261.4 395.7,261.4 401.6,255.2 407.5,261.4 413.4,261.4 419.3,261.4 425.2,261.4 431.1,261.4 436.9,261.4 442.8,261.4 448.7,261.4 454.6,261.4 460.5,261.4 466.4,261.4 472.3,261.4 478.2,261.4 484.1,261.4 490.0,261.4 495.9,267.5 501.8,267.5 507.7,267.5 513.6,267.5 519.5,267.5 525.4,267.5 531.3,261.4 537.2,261.4 543.1,261.4 548.9,261.4 554.8,261.4 560.7,261.4 566.6,255.2 572.5,249.1 578.4,249.1 584.3,255.2 590.2,249.1 596.1,249.1 602.0,249.1 607.9,249.1 613.8,249.1 619.7,249.1 625.6,255.2 631.5,249.1 637.4,249.1 643.3,249.1 649.2,249.1 655.1,255.2 660.9,255.2 666.8,255.2 672.7,255.2 678.6,255.2 684.5,255.2 690.4,255.2 696.3,255.2 702.2,249.1 708.1,249.1 714.0,249.1 719.9,249.1 725.8,249.1 731.7,249.1 737.6,249.1 743.5,255.2 749.4,249.1 755.3,249.1 761.2,249.1 767.1,249.1 772.9,249.1 778.8,249.1 784.7,249.1 790.6,255.2 796.5,255.2 802.4,255.2 808.3,255.2 814.2,255.2 820.1,255.2 826.0,255.2 831.9,255.2 837.8,249.1 843.7,249.1 849.6,249.1 855.5,249.1 861.4,249.1 867.3,249.1 873.2,249.1 879.1,249.1 884.9,249.1 890.8,249.1 896.7,249.1 902.6,249.1 908.5,249.1 914.4,249.1 920.3,255.2 926.2,255.2 932.1,255.2 938.0,255.2"/><polyline fill="none" stroke="#ef4444" stroke-width="2.5" stroke-linejoin="round" stroke-linecap="round" points="42.0,286.0 47.9,132.1 53.8,286.0 59.7,286.0 65.6,286.0 71.5,286.0 77.4,286.0 83.3,286.0 89.2,286.0 95.1,286.0 100.9,286.0 106.8,286.0 112.7,286.0 118.6,286.0 124.5,286.0 130.4,286.0 136.3,286.0 142.2,279.8 148.1,286.0 154.0,286.0 159.9,286.0 165.8,286.0 171.7,286.0 177.6,286.0 183.5,286.0 189.4,286.0 195.3,286.0 201.2,286.0 207.1,286.0 212.9,286.0 218.8,286.0 224.7,286.0 230.6,286.0 236.5,286.0 242.4,286.0 248.3,286.0 254.2,286.0 260.1,286.0 266.0,286.0 271.9,286.0 277.8,286.0 283.7,286.0 289.6,286.0 295.5,286.0 301.4,286.0 307.3,286.0 313.2,286.0 319.1,286.0 324.9,286.0 330.8,286.0 336.7,286.0 342.6,286.0 348.5,286.0 354.4,286.0 360.3,286.0 366.2,286.0 372.1,286.0 378.0,286.0 383.9,286.0 389.8,286.0 395.7,286.0 401.6,286.0 407.5,286.0 413.4,286.0 419.3,286.0 425.2,286.0 431.1,286.0 436.9,279.8 442.8,286.0 448.7,286.0 454.6,286.0 460.5,286.0 466.4,286.0 472.3,286.0 478.2,286.0 484.1,286.0 490.0,286.0 495.9,286.0 501.8,286.0 507.7,286.0 513.6,286.0 519.5,279.8 525.4,286.0 531.3,286.0 537.2,286.0 543.1,286.0 548.9,286.0 554.8,286.0 560.7,286.0 566.6,286.0 572.5,286.0 578.4,286.0 584.3,279.8 590.2,286.0 596.1,286.0 602.0,286.0 607.9,286.0 613.8,279.8 619.7,286.0 625.6,286.0 631.5,286.0 637.4,286.0 643.3,286.0 649.2,286.0 655.1,286.0 660.9,286.0 666.8,286.0 672.7,286.0 678.6,286.0 684.5,286.0 690.4,286.0 696.3,286.0 702.2,286.0 708.1,286.0 714.0,286.0 719.9,286.0 725.8,286.0 731.7,286.0 737.6,286.0 743.5,286.0 749.4,279.8 755.3,286.0 761.2,286.0 767.1,286.0 772.9,273.7 778.8,286.0 784.7,286.0 790.6,279.8 796.5,279.8 802.4,286.0 808.3,286.0 814.2,286.0 820.1,286.0 826.0,279.8 831.9,286.0 837.8,286.0 843.7,286.0 849.6,286.0 855.5,286.0 861.4,286.0 867.3,286.0 873.2,286.0 879.1,286.0 884.9,286.0 890.8,286.0 896.7,286.0 902.6,286.0 908.5,286.0 914.4,286.0 920.3,286.0 926.2,286.0 932.1,286.0 938.0,286.0"/><polyline fill="none" stroke="#a855f7" stroke-width="2.5" stroke-linejoin="round" stroke-linecap="round" points="42.0,286.0 47.9,286.0 53.8,286.0 59.7,286.0 65.6,286.0 71.5,286.0 77.4,286.0 83.3,286.0 89.2,286.0 95.1,286.0 100.9,286.0 106.8,286.0 112.7,286.0 118.6,286.0 124.5,286.0 130.4,286.0 136.3,286.0 142.2,286.0 148.1,286.0 154.0,286.0 159.9,286.0 165.8,286.0 171.7,286.0 177.6,286.0 183.5,286.0 189.4,286.0 195.3,286.0 201.2,286.0 207.1,286.0 212.9,286.0 218.8,286.0 224.7,286.0 230.6,286.0 236.5,286.0 242.4,286.0 248.3,286.0 254.2,286.0 260.1,286.0 266.0,286.0 271.9,286.0 277.8,286.0 283.7,286.0 289.6,286.0 295.5,286.0 301.4,286.0 307.3,286.0 313.2,286.0 319.1,286.0 324.9,286.0 330.8,286.0 336.7,286.0 342.6,286.0 348.5,279.8 354.4,286.0 360.3,286.0 366.2,286.0 372.1,286.0 378.0,286.0 383.9,286.0 389.8,286.0 395.7,286.0 401.6,286.0 407.5,286.0 413.4,286.0 419.3,286.0 425.2,286.0 431.1,286.0 436.9,286.0 442.8,286.0 448.7,286.0 454.6,286.0 460.5,286.0 466.4,286.0 472.3,286.0 478.2,286.0 484.1,286.0 490.0,286.0 495.9,286.0 501.8,286.0 507.7,286.0 513.6,286.0 519.5,286.0 525.4,286.0 531.3,286.0 537.2,286.0 543.1,286.0 548.9,286.0 554.8,286.0 560.7,286.0 566.6,286.0 572.5,286.0 578.4,286.0 584.3,286.0 590.2,286.0 596.1,286.0 602.0,286.0 607.9,286.0 613.8,286.0 619.7,286.0 625.6,279.8 631.5,286.0 637.4,286.0 643.3,286.0 649.2,286.0 655.1,286.0 660.9,286.0 666.8,286.0 672.7,286.0 678.6,286.0 684.5,286.0 690.4,286.0 696.3,286.0 702.2,286.0 708.1,286.0 714.0,286.0 719.9,286.0 725.8,286.0 731.7,286.0 737.6,286.0 743.5,279.8 749.4,286.0 755.3,286.0 761.2,286.0 767.1,286.0 772.9,286.0 778.8,286.0 784.7,286.0 790.6,286.0 796.5,286.0 802.4,286.0 808.3,286.0 814.2,286.0 820.1,286.0 826.0,286.0 831.9,286.0 837.8,286.0 843.7,286.0 849.6,286.0 855.5,286.0 861.4,279.8 867.3,286.0 873.2,286.0 879.1,286.0 884.9,286.0 890.8,286.0 896.7,286.0 902.6,286.0 908.5,286.0 914.4,279.8 920.3,286.0 926.2,286.0 932.1,286.0 938.0,286.0"/><text x="42" y="308" font-size="11" fill="#5a688a">19/06 15:39</text><text x="938" y="308" text-anchor="end" font-size="11" fill="#5a688a">22/07 23:29</text></svg>