<svg xmlns="http://www.w3.org/2000/svg" viewBox="0 0 960 320" width="960" height="320" font-family="Segoe UI, system-ui, -apple-system, Roboto, Helvetica, Arial, sans-serif" role="img" aria-label="Availability history per region"><rect x="0.5" y="0.5" width="959" height="319" rx="14" fill="#0d1117" stroke="#2c3a5e"/><text x="42" y="26" font-size="14" font-weight="600" fill="#e6ecff">History · 54 points</text><circle cx="47" cy="40" r="5" fill="#22c55e"/><text x="57" y="44" font-size="12" fill="#9fb0d4">Available</text><circle cx="139.8" cy="40" r="5" fill="#f59e0b"/><text x="149.8" y="44" font-size="12" fill="#9fb0d4">Saturated</text><circle cx="232.60000000000002" cy="40" r="5" fill="#ef4444"/><text x="242.60000000000002" y="44" font-size="12" fill="#9fb0d4">Error</text><circle cx="296.6" cy="40" r="5" fill="#a855f7"/><text x="306.6" y="44" font-size="12" fill="#9fb0d4">Timeout</text><line x1="42" y1="286.0" x2="938" y2="286.0" stroke="#21304f" stroke-width="1"/><text x="35" y="289.0" text-anchor="end" font-size="11" fill="#9fb0d4">0</text><line x1="42" y1="227.5" x2="938" y2="227.5" stroke="#21304f" stroke-width="1"/><text x="35" y="230.5" text-anchor="end" font-size="11" fill="#9fb0d4">10</text><line x1="42" y1="169.0" x2="938" y2="169.0" stroke="#21304f" stroke-width="1"/><text x="35" y="172.0" text-anchor="end" font-size="11" fill="#9fb0d4">19</text><line x1="42" y1="110.5" x2="938" y2="110.5" stroke="#21304f" stroke-width="1"/><text x="35" y="113.5" text-anchor="end" font-size="11" fill="#9fb0d4">28</text><line x1="42" y1="52.0" x2="938" y2="52.0" stroke="#21304f" stroke-width="1"/><text x="35" y="55.0" text-anchor="end" font-size="11" fill="#9fb0d4">38</text><polyline fill="none" stroke="#22c55e" stroke-width="2.5" stroke-linejoin="round" stroke-linecap="round" points="42.0,64.3 58.9,224.4 75.8,82.8 92.7,88.9 109.6,82.8 126.5,76.6 143.4,76.6 160.3,76.6 177.2,76.6 194.2,76.6 211.1,76.6 228.0,76.6 244.9,76.6 261.8,76.6 278.7,76.6 295.6,70.5 312.5,70.5 329.4,82.8 346.3,82.8 363.2,82.8 380.1,88.9 397.0,88.9 413.9,88.9 430.8,88.9 447.7,88.9 464.6,88.9 481.5,88.9 498.5,88.9 515.4,88.9 532.3,82.8 549.2,82.8 566.1,82.8 583.0,82.8 599.9,76.6 616.8,76.6 633.7,76.6 650.6,76.6 667.5,76.6 684.4,82.8 701.3,82.8 718.2,82.8 735.1,82.8 752.0,76.6 768.9,76.6 785.8,76.6 802.8,76.6 819.7,76.6 836.6,76.6 853.5,76.6 870.4,82.8 887.3,82.8 904.2,82.8 921.1,82.8 938.0,76.6"/><circle cx="42.0" cy="64.3" r="2.5" fill="#22c55e"/><circle cx="58.9" cy="224.4" r="2.5" fill="#22c55e"/><circle cx="75.8" cy="82.8" r="2.5" fill="#22c55e"/><circle cx="92.7" cy="88.9" r="2.5" fill="#22c55e"/><circle cx="109.6" cy="82.8" r="2.5" fill="#22c55e"/><circle cx="126.5" cy="76.6" r="2.5" fill="#22c55e"/><circle cx="143.4" cy="76.6" r="2.5" fill="#22c55e"/><circle cx="160.3" cy="76.6" r="2.5" fill="#22c55e"/><circle cx="177.2" cy="76.6" r="2.5" fill="#22c55e"/><circle cx="194.2" cy="76.6" r="2.5" fill="#22c55e"/><circle cx="211.1" cy="76.6" r="2.5" fill="#22c55e"/><circle cx="228.0" cy="76.6" r="2.5" fill="#22c55e"/><circle cx="244.9" cy="76.6" r="2.5" fill="#22c55e"/><circle cx="261.8" cy="76.6" r="2.5" fill="#22c55e"/><circle cx="278.7" cy="76.6" r="2.5" fill="#22c55e"/><circle cx="295.6" cy="70.5" r="2.5" fill="#22c55e"/><circle cx="312.5" cy="70.5" r="2.5" fill="#22c55e"/><circle cx="329.4" cy="82.8" r="2.5" fill="#22c55e"/><circle cx="346.3" cy="82.8" r="2.5" fill="#22c55e"/><circle cx="363.2" cy="82.8" r="2.5" fill="#22c55e"/><circle cx="380.1" cy="88.9" r="2.5" fill="#22c55e"/><circle cx="397.0" cy="88.9" r="2.5" fill="#22c55e"/><circle cx="413.9" cy="88.9" r="2.5" fill="#22c55e"/><circle cx="430.8" cy="88.9" r="2.5" fill="#22c55e"/><circle cx="447.7" cy="88.9" r="2.5" fill="#22c55e"/><circle cx="464.6" cy="88.9" r="2.5" fill="#22c55e"/><circle cx="481.5" cy="88.9" r="2.5" fill="#22c55e"/><circle cx="498.5" cy="88.9" r="2.5" fill="#22c55e"/><circle cx="515.4" cy="88.9" r="2.5" fill="#22c55e"/><circle cx="532.3" cy="82.8" r="2.5" fill="#22c55e"/><circle cx="549.2" cy="82.8" r="2.5" fill="#22c55e"/><circle cx="566.1" cy="82.8" r="2.5" fill="#22c55e"/><circle cx="583.0" cy="82.8" r="2.5" fill="#22c55e"/><circle cx="599.9" cy="76.6" r="2.5" fill="#22c55e"/><circle cx="616.8" cy="76.6" r="2.5" fill="#22c55e"/><circle cx="633.7" cy="76.6" r="2.5" fill="#22c55e"/><circle cx="650.6" cy="76.6" r="2.5" fill="#22c55e"/><circle cx="667.5" cy="76.6" r="2.5" fill="#22c55e"/><circle cx="684.4" cy="82.8" r="2.5" fill="#22c55e"/><circle cx="701.3" cy="82.8" r="2.5" fill="#22c55e"/><circle cx="718.2" cy="82.8" r="2.5" fill="#22c55e"/><circle cx="735.1" cy="82.8" r="2.5" fill="#22c55e"/><circle cx="752.0" cy="76.6" r="2.5" fill="#22c55e"/><circle cx="768.9" cy="76.6" r="2.5" fill="#22c55e"/><circle cx="785.8" cy="76.6" r="2.5" fill="#22c55e"/><circle cx="802.8" cy="76.6" r="2.5" fill="#22c55e"/><circle cx="819.7" cy="76.6" r="2.5" fill="#22c55e"/><circle cx="836.6" cy="76.6" r="2.5" fill="#22c55e"/><circle cx="853.5" cy="76.6" r="2.5" fill="#22c55e"/><circle cx="870.4" cy="82.8" r="2.5" fill="#22c55e"/><circle cx="887.3" cy="82.8" r="2.5" fill="#22c55e"/><circle cx="904.2" cy="82.8" r="2.5" fill="#22c55e"/><circle cx="921.1" cy="82.8" r="2.5" fill="#22c55e"/><circle cx="938.0" cy="76.6" r="2.5" fill="#22c55e"/><polyline fill="none" stroke="#f59e0b" stroke-width="2.5" stroke-linejoin="round" stroke-linecap="round" points="42.0,273.7 58.9,267.5 75.8,255.2 92.7,249.1 109.6,255.2 126.5,261.4 143.4,261.4 160.3,261.4 177.2,261.4 194.2,261.4 211.1,261.4 228.0,261.4 244.9,261.4 261.8,261.4 278.7,261.4 295.6,267.5 312.5,267.5 329.4,261.4 346.3,255.2 363.2,255.2 380.1,249.1 397.0,249.1 413.9,249.1 430.8,249.1 447.7,249.1 464.6,249.1 481.5,249.1 498.5,249.1 515.4,249.1 532.3,255.2 549.2,255.2 566.1,255.2 583.0,255.2 599.9,261.4 616.8,261.4 633.7,261.4 650.6,261.4 667.5,261.4 684.4,255.2 701.3,255.2 718.2,255.2 735.1,255.2 752.0,261.4 768.9,261.4 785.8,261.4 802.8,261.4 819.7,261.4 836.6,261.4 853.5,261.4 870.4,255.2 887.3,255.2 904.2,255.2 921.1,261.4 938.0,261.4"/><circle cx="42.0" cy="273.7" r="2.5" fill="#f59e0b"/><circle cx="58.9" cy="267.5" r="2.5" fill="#f59e0b"/><circle cx="75.8" cy="255.2" r="2.5" fill="#f59e0b"/><circle cx="92.7" cy="249.1" r="2.5" fill="#f59e0b"/><circle cx="109.6" cy="255.2" r="2.5" fill="#f59e0b"/><circle cx="126.5" cy="261.4" r="2.5" fill="#f59e0b"/><circle cx="143.4" cy="261.4" r="2.5" fill="#f59e0b"/><circle cx="160.3" cy="261.4" r="2.5" fill="#f59e0b"/><circle cx="177.2" cy="261.4" r="2.5" fill="#f59e0b"/><circle cx="194.2" cy="261.4" r="2.5" fill="#f59e0b"/><circle cx="211.1" cy="261.4" r="2.5" fill="#f59e0b"/><circle cx="228.0" cy="261.4" r="2.5" fill="#f59e0b"/><circle cx="244.9" cy="261.4" r="2.5" fill="#f59e0b"/><circle cx="261.8" cy="261.4" r="2.5" fill="#f59e0b"/><circle cx="278.7" cy="261.4" r="2.5" fill="#f59e0b"/><circle cx="295.6" cy="267.5" r="2.5" fill="#f59e0b"/><circle cx="312.5" cy="267.5" r="2.5" fill="#f59e0b"/><circle cx="329.4" cy="261.4" r="2.5" fill="#f59e0b"/><circle cx="346.3" cy="255.2" r="2.5" fill="#f59e0b"/><circle cx="363.2" cy="255.2" r="2.5" fill="#f59e0b"/><circle cx="380.1" cy="249.1" r="2.5" fill="#f59e0b"/><circle cx="397.0" cy="249.1" r="2.5" fill="#f59e0b"/><circle cx="413.9" cy="249.1" r="2.5" fill="#f59e0b"/><circle cx="430.8" cy="249.1" r="2.5" fill="#f59e0b"/><circle cx="447.7" cy="249.1" r="2.5" fill="#f59e0b"/><circle cx="464.6" cy="249.1" r="2.5" fill="#f59e0b"/><circle cx="481.5" cy="249.1" r="2.5" fill="#f59e0b"/><circle cx="498.5" cy="249.1" r="2.5" fill="#f59e0b"/><circle cx="515.4" cy="249.1" r="2.5" fill="#f59e0b"/><circle cx="532.3" cy="255.2" r="2.5" fill="#f59e0b"/><circle cx="549.2" cy="255.2" r="2.5" fill="#f59e0b"/><circle cx="566.1" cy="255.2" r="2.5" fill="#f59e0b"/><circle cx="583.0" cy="255.2" r="2.5" fill="#f59e0b"/><circle cx="599.9" cy="261.4" r="2.5" fill="#f59e0b"/><circle cx="616.8" cy="261.4" r="2.5" fill="#f59e0b"/><circle cx="633.7" cy="261.4" r="2.5" fill="#f59e0b"/><circle cx="650.6" cy="261.4" r="2.5" fill="#f59e0b"/><circle cx="667.5" cy="261.4" r="2.5" fill="#f59e0b"/><circle cx="684.4" cy="255.2" r="2.5" fill="#f59e0b"/><circle cx="701.3" cy="255.2" r="2.5" fill="#f59e0b"/><circle cx="718.2" cy="255.2" r="2.5" fill="#f59e0b"/><circle cx="735.1" cy="255.2" r="2.5" fill="#f59e0b"/><circle cx="752.0" cy="261.4" r="2.5" fill="#f59e0b"/><circle cx="768.9" cy="261.4" r="2.5" fill="#f59e0b"/><circle cx="785.8" cy="261.4" r="2.5" fill="#f59e0b"/><circle cx="802.8" cy="261.4" r="2.5" fill="#f59e0b"/><circle cx="819.7" cy="261.4" r="2.5" fill="#f59e0b"/><circle cx="836.6" cy="261.4" r="2.5" fill="#f59e0b"/><circle cx="853.5" cy="261.4" r="2.5" fill="#f59e0b"/><circle cx="870.4" cy="255.2" r="2.5" fill="#f59e0b"/><circle cx="887.3" cy="255.2" r="2.5" fill="#f59e0b"/><circle cx="904.2" cy="255.2" r="2.5" fill="#f59e0b"/><circle cx="921.1" cy="261.4" r="2.5" fill="#f59e0b"/><circle cx="938.0" cy="261.4" r="2.5" fill="#f59e0b"/><polyline fill="none" stroke="#ef4444" stroke-width="2.5" stroke-linejoin="round" stroke-linecap="round" points="42.0,286.0 58.9,132.1 75.8,286.0 92.7,286.0 109.6,286.0 126.5,286.0 143.4,286.0 160.3,286.0 177.2,286.0 194.2,286.0 211.1,286.0 228.0,286.0 244.9,286.0 261.8,286.0 278.7,286.0 295.6,286.0 312.5,286.0 329.4,279.8 346.3,286.0 363.2,286.0 380.1,286.0 397.0,286.0 413.9,286.0 430.8,286.0 447.7,286.0 464.6,286.0 481.5,286.0 498.5,286.0 515.4,286.0 532.3,286.0 549.2,286.0 566.1,286.0 583.0,286.0 599.9,286.0 616.8,286.0 633.7,286.0 650.6,286.0 667.5,286.0 684.4,286.0 701.3,286.0 718.2,286.0 735.1,286.0 752.0,286.0 768.9,286.0 785.8,286.0 802.8,286.0 819.7,286.0 836.6,286.0 853.5,286.0 870.4,286.0 887.3,286.0 904.2,286.0 921.1,286.0 938.0,286.0"/><circle cx="42.0" cy="286.0" r="2.5" fill="#ef4444"/><circle cx="58.9" cy="132.1" r="2.5" fill="#ef4444"/><circle cx="75.8" cy="286.0" r="2.5" fill="#ef4444"/><circle cx="92.7" cy="286.0" r="2.5" fill="#ef4444"/><circle cx="109.6" cy="286.0" r="2.5" fill="#ef4444"/><circle cx="126.5" cy="286.0" r="2.5" fill="#ef4444"/><circle cx="143.4" cy="286.0" r="2.5" fill="#ef4444"/><circle cx="160.3" cy="286.0" r="2.5" fill="#ef4444"/><circle cx="177.2" cy="286.0" r="2.5" fill="#ef4444"/><circle cx="194.2" cy="286.0" r="2.5" fill="#ef4444"/><circle cx="211.1" cy="286.0" r="2.5" fill="#ef4444"/><circle cx="228.0" cy="286.0" r="2.5" fill="#ef4444"/><circle cx="244.9" cy="286.0" r="2.5" fill="#ef4444"/><circle cx="261.8" cy="286.0" r="2.5" fill="#ef4444"/><circle cx="278.7" cy="286.0" r="2.5" fill="#ef4444"/><circle cx="295.6" cy="286.0" r="2.5" fill="#ef4444"/><circle cx="312.5" cy="286.0" r="2.5" fill="#ef4444"/><circle cx="329.4" cy="279.8" r="2.5" fill="#ef4444"/><circle cx="346.3" cy="286.0" r="2.5" fill="#ef4444"/><circle cx="363.2" cy="286.0" r="2.5" fill="#ef4444"/><circle cx="380.1" cy="286.0" r="2.5" fill="#ef4444"/><circle cx="397.0" cy="286.0" r="2.5" fill="#ef4444"/><circle cx="413.9" cy="286.0" r="2.5" fill="#ef4444"/><circle cx="430.8" cy="286.0" r="2.5" fill="#ef4444"/><circle cx="447.7" cy="286.0" r="2.5" fill="#ef4444"/><circle cx="464.6" cy="286.0" r="2.5" fill="#ef4444"/><circle cx="481.5" cy="286.0" r="2.5" fill="#ef4444"/><circle cx="498.5" cy="286.0" r="2.5" fill="#ef4444"/><circle cx="515.4" cy="286.0" r="2.5" fill="#ef4444"/><circle cx="532.3" cy="286.0" r="2.5" fill="#ef4444"/><circle cx="549.2" cy="286.0" r="2.5" fill="#ef4444"/><circle cx="566.1" cy="286.0" r="2.5" fill="#ef4444"/><circle cx="583.0" cy="286.0" r="2.5" fill="#ef4444"/><circle cx="599.9" cy="286.0" r="2.5" fill="#ef4444"/><circle cx="616.8" cy="286.0" r="2.5" fill="#ef4444"/><circle cx="633.7" cy="286.0" r="2.5" fill="#ef4444"/><circle cx="650.6" cy="286.0" r="2.5" fill="#ef4444"/><circle cx="667.5" cy="286.0" r="2.5" fill="#ef4444"/><circle cx="684.4" cy="286.0" r="2.5" fill="#ef4444"/><circle cx="701.3" cy="286.0" r="2.5" fill="#ef4444"/><circle cx="718.2" cy="286.0" r="2.5" fill="#ef4444"/><circle cx="735.1" cy="286.0" r="2.5" fill="#ef4444"/><circle cx="752.0" cy="286.0" r="2.5" fill="#ef4444"/><circle cx="768.9" cy="286.0" r="2.5" fill="#ef4444"/><circle cx="785.8" cy="286.0" r="2.5" fill="#ef4444"/><circle cx="802.8" cy="286.0" r="2.5" fill="#ef4444"/><circle cx="819.7" cy="286.0" r="2.5" fill="#ef4444"/><circle cx="836.6" cy="286.0" r="2.5" fill="#ef4444"/><circle cx="853.5" cy="286.0" r="2.5" fill="#ef4444"/><circle cx="870.4" cy="286.0" r="2.5" fill="#ef4444"/><circle cx="887.3" cy="286.0" r="2.5" fill="#ef4444"/><circle cx="904.2" cy="286.0" r="2.5" fill="#ef4444"/><circle cx="921.1" cy="286.0" r="2.5" fill="#ef4444"/><circle cx="938.0" cy="286.0" r="2.5" fill="#ef4444"/><polyline fill="none" stroke="#a855f7" stroke-width="2.5" stroke-linejoin="round" stroke-linecap="round" points="42.0,286.0 58.9,286.0 75.8,286.0 92.7,286.0 109.6,286.0 126.5,286.0 143.4,286.0 160.3,286.0 177.2,286.0 194.2,286.0 211.1,286.0 228.0,286.0 244.9,286.0 261.8,286.0 278.7,286.0 295.6,286.0 312.5,286.0 329.4,286.0 346.3,286.0 363.2,286.0 380.1,286.0 397.0,286.0 413.9,286.0 430.8,286.0 447.7,286.0 464.6,286.0 481.5,286.0 498.5,286.0 515.4,286.0 532.3,286.0 549.2,286.0 566.1,286.0 583.0,286.0 599.9,286.0 616.8,286.0 633.7,286.0 650.6,286.0 667.5,286.0 684.4,286.0 701.3,286.0 718.2,286.0 735.1,286.0 752.0,286.0 768.9,286.0 785.8,286.0 802.8,286.0 819.7,286.0 836.6,286.0 853.5,286.0 870.4,286.0 887.3,286.0 904.2,286.0 921.1,279.8 938.0,286.0"/><circle cx="42.0" cy="286.0" r="2.5" fill="#a855f7"/><circle cx="58.9" cy="286.0" r="2.5" fill="#a855f7"/><circle cx="75.8" cy="286.0" r="2.5" fill="#a855f7"/><circle cx="92.7" cy="286.0" r="2.5" fill="#a855f7"/><circle cx="109.6" cy="286.0" r="2.5" fill="#a855f7"/><circle cx="126.5" cy="286.0" r="2.5" fill="#a855f7"/><circle cx="143.4" cy="286.0" r="2.5" fill="#a855f7"/><circle cx="160.3" cy="286.0" r="2.5" fill="#a855f7"/><circle cx="177.2" cy="286.0" r="2.5" fill="#a855f7"/><circle cx="194.2" cy="286.0" r="2.5" fill="#a855f7"/><circle cx="211.1" cy="286.0" r="2.5" fill="#a855f7"/><circle cx="228.0" cy="286.0" r="2.5" fill="#a855f7"/><circle cx="244.9" cy="286.0" r="2.5" fill="#a855f7"/><circle cx="261.8" cy="286.0" r="2.5" fill="#a855f7"/><circle cx="278.7" cy="286.0" r="2.5" fill="#a855f7"/><circle cx="295.6" cy="286.0" r="2.5" fill="#a855f7"/><circle cx="312.5" cy="286.0" r="2.5" fill="#a855f7"/><circle cx="329.4" cy="286.0" r="2.5" fill="#a855f7"/><circle cx="346.3" cy="286.0" r="2.5" fill="#a855f7"/><circle cx="363.2" cy="286.0" r="2.5" fill="#a855f7"/><circle cx="380.1" cy="286.0" r="2.5" fill="#a855f7"/><circle cx="397.0" cy="286.0" r="2.5" fill="#a855f7"/><circle cx="413.9" cy="286.0" r="2.5" fill="#a855f7"/><circle cx="430.8" cy="286.0" r="2.5" fill="#a855f7"/><circle cx="447.7" cy="286.0" r="2.5" fill="#a855f7"/><circle cx="464.6" cy="286.0" r="2.5" fill="#a855f7"/><circle cx="481.5" cy="286.0" r="2.5" fill="#a855f7"/><circle cx="498.5" cy="286.0" r="2.5" fill="#a855f7"/><circle cx="515.4" cy="286.0" r="2.5" fill="#a855f7"/><circle cx="532.3" cy="286.0" r="2.5" fill="#a855f7"/><circle cx="549.2" cy="286.0" r="2.5" fill="#a855f7"/><circle cx="566.1" cy="286.0" r="2.5" fill="#a855f7"/><circle cx="583.0" cy="286.0" r="2.5" fill="#a855f7"/><circle cx="599.9" cy="286.0" r="2.5" fill="#a855f7"/><circle cx="616.8" cy="286.0" r="2.5" fill="#a855f7"/><circle cx="633.7" cy="286.0" r="2.5" fill="#a855f7"/><circle cx="650.6" cy="286.0" r="2.5" fill="#a855f7"/><circle cx="667.5" cy="286.0" r="2.5" fill="#a855f7"/><circle cx="684.4" cy="286.0" r="2.5" fill="#a855f7"/><circle cx="701.3" cy="286.0" r="2.5" fill="#a855f7"/><circle cx="718.2" cy="286.0" r="2.5" fill="#a855f7"/><circle cx="735.1" cy="286.0" r="2.5" fill="#a855f7"/><circle cx="752.0" cy="286.0" r="2.5" fill="#a855f7"/><circle cx="768.9" cy="286.0" r="2.5" fill="#a855f7"/><circle cx="785.8" cy="286.0" r="2.5" fill="#a855f7"/><circle cx="802.8" cy="286.0" r="2.5" fill="#a855f7"/><circle cx="819.7" cy="286.0" r="2.5" fill="#a855f7"/><circle cx="836.6" cy="286.0" r="2.5" fill="#a855f7"/><circle cx="853.5" cy="286.0" r="2.5" fill="#a855f7"/><circle cx="870.4" cy="286.0" r="2.5" fill="#a855f7"/><circle cx="887.3" cy="286.0" r="2.5" fill="#a855f7"/><circle cx="904.2" cy="286.0" r="2.5" fill="#a855f7"/><circle cx="921.1" cy="279.8" r="2.5" fill="#a855f7"/><circle cx="938.0" cy="286.0" r="2.5" fill="#a855f7"/><text x="42" y="308" font-size="11" fill="#9fb0d4">19/06 15:39</text><text x="938" y="308" text-anchor="end" font-size="11" fill="#9fb0d4">18/07 19:29</text></svg>