<svg xmlns="http://www.w3.org/2000/svg" viewBox="0 0 960 320" width="960" height="320" font-family="Segoe UI, system-ui, -apple-system, Roboto, Helvetica, Arial, sans-serif" role="img" aria-label="Availability history per region"><rect x="0.5" y="0.5" width="959" height="319" rx="14" fill="#ffffff" stroke="#dce3f1"/><text x="42" y="26" font-size="14" font-weight="600" fill="#14203a">History · 330 points</text><circle cx="47" cy="40" r="5" fill="#22c55e"/><text x="57" y="44" font-size="12" fill="#5a688a">Available</text><circle cx="139.8" cy="40" r="5" fill="#f59e0b"/><text x="149.8" y="44" font-size="12" fill="#5a688a">Saturated</text><circle cx="232.60000000000002" cy="40" r="5" fill="#ef4444"/><text x="242.60000000000002" y="44" font-size="12" fill="#5a688a">Error</text><circle cx="296.6" cy="40" r="5" fill="#a855f7"/><text x="306.6" y="44" font-size="12" fill="#5a688a">Timeout</text><line x1="42" y1="286.0" x2="938" y2="286.0" stroke="#eef2f7" stroke-width="1"/><text x="35" y="289.0" text-anchor="end" font-size="11" fill="#5a688a">0</text><line x1="42" y1="227.5" x2="938" y2="227.5" stroke="#eef2f7" stroke-width="1"/><text x="35" y="230.5" text-anchor="end" font-size="11" fill="#5a688a">10</text><line x1="42" y1="169.0" x2="938" y2="169.0" stroke="#eef2f7" stroke-width="1"/><text x="35" y="172.0" text-anchor="end" font-size="11" fill="#5a688a">20</text><line x1="42" y1="110.5" x2="938" y2="110.5" stroke="#eef2f7" stroke-width="1"/><text x="35" y="113.5" text-anchor="end" font-size="11" fill="#5a688a">29</text><line x1="42" y1="52.0" x2="938" y2="52.0" stroke="#eef2f7" stroke-width="1"/><text x="35" y="55.0" text-anchor="end" font-size="11" fill="#5a688a">39</text><polyline fill="none" stroke="#22c55e" stroke-width="2.5" stroke-linejoin="round" stroke-linecap="round" points="42.0,70.0 44.7,70.0 47.4,88.0 50.2,88.0 52.9,76.0 55.6,76.0 58.3,76.0 61.1,70.0 63.8,76.0 66.5,70.0 69.2,64.0 72.0,58.0 74.7,58.0 77.4,58.0 80.1,58.0 82.9,58.0 85.6,58.0 88.3,58.0 91.0,58.0 93.7,58.0 96.5,58.0 99.2,58.0 101.9,58.0 104.6,58.0 107.4,58.0 110.1,58.0 112.8,58.0 115.5,58.0 118.3,58.0 121.0,58.0 123.7,58.0 126.4,70.0 129.1,76.0 131.9,94.0 134.6,64.0 137.3,64.0 140.0,58.0 142.8,58.0 145.5,58.0 148.2,70.0 150.9,76.0 153.7,76.0 156.4,82.0 159.1,82.0 161.8,82.0 164.6,82.0 167.3,76.0 170.0,64.0 172.7,70.0 175.4,70.0 178.2,82.0 180.9,76.0 183.6,76.0 186.3,82.0 189.1,76.0 191.8,76.0 194.5,76.0 197.2,64.0 200.0,64.0 202.7,76.0 205.4,76.0 208.1,76.0 210.9,88.0 213.6,70.0 216.3,64.0 219.0,58.0 221.7,58.0 224.5,70.0 227.2,70.0 229.9,70.0 232.6,76.0 235.4,70.0 238.1,70.0 240.8,70.0 243.5,70.0 246.3,76.0 249.0,82.0 251.7,76.0 254.4,70.0 257.1,70.0 259.9,70.0 262.6,70.0 265.3,76.0 268.0,70.0 270.8,70.0 273.5,70.0 276.2,70.0 278.9,70.0 281.7,70.0 284.4,70.0 287.1,70.0 289.8,70.0 292.6,70.0 295.3,70.0 298.0,70.0 300.7,70.0 303.4,70.0 306.2,70.0 308.9,70.0 311.6,70.0 314.3,70.0 317.1,70.0 319.8,70.0 322.5,70.0 325.2,70.0 328.0,70.0 330.7,70.0 333.4,70.0 336.1,70.0 338.9,70.0 341.6,70.0 344.3,70.0 347.0,70.0 349.7,70.0 352.5,70.0 355.2,70.0 357.9,70.0 360.6,70.0 363.4,70.0 366.1,70.0 368.8,70.0 371.5,70.0 374.3,70.0 377.0,70.0 379.7,70.0 382.4,70.0 385.1,70.0 387.9,70.0 390.6,70.0 393.3,70.0 396.0,70.0 398.8,70.0 401.5,70.0 404.2,70.0 406.9,70.0 409.7,70.0 412.4,70.0 415.1,70.0 417.8,70.0 420.6,70.0 423.3,70.0 426.0,70.0 428.7,70.0 431.4,70.0 434.2,70.0 436.9,70.0 439.6,70.0 442.3,70.0 445.1,70.0 447.8,70.0 450.5,70.0 453.2,76.0 456.0,70.0 458.7,70.0 461.4,70.0 464.1,70.0 466.9,70.0 469.6,76.0 472.3,76.0 475.0,88.0 477.7,88.0 480.5,88.0 483.2,94.0 485.9,94.0 488.6,94.0 491.4,94.0 494.1,88.0 496.8,88.0 499.5,82.0 502.3,82.0 505.0,82.0 507.7,88.0 510.4,88.0 513.1,94.0 515.9,82.0 518.6,82.0 521.3,82.0 524.0,82.0 526.8,88.0 529.5,88.0 532.2,94.0 534.9,94.0 537.7,88.0 540.4,88.0 543.1,88.0 545.8,94.0 548.6,94.0 551.3,106.0 554.0,94.0 556.7,94.0 559.4,94.0 562.2,94.0 564.9,88.0 567.6,88.0 570.3,82.0 573.1,76.0 575.8,76.0 578.5,76.0 581.2,76.0 584.0,76.0 586.7,76.0 589.4,70.0 592.1,70.0 594.9,70.0 597.6,76.0 600.3,88.0 603.0,82.0 605.7,70.0 608.5,70.0 611.2,70.0 613.9,76.0 616.6,76.0 619.4,76.0 622.1,82.0 624.8,70.0 627.5,76.0 630.3,64.0 633.0,70.0 635.7,58.0 638.4,58.0 641.1,58.0 643.9,58.0 646.6,58.0 649.3,64.0 652.0,58.0 654.8,64.0 657.5,58.0 660.2,58.0 662.9,58.0 665.7,58.0 668.4,64.0 671.1,64.0 673.8,64.0 676.6,76.0 679.3,70.0 682.0,82.0 684.7,70.0 687.4,76.0 690.2,58.0 692.9,64.0 695.6,58.0 698.3,64.0 701.1,58.0 703.8,58.0 706.5,58.0 709.2,64.0 712.0,70.0 714.7,64.0 717.4,64.0 720.1,64.0 722.9,70.0 725.6,70.0 728.3,64.0 731.0,70.0 733.7,70.0 736.5,70.0 739.2,58.0 741.9,58.0 744.6,58.0 747.4,58.0 750.1,58.0 752.8,64.0 755.5,58.0 758.3,58.0 761.0,58.0 763.7,58.0 766.4,58.0 769.1,58.0 771.9,58.0 774.6,58.0 777.3,64.0 780.0,58.0 782.8,58.0 785.5,58.0 788.2,58.0 790.9,58.0 793.7,58.0 796.4,58.0 799.1,64.0 801.8,58.0 804.6,58.0 807.3,58.0 810.0,58.0 812.7,58.0 815.4,58.0 818.2,58.0 820.9,58.0 823.6,58.0 826.3,58.0 829.1,58.0 831.8,58.0 834.5,58.0 837.2,58.0 840.0,58.0 842.7,58.0 845.4,58.0 848.1,58.0 850.9,58.0 853.6,64.0 856.3,64.0 859.0,58.0 861.7,58.0 864.5,58.0 867.2,64.0 869.9,64.0 872.6,76.0 875.4,64.0 878.1,64.0 880.8,70.0 883.5,58.0 886.3,58.0 889.0,58.0 891.7,58.0 894.4,58.0 897.1,58.0 899.9,70.0 902.6,64.0 905.3,64.0 908.0,64.0 910.8,64.0 913.5,70.0 916.2,70.0 918.9,76.0 921.7,76.0 924.4,82.0 927.1,88.0 929.8,82.0 932.6,82.0 935.3,88.0 938.0,82.0"/><polyline fill="none" stroke="#f59e0b" stroke-width="2.5" stroke-linejoin="round" stroke-linecap="round" points="42.0,274.0 44.7,274.0 47.4,274.0 50.2,280.0 52.9,268.0 55.6,268.0 58.3,268.0 61.1,274.0 63.8,274.0 66.5,274.0 69.2,280.0 72.0,286.0 74.7,286.0 77.4,286.0 80.1,286.0 82.9,286.0 85.6,286.0 88.3,286.0 91.0,286.0 93.7,286.0 96.5,286.0 99.2,286.0 101.9,286.0 104.6,286.0 107.4,286.0 110.1,286.0 112.8,286.0 115.5,286.0 118.3,286.0 121.0,286.0 123.7,286.0 126.4,274.0 129.1,280.0 131.9,280.0 134.6,280.0 137.3,280.0 140.0,286.0 142.8,286.0 145.5,286.0 148.2,274.0 150.9,268.0 153.7,268.0 156.4,262.0 159.1,262.0 161.8,262.0 164.6,262.0 167.3,268.0 170.0,280.0 172.7,280.0 175.4,274.0 178.2,262.0 180.9,268.0 183.6,268.0 186.3,262.0 189.1,268.0 191.8,268.0 194.5,268.0 197.2,280.0 200.0,280.0 202.7,268.0 205.4,268.0 208.1,268.0 210.9,262.0 213.6,274.0 216.3,280.0 219.0,286.0 221.7,286.0 224.5,274.0 227.2,274.0 229.9,274.0 232.6,274.0 235.4,274.0 238.1,274.0 240.8,274.0 243.5,274.0 246.3,280.0 249.0,274.0 251.7,280.0 254.4,286.0 257.1,286.0 259.9,286.0 262.6,286.0 265.3,280.0 268.0,286.0 270.8,286.0 273.5,286.0 276.2,286.0 278.9,286.0 281.7,286.0 284.4,286.0 287.1,286.0 289.8,286.0 292.6,286.0 295.3,286.0 298.0,286.0 300.7,286.0 303.4,286.0 306.2,286.0 308.9,286.0 311.6,286.0 314.3,286.0 317.1,286.0 319.8,286.0 322.5,286.0 325.2,286.0 328.0,286.0 330.7,286.0 333.4,286.0 336.1,286.0 338.9,286.0 341.6,286.0 344.3,286.0 347.0,286.0 349.7,286.0 352.5,286.0 355.2,286.0 357.9,286.0 360.6,286.0 363.4,286.0 366.1,286.0 368.8,286.0 371.5,286.0 374.3,286.0 377.0,286.0 379.7,286.0 382.4,286.0 385.1,286.0 387.9,286.0 390.6,286.0 393.3,286.0 396.0,286.0 398.8,286.0 401.5,286.0 404.2,286.0 406.9,286.0 409.7,286.0 412.4,286.0 415.1,286.0 417.8,286.0 420.6,286.0 423.3,286.0 426.0,286.0 428.7,286.0 431.4,286.0 434.2,286.0 436.9,286.0 439.6,286.0 442.3,286.0 445.1,286.0 447.8,286.0 450.5,286.0 453.2,286.0 456.0,286.0 458.7,286.0 461.4,286.0 464.1,286.0 466.9,286.0 469.6,286.0 472.3,280.0 475.0,268.0 477.7,268.0 480.5,268.0 483.2,268.0 485.9,262.0 488.6,262.0 491.4,262.0 494.1,268.0 496.8,268.0 499.5,274.0 502.3,274.0 505.0,274.0 507.7,268.0 510.4,268.0 513.1,268.0 515.9,274.0 518.6,274.0 521.3,274.0 524.0,274.0 526.8,268.0 529.5,268.0 532.2,262.0 534.9,262.0 537.7,268.0 540.4,268.0 543.1,268.0 545.8,262.0 548.6,262.0 551.3,274.0 554.0,262.0 556.7,262.0 559.4,262.0 562.2,262.0 564.9,268.0 567.6,268.0 570.3,274.0 573.1,280.0 575.8,280.0 578.5,280.0 581.2,280.0 584.0,280.0 586.7,280.0 589.4,286.0 592.1,286.0 594.9,286.0 597.6,280.0 600.3,274.0 603.0,274.0 605.7,280.0 608.5,274.0 611.2,274.0 613.9,268.0 616.6,268.0 619.4,268.0 622.1,268.0 624.8,280.0 627.5,274.0 630.3,280.0 633.0,280.0 635.7,286.0 638.4,286.0 641.1,286.0 643.9,286.0 646.6,286.0 649.3,286.0 652.0,286.0 654.8,286.0 657.5,286.0 660.2,286.0 662.9,286.0 665.7,286.0 668.4,280.0 671.1,280.0 673.8,280.0 676.6,268.0 679.3,280.0 682.0,268.0 684.7,274.0 687.4,274.0 690.2,286.0 692.9,280.0 695.6,286.0 698.3,280.0 701.1,286.0 703.8,286.0 706.5,286.0 709.2,280.0 712.0,274.0 714.7,280.0 717.4,280.0 720.1,280.0 722.9,274.0 725.6,274.0 728.3,280.0 731.0,280.0 733.7,280.0 736.5,280.0 739.2,286.0 741.9,286.0 744.6,286.0 747.4,286.0 750.1,286.0 752.8,286.0 755.5,286.0 758.3,286.0 761.0,286.0 763.7,286.0 766.4,286.0 769.1,286.0 771.9,286.0 774.6,286.0 777.3,286.0 780.0,286.0 782.8,286.0 785.5,286.0 788.2,286.0 790.9,286.0 793.7,286.0 796.4,286.0 799.1,286.0 801.8,286.0 804.6,286.0 807.3,286.0 810.0,286.0 812.7,286.0 815.4,286.0 818.2,286.0 820.9,286.0 823.6,286.0 826.3,286.0 829.1,286.0 831.8,286.0 834.5,286.0 837.2,286.0 840.0,286.0 842.7,286.0 845.4,286.0 848.1,286.0 850.9,286.0 853.6,286.0 856.3,286.0 859.0,286.0 861.7,286.0 864.5,286.0 867.2,280.0 869.9,280.0 872.6,280.0 875.4,280.0 878.1,280.0 880.8,274.0 883.5,286.0 886.3,286.0 889.0,286.0 891.7,286.0 894.4,286.0 897.1,286.0 899.9,286.0 902.6,280.0 905.3,280.0 908.0,280.0 910.8,280.0 913.5,274.0 916.2,274.0 918.9,268.0 921.7,268.0 924.4,262.0 927.1,262.0 929.8,262.0 932.6,262.0 935.3,262.0 938.0,268.0"/><polyline fill="none" stroke="#ef4444" stroke-width="2.5" stroke-linejoin="round" stroke-linecap="round" points="42.0,280.0 44.7,280.0 47.4,268.0 50.2,262.0 52.9,286.0 55.6,286.0 58.3,286.0 61.1,286.0 63.8,280.0 66.5,286.0 69.2,286.0 72.0,286.0 74.7,286.0 77.4,286.0 80.1,286.0 82.9,286.0 85.6,286.0 88.3,286.0 91.0,286.0 93.7,286.0 96.5,286.0 99.2,286.0 101.9,286.0 104.6,286.0 107.4,286.0 110.1,286.0 112.8,286.0 115.5,286.0 118.3,286.0 121.0,286.0 123.7,286.0 126.4,286.0 129.1,274.0 131.9,256.0 134.6,286.0 137.3,286.0 140.0,286.0 142.8,286.0 145.5,286.0 148.2,286.0 150.9,286.0 153.7,286.0 156.4,286.0 159.1,286.0 161.8,286.0 164.6,286.0 167.3,286.0 170.0,286.0 172.7,280.0 175.4,286.0 178.2,286.0 180.9,286.0 183.6,286.0 186.3,286.0 189.1,286.0 191.8,286.0 194.5,286.0 197.2,286.0 200.0,286.0 202.7,286.0 205.4,286.0 208.1,286.0 210.9,280.0 213.6,286.0 216.3,286.0 219.0,286.0 221.7,286.0 224.5,286.0 227.2,286.0 229.9,286.0 232.6,286.0 235.4,286.0 238.1,286.0 240.8,286.0 243.5,286.0 246.3,274.0 249.0,274.0 251.7,274.0 254.4,274.0 257.1,274.0 259.9,274.0 262.6,274.0 265.3,274.0 268.0,274.0 270.8,274.0 273.5,274.0 276.2,274.0 278.9,274.0 281.7,274.0 284.4,274.0 287.1,274.0 289.8,274.0 292.6,274.0 295.3,274.0 298.0,274.0 300.7,274.0 303.4,274.0 306.2,274.0 308.9,274.0 311.6,274.0 314.3,274.0 317.1,274.0 319.8,274.0 322.5,274.0 325.2,274.0 328.0,274.0 330.7,274.0 333.4,274.0 336.1,274.0 338.9,274.0 341.6,274.0 344.3,274.0 347.0,274.0 349.7,274.0 352.5,274.0 355.2,274.0 357.9,274.0 360.6,274.0 363.4,274.0 366.1,274.0 368.8,274.0 371.5,274.0 374.3,274.0 377.0,274.0 379.7,274.0 382.4,274.0 385.1,274.0 387.9,274.0 390.6,274.0 393.3,274.0 396.0,274.0 398.8,274.0 401.5,274.0 404.2,274.0 406.9,274.0 409.7,274.0 412.4,274.0 415.1,274.0 417.8,274.0 420.6,274.0 423.3,274.0 426.0,274.0 428.7,274.0 431.4,274.0 434.2,274.0 436.9,274.0 439.6,274.0 442.3,274.0 445.1,274.0 447.8,274.0 450.5,274.0 453.2,268.0 456.0,274.0 458.7,274.0 461.4,274.0 464.1,274.0 466.9,274.0 469.6,274.0 472.3,274.0 475.0,274.0 477.7,274.0 480.5,274.0 483.2,268.0 485.9,274.0 488.6,274.0 491.4,274.0 494.1,274.0 496.8,274.0 499.5,274.0 502.3,274.0 505.0,274.0 507.7,274.0 510.4,274.0 513.1,268.0 515.9,274.0 518.6,274.0 521.3,274.0 524.0,274.0 526.8,274.0 529.5,274.0 532.2,274.0 534.9,274.0 537.7,274.0 540.4,274.0 543.1,274.0 545.8,274.0 548.6,274.0 551.3,250.0 554.0,274.0 556.7,274.0 559.4,274.0 562.2,274.0 564.9,274.0 567.6,274.0 570.3,274.0 573.1,274.0 575.8,274.0 578.5,274.0 581.2,274.0 584.0,274.0 586.7,274.0 589.4,274.0 592.1,274.0 594.9,274.0 597.6,274.0 600.3,268.0 603.0,274.0 605.7,280.0 608.5,286.0 611.2,286.0 613.9,286.0 616.6,286.0 619.4,286.0 622.1,280.0 624.8,280.0 627.5,286.0 630.3,286.0 633.0,280.0 635.7,286.0 638.4,286.0 641.1,286.0 643.9,286.0 646.6,286.0 649.3,280.0 652.0,286.0 654.8,286.0 657.5,286.0 660.2,286.0 662.9,286.0 665.7,286.0 668.4,286.0 671.1,286.0 673.8,286.0 676.6,286.0 679.3,280.0 682.0,280.0 684.7,286.0 687.4,280.0 690.2,286.0 692.9,286.0 695.6,286.0 698.3,286.0 701.1,286.0 703.8,286.0 706.5,286.0 709.2,286.0 712.0,286.0 714.7,286.0 717.4,286.0 720.1,286.0 722.9,286.0 725.6,286.0 728.3,286.0 731.0,280.0 733.7,286.0 736.5,280.0 739.2,286.0 741.9,286.0 744.6,286.0 747.4,286.0 750.1,286.0 752.8,286.0 755.5,286.0 758.3,286.0 761.0,286.0 763.7,286.0 766.4,286.0 769.1,286.0 771.9,286.0 774.6,286.0 777.3,280.0 780.0,286.0 782.8,286.0 785.5,286.0 788.2,286.0 790.9,286.0 793.7,286.0 796.4,286.0 799.1,286.0 801.8,286.0 804.6,286.0 807.3,286.0 810.0,286.0 812.7,286.0 815.4,286.0 818.2,286.0 820.9,286.0 823.6,286.0 826.3,286.0 829.1,286.0 831.8,286.0 834.5,286.0 837.2,286.0 840.0,286.0 842.7,286.0 845.4,286.0 848.1,286.0 850.9,286.0 853.6,280.0 856.3,280.0 859.0,286.0 861.7,286.0 864.5,286.0 867.2,286.0 869.9,286.0 872.6,274.0 875.4,286.0 878.1,286.0 880.8,286.0 883.5,286.0 886.3,286.0 889.0,286.0 891.7,286.0 894.4,286.0 897.1,286.0 899.9,286.0 902.6,286.0 905.3,286.0 908.0,286.0 910.8,286.0 913.5,286.0 916.2,286.0 918.9,286.0 921.7,286.0 924.4,286.0 927.1,280.0 929.8,286.0 932.6,286.0 935.3,280.0 938.0,280.0"/><polyline fill="none" stroke="#a855f7" stroke-width="2.5" stroke-linejoin="round" stroke-linecap="round" points="42.0,286.0 44.7,286.0 47.4,286.0 50.2,286.0 52.9,286.0 55.6,286.0 58.3,286.0 61.1,286.0 63.8,286.0 66.5,286.0 69.2,286.0 72.0,286.0 74.7,286.0 77.4,286.0 80.1,286.0 82.9,286.0 85.6,286.0 88.3,286.0 91.0,286.0 93.7,286.0 96.5,286.0 99.2,286.0 101.9,286.0 104.6,286.0 107.4,286.0 110.1,286.0 112.8,286.0 115.5,286.0 118.3,286.0 121.0,286.0 123.7,286.0 126.4,286.0 129.1,286.0 131.9,286.0 134.6,286.0 137.3,286.0 140.0,286.0 142.8,286.0 145.5,286.0 148.2,286.0 150.9,286.0 153.7,286.0 156.4,286.0 159.1,286.0 161.8,286.0 164.6,286.0 167.3,286.0 170.0,286.0 172.7,286.0 175.4,286.0 178.2,286.0 180.9,286.0 183.6,286.0 186.3,286.0 189.1,286.0 191.8,286.0 194.5,286.0 197.2,286.0 200.0,286.0 202.7,286.0 205.4,286.0 208.1,286.0 210.9,286.0 213.6,286.0 216.3,286.0 219.0,286.0 221.7,286.0 224.5,286.0 227.2,286.0 229.9,286.0 232.6,280.0 235.4,286.0 238.1,286.0 240.8,286.0 243.5,286.0 246.3,286.0 249.0,286.0 251.7,286.0 254.4,286.0 257.1,286.0 259.9,286.0 262.6,286.0 265.3,286.0 268.0,286.0 270.8,286.0 273.5,286.0 276.2,286.0 278.9,286.0 281.7,286.0 284.4,286.0 287.1,286.0 289.8,286.0 292.6,286.0 295.3,286.0 298.0,286.0 300.7,286.0 303.4,286.0 306.2,286.0 308.9,286.0 311.6,286.0 314.3,286.0 317.1,286.0 319.8,286.0 322.5,286.0 325.2,286.0 328.0,286.0 330.7,286.0 333.4,286.0 336.1,286.0 338.9,286.0 341.6,286.0 344.3,286.0 347.0,286.0 349.7,286.0 352.5,286.0 355.2,286.0 357.9,286.0 360.6,286.0 363.4,286.0 366.1,286.0 368.8,286.0 371.5,286.0 374.3,286.0 377.0,286.0 379.7,286.0 382.4,286.0 385.1,286.0 387.9,286.0 390.6,286.0 393.3,286.0 396.0,286.0 398.8,286.0 401.5,286.0 404.2,286.0 406.9,286.0 409.7,286.0 412.4,286.0 415.1,286.0 417.8,286.0 420.6,286.0 423.3,286.0 426.0,286.0 428.7,286.0 431.4,286.0 434.2,286.0 436.9,286.0 439.6,286.0 442.3,286.0 445.1,286.0 447.8,286.0 450.5,286.0 453.2,286.0 456.0,286.0 458.7,286.0 461.4,286.0 464.1,286.0 466.9,286.0 469.6,280.0 472.3,286.0 475.0,286.0 477.7,286.0 480.5,286.0 483.2,286.0 485.9,286.0 488.6,286.0 491.4,286.0 494.1,286.0 496.8,286.0 499.5,286.0 502.3,286.0 505.0,286.0 507.7,286.0 510.4,286.0 513.1,286.0 515.9,286.0 518.6,286.0 521.3,286.0 524.0,286.0 526.8,286.0 529.5,286.0 532.2,286.0 534.9,286.0 537.7,286.0 540.4,286.0 543.1,286.0 545.8,286.0 548.6,286.0 551.3,286.0 554.0,286.0 556.7,286.0 559.4,286.0 562.2,286.0 564.9,286.0 567.6,286.0 570.3,286.0 573.1,286.0 575.8,286.0 578.5,286.0 581.2,286.0 584.0,286.0 586.7,286.0 589.4,286.0 592.1,286.0 594.9,286.0 597.6,286.0 600.3,286.0 603.0,286.0 605.7,286.0 608.5,286.0 611.2,286.0 613.9,286.0 616.6,286.0 619.4,286.0 622.1,286.0 624.8,286.0 627.5,280.0 630.3,286.0 633.0,286.0 635.7,286.0 638.4,286.0 641.1,286.0 643.9,286.0 646.6,286.0 649.3,286.0 652.0,286.0 654.8,280.0 657.5,286.0 660.2,286.0 662.9,286.0 665.7,286.0 668.4,286.0 671.1,286.0 673.8,286.0 676.6,286.0 679.3,286.0 682.0,286.0 684.7,286.0 687.4,286.0 690.2,286.0 692.9,286.0 695.6,286.0 698.3,286.0 701.1,286.0 703.8,286.0 706.5,286.0 709.2,286.0 712.0,286.0 714.7,286.0 717.4,286.0 720.1,286.0 722.9,286.0 725.6,286.0 728.3,286.0 731.0,286.0 733.7,280.0 736.5,286.0 739.2,286.0 741.9,286.0 744.6,286.0 747.4,286.0 750.1,286.0 752.8,280.0 755.5,286.0 758.3,286.0 761.0,286.0 763.7,286.0 766.4,286.0 769.1,286.0 771.9,286.0 774.6,286.0 777.3,286.0 780.0,286.0 782.8,286.0 785.5,286.0 788.2,286.0 790.9,286.0 793.7,286.0 796.4,286.0 799.1,280.0 801.8,286.0 804.6,286.0 807.3,286.0 810.0,286.0 812.7,286.0 815.4,286.0 818.2,286.0 820.9,286.0 823.6,286.0 826.3,286.0 829.1,286.0 831.8,286.0 834.5,286.0 837.2,286.0 840.0,286.0 842.7,286.0 845.4,286.0 848.1,286.0 850.9,286.0 853.6,286.0 856.3,286.0 859.0,286.0 861.7,286.0 864.5,286.0 867.2,286.0 869.9,286.0 872.6,286.0 875.4,286.0 878.1,286.0 880.8,286.0 883.5,286.0 886.3,286.0 889.0,286.0 891.7,286.0 894.4,286.0 897.1,286.0 899.9,274.0 902.6,286.0 905.3,286.0 908.0,286.0 910.8,286.0 913.5,286.0 916.2,286.0 918.9,286.0 921.7,286.0 924.4,286.0 927.1,286.0 929.8,286.0 932.6,286.0 935.3,286.0 938.0,286.0"/><text x="42" y="308" font-size="11" fill="#5a688a">19/06 12:43</text><text x="938" y="308" text-anchor="end" font-size="11" fill="#5a688a">07/07 15:31</text></svg>