<svg xmlns="http://www.w3.org/2000/svg" viewBox="0 0 960 320" width="960" height="320" font-family="Segoe UI, system-ui, -apple-system, Roboto, Helvetica, Arial, sans-serif" role="img" aria-label="Availability history per region"><rect x="0.5" y="0.5" width="959" height="319" rx="14" fill="#0d1117" stroke="#2c3a5e"/><text x="42" y="26" font-size="14" font-weight="600" fill="#e6ecff">History · 220 points</text><circle cx="47" cy="40" r="5" fill="#22c55e"/><text x="57" y="44" font-size="12" fill="#9fb0d4">Available</text><circle cx="139.8" cy="40" r="5" fill="#f59e0b"/><text x="149.8" y="44" font-size="12" fill="#9fb0d4">Saturated</text><circle cx="232.60000000000002" cy="40" r="5" fill="#ef4444"/><text x="242.60000000000002" y="44" font-size="12" fill="#9fb0d4">Error</text><circle cx="296.6" cy="40" r="5" fill="#a855f7"/><text x="306.6" y="44" font-size="12" fill="#9fb0d4">Timeout</text><line x1="42" y1="286.0" x2="938" y2="286.0" stroke="#21304f" stroke-width="1"/><text x="35" y="289.0" text-anchor="end" font-size="11" fill="#9fb0d4">0</text><line x1="42" y1="227.5" x2="938" y2="227.5" stroke="#21304f" stroke-width="1"/><text x="35" y="230.5" text-anchor="end" font-size="11" fill="#9fb0d4">10</text><line x1="42" y1="169.0" x2="938" y2="169.0" stroke="#21304f" stroke-width="1"/><text x="35" y="172.0" text-anchor="end" font-size="11" fill="#9fb0d4">20</text><line x1="42" y1="110.5" x2="938" y2="110.5" stroke="#21304f" stroke-width="1"/><text x="35" y="113.5" text-anchor="end" font-size="11" fill="#9fb0d4">29</text><line x1="42" y1="52.0" x2="938" y2="52.0" stroke="#21304f" stroke-width="1"/><text x="35" y="55.0" text-anchor="end" font-size="11" fill="#9fb0d4">39</text><polyline fill="none" stroke="#22c55e" stroke-width="2.5" stroke-linejoin="round" stroke-linecap="round" points="42.0,70.0 46.1,70.0 50.2,88.0 54.3,88.0 58.4,76.0 62.5,76.0 66.5,76.0 70.6,70.0 74.7,76.0 78.8,70.0 82.9,64.0 87.0,58.0 91.1,58.0 95.2,58.0 99.3,58.0 103.4,58.0 107.5,58.0 111.6,58.0 115.6,58.0 119.7,58.0 123.8,58.0 127.9,58.0 132.0,58.0 136.1,58.0 140.2,58.0 144.3,58.0 148.4,58.0 152.5,58.0 156.6,58.0 160.6,58.0 164.7,58.0 168.8,70.0 172.9,76.0 177.0,94.0 181.1,64.0 185.2,64.0 189.3,58.0 193.4,58.0 197.5,58.0 201.6,70.0 205.7,76.0 209.7,76.0 213.8,82.0 217.9,82.0 222.0,82.0 226.1,82.0 230.2,76.0 234.3,64.0 238.4,70.0 242.5,70.0 246.6,82.0 250.7,76.0 254.7,76.0 258.8,82.0 262.9,76.0 267.0,76.0 271.1,76.0 275.2,64.0 279.3,64.0 283.4,76.0 287.5,76.0 291.6,76.0 295.7,88.0 299.8,70.0 303.8,64.0 307.9,58.0 312.0,58.0 316.1,70.0 320.2,70.0 324.3,70.0 328.4,76.0 332.5,70.0 336.6,70.0 340.7,70.0 344.8,70.0 348.8,76.0 352.9,82.0 357.0,76.0 361.1,70.0 365.2,70.0 369.3,70.0 373.4,70.0 377.5,76.0 381.6,70.0 385.7,70.0 389.8,70.0 393.9,70.0 397.9,70.0 402.0,70.0 406.1,70.0 410.2,70.0 414.3,70.0 418.4,70.0 422.5,70.0 426.6,70.0 430.7,70.0 434.8,70.0 438.9,70.0 442.9,70.0 447.0,70.0 451.1,70.0 455.2,70.0 459.3,70.0 463.4,70.0 467.5,70.0 471.6,70.0 475.7,70.0 479.8,70.0 483.9,70.0 488.0,70.0 492.0,70.0 496.1,70.0 500.2,70.0 504.3,70.0 508.4,70.0 512.5,70.0 516.6,70.0 520.7,70.0 524.8,70.0 528.9,70.0 533.0,70.0 537.1,70.0 541.1,70.0 545.2,70.0 549.3,70.0 553.4,70.0 557.5,70.0 561.6,70.0 565.7,70.0 569.8,70.0 573.9,70.0 578.0,70.0 582.1,70.0 586.1,70.0 590.2,70.0 594.3,70.0 598.4,70.0 602.5,70.0 606.6,70.0 610.7,70.0 614.8,70.0 618.9,70.0 623.0,70.0 627.1,70.0 631.2,70.0 635.2,70.0 639.3,70.0 643.4,70.0 647.5,70.0 651.6,70.0 655.7,70.0 659.8,76.0 663.9,70.0 668.0,70.0 672.1,70.0 676.2,70.0 680.2,70.0 684.3,76.0 688.4,76.0 692.5,88.0 696.6,88.0 700.7,88.0 704.8,94.0 708.9,94.0 713.0,94.0 717.1,94.0 721.2,88.0 725.3,88.0 729.3,82.0 733.4,82.0 737.5,82.0 741.6,88.0 745.7,88.0 749.8,94.0 753.9,82.0 758.0,82.0 762.1,82.0 766.2,82.0 770.3,88.0 774.3,88.0 778.4,94.0 782.5,94.0 786.6,88.0 790.7,88.0 794.8,88.0 798.9,94.0 803.0,94.0 807.1,106.0 811.2,94.0 815.3,94.0 819.4,94.0 823.4,94.0 827.5,88.0 831.6,88.0 835.7,82.0 839.8,76.0 843.9,76.0 848.0,76.0 852.1,76.0 856.2,76.0 860.3,76.0 864.4,70.0 868.4,70.0 872.5,70.0 876.6,76.0 880.7,88.0 884.8,82.0 888.9,70.0 893.0,70.0 897.1,70.0 901.2,76.0 905.3,76.0 909.4,76.0 913.5,82.0 917.5,70.0 921.6,76.0 925.7,64.0 929.8,70.0 933.9,58.0 938.0,58.0"/><polyline fill="none" stroke="#f59e0b" stroke-width="2.5" stroke-linejoin="round" stroke-linecap="round" points="42.0,274.0 46.1,274.0 50.2,274.0 54.3,280.0 58.4,268.0 62.5,268.0 66.5,268.0 70.6,274.0 74.7,274.0 78.8,274.0 82.9,280.0 87.0,286.0 91.1,286.0 95.2,286.0 99.3,286.0 103.4,286.0 107.5,286.0 111.6,286.0 115.6,286.0 119.7,286.0 123.8,286.0 127.9,286.0 132.0,286.0 136.1,286.0 140.2,286.0 144.3,286.0 148.4,286.0 152.5,286.0 156.6,286.0 160.6,286.0 164.7,286.0 168.8,274.0 172.9,280.0 177.0,280.0 181.1,280.0 185.2,280.0 189.3,286.0 193.4,286.0 197.5,286.0 201.6,274.0 205.7,268.0 209.7,268.0 213.8,262.0 217.9,262.0 222.0,262.0 226.1,262.0 230.2,268.0 234.3,280.0 238.4,280.0 242.5,274.0 246.6,262.0 250.7,268.0 254.7,268.0 258.8,262.0 262.9,268.0 267.0,268.0 271.1,268.0 275.2,280.0 279.3,280.0 283.4,268.0 287.5,268.0 291.6,268.0 295.7,262.0 299.8,274.0 303.8,280.0 307.9,286.0 312.0,286.0 316.1,274.0 320.2,274.0 324.3,274.0 328.4,274.0 332.5,274.0 336.6,274.0 340.7,274.0 344.8,274.0 348.8,280.0 352.9,274.0 357.0,280.0 361.1,286.0 365.2,286.0 369.3,286.0 373.4,286.0 377.5,280.0 381.6,286.0 385.7,286.0 389.8,286.0 393.9,286.0 397.9,286.0 402.0,286.0 406.1,286.0 410.2,286.0 414.3,286.0 418.4,286.0 422.5,286.0 426.6,286.0 430.7,286.0 434.8,286.0 438.9,286.0 442.9,286.0 447.0,286.0 451.1,286.0 455.2,286.0 459.3,286.0 463.4,286.0 467.5,286.0 471.6,286.0 475.7,286.0 479.8,286.0 483.9,286.0 488.0,286.0 492.0,286.0 496.1,286.0 500.2,286.0 504.3,286.0 508.4,286.0 512.5,286.0 516.6,286.0 520.7,286.0 524.8,286.0 528.9,286.0 533.0,286.0 537.1,286.0 541.1,286.0 545.2,286.0 549.3,286.0 553.4,286.0 557.5,286.0 561.6,286.0 565.7,286.0 569.8,286.0 573.9,286.0 578.0,286.0 582.1,286.0 586.1,286.0 590.2,286.0 594.3,286.0 598.4,286.0 602.5,286.0 606.6,286.0 610.7,286.0 614.8,286.0 618.9,286.0 623.0,286.0 627.1,286.0 631.2,286.0 635.2,286.0 639.3,286.0 643.4,286.0 647.5,286.0 651.6,286.0 655.7,286.0 659.8,286.0 663.9,286.0 668.0,286.0 672.1,286.0 676.2,286.0 680.2,286.0 684.3,286.0 688.4,280.0 692.5,268.0 696.6,268.0 700.7,268.0 704.8,268.0 708.9,262.0 713.0,262.0 717.1,262.0 721.2,268.0 725.3,268.0 729.3,274.0 733.4,274.0 737.5,274.0 741.6,268.0 745.7,268.0 749.8,268.0 753.9,274.0 758.0,274.0 762.1,274.0 766.2,274.0 770.3,268.0 774.3,268.0 778.4,262.0 782.5,262.0 786.6,268.0 790.7,268.0 794.8,268.0 798.9,262.0 803.0,262.0 807.1,274.0 811.2,262.0 815.3,262.0 819.4,262.0 823.4,262.0 827.5,268.0 831.6,268.0 835.7,274.0 839.8,280.0 843.9,280.0 848.0,280.0 852.1,280.0 856.2,280.0 860.3,280.0 864.4,286.0 868.4,286.0 872.5,286.0 876.6,280.0 880.7,274.0 884.8,274.0 888.9,280.0 893.0,274.0 897.1,274.0 901.2,268.0 905.3,268.0 909.4,268.0 913.5,268.0 917.5,280.0 921.6,274.0 925.7,280.0 929.8,280.0 933.9,286.0 938.0,286.0"/><polyline fill="none" stroke="#ef4444" stroke-width="2.5" stroke-linejoin="round" stroke-linecap="round" points="42.0,280.0 46.1,280.0 50.2,268.0 54.3,262.0 58.4,286.0 62.5,286.0 66.5,286.0 70.6,286.0 74.7,280.0 78.8,286.0 82.9,286.0 87.0,286.0 91.1,286.0 95.2,286.0 99.3,286.0 103.4,286.0 107.5,286.0 111.6,286.0 115.6,286.0 119.7,286.0 123.8,286.0 127.9,286.0 132.0,286.0 136.1,286.0 140.2,286.0 144.3,286.0 148.4,286.0 152.5,286.0 156.6,286.0 160.6,286.0 164.7,286.0 168.8,286.0 172.9,274.0 177.0,256.0 181.1,286.0 185.2,286.0 189.3,286.0 193.4,286.0 197.5,286.0 201.6,286.0 205.7,286.0 209.7,286.0 213.8,286.0 217.9,286.0 222.0,286.0 226.1,286.0 230.2,286.0 234.3,286.0 238.4,280.0 242.5,286.0 246.6,286.0 250.7,286.0 254.7,286.0 258.8,286.0 262.9,286.0 267.0,286.0 271.1,286.0 275.2,286.0 279.3,286.0 283.4,286.0 287.5,286.0 291.6,286.0 295.7,280.0 299.8,286.0 303.8,286.0 307.9,286.0 312.0,286.0 316.1,286.0 320.2,286.0 324.3,286.0 328.4,286.0 332.5,286.0 336.6,286.0 340.7,286.0 344.8,286.0 348.8,274.0 352.9,274.0 357.0,274.0 361.1,274.0 365.2,274.0 369.3,274.0 373.4,274.0 377.5,274.0 381.6,274.0 385.7,274.0 389.8,274.0 393.9,274.0 397.9,274.0 402.0,274.0 406.1,274.0 410.2,274.0 414.3,274.0 418.4,274.0 422.5,274.0 426.6,274.0 430.7,274.0 434.8,274.0 438.9,274.0 442.9,274.0 447.0,274.0 451.1,274.0 455.2,274.0 459.3,274.0 463.4,274.0 467.5,274.0 471.6,274.0 475.7,274.0 479.8,274.0 483.9,274.0 488.0,274.0 492.0,274.0 496.1,274.0 500.2,274.0 504.3,274.0 508.4,274.0 512.5,274.0 516.6,274.0 520.7,274.0 524.8,274.0 528.9,274.0 533.0,274.0 537.1,274.0 541.1,274.0 545.2,274.0 549.3,274.0 553.4,274.0 557.5,274.0 561.6,274.0 565.7,274.0 569.8,274.0 573.9,274.0 578.0,274.0 582.1,274.0 586.1,274.0 590.2,274.0 594.3,274.0 598.4,274.0 602.5,274.0 606.6,274.0 610.7,274.0 614.8,274.0 618.9,274.0 623.0,274.0 627.1,274.0 631.2,274.0 635.2,274.0 639.3,274.0 643.4,274.0 647.5,274.0 651.6,274.0 655.7,274.0 659.8,268.0 663.9,274.0 668.0,274.0 672.1,274.0 676.2,274.0 680.2,274.0 684.3,274.0 688.4,274.0 692.5,274.0 696.6,274.0 700.7,274.0 704.8,268.0 708.9,274.0 713.0,274.0 717.1,274.0 721.2,274.0 725.3,274.0 729.3,274.0 733.4,274.0 737.5,274.0 741.6,274.0 745.7,274.0 749.8,268.0 753.9,274.0 758.0,274.0 762.1,274.0 766.2,274.0 770.3,274.0 774.3,274.0 778.4,274.0 782.5,274.0 786.6,274.0 790.7,274.0 794.8,274.0 798.9,274.0 803.0,274.0 807.1,250.0 811.2,274.0 815.3,274.0 819.4,274.0 823.4,274.0 827.5,274.0 831.6,274.0 835.7,274.0 839.8,274.0 843.9,274.0 848.0,274.0 852.1,274.0 856.2,274.0 860.3,274.0 864.4,274.0 868.4,274.0 872.5,274.0 876.6,274.0 880.7,268.0 884.8,274.0 888.9,280.0 893.0,286.0 897.1,286.0 901.2,286.0 905.3,286.0 909.4,286.0 913.5,280.0 917.5,280.0 921.6,286.0 925.7,286.0 929.8,280.0 933.9,286.0 938.0,286.0"/><polyline fill="none" stroke="#a855f7" stroke-width="2.5" stroke-linejoin="round" stroke-linecap="round" points="42.0,286.0 46.1,286.0 50.2,286.0 54.3,286.0 58.4,286.0 62.5,286.0 66.5,286.0 70.6,286.0 74.7,286.0 78.8,286.0 82.9,286.0 87.0,286.0 91.1,286.0 95.2,286.0 99.3,286.0 103.4,286.0 107.5,286.0 111.6,286.0 115.6,286.0 119.7,286.0 123.8,286.0 127.9,286.0 132.0,286.0 136.1,286.0 140.2,286.0 144.3,286.0 148.4,286.0 152.5,286.0 156.6,286.0 160.6,286.0 164.7,286.0 168.8,286.0 172.9,286.0 177.0,286.0 181.1,286.0 185.2,286.0 189.3,286.0 193.4,286.0 197.5,286.0 201.6,286.0 205.7,286.0 209.7,286.0 213.8,286.0 217.9,286.0 222.0,286.0 226.1,286.0 230.2,286.0 234.3,286.0 238.4,286.0 242.5,286.0 246.6,286.0 250.7,286.0 254.7,286.0 258.8,286.0 262.9,286.0 267.0,286.0 271.1,286.0 275.2,286.0 279.3,286.0 283.4,286.0 287.5,286.0 291.6,286.0 295.7,286.0 299.8,286.0 303.8,286.0 307.9,286.0 312.0,286.0 316.1,286.0 320.2,286.0 324.3,286.0 328.4,280.0 332.5,286.0 336.6,286.0 340.7,286.0 344.8,286.0 348.8,286.0 352.9,286.0 357.0,286.0 361.1,286.0 365.2,286.0 369.3,286.0 373.4,286.0 377.5,286.0 381.6,286.0 385.7,286.0 389.8,286.0 393.9,286.0 397.9,286.0 402.0,286.0 406.1,286.0 410.2,286.0 414.3,286.0 418.4,286.0 422.5,286.0 426.6,286.0 430.7,286.0 434.8,286.0 438.9,286.0 442.9,286.0 447.0,286.0 451.1,286.0 455.2,286.0 459.3,286.0 463.4,286.0 467.5,286.0 471.6,286.0 475.7,286.0 479.8,286.0 483.9,286.0 488.0,286.0 492.0,286.0 496.1,286.0 500.2,286.0 504.3,286.0 508.4,286.0 512.5,286.0 516.6,286.0 520.7,286.0 524.8,286.0 528.9,286.0 533.0,286.0 537.1,286.0 541.1,286.0 545.2,286.0 549.3,286.0 553.4,286.0 557.5,286.0 561.6,286.0 565.7,286.0 569.8,286.0 573.9,286.0 578.0,286.0 582.1,286.0 586.1,286.0 590.2,286.0 594.3,286.0 598.4,286.0 602.5,286.0 606.6,286.0 610.7,286.0 614.8,286.0 618.9,286.0 623.0,286.0 627.1,286.0 631.2,286.0 635.2,286.0 639.3,286.0 643.4,286.0 647.5,286.0 651.6,286.0 655.7,286.0 659.8,286.0 663.9,286.0 668.0,286.0 672.1,286.0 676.2,286.0 680.2,286.0 684.3,280.0 688.4,286.0 692.5,286.0 696.6,286.0 700.7,286.0 704.8,286.0 708.9,286.0 713.0,286.0 717.1,286.0 721.2,286.0 725.3,286.0 729.3,286.0 733.4,286.0 737.5,286.0 741.6,286.0 745.7,286.0 749.8,286.0 753.9,286.0 758.0,286.0 762.1,286.0 766.2,286.0 770.3,286.0 774.3,286.0 778.4,286.0 782.5,286.0 786.6,286.0 790.7,286.0 794.8,286.0 798.9,286.0 803.0,286.0 807.1,286.0 811.2,286.0 815.3,286.0 819.4,286.0 823.4,286.0 827.5,286.0 831.6,286.0 835.7,286.0 839.8,286.0 843.9,286.0 848.0,286.0 852.1,286.0 856.2,286.0 860.3,286.0 864.4,286.0 868.4,286.0 872.5,286.0 876.6,286.0 880.7,286.0 884.8,286.0 888.9,286.0 893.0,286.0 897.1,286.0 901.2,286.0 905.3,286.0 909.4,286.0 913.5,286.0 917.5,286.0 921.6,280.0 925.7,286.0 929.8,286.0 933.9,286.0 938.0,286.0"/><text x="42" y="308" font-size="11" fill="#9fb0d4">19/06 12:43</text><text x="938" y="308" text-anchor="end" font-size="11" fill="#9fb0d4">01/07 22:31</text></svg>