<svg xmlns="http://www.w3.org/2000/svg" viewBox="0 0 960 320" width="960" height="320" font-family="Segoe UI, system-ui, -apple-system, Roboto, Helvetica, Arial, sans-serif" role="img" aria-label="Availability history per region"><rect x="0.5" y="0.5" width="959" height="319" rx="14" fill="#ffffff" stroke="#dce3f1"/><text x="42" y="26" font-size="14" font-weight="600" fill="#14203a">History · 275 points</text><circle cx="47" cy="40" r="5" fill="#22c55e"/><text x="57" y="44" font-size="12" fill="#5a688a">Available</text><circle cx="139.8" cy="40" r="5" fill="#f59e0b"/><text x="149.8" y="44" font-size="12" fill="#5a688a">Saturated</text><circle cx="232.60000000000002" cy="40" r="5" fill="#ef4444"/><text x="242.60000000000002" y="44" font-size="12" fill="#5a688a">Error</text><circle cx="296.6" cy="40" r="5" fill="#a855f7"/><text x="306.6" y="44" font-size="12" fill="#5a688a">Timeout</text><line x1="42" y1="286.0" x2="938" y2="286.0" stroke="#eef2f7" stroke-width="1"/><text x="35" y="289.0" text-anchor="end" font-size="11" fill="#5a688a">0</text><line x1="42" y1="227.5" x2="938" y2="227.5" stroke="#eef2f7" stroke-width="1"/><text x="35" y="230.5" text-anchor="end" font-size="11" fill="#5a688a">10</text><line x1="42" y1="169.0" x2="938" y2="169.0" stroke="#eef2f7" stroke-width="1"/><text x="35" y="172.0" text-anchor="end" font-size="11" fill="#5a688a">20</text><line x1="42" y1="110.5" x2="938" y2="110.5" stroke="#eef2f7" stroke-width="1"/><text x="35" y="113.5" text-anchor="end" font-size="11" fill="#5a688a">29</text><line x1="42" y1="52.0" x2="938" y2="52.0" stroke="#eef2f7" stroke-width="1"/><text x="35" y="55.0" text-anchor="end" font-size="11" fill="#5a688a">39</text><polyline fill="none" stroke="#22c55e" stroke-width="2.5" stroke-linejoin="round" stroke-linecap="round" points="42.0,70.0 45.3,70.0 48.5,88.0 51.8,88.0 55.1,76.0 58.4,76.0 61.6,76.0 64.9,70.0 68.2,76.0 71.4,70.0 74.7,64.0 78.0,58.0 81.2,58.0 84.5,58.0 87.8,58.0 91.1,58.0 94.3,58.0 97.6,58.0 100.9,58.0 104.1,58.0 107.4,58.0 110.7,58.0 113.9,58.0 117.2,58.0 120.5,58.0 123.8,58.0 127.0,58.0 130.3,58.0 133.6,58.0 136.8,58.0 140.1,58.0 143.4,70.0 146.6,76.0 149.9,94.0 153.2,64.0 156.5,64.0 159.7,58.0 163.0,58.0 166.3,58.0 169.5,70.0 172.8,76.0 176.1,76.0 179.3,82.0 182.6,82.0 185.9,82.0 189.2,82.0 192.4,76.0 195.7,64.0 199.0,70.0 202.2,70.0 205.5,82.0 208.8,76.0 212.0,76.0 215.3,82.0 218.6,76.0 221.9,76.0 225.1,76.0 228.4,64.0 231.7,64.0 234.9,76.0 238.2,76.0 241.5,76.0 244.7,88.0 248.0,70.0 251.3,64.0 254.6,58.0 257.8,58.0 261.1,70.0 264.4,70.0 267.6,70.0 270.9,76.0 274.2,70.0 277.4,70.0 280.7,70.0 284.0,70.0 287.3,76.0 290.5,82.0 293.8,76.0 297.1,70.0 300.3,70.0 303.6,70.0 306.9,70.0 310.1,76.0 313.4,70.0 316.7,70.0 320.0,70.0 323.2,70.0 326.5,70.0 329.8,70.0 333.0,70.0 336.3,70.0 339.6,70.0 342.8,70.0 346.1,70.0 349.4,70.0 352.7,70.0 355.9,70.0 359.2,70.0 362.5,70.0 365.7,70.0 369.0,70.0 372.3,70.0 375.5,70.0 378.8,70.0 382.1,70.0 385.4,70.0 388.6,70.0 391.9,70.0 395.2,70.0 398.4,70.0 401.7,70.0 405.0,70.0 408.2,70.0 411.5,70.0 414.8,70.0 418.1,70.0 421.3,70.0 424.6,70.0 427.9,70.0 431.1,70.0 434.4,70.0 437.7,70.0 440.9,70.0 444.2,70.0 447.5,70.0 450.8,70.0 454.0,70.0 457.3,70.0 460.6,70.0 463.8,70.0 467.1,70.0 470.4,70.0 473.6,70.0 476.9,70.0 480.2,70.0 483.5,70.0 486.7,70.0 490.0,70.0 493.3,70.0 496.5,70.0 499.8,70.0 503.1,70.0 506.4,70.0 509.6,70.0 512.9,70.0 516.2,70.0 519.4,70.0 522.7,70.0 526.0,70.0 529.2,70.0 532.5,70.0 535.8,76.0 539.1,70.0 542.3,70.0 545.6,70.0 548.9,70.0 552.1,70.0 555.4,76.0 558.7,76.0 561.9,88.0 565.2,88.0 568.5,88.0 571.8,94.0 575.0,94.0 578.3,94.0 581.6,94.0 584.8,88.0 588.1,88.0 591.4,82.0 594.6,82.0 597.9,82.0 601.2,88.0 604.5,88.0 607.7,94.0 611.0,82.0 614.3,82.0 617.5,82.0 620.8,82.0 624.1,88.0 627.3,88.0 630.6,94.0 633.9,94.0 637.2,88.0 640.4,88.0 643.7,88.0 647.0,94.0 650.2,94.0 653.5,106.0 656.8,94.0 660.0,94.0 663.3,94.0 666.6,94.0 669.9,88.0 673.1,88.0 676.4,82.0 679.7,76.0 682.9,76.0 686.2,76.0 689.5,76.0 692.7,76.0 696.0,76.0 699.3,70.0 702.6,70.0 705.8,70.0 709.1,76.0 712.4,88.0 715.6,82.0 718.9,70.0 722.2,70.0 725.4,70.0 728.7,76.0 732.0,76.0 735.3,76.0 738.5,82.0 741.8,70.0 745.1,76.0 748.3,64.0 751.6,70.0 754.9,58.0 758.1,58.0 761.4,58.0 764.7,58.0 768.0,58.0 771.2,64.0 774.5,58.0 777.8,64.0 781.0,58.0 784.3,58.0 787.6,58.0 790.8,58.0 794.1,64.0 797.4,64.0 800.7,64.0 803.9,76.0 807.2,70.0 810.5,82.0 813.7,70.0 817.0,76.0 820.3,58.0 823.5,64.0 826.8,58.0 830.1,64.0 833.4,58.0 836.6,58.0 839.9,58.0 843.2,64.0 846.4,70.0 849.7,64.0 853.0,64.0 856.2,64.0 859.5,70.0 862.8,70.0 866.1,64.0 869.3,70.0 872.6,70.0 875.9,70.0 879.1,58.0 882.4,58.0 885.7,58.0 888.9,58.0 892.2,58.0 895.5,64.0 898.8,58.0 902.0,58.0 905.3,58.0 908.6,58.0 911.8,58.0 915.1,58.0 918.4,58.0 921.6,58.0 924.9,64.0 928.2,58.0 931.5,58.0 934.7,58.0 938.0,58.0"/><polyline fill="none" stroke="#f59e0b" stroke-width="2.5" stroke-linejoin="round" stroke-linecap="round" points="42.0,274.0 45.3,274.0 48.5,274.0 51.8,280.0 55.1,268.0 58.4,268.0 61.6,268.0 64.9,274.0 68.2,274.0 71.4,274.0 74.7,280.0 78.0,286.0 81.2,286.0 84.5,286.0 87.8,286.0 91.1,286.0 94.3,286.0 97.6,286.0 100.9,286.0 104.1,286.0 107.4,286.0 110.7,286.0 113.9,286.0 117.2,286.0 120.5,286.0 123.8,286.0 127.0,286.0 130.3,286.0 133.6,286.0 136.8,286.0 140.1,286.0 143.4,274.0 146.6,280.0 149.9,280.0 153.2,280.0 156.5,280.0 159.7,286.0 163.0,286.0 166.3,286.0 169.5,274.0 172.8,268.0 176.1,268.0 179.3,262.0 182.6,262.0 185.9,262.0 189.2,262.0 192.4,268.0 195.7,280.0 199.0,280.0 202.2,274.0 205.5,262.0 208.8,268.0 212.0,268.0 215.3,262.0 218.6,268.0 221.9,268.0 225.1,268.0 228.4,280.0 231.7,280.0 234.9,268.0 238.2,268.0 241.5,268.0 244.7,262.0 248.0,274.0 251.3,280.0 254.6,286.0 257.8,286.0 261.1,274.0 264.4,274.0 267.6,274.0 270.9,274.0 274.2,274.0 277.4,274.0 280.7,274.0 284.0,274.0 287.3,280.0 290.5,274.0 293.8,280.0 297.1,286.0 300.3,286.0 303.6,286.0 306.9,286.0 310.1,280.0 313.4,286.0 316.7,286.0 320.0,286.0 323.2,286.0 326.5,286.0 329.8,286.0 333.0,286.0 336.3,286.0 339.6,286.0 342.8,286.0 346.1,286.0 349.4,286.0 352.7,286.0 355.9,286.0 359.2,286.0 362.5,286.0 365.7,286.0 369.0,286.0 372.3,286.0 375.5,286.0 378.8,286.0 382.1,286.0 385.4,286.0 388.6,286.0 391.9,286.0 395.2,286.0 398.4,286.0 401.7,286.0 405.0,286.0 408.2,286.0 411.5,286.0 414.8,286.0 418.1,286.0 421.3,286.0 424.6,286.0 427.9,286.0 431.1,286.0 434.4,286.0 437.7,286.0 440.9,286.0 444.2,286.0 447.5,286.0 450.8,286.0 454.0,286.0 457.3,286.0 460.6,286.0 463.8,286.0 467.1,286.0 470.4,286.0 473.6,286.0 476.9,286.0 480.2,286.0 483.5,286.0 486.7,286.0 490.0,286.0 493.3,286.0 496.5,286.0 499.8,286.0 503.1,286.0 506.4,286.0 509.6,286.0 512.9,286.0 516.2,286.0 519.4,286.0 522.7,286.0 526.0,286.0 529.2,286.0 532.5,286.0 535.8,286.0 539.1,286.0 542.3,286.0 545.6,286.0 548.9,286.0 552.1,286.0 555.4,286.0 558.7,280.0 561.9,268.0 565.2,268.0 568.5,268.0 571.8,268.0 575.0,262.0 578.3,262.0 581.6,262.0 584.8,268.0 588.1,268.0 591.4,274.0 594.6,274.0 597.9,274.0 601.2,268.0 604.5,268.0 607.7,268.0 611.0,274.0 614.3,274.0 617.5,274.0 620.8,274.0 624.1,268.0 627.3,268.0 630.6,262.0 633.9,262.0 637.2,268.0 640.4,268.0 643.7,268.0 647.0,262.0 650.2,262.0 653.5,274.0 656.8,262.0 660.0,262.0 663.3,262.0 666.6,262.0 669.9,268.0 673.1,268.0 676.4,274.0 679.7,280.0 682.9,280.0 686.2,280.0 689.5,280.0 692.7,280.0 696.0,280.0 699.3,286.0 702.6,286.0 705.8,286.0 709.1,280.0 712.4,274.0 715.6,274.0 718.9,280.0 722.2,274.0 725.4,274.0 728.7,268.0 732.0,268.0 735.3,268.0 738.5,268.0 741.8,280.0 745.1,274.0 748.3,280.0 751.6,280.0 754.9,286.0 758.1,286.0 761.4,286.0 764.7,286.0 768.0,286.0 771.2,286.0 774.5,286.0 777.8,286.0 781.0,286.0 784.3,286.0 787.6,286.0 790.8,286.0 794.1,280.0 797.4,280.0 800.7,280.0 803.9,268.0 807.2,280.0 810.5,268.0 813.7,274.0 817.0,274.0 820.3,286.0 823.5,280.0 826.8,286.0 830.1,280.0 833.4,286.0 836.6,286.0 839.9,286.0 843.2,280.0 846.4,274.0 849.7,280.0 853.0,280.0 856.2,280.0 859.5,274.0 862.8,274.0 866.1,280.0 869.3,280.0 872.6,280.0 875.9,280.0 879.1,286.0 882.4,286.0 885.7,286.0 888.9,286.0 892.2,286.0 895.5,286.0 898.8,286.0 902.0,286.0 905.3,286.0 908.6,286.0 911.8,286.0 915.1,286.0 918.4,286.0 921.6,286.0 924.9,286.0 928.2,286.0 931.5,286.0 934.7,286.0 938.0,286.0"/><polyline fill="none" stroke="#ef4444" stroke-width="2.5" stroke-linejoin="round" stroke-linecap="round" points="42.0,280.0 45.3,280.0 48.5,268.0 51.8,262.0 55.1,286.0 58.4,286.0 61.6,286.0 64.9,286.0 68.2,280.0 71.4,286.0 74.7,286.0 78.0,286.0 81.2,286.0 84.5,286.0 87.8,286.0 91.1,286.0 94.3,286.0 97.6,286.0 100.9,286.0 104.1,286.0 107.4,286.0 110.7,286.0 113.9,286.0 117.2,286.0 120.5,286.0 123.8,286.0 127.0,286.0 130.3,286.0 133.6,286.0 136.8,286.0 140.1,286.0 143.4,286.0 146.6,274.0 149.9,256.0 153.2,286.0 156.5,286.0 159.7,286.0 163.0,286.0 166.3,286.0 169.5,286.0 172.8,286.0 176.1,286.0 179.3,286.0 182.6,286.0 185.9,286.0 189.2,286.0 192.4,286.0 195.7,286.0 199.0,280.0 202.2,286.0 205.5,286.0 208.8,286.0 212.0,286.0 215.3,286.0 218.6,286.0 221.9,286.0 225.1,286.0 228.4,286.0 231.7,286.0 234.9,286.0 238.2,286.0 241.5,286.0 244.7,280.0 248.0,286.0 251.3,286.0 254.6,286.0 257.8,286.0 261.1,286.0 264.4,286.0 267.6,286.0 270.9,286.0 274.2,286.0 277.4,286.0 280.7,286.0 284.0,286.0 287.3,274.0 290.5,274.0 293.8,274.0 297.1,274.0 300.3,274.0 303.6,274.0 306.9,274.0 310.1,274.0 313.4,274.0 316.7,274.0 320.0,274.0 323.2,274.0 326.5,274.0 329.8,274.0 333.0,274.0 336.3,274.0 339.6,274.0 342.8,274.0 346.1,274.0 349.4,274.0 352.7,274.0 355.9,274.0 359.2,274.0 362.5,274.0 365.7,274.0 369.0,274.0 372.3,274.0 375.5,274.0 378.8,274.0 382.1,274.0 385.4,274.0 388.6,274.0 391.9,274.0 395.2,274.0 398.4,274.0 401.7,274.0 405.0,274.0 408.2,274.0 411.5,274.0 414.8,274.0 418.1,274.0 421.3,274.0 424.6,274.0 427.9,274.0 431.1,274.0 434.4,274.0 437.7,274.0 440.9,274.0 444.2,274.0 447.5,274.0 450.8,274.0 454.0,274.0 457.3,274.0 460.6,274.0 463.8,274.0 467.1,274.0 470.4,274.0 473.6,274.0 476.9,274.0 480.2,274.0 483.5,274.0 486.7,274.0 490.0,274.0 493.3,274.0 496.5,274.0 499.8,274.0 503.1,274.0 506.4,274.0 509.6,274.0 512.9,274.0 516.2,274.0 519.4,274.0 522.7,274.0 526.0,274.0 529.2,274.0 532.5,274.0 535.8,268.0 539.1,274.0 542.3,274.0 545.6,274.0 548.9,274.0 552.1,274.0 555.4,274.0 558.7,274.0 561.9,274.0 565.2,274.0 568.5,274.0 571.8,268.0 575.0,274.0 578.3,274.0 581.6,274.0 584.8,274.0 588.1,274.0 591.4,274.0 594.6,274.0 597.9,274.0 601.2,274.0 604.5,274.0 607.7,268.0 611.0,274.0 614.3,274.0 617.5,274.0 620.8,274.0 624.1,274.0 627.3,274.0 630.6,274.0 633.9,274.0 637.2,274.0 640.4,274.0 643.7,274.0 647.0,274.0 650.2,274.0 653.5,250.0 656.8,274.0 660.0,274.0 663.3,274.0 666.6,274.0 669.9,274.0 673.1,274.0 676.4,274.0 679.7,274.0 682.9,274.0 686.2,274.0 689.5,274.0 692.7,274.0 696.0,274.0 699.3,274.0 702.6,274.0 705.8,274.0 709.1,274.0 712.4,268.0 715.6,274.0 718.9,280.0 722.2,286.0 725.4,286.0 728.7,286.0 732.0,286.0 735.3,286.0 738.5,280.0 741.8,280.0 745.1,286.0 748.3,286.0 751.6,280.0 754.9,286.0 758.1,286.0 761.4,286.0 764.7,286.0 768.0,286.0 771.2,280.0 774.5,286.0 777.8,286.0 781.0,286.0 784.3,286.0 787.6,286.0 790.8,286.0 794.1,286.0 797.4,286.0 800.7,286.0 803.9,286.0 807.2,280.0 810.5,280.0 813.7,286.0 817.0,280.0 820.3,286.0 823.5,286.0 826.8,286.0 830.1,286.0 833.4,286.0 836.6,286.0 839.9,286.0 843.2,286.0 846.4,286.0 849.7,286.0 853.0,286.0 856.2,286.0 859.5,286.0 862.8,286.0 866.1,286.0 869.3,280.0 872.6,286.0 875.9,280.0 879.1,286.0 882.4,286.0 885.7,286.0 888.9,286.0 892.2,286.0 895.5,286.0 898.8,286.0 902.0,286.0 905.3,286.0 908.6,286.0 911.8,286.0 915.1,286.0 918.4,286.0 921.6,286.0 924.9,280.0 928.2,286.0 931.5,286.0 934.7,286.0 938.0,286.0"/><polyline fill="none" stroke="#a855f7" stroke-width="2.5" stroke-linejoin="round" stroke-linecap="round" points="42.0,286.0 45.3,286.0 48.5,286.0 51.8,286.0 55.1,286.0 58.4,286.0 61.6,286.0 64.9,286.0 68.2,286.0 71.4,286.0 74.7,286.0 78.0,286.0 81.2,286.0 84.5,286.0 87.8,286.0 91.1,286.0 94.3,286.0 97.6,286.0 100.9,286.0 104.1,286.0 107.4,286.0 110.7,286.0 113.9,286.0 117.2,286.0 120.5,286.0 123.8,286.0 127.0,286.0 130.3,286.0 133.6,286.0 136.8,286.0 140.1,286.0 143.4,286.0 146.6,286.0 149.9,286.0 153.2,286.0 156.5,286.0 159.7,286.0 163.0,286.0 166.3,286.0 169.5,286.0 172.8,286.0 176.1,286.0 179.3,286.0 182.6,286.0 185.9,286.0 189.2,286.0 192.4,286.0 195.7,286.0 199.0,286.0 202.2,286.0 205.5,286.0 208.8,286.0 212.0,286.0 215.3,286.0 218.6,286.0 221.9,286.0 225.1,286.0 228.4,286.0 231.7,286.0 234.9,286.0 238.2,286.0 241.5,286.0 244.7,286.0 248.0,286.0 251.3,286.0 254.6,286.0 257.8,286.0 261.1,286.0 264.4,286.0 267.6,286.0 270.9,280.0 274.2,286.0 277.4,286.0 280.7,286.0 284.0,286.0 287.3,286.0 290.5,286.0 293.8,286.0 297.1,286.0 300.3,286.0 303.6,286.0 306.9,286.0 310.1,286.0 313.4,286.0 316.7,286.0 320.0,286.0 323.2,286.0 326.5,286.0 329.8,286.0 333.0,286.0 336.3,286.0 339.6,286.0 342.8,286.0 346.1,286.0 349.4,286.0 352.7,286.0 355.9,286.0 359.2,286.0 362.5,286.0 365.7,286.0 369.0,286.0 372.3,286.0 375.5,286.0 378.8,286.0 382.1,286.0 385.4,286.0 388.6,286.0 391.9,286.0 395.2,286.0 398.4,286.0 401.7,286.0 405.0,286.0 408.2,286.0 411.5,286.0 414.8,286.0 418.1,286.0 421.3,286.0 424.6,286.0 427.9,286.0 431.1,286.0 434.4,286.0 437.7,286.0 440.9,286.0 444.2,286.0 447.5,286.0 450.8,286.0 454.0,286.0 457.3,286.0 460.6,286.0 463.8,286.0 467.1,286.0 470.4,286.0 473.6,286.0 476.9,286.0 480.2,286.0 483.5,286.0 486.7,286.0 490.0,286.0 493.3,286.0 496.5,286.0 499.8,286.0 503.1,286.0 506.4,286.0 509.6,286.0 512.9,286.0 516.2,286.0 519.4,286.0 522.7,286.0 526.0,286.0 529.2,286.0 532.5,286.0 535.8,286.0 539.1,286.0 542.3,286.0 545.6,286.0 548.9,286.0 552.1,286.0 555.4,280.0 558.7,286.0 561.9,286.0 565.2,286.0 568.5,286.0 571.8,286.0 575.0,286.0 578.3,286.0 581.6,286.0 584.8,286.0 588.1,286.0 591.4,286.0 594.6,286.0 597.9,286.0 601.2,286.0 604.5,286.0 607.7,286.0 611.0,286.0 614.3,286.0 617.5,286.0 620.8,286.0 624.1,286.0 627.3,286.0 630.6,286.0 633.9,286.0 637.2,286.0 640.4,286.0 643.7,286.0 647.0,286.0 650.2,286.0 653.5,286.0 656.8,286.0 660.0,286.0 663.3,286.0 666.6,286.0 669.9,286.0 673.1,286.0 676.4,286.0 679.7,286.0 682.9,286.0 686.2,286.0 689.5,286.0 692.7,286.0 696.0,286.0 699.3,286.0 702.6,286.0 705.8,286.0 709.1,286.0 712.4,286.0 715.6,286.0 718.9,286.0 722.2,286.0 725.4,286.0 728.7,286.0 732.0,286.0 735.3,286.0 738.5,286.0 741.8,286.0 745.1,280.0 748.3,286.0 751.6,286.0 754.9,286.0 758.1,286.0 761.4,286.0 764.7,286.0 768.0,286.0 771.2,286.0 774.5,286.0 777.8,280.0 781.0,286.0 784.3,286.0 787.6,286.0 790.8,286.0 794.1,286.0 797.4,286.0 800.7,286.0 803.9,286.0 807.2,286.0 810.5,286.0 813.7,286.0 817.0,286.0 820.3,286.0 823.5,286.0 826.8,286.0 830.1,286.0 833.4,286.0 836.6,286.0 839.9,286.0 843.2,286.0 846.4,286.0 849.7,286.0 853.0,286.0 856.2,286.0 859.5,286.0 862.8,286.0 866.1,286.0 869.3,286.0 872.6,280.0 875.9,286.0 879.1,286.0 882.4,286.0 885.7,286.0 888.9,286.0 892.2,286.0 895.5,280.0 898.8,286.0 902.0,286.0 905.3,286.0 908.6,286.0 911.8,286.0 915.1,286.0 918.4,286.0 921.6,286.0 924.9,286.0 928.2,286.0 931.5,286.0 934.7,286.0 938.0,286.0"/><text x="42" y="308" font-size="11" fill="#5a688a">19/06 12:43</text><text x="938" y="308" text-anchor="end" font-size="11" fill="#5a688a">04/07 20:31</text></svg>