<svg xmlns="http://www.w3.org/2000/svg" viewBox="0 0 960 320" width="960" height="320" font-family="Segoe UI, system-ui, -apple-system, Roboto, Helvetica, Arial, sans-serif" role="img" aria-label="Availability history per region"><rect x="0.5" y="0.5" width="959" height="319" rx="14" fill="#0d1117" stroke="#2c3a5e"/><text x="42" y="26" font-size="14" font-weight="600" fill="#e6ecff">History · 24 points</text><circle cx="47" cy="40" r="5" fill="#22c55e"/><text x="57" y="44" font-size="12" fill="#9fb0d4">Available</text><circle cx="139.8" cy="40" r="5" fill="#f59e0b"/><text x="149.8" y="44" font-size="12" fill="#9fb0d4">Saturated</text><circle cx="232.60000000000002" cy="40" r="5" fill="#ef4444"/><text x="242.60000000000002" y="44" font-size="12" fill="#9fb0d4">Error</text><line x1="42" y1="286.0" x2="938" y2="286.0" stroke="#21304f" stroke-width="1"/><text x="35" y="289.0" text-anchor="end" font-size="11" fill="#9fb0d4">0</text><line x1="42" y1="227.5" x2="938" y2="227.5" stroke="#21304f" stroke-width="1"/><text x="35" y="230.5" text-anchor="end" font-size="11" fill="#9fb0d4">10</text><line x1="42" y1="169.0" x2="938" y2="169.0" stroke="#21304f" stroke-width="1"/><text x="35" y="172.0" text-anchor="end" font-size="11" fill="#9fb0d4">19</text><line x1="42" y1="110.5" x2="938" y2="110.5" stroke="#21304f" stroke-width="1"/><text x="35" y="113.5" text-anchor="end" font-size="11" fill="#9fb0d4">28</text><line x1="42" y1="52.0" x2="938" y2="52.0" stroke="#21304f" stroke-width="1"/><text x="35" y="55.0" text-anchor="end" font-size="11" fill="#9fb0d4">38</text><polyline fill="none" stroke="#22c55e" stroke-width="2.5" stroke-linejoin="round" stroke-linecap="round" points="42.0,64.3 81.0,224.4 119.9,82.8 158.9,88.9 197.8,82.8 236.8,76.6 275.7,76.6 314.7,76.6 353.7,76.6 392.6,76.6 431.6,76.6 470.5,76.6 509.5,76.6 548.4,76.6 587.4,76.6 626.3,70.5 665.3,70.5 704.3,82.8 743.2,82.8 782.2,82.8 821.1,88.9 860.1,88.9 899.0,88.9 938.0,88.9"/><circle cx="42.0" cy="64.3" r="2.5" fill="#22c55e"/><circle cx="81.0" cy="224.4" r="2.5" fill="#22c55e"/><circle cx="119.9" cy="82.8" r="2.5" fill="#22c55e"/><circle cx="158.9" cy="88.9" r="2.5" fill="#22c55e"/><circle cx="197.8" cy="82.8" r="2.5" fill="#22c55e"/><circle cx="236.8" cy="76.6" r="2.5" fill="#22c55e"/><circle cx="275.7" cy="76.6" r="2.5" fill="#22c55e"/><circle cx="314.7" cy="76.6" r="2.5" fill="#22c55e"/><circle cx="353.7" cy="76.6" r="2.5" fill="#22c55e"/><circle cx="392.6" cy="76.6" r="2.5" fill="#22c55e"/><circle cx="431.6" cy="76.6" r="2.5" fill="#22c55e"/><circle cx="470.5" cy="76.6" r="2.5" fill="#22c55e"/><circle cx="509.5" cy="76.6" r="2.5" fill="#22c55e"/><circle cx="548.4" cy="76.6" r="2.5" fill="#22c55e"/><circle cx="587.4" cy="76.6" r="2.5" fill="#22c55e"/><circle cx="626.3" cy="70.5" r="2.5" fill="#22c55e"/><circle cx="665.3" cy="70.5" r="2.5" fill="#22c55e"/><circle cx="704.3" cy="82.8" r="2.5" fill="#22c55e"/><circle cx="743.2" cy="82.8" r="2.5" fill="#22c55e"/><circle cx="782.2" cy="82.8" r="2.5" fill="#22c55e"/><circle cx="821.1" cy="88.9" r="2.5" fill="#22c55e"/><circle cx="860.1" cy="88.9" r="2.5" fill="#22c55e"/><circle cx="899.0" cy="88.9" r="2.5" fill="#22c55e"/><circle cx="938.0" cy="88.9" r="2.5" fill="#22c55e"/><polyline fill="none" stroke="#f59e0b" stroke-width="2.5" stroke-linejoin="round" stroke-linecap="round" points="42.0,273.7 81.0,267.5 119.9,255.2 158.9,249.1 197.8,255.2 236.8,261.4 275.7,261.4 314.7,261.4 353.7,261.4 392.6,261.4 431.6,261.4 470.5,261.4 509.5,261.4 548.4,261.4 587.4,261.4 626.3,267.5 665.3,267.5 704.3,261.4 743.2,255.2 782.2,255.2 821.1,249.1 860.1,249.1 899.0,249.1 938.0,249.1"/><circle cx="42.0" cy="273.7" r="2.5" fill="#f59e0b"/><circle cx="81.0" cy="267.5" r="2.5" fill="#f59e0b"/><circle cx="119.9" cy="255.2" r="2.5" fill="#f59e0b"/><circle cx="158.9" cy="249.1" r="2.5" fill="#f59e0b"/><circle cx="197.8" cy="255.2" r="2.5" fill="#f59e0b"/><circle cx="236.8" cy="261.4" r="2.5" fill="#f59e0b"/><circle cx="275.7" cy="261.4" r="2.5" fill="#f59e0b"/><circle cx="314.7" cy="261.4" r="2.5" fill="#f59e0b"/><circle cx="353.7" cy="261.4" r="2.5" fill="#f59e0b"/><circle cx="392.6" cy="261.4" r="2.5" fill="#f59e0b"/><circle cx="431.6" cy="261.4" r="2.5" fill="#f59e0b"/><circle cx="470.5" cy="261.4" r="2.5" fill="#f59e0b"/><circle cx="509.5" cy="261.4" r="2.5" fill="#f59e0b"/><circle cx="548.4" cy="261.4" r="2.5" fill="#f59e0b"/><circle cx="587.4" cy="261.4" r="2.5" fill="#f59e0b"/><circle cx="626.3" cy="267.5" r="2.5" fill="#f59e0b"/><circle cx="665.3" cy="267.5" r="2.5" fill="#f59e0b"/><circle cx="704.3" cy="261.4" r="2.5" fill="#f59e0b"/><circle cx="743.2" cy="255.2" r="2.5" fill="#f59e0b"/><circle cx="782.2" cy="255.2" r="2.5" fill="#f59e0b"/><circle cx="821.1" cy="249.1" r="2.5" fill="#f59e0b"/><circle cx="860.1" cy="249.1" r="2.5" fill="#f59e0b"/><circle cx="899.0" cy="249.1" r="2.5" fill="#f59e0b"/><circle cx="938.0" cy="249.1" r="2.5" fill="#f59e0b"/><polyline fill="none" stroke="#ef4444" stroke-width="2.5" stroke-linejoin="round" stroke-linecap="round" points="42.0,286.0 81.0,132.1 119.9,286.0 158.9,286.0 197.8,286.0 236.8,286.0 275.7,286.0 314.7,286.0 353.7,286.0 392.6,286.0 431.6,286.0 470.5,286.0 509.5,286.0 548.4,286.0 587.4,286.0 626.3,286.0 665.3,286.0 704.3,279.8 743.2,286.0 782.2,286.0 821.1,286.0 860.1,286.0 899.0,286.0 938.0,286.0"/><circle cx="42.0" cy="286.0" r="2.5" fill="#ef4444"/><circle cx="81.0" cy="132.1" r="2.5" fill="#ef4444"/><circle cx="119.9" cy="286.0" r="2.5" fill="#ef4444"/><circle cx="158.9" cy="286.0" r="2.5" fill="#ef4444"/><circle cx="197.8" cy="286.0" r="2.5" fill="#ef4444"/><circle cx="236.8" cy="286.0" r="2.5" fill="#ef4444"/><circle cx="275.7" cy="286.0" r="2.5" fill="#ef4444"/><circle cx="314.7" cy="286.0" r="2.5" fill="#ef4444"/><circle cx="353.7" cy="286.0" r="2.5" fill="#ef4444"/><circle cx="392.6" cy="286.0" r="2.5" fill="#ef4444"/><circle cx="431.6" cy="286.0" r="2.5" fill="#ef4444"/><circle cx="470.5" cy="286.0" r="2.5" fill="#ef4444"/><circle cx="509.5" cy="286.0" r="2.5" fill="#ef4444"/><circle cx="548.4" cy="286.0" r="2.5" fill="#ef4444"/><circle cx="587.4" cy="286.0" r="2.5" fill="#ef4444"/><circle cx="626.3" cy="286.0" r="2.5" fill="#ef4444"/><circle cx="665.3" cy="286.0" r="2.5" fill="#ef4444"/><circle cx="704.3" cy="279.8" r="2.5" fill="#ef4444"/><circle cx="743.2" cy="286.0" r="2.5" fill="#ef4444"/><circle cx="782.2" cy="286.0" r="2.5" fill="#ef4444"/><circle cx="821.1" cy="286.0" r="2.5" fill="#ef4444"/><circle cx="860.1" cy="286.0" r="2.5" fill="#ef4444"/><circle cx="899.0" cy="286.0" r="2.5" fill="#ef4444"/><circle cx="938.0" cy="286.0" r="2.5" fill="#ef4444"/><text x="42" y="308" font-size="11" fill="#9fb0d4">19/06 15:39</text><text x="938" y="308" text-anchor="end" font-size="11" fill="#9fb0d4">17/07 13:29</text></svg>