<svg xmlns="http://www.w3.org/2000/svg" viewBox="0 0 960 320" width="960" height="320" font-family="Segoe UI, system-ui, -apple-system, Roboto, Helvetica, Arial, sans-serif" role="img" aria-label="Availability history per region"><rect x="0.5" y="0.5" width="959" height="319" rx="14" fill="#0d1117" stroke="#2c3a5e"/><text x="42" y="26" font-size="14" font-weight="600" fill="#e6ecff">History · 284 points</text><circle cx="47" cy="40" r="5" fill="#22c55e"/><text x="57" y="44" font-size="12" fill="#9fb0d4">Available</text><circle cx="139.8" cy="40" r="5" fill="#f59e0b"/><text x="149.8" y="44" font-size="12" fill="#9fb0d4">Saturated</text><circle cx="232.60000000000002" cy="40" r="5" fill="#ef4444"/><text x="242.60000000000002" y="44" font-size="12" fill="#9fb0d4">Error</text><circle cx="296.6" cy="40" r="5" fill="#a855f7"/><text x="306.6" y="44" font-size="12" fill="#9fb0d4">Timeout</text><line x1="42" y1="286.0" x2="938" y2="286.0" stroke="#21304f" stroke-width="1"/><text x="35" y="289.0" text-anchor="end" font-size="11" fill="#9fb0d4">0</text><line x1="42" y1="227.5" x2="938" y2="227.5" stroke="#21304f" stroke-width="1"/><text x="35" y="230.5" text-anchor="end" font-size="11" fill="#9fb0d4">10</text><line x1="42" y1="169.0" x2="938" y2="169.0" stroke="#21304f" stroke-width="1"/><text x="35" y="172.0" text-anchor="end" font-size="11" fill="#9fb0d4">20</text><line x1="42" y1="110.5" x2="938" y2="110.5" stroke="#21304f" stroke-width="1"/><text x="35" y="113.5" text-anchor="end" font-size="11" fill="#9fb0d4">29</text><line x1="42" y1="52.0" x2="938" y2="52.0" stroke="#21304f" stroke-width="1"/><text x="35" y="55.0" text-anchor="end" font-size="11" fill="#9fb0d4">39</text><polyline fill="none" stroke="#22c55e" stroke-width="2.5" stroke-linejoin="round" stroke-linecap="round" points="42.0,70.0 45.2,70.0 48.3,88.0 51.5,88.0 54.7,76.0 57.8,76.0 61.0,76.0 64.2,70.0 67.3,76.0 70.5,70.0 73.7,64.0 76.8,58.0 80.0,58.0 83.2,58.0 86.3,58.0 89.5,58.0 92.7,58.0 95.8,58.0 99.0,58.0 102.2,58.0 105.3,58.0 108.5,58.0 111.7,58.0 114.8,58.0 118.0,58.0 121.2,58.0 124.3,58.0 127.5,58.0 130.7,58.0 133.8,58.0 137.0,58.0 140.1,70.0 143.3,76.0 146.5,94.0 149.6,64.0 152.8,64.0 156.0,58.0 159.1,58.0 162.3,58.0 165.5,70.0 168.6,76.0 171.8,76.0 175.0,82.0 178.1,82.0 181.3,82.0 184.5,82.0 187.6,76.0 190.8,64.0 194.0,70.0 197.1,70.0 200.3,82.0 203.5,76.0 206.6,76.0 209.8,82.0 213.0,76.0 216.1,76.0 219.3,76.0 222.5,64.0 225.6,64.0 228.8,76.0 232.0,76.0 235.1,76.0 238.3,88.0 241.5,70.0 244.6,64.0 247.8,58.0 251.0,58.0 254.1,70.0 257.3,70.0 260.5,70.0 263.6,76.0 266.8,70.0 270.0,70.0 273.1,70.0 276.3,70.0 279.5,76.0 282.6,82.0 285.8,76.0 289.0,70.0 292.1,70.0 295.3,70.0 298.5,70.0 301.6,76.0 304.8,70.0 308.0,70.0 311.1,70.0 314.3,70.0 317.4,70.0 320.6,70.0 323.8,70.0 326.9,70.0 330.1,70.0 333.3,70.0 336.4,70.0 339.6,70.0 342.8,70.0 345.9,70.0 349.1,70.0 352.3,70.0 355.4,70.0 358.6,70.0 361.8,70.0 364.9,70.0 368.1,70.0 371.3,70.0 374.4,70.0 377.6,70.0 380.8,70.0 383.9,70.0 387.1,70.0 390.3,70.0 393.4,70.0 396.6,70.0 399.8,70.0 402.9,70.0 406.1,70.0 409.3,70.0 412.4,70.0 415.6,70.0 418.8,70.0 421.9,70.0 425.1,70.0 428.3,70.0 431.4,70.0 434.6,70.0 437.8,70.0 440.9,70.0 444.1,70.0 447.3,70.0 450.4,70.0 453.6,70.0 456.8,70.0 459.9,70.0 463.1,70.0 466.3,70.0 469.4,70.0 472.6,70.0 475.8,70.0 478.9,70.0 482.1,70.0 485.3,70.0 488.4,70.0 491.6,70.0 494.7,70.0 497.9,70.0 501.1,70.0 504.2,70.0 507.4,70.0 510.6,70.0 513.7,70.0 516.9,70.0 520.1,76.0 523.2,70.0 526.4,70.0 529.6,70.0 532.7,70.0 535.9,70.0 539.1,76.0 542.2,76.0 545.4,88.0 548.6,88.0 551.7,88.0 554.9,94.0 558.1,94.0 561.2,94.0 564.4,94.0 567.6,88.0 570.7,88.0 573.9,82.0 577.1,82.0 580.2,82.0 583.4,88.0 586.6,88.0 589.7,94.0 592.9,82.0 596.1,82.0 599.2,82.0 602.4,82.0 605.6,88.0 608.7,88.0 611.9,94.0 615.1,94.0 618.2,88.0 621.4,88.0 624.6,88.0 627.7,94.0 630.9,94.0 634.1,106.0 637.2,94.0 640.4,94.0 643.6,94.0 646.7,94.0 649.9,88.0 653.1,88.0 656.2,82.0 659.4,76.0 662.6,76.0 665.7,76.0 668.9,76.0 672.0,76.0 675.2,76.0 678.4,70.0 681.5,70.0 684.7,70.0 687.9,76.0 691.0,88.0 694.2,82.0 697.4,70.0 700.5,70.0 703.7,70.0 706.9,76.0 710.0,76.0 713.2,76.0 716.4,82.0 719.5,70.0 722.7,76.0 725.9,64.0 729.0,70.0 732.2,58.0 735.4,58.0 738.5,58.0 741.7,58.0 744.9,58.0 748.0,64.0 751.2,58.0 754.4,64.0 757.5,58.0 760.7,58.0 763.9,58.0 767.0,58.0 770.2,64.0 773.4,64.0 776.5,64.0 779.7,76.0 782.9,70.0 786.0,82.0 789.2,70.0 792.4,76.0 795.5,58.0 798.7,64.0 801.9,58.0 805.0,64.0 808.2,58.0 811.4,58.0 814.5,58.0 817.7,64.0 820.9,70.0 824.0,64.0 827.2,64.0 830.4,64.0 833.5,70.0 836.7,70.0 839.9,64.0 843.0,70.0 846.2,70.0 849.3,70.0 852.5,58.0 855.7,58.0 858.8,58.0 862.0,58.0 865.2,58.0 868.3,64.0 871.5,58.0 874.7,58.0 877.8,58.0 881.0,58.0 884.2,58.0 887.3,58.0 890.5,58.0 893.7,58.0 896.8,64.0 900.0,58.0 903.2,58.0 906.3,58.0 909.5,58.0 912.7,58.0 915.8,58.0 919.0,58.0 922.2,64.0 925.3,58.0 928.5,58.0 931.7,58.0 934.8,58.0 938.0,58.0"/><polyline fill="none" stroke="#f59e0b" stroke-width="2.5" stroke-linejoin="round" stroke-linecap="round" points="42.0,274.0 45.2,274.0 48.3,274.0 51.5,280.0 54.7,268.0 57.8,268.0 61.0,268.0 64.2,274.0 67.3,274.0 70.5,274.0 73.7,280.0 76.8,286.0 80.0,286.0 83.2,286.0 86.3,286.0 89.5,286.0 92.7,286.0 95.8,286.0 99.0,286.0 102.2,286.0 105.3,286.0 108.5,286.0 111.7,286.0 114.8,286.0 118.0,286.0 121.2,286.0 124.3,286.0 127.5,286.0 130.7,286.0 133.8,286.0 137.0,286.0 140.1,274.0 143.3,280.0 146.5,280.0 149.6,280.0 152.8,280.0 156.0,286.0 159.1,286.0 162.3,286.0 165.5,274.0 168.6,268.0 171.8,268.0 175.0,262.0 178.1,262.0 181.3,262.0 184.5,262.0 187.6,268.0 190.8,280.0 194.0,280.0 197.1,274.0 200.3,262.0 203.5,268.0 206.6,268.0 209.8,262.0 213.0,268.0 216.1,268.0 219.3,268.0 222.5,280.0 225.6,280.0 228.8,268.0 232.0,268.0 235.1,268.0 238.3,262.0 241.5,274.0 244.6,280.0 247.8,286.0 251.0,286.0 254.1,274.0 257.3,274.0 260.5,274.0 263.6,274.0 266.8,274.0 270.0,274.0 273.1,274.0 276.3,274.0 279.5,280.0 282.6,274.0 285.8,280.0 289.0,286.0 292.1,286.0 295.3,286.0 298.5,286.0 301.6,280.0 304.8,286.0 308.0,286.0 311.1,286.0 314.3,286.0 317.4,286.0 320.6,286.0 323.8,286.0 326.9,286.0 330.1,286.0 333.3,286.0 336.4,286.0 339.6,286.0 342.8,286.0 345.9,286.0 349.1,286.0 352.3,286.0 355.4,286.0 358.6,286.0 361.8,286.0 364.9,286.0 368.1,286.0 371.3,286.0 374.4,286.0 377.6,286.0 380.8,286.0 383.9,286.0 387.1,286.0 390.3,286.0 393.4,286.0 396.6,286.0 399.8,286.0 402.9,286.0 406.1,286.0 409.3,286.0 412.4,286.0 415.6,286.0 418.8,286.0 421.9,286.0 425.1,286.0 428.3,286.0 431.4,286.0 434.6,286.0 437.8,286.0 440.9,286.0 444.1,286.0 447.3,286.0 450.4,286.0 453.6,286.0 456.8,286.0 459.9,286.0 463.1,286.0 466.3,286.0 469.4,286.0 472.6,286.0 475.8,286.0 478.9,286.0 482.1,286.0 485.3,286.0 488.4,286.0 491.6,286.0 494.7,286.0 497.9,286.0 501.1,286.0 504.2,286.0 507.4,286.0 510.6,286.0 513.7,286.0 516.9,286.0 520.1,286.0 523.2,286.0 526.4,286.0 529.6,286.0 532.7,286.0 535.9,286.0 539.1,286.0 542.2,280.0 545.4,268.0 548.6,268.0 551.7,268.0 554.9,268.0 558.1,262.0 561.2,262.0 564.4,262.0 567.6,268.0 570.7,268.0 573.9,274.0 577.1,274.0 580.2,274.0 583.4,268.0 586.6,268.0 589.7,268.0 592.9,274.0 596.1,274.0 599.2,274.0 602.4,274.0 605.6,268.0 608.7,268.0 611.9,262.0 615.1,262.0 618.2,268.0 621.4,268.0 624.6,268.0 627.7,262.0 630.9,262.0 634.1,274.0 637.2,262.0 640.4,262.0 643.6,262.0 646.7,262.0 649.9,268.0 653.1,268.0 656.2,274.0 659.4,280.0 662.6,280.0 665.7,280.0 668.9,280.0 672.0,280.0 675.2,280.0 678.4,286.0 681.5,286.0 684.7,286.0 687.9,280.0 691.0,274.0 694.2,274.0 697.4,280.0 700.5,274.0 703.7,274.0 706.9,268.0 710.0,268.0 713.2,268.0 716.4,268.0 719.5,280.0 722.7,274.0 725.9,280.0 729.0,280.0 732.2,286.0 735.4,286.0 738.5,286.0 741.7,286.0 744.9,286.0 748.0,286.0 751.2,286.0 754.4,286.0 757.5,286.0 760.7,286.0 763.9,286.0 767.0,286.0 770.2,280.0 773.4,280.0 776.5,280.0 779.7,268.0 782.9,280.0 786.0,268.0 789.2,274.0 792.4,274.0 795.5,286.0 798.7,280.0 801.9,286.0 805.0,280.0 808.2,286.0 811.4,286.0 814.5,286.0 817.7,280.0 820.9,274.0 824.0,280.0 827.2,280.0 830.4,280.0 833.5,274.0 836.7,274.0 839.9,280.0 843.0,280.0 846.2,280.0 849.3,280.0 852.5,286.0 855.7,286.0 858.8,286.0 862.0,286.0 865.2,286.0 868.3,286.0 871.5,286.0 874.7,286.0 877.8,286.0 881.0,286.0 884.2,286.0 887.3,286.0 890.5,286.0 893.7,286.0 896.8,286.0 900.0,286.0 903.2,286.0 906.3,286.0 909.5,286.0 912.7,286.0 915.8,286.0 919.0,286.0 922.2,286.0 925.3,286.0 928.5,286.0 931.7,286.0 934.8,286.0 938.0,286.0"/><polyline fill="none" stroke="#ef4444" stroke-width="2.5" stroke-linejoin="round" stroke-linecap="round" points="42.0,280.0 45.2,280.0 48.3,268.0 51.5,262.0 54.7,286.0 57.8,286.0 61.0,286.0 64.2,286.0 67.3,280.0 70.5,286.0 73.7,286.0 76.8,286.0 80.0,286.0 83.2,286.0 86.3,286.0 89.5,286.0 92.7,286.0 95.8,286.0 99.0,286.0 102.2,286.0 105.3,286.0 108.5,286.0 111.7,286.0 114.8,286.0 118.0,286.0 121.2,286.0 124.3,286.0 127.5,286.0 130.7,286.0 133.8,286.0 137.0,286.0 140.1,286.0 143.3,274.0 146.5,256.0 149.6,286.0 152.8,286.0 156.0,286.0 159.1,286.0 162.3,286.0 165.5,286.0 168.6,286.0 171.8,286.0 175.0,286.0 178.1,286.0 181.3,286.0 184.5,286.0 187.6,286.0 190.8,286.0 194.0,280.0 197.1,286.0 200.3,286.0 203.5,286.0 206.6,286.0 209.8,286.0 213.0,286.0 216.1,286.0 219.3,286.0 222.5,286.0 225.6,286.0 228.8,286.0 232.0,286.0 235.1,286.0 238.3,280.0 241.5,286.0 244.6,286.0 247.8,286.0 251.0,286.0 254.1,286.0 257.3,286.0 260.5,286.0 263.6,286.0 266.8,286.0 270.0,286.0 273.1,286.0 276.3,286.0 279.5,274.0 282.6,274.0 285.8,274.0 289.0,274.0 292.1,274.0 295.3,274.0 298.5,274.0 301.6,274.0 304.8,274.0 308.0,274.0 311.1,274.0 314.3,274.0 317.4,274.0 320.6,274.0 323.8,274.0 326.9,274.0 330.1,274.0 333.3,274.0 336.4,274.0 339.6,274.0 342.8,274.0 345.9,274.0 349.1,274.0 352.3,274.0 355.4,274.0 358.6,274.0 361.8,274.0 364.9,274.0 368.1,274.0 371.3,274.0 374.4,274.0 377.6,274.0 380.8,274.0 383.9,274.0 387.1,274.0 390.3,274.0 393.4,274.0 396.6,274.0 399.8,274.0 402.9,274.0 406.1,274.0 409.3,274.0 412.4,274.0 415.6,274.0 418.8,274.0 421.9,274.0 425.1,274.0 428.3,274.0 431.4,274.0 434.6,274.0 437.8,274.0 440.9,274.0 444.1,274.0 447.3,274.0 450.4,274.0 453.6,274.0 456.8,274.0 459.9,274.0 463.1,274.0 466.3,274.0 469.4,274.0 472.6,274.0 475.8,274.0 478.9,274.0 482.1,274.0 485.3,274.0 488.4,274.0 491.6,274.0 494.7,274.0 497.9,274.0 501.1,274.0 504.2,274.0 507.4,274.0 510.6,274.0 513.7,274.0 516.9,274.0 520.1,268.0 523.2,274.0 526.4,274.0 529.6,274.0 532.7,274.0 535.9,274.0 539.1,274.0 542.2,274.0 545.4,274.0 548.6,274.0 551.7,274.0 554.9,268.0 558.1,274.0 561.2,274.0 564.4,274.0 567.6,274.0 570.7,274.0 573.9,274.0 577.1,274.0 580.2,274.0 583.4,274.0 586.6,274.0 589.7,268.0 592.9,274.0 596.1,274.0 599.2,274.0 602.4,274.0 605.6,274.0 608.7,274.0 611.9,274.0 615.1,274.0 618.2,274.0 621.4,274.0 624.6,274.0 627.7,274.0 630.9,274.0 634.1,250.0 637.2,274.0 640.4,274.0 643.6,274.0 646.7,274.0 649.9,274.0 653.1,274.0 656.2,274.0 659.4,274.0 662.6,274.0 665.7,274.0 668.9,274.0 672.0,274.0 675.2,274.0 678.4,274.0 681.5,274.0 684.7,274.0 687.9,274.0 691.0,268.0 694.2,274.0 697.4,280.0 700.5,286.0 703.7,286.0 706.9,286.0 710.0,286.0 713.2,286.0 716.4,280.0 719.5,280.0 722.7,286.0 725.9,286.0 729.0,280.0 732.2,286.0 735.4,286.0 738.5,286.0 741.7,286.0 744.9,286.0 748.0,280.0 751.2,286.0 754.4,286.0 757.5,286.0 760.7,286.0 763.9,286.0 767.0,286.0 770.2,286.0 773.4,286.0 776.5,286.0 779.7,286.0 782.9,280.0 786.0,280.0 789.2,286.0 792.4,280.0 795.5,286.0 798.7,286.0 801.9,286.0 805.0,286.0 808.2,286.0 811.4,286.0 814.5,286.0 817.7,286.0 820.9,286.0 824.0,286.0 827.2,286.0 830.4,286.0 833.5,286.0 836.7,286.0 839.9,286.0 843.0,280.0 846.2,286.0 849.3,280.0 852.5,286.0 855.7,286.0 858.8,286.0 862.0,286.0 865.2,286.0 868.3,286.0 871.5,286.0 874.7,286.0 877.8,286.0 881.0,286.0 884.2,286.0 887.3,286.0 890.5,286.0 893.7,286.0 896.8,280.0 900.0,286.0 903.2,286.0 906.3,286.0 909.5,286.0 912.7,286.0 915.8,286.0 919.0,286.0 922.2,286.0 925.3,286.0 928.5,286.0 931.7,286.0 934.8,286.0 938.0,286.0"/><polyline fill="none" stroke="#a855f7" stroke-width="2.5" stroke-linejoin="round" stroke-linecap="round" points="42.0,286.0 45.2,286.0 48.3,286.0 51.5,286.0 54.7,286.0 57.8,286.0 61.0,286.0 64.2,286.0 67.3,286.0 70.5,286.0 73.7,286.0 76.8,286.0 80.0,286.0 83.2,286.0 86.3,286.0 89.5,286.0 92.7,286.0 95.8,286.0 99.0,286.0 102.2,286.0 105.3,286.0 108.5,286.0 111.7,286.0 114.8,286.0 118.0,286.0 121.2,286.0 124.3,286.0 127.5,286.0 130.7,286.0 133.8,286.0 137.0,286.0 140.1,286.0 143.3,286.0 146.5,286.0 149.6,286.0 152.8,286.0 156.0,286.0 159.1,286.0 162.3,286.0 165.5,286.0 168.6,286.0 171.8,286.0 175.0,286.0 178.1,286.0 181.3,286.0 184.5,286.0 187.6,286.0 190.8,286.0 194.0,286.0 197.1,286.0 200.3,286.0 203.5,286.0 206.6,286.0 209.8,286.0 213.0,286.0 216.1,286.0 219.3,286.0 222.5,286.0 225.6,286.0 228.8,286.0 232.0,286.0 235.1,286.0 238.3,286.0 241.5,286.0 244.6,286.0 247.8,286.0 251.0,286.0 254.1,286.0 257.3,286.0 260.5,286.0 263.6,280.0 266.8,286.0 270.0,286.0 273.1,286.0 276.3,286.0 279.5,286.0 282.6,286.0 285.8,286.0 289.0,286.0 292.1,286.0 295.3,286.0 298.5,286.0 301.6,286.0 304.8,286.0 308.0,286.0 311.1,286.0 314.3,286.0 317.4,286.0 320.6,286.0 323.8,286.0 326.9,286.0 330.1,286.0 333.3,286.0 336.4,286.0 339.6,286.0 342.8,286.0 345.9,286.0 349.1,286.0 352.3,286.0 355.4,286.0 358.6,286.0 361.8,286.0 364.9,286.0 368.1,286.0 371.3,286.0 374.4,286.0 377.6,286.0 380.8,286.0 383.9,286.0 387.1,286.0 390.3,286.0 393.4,286.0 396.6,286.0 399.8,286.0 402.9,286.0 406.1,286.0 409.3,286.0 412.4,286.0 415.6,286.0 418.8,286.0 421.9,286.0 425.1,286.0 428.3,286.0 431.4,286.0 434.6,286.0 437.8,286.0 440.9,286.0 444.1,286.0 447.3,286.0 450.4,286.0 453.6,286.0 456.8,286.0 459.9,286.0 463.1,286.0 466.3,286.0 469.4,286.0 472.6,286.0 475.8,286.0 478.9,286.0 482.1,286.0 485.3,286.0 488.4,286.0 491.6,286.0 494.7,286.0 497.9,286.0 501.1,286.0 504.2,286.0 507.4,286.0 510.6,286.0 513.7,286.0 516.9,286.0 520.1,286.0 523.2,286.0 526.4,286.0 529.6,286.0 532.7,286.0 535.9,286.0 539.1,280.0 542.2,286.0 545.4,286.0 548.6,286.0 551.7,286.0 554.9,286.0 558.1,286.0 561.2,286.0 564.4,286.0 567.6,286.0 570.7,286.0 573.9,286.0 577.1,286.0 580.2,286.0 583.4,286.0 586.6,286.0 589.7,286.0 592.9,286.0 596.1,286.0 599.2,286.0 602.4,286.0 605.6,286.0 608.7,286.0 611.9,286.0 615.1,286.0 618.2,286.0 621.4,286.0 624.6,286.0 627.7,286.0 630.9,286.0 634.1,286.0 637.2,286.0 640.4,286.0 643.6,286.0 646.7,286.0 649.9,286.0 653.1,286.0 656.2,286.0 659.4,286.0 662.6,286.0 665.7,286.0 668.9,286.0 672.0,286.0 675.2,286.0 678.4,286.0 681.5,286.0 684.7,286.0 687.9,286.0 691.0,286.0 694.2,286.0 697.4,286.0 700.5,286.0 703.7,286.0 706.9,286.0 710.0,286.0 713.2,286.0 716.4,286.0 719.5,286.0 722.7,280.0 725.9,286.0 729.0,286.0 732.2,286.0 735.4,286.0 738.5,286.0 741.7,286.0 744.9,286.0 748.0,286.0 751.2,286.0 754.4,280.0 757.5,286.0 760.7,286.0 763.9,286.0 767.0,286.0 770.2,286.0 773.4,286.0 776.5,286.0 779.7,286.0 782.9,286.0 786.0,286.0 789.2,286.0 792.4,286.0 795.5,286.0 798.7,286.0 801.9,286.0 805.0,286.0 808.2,286.0 811.4,286.0 814.5,286.0 817.7,286.0 820.9,286.0 824.0,286.0 827.2,286.0 830.4,286.0 833.5,286.0 836.7,286.0 839.9,286.0 843.0,286.0 846.2,280.0 849.3,286.0 852.5,286.0 855.7,286.0 858.8,286.0 862.0,286.0 865.2,286.0 868.3,280.0 871.5,286.0 874.7,286.0 877.8,286.0 881.0,286.0 884.2,286.0 887.3,286.0 890.5,286.0 893.7,286.0 896.8,286.0 900.0,286.0 903.2,286.0 906.3,286.0 909.5,286.0 912.7,286.0 915.8,286.0 919.0,286.0 922.2,280.0 925.3,286.0 928.5,286.0 931.7,286.0 934.8,286.0 938.0,286.0"/><text x="42" y="308" font-size="11" fill="#9fb0d4">19/06 12:43</text><text x="938" y="308" text-anchor="end" font-size="11" fill="#9fb0d4">05/07 09:29</text></svg>