<svg xmlns="http://www.w3.org/2000/svg" viewBox="0 0 960 320" width="960" height="320" font-family="Segoe UI, system-ui, -apple-system, Roboto, Helvetica, Arial, sans-serif" role="img" aria-label="Availability history per region"><rect x="0.5" y="0.5" width="959" height="319" rx="14" fill="#ffffff" stroke="#dce3f1"/><text x="42" y="26" font-size="14" font-weight="600" fill="#14203a">History · 44 points</text><circle cx="47" cy="40" r="5" fill="#22c55e"/><text x="57" y="44" font-size="12" fill="#5a688a">Available</text><circle cx="139.8" cy="40" r="5" fill="#f59e0b"/><text x="149.8" y="44" font-size="12" fill="#5a688a">Saturated</text><circle cx="232.60000000000002" cy="40" r="5" fill="#ef4444"/><text x="242.60000000000002" y="44" font-size="12" fill="#5a688a">Error</text><line x1="42" y1="286.0" x2="938" y2="286.0" stroke="#eef2f7" stroke-width="1"/><text x="35" y="289.0" text-anchor="end" font-size="11" fill="#5a688a">0</text><line x1="42" y1="227.5" x2="938" y2="227.5" stroke="#eef2f7" stroke-width="1"/><text x="35" y="230.5" text-anchor="end" font-size="11" fill="#5a688a">10</text><line x1="42" y1="169.0" x2="938" y2="169.0" stroke="#eef2f7" stroke-width="1"/><text x="35" y="172.0" text-anchor="end" font-size="11" fill="#5a688a">20</text><line x1="42" y1="110.5" x2="938" y2="110.5" stroke="#eef2f7" stroke-width="1"/><text x="35" y="113.5" text-anchor="end" font-size="11" fill="#5a688a">29</text><line x1="42" y1="52.0" x2="938" y2="52.0" stroke="#eef2f7" stroke-width="1"/><text x="35" y="55.0" text-anchor="end" font-size="11" fill="#5a688a">39</text><polyline fill="none" stroke="#22c55e" stroke-width="2.5" stroke-linejoin="round" stroke-linecap="round" points="42.0,70.0 62.8,70.0 83.7,88.0 104.5,88.0 125.3,76.0 146.2,76.0 167.0,76.0 187.9,70.0 208.7,76.0 229.5,70.0 250.4,64.0 271.2,58.0 292.0,58.0 312.9,58.0 333.7,58.0 354.6,58.0 375.4,58.0 396.2,58.0 417.1,58.0 437.9,58.0 458.7,58.0 479.6,58.0 500.4,58.0 521.3,58.0 542.1,58.0 562.9,58.0 583.8,58.0 604.6,58.0 625.4,58.0 646.3,58.0 667.1,58.0 688.0,70.0 708.8,76.0 729.6,94.0 750.5,64.0 771.3,64.0 792.1,58.0 813.0,58.0 833.8,58.0 854.7,70.0 875.5,76.0 896.3,76.0 917.2,82.0 938.0,82.0"/><circle cx="42.0" cy="70.0" r="2.5" fill="#22c55e"/><circle cx="62.8" cy="70.0" r="2.5" fill="#22c55e"/><circle cx="83.7" cy="88.0" r="2.5" fill="#22c55e"/><circle cx="104.5" cy="88.0" r="2.5" fill="#22c55e"/><circle cx="125.3" cy="76.0" r="2.5" fill="#22c55e"/><circle cx="146.2" cy="76.0" r="2.5" fill="#22c55e"/><circle cx="167.0" cy="76.0" r="2.5" fill="#22c55e"/><circle cx="187.9" cy="70.0" r="2.5" fill="#22c55e"/><circle cx="208.7" cy="76.0" r="2.5" fill="#22c55e"/><circle cx="229.5" cy="70.0" r="2.5" fill="#22c55e"/><circle cx="250.4" cy="64.0" r="2.5" fill="#22c55e"/><circle cx="271.2" cy="58.0" r="2.5" fill="#22c55e"/><circle cx="292.0" cy="58.0" r="2.5" fill="#22c55e"/><circle cx="312.9" cy="58.0" r="2.5" fill="#22c55e"/><circle cx="333.7" cy="58.0" r="2.5" fill="#22c55e"/><circle cx="354.6" cy="58.0" r="2.5" fill="#22c55e"/><circle cx="375.4" cy="58.0" r="2.5" fill="#22c55e"/><circle cx="396.2" cy="58.0" r="2.5" fill="#22c55e"/><circle cx="417.1" cy="58.0" r="2.5" fill="#22c55e"/><circle cx="437.9" cy="58.0" r="2.5" fill="#22c55e"/><circle cx="458.7" cy="58.0" r="2.5" fill="#22c55e"/><circle cx="479.6" cy="58.0" r="2.5" fill="#22c55e"/><circle cx="500.4" cy="58.0" r="2.5" fill="#22c55e"/><circle cx="521.3" cy="58.0" r="2.5" fill="#22c55e"/><circle cx="542.1" cy="58.0" r="2.5" fill="#22c55e"/><circle cx="562.9" cy="58.0" r="2.5" fill="#22c55e"/><circle cx="583.8" cy="58.0" r="2.5" fill="#22c55e"/><circle cx="604.6" cy="58.0" r="2.5" fill="#22c55e"/><circle cx="625.4" cy="58.0" r="2.5" fill="#22c55e"/><circle cx="646.3" cy="58.0" r="2.5" fill="#22c55e"/><circle cx="667.1" cy="58.0" r="2.5" fill="#22c55e"/><circle cx="688.0" cy="70.0" r="2.5" fill="#22c55e"/><circle cx="708.8" cy="76.0" r="2.5" fill="#22c55e"/><circle cx="729.6" cy="94.0" r="2.5" fill="#22c55e"/><circle cx="750.5" cy="64.0" r="2.5" fill="#22c55e"/><circle cx="771.3" cy="64.0" r="2.5" fill="#22c55e"/><circle cx="792.1" cy="58.0" r="2.5" fill="#22c55e"/><circle cx="813.0" cy="58.0" r="2.5" fill="#22c55e"/><circle cx="833.8" cy="58.0" r="2.5" fill="#22c55e"/><circle cx="854.7" cy="70.0" r="2.5" fill="#22c55e"/><circle cx="875.5" cy="76.0" r="2.5" fill="#22c55e"/><circle cx="896.3" cy="76.0" r="2.5" fill="#22c55e"/><circle cx="917.2" cy="82.0" r="2.5" fill="#22c55e"/><circle cx="938.0" cy="82.0" r="2.5" fill="#22c55e"/><polyline fill="none" stroke="#f59e0b" stroke-width="2.5" stroke-linejoin="round" stroke-linecap="round" points="42.0,274.0 62.8,274.0 83.7,274.0 104.5,280.0 125.3,268.0 146.2,268.0 167.0,268.0 187.9,274.0 208.7,274.0 229.5,274.0 250.4,280.0 271.2,286.0 292.0,286.0 312.9,286.0 333.7,286.0 354.6,286.0 375.4,286.0 396.2,286.0 417.1,286.0 437.9,286.0 458.7,286.0 479.6,286.0 500.4,286.0 521.3,286.0 542.1,286.0 562.9,286.0 583.8,286.0 604.6,286.0 625.4,286.0 646.3,286.0 667.1,286.0 688.0,274.0 708.8,280.0 729.6,280.0 750.5,280.0 771.3,280.0 792.1,286.0 813.0,286.0 833.8,286.0 854.7,274.0 875.5,268.0 896.3,268.0 917.2,262.0 938.0,262.0"/><circle cx="42.0" cy="274.0" r="2.5" fill="#f59e0b"/><circle cx="62.8" cy="274.0" r="2.5" fill="#f59e0b"/><circle cx="83.7" cy="274.0" r="2.5" fill="#f59e0b"/><circle cx="104.5" cy="280.0" r="2.5" fill="#f59e0b"/><circle cx="125.3" cy="268.0" r="2.5" fill="#f59e0b"/><circle cx="146.2" cy="268.0" r="2.5" fill="#f59e0b"/><circle cx="167.0" cy="268.0" r="2.5" fill="#f59e0b"/><circle cx="187.9" cy="274.0" r="2.5" fill="#f59e0b"/><circle cx="208.7" cy="274.0" r="2.5" fill="#f59e0b"/><circle cx="229.5" cy="274.0" r="2.5" fill="#f59e0b"/><circle cx="250.4" cy="280.0" r="2.5" fill="#f59e0b"/><circle cx="271.2" cy="286.0" r="2.5" fill="#f59e0b"/><circle cx="292.0" cy="286.0" r="2.5" fill="#f59e0b"/><circle cx="312.9" cy="286.0" r="2.5" fill="#f59e0b"/><circle cx="333.7" cy="286.0" r="2.5" fill="#f59e0b"/><circle cx="354.6" cy="286.0" r="2.5" fill="#f59e0b"/><circle cx="375.4" cy="286.0" r="2.5" fill="#f59e0b"/><circle cx="396.2" cy="286.0" r="2.5" fill="#f59e0b"/><circle cx="417.1" cy="286.0" r="2.5" fill="#f59e0b"/><circle cx="437.9" cy="286.0" r="2.5" fill="#f59e0b"/><circle cx="458.7" cy="286.0" r="2.5" fill="#f59e0b"/><circle cx="479.6" cy="286.0" r="2.5" fill="#f59e0b"/><circle cx="500.4" cy="286.0" r="2.5" fill="#f59e0b"/><circle cx="521.3" cy="286.0" r="2.5" fill="#f59e0b"/><circle cx="542.1" cy="286.0" r="2.5" fill="#f59e0b"/><circle cx="562.9" cy="286.0" r="2.5" fill="#f59e0b"/><circle cx="583.8" cy="286.0" r="2.5" fill="#f59e0b"/><circle cx="604.6" cy="286.0" r="2.5" fill="#f59e0b"/><circle cx="625.4" cy="286.0" r="2.5" fill="#f59e0b"/><circle cx="646.3" cy="286.0" r="2.5" fill="#f59e0b"/><circle cx="667.1" cy="286.0" r="2.5" fill="#f59e0b"/><circle cx="688.0" cy="274.0" r="2.5" fill="#f59e0b"/><circle cx="708.8" cy="280.0" r="2.5" fill="#f59e0b"/><circle cx="729.6" cy="280.0" r="2.5" fill="#f59e0b"/><circle cx="750.5" cy="280.0" r="2.5" fill="#f59e0b"/><circle cx="771.3" cy="280.0" r="2.5" fill="#f59e0b"/><circle cx="792.1" cy="286.0" r="2.5" fill="#f59e0b"/><circle cx="813.0" cy="286.0" r="2.5" fill="#f59e0b"/><circle cx="833.8" cy="286.0" r="2.5" fill="#f59e0b"/><circle cx="854.7" cy="274.0" r="2.5" fill="#f59e0b"/><circle cx="875.5" cy="268.0" r="2.5" fill="#f59e0b"/><circle cx="896.3" cy="268.0" r="2.5" fill="#f59e0b"/><circle cx="917.2" cy="262.0" r="2.5" fill="#f59e0b"/><circle cx="938.0" cy="262.0" r="2.5" fill="#f59e0b"/><polyline fill="none" stroke="#ef4444" stroke-width="2.5" stroke-linejoin="round" stroke-linecap="round" points="42.0,280.0 62.8,280.0 83.7,268.0 104.5,262.0 125.3,286.0 146.2,286.0 167.0,286.0 187.9,286.0 208.7,280.0 229.5,286.0 250.4,286.0 271.2,286.0 292.0,286.0 312.9,286.0 333.7,286.0 354.6,286.0 375.4,286.0 396.2,286.0 417.1,286.0 437.9,286.0 458.7,286.0 479.6,286.0 500.4,286.0 521.3,286.0 542.1,286.0 562.9,286.0 583.8,286.0 604.6,286.0 625.4,286.0 646.3,286.0 667.1,286.0 688.0,286.0 708.8,274.0 729.6,256.0 750.5,286.0 771.3,286.0 792.1,286.0 813.0,286.0 833.8,286.0 854.7,286.0 875.5,286.0 896.3,286.0 917.2,286.0 938.0,286.0"/><circle cx="42.0" cy="280.0" r="2.5" fill="#ef4444"/><circle cx="62.8" cy="280.0" r="2.5" fill="#ef4444"/><circle cx="83.7" cy="268.0" r="2.5" fill="#ef4444"/><circle cx="104.5" cy="262.0" r="2.5" fill="#ef4444"/><circle cx="125.3" cy="286.0" r="2.5" fill="#ef4444"/><circle cx="146.2" cy="286.0" r="2.5" fill="#ef4444"/><circle cx="167.0" cy="286.0" r="2.5" fill="#ef4444"/><circle cx="187.9" cy="286.0" r="2.5" fill="#ef4444"/><circle cx="208.7" cy="280.0" r="2.5" fill="#ef4444"/><circle cx="229.5" cy="286.0" r="2.5" fill="#ef4444"/><circle cx="250.4" cy="286.0" r="2.5" fill="#ef4444"/><circle cx="271.2" cy="286.0" r="2.5" fill="#ef4444"/><circle cx="292.0" cy="286.0" r="2.5" fill="#ef4444"/><circle cx="312.9" cy="286.0" r="2.5" fill="#ef4444"/><circle cx="333.7" cy="286.0" r="2.5" fill="#ef4444"/><circle cx="354.6" cy="286.0" r="2.5" fill="#ef4444"/><circle cx="375.4" cy="286.0" r="2.5" fill="#ef4444"/><circle cx="396.2" cy="286.0" r="2.5" fill="#ef4444"/><circle cx="417.1" cy="286.0" r="2.5" fill="#ef4444"/><circle cx="437.9" cy="286.0" r="2.5" fill="#ef4444"/><circle cx="458.7" cy="286.0" r="2.5" fill="#ef4444"/><circle cx="479.6" cy="286.0" r="2.5" fill="#ef4444"/><circle cx="500.4" cy="286.0" r="2.5" fill="#ef4444"/><circle cx="521.3" cy="286.0" r="2.5" fill="#ef4444"/><circle cx="542.1" cy="286.0" r="2.5" fill="#ef4444"/><circle cx="562.9" cy="286.0" r="2.5" fill="#ef4444"/><circle cx="583.8" cy="286.0" r="2.5" fill="#ef4444"/><circle cx="604.6" cy="286.0" r="2.5" fill="#ef4444"/><circle cx="625.4" cy="286.0" r="2.5" fill="#ef4444"/><circle cx="646.3" cy="286.0" r="2.5" fill="#ef4444"/><circle cx="667.1" cy="286.0" r="2.5" fill="#ef4444"/><circle cx="688.0" cy="286.0" r="2.5" fill="#ef4444"/><circle cx="708.8" cy="274.0" r="2.5" fill="#ef4444"/><circle cx="729.6" cy="256.0" r="2.5" fill="#ef4444"/><circle cx="750.5" cy="286.0" r="2.5" fill="#ef4444"/><circle cx="771.3" cy="286.0" r="2.5" fill="#ef4444"/><circle cx="792.1" cy="286.0" r="2.5" fill="#ef4444"/><circle cx="813.0" cy="286.0" r="2.5" fill="#ef4444"/><circle cx="833.8" cy="286.0" r="2.5" fill="#ef4444"/><circle cx="854.7" cy="286.0" r="2.5" fill="#ef4444"/><circle cx="875.5" cy="286.0" r="2.5" fill="#ef4444"/><circle cx="896.3" cy="286.0" r="2.5" fill="#ef4444"/><circle cx="917.2" cy="286.0" r="2.5" fill="#ef4444"/><circle cx="938.0" cy="286.0" r="2.5" fill="#ef4444"/><text x="42" y="308" font-size="11" fill="#5a688a">19/06 12:43</text><text x="938" y="308" text-anchor="end" font-size="11" fill="#5a688a">23/06 14:11</text></svg>