<svg xmlns="http://www.w3.org/2000/svg" viewBox="0 0 960 320" width="960" height="320" font-family="Segoe UI, system-ui, -apple-system, Roboto, Helvetica, Arial, sans-serif" role="img" aria-label="Availability history per region"><rect x="0.5" y="0.5" width="959" height="319" rx="14" fill="#0d1117" stroke="#2c3a5e"/><text x="42" y="26" font-size="14" font-weight="600" fill="#e6ecff">History · 190 points</text><circle cx="47" cy="40" r="5" fill="#22c55e"/><text x="57" y="44" font-size="12" fill="#9fb0d4">Available</text><circle cx="139.8" cy="40" r="5" fill="#f59e0b"/><text x="149.8" y="44" font-size="12" fill="#9fb0d4">Saturated</text><circle cx="232.60000000000002" cy="40" r="5" fill="#ef4444"/><text x="242.60000000000002" y="44" font-size="12" fill="#9fb0d4">Error</text><circle cx="296.6" cy="40" r="5" fill="#a855f7"/><text x="306.6" y="44" font-size="12" fill="#9fb0d4">Timeout</text><line x1="42" y1="286.0" x2="938" y2="286.0" stroke="#21304f" stroke-width="1"/><text x="35" y="289.0" text-anchor="end" font-size="11" fill="#9fb0d4">0</text><line x1="42" y1="227.5" x2="938" y2="227.5" stroke="#21304f" stroke-width="1"/><text x="35" y="230.5" text-anchor="end" font-size="11" fill="#9fb0d4">10</text><line x1="42" y1="169.0" x2="938" y2="169.0" stroke="#21304f" stroke-width="1"/><text x="35" y="172.0" text-anchor="end" font-size="11" fill="#9fb0d4">20</text><line x1="42" y1="110.5" x2="938" y2="110.5" stroke="#21304f" stroke-width="1"/><text x="35" y="113.5" text-anchor="end" font-size="11" fill="#9fb0d4">29</text><line x1="42" y1="52.0" x2="938" y2="52.0" stroke="#21304f" stroke-width="1"/><text x="35" y="55.0" text-anchor="end" font-size="11" fill="#9fb0d4">39</text><polyline fill="none" stroke="#22c55e" stroke-width="2.5" stroke-linejoin="round" stroke-linecap="round" points="42.0,70.0 46.7,70.0 51.5,88.0 56.2,88.0 61.0,76.0 65.7,76.0 70.4,76.0 75.2,70.0 79.9,76.0 84.7,70.0 89.4,64.0 94.1,58.0 98.9,58.0 103.6,58.0 108.4,58.0 113.1,58.0 117.9,58.0 122.6,58.0 127.3,58.0 132.1,58.0 136.8,58.0 141.6,58.0 146.3,58.0 151.0,58.0 155.8,58.0 160.5,58.0 165.3,58.0 170.0,58.0 174.7,58.0 179.5,58.0 184.2,58.0 189.0,70.0 193.7,76.0 198.4,94.0 203.2,64.0 207.9,64.0 212.7,58.0 217.4,58.0 222.1,58.0 226.9,70.0 231.6,76.0 236.4,76.0 241.1,82.0 245.9,82.0 250.6,82.0 255.3,82.0 260.1,76.0 264.8,64.0 269.6,70.0 274.3,70.0 279.0,82.0 283.8,76.0 288.5,76.0 293.3,82.0 298.0,76.0 302.7,76.0 307.5,76.0 312.2,64.0 317.0,64.0 321.7,76.0 326.4,76.0 331.2,76.0 335.9,88.0 340.7,70.0 345.4,64.0 350.1,58.0 354.9,58.0 359.6,70.0 364.4,70.0 369.1,70.0 373.9,76.0 378.6,70.0 383.3,70.0 388.1,70.0 392.8,70.0 397.6,76.0 402.3,82.0 407.0,76.0 411.8,70.0 416.5,70.0 421.3,70.0 426.0,70.0 430.7,76.0 435.5,70.0 440.2,70.0 445.0,70.0 449.7,70.0 454.4,70.0 459.2,70.0 463.9,70.0 468.7,70.0 473.4,70.0 478.1,70.0 482.9,70.0 487.6,70.0 492.4,70.0 497.1,70.0 501.9,70.0 506.6,70.0 511.3,70.0 516.1,70.0 520.8,70.0 525.6,70.0 530.3,70.0 535.0,70.0 539.8,70.0 544.5,70.0 549.3,70.0 554.0,70.0 558.7,70.0 563.5,70.0 568.2,70.0 573.0,70.0 577.7,70.0 582.4,70.0 587.2,70.0 591.9,70.0 596.7,70.0 601.4,70.0 606.1,70.0 610.9,70.0 615.6,70.0 620.4,70.0 625.1,70.0 629.9,70.0 634.6,70.0 639.3,70.0 644.1,70.0 648.8,70.0 653.6,70.0 658.3,70.0 663.0,70.0 667.8,70.0 672.5,70.0 677.3,70.0 682.0,70.0 686.7,70.0 691.5,70.0 696.2,70.0 701.0,70.0 705.7,70.0 710.4,70.0 715.2,70.0 719.9,70.0 724.7,70.0 729.4,70.0 734.1,70.0 738.9,70.0 743.6,70.0 748.4,70.0 753.1,70.0 757.9,76.0 762.6,70.0 767.3,70.0 772.1,70.0 776.8,70.0 781.6,70.0 786.3,76.0 791.0,76.0 795.8,88.0 800.5,88.0 805.3,88.0 810.0,94.0 814.7,94.0 819.5,94.0 824.2,94.0 829.0,88.0 833.7,88.0 838.4,82.0 843.2,82.0 847.9,82.0 852.7,88.0 857.4,88.0 862.1,94.0 866.9,82.0 871.6,82.0 876.4,82.0 881.1,82.0 885.9,88.0 890.6,88.0 895.3,94.0 900.1,94.0 904.8,88.0 909.6,88.0 914.3,88.0 919.0,94.0 923.8,94.0 928.5,106.0 933.3,94.0 938.0,94.0"/><polyline fill="none" stroke="#f59e0b" stroke-width="2.5" stroke-linejoin="round" stroke-linecap="round" points="42.0,274.0 46.7,274.0 51.5,274.0 56.2,280.0 61.0,268.0 65.7,268.0 70.4,268.0 75.2,274.0 79.9,274.0 84.7,274.0 89.4,280.0 94.1,286.0 98.9,286.0 103.6,286.0 108.4,286.0 113.1,286.0 117.9,286.0 122.6,286.0 127.3,286.0 132.1,286.0 136.8,286.0 141.6,286.0 146.3,286.0 151.0,286.0 155.8,286.0 160.5,286.0 165.3,286.0 170.0,286.0 174.7,286.0 179.5,286.0 184.2,286.0 189.0,274.0 193.7,280.0 198.4,280.0 203.2,280.0 207.9,280.0 212.7,286.0 217.4,286.0 222.1,286.0 226.9,274.0 231.6,268.0 236.4,268.0 241.1,262.0 245.9,262.0 250.6,262.0 255.3,262.0 260.1,268.0 264.8,280.0 269.6,280.0 274.3,274.0 279.0,262.0 283.8,268.0 288.5,268.0 293.3,262.0 298.0,268.0 302.7,268.0 307.5,268.0 312.2,280.0 317.0,280.0 321.7,268.0 326.4,268.0 331.2,268.0 335.9,262.0 340.7,274.0 345.4,280.0 350.1,286.0 354.9,286.0 359.6,274.0 364.4,274.0 369.1,274.0 373.9,274.0 378.6,274.0 383.3,274.0 388.1,274.0 392.8,274.0 397.6,280.0 402.3,274.0 407.0,280.0 411.8,286.0 416.5,286.0 421.3,286.0 426.0,286.0 430.7,280.0 435.5,286.0 440.2,286.0 445.0,286.0 449.7,286.0 454.4,286.0 459.2,286.0 463.9,286.0 468.7,286.0 473.4,286.0 478.1,286.0 482.9,286.0 487.6,286.0 492.4,286.0 497.1,286.0 501.9,286.0 506.6,286.0 511.3,286.0 516.1,286.0 520.8,286.0 525.6,286.0 530.3,286.0 535.0,286.0 539.8,286.0 544.5,286.0 549.3,286.0 554.0,286.0 558.7,286.0 563.5,286.0 568.2,286.0 573.0,286.0 577.7,286.0 582.4,286.0 587.2,286.0 591.9,286.0 596.7,286.0 601.4,286.0 606.1,286.0 610.9,286.0 615.6,286.0 620.4,286.0 625.1,286.0 629.9,286.0 634.6,286.0 639.3,286.0 644.1,286.0 648.8,286.0 653.6,286.0 658.3,286.0 663.0,286.0 667.8,286.0 672.5,286.0 677.3,286.0 682.0,286.0 686.7,286.0 691.5,286.0 696.2,286.0 701.0,286.0 705.7,286.0 710.4,286.0 715.2,286.0 719.9,286.0 724.7,286.0 729.4,286.0 734.1,286.0 738.9,286.0 743.6,286.0 748.4,286.0 753.1,286.0 757.9,286.0 762.6,286.0 767.3,286.0 772.1,286.0 776.8,286.0 781.6,286.0 786.3,286.0 791.0,280.0 795.8,268.0 800.5,268.0 805.3,268.0 810.0,268.0 814.7,262.0 819.5,262.0 824.2,262.0 829.0,268.0 833.7,268.0 838.4,274.0 843.2,274.0 847.9,274.0 852.7,268.0 857.4,268.0 862.1,268.0 866.9,274.0 871.6,274.0 876.4,274.0 881.1,274.0 885.9,268.0 890.6,268.0 895.3,262.0 900.1,262.0 904.8,268.0 909.6,268.0 914.3,268.0 919.0,262.0 923.8,262.0 928.5,274.0 933.3,262.0 938.0,262.0"/><polyline fill="none" stroke="#ef4444" stroke-width="2.5" stroke-linejoin="round" stroke-linecap="round" points="42.0,280.0 46.7,280.0 51.5,268.0 56.2,262.0 61.0,286.0 65.7,286.0 70.4,286.0 75.2,286.0 79.9,280.0 84.7,286.0 89.4,286.0 94.1,286.0 98.9,286.0 103.6,286.0 108.4,286.0 113.1,286.0 117.9,286.0 122.6,286.0 127.3,286.0 132.1,286.0 136.8,286.0 141.6,286.0 146.3,286.0 151.0,286.0 155.8,286.0 160.5,286.0 165.3,286.0 170.0,286.0 174.7,286.0 179.5,286.0 184.2,286.0 189.0,286.0 193.7,274.0 198.4,256.0 203.2,286.0 207.9,286.0 212.7,286.0 217.4,286.0 222.1,286.0 226.9,286.0 231.6,286.0 236.4,286.0 241.1,286.0 245.9,286.0 250.6,286.0 255.3,286.0 260.1,286.0 264.8,286.0 269.6,280.0 274.3,286.0 279.0,286.0 283.8,286.0 288.5,286.0 293.3,286.0 298.0,286.0 302.7,286.0 307.5,286.0 312.2,286.0 317.0,286.0 321.7,286.0 326.4,286.0 331.2,286.0 335.9,280.0 340.7,286.0 345.4,286.0 350.1,286.0 354.9,286.0 359.6,286.0 364.4,286.0 369.1,286.0 373.9,286.0 378.6,286.0 383.3,286.0 388.1,286.0 392.8,286.0 397.6,274.0 402.3,274.0 407.0,274.0 411.8,274.0 416.5,274.0 421.3,274.0 426.0,274.0 430.7,274.0 435.5,274.0 440.2,274.0 445.0,274.0 449.7,274.0 454.4,274.0 459.2,274.0 463.9,274.0 468.7,274.0 473.4,274.0 478.1,274.0 482.9,274.0 487.6,274.0 492.4,274.0 497.1,274.0 501.9,274.0 506.6,274.0 511.3,274.0 516.1,274.0 520.8,274.0 525.6,274.0 530.3,274.0 535.0,274.0 539.8,274.0 544.5,274.0 549.3,274.0 554.0,274.0 558.7,274.0 563.5,274.0 568.2,274.0 573.0,274.0 577.7,274.0 582.4,274.0 587.2,274.0 591.9,274.0 596.7,274.0 601.4,274.0 606.1,274.0 610.9,274.0 615.6,274.0 620.4,274.0 625.1,274.0 629.9,274.0 634.6,274.0 639.3,274.0 644.1,274.0 648.8,274.0 653.6,274.0 658.3,274.0 663.0,274.0 667.8,274.0 672.5,274.0 677.3,274.0 682.0,274.0 686.7,274.0 691.5,274.0 696.2,274.0 701.0,274.0 705.7,274.0 710.4,274.0 715.2,274.0 719.9,274.0 724.7,274.0 729.4,274.0 734.1,274.0 738.9,274.0 743.6,274.0 748.4,274.0 753.1,274.0 757.9,268.0 762.6,274.0 767.3,274.0 772.1,274.0 776.8,274.0 781.6,274.0 786.3,274.0 791.0,274.0 795.8,274.0 800.5,274.0 805.3,274.0 810.0,268.0 814.7,274.0 819.5,274.0 824.2,274.0 829.0,274.0 833.7,274.0 838.4,274.0 843.2,274.0 847.9,274.0 852.7,274.0 857.4,274.0 862.1,268.0 866.9,274.0 871.6,274.0 876.4,274.0 881.1,274.0 885.9,274.0 890.6,274.0 895.3,274.0 900.1,274.0 904.8,274.0 909.6,274.0 914.3,274.0 919.0,274.0 923.8,274.0 928.5,250.0 933.3,274.0 938.0,274.0"/><polyline fill="none" stroke="#a855f7" stroke-width="2.5" stroke-linejoin="round" stroke-linecap="round" points="42.0,286.0 46.7,286.0 51.5,286.0 56.2,286.0 61.0,286.0 65.7,286.0 70.4,286.0 75.2,286.0 79.9,286.0 84.7,286.0 89.4,286.0 94.1,286.0 98.9,286.0 103.6,286.0 108.4,286.0 113.1,286.0 117.9,286.0 122.6,286.0 127.3,286.0 132.1,286.0 136.8,286.0 141.6,286.0 146.3,286.0 151.0,286.0 155.8,286.0 160.5,286.0 165.3,286.0 170.0,286.0 174.7,286.0 179.5,286.0 184.2,286.0 189.0,286.0 193.7,286.0 198.4,286.0 203.2,286.0 207.9,286.0 212.7,286.0 217.4,286.0 222.1,286.0 226.9,286.0 231.6,286.0 236.4,286.0 241.1,286.0 245.9,286.0 250.6,286.0 255.3,286.0 260.1,286.0 264.8,286.0 269.6,286.0 274.3,286.0 279.0,286.0 283.8,286.0 288.5,286.0 293.3,286.0 298.0,286.0 302.7,286.0 307.5,286.0 312.2,286.0 317.0,286.0 321.7,286.0 326.4,286.0 331.2,286.0 335.9,286.0 340.7,286.0 345.4,286.0 350.1,286.0 354.9,286.0 359.6,286.0 364.4,286.0 369.1,286.0 373.9,280.0 378.6,286.0 383.3,286.0 388.1,286.0 392.8,286.0 397.6,286.0 402.3,286.0 407.0,286.0 411.8,286.0 416.5,286.0 421.3,286.0 426.0,286.0 430.7,286.0 435.5,286.0 440.2,286.0 445.0,286.0 449.7,286.0 454.4,286.0 459.2,286.0 463.9,286.0 468.7,286.0 473.4,286.0 478.1,286.0 482.9,286.0 487.6,286.0 492.4,286.0 497.1,286.0 501.9,286.0 506.6,286.0 511.3,286.0 516.1,286.0 520.8,286.0 525.6,286.0 530.3,286.0 535.0,286.0 539.8,286.0 544.5,286.0 549.3,286.0 554.0,286.0 558.7,286.0 563.5,286.0 568.2,286.0 573.0,286.0 577.7,286.0 582.4,286.0 587.2,286.0 591.9,286.0 596.7,286.0 601.4,286.0 606.1,286.0 610.9,286.0 615.6,286.0 620.4,286.0 625.1,286.0 629.9,286.0 634.6,286.0 639.3,286.0 644.1,286.0 648.8,286.0 653.6,286.0 658.3,286.0 663.0,286.0 667.8,286.0 672.5,286.0 677.3,286.0 682.0,286.0 686.7,286.0 691.5,286.0 696.2,286.0 701.0,286.0 705.7,286.0 710.4,286.0 715.2,286.0 719.9,286.0 724.7,286.0 729.4,286.0 734.1,286.0 738.9,286.0 743.6,286.0 748.4,286.0 753.1,286.0 757.9,286.0 762.6,286.0 767.3,286.0 772.1,286.0 776.8,286.0 781.6,286.0 786.3,280.0 791.0,286.0 795.8,286.0 800.5,286.0 805.3,286.0 810.0,286.0 814.7,286.0 819.5,286.0 824.2,286.0 829.0,286.0 833.7,286.0 838.4,286.0 843.2,286.0 847.9,286.0 852.7,286.0 857.4,286.0 862.1,286.0 866.9,286.0 871.6,286.0 876.4,286.0 881.1,286.0 885.9,286.0 890.6,286.0 895.3,286.0 900.1,286.0 904.8,286.0 909.6,286.0 914.3,286.0 919.0,286.0 923.8,286.0 928.5,286.0 933.3,286.0 938.0,286.0"/><text x="42" y="308" font-size="11" fill="#9fb0d4">19/06 12:43</text><text x="938" y="308" text-anchor="end" font-size="11" fill="#9fb0d4">30/06 16:29</text></svg>