<svg xmlns="http://www.w3.org/2000/svg" viewBox="0 0 960 320" width="960" height="320" font-family="Segoe UI, system-ui, -apple-system, Roboto, Helvetica, Arial, sans-serif" role="img" aria-label="Availability history per region"><rect x="0.5" y="0.5" width="959" height="319" rx="14" fill="#ffffff" stroke="#dce3f1"/><text x="42" y="26" font-size="14" font-weight="600" fill="#14203a">History · 78 points</text><circle cx="47" cy="40" r="5" fill="#22c55e"/><text x="57" y="44" font-size="12" fill="#5a688a">Available</text><circle cx="139.8" cy="40" r="5" fill="#f59e0b"/><text x="149.8" y="44" font-size="12" fill="#5a688a">Saturated</text><circle cx="232.60000000000002" cy="40" r="5" fill="#ef4444"/><text x="242.60000000000002" y="44" font-size="12" fill="#5a688a">Error</text><circle cx="296.6" cy="40" r="5" fill="#a855f7"/><text x="306.6" y="44" font-size="12" fill="#5a688a">Timeout</text><line x1="42" y1="286.0" x2="938" y2="286.0" stroke="#eef2f7" stroke-width="1"/><text x="35" y="289.0" text-anchor="end" font-size="11" fill="#5a688a">0</text><line x1="42" y1="227.5" x2="938" y2="227.5" stroke="#eef2f7" stroke-width="1"/><text x="35" y="230.5" text-anchor="end" font-size="11" fill="#5a688a">10</text><line x1="42" y1="169.0" x2="938" y2="169.0" stroke="#eef2f7" stroke-width="1"/><text x="35" y="172.0" text-anchor="end" font-size="11" fill="#5a688a">19</text><line x1="42" y1="110.5" x2="938" y2="110.5" stroke="#eef2f7" stroke-width="1"/><text x="35" y="113.5" text-anchor="end" font-size="11" fill="#5a688a">28</text><line x1="42" y1="52.0" x2="938" y2="52.0" stroke="#eef2f7" stroke-width="1"/><text x="35" y="55.0" text-anchor="end" font-size="11" fill="#5a688a">38</text><polyline fill="none" stroke="#22c55e" stroke-width="2.5" stroke-linejoin="round" stroke-linecap="round" points="42.0,64.3 53.6,224.4 65.3,82.8 76.9,88.9 88.5,82.8 100.2,76.6 111.8,76.6 123.5,76.6 135.1,76.6 146.7,76.6 158.4,76.6 170.0,76.6 181.6,76.6 193.3,76.6 204.9,76.6 216.5,70.5 228.2,70.5 239.8,82.8 251.5,82.8 263.1,82.8 274.7,88.9 286.4,88.9 298.0,88.9 309.6,88.9 321.3,88.9 332.9,88.9 344.5,88.9 356.2,88.9 367.8,88.9 379.5,82.8 391.1,82.8 402.7,82.8 414.4,82.8 426.0,76.6 437.6,76.6 449.3,76.6 460.9,76.6 472.5,76.6 484.2,82.8 495.8,82.8 507.5,82.8 519.1,82.8 530.7,76.6 542.4,76.6 554.0,76.6 565.6,76.6 577.3,76.6 588.9,76.6 600.5,76.6 612.2,82.8 623.8,82.8 635.5,82.8 647.1,82.8 658.7,76.6 670.4,76.6 682.0,76.6 693.6,76.6 705.3,76.6 716.9,76.6 728.5,76.6 740.2,76.6 751.8,82.8 763.5,76.6 775.1,76.6 786.7,76.6 798.4,76.6 810.0,76.6 821.6,82.8 833.3,76.6 844.9,76.6 856.5,76.6 868.2,76.6 879.8,76.6 891.5,76.6 903.1,76.6 914.7,76.6 926.4,76.6 938.0,70.5"/><polyline fill="none" stroke="#f59e0b" stroke-width="2.5" stroke-linejoin="round" stroke-linecap="round" points="42.0,273.7 53.6,267.5 65.3,255.2 76.9,249.1 88.5,255.2 100.2,261.4 111.8,261.4 123.5,261.4 135.1,261.4 146.7,261.4 158.4,261.4 170.0,261.4 181.6,261.4 193.3,261.4 204.9,261.4 216.5,267.5 228.2,267.5 239.8,261.4 251.5,255.2 263.1,255.2 274.7,249.1 286.4,249.1 298.0,249.1 309.6,249.1 321.3,249.1 332.9,249.1 344.5,249.1 356.2,249.1 367.8,249.1 379.5,255.2 391.1,255.2 402.7,255.2 414.4,255.2 426.0,261.4 437.6,261.4 449.3,261.4 460.9,261.4 472.5,261.4 484.2,255.2 495.8,255.2 507.5,255.2 519.1,255.2 530.7,261.4 542.4,261.4 554.0,261.4 565.6,261.4 577.3,261.4 588.9,261.4 600.5,261.4 612.2,255.2 623.8,255.2 635.5,255.2 647.1,261.4 658.7,261.4 670.4,261.4 682.0,261.4 693.6,261.4 705.3,261.4 716.9,261.4 728.5,261.4 740.2,261.4 751.8,255.2 763.5,261.4 775.1,261.4 786.7,261.4 798.4,261.4 810.0,261.4 821.6,261.4 833.3,261.4 844.9,261.4 856.5,261.4 868.2,261.4 879.8,261.4 891.5,261.4 903.1,261.4 914.7,261.4 926.4,261.4 938.0,267.5"/><polyline fill="none" stroke="#ef4444" stroke-width="2.5" stroke-linejoin="round" stroke-linecap="round" points="42.0,286.0 53.6,132.1 65.3,286.0 76.9,286.0 88.5,286.0 100.2,286.0 111.8,286.0 123.5,286.0 135.1,286.0 146.7,286.0 158.4,286.0 170.0,286.0 181.6,286.0 193.3,286.0 204.9,286.0 216.5,286.0 228.2,286.0 239.8,279.8 251.5,286.0 263.1,286.0 274.7,286.0 286.4,286.0 298.0,286.0 309.6,286.0 321.3,286.0 332.9,286.0 344.5,286.0 356.2,286.0 367.8,286.0 379.5,286.0 391.1,286.0 402.7,286.0 414.4,286.0 426.0,286.0 437.6,286.0 449.3,286.0 460.9,286.0 472.5,286.0 484.2,286.0 495.8,286.0 507.5,286.0 519.1,286.0 530.7,286.0 542.4,286.0 554.0,286.0 565.6,286.0 577.3,286.0 588.9,286.0 600.5,286.0 612.2,286.0 623.8,286.0 635.5,286.0 647.1,286.0 658.7,286.0 670.4,286.0 682.0,286.0 693.6,286.0 705.3,286.0 716.9,286.0 728.5,286.0 740.2,286.0 751.8,286.0 763.5,286.0 775.1,286.0 786.7,286.0 798.4,286.0 810.0,286.0 821.6,279.8 833.3,286.0 844.9,286.0 856.5,286.0 868.2,286.0 879.8,286.0 891.5,286.0 903.1,286.0 914.7,286.0 926.4,286.0 938.0,286.0"/><polyline fill="none" stroke="#a855f7" stroke-width="2.5" stroke-linejoin="round" stroke-linecap="round" points="42.0,286.0 53.6,286.0 65.3,286.0 76.9,286.0 88.5,286.0 100.2,286.0 111.8,286.0 123.5,286.0 135.1,286.0 146.7,286.0 158.4,286.0 170.0,286.0 181.6,286.0 193.3,286.0 204.9,286.0 216.5,286.0 228.2,286.0 239.8,286.0 251.5,286.0 263.1,286.0 274.7,286.0 286.4,286.0 298.0,286.0 309.6,286.0 321.3,286.0 332.9,286.0 344.5,286.0 356.2,286.0 367.8,286.0 379.5,286.0 391.1,286.0 402.7,286.0 414.4,286.0 426.0,286.0 437.6,286.0 449.3,286.0 460.9,286.0 472.5,286.0 484.2,286.0 495.8,286.0 507.5,286.0 519.1,286.0 530.7,286.0 542.4,286.0 554.0,286.0 565.6,286.0 577.3,286.0 588.9,286.0 600.5,286.0 612.2,286.0 623.8,286.0 635.5,286.0 647.1,279.8 658.7,286.0 670.4,286.0 682.0,286.0 693.6,286.0 705.3,286.0 716.9,286.0 728.5,286.0 740.2,286.0 751.8,286.0 763.5,286.0 775.1,286.0 786.7,286.0 798.4,286.0 810.0,286.0 821.6,286.0 833.3,286.0 844.9,286.0 856.5,286.0 868.2,286.0 879.8,286.0 891.5,286.0 903.1,286.0 914.7,286.0 926.4,286.0 938.0,286.0"/><text x="42" y="308" font-size="11" fill="#5a688a">19/06 15:39</text><text x="938" y="308" text-anchor="end" font-size="11" fill="#5a688a">19/07 19:30</text></svg>