<svg xmlns="http://www.w3.org/2000/svg" viewBox="0 0 960 320" width="960" height="320" font-family="Segoe UI, system-ui, -apple-system, Roboto, Helvetica, Arial, sans-serif" role="img" aria-label="Availability history per region"><rect x="0.5" y="0.5" width="959" height="319" rx="14" fill="#ffffff" stroke="#dce3f1"/><text x="42" y="26" font-size="14" font-weight="600" fill="#14203a">History · 17 points</text><circle cx="47" cy="40" r="5" fill="#22c55e"/><text x="57" y="44" font-size="12" fill="#5a688a">Available</text><circle cx="139.8" cy="40" r="5" fill="#f59e0b"/><text x="149.8" y="44" font-size="12" fill="#5a688a">Saturated</text><circle cx="232.60000000000002" cy="40" r="5" fill="#ef4444"/><text x="242.60000000000002" y="44" font-size="12" fill="#5a688a">Error</text><line x1="42" y1="286.0" x2="938" y2="286.0" stroke="#eef2f7" stroke-width="1"/><text x="35" y="289.0" text-anchor="end" font-size="11" fill="#5a688a">0</text><line x1="42" y1="227.5" x2="938" y2="227.5" stroke="#eef2f7" stroke-width="1"/><text x="35" y="230.5" text-anchor="end" font-size="11" fill="#5a688a">10</text><line x1="42" y1="169.0" x2="938" y2="169.0" stroke="#eef2f7" stroke-width="1"/><text x="35" y="172.0" text-anchor="end" font-size="11" fill="#5a688a">19</text><line x1="42" y1="110.5" x2="938" y2="110.5" stroke="#eef2f7" stroke-width="1"/><text x="35" y="113.5" text-anchor="end" font-size="11" fill="#5a688a">28</text><line x1="42" y1="52.0" x2="938" y2="52.0" stroke="#eef2f7" stroke-width="1"/><text x="35" y="55.0" text-anchor="end" font-size="11" fill="#5a688a">38</text><polyline fill="none" stroke="#22c55e" stroke-width="2.5" stroke-linejoin="round" stroke-linecap="round" points="42.0,64.3 98.0,224.4 154.0,82.8 210.0,88.9 266.0,82.8 322.0,76.6 378.0,76.6 434.0,76.6 490.0,76.6 546.0,76.6 602.0,76.6 658.0,76.6 714.0,76.6 770.0,76.6 826.0,76.6 882.0,70.5 938.0,70.5"/><circle cx="42.0" cy="64.3" r="2.5" fill="#22c55e"/><circle cx="98.0" cy="224.4" r="2.5" fill="#22c55e"/><circle cx="154.0" cy="82.8" r="2.5" fill="#22c55e"/><circle cx="210.0" cy="88.9" r="2.5" fill="#22c55e"/><circle cx="266.0" cy="82.8" r="2.5" fill="#22c55e"/><circle cx="322.0" cy="76.6" r="2.5" fill="#22c55e"/><circle cx="378.0" cy="76.6" r="2.5" fill="#22c55e"/><circle cx="434.0" cy="76.6" r="2.5" fill="#22c55e"/><circle cx="490.0" cy="76.6" r="2.5" fill="#22c55e"/><circle cx="546.0" cy="76.6" r="2.5" fill="#22c55e"/><circle cx="602.0" cy="76.6" r="2.5" fill="#22c55e"/><circle cx="658.0" cy="76.6" r="2.5" fill="#22c55e"/><circle cx="714.0" cy="76.6" r="2.5" fill="#22c55e"/><circle cx="770.0" cy="76.6" r="2.5" fill="#22c55e"/><circle cx="826.0" cy="76.6" r="2.5" fill="#22c55e"/><circle cx="882.0" cy="70.5" r="2.5" fill="#22c55e"/><circle cx="938.0" cy="70.5" r="2.5" fill="#22c55e"/><polyline fill="none" stroke="#f59e0b" stroke-width="2.5" stroke-linejoin="round" stroke-linecap="round" points="42.0,273.7 98.0,267.5 154.0,255.2 210.0,249.1 266.0,255.2 322.0,261.4 378.0,261.4 434.0,261.4 490.0,261.4 546.0,261.4 602.0,261.4 658.0,261.4 714.0,261.4 770.0,261.4 826.0,261.4 882.0,267.5 938.0,267.5"/><circle cx="42.0" cy="273.7" r="2.5" fill="#f59e0b"/><circle cx="98.0" cy="267.5" r="2.5" fill="#f59e0b"/><circle cx="154.0" cy="255.2" r="2.5" fill="#f59e0b"/><circle cx="210.0" cy="249.1" r="2.5" fill="#f59e0b"/><circle cx="266.0" cy="255.2" r="2.5" fill="#f59e0b"/><circle cx="322.0" cy="261.4" r="2.5" fill="#f59e0b"/><circle cx="378.0" cy="261.4" r="2.5" fill="#f59e0b"/><circle cx="434.0" cy="261.4" r="2.5" fill="#f59e0b"/><circle cx="490.0" cy="261.4" r="2.5" fill="#f59e0b"/><circle cx="546.0" cy="261.4" r="2.5" fill="#f59e0b"/><circle cx="602.0" cy="261.4" r="2.5" fill="#f59e0b"/><circle cx="658.0" cy="261.4" r="2.5" fill="#f59e0b"/><circle cx="714.0" cy="261.4" r="2.5" fill="#f59e0b"/><circle cx="770.0" cy="261.4" r="2.5" fill="#f59e0b"/><circle cx="826.0" cy="261.4" r="2.5" fill="#f59e0b"/><circle cx="882.0" cy="267.5" r="2.5" fill="#f59e0b"/><circle cx="938.0" cy="267.5" r="2.5" fill="#f59e0b"/><polyline fill="none" stroke="#ef4444" stroke-width="2.5" stroke-linejoin="round" stroke-linecap="round" points="42.0,286.0 98.0,132.1 154.0,286.0 210.0,286.0 266.0,286.0 322.0,286.0 378.0,286.0 434.0,286.0 490.0,286.0 546.0,286.0 602.0,286.0 658.0,286.0 714.0,286.0 770.0,286.0 826.0,286.0 882.0,286.0 938.0,286.0"/><circle cx="42.0" cy="286.0" r="2.5" fill="#ef4444"/><circle cx="98.0" cy="132.1" r="2.5" fill="#ef4444"/><circle cx="154.0" cy="286.0" r="2.5" fill="#ef4444"/><circle cx="210.0" cy="286.0" r="2.5" fill="#ef4444"/><circle cx="266.0" cy="286.0" r="2.5" fill="#ef4444"/><circle cx="322.0" cy="286.0" r="2.5" fill="#ef4444"/><circle cx="378.0" cy="286.0" r="2.5" fill="#ef4444"/><circle cx="434.0" cy="286.0" r="2.5" fill="#ef4444"/><circle cx="490.0" cy="286.0" r="2.5" fill="#ef4444"/><circle cx="546.0" cy="286.0" r="2.5" fill="#ef4444"/><circle cx="602.0" cy="286.0" r="2.5" fill="#ef4444"/><circle cx="658.0" cy="286.0" r="2.5" fill="#ef4444"/><circle cx="714.0" cy="286.0" r="2.5" fill="#ef4444"/><circle cx="770.0" cy="286.0" r="2.5" fill="#ef4444"/><circle cx="826.0" cy="286.0" r="2.5" fill="#ef4444"/><circle cx="882.0" cy="286.0" r="2.5" fill="#ef4444"/><circle cx="938.0" cy="286.0" r="2.5" fill="#ef4444"/><text x="42" y="308" font-size="11" fill="#5a688a">19/06 15:39</text><text x="938" y="308" text-anchor="end" font-size="11" fill="#5a688a">17/07 06:34</text></svg>