<svg xmlns="http://www.w3.org/2000/svg" viewBox="0 0 960 320" width="960" height="320" font-family="Segoe UI, system-ui, -apple-system, Roboto, Helvetica, Arial, sans-serif" role="img" aria-label="Availability history per region"><rect x="0.5" y="0.5" width="959" height="319" rx="14" fill="#ffffff" stroke="#dce3f1"/><text x="42" y="26" font-size="14" font-weight="600" fill="#14203a">History · 59 points</text><circle cx="47" cy="40" r="5" fill="#22c55e"/><text x="57" y="44" font-size="12" fill="#5a688a">Available</text><circle cx="139.8" cy="40" r="5" fill="#f59e0b"/><text x="149.8" y="44" font-size="12" fill="#5a688a">Saturated</text><circle cx="232.60000000000002" cy="40" r="5" fill="#ef4444"/><text x="242.60000000000002" y="44" font-size="12" fill="#5a688a">Error</text><circle cx="296.6" cy="40" r="5" fill="#a855f7"/><text x="306.6" y="44" font-size="12" fill="#5a688a">Timeout</text><line x1="42" y1="286.0" x2="938" y2="286.0" stroke="#eef2f7" stroke-width="1"/><text x="35" y="289.0" text-anchor="end" font-size="11" fill="#5a688a">0</text><line x1="42" y1="227.5" x2="938" y2="227.5" stroke="#eef2f7" stroke-width="1"/><text x="35" y="230.5" text-anchor="end" font-size="11" fill="#5a688a">10</text><line x1="42" y1="169.0" x2="938" y2="169.0" stroke="#eef2f7" stroke-width="1"/><text x="35" y="172.0" text-anchor="end" font-size="11" fill="#5a688a">19</text><line x1="42" y1="110.5" x2="938" y2="110.5" stroke="#eef2f7" stroke-width="1"/><text x="35" y="113.5" text-anchor="end" font-size="11" fill="#5a688a">28</text><line x1="42" y1="52.0" x2="938" y2="52.0" stroke="#eef2f7" stroke-width="1"/><text x="35" y="55.0" text-anchor="end" font-size="11" fill="#5a688a">38</text><polyline fill="none" stroke="#22c55e" stroke-width="2.5" stroke-linejoin="round" stroke-linecap="round" points="42.0,64.3 57.4,224.4 72.9,82.8 88.3,88.9 103.8,82.8 119.2,76.6 134.7,76.6 150.1,76.6 165.6,76.6 181.0,76.6 196.5,76.6 211.9,76.6 227.4,76.6 242.8,76.6 258.3,76.6 273.7,70.5 289.2,70.5 304.6,82.8 320.1,82.8 335.5,82.8 351.0,88.9 366.4,88.9 381.9,88.9 397.3,88.9 412.8,88.9 428.2,88.9 443.7,88.9 459.1,88.9 474.6,88.9 490.0,82.8 505.4,82.8 520.9,82.8 536.3,82.8 551.8,76.6 567.2,76.6 582.7,76.6 598.1,76.6 613.6,76.6 629.0,82.8 644.5,82.8 659.9,82.8 675.4,82.8 690.8,76.6 706.3,76.6 721.7,76.6 737.2,76.6 752.6,76.6 768.1,76.6 783.5,76.6 799.0,82.8 814.4,82.8 829.9,82.8 845.3,82.8 860.8,76.6 876.2,76.6 891.7,76.6 907.1,76.6 922.6,76.6 938.0,76.6"/><circle cx="42.0" cy="64.3" r="2.5" fill="#22c55e"/><circle cx="57.4" cy="224.4" r="2.5" fill="#22c55e"/><circle cx="72.9" cy="82.8" r="2.5" fill="#22c55e"/><circle cx="88.3" cy="88.9" r="2.5" fill="#22c55e"/><circle cx="103.8" cy="82.8" r="2.5" fill="#22c55e"/><circle cx="119.2" cy="76.6" r="2.5" fill="#22c55e"/><circle cx="134.7" cy="76.6" r="2.5" fill="#22c55e"/><circle cx="150.1" cy="76.6" r="2.5" fill="#22c55e"/><circle cx="165.6" cy="76.6" r="2.5" fill="#22c55e"/><circle cx="181.0" cy="76.6" r="2.5" fill="#22c55e"/><circle cx="196.5" cy="76.6" r="2.5" fill="#22c55e"/><circle cx="211.9" cy="76.6" r="2.5" fill="#22c55e"/><circle cx="227.4" cy="76.6" r="2.5" fill="#22c55e"/><circle cx="242.8" cy="76.6" r="2.5" fill="#22c55e"/><circle cx="258.3" cy="76.6" r="2.5" fill="#22c55e"/><circle cx="273.7" cy="70.5" r="2.5" fill="#22c55e"/><circle cx="289.2" cy="70.5" r="2.5" fill="#22c55e"/><circle cx="304.6" cy="82.8" r="2.5" fill="#22c55e"/><circle cx="320.1" cy="82.8" r="2.5" fill="#22c55e"/><circle cx="335.5" cy="82.8" r="2.5" fill="#22c55e"/><circle cx="351.0" cy="88.9" r="2.5" fill="#22c55e"/><circle cx="366.4" cy="88.9" r="2.5" fill="#22c55e"/><circle cx="381.9" cy="88.9" r="2.5" fill="#22c55e"/><circle cx="397.3" cy="88.9" r="2.5" fill="#22c55e"/><circle cx="412.8" cy="88.9" r="2.5" fill="#22c55e"/><circle cx="428.2" cy="88.9" r="2.5" fill="#22c55e"/><circle cx="443.7" cy="88.9" r="2.5" fill="#22c55e"/><circle cx="459.1" cy="88.9" r="2.5" fill="#22c55e"/><circle cx="474.6" cy="88.9" r="2.5" fill="#22c55e"/><circle cx="490.0" cy="82.8" r="2.5" fill="#22c55e"/><circle cx="505.4" cy="82.8" r="2.5" fill="#22c55e"/><circle cx="520.9" cy="82.8" r="2.5" fill="#22c55e"/><circle cx="536.3" cy="82.8" r="2.5" fill="#22c55e"/><circle cx="551.8" cy="76.6" r="2.5" fill="#22c55e"/><circle cx="567.2" cy="76.6" r="2.5" fill="#22c55e"/><circle cx="582.7" cy="76.6" r="2.5" fill="#22c55e"/><circle cx="598.1" cy="76.6" r="2.5" fill="#22c55e"/><circle cx="613.6" cy="76.6" r="2.5" fill="#22c55e"/><circle cx="629.0" cy="82.8" r="2.5" fill="#22c55e"/><circle cx="644.5" cy="82.8" r="2.5" fill="#22c55e"/><circle cx="659.9" cy="82.8" r="2.5" fill="#22c55e"/><circle cx="675.4" cy="82.8" r="2.5" fill="#22c55e"/><circle cx="690.8" cy="76.6" r="2.5" fill="#22c55e"/><circle cx="706.3" cy="76.6" r="2.5" fill="#22c55e"/><circle cx="721.7" cy="76.6" r="2.5" fill="#22c55e"/><circle cx="737.2" cy="76.6" r="2.5" fill="#22c55e"/><circle cx="752.6" cy="76.6" r="2.5" fill="#22c55e"/><circle cx="768.1" cy="76.6" r="2.5" fill="#22c55e"/><circle cx="783.5" cy="76.6" r="2.5" fill="#22c55e"/><circle cx="799.0" cy="82.8" r="2.5" fill="#22c55e"/><circle cx="814.4" cy="82.8" r="2.5" fill="#22c55e"/><circle cx="829.9" cy="82.8" r="2.5" fill="#22c55e"/><circle cx="845.3" cy="82.8" r="2.5" fill="#22c55e"/><circle cx="860.8" cy="76.6" r="2.5" fill="#22c55e"/><circle cx="876.2" cy="76.6" r="2.5" fill="#22c55e"/><circle cx="891.7" cy="76.6" r="2.5" fill="#22c55e"/><circle cx="907.1" cy="76.6" r="2.5" fill="#22c55e"/><circle cx="922.6" cy="76.6" r="2.5" fill="#22c55e"/><circle cx="938.0" cy="76.6" r="2.5" fill="#22c55e"/><polyline fill="none" stroke="#f59e0b" stroke-width="2.5" stroke-linejoin="round" stroke-linecap="round" points="42.0,273.7 57.4,267.5 72.9,255.2 88.3,249.1 103.8,255.2 119.2,261.4 134.7,261.4 150.1,261.4 165.6,261.4 181.0,261.4 196.5,261.4 211.9,261.4 227.4,261.4 242.8,261.4 258.3,261.4 273.7,267.5 289.2,267.5 304.6,261.4 320.1,255.2 335.5,255.2 351.0,249.1 366.4,249.1 381.9,249.1 397.3,249.1 412.8,249.1 428.2,249.1 443.7,249.1 459.1,249.1 474.6,249.1 490.0,255.2 505.4,255.2 520.9,255.2 536.3,255.2 551.8,261.4 567.2,261.4 582.7,261.4 598.1,261.4 613.6,261.4 629.0,255.2 644.5,255.2 659.9,255.2 675.4,255.2 690.8,261.4 706.3,261.4 721.7,261.4 737.2,261.4 752.6,261.4 768.1,261.4 783.5,261.4 799.0,255.2 814.4,255.2 829.9,255.2 845.3,261.4 860.8,261.4 876.2,261.4 891.7,261.4 907.1,261.4 922.6,261.4 938.0,261.4"/><circle cx="42.0" cy="273.7" r="2.5" fill="#f59e0b"/><circle cx="57.4" cy="267.5" r="2.5" fill="#f59e0b"/><circle cx="72.9" cy="255.2" r="2.5" fill="#f59e0b"/><circle cx="88.3" cy="249.1" r="2.5" fill="#f59e0b"/><circle cx="103.8" cy="255.2" r="2.5" fill="#f59e0b"/><circle cx="119.2" cy="261.4" r="2.5" fill="#f59e0b"/><circle cx="134.7" cy="261.4" r="2.5" fill="#f59e0b"/><circle cx="150.1" cy="261.4" r="2.5" fill="#f59e0b"/><circle cx="165.6" cy="261.4" r="2.5" fill="#f59e0b"/><circle cx="181.0" cy="261.4" r="2.5" fill="#f59e0b"/><circle cx="196.5" cy="261.4" r="2.5" fill="#f59e0b"/><circle cx="211.9" cy="261.4" r="2.5" fill="#f59e0b"/><circle cx="227.4" cy="261.4" r="2.5" fill="#f59e0b"/><circle cx="242.8" cy="261.4" r="2.5" fill="#f59e0b"/><circle cx="258.3" cy="261.4" r="2.5" fill="#f59e0b"/><circle cx="273.7" cy="267.5" r="2.5" fill="#f59e0b"/><circle cx="289.2" cy="267.5" r="2.5" fill="#f59e0b"/><circle cx="304.6" cy="261.4" r="2.5" fill="#f59e0b"/><circle cx="320.1" cy="255.2" r="2.5" fill="#f59e0b"/><circle cx="335.5" cy="255.2" r="2.5" fill="#f59e0b"/><circle cx="351.0" cy="249.1" r="2.5" fill="#f59e0b"/><circle cx="366.4" cy="249.1" r="2.5" fill="#f59e0b"/><circle cx="381.9" cy="249.1" r="2.5" fill="#f59e0b"/><circle cx="397.3" cy="249.1" r="2.5" fill="#f59e0b"/><circle cx="412.8" cy="249.1" r="2.5" fill="#f59e0b"/><circle cx="428.2" cy="249.1" r="2.5" fill="#f59e0b"/><circle cx="443.7" cy="249.1" r="2.5" fill="#f59e0b"/><circle cx="459.1" cy="249.1" r="2.5" fill="#f59e0b"/><circle cx="474.6" cy="249.1" r="2.5" fill="#f59e0b"/><circle cx="490.0" cy="255.2" r="2.5" fill="#f59e0b"/><circle cx="505.4" cy="255.2" r="2.5" fill="#f59e0b"/><circle cx="520.9" cy="255.2" r="2.5" fill="#f59e0b"/><circle cx="536.3" cy="255.2" r="2.5" fill="#f59e0b"/><circle cx="551.8" cy="261.4" r="2.5" fill="#f59e0b"/><circle cx="567.2" cy="261.4" r="2.5" fill="#f59e0b"/><circle cx="582.7" cy="261.4" r="2.5" fill="#f59e0b"/><circle cx="598.1" cy="261.4" r="2.5" fill="#f59e0b"/><circle cx="613.6" cy="261.4" r="2.5" fill="#f59e0b"/><circle cx="629.0" cy="255.2" r="2.5" fill="#f59e0b"/><circle cx="644.5" cy="255.2" r="2.5" fill="#f59e0b"/><circle cx="659.9" cy="255.2" r="2.5" fill="#f59e0b"/><circle cx="675.4" cy="255.2" r="2.5" fill="#f59e0b"/><circle cx="690.8" cy="261.4" r="2.5" fill="#f59e0b"/><circle cx="706.3" cy="261.4" r="2.5" fill="#f59e0b"/><circle cx="721.7" cy="261.4" r="2.5" fill="#f59e0b"/><circle cx="737.2" cy="261.4" r="2.5" fill="#f59e0b"/><circle cx="752.6" cy="261.4" r="2.5" fill="#f59e0b"/><circle cx="768.1" cy="261.4" r="2.5" fill="#f59e0b"/><circle cx="783.5" cy="261.4" r="2.5" fill="#f59e0b"/><circle cx="799.0" cy="255.2" r="2.5" fill="#f59e0b"/><circle cx="814.4" cy="255.2" r="2.5" fill="#f59e0b"/><circle cx="829.9" cy="255.2" r="2.5" fill="#f59e0b"/><circle cx="845.3" cy="261.4" r="2.5" fill="#f59e0b"/><circle cx="860.8" cy="261.4" r="2.5" fill="#f59e0b"/><circle cx="876.2" cy="261.4" r="2.5" fill="#f59e0b"/><circle cx="891.7" cy="261.4" r="2.5" fill="#f59e0b"/><circle cx="907.1" cy="261.4" r="2.5" fill="#f59e0b"/><circle cx="922.6" cy="261.4" r="2.5" fill="#f59e0b"/><circle cx="938.0" cy="261.4" r="2.5" fill="#f59e0b"/><polyline fill="none" stroke="#ef4444" stroke-width="2.5" stroke-linejoin="round" stroke-linecap="round" points="42.0,286.0 57.4,132.1 72.9,286.0 88.3,286.0 103.8,286.0 119.2,286.0 134.7,286.0 150.1,286.0 165.6,286.0 181.0,286.0 196.5,286.0 211.9,286.0 227.4,286.0 242.8,286.0 258.3,286.0 273.7,286.0 289.2,286.0 304.6,279.8 320.1,286.0 335.5,286.0 351.0,286.0 366.4,286.0 381.9,286.0 397.3,286.0 412.8,286.0 428.2,286.0 443.7,286.0 459.1,286.0 474.6,286.0 490.0,286.0 505.4,286.0 520.9,286.0 536.3,286.0 551.8,286.0 567.2,286.0 582.7,286.0 598.1,286.0 613.6,286.0 629.0,286.0 644.5,286.0 659.9,286.0 675.4,286.0 690.8,286.0 706.3,286.0 721.7,286.0 737.2,286.0 752.6,286.0 768.1,286.0 783.5,286.0 799.0,286.0 814.4,286.0 829.9,286.0 845.3,286.0 860.8,286.0 876.2,286.0 891.7,286.0 907.1,286.0 922.6,286.0 938.0,286.0"/><circle cx="42.0" cy="286.0" r="2.5" fill="#ef4444"/><circle cx="57.4" cy="132.1" r="2.5" fill="#ef4444"/><circle cx="72.9" cy="286.0" r="2.5" fill="#ef4444"/><circle cx="88.3" cy="286.0" r="2.5" fill="#ef4444"/><circle cx="103.8" cy="286.0" r="2.5" fill="#ef4444"/><circle cx="119.2" cy="286.0" r="2.5" fill="#ef4444"/><circle cx="134.7" cy="286.0" r="2.5" fill="#ef4444"/><circle cx="150.1" cy="286.0" r="2.5" fill="#ef4444"/><circle cx="165.6" cy="286.0" r="2.5" fill="#ef4444"/><circle cx="181.0" cy="286.0" r="2.5" fill="#ef4444"/><circle cx="196.5" cy="286.0" r="2.5" fill="#ef4444"/><circle cx="211.9" cy="286.0" r="2.5" fill="#ef4444"/><circle cx="227.4" cy="286.0" r="2.5" fill="#ef4444"/><circle cx="242.8" cy="286.0" r="2.5" fill="#ef4444"/><circle cx="258.3" cy="286.0" r="2.5" fill="#ef4444"/><circle cx="273.7" cy="286.0" r="2.5" fill="#ef4444"/><circle cx="289.2" cy="286.0" r="2.5" fill="#ef4444"/><circle cx="304.6" cy="279.8" r="2.5" fill="#ef4444"/><circle cx="320.1" cy="286.0" r="2.5" fill="#ef4444"/><circle cx="335.5" cy="286.0" r="2.5" fill="#ef4444"/><circle cx="351.0" cy="286.0" r="2.5" fill="#ef4444"/><circle cx="366.4" cy="286.0" r="2.5" fill="#ef4444"/><circle cx="381.9" cy="286.0" r="2.5" fill="#ef4444"/><circle cx="397.3" cy="286.0" r="2.5" fill="#ef4444"/><circle cx="412.8" cy="286.0" r="2.5" fill="#ef4444"/><circle cx="428.2" cy="286.0" r="2.5" fill="#ef4444"/><circle cx="443.7" cy="286.0" r="2.5" fill="#ef4444"/><circle cx="459.1" cy="286.0" r="2.5" fill="#ef4444"/><circle cx="474.6" cy="286.0" r="2.5" fill="#ef4444"/><circle cx="490.0" cy="286.0" r="2.5" fill="#ef4444"/><circle cx="505.4" cy="286.0" r="2.5" fill="#ef4444"/><circle cx="520.9" cy="286.0" r="2.5" fill="#ef4444"/><circle cx="536.3" cy="286.0" r="2.5" fill="#ef4444"/><circle cx="551.8" cy="286.0" r="2.5" fill="#ef4444"/><circle cx="567.2" cy="286.0" r="2.5" fill="#ef4444"/><circle cx="582.7" cy="286.0" r="2.5" fill="#ef4444"/><circle cx="598.1" cy="286.0" r="2.5" fill="#ef4444"/><circle cx="613.6" cy="286.0" r="2.5" fill="#ef4444"/><circle cx="629.0" cy="286.0" r="2.5" fill="#ef4444"/><circle cx="644.5" cy="286.0" r="2.5" fill="#ef4444"/><circle cx="659.9" cy="286.0" r="2.5" fill="#ef4444"/><circle cx="675.4" cy="286.0" r="2.5" fill="#ef4444"/><circle cx="690.8" cy="286.0" r="2.5" fill="#ef4444"/><circle cx="706.3" cy="286.0" r="2.5" fill="#ef4444"/><circle cx="721.7" cy="286.0" r="2.5" fill="#ef4444"/><circle cx="737.2" cy="286.0" r="2.5" fill="#ef4444"/><circle cx="752.6" cy="286.0" r="2.5" fill="#ef4444"/><circle cx="768.1" cy="286.0" r="2.5" fill="#ef4444"/><circle cx="783.5" cy="286.0" r="2.5" fill="#ef4444"/><circle cx="799.0" cy="286.0" r="2.5" fill="#ef4444"/><circle cx="814.4" cy="286.0" r="2.5" fill="#ef4444"/><circle cx="829.9" cy="286.0" r="2.5" fill="#ef4444"/><circle cx="845.3" cy="286.0" r="2.5" fill="#ef4444"/><circle cx="860.8" cy="286.0" r="2.5" fill="#ef4444"/><circle cx="876.2" cy="286.0" r="2.5" fill="#ef4444"/><circle cx="891.7" cy="286.0" r="2.5" fill="#ef4444"/><circle cx="907.1" cy="286.0" r="2.5" fill="#ef4444"/><circle cx="922.6" cy="286.0" r="2.5" fill="#ef4444"/><circle cx="938.0" cy="286.0" r="2.5" fill="#ef4444"/><polyline fill="none" stroke="#a855f7" stroke-width="2.5" stroke-linejoin="round" stroke-linecap="round" points="42.0,286.0 57.4,286.0 72.9,286.0 88.3,286.0 103.8,286.0 119.2,286.0 134.7,286.0 150.1,286.0 165.6,286.0 181.0,286.0 196.5,286.0 211.9,286.0 227.4,286.0 242.8,286.0 258.3,286.0 273.7,286.0 289.2,286.0 304.6,286.0 320.1,286.0 335.5,286.0 351.0,286.0 366.4,286.0 381.9,286.0 397.3,286.0 412.8,286.0 428.2,286.0 443.7,286.0 459.1,286.0 474.6,286.0 490.0,286.0 505.4,286.0 520.9,286.0 536.3,286.0 551.8,286.0 567.2,286.0 582.7,286.0 598.1,286.0 613.6,286.0 629.0,286.0 644.5,286.0 659.9,286.0 675.4,286.0 690.8,286.0 706.3,286.0 721.7,286.0 737.2,286.0 752.6,286.0 768.1,286.0 783.5,286.0 799.0,286.0 814.4,286.0 829.9,286.0 845.3,279.8 860.8,286.0 876.2,286.0 891.7,286.0 907.1,286.0 922.6,286.0 938.0,286.0"/><circle cx="42.0" cy="286.0" r="2.5" fill="#a855f7"/><circle cx="57.4" cy="286.0" r="2.5" fill="#a855f7"/><circle cx="72.9" cy="286.0" r="2.5" fill="#a855f7"/><circle cx="88.3" cy="286.0" r="2.5" fill="#a855f7"/><circle cx="103.8" cy="286.0" r="2.5" fill="#a855f7"/><circle cx="119.2" cy="286.0" r="2.5" fill="#a855f7"/><circle cx="134.7" cy="286.0" r="2.5" fill="#a855f7"/><circle cx="150.1" cy="286.0" r="2.5" fill="#a855f7"/><circle cx="165.6" cy="286.0" r="2.5" fill="#a855f7"/><circle cx="181.0" cy="286.0" r="2.5" fill="#a855f7"/><circle cx="196.5" cy="286.0" r="2.5" fill="#a855f7"/><circle cx="211.9" cy="286.0" r="2.5" fill="#a855f7"/><circle cx="227.4" cy="286.0" r="2.5" fill="#a855f7"/><circle cx="242.8" cy="286.0" r="2.5" fill="#a855f7"/><circle cx="258.3" cy="286.0" r="2.5" fill="#a855f7"/><circle cx="273.7" cy="286.0" r="2.5" fill="#a855f7"/><circle cx="289.2" cy="286.0" r="2.5" fill="#a855f7"/><circle cx="304.6" cy="286.0" r="2.5" fill="#a855f7"/><circle cx="320.1" cy="286.0" r="2.5" fill="#a855f7"/><circle cx="335.5" cy="286.0" r="2.5" fill="#a855f7"/><circle cx="351.0" cy="286.0" r="2.5" fill="#a855f7"/><circle cx="366.4" cy="286.0" r="2.5" fill="#a855f7"/><circle cx="381.9" cy="286.0" r="2.5" fill="#a855f7"/><circle cx="397.3" cy="286.0" r="2.5" fill="#a855f7"/><circle cx="412.8" cy="286.0" r="2.5" fill="#a855f7"/><circle cx="428.2" cy="286.0" r="2.5" fill="#a855f7"/><circle cx="443.7" cy="286.0" r="2.5" fill="#a855f7"/><circle cx="459.1" cy="286.0" r="2.5" fill="#a855f7"/><circle cx="474.6" cy="286.0" r="2.5" fill="#a855f7"/><circle cx="490.0" cy="286.0" r="2.5" fill="#a855f7"/><circle cx="505.4" cy="286.0" r="2.5" fill="#a855f7"/><circle cx="520.9" cy="286.0" r="2.5" fill="#a855f7"/><circle cx="536.3" cy="286.0" r="2.5" fill="#a855f7"/><circle cx="551.8" cy="286.0" r="2.5" fill="#a855f7"/><circle cx="567.2" cy="286.0" r="2.5" fill="#a855f7"/><circle cx="582.7" cy="286.0" r="2.5" fill="#a855f7"/><circle cx="598.1" cy="286.0" r="2.5" fill="#a855f7"/><circle cx="613.6" cy="286.0" r="2.5" fill="#a855f7"/><circle cx="629.0" cy="286.0" r="2.5" fill="#a855f7"/><circle cx="644.5" cy="286.0" r="2.5" fill="#a855f7"/><circle cx="659.9" cy="286.0" r="2.5" fill="#a855f7"/><circle cx="675.4" cy="286.0" r="2.5" fill="#a855f7"/><circle cx="690.8" cy="286.0" r="2.5" fill="#a855f7"/><circle cx="706.3" cy="286.0" r="2.5" fill="#a855f7"/><circle cx="721.7" cy="286.0" r="2.5" fill="#a855f7"/><circle cx="737.2" cy="286.0" r="2.5" fill="#a855f7"/><circle cx="752.6" cy="286.0" r="2.5" fill="#a855f7"/><circle cx="768.1" cy="286.0" r="2.5" fill="#a855f7"/><circle cx="783.5" cy="286.0" r="2.5" fill="#a855f7"/><circle cx="799.0" cy="286.0" r="2.5" fill="#a855f7"/><circle cx="814.4" cy="286.0" r="2.5" fill="#a855f7"/><circle cx="829.9" cy="286.0" r="2.5" fill="#a855f7"/><circle cx="845.3" cy="279.8" r="2.5" fill="#a855f7"/><circle cx="860.8" cy="286.0" r="2.5" fill="#a855f7"/><circle cx="876.2" cy="286.0" r="2.5" fill="#a855f7"/><circle cx="891.7" cy="286.0" r="2.5" fill="#a855f7"/><circle cx="907.1" cy="286.0" r="2.5" fill="#a855f7"/><circle cx="922.6" cy="286.0" r="2.5" fill="#a855f7"/><circle cx="938.0" cy="286.0" r="2.5" fill="#a855f7"/><text x="42" y="308" font-size="11" fill="#5a688a">19/06 15:39</text><text x="938" y="308" text-anchor="end" font-size="11" fill="#5a688a">19/07 00:33</text></svg>