<svg xmlns="http://www.w3.org/2000/svg" viewBox="0 0 960 320" width="960" height="320" font-family="Segoe UI, system-ui, -apple-system, Roboto, Helvetica, Arial, sans-serif" role="img" aria-label="Availability history per region"><rect x="0.5" y="0.5" width="959" height="319" rx="14" fill="#0d1117" stroke="#2c3a5e"/><text x="42" y="26" font-size="14" font-weight="600" fill="#e6ecff">History · 24 points</text><circle cx="47" cy="40" r="5" fill="#22c55e"/><text x="57" y="44" font-size="12" fill="#9fb0d4">Available</text><circle cx="139.8" cy="40" r="5" fill="#f59e0b"/><text x="149.8" y="44" font-size="12" fill="#9fb0d4">Saturated</text><circle cx="232.60000000000002" cy="40" r="5" fill="#ef4444"/><text x="242.60000000000002" y="44" font-size="12" fill="#9fb0d4">Error</text><line x1="42" y1="286.0" x2="938" y2="286.0" stroke="#21304f" stroke-width="1"/><text x="35" y="289.0" text-anchor="end" font-size="11" fill="#9fb0d4">0</text><line x1="42" y1="227.5" x2="938" y2="227.5" stroke="#21304f" stroke-width="1"/><text x="35" y="230.5" text-anchor="end" font-size="11" fill="#9fb0d4">10</text><line x1="42" y1="169.0" x2="938" y2="169.0" stroke="#21304f" stroke-width="1"/><text x="35" y="172.0" text-anchor="end" font-size="11" fill="#9fb0d4">20</text><line x1="42" y1="110.5" x2="938" y2="110.5" stroke="#21304f" stroke-width="1"/><text x="35" y="113.5" text-anchor="end" font-size="11" fill="#9fb0d4">29</text><line x1="42" y1="52.0" x2="938" y2="52.0" stroke="#21304f" stroke-width="1"/><text x="35" y="55.0" text-anchor="end" font-size="11" fill="#9fb0d4">39</text><polyline fill="none" stroke="#22c55e" stroke-width="2.5" stroke-linejoin="round" stroke-linecap="round" points="42.0,70.0 81.0,70.0 119.9,88.0 158.9,88.0 197.8,76.0 236.8,76.0 275.7,76.0 314.7,70.0 353.7,76.0 392.6,70.0 431.6,64.0 470.5,58.0 509.5,58.0 548.4,58.0 587.4,58.0 626.3,58.0 665.3,58.0 704.3,58.0 743.2,58.0 782.2,58.0 821.1,58.0 860.1,58.0 899.0,58.0 938.0,58.0"/><circle cx="42.0" cy="70.0" r="2.5" fill="#22c55e"/><circle cx="81.0" cy="70.0" r="2.5" fill="#22c55e"/><circle cx="119.9" cy="88.0" r="2.5" fill="#22c55e"/><circle cx="158.9" cy="88.0" r="2.5" fill="#22c55e"/><circle cx="197.8" cy="76.0" r="2.5" fill="#22c55e"/><circle cx="236.8" cy="76.0" r="2.5" fill="#22c55e"/><circle cx="275.7" cy="76.0" r="2.5" fill="#22c55e"/><circle cx="314.7" cy="70.0" r="2.5" fill="#22c55e"/><circle cx="353.7" cy="76.0" r="2.5" fill="#22c55e"/><circle cx="392.6" cy="70.0" r="2.5" fill="#22c55e"/><circle cx="431.6" cy="64.0" r="2.5" fill="#22c55e"/><circle cx="470.5" cy="58.0" r="2.5" fill="#22c55e"/><circle cx="509.5" cy="58.0" r="2.5" fill="#22c55e"/><circle cx="548.4" cy="58.0" r="2.5" fill="#22c55e"/><circle cx="587.4" cy="58.0" r="2.5" fill="#22c55e"/><circle cx="626.3" cy="58.0" r="2.5" fill="#22c55e"/><circle cx="665.3" cy="58.0" r="2.5" fill="#22c55e"/><circle cx="704.3" cy="58.0" r="2.5" fill="#22c55e"/><circle cx="743.2" cy="58.0" r="2.5" fill="#22c55e"/><circle cx="782.2" cy="58.0" r="2.5" fill="#22c55e"/><circle cx="821.1" cy="58.0" r="2.5" fill="#22c55e"/><circle cx="860.1" cy="58.0" r="2.5" fill="#22c55e"/><circle cx="899.0" cy="58.0" r="2.5" fill="#22c55e"/><circle cx="938.0" cy="58.0" r="2.5" fill="#22c55e"/><polyline fill="none" stroke="#f59e0b" stroke-width="2.5" stroke-linejoin="round" stroke-linecap="round" points="42.0,274.0 81.0,274.0 119.9,274.0 158.9,280.0 197.8,268.0 236.8,268.0 275.7,268.0 314.7,274.0 353.7,274.0 392.6,274.0 431.6,280.0 470.5,286.0 509.5,286.0 548.4,286.0 587.4,286.0 626.3,286.0 665.3,286.0 704.3,286.0 743.2,286.0 782.2,286.0 821.1,286.0 860.1,286.0 899.0,286.0 938.0,286.0"/><circle cx="42.0" cy="274.0" r="2.5" fill="#f59e0b"/><circle cx="81.0" cy="274.0" r="2.5" fill="#f59e0b"/><circle cx="119.9" cy="274.0" r="2.5" fill="#f59e0b"/><circle cx="158.9" cy="280.0" r="2.5" fill="#f59e0b"/><circle cx="197.8" cy="268.0" r="2.5" fill="#f59e0b"/><circle cx="236.8" cy="268.0" r="2.5" fill="#f59e0b"/><circle cx="275.7" cy="268.0" r="2.5" fill="#f59e0b"/><circle cx="314.7" cy="274.0" r="2.5" fill="#f59e0b"/><circle cx="353.7" cy="274.0" r="2.5" fill="#f59e0b"/><circle cx="392.6" cy="274.0" r="2.5" fill="#f59e0b"/><circle cx="431.6" cy="280.0" r="2.5" fill="#f59e0b"/><circle cx="470.5" cy="286.0" r="2.5" fill="#f59e0b"/><circle cx="509.5" cy="286.0" r="2.5" fill="#f59e0b"/><circle cx="548.4" cy="286.0" r="2.5" fill="#f59e0b"/><circle cx="587.4" cy="286.0" r="2.5" fill="#f59e0b"/><circle cx="626.3" cy="286.0" r="2.5" fill="#f59e0b"/><circle cx="665.3" cy="286.0" r="2.5" fill="#f59e0b"/><circle cx="704.3" cy="286.0" r="2.5" fill="#f59e0b"/><circle cx="743.2" cy="286.0" r="2.5" fill="#f59e0b"/><circle cx="782.2" cy="286.0" r="2.5" fill="#f59e0b"/><circle cx="821.1" cy="286.0" r="2.5" fill="#f59e0b"/><circle cx="860.1" cy="286.0" r="2.5" fill="#f59e0b"/><circle cx="899.0" cy="286.0" r="2.5" fill="#f59e0b"/><circle cx="938.0" cy="286.0" r="2.5" fill="#f59e0b"/><polyline fill="none" stroke="#ef4444" stroke-width="2.5" stroke-linejoin="round" stroke-linecap="round" points="42.0,280.0 81.0,280.0 119.9,268.0 158.9,262.0 197.8,286.0 236.8,286.0 275.7,286.0 314.7,286.0 353.7,280.0 392.6,286.0 431.6,286.0 470.5,286.0 509.5,286.0 548.4,286.0 587.4,286.0 626.3,286.0 665.3,286.0 704.3,286.0 743.2,286.0 782.2,286.0 821.1,286.0 860.1,286.0 899.0,286.0 938.0,286.0"/><circle cx="42.0" cy="280.0" r="2.5" fill="#ef4444"/><circle cx="81.0" cy="280.0" r="2.5" fill="#ef4444"/><circle cx="119.9" cy="268.0" r="2.5" fill="#ef4444"/><circle cx="158.9" cy="262.0" r="2.5" fill="#ef4444"/><circle cx="197.8" cy="286.0" r="2.5" fill="#ef4444"/><circle cx="236.8" cy="286.0" r="2.5" fill="#ef4444"/><circle cx="275.7" cy="286.0" r="2.5" fill="#ef4444"/><circle cx="314.7" cy="286.0" r="2.5" fill="#ef4444"/><circle cx="353.7" cy="280.0" r="2.5" fill="#ef4444"/><circle cx="392.6" cy="286.0" r="2.5" fill="#ef4444"/><circle cx="431.6" cy="286.0" r="2.5" fill="#ef4444"/><circle cx="470.5" cy="286.0" r="2.5" fill="#ef4444"/><circle cx="509.5" cy="286.0" r="2.5" fill="#ef4444"/><circle cx="548.4" cy="286.0" r="2.5" fill="#ef4444"/><circle cx="587.4" cy="286.0" r="2.5" fill="#ef4444"/><circle cx="626.3" cy="286.0" r="2.5" fill="#ef4444"/><circle cx="665.3" cy="286.0" r="2.5" fill="#ef4444"/><circle cx="704.3" cy="286.0" r="2.5" fill="#ef4444"/><circle cx="743.2" cy="286.0" r="2.5" fill="#ef4444"/><circle cx="782.2" cy="286.0" r="2.5" fill="#ef4444"/><circle cx="821.1" cy="286.0" r="2.5" fill="#ef4444"/><circle cx="860.1" cy="286.0" r="2.5" fill="#ef4444"/><circle cx="899.0" cy="286.0" r="2.5" fill="#ef4444"/><circle cx="938.0" cy="286.0" r="2.5" fill="#ef4444"/><text x="42" y="308" font-size="11" fill="#9fb0d4">19/06 12:43</text><text x="938" y="308" text-anchor="end" font-size="11" fill="#9fb0d4">21/06 15:39</text></svg>