<svg xmlns="http://www.w3.org/2000/svg" viewBox="0 0 960 320" width="960" height="320" font-family="Segoe UI, system-ui, -apple-system, Roboto, Helvetica, Arial, sans-serif" role="img" aria-label="Availability history per region"><rect x="0.5" y="0.5" width="959" height="319" rx="14" fill="#0d1117" stroke="#2c3a5e"/><text x="42" y="26" font-size="14" font-weight="600" fill="#e6ecff">History · 159 points</text><circle cx="47" cy="40" r="5" fill="#22c55e"/><text x="57" y="44" font-size="12" fill="#9fb0d4">Available</text><circle cx="139.8" cy="40" r="5" fill="#f59e0b"/><text x="149.8" y="44" font-size="12" fill="#9fb0d4">Saturated</text><circle cx="232.60000000000002" cy="40" r="5" fill="#ef4444"/><text x="242.60000000000002" y="44" font-size="12" fill="#9fb0d4">Error</text><circle cx="296.6" cy="40" r="5" fill="#a855f7"/><text x="306.6" y="44" font-size="12" fill="#9fb0d4">Timeout</text><line x1="42" y1="286.0" x2="938" y2="286.0" stroke="#21304f" stroke-width="1"/><text x="35" y="289.0" text-anchor="end" font-size="11" fill="#9fb0d4">0</text><line x1="42" y1="227.5" x2="938" y2="227.5" stroke="#21304f" stroke-width="1"/><text x="35" y="230.5" text-anchor="end" font-size="11" fill="#9fb0d4">10</text><line x1="42" y1="169.0" x2="938" y2="169.0" stroke="#21304f" stroke-width="1"/><text x="35" y="172.0" text-anchor="end" font-size="11" fill="#9fb0d4">21</text><line x1="42" y1="110.5" x2="938" y2="110.5" stroke="#21304f" stroke-width="1"/><text x="35" y="113.5" text-anchor="end" font-size="11" fill="#9fb0d4">32</text><line x1="42" y1="52.0" x2="938" y2="52.0" stroke="#21304f" stroke-width="1"/><text x="35" y="55.0" text-anchor="end" font-size="11" fill="#9fb0d4">42</text><polyline fill="none" stroke="#22c55e" stroke-width="2.5" stroke-linejoin="round" stroke-linecap="round" points="42.0,85.4 47.7,230.3 53.3,102.1 59.0,107.7 64.7,102.1 70.4,96.6 76.0,96.6 81.7,96.6 87.4,96.6 93.0,96.6 98.7,96.6 104.4,96.6 110.1,96.6 115.7,96.6 121.4,96.6 127.1,91.0 132.7,91.0 138.4,102.1 144.1,102.1 149.7,102.1 155.4,107.7 161.1,107.7 166.8,107.7 172.4,107.7 178.1,107.7 183.8,107.7 189.4,107.7 195.1,107.7 200.8,107.7 206.5,102.1 212.1,102.1 217.8,102.1 223.5,102.1 229.1,96.6 234.8,96.6 240.5,96.6 246.2,96.6 251.8,96.6 257.5,102.1 263.2,102.1 268.8,102.1 274.5,102.1 280.2,96.6 285.8,96.6 291.5,96.6 297.2,96.6 302.9,96.6 308.5,96.6 314.2,96.6 319.9,102.1 325.5,102.1 331.2,102.1 336.9,102.1 342.6,96.6 348.2,96.6 353.9,96.6 359.6,96.6 365.2,96.6 370.9,96.6 376.6,96.6 382.3,96.6 387.9,102.1 393.6,96.6 399.3,96.6 404.9,96.6 410.6,96.6 416.3,96.6 421.9,102.1 427.6,96.6 433.3,96.6 439.0,96.6 444.6,96.6 450.3,96.6 456.0,96.6 461.6,96.6 467.3,96.6 473.0,96.6 478.7,91.0 484.3,91.0 490.0,91.0 495.7,91.0 501.3,96.6 507.0,91.0 512.7,96.6 518.4,96.6 524.0,96.6 529.7,96.6 535.4,96.6 541.0,96.6 546.7,102.1 552.4,107.7 558.1,107.7 563.7,107.7 569.4,107.7 575.1,107.7 580.7,107.7 586.4,107.7 592.1,113.3 597.7,107.7 603.4,107.7 609.1,107.7 614.8,107.7 620.4,107.7 626.1,107.7 631.8,102.1 637.4,102.1 643.1,102.1 648.8,102.1 654.5,102.1 660.1,102.1 665.8,102.1 671.5,102.1 677.1,107.7 682.8,107.7 688.5,107.7 694.2,107.7 699.8,107.7 705.5,107.7 711.2,107.7 716.8,107.7 722.5,113.3 728.2,107.7 733.8,107.7 739.5,107.7 745.2,118.9 750.9,107.7 756.5,107.7 762.2,107.7 767.9,107.7 773.5,102.1 779.2,102.1 784.9,102.1 790.6,102.1 796.2,107.7 801.9,102.1 807.6,107.7 813.2,107.7 818.9,107.7 824.6,107.7 830.3,113.3 835.9,107.7 841.6,107.7 847.3,107.7 852.9,107.7 858.6,107.7 864.3,107.7 869.9,107.7 875.6,107.7 881.3,113.3 887.0,102.1 892.6,102.1 898.3,102.1 904.0,102.1 909.6,102.1 915.3,102.1 921.0,102.1 926.7,102.1 932.3,102.1 938.0,102.1"/><polyline fill="none" stroke="#f59e0b" stroke-width="2.5" stroke-linejoin="round" stroke-linecap="round" points="42.0,274.9 47.7,269.3 53.3,258.1 59.0,252.6 64.7,258.1 70.4,263.7 76.0,263.7 81.7,263.7 87.4,263.7 93.0,263.7 98.7,263.7 104.4,263.7 110.1,263.7 115.7,263.7 121.4,263.7 127.1,269.3 132.7,269.3 138.4,263.7 144.1,258.1 149.7,258.1 155.4,252.6 161.1,252.6 166.8,252.6 172.4,252.6 178.1,252.6 183.8,252.6 189.4,252.6 195.1,252.6 200.8,252.6 206.5,258.1 212.1,258.1 217.8,258.1 223.5,258.1 229.1,263.7 234.8,263.7 240.5,263.7 246.2,263.7 251.8,263.7 257.5,258.1 263.2,258.1 268.8,258.1 274.5,258.1 280.2,263.7 285.8,263.7 291.5,263.7 297.2,263.7 302.9,263.7 308.5,263.7 314.2,263.7 319.9,258.1 325.5,258.1 331.2,258.1 336.9,263.7 342.6,263.7 348.2,263.7 353.9,263.7 359.6,263.7 365.2,263.7 370.9,263.7 376.6,263.7 382.3,263.7 387.9,258.1 393.6,263.7 399.3,263.7 404.9,263.7 410.6,263.7 416.3,263.7 421.9,263.7 427.6,263.7 433.3,263.7 439.0,263.7 444.6,263.7 450.3,263.7 456.0,263.7 461.6,263.7 467.3,263.7 473.0,263.7 478.7,269.3 484.3,269.3 490.0,269.3 495.7,269.3 501.3,269.3 507.0,269.3 512.7,263.7 518.4,263.7 524.0,263.7 529.7,263.7 535.4,263.7 541.0,263.7 546.7,258.1 552.4,252.6 558.1,252.6 563.7,258.1 569.4,252.6 575.1,252.6 580.7,252.6 586.4,252.6 592.1,252.6 597.7,252.6 603.4,258.1 609.1,252.6 614.8,252.6 620.4,252.6 626.1,252.6 631.8,258.1 637.4,258.1 643.1,258.1 648.8,258.1 654.5,258.1 660.1,258.1 665.8,258.1 671.5,258.1 677.1,252.6 682.8,252.6 688.5,252.6 694.2,252.6 699.8,252.6 705.5,252.6 711.2,252.6 716.8,258.1 722.5,252.6 728.2,252.6 733.8,252.6 739.5,252.6 745.2,252.6 750.9,252.6 756.5,252.6 762.2,258.1 767.9,258.1 773.5,258.1 779.2,258.1 784.9,258.1 790.6,258.1 796.2,258.1 801.9,258.1 807.6,252.6 813.2,252.6 818.9,252.6 824.6,252.6 830.3,252.6 835.9,252.6 841.6,252.6 847.3,252.6 852.9,252.6 858.6,252.6 864.3,252.6 869.9,252.6 875.6,252.6 881.3,252.6 887.0,258.1 892.6,258.1 898.3,258.1 904.0,258.1 909.6,258.1 915.3,263.7 921.0,263.7 926.7,258.1 932.3,258.1 938.0,258.1"/><polyline fill="none" stroke="#ef4444" stroke-width="2.5" stroke-linejoin="round" stroke-linecap="round" points="42.0,286.0 47.7,146.7 53.3,286.0 59.0,286.0 64.7,286.0 70.4,286.0 76.0,286.0 81.7,286.0 87.4,286.0 93.0,286.0 98.7,286.0 104.4,286.0 110.1,286.0 115.7,286.0 121.4,286.0 127.1,286.0 132.7,286.0 138.4,280.4 144.1,286.0 149.7,286.0 155.4,286.0 161.1,286.0 166.8,286.0 172.4,286.0 178.1,286.0 183.8,286.0 189.4,286.0 195.1,286.0 200.8,286.0 206.5,286.0 212.1,286.0 217.8,286.0 223.5,286.0 229.1,286.0 234.8,286.0 240.5,286.0 246.2,286.0 251.8,286.0 257.5,286.0 263.2,286.0 268.8,286.0 274.5,286.0 280.2,286.0 285.8,286.0 291.5,286.0 297.2,286.0 302.9,286.0 308.5,286.0 314.2,286.0 319.9,286.0 325.5,286.0 331.2,286.0 336.9,286.0 342.6,286.0 348.2,286.0 353.9,286.0 359.6,286.0 365.2,286.0 370.9,286.0 376.6,286.0 382.3,286.0 387.9,286.0 393.6,286.0 399.3,286.0 404.9,286.0 410.6,286.0 416.3,286.0 421.9,280.4 427.6,286.0 433.3,286.0 439.0,286.0 444.6,286.0 450.3,286.0 456.0,286.0 461.6,286.0 467.3,286.0 473.0,286.0 478.7,286.0 484.3,286.0 490.0,286.0 495.7,286.0 501.3,280.4 507.0,286.0 512.7,286.0 518.4,286.0 524.0,286.0 529.7,286.0 535.4,286.0 541.0,286.0 546.7,286.0 552.4,286.0 558.1,286.0 563.7,280.4 569.4,286.0 575.1,286.0 580.7,286.0 586.4,286.0 592.1,280.4 597.7,286.0 603.4,286.0 609.1,286.0 614.8,286.0 620.4,286.0 626.1,286.0 631.8,286.0 637.4,286.0 643.1,286.0 648.8,286.0 654.5,286.0 660.1,286.0 665.8,286.0 671.5,286.0 677.1,286.0 682.8,286.0 688.5,286.0 694.2,286.0 699.8,286.0 705.5,286.0 711.2,286.0 716.8,286.0 722.5,280.4 728.2,286.0 733.8,286.0 739.5,286.0 745.2,274.9 750.9,286.0 756.5,286.0 762.2,280.4 767.9,280.4 773.5,286.0 779.2,286.0 784.9,286.0 790.6,286.0 796.2,280.4 801.9,286.0 807.6,286.0 813.2,286.0 818.9,286.0 824.6,286.0 830.3,286.0 835.9,286.0 841.6,286.0 847.3,286.0 852.9,286.0 858.6,286.0 864.3,286.0 869.9,286.0 875.6,286.0 881.3,286.0 887.0,286.0 892.6,286.0 898.3,286.0 904.0,286.0 909.6,286.0 915.3,280.4 921.0,286.0 926.7,286.0 932.3,286.0 938.0,263.7"/><polyline fill="none" stroke="#a855f7" stroke-width="2.5" stroke-linejoin="round" stroke-linecap="round" points="42.0,286.0 47.7,286.0 53.3,286.0 59.0,286.0 64.7,286.0 70.4,286.0 76.0,286.0 81.7,286.0 87.4,286.0 93.0,286.0 98.7,286.0 104.4,286.0 110.1,286.0 115.7,286.0 121.4,286.0 127.1,286.0 132.7,286.0 138.4,286.0 144.1,286.0 149.7,286.0 155.4,286.0 161.1,286.0 166.8,286.0 172.4,286.0 178.1,286.0 183.8,286.0 189.4,286.0 195.1,286.0 200.8,286.0 206.5,286.0 212.1,286.0 217.8,286.0 223.5,286.0 229.1,286.0 234.8,286.0 240.5,286.0 246.2,286.0 251.8,286.0 257.5,286.0 263.2,286.0 268.8,286.0 274.5,286.0 280.2,286.0 285.8,286.0 291.5,286.0 297.2,286.0 302.9,286.0 308.5,286.0 314.2,286.0 319.9,286.0 325.5,286.0 331.2,286.0 336.9,280.4 342.6,286.0 348.2,286.0 353.9,286.0 359.6,286.0 365.2,286.0 370.9,286.0 376.6,286.0 382.3,286.0 387.9,286.0 393.6,286.0 399.3,286.0 404.9,286.0 410.6,286.0 416.3,286.0 421.9,286.0 427.6,286.0 433.3,286.0 439.0,286.0 444.6,286.0 450.3,286.0 456.0,286.0 461.6,286.0 467.3,286.0 473.0,286.0 478.7,286.0 484.3,286.0 490.0,286.0 495.7,286.0 501.3,286.0 507.0,286.0 512.7,286.0 518.4,286.0 524.0,286.0 529.7,286.0 535.4,286.0 541.0,286.0 546.7,286.0 552.4,286.0 558.1,286.0 563.7,286.0 569.4,286.0 575.1,286.0 580.7,286.0 586.4,286.0 592.1,286.0 597.7,286.0 603.4,280.4 609.1,286.0 614.8,286.0 620.4,286.0 626.1,286.0 631.8,286.0 637.4,286.0 643.1,286.0 648.8,286.0 654.5,286.0 660.1,286.0 665.8,286.0 671.5,286.0 677.1,286.0 682.8,286.0 688.5,286.0 694.2,286.0 699.8,286.0 705.5,286.0 711.2,286.0 716.8,280.4 722.5,286.0 728.2,286.0 733.8,286.0 739.5,286.0 745.2,286.0 750.9,286.0 756.5,286.0 762.2,286.0 767.9,286.0 773.5,286.0 779.2,286.0 784.9,286.0 790.6,286.0 796.2,286.0 801.9,286.0 807.6,286.0 813.2,286.0 818.9,286.0 824.6,286.0 830.3,280.4 835.9,286.0 841.6,286.0 847.3,286.0 852.9,286.0 858.6,286.0 864.3,286.0 869.9,286.0 875.6,286.0 881.3,280.4 887.0,286.0 892.6,286.0 898.3,286.0 904.0,286.0 909.6,286.0 915.3,286.0 921.0,280.4 926.7,286.0 932.3,286.0 938.0,286.0"/><text x="42" y="308" font-size="11" fill="#9fb0d4">19/06 15:39</text><text x="938" y="308" text-anchor="end" font-size="11" fill="#9fb0d4">23/07 05:29</text></svg>