<svg xmlns="http://www.w3.org/2000/svg" viewBox="0 0 960 320" width="960" height="320" font-family="Segoe UI, system-ui, -apple-system, Roboto, Helvetica, Arial, sans-serif" role="img" aria-label="Availability history per region"><rect x="0.5" y="0.5" width="959" height="319" rx="14" fill="#0d1117" stroke="#2c3a5e"/><text x="42" y="26" font-size="14" font-weight="600" fill="#e6ecff">History · 251 points</text><circle cx="47" cy="40" r="5" fill="#22c55e"/><text x="57" y="44" font-size="12" fill="#9fb0d4">Available</text><circle cx="139.8" cy="40" r="5" fill="#f59e0b"/><text x="149.8" y="44" font-size="12" fill="#9fb0d4">Saturated</text><circle cx="232.60000000000002" cy="40" r="5" fill="#ef4444"/><text x="242.60000000000002" y="44" font-size="12" fill="#9fb0d4">Error</text><circle cx="296.6" cy="40" r="5" fill="#a855f7"/><text x="306.6" y="44" font-size="12" fill="#9fb0d4">Timeout</text><line x1="42" y1="286.0" x2="938" y2="286.0" stroke="#21304f" stroke-width="1"/><text x="35" y="289.0" text-anchor="end" font-size="11" fill="#9fb0d4">0</text><line x1="42" y1="227.5" x2="938" y2="227.5" stroke="#21304f" stroke-width="1"/><text x="35" y="230.5" text-anchor="end" font-size="11" fill="#9fb0d4">10</text><line x1="42" y1="169.0" x2="938" y2="169.0" stroke="#21304f" stroke-width="1"/><text x="35" y="172.0" text-anchor="end" font-size="11" fill="#9fb0d4">20</text><line x1="42" y1="110.5" x2="938" y2="110.5" stroke="#21304f" stroke-width="1"/><text x="35" y="113.5" text-anchor="end" font-size="11" fill="#9fb0d4">29</text><line x1="42" y1="52.0" x2="938" y2="52.0" stroke="#21304f" stroke-width="1"/><text x="35" y="55.0" text-anchor="end" font-size="11" fill="#9fb0d4">39</text><polyline fill="none" stroke="#22c55e" stroke-width="2.5" stroke-linejoin="round" stroke-linecap="round" points="42.0,70.0 45.6,70.0 49.2,88.0 52.8,88.0 56.3,76.0 59.9,76.0 63.5,76.0 67.1,70.0 70.7,76.0 74.3,70.0 77.8,64.0 81.4,58.0 85.0,58.0 88.6,58.0 92.2,58.0 95.8,58.0 99.3,58.0 102.9,58.0 106.5,58.0 110.1,58.0 113.7,58.0 117.3,58.0 120.8,58.0 124.4,58.0 128.0,58.0 131.6,58.0 135.2,58.0 138.8,58.0 142.4,58.0 145.9,58.0 149.5,58.0 153.1,70.0 156.7,76.0 160.3,94.0 163.9,64.0 167.4,64.0 171.0,58.0 174.6,58.0 178.2,58.0 181.8,70.0 185.4,76.0 188.9,76.0 192.5,82.0 196.1,82.0 199.7,82.0 203.3,82.0 206.9,76.0 210.4,64.0 214.0,70.0 217.6,70.0 221.2,82.0 224.8,76.0 228.4,76.0 232.0,82.0 235.5,76.0 239.1,76.0 242.7,76.0 246.3,64.0 249.9,64.0 253.5,76.0 257.0,76.0 260.6,76.0 264.2,88.0 267.8,70.0 271.4,64.0 275.0,58.0 278.5,58.0 282.1,70.0 285.7,70.0 289.3,70.0 292.9,76.0 296.5,70.0 300.0,70.0 303.6,70.0 307.2,70.0 310.8,76.0 314.4,82.0 318.0,76.0 321.6,70.0 325.1,70.0 328.7,70.0 332.3,70.0 335.9,76.0 339.5,70.0 343.1,70.0 346.6,70.0 350.2,70.0 353.8,70.0 357.4,70.0 361.0,70.0 364.6,70.0 368.1,70.0 371.7,70.0 375.3,70.0 378.9,70.0 382.5,70.0 386.1,70.0 389.6,70.0 393.2,70.0 396.8,70.0 400.4,70.0 404.0,70.0 407.6,70.0 411.2,70.0 414.7,70.0 418.3,70.0 421.9,70.0 425.5,70.0 429.1,70.0 432.7,70.0 436.2,70.0 439.8,70.0 443.4,70.0 447.0,70.0 450.6,70.0 454.2,70.0 457.7,70.0 461.3,70.0 464.9,70.0 468.5,70.0 472.1,70.0 475.7,70.0 479.2,70.0 482.8,70.0 486.4,70.0 490.0,70.0 493.6,70.0 497.2,70.0 500.8,70.0 504.3,70.0 507.9,70.0 511.5,70.0 515.1,70.0 518.7,70.0 522.3,70.0 525.8,70.0 529.4,70.0 533.0,70.0 536.6,70.0 540.2,70.0 543.8,70.0 547.3,70.0 550.9,70.0 554.5,70.0 558.1,70.0 561.7,70.0 565.3,70.0 568.8,70.0 572.4,70.0 576.0,70.0 579.6,70.0 583.2,76.0 586.8,70.0 590.4,70.0 593.9,70.0 597.5,70.0 601.1,70.0 604.7,76.0 608.3,76.0 611.9,88.0 615.4,88.0 619.0,88.0 622.6,94.0 626.2,94.0 629.8,94.0 633.4,94.0 636.9,88.0 640.5,88.0 644.1,82.0 647.7,82.0 651.3,82.0 654.9,88.0 658.4,88.0 662.0,94.0 665.6,82.0 669.2,82.0 672.8,82.0 676.4,82.0 680.0,88.0 683.5,88.0 687.1,94.0 690.7,94.0 694.3,88.0 697.9,88.0 701.5,88.0 705.0,94.0 708.6,94.0 712.2,106.0 715.8,94.0 719.4,94.0 723.0,94.0 726.5,94.0 730.1,88.0 733.7,88.0 737.3,82.0 740.9,76.0 744.5,76.0 748.0,76.0 751.6,76.0 755.2,76.0 758.8,76.0 762.4,70.0 766.0,70.0 769.6,70.0 773.1,76.0 776.7,88.0 780.3,82.0 783.9,70.0 787.5,70.0 791.1,70.0 794.6,76.0 798.2,76.0 801.8,76.0 805.4,82.0 809.0,70.0 812.6,76.0 816.1,64.0 819.7,70.0 823.3,58.0 826.9,58.0 830.5,58.0 834.1,58.0 837.6,58.0 841.2,64.0 844.8,58.0 848.4,64.0 852.0,58.0 855.6,58.0 859.2,58.0 862.7,58.0 866.3,64.0 869.9,64.0 873.5,64.0 877.1,76.0 880.7,70.0 884.2,82.0 887.8,70.0 891.4,76.0 895.0,58.0 898.6,64.0 902.2,58.0 905.7,64.0 909.3,58.0 912.9,58.0 916.5,58.0 920.1,64.0 923.7,70.0 927.2,64.0 930.8,64.0 934.4,64.0 938.0,70.0"/><polyline fill="none" stroke="#f59e0b" stroke-width="2.5" stroke-linejoin="round" stroke-linecap="round" points="42.0,274.0 45.6,274.0 49.2,274.0 52.8,280.0 56.3,268.0 59.9,268.0 63.5,268.0 67.1,274.0 70.7,274.0 74.3,274.0 77.8,280.0 81.4,286.0 85.0,286.0 88.6,286.0 92.2,286.0 95.8,286.0 99.3,286.0 102.9,286.0 106.5,286.0 110.1,286.0 113.7,286.0 117.3,286.0 120.8,286.0 124.4,286.0 128.0,286.0 131.6,286.0 135.2,286.0 138.8,286.0 142.4,286.0 145.9,286.0 149.5,286.0 153.1,274.0 156.7,280.0 160.3,280.0 163.9,280.0 167.4,280.0 171.0,286.0 174.6,286.0 178.2,286.0 181.8,274.0 185.4,268.0 188.9,268.0 192.5,262.0 196.1,262.0 199.7,262.0 203.3,262.0 206.9,268.0 210.4,280.0 214.0,280.0 217.6,274.0 221.2,262.0 224.8,268.0 228.4,268.0 232.0,262.0 235.5,268.0 239.1,268.0 242.7,268.0 246.3,280.0 249.9,280.0 253.5,268.0 257.0,268.0 260.6,268.0 264.2,262.0 267.8,274.0 271.4,280.0 275.0,286.0 278.5,286.0 282.1,274.0 285.7,274.0 289.3,274.0 292.9,274.0 296.5,274.0 300.0,274.0 303.6,274.0 307.2,274.0 310.8,280.0 314.4,274.0 318.0,280.0 321.6,286.0 325.1,286.0 328.7,286.0 332.3,286.0 335.9,280.0 339.5,286.0 343.1,286.0 346.6,286.0 350.2,286.0 353.8,286.0 357.4,286.0 361.0,286.0 364.6,286.0 368.1,286.0 371.7,286.0 375.3,286.0 378.9,286.0 382.5,286.0 386.1,286.0 389.6,286.0 393.2,286.0 396.8,286.0 400.4,286.0 404.0,286.0 407.6,286.0 411.2,286.0 414.7,286.0 418.3,286.0 421.9,286.0 425.5,286.0 429.1,286.0 432.7,286.0 436.2,286.0 439.8,286.0 443.4,286.0 447.0,286.0 450.6,286.0 454.2,286.0 457.7,286.0 461.3,286.0 464.9,286.0 468.5,286.0 472.1,286.0 475.7,286.0 479.2,286.0 482.8,286.0 486.4,286.0 490.0,286.0 493.6,286.0 497.2,286.0 500.8,286.0 504.3,286.0 507.9,286.0 511.5,286.0 515.1,286.0 518.7,286.0 522.3,286.0 525.8,286.0 529.4,286.0 533.0,286.0 536.6,286.0 540.2,286.0 543.8,286.0 547.3,286.0 550.9,286.0 554.5,286.0 558.1,286.0 561.7,286.0 565.3,286.0 568.8,286.0 572.4,286.0 576.0,286.0 579.6,286.0 583.2,286.0 586.8,286.0 590.4,286.0 593.9,286.0 597.5,286.0 601.1,286.0 604.7,286.0 608.3,280.0 611.9,268.0 615.4,268.0 619.0,268.0 622.6,268.0 626.2,262.0 629.8,262.0 633.4,262.0 636.9,268.0 640.5,268.0 644.1,274.0 647.7,274.0 651.3,274.0 654.9,268.0 658.4,268.0 662.0,268.0 665.6,274.0 669.2,274.0 672.8,274.0 676.4,274.0 680.0,268.0 683.5,268.0 687.1,262.0 690.7,262.0 694.3,268.0 697.9,268.0 701.5,268.0 705.0,262.0 708.6,262.0 712.2,274.0 715.8,262.0 719.4,262.0 723.0,262.0 726.5,262.0 730.1,268.0 733.7,268.0 737.3,274.0 740.9,280.0 744.5,280.0 748.0,280.0 751.6,280.0 755.2,280.0 758.8,280.0 762.4,286.0 766.0,286.0 769.6,286.0 773.1,280.0 776.7,274.0 780.3,274.0 783.9,280.0 787.5,274.0 791.1,274.0 794.6,268.0 798.2,268.0 801.8,268.0 805.4,268.0 809.0,280.0 812.6,274.0 816.1,280.0 819.7,280.0 823.3,286.0 826.9,286.0 830.5,286.0 834.1,286.0 837.6,286.0 841.2,286.0 844.8,286.0 848.4,286.0 852.0,286.0 855.6,286.0 859.2,286.0 862.7,286.0 866.3,280.0 869.9,280.0 873.5,280.0 877.1,268.0 880.7,280.0 884.2,268.0 887.8,274.0 891.4,274.0 895.0,286.0 898.6,280.0 902.2,286.0 905.7,280.0 909.3,286.0 912.9,286.0 916.5,286.0 920.1,280.0 923.7,274.0 927.2,280.0 930.8,280.0 934.4,280.0 938.0,274.0"/><polyline fill="none" stroke="#ef4444" stroke-width="2.5" stroke-linejoin="round" stroke-linecap="round" points="42.0,280.0 45.6,280.0 49.2,268.0 52.8,262.0 56.3,286.0 59.9,286.0 63.5,286.0 67.1,286.0 70.7,280.0 74.3,286.0 77.8,286.0 81.4,286.0 85.0,286.0 88.6,286.0 92.2,286.0 95.8,286.0 99.3,286.0 102.9,286.0 106.5,286.0 110.1,286.0 113.7,286.0 117.3,286.0 120.8,286.0 124.4,286.0 128.0,286.0 131.6,286.0 135.2,286.0 138.8,286.0 142.4,286.0 145.9,286.0 149.5,286.0 153.1,286.0 156.7,274.0 160.3,256.0 163.9,286.0 167.4,286.0 171.0,286.0 174.6,286.0 178.2,286.0 181.8,286.0 185.4,286.0 188.9,286.0 192.5,286.0 196.1,286.0 199.7,286.0 203.3,286.0 206.9,286.0 210.4,286.0 214.0,280.0 217.6,286.0 221.2,286.0 224.8,286.0 228.4,286.0 232.0,286.0 235.5,286.0 239.1,286.0 242.7,286.0 246.3,286.0 249.9,286.0 253.5,286.0 257.0,286.0 260.6,286.0 264.2,280.0 267.8,286.0 271.4,286.0 275.0,286.0 278.5,286.0 282.1,286.0 285.7,286.0 289.3,286.0 292.9,286.0 296.5,286.0 300.0,286.0 303.6,286.0 307.2,286.0 310.8,274.0 314.4,274.0 318.0,274.0 321.6,274.0 325.1,274.0 328.7,274.0 332.3,274.0 335.9,274.0 339.5,274.0 343.1,274.0 346.6,274.0 350.2,274.0 353.8,274.0 357.4,274.0 361.0,274.0 364.6,274.0 368.1,274.0 371.7,274.0 375.3,274.0 378.9,274.0 382.5,274.0 386.1,274.0 389.6,274.0 393.2,274.0 396.8,274.0 400.4,274.0 404.0,274.0 407.6,274.0 411.2,274.0 414.7,274.0 418.3,274.0 421.9,274.0 425.5,274.0 429.1,274.0 432.7,274.0 436.2,274.0 439.8,274.0 443.4,274.0 447.0,274.0 450.6,274.0 454.2,274.0 457.7,274.0 461.3,274.0 464.9,274.0 468.5,274.0 472.1,274.0 475.7,274.0 479.2,274.0 482.8,274.0 486.4,274.0 490.0,274.0 493.6,274.0 497.2,274.0 500.8,274.0 504.3,274.0 507.9,274.0 511.5,274.0 515.1,274.0 518.7,274.0 522.3,274.0 525.8,274.0 529.4,274.0 533.0,274.0 536.6,274.0 540.2,274.0 543.8,274.0 547.3,274.0 550.9,274.0 554.5,274.0 558.1,274.0 561.7,274.0 565.3,274.0 568.8,274.0 572.4,274.0 576.0,274.0 579.6,274.0 583.2,268.0 586.8,274.0 590.4,274.0 593.9,274.0 597.5,274.0 601.1,274.0 604.7,274.0 608.3,274.0 611.9,274.0 615.4,274.0 619.0,274.0 622.6,268.0 626.2,274.0 629.8,274.0 633.4,274.0 636.9,274.0 640.5,274.0 644.1,274.0 647.7,274.0 651.3,274.0 654.9,274.0 658.4,274.0 662.0,268.0 665.6,274.0 669.2,274.0 672.8,274.0 676.4,274.0 680.0,274.0 683.5,274.0 687.1,274.0 690.7,274.0 694.3,274.0 697.9,274.0 701.5,274.0 705.0,274.0 708.6,274.0 712.2,250.0 715.8,274.0 719.4,274.0 723.0,274.0 726.5,274.0 730.1,274.0 733.7,274.0 737.3,274.0 740.9,274.0 744.5,274.0 748.0,274.0 751.6,274.0 755.2,274.0 758.8,274.0 762.4,274.0 766.0,274.0 769.6,274.0 773.1,274.0 776.7,268.0 780.3,274.0 783.9,280.0 787.5,286.0 791.1,286.0 794.6,286.0 798.2,286.0 801.8,286.0 805.4,280.0 809.0,280.0 812.6,286.0 816.1,286.0 819.7,280.0 823.3,286.0 826.9,286.0 830.5,286.0 834.1,286.0 837.6,286.0 841.2,280.0 844.8,286.0 848.4,286.0 852.0,286.0 855.6,286.0 859.2,286.0 862.7,286.0 866.3,286.0 869.9,286.0 873.5,286.0 877.1,286.0 880.7,280.0 884.2,280.0 887.8,286.0 891.4,280.0 895.0,286.0 898.6,286.0 902.2,286.0 905.7,286.0 909.3,286.0 912.9,286.0 916.5,286.0 920.1,286.0 923.7,286.0 927.2,286.0 930.8,286.0 934.4,286.0 938.0,286.0"/><polyline fill="none" stroke="#a855f7" stroke-width="2.5" stroke-linejoin="round" stroke-linecap="round" points="42.0,286.0 45.6,286.0 49.2,286.0 52.8,286.0 56.3,286.0 59.9,286.0 63.5,286.0 67.1,286.0 70.7,286.0 74.3,286.0 77.8,286.0 81.4,286.0 85.0,286.0 88.6,286.0 92.2,286.0 95.8,286.0 99.3,286.0 102.9,286.0 106.5,286.0 110.1,286.0 113.7,286.0 117.3,286.0 120.8,286.0 124.4,286.0 128.0,286.0 131.6,286.0 135.2,286.0 138.8,286.0 142.4,286.0 145.9,286.0 149.5,286.0 153.1,286.0 156.7,286.0 160.3,286.0 163.9,286.0 167.4,286.0 171.0,286.0 174.6,286.0 178.2,286.0 181.8,286.0 185.4,286.0 188.9,286.0 192.5,286.0 196.1,286.0 199.7,286.0 203.3,286.0 206.9,286.0 210.4,286.0 214.0,286.0 217.6,286.0 221.2,286.0 224.8,286.0 228.4,286.0 232.0,286.0 235.5,286.0 239.1,286.0 242.7,286.0 246.3,286.0 249.9,286.0 253.5,286.0 257.0,286.0 260.6,286.0 264.2,286.0 267.8,286.0 271.4,286.0 275.0,286.0 278.5,286.0 282.1,286.0 285.7,286.0 289.3,286.0 292.9,280.0 296.5,286.0 300.0,286.0 303.6,286.0 307.2,286.0 310.8,286.0 314.4,286.0 318.0,286.0 321.6,286.0 325.1,286.0 328.7,286.0 332.3,286.0 335.9,286.0 339.5,286.0 343.1,286.0 346.6,286.0 350.2,286.0 353.8,286.0 357.4,286.0 361.0,286.0 364.6,286.0 368.1,286.0 371.7,286.0 375.3,286.0 378.9,286.0 382.5,286.0 386.1,286.0 389.6,286.0 393.2,286.0 396.8,286.0 400.4,286.0 404.0,286.0 407.6,286.0 411.2,286.0 414.7,286.0 418.3,286.0 421.9,286.0 425.5,286.0 429.1,286.0 432.7,286.0 436.2,286.0 439.8,286.0 443.4,286.0 447.0,286.0 450.6,286.0 454.2,286.0 457.7,286.0 461.3,286.0 464.9,286.0 468.5,286.0 472.1,286.0 475.7,286.0 479.2,286.0 482.8,286.0 486.4,286.0 490.0,286.0 493.6,286.0 497.2,286.0 500.8,286.0 504.3,286.0 507.9,286.0 511.5,286.0 515.1,286.0 518.7,286.0 522.3,286.0 525.8,286.0 529.4,286.0 533.0,286.0 536.6,286.0 540.2,286.0 543.8,286.0 547.3,286.0 550.9,286.0 554.5,286.0 558.1,286.0 561.7,286.0 565.3,286.0 568.8,286.0 572.4,286.0 576.0,286.0 579.6,286.0 583.2,286.0 586.8,286.0 590.4,286.0 593.9,286.0 597.5,286.0 601.1,286.0 604.7,280.0 608.3,286.0 611.9,286.0 615.4,286.0 619.0,286.0 622.6,286.0 626.2,286.0 629.8,286.0 633.4,286.0 636.9,286.0 640.5,286.0 644.1,286.0 647.7,286.0 651.3,286.0 654.9,286.0 658.4,286.0 662.0,286.0 665.6,286.0 669.2,286.0 672.8,286.0 676.4,286.0 680.0,286.0 683.5,286.0 687.1,286.0 690.7,286.0 694.3,286.0 697.9,286.0 701.5,286.0 705.0,286.0 708.6,286.0 712.2,286.0 715.8,286.0 719.4,286.0 723.0,286.0 726.5,286.0 730.1,286.0 733.7,286.0 737.3,286.0 740.9,286.0 744.5,286.0 748.0,286.0 751.6,286.0 755.2,286.0 758.8,286.0 762.4,286.0 766.0,286.0 769.6,286.0 773.1,286.0 776.7,286.0 780.3,286.0 783.9,286.0 787.5,286.0 791.1,286.0 794.6,286.0 798.2,286.0 801.8,286.0 805.4,286.0 809.0,286.0 812.6,280.0 816.1,286.0 819.7,286.0 823.3,286.0 826.9,286.0 830.5,286.0 834.1,286.0 837.6,286.0 841.2,286.0 844.8,286.0 848.4,280.0 852.0,286.0 855.6,286.0 859.2,286.0 862.7,286.0 866.3,286.0 869.9,286.0 873.5,286.0 877.1,286.0 880.7,286.0 884.2,286.0 887.8,286.0 891.4,286.0 895.0,286.0 898.6,286.0 902.2,286.0 905.7,286.0 909.3,286.0 912.9,286.0 916.5,286.0 920.1,286.0 923.7,286.0 927.2,286.0 930.8,286.0 934.4,286.0 938.0,286.0"/><text x="42" y="308" font-size="11" fill="#9fb0d4">19/06 12:43</text><text x="938" y="308" text-anchor="end" font-size="11" fill="#9fb0d4">03/07 12:32</text></svg>