<svg xmlns="http://www.w3.org/2000/svg" viewBox="0 0 960 320" width="960" height="320" font-family="Segoe UI, system-ui, -apple-system, Roboto, Helvetica, Arial, sans-serif" role="img" aria-label="Availability history per region"><rect x="0.5" y="0.5" width="959" height="319" rx="14" fill="#ffffff" stroke="#dce3f1"/><text x="42" y="26" font-size="14" font-weight="600" fill="#14203a">History · 180 points</text><circle cx="47" cy="40" r="5" fill="#22c55e"/><text x="57" y="44" font-size="12" fill="#5a688a">Available</text><circle cx="139.8" cy="40" r="5" fill="#f59e0b"/><text x="149.8" y="44" font-size="12" fill="#5a688a">Saturated</text><circle cx="232.60000000000002" cy="40" r="5" fill="#ef4444"/><text x="242.60000000000002" y="44" font-size="12" fill="#5a688a">Error</text><circle cx="296.6" cy="40" r="5" fill="#a855f7"/><text x="306.6" y="44" font-size="12" fill="#5a688a">Timeout</text><line x1="42" y1="286.0" x2="938" y2="286.0" stroke="#eef2f7" stroke-width="1"/><text x="35" y="289.0" text-anchor="end" font-size="11" fill="#5a688a">0</text><line x1="42" y1="227.5" x2="938" y2="227.5" stroke="#eef2f7" stroke-width="1"/><text x="35" y="230.5" text-anchor="end" font-size="11" fill="#5a688a">10</text><line x1="42" y1="169.0" x2="938" y2="169.0" stroke="#eef2f7" stroke-width="1"/><text x="35" y="172.0" text-anchor="end" font-size="11" fill="#5a688a">21</text><line x1="42" y1="110.5" x2="938" y2="110.5" stroke="#eef2f7" stroke-width="1"/><text x="35" y="113.5" text-anchor="end" font-size="11" fill="#5a688a">32</text><line x1="42" y1="52.0" x2="938" y2="52.0" stroke="#eef2f7" stroke-width="1"/><text x="35" y="55.0" text-anchor="end" font-size="11" fill="#5a688a">42</text><polyline fill="none" stroke="#22c55e" stroke-width="2.5" stroke-linejoin="round" stroke-linecap="round" points="42.0,85.4 47.0,230.3 52.0,102.1 57.0,107.7 62.0,102.1 67.0,96.6 72.0,96.6 77.0,96.6 82.0,96.6 87.1,96.6 92.1,96.6 97.1,96.6 102.1,96.6 107.1,96.6 112.1,96.6 117.1,91.0 122.1,91.0 127.1,102.1 132.1,102.1 137.1,102.1 142.1,107.7 147.1,107.7 152.1,107.7 157.1,107.7 162.1,107.7 167.1,107.7 172.1,107.7 177.2,107.7 182.2,107.7 187.2,102.1 192.2,102.1 197.2,102.1 202.2,102.1 207.2,96.6 212.2,96.6 217.2,96.6 222.2,96.6 227.2,96.6 232.2,102.1 237.2,102.1 242.2,102.1 247.2,102.1 252.2,96.6 257.2,96.6 262.2,96.6 267.3,96.6 272.3,96.6 277.3,96.6 282.3,96.6 287.3,102.1 292.3,102.1 297.3,102.1 302.3,102.1 307.3,96.6 312.3,96.6 317.3,96.6 322.3,96.6 327.3,96.6 332.3,96.6 337.3,96.6 342.3,96.6 347.3,102.1 352.3,96.6 357.4,96.6 362.4,96.6 367.4,96.6 372.4,96.6 377.4,102.1 382.4,96.6 387.4,96.6 392.4,96.6 397.4,96.6 402.4,96.6 407.4,96.6 412.4,96.6 417.4,96.6 422.4,96.6 427.4,91.0 432.4,91.0 437.4,91.0 442.4,91.0 447.5,96.6 452.5,91.0 457.5,96.6 462.5,96.6 467.5,96.6 472.5,96.6 477.5,96.6 482.5,96.6 487.5,102.1 492.5,107.7 497.5,107.7 502.5,107.7 507.5,107.7 512.5,107.7 517.5,107.7 522.5,107.7 527.5,113.3 532.5,107.7 537.6,107.7 542.6,107.7 547.6,107.7 552.6,107.7 557.6,107.7 562.6,102.1 567.6,102.1 572.6,102.1 577.6,102.1 582.6,102.1 587.6,102.1 592.6,102.1 597.6,102.1 602.6,107.7 607.6,107.7 612.6,107.7 617.6,107.7 622.6,107.7 627.7,107.7 632.7,107.7 637.7,107.7 642.7,113.3 647.7,107.7 652.7,107.7 657.7,107.7 662.7,118.9 667.7,107.7 672.7,107.7 677.7,107.7 682.7,107.7 687.7,102.1 692.7,102.1 697.7,102.1 702.7,102.1 707.7,107.7 712.7,102.1 717.8,107.7 722.8,107.7 727.8,107.7 732.8,107.7 737.8,113.3 742.8,107.7 747.8,107.7 752.8,107.7 757.8,107.7 762.8,107.7 767.8,107.7 772.8,107.7 777.8,107.7 782.8,113.3 787.8,102.1 792.8,102.1 797.8,102.1 802.8,102.1 807.9,102.1 812.9,102.1 817.9,102.1 822.9,102.1 827.9,102.1 832.9,102.1 837.9,107.7 842.9,102.1 847.9,102.1 852.9,102.1 857.9,102.1 862.9,102.1 867.9,102.1 872.9,102.1 877.9,102.1 882.9,107.7 887.9,91.0 892.9,85.4 898.0,79.9 903.0,79.9 908.0,79.9 913.0,79.9 918.0,79.9 923.0,79.9 928.0,79.9 933.0,91.0 938.0,96.6"/><polyline fill="none" stroke="#f59e0b" stroke-width="2.5" stroke-linejoin="round" stroke-linecap="round" points="42.0,274.9 47.0,269.3 52.0,258.1 57.0,252.6 62.0,258.1 67.0,263.7 72.0,263.7 77.0,263.7 82.0,263.7 87.1,263.7 92.1,263.7 97.1,263.7 102.1,263.7 107.1,263.7 112.1,263.7 117.1,269.3 122.1,269.3 127.1,263.7 132.1,258.1 137.1,258.1 142.1,252.6 147.1,252.6 152.1,252.6 157.1,252.6 162.1,252.6 167.1,252.6 172.1,252.6 177.2,252.6 182.2,252.6 187.2,258.1 192.2,258.1 197.2,258.1 202.2,258.1 207.2,263.7 212.2,263.7 217.2,263.7 222.2,263.7 227.2,263.7 232.2,258.1 237.2,258.1 242.2,258.1 247.2,258.1 252.2,263.7 257.2,263.7 262.2,263.7 267.3,263.7 272.3,263.7 277.3,263.7 282.3,263.7 287.3,258.1 292.3,258.1 297.3,258.1 302.3,263.7 307.3,263.7 312.3,263.7 317.3,263.7 322.3,263.7 327.3,263.7 332.3,263.7 337.3,263.7 342.3,263.7 347.3,258.1 352.3,263.7 357.4,263.7 362.4,263.7 367.4,263.7 372.4,263.7 377.4,263.7 382.4,263.7 387.4,263.7 392.4,263.7 397.4,263.7 402.4,263.7 407.4,263.7 412.4,263.7 417.4,263.7 422.4,263.7 427.4,269.3 432.4,269.3 437.4,269.3 442.4,269.3 447.5,269.3 452.5,269.3 457.5,263.7 462.5,263.7 467.5,263.7 472.5,263.7 477.5,263.7 482.5,263.7 487.5,258.1 492.5,252.6 497.5,252.6 502.5,258.1 507.5,252.6 512.5,252.6 517.5,252.6 522.5,252.6 527.5,252.6 532.5,252.6 537.6,258.1 542.6,252.6 547.6,252.6 552.6,252.6 557.6,252.6 562.6,258.1 567.6,258.1 572.6,258.1 577.6,258.1 582.6,258.1 587.6,258.1 592.6,258.1 597.6,258.1 602.6,252.6 607.6,252.6 612.6,252.6 617.6,252.6 622.6,252.6 627.7,252.6 632.7,252.6 637.7,258.1 642.7,252.6 647.7,252.6 652.7,252.6 657.7,252.6 662.7,252.6 667.7,252.6 672.7,252.6 677.7,258.1 682.7,258.1 687.7,258.1 692.7,258.1 697.7,258.1 702.7,258.1 707.7,258.1 712.7,258.1 717.8,252.6 722.8,252.6 727.8,252.6 732.8,252.6 737.8,252.6 742.8,252.6 747.8,252.6 752.8,252.6 757.8,252.6 762.8,252.6 767.8,252.6 772.8,252.6 777.8,252.6 782.8,252.6 787.8,258.1 792.8,258.1 797.8,258.1 802.8,258.1 807.9,258.1 812.9,263.7 817.9,263.7 822.9,258.1 827.9,258.1 832.9,258.1 837.9,258.1 842.9,258.1 847.9,258.1 852.9,258.1 857.9,258.1 862.9,258.1 867.9,258.1 872.9,258.1 877.9,258.1 882.9,258.1 887.9,258.1 892.9,258.1 898.0,258.1 903.0,258.1 908.0,258.1 913.0,258.1 918.0,258.1 923.0,258.1 928.0,258.1 933.0,258.1 938.0,258.1"/><polyline fill="none" stroke="#ef4444" stroke-width="2.5" stroke-linejoin="round" stroke-linecap="round" points="42.0,286.0 47.0,146.7 52.0,286.0 57.0,286.0 62.0,286.0 67.0,286.0 72.0,286.0 77.0,286.0 82.0,286.0 87.1,286.0 92.1,286.0 97.1,286.0 102.1,286.0 107.1,286.0 112.1,286.0 117.1,286.0 122.1,286.0 127.1,280.4 132.1,286.0 137.1,286.0 142.1,286.0 147.1,286.0 152.1,286.0 157.1,286.0 162.1,286.0 167.1,286.0 172.1,286.0 177.2,286.0 182.2,286.0 187.2,286.0 192.2,286.0 197.2,286.0 202.2,286.0 207.2,286.0 212.2,286.0 217.2,286.0 222.2,286.0 227.2,286.0 232.2,286.0 237.2,286.0 242.2,286.0 247.2,286.0 252.2,286.0 257.2,286.0 262.2,286.0 267.3,286.0 272.3,286.0 277.3,286.0 282.3,286.0 287.3,286.0 292.3,286.0 297.3,286.0 302.3,286.0 307.3,286.0 312.3,286.0 317.3,286.0 322.3,286.0 327.3,286.0 332.3,286.0 337.3,286.0 342.3,286.0 347.3,286.0 352.3,286.0 357.4,286.0 362.4,286.0 367.4,286.0 372.4,286.0 377.4,280.4 382.4,286.0 387.4,286.0 392.4,286.0 397.4,286.0 402.4,286.0 407.4,286.0 412.4,286.0 417.4,286.0 422.4,286.0 427.4,286.0 432.4,286.0 437.4,286.0 442.4,286.0 447.5,280.4 452.5,286.0 457.5,286.0 462.5,286.0 467.5,286.0 472.5,286.0 477.5,286.0 482.5,286.0 487.5,286.0 492.5,286.0 497.5,286.0 502.5,280.4 507.5,286.0 512.5,286.0 517.5,286.0 522.5,286.0 527.5,280.4 532.5,286.0 537.6,286.0 542.6,286.0 547.6,286.0 552.6,286.0 557.6,286.0 562.6,286.0 567.6,286.0 572.6,286.0 577.6,286.0 582.6,286.0 587.6,286.0 592.6,286.0 597.6,286.0 602.6,286.0 607.6,286.0 612.6,286.0 617.6,286.0 622.6,286.0 627.7,286.0 632.7,286.0 637.7,286.0 642.7,280.4 647.7,286.0 652.7,286.0 657.7,286.0 662.7,274.9 667.7,286.0 672.7,286.0 677.7,280.4 682.7,280.4 687.7,286.0 692.7,286.0 697.7,286.0 702.7,286.0 707.7,280.4 712.7,286.0 717.8,286.0 722.8,286.0 727.8,286.0 732.8,286.0 737.8,286.0 742.8,286.0 747.8,286.0 752.8,286.0 757.8,286.0 762.8,286.0 767.8,286.0 772.8,286.0 777.8,286.0 782.8,286.0 787.8,286.0 792.8,286.0 797.8,286.0 802.8,286.0 807.9,286.0 812.9,280.4 817.9,286.0 822.9,286.0 827.9,286.0 832.9,263.7 837.9,280.4 842.9,286.0 847.9,286.0 852.9,286.0 857.9,286.0 862.9,286.0 867.9,286.0 872.9,286.0 877.9,286.0 882.9,258.1 887.9,274.9 892.9,280.4 898.0,286.0 903.0,286.0 908.0,286.0 913.0,286.0 918.0,286.0 923.0,286.0 928.0,286.0 933.0,274.9 938.0,269.3"/><polyline fill="none" stroke="#a855f7" stroke-width="2.5" stroke-linejoin="round" stroke-linecap="round" points="42.0,286.0 47.0,286.0 52.0,286.0 57.0,286.0 62.0,286.0 67.0,286.0 72.0,286.0 77.0,286.0 82.0,286.0 87.1,286.0 92.1,286.0 97.1,286.0 102.1,286.0 107.1,286.0 112.1,286.0 117.1,286.0 122.1,286.0 127.1,286.0 132.1,286.0 137.1,286.0 142.1,286.0 147.1,286.0 152.1,286.0 157.1,286.0 162.1,286.0 167.1,286.0 172.1,286.0 177.2,286.0 182.2,286.0 187.2,286.0 192.2,286.0 197.2,286.0 202.2,286.0 207.2,286.0 212.2,286.0 217.2,286.0 222.2,286.0 227.2,286.0 232.2,286.0 237.2,286.0 242.2,286.0 247.2,286.0 252.2,286.0 257.2,286.0 262.2,286.0 267.3,286.0 272.3,286.0 277.3,286.0 282.3,286.0 287.3,286.0 292.3,286.0 297.3,286.0 302.3,280.4 307.3,286.0 312.3,286.0 317.3,286.0 322.3,286.0 327.3,286.0 332.3,286.0 337.3,286.0 342.3,286.0 347.3,286.0 352.3,286.0 357.4,286.0 362.4,286.0 367.4,286.0 372.4,286.0 377.4,286.0 382.4,286.0 387.4,286.0 392.4,286.0 397.4,286.0 402.4,286.0 407.4,286.0 412.4,286.0 417.4,286.0 422.4,286.0 427.4,286.0 432.4,286.0 437.4,286.0 442.4,286.0 447.5,286.0 452.5,286.0 457.5,286.0 462.5,286.0 467.5,286.0 472.5,286.0 477.5,286.0 482.5,286.0 487.5,286.0 492.5,286.0 497.5,286.0 502.5,286.0 507.5,286.0 512.5,286.0 517.5,286.0 522.5,286.0 527.5,286.0 532.5,286.0 537.6,280.4 542.6,286.0 547.6,286.0 552.6,286.0 557.6,286.0 562.6,286.0 567.6,286.0 572.6,286.0 577.6,286.0 582.6,286.0 587.6,286.0 592.6,286.0 597.6,286.0 602.6,286.0 607.6,286.0 612.6,286.0 617.6,286.0 622.6,286.0 627.7,286.0 632.7,286.0 637.7,280.4 642.7,286.0 647.7,286.0 652.7,286.0 657.7,286.0 662.7,286.0 667.7,286.0 672.7,286.0 677.7,286.0 682.7,286.0 687.7,286.0 692.7,286.0 697.7,286.0 702.7,286.0 707.7,286.0 712.7,286.0 717.8,286.0 722.8,286.0 727.8,286.0 732.8,286.0 737.8,280.4 742.8,286.0 747.8,286.0 752.8,286.0 757.8,286.0 762.8,286.0 767.8,286.0 772.8,286.0 777.8,286.0 782.8,280.4 787.8,286.0 792.8,286.0 797.8,286.0 802.8,286.0 807.9,286.0 812.9,286.0 817.9,280.4 822.9,286.0 827.9,286.0 832.9,286.0 837.9,286.0 842.9,286.0 847.9,286.0 852.9,286.0 857.9,286.0 862.9,286.0 867.9,286.0 872.9,286.0 877.9,286.0 882.9,286.0 887.9,286.0 892.9,286.0 898.0,286.0 903.0,286.0 908.0,286.0 913.0,286.0 918.0,286.0 923.0,286.0 928.0,286.0 933.0,286.0 938.0,286.0"/><text x="42" y="308" font-size="11" fill="#5a688a">19/06 15:39</text><text x="938" y="308" text-anchor="end" font-size="11" fill="#5a688a">24/07 02:30</text></svg>