<svg xmlns="http://www.w3.org/2000/svg" viewBox="0 0 960 320" width="960" height="320" font-family="Segoe UI, system-ui, -apple-system, Roboto, Helvetica, Arial, sans-serif" role="img" aria-label="Availability history per region"><rect x="0.5" y="0.5" width="959" height="319" rx="14" fill="#0d1117" stroke="#2c3a5e"/><text x="42" y="26" font-size="14" font-weight="600" fill="#e6ecff">History · 47 points</text><circle cx="47" cy="40" r="5" fill="#22c55e"/><text x="57" y="44" font-size="12" fill="#9fb0d4">Available</text><circle cx="139.8" cy="40" r="5" fill="#f59e0b"/><text x="149.8" y="44" font-size="12" fill="#9fb0d4">Saturated</text><circle cx="232.60000000000002" cy="40" r="5" fill="#ef4444"/><text x="242.60000000000002" y="44" font-size="12" fill="#9fb0d4">Error</text><line x1="42" y1="286.0" x2="938" y2="286.0" stroke="#21304f" stroke-width="1"/><text x="35" y="289.0" text-anchor="end" font-size="11" fill="#9fb0d4">0</text><line x1="42" y1="227.5" x2="938" y2="227.5" stroke="#21304f" stroke-width="1"/><text x="35" y="230.5" text-anchor="end" font-size="11" fill="#9fb0d4">10</text><line x1="42" y1="169.0" x2="938" y2="169.0" stroke="#21304f" stroke-width="1"/><text x="35" y="172.0" text-anchor="end" font-size="11" fill="#9fb0d4">19</text><line x1="42" y1="110.5" x2="938" y2="110.5" stroke="#21304f" stroke-width="1"/><text x="35" y="113.5" text-anchor="end" font-size="11" fill="#9fb0d4">28</text><line x1="42" y1="52.0" x2="938" y2="52.0" stroke="#21304f" stroke-width="1"/><text x="35" y="55.0" text-anchor="end" font-size="11" fill="#9fb0d4">38</text><polyline fill="none" stroke="#22c55e" stroke-width="2.5" stroke-linejoin="round" stroke-linecap="round" points="42.0,64.3 61.5,224.4 81.0,82.8 100.4,88.9 119.9,82.8 139.4,76.6 158.9,76.6 178.3,76.6 197.8,76.6 217.3,76.6 236.8,76.6 256.3,76.6 275.7,76.6 295.2,76.6 314.7,76.6 334.2,70.5 353.7,70.5 373.1,82.8 392.6,82.8 412.1,82.8 431.6,88.9 451.0,88.9 470.5,88.9 490.0,88.9 509.5,88.9 529.0,88.9 548.4,88.9 567.9,88.9 587.4,88.9 606.9,82.8 626.3,82.8 645.8,82.8 665.3,82.8 684.8,76.6 704.3,76.6 723.7,76.6 743.2,76.6 762.7,76.6 782.2,82.8 801.7,82.8 821.1,82.8 840.6,82.8 860.1,76.6 879.6,76.6 899.0,76.6 918.5,76.6 938.0,76.6"/><circle cx="42.0" cy="64.3" r="2.5" fill="#22c55e"/><circle cx="61.5" cy="224.4" r="2.5" fill="#22c55e"/><circle cx="81.0" cy="82.8" r="2.5" fill="#22c55e"/><circle cx="100.4" cy="88.9" r="2.5" fill="#22c55e"/><circle cx="119.9" cy="82.8" r="2.5" fill="#22c55e"/><circle cx="139.4" cy="76.6" r="2.5" fill="#22c55e"/><circle cx="158.9" cy="76.6" r="2.5" fill="#22c55e"/><circle cx="178.3" cy="76.6" r="2.5" fill="#22c55e"/><circle cx="197.8" cy="76.6" r="2.5" fill="#22c55e"/><circle cx="217.3" cy="76.6" r="2.5" fill="#22c55e"/><circle cx="236.8" cy="76.6" r="2.5" fill="#22c55e"/><circle cx="256.3" cy="76.6" r="2.5" fill="#22c55e"/><circle cx="275.7" cy="76.6" r="2.5" fill="#22c55e"/><circle cx="295.2" cy="76.6" r="2.5" fill="#22c55e"/><circle cx="314.7" cy="76.6" r="2.5" fill="#22c55e"/><circle cx="334.2" cy="70.5" r="2.5" fill="#22c55e"/><circle cx="353.7" cy="70.5" r="2.5" fill="#22c55e"/><circle cx="373.1" cy="82.8" r="2.5" fill="#22c55e"/><circle cx="392.6" cy="82.8" r="2.5" fill="#22c55e"/><circle cx="412.1" cy="82.8" r="2.5" fill="#22c55e"/><circle cx="431.6" cy="88.9" r="2.5" fill="#22c55e"/><circle cx="451.0" cy="88.9" r="2.5" fill="#22c55e"/><circle cx="470.5" cy="88.9" r="2.5" fill="#22c55e"/><circle cx="490.0" cy="88.9" r="2.5" fill="#22c55e"/><circle cx="509.5" cy="88.9" r="2.5" fill="#22c55e"/><circle cx="529.0" cy="88.9" r="2.5" fill="#22c55e"/><circle cx="548.4" cy="88.9" r="2.5" fill="#22c55e"/><circle cx="567.9" cy="88.9" r="2.5" fill="#22c55e"/><circle cx="587.4" cy="88.9" r="2.5" fill="#22c55e"/><circle cx="606.9" cy="82.8" r="2.5" fill="#22c55e"/><circle cx="626.3" cy="82.8" r="2.5" fill="#22c55e"/><circle cx="645.8" cy="82.8" r="2.5" fill="#22c55e"/><circle cx="665.3" cy="82.8" r="2.5" fill="#22c55e"/><circle cx="684.8" cy="76.6" r="2.5" fill="#22c55e"/><circle cx="704.3" cy="76.6" r="2.5" fill="#22c55e"/><circle cx="723.7" cy="76.6" r="2.5" fill="#22c55e"/><circle cx="743.2" cy="76.6" r="2.5" fill="#22c55e"/><circle cx="762.7" cy="76.6" r="2.5" fill="#22c55e"/><circle cx="782.2" cy="82.8" r="2.5" fill="#22c55e"/><circle cx="801.7" cy="82.8" r="2.5" fill="#22c55e"/><circle cx="821.1" cy="82.8" r="2.5" fill="#22c55e"/><circle cx="840.6" cy="82.8" r="2.5" fill="#22c55e"/><circle cx="860.1" cy="76.6" r="2.5" fill="#22c55e"/><circle cx="879.6" cy="76.6" r="2.5" fill="#22c55e"/><circle cx="899.0" cy="76.6" r="2.5" fill="#22c55e"/><circle cx="918.5" cy="76.6" r="2.5" fill="#22c55e"/><circle cx="938.0" cy="76.6" r="2.5" fill="#22c55e"/><polyline fill="none" stroke="#f59e0b" stroke-width="2.5" stroke-linejoin="round" stroke-linecap="round" points="42.0,273.7 61.5,267.5 81.0,255.2 100.4,249.1 119.9,255.2 139.4,261.4 158.9,261.4 178.3,261.4 197.8,261.4 217.3,261.4 236.8,261.4 256.3,261.4 275.7,261.4 295.2,261.4 314.7,261.4 334.2,267.5 353.7,267.5 373.1,261.4 392.6,255.2 412.1,255.2 431.6,249.1 451.0,249.1 470.5,249.1 490.0,249.1 509.5,249.1 529.0,249.1 548.4,249.1 567.9,249.1 587.4,249.1 606.9,255.2 626.3,255.2 645.8,255.2 665.3,255.2 684.8,261.4 704.3,261.4 723.7,261.4 743.2,261.4 762.7,261.4 782.2,255.2 801.7,255.2 821.1,255.2 840.6,255.2 860.1,261.4 879.6,261.4 899.0,261.4 918.5,261.4 938.0,261.4"/><circle cx="42.0" cy="273.7" r="2.5" fill="#f59e0b"/><circle cx="61.5" cy="267.5" r="2.5" fill="#f59e0b"/><circle cx="81.0" cy="255.2" r="2.5" fill="#f59e0b"/><circle cx="100.4" cy="249.1" r="2.5" fill="#f59e0b"/><circle cx="119.9" cy="255.2" r="2.5" fill="#f59e0b"/><circle cx="139.4" cy="261.4" r="2.5" fill="#f59e0b"/><circle cx="158.9" cy="261.4" r="2.5" fill="#f59e0b"/><circle cx="178.3" cy="261.4" r="2.5" fill="#f59e0b"/><circle cx="197.8" cy="261.4" r="2.5" fill="#f59e0b"/><circle cx="217.3" cy="261.4" r="2.5" fill="#f59e0b"/><circle cx="236.8" cy="261.4" r="2.5" fill="#f59e0b"/><circle cx="256.3" cy="261.4" r="2.5" fill="#f59e0b"/><circle cx="275.7" cy="261.4" r="2.5" fill="#f59e0b"/><circle cx="295.2" cy="261.4" r="2.5" fill="#f59e0b"/><circle cx="314.7" cy="261.4" r="2.5" fill="#f59e0b"/><circle cx="334.2" cy="267.5" r="2.5" fill="#f59e0b"/><circle cx="353.7" cy="267.5" r="2.5" fill="#f59e0b"/><circle cx="373.1" cy="261.4" r="2.5" fill="#f59e0b"/><circle cx="392.6" cy="255.2" r="2.5" fill="#f59e0b"/><circle cx="412.1" cy="255.2" r="2.5" fill="#f59e0b"/><circle cx="431.6" cy="249.1" r="2.5" fill="#f59e0b"/><circle cx="451.0" cy="249.1" r="2.5" fill="#f59e0b"/><circle cx="470.5" cy="249.1" r="2.5" fill="#f59e0b"/><circle cx="490.0" cy="249.1" r="2.5" fill="#f59e0b"/><circle cx="509.5" cy="249.1" r="2.5" fill="#f59e0b"/><circle cx="529.0" cy="249.1" r="2.5" fill="#f59e0b"/><circle cx="548.4" cy="249.1" r="2.5" fill="#f59e0b"/><circle cx="567.9" cy="249.1" r="2.5" fill="#f59e0b"/><circle cx="587.4" cy="249.1" r="2.5" fill="#f59e0b"/><circle cx="606.9" cy="255.2" r="2.5" fill="#f59e0b"/><circle cx="626.3" cy="255.2" r="2.5" fill="#f59e0b"/><circle cx="645.8" cy="255.2" r="2.5" fill="#f59e0b"/><circle cx="665.3" cy="255.2" r="2.5" fill="#f59e0b"/><circle cx="684.8" cy="261.4" r="2.5" fill="#f59e0b"/><circle cx="704.3" cy="261.4" r="2.5" fill="#f59e0b"/><circle cx="723.7" cy="261.4" r="2.5" fill="#f59e0b"/><circle cx="743.2" cy="261.4" r="2.5" fill="#f59e0b"/><circle cx="762.7" cy="261.4" r="2.5" fill="#f59e0b"/><circle cx="782.2" cy="255.2" r="2.5" fill="#f59e0b"/><circle cx="801.7" cy="255.2" r="2.5" fill="#f59e0b"/><circle cx="821.1" cy="255.2" r="2.5" fill="#f59e0b"/><circle cx="840.6" cy="255.2" r="2.5" fill="#f59e0b"/><circle cx="860.1" cy="261.4" r="2.5" fill="#f59e0b"/><circle cx="879.6" cy="261.4" r="2.5" fill="#f59e0b"/><circle cx="899.0" cy="261.4" r="2.5" fill="#f59e0b"/><circle cx="918.5" cy="261.4" r="2.5" fill="#f59e0b"/><circle cx="938.0" cy="261.4" r="2.5" fill="#f59e0b"/><polyline fill="none" stroke="#ef4444" stroke-width="2.5" stroke-linejoin="round" stroke-linecap="round" points="42.0,286.0 61.5,132.1 81.0,286.0 100.4,286.0 119.9,286.0 139.4,286.0 158.9,286.0 178.3,286.0 197.8,286.0 217.3,286.0 236.8,286.0 256.3,286.0 275.7,286.0 295.2,286.0 314.7,286.0 334.2,286.0 353.7,286.0 373.1,279.8 392.6,286.0 412.1,286.0 431.6,286.0 451.0,286.0 470.5,286.0 490.0,286.0 509.5,286.0 529.0,286.0 548.4,286.0 567.9,286.0 587.4,286.0 606.9,286.0 626.3,286.0 645.8,286.0 665.3,286.0 684.8,286.0 704.3,286.0 723.7,286.0 743.2,286.0 762.7,286.0 782.2,286.0 801.7,286.0 821.1,286.0 840.6,286.0 860.1,286.0 879.6,286.0 899.0,286.0 918.5,286.0 938.0,286.0"/><circle cx="42.0" cy="286.0" r="2.5" fill="#ef4444"/><circle cx="61.5" cy="132.1" r="2.5" fill="#ef4444"/><circle cx="81.0" cy="286.0" r="2.5" fill="#ef4444"/><circle cx="100.4" cy="286.0" r="2.5" fill="#ef4444"/><circle cx="119.9" cy="286.0" r="2.5" fill="#ef4444"/><circle cx="139.4" cy="286.0" r="2.5" fill="#ef4444"/><circle cx="158.9" cy="286.0" r="2.5" fill="#ef4444"/><circle cx="178.3" cy="286.0" r="2.5" fill="#ef4444"/><circle cx="197.8" cy="286.0" r="2.5" fill="#ef4444"/><circle cx="217.3" cy="286.0" r="2.5" fill="#ef4444"/><circle cx="236.8" cy="286.0" r="2.5" fill="#ef4444"/><circle cx="256.3" cy="286.0" r="2.5" fill="#ef4444"/><circle cx="275.7" cy="286.0" r="2.5" fill="#ef4444"/><circle cx="295.2" cy="286.0" r="2.5" fill="#ef4444"/><circle cx="314.7" cy="286.0" r="2.5" fill="#ef4444"/><circle cx="334.2" cy="286.0" r="2.5" fill="#ef4444"/><circle cx="353.7" cy="286.0" r="2.5" fill="#ef4444"/><circle cx="373.1" cy="279.8" r="2.5" fill="#ef4444"/><circle cx="392.6" cy="286.0" r="2.5" fill="#ef4444"/><circle cx="412.1" cy="286.0" r="2.5" fill="#ef4444"/><circle cx="431.6" cy="286.0" r="2.5" fill="#ef4444"/><circle cx="451.0" cy="286.0" r="2.5" fill="#ef4444"/><circle cx="470.5" cy="286.0" r="2.5" fill="#ef4444"/><circle cx="490.0" cy="286.0" r="2.5" fill="#ef4444"/><circle cx="509.5" cy="286.0" r="2.5" fill="#ef4444"/><circle cx="529.0" cy="286.0" r="2.5" fill="#ef4444"/><circle cx="548.4" cy="286.0" r="2.5" fill="#ef4444"/><circle cx="567.9" cy="286.0" r="2.5" fill="#ef4444"/><circle cx="587.4" cy="286.0" r="2.5" fill="#ef4444"/><circle cx="606.9" cy="286.0" r="2.5" fill="#ef4444"/><circle cx="626.3" cy="286.0" r="2.5" fill="#ef4444"/><circle cx="645.8" cy="286.0" r="2.5" fill="#ef4444"/><circle cx="665.3" cy="286.0" r="2.5" fill="#ef4444"/><circle cx="684.8" cy="286.0" r="2.5" fill="#ef4444"/><circle cx="704.3" cy="286.0" r="2.5" fill="#ef4444"/><circle cx="723.7" cy="286.0" r="2.5" fill="#ef4444"/><circle cx="743.2" cy="286.0" r="2.5" fill="#ef4444"/><circle cx="762.7" cy="286.0" r="2.5" fill="#ef4444"/><circle cx="782.2" cy="286.0" r="2.5" fill="#ef4444"/><circle cx="801.7" cy="286.0" r="2.5" fill="#ef4444"/><circle cx="821.1" cy="286.0" r="2.5" fill="#ef4444"/><circle cx="840.6" cy="286.0" r="2.5" fill="#ef4444"/><circle cx="860.1" cy="286.0" r="2.5" fill="#ef4444"/><circle cx="879.6" cy="286.0" r="2.5" fill="#ef4444"/><circle cx="899.0" cy="286.0" r="2.5" fill="#ef4444"/><circle cx="918.5" cy="286.0" r="2.5" fill="#ef4444"/><circle cx="938.0" cy="286.0" r="2.5" fill="#ef4444"/><text x="42" y="308" font-size="11" fill="#9fb0d4">19/06 15:39</text><text x="938" y="308" text-anchor="end" font-size="11" fill="#9fb0d4">18/07 12:31</text></svg>