<svg xmlns="http://www.w3.org/2000/svg" viewBox="0 0 960 320" width="960" height="320" font-family="Segoe UI, system-ui, -apple-system, Roboto, Helvetica, Arial, sans-serif" role="img" aria-label="Availability history per region"><rect x="0.5" y="0.5" width="959" height="319" rx="14" fill="#ffffff" stroke="#dce3f1"/><text x="42" y="26" font-size="14" font-weight="600" fill="#14203a">History · 37 points</text><circle cx="47" cy="40" r="5" fill="#22c55e"/><text x="57" y="44" font-size="12" fill="#5a688a">Available</text><circle cx="139.8" cy="40" r="5" fill="#f59e0b"/><text x="149.8" y="44" font-size="12" fill="#5a688a">Saturated</text><circle cx="232.60000000000002" cy="40" r="5" fill="#ef4444"/><text x="242.60000000000002" y="44" font-size="12" fill="#5a688a">Error</text><line x1="42" y1="286.0" x2="938" y2="286.0" stroke="#eef2f7" stroke-width="1"/><text x="35" y="289.0" text-anchor="end" font-size="11" fill="#5a688a">0</text><line x1="42" y1="227.5" x2="938" y2="227.5" stroke="#eef2f7" stroke-width="1"/><text x="35" y="230.5" text-anchor="end" font-size="11" fill="#5a688a">10</text><line x1="42" y1="169.0" x2="938" y2="169.0" stroke="#eef2f7" stroke-width="1"/><text x="35" y="172.0" text-anchor="end" font-size="11" fill="#5a688a">19</text><line x1="42" y1="110.5" x2="938" y2="110.5" stroke="#eef2f7" stroke-width="1"/><text x="35" y="113.5" text-anchor="end" font-size="11" fill="#5a688a">28</text><line x1="42" y1="52.0" x2="938" y2="52.0" stroke="#eef2f7" stroke-width="1"/><text x="35" y="55.0" text-anchor="end" font-size="11" fill="#5a688a">38</text><polyline fill="none" stroke="#22c55e" stroke-width="2.5" stroke-linejoin="round" stroke-linecap="round" points="42.0,64.3 66.9,224.4 91.8,82.8 116.7,88.9 141.6,82.8 166.4,76.6 191.3,76.6 216.2,76.6 241.1,76.6 266.0,76.6 290.9,76.6 315.8,76.6 340.7,76.6 365.6,76.6 390.4,76.6 415.3,70.5 440.2,70.5 465.1,82.8 490.0,82.8 514.9,82.8 539.8,88.9 564.7,88.9 589.6,88.9 614.4,88.9 639.3,88.9 664.2,88.9 689.1,88.9 714.0,88.9 738.9,88.9 763.8,82.8 788.7,82.8 813.6,82.8 838.4,82.8 863.3,76.6 888.2,76.6 913.1,76.6 938.0,76.6"/><circle cx="42.0" cy="64.3" r="2.5" fill="#22c55e"/><circle cx="66.9" cy="224.4" r="2.5" fill="#22c55e"/><circle cx="91.8" cy="82.8" r="2.5" fill="#22c55e"/><circle cx="116.7" cy="88.9" r="2.5" fill="#22c55e"/><circle cx="141.6" cy="82.8" r="2.5" fill="#22c55e"/><circle cx="166.4" cy="76.6" r="2.5" fill="#22c55e"/><circle cx="191.3" cy="76.6" r="2.5" fill="#22c55e"/><circle cx="216.2" cy="76.6" r="2.5" fill="#22c55e"/><circle cx="241.1" cy="76.6" r="2.5" fill="#22c55e"/><circle cx="266.0" cy="76.6" r="2.5" fill="#22c55e"/><circle cx="290.9" cy="76.6" r="2.5" fill="#22c55e"/><circle cx="315.8" cy="76.6" r="2.5" fill="#22c55e"/><circle cx="340.7" cy="76.6" r="2.5" fill="#22c55e"/><circle cx="365.6" cy="76.6" r="2.5" fill="#22c55e"/><circle cx="390.4" cy="76.6" r="2.5" fill="#22c55e"/><circle cx="415.3" cy="70.5" r="2.5" fill="#22c55e"/><circle cx="440.2" cy="70.5" r="2.5" fill="#22c55e"/><circle cx="465.1" cy="82.8" r="2.5" fill="#22c55e"/><circle cx="490.0" cy="82.8" r="2.5" fill="#22c55e"/><circle cx="514.9" cy="82.8" r="2.5" fill="#22c55e"/><circle cx="539.8" cy="88.9" r="2.5" fill="#22c55e"/><circle cx="564.7" cy="88.9" r="2.5" fill="#22c55e"/><circle cx="589.6" cy="88.9" r="2.5" fill="#22c55e"/><circle cx="614.4" cy="88.9" r="2.5" fill="#22c55e"/><circle cx="639.3" cy="88.9" r="2.5" fill="#22c55e"/><circle cx="664.2" cy="88.9" r="2.5" fill="#22c55e"/><circle cx="689.1" cy="88.9" r="2.5" fill="#22c55e"/><circle cx="714.0" cy="88.9" r="2.5" fill="#22c55e"/><circle cx="738.9" cy="88.9" r="2.5" fill="#22c55e"/><circle cx="763.8" cy="82.8" r="2.5" fill="#22c55e"/><circle cx="788.7" cy="82.8" r="2.5" fill="#22c55e"/><circle cx="813.6" cy="82.8" r="2.5" fill="#22c55e"/><circle cx="838.4" cy="82.8" r="2.5" fill="#22c55e"/><circle cx="863.3" cy="76.6" r="2.5" fill="#22c55e"/><circle cx="888.2" cy="76.6" r="2.5" fill="#22c55e"/><circle cx="913.1" cy="76.6" r="2.5" fill="#22c55e"/><circle cx="938.0" cy="76.6" r="2.5" fill="#22c55e"/><polyline fill="none" stroke="#f59e0b" stroke-width="2.5" stroke-linejoin="round" stroke-linecap="round" points="42.0,273.7 66.9,267.5 91.8,255.2 116.7,249.1 141.6,255.2 166.4,261.4 191.3,261.4 216.2,261.4 241.1,261.4 266.0,261.4 290.9,261.4 315.8,261.4 340.7,261.4 365.6,261.4 390.4,261.4 415.3,267.5 440.2,267.5 465.1,261.4 490.0,255.2 514.9,255.2 539.8,249.1 564.7,249.1 589.6,249.1 614.4,249.1 639.3,249.1 664.2,249.1 689.1,249.1 714.0,249.1 738.9,249.1 763.8,255.2 788.7,255.2 813.6,255.2 838.4,255.2 863.3,261.4 888.2,261.4 913.1,261.4 938.0,261.4"/><circle cx="42.0" cy="273.7" r="2.5" fill="#f59e0b"/><circle cx="66.9" cy="267.5" r="2.5" fill="#f59e0b"/><circle cx="91.8" cy="255.2" r="2.5" fill="#f59e0b"/><circle cx="116.7" cy="249.1" r="2.5" fill="#f59e0b"/><circle cx="141.6" cy="255.2" r="2.5" fill="#f59e0b"/><circle cx="166.4" cy="261.4" r="2.5" fill="#f59e0b"/><circle cx="191.3" cy="261.4" r="2.5" fill="#f59e0b"/><circle cx="216.2" cy="261.4" r="2.5" fill="#f59e0b"/><circle cx="241.1" cy="261.4" r="2.5" fill="#f59e0b"/><circle cx="266.0" cy="261.4" r="2.5" fill="#f59e0b"/><circle cx="290.9" cy="261.4" r="2.5" fill="#f59e0b"/><circle cx="315.8" cy="261.4" r="2.5" fill="#f59e0b"/><circle cx="340.7" cy="261.4" r="2.5" fill="#f59e0b"/><circle cx="365.6" cy="261.4" r="2.5" fill="#f59e0b"/><circle cx="390.4" cy="261.4" r="2.5" fill="#f59e0b"/><circle cx="415.3" cy="267.5" r="2.5" fill="#f59e0b"/><circle cx="440.2" cy="267.5" r="2.5" fill="#f59e0b"/><circle cx="465.1" cy="261.4" r="2.5" fill="#f59e0b"/><circle cx="490.0" cy="255.2" r="2.5" fill="#f59e0b"/><circle cx="514.9" cy="255.2" r="2.5" fill="#f59e0b"/><circle cx="539.8" cy="249.1" r="2.5" fill="#f59e0b"/><circle cx="564.7" cy="249.1" r="2.5" fill="#f59e0b"/><circle cx="589.6" cy="249.1" r="2.5" fill="#f59e0b"/><circle cx="614.4" cy="249.1" r="2.5" fill="#f59e0b"/><circle cx="639.3" cy="249.1" r="2.5" fill="#f59e0b"/><circle cx="664.2" cy="249.1" r="2.5" fill="#f59e0b"/><circle cx="689.1" cy="249.1" r="2.5" fill="#f59e0b"/><circle cx="714.0" cy="249.1" r="2.5" fill="#f59e0b"/><circle cx="738.9" cy="249.1" r="2.5" fill="#f59e0b"/><circle cx="763.8" cy="255.2" r="2.5" fill="#f59e0b"/><circle cx="788.7" cy="255.2" r="2.5" fill="#f59e0b"/><circle cx="813.6" cy="255.2" r="2.5" fill="#f59e0b"/><circle cx="838.4" cy="255.2" r="2.5" fill="#f59e0b"/><circle cx="863.3" cy="261.4" r="2.5" fill="#f59e0b"/><circle cx="888.2" cy="261.4" r="2.5" fill="#f59e0b"/><circle cx="913.1" cy="261.4" r="2.5" fill="#f59e0b"/><circle cx="938.0" cy="261.4" r="2.5" fill="#f59e0b"/><polyline fill="none" stroke="#ef4444" stroke-width="2.5" stroke-linejoin="round" stroke-linecap="round" points="42.0,286.0 66.9,132.1 91.8,286.0 116.7,286.0 141.6,286.0 166.4,286.0 191.3,286.0 216.2,286.0 241.1,286.0 266.0,286.0 290.9,286.0 315.8,286.0 340.7,286.0 365.6,286.0 390.4,286.0 415.3,286.0 440.2,286.0 465.1,279.8 490.0,286.0 514.9,286.0 539.8,286.0 564.7,286.0 589.6,286.0 614.4,286.0 639.3,286.0 664.2,286.0 689.1,286.0 714.0,286.0 738.9,286.0 763.8,286.0 788.7,286.0 813.6,286.0 838.4,286.0 863.3,286.0 888.2,286.0 913.1,286.0 938.0,286.0"/><circle cx="42.0" cy="286.0" r="2.5" fill="#ef4444"/><circle cx="66.9" cy="132.1" r="2.5" fill="#ef4444"/><circle cx="91.8" cy="286.0" r="2.5" fill="#ef4444"/><circle cx="116.7" cy="286.0" r="2.5" fill="#ef4444"/><circle cx="141.6" cy="286.0" r="2.5" fill="#ef4444"/><circle cx="166.4" cy="286.0" r="2.5" fill="#ef4444"/><circle cx="191.3" cy="286.0" r="2.5" fill="#ef4444"/><circle cx="216.2" cy="286.0" r="2.5" fill="#ef4444"/><circle cx="241.1" cy="286.0" r="2.5" fill="#ef4444"/><circle cx="266.0" cy="286.0" r="2.5" fill="#ef4444"/><circle cx="290.9" cy="286.0" r="2.5" fill="#ef4444"/><circle cx="315.8" cy="286.0" r="2.5" fill="#ef4444"/><circle cx="340.7" cy="286.0" r="2.5" fill="#ef4444"/><circle cx="365.6" cy="286.0" r="2.5" fill="#ef4444"/><circle cx="390.4" cy="286.0" r="2.5" fill="#ef4444"/><circle cx="415.3" cy="286.0" r="2.5" fill="#ef4444"/><circle cx="440.2" cy="286.0" r="2.5" fill="#ef4444"/><circle cx="465.1" cy="279.8" r="2.5" fill="#ef4444"/><circle cx="490.0" cy="286.0" r="2.5" fill="#ef4444"/><circle cx="514.9" cy="286.0" r="2.5" fill="#ef4444"/><circle cx="539.8" cy="286.0" r="2.5" fill="#ef4444"/><circle cx="564.7" cy="286.0" r="2.5" fill="#ef4444"/><circle cx="589.6" cy="286.0" r="2.5" fill="#ef4444"/><circle cx="614.4" cy="286.0" r="2.5" fill="#ef4444"/><circle cx="639.3" cy="286.0" r="2.5" fill="#ef4444"/><circle cx="664.2" cy="286.0" r="2.5" fill="#ef4444"/><circle cx="689.1" cy="286.0" r="2.5" fill="#ef4444"/><circle cx="714.0" cy="286.0" r="2.5" fill="#ef4444"/><circle cx="738.9" cy="286.0" r="2.5" fill="#ef4444"/><circle cx="763.8" cy="286.0" r="2.5" fill="#ef4444"/><circle cx="788.7" cy="286.0" r="2.5" fill="#ef4444"/><circle cx="813.6" cy="286.0" r="2.5" fill="#ef4444"/><circle cx="838.4" cy="286.0" r="2.5" fill="#ef4444"/><circle cx="863.3" cy="286.0" r="2.5" fill="#ef4444"/><circle cx="888.2" cy="286.0" r="2.5" fill="#ef4444"/><circle cx="913.1" cy="286.0" r="2.5" fill="#ef4444"/><circle cx="938.0" cy="286.0" r="2.5" fill="#ef4444"/><text x="42" y="308" font-size="11" fill="#5a688a">19/06 15:39</text><text x="938" y="308" text-anchor="end" font-size="11" fill="#5a688a">18/07 02:36</text></svg>