<svg xmlns="http://www.w3.org/2000/svg" viewBox="0 0 960 320" width="960" height="320" font-family="Segoe UI, system-ui, -apple-system, Roboto, Helvetica, Arial, sans-serif" role="img" aria-label="Availability history per region"><rect x="0.5" y="0.5" width="959" height="319" rx="14" fill="#0d1117" stroke="#2c3a5e"/><text x="42" y="26" font-size="14" font-weight="600" fill="#e6ecff">History · 336 points</text><circle cx="47" cy="40" r="5" fill="#22c55e"/><text x="57" y="44" font-size="12" fill="#9fb0d4">Available</text><circle cx="139.8" cy="40" r="5" fill="#f59e0b"/><text x="149.8" y="44" font-size="12" fill="#9fb0d4">Saturated</text><circle cx="232.60000000000002" cy="40" r="5" fill="#ef4444"/><text x="242.60000000000002" y="44" font-size="12" fill="#9fb0d4">Error</text><circle cx="296.6" cy="40" r="5" fill="#a855f7"/><text x="306.6" y="44" font-size="12" fill="#9fb0d4">Timeout</text><line x1="42" y1="286.0" x2="938" y2="286.0" stroke="#21304f" stroke-width="1"/><text x="35" y="289.0" text-anchor="end" font-size="11" fill="#9fb0d4">0</text><line x1="42" y1="227.5" x2="938" y2="227.5" stroke="#21304f" stroke-width="1"/><text x="35" y="230.5" text-anchor="end" font-size="11" fill="#9fb0d4">10</text><line x1="42" y1="169.0" x2="938" y2="169.0" stroke="#21304f" stroke-width="1"/><text x="35" y="172.0" text-anchor="end" font-size="11" fill="#9fb0d4">19</text><line x1="42" y1="110.5" x2="938" y2="110.5" stroke="#21304f" stroke-width="1"/><text x="35" y="113.5" text-anchor="end" font-size="11" fill="#9fb0d4">28</text><line x1="42" y1="52.0" x2="938" y2="52.0" stroke="#21304f" stroke-width="1"/><text x="35" y="55.0" text-anchor="end" font-size="11" fill="#9fb0d4">38</text><polyline fill="none" stroke="#22c55e" stroke-width="2.5" stroke-linejoin="round" stroke-linecap="round" points="42.0,70.5 44.7,64.3 47.3,64.3 50.0,64.3 52.7,64.3 55.4,64.3 58.0,70.5 60.7,70.5 63.4,82.8 66.1,82.8 68.7,82.8 71.4,88.9 74.1,88.9 76.8,88.9 79.4,88.9 82.1,82.8 84.8,82.8 87.5,76.6 90.1,76.6 92.8,76.6 95.5,82.8 98.2,82.8 100.8,88.9 103.5,76.6 106.2,76.6 108.9,76.6 111.5,76.6 114.2,82.8 116.9,82.8 119.6,88.9 122.2,88.9 124.9,82.8 127.6,82.8 130.3,82.8 132.9,88.9 135.6,88.9 138.3,101.3 141.0,88.9 143.6,88.9 146.3,88.9 149.0,88.9 151.7,82.8 154.3,82.8 157.0,76.6 159.7,70.5 162.4,70.5 165.0,70.5 167.7,70.5 170.4,70.5 173.1,70.5 175.7,64.3 178.4,64.3 181.1,64.3 183.8,70.5 186.4,82.8 189.1,76.6 191.8,64.3 194.5,64.3 197.1,64.3 199.8,70.5 202.5,70.5 205.2,70.5 207.8,76.6 210.5,64.3 213.2,70.5 215.9,58.2 218.5,64.3 221.2,52.0 223.9,52.0 226.5,52.0 229.2,52.0 231.9,52.0 234.6,58.2 237.2,52.0 239.9,58.2 242.6,52.0 245.3,52.0 247.9,52.0 250.6,52.0 253.3,58.2 256.0,58.2 258.6,58.2 261.3,70.5 264.0,64.3 266.7,76.6 269.3,64.3 272.0,70.5 274.7,52.0 277.4,58.2 280.0,52.0 282.7,58.2 285.4,52.0 288.1,52.0 290.7,52.0 293.4,58.2 296.1,64.3 298.8,58.2 301.4,58.2 304.1,58.2 306.8,64.3 309.5,64.3 312.1,58.2 314.8,64.3 317.5,64.3 320.2,64.3 322.8,52.0 325.5,52.0 328.2,52.0 330.9,52.0 333.5,52.0 336.2,58.2 338.9,52.0 341.6,52.0 344.2,52.0 346.9,52.0 349.6,52.0 352.3,52.0 354.9,52.0 357.6,52.0 360.3,58.2 363.0,52.0 365.6,52.0 368.3,52.0 371.0,52.0 373.7,52.0 376.3,52.0 379.0,52.0 381.7,58.2 384.4,52.0 387.0,52.0 389.7,52.0 392.4,52.0 395.1,52.0 397.7,52.0 400.4,52.0 403.1,52.0 405.7,52.0 408.4,52.0 411.1,52.0 413.8,52.0 416.4,52.0 419.1,52.0 421.8,52.0 424.5,52.0 427.1,52.0 429.8,52.0 432.5,52.0 435.2,58.2 437.8,58.2 440.5,52.0 443.2,52.0 445.9,52.0 448.5,58.2 451.2,58.2 453.9,70.5 456.6,58.2 459.2,58.2 461.9,64.3 464.6,52.0 467.3,52.0 469.9,52.0 472.6,52.0 475.3,52.0 478.0,52.0 480.6,64.3 483.3,58.2 486.0,58.2 488.7,58.2 491.3,58.2 494.0,64.3 496.7,64.3 499.4,70.5 502.0,70.5 504.7,76.6 507.4,82.8 510.1,76.6 512.7,76.6 515.4,82.8 518.1,76.6 520.8,70.5 523.4,70.5 526.1,64.3 528.8,58.2 531.5,58.2 534.1,70.5 536.8,70.5 539.5,64.3 542.2,70.5 544.8,64.3 547.5,64.3 550.2,64.3 552.9,76.6 555.5,64.3 558.2,70.5 560.9,64.3 563.6,70.5 566.2,64.3 568.9,70.5 571.6,64.3 574.3,64.3 576.9,76.6 579.6,70.5 582.3,70.5 584.9,70.5 587.6,70.5 590.3,70.5 593.0,64.3 595.6,70.5 598.3,64.3 601.0,64.3 603.7,64.3 606.3,70.5 609.0,70.5 611.7,70.5 614.4,64.3 617.0,64.3 619.7,64.3 622.4,64.3 625.1,70.5 627.7,70.5 630.4,70.5 633.1,76.6 635.8,70.5 638.4,76.6 641.1,76.6 643.8,76.6 646.5,82.8 649.1,76.6 651.8,76.6 654.5,76.6 657.2,70.5 659.8,70.5 662.5,70.5 665.2,70.5 667.9,70.5 670.5,64.3 673.2,64.3 675.9,64.3 678.6,70.5 681.2,76.6 683.9,64.3 686.6,64.3 689.3,64.3 691.9,70.5 694.6,70.5 697.3,70.5 700.0,76.6 702.6,76.6 705.3,76.6 708.0,82.8 710.7,88.9 713.3,82.8 716.0,82.8 718.7,76.6 721.4,70.5 724.0,76.6 726.7,82.8 729.4,76.6 732.1,70.5 734.7,70.5 737.4,64.3 740.1,64.3 742.8,64.3 745.4,64.3 748.1,64.3 750.8,64.3 753.5,64.3 756.1,64.3 758.8,64.3 761.5,64.3 764.1,64.3 766.8,64.3 769.5,64.3 772.2,58.2 774.8,70.5 777.5,64.3 780.2,58.2 782.9,64.3 785.5,64.3 788.2,64.3 790.9,64.3 793.6,64.3 796.2,58.2 798.9,58.2 801.6,58.2 804.3,58.2 806.9,58.2 809.6,64.3 812.3,58.2 815.0,58.2 817.6,58.2 820.3,58.2 823.0,58.2 825.7,58.2 828.3,64.3 831.0,64.3 833.7,58.2 836.4,58.2 839.0,58.2 841.7,64.3 844.4,58.2 847.1,58.2 849.7,58.2 852.4,58.2 855.1,58.2 857.8,58.2 860.4,58.2 863.1,58.2 865.8,58.2 868.5,58.2 871.1,58.2 873.8,58.2 876.5,58.2 879.2,64.3 881.8,70.5 884.5,70.5 887.2,70.5 889.9,76.6 892.5,76.6 895.2,76.6 897.9,82.8 900.6,82.8 903.2,76.6 905.9,76.6 908.6,82.8 911.3,82.8 913.9,76.6 916.6,70.5 919.3,76.6 922.0,70.5 924.6,76.6 927.3,70.5 930.0,70.5 932.7,70.5 935.3,70.5 938.0,76.6"/><polyline fill="none" stroke="#f59e0b" stroke-width="2.5" stroke-linejoin="round" stroke-linecap="round" points="42.0,286.0 44.7,286.0 47.3,286.0 50.0,286.0 52.7,286.0 55.4,286.0 58.0,286.0 60.7,279.8 63.4,267.5 66.1,267.5 68.7,267.5 71.4,267.5 74.1,261.4 76.8,261.4 79.4,261.4 82.1,267.5 84.8,267.5 87.5,273.7 90.1,273.7 92.8,273.7 95.5,267.5 98.2,267.5 100.8,267.5 103.5,273.7 106.2,273.7 108.9,273.7 111.5,273.7 114.2,267.5 116.9,267.5 119.6,261.4 122.2,261.4 124.9,267.5 127.6,267.5 130.3,267.5 132.9,261.4 135.6,261.4 138.3,273.7 141.0,261.4 143.6,261.4 146.3,261.4 149.0,261.4 151.7,267.5 154.3,267.5 157.0,273.7 159.7,279.8 162.4,279.8 165.0,279.8 167.7,279.8 170.4,279.8 173.1,279.8 175.7,286.0 178.4,286.0 181.1,286.0 183.8,279.8 186.4,273.7 189.1,273.7 191.8,279.8 194.5,273.7 197.1,273.7 199.8,267.5 202.5,267.5 205.2,267.5 207.8,267.5 210.5,279.8 213.2,273.7 215.9,279.8 218.5,279.8 221.2,286.0 223.9,286.0 226.5,286.0 229.2,286.0 231.9,286.0 234.6,286.0 237.2,286.0 239.9,286.0 242.6,286.0 245.3,286.0 247.9,286.0 250.6,286.0 253.3,279.8 256.0,279.8 258.6,279.8 261.3,267.5 264.0,279.8 266.7,267.5 269.3,273.7 272.0,273.7 274.7,286.0 277.4,279.8 280.0,286.0 282.7,279.8 285.4,286.0 288.1,286.0 290.7,286.0 293.4,279.8 296.1,273.7 298.8,279.8 301.4,279.8 304.1,279.8 306.8,273.7 309.5,273.7 312.1,279.8 314.8,279.8 317.5,279.8 320.2,279.8 322.8,286.0 325.5,286.0 328.2,286.0 330.9,286.0 333.5,286.0 336.2,286.0 338.9,286.0 341.6,286.0 344.2,286.0 346.9,286.0 349.6,286.0 352.3,286.0 354.9,286.0 357.6,286.0 360.3,286.0 363.0,286.0 365.6,286.0 368.3,286.0 371.0,286.0 373.7,286.0 376.3,286.0 379.0,286.0 381.7,286.0 384.4,286.0 387.0,286.0 389.7,286.0 392.4,286.0 395.1,286.0 397.7,286.0 400.4,286.0 403.1,286.0 405.7,286.0 408.4,286.0 411.1,286.0 413.8,286.0 416.4,286.0 419.1,286.0 421.8,286.0 424.5,286.0 427.1,286.0 429.8,286.0 432.5,286.0 435.2,286.0 437.8,286.0 440.5,286.0 443.2,286.0 445.9,286.0 448.5,279.8 451.2,279.8 453.9,279.8 456.6,279.8 459.2,279.8 461.9,273.7 464.6,286.0 467.3,286.0 469.9,286.0 472.6,286.0 475.3,286.0 478.0,286.0 480.6,286.0 483.3,279.8 486.0,279.8 488.7,279.8 491.3,279.8 494.0,273.7 496.7,273.7 499.4,267.5 502.0,267.5 504.7,261.4 507.4,261.4 510.1,261.4 512.7,261.4 515.4,261.4 518.1,267.5 520.8,267.5 523.4,267.5 526.1,273.7 528.8,279.8 531.5,279.8 534.1,267.5 536.8,267.5 539.5,273.7 542.2,267.5 544.8,273.7 547.5,273.7 550.2,273.7 552.9,273.7 555.5,273.7 558.2,267.5 560.9,273.7 563.6,267.5 566.2,273.7 568.9,267.5 571.6,273.7 574.3,273.7 576.9,261.4 579.6,267.5 582.3,267.5 584.9,267.5 587.6,267.5 590.3,267.5 593.0,273.7 595.6,267.5 598.3,273.7 601.0,273.7 603.7,273.7 606.3,267.5 609.0,267.5 611.7,267.5 614.4,273.7 617.0,273.7 619.7,273.7 622.4,273.7 625.1,267.5 627.7,267.5 630.4,267.5 633.1,267.5 635.8,267.5 638.4,261.4 641.1,261.4 643.8,261.4 646.5,261.4 649.1,261.4 651.8,261.4 654.5,261.4 657.2,267.5 659.8,267.5 662.5,267.5 665.2,267.5 667.9,267.5 670.5,273.7 673.2,273.7 675.9,273.7 678.6,267.5 681.2,267.5 683.9,273.7 686.6,273.7 689.3,273.7 691.9,267.5 694.6,267.5 697.3,267.5 700.0,261.4 702.6,261.4 705.3,261.4 708.0,255.2 710.7,255.2 713.3,255.2 716.0,261.4 718.7,261.4 721.4,267.5 724.0,261.4 726.7,261.4 729.4,261.4 732.1,267.5 734.7,267.5 737.4,273.7 740.1,273.7 742.8,273.7 745.4,273.7 748.1,273.7 750.8,273.7 753.5,273.7 756.1,273.7 758.8,273.7 761.5,273.7 764.1,273.7 766.8,273.7 769.5,273.7 772.2,279.8 774.8,273.7 777.5,273.7 780.2,279.8 782.9,273.7 785.5,273.7 788.2,273.7 790.9,273.7 793.6,273.7 796.2,279.8 798.9,279.8 801.6,279.8 804.3,279.8 806.9,279.8 809.6,273.7 812.3,279.8 815.0,279.8 817.6,279.8 820.3,279.8 823.0,279.8 825.7,279.8 828.3,273.7 831.0,273.7 833.7,279.8 836.4,279.8 839.0,279.8 841.7,279.8 844.4,279.8 847.1,279.8 849.7,279.8 852.4,279.8 855.1,279.8 857.8,279.8 860.4,279.8 863.1,279.8 865.8,279.8 868.5,279.8 871.1,279.8 873.8,279.8 876.5,279.8 879.2,273.7 881.8,273.7 884.5,267.5 887.2,267.5 889.9,261.4 892.5,261.4 895.2,261.4 897.9,255.2 900.6,255.2 903.2,261.4 905.9,261.4 908.6,255.2 911.3,255.2 913.9,267.5 916.6,267.5 919.3,261.4 922.0,267.5 924.6,261.4 927.3,267.5 930.0,267.5 932.7,267.5 935.3,267.5 938.0,267.5"/><polyline fill="none" stroke="#ef4444" stroke-width="2.5" stroke-linejoin="round" stroke-linecap="round" points="42.0,267.5 44.7,273.7 47.3,273.7 50.0,273.7 52.7,273.7 55.4,273.7 58.0,273.7 60.7,273.7 63.4,273.7 66.1,273.7 68.7,273.7 71.4,267.5 74.1,273.7 76.8,273.7 79.4,273.7 82.1,273.7 84.8,273.7 87.5,273.7 90.1,273.7 92.8,273.7 95.5,273.7 98.2,273.7 100.8,267.5 103.5,273.7 106.2,273.7 108.9,273.7 111.5,273.7 114.2,273.7 116.9,273.7 119.6,273.7 122.2,273.7 124.9,273.7 127.6,273.7 130.3,273.7 132.9,273.7 135.6,273.7 138.3,249.1 141.0,273.7 143.6,273.7 146.3,273.7 149.0,273.7 151.7,273.7 154.3,273.7 157.0,273.7 159.7,273.7 162.4,273.7 165.0,273.7 167.7,273.7 170.4,273.7 173.1,273.7 175.7,273.7 178.4,273.7 181.1,273.7 183.8,273.7 186.4,267.5 189.1,273.7 191.8,279.8 194.5,286.0 197.1,286.0 199.8,286.0 202.5,286.0 205.2,286.0 207.8,279.8 210.5,279.8 213.2,286.0 215.9,286.0 218.5,279.8 221.2,286.0 223.9,286.0 226.5,286.0 229.2,286.0 231.9,286.0 234.6,279.8 237.2,286.0 239.9,286.0 242.6,286.0 245.3,286.0 247.9,286.0 250.6,286.0 253.3,286.0 256.0,286.0 258.6,286.0 261.3,286.0 264.0,279.8 266.7,279.8 269.3,286.0 272.0,279.8 274.7,286.0 277.4,286.0 280.0,286.0 282.7,286.0 285.4,286.0 288.1,286.0 290.7,286.0 293.4,286.0 296.1,286.0 298.8,286.0 301.4,286.0 304.1,286.0 306.8,286.0 309.5,286.0 312.1,286.0 314.8,279.8 317.5,286.0 320.2,279.8 322.8,286.0 325.5,286.0 328.2,286.0 330.9,286.0 333.5,286.0 336.2,286.0 338.9,286.0 341.6,286.0 344.2,286.0 346.9,286.0 349.6,286.0 352.3,286.0 354.9,286.0 357.6,286.0 360.3,279.8 363.0,286.0 365.6,286.0 368.3,286.0 371.0,286.0 373.7,286.0 376.3,286.0 379.0,286.0 381.7,286.0 384.4,286.0 387.0,286.0 389.7,286.0 392.4,286.0 395.1,286.0 397.7,286.0 400.4,286.0 403.1,286.0 405.7,286.0 408.4,286.0 411.1,286.0 413.8,286.0 416.4,286.0 419.1,286.0 421.8,286.0 424.5,286.0 427.1,286.0 429.8,286.0 432.5,286.0 435.2,279.8 437.8,279.8 440.5,286.0 443.2,286.0 445.9,286.0 448.5,286.0 451.2,286.0 453.9,273.7 456.6,286.0 459.2,286.0 461.9,286.0 464.6,286.0 467.3,286.0 469.9,286.0 472.6,286.0 475.3,286.0 478.0,286.0 480.6,286.0 483.3,286.0 486.0,286.0 488.7,286.0 491.3,286.0 494.0,286.0 496.7,286.0 499.4,286.0 502.0,286.0 504.7,286.0 507.4,279.8 510.1,286.0 512.7,286.0 515.4,279.8 518.1,279.8 520.8,286.0 523.4,286.0 526.1,286.0 528.8,286.0 531.5,286.0 534.1,286.0 536.8,286.0 539.5,286.0 542.2,286.0 544.8,286.0 547.5,286.0 550.2,286.0 552.9,273.7 555.5,286.0 558.2,286.0 560.9,286.0 563.6,286.0 566.2,286.0 568.9,286.0 571.6,286.0 574.3,286.0 576.9,286.0 579.6,286.0 582.3,286.0 584.9,286.0 587.6,286.0 590.3,286.0 593.0,286.0 595.6,286.0 598.3,286.0 601.0,286.0 603.7,286.0 606.3,286.0 609.0,286.0 611.7,286.0 614.4,286.0 617.0,286.0 619.7,286.0 622.4,286.0 625.1,286.0 627.7,286.0 630.4,286.0 633.1,279.8 635.8,286.0 638.4,286.0 641.1,286.0 643.8,286.0 646.5,279.8 649.1,286.0 651.8,286.0 654.5,286.0 657.2,286.0 659.8,286.0 662.5,286.0 665.2,286.0 667.9,286.0 670.5,286.0 673.2,286.0 675.9,286.0 678.6,286.0 681.2,279.8 683.9,286.0 686.6,286.0 689.3,286.0 691.9,286.0 694.6,286.0 697.3,286.0 700.0,286.0 702.6,286.0 705.3,286.0 708.0,286.0 710.7,279.8 713.3,286.0 716.0,279.8 718.7,286.0 721.4,286.0 724.0,286.0 726.7,279.8 729.4,286.0 732.1,286.0 734.7,286.0 737.4,286.0 740.1,286.0 742.8,286.0 745.4,286.0 748.1,286.0 750.8,286.0 753.5,286.0 756.1,286.0 758.8,286.0 761.5,286.0 764.1,286.0 766.8,286.0 769.5,286.0 772.2,286.0 774.8,279.8 777.5,286.0 780.2,286.0 782.9,286.0 785.5,286.0 788.2,286.0 790.9,286.0 793.6,286.0 796.2,286.0 798.9,286.0 801.6,286.0 804.3,286.0 806.9,286.0 809.6,286.0 812.3,286.0 815.0,286.0 817.6,286.0 820.3,286.0 823.0,286.0 825.7,286.0 828.3,286.0 831.0,286.0 833.7,286.0 836.4,286.0 839.0,286.0 841.7,286.0 844.4,286.0 847.1,286.0 849.7,286.0 852.4,286.0 855.1,286.0 857.8,286.0 860.4,286.0 863.1,286.0 865.8,286.0 868.5,286.0 871.1,286.0 873.8,286.0 876.5,286.0 879.2,286.0 881.8,279.8 884.5,286.0 887.2,286.0 889.9,286.0 892.5,286.0 895.2,286.0 897.9,286.0 900.6,286.0 903.2,286.0 905.9,286.0 908.6,286.0 911.3,286.0 913.9,279.8 916.6,286.0 919.3,286.0 922.0,286.0 924.6,286.0 927.3,286.0 930.0,286.0 932.7,286.0 935.3,286.0 938.0,286.0"/><polyline fill="none" stroke="#a855f7" stroke-width="2.5" stroke-linejoin="round" stroke-linecap="round" points="42.0,286.0 44.7,286.0 47.3,286.0 50.0,286.0 52.7,286.0 55.4,286.0 58.0,279.8 60.7,286.0 63.4,286.0 66.1,286.0 68.7,286.0 71.4,286.0 74.1,286.0 76.8,286.0 79.4,286.0 82.1,286.0 84.8,286.0 87.5,286.0 90.1,286.0 92.8,286.0 95.5,286.0 98.2,286.0 100.8,286.0 103.5,286.0 106.2,286.0 108.9,286.0 111.5,286.0 114.2,286.0 116.9,286.0 119.6,286.0 122.2,286.0 124.9,286.0 127.6,286.0 130.3,286.0 132.9,286.0 135.6,286.0 138.3,286.0 141.0,286.0 143.6,286.0 146.3,286.0 149.0,286.0 151.7,286.0 154.3,286.0 157.0,286.0 159.7,286.0 162.4,286.0 165.0,286.0 167.7,286.0 170.4,286.0 173.1,286.0 175.7,286.0 178.4,286.0 181.1,286.0 183.8,286.0 186.4,286.0 189.1,286.0 191.8,286.0 194.5,286.0 197.1,286.0 199.8,286.0 202.5,286.0 205.2,286.0 207.8,286.0 210.5,286.0 213.2,279.8 215.9,286.0 218.5,286.0 221.2,286.0 223.9,286.0 226.5,286.0 229.2,286.0 231.9,286.0 234.6,286.0 237.2,286.0 239.9,279.8 242.6,286.0 245.3,286.0 247.9,286.0 250.6,286.0 253.3,286.0 256.0,286.0 258.6,286.0 261.3,286.0 264.0,286.0 266.7,286.0 269.3,286.0 272.0,286.0 274.7,286.0 277.4,286.0 280.0,286.0 282.7,286.0 285.4,286.0 288.1,286.0 290.7,286.0 293.4,286.0 296.1,286.0 298.8,286.0 301.4,286.0 304.1,286.0 306.8,286.0 309.5,286.0 312.1,286.0 314.8,286.0 317.5,279.8 320.2,286.0 322.8,286.0 325.5,286.0 328.2,286.0 330.9,286.0 333.5,286.0 336.2,279.8 338.9,286.0 341.6,286.0 344.2,286.0 346.9,286.0 349.6,286.0 352.3,286.0 354.9,286.0 357.6,286.0 360.3,286.0 363.0,286.0 365.6,286.0 368.3,286.0 371.0,286.0 373.7,286.0 376.3,286.0 379.0,286.0 381.7,279.8 384.4,286.0 387.0,286.0 389.7,286.0 392.4,286.0 395.1,286.0 397.7,286.0 400.4,286.0 403.1,286.0 405.7,286.0 408.4,286.0 411.1,286.0 413.8,286.0 416.4,286.0 419.1,286.0 421.8,286.0 424.5,286.0 427.1,286.0 429.8,286.0 432.5,286.0 435.2,286.0 437.8,286.0 440.5,286.0 443.2,286.0 445.9,286.0 448.5,286.0 451.2,286.0 453.9,286.0 456.6,286.0 459.2,286.0 461.9,286.0 464.6,286.0 467.3,286.0 469.9,286.0 472.6,286.0 475.3,286.0 478.0,286.0 480.6,273.7 483.3,286.0 486.0,286.0 488.7,286.0 491.3,286.0 494.0,286.0 496.7,286.0 499.4,286.0 502.0,286.0 504.7,286.0 507.4,286.0 510.1,286.0 512.7,286.0 515.4,286.0 518.1,286.0 520.8,286.0 523.4,286.0 526.1,286.0 528.8,286.0 531.5,286.0 534.1,286.0 536.8,286.0 539.5,286.0 542.2,286.0 544.8,286.0 547.5,286.0 550.2,286.0 552.9,286.0 555.5,286.0 558.2,286.0 560.9,286.0 563.6,286.0 566.2,286.0 568.9,286.0 571.6,286.0 574.3,286.0 576.9,286.0 579.6,286.0 582.3,286.0 584.9,286.0 587.6,286.0 590.3,286.0 593.0,286.0 595.6,286.0 598.3,286.0 601.0,286.0 603.7,286.0 606.3,286.0 609.0,286.0 611.7,286.0 614.4,286.0 617.0,286.0 619.7,286.0 622.4,286.0 625.1,286.0 627.7,286.0 630.4,286.0 633.1,286.0 635.8,286.0 638.4,286.0 641.1,286.0 643.8,286.0 646.5,286.0 649.1,286.0 651.8,286.0 654.5,286.0 657.2,286.0 659.8,286.0 662.5,286.0 665.2,286.0 667.9,286.0 670.5,286.0 673.2,286.0 675.9,286.0 678.6,286.0 681.2,286.0 683.9,286.0 686.6,286.0 689.3,286.0 691.9,286.0 694.6,286.0 697.3,286.0 700.0,286.0 702.6,286.0 705.3,286.0 708.0,286.0 710.7,286.0 713.3,286.0 716.0,286.0 718.7,286.0 721.4,286.0 724.0,286.0 726.7,286.0 729.4,286.0 732.1,286.0 734.7,286.0 737.4,286.0 740.1,286.0 742.8,286.0 745.4,286.0 748.1,286.0 750.8,286.0 753.5,286.0 756.1,286.0 758.8,286.0 761.5,286.0 764.1,286.0 766.8,286.0 769.5,286.0 772.2,286.0 774.8,286.0 777.5,286.0 780.2,286.0 782.9,286.0 785.5,286.0 788.2,286.0 790.9,286.0 793.6,286.0 796.2,286.0 798.9,286.0 801.6,286.0 804.3,286.0 806.9,286.0 809.6,286.0 812.3,286.0 815.0,286.0 817.6,286.0 820.3,286.0 823.0,286.0 825.7,286.0 828.3,286.0 831.0,286.0 833.7,286.0 836.4,286.0 839.0,286.0 841.7,279.8 844.4,286.0 847.1,286.0 849.7,286.0 852.4,286.0 855.1,286.0 857.8,286.0 860.4,286.0 863.1,286.0 865.8,286.0 868.5,286.0 871.1,286.0 873.8,286.0 876.5,286.0 879.2,286.0 881.8,286.0 884.5,286.0 887.2,286.0 889.9,286.0 892.5,286.0 895.2,286.0 897.9,286.0 900.6,286.0 903.2,286.0 905.9,286.0 908.6,286.0 911.3,286.0 913.9,286.0 916.6,286.0 919.3,286.0 922.0,286.0 924.6,286.0 927.3,286.0 930.0,286.0 932.7,286.0 935.3,286.0 938.0,279.8"/><text x="42" y="308" font-size="11" fill="#9fb0d4">29/06 03:31</text><text x="938" y="308" text-anchor="end" font-size="11" fill="#9fb0d4">14/07 04:41</text></svg>