<svg xmlns="http://www.w3.org/2000/svg" viewBox="0 0 960 320" width="960" height="320" font-family="Segoe UI, system-ui, -apple-system, Roboto, Helvetica, Arial, sans-serif" role="img" aria-label="Availability history per region"><rect x="0.5" y="0.5" width="959" height="319" rx="14" fill="#ffffff" stroke="#dce3f1"/><text x="42" y="26" font-size="14" font-weight="600" fill="#14203a">History · 272 points</text><circle cx="47" cy="40" r="5" fill="#22c55e"/><text x="57" y="44" font-size="12" fill="#5a688a">Available</text><circle cx="139.8" cy="40" r="5" fill="#f59e0b"/><text x="149.8" y="44" font-size="12" fill="#5a688a">Saturated</text><circle cx="232.60000000000002" cy="40" r="5" fill="#ef4444"/><text x="242.60000000000002" y="44" font-size="12" fill="#5a688a">Error</text><circle cx="296.6" cy="40" r="5" fill="#a855f7"/><text x="306.6" y="44" font-size="12" fill="#5a688a">Timeout</text><line x1="42" y1="286.0" x2="938" y2="286.0" stroke="#eef2f7" stroke-width="1"/><text x="35" y="289.0" text-anchor="end" font-size="11" fill="#5a688a">0</text><line x1="42" y1="227.5" x2="938" y2="227.5" stroke="#eef2f7" stroke-width="1"/><text x="35" y="230.5" text-anchor="end" font-size="11" fill="#5a688a">10</text><line x1="42" y1="169.0" x2="938" y2="169.0" stroke="#eef2f7" stroke-width="1"/><text x="35" y="172.0" text-anchor="end" font-size="11" fill="#5a688a">20</text><line x1="42" y1="110.5" x2="938" y2="110.5" stroke="#eef2f7" stroke-width="1"/><text x="35" y="113.5" text-anchor="end" font-size="11" fill="#5a688a">29</text><line x1="42" y1="52.0" x2="938" y2="52.0" stroke="#eef2f7" stroke-width="1"/><text x="35" y="55.0" text-anchor="end" font-size="11" fill="#5a688a">39</text><polyline fill="none" stroke="#22c55e" stroke-width="2.5" stroke-linejoin="round" stroke-linecap="round" points="42.0,70.0 45.3,70.0 48.6,88.0 51.9,88.0 55.2,76.0 58.5,76.0 61.8,76.0 65.1,70.0 68.5,76.0 71.8,70.0 75.1,64.0 78.4,58.0 81.7,58.0 85.0,58.0 88.3,58.0 91.6,58.0 94.9,58.0 98.2,58.0 101.5,58.0 104.8,58.0 108.1,58.0 111.4,58.0 114.7,58.0 118.0,58.0 121.4,58.0 124.7,58.0 128.0,58.0 131.3,58.0 134.6,58.0 137.9,58.0 141.2,58.0 144.5,70.0 147.8,76.0 151.1,94.0 154.4,64.0 157.7,64.0 161.0,58.0 164.3,58.0 167.6,58.0 170.9,70.0 174.3,76.0 177.6,76.0 180.9,82.0 184.2,82.0 187.5,82.0 190.8,82.0 194.1,76.0 197.4,64.0 200.7,70.0 204.0,70.0 207.3,82.0 210.6,76.0 213.9,76.0 217.2,82.0 220.5,76.0 223.8,76.0 227.2,76.0 230.5,64.0 233.8,64.0 237.1,76.0 240.4,76.0 243.7,76.0 247.0,88.0 250.3,70.0 253.6,64.0 256.9,58.0 260.2,58.0 263.5,70.0 266.8,70.0 270.1,70.0 273.4,76.0 276.7,70.0 280.1,70.0 283.4,70.0 286.7,70.0 290.0,76.0 293.3,82.0 296.6,76.0 299.9,70.0 303.2,70.0 306.5,70.0 309.8,70.0 313.1,76.0 316.4,70.0 319.7,70.0 323.0,70.0 326.3,70.0 329.6,70.0 333.0,70.0 336.3,70.0 339.6,70.0 342.9,70.0 346.2,70.0 349.5,70.0 352.8,70.0 356.1,70.0 359.4,70.0 362.7,70.0 366.0,70.0 369.3,70.0 372.6,70.0 375.9,70.0 379.2,70.0 382.5,70.0 385.9,70.0 389.2,70.0 392.5,70.0 395.8,70.0 399.1,70.0 402.4,70.0 405.7,70.0 409.0,70.0 412.3,70.0 415.6,70.0 418.9,70.0 422.2,70.0 425.5,70.0 428.8,70.0 432.1,70.0 435.4,70.0 438.8,70.0 442.1,70.0 445.4,70.0 448.7,70.0 452.0,70.0 455.3,70.0 458.6,70.0 461.9,70.0 465.2,70.0 468.5,70.0 471.8,70.0 475.1,70.0 478.4,70.0 481.7,70.0 485.0,70.0 488.3,70.0 491.7,70.0 495.0,70.0 498.3,70.0 501.6,70.0 504.9,70.0 508.2,70.0 511.5,70.0 514.8,70.0 518.1,70.0 521.4,70.0 524.7,70.0 528.0,70.0 531.3,70.0 534.6,70.0 537.9,70.0 541.2,76.0 544.6,70.0 547.9,70.0 551.2,70.0 554.5,70.0 557.8,70.0 561.1,76.0 564.4,76.0 567.7,88.0 571.0,88.0 574.3,88.0 577.6,94.0 580.9,94.0 584.2,94.0 587.5,94.0 590.8,88.0 594.1,88.0 597.5,82.0 600.8,82.0 604.1,82.0 607.4,88.0 610.7,88.0 614.0,94.0 617.3,82.0 620.6,82.0 623.9,82.0 627.2,82.0 630.5,88.0 633.8,88.0 637.1,94.0 640.4,94.0 643.7,88.0 647.0,88.0 650.4,88.0 653.7,94.0 657.0,94.0 660.3,106.0 663.6,94.0 666.9,94.0 670.2,94.0 673.5,94.0 676.8,88.0 680.1,88.0 683.4,82.0 686.7,76.0 690.0,76.0 693.3,76.0 696.6,76.0 699.9,76.0 703.3,76.0 706.6,70.0 709.9,70.0 713.2,70.0 716.5,76.0 719.8,88.0 723.1,82.0 726.4,70.0 729.7,70.0 733.0,70.0 736.3,76.0 739.6,76.0 742.9,76.0 746.2,82.0 749.5,70.0 752.8,76.0 756.2,64.0 759.5,70.0 762.8,58.0 766.1,58.0 769.4,58.0 772.7,58.0 776.0,58.0 779.3,64.0 782.6,58.0 785.9,64.0 789.2,58.0 792.5,58.0 795.8,58.0 799.1,58.0 802.4,64.0 805.7,64.0 809.1,64.0 812.4,76.0 815.7,70.0 819.0,82.0 822.3,70.0 825.6,76.0 828.9,58.0 832.2,64.0 835.5,58.0 838.8,64.0 842.1,58.0 845.4,58.0 848.7,58.0 852.0,64.0 855.3,70.0 858.6,64.0 862.0,64.0 865.3,64.0 868.6,70.0 871.9,70.0 875.2,64.0 878.5,70.0 881.8,70.0 885.1,70.0 888.4,58.0 891.7,58.0 895.0,58.0 898.3,58.0 901.6,58.0 904.9,64.0 908.2,58.0 911.5,58.0 914.9,58.0 918.2,58.0 921.5,58.0 924.8,58.0 928.1,58.0 931.4,58.0 934.7,64.0 938.0,58.0"/><polyline fill="none" stroke="#f59e0b" stroke-width="2.5" stroke-linejoin="round" stroke-linecap="round" points="42.0,274.0 45.3,274.0 48.6,274.0 51.9,280.0 55.2,268.0 58.5,268.0 61.8,268.0 65.1,274.0 68.5,274.0 71.8,274.0 75.1,280.0 78.4,286.0 81.7,286.0 85.0,286.0 88.3,286.0 91.6,286.0 94.9,286.0 98.2,286.0 101.5,286.0 104.8,286.0 108.1,286.0 111.4,286.0 114.7,286.0 118.0,286.0 121.4,286.0 124.7,286.0 128.0,286.0 131.3,286.0 134.6,286.0 137.9,286.0 141.2,286.0 144.5,274.0 147.8,280.0 151.1,280.0 154.4,280.0 157.7,280.0 161.0,286.0 164.3,286.0 167.6,286.0 170.9,274.0 174.3,268.0 177.6,268.0 180.9,262.0 184.2,262.0 187.5,262.0 190.8,262.0 194.1,268.0 197.4,280.0 200.7,280.0 204.0,274.0 207.3,262.0 210.6,268.0 213.9,268.0 217.2,262.0 220.5,268.0 223.8,268.0 227.2,268.0 230.5,280.0 233.8,280.0 237.1,268.0 240.4,268.0 243.7,268.0 247.0,262.0 250.3,274.0 253.6,280.0 256.9,286.0 260.2,286.0 263.5,274.0 266.8,274.0 270.1,274.0 273.4,274.0 276.7,274.0 280.1,274.0 283.4,274.0 286.7,274.0 290.0,280.0 293.3,274.0 296.6,280.0 299.9,286.0 303.2,286.0 306.5,286.0 309.8,286.0 313.1,280.0 316.4,286.0 319.7,286.0 323.0,286.0 326.3,286.0 329.6,286.0 333.0,286.0 336.3,286.0 339.6,286.0 342.9,286.0 346.2,286.0 349.5,286.0 352.8,286.0 356.1,286.0 359.4,286.0 362.7,286.0 366.0,286.0 369.3,286.0 372.6,286.0 375.9,286.0 379.2,286.0 382.5,286.0 385.9,286.0 389.2,286.0 392.5,286.0 395.8,286.0 399.1,286.0 402.4,286.0 405.7,286.0 409.0,286.0 412.3,286.0 415.6,286.0 418.9,286.0 422.2,286.0 425.5,286.0 428.8,286.0 432.1,286.0 435.4,286.0 438.8,286.0 442.1,286.0 445.4,286.0 448.7,286.0 452.0,286.0 455.3,286.0 458.6,286.0 461.9,286.0 465.2,286.0 468.5,286.0 471.8,286.0 475.1,286.0 478.4,286.0 481.7,286.0 485.0,286.0 488.3,286.0 491.7,286.0 495.0,286.0 498.3,286.0 501.6,286.0 504.9,286.0 508.2,286.0 511.5,286.0 514.8,286.0 518.1,286.0 521.4,286.0 524.7,286.0 528.0,286.0 531.3,286.0 534.6,286.0 537.9,286.0 541.2,286.0 544.6,286.0 547.9,286.0 551.2,286.0 554.5,286.0 557.8,286.0 561.1,286.0 564.4,280.0 567.7,268.0 571.0,268.0 574.3,268.0 577.6,268.0 580.9,262.0 584.2,262.0 587.5,262.0 590.8,268.0 594.1,268.0 597.5,274.0 600.8,274.0 604.1,274.0 607.4,268.0 610.7,268.0 614.0,268.0 617.3,274.0 620.6,274.0 623.9,274.0 627.2,274.0 630.5,268.0 633.8,268.0 637.1,262.0 640.4,262.0 643.7,268.0 647.0,268.0 650.4,268.0 653.7,262.0 657.0,262.0 660.3,274.0 663.6,262.0 666.9,262.0 670.2,262.0 673.5,262.0 676.8,268.0 680.1,268.0 683.4,274.0 686.7,280.0 690.0,280.0 693.3,280.0 696.6,280.0 699.9,280.0 703.3,280.0 706.6,286.0 709.9,286.0 713.2,286.0 716.5,280.0 719.8,274.0 723.1,274.0 726.4,280.0 729.7,274.0 733.0,274.0 736.3,268.0 739.6,268.0 742.9,268.0 746.2,268.0 749.5,280.0 752.8,274.0 756.2,280.0 759.5,280.0 762.8,286.0 766.1,286.0 769.4,286.0 772.7,286.0 776.0,286.0 779.3,286.0 782.6,286.0 785.9,286.0 789.2,286.0 792.5,286.0 795.8,286.0 799.1,286.0 802.4,280.0 805.7,280.0 809.1,280.0 812.4,268.0 815.7,280.0 819.0,268.0 822.3,274.0 825.6,274.0 828.9,286.0 832.2,280.0 835.5,286.0 838.8,280.0 842.1,286.0 845.4,286.0 848.7,286.0 852.0,280.0 855.3,274.0 858.6,280.0 862.0,280.0 865.3,280.0 868.6,274.0 871.9,274.0 875.2,280.0 878.5,280.0 881.8,280.0 885.1,280.0 888.4,286.0 891.7,286.0 895.0,286.0 898.3,286.0 901.6,286.0 904.9,286.0 908.2,286.0 911.5,286.0 914.9,286.0 918.2,286.0 921.5,286.0 924.8,286.0 928.1,286.0 931.4,286.0 934.7,286.0 938.0,286.0"/><polyline fill="none" stroke="#ef4444" stroke-width="2.5" stroke-linejoin="round" stroke-linecap="round" points="42.0,280.0 45.3,280.0 48.6,268.0 51.9,262.0 55.2,286.0 58.5,286.0 61.8,286.0 65.1,286.0 68.5,280.0 71.8,286.0 75.1,286.0 78.4,286.0 81.7,286.0 85.0,286.0 88.3,286.0 91.6,286.0 94.9,286.0 98.2,286.0 101.5,286.0 104.8,286.0 108.1,286.0 111.4,286.0 114.7,286.0 118.0,286.0 121.4,286.0 124.7,286.0 128.0,286.0 131.3,286.0 134.6,286.0 137.9,286.0 141.2,286.0 144.5,286.0 147.8,274.0 151.1,256.0 154.4,286.0 157.7,286.0 161.0,286.0 164.3,286.0 167.6,286.0 170.9,286.0 174.3,286.0 177.6,286.0 180.9,286.0 184.2,286.0 187.5,286.0 190.8,286.0 194.1,286.0 197.4,286.0 200.7,280.0 204.0,286.0 207.3,286.0 210.6,286.0 213.9,286.0 217.2,286.0 220.5,286.0 223.8,286.0 227.2,286.0 230.5,286.0 233.8,286.0 237.1,286.0 240.4,286.0 243.7,286.0 247.0,280.0 250.3,286.0 253.6,286.0 256.9,286.0 260.2,286.0 263.5,286.0 266.8,286.0 270.1,286.0 273.4,286.0 276.7,286.0 280.1,286.0 283.4,286.0 286.7,286.0 290.0,274.0 293.3,274.0 296.6,274.0 299.9,274.0 303.2,274.0 306.5,274.0 309.8,274.0 313.1,274.0 316.4,274.0 319.7,274.0 323.0,274.0 326.3,274.0 329.6,274.0 333.0,274.0 336.3,274.0 339.6,274.0 342.9,274.0 346.2,274.0 349.5,274.0 352.8,274.0 356.1,274.0 359.4,274.0 362.7,274.0 366.0,274.0 369.3,274.0 372.6,274.0 375.9,274.0 379.2,274.0 382.5,274.0 385.9,274.0 389.2,274.0 392.5,274.0 395.8,274.0 399.1,274.0 402.4,274.0 405.7,274.0 409.0,274.0 412.3,274.0 415.6,274.0 418.9,274.0 422.2,274.0 425.5,274.0 428.8,274.0 432.1,274.0 435.4,274.0 438.8,274.0 442.1,274.0 445.4,274.0 448.7,274.0 452.0,274.0 455.3,274.0 458.6,274.0 461.9,274.0 465.2,274.0 468.5,274.0 471.8,274.0 475.1,274.0 478.4,274.0 481.7,274.0 485.0,274.0 488.3,274.0 491.7,274.0 495.0,274.0 498.3,274.0 501.6,274.0 504.9,274.0 508.2,274.0 511.5,274.0 514.8,274.0 518.1,274.0 521.4,274.0 524.7,274.0 528.0,274.0 531.3,274.0 534.6,274.0 537.9,274.0 541.2,268.0 544.6,274.0 547.9,274.0 551.2,274.0 554.5,274.0 557.8,274.0 561.1,274.0 564.4,274.0 567.7,274.0 571.0,274.0 574.3,274.0 577.6,268.0 580.9,274.0 584.2,274.0 587.5,274.0 590.8,274.0 594.1,274.0 597.5,274.0 600.8,274.0 604.1,274.0 607.4,274.0 610.7,274.0 614.0,268.0 617.3,274.0 620.6,274.0 623.9,274.0 627.2,274.0 630.5,274.0 633.8,274.0 637.1,274.0 640.4,274.0 643.7,274.0 647.0,274.0 650.4,274.0 653.7,274.0 657.0,274.0 660.3,250.0 663.6,274.0 666.9,274.0 670.2,274.0 673.5,274.0 676.8,274.0 680.1,274.0 683.4,274.0 686.7,274.0 690.0,274.0 693.3,274.0 696.6,274.0 699.9,274.0 703.3,274.0 706.6,274.0 709.9,274.0 713.2,274.0 716.5,274.0 719.8,268.0 723.1,274.0 726.4,280.0 729.7,286.0 733.0,286.0 736.3,286.0 739.6,286.0 742.9,286.0 746.2,280.0 749.5,280.0 752.8,286.0 756.2,286.0 759.5,280.0 762.8,286.0 766.1,286.0 769.4,286.0 772.7,286.0 776.0,286.0 779.3,280.0 782.6,286.0 785.9,286.0 789.2,286.0 792.5,286.0 795.8,286.0 799.1,286.0 802.4,286.0 805.7,286.0 809.1,286.0 812.4,286.0 815.7,280.0 819.0,280.0 822.3,286.0 825.6,280.0 828.9,286.0 832.2,286.0 835.5,286.0 838.8,286.0 842.1,286.0 845.4,286.0 848.7,286.0 852.0,286.0 855.3,286.0 858.6,286.0 862.0,286.0 865.3,286.0 868.6,286.0 871.9,286.0 875.2,286.0 878.5,280.0 881.8,286.0 885.1,280.0 888.4,286.0 891.7,286.0 895.0,286.0 898.3,286.0 901.6,286.0 904.9,286.0 908.2,286.0 911.5,286.0 914.9,286.0 918.2,286.0 921.5,286.0 924.8,286.0 928.1,286.0 931.4,286.0 934.7,280.0 938.0,286.0"/><polyline fill="none" stroke="#a855f7" stroke-width="2.5" stroke-linejoin="round" stroke-linecap="round" points="42.0,286.0 45.3,286.0 48.6,286.0 51.9,286.0 55.2,286.0 58.5,286.0 61.8,286.0 65.1,286.0 68.5,286.0 71.8,286.0 75.1,286.0 78.4,286.0 81.7,286.0 85.0,286.0 88.3,286.0 91.6,286.0 94.9,286.0 98.2,286.0 101.5,286.0 104.8,286.0 108.1,286.0 111.4,286.0 114.7,286.0 118.0,286.0 121.4,286.0 124.7,286.0 128.0,286.0 131.3,286.0 134.6,286.0 137.9,286.0 141.2,286.0 144.5,286.0 147.8,286.0 151.1,286.0 154.4,286.0 157.7,286.0 161.0,286.0 164.3,286.0 167.6,286.0 170.9,286.0 174.3,286.0 177.6,286.0 180.9,286.0 184.2,286.0 187.5,286.0 190.8,286.0 194.1,286.0 197.4,286.0 200.7,286.0 204.0,286.0 207.3,286.0 210.6,286.0 213.9,286.0 217.2,286.0 220.5,286.0 223.8,286.0 227.2,286.0 230.5,286.0 233.8,286.0 237.1,286.0 240.4,286.0 243.7,286.0 247.0,286.0 250.3,286.0 253.6,286.0 256.9,286.0 260.2,286.0 263.5,286.0 266.8,286.0 270.1,286.0 273.4,280.0 276.7,286.0 280.1,286.0 283.4,286.0 286.7,286.0 290.0,286.0 293.3,286.0 296.6,286.0 299.9,286.0 303.2,286.0 306.5,286.0 309.8,286.0 313.1,286.0 316.4,286.0 319.7,286.0 323.0,286.0 326.3,286.0 329.6,286.0 333.0,286.0 336.3,286.0 339.6,286.0 342.9,286.0 346.2,286.0 349.5,286.0 352.8,286.0 356.1,286.0 359.4,286.0 362.7,286.0 366.0,286.0 369.3,286.0 372.6,286.0 375.9,286.0 379.2,286.0 382.5,286.0 385.9,286.0 389.2,286.0 392.5,286.0 395.8,286.0 399.1,286.0 402.4,286.0 405.7,286.0 409.0,286.0 412.3,286.0 415.6,286.0 418.9,286.0 422.2,286.0 425.5,286.0 428.8,286.0 432.1,286.0 435.4,286.0 438.8,286.0 442.1,286.0 445.4,286.0 448.7,286.0 452.0,286.0 455.3,286.0 458.6,286.0 461.9,286.0 465.2,286.0 468.5,286.0 471.8,286.0 475.1,286.0 478.4,286.0 481.7,286.0 485.0,286.0 488.3,286.0 491.7,286.0 495.0,286.0 498.3,286.0 501.6,286.0 504.9,286.0 508.2,286.0 511.5,286.0 514.8,286.0 518.1,286.0 521.4,286.0 524.7,286.0 528.0,286.0 531.3,286.0 534.6,286.0 537.9,286.0 541.2,286.0 544.6,286.0 547.9,286.0 551.2,286.0 554.5,286.0 557.8,286.0 561.1,280.0 564.4,286.0 567.7,286.0 571.0,286.0 574.3,286.0 577.6,286.0 580.9,286.0 584.2,286.0 587.5,286.0 590.8,286.0 594.1,286.0 597.5,286.0 600.8,286.0 604.1,286.0 607.4,286.0 610.7,286.0 614.0,286.0 617.3,286.0 620.6,286.0 623.9,286.0 627.2,286.0 630.5,286.0 633.8,286.0 637.1,286.0 640.4,286.0 643.7,286.0 647.0,286.0 650.4,286.0 653.7,286.0 657.0,286.0 660.3,286.0 663.6,286.0 666.9,286.0 670.2,286.0 673.5,286.0 676.8,286.0 680.1,286.0 683.4,286.0 686.7,286.0 690.0,286.0 693.3,286.0 696.6,286.0 699.9,286.0 703.3,286.0 706.6,286.0 709.9,286.0 713.2,286.0 716.5,286.0 719.8,286.0 723.1,286.0 726.4,286.0 729.7,286.0 733.0,286.0 736.3,286.0 739.6,286.0 742.9,286.0 746.2,286.0 749.5,286.0 752.8,280.0 756.2,286.0 759.5,286.0 762.8,286.0 766.1,286.0 769.4,286.0 772.7,286.0 776.0,286.0 779.3,286.0 782.6,286.0 785.9,280.0 789.2,286.0 792.5,286.0 795.8,286.0 799.1,286.0 802.4,286.0 805.7,286.0 809.1,286.0 812.4,286.0 815.7,286.0 819.0,286.0 822.3,286.0 825.6,286.0 828.9,286.0 832.2,286.0 835.5,286.0 838.8,286.0 842.1,286.0 845.4,286.0 848.7,286.0 852.0,286.0 855.3,286.0 858.6,286.0 862.0,286.0 865.3,286.0 868.6,286.0 871.9,286.0 875.2,286.0 878.5,286.0 881.8,280.0 885.1,286.0 888.4,286.0 891.7,286.0 895.0,286.0 898.3,286.0 901.6,286.0 904.9,280.0 908.2,286.0 911.5,286.0 914.9,286.0 918.2,286.0 921.5,286.0 924.8,286.0 928.1,286.0 931.4,286.0 934.7,286.0 938.0,286.0"/><text x="42" y="308" font-size="11" fill="#5a688a">19/06 12:43</text><text x="938" y="308" text-anchor="end" font-size="11" fill="#5a688a">04/07 17:37</text></svg>