<svg xmlns="http://www.w3.org/2000/svg" viewBox="0 0 960 320" width="960" height="320" font-family="Segoe UI, system-ui, -apple-system, Roboto, Helvetica, Arial, sans-serif" role="img" aria-label="Availability history per region"><rect x="0.5" y="0.5" width="959" height="319" rx="14" fill="#0d1117" stroke="#2c3a5e"/><text x="42" y="26" font-size="14" font-weight="600" fill="#e6ecff">History · 322 points</text><circle cx="47" cy="40" r="5" fill="#22c55e"/><text x="57" y="44" font-size="12" fill="#9fb0d4">Available</text><circle cx="139.8" cy="40" r="5" fill="#f59e0b"/><text x="149.8" y="44" font-size="12" fill="#9fb0d4">Saturated</text><circle cx="232.60000000000002" cy="40" r="5" fill="#ef4444"/><text x="242.60000000000002" y="44" font-size="12" fill="#9fb0d4">Error</text><circle cx="296.6" cy="40" r="5" fill="#a855f7"/><text x="306.6" y="44" font-size="12" fill="#9fb0d4">Timeout</text><line x1="42" y1="286.0" x2="938" y2="286.0" stroke="#21304f" stroke-width="1"/><text x="35" y="289.0" text-anchor="end" font-size="11" fill="#9fb0d4">0</text><line x1="42" y1="227.5" x2="938" y2="227.5" stroke="#21304f" stroke-width="1"/><text x="35" y="230.5" text-anchor="end" font-size="11" fill="#9fb0d4">10</text><line x1="42" y1="169.0" x2="938" y2="169.0" stroke="#21304f" stroke-width="1"/><text x="35" y="172.0" text-anchor="end" font-size="11" fill="#9fb0d4">20</text><line x1="42" y1="110.5" x2="938" y2="110.5" stroke="#21304f" stroke-width="1"/><text x="35" y="113.5" text-anchor="end" font-size="11" fill="#9fb0d4">29</text><line x1="42" y1="52.0" x2="938" y2="52.0" stroke="#21304f" stroke-width="1"/><text x="35" y="55.0" text-anchor="end" font-size="11" fill="#9fb0d4">39</text><polyline fill="none" stroke="#22c55e" stroke-width="2.5" stroke-linejoin="round" stroke-linecap="round" points="42.0,70.0 44.8,70.0 47.6,88.0 50.4,88.0 53.2,76.0 56.0,76.0 58.7,76.0 61.5,70.0 64.3,76.0 67.1,70.0 69.9,64.0 72.7,58.0 75.5,58.0 78.3,58.0 81.1,58.0 83.9,58.0 86.7,58.0 89.5,58.0 92.2,58.0 95.0,58.0 97.8,58.0 100.6,58.0 103.4,58.0 106.2,58.0 109.0,58.0 111.8,58.0 114.6,58.0 117.4,58.0 120.2,58.0 122.9,58.0 125.7,58.0 128.5,70.0 131.3,76.0 134.1,94.0 136.9,64.0 139.7,64.0 142.5,58.0 145.3,58.0 148.1,58.0 150.9,70.0 153.7,76.0 156.4,76.0 159.2,82.0 162.0,82.0 164.8,82.0 167.6,82.0 170.4,76.0 173.2,64.0 176.0,70.0 178.8,70.0 181.6,82.0 184.4,76.0 187.1,76.0 189.9,82.0 192.7,76.0 195.5,76.0 198.3,76.0 201.1,64.0 203.9,64.0 206.7,76.0 209.5,76.0 212.3,76.0 215.1,88.0 217.9,70.0 220.6,64.0 223.4,58.0 226.2,58.0 229.0,70.0 231.8,70.0 234.6,70.0 237.4,76.0 240.2,70.0 243.0,70.0 245.8,70.0 248.6,70.0 251.3,76.0 254.1,82.0 256.9,76.0 259.7,70.0 262.5,70.0 265.3,70.0 268.1,70.0 270.9,76.0 273.7,70.0 276.5,70.0 279.3,70.0 282.0,70.0 284.8,70.0 287.6,70.0 290.4,70.0 293.2,70.0 296.0,70.0 298.8,70.0 301.6,70.0 304.4,70.0 307.2,70.0 310.0,70.0 312.8,70.0 315.5,70.0 318.3,70.0 321.1,70.0 323.9,70.0 326.7,70.0 329.5,70.0 332.3,70.0 335.1,70.0 337.9,70.0 340.7,70.0 343.5,70.0 346.2,70.0 349.0,70.0 351.8,70.0 354.6,70.0 357.4,70.0 360.2,70.0 363.0,70.0 365.8,70.0 368.6,70.0 371.4,70.0 374.2,70.0 377.0,70.0 379.7,70.0 382.5,70.0 385.3,70.0 388.1,70.0 390.9,70.0 393.7,70.0 396.5,70.0 399.3,70.0 402.1,70.0 404.9,70.0 407.7,70.0 410.4,70.0 413.2,70.0 416.0,70.0 418.8,70.0 421.6,70.0 424.4,70.0 427.2,70.0 430.0,70.0 432.8,70.0 435.6,70.0 438.4,70.0 441.2,70.0 443.9,70.0 446.7,70.0 449.5,70.0 452.3,70.0 455.1,70.0 457.9,70.0 460.7,70.0 463.5,76.0 466.3,70.0 469.1,70.0 471.9,70.0 474.6,70.0 477.4,70.0 480.2,76.0 483.0,76.0 485.8,88.0 488.6,88.0 491.4,88.0 494.2,94.0 497.0,94.0 499.8,94.0 502.6,94.0 505.4,88.0 508.1,88.0 510.9,82.0 513.7,82.0 516.5,82.0 519.3,88.0 522.1,88.0 524.9,94.0 527.7,82.0 530.5,82.0 533.3,82.0 536.1,82.0 538.8,88.0 541.6,88.0 544.4,94.0 547.2,94.0 550.0,88.0 552.8,88.0 555.6,88.0 558.4,94.0 561.2,94.0 564.0,106.0 566.8,94.0 569.6,94.0 572.3,94.0 575.1,94.0 577.9,88.0 580.7,88.0 583.5,82.0 586.3,76.0 589.1,76.0 591.9,76.0 594.7,76.0 597.5,76.0 600.3,76.0 603.0,70.0 605.8,70.0 608.6,70.0 611.4,76.0 614.2,88.0 617.0,82.0 619.8,70.0 622.6,70.0 625.4,70.0 628.2,76.0 631.0,76.0 633.8,76.0 636.5,82.0 639.3,70.0 642.1,76.0 644.9,64.0 647.7,70.0 650.5,58.0 653.3,58.0 656.1,58.0 658.9,58.0 661.7,58.0 664.5,64.0 667.2,58.0 670.0,64.0 672.8,58.0 675.6,58.0 678.4,58.0 681.2,58.0 684.0,64.0 686.8,64.0 689.6,64.0 692.4,76.0 695.2,70.0 698.0,82.0 700.7,70.0 703.5,76.0 706.3,58.0 709.1,64.0 711.9,58.0 714.7,64.0 717.5,58.0 720.3,58.0 723.1,58.0 725.9,64.0 728.7,70.0 731.4,64.0 734.2,64.0 737.0,64.0 739.8,70.0 742.6,70.0 745.4,64.0 748.2,70.0 751.0,70.0 753.8,70.0 756.6,58.0 759.4,58.0 762.1,58.0 764.9,58.0 767.7,58.0 770.5,64.0 773.3,58.0 776.1,58.0 778.9,58.0 781.7,58.0 784.5,58.0 787.3,58.0 790.1,58.0 792.9,58.0 795.6,64.0 798.4,58.0 801.2,58.0 804.0,58.0 806.8,58.0 809.6,58.0 812.4,58.0 815.2,58.0 818.0,64.0 820.8,58.0 823.6,58.0 826.3,58.0 829.1,58.0 831.9,58.0 834.7,58.0 837.5,58.0 840.3,58.0 843.1,58.0 845.9,58.0 848.7,58.0 851.5,58.0 854.3,58.0 857.1,58.0 859.8,58.0 862.6,58.0 865.4,58.0 868.2,58.0 871.0,58.0 873.8,64.0 876.6,64.0 879.4,58.0 882.2,58.0 885.0,58.0 887.8,64.0 890.5,64.0 893.3,76.0 896.1,64.0 898.9,64.0 901.7,70.0 904.5,58.0 907.3,58.0 910.1,58.0 912.9,58.0 915.7,58.0 918.5,58.0 921.3,70.0 924.0,64.0 926.8,64.0 929.6,64.0 932.4,64.0 935.2,70.0 938.0,70.0"/><polyline fill="none" stroke="#f59e0b" stroke-width="2.5" stroke-linejoin="round" stroke-linecap="round" points="42.0,274.0 44.8,274.0 47.6,274.0 50.4,280.0 53.2,268.0 56.0,268.0 58.7,268.0 61.5,274.0 64.3,274.0 67.1,274.0 69.9,280.0 72.7,286.0 75.5,286.0 78.3,286.0 81.1,286.0 83.9,286.0 86.7,286.0 89.5,286.0 92.2,286.0 95.0,286.0 97.8,286.0 100.6,286.0 103.4,286.0 106.2,286.0 109.0,286.0 111.8,286.0 114.6,286.0 117.4,286.0 120.2,286.0 122.9,286.0 125.7,286.0 128.5,274.0 131.3,280.0 134.1,280.0 136.9,280.0 139.7,280.0 142.5,286.0 145.3,286.0 148.1,286.0 150.9,274.0 153.7,268.0 156.4,268.0 159.2,262.0 162.0,262.0 164.8,262.0 167.6,262.0 170.4,268.0 173.2,280.0 176.0,280.0 178.8,274.0 181.6,262.0 184.4,268.0 187.1,268.0 189.9,262.0 192.7,268.0 195.5,268.0 198.3,268.0 201.1,280.0 203.9,280.0 206.7,268.0 209.5,268.0 212.3,268.0 215.1,262.0 217.9,274.0 220.6,280.0 223.4,286.0 226.2,286.0 229.0,274.0 231.8,274.0 234.6,274.0 237.4,274.0 240.2,274.0 243.0,274.0 245.8,274.0 248.6,274.0 251.3,280.0 254.1,274.0 256.9,280.0 259.7,286.0 262.5,286.0 265.3,286.0 268.1,286.0 270.9,280.0 273.7,286.0 276.5,286.0 279.3,286.0 282.0,286.0 284.8,286.0 287.6,286.0 290.4,286.0 293.2,286.0 296.0,286.0 298.8,286.0 301.6,286.0 304.4,286.0 307.2,286.0 310.0,286.0 312.8,286.0 315.5,286.0 318.3,286.0 321.1,286.0 323.9,286.0 326.7,286.0 329.5,286.0 332.3,286.0 335.1,286.0 337.9,286.0 340.7,286.0 343.5,286.0 346.2,286.0 349.0,286.0 351.8,286.0 354.6,286.0 357.4,286.0 360.2,286.0 363.0,286.0 365.8,286.0 368.6,286.0 371.4,286.0 374.2,286.0 377.0,286.0 379.7,286.0 382.5,286.0 385.3,286.0 388.1,286.0 390.9,286.0 393.7,286.0 396.5,286.0 399.3,286.0 402.1,286.0 404.9,286.0 407.7,286.0 410.4,286.0 413.2,286.0 416.0,286.0 418.8,286.0 421.6,286.0 424.4,286.0 427.2,286.0 430.0,286.0 432.8,286.0 435.6,286.0 438.4,286.0 441.2,286.0 443.9,286.0 446.7,286.0 449.5,286.0 452.3,286.0 455.1,286.0 457.9,286.0 460.7,286.0 463.5,286.0 466.3,286.0 469.1,286.0 471.9,286.0 474.6,286.0 477.4,286.0 480.2,286.0 483.0,280.0 485.8,268.0 488.6,268.0 491.4,268.0 494.2,268.0 497.0,262.0 499.8,262.0 502.6,262.0 505.4,268.0 508.1,268.0 510.9,274.0 513.7,274.0 516.5,274.0 519.3,268.0 522.1,268.0 524.9,268.0 527.7,274.0 530.5,274.0 533.3,274.0 536.1,274.0 538.8,268.0 541.6,268.0 544.4,262.0 547.2,262.0 550.0,268.0 552.8,268.0 555.6,268.0 558.4,262.0 561.2,262.0 564.0,274.0 566.8,262.0 569.6,262.0 572.3,262.0 575.1,262.0 577.9,268.0 580.7,268.0 583.5,274.0 586.3,280.0 589.1,280.0 591.9,280.0 594.7,280.0 597.5,280.0 600.3,280.0 603.0,286.0 605.8,286.0 608.6,286.0 611.4,280.0 614.2,274.0 617.0,274.0 619.8,280.0 622.6,274.0 625.4,274.0 628.2,268.0 631.0,268.0 633.8,268.0 636.5,268.0 639.3,280.0 642.1,274.0 644.9,280.0 647.7,280.0 650.5,286.0 653.3,286.0 656.1,286.0 658.9,286.0 661.7,286.0 664.5,286.0 667.2,286.0 670.0,286.0 672.8,286.0 675.6,286.0 678.4,286.0 681.2,286.0 684.0,280.0 686.8,280.0 689.6,280.0 692.4,268.0 695.2,280.0 698.0,268.0 700.7,274.0 703.5,274.0 706.3,286.0 709.1,280.0 711.9,286.0 714.7,280.0 717.5,286.0 720.3,286.0 723.1,286.0 725.9,280.0 728.7,274.0 731.4,280.0 734.2,280.0 737.0,280.0 739.8,274.0 742.6,274.0 745.4,280.0 748.2,280.0 751.0,280.0 753.8,280.0 756.6,286.0 759.4,286.0 762.1,286.0 764.9,286.0 767.7,286.0 770.5,286.0 773.3,286.0 776.1,286.0 778.9,286.0 781.7,286.0 784.5,286.0 787.3,286.0 790.1,286.0 792.9,286.0 795.6,286.0 798.4,286.0 801.2,286.0 804.0,286.0 806.8,286.0 809.6,286.0 812.4,286.0 815.2,286.0 818.0,286.0 820.8,286.0 823.6,286.0 826.3,286.0 829.1,286.0 831.9,286.0 834.7,286.0 837.5,286.0 840.3,286.0 843.1,286.0 845.9,286.0 848.7,286.0 851.5,286.0 854.3,286.0 857.1,286.0 859.8,286.0 862.6,286.0 865.4,286.0 868.2,286.0 871.0,286.0 873.8,286.0 876.6,286.0 879.4,286.0 882.2,286.0 885.0,286.0 887.8,280.0 890.5,280.0 893.3,280.0 896.1,280.0 898.9,280.0 901.7,274.0 904.5,286.0 907.3,286.0 910.1,286.0 912.9,286.0 915.7,286.0 918.5,286.0 921.3,286.0 924.0,280.0 926.8,280.0 929.6,280.0 932.4,280.0 935.2,274.0 938.0,274.0"/><polyline fill="none" stroke="#ef4444" stroke-width="2.5" stroke-linejoin="round" stroke-linecap="round" points="42.0,280.0 44.8,280.0 47.6,268.0 50.4,262.0 53.2,286.0 56.0,286.0 58.7,286.0 61.5,286.0 64.3,280.0 67.1,286.0 69.9,286.0 72.7,286.0 75.5,286.0 78.3,286.0 81.1,286.0 83.9,286.0 86.7,286.0 89.5,286.0 92.2,286.0 95.0,286.0 97.8,286.0 100.6,286.0 103.4,286.0 106.2,286.0 109.0,286.0 111.8,286.0 114.6,286.0 117.4,286.0 120.2,286.0 122.9,286.0 125.7,286.0 128.5,286.0 131.3,274.0 134.1,256.0 136.9,286.0 139.7,286.0 142.5,286.0 145.3,286.0 148.1,286.0 150.9,286.0 153.7,286.0 156.4,286.0 159.2,286.0 162.0,286.0 164.8,286.0 167.6,286.0 170.4,286.0 173.2,286.0 176.0,280.0 178.8,286.0 181.6,286.0 184.4,286.0 187.1,286.0 189.9,286.0 192.7,286.0 195.5,286.0 198.3,286.0 201.1,286.0 203.9,286.0 206.7,286.0 209.5,286.0 212.3,286.0 215.1,280.0 217.9,286.0 220.6,286.0 223.4,286.0 226.2,286.0 229.0,286.0 231.8,286.0 234.6,286.0 237.4,286.0 240.2,286.0 243.0,286.0 245.8,286.0 248.6,286.0 251.3,274.0 254.1,274.0 256.9,274.0 259.7,274.0 262.5,274.0 265.3,274.0 268.1,274.0 270.9,274.0 273.7,274.0 276.5,274.0 279.3,274.0 282.0,274.0 284.8,274.0 287.6,274.0 290.4,274.0 293.2,274.0 296.0,274.0 298.8,274.0 301.6,274.0 304.4,274.0 307.2,274.0 310.0,274.0 312.8,274.0 315.5,274.0 318.3,274.0 321.1,274.0 323.9,274.0 326.7,274.0 329.5,274.0 332.3,274.0 335.1,274.0 337.9,274.0 340.7,274.0 343.5,274.0 346.2,274.0 349.0,274.0 351.8,274.0 354.6,274.0 357.4,274.0 360.2,274.0 363.0,274.0 365.8,274.0 368.6,274.0 371.4,274.0 374.2,274.0 377.0,274.0 379.7,274.0 382.5,274.0 385.3,274.0 388.1,274.0 390.9,274.0 393.7,274.0 396.5,274.0 399.3,274.0 402.1,274.0 404.9,274.0 407.7,274.0 410.4,274.0 413.2,274.0 416.0,274.0 418.8,274.0 421.6,274.0 424.4,274.0 427.2,274.0 430.0,274.0 432.8,274.0 435.6,274.0 438.4,274.0 441.2,274.0 443.9,274.0 446.7,274.0 449.5,274.0 452.3,274.0 455.1,274.0 457.9,274.0 460.7,274.0 463.5,268.0 466.3,274.0 469.1,274.0 471.9,274.0 474.6,274.0 477.4,274.0 480.2,274.0 483.0,274.0 485.8,274.0 488.6,274.0 491.4,274.0 494.2,268.0 497.0,274.0 499.8,274.0 502.6,274.0 505.4,274.0 508.1,274.0 510.9,274.0 513.7,274.0 516.5,274.0 519.3,274.0 522.1,274.0 524.9,268.0 527.7,274.0 530.5,274.0 533.3,274.0 536.1,274.0 538.8,274.0 541.6,274.0 544.4,274.0 547.2,274.0 550.0,274.0 552.8,274.0 555.6,274.0 558.4,274.0 561.2,274.0 564.0,250.0 566.8,274.0 569.6,274.0 572.3,274.0 575.1,274.0 577.9,274.0 580.7,274.0 583.5,274.0 586.3,274.0 589.1,274.0 591.9,274.0 594.7,274.0 597.5,274.0 600.3,274.0 603.0,274.0 605.8,274.0 608.6,274.0 611.4,274.0 614.2,268.0 617.0,274.0 619.8,280.0 622.6,286.0 625.4,286.0 628.2,286.0 631.0,286.0 633.8,286.0 636.5,280.0 639.3,280.0 642.1,286.0 644.9,286.0 647.7,280.0 650.5,286.0 653.3,286.0 656.1,286.0 658.9,286.0 661.7,286.0 664.5,280.0 667.2,286.0 670.0,286.0 672.8,286.0 675.6,286.0 678.4,286.0 681.2,286.0 684.0,286.0 686.8,286.0 689.6,286.0 692.4,286.0 695.2,280.0 698.0,280.0 700.7,286.0 703.5,280.0 706.3,286.0 709.1,286.0 711.9,286.0 714.7,286.0 717.5,286.0 720.3,286.0 723.1,286.0 725.9,286.0 728.7,286.0 731.4,286.0 734.2,286.0 737.0,286.0 739.8,286.0 742.6,286.0 745.4,286.0 748.2,280.0 751.0,286.0 753.8,280.0 756.6,286.0 759.4,286.0 762.1,286.0 764.9,286.0 767.7,286.0 770.5,286.0 773.3,286.0 776.1,286.0 778.9,286.0 781.7,286.0 784.5,286.0 787.3,286.0 790.1,286.0 792.9,286.0 795.6,280.0 798.4,286.0 801.2,286.0 804.0,286.0 806.8,286.0 809.6,286.0 812.4,286.0 815.2,286.0 818.0,286.0 820.8,286.0 823.6,286.0 826.3,286.0 829.1,286.0 831.9,286.0 834.7,286.0 837.5,286.0 840.3,286.0 843.1,286.0 845.9,286.0 848.7,286.0 851.5,286.0 854.3,286.0 857.1,286.0 859.8,286.0 862.6,286.0 865.4,286.0 868.2,286.0 871.0,286.0 873.8,280.0 876.6,280.0 879.4,286.0 882.2,286.0 885.0,286.0 887.8,286.0 890.5,286.0 893.3,274.0 896.1,286.0 898.9,286.0 901.7,286.0 904.5,286.0 907.3,286.0 910.1,286.0 912.9,286.0 915.7,286.0 918.5,286.0 921.3,286.0 924.0,286.0 926.8,286.0 929.6,286.0 932.4,286.0 935.2,286.0 938.0,286.0"/><polyline fill="none" stroke="#a855f7" stroke-width="2.5" stroke-linejoin="round" stroke-linecap="round" points="42.0,286.0 44.8,286.0 47.6,286.0 50.4,286.0 53.2,286.0 56.0,286.0 58.7,286.0 61.5,286.0 64.3,286.0 67.1,286.0 69.9,286.0 72.7,286.0 75.5,286.0 78.3,286.0 81.1,286.0 83.9,286.0 86.7,286.0 89.5,286.0 92.2,286.0 95.0,286.0 97.8,286.0 100.6,286.0 103.4,286.0 106.2,286.0 109.0,286.0 111.8,286.0 114.6,286.0 117.4,286.0 120.2,286.0 122.9,286.0 125.7,286.0 128.5,286.0 131.3,286.0 134.1,286.0 136.9,286.0 139.7,286.0 142.5,286.0 145.3,286.0 148.1,286.0 150.9,286.0 153.7,286.0 156.4,286.0 159.2,286.0 162.0,286.0 164.8,286.0 167.6,286.0 170.4,286.0 173.2,286.0 176.0,286.0 178.8,286.0 181.6,286.0 184.4,286.0 187.1,286.0 189.9,286.0 192.7,286.0 195.5,286.0 198.3,286.0 201.1,286.0 203.9,286.0 206.7,286.0 209.5,286.0 212.3,286.0 215.1,286.0 217.9,286.0 220.6,286.0 223.4,286.0 226.2,286.0 229.0,286.0 231.8,286.0 234.6,286.0 237.4,280.0 240.2,286.0 243.0,286.0 245.8,286.0 248.6,286.0 251.3,286.0 254.1,286.0 256.9,286.0 259.7,286.0 262.5,286.0 265.3,286.0 268.1,286.0 270.9,286.0 273.7,286.0 276.5,286.0 279.3,286.0 282.0,286.0 284.8,286.0 287.6,286.0 290.4,286.0 293.2,286.0 296.0,286.0 298.8,286.0 301.6,286.0 304.4,286.0 307.2,286.0 310.0,286.0 312.8,286.0 315.5,286.0 318.3,286.0 321.1,286.0 323.9,286.0 326.7,286.0 329.5,286.0 332.3,286.0 335.1,286.0 337.9,286.0 340.7,286.0 343.5,286.0 346.2,286.0 349.0,286.0 351.8,286.0 354.6,286.0 357.4,286.0 360.2,286.0 363.0,286.0 365.8,286.0 368.6,286.0 371.4,286.0 374.2,286.0 377.0,286.0 379.7,286.0 382.5,286.0 385.3,286.0 388.1,286.0 390.9,286.0 393.7,286.0 396.5,286.0 399.3,286.0 402.1,286.0 404.9,286.0 407.7,286.0 410.4,286.0 413.2,286.0 416.0,286.0 418.8,286.0 421.6,286.0 424.4,286.0 427.2,286.0 430.0,286.0 432.8,286.0 435.6,286.0 438.4,286.0 441.2,286.0 443.9,286.0 446.7,286.0 449.5,286.0 452.3,286.0 455.1,286.0 457.9,286.0 460.7,286.0 463.5,286.0 466.3,286.0 469.1,286.0 471.9,286.0 474.6,286.0 477.4,286.0 480.2,280.0 483.0,286.0 485.8,286.0 488.6,286.0 491.4,286.0 494.2,286.0 497.0,286.0 499.8,286.0 502.6,286.0 505.4,286.0 508.1,286.0 510.9,286.0 513.7,286.0 516.5,286.0 519.3,286.0 522.1,286.0 524.9,286.0 527.7,286.0 530.5,286.0 533.3,286.0 536.1,286.0 538.8,286.0 541.6,286.0 544.4,286.0 547.2,286.0 550.0,286.0 552.8,286.0 555.6,286.0 558.4,286.0 561.2,286.0 564.0,286.0 566.8,286.0 569.6,286.0 572.3,286.0 575.1,286.0 577.9,286.0 580.7,286.0 583.5,286.0 586.3,286.0 589.1,286.0 591.9,286.0 594.7,286.0 597.5,286.0 600.3,286.0 603.0,286.0 605.8,286.0 608.6,286.0 611.4,286.0 614.2,286.0 617.0,286.0 619.8,286.0 622.6,286.0 625.4,286.0 628.2,286.0 631.0,286.0 633.8,286.0 636.5,286.0 639.3,286.0 642.1,280.0 644.9,286.0 647.7,286.0 650.5,286.0 653.3,286.0 656.1,286.0 658.9,286.0 661.7,286.0 664.5,286.0 667.2,286.0 670.0,280.0 672.8,286.0 675.6,286.0 678.4,286.0 681.2,286.0 684.0,286.0 686.8,286.0 689.6,286.0 692.4,286.0 695.2,286.0 698.0,286.0 700.7,286.0 703.5,286.0 706.3,286.0 709.1,286.0 711.9,286.0 714.7,286.0 717.5,286.0 720.3,286.0 723.1,286.0 725.9,286.0 728.7,286.0 731.4,286.0 734.2,286.0 737.0,286.0 739.8,286.0 742.6,286.0 745.4,286.0 748.2,286.0 751.0,280.0 753.8,286.0 756.6,286.0 759.4,286.0 762.1,286.0 764.9,286.0 767.7,286.0 770.5,280.0 773.3,286.0 776.1,286.0 778.9,286.0 781.7,286.0 784.5,286.0 787.3,286.0 790.1,286.0 792.9,286.0 795.6,286.0 798.4,286.0 801.2,286.0 804.0,286.0 806.8,286.0 809.6,286.0 812.4,286.0 815.2,286.0 818.0,280.0 820.8,286.0 823.6,286.0 826.3,286.0 829.1,286.0 831.9,286.0 834.7,286.0 837.5,286.0 840.3,286.0 843.1,286.0 845.9,286.0 848.7,286.0 851.5,286.0 854.3,286.0 857.1,286.0 859.8,286.0 862.6,286.0 865.4,286.0 868.2,286.0 871.0,286.0 873.8,286.0 876.6,286.0 879.4,286.0 882.2,286.0 885.0,286.0 887.8,286.0 890.5,286.0 893.3,286.0 896.1,286.0 898.9,286.0 901.7,286.0 904.5,286.0 907.3,286.0 910.1,286.0 912.9,286.0 915.7,286.0 918.5,286.0 921.3,274.0 924.0,286.0 926.8,286.0 929.6,286.0 932.4,286.0 935.2,286.0 938.0,286.0"/><text x="42" y="308" font-size="11" fill="#9fb0d4">19/06 12:43</text><text x="938" y="308" text-anchor="end" font-size="11" fill="#9fb0d4">07/07 07:29</text></svg>