<svg xmlns="http://www.w3.org/2000/svg" viewBox="0 0 960 320" width="960" height="320" font-family="Segoe UI, system-ui, -apple-system, Roboto, Helvetica, Arial, sans-serif" role="img" aria-label="Availability history per region"><rect x="0.5" y="0.5" width="959" height="319" rx="14" fill="#ffffff" stroke="#dce3f1"/><text x="42" y="26" font-size="14" font-weight="600" fill="#14203a">History · 260 points</text><circle cx="47" cy="40" r="5" fill="#22c55e"/><text x="57" y="44" font-size="12" fill="#5a688a">Available</text><circle cx="139.8" cy="40" r="5" fill="#f59e0b"/><text x="149.8" y="44" font-size="12" fill="#5a688a">Saturated</text><circle cx="232.60000000000002" cy="40" r="5" fill="#ef4444"/><text x="242.60000000000002" y="44" font-size="12" fill="#5a688a">Error</text><circle cx="296.6" cy="40" r="5" fill="#a855f7"/><text x="306.6" y="44" font-size="12" fill="#5a688a">Timeout</text><line x1="42" y1="286.0" x2="938" y2="286.0" stroke="#eef2f7" stroke-width="1"/><text x="35" y="289.0" text-anchor="end" font-size="11" fill="#5a688a">0</text><line x1="42" y1="227.5" x2="938" y2="227.5" stroke="#eef2f7" stroke-width="1"/><text x="35" y="230.5" text-anchor="end" font-size="11" fill="#5a688a">10</text><line x1="42" y1="169.0" x2="938" y2="169.0" stroke="#eef2f7" stroke-width="1"/><text x="35" y="172.0" text-anchor="end" font-size="11" fill="#5a688a">20</text><line x1="42" y1="110.5" x2="938" y2="110.5" stroke="#eef2f7" stroke-width="1"/><text x="35" y="113.5" text-anchor="end" font-size="11" fill="#5a688a">29</text><line x1="42" y1="52.0" x2="938" y2="52.0" stroke="#eef2f7" stroke-width="1"/><text x="35" y="55.0" text-anchor="end" font-size="11" fill="#5a688a">39</text><polyline fill="none" stroke="#22c55e" stroke-width="2.5" stroke-linejoin="round" stroke-linecap="round" points="42.0,70.0 45.5,70.0 48.9,88.0 52.4,88.0 55.8,76.0 59.3,76.0 62.8,76.0 66.2,70.0 69.7,76.0 73.1,70.0 76.6,64.0 80.1,58.0 83.5,58.0 87.0,58.0 90.4,58.0 93.9,58.0 97.4,58.0 100.8,58.0 104.3,58.0 107.7,58.0 111.2,58.0 114.6,58.0 118.1,58.0 121.6,58.0 125.0,58.0 128.5,58.0 131.9,58.0 135.4,58.0 138.9,58.0 142.3,58.0 145.8,58.0 149.2,70.0 152.7,76.0 156.2,94.0 159.6,64.0 163.1,64.0 166.5,58.0 170.0,58.0 173.5,58.0 176.9,70.0 180.4,76.0 183.8,76.0 187.3,82.0 190.8,82.0 194.2,82.0 197.7,82.0 201.1,76.0 204.6,64.0 208.1,70.0 211.5,70.0 215.0,82.0 218.4,76.0 221.9,76.0 225.4,82.0 228.8,76.0 232.3,76.0 235.7,76.0 239.2,64.0 242.6,64.0 246.1,76.0 249.6,76.0 253.0,76.0 256.5,88.0 259.9,70.0 263.4,64.0 266.9,58.0 270.3,58.0 273.8,70.0 277.2,70.0 280.7,70.0 284.2,76.0 287.6,70.0 291.1,70.0 294.5,70.0 298.0,70.0 301.5,76.0 304.9,82.0 308.4,76.0 311.8,70.0 315.3,70.0 318.8,70.0 322.2,70.0 325.7,76.0 329.1,70.0 332.6,70.0 336.1,70.0 339.5,70.0 343.0,70.0 346.4,70.0 349.9,70.0 353.4,70.0 356.8,70.0 360.3,70.0 363.7,70.0 367.2,70.0 370.6,70.0 374.1,70.0 377.6,70.0 381.0,70.0 384.5,70.0 387.9,70.0 391.4,70.0 394.9,70.0 398.3,70.0 401.8,70.0 405.2,70.0 408.7,70.0 412.2,70.0 415.6,70.0 419.1,70.0 422.5,70.0 426.0,70.0 429.5,70.0 432.9,70.0 436.4,70.0 439.8,70.0 443.3,70.0 446.8,70.0 450.2,70.0 453.7,70.0 457.1,70.0 460.6,70.0 464.1,70.0 467.5,70.0 471.0,70.0 474.4,70.0 477.9,70.0 481.4,70.0 484.8,70.0 488.3,70.0 491.7,70.0 495.2,70.0 498.6,70.0 502.1,70.0 505.6,70.0 509.0,70.0 512.5,70.0 515.9,70.0 519.4,70.0 522.9,70.0 526.3,70.0 529.8,70.0 533.2,70.0 536.7,70.0 540.2,70.0 543.6,70.0 547.1,70.0 550.5,70.0 554.0,70.0 557.5,70.0 560.9,70.0 564.4,76.0 567.8,70.0 571.3,70.0 574.8,70.0 578.2,70.0 581.7,70.0 585.1,76.0 588.6,76.0 592.1,88.0 595.5,88.0 599.0,88.0 602.4,94.0 605.9,94.0 609.4,94.0 612.8,94.0 616.3,88.0 619.7,88.0 623.2,82.0 626.6,82.0 630.1,82.0 633.6,88.0 637.0,88.0 640.5,94.0 643.9,82.0 647.4,82.0 650.9,82.0 654.3,82.0 657.8,88.0 661.2,88.0 664.7,94.0 668.2,94.0 671.6,88.0 675.1,88.0 678.5,88.0 682.0,94.0 685.5,94.0 688.9,106.0 692.4,94.0 695.8,94.0 699.3,94.0 702.8,94.0 706.2,88.0 709.7,88.0 713.1,82.0 716.6,76.0 720.1,76.0 723.5,76.0 727.0,76.0 730.4,76.0 733.9,76.0 737.4,70.0 740.8,70.0 744.3,70.0 747.7,76.0 751.2,88.0 754.6,82.0 758.1,70.0 761.6,70.0 765.0,70.0 768.5,76.0 771.9,76.0 775.4,76.0 778.9,82.0 782.3,70.0 785.8,76.0 789.2,64.0 792.7,70.0 796.2,58.0 799.6,58.0 803.1,58.0 806.5,58.0 810.0,58.0 813.5,64.0 816.9,58.0 820.4,64.0 823.8,58.0 827.3,58.0 830.8,58.0 834.2,58.0 837.7,64.0 841.1,64.0 844.6,64.0 848.1,76.0 851.5,70.0 855.0,82.0 858.4,70.0 861.9,76.0 865.4,58.0 868.8,64.0 872.3,58.0 875.7,64.0 879.2,58.0 882.6,58.0 886.1,58.0 889.6,64.0 893.0,70.0 896.5,64.0 899.9,64.0 903.4,64.0 906.9,70.0 910.3,70.0 913.8,64.0 917.2,70.0 920.7,70.0 924.2,70.0 927.6,58.0 931.1,58.0 934.5,58.0 938.0,58.0"/><polyline fill="none" stroke="#f59e0b" stroke-width="2.5" stroke-linejoin="round" stroke-linecap="round" points="42.0,274.0 45.5,274.0 48.9,274.0 52.4,280.0 55.8,268.0 59.3,268.0 62.8,268.0 66.2,274.0 69.7,274.0 73.1,274.0 76.6,280.0 80.1,286.0 83.5,286.0 87.0,286.0 90.4,286.0 93.9,286.0 97.4,286.0 100.8,286.0 104.3,286.0 107.7,286.0 111.2,286.0 114.6,286.0 118.1,286.0 121.6,286.0 125.0,286.0 128.5,286.0 131.9,286.0 135.4,286.0 138.9,286.0 142.3,286.0 145.8,286.0 149.2,274.0 152.7,280.0 156.2,280.0 159.6,280.0 163.1,280.0 166.5,286.0 170.0,286.0 173.5,286.0 176.9,274.0 180.4,268.0 183.8,268.0 187.3,262.0 190.8,262.0 194.2,262.0 197.7,262.0 201.1,268.0 204.6,280.0 208.1,280.0 211.5,274.0 215.0,262.0 218.4,268.0 221.9,268.0 225.4,262.0 228.8,268.0 232.3,268.0 235.7,268.0 239.2,280.0 242.6,280.0 246.1,268.0 249.6,268.0 253.0,268.0 256.5,262.0 259.9,274.0 263.4,280.0 266.9,286.0 270.3,286.0 273.8,274.0 277.2,274.0 280.7,274.0 284.2,274.0 287.6,274.0 291.1,274.0 294.5,274.0 298.0,274.0 301.5,280.0 304.9,274.0 308.4,280.0 311.8,286.0 315.3,286.0 318.8,286.0 322.2,286.0 325.7,280.0 329.1,286.0 332.6,286.0 336.1,286.0 339.5,286.0 343.0,286.0 346.4,286.0 349.9,286.0 353.4,286.0 356.8,286.0 360.3,286.0 363.7,286.0 367.2,286.0 370.6,286.0 374.1,286.0 377.6,286.0 381.0,286.0 384.5,286.0 387.9,286.0 391.4,286.0 394.9,286.0 398.3,286.0 401.8,286.0 405.2,286.0 408.7,286.0 412.2,286.0 415.6,286.0 419.1,286.0 422.5,286.0 426.0,286.0 429.5,286.0 432.9,286.0 436.4,286.0 439.8,286.0 443.3,286.0 446.8,286.0 450.2,286.0 453.7,286.0 457.1,286.0 460.6,286.0 464.1,286.0 467.5,286.0 471.0,286.0 474.4,286.0 477.9,286.0 481.4,286.0 484.8,286.0 488.3,286.0 491.7,286.0 495.2,286.0 498.6,286.0 502.1,286.0 505.6,286.0 509.0,286.0 512.5,286.0 515.9,286.0 519.4,286.0 522.9,286.0 526.3,286.0 529.8,286.0 533.2,286.0 536.7,286.0 540.2,286.0 543.6,286.0 547.1,286.0 550.5,286.0 554.0,286.0 557.5,286.0 560.9,286.0 564.4,286.0 567.8,286.0 571.3,286.0 574.8,286.0 578.2,286.0 581.7,286.0 585.1,286.0 588.6,280.0 592.1,268.0 595.5,268.0 599.0,268.0 602.4,268.0 605.9,262.0 609.4,262.0 612.8,262.0 616.3,268.0 619.7,268.0 623.2,274.0 626.6,274.0 630.1,274.0 633.6,268.0 637.0,268.0 640.5,268.0 643.9,274.0 647.4,274.0 650.9,274.0 654.3,274.0 657.8,268.0 661.2,268.0 664.7,262.0 668.2,262.0 671.6,268.0 675.1,268.0 678.5,268.0 682.0,262.0 685.5,262.0 688.9,274.0 692.4,262.0 695.8,262.0 699.3,262.0 702.8,262.0 706.2,268.0 709.7,268.0 713.1,274.0 716.6,280.0 720.1,280.0 723.5,280.0 727.0,280.0 730.4,280.0 733.9,280.0 737.4,286.0 740.8,286.0 744.3,286.0 747.7,280.0 751.2,274.0 754.6,274.0 758.1,280.0 761.6,274.0 765.0,274.0 768.5,268.0 771.9,268.0 775.4,268.0 778.9,268.0 782.3,280.0 785.8,274.0 789.2,280.0 792.7,280.0 796.2,286.0 799.6,286.0 803.1,286.0 806.5,286.0 810.0,286.0 813.5,286.0 816.9,286.0 820.4,286.0 823.8,286.0 827.3,286.0 830.8,286.0 834.2,286.0 837.7,280.0 841.1,280.0 844.6,280.0 848.1,268.0 851.5,280.0 855.0,268.0 858.4,274.0 861.9,274.0 865.4,286.0 868.8,280.0 872.3,286.0 875.7,280.0 879.2,286.0 882.6,286.0 886.1,286.0 889.6,280.0 893.0,274.0 896.5,280.0 899.9,280.0 903.4,280.0 906.9,274.0 910.3,274.0 913.8,280.0 917.2,280.0 920.7,280.0 924.2,280.0 927.6,286.0 931.1,286.0 934.5,286.0 938.0,286.0"/><polyline fill="none" stroke="#ef4444" stroke-width="2.5" stroke-linejoin="round" stroke-linecap="round" points="42.0,280.0 45.5,280.0 48.9,268.0 52.4,262.0 55.8,286.0 59.3,286.0 62.8,286.0 66.2,286.0 69.7,280.0 73.1,286.0 76.6,286.0 80.1,286.0 83.5,286.0 87.0,286.0 90.4,286.0 93.9,286.0 97.4,286.0 100.8,286.0 104.3,286.0 107.7,286.0 111.2,286.0 114.6,286.0 118.1,286.0 121.6,286.0 125.0,286.0 128.5,286.0 131.9,286.0 135.4,286.0 138.9,286.0 142.3,286.0 145.8,286.0 149.2,286.0 152.7,274.0 156.2,256.0 159.6,286.0 163.1,286.0 166.5,286.0 170.0,286.0 173.5,286.0 176.9,286.0 180.4,286.0 183.8,286.0 187.3,286.0 190.8,286.0 194.2,286.0 197.7,286.0 201.1,286.0 204.6,286.0 208.1,280.0 211.5,286.0 215.0,286.0 218.4,286.0 221.9,286.0 225.4,286.0 228.8,286.0 232.3,286.0 235.7,286.0 239.2,286.0 242.6,286.0 246.1,286.0 249.6,286.0 253.0,286.0 256.5,280.0 259.9,286.0 263.4,286.0 266.9,286.0 270.3,286.0 273.8,286.0 277.2,286.0 280.7,286.0 284.2,286.0 287.6,286.0 291.1,286.0 294.5,286.0 298.0,286.0 301.5,274.0 304.9,274.0 308.4,274.0 311.8,274.0 315.3,274.0 318.8,274.0 322.2,274.0 325.7,274.0 329.1,274.0 332.6,274.0 336.1,274.0 339.5,274.0 343.0,274.0 346.4,274.0 349.9,274.0 353.4,274.0 356.8,274.0 360.3,274.0 363.7,274.0 367.2,274.0 370.6,274.0 374.1,274.0 377.6,274.0 381.0,274.0 384.5,274.0 387.9,274.0 391.4,274.0 394.9,274.0 398.3,274.0 401.8,274.0 405.2,274.0 408.7,274.0 412.2,274.0 415.6,274.0 419.1,274.0 422.5,274.0 426.0,274.0 429.5,274.0 432.9,274.0 436.4,274.0 439.8,274.0 443.3,274.0 446.8,274.0 450.2,274.0 453.7,274.0 457.1,274.0 460.6,274.0 464.1,274.0 467.5,274.0 471.0,274.0 474.4,274.0 477.9,274.0 481.4,274.0 484.8,274.0 488.3,274.0 491.7,274.0 495.2,274.0 498.6,274.0 502.1,274.0 505.6,274.0 509.0,274.0 512.5,274.0 515.9,274.0 519.4,274.0 522.9,274.0 526.3,274.0 529.8,274.0 533.2,274.0 536.7,274.0 540.2,274.0 543.6,274.0 547.1,274.0 550.5,274.0 554.0,274.0 557.5,274.0 560.9,274.0 564.4,268.0 567.8,274.0 571.3,274.0 574.8,274.0 578.2,274.0 581.7,274.0 585.1,274.0 588.6,274.0 592.1,274.0 595.5,274.0 599.0,274.0 602.4,268.0 605.9,274.0 609.4,274.0 612.8,274.0 616.3,274.0 619.7,274.0 623.2,274.0 626.6,274.0 630.1,274.0 633.6,274.0 637.0,274.0 640.5,268.0 643.9,274.0 647.4,274.0 650.9,274.0 654.3,274.0 657.8,274.0 661.2,274.0 664.7,274.0 668.2,274.0 671.6,274.0 675.1,274.0 678.5,274.0 682.0,274.0 685.5,274.0 688.9,250.0 692.4,274.0 695.8,274.0 699.3,274.0 702.8,274.0 706.2,274.0 709.7,274.0 713.1,274.0 716.6,274.0 720.1,274.0 723.5,274.0 727.0,274.0 730.4,274.0 733.9,274.0 737.4,274.0 740.8,274.0 744.3,274.0 747.7,274.0 751.2,268.0 754.6,274.0 758.1,280.0 761.6,286.0 765.0,286.0 768.5,286.0 771.9,286.0 775.4,286.0 778.9,280.0 782.3,280.0 785.8,286.0 789.2,286.0 792.7,280.0 796.2,286.0 799.6,286.0 803.1,286.0 806.5,286.0 810.0,286.0 813.5,280.0 816.9,286.0 820.4,286.0 823.8,286.0 827.3,286.0 830.8,286.0 834.2,286.0 837.7,286.0 841.1,286.0 844.6,286.0 848.1,286.0 851.5,280.0 855.0,280.0 858.4,286.0 861.9,280.0 865.4,286.0 868.8,286.0 872.3,286.0 875.7,286.0 879.2,286.0 882.6,286.0 886.1,286.0 889.6,286.0 893.0,286.0 896.5,286.0 899.9,286.0 903.4,286.0 906.9,286.0 910.3,286.0 913.8,286.0 917.2,280.0 920.7,286.0 924.2,280.0 927.6,286.0 931.1,286.0 934.5,286.0 938.0,286.0"/><polyline fill="none" stroke="#a855f7" stroke-width="2.5" stroke-linejoin="round" stroke-linecap="round" points="42.0,286.0 45.5,286.0 48.9,286.0 52.4,286.0 55.8,286.0 59.3,286.0 62.8,286.0 66.2,286.0 69.7,286.0 73.1,286.0 76.6,286.0 80.1,286.0 83.5,286.0 87.0,286.0 90.4,286.0 93.9,286.0 97.4,286.0 100.8,286.0 104.3,286.0 107.7,286.0 111.2,286.0 114.6,286.0 118.1,286.0 121.6,286.0 125.0,286.0 128.5,286.0 131.9,286.0 135.4,286.0 138.9,286.0 142.3,286.0 145.8,286.0 149.2,286.0 152.7,286.0 156.2,286.0 159.6,286.0 163.1,286.0 166.5,286.0 170.0,286.0 173.5,286.0 176.9,286.0 180.4,286.0 183.8,286.0 187.3,286.0 190.8,286.0 194.2,286.0 197.7,286.0 201.1,286.0 204.6,286.0 208.1,286.0 211.5,286.0 215.0,286.0 218.4,286.0 221.9,286.0 225.4,286.0 228.8,286.0 232.3,286.0 235.7,286.0 239.2,286.0 242.6,286.0 246.1,286.0 249.6,286.0 253.0,286.0 256.5,286.0 259.9,286.0 263.4,286.0 266.9,286.0 270.3,286.0 273.8,286.0 277.2,286.0 280.7,286.0 284.2,280.0 287.6,286.0 291.1,286.0 294.5,286.0 298.0,286.0 301.5,286.0 304.9,286.0 308.4,286.0 311.8,286.0 315.3,286.0 318.8,286.0 322.2,286.0 325.7,286.0 329.1,286.0 332.6,286.0 336.1,286.0 339.5,286.0 343.0,286.0 346.4,286.0 349.9,286.0 353.4,286.0 356.8,286.0 360.3,286.0 363.7,286.0 367.2,286.0 370.6,286.0 374.1,286.0 377.6,286.0 381.0,286.0 384.5,286.0 387.9,286.0 391.4,286.0 394.9,286.0 398.3,286.0 401.8,286.0 405.2,286.0 408.7,286.0 412.2,286.0 415.6,286.0 419.1,286.0 422.5,286.0 426.0,286.0 429.5,286.0 432.9,286.0 436.4,286.0 439.8,286.0 443.3,286.0 446.8,286.0 450.2,286.0 453.7,286.0 457.1,286.0 460.6,286.0 464.1,286.0 467.5,286.0 471.0,286.0 474.4,286.0 477.9,286.0 481.4,286.0 484.8,286.0 488.3,286.0 491.7,286.0 495.2,286.0 498.6,286.0 502.1,286.0 505.6,286.0 509.0,286.0 512.5,286.0 515.9,286.0 519.4,286.0 522.9,286.0 526.3,286.0 529.8,286.0 533.2,286.0 536.7,286.0 540.2,286.0 543.6,286.0 547.1,286.0 550.5,286.0 554.0,286.0 557.5,286.0 560.9,286.0 564.4,286.0 567.8,286.0 571.3,286.0 574.8,286.0 578.2,286.0 581.7,286.0 585.1,280.0 588.6,286.0 592.1,286.0 595.5,286.0 599.0,286.0 602.4,286.0 605.9,286.0 609.4,286.0 612.8,286.0 616.3,286.0 619.7,286.0 623.2,286.0 626.6,286.0 630.1,286.0 633.6,286.0 637.0,286.0 640.5,286.0 643.9,286.0 647.4,286.0 650.9,286.0 654.3,286.0 657.8,286.0 661.2,286.0 664.7,286.0 668.2,286.0 671.6,286.0 675.1,286.0 678.5,286.0 682.0,286.0 685.5,286.0 688.9,286.0 692.4,286.0 695.8,286.0 699.3,286.0 702.8,286.0 706.2,286.0 709.7,286.0 713.1,286.0 716.6,286.0 720.1,286.0 723.5,286.0 727.0,286.0 730.4,286.0 733.9,286.0 737.4,286.0 740.8,286.0 744.3,286.0 747.7,286.0 751.2,286.0 754.6,286.0 758.1,286.0 761.6,286.0 765.0,286.0 768.5,286.0 771.9,286.0 775.4,286.0 778.9,286.0 782.3,286.0 785.8,280.0 789.2,286.0 792.7,286.0 796.2,286.0 799.6,286.0 803.1,286.0 806.5,286.0 810.0,286.0 813.5,286.0 816.9,286.0 820.4,280.0 823.8,286.0 827.3,286.0 830.8,286.0 834.2,286.0 837.7,286.0 841.1,286.0 844.6,286.0 848.1,286.0 851.5,286.0 855.0,286.0 858.4,286.0 861.9,286.0 865.4,286.0 868.8,286.0 872.3,286.0 875.7,286.0 879.2,286.0 882.6,286.0 886.1,286.0 889.6,286.0 893.0,286.0 896.5,286.0 899.9,286.0 903.4,286.0 906.9,286.0 910.3,286.0 913.8,286.0 917.2,286.0 920.7,280.0 924.2,286.0 927.6,286.0 931.1,286.0 934.5,286.0 938.0,286.0"/><text x="42" y="308" font-size="11" fill="#5a688a">19/06 12:43</text><text x="938" y="308" text-anchor="end" font-size="11" fill="#5a688a">04/07 01:30</text></svg>