<svg xmlns="http://www.w3.org/2000/svg" viewBox="0 0 960 320" width="960" height="320" font-family="Segoe UI, system-ui, -apple-system, Roboto, Helvetica, Arial, sans-serif" role="img" aria-label="Availability history per region"><rect x="0.5" y="0.5" width="959" height="319" rx="14" fill="#0d1117" stroke="#2c3a5e"/><text x="42" y="26" font-size="14" font-weight="600" fill="#e6ecff">History · 188 points</text><circle cx="47" cy="40" r="5" fill="#22c55e"/><text x="57" y="44" font-size="12" fill="#9fb0d4">Available</text><circle cx="139.8" cy="40" r="5" fill="#f59e0b"/><text x="149.8" y="44" font-size="12" fill="#9fb0d4">Saturated</text><circle cx="232.60000000000002" cy="40" r="5" fill="#ef4444"/><text x="242.60000000000002" y="44" font-size="12" fill="#9fb0d4">Error</text><circle cx="296.6" cy="40" r="5" fill="#a855f7"/><text x="306.6" y="44" font-size="12" fill="#9fb0d4">Timeout</text><line x1="42" y1="286.0" x2="938" y2="286.0" stroke="#21304f" stroke-width="1"/><text x="35" y="289.0" text-anchor="end" font-size="11" fill="#9fb0d4">0</text><line x1="42" y1="227.5" x2="938" y2="227.5" stroke="#21304f" stroke-width="1"/><text x="35" y="230.5" text-anchor="end" font-size="11" fill="#9fb0d4">10</text><line x1="42" y1="169.0" x2="938" y2="169.0" stroke="#21304f" stroke-width="1"/><text x="35" y="172.0" text-anchor="end" font-size="11" fill="#9fb0d4">20</text><line x1="42" y1="110.5" x2="938" y2="110.5" stroke="#21304f" stroke-width="1"/><text x="35" y="113.5" text-anchor="end" font-size="11" fill="#9fb0d4">29</text><line x1="42" y1="52.0" x2="938" y2="52.0" stroke="#21304f" stroke-width="1"/><text x="35" y="55.0" text-anchor="end" font-size="11" fill="#9fb0d4">39</text><polyline fill="none" stroke="#22c55e" stroke-width="2.5" stroke-linejoin="round" stroke-linecap="round" points="42.0,70.0 46.8,70.0 51.6,88.0 56.4,88.0 61.2,76.0 66.0,76.0 70.7,76.0 75.5,70.0 80.3,76.0 85.1,70.0 89.9,64.0 94.7,58.0 99.5,58.0 104.3,58.0 109.1,58.0 113.9,58.0 118.7,58.0 123.5,58.0 128.2,58.0 133.0,58.0 137.8,58.0 142.6,58.0 147.4,58.0 152.2,58.0 157.0,58.0 161.8,58.0 166.6,58.0 171.4,58.0 176.2,58.0 181.0,58.0 185.7,58.0 190.5,70.0 195.3,76.0 200.1,94.0 204.9,64.0 209.7,64.0 214.5,58.0 219.3,58.0 224.1,58.0 228.9,70.0 233.7,76.0 238.4,76.0 243.2,82.0 248.0,82.0 252.8,82.0 257.6,82.0 262.4,76.0 267.2,64.0 272.0,70.0 276.8,70.0 281.6,82.0 286.4,76.0 291.2,76.0 295.9,82.0 300.7,76.0 305.5,76.0 310.3,76.0 315.1,64.0 319.9,64.0 324.7,76.0 329.5,76.0 334.3,76.0 339.1,88.0 343.9,70.0 348.7,64.0 353.4,58.0 358.2,58.0 363.0,70.0 367.8,70.0 372.6,70.0 377.4,76.0 382.2,70.0 387.0,70.0 391.8,70.0 396.6,70.0 401.4,76.0 406.1,82.0 410.9,76.0 415.7,70.0 420.5,70.0 425.3,70.0 430.1,70.0 434.9,76.0 439.7,70.0 444.5,70.0 449.3,70.0 454.1,70.0 458.9,70.0 463.6,70.0 468.4,70.0 473.2,70.0 478.0,70.0 482.8,70.0 487.6,70.0 492.4,70.0 497.2,70.0 502.0,70.0 506.8,70.0 511.6,70.0 516.4,70.0 521.1,70.0 525.9,70.0 530.7,70.0 535.5,70.0 540.3,70.0 545.1,70.0 549.9,70.0 554.7,70.0 559.5,70.0 564.3,70.0 569.1,70.0 573.9,70.0 578.6,70.0 583.4,70.0 588.2,70.0 593.0,70.0 597.8,70.0 602.6,70.0 607.4,70.0 612.2,70.0 617.0,70.0 621.8,70.0 626.6,70.0 631.3,70.0 636.1,70.0 640.9,70.0 645.7,70.0 650.5,70.0 655.3,70.0 660.1,70.0 664.9,70.0 669.7,70.0 674.5,70.0 679.3,70.0 684.1,70.0 688.8,70.0 693.6,70.0 698.4,70.0 703.2,70.0 708.0,70.0 712.8,70.0 717.6,70.0 722.4,70.0 727.2,70.0 732.0,70.0 736.8,70.0 741.6,70.0 746.3,70.0 751.1,70.0 755.9,70.0 760.7,70.0 765.5,76.0 770.3,70.0 775.1,70.0 779.9,70.0 784.7,70.0 789.5,70.0 794.3,76.0 799.0,76.0 803.8,88.0 808.6,88.0 813.4,88.0 818.2,94.0 823.0,94.0 827.8,94.0 832.6,94.0 837.4,88.0 842.2,88.0 847.0,82.0 851.8,82.0 856.5,82.0 861.3,88.0 866.1,88.0 870.9,94.0 875.7,82.0 880.5,82.0 885.3,82.0 890.1,82.0 894.9,88.0 899.7,88.0 904.5,94.0 909.3,94.0 914.0,88.0 918.8,88.0 923.6,88.0 928.4,94.0 933.2,94.0 938.0,106.0"/><polyline fill="none" stroke="#f59e0b" stroke-width="2.5" stroke-linejoin="round" stroke-linecap="round" points="42.0,274.0 46.8,274.0 51.6,274.0 56.4,280.0 61.2,268.0 66.0,268.0 70.7,268.0 75.5,274.0 80.3,274.0 85.1,274.0 89.9,280.0 94.7,286.0 99.5,286.0 104.3,286.0 109.1,286.0 113.9,286.0 118.7,286.0 123.5,286.0 128.2,286.0 133.0,286.0 137.8,286.0 142.6,286.0 147.4,286.0 152.2,286.0 157.0,286.0 161.8,286.0 166.6,286.0 171.4,286.0 176.2,286.0 181.0,286.0 185.7,286.0 190.5,274.0 195.3,280.0 200.1,280.0 204.9,280.0 209.7,280.0 214.5,286.0 219.3,286.0 224.1,286.0 228.9,274.0 233.7,268.0 238.4,268.0 243.2,262.0 248.0,262.0 252.8,262.0 257.6,262.0 262.4,268.0 267.2,280.0 272.0,280.0 276.8,274.0 281.6,262.0 286.4,268.0 291.2,268.0 295.9,262.0 300.7,268.0 305.5,268.0 310.3,268.0 315.1,280.0 319.9,280.0 324.7,268.0 329.5,268.0 334.3,268.0 339.1,262.0 343.9,274.0 348.7,280.0 353.4,286.0 358.2,286.0 363.0,274.0 367.8,274.0 372.6,274.0 377.4,274.0 382.2,274.0 387.0,274.0 391.8,274.0 396.6,274.0 401.4,280.0 406.1,274.0 410.9,280.0 415.7,286.0 420.5,286.0 425.3,286.0 430.1,286.0 434.9,280.0 439.7,286.0 444.5,286.0 449.3,286.0 454.1,286.0 458.9,286.0 463.6,286.0 468.4,286.0 473.2,286.0 478.0,286.0 482.8,286.0 487.6,286.0 492.4,286.0 497.2,286.0 502.0,286.0 506.8,286.0 511.6,286.0 516.4,286.0 521.1,286.0 525.9,286.0 530.7,286.0 535.5,286.0 540.3,286.0 545.1,286.0 549.9,286.0 554.7,286.0 559.5,286.0 564.3,286.0 569.1,286.0 573.9,286.0 578.6,286.0 583.4,286.0 588.2,286.0 593.0,286.0 597.8,286.0 602.6,286.0 607.4,286.0 612.2,286.0 617.0,286.0 621.8,286.0 626.6,286.0 631.3,286.0 636.1,286.0 640.9,286.0 645.7,286.0 650.5,286.0 655.3,286.0 660.1,286.0 664.9,286.0 669.7,286.0 674.5,286.0 679.3,286.0 684.1,286.0 688.8,286.0 693.6,286.0 698.4,286.0 703.2,286.0 708.0,286.0 712.8,286.0 717.6,286.0 722.4,286.0 727.2,286.0 732.0,286.0 736.8,286.0 741.6,286.0 746.3,286.0 751.1,286.0 755.9,286.0 760.7,286.0 765.5,286.0 770.3,286.0 775.1,286.0 779.9,286.0 784.7,286.0 789.5,286.0 794.3,286.0 799.0,280.0 803.8,268.0 808.6,268.0 813.4,268.0 818.2,268.0 823.0,262.0 827.8,262.0 832.6,262.0 837.4,268.0 842.2,268.0 847.0,274.0 851.8,274.0 856.5,274.0 861.3,268.0 866.1,268.0 870.9,268.0 875.7,274.0 880.5,274.0 885.3,274.0 890.1,274.0 894.9,268.0 899.7,268.0 904.5,262.0 909.3,262.0 914.0,268.0 918.8,268.0 923.6,268.0 928.4,262.0 933.2,262.0 938.0,274.0"/><polyline fill="none" stroke="#ef4444" stroke-width="2.5" stroke-linejoin="round" stroke-linecap="round" points="42.0,280.0 46.8,280.0 51.6,268.0 56.4,262.0 61.2,286.0 66.0,286.0 70.7,286.0 75.5,286.0 80.3,280.0 85.1,286.0 89.9,286.0 94.7,286.0 99.5,286.0 104.3,286.0 109.1,286.0 113.9,286.0 118.7,286.0 123.5,286.0 128.2,286.0 133.0,286.0 137.8,286.0 142.6,286.0 147.4,286.0 152.2,286.0 157.0,286.0 161.8,286.0 166.6,286.0 171.4,286.0 176.2,286.0 181.0,286.0 185.7,286.0 190.5,286.0 195.3,274.0 200.1,256.0 204.9,286.0 209.7,286.0 214.5,286.0 219.3,286.0 224.1,286.0 228.9,286.0 233.7,286.0 238.4,286.0 243.2,286.0 248.0,286.0 252.8,286.0 257.6,286.0 262.4,286.0 267.2,286.0 272.0,280.0 276.8,286.0 281.6,286.0 286.4,286.0 291.2,286.0 295.9,286.0 300.7,286.0 305.5,286.0 310.3,286.0 315.1,286.0 319.9,286.0 324.7,286.0 329.5,286.0 334.3,286.0 339.1,280.0 343.9,286.0 348.7,286.0 353.4,286.0 358.2,286.0 363.0,286.0 367.8,286.0 372.6,286.0 377.4,286.0 382.2,286.0 387.0,286.0 391.8,286.0 396.6,286.0 401.4,274.0 406.1,274.0 410.9,274.0 415.7,274.0 420.5,274.0 425.3,274.0 430.1,274.0 434.9,274.0 439.7,274.0 444.5,274.0 449.3,274.0 454.1,274.0 458.9,274.0 463.6,274.0 468.4,274.0 473.2,274.0 478.0,274.0 482.8,274.0 487.6,274.0 492.4,274.0 497.2,274.0 502.0,274.0 506.8,274.0 511.6,274.0 516.4,274.0 521.1,274.0 525.9,274.0 530.7,274.0 535.5,274.0 540.3,274.0 545.1,274.0 549.9,274.0 554.7,274.0 559.5,274.0 564.3,274.0 569.1,274.0 573.9,274.0 578.6,274.0 583.4,274.0 588.2,274.0 593.0,274.0 597.8,274.0 602.6,274.0 607.4,274.0 612.2,274.0 617.0,274.0 621.8,274.0 626.6,274.0 631.3,274.0 636.1,274.0 640.9,274.0 645.7,274.0 650.5,274.0 655.3,274.0 660.1,274.0 664.9,274.0 669.7,274.0 674.5,274.0 679.3,274.0 684.1,274.0 688.8,274.0 693.6,274.0 698.4,274.0 703.2,274.0 708.0,274.0 712.8,274.0 717.6,274.0 722.4,274.0 727.2,274.0 732.0,274.0 736.8,274.0 741.6,274.0 746.3,274.0 751.1,274.0 755.9,274.0 760.7,274.0 765.5,268.0 770.3,274.0 775.1,274.0 779.9,274.0 784.7,274.0 789.5,274.0 794.3,274.0 799.0,274.0 803.8,274.0 808.6,274.0 813.4,274.0 818.2,268.0 823.0,274.0 827.8,274.0 832.6,274.0 837.4,274.0 842.2,274.0 847.0,274.0 851.8,274.0 856.5,274.0 861.3,274.0 866.1,274.0 870.9,268.0 875.7,274.0 880.5,274.0 885.3,274.0 890.1,274.0 894.9,274.0 899.7,274.0 904.5,274.0 909.3,274.0 914.0,274.0 918.8,274.0 923.6,274.0 928.4,274.0 933.2,274.0 938.0,250.0"/><polyline fill="none" stroke="#a855f7" stroke-width="2.5" stroke-linejoin="round" stroke-linecap="round" points="42.0,286.0 46.8,286.0 51.6,286.0 56.4,286.0 61.2,286.0 66.0,286.0 70.7,286.0 75.5,286.0 80.3,286.0 85.1,286.0 89.9,286.0 94.7,286.0 99.5,286.0 104.3,286.0 109.1,286.0 113.9,286.0 118.7,286.0 123.5,286.0 128.2,286.0 133.0,286.0 137.8,286.0 142.6,286.0 147.4,286.0 152.2,286.0 157.0,286.0 161.8,286.0 166.6,286.0 171.4,286.0 176.2,286.0 181.0,286.0 185.7,286.0 190.5,286.0 195.3,286.0 200.1,286.0 204.9,286.0 209.7,286.0 214.5,286.0 219.3,286.0 224.1,286.0 228.9,286.0 233.7,286.0 238.4,286.0 243.2,286.0 248.0,286.0 252.8,286.0 257.6,286.0 262.4,286.0 267.2,286.0 272.0,286.0 276.8,286.0 281.6,286.0 286.4,286.0 291.2,286.0 295.9,286.0 300.7,286.0 305.5,286.0 310.3,286.0 315.1,286.0 319.9,286.0 324.7,286.0 329.5,286.0 334.3,286.0 339.1,286.0 343.9,286.0 348.7,286.0 353.4,286.0 358.2,286.0 363.0,286.0 367.8,286.0 372.6,286.0 377.4,280.0 382.2,286.0 387.0,286.0 391.8,286.0 396.6,286.0 401.4,286.0 406.1,286.0 410.9,286.0 415.7,286.0 420.5,286.0 425.3,286.0 430.1,286.0 434.9,286.0 439.7,286.0 444.5,286.0 449.3,286.0 454.1,286.0 458.9,286.0 463.6,286.0 468.4,286.0 473.2,286.0 478.0,286.0 482.8,286.0 487.6,286.0 492.4,286.0 497.2,286.0 502.0,286.0 506.8,286.0 511.6,286.0 516.4,286.0 521.1,286.0 525.9,286.0 530.7,286.0 535.5,286.0 540.3,286.0 545.1,286.0 549.9,286.0 554.7,286.0 559.5,286.0 564.3,286.0 569.1,286.0 573.9,286.0 578.6,286.0 583.4,286.0 588.2,286.0 593.0,286.0 597.8,286.0 602.6,286.0 607.4,286.0 612.2,286.0 617.0,286.0 621.8,286.0 626.6,286.0 631.3,286.0 636.1,286.0 640.9,286.0 645.7,286.0 650.5,286.0 655.3,286.0 660.1,286.0 664.9,286.0 669.7,286.0 674.5,286.0 679.3,286.0 684.1,286.0 688.8,286.0 693.6,286.0 698.4,286.0 703.2,286.0 708.0,286.0 712.8,286.0 717.6,286.0 722.4,286.0 727.2,286.0 732.0,286.0 736.8,286.0 741.6,286.0 746.3,286.0 751.1,286.0 755.9,286.0 760.7,286.0 765.5,286.0 770.3,286.0 775.1,286.0 779.9,286.0 784.7,286.0 789.5,286.0 794.3,280.0 799.0,286.0 803.8,286.0 808.6,286.0 813.4,286.0 818.2,286.0 823.0,286.0 827.8,286.0 832.6,286.0 837.4,286.0 842.2,286.0 847.0,286.0 851.8,286.0 856.5,286.0 861.3,286.0 866.1,286.0 870.9,286.0 875.7,286.0 880.5,286.0 885.3,286.0 890.1,286.0 894.9,286.0 899.7,286.0 904.5,286.0 909.3,286.0 914.0,286.0 918.8,286.0 923.6,286.0 928.4,286.0 933.2,286.0 938.0,286.0"/><text x="42" y="308" font-size="11" fill="#9fb0d4">19/06 12:43</text><text x="938" y="308" text-anchor="end" font-size="11" fill="#9fb0d4">30/06 14:33</text></svg>