<svg xmlns="http://www.w3.org/2000/svg" viewBox="0 0 960 320" width="960" height="320" font-family="Segoe UI, system-ui, -apple-system, Roboto, Helvetica, Arial, sans-serif" role="img" aria-label="Availability history per region"><rect x="0.5" y="0.5" width="959" height="319" rx="14" fill="#0d1117" stroke="#2c3a5e"/><text x="42" y="26" font-size="14" font-weight="600" fill="#e6ecff">History · 201 points</text><circle cx="47" cy="40" r="5" fill="#22c55e"/><text x="57" y="44" font-size="12" fill="#9fb0d4">Available</text><circle cx="139.8" cy="40" r="5" fill="#f59e0b"/><text x="149.8" y="44" font-size="12" fill="#9fb0d4">Saturated</text><circle cx="232.60000000000002" cy="40" r="5" fill="#ef4444"/><text x="242.60000000000002" y="44" font-size="12" fill="#9fb0d4">Error</text><circle cx="296.6" cy="40" r="5" fill="#a855f7"/><text x="306.6" y="44" font-size="12" fill="#9fb0d4">Timeout</text><line x1="42" y1="286.0" x2="938" y2="286.0" stroke="#21304f" stroke-width="1"/><text x="35" y="289.0" text-anchor="end" font-size="11" fill="#9fb0d4">0</text><line x1="42" y1="227.5" x2="938" y2="227.5" stroke="#21304f" stroke-width="1"/><text x="35" y="230.5" text-anchor="end" font-size="11" fill="#9fb0d4">11</text><line x1="42" y1="169.0" x2="938" y2="169.0" stroke="#21304f" stroke-width="1"/><text x="35" y="172.0" text-anchor="end" font-size="11" fill="#9fb0d4">22</text><line x1="42" y1="110.5" x2="938" y2="110.5" stroke="#21304f" stroke-width="1"/><text x="35" y="113.5" text-anchor="end" font-size="11" fill="#9fb0d4">33</text><line x1="42" y1="52.0" x2="938" y2="52.0" stroke="#21304f" stroke-width="1"/><text x="35" y="55.0" text-anchor="end" font-size="11" fill="#9fb0d4">44</text><polyline fill="none" stroke="#22c55e" stroke-width="2.5" stroke-linejoin="round" stroke-linecap="round" points="42.0,94.5 46.5,68.0 51.0,62.6 55.4,62.6 59.9,62.6 64.4,62.6 68.9,62.6 73.4,68.0 77.8,68.0 82.3,62.6 86.8,68.0 91.3,57.3 95.8,62.6 100.2,68.0 104.7,73.3 109.2,68.0 113.7,62.6 118.2,62.6 122.6,73.3 127.1,68.0 131.6,68.0 136.1,62.6 140.6,68.0 145.0,62.6 149.5,68.0 154.0,78.6 158.5,62.6 163.0,68.0 167.4,73.3 171.9,68.0 176.4,78.6 180.9,78.6 185.4,73.3 189.8,83.9 194.3,73.3 198.8,73.3 203.3,73.3 207.8,68.0 212.2,73.3 216.7,73.3 221.2,68.0 225.7,68.0 230.2,73.3 234.6,73.3 239.1,73.3 243.6,73.3 248.1,68.0 252.6,78.6 257.0,83.9 261.5,73.3 266.0,83.9 270.5,99.9 275.0,73.3 279.4,78.6 283.9,78.6 288.4,73.3 292.9,73.3 297.4,78.6 301.8,73.3 306.3,68.0 310.8,83.9 315.3,68.0 319.8,68.0 324.2,78.6 328.7,73.3 333.2,73.3 337.7,68.0 342.2,68.0 346.6,78.6 351.1,83.9 355.6,78.6 360.1,62.6 364.6,73.3 369.0,83.9 373.5,78.6 378.0,68.0 382.5,73.3 387.0,68.0 391.4,68.0 395.9,73.3 400.4,68.0 404.9,68.0 409.4,78.6 413.8,68.0 418.3,73.3 422.8,73.3 427.3,78.6 431.8,73.3 436.2,73.3 440.7,73.3 445.2,78.6 449.7,78.6 454.2,78.6 458.6,78.6 463.1,83.9 467.6,73.3 472.1,73.3 476.6,68.0 481.0,73.3 485.5,78.6 490.0,68.0 494.5,73.3 499.0,73.3 503.4,62.6 507.9,68.0 512.4,73.3 516.9,73.3 521.4,62.6 525.8,83.9 530.3,62.6 534.8,68.0 539.3,68.0 543.8,62.6 548.2,73.3 552.7,78.6 557.2,68.0 561.7,68.0 566.2,68.0 570.6,62.6 575.1,68.0 579.6,78.6 584.1,73.3 588.6,73.3 593.0,62.6 597.5,68.0 602.0,73.3 606.5,68.0 611.0,62.6 615.4,73.3 619.9,73.3 624.4,68.0 628.9,68.0 633.4,73.3 637.8,68.0 642.3,68.0 646.8,73.3 651.3,68.0 655.8,68.0 660.2,68.0 664.7,62.6 669.2,68.0 673.7,68.0 678.2,73.3 682.6,68.0 687.1,68.0 691.6,68.0 696.1,68.0 700.6,68.0 705.0,68.0 709.5,68.0 714.0,62.6 718.5,68.0 723.0,68.0 727.4,68.0 731.9,62.6 736.4,78.6 740.9,73.3 745.4,73.3 749.8,73.3 754.3,73.3 758.8,78.6 763.3,73.3 767.8,62.6 772.2,78.6 776.7,68.0 781.2,68.0 785.7,68.0 790.2,62.6 794.6,73.3 799.1,62.6 803.6,62.6 808.1,68.0 812.6,68.0 817.0,68.0 821.5,68.0 826.0,62.6 830.5,73.3 835.0,78.6 839.4,73.3 843.9,73.3 848.4,78.6 852.9,73.3 857.4,78.6 861.8,62.6 866.3,62.6 870.8,68.0 875.3,78.6 879.8,73.3 884.2,62.6 888.7,78.6 893.2,78.6 897.7,73.3 902.2,73.3 906.6,73.3 911.1,73.3 915.6,68.0 920.1,68.0 924.6,73.3 929.0,73.3 933.5,68.0 938.0,73.3"/><polyline fill="none" stroke="#f59e0b" stroke-width="2.5" stroke-linejoin="round" stroke-linecap="round" points="42.0,275.4 46.5,275.4 51.0,275.4 55.4,275.4 59.9,275.4 64.4,275.4 68.9,275.4 73.4,275.4 77.8,275.4 82.3,275.4 86.8,275.4 91.3,280.7 95.8,280.7 100.2,280.7 104.7,275.4 109.2,275.4 113.7,275.4 118.2,275.4 122.6,275.4 127.1,275.4 131.6,275.4 136.1,275.4 140.6,275.4 145.0,275.4 149.5,275.4 154.0,275.4 158.5,275.4 163.0,275.4 167.4,275.4 171.9,275.4 176.4,275.4 180.9,275.4 185.4,275.4 189.8,275.4 194.3,275.4 198.8,275.4 203.3,275.4 207.8,275.4 212.2,275.4 216.7,275.4 221.2,275.4 225.7,275.4 230.2,275.4 234.6,275.4 239.1,275.4 243.6,275.4 248.1,275.4 252.6,275.4 257.0,275.4 261.5,275.4 266.0,275.4 270.5,275.4 275.0,275.4 279.4,275.4 283.9,275.4 288.4,275.4 292.9,275.4 297.4,275.4 301.8,275.4 306.3,275.4 310.8,275.4 315.3,275.4 319.8,275.4 324.2,275.4 328.7,275.4 333.2,275.4 337.7,275.4 342.2,275.4 346.6,275.4 351.1,275.4 355.6,275.4 360.1,275.4 364.6,275.4 369.0,275.4 373.5,275.4 378.0,275.4 382.5,275.4 387.0,275.4 391.4,275.4 395.9,275.4 400.4,275.4 404.9,275.4 409.4,275.4 413.8,275.4 418.3,275.4 422.8,275.4 427.3,275.4 431.8,275.4 436.2,275.4 440.7,275.4 445.2,275.4 449.7,275.4 454.2,275.4 458.6,275.4 463.1,275.4 467.6,275.4 472.1,275.4 476.6,275.4 481.0,275.4 485.5,275.4 490.0,275.4 494.5,275.4 499.0,275.4 503.4,275.4 507.9,275.4 512.4,275.4 516.9,275.4 521.4,275.4 525.8,275.4 530.3,275.4 534.8,275.4 539.3,275.4 543.8,280.7 548.2,275.4 552.7,275.4 557.2,275.4 561.7,275.4 566.2,275.4 570.6,275.4 575.1,275.4 579.6,275.4 584.1,275.4 588.6,275.4 593.0,275.4 597.5,275.4 602.0,275.4 606.5,275.4 611.0,275.4 615.4,275.4 619.9,275.4 624.4,275.4 628.9,275.4 633.4,275.4 637.8,275.4 642.3,275.4 646.8,275.4 651.3,275.4 655.8,275.4 660.2,275.4 664.7,275.4 669.2,275.4 673.7,275.4 678.2,275.4 682.6,275.4 687.1,275.4 691.6,275.4 696.1,275.4 700.6,275.4 705.0,275.4 709.5,275.4 714.0,275.4 718.5,275.4 723.0,275.4 727.4,275.4 731.9,275.4 736.4,275.4 740.9,275.4 745.4,275.4 749.8,275.4 754.3,275.4 758.8,275.4 763.3,275.4 767.8,275.4 772.2,275.4 776.7,275.4 781.2,275.4 785.7,275.4 790.2,275.4 794.6,275.4 799.1,275.4 803.6,275.4 808.1,275.4 812.6,275.4 817.0,275.4 821.5,275.4 826.0,275.4 830.5,275.4 835.0,275.4 839.4,275.4 843.9,275.4 848.4,275.4 852.9,275.4 857.4,275.4 861.8,275.4 866.3,275.4 870.8,275.4 875.3,275.4 879.8,275.4 884.2,275.4 888.7,275.4 893.2,275.4 897.7,275.4 902.2,275.4 906.6,275.4 911.1,275.4 915.6,275.4 920.1,275.4 924.6,275.4 929.0,275.4 933.5,275.4 938.0,275.4"/><polyline fill="none" stroke="#ef4444" stroke-width="2.5" stroke-linejoin="round" stroke-linecap="round" points="42.0,286.0 46.5,286.0 51.0,286.0 55.4,286.0 59.9,286.0 64.4,286.0 68.9,286.0 73.4,280.7 77.8,286.0 82.3,286.0 86.8,286.0 91.3,286.0 95.8,286.0 100.2,280.7 104.7,286.0 109.2,286.0 113.7,286.0 118.2,286.0 122.6,280.7 127.1,286.0 131.6,286.0 136.1,286.0 140.6,286.0 145.0,286.0 149.5,286.0 154.0,275.4 158.5,286.0 163.0,286.0 167.4,286.0 171.9,286.0 176.4,286.0 180.9,286.0 185.4,280.7 189.8,275.4 194.3,286.0 198.8,286.0 203.3,286.0 207.8,286.0 212.2,286.0 216.7,286.0 221.2,286.0 225.7,286.0 230.2,286.0 234.6,286.0 239.1,275.4 243.6,280.7 248.1,286.0 252.6,280.7 257.0,275.4 261.5,286.0 266.0,275.4 270.5,254.1 275.0,286.0 279.4,280.7 283.9,275.4 288.4,286.0 292.9,286.0 297.4,275.4 301.8,286.0 306.3,286.0 310.8,280.7 315.3,286.0 319.8,286.0 324.2,286.0 328.7,286.0 333.2,286.0 337.7,280.7 342.2,286.0 346.6,280.7 351.1,280.7 355.6,286.0 360.1,286.0 364.6,286.0 369.0,275.4 373.5,270.0 378.0,286.0 382.5,286.0 387.0,286.0 391.4,286.0 395.9,286.0 400.4,286.0 404.9,286.0 409.4,280.7 413.8,286.0 418.3,286.0 422.8,286.0 427.3,280.7 431.8,280.7 436.2,286.0 440.7,286.0 445.2,280.7 449.7,280.7 454.2,280.7 458.6,280.7 463.1,286.0 467.6,280.7 472.1,286.0 476.6,286.0 481.0,280.7 485.5,275.4 490.0,286.0 494.5,286.0 499.0,286.0 503.4,286.0 507.9,286.0 512.4,286.0 516.9,286.0 521.4,286.0 525.8,286.0 530.3,286.0 534.8,286.0 539.3,286.0 543.8,286.0 548.2,286.0 552.7,286.0 557.2,286.0 561.7,286.0 566.2,286.0 570.6,286.0 575.1,280.7 579.6,286.0 584.1,286.0 588.6,280.7 593.0,286.0 597.5,286.0 602.0,286.0 606.5,286.0 611.0,286.0 615.4,286.0 619.9,280.7 624.4,286.0 628.9,286.0 633.4,286.0 637.8,286.0 642.3,286.0 646.8,286.0 651.3,286.0 655.8,286.0 660.2,286.0 664.7,286.0 669.2,286.0 673.7,286.0 678.2,286.0 682.6,286.0 687.1,286.0 691.6,286.0 696.1,286.0 700.6,286.0 705.0,286.0 709.5,286.0 714.0,286.0 718.5,286.0 723.0,286.0 727.4,286.0 731.9,286.0 736.4,286.0 740.9,286.0 745.4,286.0 749.8,280.7 754.3,286.0 758.8,275.4 763.3,286.0 767.8,286.0 772.2,280.7 776.7,286.0 781.2,286.0 785.7,286.0 790.2,286.0 794.6,286.0 799.1,286.0 803.6,286.0 808.1,286.0 812.6,286.0 817.0,286.0 821.5,286.0 826.0,286.0 830.5,286.0 835.0,286.0 839.4,286.0 843.9,286.0 848.4,280.7 852.9,286.0 857.4,286.0 861.8,286.0 866.3,286.0 870.8,286.0 875.3,280.7 879.8,286.0 884.2,286.0 888.7,280.7 893.2,286.0 897.7,286.0 902.2,280.7 906.6,286.0 911.1,286.0 915.6,280.7 920.1,286.0 924.6,286.0 929.0,286.0 933.5,286.0 938.0,286.0"/><polyline fill="none" stroke="#a855f7" stroke-width="2.5" stroke-linejoin="round" stroke-linecap="round" points="42.0,286.0 46.5,280.7 51.0,286.0 55.4,286.0 59.9,286.0 64.4,286.0 68.9,286.0 73.4,286.0 77.8,280.7 82.3,286.0 86.8,280.7 91.3,286.0 95.8,280.7 100.2,280.7 104.7,275.4 109.2,280.7 113.7,286.0 118.2,286.0 122.6,280.7 127.1,280.7 131.6,280.7 136.1,286.0 140.6,280.7 145.0,286.0 149.5,280.7 154.0,280.7 158.5,286.0 163.0,280.7 167.4,275.4 171.9,280.7 176.4,270.0 180.9,270.0 185.4,280.7 189.8,275.4 194.3,275.4 198.8,275.4 203.3,275.4 207.8,280.7 212.2,275.4 216.7,275.4 221.2,280.7 225.7,280.7 230.2,275.4 234.6,275.4 239.1,286.0 243.6,280.7 248.1,280.7 252.6,275.4 257.0,275.4 261.5,275.4 266.0,275.4 270.5,280.7 275.0,275.4 279.4,275.4 283.9,280.7 288.4,275.4 292.9,275.4 297.4,280.7 301.8,275.4 306.3,280.7 310.8,270.0 315.3,280.7 319.8,280.7 324.2,270.0 328.7,275.4 333.2,275.4 337.7,286.0 342.2,280.7 346.6,275.4 351.1,270.0 355.6,270.0 360.1,286.0 364.6,275.4 369.0,275.4 373.5,286.0 378.0,280.7 382.5,275.4 387.0,280.7 391.4,280.7 395.9,275.4 400.4,280.7 404.9,280.7 409.4,275.4 413.8,280.7 418.3,275.4 422.8,275.4 427.3,275.4 431.8,280.7 436.2,275.4 440.7,275.4 445.2,275.4 449.7,275.4 454.2,275.4 458.6,275.4 463.1,264.7 467.6,280.7 472.1,275.4 476.6,280.7 481.0,280.7 485.5,280.7 490.0,280.7 494.5,275.4 499.0,275.4 503.4,286.0 507.9,280.7 512.4,275.4 516.9,275.4 521.4,286.0 525.8,264.7 530.3,286.0 534.8,280.7 539.3,280.7 543.8,280.7 548.2,275.4 552.7,270.0 557.2,280.7 561.7,280.7 566.2,280.7 570.6,286.0 575.1,286.0 579.6,270.0 584.1,275.4 588.6,280.7 593.0,286.0 597.5,280.7 602.0,275.4 606.5,280.7 611.0,286.0 615.4,275.4 619.9,280.7 624.4,280.7 628.9,280.7 633.4,275.4 637.8,280.7 642.3,280.7 646.8,275.4 651.3,280.7 655.8,280.7 660.2,280.7 664.7,286.0 669.2,280.7 673.7,280.7 678.2,275.4 682.6,280.7 687.1,280.7 691.6,280.7 696.1,280.7 700.6,280.7 705.0,280.7 709.5,280.7 714.0,286.0 718.5,280.7 723.0,280.7 727.4,280.7 731.9,286.0 736.4,270.0 740.9,275.4 745.4,275.4 749.8,280.7 754.3,275.4 758.8,280.7 763.3,275.4 767.8,286.0 772.2,275.4 776.7,280.7 781.2,280.7 785.7,280.7 790.2,286.0 794.6,275.4 799.1,286.0 803.6,286.0 808.1,280.7 812.6,280.7 817.0,280.7 821.5,280.7 826.0,286.0 830.5,275.4 835.0,270.0 839.4,275.4 843.9,275.4 848.4,275.4 852.9,275.4 857.4,270.0 861.8,286.0 866.3,286.0 870.8,280.7 875.3,275.4 879.8,275.4 884.2,286.0 888.7,275.4 893.2,270.0 897.7,275.4 902.2,280.7 906.6,275.4 911.1,275.4 915.6,286.0 920.1,280.7 924.6,275.4 929.0,275.4 933.5,280.7 938.0,275.4"/><text x="42" y="308" font-size="11" fill="#9fb0d4">19/06 15:39</text><text x="938" y="308" text-anchor="end" font-size="11" fill="#9fb0d4">28/09 20:46</text></svg>