<svg xmlns="http://www.w3.org/2000/svg" viewBox="0 0 960 320" width="960" height="320" font-family="Segoe UI, system-ui, -apple-system, Roboto, Helvetica, Arial, sans-serif" role="img" aria-label="Availability history per region"><rect x="0.5" y="0.5" width="959" height="319" rx="14" fill="#ffffff" stroke="#dce3f1"/><text x="42" y="26" font-size="14" font-weight="600" fill="#14203a">History · 101 points</text><circle cx="47" cy="40" r="5" fill="#22c55e"/><text x="57" y="44" font-size="12" fill="#5a688a">Available</text><circle cx="139.8" cy="40" r="5" fill="#f59e0b"/><text x="149.8" y="44" font-size="12" fill="#5a688a">Saturated</text><circle cx="232.60000000000002" cy="40" r="5" fill="#ef4444"/><text x="242.60000000000002" y="44" font-size="12" fill="#5a688a">Error</text><circle cx="296.6" cy="40" r="5" fill="#a855f7"/><text x="306.6" y="44" font-size="12" fill="#5a688a">Timeout</text><line x1="42" y1="286.0" x2="938" y2="286.0" stroke="#eef2f7" stroke-width="1"/><text x="35" y="289.0" text-anchor="end" font-size="11" fill="#5a688a">0</text><line x1="42" y1="227.5" x2="938" y2="227.5" stroke="#eef2f7" stroke-width="1"/><text x="35" y="230.5" text-anchor="end" font-size="11" fill="#5a688a">10</text><line x1="42" y1="169.0" x2="938" y2="169.0" stroke="#eef2f7" stroke-width="1"/><text x="35" y="172.0" text-anchor="end" font-size="11" fill="#5a688a">20</text><line x1="42" y1="110.5" x2="938" y2="110.5" stroke="#eef2f7" stroke-width="1"/><text x="35" y="113.5" text-anchor="end" font-size="11" fill="#5a688a">29</text><line x1="42" y1="52.0" x2="938" y2="52.0" stroke="#eef2f7" stroke-width="1"/><text x="35" y="55.0" text-anchor="end" font-size="11" fill="#5a688a">39</text><polyline fill="none" stroke="#22c55e" stroke-width="2.5" stroke-linejoin="round" stroke-linecap="round" points="42.0,70.0 51.0,70.0 59.9,88.0 68.9,88.0 77.8,76.0 86.8,76.0 95.8,76.0 104.7,70.0 113.7,76.0 122.6,70.0 131.6,64.0 140.6,58.0 149.5,58.0 158.5,58.0 167.4,58.0 176.4,58.0 185.4,58.0 194.3,58.0 203.3,58.0 212.2,58.0 221.2,58.0 230.2,58.0 239.1,58.0 248.1,58.0 257.0,58.0 266.0,58.0 275.0,58.0 283.9,58.0 292.9,58.0 301.8,58.0 310.8,58.0 319.8,70.0 328.7,76.0 337.7,94.0 346.6,64.0 355.6,64.0 364.6,58.0 373.5,58.0 382.5,58.0 391.4,70.0 400.4,76.0 409.4,76.0 418.3,82.0 427.3,82.0 436.2,82.0 445.2,82.0 454.2,76.0 463.1,64.0 472.1,70.0 481.0,70.0 490.0,82.0 499.0,76.0 507.9,76.0 516.9,82.0 525.8,76.0 534.8,76.0 543.8,76.0 552.7,64.0 561.7,64.0 570.6,76.0 579.6,76.0 588.6,76.0 597.5,88.0 606.5,70.0 615.4,64.0 624.4,58.0 633.4,58.0 642.3,70.0 651.3,70.0 660.2,70.0 669.2,76.0 678.2,70.0 687.1,70.0 696.1,70.0 705.0,70.0 714.0,76.0 723.0,82.0 731.9,76.0 740.9,70.0 749.8,70.0 758.8,70.0 767.8,70.0 776.7,76.0 785.7,70.0 794.6,70.0 803.6,70.0 812.6,70.0 821.5,70.0 830.5,70.0 839.4,70.0 848.4,70.0 857.4,70.0 866.3,70.0 875.3,70.0 884.2,70.0 893.2,70.0 902.2,70.0 911.1,70.0 920.1,70.0 929.0,70.0 938.0,70.0"/><polyline fill="none" stroke="#f59e0b" stroke-width="2.5" stroke-linejoin="round" stroke-linecap="round" points="42.0,274.0 51.0,274.0 59.9,274.0 68.9,280.0 77.8,268.0 86.8,268.0 95.8,268.0 104.7,274.0 113.7,274.0 122.6,274.0 131.6,280.0 140.6,286.0 149.5,286.0 158.5,286.0 167.4,286.0 176.4,286.0 185.4,286.0 194.3,286.0 203.3,286.0 212.2,286.0 221.2,286.0 230.2,286.0 239.1,286.0 248.1,286.0 257.0,286.0 266.0,286.0 275.0,286.0 283.9,286.0 292.9,286.0 301.8,286.0 310.8,286.0 319.8,274.0 328.7,280.0 337.7,280.0 346.6,280.0 355.6,280.0 364.6,286.0 373.5,286.0 382.5,286.0 391.4,274.0 400.4,268.0 409.4,268.0 418.3,262.0 427.3,262.0 436.2,262.0 445.2,262.0 454.2,268.0 463.1,280.0 472.1,280.0 481.0,274.0 490.0,262.0 499.0,268.0 507.9,268.0 516.9,262.0 525.8,268.0 534.8,268.0 543.8,268.0 552.7,280.0 561.7,280.0 570.6,268.0 579.6,268.0 588.6,268.0 597.5,262.0 606.5,274.0 615.4,280.0 624.4,286.0 633.4,286.0 642.3,274.0 651.3,274.0 660.2,274.0 669.2,274.0 678.2,274.0 687.1,274.0 696.1,274.0 705.0,274.0 714.0,280.0 723.0,274.0 731.9,280.0 740.9,286.0 749.8,286.0 758.8,286.0 767.8,286.0 776.7,280.0 785.7,286.0 794.6,286.0 803.6,286.0 812.6,286.0 821.5,286.0 830.5,286.0 839.4,286.0 848.4,286.0 857.4,286.0 866.3,286.0 875.3,286.0 884.2,286.0 893.2,286.0 902.2,286.0 911.1,286.0 920.1,286.0 929.0,286.0 938.0,286.0"/><polyline fill="none" stroke="#ef4444" stroke-width="2.5" stroke-linejoin="round" stroke-linecap="round" points="42.0,280.0 51.0,280.0 59.9,268.0 68.9,262.0 77.8,286.0 86.8,286.0 95.8,286.0 104.7,286.0 113.7,280.0 122.6,286.0 131.6,286.0 140.6,286.0 149.5,286.0 158.5,286.0 167.4,286.0 176.4,286.0 185.4,286.0 194.3,286.0 203.3,286.0 212.2,286.0 221.2,286.0 230.2,286.0 239.1,286.0 248.1,286.0 257.0,286.0 266.0,286.0 275.0,286.0 283.9,286.0 292.9,286.0 301.8,286.0 310.8,286.0 319.8,286.0 328.7,274.0 337.7,256.0 346.6,286.0 355.6,286.0 364.6,286.0 373.5,286.0 382.5,286.0 391.4,286.0 400.4,286.0 409.4,286.0 418.3,286.0 427.3,286.0 436.2,286.0 445.2,286.0 454.2,286.0 463.1,286.0 472.1,280.0 481.0,286.0 490.0,286.0 499.0,286.0 507.9,286.0 516.9,286.0 525.8,286.0 534.8,286.0 543.8,286.0 552.7,286.0 561.7,286.0 570.6,286.0 579.6,286.0 588.6,286.0 597.5,280.0 606.5,286.0 615.4,286.0 624.4,286.0 633.4,286.0 642.3,286.0 651.3,286.0 660.2,286.0 669.2,286.0 678.2,286.0 687.1,286.0 696.1,286.0 705.0,286.0 714.0,274.0 723.0,274.0 731.9,274.0 740.9,274.0 749.8,274.0 758.8,274.0 767.8,274.0 776.7,274.0 785.7,274.0 794.6,274.0 803.6,274.0 812.6,274.0 821.5,274.0 830.5,274.0 839.4,274.0 848.4,274.0 857.4,274.0 866.3,274.0 875.3,274.0 884.2,274.0 893.2,274.0 902.2,274.0 911.1,274.0 920.1,274.0 929.0,274.0 938.0,274.0"/><polyline fill="none" stroke="#a855f7" stroke-width="2.5" stroke-linejoin="round" stroke-linecap="round" points="42.0,286.0 51.0,286.0 59.9,286.0 68.9,286.0 77.8,286.0 86.8,286.0 95.8,286.0 104.7,286.0 113.7,286.0 122.6,286.0 131.6,286.0 140.6,286.0 149.5,286.0 158.5,286.0 167.4,286.0 176.4,286.0 185.4,286.0 194.3,286.0 203.3,286.0 212.2,286.0 221.2,286.0 230.2,286.0 239.1,286.0 248.1,286.0 257.0,286.0 266.0,286.0 275.0,286.0 283.9,286.0 292.9,286.0 301.8,286.0 310.8,286.0 319.8,286.0 328.7,286.0 337.7,286.0 346.6,286.0 355.6,286.0 364.6,286.0 373.5,286.0 382.5,286.0 391.4,286.0 400.4,286.0 409.4,286.0 418.3,286.0 427.3,286.0 436.2,286.0 445.2,286.0 454.2,286.0 463.1,286.0 472.1,286.0 481.0,286.0 490.0,286.0 499.0,286.0 507.9,286.0 516.9,286.0 525.8,286.0 534.8,286.0 543.8,286.0 552.7,286.0 561.7,286.0 570.6,286.0 579.6,286.0 588.6,286.0 597.5,286.0 606.5,286.0 615.4,286.0 624.4,286.0 633.4,286.0 642.3,286.0 651.3,286.0 660.2,286.0 669.2,280.0 678.2,286.0 687.1,286.0 696.1,286.0 705.0,286.0 714.0,286.0 723.0,286.0 731.9,286.0 740.9,286.0 749.8,286.0 758.8,286.0 767.8,286.0 776.7,286.0 785.7,286.0 794.6,286.0 803.6,286.0 812.6,286.0 821.5,286.0 830.5,286.0 839.4,286.0 848.4,286.0 857.4,286.0 866.3,286.0 875.3,286.0 884.2,286.0 893.2,286.0 902.2,286.0 911.1,286.0 920.1,286.0 929.0,286.0 938.0,286.0"/><text x="42" y="308" font-size="11" fill="#5a688a">19/06 12:43</text><text x="938" y="308" text-anchor="end" font-size="11" fill="#5a688a">27/06 14:30</text></svg>