<svg xmlns="http://www.w3.org/2000/svg" viewBox="0 0 960 320" width="960" height="320" font-family="Segoe UI, system-ui, -apple-system, Roboto, Helvetica, Arial, sans-serif" role="img" aria-label="Availability history per region"><rect x="0.5" y="0.5" width="959" height="319" rx="14" fill="#0d1117" stroke="#2c3a5e"/><text x="42" y="26" font-size="14" font-weight="600" fill="#e6ecff">History · 206 points</text><circle cx="47" cy="40" r="5" fill="#22c55e"/><text x="57" y="44" font-size="12" fill="#9fb0d4">Available</text><circle cx="139.8" cy="40" r="5" fill="#f59e0b"/><text x="149.8" y="44" font-size="12" fill="#9fb0d4">Saturated</text><circle cx="232.60000000000002" cy="40" r="5" fill="#ef4444"/><text x="242.60000000000002" y="44" font-size="12" fill="#9fb0d4">Error</text><circle cx="296.6" cy="40" r="5" fill="#a855f7"/><text x="306.6" y="44" font-size="12" fill="#9fb0d4">Timeout</text><line x1="42" y1="286.0" x2="938" y2="286.0" stroke="#21304f" stroke-width="1"/><text x="35" y="289.0" text-anchor="end" font-size="11" fill="#9fb0d4">0</text><line x1="42" y1="227.5" x2="938" y2="227.5" stroke="#21304f" stroke-width="1"/><text x="35" y="230.5" text-anchor="end" font-size="11" fill="#9fb0d4">10</text><line x1="42" y1="169.0" x2="938" y2="169.0" stroke="#21304f" stroke-width="1"/><text x="35" y="172.0" text-anchor="end" font-size="11" fill="#9fb0d4">20</text><line x1="42" y1="110.5" x2="938" y2="110.5" stroke="#21304f" stroke-width="1"/><text x="35" y="113.5" text-anchor="end" font-size="11" fill="#9fb0d4">29</text><line x1="42" y1="52.0" x2="938" y2="52.0" stroke="#21304f" stroke-width="1"/><text x="35" y="55.0" text-anchor="end" font-size="11" fill="#9fb0d4">39</text><polyline fill="none" stroke="#22c55e" stroke-width="2.5" stroke-linejoin="round" stroke-linecap="round" points="42.0,70.0 46.4,70.0 50.7,88.0 55.1,88.0 59.5,76.0 63.9,76.0 68.2,76.0 72.6,70.0 77.0,76.0 81.3,70.0 85.7,64.0 90.1,58.0 94.4,58.0 98.8,58.0 103.2,58.0 107.6,58.0 111.9,58.0 116.3,58.0 120.7,58.0 125.0,58.0 129.4,58.0 133.8,58.0 138.2,58.0 142.5,58.0 146.9,58.0 151.3,58.0 155.6,58.0 160.0,58.0 164.4,58.0 168.8,58.0 173.1,58.0 177.5,70.0 181.9,76.0 186.2,94.0 190.6,64.0 195.0,64.0 199.3,58.0 203.7,58.0 208.1,58.0 212.5,70.0 216.8,76.0 221.2,76.0 225.6,82.0 229.9,82.0 234.3,82.0 238.7,82.0 243.1,76.0 247.4,64.0 251.8,70.0 256.2,70.0 260.5,82.0 264.9,76.0 269.3,76.0 273.6,82.0 278.0,76.0 282.4,76.0 286.8,76.0 291.1,64.0 295.5,64.0 299.9,76.0 304.2,76.0 308.6,76.0 313.0,88.0 317.4,70.0 321.7,64.0 326.1,58.0 330.5,58.0 334.8,70.0 339.2,70.0 343.6,70.0 348.0,76.0 352.3,70.0 356.7,70.0 361.1,70.0 365.4,70.0 369.8,76.0 374.2,82.0 378.5,76.0 382.9,70.0 387.3,70.0 391.7,70.0 396.0,70.0 400.4,76.0 404.8,70.0 409.1,70.0 413.5,70.0 417.9,70.0 422.3,70.0 426.6,70.0 431.0,70.0 435.4,70.0 439.7,70.0 444.1,70.0 448.5,70.0 452.8,70.0 457.2,70.0 461.6,70.0 466.0,70.0 470.3,70.0 474.7,70.0 479.1,70.0 483.4,70.0 487.8,70.0 492.2,70.0 496.6,70.0 500.9,70.0 505.3,70.0 509.7,70.0 514.0,70.0 518.4,70.0 522.8,70.0 527.2,70.0 531.5,70.0 535.9,70.0 540.3,70.0 544.6,70.0 549.0,70.0 553.4,70.0 557.7,70.0 562.1,70.0 566.5,70.0 570.9,70.0 575.2,70.0 579.6,70.0 584.0,70.0 588.3,70.0 592.7,70.0 597.1,70.0 601.5,70.0 605.8,70.0 610.2,70.0 614.6,70.0 618.9,70.0 623.3,70.0 627.7,70.0 632.0,70.0 636.4,70.0 640.8,70.0 645.2,70.0 649.5,70.0 653.9,70.0 658.3,70.0 662.6,70.0 667.0,70.0 671.4,70.0 675.8,70.0 680.1,70.0 684.5,70.0 688.9,70.0 693.2,70.0 697.6,70.0 702.0,76.0 706.4,70.0 710.7,70.0 715.1,70.0 719.5,70.0 723.8,70.0 728.2,76.0 732.6,76.0 736.9,88.0 741.3,88.0 745.7,88.0 750.1,94.0 754.4,94.0 758.8,94.0 763.2,94.0 767.5,88.0 771.9,88.0 776.3,82.0 780.7,82.0 785.0,82.0 789.4,88.0 793.8,88.0 798.1,94.0 802.5,82.0 806.9,82.0 811.2,82.0 815.6,82.0 820.0,88.0 824.4,88.0 828.7,94.0 833.1,94.0 837.5,88.0 841.8,88.0 846.2,88.0 850.6,94.0 855.0,94.0 859.3,106.0 863.7,94.0 868.1,94.0 872.4,94.0 876.8,94.0 881.2,88.0 885.6,88.0 889.9,82.0 894.3,76.0 898.7,76.0 903.0,76.0 907.4,76.0 911.8,76.0 916.1,76.0 920.5,70.0 924.9,70.0 929.3,70.0 933.6,76.0 938.0,88.0"/><polyline fill="none" stroke="#f59e0b" stroke-width="2.5" stroke-linejoin="round" stroke-linecap="round" points="42.0,274.0 46.4,274.0 50.7,274.0 55.1,280.0 59.5,268.0 63.9,268.0 68.2,268.0 72.6,274.0 77.0,274.0 81.3,274.0 85.7,280.0 90.1,286.0 94.4,286.0 98.8,286.0 103.2,286.0 107.6,286.0 111.9,286.0 116.3,286.0 120.7,286.0 125.0,286.0 129.4,286.0 133.8,286.0 138.2,286.0 142.5,286.0 146.9,286.0 151.3,286.0 155.6,286.0 160.0,286.0 164.4,286.0 168.8,286.0 173.1,286.0 177.5,274.0 181.9,280.0 186.2,280.0 190.6,280.0 195.0,280.0 199.3,286.0 203.7,286.0 208.1,286.0 212.5,274.0 216.8,268.0 221.2,268.0 225.6,262.0 229.9,262.0 234.3,262.0 238.7,262.0 243.1,268.0 247.4,280.0 251.8,280.0 256.2,274.0 260.5,262.0 264.9,268.0 269.3,268.0 273.6,262.0 278.0,268.0 282.4,268.0 286.8,268.0 291.1,280.0 295.5,280.0 299.9,268.0 304.2,268.0 308.6,268.0 313.0,262.0 317.4,274.0 321.7,280.0 326.1,286.0 330.5,286.0 334.8,274.0 339.2,274.0 343.6,274.0 348.0,274.0 352.3,274.0 356.7,274.0 361.1,274.0 365.4,274.0 369.8,280.0 374.2,274.0 378.5,280.0 382.9,286.0 387.3,286.0 391.7,286.0 396.0,286.0 400.4,280.0 404.8,286.0 409.1,286.0 413.5,286.0 417.9,286.0 422.3,286.0 426.6,286.0 431.0,286.0 435.4,286.0 439.7,286.0 444.1,286.0 448.5,286.0 452.8,286.0 457.2,286.0 461.6,286.0 466.0,286.0 470.3,286.0 474.7,286.0 479.1,286.0 483.4,286.0 487.8,286.0 492.2,286.0 496.6,286.0 500.9,286.0 505.3,286.0 509.7,286.0 514.0,286.0 518.4,286.0 522.8,286.0 527.2,286.0 531.5,286.0 535.9,286.0 540.3,286.0 544.6,286.0 549.0,286.0 553.4,286.0 557.7,286.0 562.1,286.0 566.5,286.0 570.9,286.0 575.2,286.0 579.6,286.0 584.0,286.0 588.3,286.0 592.7,286.0 597.1,286.0 601.5,286.0 605.8,286.0 610.2,286.0 614.6,286.0 618.9,286.0 623.3,286.0 627.7,286.0 632.0,286.0 636.4,286.0 640.8,286.0 645.2,286.0 649.5,286.0 653.9,286.0 658.3,286.0 662.6,286.0 667.0,286.0 671.4,286.0 675.8,286.0 680.1,286.0 684.5,286.0 688.9,286.0 693.2,286.0 697.6,286.0 702.0,286.0 706.4,286.0 710.7,286.0 715.1,286.0 719.5,286.0 723.8,286.0 728.2,286.0 732.6,280.0 736.9,268.0 741.3,268.0 745.7,268.0 750.1,268.0 754.4,262.0 758.8,262.0 763.2,262.0 767.5,268.0 771.9,268.0 776.3,274.0 780.7,274.0 785.0,274.0 789.4,268.0 793.8,268.0 798.1,268.0 802.5,274.0 806.9,274.0 811.2,274.0 815.6,274.0 820.0,268.0 824.4,268.0 828.7,262.0 833.1,262.0 837.5,268.0 841.8,268.0 846.2,268.0 850.6,262.0 855.0,262.0 859.3,274.0 863.7,262.0 868.1,262.0 872.4,262.0 876.8,262.0 881.2,268.0 885.6,268.0 889.9,274.0 894.3,280.0 898.7,280.0 903.0,280.0 907.4,280.0 911.8,280.0 916.1,280.0 920.5,286.0 924.9,286.0 929.3,286.0 933.6,280.0 938.0,274.0"/><polyline fill="none" stroke="#ef4444" stroke-width="2.5" stroke-linejoin="round" stroke-linecap="round" points="42.0,280.0 46.4,280.0 50.7,268.0 55.1,262.0 59.5,286.0 63.9,286.0 68.2,286.0 72.6,286.0 77.0,280.0 81.3,286.0 85.7,286.0 90.1,286.0 94.4,286.0 98.8,286.0 103.2,286.0 107.6,286.0 111.9,286.0 116.3,286.0 120.7,286.0 125.0,286.0 129.4,286.0 133.8,286.0 138.2,286.0 142.5,286.0 146.9,286.0 151.3,286.0 155.6,286.0 160.0,286.0 164.4,286.0 168.8,286.0 173.1,286.0 177.5,286.0 181.9,274.0 186.2,256.0 190.6,286.0 195.0,286.0 199.3,286.0 203.7,286.0 208.1,286.0 212.5,286.0 216.8,286.0 221.2,286.0 225.6,286.0 229.9,286.0 234.3,286.0 238.7,286.0 243.1,286.0 247.4,286.0 251.8,280.0 256.2,286.0 260.5,286.0 264.9,286.0 269.3,286.0 273.6,286.0 278.0,286.0 282.4,286.0 286.8,286.0 291.1,286.0 295.5,286.0 299.9,286.0 304.2,286.0 308.6,286.0 313.0,280.0 317.4,286.0 321.7,286.0 326.1,286.0 330.5,286.0 334.8,286.0 339.2,286.0 343.6,286.0 348.0,286.0 352.3,286.0 356.7,286.0 361.1,286.0 365.4,286.0 369.8,274.0 374.2,274.0 378.5,274.0 382.9,274.0 387.3,274.0 391.7,274.0 396.0,274.0 400.4,274.0 404.8,274.0 409.1,274.0 413.5,274.0 417.9,274.0 422.3,274.0 426.6,274.0 431.0,274.0 435.4,274.0 439.7,274.0 444.1,274.0 448.5,274.0 452.8,274.0 457.2,274.0 461.6,274.0 466.0,274.0 470.3,274.0 474.7,274.0 479.1,274.0 483.4,274.0 487.8,274.0 492.2,274.0 496.6,274.0 500.9,274.0 505.3,274.0 509.7,274.0 514.0,274.0 518.4,274.0 522.8,274.0 527.2,274.0 531.5,274.0 535.9,274.0 540.3,274.0 544.6,274.0 549.0,274.0 553.4,274.0 557.7,274.0 562.1,274.0 566.5,274.0 570.9,274.0 575.2,274.0 579.6,274.0 584.0,274.0 588.3,274.0 592.7,274.0 597.1,274.0 601.5,274.0 605.8,274.0 610.2,274.0 614.6,274.0 618.9,274.0 623.3,274.0 627.7,274.0 632.0,274.0 636.4,274.0 640.8,274.0 645.2,274.0 649.5,274.0 653.9,274.0 658.3,274.0 662.6,274.0 667.0,274.0 671.4,274.0 675.8,274.0 680.1,274.0 684.5,274.0 688.9,274.0 693.2,274.0 697.6,274.0 702.0,268.0 706.4,274.0 710.7,274.0 715.1,274.0 719.5,274.0 723.8,274.0 728.2,274.0 732.6,274.0 736.9,274.0 741.3,274.0 745.7,274.0 750.1,268.0 754.4,274.0 758.8,274.0 763.2,274.0 767.5,274.0 771.9,274.0 776.3,274.0 780.7,274.0 785.0,274.0 789.4,274.0 793.8,274.0 798.1,268.0 802.5,274.0 806.9,274.0 811.2,274.0 815.6,274.0 820.0,274.0 824.4,274.0 828.7,274.0 833.1,274.0 837.5,274.0 841.8,274.0 846.2,274.0 850.6,274.0 855.0,274.0 859.3,250.0 863.7,274.0 868.1,274.0 872.4,274.0 876.8,274.0 881.2,274.0 885.6,274.0 889.9,274.0 894.3,274.0 898.7,274.0 903.0,274.0 907.4,274.0 911.8,274.0 916.1,274.0 920.5,274.0 924.9,274.0 929.3,274.0 933.6,274.0 938.0,268.0"/><polyline fill="none" stroke="#a855f7" stroke-width="2.5" stroke-linejoin="round" stroke-linecap="round" points="42.0,286.0 46.4,286.0 50.7,286.0 55.1,286.0 59.5,286.0 63.9,286.0 68.2,286.0 72.6,286.0 77.0,286.0 81.3,286.0 85.7,286.0 90.1,286.0 94.4,286.0 98.8,286.0 103.2,286.0 107.6,286.0 111.9,286.0 116.3,286.0 120.7,286.0 125.0,286.0 129.4,286.0 133.8,286.0 138.2,286.0 142.5,286.0 146.9,286.0 151.3,286.0 155.6,286.0 160.0,286.0 164.4,286.0 168.8,286.0 173.1,286.0 177.5,286.0 181.9,286.0 186.2,286.0 190.6,286.0 195.0,286.0 199.3,286.0 203.7,286.0 208.1,286.0 212.5,286.0 216.8,286.0 221.2,286.0 225.6,286.0 229.9,286.0 234.3,286.0 238.7,286.0 243.1,286.0 247.4,286.0 251.8,286.0 256.2,286.0 260.5,286.0 264.9,286.0 269.3,286.0 273.6,286.0 278.0,286.0 282.4,286.0 286.8,286.0 291.1,286.0 295.5,286.0 299.9,286.0 304.2,286.0 308.6,286.0 313.0,286.0 317.4,286.0 321.7,286.0 326.1,286.0 330.5,286.0 334.8,286.0 339.2,286.0 343.6,286.0 348.0,280.0 352.3,286.0 356.7,286.0 361.1,286.0 365.4,286.0 369.8,286.0 374.2,286.0 378.5,286.0 382.9,286.0 387.3,286.0 391.7,286.0 396.0,286.0 400.4,286.0 404.8,286.0 409.1,286.0 413.5,286.0 417.9,286.0 422.3,286.0 426.6,286.0 431.0,286.0 435.4,286.0 439.7,286.0 444.1,286.0 448.5,286.0 452.8,286.0 457.2,286.0 461.6,286.0 466.0,286.0 470.3,286.0 474.7,286.0 479.1,286.0 483.4,286.0 487.8,286.0 492.2,286.0 496.6,286.0 500.9,286.0 505.3,286.0 509.7,286.0 514.0,286.0 518.4,286.0 522.8,286.0 527.2,286.0 531.5,286.0 535.9,286.0 540.3,286.0 544.6,286.0 549.0,286.0 553.4,286.0 557.7,286.0 562.1,286.0 566.5,286.0 570.9,286.0 575.2,286.0 579.6,286.0 584.0,286.0 588.3,286.0 592.7,286.0 597.1,286.0 601.5,286.0 605.8,286.0 610.2,286.0 614.6,286.0 618.9,286.0 623.3,286.0 627.7,286.0 632.0,286.0 636.4,286.0 640.8,286.0 645.2,286.0 649.5,286.0 653.9,286.0 658.3,286.0 662.6,286.0 667.0,286.0 671.4,286.0 675.8,286.0 680.1,286.0 684.5,286.0 688.9,286.0 693.2,286.0 697.6,286.0 702.0,286.0 706.4,286.0 710.7,286.0 715.1,286.0 719.5,286.0 723.8,286.0 728.2,280.0 732.6,286.0 736.9,286.0 741.3,286.0 745.7,286.0 750.1,286.0 754.4,286.0 758.8,286.0 763.2,286.0 767.5,286.0 771.9,286.0 776.3,286.0 780.7,286.0 785.0,286.0 789.4,286.0 793.8,286.0 798.1,286.0 802.5,286.0 806.9,286.0 811.2,286.0 815.6,286.0 820.0,286.0 824.4,286.0 828.7,286.0 833.1,286.0 837.5,286.0 841.8,286.0 846.2,286.0 850.6,286.0 855.0,286.0 859.3,286.0 863.7,286.0 868.1,286.0 872.4,286.0 876.8,286.0 881.2,286.0 885.6,286.0 889.9,286.0 894.3,286.0 898.7,286.0 903.0,286.0 907.4,286.0 911.8,286.0 916.1,286.0 920.5,286.0 924.9,286.0 929.3,286.0 933.6,286.0 938.0,286.0"/><text x="42" y="308" font-size="11" fill="#9fb0d4">19/06 12:43</text><text x="938" y="308" text-anchor="end" font-size="11" fill="#9fb0d4">01/07 08:34</text></svg>