<svg xmlns="http://www.w3.org/2000/svg" viewBox="0 0 960 320" width="960" height="320" font-family="Segoe UI, system-ui, -apple-system, Roboto, Helvetica, Arial, sans-serif" role="img" aria-label="Availability history per region"><rect x="0.5" y="0.5" width="959" height="319" rx="14" fill="#ffffff" stroke="#dce3f1"/><text x="42" y="26" font-size="14" font-weight="600" fill="#14203a">History · 116 points</text><circle cx="47" cy="40" r="5" fill="#22c55e"/><text x="57" y="44" font-size="12" fill="#5a688a">Available</text><circle cx="139.8" cy="40" r="5" fill="#f59e0b"/><text x="149.8" y="44" font-size="12" fill="#5a688a">Saturated</text><circle cx="232.60000000000002" cy="40" r="5" fill="#ef4444"/><text x="242.60000000000002" y="44" font-size="12" fill="#5a688a">Error</text><circle cx="296.6" cy="40" r="5" fill="#a855f7"/><text x="306.6" y="44" font-size="12" fill="#5a688a">Timeout</text><line x1="42" y1="286.0" x2="938" y2="286.0" stroke="#eef2f7" stroke-width="1"/><text x="35" y="289.0" text-anchor="end" font-size="11" fill="#5a688a">0</text><line x1="42" y1="227.5" x2="938" y2="227.5" stroke="#eef2f7" stroke-width="1"/><text x="35" y="230.5" text-anchor="end" font-size="11" fill="#5a688a">10</text><line x1="42" y1="169.0" x2="938" y2="169.0" stroke="#eef2f7" stroke-width="1"/><text x="35" y="172.0" text-anchor="end" font-size="11" fill="#5a688a">20</text><line x1="42" y1="110.5" x2="938" y2="110.5" stroke="#eef2f7" stroke-width="1"/><text x="35" y="113.5" text-anchor="end" font-size="11" fill="#5a688a">29</text><line x1="42" y1="52.0" x2="938" y2="52.0" stroke="#eef2f7" stroke-width="1"/><text x="35" y="55.0" text-anchor="end" font-size="11" fill="#5a688a">39</text><polyline fill="none" stroke="#22c55e" stroke-width="2.5" stroke-linejoin="round" stroke-linecap="round" points="42.0,70.0 49.8,70.0 57.6,88.0 65.4,88.0 73.2,76.0 81.0,76.0 88.7,76.0 96.5,70.0 104.3,76.0 112.1,70.0 119.9,64.0 127.7,58.0 135.5,58.0 143.3,58.0 151.1,58.0 158.9,58.0 166.7,58.0 174.5,58.0 182.2,58.0 190.0,58.0 197.8,58.0 205.6,58.0 213.4,58.0 221.2,58.0 229.0,58.0 236.8,58.0 244.6,58.0 252.4,58.0 260.2,58.0 267.9,58.0 275.7,58.0 283.5,70.0 291.3,76.0 299.1,94.0 306.9,64.0 314.7,64.0 322.5,58.0 330.3,58.0 338.1,58.0 345.9,70.0 353.7,76.0 361.4,76.0 369.2,82.0 377.0,82.0 384.8,82.0 392.6,82.0 400.4,76.0 408.2,64.0 416.0,70.0 423.8,70.0 431.6,82.0 439.4,76.0 447.1,76.0 454.9,82.0 462.7,76.0 470.5,76.0 478.3,76.0 486.1,64.0 493.9,64.0 501.7,76.0 509.5,76.0 517.3,76.0 525.1,88.0 532.9,70.0 540.6,64.0 548.4,58.0 556.2,58.0 564.0,70.0 571.8,70.0 579.6,70.0 587.4,76.0 595.2,70.0 603.0,70.0 610.8,70.0 618.6,70.0 626.3,76.0 634.1,82.0 641.9,76.0 649.7,70.0 657.5,70.0 665.3,70.0 673.1,70.0 680.9,76.0 688.7,70.0 696.5,70.0 704.3,70.0 712.1,70.0 719.8,70.0 727.6,70.0 735.4,70.0 743.2,70.0 751.0,70.0 758.8,70.0 766.6,70.0 774.4,70.0 782.2,70.0 790.0,70.0 797.8,70.0 805.5,70.0 813.3,70.0 821.1,70.0 828.9,70.0 836.7,70.0 844.5,70.0 852.3,70.0 860.1,70.0 867.9,70.0 875.7,70.0 883.5,70.0 891.3,70.0 899.0,70.0 906.8,70.0 914.6,70.0 922.4,70.0 930.2,70.0 938.0,70.0"/><polyline fill="none" stroke="#f59e0b" stroke-width="2.5" stroke-linejoin="round" stroke-linecap="round" points="42.0,274.0 49.8,274.0 57.6,274.0 65.4,280.0 73.2,268.0 81.0,268.0 88.7,268.0 96.5,274.0 104.3,274.0 112.1,274.0 119.9,280.0 127.7,286.0 135.5,286.0 143.3,286.0 151.1,286.0 158.9,286.0 166.7,286.0 174.5,286.0 182.2,286.0 190.0,286.0 197.8,286.0 205.6,286.0 213.4,286.0 221.2,286.0 229.0,286.0 236.8,286.0 244.6,286.0 252.4,286.0 260.2,286.0 267.9,286.0 275.7,286.0 283.5,274.0 291.3,280.0 299.1,280.0 306.9,280.0 314.7,280.0 322.5,286.0 330.3,286.0 338.1,286.0 345.9,274.0 353.7,268.0 361.4,268.0 369.2,262.0 377.0,262.0 384.8,262.0 392.6,262.0 400.4,268.0 408.2,280.0 416.0,280.0 423.8,274.0 431.6,262.0 439.4,268.0 447.1,268.0 454.9,262.0 462.7,268.0 470.5,268.0 478.3,268.0 486.1,280.0 493.9,280.0 501.7,268.0 509.5,268.0 517.3,268.0 525.1,262.0 532.9,274.0 540.6,280.0 548.4,286.0 556.2,286.0 564.0,274.0 571.8,274.0 579.6,274.0 587.4,274.0 595.2,274.0 603.0,274.0 610.8,274.0 618.6,274.0 626.3,280.0 634.1,274.0 641.9,280.0 649.7,286.0 657.5,286.0 665.3,286.0 673.1,286.0 680.9,280.0 688.7,286.0 696.5,286.0 704.3,286.0 712.1,286.0 719.8,286.0 727.6,286.0 735.4,286.0 743.2,286.0 751.0,286.0 758.8,286.0 766.6,286.0 774.4,286.0 782.2,286.0 790.0,286.0 797.8,286.0 805.5,286.0 813.3,286.0 821.1,286.0 828.9,286.0 836.7,286.0 844.5,286.0 852.3,286.0 860.1,286.0 867.9,286.0 875.7,286.0 883.5,286.0 891.3,286.0 899.0,286.0 906.8,286.0 914.6,286.0 922.4,286.0 930.2,286.0 938.0,286.0"/><polyline fill="none" stroke="#ef4444" stroke-width="2.5" stroke-linejoin="round" stroke-linecap="round" points="42.0,280.0 49.8,280.0 57.6,268.0 65.4,262.0 73.2,286.0 81.0,286.0 88.7,286.0 96.5,286.0 104.3,280.0 112.1,286.0 119.9,286.0 127.7,286.0 135.5,286.0 143.3,286.0 151.1,286.0 158.9,286.0 166.7,286.0 174.5,286.0 182.2,286.0 190.0,286.0 197.8,286.0 205.6,286.0 213.4,286.0 221.2,286.0 229.0,286.0 236.8,286.0 244.6,286.0 252.4,286.0 260.2,286.0 267.9,286.0 275.7,286.0 283.5,286.0 291.3,274.0 299.1,256.0 306.9,286.0 314.7,286.0 322.5,286.0 330.3,286.0 338.1,286.0 345.9,286.0 353.7,286.0 361.4,286.0 369.2,286.0 377.0,286.0 384.8,286.0 392.6,286.0 400.4,286.0 408.2,286.0 416.0,280.0 423.8,286.0 431.6,286.0 439.4,286.0 447.1,286.0 454.9,286.0 462.7,286.0 470.5,286.0 478.3,286.0 486.1,286.0 493.9,286.0 501.7,286.0 509.5,286.0 517.3,286.0 525.1,280.0 532.9,286.0 540.6,286.0 548.4,286.0 556.2,286.0 564.0,286.0 571.8,286.0 579.6,286.0 587.4,286.0 595.2,286.0 603.0,286.0 610.8,286.0 618.6,286.0 626.3,274.0 634.1,274.0 641.9,274.0 649.7,274.0 657.5,274.0 665.3,274.0 673.1,274.0 680.9,274.0 688.7,274.0 696.5,274.0 704.3,274.0 712.1,274.0 719.8,274.0 727.6,274.0 735.4,274.0 743.2,274.0 751.0,274.0 758.8,274.0 766.6,274.0 774.4,274.0 782.2,274.0 790.0,274.0 797.8,274.0 805.5,274.0 813.3,274.0 821.1,274.0 828.9,274.0 836.7,274.0 844.5,274.0 852.3,274.0 860.1,274.0 867.9,274.0 875.7,274.0 883.5,274.0 891.3,274.0 899.0,274.0 906.8,274.0 914.6,274.0 922.4,274.0 930.2,274.0 938.0,274.0"/><polyline fill="none" stroke="#a855f7" stroke-width="2.5" stroke-linejoin="round" stroke-linecap="round" points="42.0,286.0 49.8,286.0 57.6,286.0 65.4,286.0 73.2,286.0 81.0,286.0 88.7,286.0 96.5,286.0 104.3,286.0 112.1,286.0 119.9,286.0 127.7,286.0 135.5,286.0 143.3,286.0 151.1,286.0 158.9,286.0 166.7,286.0 174.5,286.0 182.2,286.0 190.0,286.0 197.8,286.0 205.6,286.0 213.4,286.0 221.2,286.0 229.0,286.0 236.8,286.0 244.6,286.0 252.4,286.0 260.2,286.0 267.9,286.0 275.7,286.0 283.5,286.0 291.3,286.0 299.1,286.0 306.9,286.0 314.7,286.0 322.5,286.0 330.3,286.0 338.1,286.0 345.9,286.0 353.7,286.0 361.4,286.0 369.2,286.0 377.0,286.0 384.8,286.0 392.6,286.0 400.4,286.0 408.2,286.0 416.0,286.0 423.8,286.0 431.6,286.0 439.4,286.0 447.1,286.0 454.9,286.0 462.7,286.0 470.5,286.0 478.3,286.0 486.1,286.0 493.9,286.0 501.7,286.0 509.5,286.0 517.3,286.0 525.1,286.0 532.9,286.0 540.6,286.0 548.4,286.0 556.2,286.0 564.0,286.0 571.8,286.0 579.6,286.0 587.4,280.0 595.2,286.0 603.0,286.0 610.8,286.0 618.6,286.0 626.3,286.0 634.1,286.0 641.9,286.0 649.7,286.0 657.5,286.0 665.3,286.0 673.1,286.0 680.9,286.0 688.7,286.0 696.5,286.0 704.3,286.0 712.1,286.0 719.8,286.0 727.6,286.0 735.4,286.0 743.2,286.0 751.0,286.0 758.8,286.0 766.6,286.0 774.4,286.0 782.2,286.0 790.0,286.0 797.8,286.0 805.5,286.0 813.3,286.0 821.1,286.0 828.9,286.0 836.7,286.0 844.5,286.0 852.3,286.0 860.1,286.0 867.9,286.0 875.7,286.0 883.5,286.0 891.3,286.0 899.0,286.0 906.8,286.0 914.6,286.0 922.4,286.0 930.2,286.0 938.0,286.0"/><text x="42" y="308" font-size="11" fill="#5a688a">19/06 12:43</text><text x="938" y="308" text-anchor="end" font-size="11" fill="#5a688a">28/06 00:30</text></svg>