<svg xmlns="http://www.w3.org/2000/svg" viewBox="0 0 960 320" width="960" height="320" font-family="Segoe UI, system-ui, -apple-system, Roboto, Helvetica, Arial, sans-serif" role="img" aria-label="Availability history per region"><rect x="0.5" y="0.5" width="959" height="319" rx="14" fill="#ffffff" stroke="#dce3f1"/><text x="42" y="26" font-size="14" font-weight="600" fill="#14203a">History · 162 points</text><circle cx="47" cy="40" r="5" fill="#22c55e"/><text x="57" y="44" font-size="12" fill="#5a688a">Available</text><circle cx="139.8" cy="40" r="5" fill="#f59e0b"/><text x="149.8" y="44" font-size="12" fill="#5a688a">Saturated</text><circle cx="232.60000000000002" cy="40" r="5" fill="#ef4444"/><text x="242.60000000000002" y="44" font-size="12" fill="#5a688a">Error</text><circle cx="296.6" cy="40" r="5" fill="#a855f7"/><text x="306.6" y="44" font-size="12" fill="#5a688a">Timeout</text><line x1="42" y1="286.0" x2="938" y2="286.0" stroke="#eef2f7" stroke-width="1"/><text x="35" y="289.0" text-anchor="end" font-size="11" fill="#5a688a">0</text><line x1="42" y1="227.5" x2="938" y2="227.5" stroke="#eef2f7" stroke-width="1"/><text x="35" y="230.5" text-anchor="end" font-size="11" fill="#5a688a">10</text><line x1="42" y1="169.0" x2="938" y2="169.0" stroke="#eef2f7" stroke-width="1"/><text x="35" y="172.0" text-anchor="end" font-size="11" fill="#5a688a">21</text><line x1="42" y1="110.5" x2="938" y2="110.5" stroke="#eef2f7" stroke-width="1"/><text x="35" y="113.5" text-anchor="end" font-size="11" fill="#5a688a">32</text><line x1="42" y1="52.0" x2="938" y2="52.0" stroke="#eef2f7" stroke-width="1"/><text x="35" y="55.0" text-anchor="end" font-size="11" fill="#5a688a">42</text><polyline fill="none" stroke="#22c55e" stroke-width="2.5" stroke-linejoin="round" stroke-linecap="round" points="42.0,85.4 47.6,230.3 53.1,102.1 58.7,107.7 64.3,102.1 69.8,96.6 75.4,96.6 81.0,96.6 86.5,96.6 92.1,96.6 97.7,96.6 103.2,96.6 108.8,96.6 114.3,96.6 119.9,96.6 125.5,91.0 131.0,91.0 136.6,102.1 142.2,102.1 147.7,102.1 153.3,107.7 158.9,107.7 164.4,107.7 170.0,107.7 175.6,107.7 181.1,107.7 186.7,107.7 192.3,107.7 197.8,107.7 203.4,102.1 209.0,102.1 214.5,102.1 220.1,102.1 225.7,96.6 231.2,96.6 236.8,96.6 242.3,96.6 247.9,96.6 253.5,102.1 259.0,102.1 264.6,102.1 270.2,102.1 275.7,96.6 281.3,96.6 286.9,96.6 292.4,96.6 298.0,96.6 303.6,96.6 309.1,96.6 314.7,102.1 320.3,102.1 325.8,102.1 331.4,102.1 337.0,96.6 342.5,96.6 348.1,96.6 353.7,96.6 359.2,96.6 364.8,96.6 370.3,96.6 375.9,96.6 381.5,102.1 387.0,96.6 392.6,96.6 398.2,96.6 403.7,96.6 409.3,96.6 414.9,102.1 420.4,96.6 426.0,96.6 431.6,96.6 437.1,96.6 442.7,96.6 448.3,96.6 453.8,96.6 459.4,96.6 465.0,96.6 470.5,91.0 476.1,91.0 481.7,91.0 487.2,91.0 492.8,96.6 498.3,91.0 503.9,96.6 509.5,96.6 515.0,96.6 520.6,96.6 526.2,96.6 531.7,96.6 537.3,102.1 542.9,107.7 548.4,107.7 554.0,107.7 559.6,107.7 565.1,107.7 570.7,107.7 576.3,107.7 581.8,113.3 587.4,107.7 593.0,107.7 598.5,107.7 604.1,107.7 609.7,107.7 615.2,107.7 620.8,102.1 626.3,102.1 631.9,102.1 637.5,102.1 643.0,102.1 648.6,102.1 654.2,102.1 659.7,102.1 665.3,107.7 670.9,107.7 676.4,107.7 682.0,107.7 687.6,107.7 693.1,107.7 698.7,107.7 704.3,107.7 709.8,113.3 715.4,107.7 721.0,107.7 726.5,107.7 732.1,118.9 737.7,107.7 743.2,107.7 748.8,107.7 754.3,107.7 759.9,102.1 765.5,102.1 771.0,102.1 776.6,102.1 782.2,107.7 787.7,102.1 793.3,107.7 798.9,107.7 804.4,107.7 810.0,107.7 815.6,113.3 821.1,107.7 826.7,107.7 832.3,107.7 837.8,107.7 843.4,107.7 849.0,107.7 854.5,107.7 860.1,107.7 865.7,113.3 871.2,102.1 876.8,102.1 882.3,102.1 887.9,102.1 893.5,102.1 899.0,102.1 904.6,102.1 910.2,102.1 915.7,102.1 921.3,102.1 926.9,107.7 932.4,102.1 938.0,102.1"/><polyline fill="none" stroke="#f59e0b" stroke-width="2.5" stroke-linejoin="round" stroke-linecap="round" points="42.0,274.9 47.6,269.3 53.1,258.1 58.7,252.6 64.3,258.1 69.8,263.7 75.4,263.7 81.0,263.7 86.5,263.7 92.1,263.7 97.7,263.7 103.2,263.7 108.8,263.7 114.3,263.7 119.9,263.7 125.5,269.3 131.0,269.3 136.6,263.7 142.2,258.1 147.7,258.1 153.3,252.6 158.9,252.6 164.4,252.6 170.0,252.6 175.6,252.6 181.1,252.6 186.7,252.6 192.3,252.6 197.8,252.6 203.4,258.1 209.0,258.1 214.5,258.1 220.1,258.1 225.7,263.7 231.2,263.7 236.8,263.7 242.3,263.7 247.9,263.7 253.5,258.1 259.0,258.1 264.6,258.1 270.2,258.1 275.7,263.7 281.3,263.7 286.9,263.7 292.4,263.7 298.0,263.7 303.6,263.7 309.1,263.7 314.7,258.1 320.3,258.1 325.8,258.1 331.4,263.7 337.0,263.7 342.5,263.7 348.1,263.7 353.7,263.7 359.2,263.7 364.8,263.7 370.3,263.7 375.9,263.7 381.5,258.1 387.0,263.7 392.6,263.7 398.2,263.7 403.7,263.7 409.3,263.7 414.9,263.7 420.4,263.7 426.0,263.7 431.6,263.7 437.1,263.7 442.7,263.7 448.3,263.7 453.8,263.7 459.4,263.7 465.0,263.7 470.5,269.3 476.1,269.3 481.7,269.3 487.2,269.3 492.8,269.3 498.3,269.3 503.9,263.7 509.5,263.7 515.0,263.7 520.6,263.7 526.2,263.7 531.7,263.7 537.3,258.1 542.9,252.6 548.4,252.6 554.0,258.1 559.6,252.6 565.1,252.6 570.7,252.6 576.3,252.6 581.8,252.6 587.4,252.6 593.0,258.1 598.5,252.6 604.1,252.6 609.7,252.6 615.2,252.6 620.8,258.1 626.3,258.1 631.9,258.1 637.5,258.1 643.0,258.1 648.6,258.1 654.2,258.1 659.7,258.1 665.3,252.6 670.9,252.6 676.4,252.6 682.0,252.6 687.6,252.6 693.1,252.6 698.7,252.6 704.3,258.1 709.8,252.6 715.4,252.6 721.0,252.6 726.5,252.6 732.1,252.6 737.7,252.6 743.2,252.6 748.8,258.1 754.3,258.1 759.9,258.1 765.5,258.1 771.0,258.1 776.6,258.1 782.2,258.1 787.7,258.1 793.3,252.6 798.9,252.6 804.4,252.6 810.0,252.6 815.6,252.6 821.1,252.6 826.7,252.6 832.3,252.6 837.8,252.6 843.4,252.6 849.0,252.6 854.5,252.6 860.1,252.6 865.7,252.6 871.2,258.1 876.8,258.1 882.3,258.1 887.9,258.1 893.5,258.1 899.0,263.7 904.6,263.7 910.2,258.1 915.7,258.1 921.3,258.1 926.9,258.1 932.4,258.1 938.0,258.1"/><polyline fill="none" stroke="#ef4444" stroke-width="2.5" stroke-linejoin="round" stroke-linecap="round" points="42.0,286.0 47.6,146.7 53.1,286.0 58.7,286.0 64.3,286.0 69.8,286.0 75.4,286.0 81.0,286.0 86.5,286.0 92.1,286.0 97.7,286.0 103.2,286.0 108.8,286.0 114.3,286.0 119.9,286.0 125.5,286.0 131.0,286.0 136.6,280.4 142.2,286.0 147.7,286.0 153.3,286.0 158.9,286.0 164.4,286.0 170.0,286.0 175.6,286.0 181.1,286.0 186.7,286.0 192.3,286.0 197.8,286.0 203.4,286.0 209.0,286.0 214.5,286.0 220.1,286.0 225.7,286.0 231.2,286.0 236.8,286.0 242.3,286.0 247.9,286.0 253.5,286.0 259.0,286.0 264.6,286.0 270.2,286.0 275.7,286.0 281.3,286.0 286.9,286.0 292.4,286.0 298.0,286.0 303.6,286.0 309.1,286.0 314.7,286.0 320.3,286.0 325.8,286.0 331.4,286.0 337.0,286.0 342.5,286.0 348.1,286.0 353.7,286.0 359.2,286.0 364.8,286.0 370.3,286.0 375.9,286.0 381.5,286.0 387.0,286.0 392.6,286.0 398.2,286.0 403.7,286.0 409.3,286.0 414.9,280.4 420.4,286.0 426.0,286.0 431.6,286.0 437.1,286.0 442.7,286.0 448.3,286.0 453.8,286.0 459.4,286.0 465.0,286.0 470.5,286.0 476.1,286.0 481.7,286.0 487.2,286.0 492.8,280.4 498.3,286.0 503.9,286.0 509.5,286.0 515.0,286.0 520.6,286.0 526.2,286.0 531.7,286.0 537.3,286.0 542.9,286.0 548.4,286.0 554.0,280.4 559.6,286.0 565.1,286.0 570.7,286.0 576.3,286.0 581.8,280.4 587.4,286.0 593.0,286.0 598.5,286.0 604.1,286.0 609.7,286.0 615.2,286.0 620.8,286.0 626.3,286.0 631.9,286.0 637.5,286.0 643.0,286.0 648.6,286.0 654.2,286.0 659.7,286.0 665.3,286.0 670.9,286.0 676.4,286.0 682.0,286.0 687.6,286.0 693.1,286.0 698.7,286.0 704.3,286.0 709.8,280.4 715.4,286.0 721.0,286.0 726.5,286.0 732.1,274.9 737.7,286.0 743.2,286.0 748.8,280.4 754.3,280.4 759.9,286.0 765.5,286.0 771.0,286.0 776.6,286.0 782.2,280.4 787.7,286.0 793.3,286.0 798.9,286.0 804.4,286.0 810.0,286.0 815.6,286.0 821.1,286.0 826.7,286.0 832.3,286.0 837.8,286.0 843.4,286.0 849.0,286.0 854.5,286.0 860.1,286.0 865.7,286.0 871.2,286.0 876.8,286.0 882.3,286.0 887.9,286.0 893.5,286.0 899.0,280.4 904.6,286.0 910.2,286.0 915.7,286.0 921.3,263.7 926.9,280.4 932.4,286.0 938.0,286.0"/><polyline fill="none" stroke="#a855f7" stroke-width="2.5" stroke-linejoin="round" stroke-linecap="round" points="42.0,286.0 47.6,286.0 53.1,286.0 58.7,286.0 64.3,286.0 69.8,286.0 75.4,286.0 81.0,286.0 86.5,286.0 92.1,286.0 97.7,286.0 103.2,286.0 108.8,286.0 114.3,286.0 119.9,286.0 125.5,286.0 131.0,286.0 136.6,286.0 142.2,286.0 147.7,286.0 153.3,286.0 158.9,286.0 164.4,286.0 170.0,286.0 175.6,286.0 181.1,286.0 186.7,286.0 192.3,286.0 197.8,286.0 203.4,286.0 209.0,286.0 214.5,286.0 220.1,286.0 225.7,286.0 231.2,286.0 236.8,286.0 242.3,286.0 247.9,286.0 253.5,286.0 259.0,286.0 264.6,286.0 270.2,286.0 275.7,286.0 281.3,286.0 286.9,286.0 292.4,286.0 298.0,286.0 303.6,286.0 309.1,286.0 314.7,286.0 320.3,286.0 325.8,286.0 331.4,280.4 337.0,286.0 342.5,286.0 348.1,286.0 353.7,286.0 359.2,286.0 364.8,286.0 370.3,286.0 375.9,286.0 381.5,286.0 387.0,286.0 392.6,286.0 398.2,286.0 403.7,286.0 409.3,286.0 414.9,286.0 420.4,286.0 426.0,286.0 431.6,286.0 437.1,286.0 442.7,286.0 448.3,286.0 453.8,286.0 459.4,286.0 465.0,286.0 470.5,286.0 476.1,286.0 481.7,286.0 487.2,286.0 492.8,286.0 498.3,286.0 503.9,286.0 509.5,286.0 515.0,286.0 520.6,286.0 526.2,286.0 531.7,286.0 537.3,286.0 542.9,286.0 548.4,286.0 554.0,286.0 559.6,286.0 565.1,286.0 570.7,286.0 576.3,286.0 581.8,286.0 587.4,286.0 593.0,280.4 598.5,286.0 604.1,286.0 609.7,286.0 615.2,286.0 620.8,286.0 626.3,286.0 631.9,286.0 637.5,286.0 643.0,286.0 648.6,286.0 654.2,286.0 659.7,286.0 665.3,286.0 670.9,286.0 676.4,286.0 682.0,286.0 687.6,286.0 693.1,286.0 698.7,286.0 704.3,280.4 709.8,286.0 715.4,286.0 721.0,286.0 726.5,286.0 732.1,286.0 737.7,286.0 743.2,286.0 748.8,286.0 754.3,286.0 759.9,286.0 765.5,286.0 771.0,286.0 776.6,286.0 782.2,286.0 787.7,286.0 793.3,286.0 798.9,286.0 804.4,286.0 810.0,286.0 815.6,280.4 821.1,286.0 826.7,286.0 832.3,286.0 837.8,286.0 843.4,286.0 849.0,286.0 854.5,286.0 860.1,286.0 865.7,280.4 871.2,286.0 876.8,286.0 882.3,286.0 887.9,286.0 893.5,286.0 899.0,286.0 904.6,280.4 910.2,286.0 915.7,286.0 921.3,286.0 926.9,286.0 932.4,286.0 938.0,286.0"/><text x="42" y="308" font-size="11" fill="#5a688a">19/06 15:39</text><text x="938" y="308" text-anchor="end" font-size="11" fill="#5a688a">23/07 08:30</text></svg>