<svg xmlns="http://www.w3.org/2000/svg" viewBox="0 0 960 320" width="960" height="320" font-family="Segoe UI, system-ui, -apple-system, Roboto, Helvetica, Arial, sans-serif" role="img" aria-label="Availability history per region"><rect x="0.5" y="0.5" width="959" height="319" rx="14" fill="#0d1117" stroke="#2c3a5e"/><text x="42" y="26" font-size="14" font-weight="600" fill="#e6ecff">History · 82 points</text><circle cx="47" cy="40" r="5" fill="#22c55e"/><text x="57" y="44" font-size="12" fill="#9fb0d4">Available</text><circle cx="139.8" cy="40" r="5" fill="#f59e0b"/><text x="149.8" y="44" font-size="12" fill="#9fb0d4">Saturated</text><circle cx="232.60000000000002" cy="40" r="5" fill="#ef4444"/><text x="242.60000000000002" y="44" font-size="12" fill="#9fb0d4">Error</text><circle cx="296.6" cy="40" r="5" fill="#a855f7"/><text x="306.6" y="44" font-size="12" fill="#9fb0d4">Timeout</text><line x1="42" y1="286.0" x2="938" y2="286.0" stroke="#21304f" stroke-width="1"/><text x="35" y="289.0" text-anchor="end" font-size="11" fill="#9fb0d4">0</text><line x1="42" y1="227.5" x2="938" y2="227.5" stroke="#21304f" stroke-width="1"/><text x="35" y="230.5" text-anchor="end" font-size="11" fill="#9fb0d4">10</text><line x1="42" y1="169.0" x2="938" y2="169.0" stroke="#21304f" stroke-width="1"/><text x="35" y="172.0" text-anchor="end" font-size="11" fill="#9fb0d4">20</text><line x1="42" y1="110.5" x2="938" y2="110.5" stroke="#21304f" stroke-width="1"/><text x="35" y="113.5" text-anchor="end" font-size="11" fill="#9fb0d4">29</text><line x1="42" y1="52.0" x2="938" y2="52.0" stroke="#21304f" stroke-width="1"/><text x="35" y="55.0" text-anchor="end" font-size="11" fill="#9fb0d4">39</text><polyline fill="none" stroke="#22c55e" stroke-width="2.5" stroke-linejoin="round" stroke-linecap="round" points="42.0,70.0 53.1,70.0 64.1,88.0 75.2,88.0 86.2,76.0 97.3,76.0 108.4,76.0 119.4,70.0 130.5,76.0 141.6,70.0 152.6,64.0 163.7,58.0 174.7,58.0 185.8,58.0 196.9,58.0 207.9,58.0 219.0,58.0 230.0,58.0 241.1,58.0 252.2,58.0 263.2,58.0 274.3,58.0 285.4,58.0 296.4,58.0 307.5,58.0 318.5,58.0 329.6,58.0 340.7,58.0 351.7,58.0 362.8,58.0 373.9,58.0 384.9,70.0 396.0,76.0 407.0,94.0 418.1,64.0 429.2,64.0 440.2,58.0 451.3,58.0 462.3,58.0 473.4,70.0 484.5,76.0 495.5,76.0 506.6,82.0 517.7,82.0 528.7,82.0 539.8,82.0 550.8,76.0 561.9,64.0 573.0,70.0 584.0,70.0 595.1,82.0 606.1,76.0 617.2,76.0 628.3,82.0 639.3,76.0 650.4,76.0 661.5,76.0 672.5,64.0 683.6,64.0 694.6,76.0 705.7,76.0 716.8,76.0 727.8,88.0 738.9,70.0 750.0,64.0 761.0,58.0 772.1,58.0 783.1,70.0 794.2,70.0 805.3,70.0 816.3,76.0 827.4,70.0 838.4,70.0 849.5,70.0 860.6,70.0 871.6,76.0 882.7,82.0 893.8,76.0 904.8,70.0 915.9,70.0 926.9,70.0 938.0,70.0"/><polyline fill="none" stroke="#f59e0b" stroke-width="2.5" stroke-linejoin="round" stroke-linecap="round" points="42.0,274.0 53.1,274.0 64.1,274.0 75.2,280.0 86.2,268.0 97.3,268.0 108.4,268.0 119.4,274.0 130.5,274.0 141.6,274.0 152.6,280.0 163.7,286.0 174.7,286.0 185.8,286.0 196.9,286.0 207.9,286.0 219.0,286.0 230.0,286.0 241.1,286.0 252.2,286.0 263.2,286.0 274.3,286.0 285.4,286.0 296.4,286.0 307.5,286.0 318.5,286.0 329.6,286.0 340.7,286.0 351.7,286.0 362.8,286.0 373.9,286.0 384.9,274.0 396.0,280.0 407.0,280.0 418.1,280.0 429.2,280.0 440.2,286.0 451.3,286.0 462.3,286.0 473.4,274.0 484.5,268.0 495.5,268.0 506.6,262.0 517.7,262.0 528.7,262.0 539.8,262.0 550.8,268.0 561.9,280.0 573.0,280.0 584.0,274.0 595.1,262.0 606.1,268.0 617.2,268.0 628.3,262.0 639.3,268.0 650.4,268.0 661.5,268.0 672.5,280.0 683.6,280.0 694.6,268.0 705.7,268.0 716.8,268.0 727.8,262.0 738.9,274.0 750.0,280.0 761.0,286.0 772.1,286.0 783.1,274.0 794.2,274.0 805.3,274.0 816.3,274.0 827.4,274.0 838.4,274.0 849.5,274.0 860.6,274.0 871.6,280.0 882.7,274.0 893.8,280.0 904.8,286.0 915.9,286.0 926.9,286.0 938.0,286.0"/><polyline fill="none" stroke="#ef4444" stroke-width="2.5" stroke-linejoin="round" stroke-linecap="round" points="42.0,280.0 53.1,280.0 64.1,268.0 75.2,262.0 86.2,286.0 97.3,286.0 108.4,286.0 119.4,286.0 130.5,280.0 141.6,286.0 152.6,286.0 163.7,286.0 174.7,286.0 185.8,286.0 196.9,286.0 207.9,286.0 219.0,286.0 230.0,286.0 241.1,286.0 252.2,286.0 263.2,286.0 274.3,286.0 285.4,286.0 296.4,286.0 307.5,286.0 318.5,286.0 329.6,286.0 340.7,286.0 351.7,286.0 362.8,286.0 373.9,286.0 384.9,286.0 396.0,274.0 407.0,256.0 418.1,286.0 429.2,286.0 440.2,286.0 451.3,286.0 462.3,286.0 473.4,286.0 484.5,286.0 495.5,286.0 506.6,286.0 517.7,286.0 528.7,286.0 539.8,286.0 550.8,286.0 561.9,286.0 573.0,280.0 584.0,286.0 595.1,286.0 606.1,286.0 617.2,286.0 628.3,286.0 639.3,286.0 650.4,286.0 661.5,286.0 672.5,286.0 683.6,286.0 694.6,286.0 705.7,286.0 716.8,286.0 727.8,280.0 738.9,286.0 750.0,286.0 761.0,286.0 772.1,286.0 783.1,286.0 794.2,286.0 805.3,286.0 816.3,286.0 827.4,286.0 838.4,286.0 849.5,286.0 860.6,286.0 871.6,274.0 882.7,274.0 893.8,274.0 904.8,274.0 915.9,274.0 926.9,274.0 938.0,274.0"/><polyline fill="none" stroke="#a855f7" stroke-width="2.5" stroke-linejoin="round" stroke-linecap="round" points="42.0,286.0 53.1,286.0 64.1,286.0 75.2,286.0 86.2,286.0 97.3,286.0 108.4,286.0 119.4,286.0 130.5,286.0 141.6,286.0 152.6,286.0 163.7,286.0 174.7,286.0 185.8,286.0 196.9,286.0 207.9,286.0 219.0,286.0 230.0,286.0 241.1,286.0 252.2,286.0 263.2,286.0 274.3,286.0 285.4,286.0 296.4,286.0 307.5,286.0 318.5,286.0 329.6,286.0 340.7,286.0 351.7,286.0 362.8,286.0 373.9,286.0 384.9,286.0 396.0,286.0 407.0,286.0 418.1,286.0 429.2,286.0 440.2,286.0 451.3,286.0 462.3,286.0 473.4,286.0 484.5,286.0 495.5,286.0 506.6,286.0 517.7,286.0 528.7,286.0 539.8,286.0 550.8,286.0 561.9,286.0 573.0,286.0 584.0,286.0 595.1,286.0 606.1,286.0 617.2,286.0 628.3,286.0 639.3,286.0 650.4,286.0 661.5,286.0 672.5,286.0 683.6,286.0 694.6,286.0 705.7,286.0 716.8,286.0 727.8,286.0 738.9,286.0 750.0,286.0 761.0,286.0 772.1,286.0 783.1,286.0 794.2,286.0 805.3,286.0 816.3,280.0 827.4,286.0 838.4,286.0 849.5,286.0 860.6,286.0 871.6,286.0 882.7,286.0 893.8,286.0 904.8,286.0 915.9,286.0 926.9,286.0 938.0,286.0"/><text x="42" y="308" font-size="11" fill="#9fb0d4">19/06 12:43</text><text x="938" y="308" text-anchor="end" font-size="11" fill="#9fb0d4">26/06 23:45</text></svg>