<svg xmlns="http://www.w3.org/2000/svg" viewBox="0 0 960 320" width="960" height="320" font-family="Segoe UI, system-ui, -apple-system, Roboto, Helvetica, Arial, sans-serif" role="img" aria-label="Availability history per region"><rect x="0.5" y="0.5" width="959" height="319" rx="14" fill="#ffffff" stroke="#dce3f1"/><text x="42" y="26" font-size="14" font-weight="600" fill="#14203a">History · 55 points</text><circle cx="47" cy="40" r="5" fill="#22c55e"/><text x="57" y="44" font-size="12" fill="#5a688a">Available</text><circle cx="139.8" cy="40" r="5" fill="#f59e0b"/><text x="149.8" y="44" font-size="12" fill="#5a688a">Saturated</text><circle cx="232.60000000000002" cy="40" r="5" fill="#ef4444"/><text x="242.60000000000002" y="44" font-size="12" fill="#5a688a">Error</text><circle cx="296.6" cy="40" r="5" fill="#a855f7"/><text x="306.6" y="44" font-size="12" fill="#5a688a">Timeout</text><line x1="42" y1="286.0" x2="938" y2="286.0" stroke="#eef2f7" stroke-width="1"/><text x="35" y="289.0" text-anchor="end" font-size="11" fill="#5a688a">0</text><line x1="42" y1="227.5" x2="938" y2="227.5" stroke="#eef2f7" stroke-width="1"/><text x="35" y="230.5" text-anchor="end" font-size="11" fill="#5a688a">10</text><line x1="42" y1="169.0" x2="938" y2="169.0" stroke="#eef2f7" stroke-width="1"/><text x="35" y="172.0" text-anchor="end" font-size="11" fill="#5a688a">19</text><line x1="42" y1="110.5" x2="938" y2="110.5" stroke="#eef2f7" stroke-width="1"/><text x="35" y="113.5" text-anchor="end" font-size="11" fill="#5a688a">28</text><line x1="42" y1="52.0" x2="938" y2="52.0" stroke="#eef2f7" stroke-width="1"/><text x="35" y="55.0" text-anchor="end" font-size="11" fill="#5a688a">38</text><polyline fill="none" stroke="#22c55e" stroke-width="2.5" stroke-linejoin="round" stroke-linecap="round" points="42.0,64.3 58.6,224.4 75.2,82.8 91.8,88.9 108.4,82.8 125.0,76.6 141.6,76.6 158.1,76.6 174.7,76.6 191.3,76.6 207.9,76.6 224.5,76.6 241.1,76.6 257.7,76.6 274.3,76.6 290.9,70.5 307.5,70.5 324.1,82.8 340.7,82.8 357.3,82.8 373.9,88.9 390.4,88.9 407.0,88.9 423.6,88.9 440.2,88.9 456.8,88.9 473.4,88.9 490.0,88.9 506.6,88.9 523.2,82.8 539.8,82.8 556.4,82.8 573.0,82.8 589.6,76.6 606.1,76.6 622.7,76.6 639.3,76.6 655.9,76.6 672.5,82.8 689.1,82.8 705.7,82.8 722.3,82.8 738.9,76.6 755.5,76.6 772.1,76.6 788.7,76.6 805.3,76.6 821.9,76.6 838.4,76.6 855.0,82.8 871.6,82.8 888.2,82.8 904.8,82.8 921.4,76.6 938.0,76.6"/><circle cx="42.0" cy="64.3" r="2.5" fill="#22c55e"/><circle cx="58.6" cy="224.4" r="2.5" fill="#22c55e"/><circle cx="75.2" cy="82.8" r="2.5" fill="#22c55e"/><circle cx="91.8" cy="88.9" r="2.5" fill="#22c55e"/><circle cx="108.4" cy="82.8" r="2.5" fill="#22c55e"/><circle cx="125.0" cy="76.6" r="2.5" fill="#22c55e"/><circle cx="141.6" cy="76.6" r="2.5" fill="#22c55e"/><circle cx="158.1" cy="76.6" r="2.5" fill="#22c55e"/><circle cx="174.7" cy="76.6" r="2.5" fill="#22c55e"/><circle cx="191.3" cy="76.6" r="2.5" fill="#22c55e"/><circle cx="207.9" cy="76.6" r="2.5" fill="#22c55e"/><circle cx="224.5" cy="76.6" r="2.5" fill="#22c55e"/><circle cx="241.1" cy="76.6" r="2.5" fill="#22c55e"/><circle cx="257.7" cy="76.6" r="2.5" fill="#22c55e"/><circle cx="274.3" cy="76.6" r="2.5" fill="#22c55e"/><circle cx="290.9" cy="70.5" r="2.5" fill="#22c55e"/><circle cx="307.5" cy="70.5" r="2.5" fill="#22c55e"/><circle cx="324.1" cy="82.8" r="2.5" fill="#22c55e"/><circle cx="340.7" cy="82.8" r="2.5" fill="#22c55e"/><circle cx="357.3" cy="82.8" r="2.5" fill="#22c55e"/><circle cx="373.9" cy="88.9" r="2.5" fill="#22c55e"/><circle cx="390.4" cy="88.9" r="2.5" fill="#22c55e"/><circle cx="407.0" cy="88.9" r="2.5" fill="#22c55e"/><circle cx="423.6" cy="88.9" r="2.5" fill="#22c55e"/><circle cx="440.2" cy="88.9" r="2.5" fill="#22c55e"/><circle cx="456.8" cy="88.9" r="2.5" fill="#22c55e"/><circle cx="473.4" cy="88.9" r="2.5" fill="#22c55e"/><circle cx="490.0" cy="88.9" r="2.5" fill="#22c55e"/><circle cx="506.6" cy="88.9" r="2.5" fill="#22c55e"/><circle cx="523.2" cy="82.8" r="2.5" fill="#22c55e"/><circle cx="539.8" cy="82.8" r="2.5" fill="#22c55e"/><circle cx="556.4" cy="82.8" r="2.5" fill="#22c55e"/><circle cx="573.0" cy="82.8" r="2.5" fill="#22c55e"/><circle cx="589.6" cy="76.6" r="2.5" fill="#22c55e"/><circle cx="606.1" cy="76.6" r="2.5" fill="#22c55e"/><circle cx="622.7" cy="76.6" r="2.5" fill="#22c55e"/><circle cx="639.3" cy="76.6" r="2.5" fill="#22c55e"/><circle cx="655.9" cy="76.6" r="2.5" fill="#22c55e"/><circle cx="672.5" cy="82.8" r="2.5" fill="#22c55e"/><circle cx="689.1" cy="82.8" r="2.5" fill="#22c55e"/><circle cx="705.7" cy="82.8" r="2.5" fill="#22c55e"/><circle cx="722.3" cy="82.8" r="2.5" fill="#22c55e"/><circle cx="738.9" cy="76.6" r="2.5" fill="#22c55e"/><circle cx="755.5" cy="76.6" r="2.5" fill="#22c55e"/><circle cx="772.1" cy="76.6" r="2.5" fill="#22c55e"/><circle cx="788.7" cy="76.6" r="2.5" fill="#22c55e"/><circle cx="805.3" cy="76.6" r="2.5" fill="#22c55e"/><circle cx="821.9" cy="76.6" r="2.5" fill="#22c55e"/><circle cx="838.4" cy="76.6" r="2.5" fill="#22c55e"/><circle cx="855.0" cy="82.8" r="2.5" fill="#22c55e"/><circle cx="871.6" cy="82.8" r="2.5" fill="#22c55e"/><circle cx="888.2" cy="82.8" r="2.5" fill="#22c55e"/><circle cx="904.8" cy="82.8" r="2.5" fill="#22c55e"/><circle cx="921.4" cy="76.6" r="2.5" fill="#22c55e"/><circle cx="938.0" cy="76.6" r="2.5" fill="#22c55e"/><polyline fill="none" stroke="#f59e0b" stroke-width="2.5" stroke-linejoin="round" stroke-linecap="round" points="42.0,273.7 58.6,267.5 75.2,255.2 91.8,249.1 108.4,255.2 125.0,261.4 141.6,261.4 158.1,261.4 174.7,261.4 191.3,261.4 207.9,261.4 224.5,261.4 241.1,261.4 257.7,261.4 274.3,261.4 290.9,267.5 307.5,267.5 324.1,261.4 340.7,255.2 357.3,255.2 373.9,249.1 390.4,249.1 407.0,249.1 423.6,249.1 440.2,249.1 456.8,249.1 473.4,249.1 490.0,249.1 506.6,249.1 523.2,255.2 539.8,255.2 556.4,255.2 573.0,255.2 589.6,261.4 606.1,261.4 622.7,261.4 639.3,261.4 655.9,261.4 672.5,255.2 689.1,255.2 705.7,255.2 722.3,255.2 738.9,261.4 755.5,261.4 772.1,261.4 788.7,261.4 805.3,261.4 821.9,261.4 838.4,261.4 855.0,255.2 871.6,255.2 888.2,255.2 904.8,261.4 921.4,261.4 938.0,261.4"/><circle cx="42.0" cy="273.7" r="2.5" fill="#f59e0b"/><circle cx="58.6" cy="267.5" r="2.5" fill="#f59e0b"/><circle cx="75.2" cy="255.2" r="2.5" fill="#f59e0b"/><circle cx="91.8" cy="249.1" r="2.5" fill="#f59e0b"/><circle cx="108.4" cy="255.2" r="2.5" fill="#f59e0b"/><circle cx="125.0" cy="261.4" r="2.5" fill="#f59e0b"/><circle cx="141.6" cy="261.4" r="2.5" fill="#f59e0b"/><circle cx="158.1" cy="261.4" r="2.5" fill="#f59e0b"/><circle cx="174.7" cy="261.4" r="2.5" fill="#f59e0b"/><circle cx="191.3" cy="261.4" r="2.5" fill="#f59e0b"/><circle cx="207.9" cy="261.4" r="2.5" fill="#f59e0b"/><circle cx="224.5" cy="261.4" r="2.5" fill="#f59e0b"/><circle cx="241.1" cy="261.4" r="2.5" fill="#f59e0b"/><circle cx="257.7" cy="261.4" r="2.5" fill="#f59e0b"/><circle cx="274.3" cy="261.4" r="2.5" fill="#f59e0b"/><circle cx="290.9" cy="267.5" r="2.5" fill="#f59e0b"/><circle cx="307.5" cy="267.5" r="2.5" fill="#f59e0b"/><circle cx="324.1" cy="261.4" r="2.5" fill="#f59e0b"/><circle cx="340.7" cy="255.2" r="2.5" fill="#f59e0b"/><circle cx="357.3" cy="255.2" r="2.5" fill="#f59e0b"/><circle cx="373.9" cy="249.1" r="2.5" fill="#f59e0b"/><circle cx="390.4" cy="249.1" r="2.5" fill="#f59e0b"/><circle cx="407.0" cy="249.1" r="2.5" fill="#f59e0b"/><circle cx="423.6" cy="249.1" r="2.5" fill="#f59e0b"/><circle cx="440.2" cy="249.1" r="2.5" fill="#f59e0b"/><circle cx="456.8" cy="249.1" r="2.5" fill="#f59e0b"/><circle cx="473.4" cy="249.1" r="2.5" fill="#f59e0b"/><circle cx="490.0" cy="249.1" r="2.5" fill="#f59e0b"/><circle cx="506.6" cy="249.1" r="2.5" fill="#f59e0b"/><circle cx="523.2" cy="255.2" r="2.5" fill="#f59e0b"/><circle cx="539.8" cy="255.2" r="2.5" fill="#f59e0b"/><circle cx="556.4" cy="255.2" r="2.5" fill="#f59e0b"/><circle cx="573.0" cy="255.2" r="2.5" fill="#f59e0b"/><circle cx="589.6" cy="261.4" r="2.5" fill="#f59e0b"/><circle cx="606.1" cy="261.4" r="2.5" fill="#f59e0b"/><circle cx="622.7" cy="261.4" r="2.5" fill="#f59e0b"/><circle cx="639.3" cy="261.4" r="2.5" fill="#f59e0b"/><circle cx="655.9" cy="261.4" r="2.5" fill="#f59e0b"/><circle cx="672.5" cy="255.2" r="2.5" fill="#f59e0b"/><circle cx="689.1" cy="255.2" r="2.5" fill="#f59e0b"/><circle cx="705.7" cy="255.2" r="2.5" fill="#f59e0b"/><circle cx="722.3" cy="255.2" r="2.5" fill="#f59e0b"/><circle cx="738.9" cy="261.4" r="2.5" fill="#f59e0b"/><circle cx="755.5" cy="261.4" r="2.5" fill="#f59e0b"/><circle cx="772.1" cy="261.4" r="2.5" fill="#f59e0b"/><circle cx="788.7" cy="261.4" r="2.5" fill="#f59e0b"/><circle cx="805.3" cy="261.4" r="2.5" fill="#f59e0b"/><circle cx="821.9" cy="261.4" r="2.5" fill="#f59e0b"/><circle cx="838.4" cy="261.4" r="2.5" fill="#f59e0b"/><circle cx="855.0" cy="255.2" r="2.5" fill="#f59e0b"/><circle cx="871.6" cy="255.2" r="2.5" fill="#f59e0b"/><circle cx="888.2" cy="255.2" r="2.5" fill="#f59e0b"/><circle cx="904.8" cy="261.4" r="2.5" fill="#f59e0b"/><circle cx="921.4" cy="261.4" r="2.5" fill="#f59e0b"/><circle cx="938.0" cy="261.4" r="2.5" fill="#f59e0b"/><polyline fill="none" stroke="#ef4444" stroke-width="2.5" stroke-linejoin="round" stroke-linecap="round" points="42.0,286.0 58.6,132.1 75.2,286.0 91.8,286.0 108.4,286.0 125.0,286.0 141.6,286.0 158.1,286.0 174.7,286.0 191.3,286.0 207.9,286.0 224.5,286.0 241.1,286.0 257.7,286.0 274.3,286.0 290.9,286.0 307.5,286.0 324.1,279.8 340.7,286.0 357.3,286.0 373.9,286.0 390.4,286.0 407.0,286.0 423.6,286.0 440.2,286.0 456.8,286.0 473.4,286.0 490.0,286.0 506.6,286.0 523.2,286.0 539.8,286.0 556.4,286.0 573.0,286.0 589.6,286.0 606.1,286.0 622.7,286.0 639.3,286.0 655.9,286.0 672.5,286.0 689.1,286.0 705.7,286.0 722.3,286.0 738.9,286.0 755.5,286.0 772.1,286.0 788.7,286.0 805.3,286.0 821.9,286.0 838.4,286.0 855.0,286.0 871.6,286.0 888.2,286.0 904.8,286.0 921.4,286.0 938.0,286.0"/><circle cx="42.0" cy="286.0" r="2.5" fill="#ef4444"/><circle cx="58.6" cy="132.1" r="2.5" fill="#ef4444"/><circle cx="75.2" cy="286.0" r="2.5" fill="#ef4444"/><circle cx="91.8" cy="286.0" r="2.5" fill="#ef4444"/><circle cx="108.4" cy="286.0" r="2.5" fill="#ef4444"/><circle cx="125.0" cy="286.0" r="2.5" fill="#ef4444"/><circle cx="141.6" cy="286.0" r="2.5" fill="#ef4444"/><circle cx="158.1" cy="286.0" r="2.5" fill="#ef4444"/><circle cx="174.7" cy="286.0" r="2.5" fill="#ef4444"/><circle cx="191.3" cy="286.0" r="2.5" fill="#ef4444"/><circle cx="207.9" cy="286.0" r="2.5" fill="#ef4444"/><circle cx="224.5" cy="286.0" r="2.5" fill="#ef4444"/><circle cx="241.1" cy="286.0" r="2.5" fill="#ef4444"/><circle cx="257.7" cy="286.0" r="2.5" fill="#ef4444"/><circle cx="274.3" cy="286.0" r="2.5" fill="#ef4444"/><circle cx="290.9" cy="286.0" r="2.5" fill="#ef4444"/><circle cx="307.5" cy="286.0" r="2.5" fill="#ef4444"/><circle cx="324.1" cy="279.8" r="2.5" fill="#ef4444"/><circle cx="340.7" cy="286.0" r="2.5" fill="#ef4444"/><circle cx="357.3" cy="286.0" r="2.5" fill="#ef4444"/><circle cx="373.9" cy="286.0" r="2.5" fill="#ef4444"/><circle cx="390.4" cy="286.0" r="2.5" fill="#ef4444"/><circle cx="407.0" cy="286.0" r="2.5" fill="#ef4444"/><circle cx="423.6" cy="286.0" r="2.5" fill="#ef4444"/><circle cx="440.2" cy="286.0" r="2.5" fill="#ef4444"/><circle cx="456.8" cy="286.0" r="2.5" fill="#ef4444"/><circle cx="473.4" cy="286.0" r="2.5" fill="#ef4444"/><circle cx="490.0" cy="286.0" r="2.5" fill="#ef4444"/><circle cx="506.6" cy="286.0" r="2.5" fill="#ef4444"/><circle cx="523.2" cy="286.0" r="2.5" fill="#ef4444"/><circle cx="539.8" cy="286.0" r="2.5" fill="#ef4444"/><circle cx="556.4" cy="286.0" r="2.5" fill="#ef4444"/><circle cx="573.0" cy="286.0" r="2.5" fill="#ef4444"/><circle cx="589.6" cy="286.0" r="2.5" fill="#ef4444"/><circle cx="606.1" cy="286.0" r="2.5" fill="#ef4444"/><circle cx="622.7" cy="286.0" r="2.5" fill="#ef4444"/><circle cx="639.3" cy="286.0" r="2.5" fill="#ef4444"/><circle cx="655.9" cy="286.0" r="2.5" fill="#ef4444"/><circle cx="672.5" cy="286.0" r="2.5" fill="#ef4444"/><circle cx="689.1" cy="286.0" r="2.5" fill="#ef4444"/><circle cx="705.7" cy="286.0" r="2.5" fill="#ef4444"/><circle cx="722.3" cy="286.0" r="2.5" fill="#ef4444"/><circle cx="738.9" cy="286.0" r="2.5" fill="#ef4444"/><circle cx="755.5" cy="286.0" r="2.5" fill="#ef4444"/><circle cx="772.1" cy="286.0" r="2.5" fill="#ef4444"/><circle cx="788.7" cy="286.0" r="2.5" fill="#ef4444"/><circle cx="805.3" cy="286.0" r="2.5" fill="#ef4444"/><circle cx="821.9" cy="286.0" r="2.5" fill="#ef4444"/><circle cx="838.4" cy="286.0" r="2.5" fill="#ef4444"/><circle cx="855.0" cy="286.0" r="2.5" fill="#ef4444"/><circle cx="871.6" cy="286.0" r="2.5" fill="#ef4444"/><circle cx="888.2" cy="286.0" r="2.5" fill="#ef4444"/><circle cx="904.8" cy="286.0" r="2.5" fill="#ef4444"/><circle cx="921.4" cy="286.0" r="2.5" fill="#ef4444"/><circle cx="938.0" cy="286.0" r="2.5" fill="#ef4444"/><polyline fill="none" stroke="#a855f7" stroke-width="2.5" stroke-linejoin="round" stroke-linecap="round" points="42.0,286.0 58.6,286.0 75.2,286.0 91.8,286.0 108.4,286.0 125.0,286.0 141.6,286.0 158.1,286.0 174.7,286.0 191.3,286.0 207.9,286.0 224.5,286.0 241.1,286.0 257.7,286.0 274.3,286.0 290.9,286.0 307.5,286.0 324.1,286.0 340.7,286.0 357.3,286.0 373.9,286.0 390.4,286.0 407.0,286.0 423.6,286.0 440.2,286.0 456.8,286.0 473.4,286.0 490.0,286.0 506.6,286.0 523.2,286.0 539.8,286.0 556.4,286.0 573.0,286.0 589.6,286.0 606.1,286.0 622.7,286.0 639.3,286.0 655.9,286.0 672.5,286.0 689.1,286.0 705.7,286.0 722.3,286.0 738.9,286.0 755.5,286.0 772.1,286.0 788.7,286.0 805.3,286.0 821.9,286.0 838.4,286.0 855.0,286.0 871.6,286.0 888.2,286.0 904.8,279.8 921.4,286.0 938.0,286.0"/><circle cx="42.0" cy="286.0" r="2.5" fill="#a855f7"/><circle cx="58.6" cy="286.0" r="2.5" fill="#a855f7"/><circle cx="75.2" cy="286.0" r="2.5" fill="#a855f7"/><circle cx="91.8" cy="286.0" r="2.5" fill="#a855f7"/><circle cx="108.4" cy="286.0" r="2.5" fill="#a855f7"/><circle cx="125.0" cy="286.0" r="2.5" fill="#a855f7"/><circle cx="141.6" cy="286.0" r="2.5" fill="#a855f7"/><circle cx="158.1" cy="286.0" r="2.5" fill="#a855f7"/><circle cx="174.7" cy="286.0" r="2.5" fill="#a855f7"/><circle cx="191.3" cy="286.0" r="2.5" fill="#a855f7"/><circle cx="207.9" cy="286.0" r="2.5" fill="#a855f7"/><circle cx="224.5" cy="286.0" r="2.5" fill="#a855f7"/><circle cx="241.1" cy="286.0" r="2.5" fill="#a855f7"/><circle cx="257.7" cy="286.0" r="2.5" fill="#a855f7"/><circle cx="274.3" cy="286.0" r="2.5" fill="#a855f7"/><circle cx="290.9" cy="286.0" r="2.5" fill="#a855f7"/><circle cx="307.5" cy="286.0" r="2.5" fill="#a855f7"/><circle cx="324.1" cy="286.0" r="2.5" fill="#a855f7"/><circle cx="340.7" cy="286.0" r="2.5" fill="#a855f7"/><circle cx="357.3" cy="286.0" r="2.5" fill="#a855f7"/><circle cx="373.9" cy="286.0" r="2.5" fill="#a855f7"/><circle cx="390.4" cy="286.0" r="2.5" fill="#a855f7"/><circle cx="407.0" cy="286.0" r="2.5" fill="#a855f7"/><circle cx="423.6" cy="286.0" r="2.5" fill="#a855f7"/><circle cx="440.2" cy="286.0" r="2.5" fill="#a855f7"/><circle cx="456.8" cy="286.0" r="2.5" fill="#a855f7"/><circle cx="473.4" cy="286.0" r="2.5" fill="#a855f7"/><circle cx="490.0" cy="286.0" r="2.5" fill="#a855f7"/><circle cx="506.6" cy="286.0" r="2.5" fill="#a855f7"/><circle cx="523.2" cy="286.0" r="2.5" fill="#a855f7"/><circle cx="539.8" cy="286.0" r="2.5" fill="#a855f7"/><circle cx="556.4" cy="286.0" r="2.5" fill="#a855f7"/><circle cx="573.0" cy="286.0" r="2.5" fill="#a855f7"/><circle cx="589.6" cy="286.0" r="2.5" fill="#a855f7"/><circle cx="606.1" cy="286.0" r="2.5" fill="#a855f7"/><circle cx="622.7" cy="286.0" r="2.5" fill="#a855f7"/><circle cx="639.3" cy="286.0" r="2.5" fill="#a855f7"/><circle cx="655.9" cy="286.0" r="2.5" fill="#a855f7"/><circle cx="672.5" cy="286.0" r="2.5" fill="#a855f7"/><circle cx="689.1" cy="286.0" r="2.5" fill="#a855f7"/><circle cx="705.7" cy="286.0" r="2.5" fill="#a855f7"/><circle cx="722.3" cy="286.0" r="2.5" fill="#a855f7"/><circle cx="738.9" cy="286.0" r="2.5" fill="#a855f7"/><circle cx="755.5" cy="286.0" r="2.5" fill="#a855f7"/><circle cx="772.1" cy="286.0" r="2.5" fill="#a855f7"/><circle cx="788.7" cy="286.0" r="2.5" fill="#a855f7"/><circle cx="805.3" cy="286.0" r="2.5" fill="#a855f7"/><circle cx="821.9" cy="286.0" r="2.5" fill="#a855f7"/><circle cx="838.4" cy="286.0" r="2.5" fill="#a855f7"/><circle cx="855.0" cy="286.0" r="2.5" fill="#a855f7"/><circle cx="871.6" cy="286.0" r="2.5" fill="#a855f7"/><circle cx="888.2" cy="286.0" r="2.5" fill="#a855f7"/><circle cx="904.8" cy="279.8" r="2.5" fill="#a855f7"/><circle cx="921.4" cy="286.0" r="2.5" fill="#a855f7"/><circle cx="938.0" cy="286.0" r="2.5" fill="#a855f7"/><text x="42" y="308" font-size="11" fill="#5a688a">19/06 15:39</text><text x="938" y="308" text-anchor="end" font-size="11" fill="#5a688a">18/07 20:34</text></svg>