<svg xmlns="http://www.w3.org/2000/svg" viewBox="0 0 960 320" width="960" height="320" font-family="Segoe UI, system-ui, -apple-system, Roboto, Helvetica, Arial, sans-serif" role="img" aria-label="Availability history per region"><rect x="0.5" y="0.5" width="959" height="319" rx="14" fill="#0d1117" stroke="#2c3a5e"/><text x="42" y="26" font-size="14" font-weight="600" fill="#e6ecff">History · 165 points</text><circle cx="47" cy="40" r="5" fill="#22c55e"/><text x="57" y="44" font-size="12" fill="#9fb0d4">Available</text><circle cx="139.8" cy="40" r="5" fill="#f59e0b"/><text x="149.8" y="44" font-size="12" fill="#9fb0d4">Saturated</text><circle cx="232.60000000000002" cy="40" r="5" fill="#ef4444"/><text x="242.60000000000002" y="44" font-size="12" fill="#9fb0d4">Error</text><circle cx="296.6" cy="40" r="5" fill="#a855f7"/><text x="306.6" y="44" font-size="12" fill="#9fb0d4">Timeout</text><line x1="42" y1="286.0" x2="938" y2="286.0" stroke="#21304f" stroke-width="1"/><text x="35" y="289.0" text-anchor="end" font-size="11" fill="#9fb0d4">0</text><line x1="42" y1="227.5" x2="938" y2="227.5" stroke="#21304f" stroke-width="1"/><text x="35" y="230.5" text-anchor="end" font-size="11" fill="#9fb0d4">10</text><line x1="42" y1="169.0" x2="938" y2="169.0" stroke="#21304f" stroke-width="1"/><text x="35" y="172.0" text-anchor="end" font-size="11" fill="#9fb0d4">21</text><line x1="42" y1="110.5" x2="938" y2="110.5" stroke="#21304f" stroke-width="1"/><text x="35" y="113.5" text-anchor="end" font-size="11" fill="#9fb0d4">32</text><line x1="42" y1="52.0" x2="938" y2="52.0" stroke="#21304f" stroke-width="1"/><text x="35" y="55.0" text-anchor="end" font-size="11" fill="#9fb0d4">42</text><polyline fill="none" stroke="#22c55e" stroke-width="2.5" stroke-linejoin="round" stroke-linecap="round" points="42.0,85.4 47.5,230.3 52.9,102.1 58.4,107.7 63.9,102.1 69.3,96.6 74.8,96.6 80.2,96.6 85.7,96.6 91.2,96.6 96.6,96.6 102.1,96.6 107.6,96.6 113.0,96.6 118.5,96.6 124.0,91.0 129.4,91.0 134.9,102.1 140.3,102.1 145.8,102.1 151.3,107.7 156.7,107.7 162.2,107.7 167.7,107.7 173.1,107.7 178.6,107.7 184.0,107.7 189.5,107.7 195.0,107.7 200.4,102.1 205.9,102.1 211.4,102.1 216.8,102.1 222.3,96.6 227.8,96.6 233.2,96.6 238.7,96.6 244.1,96.6 249.6,102.1 255.1,102.1 260.5,102.1 266.0,102.1 271.5,96.6 276.9,96.6 282.4,96.6 287.9,96.6 293.3,96.6 298.8,96.6 304.2,96.6 309.7,102.1 315.2,102.1 320.6,102.1 326.1,102.1 331.6,96.6 337.0,96.6 342.5,96.6 348.0,96.6 353.4,96.6 358.9,96.6 364.3,96.6 369.8,96.6 375.3,102.1 380.7,96.6 386.2,96.6 391.7,96.6 397.1,96.6 402.6,96.6 408.0,102.1 413.5,96.6 419.0,96.6 424.4,96.6 429.9,96.6 435.4,96.6 440.8,96.6 446.3,96.6 451.8,96.6 457.2,96.6 462.7,91.0 468.1,91.0 473.6,91.0 479.1,91.0 484.5,96.6 490.0,91.0 495.5,96.6 500.9,96.6 506.4,96.6 511.9,96.6 517.3,96.6 522.8,96.6 528.2,102.1 533.7,107.7 539.2,107.7 544.6,107.7 550.1,107.7 555.6,107.7 561.0,107.7 566.5,107.7 572.0,113.3 577.4,107.7 582.9,107.7 588.3,107.7 593.8,107.7 599.3,107.7 604.7,107.7 610.2,102.1 615.7,102.1 621.1,102.1 626.6,102.1 632.0,102.1 637.5,102.1 643.0,102.1 648.4,102.1 653.9,107.7 659.4,107.7 664.8,107.7 670.3,107.7 675.8,107.7 681.2,107.7 686.7,107.7 692.1,107.7 697.6,113.3 703.1,107.7 708.5,107.7 714.0,107.7 719.5,118.9 724.9,107.7 730.4,107.7 735.9,107.7 741.3,107.7 746.8,102.1 752.2,102.1 757.7,102.1 763.2,102.1 768.6,107.7 774.1,102.1 779.6,107.7 785.0,107.7 790.5,107.7 796.0,107.7 801.4,113.3 806.9,107.7 812.3,107.7 817.8,107.7 823.3,107.7 828.7,107.7 834.2,107.7 839.7,107.7 845.1,107.7 850.6,113.3 856.0,102.1 861.5,102.1 867.0,102.1 872.4,102.1 877.9,102.1 883.4,102.1 888.8,102.1 894.3,102.1 899.8,102.1 905.2,102.1 910.7,107.7 916.1,102.1 921.6,102.1 927.1,102.1 932.5,102.1 938.0,102.1"/><polyline fill="none" stroke="#f59e0b" stroke-width="2.5" stroke-linejoin="round" stroke-linecap="round" points="42.0,274.9 47.5,269.3 52.9,258.1 58.4,252.6 63.9,258.1 69.3,263.7 74.8,263.7 80.2,263.7 85.7,263.7 91.2,263.7 96.6,263.7 102.1,263.7 107.6,263.7 113.0,263.7 118.5,263.7 124.0,269.3 129.4,269.3 134.9,263.7 140.3,258.1 145.8,258.1 151.3,252.6 156.7,252.6 162.2,252.6 167.7,252.6 173.1,252.6 178.6,252.6 184.0,252.6 189.5,252.6 195.0,252.6 200.4,258.1 205.9,258.1 211.4,258.1 216.8,258.1 222.3,263.7 227.8,263.7 233.2,263.7 238.7,263.7 244.1,263.7 249.6,258.1 255.1,258.1 260.5,258.1 266.0,258.1 271.5,263.7 276.9,263.7 282.4,263.7 287.9,263.7 293.3,263.7 298.8,263.7 304.2,263.7 309.7,258.1 315.2,258.1 320.6,258.1 326.1,263.7 331.6,263.7 337.0,263.7 342.5,263.7 348.0,263.7 353.4,263.7 358.9,263.7 364.3,263.7 369.8,263.7 375.3,258.1 380.7,263.7 386.2,263.7 391.7,263.7 397.1,263.7 402.6,263.7 408.0,263.7 413.5,263.7 419.0,263.7 424.4,263.7 429.9,263.7 435.4,263.7 440.8,263.7 446.3,263.7 451.8,263.7 457.2,263.7 462.7,269.3 468.1,269.3 473.6,269.3 479.1,269.3 484.5,269.3 490.0,269.3 495.5,263.7 500.9,263.7 506.4,263.7 511.9,263.7 517.3,263.7 522.8,263.7 528.2,258.1 533.7,252.6 539.2,252.6 544.6,258.1 550.1,252.6 555.6,252.6 561.0,252.6 566.5,252.6 572.0,252.6 577.4,252.6 582.9,258.1 588.3,252.6 593.8,252.6 599.3,252.6 604.7,252.6 610.2,258.1 615.7,258.1 621.1,258.1 626.6,258.1 632.0,258.1 637.5,258.1 643.0,258.1 648.4,258.1 653.9,252.6 659.4,252.6 664.8,252.6 670.3,252.6 675.8,252.6 681.2,252.6 686.7,252.6 692.1,258.1 697.6,252.6 703.1,252.6 708.5,252.6 714.0,252.6 719.5,252.6 724.9,252.6 730.4,252.6 735.9,258.1 741.3,258.1 746.8,258.1 752.2,258.1 757.7,258.1 763.2,258.1 768.6,258.1 774.1,258.1 779.6,252.6 785.0,252.6 790.5,252.6 796.0,252.6 801.4,252.6 806.9,252.6 812.3,252.6 817.8,252.6 823.3,252.6 828.7,252.6 834.2,252.6 839.7,252.6 845.1,252.6 850.6,252.6 856.0,258.1 861.5,258.1 867.0,258.1 872.4,258.1 877.9,258.1 883.4,263.7 888.8,263.7 894.3,258.1 899.8,258.1 905.2,258.1 910.7,258.1 916.1,258.1 921.6,258.1 927.1,258.1 932.5,258.1 938.0,258.1"/><polyline fill="none" stroke="#ef4444" stroke-width="2.5" stroke-linejoin="round" stroke-linecap="round" points="42.0,286.0 47.5,146.7 52.9,286.0 58.4,286.0 63.9,286.0 69.3,286.0 74.8,286.0 80.2,286.0 85.7,286.0 91.2,286.0 96.6,286.0 102.1,286.0 107.6,286.0 113.0,286.0 118.5,286.0 124.0,286.0 129.4,286.0 134.9,280.4 140.3,286.0 145.8,286.0 151.3,286.0 156.7,286.0 162.2,286.0 167.7,286.0 173.1,286.0 178.6,286.0 184.0,286.0 189.5,286.0 195.0,286.0 200.4,286.0 205.9,286.0 211.4,286.0 216.8,286.0 222.3,286.0 227.8,286.0 233.2,286.0 238.7,286.0 244.1,286.0 249.6,286.0 255.1,286.0 260.5,286.0 266.0,286.0 271.5,286.0 276.9,286.0 282.4,286.0 287.9,286.0 293.3,286.0 298.8,286.0 304.2,286.0 309.7,286.0 315.2,286.0 320.6,286.0 326.1,286.0 331.6,286.0 337.0,286.0 342.5,286.0 348.0,286.0 353.4,286.0 358.9,286.0 364.3,286.0 369.8,286.0 375.3,286.0 380.7,286.0 386.2,286.0 391.7,286.0 397.1,286.0 402.6,286.0 408.0,280.4 413.5,286.0 419.0,286.0 424.4,286.0 429.9,286.0 435.4,286.0 440.8,286.0 446.3,286.0 451.8,286.0 457.2,286.0 462.7,286.0 468.1,286.0 473.6,286.0 479.1,286.0 484.5,280.4 490.0,286.0 495.5,286.0 500.9,286.0 506.4,286.0 511.9,286.0 517.3,286.0 522.8,286.0 528.2,286.0 533.7,286.0 539.2,286.0 544.6,280.4 550.1,286.0 555.6,286.0 561.0,286.0 566.5,286.0 572.0,280.4 577.4,286.0 582.9,286.0 588.3,286.0 593.8,286.0 599.3,286.0 604.7,286.0 610.2,286.0 615.7,286.0 621.1,286.0 626.6,286.0 632.0,286.0 637.5,286.0 643.0,286.0 648.4,286.0 653.9,286.0 659.4,286.0 664.8,286.0 670.3,286.0 675.8,286.0 681.2,286.0 686.7,286.0 692.1,286.0 697.6,280.4 703.1,286.0 708.5,286.0 714.0,286.0 719.5,274.9 724.9,286.0 730.4,286.0 735.9,280.4 741.3,280.4 746.8,286.0 752.2,286.0 757.7,286.0 763.2,286.0 768.6,280.4 774.1,286.0 779.6,286.0 785.0,286.0 790.5,286.0 796.0,286.0 801.4,286.0 806.9,286.0 812.3,286.0 817.8,286.0 823.3,286.0 828.7,286.0 834.2,286.0 839.7,286.0 845.1,286.0 850.6,286.0 856.0,286.0 861.5,286.0 867.0,286.0 872.4,286.0 877.9,286.0 883.4,280.4 888.8,286.0 894.3,286.0 899.8,286.0 905.2,263.7 910.7,280.4 916.1,286.0 921.6,286.0 927.1,286.0 932.5,286.0 938.0,286.0"/><polyline fill="none" stroke="#a855f7" stroke-width="2.5" stroke-linejoin="round" stroke-linecap="round" points="42.0,286.0 47.5,286.0 52.9,286.0 58.4,286.0 63.9,286.0 69.3,286.0 74.8,286.0 80.2,286.0 85.7,286.0 91.2,286.0 96.6,286.0 102.1,286.0 107.6,286.0 113.0,286.0 118.5,286.0 124.0,286.0 129.4,286.0 134.9,286.0 140.3,286.0 145.8,286.0 151.3,286.0 156.7,286.0 162.2,286.0 167.7,286.0 173.1,286.0 178.6,286.0 184.0,286.0 189.5,286.0 195.0,286.0 200.4,286.0 205.9,286.0 211.4,286.0 216.8,286.0 222.3,286.0 227.8,286.0 233.2,286.0 238.7,286.0 244.1,286.0 249.6,286.0 255.1,286.0 260.5,286.0 266.0,286.0 271.5,286.0 276.9,286.0 282.4,286.0 287.9,286.0 293.3,286.0 298.8,286.0 304.2,286.0 309.7,286.0 315.2,286.0 320.6,286.0 326.1,280.4 331.6,286.0 337.0,286.0 342.5,286.0 348.0,286.0 353.4,286.0 358.9,286.0 364.3,286.0 369.8,286.0 375.3,286.0 380.7,286.0 386.2,286.0 391.7,286.0 397.1,286.0 402.6,286.0 408.0,286.0 413.5,286.0 419.0,286.0 424.4,286.0 429.9,286.0 435.4,286.0 440.8,286.0 446.3,286.0 451.8,286.0 457.2,286.0 462.7,286.0 468.1,286.0 473.6,286.0 479.1,286.0 484.5,286.0 490.0,286.0 495.5,286.0 500.9,286.0 506.4,286.0 511.9,286.0 517.3,286.0 522.8,286.0 528.2,286.0 533.7,286.0 539.2,286.0 544.6,286.0 550.1,286.0 555.6,286.0 561.0,286.0 566.5,286.0 572.0,286.0 577.4,286.0 582.9,280.4 588.3,286.0 593.8,286.0 599.3,286.0 604.7,286.0 610.2,286.0 615.7,286.0 621.1,286.0 626.6,286.0 632.0,286.0 637.5,286.0 643.0,286.0 648.4,286.0 653.9,286.0 659.4,286.0 664.8,286.0 670.3,286.0 675.8,286.0 681.2,286.0 686.7,286.0 692.1,280.4 697.6,286.0 703.1,286.0 708.5,286.0 714.0,286.0 719.5,286.0 724.9,286.0 730.4,286.0 735.9,286.0 741.3,286.0 746.8,286.0 752.2,286.0 757.7,286.0 763.2,286.0 768.6,286.0 774.1,286.0 779.6,286.0 785.0,286.0 790.5,286.0 796.0,286.0 801.4,280.4 806.9,286.0 812.3,286.0 817.8,286.0 823.3,286.0 828.7,286.0 834.2,286.0 839.7,286.0 845.1,286.0 850.6,280.4 856.0,286.0 861.5,286.0 867.0,286.0 872.4,286.0 877.9,286.0 883.4,286.0 888.8,280.4 894.3,286.0 899.8,286.0 905.2,286.0 910.7,286.0 916.1,286.0 921.6,286.0 927.1,286.0 932.5,286.0 938.0,286.0"/><text x="42" y="308" font-size="11" fill="#9fb0d4">19/06 15:39</text><text x="938" y="308" text-anchor="end" font-size="11" fill="#9fb0d4">23/07 11:29</text></svg>