<svg xmlns="http://www.w3.org/2000/svg" viewBox="0 0 960 320" width="960" height="320" font-family="Segoe UI, system-ui, -apple-system, Roboto, Helvetica, Arial, sans-serif" role="img" aria-label="Availability history per region"><rect x="0.5" y="0.5" width="959" height="319" rx="14" fill="#ffffff" stroke="#dce3f1"/><text x="42" y="26" font-size="14" font-weight="600" fill="#14203a">History · 73 points</text><circle cx="47" cy="40" r="5" fill="#22c55e"/><text x="57" y="44" font-size="12" fill="#5a688a">Available</text><circle cx="139.8" cy="40" r="5" fill="#f59e0b"/><text x="149.8" y="44" font-size="12" fill="#5a688a">Saturated</text><circle cx="232.60000000000002" cy="40" r="5" fill="#ef4444"/><text x="242.60000000000002" y="44" font-size="12" fill="#5a688a">Error</text><circle cx="296.6" cy="40" r="5" fill="#a855f7"/><text x="306.6" y="44" font-size="12" fill="#5a688a">Timeout</text><line x1="42" y1="286.0" x2="938" y2="286.0" stroke="#eef2f7" stroke-width="1"/><text x="35" y="289.0" text-anchor="end" font-size="11" fill="#5a688a">0</text><line x1="42" y1="227.5" x2="938" y2="227.5" stroke="#eef2f7" stroke-width="1"/><text x="35" y="230.5" text-anchor="end" font-size="11" fill="#5a688a">10</text><line x1="42" y1="169.0" x2="938" y2="169.0" stroke="#eef2f7" stroke-width="1"/><text x="35" y="172.0" text-anchor="end" font-size="11" fill="#5a688a">20</text><line x1="42" y1="110.5" x2="938" y2="110.5" stroke="#eef2f7" stroke-width="1"/><text x="35" y="113.5" text-anchor="end" font-size="11" fill="#5a688a">29</text><line x1="42" y1="52.0" x2="938" y2="52.0" stroke="#eef2f7" stroke-width="1"/><text x="35" y="55.0" text-anchor="end" font-size="11" fill="#5a688a">39</text><polyline fill="none" stroke="#22c55e" stroke-width="2.5" stroke-linejoin="round" stroke-linecap="round" points="42.0,70.0 54.4,70.0 66.9,88.0 79.3,88.0 91.8,76.0 104.2,76.0 116.7,76.0 129.1,70.0 141.6,76.0 154.0,70.0 166.4,64.0 178.9,58.0 191.3,58.0 203.8,58.0 216.2,58.0 228.7,58.0 241.1,58.0 253.6,58.0 266.0,58.0 278.4,58.0 290.9,58.0 303.3,58.0 315.8,58.0 328.2,58.0 340.7,58.0 353.1,58.0 365.6,58.0 378.0,58.0 390.4,58.0 402.9,58.0 415.3,58.0 427.8,70.0 440.2,76.0 452.7,94.0 465.1,64.0 477.6,64.0 490.0,58.0 502.4,58.0 514.9,58.0 527.3,70.0 539.8,76.0 552.2,76.0 564.7,82.0 577.1,82.0 589.6,82.0 602.0,82.0 614.4,76.0 626.9,64.0 639.3,70.0 651.8,70.0 664.2,82.0 676.7,76.0 689.1,76.0 701.6,82.0 714.0,76.0 726.4,76.0 738.9,76.0 751.3,64.0 763.8,64.0 776.2,76.0 788.7,76.0 801.1,76.0 813.6,88.0 826.0,70.0 838.4,64.0 850.9,58.0 863.3,58.0 875.8,70.0 888.2,70.0 900.7,70.0 913.1,76.0 925.6,70.0 938.0,70.0"/><polyline fill="none" stroke="#f59e0b" stroke-width="2.5" stroke-linejoin="round" stroke-linecap="round" points="42.0,274.0 54.4,274.0 66.9,274.0 79.3,280.0 91.8,268.0 104.2,268.0 116.7,268.0 129.1,274.0 141.6,274.0 154.0,274.0 166.4,280.0 178.9,286.0 191.3,286.0 203.8,286.0 216.2,286.0 228.7,286.0 241.1,286.0 253.6,286.0 266.0,286.0 278.4,286.0 290.9,286.0 303.3,286.0 315.8,286.0 328.2,286.0 340.7,286.0 353.1,286.0 365.6,286.0 378.0,286.0 390.4,286.0 402.9,286.0 415.3,286.0 427.8,274.0 440.2,280.0 452.7,280.0 465.1,280.0 477.6,280.0 490.0,286.0 502.4,286.0 514.9,286.0 527.3,274.0 539.8,268.0 552.2,268.0 564.7,262.0 577.1,262.0 589.6,262.0 602.0,262.0 614.4,268.0 626.9,280.0 639.3,280.0 651.8,274.0 664.2,262.0 676.7,268.0 689.1,268.0 701.6,262.0 714.0,268.0 726.4,268.0 738.9,268.0 751.3,280.0 763.8,280.0 776.2,268.0 788.7,268.0 801.1,268.0 813.6,262.0 826.0,274.0 838.4,280.0 850.9,286.0 863.3,286.0 875.8,274.0 888.2,274.0 900.7,274.0 913.1,274.0 925.6,274.0 938.0,274.0"/><polyline fill="none" stroke="#ef4444" stroke-width="2.5" stroke-linejoin="round" stroke-linecap="round" points="42.0,280.0 54.4,280.0 66.9,268.0 79.3,262.0 91.8,286.0 104.2,286.0 116.7,286.0 129.1,286.0 141.6,280.0 154.0,286.0 166.4,286.0 178.9,286.0 191.3,286.0 203.8,286.0 216.2,286.0 228.7,286.0 241.1,286.0 253.6,286.0 266.0,286.0 278.4,286.0 290.9,286.0 303.3,286.0 315.8,286.0 328.2,286.0 340.7,286.0 353.1,286.0 365.6,286.0 378.0,286.0 390.4,286.0 402.9,286.0 415.3,286.0 427.8,286.0 440.2,274.0 452.7,256.0 465.1,286.0 477.6,286.0 490.0,286.0 502.4,286.0 514.9,286.0 527.3,286.0 539.8,286.0 552.2,286.0 564.7,286.0 577.1,286.0 589.6,286.0 602.0,286.0 614.4,286.0 626.9,286.0 639.3,280.0 651.8,286.0 664.2,286.0 676.7,286.0 689.1,286.0 701.6,286.0 714.0,286.0 726.4,286.0 738.9,286.0 751.3,286.0 763.8,286.0 776.2,286.0 788.7,286.0 801.1,286.0 813.6,280.0 826.0,286.0 838.4,286.0 850.9,286.0 863.3,286.0 875.8,286.0 888.2,286.0 900.7,286.0 913.1,286.0 925.6,286.0 938.0,286.0"/><polyline fill="none" stroke="#a855f7" stroke-width="2.5" stroke-linejoin="round" stroke-linecap="round" points="42.0,286.0 54.4,286.0 66.9,286.0 79.3,286.0 91.8,286.0 104.2,286.0 116.7,286.0 129.1,286.0 141.6,286.0 154.0,286.0 166.4,286.0 178.9,286.0 191.3,286.0 203.8,286.0 216.2,286.0 228.7,286.0 241.1,286.0 253.6,286.0 266.0,286.0 278.4,286.0 290.9,286.0 303.3,286.0 315.8,286.0 328.2,286.0 340.7,286.0 353.1,286.0 365.6,286.0 378.0,286.0 390.4,286.0 402.9,286.0 415.3,286.0 427.8,286.0 440.2,286.0 452.7,286.0 465.1,286.0 477.6,286.0 490.0,286.0 502.4,286.0 514.9,286.0 527.3,286.0 539.8,286.0 552.2,286.0 564.7,286.0 577.1,286.0 589.6,286.0 602.0,286.0 614.4,286.0 626.9,286.0 639.3,286.0 651.8,286.0 664.2,286.0 676.7,286.0 689.1,286.0 701.6,286.0 714.0,286.0 726.4,286.0 738.9,286.0 751.3,286.0 763.8,286.0 776.2,286.0 788.7,286.0 801.1,286.0 813.6,286.0 826.0,286.0 838.4,286.0 850.9,286.0 863.3,286.0 875.8,286.0 888.2,286.0 900.7,286.0 913.1,280.0 925.6,286.0 938.0,286.0"/><text x="42" y="308" font-size="11" fill="#5a688a">19/06 12:43</text><text x="938" y="308" text-anchor="end" font-size="11" fill="#5a688a">26/06 17:42</text></svg>