<svg xmlns="http://www.w3.org/2000/svg" viewBox="0 0 960 320" width="960" height="320" font-family="Segoe UI, system-ui, -apple-system, Roboto, Helvetica, Arial, sans-serif" role="img" aria-label="Availability history per region"><rect x="0.5" y="0.5" width="959" height="319" rx="14" fill="#0d1117" stroke="#2c3a5e"/><text x="42" y="26" font-size="14" font-weight="600" fill="#e6ecff">History · 189 points</text><circle cx="47" cy="40" r="5" fill="#22c55e"/><text x="57" y="44" font-size="12" fill="#9fb0d4">Available</text><circle cx="139.8" cy="40" r="5" fill="#f59e0b"/><text x="149.8" y="44" font-size="12" fill="#9fb0d4">Saturated</text><circle cx="232.60000000000002" cy="40" r="5" fill="#ef4444"/><text x="242.60000000000002" y="44" font-size="12" fill="#9fb0d4">Error</text><circle cx="296.6" cy="40" r="5" fill="#a855f7"/><text x="306.6" y="44" font-size="12" fill="#9fb0d4">Timeout</text><line x1="42" y1="286.0" x2="938" y2="286.0" stroke="#21304f" stroke-width="1"/><text x="35" y="289.0" text-anchor="end" font-size="11" fill="#9fb0d4">0</text><line x1="42" y1="227.5" x2="938" y2="227.5" stroke="#21304f" stroke-width="1"/><text x="35" y="230.5" text-anchor="end" font-size="11" fill="#9fb0d4">10</text><line x1="42" y1="169.0" x2="938" y2="169.0" stroke="#21304f" stroke-width="1"/><text x="35" y="172.0" text-anchor="end" font-size="11" fill="#9fb0d4">20</text><line x1="42" y1="110.5" x2="938" y2="110.5" stroke="#21304f" stroke-width="1"/><text x="35" y="113.5" text-anchor="end" font-size="11" fill="#9fb0d4">29</text><line x1="42" y1="52.0" x2="938" y2="52.0" stroke="#21304f" stroke-width="1"/><text x="35" y="55.0" text-anchor="end" font-size="11" fill="#9fb0d4">39</text><polyline fill="none" stroke="#22c55e" stroke-width="2.5" stroke-linejoin="round" stroke-linecap="round" points="42.0,70.0 46.8,70.0 51.5,88.0 56.3,88.0 61.1,76.0 65.8,76.0 70.6,76.0 75.4,70.0 80.1,76.0 84.9,70.0 89.7,64.0 94.4,58.0 99.2,58.0 104.0,58.0 108.7,58.0 113.5,58.0 118.3,58.0 123.0,58.0 127.8,58.0 132.6,58.0 137.3,58.0 142.1,58.0 146.9,58.0 151.6,58.0 156.4,58.0 161.1,58.0 165.9,58.0 170.7,58.0 175.4,58.0 180.2,58.0 185.0,58.0 189.7,70.0 194.5,76.0 199.3,94.0 204.0,64.0 208.8,64.0 213.6,58.0 218.3,58.0 223.1,58.0 227.9,70.0 232.6,76.0 237.4,76.0 242.2,82.0 246.9,82.0 251.7,82.0 256.5,82.0 261.2,76.0 266.0,64.0 270.8,70.0 275.5,70.0 280.3,82.0 285.1,76.0 289.8,76.0 294.6,82.0 299.4,76.0 304.1,76.0 308.9,76.0 313.7,64.0 318.4,64.0 323.2,76.0 328.0,76.0 332.7,76.0 337.5,88.0 342.3,70.0 347.0,64.0 351.8,58.0 356.6,58.0 361.3,70.0 366.1,70.0 370.9,70.0 375.6,76.0 380.4,70.0 385.1,70.0 389.9,70.0 394.7,70.0 399.4,76.0 404.2,82.0 409.0,76.0 413.7,70.0 418.5,70.0 423.3,70.0 428.0,70.0 432.8,76.0 437.6,70.0 442.3,70.0 447.1,70.0 451.9,70.0 456.6,70.0 461.4,70.0 466.2,70.0 470.9,70.0 475.7,70.0 480.5,70.0 485.2,70.0 490.0,70.0 494.8,70.0 499.5,70.0 504.3,70.0 509.1,70.0 513.8,70.0 518.6,70.0 523.4,70.0 528.1,70.0 532.9,70.0 537.7,70.0 542.4,70.0 547.2,70.0 552.0,70.0 556.7,70.0 561.5,70.0 566.3,70.0 571.0,70.0 575.8,70.0 580.6,70.0 585.3,70.0 590.1,70.0 594.9,70.0 599.6,70.0 604.4,70.0 609.1,70.0 613.9,70.0 618.7,70.0 623.4,70.0 628.2,70.0 633.0,70.0 637.7,70.0 642.5,70.0 647.3,70.0 652.0,70.0 656.8,70.0 661.6,70.0 666.3,70.0 671.1,70.0 675.9,70.0 680.6,70.0 685.4,70.0 690.2,70.0 694.9,70.0 699.7,70.0 704.5,70.0 709.2,70.0 714.0,70.0 718.8,70.0 723.5,70.0 728.3,70.0 733.1,70.0 737.8,70.0 742.6,70.0 747.4,70.0 752.1,70.0 756.9,70.0 761.7,76.0 766.4,70.0 771.2,70.0 776.0,70.0 780.7,70.0 785.5,70.0 790.3,76.0 795.0,76.0 799.8,88.0 804.6,88.0 809.3,88.0 814.1,94.0 818.9,94.0 823.6,94.0 828.4,94.0 833.1,88.0 837.9,88.0 842.7,82.0 847.4,82.0 852.2,82.0 857.0,88.0 861.7,88.0 866.5,94.0 871.3,82.0 876.0,82.0 880.8,82.0 885.6,82.0 890.3,88.0 895.1,88.0 899.9,94.0 904.6,94.0 909.4,88.0 914.2,88.0 918.9,88.0 923.7,94.0 928.5,94.0 933.2,106.0 938.0,94.0"/><polyline fill="none" stroke="#f59e0b" stroke-width="2.5" stroke-linejoin="round" stroke-linecap="round" points="42.0,274.0 46.8,274.0 51.5,274.0 56.3,280.0 61.1,268.0 65.8,268.0 70.6,268.0 75.4,274.0 80.1,274.0 84.9,274.0 89.7,280.0 94.4,286.0 99.2,286.0 104.0,286.0 108.7,286.0 113.5,286.0 118.3,286.0 123.0,286.0 127.8,286.0 132.6,286.0 137.3,286.0 142.1,286.0 146.9,286.0 151.6,286.0 156.4,286.0 161.1,286.0 165.9,286.0 170.7,286.0 175.4,286.0 180.2,286.0 185.0,286.0 189.7,274.0 194.5,280.0 199.3,280.0 204.0,280.0 208.8,280.0 213.6,286.0 218.3,286.0 223.1,286.0 227.9,274.0 232.6,268.0 237.4,268.0 242.2,262.0 246.9,262.0 251.7,262.0 256.5,262.0 261.2,268.0 266.0,280.0 270.8,280.0 275.5,274.0 280.3,262.0 285.1,268.0 289.8,268.0 294.6,262.0 299.4,268.0 304.1,268.0 308.9,268.0 313.7,280.0 318.4,280.0 323.2,268.0 328.0,268.0 332.7,268.0 337.5,262.0 342.3,274.0 347.0,280.0 351.8,286.0 356.6,286.0 361.3,274.0 366.1,274.0 370.9,274.0 375.6,274.0 380.4,274.0 385.1,274.0 389.9,274.0 394.7,274.0 399.4,280.0 404.2,274.0 409.0,280.0 413.7,286.0 418.5,286.0 423.3,286.0 428.0,286.0 432.8,280.0 437.6,286.0 442.3,286.0 447.1,286.0 451.9,286.0 456.6,286.0 461.4,286.0 466.2,286.0 470.9,286.0 475.7,286.0 480.5,286.0 485.2,286.0 490.0,286.0 494.8,286.0 499.5,286.0 504.3,286.0 509.1,286.0 513.8,286.0 518.6,286.0 523.4,286.0 528.1,286.0 532.9,286.0 537.7,286.0 542.4,286.0 547.2,286.0 552.0,286.0 556.7,286.0 561.5,286.0 566.3,286.0 571.0,286.0 575.8,286.0 580.6,286.0 585.3,286.0 590.1,286.0 594.9,286.0 599.6,286.0 604.4,286.0 609.1,286.0 613.9,286.0 618.7,286.0 623.4,286.0 628.2,286.0 633.0,286.0 637.7,286.0 642.5,286.0 647.3,286.0 652.0,286.0 656.8,286.0 661.6,286.0 666.3,286.0 671.1,286.0 675.9,286.0 680.6,286.0 685.4,286.0 690.2,286.0 694.9,286.0 699.7,286.0 704.5,286.0 709.2,286.0 714.0,286.0 718.8,286.0 723.5,286.0 728.3,286.0 733.1,286.0 737.8,286.0 742.6,286.0 747.4,286.0 752.1,286.0 756.9,286.0 761.7,286.0 766.4,286.0 771.2,286.0 776.0,286.0 780.7,286.0 785.5,286.0 790.3,286.0 795.0,280.0 799.8,268.0 804.6,268.0 809.3,268.0 814.1,268.0 818.9,262.0 823.6,262.0 828.4,262.0 833.1,268.0 837.9,268.0 842.7,274.0 847.4,274.0 852.2,274.0 857.0,268.0 861.7,268.0 866.5,268.0 871.3,274.0 876.0,274.0 880.8,274.0 885.6,274.0 890.3,268.0 895.1,268.0 899.9,262.0 904.6,262.0 909.4,268.0 914.2,268.0 918.9,268.0 923.7,262.0 928.5,262.0 933.2,274.0 938.0,262.0"/><polyline fill="none" stroke="#ef4444" stroke-width="2.5" stroke-linejoin="round" stroke-linecap="round" points="42.0,280.0 46.8,280.0 51.5,268.0 56.3,262.0 61.1,286.0 65.8,286.0 70.6,286.0 75.4,286.0 80.1,280.0 84.9,286.0 89.7,286.0 94.4,286.0 99.2,286.0 104.0,286.0 108.7,286.0 113.5,286.0 118.3,286.0 123.0,286.0 127.8,286.0 132.6,286.0 137.3,286.0 142.1,286.0 146.9,286.0 151.6,286.0 156.4,286.0 161.1,286.0 165.9,286.0 170.7,286.0 175.4,286.0 180.2,286.0 185.0,286.0 189.7,286.0 194.5,274.0 199.3,256.0 204.0,286.0 208.8,286.0 213.6,286.0 218.3,286.0 223.1,286.0 227.9,286.0 232.6,286.0 237.4,286.0 242.2,286.0 246.9,286.0 251.7,286.0 256.5,286.0 261.2,286.0 266.0,286.0 270.8,280.0 275.5,286.0 280.3,286.0 285.1,286.0 289.8,286.0 294.6,286.0 299.4,286.0 304.1,286.0 308.9,286.0 313.7,286.0 318.4,286.0 323.2,286.0 328.0,286.0 332.7,286.0 337.5,280.0 342.3,286.0 347.0,286.0 351.8,286.0 356.6,286.0 361.3,286.0 366.1,286.0 370.9,286.0 375.6,286.0 380.4,286.0 385.1,286.0 389.9,286.0 394.7,286.0 399.4,274.0 404.2,274.0 409.0,274.0 413.7,274.0 418.5,274.0 423.3,274.0 428.0,274.0 432.8,274.0 437.6,274.0 442.3,274.0 447.1,274.0 451.9,274.0 456.6,274.0 461.4,274.0 466.2,274.0 470.9,274.0 475.7,274.0 480.5,274.0 485.2,274.0 490.0,274.0 494.8,274.0 499.5,274.0 504.3,274.0 509.1,274.0 513.8,274.0 518.6,274.0 523.4,274.0 528.1,274.0 532.9,274.0 537.7,274.0 542.4,274.0 547.2,274.0 552.0,274.0 556.7,274.0 561.5,274.0 566.3,274.0 571.0,274.0 575.8,274.0 580.6,274.0 585.3,274.0 590.1,274.0 594.9,274.0 599.6,274.0 604.4,274.0 609.1,274.0 613.9,274.0 618.7,274.0 623.4,274.0 628.2,274.0 633.0,274.0 637.7,274.0 642.5,274.0 647.3,274.0 652.0,274.0 656.8,274.0 661.6,274.0 666.3,274.0 671.1,274.0 675.9,274.0 680.6,274.0 685.4,274.0 690.2,274.0 694.9,274.0 699.7,274.0 704.5,274.0 709.2,274.0 714.0,274.0 718.8,274.0 723.5,274.0 728.3,274.0 733.1,274.0 737.8,274.0 742.6,274.0 747.4,274.0 752.1,274.0 756.9,274.0 761.7,268.0 766.4,274.0 771.2,274.0 776.0,274.0 780.7,274.0 785.5,274.0 790.3,274.0 795.0,274.0 799.8,274.0 804.6,274.0 809.3,274.0 814.1,268.0 818.9,274.0 823.6,274.0 828.4,274.0 833.1,274.0 837.9,274.0 842.7,274.0 847.4,274.0 852.2,274.0 857.0,274.0 861.7,274.0 866.5,268.0 871.3,274.0 876.0,274.0 880.8,274.0 885.6,274.0 890.3,274.0 895.1,274.0 899.9,274.0 904.6,274.0 909.4,274.0 914.2,274.0 918.9,274.0 923.7,274.0 928.5,274.0 933.2,250.0 938.0,274.0"/><polyline fill="none" stroke="#a855f7" stroke-width="2.5" stroke-linejoin="round" stroke-linecap="round" points="42.0,286.0 46.8,286.0 51.5,286.0 56.3,286.0 61.1,286.0 65.8,286.0 70.6,286.0 75.4,286.0 80.1,286.0 84.9,286.0 89.7,286.0 94.4,286.0 99.2,286.0 104.0,286.0 108.7,286.0 113.5,286.0 118.3,286.0 123.0,286.0 127.8,286.0 132.6,286.0 137.3,286.0 142.1,286.0 146.9,286.0 151.6,286.0 156.4,286.0 161.1,286.0 165.9,286.0 170.7,286.0 175.4,286.0 180.2,286.0 185.0,286.0 189.7,286.0 194.5,286.0 199.3,286.0 204.0,286.0 208.8,286.0 213.6,286.0 218.3,286.0 223.1,286.0 227.9,286.0 232.6,286.0 237.4,286.0 242.2,286.0 246.9,286.0 251.7,286.0 256.5,286.0 261.2,286.0 266.0,286.0 270.8,286.0 275.5,286.0 280.3,286.0 285.1,286.0 289.8,286.0 294.6,286.0 299.4,286.0 304.1,286.0 308.9,286.0 313.7,286.0 318.4,286.0 323.2,286.0 328.0,286.0 332.7,286.0 337.5,286.0 342.3,286.0 347.0,286.0 351.8,286.0 356.6,286.0 361.3,286.0 366.1,286.0 370.9,286.0 375.6,280.0 380.4,286.0 385.1,286.0 389.9,286.0 394.7,286.0 399.4,286.0 404.2,286.0 409.0,286.0 413.7,286.0 418.5,286.0 423.3,286.0 428.0,286.0 432.8,286.0 437.6,286.0 442.3,286.0 447.1,286.0 451.9,286.0 456.6,286.0 461.4,286.0 466.2,286.0 470.9,286.0 475.7,286.0 480.5,286.0 485.2,286.0 490.0,286.0 494.8,286.0 499.5,286.0 504.3,286.0 509.1,286.0 513.8,286.0 518.6,286.0 523.4,286.0 528.1,286.0 532.9,286.0 537.7,286.0 542.4,286.0 547.2,286.0 552.0,286.0 556.7,286.0 561.5,286.0 566.3,286.0 571.0,286.0 575.8,286.0 580.6,286.0 585.3,286.0 590.1,286.0 594.9,286.0 599.6,286.0 604.4,286.0 609.1,286.0 613.9,286.0 618.7,286.0 623.4,286.0 628.2,286.0 633.0,286.0 637.7,286.0 642.5,286.0 647.3,286.0 652.0,286.0 656.8,286.0 661.6,286.0 666.3,286.0 671.1,286.0 675.9,286.0 680.6,286.0 685.4,286.0 690.2,286.0 694.9,286.0 699.7,286.0 704.5,286.0 709.2,286.0 714.0,286.0 718.8,286.0 723.5,286.0 728.3,286.0 733.1,286.0 737.8,286.0 742.6,286.0 747.4,286.0 752.1,286.0 756.9,286.0 761.7,286.0 766.4,286.0 771.2,286.0 776.0,286.0 780.7,286.0 785.5,286.0 790.3,280.0 795.0,286.0 799.8,286.0 804.6,286.0 809.3,286.0 814.1,286.0 818.9,286.0 823.6,286.0 828.4,286.0 833.1,286.0 837.9,286.0 842.7,286.0 847.4,286.0 852.2,286.0 857.0,286.0 861.7,286.0 866.5,286.0 871.3,286.0 876.0,286.0 880.8,286.0 885.6,286.0 890.3,286.0 895.1,286.0 899.9,286.0 904.6,286.0 909.4,286.0 914.2,286.0 918.9,286.0 923.7,286.0 928.5,286.0 933.2,286.0 938.0,286.0"/><text x="42" y="308" font-size="11" fill="#9fb0d4">19/06 12:43</text><text x="938" y="308" text-anchor="end" font-size="11" fill="#9fb0d4">30/06 15:29</text></svg>