<svg xmlns="http://www.w3.org/2000/svg" viewBox="0 0 960 320" width="960" height="320" font-family="Segoe UI, system-ui, -apple-system, Roboto, Helvetica, Arial, sans-serif" role="img" aria-label="Availability history per region"><rect x="0.5" y="0.5" width="959" height="319" rx="14" fill="#ffffff" stroke="#dce3f1"/><text x="42" y="26" font-size="14" font-weight="600" fill="#14203a">History · 169 points</text><circle cx="47" cy="40" r="5" fill="#22c55e"/><text x="57" y="44" font-size="12" fill="#5a688a">Available</text><circle cx="139.8" cy="40" r="5" fill="#f59e0b"/><text x="149.8" y="44" font-size="12" fill="#5a688a">Saturated</text><circle cx="232.60000000000002" cy="40" r="5" fill="#ef4444"/><text x="242.60000000000002" y="44" font-size="12" fill="#5a688a">Error</text><circle cx="296.6" cy="40" r="5" fill="#a855f7"/><text x="306.6" y="44" font-size="12" fill="#5a688a">Timeout</text><line x1="42" y1="286.0" x2="938" y2="286.0" stroke="#eef2f7" stroke-width="1"/><text x="35" y="289.0" text-anchor="end" font-size="11" fill="#5a688a">0</text><line x1="42" y1="227.5" x2="938" y2="227.5" stroke="#eef2f7" stroke-width="1"/><text x="35" y="230.5" text-anchor="end" font-size="11" fill="#5a688a">10</text><line x1="42" y1="169.0" x2="938" y2="169.0" stroke="#eef2f7" stroke-width="1"/><text x="35" y="172.0" text-anchor="end" font-size="11" fill="#5a688a">20</text><line x1="42" y1="110.5" x2="938" y2="110.5" stroke="#eef2f7" stroke-width="1"/><text x="35" y="113.5" text-anchor="end" font-size="11" fill="#5a688a">29</text><line x1="42" y1="52.0" x2="938" y2="52.0" stroke="#eef2f7" stroke-width="1"/><text x="35" y="55.0" text-anchor="end" font-size="11" fill="#5a688a">39</text><polyline fill="none" stroke="#22c55e" stroke-width="2.5" stroke-linejoin="round" stroke-linecap="round" points="42.0,70.0 47.3,70.0 52.7,88.0 58.0,88.0 63.3,76.0 68.7,76.0 74.0,76.0 79.3,70.0 84.7,76.0 90.0,70.0 95.3,64.0 100.7,58.0 106.0,58.0 111.3,58.0 116.7,58.0 122.0,58.0 127.3,58.0 132.7,58.0 138.0,58.0 143.3,58.0 148.7,58.0 154.0,58.0 159.3,58.0 164.7,58.0 170.0,58.0 175.3,58.0 180.7,58.0 186.0,58.0 191.3,58.0 196.7,58.0 202.0,58.0 207.3,70.0 212.7,76.0 218.0,94.0 223.3,64.0 228.7,64.0 234.0,58.0 239.3,58.0 244.7,58.0 250.0,70.0 255.3,76.0 260.7,76.0 266.0,82.0 271.3,82.0 276.7,82.0 282.0,82.0 287.3,76.0 292.7,64.0 298.0,70.0 303.3,70.0 308.7,82.0 314.0,76.0 319.3,76.0 324.7,82.0 330.0,76.0 335.3,76.0 340.7,76.0 346.0,64.0 351.3,64.0 356.7,76.0 362.0,76.0 367.3,76.0 372.7,88.0 378.0,70.0 383.3,64.0 388.7,58.0 394.0,58.0 399.3,70.0 404.7,70.0 410.0,70.0 415.3,76.0 420.7,70.0 426.0,70.0 431.3,70.0 436.7,70.0 442.0,76.0 447.3,82.0 452.7,76.0 458.0,70.0 463.3,70.0 468.7,70.0 474.0,70.0 479.3,76.0 484.7,70.0 490.0,70.0 495.3,70.0 500.7,70.0 506.0,70.0 511.3,70.0 516.7,70.0 522.0,70.0 527.3,70.0 532.7,70.0 538.0,70.0 543.3,70.0 548.7,70.0 554.0,70.0 559.3,70.0 564.7,70.0 570.0,70.0 575.3,70.0 580.7,70.0 586.0,70.0 591.3,70.0 596.7,70.0 602.0,70.0 607.3,70.0 612.7,70.0 618.0,70.0 623.3,70.0 628.7,70.0 634.0,70.0 639.3,70.0 644.7,70.0 650.0,70.0 655.3,70.0 660.7,70.0 666.0,70.0 671.3,70.0 676.7,70.0 682.0,70.0 687.3,70.0 692.7,70.0 698.0,70.0 703.3,70.0 708.7,70.0 714.0,70.0 719.3,70.0 724.7,70.0 730.0,70.0 735.3,70.0 740.7,70.0 746.0,70.0 751.3,70.0 756.7,70.0 762.0,70.0 767.3,70.0 772.7,70.0 778.0,70.0 783.3,70.0 788.7,70.0 794.0,70.0 799.3,70.0 804.7,70.0 810.0,70.0 815.3,70.0 820.7,70.0 826.0,70.0 831.3,70.0 836.7,70.0 842.0,70.0 847.3,76.0 852.7,70.0 858.0,70.0 863.3,70.0 868.7,70.0 874.0,70.0 879.3,76.0 884.7,76.0 890.0,88.0 895.3,88.0 900.7,88.0 906.0,94.0 911.3,94.0 916.7,94.0 922.0,94.0 927.3,88.0 932.7,88.0 938.0,82.0"/><polyline fill="none" stroke="#f59e0b" stroke-width="2.5" stroke-linejoin="round" stroke-linecap="round" points="42.0,274.0 47.3,274.0 52.7,274.0 58.0,280.0 63.3,268.0 68.7,268.0 74.0,268.0 79.3,274.0 84.7,274.0 90.0,274.0 95.3,280.0 100.7,286.0 106.0,286.0 111.3,286.0 116.7,286.0 122.0,286.0 127.3,286.0 132.7,286.0 138.0,286.0 143.3,286.0 148.7,286.0 154.0,286.0 159.3,286.0 164.7,286.0 170.0,286.0 175.3,286.0 180.7,286.0 186.0,286.0 191.3,286.0 196.7,286.0 202.0,286.0 207.3,274.0 212.7,280.0 218.0,280.0 223.3,280.0 228.7,280.0 234.0,286.0 239.3,286.0 244.7,286.0 250.0,274.0 255.3,268.0 260.7,268.0 266.0,262.0 271.3,262.0 276.7,262.0 282.0,262.0 287.3,268.0 292.7,280.0 298.0,280.0 303.3,274.0 308.7,262.0 314.0,268.0 319.3,268.0 324.7,262.0 330.0,268.0 335.3,268.0 340.7,268.0 346.0,280.0 351.3,280.0 356.7,268.0 362.0,268.0 367.3,268.0 372.7,262.0 378.0,274.0 383.3,280.0 388.7,286.0 394.0,286.0 399.3,274.0 404.7,274.0 410.0,274.0 415.3,274.0 420.7,274.0 426.0,274.0 431.3,274.0 436.7,274.0 442.0,280.0 447.3,274.0 452.7,280.0 458.0,286.0 463.3,286.0 468.7,286.0 474.0,286.0 479.3,280.0 484.7,286.0 490.0,286.0 495.3,286.0 500.7,286.0 506.0,286.0 511.3,286.0 516.7,286.0 522.0,286.0 527.3,286.0 532.7,286.0 538.0,286.0 543.3,286.0 548.7,286.0 554.0,286.0 559.3,286.0 564.7,286.0 570.0,286.0 575.3,286.0 580.7,286.0 586.0,286.0 591.3,286.0 596.7,286.0 602.0,286.0 607.3,286.0 612.7,286.0 618.0,286.0 623.3,286.0 628.7,286.0 634.0,286.0 639.3,286.0 644.7,286.0 650.0,286.0 655.3,286.0 660.7,286.0 666.0,286.0 671.3,286.0 676.7,286.0 682.0,286.0 687.3,286.0 692.7,286.0 698.0,286.0 703.3,286.0 708.7,286.0 714.0,286.0 719.3,286.0 724.7,286.0 730.0,286.0 735.3,286.0 740.7,286.0 746.0,286.0 751.3,286.0 756.7,286.0 762.0,286.0 767.3,286.0 772.7,286.0 778.0,286.0 783.3,286.0 788.7,286.0 794.0,286.0 799.3,286.0 804.7,286.0 810.0,286.0 815.3,286.0 820.7,286.0 826.0,286.0 831.3,286.0 836.7,286.0 842.0,286.0 847.3,286.0 852.7,286.0 858.0,286.0 863.3,286.0 868.7,286.0 874.0,286.0 879.3,286.0 884.7,280.0 890.0,268.0 895.3,268.0 900.7,268.0 906.0,268.0 911.3,262.0 916.7,262.0 922.0,262.0 927.3,268.0 932.7,268.0 938.0,274.0"/><polyline fill="none" stroke="#ef4444" stroke-width="2.5" stroke-linejoin="round" stroke-linecap="round" points="42.0,280.0 47.3,280.0 52.7,268.0 58.0,262.0 63.3,286.0 68.7,286.0 74.0,286.0 79.3,286.0 84.7,280.0 90.0,286.0 95.3,286.0 100.7,286.0 106.0,286.0 111.3,286.0 116.7,286.0 122.0,286.0 127.3,286.0 132.7,286.0 138.0,286.0 143.3,286.0 148.7,286.0 154.0,286.0 159.3,286.0 164.7,286.0 170.0,286.0 175.3,286.0 180.7,286.0 186.0,286.0 191.3,286.0 196.7,286.0 202.0,286.0 207.3,286.0 212.7,274.0 218.0,256.0 223.3,286.0 228.7,286.0 234.0,286.0 239.3,286.0 244.7,286.0 250.0,286.0 255.3,286.0 260.7,286.0 266.0,286.0 271.3,286.0 276.7,286.0 282.0,286.0 287.3,286.0 292.7,286.0 298.0,280.0 303.3,286.0 308.7,286.0 314.0,286.0 319.3,286.0 324.7,286.0 330.0,286.0 335.3,286.0 340.7,286.0 346.0,286.0 351.3,286.0 356.7,286.0 362.0,286.0 367.3,286.0 372.7,280.0 378.0,286.0 383.3,286.0 388.7,286.0 394.0,286.0 399.3,286.0 404.7,286.0 410.0,286.0 415.3,286.0 420.7,286.0 426.0,286.0 431.3,286.0 436.7,286.0 442.0,274.0 447.3,274.0 452.7,274.0 458.0,274.0 463.3,274.0 468.7,274.0 474.0,274.0 479.3,274.0 484.7,274.0 490.0,274.0 495.3,274.0 500.7,274.0 506.0,274.0 511.3,274.0 516.7,274.0 522.0,274.0 527.3,274.0 532.7,274.0 538.0,274.0 543.3,274.0 548.7,274.0 554.0,274.0 559.3,274.0 564.7,274.0 570.0,274.0 575.3,274.0 580.7,274.0 586.0,274.0 591.3,274.0 596.7,274.0 602.0,274.0 607.3,274.0 612.7,274.0 618.0,274.0 623.3,274.0 628.7,274.0 634.0,274.0 639.3,274.0 644.7,274.0 650.0,274.0 655.3,274.0 660.7,274.0 666.0,274.0 671.3,274.0 676.7,274.0 682.0,274.0 687.3,274.0 692.7,274.0 698.0,274.0 703.3,274.0 708.7,274.0 714.0,274.0 719.3,274.0 724.7,274.0 730.0,274.0 735.3,274.0 740.7,274.0 746.0,274.0 751.3,274.0 756.7,274.0 762.0,274.0 767.3,274.0 772.7,274.0 778.0,274.0 783.3,274.0 788.7,274.0 794.0,274.0 799.3,274.0 804.7,274.0 810.0,274.0 815.3,274.0 820.7,274.0 826.0,274.0 831.3,274.0 836.7,274.0 842.0,274.0 847.3,268.0 852.7,274.0 858.0,274.0 863.3,274.0 868.7,274.0 874.0,274.0 879.3,274.0 884.7,274.0 890.0,274.0 895.3,274.0 900.7,274.0 906.0,268.0 911.3,274.0 916.7,274.0 922.0,274.0 927.3,274.0 932.7,274.0 938.0,274.0"/><polyline fill="none" stroke="#a855f7" stroke-width="2.5" stroke-linejoin="round" stroke-linecap="round" points="42.0,286.0 47.3,286.0 52.7,286.0 58.0,286.0 63.3,286.0 68.7,286.0 74.0,286.0 79.3,286.0 84.7,286.0 90.0,286.0 95.3,286.0 100.7,286.0 106.0,286.0 111.3,286.0 116.7,286.0 122.0,286.0 127.3,286.0 132.7,286.0 138.0,286.0 143.3,286.0 148.7,286.0 154.0,286.0 159.3,286.0 164.7,286.0 170.0,286.0 175.3,286.0 180.7,286.0 186.0,286.0 191.3,286.0 196.7,286.0 202.0,286.0 207.3,286.0 212.7,286.0 218.0,286.0 223.3,286.0 228.7,286.0 234.0,286.0 239.3,286.0 244.7,286.0 250.0,286.0 255.3,286.0 260.7,286.0 266.0,286.0 271.3,286.0 276.7,286.0 282.0,286.0 287.3,286.0 292.7,286.0 298.0,286.0 303.3,286.0 308.7,286.0 314.0,286.0 319.3,286.0 324.7,286.0 330.0,286.0 335.3,286.0 340.7,286.0 346.0,286.0 351.3,286.0 356.7,286.0 362.0,286.0 367.3,286.0 372.7,286.0 378.0,286.0 383.3,286.0 388.7,286.0 394.0,286.0 399.3,286.0 404.7,286.0 410.0,286.0 415.3,280.0 420.7,286.0 426.0,286.0 431.3,286.0 436.7,286.0 442.0,286.0 447.3,286.0 452.7,286.0 458.0,286.0 463.3,286.0 468.7,286.0 474.0,286.0 479.3,286.0 484.7,286.0 490.0,286.0 495.3,286.0 500.7,286.0 506.0,286.0 511.3,286.0 516.7,286.0 522.0,286.0 527.3,286.0 532.7,286.0 538.0,286.0 543.3,286.0 548.7,286.0 554.0,286.0 559.3,286.0 564.7,286.0 570.0,286.0 575.3,286.0 580.7,286.0 586.0,286.0 591.3,286.0 596.7,286.0 602.0,286.0 607.3,286.0 612.7,286.0 618.0,286.0 623.3,286.0 628.7,286.0 634.0,286.0 639.3,286.0 644.7,286.0 650.0,286.0 655.3,286.0 660.7,286.0 666.0,286.0 671.3,286.0 676.7,286.0 682.0,286.0 687.3,286.0 692.7,286.0 698.0,286.0 703.3,286.0 708.7,286.0 714.0,286.0 719.3,286.0 724.7,286.0 730.0,286.0 735.3,286.0 740.7,286.0 746.0,286.0 751.3,286.0 756.7,286.0 762.0,286.0 767.3,286.0 772.7,286.0 778.0,286.0 783.3,286.0 788.7,286.0 794.0,286.0 799.3,286.0 804.7,286.0 810.0,286.0 815.3,286.0 820.7,286.0 826.0,286.0 831.3,286.0 836.7,286.0 842.0,286.0 847.3,286.0 852.7,286.0 858.0,286.0 863.3,286.0 868.7,286.0 874.0,286.0 879.3,280.0 884.7,286.0 890.0,286.0 895.3,286.0 900.7,286.0 906.0,286.0 911.3,286.0 916.7,286.0 922.0,286.0 927.3,286.0 932.7,286.0 938.0,286.0"/><text x="42" y="308" font-size="11" fill="#5a688a">19/06 12:43</text><text x="938" y="308" text-anchor="end" font-size="11" fill="#5a688a">29/06 19:38</text></svg>