<svg xmlns="http://www.w3.org/2000/svg" viewBox="0 0 960 320" width="960" height="320" font-family="Segoe UI, system-ui, -apple-system, Roboto, Helvetica, Arial, sans-serif" role="img" aria-label="Availability history per region"><rect x="0.5" y="0.5" width="959" height="319" rx="14" fill="#ffffff" stroke="#dce3f1"/><text x="42" y="26" font-size="14" font-weight="600" fill="#14203a">History · 219 points</text><circle cx="47" cy="40" r="5" fill="#22c55e"/><text x="57" y="44" font-size="12" fill="#5a688a">Available</text><circle cx="139.8" cy="40" r="5" fill="#f59e0b"/><text x="149.8" y="44" font-size="12" fill="#5a688a">Saturated</text><circle cx="232.60000000000002" cy="40" r="5" fill="#ef4444"/><text x="242.60000000000002" y="44" font-size="12" fill="#5a688a">Error</text><circle cx="296.6" cy="40" r="5" fill="#a855f7"/><text x="306.6" y="44" font-size="12" fill="#5a688a">Timeout</text><line x1="42" y1="286.0" x2="938" y2="286.0" stroke="#eef2f7" stroke-width="1"/><text x="35" y="289.0" text-anchor="end" font-size="11" fill="#5a688a">0</text><line x1="42" y1="227.5" x2="938" y2="227.5" stroke="#eef2f7" stroke-width="1"/><text x="35" y="230.5" text-anchor="end" font-size="11" fill="#5a688a">10</text><line x1="42" y1="169.0" x2="938" y2="169.0" stroke="#eef2f7" stroke-width="1"/><text x="35" y="172.0" text-anchor="end" font-size="11" fill="#5a688a">20</text><line x1="42" y1="110.5" x2="938" y2="110.5" stroke="#eef2f7" stroke-width="1"/><text x="35" y="113.5" text-anchor="end" font-size="11" fill="#5a688a">29</text><line x1="42" y1="52.0" x2="938" y2="52.0" stroke="#eef2f7" stroke-width="1"/><text x="35" y="55.0" text-anchor="end" font-size="11" fill="#5a688a">39</text><polyline fill="none" stroke="#22c55e" stroke-width="2.5" stroke-linejoin="round" stroke-linecap="round" points="42.0,70.0 46.1,70.0 50.2,88.0 54.3,88.0 58.4,76.0 62.6,76.0 66.7,76.0 70.8,70.0 74.9,76.0 79.0,70.0 83.1,64.0 87.2,58.0 91.3,58.0 95.4,58.0 99.5,58.0 103.7,58.0 107.8,58.0 111.9,58.0 116.0,58.0 120.1,58.0 124.2,58.0 128.3,58.0 132.4,58.0 136.5,58.0 140.6,58.0 144.8,58.0 148.9,58.0 153.0,58.0 157.1,58.0 161.2,58.0 165.3,58.0 169.4,70.0 173.5,76.0 177.6,94.0 181.7,64.0 185.9,64.0 190.0,58.0 194.1,58.0 198.2,58.0 202.3,70.0 206.4,76.0 210.5,76.0 214.6,82.0 218.7,82.0 222.8,82.0 227.0,82.0 231.1,76.0 235.2,64.0 239.3,70.0 243.4,70.0 247.5,82.0 251.6,76.0 255.7,76.0 259.8,82.0 263.9,76.0 268.1,76.0 272.2,76.0 276.3,64.0 280.4,64.0 284.5,76.0 288.6,76.0 292.7,76.0 296.8,88.0 300.9,70.0 305.0,64.0 309.2,58.0 313.3,58.0 317.4,70.0 321.5,70.0 325.6,70.0 329.7,76.0 333.8,70.0 337.9,70.0 342.0,70.0 346.1,70.0 350.3,76.0 354.4,82.0 358.5,76.0 362.6,70.0 366.7,70.0 370.8,70.0 374.9,70.0 379.0,76.0 383.1,70.0 387.2,70.0 391.4,70.0 395.5,70.0 399.6,70.0 403.7,70.0 407.8,70.0 411.9,70.0 416.0,70.0 420.1,70.0 424.2,70.0 428.3,70.0 432.5,70.0 436.6,70.0 440.7,70.0 444.8,70.0 448.9,70.0 453.0,70.0 457.1,70.0 461.2,70.0 465.3,70.0 469.4,70.0 473.6,70.0 477.7,70.0 481.8,70.0 485.9,70.0 490.0,70.0 494.1,70.0 498.2,70.0 502.3,70.0 506.4,70.0 510.6,70.0 514.7,70.0 518.8,70.0 522.9,70.0 527.0,70.0 531.1,70.0 535.2,70.0 539.3,70.0 543.4,70.0 547.5,70.0 551.7,70.0 555.8,70.0 559.9,70.0 564.0,70.0 568.1,70.0 572.2,70.0 576.3,70.0 580.4,70.0 584.5,70.0 588.6,70.0 592.8,70.0 596.9,70.0 601.0,70.0 605.1,70.0 609.2,70.0 613.3,70.0 617.4,70.0 621.5,70.0 625.6,70.0 629.7,70.0 633.9,70.0 638.0,70.0 642.1,70.0 646.2,70.0 650.3,70.0 654.4,70.0 658.5,70.0 662.6,76.0 666.7,70.0 670.8,70.0 675.0,70.0 679.1,70.0 683.2,70.0 687.3,76.0 691.4,76.0 695.5,88.0 699.6,88.0 703.7,88.0 707.8,94.0 711.9,94.0 716.1,94.0 720.2,94.0 724.3,88.0 728.4,88.0 732.5,82.0 736.6,82.0 740.7,82.0 744.8,88.0 748.9,88.0 753.0,94.0 757.2,82.0 761.3,82.0 765.4,82.0 769.5,82.0 773.6,88.0 777.7,88.0 781.8,94.0 785.9,94.0 790.0,88.0 794.1,88.0 798.3,88.0 802.4,94.0 806.5,94.0 810.6,106.0 814.7,94.0 818.8,94.0 822.9,94.0 827.0,94.0 831.1,88.0 835.2,88.0 839.4,82.0 843.5,76.0 847.6,76.0 851.7,76.0 855.8,76.0 859.9,76.0 864.0,76.0 868.1,70.0 872.2,70.0 876.3,70.0 880.5,76.0 884.6,88.0 888.7,82.0 892.8,70.0 896.9,70.0 901.0,70.0 905.1,76.0 909.2,76.0 913.3,76.0 917.4,82.0 921.6,70.0 925.7,76.0 929.8,64.0 933.9,70.0 938.0,58.0"/><polyline fill="none" stroke="#f59e0b" stroke-width="2.5" stroke-linejoin="round" stroke-linecap="round" points="42.0,274.0 46.1,274.0 50.2,274.0 54.3,280.0 58.4,268.0 62.6,268.0 66.7,268.0 70.8,274.0 74.9,274.0 79.0,274.0 83.1,280.0 87.2,286.0 91.3,286.0 95.4,286.0 99.5,286.0 103.7,286.0 107.8,286.0 111.9,286.0 116.0,286.0 120.1,286.0 124.2,286.0 128.3,286.0 132.4,286.0 136.5,286.0 140.6,286.0 144.8,286.0 148.9,286.0 153.0,286.0 157.1,286.0 161.2,286.0 165.3,286.0 169.4,274.0 173.5,280.0 177.6,280.0 181.7,280.0 185.9,280.0 190.0,286.0 194.1,286.0 198.2,286.0 202.3,274.0 206.4,268.0 210.5,268.0 214.6,262.0 218.7,262.0 222.8,262.0 227.0,262.0 231.1,268.0 235.2,280.0 239.3,280.0 243.4,274.0 247.5,262.0 251.6,268.0 255.7,268.0 259.8,262.0 263.9,268.0 268.1,268.0 272.2,268.0 276.3,280.0 280.4,280.0 284.5,268.0 288.6,268.0 292.7,268.0 296.8,262.0 300.9,274.0 305.0,280.0 309.2,286.0 313.3,286.0 317.4,274.0 321.5,274.0 325.6,274.0 329.7,274.0 333.8,274.0 337.9,274.0 342.0,274.0 346.1,274.0 350.3,280.0 354.4,274.0 358.5,280.0 362.6,286.0 366.7,286.0 370.8,286.0 374.9,286.0 379.0,280.0 383.1,286.0 387.2,286.0 391.4,286.0 395.5,286.0 399.6,286.0 403.7,286.0 407.8,286.0 411.9,286.0 416.0,286.0 420.1,286.0 424.2,286.0 428.3,286.0 432.5,286.0 436.6,286.0 440.7,286.0 444.8,286.0 448.9,286.0 453.0,286.0 457.1,286.0 461.2,286.0 465.3,286.0 469.4,286.0 473.6,286.0 477.7,286.0 481.8,286.0 485.9,286.0 490.0,286.0 494.1,286.0 498.2,286.0 502.3,286.0 506.4,286.0 510.6,286.0 514.7,286.0 518.8,286.0 522.9,286.0 527.0,286.0 531.1,286.0 535.2,286.0 539.3,286.0 543.4,286.0 547.5,286.0 551.7,286.0 555.8,286.0 559.9,286.0 564.0,286.0 568.1,286.0 572.2,286.0 576.3,286.0 580.4,286.0 584.5,286.0 588.6,286.0 592.8,286.0 596.9,286.0 601.0,286.0 605.1,286.0 609.2,286.0 613.3,286.0 617.4,286.0 621.5,286.0 625.6,286.0 629.7,286.0 633.9,286.0 638.0,286.0 642.1,286.0 646.2,286.0 650.3,286.0 654.4,286.0 658.5,286.0 662.6,286.0 666.7,286.0 670.8,286.0 675.0,286.0 679.1,286.0 683.2,286.0 687.3,286.0 691.4,280.0 695.5,268.0 699.6,268.0 703.7,268.0 707.8,268.0 711.9,262.0 716.1,262.0 720.2,262.0 724.3,268.0 728.4,268.0 732.5,274.0 736.6,274.0 740.7,274.0 744.8,268.0 748.9,268.0 753.0,268.0 757.2,274.0 761.3,274.0 765.4,274.0 769.5,274.0 773.6,268.0 777.7,268.0 781.8,262.0 785.9,262.0 790.0,268.0 794.1,268.0 798.3,268.0 802.4,262.0 806.5,262.0 810.6,274.0 814.7,262.0 818.8,262.0 822.9,262.0 827.0,262.0 831.1,268.0 835.2,268.0 839.4,274.0 843.5,280.0 847.6,280.0 851.7,280.0 855.8,280.0 859.9,280.0 864.0,280.0 868.1,286.0 872.2,286.0 876.3,286.0 880.5,280.0 884.6,274.0 888.7,274.0 892.8,280.0 896.9,274.0 901.0,274.0 905.1,268.0 909.2,268.0 913.3,268.0 917.4,268.0 921.6,280.0 925.7,274.0 929.8,280.0 933.9,280.0 938.0,286.0"/><polyline fill="none" stroke="#ef4444" stroke-width="2.5" stroke-linejoin="round" stroke-linecap="round" points="42.0,280.0 46.1,280.0 50.2,268.0 54.3,262.0 58.4,286.0 62.6,286.0 66.7,286.0 70.8,286.0 74.9,280.0 79.0,286.0 83.1,286.0 87.2,286.0 91.3,286.0 95.4,286.0 99.5,286.0 103.7,286.0 107.8,286.0 111.9,286.0 116.0,286.0 120.1,286.0 124.2,286.0 128.3,286.0 132.4,286.0 136.5,286.0 140.6,286.0 144.8,286.0 148.9,286.0 153.0,286.0 157.1,286.0 161.2,286.0 165.3,286.0 169.4,286.0 173.5,274.0 177.6,256.0 181.7,286.0 185.9,286.0 190.0,286.0 194.1,286.0 198.2,286.0 202.3,286.0 206.4,286.0 210.5,286.0 214.6,286.0 218.7,286.0 222.8,286.0 227.0,286.0 231.1,286.0 235.2,286.0 239.3,280.0 243.4,286.0 247.5,286.0 251.6,286.0 255.7,286.0 259.8,286.0 263.9,286.0 268.1,286.0 272.2,286.0 276.3,286.0 280.4,286.0 284.5,286.0 288.6,286.0 292.7,286.0 296.8,280.0 300.9,286.0 305.0,286.0 309.2,286.0 313.3,286.0 317.4,286.0 321.5,286.0 325.6,286.0 329.7,286.0 333.8,286.0 337.9,286.0 342.0,286.0 346.1,286.0 350.3,274.0 354.4,274.0 358.5,274.0 362.6,274.0 366.7,274.0 370.8,274.0 374.9,274.0 379.0,274.0 383.1,274.0 387.2,274.0 391.4,274.0 395.5,274.0 399.6,274.0 403.7,274.0 407.8,274.0 411.9,274.0 416.0,274.0 420.1,274.0 424.2,274.0 428.3,274.0 432.5,274.0 436.6,274.0 440.7,274.0 444.8,274.0 448.9,274.0 453.0,274.0 457.1,274.0 461.2,274.0 465.3,274.0 469.4,274.0 473.6,274.0 477.7,274.0 481.8,274.0 485.9,274.0 490.0,274.0 494.1,274.0 498.2,274.0 502.3,274.0 506.4,274.0 510.6,274.0 514.7,274.0 518.8,274.0 522.9,274.0 527.0,274.0 531.1,274.0 535.2,274.0 539.3,274.0 543.4,274.0 547.5,274.0 551.7,274.0 555.8,274.0 559.9,274.0 564.0,274.0 568.1,274.0 572.2,274.0 576.3,274.0 580.4,274.0 584.5,274.0 588.6,274.0 592.8,274.0 596.9,274.0 601.0,274.0 605.1,274.0 609.2,274.0 613.3,274.0 617.4,274.0 621.5,274.0 625.6,274.0 629.7,274.0 633.9,274.0 638.0,274.0 642.1,274.0 646.2,274.0 650.3,274.0 654.4,274.0 658.5,274.0 662.6,268.0 666.7,274.0 670.8,274.0 675.0,274.0 679.1,274.0 683.2,274.0 687.3,274.0 691.4,274.0 695.5,274.0 699.6,274.0 703.7,274.0 707.8,268.0 711.9,274.0 716.1,274.0 720.2,274.0 724.3,274.0 728.4,274.0 732.5,274.0 736.6,274.0 740.7,274.0 744.8,274.0 748.9,274.0 753.0,268.0 757.2,274.0 761.3,274.0 765.4,274.0 769.5,274.0 773.6,274.0 777.7,274.0 781.8,274.0 785.9,274.0 790.0,274.0 794.1,274.0 798.3,274.0 802.4,274.0 806.5,274.0 810.6,250.0 814.7,274.0 818.8,274.0 822.9,274.0 827.0,274.0 831.1,274.0 835.2,274.0 839.4,274.0 843.5,274.0 847.6,274.0 851.7,274.0 855.8,274.0 859.9,274.0 864.0,274.0 868.1,274.0 872.2,274.0 876.3,274.0 880.5,274.0 884.6,268.0 888.7,274.0 892.8,280.0 896.9,286.0 901.0,286.0 905.1,286.0 909.2,286.0 913.3,286.0 917.4,280.0 921.6,280.0 925.7,286.0 929.8,286.0 933.9,280.0 938.0,286.0"/><polyline fill="none" stroke="#a855f7" stroke-width="2.5" stroke-linejoin="round" stroke-linecap="round" points="42.0,286.0 46.1,286.0 50.2,286.0 54.3,286.0 58.4,286.0 62.6,286.0 66.7,286.0 70.8,286.0 74.9,286.0 79.0,286.0 83.1,286.0 87.2,286.0 91.3,286.0 95.4,286.0 99.5,286.0 103.7,286.0 107.8,286.0 111.9,286.0 116.0,286.0 120.1,286.0 124.2,286.0 128.3,286.0 132.4,286.0 136.5,286.0 140.6,286.0 144.8,286.0 148.9,286.0 153.0,286.0 157.1,286.0 161.2,286.0 165.3,286.0 169.4,286.0 173.5,286.0 177.6,286.0 181.7,286.0 185.9,286.0 190.0,286.0 194.1,286.0 198.2,286.0 202.3,286.0 206.4,286.0 210.5,286.0 214.6,286.0 218.7,286.0 222.8,286.0 227.0,286.0 231.1,286.0 235.2,286.0 239.3,286.0 243.4,286.0 247.5,286.0 251.6,286.0 255.7,286.0 259.8,286.0 263.9,286.0 268.1,286.0 272.2,286.0 276.3,286.0 280.4,286.0 284.5,286.0 288.6,286.0 292.7,286.0 296.8,286.0 300.9,286.0 305.0,286.0 309.2,286.0 313.3,286.0 317.4,286.0 321.5,286.0 325.6,286.0 329.7,280.0 333.8,286.0 337.9,286.0 342.0,286.0 346.1,286.0 350.3,286.0 354.4,286.0 358.5,286.0 362.6,286.0 366.7,286.0 370.8,286.0 374.9,286.0 379.0,286.0 383.1,286.0 387.2,286.0 391.4,286.0 395.5,286.0 399.6,286.0 403.7,286.0 407.8,286.0 411.9,286.0 416.0,286.0 420.1,286.0 424.2,286.0 428.3,286.0 432.5,286.0 436.6,286.0 440.7,286.0 444.8,286.0 448.9,286.0 453.0,286.0 457.1,286.0 461.2,286.0 465.3,286.0 469.4,286.0 473.6,286.0 477.7,286.0 481.8,286.0 485.9,286.0 490.0,286.0 494.1,286.0 498.2,286.0 502.3,286.0 506.4,286.0 510.6,286.0 514.7,286.0 518.8,286.0 522.9,286.0 527.0,286.0 531.1,286.0 535.2,286.0 539.3,286.0 543.4,286.0 547.5,286.0 551.7,286.0 555.8,286.0 559.9,286.0 564.0,286.0 568.1,286.0 572.2,286.0 576.3,286.0 580.4,286.0 584.5,286.0 588.6,286.0 592.8,286.0 596.9,286.0 601.0,286.0 605.1,286.0 609.2,286.0 613.3,286.0 617.4,286.0 621.5,286.0 625.6,286.0 629.7,286.0 633.9,286.0 638.0,286.0 642.1,286.0 646.2,286.0 650.3,286.0 654.4,286.0 658.5,286.0 662.6,286.0 666.7,286.0 670.8,286.0 675.0,286.0 679.1,286.0 683.2,286.0 687.3,280.0 691.4,286.0 695.5,286.0 699.6,286.0 703.7,286.0 707.8,286.0 711.9,286.0 716.1,286.0 720.2,286.0 724.3,286.0 728.4,286.0 732.5,286.0 736.6,286.0 740.7,286.0 744.8,286.0 748.9,286.0 753.0,286.0 757.2,286.0 761.3,286.0 765.4,286.0 769.5,286.0 773.6,286.0 777.7,286.0 781.8,286.0 785.9,286.0 790.0,286.0 794.1,286.0 798.3,286.0 802.4,286.0 806.5,286.0 810.6,286.0 814.7,286.0 818.8,286.0 822.9,286.0 827.0,286.0 831.1,286.0 835.2,286.0 839.4,286.0 843.5,286.0 847.6,286.0 851.7,286.0 855.8,286.0 859.9,286.0 864.0,286.0 868.1,286.0 872.2,286.0 876.3,286.0 880.5,286.0 884.6,286.0 888.7,286.0 892.8,286.0 896.9,286.0 901.0,286.0 905.1,286.0 909.2,286.0 913.3,286.0 917.4,286.0 921.6,286.0 925.7,280.0 929.8,286.0 933.9,286.0 938.0,286.0"/><text x="42" y="308" font-size="11" fill="#5a688a">19/06 12:43</text><text x="938" y="308" text-anchor="end" font-size="11" fill="#5a688a">01/07 21:32</text></svg>