<svg xmlns="http://www.w3.org/2000/svg" viewBox="0 0 960 320" width="960" height="320" font-family="Segoe UI, system-ui, -apple-system, Roboto, Helvetica, Arial, sans-serif" role="img" aria-label="Availability history per region"><rect x="0.5" y="0.5" width="959" height="319" rx="14" fill="#0d1117" stroke="#2c3a5e"/><text x="42" y="26" font-size="14" font-weight="600" fill="#e6ecff">History · 133 points</text><circle cx="47" cy="40" r="5" fill="#22c55e"/><text x="57" y="44" font-size="12" fill="#9fb0d4">Available</text><circle cx="139.8" cy="40" r="5" fill="#f59e0b"/><text x="149.8" y="44" font-size="12" fill="#9fb0d4">Saturated</text><circle cx="232.60000000000002" cy="40" r="5" fill="#ef4444"/><text x="242.60000000000002" y="44" font-size="12" fill="#9fb0d4">Error</text><circle cx="296.6" cy="40" r="5" fill="#a855f7"/><text x="306.6" y="44" font-size="12" fill="#9fb0d4">Timeout</text><line x1="42" y1="286.0" x2="938" y2="286.0" stroke="#21304f" stroke-width="1"/><text x="35" y="289.0" text-anchor="end" font-size="11" fill="#9fb0d4">0</text><line x1="42" y1="227.5" x2="938" y2="227.5" stroke="#21304f" stroke-width="1"/><text x="35" y="230.5" text-anchor="end" font-size="11" fill="#9fb0d4">10</text><line x1="42" y1="169.0" x2="938" y2="169.0" stroke="#21304f" stroke-width="1"/><text x="35" y="172.0" text-anchor="end" font-size="11" fill="#9fb0d4">19</text><line x1="42" y1="110.5" x2="938" y2="110.5" stroke="#21304f" stroke-width="1"/><text x="35" y="113.5" text-anchor="end" font-size="11" fill="#9fb0d4">28</text><line x1="42" y1="52.0" x2="938" y2="52.0" stroke="#21304f" stroke-width="1"/><text x="35" y="55.0" text-anchor="end" font-size="11" fill="#9fb0d4">38</text><polyline fill="none" stroke="#22c55e" stroke-width="2.5" stroke-linejoin="round" stroke-linecap="round" points="42.0,64.3 48.8,224.4 55.6,82.8 62.4,88.9 69.2,82.8 75.9,76.6 82.7,76.6 89.5,76.6 96.3,76.6 103.1,76.6 109.9,76.6 116.7,76.6 123.5,76.6 130.2,76.6 137.0,76.6 143.8,70.5 150.6,70.5 157.4,82.8 164.2,82.8 171.0,82.8 177.8,88.9 184.5,88.9 191.3,88.9 198.1,88.9 204.9,88.9 211.7,88.9 218.5,88.9 225.3,88.9 232.1,88.9 238.8,82.8 245.6,82.8 252.4,82.8 259.2,82.8 266.0,76.6 272.8,76.6 279.6,76.6 286.4,76.6 293.2,76.6 299.9,82.8 306.7,82.8 313.5,82.8 320.3,82.8 327.1,76.6 333.9,76.6 340.7,76.6 347.5,76.6 354.2,76.6 361.0,76.6 367.8,76.6 374.6,82.8 381.4,82.8 388.2,82.8 395.0,82.8 401.8,76.6 408.5,76.6 415.3,76.6 422.1,76.6 428.9,76.6 435.7,76.6 442.5,76.6 449.3,76.6 456.1,82.8 462.8,76.6 469.6,76.6 476.4,76.6 483.2,76.6 490.0,76.6 496.8,82.8 503.6,76.6 510.4,76.6 517.2,76.6 523.9,76.6 530.7,76.6 537.5,76.6 544.3,76.6 551.1,76.6 557.9,76.6 564.7,70.5 571.5,70.5 578.2,70.5 585.0,70.5 591.8,76.6 598.6,70.5 605.4,76.6 612.2,76.6 619.0,76.6 625.8,76.6 632.5,76.6 639.3,76.6 646.1,82.8 652.9,88.9 659.7,88.9 666.5,88.9 673.3,88.9 680.1,88.9 686.8,88.9 693.6,88.9 700.4,95.1 707.2,88.9 714.0,88.9 720.8,88.9 727.6,88.9 734.4,88.9 741.2,88.9 747.9,82.8 754.7,82.8 761.5,82.8 768.3,82.8 775.1,82.8 781.9,82.8 788.7,82.8 795.5,82.8 802.2,88.9 809.0,88.9 815.8,88.9 822.6,88.9 829.4,88.9 836.2,88.9 843.0,88.9 849.8,88.9 856.5,95.1 863.3,88.9 870.1,88.9 876.9,88.9 883.7,101.3 890.5,88.9 897.3,88.9 904.1,88.9 910.8,88.9 917.6,82.8 924.4,82.8 931.2,82.8 938.0,82.8"/><polyline fill="none" stroke="#f59e0b" stroke-width="2.5" stroke-linejoin="round" stroke-linecap="round" points="42.0,273.7 48.8,267.5 55.6,255.2 62.4,249.1 69.2,255.2 75.9,261.4 82.7,261.4 89.5,261.4 96.3,261.4 103.1,261.4 109.9,261.4 116.7,261.4 123.5,261.4 130.2,261.4 137.0,261.4 143.8,267.5 150.6,267.5 157.4,261.4 164.2,255.2 171.0,255.2 177.8,249.1 184.5,249.1 191.3,249.1 198.1,249.1 204.9,249.1 211.7,249.1 218.5,249.1 225.3,249.1 232.1,249.1 238.8,255.2 245.6,255.2 252.4,255.2 259.2,255.2 266.0,261.4 272.8,261.4 279.6,261.4 286.4,261.4 293.2,261.4 299.9,255.2 306.7,255.2 313.5,255.2 320.3,255.2 327.1,261.4 333.9,261.4 340.7,261.4 347.5,261.4 354.2,261.4 361.0,261.4 367.8,261.4 374.6,255.2 381.4,255.2 388.2,255.2 395.0,261.4 401.8,261.4 408.5,261.4 415.3,261.4 422.1,261.4 428.9,261.4 435.7,261.4 442.5,261.4 449.3,261.4 456.1,255.2 462.8,261.4 469.6,261.4 476.4,261.4 483.2,261.4 490.0,261.4 496.8,261.4 503.6,261.4 510.4,261.4 517.2,261.4 523.9,261.4 530.7,261.4 537.5,261.4 544.3,261.4 551.1,261.4 557.9,261.4 564.7,267.5 571.5,267.5 578.2,267.5 585.0,267.5 591.8,267.5 598.6,267.5 605.4,261.4 612.2,261.4 619.0,261.4 625.8,261.4 632.5,261.4 639.3,261.4 646.1,255.2 652.9,249.1 659.7,249.1 666.5,255.2 673.3,249.1 680.1,249.1 686.8,249.1 693.6,249.1 700.4,249.1 707.2,249.1 714.0,255.2 720.8,249.1 727.6,249.1 734.4,249.1 741.2,249.1 747.9,255.2 754.7,255.2 761.5,255.2 768.3,255.2 775.1,255.2 781.9,255.2 788.7,255.2 795.5,255.2 802.2,249.1 809.0,249.1 815.8,249.1 822.6,249.1 829.4,249.1 836.2,249.1 843.0,249.1 849.8,255.2 856.5,249.1 863.3,249.1 870.1,249.1 876.9,249.1 883.7,249.1 890.5,249.1 897.3,249.1 904.1,255.2 910.8,255.2 917.6,255.2 924.4,255.2 931.2,255.2 938.0,255.2"/><polyline fill="none" stroke="#ef4444" stroke-width="2.5" stroke-linejoin="round" stroke-linecap="round" points="42.0,286.0 48.8,132.1 55.6,286.0 62.4,286.0 69.2,286.0 75.9,286.0 82.7,286.0 89.5,286.0 96.3,286.0 103.1,286.0 109.9,286.0 116.7,286.0 123.5,286.0 130.2,286.0 137.0,286.0 143.8,286.0 150.6,286.0 157.4,279.8 164.2,286.0 171.0,286.0 177.8,286.0 184.5,286.0 191.3,286.0 198.1,286.0 204.9,286.0 211.7,286.0 218.5,286.0 225.3,286.0 232.1,286.0 238.8,286.0 245.6,286.0 252.4,286.0 259.2,286.0 266.0,286.0 272.8,286.0 279.6,286.0 286.4,286.0 293.2,286.0 299.9,286.0 306.7,286.0 313.5,286.0 320.3,286.0 327.1,286.0 333.9,286.0 340.7,286.0 347.5,286.0 354.2,286.0 361.0,286.0 367.8,286.0 374.6,286.0 381.4,286.0 388.2,286.0 395.0,286.0 401.8,286.0 408.5,286.0 415.3,286.0 422.1,286.0 428.9,286.0 435.7,286.0 442.5,286.0 449.3,286.0 456.1,286.0 462.8,286.0 469.6,286.0 476.4,286.0 483.2,286.0 490.0,286.0 496.8,279.8 503.6,286.0 510.4,286.0 517.2,286.0 523.9,286.0 530.7,286.0 537.5,286.0 544.3,286.0 551.1,286.0 557.9,286.0 564.7,286.0 571.5,286.0 578.2,286.0 585.0,286.0 591.8,279.8 598.6,286.0 605.4,286.0 612.2,286.0 619.0,286.0 625.8,286.0 632.5,286.0 639.3,286.0 646.1,286.0 652.9,286.0 659.7,286.0 666.5,279.8 673.3,286.0 680.1,286.0 686.8,286.0 693.6,286.0 700.4,279.8 707.2,286.0 714.0,286.0 720.8,286.0 727.6,286.0 734.4,286.0 741.2,286.0 747.9,286.0 754.7,286.0 761.5,286.0 768.3,286.0 775.1,286.0 781.9,286.0 788.7,286.0 795.5,286.0 802.2,286.0 809.0,286.0 815.8,286.0 822.6,286.0 829.4,286.0 836.2,286.0 843.0,286.0 849.8,286.0 856.5,279.8 863.3,286.0 870.1,286.0 876.9,286.0 883.7,273.7 890.5,286.0 897.3,286.0 904.1,279.8 910.8,279.8 917.6,286.0 924.4,286.0 931.2,286.0 938.0,286.0"/><polyline fill="none" stroke="#a855f7" stroke-width="2.5" stroke-linejoin="round" stroke-linecap="round" points="42.0,286.0 48.8,286.0 55.6,286.0 62.4,286.0 69.2,286.0 75.9,286.0 82.7,286.0 89.5,286.0 96.3,286.0 103.1,286.0 109.9,286.0 116.7,286.0 123.5,286.0 130.2,286.0 137.0,286.0 143.8,286.0 150.6,286.0 157.4,286.0 164.2,286.0 171.0,286.0 177.8,286.0 184.5,286.0 191.3,286.0 198.1,286.0 204.9,286.0 211.7,286.0 218.5,286.0 225.3,286.0 232.1,286.0 238.8,286.0 245.6,286.0 252.4,286.0 259.2,286.0 266.0,286.0 272.8,286.0 279.6,286.0 286.4,286.0 293.2,286.0 299.9,286.0 306.7,286.0 313.5,286.0 320.3,286.0 327.1,286.0 333.9,286.0 340.7,286.0 347.5,286.0 354.2,286.0 361.0,286.0 367.8,286.0 374.6,286.0 381.4,286.0 388.2,286.0 395.0,279.8 401.8,286.0 408.5,286.0 415.3,286.0 422.1,286.0 428.9,286.0 435.7,286.0 442.5,286.0 449.3,286.0 456.1,286.0 462.8,286.0 469.6,286.0 476.4,286.0 483.2,286.0 490.0,286.0 496.8,286.0 503.6,286.0 510.4,286.0 517.2,286.0 523.9,286.0 530.7,286.0 537.5,286.0 544.3,286.0 551.1,286.0 557.9,286.0 564.7,286.0 571.5,286.0 578.2,286.0 585.0,286.0 591.8,286.0 598.6,286.0 605.4,286.0 612.2,286.0 619.0,286.0 625.8,286.0 632.5,286.0 639.3,286.0 646.1,286.0 652.9,286.0 659.7,286.0 666.5,286.0 673.3,286.0 680.1,286.0 686.8,286.0 693.6,286.0 700.4,286.0 707.2,286.0 714.0,279.8 720.8,286.0 727.6,286.0 734.4,286.0 741.2,286.0 747.9,286.0 754.7,286.0 761.5,286.0 768.3,286.0 775.1,286.0 781.9,286.0 788.7,286.0 795.5,286.0 802.2,286.0 809.0,286.0 815.8,286.0 822.6,286.0 829.4,286.0 836.2,286.0 843.0,286.0 849.8,279.8 856.5,286.0 863.3,286.0 870.1,286.0 876.9,286.0 883.7,286.0 890.5,286.0 897.3,286.0 904.1,286.0 910.8,286.0 917.6,286.0 924.4,286.0 931.2,286.0 938.0,286.0"/><text x="42" y="308" font-size="11" fill="#9fb0d4">19/06 15:39</text><text x="938" y="308" text-anchor="end" font-size="11" fill="#9fb0d4">22/07 03:30</text></svg>