<svg xmlns="http://www.w3.org/2000/svg" viewBox="0 0 960 320" width="960" height="320" font-family="Segoe UI, system-ui, -apple-system, Roboto, Helvetica, Arial, sans-serif" role="img" aria-label="Availability history per region"><rect x="0.5" y="0.5" width="959" height="319" rx="14" fill="#ffffff" stroke="#dce3f1"/><text x="42" y="26" font-size="14" font-weight="600" fill="#14203a">History · 150 points</text><circle cx="47" cy="40" r="5" fill="#22c55e"/><text x="57" y="44" font-size="12" fill="#5a688a">Available</text><circle cx="139.8" cy="40" r="5" fill="#f59e0b"/><text x="149.8" y="44" font-size="12" fill="#5a688a">Saturated</text><circle cx="232.60000000000002" cy="40" r="5" fill="#ef4444"/><text x="242.60000000000002" y="44" font-size="12" fill="#5a688a">Error</text><circle cx="296.6" cy="40" r="5" fill="#a855f7"/><text x="306.6" y="44" font-size="12" fill="#5a688a">Timeout</text><line x1="42" y1="286.0" x2="938" y2="286.0" stroke="#eef2f7" stroke-width="1"/><text x="35" y="289.0" text-anchor="end" font-size="11" fill="#5a688a">0</text><line x1="42" y1="227.5" x2="938" y2="227.5" stroke="#eef2f7" stroke-width="1"/><text x="35" y="230.5" text-anchor="end" font-size="11" fill="#5a688a">10</text><line x1="42" y1="169.0" x2="938" y2="169.0" stroke="#eef2f7" stroke-width="1"/><text x="35" y="172.0" text-anchor="end" font-size="11" fill="#5a688a">20</text><line x1="42" y1="110.5" x2="938" y2="110.5" stroke="#eef2f7" stroke-width="1"/><text x="35" y="113.5" text-anchor="end" font-size="11" fill="#5a688a">29</text><line x1="42" y1="52.0" x2="938" y2="52.0" stroke="#eef2f7" stroke-width="1"/><text x="35" y="55.0" text-anchor="end" font-size="11" fill="#5a688a">39</text><polyline fill="none" stroke="#22c55e" stroke-width="2.5" stroke-linejoin="round" stroke-linecap="round" points="42.0,70.0 48.0,70.0 54.0,88.0 60.0,88.0 66.1,76.0 72.1,76.0 78.1,76.0 84.1,70.0 90.1,76.0 96.1,70.0 102.1,64.0 108.1,58.0 114.2,58.0 120.2,58.0 126.2,58.0 132.2,58.0 138.2,58.0 144.2,58.0 150.2,58.0 156.3,58.0 162.3,58.0 168.3,58.0 174.3,58.0 180.3,58.0 186.3,58.0 192.3,58.0 198.3,58.0 204.4,58.0 210.4,58.0 216.4,58.0 222.4,58.0 228.4,70.0 234.4,76.0 240.4,94.0 246.5,64.0 252.5,64.0 258.5,58.0 264.5,58.0 270.5,58.0 276.5,70.0 282.5,76.0 288.6,76.0 294.6,82.0 300.6,82.0 306.6,82.0 312.6,82.0 318.6,76.0 324.6,64.0 330.6,70.0 336.7,70.0 342.7,82.0 348.7,76.0 354.7,76.0 360.7,82.0 366.7,76.0 372.7,76.0 378.8,76.0 384.8,64.0 390.8,64.0 396.8,76.0 402.8,76.0 408.8,76.0 414.8,88.0 420.8,70.0 426.9,64.0 432.9,58.0 438.9,58.0 444.9,70.0 450.9,70.0 456.9,70.0 462.9,76.0 469.0,70.0 475.0,70.0 481.0,70.0 487.0,70.0 493.0,76.0 499.0,82.0 505.0,76.0 511.0,70.0 517.1,70.0 523.1,70.0 529.1,70.0 535.1,76.0 541.1,70.0 547.1,70.0 553.1,70.0 559.2,70.0 565.2,70.0 571.2,70.0 577.2,70.0 583.2,70.0 589.2,70.0 595.2,70.0 601.2,70.0 607.3,70.0 613.3,70.0 619.3,70.0 625.3,70.0 631.3,70.0 637.3,70.0 643.3,70.0 649.4,70.0 655.4,70.0 661.4,70.0 667.4,70.0 673.4,70.0 679.4,70.0 685.4,70.0 691.4,70.0 697.5,70.0 703.5,70.0 709.5,70.0 715.5,70.0 721.5,70.0 727.5,70.0 733.5,70.0 739.6,70.0 745.6,70.0 751.6,70.0 757.6,70.0 763.6,70.0 769.6,70.0 775.6,70.0 781.7,70.0 787.7,70.0 793.7,70.0 799.7,70.0 805.7,70.0 811.7,70.0 817.7,70.0 823.7,70.0 829.8,70.0 835.8,70.0 841.8,70.0 847.8,70.0 853.8,70.0 859.8,70.0 865.8,70.0 871.9,70.0 877.9,70.0 883.9,70.0 889.9,70.0 895.9,70.0 901.9,70.0 907.9,70.0 913.9,70.0 920.0,70.0 926.0,70.0 932.0,70.0 938.0,70.0"/><polyline fill="none" stroke="#f59e0b" stroke-width="2.5" stroke-linejoin="round" stroke-linecap="round" points="42.0,274.0 48.0,274.0 54.0,274.0 60.0,280.0 66.1,268.0 72.1,268.0 78.1,268.0 84.1,274.0 90.1,274.0 96.1,274.0 102.1,280.0 108.1,286.0 114.2,286.0 120.2,286.0 126.2,286.0 132.2,286.0 138.2,286.0 144.2,286.0 150.2,286.0 156.3,286.0 162.3,286.0 168.3,286.0 174.3,286.0 180.3,286.0 186.3,286.0 192.3,286.0 198.3,286.0 204.4,286.0 210.4,286.0 216.4,286.0 222.4,286.0 228.4,274.0 234.4,280.0 240.4,280.0 246.5,280.0 252.5,280.0 258.5,286.0 264.5,286.0 270.5,286.0 276.5,274.0 282.5,268.0 288.6,268.0 294.6,262.0 300.6,262.0 306.6,262.0 312.6,262.0 318.6,268.0 324.6,280.0 330.6,280.0 336.7,274.0 342.7,262.0 348.7,268.0 354.7,268.0 360.7,262.0 366.7,268.0 372.7,268.0 378.8,268.0 384.8,280.0 390.8,280.0 396.8,268.0 402.8,268.0 408.8,268.0 414.8,262.0 420.8,274.0 426.9,280.0 432.9,286.0 438.9,286.0 444.9,274.0 450.9,274.0 456.9,274.0 462.9,274.0 469.0,274.0 475.0,274.0 481.0,274.0 487.0,274.0 493.0,280.0 499.0,274.0 505.0,280.0 511.0,286.0 517.1,286.0 523.1,286.0 529.1,286.0 535.1,280.0 541.1,286.0 547.1,286.0 553.1,286.0 559.2,286.0 565.2,286.0 571.2,286.0 577.2,286.0 583.2,286.0 589.2,286.0 595.2,286.0 601.2,286.0 607.3,286.0 613.3,286.0 619.3,286.0 625.3,286.0 631.3,286.0 637.3,286.0 643.3,286.0 649.4,286.0 655.4,286.0 661.4,286.0 667.4,286.0 673.4,286.0 679.4,286.0 685.4,286.0 691.4,286.0 697.5,286.0 703.5,286.0 709.5,286.0 715.5,286.0 721.5,286.0 727.5,286.0 733.5,286.0 739.6,286.0 745.6,286.0 751.6,286.0 757.6,286.0 763.6,286.0 769.6,286.0 775.6,286.0 781.7,286.0 787.7,286.0 793.7,286.0 799.7,286.0 805.7,286.0 811.7,286.0 817.7,286.0 823.7,286.0 829.8,286.0 835.8,286.0 841.8,286.0 847.8,286.0 853.8,286.0 859.8,286.0 865.8,286.0 871.9,286.0 877.9,286.0 883.9,286.0 889.9,286.0 895.9,286.0 901.9,286.0 907.9,286.0 913.9,286.0 920.0,286.0 926.0,286.0 932.0,286.0 938.0,286.0"/><polyline fill="none" stroke="#ef4444" stroke-width="2.5" stroke-linejoin="round" stroke-linecap="round" points="42.0,280.0 48.0,280.0 54.0,268.0 60.0,262.0 66.1,286.0 72.1,286.0 78.1,286.0 84.1,286.0 90.1,280.0 96.1,286.0 102.1,286.0 108.1,286.0 114.2,286.0 120.2,286.0 126.2,286.0 132.2,286.0 138.2,286.0 144.2,286.0 150.2,286.0 156.3,286.0 162.3,286.0 168.3,286.0 174.3,286.0 180.3,286.0 186.3,286.0 192.3,286.0 198.3,286.0 204.4,286.0 210.4,286.0 216.4,286.0 222.4,286.0 228.4,286.0 234.4,274.0 240.4,256.0 246.5,286.0 252.5,286.0 258.5,286.0 264.5,286.0 270.5,286.0 276.5,286.0 282.5,286.0 288.6,286.0 294.6,286.0 300.6,286.0 306.6,286.0 312.6,286.0 318.6,286.0 324.6,286.0 330.6,280.0 336.7,286.0 342.7,286.0 348.7,286.0 354.7,286.0 360.7,286.0 366.7,286.0 372.7,286.0 378.8,286.0 384.8,286.0 390.8,286.0 396.8,286.0 402.8,286.0 408.8,286.0 414.8,280.0 420.8,286.0 426.9,286.0 432.9,286.0 438.9,286.0 444.9,286.0 450.9,286.0 456.9,286.0 462.9,286.0 469.0,286.0 475.0,286.0 481.0,286.0 487.0,286.0 493.0,274.0 499.0,274.0 505.0,274.0 511.0,274.0 517.1,274.0 523.1,274.0 529.1,274.0 535.1,274.0 541.1,274.0 547.1,274.0 553.1,274.0 559.2,274.0 565.2,274.0 571.2,274.0 577.2,274.0 583.2,274.0 589.2,274.0 595.2,274.0 601.2,274.0 607.3,274.0 613.3,274.0 619.3,274.0 625.3,274.0 631.3,274.0 637.3,274.0 643.3,274.0 649.4,274.0 655.4,274.0 661.4,274.0 667.4,274.0 673.4,274.0 679.4,274.0 685.4,274.0 691.4,274.0 697.5,274.0 703.5,274.0 709.5,274.0 715.5,274.0 721.5,274.0 727.5,274.0 733.5,274.0 739.6,274.0 745.6,274.0 751.6,274.0 757.6,274.0 763.6,274.0 769.6,274.0 775.6,274.0 781.7,274.0 787.7,274.0 793.7,274.0 799.7,274.0 805.7,274.0 811.7,274.0 817.7,274.0 823.7,274.0 829.8,274.0 835.8,274.0 841.8,274.0 847.8,274.0 853.8,274.0 859.8,274.0 865.8,274.0 871.9,274.0 877.9,274.0 883.9,274.0 889.9,274.0 895.9,274.0 901.9,274.0 907.9,274.0 913.9,274.0 920.0,274.0 926.0,274.0 932.0,274.0 938.0,274.0"/><polyline fill="none" stroke="#a855f7" stroke-width="2.5" stroke-linejoin="round" stroke-linecap="round" points="42.0,286.0 48.0,286.0 54.0,286.0 60.0,286.0 66.1,286.0 72.1,286.0 78.1,286.0 84.1,286.0 90.1,286.0 96.1,286.0 102.1,286.0 108.1,286.0 114.2,286.0 120.2,286.0 126.2,286.0 132.2,286.0 138.2,286.0 144.2,286.0 150.2,286.0 156.3,286.0 162.3,286.0 168.3,286.0 174.3,286.0 180.3,286.0 186.3,286.0 192.3,286.0 198.3,286.0 204.4,286.0 210.4,286.0 216.4,286.0 222.4,286.0 228.4,286.0 234.4,286.0 240.4,286.0 246.5,286.0 252.5,286.0 258.5,286.0 264.5,286.0 270.5,286.0 276.5,286.0 282.5,286.0 288.6,286.0 294.6,286.0 300.6,286.0 306.6,286.0 312.6,286.0 318.6,286.0 324.6,286.0 330.6,286.0 336.7,286.0 342.7,286.0 348.7,286.0 354.7,286.0 360.7,286.0 366.7,286.0 372.7,286.0 378.8,286.0 384.8,286.0 390.8,286.0 396.8,286.0 402.8,286.0 408.8,286.0 414.8,286.0 420.8,286.0 426.9,286.0 432.9,286.0 438.9,286.0 444.9,286.0 450.9,286.0 456.9,286.0 462.9,280.0 469.0,286.0 475.0,286.0 481.0,286.0 487.0,286.0 493.0,286.0 499.0,286.0 505.0,286.0 511.0,286.0 517.1,286.0 523.1,286.0 529.1,286.0 535.1,286.0 541.1,286.0 547.1,286.0 553.1,286.0 559.2,286.0 565.2,286.0 571.2,286.0 577.2,286.0 583.2,286.0 589.2,286.0 595.2,286.0 601.2,286.0 607.3,286.0 613.3,286.0 619.3,286.0 625.3,286.0 631.3,286.0 637.3,286.0 643.3,286.0 649.4,286.0 655.4,286.0 661.4,286.0 667.4,286.0 673.4,286.0 679.4,286.0 685.4,286.0 691.4,286.0 697.5,286.0 703.5,286.0 709.5,286.0 715.5,286.0 721.5,286.0 727.5,286.0 733.5,286.0 739.6,286.0 745.6,286.0 751.6,286.0 757.6,286.0 763.6,286.0 769.6,286.0 775.6,286.0 781.7,286.0 787.7,286.0 793.7,286.0 799.7,286.0 805.7,286.0 811.7,286.0 817.7,286.0 823.7,286.0 829.8,286.0 835.8,286.0 841.8,286.0 847.8,286.0 853.8,286.0 859.8,286.0 865.8,286.0 871.9,286.0 877.9,286.0 883.9,286.0 889.9,286.0 895.9,286.0 901.9,286.0 907.9,286.0 913.9,286.0 920.0,286.0 926.0,286.0 932.0,286.0 938.0,286.0"/><text x="42" y="308" font-size="11" fill="#5a688a">19/06 12:43</text><text x="938" y="308" text-anchor="end" font-size="11" fill="#5a688a">29/06 01:29</text></svg>