<svg xmlns="http://www.w3.org/2000/svg" viewBox="0 0 960 320" width="960" height="320" font-family="Segoe UI, system-ui, -apple-system, Roboto, Helvetica, Arial, sans-serif" role="img" aria-label="Availability history per region"><rect x="0.5" y="0.5" width="959" height="319" rx="14" fill="#ffffff" stroke="#dce3f1"/><text x="42" y="26" font-size="14" font-weight="600" fill="#14203a">History · 336 points</text><circle cx="47" cy="40" r="5" fill="#22c55e"/><text x="57" y="44" font-size="12" fill="#5a688a">Available</text><circle cx="139.8" cy="40" r="5" fill="#f59e0b"/><text x="149.8" y="44" font-size="12" fill="#5a688a">Saturated</text><circle cx="232.60000000000002" cy="40" r="5" fill="#ef4444"/><text x="242.60000000000002" y="44" font-size="12" fill="#5a688a">Error</text><circle cx="296.6" cy="40" r="5" fill="#a855f7"/><text x="306.6" y="44" font-size="12" fill="#5a688a">Timeout</text><line x1="42" y1="286.0" x2="938" y2="286.0" stroke="#eef2f7" stroke-width="1"/><text x="35" y="289.0" text-anchor="end" font-size="11" fill="#5a688a">0</text><line x1="42" y1="227.5" x2="938" y2="227.5" stroke="#eef2f7" stroke-width="1"/><text x="35" y="230.5" text-anchor="end" font-size="11" fill="#5a688a">10</text><line x1="42" y1="169.0" x2="938" y2="169.0" stroke="#eef2f7" stroke-width="1"/><text x="35" y="172.0" text-anchor="end" font-size="11" fill="#5a688a">19</text><line x1="42" y1="110.5" x2="938" y2="110.5" stroke="#eef2f7" stroke-width="1"/><text x="35" y="113.5" text-anchor="end" font-size="11" fill="#5a688a">28</text><line x1="42" y1="52.0" x2="938" y2="52.0" stroke="#eef2f7" stroke-width="1"/><text x="35" y="55.0" text-anchor="end" font-size="11" fill="#5a688a">38</text><polyline fill="none" stroke="#22c55e" stroke-width="2.5" stroke-linejoin="round" stroke-linecap="round" points="42.0,52.0 44.7,52.0 47.3,52.0 50.0,52.0 52.7,52.0 55.4,52.0 58.0,52.0 60.7,52.0 63.4,52.0 66.1,52.0 68.7,52.0 71.4,52.0 74.1,52.0 76.8,52.0 79.4,52.0 82.1,64.3 84.8,70.5 87.5,88.9 90.1,58.2 92.8,58.2 95.5,52.0 98.2,52.0 100.8,52.0 103.5,64.3 106.2,70.5 108.9,70.5 111.5,76.6 114.2,76.6 116.9,76.6 119.6,76.6 122.2,70.5 124.9,58.2 127.6,64.3 130.3,64.3 132.9,76.6 135.6,70.5 138.3,70.5 141.0,76.6 143.6,70.5 146.3,70.5 149.0,70.5 151.7,58.2 154.3,58.2 157.0,70.5 159.7,70.5 162.4,70.5 165.0,82.8 167.7,64.3 170.4,58.2 173.1,52.0 175.7,52.0 178.4,64.3 181.1,64.3 183.8,64.3 186.4,70.5 189.1,64.3 191.8,64.3 194.5,64.3 197.1,64.3 199.8,70.5 202.5,76.6 205.2,70.5 207.8,64.3 210.5,64.3 213.2,64.3 215.9,64.3 218.5,70.5 221.2,64.3 223.9,64.3 226.5,64.3 229.2,64.3 231.9,64.3 234.6,64.3 237.2,64.3 239.9,64.3 242.6,64.3 245.3,64.3 247.9,64.3 250.6,64.3 253.3,64.3 256.0,64.3 258.6,64.3 261.3,64.3 264.0,64.3 266.7,64.3 269.3,64.3 272.0,64.3 274.7,64.3 277.4,64.3 280.0,64.3 282.7,64.3 285.4,64.3 288.1,64.3 290.7,64.3 293.4,64.3 296.1,64.3 298.8,64.3 301.4,64.3 304.1,64.3 306.8,64.3 309.5,64.3 312.1,64.3 314.8,64.3 317.5,64.3 320.2,64.3 322.8,64.3 325.5,64.3 328.2,64.3 330.9,64.3 333.5,64.3 336.2,64.3 338.9,64.3 341.6,64.3 344.2,64.3 346.9,64.3 349.6,64.3 352.3,64.3 354.9,64.3 357.6,64.3 360.3,64.3 363.0,64.3 365.6,64.3 368.3,64.3 371.0,64.3 373.7,64.3 376.3,64.3 379.0,64.3 381.7,64.3 384.4,64.3 387.0,64.3 389.7,64.3 392.4,64.3 395.1,64.3 397.7,64.3 400.4,64.3 403.1,70.5 405.7,64.3 408.4,64.3 411.1,64.3 413.8,64.3 416.4,64.3 419.1,70.5 421.8,70.5 424.5,82.8 427.1,82.8 429.8,82.8 432.5,88.9 435.2,88.9 437.8,88.9 440.5,88.9 443.2,82.8 445.9,82.8 448.5,76.6 451.2,76.6 453.9,76.6 456.6,82.8 459.2,82.8 461.9,88.9 464.6,76.6 467.3,76.6 469.9,76.6 472.6,76.6 475.3,82.8 478.0,82.8 480.6,88.9 483.3,88.9 486.0,82.8 488.7,82.8 491.3,82.8 494.0,88.9 496.7,88.9 499.4,101.3 502.0,88.9 504.7,88.9 507.4,88.9 510.1,88.9 512.7,82.8 515.4,82.8 518.1,76.6 520.8,70.5 523.4,70.5 526.1,70.5 528.8,70.5 531.5,70.5 534.1,70.5 536.8,64.3 539.5,64.3 542.2,64.3 544.8,70.5 547.5,82.8 550.2,76.6 552.9,64.3 555.5,64.3 558.2,64.3 560.9,70.5 563.6,70.5 566.2,70.5 568.9,76.6 571.6,64.3 574.3,70.5 576.9,58.2 579.6,64.3 582.3,52.0 584.9,52.0 587.6,52.0 590.3,52.0 593.0,52.0 595.6,58.2 598.3,52.0 601.0,58.2 603.7,52.0 606.3,52.0 609.0,52.0 611.7,52.0 614.4,58.2 617.0,58.2 619.7,58.2 622.4,70.5 625.1,64.3 627.7,76.6 630.4,64.3 633.1,70.5 635.8,52.0 638.4,58.2 641.1,52.0 643.8,58.2 646.5,52.0 649.1,52.0 651.8,52.0 654.5,58.2 657.2,64.3 659.8,58.2 662.5,58.2 665.2,58.2 667.9,64.3 670.5,64.3 673.2,58.2 675.9,64.3 678.6,64.3 681.2,64.3 683.9,52.0 686.6,52.0 689.3,52.0 691.9,52.0 694.6,52.0 697.3,58.2 700.0,52.0 702.6,52.0 705.3,52.0 708.0,52.0 710.7,52.0 713.3,52.0 716.0,52.0 718.7,52.0 721.4,58.2 724.0,52.0 726.7,52.0 729.4,52.0 732.1,52.0 734.7,52.0 737.4,52.0 740.1,52.0 742.8,58.2 745.4,52.0 748.1,52.0 750.8,52.0 753.5,52.0 756.1,52.0 758.8,52.0 761.5,52.0 764.1,52.0 766.8,52.0 769.5,52.0 772.2,52.0 774.8,52.0 777.5,52.0 780.2,52.0 782.9,52.0 785.5,52.0 788.2,52.0 790.9,52.0 793.6,52.0 796.2,58.2 798.9,58.2 801.6,52.0 804.3,52.0 806.9,52.0 809.6,58.2 812.3,58.2 815.0,70.5 817.6,58.2 820.3,58.2 823.0,64.3 825.7,52.0 828.3,52.0 831.0,52.0 833.7,52.0 836.4,52.0 839.0,52.0 841.7,64.3 844.4,58.2 847.1,58.2 849.7,58.2 852.4,58.2 855.1,64.3 857.8,64.3 860.4,70.5 863.1,70.5 865.8,76.6 868.5,82.8 871.1,76.6 873.8,76.6 876.5,82.8 879.2,76.6 881.8,70.5 884.5,70.5 887.2,64.3 889.9,58.2 892.5,58.2 895.2,70.5 897.9,70.5 900.6,64.3 903.2,70.5 905.9,64.3 908.6,64.3 911.3,64.3 913.9,76.6 916.6,64.3 919.3,70.5 922.0,64.3 924.6,70.5 927.3,64.3 930.0,70.5 932.7,64.3 935.3,64.3 938.0,76.6"/><polyline fill="none" stroke="#f59e0b" stroke-width="2.5" stroke-linejoin="round" stroke-linecap="round" points="42.0,286.0 44.7,286.0 47.3,286.0 50.0,286.0 52.7,286.0 55.4,286.0 58.0,286.0 60.7,286.0 63.4,286.0 66.1,286.0 68.7,286.0 71.4,286.0 74.1,286.0 76.8,286.0 79.4,286.0 82.1,273.7 84.8,279.8 87.5,279.8 90.1,279.8 92.8,279.8 95.5,286.0 98.2,286.0 100.8,286.0 103.5,273.7 106.2,267.5 108.9,267.5 111.5,261.4 114.2,261.4 116.9,261.4 119.6,261.4 122.2,267.5 124.9,279.8 127.6,279.8 130.3,273.7 132.9,261.4 135.6,267.5 138.3,267.5 141.0,261.4 143.6,267.5 146.3,267.5 149.0,267.5 151.7,279.8 154.3,279.8 157.0,267.5 159.7,267.5 162.4,267.5 165.0,261.4 167.7,273.7 170.4,279.8 173.1,286.0 175.7,286.0 178.4,273.7 181.1,273.7 183.8,273.7 186.4,273.7 189.1,273.7 191.8,273.7 194.5,273.7 197.1,273.7 199.8,279.8 202.5,273.7 205.2,279.8 207.8,286.0 210.5,286.0 213.2,286.0 215.9,286.0 218.5,279.8 221.2,286.0 223.9,286.0 226.5,286.0 229.2,286.0 231.9,286.0 234.6,286.0 237.2,286.0 239.9,286.0 242.6,286.0 245.3,286.0 247.9,286.0 250.6,286.0 253.3,286.0 256.0,286.0 258.6,286.0 261.3,286.0 264.0,286.0 266.7,286.0 269.3,286.0 272.0,286.0 274.7,286.0 277.4,286.0 280.0,286.0 282.7,286.0 285.4,286.0 288.1,286.0 290.7,286.0 293.4,286.0 296.1,286.0 298.8,286.0 301.4,286.0 304.1,286.0 306.8,286.0 309.5,286.0 312.1,286.0 314.8,286.0 317.5,286.0 320.2,286.0 322.8,286.0 325.5,286.0 328.2,286.0 330.9,286.0 333.5,286.0 336.2,286.0 338.9,286.0 341.6,286.0 344.2,286.0 346.9,286.0 349.6,286.0 352.3,286.0 354.9,286.0 357.6,286.0 360.3,286.0 363.0,286.0 365.6,286.0 368.3,286.0 371.0,286.0 373.7,286.0 376.3,286.0 379.0,286.0 381.7,286.0 384.4,286.0 387.0,286.0 389.7,286.0 392.4,286.0 395.1,286.0 397.7,286.0 400.4,286.0 403.1,286.0 405.7,286.0 408.4,286.0 411.1,286.0 413.8,286.0 416.4,286.0 419.1,286.0 421.8,279.8 424.5,267.5 427.1,267.5 429.8,267.5 432.5,267.5 435.2,261.4 437.8,261.4 440.5,261.4 443.2,267.5 445.9,267.5 448.5,273.7 451.2,273.7 453.9,273.7 456.6,267.5 459.2,267.5 461.9,267.5 464.6,273.7 467.3,273.7 469.9,273.7 472.6,273.7 475.3,267.5 478.0,267.5 480.6,261.4 483.3,261.4 486.0,267.5 488.7,267.5 491.3,267.5 494.0,261.4 496.7,261.4 499.4,273.7 502.0,261.4 504.7,261.4 507.4,261.4 510.1,261.4 512.7,267.5 515.4,267.5 518.1,273.7 520.8,279.8 523.4,279.8 526.1,279.8 528.8,279.8 531.5,279.8 534.1,279.8 536.8,286.0 539.5,286.0 542.2,286.0 544.8,279.8 547.5,273.7 550.2,273.7 552.9,279.8 555.5,273.7 558.2,273.7 560.9,267.5 563.6,267.5 566.2,267.5 568.9,267.5 571.6,279.8 574.3,273.7 576.9,279.8 579.6,279.8 582.3,286.0 584.9,286.0 587.6,286.0 590.3,286.0 593.0,286.0 595.6,286.0 598.3,286.0 601.0,286.0 603.7,286.0 606.3,286.0 609.0,286.0 611.7,286.0 614.4,279.8 617.0,279.8 619.7,279.8 622.4,267.5 625.1,279.8 627.7,267.5 630.4,273.7 633.1,273.7 635.8,286.0 638.4,279.8 641.1,286.0 643.8,279.8 646.5,286.0 649.1,286.0 651.8,286.0 654.5,279.8 657.2,273.7 659.8,279.8 662.5,279.8 665.2,279.8 667.9,273.7 670.5,273.7 673.2,279.8 675.9,279.8 678.6,279.8 681.2,279.8 683.9,286.0 686.6,286.0 689.3,286.0 691.9,286.0 694.6,286.0 697.3,286.0 700.0,286.0 702.6,286.0 705.3,286.0 708.0,286.0 710.7,286.0 713.3,286.0 716.0,286.0 718.7,286.0 721.4,286.0 724.0,286.0 726.7,286.0 729.4,286.0 732.1,286.0 734.7,286.0 737.4,286.0 740.1,286.0 742.8,286.0 745.4,286.0 748.1,286.0 750.8,286.0 753.5,286.0 756.1,286.0 758.8,286.0 761.5,286.0 764.1,286.0 766.8,286.0 769.5,286.0 772.2,286.0 774.8,286.0 777.5,286.0 780.2,286.0 782.9,286.0 785.5,286.0 788.2,286.0 790.9,286.0 793.6,286.0 796.2,286.0 798.9,286.0 801.6,286.0 804.3,286.0 806.9,286.0 809.6,279.8 812.3,279.8 815.0,279.8 817.6,279.8 820.3,279.8 823.0,273.7 825.7,286.0 828.3,286.0 831.0,286.0 833.7,286.0 836.4,286.0 839.0,286.0 841.7,286.0 844.4,279.8 847.1,279.8 849.7,279.8 852.4,279.8 855.1,273.7 857.8,273.7 860.4,267.5 863.1,267.5 865.8,261.4 868.5,261.4 871.1,261.4 873.8,261.4 876.5,261.4 879.2,267.5 881.8,267.5 884.5,267.5 887.2,273.7 889.9,279.8 892.5,279.8 895.2,267.5 897.9,267.5 900.6,273.7 903.2,267.5 905.9,273.7 908.6,273.7 911.3,273.7 913.9,273.7 916.6,273.7 919.3,267.5 922.0,273.7 924.6,267.5 927.3,273.7 930.0,267.5 932.7,273.7 935.3,273.7 938.0,261.4"/><polyline fill="none" stroke="#ef4444" stroke-width="2.5" stroke-linejoin="round" stroke-linecap="round" points="42.0,286.0 44.7,286.0 47.3,286.0 50.0,286.0 52.7,286.0 55.4,286.0 58.0,286.0 60.7,286.0 63.4,286.0 66.1,286.0 68.7,286.0 71.4,286.0 74.1,286.0 76.8,286.0 79.4,286.0 82.1,286.0 84.8,273.7 87.5,255.2 90.1,286.0 92.8,286.0 95.5,286.0 98.2,286.0 100.8,286.0 103.5,286.0 106.2,286.0 108.9,286.0 111.5,286.0 114.2,286.0 116.9,286.0 119.6,286.0 122.2,286.0 124.9,286.0 127.6,279.8 130.3,286.0 132.9,286.0 135.6,286.0 138.3,286.0 141.0,286.0 143.6,286.0 146.3,286.0 149.0,286.0 151.7,286.0 154.3,286.0 157.0,286.0 159.7,286.0 162.4,286.0 165.0,279.8 167.7,286.0 170.4,286.0 173.1,286.0 175.7,286.0 178.4,286.0 181.1,286.0 183.8,286.0 186.4,286.0 189.1,286.0 191.8,286.0 194.5,286.0 197.1,286.0 199.8,273.7 202.5,273.7 205.2,273.7 207.8,273.7 210.5,273.7 213.2,273.7 215.9,273.7 218.5,273.7 221.2,273.7 223.9,273.7 226.5,273.7 229.2,273.7 231.9,273.7 234.6,273.7 237.2,273.7 239.9,273.7 242.6,273.7 245.3,273.7 247.9,273.7 250.6,273.7 253.3,273.7 256.0,273.7 258.6,273.7 261.3,273.7 264.0,273.7 266.7,273.7 269.3,273.7 272.0,273.7 274.7,273.7 277.4,273.7 280.0,273.7 282.7,273.7 285.4,273.7 288.1,273.7 290.7,273.7 293.4,273.7 296.1,273.7 298.8,273.7 301.4,273.7 304.1,273.7 306.8,273.7 309.5,273.7 312.1,273.7 314.8,273.7 317.5,273.7 320.2,273.7 322.8,273.7 325.5,273.7 328.2,273.7 330.9,273.7 333.5,273.7 336.2,273.7 338.9,273.7 341.6,273.7 344.2,273.7 346.9,273.7 349.6,273.7 352.3,273.7 354.9,273.7 357.6,273.7 360.3,273.7 363.0,273.7 365.6,273.7 368.3,273.7 371.0,273.7 373.7,273.7 376.3,273.7 379.0,273.7 381.7,273.7 384.4,273.7 387.0,273.7 389.7,273.7 392.4,273.7 395.1,273.7 397.7,273.7 400.4,273.7 403.1,267.5 405.7,273.7 408.4,273.7 411.1,273.7 413.8,273.7 416.4,273.7 419.1,273.7 421.8,273.7 424.5,273.7 427.1,273.7 429.8,273.7 432.5,267.5 435.2,273.7 437.8,273.7 440.5,273.7 443.2,273.7 445.9,273.7 448.5,273.7 451.2,273.7 453.9,273.7 456.6,273.7 459.2,273.7 461.9,267.5 464.6,273.7 467.3,273.7 469.9,273.7 472.6,273.7 475.3,273.7 478.0,273.7 480.6,273.7 483.3,273.7 486.0,273.7 488.7,273.7 491.3,273.7 494.0,273.7 496.7,273.7 499.4,249.1 502.0,273.7 504.7,273.7 507.4,273.7 510.1,273.7 512.7,273.7 515.4,273.7 518.1,273.7 520.8,273.7 523.4,273.7 526.1,273.7 528.8,273.7 531.5,273.7 534.1,273.7 536.8,273.7 539.5,273.7 542.2,273.7 544.8,273.7 547.5,267.5 550.2,273.7 552.9,279.8 555.5,286.0 558.2,286.0 560.9,286.0 563.6,286.0 566.2,286.0 568.9,279.8 571.6,279.8 574.3,286.0 576.9,286.0 579.6,279.8 582.3,286.0 584.9,286.0 587.6,286.0 590.3,286.0 593.0,286.0 595.6,279.8 598.3,286.0 601.0,286.0 603.7,286.0 606.3,286.0 609.0,286.0 611.7,286.0 614.4,286.0 617.0,286.0 619.7,286.0 622.4,286.0 625.1,279.8 627.7,279.8 630.4,286.0 633.1,279.8 635.8,286.0 638.4,286.0 641.1,286.0 643.8,286.0 646.5,286.0 649.1,286.0 651.8,286.0 654.5,286.0 657.2,286.0 659.8,286.0 662.5,286.0 665.2,286.0 667.9,286.0 670.5,286.0 673.2,286.0 675.9,279.8 678.6,286.0 681.2,279.8 683.9,286.0 686.6,286.0 689.3,286.0 691.9,286.0 694.6,286.0 697.3,286.0 700.0,286.0 702.6,286.0 705.3,286.0 708.0,286.0 710.7,286.0 713.3,286.0 716.0,286.0 718.7,286.0 721.4,279.8 724.0,286.0 726.7,286.0 729.4,286.0 732.1,286.0 734.7,286.0 737.4,286.0 740.1,286.0 742.8,286.0 745.4,286.0 748.1,286.0 750.8,286.0 753.5,286.0 756.1,286.0 758.8,286.0 761.5,286.0 764.1,286.0 766.8,286.0 769.5,286.0 772.2,286.0 774.8,286.0 777.5,286.0 780.2,286.0 782.9,286.0 785.5,286.0 788.2,286.0 790.9,286.0 793.6,286.0 796.2,279.8 798.9,279.8 801.6,286.0 804.3,286.0 806.9,286.0 809.6,286.0 812.3,286.0 815.0,273.7 817.6,286.0 820.3,286.0 823.0,286.0 825.7,286.0 828.3,286.0 831.0,286.0 833.7,286.0 836.4,286.0 839.0,286.0 841.7,286.0 844.4,286.0 847.1,286.0 849.7,286.0 852.4,286.0 855.1,286.0 857.8,286.0 860.4,286.0 863.1,286.0 865.8,286.0 868.5,279.8 871.1,286.0 873.8,286.0 876.5,279.8 879.2,279.8 881.8,286.0 884.5,286.0 887.2,286.0 889.9,286.0 892.5,286.0 895.2,286.0 897.9,286.0 900.6,286.0 903.2,286.0 905.9,286.0 908.6,286.0 911.3,286.0 913.9,273.7 916.6,286.0 919.3,286.0 922.0,286.0 924.6,286.0 927.3,286.0 930.0,286.0 932.7,286.0 935.3,286.0 938.0,286.0"/><polyline fill="none" stroke="#a855f7" stroke-width="2.5" stroke-linejoin="round" stroke-linecap="round" points="42.0,286.0 44.7,286.0 47.3,286.0 50.0,286.0 52.7,286.0 55.4,286.0 58.0,286.0 60.7,286.0 63.4,286.0 66.1,286.0 68.7,286.0 71.4,286.0 74.1,286.0 76.8,286.0 79.4,286.0 82.1,286.0 84.8,286.0 87.5,286.0 90.1,286.0 92.8,286.0 95.5,286.0 98.2,286.0 100.8,286.0 103.5,286.0 106.2,286.0 108.9,286.0 111.5,286.0 114.2,286.0 116.9,286.0 119.6,286.0 122.2,286.0 124.9,286.0 127.6,286.0 130.3,286.0 132.9,286.0 135.6,286.0 138.3,286.0 141.0,286.0 143.6,286.0 146.3,286.0 149.0,286.0 151.7,286.0 154.3,286.0 157.0,286.0 159.7,286.0 162.4,286.0 165.0,286.0 167.7,286.0 170.4,286.0 173.1,286.0 175.7,286.0 178.4,286.0 181.1,286.0 183.8,286.0 186.4,279.8 189.1,286.0 191.8,286.0 194.5,286.0 197.1,286.0 199.8,286.0 202.5,286.0 205.2,286.0 207.8,286.0 210.5,286.0 213.2,286.0 215.9,286.0 218.5,286.0 221.2,286.0 223.9,286.0 226.5,286.0 229.2,286.0 231.9,286.0 234.6,286.0 237.2,286.0 239.9,286.0 242.6,286.0 245.3,286.0 247.9,286.0 250.6,286.0 253.3,286.0 256.0,286.0 258.6,286.0 261.3,286.0 264.0,286.0 266.7,286.0 269.3,286.0 272.0,286.0 274.7,286.0 277.4,286.0 280.0,286.0 282.7,286.0 285.4,286.0 288.1,286.0 290.7,286.0 293.4,286.0 296.1,286.0 298.8,286.0 301.4,286.0 304.1,286.0 306.8,286.0 309.5,286.0 312.1,286.0 314.8,286.0 317.5,286.0 320.2,286.0 322.8,286.0 325.5,286.0 328.2,286.0 330.9,286.0 333.5,286.0 336.2,286.0 338.9,286.0 341.6,286.0 344.2,286.0 346.9,286.0 349.6,286.0 352.3,286.0 354.9,286.0 357.6,286.0 360.3,286.0 363.0,286.0 365.6,286.0 368.3,286.0 371.0,286.0 373.7,286.0 376.3,286.0 379.0,286.0 381.7,286.0 384.4,286.0 387.0,286.0 389.7,286.0 392.4,286.0 395.1,286.0 397.7,286.0 400.4,286.0 403.1,286.0 405.7,286.0 408.4,286.0 411.1,286.0 413.8,286.0 416.4,286.0 419.1,279.8 421.8,286.0 424.5,286.0 427.1,286.0 429.8,286.0 432.5,286.0 435.2,286.0 437.8,286.0 440.5,286.0 443.2,286.0 445.9,286.0 448.5,286.0 451.2,286.0 453.9,286.0 456.6,286.0 459.2,286.0 461.9,286.0 464.6,286.0 467.3,286.0 469.9,286.0 472.6,286.0 475.3,286.0 478.0,286.0 480.6,286.0 483.3,286.0 486.0,286.0 488.7,286.0 491.3,286.0 494.0,286.0 496.7,286.0 499.4,286.0 502.0,286.0 504.7,286.0 507.4,286.0 510.1,286.0 512.7,286.0 515.4,286.0 518.1,286.0 520.8,286.0 523.4,286.0 526.1,286.0 528.8,286.0 531.5,286.0 534.1,286.0 536.8,286.0 539.5,286.0 542.2,286.0 544.8,286.0 547.5,286.0 550.2,286.0 552.9,286.0 555.5,286.0 558.2,286.0 560.9,286.0 563.6,286.0 566.2,286.0 568.9,286.0 571.6,286.0 574.3,279.8 576.9,286.0 579.6,286.0 582.3,286.0 584.9,286.0 587.6,286.0 590.3,286.0 593.0,286.0 595.6,286.0 598.3,286.0 601.0,279.8 603.7,286.0 606.3,286.0 609.0,286.0 611.7,286.0 614.4,286.0 617.0,286.0 619.7,286.0 622.4,286.0 625.1,286.0 627.7,286.0 630.4,286.0 633.1,286.0 635.8,286.0 638.4,286.0 641.1,286.0 643.8,286.0 646.5,286.0 649.1,286.0 651.8,286.0 654.5,286.0 657.2,286.0 659.8,286.0 662.5,286.0 665.2,286.0 667.9,286.0 670.5,286.0 673.2,286.0 675.9,286.0 678.6,279.8 681.2,286.0 683.9,286.0 686.6,286.0 689.3,286.0 691.9,286.0 694.6,286.0 697.3,279.8 700.0,286.0 702.6,286.0 705.3,286.0 708.0,286.0 710.7,286.0 713.3,286.0 716.0,286.0 718.7,286.0 721.4,286.0 724.0,286.0 726.7,286.0 729.4,286.0 732.1,286.0 734.7,286.0 737.4,286.0 740.1,286.0 742.8,279.8 745.4,286.0 748.1,286.0 750.8,286.0 753.5,286.0 756.1,286.0 758.8,286.0 761.5,286.0 764.1,286.0 766.8,286.0 769.5,286.0 772.2,286.0 774.8,286.0 777.5,286.0 780.2,286.0 782.9,286.0 785.5,286.0 788.2,286.0 790.9,286.0 793.6,286.0 796.2,286.0 798.9,286.0 801.6,286.0 804.3,286.0 806.9,286.0 809.6,286.0 812.3,286.0 815.0,286.0 817.6,286.0 820.3,286.0 823.0,286.0 825.7,286.0 828.3,286.0 831.0,286.0 833.7,286.0 836.4,286.0 839.0,286.0 841.7,273.7 844.4,286.0 847.1,286.0 849.7,286.0 852.4,286.0 855.1,286.0 857.8,286.0 860.4,286.0 863.1,286.0 865.8,286.0 868.5,286.0 871.1,286.0 873.8,286.0 876.5,286.0 879.2,286.0 881.8,286.0 884.5,286.0 887.2,286.0 889.9,286.0 892.5,286.0 895.2,286.0 897.9,286.0 900.6,286.0 903.2,286.0 905.9,286.0 908.6,286.0 911.3,286.0 913.9,286.0 916.6,286.0 919.3,286.0 922.0,286.0 924.6,286.0 927.3,286.0 930.0,286.0 932.7,286.0 935.3,286.0 938.0,286.0"/><text x="42" y="308" font-size="11" fill="#5a688a">20/06 19:07</text><text x="938" y="308" text-anchor="end" font-size="11" fill="#5a688a">08/07 13:29</text></svg>