<svg xmlns="http://www.w3.org/2000/svg" viewBox="0 0 960 320" width="960" height="320" font-family="Segoe UI, system-ui, -apple-system, Roboto, Helvetica, Arial, sans-serif" role="img" aria-label="Availability history per region"><rect x="0.5" y="0.5" width="959" height="319" rx="14" fill="#ffffff" stroke="#dce3f1"/><text x="42" y="26" font-size="14" font-weight="600" fill="#14203a">History · 98 points</text><circle cx="47" cy="40" r="5" fill="#22c55e"/><text x="57" y="44" font-size="12" fill="#5a688a">Available</text><circle cx="139.8" cy="40" r="5" fill="#f59e0b"/><text x="149.8" y="44" font-size="12" fill="#5a688a">Saturated</text><circle cx="232.60000000000002" cy="40" r="5" fill="#ef4444"/><text x="242.60000000000002" y="44" font-size="12" fill="#5a688a">Error</text><circle cx="296.6" cy="40" r="5" fill="#a855f7"/><text x="306.6" y="44" font-size="12" fill="#5a688a">Timeout</text><line x1="42" y1="286.0" x2="938" y2="286.0" stroke="#eef2f7" stroke-width="1"/><text x="35" y="289.0" text-anchor="end" font-size="11" fill="#5a688a">0</text><line x1="42" y1="227.5" x2="938" y2="227.5" stroke="#eef2f7" stroke-width="1"/><text x="35" y="230.5" text-anchor="end" font-size="11" fill="#5a688a">10</text><line x1="42" y1="169.0" x2="938" y2="169.0" stroke="#eef2f7" stroke-width="1"/><text x="35" y="172.0" text-anchor="end" font-size="11" fill="#5a688a">19</text><line x1="42" y1="110.5" x2="938" y2="110.5" stroke="#eef2f7" stroke-width="1"/><text x="35" y="113.5" text-anchor="end" font-size="11" fill="#5a688a">28</text><line x1="42" y1="52.0" x2="938" y2="52.0" stroke="#eef2f7" stroke-width="1"/><text x="35" y="55.0" text-anchor="end" font-size="11" fill="#5a688a">38</text><polyline fill="none" stroke="#22c55e" stroke-width="2.5" stroke-linejoin="round" stroke-linecap="round" points="42.0,64.3 51.2,224.4 60.5,82.8 69.7,88.9 78.9,82.8 88.2,76.6 97.4,76.6 106.7,76.6 115.9,76.6 125.1,76.6 134.4,76.6 143.6,76.6 152.8,76.6 162.1,76.6 171.3,76.6 180.6,70.5 189.8,70.5 199.0,82.8 208.3,82.8 217.5,82.8 226.7,88.9 236.0,88.9 245.2,88.9 254.5,88.9 263.7,88.9 272.9,88.9 282.2,88.9 291.4,88.9 300.6,88.9 309.9,82.8 319.1,82.8 328.4,82.8 337.6,82.8 346.8,76.6 356.1,76.6 365.3,76.6 374.5,76.6 383.8,76.6 393.0,82.8 402.2,82.8 411.5,82.8 420.7,82.8 430.0,76.6 439.2,76.6 448.4,76.6 457.7,76.6 466.9,76.6 476.1,76.6 485.4,76.6 494.6,82.8 503.9,82.8 513.1,82.8 522.3,82.8 531.6,76.6 540.8,76.6 550.0,76.6 559.3,76.6 568.5,76.6 577.8,76.6 587.0,76.6 596.2,76.6 605.5,82.8 614.7,76.6 623.9,76.6 633.2,76.6 642.4,76.6 651.6,76.6 660.9,82.8 670.1,76.6 679.4,76.6 688.6,76.6 697.8,76.6 707.1,76.6 716.3,76.6 725.5,76.6 734.8,76.6 744.0,76.6 753.3,70.5 762.5,70.5 771.7,70.5 781.0,70.5 790.2,76.6 799.4,70.5 808.7,76.6 817.9,76.6 827.2,76.6 836.4,76.6 845.6,76.6 854.9,76.6 864.1,82.8 873.3,88.9 882.6,88.9 891.8,88.9 901.1,88.9 910.3,88.9 919.5,88.9 928.8,88.9 938.0,95.1"/><polyline fill="none" stroke="#f59e0b" stroke-width="2.5" stroke-linejoin="round" stroke-linecap="round" points="42.0,273.7 51.2,267.5 60.5,255.2 69.7,249.1 78.9,255.2 88.2,261.4 97.4,261.4 106.7,261.4 115.9,261.4 125.1,261.4 134.4,261.4 143.6,261.4 152.8,261.4 162.1,261.4 171.3,261.4 180.6,267.5 189.8,267.5 199.0,261.4 208.3,255.2 217.5,255.2 226.7,249.1 236.0,249.1 245.2,249.1 254.5,249.1 263.7,249.1 272.9,249.1 282.2,249.1 291.4,249.1 300.6,249.1 309.9,255.2 319.1,255.2 328.4,255.2 337.6,255.2 346.8,261.4 356.1,261.4 365.3,261.4 374.5,261.4 383.8,261.4 393.0,255.2 402.2,255.2 411.5,255.2 420.7,255.2 430.0,261.4 439.2,261.4 448.4,261.4 457.7,261.4 466.9,261.4 476.1,261.4 485.4,261.4 494.6,255.2 503.9,255.2 513.1,255.2 522.3,261.4 531.6,261.4 540.8,261.4 550.0,261.4 559.3,261.4 568.5,261.4 577.8,261.4 587.0,261.4 596.2,261.4 605.5,255.2 614.7,261.4 623.9,261.4 633.2,261.4 642.4,261.4 651.6,261.4 660.9,261.4 670.1,261.4 679.4,261.4 688.6,261.4 697.8,261.4 707.1,261.4 716.3,261.4 725.5,261.4 734.8,261.4 744.0,261.4 753.3,267.5 762.5,267.5 771.7,267.5 781.0,267.5 790.2,267.5 799.4,267.5 808.7,261.4 817.9,261.4 827.2,261.4 836.4,261.4 845.6,261.4 854.9,261.4 864.1,255.2 873.3,249.1 882.6,249.1 891.8,255.2 901.1,249.1 910.3,249.1 919.5,249.1 928.8,249.1 938.0,249.1"/><polyline fill="none" stroke="#ef4444" stroke-width="2.5" stroke-linejoin="round" stroke-linecap="round" points="42.0,286.0 51.2,132.1 60.5,286.0 69.7,286.0 78.9,286.0 88.2,286.0 97.4,286.0 106.7,286.0 115.9,286.0 125.1,286.0 134.4,286.0 143.6,286.0 152.8,286.0 162.1,286.0 171.3,286.0 180.6,286.0 189.8,286.0 199.0,279.8 208.3,286.0 217.5,286.0 226.7,286.0 236.0,286.0 245.2,286.0 254.5,286.0 263.7,286.0 272.9,286.0 282.2,286.0 291.4,286.0 300.6,286.0 309.9,286.0 319.1,286.0 328.4,286.0 337.6,286.0 346.8,286.0 356.1,286.0 365.3,286.0 374.5,286.0 383.8,286.0 393.0,286.0 402.2,286.0 411.5,286.0 420.7,286.0 430.0,286.0 439.2,286.0 448.4,286.0 457.7,286.0 466.9,286.0 476.1,286.0 485.4,286.0 494.6,286.0 503.9,286.0 513.1,286.0 522.3,286.0 531.6,286.0 540.8,286.0 550.0,286.0 559.3,286.0 568.5,286.0 577.8,286.0 587.0,286.0 596.2,286.0 605.5,286.0 614.7,286.0 623.9,286.0 633.2,286.0 642.4,286.0 651.6,286.0 660.9,279.8 670.1,286.0 679.4,286.0 688.6,286.0 697.8,286.0 707.1,286.0 716.3,286.0 725.5,286.0 734.8,286.0 744.0,286.0 753.3,286.0 762.5,286.0 771.7,286.0 781.0,286.0 790.2,279.8 799.4,286.0 808.7,286.0 817.9,286.0 827.2,286.0 836.4,286.0 845.6,286.0 854.9,286.0 864.1,286.0 873.3,286.0 882.6,286.0 891.8,279.8 901.1,286.0 910.3,286.0 919.5,286.0 928.8,286.0 938.0,279.8"/><polyline fill="none" stroke="#a855f7" stroke-width="2.5" stroke-linejoin="round" stroke-linecap="round" points="42.0,286.0 51.2,286.0 60.5,286.0 69.7,286.0 78.9,286.0 88.2,286.0 97.4,286.0 106.7,286.0 115.9,286.0 125.1,286.0 134.4,286.0 143.6,286.0 152.8,286.0 162.1,286.0 171.3,286.0 180.6,286.0 189.8,286.0 199.0,286.0 208.3,286.0 217.5,286.0 226.7,286.0 236.0,286.0 245.2,286.0 254.5,286.0 263.7,286.0 272.9,286.0 282.2,286.0 291.4,286.0 300.6,286.0 309.9,286.0 319.1,286.0 328.4,286.0 337.6,286.0 346.8,286.0 356.1,286.0 365.3,286.0 374.5,286.0 383.8,286.0 393.0,286.0 402.2,286.0 411.5,286.0 420.7,286.0 430.0,286.0 439.2,286.0 448.4,286.0 457.7,286.0 466.9,286.0 476.1,286.0 485.4,286.0 494.6,286.0 503.9,286.0 513.1,286.0 522.3,279.8 531.6,286.0 540.8,286.0 550.0,286.0 559.3,286.0 568.5,286.0 577.8,286.0 587.0,286.0 596.2,286.0 605.5,286.0 614.7,286.0 623.9,286.0 633.2,286.0 642.4,286.0 651.6,286.0 660.9,286.0 670.1,286.0 679.4,286.0 688.6,286.0 697.8,286.0 707.1,286.0 716.3,286.0 725.5,286.0 734.8,286.0 744.0,286.0 753.3,286.0 762.5,286.0 771.7,286.0 781.0,286.0 790.2,286.0 799.4,286.0 808.7,286.0 817.9,286.0 827.2,286.0 836.4,286.0 845.6,286.0 854.9,286.0 864.1,286.0 873.3,286.0 882.6,286.0 891.8,286.0 901.1,286.0 910.3,286.0 919.5,286.0 928.8,286.0 938.0,286.0"/><text x="42" y="308" font-size="11" fill="#5a688a">19/06 15:39</text><text x="938" y="308" text-anchor="end" font-size="11" fill="#5a688a">20/07 16:40</text></svg>