<svg xmlns="http://www.w3.org/2000/svg" viewBox="0 0 960 320" width="960" height="320" font-family="Segoe UI, system-ui, -apple-system, Roboto, Helvetica, Arial, sans-serif" role="img" aria-label="Availability history per region"><rect x="0.5" y="0.5" width="959" height="319" rx="14" fill="#0d1117" stroke="#2c3a5e"/><text x="42" y="26" font-size="14" font-weight="600" fill="#e6ecff">History · 50 points</text><circle cx="47" cy="40" r="5" fill="#22c55e"/><text x="57" y="44" font-size="12" fill="#9fb0d4">Available</text><circle cx="139.8" cy="40" r="5" fill="#f59e0b"/><text x="149.8" y="44" font-size="12" fill="#9fb0d4">Saturated</text><circle cx="232.60000000000002" cy="40" r="5" fill="#ef4444"/><text x="242.60000000000002" y="44" font-size="12" fill="#9fb0d4">Error</text><line x1="42" y1="286.0" x2="938" y2="286.0" stroke="#21304f" stroke-width="1"/><text x="35" y="289.0" text-anchor="end" font-size="11" fill="#9fb0d4">0</text><line x1="42" y1="227.5" x2="938" y2="227.5" stroke="#21304f" stroke-width="1"/><text x="35" y="230.5" text-anchor="end" font-size="11" fill="#9fb0d4">10</text><line x1="42" y1="169.0" x2="938" y2="169.0" stroke="#21304f" stroke-width="1"/><text x="35" y="172.0" text-anchor="end" font-size="11" fill="#9fb0d4">19</text><line x1="42" y1="110.5" x2="938" y2="110.5" stroke="#21304f" stroke-width="1"/><text x="35" y="113.5" text-anchor="end" font-size="11" fill="#9fb0d4">28</text><line x1="42" y1="52.0" x2="938" y2="52.0" stroke="#21304f" stroke-width="1"/><text x="35" y="55.0" text-anchor="end" font-size="11" fill="#9fb0d4">38</text><polyline fill="none" stroke="#22c55e" stroke-width="2.5" stroke-linejoin="round" stroke-linecap="round" points="42.0,64.3 60.3,224.4 78.6,82.8 96.9,88.9 115.1,82.8 133.4,76.6 151.7,76.6 170.0,76.6 188.3,76.6 206.6,76.6 224.9,76.6 243.1,76.6 261.4,76.6 279.7,76.6 298.0,76.6 316.3,70.5 334.6,70.5 352.9,82.8 371.1,82.8 389.4,82.8 407.7,88.9 426.0,88.9 444.3,88.9 462.6,88.9 480.9,88.9 499.1,88.9 517.4,88.9 535.7,88.9 554.0,88.9 572.3,82.8 590.6,82.8 608.9,82.8 627.1,82.8 645.4,76.6 663.7,76.6 682.0,76.6 700.3,76.6 718.6,76.6 736.9,82.8 755.1,82.8 773.4,82.8 791.7,82.8 810.0,76.6 828.3,76.6 846.6,76.6 864.9,76.6 883.1,76.6 901.4,76.6 919.7,76.6 938.0,82.8"/><circle cx="42.0" cy="64.3" r="2.5" fill="#22c55e"/><circle cx="60.3" cy="224.4" r="2.5" fill="#22c55e"/><circle cx="78.6" cy="82.8" r="2.5" fill="#22c55e"/><circle cx="96.9" cy="88.9" r="2.5" fill="#22c55e"/><circle cx="115.1" cy="82.8" r="2.5" fill="#22c55e"/><circle cx="133.4" cy="76.6" r="2.5" fill="#22c55e"/><circle cx="151.7" cy="76.6" r="2.5" fill="#22c55e"/><circle cx="170.0" cy="76.6" r="2.5" fill="#22c55e"/><circle cx="188.3" cy="76.6" r="2.5" fill="#22c55e"/><circle cx="206.6" cy="76.6" r="2.5" fill="#22c55e"/><circle cx="224.9" cy="76.6" r="2.5" fill="#22c55e"/><circle cx="243.1" cy="76.6" r="2.5" fill="#22c55e"/><circle cx="261.4" cy="76.6" r="2.5" fill="#22c55e"/><circle cx="279.7" cy="76.6" r="2.5" fill="#22c55e"/><circle cx="298.0" cy="76.6" r="2.5" fill="#22c55e"/><circle cx="316.3" cy="70.5" r="2.5" fill="#22c55e"/><circle cx="334.6" cy="70.5" r="2.5" fill="#22c55e"/><circle cx="352.9" cy="82.8" r="2.5" fill="#22c55e"/><circle cx="371.1" cy="82.8" r="2.5" fill="#22c55e"/><circle cx="389.4" cy="82.8" r="2.5" fill="#22c55e"/><circle cx="407.7" cy="88.9" r="2.5" fill="#22c55e"/><circle cx="426.0" cy="88.9" r="2.5" fill="#22c55e"/><circle cx="444.3" cy="88.9" r="2.5" fill="#22c55e"/><circle cx="462.6" cy="88.9" r="2.5" fill="#22c55e"/><circle cx="480.9" cy="88.9" r="2.5" fill="#22c55e"/><circle cx="499.1" cy="88.9" r="2.5" fill="#22c55e"/><circle cx="517.4" cy="88.9" r="2.5" fill="#22c55e"/><circle cx="535.7" cy="88.9" r="2.5" fill="#22c55e"/><circle cx="554.0" cy="88.9" r="2.5" fill="#22c55e"/><circle cx="572.3" cy="82.8" r="2.5" fill="#22c55e"/><circle cx="590.6" cy="82.8" r="2.5" fill="#22c55e"/><circle cx="608.9" cy="82.8" r="2.5" fill="#22c55e"/><circle cx="627.1" cy="82.8" r="2.5" fill="#22c55e"/><circle cx="645.4" cy="76.6" r="2.5" fill="#22c55e"/><circle cx="663.7" cy="76.6" r="2.5" fill="#22c55e"/><circle cx="682.0" cy="76.6" r="2.5" fill="#22c55e"/><circle cx="700.3" cy="76.6" r="2.5" fill="#22c55e"/><circle cx="718.6" cy="76.6" r="2.5" fill="#22c55e"/><circle cx="736.9" cy="82.8" r="2.5" fill="#22c55e"/><circle cx="755.1" cy="82.8" r="2.5" fill="#22c55e"/><circle cx="773.4" cy="82.8" r="2.5" fill="#22c55e"/><circle cx="791.7" cy="82.8" r="2.5" fill="#22c55e"/><circle cx="810.0" cy="76.6" r="2.5" fill="#22c55e"/><circle cx="828.3" cy="76.6" r="2.5" fill="#22c55e"/><circle cx="846.6" cy="76.6" r="2.5" fill="#22c55e"/><circle cx="864.9" cy="76.6" r="2.5" fill="#22c55e"/><circle cx="883.1" cy="76.6" r="2.5" fill="#22c55e"/><circle cx="901.4" cy="76.6" r="2.5" fill="#22c55e"/><circle cx="919.7" cy="76.6" r="2.5" fill="#22c55e"/><circle cx="938.0" cy="82.8" r="2.5" fill="#22c55e"/><polyline fill="none" stroke="#f59e0b" stroke-width="2.5" stroke-linejoin="round" stroke-linecap="round" points="42.0,273.7 60.3,267.5 78.6,255.2 96.9,249.1 115.1,255.2 133.4,261.4 151.7,261.4 170.0,261.4 188.3,261.4 206.6,261.4 224.9,261.4 243.1,261.4 261.4,261.4 279.7,261.4 298.0,261.4 316.3,267.5 334.6,267.5 352.9,261.4 371.1,255.2 389.4,255.2 407.7,249.1 426.0,249.1 444.3,249.1 462.6,249.1 480.9,249.1 499.1,249.1 517.4,249.1 535.7,249.1 554.0,249.1 572.3,255.2 590.6,255.2 608.9,255.2 627.1,255.2 645.4,261.4 663.7,261.4 682.0,261.4 700.3,261.4 718.6,261.4 736.9,255.2 755.1,255.2 773.4,255.2 791.7,255.2 810.0,261.4 828.3,261.4 846.6,261.4 864.9,261.4 883.1,261.4 901.4,261.4 919.7,261.4 938.0,255.2"/><circle cx="42.0" cy="273.7" r="2.5" fill="#f59e0b"/><circle cx="60.3" cy="267.5" r="2.5" fill="#f59e0b"/><circle cx="78.6" cy="255.2" r="2.5" fill="#f59e0b"/><circle cx="96.9" cy="249.1" r="2.5" fill="#f59e0b"/><circle cx="115.1" cy="255.2" r="2.5" fill="#f59e0b"/><circle cx="133.4" cy="261.4" r="2.5" fill="#f59e0b"/><circle cx="151.7" cy="261.4" r="2.5" fill="#f59e0b"/><circle cx="170.0" cy="261.4" r="2.5" fill="#f59e0b"/><circle cx="188.3" cy="261.4" r="2.5" fill="#f59e0b"/><circle cx="206.6" cy="261.4" r="2.5" fill="#f59e0b"/><circle cx="224.9" cy="261.4" r="2.5" fill="#f59e0b"/><circle cx="243.1" cy="261.4" r="2.5" fill="#f59e0b"/><circle cx="261.4" cy="261.4" r="2.5" fill="#f59e0b"/><circle cx="279.7" cy="261.4" r="2.5" fill="#f59e0b"/><circle cx="298.0" cy="261.4" r="2.5" fill="#f59e0b"/><circle cx="316.3" cy="267.5" r="2.5" fill="#f59e0b"/><circle cx="334.6" cy="267.5" r="2.5" fill="#f59e0b"/><circle cx="352.9" cy="261.4" r="2.5" fill="#f59e0b"/><circle cx="371.1" cy="255.2" r="2.5" fill="#f59e0b"/><circle cx="389.4" cy="255.2" r="2.5" fill="#f59e0b"/><circle cx="407.7" cy="249.1" r="2.5" fill="#f59e0b"/><circle cx="426.0" cy="249.1" r="2.5" fill="#f59e0b"/><circle cx="444.3" cy="249.1" r="2.5" fill="#f59e0b"/><circle cx="462.6" cy="249.1" r="2.5" fill="#f59e0b"/><circle cx="480.9" cy="249.1" r="2.5" fill="#f59e0b"/><circle cx="499.1" cy="249.1" r="2.5" fill="#f59e0b"/><circle cx="517.4" cy="249.1" r="2.5" fill="#f59e0b"/><circle cx="535.7" cy="249.1" r="2.5" fill="#f59e0b"/><circle cx="554.0" cy="249.1" r="2.5" fill="#f59e0b"/><circle cx="572.3" cy="255.2" r="2.5" fill="#f59e0b"/><circle cx="590.6" cy="255.2" r="2.5" fill="#f59e0b"/><circle cx="608.9" cy="255.2" r="2.5" fill="#f59e0b"/><circle cx="627.1" cy="255.2" r="2.5" fill="#f59e0b"/><circle cx="645.4" cy="261.4" r="2.5" fill="#f59e0b"/><circle cx="663.7" cy="261.4" r="2.5" fill="#f59e0b"/><circle cx="682.0" cy="261.4" r="2.5" fill="#f59e0b"/><circle cx="700.3" cy="261.4" r="2.5" fill="#f59e0b"/><circle cx="718.6" cy="261.4" r="2.5" fill="#f59e0b"/><circle cx="736.9" cy="255.2" r="2.5" fill="#f59e0b"/><circle cx="755.1" cy="255.2" r="2.5" fill="#f59e0b"/><circle cx="773.4" cy="255.2" r="2.5" fill="#f59e0b"/><circle cx="791.7" cy="255.2" r="2.5" fill="#f59e0b"/><circle cx="810.0" cy="261.4" r="2.5" fill="#f59e0b"/><circle cx="828.3" cy="261.4" r="2.5" fill="#f59e0b"/><circle cx="846.6" cy="261.4" r="2.5" fill="#f59e0b"/><circle cx="864.9" cy="261.4" r="2.5" fill="#f59e0b"/><circle cx="883.1" cy="261.4" r="2.5" fill="#f59e0b"/><circle cx="901.4" cy="261.4" r="2.5" fill="#f59e0b"/><circle cx="919.7" cy="261.4" r="2.5" fill="#f59e0b"/><circle cx="938.0" cy="255.2" r="2.5" fill="#f59e0b"/><polyline fill="none" stroke="#ef4444" stroke-width="2.5" stroke-linejoin="round" stroke-linecap="round" points="42.0,286.0 60.3,132.1 78.6,286.0 96.9,286.0 115.1,286.0 133.4,286.0 151.7,286.0 170.0,286.0 188.3,286.0 206.6,286.0 224.9,286.0 243.1,286.0 261.4,286.0 279.7,286.0 298.0,286.0 316.3,286.0 334.6,286.0 352.9,279.8 371.1,286.0 389.4,286.0 407.7,286.0 426.0,286.0 444.3,286.0 462.6,286.0 480.9,286.0 499.1,286.0 517.4,286.0 535.7,286.0 554.0,286.0 572.3,286.0 590.6,286.0 608.9,286.0 627.1,286.0 645.4,286.0 663.7,286.0 682.0,286.0 700.3,286.0 718.6,286.0 736.9,286.0 755.1,286.0 773.4,286.0 791.7,286.0 810.0,286.0 828.3,286.0 846.6,286.0 864.9,286.0 883.1,286.0 901.4,286.0 919.7,286.0 938.0,286.0"/><circle cx="42.0" cy="286.0" r="2.5" fill="#ef4444"/><circle cx="60.3" cy="132.1" r="2.5" fill="#ef4444"/><circle cx="78.6" cy="286.0" r="2.5" fill="#ef4444"/><circle cx="96.9" cy="286.0" r="2.5" fill="#ef4444"/><circle cx="115.1" cy="286.0" r="2.5" fill="#ef4444"/><circle cx="133.4" cy="286.0" r="2.5" fill="#ef4444"/><circle cx="151.7" cy="286.0" r="2.5" fill="#ef4444"/><circle cx="170.0" cy="286.0" r="2.5" fill="#ef4444"/><circle cx="188.3" cy="286.0" r="2.5" fill="#ef4444"/><circle cx="206.6" cy="286.0" r="2.5" fill="#ef4444"/><circle cx="224.9" cy="286.0" r="2.5" fill="#ef4444"/><circle cx="243.1" cy="286.0" r="2.5" fill="#ef4444"/><circle cx="261.4" cy="286.0" r="2.5" fill="#ef4444"/><circle cx="279.7" cy="286.0" r="2.5" fill="#ef4444"/><circle cx="298.0" cy="286.0" r="2.5" fill="#ef4444"/><circle cx="316.3" cy="286.0" r="2.5" fill="#ef4444"/><circle cx="334.6" cy="286.0" r="2.5" fill="#ef4444"/><circle cx="352.9" cy="279.8" r="2.5" fill="#ef4444"/><circle cx="371.1" cy="286.0" r="2.5" fill="#ef4444"/><circle cx="389.4" cy="286.0" r="2.5" fill="#ef4444"/><circle cx="407.7" cy="286.0" r="2.5" fill="#ef4444"/><circle cx="426.0" cy="286.0" r="2.5" fill="#ef4444"/><circle cx="444.3" cy="286.0" r="2.5" fill="#ef4444"/><circle cx="462.6" cy="286.0" r="2.5" fill="#ef4444"/><circle cx="480.9" cy="286.0" r="2.5" fill="#ef4444"/><circle cx="499.1" cy="286.0" r="2.5" fill="#ef4444"/><circle cx="517.4" cy="286.0" r="2.5" fill="#ef4444"/><circle cx="535.7" cy="286.0" r="2.5" fill="#ef4444"/><circle cx="554.0" cy="286.0" r="2.5" fill="#ef4444"/><circle cx="572.3" cy="286.0" r="2.5" fill="#ef4444"/><circle cx="590.6" cy="286.0" r="2.5" fill="#ef4444"/><circle cx="608.9" cy="286.0" r="2.5" fill="#ef4444"/><circle cx="627.1" cy="286.0" r="2.5" fill="#ef4444"/><circle cx="645.4" cy="286.0" r="2.5" fill="#ef4444"/><circle cx="663.7" cy="286.0" r="2.5" fill="#ef4444"/><circle cx="682.0" cy="286.0" r="2.5" fill="#ef4444"/><circle cx="700.3" cy="286.0" r="2.5" fill="#ef4444"/><circle cx="718.6" cy="286.0" r="2.5" fill="#ef4444"/><circle cx="736.9" cy="286.0" r="2.5" fill="#ef4444"/><circle cx="755.1" cy="286.0" r="2.5" fill="#ef4444"/><circle cx="773.4" cy="286.0" r="2.5" fill="#ef4444"/><circle cx="791.7" cy="286.0" r="2.5" fill="#ef4444"/><circle cx="810.0" cy="286.0" r="2.5" fill="#ef4444"/><circle cx="828.3" cy="286.0" r="2.5" fill="#ef4444"/><circle cx="846.6" cy="286.0" r="2.5" fill="#ef4444"/><circle cx="864.9" cy="286.0" r="2.5" fill="#ef4444"/><circle cx="883.1" cy="286.0" r="2.5" fill="#ef4444"/><circle cx="901.4" cy="286.0" r="2.5" fill="#ef4444"/><circle cx="919.7" cy="286.0" r="2.5" fill="#ef4444"/><circle cx="938.0" cy="286.0" r="2.5" fill="#ef4444"/><text x="42" y="308" font-size="11" fill="#9fb0d4">19/06 15:39</text><text x="938" y="308" text-anchor="end" font-size="11" fill="#9fb0d4">18/07 15:30</text></svg>