<svg xmlns="http://www.w3.org/2000/svg" viewBox="0 0 960 320" width="960" height="320" font-family="Segoe UI, system-ui, -apple-system, Roboto, Helvetica, Arial, sans-serif" role="img" aria-label="Availability history per region"><rect x="0.5" y="0.5" width="959" height="319" rx="14" fill="#ffffff" stroke="#dce3f1"/><text x="42" y="26" font-size="14" font-weight="600" fill="#14203a">History · 68 points</text><circle cx="47" cy="40" r="5" fill="#22c55e"/><text x="57" y="44" font-size="12" fill="#5a688a">Available</text><circle cx="139.8" cy="40" r="5" fill="#f59e0b"/><text x="149.8" y="44" font-size="12" fill="#5a688a">Saturated</text><circle cx="232.60000000000002" cy="40" r="5" fill="#ef4444"/><text x="242.60000000000002" y="44" font-size="12" fill="#5a688a">Error</text><line x1="42" y1="286.0" x2="938" y2="286.0" stroke="#eef2f7" stroke-width="1"/><text x="35" y="289.0" text-anchor="end" font-size="11" fill="#5a688a">0</text><line x1="42" y1="227.5" x2="938" y2="227.5" stroke="#eef2f7" stroke-width="1"/><text x="35" y="230.5" text-anchor="end" font-size="11" fill="#5a688a">10</text><line x1="42" y1="169.0" x2="938" y2="169.0" stroke="#eef2f7" stroke-width="1"/><text x="35" y="172.0" text-anchor="end" font-size="11" fill="#5a688a">20</text><line x1="42" y1="110.5" x2="938" y2="110.5" stroke="#eef2f7" stroke-width="1"/><text x="35" y="113.5" text-anchor="end" font-size="11" fill="#5a688a">29</text><line x1="42" y1="52.0" x2="938" y2="52.0" stroke="#eef2f7" stroke-width="1"/><text x="35" y="55.0" text-anchor="end" font-size="11" fill="#5a688a">39</text><polyline fill="none" stroke="#22c55e" stroke-width="2.5" stroke-linejoin="round" stroke-linecap="round" points="42.0,70.0 55.4,70.0 68.7,88.0 82.1,88.0 95.5,76.0 108.9,76.0 122.2,76.0 135.6,70.0 149.0,76.0 162.4,70.0 175.7,64.0 189.1,58.0 202.5,58.0 215.9,58.0 229.2,58.0 242.6,58.0 256.0,58.0 269.3,58.0 282.7,58.0 296.1,58.0 309.5,58.0 322.8,58.0 336.2,58.0 349.6,58.0 363.0,58.0 376.3,58.0 389.7,58.0 403.1,58.0 416.4,58.0 429.8,58.0 443.2,58.0 456.6,70.0 469.9,76.0 483.3,94.0 496.7,64.0 510.1,64.0 523.4,58.0 536.8,58.0 550.2,58.0 563.6,70.0 576.9,76.0 590.3,76.0 603.7,82.0 617.0,82.0 630.4,82.0 643.8,82.0 657.2,76.0 670.5,64.0 683.9,70.0 697.3,70.0 710.7,82.0 724.0,76.0 737.4,76.0 750.8,82.0 764.1,76.0 777.5,76.0 790.9,76.0 804.3,64.0 817.6,64.0 831.0,76.0 844.4,76.0 857.8,76.0 871.1,88.0 884.5,70.0 897.9,64.0 911.3,58.0 924.6,58.0 938.0,70.0"/><polyline fill="none" stroke="#f59e0b" stroke-width="2.5" stroke-linejoin="round" stroke-linecap="round" points="42.0,274.0 55.4,274.0 68.7,274.0 82.1,280.0 95.5,268.0 108.9,268.0 122.2,268.0 135.6,274.0 149.0,274.0 162.4,274.0 175.7,280.0 189.1,286.0 202.5,286.0 215.9,286.0 229.2,286.0 242.6,286.0 256.0,286.0 269.3,286.0 282.7,286.0 296.1,286.0 309.5,286.0 322.8,286.0 336.2,286.0 349.6,286.0 363.0,286.0 376.3,286.0 389.7,286.0 403.1,286.0 416.4,286.0 429.8,286.0 443.2,286.0 456.6,274.0 469.9,280.0 483.3,280.0 496.7,280.0 510.1,280.0 523.4,286.0 536.8,286.0 550.2,286.0 563.6,274.0 576.9,268.0 590.3,268.0 603.7,262.0 617.0,262.0 630.4,262.0 643.8,262.0 657.2,268.0 670.5,280.0 683.9,280.0 697.3,274.0 710.7,262.0 724.0,268.0 737.4,268.0 750.8,262.0 764.1,268.0 777.5,268.0 790.9,268.0 804.3,280.0 817.6,280.0 831.0,268.0 844.4,268.0 857.8,268.0 871.1,262.0 884.5,274.0 897.9,280.0 911.3,286.0 924.6,286.0 938.0,274.0"/><polyline fill="none" stroke="#ef4444" stroke-width="2.5" stroke-linejoin="round" stroke-linecap="round" points="42.0,280.0 55.4,280.0 68.7,268.0 82.1,262.0 95.5,286.0 108.9,286.0 122.2,286.0 135.6,286.0 149.0,280.0 162.4,286.0 175.7,286.0 189.1,286.0 202.5,286.0 215.9,286.0 229.2,286.0 242.6,286.0 256.0,286.0 269.3,286.0 282.7,286.0 296.1,286.0 309.5,286.0 322.8,286.0 336.2,286.0 349.6,286.0 363.0,286.0 376.3,286.0 389.7,286.0 403.1,286.0 416.4,286.0 429.8,286.0 443.2,286.0 456.6,286.0 469.9,274.0 483.3,256.0 496.7,286.0 510.1,286.0 523.4,286.0 536.8,286.0 550.2,286.0 563.6,286.0 576.9,286.0 590.3,286.0 603.7,286.0 617.0,286.0 630.4,286.0 643.8,286.0 657.2,286.0 670.5,286.0 683.9,280.0 697.3,286.0 710.7,286.0 724.0,286.0 737.4,286.0 750.8,286.0 764.1,286.0 777.5,286.0 790.9,286.0 804.3,286.0 817.6,286.0 831.0,286.0 844.4,286.0 857.8,286.0 871.1,280.0 884.5,286.0 897.9,286.0 911.3,286.0 924.6,286.0 938.0,286.0"/><text x="42" y="308" font-size="11" fill="#5a688a">19/06 12:43</text><text x="938" y="308" text-anchor="end" font-size="11" fill="#5a688a">26/06 12:44</text></svg>