<svg xmlns="http://www.w3.org/2000/svg" viewBox="0 0 960 320" width="960" height="320" font-family="Segoe UI, system-ui, -apple-system, Roboto, Helvetica, Arial, sans-serif" role="img" aria-label="Availability history per region"><rect x="0.5" y="0.5" width="959" height="319" rx="14" fill="#0d1117" stroke="#2c3a5e"/><text x="42" y="26" font-size="14" font-weight="600" fill="#e6ecff">History · 215 points</text><circle cx="47" cy="40" r="5" fill="#22c55e"/><text x="57" y="44" font-size="12" fill="#9fb0d4">Available</text><circle cx="139.8" cy="40" r="5" fill="#f59e0b"/><text x="149.8" y="44" font-size="12" fill="#9fb0d4">Saturated</text><circle cx="232.60000000000002" cy="40" r="5" fill="#ef4444"/><text x="242.60000000000002" y="44" font-size="12" fill="#9fb0d4">Error</text><circle cx="296.6" cy="40" r="5" fill="#a855f7"/><text x="306.6" y="44" font-size="12" fill="#9fb0d4">Timeout</text><line x1="42" y1="286.0" x2="938" y2="286.0" stroke="#21304f" stroke-width="1"/><text x="35" y="289.0" text-anchor="end" font-size="11" fill="#9fb0d4">0</text><line x1="42" y1="227.5" x2="938" y2="227.5" stroke="#21304f" stroke-width="1"/><text x="35" y="230.5" text-anchor="end" font-size="11" fill="#9fb0d4">10</text><line x1="42" y1="169.0" x2="938" y2="169.0" stroke="#21304f" stroke-width="1"/><text x="35" y="172.0" text-anchor="end" font-size="11" fill="#9fb0d4">20</text><line x1="42" y1="110.5" x2="938" y2="110.5" stroke="#21304f" stroke-width="1"/><text x="35" y="113.5" text-anchor="end" font-size="11" fill="#9fb0d4">29</text><line x1="42" y1="52.0" x2="938" y2="52.0" stroke="#21304f" stroke-width="1"/><text x="35" y="55.0" text-anchor="end" font-size="11" fill="#9fb0d4">39</text><polyline fill="none" stroke="#22c55e" stroke-width="2.5" stroke-linejoin="round" stroke-linecap="round" points="42.0,70.0 46.2,70.0 50.4,88.0 54.6,88.0 58.7,76.0 62.9,76.0 67.1,76.0 71.3,70.0 75.5,76.0 79.7,70.0 83.9,64.0 88.1,58.0 92.2,58.0 96.4,58.0 100.6,58.0 104.8,58.0 109.0,58.0 113.2,58.0 117.4,58.0 121.6,58.0 125.7,58.0 129.9,58.0 134.1,58.0 138.3,58.0 142.5,58.0 146.7,58.0 150.9,58.0 155.0,58.0 159.2,58.0 163.4,58.0 167.6,58.0 171.8,70.0 176.0,76.0 180.2,94.0 184.4,64.0 188.5,64.0 192.7,58.0 196.9,58.0 201.1,58.0 205.3,70.0 209.5,76.0 213.7,76.0 217.9,82.0 222.0,82.0 226.2,82.0 230.4,82.0 234.6,76.0 238.8,64.0 243.0,70.0 247.2,70.0 251.3,82.0 255.5,76.0 259.7,76.0 263.9,82.0 268.1,76.0 272.3,76.0 276.5,76.0 280.7,64.0 284.8,64.0 289.0,76.0 293.2,76.0 297.4,76.0 301.6,88.0 305.8,70.0 310.0,64.0 314.1,58.0 318.3,58.0 322.5,70.0 326.7,70.0 330.9,70.0 335.1,76.0 339.3,70.0 343.5,70.0 347.6,70.0 351.8,70.0 356.0,76.0 360.2,82.0 364.4,76.0 368.6,70.0 372.8,70.0 377.0,70.0 381.1,70.0 385.3,76.0 389.5,70.0 393.7,70.0 397.9,70.0 402.1,70.0 406.3,70.0 410.4,70.0 414.6,70.0 418.8,70.0 423.0,70.0 427.2,70.0 431.4,70.0 435.6,70.0 439.8,70.0 443.9,70.0 448.1,70.0 452.3,70.0 456.5,70.0 460.7,70.0 464.9,70.0 469.1,70.0 473.3,70.0 477.4,70.0 481.6,70.0 485.8,70.0 490.0,70.0 494.2,70.0 498.4,70.0 502.6,70.0 506.7,70.0 510.9,70.0 515.1,70.0 519.3,70.0 523.5,70.0 527.7,70.0 531.9,70.0 536.1,70.0 540.2,70.0 544.4,70.0 548.6,70.0 552.8,70.0 557.0,70.0 561.2,70.0 565.4,70.0 569.6,70.0 573.7,70.0 577.9,70.0 582.1,70.0 586.3,70.0 590.5,70.0 594.7,70.0 598.9,70.0 603.0,70.0 607.2,70.0 611.4,70.0 615.6,70.0 619.8,70.0 624.0,70.0 628.2,70.0 632.4,70.0 636.5,70.0 640.7,70.0 644.9,70.0 649.1,70.0 653.3,70.0 657.5,70.0 661.7,70.0 665.9,70.0 670.0,70.0 674.2,76.0 678.4,70.0 682.6,70.0 686.8,70.0 691.0,70.0 695.2,70.0 699.3,76.0 703.5,76.0 707.7,88.0 711.9,88.0 716.1,88.0 720.3,94.0 724.5,94.0 728.7,94.0 732.8,94.0 737.0,88.0 741.2,88.0 745.4,82.0 749.6,82.0 753.8,82.0 758.0,88.0 762.1,88.0 766.3,94.0 770.5,82.0 774.7,82.0 778.9,82.0 783.1,82.0 787.3,88.0 791.5,88.0 795.6,94.0 799.8,94.0 804.0,88.0 808.2,88.0 812.4,88.0 816.6,94.0 820.8,94.0 825.0,106.0 829.1,94.0 833.3,94.0 837.5,94.0 841.7,94.0 845.9,88.0 850.1,88.0 854.3,82.0 858.4,76.0 862.6,76.0 866.8,76.0 871.0,76.0 875.2,76.0 879.4,76.0 883.6,70.0 887.8,70.0 891.9,70.0 896.1,76.0 900.3,88.0 904.5,82.0 908.7,70.0 912.9,70.0 917.1,70.0 921.3,76.0 925.4,76.0 929.6,76.0 933.8,82.0 938.0,70.0"/><polyline fill="none" stroke="#f59e0b" stroke-width="2.5" stroke-linejoin="round" stroke-linecap="round" points="42.0,274.0 46.2,274.0 50.4,274.0 54.6,280.0 58.7,268.0 62.9,268.0 67.1,268.0 71.3,274.0 75.5,274.0 79.7,274.0 83.9,280.0 88.1,286.0 92.2,286.0 96.4,286.0 100.6,286.0 104.8,286.0 109.0,286.0 113.2,286.0 117.4,286.0 121.6,286.0 125.7,286.0 129.9,286.0 134.1,286.0 138.3,286.0 142.5,286.0 146.7,286.0 150.9,286.0 155.0,286.0 159.2,286.0 163.4,286.0 167.6,286.0 171.8,274.0 176.0,280.0 180.2,280.0 184.4,280.0 188.5,280.0 192.7,286.0 196.9,286.0 201.1,286.0 205.3,274.0 209.5,268.0 213.7,268.0 217.9,262.0 222.0,262.0 226.2,262.0 230.4,262.0 234.6,268.0 238.8,280.0 243.0,280.0 247.2,274.0 251.3,262.0 255.5,268.0 259.7,268.0 263.9,262.0 268.1,268.0 272.3,268.0 276.5,268.0 280.7,280.0 284.8,280.0 289.0,268.0 293.2,268.0 297.4,268.0 301.6,262.0 305.8,274.0 310.0,280.0 314.1,286.0 318.3,286.0 322.5,274.0 326.7,274.0 330.9,274.0 335.1,274.0 339.3,274.0 343.5,274.0 347.6,274.0 351.8,274.0 356.0,280.0 360.2,274.0 364.4,280.0 368.6,286.0 372.8,286.0 377.0,286.0 381.1,286.0 385.3,280.0 389.5,286.0 393.7,286.0 397.9,286.0 402.1,286.0 406.3,286.0 410.4,286.0 414.6,286.0 418.8,286.0 423.0,286.0 427.2,286.0 431.4,286.0 435.6,286.0 439.8,286.0 443.9,286.0 448.1,286.0 452.3,286.0 456.5,286.0 460.7,286.0 464.9,286.0 469.1,286.0 473.3,286.0 477.4,286.0 481.6,286.0 485.8,286.0 490.0,286.0 494.2,286.0 498.4,286.0 502.6,286.0 506.7,286.0 510.9,286.0 515.1,286.0 519.3,286.0 523.5,286.0 527.7,286.0 531.9,286.0 536.1,286.0 540.2,286.0 544.4,286.0 548.6,286.0 552.8,286.0 557.0,286.0 561.2,286.0 565.4,286.0 569.6,286.0 573.7,286.0 577.9,286.0 582.1,286.0 586.3,286.0 590.5,286.0 594.7,286.0 598.9,286.0 603.0,286.0 607.2,286.0 611.4,286.0 615.6,286.0 619.8,286.0 624.0,286.0 628.2,286.0 632.4,286.0 636.5,286.0 640.7,286.0 644.9,286.0 649.1,286.0 653.3,286.0 657.5,286.0 661.7,286.0 665.9,286.0 670.0,286.0 674.2,286.0 678.4,286.0 682.6,286.0 686.8,286.0 691.0,286.0 695.2,286.0 699.3,286.0 703.5,280.0 707.7,268.0 711.9,268.0 716.1,268.0 720.3,268.0 724.5,262.0 728.7,262.0 732.8,262.0 737.0,268.0 741.2,268.0 745.4,274.0 749.6,274.0 753.8,274.0 758.0,268.0 762.1,268.0 766.3,268.0 770.5,274.0 774.7,274.0 778.9,274.0 783.1,274.0 787.3,268.0 791.5,268.0 795.6,262.0 799.8,262.0 804.0,268.0 808.2,268.0 812.4,268.0 816.6,262.0 820.8,262.0 825.0,274.0 829.1,262.0 833.3,262.0 837.5,262.0 841.7,262.0 845.9,268.0 850.1,268.0 854.3,274.0 858.4,280.0 862.6,280.0 866.8,280.0 871.0,280.0 875.2,280.0 879.4,280.0 883.6,286.0 887.8,286.0 891.9,286.0 896.1,280.0 900.3,274.0 904.5,274.0 908.7,280.0 912.9,274.0 917.1,274.0 921.3,268.0 925.4,268.0 929.6,268.0 933.8,268.0 938.0,280.0"/><polyline fill="none" stroke="#ef4444" stroke-width="2.5" stroke-linejoin="round" stroke-linecap="round" points="42.0,280.0 46.2,280.0 50.4,268.0 54.6,262.0 58.7,286.0 62.9,286.0 67.1,286.0 71.3,286.0 75.5,280.0 79.7,286.0 83.9,286.0 88.1,286.0 92.2,286.0 96.4,286.0 100.6,286.0 104.8,286.0 109.0,286.0 113.2,286.0 117.4,286.0 121.6,286.0 125.7,286.0 129.9,286.0 134.1,286.0 138.3,286.0 142.5,286.0 146.7,286.0 150.9,286.0 155.0,286.0 159.2,286.0 163.4,286.0 167.6,286.0 171.8,286.0 176.0,274.0 180.2,256.0 184.4,286.0 188.5,286.0 192.7,286.0 196.9,286.0 201.1,286.0 205.3,286.0 209.5,286.0 213.7,286.0 217.9,286.0 222.0,286.0 226.2,286.0 230.4,286.0 234.6,286.0 238.8,286.0 243.0,280.0 247.2,286.0 251.3,286.0 255.5,286.0 259.7,286.0 263.9,286.0 268.1,286.0 272.3,286.0 276.5,286.0 280.7,286.0 284.8,286.0 289.0,286.0 293.2,286.0 297.4,286.0 301.6,280.0 305.8,286.0 310.0,286.0 314.1,286.0 318.3,286.0 322.5,286.0 326.7,286.0 330.9,286.0 335.1,286.0 339.3,286.0 343.5,286.0 347.6,286.0 351.8,286.0 356.0,274.0 360.2,274.0 364.4,274.0 368.6,274.0 372.8,274.0 377.0,274.0 381.1,274.0 385.3,274.0 389.5,274.0 393.7,274.0 397.9,274.0 402.1,274.0 406.3,274.0 410.4,274.0 414.6,274.0 418.8,274.0 423.0,274.0 427.2,274.0 431.4,274.0 435.6,274.0 439.8,274.0 443.9,274.0 448.1,274.0 452.3,274.0 456.5,274.0 460.7,274.0 464.9,274.0 469.1,274.0 473.3,274.0 477.4,274.0 481.6,274.0 485.8,274.0 490.0,274.0 494.2,274.0 498.4,274.0 502.6,274.0 506.7,274.0 510.9,274.0 515.1,274.0 519.3,274.0 523.5,274.0 527.7,274.0 531.9,274.0 536.1,274.0 540.2,274.0 544.4,274.0 548.6,274.0 552.8,274.0 557.0,274.0 561.2,274.0 565.4,274.0 569.6,274.0 573.7,274.0 577.9,274.0 582.1,274.0 586.3,274.0 590.5,274.0 594.7,274.0 598.9,274.0 603.0,274.0 607.2,274.0 611.4,274.0 615.6,274.0 619.8,274.0 624.0,274.0 628.2,274.0 632.4,274.0 636.5,274.0 640.7,274.0 644.9,274.0 649.1,274.0 653.3,274.0 657.5,274.0 661.7,274.0 665.9,274.0 670.0,274.0 674.2,268.0 678.4,274.0 682.6,274.0 686.8,274.0 691.0,274.0 695.2,274.0 699.3,274.0 703.5,274.0 707.7,274.0 711.9,274.0 716.1,274.0 720.3,268.0 724.5,274.0 728.7,274.0 732.8,274.0 737.0,274.0 741.2,274.0 745.4,274.0 749.6,274.0 753.8,274.0 758.0,274.0 762.1,274.0 766.3,268.0 770.5,274.0 774.7,274.0 778.9,274.0 783.1,274.0 787.3,274.0 791.5,274.0 795.6,274.0 799.8,274.0 804.0,274.0 808.2,274.0 812.4,274.0 816.6,274.0 820.8,274.0 825.0,250.0 829.1,274.0 833.3,274.0 837.5,274.0 841.7,274.0 845.9,274.0 850.1,274.0 854.3,274.0 858.4,274.0 862.6,274.0 866.8,274.0 871.0,274.0 875.2,274.0 879.4,274.0 883.6,274.0 887.8,274.0 891.9,274.0 896.1,274.0 900.3,268.0 904.5,274.0 908.7,280.0 912.9,286.0 917.1,286.0 921.3,286.0 925.4,286.0 929.6,286.0 933.8,280.0 938.0,280.0"/><polyline fill="none" stroke="#a855f7" stroke-width="2.5" stroke-linejoin="round" stroke-linecap="round" points="42.0,286.0 46.2,286.0 50.4,286.0 54.6,286.0 58.7,286.0 62.9,286.0 67.1,286.0 71.3,286.0 75.5,286.0 79.7,286.0 83.9,286.0 88.1,286.0 92.2,286.0 96.4,286.0 100.6,286.0 104.8,286.0 109.0,286.0 113.2,286.0 117.4,286.0 121.6,286.0 125.7,286.0 129.9,286.0 134.1,286.0 138.3,286.0 142.5,286.0 146.7,286.0 150.9,286.0 155.0,286.0 159.2,286.0 163.4,286.0 167.6,286.0 171.8,286.0 176.0,286.0 180.2,286.0 184.4,286.0 188.5,286.0 192.7,286.0 196.9,286.0 201.1,286.0 205.3,286.0 209.5,286.0 213.7,286.0 217.9,286.0 222.0,286.0 226.2,286.0 230.4,286.0 234.6,286.0 238.8,286.0 243.0,286.0 247.2,286.0 251.3,286.0 255.5,286.0 259.7,286.0 263.9,286.0 268.1,286.0 272.3,286.0 276.5,286.0 280.7,286.0 284.8,286.0 289.0,286.0 293.2,286.0 297.4,286.0 301.6,286.0 305.8,286.0 310.0,286.0 314.1,286.0 318.3,286.0 322.5,286.0 326.7,286.0 330.9,286.0 335.1,280.0 339.3,286.0 343.5,286.0 347.6,286.0 351.8,286.0 356.0,286.0 360.2,286.0 364.4,286.0 368.6,286.0 372.8,286.0 377.0,286.0 381.1,286.0 385.3,286.0 389.5,286.0 393.7,286.0 397.9,286.0 402.1,286.0 406.3,286.0 410.4,286.0 414.6,286.0 418.8,286.0 423.0,286.0 427.2,286.0 431.4,286.0 435.6,286.0 439.8,286.0 443.9,286.0 448.1,286.0 452.3,286.0 456.5,286.0 460.7,286.0 464.9,286.0 469.1,286.0 473.3,286.0 477.4,286.0 481.6,286.0 485.8,286.0 490.0,286.0 494.2,286.0 498.4,286.0 502.6,286.0 506.7,286.0 510.9,286.0 515.1,286.0 519.3,286.0 523.5,286.0 527.7,286.0 531.9,286.0 536.1,286.0 540.2,286.0 544.4,286.0 548.6,286.0 552.8,286.0 557.0,286.0 561.2,286.0 565.4,286.0 569.6,286.0 573.7,286.0 577.9,286.0 582.1,286.0 586.3,286.0 590.5,286.0 594.7,286.0 598.9,286.0 603.0,286.0 607.2,286.0 611.4,286.0 615.6,286.0 619.8,286.0 624.0,286.0 628.2,286.0 632.4,286.0 636.5,286.0 640.7,286.0 644.9,286.0 649.1,286.0 653.3,286.0 657.5,286.0 661.7,286.0 665.9,286.0 670.0,286.0 674.2,286.0 678.4,286.0 682.6,286.0 686.8,286.0 691.0,286.0 695.2,286.0 699.3,280.0 703.5,286.0 707.7,286.0 711.9,286.0 716.1,286.0 720.3,286.0 724.5,286.0 728.7,286.0 732.8,286.0 737.0,286.0 741.2,286.0 745.4,286.0 749.6,286.0 753.8,286.0 758.0,286.0 762.1,286.0 766.3,286.0 770.5,286.0 774.7,286.0 778.9,286.0 783.1,286.0 787.3,286.0 791.5,286.0 795.6,286.0 799.8,286.0 804.0,286.0 808.2,286.0 812.4,286.0 816.6,286.0 820.8,286.0 825.0,286.0 829.1,286.0 833.3,286.0 837.5,286.0 841.7,286.0 845.9,286.0 850.1,286.0 854.3,286.0 858.4,286.0 862.6,286.0 866.8,286.0 871.0,286.0 875.2,286.0 879.4,286.0 883.6,286.0 887.8,286.0 891.9,286.0 896.1,286.0 900.3,286.0 904.5,286.0 908.7,286.0 912.9,286.0 917.1,286.0 921.3,286.0 925.4,286.0 929.6,286.0 933.8,286.0 938.0,286.0"/><text x="42" y="308" font-size="11" fill="#9fb0d4">19/06 12:43</text><text x="938" y="308" text-anchor="end" font-size="11" fill="#9fb0d4">01/07 17:32</text></svg>