<svg xmlns="http://www.w3.org/2000/svg" viewBox="0 0 960 320" width="960" height="320" font-family="Segoe UI, system-ui, -apple-system, Roboto, Helvetica, Arial, sans-serif" role="img" aria-label="Availability history per region"><rect x="0.5" y="0.5" width="959" height="319" rx="14" fill="#ffffff" stroke="#dce3f1"/><text x="42" y="26" font-size="14" font-weight="600" fill="#14203a">History · 123 points</text><circle cx="47" cy="40" r="5" fill="#22c55e"/><text x="57" y="44" font-size="12" fill="#5a688a">Available</text><circle cx="139.8" cy="40" r="5" fill="#f59e0b"/><text x="149.8" y="44" font-size="12" fill="#5a688a">Saturated</text><circle cx="232.60000000000002" cy="40" r="5" fill="#ef4444"/><text x="242.60000000000002" y="44" font-size="12" fill="#5a688a">Error</text><circle cx="296.6" cy="40" r="5" fill="#a855f7"/><text x="306.6" y="44" font-size="12" fill="#5a688a">Timeout</text><line x1="42" y1="286.0" x2="938" y2="286.0" stroke="#eef2f7" stroke-width="1"/><text x="35" y="289.0" text-anchor="end" font-size="11" fill="#5a688a">0</text><line x1="42" y1="227.5" x2="938" y2="227.5" stroke="#eef2f7" stroke-width="1"/><text x="35" y="230.5" text-anchor="end" font-size="11" fill="#5a688a">10</text><line x1="42" y1="169.0" x2="938" y2="169.0" stroke="#eef2f7" stroke-width="1"/><text x="35" y="172.0" text-anchor="end" font-size="11" fill="#5a688a">20</text><line x1="42" y1="110.5" x2="938" y2="110.5" stroke="#eef2f7" stroke-width="1"/><text x="35" y="113.5" text-anchor="end" font-size="11" fill="#5a688a">29</text><line x1="42" y1="52.0" x2="938" y2="52.0" stroke="#eef2f7" stroke-width="1"/><text x="35" y="55.0" text-anchor="end" font-size="11" fill="#5a688a">39</text><polyline fill="none" stroke="#22c55e" stroke-width="2.5" stroke-linejoin="round" stroke-linecap="round" points="42.0,70.0 49.3,70.0 56.7,88.0 64.0,88.0 71.4,76.0 78.7,76.0 86.1,76.0 93.4,70.0 100.8,76.0 108.1,70.0 115.4,64.0 122.8,58.0 130.1,58.0 137.5,58.0 144.8,58.0 152.2,58.0 159.5,58.0 166.9,58.0 174.2,58.0 181.5,58.0 188.9,58.0 196.2,58.0 203.6,58.0 210.9,58.0 218.3,58.0 225.6,58.0 233.0,58.0 240.3,58.0 247.6,58.0 255.0,58.0 262.3,58.0 269.7,70.0 277.0,76.0 284.4,94.0 291.7,64.0 299.0,64.0 306.4,58.0 313.7,58.0 321.1,58.0 328.4,70.0 335.8,76.0 343.1,76.0 350.5,82.0 357.8,82.0 365.1,82.0 372.5,82.0 379.8,76.0 387.2,64.0 394.5,70.0 401.9,70.0 409.2,82.0 416.6,76.0 423.9,76.0 431.2,82.0 438.6,76.0 445.9,76.0 453.3,76.0 460.6,64.0 468.0,64.0 475.3,76.0 482.7,76.0 490.0,76.0 497.3,88.0 504.7,70.0 512.0,64.0 519.4,58.0 526.7,58.0 534.1,70.0 541.4,70.0 548.8,70.0 556.1,76.0 563.4,70.0 570.8,70.0 578.1,70.0 585.5,70.0 592.8,76.0 600.2,82.0 607.5,76.0 614.9,70.0 622.2,70.0 629.5,70.0 636.9,70.0 644.2,76.0 651.6,70.0 658.9,70.0 666.3,70.0 673.6,70.0 681.0,70.0 688.3,70.0 695.6,70.0 703.0,70.0 710.3,70.0 717.7,70.0 725.0,70.0 732.4,70.0 739.7,70.0 747.0,70.0 754.4,70.0 761.7,70.0 769.1,70.0 776.4,70.0 783.8,70.0 791.1,70.0 798.5,70.0 805.8,70.0 813.1,70.0 820.5,70.0 827.8,70.0 835.2,70.0 842.5,70.0 849.9,70.0 857.2,70.0 864.6,70.0 871.9,70.0 879.2,70.0 886.6,70.0 893.9,70.0 901.3,70.0 908.6,70.0 916.0,70.0 923.3,70.0 930.7,70.0 938.0,70.0"/><polyline fill="none" stroke="#f59e0b" stroke-width="2.5" stroke-linejoin="round" stroke-linecap="round" points="42.0,274.0 49.3,274.0 56.7,274.0 64.0,280.0 71.4,268.0 78.7,268.0 86.1,268.0 93.4,274.0 100.8,274.0 108.1,274.0 115.4,280.0 122.8,286.0 130.1,286.0 137.5,286.0 144.8,286.0 152.2,286.0 159.5,286.0 166.9,286.0 174.2,286.0 181.5,286.0 188.9,286.0 196.2,286.0 203.6,286.0 210.9,286.0 218.3,286.0 225.6,286.0 233.0,286.0 240.3,286.0 247.6,286.0 255.0,286.0 262.3,286.0 269.7,274.0 277.0,280.0 284.4,280.0 291.7,280.0 299.0,280.0 306.4,286.0 313.7,286.0 321.1,286.0 328.4,274.0 335.8,268.0 343.1,268.0 350.5,262.0 357.8,262.0 365.1,262.0 372.5,262.0 379.8,268.0 387.2,280.0 394.5,280.0 401.9,274.0 409.2,262.0 416.6,268.0 423.9,268.0 431.2,262.0 438.6,268.0 445.9,268.0 453.3,268.0 460.6,280.0 468.0,280.0 475.3,268.0 482.7,268.0 490.0,268.0 497.3,262.0 504.7,274.0 512.0,280.0 519.4,286.0 526.7,286.0 534.1,274.0 541.4,274.0 548.8,274.0 556.1,274.0 563.4,274.0 570.8,274.0 578.1,274.0 585.5,274.0 592.8,280.0 600.2,274.0 607.5,280.0 614.9,286.0 622.2,286.0 629.5,286.0 636.9,286.0 644.2,280.0 651.6,286.0 658.9,286.0 666.3,286.0 673.6,286.0 681.0,286.0 688.3,286.0 695.6,286.0 703.0,286.0 710.3,286.0 717.7,286.0 725.0,286.0 732.4,286.0 739.7,286.0 747.0,286.0 754.4,286.0 761.7,286.0 769.1,286.0 776.4,286.0 783.8,286.0 791.1,286.0 798.5,286.0 805.8,286.0 813.1,286.0 820.5,286.0 827.8,286.0 835.2,286.0 842.5,286.0 849.9,286.0 857.2,286.0 864.6,286.0 871.9,286.0 879.2,286.0 886.6,286.0 893.9,286.0 901.3,286.0 908.6,286.0 916.0,286.0 923.3,286.0 930.7,286.0 938.0,286.0"/><polyline fill="none" stroke="#ef4444" stroke-width="2.5" stroke-linejoin="round" stroke-linecap="round" points="42.0,280.0 49.3,280.0 56.7,268.0 64.0,262.0 71.4,286.0 78.7,286.0 86.1,286.0 93.4,286.0 100.8,280.0 108.1,286.0 115.4,286.0 122.8,286.0 130.1,286.0 137.5,286.0 144.8,286.0 152.2,286.0 159.5,286.0 166.9,286.0 174.2,286.0 181.5,286.0 188.9,286.0 196.2,286.0 203.6,286.0 210.9,286.0 218.3,286.0 225.6,286.0 233.0,286.0 240.3,286.0 247.6,286.0 255.0,286.0 262.3,286.0 269.7,286.0 277.0,274.0 284.4,256.0 291.7,286.0 299.0,286.0 306.4,286.0 313.7,286.0 321.1,286.0 328.4,286.0 335.8,286.0 343.1,286.0 350.5,286.0 357.8,286.0 365.1,286.0 372.5,286.0 379.8,286.0 387.2,286.0 394.5,280.0 401.9,286.0 409.2,286.0 416.6,286.0 423.9,286.0 431.2,286.0 438.6,286.0 445.9,286.0 453.3,286.0 460.6,286.0 468.0,286.0 475.3,286.0 482.7,286.0 490.0,286.0 497.3,280.0 504.7,286.0 512.0,286.0 519.4,286.0 526.7,286.0 534.1,286.0 541.4,286.0 548.8,286.0 556.1,286.0 563.4,286.0 570.8,286.0 578.1,286.0 585.5,286.0 592.8,274.0 600.2,274.0 607.5,274.0 614.9,274.0 622.2,274.0 629.5,274.0 636.9,274.0 644.2,274.0 651.6,274.0 658.9,274.0 666.3,274.0 673.6,274.0 681.0,274.0 688.3,274.0 695.6,274.0 703.0,274.0 710.3,274.0 717.7,274.0 725.0,274.0 732.4,274.0 739.7,274.0 747.0,274.0 754.4,274.0 761.7,274.0 769.1,274.0 776.4,274.0 783.8,274.0 791.1,274.0 798.5,274.0 805.8,274.0 813.1,274.0 820.5,274.0 827.8,274.0 835.2,274.0 842.5,274.0 849.9,274.0 857.2,274.0 864.6,274.0 871.9,274.0 879.2,274.0 886.6,274.0 893.9,274.0 901.3,274.0 908.6,274.0 916.0,274.0 923.3,274.0 930.7,274.0 938.0,274.0"/><polyline fill="none" stroke="#a855f7" stroke-width="2.5" stroke-linejoin="round" stroke-linecap="round" points="42.0,286.0 49.3,286.0 56.7,286.0 64.0,286.0 71.4,286.0 78.7,286.0 86.1,286.0 93.4,286.0 100.8,286.0 108.1,286.0 115.4,286.0 122.8,286.0 130.1,286.0 137.5,286.0 144.8,286.0 152.2,286.0 159.5,286.0 166.9,286.0 174.2,286.0 181.5,286.0 188.9,286.0 196.2,286.0 203.6,286.0 210.9,286.0 218.3,286.0 225.6,286.0 233.0,286.0 240.3,286.0 247.6,286.0 255.0,286.0 262.3,286.0 269.7,286.0 277.0,286.0 284.4,286.0 291.7,286.0 299.0,286.0 306.4,286.0 313.7,286.0 321.1,286.0 328.4,286.0 335.8,286.0 343.1,286.0 350.5,286.0 357.8,286.0 365.1,286.0 372.5,286.0 379.8,286.0 387.2,286.0 394.5,286.0 401.9,286.0 409.2,286.0 416.6,286.0 423.9,286.0 431.2,286.0 438.6,286.0 445.9,286.0 453.3,286.0 460.6,286.0 468.0,286.0 475.3,286.0 482.7,286.0 490.0,286.0 497.3,286.0 504.7,286.0 512.0,286.0 519.4,286.0 526.7,286.0 534.1,286.0 541.4,286.0 548.8,286.0 556.1,280.0 563.4,286.0 570.8,286.0 578.1,286.0 585.5,286.0 592.8,286.0 600.2,286.0 607.5,286.0 614.9,286.0 622.2,286.0 629.5,286.0 636.9,286.0 644.2,286.0 651.6,286.0 658.9,286.0 666.3,286.0 673.6,286.0 681.0,286.0 688.3,286.0 695.6,286.0 703.0,286.0 710.3,286.0 717.7,286.0 725.0,286.0 732.4,286.0 739.7,286.0 747.0,286.0 754.4,286.0 761.7,286.0 769.1,286.0 776.4,286.0 783.8,286.0 791.1,286.0 798.5,286.0 805.8,286.0 813.1,286.0 820.5,286.0 827.8,286.0 835.2,286.0 842.5,286.0 849.9,286.0 857.2,286.0 864.6,286.0 871.9,286.0 879.2,286.0 886.6,286.0 893.9,286.0 901.3,286.0 908.6,286.0 916.0,286.0 923.3,286.0 930.7,286.0 938.0,286.0"/><text x="42" y="308" font-size="11" fill="#5a688a">19/06 12:43</text><text x="938" y="308" text-anchor="end" font-size="11" fill="#5a688a">28/06 06:31</text></svg>