<svg xmlns="http://www.w3.org/2000/svg" viewBox="0 0 960 320" width="960" height="320" font-family="Segoe UI, system-ui, -apple-system, Roboto, Helvetica, Arial, sans-serif" role="img" aria-label="Availability history per region"><rect x="0.5" y="0.5" width="959" height="319" rx="14" fill="#0d1117" stroke="#2c3a5e"/><text x="42" y="26" font-size="14" font-weight="600" fill="#e6ecff">History · 151 points</text><circle cx="47" cy="40" r="5" fill="#22c55e"/><text x="57" y="44" font-size="12" fill="#9fb0d4">Available</text><circle cx="139.8" cy="40" r="5" fill="#f59e0b"/><text x="149.8" y="44" font-size="12" fill="#9fb0d4">Saturated</text><circle cx="232.60000000000002" cy="40" r="5" fill="#ef4444"/><text x="242.60000000000002" y="44" font-size="12" fill="#9fb0d4">Error</text><circle cx="296.6" cy="40" r="5" fill="#a855f7"/><text x="306.6" y="44" font-size="12" fill="#9fb0d4">Timeout</text><line x1="42" y1="286.0" x2="938" y2="286.0" stroke="#21304f" stroke-width="1"/><text x="35" y="289.0" text-anchor="end" font-size="11" fill="#9fb0d4">0</text><line x1="42" y1="227.5" x2="938" y2="227.5" stroke="#21304f" stroke-width="1"/><text x="35" y="230.5" text-anchor="end" font-size="11" fill="#9fb0d4">10</text><line x1="42" y1="169.0" x2="938" y2="169.0" stroke="#21304f" stroke-width="1"/><text x="35" y="172.0" text-anchor="end" font-size="11" fill="#9fb0d4">20</text><line x1="42" y1="110.5" x2="938" y2="110.5" stroke="#21304f" stroke-width="1"/><text x="35" y="113.5" text-anchor="end" font-size="11" fill="#9fb0d4">29</text><line x1="42" y1="52.0" x2="938" y2="52.0" stroke="#21304f" stroke-width="1"/><text x="35" y="55.0" text-anchor="end" font-size="11" fill="#9fb0d4">39</text><polyline fill="none" stroke="#22c55e" stroke-width="2.5" stroke-linejoin="round" stroke-linecap="round" points="42.0,70.0 48.0,70.0 53.9,88.0 59.9,88.0 65.9,76.0 71.9,76.0 77.8,76.0 83.8,70.0 89.8,76.0 95.8,70.0 101.7,64.0 107.7,58.0 113.7,58.0 119.7,58.0 125.6,58.0 131.6,58.0 137.6,58.0 143.5,58.0 149.5,58.0 155.5,58.0 161.5,58.0 167.4,58.0 173.4,58.0 179.4,58.0 185.4,58.0 191.3,58.0 197.3,58.0 203.3,58.0 209.3,58.0 215.2,58.0 221.2,58.0 227.2,70.0 233.1,76.0 239.1,94.0 245.1,64.0 251.1,64.0 257.0,58.0 263.0,58.0 269.0,58.0 275.0,70.0 280.9,76.0 286.9,76.0 292.9,82.0 298.9,82.0 304.8,82.0 310.8,82.0 316.8,76.0 322.7,64.0 328.7,70.0 334.7,70.0 340.7,82.0 346.6,76.0 352.6,76.0 358.6,82.0 364.6,76.0 370.5,76.0 376.5,76.0 382.5,64.0 388.5,64.0 394.4,76.0 400.4,76.0 406.4,76.0 412.3,88.0 418.3,70.0 424.3,64.0 430.3,58.0 436.2,58.0 442.2,70.0 448.2,70.0 454.2,70.0 460.1,76.0 466.1,70.0 472.1,70.0 478.1,70.0 484.0,70.0 490.0,76.0 496.0,82.0 501.9,76.0 507.9,70.0 513.9,70.0 519.9,70.0 525.8,70.0 531.8,76.0 537.8,70.0 543.8,70.0 549.7,70.0 555.7,70.0 561.7,70.0 567.7,70.0 573.6,70.0 579.6,70.0 585.6,70.0 591.5,70.0 597.5,70.0 603.5,70.0 609.5,70.0 615.4,70.0 621.4,70.0 627.4,70.0 633.4,70.0 639.3,70.0 645.3,70.0 651.3,70.0 657.3,70.0 663.2,70.0 669.2,70.0 675.2,70.0 681.1,70.0 687.1,70.0 693.1,70.0 699.1,70.0 705.0,70.0 711.0,70.0 717.0,70.0 723.0,70.0 728.9,70.0 734.9,70.0 740.9,70.0 746.9,70.0 752.8,70.0 758.8,70.0 764.8,70.0 770.7,70.0 776.7,70.0 782.7,70.0 788.7,70.0 794.6,70.0 800.6,70.0 806.6,70.0 812.6,70.0 818.5,70.0 824.5,70.0 830.5,70.0 836.5,70.0 842.4,70.0 848.4,70.0 854.4,70.0 860.3,70.0 866.3,70.0 872.3,70.0 878.3,70.0 884.2,70.0 890.2,70.0 896.2,70.0 902.2,70.0 908.1,70.0 914.1,70.0 920.1,70.0 926.1,70.0 932.0,70.0 938.0,70.0"/><polyline fill="none" stroke="#f59e0b" stroke-width="2.5" stroke-linejoin="round" stroke-linecap="round" points="42.0,274.0 48.0,274.0 53.9,274.0 59.9,280.0 65.9,268.0 71.9,268.0 77.8,268.0 83.8,274.0 89.8,274.0 95.8,274.0 101.7,280.0 107.7,286.0 113.7,286.0 119.7,286.0 125.6,286.0 131.6,286.0 137.6,286.0 143.5,286.0 149.5,286.0 155.5,286.0 161.5,286.0 167.4,286.0 173.4,286.0 179.4,286.0 185.4,286.0 191.3,286.0 197.3,286.0 203.3,286.0 209.3,286.0 215.2,286.0 221.2,286.0 227.2,274.0 233.1,280.0 239.1,280.0 245.1,280.0 251.1,280.0 257.0,286.0 263.0,286.0 269.0,286.0 275.0,274.0 280.9,268.0 286.9,268.0 292.9,262.0 298.9,262.0 304.8,262.0 310.8,262.0 316.8,268.0 322.7,280.0 328.7,280.0 334.7,274.0 340.7,262.0 346.6,268.0 352.6,268.0 358.6,262.0 364.6,268.0 370.5,268.0 376.5,268.0 382.5,280.0 388.5,280.0 394.4,268.0 400.4,268.0 406.4,268.0 412.3,262.0 418.3,274.0 424.3,280.0 430.3,286.0 436.2,286.0 442.2,274.0 448.2,274.0 454.2,274.0 460.1,274.0 466.1,274.0 472.1,274.0 478.1,274.0 484.0,274.0 490.0,280.0 496.0,274.0 501.9,280.0 507.9,286.0 513.9,286.0 519.9,286.0 525.8,286.0 531.8,280.0 537.8,286.0 543.8,286.0 549.7,286.0 555.7,286.0 561.7,286.0 567.7,286.0 573.6,286.0 579.6,286.0 585.6,286.0 591.5,286.0 597.5,286.0 603.5,286.0 609.5,286.0 615.4,286.0 621.4,286.0 627.4,286.0 633.4,286.0 639.3,286.0 645.3,286.0 651.3,286.0 657.3,286.0 663.2,286.0 669.2,286.0 675.2,286.0 681.1,286.0 687.1,286.0 693.1,286.0 699.1,286.0 705.0,286.0 711.0,286.0 717.0,286.0 723.0,286.0 728.9,286.0 734.9,286.0 740.9,286.0 746.9,286.0 752.8,286.0 758.8,286.0 764.8,286.0 770.7,286.0 776.7,286.0 782.7,286.0 788.7,286.0 794.6,286.0 800.6,286.0 806.6,286.0 812.6,286.0 818.5,286.0 824.5,286.0 830.5,286.0 836.5,286.0 842.4,286.0 848.4,286.0 854.4,286.0 860.3,286.0 866.3,286.0 872.3,286.0 878.3,286.0 884.2,286.0 890.2,286.0 896.2,286.0 902.2,286.0 908.1,286.0 914.1,286.0 920.1,286.0 926.1,286.0 932.0,286.0 938.0,286.0"/><polyline fill="none" stroke="#ef4444" stroke-width="2.5" stroke-linejoin="round" stroke-linecap="round" points="42.0,280.0 48.0,280.0 53.9,268.0 59.9,262.0 65.9,286.0 71.9,286.0 77.8,286.0 83.8,286.0 89.8,280.0 95.8,286.0 101.7,286.0 107.7,286.0 113.7,286.0 119.7,286.0 125.6,286.0 131.6,286.0 137.6,286.0 143.5,286.0 149.5,286.0 155.5,286.0 161.5,286.0 167.4,286.0 173.4,286.0 179.4,286.0 185.4,286.0 191.3,286.0 197.3,286.0 203.3,286.0 209.3,286.0 215.2,286.0 221.2,286.0 227.2,286.0 233.1,274.0 239.1,256.0 245.1,286.0 251.1,286.0 257.0,286.0 263.0,286.0 269.0,286.0 275.0,286.0 280.9,286.0 286.9,286.0 292.9,286.0 298.9,286.0 304.8,286.0 310.8,286.0 316.8,286.0 322.7,286.0 328.7,280.0 334.7,286.0 340.7,286.0 346.6,286.0 352.6,286.0 358.6,286.0 364.6,286.0 370.5,286.0 376.5,286.0 382.5,286.0 388.5,286.0 394.4,286.0 400.4,286.0 406.4,286.0 412.3,280.0 418.3,286.0 424.3,286.0 430.3,286.0 436.2,286.0 442.2,286.0 448.2,286.0 454.2,286.0 460.1,286.0 466.1,286.0 472.1,286.0 478.1,286.0 484.0,286.0 490.0,274.0 496.0,274.0 501.9,274.0 507.9,274.0 513.9,274.0 519.9,274.0 525.8,274.0 531.8,274.0 537.8,274.0 543.8,274.0 549.7,274.0 555.7,274.0 561.7,274.0 567.7,274.0 573.6,274.0 579.6,274.0 585.6,274.0 591.5,274.0 597.5,274.0 603.5,274.0 609.5,274.0 615.4,274.0 621.4,274.0 627.4,274.0 633.4,274.0 639.3,274.0 645.3,274.0 651.3,274.0 657.3,274.0 663.2,274.0 669.2,274.0 675.2,274.0 681.1,274.0 687.1,274.0 693.1,274.0 699.1,274.0 705.0,274.0 711.0,274.0 717.0,274.0 723.0,274.0 728.9,274.0 734.9,274.0 740.9,274.0 746.9,274.0 752.8,274.0 758.8,274.0 764.8,274.0 770.7,274.0 776.7,274.0 782.7,274.0 788.7,274.0 794.6,274.0 800.6,274.0 806.6,274.0 812.6,274.0 818.5,274.0 824.5,274.0 830.5,274.0 836.5,274.0 842.4,274.0 848.4,274.0 854.4,274.0 860.3,274.0 866.3,274.0 872.3,274.0 878.3,274.0 884.2,274.0 890.2,274.0 896.2,274.0 902.2,274.0 908.1,274.0 914.1,274.0 920.1,274.0 926.1,274.0 932.0,274.0 938.0,274.0"/><polyline fill="none" stroke="#a855f7" stroke-width="2.5" stroke-linejoin="round" stroke-linecap="round" points="42.0,286.0 48.0,286.0 53.9,286.0 59.9,286.0 65.9,286.0 71.9,286.0 77.8,286.0 83.8,286.0 89.8,286.0 95.8,286.0 101.7,286.0 107.7,286.0 113.7,286.0 119.7,286.0 125.6,286.0 131.6,286.0 137.6,286.0 143.5,286.0 149.5,286.0 155.5,286.0 161.5,286.0 167.4,286.0 173.4,286.0 179.4,286.0 185.4,286.0 191.3,286.0 197.3,286.0 203.3,286.0 209.3,286.0 215.2,286.0 221.2,286.0 227.2,286.0 233.1,286.0 239.1,286.0 245.1,286.0 251.1,286.0 257.0,286.0 263.0,286.0 269.0,286.0 275.0,286.0 280.9,286.0 286.9,286.0 292.9,286.0 298.9,286.0 304.8,286.0 310.8,286.0 316.8,286.0 322.7,286.0 328.7,286.0 334.7,286.0 340.7,286.0 346.6,286.0 352.6,286.0 358.6,286.0 364.6,286.0 370.5,286.0 376.5,286.0 382.5,286.0 388.5,286.0 394.4,286.0 400.4,286.0 406.4,286.0 412.3,286.0 418.3,286.0 424.3,286.0 430.3,286.0 436.2,286.0 442.2,286.0 448.2,286.0 454.2,286.0 460.1,280.0 466.1,286.0 472.1,286.0 478.1,286.0 484.0,286.0 490.0,286.0 496.0,286.0 501.9,286.0 507.9,286.0 513.9,286.0 519.9,286.0 525.8,286.0 531.8,286.0 537.8,286.0 543.8,286.0 549.7,286.0 555.7,286.0 561.7,286.0 567.7,286.0 573.6,286.0 579.6,286.0 585.6,286.0 591.5,286.0 597.5,286.0 603.5,286.0 609.5,286.0 615.4,286.0 621.4,286.0 627.4,286.0 633.4,286.0 639.3,286.0 645.3,286.0 651.3,286.0 657.3,286.0 663.2,286.0 669.2,286.0 675.2,286.0 681.1,286.0 687.1,286.0 693.1,286.0 699.1,286.0 705.0,286.0 711.0,286.0 717.0,286.0 723.0,286.0 728.9,286.0 734.9,286.0 740.9,286.0 746.9,286.0 752.8,286.0 758.8,286.0 764.8,286.0 770.7,286.0 776.7,286.0 782.7,286.0 788.7,286.0 794.6,286.0 800.6,286.0 806.6,286.0 812.6,286.0 818.5,286.0 824.5,286.0 830.5,286.0 836.5,286.0 842.4,286.0 848.4,286.0 854.4,286.0 860.3,286.0 866.3,286.0 872.3,286.0 878.3,286.0 884.2,286.0 890.2,286.0 896.2,286.0 902.2,286.0 908.1,286.0 914.1,286.0 920.1,286.0 926.1,286.0 932.0,286.0 938.0,286.0"/><text x="42" y="308" font-size="11" fill="#9fb0d4">19/06 12:43</text><text x="938" y="308" text-anchor="end" font-size="11" fill="#9fb0d4">29/06 02:30</text></svg>