<svg xmlns="http://www.w3.org/2000/svg" viewBox="0 0 960 320" width="960" height="320" font-family="Segoe UI, system-ui, -apple-system, Roboto, Helvetica, Arial, sans-serif" role="img" aria-label="Availability history per region"><rect x="0.5" y="0.5" width="959" height="319" rx="14" fill="#ffffff" stroke="#dce3f1"/><text x="42" y="26" font-size="14" font-weight="600" fill="#14203a">History · 120 points</text><circle cx="47" cy="40" r="5" fill="#22c55e"/><text x="57" y="44" font-size="12" fill="#5a688a">Available</text><circle cx="139.8" cy="40" r="5" fill="#f59e0b"/><text x="149.8" y="44" font-size="12" fill="#5a688a">Saturated</text><circle cx="232.60000000000002" cy="40" r="5" fill="#ef4444"/><text x="242.60000000000002" y="44" font-size="12" fill="#5a688a">Error</text><circle cx="296.6" cy="40" r="5" fill="#a855f7"/><text x="306.6" y="44" font-size="12" fill="#5a688a">Timeout</text><line x1="42" y1="286.0" x2="938" y2="286.0" stroke="#eef2f7" stroke-width="1"/><text x="35" y="289.0" text-anchor="end" font-size="11" fill="#5a688a">0</text><line x1="42" y1="227.5" x2="938" y2="227.5" stroke="#eef2f7" stroke-width="1"/><text x="35" y="230.5" text-anchor="end" font-size="11" fill="#5a688a">10</text><line x1="42" y1="169.0" x2="938" y2="169.0" stroke="#eef2f7" stroke-width="1"/><text x="35" y="172.0" text-anchor="end" font-size="11" fill="#5a688a">19</text><line x1="42" y1="110.5" x2="938" y2="110.5" stroke="#eef2f7" stroke-width="1"/><text x="35" y="113.5" text-anchor="end" font-size="11" fill="#5a688a">28</text><line x1="42" y1="52.0" x2="938" y2="52.0" stroke="#eef2f7" stroke-width="1"/><text x="35" y="55.0" text-anchor="end" font-size="11" fill="#5a688a">38</text><polyline fill="none" stroke="#22c55e" stroke-width="2.5" stroke-linejoin="round" stroke-linecap="round" points="42.0,64.3 49.5,224.4 57.1,82.8 64.6,88.9 72.1,82.8 79.6,76.6 87.2,76.6 94.7,76.6 102.2,76.6 109.8,76.6 117.3,76.6 124.8,76.6 132.4,76.6 139.9,76.6 147.4,76.6 154.9,70.5 162.5,70.5 170.0,82.8 177.5,82.8 185.1,82.8 192.6,88.9 200.1,88.9 207.6,88.9 215.2,88.9 222.7,88.9 230.2,88.9 237.8,88.9 245.3,88.9 252.8,88.9 260.4,82.8 267.9,82.8 275.4,82.8 282.9,82.8 290.5,76.6 298.0,76.6 305.5,76.6 313.1,76.6 320.6,76.6 328.1,82.8 335.6,82.8 343.2,82.8 350.7,82.8 358.2,76.6 365.8,76.6 373.3,76.6 380.8,76.6 388.4,76.6 395.9,76.6 403.4,76.6 410.9,82.8 418.5,82.8 426.0,82.8 433.5,82.8 441.1,76.6 448.6,76.6 456.1,76.6 463.6,76.6 471.2,76.6 478.7,76.6 486.2,76.6 493.8,76.6 501.3,82.8 508.8,76.6 516.4,76.6 523.9,76.6 531.4,76.6 538.9,76.6 546.5,82.8 554.0,76.6 561.5,76.6 569.1,76.6 576.6,76.6 584.1,76.6 591.6,76.6 599.2,76.6 606.7,76.6 614.2,76.6 621.8,70.5 629.3,70.5 636.8,70.5 644.4,70.5 651.9,76.6 659.4,70.5 666.9,76.6 674.5,76.6 682.0,76.6 689.5,76.6 697.1,76.6 704.6,76.6 712.1,82.8 719.6,88.9 727.2,88.9 734.7,88.9 742.2,88.9 749.8,88.9 757.3,88.9 764.8,88.9 772.4,95.1 779.9,88.9 787.4,88.9 794.9,88.9 802.5,88.9 810.0,88.9 817.5,88.9 825.1,82.8 832.6,82.8 840.1,82.8 847.6,82.8 855.2,82.8 862.7,82.8 870.2,82.8 877.8,82.8 885.3,88.9 892.8,88.9 900.4,88.9 907.9,88.9 915.4,88.9 922.9,88.9 930.5,88.9 938.0,88.9"/><polyline fill="none" stroke="#f59e0b" stroke-width="2.5" stroke-linejoin="round" stroke-linecap="round" points="42.0,273.7 49.5,267.5 57.1,255.2 64.6,249.1 72.1,255.2 79.6,261.4 87.2,261.4 94.7,261.4 102.2,261.4 109.8,261.4 117.3,261.4 124.8,261.4 132.4,261.4 139.9,261.4 147.4,261.4 154.9,267.5 162.5,267.5 170.0,261.4 177.5,255.2 185.1,255.2 192.6,249.1 200.1,249.1 207.6,249.1 215.2,249.1 222.7,249.1 230.2,249.1 237.8,249.1 245.3,249.1 252.8,249.1 260.4,255.2 267.9,255.2 275.4,255.2 282.9,255.2 290.5,261.4 298.0,261.4 305.5,261.4 313.1,261.4 320.6,261.4 328.1,255.2 335.6,255.2 343.2,255.2 350.7,255.2 358.2,261.4 365.8,261.4 373.3,261.4 380.8,261.4 388.4,261.4 395.9,261.4 403.4,261.4 410.9,255.2 418.5,255.2 426.0,255.2 433.5,261.4 441.1,261.4 448.6,261.4 456.1,261.4 463.6,261.4 471.2,261.4 478.7,261.4 486.2,261.4 493.8,261.4 501.3,255.2 508.8,261.4 516.4,261.4 523.9,261.4 531.4,261.4 538.9,261.4 546.5,261.4 554.0,261.4 561.5,261.4 569.1,261.4 576.6,261.4 584.1,261.4 591.6,261.4 599.2,261.4 606.7,261.4 614.2,261.4 621.8,267.5 629.3,267.5 636.8,267.5 644.4,267.5 651.9,267.5 659.4,267.5 666.9,261.4 674.5,261.4 682.0,261.4 689.5,261.4 697.1,261.4 704.6,261.4 712.1,255.2 719.6,249.1 727.2,249.1 734.7,255.2 742.2,249.1 749.8,249.1 757.3,249.1 764.8,249.1 772.4,249.1 779.9,249.1 787.4,255.2 794.9,249.1 802.5,249.1 810.0,249.1 817.5,249.1 825.1,255.2 832.6,255.2 840.1,255.2 847.6,255.2 855.2,255.2 862.7,255.2 870.2,255.2 877.8,255.2 885.3,249.1 892.8,249.1 900.4,249.1 907.9,249.1 915.4,249.1 922.9,249.1 930.5,249.1 938.0,255.2"/><polyline fill="none" stroke="#ef4444" stroke-width="2.5" stroke-linejoin="round" stroke-linecap="round" points="42.0,286.0 49.5,132.1 57.1,286.0 64.6,286.0 72.1,286.0 79.6,286.0 87.2,286.0 94.7,286.0 102.2,286.0 109.8,286.0 117.3,286.0 124.8,286.0 132.4,286.0 139.9,286.0 147.4,286.0 154.9,286.0 162.5,286.0 170.0,279.8 177.5,286.0 185.1,286.0 192.6,286.0 200.1,286.0 207.6,286.0 215.2,286.0 222.7,286.0 230.2,286.0 237.8,286.0 245.3,286.0 252.8,286.0 260.4,286.0 267.9,286.0 275.4,286.0 282.9,286.0 290.5,286.0 298.0,286.0 305.5,286.0 313.1,286.0 320.6,286.0 328.1,286.0 335.6,286.0 343.2,286.0 350.7,286.0 358.2,286.0 365.8,286.0 373.3,286.0 380.8,286.0 388.4,286.0 395.9,286.0 403.4,286.0 410.9,286.0 418.5,286.0 426.0,286.0 433.5,286.0 441.1,286.0 448.6,286.0 456.1,286.0 463.6,286.0 471.2,286.0 478.7,286.0 486.2,286.0 493.8,286.0 501.3,286.0 508.8,286.0 516.4,286.0 523.9,286.0 531.4,286.0 538.9,286.0 546.5,279.8 554.0,286.0 561.5,286.0 569.1,286.0 576.6,286.0 584.1,286.0 591.6,286.0 599.2,286.0 606.7,286.0 614.2,286.0 621.8,286.0 629.3,286.0 636.8,286.0 644.4,286.0 651.9,279.8 659.4,286.0 666.9,286.0 674.5,286.0 682.0,286.0 689.5,286.0 697.1,286.0 704.6,286.0 712.1,286.0 719.6,286.0 727.2,286.0 734.7,279.8 742.2,286.0 749.8,286.0 757.3,286.0 764.8,286.0 772.4,279.8 779.9,286.0 787.4,286.0 794.9,286.0 802.5,286.0 810.0,286.0 817.5,286.0 825.1,286.0 832.6,286.0 840.1,286.0 847.6,286.0 855.2,286.0 862.7,286.0 870.2,286.0 877.8,286.0 885.3,286.0 892.8,286.0 900.4,286.0 907.9,286.0 915.4,286.0 922.9,286.0 930.5,286.0 938.0,286.0"/><polyline fill="none" stroke="#a855f7" stroke-width="2.5" stroke-linejoin="round" stroke-linecap="round" points="42.0,286.0 49.5,286.0 57.1,286.0 64.6,286.0 72.1,286.0 79.6,286.0 87.2,286.0 94.7,286.0 102.2,286.0 109.8,286.0 117.3,286.0 124.8,286.0 132.4,286.0 139.9,286.0 147.4,286.0 154.9,286.0 162.5,286.0 170.0,286.0 177.5,286.0 185.1,286.0 192.6,286.0 200.1,286.0 207.6,286.0 215.2,286.0 222.7,286.0 230.2,286.0 237.8,286.0 245.3,286.0 252.8,286.0 260.4,286.0 267.9,286.0 275.4,286.0 282.9,286.0 290.5,286.0 298.0,286.0 305.5,286.0 313.1,286.0 320.6,286.0 328.1,286.0 335.6,286.0 343.2,286.0 350.7,286.0 358.2,286.0 365.8,286.0 373.3,286.0 380.8,286.0 388.4,286.0 395.9,286.0 403.4,286.0 410.9,286.0 418.5,286.0 426.0,286.0 433.5,279.8 441.1,286.0 448.6,286.0 456.1,286.0 463.6,286.0 471.2,286.0 478.7,286.0 486.2,286.0 493.8,286.0 501.3,286.0 508.8,286.0 516.4,286.0 523.9,286.0 531.4,286.0 538.9,286.0 546.5,286.0 554.0,286.0 561.5,286.0 569.1,286.0 576.6,286.0 584.1,286.0 591.6,286.0 599.2,286.0 606.7,286.0 614.2,286.0 621.8,286.0 629.3,286.0 636.8,286.0 644.4,286.0 651.9,286.0 659.4,286.0 666.9,286.0 674.5,286.0 682.0,286.0 689.5,286.0 697.1,286.0 704.6,286.0 712.1,286.0 719.6,286.0 727.2,286.0 734.7,286.0 742.2,286.0 749.8,286.0 757.3,286.0 764.8,286.0 772.4,286.0 779.9,286.0 787.4,279.8 794.9,286.0 802.5,286.0 810.0,286.0 817.5,286.0 825.1,286.0 832.6,286.0 840.1,286.0 847.6,286.0 855.2,286.0 862.7,286.0 870.2,286.0 877.8,286.0 885.3,286.0 892.8,286.0 900.4,286.0 907.9,286.0 915.4,286.0 922.9,286.0 930.5,286.0 938.0,279.8"/><text x="42" y="308" font-size="11" fill="#5a688a">19/06 15:39</text><text x="938" y="308" text-anchor="end" font-size="11" fill="#5a688a">21/07 14:35</text></svg>