<svg xmlns="http://www.w3.org/2000/svg" viewBox="0 0 960 320" width="960" height="320" font-family="Segoe UI, system-ui, -apple-system, Roboto, Helvetica, Arial, sans-serif" role="img" aria-label="Availability history per region"><rect x="0.5" y="0.5" width="959" height="319" rx="14" fill="#ffffff" stroke="#dce3f1"/><text x="42" y="26" font-size="14" font-weight="600" fill="#14203a">History · 185 points</text><circle cx="47" cy="40" r="5" fill="#22c55e"/><text x="57" y="44" font-size="12" fill="#5a688a">Available</text><circle cx="139.8" cy="40" r="5" fill="#f59e0b"/><text x="149.8" y="44" font-size="12" fill="#5a688a">Saturated</text><circle cx="232.60000000000002" cy="40" r="5" fill="#ef4444"/><text x="242.60000000000002" y="44" font-size="12" fill="#5a688a">Error</text><circle cx="296.6" cy="40" r="5" fill="#a855f7"/><text x="306.6" y="44" font-size="12" fill="#5a688a">Timeout</text><line x1="42" y1="286.0" x2="938" y2="286.0" stroke="#eef2f7" stroke-width="1"/><text x="35" y="289.0" text-anchor="end" font-size="11" fill="#5a688a">0</text><line x1="42" y1="227.5" x2="938" y2="227.5" stroke="#eef2f7" stroke-width="1"/><text x="35" y="230.5" text-anchor="end" font-size="11" fill="#5a688a">10</text><line x1="42" y1="169.0" x2="938" y2="169.0" stroke="#eef2f7" stroke-width="1"/><text x="35" y="172.0" text-anchor="end" font-size="11" fill="#5a688a">21</text><line x1="42" y1="110.5" x2="938" y2="110.5" stroke="#eef2f7" stroke-width="1"/><text x="35" y="113.5" text-anchor="end" font-size="11" fill="#5a688a">32</text><line x1="42" y1="52.0" x2="938" y2="52.0" stroke="#eef2f7" stroke-width="1"/><text x="35" y="55.0" text-anchor="end" font-size="11" fill="#5a688a">42</text><polyline fill="none" stroke="#22c55e" stroke-width="2.5" stroke-linejoin="round" stroke-linecap="round" points="42.0,85.4 46.9,230.3 51.7,102.1 56.6,107.7 61.5,102.1 66.3,96.6 71.2,96.6 76.1,96.6 81.0,96.6 85.8,96.6 90.7,96.6 95.6,96.6 100.4,96.6 105.3,96.6 110.2,96.6 115.0,91.0 119.9,91.0 124.8,102.1 129.7,102.1 134.5,102.1 139.4,107.7 144.3,107.7 149.1,107.7 154.0,107.7 158.9,107.7 163.7,107.7 168.6,107.7 173.5,107.7 178.3,107.7 183.2,102.1 188.1,102.1 193.0,102.1 197.8,102.1 202.7,96.6 207.6,96.6 212.4,96.6 217.3,96.6 222.2,96.6 227.0,102.1 231.9,102.1 236.8,102.1 241.7,102.1 246.5,96.6 251.4,96.6 256.3,96.6 261.1,96.6 266.0,96.6 270.9,96.6 275.7,96.6 280.6,102.1 285.5,102.1 290.3,102.1 295.2,102.1 300.1,96.6 305.0,96.6 309.8,96.6 314.7,96.6 319.6,96.6 324.4,96.6 329.3,96.6 334.2,96.6 339.0,102.1 343.9,96.6 348.8,96.6 353.7,96.6 358.5,96.6 363.4,96.6 368.3,102.1 373.1,96.6 378.0,96.6 382.9,96.6 387.7,96.6 392.6,96.6 397.5,96.6 402.3,96.6 407.2,96.6 412.1,96.6 417.0,91.0 421.8,91.0 426.7,91.0 431.6,91.0 436.4,96.6 441.3,91.0 446.2,96.6 451.0,96.6 455.9,96.6 460.8,96.6 465.7,96.6 470.5,96.6 475.4,102.1 480.3,107.7 485.1,107.7 490.0,107.7 494.9,107.7 499.7,107.7 504.6,107.7 509.5,107.7 514.3,113.3 519.2,107.7 524.1,107.7 529.0,107.7 533.8,107.7 538.7,107.7 543.6,107.7 548.4,102.1 553.3,102.1 558.2,102.1 563.0,102.1 567.9,102.1 572.8,102.1 577.7,102.1 582.5,102.1 587.4,107.7 592.3,107.7 597.1,107.7 602.0,107.7 606.9,107.7 611.7,107.7 616.6,107.7 621.5,107.7 626.3,113.3 631.2,107.7 636.1,107.7 641.0,107.7 645.8,118.9 650.7,107.7 655.6,107.7 660.4,107.7 665.3,107.7 670.2,102.1 675.0,102.1 679.9,102.1 684.8,102.1 689.7,107.7 694.5,102.1 699.4,107.7 704.3,107.7 709.1,107.7 714.0,107.7 718.9,113.3 723.7,107.7 728.6,107.7 733.5,107.7 738.3,107.7 743.2,107.7 748.1,107.7 753.0,107.7 757.8,107.7 762.7,113.3 767.6,102.1 772.4,102.1 777.3,102.1 782.2,102.1 787.0,102.1 791.9,102.1 796.8,102.1 801.7,102.1 806.5,102.1 811.4,102.1 816.3,107.7 821.1,102.1 826.0,102.1 830.9,102.1 835.7,102.1 840.6,102.1 845.5,102.1 850.3,102.1 855.2,102.1 860.1,107.7 865.0,91.0 869.8,85.4 874.7,79.9 879.6,79.9 884.4,79.9 889.3,79.9 894.2,79.9 899.0,79.9 903.9,79.9 908.8,91.0 913.7,96.6 918.5,91.0 923.4,91.0 928.3,91.0 933.1,91.0 938.0,91.0"/><polyline fill="none" stroke="#f59e0b" stroke-width="2.5" stroke-linejoin="round" stroke-linecap="round" points="42.0,274.9 46.9,269.3 51.7,258.1 56.6,252.6 61.5,258.1 66.3,263.7 71.2,263.7 76.1,263.7 81.0,263.7 85.8,263.7 90.7,263.7 95.6,263.7 100.4,263.7 105.3,263.7 110.2,263.7 115.0,269.3 119.9,269.3 124.8,263.7 129.7,258.1 134.5,258.1 139.4,252.6 144.3,252.6 149.1,252.6 154.0,252.6 158.9,252.6 163.7,252.6 168.6,252.6 173.5,252.6 178.3,252.6 183.2,258.1 188.1,258.1 193.0,258.1 197.8,258.1 202.7,263.7 207.6,263.7 212.4,263.7 217.3,263.7 222.2,263.7 227.0,258.1 231.9,258.1 236.8,258.1 241.7,258.1 246.5,263.7 251.4,263.7 256.3,263.7 261.1,263.7 266.0,263.7 270.9,263.7 275.7,263.7 280.6,258.1 285.5,258.1 290.3,258.1 295.2,263.7 300.1,263.7 305.0,263.7 309.8,263.7 314.7,263.7 319.6,263.7 324.4,263.7 329.3,263.7 334.2,263.7 339.0,258.1 343.9,263.7 348.8,263.7 353.7,263.7 358.5,263.7 363.4,263.7 368.3,263.7 373.1,263.7 378.0,263.7 382.9,263.7 387.7,263.7 392.6,263.7 397.5,263.7 402.3,263.7 407.2,263.7 412.1,263.7 417.0,269.3 421.8,269.3 426.7,269.3 431.6,269.3 436.4,269.3 441.3,269.3 446.2,263.7 451.0,263.7 455.9,263.7 460.8,263.7 465.7,263.7 470.5,263.7 475.4,258.1 480.3,252.6 485.1,252.6 490.0,258.1 494.9,252.6 499.7,252.6 504.6,252.6 509.5,252.6 514.3,252.6 519.2,252.6 524.1,258.1 529.0,252.6 533.8,252.6 538.7,252.6 543.6,252.6 548.4,258.1 553.3,258.1 558.2,258.1 563.0,258.1 567.9,258.1 572.8,258.1 577.7,258.1 582.5,258.1 587.4,252.6 592.3,252.6 597.1,252.6 602.0,252.6 606.9,252.6 611.7,252.6 616.6,252.6 621.5,258.1 626.3,252.6 631.2,252.6 636.1,252.6 641.0,252.6 645.8,252.6 650.7,252.6 655.6,252.6 660.4,258.1 665.3,258.1 670.2,258.1 675.0,258.1 679.9,258.1 684.8,258.1 689.7,258.1 694.5,258.1 699.4,252.6 704.3,252.6 709.1,252.6 714.0,252.6 718.9,252.6 723.7,252.6 728.6,252.6 733.5,252.6 738.3,252.6 743.2,252.6 748.1,252.6 753.0,252.6 757.8,252.6 762.7,252.6 767.6,258.1 772.4,258.1 777.3,258.1 782.2,258.1 787.0,258.1 791.9,263.7 796.8,263.7 801.7,258.1 806.5,258.1 811.4,258.1 816.3,258.1 821.1,258.1 826.0,258.1 830.9,258.1 835.7,258.1 840.6,258.1 845.5,258.1 850.3,258.1 855.2,258.1 860.1,258.1 865.0,258.1 869.8,258.1 874.7,258.1 879.6,258.1 884.4,258.1 889.3,258.1 894.2,258.1 899.0,258.1 903.9,258.1 908.8,258.1 913.7,258.1 918.5,258.1 923.4,258.1 928.3,258.1 933.1,258.1 938.0,258.1"/><polyline fill="none" stroke="#ef4444" stroke-width="2.5" stroke-linejoin="round" stroke-linecap="round" points="42.0,286.0 46.9,146.7 51.7,286.0 56.6,286.0 61.5,286.0 66.3,286.0 71.2,286.0 76.1,286.0 81.0,286.0 85.8,286.0 90.7,286.0 95.6,286.0 100.4,286.0 105.3,286.0 110.2,286.0 115.0,286.0 119.9,286.0 124.8,280.4 129.7,286.0 134.5,286.0 139.4,286.0 144.3,286.0 149.1,286.0 154.0,286.0 158.9,286.0 163.7,286.0 168.6,286.0 173.5,286.0 178.3,286.0 183.2,286.0 188.1,286.0 193.0,286.0 197.8,286.0 202.7,286.0 207.6,286.0 212.4,286.0 217.3,286.0 222.2,286.0 227.0,286.0 231.9,286.0 236.8,286.0 241.7,286.0 246.5,286.0 251.4,286.0 256.3,286.0 261.1,286.0 266.0,286.0 270.9,286.0 275.7,286.0 280.6,286.0 285.5,286.0 290.3,286.0 295.2,286.0 300.1,286.0 305.0,286.0 309.8,286.0 314.7,286.0 319.6,286.0 324.4,286.0 329.3,286.0 334.2,286.0 339.0,286.0 343.9,286.0 348.8,286.0 353.7,286.0 358.5,286.0 363.4,286.0 368.3,280.4 373.1,286.0 378.0,286.0 382.9,286.0 387.7,286.0 392.6,286.0 397.5,286.0 402.3,286.0 407.2,286.0 412.1,286.0 417.0,286.0 421.8,286.0 426.7,286.0 431.6,286.0 436.4,280.4 441.3,286.0 446.2,286.0 451.0,286.0 455.9,286.0 460.8,286.0 465.7,286.0 470.5,286.0 475.4,286.0 480.3,286.0 485.1,286.0 490.0,280.4 494.9,286.0 499.7,286.0 504.6,286.0 509.5,286.0 514.3,280.4 519.2,286.0 524.1,286.0 529.0,286.0 533.8,286.0 538.7,286.0 543.6,286.0 548.4,286.0 553.3,286.0 558.2,286.0 563.0,286.0 567.9,286.0 572.8,286.0 577.7,286.0 582.5,286.0 587.4,286.0 592.3,286.0 597.1,286.0 602.0,286.0 606.9,286.0 611.7,286.0 616.6,286.0 621.5,286.0 626.3,280.4 631.2,286.0 636.1,286.0 641.0,286.0 645.8,274.9 650.7,286.0 655.6,286.0 660.4,280.4 665.3,280.4 670.2,286.0 675.0,286.0 679.9,286.0 684.8,286.0 689.7,280.4 694.5,286.0 699.4,286.0 704.3,286.0 709.1,286.0 714.0,286.0 718.9,286.0 723.7,286.0 728.6,286.0 733.5,286.0 738.3,286.0 743.2,286.0 748.1,286.0 753.0,286.0 757.8,286.0 762.7,286.0 767.6,286.0 772.4,286.0 777.3,286.0 782.2,286.0 787.0,286.0 791.9,280.4 796.8,286.0 801.7,286.0 806.5,286.0 811.4,263.7 816.3,280.4 821.1,286.0 826.0,286.0 830.9,286.0 835.7,286.0 840.6,286.0 845.5,286.0 850.3,286.0 855.2,286.0 860.1,258.1 865.0,274.9 869.8,280.4 874.7,286.0 879.6,286.0 884.4,286.0 889.3,286.0 894.2,286.0 899.0,286.0 903.9,286.0 908.8,274.9 913.7,269.3 918.5,274.9 923.4,274.9 928.3,274.9 933.1,274.9 938.0,274.9"/><polyline fill="none" stroke="#a855f7" stroke-width="2.5" stroke-linejoin="round" stroke-linecap="round" points="42.0,286.0 46.9,286.0 51.7,286.0 56.6,286.0 61.5,286.0 66.3,286.0 71.2,286.0 76.1,286.0 81.0,286.0 85.8,286.0 90.7,286.0 95.6,286.0 100.4,286.0 105.3,286.0 110.2,286.0 115.0,286.0 119.9,286.0 124.8,286.0 129.7,286.0 134.5,286.0 139.4,286.0 144.3,286.0 149.1,286.0 154.0,286.0 158.9,286.0 163.7,286.0 168.6,286.0 173.5,286.0 178.3,286.0 183.2,286.0 188.1,286.0 193.0,286.0 197.8,286.0 202.7,286.0 207.6,286.0 212.4,286.0 217.3,286.0 222.2,286.0 227.0,286.0 231.9,286.0 236.8,286.0 241.7,286.0 246.5,286.0 251.4,286.0 256.3,286.0 261.1,286.0 266.0,286.0 270.9,286.0 275.7,286.0 280.6,286.0 285.5,286.0 290.3,286.0 295.2,280.4 300.1,286.0 305.0,286.0 309.8,286.0 314.7,286.0 319.6,286.0 324.4,286.0 329.3,286.0 334.2,286.0 339.0,286.0 343.9,286.0 348.8,286.0 353.7,286.0 358.5,286.0 363.4,286.0 368.3,286.0 373.1,286.0 378.0,286.0 382.9,286.0 387.7,286.0 392.6,286.0 397.5,286.0 402.3,286.0 407.2,286.0 412.1,286.0 417.0,286.0 421.8,286.0 426.7,286.0 431.6,286.0 436.4,286.0 441.3,286.0 446.2,286.0 451.0,286.0 455.9,286.0 460.8,286.0 465.7,286.0 470.5,286.0 475.4,286.0 480.3,286.0 485.1,286.0 490.0,286.0 494.9,286.0 499.7,286.0 504.6,286.0 509.5,286.0 514.3,286.0 519.2,286.0 524.1,280.4 529.0,286.0 533.8,286.0 538.7,286.0 543.6,286.0 548.4,286.0 553.3,286.0 558.2,286.0 563.0,286.0 567.9,286.0 572.8,286.0 577.7,286.0 582.5,286.0 587.4,286.0 592.3,286.0 597.1,286.0 602.0,286.0 606.9,286.0 611.7,286.0 616.6,286.0 621.5,280.4 626.3,286.0 631.2,286.0 636.1,286.0 641.0,286.0 645.8,286.0 650.7,286.0 655.6,286.0 660.4,286.0 665.3,286.0 670.2,286.0 675.0,286.0 679.9,286.0 684.8,286.0 689.7,286.0 694.5,286.0 699.4,286.0 704.3,286.0 709.1,286.0 714.0,286.0 718.9,280.4 723.7,286.0 728.6,286.0 733.5,286.0 738.3,286.0 743.2,286.0 748.1,286.0 753.0,286.0 757.8,286.0 762.7,280.4 767.6,286.0 772.4,286.0 777.3,286.0 782.2,286.0 787.0,286.0 791.9,286.0 796.8,280.4 801.7,286.0 806.5,286.0 811.4,286.0 816.3,286.0 821.1,286.0 826.0,286.0 830.9,286.0 835.7,286.0 840.6,286.0 845.5,286.0 850.3,286.0 855.2,286.0 860.1,286.0 865.0,286.0 869.8,286.0 874.7,286.0 879.6,286.0 884.4,286.0 889.3,286.0 894.2,286.0 899.0,286.0 903.9,286.0 908.8,286.0 913.7,286.0 918.5,286.0 923.4,286.0 928.3,286.0 933.1,286.0 938.0,286.0"/><text x="42" y="308" font-size="11" fill="#5a688a">19/06 15:39</text><text x="938" y="308" text-anchor="end" font-size="11" fill="#5a688a">24/07 07:30</text></svg>