<svg xmlns="http://www.w3.org/2000/svg" viewBox="0 0 960 320" width="960" height="320" font-family="Segoe UI, system-ui, -apple-system, Roboto, Helvetica, Arial, sans-serif" role="img" aria-label="Availability history per region"><rect x="0.5" y="0.5" width="959" height="319" rx="14" fill="#ffffff" stroke="#dce3f1"/><text x="42" y="26" font-size="14" font-weight="600" fill="#14203a">History · 78 points</text><circle cx="47" cy="40" r="5" fill="#22c55e"/><text x="57" y="44" font-size="12" fill="#5a688a">Available</text><circle cx="139.8" cy="40" r="5" fill="#f59e0b"/><text x="149.8" y="44" font-size="12" fill="#5a688a">Saturated</text><circle cx="232.60000000000002" cy="40" r="5" fill="#ef4444"/><text x="242.60000000000002" y="44" font-size="12" fill="#5a688a">Error</text><circle cx="296.6" cy="40" r="5" fill="#a855f7"/><text x="306.6" y="44" font-size="12" fill="#5a688a">Timeout</text><line x1="42" y1="286.0" x2="938" y2="286.0" stroke="#eef2f7" stroke-width="1"/><text x="35" y="289.0" text-anchor="end" font-size="11" fill="#5a688a">0</text><line x1="42" y1="227.5" x2="938" y2="227.5" stroke="#eef2f7" stroke-width="1"/><text x="35" y="230.5" text-anchor="end" font-size="11" fill="#5a688a">10</text><line x1="42" y1="169.0" x2="938" y2="169.0" stroke="#eef2f7" stroke-width="1"/><text x="35" y="172.0" text-anchor="end" font-size="11" fill="#5a688a">20</text><line x1="42" y1="110.5" x2="938" y2="110.5" stroke="#eef2f7" stroke-width="1"/><text x="35" y="113.5" text-anchor="end" font-size="11" fill="#5a688a">29</text><line x1="42" y1="52.0" x2="938" y2="52.0" stroke="#eef2f7" stroke-width="1"/><text x="35" y="55.0" text-anchor="end" font-size="11" fill="#5a688a">39</text><polyline fill="none" stroke="#22c55e" stroke-width="2.5" stroke-linejoin="round" stroke-linecap="round" points="42.0,70.0 53.6,70.0 65.3,88.0 76.9,88.0 88.5,76.0 100.2,76.0 111.8,76.0 123.5,70.0 135.1,76.0 146.7,70.0 158.4,64.0 170.0,58.0 181.6,58.0 193.3,58.0 204.9,58.0 216.5,58.0 228.2,58.0 239.8,58.0 251.5,58.0 263.1,58.0 274.7,58.0 286.4,58.0 298.0,58.0 309.6,58.0 321.3,58.0 332.9,58.0 344.5,58.0 356.2,58.0 367.8,58.0 379.5,58.0 391.1,58.0 402.7,70.0 414.4,76.0 426.0,94.0 437.6,64.0 449.3,64.0 460.9,58.0 472.5,58.0 484.2,58.0 495.8,70.0 507.5,76.0 519.1,76.0 530.7,82.0 542.4,82.0 554.0,82.0 565.6,82.0 577.3,76.0 588.9,64.0 600.5,70.0 612.2,70.0 623.8,82.0 635.5,76.0 647.1,76.0 658.7,82.0 670.4,76.0 682.0,76.0 693.6,76.0 705.3,64.0 716.9,64.0 728.5,76.0 740.2,76.0 751.8,76.0 763.5,88.0 775.1,70.0 786.7,64.0 798.4,58.0 810.0,58.0 821.6,70.0 833.3,70.0 844.9,70.0 856.5,76.0 868.2,70.0 879.8,70.0 891.5,70.0 903.1,70.0 914.7,76.0 926.4,82.0 938.0,76.0"/><polyline fill="none" stroke="#f59e0b" stroke-width="2.5" stroke-linejoin="round" stroke-linecap="round" points="42.0,274.0 53.6,274.0 65.3,274.0 76.9,280.0 88.5,268.0 100.2,268.0 111.8,268.0 123.5,274.0 135.1,274.0 146.7,274.0 158.4,280.0 170.0,286.0 181.6,286.0 193.3,286.0 204.9,286.0 216.5,286.0 228.2,286.0 239.8,286.0 251.5,286.0 263.1,286.0 274.7,286.0 286.4,286.0 298.0,286.0 309.6,286.0 321.3,286.0 332.9,286.0 344.5,286.0 356.2,286.0 367.8,286.0 379.5,286.0 391.1,286.0 402.7,274.0 414.4,280.0 426.0,280.0 437.6,280.0 449.3,280.0 460.9,286.0 472.5,286.0 484.2,286.0 495.8,274.0 507.5,268.0 519.1,268.0 530.7,262.0 542.4,262.0 554.0,262.0 565.6,262.0 577.3,268.0 588.9,280.0 600.5,280.0 612.2,274.0 623.8,262.0 635.5,268.0 647.1,268.0 658.7,262.0 670.4,268.0 682.0,268.0 693.6,268.0 705.3,280.0 716.9,280.0 728.5,268.0 740.2,268.0 751.8,268.0 763.5,262.0 775.1,274.0 786.7,280.0 798.4,286.0 810.0,286.0 821.6,274.0 833.3,274.0 844.9,274.0 856.5,274.0 868.2,274.0 879.8,274.0 891.5,274.0 903.1,274.0 914.7,280.0 926.4,274.0 938.0,280.0"/><polyline fill="none" stroke="#ef4444" stroke-width="2.5" stroke-linejoin="round" stroke-linecap="round" points="42.0,280.0 53.6,280.0 65.3,268.0 76.9,262.0 88.5,286.0 100.2,286.0 111.8,286.0 123.5,286.0 135.1,280.0 146.7,286.0 158.4,286.0 170.0,286.0 181.6,286.0 193.3,286.0 204.9,286.0 216.5,286.0 228.2,286.0 239.8,286.0 251.5,286.0 263.1,286.0 274.7,286.0 286.4,286.0 298.0,286.0 309.6,286.0 321.3,286.0 332.9,286.0 344.5,286.0 356.2,286.0 367.8,286.0 379.5,286.0 391.1,286.0 402.7,286.0 414.4,274.0 426.0,256.0 437.6,286.0 449.3,286.0 460.9,286.0 472.5,286.0 484.2,286.0 495.8,286.0 507.5,286.0 519.1,286.0 530.7,286.0 542.4,286.0 554.0,286.0 565.6,286.0 577.3,286.0 588.9,286.0 600.5,280.0 612.2,286.0 623.8,286.0 635.5,286.0 647.1,286.0 658.7,286.0 670.4,286.0 682.0,286.0 693.6,286.0 705.3,286.0 716.9,286.0 728.5,286.0 740.2,286.0 751.8,286.0 763.5,280.0 775.1,286.0 786.7,286.0 798.4,286.0 810.0,286.0 821.6,286.0 833.3,286.0 844.9,286.0 856.5,286.0 868.2,286.0 879.8,286.0 891.5,286.0 903.1,286.0 914.7,274.0 926.4,274.0 938.0,274.0"/><polyline fill="none" stroke="#a855f7" stroke-width="2.5" stroke-linejoin="round" stroke-linecap="round" points="42.0,286.0 53.6,286.0 65.3,286.0 76.9,286.0 88.5,286.0 100.2,286.0 111.8,286.0 123.5,286.0 135.1,286.0 146.7,286.0 158.4,286.0 170.0,286.0 181.6,286.0 193.3,286.0 204.9,286.0 216.5,286.0 228.2,286.0 239.8,286.0 251.5,286.0 263.1,286.0 274.7,286.0 286.4,286.0 298.0,286.0 309.6,286.0 321.3,286.0 332.9,286.0 344.5,286.0 356.2,286.0 367.8,286.0 379.5,286.0 391.1,286.0 402.7,286.0 414.4,286.0 426.0,286.0 437.6,286.0 449.3,286.0 460.9,286.0 472.5,286.0 484.2,286.0 495.8,286.0 507.5,286.0 519.1,286.0 530.7,286.0 542.4,286.0 554.0,286.0 565.6,286.0 577.3,286.0 588.9,286.0 600.5,286.0 612.2,286.0 623.8,286.0 635.5,286.0 647.1,286.0 658.7,286.0 670.4,286.0 682.0,286.0 693.6,286.0 705.3,286.0 716.9,286.0 728.5,286.0 740.2,286.0 751.8,286.0 763.5,286.0 775.1,286.0 786.7,286.0 798.4,286.0 810.0,286.0 821.6,286.0 833.3,286.0 844.9,286.0 856.5,280.0 868.2,286.0 879.8,286.0 891.5,286.0 903.1,286.0 914.7,286.0 926.4,286.0 938.0,286.0"/><text x="42" y="308" font-size="11" fill="#5a688a">19/06 12:43</text><text x="938" y="308" text-anchor="end" font-size="11" fill="#5a688a">26/06 21:31</text></svg>