<svg xmlns="http://www.w3.org/2000/svg" viewBox="0 0 960 320" width="960" height="320" font-family="Segoe UI, system-ui, -apple-system, Roboto, Helvetica, Arial, sans-serif" role="img" aria-label="Availability history per region"><rect x="0.5" y="0.5" width="959" height="319" rx="14" fill="#0d1117" stroke="#2c3a5e"/><text x="42" y="26" font-size="14" font-weight="600" fill="#e6ecff">History · 253 points</text><circle cx="47" cy="40" r="5" fill="#22c55e"/><text x="57" y="44" font-size="12" fill="#9fb0d4">Available</text><circle cx="139.8" cy="40" r="5" fill="#f59e0b"/><text x="149.8" y="44" font-size="12" fill="#9fb0d4">Saturated</text><circle cx="232.60000000000002" cy="40" r="5" fill="#ef4444"/><text x="242.60000000000002" y="44" font-size="12" fill="#9fb0d4">Error</text><circle cx="296.6" cy="40" r="5" fill="#a855f7"/><text x="306.6" y="44" font-size="12" fill="#9fb0d4">Timeout</text><line x1="42" y1="286.0" x2="938" y2="286.0" stroke="#21304f" stroke-width="1"/><text x="35" y="289.0" text-anchor="end" font-size="11" fill="#9fb0d4">0</text><line x1="42" y1="227.5" x2="938" y2="227.5" stroke="#21304f" stroke-width="1"/><text x="35" y="230.5" text-anchor="end" font-size="11" fill="#9fb0d4">10</text><line x1="42" y1="169.0" x2="938" y2="169.0" stroke="#21304f" stroke-width="1"/><text x="35" y="172.0" text-anchor="end" font-size="11" fill="#9fb0d4">20</text><line x1="42" y1="110.5" x2="938" y2="110.5" stroke="#21304f" stroke-width="1"/><text x="35" y="113.5" text-anchor="end" font-size="11" fill="#9fb0d4">29</text><line x1="42" y1="52.0" x2="938" y2="52.0" stroke="#21304f" stroke-width="1"/><text x="35" y="55.0" text-anchor="end" font-size="11" fill="#9fb0d4">39</text><polyline fill="none" stroke="#22c55e" stroke-width="2.5" stroke-linejoin="round" stroke-linecap="round" points="42.0,70.0 45.6,70.0 49.1,88.0 52.7,88.0 56.2,76.0 59.8,76.0 63.3,76.0 66.9,70.0 70.4,76.0 74.0,70.0 77.6,64.0 81.1,58.0 84.7,58.0 88.2,58.0 91.8,58.0 95.3,58.0 98.9,58.0 102.4,58.0 106.0,58.0 109.6,58.0 113.1,58.0 116.7,58.0 120.2,58.0 123.8,58.0 127.3,58.0 130.9,58.0 134.4,58.0 138.0,58.0 141.6,58.0 145.1,58.0 148.7,58.0 152.2,70.0 155.8,76.0 159.3,94.0 162.9,64.0 166.4,64.0 170.0,58.0 173.6,58.0 177.1,58.0 180.7,70.0 184.2,76.0 187.8,76.0 191.3,82.0 194.9,82.0 198.4,82.0 202.0,82.0 205.6,76.0 209.1,64.0 212.7,70.0 216.2,70.0 219.8,82.0 223.3,76.0 226.9,76.0 230.4,82.0 234.0,76.0 237.6,76.0 241.1,76.0 244.7,64.0 248.2,64.0 251.8,76.0 255.3,76.0 258.9,76.0 262.4,88.0 266.0,70.0 269.6,64.0 273.1,58.0 276.7,58.0 280.2,70.0 283.8,70.0 287.3,70.0 290.9,76.0 294.4,70.0 298.0,70.0 301.6,70.0 305.1,70.0 308.7,76.0 312.2,82.0 315.8,76.0 319.3,70.0 322.9,70.0 326.4,70.0 330.0,70.0 333.6,76.0 337.1,70.0 340.7,70.0 344.2,70.0 347.8,70.0 351.3,70.0 354.9,70.0 358.4,70.0 362.0,70.0 365.6,70.0 369.1,70.0 372.7,70.0 376.2,70.0 379.8,70.0 383.3,70.0 386.9,70.0 390.4,70.0 394.0,70.0 397.6,70.0 401.1,70.0 404.7,70.0 408.2,70.0 411.8,70.0 415.3,70.0 418.9,70.0 422.4,70.0 426.0,70.0 429.6,70.0 433.1,70.0 436.7,70.0 440.2,70.0 443.8,70.0 447.3,70.0 450.9,70.0 454.4,70.0 458.0,70.0 461.6,70.0 465.1,70.0 468.7,70.0 472.2,70.0 475.8,70.0 479.3,70.0 482.9,70.0 486.4,70.0 490.0,70.0 493.6,70.0 497.1,70.0 500.7,70.0 504.2,70.0 507.8,70.0 511.3,70.0 514.9,70.0 518.4,70.0 522.0,70.0 525.6,70.0 529.1,70.0 532.7,70.0 536.2,70.0 539.8,70.0 543.3,70.0 546.9,70.0 550.4,70.0 554.0,70.0 557.6,70.0 561.1,70.0 564.7,70.0 568.2,70.0 571.8,70.0 575.3,70.0 578.9,76.0 582.4,70.0 586.0,70.0 589.6,70.0 593.1,70.0 596.7,70.0 600.2,76.0 603.8,76.0 607.3,88.0 610.9,88.0 614.4,88.0 618.0,94.0 621.6,94.0 625.1,94.0 628.7,94.0 632.2,88.0 635.8,88.0 639.3,82.0 642.9,82.0 646.4,82.0 650.0,88.0 653.6,88.0 657.1,94.0 660.7,82.0 664.2,82.0 667.8,82.0 671.3,82.0 674.9,88.0 678.4,88.0 682.0,94.0 685.6,94.0 689.1,88.0 692.7,88.0 696.2,88.0 699.8,94.0 703.3,94.0 706.9,106.0 710.4,94.0 714.0,94.0 717.6,94.0 721.1,94.0 724.7,88.0 728.2,88.0 731.8,82.0 735.3,76.0 738.9,76.0 742.4,76.0 746.0,76.0 749.6,76.0 753.1,76.0 756.7,70.0 760.2,70.0 763.8,70.0 767.3,76.0 770.9,88.0 774.4,82.0 778.0,70.0 781.6,70.0 785.1,70.0 788.7,76.0 792.2,76.0 795.8,76.0 799.3,82.0 802.9,70.0 806.4,76.0 810.0,64.0 813.6,70.0 817.1,58.0 820.7,58.0 824.2,58.0 827.8,58.0 831.3,58.0 834.9,64.0 838.4,58.0 842.0,64.0 845.6,58.0 849.1,58.0 852.7,58.0 856.2,58.0 859.8,64.0 863.3,64.0 866.9,64.0 870.4,76.0 874.0,70.0 877.6,82.0 881.1,70.0 884.7,76.0 888.2,58.0 891.8,64.0 895.3,58.0 898.9,64.0 902.4,58.0 906.0,58.0 909.6,58.0 913.1,64.0 916.7,70.0 920.2,64.0 923.8,64.0 927.3,64.0 930.9,70.0 934.4,70.0 938.0,64.0"/><polyline fill="none" stroke="#f59e0b" stroke-width="2.5" stroke-linejoin="round" stroke-linecap="round" points="42.0,274.0 45.6,274.0 49.1,274.0 52.7,280.0 56.2,268.0 59.8,268.0 63.3,268.0 66.9,274.0 70.4,274.0 74.0,274.0 77.6,280.0 81.1,286.0 84.7,286.0 88.2,286.0 91.8,286.0 95.3,286.0 98.9,286.0 102.4,286.0 106.0,286.0 109.6,286.0 113.1,286.0 116.7,286.0 120.2,286.0 123.8,286.0 127.3,286.0 130.9,286.0 134.4,286.0 138.0,286.0 141.6,286.0 145.1,286.0 148.7,286.0 152.2,274.0 155.8,280.0 159.3,280.0 162.9,280.0 166.4,280.0 170.0,286.0 173.6,286.0 177.1,286.0 180.7,274.0 184.2,268.0 187.8,268.0 191.3,262.0 194.9,262.0 198.4,262.0 202.0,262.0 205.6,268.0 209.1,280.0 212.7,280.0 216.2,274.0 219.8,262.0 223.3,268.0 226.9,268.0 230.4,262.0 234.0,268.0 237.6,268.0 241.1,268.0 244.7,280.0 248.2,280.0 251.8,268.0 255.3,268.0 258.9,268.0 262.4,262.0 266.0,274.0 269.6,280.0 273.1,286.0 276.7,286.0 280.2,274.0 283.8,274.0 287.3,274.0 290.9,274.0 294.4,274.0 298.0,274.0 301.6,274.0 305.1,274.0 308.7,280.0 312.2,274.0 315.8,280.0 319.3,286.0 322.9,286.0 326.4,286.0 330.0,286.0 333.6,280.0 337.1,286.0 340.7,286.0 344.2,286.0 347.8,286.0 351.3,286.0 354.9,286.0 358.4,286.0 362.0,286.0 365.6,286.0 369.1,286.0 372.7,286.0 376.2,286.0 379.8,286.0 383.3,286.0 386.9,286.0 390.4,286.0 394.0,286.0 397.6,286.0 401.1,286.0 404.7,286.0 408.2,286.0 411.8,286.0 415.3,286.0 418.9,286.0 422.4,286.0 426.0,286.0 429.6,286.0 433.1,286.0 436.7,286.0 440.2,286.0 443.8,286.0 447.3,286.0 450.9,286.0 454.4,286.0 458.0,286.0 461.6,286.0 465.1,286.0 468.7,286.0 472.2,286.0 475.8,286.0 479.3,286.0 482.9,286.0 486.4,286.0 490.0,286.0 493.6,286.0 497.1,286.0 500.7,286.0 504.2,286.0 507.8,286.0 511.3,286.0 514.9,286.0 518.4,286.0 522.0,286.0 525.6,286.0 529.1,286.0 532.7,286.0 536.2,286.0 539.8,286.0 543.3,286.0 546.9,286.0 550.4,286.0 554.0,286.0 557.6,286.0 561.1,286.0 564.7,286.0 568.2,286.0 571.8,286.0 575.3,286.0 578.9,286.0 582.4,286.0 586.0,286.0 589.6,286.0 593.1,286.0 596.7,286.0 600.2,286.0 603.8,280.0 607.3,268.0 610.9,268.0 614.4,268.0 618.0,268.0 621.6,262.0 625.1,262.0 628.7,262.0 632.2,268.0 635.8,268.0 639.3,274.0 642.9,274.0 646.4,274.0 650.0,268.0 653.6,268.0 657.1,268.0 660.7,274.0 664.2,274.0 667.8,274.0 671.3,274.0 674.9,268.0 678.4,268.0 682.0,262.0 685.6,262.0 689.1,268.0 692.7,268.0 696.2,268.0 699.8,262.0 703.3,262.0 706.9,274.0 710.4,262.0 714.0,262.0 717.6,262.0 721.1,262.0 724.7,268.0 728.2,268.0 731.8,274.0 735.3,280.0 738.9,280.0 742.4,280.0 746.0,280.0 749.6,280.0 753.1,280.0 756.7,286.0 760.2,286.0 763.8,286.0 767.3,280.0 770.9,274.0 774.4,274.0 778.0,280.0 781.6,274.0 785.1,274.0 788.7,268.0 792.2,268.0 795.8,268.0 799.3,268.0 802.9,280.0 806.4,274.0 810.0,280.0 813.6,280.0 817.1,286.0 820.7,286.0 824.2,286.0 827.8,286.0 831.3,286.0 834.9,286.0 838.4,286.0 842.0,286.0 845.6,286.0 849.1,286.0 852.7,286.0 856.2,286.0 859.8,280.0 863.3,280.0 866.9,280.0 870.4,268.0 874.0,280.0 877.6,268.0 881.1,274.0 884.7,274.0 888.2,286.0 891.8,280.0 895.3,286.0 898.9,280.0 902.4,286.0 906.0,286.0 909.6,286.0 913.1,280.0 916.7,274.0 920.2,280.0 923.8,280.0 927.3,280.0 930.9,274.0 934.4,274.0 938.0,280.0"/><polyline fill="none" stroke="#ef4444" stroke-width="2.5" stroke-linejoin="round" stroke-linecap="round" points="42.0,280.0 45.6,280.0 49.1,268.0 52.7,262.0 56.2,286.0 59.8,286.0 63.3,286.0 66.9,286.0 70.4,280.0 74.0,286.0 77.6,286.0 81.1,286.0 84.7,286.0 88.2,286.0 91.8,286.0 95.3,286.0 98.9,286.0 102.4,286.0 106.0,286.0 109.6,286.0 113.1,286.0 116.7,286.0 120.2,286.0 123.8,286.0 127.3,286.0 130.9,286.0 134.4,286.0 138.0,286.0 141.6,286.0 145.1,286.0 148.7,286.0 152.2,286.0 155.8,274.0 159.3,256.0 162.9,286.0 166.4,286.0 170.0,286.0 173.6,286.0 177.1,286.0 180.7,286.0 184.2,286.0 187.8,286.0 191.3,286.0 194.9,286.0 198.4,286.0 202.0,286.0 205.6,286.0 209.1,286.0 212.7,280.0 216.2,286.0 219.8,286.0 223.3,286.0 226.9,286.0 230.4,286.0 234.0,286.0 237.6,286.0 241.1,286.0 244.7,286.0 248.2,286.0 251.8,286.0 255.3,286.0 258.9,286.0 262.4,280.0 266.0,286.0 269.6,286.0 273.1,286.0 276.7,286.0 280.2,286.0 283.8,286.0 287.3,286.0 290.9,286.0 294.4,286.0 298.0,286.0 301.6,286.0 305.1,286.0 308.7,274.0 312.2,274.0 315.8,274.0 319.3,274.0 322.9,274.0 326.4,274.0 330.0,274.0 333.6,274.0 337.1,274.0 340.7,274.0 344.2,274.0 347.8,274.0 351.3,274.0 354.9,274.0 358.4,274.0 362.0,274.0 365.6,274.0 369.1,274.0 372.7,274.0 376.2,274.0 379.8,274.0 383.3,274.0 386.9,274.0 390.4,274.0 394.0,274.0 397.6,274.0 401.1,274.0 404.7,274.0 408.2,274.0 411.8,274.0 415.3,274.0 418.9,274.0 422.4,274.0 426.0,274.0 429.6,274.0 433.1,274.0 436.7,274.0 440.2,274.0 443.8,274.0 447.3,274.0 450.9,274.0 454.4,274.0 458.0,274.0 461.6,274.0 465.1,274.0 468.7,274.0 472.2,274.0 475.8,274.0 479.3,274.0 482.9,274.0 486.4,274.0 490.0,274.0 493.6,274.0 497.1,274.0 500.7,274.0 504.2,274.0 507.8,274.0 511.3,274.0 514.9,274.0 518.4,274.0 522.0,274.0 525.6,274.0 529.1,274.0 532.7,274.0 536.2,274.0 539.8,274.0 543.3,274.0 546.9,274.0 550.4,274.0 554.0,274.0 557.6,274.0 561.1,274.0 564.7,274.0 568.2,274.0 571.8,274.0 575.3,274.0 578.9,268.0 582.4,274.0 586.0,274.0 589.6,274.0 593.1,274.0 596.7,274.0 600.2,274.0 603.8,274.0 607.3,274.0 610.9,274.0 614.4,274.0 618.0,268.0 621.6,274.0 625.1,274.0 628.7,274.0 632.2,274.0 635.8,274.0 639.3,274.0 642.9,274.0 646.4,274.0 650.0,274.0 653.6,274.0 657.1,268.0 660.7,274.0 664.2,274.0 667.8,274.0 671.3,274.0 674.9,274.0 678.4,274.0 682.0,274.0 685.6,274.0 689.1,274.0 692.7,274.0 696.2,274.0 699.8,274.0 703.3,274.0 706.9,250.0 710.4,274.0 714.0,274.0 717.6,274.0 721.1,274.0 724.7,274.0 728.2,274.0 731.8,274.0 735.3,274.0 738.9,274.0 742.4,274.0 746.0,274.0 749.6,274.0 753.1,274.0 756.7,274.0 760.2,274.0 763.8,274.0 767.3,274.0 770.9,268.0 774.4,274.0 778.0,280.0 781.6,286.0 785.1,286.0 788.7,286.0 792.2,286.0 795.8,286.0 799.3,280.0 802.9,280.0 806.4,286.0 810.0,286.0 813.6,280.0 817.1,286.0 820.7,286.0 824.2,286.0 827.8,286.0 831.3,286.0 834.9,280.0 838.4,286.0 842.0,286.0 845.6,286.0 849.1,286.0 852.7,286.0 856.2,286.0 859.8,286.0 863.3,286.0 866.9,286.0 870.4,286.0 874.0,280.0 877.6,280.0 881.1,286.0 884.7,280.0 888.2,286.0 891.8,286.0 895.3,286.0 898.9,286.0 902.4,286.0 906.0,286.0 909.6,286.0 913.1,286.0 916.7,286.0 920.2,286.0 923.8,286.0 927.3,286.0 930.9,286.0 934.4,286.0 938.0,286.0"/><polyline fill="none" stroke="#a855f7" stroke-width="2.5" stroke-linejoin="round" stroke-linecap="round" points="42.0,286.0 45.6,286.0 49.1,286.0 52.7,286.0 56.2,286.0 59.8,286.0 63.3,286.0 66.9,286.0 70.4,286.0 74.0,286.0 77.6,286.0 81.1,286.0 84.7,286.0 88.2,286.0 91.8,286.0 95.3,286.0 98.9,286.0 102.4,286.0 106.0,286.0 109.6,286.0 113.1,286.0 116.7,286.0 120.2,286.0 123.8,286.0 127.3,286.0 130.9,286.0 134.4,286.0 138.0,286.0 141.6,286.0 145.1,286.0 148.7,286.0 152.2,286.0 155.8,286.0 159.3,286.0 162.9,286.0 166.4,286.0 170.0,286.0 173.6,286.0 177.1,286.0 180.7,286.0 184.2,286.0 187.8,286.0 191.3,286.0 194.9,286.0 198.4,286.0 202.0,286.0 205.6,286.0 209.1,286.0 212.7,286.0 216.2,286.0 219.8,286.0 223.3,286.0 226.9,286.0 230.4,286.0 234.0,286.0 237.6,286.0 241.1,286.0 244.7,286.0 248.2,286.0 251.8,286.0 255.3,286.0 258.9,286.0 262.4,286.0 266.0,286.0 269.6,286.0 273.1,286.0 276.7,286.0 280.2,286.0 283.8,286.0 287.3,286.0 290.9,280.0 294.4,286.0 298.0,286.0 301.6,286.0 305.1,286.0 308.7,286.0 312.2,286.0 315.8,286.0 319.3,286.0 322.9,286.0 326.4,286.0 330.0,286.0 333.6,286.0 337.1,286.0 340.7,286.0 344.2,286.0 347.8,286.0 351.3,286.0 354.9,286.0 358.4,286.0 362.0,286.0 365.6,286.0 369.1,286.0 372.7,286.0 376.2,286.0 379.8,286.0 383.3,286.0 386.9,286.0 390.4,286.0 394.0,286.0 397.6,286.0 401.1,286.0 404.7,286.0 408.2,286.0 411.8,286.0 415.3,286.0 418.9,286.0 422.4,286.0 426.0,286.0 429.6,286.0 433.1,286.0 436.7,286.0 440.2,286.0 443.8,286.0 447.3,286.0 450.9,286.0 454.4,286.0 458.0,286.0 461.6,286.0 465.1,286.0 468.7,286.0 472.2,286.0 475.8,286.0 479.3,286.0 482.9,286.0 486.4,286.0 490.0,286.0 493.6,286.0 497.1,286.0 500.7,286.0 504.2,286.0 507.8,286.0 511.3,286.0 514.9,286.0 518.4,286.0 522.0,286.0 525.6,286.0 529.1,286.0 532.7,286.0 536.2,286.0 539.8,286.0 543.3,286.0 546.9,286.0 550.4,286.0 554.0,286.0 557.6,286.0 561.1,286.0 564.7,286.0 568.2,286.0 571.8,286.0 575.3,286.0 578.9,286.0 582.4,286.0 586.0,286.0 589.6,286.0 593.1,286.0 596.7,286.0 600.2,280.0 603.8,286.0 607.3,286.0 610.9,286.0 614.4,286.0 618.0,286.0 621.6,286.0 625.1,286.0 628.7,286.0 632.2,286.0 635.8,286.0 639.3,286.0 642.9,286.0 646.4,286.0 650.0,286.0 653.6,286.0 657.1,286.0 660.7,286.0 664.2,286.0 667.8,286.0 671.3,286.0 674.9,286.0 678.4,286.0 682.0,286.0 685.6,286.0 689.1,286.0 692.7,286.0 696.2,286.0 699.8,286.0 703.3,286.0 706.9,286.0 710.4,286.0 714.0,286.0 717.6,286.0 721.1,286.0 724.7,286.0 728.2,286.0 731.8,286.0 735.3,286.0 738.9,286.0 742.4,286.0 746.0,286.0 749.6,286.0 753.1,286.0 756.7,286.0 760.2,286.0 763.8,286.0 767.3,286.0 770.9,286.0 774.4,286.0 778.0,286.0 781.6,286.0 785.1,286.0 788.7,286.0 792.2,286.0 795.8,286.0 799.3,286.0 802.9,286.0 806.4,280.0 810.0,286.0 813.6,286.0 817.1,286.0 820.7,286.0 824.2,286.0 827.8,286.0 831.3,286.0 834.9,286.0 838.4,286.0 842.0,280.0 845.6,286.0 849.1,286.0 852.7,286.0 856.2,286.0 859.8,286.0 863.3,286.0 866.9,286.0 870.4,286.0 874.0,286.0 877.6,286.0 881.1,286.0 884.7,286.0 888.2,286.0 891.8,286.0 895.3,286.0 898.9,286.0 902.4,286.0 906.0,286.0 909.6,286.0 913.1,286.0 916.7,286.0 920.2,286.0 923.8,286.0 927.3,286.0 930.9,286.0 934.4,286.0 938.0,286.0"/><text x="42" y="308" font-size="11" fill="#9fb0d4">19/06 12:43</text><text x="938" y="308" text-anchor="end" font-size="11" fill="#9fb0d4">03/07 14:30</text></svg>