<svg xmlns="http://www.w3.org/2000/svg" viewBox="0 0 960 320" width="960" height="320" font-family="Segoe UI, system-ui, -apple-system, Roboto, Helvetica, Arial, sans-serif" role="img" aria-label="Availability history per region"><rect x="0.5" y="0.5" width="959" height="319" rx="14" fill="#ffffff" stroke="#dce3f1"/><text x="42" y="26" font-size="14" font-weight="600" fill="#14203a">History · 12 points</text><circle cx="47" cy="40" r="5" fill="#22c55e"/><text x="57" y="44" font-size="12" fill="#5a688a">Available</text><circle cx="139.8" cy="40" r="5" fill="#f59e0b"/><text x="149.8" y="44" font-size="12" fill="#5a688a">Saturated</text><circle cx="232.60000000000002" cy="40" r="5" fill="#ef4444"/><text x="242.60000000000002" y="44" font-size="12" fill="#5a688a">Error</text><line x1="42" y1="286.0" x2="938" y2="286.0" stroke="#eef2f7" stroke-width="1"/><text x="35" y="289.0" text-anchor="end" font-size="11" fill="#5a688a">0</text><line x1="42" y1="227.5" x2="938" y2="227.5" stroke="#eef2f7" stroke-width="1"/><text x="35" y="230.5" text-anchor="end" font-size="11" fill="#5a688a">10</text><line x1="42" y1="169.0" x2="938" y2="169.0" stroke="#eef2f7" stroke-width="1"/><text x="35" y="172.0" text-anchor="end" font-size="11" fill="#5a688a">20</text><line x1="42" y1="110.5" x2="938" y2="110.5" stroke="#eef2f7" stroke-width="1"/><text x="35" y="113.5" text-anchor="end" font-size="11" fill="#5a688a">29</text><line x1="42" y1="52.0" x2="938" y2="52.0" stroke="#eef2f7" stroke-width="1"/><text x="35" y="55.0" text-anchor="end" font-size="11" fill="#5a688a">39</text><polyline fill="none" stroke="#22c55e" stroke-width="2.5" stroke-linejoin="round" stroke-linecap="round" points="42.0,70.0 123.5,70.0 204.9,88.0 286.4,88.0 367.8,76.0 449.3,76.0 530.7,76.0 612.2,70.0 693.6,76.0 775.1,70.0 856.5,64.0 938.0,58.0"/><circle cx="42.0" cy="70.0" r="2.5" fill="#22c55e"/><circle cx="123.5" cy="70.0" r="2.5" fill="#22c55e"/><circle cx="204.9" cy="88.0" r="2.5" fill="#22c55e"/><circle cx="286.4" cy="88.0" r="2.5" fill="#22c55e"/><circle cx="367.8" cy="76.0" r="2.5" fill="#22c55e"/><circle cx="449.3" cy="76.0" r="2.5" fill="#22c55e"/><circle cx="530.7" cy="76.0" r="2.5" fill="#22c55e"/><circle cx="612.2" cy="70.0" r="2.5" fill="#22c55e"/><circle cx="693.6" cy="76.0" r="2.5" fill="#22c55e"/><circle cx="775.1" cy="70.0" r="2.5" fill="#22c55e"/><circle cx="856.5" cy="64.0" r="2.5" fill="#22c55e"/><circle cx="938.0" cy="58.0" r="2.5" fill="#22c55e"/><polyline fill="none" stroke="#f59e0b" stroke-width="2.5" stroke-linejoin="round" stroke-linecap="round" points="42.0,274.0 123.5,274.0 204.9,274.0 286.4,280.0 367.8,268.0 449.3,268.0 530.7,268.0 612.2,274.0 693.6,274.0 775.1,274.0 856.5,280.0 938.0,286.0"/><circle cx="42.0" cy="274.0" r="2.5" fill="#f59e0b"/><circle cx="123.5" cy="274.0" r="2.5" fill="#f59e0b"/><circle cx="204.9" cy="274.0" r="2.5" fill="#f59e0b"/><circle cx="286.4" cy="280.0" r="2.5" fill="#f59e0b"/><circle cx="367.8" cy="268.0" r="2.5" fill="#f59e0b"/><circle cx="449.3" cy="268.0" r="2.5" fill="#f59e0b"/><circle cx="530.7" cy="268.0" r="2.5" fill="#f59e0b"/><circle cx="612.2" cy="274.0" r="2.5" fill="#f59e0b"/><circle cx="693.6" cy="274.0" r="2.5" fill="#f59e0b"/><circle cx="775.1" cy="274.0" r="2.5" fill="#f59e0b"/><circle cx="856.5" cy="280.0" r="2.5" fill="#f59e0b"/><circle cx="938.0" cy="286.0" r="2.5" fill="#f59e0b"/><polyline fill="none" stroke="#ef4444" stroke-width="2.5" stroke-linejoin="round" stroke-linecap="round" points="42.0,280.0 123.5,280.0 204.9,268.0 286.4,262.0 367.8,286.0 449.3,286.0 530.7,286.0 612.2,286.0 693.6,280.0 775.1,286.0 856.5,286.0 938.0,286.0"/><circle cx="42.0" cy="280.0" r="2.5" fill="#ef4444"/><circle cx="123.5" cy="280.0" r="2.5" fill="#ef4444"/><circle cx="204.9" cy="268.0" r="2.5" fill="#ef4444"/><circle cx="286.4" cy="262.0" r="2.5" fill="#ef4444"/><circle cx="367.8" cy="286.0" r="2.5" fill="#ef4444"/><circle cx="449.3" cy="286.0" r="2.5" fill="#ef4444"/><circle cx="530.7" cy="286.0" r="2.5" fill="#ef4444"/><circle cx="612.2" cy="286.0" r="2.5" fill="#ef4444"/><circle cx="693.6" cy="280.0" r="2.5" fill="#ef4444"/><circle cx="775.1" cy="286.0" r="2.5" fill="#ef4444"/><circle cx="856.5" cy="286.0" r="2.5" fill="#ef4444"/><circle cx="938.0" cy="286.0" r="2.5" fill="#ef4444"/><text x="42" y="308" font-size="11" fill="#5a688a">19/06 12:43</text><text x="938" y="308" text-anchor="end" font-size="11" fill="#5a688a">20/06 05:06</text></svg>