<svg xmlns="http://www.w3.org/2000/svg" viewBox="0 0 960 320" width="960" height="320" font-family="Segoe UI, system-ui, -apple-system, Roboto, Helvetica, Arial, sans-serif" role="img" aria-label="Availability history per region"><rect x="0.5" y="0.5" width="959" height="319" rx="14" fill="#0d1117" stroke="#2c3a5e"/><text x="42" y="26" font-size="14" font-weight="600" fill="#e6ecff">History · 237 points</text><circle cx="47" cy="40" r="5" fill="#22c55e"/><text x="57" y="44" font-size="12" fill="#9fb0d4">Available</text><circle cx="139.8" cy="40" r="5" fill="#f59e0b"/><text x="149.8" y="44" font-size="12" fill="#9fb0d4">Saturated</text><circle cx="232.60000000000002" cy="40" r="5" fill="#ef4444"/><text x="242.60000000000002" y="44" font-size="12" fill="#9fb0d4">Error</text><circle cx="296.6" cy="40" r="5" fill="#a855f7"/><text x="306.6" y="44" font-size="12" fill="#9fb0d4">Timeout</text><line x1="42" y1="286.0" x2="938" y2="286.0" stroke="#21304f" stroke-width="1"/><text x="35" y="289.0" text-anchor="end" font-size="11" fill="#9fb0d4">0</text><line x1="42" y1="227.5" x2="938" y2="227.5" stroke="#21304f" stroke-width="1"/><text x="35" y="230.5" text-anchor="end" font-size="11" fill="#9fb0d4">10</text><line x1="42" y1="169.0" x2="938" y2="169.0" stroke="#21304f" stroke-width="1"/><text x="35" y="172.0" text-anchor="end" font-size="11" fill="#9fb0d4">20</text><line x1="42" y1="110.5" x2="938" y2="110.5" stroke="#21304f" stroke-width="1"/><text x="35" y="113.5" text-anchor="end" font-size="11" fill="#9fb0d4">29</text><line x1="42" y1="52.0" x2="938" y2="52.0" stroke="#21304f" stroke-width="1"/><text x="35" y="55.0" text-anchor="end" font-size="11" fill="#9fb0d4">39</text><polyline fill="none" stroke="#22c55e" stroke-width="2.5" stroke-linejoin="round" stroke-linecap="round" points="42.0,70.0 45.8,70.0 49.6,88.0 53.4,88.0 57.2,76.0 61.0,76.0 64.8,76.0 68.6,70.0 72.4,76.0 76.2,70.0 80.0,64.0 83.8,58.0 87.6,58.0 91.4,58.0 95.2,58.0 98.9,58.0 102.7,58.0 106.5,58.0 110.3,58.0 114.1,58.0 117.9,58.0 121.7,58.0 125.5,58.0 129.3,58.0 133.1,58.0 136.9,58.0 140.7,58.0 144.5,58.0 148.3,58.0 152.1,58.0 155.9,58.0 159.7,70.0 163.5,76.0 167.3,94.0 171.1,64.0 174.9,64.0 178.7,58.0 182.5,58.0 186.3,58.0 190.1,70.0 193.9,76.0 197.7,76.0 201.5,82.0 205.3,82.0 209.1,82.0 212.8,82.0 216.6,76.0 220.4,64.0 224.2,70.0 228.0,70.0 231.8,82.0 235.6,76.0 239.4,76.0 243.2,82.0 247.0,76.0 250.8,76.0 254.6,76.0 258.4,64.0 262.2,64.0 266.0,76.0 269.8,76.0 273.6,76.0 277.4,88.0 281.2,70.0 285.0,64.0 288.8,58.0 292.6,58.0 296.4,70.0 300.2,70.0 304.0,70.0 307.8,76.0 311.6,70.0 315.4,70.0 319.2,70.0 322.9,70.0 326.7,76.0 330.5,82.0 334.3,76.0 338.1,70.0 341.9,70.0 345.7,70.0 349.5,70.0 353.3,76.0 357.1,70.0 360.9,70.0 364.7,70.0 368.5,70.0 372.3,70.0 376.1,70.0 379.9,70.0 383.7,70.0 387.5,70.0 391.3,70.0 395.1,70.0 398.9,70.0 402.7,70.0 406.5,70.0 410.3,70.0 414.1,70.0 417.9,70.0 421.7,70.0 425.5,70.0 429.3,70.0 433.1,70.0 436.8,70.0 440.6,70.0 444.4,70.0 448.2,70.0 452.0,70.0 455.8,70.0 459.6,70.0 463.4,70.0 467.2,70.0 471.0,70.0 474.8,70.0 478.6,70.0 482.4,70.0 486.2,70.0 490.0,70.0 493.8,70.0 497.6,70.0 501.4,70.0 505.2,70.0 509.0,70.0 512.8,70.0 516.6,70.0 520.4,70.0 524.2,70.0 528.0,70.0 531.8,70.0 535.6,70.0 539.4,70.0 543.2,70.0 546.9,70.0 550.7,70.0 554.5,70.0 558.3,70.0 562.1,70.0 565.9,70.0 569.7,70.0 573.5,70.0 577.3,70.0 581.1,70.0 584.9,70.0 588.7,70.0 592.5,70.0 596.3,70.0 600.1,70.0 603.9,70.0 607.7,70.0 611.5,70.0 615.3,76.0 619.1,70.0 622.9,70.0 626.7,70.0 630.5,70.0 634.3,70.0 638.1,76.0 641.9,76.0 645.7,88.0 649.5,88.0 653.3,88.0 657.1,94.0 660.8,94.0 664.6,94.0 668.4,94.0 672.2,88.0 676.0,88.0 679.8,82.0 683.6,82.0 687.4,82.0 691.2,88.0 695.0,88.0 698.8,94.0 702.6,82.0 706.4,82.0 710.2,82.0 714.0,82.0 717.8,88.0 721.6,88.0 725.4,94.0 729.2,94.0 733.0,88.0 736.8,88.0 740.6,88.0 744.4,94.0 748.2,94.0 752.0,106.0 755.8,94.0 759.6,94.0 763.4,94.0 767.2,94.0 770.9,88.0 774.7,88.0 778.5,82.0 782.3,76.0 786.1,76.0 789.9,76.0 793.7,76.0 797.5,76.0 801.3,76.0 805.1,70.0 808.9,70.0 812.7,70.0 816.5,76.0 820.3,88.0 824.1,82.0 827.9,70.0 831.7,70.0 835.5,70.0 839.3,76.0 843.1,76.0 846.9,76.0 850.7,82.0 854.5,70.0 858.3,76.0 862.1,64.0 865.9,70.0 869.7,58.0 873.5,58.0 877.3,58.0 881.1,58.0 884.8,58.0 888.6,64.0 892.4,58.0 896.2,64.0 900.0,58.0 903.8,58.0 907.6,58.0 911.4,58.0 915.2,64.0 919.0,64.0 922.8,64.0 926.6,76.0 930.4,70.0 934.2,82.0 938.0,70.0"/><polyline fill="none" stroke="#f59e0b" stroke-width="2.5" stroke-linejoin="round" stroke-linecap="round" points="42.0,274.0 45.8,274.0 49.6,274.0 53.4,280.0 57.2,268.0 61.0,268.0 64.8,268.0 68.6,274.0 72.4,274.0 76.2,274.0 80.0,280.0 83.8,286.0 87.6,286.0 91.4,286.0 95.2,286.0 98.9,286.0 102.7,286.0 106.5,286.0 110.3,286.0 114.1,286.0 117.9,286.0 121.7,286.0 125.5,286.0 129.3,286.0 133.1,286.0 136.9,286.0 140.7,286.0 144.5,286.0 148.3,286.0 152.1,286.0 155.9,286.0 159.7,274.0 163.5,280.0 167.3,280.0 171.1,280.0 174.9,280.0 178.7,286.0 182.5,286.0 186.3,286.0 190.1,274.0 193.9,268.0 197.7,268.0 201.5,262.0 205.3,262.0 209.1,262.0 212.8,262.0 216.6,268.0 220.4,280.0 224.2,280.0 228.0,274.0 231.8,262.0 235.6,268.0 239.4,268.0 243.2,262.0 247.0,268.0 250.8,268.0 254.6,268.0 258.4,280.0 262.2,280.0 266.0,268.0 269.8,268.0 273.6,268.0 277.4,262.0 281.2,274.0 285.0,280.0 288.8,286.0 292.6,286.0 296.4,274.0 300.2,274.0 304.0,274.0 307.8,274.0 311.6,274.0 315.4,274.0 319.2,274.0 322.9,274.0 326.7,280.0 330.5,274.0 334.3,280.0 338.1,286.0 341.9,286.0 345.7,286.0 349.5,286.0 353.3,280.0 357.1,286.0 360.9,286.0 364.7,286.0 368.5,286.0 372.3,286.0 376.1,286.0 379.9,286.0 383.7,286.0 387.5,286.0 391.3,286.0 395.1,286.0 398.9,286.0 402.7,286.0 406.5,286.0 410.3,286.0 414.1,286.0 417.9,286.0 421.7,286.0 425.5,286.0 429.3,286.0 433.1,286.0 436.8,286.0 440.6,286.0 444.4,286.0 448.2,286.0 452.0,286.0 455.8,286.0 459.6,286.0 463.4,286.0 467.2,286.0 471.0,286.0 474.8,286.0 478.6,286.0 482.4,286.0 486.2,286.0 490.0,286.0 493.8,286.0 497.6,286.0 501.4,286.0 505.2,286.0 509.0,286.0 512.8,286.0 516.6,286.0 520.4,286.0 524.2,286.0 528.0,286.0 531.8,286.0 535.6,286.0 539.4,286.0 543.2,286.0 546.9,286.0 550.7,286.0 554.5,286.0 558.3,286.0 562.1,286.0 565.9,286.0 569.7,286.0 573.5,286.0 577.3,286.0 581.1,286.0 584.9,286.0 588.7,286.0 592.5,286.0 596.3,286.0 600.1,286.0 603.9,286.0 607.7,286.0 611.5,286.0 615.3,286.0 619.1,286.0 622.9,286.0 626.7,286.0 630.5,286.0 634.3,286.0 638.1,286.0 641.9,280.0 645.7,268.0 649.5,268.0 653.3,268.0 657.1,268.0 660.8,262.0 664.6,262.0 668.4,262.0 672.2,268.0 676.0,268.0 679.8,274.0 683.6,274.0 687.4,274.0 691.2,268.0 695.0,268.0 698.8,268.0 702.6,274.0 706.4,274.0 710.2,274.0 714.0,274.0 717.8,268.0 721.6,268.0 725.4,262.0 729.2,262.0 733.0,268.0 736.8,268.0 740.6,268.0 744.4,262.0 748.2,262.0 752.0,274.0 755.8,262.0 759.6,262.0 763.4,262.0 767.2,262.0 770.9,268.0 774.7,268.0 778.5,274.0 782.3,280.0 786.1,280.0 789.9,280.0 793.7,280.0 797.5,280.0 801.3,280.0 805.1,286.0 808.9,286.0 812.7,286.0 816.5,280.0 820.3,274.0 824.1,274.0 827.9,280.0 831.7,274.0 835.5,274.0 839.3,268.0 843.1,268.0 846.9,268.0 850.7,268.0 854.5,280.0 858.3,274.0 862.1,280.0 865.9,280.0 869.7,286.0 873.5,286.0 877.3,286.0 881.1,286.0 884.8,286.0 888.6,286.0 892.4,286.0 896.2,286.0 900.0,286.0 903.8,286.0 907.6,286.0 911.4,286.0 915.2,280.0 919.0,280.0 922.8,280.0 926.6,268.0 930.4,280.0 934.2,268.0 938.0,274.0"/><polyline fill="none" stroke="#ef4444" stroke-width="2.5" stroke-linejoin="round" stroke-linecap="round" points="42.0,280.0 45.8,280.0 49.6,268.0 53.4,262.0 57.2,286.0 61.0,286.0 64.8,286.0 68.6,286.0 72.4,280.0 76.2,286.0 80.0,286.0 83.8,286.0 87.6,286.0 91.4,286.0 95.2,286.0 98.9,286.0 102.7,286.0 106.5,286.0 110.3,286.0 114.1,286.0 117.9,286.0 121.7,286.0 125.5,286.0 129.3,286.0 133.1,286.0 136.9,286.0 140.7,286.0 144.5,286.0 148.3,286.0 152.1,286.0 155.9,286.0 159.7,286.0 163.5,274.0 167.3,256.0 171.1,286.0 174.9,286.0 178.7,286.0 182.5,286.0 186.3,286.0 190.1,286.0 193.9,286.0 197.7,286.0 201.5,286.0 205.3,286.0 209.1,286.0 212.8,286.0 216.6,286.0 220.4,286.0 224.2,280.0 228.0,286.0 231.8,286.0 235.6,286.0 239.4,286.0 243.2,286.0 247.0,286.0 250.8,286.0 254.6,286.0 258.4,286.0 262.2,286.0 266.0,286.0 269.8,286.0 273.6,286.0 277.4,280.0 281.2,286.0 285.0,286.0 288.8,286.0 292.6,286.0 296.4,286.0 300.2,286.0 304.0,286.0 307.8,286.0 311.6,286.0 315.4,286.0 319.2,286.0 322.9,286.0 326.7,274.0 330.5,274.0 334.3,274.0 338.1,274.0 341.9,274.0 345.7,274.0 349.5,274.0 353.3,274.0 357.1,274.0 360.9,274.0 364.7,274.0 368.5,274.0 372.3,274.0 376.1,274.0 379.9,274.0 383.7,274.0 387.5,274.0 391.3,274.0 395.1,274.0 398.9,274.0 402.7,274.0 406.5,274.0 410.3,274.0 414.1,274.0 417.9,274.0 421.7,274.0 425.5,274.0 429.3,274.0 433.1,274.0 436.8,274.0 440.6,274.0 444.4,274.0 448.2,274.0 452.0,274.0 455.8,274.0 459.6,274.0 463.4,274.0 467.2,274.0 471.0,274.0 474.8,274.0 478.6,274.0 482.4,274.0 486.2,274.0 490.0,274.0 493.8,274.0 497.6,274.0 501.4,274.0 505.2,274.0 509.0,274.0 512.8,274.0 516.6,274.0 520.4,274.0 524.2,274.0 528.0,274.0 531.8,274.0 535.6,274.0 539.4,274.0 543.2,274.0 546.9,274.0 550.7,274.0 554.5,274.0 558.3,274.0 562.1,274.0 565.9,274.0 569.7,274.0 573.5,274.0 577.3,274.0 581.1,274.0 584.9,274.0 588.7,274.0 592.5,274.0 596.3,274.0 600.1,274.0 603.9,274.0 607.7,274.0 611.5,274.0 615.3,268.0 619.1,274.0 622.9,274.0 626.7,274.0 630.5,274.0 634.3,274.0 638.1,274.0 641.9,274.0 645.7,274.0 649.5,274.0 653.3,274.0 657.1,268.0 660.8,274.0 664.6,274.0 668.4,274.0 672.2,274.0 676.0,274.0 679.8,274.0 683.6,274.0 687.4,274.0 691.2,274.0 695.0,274.0 698.8,268.0 702.6,274.0 706.4,274.0 710.2,274.0 714.0,274.0 717.8,274.0 721.6,274.0 725.4,274.0 729.2,274.0 733.0,274.0 736.8,274.0 740.6,274.0 744.4,274.0 748.2,274.0 752.0,250.0 755.8,274.0 759.6,274.0 763.4,274.0 767.2,274.0 770.9,274.0 774.7,274.0 778.5,274.0 782.3,274.0 786.1,274.0 789.9,274.0 793.7,274.0 797.5,274.0 801.3,274.0 805.1,274.0 808.9,274.0 812.7,274.0 816.5,274.0 820.3,268.0 824.1,274.0 827.9,280.0 831.7,286.0 835.5,286.0 839.3,286.0 843.1,286.0 846.9,286.0 850.7,280.0 854.5,280.0 858.3,286.0 862.1,286.0 865.9,280.0 869.7,286.0 873.5,286.0 877.3,286.0 881.1,286.0 884.8,286.0 888.6,280.0 892.4,286.0 896.2,286.0 900.0,286.0 903.8,286.0 907.6,286.0 911.4,286.0 915.2,286.0 919.0,286.0 922.8,286.0 926.6,286.0 930.4,280.0 934.2,280.0 938.0,286.0"/><polyline fill="none" stroke="#a855f7" stroke-width="2.5" stroke-linejoin="round" stroke-linecap="round" points="42.0,286.0 45.8,286.0 49.6,286.0 53.4,286.0 57.2,286.0 61.0,286.0 64.8,286.0 68.6,286.0 72.4,286.0 76.2,286.0 80.0,286.0 83.8,286.0 87.6,286.0 91.4,286.0 95.2,286.0 98.9,286.0 102.7,286.0 106.5,286.0 110.3,286.0 114.1,286.0 117.9,286.0 121.7,286.0 125.5,286.0 129.3,286.0 133.1,286.0 136.9,286.0 140.7,286.0 144.5,286.0 148.3,286.0 152.1,286.0 155.9,286.0 159.7,286.0 163.5,286.0 167.3,286.0 171.1,286.0 174.9,286.0 178.7,286.0 182.5,286.0 186.3,286.0 190.1,286.0 193.9,286.0 197.7,286.0 201.5,286.0 205.3,286.0 209.1,286.0 212.8,286.0 216.6,286.0 220.4,286.0 224.2,286.0 228.0,286.0 231.8,286.0 235.6,286.0 239.4,286.0 243.2,286.0 247.0,286.0 250.8,286.0 254.6,286.0 258.4,286.0 262.2,286.0 266.0,286.0 269.8,286.0 273.6,286.0 277.4,286.0 281.2,286.0 285.0,286.0 288.8,286.0 292.6,286.0 296.4,286.0 300.2,286.0 304.0,286.0 307.8,280.0 311.6,286.0 315.4,286.0 319.2,286.0 322.9,286.0 326.7,286.0 330.5,286.0 334.3,286.0 338.1,286.0 341.9,286.0 345.7,286.0 349.5,286.0 353.3,286.0 357.1,286.0 360.9,286.0 364.7,286.0 368.5,286.0 372.3,286.0 376.1,286.0 379.9,286.0 383.7,286.0 387.5,286.0 391.3,286.0 395.1,286.0 398.9,286.0 402.7,286.0 406.5,286.0 410.3,286.0 414.1,286.0 417.9,286.0 421.7,286.0 425.5,286.0 429.3,286.0 433.1,286.0 436.8,286.0 440.6,286.0 444.4,286.0 448.2,286.0 452.0,286.0 455.8,286.0 459.6,286.0 463.4,286.0 467.2,286.0 471.0,286.0 474.8,286.0 478.6,286.0 482.4,286.0 486.2,286.0 490.0,286.0 493.8,286.0 497.6,286.0 501.4,286.0 505.2,286.0 509.0,286.0 512.8,286.0 516.6,286.0 520.4,286.0 524.2,286.0 528.0,286.0 531.8,286.0 535.6,286.0 539.4,286.0 543.2,286.0 546.9,286.0 550.7,286.0 554.5,286.0 558.3,286.0 562.1,286.0 565.9,286.0 569.7,286.0 573.5,286.0 577.3,286.0 581.1,286.0 584.9,286.0 588.7,286.0 592.5,286.0 596.3,286.0 600.1,286.0 603.9,286.0 607.7,286.0 611.5,286.0 615.3,286.0 619.1,286.0 622.9,286.0 626.7,286.0 630.5,286.0 634.3,286.0 638.1,280.0 641.9,286.0 645.7,286.0 649.5,286.0 653.3,286.0 657.1,286.0 660.8,286.0 664.6,286.0 668.4,286.0 672.2,286.0 676.0,286.0 679.8,286.0 683.6,286.0 687.4,286.0 691.2,286.0 695.0,286.0 698.8,286.0 702.6,286.0 706.4,286.0 710.2,286.0 714.0,286.0 717.8,286.0 721.6,286.0 725.4,286.0 729.2,286.0 733.0,286.0 736.8,286.0 740.6,286.0 744.4,286.0 748.2,286.0 752.0,286.0 755.8,286.0 759.6,286.0 763.4,286.0 767.2,286.0 770.9,286.0 774.7,286.0 778.5,286.0 782.3,286.0 786.1,286.0 789.9,286.0 793.7,286.0 797.5,286.0 801.3,286.0 805.1,286.0 808.9,286.0 812.7,286.0 816.5,286.0 820.3,286.0 824.1,286.0 827.9,286.0 831.7,286.0 835.5,286.0 839.3,286.0 843.1,286.0 846.9,286.0 850.7,286.0 854.5,286.0 858.3,280.0 862.1,286.0 865.9,286.0 869.7,286.0 873.5,286.0 877.3,286.0 881.1,286.0 884.8,286.0 888.6,286.0 892.4,286.0 896.2,280.0 900.0,286.0 903.8,286.0 907.6,286.0 911.4,286.0 915.2,286.0 919.0,286.0 922.8,286.0 926.6,286.0 930.4,286.0 934.2,286.0 938.0,286.0"/><text x="42" y="308" font-size="11" fill="#9fb0d4">19/06 12:43</text><text x="938" y="308" text-anchor="end" font-size="11" fill="#9fb0d4">02/07 17:32</text></svg>