<svg xmlns="http://www.w3.org/2000/svg" viewBox="0 0 960 320" width="960" height="320" font-family="Segoe UI, system-ui, -apple-system, Roboto, Helvetica, Arial, sans-serif" role="img" aria-label="Availability history per region"><rect x="0.5" y="0.5" width="959" height="319" rx="14" fill="#0d1117" stroke="#2c3a5e"/><text x="42" y="26" font-size="14" font-weight="600" fill="#e6ecff">History · 336 points</text><circle cx="47" cy="40" r="5" fill="#22c55e"/><text x="57" y="44" font-size="12" fill="#9fb0d4">Available</text><circle cx="139.8" cy="40" r="5" fill="#f59e0b"/><text x="149.8" y="44" font-size="12" fill="#9fb0d4">Saturated</text><circle cx="232.60000000000002" cy="40" r="5" fill="#ef4444"/><text x="242.60000000000002" y="44" font-size="12" fill="#9fb0d4">Error</text><circle cx="296.6" cy="40" r="5" fill="#a855f7"/><text x="306.6" y="44" font-size="12" fill="#9fb0d4">Timeout</text><line x1="42" y1="286.0" x2="938" y2="286.0" stroke="#21304f" stroke-width="1"/><text x="35" y="289.0" text-anchor="end" font-size="11" fill="#9fb0d4">0</text><line x1="42" y1="227.5" x2="938" y2="227.5" stroke="#21304f" stroke-width="1"/><text x="35" y="230.5" text-anchor="end" font-size="11" fill="#9fb0d4">10</text><line x1="42" y1="169.0" x2="938" y2="169.0" stroke="#21304f" stroke-width="1"/><text x="35" y="172.0" text-anchor="end" font-size="11" fill="#9fb0d4">19</text><line x1="42" y1="110.5" x2="938" y2="110.5" stroke="#21304f" stroke-width="1"/><text x="35" y="113.5" text-anchor="end" font-size="11" fill="#9fb0d4">28</text><line x1="42" y1="52.0" x2="938" y2="52.0" stroke="#21304f" stroke-width="1"/><text x="35" y="55.0" text-anchor="end" font-size="11" fill="#9fb0d4">38</text><polyline fill="none" stroke="#22c55e" stroke-width="2.5" stroke-linejoin="round" stroke-linecap="round" points="42.0,64.3 44.7,70.5 47.3,64.3 50.0,64.3 52.7,64.3 55.4,64.3 58.0,64.3 60.7,64.3 63.4,64.3 66.1,64.3 68.7,64.3 71.4,64.3 74.1,64.3 76.8,64.3 79.4,64.3 82.1,64.3 84.8,64.3 87.5,64.3 90.1,64.3 92.8,64.3 95.5,64.3 98.2,64.3 100.8,64.3 103.5,64.3 106.2,64.3 108.9,64.3 111.5,64.3 114.2,64.3 116.9,64.3 119.6,64.3 122.2,64.3 124.9,64.3 127.6,64.3 130.3,64.3 132.9,64.3 135.6,64.3 138.3,64.3 141.0,64.3 143.6,64.3 146.3,64.3 149.0,64.3 151.7,64.3 154.3,64.3 157.0,64.3 159.7,64.3 162.4,64.3 165.0,64.3 167.7,64.3 170.4,64.3 173.1,64.3 175.7,64.3 178.4,64.3 181.1,64.3 183.8,64.3 186.4,64.3 189.1,64.3 191.8,64.3 194.5,64.3 197.1,64.3 199.8,64.3 202.5,64.3 205.2,64.3 207.8,64.3 210.5,64.3 213.2,64.3 215.9,64.3 218.5,64.3 221.2,64.3 223.9,64.3 226.5,64.3 229.2,70.5 231.9,64.3 234.6,64.3 237.2,64.3 239.9,64.3 242.6,64.3 245.3,70.5 247.9,70.5 250.6,82.8 253.3,82.8 256.0,82.8 258.6,88.9 261.3,88.9 264.0,88.9 266.7,88.9 269.3,82.8 272.0,82.8 274.7,76.6 277.4,76.6 280.0,76.6 282.7,82.8 285.4,82.8 288.1,88.9 290.7,76.6 293.4,76.6 296.1,76.6 298.8,76.6 301.4,82.8 304.1,82.8 306.8,88.9 309.5,88.9 312.1,82.8 314.8,82.8 317.5,82.8 320.2,88.9 322.8,88.9 325.5,101.3 328.2,88.9 330.9,88.9 333.5,88.9 336.2,88.9 338.9,82.8 341.6,82.8 344.2,76.6 346.9,70.5 349.6,70.5 352.3,70.5 354.9,70.5 357.6,70.5 360.3,70.5 363.0,64.3 365.6,64.3 368.3,64.3 371.0,70.5 373.7,82.8 376.3,76.6 379.0,64.3 381.7,64.3 384.4,64.3 387.0,70.5 389.7,70.5 392.4,70.5 395.1,76.6 397.7,64.3 400.4,70.5 403.1,58.2 405.7,64.3 408.4,52.0 411.1,52.0 413.8,52.0 416.4,52.0 419.1,52.0 421.8,58.2 424.5,52.0 427.1,58.2 429.8,52.0 432.5,52.0 435.2,52.0 437.8,52.0 440.5,58.2 443.2,58.2 445.9,58.2 448.5,70.5 451.2,64.3 453.9,76.6 456.6,64.3 459.2,70.5 461.9,52.0 464.6,58.2 467.3,52.0 469.9,58.2 472.6,52.0 475.3,52.0 478.0,52.0 480.6,58.2 483.3,64.3 486.0,58.2 488.7,58.2 491.3,58.2 494.0,64.3 496.7,64.3 499.4,58.2 502.0,64.3 504.7,64.3 507.4,64.3 510.1,52.0 512.7,52.0 515.4,52.0 518.1,52.0 520.8,52.0 523.4,58.2 526.1,52.0 528.8,52.0 531.5,52.0 534.1,52.0 536.8,52.0 539.5,52.0 542.2,52.0 544.8,52.0 547.5,58.2 550.2,52.0 552.9,52.0 555.5,52.0 558.2,52.0 560.9,52.0 563.6,52.0 566.2,52.0 568.9,58.2 571.6,52.0 574.3,52.0 576.9,52.0 579.6,52.0 582.3,52.0 584.9,52.0 587.6,52.0 590.3,52.0 593.0,52.0 595.6,52.0 598.3,52.0 601.0,52.0 603.7,52.0 606.3,52.0 609.0,52.0 611.7,52.0 614.4,52.0 617.0,52.0 619.7,52.0 622.4,58.2 625.1,58.2 627.7,52.0 630.4,52.0 633.1,52.0 635.8,58.2 638.4,58.2 641.1,70.5 643.8,58.2 646.5,58.2 649.1,64.3 651.8,52.0 654.5,52.0 657.2,52.0 659.8,52.0 662.5,52.0 665.2,52.0 667.9,64.3 670.5,58.2 673.2,58.2 675.9,58.2 678.6,58.2 681.2,64.3 683.9,64.3 686.6,70.5 689.3,70.5 691.9,76.6 694.6,82.8 697.3,76.6 700.0,76.6 702.6,82.8 705.3,76.6 708.0,70.5 710.7,70.5 713.3,64.3 716.0,58.2 718.7,58.2 721.4,70.5 724.0,70.5 726.7,64.3 729.4,70.5 732.1,64.3 734.7,64.3 737.4,64.3 740.1,76.6 742.8,64.3 745.4,70.5 748.1,64.3 750.8,70.5 753.5,64.3 756.1,70.5 758.8,64.3 761.5,64.3 764.1,76.6 766.8,70.5 769.5,70.5 772.2,70.5 774.8,70.5 777.5,70.5 780.2,64.3 782.9,70.5 785.5,64.3 788.2,64.3 790.9,64.3 793.6,70.5 796.2,70.5 798.9,70.5 801.6,64.3 804.3,64.3 806.9,64.3 809.6,64.3 812.3,70.5 815.0,70.5 817.6,70.5 820.3,76.6 823.0,70.5 825.7,76.6 828.3,76.6 831.0,76.6 833.7,82.8 836.4,76.6 839.0,76.6 841.7,76.6 844.4,70.5 847.1,70.5 849.7,70.5 852.4,70.5 855.1,70.5 857.8,64.3 860.4,64.3 863.1,64.3 865.8,70.5 868.5,76.6 871.1,64.3 873.8,64.3 876.5,64.3 879.2,70.5 881.8,70.5 884.5,70.5 887.2,76.6 889.9,76.6 892.5,76.6 895.2,82.8 897.9,88.9 900.6,82.8 903.2,82.8 905.9,76.6 908.6,70.5 911.3,76.6 913.9,82.8 916.6,76.6 919.3,70.5 922.0,70.5 924.6,64.3 927.3,64.3 930.0,64.3 932.7,64.3 935.3,64.3 938.0,64.3"/><polyline fill="none" stroke="#f59e0b" stroke-width="2.5" stroke-linejoin="round" stroke-linecap="round" points="42.0,286.0 44.7,279.8 47.3,286.0 50.0,286.0 52.7,286.0 55.4,286.0 58.0,286.0 60.7,286.0 63.4,286.0 66.1,286.0 68.7,286.0 71.4,286.0 74.1,286.0 76.8,286.0 79.4,286.0 82.1,286.0 84.8,286.0 87.5,286.0 90.1,286.0 92.8,286.0 95.5,286.0 98.2,286.0 100.8,286.0 103.5,286.0 106.2,286.0 108.9,286.0 111.5,286.0 114.2,286.0 116.9,286.0 119.6,286.0 122.2,286.0 124.9,286.0 127.6,286.0 130.3,286.0 132.9,286.0 135.6,286.0 138.3,286.0 141.0,286.0 143.6,286.0 146.3,286.0 149.0,286.0 151.7,286.0 154.3,286.0 157.0,286.0 159.7,286.0 162.4,286.0 165.0,286.0 167.7,286.0 170.4,286.0 173.1,286.0 175.7,286.0 178.4,286.0 181.1,286.0 183.8,286.0 186.4,286.0 189.1,286.0 191.8,286.0 194.5,286.0 197.1,286.0 199.8,286.0 202.5,286.0 205.2,286.0 207.8,286.0 210.5,286.0 213.2,286.0 215.9,286.0 218.5,286.0 221.2,286.0 223.9,286.0 226.5,286.0 229.2,286.0 231.9,286.0 234.6,286.0 237.2,286.0 239.9,286.0 242.6,286.0 245.3,286.0 247.9,279.8 250.6,267.5 253.3,267.5 256.0,267.5 258.6,267.5 261.3,261.4 264.0,261.4 266.7,261.4 269.3,267.5 272.0,267.5 274.7,273.7 277.4,273.7 280.0,273.7 282.7,267.5 285.4,267.5 288.1,267.5 290.7,273.7 293.4,273.7 296.1,273.7 298.8,273.7 301.4,267.5 304.1,267.5 306.8,261.4 309.5,261.4 312.1,267.5 314.8,267.5 317.5,267.5 320.2,261.4 322.8,261.4 325.5,273.7 328.2,261.4 330.9,261.4 333.5,261.4 336.2,261.4 338.9,267.5 341.6,267.5 344.2,273.7 346.9,279.8 349.6,279.8 352.3,279.8 354.9,279.8 357.6,279.8 360.3,279.8 363.0,286.0 365.6,286.0 368.3,286.0 371.0,279.8 373.7,273.7 376.3,273.7 379.0,279.8 381.7,273.7 384.4,273.7 387.0,267.5 389.7,267.5 392.4,267.5 395.1,267.5 397.7,279.8 400.4,273.7 403.1,279.8 405.7,279.8 408.4,286.0 411.1,286.0 413.8,286.0 416.4,286.0 419.1,286.0 421.8,286.0 424.5,286.0 427.1,286.0 429.8,286.0 432.5,286.0 435.2,286.0 437.8,286.0 440.5,279.8 443.2,279.8 445.9,279.8 448.5,267.5 451.2,279.8 453.9,267.5 456.6,273.7 459.2,273.7 461.9,286.0 464.6,279.8 467.3,286.0 469.9,279.8 472.6,286.0 475.3,286.0 478.0,286.0 480.6,279.8 483.3,273.7 486.0,279.8 488.7,279.8 491.3,279.8 494.0,273.7 496.7,273.7 499.4,279.8 502.0,279.8 504.7,279.8 507.4,279.8 510.1,286.0 512.7,286.0 515.4,286.0 518.1,286.0 520.8,286.0 523.4,286.0 526.1,286.0 528.8,286.0 531.5,286.0 534.1,286.0 536.8,286.0 539.5,286.0 542.2,286.0 544.8,286.0 547.5,286.0 550.2,286.0 552.9,286.0 555.5,286.0 558.2,286.0 560.9,286.0 563.6,286.0 566.2,286.0 568.9,286.0 571.6,286.0 574.3,286.0 576.9,286.0 579.6,286.0 582.3,286.0 584.9,286.0 587.6,286.0 590.3,286.0 593.0,286.0 595.6,286.0 598.3,286.0 601.0,286.0 603.7,286.0 606.3,286.0 609.0,286.0 611.7,286.0 614.4,286.0 617.0,286.0 619.7,286.0 622.4,286.0 625.1,286.0 627.7,286.0 630.4,286.0 633.1,286.0 635.8,279.8 638.4,279.8 641.1,279.8 643.8,279.8 646.5,279.8 649.1,273.7 651.8,286.0 654.5,286.0 657.2,286.0 659.8,286.0 662.5,286.0 665.2,286.0 667.9,286.0 670.5,279.8 673.2,279.8 675.9,279.8 678.6,279.8 681.2,273.7 683.9,273.7 686.6,267.5 689.3,267.5 691.9,261.4 694.6,261.4 697.3,261.4 700.0,261.4 702.6,261.4 705.3,267.5 708.0,267.5 710.7,267.5 713.3,273.7 716.0,279.8 718.7,279.8 721.4,267.5 724.0,267.5 726.7,273.7 729.4,267.5 732.1,273.7 734.7,273.7 737.4,273.7 740.1,273.7 742.8,273.7 745.4,267.5 748.1,273.7 750.8,267.5 753.5,273.7 756.1,267.5 758.8,273.7 761.5,273.7 764.1,261.4 766.8,267.5 769.5,267.5 772.2,267.5 774.8,267.5 777.5,267.5 780.2,273.7 782.9,267.5 785.5,273.7 788.2,273.7 790.9,273.7 793.6,267.5 796.2,267.5 798.9,267.5 801.6,273.7 804.3,273.7 806.9,273.7 809.6,273.7 812.3,267.5 815.0,267.5 817.6,267.5 820.3,267.5 823.0,267.5 825.7,261.4 828.3,261.4 831.0,261.4 833.7,261.4 836.4,261.4 839.0,261.4 841.7,261.4 844.4,267.5 847.1,267.5 849.7,267.5 852.4,267.5 855.1,267.5 857.8,273.7 860.4,273.7 863.1,273.7 865.8,267.5 868.5,267.5 871.1,273.7 873.8,273.7 876.5,273.7 879.2,267.5 881.8,267.5 884.5,267.5 887.2,261.4 889.9,261.4 892.5,261.4 895.2,255.2 897.9,255.2 900.6,255.2 903.2,261.4 905.9,261.4 908.6,267.5 911.3,261.4 913.9,261.4 916.6,261.4 919.3,267.5 922.0,267.5 924.6,273.7 927.3,273.7 930.0,273.7 932.7,273.7 935.3,273.7 938.0,273.7"/><polyline fill="none" stroke="#ef4444" stroke-width="2.5" stroke-linejoin="round" stroke-linecap="round" points="42.0,273.7 44.7,273.7 47.3,273.7 50.0,273.7 52.7,273.7 55.4,273.7 58.0,273.7 60.7,273.7 63.4,273.7 66.1,273.7 68.7,273.7 71.4,273.7 74.1,273.7 76.8,273.7 79.4,273.7 82.1,273.7 84.8,273.7 87.5,273.7 90.1,273.7 92.8,273.7 95.5,273.7 98.2,273.7 100.8,273.7 103.5,273.7 106.2,273.7 108.9,273.7 111.5,273.7 114.2,273.7 116.9,273.7 119.6,273.7 122.2,273.7 124.9,273.7 127.6,273.7 130.3,273.7 132.9,273.7 135.6,273.7 138.3,273.7 141.0,273.7 143.6,273.7 146.3,273.7 149.0,273.7 151.7,273.7 154.3,273.7 157.0,273.7 159.7,273.7 162.4,273.7 165.0,273.7 167.7,273.7 170.4,273.7 173.1,273.7 175.7,273.7 178.4,273.7 181.1,273.7 183.8,273.7 186.4,273.7 189.1,273.7 191.8,273.7 194.5,273.7 197.1,273.7 199.8,273.7 202.5,273.7 205.2,273.7 207.8,273.7 210.5,273.7 213.2,273.7 215.9,273.7 218.5,273.7 221.2,273.7 223.9,273.7 226.5,273.7 229.2,267.5 231.9,273.7 234.6,273.7 237.2,273.7 239.9,273.7 242.6,273.7 245.3,273.7 247.9,273.7 250.6,273.7 253.3,273.7 256.0,273.7 258.6,267.5 261.3,273.7 264.0,273.7 266.7,273.7 269.3,273.7 272.0,273.7 274.7,273.7 277.4,273.7 280.0,273.7 282.7,273.7 285.4,273.7 288.1,267.5 290.7,273.7 293.4,273.7 296.1,273.7 298.8,273.7 301.4,273.7 304.1,273.7 306.8,273.7 309.5,273.7 312.1,273.7 314.8,273.7 317.5,273.7 320.2,273.7 322.8,273.7 325.5,249.1 328.2,273.7 330.9,273.7 333.5,273.7 336.2,273.7 338.9,273.7 341.6,273.7 344.2,273.7 346.9,273.7 349.6,273.7 352.3,273.7 354.9,273.7 357.6,273.7 360.3,273.7 363.0,273.7 365.6,273.7 368.3,273.7 371.0,273.7 373.7,267.5 376.3,273.7 379.0,279.8 381.7,286.0 384.4,286.0 387.0,286.0 389.7,286.0 392.4,286.0 395.1,279.8 397.7,279.8 400.4,286.0 403.1,286.0 405.7,279.8 408.4,286.0 411.1,286.0 413.8,286.0 416.4,286.0 419.1,286.0 421.8,279.8 424.5,286.0 427.1,286.0 429.8,286.0 432.5,286.0 435.2,286.0 437.8,286.0 440.5,286.0 443.2,286.0 445.9,286.0 448.5,286.0 451.2,279.8 453.9,279.8 456.6,286.0 459.2,279.8 461.9,286.0 464.6,286.0 467.3,286.0 469.9,286.0 472.6,286.0 475.3,286.0 478.0,286.0 480.6,286.0 483.3,286.0 486.0,286.0 488.7,286.0 491.3,286.0 494.0,286.0 496.7,286.0 499.4,286.0 502.0,279.8 504.7,286.0 507.4,279.8 510.1,286.0 512.7,286.0 515.4,286.0 518.1,286.0 520.8,286.0 523.4,286.0 526.1,286.0 528.8,286.0 531.5,286.0 534.1,286.0 536.8,286.0 539.5,286.0 542.2,286.0 544.8,286.0 547.5,279.8 550.2,286.0 552.9,286.0 555.5,286.0 558.2,286.0 560.9,286.0 563.6,286.0 566.2,286.0 568.9,286.0 571.6,286.0 574.3,286.0 576.9,286.0 579.6,286.0 582.3,286.0 584.9,286.0 587.6,286.0 590.3,286.0 593.0,286.0 595.6,286.0 598.3,286.0 601.0,286.0 603.7,286.0 606.3,286.0 609.0,286.0 611.7,286.0 614.4,286.0 617.0,286.0 619.7,286.0 622.4,279.8 625.1,279.8 627.7,286.0 630.4,286.0 633.1,286.0 635.8,286.0 638.4,286.0 641.1,273.7 643.8,286.0 646.5,286.0 649.1,286.0 651.8,286.0 654.5,286.0 657.2,286.0 659.8,286.0 662.5,286.0 665.2,286.0 667.9,286.0 670.5,286.0 673.2,286.0 675.9,286.0 678.6,286.0 681.2,286.0 683.9,286.0 686.6,286.0 689.3,286.0 691.9,286.0 694.6,279.8 697.3,286.0 700.0,286.0 702.6,279.8 705.3,279.8 708.0,286.0 710.7,286.0 713.3,286.0 716.0,286.0 718.7,286.0 721.4,286.0 724.0,286.0 726.7,286.0 729.4,286.0 732.1,286.0 734.7,286.0 737.4,286.0 740.1,273.7 742.8,286.0 745.4,286.0 748.1,286.0 750.8,286.0 753.5,286.0 756.1,286.0 758.8,286.0 761.5,286.0 764.1,286.0 766.8,286.0 769.5,286.0 772.2,286.0 774.8,286.0 777.5,286.0 780.2,286.0 782.9,286.0 785.5,286.0 788.2,286.0 790.9,286.0 793.6,286.0 796.2,286.0 798.9,286.0 801.6,286.0 804.3,286.0 806.9,286.0 809.6,286.0 812.3,286.0 815.0,286.0 817.6,286.0 820.3,279.8 823.0,286.0 825.7,286.0 828.3,286.0 831.0,286.0 833.7,279.8 836.4,286.0 839.0,286.0 841.7,286.0 844.4,286.0 847.1,286.0 849.7,286.0 852.4,286.0 855.1,286.0 857.8,286.0 860.4,286.0 863.1,286.0 865.8,286.0 868.5,279.8 871.1,286.0 873.8,286.0 876.5,286.0 879.2,286.0 881.8,286.0 884.5,286.0 887.2,286.0 889.9,286.0 892.5,286.0 895.2,286.0 897.9,279.8 900.6,286.0 903.2,279.8 905.9,286.0 908.6,286.0 911.3,286.0 913.9,279.8 916.6,286.0 919.3,286.0 922.0,286.0 924.6,286.0 927.3,286.0 930.0,286.0 932.7,286.0 935.3,286.0 938.0,286.0"/><polyline fill="none" stroke="#a855f7" stroke-width="2.5" stroke-linejoin="round" stroke-linecap="round" points="42.0,286.0 44.7,286.0 47.3,286.0 50.0,286.0 52.7,286.0 55.4,286.0 58.0,286.0 60.7,286.0 63.4,286.0 66.1,286.0 68.7,286.0 71.4,286.0 74.1,286.0 76.8,286.0 79.4,286.0 82.1,286.0 84.8,286.0 87.5,286.0 90.1,286.0 92.8,286.0 95.5,286.0 98.2,286.0 100.8,286.0 103.5,286.0 106.2,286.0 108.9,286.0 111.5,286.0 114.2,286.0 116.9,286.0 119.6,286.0 122.2,286.0 124.9,286.0 127.6,286.0 130.3,286.0 132.9,286.0 135.6,286.0 138.3,286.0 141.0,286.0 143.6,286.0 146.3,286.0 149.0,286.0 151.7,286.0 154.3,286.0 157.0,286.0 159.7,286.0 162.4,286.0 165.0,286.0 167.7,286.0 170.4,286.0 173.1,286.0 175.7,286.0 178.4,286.0 181.1,286.0 183.8,286.0 186.4,286.0 189.1,286.0 191.8,286.0 194.5,286.0 197.1,286.0 199.8,286.0 202.5,286.0 205.2,286.0 207.8,286.0 210.5,286.0 213.2,286.0 215.9,286.0 218.5,286.0 221.2,286.0 223.9,286.0 226.5,286.0 229.2,286.0 231.9,286.0 234.6,286.0 237.2,286.0 239.9,286.0 242.6,286.0 245.3,279.8 247.9,286.0 250.6,286.0 253.3,286.0 256.0,286.0 258.6,286.0 261.3,286.0 264.0,286.0 266.7,286.0 269.3,286.0 272.0,286.0 274.7,286.0 277.4,286.0 280.0,286.0 282.7,286.0 285.4,286.0 288.1,286.0 290.7,286.0 293.4,286.0 296.1,286.0 298.8,286.0 301.4,286.0 304.1,286.0 306.8,286.0 309.5,286.0 312.1,286.0 314.8,286.0 317.5,286.0 320.2,286.0 322.8,286.0 325.5,286.0 328.2,286.0 330.9,286.0 333.5,286.0 336.2,286.0 338.9,286.0 341.6,286.0 344.2,286.0 346.9,286.0 349.6,286.0 352.3,286.0 354.9,286.0 357.6,286.0 360.3,286.0 363.0,286.0 365.6,286.0 368.3,286.0 371.0,286.0 373.7,286.0 376.3,286.0 379.0,286.0 381.7,286.0 384.4,286.0 387.0,286.0 389.7,286.0 392.4,286.0 395.1,286.0 397.7,286.0 400.4,279.8 403.1,286.0 405.7,286.0 408.4,286.0 411.1,286.0 413.8,286.0 416.4,286.0 419.1,286.0 421.8,286.0 424.5,286.0 427.1,279.8 429.8,286.0 432.5,286.0 435.2,286.0 437.8,286.0 440.5,286.0 443.2,286.0 445.9,286.0 448.5,286.0 451.2,286.0 453.9,286.0 456.6,286.0 459.2,286.0 461.9,286.0 464.6,286.0 467.3,286.0 469.9,286.0 472.6,286.0 475.3,286.0 478.0,286.0 480.6,286.0 483.3,286.0 486.0,286.0 488.7,286.0 491.3,286.0 494.0,286.0 496.7,286.0 499.4,286.0 502.0,286.0 504.7,279.8 507.4,286.0 510.1,286.0 512.7,286.0 515.4,286.0 518.1,286.0 520.8,286.0 523.4,279.8 526.1,286.0 528.8,286.0 531.5,286.0 534.1,286.0 536.8,286.0 539.5,286.0 542.2,286.0 544.8,286.0 547.5,286.0 550.2,286.0 552.9,286.0 555.5,286.0 558.2,286.0 560.9,286.0 563.6,286.0 566.2,286.0 568.9,279.8 571.6,286.0 574.3,286.0 576.9,286.0 579.6,286.0 582.3,286.0 584.9,286.0 587.6,286.0 590.3,286.0 593.0,286.0 595.6,286.0 598.3,286.0 601.0,286.0 603.7,286.0 606.3,286.0 609.0,286.0 611.7,286.0 614.4,286.0 617.0,286.0 619.7,286.0 622.4,286.0 625.1,286.0 627.7,286.0 630.4,286.0 633.1,286.0 635.8,286.0 638.4,286.0 641.1,286.0 643.8,286.0 646.5,286.0 649.1,286.0 651.8,286.0 654.5,286.0 657.2,286.0 659.8,286.0 662.5,286.0 665.2,286.0 667.9,273.7 670.5,286.0 673.2,286.0 675.9,286.0 678.6,286.0 681.2,286.0 683.9,286.0 686.6,286.0 689.3,286.0 691.9,286.0 694.6,286.0 697.3,286.0 700.0,286.0 702.6,286.0 705.3,286.0 708.0,286.0 710.7,286.0 713.3,286.0 716.0,286.0 718.7,286.0 721.4,286.0 724.0,286.0 726.7,286.0 729.4,286.0 732.1,286.0 734.7,286.0 737.4,286.0 740.1,286.0 742.8,286.0 745.4,286.0 748.1,286.0 750.8,286.0 753.5,286.0 756.1,286.0 758.8,286.0 761.5,286.0 764.1,286.0 766.8,286.0 769.5,286.0 772.2,286.0 774.8,286.0 777.5,286.0 780.2,286.0 782.9,286.0 785.5,286.0 788.2,286.0 790.9,286.0 793.6,286.0 796.2,286.0 798.9,286.0 801.6,286.0 804.3,286.0 806.9,286.0 809.6,286.0 812.3,286.0 815.0,286.0 817.6,286.0 820.3,286.0 823.0,286.0 825.7,286.0 828.3,286.0 831.0,286.0 833.7,286.0 836.4,286.0 839.0,286.0 841.7,286.0 844.4,286.0 847.1,286.0 849.7,286.0 852.4,286.0 855.1,286.0 857.8,286.0 860.4,286.0 863.1,286.0 865.8,286.0 868.5,286.0 871.1,286.0 873.8,286.0 876.5,286.0 879.2,286.0 881.8,286.0 884.5,286.0 887.2,286.0 889.9,286.0 892.5,286.0 895.2,286.0 897.9,286.0 900.6,286.0 903.2,286.0 905.9,286.0 908.6,286.0 911.3,286.0 913.9,286.0 916.6,286.0 919.3,286.0 922.0,286.0 924.6,286.0 927.3,286.0 930.0,286.0 932.7,286.0 935.3,286.0 938.0,286.0"/><text x="42" y="308" font-size="11" fill="#9fb0d4">26/06 23:45</text><text x="938" y="308" text-anchor="end" font-size="11" fill="#9fb0d4">11/07 06:33</text></svg>