<svg xmlns="http://www.w3.org/2000/svg" viewBox="0 0 960 320" width="960" height="320" font-family="Segoe UI, system-ui, -apple-system, Roboto, Helvetica, Arial, sans-serif" role="img" aria-label="Availability history per region"><rect x="0.5" y="0.5" width="959" height="319" rx="14" fill="#0d1117" stroke="#2c3a5e"/><text x="42" y="26" font-size="14" font-weight="600" fill="#e6ecff">History · 250 points</text><circle cx="47" cy="40" r="5" fill="#22c55e"/><text x="57" y="44" font-size="12" fill="#9fb0d4">Available</text><circle cx="139.8" cy="40" r="5" fill="#f59e0b"/><text x="149.8" y="44" font-size="12" fill="#9fb0d4">Saturated</text><circle cx="232.60000000000002" cy="40" r="5" fill="#ef4444"/><text x="242.60000000000002" y="44" font-size="12" fill="#9fb0d4">Error</text><circle cx="296.6" cy="40" r="5" fill="#a855f7"/><text x="306.6" y="44" font-size="12" fill="#9fb0d4">Timeout</text><line x1="42" y1="286.0" x2="938" y2="286.0" stroke="#21304f" stroke-width="1"/><text x="35" y="289.0" text-anchor="end" font-size="11" fill="#9fb0d4">0</text><line x1="42" y1="227.5" x2="938" y2="227.5" stroke="#21304f" stroke-width="1"/><text x="35" y="230.5" text-anchor="end" font-size="11" fill="#9fb0d4">10</text><line x1="42" y1="169.0" x2="938" y2="169.0" stroke="#21304f" stroke-width="1"/><text x="35" y="172.0" text-anchor="end" font-size="11" fill="#9fb0d4">20</text><line x1="42" y1="110.5" x2="938" y2="110.5" stroke="#21304f" stroke-width="1"/><text x="35" y="113.5" text-anchor="end" font-size="11" fill="#9fb0d4">29</text><line x1="42" y1="52.0" x2="938" y2="52.0" stroke="#21304f" stroke-width="1"/><text x="35" y="55.0" text-anchor="end" font-size="11" fill="#9fb0d4">39</text><polyline fill="none" stroke="#22c55e" stroke-width="2.5" stroke-linejoin="round" stroke-linecap="round" points="42.0,70.0 45.6,70.0 49.2,88.0 52.8,88.0 56.4,76.0 60.0,76.0 63.6,76.0 67.2,70.0 70.8,76.0 74.4,70.0 78.0,64.0 81.6,58.0 85.2,58.0 88.8,58.0 92.4,58.0 96.0,58.0 99.6,58.0 103.2,58.0 106.8,58.0 110.4,58.0 114.0,58.0 117.6,58.0 121.2,58.0 124.8,58.0 128.4,58.0 132.0,58.0 135.6,58.0 139.2,58.0 142.8,58.0 146.4,58.0 150.0,58.0 153.6,70.0 157.1,76.0 160.7,94.0 164.3,64.0 167.9,64.0 171.5,58.0 175.1,58.0 178.7,58.0 182.3,70.0 185.9,76.0 189.5,76.0 193.1,82.0 196.7,82.0 200.3,82.0 203.9,82.0 207.5,76.0 211.1,64.0 214.7,70.0 218.3,70.0 221.9,82.0 225.5,76.0 229.1,76.0 232.7,82.0 236.3,76.0 239.9,76.0 243.5,76.0 247.1,64.0 250.7,64.0 254.3,76.0 257.9,76.0 261.5,76.0 265.1,88.0 268.7,70.0 272.3,64.0 275.9,58.0 279.5,58.0 283.1,70.0 286.7,70.0 290.3,70.0 293.9,76.0 297.5,70.0 301.1,70.0 304.7,70.0 308.3,70.0 311.9,76.0 315.5,82.0 319.1,76.0 322.7,70.0 326.3,70.0 329.9,70.0 333.5,70.0 337.1,76.0 340.7,70.0 344.3,70.0 347.9,70.0 351.5,70.0 355.1,70.0 358.7,70.0 362.3,70.0 365.9,70.0 369.5,70.0 373.1,70.0 376.7,70.0 380.2,70.0 383.8,70.0 387.4,70.0 391.0,70.0 394.6,70.0 398.2,70.0 401.8,70.0 405.4,70.0 409.0,70.0 412.6,70.0 416.2,70.0 419.8,70.0 423.4,70.0 427.0,70.0 430.6,70.0 434.2,70.0 437.8,70.0 441.4,70.0 445.0,70.0 448.6,70.0 452.2,70.0 455.8,70.0 459.4,70.0 463.0,70.0 466.6,70.0 470.2,70.0 473.8,70.0 477.4,70.0 481.0,70.0 484.6,70.0 488.2,70.0 491.8,70.0 495.4,70.0 499.0,70.0 502.6,70.0 506.2,70.0 509.8,70.0 513.4,70.0 517.0,70.0 520.6,70.0 524.2,70.0 527.8,70.0 531.4,70.0 535.0,70.0 538.6,70.0 542.2,70.0 545.8,70.0 549.4,70.0 553.0,70.0 556.6,70.0 560.2,70.0 563.8,70.0 567.4,70.0 571.0,70.0 574.6,70.0 578.2,70.0 581.8,70.0 585.4,76.0 589.0,70.0 592.6,70.0 596.2,70.0 599.8,70.0 603.3,70.0 606.9,76.0 610.5,76.0 614.1,88.0 617.7,88.0 621.3,88.0 624.9,94.0 628.5,94.0 632.1,94.0 635.7,94.0 639.3,88.0 642.9,88.0 646.5,82.0 650.1,82.0 653.7,82.0 657.3,88.0 660.9,88.0 664.5,94.0 668.1,82.0 671.7,82.0 675.3,82.0 678.9,82.0 682.5,88.0 686.1,88.0 689.7,94.0 693.3,94.0 696.9,88.0 700.5,88.0 704.1,88.0 707.7,94.0 711.3,94.0 714.9,106.0 718.5,94.0 722.1,94.0 725.7,94.0 729.3,94.0 732.9,88.0 736.5,88.0 740.1,82.0 743.7,76.0 747.3,76.0 750.9,76.0 754.5,76.0 758.1,76.0 761.7,76.0 765.3,70.0 768.9,70.0 772.5,70.0 776.1,76.0 779.7,88.0 783.3,82.0 786.9,70.0 790.5,70.0 794.1,70.0 797.7,76.0 801.3,76.0 804.9,76.0 808.5,82.0 812.1,70.0 815.7,76.0 819.3,64.0 822.9,70.0 826.4,58.0 830.0,58.0 833.6,58.0 837.2,58.0 840.8,58.0 844.4,64.0 848.0,58.0 851.6,64.0 855.2,58.0 858.8,58.0 862.4,58.0 866.0,58.0 869.6,64.0 873.2,64.0 876.8,64.0 880.4,76.0 884.0,70.0 887.6,82.0 891.2,70.0 894.8,76.0 898.4,58.0 902.0,64.0 905.6,58.0 909.2,64.0 912.8,58.0 916.4,58.0 920.0,58.0 923.6,64.0 927.2,70.0 930.8,64.0 934.4,64.0 938.0,64.0"/><polyline fill="none" stroke="#f59e0b" stroke-width="2.5" stroke-linejoin="round" stroke-linecap="round" points="42.0,274.0 45.6,274.0 49.2,274.0 52.8,280.0 56.4,268.0 60.0,268.0 63.6,268.0 67.2,274.0 70.8,274.0 74.4,274.0 78.0,280.0 81.6,286.0 85.2,286.0 88.8,286.0 92.4,286.0 96.0,286.0 99.6,286.0 103.2,286.0 106.8,286.0 110.4,286.0 114.0,286.0 117.6,286.0 121.2,286.0 124.8,286.0 128.4,286.0 132.0,286.0 135.6,286.0 139.2,286.0 142.8,286.0 146.4,286.0 150.0,286.0 153.6,274.0 157.1,280.0 160.7,280.0 164.3,280.0 167.9,280.0 171.5,286.0 175.1,286.0 178.7,286.0 182.3,274.0 185.9,268.0 189.5,268.0 193.1,262.0 196.7,262.0 200.3,262.0 203.9,262.0 207.5,268.0 211.1,280.0 214.7,280.0 218.3,274.0 221.9,262.0 225.5,268.0 229.1,268.0 232.7,262.0 236.3,268.0 239.9,268.0 243.5,268.0 247.1,280.0 250.7,280.0 254.3,268.0 257.9,268.0 261.5,268.0 265.1,262.0 268.7,274.0 272.3,280.0 275.9,286.0 279.5,286.0 283.1,274.0 286.7,274.0 290.3,274.0 293.9,274.0 297.5,274.0 301.1,274.0 304.7,274.0 308.3,274.0 311.9,280.0 315.5,274.0 319.1,280.0 322.7,286.0 326.3,286.0 329.9,286.0 333.5,286.0 337.1,280.0 340.7,286.0 344.3,286.0 347.9,286.0 351.5,286.0 355.1,286.0 358.7,286.0 362.3,286.0 365.9,286.0 369.5,286.0 373.1,286.0 376.7,286.0 380.2,286.0 383.8,286.0 387.4,286.0 391.0,286.0 394.6,286.0 398.2,286.0 401.8,286.0 405.4,286.0 409.0,286.0 412.6,286.0 416.2,286.0 419.8,286.0 423.4,286.0 427.0,286.0 430.6,286.0 434.2,286.0 437.8,286.0 441.4,286.0 445.0,286.0 448.6,286.0 452.2,286.0 455.8,286.0 459.4,286.0 463.0,286.0 466.6,286.0 470.2,286.0 473.8,286.0 477.4,286.0 481.0,286.0 484.6,286.0 488.2,286.0 491.8,286.0 495.4,286.0 499.0,286.0 502.6,286.0 506.2,286.0 509.8,286.0 513.4,286.0 517.0,286.0 520.6,286.0 524.2,286.0 527.8,286.0 531.4,286.0 535.0,286.0 538.6,286.0 542.2,286.0 545.8,286.0 549.4,286.0 553.0,286.0 556.6,286.0 560.2,286.0 563.8,286.0 567.4,286.0 571.0,286.0 574.6,286.0 578.2,286.0 581.8,286.0 585.4,286.0 589.0,286.0 592.6,286.0 596.2,286.0 599.8,286.0 603.3,286.0 606.9,286.0 610.5,280.0 614.1,268.0 617.7,268.0 621.3,268.0 624.9,268.0 628.5,262.0 632.1,262.0 635.7,262.0 639.3,268.0 642.9,268.0 646.5,274.0 650.1,274.0 653.7,274.0 657.3,268.0 660.9,268.0 664.5,268.0 668.1,274.0 671.7,274.0 675.3,274.0 678.9,274.0 682.5,268.0 686.1,268.0 689.7,262.0 693.3,262.0 696.9,268.0 700.5,268.0 704.1,268.0 707.7,262.0 711.3,262.0 714.9,274.0 718.5,262.0 722.1,262.0 725.7,262.0 729.3,262.0 732.9,268.0 736.5,268.0 740.1,274.0 743.7,280.0 747.3,280.0 750.9,280.0 754.5,280.0 758.1,280.0 761.7,280.0 765.3,286.0 768.9,286.0 772.5,286.0 776.1,280.0 779.7,274.0 783.3,274.0 786.9,280.0 790.5,274.0 794.1,274.0 797.7,268.0 801.3,268.0 804.9,268.0 808.5,268.0 812.1,280.0 815.7,274.0 819.3,280.0 822.9,280.0 826.4,286.0 830.0,286.0 833.6,286.0 837.2,286.0 840.8,286.0 844.4,286.0 848.0,286.0 851.6,286.0 855.2,286.0 858.8,286.0 862.4,286.0 866.0,286.0 869.6,280.0 873.2,280.0 876.8,280.0 880.4,268.0 884.0,280.0 887.6,268.0 891.2,274.0 894.8,274.0 898.4,286.0 902.0,280.0 905.6,286.0 909.2,280.0 912.8,286.0 916.4,286.0 920.0,286.0 923.6,280.0 927.2,274.0 930.8,280.0 934.4,280.0 938.0,280.0"/><polyline fill="none" stroke="#ef4444" stroke-width="2.5" stroke-linejoin="round" stroke-linecap="round" points="42.0,280.0 45.6,280.0 49.2,268.0 52.8,262.0 56.4,286.0 60.0,286.0 63.6,286.0 67.2,286.0 70.8,280.0 74.4,286.0 78.0,286.0 81.6,286.0 85.2,286.0 88.8,286.0 92.4,286.0 96.0,286.0 99.6,286.0 103.2,286.0 106.8,286.0 110.4,286.0 114.0,286.0 117.6,286.0 121.2,286.0 124.8,286.0 128.4,286.0 132.0,286.0 135.6,286.0 139.2,286.0 142.8,286.0 146.4,286.0 150.0,286.0 153.6,286.0 157.1,274.0 160.7,256.0 164.3,286.0 167.9,286.0 171.5,286.0 175.1,286.0 178.7,286.0 182.3,286.0 185.9,286.0 189.5,286.0 193.1,286.0 196.7,286.0 200.3,286.0 203.9,286.0 207.5,286.0 211.1,286.0 214.7,280.0 218.3,286.0 221.9,286.0 225.5,286.0 229.1,286.0 232.7,286.0 236.3,286.0 239.9,286.0 243.5,286.0 247.1,286.0 250.7,286.0 254.3,286.0 257.9,286.0 261.5,286.0 265.1,280.0 268.7,286.0 272.3,286.0 275.9,286.0 279.5,286.0 283.1,286.0 286.7,286.0 290.3,286.0 293.9,286.0 297.5,286.0 301.1,286.0 304.7,286.0 308.3,286.0 311.9,274.0 315.5,274.0 319.1,274.0 322.7,274.0 326.3,274.0 329.9,274.0 333.5,274.0 337.1,274.0 340.7,274.0 344.3,274.0 347.9,274.0 351.5,274.0 355.1,274.0 358.7,274.0 362.3,274.0 365.9,274.0 369.5,274.0 373.1,274.0 376.7,274.0 380.2,274.0 383.8,274.0 387.4,274.0 391.0,274.0 394.6,274.0 398.2,274.0 401.8,274.0 405.4,274.0 409.0,274.0 412.6,274.0 416.2,274.0 419.8,274.0 423.4,274.0 427.0,274.0 430.6,274.0 434.2,274.0 437.8,274.0 441.4,274.0 445.0,274.0 448.6,274.0 452.2,274.0 455.8,274.0 459.4,274.0 463.0,274.0 466.6,274.0 470.2,274.0 473.8,274.0 477.4,274.0 481.0,274.0 484.6,274.0 488.2,274.0 491.8,274.0 495.4,274.0 499.0,274.0 502.6,274.0 506.2,274.0 509.8,274.0 513.4,274.0 517.0,274.0 520.6,274.0 524.2,274.0 527.8,274.0 531.4,274.0 535.0,274.0 538.6,274.0 542.2,274.0 545.8,274.0 549.4,274.0 553.0,274.0 556.6,274.0 560.2,274.0 563.8,274.0 567.4,274.0 571.0,274.0 574.6,274.0 578.2,274.0 581.8,274.0 585.4,268.0 589.0,274.0 592.6,274.0 596.2,274.0 599.8,274.0 603.3,274.0 606.9,274.0 610.5,274.0 614.1,274.0 617.7,274.0 621.3,274.0 624.9,268.0 628.5,274.0 632.1,274.0 635.7,274.0 639.3,274.0 642.9,274.0 646.5,274.0 650.1,274.0 653.7,274.0 657.3,274.0 660.9,274.0 664.5,268.0 668.1,274.0 671.7,274.0 675.3,274.0 678.9,274.0 682.5,274.0 686.1,274.0 689.7,274.0 693.3,274.0 696.9,274.0 700.5,274.0 704.1,274.0 707.7,274.0 711.3,274.0 714.9,250.0 718.5,274.0 722.1,274.0 725.7,274.0 729.3,274.0 732.9,274.0 736.5,274.0 740.1,274.0 743.7,274.0 747.3,274.0 750.9,274.0 754.5,274.0 758.1,274.0 761.7,274.0 765.3,274.0 768.9,274.0 772.5,274.0 776.1,274.0 779.7,268.0 783.3,274.0 786.9,280.0 790.5,286.0 794.1,286.0 797.7,286.0 801.3,286.0 804.9,286.0 808.5,280.0 812.1,280.0 815.7,286.0 819.3,286.0 822.9,280.0 826.4,286.0 830.0,286.0 833.6,286.0 837.2,286.0 840.8,286.0 844.4,280.0 848.0,286.0 851.6,286.0 855.2,286.0 858.8,286.0 862.4,286.0 866.0,286.0 869.6,286.0 873.2,286.0 876.8,286.0 880.4,286.0 884.0,280.0 887.6,280.0 891.2,286.0 894.8,280.0 898.4,286.0 902.0,286.0 905.6,286.0 909.2,286.0 912.8,286.0 916.4,286.0 920.0,286.0 923.6,286.0 927.2,286.0 930.8,286.0 934.4,286.0 938.0,286.0"/><polyline fill="none" stroke="#a855f7" stroke-width="2.5" stroke-linejoin="round" stroke-linecap="round" points="42.0,286.0 45.6,286.0 49.2,286.0 52.8,286.0 56.4,286.0 60.0,286.0 63.6,286.0 67.2,286.0 70.8,286.0 74.4,286.0 78.0,286.0 81.6,286.0 85.2,286.0 88.8,286.0 92.4,286.0 96.0,286.0 99.6,286.0 103.2,286.0 106.8,286.0 110.4,286.0 114.0,286.0 117.6,286.0 121.2,286.0 124.8,286.0 128.4,286.0 132.0,286.0 135.6,286.0 139.2,286.0 142.8,286.0 146.4,286.0 150.0,286.0 153.6,286.0 157.1,286.0 160.7,286.0 164.3,286.0 167.9,286.0 171.5,286.0 175.1,286.0 178.7,286.0 182.3,286.0 185.9,286.0 189.5,286.0 193.1,286.0 196.7,286.0 200.3,286.0 203.9,286.0 207.5,286.0 211.1,286.0 214.7,286.0 218.3,286.0 221.9,286.0 225.5,286.0 229.1,286.0 232.7,286.0 236.3,286.0 239.9,286.0 243.5,286.0 247.1,286.0 250.7,286.0 254.3,286.0 257.9,286.0 261.5,286.0 265.1,286.0 268.7,286.0 272.3,286.0 275.9,286.0 279.5,286.0 283.1,286.0 286.7,286.0 290.3,286.0 293.9,280.0 297.5,286.0 301.1,286.0 304.7,286.0 308.3,286.0 311.9,286.0 315.5,286.0 319.1,286.0 322.7,286.0 326.3,286.0 329.9,286.0 333.5,286.0 337.1,286.0 340.7,286.0 344.3,286.0 347.9,286.0 351.5,286.0 355.1,286.0 358.7,286.0 362.3,286.0 365.9,286.0 369.5,286.0 373.1,286.0 376.7,286.0 380.2,286.0 383.8,286.0 387.4,286.0 391.0,286.0 394.6,286.0 398.2,286.0 401.8,286.0 405.4,286.0 409.0,286.0 412.6,286.0 416.2,286.0 419.8,286.0 423.4,286.0 427.0,286.0 430.6,286.0 434.2,286.0 437.8,286.0 441.4,286.0 445.0,286.0 448.6,286.0 452.2,286.0 455.8,286.0 459.4,286.0 463.0,286.0 466.6,286.0 470.2,286.0 473.8,286.0 477.4,286.0 481.0,286.0 484.6,286.0 488.2,286.0 491.8,286.0 495.4,286.0 499.0,286.0 502.6,286.0 506.2,286.0 509.8,286.0 513.4,286.0 517.0,286.0 520.6,286.0 524.2,286.0 527.8,286.0 531.4,286.0 535.0,286.0 538.6,286.0 542.2,286.0 545.8,286.0 549.4,286.0 553.0,286.0 556.6,286.0 560.2,286.0 563.8,286.0 567.4,286.0 571.0,286.0 574.6,286.0 578.2,286.0 581.8,286.0 585.4,286.0 589.0,286.0 592.6,286.0 596.2,286.0 599.8,286.0 603.3,286.0 606.9,280.0 610.5,286.0 614.1,286.0 617.7,286.0 621.3,286.0 624.9,286.0 628.5,286.0 632.1,286.0 635.7,286.0 639.3,286.0 642.9,286.0 646.5,286.0 650.1,286.0 653.7,286.0 657.3,286.0 660.9,286.0 664.5,286.0 668.1,286.0 671.7,286.0 675.3,286.0 678.9,286.0 682.5,286.0 686.1,286.0 689.7,286.0 693.3,286.0 696.9,286.0 700.5,286.0 704.1,286.0 707.7,286.0 711.3,286.0 714.9,286.0 718.5,286.0 722.1,286.0 725.7,286.0 729.3,286.0 732.9,286.0 736.5,286.0 740.1,286.0 743.7,286.0 747.3,286.0 750.9,286.0 754.5,286.0 758.1,286.0 761.7,286.0 765.3,286.0 768.9,286.0 772.5,286.0 776.1,286.0 779.7,286.0 783.3,286.0 786.9,286.0 790.5,286.0 794.1,286.0 797.7,286.0 801.3,286.0 804.9,286.0 808.5,286.0 812.1,286.0 815.7,280.0 819.3,286.0 822.9,286.0 826.4,286.0 830.0,286.0 833.6,286.0 837.2,286.0 840.8,286.0 844.4,286.0 848.0,286.0 851.6,280.0 855.2,286.0 858.8,286.0 862.4,286.0 866.0,286.0 869.6,286.0 873.2,286.0 876.8,286.0 880.4,286.0 884.0,286.0 887.6,286.0 891.2,286.0 894.8,286.0 898.4,286.0 902.0,286.0 905.6,286.0 909.2,286.0 912.8,286.0 916.4,286.0 920.0,286.0 923.6,286.0 927.2,286.0 930.8,286.0 934.4,286.0 938.0,286.0"/><text x="42" y="308" font-size="11" fill="#9fb0d4">19/06 12:43</text><text x="938" y="308" text-anchor="end" font-size="11" fill="#9fb0d4">03/07 11:29</text></svg>