<svg xmlns="http://www.w3.org/2000/svg" viewBox="0 0 960 320" width="960" height="320" font-family="Segoe UI, system-ui, -apple-system, Roboto, Helvetica, Arial, sans-serif" role="img" aria-label="Availability history per region"><rect x="0.5" y="0.5" width="959" height="319" rx="14" fill="#ffffff" stroke="#dce3f1"/><text x="42" y="26" font-size="14" font-weight="600" fill="#14203a">History · 263 points</text><circle cx="47" cy="40" r="5" fill="#22c55e"/><text x="57" y="44" font-size="12" fill="#5a688a">Available</text><circle cx="139.8" cy="40" r="5" fill="#f59e0b"/><text x="149.8" y="44" font-size="12" fill="#5a688a">Saturated</text><circle cx="232.60000000000002" cy="40" r="5" fill="#ef4444"/><text x="242.60000000000002" y="44" font-size="12" fill="#5a688a">Error</text><circle cx="296.6" cy="40" r="5" fill="#a855f7"/><text x="306.6" y="44" font-size="12" fill="#5a688a">Timeout</text><line x1="42" y1="286.0" x2="938" y2="286.0" stroke="#eef2f7" stroke-width="1"/><text x="35" y="289.0" text-anchor="end" font-size="11" fill="#5a688a">0</text><line x1="42" y1="227.5" x2="938" y2="227.5" stroke="#eef2f7" stroke-width="1"/><text x="35" y="230.5" text-anchor="end" font-size="11" fill="#5a688a">10</text><line x1="42" y1="169.0" x2="938" y2="169.0" stroke="#eef2f7" stroke-width="1"/><text x="35" y="172.0" text-anchor="end" font-size="11" fill="#5a688a">20</text><line x1="42" y1="110.5" x2="938" y2="110.5" stroke="#eef2f7" stroke-width="1"/><text x="35" y="113.5" text-anchor="end" font-size="11" fill="#5a688a">29</text><line x1="42" y1="52.0" x2="938" y2="52.0" stroke="#eef2f7" stroke-width="1"/><text x="35" y="55.0" text-anchor="end" font-size="11" fill="#5a688a">39</text><polyline fill="none" stroke="#22c55e" stroke-width="2.5" stroke-linejoin="round" stroke-linecap="round" points="42.0,70.0 45.4,70.0 48.8,88.0 52.3,88.0 55.7,76.0 59.1,76.0 62.5,76.0 65.9,70.0 69.4,76.0 72.8,70.0 76.2,64.0 79.6,58.0 83.0,58.0 86.5,58.0 89.9,58.0 93.3,58.0 96.7,58.0 100.1,58.0 103.6,58.0 107.0,58.0 110.4,58.0 113.8,58.0 117.2,58.0 120.7,58.0 124.1,58.0 127.5,58.0 130.9,58.0 134.3,58.0 137.8,58.0 141.2,58.0 144.6,58.0 148.0,70.0 151.4,76.0 154.9,94.0 158.3,64.0 161.7,64.0 165.1,58.0 168.5,58.0 172.0,58.0 175.4,70.0 178.8,76.0 182.2,76.0 185.6,82.0 189.1,82.0 192.5,82.0 195.9,82.0 199.3,76.0 202.7,64.0 206.2,70.0 209.6,70.0 213.0,82.0 216.4,76.0 219.8,76.0 223.3,82.0 226.7,76.0 230.1,76.0 233.5,76.0 236.9,64.0 240.4,64.0 243.8,76.0 247.2,76.0 250.6,76.0 254.0,88.0 257.5,70.0 260.9,64.0 264.3,58.0 267.7,58.0 271.1,70.0 274.5,70.0 278.0,70.0 281.4,76.0 284.8,70.0 288.2,70.0 291.6,70.0 295.1,70.0 298.5,76.0 301.9,82.0 305.3,76.0 308.7,70.0 312.2,70.0 315.6,70.0 319.0,70.0 322.4,76.0 325.8,70.0 329.3,70.0 332.7,70.0 336.1,70.0 339.5,70.0 342.9,70.0 346.4,70.0 349.8,70.0 353.2,70.0 356.6,70.0 360.0,70.0 363.5,70.0 366.9,70.0 370.3,70.0 373.7,70.0 377.1,70.0 380.6,70.0 384.0,70.0 387.4,70.0 390.8,70.0 394.2,70.0 397.7,70.0 401.1,70.0 404.5,70.0 407.9,70.0 411.3,70.0 414.8,70.0 418.2,70.0 421.6,70.0 425.0,70.0 428.4,70.0 431.9,70.0 435.3,70.0 438.7,70.0 442.1,70.0 445.5,70.0 449.0,70.0 452.4,70.0 455.8,70.0 459.2,70.0 462.6,70.0 466.1,70.0 469.5,70.0 472.9,70.0 476.3,70.0 479.7,70.0 483.2,70.0 486.6,70.0 490.0,70.0 493.4,70.0 496.8,70.0 500.3,70.0 503.7,70.0 507.1,70.0 510.5,70.0 513.9,70.0 517.4,70.0 520.8,70.0 524.2,70.0 527.6,70.0 531.0,70.0 534.5,70.0 537.9,70.0 541.3,70.0 544.7,70.0 548.1,70.0 551.6,70.0 555.0,70.0 558.4,76.0 561.8,70.0 565.2,70.0 568.7,70.0 572.1,70.0 575.5,70.0 578.9,76.0 582.3,76.0 585.8,88.0 589.2,88.0 592.6,88.0 596.0,94.0 599.4,94.0 602.9,94.0 606.3,94.0 609.7,88.0 613.1,88.0 616.5,82.0 620.0,82.0 623.4,82.0 626.8,88.0 630.2,88.0 633.6,94.0 637.1,82.0 640.5,82.0 643.9,82.0 647.3,82.0 650.7,88.0 654.2,88.0 657.6,94.0 661.0,94.0 664.4,88.0 667.8,88.0 671.3,88.0 674.7,94.0 678.1,94.0 681.5,106.0 684.9,94.0 688.4,94.0 691.8,94.0 695.2,94.0 698.6,88.0 702.0,88.0 705.5,82.0 708.9,76.0 712.3,76.0 715.7,76.0 719.1,76.0 722.5,76.0 726.0,76.0 729.4,70.0 732.8,70.0 736.2,70.0 739.6,76.0 743.1,88.0 746.5,82.0 749.9,70.0 753.3,70.0 756.7,70.0 760.2,76.0 763.6,76.0 767.0,76.0 770.4,82.0 773.8,70.0 777.3,76.0 780.7,64.0 784.1,70.0 787.5,58.0 790.9,58.0 794.4,58.0 797.8,58.0 801.2,58.0 804.6,64.0 808.0,58.0 811.5,64.0 814.9,58.0 818.3,58.0 821.7,58.0 825.1,58.0 828.6,64.0 832.0,64.0 835.4,64.0 838.8,76.0 842.2,70.0 845.7,82.0 849.1,70.0 852.5,76.0 855.9,58.0 859.3,64.0 862.8,58.0 866.2,64.0 869.6,58.0 873.0,58.0 876.4,58.0 879.9,64.0 883.3,70.0 886.7,64.0 890.1,64.0 893.5,64.0 897.0,70.0 900.4,70.0 903.8,64.0 907.2,70.0 910.6,70.0 914.1,70.0 917.5,58.0 920.9,58.0 924.3,58.0 927.7,58.0 931.2,58.0 934.6,64.0 938.0,58.0"/><polyline fill="none" stroke="#f59e0b" stroke-width="2.5" stroke-linejoin="round" stroke-linecap="round" points="42.0,274.0 45.4,274.0 48.8,274.0 52.3,280.0 55.7,268.0 59.1,268.0 62.5,268.0 65.9,274.0 69.4,274.0 72.8,274.0 76.2,280.0 79.6,286.0 83.0,286.0 86.5,286.0 89.9,286.0 93.3,286.0 96.7,286.0 100.1,286.0 103.6,286.0 107.0,286.0 110.4,286.0 113.8,286.0 117.2,286.0 120.7,286.0 124.1,286.0 127.5,286.0 130.9,286.0 134.3,286.0 137.8,286.0 141.2,286.0 144.6,286.0 148.0,274.0 151.4,280.0 154.9,280.0 158.3,280.0 161.7,280.0 165.1,286.0 168.5,286.0 172.0,286.0 175.4,274.0 178.8,268.0 182.2,268.0 185.6,262.0 189.1,262.0 192.5,262.0 195.9,262.0 199.3,268.0 202.7,280.0 206.2,280.0 209.6,274.0 213.0,262.0 216.4,268.0 219.8,268.0 223.3,262.0 226.7,268.0 230.1,268.0 233.5,268.0 236.9,280.0 240.4,280.0 243.8,268.0 247.2,268.0 250.6,268.0 254.0,262.0 257.5,274.0 260.9,280.0 264.3,286.0 267.7,286.0 271.1,274.0 274.5,274.0 278.0,274.0 281.4,274.0 284.8,274.0 288.2,274.0 291.6,274.0 295.1,274.0 298.5,280.0 301.9,274.0 305.3,280.0 308.7,286.0 312.2,286.0 315.6,286.0 319.0,286.0 322.4,280.0 325.8,286.0 329.3,286.0 332.7,286.0 336.1,286.0 339.5,286.0 342.9,286.0 346.4,286.0 349.8,286.0 353.2,286.0 356.6,286.0 360.0,286.0 363.5,286.0 366.9,286.0 370.3,286.0 373.7,286.0 377.1,286.0 380.6,286.0 384.0,286.0 387.4,286.0 390.8,286.0 394.2,286.0 397.7,286.0 401.1,286.0 404.5,286.0 407.9,286.0 411.3,286.0 414.8,286.0 418.2,286.0 421.6,286.0 425.0,286.0 428.4,286.0 431.9,286.0 435.3,286.0 438.7,286.0 442.1,286.0 445.5,286.0 449.0,286.0 452.4,286.0 455.8,286.0 459.2,286.0 462.6,286.0 466.1,286.0 469.5,286.0 472.9,286.0 476.3,286.0 479.7,286.0 483.2,286.0 486.6,286.0 490.0,286.0 493.4,286.0 496.8,286.0 500.3,286.0 503.7,286.0 507.1,286.0 510.5,286.0 513.9,286.0 517.4,286.0 520.8,286.0 524.2,286.0 527.6,286.0 531.0,286.0 534.5,286.0 537.9,286.0 541.3,286.0 544.7,286.0 548.1,286.0 551.6,286.0 555.0,286.0 558.4,286.0 561.8,286.0 565.2,286.0 568.7,286.0 572.1,286.0 575.5,286.0 578.9,286.0 582.3,280.0 585.8,268.0 589.2,268.0 592.6,268.0 596.0,268.0 599.4,262.0 602.9,262.0 606.3,262.0 609.7,268.0 613.1,268.0 616.5,274.0 620.0,274.0 623.4,274.0 626.8,268.0 630.2,268.0 633.6,268.0 637.1,274.0 640.5,274.0 643.9,274.0 647.3,274.0 650.7,268.0 654.2,268.0 657.6,262.0 661.0,262.0 664.4,268.0 667.8,268.0 671.3,268.0 674.7,262.0 678.1,262.0 681.5,274.0 684.9,262.0 688.4,262.0 691.8,262.0 695.2,262.0 698.6,268.0 702.0,268.0 705.5,274.0 708.9,280.0 712.3,280.0 715.7,280.0 719.1,280.0 722.5,280.0 726.0,280.0 729.4,286.0 732.8,286.0 736.2,286.0 739.6,280.0 743.1,274.0 746.5,274.0 749.9,280.0 753.3,274.0 756.7,274.0 760.2,268.0 763.6,268.0 767.0,268.0 770.4,268.0 773.8,280.0 777.3,274.0 780.7,280.0 784.1,280.0 787.5,286.0 790.9,286.0 794.4,286.0 797.8,286.0 801.2,286.0 804.6,286.0 808.0,286.0 811.5,286.0 814.9,286.0 818.3,286.0 821.7,286.0 825.1,286.0 828.6,280.0 832.0,280.0 835.4,280.0 838.8,268.0 842.2,280.0 845.7,268.0 849.1,274.0 852.5,274.0 855.9,286.0 859.3,280.0 862.8,286.0 866.2,280.0 869.6,286.0 873.0,286.0 876.4,286.0 879.9,280.0 883.3,274.0 886.7,280.0 890.1,280.0 893.5,280.0 897.0,274.0 900.4,274.0 903.8,280.0 907.2,280.0 910.6,280.0 914.1,280.0 917.5,286.0 920.9,286.0 924.3,286.0 927.7,286.0 931.2,286.0 934.6,286.0 938.0,286.0"/><polyline fill="none" stroke="#ef4444" stroke-width="2.5" stroke-linejoin="round" stroke-linecap="round" points="42.0,280.0 45.4,280.0 48.8,268.0 52.3,262.0 55.7,286.0 59.1,286.0 62.5,286.0 65.9,286.0 69.4,280.0 72.8,286.0 76.2,286.0 79.6,286.0 83.0,286.0 86.5,286.0 89.9,286.0 93.3,286.0 96.7,286.0 100.1,286.0 103.6,286.0 107.0,286.0 110.4,286.0 113.8,286.0 117.2,286.0 120.7,286.0 124.1,286.0 127.5,286.0 130.9,286.0 134.3,286.0 137.8,286.0 141.2,286.0 144.6,286.0 148.0,286.0 151.4,274.0 154.9,256.0 158.3,286.0 161.7,286.0 165.1,286.0 168.5,286.0 172.0,286.0 175.4,286.0 178.8,286.0 182.2,286.0 185.6,286.0 189.1,286.0 192.5,286.0 195.9,286.0 199.3,286.0 202.7,286.0 206.2,280.0 209.6,286.0 213.0,286.0 216.4,286.0 219.8,286.0 223.3,286.0 226.7,286.0 230.1,286.0 233.5,286.0 236.9,286.0 240.4,286.0 243.8,286.0 247.2,286.0 250.6,286.0 254.0,280.0 257.5,286.0 260.9,286.0 264.3,286.0 267.7,286.0 271.1,286.0 274.5,286.0 278.0,286.0 281.4,286.0 284.8,286.0 288.2,286.0 291.6,286.0 295.1,286.0 298.5,274.0 301.9,274.0 305.3,274.0 308.7,274.0 312.2,274.0 315.6,274.0 319.0,274.0 322.4,274.0 325.8,274.0 329.3,274.0 332.7,274.0 336.1,274.0 339.5,274.0 342.9,274.0 346.4,274.0 349.8,274.0 353.2,274.0 356.6,274.0 360.0,274.0 363.5,274.0 366.9,274.0 370.3,274.0 373.7,274.0 377.1,274.0 380.6,274.0 384.0,274.0 387.4,274.0 390.8,274.0 394.2,274.0 397.7,274.0 401.1,274.0 404.5,274.0 407.9,274.0 411.3,274.0 414.8,274.0 418.2,274.0 421.6,274.0 425.0,274.0 428.4,274.0 431.9,274.0 435.3,274.0 438.7,274.0 442.1,274.0 445.5,274.0 449.0,274.0 452.4,274.0 455.8,274.0 459.2,274.0 462.6,274.0 466.1,274.0 469.5,274.0 472.9,274.0 476.3,274.0 479.7,274.0 483.2,274.0 486.6,274.0 490.0,274.0 493.4,274.0 496.8,274.0 500.3,274.0 503.7,274.0 507.1,274.0 510.5,274.0 513.9,274.0 517.4,274.0 520.8,274.0 524.2,274.0 527.6,274.0 531.0,274.0 534.5,274.0 537.9,274.0 541.3,274.0 544.7,274.0 548.1,274.0 551.6,274.0 555.0,274.0 558.4,268.0 561.8,274.0 565.2,274.0 568.7,274.0 572.1,274.0 575.5,274.0 578.9,274.0 582.3,274.0 585.8,274.0 589.2,274.0 592.6,274.0 596.0,268.0 599.4,274.0 602.9,274.0 606.3,274.0 609.7,274.0 613.1,274.0 616.5,274.0 620.0,274.0 623.4,274.0 626.8,274.0 630.2,274.0 633.6,268.0 637.1,274.0 640.5,274.0 643.9,274.0 647.3,274.0 650.7,274.0 654.2,274.0 657.6,274.0 661.0,274.0 664.4,274.0 667.8,274.0 671.3,274.0 674.7,274.0 678.1,274.0 681.5,250.0 684.9,274.0 688.4,274.0 691.8,274.0 695.2,274.0 698.6,274.0 702.0,274.0 705.5,274.0 708.9,274.0 712.3,274.0 715.7,274.0 719.1,274.0 722.5,274.0 726.0,274.0 729.4,274.0 732.8,274.0 736.2,274.0 739.6,274.0 743.1,268.0 746.5,274.0 749.9,280.0 753.3,286.0 756.7,286.0 760.2,286.0 763.6,286.0 767.0,286.0 770.4,280.0 773.8,280.0 777.3,286.0 780.7,286.0 784.1,280.0 787.5,286.0 790.9,286.0 794.4,286.0 797.8,286.0 801.2,286.0 804.6,280.0 808.0,286.0 811.5,286.0 814.9,286.0 818.3,286.0 821.7,286.0 825.1,286.0 828.6,286.0 832.0,286.0 835.4,286.0 838.8,286.0 842.2,280.0 845.7,280.0 849.1,286.0 852.5,280.0 855.9,286.0 859.3,286.0 862.8,286.0 866.2,286.0 869.6,286.0 873.0,286.0 876.4,286.0 879.9,286.0 883.3,286.0 886.7,286.0 890.1,286.0 893.5,286.0 897.0,286.0 900.4,286.0 903.8,286.0 907.2,280.0 910.6,286.0 914.1,280.0 917.5,286.0 920.9,286.0 924.3,286.0 927.7,286.0 931.2,286.0 934.6,286.0 938.0,286.0"/><polyline fill="none" stroke="#a855f7" stroke-width="2.5" stroke-linejoin="round" stroke-linecap="round" points="42.0,286.0 45.4,286.0 48.8,286.0 52.3,286.0 55.7,286.0 59.1,286.0 62.5,286.0 65.9,286.0 69.4,286.0 72.8,286.0 76.2,286.0 79.6,286.0 83.0,286.0 86.5,286.0 89.9,286.0 93.3,286.0 96.7,286.0 100.1,286.0 103.6,286.0 107.0,286.0 110.4,286.0 113.8,286.0 117.2,286.0 120.7,286.0 124.1,286.0 127.5,286.0 130.9,286.0 134.3,286.0 137.8,286.0 141.2,286.0 144.6,286.0 148.0,286.0 151.4,286.0 154.9,286.0 158.3,286.0 161.7,286.0 165.1,286.0 168.5,286.0 172.0,286.0 175.4,286.0 178.8,286.0 182.2,286.0 185.6,286.0 189.1,286.0 192.5,286.0 195.9,286.0 199.3,286.0 202.7,286.0 206.2,286.0 209.6,286.0 213.0,286.0 216.4,286.0 219.8,286.0 223.3,286.0 226.7,286.0 230.1,286.0 233.5,286.0 236.9,286.0 240.4,286.0 243.8,286.0 247.2,286.0 250.6,286.0 254.0,286.0 257.5,286.0 260.9,286.0 264.3,286.0 267.7,286.0 271.1,286.0 274.5,286.0 278.0,286.0 281.4,280.0 284.8,286.0 288.2,286.0 291.6,286.0 295.1,286.0 298.5,286.0 301.9,286.0 305.3,286.0 308.7,286.0 312.2,286.0 315.6,286.0 319.0,286.0 322.4,286.0 325.8,286.0 329.3,286.0 332.7,286.0 336.1,286.0 339.5,286.0 342.9,286.0 346.4,286.0 349.8,286.0 353.2,286.0 356.6,286.0 360.0,286.0 363.5,286.0 366.9,286.0 370.3,286.0 373.7,286.0 377.1,286.0 380.6,286.0 384.0,286.0 387.4,286.0 390.8,286.0 394.2,286.0 397.7,286.0 401.1,286.0 404.5,286.0 407.9,286.0 411.3,286.0 414.8,286.0 418.2,286.0 421.6,286.0 425.0,286.0 428.4,286.0 431.9,286.0 435.3,286.0 438.7,286.0 442.1,286.0 445.5,286.0 449.0,286.0 452.4,286.0 455.8,286.0 459.2,286.0 462.6,286.0 466.1,286.0 469.5,286.0 472.9,286.0 476.3,286.0 479.7,286.0 483.2,286.0 486.6,286.0 490.0,286.0 493.4,286.0 496.8,286.0 500.3,286.0 503.7,286.0 507.1,286.0 510.5,286.0 513.9,286.0 517.4,286.0 520.8,286.0 524.2,286.0 527.6,286.0 531.0,286.0 534.5,286.0 537.9,286.0 541.3,286.0 544.7,286.0 548.1,286.0 551.6,286.0 555.0,286.0 558.4,286.0 561.8,286.0 565.2,286.0 568.7,286.0 572.1,286.0 575.5,286.0 578.9,280.0 582.3,286.0 585.8,286.0 589.2,286.0 592.6,286.0 596.0,286.0 599.4,286.0 602.9,286.0 606.3,286.0 609.7,286.0 613.1,286.0 616.5,286.0 620.0,286.0 623.4,286.0 626.8,286.0 630.2,286.0 633.6,286.0 637.1,286.0 640.5,286.0 643.9,286.0 647.3,286.0 650.7,286.0 654.2,286.0 657.6,286.0 661.0,286.0 664.4,286.0 667.8,286.0 671.3,286.0 674.7,286.0 678.1,286.0 681.5,286.0 684.9,286.0 688.4,286.0 691.8,286.0 695.2,286.0 698.6,286.0 702.0,286.0 705.5,286.0 708.9,286.0 712.3,286.0 715.7,286.0 719.1,286.0 722.5,286.0 726.0,286.0 729.4,286.0 732.8,286.0 736.2,286.0 739.6,286.0 743.1,286.0 746.5,286.0 749.9,286.0 753.3,286.0 756.7,286.0 760.2,286.0 763.6,286.0 767.0,286.0 770.4,286.0 773.8,286.0 777.3,280.0 780.7,286.0 784.1,286.0 787.5,286.0 790.9,286.0 794.4,286.0 797.8,286.0 801.2,286.0 804.6,286.0 808.0,286.0 811.5,280.0 814.9,286.0 818.3,286.0 821.7,286.0 825.1,286.0 828.6,286.0 832.0,286.0 835.4,286.0 838.8,286.0 842.2,286.0 845.7,286.0 849.1,286.0 852.5,286.0 855.9,286.0 859.3,286.0 862.8,286.0 866.2,286.0 869.6,286.0 873.0,286.0 876.4,286.0 879.9,286.0 883.3,286.0 886.7,286.0 890.1,286.0 893.5,286.0 897.0,286.0 900.4,286.0 903.8,286.0 907.2,286.0 910.6,280.0 914.1,286.0 917.5,286.0 920.9,286.0 924.3,286.0 927.7,286.0 931.2,286.0 934.6,280.0 938.0,286.0"/><text x="42" y="308" font-size="11" fill="#5a688a">19/06 12:43</text><text x="938" y="308" text-anchor="end" font-size="11" fill="#5a688a">04/07 05:29</text></svg>