<svg xmlns="http://www.w3.org/2000/svg" viewBox="0 0 960 320" width="960" height="320" font-family="Segoe UI, system-ui, -apple-system, Roboto, Helvetica, Arial, sans-serif" role="img" aria-label="Availability history per region"><rect x="0.5" y="0.5" width="959" height="319" rx="14" fill="#ffffff" stroke="#dce3f1"/><text x="42" y="26" font-size="14" font-weight="600" fill="#14203a">History · 43 points</text><circle cx="47" cy="40" r="5" fill="#22c55e"/><text x="57" y="44" font-size="12" fill="#5a688a">Available</text><circle cx="139.8" cy="40" r="5" fill="#f59e0b"/><text x="149.8" y="44" font-size="12" fill="#5a688a">Saturated</text><circle cx="232.60000000000002" cy="40" r="5" fill="#ef4444"/><text x="242.60000000000002" y="44" font-size="12" fill="#5a688a">Error</text><line x1="42" y1="286.0" x2="938" y2="286.0" stroke="#eef2f7" stroke-width="1"/><text x="35" y="289.0" text-anchor="end" font-size="11" fill="#5a688a">0</text><line x1="42" y1="227.5" x2="938" y2="227.5" stroke="#eef2f7" stroke-width="1"/><text x="35" y="230.5" text-anchor="end" font-size="11" fill="#5a688a">10</text><line x1="42" y1="169.0" x2="938" y2="169.0" stroke="#eef2f7" stroke-width="1"/><text x="35" y="172.0" text-anchor="end" font-size="11" fill="#5a688a">19</text><line x1="42" y1="110.5" x2="938" y2="110.5" stroke="#eef2f7" stroke-width="1"/><text x="35" y="113.5" text-anchor="end" font-size="11" fill="#5a688a">28</text><line x1="42" y1="52.0" x2="938" y2="52.0" stroke="#eef2f7" stroke-width="1"/><text x="35" y="55.0" text-anchor="end" font-size="11" fill="#5a688a">38</text><polyline fill="none" stroke="#22c55e" stroke-width="2.5" stroke-linejoin="round" stroke-linecap="round" points="42.0,64.3 63.3,224.4 84.7,82.8 106.0,88.9 127.3,82.8 148.7,76.6 170.0,76.6 191.3,76.6 212.7,76.6 234.0,76.6 255.3,76.6 276.7,76.6 298.0,76.6 319.3,76.6 340.7,76.6 362.0,70.5 383.3,70.5 404.7,82.8 426.0,82.8 447.3,82.8 468.7,88.9 490.0,88.9 511.3,88.9 532.7,88.9 554.0,88.9 575.3,88.9 596.7,88.9 618.0,88.9 639.3,88.9 660.7,82.8 682.0,82.8 703.3,82.8 724.7,82.8 746.0,76.6 767.3,76.6 788.7,76.6 810.0,76.6 831.3,76.6 852.7,82.8 874.0,82.8 895.3,82.8 916.7,82.8 938.0,76.6"/><circle cx="42.0" cy="64.3" r="2.5" fill="#22c55e"/><circle cx="63.3" cy="224.4" r="2.5" fill="#22c55e"/><circle cx="84.7" cy="82.8" r="2.5" fill="#22c55e"/><circle cx="106.0" cy="88.9" r="2.5" fill="#22c55e"/><circle cx="127.3" cy="82.8" r="2.5" fill="#22c55e"/><circle cx="148.7" cy="76.6" r="2.5" fill="#22c55e"/><circle cx="170.0" cy="76.6" r="2.5" fill="#22c55e"/><circle cx="191.3" cy="76.6" r="2.5" fill="#22c55e"/><circle cx="212.7" cy="76.6" r="2.5" fill="#22c55e"/><circle cx="234.0" cy="76.6" r="2.5" fill="#22c55e"/><circle cx="255.3" cy="76.6" r="2.5" fill="#22c55e"/><circle cx="276.7" cy="76.6" r="2.5" fill="#22c55e"/><circle cx="298.0" cy="76.6" r="2.5" fill="#22c55e"/><circle cx="319.3" cy="76.6" r="2.5" fill="#22c55e"/><circle cx="340.7" cy="76.6" r="2.5" fill="#22c55e"/><circle cx="362.0" cy="70.5" r="2.5" fill="#22c55e"/><circle cx="383.3" cy="70.5" r="2.5" fill="#22c55e"/><circle cx="404.7" cy="82.8" r="2.5" fill="#22c55e"/><circle cx="426.0" cy="82.8" r="2.5" fill="#22c55e"/><circle cx="447.3" cy="82.8" r="2.5" fill="#22c55e"/><circle cx="468.7" cy="88.9" r="2.5" fill="#22c55e"/><circle cx="490.0" cy="88.9" r="2.5" fill="#22c55e"/><circle cx="511.3" cy="88.9" r="2.5" fill="#22c55e"/><circle cx="532.7" cy="88.9" r="2.5" fill="#22c55e"/><circle cx="554.0" cy="88.9" r="2.5" fill="#22c55e"/><circle cx="575.3" cy="88.9" r="2.5" fill="#22c55e"/><circle cx="596.7" cy="88.9" r="2.5" fill="#22c55e"/><circle cx="618.0" cy="88.9" r="2.5" fill="#22c55e"/><circle cx="639.3" cy="88.9" r="2.5" fill="#22c55e"/><circle cx="660.7" cy="82.8" r="2.5" fill="#22c55e"/><circle cx="682.0" cy="82.8" r="2.5" fill="#22c55e"/><circle cx="703.3" cy="82.8" r="2.5" fill="#22c55e"/><circle cx="724.7" cy="82.8" r="2.5" fill="#22c55e"/><circle cx="746.0" cy="76.6" r="2.5" fill="#22c55e"/><circle cx="767.3" cy="76.6" r="2.5" fill="#22c55e"/><circle cx="788.7" cy="76.6" r="2.5" fill="#22c55e"/><circle cx="810.0" cy="76.6" r="2.5" fill="#22c55e"/><circle cx="831.3" cy="76.6" r="2.5" fill="#22c55e"/><circle cx="852.7" cy="82.8" r="2.5" fill="#22c55e"/><circle cx="874.0" cy="82.8" r="2.5" fill="#22c55e"/><circle cx="895.3" cy="82.8" r="2.5" fill="#22c55e"/><circle cx="916.7" cy="82.8" r="2.5" fill="#22c55e"/><circle cx="938.0" cy="76.6" r="2.5" fill="#22c55e"/><polyline fill="none" stroke="#f59e0b" stroke-width="2.5" stroke-linejoin="round" stroke-linecap="round" points="42.0,273.7 63.3,267.5 84.7,255.2 106.0,249.1 127.3,255.2 148.7,261.4 170.0,261.4 191.3,261.4 212.7,261.4 234.0,261.4 255.3,261.4 276.7,261.4 298.0,261.4 319.3,261.4 340.7,261.4 362.0,267.5 383.3,267.5 404.7,261.4 426.0,255.2 447.3,255.2 468.7,249.1 490.0,249.1 511.3,249.1 532.7,249.1 554.0,249.1 575.3,249.1 596.7,249.1 618.0,249.1 639.3,249.1 660.7,255.2 682.0,255.2 703.3,255.2 724.7,255.2 746.0,261.4 767.3,261.4 788.7,261.4 810.0,261.4 831.3,261.4 852.7,255.2 874.0,255.2 895.3,255.2 916.7,255.2 938.0,261.4"/><circle cx="42.0" cy="273.7" r="2.5" fill="#f59e0b"/><circle cx="63.3" cy="267.5" r="2.5" fill="#f59e0b"/><circle cx="84.7" cy="255.2" r="2.5" fill="#f59e0b"/><circle cx="106.0" cy="249.1" r="2.5" fill="#f59e0b"/><circle cx="127.3" cy="255.2" r="2.5" fill="#f59e0b"/><circle cx="148.7" cy="261.4" r="2.5" fill="#f59e0b"/><circle cx="170.0" cy="261.4" r="2.5" fill="#f59e0b"/><circle cx="191.3" cy="261.4" r="2.5" fill="#f59e0b"/><circle cx="212.7" cy="261.4" r="2.5" fill="#f59e0b"/><circle cx="234.0" cy="261.4" r="2.5" fill="#f59e0b"/><circle cx="255.3" cy="261.4" r="2.5" fill="#f59e0b"/><circle cx="276.7" cy="261.4" r="2.5" fill="#f59e0b"/><circle cx="298.0" cy="261.4" r="2.5" fill="#f59e0b"/><circle cx="319.3" cy="261.4" r="2.5" fill="#f59e0b"/><circle cx="340.7" cy="261.4" r="2.5" fill="#f59e0b"/><circle cx="362.0" cy="267.5" r="2.5" fill="#f59e0b"/><circle cx="383.3" cy="267.5" r="2.5" fill="#f59e0b"/><circle cx="404.7" cy="261.4" r="2.5" fill="#f59e0b"/><circle cx="426.0" cy="255.2" r="2.5" fill="#f59e0b"/><circle cx="447.3" cy="255.2" r="2.5" fill="#f59e0b"/><circle cx="468.7" cy="249.1" r="2.5" fill="#f59e0b"/><circle cx="490.0" cy="249.1" r="2.5" fill="#f59e0b"/><circle cx="511.3" cy="249.1" r="2.5" fill="#f59e0b"/><circle cx="532.7" cy="249.1" r="2.5" fill="#f59e0b"/><circle cx="554.0" cy="249.1" r="2.5" fill="#f59e0b"/><circle cx="575.3" cy="249.1" r="2.5" fill="#f59e0b"/><circle cx="596.7" cy="249.1" r="2.5" fill="#f59e0b"/><circle cx="618.0" cy="249.1" r="2.5" fill="#f59e0b"/><circle cx="639.3" cy="249.1" r="2.5" fill="#f59e0b"/><circle cx="660.7" cy="255.2" r="2.5" fill="#f59e0b"/><circle cx="682.0" cy="255.2" r="2.5" fill="#f59e0b"/><circle cx="703.3" cy="255.2" r="2.5" fill="#f59e0b"/><circle cx="724.7" cy="255.2" r="2.5" fill="#f59e0b"/><circle cx="746.0" cy="261.4" r="2.5" fill="#f59e0b"/><circle cx="767.3" cy="261.4" r="2.5" fill="#f59e0b"/><circle cx="788.7" cy="261.4" r="2.5" fill="#f59e0b"/><circle cx="810.0" cy="261.4" r="2.5" fill="#f59e0b"/><circle cx="831.3" cy="261.4" r="2.5" fill="#f59e0b"/><circle cx="852.7" cy="255.2" r="2.5" fill="#f59e0b"/><circle cx="874.0" cy="255.2" r="2.5" fill="#f59e0b"/><circle cx="895.3" cy="255.2" r="2.5" fill="#f59e0b"/><circle cx="916.7" cy="255.2" r="2.5" fill="#f59e0b"/><circle cx="938.0" cy="261.4" r="2.5" fill="#f59e0b"/><polyline fill="none" stroke="#ef4444" stroke-width="2.5" stroke-linejoin="round" stroke-linecap="round" points="42.0,286.0 63.3,132.1 84.7,286.0 106.0,286.0 127.3,286.0 148.7,286.0 170.0,286.0 191.3,286.0 212.7,286.0 234.0,286.0 255.3,286.0 276.7,286.0 298.0,286.0 319.3,286.0 340.7,286.0 362.0,286.0 383.3,286.0 404.7,279.8 426.0,286.0 447.3,286.0 468.7,286.0 490.0,286.0 511.3,286.0 532.7,286.0 554.0,286.0 575.3,286.0 596.7,286.0 618.0,286.0 639.3,286.0 660.7,286.0 682.0,286.0 703.3,286.0 724.7,286.0 746.0,286.0 767.3,286.0 788.7,286.0 810.0,286.0 831.3,286.0 852.7,286.0 874.0,286.0 895.3,286.0 916.7,286.0 938.0,286.0"/><circle cx="42.0" cy="286.0" r="2.5" fill="#ef4444"/><circle cx="63.3" cy="132.1" r="2.5" fill="#ef4444"/><circle cx="84.7" cy="286.0" r="2.5" fill="#ef4444"/><circle cx="106.0" cy="286.0" r="2.5" fill="#ef4444"/><circle cx="127.3" cy="286.0" r="2.5" fill="#ef4444"/><circle cx="148.7" cy="286.0" r="2.5" fill="#ef4444"/><circle cx="170.0" cy="286.0" r="2.5" fill="#ef4444"/><circle cx="191.3" cy="286.0" r="2.5" fill="#ef4444"/><circle cx="212.7" cy="286.0" r="2.5" fill="#ef4444"/><circle cx="234.0" cy="286.0" r="2.5" fill="#ef4444"/><circle cx="255.3" cy="286.0" r="2.5" fill="#ef4444"/><circle cx="276.7" cy="286.0" r="2.5" fill="#ef4444"/><circle cx="298.0" cy="286.0" r="2.5" fill="#ef4444"/><circle cx="319.3" cy="286.0" r="2.5" fill="#ef4444"/><circle cx="340.7" cy="286.0" r="2.5" fill="#ef4444"/><circle cx="362.0" cy="286.0" r="2.5" fill="#ef4444"/><circle cx="383.3" cy="286.0" r="2.5" fill="#ef4444"/><circle cx="404.7" cy="279.8" r="2.5" fill="#ef4444"/><circle cx="426.0" cy="286.0" r="2.5" fill="#ef4444"/><circle cx="447.3" cy="286.0" r="2.5" fill="#ef4444"/><circle cx="468.7" cy="286.0" r="2.5" fill="#ef4444"/><circle cx="490.0" cy="286.0" r="2.5" fill="#ef4444"/><circle cx="511.3" cy="286.0" r="2.5" fill="#ef4444"/><circle cx="532.7" cy="286.0" r="2.5" fill="#ef4444"/><circle cx="554.0" cy="286.0" r="2.5" fill="#ef4444"/><circle cx="575.3" cy="286.0" r="2.5" fill="#ef4444"/><circle cx="596.7" cy="286.0" r="2.5" fill="#ef4444"/><circle cx="618.0" cy="286.0" r="2.5" fill="#ef4444"/><circle cx="639.3" cy="286.0" r="2.5" fill="#ef4444"/><circle cx="660.7" cy="286.0" r="2.5" fill="#ef4444"/><circle cx="682.0" cy="286.0" r="2.5" fill="#ef4444"/><circle cx="703.3" cy="286.0" r="2.5" fill="#ef4444"/><circle cx="724.7" cy="286.0" r="2.5" fill="#ef4444"/><circle cx="746.0" cy="286.0" r="2.5" fill="#ef4444"/><circle cx="767.3" cy="286.0" r="2.5" fill="#ef4444"/><circle cx="788.7" cy="286.0" r="2.5" fill="#ef4444"/><circle cx="810.0" cy="286.0" r="2.5" fill="#ef4444"/><circle cx="831.3" cy="286.0" r="2.5" fill="#ef4444"/><circle cx="852.7" cy="286.0" r="2.5" fill="#ef4444"/><circle cx="874.0" cy="286.0" r="2.5" fill="#ef4444"/><circle cx="895.3" cy="286.0" r="2.5" fill="#ef4444"/><circle cx="916.7" cy="286.0" r="2.5" fill="#ef4444"/><circle cx="938.0" cy="286.0" r="2.5" fill="#ef4444"/><text x="42" y="308" font-size="11" fill="#5a688a">19/06 15:39</text><text x="938" y="308" text-anchor="end" font-size="11" fill="#5a688a">18/07 08:33</text></svg>