<svg xmlns="http://www.w3.org/2000/svg" viewBox="0 0 960 320" width="960" height="320" font-family="Segoe UI, system-ui, -apple-system, Roboto, Helvetica, Arial, sans-serif" role="img" aria-label="Availability history per region"><rect x="0.5" y="0.5" width="959" height="319" rx="14" fill="#ffffff" stroke="#dce3f1"/><text x="42" y="26" font-size="14" font-weight="600" fill="#14203a">History · 89 points</text><circle cx="47" cy="40" r="5" fill="#22c55e"/><text x="57" y="44" font-size="12" fill="#5a688a">Available</text><circle cx="139.8" cy="40" r="5" fill="#f59e0b"/><text x="149.8" y="44" font-size="12" fill="#5a688a">Saturated</text><circle cx="232.60000000000002" cy="40" r="5" fill="#ef4444"/><text x="242.60000000000002" y="44" font-size="12" fill="#5a688a">Error</text><circle cx="296.6" cy="40" r="5" fill="#a855f7"/><text x="306.6" y="44" font-size="12" fill="#5a688a">Timeout</text><line x1="42" y1="286.0" x2="938" y2="286.0" stroke="#eef2f7" stroke-width="1"/><text x="35" y="289.0" text-anchor="end" font-size="11" fill="#5a688a">0</text><line x1="42" y1="227.5" x2="938" y2="227.5" stroke="#eef2f7" stroke-width="1"/><text x="35" y="230.5" text-anchor="end" font-size="11" fill="#5a688a">10</text><line x1="42" y1="169.0" x2="938" y2="169.0" stroke="#eef2f7" stroke-width="1"/><text x="35" y="172.0" text-anchor="end" font-size="11" fill="#5a688a">20</text><line x1="42" y1="110.5" x2="938" y2="110.5" stroke="#eef2f7" stroke-width="1"/><text x="35" y="113.5" text-anchor="end" font-size="11" fill="#5a688a">29</text><line x1="42" y1="52.0" x2="938" y2="52.0" stroke="#eef2f7" stroke-width="1"/><text x="35" y="55.0" text-anchor="end" font-size="11" fill="#5a688a">39</text><polyline fill="none" stroke="#22c55e" stroke-width="2.5" stroke-linejoin="round" stroke-linecap="round" points="42.0,70.0 52.2,70.0 62.4,88.0 72.5,88.0 82.7,76.0 92.9,76.0 103.1,76.0 113.3,70.0 123.5,76.0 133.6,70.0 143.8,64.0 154.0,58.0 164.2,58.0 174.4,58.0 184.5,58.0 194.7,58.0 204.9,58.0 215.1,58.0 225.3,58.0 235.5,58.0 245.6,58.0 255.8,58.0 266.0,58.0 276.2,58.0 286.4,58.0 296.5,58.0 306.7,58.0 316.9,58.0 327.1,58.0 337.3,58.0 347.5,58.0 357.6,70.0 367.8,76.0 378.0,94.0 388.2,64.0 398.4,64.0 408.5,58.0 418.7,58.0 428.9,58.0 439.1,70.0 449.3,76.0 459.5,76.0 469.6,82.0 479.8,82.0 490.0,82.0 500.2,82.0 510.4,76.0 520.5,64.0 530.7,70.0 540.9,70.0 551.1,82.0 561.3,76.0 571.5,76.0 581.6,82.0 591.8,76.0 602.0,76.0 612.2,76.0 622.4,64.0 632.5,64.0 642.7,76.0 652.9,76.0 663.1,76.0 673.3,88.0 683.5,70.0 693.6,64.0 703.8,58.0 714.0,58.0 724.2,70.0 734.4,70.0 744.5,70.0 754.7,76.0 764.9,70.0 775.1,70.0 785.3,70.0 795.5,70.0 805.6,76.0 815.8,82.0 826.0,76.0 836.2,70.0 846.4,70.0 856.5,70.0 866.7,70.0 876.9,76.0 887.1,70.0 897.3,70.0 907.5,70.0 917.6,70.0 927.8,70.0 938.0,70.0"/><polyline fill="none" stroke="#f59e0b" stroke-width="2.5" stroke-linejoin="round" stroke-linecap="round" points="42.0,274.0 52.2,274.0 62.4,274.0 72.5,280.0 82.7,268.0 92.9,268.0 103.1,268.0 113.3,274.0 123.5,274.0 133.6,274.0 143.8,280.0 154.0,286.0 164.2,286.0 174.4,286.0 184.5,286.0 194.7,286.0 204.9,286.0 215.1,286.0 225.3,286.0 235.5,286.0 245.6,286.0 255.8,286.0 266.0,286.0 276.2,286.0 286.4,286.0 296.5,286.0 306.7,286.0 316.9,286.0 327.1,286.0 337.3,286.0 347.5,286.0 357.6,274.0 367.8,280.0 378.0,280.0 388.2,280.0 398.4,280.0 408.5,286.0 418.7,286.0 428.9,286.0 439.1,274.0 449.3,268.0 459.5,268.0 469.6,262.0 479.8,262.0 490.0,262.0 500.2,262.0 510.4,268.0 520.5,280.0 530.7,280.0 540.9,274.0 551.1,262.0 561.3,268.0 571.5,268.0 581.6,262.0 591.8,268.0 602.0,268.0 612.2,268.0 622.4,280.0 632.5,280.0 642.7,268.0 652.9,268.0 663.1,268.0 673.3,262.0 683.5,274.0 693.6,280.0 703.8,286.0 714.0,286.0 724.2,274.0 734.4,274.0 744.5,274.0 754.7,274.0 764.9,274.0 775.1,274.0 785.3,274.0 795.5,274.0 805.6,280.0 815.8,274.0 826.0,280.0 836.2,286.0 846.4,286.0 856.5,286.0 866.7,286.0 876.9,280.0 887.1,286.0 897.3,286.0 907.5,286.0 917.6,286.0 927.8,286.0 938.0,286.0"/><polyline fill="none" stroke="#ef4444" stroke-width="2.5" stroke-linejoin="round" stroke-linecap="round" points="42.0,280.0 52.2,280.0 62.4,268.0 72.5,262.0 82.7,286.0 92.9,286.0 103.1,286.0 113.3,286.0 123.5,280.0 133.6,286.0 143.8,286.0 154.0,286.0 164.2,286.0 174.4,286.0 184.5,286.0 194.7,286.0 204.9,286.0 215.1,286.0 225.3,286.0 235.5,286.0 245.6,286.0 255.8,286.0 266.0,286.0 276.2,286.0 286.4,286.0 296.5,286.0 306.7,286.0 316.9,286.0 327.1,286.0 337.3,286.0 347.5,286.0 357.6,286.0 367.8,274.0 378.0,256.0 388.2,286.0 398.4,286.0 408.5,286.0 418.7,286.0 428.9,286.0 439.1,286.0 449.3,286.0 459.5,286.0 469.6,286.0 479.8,286.0 490.0,286.0 500.2,286.0 510.4,286.0 520.5,286.0 530.7,280.0 540.9,286.0 551.1,286.0 561.3,286.0 571.5,286.0 581.6,286.0 591.8,286.0 602.0,286.0 612.2,286.0 622.4,286.0 632.5,286.0 642.7,286.0 652.9,286.0 663.1,286.0 673.3,280.0 683.5,286.0 693.6,286.0 703.8,286.0 714.0,286.0 724.2,286.0 734.4,286.0 744.5,286.0 754.7,286.0 764.9,286.0 775.1,286.0 785.3,286.0 795.5,286.0 805.6,274.0 815.8,274.0 826.0,274.0 836.2,274.0 846.4,274.0 856.5,274.0 866.7,274.0 876.9,274.0 887.1,274.0 897.3,274.0 907.5,274.0 917.6,274.0 927.8,274.0 938.0,274.0"/><polyline fill="none" stroke="#a855f7" stroke-width="2.5" stroke-linejoin="round" stroke-linecap="round" points="42.0,286.0 52.2,286.0 62.4,286.0 72.5,286.0 82.7,286.0 92.9,286.0 103.1,286.0 113.3,286.0 123.5,286.0 133.6,286.0 143.8,286.0 154.0,286.0 164.2,286.0 174.4,286.0 184.5,286.0 194.7,286.0 204.9,286.0 215.1,286.0 225.3,286.0 235.5,286.0 245.6,286.0 255.8,286.0 266.0,286.0 276.2,286.0 286.4,286.0 296.5,286.0 306.7,286.0 316.9,286.0 327.1,286.0 337.3,286.0 347.5,286.0 357.6,286.0 367.8,286.0 378.0,286.0 388.2,286.0 398.4,286.0 408.5,286.0 418.7,286.0 428.9,286.0 439.1,286.0 449.3,286.0 459.5,286.0 469.6,286.0 479.8,286.0 490.0,286.0 500.2,286.0 510.4,286.0 520.5,286.0 530.7,286.0 540.9,286.0 551.1,286.0 561.3,286.0 571.5,286.0 581.6,286.0 591.8,286.0 602.0,286.0 612.2,286.0 622.4,286.0 632.5,286.0 642.7,286.0 652.9,286.0 663.1,286.0 673.3,286.0 683.5,286.0 693.6,286.0 703.8,286.0 714.0,286.0 724.2,286.0 734.4,286.0 744.5,286.0 754.7,280.0 764.9,286.0 775.1,286.0 785.3,286.0 795.5,286.0 805.6,286.0 815.8,286.0 826.0,286.0 836.2,286.0 846.4,286.0 856.5,286.0 866.7,286.0 876.9,286.0 887.1,286.0 897.3,286.0 907.5,286.0 917.6,286.0 927.8,286.0 938.0,286.0"/><text x="42" y="308" font-size="11" fill="#5a688a">19/06 12:43</text><text x="938" y="308" text-anchor="end" font-size="11" fill="#5a688a">27/06 05:30</text></svg>