<svg xmlns="http://www.w3.org/2000/svg" viewBox="0 0 960 320" width="960" height="320" font-family="Segoe UI, system-ui, -apple-system, Roboto, Helvetica, Arial, sans-serif" role="img" aria-label="Availability history per region"><rect x="0.5" y="0.5" width="959" height="319" rx="14" fill="#ffffff" stroke="#dce3f1"/><text x="42" y="26" font-size="14" font-weight="600" fill="#14203a">History · 319 points</text><circle cx="47" cy="40" r="5" fill="#22c55e"/><text x="57" y="44" font-size="12" fill="#5a688a">Available</text><circle cx="139.8" cy="40" r="5" fill="#f59e0b"/><text x="149.8" y="44" font-size="12" fill="#5a688a">Saturated</text><circle cx="232.60000000000002" cy="40" r="5" fill="#ef4444"/><text x="242.60000000000002" y="44" font-size="12" fill="#5a688a">Error</text><circle cx="296.6" cy="40" r="5" fill="#a855f7"/><text x="306.6" y="44" font-size="12" fill="#5a688a">Timeout</text><line x1="42" y1="286.0" x2="938" y2="286.0" stroke="#eef2f7" stroke-width="1"/><text x="35" y="289.0" text-anchor="end" font-size="11" fill="#5a688a">0</text><line x1="42" y1="227.5" x2="938" y2="227.5" stroke="#eef2f7" stroke-width="1"/><text x="35" y="230.5" text-anchor="end" font-size="11" fill="#5a688a">10</text><line x1="42" y1="169.0" x2="938" y2="169.0" stroke="#eef2f7" stroke-width="1"/><text x="35" y="172.0" text-anchor="end" font-size="11" fill="#5a688a">20</text><line x1="42" y1="110.5" x2="938" y2="110.5" stroke="#eef2f7" stroke-width="1"/><text x="35" y="113.5" text-anchor="end" font-size="11" fill="#5a688a">29</text><line x1="42" y1="52.0" x2="938" y2="52.0" stroke="#eef2f7" stroke-width="1"/><text x="35" y="55.0" text-anchor="end" font-size="11" fill="#5a688a">39</text><polyline fill="none" stroke="#22c55e" stroke-width="2.5" stroke-linejoin="round" stroke-linecap="round" points="42.0,70.0 44.8,70.0 47.6,88.0 50.5,88.0 53.3,76.0 56.1,76.0 58.9,76.0 61.7,70.0 64.5,76.0 67.4,70.0 70.2,64.0 73.0,58.0 75.8,58.0 78.6,58.0 81.4,58.0 84.3,58.0 87.1,58.0 89.9,58.0 92.7,58.0 95.5,58.0 98.4,58.0 101.2,58.0 104.0,58.0 106.8,58.0 109.6,58.0 112.4,58.0 115.3,58.0 118.1,58.0 120.9,58.0 123.7,58.0 126.5,58.0 129.3,70.0 132.2,76.0 135.0,94.0 137.8,64.0 140.6,64.0 143.4,58.0 146.3,58.0 149.1,58.0 151.9,70.0 154.7,76.0 157.5,76.0 160.3,82.0 163.2,82.0 166.0,82.0 168.8,82.0 171.6,76.0 174.4,64.0 177.2,70.0 180.1,70.0 182.9,82.0 185.7,76.0 188.5,76.0 191.3,82.0 194.2,76.0 197.0,76.0 199.8,76.0 202.6,64.0 205.4,64.0 208.2,76.0 211.1,76.0 213.9,76.0 216.7,88.0 219.5,70.0 222.3,64.0 225.1,58.0 228.0,58.0 230.8,70.0 233.6,70.0 236.4,70.0 239.2,76.0 242.1,70.0 244.9,70.0 247.7,70.0 250.5,70.0 253.3,76.0 256.1,82.0 259.0,76.0 261.8,70.0 264.6,70.0 267.4,70.0 270.2,70.0 273.0,76.0 275.9,70.0 278.7,70.0 281.5,70.0 284.3,70.0 287.1,70.0 289.9,70.0 292.8,70.0 295.6,70.0 298.4,70.0 301.2,70.0 304.0,70.0 306.9,70.0 309.7,70.0 312.5,70.0 315.3,70.0 318.1,70.0 320.9,70.0 323.8,70.0 326.6,70.0 329.4,70.0 332.2,70.0 335.0,70.0 337.8,70.0 340.7,70.0 343.5,70.0 346.3,70.0 349.1,70.0 351.9,70.0 354.8,70.0 357.6,70.0 360.4,70.0 363.2,70.0 366.0,70.0 368.8,70.0 371.7,70.0 374.5,70.0 377.3,70.0 380.1,70.0 382.9,70.0 385.7,70.0 388.6,70.0 391.4,70.0 394.2,70.0 397.0,70.0 399.8,70.0 402.7,70.0 405.5,70.0 408.3,70.0 411.1,70.0 413.9,70.0 416.7,70.0 419.6,70.0 422.4,70.0 425.2,70.0 428.0,70.0 430.8,70.0 433.6,70.0 436.5,70.0 439.3,70.0 442.1,70.0 444.9,70.0 447.7,70.0 450.6,70.0 453.4,70.0 456.2,70.0 459.0,70.0 461.8,70.0 464.6,70.0 467.5,76.0 470.3,70.0 473.1,70.0 475.9,70.0 478.7,70.0 481.5,70.0 484.4,76.0 487.2,76.0 490.0,88.0 492.8,88.0 495.6,88.0 498.5,94.0 501.3,94.0 504.1,94.0 506.9,94.0 509.7,88.0 512.5,88.0 515.4,82.0 518.2,82.0 521.0,82.0 523.8,88.0 526.6,88.0 529.4,94.0 532.3,82.0 535.1,82.0 537.9,82.0 540.7,82.0 543.5,88.0 546.4,88.0 549.2,94.0 552.0,94.0 554.8,88.0 557.6,88.0 560.4,88.0 563.3,94.0 566.1,94.0 568.9,106.0 571.7,94.0 574.5,94.0 577.3,94.0 580.2,94.0 583.0,88.0 585.8,88.0 588.6,82.0 591.4,76.0 594.3,76.0 597.1,76.0 599.9,76.0 602.7,76.0 605.5,76.0 608.3,70.0 611.2,70.0 614.0,70.0 616.8,76.0 619.6,88.0 622.4,82.0 625.2,70.0 628.1,70.0 630.9,70.0 633.7,76.0 636.5,76.0 639.3,76.0 642.2,82.0 645.0,70.0 647.8,76.0 650.6,64.0 653.4,70.0 656.2,58.0 659.1,58.0 661.9,58.0 664.7,58.0 667.5,58.0 670.3,64.0 673.1,58.0 676.0,64.0 678.8,58.0 681.6,58.0 684.4,58.0 687.2,58.0 690.1,64.0 692.9,64.0 695.7,64.0 698.5,76.0 701.3,70.0 704.1,82.0 707.0,70.0 709.8,76.0 712.6,58.0 715.4,64.0 718.2,58.0 721.0,64.0 723.9,58.0 726.7,58.0 729.5,58.0 732.3,64.0 735.1,70.0 737.9,64.0 740.8,64.0 743.6,64.0 746.4,70.0 749.2,70.0 752.0,64.0 754.9,70.0 757.7,70.0 760.5,70.0 763.3,58.0 766.1,58.0 768.9,58.0 771.8,58.0 774.6,58.0 777.4,64.0 780.2,58.0 783.0,58.0 785.8,58.0 788.7,58.0 791.5,58.0 794.3,58.0 797.1,58.0 799.9,58.0 802.8,64.0 805.6,58.0 808.4,58.0 811.2,58.0 814.0,58.0 816.8,58.0 819.7,58.0 822.5,58.0 825.3,64.0 828.1,58.0 830.9,58.0 833.7,58.0 836.6,58.0 839.4,58.0 842.2,58.0 845.0,58.0 847.8,58.0 850.7,58.0 853.5,58.0 856.3,58.0 859.1,58.0 861.9,58.0 864.7,58.0 867.6,58.0 870.4,58.0 873.2,58.0 876.0,58.0 878.8,58.0 881.6,64.0 884.5,64.0 887.3,58.0 890.1,58.0 892.9,58.0 895.7,64.0 898.6,64.0 901.4,76.0 904.2,64.0 907.0,64.0 909.8,70.0 912.6,58.0 915.5,58.0 918.3,58.0 921.1,58.0 923.9,58.0 926.7,58.0 929.5,70.0 932.4,64.0 935.2,64.0 938.0,64.0"/><polyline fill="none" stroke="#f59e0b" stroke-width="2.5" stroke-linejoin="round" stroke-linecap="round" points="42.0,274.0 44.8,274.0 47.6,274.0 50.5,280.0 53.3,268.0 56.1,268.0 58.9,268.0 61.7,274.0 64.5,274.0 67.4,274.0 70.2,280.0 73.0,286.0 75.8,286.0 78.6,286.0 81.4,286.0 84.3,286.0 87.1,286.0 89.9,286.0 92.7,286.0 95.5,286.0 98.4,286.0 101.2,286.0 104.0,286.0 106.8,286.0 109.6,286.0 112.4,286.0 115.3,286.0 118.1,286.0 120.9,286.0 123.7,286.0 126.5,286.0 129.3,274.0 132.2,280.0 135.0,280.0 137.8,280.0 140.6,280.0 143.4,286.0 146.3,286.0 149.1,286.0 151.9,274.0 154.7,268.0 157.5,268.0 160.3,262.0 163.2,262.0 166.0,262.0 168.8,262.0 171.6,268.0 174.4,280.0 177.2,280.0 180.1,274.0 182.9,262.0 185.7,268.0 188.5,268.0 191.3,262.0 194.2,268.0 197.0,268.0 199.8,268.0 202.6,280.0 205.4,280.0 208.2,268.0 211.1,268.0 213.9,268.0 216.7,262.0 219.5,274.0 222.3,280.0 225.1,286.0 228.0,286.0 230.8,274.0 233.6,274.0 236.4,274.0 239.2,274.0 242.1,274.0 244.9,274.0 247.7,274.0 250.5,274.0 253.3,280.0 256.1,274.0 259.0,280.0 261.8,286.0 264.6,286.0 267.4,286.0 270.2,286.0 273.0,280.0 275.9,286.0 278.7,286.0 281.5,286.0 284.3,286.0 287.1,286.0 289.9,286.0 292.8,286.0 295.6,286.0 298.4,286.0 301.2,286.0 304.0,286.0 306.9,286.0 309.7,286.0 312.5,286.0 315.3,286.0 318.1,286.0 320.9,286.0 323.8,286.0 326.6,286.0 329.4,286.0 332.2,286.0 335.0,286.0 337.8,286.0 340.7,286.0 343.5,286.0 346.3,286.0 349.1,286.0 351.9,286.0 354.8,286.0 357.6,286.0 360.4,286.0 363.2,286.0 366.0,286.0 368.8,286.0 371.7,286.0 374.5,286.0 377.3,286.0 380.1,286.0 382.9,286.0 385.7,286.0 388.6,286.0 391.4,286.0 394.2,286.0 397.0,286.0 399.8,286.0 402.7,286.0 405.5,286.0 408.3,286.0 411.1,286.0 413.9,286.0 416.7,286.0 419.6,286.0 422.4,286.0 425.2,286.0 428.0,286.0 430.8,286.0 433.6,286.0 436.5,286.0 439.3,286.0 442.1,286.0 444.9,286.0 447.7,286.0 450.6,286.0 453.4,286.0 456.2,286.0 459.0,286.0 461.8,286.0 464.6,286.0 467.5,286.0 470.3,286.0 473.1,286.0 475.9,286.0 478.7,286.0 481.5,286.0 484.4,286.0 487.2,280.0 490.0,268.0 492.8,268.0 495.6,268.0 498.5,268.0 501.3,262.0 504.1,262.0 506.9,262.0 509.7,268.0 512.5,268.0 515.4,274.0 518.2,274.0 521.0,274.0 523.8,268.0 526.6,268.0 529.4,268.0 532.3,274.0 535.1,274.0 537.9,274.0 540.7,274.0 543.5,268.0 546.4,268.0 549.2,262.0 552.0,262.0 554.8,268.0 557.6,268.0 560.4,268.0 563.3,262.0 566.1,262.0 568.9,274.0 571.7,262.0 574.5,262.0 577.3,262.0 580.2,262.0 583.0,268.0 585.8,268.0 588.6,274.0 591.4,280.0 594.3,280.0 597.1,280.0 599.9,280.0 602.7,280.0 605.5,280.0 608.3,286.0 611.2,286.0 614.0,286.0 616.8,280.0 619.6,274.0 622.4,274.0 625.2,280.0 628.1,274.0 630.9,274.0 633.7,268.0 636.5,268.0 639.3,268.0 642.2,268.0 645.0,280.0 647.8,274.0 650.6,280.0 653.4,280.0 656.2,286.0 659.1,286.0 661.9,286.0 664.7,286.0 667.5,286.0 670.3,286.0 673.1,286.0 676.0,286.0 678.8,286.0 681.6,286.0 684.4,286.0 687.2,286.0 690.1,280.0 692.9,280.0 695.7,280.0 698.5,268.0 701.3,280.0 704.1,268.0 707.0,274.0 709.8,274.0 712.6,286.0 715.4,280.0 718.2,286.0 721.0,280.0 723.9,286.0 726.7,286.0 729.5,286.0 732.3,280.0 735.1,274.0 737.9,280.0 740.8,280.0 743.6,280.0 746.4,274.0 749.2,274.0 752.0,280.0 754.9,280.0 757.7,280.0 760.5,280.0 763.3,286.0 766.1,286.0 768.9,286.0 771.8,286.0 774.6,286.0 777.4,286.0 780.2,286.0 783.0,286.0 785.8,286.0 788.7,286.0 791.5,286.0 794.3,286.0 797.1,286.0 799.9,286.0 802.8,286.0 805.6,286.0 808.4,286.0 811.2,286.0 814.0,286.0 816.8,286.0 819.7,286.0 822.5,286.0 825.3,286.0 828.1,286.0 830.9,286.0 833.7,286.0 836.6,286.0 839.4,286.0 842.2,286.0 845.0,286.0 847.8,286.0 850.7,286.0 853.5,286.0 856.3,286.0 859.1,286.0 861.9,286.0 864.7,286.0 867.6,286.0 870.4,286.0 873.2,286.0 876.0,286.0 878.8,286.0 881.6,286.0 884.5,286.0 887.3,286.0 890.1,286.0 892.9,286.0 895.7,280.0 898.6,280.0 901.4,280.0 904.2,280.0 907.0,280.0 909.8,274.0 912.6,286.0 915.5,286.0 918.3,286.0 921.1,286.0 923.9,286.0 926.7,286.0 929.5,286.0 932.4,280.0 935.2,280.0 938.0,280.0"/><polyline fill="none" stroke="#ef4444" stroke-width="2.5" stroke-linejoin="round" stroke-linecap="round" points="42.0,280.0 44.8,280.0 47.6,268.0 50.5,262.0 53.3,286.0 56.1,286.0 58.9,286.0 61.7,286.0 64.5,280.0 67.4,286.0 70.2,286.0 73.0,286.0 75.8,286.0 78.6,286.0 81.4,286.0 84.3,286.0 87.1,286.0 89.9,286.0 92.7,286.0 95.5,286.0 98.4,286.0 101.2,286.0 104.0,286.0 106.8,286.0 109.6,286.0 112.4,286.0 115.3,286.0 118.1,286.0 120.9,286.0 123.7,286.0 126.5,286.0 129.3,286.0 132.2,274.0 135.0,256.0 137.8,286.0 140.6,286.0 143.4,286.0 146.3,286.0 149.1,286.0 151.9,286.0 154.7,286.0 157.5,286.0 160.3,286.0 163.2,286.0 166.0,286.0 168.8,286.0 171.6,286.0 174.4,286.0 177.2,280.0 180.1,286.0 182.9,286.0 185.7,286.0 188.5,286.0 191.3,286.0 194.2,286.0 197.0,286.0 199.8,286.0 202.6,286.0 205.4,286.0 208.2,286.0 211.1,286.0 213.9,286.0 216.7,280.0 219.5,286.0 222.3,286.0 225.1,286.0 228.0,286.0 230.8,286.0 233.6,286.0 236.4,286.0 239.2,286.0 242.1,286.0 244.9,286.0 247.7,286.0 250.5,286.0 253.3,274.0 256.1,274.0 259.0,274.0 261.8,274.0 264.6,274.0 267.4,274.0 270.2,274.0 273.0,274.0 275.9,274.0 278.7,274.0 281.5,274.0 284.3,274.0 287.1,274.0 289.9,274.0 292.8,274.0 295.6,274.0 298.4,274.0 301.2,274.0 304.0,274.0 306.9,274.0 309.7,274.0 312.5,274.0 315.3,274.0 318.1,274.0 320.9,274.0 323.8,274.0 326.6,274.0 329.4,274.0 332.2,274.0 335.0,274.0 337.8,274.0 340.7,274.0 343.5,274.0 346.3,274.0 349.1,274.0 351.9,274.0 354.8,274.0 357.6,274.0 360.4,274.0 363.2,274.0 366.0,274.0 368.8,274.0 371.7,274.0 374.5,274.0 377.3,274.0 380.1,274.0 382.9,274.0 385.7,274.0 388.6,274.0 391.4,274.0 394.2,274.0 397.0,274.0 399.8,274.0 402.7,274.0 405.5,274.0 408.3,274.0 411.1,274.0 413.9,274.0 416.7,274.0 419.6,274.0 422.4,274.0 425.2,274.0 428.0,274.0 430.8,274.0 433.6,274.0 436.5,274.0 439.3,274.0 442.1,274.0 444.9,274.0 447.7,274.0 450.6,274.0 453.4,274.0 456.2,274.0 459.0,274.0 461.8,274.0 464.6,274.0 467.5,268.0 470.3,274.0 473.1,274.0 475.9,274.0 478.7,274.0 481.5,274.0 484.4,274.0 487.2,274.0 490.0,274.0 492.8,274.0 495.6,274.0 498.5,268.0 501.3,274.0 504.1,274.0 506.9,274.0 509.7,274.0 512.5,274.0 515.4,274.0 518.2,274.0 521.0,274.0 523.8,274.0 526.6,274.0 529.4,268.0 532.3,274.0 535.1,274.0 537.9,274.0 540.7,274.0 543.5,274.0 546.4,274.0 549.2,274.0 552.0,274.0 554.8,274.0 557.6,274.0 560.4,274.0 563.3,274.0 566.1,274.0 568.9,250.0 571.7,274.0 574.5,274.0 577.3,274.0 580.2,274.0 583.0,274.0 585.8,274.0 588.6,274.0 591.4,274.0 594.3,274.0 597.1,274.0 599.9,274.0 602.7,274.0 605.5,274.0 608.3,274.0 611.2,274.0 614.0,274.0 616.8,274.0 619.6,268.0 622.4,274.0 625.2,280.0 628.1,286.0 630.9,286.0 633.7,286.0 636.5,286.0 639.3,286.0 642.2,280.0 645.0,280.0 647.8,286.0 650.6,286.0 653.4,280.0 656.2,286.0 659.1,286.0 661.9,286.0 664.7,286.0 667.5,286.0 670.3,280.0 673.1,286.0 676.0,286.0 678.8,286.0 681.6,286.0 684.4,286.0 687.2,286.0 690.1,286.0 692.9,286.0 695.7,286.0 698.5,286.0 701.3,280.0 704.1,280.0 707.0,286.0 709.8,280.0 712.6,286.0 715.4,286.0 718.2,286.0 721.0,286.0 723.9,286.0 726.7,286.0 729.5,286.0 732.3,286.0 735.1,286.0 737.9,286.0 740.8,286.0 743.6,286.0 746.4,286.0 749.2,286.0 752.0,286.0 754.9,280.0 757.7,286.0 760.5,280.0 763.3,286.0 766.1,286.0 768.9,286.0 771.8,286.0 774.6,286.0 777.4,286.0 780.2,286.0 783.0,286.0 785.8,286.0 788.7,286.0 791.5,286.0 794.3,286.0 797.1,286.0 799.9,286.0 802.8,280.0 805.6,286.0 808.4,286.0 811.2,286.0 814.0,286.0 816.8,286.0 819.7,286.0 822.5,286.0 825.3,286.0 828.1,286.0 830.9,286.0 833.7,286.0 836.6,286.0 839.4,286.0 842.2,286.0 845.0,286.0 847.8,286.0 850.7,286.0 853.5,286.0 856.3,286.0 859.1,286.0 861.9,286.0 864.7,286.0 867.6,286.0 870.4,286.0 873.2,286.0 876.0,286.0 878.8,286.0 881.6,280.0 884.5,280.0 887.3,286.0 890.1,286.0 892.9,286.0 895.7,286.0 898.6,286.0 901.4,274.0 904.2,286.0 907.0,286.0 909.8,286.0 912.6,286.0 915.5,286.0 918.3,286.0 921.1,286.0 923.9,286.0 926.7,286.0 929.5,286.0 932.4,286.0 935.2,286.0 938.0,286.0"/><polyline fill="none" stroke="#a855f7" stroke-width="2.5" stroke-linejoin="round" stroke-linecap="round" points="42.0,286.0 44.8,286.0 47.6,286.0 50.5,286.0 53.3,286.0 56.1,286.0 58.9,286.0 61.7,286.0 64.5,286.0 67.4,286.0 70.2,286.0 73.0,286.0 75.8,286.0 78.6,286.0 81.4,286.0 84.3,286.0 87.1,286.0 89.9,286.0 92.7,286.0 95.5,286.0 98.4,286.0 101.2,286.0 104.0,286.0 106.8,286.0 109.6,286.0 112.4,286.0 115.3,286.0 118.1,286.0 120.9,286.0 123.7,286.0 126.5,286.0 129.3,286.0 132.2,286.0 135.0,286.0 137.8,286.0 140.6,286.0 143.4,286.0 146.3,286.0 149.1,286.0 151.9,286.0 154.7,286.0 157.5,286.0 160.3,286.0 163.2,286.0 166.0,286.0 168.8,286.0 171.6,286.0 174.4,286.0 177.2,286.0 180.1,286.0 182.9,286.0 185.7,286.0 188.5,286.0 191.3,286.0 194.2,286.0 197.0,286.0 199.8,286.0 202.6,286.0 205.4,286.0 208.2,286.0 211.1,286.0 213.9,286.0 216.7,286.0 219.5,286.0 222.3,286.0 225.1,286.0 228.0,286.0 230.8,286.0 233.6,286.0 236.4,286.0 239.2,280.0 242.1,286.0 244.9,286.0 247.7,286.0 250.5,286.0 253.3,286.0 256.1,286.0 259.0,286.0 261.8,286.0 264.6,286.0 267.4,286.0 270.2,286.0 273.0,286.0 275.9,286.0 278.7,286.0 281.5,286.0 284.3,286.0 287.1,286.0 289.9,286.0 292.8,286.0 295.6,286.0 298.4,286.0 301.2,286.0 304.0,286.0 306.9,286.0 309.7,286.0 312.5,286.0 315.3,286.0 318.1,286.0 320.9,286.0 323.8,286.0 326.6,286.0 329.4,286.0 332.2,286.0 335.0,286.0 337.8,286.0 340.7,286.0 343.5,286.0 346.3,286.0 349.1,286.0 351.9,286.0 354.8,286.0 357.6,286.0 360.4,286.0 363.2,286.0 366.0,286.0 368.8,286.0 371.7,286.0 374.5,286.0 377.3,286.0 380.1,286.0 382.9,286.0 385.7,286.0 388.6,286.0 391.4,286.0 394.2,286.0 397.0,286.0 399.8,286.0 402.7,286.0 405.5,286.0 408.3,286.0 411.1,286.0 413.9,286.0 416.7,286.0 419.6,286.0 422.4,286.0 425.2,286.0 428.0,286.0 430.8,286.0 433.6,286.0 436.5,286.0 439.3,286.0 442.1,286.0 444.9,286.0 447.7,286.0 450.6,286.0 453.4,286.0 456.2,286.0 459.0,286.0 461.8,286.0 464.6,286.0 467.5,286.0 470.3,286.0 473.1,286.0 475.9,286.0 478.7,286.0 481.5,286.0 484.4,280.0 487.2,286.0 490.0,286.0 492.8,286.0 495.6,286.0 498.5,286.0 501.3,286.0 504.1,286.0 506.9,286.0 509.7,286.0 512.5,286.0 515.4,286.0 518.2,286.0 521.0,286.0 523.8,286.0 526.6,286.0 529.4,286.0 532.3,286.0 535.1,286.0 537.9,286.0 540.7,286.0 543.5,286.0 546.4,286.0 549.2,286.0 552.0,286.0 554.8,286.0 557.6,286.0 560.4,286.0 563.3,286.0 566.1,286.0 568.9,286.0 571.7,286.0 574.5,286.0 577.3,286.0 580.2,286.0 583.0,286.0 585.8,286.0 588.6,286.0 591.4,286.0 594.3,286.0 597.1,286.0 599.9,286.0 602.7,286.0 605.5,286.0 608.3,286.0 611.2,286.0 614.0,286.0 616.8,286.0 619.6,286.0 622.4,286.0 625.2,286.0 628.1,286.0 630.9,286.0 633.7,286.0 636.5,286.0 639.3,286.0 642.2,286.0 645.0,286.0 647.8,280.0 650.6,286.0 653.4,286.0 656.2,286.0 659.1,286.0 661.9,286.0 664.7,286.0 667.5,286.0 670.3,286.0 673.1,286.0 676.0,280.0 678.8,286.0 681.6,286.0 684.4,286.0 687.2,286.0 690.1,286.0 692.9,286.0 695.7,286.0 698.5,286.0 701.3,286.0 704.1,286.0 707.0,286.0 709.8,286.0 712.6,286.0 715.4,286.0 718.2,286.0 721.0,286.0 723.9,286.0 726.7,286.0 729.5,286.0 732.3,286.0 735.1,286.0 737.9,286.0 740.8,286.0 743.6,286.0 746.4,286.0 749.2,286.0 752.0,286.0 754.9,286.0 757.7,280.0 760.5,286.0 763.3,286.0 766.1,286.0 768.9,286.0 771.8,286.0 774.6,286.0 777.4,280.0 780.2,286.0 783.0,286.0 785.8,286.0 788.7,286.0 791.5,286.0 794.3,286.0 797.1,286.0 799.9,286.0 802.8,286.0 805.6,286.0 808.4,286.0 811.2,286.0 814.0,286.0 816.8,286.0 819.7,286.0 822.5,286.0 825.3,280.0 828.1,286.0 830.9,286.0 833.7,286.0 836.6,286.0 839.4,286.0 842.2,286.0 845.0,286.0 847.8,286.0 850.7,286.0 853.5,286.0 856.3,286.0 859.1,286.0 861.9,286.0 864.7,286.0 867.6,286.0 870.4,286.0 873.2,286.0 876.0,286.0 878.8,286.0 881.6,286.0 884.5,286.0 887.3,286.0 890.1,286.0 892.9,286.0 895.7,286.0 898.6,286.0 901.4,286.0 904.2,286.0 907.0,286.0 909.8,286.0 912.6,286.0 915.5,286.0 918.3,286.0 921.1,286.0 923.9,286.0 926.7,286.0 929.5,274.0 932.4,286.0 935.2,286.0 938.0,286.0"/><text x="42" y="308" font-size="11" fill="#5a688a">19/06 12:43</text><text x="938" y="308" text-anchor="end" font-size="11" fill="#5a688a">07/07 04:33</text></svg>