<svg xmlns="http://www.w3.org/2000/svg" viewBox="0 0 960 320" width="960" height="320" font-family="Segoe UI, system-ui, -apple-system, Roboto, Helvetica, Arial, sans-serif" role="img" aria-label="Availability history per region"><rect x="0.5" y="0.5" width="959" height="319" rx="14" fill="#0d1117" stroke="#2c3a5e"/><text x="42" y="26" font-size="14" font-weight="600" fill="#e6ecff">History · 107 points</text><circle cx="47" cy="40" r="5" fill="#22c55e"/><text x="57" y="44" font-size="12" fill="#9fb0d4">Available</text><circle cx="139.8" cy="40" r="5" fill="#f59e0b"/><text x="149.8" y="44" font-size="12" fill="#9fb0d4">Saturated</text><circle cx="232.60000000000002" cy="40" r="5" fill="#ef4444"/><text x="242.60000000000002" y="44" font-size="12" fill="#9fb0d4">Error</text><circle cx="296.6" cy="40" r="5" fill="#a855f7"/><text x="306.6" y="44" font-size="12" fill="#9fb0d4">Timeout</text><line x1="42" y1="286.0" x2="938" y2="286.0" stroke="#21304f" stroke-width="1"/><text x="35" y="289.0" text-anchor="end" font-size="11" fill="#9fb0d4">0</text><line x1="42" y1="227.5" x2="938" y2="227.5" stroke="#21304f" stroke-width="1"/><text x="35" y="230.5" text-anchor="end" font-size="11" fill="#9fb0d4">10</text><line x1="42" y1="169.0" x2="938" y2="169.0" stroke="#21304f" stroke-width="1"/><text x="35" y="172.0" text-anchor="end" font-size="11" fill="#9fb0d4">20</text><line x1="42" y1="110.5" x2="938" y2="110.5" stroke="#21304f" stroke-width="1"/><text x="35" y="113.5" text-anchor="end" font-size="11" fill="#9fb0d4">29</text><line x1="42" y1="52.0" x2="938" y2="52.0" stroke="#21304f" stroke-width="1"/><text x="35" y="55.0" text-anchor="end" font-size="11" fill="#9fb0d4">39</text><polyline fill="none" stroke="#22c55e" stroke-width="2.5" stroke-linejoin="round" stroke-linecap="round" points="42.0,70.0 50.5,70.0 58.9,88.0 67.4,88.0 75.8,76.0 84.3,76.0 92.7,76.0 101.2,70.0 109.6,76.0 118.1,70.0 126.5,64.0 135.0,58.0 143.4,58.0 151.9,58.0 160.3,58.0 168.8,58.0 177.2,58.0 185.7,58.0 194.2,58.0 202.6,58.0 211.1,58.0 219.5,58.0 228.0,58.0 236.4,58.0 244.9,58.0 253.3,58.0 261.8,58.0 270.2,58.0 278.7,58.0 287.1,58.0 295.6,58.0 304.0,70.0 312.5,76.0 320.9,94.0 329.4,64.0 337.8,64.0 346.3,58.0 354.8,58.0 363.2,58.0 371.7,70.0 380.1,76.0 388.6,76.0 397.0,82.0 405.5,82.0 413.9,82.0 422.4,82.0 430.8,76.0 439.3,64.0 447.7,70.0 456.2,70.0 464.6,82.0 473.1,76.0 481.5,76.0 490.0,82.0 498.5,76.0 506.9,76.0 515.4,76.0 523.8,64.0 532.3,64.0 540.7,76.0 549.2,76.0 557.6,76.0 566.1,88.0 574.5,70.0 583.0,64.0 591.4,58.0 599.9,58.0 608.3,70.0 616.8,70.0 625.2,70.0 633.7,76.0 642.2,70.0 650.6,70.0 659.1,70.0 667.5,70.0 676.0,76.0 684.4,82.0 692.9,76.0 701.3,70.0 709.8,70.0 718.2,70.0 726.7,70.0 735.1,76.0 743.6,70.0 752.0,70.0 760.5,70.0 768.9,70.0 777.4,70.0 785.8,70.0 794.3,70.0 802.8,70.0 811.2,70.0 819.7,70.0 828.1,70.0 836.6,70.0 845.0,70.0 853.5,70.0 861.9,70.0 870.4,70.0 878.8,70.0 887.3,70.0 895.7,70.0 904.2,70.0 912.6,70.0 921.1,70.0 929.5,70.0 938.0,70.0"/><polyline fill="none" stroke="#f59e0b" stroke-width="2.5" stroke-linejoin="round" stroke-linecap="round" points="42.0,274.0 50.5,274.0 58.9,274.0 67.4,280.0 75.8,268.0 84.3,268.0 92.7,268.0 101.2,274.0 109.6,274.0 118.1,274.0 126.5,280.0 135.0,286.0 143.4,286.0 151.9,286.0 160.3,286.0 168.8,286.0 177.2,286.0 185.7,286.0 194.2,286.0 202.6,286.0 211.1,286.0 219.5,286.0 228.0,286.0 236.4,286.0 244.9,286.0 253.3,286.0 261.8,286.0 270.2,286.0 278.7,286.0 287.1,286.0 295.6,286.0 304.0,274.0 312.5,280.0 320.9,280.0 329.4,280.0 337.8,280.0 346.3,286.0 354.8,286.0 363.2,286.0 371.7,274.0 380.1,268.0 388.6,268.0 397.0,262.0 405.5,262.0 413.9,262.0 422.4,262.0 430.8,268.0 439.3,280.0 447.7,280.0 456.2,274.0 464.6,262.0 473.1,268.0 481.5,268.0 490.0,262.0 498.5,268.0 506.9,268.0 515.4,268.0 523.8,280.0 532.3,280.0 540.7,268.0 549.2,268.0 557.6,268.0 566.1,262.0 574.5,274.0 583.0,280.0 591.4,286.0 599.9,286.0 608.3,274.0 616.8,274.0 625.2,274.0 633.7,274.0 642.2,274.0 650.6,274.0 659.1,274.0 667.5,274.0 676.0,280.0 684.4,274.0 692.9,280.0 701.3,286.0 709.8,286.0 718.2,286.0 726.7,286.0 735.1,280.0 743.6,286.0 752.0,286.0 760.5,286.0 768.9,286.0 777.4,286.0 785.8,286.0 794.3,286.0 802.8,286.0 811.2,286.0 819.7,286.0 828.1,286.0 836.6,286.0 845.0,286.0 853.5,286.0 861.9,286.0 870.4,286.0 878.8,286.0 887.3,286.0 895.7,286.0 904.2,286.0 912.6,286.0 921.1,286.0 929.5,286.0 938.0,286.0"/><polyline fill="none" stroke="#ef4444" stroke-width="2.5" stroke-linejoin="round" stroke-linecap="round" points="42.0,280.0 50.5,280.0 58.9,268.0 67.4,262.0 75.8,286.0 84.3,286.0 92.7,286.0 101.2,286.0 109.6,280.0 118.1,286.0 126.5,286.0 135.0,286.0 143.4,286.0 151.9,286.0 160.3,286.0 168.8,286.0 177.2,286.0 185.7,286.0 194.2,286.0 202.6,286.0 211.1,286.0 219.5,286.0 228.0,286.0 236.4,286.0 244.9,286.0 253.3,286.0 261.8,286.0 270.2,286.0 278.7,286.0 287.1,286.0 295.6,286.0 304.0,286.0 312.5,274.0 320.9,256.0 329.4,286.0 337.8,286.0 346.3,286.0 354.8,286.0 363.2,286.0 371.7,286.0 380.1,286.0 388.6,286.0 397.0,286.0 405.5,286.0 413.9,286.0 422.4,286.0 430.8,286.0 439.3,286.0 447.7,280.0 456.2,286.0 464.6,286.0 473.1,286.0 481.5,286.0 490.0,286.0 498.5,286.0 506.9,286.0 515.4,286.0 523.8,286.0 532.3,286.0 540.7,286.0 549.2,286.0 557.6,286.0 566.1,280.0 574.5,286.0 583.0,286.0 591.4,286.0 599.9,286.0 608.3,286.0 616.8,286.0 625.2,286.0 633.7,286.0 642.2,286.0 650.6,286.0 659.1,286.0 667.5,286.0 676.0,274.0 684.4,274.0 692.9,274.0 701.3,274.0 709.8,274.0 718.2,274.0 726.7,274.0 735.1,274.0 743.6,274.0 752.0,274.0 760.5,274.0 768.9,274.0 777.4,274.0 785.8,274.0 794.3,274.0 802.8,274.0 811.2,274.0 819.7,274.0 828.1,274.0 836.6,274.0 845.0,274.0 853.5,274.0 861.9,274.0 870.4,274.0 878.8,274.0 887.3,274.0 895.7,274.0 904.2,274.0 912.6,274.0 921.1,274.0 929.5,274.0 938.0,274.0"/><polyline fill="none" stroke="#a855f7" stroke-width="2.5" stroke-linejoin="round" stroke-linecap="round" points="42.0,286.0 50.5,286.0 58.9,286.0 67.4,286.0 75.8,286.0 84.3,286.0 92.7,286.0 101.2,286.0 109.6,286.0 118.1,286.0 126.5,286.0 135.0,286.0 143.4,286.0 151.9,286.0 160.3,286.0 168.8,286.0 177.2,286.0 185.7,286.0 194.2,286.0 202.6,286.0 211.1,286.0 219.5,286.0 228.0,286.0 236.4,286.0 244.9,286.0 253.3,286.0 261.8,286.0 270.2,286.0 278.7,286.0 287.1,286.0 295.6,286.0 304.0,286.0 312.5,286.0 320.9,286.0 329.4,286.0 337.8,286.0 346.3,286.0 354.8,286.0 363.2,286.0 371.7,286.0 380.1,286.0 388.6,286.0 397.0,286.0 405.5,286.0 413.9,286.0 422.4,286.0 430.8,286.0 439.3,286.0 447.7,286.0 456.2,286.0 464.6,286.0 473.1,286.0 481.5,286.0 490.0,286.0 498.5,286.0 506.9,286.0 515.4,286.0 523.8,286.0 532.3,286.0 540.7,286.0 549.2,286.0 557.6,286.0 566.1,286.0 574.5,286.0 583.0,286.0 591.4,286.0 599.9,286.0 608.3,286.0 616.8,286.0 625.2,286.0 633.7,280.0 642.2,286.0 650.6,286.0 659.1,286.0 667.5,286.0 676.0,286.0 684.4,286.0 692.9,286.0 701.3,286.0 709.8,286.0 718.2,286.0 726.7,286.0 735.1,286.0 743.6,286.0 752.0,286.0 760.5,286.0 768.9,286.0 777.4,286.0 785.8,286.0 794.3,286.0 802.8,286.0 811.2,286.0 819.7,286.0 828.1,286.0 836.6,286.0 845.0,286.0 853.5,286.0 861.9,286.0 870.4,286.0 878.8,286.0 887.3,286.0 895.7,286.0 904.2,286.0 912.6,286.0 921.1,286.0 929.5,286.0 938.0,286.0"/><text x="42" y="308" font-size="11" fill="#9fb0d4">19/06 12:43</text><text x="938" y="308" text-anchor="end" font-size="11" fill="#9fb0d4">27/06 18:31</text></svg>