<svg xmlns="http://www.w3.org/2000/svg" viewBox="0 0 960 320" width="960" height="320" font-family="Segoe UI, system-ui, -apple-system, Roboto, Helvetica, Arial, sans-serif" role="img" aria-label="Availability history per region"><rect x="0.5" y="0.5" width="959" height="319" rx="14" fill="#0d1117" stroke="#2c3a5e"/><text x="42" y="26" font-size="14" font-weight="600" fill="#e6ecff">History · 336 points</text><circle cx="47" cy="40" r="5" fill="#22c55e"/><text x="57" y="44" font-size="12" fill="#9fb0d4">Available</text><circle cx="139.8" cy="40" r="5" fill="#f59e0b"/><text x="149.8" y="44" font-size="12" fill="#9fb0d4">Saturated</text><circle cx="232.60000000000002" cy="40" r="5" fill="#ef4444"/><text x="242.60000000000002" y="44" font-size="12" fill="#9fb0d4">Error</text><circle cx="296.6" cy="40" r="5" fill="#a855f7"/><text x="306.6" y="44" font-size="12" fill="#9fb0d4">Timeout</text><line x1="42" y1="286.0" x2="938" y2="286.0" stroke="#21304f" stroke-width="1"/><text x="35" y="289.0" text-anchor="end" font-size="11" fill="#9fb0d4">0</text><line x1="42" y1="227.5" x2="938" y2="227.5" stroke="#21304f" stroke-width="1"/><text x="35" y="230.5" text-anchor="end" font-size="11" fill="#9fb0d4">10</text><line x1="42" y1="169.0" x2="938" y2="169.0" stroke="#21304f" stroke-width="1"/><text x="35" y="172.0" text-anchor="end" font-size="11" fill="#9fb0d4">19</text><line x1="42" y1="110.5" x2="938" y2="110.5" stroke="#21304f" stroke-width="1"/><text x="35" y="113.5" text-anchor="end" font-size="11" fill="#9fb0d4">28</text><line x1="42" y1="52.0" x2="938" y2="52.0" stroke="#21304f" stroke-width="1"/><text x="35" y="55.0" text-anchor="end" font-size="11" fill="#9fb0d4">38</text><polyline fill="none" stroke="#22c55e" stroke-width="2.5" stroke-linejoin="round" stroke-linecap="round" points="42.0,70.5 44.7,70.5 47.3,76.6 50.0,76.6 52.7,76.6 55.4,76.6 58.0,70.5 60.7,58.2 63.4,64.3 66.1,64.3 68.7,76.6 71.4,70.5 74.1,70.5 76.8,76.6 79.4,70.5 82.1,70.5 84.8,70.5 87.5,58.2 90.1,58.2 92.8,70.5 95.5,70.5 98.2,70.5 100.8,82.8 103.5,64.3 106.2,58.2 108.9,52.0 111.5,52.0 114.2,64.3 116.9,64.3 119.6,64.3 122.2,70.5 124.9,64.3 127.6,64.3 130.3,64.3 132.9,64.3 135.6,70.5 138.3,76.6 141.0,70.5 143.6,64.3 146.3,64.3 149.0,64.3 151.7,64.3 154.3,70.5 157.0,64.3 159.7,64.3 162.4,64.3 165.0,64.3 167.7,64.3 170.4,64.3 173.1,64.3 175.7,64.3 178.4,64.3 181.1,64.3 183.8,64.3 186.4,64.3 189.1,64.3 191.8,64.3 194.5,64.3 197.1,64.3 199.8,64.3 202.5,64.3 205.2,64.3 207.8,64.3 210.5,64.3 213.2,64.3 215.9,64.3 218.5,64.3 221.2,64.3 223.9,64.3 226.5,64.3 229.2,64.3 231.9,64.3 234.6,64.3 237.2,64.3 239.9,64.3 242.6,64.3 245.3,64.3 247.9,64.3 250.6,64.3 253.3,64.3 256.0,64.3 258.6,64.3 261.3,64.3 264.0,64.3 266.7,64.3 269.3,64.3 272.0,64.3 274.7,64.3 277.4,64.3 280.0,64.3 282.7,64.3 285.4,64.3 288.1,64.3 290.7,64.3 293.4,64.3 296.1,64.3 298.8,64.3 301.4,64.3 304.1,64.3 306.8,64.3 309.5,64.3 312.1,64.3 314.8,64.3 317.5,64.3 320.2,64.3 322.8,64.3 325.5,64.3 328.2,64.3 330.9,64.3 333.5,64.3 336.2,64.3 338.9,70.5 341.6,64.3 344.2,64.3 346.9,64.3 349.6,64.3 352.3,64.3 354.9,70.5 357.6,70.5 360.3,82.8 363.0,82.8 365.6,82.8 368.3,88.9 371.0,88.9 373.7,88.9 376.3,88.9 379.0,82.8 381.7,82.8 384.4,76.6 387.0,76.6 389.7,76.6 392.4,82.8 395.1,82.8 397.7,88.9 400.4,76.6 403.1,76.6 405.7,76.6 408.4,76.6 411.1,82.8 413.8,82.8 416.4,88.9 419.1,88.9 421.8,82.8 424.5,82.8 427.1,82.8 429.8,88.9 432.5,88.9 435.2,101.3 437.8,88.9 440.5,88.9 443.2,88.9 445.9,88.9 448.5,82.8 451.2,82.8 453.9,76.6 456.6,70.5 459.2,70.5 461.9,70.5 464.6,70.5 467.3,70.5 469.9,70.5 472.6,64.3 475.3,64.3 478.0,64.3 480.6,70.5 483.3,82.8 486.0,76.6 488.7,64.3 491.3,64.3 494.0,64.3 496.7,70.5 499.4,70.5 502.0,70.5 504.7,76.6 507.4,64.3 510.1,70.5 512.7,58.2 515.4,64.3 518.1,52.0 520.8,52.0 523.4,52.0 526.1,52.0 528.8,52.0 531.5,58.2 534.1,52.0 536.8,58.2 539.5,52.0 542.2,52.0 544.8,52.0 547.5,52.0 550.2,58.2 552.9,58.2 555.5,58.2 558.2,70.5 560.9,64.3 563.6,76.6 566.2,64.3 568.9,70.5 571.6,52.0 574.3,58.2 576.9,52.0 579.6,58.2 582.3,52.0 584.9,52.0 587.6,52.0 590.3,58.2 593.0,64.3 595.6,58.2 598.3,58.2 601.0,58.2 603.7,64.3 606.3,64.3 609.0,58.2 611.7,64.3 614.4,64.3 617.0,64.3 619.7,52.0 622.4,52.0 625.1,52.0 627.7,52.0 630.4,52.0 633.1,58.2 635.8,52.0 638.4,52.0 641.1,52.0 643.8,52.0 646.5,52.0 649.1,52.0 651.8,52.0 654.5,52.0 657.2,58.2 659.8,52.0 662.5,52.0 665.2,52.0 667.9,52.0 670.5,52.0 673.2,52.0 675.9,52.0 678.6,58.2 681.2,52.0 683.9,52.0 686.6,52.0 689.3,52.0 691.9,52.0 694.6,52.0 697.3,52.0 700.0,52.0 702.6,52.0 705.3,52.0 708.0,52.0 710.7,52.0 713.3,52.0 716.0,52.0 718.7,52.0 721.4,52.0 724.0,52.0 726.7,52.0 729.4,52.0 732.1,58.2 734.7,58.2 737.4,52.0 740.1,52.0 742.8,52.0 745.4,58.2 748.1,58.2 750.8,70.5 753.5,58.2 756.1,58.2 758.8,64.3 761.5,52.0 764.1,52.0 766.8,52.0 769.5,52.0 772.2,52.0 774.8,52.0 777.5,64.3 780.2,58.2 782.9,58.2 785.5,58.2 788.2,58.2 790.9,64.3 793.6,64.3 796.2,70.5 798.9,70.5 801.6,76.6 804.3,82.8 806.9,76.6 809.6,76.6 812.3,82.8 815.0,76.6 817.6,70.5 820.3,70.5 823.0,64.3 825.7,58.2 828.3,58.2 831.0,70.5 833.7,70.5 836.4,64.3 839.0,70.5 841.7,64.3 844.4,64.3 847.1,64.3 849.7,76.6 852.4,64.3 855.1,70.5 857.8,64.3 860.4,70.5 863.1,64.3 865.8,70.5 868.5,64.3 871.1,64.3 873.8,76.6 876.5,70.5 879.2,70.5 881.8,70.5 884.5,70.5 887.2,70.5 889.9,64.3 892.5,70.5 895.2,64.3 897.9,64.3 900.6,64.3 903.2,70.5 905.9,70.5 908.6,70.5 911.3,64.3 913.9,64.3 916.6,64.3 919.3,64.3 922.0,70.5 924.6,70.5 927.3,70.5 930.0,76.6 932.7,70.5 935.3,76.6 938.0,76.6"/><polyline fill="none" stroke="#f59e0b" stroke-width="2.5" stroke-linejoin="round" stroke-linecap="round" points="42.0,267.5 44.7,267.5 47.3,261.4 50.0,261.4 52.7,261.4 55.4,261.4 58.0,267.5 60.7,279.8 63.4,279.8 66.1,273.7 68.7,261.4 71.4,267.5 74.1,267.5 76.8,261.4 79.4,267.5 82.1,267.5 84.8,267.5 87.5,279.8 90.1,279.8 92.8,267.5 95.5,267.5 98.2,267.5 100.8,261.4 103.5,273.7 106.2,279.8 108.9,286.0 111.5,286.0 114.2,273.7 116.9,273.7 119.6,273.7 122.2,273.7 124.9,273.7 127.6,273.7 130.3,273.7 132.9,273.7 135.6,279.8 138.3,273.7 141.0,279.8 143.6,286.0 146.3,286.0 149.0,286.0 151.7,286.0 154.3,279.8 157.0,286.0 159.7,286.0 162.4,286.0 165.0,286.0 167.7,286.0 170.4,286.0 173.1,286.0 175.7,286.0 178.4,286.0 181.1,286.0 183.8,286.0 186.4,286.0 189.1,286.0 191.8,286.0 194.5,286.0 197.1,286.0 199.8,286.0 202.5,286.0 205.2,286.0 207.8,286.0 210.5,286.0 213.2,286.0 215.9,286.0 218.5,286.0 221.2,286.0 223.9,286.0 226.5,286.0 229.2,286.0 231.9,286.0 234.6,286.0 237.2,286.0 239.9,286.0 242.6,286.0 245.3,286.0 247.9,286.0 250.6,286.0 253.3,286.0 256.0,286.0 258.6,286.0 261.3,286.0 264.0,286.0 266.7,286.0 269.3,286.0 272.0,286.0 274.7,286.0 277.4,286.0 280.0,286.0 282.7,286.0 285.4,286.0 288.1,286.0 290.7,286.0 293.4,286.0 296.1,286.0 298.8,286.0 301.4,286.0 304.1,286.0 306.8,286.0 309.5,286.0 312.1,286.0 314.8,286.0 317.5,286.0 320.2,286.0 322.8,286.0 325.5,286.0 328.2,286.0 330.9,286.0 333.5,286.0 336.2,286.0 338.9,286.0 341.6,286.0 344.2,286.0 346.9,286.0 349.6,286.0 352.3,286.0 354.9,286.0 357.6,279.8 360.3,267.5 363.0,267.5 365.6,267.5 368.3,267.5 371.0,261.4 373.7,261.4 376.3,261.4 379.0,267.5 381.7,267.5 384.4,273.7 387.0,273.7 389.7,273.7 392.4,267.5 395.1,267.5 397.7,267.5 400.4,273.7 403.1,273.7 405.7,273.7 408.4,273.7 411.1,267.5 413.8,267.5 416.4,261.4 419.1,261.4 421.8,267.5 424.5,267.5 427.1,267.5 429.8,261.4 432.5,261.4 435.2,273.7 437.8,261.4 440.5,261.4 443.2,261.4 445.9,261.4 448.5,267.5 451.2,267.5 453.9,273.7 456.6,279.8 459.2,279.8 461.9,279.8 464.6,279.8 467.3,279.8 469.9,279.8 472.6,286.0 475.3,286.0 478.0,286.0 480.6,279.8 483.3,273.7 486.0,273.7 488.7,279.8 491.3,273.7 494.0,273.7 496.7,267.5 499.4,267.5 502.0,267.5 504.7,267.5 507.4,279.8 510.1,273.7 512.7,279.8 515.4,279.8 518.1,286.0 520.8,286.0 523.4,286.0 526.1,286.0 528.8,286.0 531.5,286.0 534.1,286.0 536.8,286.0 539.5,286.0 542.2,286.0 544.8,286.0 547.5,286.0 550.2,279.8 552.9,279.8 555.5,279.8 558.2,267.5 560.9,279.8 563.6,267.5 566.2,273.7 568.9,273.7 571.6,286.0 574.3,279.8 576.9,286.0 579.6,279.8 582.3,286.0 584.9,286.0 587.6,286.0 590.3,279.8 593.0,273.7 595.6,279.8 598.3,279.8 601.0,279.8 603.7,273.7 606.3,273.7 609.0,279.8 611.7,279.8 614.4,279.8 617.0,279.8 619.7,286.0 622.4,286.0 625.1,286.0 627.7,286.0 630.4,286.0 633.1,286.0 635.8,286.0 638.4,286.0 641.1,286.0 643.8,286.0 646.5,286.0 649.1,286.0 651.8,286.0 654.5,286.0 657.2,286.0 659.8,286.0 662.5,286.0 665.2,286.0 667.9,286.0 670.5,286.0 673.2,286.0 675.9,286.0 678.6,286.0 681.2,286.0 683.9,286.0 686.6,286.0 689.3,286.0 691.9,286.0 694.6,286.0 697.3,286.0 700.0,286.0 702.6,286.0 705.3,286.0 708.0,286.0 710.7,286.0 713.3,286.0 716.0,286.0 718.7,286.0 721.4,286.0 724.0,286.0 726.7,286.0 729.4,286.0 732.1,286.0 734.7,286.0 737.4,286.0 740.1,286.0 742.8,286.0 745.4,279.8 748.1,279.8 750.8,279.8 753.5,279.8 756.1,279.8 758.8,273.7 761.5,286.0 764.1,286.0 766.8,286.0 769.5,286.0 772.2,286.0 774.8,286.0 777.5,286.0 780.2,279.8 782.9,279.8 785.5,279.8 788.2,279.8 790.9,273.7 793.6,273.7 796.2,267.5 798.9,267.5 801.6,261.4 804.3,261.4 806.9,261.4 809.6,261.4 812.3,261.4 815.0,267.5 817.6,267.5 820.3,267.5 823.0,273.7 825.7,279.8 828.3,279.8 831.0,267.5 833.7,267.5 836.4,273.7 839.0,267.5 841.7,273.7 844.4,273.7 847.1,273.7 849.7,273.7 852.4,273.7 855.1,267.5 857.8,273.7 860.4,267.5 863.1,273.7 865.8,267.5 868.5,273.7 871.1,273.7 873.8,261.4 876.5,267.5 879.2,267.5 881.8,267.5 884.5,267.5 887.2,267.5 889.9,273.7 892.5,267.5 895.2,273.7 897.9,273.7 900.6,273.7 903.2,267.5 905.9,267.5 908.6,267.5 911.3,273.7 913.9,273.7 916.6,273.7 919.3,273.7 922.0,267.5 924.6,267.5 927.3,267.5 930.0,267.5 932.7,267.5 935.3,261.4 938.0,261.4"/><polyline fill="none" stroke="#ef4444" stroke-width="2.5" stroke-linejoin="round" stroke-linecap="round" points="42.0,286.0 44.7,286.0 47.3,286.0 50.0,286.0 52.7,286.0 55.4,286.0 58.0,286.0 60.7,286.0 63.4,279.8 66.1,286.0 68.7,286.0 71.4,286.0 74.1,286.0 76.8,286.0 79.4,286.0 82.1,286.0 84.8,286.0 87.5,286.0 90.1,286.0 92.8,286.0 95.5,286.0 98.2,286.0 100.8,279.8 103.5,286.0 106.2,286.0 108.9,286.0 111.5,286.0 114.2,286.0 116.9,286.0 119.6,286.0 122.2,286.0 124.9,286.0 127.6,286.0 130.3,286.0 132.9,286.0 135.6,273.7 138.3,273.7 141.0,273.7 143.6,273.7 146.3,273.7 149.0,273.7 151.7,273.7 154.3,273.7 157.0,273.7 159.7,273.7 162.4,273.7 165.0,273.7 167.7,273.7 170.4,273.7 173.1,273.7 175.7,273.7 178.4,273.7 181.1,273.7 183.8,273.7 186.4,273.7 189.1,273.7 191.8,273.7 194.5,273.7 197.1,273.7 199.8,273.7 202.5,273.7 205.2,273.7 207.8,273.7 210.5,273.7 213.2,273.7 215.9,273.7 218.5,273.7 221.2,273.7 223.9,273.7 226.5,273.7 229.2,273.7 231.9,273.7 234.6,273.7 237.2,273.7 239.9,273.7 242.6,273.7 245.3,273.7 247.9,273.7 250.6,273.7 253.3,273.7 256.0,273.7 258.6,273.7 261.3,273.7 264.0,273.7 266.7,273.7 269.3,273.7 272.0,273.7 274.7,273.7 277.4,273.7 280.0,273.7 282.7,273.7 285.4,273.7 288.1,273.7 290.7,273.7 293.4,273.7 296.1,273.7 298.8,273.7 301.4,273.7 304.1,273.7 306.8,273.7 309.5,273.7 312.1,273.7 314.8,273.7 317.5,273.7 320.2,273.7 322.8,273.7 325.5,273.7 328.2,273.7 330.9,273.7 333.5,273.7 336.2,273.7 338.9,267.5 341.6,273.7 344.2,273.7 346.9,273.7 349.6,273.7 352.3,273.7 354.9,273.7 357.6,273.7 360.3,273.7 363.0,273.7 365.6,273.7 368.3,267.5 371.0,273.7 373.7,273.7 376.3,273.7 379.0,273.7 381.7,273.7 384.4,273.7 387.0,273.7 389.7,273.7 392.4,273.7 395.1,273.7 397.7,267.5 400.4,273.7 403.1,273.7 405.7,273.7 408.4,273.7 411.1,273.7 413.8,273.7 416.4,273.7 419.1,273.7 421.8,273.7 424.5,273.7 427.1,273.7 429.8,273.7 432.5,273.7 435.2,249.1 437.8,273.7 440.5,273.7 443.2,273.7 445.9,273.7 448.5,273.7 451.2,273.7 453.9,273.7 456.6,273.7 459.2,273.7 461.9,273.7 464.6,273.7 467.3,273.7 469.9,273.7 472.6,273.7 475.3,273.7 478.0,273.7 480.6,273.7 483.3,267.5 486.0,273.7 488.7,279.8 491.3,286.0 494.0,286.0 496.7,286.0 499.4,286.0 502.0,286.0 504.7,279.8 507.4,279.8 510.1,286.0 512.7,286.0 515.4,279.8 518.1,286.0 520.8,286.0 523.4,286.0 526.1,286.0 528.8,286.0 531.5,279.8 534.1,286.0 536.8,286.0 539.5,286.0 542.2,286.0 544.8,286.0 547.5,286.0 550.2,286.0 552.9,286.0 555.5,286.0 558.2,286.0 560.9,279.8 563.6,279.8 566.2,286.0 568.9,279.8 571.6,286.0 574.3,286.0 576.9,286.0 579.6,286.0 582.3,286.0 584.9,286.0 587.6,286.0 590.3,286.0 593.0,286.0 595.6,286.0 598.3,286.0 601.0,286.0 603.7,286.0 606.3,286.0 609.0,286.0 611.7,279.8 614.4,286.0 617.0,279.8 619.7,286.0 622.4,286.0 625.1,286.0 627.7,286.0 630.4,286.0 633.1,286.0 635.8,286.0 638.4,286.0 641.1,286.0 643.8,286.0 646.5,286.0 649.1,286.0 651.8,286.0 654.5,286.0 657.2,279.8 659.8,286.0 662.5,286.0 665.2,286.0 667.9,286.0 670.5,286.0 673.2,286.0 675.9,286.0 678.6,286.0 681.2,286.0 683.9,286.0 686.6,286.0 689.3,286.0 691.9,286.0 694.6,286.0 697.3,286.0 700.0,286.0 702.6,286.0 705.3,286.0 708.0,286.0 710.7,286.0 713.3,286.0 716.0,286.0 718.7,286.0 721.4,286.0 724.0,286.0 726.7,286.0 729.4,286.0 732.1,279.8 734.7,279.8 737.4,286.0 740.1,286.0 742.8,286.0 745.4,286.0 748.1,286.0 750.8,273.7 753.5,286.0 756.1,286.0 758.8,286.0 761.5,286.0 764.1,286.0 766.8,286.0 769.5,286.0 772.2,286.0 774.8,286.0 777.5,286.0 780.2,286.0 782.9,286.0 785.5,286.0 788.2,286.0 790.9,286.0 793.6,286.0 796.2,286.0 798.9,286.0 801.6,286.0 804.3,279.8 806.9,286.0 809.6,286.0 812.3,279.8 815.0,279.8 817.6,286.0 820.3,286.0 823.0,286.0 825.7,286.0 828.3,286.0 831.0,286.0 833.7,286.0 836.4,286.0 839.0,286.0 841.7,286.0 844.4,286.0 847.1,286.0 849.7,273.7 852.4,286.0 855.1,286.0 857.8,286.0 860.4,286.0 863.1,286.0 865.8,286.0 868.5,286.0 871.1,286.0 873.8,286.0 876.5,286.0 879.2,286.0 881.8,286.0 884.5,286.0 887.2,286.0 889.9,286.0 892.5,286.0 895.2,286.0 897.9,286.0 900.6,286.0 903.2,286.0 905.9,286.0 908.6,286.0 911.3,286.0 913.9,286.0 916.6,286.0 919.3,286.0 922.0,286.0 924.6,286.0 927.3,286.0 930.0,279.8 932.7,286.0 935.3,286.0 938.0,286.0"/><polyline fill="none" stroke="#a855f7" stroke-width="2.5" stroke-linejoin="round" stroke-linecap="round" points="42.0,286.0 44.7,286.0 47.3,286.0 50.0,286.0 52.7,286.0 55.4,286.0 58.0,286.0 60.7,286.0 63.4,286.0 66.1,286.0 68.7,286.0 71.4,286.0 74.1,286.0 76.8,286.0 79.4,286.0 82.1,286.0 84.8,286.0 87.5,286.0 90.1,286.0 92.8,286.0 95.5,286.0 98.2,286.0 100.8,286.0 103.5,286.0 106.2,286.0 108.9,286.0 111.5,286.0 114.2,286.0 116.9,286.0 119.6,286.0 122.2,279.8 124.9,286.0 127.6,286.0 130.3,286.0 132.9,286.0 135.6,286.0 138.3,286.0 141.0,286.0 143.6,286.0 146.3,286.0 149.0,286.0 151.7,286.0 154.3,286.0 157.0,286.0 159.7,286.0 162.4,286.0 165.0,286.0 167.7,286.0 170.4,286.0 173.1,286.0 175.7,286.0 178.4,286.0 181.1,286.0 183.8,286.0 186.4,286.0 189.1,286.0 191.8,286.0 194.5,286.0 197.1,286.0 199.8,286.0 202.5,286.0 205.2,286.0 207.8,286.0 210.5,286.0 213.2,286.0 215.9,286.0 218.5,286.0 221.2,286.0 223.9,286.0 226.5,286.0 229.2,286.0 231.9,286.0 234.6,286.0 237.2,286.0 239.9,286.0 242.6,286.0 245.3,286.0 247.9,286.0 250.6,286.0 253.3,286.0 256.0,286.0 258.6,286.0 261.3,286.0 264.0,286.0 266.7,286.0 269.3,286.0 272.0,286.0 274.7,286.0 277.4,286.0 280.0,286.0 282.7,286.0 285.4,286.0 288.1,286.0 290.7,286.0 293.4,286.0 296.1,286.0 298.8,286.0 301.4,286.0 304.1,286.0 306.8,286.0 309.5,286.0 312.1,286.0 314.8,286.0 317.5,286.0 320.2,286.0 322.8,286.0 325.5,286.0 328.2,286.0 330.9,286.0 333.5,286.0 336.2,286.0 338.9,286.0 341.6,286.0 344.2,286.0 346.9,286.0 349.6,286.0 352.3,286.0 354.9,279.8 357.6,286.0 360.3,286.0 363.0,286.0 365.6,286.0 368.3,286.0 371.0,286.0 373.7,286.0 376.3,286.0 379.0,286.0 381.7,286.0 384.4,286.0 387.0,286.0 389.7,286.0 392.4,286.0 395.1,286.0 397.7,286.0 400.4,286.0 403.1,286.0 405.7,286.0 408.4,286.0 411.1,286.0 413.8,286.0 416.4,286.0 419.1,286.0 421.8,286.0 424.5,286.0 427.1,286.0 429.8,286.0 432.5,286.0 435.2,286.0 437.8,286.0 440.5,286.0 443.2,286.0 445.9,286.0 448.5,286.0 451.2,286.0 453.9,286.0 456.6,286.0 459.2,286.0 461.9,286.0 464.6,286.0 467.3,286.0 469.9,286.0 472.6,286.0 475.3,286.0 478.0,286.0 480.6,286.0 483.3,286.0 486.0,286.0 488.7,286.0 491.3,286.0 494.0,286.0 496.7,286.0 499.4,286.0 502.0,286.0 504.7,286.0 507.4,286.0 510.1,279.8 512.7,286.0 515.4,286.0 518.1,286.0 520.8,286.0 523.4,286.0 526.1,286.0 528.8,286.0 531.5,286.0 534.1,286.0 536.8,279.8 539.5,286.0 542.2,286.0 544.8,286.0 547.5,286.0 550.2,286.0 552.9,286.0 555.5,286.0 558.2,286.0 560.9,286.0 563.6,286.0 566.2,286.0 568.9,286.0 571.6,286.0 574.3,286.0 576.9,286.0 579.6,286.0 582.3,286.0 584.9,286.0 587.6,286.0 590.3,286.0 593.0,286.0 595.6,286.0 598.3,286.0 601.0,286.0 603.7,286.0 606.3,286.0 609.0,286.0 611.7,286.0 614.4,279.8 617.0,286.0 619.7,286.0 622.4,286.0 625.1,286.0 627.7,286.0 630.4,286.0 633.1,279.8 635.8,286.0 638.4,286.0 641.1,286.0 643.8,286.0 646.5,286.0 649.1,286.0 651.8,286.0 654.5,286.0 657.2,286.0 659.8,286.0 662.5,286.0 665.2,286.0 667.9,286.0 670.5,286.0 673.2,286.0 675.9,286.0 678.6,279.8 681.2,286.0 683.9,286.0 686.6,286.0 689.3,286.0 691.9,286.0 694.6,286.0 697.3,286.0 700.0,286.0 702.6,286.0 705.3,286.0 708.0,286.0 710.7,286.0 713.3,286.0 716.0,286.0 718.7,286.0 721.4,286.0 724.0,286.0 726.7,286.0 729.4,286.0 732.1,286.0 734.7,286.0 737.4,286.0 740.1,286.0 742.8,286.0 745.4,286.0 748.1,286.0 750.8,286.0 753.5,286.0 756.1,286.0 758.8,286.0 761.5,286.0 764.1,286.0 766.8,286.0 769.5,286.0 772.2,286.0 774.8,286.0 777.5,273.7 780.2,286.0 782.9,286.0 785.5,286.0 788.2,286.0 790.9,286.0 793.6,286.0 796.2,286.0 798.9,286.0 801.6,286.0 804.3,286.0 806.9,286.0 809.6,286.0 812.3,286.0 815.0,286.0 817.6,286.0 820.3,286.0 823.0,286.0 825.7,286.0 828.3,286.0 831.0,286.0 833.7,286.0 836.4,286.0 839.0,286.0 841.7,286.0 844.4,286.0 847.1,286.0 849.7,286.0 852.4,286.0 855.1,286.0 857.8,286.0 860.4,286.0 863.1,286.0 865.8,286.0 868.5,286.0 871.1,286.0 873.8,286.0 876.5,286.0 879.2,286.0 881.8,286.0 884.5,286.0 887.2,286.0 889.9,286.0 892.5,286.0 895.2,286.0 897.9,286.0 900.6,286.0 903.2,286.0 905.9,286.0 908.6,286.0 911.3,286.0 913.9,286.0 916.6,286.0 919.3,286.0 922.0,286.0 924.6,286.0 927.3,286.0 930.0,286.0 932.7,286.0 935.3,286.0 938.0,286.0"/><text x="42" y="308" font-size="11" fill="#9fb0d4">23/06 09:41</text><text x="938" y="308" text-anchor="end" font-size="11" fill="#9fb0d4">09/07 13:34</text></svg>