<svg xmlns="http://www.w3.org/2000/svg" viewBox="0 0 960 320" width="960" height="320" font-family="Segoe UI, system-ui, -apple-system, Roboto, Helvetica, Arial, sans-serif" role="img" aria-label="Availability history per region"><rect x="0.5" y="0.5" width="959" height="319" rx="14" fill="#ffffff" stroke="#dce3f1"/><text x="42" y="26" font-size="14" font-weight="600" fill="#14203a">History · 152 points</text><circle cx="47" cy="40" r="5" fill="#22c55e"/><text x="57" y="44" font-size="12" fill="#5a688a">Available</text><circle cx="139.8" cy="40" r="5" fill="#f59e0b"/><text x="149.8" y="44" font-size="12" fill="#5a688a">Saturated</text><circle cx="232.60000000000002" cy="40" r="5" fill="#ef4444"/><text x="242.60000000000002" y="44" font-size="12" fill="#5a688a">Error</text><circle cx="296.6" cy="40" r="5" fill="#a855f7"/><text x="306.6" y="44" font-size="12" fill="#5a688a">Timeout</text><line x1="42" y1="286.0" x2="938" y2="286.0" stroke="#eef2f7" stroke-width="1"/><text x="35" y="289.0" text-anchor="end" font-size="11" fill="#5a688a">0</text><line x1="42" y1="227.5" x2="938" y2="227.5" stroke="#eef2f7" stroke-width="1"/><text x="35" y="230.5" text-anchor="end" font-size="11" fill="#5a688a">10</text><line x1="42" y1="169.0" x2="938" y2="169.0" stroke="#eef2f7" stroke-width="1"/><text x="35" y="172.0" text-anchor="end" font-size="11" fill="#5a688a">20</text><line x1="42" y1="110.5" x2="938" y2="110.5" stroke="#eef2f7" stroke-width="1"/><text x="35" y="113.5" text-anchor="end" font-size="11" fill="#5a688a">29</text><line x1="42" y1="52.0" x2="938" y2="52.0" stroke="#eef2f7" stroke-width="1"/><text x="35" y="55.0" text-anchor="end" font-size="11" fill="#5a688a">39</text><polyline fill="none" stroke="#22c55e" stroke-width="2.5" stroke-linejoin="round" stroke-linecap="round" points="42.0,70.0 47.9,70.0 53.9,88.0 59.8,88.0 65.7,76.0 71.7,76.0 77.6,76.0 83.5,70.0 89.5,76.0 95.4,70.0 101.3,64.0 107.3,58.0 113.2,58.0 119.1,58.0 125.1,58.0 131.0,58.0 136.9,58.0 142.9,58.0 148.8,58.0 154.7,58.0 160.7,58.0 166.6,58.0 172.5,58.0 178.5,58.0 184.4,58.0 190.3,58.0 196.3,58.0 202.2,58.0 208.1,58.0 214.1,58.0 220.0,58.0 225.9,70.0 231.9,76.0 237.8,94.0 243.7,64.0 249.7,64.0 255.6,58.0 261.5,58.0 267.5,58.0 273.4,70.0 279.4,76.0 285.3,76.0 291.2,82.0 297.2,82.0 303.1,82.0 309.0,82.0 315.0,76.0 320.9,64.0 326.8,70.0 332.8,70.0 338.7,82.0 344.6,76.0 350.6,76.0 356.5,82.0 362.4,76.0 368.4,76.0 374.3,76.0 380.2,64.0 386.2,64.0 392.1,76.0 398.0,76.0 404.0,76.0 409.9,88.0 415.8,70.0 421.8,64.0 427.7,58.0 433.6,58.0 439.6,70.0 445.5,70.0 451.4,70.0 457.4,76.0 463.3,70.0 469.2,70.0 475.2,70.0 481.1,70.0 487.0,76.0 493.0,82.0 498.9,76.0 504.8,70.0 510.8,70.0 516.7,70.0 522.6,70.0 528.6,76.0 534.5,70.0 540.4,70.0 546.4,70.0 552.3,70.0 558.2,70.0 564.2,70.0 570.1,70.0 576.0,70.0 582.0,70.0 587.9,70.0 593.8,70.0 599.8,70.0 605.7,70.0 611.6,70.0 617.6,70.0 623.5,70.0 629.4,70.0 635.4,70.0 641.3,70.0 647.2,70.0 653.2,70.0 659.1,70.0 665.0,70.0 671.0,70.0 676.9,70.0 682.8,70.0 688.8,70.0 694.7,70.0 700.6,70.0 706.6,70.0 712.5,70.0 718.5,70.0 724.4,70.0 730.3,70.0 736.3,70.0 742.2,70.0 748.1,70.0 754.1,70.0 760.0,70.0 765.9,70.0 771.9,70.0 777.8,70.0 783.7,70.0 789.7,70.0 795.6,70.0 801.5,70.0 807.5,70.0 813.4,70.0 819.3,70.0 825.3,70.0 831.2,70.0 837.1,70.0 843.1,70.0 849.0,70.0 854.9,70.0 860.9,70.0 866.8,70.0 872.7,70.0 878.7,70.0 884.6,70.0 890.5,70.0 896.5,70.0 902.4,70.0 908.3,70.0 914.3,70.0 920.2,70.0 926.1,70.0 932.1,70.0 938.0,76.0"/><polyline fill="none" stroke="#f59e0b" stroke-width="2.5" stroke-linejoin="round" stroke-linecap="round" points="42.0,274.0 47.9,274.0 53.9,274.0 59.8,280.0 65.7,268.0 71.7,268.0 77.6,268.0 83.5,274.0 89.5,274.0 95.4,274.0 101.3,280.0 107.3,286.0 113.2,286.0 119.1,286.0 125.1,286.0 131.0,286.0 136.9,286.0 142.9,286.0 148.8,286.0 154.7,286.0 160.7,286.0 166.6,286.0 172.5,286.0 178.5,286.0 184.4,286.0 190.3,286.0 196.3,286.0 202.2,286.0 208.1,286.0 214.1,286.0 220.0,286.0 225.9,274.0 231.9,280.0 237.8,280.0 243.7,280.0 249.7,280.0 255.6,286.0 261.5,286.0 267.5,286.0 273.4,274.0 279.4,268.0 285.3,268.0 291.2,262.0 297.2,262.0 303.1,262.0 309.0,262.0 315.0,268.0 320.9,280.0 326.8,280.0 332.8,274.0 338.7,262.0 344.6,268.0 350.6,268.0 356.5,262.0 362.4,268.0 368.4,268.0 374.3,268.0 380.2,280.0 386.2,280.0 392.1,268.0 398.0,268.0 404.0,268.0 409.9,262.0 415.8,274.0 421.8,280.0 427.7,286.0 433.6,286.0 439.6,274.0 445.5,274.0 451.4,274.0 457.4,274.0 463.3,274.0 469.2,274.0 475.2,274.0 481.1,274.0 487.0,280.0 493.0,274.0 498.9,280.0 504.8,286.0 510.8,286.0 516.7,286.0 522.6,286.0 528.6,280.0 534.5,286.0 540.4,286.0 546.4,286.0 552.3,286.0 558.2,286.0 564.2,286.0 570.1,286.0 576.0,286.0 582.0,286.0 587.9,286.0 593.8,286.0 599.8,286.0 605.7,286.0 611.6,286.0 617.6,286.0 623.5,286.0 629.4,286.0 635.4,286.0 641.3,286.0 647.2,286.0 653.2,286.0 659.1,286.0 665.0,286.0 671.0,286.0 676.9,286.0 682.8,286.0 688.8,286.0 694.7,286.0 700.6,286.0 706.6,286.0 712.5,286.0 718.5,286.0 724.4,286.0 730.3,286.0 736.3,286.0 742.2,286.0 748.1,286.0 754.1,286.0 760.0,286.0 765.9,286.0 771.9,286.0 777.8,286.0 783.7,286.0 789.7,286.0 795.6,286.0 801.5,286.0 807.5,286.0 813.4,286.0 819.3,286.0 825.3,286.0 831.2,286.0 837.1,286.0 843.1,286.0 849.0,286.0 854.9,286.0 860.9,286.0 866.8,286.0 872.7,286.0 878.7,286.0 884.6,286.0 890.5,286.0 896.5,286.0 902.4,286.0 908.3,286.0 914.3,286.0 920.2,286.0 926.1,286.0 932.1,286.0 938.0,286.0"/><polyline fill="none" stroke="#ef4444" stroke-width="2.5" stroke-linejoin="round" stroke-linecap="round" points="42.0,280.0 47.9,280.0 53.9,268.0 59.8,262.0 65.7,286.0 71.7,286.0 77.6,286.0 83.5,286.0 89.5,280.0 95.4,286.0 101.3,286.0 107.3,286.0 113.2,286.0 119.1,286.0 125.1,286.0 131.0,286.0 136.9,286.0 142.9,286.0 148.8,286.0 154.7,286.0 160.7,286.0 166.6,286.0 172.5,286.0 178.5,286.0 184.4,286.0 190.3,286.0 196.3,286.0 202.2,286.0 208.1,286.0 214.1,286.0 220.0,286.0 225.9,286.0 231.9,274.0 237.8,256.0 243.7,286.0 249.7,286.0 255.6,286.0 261.5,286.0 267.5,286.0 273.4,286.0 279.4,286.0 285.3,286.0 291.2,286.0 297.2,286.0 303.1,286.0 309.0,286.0 315.0,286.0 320.9,286.0 326.8,280.0 332.8,286.0 338.7,286.0 344.6,286.0 350.6,286.0 356.5,286.0 362.4,286.0 368.4,286.0 374.3,286.0 380.2,286.0 386.2,286.0 392.1,286.0 398.0,286.0 404.0,286.0 409.9,280.0 415.8,286.0 421.8,286.0 427.7,286.0 433.6,286.0 439.6,286.0 445.5,286.0 451.4,286.0 457.4,286.0 463.3,286.0 469.2,286.0 475.2,286.0 481.1,286.0 487.0,274.0 493.0,274.0 498.9,274.0 504.8,274.0 510.8,274.0 516.7,274.0 522.6,274.0 528.6,274.0 534.5,274.0 540.4,274.0 546.4,274.0 552.3,274.0 558.2,274.0 564.2,274.0 570.1,274.0 576.0,274.0 582.0,274.0 587.9,274.0 593.8,274.0 599.8,274.0 605.7,274.0 611.6,274.0 617.6,274.0 623.5,274.0 629.4,274.0 635.4,274.0 641.3,274.0 647.2,274.0 653.2,274.0 659.1,274.0 665.0,274.0 671.0,274.0 676.9,274.0 682.8,274.0 688.8,274.0 694.7,274.0 700.6,274.0 706.6,274.0 712.5,274.0 718.5,274.0 724.4,274.0 730.3,274.0 736.3,274.0 742.2,274.0 748.1,274.0 754.1,274.0 760.0,274.0 765.9,274.0 771.9,274.0 777.8,274.0 783.7,274.0 789.7,274.0 795.6,274.0 801.5,274.0 807.5,274.0 813.4,274.0 819.3,274.0 825.3,274.0 831.2,274.0 837.1,274.0 843.1,274.0 849.0,274.0 854.9,274.0 860.9,274.0 866.8,274.0 872.7,274.0 878.7,274.0 884.6,274.0 890.5,274.0 896.5,274.0 902.4,274.0 908.3,274.0 914.3,274.0 920.2,274.0 926.1,274.0 932.1,274.0 938.0,268.0"/><polyline fill="none" stroke="#a855f7" stroke-width="2.5" stroke-linejoin="round" stroke-linecap="round" points="42.0,286.0 47.9,286.0 53.9,286.0 59.8,286.0 65.7,286.0 71.7,286.0 77.6,286.0 83.5,286.0 89.5,286.0 95.4,286.0 101.3,286.0 107.3,286.0 113.2,286.0 119.1,286.0 125.1,286.0 131.0,286.0 136.9,286.0 142.9,286.0 148.8,286.0 154.7,286.0 160.7,286.0 166.6,286.0 172.5,286.0 178.5,286.0 184.4,286.0 190.3,286.0 196.3,286.0 202.2,286.0 208.1,286.0 214.1,286.0 220.0,286.0 225.9,286.0 231.9,286.0 237.8,286.0 243.7,286.0 249.7,286.0 255.6,286.0 261.5,286.0 267.5,286.0 273.4,286.0 279.4,286.0 285.3,286.0 291.2,286.0 297.2,286.0 303.1,286.0 309.0,286.0 315.0,286.0 320.9,286.0 326.8,286.0 332.8,286.0 338.7,286.0 344.6,286.0 350.6,286.0 356.5,286.0 362.4,286.0 368.4,286.0 374.3,286.0 380.2,286.0 386.2,286.0 392.1,286.0 398.0,286.0 404.0,286.0 409.9,286.0 415.8,286.0 421.8,286.0 427.7,286.0 433.6,286.0 439.6,286.0 445.5,286.0 451.4,286.0 457.4,280.0 463.3,286.0 469.2,286.0 475.2,286.0 481.1,286.0 487.0,286.0 493.0,286.0 498.9,286.0 504.8,286.0 510.8,286.0 516.7,286.0 522.6,286.0 528.6,286.0 534.5,286.0 540.4,286.0 546.4,286.0 552.3,286.0 558.2,286.0 564.2,286.0 570.1,286.0 576.0,286.0 582.0,286.0 587.9,286.0 593.8,286.0 599.8,286.0 605.7,286.0 611.6,286.0 617.6,286.0 623.5,286.0 629.4,286.0 635.4,286.0 641.3,286.0 647.2,286.0 653.2,286.0 659.1,286.0 665.0,286.0 671.0,286.0 676.9,286.0 682.8,286.0 688.8,286.0 694.7,286.0 700.6,286.0 706.6,286.0 712.5,286.0 718.5,286.0 724.4,286.0 730.3,286.0 736.3,286.0 742.2,286.0 748.1,286.0 754.1,286.0 760.0,286.0 765.9,286.0 771.9,286.0 777.8,286.0 783.7,286.0 789.7,286.0 795.6,286.0 801.5,286.0 807.5,286.0 813.4,286.0 819.3,286.0 825.3,286.0 831.2,286.0 837.1,286.0 843.1,286.0 849.0,286.0 854.9,286.0 860.9,286.0 866.8,286.0 872.7,286.0 878.7,286.0 884.6,286.0 890.5,286.0 896.5,286.0 902.4,286.0 908.3,286.0 914.3,286.0 920.2,286.0 926.1,286.0 932.1,286.0 938.0,286.0"/><text x="42" y="308" font-size="11" fill="#5a688a">19/06 12:43</text><text x="938" y="308" text-anchor="end" font-size="11" fill="#5a688a">29/06 03:31</text></svg>