<svg xmlns="http://www.w3.org/2000/svg" viewBox="0 0 960 320" width="960" height="320" font-family="Segoe UI, system-ui, -apple-system, Roboto, Helvetica, Arial, sans-serif" role="img" aria-label="Availability history per region"><rect x="0.5" y="0.5" width="959" height="319" rx="14" fill="#ffffff" stroke="#dce3f1"/><text x="42" y="26" font-size="14" font-weight="600" fill="#14203a">History · 310 points</text><circle cx="47" cy="40" r="5" fill="#22c55e"/><text x="57" y="44" font-size="12" fill="#5a688a">Available</text><circle cx="139.8" cy="40" r="5" fill="#f59e0b"/><text x="149.8" y="44" font-size="12" fill="#5a688a">Saturated</text><circle cx="232.60000000000002" cy="40" r="5" fill="#ef4444"/><text x="242.60000000000002" y="44" font-size="12" fill="#5a688a">Error</text><circle cx="296.6" cy="40" r="5" fill="#a855f7"/><text x="306.6" y="44" font-size="12" fill="#5a688a">Timeout</text><line x1="42" y1="286.0" x2="938" y2="286.0" stroke="#eef2f7" stroke-width="1"/><text x="35" y="289.0" text-anchor="end" font-size="11" fill="#5a688a">0</text><line x1="42" y1="227.5" x2="938" y2="227.5" stroke="#eef2f7" stroke-width="1"/><text x="35" y="230.5" text-anchor="end" font-size="11" fill="#5a688a">10</text><line x1="42" y1="169.0" x2="938" y2="169.0" stroke="#eef2f7" stroke-width="1"/><text x="35" y="172.0" text-anchor="end" font-size="11" fill="#5a688a">20</text><line x1="42" y1="110.5" x2="938" y2="110.5" stroke="#eef2f7" stroke-width="1"/><text x="35" y="113.5" text-anchor="end" font-size="11" fill="#5a688a">29</text><line x1="42" y1="52.0" x2="938" y2="52.0" stroke="#eef2f7" stroke-width="1"/><text x="35" y="55.0" text-anchor="end" font-size="11" fill="#5a688a">39</text><polyline fill="none" stroke="#22c55e" stroke-width="2.5" stroke-linejoin="round" stroke-linecap="round" points="42.0,70.0 44.9,70.0 47.8,88.0 50.7,88.0 53.6,76.0 56.5,76.0 59.4,76.0 62.3,70.0 65.2,76.0 68.1,70.0 71.0,64.0 73.9,58.0 76.8,58.0 79.7,58.0 82.6,58.0 85.5,58.0 88.4,58.0 91.3,58.0 94.2,58.0 97.1,58.0 100.0,58.0 102.9,58.0 105.8,58.0 108.7,58.0 111.6,58.0 114.5,58.0 117.4,58.0 120.3,58.0 123.2,58.0 126.1,58.0 129.0,58.0 131.9,70.0 134.8,76.0 137.7,94.0 140.6,64.0 143.5,64.0 146.4,58.0 149.3,58.0 152.2,58.0 155.1,70.0 158.0,76.0 160.9,76.0 163.8,82.0 166.7,82.0 169.6,82.0 172.5,82.0 175.4,76.0 178.3,64.0 181.2,70.0 184.1,70.0 187.0,82.0 189.9,76.0 192.8,76.0 195.7,82.0 198.6,76.0 201.5,76.0 204.4,76.0 207.3,64.0 210.2,64.0 213.1,76.0 216.0,76.0 218.9,76.0 221.8,88.0 224.7,70.0 227.6,64.0 230.5,58.0 233.4,58.0 236.3,70.0 239.2,70.0 242.1,70.0 245.0,76.0 247.9,70.0 250.8,70.0 253.7,70.0 256.6,70.0 259.5,76.0 262.4,82.0 265.3,76.0 268.2,70.0 271.1,70.0 274.0,70.0 276.9,70.0 279.8,76.0 282.7,70.0 285.6,70.0 288.5,70.0 291.4,70.0 294.3,70.0 297.2,70.0 300.1,70.0 303.0,70.0 305.9,70.0 308.8,70.0 311.7,70.0 314.6,70.0 317.5,70.0 320.4,70.0 323.3,70.0 326.2,70.0 329.1,70.0 332.0,70.0 334.9,70.0 337.8,70.0 340.7,70.0 343.6,70.0 346.5,70.0 349.4,70.0 352.3,70.0 355.2,70.0 358.1,70.0 361.0,70.0 363.9,70.0 366.8,70.0 369.7,70.0 372.6,70.0 375.5,70.0 378.4,70.0 381.3,70.0 384.2,70.0 387.1,70.0 390.0,70.0 392.9,70.0 395.8,70.0 398.7,70.0 401.6,70.0 404.5,70.0 407.4,70.0 410.3,70.0 413.2,70.0 416.1,70.0 419.0,70.0 421.9,70.0 424.8,70.0 427.7,70.0 430.6,70.0 433.5,70.0 436.4,70.0 439.3,70.0 442.2,70.0 445.1,70.0 448.0,70.0 450.9,70.0 453.8,70.0 456.7,70.0 459.6,70.0 462.5,70.0 465.4,70.0 468.3,70.0 471.2,70.0 474.1,70.0 477.0,70.0 479.9,76.0 482.8,70.0 485.7,70.0 488.6,70.0 491.4,70.0 494.3,70.0 497.2,76.0 500.1,76.0 503.0,88.0 505.9,88.0 508.8,88.0 511.7,94.0 514.6,94.0 517.5,94.0 520.4,94.0 523.3,88.0 526.2,88.0 529.1,82.0 532.0,82.0 534.9,82.0 537.8,88.0 540.7,88.0 543.6,94.0 546.5,82.0 549.4,82.0 552.3,82.0 555.2,82.0 558.1,88.0 561.0,88.0 563.9,94.0 566.8,94.0 569.7,88.0 572.6,88.0 575.5,88.0 578.4,94.0 581.3,94.0 584.2,106.0 587.1,94.0 590.0,94.0 592.9,94.0 595.8,94.0 598.7,88.0 601.6,88.0 604.5,82.0 607.4,76.0 610.3,76.0 613.2,76.0 616.1,76.0 619.0,76.0 621.9,76.0 624.8,70.0 627.7,70.0 630.6,70.0 633.5,76.0 636.4,88.0 639.3,82.0 642.2,70.0 645.1,70.0 648.0,70.0 650.9,76.0 653.8,76.0 656.7,76.0 659.6,82.0 662.5,70.0 665.4,76.0 668.3,64.0 671.2,70.0 674.1,58.0 677.0,58.0 679.9,58.0 682.8,58.0 685.7,58.0 688.6,64.0 691.5,58.0 694.4,64.0 697.3,58.0 700.2,58.0 703.1,58.0 706.0,58.0 708.9,64.0 711.8,64.0 714.7,64.0 717.6,76.0 720.5,70.0 723.4,82.0 726.3,70.0 729.2,76.0 732.1,58.0 735.0,64.0 737.9,58.0 740.8,64.0 743.7,58.0 746.6,58.0 749.5,58.0 752.4,64.0 755.3,70.0 758.2,64.0 761.1,64.0 764.0,64.0 766.9,70.0 769.8,70.0 772.7,64.0 775.6,70.0 778.5,70.0 781.4,70.0 784.3,58.0 787.2,58.0 790.1,58.0 793.0,58.0 795.9,58.0 798.8,64.0 801.7,58.0 804.6,58.0 807.5,58.0 810.4,58.0 813.3,58.0 816.2,58.0 819.1,58.0 822.0,58.0 824.9,64.0 827.8,58.0 830.7,58.0 833.6,58.0 836.5,58.0 839.4,58.0 842.3,58.0 845.2,58.0 848.1,64.0 851.0,58.0 853.9,58.0 856.8,58.0 859.7,58.0 862.6,58.0 865.5,58.0 868.4,58.0 871.3,58.0 874.2,58.0 877.1,58.0 880.0,58.0 882.9,58.0 885.8,58.0 888.7,58.0 891.6,58.0 894.5,58.0 897.4,58.0 900.3,58.0 903.2,58.0 906.1,64.0 909.0,64.0 911.9,58.0 914.8,58.0 917.7,58.0 920.6,64.0 923.5,64.0 926.4,76.0 929.3,64.0 932.2,64.0 935.1,70.0 938.0,58.0"/><polyline fill="none" stroke="#f59e0b" stroke-width="2.5" stroke-linejoin="round" stroke-linecap="round" points="42.0,274.0 44.9,274.0 47.8,274.0 50.7,280.0 53.6,268.0 56.5,268.0 59.4,268.0 62.3,274.0 65.2,274.0 68.1,274.0 71.0,280.0 73.9,286.0 76.8,286.0 79.7,286.0 82.6,286.0 85.5,286.0 88.4,286.0 91.3,286.0 94.2,286.0 97.1,286.0 100.0,286.0 102.9,286.0 105.8,286.0 108.7,286.0 111.6,286.0 114.5,286.0 117.4,286.0 120.3,286.0 123.2,286.0 126.1,286.0 129.0,286.0 131.9,274.0 134.8,280.0 137.7,280.0 140.6,280.0 143.5,280.0 146.4,286.0 149.3,286.0 152.2,286.0 155.1,274.0 158.0,268.0 160.9,268.0 163.8,262.0 166.7,262.0 169.6,262.0 172.5,262.0 175.4,268.0 178.3,280.0 181.2,280.0 184.1,274.0 187.0,262.0 189.9,268.0 192.8,268.0 195.7,262.0 198.6,268.0 201.5,268.0 204.4,268.0 207.3,280.0 210.2,280.0 213.1,268.0 216.0,268.0 218.9,268.0 221.8,262.0 224.7,274.0 227.6,280.0 230.5,286.0 233.4,286.0 236.3,274.0 239.2,274.0 242.1,274.0 245.0,274.0 247.9,274.0 250.8,274.0 253.7,274.0 256.6,274.0 259.5,280.0 262.4,274.0 265.3,280.0 268.2,286.0 271.1,286.0 274.0,286.0 276.9,286.0 279.8,280.0 282.7,286.0 285.6,286.0 288.5,286.0 291.4,286.0 294.3,286.0 297.2,286.0 300.1,286.0 303.0,286.0 305.9,286.0 308.8,286.0 311.7,286.0 314.6,286.0 317.5,286.0 320.4,286.0 323.3,286.0 326.2,286.0 329.1,286.0 332.0,286.0 334.9,286.0 337.8,286.0 340.7,286.0 343.6,286.0 346.5,286.0 349.4,286.0 352.3,286.0 355.2,286.0 358.1,286.0 361.0,286.0 363.9,286.0 366.8,286.0 369.7,286.0 372.6,286.0 375.5,286.0 378.4,286.0 381.3,286.0 384.2,286.0 387.1,286.0 390.0,286.0 392.9,286.0 395.8,286.0 398.7,286.0 401.6,286.0 404.5,286.0 407.4,286.0 410.3,286.0 413.2,286.0 416.1,286.0 419.0,286.0 421.9,286.0 424.8,286.0 427.7,286.0 430.6,286.0 433.5,286.0 436.4,286.0 439.3,286.0 442.2,286.0 445.1,286.0 448.0,286.0 450.9,286.0 453.8,286.0 456.7,286.0 459.6,286.0 462.5,286.0 465.4,286.0 468.3,286.0 471.2,286.0 474.1,286.0 477.0,286.0 479.9,286.0 482.8,286.0 485.7,286.0 488.6,286.0 491.4,286.0 494.3,286.0 497.2,286.0 500.1,280.0 503.0,268.0 505.9,268.0 508.8,268.0 511.7,268.0 514.6,262.0 517.5,262.0 520.4,262.0 523.3,268.0 526.2,268.0 529.1,274.0 532.0,274.0 534.9,274.0 537.8,268.0 540.7,268.0 543.6,268.0 546.5,274.0 549.4,274.0 552.3,274.0 555.2,274.0 558.1,268.0 561.0,268.0 563.9,262.0 566.8,262.0 569.7,268.0 572.6,268.0 575.5,268.0 578.4,262.0 581.3,262.0 584.2,274.0 587.1,262.0 590.0,262.0 592.9,262.0 595.8,262.0 598.7,268.0 601.6,268.0 604.5,274.0 607.4,280.0 610.3,280.0 613.2,280.0 616.1,280.0 619.0,280.0 621.9,280.0 624.8,286.0 627.7,286.0 630.6,286.0 633.5,280.0 636.4,274.0 639.3,274.0 642.2,280.0 645.1,274.0 648.0,274.0 650.9,268.0 653.8,268.0 656.7,268.0 659.6,268.0 662.5,280.0 665.4,274.0 668.3,280.0 671.2,280.0 674.1,286.0 677.0,286.0 679.9,286.0 682.8,286.0 685.7,286.0 688.6,286.0 691.5,286.0 694.4,286.0 697.3,286.0 700.2,286.0 703.1,286.0 706.0,286.0 708.9,280.0 711.8,280.0 714.7,280.0 717.6,268.0 720.5,280.0 723.4,268.0 726.3,274.0 729.2,274.0 732.1,286.0 735.0,280.0 737.9,286.0 740.8,280.0 743.7,286.0 746.6,286.0 749.5,286.0 752.4,280.0 755.3,274.0 758.2,280.0 761.1,280.0 764.0,280.0 766.9,274.0 769.8,274.0 772.7,280.0 775.6,280.0 778.5,280.0 781.4,280.0 784.3,286.0 787.2,286.0 790.1,286.0 793.0,286.0 795.9,286.0 798.8,286.0 801.7,286.0 804.6,286.0 807.5,286.0 810.4,286.0 813.3,286.0 816.2,286.0 819.1,286.0 822.0,286.0 824.9,286.0 827.8,286.0 830.7,286.0 833.6,286.0 836.5,286.0 839.4,286.0 842.3,286.0 845.2,286.0 848.1,286.0 851.0,286.0 853.9,286.0 856.8,286.0 859.7,286.0 862.6,286.0 865.5,286.0 868.4,286.0 871.3,286.0 874.2,286.0 877.1,286.0 880.0,286.0 882.9,286.0 885.8,286.0 888.7,286.0 891.6,286.0 894.5,286.0 897.4,286.0 900.3,286.0 903.2,286.0 906.1,286.0 909.0,286.0 911.9,286.0 914.8,286.0 917.7,286.0 920.6,280.0 923.5,280.0 926.4,280.0 929.3,280.0 932.2,280.0 935.1,274.0 938.0,286.0"/><polyline fill="none" stroke="#ef4444" stroke-width="2.5" stroke-linejoin="round" stroke-linecap="round" points="42.0,280.0 44.9,280.0 47.8,268.0 50.7,262.0 53.6,286.0 56.5,286.0 59.4,286.0 62.3,286.0 65.2,280.0 68.1,286.0 71.0,286.0 73.9,286.0 76.8,286.0 79.7,286.0 82.6,286.0 85.5,286.0 88.4,286.0 91.3,286.0 94.2,286.0 97.1,286.0 100.0,286.0 102.9,286.0 105.8,286.0 108.7,286.0 111.6,286.0 114.5,286.0 117.4,286.0 120.3,286.0 123.2,286.0 126.1,286.0 129.0,286.0 131.9,286.0 134.8,274.0 137.7,256.0 140.6,286.0 143.5,286.0 146.4,286.0 149.3,286.0 152.2,286.0 155.1,286.0 158.0,286.0 160.9,286.0 163.8,286.0 166.7,286.0 169.6,286.0 172.5,286.0 175.4,286.0 178.3,286.0 181.2,280.0 184.1,286.0 187.0,286.0 189.9,286.0 192.8,286.0 195.7,286.0 198.6,286.0 201.5,286.0 204.4,286.0 207.3,286.0 210.2,286.0 213.1,286.0 216.0,286.0 218.9,286.0 221.8,280.0 224.7,286.0 227.6,286.0 230.5,286.0 233.4,286.0 236.3,286.0 239.2,286.0 242.1,286.0 245.0,286.0 247.9,286.0 250.8,286.0 253.7,286.0 256.6,286.0 259.5,274.0 262.4,274.0 265.3,274.0 268.2,274.0 271.1,274.0 274.0,274.0 276.9,274.0 279.8,274.0 282.7,274.0 285.6,274.0 288.5,274.0 291.4,274.0 294.3,274.0 297.2,274.0 300.1,274.0 303.0,274.0 305.9,274.0 308.8,274.0 311.7,274.0 314.6,274.0 317.5,274.0 320.4,274.0 323.3,274.0 326.2,274.0 329.1,274.0 332.0,274.0 334.9,274.0 337.8,274.0 340.7,274.0 343.6,274.0 346.5,274.0 349.4,274.0 352.3,274.0 355.2,274.0 358.1,274.0 361.0,274.0 363.9,274.0 366.8,274.0 369.7,274.0 372.6,274.0 375.5,274.0 378.4,274.0 381.3,274.0 384.2,274.0 387.1,274.0 390.0,274.0 392.9,274.0 395.8,274.0 398.7,274.0 401.6,274.0 404.5,274.0 407.4,274.0 410.3,274.0 413.2,274.0 416.1,274.0 419.0,274.0 421.9,274.0 424.8,274.0 427.7,274.0 430.6,274.0 433.5,274.0 436.4,274.0 439.3,274.0 442.2,274.0 445.1,274.0 448.0,274.0 450.9,274.0 453.8,274.0 456.7,274.0 459.6,274.0 462.5,274.0 465.4,274.0 468.3,274.0 471.2,274.0 474.1,274.0 477.0,274.0 479.9,268.0 482.8,274.0 485.7,274.0 488.6,274.0 491.4,274.0 494.3,274.0 497.2,274.0 500.1,274.0 503.0,274.0 505.9,274.0 508.8,274.0 511.7,268.0 514.6,274.0 517.5,274.0 520.4,274.0 523.3,274.0 526.2,274.0 529.1,274.0 532.0,274.0 534.9,274.0 537.8,274.0 540.7,274.0 543.6,268.0 546.5,274.0 549.4,274.0 552.3,274.0 555.2,274.0 558.1,274.0 561.0,274.0 563.9,274.0 566.8,274.0 569.7,274.0 572.6,274.0 575.5,274.0 578.4,274.0 581.3,274.0 584.2,250.0 587.1,274.0 590.0,274.0 592.9,274.0 595.8,274.0 598.7,274.0 601.6,274.0 604.5,274.0 607.4,274.0 610.3,274.0 613.2,274.0 616.1,274.0 619.0,274.0 621.9,274.0 624.8,274.0 627.7,274.0 630.6,274.0 633.5,274.0 636.4,268.0 639.3,274.0 642.2,280.0 645.1,286.0 648.0,286.0 650.9,286.0 653.8,286.0 656.7,286.0 659.6,280.0 662.5,280.0 665.4,286.0 668.3,286.0 671.2,280.0 674.1,286.0 677.0,286.0 679.9,286.0 682.8,286.0 685.7,286.0 688.6,280.0 691.5,286.0 694.4,286.0 697.3,286.0 700.2,286.0 703.1,286.0 706.0,286.0 708.9,286.0 711.8,286.0 714.7,286.0 717.6,286.0 720.5,280.0 723.4,280.0 726.3,286.0 729.2,280.0 732.1,286.0 735.0,286.0 737.9,286.0 740.8,286.0 743.7,286.0 746.6,286.0 749.5,286.0 752.4,286.0 755.3,286.0 758.2,286.0 761.1,286.0 764.0,286.0 766.9,286.0 769.8,286.0 772.7,286.0 775.6,280.0 778.5,286.0 781.4,280.0 784.3,286.0 787.2,286.0 790.1,286.0 793.0,286.0 795.9,286.0 798.8,286.0 801.7,286.0 804.6,286.0 807.5,286.0 810.4,286.0 813.3,286.0 816.2,286.0 819.1,286.0 822.0,286.0 824.9,280.0 827.8,286.0 830.7,286.0 833.6,286.0 836.5,286.0 839.4,286.0 842.3,286.0 845.2,286.0 848.1,286.0 851.0,286.0 853.9,286.0 856.8,286.0 859.7,286.0 862.6,286.0 865.5,286.0 868.4,286.0 871.3,286.0 874.2,286.0 877.1,286.0 880.0,286.0 882.9,286.0 885.8,286.0 888.7,286.0 891.6,286.0 894.5,286.0 897.4,286.0 900.3,286.0 903.2,286.0 906.1,280.0 909.0,280.0 911.9,286.0 914.8,286.0 917.7,286.0 920.6,286.0 923.5,286.0 926.4,274.0 929.3,286.0 932.2,286.0 935.1,286.0 938.0,286.0"/><polyline fill="none" stroke="#a855f7" stroke-width="2.5" stroke-linejoin="round" stroke-linecap="round" points="42.0,286.0 44.9,286.0 47.8,286.0 50.7,286.0 53.6,286.0 56.5,286.0 59.4,286.0 62.3,286.0 65.2,286.0 68.1,286.0 71.0,286.0 73.9,286.0 76.8,286.0 79.7,286.0 82.6,286.0 85.5,286.0 88.4,286.0 91.3,286.0 94.2,286.0 97.1,286.0 100.0,286.0 102.9,286.0 105.8,286.0 108.7,286.0 111.6,286.0 114.5,286.0 117.4,286.0 120.3,286.0 123.2,286.0 126.1,286.0 129.0,286.0 131.9,286.0 134.8,286.0 137.7,286.0 140.6,286.0 143.5,286.0 146.4,286.0 149.3,286.0 152.2,286.0 155.1,286.0 158.0,286.0 160.9,286.0 163.8,286.0 166.7,286.0 169.6,286.0 172.5,286.0 175.4,286.0 178.3,286.0 181.2,286.0 184.1,286.0 187.0,286.0 189.9,286.0 192.8,286.0 195.7,286.0 198.6,286.0 201.5,286.0 204.4,286.0 207.3,286.0 210.2,286.0 213.1,286.0 216.0,286.0 218.9,286.0 221.8,286.0 224.7,286.0 227.6,286.0 230.5,286.0 233.4,286.0 236.3,286.0 239.2,286.0 242.1,286.0 245.0,280.0 247.9,286.0 250.8,286.0 253.7,286.0 256.6,286.0 259.5,286.0 262.4,286.0 265.3,286.0 268.2,286.0 271.1,286.0 274.0,286.0 276.9,286.0 279.8,286.0 282.7,286.0 285.6,286.0 288.5,286.0 291.4,286.0 294.3,286.0 297.2,286.0 300.1,286.0 303.0,286.0 305.9,286.0 308.8,286.0 311.7,286.0 314.6,286.0 317.5,286.0 320.4,286.0 323.3,286.0 326.2,286.0 329.1,286.0 332.0,286.0 334.9,286.0 337.8,286.0 340.7,286.0 343.6,286.0 346.5,286.0 349.4,286.0 352.3,286.0 355.2,286.0 358.1,286.0 361.0,286.0 363.9,286.0 366.8,286.0 369.7,286.0 372.6,286.0 375.5,286.0 378.4,286.0 381.3,286.0 384.2,286.0 387.1,286.0 390.0,286.0 392.9,286.0 395.8,286.0 398.7,286.0 401.6,286.0 404.5,286.0 407.4,286.0 410.3,286.0 413.2,286.0 416.1,286.0 419.0,286.0 421.9,286.0 424.8,286.0 427.7,286.0 430.6,286.0 433.5,286.0 436.4,286.0 439.3,286.0 442.2,286.0 445.1,286.0 448.0,286.0 450.9,286.0 453.8,286.0 456.7,286.0 459.6,286.0 462.5,286.0 465.4,286.0 468.3,286.0 471.2,286.0 474.1,286.0 477.0,286.0 479.9,286.0 482.8,286.0 485.7,286.0 488.6,286.0 491.4,286.0 494.3,286.0 497.2,280.0 500.1,286.0 503.0,286.0 505.9,286.0 508.8,286.0 511.7,286.0 514.6,286.0 517.5,286.0 520.4,286.0 523.3,286.0 526.2,286.0 529.1,286.0 532.0,286.0 534.9,286.0 537.8,286.0 540.7,286.0 543.6,286.0 546.5,286.0 549.4,286.0 552.3,286.0 555.2,286.0 558.1,286.0 561.0,286.0 563.9,286.0 566.8,286.0 569.7,286.0 572.6,286.0 575.5,286.0 578.4,286.0 581.3,286.0 584.2,286.0 587.1,286.0 590.0,286.0 592.9,286.0 595.8,286.0 598.7,286.0 601.6,286.0 604.5,286.0 607.4,286.0 610.3,286.0 613.2,286.0 616.1,286.0 619.0,286.0 621.9,286.0 624.8,286.0 627.7,286.0 630.6,286.0 633.5,286.0 636.4,286.0 639.3,286.0 642.2,286.0 645.1,286.0 648.0,286.0 650.9,286.0 653.8,286.0 656.7,286.0 659.6,286.0 662.5,286.0 665.4,280.0 668.3,286.0 671.2,286.0 674.1,286.0 677.0,286.0 679.9,286.0 682.8,286.0 685.7,286.0 688.6,286.0 691.5,286.0 694.4,280.0 697.3,286.0 700.2,286.0 703.1,286.0 706.0,286.0 708.9,286.0 711.8,286.0 714.7,286.0 717.6,286.0 720.5,286.0 723.4,286.0 726.3,286.0 729.2,286.0 732.1,286.0 735.0,286.0 737.9,286.0 740.8,286.0 743.7,286.0 746.6,286.0 749.5,286.0 752.4,286.0 755.3,286.0 758.2,286.0 761.1,286.0 764.0,286.0 766.9,286.0 769.8,286.0 772.7,286.0 775.6,286.0 778.5,280.0 781.4,286.0 784.3,286.0 787.2,286.0 790.1,286.0 793.0,286.0 795.9,286.0 798.8,280.0 801.7,286.0 804.6,286.0 807.5,286.0 810.4,286.0 813.3,286.0 816.2,286.0 819.1,286.0 822.0,286.0 824.9,286.0 827.8,286.0 830.7,286.0 833.6,286.0 836.5,286.0 839.4,286.0 842.3,286.0 845.2,286.0 848.1,280.0 851.0,286.0 853.9,286.0 856.8,286.0 859.7,286.0 862.6,286.0 865.5,286.0 868.4,286.0 871.3,286.0 874.2,286.0 877.1,286.0 880.0,286.0 882.9,286.0 885.8,286.0 888.7,286.0 891.6,286.0 894.5,286.0 897.4,286.0 900.3,286.0 903.2,286.0 906.1,286.0 909.0,286.0 911.9,286.0 914.8,286.0 917.7,286.0 920.6,286.0 923.5,286.0 926.4,286.0 929.3,286.0 932.2,286.0 935.1,286.0 938.0,286.0"/><text x="42" y="308" font-size="11" fill="#5a688a">19/06 12:43</text><text x="938" y="308" text-anchor="end" font-size="11" fill="#5a688a">06/07 19:41</text></svg>