<svg xmlns="http://www.w3.org/2000/svg" viewBox="0 0 960 320" width="960" height="320" font-family="Segoe UI, system-ui, -apple-system, Roboto, Helvetica, Arial, sans-serif" role="img" aria-label="Availability history per region"><rect x="0.5" y="0.5" width="959" height="319" rx="14" fill="#ffffff" stroke="#dce3f1"/><text x="42" y="26" font-size="14" font-weight="600" fill="#14203a">History · 130 points</text><circle cx="47" cy="40" r="5" fill="#22c55e"/><text x="57" y="44" font-size="12" fill="#5a688a">Available</text><circle cx="139.8" cy="40" r="5" fill="#f59e0b"/><text x="149.8" y="44" font-size="12" fill="#5a688a">Saturated</text><circle cx="232.60000000000002" cy="40" r="5" fill="#ef4444"/><text x="242.60000000000002" y="44" font-size="12" fill="#5a688a">Error</text><circle cx="296.6" cy="40" r="5" fill="#a855f7"/><text x="306.6" y="44" font-size="12" fill="#5a688a">Timeout</text><line x1="42" y1="286.0" x2="938" y2="286.0" stroke="#eef2f7" stroke-width="1"/><text x="35" y="289.0" text-anchor="end" font-size="11" fill="#5a688a">0</text><line x1="42" y1="227.5" x2="938" y2="227.5" stroke="#eef2f7" stroke-width="1"/><text x="35" y="230.5" text-anchor="end" font-size="11" fill="#5a688a">10</text><line x1="42" y1="169.0" x2="938" y2="169.0" stroke="#eef2f7" stroke-width="1"/><text x="35" y="172.0" text-anchor="end" font-size="11" fill="#5a688a">19</text><line x1="42" y1="110.5" x2="938" y2="110.5" stroke="#eef2f7" stroke-width="1"/><text x="35" y="113.5" text-anchor="end" font-size="11" fill="#5a688a">28</text><line x1="42" y1="52.0" x2="938" y2="52.0" stroke="#eef2f7" stroke-width="1"/><text x="35" y="55.0" text-anchor="end" font-size="11" fill="#5a688a">38</text><polyline fill="none" stroke="#22c55e" stroke-width="2.5" stroke-linejoin="round" stroke-linecap="round" points="42.0,64.3 48.9,224.4 55.9,82.8 62.8,88.9 69.8,82.8 76.7,76.6 83.7,76.6 90.6,76.6 97.6,76.6 104.5,76.6 111.5,76.6 118.4,76.6 125.3,76.6 132.3,76.6 139.2,76.6 146.2,70.5 153.1,70.5 160.1,82.8 167.0,82.8 174.0,82.8 180.9,88.9 187.9,88.9 194.8,88.9 201.8,88.9 208.7,88.9 215.6,88.9 222.6,88.9 229.5,88.9 236.5,88.9 243.4,82.8 250.4,82.8 257.3,82.8 264.3,82.8 271.2,76.6 278.2,76.6 285.1,76.6 292.0,76.6 299.0,76.6 305.9,82.8 312.9,82.8 319.8,82.8 326.8,82.8 333.7,76.6 340.7,76.6 347.6,76.6 354.6,76.6 361.5,76.6 368.4,76.6 375.4,76.6 382.3,82.8 389.3,82.8 396.2,82.8 403.2,82.8 410.1,76.6 417.1,76.6 424.0,76.6 431.0,76.6 437.9,76.6 444.9,76.6 451.8,76.6 458.7,76.6 465.7,82.8 472.6,76.6 479.6,76.6 486.5,76.6 493.5,76.6 500.4,76.6 507.4,82.8 514.3,76.6 521.3,76.6 528.2,76.6 535.1,76.6 542.1,76.6 549.0,76.6 556.0,76.6 562.9,76.6 569.9,76.6 576.8,70.5 583.8,70.5 590.7,70.5 597.7,70.5 604.6,76.6 611.6,70.5 618.5,76.6 625.4,76.6 632.4,76.6 639.3,76.6 646.3,76.6 653.2,76.6 660.2,82.8 667.1,88.9 674.1,88.9 681.0,88.9 688.0,88.9 694.9,88.9 701.8,88.9 708.8,88.9 715.7,95.1 722.7,88.9 729.6,88.9 736.6,88.9 743.5,88.9 750.5,88.9 757.4,88.9 764.4,82.8 771.3,82.8 778.2,82.8 785.2,82.8 792.1,82.8 799.1,82.8 806.0,82.8 813.0,82.8 819.9,88.9 826.9,88.9 833.8,88.9 840.8,88.9 847.7,88.9 854.7,88.9 861.6,88.9 868.5,88.9 875.5,95.1 882.4,88.9 889.4,88.9 896.3,88.9 903.3,101.3 910.2,88.9 917.2,88.9 924.1,88.9 931.1,88.9 938.0,82.8"/><polyline fill="none" stroke="#f59e0b" stroke-width="2.5" stroke-linejoin="round" stroke-linecap="round" points="42.0,273.7 48.9,267.5 55.9,255.2 62.8,249.1 69.8,255.2 76.7,261.4 83.7,261.4 90.6,261.4 97.6,261.4 104.5,261.4 111.5,261.4 118.4,261.4 125.3,261.4 132.3,261.4 139.2,261.4 146.2,267.5 153.1,267.5 160.1,261.4 167.0,255.2 174.0,255.2 180.9,249.1 187.9,249.1 194.8,249.1 201.8,249.1 208.7,249.1 215.6,249.1 222.6,249.1 229.5,249.1 236.5,249.1 243.4,255.2 250.4,255.2 257.3,255.2 264.3,255.2 271.2,261.4 278.2,261.4 285.1,261.4 292.0,261.4 299.0,261.4 305.9,255.2 312.9,255.2 319.8,255.2 326.8,255.2 333.7,261.4 340.7,261.4 347.6,261.4 354.6,261.4 361.5,261.4 368.4,261.4 375.4,261.4 382.3,255.2 389.3,255.2 396.2,255.2 403.2,261.4 410.1,261.4 417.1,261.4 424.0,261.4 431.0,261.4 437.9,261.4 444.9,261.4 451.8,261.4 458.7,261.4 465.7,255.2 472.6,261.4 479.6,261.4 486.5,261.4 493.5,261.4 500.4,261.4 507.4,261.4 514.3,261.4 521.3,261.4 528.2,261.4 535.1,261.4 542.1,261.4 549.0,261.4 556.0,261.4 562.9,261.4 569.9,261.4 576.8,267.5 583.8,267.5 590.7,267.5 597.7,267.5 604.6,267.5 611.6,267.5 618.5,261.4 625.4,261.4 632.4,261.4 639.3,261.4 646.3,261.4 653.2,261.4 660.2,255.2 667.1,249.1 674.1,249.1 681.0,255.2 688.0,249.1 694.9,249.1 701.8,249.1 708.8,249.1 715.7,249.1 722.7,249.1 729.6,255.2 736.6,249.1 743.5,249.1 750.5,249.1 757.4,249.1 764.4,255.2 771.3,255.2 778.2,255.2 785.2,255.2 792.1,255.2 799.1,255.2 806.0,255.2 813.0,255.2 819.9,249.1 826.9,249.1 833.8,249.1 840.8,249.1 847.7,249.1 854.7,249.1 861.6,249.1 868.5,255.2 875.5,249.1 882.4,249.1 889.4,249.1 896.3,249.1 903.3,249.1 910.2,249.1 917.2,249.1 924.1,255.2 931.1,255.2 938.0,255.2"/><polyline fill="none" stroke="#ef4444" stroke-width="2.5" stroke-linejoin="round" stroke-linecap="round" points="42.0,286.0 48.9,132.1 55.9,286.0 62.8,286.0 69.8,286.0 76.7,286.0 83.7,286.0 90.6,286.0 97.6,286.0 104.5,286.0 111.5,286.0 118.4,286.0 125.3,286.0 132.3,286.0 139.2,286.0 146.2,286.0 153.1,286.0 160.1,279.8 167.0,286.0 174.0,286.0 180.9,286.0 187.9,286.0 194.8,286.0 201.8,286.0 208.7,286.0 215.6,286.0 222.6,286.0 229.5,286.0 236.5,286.0 243.4,286.0 250.4,286.0 257.3,286.0 264.3,286.0 271.2,286.0 278.2,286.0 285.1,286.0 292.0,286.0 299.0,286.0 305.9,286.0 312.9,286.0 319.8,286.0 326.8,286.0 333.7,286.0 340.7,286.0 347.6,286.0 354.6,286.0 361.5,286.0 368.4,286.0 375.4,286.0 382.3,286.0 389.3,286.0 396.2,286.0 403.2,286.0 410.1,286.0 417.1,286.0 424.0,286.0 431.0,286.0 437.9,286.0 444.9,286.0 451.8,286.0 458.7,286.0 465.7,286.0 472.6,286.0 479.6,286.0 486.5,286.0 493.5,286.0 500.4,286.0 507.4,279.8 514.3,286.0 521.3,286.0 528.2,286.0 535.1,286.0 542.1,286.0 549.0,286.0 556.0,286.0 562.9,286.0 569.9,286.0 576.8,286.0 583.8,286.0 590.7,286.0 597.7,286.0 604.6,279.8 611.6,286.0 618.5,286.0 625.4,286.0 632.4,286.0 639.3,286.0 646.3,286.0 653.2,286.0 660.2,286.0 667.1,286.0 674.1,286.0 681.0,279.8 688.0,286.0 694.9,286.0 701.8,286.0 708.8,286.0 715.7,279.8 722.7,286.0 729.6,286.0 736.6,286.0 743.5,286.0 750.5,286.0 757.4,286.0 764.4,286.0 771.3,286.0 778.2,286.0 785.2,286.0 792.1,286.0 799.1,286.0 806.0,286.0 813.0,286.0 819.9,286.0 826.9,286.0 833.8,286.0 840.8,286.0 847.7,286.0 854.7,286.0 861.6,286.0 868.5,286.0 875.5,279.8 882.4,286.0 889.4,286.0 896.3,286.0 903.3,273.7 910.2,286.0 917.2,286.0 924.1,279.8 931.1,279.8 938.0,286.0"/><polyline fill="none" stroke="#a855f7" stroke-width="2.5" stroke-linejoin="round" stroke-linecap="round" points="42.0,286.0 48.9,286.0 55.9,286.0 62.8,286.0 69.8,286.0 76.7,286.0 83.7,286.0 90.6,286.0 97.6,286.0 104.5,286.0 111.5,286.0 118.4,286.0 125.3,286.0 132.3,286.0 139.2,286.0 146.2,286.0 153.1,286.0 160.1,286.0 167.0,286.0 174.0,286.0 180.9,286.0 187.9,286.0 194.8,286.0 201.8,286.0 208.7,286.0 215.6,286.0 222.6,286.0 229.5,286.0 236.5,286.0 243.4,286.0 250.4,286.0 257.3,286.0 264.3,286.0 271.2,286.0 278.2,286.0 285.1,286.0 292.0,286.0 299.0,286.0 305.9,286.0 312.9,286.0 319.8,286.0 326.8,286.0 333.7,286.0 340.7,286.0 347.6,286.0 354.6,286.0 361.5,286.0 368.4,286.0 375.4,286.0 382.3,286.0 389.3,286.0 396.2,286.0 403.2,279.8 410.1,286.0 417.1,286.0 424.0,286.0 431.0,286.0 437.9,286.0 444.9,286.0 451.8,286.0 458.7,286.0 465.7,286.0 472.6,286.0 479.6,286.0 486.5,286.0 493.5,286.0 500.4,286.0 507.4,286.0 514.3,286.0 521.3,286.0 528.2,286.0 535.1,286.0 542.1,286.0 549.0,286.0 556.0,286.0 562.9,286.0 569.9,286.0 576.8,286.0 583.8,286.0 590.7,286.0 597.7,286.0 604.6,286.0 611.6,286.0 618.5,286.0 625.4,286.0 632.4,286.0 639.3,286.0 646.3,286.0 653.2,286.0 660.2,286.0 667.1,286.0 674.1,286.0 681.0,286.0 688.0,286.0 694.9,286.0 701.8,286.0 708.8,286.0 715.7,286.0 722.7,286.0 729.6,279.8 736.6,286.0 743.5,286.0 750.5,286.0 757.4,286.0 764.4,286.0 771.3,286.0 778.2,286.0 785.2,286.0 792.1,286.0 799.1,286.0 806.0,286.0 813.0,286.0 819.9,286.0 826.9,286.0 833.8,286.0 840.8,286.0 847.7,286.0 854.7,286.0 861.6,286.0 868.5,279.8 875.5,286.0 882.4,286.0 889.4,286.0 896.3,286.0 903.3,286.0 910.2,286.0 917.2,286.0 924.1,286.0 931.1,286.0 938.0,286.0"/><text x="42" y="308" font-size="11" fill="#5a688a">19/06 15:39</text><text x="938" y="308" text-anchor="end" font-size="11" fill="#5a688a">22/07 00:32</text></svg>