<svg xmlns="http://www.w3.org/2000/svg" viewBox="0 0 960 320" width="960" height="320" font-family="Segoe UI, system-ui, -apple-system, Roboto, Helvetica, Arial, sans-serif" role="img" aria-label="Availability history per region"><rect x="0.5" y="0.5" width="959" height="319" rx="14" fill="#0d1117" stroke="#2c3a5e"/><text x="42" y="26" font-size="14" font-weight="600" fill="#e6ecff">History · 289 points</text><circle cx="47" cy="40" r="5" fill="#22c55e"/><text x="57" y="44" font-size="12" fill="#9fb0d4">Available</text><circle cx="139.8" cy="40" r="5" fill="#f59e0b"/><text x="149.8" y="44" font-size="12" fill="#9fb0d4">Saturated</text><circle cx="232.60000000000002" cy="40" r="5" fill="#ef4444"/><text x="242.60000000000002" y="44" font-size="12" fill="#9fb0d4">Error</text><circle cx="296.6" cy="40" r="5" fill="#a855f7"/><text x="306.6" y="44" font-size="12" fill="#9fb0d4">Timeout</text><line x1="42" y1="286.0" x2="938" y2="286.0" stroke="#21304f" stroke-width="1"/><text x="35" y="289.0" text-anchor="end" font-size="11" fill="#9fb0d4">0</text><line x1="42" y1="227.5" x2="938" y2="227.5" stroke="#21304f" stroke-width="1"/><text x="35" y="230.5" text-anchor="end" font-size="11" fill="#9fb0d4">10</text><line x1="42" y1="169.0" x2="938" y2="169.0" stroke="#21304f" stroke-width="1"/><text x="35" y="172.0" text-anchor="end" font-size="11" fill="#9fb0d4">20</text><line x1="42" y1="110.5" x2="938" y2="110.5" stroke="#21304f" stroke-width="1"/><text x="35" y="113.5" text-anchor="end" font-size="11" fill="#9fb0d4">29</text><line x1="42" y1="52.0" x2="938" y2="52.0" stroke="#21304f" stroke-width="1"/><text x="35" y="55.0" text-anchor="end" font-size="11" fill="#9fb0d4">39</text><polyline fill="none" stroke="#22c55e" stroke-width="2.5" stroke-linejoin="round" stroke-linecap="round" points="42.0,70.0 45.1,70.0 48.2,88.0 51.3,88.0 54.4,76.0 57.6,76.0 60.7,76.0 63.8,70.0 66.9,76.0 70.0,70.0 73.1,64.0 76.2,58.0 79.3,58.0 82.4,58.0 85.6,58.0 88.7,58.0 91.8,58.0 94.9,58.0 98.0,58.0 101.1,58.0 104.2,58.0 107.3,58.0 110.4,58.0 113.6,58.0 116.7,58.0 119.8,58.0 122.9,58.0 126.0,58.0 129.1,58.0 132.2,58.0 135.3,58.0 138.4,70.0 141.6,76.0 144.7,94.0 147.8,64.0 150.9,64.0 154.0,58.0 157.1,58.0 160.2,58.0 163.3,70.0 166.4,76.0 169.6,76.0 172.7,82.0 175.8,82.0 178.9,82.0 182.0,82.0 185.1,76.0 188.2,64.0 191.3,70.0 194.4,70.0 197.6,82.0 200.7,76.0 203.8,76.0 206.9,82.0 210.0,76.0 213.1,76.0 216.2,76.0 219.3,64.0 222.4,64.0 225.6,76.0 228.7,76.0 231.8,76.0 234.9,88.0 238.0,70.0 241.1,64.0 244.2,58.0 247.3,58.0 250.4,70.0 253.6,70.0 256.7,70.0 259.8,76.0 262.9,70.0 266.0,70.0 269.1,70.0 272.2,70.0 275.3,76.0 278.4,82.0 281.6,76.0 284.7,70.0 287.8,70.0 290.9,70.0 294.0,70.0 297.1,76.0 300.2,70.0 303.3,70.0 306.4,70.0 309.6,70.0 312.7,70.0 315.8,70.0 318.9,70.0 322.0,70.0 325.1,70.0 328.2,70.0 331.3,70.0 334.4,70.0 337.6,70.0 340.7,70.0 343.8,70.0 346.9,70.0 350.0,70.0 353.1,70.0 356.2,70.0 359.3,70.0 362.4,70.0 365.6,70.0 368.7,70.0 371.8,70.0 374.9,70.0 378.0,70.0 381.1,70.0 384.2,70.0 387.3,70.0 390.4,70.0 393.6,70.0 396.7,70.0 399.8,70.0 402.9,70.0 406.0,70.0 409.1,70.0 412.2,70.0 415.3,70.0 418.4,70.0 421.6,70.0 424.7,70.0 427.8,70.0 430.9,70.0 434.0,70.0 437.1,70.0 440.2,70.0 443.3,70.0 446.4,70.0 449.6,70.0 452.7,70.0 455.8,70.0 458.9,70.0 462.0,70.0 465.1,70.0 468.2,70.0 471.3,70.0 474.4,70.0 477.6,70.0 480.7,70.0 483.8,70.0 486.9,70.0 490.0,70.0 493.1,70.0 496.2,70.0 499.3,70.0 502.4,70.0 505.6,70.0 508.7,70.0 511.8,76.0 514.9,70.0 518.0,70.0 521.1,70.0 524.2,70.0 527.3,70.0 530.4,76.0 533.6,76.0 536.7,88.0 539.8,88.0 542.9,88.0 546.0,94.0 549.1,94.0 552.2,94.0 555.3,94.0 558.4,88.0 561.6,88.0 564.7,82.0 567.8,82.0 570.9,82.0 574.0,88.0 577.1,88.0 580.2,94.0 583.3,82.0 586.4,82.0 589.6,82.0 592.7,82.0 595.8,88.0 598.9,88.0 602.0,94.0 605.1,94.0 608.2,88.0 611.3,88.0 614.4,88.0 617.6,94.0 620.7,94.0 623.8,106.0 626.9,94.0 630.0,94.0 633.1,94.0 636.2,94.0 639.3,88.0 642.4,88.0 645.6,82.0 648.7,76.0 651.8,76.0 654.9,76.0 658.0,76.0 661.1,76.0 664.2,76.0 667.3,70.0 670.4,70.0 673.6,70.0 676.7,76.0 679.8,88.0 682.9,82.0 686.0,70.0 689.1,70.0 692.2,70.0 695.3,76.0 698.4,76.0 701.6,76.0 704.7,82.0 707.8,70.0 710.9,76.0 714.0,64.0 717.1,70.0 720.2,58.0 723.3,58.0 726.4,58.0 729.6,58.0 732.7,58.0 735.8,64.0 738.9,58.0 742.0,64.0 745.1,58.0 748.2,58.0 751.3,58.0 754.4,58.0 757.6,64.0 760.7,64.0 763.8,64.0 766.9,76.0 770.0,70.0 773.1,82.0 776.2,70.0 779.3,76.0 782.4,58.0 785.6,64.0 788.7,58.0 791.8,64.0 794.9,58.0 798.0,58.0 801.1,58.0 804.2,64.0 807.3,70.0 810.4,64.0 813.6,64.0 816.7,64.0 819.8,70.0 822.9,70.0 826.0,64.0 829.1,70.0 832.2,70.0 835.3,70.0 838.4,58.0 841.6,58.0 844.7,58.0 847.8,58.0 850.9,58.0 854.0,64.0 857.1,58.0 860.2,58.0 863.3,58.0 866.4,58.0 869.6,58.0 872.7,58.0 875.8,58.0 878.9,58.0 882.0,64.0 885.1,58.0 888.2,58.0 891.3,58.0 894.4,58.0 897.6,58.0 900.7,58.0 903.8,58.0 906.9,64.0 910.0,58.0 913.1,58.0 916.2,58.0 919.3,58.0 922.4,58.0 925.6,58.0 928.7,58.0 931.8,58.0 934.9,58.0 938.0,58.0"/><polyline fill="none" stroke="#f59e0b" stroke-width="2.5" stroke-linejoin="round" stroke-linecap="round" points="42.0,274.0 45.1,274.0 48.2,274.0 51.3,280.0 54.4,268.0 57.6,268.0 60.7,268.0 63.8,274.0 66.9,274.0 70.0,274.0 73.1,280.0 76.2,286.0 79.3,286.0 82.4,286.0 85.6,286.0 88.7,286.0 91.8,286.0 94.9,286.0 98.0,286.0 101.1,286.0 104.2,286.0 107.3,286.0 110.4,286.0 113.6,286.0 116.7,286.0 119.8,286.0 122.9,286.0 126.0,286.0 129.1,286.0 132.2,286.0 135.3,286.0 138.4,274.0 141.6,280.0 144.7,280.0 147.8,280.0 150.9,280.0 154.0,286.0 157.1,286.0 160.2,286.0 163.3,274.0 166.4,268.0 169.6,268.0 172.7,262.0 175.8,262.0 178.9,262.0 182.0,262.0 185.1,268.0 188.2,280.0 191.3,280.0 194.4,274.0 197.6,262.0 200.7,268.0 203.8,268.0 206.9,262.0 210.0,268.0 213.1,268.0 216.2,268.0 219.3,280.0 222.4,280.0 225.6,268.0 228.7,268.0 231.8,268.0 234.9,262.0 238.0,274.0 241.1,280.0 244.2,286.0 247.3,286.0 250.4,274.0 253.6,274.0 256.7,274.0 259.8,274.0 262.9,274.0 266.0,274.0 269.1,274.0 272.2,274.0 275.3,280.0 278.4,274.0 281.6,280.0 284.7,286.0 287.8,286.0 290.9,286.0 294.0,286.0 297.1,280.0 300.2,286.0 303.3,286.0 306.4,286.0 309.6,286.0 312.7,286.0 315.8,286.0 318.9,286.0 322.0,286.0 325.1,286.0 328.2,286.0 331.3,286.0 334.4,286.0 337.6,286.0 340.7,286.0 343.8,286.0 346.9,286.0 350.0,286.0 353.1,286.0 356.2,286.0 359.3,286.0 362.4,286.0 365.6,286.0 368.7,286.0 371.8,286.0 374.9,286.0 378.0,286.0 381.1,286.0 384.2,286.0 387.3,286.0 390.4,286.0 393.6,286.0 396.7,286.0 399.8,286.0 402.9,286.0 406.0,286.0 409.1,286.0 412.2,286.0 415.3,286.0 418.4,286.0 421.6,286.0 424.7,286.0 427.8,286.0 430.9,286.0 434.0,286.0 437.1,286.0 440.2,286.0 443.3,286.0 446.4,286.0 449.6,286.0 452.7,286.0 455.8,286.0 458.9,286.0 462.0,286.0 465.1,286.0 468.2,286.0 471.3,286.0 474.4,286.0 477.6,286.0 480.7,286.0 483.8,286.0 486.9,286.0 490.0,286.0 493.1,286.0 496.2,286.0 499.3,286.0 502.4,286.0 505.6,286.0 508.7,286.0 511.8,286.0 514.9,286.0 518.0,286.0 521.1,286.0 524.2,286.0 527.3,286.0 530.4,286.0 533.6,280.0 536.7,268.0 539.8,268.0 542.9,268.0 546.0,268.0 549.1,262.0 552.2,262.0 555.3,262.0 558.4,268.0 561.6,268.0 564.7,274.0 567.8,274.0 570.9,274.0 574.0,268.0 577.1,268.0 580.2,268.0 583.3,274.0 586.4,274.0 589.6,274.0 592.7,274.0 595.8,268.0 598.9,268.0 602.0,262.0 605.1,262.0 608.2,268.0 611.3,268.0 614.4,268.0 617.6,262.0 620.7,262.0 623.8,274.0 626.9,262.0 630.0,262.0 633.1,262.0 636.2,262.0 639.3,268.0 642.4,268.0 645.6,274.0 648.7,280.0 651.8,280.0 654.9,280.0 658.0,280.0 661.1,280.0 664.2,280.0 667.3,286.0 670.4,286.0 673.6,286.0 676.7,280.0 679.8,274.0 682.9,274.0 686.0,280.0 689.1,274.0 692.2,274.0 695.3,268.0 698.4,268.0 701.6,268.0 704.7,268.0 707.8,280.0 710.9,274.0 714.0,280.0 717.1,280.0 720.2,286.0 723.3,286.0 726.4,286.0 729.6,286.0 732.7,286.0 735.8,286.0 738.9,286.0 742.0,286.0 745.1,286.0 748.2,286.0 751.3,286.0 754.4,286.0 757.6,280.0 760.7,280.0 763.8,280.0 766.9,268.0 770.0,280.0 773.1,268.0 776.2,274.0 779.3,274.0 782.4,286.0 785.6,280.0 788.7,286.0 791.8,280.0 794.9,286.0 798.0,286.0 801.1,286.0 804.2,280.0 807.3,274.0 810.4,280.0 813.6,280.0 816.7,280.0 819.8,274.0 822.9,274.0 826.0,280.0 829.1,280.0 832.2,280.0 835.3,280.0 838.4,286.0 841.6,286.0 844.7,286.0 847.8,286.0 850.9,286.0 854.0,286.0 857.1,286.0 860.2,286.0 863.3,286.0 866.4,286.0 869.6,286.0 872.7,286.0 875.8,286.0 878.9,286.0 882.0,286.0 885.1,286.0 888.2,286.0 891.3,286.0 894.4,286.0 897.6,286.0 900.7,286.0 903.8,286.0 906.9,286.0 910.0,286.0 913.1,286.0 916.2,286.0 919.3,286.0 922.4,286.0 925.6,286.0 928.7,286.0 931.8,286.0 934.9,286.0 938.0,286.0"/><polyline fill="none" stroke="#ef4444" stroke-width="2.5" stroke-linejoin="round" stroke-linecap="round" points="42.0,280.0 45.1,280.0 48.2,268.0 51.3,262.0 54.4,286.0 57.6,286.0 60.7,286.0 63.8,286.0 66.9,280.0 70.0,286.0 73.1,286.0 76.2,286.0 79.3,286.0 82.4,286.0 85.6,286.0 88.7,286.0 91.8,286.0 94.9,286.0 98.0,286.0 101.1,286.0 104.2,286.0 107.3,286.0 110.4,286.0 113.6,286.0 116.7,286.0 119.8,286.0 122.9,286.0 126.0,286.0 129.1,286.0 132.2,286.0 135.3,286.0 138.4,286.0 141.6,274.0 144.7,256.0 147.8,286.0 150.9,286.0 154.0,286.0 157.1,286.0 160.2,286.0 163.3,286.0 166.4,286.0 169.6,286.0 172.7,286.0 175.8,286.0 178.9,286.0 182.0,286.0 185.1,286.0 188.2,286.0 191.3,280.0 194.4,286.0 197.6,286.0 200.7,286.0 203.8,286.0 206.9,286.0 210.0,286.0 213.1,286.0 216.2,286.0 219.3,286.0 222.4,286.0 225.6,286.0 228.7,286.0 231.8,286.0 234.9,280.0 238.0,286.0 241.1,286.0 244.2,286.0 247.3,286.0 250.4,286.0 253.6,286.0 256.7,286.0 259.8,286.0 262.9,286.0 266.0,286.0 269.1,286.0 272.2,286.0 275.3,274.0 278.4,274.0 281.6,274.0 284.7,274.0 287.8,274.0 290.9,274.0 294.0,274.0 297.1,274.0 300.2,274.0 303.3,274.0 306.4,274.0 309.6,274.0 312.7,274.0 315.8,274.0 318.9,274.0 322.0,274.0 325.1,274.0 328.2,274.0 331.3,274.0 334.4,274.0 337.6,274.0 340.7,274.0 343.8,274.0 346.9,274.0 350.0,274.0 353.1,274.0 356.2,274.0 359.3,274.0 362.4,274.0 365.6,274.0 368.7,274.0 371.8,274.0 374.9,274.0 378.0,274.0 381.1,274.0 384.2,274.0 387.3,274.0 390.4,274.0 393.6,274.0 396.7,274.0 399.8,274.0 402.9,274.0 406.0,274.0 409.1,274.0 412.2,274.0 415.3,274.0 418.4,274.0 421.6,274.0 424.7,274.0 427.8,274.0 430.9,274.0 434.0,274.0 437.1,274.0 440.2,274.0 443.3,274.0 446.4,274.0 449.6,274.0 452.7,274.0 455.8,274.0 458.9,274.0 462.0,274.0 465.1,274.0 468.2,274.0 471.3,274.0 474.4,274.0 477.6,274.0 480.7,274.0 483.8,274.0 486.9,274.0 490.0,274.0 493.1,274.0 496.2,274.0 499.3,274.0 502.4,274.0 505.6,274.0 508.7,274.0 511.8,268.0 514.9,274.0 518.0,274.0 521.1,274.0 524.2,274.0 527.3,274.0 530.4,274.0 533.6,274.0 536.7,274.0 539.8,274.0 542.9,274.0 546.0,268.0 549.1,274.0 552.2,274.0 555.3,274.0 558.4,274.0 561.6,274.0 564.7,274.0 567.8,274.0 570.9,274.0 574.0,274.0 577.1,274.0 580.2,268.0 583.3,274.0 586.4,274.0 589.6,274.0 592.7,274.0 595.8,274.0 598.9,274.0 602.0,274.0 605.1,274.0 608.2,274.0 611.3,274.0 614.4,274.0 617.6,274.0 620.7,274.0 623.8,250.0 626.9,274.0 630.0,274.0 633.1,274.0 636.2,274.0 639.3,274.0 642.4,274.0 645.6,274.0 648.7,274.0 651.8,274.0 654.9,274.0 658.0,274.0 661.1,274.0 664.2,274.0 667.3,274.0 670.4,274.0 673.6,274.0 676.7,274.0 679.8,268.0 682.9,274.0 686.0,280.0 689.1,286.0 692.2,286.0 695.3,286.0 698.4,286.0 701.6,286.0 704.7,280.0 707.8,280.0 710.9,286.0 714.0,286.0 717.1,280.0 720.2,286.0 723.3,286.0 726.4,286.0 729.6,286.0 732.7,286.0 735.8,280.0 738.9,286.0 742.0,286.0 745.1,286.0 748.2,286.0 751.3,286.0 754.4,286.0 757.6,286.0 760.7,286.0 763.8,286.0 766.9,286.0 770.0,280.0 773.1,280.0 776.2,286.0 779.3,280.0 782.4,286.0 785.6,286.0 788.7,286.0 791.8,286.0 794.9,286.0 798.0,286.0 801.1,286.0 804.2,286.0 807.3,286.0 810.4,286.0 813.6,286.0 816.7,286.0 819.8,286.0 822.9,286.0 826.0,286.0 829.1,280.0 832.2,286.0 835.3,280.0 838.4,286.0 841.6,286.0 844.7,286.0 847.8,286.0 850.9,286.0 854.0,286.0 857.1,286.0 860.2,286.0 863.3,286.0 866.4,286.0 869.6,286.0 872.7,286.0 875.8,286.0 878.9,286.0 882.0,280.0 885.1,286.0 888.2,286.0 891.3,286.0 894.4,286.0 897.6,286.0 900.7,286.0 903.8,286.0 906.9,286.0 910.0,286.0 913.1,286.0 916.2,286.0 919.3,286.0 922.4,286.0 925.6,286.0 928.7,286.0 931.8,286.0 934.9,286.0 938.0,286.0"/><polyline fill="none" stroke="#a855f7" stroke-width="2.5" stroke-linejoin="round" stroke-linecap="round" points="42.0,286.0 45.1,286.0 48.2,286.0 51.3,286.0 54.4,286.0 57.6,286.0 60.7,286.0 63.8,286.0 66.9,286.0 70.0,286.0 73.1,286.0 76.2,286.0 79.3,286.0 82.4,286.0 85.6,286.0 88.7,286.0 91.8,286.0 94.9,286.0 98.0,286.0 101.1,286.0 104.2,286.0 107.3,286.0 110.4,286.0 113.6,286.0 116.7,286.0 119.8,286.0 122.9,286.0 126.0,286.0 129.1,286.0 132.2,286.0 135.3,286.0 138.4,286.0 141.6,286.0 144.7,286.0 147.8,286.0 150.9,286.0 154.0,286.0 157.1,286.0 160.2,286.0 163.3,286.0 166.4,286.0 169.6,286.0 172.7,286.0 175.8,286.0 178.9,286.0 182.0,286.0 185.1,286.0 188.2,286.0 191.3,286.0 194.4,286.0 197.6,286.0 200.7,286.0 203.8,286.0 206.9,286.0 210.0,286.0 213.1,286.0 216.2,286.0 219.3,286.0 222.4,286.0 225.6,286.0 228.7,286.0 231.8,286.0 234.9,286.0 238.0,286.0 241.1,286.0 244.2,286.0 247.3,286.0 250.4,286.0 253.6,286.0 256.7,286.0 259.8,280.0 262.9,286.0 266.0,286.0 269.1,286.0 272.2,286.0 275.3,286.0 278.4,286.0 281.6,286.0 284.7,286.0 287.8,286.0 290.9,286.0 294.0,286.0 297.1,286.0 300.2,286.0 303.3,286.0 306.4,286.0 309.6,286.0 312.7,286.0 315.8,286.0 318.9,286.0 322.0,286.0 325.1,286.0 328.2,286.0 331.3,286.0 334.4,286.0 337.6,286.0 340.7,286.0 343.8,286.0 346.9,286.0 350.0,286.0 353.1,286.0 356.2,286.0 359.3,286.0 362.4,286.0 365.6,286.0 368.7,286.0 371.8,286.0 374.9,286.0 378.0,286.0 381.1,286.0 384.2,286.0 387.3,286.0 390.4,286.0 393.6,286.0 396.7,286.0 399.8,286.0 402.9,286.0 406.0,286.0 409.1,286.0 412.2,286.0 415.3,286.0 418.4,286.0 421.6,286.0 424.7,286.0 427.8,286.0 430.9,286.0 434.0,286.0 437.1,286.0 440.2,286.0 443.3,286.0 446.4,286.0 449.6,286.0 452.7,286.0 455.8,286.0 458.9,286.0 462.0,286.0 465.1,286.0 468.2,286.0 471.3,286.0 474.4,286.0 477.6,286.0 480.7,286.0 483.8,286.0 486.9,286.0 490.0,286.0 493.1,286.0 496.2,286.0 499.3,286.0 502.4,286.0 505.6,286.0 508.7,286.0 511.8,286.0 514.9,286.0 518.0,286.0 521.1,286.0 524.2,286.0 527.3,286.0 530.4,280.0 533.6,286.0 536.7,286.0 539.8,286.0 542.9,286.0 546.0,286.0 549.1,286.0 552.2,286.0 555.3,286.0 558.4,286.0 561.6,286.0 564.7,286.0 567.8,286.0 570.9,286.0 574.0,286.0 577.1,286.0 580.2,286.0 583.3,286.0 586.4,286.0 589.6,286.0 592.7,286.0 595.8,286.0 598.9,286.0 602.0,286.0 605.1,286.0 608.2,286.0 611.3,286.0 614.4,286.0 617.6,286.0 620.7,286.0 623.8,286.0 626.9,286.0 630.0,286.0 633.1,286.0 636.2,286.0 639.3,286.0 642.4,286.0 645.6,286.0 648.7,286.0 651.8,286.0 654.9,286.0 658.0,286.0 661.1,286.0 664.2,286.0 667.3,286.0 670.4,286.0 673.6,286.0 676.7,286.0 679.8,286.0 682.9,286.0 686.0,286.0 689.1,286.0 692.2,286.0 695.3,286.0 698.4,286.0 701.6,286.0 704.7,286.0 707.8,286.0 710.9,280.0 714.0,286.0 717.1,286.0 720.2,286.0 723.3,286.0 726.4,286.0 729.6,286.0 732.7,286.0 735.8,286.0 738.9,286.0 742.0,280.0 745.1,286.0 748.2,286.0 751.3,286.0 754.4,286.0 757.6,286.0 760.7,286.0 763.8,286.0 766.9,286.0 770.0,286.0 773.1,286.0 776.2,286.0 779.3,286.0 782.4,286.0 785.6,286.0 788.7,286.0 791.8,286.0 794.9,286.0 798.0,286.0 801.1,286.0 804.2,286.0 807.3,286.0 810.4,286.0 813.6,286.0 816.7,286.0 819.8,286.0 822.9,286.0 826.0,286.0 829.1,286.0 832.2,280.0 835.3,286.0 838.4,286.0 841.6,286.0 844.7,286.0 847.8,286.0 850.9,286.0 854.0,280.0 857.1,286.0 860.2,286.0 863.3,286.0 866.4,286.0 869.6,286.0 872.7,286.0 875.8,286.0 878.9,286.0 882.0,286.0 885.1,286.0 888.2,286.0 891.3,286.0 894.4,286.0 897.6,286.0 900.7,286.0 903.8,286.0 906.9,280.0 910.0,286.0 913.1,286.0 916.2,286.0 919.3,286.0 922.4,286.0 925.6,286.0 928.7,286.0 931.8,286.0 934.9,286.0 938.0,286.0"/><text x="42" y="308" font-size="11" fill="#9fb0d4">19/06 12:43</text><text x="938" y="308" text-anchor="end" font-size="11" fill="#9fb0d4">05/07 15:30</text></svg>