<svg xmlns="http://www.w3.org/2000/svg" viewBox="0 0 960 320" width="960" height="320" font-family="Segoe UI, system-ui, -apple-system, Roboto, Helvetica, Arial, sans-serif" role="img" aria-label="Availability history per region"><rect x="0.5" y="0.5" width="959" height="319" rx="14" fill="#ffffff" stroke="#dce3f1"/><text x="42" y="26" font-size="14" font-weight="600" fill="#14203a">History · 39 points</text><circle cx="47" cy="40" r="5" fill="#22c55e"/><text x="57" y="44" font-size="12" fill="#5a688a">Available</text><circle cx="139.8" cy="40" r="5" fill="#f59e0b"/><text x="149.8" y="44" font-size="12" fill="#5a688a">Saturated</text><circle cx="232.60000000000002" cy="40" r="5" fill="#ef4444"/><text x="242.60000000000002" y="44" font-size="12" fill="#5a688a">Error</text><line x1="42" y1="286.0" x2="938" y2="286.0" stroke="#eef2f7" stroke-width="1"/><text x="35" y="289.0" text-anchor="end" font-size="11" fill="#5a688a">0</text><line x1="42" y1="227.5" x2="938" y2="227.5" stroke="#eef2f7" stroke-width="1"/><text x="35" y="230.5" text-anchor="end" font-size="11" fill="#5a688a">10</text><line x1="42" y1="169.0" x2="938" y2="169.0" stroke="#eef2f7" stroke-width="1"/><text x="35" y="172.0" text-anchor="end" font-size="11" fill="#5a688a">19</text><line x1="42" y1="110.5" x2="938" y2="110.5" stroke="#eef2f7" stroke-width="1"/><text x="35" y="113.5" text-anchor="end" font-size="11" fill="#5a688a">28</text><line x1="42" y1="52.0" x2="938" y2="52.0" stroke="#eef2f7" stroke-width="1"/><text x="35" y="55.0" text-anchor="end" font-size="11" fill="#5a688a">38</text><polyline fill="none" stroke="#22c55e" stroke-width="2.5" stroke-linejoin="round" stroke-linecap="round" points="42.0,64.3 65.6,224.4 89.2,82.8 112.7,88.9 136.3,82.8 159.9,76.6 183.5,76.6 207.1,76.6 230.6,76.6 254.2,76.6 277.8,76.6 301.4,76.6 324.9,76.6 348.5,76.6 372.1,76.6 395.7,70.5 419.3,70.5 442.8,82.8 466.4,82.8 490.0,82.8 513.6,88.9 537.2,88.9 560.7,88.9 584.3,88.9 607.9,88.9 631.5,88.9 655.1,88.9 678.6,88.9 702.2,88.9 725.8,82.8 749.4,82.8 772.9,82.8 796.5,82.8 820.1,76.6 843.7,76.6 867.3,76.6 890.8,76.6 914.4,76.6 938.0,82.8"/><circle cx="42.0" cy="64.3" r="2.5" fill="#22c55e"/><circle cx="65.6" cy="224.4" r="2.5" fill="#22c55e"/><circle cx="89.2" cy="82.8" r="2.5" fill="#22c55e"/><circle cx="112.7" cy="88.9" r="2.5" fill="#22c55e"/><circle cx="136.3" cy="82.8" r="2.5" fill="#22c55e"/><circle cx="159.9" cy="76.6" r="2.5" fill="#22c55e"/><circle cx="183.5" cy="76.6" r="2.5" fill="#22c55e"/><circle cx="207.1" cy="76.6" r="2.5" fill="#22c55e"/><circle cx="230.6" cy="76.6" r="2.5" fill="#22c55e"/><circle cx="254.2" cy="76.6" r="2.5" fill="#22c55e"/><circle cx="277.8" cy="76.6" r="2.5" fill="#22c55e"/><circle cx="301.4" cy="76.6" r="2.5" fill="#22c55e"/><circle cx="324.9" cy="76.6" r="2.5" fill="#22c55e"/><circle cx="348.5" cy="76.6" r="2.5" fill="#22c55e"/><circle cx="372.1" cy="76.6" r="2.5" fill="#22c55e"/><circle cx="395.7" cy="70.5" r="2.5" fill="#22c55e"/><circle cx="419.3" cy="70.5" r="2.5" fill="#22c55e"/><circle cx="442.8" cy="82.8" r="2.5" fill="#22c55e"/><circle cx="466.4" cy="82.8" r="2.5" fill="#22c55e"/><circle cx="490.0" cy="82.8" r="2.5" fill="#22c55e"/><circle cx="513.6" cy="88.9" r="2.5" fill="#22c55e"/><circle cx="537.2" cy="88.9" r="2.5" fill="#22c55e"/><circle cx="560.7" cy="88.9" r="2.5" fill="#22c55e"/><circle cx="584.3" cy="88.9" r="2.5" fill="#22c55e"/><circle cx="607.9" cy="88.9" r="2.5" fill="#22c55e"/><circle cx="631.5" cy="88.9" r="2.5" fill="#22c55e"/><circle cx="655.1" cy="88.9" r="2.5" fill="#22c55e"/><circle cx="678.6" cy="88.9" r="2.5" fill="#22c55e"/><circle cx="702.2" cy="88.9" r="2.5" fill="#22c55e"/><circle cx="725.8" cy="82.8" r="2.5" fill="#22c55e"/><circle cx="749.4" cy="82.8" r="2.5" fill="#22c55e"/><circle cx="772.9" cy="82.8" r="2.5" fill="#22c55e"/><circle cx="796.5" cy="82.8" r="2.5" fill="#22c55e"/><circle cx="820.1" cy="76.6" r="2.5" fill="#22c55e"/><circle cx="843.7" cy="76.6" r="2.5" fill="#22c55e"/><circle cx="867.3" cy="76.6" r="2.5" fill="#22c55e"/><circle cx="890.8" cy="76.6" r="2.5" fill="#22c55e"/><circle cx="914.4" cy="76.6" r="2.5" fill="#22c55e"/><circle cx="938.0" cy="82.8" r="2.5" fill="#22c55e"/><polyline fill="none" stroke="#f59e0b" stroke-width="2.5" stroke-linejoin="round" stroke-linecap="round" points="42.0,273.7 65.6,267.5 89.2,255.2 112.7,249.1 136.3,255.2 159.9,261.4 183.5,261.4 207.1,261.4 230.6,261.4 254.2,261.4 277.8,261.4 301.4,261.4 324.9,261.4 348.5,261.4 372.1,261.4 395.7,267.5 419.3,267.5 442.8,261.4 466.4,255.2 490.0,255.2 513.6,249.1 537.2,249.1 560.7,249.1 584.3,249.1 607.9,249.1 631.5,249.1 655.1,249.1 678.6,249.1 702.2,249.1 725.8,255.2 749.4,255.2 772.9,255.2 796.5,255.2 820.1,261.4 843.7,261.4 867.3,261.4 890.8,261.4 914.4,261.4 938.0,255.2"/><circle cx="42.0" cy="273.7" r="2.5" fill="#f59e0b"/><circle cx="65.6" cy="267.5" r="2.5" fill="#f59e0b"/><circle cx="89.2" cy="255.2" r="2.5" fill="#f59e0b"/><circle cx="112.7" cy="249.1" r="2.5" fill="#f59e0b"/><circle cx="136.3" cy="255.2" r="2.5" fill="#f59e0b"/><circle cx="159.9" cy="261.4" r="2.5" fill="#f59e0b"/><circle cx="183.5" cy="261.4" r="2.5" fill="#f59e0b"/><circle cx="207.1" cy="261.4" r="2.5" fill="#f59e0b"/><circle cx="230.6" cy="261.4" r="2.5" fill="#f59e0b"/><circle cx="254.2" cy="261.4" r="2.5" fill="#f59e0b"/><circle cx="277.8" cy="261.4" r="2.5" fill="#f59e0b"/><circle cx="301.4" cy="261.4" r="2.5" fill="#f59e0b"/><circle cx="324.9" cy="261.4" r="2.5" fill="#f59e0b"/><circle cx="348.5" cy="261.4" r="2.5" fill="#f59e0b"/><circle cx="372.1" cy="261.4" r="2.5" fill="#f59e0b"/><circle cx="395.7" cy="267.5" r="2.5" fill="#f59e0b"/><circle cx="419.3" cy="267.5" r="2.5" fill="#f59e0b"/><circle cx="442.8" cy="261.4" r="2.5" fill="#f59e0b"/><circle cx="466.4" cy="255.2" r="2.5" fill="#f59e0b"/><circle cx="490.0" cy="255.2" r="2.5" fill="#f59e0b"/><circle cx="513.6" cy="249.1" r="2.5" fill="#f59e0b"/><circle cx="537.2" cy="249.1" r="2.5" fill="#f59e0b"/><circle cx="560.7" cy="249.1" r="2.5" fill="#f59e0b"/><circle cx="584.3" cy="249.1" r="2.5" fill="#f59e0b"/><circle cx="607.9" cy="249.1" r="2.5" fill="#f59e0b"/><circle cx="631.5" cy="249.1" r="2.5" fill="#f59e0b"/><circle cx="655.1" cy="249.1" r="2.5" fill="#f59e0b"/><circle cx="678.6" cy="249.1" r="2.5" fill="#f59e0b"/><circle cx="702.2" cy="249.1" r="2.5" fill="#f59e0b"/><circle cx="725.8" cy="255.2" r="2.5" fill="#f59e0b"/><circle cx="749.4" cy="255.2" r="2.5" fill="#f59e0b"/><circle cx="772.9" cy="255.2" r="2.5" fill="#f59e0b"/><circle cx="796.5" cy="255.2" r="2.5" fill="#f59e0b"/><circle cx="820.1" cy="261.4" r="2.5" fill="#f59e0b"/><circle cx="843.7" cy="261.4" r="2.5" fill="#f59e0b"/><circle cx="867.3" cy="261.4" r="2.5" fill="#f59e0b"/><circle cx="890.8" cy="261.4" r="2.5" fill="#f59e0b"/><circle cx="914.4" cy="261.4" r="2.5" fill="#f59e0b"/><circle cx="938.0" cy="255.2" r="2.5" fill="#f59e0b"/><polyline fill="none" stroke="#ef4444" stroke-width="2.5" stroke-linejoin="round" stroke-linecap="round" points="42.0,286.0 65.6,132.1 89.2,286.0 112.7,286.0 136.3,286.0 159.9,286.0 183.5,286.0 207.1,286.0 230.6,286.0 254.2,286.0 277.8,286.0 301.4,286.0 324.9,286.0 348.5,286.0 372.1,286.0 395.7,286.0 419.3,286.0 442.8,279.8 466.4,286.0 490.0,286.0 513.6,286.0 537.2,286.0 560.7,286.0 584.3,286.0 607.9,286.0 631.5,286.0 655.1,286.0 678.6,286.0 702.2,286.0 725.8,286.0 749.4,286.0 772.9,286.0 796.5,286.0 820.1,286.0 843.7,286.0 867.3,286.0 890.8,286.0 914.4,286.0 938.0,286.0"/><circle cx="42.0" cy="286.0" r="2.5" fill="#ef4444"/><circle cx="65.6" cy="132.1" r="2.5" fill="#ef4444"/><circle cx="89.2" cy="286.0" r="2.5" fill="#ef4444"/><circle cx="112.7" cy="286.0" r="2.5" fill="#ef4444"/><circle cx="136.3" cy="286.0" r="2.5" fill="#ef4444"/><circle cx="159.9" cy="286.0" r="2.5" fill="#ef4444"/><circle cx="183.5" cy="286.0" r="2.5" fill="#ef4444"/><circle cx="207.1" cy="286.0" r="2.5" fill="#ef4444"/><circle cx="230.6" cy="286.0" r="2.5" fill="#ef4444"/><circle cx="254.2" cy="286.0" r="2.5" fill="#ef4444"/><circle cx="277.8" cy="286.0" r="2.5" fill="#ef4444"/><circle cx="301.4" cy="286.0" r="2.5" fill="#ef4444"/><circle cx="324.9" cy="286.0" r="2.5" fill="#ef4444"/><circle cx="348.5" cy="286.0" r="2.5" fill="#ef4444"/><circle cx="372.1" cy="286.0" r="2.5" fill="#ef4444"/><circle cx="395.7" cy="286.0" r="2.5" fill="#ef4444"/><circle cx="419.3" cy="286.0" r="2.5" fill="#ef4444"/><circle cx="442.8" cy="279.8" r="2.5" fill="#ef4444"/><circle cx="466.4" cy="286.0" r="2.5" fill="#ef4444"/><circle cx="490.0" cy="286.0" r="2.5" fill="#ef4444"/><circle cx="513.6" cy="286.0" r="2.5" fill="#ef4444"/><circle cx="537.2" cy="286.0" r="2.5" fill="#ef4444"/><circle cx="560.7" cy="286.0" r="2.5" fill="#ef4444"/><circle cx="584.3" cy="286.0" r="2.5" fill="#ef4444"/><circle cx="607.9" cy="286.0" r="2.5" fill="#ef4444"/><circle cx="631.5" cy="286.0" r="2.5" fill="#ef4444"/><circle cx="655.1" cy="286.0" r="2.5" fill="#ef4444"/><circle cx="678.6" cy="286.0" r="2.5" fill="#ef4444"/><circle cx="702.2" cy="286.0" r="2.5" fill="#ef4444"/><circle cx="725.8" cy="286.0" r="2.5" fill="#ef4444"/><circle cx="749.4" cy="286.0" r="2.5" fill="#ef4444"/><circle cx="772.9" cy="286.0" r="2.5" fill="#ef4444"/><circle cx="796.5" cy="286.0" r="2.5" fill="#ef4444"/><circle cx="820.1" cy="286.0" r="2.5" fill="#ef4444"/><circle cx="843.7" cy="286.0" r="2.5" fill="#ef4444"/><circle cx="867.3" cy="286.0" r="2.5" fill="#ef4444"/><circle cx="890.8" cy="286.0" r="2.5" fill="#ef4444"/><circle cx="914.4" cy="286.0" r="2.5" fill="#ef4444"/><circle cx="938.0" cy="286.0" r="2.5" fill="#ef4444"/><text x="42" y="308" font-size="11" fill="#5a688a">19/06 15:39</text><text x="938" y="308" text-anchor="end" font-size="11" fill="#5a688a">18/07 04:34</text></svg>