<svg xmlns="http://www.w3.org/2000/svg" viewBox="0 0 960 320" width="960" height="320" font-family="Segoe UI, system-ui, -apple-system, Roboto, Helvetica, Arial, sans-serif" role="img" aria-label="Availability history per region"><rect x="0.5" y="0.5" width="959" height="319" rx="14" fill="#0d1117" stroke="#2c3a5e"/><text x="42" y="26" font-size="14" font-weight="600" fill="#e6ecff">History · 49 points</text><circle cx="47" cy="40" r="5" fill="#22c55e"/><text x="57" y="44" font-size="12" fill="#9fb0d4">Available</text><circle cx="139.8" cy="40" r="5" fill="#f59e0b"/><text x="149.8" y="44" font-size="12" fill="#9fb0d4">Saturated</text><circle cx="232.60000000000002" cy="40" r="5" fill="#ef4444"/><text x="242.60000000000002" y="44" font-size="12" fill="#9fb0d4">Error</text><line x1="42" y1="286.0" x2="938" y2="286.0" stroke="#21304f" stroke-width="1"/><text x="35" y="289.0" text-anchor="end" font-size="11" fill="#9fb0d4">0</text><line x1="42" y1="227.5" x2="938" y2="227.5" stroke="#21304f" stroke-width="1"/><text x="35" y="230.5" text-anchor="end" font-size="11" fill="#9fb0d4">10</text><line x1="42" y1="169.0" x2="938" y2="169.0" stroke="#21304f" stroke-width="1"/><text x="35" y="172.0" text-anchor="end" font-size="11" fill="#9fb0d4">19</text><line x1="42" y1="110.5" x2="938" y2="110.5" stroke="#21304f" stroke-width="1"/><text x="35" y="113.5" text-anchor="end" font-size="11" fill="#9fb0d4">28</text><line x1="42" y1="52.0" x2="938" y2="52.0" stroke="#21304f" stroke-width="1"/><text x="35" y="55.0" text-anchor="end" font-size="11" fill="#9fb0d4">38</text><polyline fill="none" stroke="#22c55e" stroke-width="2.5" stroke-linejoin="round" stroke-linecap="round" points="42.0,64.3 60.7,224.4 79.3,82.8 98.0,88.9 116.7,82.8 135.3,76.6 154.0,76.6 172.7,76.6 191.3,76.6 210.0,76.6 228.7,76.6 247.3,76.6 266.0,76.6 284.7,76.6 303.3,76.6 322.0,70.5 340.7,70.5 359.3,82.8 378.0,82.8 396.7,82.8 415.3,88.9 434.0,88.9 452.7,88.9 471.3,88.9 490.0,88.9 508.7,88.9 527.3,88.9 546.0,88.9 564.7,88.9 583.3,82.8 602.0,82.8 620.7,82.8 639.3,82.8 658.0,76.6 676.7,76.6 695.3,76.6 714.0,76.6 732.7,76.6 751.3,82.8 770.0,82.8 788.7,82.8 807.3,82.8 826.0,76.6 844.7,76.6 863.3,76.6 882.0,76.6 900.7,76.6 919.3,76.6 938.0,76.6"/><circle cx="42.0" cy="64.3" r="2.5" fill="#22c55e"/><circle cx="60.7" cy="224.4" r="2.5" fill="#22c55e"/><circle cx="79.3" cy="82.8" r="2.5" fill="#22c55e"/><circle cx="98.0" cy="88.9" r="2.5" fill="#22c55e"/><circle cx="116.7" cy="82.8" r="2.5" fill="#22c55e"/><circle cx="135.3" cy="76.6" r="2.5" fill="#22c55e"/><circle cx="154.0" cy="76.6" r="2.5" fill="#22c55e"/><circle cx="172.7" cy="76.6" r="2.5" fill="#22c55e"/><circle cx="191.3" cy="76.6" r="2.5" fill="#22c55e"/><circle cx="210.0" cy="76.6" r="2.5" fill="#22c55e"/><circle cx="228.7" cy="76.6" r="2.5" fill="#22c55e"/><circle cx="247.3" cy="76.6" r="2.5" fill="#22c55e"/><circle cx="266.0" cy="76.6" r="2.5" fill="#22c55e"/><circle cx="284.7" cy="76.6" r="2.5" fill="#22c55e"/><circle cx="303.3" cy="76.6" r="2.5" fill="#22c55e"/><circle cx="322.0" cy="70.5" r="2.5" fill="#22c55e"/><circle cx="340.7" cy="70.5" r="2.5" fill="#22c55e"/><circle cx="359.3" cy="82.8" r="2.5" fill="#22c55e"/><circle cx="378.0" cy="82.8" r="2.5" fill="#22c55e"/><circle cx="396.7" cy="82.8" r="2.5" fill="#22c55e"/><circle cx="415.3" cy="88.9" r="2.5" fill="#22c55e"/><circle cx="434.0" cy="88.9" r="2.5" fill="#22c55e"/><circle cx="452.7" cy="88.9" r="2.5" fill="#22c55e"/><circle cx="471.3" cy="88.9" r="2.5" fill="#22c55e"/><circle cx="490.0" cy="88.9" r="2.5" fill="#22c55e"/><circle cx="508.7" cy="88.9" r="2.5" fill="#22c55e"/><circle cx="527.3" cy="88.9" r="2.5" fill="#22c55e"/><circle cx="546.0" cy="88.9" r="2.5" fill="#22c55e"/><circle cx="564.7" cy="88.9" r="2.5" fill="#22c55e"/><circle cx="583.3" cy="82.8" r="2.5" fill="#22c55e"/><circle cx="602.0" cy="82.8" r="2.5" fill="#22c55e"/><circle cx="620.7" cy="82.8" r="2.5" fill="#22c55e"/><circle cx="639.3" cy="82.8" r="2.5" fill="#22c55e"/><circle cx="658.0" cy="76.6" r="2.5" fill="#22c55e"/><circle cx="676.7" cy="76.6" r="2.5" fill="#22c55e"/><circle cx="695.3" cy="76.6" r="2.5" fill="#22c55e"/><circle cx="714.0" cy="76.6" r="2.5" fill="#22c55e"/><circle cx="732.7" cy="76.6" r="2.5" fill="#22c55e"/><circle cx="751.3" cy="82.8" r="2.5" fill="#22c55e"/><circle cx="770.0" cy="82.8" r="2.5" fill="#22c55e"/><circle cx="788.7" cy="82.8" r="2.5" fill="#22c55e"/><circle cx="807.3" cy="82.8" r="2.5" fill="#22c55e"/><circle cx="826.0" cy="76.6" r="2.5" fill="#22c55e"/><circle cx="844.7" cy="76.6" r="2.5" fill="#22c55e"/><circle cx="863.3" cy="76.6" r="2.5" fill="#22c55e"/><circle cx="882.0" cy="76.6" r="2.5" fill="#22c55e"/><circle cx="900.7" cy="76.6" r="2.5" fill="#22c55e"/><circle cx="919.3" cy="76.6" r="2.5" fill="#22c55e"/><circle cx="938.0" cy="76.6" r="2.5" fill="#22c55e"/><polyline fill="none" stroke="#f59e0b" stroke-width="2.5" stroke-linejoin="round" stroke-linecap="round" points="42.0,273.7 60.7,267.5 79.3,255.2 98.0,249.1 116.7,255.2 135.3,261.4 154.0,261.4 172.7,261.4 191.3,261.4 210.0,261.4 228.7,261.4 247.3,261.4 266.0,261.4 284.7,261.4 303.3,261.4 322.0,267.5 340.7,267.5 359.3,261.4 378.0,255.2 396.7,255.2 415.3,249.1 434.0,249.1 452.7,249.1 471.3,249.1 490.0,249.1 508.7,249.1 527.3,249.1 546.0,249.1 564.7,249.1 583.3,255.2 602.0,255.2 620.7,255.2 639.3,255.2 658.0,261.4 676.7,261.4 695.3,261.4 714.0,261.4 732.7,261.4 751.3,255.2 770.0,255.2 788.7,255.2 807.3,255.2 826.0,261.4 844.7,261.4 863.3,261.4 882.0,261.4 900.7,261.4 919.3,261.4 938.0,261.4"/><circle cx="42.0" cy="273.7" r="2.5" fill="#f59e0b"/><circle cx="60.7" cy="267.5" r="2.5" fill="#f59e0b"/><circle cx="79.3" cy="255.2" r="2.5" fill="#f59e0b"/><circle cx="98.0" cy="249.1" r="2.5" fill="#f59e0b"/><circle cx="116.7" cy="255.2" r="2.5" fill="#f59e0b"/><circle cx="135.3" cy="261.4" r="2.5" fill="#f59e0b"/><circle cx="154.0" cy="261.4" r="2.5" fill="#f59e0b"/><circle cx="172.7" cy="261.4" r="2.5" fill="#f59e0b"/><circle cx="191.3" cy="261.4" r="2.5" fill="#f59e0b"/><circle cx="210.0" cy="261.4" r="2.5" fill="#f59e0b"/><circle cx="228.7" cy="261.4" r="2.5" fill="#f59e0b"/><circle cx="247.3" cy="261.4" r="2.5" fill="#f59e0b"/><circle cx="266.0" cy="261.4" r="2.5" fill="#f59e0b"/><circle cx="284.7" cy="261.4" r="2.5" fill="#f59e0b"/><circle cx="303.3" cy="261.4" r="2.5" fill="#f59e0b"/><circle cx="322.0" cy="267.5" r="2.5" fill="#f59e0b"/><circle cx="340.7" cy="267.5" r="2.5" fill="#f59e0b"/><circle cx="359.3" cy="261.4" r="2.5" fill="#f59e0b"/><circle cx="378.0" cy="255.2" r="2.5" fill="#f59e0b"/><circle cx="396.7" cy="255.2" r="2.5" fill="#f59e0b"/><circle cx="415.3" cy="249.1" r="2.5" fill="#f59e0b"/><circle cx="434.0" cy="249.1" r="2.5" fill="#f59e0b"/><circle cx="452.7" cy="249.1" r="2.5" fill="#f59e0b"/><circle cx="471.3" cy="249.1" r="2.5" fill="#f59e0b"/><circle cx="490.0" cy="249.1" r="2.5" fill="#f59e0b"/><circle cx="508.7" cy="249.1" r="2.5" fill="#f59e0b"/><circle cx="527.3" cy="249.1" r="2.5" fill="#f59e0b"/><circle cx="546.0" cy="249.1" r="2.5" fill="#f59e0b"/><circle cx="564.7" cy="249.1" r="2.5" fill="#f59e0b"/><circle cx="583.3" cy="255.2" r="2.5" fill="#f59e0b"/><circle cx="602.0" cy="255.2" r="2.5" fill="#f59e0b"/><circle cx="620.7" cy="255.2" r="2.5" fill="#f59e0b"/><circle cx="639.3" cy="255.2" r="2.5" fill="#f59e0b"/><circle cx="658.0" cy="261.4" r="2.5" fill="#f59e0b"/><circle cx="676.7" cy="261.4" r="2.5" fill="#f59e0b"/><circle cx="695.3" cy="261.4" r="2.5" fill="#f59e0b"/><circle cx="714.0" cy="261.4" r="2.5" fill="#f59e0b"/><circle cx="732.7" cy="261.4" r="2.5" fill="#f59e0b"/><circle cx="751.3" cy="255.2" r="2.5" fill="#f59e0b"/><circle cx="770.0" cy="255.2" r="2.5" fill="#f59e0b"/><circle cx="788.7" cy="255.2" r="2.5" fill="#f59e0b"/><circle cx="807.3" cy="255.2" r="2.5" fill="#f59e0b"/><circle cx="826.0" cy="261.4" r="2.5" fill="#f59e0b"/><circle cx="844.7" cy="261.4" r="2.5" fill="#f59e0b"/><circle cx="863.3" cy="261.4" r="2.5" fill="#f59e0b"/><circle cx="882.0" cy="261.4" r="2.5" fill="#f59e0b"/><circle cx="900.7" cy="261.4" r="2.5" fill="#f59e0b"/><circle cx="919.3" cy="261.4" r="2.5" fill="#f59e0b"/><circle cx="938.0" cy="261.4" r="2.5" fill="#f59e0b"/><polyline fill="none" stroke="#ef4444" stroke-width="2.5" stroke-linejoin="round" stroke-linecap="round" points="42.0,286.0 60.7,132.1 79.3,286.0 98.0,286.0 116.7,286.0 135.3,286.0 154.0,286.0 172.7,286.0 191.3,286.0 210.0,286.0 228.7,286.0 247.3,286.0 266.0,286.0 284.7,286.0 303.3,286.0 322.0,286.0 340.7,286.0 359.3,279.8 378.0,286.0 396.7,286.0 415.3,286.0 434.0,286.0 452.7,286.0 471.3,286.0 490.0,286.0 508.7,286.0 527.3,286.0 546.0,286.0 564.7,286.0 583.3,286.0 602.0,286.0 620.7,286.0 639.3,286.0 658.0,286.0 676.7,286.0 695.3,286.0 714.0,286.0 732.7,286.0 751.3,286.0 770.0,286.0 788.7,286.0 807.3,286.0 826.0,286.0 844.7,286.0 863.3,286.0 882.0,286.0 900.7,286.0 919.3,286.0 938.0,286.0"/><circle cx="42.0" cy="286.0" r="2.5" fill="#ef4444"/><circle cx="60.7" cy="132.1" r="2.5" fill="#ef4444"/><circle cx="79.3" cy="286.0" r="2.5" fill="#ef4444"/><circle cx="98.0" cy="286.0" r="2.5" fill="#ef4444"/><circle cx="116.7" cy="286.0" r="2.5" fill="#ef4444"/><circle cx="135.3" cy="286.0" r="2.5" fill="#ef4444"/><circle cx="154.0" cy="286.0" r="2.5" fill="#ef4444"/><circle cx="172.7" cy="286.0" r="2.5" fill="#ef4444"/><circle cx="191.3" cy="286.0" r="2.5" fill="#ef4444"/><circle cx="210.0" cy="286.0" r="2.5" fill="#ef4444"/><circle cx="228.7" cy="286.0" r="2.5" fill="#ef4444"/><circle cx="247.3" cy="286.0" r="2.5" fill="#ef4444"/><circle cx="266.0" cy="286.0" r="2.5" fill="#ef4444"/><circle cx="284.7" cy="286.0" r="2.5" fill="#ef4444"/><circle cx="303.3" cy="286.0" r="2.5" fill="#ef4444"/><circle cx="322.0" cy="286.0" r="2.5" fill="#ef4444"/><circle cx="340.7" cy="286.0" r="2.5" fill="#ef4444"/><circle cx="359.3" cy="279.8" r="2.5" fill="#ef4444"/><circle cx="378.0" cy="286.0" r="2.5" fill="#ef4444"/><circle cx="396.7" cy="286.0" r="2.5" fill="#ef4444"/><circle cx="415.3" cy="286.0" r="2.5" fill="#ef4444"/><circle cx="434.0" cy="286.0" r="2.5" fill="#ef4444"/><circle cx="452.7" cy="286.0" r="2.5" fill="#ef4444"/><circle cx="471.3" cy="286.0" r="2.5" fill="#ef4444"/><circle cx="490.0" cy="286.0" r="2.5" fill="#ef4444"/><circle cx="508.7" cy="286.0" r="2.5" fill="#ef4444"/><circle cx="527.3" cy="286.0" r="2.5" fill="#ef4444"/><circle cx="546.0" cy="286.0" r="2.5" fill="#ef4444"/><circle cx="564.7" cy="286.0" r="2.5" fill="#ef4444"/><circle cx="583.3" cy="286.0" r="2.5" fill="#ef4444"/><circle cx="602.0" cy="286.0" r="2.5" fill="#ef4444"/><circle cx="620.7" cy="286.0" r="2.5" fill="#ef4444"/><circle cx="639.3" cy="286.0" r="2.5" fill="#ef4444"/><circle cx="658.0" cy="286.0" r="2.5" fill="#ef4444"/><circle cx="676.7" cy="286.0" r="2.5" fill="#ef4444"/><circle cx="695.3" cy="286.0" r="2.5" fill="#ef4444"/><circle cx="714.0" cy="286.0" r="2.5" fill="#ef4444"/><circle cx="732.7" cy="286.0" r="2.5" fill="#ef4444"/><circle cx="751.3" cy="286.0" r="2.5" fill="#ef4444"/><circle cx="770.0" cy="286.0" r="2.5" fill="#ef4444"/><circle cx="788.7" cy="286.0" r="2.5" fill="#ef4444"/><circle cx="807.3" cy="286.0" r="2.5" fill="#ef4444"/><circle cx="826.0" cy="286.0" r="2.5" fill="#ef4444"/><circle cx="844.7" cy="286.0" r="2.5" fill="#ef4444"/><circle cx="863.3" cy="286.0" r="2.5" fill="#ef4444"/><circle cx="882.0" cy="286.0" r="2.5" fill="#ef4444"/><circle cx="900.7" cy="286.0" r="2.5" fill="#ef4444"/><circle cx="919.3" cy="286.0" r="2.5" fill="#ef4444"/><circle cx="938.0" cy="286.0" r="2.5" fill="#ef4444"/><text x="42" y="308" font-size="11" fill="#9fb0d4">19/06 15:39</text><text x="938" y="308" text-anchor="end" font-size="11" fill="#9fb0d4">18/07 14:31</text></svg>