<svg xmlns="http://www.w3.org/2000/svg" viewBox="0 0 960 320" width="960" height="320" font-family="Segoe UI, system-ui, -apple-system, Roboto, Helvetica, Arial, sans-serif" role="img" aria-label="Availability history per region"><rect x="0.5" y="0.5" width="959" height="319" rx="14" fill="#0d1117" stroke="#2c3a5e"/><text x="42" y="26" font-size="14" font-weight="600" fill="#e6ecff">History · 180 points</text><circle cx="47" cy="40" r="5" fill="#22c55e"/><text x="57" y="44" font-size="12" fill="#9fb0d4">Available</text><circle cx="139.8" cy="40" r="5" fill="#f59e0b"/><text x="149.8" y="44" font-size="12" fill="#9fb0d4">Saturated</text><circle cx="232.60000000000002" cy="40" r="5" fill="#ef4444"/><text x="242.60000000000002" y="44" font-size="12" fill="#9fb0d4">Error</text><circle cx="296.6" cy="40" r="5" fill="#a855f7"/><text x="306.6" y="44" font-size="12" fill="#9fb0d4">Timeout</text><line x1="42" y1="286.0" x2="938" y2="286.0" stroke="#21304f" stroke-width="1"/><text x="35" y="289.0" text-anchor="end" font-size="11" fill="#9fb0d4">0</text><line x1="42" y1="227.5" x2="938" y2="227.5" stroke="#21304f" stroke-width="1"/><text x="35" y="230.5" text-anchor="end" font-size="11" fill="#9fb0d4">10</text><line x1="42" y1="169.0" x2="938" y2="169.0" stroke="#21304f" stroke-width="1"/><text x="35" y="172.0" text-anchor="end" font-size="11" fill="#9fb0d4">20</text><line x1="42" y1="110.5" x2="938" y2="110.5" stroke="#21304f" stroke-width="1"/><text x="35" y="113.5" text-anchor="end" font-size="11" fill="#9fb0d4">29</text><line x1="42" y1="52.0" x2="938" y2="52.0" stroke="#21304f" stroke-width="1"/><text x="35" y="55.0" text-anchor="end" font-size="11" fill="#9fb0d4">39</text><polyline fill="none" stroke="#22c55e" stroke-width="2.5" stroke-linejoin="round" stroke-linecap="round" points="42.0,70.0 47.0,70.0 52.0,88.0 57.0,88.0 62.0,76.0 67.0,76.0 72.0,76.0 77.0,70.0 82.0,76.0 87.1,70.0 92.1,64.0 97.1,58.0 102.1,58.0 107.1,58.0 112.1,58.0 117.1,58.0 122.1,58.0 127.1,58.0 132.1,58.0 137.1,58.0 142.1,58.0 147.1,58.0 152.1,58.0 157.1,58.0 162.1,58.0 167.1,58.0 172.1,58.0 177.2,58.0 182.2,58.0 187.2,58.0 192.2,58.0 197.2,70.0 202.2,76.0 207.2,94.0 212.2,64.0 217.2,64.0 222.2,58.0 227.2,58.0 232.2,58.0 237.2,70.0 242.2,76.0 247.2,76.0 252.2,82.0 257.2,82.0 262.2,82.0 267.3,82.0 272.3,76.0 277.3,64.0 282.3,70.0 287.3,70.0 292.3,82.0 297.3,76.0 302.3,76.0 307.3,82.0 312.3,76.0 317.3,76.0 322.3,76.0 327.3,64.0 332.3,64.0 337.3,76.0 342.3,76.0 347.3,76.0 352.3,88.0 357.4,70.0 362.4,64.0 367.4,58.0 372.4,58.0 377.4,70.0 382.4,70.0 387.4,70.0 392.4,76.0 397.4,70.0 402.4,70.0 407.4,70.0 412.4,70.0 417.4,76.0 422.4,82.0 427.4,76.0 432.4,70.0 437.4,70.0 442.4,70.0 447.5,70.0 452.5,76.0 457.5,70.0 462.5,70.0 467.5,70.0 472.5,70.0 477.5,70.0 482.5,70.0 487.5,70.0 492.5,70.0 497.5,70.0 502.5,70.0 507.5,70.0 512.5,70.0 517.5,70.0 522.5,70.0 527.5,70.0 532.5,70.0 537.6,70.0 542.6,70.0 547.6,70.0 552.6,70.0 557.6,70.0 562.6,70.0 567.6,70.0 572.6,70.0 577.6,70.0 582.6,70.0 587.6,70.0 592.6,70.0 597.6,70.0 602.6,70.0 607.6,70.0 612.6,70.0 617.6,70.0 622.6,70.0 627.7,70.0 632.7,70.0 637.7,70.0 642.7,70.0 647.7,70.0 652.7,70.0 657.7,70.0 662.7,70.0 667.7,70.0 672.7,70.0 677.7,70.0 682.7,70.0 687.7,70.0 692.7,70.0 697.7,70.0 702.7,70.0 707.7,70.0 712.7,70.0 717.8,70.0 722.8,70.0 727.8,70.0 732.8,70.0 737.8,70.0 742.8,70.0 747.8,70.0 752.8,70.0 757.8,70.0 762.8,70.0 767.8,70.0 772.8,70.0 777.8,70.0 782.8,70.0 787.8,70.0 792.8,70.0 797.8,76.0 802.8,70.0 807.9,70.0 812.9,70.0 817.9,70.0 822.9,70.0 827.9,76.0 832.9,76.0 837.9,88.0 842.9,88.0 847.9,88.0 852.9,94.0 857.9,94.0 862.9,94.0 867.9,94.0 872.9,88.0 877.9,88.0 882.9,82.0 887.9,82.0 892.9,82.0 898.0,88.0 903.0,88.0 908.0,94.0 913.0,82.0 918.0,82.0 923.0,82.0 928.0,82.0 933.0,88.0 938.0,88.0"/><polyline fill="none" stroke="#f59e0b" stroke-width="2.5" stroke-linejoin="round" stroke-linecap="round" points="42.0,274.0 47.0,274.0 52.0,274.0 57.0,280.0 62.0,268.0 67.0,268.0 72.0,268.0 77.0,274.0 82.0,274.0 87.1,274.0 92.1,280.0 97.1,286.0 102.1,286.0 107.1,286.0 112.1,286.0 117.1,286.0 122.1,286.0 127.1,286.0 132.1,286.0 137.1,286.0 142.1,286.0 147.1,286.0 152.1,286.0 157.1,286.0 162.1,286.0 167.1,286.0 172.1,286.0 177.2,286.0 182.2,286.0 187.2,286.0 192.2,286.0 197.2,274.0 202.2,280.0 207.2,280.0 212.2,280.0 217.2,280.0 222.2,286.0 227.2,286.0 232.2,286.0 237.2,274.0 242.2,268.0 247.2,268.0 252.2,262.0 257.2,262.0 262.2,262.0 267.3,262.0 272.3,268.0 277.3,280.0 282.3,280.0 287.3,274.0 292.3,262.0 297.3,268.0 302.3,268.0 307.3,262.0 312.3,268.0 317.3,268.0 322.3,268.0 327.3,280.0 332.3,280.0 337.3,268.0 342.3,268.0 347.3,268.0 352.3,262.0 357.4,274.0 362.4,280.0 367.4,286.0 372.4,286.0 377.4,274.0 382.4,274.0 387.4,274.0 392.4,274.0 397.4,274.0 402.4,274.0 407.4,274.0 412.4,274.0 417.4,280.0 422.4,274.0 427.4,280.0 432.4,286.0 437.4,286.0 442.4,286.0 447.5,286.0 452.5,280.0 457.5,286.0 462.5,286.0 467.5,286.0 472.5,286.0 477.5,286.0 482.5,286.0 487.5,286.0 492.5,286.0 497.5,286.0 502.5,286.0 507.5,286.0 512.5,286.0 517.5,286.0 522.5,286.0 527.5,286.0 532.5,286.0 537.6,286.0 542.6,286.0 547.6,286.0 552.6,286.0 557.6,286.0 562.6,286.0 567.6,286.0 572.6,286.0 577.6,286.0 582.6,286.0 587.6,286.0 592.6,286.0 597.6,286.0 602.6,286.0 607.6,286.0 612.6,286.0 617.6,286.0 622.6,286.0 627.7,286.0 632.7,286.0 637.7,286.0 642.7,286.0 647.7,286.0 652.7,286.0 657.7,286.0 662.7,286.0 667.7,286.0 672.7,286.0 677.7,286.0 682.7,286.0 687.7,286.0 692.7,286.0 697.7,286.0 702.7,286.0 707.7,286.0 712.7,286.0 717.8,286.0 722.8,286.0 727.8,286.0 732.8,286.0 737.8,286.0 742.8,286.0 747.8,286.0 752.8,286.0 757.8,286.0 762.8,286.0 767.8,286.0 772.8,286.0 777.8,286.0 782.8,286.0 787.8,286.0 792.8,286.0 797.8,286.0 802.8,286.0 807.9,286.0 812.9,286.0 817.9,286.0 822.9,286.0 827.9,286.0 832.9,280.0 837.9,268.0 842.9,268.0 847.9,268.0 852.9,268.0 857.9,262.0 862.9,262.0 867.9,262.0 872.9,268.0 877.9,268.0 882.9,274.0 887.9,274.0 892.9,274.0 898.0,268.0 903.0,268.0 908.0,268.0 913.0,274.0 918.0,274.0 923.0,274.0 928.0,274.0 933.0,268.0 938.0,268.0"/><polyline fill="none" stroke="#ef4444" stroke-width="2.5" stroke-linejoin="round" stroke-linecap="round" points="42.0,280.0 47.0,280.0 52.0,268.0 57.0,262.0 62.0,286.0 67.0,286.0 72.0,286.0 77.0,286.0 82.0,280.0 87.1,286.0 92.1,286.0 97.1,286.0 102.1,286.0 107.1,286.0 112.1,286.0 117.1,286.0 122.1,286.0 127.1,286.0 132.1,286.0 137.1,286.0 142.1,286.0 147.1,286.0 152.1,286.0 157.1,286.0 162.1,286.0 167.1,286.0 172.1,286.0 177.2,286.0 182.2,286.0 187.2,286.0 192.2,286.0 197.2,286.0 202.2,274.0 207.2,256.0 212.2,286.0 217.2,286.0 222.2,286.0 227.2,286.0 232.2,286.0 237.2,286.0 242.2,286.0 247.2,286.0 252.2,286.0 257.2,286.0 262.2,286.0 267.3,286.0 272.3,286.0 277.3,286.0 282.3,280.0 287.3,286.0 292.3,286.0 297.3,286.0 302.3,286.0 307.3,286.0 312.3,286.0 317.3,286.0 322.3,286.0 327.3,286.0 332.3,286.0 337.3,286.0 342.3,286.0 347.3,286.0 352.3,280.0 357.4,286.0 362.4,286.0 367.4,286.0 372.4,286.0 377.4,286.0 382.4,286.0 387.4,286.0 392.4,286.0 397.4,286.0 402.4,286.0 407.4,286.0 412.4,286.0 417.4,274.0 422.4,274.0 427.4,274.0 432.4,274.0 437.4,274.0 442.4,274.0 447.5,274.0 452.5,274.0 457.5,274.0 462.5,274.0 467.5,274.0 472.5,274.0 477.5,274.0 482.5,274.0 487.5,274.0 492.5,274.0 497.5,274.0 502.5,274.0 507.5,274.0 512.5,274.0 517.5,274.0 522.5,274.0 527.5,274.0 532.5,274.0 537.6,274.0 542.6,274.0 547.6,274.0 552.6,274.0 557.6,274.0 562.6,274.0 567.6,274.0 572.6,274.0 577.6,274.0 582.6,274.0 587.6,274.0 592.6,274.0 597.6,274.0 602.6,274.0 607.6,274.0 612.6,274.0 617.6,274.0 622.6,274.0 627.7,274.0 632.7,274.0 637.7,274.0 642.7,274.0 647.7,274.0 652.7,274.0 657.7,274.0 662.7,274.0 667.7,274.0 672.7,274.0 677.7,274.0 682.7,274.0 687.7,274.0 692.7,274.0 697.7,274.0 702.7,274.0 707.7,274.0 712.7,274.0 717.8,274.0 722.8,274.0 727.8,274.0 732.8,274.0 737.8,274.0 742.8,274.0 747.8,274.0 752.8,274.0 757.8,274.0 762.8,274.0 767.8,274.0 772.8,274.0 777.8,274.0 782.8,274.0 787.8,274.0 792.8,274.0 797.8,268.0 802.8,274.0 807.9,274.0 812.9,274.0 817.9,274.0 822.9,274.0 827.9,274.0 832.9,274.0 837.9,274.0 842.9,274.0 847.9,274.0 852.9,268.0 857.9,274.0 862.9,274.0 867.9,274.0 872.9,274.0 877.9,274.0 882.9,274.0 887.9,274.0 892.9,274.0 898.0,274.0 903.0,274.0 908.0,268.0 913.0,274.0 918.0,274.0 923.0,274.0 928.0,274.0 933.0,274.0 938.0,274.0"/><polyline fill="none" stroke="#a855f7" stroke-width="2.5" stroke-linejoin="round" stroke-linecap="round" points="42.0,286.0 47.0,286.0 52.0,286.0 57.0,286.0 62.0,286.0 67.0,286.0 72.0,286.0 77.0,286.0 82.0,286.0 87.1,286.0 92.1,286.0 97.1,286.0 102.1,286.0 107.1,286.0 112.1,286.0 117.1,286.0 122.1,286.0 127.1,286.0 132.1,286.0 137.1,286.0 142.1,286.0 147.1,286.0 152.1,286.0 157.1,286.0 162.1,286.0 167.1,286.0 172.1,286.0 177.2,286.0 182.2,286.0 187.2,286.0 192.2,286.0 197.2,286.0 202.2,286.0 207.2,286.0 212.2,286.0 217.2,286.0 222.2,286.0 227.2,286.0 232.2,286.0 237.2,286.0 242.2,286.0 247.2,286.0 252.2,286.0 257.2,286.0 262.2,286.0 267.3,286.0 272.3,286.0 277.3,286.0 282.3,286.0 287.3,286.0 292.3,286.0 297.3,286.0 302.3,286.0 307.3,286.0 312.3,286.0 317.3,286.0 322.3,286.0 327.3,286.0 332.3,286.0 337.3,286.0 342.3,286.0 347.3,286.0 352.3,286.0 357.4,286.0 362.4,286.0 367.4,286.0 372.4,286.0 377.4,286.0 382.4,286.0 387.4,286.0 392.4,280.0 397.4,286.0 402.4,286.0 407.4,286.0 412.4,286.0 417.4,286.0 422.4,286.0 427.4,286.0 432.4,286.0 437.4,286.0 442.4,286.0 447.5,286.0 452.5,286.0 457.5,286.0 462.5,286.0 467.5,286.0 472.5,286.0 477.5,286.0 482.5,286.0 487.5,286.0 492.5,286.0 497.5,286.0 502.5,286.0 507.5,286.0 512.5,286.0 517.5,286.0 522.5,286.0 527.5,286.0 532.5,286.0 537.6,286.0 542.6,286.0 547.6,286.0 552.6,286.0 557.6,286.0 562.6,286.0 567.6,286.0 572.6,286.0 577.6,286.0 582.6,286.0 587.6,286.0 592.6,286.0 597.6,286.0 602.6,286.0 607.6,286.0 612.6,286.0 617.6,286.0 622.6,286.0 627.7,286.0 632.7,286.0 637.7,286.0 642.7,286.0 647.7,286.0 652.7,286.0 657.7,286.0 662.7,286.0 667.7,286.0 672.7,286.0 677.7,286.0 682.7,286.0 687.7,286.0 692.7,286.0 697.7,286.0 702.7,286.0 707.7,286.0 712.7,286.0 717.8,286.0 722.8,286.0 727.8,286.0 732.8,286.0 737.8,286.0 742.8,286.0 747.8,286.0 752.8,286.0 757.8,286.0 762.8,286.0 767.8,286.0 772.8,286.0 777.8,286.0 782.8,286.0 787.8,286.0 792.8,286.0 797.8,286.0 802.8,286.0 807.9,286.0 812.9,286.0 817.9,286.0 822.9,286.0 827.9,280.0 832.9,286.0 837.9,286.0 842.9,286.0 847.9,286.0 852.9,286.0 857.9,286.0 862.9,286.0 867.9,286.0 872.9,286.0 877.9,286.0 882.9,286.0 887.9,286.0 892.9,286.0 898.0,286.0 903.0,286.0 908.0,286.0 913.0,286.0 918.0,286.0 923.0,286.0 928.0,286.0 933.0,286.0 938.0,286.0"/><text x="42" y="308" font-size="11" fill="#9fb0d4">19/06 12:43</text><text x="938" y="308" text-anchor="end" font-size="11" fill="#9fb0d4">30/06 06:33</text></svg>