<svg xmlns="http://www.w3.org/2000/svg" viewBox="0 0 960 320" width="960" height="320" font-family="Segoe UI, system-ui, -apple-system, Roboto, Helvetica, Arial, sans-serif" role="img" aria-label="Availability history per region"><rect x="0.5" y="0.5" width="959" height="319" rx="14" fill="#ffffff" stroke="#dce3f1"/><text x="42" y="26" font-size="14" font-weight="600" fill="#14203a">History · 110 points</text><circle cx="47" cy="40" r="5" fill="#22c55e"/><text x="57" y="44" font-size="12" fill="#5a688a">Available</text><circle cx="139.8" cy="40" r="5" fill="#f59e0b"/><text x="149.8" y="44" font-size="12" fill="#5a688a">Saturated</text><circle cx="232.60000000000002" cy="40" r="5" fill="#ef4444"/><text x="242.60000000000002" y="44" font-size="12" fill="#5a688a">Error</text><circle cx="296.6" cy="40" r="5" fill="#a855f7"/><text x="306.6" y="44" font-size="12" fill="#5a688a">Timeout</text><line x1="42" y1="286.0" x2="938" y2="286.0" stroke="#eef2f7" stroke-width="1"/><text x="35" y="289.0" text-anchor="end" font-size="11" fill="#5a688a">0</text><line x1="42" y1="227.5" x2="938" y2="227.5" stroke="#eef2f7" stroke-width="1"/><text x="35" y="230.5" text-anchor="end" font-size="11" fill="#5a688a">10</text><line x1="42" y1="169.0" x2="938" y2="169.0" stroke="#eef2f7" stroke-width="1"/><text x="35" y="172.0" text-anchor="end" font-size="11" fill="#5a688a">19</text><line x1="42" y1="110.5" x2="938" y2="110.5" stroke="#eef2f7" stroke-width="1"/><text x="35" y="113.5" text-anchor="end" font-size="11" fill="#5a688a">28</text><line x1="42" y1="52.0" x2="938" y2="52.0" stroke="#eef2f7" stroke-width="1"/><text x="35" y="55.0" text-anchor="end" font-size="11" fill="#5a688a">38</text><polyline fill="none" stroke="#22c55e" stroke-width="2.5" stroke-linejoin="round" stroke-linecap="round" points="42.0,64.3 50.2,224.4 58.4,82.8 66.7,88.9 74.9,82.8 83.1,76.6 91.3,76.6 99.5,76.6 107.8,76.6 116.0,76.6 124.2,76.6 132.4,76.6 140.6,76.6 148.9,76.6 157.1,76.6 165.3,70.5 173.5,70.5 181.7,82.8 190.0,82.8 198.2,82.8 206.4,88.9 214.6,88.9 222.8,88.9 231.1,88.9 239.3,88.9 247.5,88.9 255.7,88.9 263.9,88.9 272.2,88.9 280.4,82.8 288.6,82.8 296.8,82.8 305.0,82.8 313.3,76.6 321.5,76.6 329.7,76.6 337.9,76.6 346.1,76.6 354.4,82.8 362.6,82.8 370.8,82.8 379.0,82.8 387.2,76.6 395.5,76.6 403.7,76.6 411.9,76.6 420.1,76.6 428.3,76.6 436.6,76.6 444.8,82.8 453.0,82.8 461.2,82.8 469.4,82.8 477.7,76.6 485.9,76.6 494.1,76.6 502.3,76.6 510.6,76.6 518.8,76.6 527.0,76.6 535.2,76.6 543.4,82.8 551.7,76.6 559.9,76.6 568.1,76.6 576.3,76.6 584.5,76.6 592.8,82.8 601.0,76.6 609.2,76.6 617.4,76.6 625.6,76.6 633.9,76.6 642.1,76.6 650.3,76.6 658.5,76.6 666.7,76.6 675.0,70.5 683.2,70.5 691.4,70.5 699.6,70.5 707.8,76.6 716.1,70.5 724.3,76.6 732.5,76.6 740.7,76.6 748.9,76.6 757.2,76.6 765.4,76.6 773.6,82.8 781.8,88.9 790.0,88.9 798.3,88.9 806.5,88.9 814.7,88.9 822.9,88.9 831.1,88.9 839.4,95.1 847.6,88.9 855.8,88.9 864.0,88.9 872.2,88.9 880.5,88.9 888.7,88.9 896.9,82.8 905.1,82.8 913.3,82.8 921.6,82.8 929.8,82.8 938.0,82.8"/><polyline fill="none" stroke="#f59e0b" stroke-width="2.5" stroke-linejoin="round" stroke-linecap="round" points="42.0,273.7 50.2,267.5 58.4,255.2 66.7,249.1 74.9,255.2 83.1,261.4 91.3,261.4 99.5,261.4 107.8,261.4 116.0,261.4 124.2,261.4 132.4,261.4 140.6,261.4 148.9,261.4 157.1,261.4 165.3,267.5 173.5,267.5 181.7,261.4 190.0,255.2 198.2,255.2 206.4,249.1 214.6,249.1 222.8,249.1 231.1,249.1 239.3,249.1 247.5,249.1 255.7,249.1 263.9,249.1 272.2,249.1 280.4,255.2 288.6,255.2 296.8,255.2 305.0,255.2 313.3,261.4 321.5,261.4 329.7,261.4 337.9,261.4 346.1,261.4 354.4,255.2 362.6,255.2 370.8,255.2 379.0,255.2 387.2,261.4 395.5,261.4 403.7,261.4 411.9,261.4 420.1,261.4 428.3,261.4 436.6,261.4 444.8,255.2 453.0,255.2 461.2,255.2 469.4,261.4 477.7,261.4 485.9,261.4 494.1,261.4 502.3,261.4 510.6,261.4 518.8,261.4 527.0,261.4 535.2,261.4 543.4,255.2 551.7,261.4 559.9,261.4 568.1,261.4 576.3,261.4 584.5,261.4 592.8,261.4 601.0,261.4 609.2,261.4 617.4,261.4 625.6,261.4 633.9,261.4 642.1,261.4 650.3,261.4 658.5,261.4 666.7,261.4 675.0,267.5 683.2,267.5 691.4,267.5 699.6,267.5 707.8,267.5 716.1,267.5 724.3,261.4 732.5,261.4 740.7,261.4 748.9,261.4 757.2,261.4 765.4,261.4 773.6,255.2 781.8,249.1 790.0,249.1 798.3,255.2 806.5,249.1 814.7,249.1 822.9,249.1 831.1,249.1 839.4,249.1 847.6,249.1 855.8,255.2 864.0,249.1 872.2,249.1 880.5,249.1 888.7,249.1 896.9,255.2 905.1,255.2 913.3,255.2 921.6,255.2 929.8,255.2 938.0,255.2"/><polyline fill="none" stroke="#ef4444" stroke-width="2.5" stroke-linejoin="round" stroke-linecap="round" points="42.0,286.0 50.2,132.1 58.4,286.0 66.7,286.0 74.9,286.0 83.1,286.0 91.3,286.0 99.5,286.0 107.8,286.0 116.0,286.0 124.2,286.0 132.4,286.0 140.6,286.0 148.9,286.0 157.1,286.0 165.3,286.0 173.5,286.0 181.7,279.8 190.0,286.0 198.2,286.0 206.4,286.0 214.6,286.0 222.8,286.0 231.1,286.0 239.3,286.0 247.5,286.0 255.7,286.0 263.9,286.0 272.2,286.0 280.4,286.0 288.6,286.0 296.8,286.0 305.0,286.0 313.3,286.0 321.5,286.0 329.7,286.0 337.9,286.0 346.1,286.0 354.4,286.0 362.6,286.0 370.8,286.0 379.0,286.0 387.2,286.0 395.5,286.0 403.7,286.0 411.9,286.0 420.1,286.0 428.3,286.0 436.6,286.0 444.8,286.0 453.0,286.0 461.2,286.0 469.4,286.0 477.7,286.0 485.9,286.0 494.1,286.0 502.3,286.0 510.6,286.0 518.8,286.0 527.0,286.0 535.2,286.0 543.4,286.0 551.7,286.0 559.9,286.0 568.1,286.0 576.3,286.0 584.5,286.0 592.8,279.8 601.0,286.0 609.2,286.0 617.4,286.0 625.6,286.0 633.9,286.0 642.1,286.0 650.3,286.0 658.5,286.0 666.7,286.0 675.0,286.0 683.2,286.0 691.4,286.0 699.6,286.0 707.8,279.8 716.1,286.0 724.3,286.0 732.5,286.0 740.7,286.0 748.9,286.0 757.2,286.0 765.4,286.0 773.6,286.0 781.8,286.0 790.0,286.0 798.3,279.8 806.5,286.0 814.7,286.0 822.9,286.0 831.1,286.0 839.4,279.8 847.6,286.0 855.8,286.0 864.0,286.0 872.2,286.0 880.5,286.0 888.7,286.0 896.9,286.0 905.1,286.0 913.3,286.0 921.6,286.0 929.8,286.0 938.0,286.0"/><polyline fill="none" stroke="#a855f7" stroke-width="2.5" stroke-linejoin="round" stroke-linecap="round" points="42.0,286.0 50.2,286.0 58.4,286.0 66.7,286.0 74.9,286.0 83.1,286.0 91.3,286.0 99.5,286.0 107.8,286.0 116.0,286.0 124.2,286.0 132.4,286.0 140.6,286.0 148.9,286.0 157.1,286.0 165.3,286.0 173.5,286.0 181.7,286.0 190.0,286.0 198.2,286.0 206.4,286.0 214.6,286.0 222.8,286.0 231.1,286.0 239.3,286.0 247.5,286.0 255.7,286.0 263.9,286.0 272.2,286.0 280.4,286.0 288.6,286.0 296.8,286.0 305.0,286.0 313.3,286.0 321.5,286.0 329.7,286.0 337.9,286.0 346.1,286.0 354.4,286.0 362.6,286.0 370.8,286.0 379.0,286.0 387.2,286.0 395.5,286.0 403.7,286.0 411.9,286.0 420.1,286.0 428.3,286.0 436.6,286.0 444.8,286.0 453.0,286.0 461.2,286.0 469.4,279.8 477.7,286.0 485.9,286.0 494.1,286.0 502.3,286.0 510.6,286.0 518.8,286.0 527.0,286.0 535.2,286.0 543.4,286.0 551.7,286.0 559.9,286.0 568.1,286.0 576.3,286.0 584.5,286.0 592.8,286.0 601.0,286.0 609.2,286.0 617.4,286.0 625.6,286.0 633.9,286.0 642.1,286.0 650.3,286.0 658.5,286.0 666.7,286.0 675.0,286.0 683.2,286.0 691.4,286.0 699.6,286.0 707.8,286.0 716.1,286.0 724.3,286.0 732.5,286.0 740.7,286.0 748.9,286.0 757.2,286.0 765.4,286.0 773.6,286.0 781.8,286.0 790.0,286.0 798.3,286.0 806.5,286.0 814.7,286.0 822.9,286.0 831.1,286.0 839.4,286.0 847.6,286.0 855.8,279.8 864.0,286.0 872.2,286.0 880.5,286.0 888.7,286.0 896.9,286.0 905.1,286.0 913.3,286.0 921.6,286.0 929.8,286.0 938.0,286.0"/><text x="42" y="308" font-size="11" fill="#5a688a">19/06 15:39</text><text x="938" y="308" text-anchor="end" font-size="11" fill="#5a688a">21/07 04:34</text></svg>