<svg xmlns="http://www.w3.org/2000/svg" viewBox="0 0 960 320" width="960" height="320" font-family="Segoe UI, system-ui, -apple-system, Roboto, Helvetica, Arial, sans-serif" role="img" aria-label="Availability history per region"><rect x="0.5" y="0.5" width="959" height="319" rx="14" fill="#0d1117" stroke="#2c3a5e"/><text x="42" y="26" font-size="14" font-weight="600" fill="#e6ecff">History · 336 points</text><circle cx="47" cy="40" r="5" fill="#22c55e"/><text x="57" y="44" font-size="12" fill="#9fb0d4">Available</text><circle cx="139.8" cy="40" r="5" fill="#f59e0b"/><text x="149.8" y="44" font-size="12" fill="#9fb0d4">Saturated</text><circle cx="232.60000000000002" cy="40" r="5" fill="#ef4444"/><text x="242.60000000000002" y="44" font-size="12" fill="#9fb0d4">Error</text><circle cx="296.6" cy="40" r="5" fill="#a855f7"/><text x="306.6" y="44" font-size="12" fill="#9fb0d4">Timeout</text><line x1="42" y1="286.0" x2="938" y2="286.0" stroke="#21304f" stroke-width="1"/><text x="35" y="289.0" text-anchor="end" font-size="11" fill="#9fb0d4">0</text><line x1="42" y1="227.5" x2="938" y2="227.5" stroke="#21304f" stroke-width="1"/><text x="35" y="230.5" text-anchor="end" font-size="11" fill="#9fb0d4">10</text><line x1="42" y1="169.0" x2="938" y2="169.0" stroke="#21304f" stroke-width="1"/><text x="35" y="172.0" text-anchor="end" font-size="11" fill="#9fb0d4">19</text><line x1="42" y1="110.5" x2="938" y2="110.5" stroke="#21304f" stroke-width="1"/><text x="35" y="113.5" text-anchor="end" font-size="11" fill="#9fb0d4">28</text><line x1="42" y1="52.0" x2="938" y2="52.0" stroke="#21304f" stroke-width="1"/><text x="35" y="55.0" text-anchor="end" font-size="11" fill="#9fb0d4">38</text><polyline fill="none" stroke="#22c55e" stroke-width="2.5" stroke-linejoin="round" stroke-linecap="round" points="42.0,76.6 44.7,76.6 47.3,82.8 50.0,82.8 52.7,88.9 55.4,76.6 58.0,76.6 60.7,76.6 63.4,76.6 66.1,82.8 68.7,82.8 71.4,88.9 74.1,88.9 76.8,82.8 79.4,82.8 82.1,82.8 84.8,88.9 87.5,88.9 90.1,101.3 92.8,88.9 95.5,88.9 98.2,88.9 100.8,88.9 103.5,82.8 106.2,82.8 108.9,76.6 111.5,70.5 114.2,70.5 116.9,70.5 119.6,70.5 122.2,70.5 124.9,70.5 127.6,64.3 130.3,64.3 132.9,64.3 135.6,70.5 138.3,82.8 141.0,76.6 143.6,64.3 146.3,64.3 149.0,64.3 151.7,70.5 154.3,70.5 157.0,70.5 159.7,76.6 162.4,64.3 165.0,70.5 167.7,58.2 170.4,64.3 173.1,52.0 175.7,52.0 178.4,52.0 181.1,52.0 183.8,52.0 186.4,58.2 189.1,52.0 191.8,58.2 194.5,52.0 197.1,52.0 199.8,52.0 202.5,52.0 205.2,58.2 207.8,58.2 210.5,58.2 213.2,70.5 215.9,64.3 218.5,76.6 221.2,64.3 223.9,70.5 226.5,52.0 229.2,58.2 231.9,52.0 234.6,58.2 237.2,52.0 239.9,52.0 242.6,52.0 245.3,58.2 247.9,64.3 250.6,58.2 253.3,58.2 256.0,58.2 258.6,64.3 261.3,64.3 264.0,58.2 266.7,64.3 269.3,64.3 272.0,64.3 274.7,52.0 277.4,52.0 280.0,52.0 282.7,52.0 285.4,52.0 288.1,58.2 290.7,52.0 293.4,52.0 296.1,52.0 298.8,52.0 301.4,52.0 304.1,52.0 306.8,52.0 309.5,52.0 312.1,58.2 314.8,52.0 317.5,52.0 320.2,52.0 322.8,52.0 325.5,52.0 328.2,52.0 330.9,52.0 333.5,58.2 336.2,52.0 338.9,52.0 341.6,52.0 344.2,52.0 346.9,52.0 349.6,52.0 352.3,52.0 354.9,52.0 357.6,52.0 360.3,52.0 363.0,52.0 365.6,52.0 368.3,52.0 371.0,52.0 373.7,52.0 376.3,52.0 379.0,52.0 381.7,52.0 384.4,52.0 387.0,58.2 389.7,58.2 392.4,52.0 395.1,52.0 397.7,52.0 400.4,58.2 403.1,58.2 405.7,70.5 408.4,58.2 411.1,58.2 413.8,64.3 416.4,52.0 419.1,52.0 421.8,52.0 424.5,52.0 427.1,52.0 429.8,52.0 432.5,64.3 435.2,58.2 437.8,58.2 440.5,58.2 443.2,58.2 445.9,64.3 448.5,64.3 451.2,70.5 453.9,70.5 456.6,76.6 459.2,82.8 461.9,76.6 464.6,76.6 467.3,82.8 469.9,76.6 472.6,70.5 475.3,70.5 478.0,64.3 480.6,58.2 483.3,58.2 486.0,70.5 488.7,70.5 491.3,64.3 494.0,70.5 496.7,64.3 499.4,64.3 502.0,64.3 504.7,76.6 507.4,64.3 510.1,70.5 512.7,64.3 515.4,70.5 518.1,64.3 520.8,70.5 523.4,64.3 526.1,64.3 528.8,76.6 531.5,70.5 534.1,70.5 536.8,70.5 539.5,70.5 542.2,70.5 544.8,64.3 547.5,70.5 550.2,64.3 552.9,64.3 555.5,64.3 558.2,70.5 560.9,70.5 563.6,70.5 566.2,64.3 568.9,64.3 571.6,64.3 574.3,64.3 576.9,70.5 579.6,70.5 582.3,70.5 584.9,76.6 587.6,70.5 590.3,76.6 593.0,76.6 595.6,76.6 598.3,82.8 601.0,76.6 603.7,76.6 606.3,76.6 609.0,70.5 611.7,70.5 614.4,70.5 617.0,70.5 619.7,70.5 622.4,64.3 625.1,64.3 627.7,64.3 630.4,70.5 633.1,76.6 635.8,64.3 638.4,64.3 641.1,64.3 643.8,70.5 646.5,70.5 649.1,70.5 651.8,76.6 654.5,76.6 657.2,76.6 659.8,82.8 662.5,88.9 665.2,82.8 667.9,82.8 670.5,76.6 673.2,70.5 675.9,76.6 678.6,82.8 681.2,76.6 683.9,70.5 686.6,70.5 689.3,64.3 691.9,64.3 694.6,64.3 697.3,64.3 700.0,64.3 702.6,64.3 705.3,64.3 708.0,64.3 710.7,64.3 713.3,64.3 716.0,64.3 718.7,64.3 721.4,64.3 724.0,58.2 726.7,70.5 729.4,64.3 732.1,58.2 734.7,64.3 737.4,64.3 740.1,64.3 742.8,64.3 745.4,64.3 748.1,58.2 750.8,58.2 753.5,58.2 756.1,58.2 758.8,58.2 761.5,64.3 764.1,58.2 766.8,58.2 769.5,58.2 772.2,58.2 774.8,58.2 777.5,58.2 780.2,64.3 782.9,64.3 785.5,58.2 788.2,58.2 790.9,58.2 793.6,64.3 796.2,58.2 798.9,58.2 801.6,58.2 804.3,58.2 806.9,58.2 809.6,58.2 812.3,58.2 815.0,58.2 817.6,58.2 820.3,58.2 823.0,58.2 825.7,58.2 828.3,58.2 831.0,64.3 833.7,70.5 836.4,70.5 839.0,70.5 841.7,76.6 844.4,76.6 847.1,76.6 849.7,82.8 852.4,82.8 855.1,76.6 857.8,76.6 860.4,82.8 863.1,82.8 865.8,76.6 868.5,70.5 871.1,76.6 873.8,70.5 876.5,76.6 879.2,70.5 881.8,70.5 884.5,70.5 887.2,70.5 889.9,76.6 892.5,76.6 895.2,76.6 897.9,82.8 900.6,82.8 903.2,82.8 905.9,82.8 908.6,82.8 911.3,82.8 913.9,76.6 916.6,82.8 919.3,82.8 922.0,82.8 924.6,88.9 927.3,82.8 930.0,76.6 932.7,76.6 935.3,76.6 938.0,76.6"/><polyline fill="none" stroke="#f59e0b" stroke-width="2.5" stroke-linejoin="round" stroke-linecap="round" points="42.0,273.7 44.7,273.7 47.3,267.5 50.0,267.5 52.7,267.5 55.4,273.7 58.0,273.7 60.7,273.7 63.4,273.7 66.1,267.5 68.7,267.5 71.4,261.4 74.1,261.4 76.8,267.5 79.4,267.5 82.1,267.5 84.8,261.4 87.5,261.4 90.1,273.7 92.8,261.4 95.5,261.4 98.2,261.4 100.8,261.4 103.5,267.5 106.2,267.5 108.9,273.7 111.5,279.8 114.2,279.8 116.9,279.8 119.6,279.8 122.2,279.8 124.9,279.8 127.6,286.0 130.3,286.0 132.9,286.0 135.6,279.8 138.3,273.7 141.0,273.7 143.6,279.8 146.3,273.7 149.0,273.7 151.7,267.5 154.3,267.5 157.0,267.5 159.7,267.5 162.4,279.8 165.0,273.7 167.7,279.8 170.4,279.8 173.1,286.0 175.7,286.0 178.4,286.0 181.1,286.0 183.8,286.0 186.4,286.0 189.1,286.0 191.8,286.0 194.5,286.0 197.1,286.0 199.8,286.0 202.5,286.0 205.2,279.8 207.8,279.8 210.5,279.8 213.2,267.5 215.9,279.8 218.5,267.5 221.2,273.7 223.9,273.7 226.5,286.0 229.2,279.8 231.9,286.0 234.6,279.8 237.2,286.0 239.9,286.0 242.6,286.0 245.3,279.8 247.9,273.7 250.6,279.8 253.3,279.8 256.0,279.8 258.6,273.7 261.3,273.7 264.0,279.8 266.7,279.8 269.3,279.8 272.0,279.8 274.7,286.0 277.4,286.0 280.0,286.0 282.7,286.0 285.4,286.0 288.1,286.0 290.7,286.0 293.4,286.0 296.1,286.0 298.8,286.0 301.4,286.0 304.1,286.0 306.8,286.0 309.5,286.0 312.1,286.0 314.8,286.0 317.5,286.0 320.2,286.0 322.8,286.0 325.5,286.0 328.2,286.0 330.9,286.0 333.5,286.0 336.2,286.0 338.9,286.0 341.6,286.0 344.2,286.0 346.9,286.0 349.6,286.0 352.3,286.0 354.9,286.0 357.6,286.0 360.3,286.0 363.0,286.0 365.6,286.0 368.3,286.0 371.0,286.0 373.7,286.0 376.3,286.0 379.0,286.0 381.7,286.0 384.4,286.0 387.0,286.0 389.7,286.0 392.4,286.0 395.1,286.0 397.7,286.0 400.4,279.8 403.1,279.8 405.7,279.8 408.4,279.8 411.1,279.8 413.8,273.7 416.4,286.0 419.1,286.0 421.8,286.0 424.5,286.0 427.1,286.0 429.8,286.0 432.5,286.0 435.2,279.8 437.8,279.8 440.5,279.8 443.2,279.8 445.9,273.7 448.5,273.7 451.2,267.5 453.9,267.5 456.6,261.4 459.2,261.4 461.9,261.4 464.6,261.4 467.3,261.4 469.9,267.5 472.6,267.5 475.3,267.5 478.0,273.7 480.6,279.8 483.3,279.8 486.0,267.5 488.7,267.5 491.3,273.7 494.0,267.5 496.7,273.7 499.4,273.7 502.0,273.7 504.7,273.7 507.4,273.7 510.1,267.5 512.7,273.7 515.4,267.5 518.1,273.7 520.8,267.5 523.4,273.7 526.1,273.7 528.8,261.4 531.5,267.5 534.1,267.5 536.8,267.5 539.5,267.5 542.2,267.5 544.8,273.7 547.5,267.5 550.2,273.7 552.9,273.7 555.5,273.7 558.2,267.5 560.9,267.5 563.6,267.5 566.2,273.7 568.9,273.7 571.6,273.7 574.3,273.7 576.9,267.5 579.6,267.5 582.3,267.5 584.9,267.5 587.6,267.5 590.3,261.4 593.0,261.4 595.6,261.4 598.3,261.4 601.0,261.4 603.7,261.4 606.3,261.4 609.0,267.5 611.7,267.5 614.4,267.5 617.0,267.5 619.7,267.5 622.4,273.7 625.1,273.7 627.7,273.7 630.4,267.5 633.1,267.5 635.8,273.7 638.4,273.7 641.1,273.7 643.8,267.5 646.5,267.5 649.1,267.5 651.8,261.4 654.5,261.4 657.2,261.4 659.8,255.2 662.5,255.2 665.2,255.2 667.9,261.4 670.5,261.4 673.2,267.5 675.9,261.4 678.6,261.4 681.2,261.4 683.9,267.5 686.6,267.5 689.3,273.7 691.9,273.7 694.6,273.7 697.3,273.7 700.0,273.7 702.6,273.7 705.3,273.7 708.0,273.7 710.7,273.7 713.3,273.7 716.0,273.7 718.7,273.7 721.4,273.7 724.0,279.8 726.7,273.7 729.4,273.7 732.1,279.8 734.7,273.7 737.4,273.7 740.1,273.7 742.8,273.7 745.4,273.7 748.1,279.8 750.8,279.8 753.5,279.8 756.1,279.8 758.8,279.8 761.5,273.7 764.1,279.8 766.8,279.8 769.5,279.8 772.2,279.8 774.8,279.8 777.5,279.8 780.2,273.7 782.9,273.7 785.5,279.8 788.2,279.8 790.9,279.8 793.6,279.8 796.2,279.8 798.9,279.8 801.6,279.8 804.3,279.8 806.9,279.8 809.6,279.8 812.3,279.8 815.0,279.8 817.6,279.8 820.3,279.8 823.0,279.8 825.7,279.8 828.3,279.8 831.0,273.7 833.7,273.7 836.4,267.5 839.0,267.5 841.7,261.4 844.4,261.4 847.1,261.4 849.7,255.2 852.4,255.2 855.1,261.4 857.8,261.4 860.4,255.2 863.1,255.2 865.8,267.5 868.5,267.5 871.1,261.4 873.8,267.5 876.5,261.4 879.2,267.5 881.8,267.5 884.5,267.5 887.2,267.5 889.9,267.5 892.5,267.5 895.2,261.4 897.9,255.2 900.6,255.2 903.2,255.2 905.9,255.2 908.6,255.2 911.3,255.2 913.9,261.4 916.6,255.2 919.3,255.2 922.0,255.2 924.6,255.2 927.3,255.2 930.0,261.4 932.7,261.4 935.3,261.4 938.0,261.4"/><polyline fill="none" stroke="#ef4444" stroke-width="2.5" stroke-linejoin="round" stroke-linecap="round" points="42.0,273.7 44.7,273.7 47.3,273.7 50.0,273.7 52.7,267.5 55.4,273.7 58.0,273.7 60.7,273.7 63.4,273.7 66.1,273.7 68.7,273.7 71.4,273.7 74.1,273.7 76.8,273.7 79.4,273.7 82.1,273.7 84.8,273.7 87.5,273.7 90.1,249.1 92.8,273.7 95.5,273.7 98.2,273.7 100.8,273.7 103.5,273.7 106.2,273.7 108.9,273.7 111.5,273.7 114.2,273.7 116.9,273.7 119.6,273.7 122.2,273.7 124.9,273.7 127.6,273.7 130.3,273.7 132.9,273.7 135.6,273.7 138.3,267.5 141.0,273.7 143.6,279.8 146.3,286.0 149.0,286.0 151.7,286.0 154.3,286.0 157.0,286.0 159.7,279.8 162.4,279.8 165.0,286.0 167.7,286.0 170.4,279.8 173.1,286.0 175.7,286.0 178.4,286.0 181.1,286.0 183.8,286.0 186.4,279.8 189.1,286.0 191.8,286.0 194.5,286.0 197.1,286.0 199.8,286.0 202.5,286.0 205.2,286.0 207.8,286.0 210.5,286.0 213.2,286.0 215.9,279.8 218.5,279.8 221.2,286.0 223.9,279.8 226.5,286.0 229.2,286.0 231.9,286.0 234.6,286.0 237.2,286.0 239.9,286.0 242.6,286.0 245.3,286.0 247.9,286.0 250.6,286.0 253.3,286.0 256.0,286.0 258.6,286.0 261.3,286.0 264.0,286.0 266.7,279.8 269.3,286.0 272.0,279.8 274.7,286.0 277.4,286.0 280.0,286.0 282.7,286.0 285.4,286.0 288.1,286.0 290.7,286.0 293.4,286.0 296.1,286.0 298.8,286.0 301.4,286.0 304.1,286.0 306.8,286.0 309.5,286.0 312.1,279.8 314.8,286.0 317.5,286.0 320.2,286.0 322.8,286.0 325.5,286.0 328.2,286.0 330.9,286.0 333.5,286.0 336.2,286.0 338.9,286.0 341.6,286.0 344.2,286.0 346.9,286.0 349.6,286.0 352.3,286.0 354.9,286.0 357.6,286.0 360.3,286.0 363.0,286.0 365.6,286.0 368.3,286.0 371.0,286.0 373.7,286.0 376.3,286.0 379.0,286.0 381.7,286.0 384.4,286.0 387.0,279.8 389.7,279.8 392.4,286.0 395.1,286.0 397.7,286.0 400.4,286.0 403.1,286.0 405.7,273.7 408.4,286.0 411.1,286.0 413.8,286.0 416.4,286.0 419.1,286.0 421.8,286.0 424.5,286.0 427.1,286.0 429.8,286.0 432.5,286.0 435.2,286.0 437.8,286.0 440.5,286.0 443.2,286.0 445.9,286.0 448.5,286.0 451.2,286.0 453.9,286.0 456.6,286.0 459.2,279.8 461.9,286.0 464.6,286.0 467.3,279.8 469.9,279.8 472.6,286.0 475.3,286.0 478.0,286.0 480.6,286.0 483.3,286.0 486.0,286.0 488.7,286.0 491.3,286.0 494.0,286.0 496.7,286.0 499.4,286.0 502.0,286.0 504.7,273.7 507.4,286.0 510.1,286.0 512.7,286.0 515.4,286.0 518.1,286.0 520.8,286.0 523.4,286.0 526.1,286.0 528.8,286.0 531.5,286.0 534.1,286.0 536.8,286.0 539.5,286.0 542.2,286.0 544.8,286.0 547.5,286.0 550.2,286.0 552.9,286.0 555.5,286.0 558.2,286.0 560.9,286.0 563.6,286.0 566.2,286.0 568.9,286.0 571.6,286.0 574.3,286.0 576.9,286.0 579.6,286.0 582.3,286.0 584.9,279.8 587.6,286.0 590.3,286.0 593.0,286.0 595.6,286.0 598.3,279.8 601.0,286.0 603.7,286.0 606.3,286.0 609.0,286.0 611.7,286.0 614.4,286.0 617.0,286.0 619.7,286.0 622.4,286.0 625.1,286.0 627.7,286.0 630.4,286.0 633.1,279.8 635.8,286.0 638.4,286.0 641.1,286.0 643.8,286.0 646.5,286.0 649.1,286.0 651.8,286.0 654.5,286.0 657.2,286.0 659.8,286.0 662.5,279.8 665.2,286.0 667.9,279.8 670.5,286.0 673.2,286.0 675.9,286.0 678.6,279.8 681.2,286.0 683.9,286.0 686.6,286.0 689.3,286.0 691.9,286.0 694.6,286.0 697.3,286.0 700.0,286.0 702.6,286.0 705.3,286.0 708.0,286.0 710.7,286.0 713.3,286.0 716.0,286.0 718.7,286.0 721.4,286.0 724.0,286.0 726.7,279.8 729.4,286.0 732.1,286.0 734.7,286.0 737.4,286.0 740.1,286.0 742.8,286.0 745.4,286.0 748.1,286.0 750.8,286.0 753.5,286.0 756.1,286.0 758.8,286.0 761.5,286.0 764.1,286.0 766.8,286.0 769.5,286.0 772.2,286.0 774.8,286.0 777.5,286.0 780.2,286.0 782.9,286.0 785.5,286.0 788.2,286.0 790.9,286.0 793.6,286.0 796.2,286.0 798.9,286.0 801.6,286.0 804.3,286.0 806.9,286.0 809.6,286.0 812.3,286.0 815.0,286.0 817.6,286.0 820.3,286.0 823.0,286.0 825.7,286.0 828.3,286.0 831.0,286.0 833.7,279.8 836.4,286.0 839.0,286.0 841.7,286.0 844.4,286.0 847.1,286.0 849.7,286.0 852.4,286.0 855.1,286.0 857.8,286.0 860.4,286.0 863.1,286.0 865.8,279.8 868.5,286.0 871.1,286.0 873.8,286.0 876.5,286.0 879.2,286.0 881.8,286.0 884.5,286.0 887.2,286.0 889.9,286.0 892.5,279.8 895.2,286.0 897.9,286.0 900.6,286.0 903.2,286.0 905.9,286.0 908.6,286.0 911.3,286.0 913.9,286.0 916.6,286.0 919.3,286.0 922.0,286.0 924.6,279.8 927.3,286.0 930.0,286.0 932.7,286.0 935.3,286.0 938.0,286.0"/><polyline fill="none" stroke="#a855f7" stroke-width="2.5" stroke-linejoin="round" stroke-linecap="round" points="42.0,286.0 44.7,286.0 47.3,286.0 50.0,286.0 52.7,286.0 55.4,286.0 58.0,286.0 60.7,286.0 63.4,286.0 66.1,286.0 68.7,286.0 71.4,286.0 74.1,286.0 76.8,286.0 79.4,286.0 82.1,286.0 84.8,286.0 87.5,286.0 90.1,286.0 92.8,286.0 95.5,286.0 98.2,286.0 100.8,286.0 103.5,286.0 106.2,286.0 108.9,286.0 111.5,286.0 114.2,286.0 116.9,286.0 119.6,286.0 122.2,286.0 124.9,286.0 127.6,286.0 130.3,286.0 132.9,286.0 135.6,286.0 138.3,286.0 141.0,286.0 143.6,286.0 146.3,286.0 149.0,286.0 151.7,286.0 154.3,286.0 157.0,286.0 159.7,286.0 162.4,286.0 165.0,279.8 167.7,286.0 170.4,286.0 173.1,286.0 175.7,286.0 178.4,286.0 181.1,286.0 183.8,286.0 186.4,286.0 189.1,286.0 191.8,279.8 194.5,286.0 197.1,286.0 199.8,286.0 202.5,286.0 205.2,286.0 207.8,286.0 210.5,286.0 213.2,286.0 215.9,286.0 218.5,286.0 221.2,286.0 223.9,286.0 226.5,286.0 229.2,286.0 231.9,286.0 234.6,286.0 237.2,286.0 239.9,286.0 242.6,286.0 245.3,286.0 247.9,286.0 250.6,286.0 253.3,286.0 256.0,286.0 258.6,286.0 261.3,286.0 264.0,286.0 266.7,286.0 269.3,279.8 272.0,286.0 274.7,286.0 277.4,286.0 280.0,286.0 282.7,286.0 285.4,286.0 288.1,279.8 290.7,286.0 293.4,286.0 296.1,286.0 298.8,286.0 301.4,286.0 304.1,286.0 306.8,286.0 309.5,286.0 312.1,286.0 314.8,286.0 317.5,286.0 320.2,286.0 322.8,286.0 325.5,286.0 328.2,286.0 330.9,286.0 333.5,279.8 336.2,286.0 338.9,286.0 341.6,286.0 344.2,286.0 346.9,286.0 349.6,286.0 352.3,286.0 354.9,286.0 357.6,286.0 360.3,286.0 363.0,286.0 365.6,286.0 368.3,286.0 371.0,286.0 373.7,286.0 376.3,286.0 379.0,286.0 381.7,286.0 384.4,286.0 387.0,286.0 389.7,286.0 392.4,286.0 395.1,286.0 397.7,286.0 400.4,286.0 403.1,286.0 405.7,286.0 408.4,286.0 411.1,286.0 413.8,286.0 416.4,286.0 419.1,286.0 421.8,286.0 424.5,286.0 427.1,286.0 429.8,286.0 432.5,273.7 435.2,286.0 437.8,286.0 440.5,286.0 443.2,286.0 445.9,286.0 448.5,286.0 451.2,286.0 453.9,286.0 456.6,286.0 459.2,286.0 461.9,286.0 464.6,286.0 467.3,286.0 469.9,286.0 472.6,286.0 475.3,286.0 478.0,286.0 480.6,286.0 483.3,286.0 486.0,286.0 488.7,286.0 491.3,286.0 494.0,286.0 496.7,286.0 499.4,286.0 502.0,286.0 504.7,286.0 507.4,286.0 510.1,286.0 512.7,286.0 515.4,286.0 518.1,286.0 520.8,286.0 523.4,286.0 526.1,286.0 528.8,286.0 531.5,286.0 534.1,286.0 536.8,286.0 539.5,286.0 542.2,286.0 544.8,286.0 547.5,286.0 550.2,286.0 552.9,286.0 555.5,286.0 558.2,286.0 560.9,286.0 563.6,286.0 566.2,286.0 568.9,286.0 571.6,286.0 574.3,286.0 576.9,286.0 579.6,286.0 582.3,286.0 584.9,286.0 587.6,286.0 590.3,286.0 593.0,286.0 595.6,286.0 598.3,286.0 601.0,286.0 603.7,286.0 606.3,286.0 609.0,286.0 611.7,286.0 614.4,286.0 617.0,286.0 619.7,286.0 622.4,286.0 625.1,286.0 627.7,286.0 630.4,286.0 633.1,286.0 635.8,286.0 638.4,286.0 641.1,286.0 643.8,286.0 646.5,286.0 649.1,286.0 651.8,286.0 654.5,286.0 657.2,286.0 659.8,286.0 662.5,286.0 665.2,286.0 667.9,286.0 670.5,286.0 673.2,286.0 675.9,286.0 678.6,286.0 681.2,286.0 683.9,286.0 686.6,286.0 689.3,286.0 691.9,286.0 694.6,286.0 697.3,286.0 700.0,286.0 702.6,286.0 705.3,286.0 708.0,286.0 710.7,286.0 713.3,286.0 716.0,286.0 718.7,286.0 721.4,286.0 724.0,286.0 726.7,286.0 729.4,286.0 732.1,286.0 734.7,286.0 737.4,286.0 740.1,286.0 742.8,286.0 745.4,286.0 748.1,286.0 750.8,286.0 753.5,286.0 756.1,286.0 758.8,286.0 761.5,286.0 764.1,286.0 766.8,286.0 769.5,286.0 772.2,286.0 774.8,286.0 777.5,286.0 780.2,286.0 782.9,286.0 785.5,286.0 788.2,286.0 790.9,286.0 793.6,279.8 796.2,286.0 798.9,286.0 801.6,286.0 804.3,286.0 806.9,286.0 809.6,286.0 812.3,286.0 815.0,286.0 817.6,286.0 820.3,286.0 823.0,286.0 825.7,286.0 828.3,286.0 831.0,286.0 833.7,286.0 836.4,286.0 839.0,286.0 841.7,286.0 844.4,286.0 847.1,286.0 849.7,286.0 852.4,286.0 855.1,286.0 857.8,286.0 860.4,286.0 863.1,286.0 865.8,286.0 868.5,286.0 871.1,286.0 873.8,286.0 876.5,286.0 879.2,286.0 881.8,286.0 884.5,286.0 887.2,286.0 889.9,279.8 892.5,286.0 895.2,286.0 897.9,286.0 900.6,286.0 903.2,286.0 905.9,286.0 908.6,286.0 911.3,286.0 913.9,286.0 916.6,286.0 919.3,286.0 922.0,286.0 924.6,286.0 927.3,286.0 930.0,286.0 932.7,286.0 935.3,286.0 938.0,286.0"/><text x="42" y="308" font-size="11" fill="#9fb0d4">29/06 20:29</text><text x="938" y="308" text-anchor="end" font-size="11" fill="#9fb0d4">14/07 22:29</text></svg>