<svg xmlns="http://www.w3.org/2000/svg" viewBox="0 0 960 320" width="960" height="320" font-family="Segoe UI, system-ui, -apple-system, Roboto, Helvetica, Arial, sans-serif" role="img" aria-label="Availability history per region"><rect x="0.5" y="0.5" width="959" height="319" rx="14" fill="#ffffff" stroke="#dce3f1"/><text x="42" y="26" font-size="14" font-weight="600" fill="#14203a">History · 336 points</text><circle cx="47" cy="40" r="5" fill="#22c55e"/><text x="57" y="44" font-size="12" fill="#5a688a">Available</text><circle cx="139.8" cy="40" r="5" fill="#f59e0b"/><text x="149.8" y="44" font-size="12" fill="#5a688a">Saturated</text><circle cx="232.60000000000002" cy="40" r="5" fill="#ef4444"/><text x="242.60000000000002" y="44" font-size="12" fill="#5a688a">Error</text><circle cx="296.6" cy="40" r="5" fill="#a855f7"/><text x="306.6" y="44" font-size="12" fill="#5a688a">Timeout</text><line x1="42" y1="286.0" x2="938" y2="286.0" stroke="#eef2f7" stroke-width="1"/><text x="35" y="289.0" text-anchor="end" font-size="11" fill="#5a688a">0</text><line x1="42" y1="227.5" x2="938" y2="227.5" stroke="#eef2f7" stroke-width="1"/><text x="35" y="230.5" text-anchor="end" font-size="11" fill="#5a688a">10</text><line x1="42" y1="169.0" x2="938" y2="169.0" stroke="#eef2f7" stroke-width="1"/><text x="35" y="172.0" text-anchor="end" font-size="11" fill="#5a688a">19</text><line x1="42" y1="110.5" x2="938" y2="110.5" stroke="#eef2f7" stroke-width="1"/><text x="35" y="113.5" text-anchor="end" font-size="11" fill="#5a688a">28</text><line x1="42" y1="52.0" x2="938" y2="52.0" stroke="#eef2f7" stroke-width="1"/><text x="35" y="55.0" text-anchor="end" font-size="11" fill="#5a688a">38</text><polyline fill="none" stroke="#22c55e" stroke-width="2.5" stroke-linejoin="round" stroke-linecap="round" points="42.0,88.9 44.7,88.9 47.3,101.3 50.0,88.9 52.7,88.9 55.4,88.9 58.0,88.9 60.7,82.8 63.4,82.8 66.1,76.6 68.7,70.5 71.4,70.5 74.1,70.5 76.8,70.5 79.4,70.5 82.1,70.5 84.8,64.3 87.5,64.3 90.1,64.3 92.8,70.5 95.5,82.8 98.2,76.6 100.8,64.3 103.5,64.3 106.2,64.3 108.9,70.5 111.5,70.5 114.2,70.5 116.9,76.6 119.6,64.3 122.2,70.5 124.9,58.2 127.6,64.3 130.3,52.0 132.9,52.0 135.6,52.0 138.3,52.0 141.0,52.0 143.6,58.2 146.3,52.0 149.0,58.2 151.7,52.0 154.3,52.0 157.0,52.0 159.7,52.0 162.4,58.2 165.0,58.2 167.7,58.2 170.4,70.5 173.1,64.3 175.7,76.6 178.4,64.3 181.1,70.5 183.8,52.0 186.4,58.2 189.1,52.0 191.8,58.2 194.5,52.0 197.1,52.0 199.8,52.0 202.5,58.2 205.2,64.3 207.8,58.2 210.5,58.2 213.2,58.2 215.9,64.3 218.5,64.3 221.2,58.2 223.9,64.3 226.5,64.3 229.2,64.3 231.9,52.0 234.6,52.0 237.2,52.0 239.9,52.0 242.6,52.0 245.3,58.2 247.9,52.0 250.6,52.0 253.3,52.0 256.0,52.0 258.6,52.0 261.3,52.0 264.0,52.0 266.7,52.0 269.3,58.2 272.0,52.0 274.7,52.0 277.4,52.0 280.0,52.0 282.7,52.0 285.4,52.0 288.1,52.0 290.7,58.2 293.4,52.0 296.1,52.0 298.8,52.0 301.4,52.0 304.1,52.0 306.8,52.0 309.5,52.0 312.1,52.0 314.8,52.0 317.5,52.0 320.2,52.0 322.8,52.0 325.5,52.0 328.2,52.0 330.9,52.0 333.5,52.0 336.2,52.0 338.9,52.0 341.6,52.0 344.2,58.2 346.9,58.2 349.6,52.0 352.3,52.0 354.9,52.0 357.6,58.2 360.3,58.2 363.0,70.5 365.6,58.2 368.3,58.2 371.0,64.3 373.7,52.0 376.3,52.0 379.0,52.0 381.7,52.0 384.4,52.0 387.0,52.0 389.7,64.3 392.4,58.2 395.1,58.2 397.7,58.2 400.4,58.2 403.1,64.3 405.7,64.3 408.4,70.5 411.1,70.5 413.8,76.6 416.4,82.8 419.1,76.6 421.8,76.6 424.5,82.8 427.1,76.6 429.8,70.5 432.5,70.5 435.2,64.3 437.8,58.2 440.5,58.2 443.2,70.5 445.9,70.5 448.5,64.3 451.2,70.5 453.9,64.3 456.6,64.3 459.2,64.3 461.9,76.6 464.6,64.3 467.3,70.5 469.9,64.3 472.6,70.5 475.3,64.3 478.0,70.5 480.6,64.3 483.3,64.3 486.0,76.6 488.7,70.5 491.3,70.5 494.0,70.5 496.7,70.5 499.4,70.5 502.0,64.3 504.7,70.5 507.4,64.3 510.1,64.3 512.7,64.3 515.4,70.5 518.1,70.5 520.8,70.5 523.4,64.3 526.1,64.3 528.8,64.3 531.5,64.3 534.1,70.5 536.8,70.5 539.5,70.5 542.2,76.6 544.8,70.5 547.5,76.6 550.2,76.6 552.9,76.6 555.5,82.8 558.2,76.6 560.9,76.6 563.6,76.6 566.2,70.5 568.9,70.5 571.6,70.5 574.3,70.5 576.9,70.5 579.6,64.3 582.3,64.3 584.9,64.3 587.6,70.5 590.3,76.6 593.0,64.3 595.6,64.3 598.3,64.3 601.0,70.5 603.7,70.5 606.3,70.5 609.0,76.6 611.7,76.6 614.4,76.6 617.0,82.8 619.7,88.9 622.4,82.8 625.1,82.8 627.7,76.6 630.4,70.5 633.1,76.6 635.8,82.8 638.4,76.6 641.1,70.5 643.8,70.5 646.5,64.3 649.1,64.3 651.8,64.3 654.5,64.3 657.2,64.3 659.8,64.3 662.5,64.3 665.2,64.3 667.9,64.3 670.5,64.3 673.2,64.3 675.9,64.3 678.6,64.3 681.2,58.2 683.9,70.5 686.6,64.3 689.3,58.2 691.9,64.3 694.6,64.3 697.3,64.3 700.0,64.3 702.6,64.3 705.3,58.2 708.0,58.2 710.7,58.2 713.3,58.2 716.0,58.2 718.7,64.3 721.4,58.2 724.0,58.2 726.7,58.2 729.4,58.2 732.1,58.2 734.7,58.2 737.4,64.3 740.1,64.3 742.8,58.2 745.4,58.2 748.1,58.2 750.8,64.3 753.5,58.2 756.1,58.2 758.8,58.2 761.5,58.2 764.1,58.2 766.8,58.2 769.5,58.2 772.2,58.2 774.8,58.2 777.5,58.2 780.2,58.2 782.9,58.2 785.5,58.2 788.2,64.3 790.9,70.5 793.6,70.5 796.2,70.5 798.9,76.6 801.6,76.6 804.3,76.6 806.9,82.8 809.6,82.8 812.3,76.6 815.0,76.6 817.6,82.8 820.3,82.8 823.0,76.6 825.7,70.5 828.3,76.6 831.0,70.5 833.7,76.6 836.4,70.5 839.0,70.5 841.7,70.5 844.4,70.5 847.1,76.6 849.7,76.6 852.4,76.6 855.1,82.8 857.8,82.8 860.4,82.8 863.1,82.8 865.8,82.8 868.5,82.8 871.1,76.6 873.8,82.8 876.5,82.8 879.2,82.8 881.8,88.9 884.5,82.8 887.2,76.6 889.9,76.6 892.5,76.6 895.2,76.6 897.9,76.6 900.6,82.8 903.2,76.6 905.9,76.6 908.6,76.6 911.3,76.6 913.9,76.6 916.6,76.6 919.3,82.8 922.0,82.8 924.6,82.8 927.3,82.8 930.0,82.8 932.7,82.8 935.3,82.8 938.0,82.8"/><polyline fill="none" stroke="#f59e0b" stroke-width="2.5" stroke-linejoin="round" stroke-linecap="round" points="42.0,261.4 44.7,261.4 47.3,273.7 50.0,261.4 52.7,261.4 55.4,261.4 58.0,261.4 60.7,267.5 63.4,267.5 66.1,273.7 68.7,279.8 71.4,279.8 74.1,279.8 76.8,279.8 79.4,279.8 82.1,279.8 84.8,286.0 87.5,286.0 90.1,286.0 92.8,279.8 95.5,273.7 98.2,273.7 100.8,279.8 103.5,273.7 106.2,273.7 108.9,267.5 111.5,267.5 114.2,267.5 116.9,267.5 119.6,279.8 122.2,273.7 124.9,279.8 127.6,279.8 130.3,286.0 132.9,286.0 135.6,286.0 138.3,286.0 141.0,286.0 143.6,286.0 146.3,286.0 149.0,286.0 151.7,286.0 154.3,286.0 157.0,286.0 159.7,286.0 162.4,279.8 165.0,279.8 167.7,279.8 170.4,267.5 173.1,279.8 175.7,267.5 178.4,273.7 181.1,273.7 183.8,286.0 186.4,279.8 189.1,286.0 191.8,279.8 194.5,286.0 197.1,286.0 199.8,286.0 202.5,279.8 205.2,273.7 207.8,279.8 210.5,279.8 213.2,279.8 215.9,273.7 218.5,273.7 221.2,279.8 223.9,279.8 226.5,279.8 229.2,279.8 231.9,286.0 234.6,286.0 237.2,286.0 239.9,286.0 242.6,286.0 245.3,286.0 247.9,286.0 250.6,286.0 253.3,286.0 256.0,286.0 258.6,286.0 261.3,286.0 264.0,286.0 266.7,286.0 269.3,286.0 272.0,286.0 274.7,286.0 277.4,286.0 280.0,286.0 282.7,286.0 285.4,286.0 288.1,286.0 290.7,286.0 293.4,286.0 296.1,286.0 298.8,286.0 301.4,286.0 304.1,286.0 306.8,286.0 309.5,286.0 312.1,286.0 314.8,286.0 317.5,286.0 320.2,286.0 322.8,286.0 325.5,286.0 328.2,286.0 330.9,286.0 333.5,286.0 336.2,286.0 338.9,286.0 341.6,286.0 344.2,286.0 346.9,286.0 349.6,286.0 352.3,286.0 354.9,286.0 357.6,279.8 360.3,279.8 363.0,279.8 365.6,279.8 368.3,279.8 371.0,273.7 373.7,286.0 376.3,286.0 379.0,286.0 381.7,286.0 384.4,286.0 387.0,286.0 389.7,286.0 392.4,279.8 395.1,279.8 397.7,279.8 400.4,279.8 403.1,273.7 405.7,273.7 408.4,267.5 411.1,267.5 413.8,261.4 416.4,261.4 419.1,261.4 421.8,261.4 424.5,261.4 427.1,267.5 429.8,267.5 432.5,267.5 435.2,273.7 437.8,279.8 440.5,279.8 443.2,267.5 445.9,267.5 448.5,273.7 451.2,267.5 453.9,273.7 456.6,273.7 459.2,273.7 461.9,273.7 464.6,273.7 467.3,267.5 469.9,273.7 472.6,267.5 475.3,273.7 478.0,267.5 480.6,273.7 483.3,273.7 486.0,261.4 488.7,267.5 491.3,267.5 494.0,267.5 496.7,267.5 499.4,267.5 502.0,273.7 504.7,267.5 507.4,273.7 510.1,273.7 512.7,273.7 515.4,267.5 518.1,267.5 520.8,267.5 523.4,273.7 526.1,273.7 528.8,273.7 531.5,273.7 534.1,267.5 536.8,267.5 539.5,267.5 542.2,267.5 544.8,267.5 547.5,261.4 550.2,261.4 552.9,261.4 555.5,261.4 558.2,261.4 560.9,261.4 563.6,261.4 566.2,267.5 568.9,267.5 571.6,267.5 574.3,267.5 576.9,267.5 579.6,273.7 582.3,273.7 584.9,273.7 587.6,267.5 590.3,267.5 593.0,273.7 595.6,273.7 598.3,273.7 601.0,267.5 603.7,267.5 606.3,267.5 609.0,261.4 611.7,261.4 614.4,261.4 617.0,255.2 619.7,255.2 622.4,255.2 625.1,261.4 627.7,261.4 630.4,267.5 633.1,261.4 635.8,261.4 638.4,261.4 641.1,267.5 643.8,267.5 646.5,273.7 649.1,273.7 651.8,273.7 654.5,273.7 657.2,273.7 659.8,273.7 662.5,273.7 665.2,273.7 667.9,273.7 670.5,273.7 673.2,273.7 675.9,273.7 678.6,273.7 681.2,279.8 683.9,273.7 686.6,273.7 689.3,279.8 691.9,273.7 694.6,273.7 697.3,273.7 700.0,273.7 702.6,273.7 705.3,279.8 708.0,279.8 710.7,279.8 713.3,279.8 716.0,279.8 718.7,273.7 721.4,279.8 724.0,279.8 726.7,279.8 729.4,279.8 732.1,279.8 734.7,279.8 737.4,273.7 740.1,273.7 742.8,279.8 745.4,279.8 748.1,279.8 750.8,279.8 753.5,279.8 756.1,279.8 758.8,279.8 761.5,279.8 764.1,279.8 766.8,279.8 769.5,279.8 772.2,279.8 774.8,279.8 777.5,279.8 780.2,279.8 782.9,279.8 785.5,279.8 788.2,273.7 790.9,273.7 793.6,267.5 796.2,267.5 798.9,261.4 801.6,261.4 804.3,261.4 806.9,255.2 809.6,255.2 812.3,261.4 815.0,261.4 817.6,255.2 820.3,255.2 823.0,267.5 825.7,267.5 828.3,261.4 831.0,267.5 833.7,261.4 836.4,267.5 839.0,267.5 841.7,267.5 844.4,267.5 847.1,267.5 849.7,267.5 852.4,261.4 855.1,255.2 857.8,255.2 860.4,255.2 863.1,255.2 865.8,255.2 868.5,255.2 871.1,261.4 873.8,255.2 876.5,255.2 879.2,255.2 881.8,255.2 884.5,255.2 887.2,261.4 889.9,261.4 892.5,261.4 895.2,261.4 897.9,261.4 900.6,261.4 903.2,261.4 905.9,261.4 908.6,261.4 911.3,261.4 913.9,261.4 916.6,261.4 919.3,255.2 922.0,255.2 924.6,255.2 927.3,255.2 930.0,255.2 932.7,255.2 935.3,255.2 938.0,255.2"/><polyline fill="none" stroke="#ef4444" stroke-width="2.5" stroke-linejoin="round" stroke-linecap="round" points="42.0,273.7 44.7,273.7 47.3,249.1 50.0,273.7 52.7,273.7 55.4,273.7 58.0,273.7 60.7,273.7 63.4,273.7 66.1,273.7 68.7,273.7 71.4,273.7 74.1,273.7 76.8,273.7 79.4,273.7 82.1,273.7 84.8,273.7 87.5,273.7 90.1,273.7 92.8,273.7 95.5,267.5 98.2,273.7 100.8,279.8 103.5,286.0 106.2,286.0 108.9,286.0 111.5,286.0 114.2,286.0 116.9,279.8 119.6,279.8 122.2,286.0 124.9,286.0 127.6,279.8 130.3,286.0 132.9,286.0 135.6,286.0 138.3,286.0 141.0,286.0 143.6,279.8 146.3,286.0 149.0,286.0 151.7,286.0 154.3,286.0 157.0,286.0 159.7,286.0 162.4,286.0 165.0,286.0 167.7,286.0 170.4,286.0 173.1,279.8 175.7,279.8 178.4,286.0 181.1,279.8 183.8,286.0 186.4,286.0 189.1,286.0 191.8,286.0 194.5,286.0 197.1,286.0 199.8,286.0 202.5,286.0 205.2,286.0 207.8,286.0 210.5,286.0 213.2,286.0 215.9,286.0 218.5,286.0 221.2,286.0 223.9,279.8 226.5,286.0 229.2,279.8 231.9,286.0 234.6,286.0 237.2,286.0 239.9,286.0 242.6,286.0 245.3,286.0 247.9,286.0 250.6,286.0 253.3,286.0 256.0,286.0 258.6,286.0 261.3,286.0 264.0,286.0 266.7,286.0 269.3,279.8 272.0,286.0 274.7,286.0 277.4,286.0 280.0,286.0 282.7,286.0 285.4,286.0 288.1,286.0 290.7,286.0 293.4,286.0 296.1,286.0 298.8,286.0 301.4,286.0 304.1,286.0 306.8,286.0 309.5,286.0 312.1,286.0 314.8,286.0 317.5,286.0 320.2,286.0 322.8,286.0 325.5,286.0 328.2,286.0 330.9,286.0 333.5,286.0 336.2,286.0 338.9,286.0 341.6,286.0 344.2,279.8 346.9,279.8 349.6,286.0 352.3,286.0 354.9,286.0 357.6,286.0 360.3,286.0 363.0,273.7 365.6,286.0 368.3,286.0 371.0,286.0 373.7,286.0 376.3,286.0 379.0,286.0 381.7,286.0 384.4,286.0 387.0,286.0 389.7,286.0 392.4,286.0 395.1,286.0 397.7,286.0 400.4,286.0 403.1,286.0 405.7,286.0 408.4,286.0 411.1,286.0 413.8,286.0 416.4,279.8 419.1,286.0 421.8,286.0 424.5,279.8 427.1,279.8 429.8,286.0 432.5,286.0 435.2,286.0 437.8,286.0 440.5,286.0 443.2,286.0 445.9,286.0 448.5,286.0 451.2,286.0 453.9,286.0 456.6,286.0 459.2,286.0 461.9,273.7 464.6,286.0 467.3,286.0 469.9,286.0 472.6,286.0 475.3,286.0 478.0,286.0 480.6,286.0 483.3,286.0 486.0,286.0 488.7,286.0 491.3,286.0 494.0,286.0 496.7,286.0 499.4,286.0 502.0,286.0 504.7,286.0 507.4,286.0 510.1,286.0 512.7,286.0 515.4,286.0 518.1,286.0 520.8,286.0 523.4,286.0 526.1,286.0 528.8,286.0 531.5,286.0 534.1,286.0 536.8,286.0 539.5,286.0 542.2,279.8 544.8,286.0 547.5,286.0 550.2,286.0 552.9,286.0 555.5,279.8 558.2,286.0 560.9,286.0 563.6,286.0 566.2,286.0 568.9,286.0 571.6,286.0 574.3,286.0 576.9,286.0 579.6,286.0 582.3,286.0 584.9,286.0 587.6,286.0 590.3,279.8 593.0,286.0 595.6,286.0 598.3,286.0 601.0,286.0 603.7,286.0 606.3,286.0 609.0,286.0 611.7,286.0 614.4,286.0 617.0,286.0 619.7,279.8 622.4,286.0 625.1,279.8 627.7,286.0 630.4,286.0 633.1,286.0 635.8,279.8 638.4,286.0 641.1,286.0 643.8,286.0 646.5,286.0 649.1,286.0 651.8,286.0 654.5,286.0 657.2,286.0 659.8,286.0 662.5,286.0 665.2,286.0 667.9,286.0 670.5,286.0 673.2,286.0 675.9,286.0 678.6,286.0 681.2,286.0 683.9,279.8 686.6,286.0 689.3,286.0 691.9,286.0 694.6,286.0 697.3,286.0 700.0,286.0 702.6,286.0 705.3,286.0 708.0,286.0 710.7,286.0 713.3,286.0 716.0,286.0 718.7,286.0 721.4,286.0 724.0,286.0 726.7,286.0 729.4,286.0 732.1,286.0 734.7,286.0 737.4,286.0 740.1,286.0 742.8,286.0 745.4,286.0 748.1,286.0 750.8,286.0 753.5,286.0 756.1,286.0 758.8,286.0 761.5,286.0 764.1,286.0 766.8,286.0 769.5,286.0 772.2,286.0 774.8,286.0 777.5,286.0 780.2,286.0 782.9,286.0 785.5,286.0 788.2,286.0 790.9,279.8 793.6,286.0 796.2,286.0 798.9,286.0 801.6,286.0 804.3,286.0 806.9,286.0 809.6,286.0 812.3,286.0 815.0,286.0 817.6,286.0 820.3,286.0 823.0,279.8 825.7,286.0 828.3,286.0 831.0,286.0 833.7,286.0 836.4,286.0 839.0,286.0 841.7,286.0 844.4,286.0 847.1,286.0 849.7,279.8 852.4,286.0 855.1,286.0 857.8,286.0 860.4,286.0 863.1,286.0 865.8,286.0 868.5,286.0 871.1,286.0 873.8,286.0 876.5,286.0 879.2,286.0 881.8,279.8 884.5,286.0 887.2,286.0 889.9,286.0 892.5,286.0 895.2,286.0 897.9,286.0 900.6,279.8 903.2,286.0 905.9,286.0 908.6,286.0 911.3,286.0 913.9,286.0 916.6,286.0 919.3,286.0 922.0,286.0 924.6,286.0 927.3,286.0 930.0,286.0 932.7,286.0 935.3,286.0 938.0,286.0"/><polyline fill="none" stroke="#a855f7" stroke-width="2.5" stroke-linejoin="round" stroke-linecap="round" points="42.0,286.0 44.7,286.0 47.3,286.0 50.0,286.0 52.7,286.0 55.4,286.0 58.0,286.0 60.7,286.0 63.4,286.0 66.1,286.0 68.7,286.0 71.4,286.0 74.1,286.0 76.8,286.0 79.4,286.0 82.1,286.0 84.8,286.0 87.5,286.0 90.1,286.0 92.8,286.0 95.5,286.0 98.2,286.0 100.8,286.0 103.5,286.0 106.2,286.0 108.9,286.0 111.5,286.0 114.2,286.0 116.9,286.0 119.6,286.0 122.2,279.8 124.9,286.0 127.6,286.0 130.3,286.0 132.9,286.0 135.6,286.0 138.3,286.0 141.0,286.0 143.6,286.0 146.3,286.0 149.0,279.8 151.7,286.0 154.3,286.0 157.0,286.0 159.7,286.0 162.4,286.0 165.0,286.0 167.7,286.0 170.4,286.0 173.1,286.0 175.7,286.0 178.4,286.0 181.1,286.0 183.8,286.0 186.4,286.0 189.1,286.0 191.8,286.0 194.5,286.0 197.1,286.0 199.8,286.0 202.5,286.0 205.2,286.0 207.8,286.0 210.5,286.0 213.2,286.0 215.9,286.0 218.5,286.0 221.2,286.0 223.9,286.0 226.5,279.8 229.2,286.0 231.9,286.0 234.6,286.0 237.2,286.0 239.9,286.0 242.6,286.0 245.3,279.8 247.9,286.0 250.6,286.0 253.3,286.0 256.0,286.0 258.6,286.0 261.3,286.0 264.0,286.0 266.7,286.0 269.3,286.0 272.0,286.0 274.7,286.0 277.4,286.0 280.0,286.0 282.7,286.0 285.4,286.0 288.1,286.0 290.7,279.8 293.4,286.0 296.1,286.0 298.8,286.0 301.4,286.0 304.1,286.0 306.8,286.0 309.5,286.0 312.1,286.0 314.8,286.0 317.5,286.0 320.2,286.0 322.8,286.0 325.5,286.0 328.2,286.0 330.9,286.0 333.5,286.0 336.2,286.0 338.9,286.0 341.6,286.0 344.2,286.0 346.9,286.0 349.6,286.0 352.3,286.0 354.9,286.0 357.6,286.0 360.3,286.0 363.0,286.0 365.6,286.0 368.3,286.0 371.0,286.0 373.7,286.0 376.3,286.0 379.0,286.0 381.7,286.0 384.4,286.0 387.0,286.0 389.7,273.7 392.4,286.0 395.1,286.0 397.7,286.0 400.4,286.0 403.1,286.0 405.7,286.0 408.4,286.0 411.1,286.0 413.8,286.0 416.4,286.0 419.1,286.0 421.8,286.0 424.5,286.0 427.1,286.0 429.8,286.0 432.5,286.0 435.2,286.0 437.8,286.0 440.5,286.0 443.2,286.0 445.9,286.0 448.5,286.0 451.2,286.0 453.9,286.0 456.6,286.0 459.2,286.0 461.9,286.0 464.6,286.0 467.3,286.0 469.9,286.0 472.6,286.0 475.3,286.0 478.0,286.0 480.6,286.0 483.3,286.0 486.0,286.0 488.7,286.0 491.3,286.0 494.0,286.0 496.7,286.0 499.4,286.0 502.0,286.0 504.7,286.0 507.4,286.0 510.1,286.0 512.7,286.0 515.4,286.0 518.1,286.0 520.8,286.0 523.4,286.0 526.1,286.0 528.8,286.0 531.5,286.0 534.1,286.0 536.8,286.0 539.5,286.0 542.2,286.0 544.8,286.0 547.5,286.0 550.2,286.0 552.9,286.0 555.5,286.0 558.2,286.0 560.9,286.0 563.6,286.0 566.2,286.0 568.9,286.0 571.6,286.0 574.3,286.0 576.9,286.0 579.6,286.0 582.3,286.0 584.9,286.0 587.6,286.0 590.3,286.0 593.0,286.0 595.6,286.0 598.3,286.0 601.0,286.0 603.7,286.0 606.3,286.0 609.0,286.0 611.7,286.0 614.4,286.0 617.0,286.0 619.7,286.0 622.4,286.0 625.1,286.0 627.7,286.0 630.4,286.0 633.1,286.0 635.8,286.0 638.4,286.0 641.1,286.0 643.8,286.0 646.5,286.0 649.1,286.0 651.8,286.0 654.5,286.0 657.2,286.0 659.8,286.0 662.5,286.0 665.2,286.0 667.9,286.0 670.5,286.0 673.2,286.0 675.9,286.0 678.6,286.0 681.2,286.0 683.9,286.0 686.6,286.0 689.3,286.0 691.9,286.0 694.6,286.0 697.3,286.0 700.0,286.0 702.6,286.0 705.3,286.0 708.0,286.0 710.7,286.0 713.3,286.0 716.0,286.0 718.7,286.0 721.4,286.0 724.0,286.0 726.7,286.0 729.4,286.0 732.1,286.0 734.7,286.0 737.4,286.0 740.1,286.0 742.8,286.0 745.4,286.0 748.1,286.0 750.8,279.8 753.5,286.0 756.1,286.0 758.8,286.0 761.5,286.0 764.1,286.0 766.8,286.0 769.5,286.0 772.2,286.0 774.8,286.0 777.5,286.0 780.2,286.0 782.9,286.0 785.5,286.0 788.2,286.0 790.9,286.0 793.6,286.0 796.2,286.0 798.9,286.0 801.6,286.0 804.3,286.0 806.9,286.0 809.6,286.0 812.3,286.0 815.0,286.0 817.6,286.0 820.3,286.0 823.0,286.0 825.7,286.0 828.3,286.0 831.0,286.0 833.7,286.0 836.4,286.0 839.0,286.0 841.7,286.0 844.4,286.0 847.1,279.8 849.7,286.0 852.4,286.0 855.1,286.0 857.8,286.0 860.4,286.0 863.1,286.0 865.8,286.0 868.5,286.0 871.1,286.0 873.8,286.0 876.5,286.0 879.2,286.0 881.8,286.0 884.5,286.0 887.2,286.0 889.9,286.0 892.5,286.0 895.2,286.0 897.9,286.0 900.6,286.0 903.2,286.0 905.9,286.0 908.6,286.0 911.3,286.0 913.9,286.0 916.6,286.0 919.3,286.0 922.0,286.0 924.6,286.0 927.3,286.0 930.0,286.0 932.7,286.0 935.3,286.0 938.0,286.0"/><text x="42" y="308" font-size="11" fill="#5a688a">30/06 12:32</text><text x="938" y="308" text-anchor="end" font-size="11" fill="#5a688a">15/07 14:30</text></svg>