<svg xmlns="http://www.w3.org/2000/svg" viewBox="0 0 960 320" width="960" height="320" font-family="Segoe UI, system-ui, -apple-system, Roboto, Helvetica, Arial, sans-serif" role="img" aria-label="Availability history per region"><rect x="0.5" y="0.5" width="959" height="319" rx="14" fill="#ffffff" stroke="#dce3f1"/><text x="42" y="26" font-size="14" font-weight="600" fill="#14203a">History · 333 points</text><circle cx="47" cy="40" r="5" fill="#22c55e"/><text x="57" y="44" font-size="12" fill="#5a688a">Available</text><circle cx="139.8" cy="40" r="5" fill="#f59e0b"/><text x="149.8" y="44" font-size="12" fill="#5a688a">Saturated</text><circle cx="232.60000000000002" cy="40" r="5" fill="#ef4444"/><text x="242.60000000000002" y="44" font-size="12" fill="#5a688a">Error</text><circle cx="296.6" cy="40" r="5" fill="#a855f7"/><text x="306.6" y="44" font-size="12" fill="#5a688a">Timeout</text><line x1="42" y1="286.0" x2="938" y2="286.0" stroke="#eef2f7" stroke-width="1"/><text x="35" y="289.0" text-anchor="end" font-size="11" fill="#5a688a">0</text><line x1="42" y1="227.5" x2="938" y2="227.5" stroke="#eef2f7" stroke-width="1"/><text x="35" y="230.5" text-anchor="end" font-size="11" fill="#5a688a">10</text><line x1="42" y1="169.0" x2="938" y2="169.0" stroke="#eef2f7" stroke-width="1"/><text x="35" y="172.0" text-anchor="end" font-size="11" fill="#5a688a">20</text><line x1="42" y1="110.5" x2="938" y2="110.5" stroke="#eef2f7" stroke-width="1"/><text x="35" y="113.5" text-anchor="end" font-size="11" fill="#5a688a">29</text><line x1="42" y1="52.0" x2="938" y2="52.0" stroke="#eef2f7" stroke-width="1"/><text x="35" y="55.0" text-anchor="end" font-size="11" fill="#5a688a">39</text><polyline fill="none" stroke="#22c55e" stroke-width="2.5" stroke-linejoin="round" stroke-linecap="round" points="42.0,70.0 44.7,70.0 47.4,88.0 50.1,88.0 52.8,76.0 55.5,76.0 58.2,76.0 60.9,70.0 63.6,76.0 66.3,70.0 69.0,64.0 71.7,58.0 74.4,58.0 77.1,58.0 79.8,58.0 82.5,58.0 85.2,58.0 87.9,58.0 90.6,58.0 93.3,58.0 96.0,58.0 98.7,58.0 101.4,58.0 104.1,58.0 106.8,58.0 109.5,58.0 112.2,58.0 114.9,58.0 117.6,58.0 120.3,58.0 123.0,58.0 125.7,70.0 128.4,76.0 131.1,94.0 133.8,64.0 136.5,64.0 139.2,58.0 141.9,58.0 144.6,58.0 147.3,70.0 150.0,76.0 152.7,76.0 155.3,82.0 158.0,82.0 160.7,82.0 163.4,82.0 166.1,76.0 168.8,64.0 171.5,70.0 174.2,70.0 176.9,82.0 179.6,76.0 182.3,76.0 185.0,82.0 187.7,76.0 190.4,76.0 193.1,76.0 195.8,64.0 198.5,64.0 201.2,76.0 203.9,76.0 206.6,76.0 209.3,88.0 212.0,70.0 214.7,64.0 217.4,58.0 220.1,58.0 222.8,70.0 225.5,70.0 228.2,70.0 230.9,76.0 233.6,70.0 236.3,70.0 239.0,70.0 241.7,70.0 244.4,76.0 247.1,82.0 249.8,76.0 252.5,70.0 255.2,70.0 257.9,70.0 260.6,70.0 263.3,76.0 266.0,70.0 268.7,70.0 271.4,70.0 274.1,70.0 276.8,70.0 279.5,70.0 282.2,70.0 284.9,70.0 287.6,70.0 290.3,70.0 293.0,70.0 295.7,70.0 298.4,70.0 301.1,70.0 303.8,70.0 306.5,70.0 309.2,70.0 311.9,70.0 314.6,70.0 317.3,70.0 320.0,70.0 322.7,70.0 325.4,70.0 328.1,70.0 330.8,70.0 333.5,70.0 336.2,70.0 338.9,70.0 341.6,70.0 344.3,70.0 347.0,70.0 349.7,70.0 352.4,70.0 355.1,70.0 357.8,70.0 360.5,70.0 363.2,70.0 365.9,70.0 368.6,70.0 371.3,70.0 374.0,70.0 376.7,70.0 379.3,70.0 382.0,70.0 384.7,70.0 387.4,70.0 390.1,70.0 392.8,70.0 395.5,70.0 398.2,70.0 400.9,70.0 403.6,70.0 406.3,70.0 409.0,70.0 411.7,70.0 414.4,70.0 417.1,70.0 419.8,70.0 422.5,70.0 425.2,70.0 427.9,70.0 430.6,70.0 433.3,70.0 436.0,70.0 438.7,70.0 441.4,70.0 444.1,70.0 446.8,70.0 449.5,76.0 452.2,70.0 454.9,70.0 457.6,70.0 460.3,70.0 463.0,70.0 465.7,76.0 468.4,76.0 471.1,88.0 473.8,88.0 476.5,88.0 479.2,94.0 481.9,94.0 484.6,94.0 487.3,94.0 490.0,88.0 492.7,88.0 495.4,82.0 498.1,82.0 500.8,82.0 503.5,88.0 506.2,88.0 508.9,94.0 511.6,82.0 514.3,82.0 517.0,82.0 519.7,82.0 522.4,88.0 525.1,88.0 527.8,94.0 530.5,94.0 533.2,88.0 535.9,88.0 538.6,88.0 541.3,94.0 544.0,94.0 546.7,106.0 549.4,94.0 552.1,94.0 554.8,94.0 557.5,94.0 560.2,88.0 562.9,88.0 565.6,82.0 568.3,76.0 571.0,76.0 573.7,76.0 576.4,76.0 579.1,76.0 581.8,76.0 584.5,70.0 587.2,70.0 589.9,70.0 592.6,76.0 595.3,88.0 598.0,82.0 600.7,70.0 603.3,70.0 606.0,70.0 608.7,76.0 611.4,76.0 614.1,76.0 616.8,82.0 619.5,70.0 622.2,76.0 624.9,64.0 627.6,70.0 630.3,58.0 633.0,58.0 635.7,58.0 638.4,58.0 641.1,58.0 643.8,64.0 646.5,58.0 649.2,64.0 651.9,58.0 654.6,58.0 657.3,58.0 660.0,58.0 662.7,64.0 665.4,64.0 668.1,64.0 670.8,76.0 673.5,70.0 676.2,82.0 678.9,70.0 681.6,76.0 684.3,58.0 687.0,64.0 689.7,58.0 692.4,64.0 695.1,58.0 697.8,58.0 700.5,58.0 703.2,64.0 705.9,70.0 708.6,64.0 711.3,64.0 714.0,64.0 716.7,70.0 719.4,70.0 722.1,64.0 724.8,70.0 727.5,70.0 730.2,70.0 732.9,58.0 735.6,58.0 738.3,58.0 741.0,58.0 743.7,58.0 746.4,64.0 749.1,58.0 751.8,58.0 754.5,58.0 757.2,58.0 759.9,58.0 762.6,58.0 765.3,58.0 768.0,58.0 770.7,64.0 773.4,58.0 776.1,58.0 778.8,58.0 781.5,58.0 784.2,58.0 786.9,58.0 789.6,58.0 792.3,64.0 795.0,58.0 797.7,58.0 800.4,58.0 803.1,58.0 805.8,58.0 808.5,58.0 811.2,58.0 813.9,58.0 816.6,58.0 819.3,58.0 822.0,58.0 824.7,58.0 827.3,58.0 830.0,58.0 832.7,58.0 835.4,58.0 838.1,58.0 840.8,58.0 843.5,58.0 846.2,64.0 848.9,64.0 851.6,58.0 854.3,58.0 857.0,58.0 859.7,64.0 862.4,64.0 865.1,76.0 867.8,64.0 870.5,64.0 873.2,70.0 875.9,58.0 878.6,58.0 881.3,58.0 884.0,58.0 886.7,58.0 889.4,58.0 892.1,70.0 894.8,64.0 897.5,64.0 900.2,64.0 902.9,64.0 905.6,70.0 908.3,70.0 911.0,76.0 913.7,76.0 916.4,82.0 919.1,88.0 921.8,82.0 924.5,82.0 927.2,88.0 929.9,82.0 932.6,76.0 935.3,76.0 938.0,70.0"/><polyline fill="none" stroke="#f59e0b" stroke-width="2.5" stroke-linejoin="round" stroke-linecap="round" points="42.0,274.0 44.7,274.0 47.4,274.0 50.1,280.0 52.8,268.0 55.5,268.0 58.2,268.0 60.9,274.0 63.6,274.0 66.3,274.0 69.0,280.0 71.7,286.0 74.4,286.0 77.1,286.0 79.8,286.0 82.5,286.0 85.2,286.0 87.9,286.0 90.6,286.0 93.3,286.0 96.0,286.0 98.7,286.0 101.4,286.0 104.1,286.0 106.8,286.0 109.5,286.0 112.2,286.0 114.9,286.0 117.6,286.0 120.3,286.0 123.0,286.0 125.7,274.0 128.4,280.0 131.1,280.0 133.8,280.0 136.5,280.0 139.2,286.0 141.9,286.0 144.6,286.0 147.3,274.0 150.0,268.0 152.7,268.0 155.3,262.0 158.0,262.0 160.7,262.0 163.4,262.0 166.1,268.0 168.8,280.0 171.5,280.0 174.2,274.0 176.9,262.0 179.6,268.0 182.3,268.0 185.0,262.0 187.7,268.0 190.4,268.0 193.1,268.0 195.8,280.0 198.5,280.0 201.2,268.0 203.9,268.0 206.6,268.0 209.3,262.0 212.0,274.0 214.7,280.0 217.4,286.0 220.1,286.0 222.8,274.0 225.5,274.0 228.2,274.0 230.9,274.0 233.6,274.0 236.3,274.0 239.0,274.0 241.7,274.0 244.4,280.0 247.1,274.0 249.8,280.0 252.5,286.0 255.2,286.0 257.9,286.0 260.6,286.0 263.3,280.0 266.0,286.0 268.7,286.0 271.4,286.0 274.1,286.0 276.8,286.0 279.5,286.0 282.2,286.0 284.9,286.0 287.6,286.0 290.3,286.0 293.0,286.0 295.7,286.0 298.4,286.0 301.1,286.0 303.8,286.0 306.5,286.0 309.2,286.0 311.9,286.0 314.6,286.0 317.3,286.0 320.0,286.0 322.7,286.0 325.4,286.0 328.1,286.0 330.8,286.0 333.5,286.0 336.2,286.0 338.9,286.0 341.6,286.0 344.3,286.0 347.0,286.0 349.7,286.0 352.4,286.0 355.1,286.0 357.8,286.0 360.5,286.0 363.2,286.0 365.9,286.0 368.6,286.0 371.3,286.0 374.0,286.0 376.7,286.0 379.3,286.0 382.0,286.0 384.7,286.0 387.4,286.0 390.1,286.0 392.8,286.0 395.5,286.0 398.2,286.0 400.9,286.0 403.6,286.0 406.3,286.0 409.0,286.0 411.7,286.0 414.4,286.0 417.1,286.0 419.8,286.0 422.5,286.0 425.2,286.0 427.9,286.0 430.6,286.0 433.3,286.0 436.0,286.0 438.7,286.0 441.4,286.0 444.1,286.0 446.8,286.0 449.5,286.0 452.2,286.0 454.9,286.0 457.6,286.0 460.3,286.0 463.0,286.0 465.7,286.0 468.4,280.0 471.1,268.0 473.8,268.0 476.5,268.0 479.2,268.0 481.9,262.0 484.6,262.0 487.3,262.0 490.0,268.0 492.7,268.0 495.4,274.0 498.1,274.0 500.8,274.0 503.5,268.0 506.2,268.0 508.9,268.0 511.6,274.0 514.3,274.0 517.0,274.0 519.7,274.0 522.4,268.0 525.1,268.0 527.8,262.0 530.5,262.0 533.2,268.0 535.9,268.0 538.6,268.0 541.3,262.0 544.0,262.0 546.7,274.0 549.4,262.0 552.1,262.0 554.8,262.0 557.5,262.0 560.2,268.0 562.9,268.0 565.6,274.0 568.3,280.0 571.0,280.0 573.7,280.0 576.4,280.0 579.1,280.0 581.8,280.0 584.5,286.0 587.2,286.0 589.9,286.0 592.6,280.0 595.3,274.0 598.0,274.0 600.7,280.0 603.3,274.0 606.0,274.0 608.7,268.0 611.4,268.0 614.1,268.0 616.8,268.0 619.5,280.0 622.2,274.0 624.9,280.0 627.6,280.0 630.3,286.0 633.0,286.0 635.7,286.0 638.4,286.0 641.1,286.0 643.8,286.0 646.5,286.0 649.2,286.0 651.9,286.0 654.6,286.0 657.3,286.0 660.0,286.0 662.7,280.0 665.4,280.0 668.1,280.0 670.8,268.0 673.5,280.0 676.2,268.0 678.9,274.0 681.6,274.0 684.3,286.0 687.0,280.0 689.7,286.0 692.4,280.0 695.1,286.0 697.8,286.0 700.5,286.0 703.2,280.0 705.9,274.0 708.6,280.0 711.3,280.0 714.0,280.0 716.7,274.0 719.4,274.0 722.1,280.0 724.8,280.0 727.5,280.0 730.2,280.0 732.9,286.0 735.6,286.0 738.3,286.0 741.0,286.0 743.7,286.0 746.4,286.0 749.1,286.0 751.8,286.0 754.5,286.0 757.2,286.0 759.9,286.0 762.6,286.0 765.3,286.0 768.0,286.0 770.7,286.0 773.4,286.0 776.1,286.0 778.8,286.0 781.5,286.0 784.2,286.0 786.9,286.0 789.6,286.0 792.3,286.0 795.0,286.0 797.7,286.0 800.4,286.0 803.1,286.0 805.8,286.0 808.5,286.0 811.2,286.0 813.9,286.0 816.6,286.0 819.3,286.0 822.0,286.0 824.7,286.0 827.3,286.0 830.0,286.0 832.7,286.0 835.4,286.0 838.1,286.0 840.8,286.0 843.5,286.0 846.2,286.0 848.9,286.0 851.6,286.0 854.3,286.0 857.0,286.0 859.7,280.0 862.4,280.0 865.1,280.0 867.8,280.0 870.5,280.0 873.2,274.0 875.9,286.0 878.6,286.0 881.3,286.0 884.0,286.0 886.7,286.0 889.4,286.0 892.1,286.0 894.8,280.0 897.5,280.0 900.2,280.0 902.9,280.0 905.6,274.0 908.3,274.0 911.0,268.0 913.7,268.0 916.4,262.0 919.1,262.0 921.8,262.0 924.5,262.0 927.2,262.0 929.9,268.0 932.6,268.0 935.3,268.0 938.0,274.0"/><polyline fill="none" stroke="#ef4444" stroke-width="2.5" stroke-linejoin="round" stroke-linecap="round" points="42.0,280.0 44.7,280.0 47.4,268.0 50.1,262.0 52.8,286.0 55.5,286.0 58.2,286.0 60.9,286.0 63.6,280.0 66.3,286.0 69.0,286.0 71.7,286.0 74.4,286.0 77.1,286.0 79.8,286.0 82.5,286.0 85.2,286.0 87.9,286.0 90.6,286.0 93.3,286.0 96.0,286.0 98.7,286.0 101.4,286.0 104.1,286.0 106.8,286.0 109.5,286.0 112.2,286.0 114.9,286.0 117.6,286.0 120.3,286.0 123.0,286.0 125.7,286.0 128.4,274.0 131.1,256.0 133.8,286.0 136.5,286.0 139.2,286.0 141.9,286.0 144.6,286.0 147.3,286.0 150.0,286.0 152.7,286.0 155.3,286.0 158.0,286.0 160.7,286.0 163.4,286.0 166.1,286.0 168.8,286.0 171.5,280.0 174.2,286.0 176.9,286.0 179.6,286.0 182.3,286.0 185.0,286.0 187.7,286.0 190.4,286.0 193.1,286.0 195.8,286.0 198.5,286.0 201.2,286.0 203.9,286.0 206.6,286.0 209.3,280.0 212.0,286.0 214.7,286.0 217.4,286.0 220.1,286.0 222.8,286.0 225.5,286.0 228.2,286.0 230.9,286.0 233.6,286.0 236.3,286.0 239.0,286.0 241.7,286.0 244.4,274.0 247.1,274.0 249.8,274.0 252.5,274.0 255.2,274.0 257.9,274.0 260.6,274.0 263.3,274.0 266.0,274.0 268.7,274.0 271.4,274.0 274.1,274.0 276.8,274.0 279.5,274.0 282.2,274.0 284.9,274.0 287.6,274.0 290.3,274.0 293.0,274.0 295.7,274.0 298.4,274.0 301.1,274.0 303.8,274.0 306.5,274.0 309.2,274.0 311.9,274.0 314.6,274.0 317.3,274.0 320.0,274.0 322.7,274.0 325.4,274.0 328.1,274.0 330.8,274.0 333.5,274.0 336.2,274.0 338.9,274.0 341.6,274.0 344.3,274.0 347.0,274.0 349.7,274.0 352.4,274.0 355.1,274.0 357.8,274.0 360.5,274.0 363.2,274.0 365.9,274.0 368.6,274.0 371.3,274.0 374.0,274.0 376.7,274.0 379.3,274.0 382.0,274.0 384.7,274.0 387.4,274.0 390.1,274.0 392.8,274.0 395.5,274.0 398.2,274.0 400.9,274.0 403.6,274.0 406.3,274.0 409.0,274.0 411.7,274.0 414.4,274.0 417.1,274.0 419.8,274.0 422.5,274.0 425.2,274.0 427.9,274.0 430.6,274.0 433.3,274.0 436.0,274.0 438.7,274.0 441.4,274.0 444.1,274.0 446.8,274.0 449.5,268.0 452.2,274.0 454.9,274.0 457.6,274.0 460.3,274.0 463.0,274.0 465.7,274.0 468.4,274.0 471.1,274.0 473.8,274.0 476.5,274.0 479.2,268.0 481.9,274.0 484.6,274.0 487.3,274.0 490.0,274.0 492.7,274.0 495.4,274.0 498.1,274.0 500.8,274.0 503.5,274.0 506.2,274.0 508.9,268.0 511.6,274.0 514.3,274.0 517.0,274.0 519.7,274.0 522.4,274.0 525.1,274.0 527.8,274.0 530.5,274.0 533.2,274.0 535.9,274.0 538.6,274.0 541.3,274.0 544.0,274.0 546.7,250.0 549.4,274.0 552.1,274.0 554.8,274.0 557.5,274.0 560.2,274.0 562.9,274.0 565.6,274.0 568.3,274.0 571.0,274.0 573.7,274.0 576.4,274.0 579.1,274.0 581.8,274.0 584.5,274.0 587.2,274.0 589.9,274.0 592.6,274.0 595.3,268.0 598.0,274.0 600.7,280.0 603.3,286.0 606.0,286.0 608.7,286.0 611.4,286.0 614.1,286.0 616.8,280.0 619.5,280.0 622.2,286.0 624.9,286.0 627.6,280.0 630.3,286.0 633.0,286.0 635.7,286.0 638.4,286.0 641.1,286.0 643.8,280.0 646.5,286.0 649.2,286.0 651.9,286.0 654.6,286.0 657.3,286.0 660.0,286.0 662.7,286.0 665.4,286.0 668.1,286.0 670.8,286.0 673.5,280.0 676.2,280.0 678.9,286.0 681.6,280.0 684.3,286.0 687.0,286.0 689.7,286.0 692.4,286.0 695.1,286.0 697.8,286.0 700.5,286.0 703.2,286.0 705.9,286.0 708.6,286.0 711.3,286.0 714.0,286.0 716.7,286.0 719.4,286.0 722.1,286.0 724.8,280.0 727.5,286.0 730.2,280.0 732.9,286.0 735.6,286.0 738.3,286.0 741.0,286.0 743.7,286.0 746.4,286.0 749.1,286.0 751.8,286.0 754.5,286.0 757.2,286.0 759.9,286.0 762.6,286.0 765.3,286.0 768.0,286.0 770.7,280.0 773.4,286.0 776.1,286.0 778.8,286.0 781.5,286.0 784.2,286.0 786.9,286.0 789.6,286.0 792.3,286.0 795.0,286.0 797.7,286.0 800.4,286.0 803.1,286.0 805.8,286.0 808.5,286.0 811.2,286.0 813.9,286.0 816.6,286.0 819.3,286.0 822.0,286.0 824.7,286.0 827.3,286.0 830.0,286.0 832.7,286.0 835.4,286.0 838.1,286.0 840.8,286.0 843.5,286.0 846.2,280.0 848.9,280.0 851.6,286.0 854.3,286.0 857.0,286.0 859.7,286.0 862.4,286.0 865.1,274.0 867.8,286.0 870.5,286.0 873.2,286.0 875.9,286.0 878.6,286.0 881.3,286.0 884.0,286.0 886.7,286.0 889.4,286.0 892.1,286.0 894.8,286.0 897.5,286.0 900.2,286.0 902.9,286.0 905.6,286.0 908.3,286.0 911.0,286.0 913.7,286.0 916.4,286.0 919.1,280.0 921.8,286.0 924.5,286.0 927.2,280.0 929.9,280.0 932.6,286.0 935.3,286.0 938.0,286.0"/><polyline fill="none" stroke="#a855f7" stroke-width="2.5" stroke-linejoin="round" stroke-linecap="round" points="42.0,286.0 44.7,286.0 47.4,286.0 50.1,286.0 52.8,286.0 55.5,286.0 58.2,286.0 60.9,286.0 63.6,286.0 66.3,286.0 69.0,286.0 71.7,286.0 74.4,286.0 77.1,286.0 79.8,286.0 82.5,286.0 85.2,286.0 87.9,286.0 90.6,286.0 93.3,286.0 96.0,286.0 98.7,286.0 101.4,286.0 104.1,286.0 106.8,286.0 109.5,286.0 112.2,286.0 114.9,286.0 117.6,286.0 120.3,286.0 123.0,286.0 125.7,286.0 128.4,286.0 131.1,286.0 133.8,286.0 136.5,286.0 139.2,286.0 141.9,286.0 144.6,286.0 147.3,286.0 150.0,286.0 152.7,286.0 155.3,286.0 158.0,286.0 160.7,286.0 163.4,286.0 166.1,286.0 168.8,286.0 171.5,286.0 174.2,286.0 176.9,286.0 179.6,286.0 182.3,286.0 185.0,286.0 187.7,286.0 190.4,286.0 193.1,286.0 195.8,286.0 198.5,286.0 201.2,286.0 203.9,286.0 206.6,286.0 209.3,286.0 212.0,286.0 214.7,286.0 217.4,286.0 220.1,286.0 222.8,286.0 225.5,286.0 228.2,286.0 230.9,280.0 233.6,286.0 236.3,286.0 239.0,286.0 241.7,286.0 244.4,286.0 247.1,286.0 249.8,286.0 252.5,286.0 255.2,286.0 257.9,286.0 260.6,286.0 263.3,286.0 266.0,286.0 268.7,286.0 271.4,286.0 274.1,286.0 276.8,286.0 279.5,286.0 282.2,286.0 284.9,286.0 287.6,286.0 290.3,286.0 293.0,286.0 295.7,286.0 298.4,286.0 301.1,286.0 303.8,286.0 306.5,286.0 309.2,286.0 311.9,286.0 314.6,286.0 317.3,286.0 320.0,286.0 322.7,286.0 325.4,286.0 328.1,286.0 330.8,286.0 333.5,286.0 336.2,286.0 338.9,286.0 341.6,286.0 344.3,286.0 347.0,286.0 349.7,286.0 352.4,286.0 355.1,286.0 357.8,286.0 360.5,286.0 363.2,286.0 365.9,286.0 368.6,286.0 371.3,286.0 374.0,286.0 376.7,286.0 379.3,286.0 382.0,286.0 384.7,286.0 387.4,286.0 390.1,286.0 392.8,286.0 395.5,286.0 398.2,286.0 400.9,286.0 403.6,286.0 406.3,286.0 409.0,286.0 411.7,286.0 414.4,286.0 417.1,286.0 419.8,286.0 422.5,286.0 425.2,286.0 427.9,286.0 430.6,286.0 433.3,286.0 436.0,286.0 438.7,286.0 441.4,286.0 444.1,286.0 446.8,286.0 449.5,286.0 452.2,286.0 454.9,286.0 457.6,286.0 460.3,286.0 463.0,286.0 465.7,280.0 468.4,286.0 471.1,286.0 473.8,286.0 476.5,286.0 479.2,286.0 481.9,286.0 484.6,286.0 487.3,286.0 490.0,286.0 492.7,286.0 495.4,286.0 498.1,286.0 500.8,286.0 503.5,286.0 506.2,286.0 508.9,286.0 511.6,286.0 514.3,286.0 517.0,286.0 519.7,286.0 522.4,286.0 525.1,286.0 527.8,286.0 530.5,286.0 533.2,286.0 535.9,286.0 538.6,286.0 541.3,286.0 544.0,286.0 546.7,286.0 549.4,286.0 552.1,286.0 554.8,286.0 557.5,286.0 560.2,286.0 562.9,286.0 565.6,286.0 568.3,286.0 571.0,286.0 573.7,286.0 576.4,286.0 579.1,286.0 581.8,286.0 584.5,286.0 587.2,286.0 589.9,286.0 592.6,286.0 595.3,286.0 598.0,286.0 600.7,286.0 603.3,286.0 606.0,286.0 608.7,286.0 611.4,286.0 614.1,286.0 616.8,286.0 619.5,286.0 622.2,280.0 624.9,286.0 627.6,286.0 630.3,286.0 633.0,286.0 635.7,286.0 638.4,286.0 641.1,286.0 643.8,286.0 646.5,286.0 649.2,280.0 651.9,286.0 654.6,286.0 657.3,286.0 660.0,286.0 662.7,286.0 665.4,286.0 668.1,286.0 670.8,286.0 673.5,286.0 676.2,286.0 678.9,286.0 681.6,286.0 684.3,286.0 687.0,286.0 689.7,286.0 692.4,286.0 695.1,286.0 697.8,286.0 700.5,286.0 703.2,286.0 705.9,286.0 708.6,286.0 711.3,286.0 714.0,286.0 716.7,286.0 719.4,286.0 722.1,286.0 724.8,286.0 727.5,280.0 730.2,286.0 732.9,286.0 735.6,286.0 738.3,286.0 741.0,286.0 743.7,286.0 746.4,280.0 749.1,286.0 751.8,286.0 754.5,286.0 757.2,286.0 759.9,286.0 762.6,286.0 765.3,286.0 768.0,286.0 770.7,286.0 773.4,286.0 776.1,286.0 778.8,286.0 781.5,286.0 784.2,286.0 786.9,286.0 789.6,286.0 792.3,280.0 795.0,286.0 797.7,286.0 800.4,286.0 803.1,286.0 805.8,286.0 808.5,286.0 811.2,286.0 813.9,286.0 816.6,286.0 819.3,286.0 822.0,286.0 824.7,286.0 827.3,286.0 830.0,286.0 832.7,286.0 835.4,286.0 838.1,286.0 840.8,286.0 843.5,286.0 846.2,286.0 848.9,286.0 851.6,286.0 854.3,286.0 857.0,286.0 859.7,286.0 862.4,286.0 865.1,286.0 867.8,286.0 870.5,286.0 873.2,286.0 875.9,286.0 878.6,286.0 881.3,286.0 884.0,286.0 886.7,286.0 889.4,286.0 892.1,274.0 894.8,286.0 897.5,286.0 900.2,286.0 902.9,286.0 905.6,286.0 908.3,286.0 911.0,286.0 913.7,286.0 916.4,286.0 919.1,286.0 921.8,286.0 924.5,286.0 927.2,286.0 929.9,286.0 932.6,286.0 935.3,286.0 938.0,286.0"/><text x="42" y="308" font-size="11" fill="#5a688a">19/06 12:43</text><text x="938" y="308" text-anchor="end" font-size="11" fill="#5a688a">07/07 18:50</text></svg>