<svg xmlns="http://www.w3.org/2000/svg" viewBox="0 0 960 320" width="960" height="320" font-family="Segoe UI, system-ui, -apple-system, Roboto, Helvetica, Arial, sans-serif" role="img" aria-label="Availability history per region"><rect x="0.5" y="0.5" width="959" height="319" rx="14" fill="#0d1117" stroke="#2c3a5e"/><text x="42" y="26" font-size="14" font-weight="600" fill="#e6ecff">History · 144 points</text><circle cx="47" cy="40" r="5" fill="#22c55e"/><text x="57" y="44" font-size="12" fill="#9fb0d4">Available</text><circle cx="139.8" cy="40" r="5" fill="#f59e0b"/><text x="149.8" y="44" font-size="12" fill="#9fb0d4">Saturated</text><circle cx="232.60000000000002" cy="40" r="5" fill="#ef4444"/><text x="242.60000000000002" y="44" font-size="12" fill="#9fb0d4">Error</text><circle cx="296.6" cy="40" r="5" fill="#a855f7"/><text x="306.6" y="44" font-size="12" fill="#9fb0d4">Timeout</text><line x1="42" y1="286.0" x2="938" y2="286.0" stroke="#21304f" stroke-width="1"/><text x="35" y="289.0" text-anchor="end" font-size="11" fill="#9fb0d4">0</text><line x1="42" y1="227.5" x2="938" y2="227.5" stroke="#21304f" stroke-width="1"/><text x="35" y="230.5" text-anchor="end" font-size="11" fill="#9fb0d4">10</text><line x1="42" y1="169.0" x2="938" y2="169.0" stroke="#21304f" stroke-width="1"/><text x="35" y="172.0" text-anchor="end" font-size="11" fill="#9fb0d4">19</text><line x1="42" y1="110.5" x2="938" y2="110.5" stroke="#21304f" stroke-width="1"/><text x="35" y="113.5" text-anchor="end" font-size="11" fill="#9fb0d4">28</text><line x1="42" y1="52.0" x2="938" y2="52.0" stroke="#21304f" stroke-width="1"/><text x="35" y="55.0" text-anchor="end" font-size="11" fill="#9fb0d4">38</text><polyline fill="none" stroke="#22c55e" stroke-width="2.5" stroke-linejoin="round" stroke-linecap="round" points="42.0,64.3 48.3,224.4 54.5,82.8 60.8,88.9 67.1,82.8 73.3,76.6 79.6,76.6 85.9,76.6 92.1,76.6 98.4,76.6 104.7,76.6 110.9,76.6 117.2,76.6 123.5,76.6 129.7,76.6 136.0,70.5 142.3,70.5 148.5,82.8 154.8,82.8 161.0,82.8 167.3,88.9 173.6,88.9 179.8,88.9 186.1,88.9 192.4,88.9 198.6,88.9 204.9,88.9 211.2,88.9 217.4,88.9 223.7,82.8 230.0,82.8 236.2,82.8 242.5,82.8 248.8,76.6 255.0,76.6 261.3,76.6 267.6,76.6 273.8,76.6 280.1,82.8 286.4,82.8 292.6,82.8 298.9,82.8 305.2,76.6 311.4,76.6 317.7,76.6 324.0,76.6 330.2,76.6 336.5,76.6 342.8,76.6 349.0,82.8 355.3,82.8 361.6,82.8 367.8,82.8 374.1,76.6 380.3,76.6 386.6,76.6 392.9,76.6 399.1,76.6 405.4,76.6 411.7,76.6 417.9,76.6 424.2,82.8 430.5,76.6 436.7,76.6 443.0,76.6 449.3,76.6 455.5,76.6 461.8,82.8 468.1,76.6 474.3,76.6 480.6,76.6 486.9,76.6 493.1,76.6 499.4,76.6 505.7,76.6 511.9,76.6 518.2,76.6 524.5,70.5 530.7,70.5 537.0,70.5 543.3,70.5 549.5,76.6 555.8,70.5 562.1,76.6 568.3,76.6 574.6,76.6 580.9,76.6 587.1,76.6 593.4,76.6 599.7,82.8 605.9,88.9 612.2,88.9 618.4,88.9 624.7,88.9 631.0,88.9 637.2,88.9 643.5,88.9 649.8,95.1 656.0,88.9 662.3,88.9 668.6,88.9 674.8,88.9 681.1,88.9 687.4,88.9 693.6,82.8 699.9,82.8 706.2,82.8 712.4,82.8 718.7,82.8 725.0,82.8 731.2,82.8 737.5,82.8 743.8,88.9 750.0,88.9 756.3,88.9 762.6,88.9 768.8,88.9 775.1,88.9 781.4,88.9 787.6,88.9 793.9,95.1 800.2,88.9 806.4,88.9 812.7,88.9 819.0,101.3 825.2,88.9 831.5,88.9 837.7,88.9 844.0,88.9 850.3,82.8 856.5,82.8 862.8,82.8 869.1,82.8 875.3,88.9 881.6,82.8 887.9,88.9 894.1,88.9 900.4,88.9 906.7,88.9 912.9,95.1 919.2,88.9 925.5,88.9 931.7,88.9 938.0,88.9"/><polyline fill="none" stroke="#f59e0b" stroke-width="2.5" stroke-linejoin="round" stroke-linecap="round" points="42.0,273.7 48.3,267.5 54.5,255.2 60.8,249.1 67.1,255.2 73.3,261.4 79.6,261.4 85.9,261.4 92.1,261.4 98.4,261.4 104.7,261.4 110.9,261.4 117.2,261.4 123.5,261.4 129.7,261.4 136.0,267.5 142.3,267.5 148.5,261.4 154.8,255.2 161.0,255.2 167.3,249.1 173.6,249.1 179.8,249.1 186.1,249.1 192.4,249.1 198.6,249.1 204.9,249.1 211.2,249.1 217.4,249.1 223.7,255.2 230.0,255.2 236.2,255.2 242.5,255.2 248.8,261.4 255.0,261.4 261.3,261.4 267.6,261.4 273.8,261.4 280.1,255.2 286.4,255.2 292.6,255.2 298.9,255.2 305.2,261.4 311.4,261.4 317.7,261.4 324.0,261.4 330.2,261.4 336.5,261.4 342.8,261.4 349.0,255.2 355.3,255.2 361.6,255.2 367.8,261.4 374.1,261.4 380.3,261.4 386.6,261.4 392.9,261.4 399.1,261.4 405.4,261.4 411.7,261.4 417.9,261.4 424.2,255.2 430.5,261.4 436.7,261.4 443.0,261.4 449.3,261.4 455.5,261.4 461.8,261.4 468.1,261.4 474.3,261.4 480.6,261.4 486.9,261.4 493.1,261.4 499.4,261.4 505.7,261.4 511.9,261.4 518.2,261.4 524.5,267.5 530.7,267.5 537.0,267.5 543.3,267.5 549.5,267.5 555.8,267.5 562.1,261.4 568.3,261.4 574.6,261.4 580.9,261.4 587.1,261.4 593.4,261.4 599.7,255.2 605.9,249.1 612.2,249.1 618.4,255.2 624.7,249.1 631.0,249.1 637.2,249.1 643.5,249.1 649.8,249.1 656.0,249.1 662.3,255.2 668.6,249.1 674.8,249.1 681.1,249.1 687.4,249.1 693.6,255.2 699.9,255.2 706.2,255.2 712.4,255.2 718.7,255.2 725.0,255.2 731.2,255.2 737.5,255.2 743.8,249.1 750.0,249.1 756.3,249.1 762.6,249.1 768.8,249.1 775.1,249.1 781.4,249.1 787.6,255.2 793.9,249.1 800.2,249.1 806.4,249.1 812.7,249.1 819.0,249.1 825.2,249.1 831.5,249.1 837.7,255.2 844.0,255.2 850.3,255.2 856.5,255.2 862.8,255.2 869.1,255.2 875.3,255.2 881.6,255.2 887.9,249.1 894.1,249.1 900.4,249.1 906.7,249.1 912.9,249.1 919.2,249.1 925.5,249.1 931.7,249.1 938.0,249.1"/><polyline fill="none" stroke="#ef4444" stroke-width="2.5" stroke-linejoin="round" stroke-linecap="round" points="42.0,286.0 48.3,132.1 54.5,286.0 60.8,286.0 67.1,286.0 73.3,286.0 79.6,286.0 85.9,286.0 92.1,286.0 98.4,286.0 104.7,286.0 110.9,286.0 117.2,286.0 123.5,286.0 129.7,286.0 136.0,286.0 142.3,286.0 148.5,279.8 154.8,286.0 161.0,286.0 167.3,286.0 173.6,286.0 179.8,286.0 186.1,286.0 192.4,286.0 198.6,286.0 204.9,286.0 211.2,286.0 217.4,286.0 223.7,286.0 230.0,286.0 236.2,286.0 242.5,286.0 248.8,286.0 255.0,286.0 261.3,286.0 267.6,286.0 273.8,286.0 280.1,286.0 286.4,286.0 292.6,286.0 298.9,286.0 305.2,286.0 311.4,286.0 317.7,286.0 324.0,286.0 330.2,286.0 336.5,286.0 342.8,286.0 349.0,286.0 355.3,286.0 361.6,286.0 367.8,286.0 374.1,286.0 380.3,286.0 386.6,286.0 392.9,286.0 399.1,286.0 405.4,286.0 411.7,286.0 417.9,286.0 424.2,286.0 430.5,286.0 436.7,286.0 443.0,286.0 449.3,286.0 455.5,286.0 461.8,279.8 468.1,286.0 474.3,286.0 480.6,286.0 486.9,286.0 493.1,286.0 499.4,286.0 505.7,286.0 511.9,286.0 518.2,286.0 524.5,286.0 530.7,286.0 537.0,286.0 543.3,286.0 549.5,279.8 555.8,286.0 562.1,286.0 568.3,286.0 574.6,286.0 580.9,286.0 587.1,286.0 593.4,286.0 599.7,286.0 605.9,286.0 612.2,286.0 618.4,279.8 624.7,286.0 631.0,286.0 637.2,286.0 643.5,286.0 649.8,279.8 656.0,286.0 662.3,286.0 668.6,286.0 674.8,286.0 681.1,286.0 687.4,286.0 693.6,286.0 699.9,286.0 706.2,286.0 712.4,286.0 718.7,286.0 725.0,286.0 731.2,286.0 737.5,286.0 743.8,286.0 750.0,286.0 756.3,286.0 762.6,286.0 768.8,286.0 775.1,286.0 781.4,286.0 787.6,286.0 793.9,279.8 800.2,286.0 806.4,286.0 812.7,286.0 819.0,273.7 825.2,286.0 831.5,286.0 837.7,279.8 844.0,279.8 850.3,286.0 856.5,286.0 862.8,286.0 869.1,286.0 875.3,279.8 881.6,286.0 887.9,286.0 894.1,286.0 900.4,286.0 906.7,286.0 912.9,286.0 919.2,286.0 925.5,286.0 931.7,286.0 938.0,286.0"/><polyline fill="none" stroke="#a855f7" stroke-width="2.5" stroke-linejoin="round" stroke-linecap="round" points="42.0,286.0 48.3,286.0 54.5,286.0 60.8,286.0 67.1,286.0 73.3,286.0 79.6,286.0 85.9,286.0 92.1,286.0 98.4,286.0 104.7,286.0 110.9,286.0 117.2,286.0 123.5,286.0 129.7,286.0 136.0,286.0 142.3,286.0 148.5,286.0 154.8,286.0 161.0,286.0 167.3,286.0 173.6,286.0 179.8,286.0 186.1,286.0 192.4,286.0 198.6,286.0 204.9,286.0 211.2,286.0 217.4,286.0 223.7,286.0 230.0,286.0 236.2,286.0 242.5,286.0 248.8,286.0 255.0,286.0 261.3,286.0 267.6,286.0 273.8,286.0 280.1,286.0 286.4,286.0 292.6,286.0 298.9,286.0 305.2,286.0 311.4,286.0 317.7,286.0 324.0,286.0 330.2,286.0 336.5,286.0 342.8,286.0 349.0,286.0 355.3,286.0 361.6,286.0 367.8,279.8 374.1,286.0 380.3,286.0 386.6,286.0 392.9,286.0 399.1,286.0 405.4,286.0 411.7,286.0 417.9,286.0 424.2,286.0 430.5,286.0 436.7,286.0 443.0,286.0 449.3,286.0 455.5,286.0 461.8,286.0 468.1,286.0 474.3,286.0 480.6,286.0 486.9,286.0 493.1,286.0 499.4,286.0 505.7,286.0 511.9,286.0 518.2,286.0 524.5,286.0 530.7,286.0 537.0,286.0 543.3,286.0 549.5,286.0 555.8,286.0 562.1,286.0 568.3,286.0 574.6,286.0 580.9,286.0 587.1,286.0 593.4,286.0 599.7,286.0 605.9,286.0 612.2,286.0 618.4,286.0 624.7,286.0 631.0,286.0 637.2,286.0 643.5,286.0 649.8,286.0 656.0,286.0 662.3,279.8 668.6,286.0 674.8,286.0 681.1,286.0 687.4,286.0 693.6,286.0 699.9,286.0 706.2,286.0 712.4,286.0 718.7,286.0 725.0,286.0 731.2,286.0 737.5,286.0 743.8,286.0 750.0,286.0 756.3,286.0 762.6,286.0 768.8,286.0 775.1,286.0 781.4,286.0 787.6,279.8 793.9,286.0 800.2,286.0 806.4,286.0 812.7,286.0 819.0,286.0 825.2,286.0 831.5,286.0 837.7,286.0 844.0,286.0 850.3,286.0 856.5,286.0 862.8,286.0 869.1,286.0 875.3,286.0 881.6,286.0 887.9,286.0 894.1,286.0 900.4,286.0 906.7,286.0 912.9,279.8 919.2,286.0 925.5,286.0 931.7,286.0 938.0,286.0"/><text x="42" y="308" font-size="11" fill="#9fb0d4">19/06 15:39</text><text x="938" y="308" text-anchor="end" font-size="11" fill="#9fb0d4">22/07 14:30</text></svg>