<svg xmlns="http://www.w3.org/2000/svg" viewBox="0 0 960 320" width="960" height="320" font-family="Segoe UI, system-ui, -apple-system, Roboto, Helvetica, Arial, sans-serif" role="img" aria-label="Availability history per region"><rect x="0.5" y="0.5" width="959" height="319" rx="14" fill="#0d1117" stroke="#2c3a5e"/><text x="42" y="26" font-size="14" font-weight="600" fill="#e6ecff">History · 155 points</text><circle cx="47" cy="40" r="5" fill="#22c55e"/><text x="57" y="44" font-size="12" fill="#9fb0d4">Available</text><circle cx="139.8" cy="40" r="5" fill="#f59e0b"/><text x="149.8" y="44" font-size="12" fill="#9fb0d4">Saturated</text><circle cx="232.60000000000002" cy="40" r="5" fill="#ef4444"/><text x="242.60000000000002" y="44" font-size="12" fill="#9fb0d4">Error</text><circle cx="296.6" cy="40" r="5" fill="#a855f7"/><text x="306.6" y="44" font-size="12" fill="#9fb0d4">Timeout</text><line x1="42" y1="286.0" x2="938" y2="286.0" stroke="#21304f" stroke-width="1"/><text x="35" y="289.0" text-anchor="end" font-size="11" fill="#9fb0d4">0</text><line x1="42" y1="227.5" x2="938" y2="227.5" stroke="#21304f" stroke-width="1"/><text x="35" y="230.5" text-anchor="end" font-size="11" fill="#9fb0d4">10</text><line x1="42" y1="169.0" x2="938" y2="169.0" stroke="#21304f" stroke-width="1"/><text x="35" y="172.0" text-anchor="end" font-size="11" fill="#9fb0d4">20</text><line x1="42" y1="110.5" x2="938" y2="110.5" stroke="#21304f" stroke-width="1"/><text x="35" y="113.5" text-anchor="end" font-size="11" fill="#9fb0d4">29</text><line x1="42" y1="52.0" x2="938" y2="52.0" stroke="#21304f" stroke-width="1"/><text x="35" y="55.0" text-anchor="end" font-size="11" fill="#9fb0d4">39</text><polyline fill="none" stroke="#22c55e" stroke-width="2.5" stroke-linejoin="round" stroke-linecap="round" points="42.0,70.0 47.8,70.0 53.6,88.0 59.5,88.0 65.3,76.0 71.1,76.0 76.9,76.0 82.7,70.0 88.5,76.0 94.4,70.0 100.2,64.0 106.0,58.0 111.8,58.0 117.6,58.0 123.5,58.0 129.3,58.0 135.1,58.0 140.9,58.0 146.7,58.0 152.5,58.0 158.4,58.0 164.2,58.0 170.0,58.0 175.8,58.0 181.6,58.0 187.5,58.0 193.3,58.0 199.1,58.0 204.9,58.0 210.7,58.0 216.5,58.0 222.4,70.0 228.2,76.0 234.0,94.0 239.8,64.0 245.6,64.0 251.5,58.0 257.3,58.0 263.1,58.0 268.9,70.0 274.7,76.0 280.5,76.0 286.4,82.0 292.2,82.0 298.0,82.0 303.8,82.0 309.6,76.0 315.5,64.0 321.3,70.0 327.1,70.0 332.9,82.0 338.7,76.0 344.5,76.0 350.4,82.0 356.2,76.0 362.0,76.0 367.8,76.0 373.6,64.0 379.5,64.0 385.3,76.0 391.1,76.0 396.9,76.0 402.7,88.0 408.5,70.0 414.4,64.0 420.2,58.0 426.0,58.0 431.8,70.0 437.6,70.0 443.5,70.0 449.3,76.0 455.1,70.0 460.9,70.0 466.7,70.0 472.5,70.0 478.4,76.0 484.2,82.0 490.0,76.0 495.8,70.0 501.6,70.0 507.5,70.0 513.3,70.0 519.1,76.0 524.9,70.0 530.7,70.0 536.5,70.0 542.4,70.0 548.2,70.0 554.0,70.0 559.8,70.0 565.6,70.0 571.5,70.0 577.3,70.0 583.1,70.0 588.9,70.0 594.7,70.0 600.5,70.0 606.4,70.0 612.2,70.0 618.0,70.0 623.8,70.0 629.6,70.0 635.5,70.0 641.3,70.0 647.1,70.0 652.9,70.0 658.7,70.0 664.5,70.0 670.4,70.0 676.2,70.0 682.0,70.0 687.8,70.0 693.6,70.0 699.5,70.0 705.3,70.0 711.1,70.0 716.9,70.0 722.7,70.0 728.5,70.0 734.4,70.0 740.2,70.0 746.0,70.0 751.8,70.0 757.6,70.0 763.5,70.0 769.3,70.0 775.1,70.0 780.9,70.0 786.7,70.0 792.5,70.0 798.4,70.0 804.2,70.0 810.0,70.0 815.8,70.0 821.6,70.0 827.5,70.0 833.3,70.0 839.1,70.0 844.9,70.0 850.7,70.0 856.5,70.0 862.4,70.0 868.2,70.0 874.0,70.0 879.8,70.0 885.6,70.0 891.5,70.0 897.3,70.0 903.1,70.0 908.9,70.0 914.7,70.0 920.5,76.0 926.4,70.0 932.2,70.0 938.0,70.0"/><polyline fill="none" stroke="#f59e0b" stroke-width="2.5" stroke-linejoin="round" stroke-linecap="round" points="42.0,274.0 47.8,274.0 53.6,274.0 59.5,280.0 65.3,268.0 71.1,268.0 76.9,268.0 82.7,274.0 88.5,274.0 94.4,274.0 100.2,280.0 106.0,286.0 111.8,286.0 117.6,286.0 123.5,286.0 129.3,286.0 135.1,286.0 140.9,286.0 146.7,286.0 152.5,286.0 158.4,286.0 164.2,286.0 170.0,286.0 175.8,286.0 181.6,286.0 187.5,286.0 193.3,286.0 199.1,286.0 204.9,286.0 210.7,286.0 216.5,286.0 222.4,274.0 228.2,280.0 234.0,280.0 239.8,280.0 245.6,280.0 251.5,286.0 257.3,286.0 263.1,286.0 268.9,274.0 274.7,268.0 280.5,268.0 286.4,262.0 292.2,262.0 298.0,262.0 303.8,262.0 309.6,268.0 315.5,280.0 321.3,280.0 327.1,274.0 332.9,262.0 338.7,268.0 344.5,268.0 350.4,262.0 356.2,268.0 362.0,268.0 367.8,268.0 373.6,280.0 379.5,280.0 385.3,268.0 391.1,268.0 396.9,268.0 402.7,262.0 408.5,274.0 414.4,280.0 420.2,286.0 426.0,286.0 431.8,274.0 437.6,274.0 443.5,274.0 449.3,274.0 455.1,274.0 460.9,274.0 466.7,274.0 472.5,274.0 478.4,280.0 484.2,274.0 490.0,280.0 495.8,286.0 501.6,286.0 507.5,286.0 513.3,286.0 519.1,280.0 524.9,286.0 530.7,286.0 536.5,286.0 542.4,286.0 548.2,286.0 554.0,286.0 559.8,286.0 565.6,286.0 571.5,286.0 577.3,286.0 583.1,286.0 588.9,286.0 594.7,286.0 600.5,286.0 606.4,286.0 612.2,286.0 618.0,286.0 623.8,286.0 629.6,286.0 635.5,286.0 641.3,286.0 647.1,286.0 652.9,286.0 658.7,286.0 664.5,286.0 670.4,286.0 676.2,286.0 682.0,286.0 687.8,286.0 693.6,286.0 699.5,286.0 705.3,286.0 711.1,286.0 716.9,286.0 722.7,286.0 728.5,286.0 734.4,286.0 740.2,286.0 746.0,286.0 751.8,286.0 757.6,286.0 763.5,286.0 769.3,286.0 775.1,286.0 780.9,286.0 786.7,286.0 792.5,286.0 798.4,286.0 804.2,286.0 810.0,286.0 815.8,286.0 821.6,286.0 827.5,286.0 833.3,286.0 839.1,286.0 844.9,286.0 850.7,286.0 856.5,286.0 862.4,286.0 868.2,286.0 874.0,286.0 879.8,286.0 885.6,286.0 891.5,286.0 897.3,286.0 903.1,286.0 908.9,286.0 914.7,286.0 920.5,286.0 926.4,286.0 932.2,286.0 938.0,286.0"/><polyline fill="none" stroke="#ef4444" stroke-width="2.5" stroke-linejoin="round" stroke-linecap="round" points="42.0,280.0 47.8,280.0 53.6,268.0 59.5,262.0 65.3,286.0 71.1,286.0 76.9,286.0 82.7,286.0 88.5,280.0 94.4,286.0 100.2,286.0 106.0,286.0 111.8,286.0 117.6,286.0 123.5,286.0 129.3,286.0 135.1,286.0 140.9,286.0 146.7,286.0 152.5,286.0 158.4,286.0 164.2,286.0 170.0,286.0 175.8,286.0 181.6,286.0 187.5,286.0 193.3,286.0 199.1,286.0 204.9,286.0 210.7,286.0 216.5,286.0 222.4,286.0 228.2,274.0 234.0,256.0 239.8,286.0 245.6,286.0 251.5,286.0 257.3,286.0 263.1,286.0 268.9,286.0 274.7,286.0 280.5,286.0 286.4,286.0 292.2,286.0 298.0,286.0 303.8,286.0 309.6,286.0 315.5,286.0 321.3,280.0 327.1,286.0 332.9,286.0 338.7,286.0 344.5,286.0 350.4,286.0 356.2,286.0 362.0,286.0 367.8,286.0 373.6,286.0 379.5,286.0 385.3,286.0 391.1,286.0 396.9,286.0 402.7,280.0 408.5,286.0 414.4,286.0 420.2,286.0 426.0,286.0 431.8,286.0 437.6,286.0 443.5,286.0 449.3,286.0 455.1,286.0 460.9,286.0 466.7,286.0 472.5,286.0 478.4,274.0 484.2,274.0 490.0,274.0 495.8,274.0 501.6,274.0 507.5,274.0 513.3,274.0 519.1,274.0 524.9,274.0 530.7,274.0 536.5,274.0 542.4,274.0 548.2,274.0 554.0,274.0 559.8,274.0 565.6,274.0 571.5,274.0 577.3,274.0 583.1,274.0 588.9,274.0 594.7,274.0 600.5,274.0 606.4,274.0 612.2,274.0 618.0,274.0 623.8,274.0 629.6,274.0 635.5,274.0 641.3,274.0 647.1,274.0 652.9,274.0 658.7,274.0 664.5,274.0 670.4,274.0 676.2,274.0 682.0,274.0 687.8,274.0 693.6,274.0 699.5,274.0 705.3,274.0 711.1,274.0 716.9,274.0 722.7,274.0 728.5,274.0 734.4,274.0 740.2,274.0 746.0,274.0 751.8,274.0 757.6,274.0 763.5,274.0 769.3,274.0 775.1,274.0 780.9,274.0 786.7,274.0 792.5,274.0 798.4,274.0 804.2,274.0 810.0,274.0 815.8,274.0 821.6,274.0 827.5,274.0 833.3,274.0 839.1,274.0 844.9,274.0 850.7,274.0 856.5,274.0 862.4,274.0 868.2,274.0 874.0,274.0 879.8,274.0 885.6,274.0 891.5,274.0 897.3,274.0 903.1,274.0 908.9,274.0 914.7,274.0 920.5,268.0 926.4,274.0 932.2,274.0 938.0,274.0"/><polyline fill="none" stroke="#a855f7" stroke-width="2.5" stroke-linejoin="round" stroke-linecap="round" points="42.0,286.0 47.8,286.0 53.6,286.0 59.5,286.0 65.3,286.0 71.1,286.0 76.9,286.0 82.7,286.0 88.5,286.0 94.4,286.0 100.2,286.0 106.0,286.0 111.8,286.0 117.6,286.0 123.5,286.0 129.3,286.0 135.1,286.0 140.9,286.0 146.7,286.0 152.5,286.0 158.4,286.0 164.2,286.0 170.0,286.0 175.8,286.0 181.6,286.0 187.5,286.0 193.3,286.0 199.1,286.0 204.9,286.0 210.7,286.0 216.5,286.0 222.4,286.0 228.2,286.0 234.0,286.0 239.8,286.0 245.6,286.0 251.5,286.0 257.3,286.0 263.1,286.0 268.9,286.0 274.7,286.0 280.5,286.0 286.4,286.0 292.2,286.0 298.0,286.0 303.8,286.0 309.6,286.0 315.5,286.0 321.3,286.0 327.1,286.0 332.9,286.0 338.7,286.0 344.5,286.0 350.4,286.0 356.2,286.0 362.0,286.0 367.8,286.0 373.6,286.0 379.5,286.0 385.3,286.0 391.1,286.0 396.9,286.0 402.7,286.0 408.5,286.0 414.4,286.0 420.2,286.0 426.0,286.0 431.8,286.0 437.6,286.0 443.5,286.0 449.3,280.0 455.1,286.0 460.9,286.0 466.7,286.0 472.5,286.0 478.4,286.0 484.2,286.0 490.0,286.0 495.8,286.0 501.6,286.0 507.5,286.0 513.3,286.0 519.1,286.0 524.9,286.0 530.7,286.0 536.5,286.0 542.4,286.0 548.2,286.0 554.0,286.0 559.8,286.0 565.6,286.0 571.5,286.0 577.3,286.0 583.1,286.0 588.9,286.0 594.7,286.0 600.5,286.0 606.4,286.0 612.2,286.0 618.0,286.0 623.8,286.0 629.6,286.0 635.5,286.0 641.3,286.0 647.1,286.0 652.9,286.0 658.7,286.0 664.5,286.0 670.4,286.0 676.2,286.0 682.0,286.0 687.8,286.0 693.6,286.0 699.5,286.0 705.3,286.0 711.1,286.0 716.9,286.0 722.7,286.0 728.5,286.0 734.4,286.0 740.2,286.0 746.0,286.0 751.8,286.0 757.6,286.0 763.5,286.0 769.3,286.0 775.1,286.0 780.9,286.0 786.7,286.0 792.5,286.0 798.4,286.0 804.2,286.0 810.0,286.0 815.8,286.0 821.6,286.0 827.5,286.0 833.3,286.0 839.1,286.0 844.9,286.0 850.7,286.0 856.5,286.0 862.4,286.0 868.2,286.0 874.0,286.0 879.8,286.0 885.6,286.0 891.5,286.0 897.3,286.0 903.1,286.0 908.9,286.0 914.7,286.0 920.5,286.0 926.4,286.0 932.2,286.0 938.0,286.0"/><text x="42" y="308" font-size="11" fill="#9fb0d4">19/06 12:43</text><text x="938" y="308" text-anchor="end" font-size="11" fill="#9fb0d4">29/06 05:29</text></svg>