<svg xmlns="http://www.w3.org/2000/svg" viewBox="0 0 960 320" width="960" height="320" font-family="Segoe UI, system-ui, -apple-system, Roboto, Helvetica, Arial, sans-serif" role="img" aria-label="Availability history per region"><rect x="0.5" y="0.5" width="959" height="319" rx="14" fill="#ffffff" stroke="#dce3f1"/><text x="42" y="26" font-size="14" font-weight="600" fill="#14203a">History · 109 points</text><circle cx="47" cy="40" r="5" fill="#22c55e"/><text x="57" y="44" font-size="12" fill="#5a688a">Available</text><circle cx="139.8" cy="40" r="5" fill="#f59e0b"/><text x="149.8" y="44" font-size="12" fill="#5a688a">Saturated</text><circle cx="232.60000000000002" cy="40" r="5" fill="#ef4444"/><text x="242.60000000000002" y="44" font-size="12" fill="#5a688a">Error</text><circle cx="296.6" cy="40" r="5" fill="#a855f7"/><text x="306.6" y="44" font-size="12" fill="#5a688a">Timeout</text><line x1="42" y1="286.0" x2="938" y2="286.0" stroke="#eef2f7" stroke-width="1"/><text x="35" y="289.0" text-anchor="end" font-size="11" fill="#5a688a">0</text><line x1="42" y1="227.5" x2="938" y2="227.5" stroke="#eef2f7" stroke-width="1"/><text x="35" y="230.5" text-anchor="end" font-size="11" fill="#5a688a">10</text><line x1="42" y1="169.0" x2="938" y2="169.0" stroke="#eef2f7" stroke-width="1"/><text x="35" y="172.0" text-anchor="end" font-size="11" fill="#5a688a">19</text><line x1="42" y1="110.5" x2="938" y2="110.5" stroke="#eef2f7" stroke-width="1"/><text x="35" y="113.5" text-anchor="end" font-size="11" fill="#5a688a">28</text><line x1="42" y1="52.0" x2="938" y2="52.0" stroke="#eef2f7" stroke-width="1"/><text x="35" y="55.0" text-anchor="end" font-size="11" fill="#5a688a">38</text><polyline fill="none" stroke="#22c55e" stroke-width="2.5" stroke-linejoin="round" stroke-linecap="round" points="42.0,64.3 50.3,224.4 58.6,82.8 66.9,88.9 75.2,82.8 83.5,76.6 91.8,76.6 100.1,76.6 108.4,76.6 116.7,76.6 125.0,76.6 133.3,76.6 141.6,76.6 149.9,76.6 158.1,76.6 166.4,70.5 174.7,70.5 183.0,82.8 191.3,82.8 199.6,82.8 207.9,88.9 216.2,88.9 224.5,88.9 232.8,88.9 241.1,88.9 249.4,88.9 257.7,88.9 266.0,88.9 274.3,88.9 282.6,82.8 290.9,82.8 299.2,82.8 307.5,82.8 315.8,76.6 324.1,76.6 332.4,76.6 340.7,76.6 349.0,76.6 357.3,82.8 365.6,82.8 373.9,82.8 382.1,82.8 390.4,76.6 398.7,76.6 407.0,76.6 415.3,76.6 423.6,76.6 431.9,76.6 440.2,76.6 448.5,82.8 456.8,82.8 465.1,82.8 473.4,82.8 481.7,76.6 490.0,76.6 498.3,76.6 506.6,76.6 514.9,76.6 523.2,76.6 531.5,76.6 539.8,76.6 548.1,82.8 556.4,76.6 564.7,76.6 573.0,76.6 581.3,76.6 589.6,76.6 597.9,82.8 606.1,76.6 614.4,76.6 622.7,76.6 631.0,76.6 639.3,76.6 647.6,76.6 655.9,76.6 664.2,76.6 672.5,76.6 680.8,70.5 689.1,70.5 697.4,70.5 705.7,70.5 714.0,76.6 722.3,70.5 730.6,76.6 738.9,76.6 747.2,76.6 755.5,76.6 763.8,76.6 772.1,76.6 780.4,82.8 788.7,88.9 797.0,88.9 805.3,88.9 813.6,88.9 821.9,88.9 830.1,88.9 838.4,88.9 846.7,95.1 855.0,88.9 863.3,88.9 871.6,88.9 879.9,88.9 888.2,88.9 896.5,88.9 904.8,82.8 913.1,82.8 921.4,82.8 929.7,82.8 938.0,82.8"/><polyline fill="none" stroke="#f59e0b" stroke-width="2.5" stroke-linejoin="round" stroke-linecap="round" points="42.0,273.7 50.3,267.5 58.6,255.2 66.9,249.1 75.2,255.2 83.5,261.4 91.8,261.4 100.1,261.4 108.4,261.4 116.7,261.4 125.0,261.4 133.3,261.4 141.6,261.4 149.9,261.4 158.1,261.4 166.4,267.5 174.7,267.5 183.0,261.4 191.3,255.2 199.6,255.2 207.9,249.1 216.2,249.1 224.5,249.1 232.8,249.1 241.1,249.1 249.4,249.1 257.7,249.1 266.0,249.1 274.3,249.1 282.6,255.2 290.9,255.2 299.2,255.2 307.5,255.2 315.8,261.4 324.1,261.4 332.4,261.4 340.7,261.4 349.0,261.4 357.3,255.2 365.6,255.2 373.9,255.2 382.1,255.2 390.4,261.4 398.7,261.4 407.0,261.4 415.3,261.4 423.6,261.4 431.9,261.4 440.2,261.4 448.5,255.2 456.8,255.2 465.1,255.2 473.4,261.4 481.7,261.4 490.0,261.4 498.3,261.4 506.6,261.4 514.9,261.4 523.2,261.4 531.5,261.4 539.8,261.4 548.1,255.2 556.4,261.4 564.7,261.4 573.0,261.4 581.3,261.4 589.6,261.4 597.9,261.4 606.1,261.4 614.4,261.4 622.7,261.4 631.0,261.4 639.3,261.4 647.6,261.4 655.9,261.4 664.2,261.4 672.5,261.4 680.8,267.5 689.1,267.5 697.4,267.5 705.7,267.5 714.0,267.5 722.3,267.5 730.6,261.4 738.9,261.4 747.2,261.4 755.5,261.4 763.8,261.4 772.1,261.4 780.4,255.2 788.7,249.1 797.0,249.1 805.3,255.2 813.6,249.1 821.9,249.1 830.1,249.1 838.4,249.1 846.7,249.1 855.0,249.1 863.3,255.2 871.6,249.1 879.9,249.1 888.2,249.1 896.5,249.1 904.8,255.2 913.1,255.2 921.4,255.2 929.7,255.2 938.0,255.2"/><polyline fill="none" stroke="#ef4444" stroke-width="2.5" stroke-linejoin="round" stroke-linecap="round" points="42.0,286.0 50.3,132.1 58.6,286.0 66.9,286.0 75.2,286.0 83.5,286.0 91.8,286.0 100.1,286.0 108.4,286.0 116.7,286.0 125.0,286.0 133.3,286.0 141.6,286.0 149.9,286.0 158.1,286.0 166.4,286.0 174.7,286.0 183.0,279.8 191.3,286.0 199.6,286.0 207.9,286.0 216.2,286.0 224.5,286.0 232.8,286.0 241.1,286.0 249.4,286.0 257.7,286.0 266.0,286.0 274.3,286.0 282.6,286.0 290.9,286.0 299.2,286.0 307.5,286.0 315.8,286.0 324.1,286.0 332.4,286.0 340.7,286.0 349.0,286.0 357.3,286.0 365.6,286.0 373.9,286.0 382.1,286.0 390.4,286.0 398.7,286.0 407.0,286.0 415.3,286.0 423.6,286.0 431.9,286.0 440.2,286.0 448.5,286.0 456.8,286.0 465.1,286.0 473.4,286.0 481.7,286.0 490.0,286.0 498.3,286.0 506.6,286.0 514.9,286.0 523.2,286.0 531.5,286.0 539.8,286.0 548.1,286.0 556.4,286.0 564.7,286.0 573.0,286.0 581.3,286.0 589.6,286.0 597.9,279.8 606.1,286.0 614.4,286.0 622.7,286.0 631.0,286.0 639.3,286.0 647.6,286.0 655.9,286.0 664.2,286.0 672.5,286.0 680.8,286.0 689.1,286.0 697.4,286.0 705.7,286.0 714.0,279.8 722.3,286.0 730.6,286.0 738.9,286.0 747.2,286.0 755.5,286.0 763.8,286.0 772.1,286.0 780.4,286.0 788.7,286.0 797.0,286.0 805.3,279.8 813.6,286.0 821.9,286.0 830.1,286.0 838.4,286.0 846.7,279.8 855.0,286.0 863.3,286.0 871.6,286.0 879.9,286.0 888.2,286.0 896.5,286.0 904.8,286.0 913.1,286.0 921.4,286.0 929.7,286.0 938.0,286.0"/><polyline fill="none" stroke="#a855f7" stroke-width="2.5" stroke-linejoin="round" stroke-linecap="round" points="42.0,286.0 50.3,286.0 58.6,286.0 66.9,286.0 75.2,286.0 83.5,286.0 91.8,286.0 100.1,286.0 108.4,286.0 116.7,286.0 125.0,286.0 133.3,286.0 141.6,286.0 149.9,286.0 158.1,286.0 166.4,286.0 174.7,286.0 183.0,286.0 191.3,286.0 199.6,286.0 207.9,286.0 216.2,286.0 224.5,286.0 232.8,286.0 241.1,286.0 249.4,286.0 257.7,286.0 266.0,286.0 274.3,286.0 282.6,286.0 290.9,286.0 299.2,286.0 307.5,286.0 315.8,286.0 324.1,286.0 332.4,286.0 340.7,286.0 349.0,286.0 357.3,286.0 365.6,286.0 373.9,286.0 382.1,286.0 390.4,286.0 398.7,286.0 407.0,286.0 415.3,286.0 423.6,286.0 431.9,286.0 440.2,286.0 448.5,286.0 456.8,286.0 465.1,286.0 473.4,279.8 481.7,286.0 490.0,286.0 498.3,286.0 506.6,286.0 514.9,286.0 523.2,286.0 531.5,286.0 539.8,286.0 548.1,286.0 556.4,286.0 564.7,286.0 573.0,286.0 581.3,286.0 589.6,286.0 597.9,286.0 606.1,286.0 614.4,286.0 622.7,286.0 631.0,286.0 639.3,286.0 647.6,286.0 655.9,286.0 664.2,286.0 672.5,286.0 680.8,286.0 689.1,286.0 697.4,286.0 705.7,286.0 714.0,286.0 722.3,286.0 730.6,286.0 738.9,286.0 747.2,286.0 755.5,286.0 763.8,286.0 772.1,286.0 780.4,286.0 788.7,286.0 797.0,286.0 805.3,286.0 813.6,286.0 821.9,286.0 830.1,286.0 838.4,286.0 846.7,286.0 855.0,286.0 863.3,279.8 871.6,286.0 879.9,286.0 888.2,286.0 896.5,286.0 904.8,286.0 913.1,286.0 921.4,286.0 929.7,286.0 938.0,286.0"/><text x="42" y="308" font-size="11" fill="#5a688a">19/06 15:39</text><text x="938" y="308" text-anchor="end" font-size="11" fill="#5a688a">21/07 03:29</text></svg>