<svg xmlns="http://www.w3.org/2000/svg" viewBox="0 0 960 320" width="960" height="320" font-family="Segoe UI, system-ui, -apple-system, Roboto, Helvetica, Arial, sans-serif" role="img" aria-label="Availability history per region"><rect x="0.5" y="0.5" width="959" height="319" rx="14" fill="#0d1117" stroke="#2c3a5e"/><text x="42" y="26" font-size="14" font-weight="600" fill="#e6ecff">History · 336 points</text><circle cx="47" cy="40" r="5" fill="#22c55e"/><text x="57" y="44" font-size="12" fill="#9fb0d4">Available</text><circle cx="139.8" cy="40" r="5" fill="#f59e0b"/><text x="149.8" y="44" font-size="12" fill="#9fb0d4">Saturated</text><circle cx="232.60000000000002" cy="40" r="5" fill="#ef4444"/><text x="242.60000000000002" y="44" font-size="12" fill="#9fb0d4">Error</text><circle cx="296.6" cy="40" r="5" fill="#a855f7"/><text x="306.6" y="44" font-size="12" fill="#9fb0d4">Timeout</text><line x1="42" y1="286.0" x2="938" y2="286.0" stroke="#21304f" stroke-width="1"/><text x="35" y="289.0" text-anchor="end" font-size="11" fill="#9fb0d4">0</text><line x1="42" y1="227.5" x2="938" y2="227.5" stroke="#21304f" stroke-width="1"/><text x="35" y="230.5" text-anchor="end" font-size="11" fill="#9fb0d4">11</text><line x1="42" y1="169.0" x2="938" y2="169.0" stroke="#21304f" stroke-width="1"/><text x="35" y="172.0" text-anchor="end" font-size="11" fill="#9fb0d4">22</text><line x1="42" y1="110.5" x2="938" y2="110.5" stroke="#21304f" stroke-width="1"/><text x="35" y="113.5" text-anchor="end" font-size="11" fill="#9fb0d4">33</text><line x1="42" y1="52.0" x2="938" y2="52.0" stroke="#21304f" stroke-width="1"/><text x="35" y="55.0" text-anchor="end" font-size="11" fill="#9fb0d4">44</text><polyline fill="none" stroke="#22c55e" stroke-width="2.5" stroke-linejoin="round" stroke-linecap="round" points="42.0,73.3 44.7,83.9 47.3,73.3 50.0,73.3 52.7,73.3 55.4,68.0 58.0,73.3 60.7,73.3 63.4,68.0 66.1,68.0 68.7,73.3 71.4,73.3 74.1,73.3 76.8,73.3 79.4,68.0 82.1,78.6 84.8,83.9 87.5,73.3 90.1,83.9 92.8,99.9 95.5,73.3 98.2,78.6 100.8,78.6 103.5,73.3 106.2,73.3 108.9,78.6 111.5,73.3 114.2,68.0 116.9,83.9 119.6,68.0 122.2,68.0 124.9,78.6 127.6,73.3 130.3,73.3 132.9,68.0 135.6,68.0 138.3,78.6 141.0,83.9 143.6,78.6 146.3,62.6 149.0,73.3 151.7,83.9 154.3,78.6 157.0,68.0 159.7,73.3 162.4,68.0 165.0,68.0 167.7,73.3 170.4,68.0 173.1,68.0 175.7,78.6 178.4,68.0 181.1,73.3 183.8,73.3 186.4,78.6 189.1,73.3 191.8,73.3 194.5,73.3 197.1,78.6 199.8,78.6 202.5,78.6 205.2,78.6 207.8,83.9 210.5,73.3 213.2,73.3 215.9,68.0 218.5,73.3 221.2,78.6 223.9,68.0 226.5,73.3 229.2,73.3 231.9,62.6 234.6,68.0 237.2,73.3 239.9,73.3 242.6,62.6 245.3,83.9 247.9,62.6 250.6,68.0 253.3,68.0 256.0,62.6 258.6,73.3 261.3,78.6 264.0,68.0 266.7,68.0 269.3,68.0 272.0,62.6 274.7,68.0 277.4,78.6 280.0,73.3 282.7,73.3 285.4,62.6 288.1,68.0 290.7,73.3 293.4,68.0 296.1,62.6 298.8,73.3 301.4,73.3 304.1,68.0 306.8,68.0 309.5,73.3 312.1,68.0 314.8,68.0 317.5,73.3 320.2,68.0 322.8,68.0 325.5,68.0 328.2,62.6 330.9,68.0 333.5,68.0 336.2,73.3 338.9,68.0 341.6,68.0 344.2,68.0 346.9,68.0 349.6,68.0 352.3,68.0 354.9,68.0 357.6,62.6 360.3,68.0 363.0,68.0 365.6,68.0 368.3,62.6 371.0,78.6 373.7,73.3 376.3,73.3 379.0,73.3 381.7,73.3 384.4,78.6 387.0,73.3 389.7,62.6 392.4,78.6 395.1,68.0 397.7,68.0 400.4,68.0 403.1,62.6 405.7,73.3 408.4,62.6 411.1,62.6 413.8,68.0 416.4,68.0 419.1,68.0 421.8,68.0 424.5,62.6 427.1,73.3 429.8,78.6 432.5,73.3 435.2,73.3 437.8,78.6 440.5,73.3 443.2,78.6 445.9,62.6 448.5,62.6 451.2,68.0 453.9,78.6 456.6,73.3 459.2,62.6 461.9,78.6 464.6,78.6 467.3,73.3 469.9,73.3 472.6,73.3 475.3,73.3 478.0,68.0 480.6,68.0 483.3,73.3 486.0,73.3 488.7,68.0 491.3,73.3 494.0,68.0 496.7,78.6 499.4,73.3 502.0,68.0 504.7,78.6 507.4,73.3 510.1,78.6 512.7,73.3 515.4,73.3 518.1,73.3 520.8,73.3 523.4,73.3 526.1,68.0 528.8,73.3 531.5,78.6 534.1,78.6 536.8,78.6 539.5,78.6 542.2,78.6 544.8,73.3 547.5,89.2 550.2,78.6 552.9,83.9 555.5,78.6 558.2,78.6 560.9,89.2 563.6,73.3 566.2,78.6 568.9,78.6 571.6,68.0 574.3,68.0 576.9,83.9 579.6,83.9 582.3,83.9 584.9,78.6 587.6,78.6 590.3,83.9 593.0,78.6 595.6,78.6 598.3,83.9 601.0,99.9 603.7,78.6 606.3,105.2 609.0,94.5 611.7,89.2 614.4,89.2 617.0,94.5 619.7,94.5 622.4,89.2 625.1,89.2 627.7,83.9 630.4,89.2 633.1,89.2 635.8,83.9 638.4,89.2 641.1,83.9 643.8,83.9 646.5,83.9 649.1,89.2 651.8,83.9 654.5,89.2 657.2,78.6 659.8,83.9 662.5,89.2 665.2,89.2 667.9,83.9 670.5,89.2 673.2,73.3 675.9,83.9 678.6,78.6 681.2,78.6 683.9,83.9 686.6,83.9 689.3,83.9 691.9,89.2 694.6,83.9 697.3,78.6 700.0,78.6 702.6,83.9 705.3,83.9 708.0,78.6 710.7,99.9 713.3,73.3 716.0,83.9 718.7,78.6 721.4,83.9 724.0,78.6 726.7,83.9 729.4,83.9 732.1,89.2 734.7,89.2 737.4,83.9 740.1,89.2 742.8,83.9 745.4,94.5 748.1,78.6 750.8,89.2 753.5,83.9 756.1,89.2 758.8,83.9 761.5,83.9 764.1,83.9 766.8,78.6 769.5,78.6 772.2,83.9 774.8,78.6 777.5,83.9 780.2,78.6 782.9,83.9 785.5,73.3 788.2,78.6 790.9,83.9 793.6,78.6 796.2,83.9 798.9,83.9 801.6,78.6 804.3,78.6 806.9,78.6 809.6,73.3 812.3,78.6 815.0,78.6 817.6,78.6 820.3,78.6 823.0,73.3 825.7,83.9 828.3,78.6 831.0,83.9 833.7,78.6 836.4,73.3 839.0,89.2 841.7,73.3 844.4,83.9 847.1,89.2 849.7,78.6 852.4,99.9 855.1,83.9 857.8,83.9 860.4,83.9 863.1,83.9 865.8,89.2 868.5,83.9 871.1,83.9 873.8,83.9 876.5,89.2 879.2,78.6 881.8,78.6 884.5,94.5 887.2,94.5 889.9,83.9 892.5,89.2 895.2,83.9 897.9,89.2 900.6,83.9 903.2,89.2 905.9,89.2 908.6,89.2 911.3,83.9 913.9,94.5 916.6,99.9 919.3,110.5 922.0,94.5 924.6,83.9 927.3,89.2 930.0,89.2 932.7,94.5 935.3,89.2 938.0,83.9"/><polyline fill="none" stroke="#f59e0b" stroke-width="2.5" stroke-linejoin="round" stroke-linecap="round" points="42.0,275.4 44.7,275.4 47.3,275.4 50.0,275.4 52.7,275.4 55.4,275.4 58.0,275.4 60.7,275.4 63.4,275.4 66.1,275.4 68.7,275.4 71.4,275.4 74.1,275.4 76.8,275.4 79.4,275.4 82.1,275.4 84.8,275.4 87.5,275.4 90.1,275.4 92.8,275.4 95.5,275.4 98.2,275.4 100.8,275.4 103.5,275.4 106.2,275.4 108.9,275.4 111.5,275.4 114.2,275.4 116.9,275.4 119.6,275.4 122.2,275.4 124.9,275.4 127.6,275.4 130.3,275.4 132.9,275.4 135.6,275.4 138.3,275.4 141.0,275.4 143.6,275.4 146.3,275.4 149.0,275.4 151.7,275.4 154.3,275.4 157.0,275.4 159.7,275.4 162.4,275.4 165.0,275.4 167.7,275.4 170.4,275.4 173.1,275.4 175.7,275.4 178.4,275.4 181.1,275.4 183.8,275.4 186.4,275.4 189.1,275.4 191.8,275.4 194.5,275.4 197.1,275.4 199.8,275.4 202.5,275.4 205.2,275.4 207.8,275.4 210.5,275.4 213.2,275.4 215.9,275.4 218.5,275.4 221.2,275.4 223.9,275.4 226.5,275.4 229.2,275.4 231.9,275.4 234.6,275.4 237.2,275.4 239.9,275.4 242.6,275.4 245.3,275.4 247.9,275.4 250.6,275.4 253.3,275.4 256.0,280.7 258.6,275.4 261.3,275.4 264.0,275.4 266.7,275.4 269.3,275.4 272.0,275.4 274.7,275.4 277.4,275.4 280.0,275.4 282.7,275.4 285.4,275.4 288.1,275.4 290.7,275.4 293.4,275.4 296.1,275.4 298.8,275.4 301.4,275.4 304.1,275.4 306.8,275.4 309.5,275.4 312.1,275.4 314.8,275.4 317.5,275.4 320.2,275.4 322.8,275.4 325.5,275.4 328.2,275.4 330.9,275.4 333.5,275.4 336.2,275.4 338.9,275.4 341.6,275.4 344.2,275.4 346.9,275.4 349.6,275.4 352.3,275.4 354.9,275.4 357.6,275.4 360.3,275.4 363.0,275.4 365.6,275.4 368.3,275.4 371.0,275.4 373.7,275.4 376.3,275.4 379.0,275.4 381.7,275.4 384.4,275.4 387.0,275.4 389.7,275.4 392.4,275.4 395.1,275.4 397.7,275.4 400.4,275.4 403.1,275.4 405.7,275.4 408.4,275.4 411.1,275.4 413.8,275.4 416.4,275.4 419.1,275.4 421.8,275.4 424.5,275.4 427.1,275.4 429.8,275.4 432.5,275.4 435.2,275.4 437.8,275.4 440.5,275.4 443.2,275.4 445.9,275.4 448.5,275.4 451.2,275.4 453.9,275.4 456.6,275.4 459.2,275.4 461.9,275.4 464.6,275.4 467.3,275.4 469.9,275.4 472.6,275.4 475.3,275.4 478.0,275.4 480.6,275.4 483.3,275.4 486.0,275.4 488.7,275.4 491.3,275.4 494.0,275.4 496.7,275.4 499.4,275.4 502.0,275.4 504.7,275.4 507.4,275.4 510.1,275.4 512.7,275.4 515.4,275.4 518.1,275.4 520.8,275.4 523.4,275.4 526.1,275.4 528.8,270.0 531.5,270.0 534.1,270.0 536.8,270.0 539.5,270.0 542.2,270.0 544.8,270.0 547.5,270.0 550.2,270.0 552.9,270.0 555.5,270.0 558.2,270.0 560.9,270.0 563.6,270.0 566.2,270.0 568.9,270.0 571.6,270.0 574.3,270.0 576.9,270.0 579.6,270.0 582.3,270.0 584.9,270.0 587.6,270.0 590.3,270.0 593.0,270.0 595.6,270.0 598.3,270.0 601.0,264.7 603.7,264.7 606.3,264.7 609.0,264.7 611.7,264.7 614.4,264.7 617.0,264.7 619.7,264.7 622.4,264.7 625.1,270.0 627.7,264.7 630.4,270.0 633.1,264.7 635.8,264.7 638.4,264.7 641.1,264.7 643.8,264.7 646.5,264.7 649.1,264.7 651.8,264.7 654.5,264.7 657.2,264.7 659.8,264.7 662.5,264.7 665.2,264.7 667.9,264.7 670.5,264.7 673.2,264.7 675.9,264.7 678.6,264.7 681.2,264.7 683.9,264.7 686.6,264.7 689.3,264.7 691.9,264.7 694.6,264.7 697.3,264.7 700.0,264.7 702.6,264.7 705.3,264.7 708.0,264.7 710.7,264.7 713.3,264.7 716.0,264.7 718.7,264.7 721.4,264.7 724.0,264.7 726.7,264.7 729.4,264.7 732.1,264.7 734.7,264.7 737.4,264.7 740.1,264.7 742.8,264.7 745.4,264.7 748.1,264.7 750.8,264.7 753.5,264.7 756.1,264.7 758.8,264.7 761.5,264.7 764.1,264.7 766.8,264.7 769.5,264.7 772.2,264.7 774.8,264.7 777.5,264.7 780.2,264.7 782.9,264.7 785.5,264.7 788.2,264.7 790.9,264.7 793.6,264.7 796.2,264.7 798.9,264.7 801.6,264.7 804.3,264.7 806.9,264.7 809.6,264.7 812.3,264.7 815.0,264.7 817.6,264.7 820.3,264.7 823.0,264.7 825.7,264.7 828.3,264.7 831.0,264.7 833.7,270.0 836.4,264.7 839.0,264.7 841.7,264.7 844.4,264.7 847.1,264.7 849.7,264.7 852.4,259.4 855.1,259.4 857.8,259.4 860.4,259.4 863.1,259.4 865.8,259.4 868.5,259.4 871.1,259.4 873.8,259.4 876.5,259.4 879.2,259.4 881.8,259.4 884.5,259.4 887.2,259.4 889.9,259.4 892.5,259.4 895.2,259.4 897.9,259.4 900.6,259.4 903.2,259.4 905.9,259.4 908.6,259.4 911.3,259.4 913.9,259.4 916.6,259.4 919.3,259.4 922.0,259.4 924.6,259.4 927.3,259.4 930.0,259.4 932.7,259.4 935.3,259.4 938.0,259.4"/><polyline fill="none" stroke="#ef4444" stroke-width="2.5" stroke-linejoin="round" stroke-linecap="round" points="42.0,280.7 44.7,275.4 47.3,286.0 50.0,286.0 52.7,286.0 55.4,286.0 58.0,286.0 60.7,286.0 63.4,286.0 66.1,286.0 68.7,286.0 71.4,286.0 74.1,275.4 76.8,280.7 79.4,286.0 82.1,280.7 84.8,275.4 87.5,286.0 90.1,275.4 92.8,254.1 95.5,286.0 98.2,280.7 100.8,275.4 103.5,286.0 106.2,286.0 108.9,275.4 111.5,286.0 114.2,286.0 116.9,280.7 119.6,286.0 122.2,286.0 124.9,286.0 127.6,286.0 130.3,286.0 132.9,280.7 135.6,286.0 138.3,280.7 141.0,280.7 143.6,286.0 146.3,286.0 149.0,286.0 151.7,275.4 154.3,270.0 157.0,286.0 159.7,286.0 162.4,286.0 165.0,286.0 167.7,286.0 170.4,286.0 173.1,286.0 175.7,280.7 178.4,286.0 181.1,286.0 183.8,286.0 186.4,280.7 189.1,280.7 191.8,286.0 194.5,286.0 197.1,280.7 199.8,280.7 202.5,280.7 205.2,280.7 207.8,286.0 210.5,280.7 213.2,286.0 215.9,286.0 218.5,280.7 221.2,275.4 223.9,286.0 226.5,286.0 229.2,286.0 231.9,286.0 234.6,286.0 237.2,286.0 239.9,286.0 242.6,286.0 245.3,286.0 247.9,286.0 250.6,286.0 253.3,286.0 256.0,286.0 258.6,286.0 261.3,286.0 264.0,286.0 266.7,286.0 269.3,286.0 272.0,286.0 274.7,280.7 277.4,286.0 280.0,286.0 282.7,280.7 285.4,286.0 288.1,286.0 290.7,286.0 293.4,286.0 296.1,286.0 298.8,286.0 301.4,280.7 304.1,286.0 306.8,286.0 309.5,286.0 312.1,286.0 314.8,286.0 317.5,286.0 320.2,286.0 322.8,286.0 325.5,286.0 328.2,286.0 330.9,286.0 333.5,286.0 336.2,286.0 338.9,286.0 341.6,286.0 344.2,286.0 346.9,286.0 349.6,286.0 352.3,286.0 354.9,286.0 357.6,286.0 360.3,286.0 363.0,286.0 365.6,286.0 368.3,286.0 371.0,286.0 373.7,286.0 376.3,286.0 379.0,280.7 381.7,286.0 384.4,275.4 387.0,286.0 389.7,286.0 392.4,280.7 395.1,286.0 397.7,286.0 400.4,286.0 403.1,286.0 405.7,286.0 408.4,286.0 411.1,286.0 413.8,286.0 416.4,286.0 419.1,286.0 421.8,286.0 424.5,286.0 427.1,286.0 429.8,286.0 432.5,286.0 435.2,286.0 437.8,280.7 440.5,286.0 443.2,286.0 445.9,286.0 448.5,286.0 451.2,286.0 453.9,280.7 456.6,286.0 459.2,286.0 461.9,280.7 464.6,286.0 467.3,286.0 469.9,280.7 472.6,286.0 475.3,286.0 478.0,280.7 480.6,286.0 483.3,286.0 486.0,286.0 488.7,286.0 491.3,286.0 494.0,286.0 496.7,280.7 499.4,286.0 502.0,286.0 504.7,286.0 507.4,286.0 510.1,280.7 512.7,286.0 515.4,286.0 518.1,286.0 520.8,286.0 523.4,286.0 526.1,286.0 528.8,286.0 531.5,286.0 534.1,286.0 536.8,286.0 539.5,286.0 542.2,286.0 544.8,286.0 547.5,280.7 550.2,286.0 552.9,286.0 555.5,275.4 558.2,286.0 560.9,280.7 563.6,286.0 566.2,286.0 568.9,286.0 571.6,286.0 574.3,286.0 576.9,280.7 579.6,286.0 582.3,286.0 584.9,286.0 587.6,280.7 590.3,280.7 593.0,286.0 595.6,286.0 598.3,286.0 601.0,259.4 603.7,286.0 606.3,270.0 609.0,275.4 611.7,280.7 614.4,280.7 617.0,280.7 619.7,270.0 622.4,286.0 625.1,280.7 627.7,286.0 630.4,280.7 633.1,286.0 635.8,286.0 638.4,286.0 641.1,286.0 643.8,286.0 646.5,286.0 649.1,286.0 651.8,286.0 654.5,286.0 657.2,286.0 659.8,286.0 662.5,286.0 665.2,280.7 667.9,286.0 670.5,275.4 673.2,286.0 675.9,280.7 678.6,286.0 681.2,286.0 683.9,280.7 686.6,286.0 689.3,275.4 691.9,286.0 694.6,286.0 697.3,286.0 700.0,286.0 702.6,286.0 705.3,286.0 708.0,286.0 710.7,286.0 713.3,286.0 716.0,280.7 718.7,286.0 721.4,286.0 724.0,286.0 726.7,286.0 729.4,286.0 732.1,286.0 734.7,280.7 737.4,286.0 740.1,286.0 742.8,286.0 745.4,280.7 748.1,286.0 750.8,286.0 753.5,286.0 756.1,280.7 758.8,286.0 761.5,286.0 764.1,286.0 766.8,286.0 769.5,286.0 772.2,286.0 774.8,286.0 777.5,286.0 780.2,286.0 782.9,286.0 785.5,286.0 788.2,286.0 790.9,286.0 793.6,286.0 796.2,286.0 798.9,286.0 801.6,286.0 804.3,286.0 806.9,286.0 809.6,286.0 812.3,286.0 815.0,286.0 817.6,286.0 820.3,286.0 823.0,286.0 825.7,286.0 828.3,286.0 831.0,286.0 833.7,286.0 836.4,286.0 839.0,286.0 841.7,286.0 844.4,286.0 847.1,286.0 849.7,286.0 852.4,286.0 855.1,286.0 857.8,286.0 860.4,286.0 863.1,286.0 865.8,286.0 868.5,286.0 871.1,286.0 873.8,286.0 876.5,286.0 879.2,286.0 881.8,286.0 884.5,286.0 887.2,286.0 889.9,286.0 892.5,286.0 895.2,286.0 897.9,286.0 900.6,286.0 903.2,286.0 905.9,280.7 908.6,286.0 911.3,286.0 913.9,286.0 916.6,280.7 919.3,259.4 922.0,280.7 924.6,286.0 927.3,280.7 930.0,286.0 932.7,280.7 935.3,286.0 938.0,280.7"/><polyline fill="none" stroke="#a855f7" stroke-width="2.5" stroke-linejoin="round" stroke-linecap="round" points="42.0,280.7 44.7,275.4 47.3,275.4 50.0,275.4 52.7,275.4 55.4,280.7 58.0,275.4 60.7,275.4 63.4,280.7 66.1,280.7 68.7,275.4 71.4,275.4 74.1,286.0 76.8,280.7 79.4,280.7 82.1,275.4 84.8,275.4 87.5,275.4 90.1,275.4 92.8,280.7 95.5,275.4 98.2,275.4 100.8,280.7 103.5,275.4 106.2,275.4 108.9,280.7 111.5,275.4 114.2,280.7 116.9,270.0 119.6,280.7 122.2,280.7 124.9,270.0 127.6,275.4 130.3,275.4 132.9,286.0 135.6,280.7 138.3,275.4 141.0,270.0 143.6,270.0 146.3,286.0 149.0,275.4 151.7,275.4 154.3,286.0 157.0,280.7 159.7,275.4 162.4,280.7 165.0,280.7 167.7,275.4 170.4,280.7 173.1,280.7 175.7,275.4 178.4,280.7 181.1,275.4 183.8,275.4 186.4,275.4 189.1,280.7 191.8,275.4 194.5,275.4 197.1,275.4 199.8,275.4 202.5,275.4 205.2,275.4 207.8,264.7 210.5,280.7 213.2,275.4 215.9,280.7 218.5,280.7 221.2,280.7 223.9,280.7 226.5,275.4 229.2,275.4 231.9,286.0 234.6,280.7 237.2,275.4 239.9,275.4 242.6,286.0 245.3,264.7 247.9,286.0 250.6,280.7 253.3,280.7 256.0,280.7 258.6,275.4 261.3,270.0 264.0,280.7 266.7,280.7 269.3,280.7 272.0,286.0 274.7,286.0 277.4,270.0 280.0,275.4 282.7,280.7 285.4,286.0 288.1,280.7 290.7,275.4 293.4,280.7 296.1,286.0 298.8,275.4 301.4,280.7 304.1,280.7 306.8,280.7 309.5,275.4 312.1,280.7 314.8,280.7 317.5,275.4 320.2,280.7 322.8,280.7 325.5,280.7 328.2,286.0 330.9,280.7 333.5,280.7 336.2,275.4 338.9,280.7 341.6,280.7 344.2,280.7 346.9,280.7 349.6,280.7 352.3,280.7 354.9,280.7 357.6,286.0 360.3,280.7 363.0,280.7 365.6,280.7 368.3,286.0 371.0,270.0 373.7,275.4 376.3,275.4 379.0,280.7 381.7,275.4 384.4,280.7 387.0,275.4 389.7,286.0 392.4,275.4 395.1,280.7 397.7,280.7 400.4,280.7 403.1,286.0 405.7,275.4 408.4,286.0 411.1,286.0 413.8,280.7 416.4,280.7 419.1,280.7 421.8,280.7 424.5,286.0 427.1,275.4 429.8,270.0 432.5,275.4 435.2,275.4 437.8,275.4 440.5,275.4 443.2,270.0 445.9,286.0 448.5,286.0 451.2,280.7 453.9,275.4 456.6,275.4 459.2,286.0 461.9,275.4 464.6,270.0 467.3,275.4 469.9,280.7 472.6,275.4 475.3,275.4 478.0,286.0 480.6,280.7 483.3,275.4 486.0,275.4 488.7,280.7 491.3,275.4 494.0,280.7 496.7,275.4 499.4,275.4 502.0,280.7 504.7,270.0 507.4,275.4 510.1,275.4 512.7,275.4 515.4,275.4 518.1,275.4 520.8,275.4 523.4,275.4 526.1,280.7 528.8,280.7 531.5,275.4 534.1,275.4 536.8,275.4 539.5,275.4 542.2,275.4 544.8,280.7 547.5,270.0 550.2,275.4 552.9,270.0 555.5,286.0 558.2,275.4 560.9,270.0 563.6,280.7 566.2,275.4 568.9,275.4 571.6,286.0 574.3,286.0 576.9,275.4 579.6,270.0 582.3,270.0 584.9,275.4 587.6,280.7 590.3,275.4 593.0,275.4 595.6,275.4 598.3,270.0 601.0,286.0 603.7,280.7 606.3,270.0 609.0,275.4 611.7,275.4 614.4,275.4 617.0,270.0 619.7,280.7 622.4,270.0 625.1,270.0 627.7,275.4 630.4,270.0 633.1,270.0 635.8,275.4 638.4,270.0 641.1,275.4 643.8,275.4 646.5,275.4 649.1,270.0 651.8,275.4 654.5,270.0 657.2,280.7 659.8,275.4 662.5,270.0 665.2,275.4 667.9,275.4 670.5,280.7 673.2,286.0 675.9,280.7 678.6,280.7 681.2,280.7 683.9,280.7 686.6,275.4 689.3,286.0 691.9,270.0 694.6,275.4 697.3,280.7 700.0,280.7 702.6,275.4 705.3,275.4 708.0,280.7 710.7,259.4 713.3,286.0 716.0,280.7 718.7,280.7 721.4,275.4 724.0,280.7 726.7,275.4 729.4,275.4 732.1,270.0 734.7,275.4 737.4,275.4 740.1,270.0 742.8,275.4 745.4,270.0 748.1,280.7 750.8,270.0 753.5,275.4 756.1,275.4 758.8,275.4 761.5,275.4 764.1,275.4 766.8,280.7 769.5,280.7 772.2,275.4 774.8,280.7 777.5,275.4 780.2,280.7 782.9,275.4 785.5,286.0 788.2,280.7 790.9,275.4 793.6,280.7 796.2,275.4 798.9,275.4 801.6,280.7 804.3,280.7 806.9,280.7 809.6,286.0 812.3,280.7 815.0,280.7 817.6,280.7 820.3,280.7 823.0,286.0 825.7,275.4 828.3,280.7 831.0,275.4 833.7,275.4 836.4,286.0 839.0,270.0 841.7,286.0 844.4,275.4 847.1,270.0 849.7,280.7 852.4,264.7 855.1,280.7 857.8,280.7 860.4,280.7 863.1,280.7 865.8,275.4 868.5,280.7 871.1,280.7 873.8,280.7 876.5,275.4 879.2,286.0 881.8,286.0 884.5,270.0 887.2,270.0 889.9,280.7 892.5,275.4 895.2,280.7 897.9,275.4 900.6,280.7 903.2,275.4 905.9,280.7 908.6,275.4 911.3,280.7 913.9,270.0 916.6,270.0 919.3,280.7 922.0,275.4 924.6,280.7 927.3,280.7 930.0,275.4 932.7,275.4 935.3,275.4 938.0,286.0"/><text x="42" y="308" font-size="11" fill="#9fb0d4">21/09 20:47</text><text x="938" y="308" text-anchor="end" font-size="11" fill="#9fb0d4">05/10 20:46</text></svg>