<svg xmlns="http://www.w3.org/2000/svg" viewBox="0 0 960 320" width="960" height="320" font-family="Segoe UI, system-ui, -apple-system, Roboto, Helvetica, Arial, sans-serif" role="img" aria-label="Availability history per region"><rect x="0.5" y="0.5" width="959" height="319" rx="14" fill="#ffffff" stroke="#dce3f1"/><text x="42" y="26" font-size="14" font-weight="600" fill="#14203a">History · 91 points</text><circle cx="47" cy="40" r="5" fill="#22c55e"/><text x="57" y="44" font-size="12" fill="#5a688a">Available</text><circle cx="139.8" cy="40" r="5" fill="#f59e0b"/><text x="149.8" y="44" font-size="12" fill="#5a688a">Saturated</text><circle cx="232.60000000000002" cy="40" r="5" fill="#ef4444"/><text x="242.60000000000002" y="44" font-size="12" fill="#5a688a">Error</text><circle cx="296.6" cy="40" r="5" fill="#a855f7"/><text x="306.6" y="44" font-size="12" fill="#5a688a">Timeout</text><line x1="42" y1="286.0" x2="938" y2="286.0" stroke="#eef2f7" stroke-width="1"/><text x="35" y="289.0" text-anchor="end" font-size="11" fill="#5a688a">0</text><line x1="42" y1="227.5" x2="938" y2="227.5" stroke="#eef2f7" stroke-width="1"/><text x="35" y="230.5" text-anchor="end" font-size="11" fill="#5a688a">10</text><line x1="42" y1="169.0" x2="938" y2="169.0" stroke="#eef2f7" stroke-width="1"/><text x="35" y="172.0" text-anchor="end" font-size="11" fill="#5a688a">19</text><line x1="42" y1="110.5" x2="938" y2="110.5" stroke="#eef2f7" stroke-width="1"/><text x="35" y="113.5" text-anchor="end" font-size="11" fill="#5a688a">28</text><line x1="42" y1="52.0" x2="938" y2="52.0" stroke="#eef2f7" stroke-width="1"/><text x="35" y="55.0" text-anchor="end" font-size="11" fill="#5a688a">38</text><polyline fill="none" stroke="#22c55e" stroke-width="2.5" stroke-linejoin="round" stroke-linecap="round" points="42.0,64.3 52.0,224.4 61.9,82.8 71.9,88.9 81.8,82.8 91.8,76.6 101.7,76.6 111.7,76.6 121.6,76.6 131.6,76.6 141.6,76.6 151.5,76.6 161.5,76.6 171.4,76.6 181.4,76.6 191.3,70.5 201.3,70.5 211.2,82.8 221.2,82.8 231.2,82.8 241.1,88.9 251.1,88.9 261.0,88.9 271.0,88.9 280.9,88.9 290.9,88.9 300.8,88.9 310.8,88.9 320.8,88.9 330.7,82.8 340.7,82.8 350.6,82.8 360.6,82.8 370.5,76.6 380.5,76.6 390.4,76.6 400.4,76.6 410.4,76.6 420.3,82.8 430.3,82.8 440.2,82.8 450.2,82.8 460.1,76.6 470.1,76.6 480.0,76.6 490.0,76.6 500.0,76.6 509.9,76.6 519.9,76.6 529.8,82.8 539.8,82.8 549.7,82.8 559.7,82.8 569.6,76.6 579.6,76.6 589.6,76.6 599.5,76.6 609.5,76.6 619.4,76.6 629.4,76.6 639.3,76.6 649.3,82.8 659.2,76.6 669.2,76.6 679.2,76.6 689.1,76.6 699.1,76.6 709.0,82.8 719.0,76.6 728.9,76.6 738.9,76.6 748.8,76.6 758.8,76.6 768.8,76.6 778.7,76.6 788.7,76.6 798.6,76.6 808.6,70.5 818.5,70.5 828.5,70.5 838.4,70.5 848.4,76.6 858.4,70.5 868.3,76.6 878.3,76.6 888.2,76.6 898.2,76.6 908.1,76.6 918.1,76.6 928.0,82.8 938.0,88.9"/><polyline fill="none" stroke="#f59e0b" stroke-width="2.5" stroke-linejoin="round" stroke-linecap="round" points="42.0,273.7 52.0,267.5 61.9,255.2 71.9,249.1 81.8,255.2 91.8,261.4 101.7,261.4 111.7,261.4 121.6,261.4 131.6,261.4 141.6,261.4 151.5,261.4 161.5,261.4 171.4,261.4 181.4,261.4 191.3,267.5 201.3,267.5 211.2,261.4 221.2,255.2 231.2,255.2 241.1,249.1 251.1,249.1 261.0,249.1 271.0,249.1 280.9,249.1 290.9,249.1 300.8,249.1 310.8,249.1 320.8,249.1 330.7,255.2 340.7,255.2 350.6,255.2 360.6,255.2 370.5,261.4 380.5,261.4 390.4,261.4 400.4,261.4 410.4,261.4 420.3,255.2 430.3,255.2 440.2,255.2 450.2,255.2 460.1,261.4 470.1,261.4 480.0,261.4 490.0,261.4 500.0,261.4 509.9,261.4 519.9,261.4 529.8,255.2 539.8,255.2 549.7,255.2 559.7,261.4 569.6,261.4 579.6,261.4 589.6,261.4 599.5,261.4 609.5,261.4 619.4,261.4 629.4,261.4 639.3,261.4 649.3,255.2 659.2,261.4 669.2,261.4 679.2,261.4 689.1,261.4 699.1,261.4 709.0,261.4 719.0,261.4 728.9,261.4 738.9,261.4 748.8,261.4 758.8,261.4 768.8,261.4 778.7,261.4 788.7,261.4 798.6,261.4 808.6,267.5 818.5,267.5 828.5,267.5 838.4,267.5 848.4,267.5 858.4,267.5 868.3,261.4 878.3,261.4 888.2,261.4 898.2,261.4 908.1,261.4 918.1,261.4 928.0,255.2 938.0,249.1"/><polyline fill="none" stroke="#ef4444" stroke-width="2.5" stroke-linejoin="round" stroke-linecap="round" points="42.0,286.0 52.0,132.1 61.9,286.0 71.9,286.0 81.8,286.0 91.8,286.0 101.7,286.0 111.7,286.0 121.6,286.0 131.6,286.0 141.6,286.0 151.5,286.0 161.5,286.0 171.4,286.0 181.4,286.0 191.3,286.0 201.3,286.0 211.2,279.8 221.2,286.0 231.2,286.0 241.1,286.0 251.1,286.0 261.0,286.0 271.0,286.0 280.9,286.0 290.9,286.0 300.8,286.0 310.8,286.0 320.8,286.0 330.7,286.0 340.7,286.0 350.6,286.0 360.6,286.0 370.5,286.0 380.5,286.0 390.4,286.0 400.4,286.0 410.4,286.0 420.3,286.0 430.3,286.0 440.2,286.0 450.2,286.0 460.1,286.0 470.1,286.0 480.0,286.0 490.0,286.0 500.0,286.0 509.9,286.0 519.9,286.0 529.8,286.0 539.8,286.0 549.7,286.0 559.7,286.0 569.6,286.0 579.6,286.0 589.6,286.0 599.5,286.0 609.5,286.0 619.4,286.0 629.4,286.0 639.3,286.0 649.3,286.0 659.2,286.0 669.2,286.0 679.2,286.0 689.1,286.0 699.1,286.0 709.0,279.8 719.0,286.0 728.9,286.0 738.9,286.0 748.8,286.0 758.8,286.0 768.8,286.0 778.7,286.0 788.7,286.0 798.6,286.0 808.6,286.0 818.5,286.0 828.5,286.0 838.4,286.0 848.4,279.8 858.4,286.0 868.3,286.0 878.3,286.0 888.2,286.0 898.2,286.0 908.1,286.0 918.1,286.0 928.0,286.0 938.0,286.0"/><polyline fill="none" stroke="#a855f7" stroke-width="2.5" stroke-linejoin="round" stroke-linecap="round" points="42.0,286.0 52.0,286.0 61.9,286.0 71.9,286.0 81.8,286.0 91.8,286.0 101.7,286.0 111.7,286.0 121.6,286.0 131.6,286.0 141.6,286.0 151.5,286.0 161.5,286.0 171.4,286.0 181.4,286.0 191.3,286.0 201.3,286.0 211.2,286.0 221.2,286.0 231.2,286.0 241.1,286.0 251.1,286.0 261.0,286.0 271.0,286.0 280.9,286.0 290.9,286.0 300.8,286.0 310.8,286.0 320.8,286.0 330.7,286.0 340.7,286.0 350.6,286.0 360.6,286.0 370.5,286.0 380.5,286.0 390.4,286.0 400.4,286.0 410.4,286.0 420.3,286.0 430.3,286.0 440.2,286.0 450.2,286.0 460.1,286.0 470.1,286.0 480.0,286.0 490.0,286.0 500.0,286.0 509.9,286.0 519.9,286.0 529.8,286.0 539.8,286.0 549.7,286.0 559.7,279.8 569.6,286.0 579.6,286.0 589.6,286.0 599.5,286.0 609.5,286.0 619.4,286.0 629.4,286.0 639.3,286.0 649.3,286.0 659.2,286.0 669.2,286.0 679.2,286.0 689.1,286.0 699.1,286.0 709.0,286.0 719.0,286.0 728.9,286.0 738.9,286.0 748.8,286.0 758.8,286.0 768.8,286.0 778.7,286.0 788.7,286.0 798.6,286.0 808.6,286.0 818.5,286.0 828.5,286.0 838.4,286.0 848.4,286.0 858.4,286.0 868.3,286.0 878.3,286.0 888.2,286.0 898.2,286.0 908.1,286.0 918.1,286.0 928.0,286.0 938.0,286.0"/><text x="42" y="308" font-size="11" fill="#5a688a">19/06 15:39</text><text x="938" y="308" text-anchor="end" font-size="11" fill="#5a688a">20/07 09:29</text></svg>