<svg xmlns="http://www.w3.org/2000/svg" viewBox="0 0 960 320" width="960" height="320" font-family="Segoe UI, system-ui, -apple-system, Roboto, Helvetica, Arial, sans-serif" role="img" aria-label="Availability history per region"><rect x="0.5" y="0.5" width="959" height="319" rx="14" fill="#ffffff" stroke="#dce3f1"/><text x="42" y="26" font-size="14" font-weight="600" fill="#14203a">History · 43 points</text><circle cx="47" cy="40" r="5" fill="#22c55e"/><text x="57" y="44" font-size="12" fill="#5a688a">Available</text><circle cx="139.8" cy="40" r="5" fill="#f59e0b"/><text x="149.8" y="44" font-size="12" fill="#5a688a">Saturated</text><circle cx="232.60000000000002" cy="40" r="5" fill="#ef4444"/><text x="242.60000000000002" y="44" font-size="12" fill="#5a688a">Error</text><line x1="42" y1="286.0" x2="938" y2="286.0" stroke="#eef2f7" stroke-width="1"/><text x="35" y="289.0" text-anchor="end" font-size="11" fill="#5a688a">0</text><line x1="42" y1="227.5" x2="938" y2="227.5" stroke="#eef2f7" stroke-width="1"/><text x="35" y="230.5" text-anchor="end" font-size="11" fill="#5a688a">10</text><line x1="42" y1="169.0" x2="938" y2="169.0" stroke="#eef2f7" stroke-width="1"/><text x="35" y="172.0" text-anchor="end" font-size="11" fill="#5a688a">20</text><line x1="42" y1="110.5" x2="938" y2="110.5" stroke="#eef2f7" stroke-width="1"/><text x="35" y="113.5" text-anchor="end" font-size="11" fill="#5a688a">29</text><line x1="42" y1="52.0" x2="938" y2="52.0" stroke="#eef2f7" stroke-width="1"/><text x="35" y="55.0" text-anchor="end" font-size="11" fill="#5a688a">39</text><polyline fill="none" stroke="#22c55e" stroke-width="2.5" stroke-linejoin="round" stroke-linecap="round" points="42.0,70.0 63.3,70.0 84.7,88.0 106.0,88.0 127.3,76.0 148.7,76.0 170.0,76.0 191.3,70.0 212.7,76.0 234.0,70.0 255.3,64.0 276.7,58.0 298.0,58.0 319.3,58.0 340.7,58.0 362.0,58.0 383.3,58.0 404.7,58.0 426.0,58.0 447.3,58.0 468.7,58.0 490.0,58.0 511.3,58.0 532.7,58.0 554.0,58.0 575.3,58.0 596.7,58.0 618.0,58.0 639.3,58.0 660.7,58.0 682.0,58.0 703.3,70.0 724.7,76.0 746.0,94.0 767.3,64.0 788.7,64.0 810.0,58.0 831.3,58.0 852.7,58.0 874.0,70.0 895.3,76.0 916.7,76.0 938.0,82.0"/><circle cx="42.0" cy="70.0" r="2.5" fill="#22c55e"/><circle cx="63.3" cy="70.0" r="2.5" fill="#22c55e"/><circle cx="84.7" cy="88.0" r="2.5" fill="#22c55e"/><circle cx="106.0" cy="88.0" r="2.5" fill="#22c55e"/><circle cx="127.3" cy="76.0" r="2.5" fill="#22c55e"/><circle cx="148.7" cy="76.0" r="2.5" fill="#22c55e"/><circle cx="170.0" cy="76.0" r="2.5" fill="#22c55e"/><circle cx="191.3" cy="70.0" r="2.5" fill="#22c55e"/><circle cx="212.7" cy="76.0" r="2.5" fill="#22c55e"/><circle cx="234.0" cy="70.0" r="2.5" fill="#22c55e"/><circle cx="255.3" cy="64.0" r="2.5" fill="#22c55e"/><circle cx="276.7" cy="58.0" r="2.5" fill="#22c55e"/><circle cx="298.0" cy="58.0" r="2.5" fill="#22c55e"/><circle cx="319.3" cy="58.0" r="2.5" fill="#22c55e"/><circle cx="340.7" cy="58.0" r="2.5" fill="#22c55e"/><circle cx="362.0" cy="58.0" r="2.5" fill="#22c55e"/><circle cx="383.3" cy="58.0" r="2.5" fill="#22c55e"/><circle cx="404.7" cy="58.0" r="2.5" fill="#22c55e"/><circle cx="426.0" cy="58.0" r="2.5" fill="#22c55e"/><circle cx="447.3" cy="58.0" r="2.5" fill="#22c55e"/><circle cx="468.7" cy="58.0" r="2.5" fill="#22c55e"/><circle cx="490.0" cy="58.0" r="2.5" fill="#22c55e"/><circle cx="511.3" cy="58.0" r="2.5" fill="#22c55e"/><circle cx="532.7" cy="58.0" r="2.5" fill="#22c55e"/><circle cx="554.0" cy="58.0" r="2.5" fill="#22c55e"/><circle cx="575.3" cy="58.0" r="2.5" fill="#22c55e"/><circle cx="596.7" cy="58.0" r="2.5" fill="#22c55e"/><circle cx="618.0" cy="58.0" r="2.5" fill="#22c55e"/><circle cx="639.3" cy="58.0" r="2.5" fill="#22c55e"/><circle cx="660.7" cy="58.0" r="2.5" fill="#22c55e"/><circle cx="682.0" cy="58.0" r="2.5" fill="#22c55e"/><circle cx="703.3" cy="70.0" r="2.5" fill="#22c55e"/><circle cx="724.7" cy="76.0" r="2.5" fill="#22c55e"/><circle cx="746.0" cy="94.0" r="2.5" fill="#22c55e"/><circle cx="767.3" cy="64.0" r="2.5" fill="#22c55e"/><circle cx="788.7" cy="64.0" r="2.5" fill="#22c55e"/><circle cx="810.0" cy="58.0" r="2.5" fill="#22c55e"/><circle cx="831.3" cy="58.0" r="2.5" fill="#22c55e"/><circle cx="852.7" cy="58.0" r="2.5" fill="#22c55e"/><circle cx="874.0" cy="70.0" r="2.5" fill="#22c55e"/><circle cx="895.3" cy="76.0" r="2.5" fill="#22c55e"/><circle cx="916.7" cy="76.0" r="2.5" fill="#22c55e"/><circle cx="938.0" cy="82.0" r="2.5" fill="#22c55e"/><polyline fill="none" stroke="#f59e0b" stroke-width="2.5" stroke-linejoin="round" stroke-linecap="round" points="42.0,274.0 63.3,274.0 84.7,274.0 106.0,280.0 127.3,268.0 148.7,268.0 170.0,268.0 191.3,274.0 212.7,274.0 234.0,274.0 255.3,280.0 276.7,286.0 298.0,286.0 319.3,286.0 340.7,286.0 362.0,286.0 383.3,286.0 404.7,286.0 426.0,286.0 447.3,286.0 468.7,286.0 490.0,286.0 511.3,286.0 532.7,286.0 554.0,286.0 575.3,286.0 596.7,286.0 618.0,286.0 639.3,286.0 660.7,286.0 682.0,286.0 703.3,274.0 724.7,280.0 746.0,280.0 767.3,280.0 788.7,280.0 810.0,286.0 831.3,286.0 852.7,286.0 874.0,274.0 895.3,268.0 916.7,268.0 938.0,262.0"/><circle cx="42.0" cy="274.0" r="2.5" fill="#f59e0b"/><circle cx="63.3" cy="274.0" r="2.5" fill="#f59e0b"/><circle cx="84.7" cy="274.0" r="2.5" fill="#f59e0b"/><circle cx="106.0" cy="280.0" r="2.5" fill="#f59e0b"/><circle cx="127.3" cy="268.0" r="2.5" fill="#f59e0b"/><circle cx="148.7" cy="268.0" r="2.5" fill="#f59e0b"/><circle cx="170.0" cy="268.0" r="2.5" fill="#f59e0b"/><circle cx="191.3" cy="274.0" r="2.5" fill="#f59e0b"/><circle cx="212.7" cy="274.0" r="2.5" fill="#f59e0b"/><circle cx="234.0" cy="274.0" r="2.5" fill="#f59e0b"/><circle cx="255.3" cy="280.0" r="2.5" fill="#f59e0b"/><circle cx="276.7" cy="286.0" r="2.5" fill="#f59e0b"/><circle cx="298.0" cy="286.0" r="2.5" fill="#f59e0b"/><circle cx="319.3" cy="286.0" r="2.5" fill="#f59e0b"/><circle cx="340.7" cy="286.0" r="2.5" fill="#f59e0b"/><circle cx="362.0" cy="286.0" r="2.5" fill="#f59e0b"/><circle cx="383.3" cy="286.0" r="2.5" fill="#f59e0b"/><circle cx="404.7" cy="286.0" r="2.5" fill="#f59e0b"/><circle cx="426.0" cy="286.0" r="2.5" fill="#f59e0b"/><circle cx="447.3" cy="286.0" r="2.5" fill="#f59e0b"/><circle cx="468.7" cy="286.0" r="2.5" fill="#f59e0b"/><circle cx="490.0" cy="286.0" r="2.5" fill="#f59e0b"/><circle cx="511.3" cy="286.0" r="2.5" fill="#f59e0b"/><circle cx="532.7" cy="286.0" r="2.5" fill="#f59e0b"/><circle cx="554.0" cy="286.0" r="2.5" fill="#f59e0b"/><circle cx="575.3" cy="286.0" r="2.5" fill="#f59e0b"/><circle cx="596.7" cy="286.0" r="2.5" fill="#f59e0b"/><circle cx="618.0" cy="286.0" r="2.5" fill="#f59e0b"/><circle cx="639.3" cy="286.0" r="2.5" fill="#f59e0b"/><circle cx="660.7" cy="286.0" r="2.5" fill="#f59e0b"/><circle cx="682.0" cy="286.0" r="2.5" fill="#f59e0b"/><circle cx="703.3" cy="274.0" r="2.5" fill="#f59e0b"/><circle cx="724.7" cy="280.0" r="2.5" fill="#f59e0b"/><circle cx="746.0" cy="280.0" r="2.5" fill="#f59e0b"/><circle cx="767.3" cy="280.0" r="2.5" fill="#f59e0b"/><circle cx="788.7" cy="280.0" r="2.5" fill="#f59e0b"/><circle cx="810.0" cy="286.0" r="2.5" fill="#f59e0b"/><circle cx="831.3" cy="286.0" r="2.5" fill="#f59e0b"/><circle cx="852.7" cy="286.0" r="2.5" fill="#f59e0b"/><circle cx="874.0" cy="274.0" r="2.5" fill="#f59e0b"/><circle cx="895.3" cy="268.0" r="2.5" fill="#f59e0b"/><circle cx="916.7" cy="268.0" r="2.5" fill="#f59e0b"/><circle cx="938.0" cy="262.0" r="2.5" fill="#f59e0b"/><polyline fill="none" stroke="#ef4444" stroke-width="2.5" stroke-linejoin="round" stroke-linecap="round" points="42.0,280.0 63.3,280.0 84.7,268.0 106.0,262.0 127.3,286.0 148.7,286.0 170.0,286.0 191.3,286.0 212.7,280.0 234.0,286.0 255.3,286.0 276.7,286.0 298.0,286.0 319.3,286.0 340.7,286.0 362.0,286.0 383.3,286.0 404.7,286.0 426.0,286.0 447.3,286.0 468.7,286.0 490.0,286.0 511.3,286.0 532.7,286.0 554.0,286.0 575.3,286.0 596.7,286.0 618.0,286.0 639.3,286.0 660.7,286.0 682.0,286.0 703.3,286.0 724.7,274.0 746.0,256.0 767.3,286.0 788.7,286.0 810.0,286.0 831.3,286.0 852.7,286.0 874.0,286.0 895.3,286.0 916.7,286.0 938.0,286.0"/><circle cx="42.0" cy="280.0" r="2.5" fill="#ef4444"/><circle cx="63.3" cy="280.0" r="2.5" fill="#ef4444"/><circle cx="84.7" cy="268.0" r="2.5" fill="#ef4444"/><circle cx="106.0" cy="262.0" r="2.5" fill="#ef4444"/><circle cx="127.3" cy="286.0" r="2.5" fill="#ef4444"/><circle cx="148.7" cy="286.0" r="2.5" fill="#ef4444"/><circle cx="170.0" cy="286.0" r="2.5" fill="#ef4444"/><circle cx="191.3" cy="286.0" r="2.5" fill="#ef4444"/><circle cx="212.7" cy="280.0" r="2.5" fill="#ef4444"/><circle cx="234.0" cy="286.0" r="2.5" fill="#ef4444"/><circle cx="255.3" cy="286.0" r="2.5" fill="#ef4444"/><circle cx="276.7" cy="286.0" r="2.5" fill="#ef4444"/><circle cx="298.0" cy="286.0" r="2.5" fill="#ef4444"/><circle cx="319.3" cy="286.0" r="2.5" fill="#ef4444"/><circle cx="340.7" cy="286.0" r="2.5" fill="#ef4444"/><circle cx="362.0" cy="286.0" r="2.5" fill="#ef4444"/><circle cx="383.3" cy="286.0" r="2.5" fill="#ef4444"/><circle cx="404.7" cy="286.0" r="2.5" fill="#ef4444"/><circle cx="426.0" cy="286.0" r="2.5" fill="#ef4444"/><circle cx="447.3" cy="286.0" r="2.5" fill="#ef4444"/><circle cx="468.7" cy="286.0" r="2.5" fill="#ef4444"/><circle cx="490.0" cy="286.0" r="2.5" fill="#ef4444"/><circle cx="511.3" cy="286.0" r="2.5" fill="#ef4444"/><circle cx="532.7" cy="286.0" r="2.5" fill="#ef4444"/><circle cx="554.0" cy="286.0" r="2.5" fill="#ef4444"/><circle cx="575.3" cy="286.0" r="2.5" fill="#ef4444"/><circle cx="596.7" cy="286.0" r="2.5" fill="#ef4444"/><circle cx="618.0" cy="286.0" r="2.5" fill="#ef4444"/><circle cx="639.3" cy="286.0" r="2.5" fill="#ef4444"/><circle cx="660.7" cy="286.0" r="2.5" fill="#ef4444"/><circle cx="682.0" cy="286.0" r="2.5" fill="#ef4444"/><circle cx="703.3" cy="286.0" r="2.5" fill="#ef4444"/><circle cx="724.7" cy="274.0" r="2.5" fill="#ef4444"/><circle cx="746.0" cy="256.0" r="2.5" fill="#ef4444"/><circle cx="767.3" cy="286.0" r="2.5" fill="#ef4444"/><circle cx="788.7" cy="286.0" r="2.5" fill="#ef4444"/><circle cx="810.0" cy="286.0" r="2.5" fill="#ef4444"/><circle cx="831.3" cy="286.0" r="2.5" fill="#ef4444"/><circle cx="852.7" cy="286.0" r="2.5" fill="#ef4444"/><circle cx="874.0" cy="286.0" r="2.5" fill="#ef4444"/><circle cx="895.3" cy="286.0" r="2.5" fill="#ef4444"/><circle cx="916.7" cy="286.0" r="2.5" fill="#ef4444"/><circle cx="938.0" cy="286.0" r="2.5" fill="#ef4444"/><text x="42" y="308" font-size="11" fill="#5a688a">19/06 12:43</text><text x="938" y="308" text-anchor="end" font-size="11" fill="#5a688a">23/06 12:33</text></svg>