<svg xmlns="http://www.w3.org/2000/svg" viewBox="0 0 960 320" width="960" height="320" font-family="Segoe UI, system-ui, -apple-system, Roboto, Helvetica, Arial, sans-serif" role="img" aria-label="Availability history per region"><rect x="0.5" y="0.5" width="959" height="319" rx="14" fill="#ffffff" stroke="#dce3f1"/><text x="42" y="26" font-size="14" font-weight="600" fill="#14203a">History · 132 points</text><circle cx="47" cy="40" r="5" fill="#22c55e"/><text x="57" y="44" font-size="12" fill="#5a688a">Available</text><circle cx="139.8" cy="40" r="5" fill="#f59e0b"/><text x="149.8" y="44" font-size="12" fill="#5a688a">Saturated</text><circle cx="232.60000000000002" cy="40" r="5" fill="#ef4444"/><text x="242.60000000000002" y="44" font-size="12" fill="#5a688a">Error</text><circle cx="296.6" cy="40" r="5" fill="#a855f7"/><text x="306.6" y="44" font-size="12" fill="#5a688a">Timeout</text><line x1="42" y1="286.0" x2="938" y2="286.0" stroke="#eef2f7" stroke-width="1"/><text x="35" y="289.0" text-anchor="end" font-size="11" fill="#5a688a">0</text><line x1="42" y1="227.5" x2="938" y2="227.5" stroke="#eef2f7" stroke-width="1"/><text x="35" y="230.5" text-anchor="end" font-size="11" fill="#5a688a">10</text><line x1="42" y1="169.0" x2="938" y2="169.0" stroke="#eef2f7" stroke-width="1"/><text x="35" y="172.0" text-anchor="end" font-size="11" fill="#5a688a">20</text><line x1="42" y1="110.5" x2="938" y2="110.5" stroke="#eef2f7" stroke-width="1"/><text x="35" y="113.5" text-anchor="end" font-size="11" fill="#5a688a">29</text><line x1="42" y1="52.0" x2="938" y2="52.0" stroke="#eef2f7" stroke-width="1"/><text x="35" y="55.0" text-anchor="end" font-size="11" fill="#5a688a">39</text><polyline fill="none" stroke="#22c55e" stroke-width="2.5" stroke-linejoin="round" stroke-linecap="round" points="42.0,70.0 48.8,70.0 55.7,88.0 62.5,88.0 69.4,76.0 76.2,76.0 83.0,76.0 89.9,70.0 96.7,76.0 103.6,70.0 110.4,64.0 117.2,58.0 124.1,58.0 130.9,58.0 137.8,58.0 144.6,58.0 151.4,58.0 158.3,58.0 165.1,58.0 172.0,58.0 178.8,58.0 185.6,58.0 192.5,58.0 199.3,58.0 206.2,58.0 213.0,58.0 219.8,58.0 226.7,58.0 233.5,58.0 240.4,58.0 247.2,58.0 254.0,70.0 260.9,76.0 267.7,94.0 274.5,64.0 281.4,64.0 288.2,58.0 295.1,58.0 301.9,58.0 308.7,70.0 315.6,76.0 322.4,76.0 329.3,82.0 336.1,82.0 342.9,82.0 349.8,82.0 356.6,76.0 363.5,64.0 370.3,70.0 377.1,70.0 384.0,82.0 390.8,76.0 397.7,76.0 404.5,82.0 411.3,76.0 418.2,76.0 425.0,76.0 431.9,64.0 438.7,64.0 445.5,76.0 452.4,76.0 459.2,76.0 466.1,88.0 472.9,70.0 479.7,64.0 486.6,58.0 493.4,58.0 500.3,70.0 507.1,70.0 513.9,70.0 520.8,76.0 527.6,70.0 534.5,70.0 541.3,70.0 548.1,70.0 555.0,76.0 561.8,82.0 568.7,76.0 575.5,70.0 582.3,70.0 589.2,70.0 596.0,70.0 602.9,76.0 609.7,70.0 616.5,70.0 623.4,70.0 630.2,70.0 637.1,70.0 643.9,70.0 650.7,70.0 657.6,70.0 664.4,70.0 671.3,70.0 678.1,70.0 684.9,70.0 691.8,70.0 698.6,70.0 705.5,70.0 712.3,70.0 719.1,70.0 726.0,70.0 732.8,70.0 739.6,70.0 746.5,70.0 753.3,70.0 760.2,70.0 767.0,70.0 773.8,70.0 780.7,70.0 787.5,70.0 794.4,70.0 801.2,70.0 808.0,70.0 814.9,70.0 821.7,70.0 828.6,70.0 835.4,70.0 842.2,70.0 849.1,70.0 855.9,70.0 862.8,70.0 869.6,70.0 876.4,70.0 883.3,70.0 890.1,70.0 897.0,70.0 903.8,70.0 910.6,70.0 917.5,70.0 924.3,70.0 931.2,70.0 938.0,70.0"/><polyline fill="none" stroke="#f59e0b" stroke-width="2.5" stroke-linejoin="round" stroke-linecap="round" points="42.0,274.0 48.8,274.0 55.7,274.0 62.5,280.0 69.4,268.0 76.2,268.0 83.0,268.0 89.9,274.0 96.7,274.0 103.6,274.0 110.4,280.0 117.2,286.0 124.1,286.0 130.9,286.0 137.8,286.0 144.6,286.0 151.4,286.0 158.3,286.0 165.1,286.0 172.0,286.0 178.8,286.0 185.6,286.0 192.5,286.0 199.3,286.0 206.2,286.0 213.0,286.0 219.8,286.0 226.7,286.0 233.5,286.0 240.4,286.0 247.2,286.0 254.0,274.0 260.9,280.0 267.7,280.0 274.5,280.0 281.4,280.0 288.2,286.0 295.1,286.0 301.9,286.0 308.7,274.0 315.6,268.0 322.4,268.0 329.3,262.0 336.1,262.0 342.9,262.0 349.8,262.0 356.6,268.0 363.5,280.0 370.3,280.0 377.1,274.0 384.0,262.0 390.8,268.0 397.7,268.0 404.5,262.0 411.3,268.0 418.2,268.0 425.0,268.0 431.9,280.0 438.7,280.0 445.5,268.0 452.4,268.0 459.2,268.0 466.1,262.0 472.9,274.0 479.7,280.0 486.6,286.0 493.4,286.0 500.3,274.0 507.1,274.0 513.9,274.0 520.8,274.0 527.6,274.0 534.5,274.0 541.3,274.0 548.1,274.0 555.0,280.0 561.8,274.0 568.7,280.0 575.5,286.0 582.3,286.0 589.2,286.0 596.0,286.0 602.9,280.0 609.7,286.0 616.5,286.0 623.4,286.0 630.2,286.0 637.1,286.0 643.9,286.0 650.7,286.0 657.6,286.0 664.4,286.0 671.3,286.0 678.1,286.0 684.9,286.0 691.8,286.0 698.6,286.0 705.5,286.0 712.3,286.0 719.1,286.0 726.0,286.0 732.8,286.0 739.6,286.0 746.5,286.0 753.3,286.0 760.2,286.0 767.0,286.0 773.8,286.0 780.7,286.0 787.5,286.0 794.4,286.0 801.2,286.0 808.0,286.0 814.9,286.0 821.7,286.0 828.6,286.0 835.4,286.0 842.2,286.0 849.1,286.0 855.9,286.0 862.8,286.0 869.6,286.0 876.4,286.0 883.3,286.0 890.1,286.0 897.0,286.0 903.8,286.0 910.6,286.0 917.5,286.0 924.3,286.0 931.2,286.0 938.0,286.0"/><polyline fill="none" stroke="#ef4444" stroke-width="2.5" stroke-linejoin="round" stroke-linecap="round" points="42.0,280.0 48.8,280.0 55.7,268.0 62.5,262.0 69.4,286.0 76.2,286.0 83.0,286.0 89.9,286.0 96.7,280.0 103.6,286.0 110.4,286.0 117.2,286.0 124.1,286.0 130.9,286.0 137.8,286.0 144.6,286.0 151.4,286.0 158.3,286.0 165.1,286.0 172.0,286.0 178.8,286.0 185.6,286.0 192.5,286.0 199.3,286.0 206.2,286.0 213.0,286.0 219.8,286.0 226.7,286.0 233.5,286.0 240.4,286.0 247.2,286.0 254.0,286.0 260.9,274.0 267.7,256.0 274.5,286.0 281.4,286.0 288.2,286.0 295.1,286.0 301.9,286.0 308.7,286.0 315.6,286.0 322.4,286.0 329.3,286.0 336.1,286.0 342.9,286.0 349.8,286.0 356.6,286.0 363.5,286.0 370.3,280.0 377.1,286.0 384.0,286.0 390.8,286.0 397.7,286.0 404.5,286.0 411.3,286.0 418.2,286.0 425.0,286.0 431.9,286.0 438.7,286.0 445.5,286.0 452.4,286.0 459.2,286.0 466.1,280.0 472.9,286.0 479.7,286.0 486.6,286.0 493.4,286.0 500.3,286.0 507.1,286.0 513.9,286.0 520.8,286.0 527.6,286.0 534.5,286.0 541.3,286.0 548.1,286.0 555.0,274.0 561.8,274.0 568.7,274.0 575.5,274.0 582.3,274.0 589.2,274.0 596.0,274.0 602.9,274.0 609.7,274.0 616.5,274.0 623.4,274.0 630.2,274.0 637.1,274.0 643.9,274.0 650.7,274.0 657.6,274.0 664.4,274.0 671.3,274.0 678.1,274.0 684.9,274.0 691.8,274.0 698.6,274.0 705.5,274.0 712.3,274.0 719.1,274.0 726.0,274.0 732.8,274.0 739.6,274.0 746.5,274.0 753.3,274.0 760.2,274.0 767.0,274.0 773.8,274.0 780.7,274.0 787.5,274.0 794.4,274.0 801.2,274.0 808.0,274.0 814.9,274.0 821.7,274.0 828.6,274.0 835.4,274.0 842.2,274.0 849.1,274.0 855.9,274.0 862.8,274.0 869.6,274.0 876.4,274.0 883.3,274.0 890.1,274.0 897.0,274.0 903.8,274.0 910.6,274.0 917.5,274.0 924.3,274.0 931.2,274.0 938.0,274.0"/><polyline fill="none" stroke="#a855f7" stroke-width="2.5" stroke-linejoin="round" stroke-linecap="round" points="42.0,286.0 48.8,286.0 55.7,286.0 62.5,286.0 69.4,286.0 76.2,286.0 83.0,286.0 89.9,286.0 96.7,286.0 103.6,286.0 110.4,286.0 117.2,286.0 124.1,286.0 130.9,286.0 137.8,286.0 144.6,286.0 151.4,286.0 158.3,286.0 165.1,286.0 172.0,286.0 178.8,286.0 185.6,286.0 192.5,286.0 199.3,286.0 206.2,286.0 213.0,286.0 219.8,286.0 226.7,286.0 233.5,286.0 240.4,286.0 247.2,286.0 254.0,286.0 260.9,286.0 267.7,286.0 274.5,286.0 281.4,286.0 288.2,286.0 295.1,286.0 301.9,286.0 308.7,286.0 315.6,286.0 322.4,286.0 329.3,286.0 336.1,286.0 342.9,286.0 349.8,286.0 356.6,286.0 363.5,286.0 370.3,286.0 377.1,286.0 384.0,286.0 390.8,286.0 397.7,286.0 404.5,286.0 411.3,286.0 418.2,286.0 425.0,286.0 431.9,286.0 438.7,286.0 445.5,286.0 452.4,286.0 459.2,286.0 466.1,286.0 472.9,286.0 479.7,286.0 486.6,286.0 493.4,286.0 500.3,286.0 507.1,286.0 513.9,286.0 520.8,280.0 527.6,286.0 534.5,286.0 541.3,286.0 548.1,286.0 555.0,286.0 561.8,286.0 568.7,286.0 575.5,286.0 582.3,286.0 589.2,286.0 596.0,286.0 602.9,286.0 609.7,286.0 616.5,286.0 623.4,286.0 630.2,286.0 637.1,286.0 643.9,286.0 650.7,286.0 657.6,286.0 664.4,286.0 671.3,286.0 678.1,286.0 684.9,286.0 691.8,286.0 698.6,286.0 705.5,286.0 712.3,286.0 719.1,286.0 726.0,286.0 732.8,286.0 739.6,286.0 746.5,286.0 753.3,286.0 760.2,286.0 767.0,286.0 773.8,286.0 780.7,286.0 787.5,286.0 794.4,286.0 801.2,286.0 808.0,286.0 814.9,286.0 821.7,286.0 828.6,286.0 835.4,286.0 842.2,286.0 849.1,286.0 855.9,286.0 862.8,286.0 869.6,286.0 876.4,286.0 883.3,286.0 890.1,286.0 897.0,286.0 903.8,286.0 910.6,286.0 917.5,286.0 924.3,286.0 931.2,286.0 938.0,286.0"/><text x="42" y="308" font-size="11" fill="#5a688a">19/06 12:43</text><text x="938" y="308" text-anchor="end" font-size="11" fill="#5a688a">28/06 13:29</text></svg>