<svg xmlns="http://www.w3.org/2000/svg" viewBox="0 0 960 320" width="960" height="320" font-family="Segoe UI, system-ui, -apple-system, Roboto, Helvetica, Arial, sans-serif" role="img" aria-label="Availability history per region"><rect x="0.5" y="0.5" width="959" height="319" rx="14" fill="#ffffff" stroke="#dce3f1"/><text x="42" y="26" font-size="14" font-weight="600" fill="#14203a">History · 114 points</text><circle cx="47" cy="40" r="5" fill="#22c55e"/><text x="57" y="44" font-size="12" fill="#5a688a">Available</text><circle cx="139.8" cy="40" r="5" fill="#f59e0b"/><text x="149.8" y="44" font-size="12" fill="#5a688a">Saturated</text><circle cx="232.60000000000002" cy="40" r="5" fill="#ef4444"/><text x="242.60000000000002" y="44" font-size="12" fill="#5a688a">Error</text><circle cx="296.6" cy="40" r="5" fill="#a855f7"/><text x="306.6" y="44" font-size="12" fill="#5a688a">Timeout</text><line x1="42" y1="286.0" x2="938" y2="286.0" stroke="#eef2f7" stroke-width="1"/><text x="35" y="289.0" text-anchor="end" font-size="11" fill="#5a688a">0</text><line x1="42" y1="227.5" x2="938" y2="227.5" stroke="#eef2f7" stroke-width="1"/><text x="35" y="230.5" text-anchor="end" font-size="11" fill="#5a688a">10</text><line x1="42" y1="169.0" x2="938" y2="169.0" stroke="#eef2f7" stroke-width="1"/><text x="35" y="172.0" text-anchor="end" font-size="11" fill="#5a688a">19</text><line x1="42" y1="110.5" x2="938" y2="110.5" stroke="#eef2f7" stroke-width="1"/><text x="35" y="113.5" text-anchor="end" font-size="11" fill="#5a688a">28</text><line x1="42" y1="52.0" x2="938" y2="52.0" stroke="#eef2f7" stroke-width="1"/><text x="35" y="55.0" text-anchor="end" font-size="11" fill="#5a688a">38</text><polyline fill="none" stroke="#22c55e" stroke-width="2.5" stroke-linejoin="round" stroke-linecap="round" points="42.0,64.3 49.9,224.4 57.9,82.8 65.8,88.9 73.7,82.8 81.6,76.6 89.6,76.6 97.5,76.6 105.4,76.6 113.4,76.6 121.3,76.6 129.2,76.6 137.2,76.6 145.1,76.6 153.0,76.6 160.9,70.5 168.9,70.5 176.8,82.8 184.7,82.8 192.7,82.8 200.6,88.9 208.5,88.9 216.4,88.9 224.4,88.9 232.3,88.9 240.2,88.9 248.2,88.9 256.1,88.9 264.0,88.9 271.9,82.8 279.9,82.8 287.8,82.8 295.7,82.8 303.7,76.6 311.6,76.6 319.5,76.6 327.5,76.6 335.4,76.6 343.3,82.8 351.2,82.8 359.2,82.8 367.1,82.8 375.0,76.6 383.0,76.6 390.9,76.6 398.8,76.6 406.7,76.6 414.7,76.6 422.6,76.6 430.5,82.8 438.5,82.8 446.4,82.8 454.3,82.8 462.2,76.6 470.2,76.6 478.1,76.6 486.0,76.6 494.0,76.6 501.9,76.6 509.8,76.6 517.8,76.6 525.7,82.8 533.6,76.6 541.5,76.6 549.5,76.6 557.4,76.6 565.3,76.6 573.3,82.8 581.2,76.6 589.1,76.6 597.0,76.6 605.0,76.6 612.9,76.6 620.8,76.6 628.8,76.6 636.7,76.6 644.6,76.6 652.5,70.5 660.5,70.5 668.4,70.5 676.3,70.5 684.3,76.6 692.2,70.5 700.1,76.6 708.1,76.6 716.0,76.6 723.9,76.6 731.8,76.6 739.8,76.6 747.7,82.8 755.6,88.9 763.6,88.9 771.5,88.9 779.4,88.9 787.3,88.9 795.3,88.9 803.2,88.9 811.1,95.1 819.1,88.9 827.0,88.9 834.9,88.9 842.8,88.9 850.8,88.9 858.7,88.9 866.6,82.8 874.6,82.8 882.5,82.8 890.4,82.8 898.4,82.8 906.3,82.8 914.2,82.8 922.1,82.8 930.1,88.9 938.0,88.9"/><polyline fill="none" stroke="#f59e0b" stroke-width="2.5" stroke-linejoin="round" stroke-linecap="round" points="42.0,273.7 49.9,267.5 57.9,255.2 65.8,249.1 73.7,255.2 81.6,261.4 89.6,261.4 97.5,261.4 105.4,261.4 113.4,261.4 121.3,261.4 129.2,261.4 137.2,261.4 145.1,261.4 153.0,261.4 160.9,267.5 168.9,267.5 176.8,261.4 184.7,255.2 192.7,255.2 200.6,249.1 208.5,249.1 216.4,249.1 224.4,249.1 232.3,249.1 240.2,249.1 248.2,249.1 256.1,249.1 264.0,249.1 271.9,255.2 279.9,255.2 287.8,255.2 295.7,255.2 303.7,261.4 311.6,261.4 319.5,261.4 327.5,261.4 335.4,261.4 343.3,255.2 351.2,255.2 359.2,255.2 367.1,255.2 375.0,261.4 383.0,261.4 390.9,261.4 398.8,261.4 406.7,261.4 414.7,261.4 422.6,261.4 430.5,255.2 438.5,255.2 446.4,255.2 454.3,261.4 462.2,261.4 470.2,261.4 478.1,261.4 486.0,261.4 494.0,261.4 501.9,261.4 509.8,261.4 517.8,261.4 525.7,255.2 533.6,261.4 541.5,261.4 549.5,261.4 557.4,261.4 565.3,261.4 573.3,261.4 581.2,261.4 589.1,261.4 597.0,261.4 605.0,261.4 612.9,261.4 620.8,261.4 628.8,261.4 636.7,261.4 644.6,261.4 652.5,267.5 660.5,267.5 668.4,267.5 676.3,267.5 684.3,267.5 692.2,267.5 700.1,261.4 708.1,261.4 716.0,261.4 723.9,261.4 731.8,261.4 739.8,261.4 747.7,255.2 755.6,249.1 763.6,249.1 771.5,255.2 779.4,249.1 787.3,249.1 795.3,249.1 803.2,249.1 811.1,249.1 819.1,249.1 827.0,255.2 834.9,249.1 842.8,249.1 850.8,249.1 858.7,249.1 866.6,255.2 874.6,255.2 882.5,255.2 890.4,255.2 898.4,255.2 906.3,255.2 914.2,255.2 922.1,255.2 930.1,249.1 938.0,249.1"/><polyline fill="none" stroke="#ef4444" stroke-width="2.5" stroke-linejoin="round" stroke-linecap="round" points="42.0,286.0 49.9,132.1 57.9,286.0 65.8,286.0 73.7,286.0 81.6,286.0 89.6,286.0 97.5,286.0 105.4,286.0 113.4,286.0 121.3,286.0 129.2,286.0 137.2,286.0 145.1,286.0 153.0,286.0 160.9,286.0 168.9,286.0 176.8,279.8 184.7,286.0 192.7,286.0 200.6,286.0 208.5,286.0 216.4,286.0 224.4,286.0 232.3,286.0 240.2,286.0 248.2,286.0 256.1,286.0 264.0,286.0 271.9,286.0 279.9,286.0 287.8,286.0 295.7,286.0 303.7,286.0 311.6,286.0 319.5,286.0 327.5,286.0 335.4,286.0 343.3,286.0 351.2,286.0 359.2,286.0 367.1,286.0 375.0,286.0 383.0,286.0 390.9,286.0 398.8,286.0 406.7,286.0 414.7,286.0 422.6,286.0 430.5,286.0 438.5,286.0 446.4,286.0 454.3,286.0 462.2,286.0 470.2,286.0 478.1,286.0 486.0,286.0 494.0,286.0 501.9,286.0 509.8,286.0 517.8,286.0 525.7,286.0 533.6,286.0 541.5,286.0 549.5,286.0 557.4,286.0 565.3,286.0 573.3,279.8 581.2,286.0 589.1,286.0 597.0,286.0 605.0,286.0 612.9,286.0 620.8,286.0 628.8,286.0 636.7,286.0 644.6,286.0 652.5,286.0 660.5,286.0 668.4,286.0 676.3,286.0 684.3,279.8 692.2,286.0 700.1,286.0 708.1,286.0 716.0,286.0 723.9,286.0 731.8,286.0 739.8,286.0 747.7,286.0 755.6,286.0 763.6,286.0 771.5,279.8 779.4,286.0 787.3,286.0 795.3,286.0 803.2,286.0 811.1,279.8 819.1,286.0 827.0,286.0 834.9,286.0 842.8,286.0 850.8,286.0 858.7,286.0 866.6,286.0 874.6,286.0 882.5,286.0 890.4,286.0 898.4,286.0 906.3,286.0 914.2,286.0 922.1,286.0 930.1,286.0 938.0,286.0"/><polyline fill="none" stroke="#a855f7" stroke-width="2.5" stroke-linejoin="round" stroke-linecap="round" points="42.0,286.0 49.9,286.0 57.9,286.0 65.8,286.0 73.7,286.0 81.6,286.0 89.6,286.0 97.5,286.0 105.4,286.0 113.4,286.0 121.3,286.0 129.2,286.0 137.2,286.0 145.1,286.0 153.0,286.0 160.9,286.0 168.9,286.0 176.8,286.0 184.7,286.0 192.7,286.0 200.6,286.0 208.5,286.0 216.4,286.0 224.4,286.0 232.3,286.0 240.2,286.0 248.2,286.0 256.1,286.0 264.0,286.0 271.9,286.0 279.9,286.0 287.8,286.0 295.7,286.0 303.7,286.0 311.6,286.0 319.5,286.0 327.5,286.0 335.4,286.0 343.3,286.0 351.2,286.0 359.2,286.0 367.1,286.0 375.0,286.0 383.0,286.0 390.9,286.0 398.8,286.0 406.7,286.0 414.7,286.0 422.6,286.0 430.5,286.0 438.5,286.0 446.4,286.0 454.3,279.8 462.2,286.0 470.2,286.0 478.1,286.0 486.0,286.0 494.0,286.0 501.9,286.0 509.8,286.0 517.8,286.0 525.7,286.0 533.6,286.0 541.5,286.0 549.5,286.0 557.4,286.0 565.3,286.0 573.3,286.0 581.2,286.0 589.1,286.0 597.0,286.0 605.0,286.0 612.9,286.0 620.8,286.0 628.8,286.0 636.7,286.0 644.6,286.0 652.5,286.0 660.5,286.0 668.4,286.0 676.3,286.0 684.3,286.0 692.2,286.0 700.1,286.0 708.1,286.0 716.0,286.0 723.9,286.0 731.8,286.0 739.8,286.0 747.7,286.0 755.6,286.0 763.6,286.0 771.5,286.0 779.4,286.0 787.3,286.0 795.3,286.0 803.2,286.0 811.1,286.0 819.1,286.0 827.0,279.8 834.9,286.0 842.8,286.0 850.8,286.0 858.7,286.0 866.6,286.0 874.6,286.0 882.5,286.0 890.4,286.0 898.4,286.0 906.3,286.0 914.2,286.0 922.1,286.0 930.1,286.0 938.0,286.0"/><text x="42" y="308" font-size="11" fill="#5a688a">19/06 15:39</text><text x="938" y="308" text-anchor="end" font-size="11" fill="#5a688a">21/07 08:30</text></svg>