<svg xmlns="http://www.w3.org/2000/svg" viewBox="0 0 960 320" width="960" height="320" font-family="Segoe UI, system-ui, -apple-system, Roboto, Helvetica, Arial, sans-serif" role="img" aria-label="Availability history per region"><rect x="0.5" y="0.5" width="959" height="319" rx="14" fill="#0d1117" stroke="#2c3a5e"/><text x="42" y="26" font-size="14" font-weight="600" fill="#e6ecff">History · 183 points</text><circle cx="47" cy="40" r="5" fill="#22c55e"/><text x="57" y="44" font-size="12" fill="#9fb0d4">Available</text><circle cx="139.8" cy="40" r="5" fill="#f59e0b"/><text x="149.8" y="44" font-size="12" fill="#9fb0d4">Saturated</text><circle cx="232.60000000000002" cy="40" r="5" fill="#ef4444"/><text x="242.60000000000002" y="44" font-size="12" fill="#9fb0d4">Error</text><circle cx="296.6" cy="40" r="5" fill="#a855f7"/><text x="306.6" y="44" font-size="12" fill="#9fb0d4">Timeout</text><line x1="42" y1="286.0" x2="938" y2="286.0" stroke="#21304f" stroke-width="1"/><text x="35" y="289.0" text-anchor="end" font-size="11" fill="#9fb0d4">0</text><line x1="42" y1="227.5" x2="938" y2="227.5" stroke="#21304f" stroke-width="1"/><text x="35" y="230.5" text-anchor="end" font-size="11" fill="#9fb0d4">10</text><line x1="42" y1="169.0" x2="938" y2="169.0" stroke="#21304f" stroke-width="1"/><text x="35" y="172.0" text-anchor="end" font-size="11" fill="#9fb0d4">21</text><line x1="42" y1="110.5" x2="938" y2="110.5" stroke="#21304f" stroke-width="1"/><text x="35" y="113.5" text-anchor="end" font-size="11" fill="#9fb0d4">32</text><line x1="42" y1="52.0" x2="938" y2="52.0" stroke="#21304f" stroke-width="1"/><text x="35" y="55.0" text-anchor="end" font-size="11" fill="#9fb0d4">42</text><polyline fill="none" stroke="#22c55e" stroke-width="2.5" stroke-linejoin="round" stroke-linecap="round" points="42.0,85.4 46.9,230.3 51.8,102.1 56.8,107.7 61.7,102.1 66.6,96.6 71.5,96.6 76.5,96.6 81.4,96.6 86.3,96.6 91.2,96.6 96.2,96.6 101.1,96.6 106.0,96.6 110.9,96.6 115.8,91.0 120.8,91.0 125.7,102.1 130.6,102.1 135.5,102.1 140.5,107.7 145.4,107.7 150.3,107.7 155.2,107.7 160.2,107.7 165.1,107.7 170.0,107.7 174.9,107.7 179.8,107.7 184.8,102.1 189.7,102.1 194.6,102.1 199.5,102.1 204.5,96.6 209.4,96.6 214.3,96.6 219.2,96.6 224.2,96.6 229.1,102.1 234.0,102.1 238.9,102.1 243.8,102.1 248.8,96.6 253.7,96.6 258.6,96.6 263.5,96.6 268.5,96.6 273.4,96.6 278.3,96.6 283.2,102.1 288.2,102.1 293.1,102.1 298.0,102.1 302.9,96.6 307.8,96.6 312.8,96.6 317.7,96.6 322.6,96.6 327.5,96.6 332.5,96.6 337.4,96.6 342.3,102.1 347.2,96.6 352.2,96.6 357.1,96.6 362.0,96.6 366.9,96.6 371.8,102.1 376.8,96.6 381.7,96.6 386.6,96.6 391.5,96.6 396.5,96.6 401.4,96.6 406.3,96.6 411.2,96.6 416.2,96.6 421.1,91.0 426.0,91.0 430.9,91.0 435.8,91.0 440.8,96.6 445.7,91.0 450.6,96.6 455.5,96.6 460.5,96.6 465.4,96.6 470.3,96.6 475.2,96.6 480.2,102.1 485.1,107.7 490.0,107.7 494.9,107.7 499.8,107.7 504.8,107.7 509.7,107.7 514.6,107.7 519.5,113.3 524.5,107.7 529.4,107.7 534.3,107.7 539.2,107.7 544.2,107.7 549.1,107.7 554.0,102.1 558.9,102.1 563.8,102.1 568.8,102.1 573.7,102.1 578.6,102.1 583.5,102.1 588.5,102.1 593.4,107.7 598.3,107.7 603.2,107.7 608.2,107.7 613.1,107.7 618.0,107.7 622.9,107.7 627.8,107.7 632.8,113.3 637.7,107.7 642.6,107.7 647.5,107.7 652.5,118.9 657.4,107.7 662.3,107.7 667.2,107.7 672.2,107.7 677.1,102.1 682.0,102.1 686.9,102.1 691.8,102.1 696.8,107.7 701.7,102.1 706.6,107.7 711.5,107.7 716.5,107.7 721.4,107.7 726.3,113.3 731.2,107.7 736.2,107.7 741.1,107.7 746.0,107.7 750.9,107.7 755.8,107.7 760.8,107.7 765.7,107.7 770.6,113.3 775.5,102.1 780.5,102.1 785.4,102.1 790.3,102.1 795.2,102.1 800.2,102.1 805.1,102.1 810.0,102.1 814.9,102.1 819.8,102.1 824.8,107.7 829.7,102.1 834.6,102.1 839.5,102.1 844.5,102.1 849.4,102.1 854.3,102.1 859.2,102.1 864.2,102.1 869.1,107.7 874.0,91.0 878.9,85.4 883.8,79.9 888.8,79.9 893.7,79.9 898.6,79.9 903.5,79.9 908.5,79.9 913.4,79.9 918.3,91.0 923.2,96.6 928.2,91.0 933.1,91.0 938.0,91.0"/><polyline fill="none" stroke="#f59e0b" stroke-width="2.5" stroke-linejoin="round" stroke-linecap="round" points="42.0,274.9 46.9,269.3 51.8,258.1 56.8,252.6 61.7,258.1 66.6,263.7 71.5,263.7 76.5,263.7 81.4,263.7 86.3,263.7 91.2,263.7 96.2,263.7 101.1,263.7 106.0,263.7 110.9,263.7 115.8,269.3 120.8,269.3 125.7,263.7 130.6,258.1 135.5,258.1 140.5,252.6 145.4,252.6 150.3,252.6 155.2,252.6 160.2,252.6 165.1,252.6 170.0,252.6 174.9,252.6 179.8,252.6 184.8,258.1 189.7,258.1 194.6,258.1 199.5,258.1 204.5,263.7 209.4,263.7 214.3,263.7 219.2,263.7 224.2,263.7 229.1,258.1 234.0,258.1 238.9,258.1 243.8,258.1 248.8,263.7 253.7,263.7 258.6,263.7 263.5,263.7 268.5,263.7 273.4,263.7 278.3,263.7 283.2,258.1 288.2,258.1 293.1,258.1 298.0,263.7 302.9,263.7 307.8,263.7 312.8,263.7 317.7,263.7 322.6,263.7 327.5,263.7 332.5,263.7 337.4,263.7 342.3,258.1 347.2,263.7 352.2,263.7 357.1,263.7 362.0,263.7 366.9,263.7 371.8,263.7 376.8,263.7 381.7,263.7 386.6,263.7 391.5,263.7 396.5,263.7 401.4,263.7 406.3,263.7 411.2,263.7 416.2,263.7 421.1,269.3 426.0,269.3 430.9,269.3 435.8,269.3 440.8,269.3 445.7,269.3 450.6,263.7 455.5,263.7 460.5,263.7 465.4,263.7 470.3,263.7 475.2,263.7 480.2,258.1 485.1,252.6 490.0,252.6 494.9,258.1 499.8,252.6 504.8,252.6 509.7,252.6 514.6,252.6 519.5,252.6 524.5,252.6 529.4,258.1 534.3,252.6 539.2,252.6 544.2,252.6 549.1,252.6 554.0,258.1 558.9,258.1 563.8,258.1 568.8,258.1 573.7,258.1 578.6,258.1 583.5,258.1 588.5,258.1 593.4,252.6 598.3,252.6 603.2,252.6 608.2,252.6 613.1,252.6 618.0,252.6 622.9,252.6 627.8,258.1 632.8,252.6 637.7,252.6 642.6,252.6 647.5,252.6 652.5,252.6 657.4,252.6 662.3,252.6 667.2,258.1 672.2,258.1 677.1,258.1 682.0,258.1 686.9,258.1 691.8,258.1 696.8,258.1 701.7,258.1 706.6,252.6 711.5,252.6 716.5,252.6 721.4,252.6 726.3,252.6 731.2,252.6 736.2,252.6 741.1,252.6 746.0,252.6 750.9,252.6 755.8,252.6 760.8,252.6 765.7,252.6 770.6,252.6 775.5,258.1 780.5,258.1 785.4,258.1 790.3,258.1 795.2,258.1 800.2,263.7 805.1,263.7 810.0,258.1 814.9,258.1 819.8,258.1 824.8,258.1 829.7,258.1 834.6,258.1 839.5,258.1 844.5,258.1 849.4,258.1 854.3,258.1 859.2,258.1 864.2,258.1 869.1,258.1 874.0,258.1 878.9,258.1 883.8,258.1 888.8,258.1 893.7,258.1 898.6,258.1 903.5,258.1 908.5,258.1 913.4,258.1 918.3,258.1 923.2,258.1 928.2,258.1 933.1,258.1 938.0,258.1"/><polyline fill="none" stroke="#ef4444" stroke-width="2.5" stroke-linejoin="round" stroke-linecap="round" points="42.0,286.0 46.9,146.7 51.8,286.0 56.8,286.0 61.7,286.0 66.6,286.0 71.5,286.0 76.5,286.0 81.4,286.0 86.3,286.0 91.2,286.0 96.2,286.0 101.1,286.0 106.0,286.0 110.9,286.0 115.8,286.0 120.8,286.0 125.7,280.4 130.6,286.0 135.5,286.0 140.5,286.0 145.4,286.0 150.3,286.0 155.2,286.0 160.2,286.0 165.1,286.0 170.0,286.0 174.9,286.0 179.8,286.0 184.8,286.0 189.7,286.0 194.6,286.0 199.5,286.0 204.5,286.0 209.4,286.0 214.3,286.0 219.2,286.0 224.2,286.0 229.1,286.0 234.0,286.0 238.9,286.0 243.8,286.0 248.8,286.0 253.7,286.0 258.6,286.0 263.5,286.0 268.5,286.0 273.4,286.0 278.3,286.0 283.2,286.0 288.2,286.0 293.1,286.0 298.0,286.0 302.9,286.0 307.8,286.0 312.8,286.0 317.7,286.0 322.6,286.0 327.5,286.0 332.5,286.0 337.4,286.0 342.3,286.0 347.2,286.0 352.2,286.0 357.1,286.0 362.0,286.0 366.9,286.0 371.8,280.4 376.8,286.0 381.7,286.0 386.6,286.0 391.5,286.0 396.5,286.0 401.4,286.0 406.3,286.0 411.2,286.0 416.2,286.0 421.1,286.0 426.0,286.0 430.9,286.0 435.8,286.0 440.8,280.4 445.7,286.0 450.6,286.0 455.5,286.0 460.5,286.0 465.4,286.0 470.3,286.0 475.2,286.0 480.2,286.0 485.1,286.0 490.0,286.0 494.9,280.4 499.8,286.0 504.8,286.0 509.7,286.0 514.6,286.0 519.5,280.4 524.5,286.0 529.4,286.0 534.3,286.0 539.2,286.0 544.2,286.0 549.1,286.0 554.0,286.0 558.9,286.0 563.8,286.0 568.8,286.0 573.7,286.0 578.6,286.0 583.5,286.0 588.5,286.0 593.4,286.0 598.3,286.0 603.2,286.0 608.2,286.0 613.1,286.0 618.0,286.0 622.9,286.0 627.8,286.0 632.8,280.4 637.7,286.0 642.6,286.0 647.5,286.0 652.5,274.9 657.4,286.0 662.3,286.0 667.2,280.4 672.2,280.4 677.1,286.0 682.0,286.0 686.9,286.0 691.8,286.0 696.8,280.4 701.7,286.0 706.6,286.0 711.5,286.0 716.5,286.0 721.4,286.0 726.3,286.0 731.2,286.0 736.2,286.0 741.1,286.0 746.0,286.0 750.9,286.0 755.8,286.0 760.8,286.0 765.7,286.0 770.6,286.0 775.5,286.0 780.5,286.0 785.4,286.0 790.3,286.0 795.2,286.0 800.2,280.4 805.1,286.0 810.0,286.0 814.9,286.0 819.8,263.7 824.8,280.4 829.7,286.0 834.6,286.0 839.5,286.0 844.5,286.0 849.4,286.0 854.3,286.0 859.2,286.0 864.2,286.0 869.1,258.1 874.0,274.9 878.9,280.4 883.8,286.0 888.8,286.0 893.7,286.0 898.6,286.0 903.5,286.0 908.5,286.0 913.4,286.0 918.3,274.9 923.2,269.3 928.2,274.9 933.1,274.9 938.0,274.9"/><polyline fill="none" stroke="#a855f7" stroke-width="2.5" stroke-linejoin="round" stroke-linecap="round" points="42.0,286.0 46.9,286.0 51.8,286.0 56.8,286.0 61.7,286.0 66.6,286.0 71.5,286.0 76.5,286.0 81.4,286.0 86.3,286.0 91.2,286.0 96.2,286.0 101.1,286.0 106.0,286.0 110.9,286.0 115.8,286.0 120.8,286.0 125.7,286.0 130.6,286.0 135.5,286.0 140.5,286.0 145.4,286.0 150.3,286.0 155.2,286.0 160.2,286.0 165.1,286.0 170.0,286.0 174.9,286.0 179.8,286.0 184.8,286.0 189.7,286.0 194.6,286.0 199.5,286.0 204.5,286.0 209.4,286.0 214.3,286.0 219.2,286.0 224.2,286.0 229.1,286.0 234.0,286.0 238.9,286.0 243.8,286.0 248.8,286.0 253.7,286.0 258.6,286.0 263.5,286.0 268.5,286.0 273.4,286.0 278.3,286.0 283.2,286.0 288.2,286.0 293.1,286.0 298.0,280.4 302.9,286.0 307.8,286.0 312.8,286.0 317.7,286.0 322.6,286.0 327.5,286.0 332.5,286.0 337.4,286.0 342.3,286.0 347.2,286.0 352.2,286.0 357.1,286.0 362.0,286.0 366.9,286.0 371.8,286.0 376.8,286.0 381.7,286.0 386.6,286.0 391.5,286.0 396.5,286.0 401.4,286.0 406.3,286.0 411.2,286.0 416.2,286.0 421.1,286.0 426.0,286.0 430.9,286.0 435.8,286.0 440.8,286.0 445.7,286.0 450.6,286.0 455.5,286.0 460.5,286.0 465.4,286.0 470.3,286.0 475.2,286.0 480.2,286.0 485.1,286.0 490.0,286.0 494.9,286.0 499.8,286.0 504.8,286.0 509.7,286.0 514.6,286.0 519.5,286.0 524.5,286.0 529.4,280.4 534.3,286.0 539.2,286.0 544.2,286.0 549.1,286.0 554.0,286.0 558.9,286.0 563.8,286.0 568.8,286.0 573.7,286.0 578.6,286.0 583.5,286.0 588.5,286.0 593.4,286.0 598.3,286.0 603.2,286.0 608.2,286.0 613.1,286.0 618.0,286.0 622.9,286.0 627.8,280.4 632.8,286.0 637.7,286.0 642.6,286.0 647.5,286.0 652.5,286.0 657.4,286.0 662.3,286.0 667.2,286.0 672.2,286.0 677.1,286.0 682.0,286.0 686.9,286.0 691.8,286.0 696.8,286.0 701.7,286.0 706.6,286.0 711.5,286.0 716.5,286.0 721.4,286.0 726.3,280.4 731.2,286.0 736.2,286.0 741.1,286.0 746.0,286.0 750.9,286.0 755.8,286.0 760.8,286.0 765.7,286.0 770.6,280.4 775.5,286.0 780.5,286.0 785.4,286.0 790.3,286.0 795.2,286.0 800.2,286.0 805.1,280.4 810.0,286.0 814.9,286.0 819.8,286.0 824.8,286.0 829.7,286.0 834.6,286.0 839.5,286.0 844.5,286.0 849.4,286.0 854.3,286.0 859.2,286.0 864.2,286.0 869.1,286.0 874.0,286.0 878.9,286.0 883.8,286.0 888.8,286.0 893.7,286.0 898.6,286.0 903.5,286.0 908.5,286.0 913.4,286.0 918.3,286.0 923.2,286.0 928.2,286.0 933.1,286.0 938.0,286.0"/><text x="42" y="308" font-size="11" fill="#9fb0d4">19/06 15:39</text><text x="938" y="308" text-anchor="end" font-size="11" fill="#9fb0d4">24/07 05:30</text></svg>