<svg xmlns="http://www.w3.org/2000/svg" viewBox="0 0 960 320" width="960" height="320" font-family="Segoe UI, system-ui, -apple-system, Roboto, Helvetica, Arial, sans-serif" role="img" aria-label="Availability history per region"><rect x="0.5" y="0.5" width="959" height="319" rx="14" fill="#0d1117" stroke="#2c3a5e"/><text x="42" y="26" font-size="14" font-weight="600" fill="#e6ecff">History · 117 points</text><circle cx="47" cy="40" r="5" fill="#22c55e"/><text x="57" y="44" font-size="12" fill="#9fb0d4">Available</text><circle cx="139.8" cy="40" r="5" fill="#f59e0b"/><text x="149.8" y="44" font-size="12" fill="#9fb0d4">Saturated</text><circle cx="232.60000000000002" cy="40" r="5" fill="#ef4444"/><text x="242.60000000000002" y="44" font-size="12" fill="#9fb0d4">Error</text><circle cx="296.6" cy="40" r="5" fill="#a855f7"/><text x="306.6" y="44" font-size="12" fill="#9fb0d4">Timeout</text><line x1="42" y1="286.0" x2="938" y2="286.0" stroke="#21304f" stroke-width="1"/><text x="35" y="289.0" text-anchor="end" font-size="11" fill="#9fb0d4">0</text><line x1="42" y1="227.5" x2="938" y2="227.5" stroke="#21304f" stroke-width="1"/><text x="35" y="230.5" text-anchor="end" font-size="11" fill="#9fb0d4">10</text><line x1="42" y1="169.0" x2="938" y2="169.0" stroke="#21304f" stroke-width="1"/><text x="35" y="172.0" text-anchor="end" font-size="11" fill="#9fb0d4">20</text><line x1="42" y1="110.5" x2="938" y2="110.5" stroke="#21304f" stroke-width="1"/><text x="35" y="113.5" text-anchor="end" font-size="11" fill="#9fb0d4">29</text><line x1="42" y1="52.0" x2="938" y2="52.0" stroke="#21304f" stroke-width="1"/><text x="35" y="55.0" text-anchor="end" font-size="11" fill="#9fb0d4">39</text><polyline fill="none" stroke="#22c55e" stroke-width="2.5" stroke-linejoin="round" stroke-linecap="round" points="42.0,70.0 49.7,70.0 57.4,88.0 65.2,88.0 72.9,76.0 80.6,76.0 88.3,76.0 96.1,70.0 103.8,76.0 111.5,70.0 119.2,64.0 127.0,58.0 134.7,58.0 142.4,58.0 150.1,58.0 157.9,58.0 165.6,58.0 173.3,58.0 181.0,58.0 188.8,58.0 196.5,58.0 204.2,58.0 211.9,58.0 219.7,58.0 227.4,58.0 235.1,58.0 242.8,58.0 250.6,58.0 258.3,58.0 266.0,58.0 273.7,58.0 281.4,70.0 289.2,76.0 296.9,94.0 304.6,64.0 312.3,64.0 320.1,58.0 327.8,58.0 335.5,58.0 343.2,70.0 351.0,76.0 358.7,76.0 366.4,82.0 374.1,82.0 381.9,82.0 389.6,82.0 397.3,76.0 405.0,64.0 412.8,70.0 420.5,70.0 428.2,82.0 435.9,76.0 443.7,76.0 451.4,82.0 459.1,76.0 466.8,76.0 474.6,76.0 482.3,64.0 490.0,64.0 497.7,76.0 505.4,76.0 513.2,76.0 520.9,88.0 528.6,70.0 536.3,64.0 544.1,58.0 551.8,58.0 559.5,70.0 567.2,70.0 575.0,70.0 582.7,76.0 590.4,70.0 598.1,70.0 605.9,70.0 613.6,70.0 621.3,76.0 629.0,82.0 636.8,76.0 644.5,70.0 652.2,70.0 659.9,70.0 667.7,70.0 675.4,76.0 683.1,70.0 690.8,70.0 698.6,70.0 706.3,70.0 714.0,70.0 721.7,70.0 729.4,70.0 737.2,70.0 744.9,70.0 752.6,70.0 760.3,70.0 768.1,70.0 775.8,70.0 783.5,70.0 791.2,70.0 799.0,70.0 806.7,70.0 814.4,70.0 822.1,70.0 829.9,70.0 837.6,70.0 845.3,70.0 853.0,70.0 860.8,70.0 868.5,70.0 876.2,70.0 883.9,70.0 891.7,70.0 899.4,70.0 907.1,70.0 914.8,70.0 922.6,70.0 930.3,70.0 938.0,70.0"/><polyline fill="none" stroke="#f59e0b" stroke-width="2.5" stroke-linejoin="round" stroke-linecap="round" points="42.0,274.0 49.7,274.0 57.4,274.0 65.2,280.0 72.9,268.0 80.6,268.0 88.3,268.0 96.1,274.0 103.8,274.0 111.5,274.0 119.2,280.0 127.0,286.0 134.7,286.0 142.4,286.0 150.1,286.0 157.9,286.0 165.6,286.0 173.3,286.0 181.0,286.0 188.8,286.0 196.5,286.0 204.2,286.0 211.9,286.0 219.7,286.0 227.4,286.0 235.1,286.0 242.8,286.0 250.6,286.0 258.3,286.0 266.0,286.0 273.7,286.0 281.4,274.0 289.2,280.0 296.9,280.0 304.6,280.0 312.3,280.0 320.1,286.0 327.8,286.0 335.5,286.0 343.2,274.0 351.0,268.0 358.7,268.0 366.4,262.0 374.1,262.0 381.9,262.0 389.6,262.0 397.3,268.0 405.0,280.0 412.8,280.0 420.5,274.0 428.2,262.0 435.9,268.0 443.7,268.0 451.4,262.0 459.1,268.0 466.8,268.0 474.6,268.0 482.3,280.0 490.0,280.0 497.7,268.0 505.4,268.0 513.2,268.0 520.9,262.0 528.6,274.0 536.3,280.0 544.1,286.0 551.8,286.0 559.5,274.0 567.2,274.0 575.0,274.0 582.7,274.0 590.4,274.0 598.1,274.0 605.9,274.0 613.6,274.0 621.3,280.0 629.0,274.0 636.8,280.0 644.5,286.0 652.2,286.0 659.9,286.0 667.7,286.0 675.4,280.0 683.1,286.0 690.8,286.0 698.6,286.0 706.3,286.0 714.0,286.0 721.7,286.0 729.4,286.0 737.2,286.0 744.9,286.0 752.6,286.0 760.3,286.0 768.1,286.0 775.8,286.0 783.5,286.0 791.2,286.0 799.0,286.0 806.7,286.0 814.4,286.0 822.1,286.0 829.9,286.0 837.6,286.0 845.3,286.0 853.0,286.0 860.8,286.0 868.5,286.0 876.2,286.0 883.9,286.0 891.7,286.0 899.4,286.0 907.1,286.0 914.8,286.0 922.6,286.0 930.3,286.0 938.0,286.0"/><polyline fill="none" stroke="#ef4444" stroke-width="2.5" stroke-linejoin="round" stroke-linecap="round" points="42.0,280.0 49.7,280.0 57.4,268.0 65.2,262.0 72.9,286.0 80.6,286.0 88.3,286.0 96.1,286.0 103.8,280.0 111.5,286.0 119.2,286.0 127.0,286.0 134.7,286.0 142.4,286.0 150.1,286.0 157.9,286.0 165.6,286.0 173.3,286.0 181.0,286.0 188.8,286.0 196.5,286.0 204.2,286.0 211.9,286.0 219.7,286.0 227.4,286.0 235.1,286.0 242.8,286.0 250.6,286.0 258.3,286.0 266.0,286.0 273.7,286.0 281.4,286.0 289.2,274.0 296.9,256.0 304.6,286.0 312.3,286.0 320.1,286.0 327.8,286.0 335.5,286.0 343.2,286.0 351.0,286.0 358.7,286.0 366.4,286.0 374.1,286.0 381.9,286.0 389.6,286.0 397.3,286.0 405.0,286.0 412.8,280.0 420.5,286.0 428.2,286.0 435.9,286.0 443.7,286.0 451.4,286.0 459.1,286.0 466.8,286.0 474.6,286.0 482.3,286.0 490.0,286.0 497.7,286.0 505.4,286.0 513.2,286.0 520.9,280.0 528.6,286.0 536.3,286.0 544.1,286.0 551.8,286.0 559.5,286.0 567.2,286.0 575.0,286.0 582.7,286.0 590.4,286.0 598.1,286.0 605.9,286.0 613.6,286.0 621.3,274.0 629.0,274.0 636.8,274.0 644.5,274.0 652.2,274.0 659.9,274.0 667.7,274.0 675.4,274.0 683.1,274.0 690.8,274.0 698.6,274.0 706.3,274.0 714.0,274.0 721.7,274.0 729.4,274.0 737.2,274.0 744.9,274.0 752.6,274.0 760.3,274.0 768.1,274.0 775.8,274.0 783.5,274.0 791.2,274.0 799.0,274.0 806.7,274.0 814.4,274.0 822.1,274.0 829.9,274.0 837.6,274.0 845.3,274.0 853.0,274.0 860.8,274.0 868.5,274.0 876.2,274.0 883.9,274.0 891.7,274.0 899.4,274.0 907.1,274.0 914.8,274.0 922.6,274.0 930.3,274.0 938.0,274.0"/><polyline fill="none" stroke="#a855f7" stroke-width="2.5" stroke-linejoin="round" stroke-linecap="round" points="42.0,286.0 49.7,286.0 57.4,286.0 65.2,286.0 72.9,286.0 80.6,286.0 88.3,286.0 96.1,286.0 103.8,286.0 111.5,286.0 119.2,286.0 127.0,286.0 134.7,286.0 142.4,286.0 150.1,286.0 157.9,286.0 165.6,286.0 173.3,286.0 181.0,286.0 188.8,286.0 196.5,286.0 204.2,286.0 211.9,286.0 219.7,286.0 227.4,286.0 235.1,286.0 242.8,286.0 250.6,286.0 258.3,286.0 266.0,286.0 273.7,286.0 281.4,286.0 289.2,286.0 296.9,286.0 304.6,286.0 312.3,286.0 320.1,286.0 327.8,286.0 335.5,286.0 343.2,286.0 351.0,286.0 358.7,286.0 366.4,286.0 374.1,286.0 381.9,286.0 389.6,286.0 397.3,286.0 405.0,286.0 412.8,286.0 420.5,286.0 428.2,286.0 435.9,286.0 443.7,286.0 451.4,286.0 459.1,286.0 466.8,286.0 474.6,286.0 482.3,286.0 490.0,286.0 497.7,286.0 505.4,286.0 513.2,286.0 520.9,286.0 528.6,286.0 536.3,286.0 544.1,286.0 551.8,286.0 559.5,286.0 567.2,286.0 575.0,286.0 582.7,280.0 590.4,286.0 598.1,286.0 605.9,286.0 613.6,286.0 621.3,286.0 629.0,286.0 636.8,286.0 644.5,286.0 652.2,286.0 659.9,286.0 667.7,286.0 675.4,286.0 683.1,286.0 690.8,286.0 698.6,286.0 706.3,286.0 714.0,286.0 721.7,286.0 729.4,286.0 737.2,286.0 744.9,286.0 752.6,286.0 760.3,286.0 768.1,286.0 775.8,286.0 783.5,286.0 791.2,286.0 799.0,286.0 806.7,286.0 814.4,286.0 822.1,286.0 829.9,286.0 837.6,286.0 845.3,286.0 853.0,286.0 860.8,286.0 868.5,286.0 876.2,286.0 883.9,286.0 891.7,286.0 899.4,286.0 907.1,286.0 914.8,286.0 922.6,286.0 930.3,286.0 938.0,286.0"/><text x="42" y="308" font-size="11" fill="#9fb0d4">19/06 12:43</text><text x="938" y="308" text-anchor="end" font-size="11" fill="#9fb0d4">28/06 01:29</text></svg>