<svg xmlns="http://www.w3.org/2000/svg" viewBox="0 0 960 320" width="960" height="320" font-family="Segoe UI, system-ui, -apple-system, Roboto, Helvetica, Arial, sans-serif" role="img" aria-label="Availability history per region"><rect x="0.5" y="0.5" width="959" height="319" rx="14" fill="#ffffff" stroke="#dce3f1"/><text x="42" y="26" font-size="14" font-weight="600" fill="#14203a">History · 127 points</text><circle cx="47" cy="40" r="5" fill="#22c55e"/><text x="57" y="44" font-size="12" fill="#5a688a">Available</text><circle cx="139.8" cy="40" r="5" fill="#f59e0b"/><text x="149.8" y="44" font-size="12" fill="#5a688a">Saturated</text><circle cx="232.60000000000002" cy="40" r="5" fill="#ef4444"/><text x="242.60000000000002" y="44" font-size="12" fill="#5a688a">Error</text><circle cx="296.6" cy="40" r="5" fill="#a855f7"/><text x="306.6" y="44" font-size="12" fill="#5a688a">Timeout</text><line x1="42" y1="286.0" x2="938" y2="286.0" stroke="#eef2f7" stroke-width="1"/><text x="35" y="289.0" text-anchor="end" font-size="11" fill="#5a688a">0</text><line x1="42" y1="227.5" x2="938" y2="227.5" stroke="#eef2f7" stroke-width="1"/><text x="35" y="230.5" text-anchor="end" font-size="11" fill="#5a688a">10</text><line x1="42" y1="169.0" x2="938" y2="169.0" stroke="#eef2f7" stroke-width="1"/><text x="35" y="172.0" text-anchor="end" font-size="11" fill="#5a688a">20</text><line x1="42" y1="110.5" x2="938" y2="110.5" stroke="#eef2f7" stroke-width="1"/><text x="35" y="113.5" text-anchor="end" font-size="11" fill="#5a688a">29</text><line x1="42" y1="52.0" x2="938" y2="52.0" stroke="#eef2f7" stroke-width="1"/><text x="35" y="55.0" text-anchor="end" font-size="11" fill="#5a688a">39</text><polyline fill="none" stroke="#22c55e" stroke-width="2.5" stroke-linejoin="round" stroke-linecap="round" points="42.0,70.0 49.1,70.0 56.2,88.0 63.3,88.0 70.4,76.0 77.6,76.0 84.7,76.0 91.8,70.0 98.9,76.0 106.0,70.0 113.1,64.0 120.2,58.0 127.3,58.0 134.4,58.0 141.6,58.0 148.7,58.0 155.8,58.0 162.9,58.0 170.0,58.0 177.1,58.0 184.2,58.0 191.3,58.0 198.4,58.0 205.6,58.0 212.7,58.0 219.8,58.0 226.9,58.0 234.0,58.0 241.1,58.0 248.2,58.0 255.3,58.0 262.4,70.0 269.6,76.0 276.7,94.0 283.8,64.0 290.9,64.0 298.0,58.0 305.1,58.0 312.2,58.0 319.3,70.0 326.4,76.0 333.6,76.0 340.7,82.0 347.8,82.0 354.9,82.0 362.0,82.0 369.1,76.0 376.2,64.0 383.3,70.0 390.4,70.0 397.6,82.0 404.7,76.0 411.8,76.0 418.9,82.0 426.0,76.0 433.1,76.0 440.2,76.0 447.3,64.0 454.4,64.0 461.6,76.0 468.7,76.0 475.8,76.0 482.9,88.0 490.0,70.0 497.1,64.0 504.2,58.0 511.3,58.0 518.4,70.0 525.6,70.0 532.7,70.0 539.8,76.0 546.9,70.0 554.0,70.0 561.1,70.0 568.2,70.0 575.3,76.0 582.4,82.0 589.6,76.0 596.7,70.0 603.8,70.0 610.9,70.0 618.0,70.0 625.1,76.0 632.2,70.0 639.3,70.0 646.4,70.0 653.6,70.0 660.7,70.0 667.8,70.0 674.9,70.0 682.0,70.0 689.1,70.0 696.2,70.0 703.3,70.0 710.4,70.0 717.6,70.0 724.7,70.0 731.8,70.0 738.9,70.0 746.0,70.0 753.1,70.0 760.2,70.0 767.3,70.0 774.4,70.0 781.6,70.0 788.7,70.0 795.8,70.0 802.9,70.0 810.0,70.0 817.1,70.0 824.2,70.0 831.3,70.0 838.4,70.0 845.6,70.0 852.7,70.0 859.8,70.0 866.9,70.0 874.0,70.0 881.1,70.0 888.2,70.0 895.3,70.0 902.4,70.0 909.6,70.0 916.7,70.0 923.8,70.0 930.9,70.0 938.0,70.0"/><polyline fill="none" stroke="#f59e0b" stroke-width="2.5" stroke-linejoin="round" stroke-linecap="round" points="42.0,274.0 49.1,274.0 56.2,274.0 63.3,280.0 70.4,268.0 77.6,268.0 84.7,268.0 91.8,274.0 98.9,274.0 106.0,274.0 113.1,280.0 120.2,286.0 127.3,286.0 134.4,286.0 141.6,286.0 148.7,286.0 155.8,286.0 162.9,286.0 170.0,286.0 177.1,286.0 184.2,286.0 191.3,286.0 198.4,286.0 205.6,286.0 212.7,286.0 219.8,286.0 226.9,286.0 234.0,286.0 241.1,286.0 248.2,286.0 255.3,286.0 262.4,274.0 269.6,280.0 276.7,280.0 283.8,280.0 290.9,280.0 298.0,286.0 305.1,286.0 312.2,286.0 319.3,274.0 326.4,268.0 333.6,268.0 340.7,262.0 347.8,262.0 354.9,262.0 362.0,262.0 369.1,268.0 376.2,280.0 383.3,280.0 390.4,274.0 397.6,262.0 404.7,268.0 411.8,268.0 418.9,262.0 426.0,268.0 433.1,268.0 440.2,268.0 447.3,280.0 454.4,280.0 461.6,268.0 468.7,268.0 475.8,268.0 482.9,262.0 490.0,274.0 497.1,280.0 504.2,286.0 511.3,286.0 518.4,274.0 525.6,274.0 532.7,274.0 539.8,274.0 546.9,274.0 554.0,274.0 561.1,274.0 568.2,274.0 575.3,280.0 582.4,274.0 589.6,280.0 596.7,286.0 603.8,286.0 610.9,286.0 618.0,286.0 625.1,280.0 632.2,286.0 639.3,286.0 646.4,286.0 653.6,286.0 660.7,286.0 667.8,286.0 674.9,286.0 682.0,286.0 689.1,286.0 696.2,286.0 703.3,286.0 710.4,286.0 717.6,286.0 724.7,286.0 731.8,286.0 738.9,286.0 746.0,286.0 753.1,286.0 760.2,286.0 767.3,286.0 774.4,286.0 781.6,286.0 788.7,286.0 795.8,286.0 802.9,286.0 810.0,286.0 817.1,286.0 824.2,286.0 831.3,286.0 838.4,286.0 845.6,286.0 852.7,286.0 859.8,286.0 866.9,286.0 874.0,286.0 881.1,286.0 888.2,286.0 895.3,286.0 902.4,286.0 909.6,286.0 916.7,286.0 923.8,286.0 930.9,286.0 938.0,286.0"/><polyline fill="none" stroke="#ef4444" stroke-width="2.5" stroke-linejoin="round" stroke-linecap="round" points="42.0,280.0 49.1,280.0 56.2,268.0 63.3,262.0 70.4,286.0 77.6,286.0 84.7,286.0 91.8,286.0 98.9,280.0 106.0,286.0 113.1,286.0 120.2,286.0 127.3,286.0 134.4,286.0 141.6,286.0 148.7,286.0 155.8,286.0 162.9,286.0 170.0,286.0 177.1,286.0 184.2,286.0 191.3,286.0 198.4,286.0 205.6,286.0 212.7,286.0 219.8,286.0 226.9,286.0 234.0,286.0 241.1,286.0 248.2,286.0 255.3,286.0 262.4,286.0 269.6,274.0 276.7,256.0 283.8,286.0 290.9,286.0 298.0,286.0 305.1,286.0 312.2,286.0 319.3,286.0 326.4,286.0 333.6,286.0 340.7,286.0 347.8,286.0 354.9,286.0 362.0,286.0 369.1,286.0 376.2,286.0 383.3,280.0 390.4,286.0 397.6,286.0 404.7,286.0 411.8,286.0 418.9,286.0 426.0,286.0 433.1,286.0 440.2,286.0 447.3,286.0 454.4,286.0 461.6,286.0 468.7,286.0 475.8,286.0 482.9,280.0 490.0,286.0 497.1,286.0 504.2,286.0 511.3,286.0 518.4,286.0 525.6,286.0 532.7,286.0 539.8,286.0 546.9,286.0 554.0,286.0 561.1,286.0 568.2,286.0 575.3,274.0 582.4,274.0 589.6,274.0 596.7,274.0 603.8,274.0 610.9,274.0 618.0,274.0 625.1,274.0 632.2,274.0 639.3,274.0 646.4,274.0 653.6,274.0 660.7,274.0 667.8,274.0 674.9,274.0 682.0,274.0 689.1,274.0 696.2,274.0 703.3,274.0 710.4,274.0 717.6,274.0 724.7,274.0 731.8,274.0 738.9,274.0 746.0,274.0 753.1,274.0 760.2,274.0 767.3,274.0 774.4,274.0 781.6,274.0 788.7,274.0 795.8,274.0 802.9,274.0 810.0,274.0 817.1,274.0 824.2,274.0 831.3,274.0 838.4,274.0 845.6,274.0 852.7,274.0 859.8,274.0 866.9,274.0 874.0,274.0 881.1,274.0 888.2,274.0 895.3,274.0 902.4,274.0 909.6,274.0 916.7,274.0 923.8,274.0 930.9,274.0 938.0,274.0"/><polyline fill="none" stroke="#a855f7" stroke-width="2.5" stroke-linejoin="round" stroke-linecap="round" points="42.0,286.0 49.1,286.0 56.2,286.0 63.3,286.0 70.4,286.0 77.6,286.0 84.7,286.0 91.8,286.0 98.9,286.0 106.0,286.0 113.1,286.0 120.2,286.0 127.3,286.0 134.4,286.0 141.6,286.0 148.7,286.0 155.8,286.0 162.9,286.0 170.0,286.0 177.1,286.0 184.2,286.0 191.3,286.0 198.4,286.0 205.6,286.0 212.7,286.0 219.8,286.0 226.9,286.0 234.0,286.0 241.1,286.0 248.2,286.0 255.3,286.0 262.4,286.0 269.6,286.0 276.7,286.0 283.8,286.0 290.9,286.0 298.0,286.0 305.1,286.0 312.2,286.0 319.3,286.0 326.4,286.0 333.6,286.0 340.7,286.0 347.8,286.0 354.9,286.0 362.0,286.0 369.1,286.0 376.2,286.0 383.3,286.0 390.4,286.0 397.6,286.0 404.7,286.0 411.8,286.0 418.9,286.0 426.0,286.0 433.1,286.0 440.2,286.0 447.3,286.0 454.4,286.0 461.6,286.0 468.7,286.0 475.8,286.0 482.9,286.0 490.0,286.0 497.1,286.0 504.2,286.0 511.3,286.0 518.4,286.0 525.6,286.0 532.7,286.0 539.8,280.0 546.9,286.0 554.0,286.0 561.1,286.0 568.2,286.0 575.3,286.0 582.4,286.0 589.6,286.0 596.7,286.0 603.8,286.0 610.9,286.0 618.0,286.0 625.1,286.0 632.2,286.0 639.3,286.0 646.4,286.0 653.6,286.0 660.7,286.0 667.8,286.0 674.9,286.0 682.0,286.0 689.1,286.0 696.2,286.0 703.3,286.0 710.4,286.0 717.6,286.0 724.7,286.0 731.8,286.0 738.9,286.0 746.0,286.0 753.1,286.0 760.2,286.0 767.3,286.0 774.4,286.0 781.6,286.0 788.7,286.0 795.8,286.0 802.9,286.0 810.0,286.0 817.1,286.0 824.2,286.0 831.3,286.0 838.4,286.0 845.6,286.0 852.7,286.0 859.8,286.0 866.9,286.0 874.0,286.0 881.1,286.0 888.2,286.0 895.3,286.0 902.4,286.0 909.6,286.0 916.7,286.0 923.8,286.0 930.9,286.0 938.0,286.0"/><text x="42" y="308" font-size="11" fill="#5a688a">19/06 12:43</text><text x="938" y="308" text-anchor="end" font-size="11" fill="#5a688a">28/06 09:44</text></svg>