<svg xmlns="http://www.w3.org/2000/svg" viewBox="0 0 960 320" width="960" height="320" font-family="Segoe UI, system-ui, -apple-system, Roboto, Helvetica, Arial, sans-serif" role="img" aria-label="Availability history per region"><rect x="0.5" y="0.5" width="959" height="319" rx="14" fill="#0d1117" stroke="#2c3a5e"/><text x="42" y="26" font-size="14" font-weight="600" fill="#e6ecff">History · 25 points</text><circle cx="47" cy="40" r="5" fill="#22c55e"/><text x="57" y="44" font-size="12" fill="#9fb0d4">Available</text><circle cx="139.8" cy="40" r="5" fill="#f59e0b"/><text x="149.8" y="44" font-size="12" fill="#9fb0d4">Saturated</text><circle cx="232.60000000000002" cy="40" r="5" fill="#ef4444"/><text x="242.60000000000002" y="44" font-size="12" fill="#9fb0d4">Error</text><line x1="42" y1="286.0" x2="938" y2="286.0" stroke="#21304f" stroke-width="1"/><text x="35" y="289.0" text-anchor="end" font-size="11" fill="#9fb0d4">0</text><line x1="42" y1="227.5" x2="938" y2="227.5" stroke="#21304f" stroke-width="1"/><text x="35" y="230.5" text-anchor="end" font-size="11" fill="#9fb0d4">10</text><line x1="42" y1="169.0" x2="938" y2="169.0" stroke="#21304f" stroke-width="1"/><text x="35" y="172.0" text-anchor="end" font-size="11" fill="#9fb0d4">20</text><line x1="42" y1="110.5" x2="938" y2="110.5" stroke="#21304f" stroke-width="1"/><text x="35" y="113.5" text-anchor="end" font-size="11" fill="#9fb0d4">29</text><line x1="42" y1="52.0" x2="938" y2="52.0" stroke="#21304f" stroke-width="1"/><text x="35" y="55.0" text-anchor="end" font-size="11" fill="#9fb0d4">39</text><polyline fill="none" stroke="#22c55e" stroke-width="2.5" stroke-linejoin="round" stroke-linecap="round" points="42.0,70.0 79.3,70.0 116.7,88.0 154.0,88.0 191.3,76.0 228.7,76.0 266.0,76.0 303.3,70.0 340.7,76.0 378.0,70.0 415.3,64.0 452.7,58.0 490.0,58.0 527.3,58.0 564.7,58.0 602.0,58.0 639.3,58.0 676.7,58.0 714.0,58.0 751.3,58.0 788.7,58.0 826.0,58.0 863.3,58.0 900.7,58.0 938.0,58.0"/><circle cx="42.0" cy="70.0" r="2.5" fill="#22c55e"/><circle cx="79.3" cy="70.0" r="2.5" fill="#22c55e"/><circle cx="116.7" cy="88.0" r="2.5" fill="#22c55e"/><circle cx="154.0" cy="88.0" r="2.5" fill="#22c55e"/><circle cx="191.3" cy="76.0" r="2.5" fill="#22c55e"/><circle cx="228.7" cy="76.0" r="2.5" fill="#22c55e"/><circle cx="266.0" cy="76.0" r="2.5" fill="#22c55e"/><circle cx="303.3" cy="70.0" r="2.5" fill="#22c55e"/><circle cx="340.7" cy="76.0" r="2.5" fill="#22c55e"/><circle cx="378.0" cy="70.0" r="2.5" fill="#22c55e"/><circle cx="415.3" cy="64.0" r="2.5" fill="#22c55e"/><circle cx="452.7" cy="58.0" r="2.5" fill="#22c55e"/><circle cx="490.0" cy="58.0" r="2.5" fill="#22c55e"/><circle cx="527.3" cy="58.0" r="2.5" fill="#22c55e"/><circle cx="564.7" cy="58.0" r="2.5" fill="#22c55e"/><circle cx="602.0" cy="58.0" r="2.5" fill="#22c55e"/><circle cx="639.3" cy="58.0" r="2.5" fill="#22c55e"/><circle cx="676.7" cy="58.0" r="2.5" fill="#22c55e"/><circle cx="714.0" cy="58.0" r="2.5" fill="#22c55e"/><circle cx="751.3" cy="58.0" r="2.5" fill="#22c55e"/><circle cx="788.7" cy="58.0" r="2.5" fill="#22c55e"/><circle cx="826.0" cy="58.0" r="2.5" fill="#22c55e"/><circle cx="863.3" cy="58.0" r="2.5" fill="#22c55e"/><circle cx="900.7" cy="58.0" r="2.5" fill="#22c55e"/><circle cx="938.0" cy="58.0" r="2.5" fill="#22c55e"/><polyline fill="none" stroke="#f59e0b" stroke-width="2.5" stroke-linejoin="round" stroke-linecap="round" points="42.0,274.0 79.3,274.0 116.7,274.0 154.0,280.0 191.3,268.0 228.7,268.0 266.0,268.0 303.3,274.0 340.7,274.0 378.0,274.0 415.3,280.0 452.7,286.0 490.0,286.0 527.3,286.0 564.7,286.0 602.0,286.0 639.3,286.0 676.7,286.0 714.0,286.0 751.3,286.0 788.7,286.0 826.0,286.0 863.3,286.0 900.7,286.0 938.0,286.0"/><circle cx="42.0" cy="274.0" r="2.5" fill="#f59e0b"/><circle cx="79.3" cy="274.0" r="2.5" fill="#f59e0b"/><circle cx="116.7" cy="274.0" r="2.5" fill="#f59e0b"/><circle cx="154.0" cy="280.0" r="2.5" fill="#f59e0b"/><circle cx="191.3" cy="268.0" r="2.5" fill="#f59e0b"/><circle cx="228.7" cy="268.0" r="2.5" fill="#f59e0b"/><circle cx="266.0" cy="268.0" r="2.5" fill="#f59e0b"/><circle cx="303.3" cy="274.0" r="2.5" fill="#f59e0b"/><circle cx="340.7" cy="274.0" r="2.5" fill="#f59e0b"/><circle cx="378.0" cy="274.0" r="2.5" fill="#f59e0b"/><circle cx="415.3" cy="280.0" r="2.5" fill="#f59e0b"/><circle cx="452.7" cy="286.0" r="2.5" fill="#f59e0b"/><circle cx="490.0" cy="286.0" r="2.5" fill="#f59e0b"/><circle cx="527.3" cy="286.0" r="2.5" fill="#f59e0b"/><circle cx="564.7" cy="286.0" r="2.5" fill="#f59e0b"/><circle cx="602.0" cy="286.0" r="2.5" fill="#f59e0b"/><circle cx="639.3" cy="286.0" r="2.5" fill="#f59e0b"/><circle cx="676.7" cy="286.0" r="2.5" fill="#f59e0b"/><circle cx="714.0" cy="286.0" r="2.5" fill="#f59e0b"/><circle cx="751.3" cy="286.0" r="2.5" fill="#f59e0b"/><circle cx="788.7" cy="286.0" r="2.5" fill="#f59e0b"/><circle cx="826.0" cy="286.0" r="2.5" fill="#f59e0b"/><circle cx="863.3" cy="286.0" r="2.5" fill="#f59e0b"/><circle cx="900.7" cy="286.0" r="2.5" fill="#f59e0b"/><circle cx="938.0" cy="286.0" r="2.5" fill="#f59e0b"/><polyline fill="none" stroke="#ef4444" stroke-width="2.5" stroke-linejoin="round" stroke-linecap="round" points="42.0,280.0 79.3,280.0 116.7,268.0 154.0,262.0 191.3,286.0 228.7,286.0 266.0,286.0 303.3,286.0 340.7,280.0 378.0,286.0 415.3,286.0 452.7,286.0 490.0,286.0 527.3,286.0 564.7,286.0 602.0,286.0 639.3,286.0 676.7,286.0 714.0,286.0 751.3,286.0 788.7,286.0 826.0,286.0 863.3,286.0 900.7,286.0 938.0,286.0"/><circle cx="42.0" cy="280.0" r="2.5" fill="#ef4444"/><circle cx="79.3" cy="280.0" r="2.5" fill="#ef4444"/><circle cx="116.7" cy="268.0" r="2.5" fill="#ef4444"/><circle cx="154.0" cy="262.0" r="2.5" fill="#ef4444"/><circle cx="191.3" cy="286.0" r="2.5" fill="#ef4444"/><circle cx="228.7" cy="286.0" r="2.5" fill="#ef4444"/><circle cx="266.0" cy="286.0" r="2.5" fill="#ef4444"/><circle cx="303.3" cy="286.0" r="2.5" fill="#ef4444"/><circle cx="340.7" cy="280.0" r="2.5" fill="#ef4444"/><circle cx="378.0" cy="286.0" r="2.5" fill="#ef4444"/><circle cx="415.3" cy="286.0" r="2.5" fill="#ef4444"/><circle cx="452.7" cy="286.0" r="2.5" fill="#ef4444"/><circle cx="490.0" cy="286.0" r="2.5" fill="#ef4444"/><circle cx="527.3" cy="286.0" r="2.5" fill="#ef4444"/><circle cx="564.7" cy="286.0" r="2.5" fill="#ef4444"/><circle cx="602.0" cy="286.0" r="2.5" fill="#ef4444"/><circle cx="639.3" cy="286.0" r="2.5" fill="#ef4444"/><circle cx="676.7" cy="286.0" r="2.5" fill="#ef4444"/><circle cx="714.0" cy="286.0" r="2.5" fill="#ef4444"/><circle cx="751.3" cy="286.0" r="2.5" fill="#ef4444"/><circle cx="788.7" cy="286.0" r="2.5" fill="#ef4444"/><circle cx="826.0" cy="286.0" r="2.5" fill="#ef4444"/><circle cx="863.3" cy="286.0" r="2.5" fill="#ef4444"/><circle cx="900.7" cy="286.0" r="2.5" fill="#ef4444"/><circle cx="938.0" cy="286.0" r="2.5" fill="#ef4444"/><text x="42" y="308" font-size="11" fill="#9fb0d4">19/06 12:43</text><text x="938" y="308" text-anchor="end" font-size="11" fill="#9fb0d4">21/06 17:19</text></svg>