<svg xmlns="http://www.w3.org/2000/svg" viewBox="0 0 960 320" width="960" height="320" font-family="Segoe UI, system-ui, -apple-system, Roboto, Helvetica, Arial, sans-serif" role="img" aria-label="Availability history per region"><rect x="0.5" y="0.5" width="959" height="319" rx="14" fill="#0d1117" stroke="#2c3a5e"/><text x="42" y="26" font-size="14" font-weight="600" fill="#e6ecff">History · 187 points</text><circle cx="47" cy="40" r="5" fill="#22c55e"/><text x="57" y="44" font-size="12" fill="#9fb0d4">Available</text><circle cx="139.8" cy="40" r="5" fill="#f59e0b"/><text x="149.8" y="44" font-size="12" fill="#9fb0d4">Saturated</text><circle cx="232.60000000000002" cy="40" r="5" fill="#ef4444"/><text x="242.60000000000002" y="44" font-size="12" fill="#9fb0d4">Error</text><circle cx="296.6" cy="40" r="5" fill="#a855f7"/><text x="306.6" y="44" font-size="12" fill="#9fb0d4">Timeout</text><line x1="42" y1="286.0" x2="938" y2="286.0" stroke="#21304f" stroke-width="1"/><text x="35" y="289.0" text-anchor="end" font-size="11" fill="#9fb0d4">0</text><line x1="42" y1="227.5" x2="938" y2="227.5" stroke="#21304f" stroke-width="1"/><text x="35" y="230.5" text-anchor="end" font-size="11" fill="#9fb0d4">10</text><line x1="42" y1="169.0" x2="938" y2="169.0" stroke="#21304f" stroke-width="1"/><text x="35" y="172.0" text-anchor="end" font-size="11" fill="#9fb0d4">20</text><line x1="42" y1="110.5" x2="938" y2="110.5" stroke="#21304f" stroke-width="1"/><text x="35" y="113.5" text-anchor="end" font-size="11" fill="#9fb0d4">29</text><line x1="42" y1="52.0" x2="938" y2="52.0" stroke="#21304f" stroke-width="1"/><text x="35" y="55.0" text-anchor="end" font-size="11" fill="#9fb0d4">39</text><polyline fill="none" stroke="#22c55e" stroke-width="2.5" stroke-linejoin="round" stroke-linecap="round" points="42.0,70.0 46.8,70.0 51.6,88.0 56.5,88.0 61.3,76.0 66.1,76.0 70.9,76.0 75.7,70.0 80.5,76.0 85.4,70.0 90.2,64.0 95.0,58.0 99.8,58.0 104.6,58.0 109.4,58.0 114.3,58.0 119.1,58.0 123.9,58.0 128.7,58.0 133.5,58.0 138.3,58.0 143.2,58.0 148.0,58.0 152.8,58.0 157.6,58.0 162.4,58.0 167.2,58.0 172.1,58.0 176.9,58.0 181.7,58.0 186.5,58.0 191.3,70.0 196.2,76.0 201.0,94.0 205.8,64.0 210.6,64.0 215.4,58.0 220.2,58.0 225.1,58.0 229.9,70.0 234.7,76.0 239.5,76.0 244.3,82.0 249.1,82.0 254.0,82.0 258.8,82.0 263.6,76.0 268.4,64.0 273.2,70.0 278.0,70.0 282.9,82.0 287.7,76.0 292.5,76.0 297.3,82.0 302.1,76.0 306.9,76.0 311.8,76.0 316.6,64.0 321.4,64.0 326.2,76.0 331.0,76.0 335.8,76.0 340.7,88.0 345.5,70.0 350.3,64.0 355.1,58.0 359.9,58.0 364.8,70.0 369.6,70.0 374.4,70.0 379.2,76.0 384.0,70.0 388.8,70.0 393.7,70.0 398.5,70.0 403.3,76.0 408.1,82.0 412.9,76.0 417.7,70.0 422.6,70.0 427.4,70.0 432.2,70.0 437.0,76.0 441.8,70.0 446.6,70.0 451.5,70.0 456.3,70.0 461.1,70.0 465.9,70.0 470.7,70.0 475.5,70.0 480.4,70.0 485.2,70.0 490.0,70.0 494.8,70.0 499.6,70.0 504.5,70.0 509.3,70.0 514.1,70.0 518.9,70.0 523.7,70.0 528.5,70.0 533.4,70.0 538.2,70.0 543.0,70.0 547.8,70.0 552.6,70.0 557.4,70.0 562.3,70.0 567.1,70.0 571.9,70.0 576.7,70.0 581.5,70.0 586.3,70.0 591.2,70.0 596.0,70.0 600.8,70.0 605.6,70.0 610.4,70.0 615.2,70.0 620.1,70.0 624.9,70.0 629.7,70.0 634.5,70.0 639.3,70.0 644.2,70.0 649.0,70.0 653.8,70.0 658.6,70.0 663.4,70.0 668.2,70.0 673.1,70.0 677.9,70.0 682.7,70.0 687.5,70.0 692.3,70.0 697.1,70.0 702.0,70.0 706.8,70.0 711.6,70.0 716.4,70.0 721.2,70.0 726.0,70.0 730.9,70.0 735.7,70.0 740.5,70.0 745.3,70.0 750.1,70.0 754.9,70.0 759.8,70.0 764.6,70.0 769.4,76.0 774.2,70.0 779.0,70.0 783.8,70.0 788.7,70.0 793.5,70.0 798.3,76.0 803.1,76.0 807.9,88.0 812.8,88.0 817.6,88.0 822.4,94.0 827.2,94.0 832.0,94.0 836.8,94.0 841.7,88.0 846.5,88.0 851.3,82.0 856.1,82.0 860.9,82.0 865.7,88.0 870.6,88.0 875.4,94.0 880.2,82.0 885.0,82.0 889.8,82.0 894.6,82.0 899.5,88.0 904.3,88.0 909.1,94.0 913.9,94.0 918.7,88.0 923.5,88.0 928.4,88.0 933.2,94.0 938.0,94.0"/><polyline fill="none" stroke="#f59e0b" stroke-width="2.5" stroke-linejoin="round" stroke-linecap="round" points="42.0,274.0 46.8,274.0 51.6,274.0 56.5,280.0 61.3,268.0 66.1,268.0 70.9,268.0 75.7,274.0 80.5,274.0 85.4,274.0 90.2,280.0 95.0,286.0 99.8,286.0 104.6,286.0 109.4,286.0 114.3,286.0 119.1,286.0 123.9,286.0 128.7,286.0 133.5,286.0 138.3,286.0 143.2,286.0 148.0,286.0 152.8,286.0 157.6,286.0 162.4,286.0 167.2,286.0 172.1,286.0 176.9,286.0 181.7,286.0 186.5,286.0 191.3,274.0 196.2,280.0 201.0,280.0 205.8,280.0 210.6,280.0 215.4,286.0 220.2,286.0 225.1,286.0 229.9,274.0 234.7,268.0 239.5,268.0 244.3,262.0 249.1,262.0 254.0,262.0 258.8,262.0 263.6,268.0 268.4,280.0 273.2,280.0 278.0,274.0 282.9,262.0 287.7,268.0 292.5,268.0 297.3,262.0 302.1,268.0 306.9,268.0 311.8,268.0 316.6,280.0 321.4,280.0 326.2,268.0 331.0,268.0 335.8,268.0 340.7,262.0 345.5,274.0 350.3,280.0 355.1,286.0 359.9,286.0 364.8,274.0 369.6,274.0 374.4,274.0 379.2,274.0 384.0,274.0 388.8,274.0 393.7,274.0 398.5,274.0 403.3,280.0 408.1,274.0 412.9,280.0 417.7,286.0 422.6,286.0 427.4,286.0 432.2,286.0 437.0,280.0 441.8,286.0 446.6,286.0 451.5,286.0 456.3,286.0 461.1,286.0 465.9,286.0 470.7,286.0 475.5,286.0 480.4,286.0 485.2,286.0 490.0,286.0 494.8,286.0 499.6,286.0 504.5,286.0 509.3,286.0 514.1,286.0 518.9,286.0 523.7,286.0 528.5,286.0 533.4,286.0 538.2,286.0 543.0,286.0 547.8,286.0 552.6,286.0 557.4,286.0 562.3,286.0 567.1,286.0 571.9,286.0 576.7,286.0 581.5,286.0 586.3,286.0 591.2,286.0 596.0,286.0 600.8,286.0 605.6,286.0 610.4,286.0 615.2,286.0 620.1,286.0 624.9,286.0 629.7,286.0 634.5,286.0 639.3,286.0 644.2,286.0 649.0,286.0 653.8,286.0 658.6,286.0 663.4,286.0 668.2,286.0 673.1,286.0 677.9,286.0 682.7,286.0 687.5,286.0 692.3,286.0 697.1,286.0 702.0,286.0 706.8,286.0 711.6,286.0 716.4,286.0 721.2,286.0 726.0,286.0 730.9,286.0 735.7,286.0 740.5,286.0 745.3,286.0 750.1,286.0 754.9,286.0 759.8,286.0 764.6,286.0 769.4,286.0 774.2,286.0 779.0,286.0 783.8,286.0 788.7,286.0 793.5,286.0 798.3,286.0 803.1,280.0 807.9,268.0 812.8,268.0 817.6,268.0 822.4,268.0 827.2,262.0 832.0,262.0 836.8,262.0 841.7,268.0 846.5,268.0 851.3,274.0 856.1,274.0 860.9,274.0 865.7,268.0 870.6,268.0 875.4,268.0 880.2,274.0 885.0,274.0 889.8,274.0 894.6,274.0 899.5,268.0 904.3,268.0 909.1,262.0 913.9,262.0 918.7,268.0 923.5,268.0 928.4,268.0 933.2,262.0 938.0,262.0"/><polyline fill="none" stroke="#ef4444" stroke-width="2.5" stroke-linejoin="round" stroke-linecap="round" points="42.0,280.0 46.8,280.0 51.6,268.0 56.5,262.0 61.3,286.0 66.1,286.0 70.9,286.0 75.7,286.0 80.5,280.0 85.4,286.0 90.2,286.0 95.0,286.0 99.8,286.0 104.6,286.0 109.4,286.0 114.3,286.0 119.1,286.0 123.9,286.0 128.7,286.0 133.5,286.0 138.3,286.0 143.2,286.0 148.0,286.0 152.8,286.0 157.6,286.0 162.4,286.0 167.2,286.0 172.1,286.0 176.9,286.0 181.7,286.0 186.5,286.0 191.3,286.0 196.2,274.0 201.0,256.0 205.8,286.0 210.6,286.0 215.4,286.0 220.2,286.0 225.1,286.0 229.9,286.0 234.7,286.0 239.5,286.0 244.3,286.0 249.1,286.0 254.0,286.0 258.8,286.0 263.6,286.0 268.4,286.0 273.2,280.0 278.0,286.0 282.9,286.0 287.7,286.0 292.5,286.0 297.3,286.0 302.1,286.0 306.9,286.0 311.8,286.0 316.6,286.0 321.4,286.0 326.2,286.0 331.0,286.0 335.8,286.0 340.7,280.0 345.5,286.0 350.3,286.0 355.1,286.0 359.9,286.0 364.8,286.0 369.6,286.0 374.4,286.0 379.2,286.0 384.0,286.0 388.8,286.0 393.7,286.0 398.5,286.0 403.3,274.0 408.1,274.0 412.9,274.0 417.7,274.0 422.6,274.0 427.4,274.0 432.2,274.0 437.0,274.0 441.8,274.0 446.6,274.0 451.5,274.0 456.3,274.0 461.1,274.0 465.9,274.0 470.7,274.0 475.5,274.0 480.4,274.0 485.2,274.0 490.0,274.0 494.8,274.0 499.6,274.0 504.5,274.0 509.3,274.0 514.1,274.0 518.9,274.0 523.7,274.0 528.5,274.0 533.4,274.0 538.2,274.0 543.0,274.0 547.8,274.0 552.6,274.0 557.4,274.0 562.3,274.0 567.1,274.0 571.9,274.0 576.7,274.0 581.5,274.0 586.3,274.0 591.2,274.0 596.0,274.0 600.8,274.0 605.6,274.0 610.4,274.0 615.2,274.0 620.1,274.0 624.9,274.0 629.7,274.0 634.5,274.0 639.3,274.0 644.2,274.0 649.0,274.0 653.8,274.0 658.6,274.0 663.4,274.0 668.2,274.0 673.1,274.0 677.9,274.0 682.7,274.0 687.5,274.0 692.3,274.0 697.1,274.0 702.0,274.0 706.8,274.0 711.6,274.0 716.4,274.0 721.2,274.0 726.0,274.0 730.9,274.0 735.7,274.0 740.5,274.0 745.3,274.0 750.1,274.0 754.9,274.0 759.8,274.0 764.6,274.0 769.4,268.0 774.2,274.0 779.0,274.0 783.8,274.0 788.7,274.0 793.5,274.0 798.3,274.0 803.1,274.0 807.9,274.0 812.8,274.0 817.6,274.0 822.4,268.0 827.2,274.0 832.0,274.0 836.8,274.0 841.7,274.0 846.5,274.0 851.3,274.0 856.1,274.0 860.9,274.0 865.7,274.0 870.6,274.0 875.4,268.0 880.2,274.0 885.0,274.0 889.8,274.0 894.6,274.0 899.5,274.0 904.3,274.0 909.1,274.0 913.9,274.0 918.7,274.0 923.5,274.0 928.4,274.0 933.2,274.0 938.0,274.0"/><polyline fill="none" stroke="#a855f7" stroke-width="2.5" stroke-linejoin="round" stroke-linecap="round" points="42.0,286.0 46.8,286.0 51.6,286.0 56.5,286.0 61.3,286.0 66.1,286.0 70.9,286.0 75.7,286.0 80.5,286.0 85.4,286.0 90.2,286.0 95.0,286.0 99.8,286.0 104.6,286.0 109.4,286.0 114.3,286.0 119.1,286.0 123.9,286.0 128.7,286.0 133.5,286.0 138.3,286.0 143.2,286.0 148.0,286.0 152.8,286.0 157.6,286.0 162.4,286.0 167.2,286.0 172.1,286.0 176.9,286.0 181.7,286.0 186.5,286.0 191.3,286.0 196.2,286.0 201.0,286.0 205.8,286.0 210.6,286.0 215.4,286.0 220.2,286.0 225.1,286.0 229.9,286.0 234.7,286.0 239.5,286.0 244.3,286.0 249.1,286.0 254.0,286.0 258.8,286.0 263.6,286.0 268.4,286.0 273.2,286.0 278.0,286.0 282.9,286.0 287.7,286.0 292.5,286.0 297.3,286.0 302.1,286.0 306.9,286.0 311.8,286.0 316.6,286.0 321.4,286.0 326.2,286.0 331.0,286.0 335.8,286.0 340.7,286.0 345.5,286.0 350.3,286.0 355.1,286.0 359.9,286.0 364.8,286.0 369.6,286.0 374.4,286.0 379.2,280.0 384.0,286.0 388.8,286.0 393.7,286.0 398.5,286.0 403.3,286.0 408.1,286.0 412.9,286.0 417.7,286.0 422.6,286.0 427.4,286.0 432.2,286.0 437.0,286.0 441.8,286.0 446.6,286.0 451.5,286.0 456.3,286.0 461.1,286.0 465.9,286.0 470.7,286.0 475.5,286.0 480.4,286.0 485.2,286.0 490.0,286.0 494.8,286.0 499.6,286.0 504.5,286.0 509.3,286.0 514.1,286.0 518.9,286.0 523.7,286.0 528.5,286.0 533.4,286.0 538.2,286.0 543.0,286.0 547.8,286.0 552.6,286.0 557.4,286.0 562.3,286.0 567.1,286.0 571.9,286.0 576.7,286.0 581.5,286.0 586.3,286.0 591.2,286.0 596.0,286.0 600.8,286.0 605.6,286.0 610.4,286.0 615.2,286.0 620.1,286.0 624.9,286.0 629.7,286.0 634.5,286.0 639.3,286.0 644.2,286.0 649.0,286.0 653.8,286.0 658.6,286.0 663.4,286.0 668.2,286.0 673.1,286.0 677.9,286.0 682.7,286.0 687.5,286.0 692.3,286.0 697.1,286.0 702.0,286.0 706.8,286.0 711.6,286.0 716.4,286.0 721.2,286.0 726.0,286.0 730.9,286.0 735.7,286.0 740.5,286.0 745.3,286.0 750.1,286.0 754.9,286.0 759.8,286.0 764.6,286.0 769.4,286.0 774.2,286.0 779.0,286.0 783.8,286.0 788.7,286.0 793.5,286.0 798.3,280.0 803.1,286.0 807.9,286.0 812.8,286.0 817.6,286.0 822.4,286.0 827.2,286.0 832.0,286.0 836.8,286.0 841.7,286.0 846.5,286.0 851.3,286.0 856.1,286.0 860.9,286.0 865.7,286.0 870.6,286.0 875.4,286.0 880.2,286.0 885.0,286.0 889.8,286.0 894.6,286.0 899.5,286.0 904.3,286.0 909.1,286.0 913.9,286.0 918.7,286.0 923.5,286.0 928.4,286.0 933.2,286.0 938.0,286.0"/><text x="42" y="308" font-size="11" fill="#9fb0d4">19/06 12:43</text><text x="938" y="308" text-anchor="end" font-size="11" fill="#9fb0d4">30/06 13:29</text></svg>