<svg xmlns="http://www.w3.org/2000/svg" viewBox="0 0 960 320" width="960" height="320" font-family="Segoe UI, system-ui, -apple-system, Roboto, Helvetica, Arial, sans-serif" role="img" aria-label="Availability history per region"><rect x="0.5" y="0.5" width="959" height="319" rx="14" fill="#ffffff" stroke="#dce3f1"/><text x="42" y="26" font-size="14" font-weight="600" fill="#14203a">History · 211 points</text><circle cx="47" cy="40" r="5" fill="#22c55e"/><text x="57" y="44" font-size="12" fill="#5a688a">Available</text><circle cx="139.8" cy="40" r="5" fill="#f59e0b"/><text x="149.8" y="44" font-size="12" fill="#5a688a">Saturated</text><circle cx="232.60000000000002" cy="40" r="5" fill="#ef4444"/><text x="242.60000000000002" y="44" font-size="12" fill="#5a688a">Error</text><circle cx="296.6" cy="40" r="5" fill="#a855f7"/><text x="306.6" y="44" font-size="12" fill="#5a688a">Timeout</text><line x1="42" y1="286.0" x2="938" y2="286.0" stroke="#eef2f7" stroke-width="1"/><text x="35" y="289.0" text-anchor="end" font-size="11" fill="#5a688a">0</text><line x1="42" y1="227.5" x2="938" y2="227.5" stroke="#eef2f7" stroke-width="1"/><text x="35" y="230.5" text-anchor="end" font-size="11" fill="#5a688a">10</text><line x1="42" y1="169.0" x2="938" y2="169.0" stroke="#eef2f7" stroke-width="1"/><text x="35" y="172.0" text-anchor="end" font-size="11" fill="#5a688a">20</text><line x1="42" y1="110.5" x2="938" y2="110.5" stroke="#eef2f7" stroke-width="1"/><text x="35" y="113.5" text-anchor="end" font-size="11" fill="#5a688a">29</text><line x1="42" y1="52.0" x2="938" y2="52.0" stroke="#eef2f7" stroke-width="1"/><text x="35" y="55.0" text-anchor="end" font-size="11" fill="#5a688a">39</text><polyline fill="none" stroke="#22c55e" stroke-width="2.5" stroke-linejoin="round" stroke-linecap="round" points="42.0,70.0 46.3,70.0 50.5,88.0 54.8,88.0 59.1,76.0 63.3,76.0 67.6,76.0 71.9,70.0 76.1,76.0 80.4,70.0 84.7,64.0 88.9,58.0 93.2,58.0 97.5,58.0 101.7,58.0 106.0,58.0 110.3,58.0 114.5,58.0 118.8,58.0 123.1,58.0 127.3,58.0 131.6,58.0 135.9,58.0 140.1,58.0 144.4,58.0 148.7,58.0 152.9,58.0 157.2,58.0 161.5,58.0 165.7,58.0 170.0,58.0 174.3,70.0 178.5,76.0 182.8,94.0 187.1,64.0 191.3,64.0 195.6,58.0 199.9,58.0 204.1,58.0 208.4,70.0 212.7,76.0 216.9,76.0 221.2,82.0 225.5,82.0 229.7,82.0 234.0,82.0 238.3,76.0 242.5,64.0 246.8,70.0 251.1,70.0 255.3,82.0 259.6,76.0 263.9,76.0 268.1,82.0 272.4,76.0 276.7,76.0 280.9,76.0 285.2,64.0 289.5,64.0 293.7,76.0 298.0,76.0 302.3,76.0 306.5,88.0 310.8,70.0 315.1,64.0 319.3,58.0 323.6,58.0 327.9,70.0 332.1,70.0 336.4,70.0 340.7,76.0 344.9,70.0 349.2,70.0 353.5,70.0 357.7,70.0 362.0,76.0 366.3,82.0 370.5,76.0 374.8,70.0 379.1,70.0 383.3,70.0 387.6,70.0 391.9,76.0 396.1,70.0 400.4,70.0 404.7,70.0 408.9,70.0 413.2,70.0 417.5,70.0 421.7,70.0 426.0,70.0 430.3,70.0 434.5,70.0 438.8,70.0 443.1,70.0 447.3,70.0 451.6,70.0 455.9,70.0 460.1,70.0 464.4,70.0 468.7,70.0 472.9,70.0 477.2,70.0 481.5,70.0 485.7,70.0 490.0,70.0 494.3,70.0 498.5,70.0 502.8,70.0 507.1,70.0 511.3,70.0 515.6,70.0 519.9,70.0 524.1,70.0 528.4,70.0 532.7,70.0 536.9,70.0 541.2,70.0 545.5,70.0 549.7,70.0 554.0,70.0 558.3,70.0 562.5,70.0 566.8,70.0 571.1,70.0 575.3,70.0 579.6,70.0 583.9,70.0 588.1,70.0 592.4,70.0 596.7,70.0 600.9,70.0 605.2,70.0 609.5,70.0 613.7,70.0 618.0,70.0 622.3,70.0 626.5,70.0 630.8,70.0 635.1,70.0 639.3,70.0 643.6,70.0 647.9,70.0 652.1,70.0 656.4,70.0 660.7,70.0 664.9,70.0 669.2,70.0 673.5,70.0 677.7,70.0 682.0,70.0 686.3,76.0 690.5,70.0 694.8,70.0 699.1,70.0 703.3,70.0 707.6,70.0 711.9,76.0 716.1,76.0 720.4,88.0 724.7,88.0 728.9,88.0 733.2,94.0 737.5,94.0 741.7,94.0 746.0,94.0 750.3,88.0 754.5,88.0 758.8,82.0 763.1,82.0 767.3,82.0 771.6,88.0 775.9,88.0 780.1,94.0 784.4,82.0 788.7,82.0 792.9,82.0 797.2,82.0 801.5,88.0 805.7,88.0 810.0,94.0 814.3,94.0 818.5,88.0 822.8,88.0 827.1,88.0 831.3,94.0 835.6,94.0 839.9,106.0 844.1,94.0 848.4,94.0 852.7,94.0 856.9,94.0 861.2,88.0 865.5,88.0 869.7,82.0 874.0,76.0 878.3,76.0 882.5,76.0 886.8,76.0 891.1,76.0 895.3,76.0 899.6,70.0 903.9,70.0 908.1,70.0 912.4,76.0 916.7,88.0 920.9,82.0 925.2,70.0 929.5,70.0 933.7,70.0 938.0,76.0"/><polyline fill="none" stroke="#f59e0b" stroke-width="2.5" stroke-linejoin="round" stroke-linecap="round" points="42.0,274.0 46.3,274.0 50.5,274.0 54.8,280.0 59.1,268.0 63.3,268.0 67.6,268.0 71.9,274.0 76.1,274.0 80.4,274.0 84.7,280.0 88.9,286.0 93.2,286.0 97.5,286.0 101.7,286.0 106.0,286.0 110.3,286.0 114.5,286.0 118.8,286.0 123.1,286.0 127.3,286.0 131.6,286.0 135.9,286.0 140.1,286.0 144.4,286.0 148.7,286.0 152.9,286.0 157.2,286.0 161.5,286.0 165.7,286.0 170.0,286.0 174.3,274.0 178.5,280.0 182.8,280.0 187.1,280.0 191.3,280.0 195.6,286.0 199.9,286.0 204.1,286.0 208.4,274.0 212.7,268.0 216.9,268.0 221.2,262.0 225.5,262.0 229.7,262.0 234.0,262.0 238.3,268.0 242.5,280.0 246.8,280.0 251.1,274.0 255.3,262.0 259.6,268.0 263.9,268.0 268.1,262.0 272.4,268.0 276.7,268.0 280.9,268.0 285.2,280.0 289.5,280.0 293.7,268.0 298.0,268.0 302.3,268.0 306.5,262.0 310.8,274.0 315.1,280.0 319.3,286.0 323.6,286.0 327.9,274.0 332.1,274.0 336.4,274.0 340.7,274.0 344.9,274.0 349.2,274.0 353.5,274.0 357.7,274.0 362.0,280.0 366.3,274.0 370.5,280.0 374.8,286.0 379.1,286.0 383.3,286.0 387.6,286.0 391.9,280.0 396.1,286.0 400.4,286.0 404.7,286.0 408.9,286.0 413.2,286.0 417.5,286.0 421.7,286.0 426.0,286.0 430.3,286.0 434.5,286.0 438.8,286.0 443.1,286.0 447.3,286.0 451.6,286.0 455.9,286.0 460.1,286.0 464.4,286.0 468.7,286.0 472.9,286.0 477.2,286.0 481.5,286.0 485.7,286.0 490.0,286.0 494.3,286.0 498.5,286.0 502.8,286.0 507.1,286.0 511.3,286.0 515.6,286.0 519.9,286.0 524.1,286.0 528.4,286.0 532.7,286.0 536.9,286.0 541.2,286.0 545.5,286.0 549.7,286.0 554.0,286.0 558.3,286.0 562.5,286.0 566.8,286.0 571.1,286.0 575.3,286.0 579.6,286.0 583.9,286.0 588.1,286.0 592.4,286.0 596.7,286.0 600.9,286.0 605.2,286.0 609.5,286.0 613.7,286.0 618.0,286.0 622.3,286.0 626.5,286.0 630.8,286.0 635.1,286.0 639.3,286.0 643.6,286.0 647.9,286.0 652.1,286.0 656.4,286.0 660.7,286.0 664.9,286.0 669.2,286.0 673.5,286.0 677.7,286.0 682.0,286.0 686.3,286.0 690.5,286.0 694.8,286.0 699.1,286.0 703.3,286.0 707.6,286.0 711.9,286.0 716.1,280.0 720.4,268.0 724.7,268.0 728.9,268.0 733.2,268.0 737.5,262.0 741.7,262.0 746.0,262.0 750.3,268.0 754.5,268.0 758.8,274.0 763.1,274.0 767.3,274.0 771.6,268.0 775.9,268.0 780.1,268.0 784.4,274.0 788.7,274.0 792.9,274.0 797.2,274.0 801.5,268.0 805.7,268.0 810.0,262.0 814.3,262.0 818.5,268.0 822.8,268.0 827.1,268.0 831.3,262.0 835.6,262.0 839.9,274.0 844.1,262.0 848.4,262.0 852.7,262.0 856.9,262.0 861.2,268.0 865.5,268.0 869.7,274.0 874.0,280.0 878.3,280.0 882.5,280.0 886.8,280.0 891.1,280.0 895.3,280.0 899.6,286.0 903.9,286.0 908.1,286.0 912.4,280.0 916.7,274.0 920.9,274.0 925.2,280.0 929.5,274.0 933.7,274.0 938.0,268.0"/><polyline fill="none" stroke="#ef4444" stroke-width="2.5" stroke-linejoin="round" stroke-linecap="round" points="42.0,280.0 46.3,280.0 50.5,268.0 54.8,262.0 59.1,286.0 63.3,286.0 67.6,286.0 71.9,286.0 76.1,280.0 80.4,286.0 84.7,286.0 88.9,286.0 93.2,286.0 97.5,286.0 101.7,286.0 106.0,286.0 110.3,286.0 114.5,286.0 118.8,286.0 123.1,286.0 127.3,286.0 131.6,286.0 135.9,286.0 140.1,286.0 144.4,286.0 148.7,286.0 152.9,286.0 157.2,286.0 161.5,286.0 165.7,286.0 170.0,286.0 174.3,286.0 178.5,274.0 182.8,256.0 187.1,286.0 191.3,286.0 195.6,286.0 199.9,286.0 204.1,286.0 208.4,286.0 212.7,286.0 216.9,286.0 221.2,286.0 225.5,286.0 229.7,286.0 234.0,286.0 238.3,286.0 242.5,286.0 246.8,280.0 251.1,286.0 255.3,286.0 259.6,286.0 263.9,286.0 268.1,286.0 272.4,286.0 276.7,286.0 280.9,286.0 285.2,286.0 289.5,286.0 293.7,286.0 298.0,286.0 302.3,286.0 306.5,280.0 310.8,286.0 315.1,286.0 319.3,286.0 323.6,286.0 327.9,286.0 332.1,286.0 336.4,286.0 340.7,286.0 344.9,286.0 349.2,286.0 353.5,286.0 357.7,286.0 362.0,274.0 366.3,274.0 370.5,274.0 374.8,274.0 379.1,274.0 383.3,274.0 387.6,274.0 391.9,274.0 396.1,274.0 400.4,274.0 404.7,274.0 408.9,274.0 413.2,274.0 417.5,274.0 421.7,274.0 426.0,274.0 430.3,274.0 434.5,274.0 438.8,274.0 443.1,274.0 447.3,274.0 451.6,274.0 455.9,274.0 460.1,274.0 464.4,274.0 468.7,274.0 472.9,274.0 477.2,274.0 481.5,274.0 485.7,274.0 490.0,274.0 494.3,274.0 498.5,274.0 502.8,274.0 507.1,274.0 511.3,274.0 515.6,274.0 519.9,274.0 524.1,274.0 528.4,274.0 532.7,274.0 536.9,274.0 541.2,274.0 545.5,274.0 549.7,274.0 554.0,274.0 558.3,274.0 562.5,274.0 566.8,274.0 571.1,274.0 575.3,274.0 579.6,274.0 583.9,274.0 588.1,274.0 592.4,274.0 596.7,274.0 600.9,274.0 605.2,274.0 609.5,274.0 613.7,274.0 618.0,274.0 622.3,274.0 626.5,274.0 630.8,274.0 635.1,274.0 639.3,274.0 643.6,274.0 647.9,274.0 652.1,274.0 656.4,274.0 660.7,274.0 664.9,274.0 669.2,274.0 673.5,274.0 677.7,274.0 682.0,274.0 686.3,268.0 690.5,274.0 694.8,274.0 699.1,274.0 703.3,274.0 707.6,274.0 711.9,274.0 716.1,274.0 720.4,274.0 724.7,274.0 728.9,274.0 733.2,268.0 737.5,274.0 741.7,274.0 746.0,274.0 750.3,274.0 754.5,274.0 758.8,274.0 763.1,274.0 767.3,274.0 771.6,274.0 775.9,274.0 780.1,268.0 784.4,274.0 788.7,274.0 792.9,274.0 797.2,274.0 801.5,274.0 805.7,274.0 810.0,274.0 814.3,274.0 818.5,274.0 822.8,274.0 827.1,274.0 831.3,274.0 835.6,274.0 839.9,250.0 844.1,274.0 848.4,274.0 852.7,274.0 856.9,274.0 861.2,274.0 865.5,274.0 869.7,274.0 874.0,274.0 878.3,274.0 882.5,274.0 886.8,274.0 891.1,274.0 895.3,274.0 899.6,274.0 903.9,274.0 908.1,274.0 912.4,274.0 916.7,268.0 920.9,274.0 925.2,280.0 929.5,286.0 933.7,286.0 938.0,286.0"/><polyline fill="none" stroke="#a855f7" stroke-width="2.5" stroke-linejoin="round" stroke-linecap="round" points="42.0,286.0 46.3,286.0 50.5,286.0 54.8,286.0 59.1,286.0 63.3,286.0 67.6,286.0 71.9,286.0 76.1,286.0 80.4,286.0 84.7,286.0 88.9,286.0 93.2,286.0 97.5,286.0 101.7,286.0 106.0,286.0 110.3,286.0 114.5,286.0 118.8,286.0 123.1,286.0 127.3,286.0 131.6,286.0 135.9,286.0 140.1,286.0 144.4,286.0 148.7,286.0 152.9,286.0 157.2,286.0 161.5,286.0 165.7,286.0 170.0,286.0 174.3,286.0 178.5,286.0 182.8,286.0 187.1,286.0 191.3,286.0 195.6,286.0 199.9,286.0 204.1,286.0 208.4,286.0 212.7,286.0 216.9,286.0 221.2,286.0 225.5,286.0 229.7,286.0 234.0,286.0 238.3,286.0 242.5,286.0 246.8,286.0 251.1,286.0 255.3,286.0 259.6,286.0 263.9,286.0 268.1,286.0 272.4,286.0 276.7,286.0 280.9,286.0 285.2,286.0 289.5,286.0 293.7,286.0 298.0,286.0 302.3,286.0 306.5,286.0 310.8,286.0 315.1,286.0 319.3,286.0 323.6,286.0 327.9,286.0 332.1,286.0 336.4,286.0 340.7,280.0 344.9,286.0 349.2,286.0 353.5,286.0 357.7,286.0 362.0,286.0 366.3,286.0 370.5,286.0 374.8,286.0 379.1,286.0 383.3,286.0 387.6,286.0 391.9,286.0 396.1,286.0 400.4,286.0 404.7,286.0 408.9,286.0 413.2,286.0 417.5,286.0 421.7,286.0 426.0,286.0 430.3,286.0 434.5,286.0 438.8,286.0 443.1,286.0 447.3,286.0 451.6,286.0 455.9,286.0 460.1,286.0 464.4,286.0 468.7,286.0 472.9,286.0 477.2,286.0 481.5,286.0 485.7,286.0 490.0,286.0 494.3,286.0 498.5,286.0 502.8,286.0 507.1,286.0 511.3,286.0 515.6,286.0 519.9,286.0 524.1,286.0 528.4,286.0 532.7,286.0 536.9,286.0 541.2,286.0 545.5,286.0 549.7,286.0 554.0,286.0 558.3,286.0 562.5,286.0 566.8,286.0 571.1,286.0 575.3,286.0 579.6,286.0 583.9,286.0 588.1,286.0 592.4,286.0 596.7,286.0 600.9,286.0 605.2,286.0 609.5,286.0 613.7,286.0 618.0,286.0 622.3,286.0 626.5,286.0 630.8,286.0 635.1,286.0 639.3,286.0 643.6,286.0 647.9,286.0 652.1,286.0 656.4,286.0 660.7,286.0 664.9,286.0 669.2,286.0 673.5,286.0 677.7,286.0 682.0,286.0 686.3,286.0 690.5,286.0 694.8,286.0 699.1,286.0 703.3,286.0 707.6,286.0 711.9,280.0 716.1,286.0 720.4,286.0 724.7,286.0 728.9,286.0 733.2,286.0 737.5,286.0 741.7,286.0 746.0,286.0 750.3,286.0 754.5,286.0 758.8,286.0 763.1,286.0 767.3,286.0 771.6,286.0 775.9,286.0 780.1,286.0 784.4,286.0 788.7,286.0 792.9,286.0 797.2,286.0 801.5,286.0 805.7,286.0 810.0,286.0 814.3,286.0 818.5,286.0 822.8,286.0 827.1,286.0 831.3,286.0 835.6,286.0 839.9,286.0 844.1,286.0 848.4,286.0 852.7,286.0 856.9,286.0 861.2,286.0 865.5,286.0 869.7,286.0 874.0,286.0 878.3,286.0 882.5,286.0 886.8,286.0 891.1,286.0 895.3,286.0 899.6,286.0 903.9,286.0 908.1,286.0 912.4,286.0 916.7,286.0 920.9,286.0 925.2,286.0 929.5,286.0 933.7,286.0 938.0,286.0"/><text x="42" y="308" font-size="11" fill="#5a688a">19/06 12:43</text><text x="938" y="308" text-anchor="end" font-size="11" fill="#5a688a">01/07 13:29</text></svg>