<svg xmlns="http://www.w3.org/2000/svg" viewBox="0 0 960 320" width="960" height="320" font-family="Segoe UI, system-ui, -apple-system, Roboto, Helvetica, Arial, sans-serif" role="img" aria-label="Availability history per region"><rect x="0.5" y="0.5" width="959" height="319" rx="14" fill="#0d1117" stroke="#2c3a5e"/><text x="42" y="26" font-size="14" font-weight="600" fill="#e6ecff">History · 191 points</text><circle cx="47" cy="40" r="5" fill="#22c55e"/><text x="57" y="44" font-size="12" fill="#9fb0d4">Available</text><circle cx="139.8" cy="40" r="5" fill="#f59e0b"/><text x="149.8" y="44" font-size="12" fill="#9fb0d4">Saturated</text><circle cx="232.60000000000002" cy="40" r="5" fill="#ef4444"/><text x="242.60000000000002" y="44" font-size="12" fill="#9fb0d4">Error</text><circle cx="296.6" cy="40" r="5" fill="#a855f7"/><text x="306.6" y="44" font-size="12" fill="#9fb0d4">Timeout</text><line x1="42" y1="286.0" x2="938" y2="286.0" stroke="#21304f" stroke-width="1"/><text x="35" y="289.0" text-anchor="end" font-size="11" fill="#9fb0d4">0</text><line x1="42" y1="227.5" x2="938" y2="227.5" stroke="#21304f" stroke-width="1"/><text x="35" y="230.5" text-anchor="end" font-size="11" fill="#9fb0d4">10</text><line x1="42" y1="169.0" x2="938" y2="169.0" stroke="#21304f" stroke-width="1"/><text x="35" y="172.0" text-anchor="end" font-size="11" fill="#9fb0d4">21</text><line x1="42" y1="110.5" x2="938" y2="110.5" stroke="#21304f" stroke-width="1"/><text x="35" y="113.5" text-anchor="end" font-size="11" fill="#9fb0d4">32</text><line x1="42" y1="52.0" x2="938" y2="52.0" stroke="#21304f" stroke-width="1"/><text x="35" y="55.0" text-anchor="end" font-size="11" fill="#9fb0d4">42</text><polyline fill="none" stroke="#22c55e" stroke-width="2.5" stroke-linejoin="round" stroke-linecap="round" points="42.0,85.4 46.7,230.3 51.4,102.1 56.1,107.7 60.9,102.1 65.6,96.6 70.3,96.6 75.0,96.6 79.7,96.6 84.4,96.6 89.2,96.6 93.9,96.6 98.6,96.6 103.3,96.6 108.0,96.6 112.7,91.0 117.5,91.0 122.2,102.1 126.9,102.1 131.6,102.1 136.3,107.7 141.0,107.7 145.7,107.7 150.5,107.7 155.2,107.7 159.9,107.7 164.6,107.7 169.3,107.7 174.0,107.7 178.8,102.1 183.5,102.1 188.2,102.1 192.9,102.1 197.6,96.6 202.3,96.6 207.1,96.6 211.8,96.6 216.5,96.6 221.2,102.1 225.9,102.1 230.6,102.1 235.3,102.1 240.1,96.6 244.8,96.6 249.5,96.6 254.2,96.6 258.9,96.6 263.6,96.6 268.4,96.6 273.1,102.1 277.8,102.1 282.5,102.1 287.2,102.1 291.9,96.6 296.7,96.6 301.4,96.6 306.1,96.6 310.8,96.6 315.5,96.6 320.2,96.6 324.9,96.6 329.7,102.1 334.4,96.6 339.1,96.6 343.8,96.6 348.5,96.6 353.2,96.6 358.0,102.1 362.7,96.6 367.4,96.6 372.1,96.6 376.8,96.6 381.5,96.6 386.3,96.6 391.0,96.6 395.7,96.6 400.4,96.6 405.1,91.0 409.8,91.0 414.5,91.0 419.3,91.0 424.0,96.6 428.7,91.0 433.4,96.6 438.1,96.6 442.8,96.6 447.6,96.6 452.3,96.6 457.0,96.6 461.7,102.1 466.4,107.7 471.1,107.7 475.9,107.7 480.6,107.7 485.3,107.7 490.0,107.7 494.7,107.7 499.4,113.3 504.1,107.7 508.9,107.7 513.6,107.7 518.3,107.7 523.0,107.7 527.7,107.7 532.4,102.1 537.2,102.1 541.9,102.1 546.6,102.1 551.3,102.1 556.0,102.1 560.7,102.1 565.5,102.1 570.2,107.7 574.9,107.7 579.6,107.7 584.3,107.7 589.0,107.7 593.7,107.7 598.5,107.7 603.2,107.7 607.9,113.3 612.6,107.7 617.3,107.7 622.0,107.7 626.8,118.9 631.5,107.7 636.2,107.7 640.9,107.7 645.6,107.7 650.3,102.1 655.1,102.1 659.8,102.1 664.5,102.1 669.2,107.7 673.9,102.1 678.6,107.7 683.3,107.7 688.1,107.7 692.8,107.7 697.5,113.3 702.2,107.7 706.9,107.7 711.6,107.7 716.4,107.7 721.1,107.7 725.8,107.7 730.5,107.7 735.2,107.7 739.9,113.3 744.7,102.1 749.4,102.1 754.1,102.1 758.8,102.1 763.5,102.1 768.2,102.1 772.9,102.1 777.7,102.1 782.4,102.1 787.1,102.1 791.8,107.7 796.5,102.1 801.2,102.1 806.0,102.1 810.7,102.1 815.4,102.1 820.1,102.1 824.8,102.1 829.5,102.1 834.3,107.7 839.0,91.0 843.7,85.4 848.4,79.9 853.1,79.9 857.8,79.9 862.5,79.9 867.3,79.9 872.0,79.9 876.7,79.9 881.4,91.0 886.1,96.6 890.8,91.0 895.6,91.0 900.3,91.0 905.0,91.0 909.7,91.0 914.4,91.0 919.1,91.0 923.9,79.9 928.6,79.9 933.3,79.9 938.0,79.9"/><polyline fill="none" stroke="#f59e0b" stroke-width="2.5" stroke-linejoin="round" stroke-linecap="round" points="42.0,274.9 46.7,269.3 51.4,258.1 56.1,252.6 60.9,258.1 65.6,263.7 70.3,263.7 75.0,263.7 79.7,263.7 84.4,263.7 89.2,263.7 93.9,263.7 98.6,263.7 103.3,263.7 108.0,263.7 112.7,269.3 117.5,269.3 122.2,263.7 126.9,258.1 131.6,258.1 136.3,252.6 141.0,252.6 145.7,252.6 150.5,252.6 155.2,252.6 159.9,252.6 164.6,252.6 169.3,252.6 174.0,252.6 178.8,258.1 183.5,258.1 188.2,258.1 192.9,258.1 197.6,263.7 202.3,263.7 207.1,263.7 211.8,263.7 216.5,263.7 221.2,258.1 225.9,258.1 230.6,258.1 235.3,258.1 240.1,263.7 244.8,263.7 249.5,263.7 254.2,263.7 258.9,263.7 263.6,263.7 268.4,263.7 273.1,258.1 277.8,258.1 282.5,258.1 287.2,263.7 291.9,263.7 296.7,263.7 301.4,263.7 306.1,263.7 310.8,263.7 315.5,263.7 320.2,263.7 324.9,263.7 329.7,258.1 334.4,263.7 339.1,263.7 343.8,263.7 348.5,263.7 353.2,263.7 358.0,263.7 362.7,263.7 367.4,263.7 372.1,263.7 376.8,263.7 381.5,263.7 386.3,263.7 391.0,263.7 395.7,263.7 400.4,263.7 405.1,269.3 409.8,269.3 414.5,269.3 419.3,269.3 424.0,269.3 428.7,269.3 433.4,263.7 438.1,263.7 442.8,263.7 447.6,263.7 452.3,263.7 457.0,263.7 461.7,258.1 466.4,252.6 471.1,252.6 475.9,258.1 480.6,252.6 485.3,252.6 490.0,252.6 494.7,252.6 499.4,252.6 504.1,252.6 508.9,258.1 513.6,252.6 518.3,252.6 523.0,252.6 527.7,252.6 532.4,258.1 537.2,258.1 541.9,258.1 546.6,258.1 551.3,258.1 556.0,258.1 560.7,258.1 565.5,258.1 570.2,252.6 574.9,252.6 579.6,252.6 584.3,252.6 589.0,252.6 593.7,252.6 598.5,252.6 603.2,258.1 607.9,252.6 612.6,252.6 617.3,252.6 622.0,252.6 626.8,252.6 631.5,252.6 636.2,252.6 640.9,258.1 645.6,258.1 650.3,258.1 655.1,258.1 659.8,258.1 664.5,258.1 669.2,258.1 673.9,258.1 678.6,252.6 683.3,252.6 688.1,252.6 692.8,252.6 697.5,252.6 702.2,252.6 706.9,252.6 711.6,252.6 716.4,252.6 721.1,252.6 725.8,252.6 730.5,252.6 735.2,252.6 739.9,252.6 744.7,258.1 749.4,258.1 754.1,258.1 758.8,258.1 763.5,258.1 768.2,263.7 772.9,263.7 777.7,258.1 782.4,258.1 787.1,258.1 791.8,258.1 796.5,258.1 801.2,258.1 806.0,258.1 810.7,258.1 815.4,258.1 820.1,258.1 824.8,258.1 829.5,258.1 834.3,258.1 839.0,258.1 843.7,258.1 848.4,258.1 853.1,258.1 857.8,258.1 862.5,258.1 867.3,258.1 872.0,258.1 876.7,258.1 881.4,258.1 886.1,258.1 890.8,258.1 895.6,258.1 900.3,258.1 905.0,258.1 909.7,258.1 914.4,258.1 919.1,258.1 923.9,258.1 928.6,258.1 933.3,258.1 938.0,258.1"/><polyline fill="none" stroke="#ef4444" stroke-width="2.5" stroke-linejoin="round" stroke-linecap="round" points="42.0,286.0 46.7,146.7 51.4,286.0 56.1,286.0 60.9,286.0 65.6,286.0 70.3,286.0 75.0,286.0 79.7,286.0 84.4,286.0 89.2,286.0 93.9,286.0 98.6,286.0 103.3,286.0 108.0,286.0 112.7,286.0 117.5,286.0 122.2,280.4 126.9,286.0 131.6,286.0 136.3,286.0 141.0,286.0 145.7,286.0 150.5,286.0 155.2,286.0 159.9,286.0 164.6,286.0 169.3,286.0 174.0,286.0 178.8,286.0 183.5,286.0 188.2,286.0 192.9,286.0 197.6,286.0 202.3,286.0 207.1,286.0 211.8,286.0 216.5,286.0 221.2,286.0 225.9,286.0 230.6,286.0 235.3,286.0 240.1,286.0 244.8,286.0 249.5,286.0 254.2,286.0 258.9,286.0 263.6,286.0 268.4,286.0 273.1,286.0 277.8,286.0 282.5,286.0 287.2,286.0 291.9,286.0 296.7,286.0 301.4,286.0 306.1,286.0 310.8,286.0 315.5,286.0 320.2,286.0 324.9,286.0 329.7,286.0 334.4,286.0 339.1,286.0 343.8,286.0 348.5,286.0 353.2,286.0 358.0,280.4 362.7,286.0 367.4,286.0 372.1,286.0 376.8,286.0 381.5,286.0 386.3,286.0 391.0,286.0 395.7,286.0 400.4,286.0 405.1,286.0 409.8,286.0 414.5,286.0 419.3,286.0 424.0,280.4 428.7,286.0 433.4,286.0 438.1,286.0 442.8,286.0 447.6,286.0 452.3,286.0 457.0,286.0 461.7,286.0 466.4,286.0 471.1,286.0 475.9,280.4 480.6,286.0 485.3,286.0 490.0,286.0 494.7,286.0 499.4,280.4 504.1,286.0 508.9,286.0 513.6,286.0 518.3,286.0 523.0,286.0 527.7,286.0 532.4,286.0 537.2,286.0 541.9,286.0 546.6,286.0 551.3,286.0 556.0,286.0 560.7,286.0 565.5,286.0 570.2,286.0 574.9,286.0 579.6,286.0 584.3,286.0 589.0,286.0 593.7,286.0 598.5,286.0 603.2,286.0 607.9,280.4 612.6,286.0 617.3,286.0 622.0,286.0 626.8,274.9 631.5,286.0 636.2,286.0 640.9,280.4 645.6,280.4 650.3,286.0 655.1,286.0 659.8,286.0 664.5,286.0 669.2,280.4 673.9,286.0 678.6,286.0 683.3,286.0 688.1,286.0 692.8,286.0 697.5,286.0 702.2,286.0 706.9,286.0 711.6,286.0 716.4,286.0 721.1,286.0 725.8,286.0 730.5,286.0 735.2,286.0 739.9,286.0 744.7,286.0 749.4,286.0 754.1,286.0 758.8,286.0 763.5,286.0 768.2,280.4 772.9,286.0 777.7,286.0 782.4,286.0 787.1,263.7 791.8,280.4 796.5,286.0 801.2,286.0 806.0,286.0 810.7,286.0 815.4,286.0 820.1,286.0 824.8,286.0 829.5,286.0 834.3,258.1 839.0,274.9 843.7,280.4 848.4,286.0 853.1,286.0 857.8,286.0 862.5,286.0 867.3,286.0 872.0,286.0 876.7,286.0 881.4,274.9 886.1,269.3 890.8,274.9 895.6,274.9 900.3,274.9 905.0,274.9 909.7,274.9 914.4,274.9 919.1,274.9 923.9,286.0 928.6,286.0 933.3,286.0 938.0,286.0"/><polyline fill="none" stroke="#a855f7" stroke-width="2.5" stroke-linejoin="round" stroke-linecap="round" points="42.0,286.0 46.7,286.0 51.4,286.0 56.1,286.0 60.9,286.0 65.6,286.0 70.3,286.0 75.0,286.0 79.7,286.0 84.4,286.0 89.2,286.0 93.9,286.0 98.6,286.0 103.3,286.0 108.0,286.0 112.7,286.0 117.5,286.0 122.2,286.0 126.9,286.0 131.6,286.0 136.3,286.0 141.0,286.0 145.7,286.0 150.5,286.0 155.2,286.0 159.9,286.0 164.6,286.0 169.3,286.0 174.0,286.0 178.8,286.0 183.5,286.0 188.2,286.0 192.9,286.0 197.6,286.0 202.3,286.0 207.1,286.0 211.8,286.0 216.5,286.0 221.2,286.0 225.9,286.0 230.6,286.0 235.3,286.0 240.1,286.0 244.8,286.0 249.5,286.0 254.2,286.0 258.9,286.0 263.6,286.0 268.4,286.0 273.1,286.0 277.8,286.0 282.5,286.0 287.2,280.4 291.9,286.0 296.7,286.0 301.4,286.0 306.1,286.0 310.8,286.0 315.5,286.0 320.2,286.0 324.9,286.0 329.7,286.0 334.4,286.0 339.1,286.0 343.8,286.0 348.5,286.0 353.2,286.0 358.0,286.0 362.7,286.0 367.4,286.0 372.1,286.0 376.8,286.0 381.5,286.0 386.3,286.0 391.0,286.0 395.7,286.0 400.4,286.0 405.1,286.0 409.8,286.0 414.5,286.0 419.3,286.0 424.0,286.0 428.7,286.0 433.4,286.0 438.1,286.0 442.8,286.0 447.6,286.0 452.3,286.0 457.0,286.0 461.7,286.0 466.4,286.0 471.1,286.0 475.9,286.0 480.6,286.0 485.3,286.0 490.0,286.0 494.7,286.0 499.4,286.0 504.1,286.0 508.9,280.4 513.6,286.0 518.3,286.0 523.0,286.0 527.7,286.0 532.4,286.0 537.2,286.0 541.9,286.0 546.6,286.0 551.3,286.0 556.0,286.0 560.7,286.0 565.5,286.0 570.2,286.0 574.9,286.0 579.6,286.0 584.3,286.0 589.0,286.0 593.7,286.0 598.5,286.0 603.2,280.4 607.9,286.0 612.6,286.0 617.3,286.0 622.0,286.0 626.8,286.0 631.5,286.0 636.2,286.0 640.9,286.0 645.6,286.0 650.3,286.0 655.1,286.0 659.8,286.0 664.5,286.0 669.2,286.0 673.9,286.0 678.6,286.0 683.3,286.0 688.1,286.0 692.8,286.0 697.5,280.4 702.2,286.0 706.9,286.0 711.6,286.0 716.4,286.0 721.1,286.0 725.8,286.0 730.5,286.0 735.2,286.0 739.9,280.4 744.7,286.0 749.4,286.0 754.1,286.0 758.8,286.0 763.5,286.0 768.2,286.0 772.9,280.4 777.7,286.0 782.4,286.0 787.1,286.0 791.8,286.0 796.5,286.0 801.2,286.0 806.0,286.0 810.7,286.0 815.4,286.0 820.1,286.0 824.8,286.0 829.5,286.0 834.3,286.0 839.0,286.0 843.7,286.0 848.4,286.0 853.1,286.0 857.8,286.0 862.5,286.0 867.3,286.0 872.0,286.0 876.7,286.0 881.4,286.0 886.1,286.0 890.8,286.0 895.6,286.0 900.3,286.0 905.0,286.0 909.7,286.0 914.4,286.0 919.1,286.0 923.9,286.0 928.6,286.0 933.3,286.0 938.0,286.0"/><text x="42" y="308" font-size="11" fill="#9fb0d4">19/06 15:39</text><text x="938" y="308" text-anchor="end" font-size="11" fill="#9fb0d4">24/07 13:30</text></svg>