<svg xmlns="http://www.w3.org/2000/svg" viewBox="0 0 960 320" width="960" height="320" font-family="Segoe UI, system-ui, -apple-system, Roboto, Helvetica, Arial, sans-serif" role="img" aria-label="Availability history per region"><rect x="0.5" y="0.5" width="959" height="319" rx="14" fill="#ffffff" stroke="#dce3f1"/><text x="42" y="26" font-size="14" font-weight="600" fill="#14203a">History · 87 points</text><circle cx="47" cy="40" r="5" fill="#22c55e"/><text x="57" y="44" font-size="12" fill="#5a688a">Available</text><circle cx="139.8" cy="40" r="5" fill="#f59e0b"/><text x="149.8" y="44" font-size="12" fill="#5a688a">Saturated</text><circle cx="232.60000000000002" cy="40" r="5" fill="#ef4444"/><text x="242.60000000000002" y="44" font-size="12" fill="#5a688a">Error</text><circle cx="296.6" cy="40" r="5" fill="#a855f7"/><text x="306.6" y="44" font-size="12" fill="#5a688a">Timeout</text><line x1="42" y1="286.0" x2="938" y2="286.0" stroke="#eef2f7" stroke-width="1"/><text x="35" y="289.0" text-anchor="end" font-size="11" fill="#5a688a">0</text><line x1="42" y1="227.5" x2="938" y2="227.5" stroke="#eef2f7" stroke-width="1"/><text x="35" y="230.5" text-anchor="end" font-size="11" fill="#5a688a">10</text><line x1="42" y1="169.0" x2="938" y2="169.0" stroke="#eef2f7" stroke-width="1"/><text x="35" y="172.0" text-anchor="end" font-size="11" fill="#5a688a">20</text><line x1="42" y1="110.5" x2="938" y2="110.5" stroke="#eef2f7" stroke-width="1"/><text x="35" y="113.5" text-anchor="end" font-size="11" fill="#5a688a">29</text><line x1="42" y1="52.0" x2="938" y2="52.0" stroke="#eef2f7" stroke-width="1"/><text x="35" y="55.0" text-anchor="end" font-size="11" fill="#5a688a">39</text><polyline fill="none" stroke="#22c55e" stroke-width="2.5" stroke-linejoin="round" stroke-linecap="round" points="42.0,70.0 52.4,70.0 62.8,88.0 73.3,88.0 83.7,76.0 94.1,76.0 104.5,76.0 114.9,70.0 125.3,76.0 135.8,70.0 146.2,64.0 156.6,58.0 167.0,58.0 177.4,58.0 187.9,58.0 198.3,58.0 208.7,58.0 219.1,58.0 229.5,58.0 240.0,58.0 250.4,58.0 260.8,58.0 271.2,58.0 281.6,58.0 292.0,58.0 302.5,58.0 312.9,58.0 323.3,58.0 333.7,58.0 344.1,58.0 354.6,58.0 365.0,70.0 375.4,76.0 385.8,94.0 396.2,64.0 406.7,64.0 417.1,58.0 427.5,58.0 437.9,58.0 448.3,70.0 458.7,76.0 469.2,76.0 479.6,82.0 490.0,82.0 500.4,82.0 510.8,82.0 521.3,76.0 531.7,64.0 542.1,70.0 552.5,70.0 562.9,82.0 573.3,76.0 583.8,76.0 594.2,82.0 604.6,76.0 615.0,76.0 625.4,76.0 635.9,64.0 646.3,64.0 656.7,76.0 667.1,76.0 677.5,76.0 688.0,88.0 698.4,70.0 708.8,64.0 719.2,58.0 729.6,58.0 740.0,70.0 750.5,70.0 760.9,70.0 771.3,76.0 781.7,70.0 792.1,70.0 802.6,70.0 813.0,70.0 823.4,76.0 833.8,82.0 844.2,76.0 854.7,70.0 865.1,70.0 875.5,70.0 885.9,70.0 896.3,76.0 906.7,70.0 917.2,70.0 927.6,70.0 938.0,70.0"/><polyline fill="none" stroke="#f59e0b" stroke-width="2.5" stroke-linejoin="round" stroke-linecap="round" points="42.0,274.0 52.4,274.0 62.8,274.0 73.3,280.0 83.7,268.0 94.1,268.0 104.5,268.0 114.9,274.0 125.3,274.0 135.8,274.0 146.2,280.0 156.6,286.0 167.0,286.0 177.4,286.0 187.9,286.0 198.3,286.0 208.7,286.0 219.1,286.0 229.5,286.0 240.0,286.0 250.4,286.0 260.8,286.0 271.2,286.0 281.6,286.0 292.0,286.0 302.5,286.0 312.9,286.0 323.3,286.0 333.7,286.0 344.1,286.0 354.6,286.0 365.0,274.0 375.4,280.0 385.8,280.0 396.2,280.0 406.7,280.0 417.1,286.0 427.5,286.0 437.9,286.0 448.3,274.0 458.7,268.0 469.2,268.0 479.6,262.0 490.0,262.0 500.4,262.0 510.8,262.0 521.3,268.0 531.7,280.0 542.1,280.0 552.5,274.0 562.9,262.0 573.3,268.0 583.8,268.0 594.2,262.0 604.6,268.0 615.0,268.0 625.4,268.0 635.9,280.0 646.3,280.0 656.7,268.0 667.1,268.0 677.5,268.0 688.0,262.0 698.4,274.0 708.8,280.0 719.2,286.0 729.6,286.0 740.0,274.0 750.5,274.0 760.9,274.0 771.3,274.0 781.7,274.0 792.1,274.0 802.6,274.0 813.0,274.0 823.4,280.0 833.8,274.0 844.2,280.0 854.7,286.0 865.1,286.0 875.5,286.0 885.9,286.0 896.3,280.0 906.7,286.0 917.2,286.0 927.6,286.0 938.0,286.0"/><polyline fill="none" stroke="#ef4444" stroke-width="2.5" stroke-linejoin="round" stroke-linecap="round" points="42.0,280.0 52.4,280.0 62.8,268.0 73.3,262.0 83.7,286.0 94.1,286.0 104.5,286.0 114.9,286.0 125.3,280.0 135.8,286.0 146.2,286.0 156.6,286.0 167.0,286.0 177.4,286.0 187.9,286.0 198.3,286.0 208.7,286.0 219.1,286.0 229.5,286.0 240.0,286.0 250.4,286.0 260.8,286.0 271.2,286.0 281.6,286.0 292.0,286.0 302.5,286.0 312.9,286.0 323.3,286.0 333.7,286.0 344.1,286.0 354.6,286.0 365.0,286.0 375.4,274.0 385.8,256.0 396.2,286.0 406.7,286.0 417.1,286.0 427.5,286.0 437.9,286.0 448.3,286.0 458.7,286.0 469.2,286.0 479.6,286.0 490.0,286.0 500.4,286.0 510.8,286.0 521.3,286.0 531.7,286.0 542.1,280.0 552.5,286.0 562.9,286.0 573.3,286.0 583.8,286.0 594.2,286.0 604.6,286.0 615.0,286.0 625.4,286.0 635.9,286.0 646.3,286.0 656.7,286.0 667.1,286.0 677.5,286.0 688.0,280.0 698.4,286.0 708.8,286.0 719.2,286.0 729.6,286.0 740.0,286.0 750.5,286.0 760.9,286.0 771.3,286.0 781.7,286.0 792.1,286.0 802.6,286.0 813.0,286.0 823.4,274.0 833.8,274.0 844.2,274.0 854.7,274.0 865.1,274.0 875.5,274.0 885.9,274.0 896.3,274.0 906.7,274.0 917.2,274.0 927.6,274.0 938.0,274.0"/><polyline fill="none" stroke="#a855f7" stroke-width="2.5" stroke-linejoin="round" stroke-linecap="round" points="42.0,286.0 52.4,286.0 62.8,286.0 73.3,286.0 83.7,286.0 94.1,286.0 104.5,286.0 114.9,286.0 125.3,286.0 135.8,286.0 146.2,286.0 156.6,286.0 167.0,286.0 177.4,286.0 187.9,286.0 198.3,286.0 208.7,286.0 219.1,286.0 229.5,286.0 240.0,286.0 250.4,286.0 260.8,286.0 271.2,286.0 281.6,286.0 292.0,286.0 302.5,286.0 312.9,286.0 323.3,286.0 333.7,286.0 344.1,286.0 354.6,286.0 365.0,286.0 375.4,286.0 385.8,286.0 396.2,286.0 406.7,286.0 417.1,286.0 427.5,286.0 437.9,286.0 448.3,286.0 458.7,286.0 469.2,286.0 479.6,286.0 490.0,286.0 500.4,286.0 510.8,286.0 521.3,286.0 531.7,286.0 542.1,286.0 552.5,286.0 562.9,286.0 573.3,286.0 583.8,286.0 594.2,286.0 604.6,286.0 615.0,286.0 625.4,286.0 635.9,286.0 646.3,286.0 656.7,286.0 667.1,286.0 677.5,286.0 688.0,286.0 698.4,286.0 708.8,286.0 719.2,286.0 729.6,286.0 740.0,286.0 750.5,286.0 760.9,286.0 771.3,280.0 781.7,286.0 792.1,286.0 802.6,286.0 813.0,286.0 823.4,286.0 833.8,286.0 844.2,286.0 854.7,286.0 865.1,286.0 875.5,286.0 885.9,286.0 896.3,286.0 906.7,286.0 917.2,286.0 927.6,286.0 938.0,286.0"/><text x="42" y="308" font-size="11" fill="#5a688a">19/06 12:43</text><text x="938" y="308" text-anchor="end" font-size="11" fill="#5a688a">27/06 04:30</text></svg>