<svg xmlns="http://www.w3.org/2000/svg" viewBox="0 0 960 320" width="960" height="320" font-family="Segoe UI, system-ui, -apple-system, Roboto, Helvetica, Arial, sans-serif" role="img" aria-label="Availability history per region"><rect x="0.5" y="0.5" width="959" height="319" rx="14" fill="#0d1117" stroke="#2c3a5e"/><text x="42" y="26" font-size="14" font-weight="600" fill="#e6ecff">History · 139 points</text><circle cx="47" cy="40" r="5" fill="#22c55e"/><text x="57" y="44" font-size="12" fill="#9fb0d4">Available</text><circle cx="139.8" cy="40" r="5" fill="#f59e0b"/><text x="149.8" y="44" font-size="12" fill="#9fb0d4">Saturated</text><circle cx="232.60000000000002" cy="40" r="5" fill="#ef4444"/><text x="242.60000000000002" y="44" font-size="12" fill="#9fb0d4">Error</text><circle cx="296.6" cy="40" r="5" fill="#a855f7"/><text x="306.6" y="44" font-size="12" fill="#9fb0d4">Timeout</text><line x1="42" y1="286.0" x2="938" y2="286.0" stroke="#21304f" stroke-width="1"/><text x="35" y="289.0" text-anchor="end" font-size="11" fill="#9fb0d4">0</text><line x1="42" y1="227.5" x2="938" y2="227.5" stroke="#21304f" stroke-width="1"/><text x="35" y="230.5" text-anchor="end" font-size="11" fill="#9fb0d4">10</text><line x1="42" y1="169.0" x2="938" y2="169.0" stroke="#21304f" stroke-width="1"/><text x="35" y="172.0" text-anchor="end" font-size="11" fill="#9fb0d4">19</text><line x1="42" y1="110.5" x2="938" y2="110.5" stroke="#21304f" stroke-width="1"/><text x="35" y="113.5" text-anchor="end" font-size="11" fill="#9fb0d4">28</text><line x1="42" y1="52.0" x2="938" y2="52.0" stroke="#21304f" stroke-width="1"/><text x="35" y="55.0" text-anchor="end" font-size="11" fill="#9fb0d4">38</text><polyline fill="none" stroke="#22c55e" stroke-width="2.5" stroke-linejoin="round" stroke-linecap="round" points="42.0,64.3 48.5,224.4 55.0,82.8 61.5,88.9 68.0,82.8 74.5,76.6 81.0,76.6 87.4,76.6 93.9,76.6 100.4,76.6 106.9,76.6 113.4,76.6 119.9,76.6 126.4,76.6 132.9,76.6 139.4,70.5 145.9,70.5 152.4,82.8 158.9,82.8 165.4,82.8 171.9,88.9 178.3,88.9 184.8,88.9 191.3,88.9 197.8,88.9 204.3,88.9 210.8,88.9 217.3,88.9 223.8,88.9 230.3,82.8 236.8,82.8 243.3,82.8 249.8,82.8 256.3,76.6 262.8,76.6 269.2,76.6 275.7,76.6 282.2,76.6 288.7,82.8 295.2,82.8 301.7,82.8 308.2,82.8 314.7,76.6 321.2,76.6 327.7,76.6 334.2,76.6 340.7,76.6 347.2,76.6 353.7,76.6 360.1,82.8 366.6,82.8 373.1,82.8 379.6,82.8 386.1,76.6 392.6,76.6 399.1,76.6 405.6,76.6 412.1,76.6 418.6,76.6 425.1,76.6 431.6,76.6 438.1,82.8 444.6,76.6 451.0,76.6 457.5,76.6 464.0,76.6 470.5,76.6 477.0,82.8 483.5,76.6 490.0,76.6 496.5,76.6 503.0,76.6 509.5,76.6 516.0,76.6 522.5,76.6 529.0,76.6 535.4,76.6 541.9,70.5 548.4,70.5 554.9,70.5 561.4,70.5 567.9,76.6 574.4,70.5 580.9,76.6 587.4,76.6 593.9,76.6 600.4,76.6 606.9,76.6 613.4,76.6 619.9,82.8 626.3,88.9 632.8,88.9 639.3,88.9 645.8,88.9 652.3,88.9 658.8,88.9 665.3,88.9 671.8,95.1 678.3,88.9 684.8,88.9 691.3,88.9 697.8,88.9 704.3,88.9 710.8,88.9 717.2,82.8 723.7,82.8 730.2,82.8 736.7,82.8 743.2,82.8 749.7,82.8 756.2,82.8 762.7,82.8 769.2,88.9 775.7,88.9 782.2,88.9 788.7,88.9 795.2,88.9 801.7,88.9 808.1,88.9 814.6,88.9 821.1,95.1 827.6,88.9 834.1,88.9 840.6,88.9 847.1,101.3 853.6,88.9 860.1,88.9 866.6,88.9 873.1,88.9 879.6,82.8 886.1,82.8 892.6,82.8 899.0,82.8 905.5,88.9 912.0,82.8 918.5,88.9 925.0,88.9 931.5,88.9 938.0,88.9"/><polyline fill="none" stroke="#f59e0b" stroke-width="2.5" stroke-linejoin="round" stroke-linecap="round" points="42.0,273.7 48.5,267.5 55.0,255.2 61.5,249.1 68.0,255.2 74.5,261.4 81.0,261.4 87.4,261.4 93.9,261.4 100.4,261.4 106.9,261.4 113.4,261.4 119.9,261.4 126.4,261.4 132.9,261.4 139.4,267.5 145.9,267.5 152.4,261.4 158.9,255.2 165.4,255.2 171.9,249.1 178.3,249.1 184.8,249.1 191.3,249.1 197.8,249.1 204.3,249.1 210.8,249.1 217.3,249.1 223.8,249.1 230.3,255.2 236.8,255.2 243.3,255.2 249.8,255.2 256.3,261.4 262.8,261.4 269.2,261.4 275.7,261.4 282.2,261.4 288.7,255.2 295.2,255.2 301.7,255.2 308.2,255.2 314.7,261.4 321.2,261.4 327.7,261.4 334.2,261.4 340.7,261.4 347.2,261.4 353.7,261.4 360.1,255.2 366.6,255.2 373.1,255.2 379.6,261.4 386.1,261.4 392.6,261.4 399.1,261.4 405.6,261.4 412.1,261.4 418.6,261.4 425.1,261.4 431.6,261.4 438.1,255.2 444.6,261.4 451.0,261.4 457.5,261.4 464.0,261.4 470.5,261.4 477.0,261.4 483.5,261.4 490.0,261.4 496.5,261.4 503.0,261.4 509.5,261.4 516.0,261.4 522.5,261.4 529.0,261.4 535.4,261.4 541.9,267.5 548.4,267.5 554.9,267.5 561.4,267.5 567.9,267.5 574.4,267.5 580.9,261.4 587.4,261.4 593.9,261.4 600.4,261.4 606.9,261.4 613.4,261.4 619.9,255.2 626.3,249.1 632.8,249.1 639.3,255.2 645.8,249.1 652.3,249.1 658.8,249.1 665.3,249.1 671.8,249.1 678.3,249.1 684.8,255.2 691.3,249.1 697.8,249.1 704.3,249.1 710.8,249.1 717.2,255.2 723.7,255.2 730.2,255.2 736.7,255.2 743.2,255.2 749.7,255.2 756.2,255.2 762.7,255.2 769.2,249.1 775.7,249.1 782.2,249.1 788.7,249.1 795.2,249.1 801.7,249.1 808.1,249.1 814.6,255.2 821.1,249.1 827.6,249.1 834.1,249.1 840.6,249.1 847.1,249.1 853.6,249.1 860.1,249.1 866.6,255.2 873.1,255.2 879.6,255.2 886.1,255.2 892.6,255.2 899.0,255.2 905.5,255.2 912.0,255.2 918.5,249.1 925.0,249.1 931.5,249.1 938.0,249.1"/><polyline fill="none" stroke="#ef4444" stroke-width="2.5" stroke-linejoin="round" stroke-linecap="round" points="42.0,286.0 48.5,132.1 55.0,286.0 61.5,286.0 68.0,286.0 74.5,286.0 81.0,286.0 87.4,286.0 93.9,286.0 100.4,286.0 106.9,286.0 113.4,286.0 119.9,286.0 126.4,286.0 132.9,286.0 139.4,286.0 145.9,286.0 152.4,279.8 158.9,286.0 165.4,286.0 171.9,286.0 178.3,286.0 184.8,286.0 191.3,286.0 197.8,286.0 204.3,286.0 210.8,286.0 217.3,286.0 223.8,286.0 230.3,286.0 236.8,286.0 243.3,286.0 249.8,286.0 256.3,286.0 262.8,286.0 269.2,286.0 275.7,286.0 282.2,286.0 288.7,286.0 295.2,286.0 301.7,286.0 308.2,286.0 314.7,286.0 321.2,286.0 327.7,286.0 334.2,286.0 340.7,286.0 347.2,286.0 353.7,286.0 360.1,286.0 366.6,286.0 373.1,286.0 379.6,286.0 386.1,286.0 392.6,286.0 399.1,286.0 405.6,286.0 412.1,286.0 418.6,286.0 425.1,286.0 431.6,286.0 438.1,286.0 444.6,286.0 451.0,286.0 457.5,286.0 464.0,286.0 470.5,286.0 477.0,279.8 483.5,286.0 490.0,286.0 496.5,286.0 503.0,286.0 509.5,286.0 516.0,286.0 522.5,286.0 529.0,286.0 535.4,286.0 541.9,286.0 548.4,286.0 554.9,286.0 561.4,286.0 567.9,279.8 574.4,286.0 580.9,286.0 587.4,286.0 593.9,286.0 600.4,286.0 606.9,286.0 613.4,286.0 619.9,286.0 626.3,286.0 632.8,286.0 639.3,279.8 645.8,286.0 652.3,286.0 658.8,286.0 665.3,286.0 671.8,279.8 678.3,286.0 684.8,286.0 691.3,286.0 697.8,286.0 704.3,286.0 710.8,286.0 717.2,286.0 723.7,286.0 730.2,286.0 736.7,286.0 743.2,286.0 749.7,286.0 756.2,286.0 762.7,286.0 769.2,286.0 775.7,286.0 782.2,286.0 788.7,286.0 795.2,286.0 801.7,286.0 808.1,286.0 814.6,286.0 821.1,279.8 827.6,286.0 834.1,286.0 840.6,286.0 847.1,273.7 853.6,286.0 860.1,286.0 866.6,279.8 873.1,279.8 879.6,286.0 886.1,286.0 892.6,286.0 899.0,286.0 905.5,279.8 912.0,286.0 918.5,286.0 925.0,286.0 931.5,286.0 938.0,286.0"/><polyline fill="none" stroke="#a855f7" stroke-width="2.5" stroke-linejoin="round" stroke-linecap="round" points="42.0,286.0 48.5,286.0 55.0,286.0 61.5,286.0 68.0,286.0 74.5,286.0 81.0,286.0 87.4,286.0 93.9,286.0 100.4,286.0 106.9,286.0 113.4,286.0 119.9,286.0 126.4,286.0 132.9,286.0 139.4,286.0 145.9,286.0 152.4,286.0 158.9,286.0 165.4,286.0 171.9,286.0 178.3,286.0 184.8,286.0 191.3,286.0 197.8,286.0 204.3,286.0 210.8,286.0 217.3,286.0 223.8,286.0 230.3,286.0 236.8,286.0 243.3,286.0 249.8,286.0 256.3,286.0 262.8,286.0 269.2,286.0 275.7,286.0 282.2,286.0 288.7,286.0 295.2,286.0 301.7,286.0 308.2,286.0 314.7,286.0 321.2,286.0 327.7,286.0 334.2,286.0 340.7,286.0 347.2,286.0 353.7,286.0 360.1,286.0 366.6,286.0 373.1,286.0 379.6,279.8 386.1,286.0 392.6,286.0 399.1,286.0 405.6,286.0 412.1,286.0 418.6,286.0 425.1,286.0 431.6,286.0 438.1,286.0 444.6,286.0 451.0,286.0 457.5,286.0 464.0,286.0 470.5,286.0 477.0,286.0 483.5,286.0 490.0,286.0 496.5,286.0 503.0,286.0 509.5,286.0 516.0,286.0 522.5,286.0 529.0,286.0 535.4,286.0 541.9,286.0 548.4,286.0 554.9,286.0 561.4,286.0 567.9,286.0 574.4,286.0 580.9,286.0 587.4,286.0 593.9,286.0 600.4,286.0 606.9,286.0 613.4,286.0 619.9,286.0 626.3,286.0 632.8,286.0 639.3,286.0 645.8,286.0 652.3,286.0 658.8,286.0 665.3,286.0 671.8,286.0 678.3,286.0 684.8,279.8 691.3,286.0 697.8,286.0 704.3,286.0 710.8,286.0 717.2,286.0 723.7,286.0 730.2,286.0 736.7,286.0 743.2,286.0 749.7,286.0 756.2,286.0 762.7,286.0 769.2,286.0 775.7,286.0 782.2,286.0 788.7,286.0 795.2,286.0 801.7,286.0 808.1,286.0 814.6,279.8 821.1,286.0 827.6,286.0 834.1,286.0 840.6,286.0 847.1,286.0 853.6,286.0 860.1,286.0 866.6,286.0 873.1,286.0 879.6,286.0 886.1,286.0 892.6,286.0 899.0,286.0 905.5,286.0 912.0,286.0 918.5,286.0 925.0,286.0 931.5,286.0 938.0,286.0"/><text x="42" y="308" font-size="11" fill="#9fb0d4">19/06 15:39</text><text x="938" y="308" text-anchor="end" font-size="11" fill="#9fb0d4">22/07 09:30</text></svg>