<svg xmlns="http://www.w3.org/2000/svg" viewBox="0 0 960 320" width="960" height="320" font-family="Segoe UI, system-ui, -apple-system, Roboto, Helvetica, Arial, sans-serif" role="img" aria-label="Availability history per region"><rect x="0.5" y="0.5" width="959" height="319" rx="14" fill="#ffffff" stroke="#dce3f1"/><text x="42" y="26" font-size="14" font-weight="600" fill="#14203a">History · 316 points</text><circle cx="47" cy="40" r="5" fill="#22c55e"/><text x="57" y="44" font-size="12" fill="#5a688a">Available</text><circle cx="139.8" cy="40" r="5" fill="#f59e0b"/><text x="149.8" y="44" font-size="12" fill="#5a688a">Saturated</text><circle cx="232.60000000000002" cy="40" r="5" fill="#ef4444"/><text x="242.60000000000002" y="44" font-size="12" fill="#5a688a">Error</text><circle cx="296.6" cy="40" r="5" fill="#a855f7"/><text x="306.6" y="44" font-size="12" fill="#5a688a">Timeout</text><line x1="42" y1="286.0" x2="938" y2="286.0" stroke="#eef2f7" stroke-width="1"/><text x="35" y="289.0" text-anchor="end" font-size="11" fill="#5a688a">0</text><line x1="42" y1="227.5" x2="938" y2="227.5" stroke="#eef2f7" stroke-width="1"/><text x="35" y="230.5" text-anchor="end" font-size="11" fill="#5a688a">10</text><line x1="42" y1="169.0" x2="938" y2="169.0" stroke="#eef2f7" stroke-width="1"/><text x="35" y="172.0" text-anchor="end" font-size="11" fill="#5a688a">20</text><line x1="42" y1="110.5" x2="938" y2="110.5" stroke="#eef2f7" stroke-width="1"/><text x="35" y="113.5" text-anchor="end" font-size="11" fill="#5a688a">29</text><line x1="42" y1="52.0" x2="938" y2="52.0" stroke="#eef2f7" stroke-width="1"/><text x="35" y="55.0" text-anchor="end" font-size="11" fill="#5a688a">39</text><polyline fill="none" stroke="#22c55e" stroke-width="2.5" stroke-linejoin="round" stroke-linecap="round" points="42.0,70.0 44.8,70.0 47.7,88.0 50.5,88.0 53.4,76.0 56.2,76.0 59.1,76.0 61.9,70.0 64.8,76.0 67.6,70.0 70.4,64.0 73.3,58.0 76.1,58.0 79.0,58.0 81.8,58.0 84.7,58.0 87.5,58.0 90.4,58.0 93.2,58.0 96.0,58.0 98.9,58.0 101.7,58.0 104.6,58.0 107.4,58.0 110.3,58.0 113.1,58.0 116.0,58.0 118.8,58.0 121.6,58.0 124.5,58.0 127.3,58.0 130.2,70.0 133.0,76.0 135.9,94.0 138.7,64.0 141.6,64.0 144.4,58.0 147.2,58.0 150.1,58.0 152.9,70.0 155.8,76.0 158.6,76.0 161.5,82.0 164.3,82.0 167.2,82.0 170.0,82.0 172.8,76.0 175.7,64.0 178.5,70.0 181.4,70.0 184.2,82.0 187.1,76.0 189.9,76.0 192.8,82.0 195.6,76.0 198.4,76.0 201.3,76.0 204.1,64.0 207.0,64.0 209.8,76.0 212.7,76.0 215.5,76.0 218.4,88.0 221.2,70.0 224.0,64.0 226.9,58.0 229.7,58.0 232.6,70.0 235.4,70.0 238.3,70.0 241.1,76.0 244.0,70.0 246.8,70.0 249.6,70.0 252.5,70.0 255.3,76.0 258.2,82.0 261.0,76.0 263.9,70.0 266.7,70.0 269.6,70.0 272.4,70.0 275.2,76.0 278.1,70.0 280.9,70.0 283.8,70.0 286.6,70.0 289.5,70.0 292.3,70.0 295.2,70.0 298.0,70.0 300.8,70.0 303.7,70.0 306.5,70.0 309.4,70.0 312.2,70.0 315.1,70.0 317.9,70.0 320.8,70.0 323.6,70.0 326.4,70.0 329.3,70.0 332.1,70.0 335.0,70.0 337.8,70.0 340.7,70.0 343.5,70.0 346.4,70.0 349.2,70.0 352.0,70.0 354.9,70.0 357.7,70.0 360.6,70.0 363.4,70.0 366.3,70.0 369.1,70.0 372.0,70.0 374.8,70.0 377.6,70.0 380.5,70.0 383.3,70.0 386.2,70.0 389.0,70.0 391.9,70.0 394.7,70.0 397.6,70.0 400.4,70.0 403.2,70.0 406.1,70.0 408.9,70.0 411.8,70.0 414.6,70.0 417.5,70.0 420.3,70.0 423.2,70.0 426.0,70.0 428.8,70.0 431.7,70.0 434.5,70.0 437.4,70.0 440.2,70.0 443.1,70.0 445.9,70.0 448.8,70.0 451.6,70.0 454.4,70.0 457.3,70.0 460.1,70.0 463.0,70.0 465.8,70.0 468.7,70.0 471.5,76.0 474.4,70.0 477.2,70.0 480.0,70.0 482.9,70.0 485.7,70.0 488.6,76.0 491.4,76.0 494.3,88.0 497.1,88.0 500.0,88.0 502.8,94.0 505.6,94.0 508.5,94.0 511.3,94.0 514.2,88.0 517.0,88.0 519.9,82.0 522.7,82.0 525.6,82.0 528.4,88.0 531.2,88.0 534.1,94.0 536.9,82.0 539.8,82.0 542.6,82.0 545.5,82.0 548.3,88.0 551.2,88.0 554.0,94.0 556.8,94.0 559.7,88.0 562.5,88.0 565.4,88.0 568.2,94.0 571.1,94.0 573.9,106.0 576.8,94.0 579.6,94.0 582.4,94.0 585.3,94.0 588.1,88.0 591.0,88.0 593.8,82.0 596.7,76.0 599.5,76.0 602.4,76.0 605.2,76.0 608.0,76.0 610.9,76.0 613.7,70.0 616.6,70.0 619.4,70.0 622.3,76.0 625.1,88.0 628.0,82.0 630.8,70.0 633.6,70.0 636.5,70.0 639.3,76.0 642.2,76.0 645.0,76.0 647.9,82.0 650.7,70.0 653.6,76.0 656.4,64.0 659.2,70.0 662.1,58.0 664.9,58.0 667.8,58.0 670.6,58.0 673.5,58.0 676.3,64.0 679.2,58.0 682.0,64.0 684.8,58.0 687.7,58.0 690.5,58.0 693.4,58.0 696.2,64.0 699.1,64.0 701.9,64.0 704.8,76.0 707.6,70.0 710.4,82.0 713.3,70.0 716.1,76.0 719.0,58.0 721.8,64.0 724.7,58.0 727.5,64.0 730.4,58.0 733.2,58.0 736.0,58.0 738.9,64.0 741.7,70.0 744.6,64.0 747.4,64.0 750.3,64.0 753.1,70.0 756.0,70.0 758.8,64.0 761.6,70.0 764.5,70.0 767.3,70.0 770.2,58.0 773.0,58.0 775.9,58.0 778.7,58.0 781.6,58.0 784.4,64.0 787.2,58.0 790.1,58.0 792.9,58.0 795.8,58.0 798.6,58.0 801.5,58.0 804.3,58.0 807.2,58.0 810.0,64.0 812.8,58.0 815.7,58.0 818.5,58.0 821.4,58.0 824.2,58.0 827.1,58.0 829.9,58.0 832.8,64.0 835.6,58.0 838.4,58.0 841.3,58.0 844.1,58.0 847.0,58.0 849.8,58.0 852.7,58.0 855.5,58.0 858.4,58.0 861.2,58.0 864.0,58.0 866.9,58.0 869.7,58.0 872.6,58.0 875.4,58.0 878.3,58.0 881.1,58.0 884.0,58.0 886.8,58.0 889.6,64.0 892.5,64.0 895.3,58.0 898.2,58.0 901.0,58.0 903.9,64.0 906.7,64.0 909.6,76.0 912.4,64.0 915.2,64.0 918.1,70.0 920.9,58.0 923.8,58.0 926.6,58.0 929.5,58.0 932.3,58.0 935.2,58.0 938.0,70.0"/><polyline fill="none" stroke="#f59e0b" stroke-width="2.5" stroke-linejoin="round" stroke-linecap="round" points="42.0,274.0 44.8,274.0 47.7,274.0 50.5,280.0 53.4,268.0 56.2,268.0 59.1,268.0 61.9,274.0 64.8,274.0 67.6,274.0 70.4,280.0 73.3,286.0 76.1,286.0 79.0,286.0 81.8,286.0 84.7,286.0 87.5,286.0 90.4,286.0 93.2,286.0 96.0,286.0 98.9,286.0 101.7,286.0 104.6,286.0 107.4,286.0 110.3,286.0 113.1,286.0 116.0,286.0 118.8,286.0 121.6,286.0 124.5,286.0 127.3,286.0 130.2,274.0 133.0,280.0 135.9,280.0 138.7,280.0 141.6,280.0 144.4,286.0 147.2,286.0 150.1,286.0 152.9,274.0 155.8,268.0 158.6,268.0 161.5,262.0 164.3,262.0 167.2,262.0 170.0,262.0 172.8,268.0 175.7,280.0 178.5,280.0 181.4,274.0 184.2,262.0 187.1,268.0 189.9,268.0 192.8,262.0 195.6,268.0 198.4,268.0 201.3,268.0 204.1,280.0 207.0,280.0 209.8,268.0 212.7,268.0 215.5,268.0 218.4,262.0 221.2,274.0 224.0,280.0 226.9,286.0 229.7,286.0 232.6,274.0 235.4,274.0 238.3,274.0 241.1,274.0 244.0,274.0 246.8,274.0 249.6,274.0 252.5,274.0 255.3,280.0 258.2,274.0 261.0,280.0 263.9,286.0 266.7,286.0 269.6,286.0 272.4,286.0 275.2,280.0 278.1,286.0 280.9,286.0 283.8,286.0 286.6,286.0 289.5,286.0 292.3,286.0 295.2,286.0 298.0,286.0 300.8,286.0 303.7,286.0 306.5,286.0 309.4,286.0 312.2,286.0 315.1,286.0 317.9,286.0 320.8,286.0 323.6,286.0 326.4,286.0 329.3,286.0 332.1,286.0 335.0,286.0 337.8,286.0 340.7,286.0 343.5,286.0 346.4,286.0 349.2,286.0 352.0,286.0 354.9,286.0 357.7,286.0 360.6,286.0 363.4,286.0 366.3,286.0 369.1,286.0 372.0,286.0 374.8,286.0 377.6,286.0 380.5,286.0 383.3,286.0 386.2,286.0 389.0,286.0 391.9,286.0 394.7,286.0 397.6,286.0 400.4,286.0 403.2,286.0 406.1,286.0 408.9,286.0 411.8,286.0 414.6,286.0 417.5,286.0 420.3,286.0 423.2,286.0 426.0,286.0 428.8,286.0 431.7,286.0 434.5,286.0 437.4,286.0 440.2,286.0 443.1,286.0 445.9,286.0 448.8,286.0 451.6,286.0 454.4,286.0 457.3,286.0 460.1,286.0 463.0,286.0 465.8,286.0 468.7,286.0 471.5,286.0 474.4,286.0 477.2,286.0 480.0,286.0 482.9,286.0 485.7,286.0 488.6,286.0 491.4,280.0 494.3,268.0 497.1,268.0 500.0,268.0 502.8,268.0 505.6,262.0 508.5,262.0 511.3,262.0 514.2,268.0 517.0,268.0 519.9,274.0 522.7,274.0 525.6,274.0 528.4,268.0 531.2,268.0 534.1,268.0 536.9,274.0 539.8,274.0 542.6,274.0 545.5,274.0 548.3,268.0 551.2,268.0 554.0,262.0 556.8,262.0 559.7,268.0 562.5,268.0 565.4,268.0 568.2,262.0 571.1,262.0 573.9,274.0 576.8,262.0 579.6,262.0 582.4,262.0 585.3,262.0 588.1,268.0 591.0,268.0 593.8,274.0 596.7,280.0 599.5,280.0 602.4,280.0 605.2,280.0 608.0,280.0 610.9,280.0 613.7,286.0 616.6,286.0 619.4,286.0 622.3,280.0 625.1,274.0 628.0,274.0 630.8,280.0 633.6,274.0 636.5,274.0 639.3,268.0 642.2,268.0 645.0,268.0 647.9,268.0 650.7,280.0 653.6,274.0 656.4,280.0 659.2,280.0 662.1,286.0 664.9,286.0 667.8,286.0 670.6,286.0 673.5,286.0 676.3,286.0 679.2,286.0 682.0,286.0 684.8,286.0 687.7,286.0 690.5,286.0 693.4,286.0 696.2,280.0 699.1,280.0 701.9,280.0 704.8,268.0 707.6,280.0 710.4,268.0 713.3,274.0 716.1,274.0 719.0,286.0 721.8,280.0 724.7,286.0 727.5,280.0 730.4,286.0 733.2,286.0 736.0,286.0 738.9,280.0 741.7,274.0 744.6,280.0 747.4,280.0 750.3,280.0 753.1,274.0 756.0,274.0 758.8,280.0 761.6,280.0 764.5,280.0 767.3,280.0 770.2,286.0 773.0,286.0 775.9,286.0 778.7,286.0 781.6,286.0 784.4,286.0 787.2,286.0 790.1,286.0 792.9,286.0 795.8,286.0 798.6,286.0 801.5,286.0 804.3,286.0 807.2,286.0 810.0,286.0 812.8,286.0 815.7,286.0 818.5,286.0 821.4,286.0 824.2,286.0 827.1,286.0 829.9,286.0 832.8,286.0 835.6,286.0 838.4,286.0 841.3,286.0 844.1,286.0 847.0,286.0 849.8,286.0 852.7,286.0 855.5,286.0 858.4,286.0 861.2,286.0 864.0,286.0 866.9,286.0 869.7,286.0 872.6,286.0 875.4,286.0 878.3,286.0 881.1,286.0 884.0,286.0 886.8,286.0 889.6,286.0 892.5,286.0 895.3,286.0 898.2,286.0 901.0,286.0 903.9,280.0 906.7,280.0 909.6,280.0 912.4,280.0 915.2,280.0 918.1,274.0 920.9,286.0 923.8,286.0 926.6,286.0 929.5,286.0 932.3,286.0 935.2,286.0 938.0,286.0"/><polyline fill="none" stroke="#ef4444" stroke-width="2.5" stroke-linejoin="round" stroke-linecap="round" points="42.0,280.0 44.8,280.0 47.7,268.0 50.5,262.0 53.4,286.0 56.2,286.0 59.1,286.0 61.9,286.0 64.8,280.0 67.6,286.0 70.4,286.0 73.3,286.0 76.1,286.0 79.0,286.0 81.8,286.0 84.7,286.0 87.5,286.0 90.4,286.0 93.2,286.0 96.0,286.0 98.9,286.0 101.7,286.0 104.6,286.0 107.4,286.0 110.3,286.0 113.1,286.0 116.0,286.0 118.8,286.0 121.6,286.0 124.5,286.0 127.3,286.0 130.2,286.0 133.0,274.0 135.9,256.0 138.7,286.0 141.6,286.0 144.4,286.0 147.2,286.0 150.1,286.0 152.9,286.0 155.8,286.0 158.6,286.0 161.5,286.0 164.3,286.0 167.2,286.0 170.0,286.0 172.8,286.0 175.7,286.0 178.5,280.0 181.4,286.0 184.2,286.0 187.1,286.0 189.9,286.0 192.8,286.0 195.6,286.0 198.4,286.0 201.3,286.0 204.1,286.0 207.0,286.0 209.8,286.0 212.7,286.0 215.5,286.0 218.4,280.0 221.2,286.0 224.0,286.0 226.9,286.0 229.7,286.0 232.6,286.0 235.4,286.0 238.3,286.0 241.1,286.0 244.0,286.0 246.8,286.0 249.6,286.0 252.5,286.0 255.3,274.0 258.2,274.0 261.0,274.0 263.9,274.0 266.7,274.0 269.6,274.0 272.4,274.0 275.2,274.0 278.1,274.0 280.9,274.0 283.8,274.0 286.6,274.0 289.5,274.0 292.3,274.0 295.2,274.0 298.0,274.0 300.8,274.0 303.7,274.0 306.5,274.0 309.4,274.0 312.2,274.0 315.1,274.0 317.9,274.0 320.8,274.0 323.6,274.0 326.4,274.0 329.3,274.0 332.1,274.0 335.0,274.0 337.8,274.0 340.7,274.0 343.5,274.0 346.4,274.0 349.2,274.0 352.0,274.0 354.9,274.0 357.7,274.0 360.6,274.0 363.4,274.0 366.3,274.0 369.1,274.0 372.0,274.0 374.8,274.0 377.6,274.0 380.5,274.0 383.3,274.0 386.2,274.0 389.0,274.0 391.9,274.0 394.7,274.0 397.6,274.0 400.4,274.0 403.2,274.0 406.1,274.0 408.9,274.0 411.8,274.0 414.6,274.0 417.5,274.0 420.3,274.0 423.2,274.0 426.0,274.0 428.8,274.0 431.7,274.0 434.5,274.0 437.4,274.0 440.2,274.0 443.1,274.0 445.9,274.0 448.8,274.0 451.6,274.0 454.4,274.0 457.3,274.0 460.1,274.0 463.0,274.0 465.8,274.0 468.7,274.0 471.5,268.0 474.4,274.0 477.2,274.0 480.0,274.0 482.9,274.0 485.7,274.0 488.6,274.0 491.4,274.0 494.3,274.0 497.1,274.0 500.0,274.0 502.8,268.0 505.6,274.0 508.5,274.0 511.3,274.0 514.2,274.0 517.0,274.0 519.9,274.0 522.7,274.0 525.6,274.0 528.4,274.0 531.2,274.0 534.1,268.0 536.9,274.0 539.8,274.0 542.6,274.0 545.5,274.0 548.3,274.0 551.2,274.0 554.0,274.0 556.8,274.0 559.7,274.0 562.5,274.0 565.4,274.0 568.2,274.0 571.1,274.0 573.9,250.0 576.8,274.0 579.6,274.0 582.4,274.0 585.3,274.0 588.1,274.0 591.0,274.0 593.8,274.0 596.7,274.0 599.5,274.0 602.4,274.0 605.2,274.0 608.0,274.0 610.9,274.0 613.7,274.0 616.6,274.0 619.4,274.0 622.3,274.0 625.1,268.0 628.0,274.0 630.8,280.0 633.6,286.0 636.5,286.0 639.3,286.0 642.2,286.0 645.0,286.0 647.9,280.0 650.7,280.0 653.6,286.0 656.4,286.0 659.2,280.0 662.1,286.0 664.9,286.0 667.8,286.0 670.6,286.0 673.5,286.0 676.3,280.0 679.2,286.0 682.0,286.0 684.8,286.0 687.7,286.0 690.5,286.0 693.4,286.0 696.2,286.0 699.1,286.0 701.9,286.0 704.8,286.0 707.6,280.0 710.4,280.0 713.3,286.0 716.1,280.0 719.0,286.0 721.8,286.0 724.7,286.0 727.5,286.0 730.4,286.0 733.2,286.0 736.0,286.0 738.9,286.0 741.7,286.0 744.6,286.0 747.4,286.0 750.3,286.0 753.1,286.0 756.0,286.0 758.8,286.0 761.6,280.0 764.5,286.0 767.3,280.0 770.2,286.0 773.0,286.0 775.9,286.0 778.7,286.0 781.6,286.0 784.4,286.0 787.2,286.0 790.1,286.0 792.9,286.0 795.8,286.0 798.6,286.0 801.5,286.0 804.3,286.0 807.2,286.0 810.0,280.0 812.8,286.0 815.7,286.0 818.5,286.0 821.4,286.0 824.2,286.0 827.1,286.0 829.9,286.0 832.8,286.0 835.6,286.0 838.4,286.0 841.3,286.0 844.1,286.0 847.0,286.0 849.8,286.0 852.7,286.0 855.5,286.0 858.4,286.0 861.2,286.0 864.0,286.0 866.9,286.0 869.7,286.0 872.6,286.0 875.4,286.0 878.3,286.0 881.1,286.0 884.0,286.0 886.8,286.0 889.6,280.0 892.5,280.0 895.3,286.0 898.2,286.0 901.0,286.0 903.9,286.0 906.7,286.0 909.6,274.0 912.4,286.0 915.2,286.0 918.1,286.0 920.9,286.0 923.8,286.0 926.6,286.0 929.5,286.0 932.3,286.0 935.2,286.0 938.0,286.0"/><polyline fill="none" stroke="#a855f7" stroke-width="2.5" stroke-linejoin="round" stroke-linecap="round" points="42.0,286.0 44.8,286.0 47.7,286.0 50.5,286.0 53.4,286.0 56.2,286.0 59.1,286.0 61.9,286.0 64.8,286.0 67.6,286.0 70.4,286.0 73.3,286.0 76.1,286.0 79.0,286.0 81.8,286.0 84.7,286.0 87.5,286.0 90.4,286.0 93.2,286.0 96.0,286.0 98.9,286.0 101.7,286.0 104.6,286.0 107.4,286.0 110.3,286.0 113.1,286.0 116.0,286.0 118.8,286.0 121.6,286.0 124.5,286.0 127.3,286.0 130.2,286.0 133.0,286.0 135.9,286.0 138.7,286.0 141.6,286.0 144.4,286.0 147.2,286.0 150.1,286.0 152.9,286.0 155.8,286.0 158.6,286.0 161.5,286.0 164.3,286.0 167.2,286.0 170.0,286.0 172.8,286.0 175.7,286.0 178.5,286.0 181.4,286.0 184.2,286.0 187.1,286.0 189.9,286.0 192.8,286.0 195.6,286.0 198.4,286.0 201.3,286.0 204.1,286.0 207.0,286.0 209.8,286.0 212.7,286.0 215.5,286.0 218.4,286.0 221.2,286.0 224.0,286.0 226.9,286.0 229.7,286.0 232.6,286.0 235.4,286.0 238.3,286.0 241.1,280.0 244.0,286.0 246.8,286.0 249.6,286.0 252.5,286.0 255.3,286.0 258.2,286.0 261.0,286.0 263.9,286.0 266.7,286.0 269.6,286.0 272.4,286.0 275.2,286.0 278.1,286.0 280.9,286.0 283.8,286.0 286.6,286.0 289.5,286.0 292.3,286.0 295.2,286.0 298.0,286.0 300.8,286.0 303.7,286.0 306.5,286.0 309.4,286.0 312.2,286.0 315.1,286.0 317.9,286.0 320.8,286.0 323.6,286.0 326.4,286.0 329.3,286.0 332.1,286.0 335.0,286.0 337.8,286.0 340.7,286.0 343.5,286.0 346.4,286.0 349.2,286.0 352.0,286.0 354.9,286.0 357.7,286.0 360.6,286.0 363.4,286.0 366.3,286.0 369.1,286.0 372.0,286.0 374.8,286.0 377.6,286.0 380.5,286.0 383.3,286.0 386.2,286.0 389.0,286.0 391.9,286.0 394.7,286.0 397.6,286.0 400.4,286.0 403.2,286.0 406.1,286.0 408.9,286.0 411.8,286.0 414.6,286.0 417.5,286.0 420.3,286.0 423.2,286.0 426.0,286.0 428.8,286.0 431.7,286.0 434.5,286.0 437.4,286.0 440.2,286.0 443.1,286.0 445.9,286.0 448.8,286.0 451.6,286.0 454.4,286.0 457.3,286.0 460.1,286.0 463.0,286.0 465.8,286.0 468.7,286.0 471.5,286.0 474.4,286.0 477.2,286.0 480.0,286.0 482.9,286.0 485.7,286.0 488.6,280.0 491.4,286.0 494.3,286.0 497.1,286.0 500.0,286.0 502.8,286.0 505.6,286.0 508.5,286.0 511.3,286.0 514.2,286.0 517.0,286.0 519.9,286.0 522.7,286.0 525.6,286.0 528.4,286.0 531.2,286.0 534.1,286.0 536.9,286.0 539.8,286.0 542.6,286.0 545.5,286.0 548.3,286.0 551.2,286.0 554.0,286.0 556.8,286.0 559.7,286.0 562.5,286.0 565.4,286.0 568.2,286.0 571.1,286.0 573.9,286.0 576.8,286.0 579.6,286.0 582.4,286.0 585.3,286.0 588.1,286.0 591.0,286.0 593.8,286.0 596.7,286.0 599.5,286.0 602.4,286.0 605.2,286.0 608.0,286.0 610.9,286.0 613.7,286.0 616.6,286.0 619.4,286.0 622.3,286.0 625.1,286.0 628.0,286.0 630.8,286.0 633.6,286.0 636.5,286.0 639.3,286.0 642.2,286.0 645.0,286.0 647.9,286.0 650.7,286.0 653.6,280.0 656.4,286.0 659.2,286.0 662.1,286.0 664.9,286.0 667.8,286.0 670.6,286.0 673.5,286.0 676.3,286.0 679.2,286.0 682.0,280.0 684.8,286.0 687.7,286.0 690.5,286.0 693.4,286.0 696.2,286.0 699.1,286.0 701.9,286.0 704.8,286.0 707.6,286.0 710.4,286.0 713.3,286.0 716.1,286.0 719.0,286.0 721.8,286.0 724.7,286.0 727.5,286.0 730.4,286.0 733.2,286.0 736.0,286.0 738.9,286.0 741.7,286.0 744.6,286.0 747.4,286.0 750.3,286.0 753.1,286.0 756.0,286.0 758.8,286.0 761.6,286.0 764.5,280.0 767.3,286.0 770.2,286.0 773.0,286.0 775.9,286.0 778.7,286.0 781.6,286.0 784.4,280.0 787.2,286.0 790.1,286.0 792.9,286.0 795.8,286.0 798.6,286.0 801.5,286.0 804.3,286.0 807.2,286.0 810.0,286.0 812.8,286.0 815.7,286.0 818.5,286.0 821.4,286.0 824.2,286.0 827.1,286.0 829.9,286.0 832.8,280.0 835.6,286.0 838.4,286.0 841.3,286.0 844.1,286.0 847.0,286.0 849.8,286.0 852.7,286.0 855.5,286.0 858.4,286.0 861.2,286.0 864.0,286.0 866.9,286.0 869.7,286.0 872.6,286.0 875.4,286.0 878.3,286.0 881.1,286.0 884.0,286.0 886.8,286.0 889.6,286.0 892.5,286.0 895.3,286.0 898.2,286.0 901.0,286.0 903.9,286.0 906.7,286.0 909.6,286.0 912.4,286.0 915.2,286.0 918.1,286.0 920.9,286.0 923.8,286.0 926.6,286.0 929.5,286.0 932.3,286.0 935.2,286.0 938.0,274.0"/><text x="42" y="308" font-size="11" fill="#5a688a">19/06 12:43</text><text x="938" y="308" text-anchor="end" font-size="11" fill="#5a688a">07/07 01:37</text></svg>