<svg xmlns="http://www.w3.org/2000/svg" viewBox="0 0 960 320" width="960" height="320" font-family="Segoe UI, system-ui, -apple-system, Roboto, Helvetica, Arial, sans-serif" role="img" aria-label="Availability history per region"><rect x="0.5" y="0.5" width="959" height="319" rx="14" fill="#0d1117" stroke="#2c3a5e"/><text x="42" y="26" font-size="14" font-weight="600" fill="#e6ecff">History · 242 points</text><circle cx="47" cy="40" r="5" fill="#22c55e"/><text x="57" y="44" font-size="12" fill="#9fb0d4">Available</text><circle cx="139.8" cy="40" r="5" fill="#f59e0b"/><text x="149.8" y="44" font-size="12" fill="#9fb0d4">Saturated</text><circle cx="232.60000000000002" cy="40" r="5" fill="#ef4444"/><text x="242.60000000000002" y="44" font-size="12" fill="#9fb0d4">Error</text><circle cx="296.6" cy="40" r="5" fill="#a855f7"/><text x="306.6" y="44" font-size="12" fill="#9fb0d4">Timeout</text><line x1="42" y1="286.0" x2="938" y2="286.0" stroke="#21304f" stroke-width="1"/><text x="35" y="289.0" text-anchor="end" font-size="11" fill="#9fb0d4">0</text><line x1="42" y1="227.5" x2="938" y2="227.5" stroke="#21304f" stroke-width="1"/><text x="35" y="230.5" text-anchor="end" font-size="11" fill="#9fb0d4">10</text><line x1="42" y1="169.0" x2="938" y2="169.0" stroke="#21304f" stroke-width="1"/><text x="35" y="172.0" text-anchor="end" font-size="11" fill="#9fb0d4">20</text><line x1="42" y1="110.5" x2="938" y2="110.5" stroke="#21304f" stroke-width="1"/><text x="35" y="113.5" text-anchor="end" font-size="11" fill="#9fb0d4">29</text><line x1="42" y1="52.0" x2="938" y2="52.0" stroke="#21304f" stroke-width="1"/><text x="35" y="55.0" text-anchor="end" font-size="11" fill="#9fb0d4">39</text><polyline fill="none" stroke="#22c55e" stroke-width="2.5" stroke-linejoin="round" stroke-linecap="round" points="42.0,70.0 45.7,70.0 49.4,88.0 53.2,88.0 56.9,76.0 60.6,76.0 64.3,76.0 68.0,70.0 71.7,76.0 75.5,70.0 79.2,64.0 82.9,58.0 86.6,58.0 90.3,58.0 94.0,58.0 97.8,58.0 101.5,58.0 105.2,58.0 108.9,58.0 112.6,58.0 116.4,58.0 120.1,58.0 123.8,58.0 127.5,58.0 131.2,58.0 134.9,58.0 138.7,58.0 142.4,58.0 146.1,58.0 149.8,58.0 153.5,58.0 157.3,70.0 161.0,76.0 164.7,94.0 168.4,64.0 172.1,64.0 175.8,58.0 179.6,58.0 183.3,58.0 187.0,70.0 190.7,76.0 194.4,76.0 198.1,82.0 201.9,82.0 205.6,82.0 209.3,82.0 213.0,76.0 216.7,64.0 220.5,70.0 224.2,70.0 227.9,82.0 231.6,76.0 235.3,76.0 239.0,82.0 242.8,76.0 246.5,76.0 250.2,76.0 253.9,64.0 257.6,64.0 261.4,76.0 265.1,76.0 268.8,76.0 272.5,88.0 276.2,70.0 279.9,64.0 283.7,58.0 287.4,58.0 291.1,70.0 294.8,70.0 298.5,70.0 302.2,76.0 306.0,70.0 309.7,70.0 313.4,70.0 317.1,70.0 320.8,76.0 324.6,82.0 328.3,76.0 332.0,70.0 335.7,70.0 339.4,70.0 343.1,70.0 346.9,76.0 350.6,70.0 354.3,70.0 358.0,70.0 361.7,70.0 365.5,70.0 369.2,70.0 372.9,70.0 376.6,70.0 380.3,70.0 384.0,70.0 387.8,70.0 391.5,70.0 395.2,70.0 398.9,70.0 402.6,70.0 406.3,70.0 410.1,70.0 413.8,70.0 417.5,70.0 421.2,70.0 424.9,70.0 428.7,70.0 432.4,70.0 436.1,70.0 439.8,70.0 443.5,70.0 447.2,70.0 451.0,70.0 454.7,70.0 458.4,70.0 462.1,70.0 465.8,70.0 469.6,70.0 473.3,70.0 477.0,70.0 480.7,70.0 484.4,70.0 488.1,70.0 491.9,70.0 495.6,70.0 499.3,70.0 503.0,70.0 506.7,70.0 510.4,70.0 514.2,70.0 517.9,70.0 521.6,70.0 525.3,70.0 529.0,70.0 532.8,70.0 536.5,70.0 540.2,70.0 543.9,70.0 547.6,70.0 551.3,70.0 555.1,70.0 558.8,70.0 562.5,70.0 566.2,70.0 569.9,70.0 573.7,70.0 577.4,70.0 581.1,70.0 584.8,70.0 588.5,70.0 592.2,70.0 596.0,70.0 599.7,70.0 603.4,76.0 607.1,70.0 610.8,70.0 614.5,70.0 618.3,70.0 622.0,70.0 625.7,76.0 629.4,76.0 633.1,88.0 636.9,88.0 640.6,88.0 644.3,94.0 648.0,94.0 651.7,94.0 655.4,94.0 659.2,88.0 662.9,88.0 666.6,82.0 670.3,82.0 674.0,82.0 677.8,88.0 681.5,88.0 685.2,94.0 688.9,82.0 692.6,82.0 696.3,82.0 700.1,82.0 703.8,88.0 707.5,88.0 711.2,94.0 714.9,94.0 718.6,88.0 722.4,88.0 726.1,88.0 729.8,94.0 733.5,94.0 737.2,106.0 741.0,94.0 744.7,94.0 748.4,94.0 752.1,94.0 755.8,88.0 759.5,88.0 763.3,82.0 767.0,76.0 770.7,76.0 774.4,76.0 778.1,76.0 781.9,76.0 785.6,76.0 789.3,70.0 793.0,70.0 796.7,70.0 800.4,76.0 804.2,88.0 807.9,82.0 811.6,70.0 815.3,70.0 819.0,70.0 822.7,76.0 826.5,76.0 830.2,76.0 833.9,82.0 837.6,70.0 841.3,76.0 845.1,64.0 848.8,70.0 852.5,58.0 856.2,58.0 859.9,58.0 863.6,58.0 867.4,58.0 871.1,64.0 874.8,58.0 878.5,64.0 882.2,58.0 886.0,58.0 889.7,58.0 893.4,58.0 897.1,64.0 900.8,64.0 904.5,64.0 908.3,76.0 912.0,70.0 915.7,82.0 919.4,70.0 923.1,76.0 926.8,58.0 930.6,64.0 934.3,58.0 938.0,64.0"/><polyline fill="none" stroke="#f59e0b" stroke-width="2.5" stroke-linejoin="round" stroke-linecap="round" points="42.0,274.0 45.7,274.0 49.4,274.0 53.2,280.0 56.9,268.0 60.6,268.0 64.3,268.0 68.0,274.0 71.7,274.0 75.5,274.0 79.2,280.0 82.9,286.0 86.6,286.0 90.3,286.0 94.0,286.0 97.8,286.0 101.5,286.0 105.2,286.0 108.9,286.0 112.6,286.0 116.4,286.0 120.1,286.0 123.8,286.0 127.5,286.0 131.2,286.0 134.9,286.0 138.7,286.0 142.4,286.0 146.1,286.0 149.8,286.0 153.5,286.0 157.3,274.0 161.0,280.0 164.7,280.0 168.4,280.0 172.1,280.0 175.8,286.0 179.6,286.0 183.3,286.0 187.0,274.0 190.7,268.0 194.4,268.0 198.1,262.0 201.9,262.0 205.6,262.0 209.3,262.0 213.0,268.0 216.7,280.0 220.5,280.0 224.2,274.0 227.9,262.0 231.6,268.0 235.3,268.0 239.0,262.0 242.8,268.0 246.5,268.0 250.2,268.0 253.9,280.0 257.6,280.0 261.4,268.0 265.1,268.0 268.8,268.0 272.5,262.0 276.2,274.0 279.9,280.0 283.7,286.0 287.4,286.0 291.1,274.0 294.8,274.0 298.5,274.0 302.2,274.0 306.0,274.0 309.7,274.0 313.4,274.0 317.1,274.0 320.8,280.0 324.6,274.0 328.3,280.0 332.0,286.0 335.7,286.0 339.4,286.0 343.1,286.0 346.9,280.0 350.6,286.0 354.3,286.0 358.0,286.0 361.7,286.0 365.5,286.0 369.2,286.0 372.9,286.0 376.6,286.0 380.3,286.0 384.0,286.0 387.8,286.0 391.5,286.0 395.2,286.0 398.9,286.0 402.6,286.0 406.3,286.0 410.1,286.0 413.8,286.0 417.5,286.0 421.2,286.0 424.9,286.0 428.7,286.0 432.4,286.0 436.1,286.0 439.8,286.0 443.5,286.0 447.2,286.0 451.0,286.0 454.7,286.0 458.4,286.0 462.1,286.0 465.8,286.0 469.6,286.0 473.3,286.0 477.0,286.0 480.7,286.0 484.4,286.0 488.1,286.0 491.9,286.0 495.6,286.0 499.3,286.0 503.0,286.0 506.7,286.0 510.4,286.0 514.2,286.0 517.9,286.0 521.6,286.0 525.3,286.0 529.0,286.0 532.8,286.0 536.5,286.0 540.2,286.0 543.9,286.0 547.6,286.0 551.3,286.0 555.1,286.0 558.8,286.0 562.5,286.0 566.2,286.0 569.9,286.0 573.7,286.0 577.4,286.0 581.1,286.0 584.8,286.0 588.5,286.0 592.2,286.0 596.0,286.0 599.7,286.0 603.4,286.0 607.1,286.0 610.8,286.0 614.5,286.0 618.3,286.0 622.0,286.0 625.7,286.0 629.4,280.0 633.1,268.0 636.9,268.0 640.6,268.0 644.3,268.0 648.0,262.0 651.7,262.0 655.4,262.0 659.2,268.0 662.9,268.0 666.6,274.0 670.3,274.0 674.0,274.0 677.8,268.0 681.5,268.0 685.2,268.0 688.9,274.0 692.6,274.0 696.3,274.0 700.1,274.0 703.8,268.0 707.5,268.0 711.2,262.0 714.9,262.0 718.6,268.0 722.4,268.0 726.1,268.0 729.8,262.0 733.5,262.0 737.2,274.0 741.0,262.0 744.7,262.0 748.4,262.0 752.1,262.0 755.8,268.0 759.5,268.0 763.3,274.0 767.0,280.0 770.7,280.0 774.4,280.0 778.1,280.0 781.9,280.0 785.6,280.0 789.3,286.0 793.0,286.0 796.7,286.0 800.4,280.0 804.2,274.0 807.9,274.0 811.6,280.0 815.3,274.0 819.0,274.0 822.7,268.0 826.5,268.0 830.2,268.0 833.9,268.0 837.6,280.0 841.3,274.0 845.1,280.0 848.8,280.0 852.5,286.0 856.2,286.0 859.9,286.0 863.6,286.0 867.4,286.0 871.1,286.0 874.8,286.0 878.5,286.0 882.2,286.0 886.0,286.0 889.7,286.0 893.4,286.0 897.1,280.0 900.8,280.0 904.5,280.0 908.3,268.0 912.0,280.0 915.7,268.0 919.4,274.0 923.1,274.0 926.8,286.0 930.6,280.0 934.3,286.0 938.0,280.0"/><polyline fill="none" stroke="#ef4444" stroke-width="2.5" stroke-linejoin="round" stroke-linecap="round" points="42.0,280.0 45.7,280.0 49.4,268.0 53.2,262.0 56.9,286.0 60.6,286.0 64.3,286.0 68.0,286.0 71.7,280.0 75.5,286.0 79.2,286.0 82.9,286.0 86.6,286.0 90.3,286.0 94.0,286.0 97.8,286.0 101.5,286.0 105.2,286.0 108.9,286.0 112.6,286.0 116.4,286.0 120.1,286.0 123.8,286.0 127.5,286.0 131.2,286.0 134.9,286.0 138.7,286.0 142.4,286.0 146.1,286.0 149.8,286.0 153.5,286.0 157.3,286.0 161.0,274.0 164.7,256.0 168.4,286.0 172.1,286.0 175.8,286.0 179.6,286.0 183.3,286.0 187.0,286.0 190.7,286.0 194.4,286.0 198.1,286.0 201.9,286.0 205.6,286.0 209.3,286.0 213.0,286.0 216.7,286.0 220.5,280.0 224.2,286.0 227.9,286.0 231.6,286.0 235.3,286.0 239.0,286.0 242.8,286.0 246.5,286.0 250.2,286.0 253.9,286.0 257.6,286.0 261.4,286.0 265.1,286.0 268.8,286.0 272.5,280.0 276.2,286.0 279.9,286.0 283.7,286.0 287.4,286.0 291.1,286.0 294.8,286.0 298.5,286.0 302.2,286.0 306.0,286.0 309.7,286.0 313.4,286.0 317.1,286.0 320.8,274.0 324.6,274.0 328.3,274.0 332.0,274.0 335.7,274.0 339.4,274.0 343.1,274.0 346.9,274.0 350.6,274.0 354.3,274.0 358.0,274.0 361.7,274.0 365.5,274.0 369.2,274.0 372.9,274.0 376.6,274.0 380.3,274.0 384.0,274.0 387.8,274.0 391.5,274.0 395.2,274.0 398.9,274.0 402.6,274.0 406.3,274.0 410.1,274.0 413.8,274.0 417.5,274.0 421.2,274.0 424.9,274.0 428.7,274.0 432.4,274.0 436.1,274.0 439.8,274.0 443.5,274.0 447.2,274.0 451.0,274.0 454.7,274.0 458.4,274.0 462.1,274.0 465.8,274.0 469.6,274.0 473.3,274.0 477.0,274.0 480.7,274.0 484.4,274.0 488.1,274.0 491.9,274.0 495.6,274.0 499.3,274.0 503.0,274.0 506.7,274.0 510.4,274.0 514.2,274.0 517.9,274.0 521.6,274.0 525.3,274.0 529.0,274.0 532.8,274.0 536.5,274.0 540.2,274.0 543.9,274.0 547.6,274.0 551.3,274.0 555.1,274.0 558.8,274.0 562.5,274.0 566.2,274.0 569.9,274.0 573.7,274.0 577.4,274.0 581.1,274.0 584.8,274.0 588.5,274.0 592.2,274.0 596.0,274.0 599.7,274.0 603.4,268.0 607.1,274.0 610.8,274.0 614.5,274.0 618.3,274.0 622.0,274.0 625.7,274.0 629.4,274.0 633.1,274.0 636.9,274.0 640.6,274.0 644.3,268.0 648.0,274.0 651.7,274.0 655.4,274.0 659.2,274.0 662.9,274.0 666.6,274.0 670.3,274.0 674.0,274.0 677.8,274.0 681.5,274.0 685.2,268.0 688.9,274.0 692.6,274.0 696.3,274.0 700.1,274.0 703.8,274.0 707.5,274.0 711.2,274.0 714.9,274.0 718.6,274.0 722.4,274.0 726.1,274.0 729.8,274.0 733.5,274.0 737.2,250.0 741.0,274.0 744.7,274.0 748.4,274.0 752.1,274.0 755.8,274.0 759.5,274.0 763.3,274.0 767.0,274.0 770.7,274.0 774.4,274.0 778.1,274.0 781.9,274.0 785.6,274.0 789.3,274.0 793.0,274.0 796.7,274.0 800.4,274.0 804.2,268.0 807.9,274.0 811.6,280.0 815.3,286.0 819.0,286.0 822.7,286.0 826.5,286.0 830.2,286.0 833.9,280.0 837.6,280.0 841.3,286.0 845.1,286.0 848.8,280.0 852.5,286.0 856.2,286.0 859.9,286.0 863.6,286.0 867.4,286.0 871.1,280.0 874.8,286.0 878.5,286.0 882.2,286.0 886.0,286.0 889.7,286.0 893.4,286.0 897.1,286.0 900.8,286.0 904.5,286.0 908.3,286.0 912.0,280.0 915.7,280.0 919.4,286.0 923.1,280.0 926.8,286.0 930.6,286.0 934.3,286.0 938.0,286.0"/><polyline fill="none" stroke="#a855f7" stroke-width="2.5" stroke-linejoin="round" stroke-linecap="round" points="42.0,286.0 45.7,286.0 49.4,286.0 53.2,286.0 56.9,286.0 60.6,286.0 64.3,286.0 68.0,286.0 71.7,286.0 75.5,286.0 79.2,286.0 82.9,286.0 86.6,286.0 90.3,286.0 94.0,286.0 97.8,286.0 101.5,286.0 105.2,286.0 108.9,286.0 112.6,286.0 116.4,286.0 120.1,286.0 123.8,286.0 127.5,286.0 131.2,286.0 134.9,286.0 138.7,286.0 142.4,286.0 146.1,286.0 149.8,286.0 153.5,286.0 157.3,286.0 161.0,286.0 164.7,286.0 168.4,286.0 172.1,286.0 175.8,286.0 179.6,286.0 183.3,286.0 187.0,286.0 190.7,286.0 194.4,286.0 198.1,286.0 201.9,286.0 205.6,286.0 209.3,286.0 213.0,286.0 216.7,286.0 220.5,286.0 224.2,286.0 227.9,286.0 231.6,286.0 235.3,286.0 239.0,286.0 242.8,286.0 246.5,286.0 250.2,286.0 253.9,286.0 257.6,286.0 261.4,286.0 265.1,286.0 268.8,286.0 272.5,286.0 276.2,286.0 279.9,286.0 283.7,286.0 287.4,286.0 291.1,286.0 294.8,286.0 298.5,286.0 302.2,280.0 306.0,286.0 309.7,286.0 313.4,286.0 317.1,286.0 320.8,286.0 324.6,286.0 328.3,286.0 332.0,286.0 335.7,286.0 339.4,286.0 343.1,286.0 346.9,286.0 350.6,286.0 354.3,286.0 358.0,286.0 361.7,286.0 365.5,286.0 369.2,286.0 372.9,286.0 376.6,286.0 380.3,286.0 384.0,286.0 387.8,286.0 391.5,286.0 395.2,286.0 398.9,286.0 402.6,286.0 406.3,286.0 410.1,286.0 413.8,286.0 417.5,286.0 421.2,286.0 424.9,286.0 428.7,286.0 432.4,286.0 436.1,286.0 439.8,286.0 443.5,286.0 447.2,286.0 451.0,286.0 454.7,286.0 458.4,286.0 462.1,286.0 465.8,286.0 469.6,286.0 473.3,286.0 477.0,286.0 480.7,286.0 484.4,286.0 488.1,286.0 491.9,286.0 495.6,286.0 499.3,286.0 503.0,286.0 506.7,286.0 510.4,286.0 514.2,286.0 517.9,286.0 521.6,286.0 525.3,286.0 529.0,286.0 532.8,286.0 536.5,286.0 540.2,286.0 543.9,286.0 547.6,286.0 551.3,286.0 555.1,286.0 558.8,286.0 562.5,286.0 566.2,286.0 569.9,286.0 573.7,286.0 577.4,286.0 581.1,286.0 584.8,286.0 588.5,286.0 592.2,286.0 596.0,286.0 599.7,286.0 603.4,286.0 607.1,286.0 610.8,286.0 614.5,286.0 618.3,286.0 622.0,286.0 625.7,280.0 629.4,286.0 633.1,286.0 636.9,286.0 640.6,286.0 644.3,286.0 648.0,286.0 651.7,286.0 655.4,286.0 659.2,286.0 662.9,286.0 666.6,286.0 670.3,286.0 674.0,286.0 677.8,286.0 681.5,286.0 685.2,286.0 688.9,286.0 692.6,286.0 696.3,286.0 700.1,286.0 703.8,286.0 707.5,286.0 711.2,286.0 714.9,286.0 718.6,286.0 722.4,286.0 726.1,286.0 729.8,286.0 733.5,286.0 737.2,286.0 741.0,286.0 744.7,286.0 748.4,286.0 752.1,286.0 755.8,286.0 759.5,286.0 763.3,286.0 767.0,286.0 770.7,286.0 774.4,286.0 778.1,286.0 781.9,286.0 785.6,286.0 789.3,286.0 793.0,286.0 796.7,286.0 800.4,286.0 804.2,286.0 807.9,286.0 811.6,286.0 815.3,286.0 819.0,286.0 822.7,286.0 826.5,286.0 830.2,286.0 833.9,286.0 837.6,286.0 841.3,280.0 845.1,286.0 848.8,286.0 852.5,286.0 856.2,286.0 859.9,286.0 863.6,286.0 867.4,286.0 871.1,286.0 874.8,286.0 878.5,280.0 882.2,286.0 886.0,286.0 889.7,286.0 893.4,286.0 897.1,286.0 900.8,286.0 904.5,286.0 908.3,286.0 912.0,286.0 915.7,286.0 919.4,286.0 923.1,286.0 926.8,286.0 930.6,286.0 934.3,286.0 938.0,286.0"/><text x="42" y="308" font-size="11" fill="#9fb0d4">19/06 12:43</text><text x="938" y="308" text-anchor="end" font-size="11" fill="#9fb0d4">02/07 22:30</text></svg>