<svg xmlns="http://www.w3.org/2000/svg" viewBox="0 0 960 320" width="960" height="320" font-family="Segoe UI, system-ui, -apple-system, Roboto, Helvetica, Arial, sans-serif" role="img" aria-label="Availability history per region"><rect x="0.5" y="0.5" width="959" height="319" rx="14" fill="#ffffff" stroke="#dce3f1"/><text x="42" y="26" font-size="14" font-weight="600" fill="#14203a">History · 261 points</text><circle cx="47" cy="40" r="5" fill="#22c55e"/><text x="57" y="44" font-size="12" fill="#5a688a">Available</text><circle cx="139.8" cy="40" r="5" fill="#f59e0b"/><text x="149.8" y="44" font-size="12" fill="#5a688a">Saturated</text><circle cx="232.60000000000002" cy="40" r="5" fill="#ef4444"/><text x="242.60000000000002" y="44" font-size="12" fill="#5a688a">Error</text><circle cx="296.6" cy="40" r="5" fill="#a855f7"/><text x="306.6" y="44" font-size="12" fill="#5a688a">Timeout</text><line x1="42" y1="286.0" x2="938" y2="286.0" stroke="#eef2f7" stroke-width="1"/><text x="35" y="289.0" text-anchor="end" font-size="11" fill="#5a688a">0</text><line x1="42" y1="227.5" x2="938" y2="227.5" stroke="#eef2f7" stroke-width="1"/><text x="35" y="230.5" text-anchor="end" font-size="11" fill="#5a688a">10</text><line x1="42" y1="169.0" x2="938" y2="169.0" stroke="#eef2f7" stroke-width="1"/><text x="35" y="172.0" text-anchor="end" font-size="11" fill="#5a688a">20</text><line x1="42" y1="110.5" x2="938" y2="110.5" stroke="#eef2f7" stroke-width="1"/><text x="35" y="113.5" text-anchor="end" font-size="11" fill="#5a688a">29</text><line x1="42" y1="52.0" x2="938" y2="52.0" stroke="#eef2f7" stroke-width="1"/><text x="35" y="55.0" text-anchor="end" font-size="11" fill="#5a688a">39</text><polyline fill="none" stroke="#22c55e" stroke-width="2.5" stroke-linejoin="round" stroke-linecap="round" points="42.0,70.0 45.4,70.0 48.9,88.0 52.3,88.0 55.8,76.0 59.2,76.0 62.7,76.0 66.1,70.0 69.6,76.0 73.0,70.0 76.5,64.0 79.9,58.0 83.4,58.0 86.8,58.0 90.2,58.0 93.7,58.0 97.1,58.0 100.6,58.0 104.0,58.0 107.5,58.0 110.9,58.0 114.4,58.0 117.8,58.0 121.3,58.0 124.7,58.0 128.2,58.0 131.6,58.0 135.0,58.0 138.5,58.0 141.9,58.0 145.4,58.0 148.8,70.0 152.3,76.0 155.7,94.0 159.2,64.0 162.6,64.0 166.1,58.0 169.5,58.0 173.0,58.0 176.4,70.0 179.8,76.0 183.3,76.0 186.7,82.0 190.2,82.0 193.6,82.0 197.1,82.0 200.5,76.0 204.0,64.0 207.4,70.0 210.9,70.0 214.3,82.0 217.8,76.0 221.2,76.0 224.6,82.0 228.1,76.0 231.5,76.0 235.0,76.0 238.4,64.0 241.9,64.0 245.3,76.0 248.8,76.0 252.2,76.0 255.7,88.0 259.1,70.0 262.6,64.0 266.0,58.0 269.4,58.0 272.9,70.0 276.3,70.0 279.8,70.0 283.2,76.0 286.7,70.0 290.1,70.0 293.6,70.0 297.0,70.0 300.5,76.0 303.9,82.0 307.4,76.0 310.8,70.0 314.2,70.0 317.7,70.0 321.1,70.0 324.6,76.0 328.0,70.0 331.5,70.0 334.9,70.0 338.4,70.0 341.8,70.0 345.3,70.0 348.7,70.0 352.2,70.0 355.6,70.0 359.0,70.0 362.5,70.0 365.9,70.0 369.4,70.0 372.8,70.0 376.3,70.0 379.7,70.0 383.2,70.0 386.6,70.0 390.1,70.0 393.5,70.0 397.0,70.0 400.4,70.0 403.8,70.0 407.3,70.0 410.7,70.0 414.2,70.0 417.6,70.0 421.1,70.0 424.5,70.0 428.0,70.0 431.4,70.0 434.9,70.0 438.3,70.0 441.8,70.0 445.2,70.0 448.6,70.0 452.1,70.0 455.5,70.0 459.0,70.0 462.4,70.0 465.9,70.0 469.3,70.0 472.8,70.0 476.2,70.0 479.7,70.0 483.1,70.0 486.6,70.0 490.0,70.0 493.4,70.0 496.9,70.0 500.3,70.0 503.8,70.0 507.2,70.0 510.7,70.0 514.1,70.0 517.6,70.0 521.0,70.0 524.5,70.0 527.9,70.0 531.4,70.0 534.8,70.0 538.2,70.0 541.7,70.0 545.1,70.0 548.6,70.0 552.0,70.0 555.5,70.0 558.9,70.0 562.4,76.0 565.8,70.0 569.3,70.0 572.7,70.0 576.2,70.0 579.6,70.0 583.0,76.0 586.5,76.0 589.9,88.0 593.4,88.0 596.8,88.0 600.3,94.0 603.7,94.0 607.2,94.0 610.6,94.0 614.1,88.0 617.5,88.0 621.0,82.0 624.4,82.0 627.8,82.0 631.3,88.0 634.7,88.0 638.2,94.0 641.6,82.0 645.1,82.0 648.5,82.0 652.0,82.0 655.4,88.0 658.9,88.0 662.3,94.0 665.8,94.0 669.2,88.0 672.6,88.0 676.1,88.0 679.5,94.0 683.0,94.0 686.4,106.0 689.9,94.0 693.3,94.0 696.8,94.0 700.2,94.0 703.7,88.0 707.1,88.0 710.6,82.0 714.0,76.0 717.4,76.0 720.9,76.0 724.3,76.0 727.8,76.0 731.2,76.0 734.7,70.0 738.1,70.0 741.6,70.0 745.0,76.0 748.5,88.0 751.9,82.0 755.4,70.0 758.8,70.0 762.2,70.0 765.7,76.0 769.1,76.0 772.6,76.0 776.0,82.0 779.5,70.0 782.9,76.0 786.4,64.0 789.8,70.0 793.3,58.0 796.7,58.0 800.2,58.0 803.6,58.0 807.0,58.0 810.5,64.0 813.9,58.0 817.4,64.0 820.8,58.0 824.3,58.0 827.7,58.0 831.2,58.0 834.6,64.0 838.1,64.0 841.5,64.0 845.0,76.0 848.4,70.0 851.8,82.0 855.3,70.0 858.7,76.0 862.2,58.0 865.6,64.0 869.1,58.0 872.5,64.0 876.0,58.0 879.4,58.0 882.9,58.0 886.3,64.0 889.8,70.0 893.2,64.0 896.6,64.0 900.1,64.0 903.5,70.0 907.0,70.0 910.4,64.0 913.9,70.0 917.3,70.0 920.8,70.0 924.2,58.0 927.7,58.0 931.1,58.0 934.6,58.0 938.0,58.0"/><polyline fill="none" stroke="#f59e0b" stroke-width="2.5" stroke-linejoin="round" stroke-linecap="round" points="42.0,274.0 45.4,274.0 48.9,274.0 52.3,280.0 55.8,268.0 59.2,268.0 62.7,268.0 66.1,274.0 69.6,274.0 73.0,274.0 76.5,280.0 79.9,286.0 83.4,286.0 86.8,286.0 90.2,286.0 93.7,286.0 97.1,286.0 100.6,286.0 104.0,286.0 107.5,286.0 110.9,286.0 114.4,286.0 117.8,286.0 121.3,286.0 124.7,286.0 128.2,286.0 131.6,286.0 135.0,286.0 138.5,286.0 141.9,286.0 145.4,286.0 148.8,274.0 152.3,280.0 155.7,280.0 159.2,280.0 162.6,280.0 166.1,286.0 169.5,286.0 173.0,286.0 176.4,274.0 179.8,268.0 183.3,268.0 186.7,262.0 190.2,262.0 193.6,262.0 197.1,262.0 200.5,268.0 204.0,280.0 207.4,280.0 210.9,274.0 214.3,262.0 217.8,268.0 221.2,268.0 224.6,262.0 228.1,268.0 231.5,268.0 235.0,268.0 238.4,280.0 241.9,280.0 245.3,268.0 248.8,268.0 252.2,268.0 255.7,262.0 259.1,274.0 262.6,280.0 266.0,286.0 269.4,286.0 272.9,274.0 276.3,274.0 279.8,274.0 283.2,274.0 286.7,274.0 290.1,274.0 293.6,274.0 297.0,274.0 300.5,280.0 303.9,274.0 307.4,280.0 310.8,286.0 314.2,286.0 317.7,286.0 321.1,286.0 324.6,280.0 328.0,286.0 331.5,286.0 334.9,286.0 338.4,286.0 341.8,286.0 345.3,286.0 348.7,286.0 352.2,286.0 355.6,286.0 359.0,286.0 362.5,286.0 365.9,286.0 369.4,286.0 372.8,286.0 376.3,286.0 379.7,286.0 383.2,286.0 386.6,286.0 390.1,286.0 393.5,286.0 397.0,286.0 400.4,286.0 403.8,286.0 407.3,286.0 410.7,286.0 414.2,286.0 417.6,286.0 421.1,286.0 424.5,286.0 428.0,286.0 431.4,286.0 434.9,286.0 438.3,286.0 441.8,286.0 445.2,286.0 448.6,286.0 452.1,286.0 455.5,286.0 459.0,286.0 462.4,286.0 465.9,286.0 469.3,286.0 472.8,286.0 476.2,286.0 479.7,286.0 483.1,286.0 486.6,286.0 490.0,286.0 493.4,286.0 496.9,286.0 500.3,286.0 503.8,286.0 507.2,286.0 510.7,286.0 514.1,286.0 517.6,286.0 521.0,286.0 524.5,286.0 527.9,286.0 531.4,286.0 534.8,286.0 538.2,286.0 541.7,286.0 545.1,286.0 548.6,286.0 552.0,286.0 555.5,286.0 558.9,286.0 562.4,286.0 565.8,286.0 569.3,286.0 572.7,286.0 576.2,286.0 579.6,286.0 583.0,286.0 586.5,280.0 589.9,268.0 593.4,268.0 596.8,268.0 600.3,268.0 603.7,262.0 607.2,262.0 610.6,262.0 614.1,268.0 617.5,268.0 621.0,274.0 624.4,274.0 627.8,274.0 631.3,268.0 634.7,268.0 638.2,268.0 641.6,274.0 645.1,274.0 648.5,274.0 652.0,274.0 655.4,268.0 658.9,268.0 662.3,262.0 665.8,262.0 669.2,268.0 672.6,268.0 676.1,268.0 679.5,262.0 683.0,262.0 686.4,274.0 689.9,262.0 693.3,262.0 696.8,262.0 700.2,262.0 703.7,268.0 707.1,268.0 710.6,274.0 714.0,280.0 717.4,280.0 720.9,280.0 724.3,280.0 727.8,280.0 731.2,280.0 734.7,286.0 738.1,286.0 741.6,286.0 745.0,280.0 748.5,274.0 751.9,274.0 755.4,280.0 758.8,274.0 762.2,274.0 765.7,268.0 769.1,268.0 772.6,268.0 776.0,268.0 779.5,280.0 782.9,274.0 786.4,280.0 789.8,280.0 793.3,286.0 796.7,286.0 800.2,286.0 803.6,286.0 807.0,286.0 810.5,286.0 813.9,286.0 817.4,286.0 820.8,286.0 824.3,286.0 827.7,286.0 831.2,286.0 834.6,280.0 838.1,280.0 841.5,280.0 845.0,268.0 848.4,280.0 851.8,268.0 855.3,274.0 858.7,274.0 862.2,286.0 865.6,280.0 869.1,286.0 872.5,280.0 876.0,286.0 879.4,286.0 882.9,286.0 886.3,280.0 889.8,274.0 893.2,280.0 896.6,280.0 900.1,280.0 903.5,274.0 907.0,274.0 910.4,280.0 913.9,280.0 917.3,280.0 920.8,280.0 924.2,286.0 927.7,286.0 931.1,286.0 934.6,286.0 938.0,286.0"/><polyline fill="none" stroke="#ef4444" stroke-width="2.5" stroke-linejoin="round" stroke-linecap="round" points="42.0,280.0 45.4,280.0 48.9,268.0 52.3,262.0 55.8,286.0 59.2,286.0 62.7,286.0 66.1,286.0 69.6,280.0 73.0,286.0 76.5,286.0 79.9,286.0 83.4,286.0 86.8,286.0 90.2,286.0 93.7,286.0 97.1,286.0 100.6,286.0 104.0,286.0 107.5,286.0 110.9,286.0 114.4,286.0 117.8,286.0 121.3,286.0 124.7,286.0 128.2,286.0 131.6,286.0 135.0,286.0 138.5,286.0 141.9,286.0 145.4,286.0 148.8,286.0 152.3,274.0 155.7,256.0 159.2,286.0 162.6,286.0 166.1,286.0 169.5,286.0 173.0,286.0 176.4,286.0 179.8,286.0 183.3,286.0 186.7,286.0 190.2,286.0 193.6,286.0 197.1,286.0 200.5,286.0 204.0,286.0 207.4,280.0 210.9,286.0 214.3,286.0 217.8,286.0 221.2,286.0 224.6,286.0 228.1,286.0 231.5,286.0 235.0,286.0 238.4,286.0 241.9,286.0 245.3,286.0 248.8,286.0 252.2,286.0 255.7,280.0 259.1,286.0 262.6,286.0 266.0,286.0 269.4,286.0 272.9,286.0 276.3,286.0 279.8,286.0 283.2,286.0 286.7,286.0 290.1,286.0 293.6,286.0 297.0,286.0 300.5,274.0 303.9,274.0 307.4,274.0 310.8,274.0 314.2,274.0 317.7,274.0 321.1,274.0 324.6,274.0 328.0,274.0 331.5,274.0 334.9,274.0 338.4,274.0 341.8,274.0 345.3,274.0 348.7,274.0 352.2,274.0 355.6,274.0 359.0,274.0 362.5,274.0 365.9,274.0 369.4,274.0 372.8,274.0 376.3,274.0 379.7,274.0 383.2,274.0 386.6,274.0 390.1,274.0 393.5,274.0 397.0,274.0 400.4,274.0 403.8,274.0 407.3,274.0 410.7,274.0 414.2,274.0 417.6,274.0 421.1,274.0 424.5,274.0 428.0,274.0 431.4,274.0 434.9,274.0 438.3,274.0 441.8,274.0 445.2,274.0 448.6,274.0 452.1,274.0 455.5,274.0 459.0,274.0 462.4,274.0 465.9,274.0 469.3,274.0 472.8,274.0 476.2,274.0 479.7,274.0 483.1,274.0 486.6,274.0 490.0,274.0 493.4,274.0 496.9,274.0 500.3,274.0 503.8,274.0 507.2,274.0 510.7,274.0 514.1,274.0 517.6,274.0 521.0,274.0 524.5,274.0 527.9,274.0 531.4,274.0 534.8,274.0 538.2,274.0 541.7,274.0 545.1,274.0 548.6,274.0 552.0,274.0 555.5,274.0 558.9,274.0 562.4,268.0 565.8,274.0 569.3,274.0 572.7,274.0 576.2,274.0 579.6,274.0 583.0,274.0 586.5,274.0 589.9,274.0 593.4,274.0 596.8,274.0 600.3,268.0 603.7,274.0 607.2,274.0 610.6,274.0 614.1,274.0 617.5,274.0 621.0,274.0 624.4,274.0 627.8,274.0 631.3,274.0 634.7,274.0 638.2,268.0 641.6,274.0 645.1,274.0 648.5,274.0 652.0,274.0 655.4,274.0 658.9,274.0 662.3,274.0 665.8,274.0 669.2,274.0 672.6,274.0 676.1,274.0 679.5,274.0 683.0,274.0 686.4,250.0 689.9,274.0 693.3,274.0 696.8,274.0 700.2,274.0 703.7,274.0 707.1,274.0 710.6,274.0 714.0,274.0 717.4,274.0 720.9,274.0 724.3,274.0 727.8,274.0 731.2,274.0 734.7,274.0 738.1,274.0 741.6,274.0 745.0,274.0 748.5,268.0 751.9,274.0 755.4,280.0 758.8,286.0 762.2,286.0 765.7,286.0 769.1,286.0 772.6,286.0 776.0,280.0 779.5,280.0 782.9,286.0 786.4,286.0 789.8,280.0 793.3,286.0 796.7,286.0 800.2,286.0 803.6,286.0 807.0,286.0 810.5,280.0 813.9,286.0 817.4,286.0 820.8,286.0 824.3,286.0 827.7,286.0 831.2,286.0 834.6,286.0 838.1,286.0 841.5,286.0 845.0,286.0 848.4,280.0 851.8,280.0 855.3,286.0 858.7,280.0 862.2,286.0 865.6,286.0 869.1,286.0 872.5,286.0 876.0,286.0 879.4,286.0 882.9,286.0 886.3,286.0 889.8,286.0 893.2,286.0 896.6,286.0 900.1,286.0 903.5,286.0 907.0,286.0 910.4,286.0 913.9,280.0 917.3,286.0 920.8,280.0 924.2,286.0 927.7,286.0 931.1,286.0 934.6,286.0 938.0,286.0"/><polyline fill="none" stroke="#a855f7" stroke-width="2.5" stroke-linejoin="round" stroke-linecap="round" points="42.0,286.0 45.4,286.0 48.9,286.0 52.3,286.0 55.8,286.0 59.2,286.0 62.7,286.0 66.1,286.0 69.6,286.0 73.0,286.0 76.5,286.0 79.9,286.0 83.4,286.0 86.8,286.0 90.2,286.0 93.7,286.0 97.1,286.0 100.6,286.0 104.0,286.0 107.5,286.0 110.9,286.0 114.4,286.0 117.8,286.0 121.3,286.0 124.7,286.0 128.2,286.0 131.6,286.0 135.0,286.0 138.5,286.0 141.9,286.0 145.4,286.0 148.8,286.0 152.3,286.0 155.7,286.0 159.2,286.0 162.6,286.0 166.1,286.0 169.5,286.0 173.0,286.0 176.4,286.0 179.8,286.0 183.3,286.0 186.7,286.0 190.2,286.0 193.6,286.0 197.1,286.0 200.5,286.0 204.0,286.0 207.4,286.0 210.9,286.0 214.3,286.0 217.8,286.0 221.2,286.0 224.6,286.0 228.1,286.0 231.5,286.0 235.0,286.0 238.4,286.0 241.9,286.0 245.3,286.0 248.8,286.0 252.2,286.0 255.7,286.0 259.1,286.0 262.6,286.0 266.0,286.0 269.4,286.0 272.9,286.0 276.3,286.0 279.8,286.0 283.2,280.0 286.7,286.0 290.1,286.0 293.6,286.0 297.0,286.0 300.5,286.0 303.9,286.0 307.4,286.0 310.8,286.0 314.2,286.0 317.7,286.0 321.1,286.0 324.6,286.0 328.0,286.0 331.5,286.0 334.9,286.0 338.4,286.0 341.8,286.0 345.3,286.0 348.7,286.0 352.2,286.0 355.6,286.0 359.0,286.0 362.5,286.0 365.9,286.0 369.4,286.0 372.8,286.0 376.3,286.0 379.7,286.0 383.2,286.0 386.6,286.0 390.1,286.0 393.5,286.0 397.0,286.0 400.4,286.0 403.8,286.0 407.3,286.0 410.7,286.0 414.2,286.0 417.6,286.0 421.1,286.0 424.5,286.0 428.0,286.0 431.4,286.0 434.9,286.0 438.3,286.0 441.8,286.0 445.2,286.0 448.6,286.0 452.1,286.0 455.5,286.0 459.0,286.0 462.4,286.0 465.9,286.0 469.3,286.0 472.8,286.0 476.2,286.0 479.7,286.0 483.1,286.0 486.6,286.0 490.0,286.0 493.4,286.0 496.9,286.0 500.3,286.0 503.8,286.0 507.2,286.0 510.7,286.0 514.1,286.0 517.6,286.0 521.0,286.0 524.5,286.0 527.9,286.0 531.4,286.0 534.8,286.0 538.2,286.0 541.7,286.0 545.1,286.0 548.6,286.0 552.0,286.0 555.5,286.0 558.9,286.0 562.4,286.0 565.8,286.0 569.3,286.0 572.7,286.0 576.2,286.0 579.6,286.0 583.0,280.0 586.5,286.0 589.9,286.0 593.4,286.0 596.8,286.0 600.3,286.0 603.7,286.0 607.2,286.0 610.6,286.0 614.1,286.0 617.5,286.0 621.0,286.0 624.4,286.0 627.8,286.0 631.3,286.0 634.7,286.0 638.2,286.0 641.6,286.0 645.1,286.0 648.5,286.0 652.0,286.0 655.4,286.0 658.9,286.0 662.3,286.0 665.8,286.0 669.2,286.0 672.6,286.0 676.1,286.0 679.5,286.0 683.0,286.0 686.4,286.0 689.9,286.0 693.3,286.0 696.8,286.0 700.2,286.0 703.7,286.0 707.1,286.0 710.6,286.0 714.0,286.0 717.4,286.0 720.9,286.0 724.3,286.0 727.8,286.0 731.2,286.0 734.7,286.0 738.1,286.0 741.6,286.0 745.0,286.0 748.5,286.0 751.9,286.0 755.4,286.0 758.8,286.0 762.2,286.0 765.7,286.0 769.1,286.0 772.6,286.0 776.0,286.0 779.5,286.0 782.9,280.0 786.4,286.0 789.8,286.0 793.3,286.0 796.7,286.0 800.2,286.0 803.6,286.0 807.0,286.0 810.5,286.0 813.9,286.0 817.4,280.0 820.8,286.0 824.3,286.0 827.7,286.0 831.2,286.0 834.6,286.0 838.1,286.0 841.5,286.0 845.0,286.0 848.4,286.0 851.8,286.0 855.3,286.0 858.7,286.0 862.2,286.0 865.6,286.0 869.1,286.0 872.5,286.0 876.0,286.0 879.4,286.0 882.9,286.0 886.3,286.0 889.8,286.0 893.2,286.0 896.6,286.0 900.1,286.0 903.5,286.0 907.0,286.0 910.4,286.0 913.9,286.0 917.3,280.0 920.8,286.0 924.2,286.0 927.7,286.0 931.1,286.0 934.6,286.0 938.0,286.0"/><text x="42" y="308" font-size="11" fill="#5a688a">19/06 12:43</text><text x="938" y="308" text-anchor="end" font-size="11" fill="#5a688a">04/07 03:29</text></svg>