<svg xmlns="http://www.w3.org/2000/svg" viewBox="0 0 960 320" width="960" height="320" font-family="Segoe UI, system-ui, -apple-system, Roboto, Helvetica, Arial, sans-serif" role="img" aria-label="Availability history per region"><rect x="0.5" y="0.5" width="959" height="319" rx="14" fill="#ffffff" stroke="#dce3f1"/><text x="42" y="26" font-size="14" font-weight="600" fill="#14203a">History · 181 points</text><circle cx="47" cy="40" r="5" fill="#22c55e"/><text x="57" y="44" font-size="12" fill="#5a688a">Available</text><circle cx="139.8" cy="40" r="5" fill="#f59e0b"/><text x="149.8" y="44" font-size="12" fill="#5a688a">Saturated</text><circle cx="232.60000000000002" cy="40" r="5" fill="#ef4444"/><text x="242.60000000000002" y="44" font-size="12" fill="#5a688a">Error</text><circle cx="296.6" cy="40" r="5" fill="#a855f7"/><text x="306.6" y="44" font-size="12" fill="#5a688a">Timeout</text><line x1="42" y1="286.0" x2="938" y2="286.0" stroke="#eef2f7" stroke-width="1"/><text x="35" y="289.0" text-anchor="end" font-size="11" fill="#5a688a">0</text><line x1="42" y1="227.5" x2="938" y2="227.5" stroke="#eef2f7" stroke-width="1"/><text x="35" y="230.5" text-anchor="end" font-size="11" fill="#5a688a">10</text><line x1="42" y1="169.0" x2="938" y2="169.0" stroke="#eef2f7" stroke-width="1"/><text x="35" y="172.0" text-anchor="end" font-size="11" fill="#5a688a">20</text><line x1="42" y1="110.5" x2="938" y2="110.5" stroke="#eef2f7" stroke-width="1"/><text x="35" y="113.5" text-anchor="end" font-size="11" fill="#5a688a">29</text><line x1="42" y1="52.0" x2="938" y2="52.0" stroke="#eef2f7" stroke-width="1"/><text x="35" y="55.0" text-anchor="end" font-size="11" fill="#5a688a">39</text><polyline fill="none" stroke="#22c55e" stroke-width="2.5" stroke-linejoin="round" stroke-linecap="round" points="42.0,70.0 47.0,70.0 52.0,88.0 56.9,88.0 61.9,76.0 66.9,76.0 71.9,76.0 76.8,70.0 81.8,76.0 86.8,70.0 91.8,64.0 96.8,58.0 101.7,58.0 106.7,58.0 111.7,58.0 116.7,58.0 121.6,58.0 126.6,58.0 131.6,58.0 136.6,58.0 141.6,58.0 146.5,58.0 151.5,58.0 156.5,58.0 161.5,58.0 166.4,58.0 171.4,58.0 176.4,58.0 181.4,58.0 186.4,58.0 191.3,58.0 196.3,70.0 201.3,76.0 206.3,94.0 211.2,64.0 216.2,64.0 221.2,58.0 226.2,58.0 231.2,58.0 236.1,70.0 241.1,76.0 246.1,76.0 251.1,82.0 256.0,82.0 261.0,82.0 266.0,82.0 271.0,76.0 276.0,64.0 280.9,70.0 285.9,70.0 290.9,82.0 295.9,76.0 300.8,76.0 305.8,82.0 310.8,76.0 315.8,76.0 320.8,76.0 325.7,64.0 330.7,64.0 335.7,76.0 340.7,76.0 345.6,76.0 350.6,88.0 355.6,70.0 360.6,64.0 365.6,58.0 370.5,58.0 375.5,70.0 380.5,70.0 385.5,70.0 390.4,76.0 395.4,70.0 400.4,70.0 405.4,70.0 410.4,70.0 415.3,76.0 420.3,82.0 425.3,76.0 430.3,70.0 435.2,70.0 440.2,70.0 445.2,70.0 450.2,76.0 455.2,70.0 460.1,70.0 465.1,70.0 470.1,70.0 475.1,70.0 480.0,70.0 485.0,70.0 490.0,70.0 495.0,70.0 500.0,70.0 504.9,70.0 509.9,70.0 514.9,70.0 519.9,70.0 524.8,70.0 529.8,70.0 534.8,70.0 539.8,70.0 544.8,70.0 549.7,70.0 554.7,70.0 559.7,70.0 564.7,70.0 569.6,70.0 574.6,70.0 579.6,70.0 584.6,70.0 589.6,70.0 594.5,70.0 599.5,70.0 604.5,70.0 609.5,70.0 614.4,70.0 619.4,70.0 624.4,70.0 629.4,70.0 634.4,70.0 639.3,70.0 644.3,70.0 649.3,70.0 654.3,70.0 659.2,70.0 664.2,70.0 669.2,70.0 674.2,70.0 679.2,70.0 684.1,70.0 689.1,70.0 694.1,70.0 699.1,70.0 704.0,70.0 709.0,70.0 714.0,70.0 719.0,70.0 724.0,70.0 728.9,70.0 733.9,70.0 738.9,70.0 743.9,70.0 748.8,70.0 753.8,70.0 758.8,70.0 763.8,70.0 768.8,70.0 773.7,70.0 778.7,70.0 783.7,70.0 788.7,70.0 793.6,76.0 798.6,70.0 803.6,70.0 808.6,70.0 813.6,70.0 818.5,70.0 823.5,76.0 828.5,76.0 833.5,88.0 838.4,88.0 843.4,88.0 848.4,94.0 853.4,94.0 858.4,94.0 863.3,94.0 868.3,88.0 873.3,88.0 878.3,82.0 883.2,82.0 888.2,82.0 893.2,88.0 898.2,88.0 903.2,94.0 908.1,82.0 913.1,82.0 918.1,82.0 923.1,82.0 928.0,88.0 933.0,88.0 938.0,94.0"/><polyline fill="none" stroke="#f59e0b" stroke-width="2.5" stroke-linejoin="round" stroke-linecap="round" points="42.0,274.0 47.0,274.0 52.0,274.0 56.9,280.0 61.9,268.0 66.9,268.0 71.9,268.0 76.8,274.0 81.8,274.0 86.8,274.0 91.8,280.0 96.8,286.0 101.7,286.0 106.7,286.0 111.7,286.0 116.7,286.0 121.6,286.0 126.6,286.0 131.6,286.0 136.6,286.0 141.6,286.0 146.5,286.0 151.5,286.0 156.5,286.0 161.5,286.0 166.4,286.0 171.4,286.0 176.4,286.0 181.4,286.0 186.4,286.0 191.3,286.0 196.3,274.0 201.3,280.0 206.3,280.0 211.2,280.0 216.2,280.0 221.2,286.0 226.2,286.0 231.2,286.0 236.1,274.0 241.1,268.0 246.1,268.0 251.1,262.0 256.0,262.0 261.0,262.0 266.0,262.0 271.0,268.0 276.0,280.0 280.9,280.0 285.9,274.0 290.9,262.0 295.9,268.0 300.8,268.0 305.8,262.0 310.8,268.0 315.8,268.0 320.8,268.0 325.7,280.0 330.7,280.0 335.7,268.0 340.7,268.0 345.6,268.0 350.6,262.0 355.6,274.0 360.6,280.0 365.6,286.0 370.5,286.0 375.5,274.0 380.5,274.0 385.5,274.0 390.4,274.0 395.4,274.0 400.4,274.0 405.4,274.0 410.4,274.0 415.3,280.0 420.3,274.0 425.3,280.0 430.3,286.0 435.2,286.0 440.2,286.0 445.2,286.0 450.2,280.0 455.2,286.0 460.1,286.0 465.1,286.0 470.1,286.0 475.1,286.0 480.0,286.0 485.0,286.0 490.0,286.0 495.0,286.0 500.0,286.0 504.9,286.0 509.9,286.0 514.9,286.0 519.9,286.0 524.8,286.0 529.8,286.0 534.8,286.0 539.8,286.0 544.8,286.0 549.7,286.0 554.7,286.0 559.7,286.0 564.7,286.0 569.6,286.0 574.6,286.0 579.6,286.0 584.6,286.0 589.6,286.0 594.5,286.0 599.5,286.0 604.5,286.0 609.5,286.0 614.4,286.0 619.4,286.0 624.4,286.0 629.4,286.0 634.4,286.0 639.3,286.0 644.3,286.0 649.3,286.0 654.3,286.0 659.2,286.0 664.2,286.0 669.2,286.0 674.2,286.0 679.2,286.0 684.1,286.0 689.1,286.0 694.1,286.0 699.1,286.0 704.0,286.0 709.0,286.0 714.0,286.0 719.0,286.0 724.0,286.0 728.9,286.0 733.9,286.0 738.9,286.0 743.9,286.0 748.8,286.0 753.8,286.0 758.8,286.0 763.8,286.0 768.8,286.0 773.7,286.0 778.7,286.0 783.7,286.0 788.7,286.0 793.6,286.0 798.6,286.0 803.6,286.0 808.6,286.0 813.6,286.0 818.5,286.0 823.5,286.0 828.5,280.0 833.5,268.0 838.4,268.0 843.4,268.0 848.4,268.0 853.4,262.0 858.4,262.0 863.3,262.0 868.3,268.0 873.3,268.0 878.3,274.0 883.2,274.0 888.2,274.0 893.2,268.0 898.2,268.0 903.2,268.0 908.1,274.0 913.1,274.0 918.1,274.0 923.1,274.0 928.0,268.0 933.0,268.0 938.0,262.0"/><polyline fill="none" stroke="#ef4444" stroke-width="2.5" stroke-linejoin="round" stroke-linecap="round" points="42.0,280.0 47.0,280.0 52.0,268.0 56.9,262.0 61.9,286.0 66.9,286.0 71.9,286.0 76.8,286.0 81.8,280.0 86.8,286.0 91.8,286.0 96.8,286.0 101.7,286.0 106.7,286.0 111.7,286.0 116.7,286.0 121.6,286.0 126.6,286.0 131.6,286.0 136.6,286.0 141.6,286.0 146.5,286.0 151.5,286.0 156.5,286.0 161.5,286.0 166.4,286.0 171.4,286.0 176.4,286.0 181.4,286.0 186.4,286.0 191.3,286.0 196.3,286.0 201.3,274.0 206.3,256.0 211.2,286.0 216.2,286.0 221.2,286.0 226.2,286.0 231.2,286.0 236.1,286.0 241.1,286.0 246.1,286.0 251.1,286.0 256.0,286.0 261.0,286.0 266.0,286.0 271.0,286.0 276.0,286.0 280.9,280.0 285.9,286.0 290.9,286.0 295.9,286.0 300.8,286.0 305.8,286.0 310.8,286.0 315.8,286.0 320.8,286.0 325.7,286.0 330.7,286.0 335.7,286.0 340.7,286.0 345.6,286.0 350.6,280.0 355.6,286.0 360.6,286.0 365.6,286.0 370.5,286.0 375.5,286.0 380.5,286.0 385.5,286.0 390.4,286.0 395.4,286.0 400.4,286.0 405.4,286.0 410.4,286.0 415.3,274.0 420.3,274.0 425.3,274.0 430.3,274.0 435.2,274.0 440.2,274.0 445.2,274.0 450.2,274.0 455.2,274.0 460.1,274.0 465.1,274.0 470.1,274.0 475.1,274.0 480.0,274.0 485.0,274.0 490.0,274.0 495.0,274.0 500.0,274.0 504.9,274.0 509.9,274.0 514.9,274.0 519.9,274.0 524.8,274.0 529.8,274.0 534.8,274.0 539.8,274.0 544.8,274.0 549.7,274.0 554.7,274.0 559.7,274.0 564.7,274.0 569.6,274.0 574.6,274.0 579.6,274.0 584.6,274.0 589.6,274.0 594.5,274.0 599.5,274.0 604.5,274.0 609.5,274.0 614.4,274.0 619.4,274.0 624.4,274.0 629.4,274.0 634.4,274.0 639.3,274.0 644.3,274.0 649.3,274.0 654.3,274.0 659.2,274.0 664.2,274.0 669.2,274.0 674.2,274.0 679.2,274.0 684.1,274.0 689.1,274.0 694.1,274.0 699.1,274.0 704.0,274.0 709.0,274.0 714.0,274.0 719.0,274.0 724.0,274.0 728.9,274.0 733.9,274.0 738.9,274.0 743.9,274.0 748.8,274.0 753.8,274.0 758.8,274.0 763.8,274.0 768.8,274.0 773.7,274.0 778.7,274.0 783.7,274.0 788.7,274.0 793.6,268.0 798.6,274.0 803.6,274.0 808.6,274.0 813.6,274.0 818.5,274.0 823.5,274.0 828.5,274.0 833.5,274.0 838.4,274.0 843.4,274.0 848.4,268.0 853.4,274.0 858.4,274.0 863.3,274.0 868.3,274.0 873.3,274.0 878.3,274.0 883.2,274.0 888.2,274.0 893.2,274.0 898.2,274.0 903.2,268.0 908.1,274.0 913.1,274.0 918.1,274.0 923.1,274.0 928.0,274.0 933.0,274.0 938.0,274.0"/><polyline fill="none" stroke="#a855f7" stroke-width="2.5" stroke-linejoin="round" stroke-linecap="round" points="42.0,286.0 47.0,286.0 52.0,286.0 56.9,286.0 61.9,286.0 66.9,286.0 71.9,286.0 76.8,286.0 81.8,286.0 86.8,286.0 91.8,286.0 96.8,286.0 101.7,286.0 106.7,286.0 111.7,286.0 116.7,286.0 121.6,286.0 126.6,286.0 131.6,286.0 136.6,286.0 141.6,286.0 146.5,286.0 151.5,286.0 156.5,286.0 161.5,286.0 166.4,286.0 171.4,286.0 176.4,286.0 181.4,286.0 186.4,286.0 191.3,286.0 196.3,286.0 201.3,286.0 206.3,286.0 211.2,286.0 216.2,286.0 221.2,286.0 226.2,286.0 231.2,286.0 236.1,286.0 241.1,286.0 246.1,286.0 251.1,286.0 256.0,286.0 261.0,286.0 266.0,286.0 271.0,286.0 276.0,286.0 280.9,286.0 285.9,286.0 290.9,286.0 295.9,286.0 300.8,286.0 305.8,286.0 310.8,286.0 315.8,286.0 320.8,286.0 325.7,286.0 330.7,286.0 335.7,286.0 340.7,286.0 345.6,286.0 350.6,286.0 355.6,286.0 360.6,286.0 365.6,286.0 370.5,286.0 375.5,286.0 380.5,286.0 385.5,286.0 390.4,280.0 395.4,286.0 400.4,286.0 405.4,286.0 410.4,286.0 415.3,286.0 420.3,286.0 425.3,286.0 430.3,286.0 435.2,286.0 440.2,286.0 445.2,286.0 450.2,286.0 455.2,286.0 460.1,286.0 465.1,286.0 470.1,286.0 475.1,286.0 480.0,286.0 485.0,286.0 490.0,286.0 495.0,286.0 500.0,286.0 504.9,286.0 509.9,286.0 514.9,286.0 519.9,286.0 524.8,286.0 529.8,286.0 534.8,286.0 539.8,286.0 544.8,286.0 549.7,286.0 554.7,286.0 559.7,286.0 564.7,286.0 569.6,286.0 574.6,286.0 579.6,286.0 584.6,286.0 589.6,286.0 594.5,286.0 599.5,286.0 604.5,286.0 609.5,286.0 614.4,286.0 619.4,286.0 624.4,286.0 629.4,286.0 634.4,286.0 639.3,286.0 644.3,286.0 649.3,286.0 654.3,286.0 659.2,286.0 664.2,286.0 669.2,286.0 674.2,286.0 679.2,286.0 684.1,286.0 689.1,286.0 694.1,286.0 699.1,286.0 704.0,286.0 709.0,286.0 714.0,286.0 719.0,286.0 724.0,286.0 728.9,286.0 733.9,286.0 738.9,286.0 743.9,286.0 748.8,286.0 753.8,286.0 758.8,286.0 763.8,286.0 768.8,286.0 773.7,286.0 778.7,286.0 783.7,286.0 788.7,286.0 793.6,286.0 798.6,286.0 803.6,286.0 808.6,286.0 813.6,286.0 818.5,286.0 823.5,280.0 828.5,286.0 833.5,286.0 838.4,286.0 843.4,286.0 848.4,286.0 853.4,286.0 858.4,286.0 863.3,286.0 868.3,286.0 873.3,286.0 878.3,286.0 883.2,286.0 888.2,286.0 893.2,286.0 898.2,286.0 903.2,286.0 908.1,286.0 913.1,286.0 918.1,286.0 923.1,286.0 928.0,286.0 933.0,286.0 938.0,286.0"/><text x="42" y="308" font-size="11" fill="#5a688a">19/06 12:43</text><text x="938" y="308" text-anchor="end" font-size="11" fill="#5a688a">30/06 07:29</text></svg>