<svg xmlns="http://www.w3.org/2000/svg" viewBox="0 0 960 320" width="960" height="320" font-family="Segoe UI, system-ui, -apple-system, Roboto, Helvetica, Arial, sans-serif" role="img" aria-label="Availability history per region"><rect x="0.5" y="0.5" width="959" height="319" rx="14" fill="#0d1117" stroke="#2c3a5e"/><text x="42" y="26" font-size="14" font-weight="600" fill="#e6ecff">History · 208 points</text><circle cx="47" cy="40" r="5" fill="#22c55e"/><text x="57" y="44" font-size="12" fill="#9fb0d4">Available</text><circle cx="139.8" cy="40" r="5" fill="#f59e0b"/><text x="149.8" y="44" font-size="12" fill="#9fb0d4">Saturated</text><circle cx="232.60000000000002" cy="40" r="5" fill="#ef4444"/><text x="242.60000000000002" y="44" font-size="12" fill="#9fb0d4">Error</text><circle cx="296.6" cy="40" r="5" fill="#a855f7"/><text x="306.6" y="44" font-size="12" fill="#9fb0d4">Timeout</text><line x1="42" y1="286.0" x2="938" y2="286.0" stroke="#21304f" stroke-width="1"/><text x="35" y="289.0" text-anchor="end" font-size="11" fill="#9fb0d4">0</text><line x1="42" y1="227.5" x2="938" y2="227.5" stroke="#21304f" stroke-width="1"/><text x="35" y="230.5" text-anchor="end" font-size="11" fill="#9fb0d4">10</text><line x1="42" y1="169.0" x2="938" y2="169.0" stroke="#21304f" stroke-width="1"/><text x="35" y="172.0" text-anchor="end" font-size="11" fill="#9fb0d4">20</text><line x1="42" y1="110.5" x2="938" y2="110.5" stroke="#21304f" stroke-width="1"/><text x="35" y="113.5" text-anchor="end" font-size="11" fill="#9fb0d4">29</text><line x1="42" y1="52.0" x2="938" y2="52.0" stroke="#21304f" stroke-width="1"/><text x="35" y="55.0" text-anchor="end" font-size="11" fill="#9fb0d4">39</text><polyline fill="none" stroke="#22c55e" stroke-width="2.5" stroke-linejoin="round" stroke-linecap="round" points="42.0,70.0 46.3,70.0 50.7,88.0 55.0,88.0 59.3,76.0 63.6,76.0 68.0,76.0 72.3,70.0 76.6,76.0 81.0,70.0 85.3,64.0 89.6,58.0 93.9,58.0 98.3,58.0 102.6,58.0 106.9,58.0 111.3,58.0 115.6,58.0 119.9,58.0 124.2,58.0 128.6,58.0 132.9,58.0 137.2,58.0 141.6,58.0 145.9,58.0 150.2,58.0 154.5,58.0 158.9,58.0 163.2,58.0 167.5,58.0 171.9,58.0 176.2,70.0 180.5,76.0 184.8,94.0 189.2,64.0 193.5,64.0 197.8,58.0 202.2,58.0 206.5,58.0 210.8,70.0 215.1,76.0 219.5,76.0 223.8,82.0 228.1,82.0 232.5,82.0 236.8,82.0 241.1,76.0 245.4,64.0 249.8,70.0 254.1,70.0 258.4,82.0 262.8,76.0 267.1,76.0 271.4,82.0 275.7,76.0 280.1,76.0 284.4,76.0 288.7,64.0 293.1,64.0 297.4,76.0 301.7,76.0 306.0,76.0 310.4,88.0 314.7,70.0 319.0,64.0 323.4,58.0 327.7,58.0 332.0,70.0 336.3,70.0 340.7,70.0 345.0,76.0 349.3,70.0 353.7,70.0 358.0,70.0 362.3,70.0 366.6,76.0 371.0,82.0 375.3,76.0 379.6,70.0 384.0,70.0 388.3,70.0 392.6,70.0 396.9,76.0 401.3,70.0 405.6,70.0 409.9,70.0 414.3,70.0 418.6,70.0 422.9,70.0 427.2,70.0 431.6,70.0 435.9,70.0 440.2,70.0 444.6,70.0 448.9,70.0 453.2,70.0 457.5,70.0 461.9,70.0 466.2,70.0 470.5,70.0 474.9,70.0 479.2,70.0 483.5,70.0 487.8,70.0 492.2,70.0 496.5,70.0 500.8,70.0 505.1,70.0 509.5,70.0 513.8,70.0 518.1,70.0 522.5,70.0 526.8,70.0 531.1,70.0 535.4,70.0 539.8,70.0 544.1,70.0 548.4,70.0 552.8,70.0 557.1,70.0 561.4,70.0 565.7,70.0 570.1,70.0 574.4,70.0 578.7,70.0 583.1,70.0 587.4,70.0 591.7,70.0 596.0,70.0 600.4,70.0 604.7,70.0 609.0,70.0 613.4,70.0 617.7,70.0 622.0,70.0 626.3,70.0 630.7,70.0 635.0,70.0 639.3,70.0 643.7,70.0 648.0,70.0 652.3,70.0 656.6,70.0 661.0,70.0 665.3,70.0 669.6,70.0 674.0,70.0 678.3,70.0 682.6,70.0 686.9,70.0 691.3,70.0 695.6,76.0 699.9,70.0 704.3,70.0 708.6,70.0 712.9,70.0 717.2,70.0 721.6,76.0 725.9,76.0 730.2,88.0 734.6,88.0 738.9,88.0 743.2,94.0 747.5,94.0 751.9,94.0 756.2,94.0 760.5,88.0 764.9,88.0 769.2,82.0 773.5,82.0 777.8,82.0 782.2,88.0 786.5,88.0 790.8,94.0 795.2,82.0 799.5,82.0 803.8,82.0 808.1,82.0 812.5,88.0 816.8,88.0 821.1,94.0 825.5,94.0 829.8,88.0 834.1,88.0 838.4,88.0 842.8,94.0 847.1,94.0 851.4,106.0 855.8,94.0 860.1,94.0 864.4,94.0 868.7,94.0 873.1,88.0 877.4,88.0 881.7,82.0 886.1,76.0 890.4,76.0 894.7,76.0 899.0,76.0 903.4,76.0 907.7,76.0 912.0,70.0 916.4,70.0 920.7,70.0 925.0,76.0 929.3,88.0 933.7,82.0 938.0,70.0"/><polyline fill="none" stroke="#f59e0b" stroke-width="2.5" stroke-linejoin="round" stroke-linecap="round" points="42.0,274.0 46.3,274.0 50.7,274.0 55.0,280.0 59.3,268.0 63.6,268.0 68.0,268.0 72.3,274.0 76.6,274.0 81.0,274.0 85.3,280.0 89.6,286.0 93.9,286.0 98.3,286.0 102.6,286.0 106.9,286.0 111.3,286.0 115.6,286.0 119.9,286.0 124.2,286.0 128.6,286.0 132.9,286.0 137.2,286.0 141.6,286.0 145.9,286.0 150.2,286.0 154.5,286.0 158.9,286.0 163.2,286.0 167.5,286.0 171.9,286.0 176.2,274.0 180.5,280.0 184.8,280.0 189.2,280.0 193.5,280.0 197.8,286.0 202.2,286.0 206.5,286.0 210.8,274.0 215.1,268.0 219.5,268.0 223.8,262.0 228.1,262.0 232.5,262.0 236.8,262.0 241.1,268.0 245.4,280.0 249.8,280.0 254.1,274.0 258.4,262.0 262.8,268.0 267.1,268.0 271.4,262.0 275.7,268.0 280.1,268.0 284.4,268.0 288.7,280.0 293.1,280.0 297.4,268.0 301.7,268.0 306.0,268.0 310.4,262.0 314.7,274.0 319.0,280.0 323.4,286.0 327.7,286.0 332.0,274.0 336.3,274.0 340.7,274.0 345.0,274.0 349.3,274.0 353.7,274.0 358.0,274.0 362.3,274.0 366.6,280.0 371.0,274.0 375.3,280.0 379.6,286.0 384.0,286.0 388.3,286.0 392.6,286.0 396.9,280.0 401.3,286.0 405.6,286.0 409.9,286.0 414.3,286.0 418.6,286.0 422.9,286.0 427.2,286.0 431.6,286.0 435.9,286.0 440.2,286.0 444.6,286.0 448.9,286.0 453.2,286.0 457.5,286.0 461.9,286.0 466.2,286.0 470.5,286.0 474.9,286.0 479.2,286.0 483.5,286.0 487.8,286.0 492.2,286.0 496.5,286.0 500.8,286.0 505.1,286.0 509.5,286.0 513.8,286.0 518.1,286.0 522.5,286.0 526.8,286.0 531.1,286.0 535.4,286.0 539.8,286.0 544.1,286.0 548.4,286.0 552.8,286.0 557.1,286.0 561.4,286.0 565.7,286.0 570.1,286.0 574.4,286.0 578.7,286.0 583.1,286.0 587.4,286.0 591.7,286.0 596.0,286.0 600.4,286.0 604.7,286.0 609.0,286.0 613.4,286.0 617.7,286.0 622.0,286.0 626.3,286.0 630.7,286.0 635.0,286.0 639.3,286.0 643.7,286.0 648.0,286.0 652.3,286.0 656.6,286.0 661.0,286.0 665.3,286.0 669.6,286.0 674.0,286.0 678.3,286.0 682.6,286.0 686.9,286.0 691.3,286.0 695.6,286.0 699.9,286.0 704.3,286.0 708.6,286.0 712.9,286.0 717.2,286.0 721.6,286.0 725.9,280.0 730.2,268.0 734.6,268.0 738.9,268.0 743.2,268.0 747.5,262.0 751.9,262.0 756.2,262.0 760.5,268.0 764.9,268.0 769.2,274.0 773.5,274.0 777.8,274.0 782.2,268.0 786.5,268.0 790.8,268.0 795.2,274.0 799.5,274.0 803.8,274.0 808.1,274.0 812.5,268.0 816.8,268.0 821.1,262.0 825.5,262.0 829.8,268.0 834.1,268.0 838.4,268.0 842.8,262.0 847.1,262.0 851.4,274.0 855.8,262.0 860.1,262.0 864.4,262.0 868.7,262.0 873.1,268.0 877.4,268.0 881.7,274.0 886.1,280.0 890.4,280.0 894.7,280.0 899.0,280.0 903.4,280.0 907.7,280.0 912.0,286.0 916.4,286.0 920.7,286.0 925.0,280.0 929.3,274.0 933.7,274.0 938.0,280.0"/><polyline fill="none" stroke="#ef4444" stroke-width="2.5" stroke-linejoin="round" stroke-linecap="round" points="42.0,280.0 46.3,280.0 50.7,268.0 55.0,262.0 59.3,286.0 63.6,286.0 68.0,286.0 72.3,286.0 76.6,280.0 81.0,286.0 85.3,286.0 89.6,286.0 93.9,286.0 98.3,286.0 102.6,286.0 106.9,286.0 111.3,286.0 115.6,286.0 119.9,286.0 124.2,286.0 128.6,286.0 132.9,286.0 137.2,286.0 141.6,286.0 145.9,286.0 150.2,286.0 154.5,286.0 158.9,286.0 163.2,286.0 167.5,286.0 171.9,286.0 176.2,286.0 180.5,274.0 184.8,256.0 189.2,286.0 193.5,286.0 197.8,286.0 202.2,286.0 206.5,286.0 210.8,286.0 215.1,286.0 219.5,286.0 223.8,286.0 228.1,286.0 232.5,286.0 236.8,286.0 241.1,286.0 245.4,286.0 249.8,280.0 254.1,286.0 258.4,286.0 262.8,286.0 267.1,286.0 271.4,286.0 275.7,286.0 280.1,286.0 284.4,286.0 288.7,286.0 293.1,286.0 297.4,286.0 301.7,286.0 306.0,286.0 310.4,280.0 314.7,286.0 319.0,286.0 323.4,286.0 327.7,286.0 332.0,286.0 336.3,286.0 340.7,286.0 345.0,286.0 349.3,286.0 353.7,286.0 358.0,286.0 362.3,286.0 366.6,274.0 371.0,274.0 375.3,274.0 379.6,274.0 384.0,274.0 388.3,274.0 392.6,274.0 396.9,274.0 401.3,274.0 405.6,274.0 409.9,274.0 414.3,274.0 418.6,274.0 422.9,274.0 427.2,274.0 431.6,274.0 435.9,274.0 440.2,274.0 444.6,274.0 448.9,274.0 453.2,274.0 457.5,274.0 461.9,274.0 466.2,274.0 470.5,274.0 474.9,274.0 479.2,274.0 483.5,274.0 487.8,274.0 492.2,274.0 496.5,274.0 500.8,274.0 505.1,274.0 509.5,274.0 513.8,274.0 518.1,274.0 522.5,274.0 526.8,274.0 531.1,274.0 535.4,274.0 539.8,274.0 544.1,274.0 548.4,274.0 552.8,274.0 557.1,274.0 561.4,274.0 565.7,274.0 570.1,274.0 574.4,274.0 578.7,274.0 583.1,274.0 587.4,274.0 591.7,274.0 596.0,274.0 600.4,274.0 604.7,274.0 609.0,274.0 613.4,274.0 617.7,274.0 622.0,274.0 626.3,274.0 630.7,274.0 635.0,274.0 639.3,274.0 643.7,274.0 648.0,274.0 652.3,274.0 656.6,274.0 661.0,274.0 665.3,274.0 669.6,274.0 674.0,274.0 678.3,274.0 682.6,274.0 686.9,274.0 691.3,274.0 695.6,268.0 699.9,274.0 704.3,274.0 708.6,274.0 712.9,274.0 717.2,274.0 721.6,274.0 725.9,274.0 730.2,274.0 734.6,274.0 738.9,274.0 743.2,268.0 747.5,274.0 751.9,274.0 756.2,274.0 760.5,274.0 764.9,274.0 769.2,274.0 773.5,274.0 777.8,274.0 782.2,274.0 786.5,274.0 790.8,268.0 795.2,274.0 799.5,274.0 803.8,274.0 808.1,274.0 812.5,274.0 816.8,274.0 821.1,274.0 825.5,274.0 829.8,274.0 834.1,274.0 838.4,274.0 842.8,274.0 847.1,274.0 851.4,250.0 855.8,274.0 860.1,274.0 864.4,274.0 868.7,274.0 873.1,274.0 877.4,274.0 881.7,274.0 886.1,274.0 890.4,274.0 894.7,274.0 899.0,274.0 903.4,274.0 907.7,274.0 912.0,274.0 916.4,274.0 920.7,274.0 925.0,274.0 929.3,268.0 933.7,274.0 938.0,280.0"/><polyline fill="none" stroke="#a855f7" stroke-width="2.5" stroke-linejoin="round" stroke-linecap="round" points="42.0,286.0 46.3,286.0 50.7,286.0 55.0,286.0 59.3,286.0 63.6,286.0 68.0,286.0 72.3,286.0 76.6,286.0 81.0,286.0 85.3,286.0 89.6,286.0 93.9,286.0 98.3,286.0 102.6,286.0 106.9,286.0 111.3,286.0 115.6,286.0 119.9,286.0 124.2,286.0 128.6,286.0 132.9,286.0 137.2,286.0 141.6,286.0 145.9,286.0 150.2,286.0 154.5,286.0 158.9,286.0 163.2,286.0 167.5,286.0 171.9,286.0 176.2,286.0 180.5,286.0 184.8,286.0 189.2,286.0 193.5,286.0 197.8,286.0 202.2,286.0 206.5,286.0 210.8,286.0 215.1,286.0 219.5,286.0 223.8,286.0 228.1,286.0 232.5,286.0 236.8,286.0 241.1,286.0 245.4,286.0 249.8,286.0 254.1,286.0 258.4,286.0 262.8,286.0 267.1,286.0 271.4,286.0 275.7,286.0 280.1,286.0 284.4,286.0 288.7,286.0 293.1,286.0 297.4,286.0 301.7,286.0 306.0,286.0 310.4,286.0 314.7,286.0 319.0,286.0 323.4,286.0 327.7,286.0 332.0,286.0 336.3,286.0 340.7,286.0 345.0,280.0 349.3,286.0 353.7,286.0 358.0,286.0 362.3,286.0 366.6,286.0 371.0,286.0 375.3,286.0 379.6,286.0 384.0,286.0 388.3,286.0 392.6,286.0 396.9,286.0 401.3,286.0 405.6,286.0 409.9,286.0 414.3,286.0 418.6,286.0 422.9,286.0 427.2,286.0 431.6,286.0 435.9,286.0 440.2,286.0 444.6,286.0 448.9,286.0 453.2,286.0 457.5,286.0 461.9,286.0 466.2,286.0 470.5,286.0 474.9,286.0 479.2,286.0 483.5,286.0 487.8,286.0 492.2,286.0 496.5,286.0 500.8,286.0 505.1,286.0 509.5,286.0 513.8,286.0 518.1,286.0 522.5,286.0 526.8,286.0 531.1,286.0 535.4,286.0 539.8,286.0 544.1,286.0 548.4,286.0 552.8,286.0 557.1,286.0 561.4,286.0 565.7,286.0 570.1,286.0 574.4,286.0 578.7,286.0 583.1,286.0 587.4,286.0 591.7,286.0 596.0,286.0 600.4,286.0 604.7,286.0 609.0,286.0 613.4,286.0 617.7,286.0 622.0,286.0 626.3,286.0 630.7,286.0 635.0,286.0 639.3,286.0 643.7,286.0 648.0,286.0 652.3,286.0 656.6,286.0 661.0,286.0 665.3,286.0 669.6,286.0 674.0,286.0 678.3,286.0 682.6,286.0 686.9,286.0 691.3,286.0 695.6,286.0 699.9,286.0 704.3,286.0 708.6,286.0 712.9,286.0 717.2,286.0 721.6,280.0 725.9,286.0 730.2,286.0 734.6,286.0 738.9,286.0 743.2,286.0 747.5,286.0 751.9,286.0 756.2,286.0 760.5,286.0 764.9,286.0 769.2,286.0 773.5,286.0 777.8,286.0 782.2,286.0 786.5,286.0 790.8,286.0 795.2,286.0 799.5,286.0 803.8,286.0 808.1,286.0 812.5,286.0 816.8,286.0 821.1,286.0 825.5,286.0 829.8,286.0 834.1,286.0 838.4,286.0 842.8,286.0 847.1,286.0 851.4,286.0 855.8,286.0 860.1,286.0 864.4,286.0 868.7,286.0 873.1,286.0 877.4,286.0 881.7,286.0 886.1,286.0 890.4,286.0 894.7,286.0 899.0,286.0 903.4,286.0 907.7,286.0 912.0,286.0 916.4,286.0 920.7,286.0 925.0,286.0 929.3,286.0 933.7,286.0 938.0,286.0"/><text x="42" y="308" font-size="11" fill="#9fb0d4">19/06 12:43</text><text x="938" y="308" text-anchor="end" font-size="11" fill="#9fb0d4">01/07 10:32</text></svg>