<svg xmlns="http://www.w3.org/2000/svg" viewBox="0 0 960 320" width="960" height="320" font-family="Segoe UI, system-ui, -apple-system, Roboto, Helvetica, Arial, sans-serif" role="img" aria-label="Availability history per region"><rect x="0.5" y="0.5" width="959" height="319" rx="14" fill="#0d1117" stroke="#2c3a5e"/><text x="42" y="26" font-size="14" font-weight="600" fill="#e6ecff">History · 329 points</text><circle cx="47" cy="40" r="5" fill="#22c55e"/><text x="57" y="44" font-size="12" fill="#9fb0d4">Available</text><circle cx="139.8" cy="40" r="5" fill="#f59e0b"/><text x="149.8" y="44" font-size="12" fill="#9fb0d4">Saturated</text><circle cx="232.60000000000002" cy="40" r="5" fill="#ef4444"/><text x="242.60000000000002" y="44" font-size="12" fill="#9fb0d4">Error</text><circle cx="296.6" cy="40" r="5" fill="#a855f7"/><text x="306.6" y="44" font-size="12" fill="#9fb0d4">Timeout</text><line x1="42" y1="286.0" x2="938" y2="286.0" stroke="#21304f" stroke-width="1"/><text x="35" y="289.0" text-anchor="end" font-size="11" fill="#9fb0d4">0</text><line x1="42" y1="227.5" x2="938" y2="227.5" stroke="#21304f" stroke-width="1"/><text x="35" y="230.5" text-anchor="end" font-size="11" fill="#9fb0d4">10</text><line x1="42" y1="169.0" x2="938" y2="169.0" stroke="#21304f" stroke-width="1"/><text x="35" y="172.0" text-anchor="end" font-size="11" fill="#9fb0d4">20</text><line x1="42" y1="110.5" x2="938" y2="110.5" stroke="#21304f" stroke-width="1"/><text x="35" y="113.5" text-anchor="end" font-size="11" fill="#9fb0d4">29</text><line x1="42" y1="52.0" x2="938" y2="52.0" stroke="#21304f" stroke-width="1"/><text x="35" y="55.0" text-anchor="end" font-size="11" fill="#9fb0d4">39</text><polyline fill="none" stroke="#22c55e" stroke-width="2.5" stroke-linejoin="round" stroke-linecap="round" points="42.0,70.0 44.7,70.0 47.5,88.0 50.2,88.0 52.9,76.0 55.7,76.0 58.4,76.0 61.1,70.0 63.9,76.0 66.6,70.0 69.3,64.0 72.0,58.0 74.8,58.0 77.5,58.0 80.2,58.0 83.0,58.0 85.7,58.0 88.4,58.0 91.2,58.0 93.9,58.0 96.6,58.0 99.4,58.0 102.1,58.0 104.8,58.0 107.6,58.0 110.3,58.0 113.0,58.0 115.8,58.0 118.5,58.0 121.2,58.0 124.0,58.0 126.7,70.0 129.4,76.0 132.1,94.0 134.9,64.0 137.6,64.0 140.3,58.0 143.1,58.0 145.8,58.0 148.5,70.0 151.3,76.0 154.0,76.0 156.7,82.0 159.5,82.0 162.2,82.0 164.9,82.0 167.7,76.0 170.4,64.0 173.1,70.0 175.9,70.0 178.6,82.0 181.3,76.0 184.0,76.0 186.8,82.0 189.5,76.0 192.2,76.0 195.0,76.0 197.7,64.0 200.4,64.0 203.2,76.0 205.9,76.0 208.6,76.0 211.4,88.0 214.1,70.0 216.8,64.0 219.6,58.0 222.3,58.0 225.0,70.0 227.8,70.0 230.5,70.0 233.2,76.0 236.0,70.0 238.7,70.0 241.4,70.0 244.1,70.0 246.9,76.0 249.6,82.0 252.3,76.0 255.1,70.0 257.8,70.0 260.5,70.0 263.3,70.0 266.0,76.0 268.7,70.0 271.5,70.0 274.2,70.0 276.9,70.0 279.7,70.0 282.4,70.0 285.1,70.0 287.9,70.0 290.6,70.0 293.3,70.0 296.0,70.0 298.8,70.0 301.5,70.0 304.2,70.0 307.0,70.0 309.7,70.0 312.4,70.0 315.2,70.0 317.9,70.0 320.6,70.0 323.4,70.0 326.1,70.0 328.8,70.0 331.6,70.0 334.3,70.0 337.0,70.0 339.8,70.0 342.5,70.0 345.2,70.0 348.0,70.0 350.7,70.0 353.4,70.0 356.1,70.0 358.9,70.0 361.6,70.0 364.3,70.0 367.1,70.0 369.8,70.0 372.5,70.0 375.3,70.0 378.0,70.0 380.7,70.0 383.5,70.0 386.2,70.0 388.9,70.0 391.7,70.0 394.4,70.0 397.1,70.0 399.9,70.0 402.6,70.0 405.3,70.0 408.0,70.0 410.8,70.0 413.5,70.0 416.2,70.0 419.0,70.0 421.7,70.0 424.4,70.0 427.2,70.0 429.9,70.0 432.6,70.0 435.4,70.0 438.1,70.0 440.8,70.0 443.6,70.0 446.3,70.0 449.0,70.0 451.8,70.0 454.5,76.0 457.2,70.0 460.0,70.0 462.7,70.0 465.4,70.0 468.1,70.0 470.9,76.0 473.6,76.0 476.3,88.0 479.1,88.0 481.8,88.0 484.5,94.0 487.3,94.0 490.0,94.0 492.7,94.0 495.5,88.0 498.2,88.0 500.9,82.0 503.7,82.0 506.4,82.0 509.1,88.0 511.9,88.0 514.6,94.0 517.3,82.0 520.0,82.0 522.8,82.0 525.5,82.0 528.2,88.0 531.0,88.0 533.7,94.0 536.4,94.0 539.2,88.0 541.9,88.0 544.6,88.0 547.4,94.0 550.1,94.0 552.8,106.0 555.6,94.0 558.3,94.0 561.0,94.0 563.8,94.0 566.5,88.0 569.2,88.0 572.0,82.0 574.7,76.0 577.4,76.0 580.1,76.0 582.9,76.0 585.6,76.0 588.3,76.0 591.1,70.0 593.8,70.0 596.5,70.0 599.3,76.0 602.0,88.0 604.7,82.0 607.5,70.0 610.2,70.0 612.9,70.0 615.7,76.0 618.4,76.0 621.1,76.0 623.9,82.0 626.6,70.0 629.3,76.0 632.0,64.0 634.8,70.0 637.5,58.0 640.2,58.0 643.0,58.0 645.7,58.0 648.4,58.0 651.2,64.0 653.9,58.0 656.6,64.0 659.4,58.0 662.1,58.0 664.8,58.0 667.6,58.0 670.3,64.0 673.0,64.0 675.8,64.0 678.5,76.0 681.2,70.0 684.0,82.0 686.7,70.0 689.4,76.0 692.1,58.0 694.9,64.0 697.6,58.0 700.3,64.0 703.1,58.0 705.8,58.0 708.5,58.0 711.3,64.0 714.0,70.0 716.7,64.0 719.5,64.0 722.2,64.0 724.9,70.0 727.7,70.0 730.4,64.0 733.1,70.0 735.9,70.0 738.6,70.0 741.3,58.0 744.0,58.0 746.8,58.0 749.5,58.0 752.2,58.0 755.0,64.0 757.7,58.0 760.4,58.0 763.2,58.0 765.9,58.0 768.6,58.0 771.4,58.0 774.1,58.0 776.8,58.0 779.6,64.0 782.3,58.0 785.0,58.0 787.8,58.0 790.5,58.0 793.2,58.0 796.0,58.0 798.7,58.0 801.4,64.0 804.1,58.0 806.9,58.0 809.6,58.0 812.3,58.0 815.1,58.0 817.8,58.0 820.5,58.0 823.3,58.0 826.0,58.0 828.7,58.0 831.5,58.0 834.2,58.0 836.9,58.0 839.7,58.0 842.4,58.0 845.1,58.0 847.9,58.0 850.6,58.0 853.3,58.0 856.0,64.0 858.8,64.0 861.5,58.0 864.2,58.0 867.0,58.0 869.7,64.0 872.4,64.0 875.2,76.0 877.9,64.0 880.6,64.0 883.4,70.0 886.1,58.0 888.8,58.0 891.6,58.0 894.3,58.0 897.0,58.0 899.8,58.0 902.5,70.0 905.2,64.0 908.0,64.0 910.7,64.0 913.4,64.0 916.1,70.0 918.9,70.0 921.6,76.0 924.3,76.0 927.1,82.0 929.8,88.0 932.5,82.0 935.3,82.0 938.0,88.0"/><polyline fill="none" stroke="#f59e0b" stroke-width="2.5" stroke-linejoin="round" stroke-linecap="round" points="42.0,274.0 44.7,274.0 47.5,274.0 50.2,280.0 52.9,268.0 55.7,268.0 58.4,268.0 61.1,274.0 63.9,274.0 66.6,274.0 69.3,280.0 72.0,286.0 74.8,286.0 77.5,286.0 80.2,286.0 83.0,286.0 85.7,286.0 88.4,286.0 91.2,286.0 93.9,286.0 96.6,286.0 99.4,286.0 102.1,286.0 104.8,286.0 107.6,286.0 110.3,286.0 113.0,286.0 115.8,286.0 118.5,286.0 121.2,286.0 124.0,286.0 126.7,274.0 129.4,280.0 132.1,280.0 134.9,280.0 137.6,280.0 140.3,286.0 143.1,286.0 145.8,286.0 148.5,274.0 151.3,268.0 154.0,268.0 156.7,262.0 159.5,262.0 162.2,262.0 164.9,262.0 167.7,268.0 170.4,280.0 173.1,280.0 175.9,274.0 178.6,262.0 181.3,268.0 184.0,268.0 186.8,262.0 189.5,268.0 192.2,268.0 195.0,268.0 197.7,280.0 200.4,280.0 203.2,268.0 205.9,268.0 208.6,268.0 211.4,262.0 214.1,274.0 216.8,280.0 219.6,286.0 222.3,286.0 225.0,274.0 227.8,274.0 230.5,274.0 233.2,274.0 236.0,274.0 238.7,274.0 241.4,274.0 244.1,274.0 246.9,280.0 249.6,274.0 252.3,280.0 255.1,286.0 257.8,286.0 260.5,286.0 263.3,286.0 266.0,280.0 268.7,286.0 271.5,286.0 274.2,286.0 276.9,286.0 279.7,286.0 282.4,286.0 285.1,286.0 287.9,286.0 290.6,286.0 293.3,286.0 296.0,286.0 298.8,286.0 301.5,286.0 304.2,286.0 307.0,286.0 309.7,286.0 312.4,286.0 315.2,286.0 317.9,286.0 320.6,286.0 323.4,286.0 326.1,286.0 328.8,286.0 331.6,286.0 334.3,286.0 337.0,286.0 339.8,286.0 342.5,286.0 345.2,286.0 348.0,286.0 350.7,286.0 353.4,286.0 356.1,286.0 358.9,286.0 361.6,286.0 364.3,286.0 367.1,286.0 369.8,286.0 372.5,286.0 375.3,286.0 378.0,286.0 380.7,286.0 383.5,286.0 386.2,286.0 388.9,286.0 391.7,286.0 394.4,286.0 397.1,286.0 399.9,286.0 402.6,286.0 405.3,286.0 408.0,286.0 410.8,286.0 413.5,286.0 416.2,286.0 419.0,286.0 421.7,286.0 424.4,286.0 427.2,286.0 429.9,286.0 432.6,286.0 435.4,286.0 438.1,286.0 440.8,286.0 443.6,286.0 446.3,286.0 449.0,286.0 451.8,286.0 454.5,286.0 457.2,286.0 460.0,286.0 462.7,286.0 465.4,286.0 468.1,286.0 470.9,286.0 473.6,280.0 476.3,268.0 479.1,268.0 481.8,268.0 484.5,268.0 487.3,262.0 490.0,262.0 492.7,262.0 495.5,268.0 498.2,268.0 500.9,274.0 503.7,274.0 506.4,274.0 509.1,268.0 511.9,268.0 514.6,268.0 517.3,274.0 520.0,274.0 522.8,274.0 525.5,274.0 528.2,268.0 531.0,268.0 533.7,262.0 536.4,262.0 539.2,268.0 541.9,268.0 544.6,268.0 547.4,262.0 550.1,262.0 552.8,274.0 555.6,262.0 558.3,262.0 561.0,262.0 563.8,262.0 566.5,268.0 569.2,268.0 572.0,274.0 574.7,280.0 577.4,280.0 580.1,280.0 582.9,280.0 585.6,280.0 588.3,280.0 591.1,286.0 593.8,286.0 596.5,286.0 599.3,280.0 602.0,274.0 604.7,274.0 607.5,280.0 610.2,274.0 612.9,274.0 615.7,268.0 618.4,268.0 621.1,268.0 623.9,268.0 626.6,280.0 629.3,274.0 632.0,280.0 634.8,280.0 637.5,286.0 640.2,286.0 643.0,286.0 645.7,286.0 648.4,286.0 651.2,286.0 653.9,286.0 656.6,286.0 659.4,286.0 662.1,286.0 664.8,286.0 667.6,286.0 670.3,280.0 673.0,280.0 675.8,280.0 678.5,268.0 681.2,280.0 684.0,268.0 686.7,274.0 689.4,274.0 692.1,286.0 694.9,280.0 697.6,286.0 700.3,280.0 703.1,286.0 705.8,286.0 708.5,286.0 711.3,280.0 714.0,274.0 716.7,280.0 719.5,280.0 722.2,280.0 724.9,274.0 727.7,274.0 730.4,280.0 733.1,280.0 735.9,280.0 738.6,280.0 741.3,286.0 744.0,286.0 746.8,286.0 749.5,286.0 752.2,286.0 755.0,286.0 757.7,286.0 760.4,286.0 763.2,286.0 765.9,286.0 768.6,286.0 771.4,286.0 774.1,286.0 776.8,286.0 779.6,286.0 782.3,286.0 785.0,286.0 787.8,286.0 790.5,286.0 793.2,286.0 796.0,286.0 798.7,286.0 801.4,286.0 804.1,286.0 806.9,286.0 809.6,286.0 812.3,286.0 815.1,286.0 817.8,286.0 820.5,286.0 823.3,286.0 826.0,286.0 828.7,286.0 831.5,286.0 834.2,286.0 836.9,286.0 839.7,286.0 842.4,286.0 845.1,286.0 847.9,286.0 850.6,286.0 853.3,286.0 856.0,286.0 858.8,286.0 861.5,286.0 864.2,286.0 867.0,286.0 869.7,280.0 872.4,280.0 875.2,280.0 877.9,280.0 880.6,280.0 883.4,274.0 886.1,286.0 888.8,286.0 891.6,286.0 894.3,286.0 897.0,286.0 899.8,286.0 902.5,286.0 905.2,280.0 908.0,280.0 910.7,280.0 913.4,280.0 916.1,274.0 918.9,274.0 921.6,268.0 924.3,268.0 927.1,262.0 929.8,262.0 932.5,262.0 935.3,262.0 938.0,262.0"/><polyline fill="none" stroke="#ef4444" stroke-width="2.5" stroke-linejoin="round" stroke-linecap="round" points="42.0,280.0 44.7,280.0 47.5,268.0 50.2,262.0 52.9,286.0 55.7,286.0 58.4,286.0 61.1,286.0 63.9,280.0 66.6,286.0 69.3,286.0 72.0,286.0 74.8,286.0 77.5,286.0 80.2,286.0 83.0,286.0 85.7,286.0 88.4,286.0 91.2,286.0 93.9,286.0 96.6,286.0 99.4,286.0 102.1,286.0 104.8,286.0 107.6,286.0 110.3,286.0 113.0,286.0 115.8,286.0 118.5,286.0 121.2,286.0 124.0,286.0 126.7,286.0 129.4,274.0 132.1,256.0 134.9,286.0 137.6,286.0 140.3,286.0 143.1,286.0 145.8,286.0 148.5,286.0 151.3,286.0 154.0,286.0 156.7,286.0 159.5,286.0 162.2,286.0 164.9,286.0 167.7,286.0 170.4,286.0 173.1,280.0 175.9,286.0 178.6,286.0 181.3,286.0 184.0,286.0 186.8,286.0 189.5,286.0 192.2,286.0 195.0,286.0 197.7,286.0 200.4,286.0 203.2,286.0 205.9,286.0 208.6,286.0 211.4,280.0 214.1,286.0 216.8,286.0 219.6,286.0 222.3,286.0 225.0,286.0 227.8,286.0 230.5,286.0 233.2,286.0 236.0,286.0 238.7,286.0 241.4,286.0 244.1,286.0 246.9,274.0 249.6,274.0 252.3,274.0 255.1,274.0 257.8,274.0 260.5,274.0 263.3,274.0 266.0,274.0 268.7,274.0 271.5,274.0 274.2,274.0 276.9,274.0 279.7,274.0 282.4,274.0 285.1,274.0 287.9,274.0 290.6,274.0 293.3,274.0 296.0,274.0 298.8,274.0 301.5,274.0 304.2,274.0 307.0,274.0 309.7,274.0 312.4,274.0 315.2,274.0 317.9,274.0 320.6,274.0 323.4,274.0 326.1,274.0 328.8,274.0 331.6,274.0 334.3,274.0 337.0,274.0 339.8,274.0 342.5,274.0 345.2,274.0 348.0,274.0 350.7,274.0 353.4,274.0 356.1,274.0 358.9,274.0 361.6,274.0 364.3,274.0 367.1,274.0 369.8,274.0 372.5,274.0 375.3,274.0 378.0,274.0 380.7,274.0 383.5,274.0 386.2,274.0 388.9,274.0 391.7,274.0 394.4,274.0 397.1,274.0 399.9,274.0 402.6,274.0 405.3,274.0 408.0,274.0 410.8,274.0 413.5,274.0 416.2,274.0 419.0,274.0 421.7,274.0 424.4,274.0 427.2,274.0 429.9,274.0 432.6,274.0 435.4,274.0 438.1,274.0 440.8,274.0 443.6,274.0 446.3,274.0 449.0,274.0 451.8,274.0 454.5,268.0 457.2,274.0 460.0,274.0 462.7,274.0 465.4,274.0 468.1,274.0 470.9,274.0 473.6,274.0 476.3,274.0 479.1,274.0 481.8,274.0 484.5,268.0 487.3,274.0 490.0,274.0 492.7,274.0 495.5,274.0 498.2,274.0 500.9,274.0 503.7,274.0 506.4,274.0 509.1,274.0 511.9,274.0 514.6,268.0 517.3,274.0 520.0,274.0 522.8,274.0 525.5,274.0 528.2,274.0 531.0,274.0 533.7,274.0 536.4,274.0 539.2,274.0 541.9,274.0 544.6,274.0 547.4,274.0 550.1,274.0 552.8,250.0 555.6,274.0 558.3,274.0 561.0,274.0 563.8,274.0 566.5,274.0 569.2,274.0 572.0,274.0 574.7,274.0 577.4,274.0 580.1,274.0 582.9,274.0 585.6,274.0 588.3,274.0 591.1,274.0 593.8,274.0 596.5,274.0 599.3,274.0 602.0,268.0 604.7,274.0 607.5,280.0 610.2,286.0 612.9,286.0 615.7,286.0 618.4,286.0 621.1,286.0 623.9,280.0 626.6,280.0 629.3,286.0 632.0,286.0 634.8,280.0 637.5,286.0 640.2,286.0 643.0,286.0 645.7,286.0 648.4,286.0 651.2,280.0 653.9,286.0 656.6,286.0 659.4,286.0 662.1,286.0 664.8,286.0 667.6,286.0 670.3,286.0 673.0,286.0 675.8,286.0 678.5,286.0 681.2,280.0 684.0,280.0 686.7,286.0 689.4,280.0 692.1,286.0 694.9,286.0 697.6,286.0 700.3,286.0 703.1,286.0 705.8,286.0 708.5,286.0 711.3,286.0 714.0,286.0 716.7,286.0 719.5,286.0 722.2,286.0 724.9,286.0 727.7,286.0 730.4,286.0 733.1,280.0 735.9,286.0 738.6,280.0 741.3,286.0 744.0,286.0 746.8,286.0 749.5,286.0 752.2,286.0 755.0,286.0 757.7,286.0 760.4,286.0 763.2,286.0 765.9,286.0 768.6,286.0 771.4,286.0 774.1,286.0 776.8,286.0 779.6,280.0 782.3,286.0 785.0,286.0 787.8,286.0 790.5,286.0 793.2,286.0 796.0,286.0 798.7,286.0 801.4,286.0 804.1,286.0 806.9,286.0 809.6,286.0 812.3,286.0 815.1,286.0 817.8,286.0 820.5,286.0 823.3,286.0 826.0,286.0 828.7,286.0 831.5,286.0 834.2,286.0 836.9,286.0 839.7,286.0 842.4,286.0 845.1,286.0 847.9,286.0 850.6,286.0 853.3,286.0 856.0,280.0 858.8,280.0 861.5,286.0 864.2,286.0 867.0,286.0 869.7,286.0 872.4,286.0 875.2,274.0 877.9,286.0 880.6,286.0 883.4,286.0 886.1,286.0 888.8,286.0 891.6,286.0 894.3,286.0 897.0,286.0 899.8,286.0 902.5,286.0 905.2,286.0 908.0,286.0 910.7,286.0 913.4,286.0 916.1,286.0 918.9,286.0 921.6,286.0 924.3,286.0 927.1,286.0 929.8,280.0 932.5,286.0 935.3,286.0 938.0,280.0"/><polyline fill="none" stroke="#a855f7" stroke-width="2.5" stroke-linejoin="round" stroke-linecap="round" points="42.0,286.0 44.7,286.0 47.5,286.0 50.2,286.0 52.9,286.0 55.7,286.0 58.4,286.0 61.1,286.0 63.9,286.0 66.6,286.0 69.3,286.0 72.0,286.0 74.8,286.0 77.5,286.0 80.2,286.0 83.0,286.0 85.7,286.0 88.4,286.0 91.2,286.0 93.9,286.0 96.6,286.0 99.4,286.0 102.1,286.0 104.8,286.0 107.6,286.0 110.3,286.0 113.0,286.0 115.8,286.0 118.5,286.0 121.2,286.0 124.0,286.0 126.7,286.0 129.4,286.0 132.1,286.0 134.9,286.0 137.6,286.0 140.3,286.0 143.1,286.0 145.8,286.0 148.5,286.0 151.3,286.0 154.0,286.0 156.7,286.0 159.5,286.0 162.2,286.0 164.9,286.0 167.7,286.0 170.4,286.0 173.1,286.0 175.9,286.0 178.6,286.0 181.3,286.0 184.0,286.0 186.8,286.0 189.5,286.0 192.2,286.0 195.0,286.0 197.7,286.0 200.4,286.0 203.2,286.0 205.9,286.0 208.6,286.0 211.4,286.0 214.1,286.0 216.8,286.0 219.6,286.0 222.3,286.0 225.0,286.0 227.8,286.0 230.5,286.0 233.2,280.0 236.0,286.0 238.7,286.0 241.4,286.0 244.1,286.0 246.9,286.0 249.6,286.0 252.3,286.0 255.1,286.0 257.8,286.0 260.5,286.0 263.3,286.0 266.0,286.0 268.7,286.0 271.5,286.0 274.2,286.0 276.9,286.0 279.7,286.0 282.4,286.0 285.1,286.0 287.9,286.0 290.6,286.0 293.3,286.0 296.0,286.0 298.8,286.0 301.5,286.0 304.2,286.0 307.0,286.0 309.7,286.0 312.4,286.0 315.2,286.0 317.9,286.0 320.6,286.0 323.4,286.0 326.1,286.0 328.8,286.0 331.6,286.0 334.3,286.0 337.0,286.0 339.8,286.0 342.5,286.0 345.2,286.0 348.0,286.0 350.7,286.0 353.4,286.0 356.1,286.0 358.9,286.0 361.6,286.0 364.3,286.0 367.1,286.0 369.8,286.0 372.5,286.0 375.3,286.0 378.0,286.0 380.7,286.0 383.5,286.0 386.2,286.0 388.9,286.0 391.7,286.0 394.4,286.0 397.1,286.0 399.9,286.0 402.6,286.0 405.3,286.0 408.0,286.0 410.8,286.0 413.5,286.0 416.2,286.0 419.0,286.0 421.7,286.0 424.4,286.0 427.2,286.0 429.9,286.0 432.6,286.0 435.4,286.0 438.1,286.0 440.8,286.0 443.6,286.0 446.3,286.0 449.0,286.0 451.8,286.0 454.5,286.0 457.2,286.0 460.0,286.0 462.7,286.0 465.4,286.0 468.1,286.0 470.9,280.0 473.6,286.0 476.3,286.0 479.1,286.0 481.8,286.0 484.5,286.0 487.3,286.0 490.0,286.0 492.7,286.0 495.5,286.0 498.2,286.0 500.9,286.0 503.7,286.0 506.4,286.0 509.1,286.0 511.9,286.0 514.6,286.0 517.3,286.0 520.0,286.0 522.8,286.0 525.5,286.0 528.2,286.0 531.0,286.0 533.7,286.0 536.4,286.0 539.2,286.0 541.9,286.0 544.6,286.0 547.4,286.0 550.1,286.0 552.8,286.0 555.6,286.0 558.3,286.0 561.0,286.0 563.8,286.0 566.5,286.0 569.2,286.0 572.0,286.0 574.7,286.0 577.4,286.0 580.1,286.0 582.9,286.0 585.6,286.0 588.3,286.0 591.1,286.0 593.8,286.0 596.5,286.0 599.3,286.0 602.0,286.0 604.7,286.0 607.5,286.0 610.2,286.0 612.9,286.0 615.7,286.0 618.4,286.0 621.1,286.0 623.9,286.0 626.6,286.0 629.3,280.0 632.0,286.0 634.8,286.0 637.5,286.0 640.2,286.0 643.0,286.0 645.7,286.0 648.4,286.0 651.2,286.0 653.9,286.0 656.6,280.0 659.4,286.0 662.1,286.0 664.8,286.0 667.6,286.0 670.3,286.0 673.0,286.0 675.8,286.0 678.5,286.0 681.2,286.0 684.0,286.0 686.7,286.0 689.4,286.0 692.1,286.0 694.9,286.0 697.6,286.0 700.3,286.0 703.1,286.0 705.8,286.0 708.5,286.0 711.3,286.0 714.0,286.0 716.7,286.0 719.5,286.0 722.2,286.0 724.9,286.0 727.7,286.0 730.4,286.0 733.1,286.0 735.9,280.0 738.6,286.0 741.3,286.0 744.0,286.0 746.8,286.0 749.5,286.0 752.2,286.0 755.0,280.0 757.7,286.0 760.4,286.0 763.2,286.0 765.9,286.0 768.6,286.0 771.4,286.0 774.1,286.0 776.8,286.0 779.6,286.0 782.3,286.0 785.0,286.0 787.8,286.0 790.5,286.0 793.2,286.0 796.0,286.0 798.7,286.0 801.4,280.0 804.1,286.0 806.9,286.0 809.6,286.0 812.3,286.0 815.1,286.0 817.8,286.0 820.5,286.0 823.3,286.0 826.0,286.0 828.7,286.0 831.5,286.0 834.2,286.0 836.9,286.0 839.7,286.0 842.4,286.0 845.1,286.0 847.9,286.0 850.6,286.0 853.3,286.0 856.0,286.0 858.8,286.0 861.5,286.0 864.2,286.0 867.0,286.0 869.7,286.0 872.4,286.0 875.2,286.0 877.9,286.0 880.6,286.0 883.4,286.0 886.1,286.0 888.8,286.0 891.6,286.0 894.3,286.0 897.0,286.0 899.8,286.0 902.5,274.0 905.2,286.0 908.0,286.0 910.7,286.0 913.4,286.0 916.1,286.0 918.9,286.0 921.6,286.0 924.3,286.0 927.1,286.0 929.8,286.0 932.5,286.0 935.3,286.0 938.0,286.0"/><text x="42" y="308" font-size="11" fill="#9fb0d4">19/06 12:43</text><text x="938" y="308" text-anchor="end" font-size="11" fill="#9fb0d4">07/07 14:30</text></svg>