<svg xmlns="http://www.w3.org/2000/svg" viewBox="0 0 960 320" width="960" height="320" font-family="Segoe UI, system-ui, -apple-system, Roboto, Helvetica, Arial, sans-serif" role="img" aria-label="Availability history per region"><rect x="0.5" y="0.5" width="959" height="319" rx="14" fill="#ffffff" stroke="#dce3f1"/><text x="42" y="26" font-size="14" font-weight="600" fill="#14203a">History · 228 points</text><circle cx="47" cy="40" r="5" fill="#22c55e"/><text x="57" y="44" font-size="12" fill="#5a688a">Available</text><circle cx="139.8" cy="40" r="5" fill="#f59e0b"/><text x="149.8" y="44" font-size="12" fill="#5a688a">Saturated</text><circle cx="232.60000000000002" cy="40" r="5" fill="#ef4444"/><text x="242.60000000000002" y="44" font-size="12" fill="#5a688a">Error</text><circle cx="296.6" cy="40" r="5" fill="#a855f7"/><text x="306.6" y="44" font-size="12" fill="#5a688a">Timeout</text><line x1="42" y1="286.0" x2="938" y2="286.0" stroke="#eef2f7" stroke-width="1"/><text x="35" y="289.0" text-anchor="end" font-size="11" fill="#5a688a">0</text><line x1="42" y1="227.5" x2="938" y2="227.5" stroke="#eef2f7" stroke-width="1"/><text x="35" y="230.5" text-anchor="end" font-size="11" fill="#5a688a">10</text><line x1="42" y1="169.0" x2="938" y2="169.0" stroke="#eef2f7" stroke-width="1"/><text x="35" y="172.0" text-anchor="end" font-size="11" fill="#5a688a">20</text><line x1="42" y1="110.5" x2="938" y2="110.5" stroke="#eef2f7" stroke-width="1"/><text x="35" y="113.5" text-anchor="end" font-size="11" fill="#5a688a">29</text><line x1="42" y1="52.0" x2="938" y2="52.0" stroke="#eef2f7" stroke-width="1"/><text x="35" y="55.0" text-anchor="end" font-size="11" fill="#5a688a">39</text><polyline fill="none" stroke="#22c55e" stroke-width="2.5" stroke-linejoin="round" stroke-linecap="round" points="42.0,70.0 45.9,70.0 49.9,88.0 53.8,88.0 57.8,76.0 61.7,76.0 65.7,76.0 69.6,70.0 73.6,76.0 77.5,70.0 81.5,64.0 85.4,58.0 89.4,58.0 93.3,58.0 97.3,58.0 101.2,58.0 105.2,58.0 109.1,58.0 113.0,58.0 117.0,58.0 120.9,58.0 124.9,58.0 128.8,58.0 132.8,58.0 136.7,58.0 140.7,58.0 144.6,58.0 148.6,58.0 152.5,58.0 156.5,58.0 160.4,58.0 164.4,70.0 168.3,76.0 172.3,94.0 176.2,64.0 180.1,64.0 184.1,58.0 188.0,58.0 192.0,58.0 195.9,70.0 199.9,76.0 203.8,76.0 207.8,82.0 211.7,82.0 215.7,82.0 219.6,82.0 223.6,76.0 227.5,64.0 231.5,70.0 235.4,70.0 239.4,82.0 243.3,76.0 247.3,76.0 251.2,82.0 255.1,76.0 259.1,76.0 263.0,76.0 267.0,64.0 270.9,64.0 274.9,76.0 278.8,76.0 282.8,76.0 286.7,88.0 290.7,70.0 294.6,64.0 298.6,58.0 302.5,58.0 306.5,70.0 310.4,70.0 314.4,70.0 318.3,76.0 322.2,70.0 326.2,70.0 330.1,70.0 334.1,70.0 338.0,76.0 342.0,82.0 345.9,76.0 349.9,70.0 353.8,70.0 357.8,70.0 361.7,70.0 365.7,76.0 369.6,70.0 373.6,70.0 377.5,70.0 381.5,70.0 385.4,70.0 389.3,70.0 393.3,70.0 397.2,70.0 401.2,70.0 405.1,70.0 409.1,70.0 413.0,70.0 417.0,70.0 420.9,70.0 424.9,70.0 428.8,70.0 432.8,70.0 436.7,70.0 440.7,70.0 444.6,70.0 448.6,70.0 452.5,70.0 456.4,70.0 460.4,70.0 464.3,70.0 468.3,70.0 472.2,70.0 476.2,70.0 480.1,70.0 484.1,70.0 488.0,70.0 492.0,70.0 495.9,70.0 499.9,70.0 503.8,70.0 507.8,70.0 511.7,70.0 515.7,70.0 519.6,70.0 523.6,70.0 527.5,70.0 531.4,70.0 535.4,70.0 539.3,70.0 543.3,70.0 547.2,70.0 551.2,70.0 555.1,70.0 559.1,70.0 563.0,70.0 567.0,70.0 570.9,70.0 574.9,70.0 578.8,70.0 582.8,70.0 586.7,70.0 590.7,70.0 594.6,70.0 598.5,70.0 602.5,70.0 606.4,70.0 610.4,70.0 614.3,70.0 618.3,70.0 622.2,70.0 626.2,70.0 630.1,70.0 634.1,70.0 638.0,76.0 642.0,70.0 645.9,70.0 649.9,70.0 653.8,70.0 657.8,70.0 661.7,76.0 665.6,76.0 669.6,88.0 673.5,88.0 677.5,88.0 681.4,94.0 685.4,94.0 689.3,94.0 693.3,94.0 697.2,88.0 701.2,88.0 705.1,82.0 709.1,82.0 713.0,82.0 717.0,88.0 720.9,88.0 724.9,94.0 728.8,82.0 732.7,82.0 736.7,82.0 740.6,82.0 744.6,88.0 748.5,88.0 752.5,94.0 756.4,94.0 760.4,88.0 764.3,88.0 768.3,88.0 772.2,94.0 776.2,94.0 780.1,106.0 784.1,94.0 788.0,94.0 792.0,94.0 795.9,94.0 799.9,88.0 803.8,88.0 807.7,82.0 811.7,76.0 815.6,76.0 819.6,76.0 823.5,76.0 827.5,76.0 831.4,76.0 835.4,70.0 839.3,70.0 843.3,70.0 847.2,76.0 851.2,88.0 855.1,82.0 859.1,70.0 863.0,70.0 867.0,70.0 870.9,76.0 874.8,76.0 878.8,76.0 882.7,82.0 886.7,70.0 890.6,76.0 894.6,64.0 898.5,70.0 902.5,58.0 906.4,58.0 910.4,58.0 914.3,58.0 918.3,58.0 922.2,64.0 926.2,58.0 930.1,64.0 934.1,58.0 938.0,58.0"/><polyline fill="none" stroke="#f59e0b" stroke-width="2.5" stroke-linejoin="round" stroke-linecap="round" points="42.0,274.0 45.9,274.0 49.9,274.0 53.8,280.0 57.8,268.0 61.7,268.0 65.7,268.0 69.6,274.0 73.6,274.0 77.5,274.0 81.5,280.0 85.4,286.0 89.4,286.0 93.3,286.0 97.3,286.0 101.2,286.0 105.2,286.0 109.1,286.0 113.0,286.0 117.0,286.0 120.9,286.0 124.9,286.0 128.8,286.0 132.8,286.0 136.7,286.0 140.7,286.0 144.6,286.0 148.6,286.0 152.5,286.0 156.5,286.0 160.4,286.0 164.4,274.0 168.3,280.0 172.3,280.0 176.2,280.0 180.1,280.0 184.1,286.0 188.0,286.0 192.0,286.0 195.9,274.0 199.9,268.0 203.8,268.0 207.8,262.0 211.7,262.0 215.7,262.0 219.6,262.0 223.6,268.0 227.5,280.0 231.5,280.0 235.4,274.0 239.4,262.0 243.3,268.0 247.3,268.0 251.2,262.0 255.1,268.0 259.1,268.0 263.0,268.0 267.0,280.0 270.9,280.0 274.9,268.0 278.8,268.0 282.8,268.0 286.7,262.0 290.7,274.0 294.6,280.0 298.6,286.0 302.5,286.0 306.5,274.0 310.4,274.0 314.4,274.0 318.3,274.0 322.2,274.0 326.2,274.0 330.1,274.0 334.1,274.0 338.0,280.0 342.0,274.0 345.9,280.0 349.9,286.0 353.8,286.0 357.8,286.0 361.7,286.0 365.7,280.0 369.6,286.0 373.6,286.0 377.5,286.0 381.5,286.0 385.4,286.0 389.3,286.0 393.3,286.0 397.2,286.0 401.2,286.0 405.1,286.0 409.1,286.0 413.0,286.0 417.0,286.0 420.9,286.0 424.9,286.0 428.8,286.0 432.8,286.0 436.7,286.0 440.7,286.0 444.6,286.0 448.6,286.0 452.5,286.0 456.4,286.0 460.4,286.0 464.3,286.0 468.3,286.0 472.2,286.0 476.2,286.0 480.1,286.0 484.1,286.0 488.0,286.0 492.0,286.0 495.9,286.0 499.9,286.0 503.8,286.0 507.8,286.0 511.7,286.0 515.7,286.0 519.6,286.0 523.6,286.0 527.5,286.0 531.4,286.0 535.4,286.0 539.3,286.0 543.3,286.0 547.2,286.0 551.2,286.0 555.1,286.0 559.1,286.0 563.0,286.0 567.0,286.0 570.9,286.0 574.9,286.0 578.8,286.0 582.8,286.0 586.7,286.0 590.7,286.0 594.6,286.0 598.5,286.0 602.5,286.0 606.4,286.0 610.4,286.0 614.3,286.0 618.3,286.0 622.2,286.0 626.2,286.0 630.1,286.0 634.1,286.0 638.0,286.0 642.0,286.0 645.9,286.0 649.9,286.0 653.8,286.0 657.8,286.0 661.7,286.0 665.6,280.0 669.6,268.0 673.5,268.0 677.5,268.0 681.4,268.0 685.4,262.0 689.3,262.0 693.3,262.0 697.2,268.0 701.2,268.0 705.1,274.0 709.1,274.0 713.0,274.0 717.0,268.0 720.9,268.0 724.9,268.0 728.8,274.0 732.7,274.0 736.7,274.0 740.6,274.0 744.6,268.0 748.5,268.0 752.5,262.0 756.4,262.0 760.4,268.0 764.3,268.0 768.3,268.0 772.2,262.0 776.2,262.0 780.1,274.0 784.1,262.0 788.0,262.0 792.0,262.0 795.9,262.0 799.9,268.0 803.8,268.0 807.7,274.0 811.7,280.0 815.6,280.0 819.6,280.0 823.5,280.0 827.5,280.0 831.4,280.0 835.4,286.0 839.3,286.0 843.3,286.0 847.2,280.0 851.2,274.0 855.1,274.0 859.1,280.0 863.0,274.0 867.0,274.0 870.9,268.0 874.8,268.0 878.8,268.0 882.7,268.0 886.7,280.0 890.6,274.0 894.6,280.0 898.5,280.0 902.5,286.0 906.4,286.0 910.4,286.0 914.3,286.0 918.3,286.0 922.2,286.0 926.2,286.0 930.1,286.0 934.1,286.0 938.0,286.0"/><polyline fill="none" stroke="#ef4444" stroke-width="2.5" stroke-linejoin="round" stroke-linecap="round" points="42.0,280.0 45.9,280.0 49.9,268.0 53.8,262.0 57.8,286.0 61.7,286.0 65.7,286.0 69.6,286.0 73.6,280.0 77.5,286.0 81.5,286.0 85.4,286.0 89.4,286.0 93.3,286.0 97.3,286.0 101.2,286.0 105.2,286.0 109.1,286.0 113.0,286.0 117.0,286.0 120.9,286.0 124.9,286.0 128.8,286.0 132.8,286.0 136.7,286.0 140.7,286.0 144.6,286.0 148.6,286.0 152.5,286.0 156.5,286.0 160.4,286.0 164.4,286.0 168.3,274.0 172.3,256.0 176.2,286.0 180.1,286.0 184.1,286.0 188.0,286.0 192.0,286.0 195.9,286.0 199.9,286.0 203.8,286.0 207.8,286.0 211.7,286.0 215.7,286.0 219.6,286.0 223.6,286.0 227.5,286.0 231.5,280.0 235.4,286.0 239.4,286.0 243.3,286.0 247.3,286.0 251.2,286.0 255.1,286.0 259.1,286.0 263.0,286.0 267.0,286.0 270.9,286.0 274.9,286.0 278.8,286.0 282.8,286.0 286.7,280.0 290.7,286.0 294.6,286.0 298.6,286.0 302.5,286.0 306.5,286.0 310.4,286.0 314.4,286.0 318.3,286.0 322.2,286.0 326.2,286.0 330.1,286.0 334.1,286.0 338.0,274.0 342.0,274.0 345.9,274.0 349.9,274.0 353.8,274.0 357.8,274.0 361.7,274.0 365.7,274.0 369.6,274.0 373.6,274.0 377.5,274.0 381.5,274.0 385.4,274.0 389.3,274.0 393.3,274.0 397.2,274.0 401.2,274.0 405.1,274.0 409.1,274.0 413.0,274.0 417.0,274.0 420.9,274.0 424.9,274.0 428.8,274.0 432.8,274.0 436.7,274.0 440.7,274.0 444.6,274.0 448.6,274.0 452.5,274.0 456.4,274.0 460.4,274.0 464.3,274.0 468.3,274.0 472.2,274.0 476.2,274.0 480.1,274.0 484.1,274.0 488.0,274.0 492.0,274.0 495.9,274.0 499.9,274.0 503.8,274.0 507.8,274.0 511.7,274.0 515.7,274.0 519.6,274.0 523.6,274.0 527.5,274.0 531.4,274.0 535.4,274.0 539.3,274.0 543.3,274.0 547.2,274.0 551.2,274.0 555.1,274.0 559.1,274.0 563.0,274.0 567.0,274.0 570.9,274.0 574.9,274.0 578.8,274.0 582.8,274.0 586.7,274.0 590.7,274.0 594.6,274.0 598.5,274.0 602.5,274.0 606.4,274.0 610.4,274.0 614.3,274.0 618.3,274.0 622.2,274.0 626.2,274.0 630.1,274.0 634.1,274.0 638.0,268.0 642.0,274.0 645.9,274.0 649.9,274.0 653.8,274.0 657.8,274.0 661.7,274.0 665.6,274.0 669.6,274.0 673.5,274.0 677.5,274.0 681.4,268.0 685.4,274.0 689.3,274.0 693.3,274.0 697.2,274.0 701.2,274.0 705.1,274.0 709.1,274.0 713.0,274.0 717.0,274.0 720.9,274.0 724.9,268.0 728.8,274.0 732.7,274.0 736.7,274.0 740.6,274.0 744.6,274.0 748.5,274.0 752.5,274.0 756.4,274.0 760.4,274.0 764.3,274.0 768.3,274.0 772.2,274.0 776.2,274.0 780.1,250.0 784.1,274.0 788.0,274.0 792.0,274.0 795.9,274.0 799.9,274.0 803.8,274.0 807.7,274.0 811.7,274.0 815.6,274.0 819.6,274.0 823.5,274.0 827.5,274.0 831.4,274.0 835.4,274.0 839.3,274.0 843.3,274.0 847.2,274.0 851.2,268.0 855.1,274.0 859.1,280.0 863.0,286.0 867.0,286.0 870.9,286.0 874.8,286.0 878.8,286.0 882.7,280.0 886.7,280.0 890.6,286.0 894.6,286.0 898.5,280.0 902.5,286.0 906.4,286.0 910.4,286.0 914.3,286.0 918.3,286.0 922.2,280.0 926.2,286.0 930.1,286.0 934.1,286.0 938.0,286.0"/><polyline fill="none" stroke="#a855f7" stroke-width="2.5" stroke-linejoin="round" stroke-linecap="round" points="42.0,286.0 45.9,286.0 49.9,286.0 53.8,286.0 57.8,286.0 61.7,286.0 65.7,286.0 69.6,286.0 73.6,286.0 77.5,286.0 81.5,286.0 85.4,286.0 89.4,286.0 93.3,286.0 97.3,286.0 101.2,286.0 105.2,286.0 109.1,286.0 113.0,286.0 117.0,286.0 120.9,286.0 124.9,286.0 128.8,286.0 132.8,286.0 136.7,286.0 140.7,286.0 144.6,286.0 148.6,286.0 152.5,286.0 156.5,286.0 160.4,286.0 164.4,286.0 168.3,286.0 172.3,286.0 176.2,286.0 180.1,286.0 184.1,286.0 188.0,286.0 192.0,286.0 195.9,286.0 199.9,286.0 203.8,286.0 207.8,286.0 211.7,286.0 215.7,286.0 219.6,286.0 223.6,286.0 227.5,286.0 231.5,286.0 235.4,286.0 239.4,286.0 243.3,286.0 247.3,286.0 251.2,286.0 255.1,286.0 259.1,286.0 263.0,286.0 267.0,286.0 270.9,286.0 274.9,286.0 278.8,286.0 282.8,286.0 286.7,286.0 290.7,286.0 294.6,286.0 298.6,286.0 302.5,286.0 306.5,286.0 310.4,286.0 314.4,286.0 318.3,280.0 322.2,286.0 326.2,286.0 330.1,286.0 334.1,286.0 338.0,286.0 342.0,286.0 345.9,286.0 349.9,286.0 353.8,286.0 357.8,286.0 361.7,286.0 365.7,286.0 369.6,286.0 373.6,286.0 377.5,286.0 381.5,286.0 385.4,286.0 389.3,286.0 393.3,286.0 397.2,286.0 401.2,286.0 405.1,286.0 409.1,286.0 413.0,286.0 417.0,286.0 420.9,286.0 424.9,286.0 428.8,286.0 432.8,286.0 436.7,286.0 440.7,286.0 444.6,286.0 448.6,286.0 452.5,286.0 456.4,286.0 460.4,286.0 464.3,286.0 468.3,286.0 472.2,286.0 476.2,286.0 480.1,286.0 484.1,286.0 488.0,286.0 492.0,286.0 495.9,286.0 499.9,286.0 503.8,286.0 507.8,286.0 511.7,286.0 515.7,286.0 519.6,286.0 523.6,286.0 527.5,286.0 531.4,286.0 535.4,286.0 539.3,286.0 543.3,286.0 547.2,286.0 551.2,286.0 555.1,286.0 559.1,286.0 563.0,286.0 567.0,286.0 570.9,286.0 574.9,286.0 578.8,286.0 582.8,286.0 586.7,286.0 590.7,286.0 594.6,286.0 598.5,286.0 602.5,286.0 606.4,286.0 610.4,286.0 614.3,286.0 618.3,286.0 622.2,286.0 626.2,286.0 630.1,286.0 634.1,286.0 638.0,286.0 642.0,286.0 645.9,286.0 649.9,286.0 653.8,286.0 657.8,286.0 661.7,280.0 665.6,286.0 669.6,286.0 673.5,286.0 677.5,286.0 681.4,286.0 685.4,286.0 689.3,286.0 693.3,286.0 697.2,286.0 701.2,286.0 705.1,286.0 709.1,286.0 713.0,286.0 717.0,286.0 720.9,286.0 724.9,286.0 728.8,286.0 732.7,286.0 736.7,286.0 740.6,286.0 744.6,286.0 748.5,286.0 752.5,286.0 756.4,286.0 760.4,286.0 764.3,286.0 768.3,286.0 772.2,286.0 776.2,286.0 780.1,286.0 784.1,286.0 788.0,286.0 792.0,286.0 795.9,286.0 799.9,286.0 803.8,286.0 807.7,286.0 811.7,286.0 815.6,286.0 819.6,286.0 823.5,286.0 827.5,286.0 831.4,286.0 835.4,286.0 839.3,286.0 843.3,286.0 847.2,286.0 851.2,286.0 855.1,286.0 859.1,286.0 863.0,286.0 867.0,286.0 870.9,286.0 874.8,286.0 878.8,286.0 882.7,286.0 886.7,286.0 890.6,280.0 894.6,286.0 898.5,286.0 902.5,286.0 906.4,286.0 910.4,286.0 914.3,286.0 918.3,286.0 922.2,286.0 926.2,286.0 930.1,280.0 934.1,286.0 938.0,286.0"/><text x="42" y="308" font-size="11" fill="#5a688a">19/06 12:43</text><text x="938" y="308" text-anchor="end" font-size="11" fill="#5a688a">02/07 06:31</text></svg>