<svg xmlns="http://www.w3.org/2000/svg" viewBox="0 0 960 320" width="960" height="320" font-family="Segoe UI, system-ui, -apple-system, Roboto, Helvetica, Arial, sans-serif" role="img" aria-label="Availability history per region"><rect x="0.5" y="0.5" width="959" height="319" rx="14" fill="#ffffff" stroke="#dce3f1"/><text x="42" y="26" font-size="14" font-weight="600" fill="#14203a">History · 109 points</text><circle cx="47" cy="40" r="5" fill="#22c55e"/><text x="57" y="44" font-size="12" fill="#5a688a">Available</text><circle cx="139.8" cy="40" r="5" fill="#f59e0b"/><text x="149.8" y="44" font-size="12" fill="#5a688a">Saturated</text><circle cx="232.60000000000002" cy="40" r="5" fill="#ef4444"/><text x="242.60000000000002" y="44" font-size="12" fill="#5a688a">Error</text><circle cx="296.6" cy="40" r="5" fill="#a855f7"/><text x="306.6" y="44" font-size="12" fill="#5a688a">Timeout</text><line x1="42" y1="286.0" x2="938" y2="286.0" stroke="#eef2f7" stroke-width="1"/><text x="35" y="289.0" text-anchor="end" font-size="11" fill="#5a688a">0</text><line x1="42" y1="227.5" x2="938" y2="227.5" stroke="#eef2f7" stroke-width="1"/><text x="35" y="230.5" text-anchor="end" font-size="11" fill="#5a688a">10</text><line x1="42" y1="169.0" x2="938" y2="169.0" stroke="#eef2f7" stroke-width="1"/><text x="35" y="172.0" text-anchor="end" font-size="11" fill="#5a688a">20</text><line x1="42" y1="110.5" x2="938" y2="110.5" stroke="#eef2f7" stroke-width="1"/><text x="35" y="113.5" text-anchor="end" font-size="11" fill="#5a688a">29</text><line x1="42" y1="52.0" x2="938" y2="52.0" stroke="#eef2f7" stroke-width="1"/><text x="35" y="55.0" text-anchor="end" font-size="11" fill="#5a688a">39</text><polyline fill="none" stroke="#22c55e" stroke-width="2.5" stroke-linejoin="round" stroke-linecap="round" points="42.0,70.0 50.3,70.0 58.6,88.0 66.9,88.0 75.2,76.0 83.5,76.0 91.8,76.0 100.1,70.0 108.4,76.0 116.7,70.0 125.0,64.0 133.3,58.0 141.6,58.0 149.9,58.0 158.1,58.0 166.4,58.0 174.7,58.0 183.0,58.0 191.3,58.0 199.6,58.0 207.9,58.0 216.2,58.0 224.5,58.0 232.8,58.0 241.1,58.0 249.4,58.0 257.7,58.0 266.0,58.0 274.3,58.0 282.6,58.0 290.9,58.0 299.2,70.0 307.5,76.0 315.8,94.0 324.1,64.0 332.4,64.0 340.7,58.0 349.0,58.0 357.3,58.0 365.6,70.0 373.9,76.0 382.1,76.0 390.4,82.0 398.7,82.0 407.0,82.0 415.3,82.0 423.6,76.0 431.9,64.0 440.2,70.0 448.5,70.0 456.8,82.0 465.1,76.0 473.4,76.0 481.7,82.0 490.0,76.0 498.3,76.0 506.6,76.0 514.9,64.0 523.2,64.0 531.5,76.0 539.8,76.0 548.1,76.0 556.4,88.0 564.7,70.0 573.0,64.0 581.3,58.0 589.6,58.0 597.9,70.0 606.1,70.0 614.4,70.0 622.7,76.0 631.0,70.0 639.3,70.0 647.6,70.0 655.9,70.0 664.2,76.0 672.5,82.0 680.8,76.0 689.1,70.0 697.4,70.0 705.7,70.0 714.0,70.0 722.3,76.0 730.6,70.0 738.9,70.0 747.2,70.0 755.5,70.0 763.8,70.0 772.1,70.0 780.4,70.0 788.7,70.0 797.0,70.0 805.3,70.0 813.6,70.0 821.9,70.0 830.1,70.0 838.4,70.0 846.7,70.0 855.0,70.0 863.3,70.0 871.6,70.0 879.9,70.0 888.2,70.0 896.5,70.0 904.8,70.0 913.1,70.0 921.4,70.0 929.7,70.0 938.0,70.0"/><polyline fill="none" stroke="#f59e0b" stroke-width="2.5" stroke-linejoin="round" stroke-linecap="round" points="42.0,274.0 50.3,274.0 58.6,274.0 66.9,280.0 75.2,268.0 83.5,268.0 91.8,268.0 100.1,274.0 108.4,274.0 116.7,274.0 125.0,280.0 133.3,286.0 141.6,286.0 149.9,286.0 158.1,286.0 166.4,286.0 174.7,286.0 183.0,286.0 191.3,286.0 199.6,286.0 207.9,286.0 216.2,286.0 224.5,286.0 232.8,286.0 241.1,286.0 249.4,286.0 257.7,286.0 266.0,286.0 274.3,286.0 282.6,286.0 290.9,286.0 299.2,274.0 307.5,280.0 315.8,280.0 324.1,280.0 332.4,280.0 340.7,286.0 349.0,286.0 357.3,286.0 365.6,274.0 373.9,268.0 382.1,268.0 390.4,262.0 398.7,262.0 407.0,262.0 415.3,262.0 423.6,268.0 431.9,280.0 440.2,280.0 448.5,274.0 456.8,262.0 465.1,268.0 473.4,268.0 481.7,262.0 490.0,268.0 498.3,268.0 506.6,268.0 514.9,280.0 523.2,280.0 531.5,268.0 539.8,268.0 548.1,268.0 556.4,262.0 564.7,274.0 573.0,280.0 581.3,286.0 589.6,286.0 597.9,274.0 606.1,274.0 614.4,274.0 622.7,274.0 631.0,274.0 639.3,274.0 647.6,274.0 655.9,274.0 664.2,280.0 672.5,274.0 680.8,280.0 689.1,286.0 697.4,286.0 705.7,286.0 714.0,286.0 722.3,280.0 730.6,286.0 738.9,286.0 747.2,286.0 755.5,286.0 763.8,286.0 772.1,286.0 780.4,286.0 788.7,286.0 797.0,286.0 805.3,286.0 813.6,286.0 821.9,286.0 830.1,286.0 838.4,286.0 846.7,286.0 855.0,286.0 863.3,286.0 871.6,286.0 879.9,286.0 888.2,286.0 896.5,286.0 904.8,286.0 913.1,286.0 921.4,286.0 929.7,286.0 938.0,286.0"/><polyline fill="none" stroke="#ef4444" stroke-width="2.5" stroke-linejoin="round" stroke-linecap="round" points="42.0,280.0 50.3,280.0 58.6,268.0 66.9,262.0 75.2,286.0 83.5,286.0 91.8,286.0 100.1,286.0 108.4,280.0 116.7,286.0 125.0,286.0 133.3,286.0 141.6,286.0 149.9,286.0 158.1,286.0 166.4,286.0 174.7,286.0 183.0,286.0 191.3,286.0 199.6,286.0 207.9,286.0 216.2,286.0 224.5,286.0 232.8,286.0 241.1,286.0 249.4,286.0 257.7,286.0 266.0,286.0 274.3,286.0 282.6,286.0 290.9,286.0 299.2,286.0 307.5,274.0 315.8,256.0 324.1,286.0 332.4,286.0 340.7,286.0 349.0,286.0 357.3,286.0 365.6,286.0 373.9,286.0 382.1,286.0 390.4,286.0 398.7,286.0 407.0,286.0 415.3,286.0 423.6,286.0 431.9,286.0 440.2,280.0 448.5,286.0 456.8,286.0 465.1,286.0 473.4,286.0 481.7,286.0 490.0,286.0 498.3,286.0 506.6,286.0 514.9,286.0 523.2,286.0 531.5,286.0 539.8,286.0 548.1,286.0 556.4,280.0 564.7,286.0 573.0,286.0 581.3,286.0 589.6,286.0 597.9,286.0 606.1,286.0 614.4,286.0 622.7,286.0 631.0,286.0 639.3,286.0 647.6,286.0 655.9,286.0 664.2,274.0 672.5,274.0 680.8,274.0 689.1,274.0 697.4,274.0 705.7,274.0 714.0,274.0 722.3,274.0 730.6,274.0 738.9,274.0 747.2,274.0 755.5,274.0 763.8,274.0 772.1,274.0 780.4,274.0 788.7,274.0 797.0,274.0 805.3,274.0 813.6,274.0 821.9,274.0 830.1,274.0 838.4,274.0 846.7,274.0 855.0,274.0 863.3,274.0 871.6,274.0 879.9,274.0 888.2,274.0 896.5,274.0 904.8,274.0 913.1,274.0 921.4,274.0 929.7,274.0 938.0,274.0"/><polyline fill="none" stroke="#a855f7" stroke-width="2.5" stroke-linejoin="round" stroke-linecap="round" points="42.0,286.0 50.3,286.0 58.6,286.0 66.9,286.0 75.2,286.0 83.5,286.0 91.8,286.0 100.1,286.0 108.4,286.0 116.7,286.0 125.0,286.0 133.3,286.0 141.6,286.0 149.9,286.0 158.1,286.0 166.4,286.0 174.7,286.0 183.0,286.0 191.3,286.0 199.6,286.0 207.9,286.0 216.2,286.0 224.5,286.0 232.8,286.0 241.1,286.0 249.4,286.0 257.7,286.0 266.0,286.0 274.3,286.0 282.6,286.0 290.9,286.0 299.2,286.0 307.5,286.0 315.8,286.0 324.1,286.0 332.4,286.0 340.7,286.0 349.0,286.0 357.3,286.0 365.6,286.0 373.9,286.0 382.1,286.0 390.4,286.0 398.7,286.0 407.0,286.0 415.3,286.0 423.6,286.0 431.9,286.0 440.2,286.0 448.5,286.0 456.8,286.0 465.1,286.0 473.4,286.0 481.7,286.0 490.0,286.0 498.3,286.0 506.6,286.0 514.9,286.0 523.2,286.0 531.5,286.0 539.8,286.0 548.1,286.0 556.4,286.0 564.7,286.0 573.0,286.0 581.3,286.0 589.6,286.0 597.9,286.0 606.1,286.0 614.4,286.0 622.7,280.0 631.0,286.0 639.3,286.0 647.6,286.0 655.9,286.0 664.2,286.0 672.5,286.0 680.8,286.0 689.1,286.0 697.4,286.0 705.7,286.0 714.0,286.0 722.3,286.0 730.6,286.0 738.9,286.0 747.2,286.0 755.5,286.0 763.8,286.0 772.1,286.0 780.4,286.0 788.7,286.0 797.0,286.0 805.3,286.0 813.6,286.0 821.9,286.0 830.1,286.0 838.4,286.0 846.7,286.0 855.0,286.0 863.3,286.0 871.6,286.0 879.9,286.0 888.2,286.0 896.5,286.0 904.8,286.0 913.1,286.0 921.4,286.0 929.7,286.0 938.0,286.0"/><text x="42" y="308" font-size="11" fill="#5a688a">19/06 12:43</text><text x="938" y="308" text-anchor="end" font-size="11" fill="#5a688a">27/06 19:57</text></svg>