<svg xmlns="http://www.w3.org/2000/svg" viewBox="0 0 960 320" width="960" height="320" font-family="Segoe UI, system-ui, -apple-system, Roboto, Helvetica, Arial, sans-serif" role="img" aria-label="Availability history per region"><rect x="0.5" y="0.5" width="959" height="319" rx="14" fill="#0d1117" stroke="#2c3a5e"/><text x="42" y="26" font-size="14" font-weight="600" fill="#e6ecff">History · 282 points</text><circle cx="47" cy="40" r="5" fill="#22c55e"/><text x="57" y="44" font-size="12" fill="#9fb0d4">Available</text><circle cx="139.8" cy="40" r="5" fill="#f59e0b"/><text x="149.8" y="44" font-size="12" fill="#9fb0d4">Saturated</text><circle cx="232.60000000000002" cy="40" r="5" fill="#ef4444"/><text x="242.60000000000002" y="44" font-size="12" fill="#9fb0d4">Error</text><circle cx="296.6" cy="40" r="5" fill="#a855f7"/><text x="306.6" y="44" font-size="12" fill="#9fb0d4">Timeout</text><line x1="42" y1="286.0" x2="938" y2="286.0" stroke="#21304f" stroke-width="1"/><text x="35" y="289.0" text-anchor="end" font-size="11" fill="#9fb0d4">0</text><line x1="42" y1="227.5" x2="938" y2="227.5" stroke="#21304f" stroke-width="1"/><text x="35" y="230.5" text-anchor="end" font-size="11" fill="#9fb0d4">10</text><line x1="42" y1="169.0" x2="938" y2="169.0" stroke="#21304f" stroke-width="1"/><text x="35" y="172.0" text-anchor="end" font-size="11" fill="#9fb0d4">20</text><line x1="42" y1="110.5" x2="938" y2="110.5" stroke="#21304f" stroke-width="1"/><text x="35" y="113.5" text-anchor="end" font-size="11" fill="#9fb0d4">29</text><line x1="42" y1="52.0" x2="938" y2="52.0" stroke="#21304f" stroke-width="1"/><text x="35" y="55.0" text-anchor="end" font-size="11" fill="#9fb0d4">39</text><polyline fill="none" stroke="#22c55e" stroke-width="2.5" stroke-linejoin="round" stroke-linecap="round" points="42.0,70.0 45.2,70.0 48.4,88.0 51.6,88.0 54.8,76.0 57.9,76.0 61.1,76.0 64.3,70.0 67.5,76.0 70.7,70.0 73.9,64.0 77.1,58.0 80.3,58.0 83.5,58.0 86.6,58.0 89.8,58.0 93.0,58.0 96.2,58.0 99.4,58.0 102.6,58.0 105.8,58.0 109.0,58.0 112.1,58.0 115.3,58.0 118.5,58.0 121.7,58.0 124.9,58.0 128.1,58.0 131.3,58.0 134.5,58.0 137.7,58.0 140.8,70.0 144.0,76.0 147.2,94.0 150.4,64.0 153.6,64.0 156.8,58.0 160.0,58.0 163.2,58.0 166.4,70.0 169.5,76.0 172.7,76.0 175.9,82.0 179.1,82.0 182.3,82.0 185.5,82.0 188.7,76.0 191.9,64.0 195.1,70.0 198.2,70.0 201.4,82.0 204.6,76.0 207.8,76.0 211.0,82.0 214.2,76.0 217.4,76.0 220.6,76.0 223.8,64.0 226.9,64.0 230.1,76.0 233.3,76.0 236.5,76.0 239.7,88.0 242.9,70.0 246.1,64.0 249.3,58.0 252.4,58.0 255.6,70.0 258.8,70.0 262.0,70.0 265.2,76.0 268.4,70.0 271.6,70.0 274.8,70.0 278.0,70.0 281.1,76.0 284.3,82.0 287.5,76.0 290.7,70.0 293.9,70.0 297.1,70.0 300.3,70.0 303.5,76.0 306.7,70.0 309.8,70.0 313.0,70.0 316.2,70.0 319.4,70.0 322.6,70.0 325.8,70.0 329.0,70.0 332.2,70.0 335.4,70.0 338.5,70.0 341.7,70.0 344.9,70.0 348.1,70.0 351.3,70.0 354.5,70.0 357.7,70.0 360.9,70.0 364.0,70.0 367.2,70.0 370.4,70.0 373.6,70.0 376.8,70.0 380.0,70.0 383.2,70.0 386.4,70.0 389.6,70.0 392.7,70.0 395.9,70.0 399.1,70.0 402.3,70.0 405.5,70.0 408.7,70.0 411.9,70.0 415.1,70.0 418.3,70.0 421.4,70.0 424.6,70.0 427.8,70.0 431.0,70.0 434.2,70.0 437.4,70.0 440.6,70.0 443.8,70.0 447.0,70.0 450.1,70.0 453.3,70.0 456.5,70.0 459.7,70.0 462.9,70.0 466.1,70.0 469.3,70.0 472.5,70.0 475.7,70.0 478.8,70.0 482.0,70.0 485.2,70.0 488.4,70.0 491.6,70.0 494.8,70.0 498.0,70.0 501.2,70.0 504.3,70.0 507.5,70.0 510.7,70.0 513.9,70.0 517.1,70.0 520.3,70.0 523.5,76.0 526.7,70.0 529.9,70.0 533.0,70.0 536.2,70.0 539.4,70.0 542.6,76.0 545.8,76.0 549.0,88.0 552.2,88.0 555.4,88.0 558.6,94.0 561.7,94.0 564.9,94.0 568.1,94.0 571.3,88.0 574.5,88.0 577.7,82.0 580.9,82.0 584.1,82.0 587.3,88.0 590.4,88.0 593.6,94.0 596.8,82.0 600.0,82.0 603.2,82.0 606.4,82.0 609.6,88.0 612.8,88.0 616.0,94.0 619.1,94.0 622.3,88.0 625.5,88.0 628.7,88.0 631.9,94.0 635.1,94.0 638.3,106.0 641.5,94.0 644.6,94.0 647.8,94.0 651.0,94.0 654.2,88.0 657.4,88.0 660.6,82.0 663.8,76.0 667.0,76.0 670.2,76.0 673.3,76.0 676.5,76.0 679.7,76.0 682.9,70.0 686.1,70.0 689.3,70.0 692.5,76.0 695.7,88.0 698.9,82.0 702.0,70.0 705.2,70.0 708.4,70.0 711.6,76.0 714.8,76.0 718.0,76.0 721.2,82.0 724.4,70.0 727.6,76.0 730.7,64.0 733.9,70.0 737.1,58.0 740.3,58.0 743.5,58.0 746.7,58.0 749.9,58.0 753.1,64.0 756.2,58.0 759.4,64.0 762.6,58.0 765.8,58.0 769.0,58.0 772.2,58.0 775.4,64.0 778.6,64.0 781.8,64.0 784.9,76.0 788.1,70.0 791.3,82.0 794.5,70.0 797.7,76.0 800.9,58.0 804.1,64.0 807.3,58.0 810.5,64.0 813.6,58.0 816.8,58.0 820.0,58.0 823.2,64.0 826.4,70.0 829.6,64.0 832.8,64.0 836.0,64.0 839.2,70.0 842.3,70.0 845.5,64.0 848.7,70.0 851.9,70.0 855.1,70.0 858.3,58.0 861.5,58.0 864.7,58.0 867.9,58.0 871.0,58.0 874.2,64.0 877.4,58.0 880.6,58.0 883.8,58.0 887.0,58.0 890.2,58.0 893.4,58.0 896.5,58.0 899.7,58.0 902.9,64.0 906.1,58.0 909.3,58.0 912.5,58.0 915.7,58.0 918.9,58.0 922.1,58.0 925.2,58.0 928.4,64.0 931.6,58.0 934.8,58.0 938.0,58.0"/><polyline fill="none" stroke="#f59e0b" stroke-width="2.5" stroke-linejoin="round" stroke-linecap="round" points="42.0,274.0 45.2,274.0 48.4,274.0 51.6,280.0 54.8,268.0 57.9,268.0 61.1,268.0 64.3,274.0 67.5,274.0 70.7,274.0 73.9,280.0 77.1,286.0 80.3,286.0 83.5,286.0 86.6,286.0 89.8,286.0 93.0,286.0 96.2,286.0 99.4,286.0 102.6,286.0 105.8,286.0 109.0,286.0 112.1,286.0 115.3,286.0 118.5,286.0 121.7,286.0 124.9,286.0 128.1,286.0 131.3,286.0 134.5,286.0 137.7,286.0 140.8,274.0 144.0,280.0 147.2,280.0 150.4,280.0 153.6,280.0 156.8,286.0 160.0,286.0 163.2,286.0 166.4,274.0 169.5,268.0 172.7,268.0 175.9,262.0 179.1,262.0 182.3,262.0 185.5,262.0 188.7,268.0 191.9,280.0 195.1,280.0 198.2,274.0 201.4,262.0 204.6,268.0 207.8,268.0 211.0,262.0 214.2,268.0 217.4,268.0 220.6,268.0 223.8,280.0 226.9,280.0 230.1,268.0 233.3,268.0 236.5,268.0 239.7,262.0 242.9,274.0 246.1,280.0 249.3,286.0 252.4,286.0 255.6,274.0 258.8,274.0 262.0,274.0 265.2,274.0 268.4,274.0 271.6,274.0 274.8,274.0 278.0,274.0 281.1,280.0 284.3,274.0 287.5,280.0 290.7,286.0 293.9,286.0 297.1,286.0 300.3,286.0 303.5,280.0 306.7,286.0 309.8,286.0 313.0,286.0 316.2,286.0 319.4,286.0 322.6,286.0 325.8,286.0 329.0,286.0 332.2,286.0 335.4,286.0 338.5,286.0 341.7,286.0 344.9,286.0 348.1,286.0 351.3,286.0 354.5,286.0 357.7,286.0 360.9,286.0 364.0,286.0 367.2,286.0 370.4,286.0 373.6,286.0 376.8,286.0 380.0,286.0 383.2,286.0 386.4,286.0 389.6,286.0 392.7,286.0 395.9,286.0 399.1,286.0 402.3,286.0 405.5,286.0 408.7,286.0 411.9,286.0 415.1,286.0 418.3,286.0 421.4,286.0 424.6,286.0 427.8,286.0 431.0,286.0 434.2,286.0 437.4,286.0 440.6,286.0 443.8,286.0 447.0,286.0 450.1,286.0 453.3,286.0 456.5,286.0 459.7,286.0 462.9,286.0 466.1,286.0 469.3,286.0 472.5,286.0 475.7,286.0 478.8,286.0 482.0,286.0 485.2,286.0 488.4,286.0 491.6,286.0 494.8,286.0 498.0,286.0 501.2,286.0 504.3,286.0 507.5,286.0 510.7,286.0 513.9,286.0 517.1,286.0 520.3,286.0 523.5,286.0 526.7,286.0 529.9,286.0 533.0,286.0 536.2,286.0 539.4,286.0 542.6,286.0 545.8,280.0 549.0,268.0 552.2,268.0 555.4,268.0 558.6,268.0 561.7,262.0 564.9,262.0 568.1,262.0 571.3,268.0 574.5,268.0 577.7,274.0 580.9,274.0 584.1,274.0 587.3,268.0 590.4,268.0 593.6,268.0 596.8,274.0 600.0,274.0 603.2,274.0 606.4,274.0 609.6,268.0 612.8,268.0 616.0,262.0 619.1,262.0 622.3,268.0 625.5,268.0 628.7,268.0 631.9,262.0 635.1,262.0 638.3,274.0 641.5,262.0 644.6,262.0 647.8,262.0 651.0,262.0 654.2,268.0 657.4,268.0 660.6,274.0 663.8,280.0 667.0,280.0 670.2,280.0 673.3,280.0 676.5,280.0 679.7,280.0 682.9,286.0 686.1,286.0 689.3,286.0 692.5,280.0 695.7,274.0 698.9,274.0 702.0,280.0 705.2,274.0 708.4,274.0 711.6,268.0 714.8,268.0 718.0,268.0 721.2,268.0 724.4,280.0 727.6,274.0 730.7,280.0 733.9,280.0 737.1,286.0 740.3,286.0 743.5,286.0 746.7,286.0 749.9,286.0 753.1,286.0 756.2,286.0 759.4,286.0 762.6,286.0 765.8,286.0 769.0,286.0 772.2,286.0 775.4,280.0 778.6,280.0 781.8,280.0 784.9,268.0 788.1,280.0 791.3,268.0 794.5,274.0 797.7,274.0 800.9,286.0 804.1,280.0 807.3,286.0 810.5,280.0 813.6,286.0 816.8,286.0 820.0,286.0 823.2,280.0 826.4,274.0 829.6,280.0 832.8,280.0 836.0,280.0 839.2,274.0 842.3,274.0 845.5,280.0 848.7,280.0 851.9,280.0 855.1,280.0 858.3,286.0 861.5,286.0 864.7,286.0 867.9,286.0 871.0,286.0 874.2,286.0 877.4,286.0 880.6,286.0 883.8,286.0 887.0,286.0 890.2,286.0 893.4,286.0 896.5,286.0 899.7,286.0 902.9,286.0 906.1,286.0 909.3,286.0 912.5,286.0 915.7,286.0 918.9,286.0 922.1,286.0 925.2,286.0 928.4,286.0 931.6,286.0 934.8,286.0 938.0,286.0"/><polyline fill="none" stroke="#ef4444" stroke-width="2.5" stroke-linejoin="round" stroke-linecap="round" points="42.0,280.0 45.2,280.0 48.4,268.0 51.6,262.0 54.8,286.0 57.9,286.0 61.1,286.0 64.3,286.0 67.5,280.0 70.7,286.0 73.9,286.0 77.1,286.0 80.3,286.0 83.5,286.0 86.6,286.0 89.8,286.0 93.0,286.0 96.2,286.0 99.4,286.0 102.6,286.0 105.8,286.0 109.0,286.0 112.1,286.0 115.3,286.0 118.5,286.0 121.7,286.0 124.9,286.0 128.1,286.0 131.3,286.0 134.5,286.0 137.7,286.0 140.8,286.0 144.0,274.0 147.2,256.0 150.4,286.0 153.6,286.0 156.8,286.0 160.0,286.0 163.2,286.0 166.4,286.0 169.5,286.0 172.7,286.0 175.9,286.0 179.1,286.0 182.3,286.0 185.5,286.0 188.7,286.0 191.9,286.0 195.1,280.0 198.2,286.0 201.4,286.0 204.6,286.0 207.8,286.0 211.0,286.0 214.2,286.0 217.4,286.0 220.6,286.0 223.8,286.0 226.9,286.0 230.1,286.0 233.3,286.0 236.5,286.0 239.7,280.0 242.9,286.0 246.1,286.0 249.3,286.0 252.4,286.0 255.6,286.0 258.8,286.0 262.0,286.0 265.2,286.0 268.4,286.0 271.6,286.0 274.8,286.0 278.0,286.0 281.1,274.0 284.3,274.0 287.5,274.0 290.7,274.0 293.9,274.0 297.1,274.0 300.3,274.0 303.5,274.0 306.7,274.0 309.8,274.0 313.0,274.0 316.2,274.0 319.4,274.0 322.6,274.0 325.8,274.0 329.0,274.0 332.2,274.0 335.4,274.0 338.5,274.0 341.7,274.0 344.9,274.0 348.1,274.0 351.3,274.0 354.5,274.0 357.7,274.0 360.9,274.0 364.0,274.0 367.2,274.0 370.4,274.0 373.6,274.0 376.8,274.0 380.0,274.0 383.2,274.0 386.4,274.0 389.6,274.0 392.7,274.0 395.9,274.0 399.1,274.0 402.3,274.0 405.5,274.0 408.7,274.0 411.9,274.0 415.1,274.0 418.3,274.0 421.4,274.0 424.6,274.0 427.8,274.0 431.0,274.0 434.2,274.0 437.4,274.0 440.6,274.0 443.8,274.0 447.0,274.0 450.1,274.0 453.3,274.0 456.5,274.0 459.7,274.0 462.9,274.0 466.1,274.0 469.3,274.0 472.5,274.0 475.7,274.0 478.8,274.0 482.0,274.0 485.2,274.0 488.4,274.0 491.6,274.0 494.8,274.0 498.0,274.0 501.2,274.0 504.3,274.0 507.5,274.0 510.7,274.0 513.9,274.0 517.1,274.0 520.3,274.0 523.5,268.0 526.7,274.0 529.9,274.0 533.0,274.0 536.2,274.0 539.4,274.0 542.6,274.0 545.8,274.0 549.0,274.0 552.2,274.0 555.4,274.0 558.6,268.0 561.7,274.0 564.9,274.0 568.1,274.0 571.3,274.0 574.5,274.0 577.7,274.0 580.9,274.0 584.1,274.0 587.3,274.0 590.4,274.0 593.6,268.0 596.8,274.0 600.0,274.0 603.2,274.0 606.4,274.0 609.6,274.0 612.8,274.0 616.0,274.0 619.1,274.0 622.3,274.0 625.5,274.0 628.7,274.0 631.9,274.0 635.1,274.0 638.3,250.0 641.5,274.0 644.6,274.0 647.8,274.0 651.0,274.0 654.2,274.0 657.4,274.0 660.6,274.0 663.8,274.0 667.0,274.0 670.2,274.0 673.3,274.0 676.5,274.0 679.7,274.0 682.9,274.0 686.1,274.0 689.3,274.0 692.5,274.0 695.7,268.0 698.9,274.0 702.0,280.0 705.2,286.0 708.4,286.0 711.6,286.0 714.8,286.0 718.0,286.0 721.2,280.0 724.4,280.0 727.6,286.0 730.7,286.0 733.9,280.0 737.1,286.0 740.3,286.0 743.5,286.0 746.7,286.0 749.9,286.0 753.1,280.0 756.2,286.0 759.4,286.0 762.6,286.0 765.8,286.0 769.0,286.0 772.2,286.0 775.4,286.0 778.6,286.0 781.8,286.0 784.9,286.0 788.1,280.0 791.3,280.0 794.5,286.0 797.7,280.0 800.9,286.0 804.1,286.0 807.3,286.0 810.5,286.0 813.6,286.0 816.8,286.0 820.0,286.0 823.2,286.0 826.4,286.0 829.6,286.0 832.8,286.0 836.0,286.0 839.2,286.0 842.3,286.0 845.5,286.0 848.7,280.0 851.9,286.0 855.1,280.0 858.3,286.0 861.5,286.0 864.7,286.0 867.9,286.0 871.0,286.0 874.2,286.0 877.4,286.0 880.6,286.0 883.8,286.0 887.0,286.0 890.2,286.0 893.4,286.0 896.5,286.0 899.7,286.0 902.9,280.0 906.1,286.0 909.3,286.0 912.5,286.0 915.7,286.0 918.9,286.0 922.1,286.0 925.2,286.0 928.4,286.0 931.6,286.0 934.8,286.0 938.0,286.0"/><polyline fill="none" stroke="#a855f7" stroke-width="2.5" stroke-linejoin="round" stroke-linecap="round" points="42.0,286.0 45.2,286.0 48.4,286.0 51.6,286.0 54.8,286.0 57.9,286.0 61.1,286.0 64.3,286.0 67.5,286.0 70.7,286.0 73.9,286.0 77.1,286.0 80.3,286.0 83.5,286.0 86.6,286.0 89.8,286.0 93.0,286.0 96.2,286.0 99.4,286.0 102.6,286.0 105.8,286.0 109.0,286.0 112.1,286.0 115.3,286.0 118.5,286.0 121.7,286.0 124.9,286.0 128.1,286.0 131.3,286.0 134.5,286.0 137.7,286.0 140.8,286.0 144.0,286.0 147.2,286.0 150.4,286.0 153.6,286.0 156.8,286.0 160.0,286.0 163.2,286.0 166.4,286.0 169.5,286.0 172.7,286.0 175.9,286.0 179.1,286.0 182.3,286.0 185.5,286.0 188.7,286.0 191.9,286.0 195.1,286.0 198.2,286.0 201.4,286.0 204.6,286.0 207.8,286.0 211.0,286.0 214.2,286.0 217.4,286.0 220.6,286.0 223.8,286.0 226.9,286.0 230.1,286.0 233.3,286.0 236.5,286.0 239.7,286.0 242.9,286.0 246.1,286.0 249.3,286.0 252.4,286.0 255.6,286.0 258.8,286.0 262.0,286.0 265.2,280.0 268.4,286.0 271.6,286.0 274.8,286.0 278.0,286.0 281.1,286.0 284.3,286.0 287.5,286.0 290.7,286.0 293.9,286.0 297.1,286.0 300.3,286.0 303.5,286.0 306.7,286.0 309.8,286.0 313.0,286.0 316.2,286.0 319.4,286.0 322.6,286.0 325.8,286.0 329.0,286.0 332.2,286.0 335.4,286.0 338.5,286.0 341.7,286.0 344.9,286.0 348.1,286.0 351.3,286.0 354.5,286.0 357.7,286.0 360.9,286.0 364.0,286.0 367.2,286.0 370.4,286.0 373.6,286.0 376.8,286.0 380.0,286.0 383.2,286.0 386.4,286.0 389.6,286.0 392.7,286.0 395.9,286.0 399.1,286.0 402.3,286.0 405.5,286.0 408.7,286.0 411.9,286.0 415.1,286.0 418.3,286.0 421.4,286.0 424.6,286.0 427.8,286.0 431.0,286.0 434.2,286.0 437.4,286.0 440.6,286.0 443.8,286.0 447.0,286.0 450.1,286.0 453.3,286.0 456.5,286.0 459.7,286.0 462.9,286.0 466.1,286.0 469.3,286.0 472.5,286.0 475.7,286.0 478.8,286.0 482.0,286.0 485.2,286.0 488.4,286.0 491.6,286.0 494.8,286.0 498.0,286.0 501.2,286.0 504.3,286.0 507.5,286.0 510.7,286.0 513.9,286.0 517.1,286.0 520.3,286.0 523.5,286.0 526.7,286.0 529.9,286.0 533.0,286.0 536.2,286.0 539.4,286.0 542.6,280.0 545.8,286.0 549.0,286.0 552.2,286.0 555.4,286.0 558.6,286.0 561.7,286.0 564.9,286.0 568.1,286.0 571.3,286.0 574.5,286.0 577.7,286.0 580.9,286.0 584.1,286.0 587.3,286.0 590.4,286.0 593.6,286.0 596.8,286.0 600.0,286.0 603.2,286.0 606.4,286.0 609.6,286.0 612.8,286.0 616.0,286.0 619.1,286.0 622.3,286.0 625.5,286.0 628.7,286.0 631.9,286.0 635.1,286.0 638.3,286.0 641.5,286.0 644.6,286.0 647.8,286.0 651.0,286.0 654.2,286.0 657.4,286.0 660.6,286.0 663.8,286.0 667.0,286.0 670.2,286.0 673.3,286.0 676.5,286.0 679.7,286.0 682.9,286.0 686.1,286.0 689.3,286.0 692.5,286.0 695.7,286.0 698.9,286.0 702.0,286.0 705.2,286.0 708.4,286.0 711.6,286.0 714.8,286.0 718.0,286.0 721.2,286.0 724.4,286.0 727.6,280.0 730.7,286.0 733.9,286.0 737.1,286.0 740.3,286.0 743.5,286.0 746.7,286.0 749.9,286.0 753.1,286.0 756.2,286.0 759.4,280.0 762.6,286.0 765.8,286.0 769.0,286.0 772.2,286.0 775.4,286.0 778.6,286.0 781.8,286.0 784.9,286.0 788.1,286.0 791.3,286.0 794.5,286.0 797.7,286.0 800.9,286.0 804.1,286.0 807.3,286.0 810.5,286.0 813.6,286.0 816.8,286.0 820.0,286.0 823.2,286.0 826.4,286.0 829.6,286.0 832.8,286.0 836.0,286.0 839.2,286.0 842.3,286.0 845.5,286.0 848.7,286.0 851.9,280.0 855.1,286.0 858.3,286.0 861.5,286.0 864.7,286.0 867.9,286.0 871.0,286.0 874.2,280.0 877.4,286.0 880.6,286.0 883.8,286.0 887.0,286.0 890.2,286.0 893.4,286.0 896.5,286.0 899.7,286.0 902.9,286.0 906.1,286.0 909.3,286.0 912.5,286.0 915.7,286.0 918.9,286.0 922.1,286.0 925.2,286.0 928.4,280.0 931.6,286.0 934.8,286.0 938.0,286.0"/><text x="42" y="308" font-size="11" fill="#9fb0d4">19/06 12:43</text><text x="938" y="308" text-anchor="end" font-size="11" fill="#9fb0d4">05/07 07:29</text></svg>