<svg xmlns="http://www.w3.org/2000/svg" viewBox="0 0 960 320" width="960" height="320" font-family="Segoe UI, system-ui, -apple-system, Roboto, Helvetica, Arial, sans-serif" role="img" aria-label="Availability history per region"><rect x="0.5" y="0.5" width="959" height="319" rx="14" fill="#ffffff" stroke="#dce3f1"/><text x="42" y="26" font-size="14" font-weight="600" fill="#14203a">History · 147 points</text><circle cx="47" cy="40" r="5" fill="#22c55e"/><text x="57" y="44" font-size="12" fill="#5a688a">Available</text><circle cx="139.8" cy="40" r="5" fill="#f59e0b"/><text x="149.8" y="44" font-size="12" fill="#5a688a">Saturated</text><circle cx="232.60000000000002" cy="40" r="5" fill="#ef4444"/><text x="242.60000000000002" y="44" font-size="12" fill="#5a688a">Error</text><circle cx="296.6" cy="40" r="5" fill="#a855f7"/><text x="306.6" y="44" font-size="12" fill="#5a688a">Timeout</text><line x1="42" y1="286.0" x2="938" y2="286.0" stroke="#eef2f7" stroke-width="1"/><text x="35" y="289.0" text-anchor="end" font-size="11" fill="#5a688a">0</text><line x1="42" y1="227.5" x2="938" y2="227.5" stroke="#eef2f7" stroke-width="1"/><text x="35" y="230.5" text-anchor="end" font-size="11" fill="#5a688a">10</text><line x1="42" y1="169.0" x2="938" y2="169.0" stroke="#eef2f7" stroke-width="1"/><text x="35" y="172.0" text-anchor="end" font-size="11" fill="#5a688a">20</text><line x1="42" y1="110.5" x2="938" y2="110.5" stroke="#eef2f7" stroke-width="1"/><text x="35" y="113.5" text-anchor="end" font-size="11" fill="#5a688a">29</text><line x1="42" y1="52.0" x2="938" y2="52.0" stroke="#eef2f7" stroke-width="1"/><text x="35" y="55.0" text-anchor="end" font-size="11" fill="#5a688a">39</text><polyline fill="none" stroke="#22c55e" stroke-width="2.5" stroke-linejoin="round" stroke-linecap="round" points="42.0,70.0 48.1,70.0 54.3,88.0 60.4,88.0 66.5,76.0 72.7,76.0 78.8,76.0 85.0,70.0 91.1,76.0 97.2,70.0 103.4,64.0 109.5,58.0 115.6,58.0 121.8,58.0 127.9,58.0 134.1,58.0 140.2,58.0 146.3,58.0 152.5,58.0 158.6,58.0 164.7,58.0 170.9,58.0 177.0,58.0 183.2,58.0 189.3,58.0 195.4,58.0 201.6,58.0 207.7,58.0 213.8,58.0 220.0,58.0 226.1,58.0 232.2,70.0 238.4,76.0 244.5,94.0 250.7,64.0 256.8,64.0 262.9,58.0 269.1,58.0 275.2,58.0 281.3,70.0 287.5,76.0 293.6,76.0 299.8,82.0 305.9,82.0 312.0,82.0 318.2,82.0 324.3,76.0 330.4,64.0 336.6,70.0 342.7,70.0 348.8,82.0 355.0,76.0 361.1,76.0 367.3,82.0 373.4,76.0 379.5,76.0 385.7,76.0 391.8,64.0 397.9,64.0 404.1,76.0 410.2,76.0 416.4,76.0 422.5,88.0 428.6,70.0 434.8,64.0 440.9,58.0 447.0,58.0 453.2,70.0 459.3,70.0 465.5,70.0 471.6,76.0 477.7,70.0 483.9,70.0 490.0,70.0 496.1,70.0 502.3,76.0 508.4,82.0 514.5,76.0 520.7,70.0 526.8,70.0 533.0,70.0 539.1,70.0 545.2,76.0 551.4,70.0 557.5,70.0 563.6,70.0 569.8,70.0 575.9,70.0 582.1,70.0 588.2,70.0 594.3,70.0 600.5,70.0 606.6,70.0 612.7,70.0 618.9,70.0 625.0,70.0 631.2,70.0 637.3,70.0 643.4,70.0 649.6,70.0 655.7,70.0 661.8,70.0 668.0,70.0 674.1,70.0 680.2,70.0 686.4,70.0 692.5,70.0 698.7,70.0 704.8,70.0 710.9,70.0 717.1,70.0 723.2,70.0 729.3,70.0 735.5,70.0 741.6,70.0 747.8,70.0 753.9,70.0 760.0,70.0 766.2,70.0 772.3,70.0 778.4,70.0 784.6,70.0 790.7,70.0 796.8,70.0 803.0,70.0 809.1,70.0 815.3,70.0 821.4,70.0 827.5,70.0 833.7,70.0 839.8,70.0 845.9,70.0 852.1,70.0 858.2,70.0 864.4,70.0 870.5,70.0 876.6,70.0 882.8,70.0 888.9,70.0 895.0,70.0 901.2,70.0 907.3,70.0 913.5,70.0 919.6,70.0 925.7,70.0 931.9,70.0 938.0,70.0"/><polyline fill="none" stroke="#f59e0b" stroke-width="2.5" stroke-linejoin="round" stroke-linecap="round" points="42.0,274.0 48.1,274.0 54.3,274.0 60.4,280.0 66.5,268.0 72.7,268.0 78.8,268.0 85.0,274.0 91.1,274.0 97.2,274.0 103.4,280.0 109.5,286.0 115.6,286.0 121.8,286.0 127.9,286.0 134.1,286.0 140.2,286.0 146.3,286.0 152.5,286.0 158.6,286.0 164.7,286.0 170.9,286.0 177.0,286.0 183.2,286.0 189.3,286.0 195.4,286.0 201.6,286.0 207.7,286.0 213.8,286.0 220.0,286.0 226.1,286.0 232.2,274.0 238.4,280.0 244.5,280.0 250.7,280.0 256.8,280.0 262.9,286.0 269.1,286.0 275.2,286.0 281.3,274.0 287.5,268.0 293.6,268.0 299.8,262.0 305.9,262.0 312.0,262.0 318.2,262.0 324.3,268.0 330.4,280.0 336.6,280.0 342.7,274.0 348.8,262.0 355.0,268.0 361.1,268.0 367.3,262.0 373.4,268.0 379.5,268.0 385.7,268.0 391.8,280.0 397.9,280.0 404.1,268.0 410.2,268.0 416.4,268.0 422.5,262.0 428.6,274.0 434.8,280.0 440.9,286.0 447.0,286.0 453.2,274.0 459.3,274.0 465.5,274.0 471.6,274.0 477.7,274.0 483.9,274.0 490.0,274.0 496.1,274.0 502.3,280.0 508.4,274.0 514.5,280.0 520.7,286.0 526.8,286.0 533.0,286.0 539.1,286.0 545.2,280.0 551.4,286.0 557.5,286.0 563.6,286.0 569.8,286.0 575.9,286.0 582.1,286.0 588.2,286.0 594.3,286.0 600.5,286.0 606.6,286.0 612.7,286.0 618.9,286.0 625.0,286.0 631.2,286.0 637.3,286.0 643.4,286.0 649.6,286.0 655.7,286.0 661.8,286.0 668.0,286.0 674.1,286.0 680.2,286.0 686.4,286.0 692.5,286.0 698.7,286.0 704.8,286.0 710.9,286.0 717.1,286.0 723.2,286.0 729.3,286.0 735.5,286.0 741.6,286.0 747.8,286.0 753.9,286.0 760.0,286.0 766.2,286.0 772.3,286.0 778.4,286.0 784.6,286.0 790.7,286.0 796.8,286.0 803.0,286.0 809.1,286.0 815.3,286.0 821.4,286.0 827.5,286.0 833.7,286.0 839.8,286.0 845.9,286.0 852.1,286.0 858.2,286.0 864.4,286.0 870.5,286.0 876.6,286.0 882.8,286.0 888.9,286.0 895.0,286.0 901.2,286.0 907.3,286.0 913.5,286.0 919.6,286.0 925.7,286.0 931.9,286.0 938.0,286.0"/><polyline fill="none" stroke="#ef4444" stroke-width="2.5" stroke-linejoin="round" stroke-linecap="round" points="42.0,280.0 48.1,280.0 54.3,268.0 60.4,262.0 66.5,286.0 72.7,286.0 78.8,286.0 85.0,286.0 91.1,280.0 97.2,286.0 103.4,286.0 109.5,286.0 115.6,286.0 121.8,286.0 127.9,286.0 134.1,286.0 140.2,286.0 146.3,286.0 152.5,286.0 158.6,286.0 164.7,286.0 170.9,286.0 177.0,286.0 183.2,286.0 189.3,286.0 195.4,286.0 201.6,286.0 207.7,286.0 213.8,286.0 220.0,286.0 226.1,286.0 232.2,286.0 238.4,274.0 244.5,256.0 250.7,286.0 256.8,286.0 262.9,286.0 269.1,286.0 275.2,286.0 281.3,286.0 287.5,286.0 293.6,286.0 299.8,286.0 305.9,286.0 312.0,286.0 318.2,286.0 324.3,286.0 330.4,286.0 336.6,280.0 342.7,286.0 348.8,286.0 355.0,286.0 361.1,286.0 367.3,286.0 373.4,286.0 379.5,286.0 385.7,286.0 391.8,286.0 397.9,286.0 404.1,286.0 410.2,286.0 416.4,286.0 422.5,280.0 428.6,286.0 434.8,286.0 440.9,286.0 447.0,286.0 453.2,286.0 459.3,286.0 465.5,286.0 471.6,286.0 477.7,286.0 483.9,286.0 490.0,286.0 496.1,286.0 502.3,274.0 508.4,274.0 514.5,274.0 520.7,274.0 526.8,274.0 533.0,274.0 539.1,274.0 545.2,274.0 551.4,274.0 557.5,274.0 563.6,274.0 569.8,274.0 575.9,274.0 582.1,274.0 588.2,274.0 594.3,274.0 600.5,274.0 606.6,274.0 612.7,274.0 618.9,274.0 625.0,274.0 631.2,274.0 637.3,274.0 643.4,274.0 649.6,274.0 655.7,274.0 661.8,274.0 668.0,274.0 674.1,274.0 680.2,274.0 686.4,274.0 692.5,274.0 698.7,274.0 704.8,274.0 710.9,274.0 717.1,274.0 723.2,274.0 729.3,274.0 735.5,274.0 741.6,274.0 747.8,274.0 753.9,274.0 760.0,274.0 766.2,274.0 772.3,274.0 778.4,274.0 784.6,274.0 790.7,274.0 796.8,274.0 803.0,274.0 809.1,274.0 815.3,274.0 821.4,274.0 827.5,274.0 833.7,274.0 839.8,274.0 845.9,274.0 852.1,274.0 858.2,274.0 864.4,274.0 870.5,274.0 876.6,274.0 882.8,274.0 888.9,274.0 895.0,274.0 901.2,274.0 907.3,274.0 913.5,274.0 919.6,274.0 925.7,274.0 931.9,274.0 938.0,274.0"/><polyline fill="none" stroke="#a855f7" stroke-width="2.5" stroke-linejoin="round" stroke-linecap="round" points="42.0,286.0 48.1,286.0 54.3,286.0 60.4,286.0 66.5,286.0 72.7,286.0 78.8,286.0 85.0,286.0 91.1,286.0 97.2,286.0 103.4,286.0 109.5,286.0 115.6,286.0 121.8,286.0 127.9,286.0 134.1,286.0 140.2,286.0 146.3,286.0 152.5,286.0 158.6,286.0 164.7,286.0 170.9,286.0 177.0,286.0 183.2,286.0 189.3,286.0 195.4,286.0 201.6,286.0 207.7,286.0 213.8,286.0 220.0,286.0 226.1,286.0 232.2,286.0 238.4,286.0 244.5,286.0 250.7,286.0 256.8,286.0 262.9,286.0 269.1,286.0 275.2,286.0 281.3,286.0 287.5,286.0 293.6,286.0 299.8,286.0 305.9,286.0 312.0,286.0 318.2,286.0 324.3,286.0 330.4,286.0 336.6,286.0 342.7,286.0 348.8,286.0 355.0,286.0 361.1,286.0 367.3,286.0 373.4,286.0 379.5,286.0 385.7,286.0 391.8,286.0 397.9,286.0 404.1,286.0 410.2,286.0 416.4,286.0 422.5,286.0 428.6,286.0 434.8,286.0 440.9,286.0 447.0,286.0 453.2,286.0 459.3,286.0 465.5,286.0 471.6,280.0 477.7,286.0 483.9,286.0 490.0,286.0 496.1,286.0 502.3,286.0 508.4,286.0 514.5,286.0 520.7,286.0 526.8,286.0 533.0,286.0 539.1,286.0 545.2,286.0 551.4,286.0 557.5,286.0 563.6,286.0 569.8,286.0 575.9,286.0 582.1,286.0 588.2,286.0 594.3,286.0 600.5,286.0 606.6,286.0 612.7,286.0 618.9,286.0 625.0,286.0 631.2,286.0 637.3,286.0 643.4,286.0 649.6,286.0 655.7,286.0 661.8,286.0 668.0,286.0 674.1,286.0 680.2,286.0 686.4,286.0 692.5,286.0 698.7,286.0 704.8,286.0 710.9,286.0 717.1,286.0 723.2,286.0 729.3,286.0 735.5,286.0 741.6,286.0 747.8,286.0 753.9,286.0 760.0,286.0 766.2,286.0 772.3,286.0 778.4,286.0 784.6,286.0 790.7,286.0 796.8,286.0 803.0,286.0 809.1,286.0 815.3,286.0 821.4,286.0 827.5,286.0 833.7,286.0 839.8,286.0 845.9,286.0 852.1,286.0 858.2,286.0 864.4,286.0 870.5,286.0 876.6,286.0 882.8,286.0 888.9,286.0 895.0,286.0 901.2,286.0 907.3,286.0 913.5,286.0 919.6,286.0 925.7,286.0 931.9,286.0 938.0,286.0"/><text x="42" y="308" font-size="11" fill="#5a688a">19/06 12:43</text><text x="938" y="308" text-anchor="end" font-size="11" fill="#5a688a">28/06 23:29</text></svg>