<svg xmlns="http://www.w3.org/2000/svg" viewBox="0 0 960 320" width="960" height="320" font-family="Segoe UI, system-ui, -apple-system, Roboto, Helvetica, Arial, sans-serif" role="img" aria-label="Availability history per region"><rect x="0.5" y="0.5" width="959" height="319" rx="14" fill="#0d1117" stroke="#2c3a5e"/><text x="42" y="26" font-size="14" font-weight="600" fill="#e6ecff">History · 257 points</text><circle cx="47" cy="40" r="5" fill="#22c55e"/><text x="57" y="44" font-size="12" fill="#9fb0d4">Available</text><circle cx="139.8" cy="40" r="5" fill="#f59e0b"/><text x="149.8" y="44" font-size="12" fill="#9fb0d4">Saturated</text><circle cx="232.60000000000002" cy="40" r="5" fill="#ef4444"/><text x="242.60000000000002" y="44" font-size="12" fill="#9fb0d4">Error</text><circle cx="296.6" cy="40" r="5" fill="#a855f7"/><text x="306.6" y="44" font-size="12" fill="#9fb0d4">Timeout</text><line x1="42" y1="286.0" x2="938" y2="286.0" stroke="#21304f" stroke-width="1"/><text x="35" y="289.0" text-anchor="end" font-size="11" fill="#9fb0d4">0</text><line x1="42" y1="227.5" x2="938" y2="227.5" stroke="#21304f" stroke-width="1"/><text x="35" y="230.5" text-anchor="end" font-size="11" fill="#9fb0d4">10</text><line x1="42" y1="169.0" x2="938" y2="169.0" stroke="#21304f" stroke-width="1"/><text x="35" y="172.0" text-anchor="end" font-size="11" fill="#9fb0d4">20</text><line x1="42" y1="110.5" x2="938" y2="110.5" stroke="#21304f" stroke-width="1"/><text x="35" y="113.5" text-anchor="end" font-size="11" fill="#9fb0d4">29</text><line x1="42" y1="52.0" x2="938" y2="52.0" stroke="#21304f" stroke-width="1"/><text x="35" y="55.0" text-anchor="end" font-size="11" fill="#9fb0d4">39</text><polyline fill="none" stroke="#22c55e" stroke-width="2.5" stroke-linejoin="round" stroke-linecap="round" points="42.0,70.0 45.5,70.0 49.0,88.0 52.5,88.0 56.0,76.0 59.5,76.0 63.0,76.0 66.5,70.0 70.0,76.0 73.5,70.0 77.0,64.0 80.5,58.0 84.0,58.0 87.5,58.0 91.0,58.0 94.5,58.0 98.0,58.0 101.5,58.0 105.0,58.0 108.5,58.0 112.0,58.0 115.5,58.0 119.0,58.0 122.5,58.0 126.0,58.0 129.5,58.0 133.0,58.0 136.5,58.0 140.0,58.0 143.5,58.0 147.0,58.0 150.5,70.0 154.0,76.0 157.5,94.0 161.0,64.0 164.5,64.0 168.0,58.0 171.5,58.0 175.0,58.0 178.5,70.0 182.0,76.0 185.5,76.0 189.0,82.0 192.5,82.0 196.0,82.0 199.5,82.0 203.0,76.0 206.5,64.0 210.0,70.0 213.5,70.0 217.0,82.0 220.5,76.0 224.0,76.0 227.5,82.0 231.0,76.0 234.5,76.0 238.0,76.0 241.5,64.0 245.0,64.0 248.5,76.0 252.0,76.0 255.5,76.0 259.0,88.0 262.5,70.0 266.0,64.0 269.5,58.0 273.0,58.0 276.5,70.0 280.0,70.0 283.5,70.0 287.0,76.0 290.5,70.0 294.0,70.0 297.5,70.0 301.0,70.0 304.5,76.0 308.0,82.0 311.5,76.0 315.0,70.0 318.5,70.0 322.0,70.0 325.5,70.0 329.0,76.0 332.5,70.0 336.0,70.0 339.5,70.0 343.0,70.0 346.5,70.0 350.0,70.0 353.5,70.0 357.0,70.0 360.5,70.0 364.0,70.0 367.5,70.0 371.0,70.0 374.5,70.0 378.0,70.0 381.5,70.0 385.0,70.0 388.5,70.0 392.0,70.0 395.5,70.0 399.0,70.0 402.5,70.0 406.0,70.0 409.5,70.0 413.0,70.0 416.5,70.0 420.0,70.0 423.5,70.0 427.0,70.0 430.5,70.0 434.0,70.0 437.5,70.0 441.0,70.0 444.5,70.0 448.0,70.0 451.5,70.0 455.0,70.0 458.5,70.0 462.0,70.0 465.5,70.0 469.0,70.0 472.5,70.0 476.0,70.0 479.5,70.0 483.0,70.0 486.5,70.0 490.0,70.0 493.5,70.0 497.0,70.0 500.5,70.0 504.0,70.0 507.5,70.0 511.0,70.0 514.5,70.0 518.0,70.0 521.5,70.0 525.0,70.0 528.5,70.0 532.0,70.0 535.5,70.0 539.0,70.0 542.5,70.0 546.0,70.0 549.5,70.0 553.0,70.0 556.5,70.0 560.0,70.0 563.5,70.0 567.0,70.0 570.5,76.0 574.0,70.0 577.5,70.0 581.0,70.0 584.5,70.0 588.0,70.0 591.5,76.0 595.0,76.0 598.5,88.0 602.0,88.0 605.5,88.0 609.0,94.0 612.5,94.0 616.0,94.0 619.5,94.0 623.0,88.0 626.5,88.0 630.0,82.0 633.5,82.0 637.0,82.0 640.5,88.0 644.0,88.0 647.5,94.0 651.0,82.0 654.5,82.0 658.0,82.0 661.5,82.0 665.0,88.0 668.5,88.0 672.0,94.0 675.5,94.0 679.0,88.0 682.5,88.0 686.0,88.0 689.5,94.0 693.0,94.0 696.5,106.0 700.0,94.0 703.5,94.0 707.0,94.0 710.5,94.0 714.0,88.0 717.5,88.0 721.0,82.0 724.5,76.0 728.0,76.0 731.5,76.0 735.0,76.0 738.5,76.0 742.0,76.0 745.5,70.0 749.0,70.0 752.5,70.0 756.0,76.0 759.5,88.0 763.0,82.0 766.5,70.0 770.0,70.0 773.5,70.0 777.0,76.0 780.5,76.0 784.0,76.0 787.5,82.0 791.0,70.0 794.5,76.0 798.0,64.0 801.5,70.0 805.0,58.0 808.5,58.0 812.0,58.0 815.5,58.0 819.0,58.0 822.5,64.0 826.0,58.0 829.5,64.0 833.0,58.0 836.5,58.0 840.0,58.0 843.5,58.0 847.0,64.0 850.5,64.0 854.0,64.0 857.5,76.0 861.0,70.0 864.5,82.0 868.0,70.0 871.5,76.0 875.0,58.0 878.5,64.0 882.0,58.0 885.5,64.0 889.0,58.0 892.5,58.0 896.0,58.0 899.5,64.0 903.0,70.0 906.5,64.0 910.0,64.0 913.5,64.0 917.0,70.0 920.5,70.0 924.0,64.0 927.5,70.0 931.0,70.0 934.5,70.0 938.0,58.0"/><polyline fill="none" stroke="#f59e0b" stroke-width="2.5" stroke-linejoin="round" stroke-linecap="round" points="42.0,274.0 45.5,274.0 49.0,274.0 52.5,280.0 56.0,268.0 59.5,268.0 63.0,268.0 66.5,274.0 70.0,274.0 73.5,274.0 77.0,280.0 80.5,286.0 84.0,286.0 87.5,286.0 91.0,286.0 94.5,286.0 98.0,286.0 101.5,286.0 105.0,286.0 108.5,286.0 112.0,286.0 115.5,286.0 119.0,286.0 122.5,286.0 126.0,286.0 129.5,286.0 133.0,286.0 136.5,286.0 140.0,286.0 143.5,286.0 147.0,286.0 150.5,274.0 154.0,280.0 157.5,280.0 161.0,280.0 164.5,280.0 168.0,286.0 171.5,286.0 175.0,286.0 178.5,274.0 182.0,268.0 185.5,268.0 189.0,262.0 192.5,262.0 196.0,262.0 199.5,262.0 203.0,268.0 206.5,280.0 210.0,280.0 213.5,274.0 217.0,262.0 220.5,268.0 224.0,268.0 227.5,262.0 231.0,268.0 234.5,268.0 238.0,268.0 241.5,280.0 245.0,280.0 248.5,268.0 252.0,268.0 255.5,268.0 259.0,262.0 262.5,274.0 266.0,280.0 269.5,286.0 273.0,286.0 276.5,274.0 280.0,274.0 283.5,274.0 287.0,274.0 290.5,274.0 294.0,274.0 297.5,274.0 301.0,274.0 304.5,280.0 308.0,274.0 311.5,280.0 315.0,286.0 318.5,286.0 322.0,286.0 325.5,286.0 329.0,280.0 332.5,286.0 336.0,286.0 339.5,286.0 343.0,286.0 346.5,286.0 350.0,286.0 353.5,286.0 357.0,286.0 360.5,286.0 364.0,286.0 367.5,286.0 371.0,286.0 374.5,286.0 378.0,286.0 381.5,286.0 385.0,286.0 388.5,286.0 392.0,286.0 395.5,286.0 399.0,286.0 402.5,286.0 406.0,286.0 409.5,286.0 413.0,286.0 416.5,286.0 420.0,286.0 423.5,286.0 427.0,286.0 430.5,286.0 434.0,286.0 437.5,286.0 441.0,286.0 444.5,286.0 448.0,286.0 451.5,286.0 455.0,286.0 458.5,286.0 462.0,286.0 465.5,286.0 469.0,286.0 472.5,286.0 476.0,286.0 479.5,286.0 483.0,286.0 486.5,286.0 490.0,286.0 493.5,286.0 497.0,286.0 500.5,286.0 504.0,286.0 507.5,286.0 511.0,286.0 514.5,286.0 518.0,286.0 521.5,286.0 525.0,286.0 528.5,286.0 532.0,286.0 535.5,286.0 539.0,286.0 542.5,286.0 546.0,286.0 549.5,286.0 553.0,286.0 556.5,286.0 560.0,286.0 563.5,286.0 567.0,286.0 570.5,286.0 574.0,286.0 577.5,286.0 581.0,286.0 584.5,286.0 588.0,286.0 591.5,286.0 595.0,280.0 598.5,268.0 602.0,268.0 605.5,268.0 609.0,268.0 612.5,262.0 616.0,262.0 619.5,262.0 623.0,268.0 626.5,268.0 630.0,274.0 633.5,274.0 637.0,274.0 640.5,268.0 644.0,268.0 647.5,268.0 651.0,274.0 654.5,274.0 658.0,274.0 661.5,274.0 665.0,268.0 668.5,268.0 672.0,262.0 675.5,262.0 679.0,268.0 682.5,268.0 686.0,268.0 689.5,262.0 693.0,262.0 696.5,274.0 700.0,262.0 703.5,262.0 707.0,262.0 710.5,262.0 714.0,268.0 717.5,268.0 721.0,274.0 724.5,280.0 728.0,280.0 731.5,280.0 735.0,280.0 738.5,280.0 742.0,280.0 745.5,286.0 749.0,286.0 752.5,286.0 756.0,280.0 759.5,274.0 763.0,274.0 766.5,280.0 770.0,274.0 773.5,274.0 777.0,268.0 780.5,268.0 784.0,268.0 787.5,268.0 791.0,280.0 794.5,274.0 798.0,280.0 801.5,280.0 805.0,286.0 808.5,286.0 812.0,286.0 815.5,286.0 819.0,286.0 822.5,286.0 826.0,286.0 829.5,286.0 833.0,286.0 836.5,286.0 840.0,286.0 843.5,286.0 847.0,280.0 850.5,280.0 854.0,280.0 857.5,268.0 861.0,280.0 864.5,268.0 868.0,274.0 871.5,274.0 875.0,286.0 878.5,280.0 882.0,286.0 885.5,280.0 889.0,286.0 892.5,286.0 896.0,286.0 899.5,280.0 903.0,274.0 906.5,280.0 910.0,280.0 913.5,280.0 917.0,274.0 920.5,274.0 924.0,280.0 927.5,280.0 931.0,280.0 934.5,280.0 938.0,286.0"/><polyline fill="none" stroke="#ef4444" stroke-width="2.5" stroke-linejoin="round" stroke-linecap="round" points="42.0,280.0 45.5,280.0 49.0,268.0 52.5,262.0 56.0,286.0 59.5,286.0 63.0,286.0 66.5,286.0 70.0,280.0 73.5,286.0 77.0,286.0 80.5,286.0 84.0,286.0 87.5,286.0 91.0,286.0 94.5,286.0 98.0,286.0 101.5,286.0 105.0,286.0 108.5,286.0 112.0,286.0 115.5,286.0 119.0,286.0 122.5,286.0 126.0,286.0 129.5,286.0 133.0,286.0 136.5,286.0 140.0,286.0 143.5,286.0 147.0,286.0 150.5,286.0 154.0,274.0 157.5,256.0 161.0,286.0 164.5,286.0 168.0,286.0 171.5,286.0 175.0,286.0 178.5,286.0 182.0,286.0 185.5,286.0 189.0,286.0 192.5,286.0 196.0,286.0 199.5,286.0 203.0,286.0 206.5,286.0 210.0,280.0 213.5,286.0 217.0,286.0 220.5,286.0 224.0,286.0 227.5,286.0 231.0,286.0 234.5,286.0 238.0,286.0 241.5,286.0 245.0,286.0 248.5,286.0 252.0,286.0 255.5,286.0 259.0,280.0 262.5,286.0 266.0,286.0 269.5,286.0 273.0,286.0 276.5,286.0 280.0,286.0 283.5,286.0 287.0,286.0 290.5,286.0 294.0,286.0 297.5,286.0 301.0,286.0 304.5,274.0 308.0,274.0 311.5,274.0 315.0,274.0 318.5,274.0 322.0,274.0 325.5,274.0 329.0,274.0 332.5,274.0 336.0,274.0 339.5,274.0 343.0,274.0 346.5,274.0 350.0,274.0 353.5,274.0 357.0,274.0 360.5,274.0 364.0,274.0 367.5,274.0 371.0,274.0 374.5,274.0 378.0,274.0 381.5,274.0 385.0,274.0 388.5,274.0 392.0,274.0 395.5,274.0 399.0,274.0 402.5,274.0 406.0,274.0 409.5,274.0 413.0,274.0 416.5,274.0 420.0,274.0 423.5,274.0 427.0,274.0 430.5,274.0 434.0,274.0 437.5,274.0 441.0,274.0 444.5,274.0 448.0,274.0 451.5,274.0 455.0,274.0 458.5,274.0 462.0,274.0 465.5,274.0 469.0,274.0 472.5,274.0 476.0,274.0 479.5,274.0 483.0,274.0 486.5,274.0 490.0,274.0 493.5,274.0 497.0,274.0 500.5,274.0 504.0,274.0 507.5,274.0 511.0,274.0 514.5,274.0 518.0,274.0 521.5,274.0 525.0,274.0 528.5,274.0 532.0,274.0 535.5,274.0 539.0,274.0 542.5,274.0 546.0,274.0 549.5,274.0 553.0,274.0 556.5,274.0 560.0,274.0 563.5,274.0 567.0,274.0 570.5,268.0 574.0,274.0 577.5,274.0 581.0,274.0 584.5,274.0 588.0,274.0 591.5,274.0 595.0,274.0 598.5,274.0 602.0,274.0 605.5,274.0 609.0,268.0 612.5,274.0 616.0,274.0 619.5,274.0 623.0,274.0 626.5,274.0 630.0,274.0 633.5,274.0 637.0,274.0 640.5,274.0 644.0,274.0 647.5,268.0 651.0,274.0 654.5,274.0 658.0,274.0 661.5,274.0 665.0,274.0 668.5,274.0 672.0,274.0 675.5,274.0 679.0,274.0 682.5,274.0 686.0,274.0 689.5,274.0 693.0,274.0 696.5,250.0 700.0,274.0 703.5,274.0 707.0,274.0 710.5,274.0 714.0,274.0 717.5,274.0 721.0,274.0 724.5,274.0 728.0,274.0 731.5,274.0 735.0,274.0 738.5,274.0 742.0,274.0 745.5,274.0 749.0,274.0 752.5,274.0 756.0,274.0 759.5,268.0 763.0,274.0 766.5,280.0 770.0,286.0 773.5,286.0 777.0,286.0 780.5,286.0 784.0,286.0 787.5,280.0 791.0,280.0 794.5,286.0 798.0,286.0 801.5,280.0 805.0,286.0 808.5,286.0 812.0,286.0 815.5,286.0 819.0,286.0 822.5,280.0 826.0,286.0 829.5,286.0 833.0,286.0 836.5,286.0 840.0,286.0 843.5,286.0 847.0,286.0 850.5,286.0 854.0,286.0 857.5,286.0 861.0,280.0 864.5,280.0 868.0,286.0 871.5,280.0 875.0,286.0 878.5,286.0 882.0,286.0 885.5,286.0 889.0,286.0 892.5,286.0 896.0,286.0 899.5,286.0 903.0,286.0 906.5,286.0 910.0,286.0 913.5,286.0 917.0,286.0 920.5,286.0 924.0,286.0 927.5,280.0 931.0,286.0 934.5,280.0 938.0,286.0"/><polyline fill="none" stroke="#a855f7" stroke-width="2.5" stroke-linejoin="round" stroke-linecap="round" points="42.0,286.0 45.5,286.0 49.0,286.0 52.5,286.0 56.0,286.0 59.5,286.0 63.0,286.0 66.5,286.0 70.0,286.0 73.5,286.0 77.0,286.0 80.5,286.0 84.0,286.0 87.5,286.0 91.0,286.0 94.5,286.0 98.0,286.0 101.5,286.0 105.0,286.0 108.5,286.0 112.0,286.0 115.5,286.0 119.0,286.0 122.5,286.0 126.0,286.0 129.5,286.0 133.0,286.0 136.5,286.0 140.0,286.0 143.5,286.0 147.0,286.0 150.5,286.0 154.0,286.0 157.5,286.0 161.0,286.0 164.5,286.0 168.0,286.0 171.5,286.0 175.0,286.0 178.5,286.0 182.0,286.0 185.5,286.0 189.0,286.0 192.5,286.0 196.0,286.0 199.5,286.0 203.0,286.0 206.5,286.0 210.0,286.0 213.5,286.0 217.0,286.0 220.5,286.0 224.0,286.0 227.5,286.0 231.0,286.0 234.5,286.0 238.0,286.0 241.5,286.0 245.0,286.0 248.5,286.0 252.0,286.0 255.5,286.0 259.0,286.0 262.5,286.0 266.0,286.0 269.5,286.0 273.0,286.0 276.5,286.0 280.0,286.0 283.5,286.0 287.0,280.0 290.5,286.0 294.0,286.0 297.5,286.0 301.0,286.0 304.5,286.0 308.0,286.0 311.5,286.0 315.0,286.0 318.5,286.0 322.0,286.0 325.5,286.0 329.0,286.0 332.5,286.0 336.0,286.0 339.5,286.0 343.0,286.0 346.5,286.0 350.0,286.0 353.5,286.0 357.0,286.0 360.5,286.0 364.0,286.0 367.5,286.0 371.0,286.0 374.5,286.0 378.0,286.0 381.5,286.0 385.0,286.0 388.5,286.0 392.0,286.0 395.5,286.0 399.0,286.0 402.5,286.0 406.0,286.0 409.5,286.0 413.0,286.0 416.5,286.0 420.0,286.0 423.5,286.0 427.0,286.0 430.5,286.0 434.0,286.0 437.5,286.0 441.0,286.0 444.5,286.0 448.0,286.0 451.5,286.0 455.0,286.0 458.5,286.0 462.0,286.0 465.5,286.0 469.0,286.0 472.5,286.0 476.0,286.0 479.5,286.0 483.0,286.0 486.5,286.0 490.0,286.0 493.5,286.0 497.0,286.0 500.5,286.0 504.0,286.0 507.5,286.0 511.0,286.0 514.5,286.0 518.0,286.0 521.5,286.0 525.0,286.0 528.5,286.0 532.0,286.0 535.5,286.0 539.0,286.0 542.5,286.0 546.0,286.0 549.5,286.0 553.0,286.0 556.5,286.0 560.0,286.0 563.5,286.0 567.0,286.0 570.5,286.0 574.0,286.0 577.5,286.0 581.0,286.0 584.5,286.0 588.0,286.0 591.5,280.0 595.0,286.0 598.5,286.0 602.0,286.0 605.5,286.0 609.0,286.0 612.5,286.0 616.0,286.0 619.5,286.0 623.0,286.0 626.5,286.0 630.0,286.0 633.5,286.0 637.0,286.0 640.5,286.0 644.0,286.0 647.5,286.0 651.0,286.0 654.5,286.0 658.0,286.0 661.5,286.0 665.0,286.0 668.5,286.0 672.0,286.0 675.5,286.0 679.0,286.0 682.5,286.0 686.0,286.0 689.5,286.0 693.0,286.0 696.5,286.0 700.0,286.0 703.5,286.0 707.0,286.0 710.5,286.0 714.0,286.0 717.5,286.0 721.0,286.0 724.5,286.0 728.0,286.0 731.5,286.0 735.0,286.0 738.5,286.0 742.0,286.0 745.5,286.0 749.0,286.0 752.5,286.0 756.0,286.0 759.5,286.0 763.0,286.0 766.5,286.0 770.0,286.0 773.5,286.0 777.0,286.0 780.5,286.0 784.0,286.0 787.5,286.0 791.0,286.0 794.5,280.0 798.0,286.0 801.5,286.0 805.0,286.0 808.5,286.0 812.0,286.0 815.5,286.0 819.0,286.0 822.5,286.0 826.0,286.0 829.5,280.0 833.0,286.0 836.5,286.0 840.0,286.0 843.5,286.0 847.0,286.0 850.5,286.0 854.0,286.0 857.5,286.0 861.0,286.0 864.5,286.0 868.0,286.0 871.5,286.0 875.0,286.0 878.5,286.0 882.0,286.0 885.5,286.0 889.0,286.0 892.5,286.0 896.0,286.0 899.5,286.0 903.0,286.0 906.5,286.0 910.0,286.0 913.5,286.0 917.0,286.0 920.5,286.0 924.0,286.0 927.5,286.0 931.0,280.0 934.5,286.0 938.0,286.0"/><text x="42" y="308" font-size="11" fill="#9fb0d4">19/06 12:43</text><text x="938" y="308" text-anchor="end" font-size="11" fill="#9fb0d4">03/07 19:40</text></svg>